<svg xmlns="http://www.w3.org/2000/svg" xmlns:xlink="http://www.w3.org/1999/xlink" fill="none" version="1.1" width="703.199951171875" height="702.8103637695312" viewBox="0 0 703.199951171875 702.8103637695312"><g><g><g><g><path d="M366.0396789550781,466.77055645751955C370.9196789550781,417.41055645751953,417.9696789550781,480.8705564575195,427.1996789550781,403.9305564575195C430.60967895507815,375.59055645751954,422.9596789550781,292.04055645751953,416.99967895507814,273.0605564575195C370.93967895507814,284.4905564575195,400.75967895507813,397.4805564575195,383.2896789550781,425.8605564575195C358.46967895507817,427.9305564575195,366.2296789550781,373.96055645751954,366.2296789550781,344.02055645751955C366.2296789550781,224.8105564575195,410.0996789550781,244.59055645751954,434.24967895507814,230.51055645751953C448.0396789550781,222.47055645751954,442.29967895507815,198.80015645751953,464.60967895507815,203.16015645751952C480.17967895507815,214.07055645751953,469.17967895507815,214.24055645751952,479.0896789550781,228.44055645751953C497.4196789550781,236.09055645751954,509.1396789550781,231.21055645751954,529.7796789550781,245.47055645751954C553.3996789550781,261.8005564575195,554.719678955078,327.29055645751953,556.2896789550781,355.91055645751953C557.2796789550781,373.90055645751954,565.7596789550781,404.76055645751956,556.3896789550781,416.0005564575195C541.0196789550781,422.47055645751954,536.6796789550781,409.8005564575195,536.4296789550781,394.71055645751954C536.0196789550781,367.34055645751954,529.8696789550781,328.96055645751954,524.2896789550781,304.3605564575195C520.5296789550781,287.5605564575195,523.2096789550781,275.52055645751955,508.73967895507815,268.7005564575195C494.75967895507813,280.6105564575195,497.5896789550781,295.9505564575195,494.1596789550781,317.63055645751956C487.5796789550781,359.39055645751955,487.4796789550781,383.01055645751956,499.24967895507814,424.89055645751955C506.60967895507815,451.1205564575195,521.1696789550781,438.26055645751956,544.4996789550781,440.72055645751954C564.8496789550782,442.79055645751953,568.6596789550781,464.16055645751953,541.4396789550781,466.33055645751955C510.61967895507814,468.79055645751953,384.43967895507814,470.6105564575195,366.04967895507815,466.66055645751953L366.0296789550781,466.7405564575195L366.0396789550781,466.77055645751955ZM174.86997895507812,308.35055645751953C176.37997895507812,287.47055645751954,179.29997895507813,272.75055645751956,195.54997895507813,266.41055645751953C202.36997895507812,300.9305564575195,196.47997895507814,340.29055645751953,198.66997895507814,376.84055645751954C200.3899789550781,405.01055645751956,202.67997895507813,457.46055645751954,209.13967895507812,481.1705564575195C217.03967895507813,479.47055645751954,218.67967895507815,477.84055645751954,224.35967895507812,474.64055645751955C227.72967895507813,455.0605564575195,217.26967895507812,403.0605564575195,215.17967895507815,379.84055645751954C213.35967895507812,359.40055645751954,216.60967895507812,296.97055645751954,225.18967895507814,282.3105564575195C228.94967895507813,278.4905564575195,239.66967895507813,283.2405564575195,246.67967895507812,286.4405564575195C254.47967895507813,289.89055645751955,250.23967895507812,302.2305564575195,262.84967895507816,311.7005564575195C277.1996789550781,322.4905564575195,277.6596789550781,313.27055645751955,275.93967895507814,338.9905564575195L253.18967895507814,336.1105564575195C248.34967895507813,322.96055645751954,248.5596789550781,305.5605564575195,233.0896789550781,310.21055645751954C226.88967895507812,315.77055645751955,226.88967895507812,311.2005564575195,228.78967895507813,324.6805564575195C229.13967895507812,327.2005564575195,233.5296789550781,340.62055645751957,234.5596789550781,343.28055645751954C247.3396789550781,375.82055645751956,273.2996789550781,348.8605564575195,279.9196789550781,369.3105564575195C281.93967895507814,375.40055645751954,279.8396789550781,382.10055645751953,274.7096789550781,385.95055645751955C257.74967895507814,398.7505564575195,262.5896789550781,376.28055645751954,246.0896789550781,375.0005564575195C233.38967895507812,385.89055645751955,237.19967895507813,425.6805564575195,242.36967895507811,445.6105564575195C250.18967895507814,475.7505564575195,269.0296789550781,472.15055645751954,301.9596789550781,469.83055645751955C361.6696789550781,465.70055645751955,345.3896789550781,439.59055645751954,347.22967895507816,391.6305564575195C347.8296789550781,376.4205564575195,347.5796789550781,365.96055645751954,337.2996789550781,360.3705564575195C325.36967895507814,364.0505564575195,328.1396789550781,370.3805564575195,326.18967895507814,386.27055645751955L299.6496789550781,386.0005564575195C292.3896789550781,353.34055645751954,309.6596789550781,361.6105564575195,328.9196789550781,350.59055645751954C340.43967895507814,344.00055645751956,352.6396789550781,316.8305564575195,340.24967895507814,299.47055645751954C305.0896789550781,294.14055645751955,345.5596789550781,341.10055645751953,295.73967895507815,335.77055645751955C294.49967895507814,303.3005564575195,305.7696789550781,320.91055645751953,313.5296789550781,296.50055645751956C322.9196789550781,266.84055645751954,319.1396789550781,278.5605564575195,346.61967895507814,273.35055645751953L347.25967895507813,257.72055645751954C333.1596789550781,253.32055645751953,273.2796789550781,258.28055645751954,251.49967895507814,259.79055645751953C238.94967895507813,260.6805564575195,231.0896789550781,265.02055645751955,223.36967895507814,265.50055645751956C216.43967895507814,239.68055645751954,214.78967895507813,220.35055645751953,183.5799789550781,221.20055645751953C158.32997895507813,221.88055645751953,127.52997895507812,234.53055645751954,160.10997895507813,251.30055645751952L164.4499789550781,253.66055645751953C165.21997895507812,254.03055645751954,165.9499789550781,254.46055645751954,166.63997895507813,254.96055645751954C146.38997895507813,337.21055645751954,148.86997895507812,344.4205564575195,156.21997895507812,427.89055645751955C158.80997895507812,457.28055645751954,158.28997895507814,473.08055645751955,174.39997895507813,470.3105564575195L176.17997895507813,465.29055645751953C179.17997895507813,447.2505564575195,164.26997895507813,413.9405564575195,168.75007895507812,361.9405564575195C170.32007895507815,343.87055645751957,173.5500789550781,326.5505564575195,174.9499789550781,308.4205564575195L174.86997895507812,308.3605564575195L174.86997895507812,308.35055645751953ZM226.88967895507812,236.97055645751954C238.13967895507812,223.08055645751955,253.29967895507812,225.5605564575195,274.97967895507816,225.04055645751953C290.2896789550781,224.67055645751952,320.47967895507816,222.04055645751953,333.6596789550781,225.35055645751953L338.22967895507816,241.27055645751952C315.3096789550781,244.49055645751952,297.81967895507813,241.93055645751954,275.7896789550781,244.93055645751954C256.50967895507813,247.55055645751952,236.32967895507812,256.2405564575195,226.89967895507812,236.97055645751954L226.88967895507812,236.97055645751954ZM323.0396789550781,105.21016645751953C196.43997895507812,120.51015645751953,87.25997895507813,234.88055645751953,106.31000895507813,382.82055645751956C122.39997895507813,507.8805564575195,235.73967895507812,616.6305564575196,381.73967895507815,598.1105564575196C507.25967895507813,582.1905564575195,614.5796789550782,468.1305564575195,596.4896789550781,320.4805564575195C581.2496789550781,195.90015645751953,466.9596789550781,87.81015645751953,323.0496789550781,105.21010645751953L323.0396789550781,105.21016645751953Z" fill-rule="evenodd" fill="#B81C24" fill-opacity="1"/></g></g></g><g><g><g><path d="M264.450365234375,410.76986932373046C272.54036523437503,402.4998693237305,302.800365234375,403.3098693237305,316.61036523437497,404.23986932373043C337.500365234375,405.6898693237305,329.66036523437504,437.08986932373045,324.880365234375,441.60986932373044C314.330365234375,451.63986932373047,291.29036523437503,454.2998693237305,274.91036523437504,451.5698693237305C259.11036523437497,448.9398693237305,254.100365234375,421.57986932373046,264.420365234375,410.76986932373046L264.440365234375,410.76986932373046L264.450365234375,410.76986932373046ZM270.100365234375,279.7801693237305L297.320365234375,278.8501693237305C300.010365234375,309.03016932373043,263.770365234375,306.45016932373045,270.100365234375,279.7801693237305ZM166.399965234375,254.81016932373046C146.400009234375,337.20986932373046,148.880005234375,344.4198693237305,156.219965234375,427.88986932373047C158.809965234375,457.2798693237305,158.289965234375,473.07986932373046,174.399965234375,470.3098693237305L176.179965234375,465.2898693237305C179.179965234375,447.23986932373043,164.269965234375,413.9398693237305,168.749965234375,361.9298693237305C170.319965234375,343.85986932373044,173.549965234375,326.5398693237305,174.949965234375,308.4101693237305C176.459965234375,287.53016932373043,179.379965234375,272.81016932373046,195.629965234375,266.4701693237305C202.459965234375,300.99016932373047,196.559965234375,340.34986932373045,198.749965234375,376.88986932373047C200.469965234375,405.0698693237305,202.759965234375,457.50986932373047,209.209965234375,481.21986932373045C217.109965234375,479.51986932373046,218.739965234375,477.88986932373047,224.429965234375,474.6898693237305C227.799965234375,455.10986932373044,217.339965234375,403.10986932373044,215.249965234375,379.88986932373047C213.429965234375,359.44986932373047,216.679965234375,297.02016932373044,225.259965234375,282.3601693237305C229.01996523437498,278.5401693237305,239.739965234375,283.2901693237305,246.750365234375,286.49016932373047C254.550365234375,289.94016932373046,250.310365234375,302.28016932373043,262.920365234375,311.75016932373046C277.270365234375,322.5398693237305,277.730365234375,313.32016932373045,276.010365234375,339.0398693237305L253.260365234375,336.1698693237305C248.420365234375,323.01986932373046,248.630365234375,305.62016932373047,233.159965234375,310.27016932373044C226.959965234375,315.8301693237305,226.959965234375,311.26016932373045,228.859965234375,324.7398693237305C229.209965234375,327.25986932373047,233.59996523437502,340.6798693237305,234.629965234375,343.33986932373045C247.410365234375,375.8798693237305,273.370365234375,348.9198693237305,279.99036523437496,369.3698693237304C282.010365234375,375.45986932373046,279.91036523437504,382.1598693237305,274.78036523437504,386.00986932373047C257.820365234375,398.8098693237305,262.66036523437504,376.33986932373045,246.160365234375,375.0598693237305C233.459965234375,385.94986932373047,237.26996523437498,425.73986932373043,242.439965234375,445.6698693237305C250.260365234375,475.8098693237305,269.100365234375,472.20986932373046,302.03036523437504,469.89986932373046C361.74036523437496,465.76986932373046,345.460365234375,439.6598693237305,347.300365234375,391.69986932373047C347.900365234375,376.48986932373043,347.650365234375,366.0298693237305,337.37036523437496,360.4398693237305C325.440365234375,364.1198693237304,328.210365234375,370.44986932373047,326.260365234375,386.33986932373045L299.720365234375,386.0698693237305C292.460365234375,353.4098693237305,309.730365234375,361.6798693237305,328.99036523437496,350.6598693237305C340.510365234375,344.0698693237305,352.710365234375,316.90016932373044,340.320365234375,299.5401693237305C305.16036523437504,294.2101693237305,345.630365234375,341.1698693237305,295.810365234375,335.83986932373045C294.570365234375,303.37016932373047,305.840365234375,320.9801693237305,313.600365234375,296.56016932373046C322.99036523437496,266.90016932373044,319.210365234375,278.62016932373047,346.690365234375,273.4101693237305L347.330365234375,257.7801693237305C333.220365234375,253.38016932373046,273.350365234375,258.3401693237305,251.570365234375,259.8501693237305C239.01996523437498,260.74016932373047,231.159965234375,265.08016932373044,223.439965234375,265.5501693237305C216.509965234375,239.73016932373048,214.859965234375,220.41020932373047,183.649965234375,221.25020602373047C158.399965234375,221.93019832373048,127.59996523437499,234.58016932373047,160.179965234375,251.35016932373048L164.519965234375,253.71016932373047C165.169965234375,254.03026932373047,165.789965234375,254.39016932373048,166.379965234375,254.81016932373046L166.399965234375,254.81016932373046Z" fill-rule="evenodd" fill="#FFFEFE" fill-opacity="1"/></g></g></g><g><g><g><path d="M446.1699781738281,358.88993890380857C446.1699781738281,305.14993890380856,426.12997817382814,269.32023890380856,449.5799781738281,254.3802389038086C461.0199781738281,247.0802389038086,471.7903781738281,256.1801389038086,479.3403781738281,259.9001389038086C481.8003781738281,284.21013890380857,475.5303781738281,284.2901389038086,473.14037817382814,305.3799389038086C466.1703781738281,364.8499389038086,480.0303781738281,429.9999389038086,478.27037817382814,440.4799389038086L442.25997817382813,440.88993890380857L446.24997817382814,358.90993890380855L446.1699781738281,358.88993890380857ZM366.0500181738281,466.76993890380857C384.43997817382814,470.7199389038086,510.62037817382816,468.8399389038086,541.4403781738281,466.4399389038086C568.6603781738281,464.26993890380857,564.8503781738282,442.9799389038086,544.5003781738282,440.8299389038086C521.1703781738281,438.3699389038086,506.61037817382817,451.15993890380855,499.25037817382815,424.9999389038086C487.4803781738281,383.1199389038086,487.58037817382814,359.4899389038086,494.1603781738281,317.7399389038086C497.5903781738281,296.06023890380857,494.76037817382814,280.7202389038086,508.74037817382816,268.81023890380857C523.2203781738281,275.5502389038086,520.5303781738281,287.5802389038086,524.3503781738282,304.3799389038086C529.9403781738281,328.9799389038086,536.0803781738282,367.3599389038086,536.4903781738282,394.7299389038086C536.7403781738282,409.8399389038086,541.0803781738282,422.4899389038086,556.4503781738281,416.01993890380857C565.8203781738281,404.77993890380856,557.3403781738282,373.90993890380855,556.3503781738282,355.9299389038086C554.7803781738281,327.2999389038086,553.4503781738281,261.81023890380857,529.8303781738282,245.48023890380858C509.15037817382813,231.2202389038086,497.46037817382813,236.1002389038086,479.14037817382814,228.45023890380858C469.1903781738281,214.2502389038086,480.1903781738281,213.98023890380858,464.6599781738281,203.17024990380858C442.3399781738281,198.8102489038086,448.10997817382815,222.48023890380858,434.2999781738281,230.5202389038086C410.1399781738281,244.6002389038086,366.2799981738281,224.8202389038086,366.2799981738281,344.01993890380857C366.2799981738281,373.94993890380863,358.5199881738281,427.8799389038086,383.3399781738281,425.8599389038086C400.81997817382813,397.4799389038086,370.9299881738281,284.4902389038086,417.0499781738281,273.06023890380857C423.00997817382813,292.0402389038086,430.6599781738281,375.5899389038086,427.24997817382814,403.9299389038086C418.00997817382813,480.8699389038086,370.9500081738281,417.40993890380855,366.0500181738281,466.76993890380857Z" fill-rule="evenodd" fill="#FFFEFE" fill-opacity="1"/></g></g></g><g><g><g><path d="M446.1700158203125,358.8901156616211L442.1800258203125,440.87011566162107L478.1900158203125,440.4601156616211C479.9500158203125,429.9801156616211,466.0900158203125,364.8201156616211,473.0600158203125,305.35021566162106C475.5400158203125,284.2902156616211,481.8100158203125,284.2002156616211,479.2700158203125,259.8702156616211C471.7200158203125,256.1502156616211,460.9400158203125,247.0502056616211,449.5100158203125,254.3502156616211C426.1400158203125,269.3102156616211,446.1800258203125,305.2402156616211,446.1800258203125,358.88011566162106L446.1700158203125,358.8901156616211Z" fill-rule="evenodd" fill="#B81C24" fill-opacity="1"/></g></g></g><g><g><g><path d="M264.45000993164064,410.7701792602539C254.11001993164064,421.5801792602539,259.1300049316406,448.9501792602539,274.9399799316406,451.5801792602539C291.3199799316406,454.3101792602539,314.3599799316406,451.5801792602539,324.90997993164063,441.6201792602539C329.6699799316406,437.0901792602539,337.5099799316406,405.69018926025393,316.6399799316406,404.25019026025393C302.7999799316406,403.3201982602539,272.53997993164063,402.5501792602539,264.4600199316406,410.7801892602539L264.45000993164064,410.7701792602539Z" fill-rule="evenodd" fill="#B81C24" fill-opacity="1"/></g></g></g><g><g><g><path d="M226.8899993928125,236.97014354248046C236.3200048828125,256.2401435424805,256.5100048828125,247.55024354248047,275.7800048828125,244.93024354248047C297.8100048828125,241.93024354248047,315.3000048828125,244.50024354248046,338.22000488281253,241.27024354248047L333.6500048828125,225.35019354248047C320.4100048828125,222.04020354248047,290.22000488281253,224.67020454248046,274.97000488281253,225.04020354248047C253.30000488281252,225.56020354248048,238.1300048828125,223.08019254248046,226.8800048828125,236.97014354248046L226.8899993928125,236.97014354248046Z" fill-rule="evenodd" fill="#FEFDFD" fill-opacity="1"/></g></g></g><g><g><g><path d="M270.10000627734377,279.78018983837893C263.77002427734374,306.45019683837893,300.00998427734373,309.0301968383789,297.31998427734374,278.8501968383789L270.10000627734377,279.78018983837893Z" fill-rule="evenodd" fill="#B71C23" fill-opacity="1"/></g></g></g><g><g><g><path d="M325.2999921777344,525.040169465332C325.81997217773437,524.4401894653321,326.8899821777344,522.790169465332,326.9099721777344,523.2801594653321C326.92996217773435,523.7801594653321,330.52997217773435,522.7401794653321,325.2999921777344,515.510139465332C323.8899821777344,518.1601594653321,318.26999217773437,516.770149465332,325.2999921777344,525.040169465332Z" fill-rule="evenodd" fill="#BA1E27" fill-opacity="1"/></g></g></g><g><g><g><path d="M549.0399715332031,130.83014926757812C546.7899715332031,134.36014926757812,552.0999715332032,132.42014926757813,544.7999715332031,134.18014926757812C546.8699715332032,131.35014926757813,540.2699715332031,132.11014926757812,549.0399715332031,130.83014926757812ZM521.1599715332031,96.74019926757812C528.0099715332032,95.67019926757813,526.5999715332031,93.70019926757813,530.5899715332031,98.48018926757813C524.2999715332031,100.11014926757812,523.4799715332031,98.54018926757813,521.1599715332031,96.74019926757812ZM521.1599715332031,96.74019926757812C517.9599715332031,96.65019926757813,514.9299715332031,98.21019926757812,513.1599715332031,100.87014926757813C509.5599715332031,105.13014926757813,511.2599715332031,105.01014926757813,509.1699715332031,109.92014926757813C502.83997153320314,112.71014926757812,507.59997153320313,108.95014926757813,500.76997153320315,111.06014926757813C486.7299805332031,118.60014926757813,482.5499915332031,123.59014926757813,488.2399915332031,126.05014926757812C489.4799815332031,126.77014926757812,486.69000253320314,128.5301492675781,492.1099815332031,125.26014926757813C492.75000153320315,124.87014926757813,496.07997153320315,121.95014926757813,497.13997153320315,121.13014926757813C498.28997153320313,119.42014926757813,499.2599715332031,117.60014926757813,500.03997153320313,115.69014926757812L503.71997153320314,115.19014926757812C507.45997153320315,116.60014926757813,504.7299715332031,113.97014926757812,506.8799715332031,117.40014926757813C505.40997153320313,118.14014926757812,504.8099715332031,118.41014926757812,502.7399715332031,119.28014926757812C502.21997153320314,121.84014926757813,501.71997153320314,122.46014926757812,501.2499715332031,121.14014926757812C501.2499715332031,120.87014926757813,500.9399715332031,121.88014926757813,500.6099715332031,122.19014926757814L501.39997153320314,126.14014926757812C504.20997153320315,127.42014926757813,501.2499715332031,124.69014926757814,504.2299715332031,128.35014926757813C504.4199715332031,128.58014926757812,504.6199715332031,128.93014926757812,504.8099715332031,129.18014926757812L507.14997153320314,133.17024926757813C519.1299715332032,123.31024926757811,518.2198715332031,131.68014926757812,523.2198715332031,124.45024926757813C526.3798715332031,119.88024926757812,523.2198715332031,120.81024926757813,529.1099715332032,119.14024926757813C531.6099715332032,123.62024926757812,529.1099715332032,127.08024926757813,522.9098715332032,134.48024926757813C517.4498715332031,140.89024926757813,512.9199715332031,138.61024926757813,504.0698715332031,138.24014926757812C504.6699715332031,149.26024926757813,508.20997153320315,150.64014926757812,517.0398715332032,150.00014926757814C528.5398715332032,149.24014926757812,528.3099715332031,138.26014926757813,534.4999715332032,135.7801492675781C539.6099715332032,137.85014926757813,539.6099715332032,141.13014926757813,539.3999715332031,147.40014926757812L529.4499715332031,150.89014926757812C532.9399715332031,154.01014926757813,547.9199715332031,156.2801492675781,552.7999715332031,153.74014926757812C556.6099715332032,144.46014926757812,551.3099715332031,147.54024926757813,549.0099715332032,140.61014926757812L566.3599715332032,140.8401492675781C564.7098715332031,134.08014926757812,565.4499715332031,138.77014926757812,567.3099715332031,137.30014926757812C567.3099715332031,129.0301492675781,566.3399715332031,133.83014926757812,563.6499715332031,128.41014926757813C567.7899715332031,123.20014926757813,568.4899715332032,120.35014926757813,560.4699715332031,117.68014926757812C559.6999715332031,126.16014926757813,562.5399715332031,125.95024926757813,550.3399715332031,125.95024926757813C545.7699715332031,124.15024926757812,549.1799715332031,124.73024926757813,545.0499715332031,121.07024926757812C540.5399715332031,122.12024926757812,542.8199715332031,122.02024926757812,538.5999715332031,124.25024926757813C538.2899715332031,116.46024926757812,535.9499715332031,115.05024926757812,530.6399715332032,112.30024926757812C534.3999715332031,110.81024926757813,537.4899715332032,110.90024926757812,538.9099715332031,107.55024926757812C535.9099715332031,103.19024926757812,534.8799715332032,103.21024926757812,535.1199715332032,100.21024926757812C535.4000715332031,99.66024926757812,535.7299715332031,99.14024926757813,536.1099715332032,98.66020926757813C541.1099715332032,99.09024926757813,537.5599715332031,98.41020926757813,539.4599715332031,100.73024926757813L549.0199715332031,102.47024926757813C551.2999715332031,102.33024926757813,556.1299715332032,102.47024926757813,553.5299715332031,96.39020926757813C552.5399715332031,93.99019926757812,551.4599715332031,93.81019926757813,548.9999715332032,93.02019926757812C546.9299715332031,92.32020926757812,516.9399715332031,85.19019926757812,518.2898715332032,91.99019926757812C518.8099715332031,94.59019926757813,518.4598715332031,92.49019926757812,519.5098715332031,94.22020926757813C524.3298715332031,102.38024926757812,518.2498715332031,90.71020926757812,521.1798715332031,96.72020926757813L521.1599715332031,96.74019926757812Z" fill-rule="evenodd" fill="#B81C24" fill-opacity="1"/></g></g></g><g><g><g><path d="M631.0300708007812,229.68018082763672C633.7900708007812,235.19016082763673,632.0799708007812,235.63016082763673,625.9000708007812,230.9801908276367L624.2699708007813,229.53019082763672C628.8600708007813,227.81019082763672,625.9899708007813,225.9101908276367,631.0300708007812,229.67019082763673L631.0300708007812,229.68018082763672ZM629.7100708007813,247.79016082763673L630.3699708007813,248.6801608276367C630.5199708007813,248.8701608276367,630.8299708007812,249.28016082763673,631.0099708007813,249.4901608276367L634.3799708007813,253.6201608276367C634.6699708007812,253.95016082763672,635.1899708007812,255.11016082763672,635.4100708007812,254.8401608276367C635.6399708007813,254.57016082763673,636.1800708007812,255.73016082763672,636.5500708007812,256.20016082763675C634.4800708007813,255.3701608276367,627.5900708007813,252.36016082763672,627.0100708007812,250.41016082763673C626.8200708007812,249.83016082763672,626.3900708007812,249.77016082763672,626.1000708007813,249.4601608276367L614.0200708007812,250.9901608276367C611.6600708007812,254.4601608276367,612.4700708007813,252.36016082763672,612.3700708007813,257.34016082763674C603.6200708007813,257.84016082763674,605.0700708007812,251.55016082763672,594.0500508007813,249.07016082763673C593.3700608007813,255.42016082763672,592.1300708007813,252.8701608276367,595.2100208007812,256.3701608276367C597.3799708007813,258.8501608276367,599.0400708007812,259.3901608276367,601.1899708007812,262.78016082763673C592.5200208007813,275.9901608276367,595.6300008007812,272.1201608276367,602.3699708007813,289.20016082763675C607.2299708007813,301.4801608276367,612.4199708007812,303.1101608276367,625.4299708007812,296.97016082763673C632.6899708007812,293.5401608276367,640.4199708007812,295.21016082763674,642.8599708007813,289.65016082763674C637.1699708007812,282.95016082763675,620.2299708007813,293.78016082763673,613.7599708007813,290.5201608276367C610.0799708007812,286.3901608276367,604.3099708007812,275.20016082763675,605.4899708007813,267.53016082763673C611.5099708007813,268.8901608276367,615.4599708007812,268.4201608276367,622.0399708007812,267.41016082763673C627.7699708007813,266.5201608276367,626.6499708007813,266.0201608276367,630.3099708007812,265.34016082763674C631.8899708007813,264.8601608276367,633.5699708007812,264.78016082763673,635.1899708007812,265.1101608276367C642.5999708007812,266.0401608276367,644.2899708007812,272.8001608276367,650.3299708007812,271.3101608276367C654.8199708007812,270.2601608276367,653.9700708007813,268.91016082763673,656.7800708007812,267.1801608276367C661.0799708007812,264.5101608276367,665.9999708007813,266.0601608276367,666.6000708007813,257.03016082763673C667.1000708007813,249.22016082763673,660.5000708007813,249.79016082763673,659.1300708007813,250.23016082763672C654.7000708007813,253.4301608276367,657.0600708007812,256.84016082763674,652.4900708007813,262.3001608276367C634.3300708007813,245.76016082763672,646.3900708007812,249.38016082763673,639.5000708007813,241.51016082763672C643.6400708007812,237.6901608276367,645.3700708007813,238.60016082763673,646.5100708007812,232.2101608276367C640.3100708007812,224.27016082763672,638.3600708007813,230.14016082763672,625.9300708007812,221.11016082763672C614.4700708007813,223.18017082763672,590.6700408007813,224.42016082763672,587.0100708007812,234.88016082763673C592.9000808007812,239.20016082763672,595.8000508007813,237.9001608276367,605.1500708007812,235.07016082763673L619.7700708007812,231.72016082763673C622.0300708007812,231.72016082763673,621.0300708007812,231.5301608276367,622.3400708007813,232.13016082763673L622.4600708007813,239.26016082763672C626.4500708007813,240.7501608276367,625.1500708007812,240.4001608276367,630.1500708007812,240.5001608276367C629.2400708007813,246.4901608276367,627.7100708007813,243.9301608276367,629.7000708007813,247.80016082763672L629.7100708007813,247.79016082763673Z" fill-rule="evenodd" fill="#B81C24" fill-opacity="1"/></g></g></g><g><g><g><path d="M127.760046875,200.51020208740235C127.760046875,196.95020208740235,127.040046875,199.91020208740235,129.150046875,200.34020208740236C129.370046875,200.44020208740233,129.560046875,200.58020208740234,129.730046875,200.75020208740233C130.100046875,201.91020208740235,127.660046875,204.02020208740234,127.660046875,200.50020208740233L127.760046875,200.50020208740233L127.760046875,200.51020208740235ZM116.450046875,194.31020208740233C118.52004687499999,196.83020208740234,118.52004687499999,195.74020208740234,117.360046875,198.96020208740234C114.010046875,196.34020208740233,113.860046875,197.74020208740234,116.450046875,194.31020208740233ZM139.700046875,188.69020208740235C137.78004687499998,189.70020208740235,143.03004687499998,191.07020208740235,134.650046875,189.74020208740234C132.480046875,184.80020208740234,133.450046875,186.91020208740235,134.900046875,184.24020208740234C133.740046875,180.83020208740234,131.300046875,181.53020208740236,123.540046875,180.10020208740235C121.05004687499999,179.70020208740235,118.530046875,179.48020208740235,116.010046875,179.44020208740235C114.480046875,174.46020208740234,112.890046875,164.97019208740235,105.830046875,166.42018908740235C97.560016875,168.22019208740235,107.630046875,170.24019208740233,97.850006875,169.50019208740235C91.650006875,169.02019208740234,96.570006875,167.02019508740236,89.020003875,169.35019208740235L96.130006875,186.86020208740234C100.740046875,182.46020208740234,99.380046875,179.79020208740235,108.27004687499999,178.98020208740235C105.910046875,202.57020208740235,113.400046875,205.85020208740235,112.650046875,212.32020208740235C111.990046875,218.07020208740235,111.430046875,215.26020208740235,110.730046875,216.02020208740234C101.69004687500001,206.99020208740234,103.900046875,197.42020208740234,97.840006875,189.66020208740235C96.120006875,191.83020208740234,95.600006875,194.72020208740236,96.450006875,197.35020208740235L104.310046875,222.16020208740235C96.329996875,217.69020208740233,93.550006875,205.81020208740233,89.829996875,208.50020208740233C87.910003875,210.75020208740233,88.999999875,207.59020208740236,88.590003875,211.23020208740235C88.380004875,213.15020208740233,88.050002875,213.59020208740236,90.179996875,216.89020208740234C92.929996875,221.21020208740234,93.489996875,219.14020208740234,96.239996875,223.09020208740236C100.380046875,228.86020208740234,95.209996875,224.19020208740233,103.290046875,231.90020208740236C106.27004687499999,234.73020208740235,111.560046875,245.52020208740234,117.250046875,240.29020208740235C120.040046875,237.73020208740235,116.860046875,231.77020208740234,116.630046875,230.91020208740235C113.799946875,220.57020208740235,127.530046875,223.45020208740235,133.489946875,223.72020208740236C145.089946875,203.77020208740234,136.939946875,206.89020208740234,142.219946875,197.51020208740235C143.559946875,195.13020208740235,145.17994687499998,193.60020208740235,144.449946875,189.45020208740235C141.719946875,188.33020208740234,143.419946875,188.25020208740233,139.669946875,188.75020208740233L139.669946875,188.69020208740235L139.700046875,188.69020208740235Z" fill-rule="evenodd" fill="#B81C24" fill-opacity="1"/></g></g></g><g><g><g><path d="M475.7800244140625,72.14018859863282L475.1800244140625,66.89018859863282C480.0000244140625,69.08018859863282,477.7000244140625,66.46018859863281,480.6000244140625,72.5301885986328C482.4600244140625,77.49018859863281,496.1900244140625,100.15018859863281,501.1200244140625,96.88018859863281C508.3600244140625,92.08018859863282,493.3600244140625,77.02018859863281,488.1300244140625,68.77018859863281C486.2300244140625,65.97018859863282,483.99002441406253,63.42018859863281,481.4500244140625,61.18018859863281C479.5900244140625,59.980188598632814,479.8400244140625,60.480188598632814,478.5800244140625,58.04018859863281C475.2900244140625,52.190188598632815,480.1300244140625,53.00018859863281,473.24002441406253,47.99018859863281L440.7700244140625,63.18018859863281C434.8300174140625,66.0301885986328,435.5000344140625,66.57018859863281,433.9000244140625,72.3401885986328C441.6600344140625,72.3401885986328,448.7300244140625,68.21018859863281,455.7000244140625,64.77018859863281C461.4300244140625,62.020188598632814,473.2000244140625,54.910188598632814,474.4600244140625,66.13018859863281C458.6000244140625,57.49018859863281,463.5200244140625,68.20018859863282,455.8500244140625,71.36018859863282C448.1800244140625,74.52018859863281,449.8100244140625,71.55018859863281,446.5200244140625,79.63018859863281C448.5900244140625,83.12018859863281,449.8700244140625,83.45018859863282,452.2500244140625,86.62018859863281C447.2700244140625,86.45018859863282,447.4900244140625,83.68018859863281,445.0700244140625,83.33018859863282C441.8600744140625,82.83018859863282,440.4400644140625,85.76018859863282,440.8100544140625,92.0901885986328L436.6700444140625,101.89018859863282C440.5400344140625,106.02018859863281,443.1200544140625,106.60018859863281,449.6600244140625,108.67018859863282C457.1900244140625,111.07018859863281,456.5700244140625,112.64018859863282,462.5900244140625,115.49018859863281C469.1900244140625,109.29018859863281,463.5800244140625,106.93018859863281,461.0800244140625,100.38018859863281C468.6700244140625,98.5001885986328,469.8900244140625,100.0901885986328,470.8200244140625,96.89018859863282C470.8200244140625,89.74018859863281,471.1100244140625,90.69018859863282,466.56002441406247,87.63018859863281C470.99002441406253,79.96018859863281,468.7900244140625,84.41018859863281,468.8600244140625,75.66018859863281L471.0300244140625,74.96018859863281C475.6600244140625,73.12018859863281,474.5900244140625,74.22018859863282,475.7900244140625,72.13018859863281L475.7800244140625,72.14018859863282Z" fill-rule="evenodd" fill="#B81C24" fill-opacity="1"/></g></g></g><g><g><g><path d="M167.84000915527344,151.7002237548828C166.04000915527342,149.63022375488282,166.85000915527343,152.2002237548828,165.92000915527345,148.6402237548828C163.95000915527345,141.16022375488282,171.09000915527344,134.3402237548828,174.38000915527343,131.01022375488282C174.98000915527342,135.0302237548828,174.34000915527344,139.1402237548828,172.56000915527343,142.79022375488282C168.69000915527343,152.82022375488282,172.17000915527345,149.3402237548828,167.84000915527344,151.7002237548828ZM163.87000915527344,135.6402237548828L170.07000915527345,127.37022375488282C168.64000915527345,126.71022375488282,172.66000915527343,124.00022375488281,166.43000915527344,126.54022375488282L162.73000915527342,131.73022375488281C161.24000915527344,137.75022375488282,162.98000915527342,134.25022375488282,163.83000915527344,135.5502237548828L163.87000915527344,135.63022375488282L163.87000915527344,135.6402237548828ZM143.91000366527345,113.81018375488281C143.91000366527345,129.13022375488282,143.58000215527343,119.39019375488282,156.03000915527343,126.21022375488282C154.72000915527343,129.2402237548828,153.07999915527344,132.13022375488282,151.14998915527343,134.81022375488283C150.47999915527345,136.2402237548828,149.47999915527345,137.4902237548828,148.22999915527345,138.4502237548828C148.01998915527344,138.6202237548828,147.66999915527344,138.82022375488282,147.43999915527343,138.97022375488282L143.90000915527344,140.81022375488283C146.32000915527342,147.01022375488282,148.49000915527344,146.6402237548828,154.24000915527344,146.41022375488282C156.76000915527345,152.6102237548828,155.67000915527345,152.6102237548828,161.44000915527343,155.0902237548828L163.51000915527345,155.85022375488282L165.58000915527344,156.7402237548828C154.37000915527344,172.62022375488283,148.19001915527343,165.01022375488282,147.55001915527345,177.2702237548828C153.07001915527343,177.9902237548828,153.40002915527344,180.7202237548828,157.25000915527343,178.2402237548828L192.31000915527343,142.4602237548828C195.58000915527344,139.6702237548828,201.60000915527343,137.44022375488282,202.28000915527343,132.29022375488282C203.27000915527344,124.60022375488282,202.42000915527345,128.3602237548828,199.94000915527343,126.96022375488282C198.60000915527343,124.89022375488281,199.61000915527345,125.86022375488281,196.40000915527344,126.57022375488282C182.58000915527344,129.6502237548828,192.10000915527343,134.8402237548828,181.92000915527345,138.1402237548828C183.18000915527344,130.7402237548828,184.46000915527344,127.81012375488281,181.69000915527343,121.60017375488282C164.85000915527343,119.08017375488281,176.64000915527345,124.95012375488281,167.21000915527344,124.14022375488281C168.99000915527344,121.51017375488281,168.41000915527343,129.06012375488282,168.04000915527342,121.62017375488281C167.77000915527344,116.47017375488281,168.60000915527343,119.04017375488282,163.90000915527344,117.2401837548828L161.83000915527344,116.66018375488281C157.28000915527343,114.86017375488281,162.72000915527343,117.28018375488281,159.95000915527345,115.79017375488282C157.51000915527345,114.6901737548828,156.89000915527345,110.1901737548828,143.90002441407344,113.81017375488281L143.91000366527345,113.81018375488281Z" fill-rule="evenodd" fill="#B81C24" fill-opacity="1"/></g></g></g><g><g><g><path d="M376.39000732421874,49.1401870727539C376.82000732421875,43.170187072753905,378.95000732421875,46.0801870727539,380.65000732421873,39.18018707275391C365.32003732421873,21.750187072753906,363.26000732421875,42.240187072753905,363.24001732421874,42.280187072753904C360.43002732421877,49.780187072753904,359.81002732421877,42.450187072753906,357.57000732421875,50.55018707275391C361.39999732421876,55.16018707275391,364.2499973242187,51.29018707275391,363.27999732421875,58.1401870727539C362.82000732421875,61.47018707275391,357.64999392421873,65.6401870727539,361.57998732421873,69.36018707275392C365.91998732421877,73.49018707275391,371.9200073242188,63.16018707275391,373.6000073242187,61.090187072753906C379.12000732421876,53.590187072753906,380.14000732421874,53.770187072753906,391.32000732421875,54.37018707275391C393.39000732421874,80.3101870727539,377.81000732421876,93.8101870727539,388.34000732421873,101.6901870727539C397.16990732421874,98.4701870727539,396.03000732421873,81.8201870727539,397.29990732421874,72.7501870727539C398.09000732421873,67.0701870727539,399.63990732421877,63.030187072753904,401.10990732421874,56.73018707275391C403.34000732421873,47.16018707275391,402.69990732421877,48.030187072753904,413.52000732421874,48.030187072753904C414.8799073242187,44.43018707275391,415.75000732421876,44.43018707275391,415.96000732421874,39.76018707275391C410.31000732421876,35.630187072753905,410.25000732421876,40.520187072753906,407.50000732421876,35.270187072753906C405.12000732421876,30.720187072753905,407.87000732421876,27.350187072753908,398.88000732421875,26.090187072753906C396.6700073242188,37.210187072753904,401.2200073242187,42.380187072753905,385.21000732421874,48.87018707275391L379.15000732421873,50.090187072753906C376.5400073242188,49.80018707275391,377.00000732421876,49.6101870727539,376.40000732421873,49.1401870727539L376.39000732421874,49.1401870727539Z" fill-rule="evenodd" fill="#B81C24" fill-opacity="1"/></g></g></g><g><g><g><path d="M61.62000130126953,262.5201619262695L54.37999730126953,263.5901619262695C52.49999130126953,272.04016192626955,54.94000130126953,269.6901619262695,75.60002130126954,276.7601619262695C87.84002130126953,280.8901619262695,86.44002130126952,278.8301619262695,86.71002130126953,286.5801619262695C87.31002130126953,303.8201619262695,82.57002130126953,309.0101619262695,85.18002130126953,317.59026192626953C106.59002130126953,325.86016192626954,88.41002130126952,288.65026192626954,103.69002130126952,261.03026192626953C104.56002130126953,259.44026192626956,105.03002130126953,259.46026192626954,105.32002130126953,257.2302619262695C106.40002130126953,248.96023192626953,97.61002130126954,245.05023992626954,91.05002130126954,260.45026192626955C88.69002130126952,266.01026192626955,89.35002130126952,270.08026192626954,84.18002130126953,269.77026192626954C79.55002130126954,268.1802619262695,82.48002130126953,271.28026192626953,80.04002130126953,265.64026192626955C76.61002130126953,257.78026192626953,80.74002130126954,246.44023892626953,73.38002130126952,245.82022862626954C67.84002130126953,245.36022192626953,67.82002130126953,251.44022192626954,68.48002130126953,257.3502619262695C69.58002130126953,267.4202619262695,68.21002130126953,262.52026192626954,61.610001301269534,262.52026192626954L61.62000130126953,262.5201619262695Z" fill-rule="evenodd" fill="#B81C24" fill-opacity="1"/></g></g></g><g><g><g><path d="M239.44999938964844,75.99018417358398C241.26999938964843,73.14018417358399,240.27999938964842,73.57018417358398,243.14999938964843,74.38018417358398C240.93999938964845,76.45018417358398,245.68999938964845,76.26018417358398,239.44999938964844,75.99018417358398ZM237.04999938964843,77.44018417358399L239.44999938964844,75.99018417358398C240.45999938964843,80.91018417358399,240.08999938964843,77.58018417358399,238.03999938964844,78.78018417358399C237.14999938964843,79.81018417358399,235.96999938964842,81.05018417358399,235.09999938964845,81.86018417358399C232.30999938964842,84.75018417358399,233.46999938964845,82.07018417358398,231.74999938964845,86.30018417358399C233.95999938964843,88.37018417358398,235.98999938964843,87.00018417358399,238.90999938964845,88.97018417358399C235.53999938964844,95.63018417358398,231.04999938964843,92.42018417358398,230.63999938964844,101.19018417358399C236.36999938964843,101.870184173584,235.82999938964844,102.04018417358398,239.92999938964843,100.14018417358398L240.97999938964844,97.10018417358398C242.48999938964843,98.67018417358398,242.25999938964844,96.48018417358398,242.50999938964844,99.66018417358399C242.89999938964843,104.58018417358399,241.65999938964845,101.620184173584,240.87999938964845,102.620184173584C239.71999938964842,110.89018417358398,239.40999938964845,115.02018417358398,245.01999938964843,118.02018417358398C254.40999938964845,113.14018417358398,244.00999938964844,110.97018417358399,250.32999938964844,104.13018417358398C251.87999938964845,106.78018417358399,251.42999938964843,109.86018417358397,253.13999938964844,113.82018417358398C260.7899993896484,114.36018417358397,256.8399993896484,112.14018417358398,263.6699993896484,109.09018417358399C267.6599993896484,107.31018417358399,269.51999938964843,109.23018417358398,269.87999938964845,102.25018417358399C255.66999938964844,98.120184173584,264.31999938964844,104.32018417358398,259.5399993896484,93.20018417358398C259.3499993896484,92.79018417358398,261.2799993896484,88.53018417358399,253.33999938964843,91.86018417358397C250.12999938964845,93.18018417358398,250.29999938964843,94.94018417358399,246.92999938964843,92.67018417358398C250.37999938964845,90.29018417358398,252.09999938964845,89.38018417358398,254.03999938964844,85.00018417358399C251.42999938964843,81.11018417358399,253.70999938964843,82.40018417358398,246.92999938964843,81.96018417358398C247.00999938964844,80.05018417358399,246.67999938964843,78.15018417358398,245.97999938964844,76.38018417358398C245.85999938964844,76.07018417358398,245.68999938964845,75.74018417358398,245.54999938964843,75.41018417358399L244.63999938964844,73.51018417358398C244.49999938964845,73.22018417358399,244.26999938964843,72.75018417358399,244.13999938964844,72.54018417358398C243.94999938964844,72.23018417358398,243.78999938964844,71.89018417358399,243.65999938964845,71.55018417358399C244.75999938964844,70.81018417358399,249.44999938964844,67.42018417358398,250.64999938964843,66.40018417358398C253.91999938964844,63.340184173583985,253.18999938964845,62.270184173583985,251.61999938964843,58.130184173583984C237.96999938964842,58.750183173583984,236.37999938964845,66.96018417358398,234.03999938964844,69.87018417358398C228.07998938964843,77.35018417358398,221.31998938964844,76.07018417358398,219.88999938964844,87.05018417358399C229.35999938964844,86.35018417358398,231.21999938964845,80.04018417358398,237.05999938964845,77.46018417358398L237.04999938964843,77.44018417358399Z" fill-rule="evenodd" fill="#B81C24" fill-opacity="1"/></g></g></g><g><g><g><path d="M579.070026171875,187.26019866943358C574.9300261718749,195.3401986694336,568.730026171875,193.4601986694336,564.920026171875,189.8401986694336C560.119996171875,185.2301986694336,562.599926171875,179.07019866943358,556.829956171875,176.3001986694336C553.439946171875,180.6801986694336,551.579956171875,183.66019866943358,552.819946171875,190.8901986694336C555.219966171875,204.8601986694336,573.279926171875,203.6801986694336,581.029926171875,198.0401986694336L582.620026171875,196.6801986694336C584.130026171875,195.5401986694336,584.940026171875,195.0901986694336,586.050026171875,194.3401986694336L594.320026171875,202.9201986694336C596.490026171875,206.1201986694336,601.660026171875,215.32019866943358,603.650026171875,205.5401986694336C605.450026171875,196.5901986694336,598.560026171875,193.4701986694336,595.070026171875,190.1201986694336C592.300026171875,187.4701986694336,594.410026171875,188.69019866943358,590.520026171875,185.8601986694336C592.590026171875,178.7101986694336,594.880026171875,184.2301986694336,592.050026171875,173.2901986694336L584.270026171875,170.7502086694336L582.4300261718749,179.3901986694336C577.490026171875,175.9202086694336,570.599926171875,169.4702076694336,563.649926171875,168.6801986694336C566.769926171875,182.2601986694336,572.360026171875,179.6101986694336,579.059926171875,187.2401986694336L579.070026171875,187.26019866943358Z" fill-rule="evenodd" fill="#B81C24" fill-opacity="1"/></g></g></g><g><g><g><path d="M286.3500016894531,81.96019271850585C287.64999168945315,79.89019271850586,285.73001168945314,80.64019271850586,289.9500116894531,79.17019271850586C293.7699816894531,73.90019271850585,297.2299816894531,68.38019271850587,300.2899816894531,62.63019271850586C300.55998168945314,62.84019271850586,300.9099816894531,62.92019271850586,301.0099816894531,63.37019271850586C302.3999816894531,68.68019271850585,318.81998168945313,68.74019271850585,319.61998168945314,56.53019271850586C309.1499816894531,57.38019271850586,309.74998168945314,58.60019271850586,303.2599816894531,61.41019271850586C303.2599816894531,42.68019271850586,321.3399816894531,56.97019271850586,337.56998168945313,51.51019271850586C337.93998168945313,45.31019271850586,334.81998168945313,41.03019271850586,328.2799816894531,40.41019271850586C320.0099816894531,39.62019271850586,322.1999816894531,46.84019271850586,310.6599816894531,43.14019271850586C310.24998168945314,38.03019271850586,314.8999816894531,33.90019271850586,311.2799816894531,28.67019271850586L305.37998168945313,28.67019271850586C304.2199816894531,37.12019271850586,306.9099816894531,33.49019271850586,302.62998168945313,41.90019271850586C299.93998168945313,47.15019271850586,298.17998168945314,50.830192718505856,295.86998168945314,55.17019271850586C291.2999916894531,63.77019271850586,283.91998168945315,70.24019271850585,281.9499816894531,81.05019271850585L286.3299816894531,81.96019271850585L286.3500016894531,81.96019271850585Z" fill-rule="evenodd" fill="#B81C24" fill-opacity="1"/></g></g></g><g><g><g><path d="M308.6099880273438,82.68022277832031C308.8799780273437,83.05022277832032,309.45998802734374,84.11022277832032,309.53997802734375,83.73022277832031C309.61996802734376,83.36022277832032,310.1999780273438,84.66022277832032,310.11996802734376,85.09022277832031L307.40997802734375,86.74022277832032C304.09997802734375,91.99022277832032,303.49996902734375,90.87022277832031,305.08996802734373,96.37022277832031C312.01995802734376,97.9402227783203,316.02997802734376,95.30022277832032,320.53997802734375,92.81022277832031L321.85997802734374,96.55022277832032C331.57997802734377,96.55022277832032,338.98997802734374,92.23022277832031,339.08997802734376,82.08022277832032C324.17997802734374,70.59019277832031,329.71997802734376,82.35022277832032,317.57997802734377,85.24022277832032C320.92997802734374,76.9702227783203,328.1899780273437,75.42019277832031,329.32997802734377,68.06019277832031C319.1299780273437,63.35019277832031,320.05997802734373,67.17019277832031,307.6099880273438,73.60019277832032C303.4699710273438,75.67019277832031,304.89999802734377,74.59019277832031,302.53997802734375,78.33022277832032C305.86996802734376,82.26022277832031,305.30996802734376,79.51022277832031,308.59997802734375,82.65022277832031L308.6099880273438,82.68022277832031Z" fill-rule="evenodd" fill="#B81C24" fill-opacity="1"/></g></g></g><g><g><g><path d="M603.7099829101562,161.85021290283203C601.4999829101563,165.98021290283202,602.7799829101563,165.12021290283204,598.1899829101562,165.80021290283204C597.4499829101562,157.78019290283203,598.3399829101562,162.16021290283203,599.7999829101562,160.53019290283203C602.2399829101563,156.73018290283204,602.5099829101563,157.18018290283203,602.3699829101563,150.98018690283203C594.2999829101562,149.43018290283203,596.2899829101563,155.34018290283203,591.4299829101562,160.03019290283203C589.3599829101563,158.71018290283203,573.9899929101563,146.39019290283204,570.1699829101562,162.10021290283203C577.4500129101563,167.02021290283204,579.3699929101563,161.69021290283203,589.6899829101562,167.72021290283203C597.9599829101562,172.52021290283204,601.6699829101562,180.76021290283202,610.1699829101562,177.13021290283203L611.0399829101563,176.74021290283204C613.6299829101563,175.75021290283203,626.9199829101562,176.60021290283203,621.8799829101563,166.01021290283202C615.6799829101562,164.13021290283203,617.2499829101563,170.83021290283205,610.3599829101563,166.01021290283202L613.8099829101562,164.33021290283205L614.5699829101562,164.10021290283203L615.3599829101563,163.87021290283204L616.9699829101562,163.33021290283205C610.3699829101563,154.13022290283203,607.0999829101562,157.36022290283202,603.7099829101562,161.84021290283204L603.7099829101562,161.85021290283203Z" fill-rule="evenodd" fill="#B81C24" fill-opacity="1"/></g></g></g><g><g><g><path d="M206.60000612695313,100.6901919555664C206.79000812695313,100.81019195556641,209.62001012695313,102.2601919555664,210.05000012695314,102.5701919555664C217.70003012695312,108.03019195556641,212.35001012695312,118.5501919555664,216.52003012695312,126.49019195556642C218.59003012695314,130.3401919555664,219.33003012695312,132.0701919555664,223.80003012695312,132.9401919555664C226.70003012695312,125.89019195556641,225.8700301269531,120.9701919555664,223.66003012695313,113.9401919555664C222.81003012695314,111.12019195556641,222.1200301269531,108.2601919555664,221.59003012695314,105.3601919555664C218.84003012695314,93.8001919555664,214.6400001269531,101.56019195556641,214.6400001269531,83.6601919555664C214.6400001269531,76.4901919555664,224.30003012695312,68.3001939555664,207.31999212695314,67.4701919555664C207.60999012695314,74.06019195556641,209.3900001269531,76.28019195556641,208.34999012695312,84.65019195556641C207.64999012695313,90.64019195556641,205.63998412695312,93.75019195556641,206.58999612695314,100.6901919555664L206.60000612695313,100.6901919555664Z" fill-rule="evenodd" fill="#B81C24" fill-opacity="1"/></g></g></g><g><g><g><path d="M72.06999969482422,199.43017995361328L75.06999969482422,202.57013995361328C82.38999969482421,203.4001399536133,87.24999969482423,200.6301799536133,89.54999969482422,194.80017995361328C80.13999969482421,189.20016995361328,75.25999969482422,191.49018095361328,72.06999969482422,199.43017995361328Z" fill-rule="evenodd" fill="#B81C24" fill-opacity="1"/></g></g></g><g><g><g><path d="M228.91999388671874,67.28018829345703C232.88000388671875,66.04018829345704,236.21998388671875,63.36018829345703,238.26998388671876,59.760188293457034C237.00998388671874,56.54018829345703,238.57998388671876,58.42018829345703,236.34998388671875,56.10018829345703C234.12001388671874,53.780189293457035,230.89000388671874,53.76018929345703,226.86000388671874,53.56018829345703C224.71000688671876,60.53018829345703,224.52000388671874,60.55018829345703,228.93000388671874,67.29018829345704L228.91999388671874,67.28018829345703Z" fill-rule="evenodd" fill="#B81C24" fill-opacity="1"/></g></g></g><g><g><g><path d="M618.3700122070312,182.75019049072264C608.1300022070312,180.50019049072264,614.5200122070313,183.16019049072267,610.4500122070312,184.07020049072267C606.9500122070312,184.83019049072266,603.7300422070313,182.67020449072265,599.2000122070312,182.00019049072264C599.3699952070313,182.43018349072267,599.9199832070312,184.44019049072264,600.1300052070312,184.77019049072265C601.4100322070312,186.84020049072265,600.3800022070312,185.47019049072264,602.0100122070312,186.96020049072266C605.4400022070313,190.16019049072264,618.0000122070312,196.59019049072265,618.3700122070312,182.74019649072267L618.3700122070312,182.75019049072264Z" fill-rule="evenodd" fill="#B81C24" fill-opacity="1"/></g></g></g><g><g><g><path d="M217.1300048828125,146.45018560302734L219.7600048828125,146.08019560302733L219.7600048828125,142.85019660302734C217.1300048828125,144.86019560302734,219.2000148828125,139.42020560302734,217.1300048828125,146.45018560302734Z" fill-rule="evenodd" fill="#B81C24" fill-opacity="1"/></g></g></g><g><g><g><path d="M36.68000030517578,237.16018974853515C41.21000030517578,235.69018974853515,37.71000030517578,237.16018974853515,38.89000030517578,235.09018974853515L37.54999930517578,234.02017974853516L36.68000030517578,237.16018974853515Z" fill-rule="evenodd" fill="#B81C24" fill-opacity="1"/></g></g></g><g><g><g><path d="M183.36000061035156,284.35019317626956C184.59000061035155,283.56019317626954,185.69000061035158,282.58020317626955,186.61000061035156,281.44019317626953C182.63999961035157,282.54020317626953,185.03999061035157,280.4901811762695,183.36000061035156,284.35019317626956Z" fill-rule="evenodd" fill="#B81C24" fill-opacity="1"/></g></g></g><g><g><g><path d="M442.6499975585937,298.7002014868164L444.10000755859375,297.5402014868164L441.55999755859375,295.4902114868164L442.66000755859375,298.6902214868164L442.6499975585937,298.7002014868164Z" fill-rule="evenodd" fill="#B81C24" fill-opacity="1"/></g></g></g><g><g><g><path d="M481.45001708984375,61.19018997192383L478.58001708984375,58.05018997192383C479.8000170898438,60.490189971923826,479.5900270898438,59.95018997192383,481.45001708984375,61.19018997192383Z" fill-rule="evenodd" fill="#B81C24" fill-opacity="1"/></g></g></g><g><g><g><path d="M543.74999953125,204.85019355224608C543.10998953125,203.48020355224608,542.07000953125,202.3402025522461,540.77001953125,201.5602035522461L543.74999953125,204.85019355224608Z" fill-rule="evenodd" fill="#B81C24" fill-opacity="1"/></g></g></g><g><g><g><path d="M87.97000122070312,146.35019500732423L91.07000122070312,143.27019500732422L87.97000122070312,146.35019500732423Z" fill-rule="evenodd" fill="#B81C24" fill-opacity="1"/></g></g></g><g><g><g><path d="M351.57,0.00019073486328125C545.75,-0.01980926513671875,703.18,157.3001907348633,703.2,351.3701907348633C703.22,545.4501907348633,545.82,702.7901907348632,351.63,702.8101907348632C157.45,702.8301907348633,0.02,545.5201907348633,0,351.4401907348633C0,258.2401907348633,37.03,168.85019073486328,102.96,102.94019073486328C168.83,36.94019073486328,258.3,-0.09980926513671876,351.57,0.00019073486328125ZM593.97,109.25019073486328C460.1,-24.559809265136717,243.05,-24.56980926513672,109.16,109.22019073486328C-24.72,243.01019073486327,-24.74,459.95019073486327,109.13,593.7601907348633C243,727.5701907348633,460.05,727.5801907348633,593.94,593.7901907348632C658.24,529.5401907348632,694.36,442.39019073486327,694.36,351.5101907348633C694.5,260.6301907348633,658.4,173.45019073486327,594.05,109.25019073486328L593.97,109.25019073486328Z" fill="#B81C24" fill-opacity="1"/></g></g></g><g><g><g><path d="M57.88000198364258,348.7801413208008L57.88000198364258,343.6501413208008C59.82000198364258,343.9901413208008,61.66000198364257,342.6902413208008,61.99000198364258,340.76014132080076C62.050001983642574,340.4001413208008,62.06000198364258,340.0401413208008,62.01000198364258,339.69014132080076C61.87000198364258,337.0901613208008,60.81000198364258,335.7001713208008,58.85000198364258,335.5601613208008C57.220001983642575,335.5601613208008,56.080001983642575,336.8201713208008,55.40000198364258,339.4101413208008C55.31000198364258,339.62014132080077,55.26000198364258,339.8401413208008,55.26000198364258,340.07014132080076C55.23000198364258,340.3001413208008,55.180001983642576,340.5301413208008,55.12000198364258,340.75014132080076C53.84000198364258,346.5801413208008,51.49000198364258,349.4101413208008,48.07000198364258,349.25014132080076C42.860001983642576,349.06014132080077,40.21000288364258,345.4701413208008,40.17000198364258,338.44016132080077C40.29000098364258,331.98017132080076,43.10000198364258,328.84015632080076,48.59000198364258,329.0301590008008L48.49000198364258,334.4301513208008C46.30000198364258,334.0701713208008,44.24000198364258,335.5601613208008,43.88000198364258,337.7401513208008C43.84000198364258,338.01014132080076,43.82000198364258,338.2901413208008,43.830001983642575,338.5601613208008C43.830001983642575,341.8001413208008,44.88000198364258,343.50014132080076,46.95000198364258,343.62014132080077C48.67000198364258,343.62014132080077,49.87000198364258,342.1101413208008,50.57000198364258,338.9701613208008C50.62000198364258,338.6501513208008,50.71000198364258,338.3401613208008,50.84000198364258,338.04017132080077C52.21000198364258,332.5601613208008,54.56000198364258,329.88016532080076,57.89000198364258,329.94016232080077C63.02000198364258,330.3101613208008,65.69000198364257,333.83018132080076,65.91000198364257,340.4801413208008C65.54000198364258,345.88014132080076,62.92000198364258,348.6401413208008,58.050001983642574,348.75014132080076L57.88000198364258,348.7901413208008L57.88000198364258,348.7801413208008Z" fill="#B81C24" fill-opacity="1"/></g></g></g><g><g><g><path d="M40.11000057929687,358.0001907348633L40.029998779296875,352.7302017348633L64.98999877929688,352.2501907348633L65.08999877929688,357.5001907348633L55.21999877929687,357.7101807348633L55.40999877929688,367.14019073486327L65.24999877929687,366.95019073486327L65.34999877929687,372.34019073486326L40.38999977929687,372.8201907348633L40.290000779296875,367.5701907348633L51.22999877929688,367.3601907348633L51.03999877929687,357.7902007348633L40.100002279296874,358.0001907348633L40.11000057929687,358.0001907348633Z" fill="#B81C24" fill-opacity="1"/></g></g></g><g><g><g><path d="M66.14999908447265,380.97018927978513L40.209999084472656,375.29019927978516L40.889999084472656,380.37018927978517L46.34999908447266,381.55017927978514L47.649999084472654,391.31019927978514L42.66999908447266,393.87019927978514L43.389999084472656,399.22019927978516L66.98999908447266,387.25019927978514L66.13999908447266,380.97018927978513L66.14999908447265,380.97018927978513ZM51.66999908447266,389.43019927978514L50.65999908447266,382.42016927978517L61.69999908447265,384.49017927978514L61.69999908447265,384.63019927978513L51.66999908447266,389.43019927978514Z" fill="#B81C24" fill-opacity="1"/></g></g></g><g><g><g><path d="M47.52000007080078,423.6902017211914L72.13001007080078,419.45020172119143L71.28001007080078,414.5102017211914L52.00001007080078,417.8402017211914L51.83001007080078,417.7402017211914L69.64001007080078,405.0901917211914L68.30001007080078,397.2302017211914L43.69001007080078,401.4701917211914L44.54000807080078,406.4101917211914L64.89001007080078,402.9001817211914L65.03001007080078,403.0001917211914L46.210010070800784,416.1002017211914L47.51001007080078,423.6902017211914L47.52000007080078,423.6902017211914Z" fill="#B81C24" fill-opacity="1"/></g></g></g><g><g><g><path d="M62.009994732666016,441.12016568603514L60.66999473266601,436.4501656860352L64.67999473266602,435.29016568603515L67.46999473266601,445.03016568603516L55.490004732666016,448.5701656860352C54.48000473266602,446.99016568603514,53.70000473266602,445.28016568603516,53.170004732666015,443.48016568603515C52.460004732666015,441.73016568603515,51.85000273266601,439.93016568603514,51.35000273266601,438.10016568603515C49.670004732666015,430.6301656860352,52.65000473266601,425.70017568603515,60.280004732666015,423.3201676860352C68.18999473266601,421.24018568603515,73.47999473266601,423.8001756860352,76.11999473266602,430.99018568603515C78.29999473266602,438.49016568603514,76.76999473266602,442.94016568603513,71.54999473266602,444.36016568603515L69.97999473266601,438.92016568603515C72.66999473266601,438.15016568603517,73.53999473266602,436.17016568603515,72.62999473266602,432.97016568603516C71.25999473266602,428.59015568603513,67.68999473266601,427.18015568603516,61.84999473266602,428.84015568603513C56.02000473266602,430.49014568603513,53.93000473266601,433.6301656860352,55.11000473266601,438.0801656860352C55.58000473266601,439.60016568603515,56.20000473266602,441.06016568603513,56.95000473266602,442.46016568603517C56.83000473266601,442.46016568603517,56.95000473266602,442.46016568603517,56.95000473266602,442.73016568603515L61.99999473266602,441.12016568603514L62.009994732666016,441.12016568603514Z" fill="#B81C24" fill-opacity="1"/></g></g></g><g><g><g><path d="M57.87999786376953,458.17020416259766L68.05999786376952,454.18020416259765L71.55999786376952,463.11020416259765L61.37999786376953,467.0802041625977L63.29999786376953,471.98020416259766L86.54999786376953,462.88020416259764L84.58999786376953,457.86020416259765L75.40999786376953,461.4602041625977L71.97999786376953,452.67020416259766L81.13999786376954,449.07019416259766L79.23999786376953,444.17020416259766L55.98999786376953,453.27021416259765L57.88999786376953,458.17020416259766L57.87999786376953,458.17020416259766Z" fill="#B81C24" fill-opacity="1"/></g></g></g><g><g><g><path d="M90.6200015258789,472.2101821899414L64.1500015258789,474.28019218994143L66.2200015258789,478.9502021899414L71.80000152587891,478.5001921899414L75.9400015258789,487.4901821899414L71.93000152587891,491.3601821899414L74.1400015258789,496.2801821899414L93.2900015258789,478.03019218994143L90.6200015258789,472.2201919899414L90.6200015258789,472.2101821899414ZM79.16000152587891,484.5101821899414L76.2000015258789,477.9801721899414L87.41000152587891,476.93018218994143L87.41000152587891,477.0501821899414L79.16000152587891,484.5101821899414Z" fill="#B81C24" fill-opacity="1"/></g></g></g><g><g><g><path d="M100.15000091552734,491.140207590332L97.65000091552734,486.34021759033203L75.54000091552734,497.94021759033205L78.04000091552734,502.720217590332L100.15000091552734,491.140207590332Z" fill="#B81C24" fill-opacity="1"/></g></g></g><g><g><g><path d="M92.50000091552735,526.5501895141601L83.79000091552734,513.0501895141601L104.76000091552734,499.53018951416016L107.63000091552735,503.93017951416016L90.15001091552735,515.2201895141602L96.02000091552735,524.2701895141602L92.48001091552734,526.5401895141601L92.50000091552735,526.5501895141601Z" fill="#B81C24" fill-opacity="1"/></g></g></g><g><g><g><path d="M117.45999694824219,518.7001985278321L114.33999694824219,514.300178527832L93.94999694824219,528.670178527832L97.04999694824218,533.070178527832L117.45999694824219,518.7001985278321Z" fill="#B81C24" fill-opacity="1"/></g></g></g><g><g><g><path d="M112.78998962402343,538.5202541137695L108.75998962402343,548.7102541137696L112.85998962402344,553.9202541137695L117.63998962402344,539.0202541137695L132.17998962402345,538.0902541137696L128.65998962402344,533.6301541137695L118.64998962402343,534.6402541137695L122.16998962402343,525.3601741137695L118.09998962402344,520.1501541137695L113.71998962402344,534.0401541137695L98.12998962402344,535.1401541137695L101.70998962402344,539.7101541137695L112.81998962402344,538.5301541137695L112.78998962402343,538.5202541137695Z" fill="#B81C24" fill-opacity="1"/></g></g></g><g><g><g><path d="M136.8200067138672,543.1701763208008L118.02000671386719,559.6001663208008L114.46000671386719,555.5301663208007L133.2600067138672,539.1001663208008L136.8200067138672,543.1701763208008Z" fill="#B81C24" fill-opacity="1"/></g></g></g><g><g><g><path d="M136.16000366210938,579.0001614379883L130.89000366210936,573.4201614379883L139.2700036621094,552.0901614379883L139.0800036621094,552.0701414379882L124.11000366210938,566.2701614379882L120.66000366210938,562.6501614379882L138.78000366210938,545.4701614379883L144.26000366210937,551.2601414379883L136.4600036621094,571.6601614379883L136.67000366210937,571.6601614379883L150.86000366210936,558.2001614379883L154.29000366210937,561.8201614379883L136.17000366210937,579.0001614379883L136.16000366210938,579.0001614379883Z" fill="#B81C24" fill-opacity="1"/></g></g></g><g><g><g><path d="M173.9700260253906,578.790168762207L164.99002602539062,589.1201687622071C161.64002602539063,593.4801687622071,158.54000602539062,594.290168762207,155.68000602539064,591.560168762207C152.51000602539062,589.020168762207,152.87000602539064,585.810168762207,156.76000602539062,581.930168762207L165.74002602539062,571.590158762207L161.60002602539063,568.040168762207L151.26000602539062,579.800168762207C147.32000602539063,584.590168762207,147.96000702539064,589.420168762207,153.18000602539064,594.270168762207C158.50001602539064,598.710168762207,163.33002602539062,598.710168762207,167.66002602539064,594.270168762207L178.00002602539064,582.4901687622071L173.86002602539062,578.940168762207L173.96002602539062,578.800068762207L173.9700260253906,578.790168762207Z" fill="#B81C24" fill-opacity="1"/></g></g></g><g><g><g><path d="M184.01999755859376,616.4302272583008L177.72999755859374,612.0102272583008L181.69999755859374,589.4201772583008L181.50999755859374,589.4601472583008L169.66000755859375,606.3701272583007L165.55999755859375,603.5001272583008L179.88999755859376,583.0601272583008L186.39999755859375,587.6301372583008L182.81999755859374,609.1901272583008L183.00999755859374,609.1501272583008L194.23999755859376,593.1301272583008L198.33999755859375,596.0001272583008L184.00999755859374,616.4401272583008L184.01999755859376,616.4302272583008Z" fill="#B81C24" fill-opacity="1"/></g></g></g><g><g><g><path d="M205.53,600.1601607348633L200.98,597.2501907348633L187.5,618.2501907348633L192.03,621.1601907348632L205.54,600.1601607348633L205.53,600.1601607348633Z" fill="#B81C24" fill-opacity="1"/></g></g></g><g><g><g><path d="M201.88999942402344,626.7201565551758L205.24000962402343,600.3401565551758L210.40999962402344,603.0101365551758L207.07999962402343,623.5001565551757L207.19999962402343,623.5601565551758L222.02998962402344,609.0501165551758L226.67998962402345,611.4700565551758L207.04998962402342,629.3900565551758L201.87998962402344,626.7200565551758L201.88999942402344,626.7201565551758Z" fill="#B81C24" fill-opacity="1"/></g></g></g><g><g><g><path d="M217.00999450683594,634.5401980590821L232.57999450683593,641.630198059082L234.31999450683594,637.830198059082L223.64999450683592,632.970198059082L226.39999450683592,626.950198059082L235.97999450683594,631.310198059082L237.71999450683595,627.5101980590821L228.11999450683595,623.1501980590821L230.53999450683594,617.880198059082L240.85999450683593,622.570198059082L242.59999450683594,618.770208059082L227.35999450683593,611.820198059082L217.01998901683595,634.5401980590821L217.00999450683594,634.5401980590821Z" fill="#B81C24" fill-opacity="1"/></g></g></g><g><g><g><path d="M254.009990234375,622.9602095629883L244.019990234375,619.5502395629883L235.989990234375,643.2002395629883L241.099990234375,644.9202395629883L244.310000234375,635.4702395629882L249.689990234375,637.2902395629883C250.969990234375,637.7202395629882,251.339990234375,638.9902395629883,250.829990234375,641.0902395629882C250.179990234375,643.2702395629883,249.749990234375,645.5002395629883,249.549990234375,647.7702395629883L255.049990234375,649.6302395629883C254.839990234375,647.6001395629883,255.049990234375,645.5401395629883,255.669990234375,643.6001395629883C255.749990234375,643.3301395629883,255.789990234375,643.0501395629883,255.809990234375,642.7701395629883C256.389990234375,639.3601395629883,255.579990234375,637.1501395629883,253.369990234375,636.1101395629883L253.369990234375,635.9901395629882C256.359990234375,636.5301395629883,259.279990234375,634.7602395629883,260.169990234375,631.8501395629883C261.369990234375,627.8401595629883,259.339990234375,624.8801995629883,254.009990234375,622.9602095629883ZM254.489990234375,630.8202395629883C254.059990234375,632.5601395629883,252.299990234375,633.6201395629882,250.559990234375,633.1902395629883C250.279990234375,633.1201395629882,250.019990234375,633.0202395629883,249.769990234375,632.8802395629883L245.630000234375,631.4301395629883L247.699990234375,625.2301695629883L251.839990234375,626.6601595629883C254.359990234375,627.4001495629883,255.169990234375,628.7901695629882,254.489990234375,630.8202395629883Z" fill="#B81C24" fill-opacity="1"/></g></g></g><g><g><g><path d="M280.32001479492186,638.7301411254883C281.4200147949219,634.0001911254883,279.4200147949219,630.7501911254883,274.3000147949219,628.9701611254883C267.8100247949219,627.4801711254883,263.7100247949219,629.1401441254883,262.02001479492185,633.9701611254883C261.1100147949219,637.1701711254883,263.0900247949219,640.1701411254883,268.02001479492185,642.8801411254883C268.27001479492185,643.0901411254882,268.5500147949219,643.2601411254883,268.8500147949219,643.4001411254883C271.70001479492186,644.8901411254883,272.88001479492186,646.4601411254882,272.4100147949219,648.0901411254882C271.75001479492187,650.0501411254883,269.8500147949219,650.6101411254883,266.70001479492186,649.8001411254883C264.5000047949219,649.2002411254883,263.20001479492186,646.9301411254883,263.8000147949219,644.7301411254883C263.85000479492186,644.5601411254883,263.91000479492186,644.3901411254883,263.9700347949219,644.2201411254882L258.80001879492187,642.7301411254883C257.1700147949219,647.9601411254882,259.4800147949219,651.4901411254883,265.69003479492187,653.3101411254883C272.4900147949219,655.0902411254883,276.6500147949219,653.4801411254883,278.20001479492186,648.5102411254883C279.2300147949219,645.2401411254883,277.1000147949219,642.2301411254883,271.81001479492187,639.4801411254883C271.6200147949219,639.3601411254883,271.4200147949219,639.2501411254883,271.2100147949219,639.1701411254883C270.9900147949219,639.0901411254882,270.7800147949219,638.9801411254883,270.5900147949219,638.8401411254882C268.27001479492185,637.5201511254883,267.32003479492187,636.0701411254882,267.78002479492187,634.5201511254883C268.4200147949219,632.6401411254883,270.01001479492186,631.9801711254883,272.58001479492185,632.4501411254882C274.52001479492185,632.7101511254883,275.8700147949219,634.4901211254883,275.6100147949219,636.4301211254883C275.58001479492185,636.6901311254883,275.51001479492186,636.9601511254883,275.4100147949219,637.2101511254883L280.33001479492185,638.6401411254883L280.33001479492185,638.7201411254882L280.32001479492186,638.7301411254883Z" fill="#B81C24" fill-opacity="1"/></g></g></g><g><g><g><path d="M290.14002807617186,633.4201714379883L284.5600280761719,657.7501614379883L279.3100280761719,656.5501614379883L284.8700280761719,632.2201614379883L290.14002807617186,633.4201714379883Z" fill="#B81C24" fill-opacity="1"/></g></g></g><g><g><g><path d="M290.1600036621094,637.8902005004883L290.8600156621094,633.7602005004883L310.8200036621094,637.2102105004883L310.12000366210935,641.3202005004882L302.80000366210936,640.0601905004883L299.2800036621094,660.5402005004883L293.94000366210935,659.6102005004883L297.4800136621094,639.1402005004883L290.1600036621094,637.8802005004883L290.1600036621094,637.8902005004883Z" fill="#B81C24" fill-opacity="1"/></g></g></g><g><g><g><path d="M317.2500044140625,663.2502322387695L322.4800244140625,663.6402322387695L323.1000244140625,655.5802322387696L332.7200244140625,639.3902022387696L327.3400244140625,638.9802322387695L321.2200244140625,650.0202322387695L316.9800144140625,638.2002032387695L310.6500244140625,637.7302322387695L317.8500344140625,655.1802322387696L317.2500344140625,663.2602322387695L317.2500044140625,663.2502322387695Z" fill="#B81C24" fill-opacity="1"/></g></g></g><g><g><g><path d="M351.57000732421875,639.4401932106446C343.8300173242188,639.7702104106445,339.92001332421876,644.2102134106445,339.82000732421875,652.7501834106446C340.14999432421877,661.0201834106446,344.2300073242188,665.1501834106446,352.06000732421876,665.1501834106446C359.71000732421874,664.8201834106445,363.59000732421873,660.5201834106446,363.68000732421876,652.2501834106446C363.28000732421873,643.7501934106446,359.24000732421877,639.4801712106446,351.56000732421876,639.4301834106445L351.57000732421875,639.4401932106446ZM352.00000732421876,661.5601834106445C347.76998732421873,661.6401834106446,345.58999732421876,658.6701834106445,345.48998732421876,652.6501834106446C345.38000732421875,646.6301934106446,347.44997732421876,643.5302234106446,351.69000732421875,643.3502234106445C355.83000732421874,643.3502234106445,357.89000732421874,646.2802234106446,358.08000732421874,652.4001834106446C358.27000732421874,658.5201834106446,356.18000732421876,661.4701834106445,352.0400073242188,661.4701834106445L352.00000732421876,661.5502834106445L352.00000732421876,661.5601834106445Z" fill="#B81C24" fill-opacity="1"/></g></g></g><g><g><g><path d="M372.8500012207031,664.2402102661133L367.6000012207031,664.6302102661133L365.7200012207031,639.7401802661133L381.7500012207031,638.5202102661133L382.0600012207031,642.7002002661133L371.2800012207031,643.5302202661132L371.73999122070313,649.4402102661132L381.83000122070314,648.6802102661132L382.14000122070314,652.8302102661132L372.04999122070313,653.6202102661133L372.8599812207031,664.2402102661133L372.8500012207031,664.2402102661133Z" fill="#B81C24" fill-opacity="1"/></g></g></g><g><g><g><path d="M402.9599658203125,635.3601760864258L396.7599758203125,636.4401960864258L392.0899658203125,662.5701760864258L397.1599758203125,661.7001760864258L398.1299758203125,656.2001760864258L407.8299658203125,654.5301760864257L410.5799658203125,659.3901760864258L415.8999658203125,658.4802760864258L402.9699658203125,635.3702468864258L402.9599658203125,635.3601760864258ZM398.6799958203125,651.9001760864257L400.4799758203125,640.8001760864258L400.5999758203125,640.8001760864258L405.7299658203125,650.7401760864258L398.6799958203125,651.9001760864257Z" fill="#B81C24" fill-opacity="1"/></g></g></g><g><g><g><path d="M433.60996284179686,637.0001936059571C431.97996284179686,631.560183605957,427.91996284179686,629.540168605957,421.4099728417969,630.940193605957C414.9699728417969,632.690193605957,412.56997284179687,637.720223605957,414.2099608417969,646.0301836059571C416.25995284179686,654.050283605957,420.5999728417969,657.3901836059571,427.1999628417969,656.060283605957C433.7599628417969,654.450283605957,436.54996284179686,650.950283605957,435.5799628417969,645.540183605957L430.05996284179685,646.800283605957C430.79996284179686,649.1202836059571,429.5099628417969,651.590183605957,427.1999628417969,652.330283605957C426.92996284179685,652.420283605957,426.65996284179687,652.470283605957,426.3799628417969,652.510283605957C423.4399728417969,653.010283605957,421.2499728417969,650.440283605957,419.73996284179685,644.760283605957C418.57995284179685,638.930243605957,419.42996284179685,635.600283605957,422.27997284179685,634.780283605957C424.6299628417969,634.010263605957,427.1499628417969,635.290293605957,427.90996284179687,637.640263605957C427.97996284179686,637.850283605957,428.0299628417969,638.0602536059571,428.0699628417969,638.280283605957L433.60996284179686,637.0202736059571L433.60996284179686,637.0001936059571Z" fill="#B81C24" fill-opacity="1"/></g></g></g><g><g><g><path d="M453.6099488769531,630.2002037231446L448.22994887695313,631.9802337231446C447.6099488769531,629.5902137231445,445.16994887695313,628.1602237231446,442.77996887695315,628.7902337231445C442.5599688769531,628.8502237231445,442.3599588769531,628.9202337231445,442.1499588769531,629.0002537231445C439.37997887695315,630.1002237231445,438.83996887695315,633.5102637231445,440.5199588769531,639.1902537231446C442.5199588769531,644.7002537231446,444.95994887695315,647.0702537231446,447.83994887695314,646.3002537231446C450.20994887695315,645.8102537231446,451.72994887695313,643.4802537231445,451.2399488769531,641.1202537231445C451.1799488769531,640.8402537231445,451.09994887695314,640.5702537231446,450.9899488769531,640.3102537231446L456.3699488769531,638.5302537231445C457.83994887695314,643.8201537231446,455.3799488769531,647.5602537231446,448.9899488769531,649.7501537231445C442.53994887695313,651.6901537231445,437.8999588769531,648.7802537231445,435.1499638769531,640.9701537231446C432.7699588769531,632.8501637231445,434.69995087695315,627.6401437231445,440.91994887695313,625.2801587231445C447.28994887695313,623.2101537231446,451.5099488769531,624.9301837231445,453.6199488769531,630.2001437231445L453.6099488769531,630.2002037231446Z" fill="#B81C24" fill-opacity="1"/></g></g></g><g><g><g><path d="M478.309969140625,625.050179152832C474.859969140625,617.220161152832,469.579969140625,614.7101491528321,462.409999140625,617.3201981528321C455.300018140625,620.380199152832,453.230009140625,625.8902091528321,456.209989140625,633.860169152832C459.449979140625,641.470169152832,464.73998914062497,643.9001691528321,472.089969140625,641.160169152832C479.069969140625,638.170169152832,481.139969140625,632.800169152832,478.319969140625,625.060189152832L478.309969140625,625.050179152832ZM470.659969140625,637.870169152832C466.729969140625,639.440169152832,463.640019140625,637.430169152832,461.390019140625,631.830169152832C459.140019140625,626.2302291528321,459.969999140625,622.610239152832,463.870029140625,620.960209152832C467.699969140625,619.430179152832,470.760069140625,621.4802291528321,473.030069140625,627.160269152832C475.310069140625,632.8502691528321,474.500069140625,636.320169152832,470.650069140625,637.8702691528321L470.659969140625,637.870169152832Z" fill="#B81C24" fill-opacity="1"/></g></g></g><g><g><g><path d="M489.0600061035156,604.9602131762696L493.8600061035156,602.4401931762695L501.1200061035156,616.3101931762695C503.77000610351564,621.9301931762695,502.07000610351565,626.4301931762695,496.01000610351565,629.8101931762695C489.6200061035156,632.9501931762695,484.9200061035156,631.8801931762696,481.86001610351565,626.4001931762696L474.6000061035156,612.5301931762696L479.3800061035156,610.0302231762695L485.71000610351564,622.1001931762695C487.9400061035156,627.1302931762696,490.8100061035156,628.6202931762696,494.3100061035156,626.5602931762695C497.89000610351565,624.8902931762696,498.26000610351565,621.7002931762695,495.39000610351565,617.0102931762696L489.0600061035156,604.9602131762696Z" fill="#B81C24" fill-opacity="1"/></g></g></g><g><g><g><path d="M528.3799731445313,610.1001858520508L514.8499731445313,589.1201858520508L510.6299731445313,591.8302058520508L521.2599731445313,608.2601858520508L521.2199731445312,608.4501858520508L502.5899631445312,597.0402258520508L495.90997314453125,601.3602858520508L509.45997314453126,622.3202858520508L513.6599731445312,619.6102858520508L502.44998314453125,602.2701858520508L502.48999314453124,602.0801858520508L521.9299731445312,614.2501858520508L528.3799731445313,610.1001858520508Z" fill="#B81C24" fill-opacity="1"/></g></g></g><g><g><g><path d="M518.9099762890625,591.7502322387695L516.3199462890625,588.4602322387695L532.2499462890624,575.9802322387695L534.8399462890625,579.2702122387695L529.0099462890626,583.8602322387695L541.8299462890625,600.2102322387695L537.5899462890625,603.5202322387695L524.7499362890625,587.1902322387696L518.9199262890625,591.7602322387695L518.9099762890625,591.7502322387695Z" fill="#B81C24" fill-opacity="1"/></g></g></g><g><g><g><path d="M537.2500044140625,571.8001785273633L533.1500244140625,575.3302097973633L549.4700244140626,594.2202297973632L553.5700244140625,590.6802297973633L537.2500044140625,571.7902297973633L537.2500044140625,571.8001785273633Z" fill="#B81C24" fill-opacity="1"/></g></g></g><g><g><g><path d="M573.0999780273437,572.7102029418945L555.7899780273438,554.7002029418945L552.1899780273437,558.1502129418946L565.7399780273438,572.2502029418945L565.7399780273438,572.4602029418945L545.2899780273438,564.7902029418946L539.5399780273438,570.3102029418945L556.8499780273437,588.3102029418945L560.4499780273437,584.8403029418945L546.1399580273437,569.9603029418945L546.1399580273437,569.7703029418946L567.5498780273438,578.0203029418946L573.1098780273437,572.7103029418945L573.0999780273437,572.7102029418945Z" fill="#B81C24" fill-opacity="1"/></g></g></g><g><g><g><path d="M580.2100130859375,551.3401827270508L577.0000130859376,555.0001827270507L573.8600130859375,552.2501827270507L580.5199130859374,544.6402027270508L589.9700130859375,552.9101827270508C589.1899130859375,554.6202827270508,588.1600130859375,556.2101827270508,586.9300130859375,557.6202827270508C585.8400130859375,559.1702827270508,584.6600130859375,560.6502827270508,583.3900130859375,562.0602827270508C578.0100130859375,567.4902827270507,572.2600130859375,567.6402827270508,566.1199930859375,562.5102827270508C560.0700070859375,557.0002827270508,559.3800030859375,551.1802827270508,564.0499830859375,545.0602527270507C569.1900030859375,539.1602247270508,573.7699130859374,538.0302227270507,577.7800130859375,541.6702327270508L574.0400130859375,545.9302427270508C571.9599130859375,544.0802727270508,569.8099930859375,544.4102227270508,567.6099830859375,546.9202327270508C564.6499630859375,550.4302827270508,565.3999630859375,554.2101827270508,569.8900130859375,558.2502827270508C574.3700130859374,562.2901827270508,578.1800130859375,562.5102827270508,581.3300130859375,558.9302827270508C582.3500130859375,557.7102827270508,583.2600130859375,556.4101827270508,584.0400130859375,555.0202827270508C584.0400130859375,555.1402827270508,584.0400130859375,555.0202827270508,584.2100130859375,554.8102827270508L580.2600130859375,551.3402827270507L580.2200130859375,551.3202827270508L580.2100130859375,551.3401827270508Z" fill="#B81C24" fill-opacity="1"/></g></g></g><g><g><g><path d="M585.8800022070312,518.6201858520508L582.2000122070312,523.7702058520508L597.3400122070312,545.5801858520508L600.3000122070313,541.4401858520508L597.1200122070312,536.8701858520508L602.8100122070313,528.8301858520508L608.2101122070312,530.3401858520508L611.3301122070312,525.9401958520508L585.8900722070313,518.6201858520508L585.8800022070312,518.6201858520508ZM594.4600122070312,533.3001858520507L587.8800022070312,524.1601658520508L598.5100122070312,527.5701358520507L594.4600122070312,533.3001858520507Z" fill="#B81C24" fill-opacity="1"/></g></g></g><g><g><g><path d="M624.119951171875,504.6401688598633L620.249951171875,511.28026885986327L597.400021171875,509.2101688598633L597.440001171875,509.4001688598633L615.289951171875,519.7802688598633L612.769951171875,524.1002688598633L591.199951171875,511.53026885986327L595.209961171875,504.67026885986326L617.009951171875,506.4302688598633L616.949951171875,506.2402688598633L600.049931171875,496.38025885986326L602.549951171875,492.0802688598633L624.119951171875,504.6502688598633L624.119951171875,504.6401688598633Z" fill="#B81C24" fill-opacity="1"/></g></g></g><g><g><g><path d="M624.5700048828126,476.740182824707C617.1200048828125,473.080172824707,611.5200148828125,474.90018463470705,607.6699848828125,482.240182824707L603.8800048828125,489.910232824707L626.1300048828125,501.220232824707L630.0000048828125,493.63023282470704C633.6200048828125,486.13023282470704,631.8200048828126,480.55021282470705,624.5600048828124,476.740182824707L624.5700048828126,476.740182824707ZM626.0200048828125,492.02013282470705L624.7400048828125,494.54013282470703L609.9500148828125,487.04013282470703L611.2300448828125,484.50016282470705C613.3000448828125,480.010172824707,616.9000048828125,479.120152824707,621.9800048828125,481.810152824707C627.0701048828125,484.50016282470705,628.4300048828125,487.70013282470705,626.0300048828125,491.980132824707L626.0100048828125,492.02013282470705L626.0200048828125,492.02013282470705Z" fill="#B81C24" fill-opacity="1"/></g></g></g><g><g><g><path d="M641.8000048828125,467.0001846313477L639.9200048828125,471.90018463134766L616.6300048828125,462.8701846313477L622.4400048828124,447.90018463134766L626.3499748828125,449.4101946313477L622.4400048828124,459.48018463134764L627.9600048828125,461.6301846313477L631.6200048828125,452.2002046313477L635.5300048828125,453.71021463134764L631.8700048828125,463.14018463134767L641.8000048828125,467.01018463134767L641.8000048828125,467.0001846313477Z" fill="#B81C24" fill-opacity="1"/></g></g></g><g><g><g><path d="M624.7000144140625,441.1001968383789L622.9000244140625,446.2101868383789L646.4600244140624,454.4801968383789L648.2400244140625,449.3901768383789L624.7000144140625,441.1001968383789Z" fill="#B81C24" fill-opacity="1"/></g></g></g><g><g><g><path d="M655.5800512695313,423.8601728930664L653.5300512695312,431.28015289306643L630.9000212695313,435.0601528930664L630.9800412695313,435.2301528930664L650.8800512695312,440.7702528930664L649.5400512695312,445.5902528930664L625.4900512695312,438.8902528930664L627.6200512695312,431.2201528930664L649.1500512695312,427.40015289306643L649.0501512695313,427.2301528930664L630.1901212695312,422.00016289306643L631.5301512695313,417.1801528930664L655.5800512695313,423.8601728930664Z" fill="#B81C24" fill-opacity="1"/></g></g></g><g><g><g><path d="M659.1799926757812,403.2701821899414L660.1099926757812,397.9601821899414L634.0100126757812,402.3601721899414L632.9299926757812,408.56018218994143L655.9899926757812,421.6901821899414L656.8799926757813,416.6501821899414L651.9999926757813,413.8801821899414L653.6699926757813,404.18018218994143L659.1699926757813,403.2701821899414L659.1799926757812,403.2701821899414ZM648.1099926757812,411.9101821899414L638.2199726757813,406.5102021899414L638.2199726757813,406.37018218994143L649.2899926757813,404.8601721899414L648.1099926757812,411.9101821899414Z" fill="#B81C24" fill-opacity="1"/></g></g></g><g><g><g><path d="M662.5699609375,373.2801863696289L661.9899609375,380.9502063696289L640.5200209375,389.0502163696289L640.6500209375,389.1902163696289L661.2499609375,390.7602163696289L660.8599609375,395.7402163696289L635.9599609375,393.84021636962893L636.5799559375,385.9002163696289L656.9299609375,377.9802363696289L656.8099609375,377.84021636962893L637.3099409375,376.3502263696289L637.6799309375,371.3702163696289L662.5799609375,373.2702063696289L662.5699609375,373.2801863696289Z" fill="#B81C24" fill-opacity="1"/></g></g></g><g><g><g><path d="M646.3499751171875,349.0901870727539L646.3499751171875,354.7701770727539C643.8899551171875,354.5701670727539,641.7399951171875,356.4001870727539,641.5399751171875,358.8601770727539C641.5199551171875,359.0801770727539,641.5199551171875,359.3001870727539,641.5399751171875,359.5301870727539C641.6599751171875,362.5101870727539,644.6799951171874,364.1201870727539,650.6199951171875,364.4301870727539C656.4699951171875,364.4301870727539,659.5299951171875,362.8401870727539,659.7599951171875,359.8801870727539C660.0699951171875,357.4801970727539,658.3799951171875,355.2801870727539,655.9799951171875,354.9701870727539C655.6999951171875,354.9301870727539,655.4099951171875,354.9202070727539,655.1299951171875,354.9401970727539L655.2499951171875,349.2602000727539C660.7699951171875,349.6502150727539,663.4799951171875,353.2102170727539,663.3999951171875,359.9501870727539C663.0899951171875,366.69018707275393,658.8099951171876,370.0801870727539,650.5099951171875,370.1001870727539C642.0700051171875,369.6701870727539,637.7800291171875,366.1201870727539,637.6199951171875,359.4501870727539C637.8499751171875,352.7901970727539,640.7999851171875,349.35019707275393,646.4500151171875,349.1102065727539L646.3499751171875,349.0901870727539Z" fill="#B81C24" fill-opacity="1"/></g></g></g><g><g><g><path d="M663.01998046875,346.88022979736326L638.05999746875,347.38022979736326L637.72998046875,330.66019479736326L641.90997046875,330.56018779736326L642.13995046875,341.9102297973633L647.92998046875,341.7902297973633L647.71991046875,331.2702097973633L651.91988046875,331.1902197973633L652.12998046875,341.7102297973633L658.72988046875,341.5902297973633L658.49998046875,329.85022739736326L662.69998046875,329.7902297973633L663.02998046875,346.9102297973633L663.01998046875,346.88022979736326Z" fill="#B81C24" fill-opacity="1"/></g></g></g><g><g><g><path d="M289.989951171875,508.5102006196289L289.989951171875,545.3001476196289L280.829991171875,545.3001476196289L280.829991171875,525.5401476196289C280.879971171875,523.820247619629,280.810001171875,522.100147619629,280.619991171875,520.3901476196289C280.449981171875,519.8101476196289,280.030001171875,519.3401476196289,279.479981171875,519.0901476196289C278.139981171875,518.7001476196289,276.739991171875,518.5501476196289,275.339966171875,518.6601476196289L274.449951171875,518.6601476196289L274.449951171875,514.380137619629C278.409941171875,513.7001376196289,281.999941171875,511.62012761962893,284.539951171875,508.5101396196289L289.979951171875,508.5101396196289L289.989951171875,508.5102006196289ZM311.619951171875,535.5302476196289L320.799951171875,535.5302476196289L320.799951171875,538.7702476196289C320.829951171875,539.210247619629,321.029951171875,539.6102476196289,321.35995117187497,539.9102476196289C321.729951171875,540.2302476196289,322.209951171875,540.3902476196289,322.699951171875,540.3702476196289C323.129951171875,540.3902476196289,323.559951171875,540.2302476196289,323.879951171875,539.940247619629C324.189951171875,539.6602476196289,324.379951171875,539.2602476196289,324.399951171875,538.8402476196289L324.399951171875,530.2403476196289C323.969951171875,531.180347619629,323.239951171875,531.9503476196289,322.329951171875,532.430347619629C321.279951171875,532.9503476196289,320.10995117187497,533.2003476196289,318.939951171875,533.1702476196289C317.349951171875,533.1903476196289,315.779951171875,532.710247619629,314.469951171875,531.8103476196289C313.279951171875,531.0402476196289,312.409951171875,529.8803476196289,312.009951171875,528.5203476196289C311.60995117187497,526.8303476196289,311.429951171875,525.1003476196289,311.469951171875,523.3703476196289L311.469951171875,520.4102476196289C311.429951171875,518.4903476196289,311.529951171875,516.5702576196289,311.779951171875,514.6602876196289C311.999951171875,513.390267619629,312.53995117187503,512.1903176196289,313.349951171875,511.1902876196289C314.279951171875,510.0602776196289,315.509951171875,509.1902876196289,316.889951171875,508.6902846196289C318.569951171875,508.0702896196289,320.339951171875,507.77027131962893,322.119951171875,507.8002701196289C324.189951171875,507.7402725196289,326.249951171875,508.0802686196289,328.179951171875,508.8102776196289C329.659951171875,509.4302776196289,330.929951171875,510.4502976196289,331.839951171875,511.7702676196289C332.659951171875,512.970287619629,333.169951171875,514.3602976196289,333.329951171875,515.800297619629C333.479951171875,517.2102776196289,333.53995117187503,519.9403476196289,333.53995117187503,524.0703476196289L333.53995117187503,529.180347619629C333.53995117187503,533.5402476196289,333.53995117187503,536.4802476196289,333.349951171875,537.9603476196289C333.209951171875,539.4503476196289,332.669951171875,540.8803476196289,331.779951171875,542.0903476196289C330.829951171875,543.420347619629,329.519951171875,544.4603476196289,327.989951171875,545.0703476196289C324.129951171875,546.4703476196289,319.889951171875,546.3803476196289,316.099951171875,544.8203476196289C314.559951171875,544.0703476196289,313.309951171875,542.8303476196289,312.559951171875,541.2803476196289C311.769851171875,539.4703476196289,311.399951171875,537.5103476196289,311.459851171875,535.5303476196289L311.599951171875,535.5103476196289L311.619951171875,535.5302476196289ZM320.799951171875,524.080247619629C320.799951171875,525.6301476196289,320.989951171875,526.580247619629,321.399951171875,526.950247619629C321.739951171875,527.2802476196289,322.190051171875,527.4702476196289,322.660051171875,527.4901476196289C323.220051171875,527.5301476196289,323.749951171875,527.2702476196289,324.070051171875,526.8101476196289C324.450051171875,525.950247619629,324.610051171875,525.0202476196289,324.529951171875,524.080247619629L324.529951171875,517.4202376196289C324.619951171875,516.3402176196289,324.470051171875,515.2502476196289,324.100051171875,514.2402376196289C323.820051171875,513.7402376196289,323.270051171875,513.4502676196289,322.690051171875,513.5002476196289C322.220051171875,513.5302776196289,321.769951171875,513.7302276196289,321.450051171875,514.0802676196289C321.020051171875,514.4502676196289,320.809951171875,515.5102576196289,320.809951171875,517.2002676196289L320.809951171875,524.080247619629L320.799951171875,524.080247619629ZM374.679951171875,539.0302476196289L374.679951171875,545.2302476196289L354.470051171875,545.2302476196289L354.470051171875,539.9802476196289C360.470051171875,530.200247619629,364.029951171875,524.1502476196289,365.14005117187503,521.830247619629C366.08005117187497,520.1602476196289,366.670051171875,518.3101476196289,366.860051171875,516.3902076196289C366.910051171875,515.6002276196289,366.730051171875,514.8101876196289,366.320051171875,514.1402076196289C365.96005117187497,513.650217619629,365.380051171875,513.370187619629,364.770051171875,513.4202376196289C364.14005117187503,513.3802576196289,363.540051171875,513.6902576196289,363.200051171875,514.2302276196289C362.779951171875,515.2602576196289,362.610051171875,516.3702476196289,362.700051171875,517.4702176196289L362.700051171875,520.9401476196289L354.430051171875,520.9401476196289L354.430051171875,519.600147619629C354.400051171875,517.980147619629,354.520051171875,516.3501676196289,354.76005117187503,514.7401776196289C354.999951171875,513.4701576196289,355.529951171875,512.2601976196289,356.309951171875,511.2201876196289C357.149951171875,510.0801776196289,358.279951171875,509.1801876196289,359.579951171875,508.6201856196289C361.099951171875,508.0001906196289,362.729951171875,507.7001724196289,364.379951171875,507.7301712196289C367.389951171875,507.5201796196289,370.35995117187497,508.5001606196289,372.649951171875,510.4601776196289C374.509951171875,512.250187619629,375.519951171875,514.7401776196289,375.439951171875,517.3201976196289C375.399951171875,519.6301476196289,374.85995117187497,521.9102476196289,373.869951171875,524.0001476196289C371.079951171875,529.1701476196289,367.959951171875,534.1601476196289,364.53995117187503,538.950247619629L374.669951171875,539.0302476196289L374.679951171875,539.0302476196289ZM413.849951171875,524.5602476196289C415.11995117187496,525.0302476196289,416.209951171875,525.8802476196289,416.969951171875,527.0002476196289C417.689951171875,528.080247619629,418.069951171875,530.6602476196289,418.069951171875,534.7302476196289C418.179951171875,536.960247619629,417.879951171875,539.1802476196289,417.199951171875,541.3002476196289C416.509951171875,542.8102476196289,415.319951171875,544.0302476196289,413.829951171875,544.7502476196289C411.749951171875,545.7502476196289,409.439951171875,546.2202476196289,407.129951171875,546.1102476196289C404.899951171875,546.2202476196289,402.669951171875,545.7702476196289,400.659951171875,544.8102476196289C399.169951171875,544.070247619629,397.969951171875,542.8702476196289,397.229951171875,541.3802476196289C396.399951171875,539.1102476196289,396.049951171875,536.690247619629,396.199951171875,534.2702476196289C396.169951171875,532.330247619629,396.339951171875,530.3902476196289,396.719951171875,528.4802476196289C397.129951171875,526.7503476196289,398.309951171875,525.300347619629,399.929951171875,524.550347619629C398.799951171875,524.0103476196289,397.899951171875,523.0803476196289,397.389951171875,521.9503476196289C396.779951171875,520.5203476196289,396.489951171875,518.9803476196289,396.53995117187503,517.4202976196289C396.329951171875,514.770267619629,397.28995117187503,512.1702976196289,399.169951171875,510.2902876196289C401.409951171875,508.54029061962893,404.219951171875,507.7002944996289,407.049951171875,507.9102856196289C411.189951171875,507.9102856196289,413.899951171875,508.7602876196289,415.449951171875,510.4302776196289C417.10995117187497,512.4602776196289,417.939951171875,515.0302776196289,417.769951171875,517.640267619629C417.85995117187497,519.1102476196289,417.599951171875,520.570247619629,416.999951171875,521.9202476196289C416.209951171875,523.0603476196289,415.129951171875,523.960247619629,413.879951171875,524.5402476196289L413.849951171875,524.5602476196289ZM408.699951171875,516.6602276196289C408.769951171875,515.8201976196289,408.65995117187504,514.9902376196289,408.36995117187496,514.2002076196289C408.099951171875,513.7702076196289,407.60995117187497,513.5402276196289,407.10995117187497,513.6002276196289C406.599951171875,513.530217619629,406.10995117187497,513.7902276196289,405.86995117187496,514.2402376196289C405.599951171875,515.020267619629,405.48995117187496,515.8402176196289,405.53995117187503,516.6602276196289L405.53995117187503,519.450247619629C405.479951171875,520.2302476196289,405.599951171875,521.0202476196289,405.90995117187504,521.7401476196289C406.169951171875,522.1801476196289,406.649951171875,522.4301476196289,407.149951171875,522.3801476196289C407.649951171875,522.4401476196289,408.139951171875,522.200247619629,408.389951171875,521.7602476196289C408.65995117187504,520.9301476196289,408.759951171875,520.0501476196289,408.699951171875,519.1801476196289L408.699951171875,516.6602276196289ZM408.889951171875,531.940247619629C408.969951171875,530.9802476196289,408.819951171875,530.0202476196289,408.459951171875,529.1302476196289C408.169951171875,528.6602476196289,407.639951171875,528.4002476196289,407.099951171875,528.4302476196289C406.569951171875,528.3902476196289,406.049951171875,528.6502476196289,405.77995117187504,529.1102476196289C405.439951171875,530.0102476196289,405.299951171875,530.9802476196289,405.389951171875,531.940247619629L405.389951171875,536.690247619629C405.27995117187504,537.7302476196289,405.429951171875,538.7802476196289,405.819951171875,539.7502476196289C406.129951171875,540.2202476196289,406.669951171875,540.4802476196289,407.229951171875,540.4302476196289C407.769951171875,540.4902476196289,408.299951171875,540.2202476196289,408.569951171875,539.7502476196289C408.86995117187496,538.7302476196289,408.979951171875,537.6702476196289,408.899951171875,536.6102476196289L408.899951171875,531.940247619629L408.889951171875,531.940247619629Z" fill="#FFFFFF" fill-opacity="1"/></g></g></g></g></svg>