<svg xmlns="http://www.w3.org/2000/svg" xmlns:xlink="http://www.w3.org/1999/xlink" width="256.9125061035156" height="256.8587951660156" viewBox="0 0 256.9125061035156 256.8587951660156" fill="none">
<g  clip-path="url(#clip-path-WyaXYqVKFFkFJZZJ1ZI2I)">
<path d="M256.913 128.43C256.913 199.358 199.4 256.859 128.457 256.859C57.5132 256.859 0 199.358 0 128.43C0 57.5011 57.5124 0 128.456 0C199.401 0 256.912 57.5002 256.912 128.43L256.913 128.43ZM184.895 20.2379C158.763 6.5353 128.557 2.916 99.8 9.769C98.8124 10.0046 97.8495 10.2506 96.9084 10.5055C81.1582 14.7863 66.8965 21.8514 54.1245 31.6987C30.498 49.9144 14.2543 76.0374 8.5984 105.353C5.9647 119.002 5.6963 132.857 7.793 146.915C7.939 147.894 8.1032 148.884 8.2851 149.884C11.111 165.454 16.6746 179.847 24.9747 193.067C40.6248 217.994 64.7462 236.596 92.8863 245.187C123.304 254.47 156.792 251.491 185.054 236.548C197.618 229.905 208.671 221.402 218.214 211.041C238.848 188.637 250.4 159.388 250.504 128.92C250.554 114.252 248.083 100.123 243.089 86.5332C232.611 58.0187 211.802 34.3477 184.895 20.2379Z" fill-rule="evenodd"  fill="#023691" >
</path>
<path d="M103.513 27.8728C103.757 27.1899 104.155 26.066 103.046 25.8559C102.601 25.7726 102.15 25.7176 101.694 25.6921C100.646 25.6325 99.8428 25.1912 99.883 23.985C99.9312 22.627 100.307 21.3131 100.58 19.9667C100.775 19.0009 100.493 18.2849 100.235 17.3953C100.027 16.6844 100.584 16.5469 101.13 16.5583C102.275 16.5838 102.819 17.2876 103.073 18.2761C103.522 20.0367 103.267 21.8216 102.239 23.2959C101.485 24.3796 102.446 24.7274 103.339 24.7334C103.941 24.7379 104.566 24.6696 105.186 24.7694C106.209 24.9347 106.531 25.8086 106.15 26.7828C105.942 27.3107 104.704 29.5398 105.56 29.8635C106.822 30.3434 108.62 29.1852 109.118 31.1244C109.231 31.5587 109.257 31.97 109.195 32.3577C108.641 35.949 107.844 39.7222 106.313 42.9562C105.86 43.9166 105.272 44.7667 104.549 45.5048C103.99 46.0754 103.3 46.1877 102.521 46.1375C102.347 46.127 102.198 46.0667 102.073 45.9547C101.706 45.6239 101.491 45.2735 101.892 44.8333C102.285 44.4041 102.76 44.039 103.142 43.6067C104.056 42.5744 104.76 41.4269 105.256 40.161C105.853 38.6419 106.495 36.5845 107.183 33.9888C107.422 33.0871 107.402 32.0802 106.827 31.3466C106.738 31.2347 106.634 31.155 106.513 31.1026C106.076 30.9177 105.279 31.3704 104.963 31.6366C104.562 31.9779 104.506 32.5128 104.178 32.9111C103.972 33.1597 103.678 33.3805 103.295 33.5713C103.165 33.637 103.042 33.6194 102.926 33.516C102.245 32.9199 101.907 32.2588 102.243 31.3608C102.692 30.1561 103.115 28.9925 103.513 27.8728Z" fill-rule="evenodd"  fill="#023691" >
</path>
<path d="M147.849 39.7241C148.355 40.4662 148.856 41.0493 149.352 41.4748C151.701 43.4798 154.658 44.4707 157.695 44.0373C159.558 43.772 161.495 43.3142 163.508 42.6628C164.431 42.3643 165.088 41.58 165.777 40.9348C165.842 40.8716 165.953 40.9005 165.977 40.9881C166.636 43.1611 164.306 44.3639 162.54 44.9872C159.728 45.9765 156.835 46.7645 153.857 46.0964C150.949 45.445 148.113 43.6172 146.684 40.9427C146.008 39.6731 146.74 38.6532 148.055 38.5387C148.838 38.4721 149.717 38.4573 150.696 38.4939C151.542 38.5273 151.58 37.8935 151.444 37.2736C151.211 36.1907 150.97 34.9344 151.125 33.8576C151.376 32.1205 152.984 30.971 154.704 31.0289C155.311 31.0498 155.92 31.0603 156.529 31.0603C157.186 31.0595 157.975 30.8188 158.274 30.1963C158.524 29.6711 158.418 29.1895 157.952 28.7526C157.461 28.2923 156.835 28.1934 156.075 28.4576C154.977 28.8411 153.908 29.3848 152.867 30.0886C152.426 30.3871 151.862 30.5745 151.498 30.0203C151.109 29.425 151.24 28.9672 151.889 28.6466C153.041 28.0786 154.262 27.4719 155.548 26.8231C156.758 26.2139 157.864 25.5336 158.685 24.5296C159.185 23.9167 158.719 23.4037 158.104 23.2557C157.565 23.1262 157.004 23.0071 156.419 22.8968C156.243 22.8634 156.043 22.7489 156.077 22.5431C156.085 22.4983 156.106 22.4626 156.143 22.4362C156.618 22.087 157.202 21.8619 157.892 21.7621C158.986 21.6037 159.749 21.0818 160.182 20.1968C160.557 19.4343 161.132 19.6795 161.67 20.0463C162.455 20.5812 163.107 21.0566 163.623 21.4724C164.316 22.0317 163.829 22.6873 163.233 22.9728C161.559 23.773 160.296 24.3711 161.103 26.5133C161.333 27.1244 161.183 27.7713 160.906 28.3518C160.309 29.6027 159.802 30.7375 160.375 32.0987C160.733 32.9496 159.47 34.5404 159.022 35.238C158.613 35.8702 158.654 36.3648 159.142 36.7248C159.562 37.0363 160.112 37.0916 160.589 37.3076C160.955 37.4714 161.842 38.0843 161.522 38.5534C161.189 39.0384 160.715 39.2862 160.099 39.2995C158.575 39.331 157.43 39.147 156.498 40.6125C156.281 40.9524 155.916 41.3586 155.402 41.8294C154.764 42.4125 153.989 42.508 153.554 41.6307C153.08 40.6737 152.763 39.7363 151.605 39.4203C150.333 39.0727 149.087 39.1549 147.867 39.6626C147.836 39.6768 147.83 39.6961 147.849 39.7241ZM152.884 34.8222C152.829 34.9395 152.743 35.022 152.624 35.0665C152.572 35.0858 152.549 35.1252 152.557 35.1805C152.688 36.1925 152.861 37.1596 153.075 38.0826C153.162 38.4536 153.8 38.5483 154.105 38.5886C154.16 38.5957 154.191 38.5719 154.201 38.5186C154.266 38.1262 154.266 37.8742 154.201 37.7594C153.739 36.9558 153.838 36.2503 154.494 35.6417C155.021 35.155 155.543 34.6909 156.06 34.2541C156.321 34.0336 156.434 33.7666 156.398 33.4547C156.389 33.3788 156.353 33.3193 156.292 33.2762C156.049 33.1021 155.779 33.0179 155.484 33.0267C154.269 33.0644 153.401 33.6622 152.884 34.8222Z" fill-rule="evenodd"  fill="#023691" >
</path>
<path d="M95.7992 36.1187C95.7719 36.0847 95.7229 36.0776 95.6886 36.104C95.3561 36.3639 95.0296 36.6528 94.8107 37.0224C94.493 37.559 94.0839 37.9959 93.3829 37.7175C92.763 37.4714 91.9174 36.9725 91.9154 36.237C91.9146 35.9577 91.9934 35.6366 92.1527 35.2706C93.1193 33.0582 93.3548 30.333 93.4135 27.9227C93.4203 27.5655 93.2933 27.2338 93.0325 26.9283C92.9265 26.8038 92.8015 26.7786 92.657 26.852C92.4347 26.9631 92.2473 27.1287 92.0931 27.345C91.7711 27.8002 91.463 28.2588 91.1662 28.7229C90.8799 29.173 90.2872 29.4188 89.7942 29.601C89.7565 29.6141 89.7146 29.5889 89.7137 29.5486C89.6639 28.7229 89.9606 28.0148 90.4578 27.3152C90.8737 26.7296 91.2581 26.1553 91.6135 25.5923C92.3375 24.4428 92.799 23.1321 92.9968 21.6606C93.0765 21.0688 93.4073 20.8185 93.9904 20.9095C94.6372 21.0118 95.292 21.1388 95.9522 21.2921C96.615 21.4461 97.1034 22.03 96.4925 22.6278C96.1974 22.9161 95.8944 23.2137 95.5846 23.5227C95.1171 23.9867 95.0358 24.5259 95.3411 25.1413C95.842 26.1553 96.249 27.1647 96.5608 28.1696C96.6702 28.5233 96.846 28.8377 97.0886 29.1152C97.1184 29.1475 97.1674 29.1537 97.2034 29.1257C97.4379 28.9417 97.621 28.7362 97.7556 28.5083C98.0448 28.0165 98.3248 27.5034 98.5953 26.9711C98.6259 26.9115 98.695 26.8801 98.7616 26.8968L99.0426 26.9668C99.1092 26.9844 99.1406 27.028 99.1327 27.0981C99.0513 27.915 98.8841 28.5698 98.6304 29.0616C97.0799 32.0697 97.4554 34.895 98.9306 37.855C99.1511 38.2969 99.2019 38.7697 99.0839 39.2757C99.0706 39.3352 99.0173 39.3763 98.9561 39.3755C98.519 39.3712 98 39.5008 97.7154 39.0744C97.0991 38.1498 96.5118 37.0494 95.7992 36.1187Z" fill-rule="evenodd"  fill="#023691" >
</path>
<path d="M207.551 128.471C207.551 172.12 172.161 207.503 128.504 207.503C84.8464 207.503 49.4555 172.12 49.4555 128.471C49.4555 84.8217 84.8461 49.439 128.504 49.439C172.161 49.439 207.551 84.8216 207.551 128.471ZM202.461 128.471C202.461 87.6339 169.349 54.5289 128.504 54.5289C87.6584 54.5289 54.5466 87.6339 54.5466 128.471C54.5466 169.308 87.6581 202.413 128.504 202.413C169.35 202.413 202.461 169.307 202.461 128.471Z" fill-rule="evenodd"  fill="#023691" >
</path>
<path d="M54.7181 73.3033C55.4769 74.0369 56.1167 74.6619 56.1688 75.7993C56.2689 77.9731 53.0626 76.0092 52.4379 75.562C50.1205 73.9028 48.1896 72.3761 46.6447 70.9823C45.9423 70.3502 45.243 69.5282 44.7047 68.7194C44.3004 68.1107 43.9308 67.4902 43.4489 66.9257C42.8602 66.2348 42.2187 65.573 41.5225 64.9399C41.2422 64.6842 40.8351 64.2151 40.8393 63.8081C40.8425 63.5638 41.0945 63.4393 41.3048 63.4289C42.7346 63.3651 44.074 64.1451 44.3781 65.6045C44.4898 66.1367 44.5139 66.6917 44.7033 67.2137C45.1027 68.3148 45.9153 69.0397 47.1427 69.3864C48.03 69.6386 48.871 70.0546 49.6642 70.6348C50.7498 71.4278 51.7802 72.2256 52.7556 73.0292C53.0045 73.235 53.288 73.4169 53.6026 73.5729C53.6517 73.5984 53.701 73.5975 53.7472 73.5721C53.8291 73.5256 53.8487 73.4153 53.786 73.3453C52.5929 72.0022 51.4327 70.7065 50.3056 69.4582C48.7696 67.7607 47.3262 65.9758 46.3689 63.8991C46.1929 63.519 46.0662 63.083 45.9871 62.5904C45.5755 60.0199 45.1877 57.5283 44.8237 55.1146C44.7597 54.6857 44.7092 54.2321 44.6732 53.7568C44.5556 52.2011 45.6665 51.6109 47.0262 51.7107C48.2925 51.8045 48.3923 52.7797 48.2372 53.7999C47.9778 55.5131 47.7675 57.312 48.4475 58.8965C48.6338 59.3336 49.0201 59.9034 49.6046 60.6056C50.635 61.846 51.6252 63.0595 52.5722 64.2449C52.6244 64.3103 52.7406 64.4101 52.9226 64.5434C53.6429 65.0758 54.0797 64.1557 54.2424 63.5978C54.4377 62.9317 54.6254 62.3146 54.8045 61.7428C55.1192 60.743 55.8513 59.8782 57.0294 60.3062C57.4424 60.4567 57.839 60.7099 58.2684 60.7833C58.7724 60.8683 59.2183 60.7351 59.6047 60.3833C60.0863 59.9437 60.5529 59.5664 61.0019 59.252C62.3424 58.3188 64.5466 57.6867 65.3188 59.7512C65.4874 60.2064 65.6068 60.7368 65.6751 61.3437C66.0226 64.4427 65.5081 67.4115 64.1333 70.2486C63.6829 71.1776 63.0939 72.1572 62.3679 73.1842C62.2129 73.4031 62.0173 73.5896 61.7803 73.7402C61.7026 73.7884 61.6014 73.761 61.5595 73.6805C61.5269 73.6169 61.5223 73.5511 61.5476 73.4853C62.1054 71.9901 62.7838 70.4696 63.1747 68.9655C63.616 67.2626 63.9202 65.5571 64.0857 63.8464C64.1827 62.8659 64.4837 61.6325 63.9573 60.7334C63.5117 59.9709 62.6854 60.1154 62.0635 60.5381C61.1195 61.1782 60.6498 62.0983 60.6515 63.2985C60.653 64.3527 60.7559 65.4854 60.5977 66.4913C60.1654 69.2631 58.4354 71.5348 55.7589 72.4926C55.3771 72.6283 55.0296 72.849 54.7181 73.1507C54.6659 73.2019 54.6659 73.2525 54.7181 73.3033ZM49.9298 68.1364C50.8037 69.3139 51.7043 70.4256 52.6332 71.4709C53.0402 71.9305 53.7353 72.1766 54.0304 71.3939C54.3303 70.6049 54.1812 69.8777 53.5862 69.2141C52.7987 68.3342 52.0427 67.464 51.3182 66.6017C50.2756 65.3601 49.4286 63.9646 48.5476 62.6122C48.2536 62.1621 47.8049 61.7654 47.3633 61.4494C47.2904 61.397 47.2218 61.3987 47.1547 61.4514C47.0994 61.4942 47.0696 61.5617 47.0773 61.6317C47.3216 64.011 48.5102 66.2234 49.9298 68.1364ZM55.781 66.0115C56.0347 65.9204 56.5895 65.7672 56.6998 65.4941C56.9906 64.779 57.244 64.0496 57.4634 63.3073C57.763 62.2915 55.9364 61.6028 55.8766 62.4047C55.8185 63.1907 55.717 63.9901 55.571 64.8008C55.5217 65.0799 55.5531 65.4619 55.6665 65.9485C55.6813 66.0132 55.7201 66.0341 55.781 66.0115ZM58.1582 66.05C57.9524 66.5711 57.6871 67.049 57.5139 67.5444C57.4407 67.7503 57.4589 67.9796 57.5646 68.2327C57.581 68.2729 57.6125 68.2911 57.6556 68.2877C58.1582 68.2536 58.4416 68.0199 58.5026 67.583C58.5757 67.0717 58.6324 66.5928 58.6755 66.1489C58.6815 66.0844 58.6531 66.0475 58.5905 66.0341L58.3027 65.9713C58.2327 65.9565 58.1834 65.9834 58.1582 66.05Z" fill-rule="evenodd"  fill="#023691" >
</path>
<path d="M210.912 66.9325C210.47 66.1175 209.861 65.5152 209.083 65.1248C208.703 64.9321 208.508 64.834 208.498 64.8289C206.343 63.6381 204.38 62.5201 202.61 61.4749C201.416 60.7683 200.201 60.6186 199.105 61.4917C198.696 61.8162 198.044 61.6342 197.574 61.5407C197.525 61.5299 197.502 61.5002 197.506 61.4494C197.543 60.9681 197.695 60.5993 197.962 60.3448C199.274 59.0876 201.213 58.3696 202.941 57.7165C203.002 57.6938 203.07 57.7068 203.117 57.7488C203.207 57.8276 203.21 57.9118 203.125 58.0011C202.805 58.3347 202.518 58.676 202.262 59.0235C201.963 59.428 202.042 59.7424 202.5 59.9709C203.356 60.3972 204.261 60.9364 205.181 61.1572C205.946 61.3417 206.299 60.6475 206.619 60.0962C206.755 59.8615 206.935 59.6409 207.158 59.4351C208.19 58.4852 209.221 57.4628 210.249 56.3666C211.044 55.5199 211.914 54.8668 212.893 54.2472C212.961 54.2032 212.995 54.2233 212.995 54.3022C212.995 55.3756 212.299 56.0163 211.642 56.7482C211.5 56.9086 211.381 57.0977 211.289 57.314C211.274 57.3497 211.292 57.3899 211.33 57.4033C212.254 57.7236 212.967 57.4809 213.705 56.9489C214.418 56.4358 215.299 56.8491 216.056 56.7142C216.642 56.6098 217.279 56.4803 217.969 56.3264C218.291 56.2555 218.788 56.3026 218.808 56.7351C218.821 57.0109 218.705 57.2017 218.458 57.3052C217.634 57.6519 216.813 58.0028 215.991 58.3591C215.773 58.4529 215.617 58.606 215.521 58.8177C215.164 59.6066 215.8 60.0942 216.51 60.1344C217.18 60.173 218.317 60.2728 218.247 61.1765C218.227 61.4259 218.12 61.651 217.924 61.8488C216.423 63.3588 214.631 64.8394 212.546 65.3156C211.968 65.4477 212.002 65.8925 212.321 66.268C212.601 66.5991 212.891 66.9387 213.189 67.2879C213.722 67.9113 213.851 68.4331 213.827 69.3331C213.826 69.3813 213.792 69.4216 213.748 69.4329C213.139 69.5877 212.622 69.5985 212.2 69.4627C211.47 69.2271 210.663 68.9102 209.78 68.5102C208.981 68.1477 208.244 68.2999 207.488 68.6432C206.636 69.0293 205.797 69.2611 204.969 69.3411C203.591 69.4686 202.776 69.9607 203.089 71.583C203.256 72.4487 203.435 73.98 202.023 73.6886C200.784 73.4303 199.784 74.2708 198.811 74.823C197.523 75.5532 196.472 75.0569 195.639 74.0299C194.455 72.5669 193.778 70.9702 193.609 69.2376C193.559 68.709 193.514 68.0689 193.778 67.5873C194.502 66.2663 195.978 67.0419 196.906 67.6916C197.965 68.4314 198.988 69.2263 200.059 69.7419C200.555 69.9817 200.689 69.8505 200.463 69.3479C200.187 68.7367 199.928 68.0839 199.686 67.3903C199.669 67.3395 199.684 67.303 199.731 67.2792C200.548 66.8625 201.395 66.7111 202.272 66.8197C202.361 66.8319 202.436 66.7556 202.424 66.6672C202.411 66.5631 202.353 66.4914 202.248 66.4512C201.477 66.1515 201.026 65.5685 200.897 64.7027C200.89 64.6475 200.912 64.6118 200.964 64.595C201.448 64.442 201.817 64.3062 202.354 64.4927C204.679 65.2972 206.96 66.1666 209.215 66.9614C209.604 67.098 210.156 67.1147 210.873 67.0087C210.923 67.0016 210.936 66.9764 210.912 66.9325ZM213.461 58.5884L212.117 58.9388C212.039 58.9598 211.993 59.0386 212.013 59.1165L212.03 59.1828C212.121 59.5341 212.541 59.7274 212.967 59.6171L213.052 59.5944C213.478 59.4842 213.749 59.1103 213.657 58.7602L213.641 58.6927C213.62 58.6156 213.541 58.5674 213.461 58.5884ZM208.718 60.0664C208.582 60.2475 208.744 60.5032 208.966 60.4567L209.857 60.2765C209.917 60.2623 209.969 60.23 210.007 60.1818L210.539 59.4771C210.677 59.2968 210.518 59.042 210.294 59.0848L209.406 59.2565C209.344 59.2679 209.291 59.301 209.255 59.3501L208.718 60.0664ZM215.032 60.8437C214.953 60.8471 214.888 60.9111 214.887 60.9899L214.873 61.6447C214.871 61.713 214.917 61.7743 214.984 61.7927L216.083 62.0728C216.17 62.0949 216.256 62.0351 216.268 61.9458L216.386 60.9741C216.396 60.8831 216.325 60.8034 216.234 60.8068L215.032 60.8437ZM211.596 62.0484C211.337 62.1683 211.416 62.5561 211.701 62.5632L213.039 62.5989C213.128 62.6017 213.213 62.5606 213.264 62.4869L213.572 62.0606C213.675 61.916 213.614 61.7147 213.448 61.651L213.014 61.4854C212.947 61.4599 212.871 61.4619 212.806 61.4925L211.596 62.0484ZM208.46 63.371C208.585 63.4623 208.763 63.3878 208.786 63.2338L208.917 62.2978C208.939 62.1436 208.788 62.022 208.642 62.0756L207.696 62.4203C207.539 62.4756 207.51 62.6822 207.645 62.7794L208.46 63.371ZM212.67 63.3231C212.208 63.0621 211.746 62.873 211.286 62.7539C210.48 62.5456 210.005 63.1698 209.716 63.8149C209.691 63.8719 209.713 63.9394 209.768 63.9691C210.885 64.5636 211.863 64.4165 212.702 63.5235C212.776 63.4439 212.765 63.3773 212.67 63.3231ZM195.021 69.5021C194.788 71.653 196.484 73.5976 198.721 72.9357C199.48 72.7115 199.934 71.9158 199.014 71.4279C197.623 70.6926 196.323 70.0353 195.111 69.4522C195.057 69.4267 195.028 69.4434 195.021 69.5021Z" fill-rule="evenodd"  fill="#023691" >
</path>
<path d="M127.054 68.6457C126.53 69.3164 126.064 70.0177 125.66 70.7479C113.177 93.2683 102.837 111.946 94.6435 126.78C93.9824 127.976 93.4966 129.31 93.1876 130.784C92.5764 133.703 93.4458 136.521 95.6274 138.6C97.4588 140.343 99.8176 141.376 102.175 142.243C104.582 143.128 106.977 143.979 109.358 144.795C111.76 145.619 113.859 146.542 115.651 147.563C118.687 149.293 121.308 152.067 122.088 155.556C122.332 156.64 122.459 157.736 122.469 158.847C122.485 160.472 122.466 162.088 122.41 163.695C122.381 164.518 120.752 164.574 120.22 164.553C119.832 164.537 119.436 164.529 119.03 164.529C102.142 164.529 85.241 164.529 68.3238 164.531C68.2864 164.533 68.2507 164.527 68.2147 164.514C68.194 164.507 68.1863 164.483 68.1968 164.464C69.6748 161.844 71.3016 159.115 73.0747 156.271C73.3505 155.829 73.8978 155.719 74.3675 155.711C75.5394 155.693 76.7056 155.689 77.8672 155.699C85.9184 155.772 94.0051 155.829 102.13 155.869C104.884 155.882 107.497 155.784 110.341 155.649C112.257 155.557 113.475 154.636 113.996 152.884C114.504 151.176 113.974 149.806 112.4 148.773C110.799 147.721 108.932 146.765 106.801 145.904C104.776 145.083 102.257 144.127 99.2433 143.032C97.7355 142.483 96.1912 141.857 94.6103 141.153C93.4056 140.617 92.2456 140.039 91.251 139.216C88.7009 137.107 87.6941 134.343 88.2324 130.922C88.4671 129.433 88.9399 128.063 89.6488 126.814C102.257 104.658 114.989 82.3459 127.844 59.8799C128.061 59.5034 128.311 59.1505 128.597 58.8177C128.622 58.79 128.667 58.7942 128.686 58.8265L188.697 164.198C188.733 164.261 188.715 164.298 188.644 164.308C187.607 164.455 186.617 164.54 185.575 164.538C166.364 164.512 147.329 164.528 128.47 164.588C126.388 164.595 125.97 163.449 125.976 161.619C126.013 150.514 126.185 139.454 126.494 128.444C126.854 115.559 127.14 104.239 127.35 94.4886C127.509 87.0358 127.591 79.4202 127.592 71.6442C127.594 70.4948 127.461 69.5046 127.195 68.6713C127.163 68.574 127.117 68.5669 127.054 68.6457ZM130.785 70.5308C130.38 69.8145 129.883 69.15 129.413 68.4638C129.367 68.3971 129.306 68.3787 129.231 68.4105L128.892 68.5539C128.839 68.5757 128.814 68.6143 128.815 68.6696C128.83 69.5868 128.766 70.5291 128.809 71.4342C129.29 81.5037 129.428 91.2373 129.63 101.137C129.691 104.131 129.795 107.258 129.944 110.519C130.241 117.027 130.42 123.079 130.481 128.676C130.553 135.34 130.641 141.166 130.745 146.154C130.796 148.608 130.872 151.092 130.973 153.607C131.042 155.297 131.36 156.533 133.374 156.522C143.945 156.472 156.242 156.457 170.263 156.482C172.884 156.486 176.857 155.755 176.264 152.109C176.079 150.968 175.706 149.901 175.145 148.907C166.551 133.679 151.765 107.554 130.785 70.5308Z" fill-rule="evenodd"  fill="#023691" >
</path>
<path d="M228.83 113.735C228.837 114.195 228.807 114.67 228.738 115.158C228.625 115.945 227.361 115.5 226.98 115.249C226.409 114.876 225.86 114.515 225.333 114.165C225.154 114.045 224.961 113.953 224.753 113.886C224.692 113.866 224.666 113.887 224.674 113.949C224.723 114.322 224.743 114.691 224.734 115.056C224.715 115.832 223.937 115.866 223.403 115.645C222.722 115.362 222.215 114.997 221.437 115.355C220.913 115.597 220.407 115.864 219.838 115.97C219.353 116.057 218.823 116.135 218.246 116.199C217.097 116.326 216.464 117.003 216.752 118.249C217.045 119.518 217.594 120.89 218.395 122.366C218.772 123.064 219.582 123.088 220.278 122.913C222.415 122.377 224.544 121.79 226.265 120.373C226.468 120.207 226.712 120.093 226.999 120.031C227.102 120.008 227.19 120.027 227.263 120.083C227.342 120.148 227.382 120.222 227.383 120.31C227.383 120.362 227.359 120.414 227.313 120.464C226.557 121.285 225.875 121.96 224.79 122.473C222.936 123.348 221.035 124.231 219.092 125.121C218.071 125.589 217.331 125.154 216.929 124.235C216.09 122.321 215.452 120.634 215.019 119.177C214.832 118.546 214.727 117.978 214.707 117.47C214.623 115.409 216.325 114.865 218.022 114.957C218.851 115.002 219.832 115.039 220.558 114.655C220.667 114.596 220.663 114.441 220.553 114.388C218.636 113.459 216.989 112.62 215.607 111.87C215.187 111.642 214.61 111.23 214.495 110.751C214.373 110.237 214.544 109.833 215.009 109.542C215.527 109.219 216.383 109.413 217.014 109.533C217.582 109.641 217.996 109.966 217.903 110.609C217.87 110.829 217.946 111.032 218.093 111.191C218.874 112.036 220.32 112.548 221.39 112.708C221.455 112.716 221.505 112.653 221.478 112.593C221.232 112.04 221.179 111.508 221.317 111.003C221.558 110.138 222.438 110.085 223.076 110.561C223.725 111.047 224.371 111.54 225.012 112.04C225.434 112.369 226.22 112.716 226.557 112.049C226.629 111.907 226.705 111.771 226.787 111.643C227.1 111.145 227.649 111.318 228.046 111.62C229.253 112.533 230.264 113.612 231.292 114.768C231.646 115.164 232.085 115.349 232.615 115.321C232.689 115.317 232.751 115.264 232.772 115.193C232.865 114.829 232.933 114.45 232.791 114.088C232.172 112.524 231.184 111.086 229.653 110.575C229.068 110.38 228.196 110.149 227.037 109.884C226.049 109.657 225.227 109.542 224.327 109.745C224.139 109.788 223.948 109.833 223.754 109.883C222.355 110.237 221.137 108.997 220.935 107.709C220.814 106.932 221.151 105.812 219.834 105.906C218.623 105.993 217.44 106.458 216.293 106.762C215.687 106.923 214.947 107.046 214.34 106.848C213.665 106.628 212.591 105.888 213.448 105.139C214.659 104.084 216.012 104.221 217.475 104.21C219.182 104.196 220.791 103.975 222.3 103.549C223.466 103.22 224.349 103.137 225.466 103.135C225.977 103.133 226.289 103.332 226.507 103.767C226.693 104.141 226.072 104.628 225.776 104.764C225.091 105.079 224.418 105.362 223.757 105.617C223.203 105.829 222.74 106.193 222.516 106.73C222.451 106.887 222.478 107.039 222.597 107.184C223.182 107.896 224.249 107.968 225.177 107.937C225.886 107.911 226.382 107.489 226.424 106.761C226.469 105.926 226.517 105.09 227.658 105.328C228.217 105.443 228.866 105.654 229.604 105.96C230.139 106.182 230.748 106.295 231.432 106.303C231.485 106.304 231.506 106.278 231.502 106.227C231.394 105.11 230.919 104.161 230.505 103.186C230.378 102.884 230.351 102.195 230.794 102.102C231.265 102 231.551 102.346 231.815 102.664C232.6 103.607 233.366 104.556 234.116 105.511C234.4 105.873 234.58 106.199 234.657 106.489C234.962 107.64 234.712 108.4 233.355 108.083C231.872 107.739 230.336 107.557 228.746 107.538C228.468 107.534 228.251 107.664 228.099 107.928C228.08 107.964 228.082 108.007 228.104 108.04C228.279 108.291 228.518 108.45 228.818 108.511C229.318 108.613 229.814 108.719 230.305 108.831C230.927 108.971 231.334 109.308 231.529 109.842C231.686 110.267 231.866 110.676 232.218 110.975C232.651 111.345 233.103 111.601 233.572 111.745C234.078 111.898 234.57 111.343 234.935 111.056C235.16 110.878 235.539 110.721 236.074 110.587C236.139 110.571 236.177 110.596 236.188 110.664C236.256 111.141 236.377 111.614 236.063 112.053C235.599 112.702 235.066 113.241 234.464 113.673C233.75 114.188 233.981 114.933 233.903 115.665C233.847 116.184 233.557 117.62 232.865 117.669C232.512 117.694 232.206 117.557 231.95 117.259C231.188 116.373 230.355 115.336 229.45 114.151C229.297 113.949 229.119 113.793 228.921 113.681C228.86 113.647 228.829 113.665 228.83 113.735Z" fill-rule="evenodd"  fill="#023691" >
</path>
<path d="M27.6154 114.777C28.0406 114.911 28.5608 114.853 29.0189 114.816C30.5456 114.695 31.8297 115.414 33.2119 115.86C33.8174 116.057 34.2097 115.837 34.2587 115.179C34.2902 114.77 34.3035 114.36 34.2961 113.949C34.2692 112.19 34.208 110.475 34.1142 108.8C34.0827 108.221 34.2321 107.655 34.5615 107.099C35.301 105.856 36.9012 105.83 38.0642 106.433C38.9693 106.902 39.1873 109.544 39.1737 110.492C39.1587 111.561 39.1037 112.698 39.0067 113.908C38.7876 116.644 38.5892 119.402 38.2896 121.737C38.2164 122.305 37.997 123.179 37.6302 124.364C37.4692 124.884 37.2561 125.289 36.989 125.58C34.818 127.964 34.6927 124.735 34.5734 123.493C34.4452 122.155 33.8023 121.164 32.4797 120.677C31.087 120.163 29.6482 119.712 28.2255 119.433C26.4643 119.088 24.7182 118.759 22.9882 118.445C22.0831 118.28 21.2511 118.008 20.4951 117.625C20.3415 117.548 20.3341 117.332 20.4801 117.243C20.7559 117.075 21.0365 116.897 21.3211 116.712C22.6826 115.83 23.139 114.216 23.1254 112.651C23.1152 111.459 23.1435 110.397 23.2104 109.464C23.2611 108.749 23.3879 107.773 23.825 107.171C24.7703 105.862 26.676 105.799 27.7705 106.931C27.9987 107.166 28.0197 107.424 28.1061 107.72C28.6385 109.557 29.071 111.508 28.0837 113.266C27.8989 113.596 27.4576 114.294 27.5304 114.68C27.5395 114.729 27.5678 114.762 27.6154 114.777Z" fill-rule="evenodd"  fill="#023691" >
</path>
<path d="M225.846 158.235C224.896 156.828 223.979 155.458 223.091 154.124C222.707 153.547 221.95 152.453 221.206 153.199C220.941 153.465 220.731 153.821 220.578 154.27C220.538 154.391 220.46 154.423 220.345 154.366L220.133 154.258C220.033 154.208 220.002 154.13 220.042 154.025L221.726 149.582C221.75 149.519 221.794 149.494 221.86 149.505C221.981 149.528 222.099 149.575 222.213 149.646C222.255 149.671 222.276 149.719 222.267 149.765C222.143 150.44 222.303 151.113 222.746 151.785C224.03 153.734 225.333 155.711 226.655 157.719C226.757 157.872 226.893 157.982 227.062 158.05C228.193 158.5 229.288 158.945 230.345 159.382C231.718 159.948 232.17 159.435 232.747 158.256C232.792 158.164 232.861 158.139 232.953 158.186L233.184 158.299C233.27 158.341 233.294 158.405 233.26 158.493L230.561 165.618C230.527 165.712 230.463 165.738 230.37 165.702L230.132 165.603C230.043 165.566 230.009 165.5 230.032 165.406C230.264 164.428 230.434 163.686 229.433 163.112C228.542 162.602 227.65 162.083 226.757 161.556C226.699 161.522 226.635 161.512 226.568 161.526C223.872 162.069 221.115 162.633 218.298 163.219C217.602 163.364 217.087 163.74 216.756 164.346C216.717 164.417 216.66 164.437 216.586 164.404L216.288 164.275C216.226 164.247 216.198 164.177 216.222 164.117L218.857 157.151C218.891 157.059 218.954 157.032 219.045 157.07L219.322 157.189C219.408 157.225 219.434 157.287 219.396 157.372C219.148 157.961 218.677 159.392 219.956 159.201C221.933 158.906 223.882 158.618 225.803 158.336C225.85 158.329 225.873 158.275 225.846 158.235Z" fill-rule="evenodd"  fill="#023691" >
</path>
<path d="M39.8345 162.347C39.8971 162.773 40.2058 163.027 40.6353 162.998C40.7158 162.992 40.7917 163.04 40.8246 163.116L40.9842 163.496C41.0094 163.559 40.9811 163.629 40.9184 163.655L37.0293 165.333C36.9684 165.358 36.8983 165.336 36.8638 165.281C36.785 165.151 36.7311 165.014 36.7044 164.868C36.694 164.811 36.7147 164.754 36.758 164.719C38.1164 163.574 38.9844 161.795 38.71 160.069C38.5266 158.913 37.7839 157.522 36.5179 157.379C35.6724 157.284 34.9342 157.898 34.7001 158.715C34.5527 159.234 34.4795 159.789 34.481 160.377C34.4855 161.462 34.4869 162.535 34.4855 163.598C34.481 165.998 33.719 168.016 31.1168 168.546C28.0851 169.161 25.9572 165.743 25.4041 163.295C25.2596 162.661 25.1462 161.934 25.0626 161.11C25.0013 160.518 24.7031 160.238 24.1648 160.274C24.0829 160.279 24.0262 160.245 23.995 160.168L23.8309 159.774C23.8085 159.719 23.8337 159.659 23.8876 159.634L28.4117 157.68C28.461 157.66 28.5191 157.681 28.5415 157.731L28.7442 158.173C28.7771 158.245 28.7564 158.332 28.692 158.381C26.4598 160.076 25.3681 162.357 26.9473 165.072C27.4037 165.856 28.3343 166.461 29.2408 166.283C30.4339 166.049 30.9215 165.074 30.9408 163.96C30.9603 162.902 30.9796 161.831 30.9992 160.744C31.0391 158.366 31.6267 156.115 34.2185 155.528C35.8319 155.161 37.3768 155.963 38.2746 157.294C39.3004 158.813 39.566 160.537 39.8345 162.347Z" fill-rule="evenodd"  fill="#023691" >
</path>
<path d="M213.728 170.419C213.706 170.461 213.722 170.516 213.766 170.539C217 172.388 220.165 174.187 223.257 175.939C223.92 176.315 224.598 176.448 225.124 175.815C225.34 175.555 225.533 175.279 225.703 174.988C225.745 174.918 225.834 174.894 225.903 174.936L226.144 175.082C226.227 175.131 226.244 175.197 226.199 175.282L222.542 182.115C222.506 182.18 222.423 182.202 222.36 182.162L222.101 181.997C222.033 181.955 222.01 181.869 222.048 181.798C222.794 180.414 222.455 179.731 221.281 179.061C218.211 177.308 215.113 175.544 211.983 173.77C211.954 173.754 211.918 173.764 211.903 173.794C210.752 175.993 211.085 177.797 212.901 179.203C212.975 179.261 212.989 179.33 212.94 179.41L212.752 179.726C212.708 179.799 212.649 179.815 212.575 179.772L209.079 177.79C209.025 177.758 209.006 177.691 209.034 177.636L215.34 165.864C215.361 165.825 215.409 165.812 215.446 165.833L219.071 167.895C219.085 167.901 219.09 167.914 219.084 167.929C219.022 168.103 218.925 168.27 218.796 168.43C218.793 168.434 218.789 168.434 218.783 168.433C217.078 167.691 215.672 167.944 214.561 169.187C214.225 169.561 213.948 169.973 213.728 170.419Z" fill-rule="evenodd"  fill="#023691" >
</path>
<path d="M35.2296 175.522C34.7687 175.573 34.2587 175.623 33.698 175.674C33.0047 175.735 32.1101 175.986 32.3575 176.899C32.4426 177.214 32.5798 177.532 32.7691 177.855C32.8422 177.979 32.8153 178.074 32.69 178.143L32.5185 178.235C32.4083 178.296 32.3218 178.271 32.2592 178.162L30.0119 174.274C29.9716 174.204 29.9849 174.147 30.0521 174.101L30.3356 173.907C30.3906 173.87 30.4651 173.883 30.5039 173.938C30.9453 174.574 31.5924 174.848 32.4471 174.762C36.828 174.319 41.2121 173.864 45.5979 173.397C46.0123 173.353 46.2926 173.81 46.063 174.159C43.7191 177.727 41.3881 181.275 39.0708 184.802C38.5952 185.529 37.8689 186.583 38.3162 187.443C38.3551 187.52 38.3327 187.614 38.2612 187.663L38.0492 187.807C37.9435 187.88 37.8601 187.861 37.7958 187.75L34.1708 181.478C34.1246 181.396 34.1411 181.333 34.2216 181.287L34.5107 181.12C34.5824 181.08 34.6391 181.095 34.6808 181.166C35.0371 181.778 35.8393 182.949 36.5344 182.031C36.9684 181.456 37.4335 180.798 37.927 180.057C37.9466 180.027 37.948 179.99 37.9302 179.96L35.4204 175.617C35.3815 175.55 35.3073 175.513 35.2296 175.522ZM36.3926 175.371C36.3583 175.374 36.3391 175.412 36.3569 175.443L38.4923 179.142C38.5101 179.171 38.5535 179.173 38.5742 179.143L41.4284 174.902C41.4508 174.869 41.4241 174.824 41.3836 174.827L36.3926 175.371Z" fill-rule="evenodd"  fill="#023691" >
</path>
<path d="M147.021 188.495C148.739 188.484 150.512 188.485 152.341 188.499C153.393 188.506 154.053 188.191 154.585 187.282C154.767 186.97 154.909 186.645 155.01 186.31C155.035 186.222 155.093 186.189 155.183 186.214L155.973 186.434C156.041 186.453 156.082 186.52 156.069 186.589L155.263 190.613C155.256 190.645 155.227 190.669 155.195 190.669L144.858 190.668C144.809 190.668 144.768 190.627 144.772 190.578C144.923 187.34 147.486 185.308 150.047 183.819C151.073 183.224 152.028 182.152 152.373 181.138C152.653 180.323 152.603 179.105 151.996 178.466C151.231 177.664 149.64 177.607 148.93 178.612C148.513 179.203 148.422 179.851 148.246 180.533C148.182 180.78 148.054 180.996 147.861 181.18C147.251 181.76 145.701 181.889 145.204 181.093C145.052 180.849 144.989 180.562 145.014 180.236C145.152 178.487 146.445 177.543 148.048 177.218C150.461 176.729 155.06 176.54 155.755 179.787C156.425 182.92 153.166 184.445 150.817 185.354C149.276 185.951 147.753 186.9 146.952 188.378C146.908 188.457 146.931 188.497 147.022 188.495L147.021 188.495Z" fill-rule="evenodd"  fill="#023691" >
</path>
<path d="M104.365 189.159C104.604 188.792 104.724 188.445 104.722 188.115C104.709 185.561 104.709 183.075 104.724 180.656C104.725 180.302 104.687 180.017 104.607 179.803C104.3 178.981 103.455 178.721 102.641 178.76C102.559 178.764 102.518 178.726 102.516 178.644L102.506 178.031C102.505 177.949 102.545 177.9 102.626 177.886L107.914 176.971C107.959 176.962 108.003 176.998 108.003 177.045C108.001 180.705 108.001 184.36 108.003 188.011C108.005 189.332 109.03 189.937 110.247 189.955C110.317 189.957 110.352 189.991 110.35 190.061L110.342 190.569C110.342 190.635 110.308 190.668 110.241 190.668L102.369 190.668C102.302 190.668 102.249 190.614 102.249 190.547L102.259 190.061C102.26 189.991 102.296 189.955 102.366 189.955C103.04 189.954 103.987 189.734 104.365 189.159Z" fill-rule="evenodd"  fill="#023691" >
</path>
<path d="M123.222 185.138C122.157 185.851 121.219 186.162 119.785 186.077C118.051 185.973 116.304 185.336 115.589 183.677C115.244 182.878 115.131 182.01 115.248 181.072C115.494 179.128 116.603 177.873 118.574 177.308C120.057 176.883 121.683 176.816 123.134 177.366C124.621 177.928 125.635 179.106 126.176 180.899C126.72 182.701 126.74 184.585 126.235 186.551C125.587 189.069 124.032 190.742 121.337 190.972C119.788 191.103 116.185 190.923 115.657 188.883C115.326 187.603 116.675 187.319 117.589 187.43C118.255 187.51 118.746 187.859 118.904 188.509C119.132 189.442 119.542 190.174 120.639 190.095C122.845 189.937 123.235 186.833 123.31 185.187C123.313 185.114 123.283 185.098 123.222 185.138ZM122.102 178.252C121.238 177.631 119.9 177.603 119.198 178.508C118.278 179.693 118.299 181.837 118.598 183.188C118.917 184.624 119.912 185.217 121.344 184.885C122.663 184.581 123.347 183.543 123.4 182.198C123.451 180.877 123.231 179.063 122.102 178.252Z" fill-rule="evenodd"  fill="#023691" >
</path>
<path d="M138.006 185.126C138.009 185.093 137.97 185.073 137.943 185.093C137.187 185.69 136.316 186.019 135.329 186.08C134.056 186.161 132.547 185.886 131.486 185.156C130.08 184.19 129.703 182.368 129.995 180.744C130.31 179.005 131.388 177.862 133.231 177.318C134.83 176.847 136.652 176.807 138.152 177.503C139.749 178.244 140.621 179.735 141.013 181.45C141.238 182.438 141.328 183.343 141.278 184.168C141.138 186.565 140.435 189.301 138.08 190.429C136.743 191.072 135.233 191.093 133.726 190.896C132.488 190.735 130.988 190.356 130.446 189.171C130.276 188.798 130.263 188.44 130.41 188.099C130.732 187.345 131.909 187.322 132.572 187.483C133.884 187.804 133.422 189.128 134.288 189.822C134.548 190.03 134.886 190.121 135.305 190.095C137.566 189.955 137.905 186.823 138.006 185.126ZM138.101 181.667C138.028 180.117 137.665 178.348 136.081 177.906C134.623 177.497 133.658 178.356 133.329 179.693C132.994 181.058 132.803 184.448 134.728 184.905C135.365 185.056 136.02 184.97 136.7 184.645C137.799 184.12 138.155 182.843 138.101 181.667Z" fill-rule="evenodd"  fill="#023691" >
</path>
<path d="M207.971 180.756C207.367 181.584 207.166 182.193 207.367 182.586C207.497 182.835 207.696 183.069 207.965 183.288C210.485 185.332 212.956 187.334 215.38 189.293C215.934 189.742 216.516 190.083 217.191 189.6C217.522 189.365 217.816 189.104 218.071 188.816C218.126 188.755 218.184 188.751 218.247 188.803L218.487 189.007C218.545 189.055 218.554 189.14 218.508 189.199L213.749 195.389C213.7 195.455 213.644 195.461 213.581 195.407L213.329 195.193C213.259 195.133 213.25 195.066 213.3 194.99C213.518 194.669 213.693 194.323 213.822 193.955C214.021 193.393 213.841 192.886 213.284 192.433C210.446 190.122 207.887 188.047 205.608 186.206C204.51 185.32 203.981 186.128 203.263 186.838C203.189 186.911 203.11 186.916 203.028 186.852L202.86 186.727C202.769 186.659 202.76 186.58 202.83 186.489L207.516 180.393C207.573 180.318 207.64 180.307 207.717 180.363L207.932 180.515C208.012 180.57 208.027 180.679 207.971 180.756Z" fill-rule="evenodd"  fill="#023691" >
</path>
<path d="M52.1873 197.697C52.1771 197.787 52.2068 197.802 52.274 197.742C54.1199 196.116 55.7394 194.68 57.1306 193.433C57.5139 193.089 57.8688 192.551 57.6451 192.016C57.4886 191.64 57.2814 191.29 57.0249 190.966C56.9577 190.881 56.9654 190.802 57.0473 190.732L57.2366 190.568C57.3171 190.498 57.3917 190.502 57.4617 190.584L60.626 194.307C60.6963 194.389 60.6918 194.468 60.6113 194.541L60.4338 194.704C60.374 194.759 60.2802 194.754 60.2235 194.695C59.7583 194.195 59.099 193.584 58.3804 193.969C58.1106 194.113 57.8586 194.288 57.6258 194.495C54.6642 197.125 51.7295 199.725 48.8231 202.297C48.7772 202.337 48.7307 202.337 48.6876 202.294C48.513 202.118 48.303 201.917 48.3296 201.651C48.8427 196.652 49.3436 191.741 49.8342 186.917C49.8476 186.793 49.8073 186.774 49.7135 186.856C47.672 188.67 45.6441 190.468 43.6323 192.25C43.227 192.609 42.7062 193.195 42.9421 193.787C43.0971 194.176 43.3044 194.532 43.5623 194.857C43.625 194.935 43.6162 195.047 43.5444 195.114L43.3803 195.264C43.2893 195.349 43.2029 195.343 43.121 195.248L39.9447 191.516C39.8849 191.446 39.8895 191.38 39.9566 191.318L40.1684 191.125C40.2279 191.07 40.322 191.075 40.3787 191.136C40.7081 191.498 41.3822 192.142 41.9055 191.981C42.2368 191.878 42.5469 191.699 42.8347 191.444C45.0564 189.48 47.4035 187.401 49.8776 185.208C50.1489 184.967 50.1013 184.385 50.1503 184.048C50.228 183.516 50.1548 183.036 49.9298 182.611C49.9014 182.559 49.906 182.511 49.9431 182.465C50.0162 182.374 50.1058 182.301 50.2115 182.244C50.2696 182.213 50.3414 182.226 50.3844 182.277L53.3282 185.733C53.3923 185.807 53.4221 185.906 53.4119 186.004L52.1873 197.697Z" fill-rule="evenodd"  fill="#023691" >
</path>
<path d="M200 191.285C200.336 191.082 200.469 190.669 200.265 190.317C200.227 190.253 200.233 190.171 200.281 190.115L200.545 189.803C200.617 189.718 200.689 189.717 200.766 189.798L203.696 192.968C203.746 193.023 203.752 193.082 203.712 193.144C203.64 193.265 203.542 193.362 203.422 193.436C203.368 193.47 203.299 193.472 203.244 193.439C201.653 192.513 199.628 192.278 198.115 193.354C197.039 194.119 196.131 195.686 197.075 196.876C197.947 197.976 199.343 197.554 200.453 197.087C201.539 196.63 202.584 196.227 203.587 195.877C204.968 195.395 206.49 195.349 207.681 196.329C208.924 197.351 209.46 198.631 209.288 200.165C209.038 202.404 207.261 204.435 205.334 205.519C204.983 205.715 204.634 205.917 204.285 206.121C203.8 206.406 203.691 206.787 203.957 207.266C203.985 207.318 203.977 207.381 203.936 207.424L203.623 207.749C203.57 207.804 203.519 207.803 203.466 207.747L200.025 204.025C199.981 203.978 199.983 203.934 200.026 203.888L200.359 203.537C200.413 203.482 200.472 203.475 200.538 203.515C201.978 204.42 203.719 205.189 205.369 204.4C206.669 203.779 208.11 202.262 207.626 200.657C207.261 199.44 206.122 198.903 204.887 199.324C203.871 199.671 202.845 200.047 201.811 200.454C199.631 201.31 197.422 201.338 196.02 199.269C194.862 197.56 195.223 195.409 196.527 193.909C197.53 192.757 198.739 192.044 200 191.285Z" fill-rule="evenodd"  fill="#023691" >
</path>
<path d="M56.655 207.789C56.907 207.659 57.1292 207.476 57.3186 207.239C59.281 204.779 61.2689 202.273 63.2835 199.72C63.4816 199.47 63.6472 199.184 63.7813 198.862C64.0574 198.2 63.4593 197.499 62.9776 197.061C62.9031 196.994 62.8971 196.922 62.9584 196.843L63.1058 196.651C63.173 196.563 63.2492 196.555 63.3325 196.628C65.1729 198.231 67.0353 199.857 68.9185 201.508C71.673 203.922 73.5473 207.534 71.5641 211.105C70.7501 212.573 69.405 214.055 67.8569 214.698C65.1981 215.801 62.4544 214.435 60.353 212.622C58.5621 211.076 56.6924 209.448 54.7433 207.735C54.6761 207.677 54.6687 207.577 54.7268 207.51L54.9312 207.273C54.9803 207.215 55.0341 207.211 55.0922 207.26C55.4755 207.582 56.1464 208.051 56.655 207.789ZM69.1961 207.164C70.2475 205.004 69.6791 202.611 67.5812 201.405C67.0993 201.129 66.6208 201.613 66.3391 201.967C64.2379 204.623 62.1845 207.212 60.1816 209.739C59.8595 210.145 59.5644 210.658 59.9432 211.133C61.3061 212.849 63.4533 213.278 65.2698 211.956C66.9131 210.759 68.2224 209.162 69.1961 207.164Z" fill-rule="evenodd"  fill="#023691" >
</path>
<path d="M190.758 209.222C190.733 209.25 190.743 209.295 190.779 209.307C192.928 210.049 195.096 210.802 197.285 211.564C197.848 211.759 198.35 211.707 198.79 211.408C198.845 211.369 198.893 211.378 198.93 211.436L199.141 211.759C199.171 211.808 199.164 211.85 199.116 211.885L195.339 214.553C195.263 214.607 195.165 214.62 195.077 214.588L187.84 211.904C187.785 211.883 187.732 211.885 187.675 211.907C187.533 211.968 187.4 212.053 187.279 212.162C187.238 212.199 187.23 212.262 187.262 212.31C187.991 213.405 188.763 214.558 189.581 215.767C189.939 216.298 190.444 216.784 191.131 216.576C191.464 216.477 191.778 216.327 192.072 216.131C192.172 216.064 192.257 216.08 192.324 216.18L192.458 216.375C192.522 216.469 192.509 216.55 192.415 216.617L186.304 220.936C186.231 220.988 186.17 220.976 186.119 220.903L185.918 220.611C185.882 220.559 185.89 220.512 185.94 220.474C186.409 220.119 187.017 219.531 186.932 218.913C186.886 218.565 186.761 218.242 186.564 217.945C184.921 215.495 183.156 212.864 181.267 210.052C181.091 209.79 180.891 209.563 180.667 209.371C180.062 208.849 179.309 209.229 178.724 209.594C178.648 209.644 178.583 209.63 178.53 209.557L178.344 209.299C178.307 209.247 178.318 209.176 178.371 209.138C180.638 207.515 182.733 206.042 184.655 204.718C186.741 203.282 190.335 201.663 191.888 204.906C192.592 206.377 191.812 208.083 190.758 209.222ZM184.196 207.762C185.074 209.052 185.886 210.309 186.746 211.548C186.774 211.589 186.81 211.597 186.853 211.57C187.968 210.899 189.204 209.836 189.113 208.471C189.045 207.424 188.254 206.206 187.435 205.591C186.208 204.672 184.806 205.326 183.89 206.342C183.523 206.749 183.941 207.391 184.196 207.762Z" fill-rule="evenodd"  fill="#023691" >
</path>
<path d="M80.6364 220.77L76.3149 218.558C76.2523 218.527 76.1763 218.534 76.1225 218.579C75.6409 218.972 75.1697 219.369 74.7088 219.77C73.5324 220.794 74.4018 221.508 75.3605 221.993C75.4172 222.021 75.4396 222.091 75.4098 222.146L75.2502 222.452C75.21 222.528 75.1519 222.547 75.0742 222.507L71.1168 220.488C71.0422 220.45 71.0093 220.36 71.0436 220.283L71.163 220.019C71.2061 219.925 71.2732 219.9 71.3671 219.943C72.1381 220.296 72.8657 219.925 73.4922 219.405C76.6072 216.81 79.9787 213.99 83.6068 210.941C83.9138 210.683 84.3838 210.904 84.3778 211.305C84.3254 215.74 84.2718 220.116 84.2168 224.435C84.206 225.24 84.1947 226.418 84.9861 226.898C85.0833 226.956 85.1072 227.036 85.0598 227.138L84.9354 227.403C84.8985 227.482 84.8401 227.502 84.763 227.461L78.3922 224.207C78.319 224.169 78.291 224.08 78.3281 224.007L78.4786 223.715C78.522 223.633 78.5829 223.613 78.6651 223.658C79.1422 223.922 80.3217 224.401 80.5678 223.643C80.6349 223.436 80.6738 223.213 80.6843 222.975C80.7112 222.26 80.7333 221.59 80.7529 220.966C80.7543 220.876 80.7154 220.81 80.6364 220.77ZM76.9981 217.802C76.968 217.827 76.974 217.875 77.01 217.893L80.7364 219.794C80.7736 219.813 80.8169 219.786 80.8169 219.746L80.9272 214.592C80.9286 214.544 80.8736 214.519 80.8362 214.549L76.9981 217.802Z" fill-rule="evenodd"  fill="#023691" >
</path>
<path d="M170.797 220.178C171.597 219.877 172.43 219.324 172.742 218.522C173.048 217.741 172.912 216.895 172.712 216.05C172.683 215.932 172.724 215.848 172.833 215.794L173.022 215.7C173.134 215.645 173.216 215.673 173.268 215.788L176.061 221.932C176.122 222.064 176.086 222.164 175.954 222.228L175.797 222.304C175.681 222.361 175.59 222.334 175.524 222.222C175.134 221.556 174.538 220.803 173.813 220.5C172.991 220.156 171.911 220.487 171.149 220.87C171.099 220.895 171.076 220.957 171.1 221.009C171.744 222.4 172.333 223.701 172.869 224.913C173.069 225.365 173.417 226.202 174.035 226.072C174.432 225.99 174.859 225.832 175.311 225.599C177.655 224.395 179.145 222.868 179.054 219.979C179.05 219.906 179.092 219.838 179.158 219.807L179.586 219.612C179.65 219.584 179.691 219.603 179.707 219.671L180.672 223.991C180.682 224.038 180.659 224.086 180.615 224.105L168.851 229.616C168.754 229.66 168.682 229.635 168.633 229.541L168.516 229.312C168.474 229.233 168.491 229.17 168.571 229.127C169.224 228.763 169.933 228.408 169.861 227.593C169.831 227.262 169.706 226.855 169.483 226.371C168.301 223.797 167.069 221.085 165.786 218.236C165.624 217.872 165.423 217.543 165.183 217.249C164.61 216.542 163.905 216.884 163.168 217.138C163.116 217.158 163.077 217.142 163.053 217.091L162.895 216.752C162.87 216.696 162.885 216.654 162.94 216.627L174.601 211.166C174.65 211.142 174.712 211.164 174.734 211.215L176.395 214.861C176.441 214.963 176.391 215.086 176.285 215.124L176.1 215.193C175.98 215.236 175.889 215.203 175.825 215.093C175.002 213.672 173.605 213.121 171.977 213.529C170.806 213.821 169.797 214.251 168.945 214.816C168.529 215.092 168.648 215.57 168.814 215.94C169.471 217.416 170.105 218.817 170.713 220.144C170.728 220.175 170.764 220.19 170.797 220.178Z" fill-rule="evenodd"  fill="#023691" >
</path>
<path d="M157.523 228.286C157.879 225.651 158.227 223.084 158.569 220.583C158.663 219.895 158.641 218.971 157.693 218.987C157.317 218.993 156.944 219.053 156.574 219.166C156.516 219.184 156.478 219.163 156.461 219.104L156.364 218.741C156.344 218.667 156.372 218.619 156.444 218.6L160.939 217.388C161.022 217.365 161.076 217.396 161.1 217.48L161.187 217.78C161.212 217.862 161.183 217.915 161.102 217.941C160.04 218.275 159.817 219.107 159.682 220.098C159.077 224.486 158.473 228.845 157.868 233.177C157.814 233.568 157.322 233.707 157.071 233.402C154.212 229.944 151.275 226.401 148.255 222.776C147.747 222.166 147.106 221.868 146.331 221.884C146.237 221.886 146.18 221.842 146.159 221.751L146.101 221.508C146.082 221.425 146.114 221.373 146.195 221.35L153.327 219.434C153.423 219.408 153.489 219.442 153.52 219.539L153.596 219.766C153.637 219.886 153.596 219.962 153.472 219.995C152.172 220.341 151.4 220.848 152.333 222.002C154.085 224.168 155.787 226.272 157.434 228.311C157.461 228.345 157.517 228.329 157.523 228.286Z" fill-rule="evenodd"  fill="#023691" >
</path>
<path d="M112.199 222.413C112.049 221.772 111.137 221.443 110.551 221.301C110.448 221.277 110.408 221.213 110.429 221.11L110.486 220.819C110.501 220.74 110.548 220.708 110.628 220.724L115.267 221.695C115.375 221.717 115.418 221.783 115.399 221.892L115.358 222.117C115.335 222.234 115.265 222.286 115.147 222.275C113.89 222.146 113.434 222.668 113.237 223.745C112.791 226.185 112.363 228.429 111.956 230.479C111.892 230.809 111.801 231.168 111.683 231.559C110.882 234.224 108.471 234.981 105.923 234.635C104.469 234.439 102.953 234.005 101.764 233.146C100.22 232.035 99.8666 230.209 100.199 228.393C100.646 225.959 101.097 223.549 101.558 221.167C101.747 220.19 101.403 219.554 100.527 219.254C100.371 219.202 100.21 219.142 100.044 219.075C99.9698 219.045 99.9383 218.992 99.9505 218.913L99.997 218.623C100.007 218.559 100.068 218.516 100.134 218.529L107.484 220.065C107.572 220.084 107.606 220.137 107.587 220.225L107.524 220.515C107.503 220.609 107.446 220.646 107.353 220.629C106.778 220.517 105.908 220.427 105.546 220.981C105.38 221.237 105.262 221.545 105.194 221.906C104.736 224.316 104.288 226.691 103.85 229.033C103.729 229.681 103.686 230.349 103.72 231.035C103.816 232.902 105.299 233.506 106.909 233.686C109.061 233.927 110.444 232.651 110.848 230.601C111.266 228.477 111.72 226.085 112.211 223.429C112.278 223.068 112.274 222.729 112.199 222.413Z" fill-rule="evenodd"  fill="#023691" >
</path>
<path d="M138.293 236.003C139.261 235.8 140.197 235.441 140.044 234.218C139.643 230.989 139.227 227.637 138.793 224.163C138.634 222.887 137.673 222.928 136.635 222.971C136.574 222.972 136.539 222.943 136.529 222.881L136.48 222.516C136.473 222.458 136.498 222.427 136.556 222.419L144.154 221.495C144.253 221.481 144.308 221.526 144.315 221.626L144.336 221.899C144.344 221.996 144.299 222.055 144.204 222.075C143.264 222.273 142.3 222.419 142.459 223.701C142.855 226.908 143.255 230.134 143.659 233.383C143.769 234.272 144.027 235.013 145.059 235.05C145.359 235.06 145.666 235.09 145.952 235.072C146.004 235.07 146.036 235.093 146.043 235.146L146.104 235.539C146.116 235.615 146.085 235.657 146.009 235.667L138.375 236.589C138.278 236.601 138.223 236.557 138.212 236.461L138.177 236.162C138.167 236.074 138.206 236.021 138.293 236.003Z" fill-rule="evenodd"  fill="#023691" >
</path>
<path d="M130.87 231.203C130.887 231.19 130.894 231.174 130.894 231.153C130.909 229.136 130.933 227.102 130.967 225.054C130.98 224.28 130.994 223.36 130.08 223.093C129.742 222.993 129.407 222.933 129.08 222.911C129.008 222.907 128.953 222.847 128.954 222.776L128.957 222.476C128.959 222.379 129.006 222.333 129.103 222.334L133.899 222.449C134.016 222.452 134.073 222.512 134.067 222.629L134.059 222.85C134.054 222.934 133.989 223.001 133.904 223.005C132.646 223.08 132.066 223.357 132.05 224.721C132.002 228.718 131.953 232.769 131.901 236.875C131.9 236.951 131.862 236.993 131.788 237.003C131.419 237.055 131.221 236.987 130.965 236.69C127.773 232.988 124.604 229.315 121.46 225.669C121.374 225.572 121.333 225.587 121.331 225.717C121.3 228.477 121.265 230.935 121.23 233.091C121.219 233.695 121.234 234.211 121.272 234.639C121.361 235.654 122.249 235.813 123.064 235.87C123.174 235.877 123.229 235.937 123.228 236.049L123.225 236.323C123.224 236.401 123.159 236.463 123.08 236.462L118.258 236.348C118.17 236.347 118.128 236.301 118.134 236.213L118.155 235.901C118.159 235.815 118.206 235.77 118.293 235.768C118.805 235.763 119.624 235.688 119.891 235.175C120.04 234.89 120.118 234.574 120.122 234.227C120.165 231.276 120.205 228.208 120.244 225.019C120.248 224.679 120.319 224.347 120.091 224.058C119.635 223.487 119.107 222.844 118.428 222.649C118.363 222.631 118.326 222.589 118.316 222.522C118.297 222.401 118.297 222.285 118.316 222.176C118.326 222.113 118.363 222.084 118.426 222.085L122.903 222.19C123 222.192 123.091 222.236 123.154 222.309L130.784 231.194C130.806 231.22 130.845 231.224 130.87 231.203Z" fill-rule="evenodd"  fill="#023691" >
</path>
</g>
<defs>
<clipPath id="clip-path-WyaXYqVKFFkFJZZJ1ZI2I">
<path d="M0 256.859L256.913 256.859L256.913 0L0 0L0 256.859Z" fill="white"/>
</clipPath>
</defs>
</svg>
