<svg width="88" height="88" xmlns="http://www.w3.org/2000/svg" viewBox="0 0 88 88"><g id="c"><path d="m41.48.04l-.71.04-.55.04-.55.04-.27.04-.32.04-.32.04-.31.04-.31.04-.36.04-.27.04-.24.04-.28.04-.2.04-.28.04-.16.04-.2.04-.28.04-.24.04-.2.04-.24.04-.16.04-.16.04-.16.04-.2.04-.2.04h-.32l-.04.04v.08h-.16l-.2.04-.24.04-.04.04-.16.04-.16.04-.16.04-.16.04-.16.04-.16.04-.12.04h-.08l-.08.04-.16.04-.12.04-.12.04-.16.04-.16.04-.12.04h-.16l-.04.04-.08.04-.08.04-.12.04-.12.04-.16.04-.16.04-.08.04-.16.04-.12.04-.08.04-.12.04-.12.04-.12.04-.16.04-.08.04-.12.04-.12.04-.12.04-.08.04-.16.04-.04.04-.12.04-.12.04-.12.04-.08.04-.12.04-.08.04-.08.04-.12.04-.08.04v-.08h-.04v.12h-.08l-.12.04-.08.04-.16.04-.08.04-.08.04-.12.04-.08.04v-.08h-.04l-.04.08v.08h-.12l-.08.04-.08.04h-.32v.12l-.04.04-.12.04-.08.04-.12.04-.04.04-.12.04-.08.04-.08.04-.08.04-.08.04-.08.04-.12.04h-.12v.08h-.12l-.08.04v.08h-.08l-.08.04-.08.04-.08.04-.12.04-.04.04-.12.04-.08.04-.04.04-.08.04-.08.04-.08.04-.08.04-.08.04-.08.04-.12.04-.04.04-.12.04-.04.04-.08.04-.08.04-.08.04-.04.04-.16.04-.04.04-.04.04-.04.04-.08.04-.08.04-.12.04-.04.04-.08.04-.08.04-.08.04-.04.04-.04.04-.08.04-.08.04-.12.04h-.2v.12l-.04.04-.08.04-.08.04-.04.04-.08.04-.04.04-.08.04-.12.04-.04.04-.08.04-.08.04-.08.04v.08h-.08l-.08.04-.04.04-.08.04-.08.04-.04.04-.04.04-.08.04-.08.04-.04.04-.08.04-.08.04-.08.04-.08.04-.08.04-.04.08-.08.04-.04.04-.08.04-.08.04-.08.04-.04.08-.08.04-.08.04-.08.04-.04.04-.12.04-.04.08-.12.04v.08h-.08l-.04-.04h-.08l-.04.04v.04l.04.12h-.12l-.04.04-.04.04h-.08v.08h-.08v.08h-.08l-.04.04-.08.04-.04.04h-.16l-.04.16-.08.04-.04.04-.08.04-.04.04-.04.04-.04.04-.08.04-.04.04-.08.04-.04.04-.04.04-.08.04-.04.04-.04.04-.04.04-.04.04-.08.04-.04.04-.08.04-.04.04-.12.04-.04.04-.04.08-.04.04-.04.04-.08.04-.12.04-.04.08-.08.04-.04.04-.08.04-.04.08-.04.04-.04.04-.08.04-.04.04-.04.04-.04.04-.04.04-.04.04-.08.04-.04.04-.04.04-.08.04-.04.04-.04.04-.04.04-.04.04-.04.04-.08.04v.08h-.24l-.04.04v.16l-.08.04-.04.04-.04.04-.04.04-.04.04-.04.04-.04.04-.12.04-.04.04-.04.08-.04.04-.04.04-.04.04-.04.04-.04.04-.04.04-.08.04v.08h-.08l-.04.04-.04.04-.04.04-.04.04-.04.04-.04.04-.04.04-.04.04-.04.04-.04.04-.08.04-.04.04-.04.04-.04.04-.04.04-.04.04-.04.04-.04.04-.04.04-.04.04-.04.04-.04.04-.04.04-.04.04-.04.04-.04.04-.04.04-.04.04-.04.04-.04.04-.08.04-.04.08-.04.04-.04.04-.04.04-.04.04-.04.04-.04.04-.04.04-.04.04-.04.04-.04.04-.04.04-.04.04-.04.04-.04.04-.04.04-.04.04-.04.04-.04.04-.04.04-.04.04-.04.04-.04.04-.04.08-.04.04-.04.04-.08.04-.04.08-.04.04-.04.04-.04.04-.04.04-.04.04v.08h-.08l-.04.04-.04.08-.04.04-.04.04-.04.04-.04.04-.04.04-.04.04-.04.08-.08.04-.04.08-.04.04-.04.04-.04.04-.04.04-.04.04-.04.04-.04.04-.04.08-.04.04-.04.04h-.08l-.04.04v.12l-.04.04-.04.04-.04.08-.08.04-.04.04-.04.08-.04.04-.04.04-.04.04-.04.08-.04.04-.04.04-.04.04-.04.08-.04.04-.04.04-.04.04-.04.04-.04.08-.04.04v.08h-.08l-.04.08-.04.04-.04.04-.04.04h-.12l-.04.04v.04l.04.04v.08l-.04.04-.04.04-.04.04-.04.04v.08h-.08l-.04.08-.04.08-.04.04-.04.04-.04.04-.04.08-.04.08-.04.04-.08.04-.04.12-.04.04-.04.04h-.08l-.12.04v.12h.08s-.04.08-.04.08l-.04.08-.04.04-.08.04-.04.04-.04.12-.04.08-.04.04-.04.04-.04.08-.04.04-.04.04-.08.04-.04.16-.04.04-.04.04-.04.08-.04.08-.04.04-.04.08-.04.04-.04.04-.04.04-.04.12-.04.04-.04.04-.04.08-.04.04-.08.04-.04.16-.04.08-.04.04-.04.08-.04.04-.04.08-.04.04-.04.08-.04.04v.08h-.16v.2l-.08.04v.12h-.08l-.04.16-.04.04-.04.08-.04.08-.04.04-.04.08-.04.08-.04.04-.04.08-.04.04-.04.08-.04.08-.04.08-.04.04-.04.08-.08.04-.04.16-.04.08-.04.08-.04.08v.08h-.16l-.04.28-.08.04-.04.16v.08h-.12l-.04.16-.04.08-.04.04-.04.04v.12h-.16v.08h.12s-.04.08-.04.08l-.04.08-.04.08-.04.04-.04.04-.04.12v.08h-.08l-.04.04-.04.04v.08l-.04.16-.04.08-.04.04-.04.08-.04.12-.04.08-.04.04-.04.12-.04.08-.04.04-.04.12-.04.08-.04.08-.04.12-.04.04-.04.12-.04.12-.04.08-.12.04v.16l-.04.12-.04.04-.04.12-.04.12-.04.12-.04.04-.04.12-.04.08-.04.08-.04.12-.04.08-.04.08-.04.12-.04.12-.04.08v.12h-.08l-.04.16-.04.12-.04.08-.04.12-.04.12-.04.08-.04.08-.04.12-.04.12-.04.08-.04.08-.04.16-.04.12-.04.12-.04.08-.04.08-.04.12-.04.12-.04.12-.04.12-.04.12-.04.12-.04.12-.04.12-.04.08-.04.12-.04.16-.04.08-.04.16-.04.12-.04.16-.04.12-.04.08-.04.12-.04.2-.04.08-.04.16-.04.12-.04.16-.04.16-.04.12-.04.16-.04.08-.04.2-.04.12-.04.2-.04.16-.04.16-.04.16-.04.12-.04.12v.24h-.12v.12l.04.04v.04l-.04.12-.04.24-.04.2-.04.12-.04.16-.04.2-.04.16-.04.24-.04.24-.04.2-.04.24-.04.28-.04.16-.04.24-.04.2-.04.32-.04.24-.04.28-.04.35-.04.31-.04.32-.04.28-.04.35-.04.31-.04.63-.04.43-.04.83-.04.94v2.75l.04.91.04.87.04.43.04.59.04.35.04.35.04.31.04.16h-.12v.08l.04.04h.08l.04.32.04.35.04.24.04.24.04.35v.24h.08v.27l.04.08.04.24.04.24.04.24.04.2.04.23.04.2.04.2.04.16.04.12.04.2.04.24.04.2.04.08.04.2.04.16.04.16.04.16.04.16.04.16v.08l-.04.12v.12h.12l.04.2.04.08.04.16.04.12.04.08h-.08v.08h.12v.16l.04.08.04.2.04.08.04.16.04.12.04.12.04.16.04.12.04.12.04.12.04.12.04.23.04.04.04.12v.12h.08v.08l.04.12.04.12.04.12.04.08.04.24.04.04.04.08.04.08.04.12.04.12.04.12v.2h.12v.12l.04.08.04.12.04.08.04.12.04.2.04.04.04.04.04.16.04.04.04.12.04.16.04.08.04.04.04.12.04.08.04.12.04.08.04.12.04.08.04.04v.12l.04.04.04.04.04.12.04.04.04.12.04.2.08.04.04.08.04.12.04.12.04.04.04.12.04.08.04.08.04.04.04.08.04.08.04.12v.12l.04.04h.08v.08l.04.08.04.04.04.08.04.08.04.16.04.04.04.04.04.08.04.12.04.08.04.04.04.16.04.04.04.04.04.08.04.08.04.08.04.08.04.12.04.08.04.04.04.04.04.08.04.08.04.04.04.12.04.04.04.08.04.04.04.08.04.08.04.08.04.08.04.04.04.08.04.08.04.04.04.08.04.08.04.12h.08v.08l.04.08.04.04.04.08.04.04.04.16.04.04.04.04.04.04.04.08.04.04.04.08.04.08.04.04.04.12.04.08.04.04.04.04.04.04.04.04v.2l.04.04.04.04.12.04.04.08.04.08.04.04.04.08.04.04.04.08.04.04.04.04.04.08.04.04.04.08.04.04.04.08.04.04.04.04.04.08.04.04.04.08.04.04.04.12.04.04.04.04.04.04.04.08.04.04.04.04-.08.04v.12l.04.04h.12l.08-.04v.08l.04.04.04.04.04.12.04.04h.08v.08l.04.04.04.08.04.08.04.04.04.04.04.04.04.08h.08v.08l.04.08.04.04.04.04.04.04.04.08.04.04.04.04.04.04.04.08.04.04.04.04.04.04.04.04.04.08.04.08.04.04.04.08.04.04.08.04.04.08.04.04.04.08.04.04.04.04.04.08.04.04.04.04.04.04.04.04.04.08h.08v.08l.04.04.04.04.04.16.04.12.08.04h.12l.04.08.04.04h.08v.08l.04.04.04.04.04.04.04.04.04.08.04.04.04.04.04.04.04.08.08.04.04.08.04.04.04.08.04.08.12.04.04.08.04.04h.08v.16l.12.04.04.04.04.04.04.04.04.12.04.04.08.04.04.04.08.04.04.04-.04.04v.08l.04.04.16.04.04.04.04.16.16.04.04.04.04.04.04.04.04.04.04.04.04.04.04.04.04.04.04.04.04.04.04.04.04.04.04.04.04.04.04.04.04.04.04.04.04.04.04.04.04.04.04.04.04.04h.08v.08h.08s-.05.08-.05.08v.04l.04.04h.08l.04.04.04.04.08.04.04.08.04.04.08.04.04.04.04.04.04.04.04.12.12.04.08.04.04.04.04.08.04.04.04.04.04.04.08.04.08.04.04.12.04.04.12.04.04.04.04.04.04.04.08.04.04.04.04.04.04.04.04.04h.08v.08l.04.04.08.04.04.04.04.04.08.04.04.04.04.04.04.12v.12l.04.04h.08l.04-.04.04-.04.04.04.04.04.04.16.08.04.04.04h.12l.04.04.08.04.04.04.04.08.08.04.08.04.04.04.08.04.04.04.08.04.04.04.04.04.04.04.04.04.08.04.04.04.04.04.04.04-.04.04v.12h.04l.04-.04v-.09s.08.05.08.05l.04.04.04.04.04.04.08.04.04.04.08.04.04.04.08.04.04.04.04.04.08.04.04.04.04.04.04.04.08.04.08.04.04.04.04.04h.08v.08h.12v.08l.08.04.08.04.04.04.04.04.08.04.04.04.08.04.04.04.04.04.08.04.04.08.04.04h.08v.08h.12l.04.04.08.04.08.04.04.16h.16l.08.04.04.04.08.04.04.04.08.04.08.04.04.04.08.04.04.04.08.04.08.04.04.04.08.04.08.04h.08v.08l.08.04.04.04.04.04.12.04.04.04.08.04.08.04.08.04.04.04h.08v.12h.12l.08.04.08.04.04.04.08.04.08.04.04.04.08.04.08.04.08.04.04.04.08.04.08.04.08.04.04.04.08.04.08.04.08.04.04.04.08.04.08.04.04.04.04.04.12.04.08.04.08.04.08.04h.08v.12l.12.04h.12l.08.04.04.04.04.04.16.04.04.04.08.04.08.04.08.04.08.04.04.04.08.04.08.04.12.04.08.04.08.04.08.04.04.04h.12v.12l.27.04.04.04.08.04.16.04.04.04.08.04.08.04.04.04.16.04.08.04.08.04.12.04.08.04.12.04.04.04.08.04.12.04.08.04.08.04.12.04.12.04.08.04.12.04.08.04.08.04.04.04h.08v.08h.16l.12.04.12.04.12.04.08.04.08.04.12.04.04.04.04.04h.12l.12.04.12.04.12.04.12.04.08.04.04.04.16.04.12.04.08.04.16.04.12.04.12.04.12.04.12.04.08.04.08.04.2.04.08.04.16.04h.12v.08l.24.04.12.04.16.04.16.04.08.04.16.04.08.04.24.04.12.04.12.04.16.04.08.04.2.04.12.04.12.04h.08l.16.04.16.04.16.04.12.04.16.04.2.04.16.04.16.04.24.04.2.04.12.04.04.04h.16l.16.04.16.04.16.04.31.04.24.04.24.04.24.04.04.04.04.04h.04l.04-.04h.04l.2.04.24.04.31.04.24.04.24.04.31.04.35.04.32.04.31.04.32.04.35.04.59.04.43.04.87.04.9.04h2.76l.9-.04.83-.04.47-.04.59-.04.35-.04.35-.04.32-.04.27-.04.32-.04.35-.04.24-.04.24-.04.39-.04.2-.04.2-.04.16-.04.24-.04.24-.04.24-.04.2-.04.24-.04.2-.04.16-.04.2-.04.16-.04.2-.04.2-.04.16-.04.16-.04.12-.04v.08l.04.04h.04l.04-.04v-.12h.12l.12-.04.16-.04.16-.04.16-.04.2-.04.12-.04.2-.04.12-.04.12-.04.12-.04.2-.04.08-.04.16-.04.16-.04.08-.04.2-.04.12-.04.08-.04.12-.04h.31v-.12h.12l.08-.04.16-.04.16-.04.04-.04.12-.04.16-.04.08-.04.12-.04.16-.04.08-.04.24-.04.04-.04.04-.04.08-.04v.08h.04v-.12h.08l.16-.04.12-.04.12-.04.04-.04.16-.04.08-.04.08-.04.08-.04.12-.04.16-.04.08-.04.08-.04.12-.04.08-.04.08-.04.08-.04.12-.04.12-.04.08-.04.12-.04.08-.04.08-.04.08-.04.12-.04.04-.04.12-.04.08-.04.12-.04.08-.04.08-.04.12-.04h.08l.04-.04.04.04h.08v-.16h.08l.12-.04.04-.04.08-.04.12-.04.08-.04.04-.04.08-.04.12-.04.08-.04.08-.04.08-.04.16-.04.04-.04.04-.04.08-.04.04-.04.12-.04.12-.04.04-.04.08-.04.08-.04.08-.04.04-.04.08-.04.08-.04.08-.04.08-.04v.12h.12l.04-.2.08-.04.08-.04.08-.04.04-.04.08-.04.08-.04.08-.04.08-.04.08-.04.04-.04.08-.04.04-.04h.16l.04-.04.04-.08.08-.04.08-.04.04-.04.08-.04.12-.04h.2v-.08l-.12-.02.08-.02.04-.04.16-.04.12-.04.04-.12.08-.04.08-.04.08-.04.08-.04.04-.04.08-.04.04-.04.08-.04.04-.04.08-.04h.12l.04-.04v-.12h.08l.08-.04.04-.04.08-.04.04-.04.08-.04.08-.04.04-.04.08-.04.04-.04.12-.04v-.08h.08l.12-.04.04-.04v-.08h.08l.12-.04.04-.08.04-.04.08-.04.04-.04.08-.04.04-.04.04-.04.16-.04.04-.08.04-.04.04-.04.08-.04.08-.04.04-.04.08-.04.04-.04.04-.04.04-.04.04-.04.08-.04.08-.04.08-.04.04-.04.04-.04.04-.04.04-.04.08-.04.04-.04.04-.04.12-.04.04-.04.04-.04.04-.04.04-.04.04-.04.04-.04.04.04h.04l.04-.12.08-.04.04-.04.04-.04.04-.04.08-.04.04-.04.04-.04.04-.04.08-.04.04-.04.04-.04.04-.04.04-.04.08-.04.04-.04.04-.04.08-.04.04-.04.04-.04.16-.04.04-.08.04-.08.04-.04.08-.04.04-.04h.08l.04.04h.04l.04-.2.04-.04.04-.04.04-.04.04-.04.04-.04.08-.04.04-.04.04-.04.04-.04h.16v-.2h.12l.04-.08.08-.04.04-.04.04-.08.08-.04.08-.04.04-.08.04-.04.04-.04.04-.04.04-.04.08-.04v-.08h.08l.04-.04.08-.04.04-.08.04-.04.04-.04.04-.04.08-.04.04-.04.04-.04.04-.04.04-.04.04-.04.04-.04.04-.04.04-.04.04-.04.04-.04.04-.04.04-.04.04-.04.04-.04.04-.04.04-.04.04-.04.08-.04.04-.04.04-.08.04-.04.04-.04.04-.04.04-.04.04-.04.04-.04.04-.04.04-.04.04-.04.04-.04.04-.04.04-.04.04-.04.04-.04.08-.04.04-.04.04-.08.04-.04.04-.04.04-.04.04-.04.08-.04.04-.08.04-.08.04-.04.04-.04.04-.04.08-.04.04-.04.04-.08.04-.04.04-.04.04-.04.04-.04v-.08h.08l.04-.08.04-.04.04-.04.04-.04.04-.04.04-.04.04-.04.04-.04.04-.08.04-.04.04-.04.08-.04.04-.04.04-.08.08-.04.04-.12.04-.04.04-.04.12-.04.04-.16.04-.04h.2v-.12h-.08v-.08h.08l.04-.04.04-.08.04-.04.04-.04.04-.08.04-.04.04-.04.04-.04.04-.04v-.08h.08l.04-.04.04-.12.08-.04.04-.08.04-.08.04-.04.04-.04.04-.04.04-.04.04-.04.04-.08.04-.04.04-.08.04-.04.04-.04.04-.04.04-.04.04-.08.04-.04v-.08h.08l.04-.08.04-.04.04-.04.04-.08.04-.04.04-.08.04-.04.04-.04.04-.08.04-.04.04-.04.04-.08.04-.04.08-.04.04-.04.04-.12.04-.08v-.08h.08l.04-.08.04-.04.04-.08.04-.04.04-.08.04-.04.04-.04.04-.08.04-.08.04-.04.04-.04.04-.04.04-.08.04-.08.04-.04h.04l.04.04h.04v-.2l.04-.08.04-.08.04-.04.04-.08.08-.04.04-.08.04-.08.04-.08.04-.04.04-.08.04-.08.04-.04.04-.08.04-.04.04-.04.04-.08.04-.08.04-.08.12-.04v-.12l.04-.04.04-.08.04-.08.04-.08.04-.04.04-.08.04-.08.04-.08.04-.04.04-.08.08-.04.04-.12.04-.08.04-.08.04-.04.04-.08.04-.08.04-.08.04-.04.08-.04.04-.04v-.16l.04-.04.04-.08.04-.04v-.08h.12v-.2l.04-.04.04-.04.08-.04v-.16l.04-.08.04-.04.04-.04.04-.08.04-.12.04-.04v-.08s.08.05.08.05h.16v-.08l-.04-.04h-.12s.04-.12.04-.12l.04-.04.04-.08.04-.04.04-.12.04-.08.04-.04.04-.12.04-.08.04-.08.04-.08.04-.04.04-.08.04-.12.04-.08.04-.08.04-.08.04-.12.04-.04.04-.08.04-.04.04-.16.04-.08.04-.04.04-.12.04-.08.04-.12.04-.04.04-.08.04-.08.04-.12.04-.08.04-.08v-.12h.08l.04-.04.04-.12.04-.04.04-.24.04-.08.04-.12.04-.08.04-.04h.04v-.16l.04-.12.04-.04.04-.12.04-.12.04-.08.04-.08.04-.16.04-.04.04-.16.04-.08.04-.12.04-.12.04-.04v-.12h.16v-.08l-.08-.04.04-.08.04-.16.04-.12.04-.08.04-.08.04-.16.04-.08.04-.12.04-.16.04-.08.04-.12.04-.16.04-.04.04-.12.04-.2.04-.08.04-.12.04-.16.04-.12.04-.12.04-.12.04-.08.04-.2.04-.12.04-.16.04-.12.04-.12.04-.04v-.16l.04-.04.04-.2.04-.12.04-.2.04-.12.04-.16.04-.2.04-.12.04-.2.04-.12.04-.16.04-.16.04-.16.04-.16.04-.16.04-.28.04-.16.04-.16.04-.2.04-.12.04-.24.04-.24.04-.2.04-.24.04-.28.04-.16.04-.24.04-.24.04-.31.04-.2.04-.24.04-.35.04-.35.04-.32.04-.31.04-.28.04-.35.04-.47.04-.55.04-.75.04-.87v-3.23l-.04-.87-.04-.79-.04-.43-.04-.55-.04-.32-.04-.35h.08v-.12h-.04l-.04.04v-.27h-.04l-.04-.28-.04-.32-.04-.35-.04-.24-.04-.24v-.24l.04-.04v-.12h-.08l-.04-.12-.04-.24-.04-.2-.04-.24-.04-.24-.04-.28-.04-.12-.04-.27-.04-.16-.04-.16-.04-.16-.04-.16-.04-.2-.04-.24-.04-.24-.04-.08-.04-.2-.04-.16-.04-.12-.04-.16v-.04l.04-.04v-.04l-.04-.04-.04-.04-.04-.12-.04-.16-.04-.16-.04-.16-.04-.24-.04-.12-.04-.04-.04-.12-.04-.2-.04-.12-.04-.16-.04-.08-.04-.31h-.08v-.12l-.04-.08-.04-.12-.04-.16-.04-.16-.04-.08-.04-.16-.04-.08h.08v-.08h-.08l-.04-.04-.04-.12-.04-.12-.04-.12-.04-.12v-.16l-.04-.04-.04-.04-.04-.16-.04-.04-.04-.08-.04-.12-.04-.12-.04-.12-.04-.12-.04-.12-.04-.08-.04-.12-.04-.08-.04-.16-.04-.04-.04-.12-.04-.12-.04-.08-.04-.08-.04-.16-.04-.16-.04-.08-.04-.04-.04-.08-.04-.08-.04-.12-.04-.08-.04-.08-.04-.12-.04-.08-.04-.08-.04-.08-.04-.08-.04-.12-.04-.12-.04-.04-.04-.12-.04-.12-.04-.04-.04-.08-.04-.08-.04-.12-.04-.08-.04-.08v-.08l-.04-.04-.04-.08-.04-.04-.04-.08-.04-.08-.04-.16-.04-.04-.04-.04-.04-.16-.04-.08-.04-.04-.04-.08-.04-.04v-.24h-.12v-.08l-.04-.04-.04-.04-.04-.12-.04-.04-.04-.16h-.08v-.08l-.04-.08-.04-.04-.04-.12-.04-.2h-.12v-.08l-.04-.04-.04-.08-.04-.12-.04-.04-.04-.08-.04-.08-.04-.08-.04-.08-.04-.04-.04-.08-.04-.08-.04-.08-.04-.04v-.24l-.16-.04-.04-.08-.04-.04-.04-.08-.04-.08-.04-.08-.04-.08-.04-.04-.04-.08-.04-.08-.04-.04-.04-.08-.04-.04-.04-.04-.04-.12-.04-.08-.04-.08h-.08v-.2l-.04-.04h-.04l-.04-.04-.04-.04-.04-.04-.04-.08-.04-.08-.04-.04-.04-.08-.04-.04-.04-.08-.04-.08-.04-.12h-.08v-.16l-.04-.04h-.08l-.04-.08-.04-.08-.04-.04-.04-.04-.04-.08-.04-.04-.04-.08-.04-.04-.04-.08-.04-.04-.04-.16-.04-.04-.08-.04-.04-.04-.04-.04-.04-.08-.04-.08-.04-.04-.04-.04-.04-.08-.04-.04-.04-.04-.04-.04-.04-.08-.04-.12-.08-.04-.04-.08-.04-.04v-.24h-.04l-.04.04h-.08l-.04-.08-.04-.04-.04-.04-.04-.16-.04-.04-.04-.04-.08-.04-.04-.04-.04-.08-.04-.04-.04-.04-.04-.08-.04-.04-.04-.04-.04-.04-.04-.04-.04-.08-.04-.04-.04-.04-.04-.16h-.08l-.04-.04-.04-.08-.04-.04-.04-.04-.04-.04-.04-.04-.04-.08-.04-.04-.04-.04-.04-.04-.04-.04-.04-.08-.04-.04-.04-.04-.04-.08-.04-.04-.04-.04h-.08v-.08l-.04-.04-.04-.04-.04-.04-.04-.08-.04-.08h-.08v-.12l-.12-.04-.04-.08-.04-.04-.04-.04-.04-.08-.04-.12h-.16v-.08l-.04-.08h-.08v-.12l-.04-.04-.08-.04h-.08v-.08l-.04-.04-.04-.04-.04-.04-.04-.04-.04-.04-.04-.08-.04-.08-.08-.04h-.08v-.08l-.04-.04v-.16h-.16l-.04-.04-.04-.04-.04-.04-.04-.04-.04-.04-.04-.08-.04-.04-.08-.04-.04-.04-.04-.04-.04-.04-.04-.04-.04-.04-.04-.04-.04-.04-.04-.04-.04-.04-.04-.04-.04-.04-.04-.04-.04-.04-.04-.04-.04-.04-.04-.08-.08-.04-.04-.04-.04-.04-.04-.04-.04-.04-.04-.08-.08-.04-.04-.04-.04-.04-.04-.04-.04-.04-.04-.04-.04-.04-.04-.04v-.12l-.16-.04-.04-.04-.08-.04-.04-.04-.04-.04-.04-.04-.04-.04-.04-.04-.04-.04-.04-.04-.04-.04-.04-.12-.12-.04-.04-.04-.04-.04h-.08v-.08l-.04-.04-.12-.04-.04-.08-.04-.04-.08-.04-.04-.04-.04-.04-.04-.04-.08-.04-.04-.04-.04-.08-.04-.04-.04-.04-.12-.04-.04-.04-.04-.04-.04-.04-.04-.04-.04-.04-.04-.04-.04-.04-.04-.04-.08-.04-.04-.04-.04-.04-.08-.04-.04-.04-.04-.12-.16-.04-.04-.04-.04-.04-.04-.04-.08-.04-.04-.04-.04-.04-.04-.04-.04-.04-.04-.04-.08-.04-.04-.04-.08-.04-.04-.04-.04-.04-.04-.08h-.12v-.08l-.08-.04-.08-.04-.04-.04-.08-.04-.04-.04-.04-.04-.04-.04-.08-.04-.04-.04-.04-.04-.08-.04-.04-.04-.04-.04-.08-.04-.04-.04-.04-.04-.08-.04-.04-.04-.04-.04-.04-.04-.12-.04-.04-.04-.04-.04-.04-.04-.08-.04-.04-.04-.04-.04-.08-.04-.08-.04-.04-.08-.04-.04-.04-.04-.04-.04h-.08l-.08-.04-.04-.04-.08-.04-.08-.04-.04-.04-.04-.04-.04-.04-.08-.04-.04-.04-.04-.04-.12-.04-.04-.04-.04-.04-.04-.04-.08-.04-.04-.04-.08-.04-.08-.04-.08-.04-.08-.04-.04-.04v-.12h-.16l-.04-.04-.08-.04-.08-.04-.08-.04-.08-.04-.04-.08-.04-.08h-.12l-.08-.04-.08-.04-.08-.04-.08-.04-.04-.04-.04-.04-.08-.04-.04-.04-.08-.04-.08-.04-.08-.04-.08-.04-.04-.04-.08-.04-.04-.04-.04-.08-.12-.04-.08-.04-.16-.04-.04-.04-.08-.04-.04-.04-.08-.04-.08-.04-.08-.04-.04-.04-.08-.04-.12-.04-.08-.04-.04-.12-.08-.04-.2-.04-.08-.04-.08-.04-.08-.04-.08-.04-.08-.04h-.08v-.08l-.16-.04-.08-.04-.04-.04-.12-.04-.08-.04-.04-.04-.04-.04-.04-.04h-.08l-.08-.04-.12-.04-.04-.04-.12-.04-.08-.04-.08-.04-.08-.04-.08-.04-.04-.04-.12-.04-.08-.04-.08-.04-.12-.04-.08-.04-.08-.04-.08-.04-.04-.04-.08-.04-.12-.04-.08-.04-.12-.04-.12-.04-.08-.04-.08-.04-.08-.04-.08-.04-.12-.04-.08-.04-.08-.04-.12-.04-.08-.04-.08-.04-.12-.04-.08-.04-.08-.04-.16-.04-.08-.04-.08-.04-.12-.04-.12-.04-.08-.04-.04-.04-.16-.04-.12-.04-.08-.04-.08-.04-.04-.08h-.24l-.08-.04-.12-.04-.08-.04-.08-.04v-.12h-.12l-.04.04h-.12l-.12-.04-.12-.04-.12-.04-.12-.04-.08-.04-.04-.04-.04-.04h-.16l-.16-.04-.08-.04-.16-.04-.16-.04-.12-.04-.12-.04-.08-.04-.12-.04-.2-.04-.08-.04-.16-.04-.16-.04-.16-.04-.04-.04h-.08l-.12-.04-.12-.04-.16-.04-.16-.04-.16-.04-.16-.04-.16-.04-.16-.04-.16-.04-.12-.04-.16-.04-.2-.04-.16-.04-.12-.04-.24-.04h-.08v-.08h-.32l-.12-.04-.2-.04-.16-.04-.2-.04-.24-.04-.2-.04-.08-.04h-.2l-.24-.04-.2-.04-.2-.04-.24-.04-.31-.04-.24-.04-.24-.04-.35-.04-.31-.04-.32-.04-.31-.04-.24-.04v-.08h-.12v.08l-.16-.04h-.16l-.55-.04-.16-.04h-.28l-.75-.04-.83-.04h-3.39l-.83.04Z" style="fill:#f1f1f1; fill-rule:evenodd; stroke-width:0px;"/><path d="m2.52,29.51c0,.2-.39,1.31-.48,1.57-.18.54-.33,1.08-.45,1.64-.1.52-.35,1.11-.41,1.67-.06.55-.32,1.13-.35,1.73-.03.46-.23,1.26-.31,1.74-.05.32-.05.61-.1.93-.04.24-.09.7-.11.95-.09,1.29-.2,2.56-.2,3.97v.59c0,3.43.47,6.96,1.16,9.73.07.29.23.85.25,1.09.03.32.26.74.31,1.07.1.67.51,1.49.66,2.09.16.64.5,1.36.72,1.99.24.66.52,1.3.83,1.93.63,1.25,1.14,2.45,1.85,3.62.7,1.15,1.34,2.27,2.13,3.35,1.63,2.23,3.09,4.01,5.01,5.93,6.78,6.78,17.41,12.78,30.98,12.78,1.32,0,2.63-.05,3.94-.19.6-.07,1.37-.05,1.92-.17.49-.1,1.3-.17,1.77-.31.1-.03.76-.14.87-.15.25-.03.57-.12.85-.17.55-.1,1.13-.26,1.69-.39.49-.12,1.16-.31,1.62-.47.26-.1,1.48-.37,1.55-.54h.12c.2,0,2.83-1.08,3.17-1.24.48-.22,1.1-.44,1.51-.7.22-.14.49-.22.74-.36.21-.12.54-.28.76-.38.49-.24.96-.5,1.42-.79.47-.29.94-.54,1.4-.84.92-.62,1.75-1.16,2.64-1.8,3.55-2.58,6.23-5.4,8.94-8.8.65-.81,1.25-1.7,1.82-2.58.3-.46.56-.89.85-1.35.3-.46.58-.93.83-1.41.23-.5.52-.94.75-1.45.23-.51.49-.98.73-1.51.24-.52.45-1.01.67-1.54.2-.51.4-1.14.63-1.62.17-.35.45-1.23.57-1.63.18-.56.33-1.11.49-1.71.32-1.17.59-2.36.87-3.58.06-.28.1-.68.14-.96.04-.27.14-.69.15-.95.03-.59.24-1.37.24-2.01,0-.63.16-1.34.16-2.05,0-.75.04-1.42.04-2.2v-1.03c0-2.67-.42-5.43-.85-7.73-.23-1.15-.52-2.3-.87-3.42-.18-.59-.28-1.1-.49-1.64-.19-.48-.41-1.1-.56-1.6-.26-.87-.88-2.18-1.28-3.01-.48-1.02-.92-1.89-1.44-2.85-1-1.82-2.14-3.56-3.4-5.22-2.42-3.18-5.38-6.2-8.59-8.57-.84-.62-1.68-1.15-2.53-1.76s-1.78-1.05-2.67-1.61c-.87-.55-1.9-.96-2.85-1.44-.37-.19-2.77-1.25-3.08-1.25v-.08c-.17,0-1.4-.45-1.63-.54-.51-.2-1.12-.31-1.67-.5-1.08-.37-2.36-.56-3.49-.84-.42-.1-1.44-.28-1.84-.32-.65-.07-1.28-.16-1.93-.23-1.37-.15-2.75-.23-4.13-.24h-1.06c-2.93,0-5.49.33-7.97.8-1.25.24-2.43.51-3.56.84-1.16.35-2.21.71-3.32,1.09-2.13.71-4.12,1.83-6,2.78-.89.45-1.91,1.12-2.74,1.67-.83.55-1.86,1.2-2.58,1.82-.39.34-.81.61-1.2.96-.35.31-.83.72-1.2,1-.77.61-1.53,1.47-2.26,2.15-.75.72-1.46,1.49-2.11,2.29-.66.84-1.3,1.59-1.95,2.47-1.18,1.59-2.5,3.59-3.4,5.41-.49.99-.99,1.89-1.44,2.97-.22.53-.44,1.01-.65,1.56-.1.27-.2.5-.31.8-.06.17-.18.71-.33.77Z" style="fill:#0072af; fill-rule:evenodd; stroke-width:0px;"/><path d="m3.5,31.95c-.1.16-.67,2.29-.71,2.6-.05.45-.21.87-.29,1.37-.07.44-.15.92-.24,1.41-.35,2.01-.53,4.04-.54,6.08v1.22c0,6.26,1.83,12.7,3.83,16.99,2.12,4.57,5.02,8.72,8.58,12.28,1.64,1.64,3.7,3.45,5.67,4.76.53.35,1.04.69,1.56,1.04.52.35,1.1.64,1.61.98.49.33,1.17.59,1.68.92.57.32,1.16.62,1.77.87.63.24,1.21.52,1.83.77.62.25,1.25.48,1.89.71.66.23,1.31.39,1.98.62.54.19,1.5.47,2.07.56.31.05.76.16,1.07.23.34.08.75.13,1.08.22.3.08.77.12,1.1.2.33.08.79.09,1.15.15,1.62.23,3.25.35,4.89.35h1.18c1.63,0,3.26-.13,4.87-.37.77-.13,1.5-.23,2.26-.37.76-.14,1.5-.35,2.19-.45.48-.07,1.54-.41,2.03-.57.33-.11.73-.17,1.02-.29.25-.1.75-.29.98-.35.66-.17,1.31-.54,1.92-.71.28-.08.63-.28.9-.4.32-.14.62-.23.94-.4.55-.31,1.22-.53,1.74-.86.52-.33,1.17-.62,1.7-.94,1.1-.65,2.19-1.32,3.21-2.06,2.02-1.45,3.92-3.07,5.67-4.83,6.55-6.55,12.17-16.76,12.17-29.86v-.24c0-6.41-1.71-12.63-3.76-17.02-2.2-4.71-5.03-8.89-8.49-12.33-1.75-1.73-3.63-3.32-5.63-4.75-1.85-1.34-4.42-2.87-6.6-3.83-.56-.24-1.25-.61-1.81-.79-.56-.18-1.32-.48-1.89-.71-.45-.18-1.47-.55-1.96-.64-.24-.04-.75-.28-.99-.31-.36-.05-.7-.14-1.05-.25-.65-.2-1.47-.31-2.15-.45-.76-.15-1.39-.25-2.23-.37-1.45-.19-3.23-.39-4.85-.39h-1.45c-1.38,0-2.76.08-4.13.24-.55.07-1.36.17-1.89.27-.59.12-1.28.26-1.88.32-.46.05-1.28.33-1.74.42-.59.13-1.16.28-1.73.48-.55.18-1.18.31-1.69.52-.38.16-1.22.5-1.6.61-.49.13-1.05.45-1.53.63-.33.13-.48.23-.76.34-.22.09-.6.29-.76.34-.51.21-1,.46-1.47.73-.47.29-.95.5-1.42.79-1.78,1.07-3.68,2.26-5.21,3.57-.79.68-1.6,1.28-2.34,2.03-.74.74-1.45,1.44-2.18,2.18-1.35,1.36-2.83,3.24-3.91,4.86-1.2,1.77-2.28,3.62-3.23,5.54-.49.99-.9,2.01-1.33,3.04-.16.39-1.09,3-1.09,3.32Z" style="fill:#fff; fill-rule:evenodd; stroke-width:0px;"/><path d="m12.55,42.93v1.73c0,.6.08,1.08.08,1.65,0,.24.09,1.42.14,1.63.11.46.14,1.03.22,1.51.06.4.27,1.1.27,1.5l.08.11v.24c.05.08.68,2.4.78,2.72.3.91.62,1.69.95,2.54.61,1.57,1.57,3.21,2.41,4.59.88,1.42,1.89,2.76,3.01,4,.57.63,1.11,1.19,1.71,1.79.6.6,1.26,1.09,1.87,1.67,1.08,1.02,2.79,2.08,4.11,2.89.34.21.74.44,1.11.62.19.09.38.2.56.31.19.1.46.2.61.29.66.41,1.68.73,2.43,1.07.37.17.86.32,1.27.46.44.15.89.3,1.34.43.79.24,2.01.55,2.82.68,2.12.32,4,.56,6.49.56,1.36,0,2.47-.19,3.66-.28.53-.04,3.06-.47,3.31-.63.52,0,2.15-.59,2.68-.74.8-.22,1.7-.64,2.49-.94.39-.16.78-.33,1.16-.53.37-.2.81-.37,1.15-.58.72-.45,1.47-.8,2.19-1.27,2.63-1.75,5.39-3.98,7.31-6.42,2.1-2.68,3.77-5.16,5.13-8.6,1.25-3.15,2.26-7.1,2.26-11.47v-.08c.02-2.13-.18-4.25-.59-6.33-.17-.86-.39-2.05-.67-2.8-.16-.43-.25-.87-.42-1.31-.17-.42-.32-.84-.45-1.28-.08-.31-.39-.88-.51-1.22-.13-.37-.38-.81-.55-1.19-.35-.79-.8-1.51-1.21-2.26-.61-1.12-2.03-3.2-2.88-4.09-.57-.6-1.03-1.23-1.63-1.83-.59-.6-1.14-1.12-1.77-1.69-1.27-1.14-2.49-2.03-3.93-2.99-.7-.46-1.43-.89-2.18-1.28-.79-.41-1.51-.74-2.32-1.14-.68-.34-4.45-1.72-5.25-1.72-.34-.23-2.6-.51-3.26-.64-.83-.17-2.64-.27-3.63-.27h-.98c-4.67,0-9.45,1.32-12.65,2.81-3.57,1.67-6.58,3.69-9.2,6.31-2.46,2.46-4.93,5.66-6.45,9.02-.4.88-.79,1.79-1.14,2.72-.32.86-.72,2.02-.93,2.97-.22,1.05-.53,2.09-.65,3.21-.12,1.04-.36,2.43-.36,3.53Z" style="fill:#0072af; fill-rule:evenodd; stroke-width:0px;"/><path d="m14.25,35.33c-.17.26-.95,3.65-.95,4.17v.32h-.08l-.02.27-.21,3.11v1.77c0,.66.05,1.22.08,1.85.02.58.18,1.18.2,1.77.01.41.2,1.18.29,1.64.07.41.34,1.27.34,1.63l.08.11c0,.35.62,2.14.75,2.55.27.83.66,1.6.95,2.4.19.52.81,1.75,1.11,2.24.22.35.38.71.6,1.05s.46.69.66,1.03c1.17,2.03,4.45,5.71,6.28,7.06.63.46,1.21.95,1.87,1.43.66.48,1.32.91,2.02,1.32.7.41,1.4.81,2.15,1.19.78.39,1.52.66,2.32,1.03.77.35,1.63.59,2.47.87.87.29,1.77.42,2.66.69.76.23,1.98.34,2.85.49.25.04.53,0,.79.04.22.04.53.08.73.1.54.04,1.1.04,1.65.04h1.42c4.45,0,9.26-1.44,12.31-2.89,3.52-1.67,6.34-3.66,8.94-6.25,2.6-2.57,4.73-5.59,6.28-8.9.42-.87.79-1.76,1.11-2.67.28-.83.75-2.05.89-2.93.02-.13.14-.61.19-.76.09-.31.09-.48.15-.79.1-.49.24-1.09.32-1.57.18-1.17.27-2.35.28-3.53v-2.13c0-1.2-.16-2.61-.32-3.73-.08-.54-.23-1.19-.34-1.71-.09-.43-.36-1.36-.36-1.68-.17-.25-.25-.88-.38-1.24-.14-.39-.27-.84-.43-1.23-.31-.77-.58-1.62-.94-2.32-.79-1.54-1.41-2.84-2.34-4.23-1.72-2.6-3.81-4.94-6.2-6.95-2.17-1.84-5.31-3.79-8.19-4.91-2.92-1.14-6.84-2.3-10.85-2.3h-2.01c-1.65,0-4.44.32-5.76.69-1.69.47-3.46.84-4.93,1.53-.76.35-1.49.63-2.23,1-.71.36-1.42.73-2.09,1.14-.65.4-1.37.81-1.96,1.26-.61.46-1.24.95-1.84,1.39-.95.7-2.56,2.23-3.32,3.14-.48.58-1,1.15-1.5,1.73-.49.59-.95,1.21-1.37,1.86-.44.65-.82,1.29-1.24,1.98-.33.54-.89,1.55-1.11,2.12-.14.35-.34.75-.51,1.11-.17.35-.33.78-.47,1.14-.14.37-.8,2.13-.8,2.46Z" style="fill:#fff; fill-rule:evenodd; stroke-width:0px;"/><path d="m14.17,44.15c0,2.29.25,3.84.55,5.75.14.88.38,1.74.59,2.55.1.41.28.76.38,1.19.12.4.26.8.43,1.19,1.32,3.32,2.61,5.4,4.6,8.03,1.63,2.16,4.29,4.55,6.56,6.07,1.29.86,2.63,1.63,4.02,2.32.7.35,1.47.63,2.22.93.39.16.78.26,1.16.41.31.13.98.24,1.21.4.49,0,1.28.37,1.93.44.23.02.68.15.97.21.34.07.68.1,1.02.17,1.28.22,3.01.29,4.48.29h1.38s.83-.04.83-.04v-.08h.35c1.39,0,4.9-.74,5.94-1.14.88-.33,1.74-.56,2.62-.92.75-.31,1.76-.74,2.42-1.12.76-.45,1.53-.79,2.26-1.28.73-.49,1.39-.93,2.09-1.45,1.44-1.07,2.5-2.14,3.75-3.38,2.01-2,4.51-5.69,5.66-8.54.65-1.64,1.36-3.45,1.74-5.34.39-1.97.75-4,.75-6.37v-.67c0-4.41-1.26-8.86-2.66-11.9-1.55-3.34-3.46-6.21-5.91-8.65-1.29-1.29-2.46-2.24-3.92-3.36-1.13-.87-3.19-2.11-4.58-2.7-.89-.38-1.58-.71-2.55-1.07-.92-.33-1.8-.63-2.78-.88-1-.25-2-.45-3.02-.6-.92-.14-2.29-.35-3.31-.35h-2.44c-1.72,0-5.06.51-6.37.95-.93.31-1.88.51-2.79.87-.9.37-1.74.68-2.57,1.09-3.52,1.76-5.89,3.5-8.53,6.15-4.48,4.48-8.47,11.88-8.47,20.85Z" style="fill:#0072af; fill-rule:evenodd; stroke-width:0px;"/><path d="m36.21,17.04v14.29s.04.59.04.59h-2.91c-.02.65-.08,1.31-.17,1.95-.1.62-.12,1.32-.19,1.97-.06.51-.23,1.41-.23,1.89,0,.67-.19,1.3-.23,1.93-.02.34-.19,1.53-.27,1.85-.06.21-.11.7-.15.92-.06.34-.09.62-.15.95-.2,1.16-.43,2.47-.71,3.58-.14.56-.21,1.22-.4,1.73-.08.22-.15.62-.21.85-.07.26-.21.64-.23.87-.04.4-.36,1.22-.48,1.64-.14.52-.36,1.11-.55,1.62-.36.95-.78,2.17-1.27,3.01-.27.47-.47.96-.76,1.41-.13.2-.89,1.17-.92,1.25-.39,0-1.54-.88-1.97-.98-.05.22-.98,1.56-1.17,1.86-.14.21-1.19,1.78-1.19,1.88,0,.07,3.72,2.19,4.1,2.43.46.29,3.94,2.36,4.14,2.39l1.75-2.5,1.93,1.14c.66-.44,2.55-2.79,3.05-3.56.45-.69.86-1.29,1.3-2.01.2-.33.42-.72.59-1.06.1-.2.2-.35.29-.54.08-.15.2-.45.28-.58.23-.37.89-1.83,1.02-2.28.08-.27.34-.88.46-1.19.16-.39.31-.83.44-1.25.15-.46.26-.8.38-1.27.12-.44.27-.76.36-1.29.12-.71.62-1.99.62-2.72v-.12h.06l.22-1.26v-.2h2.24c.09.51.16,1.02.2,1.53.03.46.22,1.02.27,1.46.13.96.36,1.91.67,2.83.07.18.1.48.17.7.07.21.16.44.22.64.14.45.25.88.42,1.31.34.83.63,1.7,1.02,2.48.84,1.68,1.53,2.94,2.52,4.44.46.7.96,1.36,1.51,1.99.41.45,1.24,1.53,1.68,1.83l2.34-1.28,2.16,3.03v.05s8.18-5.51,8.18-5.51l-2.56-3.74-1.97,1.18c-.51-.34-1.45-1.9-1.77-2.52-.51-1-.86-1.91-1.3-2.99-.41-1-.7-2.17-1.03-3.25-.15-.49-.34-1.17-.45-1.72-.1-.49-.25-1.3-.39-1.77-.33-1.08-.49-2.42-.72-3.57-.24-1.2-.39-2.45-.61-3.68-.06-.32-.06-.63-.12-.94-.05-.28-.11-.71-.14-.92-.09-.64-.11-1.31-.22-1.94-.11-.63-.11-1.35-.2-1.96-.02-.15-.09-.88-.09-.97,0-.19.02-.95-.16-.95h-2.87v-15.03l-4.01-.02-11.89.1Z" style="fill:#fff; fill-rule:evenodd; stroke-width:0px;"/><path d="m37.03,17.83v14.9h-2.95c0,.68-.16,1.19-.16,1.81,0,.42-.15,1.37-.19,1.81-.13,1.21-.28,2.39-.44,3.57-.12.93-.98,6.46-1.22,6.81,0,.51-.3,1.45-.4,2-.1.52-.37,1.32-.51,1.89-.31,1.29-.79,2.43-1.16,3.64-.07.24-.23.61-.33.85-.11.27-.23.58-.36.86-.23.5-.51,1.17-.79,1.61-.33.52-.57.97-.92,1.49-.15.23-.93,1.24-1.16,1.24s-1.5-.87-1.69-.87c-.04,0-.68,1.03-.77,1.16-.08.11-.76,1.16-.76,1.16,0,.17,3.04,1.83,3.41,2.06.39.24,3.29,1.97,3.46,1.98l1.76-2.51,2.05,1.22c.49-.33,1.93-2.22,2.36-2.79.74-1,1.4-2.07,1.98-3.17.53-1.06,1.26-2.37,1.63-3.52.1-.31.26-.6.35-.9.1-.3.22-.65.34-.95.15-.38.51-1.76.64-1.95,0-.22.28-1.13.35-1.38.13-.49.21-.94.33-1.44.1-.41.24-1.06.3-1.47.04-.29.08-.51.12-.75.03-.17,0-.74.17-.74h3.61c0,.56.26,2.54.4,2.99.07.24.23,1.15.27,1.42.08.5.22.92.32,1.38.37,1.81,1.11,3.44,1.73,5.03.57,1.43,1.56,3.17,2.37,4.4.32.49,2.7,3.75,3.02,3.75.09,0,2.18-1.16,2.43-1.29l2.14,3,6.83-4.56-1.68-2.47-1.85,1.11c-.46-.31-1.18-1.22-1.51-1.72-.18-.26-.5-.73-.62-.99-.1-.22-.42-.87-.56-1.09-.34-.55-.7-1.65-.97-2.3-.15-.38-.27-.81-.43-1.18-.13-.3-.25-1.03-.4-1.26v-.16c-.13-.19-.95-3.25-.94-3.62l-.08-.11c0-.34-.28-1.36-.36-1.77-.06-.3-.11-.58-.17-.89-.05-.24-.1-.73-.16-.94-.15-.59-.27-1.19-.33-1.79-.06-.63-.23-1.18-.28-1.89-.01-.16-.12-.66-.17-.9-.05-.29-.07-.62-.12-.94-.11-.65-.15-1.28-.22-1.94-.06-.58-.2-1.31-.23-1.93-.03-.58-.18-1.38-.2-1.97h-3.03v-15.03h-6.1s-8.15.05-8.15.05Z" style="fill:#0072af; fill-rule:evenodd; stroke-width:0px;"/><path d="m37.51,33.21h-3.03v.12c0,.17-.09.73-.11.95-.04.34-.04.67-.09,1.01-.1.64-.16,1.28-.23,1.97-.13,1.2-.34,2.66-.54,3.83-.22,1.27-.38,2.5-.62,3.75-.12.61-.21,1.21-.35,1.82-.09.4-.38,1.47-.37,1.83l-.08.11c0,.58-.69,2.86-.88,3.49-.35,1.2-.67,2.18-1.09,3.28-.36.96-.84,2.19-1.35,3.01-.27.44-1.5,2.46-1.95,2.46h-.04c-.12,0-1.56-.86-1.87-.93l-1.21,1.7,6.09,3.41,1.96-2.56c.34.09,2.07,1.18,2.2,1.18.27,0,2.05-2.26,2.31-2.61.7-.97,1.32-1.99,1.87-3.05.57-1.12,1.03-2.19,1.51-3.41.2-.51,1.2-3.26,1.2-3.72.23-.35,1.34-5.41,1.34-6.18h.39s3.9-.04,3.9-.04c0,.85.26,2.17.4,2.99.07.42.19.96.29,1.4.11.49.25.96.33,1.36.26,1.36,1.13,4,1.68,5.09.19.38.31.79.51,1.18.19.37.41.77.56,1.13.27.63.89,1.56,1.26,2.12.45.67.93,1.32,1.45,1.93.36.42,1.25,1.45,1.66,1.72.16-.11,2.28-1.26,2.32-1.26.08,0,2.03,2.53,2.09,2.75.23,0,2.57-1.56,2.92-1.8.36-.24,2.73-1.81,2.93-1.88l-1.13-1.63c-.36.08-1.91,1.26-2.09,1.26-.37,0-1.68-2.07-1.94-2.46-.4-.59-1.25-2.27-1.48-2.97-.16-.49-.47-1.07-.63-1.57-.17-.55-.36-1.13-.56-1.68-.39-1.14-.72-2.3-.97-3.47-.14-.6-.29-1.16-.41-1.8-.1-.51-.36-1.41-.38-1.87-.02-.43-.24-1.34-.32-1.89-.09-.58-.19-1.35-.31-1.93-.13-.61-.17-1.34-.26-1.94-.1-.67-.11-1.36-.21-2.03-.1-.67-.16-1.34-.19-2.02-.02-.7-.16-1.36-.16-2.08h-2.95v-14.91h-6.34v1.65s.04,1.69.04,1.69h.23c.61,0,1.5.57,1.82.9.31.31.93,1.23.93,1.78v.79c0,.65-.51,1.53-.87,1.84-.28.25-.39.39-.74.6-.25.14-.82.29-.98.38l-.47.05c-.68.08-1.92-.57-2.25-.9-.44-.44-1.09-1.21-1.09-2.06v-.28c0-1.68,1.38-3.15,2.99-3.15h.16v-3.3h-6.77v14.83Z" style="fill:#fff; fill-rule:evenodd; stroke-width:0px;"/><path d="m37.82,33.52h-.51s-2.56-.04-2.56-.04v.12c0,.38-.12.85-.16,1.18-.05.48-.04.81-.13,1.25-.15.71-.12,1.72-.3,2.42-.07.39-.13.78-.16,1.18-.05.43-.13.77-.16,1.22-.05.77-.35,1.62-.35,2.41l-.09.11h.05s-.99,5.09-.99,5.09l-.08.11c0,.44-.31,1.33-.4,1.84-.09.49-.35,1.29-.5,1.78-.37,1.2-.71,2.28-1.13,3.44-.41,1.06-.89,2.09-1.44,3.08-.27.48-.57.94-.9,1.38-.15.2-.96,1.11-1.17,1.11s-1.62-.86-1.77-.86h-.04c-.11,0-.86,1.07-.89,1.19l5.57,3.1c.12-.23,1.91-2.52,1.97-2.52.1,0,1.96,1.05,2.2,1.18.43-.29,1.21-1.31,1.58-1.76.52-.63.92-1.28,1.37-1.97.87-1.32,1.58-2.92,2.24-4.45.68-1.63,1.23-3.31,1.67-5.02.12-.48.22-.85.32-1.33.09-.42.19-.98.31-1.38.1-.36.2-1,.27-1.38.05-.32.23-1.15.23-1.46v-.16h2.64v-3.15c.9-.02,1.53-.48,1.53-1.38v-1.77c0-.27-.09-.63-.35-.63-.2,0-.27.19-.27.39v.59h-.87v-1.89c.15.04.91.68,1.42.86.28.11.58.2.87.27.26.05.19.05.19.36v.59c0,1.59.07,2.97.31,4.3.1.59.23,1.45.28,2,.06.52.25,1.36.36,1.92.12.56.27,1.31.42,1.86.15.55.36,1.28.48,1.84.16.57.36,1.14.6,1.69.09.18.04.24.13.42.06.13.13.29.18.41.11.32.19.51.32.82.22.52.41,1.13.67,1.61.21.39.59,1.17.75,1.57.23.51.5,1.01.79,1.49.31.49.55.95.85,1.43.3.48.59.9.92,1.36.13.18.99,1.27,1,1.32l.02.04,1.16-.55c-.23-.35-.85-.86-1.16-1.27-.35-.48-.72-.89-1.05-1.38s-.65-.96-.96-1.48c-.25-.43-.72-1.16-.88-1.59-.07-.18-.29-.63-.39-.82-.15-.27-.25-.56-.39-.83-.27-.53-.49-1.18-.72-1.76-.48-1.21-.88-2.45-1.21-3.71-.15-.59-.33-1.35-.51-1.93-.19-.63-.28-1.37-.45-2.03-.31-1.24-.5-2.88-.66-4.26-.17-1.46-.12-3.18-.12-4.8,0-1.61-1.68-1.65-3.27-1.65v1.85c-.19.04-1.08.61-1.36.76-.24.12-1.32.5-1.64.5l.05,1.22v.47c0,2.76-.43,4.65-.86,6.89-.19,1.01-.5,2.15-.76,3.13-.24.9-.61,2.1-.96,2.94-.4.94-.75,1.83-1.14,2.75-.36.85-.9,1.76-1.32,2.57-.4.76-2.62,4.37-3.1,4.7l-.98-.59c.24-.36.79-.9,1.11-1.29.38-.46.68-.89,1.04-1.36.63-.81,1.34-2.03,1.82-2.98.57-1.12,1.01-2.06,1.51-3.29.38-.93,1.04-2.59,1.21-3.63.05-.29.22-.57.27-.91.06-.33.14-.65.25-.97.18-.51.31-1.4.42-1.98.26-1.28.53-2.76.59-4.21.01-.34.12-.74.12-1.06,0-.43.03-.82.04-1.18.03-.77,0-1.62,0-2.4,0-1.06.1-1.17.85-1.55.44-.22,1.39-.42,2.02-.42v-.91h-.16c-.7,0-1.38-.18-1.98-.54-.28-.18-1.05-1.08-1.05-1.46v-.47c.03-.1.1-.19.2-.24.28,0,.28.09.43.2,0,.4.43,1.06.66,1.27.39.35.75.46,1.47.46h.43v-.94c-.5,0-.97-.22-1.18-.51-.35-.48-.29-.65-.35-1.38h-.16c-.47,0-2.13.24-2.13-.16v-.08c0-.26.16-.39.43-.39v-.1l4.21-.1v-.83c-1.84,0-3.7-1.6-3.7-3.46v-.12c0-1.72,1.5-3.38,3.15-3.38v-2.71h-6.14v14.83Z" style="fill:#0072af; fill-rule:evenodd; stroke-width:0px;"/><path d="m41.84,24.79v.24c0,1.18,1.29,2.2,2.56,2.2s2.52-1,2.52-2.16v-.28c0-1.26-1.12-2.32-2.36-2.32h-.28c-1.25,0-2.44,1.07-2.44,2.32Z" style="fill:#fff; fill-rule:evenodd; stroke-width:0px;"/><path d="m10.39,24.67h-.11c-.27,0-.54-.35-1.1-.35-.29,0-.38.2-.55.32l-.04.43v.12c0,.18.23.99.28,1.17.05.16.5.7.65.8.35.23,1.44,1.05,1.86,1.05h.63c-.04.16-.49.96-.6,1.17-.09.16-.22.45-.35.55-.13.1-.46.28-.46.45v.2c0,.19.42.47.57.57.12.08.56.57.61.57.52,0,.67-.97.74-1.46.05-.33.07-.67.12-.98.05-.31.16-.6.23-.88.12-.55.35-1.06.69-1.51.2-.26.94-1.01.94-1.31v-.04c0-.24-.36-.51-.59-.51h-.04c-.62,0-.73,1.5-1.34,1.5h-.12c-.16,0-.9-.6-.9-.91v-.43c0-.17.08-.14.08-.31v-.31c0-.2-.16-.35-.35-.35h-.16c-.35,0-.47.47-.68.47Z" style="fill:#0072af; fill-rule:evenodd; stroke-width:0px;"/><path d="m22.91,8.46l-.12,1.14v.59c0,.28.34.74.63.71l.51-.05c0,.33-.2.75-.2,1.1v.9c0,.06,0,.11.04.16-.2.29-.98.63-.98.79v.13c0,.16.37.49.58.46.29-.05.36-.42.53-.54.26.18.21.9.71.9h.08c.36,0,.78-.75,1.73-.75v.39c0,.43-.26.63-.59.71.05.17.53.39.75.39.44,0,.63-.64.63-1.1,0-.37-.13-.51-.16-.83.15-.23.47-.25.47-.55v-.04c0-.27-.45-.28-.75-.28-.1-.18-.16-.38-.16-.59,0-.56,1.06-.5,1.06-.98v-.08c0-.13-.17-.24-.32-.24-.23,0-.77.39-.98.39-.18,0-.3-1.02-.75-1.02h-.16c-.31,0-1.02.57-1.02.87,0,.08.06.15.15.16,0,0,0,0,.01,0h.43c.12,0,.24-.2.39-.2.13,0,.31.52.31.71-.16.04-.16.12-.39.12-.28,0-.39-.12-.55-.12-.08,0-.15.06-.16.14,0,0,0,0,0,.01v.08c0,.06.11.21.11.43l-.55.31c-.05-.07-.08-.15-.08-.24v-.63s.28-1.17.31-1.23c.14-.36.64-.62.64-.89v-.12h-.39c-.28,0-.51.04-.52.3l-.42.21c.16-.24.63-.44.63-.87v-.16c0-.44-.42-.79-.83-.79h-.2c-.22,0-.34.02-.44.16Z" style="fill:#0072af; fill-rule:evenodd; stroke-width:0px;"/><path d="m78.79,45.13v.63c0,.37.41,1.02.65,1.19.33.25.8.54,1.35.54h.59c.43,0,1.04-.31,1.27-.54.23-.23.62-.74.62-1.19v-.71c0-1.05-1.07-1.81-2.16-1.81h-.08c-1.17,0-2.24.79-2.24,1.89Z" style="fill:#0072af; fill-rule:evenodd; stroke-width:0px;"/><path d="m78.2,51.62v.04c0,1.03,1.17,1.85,2.24,1.85h.55c1.01,0,1.73-1.1,1.73-2.2,0-1.21-1.07-2.05-2.24-2.05h-.28c-1.29,0-2.01,1.04-2.01,2.36Z" style="fill:#0072af; fill-rule:evenodd; stroke-width:0px;"/><path d="m29.25,81.24c.47.11,2.22.88,2.43.88h.55c.39,0,.94-.61.94-1.06v-.27c0-.23-.23-.61-.43-.67v-.08c.51-.02.93-.43.95-.94v-.08c0-.78-.62-.97-1.15-1.21-.16-.08-1.67-.63-1.76-.63l-1.54,4.08Z" style="fill:#0072af; fill-rule:evenodd; stroke-width:0px;"/><path d="m62.93,11.25c0,.07.01.13.04.2l-.02.03-.75-.51.03-.04v-.32c-.09-.13-.17-.2-.39-.2-.28,0-1.14.38-1.14.63v.04c0,.23.18.31.32.39.99,0,.94-.08,1.74.26.27.12.49.2.74.33.25.12.57.11.84.22.52.22.97.42,1.33.79.2.2.97.89.97,1.15,0,.06-.02.12-.08.12-.08,0-.13-.05-.23-.08.09.13.8.63.94.63h.08c.25,0,.43-.25.43-.51v-.2c-.1-.04-.49-.51-.66-.64-.16-.13-.76-.41-.76-.54s.41-.26.56-.34c.2-.11.38-.24.56-.38.23-.18.84-.7.84-1.05,0-.59-.7-.77-1.1-.98-.07.04-.16.09-.16.2v.12c.02.25.22.45.47.47-.02.23-.27.46-.47.51-.07-.25-.38-.37-.67-.39v.12c0,.27.1.32.2.47.1,0,.24-.02.24.08,0,.17-.31.24-.51.24,0-.22-.19-.47-.39-.47-.08,0-.15.06-.16.14,0,0,0,0,0,.01,0,.33.19.36.19.61l-.37.21.02.04c-.35-.08-1.01-.67-1.47-.71l.09-.42.31-.05c.31-.05.2.67.59.67h.04c.11,0,.28-.23.28-.31v-.16s-.03-.42-.03-.42l.07-.09h.59c.12-.08.24-.11.24-.31,0-.12-.2-.24-.2-.39,0-.34.91-.12.91-.35v-.27c0-.19-.15-.43-.36-.43s-.32.47-.59.47c-.35,0-.24-.32-.53-.42l.22-.17v-.12c0-.09-.02-.18-.04-.26l-.31-.09c-.05.2-.79,1.34-.93,1.51-.2.22-.37.43-.55.67-.14.18-.39.66-.56.7.01-.17.21-.51.28-.67.08-.19.08-.51.18-.77.2-.51.61-.66.61-1.32v-.04c0-.15.01-.01-.04-.12-.16.04-.82.88-.91,1.06-.08.18-.56,1.3-.56,1.46Z" style="fill:#0072af; fill-rule:evenodd; stroke-width:0px;"/><path d="m7.01,56.94c.01.17.2.59.2.63v.18s.4-.1.4-.1l2.29-.73-2.09,2.5.27.83c.61-.14,1.44-.47,2.07-.68.34-.11.73-.2,1.05-.33.11-.05,1.01-.33,1.01-.37,0-.19-.22-.5-.24-.76l-1.41.48-.15.02-1.11.33c.21-.41,2.09-2.37,2.09-2.56,0-.1-.18-.75-.32-.75h-.04c-.19,0-1.58.55-2,.64-.5.11-1.54.62-2.02.66Z" style="fill:#0072af; fill-rule:evenodd; stroke-width:0px;"/><path d="m51.6,79.17l.51,2.75c-.33-.22-2.16-2.4-2.28-2.4-.32,0-.56.1-.83.16l.83,4.26.84-.13-.52-2.71c.37.25,2.07,2.32,2.24,2.32.25-.02.5-.06.74-.12.18-.08,0-.52-.03-.67-.1-.5-.18-.99-.28-1.49-.09-.45-.22-.97-.28-1.46-.1-.97-.2-.57-.94-.51Z" style="fill:#0072af; fill-rule:evenodd; stroke-width:0px;"/><path d="m11.57,61.26h-.12v.08c-.63,0-1.73,1.09-1.73,1.73v.6c0,.44.4,1.09.61,1.35.37.44.64.58,1.15.85l1.49-.8h.05l-.88-1.7-.68.35.45.9c-.09.03-.38.24-.43.24-.36,0-.98-.73-.98-1.22v-.08c0-.8,1.01-1.5,1.73-1.5.55,0,1.18.57,1.18,1.02v.27c0,.24-.19.42-.28.55.05.07.52.67.55.67.22,0,.55-.66.55-.98v-.43c0-.8-1.06-1.97-1.89-1.97h-.47c-.17,0-.14.08-.31.08Z" style="fill:#0072af; fill-rule:evenodd; stroke-width:0px;"/><path d="m43.05,6.73c-.09-.07-.09-.16-.24-.16-.45,0-.55,1.73-.55,2.28v.87c0,.18.17.55.27.55.26,0,.55-.49.55-.71l.02-.08-.22-2.08c-.02-.17.06-.31.08-.47.53-.01.52-.29.83-.32v.16c0,.35-.39.5-.39.98l.04.03.71-.78c0-.27-.02-.55.24-.55h.36l-.05.51v.04c0,.08.1.16.12.35.06.03.13.04.2.04h.2c.2,0,.43-.08.43-.28.02-.18-.08-.35-.24-.43h-.32c-.05-.07-.08-.07-.08-.16v-.15c0-.17.54-.24.75-.24.27,0,.39.66.39.98v1.38l-.18,1.14.03.04-.71.2v-.04c.13.09.34.07.45.2.1.12.08.31.36.31h.35c.71,0,.58-.32.67-.9.06-.5.08-1,.07-1.5,0-.94-.17-2.44-1.02-2.44h-.11c-.16,0-.61.19-.8.26-.36.13-.55.08-.88.18-.26.07-.52.17-.75.31-.31.18-.37.31-.6.46Z" style="fill:#0072af; fill-rule:evenodd; stroke-width:0px;"/><path d="m42.54,24.51v.47c0,.78.9,1.53,1.65,1.53h.39c.8,0,1.65-.81,1.65-1.65,0-.89-.83-1.69-1.65-1.69h-.35c-.4.01-.78.15-1.09.41-.18.14-.61.68-.61.93Z" style="fill:#0072af; fill-rule:evenodd; stroke-width:0px;"/><path d="m6.81,51.7h.11l.28,1.65c.02.09-.78.56-.91.59l.17.97,4.02-2.42-.18-.95-4.56-.93c0,.09.13.9.15.92.02.02.87.19.92.19Z" style="fill:#0072af; fill-rule:evenodd; stroke-width:0px;"/><path d="m16.17,72.48l.71.63c.15-.07.81-.47.91-.47.07,0,1.3,1.05,1.3,1.14s-.31.76-.31.94c.23.22.46.43.71.63.12-.24,1.5-4.33,1.5-4.41s-.67-.63-.67-.63c-.03,0-1.9.98-2.07,1.08-.25.15-1.9,1.05-2.07,1.09Z" style="fill:#0072af; fill-rule:evenodd; stroke-width:0px;"/><path d="m54.24,78.43l1.49,4.09c.59-.14,1.26-.5,1.87-.68.31-.1.61-.21.91-.35.23-.12.39,0,.29-.26-.06-.16-.15-.3-.16-.53l-.42.11-1.92.68-.37-1.08,2.03-.73-.27-.71-2.08.71-.31-.89.04.03,2.17-.8-.26-.66v-.04s-3.03,1.12-3.03,1.12Z" style="fill:#0072af; fill-rule:evenodd; stroke-width:0px;"/><path d="m59.31,77v.19c0,.52.59,1.02,1.14,1.02h.16c.53,0,1.04-.27,1.61-.27.19,0,.39.22.39.43,0,.44-.57.83-.98.83h-.16c-.31,0-.57-.39-.63-.39-.13,0-.51.34-.71.39.03.34.73.83,1.14.83h.2c.83,0,2.01-.8,2.01-1.65v-.08c0-.62-.57-1.26-1.18-1.26h-.24c-.51,0-.98.28-1.54.28h-.08c-.16.01-.3-.11-.32-.28,0-.01,0-.03,0-.04v-.04c0-.31.61-.67.91-.67h.04c.25,0,.41.22.55.32l.75-.39c-.08-.29-.57-.71-.91-.71h-.43c-.62,0-1.73.79-1.73,1.5Z" style="fill:#0072af; fill-rule:evenodd; stroke-width:0px;"/><path d="m5.43,45.06v.85h.39s1.53-.04,1.53-.04l.05,1.06v.63h-.2s-1.49.08-1.49.08h-.16v.87h.87s3.46-.16,3.46-.16v-.87l-1.71.05-.06-1.58v-.11l1.69-.05v-.91l-4.37.18Z" style="fill:#0072af; fill-rule:evenodd; stroke-width:0px;"/><path d="m5.55,41.12v.12c0,.98.41,1.61,1.38,1.61h.12c1.3,0,1.2-2.36,1.89-2.36.26,0,.39.36.39.59,0,.46-.2.91-.63.91h-.12v.91c.9,0,1.46-.64,1.46-1.5v-.55c0-.64-.53-1.22-1.14-1.22-1.55,0-1.27,2.32-2.01,2.32h-.08c-.26,0-.51-.31-.51-.55v-.24c0-.59.32-.94.91-.94v-.87h-.16c-.96,0-1.5.79-1.5,1.77Z" style="fill:#0072af; fill-rule:evenodd; stroke-width:0px;"/><path d="m41.05,80.86v.2c0,1.42,2.4,1.15,2.4,1.85v.2c0,.23-.45.43-.71.43h-.12s-.43-.04-.43-.04c-.08-.21-.47-.14-.47-.84l-.91.05c0,.94.72,1.57,1.69,1.57h.55c.67,0,1.3-.62,1.3-1.34v-.12c0-1.42-2.44-1.26-2.44-1.81v-.12c0-.26.34-.39.59-.39h.04c.51,0,.83.2.87.67h.87v-.24c0-.68-.77-1.14-1.5-1.14h-.43c-.62,0-1.29.49-1.29,1.06Z" style="fill:#0072af; fill-rule:evenodd; stroke-width:0px;"/><path d="m12.42,68.28c.18.23.37.45.57.65.13,0,1.29-1.12,1.48-1.17l1.06,1.31-1.42,1.18h-.04l.59.7,3.34-2.77-.53-.65v-.04s-1.36,1.09-1.36,1.09l-1.08-1.3,1.31-1.1-.54-.65v-.05l-3.38,2.8Z" style="fill:#0072af; fill-rule:evenodd; stroke-width:0px;"/><path d="m71.82,67.05v.04c0,.58.57,1.02,1.18,1.02.88,0,1.52-1.14,2.05-1.14h.16c.18,0,.32.27.32.47v.16c0,.31-.51.87-.83.87h-.23c-.18,0-.23-.12-.36-.12-.05,0-.43.62-.43.67,0,.16.53.32.71.32h.39c.64,0,1.61-1.26,1.61-1.93v-.12c0-.57-.65-1.26-1.18-1.26h-.12c-.9,0-1.68,1.22-2.16,1.22h-.04c-.14-.03-.25-.14-.28-.27v-.12c0-.33.46-.91.71-.91h.04c.16,0,.31.04.46.09l.45-.68c-.15-.17-.36-.27-.59-.28h-.2c-.85,0-1.67,1.1-1.67,1.97Z" style="fill:#0072af; fill-rule:evenodd; stroke-width:0px;"/><path d="m63.84,74.29v.35c0,.41.57.94.98.94h.16c.61,0,1.34-.47,1.73-.47h.2c.21.01.36.19.35.39v.12c0,.36-.56.79-.94.79-.47,0-.49-.14-.75-.31-.07.05-.63.51-.63.55,0,.2.78.63,1.06.63.9,0,2.13-.85,2.13-1.69v-.24c0-.54-.64-1.18-1.14-1.18h-.16c-.4,0-1.46.51-1.61.51h-.35c-.13,0-.24-.17-.24-.32v-.04c0-.29.55-.71.94-.71h.04c.17,0,.33.1.41.26l.73-.57c-.14-.2-.53-.51-.87-.51h-.28c-.66,0-1.77.85-1.77,1.5Z" style="fill:#0072af; fill-rule:evenodd; stroke-width:0px;"/><path d="m77.23,55.6l1.61.55-.52,1.63-1.63-.52-.29.82,4.17,1.33.28-.85h-.05s-1.78-.53-1.78-.53l.52-1.65.7.23,1.15.33.23-.81-2.59-.88-.15-.02-1.4-.44-.25.82Z" style="fill:#0072af; fill-rule:evenodd; stroke-width:0px;"/><path d="m35.26,81.92v.47c0,.33.38.75.6.9.2.13.87.36,1.17.36h.39c.92,0,1.16-.85,1.35-1.6.1-.43.46-2.09.46-2.48l-.75-.13h-.1l-.52,2.67c-.12.17-.19.75-.55.75h-.24c-.47,0-.91-.24-.91-.71v-.16c0-.44.2-1.03.27-1.46.06-.39.28-1.2.28-1.48l-.86-.12c-.11.48-.18.97-.3,1.47-.07.3-.3,1.28-.3,1.52Z" style="fill:#0072af; fill-rule:evenodd; stroke-width:0px;"/><path d="m43.37,2.64v.04c0,.15.98.76.98.98,0,.12-.98.41-1.17.44-.32.06-.43,0-.71-.01-.35-.02-.47.08-.75.08-.06.1-.24.17-.24.31v.24c0,.18.44.47.71.47h.08c.54,0,.51-.12.8-.34s.45-.2.8-.34c.44-.18,1.24-.46,1.83-.46h.14s-1.17,1.61-1.17,1.61h.12c.15,0,.33-.36.46-.48.13-.12.49-.2.56-.38.36,0,.83-.19.83-.51v-.04c0-.14-.2-.21-.27-.33l.67.1h.43c.67,0,.63-1.06-.04-1.06h-.35c-.26.05-.51.13-.75.24-.35,0-.79.31-1.02.2.04-.17.08-.07.08-.2v-.08c0-.31-.56-.75-.87-.75h-.67c-.14,0-.48.11-.48.27Z" style="fill:#0072af; fill-rule:evenodd; stroke-width:0px;"/><path d="m74.74,62.05v.35c0,.97,1.42,2.01,2.4,2.01h.24c1.01,0,1.85-1.01,1.85-2.05,0-.43-.48-1.3-.71-1.3-.07,0-.59.58-.59.59,0,.17.47.34.47.91v.08c0,.41-.49.91-.87.91h-.24c-.52,0-1.77-.7-1.77-1.26v-.2c0-.56.36-.94.94-.94h.2l.19-.91h-.55c-.78,0-1.57,1.03-1.57,1.81Z" style="fill:#0072af; fill-rule:evenodd; stroke-width:0px;"/><path d="m77.92,22.51v.31c0,.29.75.34.91.55-1.04,0-1.96.94-2.44.94h-.04c-.16,0-.24-.26-.24-.43v-.12c0-.19,1.26-.2,1.26-.75v-.04c0-.09-.03-.12-.12-.12-.56,0-1.88.5-2.33.7-.37.16-.74.3-1.09.45-.31.13-.91.04-.91.63v.04c0,.13.07.28.2.28h.08c.34,0,.94-.47,1.32-.65.18-.09.21-.03.41-.07.12-.04.24-.1.35-.16.17-.08.53-.26.71-.26l.05.2c-.15.22-.51.22-.51.59,0,.22.56.39.83.39h.16c.19,0,1.07-.63,1.24-.76.66-.5.62-.38,1.59-.38.05-.07.08-.07.08-.16v-.24s-.54-.73-.61-.77c-.15-.11-.27-.16-.41-.26-.18-.14-.15-.33-.33-.38-.01.23-.15.27-.15.47Z" style="fill:#0072af; fill-rule:evenodd; stroke-width:0px;"/><path d="m79.54,45.29v.12c0,.61.57,1.14,1.18,1.14h.51c.74,0,1.3-.41,1.3-1.14v-.12c0-.62-.62-1.1-1.22-1.1h-.63c-.55,0-1.14.54-1.14,1.1Z" style="fill:#fff; fill-rule:evenodd; stroke-width:0px;"/><path d="m78.99,51.27v.28c0,.19.21.52.32.62.21.2.41.22.62.36.28,0,.33.08.59.08h.2c.71,0,1.22-.4,1.22-1.1v-.28c0-.51-.74-.98-1.34-.98v-.08h-.51c-.61,0-1.1.5-1.1,1.1Z" style="fill:#fff; fill-rule:evenodd; stroke-width:0px;"/><path d="m20.62,13.18c0,.39.72.67.84.81.22.3.17.91.33,1.32.31.8.9,1.36,1.98,1.36h.35c.21,0,.38-.15.39-.35v-.2c0-.63-.79-.71-1.3-.87-.48-.15-1.3-.21-1.3-.86,0-.39.75-.34.75-.83v-.08c0-.31-.81-.9-1.22-.9h-.16c-.32,0-.67.28-.67.59Z" style="fill:#0072af; fill-rule:evenodd; stroke-width:0px;"/><path d="m81.86,37.97v.15s.28,2.02.28,2.02l-3.51.5.12.9h.2c.09,0,.09-.03.16-.05l3.94-.58-.48-3.03-.71.09Z" style="fill:#0072af; fill-rule:evenodd; stroke-width:0px;"/><path d="m64.74,13.57c0,.06-.02.12-.08.12-.35,0-.6-.04-.91-.04-.46,0-.58.32-.63.32-.31,0-1.29-.75-1.81-.75v.31c0,.48.55.29.92.42.26.09.85.23.85.53,0,.37-.68.94-.98.94-.35,0-.47-.25-.63-.43v.16c-.11,0-.16,0-.16.12v.08c0,.36.32.79.67.79h.24c.6,0,1.19-.93,1.3-1.42.66.05.41.83.75.83.16,0,.47-.22.47-.35v-.12c0-.2-1.14-.73-1.14-.94.01-.1.09-.19.2-.2h.23c.37,0,.38.16.67.16h.32c.2,0,.35-.16.35-.35v-.12c0-.33-.99-.62-1.29-.76-.17-.08-1.39-.62-1.47-.62h-.15c0,.23.06.15.08.36.02.24,0,.2.28.2.48,0,.43.02.78.13.13.04,1.15.6,1.15.66Z" style="fill:#0072af; fill-rule:evenodd; stroke-width:0px;"/><path d="m42.54,38.56v.55c0,1.13.27,2.05,1.42,2.05h.59v-.67h.23c.34,0,.63-.48.63-.83v-.47h-.91v1.26h-.47c-.64,0-.87-.57-.87-1.22v-.12h1.34v-.71h-1.34v-.67c0-.13-.07-.28-.2-.28h-.12c-.3,0-.32.76-.32,1.1Z" style="fill:#fff; fill-rule:evenodd; stroke-width:0px;"/><path d="m44.55,29.28v.7h.87v.43c0,.43-.34.78-.76.79,0,0-.02,0-.02,0h-.12v.75c.81-.19,1.61-.56,1.61-1.53v-.43h1.73c.2,0,.75-.1.75-.31v-.16c0-.13-.19-.22-.28-.27l-.47-.04h-.39s-2.91.09-2.91.09Z" style="fill:#0072af; fill-rule:evenodd; stroke-width:0px;"/><path d="m74.7,28.49v.35c0,.57.27,1.19.49,1.56.16.28.75.96,1.13.96h.08c.44,0,.81-.28,1.02-.52.14-.16.56-.78.56-1.01-.37.03-.68.67-1.38.67h-.04c-.44,0-1.18-1.18-1.18-1.81,0-.66.75-.6.87-1.02-.66,0-1.54.2-1.54.82Z" style="fill:#0072af; fill-rule:evenodd; stroke-width:0px;"/><path d="m46.52,83.73v.44l.35-.04h.54l-.27-4.37h-.28c-.58,0-.71-.04-.61.57.06.34.02.79.08,1.14.06.35.02.79.08,1.14.06.37.09.75.1,1.13Z" style="fill:#0072af; fill-rule:evenodd; stroke-width:0px;"/><path d="m21.05,76.45l.73.55v-.05s2.52-3.5,2.52-3.5l-.74-.51-2.5,3.51Z" style="fill:#0072af; fill-rule:evenodd; stroke-width:0px;"/><path d="m77.26,24.75v.08c0,.48.38.45.66.68.26.2.5.42.73.65.29.32,1.01,1.21,1.05,1.72l-.35-.1v-.08h.12c-.04-.15-.2-.2-.39-.2h-.04c-.06,0-.12.02-.12.08,0,.27.78.94,1.18.94h.16c.19,0,.51-.22.51-.39v-.04c0-.33-.39-.48-.6-.66-.23-.19-.43-.42-.6-.66-.18-.24-1.05-1.25-1.05-1.47,0-.15.08-.2.08-.24,0-.27-.64-.51-.94-.51h-.2c-.1.01-.18.09-.19.2Z" style="fill:#0072af; fill-rule:evenodd; stroke-width:0px;"/><path d="m45.34,32.82l-.48.04h-.35v.79c.75,0,1.48-.21,2.13-.59.44-.27.95-1.08.95-1.77v-.32c0-.24-.03-.43-.28-.43h-.08c-.43,0-.19,1.06-.6,1.49-.16.18-.33.35-.52.5-.28.19-.56.16-.76.3Z" style="fill:#0072af; fill-rule:evenodd; stroke-width:0px;"/><path d="m41.48,36.32v.51c0,.07.01.13.04.2.6-.01,1.14-.27,1.52-.53.29-.2.83-.79.84-1.2h-.12c-.08,0-1.36.18-1.45.2-.5.16-.83.13-.83.82Z" style="fill:#0072af; fill-rule:evenodd; stroke-width:0px;"/><path d="m46.95,36.95h.16v-.71c0-.9-1.29-.91-2.2-.91h-.24c.06.71,1.52,1.62,2.28,1.62Z" style="fill:#fff; fill-rule:evenodd; stroke-width:0px;"/><path d="m75.84,26.01v.16c0,.68.63.71.67,1.14l-.03.03-.32-.35c-.37,0-1.75-.68-1.81-.9l.11-.03-.31-.17-.43-.04c-.08,0,0,0-.08.04.27.4,2.44,1.46,3.03,1.85.51,0,.73.35,1.02.35h.23v-.2c0-.34-.28-.35-.48-.51-.19-.15-.37-.32-.53-.49-.17-.16-.32-.33-.47-.52-.07-.11-.31-.61-.41-.61s-.2.16-.2.24Z" style="fill:#0072af; fill-rule:evenodd; stroke-width:0px;"/><path d="m20.43,10.47v.04c0,.28.75,1.18,1.02,1.18s.95-.35.95-.55v-.12c0-.58-.61-1.02-1.22-1.02-.26,0-.75.26-.75.47Z" style="fill:#0072af; fill-rule:evenodd; stroke-width:0px;"/><path d="m30.35,80.85c.38.09,1.06.48,1.45.48.27-.02.49-.24.51-.51v-.12c0-.41-1.23-.9-1.56-.9l-.39,1.04Z" style="fill:#fff; fill-rule:evenodd; stroke-width:0px;"/><path d="m44,7.99c-.15,0-.07-.03-.24-.04-.06.04-.12.05-.12.16v.47c0,.24.21.66.51.67l.04-.79c.22-.32.6-.2.63-.55h.08c0,.4-.43.73-.43.91v.12c0,.08.06.15.15.16,0,0,0,0,.01,0h.39c.38,0,.58-.55.31-.55h-.2c.02-.3.24-.14.24-.35v-.2c0-.19-.11-.35-.32-.35h-.04s-.57.35-1.03.35Z" style="fill:#0072af; fill-rule:evenodd; stroke-width:0px;"/><path d="m42.98,30.26c0,.57.06.6.39.82l.87.05h.28v-1.14h-1.54v.28Z" style="fill:#0072af; fill-rule:evenodd; stroke-width:0px;"/><path d="m79.62,25.85v.55c0,.09.16.31.28.31h.28c.23,0,.63-.61.63-.83v-.28c0-.26-.39-.75-.59-.75h-.16c0,.32-.43.88-.43.98Z" style="fill:#0072af; fill-rule:evenodd; stroke-width:0px;"/><path d="m31.03,79.08c.33.08.98.44,1.28.44.2,0,.47-.16.47-.39v-.16c0-.28-.36-.43-.58-.53-.12-.05-.76-.28-.85-.31l-.33.94Z" style="fill:#fff; fill-rule:evenodd; stroke-width:0px;"/><path d="m25.54,12.43c0,.12.08.1.08.28v.04c0,.2-.14.55-.31.55h-.12c-.2,0-.35-.35-.47-.35h-.04c-.13,0-.22.15-.27.24l-.05.63c.07.07.17.12.28.12h.2s.63-.36.76-.42c.23-.11.62-.25.62-.56v-.04c0-.15-.21-.71-.28-.71-.15,0-.39.12-.39.24Z" style="fill:#fff; fill-rule:evenodd; stroke-width:0px;"/><path d="m7.9,53c.17-.04,1.36-.73,1.39-.84l-1.58-.29.19,1.14Z" style="fill:#fff; fill-rule:evenodd; stroke-width:0px;"/><path d="m18.5,72.21l.89.74.56-1.54-1.44.81Z" style="fill:#fff; fill-rule:evenodd; stroke-width:0px;"/><path d="m42.98,5.23v.04c0,.27.32.43.59.43h.08c.32,0,.32-.22.45-.42.11-.17.33-.22.46-.41-.27,0-.23.12-.43.12h-.16c-.39,0-.98-.37-.98.23Z" style="fill:#0072af; fill-rule:evenodd; stroke-width:0px;"/><path d="m77.42,26.17l.04.63c.13.2.5.59.83.59v-.28c0-.38-.49-1.06-.79-1.06-.05,0-.09.05-.08.12Z" style="fill:#0072af; fill-rule:evenodd; stroke-width:0px;"/><path d="m68.91,80.31l-.04.04-.04.04v.04h.16l.04-.04v-.08l-.04-.04h-.04l-.04.04Z" style="fill:#fff; fill-rule:evenodd; stroke-width:0px;"/><path d="m81.51,67.09h.12v.12h-.12v-.12Z" style="fill:#fff; stroke-width:0px;"/><path d="m8.89,70.71v.04l.04.04h.04l.04-.04v-.04l-.04-.04h-.04l-.04.04Z" style="fill:#fff; fill-rule:evenodd; stroke-width:0px;"/><path d="m77.92,15.9v.04h.12v-.04l-.04-.04h-.04l-.04.04Z" style="fill:#fff; fill-rule:evenodd; stroke-width:0px;"/><path d="m73.12,10.82v.04l.04.04h.04v-.12h-.04l-.04.04Z" style="fill:#fff; fill-rule:evenodd; stroke-width:0px;"/><path d="m23.61,83.14h.04l.04-.04v-.04h-.12v.04l.04.04Z" style="fill:#fff; fill-rule:evenodd; stroke-width:0px;"/><path d="m73.99,11.65v.04l.04.04h.04v-.12h-.04l-.04.04Z" style="fill:#fff; fill-rule:evenodd; stroke-width:0px;"/><path d="m86.39,56.15h.04v.04h-.04v-.04Z" style="fill:#fff; stroke-width:0px;"/><path d="m11.77,74.17h.04v.04h-.04v-.04Z" style="fill:#fff; stroke-width:0px;"/><path d="m2.52,58.94h.04v.04h-.04v-.04Z" style="fill:#fff; stroke-width:0px;"/><path d="m15.15,77.28h.04v.04h-.04v-.04Z" style="fill:#fff; stroke-width:0px;"/><path d="m16.84,78.69h.04v.04h-.04v-.04Z" style="fill:#fff; stroke-width:0px;"/><path d="m74.85,12.51h.04v.04h-.04v-.04Z" style="fill:#fff; stroke-width:0px;"/><path d="m68.09,80.9h.04v.04h-.04v-.04Z" style="fill:#fff; stroke-width:0px;"/><path d="m67.46,6.57h.04v.04h-.04v-.04Z" style="fill:#fff; stroke-width:0px;"/><path d="m20.78,81.45h.04v.04h-.04v-.04Z" style="fill:#fff; stroke-width:0px;"/><path d="m66.63,6.02h.04v.04h-.04v-.04Z" style="fill:#fff; stroke-width:0px;"/><path d="m5.9,66.3h.04v.04h-.04v-.04Z" style="fill:#fff; stroke-width:0px;"/><path d="m6.14,21.25h.04v.04h-.04v-.04Z" style="fill:#fff; stroke-width:0px;"/><path d="m80.76,19.63h.04v.04h-.04v-.04Z" style="fill:#fff; stroke-width:0px;"/><path d="m30.15,2.12h.04v.04h-.04v-.04Z" style="fill:#fff; stroke-width:0px;"/><path d="m9.8,16.17h.04v.04h-.04v-.04Z" style="fill:#fff; stroke-width:0px;"/><path d="m61.91,84.32h.04v.04h-.04v-.04Z" style="fill:#fff; stroke-width:0px;"/><path d="m77.69,15.38h.04v.04h-.04v-.04Z" style="fill:#fff; stroke-width:0px;"/><path d="m77.1,14.75h.04v.04h-.04v-.04Z" style="fill:#fff; stroke-width:0px;"/><path d="m2.79,59.81h.04v.04h-.04v-.04Z" style="fill:#fff; stroke-width:0px;"/><path d="m10.9,14.75h.04v.04h-.04v-.04Z" style="fill:#fff; stroke-width:0px;"/><path d="m16.84,9.17h.04v.04h-.04v-.04Z" style="fill:#fff; stroke-width:0px;"/><path d="m70.64,8.85h.04v.04h-.04v-.04Z" style="fill:#fff; stroke-width:0px;"/><path d="m3.07,27.5h.04v.04h-.04v-.04Z" style="fill:#fff; stroke-width:0px;"/><path d="m64.15,83.14h.04v.04h-.04v-.04Z" style="fill:#fff; stroke-width:0px;"/></g></svg>