<svg xmlns="http://www.w3.org/2000/svg" xmlns:xlink="http://www.w3.org/1999/xlink" width="151.843994140625" height="151.843994140625" viewBox="0 0 151.843994140625 151.843994140625" fill="none">
<path d="M151.844 75.922C151.844 117.845 117.846 151.844 75.922 151.844C33.9984 151.844 0 117.845 0 75.922C0 33.9985 33.9987 0 75.922 0C117.845 0 151.844 33.9987 151.844 75.922ZM150.301 75.9254C150.301 34.8502 116.99 1.5395 75.9152 1.5395C34.8401 1.5395 1.5293 34.8502 1.5293 75.9254C1.5293 117.001 34.84 150.311 75.9152 150.311C116.99 150.311 150.301 117.001 150.301 75.9254Z" fill-rule="evenodd"  fill="#007D3C" >
</path>
<path d="M148.296 75.9254C148.296 115.89 115.886 148.3 75.922 148.3C35.9575 148.3 3.5475 115.89 3.5475 75.9254C3.5475 35.9609 35.9575 3.5509 75.922 3.5509C115.886 3.5509 148.296 35.9608 148.296 75.9254ZM147.652 75.9254C147.652 36.314 115.53 4.1907 75.9186 4.1907C36.3073 4.1907 4.1839 36.314 4.1839 75.9254C4.1839 115.537 36.3073 147.66 75.9186 147.66C115.53 147.66 147.652 115.537 147.652 75.9254Z" fill-rule="evenodd"  fill="#007D3C" >
</path>
<path d="M123.447 75.9254C123.447 102.17 102.163 123.453 75.9186 123.453C49.6743 123.453 28.3907 102.17 28.3907 75.9254C28.3907 49.6809 49.674 28.3974 75.9186 28.3974C102.163 28.3974 123.447 49.6808 123.447 75.9254ZM122.831 75.9254C122.831 50.0229 101.824 29.0168 75.922 29.0168C50.0196 29.0168 29.0134 50.0229 29.0134 75.9254C29.0134 101.828 50.0196 122.834 75.922 122.834C101.824 122.834 122.831 101.828 122.831 75.9254Z" fill-rule="evenodd"  fill="#007D3C" >
</path>
<path d="M19.7801 48.0923C19.8348 48.1149 19.8632 48.147 19.8657 48.1881C19.9114 49.1346 19.9692 50.0788 20.0401 51.0205C20.0401 51.0366 20.0593 51.0755 20.0982 51.137C20.137 51.1985 20.1634 51.2339 20.1767 51.243C20.9934 51.7198 21.8168 52.1849 22.6468 52.6388C22.6834 52.6592 22.6993 52.7062 22.6947 52.7791C22.6902 52.8406 22.6686 52.8783 22.6298 52.8919C21.7448 53.2272 20.8644 53.5739 19.9888 53.9319C19.9749 53.9387 19.9443 53.9693 19.8964 54.0243C19.8485 54.0813 19.8232 54.1165 19.8212 54.1304C19.6205 55.0561 19.4323 55.9845 19.2566 56.9151C19.2475 56.9562 19.2075 56.9846 19.137 57.0007C19.0774 57.0166 19.0355 57.0072 19.0102 56.9732C18.4172 56.2342 17.8152 55.5043 17.204 54.7837C17.1949 54.7724 17.1561 54.7528 17.0878 54.7256C17.0192 54.6981 16.9784 54.6845 16.9645 54.6845C16.0225 54.7803 15.082 54.8886 14.1423 55.0097C14.1012 55.0142 14.0612 54.9844 14.0224 54.9207C13.9907 54.8705 13.9861 54.8282 14.0088 54.7939C14.529 54.0025 15.0375 53.2043 15.5344 52.3992C15.5415 52.3856 15.5483 52.3423 15.5551 52.2694C15.5596 52.1963 15.5585 52.1529 15.5517 52.1393C15.1733 51.2725 14.781 50.4116 14.3747 49.5564C14.3566 49.5201 14.3716 49.473 14.4193 49.4161C14.4581 49.3681 14.4981 49.35 14.5392 49.3613C15.4513 49.6122 16.3672 49.8495 17.2862 50.0728C17.2998 50.0777 17.3432 50.0709 17.416 50.0524C17.4869 50.0343 17.528 50.0207 17.5393 50.0113C18.2463 49.382 18.9431 48.7423 19.6296 48.0923C19.6614 48.0648 19.7115 48.0648 19.7801 48.0923Z" fill-rule="evenodd"  fill="#007D3C" >
</path>
<path d="M134.421 50.0558C134.492 50.072 134.534 50.0788 134.548 50.0765C135.467 49.8529 136.382 49.6159 137.295 49.365C137.333 49.3557 137.376 49.3786 137.425 49.4333C137.463 49.4812 137.473 49.5232 137.455 49.5598C137.052 50.415 136.659 51.275 136.278 52.1393C136.272 52.1529 136.272 52.1963 136.278 52.2694C136.283 52.3423 136.289 52.3856 136.296 52.3992C136.793 53.202 137.301 53.9991 137.821 54.7905C137.844 54.8248 137.835 54.8739 137.794 54.9377C137.762 54.9878 137.725 55.0108 137.685 55.006C136.747 54.8852 135.809 54.7769 134.869 54.6811C134.853 54.6811 134.811 54.6947 134.743 54.7222C134.676 54.7494 134.639 54.769 134.629 54.7803C134.018 55.5009 133.416 56.2297 132.823 56.9664C132.798 56.9982 132.749 57.005 132.676 56.9868C132.619 56.9732 132.586 56.9457 132.577 56.9049C132.404 55.9766 132.217 55.0505 132.016 54.1269C132.011 54.1108 131.986 54.0756 131.941 54.0209C131.893 53.9637 131.862 53.9331 131.848 53.9285C130.975 53.5682 130.096 53.2216 129.211 52.8885C129.172 52.8749 129.15 52.8304 129.146 52.755C129.141 52.6957 129.157 52.6558 129.194 52.6354C130.024 52.1815 130.846 51.7161 131.66 51.2396C131.674 51.2328 131.7 51.1985 131.739 51.137C131.778 51.0755 131.798 51.0366 131.8 51.0205C131.871 50.0785 131.928 49.1357 131.971 48.1915C131.974 48.1504 132.009 48.1149 132.077 48.0855C132.134 48.0648 132.178 48.0685 132.208 48.0957C132.894 48.7457 133.591 49.3843 134.298 50.0113C134.309 50.0227 134.35 50.0377 134.421 50.0558Z" fill-rule="evenodd"  fill="#007D3C" >
</path>
<path d="M116.765 75.9254C116.765 98.4804 98.4736 116.772 75.9186 116.772C53.3636 116.772 35.0719 98.4804 35.0719 75.9254C35.0719 53.3704 53.3636 35.0787 75.9186 35.0787C98.4736 35.0787 116.765 53.3704 116.765 75.9254ZM91.2685 85.1655C91.1089 83.8862 91.0599 82.5349 91.1214 81.1116C91.2994 76.9952 91.6906 72.2846 92.2949 66.9795C92.3085 66.8585 92.3723 66.7811 92.4865 66.7468C92.6756 66.6898 92.8627 66.6569 93.0475 66.6476C93.2346 66.6385 93.4753 66.5747 93.7692 66.4562C94.3282 66.2326 95.8116 65.6988 98.2199 64.8552C98.473 64.7662 98.5714 64.5859 98.5141 64.3147C98.5119 64.303 98.4776 64.2634 98.4115 64.1948C98.138 63.9121 97.8162 63.8379 97.4469 63.9725C97.0183 64.1276 96.603 64.2566 96.2016 64.3589C95.9028 64.4343 95.4558 64.6052 94.8605 64.8722C94.1513 65.1892 93.378 65.277 92.541 65.1356C92.4857 65.1274 92.4449 65.08 92.4449 65.0239C92.4449 65.0202 92.4449 65.0162 92.4451 65.0126L93.3519 55.5329C93.3522 55.529 93.3525 55.525 93.3525 55.521C93.3525 55.455 93.2989 55.4014 93.2329 55.4014C93.2147 55.4014 93.1972 55.4054 93.181 55.4133L86.2191 58.8546C86.0967 58.9155 86.0187 59.0368 86.0139 59.1721L85.6822 67.3353C85.6763 67.496 85.574 67.6437 85.4209 67.706L79.7363 69.9318C79.7233 69.9369 79.7091 69.9397 79.6949 69.9397C79.6328 69.9397 79.5821 69.8893 79.5821 69.8269C79.5821 69.8244 79.5824 69.8215 79.5824 69.819L80.9577 46.2517C80.9583 46.2387 80.9572 46.2276 80.9546 46.2169C80.9393 46.1505 80.8747 46.1086 80.8103 46.1236C80.799 46.1262 80.7882 46.1304 80.778 46.1364L73.1715 50.1791C73.0556 50.2404 72.981 50.3591 72.9768 50.4904L72.0255 73.743C72.0184 73.9184 71.9186 74.0758 71.7641 74.1577L66.1824 77.1227C66.1785 77.125 66.1731 77.1273 66.1677 77.1287C66.1348 77.1369 66.1008 77.1154 66.092 77.0805C66.0909 77.0757 66.0903 77.0706 66.09 77.0655L66.7264 58.1125C66.7309 57.9755 66.6751 57.9412 66.5586 58.0098L59.3164 62.1901C59.15 62.2859 59.0689 62.4296 59.0737 62.6212C59.2081 68.7197 59.3189 75.0018 59.4054 81.4674C59.4156 82.0559 59.2171 82.2234 58.7931 82.5828C55.9423 84.9934 53.331 87.7096 50.959 90.7316C49.2485 92.912 48.0158 95.1857 47.2609 97.5532C46.709 99.2817 46.686 101.008 47.1926 102.732C47.628 104.219 48.6303 105.154 50.1996 105.537C58.0643 107.46 63.237 97.9361 64.8105 91.6724C65.3193 89.6538 65.6419 87.3311 65.7788 84.7037C65.8859 82.6236 65.9474 81.4413 65.9636 81.1561C65.9772 80.9132 66.1104 80.7018 66.3162 80.5875L71.6218 77.523C71.6425 77.5114 71.6644 77.5034 71.687 77.4989C71.8018 77.4765 71.913 77.5502 71.9351 77.6633C71.9393 77.686 71.9399 77.7095 71.9365 77.7325C71.9045 77.9692 71.8852 78.1752 71.8784 78.351C71.7599 82.4675 71.0025 86.574 69.607 90.6698C68.5326 93.8287 67.1527 96.4377 65.4673 98.4971C64.222 100.023 63.2951 100.95 62.6862 101.278C62.57 101.34 62.172 101.606 61.4922 102.075C61.3783 102.155 61.3976 102.206 61.5503 102.226C61.6552 102.24 62.0076 102.122 62.6074 101.874C68.4187 99.447 72.6664 95.3988 75.3505 89.7292C77.7158 84.7301 79.0361 79.3876 79.3122 73.7019C79.3196 73.4969 79.4321 73.3005 79.6124 73.1865L85.1346 69.8156C85.1709 69.7935 85.2123 69.7818 85.2545 69.7818C85.3812 69.7818 85.4838 69.8845 85.4838 70.0109C85.4838 70.0132 85.4838 70.0154 85.4835 70.0174C85.3948 72.4121 85.2704 74.8856 85.1108 77.4377C84.835 81.8095 85.0436 86.0572 85.737 90.1808C85.7389 90.1938 85.7398 90.2075 85.7398 90.2211C85.7398 90.3047 85.7007 90.3835 85.6341 90.4337C81.1162 93.7751 76.303 96.326 71.1941 98.0866C71.1782 98.0912 71.1737 98.1221 71.1805 98.179C71.1827 98.2133 71.202 98.2281 71.2386 98.2235C71.9844 98.1436 73.1738 97.8667 74.8066 97.3921C78.7498 96.245 82.5108 94.6474 86.089 92.5993C86.0904 92.5985 86.0916 92.5976 86.093 92.5971C86.1446 92.5696 86.2095 92.5905 86.2378 92.6441C86.2384 92.645 86.2393 92.6461 86.2395 92.6472C86.6344 93.4432 87.0208 94.255 87.3995 95.083C87.8352 96.0386 88.2672 96.8266 88.696 97.4469C91.3413 101.278 95.1845 102.887 100.225 102.274C100.733 102.212 100.741 102.111 100.249 101.969C94.9187 100.45 92.7703 96.5199 91.7166 91.3748C91.6163 90.8934 91.5831 90.5434 91.6174 90.3245C91.6721 89.9778 91.6789 89.6357 91.6378 89.2981C91.6242 89.1796 91.6653 89.0849 91.7611 89.0144C95.5414 86.2055 99.0377 83.0548 101.405 79.107C101.834 78.3909 102.208 77.5116 102.527 76.4693C103.492 73.322 101.702 71.1121 98.668 70.5546C97.4548 70.3287 96.2084 70.2751 94.9289 70.3938C93.9347 70.4826 93.1762 70.5033 92.6541 70.4554C92.6439 70.4542 92.6334 70.4539 92.6232 70.4539C92.4446 70.4539 92.298 70.5951 92.2915 70.7734L92.1784 73.4932C92.1742 73.6185 92.232 73.6973 92.353 73.7291C94.4716 74.3266 95.489 75.6824 95.4045 77.7968C95.3053 80.3624 93.1294 83.3592 91.4258 85.2134C91.4182 85.2216 91.4094 85.2278 91.4 85.2327C91.3547 85.2559 91.2997 85.2392 91.2776 85.1952C91.2725 85.1856 91.2696 85.1754 91.2685 85.1646L91.2685 85.1655ZM99.407 63.9076C99.4527 63.9895 99.521 64.0397 99.6123 64.0581C99.6783 64.0717 99.7526 64.0525 99.8348 63.9997C100.186 63.7786 100.318 63.5915 100.232 63.4388C100.145 63.286 99.9156 63.3033 99.5439 63.4901C99.4595 63.5334 99.4059 63.587 99.3832 63.6511C99.3512 63.7401 99.3591 63.8254 99.407 63.9076ZM83.7527 73.2911C82.6489 73.7838 81.5357 74.2765 80.4138 74.7691C80.3681 74.7873 80.35 74.8204 80.3591 74.8683L80.3795 74.9744C80.3863 75.0155 80.4104 75.0291 80.4515 75.0155C81.8062 74.5194 83.1744 73.9411 84.4676 74.0508C84.5685 74.0605 84.6683 74.0026 84.7125 73.9065C84.848 73.599 84.8758 73.2296 84.7961 72.7988C84.7732 72.6732 84.6864 72.6355 84.5359 72.6857C84.5019 72.6973 84.3888 72.7837 84.1975 72.9459C83.9579 73.1511 83.8097 73.2662 83.7527 73.2911Z" fill-rule="evenodd"  fill="#007D3C" >
</path>
<path d="M100.232 63.4388C100.318 63.5915 100.186 63.7786 99.8348 63.9997C99.7526 64.0525 99.6783 64.0717 99.6123 64.0581C99.521 64.0397 99.4527 63.9895 99.407 63.9076C99.3591 63.8254 99.3512 63.7398 99.3832 63.6511C99.4059 63.587 99.4595 63.5334 99.5439 63.4901C99.9156 63.3033 100.145 63.286 100.232 63.4388Z" fill-rule="evenodd"  fill="#FFFFFF" >
</path>
<path d="M59.4156 86.0859C59.3062 89.0461 58.8923 91.7203 58.1737 94.1079C57.1303 97.5736 54.7699 101.385 51.243 102.404C50.6157 102.584 50.0958 102.35 49.6828 101.703C49.4025 101.258 49.4776 100.132 49.6077 99.5612C49.8654 98.4322 50.4105 96.9919 51.243 95.2404C51.9179 93.8174 52.7267 92.5205 53.6683 91.3507C55.3036 89.3211 57.1544 87.3036 59.2205 85.299C59.2305 85.2896 59.2421 85.2817 59.2548 85.276C59.3186 85.2477 59.3949 85.2791 59.4246 85.3463C59.4309 85.3605 59.4348 85.3755 59.4363 85.3908C59.4385 85.4186 59.4317 85.6502 59.4156 86.0859Z" fill-rule="evenodd"  fill="#007D3C" >
</path>
<path d="M27.3994 43.7031C28.1812 45.0629 28.703 46.807 28.7353 48.2703C29.2467 48.0821 30.2065 47.8389 30.6964 47.7555C30.5481 46.1817 29.901 44.1572 28.9936 42.5174L27.3994 43.7031ZM32.2475 38.7385C33.9069 38.6365 36.0813 38.6532 37.2934 38.8904L37.6568 36.9462C36.3926 36.7494 34.2419 36.8322 32.6228 36.9864L32.2475 38.7385ZM20.0041 41.1908L22.6567 37.7929C22.3288 37.0715 21.9662 36.3427 21.5614 35.6417L23.4592 34.4298C23.6993 34.9007 23.9196 35.3967 24.1401 35.8928L28.4624 30.3559L29.9097 31.4855L24.9386 37.853C25.3329 38.9304 25.6697 40.0036 25.9288 40.9955L27.6967 38.7303L26.0864 37.4728L27.2849 35.9376L28.8952 37.195L31.5969 33.7345L33.0468 34.8868L30.3551 38.3349L33.7025 40.9478C34.4701 41.5474 34.7675 42.0224 34.6164 42.7348C34.4749 43.4347 33.9528 44.1813 33.2356 45.0997C32.7362 44.8316 31.8603 44.5529 31.2556 44.4452C31.7917 43.8105 32.3348 43.141 32.4893 42.9173C32.6562 42.7033 32.6551 42.6007 32.4788 42.4635L29.1566 39.8698L27.1329 42.4624C26.6023 43.1418 26.1473 43.8803 26.1847 44.0917C25.8015 43.9341 24.815 43.5894 24.2172 43.4471C24.4015 43.0032 24.3159 42.4907 24.1016 41.6755C24.0222 41.3098 23.8096 40.5969 23.4748 39.7281L21.4512 42.3204L20.0041 41.1908ZM39.7088 26.6921L40.5167 27.9569L47.8222 23.2905L47.0143 22.026L39.7088 26.6921ZM38.6801 30.1529L50.6542 22.5048L51.5738 23.9442L47.8871 26.2989L48.884 27.8594C49.142 28.2631 49.2704 28.2568 49.7548 27.9476C49.97 27.8101 50.8581 27.2429 51.1271 27.0708C51.5307 26.8132 51.5083 26.6003 50.866 25.4761C51.3657 25.5169 52.2153 25.334 52.7193 25.145C53.6309 26.9872 53.4705 27.7149 52.2595 28.4881C51.923 28.703 50.8198 29.4077 50.5105 29.6053C48.8959 30.6365 48.2233 30.3842 47.2782 28.904L46.2727 27.3299L44.6312 28.3784C45.5765 30.5404 45.4005 32.2818 42.535 35.0024C42.1208 34.6799 41.3096 34.2697 40.7715 34.1399C43.1645 32.0431 43.4747 30.8979 42.9225 29.4698L39.5994 31.5924L38.6801 30.1529ZM40.4986 22.3231L41.5148 20.8598C42.0823 21.0656 42.7266 21.3927 43.1901 21.7029L47.872 18.7123L49.4359 21.1609L47.8349 22.1836L47.1047 21.0401L38.7632 26.3681L39.4934 27.5116L37.9596 28.4913L36.3957 26.0427L41.468 22.8027C41.148 22.6284 40.8061 22.4489 40.4986 22.3231ZM34.4052 23.4306L37.0961 21.7119L36.6063 20.9449L38.1804 19.9394L38.6702 20.7065L42.0877 18.5238L41.5976 17.7567L43.1852 16.7428L43.6751 17.5098L46.3796 15.7824L47.2476 17.1413L44.5433 18.8688L45.0845 19.7163L43.497 20.7303L42.9556 19.8827L39.5382 22.0654L40.0796 22.913L38.5055 23.9184L37.9641 23.0709L35.2732 24.7895L34.4052 23.4306ZM68.1857 14.1448C68.1967 15.2566 68.1117 16.3082 67.9504 17.3123C67.4705 16.014 67.0059 14.4992 66.5668 12.8803L69.5378 12.1946L69.1466 10.4989L68.2908 10.6965L68.8666 10.1375C68.449 9.6769 67.6233 9.081 66.922 8.6694L65.819 9.7106C66.3395 10.0491 66.9356 10.5012 67.3577 10.9119L66.1289 11.1957C65.9483 10.4836 65.7793 9.7523 65.6297 9.0331L63.8722 9.4388L64.4023 11.5939L59.6891 12.6819L60.8845 17.8616C61.1107 18.8418 61.3309 19.9377 61.3766 21.058L60.8581 19.9485L59.7577 20.645L58.763 16.3363L59.9919 16.0526L59.5967 14.3416L58.3679 14.6253L57.56 11.1251L55.849 11.52L56.6569 15.0202L55.288 15.336L55.6829 17.0469L57.052 16.7312L58.1865 21.6467C57.6263 21.9892 57.1093 22.3047 56.675 22.5524L57.6935 24.2671C58.799 23.5204 60.1214 22.5762 61.3729 21.6813C61.3284 22.6252 61.1336 23.5553 60.6608 24.4179C61.1039 24.5616 61.9404 24.991 62.2956 25.253C63.028 23.9536 63.1998 22.3574 63.1162 20.7873C63.4119 21.145 63.6953 21.7352 63.8308 22.1791C64.3629 22.0725 64.8572 21.9421 65.154 21.808C65.5129 21.6595 65.7297 21.4622 65.8995 21.0625C66.1102 20.5551 65.8491 19.1406 65.0917 15.6455C65.0639 15.4553 64.9633 15.0199 64.9633 15.0199L62.1947 15.6588L61.8069 13.979L64.8558 13.2752C65.5415 15.8204 66.323 18.212 67.1618 20.0012C66.6317 21.2538 65.8754 22.3786 64.8635 23.3169C65.3014 23.5105 66.1209 24.0097 66.4415 24.2631C67.125 23.5321 67.7208 22.7066 68.1862 21.8126C68.8887 22.7973 69.6305 23.3144 70.4083 23.1349C71.6218 22.8546 71.9529 22.0901 71.6264 19.6095C71.1632 19.5196 70.541 19.2376 70.0934 18.9311C70.4165 20.5441 70.461 21.304 70.2431 21.3542C69.9477 21.4225 69.512 20.8839 69.0225 19.8995C69.6231 18.1715 69.9259 16.2172 69.9341 14.0527L68.1857 14.1448ZM62.543 17.1677L63.7563 16.8876C64.2566 19.197 64.3884 20.0514 64.3022 20.317C64.241 20.4786 64.1392 20.5347 63.9683 20.5744C63.7971 20.6138 63.5017 20.6818 63.1173 20.7215C63.049 19.574 62.8376 18.4433 62.6147 17.4789L62.543 17.1677ZM83.2583 9.2474C83.4627 9.8039 83.6833 10.4904 83.8502 11.0902L77.4655 10.2982L77.2336 12.1677L83.4281 12.9361L83.2099 14.695L78.3621 14.0935L77.4363 21.5555L79.353 21.7933L80.047 16.2008L82.978 16.5645L82.0916 23.7095L84.0719 23.9553L84.9583 16.81L88.1268 17.2034L87.6943 20.6886C87.6707 20.8788 87.5662 20.9463 87.3125 20.9148C87.059 20.8834 86.1245 20.7674 85.3361 20.6373C85.5269 21.1759 85.7276 22.0212 85.7381 22.5856C86.9737 22.7386 87.8808 22.8191 88.5971 22.6184C89.2842 22.3979 89.5569 21.8848 89.6709 20.9661L90.3393 15.5795L85.1902 14.9405L85.4084 13.1819L91.7773 13.9722L92.0095 12.1028L86.0998 11.3694C85.9249 10.7044 85.5221 9.6732 85.2165 8.8954L83.2583 9.2474ZM102.748 22.8702L102.292 23.7665L96.8564 21.0007L96.0599 22.566L101.495 25.3315L100.583 27.1244C100.489 27.3092 100.381 27.3441 100.097 27.1995C99.7908 27.0618 98.7381 26.5257 97.8491 26.0197C97.8738 26.6054 97.8389 27.4833 97.7065 28.025C98.9158 28.6404 99.8266 29.0681 100.619 29.1665C101.425 29.2722 101.862 28.9394 102.311 28.0573L103.245 26.2218L108.794 29.0454L109.591 27.4804L104.042 24.6568L104.179 24.3867C105.7 24.4258 107.251 24.2297 108.524 23.8745L107.877 22.4705L107.478 22.3749L101.032 19.0953L100.279 20.5752L104.79 22.8702C104.118 22.9223 103.397 22.9317 102.748 22.8702ZM105.788 15.9446L107.586 16.143C107.737 17.0075 107.772 18.1006 107.66 18.7778L106.654 18.678L108.518 19.6265C109.314 19.1894 110.225 18.5958 110.842 18.0864L112.331 19.5244C111.665 19.8841 110.962 20.2433 110.31 20.5387L112.388 21.5957L110.788 24.7399L109.109 23.8858L109.941 22.2494L100.821 17.6088L99.9887 19.2449L98.3951 18.4339L99.9949 15.2895L102.172 16.3975C102.162 15.7833 102.06 15.0329 101.929 14.411L103.706 14.5091C103.922 15.3175 104.1 16.3751 104.052 17.0319L103.382 17.0127L105.786 18.2364C105.869 17.5801 105.861 16.6804 105.788 15.9446ZM126.783 32.1094C126.601 32.5825 126.322 33.1392 126.062 33.595L123.633 30.778L121.227 32.8524L122.051 33.8076L120.974 34.7354L125.28 39.7292L126.356 38.8014L127.179 39.7564L129.585 37.682L127.417 35.1671C127.729 34.6243 128.116 33.8266 128.348 33.1421L126.783 32.1094ZM122.543 34.0367L123.522 33.1922L127.129 37.3759L126.15 38.2203L122.543 34.0367ZM119.265 34.586L125.248 41.5267L123.954 42.6418L122.308 40.7315L119.829 42.8686C119.478 43.1708 119.44 43.2246 119.597 43.406C119.649 43.4664 119.899 43.7567 119.972 43.8412C120.128 44.0226 120.374 43.916 121.64 42.8666C121.652 43.3204 121.924 44.0764 122.142 44.4999C120.367 45.8399 119.616 45.8977 118.876 45.0394C118.699 44.8336 118.323 44.3984 118.157 44.2048C117.229 43.1288 117.431 42.5324 118.629 41.5006L121.119 39.3531L120.431 38.5551C118.231 40.1354 116.339 40.7763 113.494 39.1396C113.742 38.6937 113.941 37.8481 113.969 37.3181C116.229 38.7422 117.573 38.321 119.232 37.1647L117.971 35.7015L119.265 34.586ZM121.239 26.1181L123.553 28.8025L123.791 28.9559L124.06 30.3681C122.784 30.9415 121.218 31.5955 119.985 32.0473C119.653 33.6189 118.943 34.5058 118.229 35.1209C117.443 35.7981 116.776 36.0997 116.152 35.9631C115.84 35.8945 115.569 35.7275 115.292 35.5033C115.057 35.3049 114.818 35.0265 114.579 34.7258C114.93 34.4236 115.381 33.8456 115.554 33.3379C115.729 33.5661 115.863 33.7456 116.001 33.8802C116.105 34.0012 116.233 34.1016 116.379 34.1234C116.613 34.1747 116.931 34.0058 117.281 33.7036C117.862 33.2033 118.523 32.3804 118.775 30.9617C119.722 30.5452 120.921 29.9548 121.874 29.4706L121.039 28.5035L111.5 36.7279L110.405 35.4583L121.239 26.1181Z" fill-rule="evenodd"  fill="#007D3C" >
</path>
<path d="M19.6211 64.2458L19.1868 67.9991C19.1015 68.7373 18.9317 69.3249 18.6794 69.7563C18.4252 70.1878 18.0944 70.5313 17.685 70.7864C17.2737 71.0396 16.8134 71.2043 16.2995 71.2797C15.7856 71.3573 15.2509 71.363 14.6936 71.2984C13.8203 71.1975 13.1547 71.0203 12.6966 70.7649C12.2377 70.5115 11.8667 70.1889 11.5821 69.7974C11.2977 69.406 11.1245 69.0023 11.063 68.5845C10.9788 68.0139 10.9627 67.5031 11.0146 67.0541L11.4485 63.3007L19.6211 64.2458ZM17.4804 66.5543L13.0175 66.0384L12.9458 66.6584C12.8846 67.1876 12.8999 67.5708 12.99 67.8087C13.0822 68.0451 13.2656 68.2435 13.5419 68.4048C13.82 68.5661 14.2846 68.6834 14.9388 68.7591C15.8045 68.8592 16.4123 68.7869 16.7649 68.5403C17.1173 68.2937 17.3316 67.8424 17.4073 67.1862L17.4804 66.5543ZM14.4059 73.7657C15.7473 73.7155 16.806 74.0491 17.5805 74.7697C18.3566 75.4897 18.7687 76.517 18.8186 77.8527C18.8699 79.2209 18.542 80.289 17.8367 81.0572C17.1295 81.8254 16.1135 82.2333 14.7914 82.2826C13.8308 82.3186 13.0382 82.1874 12.4118 81.8869C11.7856 81.5867 11.2895 81.1355 10.9239 80.5379C10.5585 79.9384 10.3598 79.1829 10.3255 78.2702C10.2909 77.3438 10.4096 76.5711 10.6818 75.9515C10.9553 75.3335 11.4038 74.8224 12.0291 74.4216C12.6521 74.0208 13.445 73.8014 14.4059 73.7657ZM14.4949 76.3032C13.6664 76.3341 13.0751 76.5116 12.7247 76.8333C12.3746 77.1565 12.2085 77.5845 12.2284 78.1166C12.249 78.6619 12.4429 79.0801 12.808 79.3655C13.1751 79.6527 13.8163 79.7779 14.7367 79.7434C15.5097 79.7144 16.0685 79.5367 16.4126 79.2113C16.7587 78.8842 16.9208 78.4544 16.901 77.9187C16.8817 77.4059 16.6844 76.9994 16.3111 76.7029C15.9378 76.4041 15.3312 76.2721 14.4949 76.3032ZM19.0244 84.0636L19.5582 86.3756L15.8258 90.403L20.2518 89.3817L20.7918 91.7217L12.7757 93.5716L12.2357 91.2319L15.9477 87.2265L11.5458 88.2425L11.0083 85.9135L19.0244 84.0636ZM18.1763 99.9263L19.7662 99.2914L21.2235 102.941L17.9747 104.238C17.2187 103.73 16.647 103.243 16.2606 102.776C15.8734 102.308 15.5338 101.705 15.2399 100.969C14.8776 100.062 14.7367 99.2605 14.8184 98.566C14.8983 97.8723 15.1818 97.2453 15.6679 96.6863C16.1521 96.1279 16.7919 95.6908 17.5836 95.3747C18.4175 95.0417 19.2104 94.9249 19.9647 95.0218C20.717 95.1193 21.3857 95.436 21.9707 95.9714C22.4246 96.3901 22.826 97.0381 23.1752 97.9132C23.5119 98.7562 23.6874 99.4181 23.7016 99.8971C23.7163 100.378 23.6182 100.819 23.4065 101.224C23.1945 101.627 22.8705 101.998 22.4334 102.334L21.1164 100.224C21.3687 100.014 21.5277 99.7673 21.5912 99.4821C21.6564 99.1961 21.6193 98.8809 21.4801 98.5325C21.274 98.0166 20.9296 97.6759 20.4477 97.5118C19.9655 97.3476 19.3351 97.4219 18.5581 97.732C17.7327 98.0617 17.204 98.4523 16.9747 98.905C16.7442 99.3557 16.7397 99.8606 16.9611 100.416C17.0665 100.679 17.204 100.915 17.3764 101.124C17.5481 101.332 17.7871 101.554 18.0921 101.791L18.807 101.505L18.1763 99.9263ZM23.311 109.761L24.7581 108.846L26.858 112.168L23.9006 114.037C23.0644 113.675 22.4132 113.301 21.9481 112.913C21.4821 112.524 21.0382 111.993 20.6147 111.323C20.0928 110.497 19.8076 109.735 19.7609 109.037C19.7127 108.34 19.8771 107.673 20.2527 107.034C20.6268 106.396 21.1762 105.85 21.8965 105.394C22.6556 104.914 23.4139 104.655 24.173 104.613C24.9307 104.571 25.6459 104.76 26.3191 105.18C26.8418 105.508 27.3546 106.072 27.8577 106.869C28.343 107.636 28.6367 108.255 28.7379 108.723C28.8402 109.193 28.8244 109.645 28.69 110.081C28.5556 110.517 28.3048 110.94 27.9363 111.35L26.2562 109.517C26.4656 109.264 26.5768 108.992 26.5873 108.7C26.5992 108.407 26.505 108.104 26.3044 107.787C26.0079 107.318 25.6067 107.046 25.1027 106.972C24.5987 106.899 23.9927 107.087 23.2855 107.534C22.5343 108.009 22.0858 108.49 21.943 108.977C21.7987 109.462 21.8866 109.959 22.2057 110.464C22.3571 110.704 22.5354 110.91 22.7432 111.085C22.9498 111.258 23.2256 111.432 23.5689 111.61L24.2195 111.198L23.311 109.761ZM34.7062 115.713L31.0938 119.195C30.7658 119.511 30.4256 119.666 30.0761 119.66C29.7244 119.653 29.3967 119.493 29.0951 119.18C28.7892 118.863 28.6412 118.527 28.6503 118.172C28.6597 117.821 28.8255 117.487 29.1481 117.177L32.7603 113.694L30.998 111.866L27.47 115.267C27.1788 115.548 26.8996 115.926 26.6323 116.402C26.4656 116.698 26.363 117.047 26.3259 117.45C26.2876 117.851 26.3199 118.224 26.4206 118.569C26.5212 118.914 26.7165 119.276 27.0048 119.655C27.2928 120.034 27.5754 120.368 27.8532 120.657C28.3328 121.154 28.811 121.518 29.285 121.747C29.626 121.911 30.024 121.998 30.4815 122.006C30.9393 122.015 31.3755 121.924 31.7922 121.732C32.2075 121.542 32.5913 121.278 32.9403 120.942L36.4683 117.541L34.7062 115.713ZM37.847 127.57L35.5606 125.819L34.4078 126.644L32.3478 125.065L39.8089 120.418L42.0179 122.11L39.4625 130.516L37.3493 128.897L37.847 127.57ZM38.503 125.829L39.5881 122.936L37.074 124.735L38.503 125.829ZM45.5578 124.818L41.8836 132.178L44.0217 133.246L46.0394 129.204L46.7665 134.616L48.9152 135.688L52.5897 128.328L50.4411 127.255L48.4123 131.319L47.6807 125.877L45.5578 124.818ZM61.4188 136.357L63.4093 137.565C63.1088 138.132 62.7502 138.579 62.3327 138.903C61.9163 139.229 61.452 139.435 60.9349 139.521C60.4205 139.609 59.8056 139.561 59.0919 139.377C58.2239 139.153 57.5498 138.844 57.0637 138.452C56.5798 138.059 56.2212 137.494 55.9856 136.758C55.7501 136.023 55.7592 135.159 56.0134 134.173C56.353 132.856 56.9645 131.934 57.8483 131.406C58.7333 130.881 59.8167 130.783 61.0999 131.113C62.1031 131.372 62.841 131.778 63.3109 132.332C63.7792 132.886 64.0468 133.62 64.108 134.533L61.8145 134.454C61.8009 134.193 61.7663 133.997 61.7116 133.864C61.6209 133.641 61.4894 133.452 61.317 133.301C61.143 133.148 60.9332 133.04 60.6863 132.977C60.1265 132.832 59.6404 132.946 59.2285 133.317C58.9184 133.591 58.6706 134.085 58.4872 134.795C58.2599 135.677 58.2378 136.315 58.422 136.712C58.6068 137.108 58.941 137.368 59.4269 137.493C59.898 137.615 60.2881 137.575 60.5973 137.372C60.9063 137.171 61.1799 136.832 61.4188 136.357ZM67.0589 132.559L69.5928 132.852L68.6477 141.024L66.1138 140.731L67.0589 132.559ZM72.267 133.103L79.9948 133.387L79.92 135.419L77.3249 135.324L77.0975 141.513L74.5597 141.42L74.7873 135.23L72.1922 135.135L72.267 133.103ZM80.5875 133.338L83.3601 132.809L85.5133 135.218L86.6219 132.187L89.3798 131.662L87.1373 136.957L87.7824 140.341L85.2766 140.819L84.6317 137.435L80.5875 133.338ZM98.5997 128.522L100.958 127.581L102.775 132.131C102.955 132.581 103.055 133.037 103.074 133.493C103.094 133.951 103.013 134.389 102.833 134.81C102.652 135.231 102.421 135.566 102.141 135.82C101.75 136.172 101.233 136.478 100.591 136.734C100.219 136.883 99.8027 137.018 99.343 137.142C98.8829 137.266 98.4736 137.31 98.1167 137.273C97.7595 137.236 97.4021 137.125 97.0446 136.938C96.6858 136.752 96.4015 136.525 96.19 136.259C95.8501 135.831 95.6055 135.43 95.4555 135.055L93.638 130.504L95.9961 129.562L97.8568 134.222C98.0232 134.638 98.2689 134.917 98.5909 135.058C98.9164 135.201 99.2832 135.19 99.6922 135.027C100.096 134.866 100.368 134.623 100.507 134.3C100.645 133.978 100.63 133.605 100.461 133.182L98.5997 128.522ZM103.008 126.554L107.405 133.508L109.425 132.231L107.011 128.413L112.018 130.592L114.048 129.309L109.652 122.355L107.622 123.638L110.049 127.478L105.014 125.287L103.009 126.554L103.008 126.554ZM111.744 120.604L113.687 118.951L119.017 125.218L117.074 126.871L111.744 120.604ZM115.322 117.776L123.524 120.949L125.361 118.898L121.27 111.134L119.549 113.056L122.742 118.367L117.094 115.797L115.322 117.776ZM122.206 109.738L125.929 104.045L127.4 105.007L125.073 108.565L126.17 109.282L128.327 105.983L129.73 106.901L127.574 110.2L128.929 111.086L131.325 107.422L132.883 108.441L129.091 114.24L122.206 109.738ZM134.483 105.331L135.518 102.999L132.472 101.647L132.563 101.443C132.657 101.231 132.799 101.066 132.99 100.949C133.133 100.866 133.388 100.811 133.755 100.786L136.599 100.562L137.764 97.937L135.091 98.1019C134.957 98.1073 134.752 98.1467 134.48 98.2184C134.207 98.2916 134.018 98.3571 133.92 98.4138C133.771 98.4988 133.591 98.6598 133.375 98.8951C133.449 98.5152 133.471 98.1978 133.439 97.9475C133.39 97.5503 133.253 97.1966 133.027 96.8845C132.803 96.5715 132.482 96.3224 132.066 96.1372C131.586 95.9244 131.127 95.8589 130.689 95.9434C130.254 96.0287 129.888 96.2333 129.597 96.5585C129.305 96.8816 129 97.4041 128.682 98.1218L126.964 101.994L134.483 105.331ZM131.054 101.018L129.521 100.338L129.974 99.3157C130.163 98.8903 130.356 98.6303 130.556 98.5345C130.754 98.4378 130.975 98.4441 131.219 98.5521C131.383 98.6249 131.507 98.7386 131.591 98.8931C131.676 99.0462 131.699 99.2072 131.66 99.3744C131.593 99.7092 131.537 99.9311 131.49 100.036L131.054 101.018ZM135.872 94.9512L136.277 92.5676C136.669 92.6064 136.985 92.5707 137.219 92.4604C137.602 92.2807 137.849 91.9553 137.96 91.4819C138.043 91.1293 138.025 90.8379 137.904 90.6088C137.783 90.3778 137.613 90.2375 137.395 90.1865C137.189 90.1377 136.981 90.1836 136.774 90.3257C136.568 90.468 136.316 90.8535 136.013 91.4808C135.516 92.5086 135.01 93.204 134.497 93.5716C133.985 93.9427 133.416 94.0549 132.789 93.9078C132.379 93.8111 132.019 93.6008 131.71 93.2765C131.399 92.9517 131.196 92.5262 131.1 91.9978C131.003 91.47 131.053 90.7891 131.249 89.9557C131.49 88.9321 131.863 88.1977 132.371 87.7507C132.878 87.3031 133.559 87.1268 134.414 87.2197L134.005 89.5784C133.627 89.5546 133.332 89.6229 133.121 89.782C132.909 89.9424 132.762 90.1972 132.68 90.5459C132.613 90.8328 132.623 91.0655 132.71 91.2393C132.797 91.4133 132.929 91.521 133.104 91.5621C133.231 91.5919 133.359 91.5593 133.489 91.4655C133.622 91.3767 133.784 91.1239 133.977 90.7092C134.465 89.6825 134.883 88.9645 135.232 88.5546C135.58 88.1427 135.955 87.8709 136.359 87.7413C136.761 87.6118 137.181 87.5984 137.619 87.7013C138.132 87.8218 138.572 88.0747 138.94 88.4602C139.305 88.8471 139.543 89.3199 139.646 89.8832C139.75 90.4447 139.711 91.1126 139.529 91.8878C139.209 93.2487 138.725 94.1303 138.078 94.5311C137.431 94.9317 136.696 95.0717 135.872 94.9512ZM132.595 83.9435L132.888 81.4096L141.061 82.3546L140.768 84.8885L132.595 83.9435ZM133.304 79.3403L133.014 71.6127L135.046 71.5368L135.144 74.1316L141.333 73.8997L141.427 76.437L135.239 76.6692L135.336 79.2643L133.304 79.3403ZM133.117 70.4242L132.589 67.6513L134.997 65.4981L131.967 64.3895L131.442 61.6317L136.737 63.8742L140.121 63.2293L140.599 65.7351L137.214 66.38L133.118 70.4242L133.117 70.4242Z" fill-rule="evenodd"  fill="#007D3C" >
</path>
</svg>
