<svg xmlns="http://www.w3.org/2000/svg" viewBox="0 0 191.06 191.06"><defs><style>.cls-1{fill:#00754a;}.cls-2{fill:#fff;}</style></defs><g id="Layer_2" data-name="Layer 2"><g id="图层_1" data-name="图层 1"><path class="cls-1" d="M95.66,9.55a86,86,0,1,0,85.85,86.11A86,86,0,0,0,95.66,9.55ZM95.45,147.7A52.17,52.17,0,1,1,147.7,95.61,52.18,52.18,0,0,1,95.45,147.7Z"/><path class="cls-2" d="M22.37,100.84a1.32,1.32,0,0,0-.78.32,1.59,1.59,0,0,0-.41,1.37c.08.9.53,1.41,1.21,1.35a.91.91,0,0,0,.79-.53,5.61,5.61,0,0,0,.31-1.61,3.09,3.09,0,0,1,.43-1.41,1.79,1.79,0,0,1,1.4-.83c1.26-.11,2.16.83,2.3,2.39a2.66,2.66,0,0,1-.72,2.33,2.48,2.48,0,0,1-1,.54l-.27-1.28a1.12,1.12,0,0,0,.62-.33,1.45,1.45,0,0,0,.34-1.17c-.07-.79-.52-1.29-1.1-1.23a.85.85,0,0,0-.77.68,6.94,6.94,0,0,0-.22,1.31,3.94,3.94,0,0,1-.42,1.52,1.78,1.78,0,0,1-1.49.89,2.15,2.15,0,0,1-1.59-.44,3,3,0,0,1-.87-2.1,3.62,3.62,0,0,1,.3-1.94,2.13,2.13,0,0,1,1-.89,2.83,2.83,0,0,1,.74-.23Z"/><path class="cls-2" d="M28.21,111.74a3.9,3.9,0,0,1-2.58,1.55c-2.25.44-4-.58-4.37-2.6s.79-3.61,3-4.06a3.84,3.84,0,0,1,3,.47,3.13,3.13,0,0,1,1.35,2.12A3.19,3.19,0,0,1,28.21,111.74Zm-2.82.3a2.9,2.9,0,0,0,1.93-1.12,2,2,0,0,0,.27-1.48c-.25-1.28-1.43-1.89-3-1.57a3,3,0,0,0-2,1.14,2,2,0,0,0-.27,1.49C22.57,111.77,23.75,112.37,25.39,112Z"/><path class="cls-2" d="M31.45,119.9a6.64,6.64,0,0,0-1.2.31l-3.07,1c-1.79.57-3.14-.17-3.75-2a3.13,3.13,0,0,1,.1-2.5,2.92,2.92,0,0,1,1.78-1.29l3.05-1a7.05,7.05,0,0,0,1.16-.45l.42,1.29a6.89,6.89,0,0,0-1.21.31l-3.05,1A1.85,1.85,0,1,0,26.82,120l3.05-1a8.1,8.1,0,0,0,1.16-.45Z"/><path class="cls-2" d="M27.84,126.81a7.79,7.79,0,0,0-1.05.54l-.56-1.25a7,7,0,0,0,1.11-.41l4.53-2-.5-1.12a7.88,7.88,0,0,0-.57-1.11l1.12-.5a8.6,8.6,0,0,0,.44,1.16l1.47,3.28a10.86,10.86,0,0,0,.6,1.2l-1.11.49a8.89,8.89,0,0,0-.49-1.24l-.46-1Z"/><path class="cls-2" d="M38,133a6.68,6.68,0,0,0-1,.52L32.75,136a7.91,7.91,0,0,0-1,.65l-.68-1.16a7.37,7.37,0,0,0,1.05-.53l1.77-1-1.84-3.15-1.77,1a7.16,7.16,0,0,0-1,.66l-.68-1.17a6.87,6.87,0,0,0,1.05-.53l4.22-2.46a6.15,6.15,0,0,0,1-.66l.69,1.17a6.83,6.83,0,0,0-1,.53l-1.52.88,1.84,3.15,1.51-.88a6.42,6.42,0,0,0,1-.65Z"/><path class="cls-2" d="M37.84,139.37a5.11,5.11,0,0,0,.49.71l.87,1.1a5.61,5.61,0,0,0,.57.64l-.94.75a5.21,5.21,0,0,0-.5-.71l-.87-1.1a5.26,5.26,0,0,0-.57-.64Z"/><path class="cls-2" d="M47,151.06a3.56,3.56,0,0,1-1.38.56,3.09,3.09,0,0,1-2.48-1,3.16,3.16,0,0,1-1.08-2.24,4.59,4.59,0,0,1,4.06-4.12,3.13,3.13,0,0,1,2.24.95,3.18,3.18,0,0,1,1,1.52,2.69,2.69,0,0,1,0,1.38,3.23,3.23,0,0,1-.28.7L48,148.13a1.86,1.86,0,0,0,.26-.83,1.67,1.67,0,0,0-.57-1.33c-.93-.89-2.19-.7-3.35.5s-1.29,2.5-.37,3.38a1.76,1.76,0,0,0,1.53.54,2,2,0,0,0,.79-.4Z"/><path class="cls-2" d="M51.18,157.24a8,8,0,0,0-.88-.77l-2.24-1.74c-.43-.33-.62-.48-.92-.69a8,8,0,0,0,.79-.9l3-3.87a8.78,8.78,0,0,0,.66-1c.27.24.45.39.89.73l2.16,1.69a9.39,9.39,0,0,0,1,.67l-.74.94a7.71,7.71,0,0,0-.88-.77L52,150l-1.15,1.48,1.74,1.36a9.49,9.49,0,0,0,1,.67l-.73.94a7.88,7.88,0,0,0-.89-.78l-1.75-1.36L48.82,154,51,155.63a8,8,0,0,0,1,.66Z"/><path class="cls-2" d="M57,161a10,10,0,0,0,0-1.13l-.12-4.24c0-.32,0-.77.05-1.25l-.21.41c-.08.15-.28.51-.4.69L54.81,158a9.39,9.39,0,0,0-.66,1.19l-1.13-.7a9.42,9.42,0,0,0,.79-1.13l2.48-4a7.22,7.22,0,0,0,.56-1l1.2.75a5.55,5.55,0,0,0,0,1.11l.12,4.15c0,.4,0,1,0,1.37a12.49,12.49,0,0,1,.62-1.12L60.36,156a8.56,8.56,0,0,0,.6-1.11l1.12.71a7.48,7.48,0,0,0-.72,1l-2.54,4.08a6.5,6.5,0,0,0-.56,1Z"/><path class="cls-2" d="M63.78,163.21a7.77,7.77,0,0,0-.44,1.09l-1.24-.59a7.89,7.89,0,0,0,.58-1l2.16-4.47-1.11-.54a10,10,0,0,0-1.14-.48l.53-1.1a8.08,8.08,0,0,0,1.08.6l3.24,1.56a9.3,9.3,0,0,0,1.23.53l-.53,1.09a9.67,9.67,0,0,0-1.17-.63l-1-.5Z"/><path class="cls-2" d="M71.6,167.63a7,7,0,0,0,.05-1.52c0-1.35-.23-1.77-.89-2l-1.27-.46-.63,1.75a7.58,7.58,0,0,0-.33,1.14l-1.27-.46a7.31,7.31,0,0,0,.47-1.08l1.65-4.61a7.86,7.86,0,0,0,.33-1.13c.35.14.62.25,1.09.41l2,.74c1.3.47,1.81,1.39,1.4,2.51a1.88,1.88,0,0,1-.89,1.12,1.93,1.93,0,0,1-1.13.15c.48.37.55.67.68,3,0,.18.06.72.1,1Zm0-4.34a1.21,1.21,0,0,0,.92,0,1.07,1.07,0,0,0,.55-.65c.22-.62,0-1.06-.72-1.31l-1.75-.63-.72,2Z"/><path class="cls-2" d="M80,169.9a5.41,5.41,0,0,0,0-1l-.12-1L77,167.19l-.58.88a4.59,4.59,0,0,0-.49.87l-1.45-.35a10.71,10.71,0,0,0,.72-.93L78.33,163a4.72,4.72,0,0,0,.49-.82l1.54.36a8,8,0,0,0,.09,1l.75,5.57a8.31,8.31,0,0,0,.2,1.15Zm-.55-6c0-.1,0-.22,0-.53l-.29.45-1.54,2.4,2.19.52Z"/><path class="cls-2" d="M88.34,171.26a8.22,8.22,0,0,0-1.28-.23l-2.66-.36-1.15-.12a7.24,7.24,0,0,0,.23-1.18l.62-4.68a9.35,9.35,0,0,0,.1-1.34l1.36.18a8.93,8.93,0,0,0-.25,1.32l-.62,4.75,2.52.34a8.75,8.75,0,0,0,1.29.1Z"/><path class="cls-2" d="M101.32,171.27a6.16,6.16,0,0,0-.5-1.19l-1.56-3a9.86,9.86,0,0,1-.58-1.35c.08.48.17,1.22.19,1.42l.25,3a7.48,7.48,0,0,0,.18,1.31l-1.27.11a9.24,9.24,0,0,0,0-1.33l-.37-4.55a8.4,8.4,0,0,0-.19-1.33l1.66-.14a6.14,6.14,0,0,0,.43,1.05l2.21,4.34,1.45-4.64a4.55,4.55,0,0,0,.24-1.11l1.67-.13a9,9,0,0,0,0,1.34l.38,4.55a7.87,7.87,0,0,0,.18,1.32l-1.27.1a7.79,7.79,0,0,0,0-1.33l-.25-3c0-.8,0-1.26,0-1.4a11.71,11.71,0,0,1-.31,1.36l-1.1,3.3a7.58,7.58,0,0,0-.29,1.24Z"/><path class="cls-2" d="M108.11,163.11a7.81,7.81,0,0,0,.13,1.16l.84,4.81a6.76,6.76,0,0,0,.28,1.14l-1.36.24a7.65,7.65,0,0,0-.13-1.17l-.84-4.81a6.76,6.76,0,0,0-.28-1.14Z"/><path class="cls-2" d="M116.22,168.63a7.73,7.73,0,0,0-.81-.79L112.26,165c-.24-.22-.56-.54-.88-.9l.15.44c.06.16.18.55.23.76l.75,2.88a10.32,10.32,0,0,0,.41,1.3l-1.28.34a10.11,10.11,0,0,0-.27-1.35l-1.19-4.54a7.4,7.4,0,0,0-.36-1.12l1.37-.35a4.93,4.93,0,0,0,.78.79l3.1,2.77c.29.26.69.65,1,.95-.13-.34-.29-.86-.39-1.23l-.77-2.95a7.47,7.47,0,0,0-.38-1.2l1.28-.33a7.87,7.87,0,0,0,.25,1.23l1.21,4.65a6.17,6.17,0,0,0,.36,1.12Z"/><path class="cls-2" d="M125.09,165.61a10.82,10.82,0,0,0-1.26.41l-3.15,1.2c-.54.2-.77.3-1.1.44l-.38-1a6.16,6.16,0,0,0,.39-1l1.48-4.64.21-.58c-.17.07-.45.19-.6.24l-1.8.69a9.84,9.84,0,0,0-1.17.51l-.43-1.12a9.61,9.61,0,0,0,1.22-.4l2.75-1c.33-.12.77-.3,1.09-.44l.37,1a8.25,8.25,0,0,0-.4,1.09l-1.45,4.55a6.89,6.89,0,0,1-.23.66l.7-.28,2.12-.8a10.5,10.5,0,0,0,1.21-.53Z"/><path class="cls-2" d="M129.25,155.46a7,7,0,0,0,.49,1.13l1.46,2.87c.85,1.68.33,3.12-1.43,4a3.1,3.1,0,0,1-2.47.3,2.9,2.9,0,0,1-1.56-1.55l-1.45-2.86a6.42,6.42,0,0,0-.63-1.07l1.21-.62a6.59,6.59,0,0,0,.5,1.14l1.45,2.86a1.85,1.85,0,1,0,3.3-1.69l-1.45-2.84a7.4,7.4,0,0,0-.63-1.08Z"/><path class="cls-2" d="M141.38,146.68a6.86,6.86,0,0,0,.73,1l2,2.49c1.19,1.45,1,3-.53,4.24a3.15,3.15,0,0,1-2.35.83,2.93,2.93,0,0,1-1.86-1.18l-2-2.48a7.29,7.29,0,0,0-.84-.91l1-.86a7.8,7.8,0,0,0,.74,1l2,2.47a1.85,1.85,0,1,0,2.85-2.36l-2-2.47a7.5,7.5,0,0,0-.85-.92Z"/><path class="cls-2" d="M151.06,147.2a8.37,8.37,0,0,0-1.11-.26l-4.17-.77c-.32-.07-.75-.17-1.21-.31l.36.29.58.53,2.15,2.07a9.94,9.94,0,0,0,1,.9l-.92.95a10.28,10.28,0,0,0-.94-1l-3.37-3.26a7.14,7.14,0,0,0-.9-.76l1-1a4.94,4.94,0,0,0,1.08.27l4.08.75c.39.07.93.19,1.33.3a12.44,12.44,0,0,1-1-.85l-2.2-2.12a9.13,9.13,0,0,0-.95-.82l.92-1a7.27,7.27,0,0,0,.85.92l3.46,3.34a7.78,7.78,0,0,0,.89.76Z"/><path class="cls-2" d="M148.81,138.72a7.13,7.13,0,0,0,.86.8l3.77,3.1a7.69,7.69,0,0,0,.95.69l-.87,1.07a7.05,7.05,0,0,0-.86-.8l-3.78-3.11a6.23,6.23,0,0,0-.95-.69Z"/><path class="cls-2" d="M157.07,139.78a5.8,5.8,0,0,0-.91-.29l-5.41-1.4a9.64,9.64,0,0,0-1.14-.25l.86-1.23a5.51,5.51,0,0,0,.92.35l4.54,1.33a6.44,6.44,0,0,1,.69.22l-.45-.57-2.81-3.81a5.39,5.39,0,0,0-.64-.74l.86-1.23a7.4,7.4,0,0,0,.62,1l3.19,4.59a5.3,5.3,0,0,0,.58.76Z"/><path class="cls-2" d="M163,130.22a7.1,7.1,0,0,0-.62,1L161,133.69c-.26.47-.37.69-.53,1a8.38,8.38,0,0,0-1-.65l-4.3-2.38a7.86,7.86,0,0,0-1.06-.51c.2-.3.32-.51.59-1l1.33-2.4a9.28,9.28,0,0,0,.51-1.06l1,.59a7.68,7.68,0,0,0-.62,1l-1.27,2.29,1.63.91,1.08-1.93a11.22,11.22,0,0,0,.51-1.07l1,.58a9.09,9.09,0,0,0-.63,1L158.24,132l1.87,1,1.33-2.38a10.85,10.85,0,0,0,.51-1.05Z"/><path class="cls-2" d="M165.73,124a7.32,7.32,0,0,0-1.52-.14c-1.35,0-1.78.12-2.05.76l-.54,1.25,1.71.73a7.45,7.45,0,0,0,1.12.4l-.53,1.24a7.4,7.4,0,0,0-1.06-.53l-4.5-1.92a8,8,0,0,0-1.12-.4c.17-.34.29-.6.49-1.06l.85-2c.55-1.27,1.49-1.73,2.59-1.26a1.87,1.87,0,0,1,1.07,1,2,2,0,0,1,.09,1.13c.39-.45.69-.51,3-.5l1,0Zm-4.34-.22a1.23,1.23,0,0,0,0-.92,1.08,1.08,0,0,0-.62-.58c-.6-.26-1.06-.05-1.35.64l-.73,1.71,1.94.83Z"/><path class="cls-2" d="M165.16,119a1.21,1.21,0,0,0,.83,0,1.62,1.62,0,0,0,.91-1.1c.26-.87,0-1.51-.62-1.71a.93.93,0,0,0-.93.18,6,6,0,0,0-.89,1.38,3.21,3.21,0,0,1-.93,1.15,1.79,1.79,0,0,1-1.62.24c-1.2-.38-1.68-1.59-1.22-3.08a2.63,2.63,0,0,1,1.54-1.89,2.39,2.39,0,0,1,1.14-.12l-.24,1.29a1.13,1.13,0,0,0-.7.07,1.46,1.46,0,0,0-.75,1c-.23.75,0,1.38.56,1.55a.86.86,0,0,0,1-.34,7.13,7.13,0,0,0,.69-1.13,3.85,3.85,0,0,1,1-1.25,1.79,1.79,0,0,1,1.71-.26,2.1,2.1,0,0,1,1.31,1,3,3,0,0,1,0,2.28,3.7,3.7,0,0,1-1,1.68,2.08,2.08,0,0,1-1.23.46,2.87,2.87,0,0,1-.77-.06Z"/><path class="cls-2" d="M162.31,110.52a6.5,6.5,0,0,0,1.12.33l4.76,1.08a6.53,6.53,0,0,0,1.16.19l-.3,1.35a7.26,7.26,0,0,0-1.13-.33l-4.76-1.09a7.61,7.61,0,0,0-1.16-.19Z"/><path class="cls-2" d="M169.16,106.57a6.61,6.61,0,0,0,1.17.11l-.2,1.35a8.56,8.56,0,0,0-1.16-.25l-4.9-.74-.18,1.21a10.68,10.68,0,0,0-.13,1.24l-1.2-.18a8.67,8.67,0,0,0,.25-1.21l.54-3.55a8.32,8.32,0,0,0,.13-1.33l1.21.18a8.67,8.67,0,0,0-.27,1.31l-.17,1.12Z"/><path class="cls-2" d="M171,100.3a10.4,10.4,0,0,0-1.17-.13l-1.8-.08L164.58,102l-1,.59.08-1.59a3.43,3.43,0,0,0,.91-.39l2.3-1.21L164.74,98a3.5,3.5,0,0,0-.88-.47l.08-1.58c.18.14.66.51.9.67l3.23,2.26,1.79.09a7.48,7.48,0,0,0,1.18,0Z"/><polygon class="cls-2" points="95.53 95.53 95.53 95.53 95.53 95.53 95.53 95.53"/><path class="cls-2" d="M51.6,53.4a1.25,1.25,0,0,1-.89-.54,6,6,0,0,1-.6-1,5.16,5.16,0,0,0-1-1.46L49,50.24a1,1,0,0,1-.39-.5.19.19,0,0,1,0-.15.09.09,0,0,1,.07,0,.14.14,0,0,1,.09,0c.27.17.55.32.83.48l.5.27.35.23L51,51l.34.29a2.28,2.28,0,0,1,.9,1.36.79.79,0,0,1-.22.6A.5.5,0,0,1,51.6,53.4Z"/><path class="cls-2" d="M54.77,49.63h-.08l-.09-.09a2.61,2.61,0,0,1-.24-.23l-.11-.12a1.34,1.34,0,0,0-.34-.33.81.81,0,0,0-.43-.14.54.54,0,0,0-.22,0l-.17.08-.12.06-.12,0a.29.29,0,0,1-.2-.09.44.44,0,0,1-.1-.32.72.72,0,0,1,.09-.27.59.59,0,0,0,.2-.61.35.35,0,0,0-.33-.26h-.09a.79.79,0,0,0-.33.2l-.11.09,0,0a.61.61,0,0,1-.25.08c-.3,0-.31-.28-.26-.65a10.39,10.39,0,0,0,.1-1.85c0-.33,0-.65-.09-1,0-.16,0-.32-.08-.48l0-.11a2,2,0,0,0-.08-.35.54.54,0,0,0-.15-.18.69.69,0,0,0-.24-.15l-.12,0a.38.38,0,0,0-.32.18,2.24,2.24,0,0,0-.2.44,2,2,0,0,0-.09.33l0,.1v.13c0,.21,0,.41.11.55a.87.87,0,0,0,.18.11.67.67,0,0,1,.14.09,1.05,1.05,0,0,1,.13.82.45.45,0,0,1-.26.31.56.56,0,0,1-.23,0,2.52,2.52,0,0,1-.37,0h-.07l-.06.05a7,7,0,0,1-1,1.69.62.62,0,0,1-.45.23.21.21,0,0,1-.2-.1.52.52,0,0,1,0-.28,6.53,6.53,0,0,1,.31-1.43,9.64,9.64,0,0,0,.27-1.09,2.58,2.58,0,0,0-.43-2,1.2,1.2,0,0,0-.26-.29.19.19,0,0,0-.18-.14.16.16,0,0,0-.15.08.19.19,0,0,0,0,.17l-.13.48c-.14.58-.28,1.16-.45,1.73l0,.11a2.33,2.33,0,0,1-.53,1.08,2.17,2.17,0,0,1-.61.43h-.19l-.24,0-.1,0a.82.82,0,0,1-.57-.37.58.58,0,0,1,.14-.54,3.58,3.58,0,0,0,1-1,4.36,4.36,0,0,0,.4-1.11,7,7,0,0,0,.22-1,5.84,5.84,0,0,0,0-.83v-.3c0-.12,0-.24,0-.36a2.43,2.43,0,0,0,0-.52,2.9,2.9,0,0,0-.5-1.11,5.06,5.06,0,0,0-1.2-1.2l-.07,0-.2-.14c-.2-.17-.29-.3-.29-.46s.37-.34.54-.41a1.7,1.7,0,0,1,.58-.14.41.41,0,0,1,.22.07,8.86,8.86,0,0,1,1,.71c.2.16.41.32.62.46a.31.31,0,0,0,.19.06.43.43,0,0,0,.35-.19A2.14,2.14,0,0,0,48,37.1S48,37,48,37a.79.79,0,0,1,.64-.55.42.42,0,0,1,.16,0,.52.52,0,0,1,.15.21,2.31,2.31,0,0,1-.16,1.61l-.12.3A3.81,3.81,0,0,0,48.3,40a4,4,0,0,0,.37,1.54.63.63,0,0,0,.13.24.41.41,0,0,0,.3.12.58.58,0,0,0,.41-.17,1.27,1.27,0,0,0,.29-.62c.36-1.28.79-2.56,1.27-3.8a.89.89,0,0,1,.31-.47,1.06,1.06,0,0,1,.33-.09,1.09,1.09,0,0,0,.3-.07l.08,0a.45.45,0,0,1,.18-.05.37.37,0,0,1,.22.12,33,33,0,0,1,6.35,7.18,2.18,2.18,0,0,1,.33.82.78.78,0,0,1-.26.75,1.21,1.21,0,0,1-.47.18,14.75,14.75,0,0,1-3,.31h0l-.77,0h-.12l0,.05,0,0a1.34,1.34,0,0,1-.28.77l0,.06a.74.74,0,0,0-.19.32c-.06.34.25.56.51.74a1.52,1.52,0,0,1,.71,1.4.48.48,0,0,1-.05.14A.77.77,0,0,1,54.77,49.63Zm-1.49-5.37a.19.19,0,0,1,.11,0c.1.07.07.19,0,.37l0,.11c-.21.46-.42,1-.24,1.2a.31.31,0,0,0,.23.12c.15,0,.26-.14.34-.26.27-.39.44-.5.53-.52h0a.12.12,0,0,1,.12.06.89.89,0,0,0,.14.13l.19.06v0H55a3.65,3.65,0,0,0,2.43-.86c.28-.38-.94-2-2.27-3.51-1.57-1.73-2.66-2.34-3.15-2.34a.36.36,0,0,0-.21.05c-.38.22-1.05,2.57-1.18,3l0,.08.09,0h0a.59.59,0,0,0,.42-.19.7.7,0,0,1,.37-.19.79.79,0,0,1,.65.33,1.13,1.13,0,0,1,0,.77l0,.23c0,.18-.06.36-.08.54-.23.88-.27,1.37-.11,1.58a.21.21,0,0,0,.17.08,1.1,1.1,0,0,0,.48-.21l.1-.12C52.81,44.64,53.06,44.26,53.28,44.26Z"/><path class="cls-2" d="M32.68,75c-.4,0-.85,0-1.33-.1s-.94-.1-1.45-.12-.7-.25-.77-.4a.18.18,0,0,1,0-.17A5.13,5.13,0,0,1,32,73.41a4.3,4.3,0,0,1,1.85.39.4.4,0,0,1,.24.55,1.15,1.15,0,0,1-.68.57,2.94,2.94,0,0,1-.71.07Z"/><path class="cls-2" d="M43.93,72a8.77,8.77,0,0,1-1-.07.38.38,0,0,1-.18-.13.83.83,0,0,0-.19-.18c-.43-.26-1-.58-1.28-.72l-2.44-1.29c-.85-.39-.93-.43-2.28-1.11l-.58-.3,0,.05c-.22.22-.13.85,0,1.46a2.31,2.31,0,0,1,0,1,.22.22,0,0,1-.21.12,2.31,2.31,0,0,1-1-.47,2.47,2.47,0,0,0-.27-.18c-.32-.15-.32-.15-.35-.4l0-.17a4.41,4.41,0,0,0-2.64-3.91l-.18-.11a1.17,1.17,0,0,0-.5-.23.25.25,0,0,0-.23.16,1.3,1.3,0,0,0,.08,1.22l.07.19a8.82,8.82,0,0,1,.88,3.37,3.57,3.57,0,0,1-.43,1c-.06.11-.11.22-.15.3s-.13.18-.18.18-.09-.06-.09-.15a31.65,31.65,0,0,0-.71-4.19c-.19-.84-.37-1.71-.53-2.6-.08-.38-1.16-.95-2.93-1.85-2-1-4.44-2.27-4.26-3a2.53,2.53,0,0,1,.5-.7.59.59,0,0,1,.31-.07,3.51,3.51,0,0,1,1.6.61,1.64,1.64,0,0,1,.46.45,2,2,0,0,0,.41.4,8.64,8.64,0,0,0,1.55,1c.34.19.73.41,1.29.77a.57.57,0,0,0,.31.1.45.45,0,0,0,.35-.2c.52-.74.21-3.38.15-3.56a.89.89,0,0,1,0-.32,1.62,1.62,0,0,1,.23-.55c0-.08.08-.15.12-.24s.17-.34.28-.34l.12,0s.08.08.11.31a2.39,2.39,0,0,0,.24.78l.1.22c.16.34.41.85.68,1.4.66,1.33,1.56,3.15,1.64,3.43.33,1.23.64,1.81,1,1.81H34c.22,0,.35-.13.56-.55a.4.4,0,0,1,.26-.16c.13,0,.25.15.38.45a3.28,3.28,0,0,0,2.14,2.29l1,.51c.64.33,1.39.72,2.24,1.18l.57.32c.27.16.55.32.83.46l.1,0a2.37,2.37,0,0,0,1,.32.57.57,0,0,0,.27-.06l.06,0s0,0,.08,0h0c.34,0,.76.46,1,.73a1,1,0,0,1,.13,1.13s-.07.12-.65.12ZM30.26,60.9c-.07,0-.23,0-.26.37a3.05,3.05,0,0,0,.14,1.7l.05.07.08.08a4.52,4.52,0,0,0,.79.61l.09.06a4.21,4.21,0,0,0,1.33.69.27.27,0,0,0,.13,0c.08,0,0-.14,0-.21a1.74,1.74,0,0,0-.16-.34l-.06-.09-.3-.5-.44-.67-.18-.27c-.24-.35-.45-.67-.63-.91l-.09-.13a1.18,1.18,0,0,0-.3-.36A.4.4,0,0,0,30.26,60.9Z"/><path class="cls-2" d="M134.13,47.3a5.67,5.67,0,0,1-2.61-.6,1.86,1.86,0,0,1-1-1.12,8.07,8.07,0,0,0,3.09.61,7.77,7.77,0,0,0,1.27-.1,8.27,8.27,0,0,0,3.91-1.78l.15-.12-.19,0c-.33,0-.83-.11-1-.11-1.61,0-2.5-.48-3-1.41a3.89,3.89,0,0,1-.24-1.91s.06-.06.08-.06a.38.38,0,0,1,.22.11l.9.74a11.55,11.55,0,0,0,4.62,1.62,20.4,20.4,0,0,0,4-4.49,2,2,0,0,1,.53-.55A.41.41,0,0,1,145,38a.11.11,0,0,1,.1,0,.4.4,0,0,1,.08.31c0,.33,0,.62,0,.9a2.52,2.52,0,0,1-.4,1.87,12.78,12.78,0,0,1-1.67,1.45,16.68,16.68,0,0,0-1.47,1.24l-.1.11.14,0c1.23.32,2.22.6,3.12.86a5.39,5.39,0,0,1,1.36.56c.25.16.53.5.37.76a.41.41,0,0,1-.39.17h0a1.27,1.27,0,0,1-.43-.08,12,12,0,0,1-1.29-.52,12.19,12.19,0,0,0-1.59-.62,5.66,5.66,0,0,0-1.5-.2,3.71,3.71,0,0,0-1.49.27,3.17,3.17,0,0,0-.68.44l-.44.32a11.17,11.17,0,0,1-1.09.55,9.77,9.77,0,0,1-2.59.74A6.29,6.29,0,0,1,134.13,47.3Z"/><path class="cls-2" d="M141.53,52a.92.92,0,0,1-.28,0,3.71,3.71,0,0,0-.71-.16,3.85,3.85,0,0,1-1.13-.34l-.14-.07c-.42-.23-.54-.29-.52-1a2,2,0,0,1,.11-.53l.07-.21c.11-.37.23-.78.34-1.21a19.53,19.53,0,0,1,.63-2l.06-.19c0-.15.11-.33.16-.46a.4.4,0,0,1,.34-.18c.27,0,.26.13.23.35a.76.76,0,0,1,0,.15,5.74,5.74,0,0,1-.12.67,7.78,7.78,0,0,0-.22,1.76,3.67,3.67,0,0,0,1,2.48,5.36,5.36,0,0,1,.53.55.3.3,0,0,1,.06.3.44.44,0,0,1-.38.16Z"/><path class="cls-2" d="M159.34,74.19A.73.73,0,0,1,159,74l-.15-.11-.46-.3c-.87-.58-2.67-1.79-3.45-2.17a3.24,3.24,0,0,0-.64-.4c-.07-.07-.05-.15,0-.32a.41.41,0,0,0-.24-.6.76.76,0,0,0-.27,0,.87.87,0,0,0-.48.15c-.36.24-.72.52-1.06.79a13.43,13.43,0,0,1-1.36,1l-2,1.18a.89.89,0,0,1-.43.11,1.54,1.54,0,0,1-.65-.17,1.38,1.38,0,0,0-.28-.1.3.3,0,0,1-.24-.16.46.46,0,0,1-.05-.47,8.76,8.76,0,0,0,.24-3.25c0-.33-.05-.73-.06-1.12s0-.81-.05-1.15,0-.6.18-.68l.08,0s0,0,.08.07a5.06,5.06,0,0,1,.35,1.31c.05.28.1.57.17.83a10.6,10.6,0,0,0,.82,2,.6.6,0,0,0,.55.42,1.5,1.5,0,0,0,.66-.23,2.67,2.67,0,0,1,.39-.18c.29-.1.61-.19.91-.27a8.06,8.06,0,0,0,.91-.27l.39-.18a.27.27,0,0,0,.23-.18c.06-.19-.12-.41-.23-.52l-.09-.11a4.49,4.49,0,0,1-.5-.67,4,4,0,0,1-.58-2.16c0-.09.18-.17.32-.2h0c.57,0,3.22,2.44,4.64,3.75.53.49,1,.87,1.15,1s.41.36.64.55.55.46.78.69l.22.2a1,1,0,0,1,.42.77c.07.46.11,1.09-.35,1.34Z"/><path class="cls-2" d="M161.25,71.41a1.47,1.47,0,0,1-.52-.18,1.81,1.81,0,0,0-.33-.14,18,18,0,0,1-2.07-1.36l-.26-.16c-.26-.16-.62-.37-.69-.55s0-.19,0-.25a.18.18,0,0,1,.15-.06h.09a6.8,6.8,0,0,1,1.31.62,3.13,3.13,0,0,0,.93.3h0c.13,0,.19,0,.21-.1a.32.32,0,0,0-.1-.35,35.32,35.32,0,0,0-6-4.39l-.49-.28a8.78,8.78,0,0,0-1-.52,6.18,6.18,0,0,1-2.69-2.65,1.51,1.51,0,0,1,.48-1.59.6.6,0,0,1,.26-.07c.17,0,.25.14.4.45l.14.27a2.76,2.76,0,0,0,.56.83l1.13,1.13a38.34,38.34,0,0,0,3,2.84c.61.49,1.32,1,2,1.57a22.62,22.62,0,0,1,3.72,3.16,2.35,2.35,0,0,1-.12,1.4.16.16,0,0,1-.14.07Z"/><path class="cls-2" d="M167.6,70.32a1.2,1.2,0,0,0-.33,0h-.38a13.17,13.17,0,0,1-4.12-.68c-.22-.09-1.6-1.07-1.68-1.56a.14.14,0,0,1,0-.14.22.22,0,0,1,.17-.07,1,1,0,0,1,.48.19,1.13,1.13,0,0,0,.5.18h.16a.55.55,0,0,0,.22,0h.06a.67.67,0,0,1,.31.1.66.66,0,0,0,.3.12h0a.64.64,0,0,0,.42-.19.92.92,0,0,1,.21-.13.25.25,0,0,1,.15-.07s.08.07.1.13a.37.37,0,0,1,0,.18.6.6,0,0,0,.13.41,4.8,4.8,0,0,0,1.75.34l.42,0a.42.42,0,0,1,.15,0,.48.48,0,0,0,.22.06H167a.22.22,0,0,0,.16-.09.25.25,0,0,0,.05-.2,13.68,13.68,0,0,0-2.51-2.2,3.71,3.71,0,0,0-1.49-.44,5.63,5.63,0,0,1-1-.21l-.06,0-.1,0a1.06,1.06,0,0,0-.38-.1.24.24,0,0,0-.23.12.71.71,0,0,0,0,.21,1.87,1.87,0,0,1-.31,1,.64.64,0,0,0-.14.29c0,.11,0,.12-.09.12l-.12,0a.91.91,0,0,1-.52-.37,1.25,1.25,0,0,1,0-.68l.05-.1a1,1,0,0,0,.14-.57.77.77,0,0,0-.63-.5l-.07,0a3.1,3.1,0,0,1-.76-.26c-.14-.06-.69-.34-.79-.57a.12.12,0,0,1,0-.13.15.15,0,0,1,.13-.07.83.83,0,0,1,.27.07l.21.07a5.11,5.11,0,0,0,1.26.29.39.39,0,0,0,.33-.11.23.23,0,0,0,0-.22c0-.16-.17-.26-.32-.34l-.21-.11a11.51,11.51,0,0,0-2.17-1,3.2,3.2,0,0,0-.47-.09c-.33,0-.56-.08-.74-.41s-.09-.35,0-.44a1.86,1.86,0,0,0,.13-.23.88.88,0,0,1,.37-.45,2.64,2.64,0,0,1,.68-.27,2.19,2.19,0,0,0,.49-.27.66.66,0,0,0,.22-.31.38.38,0,0,1,.26-.28h.08c.06,0,.11,0,.16.21a.74.74,0,0,1-.11.61,2.49,2.49,0,0,1-.17.31,1.79,1.79,0,0,0-.33.79c0,.26.27.37.5.46a1.85,1.85,0,0,1,.24.11l.09.06a1,1,0,0,0,.5.23c.1,0,.26,0,.29-.32v-.15a.71.71,0,0,1,0-.14.4.4,0,0,1,0-.29.38.38,0,0,1,.28-.07h.15a.52.52,0,0,0,.37-.31l0-.06a2.13,2.13,0,0,0,.23-.33,1.88,1.88,0,0,1,.23-.33c.11-.12.22-.23.29-.23s.14.1.18.18a3.72,3.72,0,0,1-.25,1.66,2.64,2.64,0,0,1-.24.52l-.15.23-.05.07c-.09.13-.1.19,0,.4.27.59,1.35.9,2.15,1.13l.26.07.2,0c.19,0,.31-.07.35-.19s0-.23-.23-.35a4,4,0,0,0-.81-.37,3.08,3.08,0,0,1-1-.52c-.07,0-.07-.07-.07-.07s0,0,.12-.12l.11,0a1.93,1.93,0,0,1,.71.23.6.6,0,0,0,.28.09.23.23,0,0,0,.18-.07.41.41,0,0,0,.06-.33l-.05-.12c-.1-.2-.29-.58-.21-.76a.17.17,0,0,1,.1-.1h.1c.1,0,.16.06.26.22a2.51,2.51,0,0,0,.41.58l.21.26a2.6,2.6,0,0,0,1.46.88c.59.05,1.2.13,1.87.24.34.06,1.23.65,1.28,1,0,.07,0,.17-.18.25a.58.58,0,0,1-.25.05,6.91,6.91,0,0,1-2-.59l-.37-.15a.85.85,0,0,0-.25,0,.38.38,0,0,0-.28.11.56.56,0,0,0-.09.43,1.68,1.68,0,0,1,0,.47c-.05.28-.1.52.43.69a7,7,0,0,1,2.53,2.45c.14.3.17.5.09.65a.8.8,0,0,1-.44.33.9.9,0,0,1-.26.09Z"/><path class="cls-2" d="M78.25,28a.76.76,0,0,1-.72-.59c-.1-.36.28-1,.45-1.27a2.3,2.3,0,0,0,.12-.83.22.22,0,0,0-.24-.25.63.63,0,0,0-.31.1,2.1,2.1,0,0,0-.58.57,2.93,2.93,0,0,1-.46.47c-.43.31-.79.54-1.1.72l-.35.19a.87.87,0,0,1-.37.09h0c-.08,0-.11,0-.12,0s0-.08.09-.2C75,26.47,75.93,25,76,25c.89-1,1.56-1.8,2.15-2.53a1.94,1.94,0,0,1,.94-.72.89.89,0,0,1,.24-.06.83.83,0,0,1,.26.07,3.53,3.53,0,0,1,.93.7.38.38,0,0,1-.06.36,2.63,2.63,0,0,0-.24.4,1.45,1.45,0,0,1-.37.5,1.78,1.78,0,0,0-.57,1.09.58.58,0,0,0,.12.49.69.69,0,0,0,.51.26h.4c.35,0,.37,0,.37.26,0,.62-1.35,1.81-2,2.09A1.21,1.21,0,0,1,78.25,28Z"/><path class="cls-2" d="M75.87,39.78a.55.55,0,0,1-.35-.12,1.06,1.06,0,0,1-.25-1,16.47,16.47,0,0,1,.38-2c.1-.4.2-.81.27-1.22a15.37,15.37,0,0,0,.22-3.42V32a3.1,3.1,0,0,1,.21-1.58c.1-.19.17-.28.25-.28a.21.21,0,0,1,.12,0,.54.54,0,0,1,.21.39,11.81,11.81,0,0,1,.21,5.36.67.67,0,0,0,.07.48.25.25,0,0,0,.18.08.36.36,0,0,0,.23-.12,7.67,7.67,0,0,0,1.22-1.73.44.44,0,0,0,0-.37.55.55,0,0,0-.18-.19c-.8-.55,0-1.77.5-2.51l.26-.39c.2-.32.36-.57.48-.78l0-.05,0,0-.27-.36c-.37-.48-1.07-1.38-1-1.66h0l0-.06a.25.25,0,0,1,.12,0l.1,0a1.67,1.67,0,0,1,.67.83,1.89,1.89,0,0,0,.52.74l.08,0,.07-.06a3.06,3.06,0,0,0,.19-.75l0-.1s0-.1,0-.14a1.74,1.74,0,0,0-.09-.43c-.13-.52-.21-1,.13-1h0a.46.46,0,0,1,.31.15l.09.07.49.4c.13.11.41.34.41.56a2.84,2.84,0,0,1-.21,1.65c0,.12-.07.19-.09.24a.51.51,0,0,0-.06.22.64.64,0,0,0,.09.5l.46.37,2.28,1.84a.67.67,0,0,0,.34.18c.08,0,.18,0,.23-.22a.54.54,0,0,0,0-.22s0-.08,0-.12a2.1,2.1,0,0,1,.06-.24c.08-.23.15-.41.23-.6a3.13,3.13,0,0,0,.12-.32,2.51,2.51,0,0,1,.1-.26c.06-.19.12-.45.17-.7s.06-.27.09-.39.08-.24.16-.26a.21.21,0,0,1,.11,0s.08,0,.12.08.06.61,0,.8,0,.2,0,.25a8,8,0,0,0,.5,2.46,1,1,0,0,1-.12.89c-.19.35-.42.69-.79.72H85.6A4.11,4.11,0,0,1,84.48,35c-.75-.57-2.82-2.56-2.85-2.58a5,5,0,0,0-.61-.66,1.2,1.2,0,0,0-.38-.15h0c-.15,0-.25.14-.42.36s-.3.35-.44.51a7.37,7.37,0,0,0-.71.86.41.41,0,0,0-.1.22.34.34,0,0,0,.19.29,1.32,1.32,0,0,0,.39.1c.21,0,.39,0,.47.22a.46.46,0,0,1-.06.35s0,.08,0,.12a5,5,0,0,1-1.28,2.21l-.31.3a6,6,0,0,0-1.09,1.21l-.21.38a3.14,3.14,0,0,1-.46.7A1,1,0,0,1,75.87,39.78Z"/><path class="cls-2" d="M110.23,25.15a.93.93,0,0,1-.26,0c-.17-.08-.24-.17-.26-.26s.13-.33.37-.49l.19-.14a2.69,2.69,0,0,0,.42-.66,3.73,3.73,0,0,0,.32-.88.36.36,0,0,1,.4-.32,1.84,1.84,0,0,1,.65.17.74.74,0,0,1,.16.27.6.6,0,0,0,.08.16,1.57,1.57,0,0,1,.15,1.24,1.31,1.31,0,0,1-.59.87.75.75,0,0,1-.26.05l-.16,0-.12,0a.56.56,0,0,0-.2,0l-.17,0h-.09l-.21,0-.22,0Z"/><path class="cls-2" d="M111.22,37,111,37a.28.28,0,0,1-.08-.2c0-.07,0-.11.12-.14a9,9,0,0,0,2.15-1.27.36.36,0,0,0,.09-.37.34.34,0,0,0-.33-.23h-.28a.6.6,0,0,1-.45-.25,1.48,1.48,0,0,1-.33-1,.22.22,0,0,1,.23-.15.18.18,0,0,1,.1,0,1.24,1.24,0,0,0,.47.24.83.83,0,0,0,.42.07,4,4,0,0,0,.77-.09,12.54,12.54,0,0,0,.92-1.87l0-.14-.14,0a2.55,2.55,0,0,0-.59.19,3.4,3.4,0,0,0-.63.32,1,1,0,0,1-.56.24h-.11a.66.66,0,0,1-.37-.31.53.53,0,0,1,0-.41,2.11,2.11,0,0,1,.86-1l.29-.23c.16-.12.33-.25.48-.38a1.87,1.87,0,0,0,.33-.37c.07-.07.13-.15.2-.23l0-.05c.09-.09.23-.21.23-.35a.25.25,0,0,0-.08-.16.26.26,0,0,0-.18-.06.66.66,0,0,0-.3.09,2.39,2.39,0,0,0-.36.33.58.58,0,0,1-.48.29h0c-.35,0-.48-.11-.58-.46a1.29,1.29,0,0,1,.16-.88,18.06,18.06,0,0,1,3-2.75c.29-.19.87-.65,1.71-1.35a1.66,1.66,0,0,1,.61-.35c.14,0,.21,0,.24.09a.16.16,0,0,1,0,.16,7.19,7.19,0,0,1-1.67,1.62c-.85.67-1.65,1.31-1.81,1.88a.26.26,0,0,0,0,.22.24.24,0,0,0,.2.09.52.52,0,0,0,.26-.08c.15-.05.43-.18.76-.33a8.21,8.21,0,0,1,2.21-.81h.07a.35.35,0,0,1,.26.13.24.24,0,0,1,.07.2c-.1.49-1.1,1-2,1.26a4.17,4.17,0,0,0-2,1.76.34.34,0,0,0,.11.41.25.25,0,0,0,.16,0,2.1,2.1,0,0,0,.63-.15l.13-.08a6.46,6.46,0,0,1,1.37-.66.32.32,0,0,1,.14,0,.59.59,0,0,1,.45.23.42.42,0,0,1,.08.37.43.43,0,0,1-.21.23l-.09.07,0,0,0,.07c0,.16.3.39.39.44l.18.1c.3.16.46.26.38.55a1.19,1.19,0,0,1-.26.59,2.26,2.26,0,0,1-.73.58c-.13.07-.29.15-.52.29l-.16.09a9,9,0,0,0-1.52,1,2.17,2.17,0,0,0-.25.23l-.17.17a9.89,9.89,0,0,0-1,1.05,6.47,6.47,0,0,1-.91.75c-.19.14-.38.28-.55.42a1.2,1.2,0,0,1-.56.18h-.09A3.83,3.83,0,0,1,111.22,37Zm5.83-6.15a.88.88,0,0,0-.48.13.92.92,0,0,0-.31.4.59.59,0,0,0-.07.17l-.06.23-.09.46,0,.07c-.07.17-.16.4,0,.51h.19a.44.44,0,0,0,.22-.14q.15-.14.3-.3l.11-.12.2-.22a2.63,2.63,0,0,0,.35-.63.35.35,0,0,0,0-.13.28.28,0,0,0,0-.29A.45.45,0,0,0,117.05,30.88Z"/><path class="cls-2" d="M107.28,36.92a.49.49,0,0,1-.37-.13.31.31,0,0,1-.07-.26,2.35,2.35,0,0,0,0-.65v-.07l0-.34v-.19s0,0,0,0l.1.11a.9.9,0,0,0,.64.37.5.5,0,0,0,.34-.15,3,3,0,0,0,1.07-.94,3.63,3.63,0,0,0,.74-1.28.63.63,0,0,0-.06-.47.82.82,0,0,0-.58-.33l-.25,0a.72.72,0,0,0-.45.15c-.39.29-.76.63-1.09.93l-.8.74-.94.87c-.2.18-.4.36-.61.53a2.9,2.9,0,0,1-1.09.48l-.27,0a1.44,1.44,0,0,1-.4-.06.7.7,0,0,1,.17-.22c.18-.21.33-.35.48-.5l.06-.06c.44-.43.89-.85,1.34-1.27l.23-.21c.54-.5,1.08-1,1.61-1.5.7-.67,1.26-1.23,1.77-1.77l.16-.16c.3-.31.65-.65.54-1.14l0-.09-.09,0a2.28,2.28,0,0,0-.53.24l-.24.12c-.28.14-.56.27-.85.39l-.07,0a3,3,0,0,1-1,.26.82.82,0,0,1-.28,0,1.78,1.78,0,0,1-1.17-1.32,1.64,1.64,0,0,1,0-.82.35.35,0,0,1,.34-.24l.21,0,.82.16.69.14.22,0a3.71,3.71,0,0,0,.59-.07l.34-.17a24.34,24.34,0,0,1,3.39-1.58l.24.12a1,1,0,0,1,.18.1.3.3,0,0,1,.17.22.61.61,0,0,1,0,.13l0,.18a.83.83,0,0,1,0,.15.5.5,0,0,1-.22.24,2.33,2.33,0,0,1-.65.26l-.32.1a1.22,1.22,0,0,0-.8.54v.1s0,.06.05.08a3.45,3.45,0,0,0,.27.25c.32.28.68.59.53.94a2.92,2.92,0,0,1-1.34,1.35c-.19.12-.38.24-.56.37s-.16.13-.14.25,0,.1.12.15a.5.5,0,0,0,.19,0,1.39,1.39,0,0,0,.32,0l.12,0a.71.71,0,0,1,.2,0h0a2,2,0,0,1,.61.12l.1,0a.73.73,0,0,1,.28.19.81.81,0,0,1,.2.38,1.53,1.53,0,0,1,0,.3c0,.06,0,.13,0,.19s-.07.23-.22.37l-3.44,3.23a.84.84,0,0,1-.44.12Z"/><path class="cls-2" d="M117.16,38a1.24,1.24,0,0,1-.45-.07l-.13,0c-.39-.17-.57-.33-.63-.52s0-.11,0-.2a.66.66,0,0,0,.1-.28,1.21,1.21,0,0,0-.21-.53l-.13-.22a1.73,1.73,0,0,0-.15-.27,1.14,1.14,0,0,1-.12-.19c-.07-.18-.15-.36-.08-.44l.07,0a.33.33,0,0,1,.21.07l.53.27,1,.56a1.36,1.36,0,0,1,.58,1.52C117.73,37.92,117.53,38,117.16,38Z"/><polygon class="cls-2" points="95.53 95.53 95.53 95.53 95.53 95.53 95.53 95.53"/><path class="cls-1" d="M116.22,76.76a.48.48,0,0,1-.39-.41,20.43,20.43,0,0,0-40.6,0,.49.49,0,0,1-.39.41A14.68,14.68,0,0,0,62.62,92.65a14.93,14.93,0,0,0,15,13.23h0a.83.83,0,0,0,.83-.83v-2.58a.83.83,0,0,0-.83-.83h-.1a10.63,10.63,0,0,1-10.69-9.41A10.44,10.44,0,0,1,77.21,80.8h1.16a1,1,0,0,0,1-1v-.76A16.46,16.46,0,0,1,94.9,62.49a16.22,16.22,0,0,1,16.83,16.19v1.16a1,1,0,0,0,1,1h.85a10.63,10.63,0,0,1,10.69,9.42,10.44,10.44,0,0,1-10.38,11.42h-.41a.93.93,0,0,0-.92.93V105a.92.92,0,0,0,.92.92h0a14.94,14.94,0,0,0,15-13.23A14.68,14.68,0,0,0,116.22,76.76Z"/><path class="cls-1" d="M96.06,85.28H94.8a.48.48,0,0,1-.34-.14L91.9,82.58a.48.48,0,0,0-.34-.14h-9a1,1,0,0,0-1,1v17.17a1,1,0,0,0,1,1h7.12a1,1,0,0,0,1-1V98.44a1,1,0,0,0-1-1H86.11a.48.48,0,0,1-.48-.48V87a.49.49,0,0,1,.48-.48H90a.48.48,0,0,1,.34.14l2.47,2.48a.49.49,0,0,0,.34.14h4.58a.48.48,0,0,0,.34-.14l2.49-2.48a.47.47,0,0,1,.33-.14h3.87a.48.48,0,0,1,.48.48V97a.48.48,0,0,1-.47.48l-10.44.05a1,1,0,0,0-1,1v16.72a1,1,0,0,0,1,1l2.42,0a1,1,0,0,0,1-1V101.53h10.64a1,1,0,0,0,1-1V83.44a1,1,0,0,0-1-1H99.26a.48.48,0,0,0-.34.14L96.4,85.14A.48.48,0,0,1,96.06,85.28Z"/><path class="cls-1" d="M85.56,121.63v10H84.28v-7H81.9v-1c1.62.07,2.53-.58,2.71-1.94Z"/><path class="cls-1" d="M88.6,129.22h1.22a1.57,1.57,0,0,0,1.72,1.61c1.25.07,2-1.17,2.38-3.72h-.06a2.46,2.46,0,0,1-2.27,1.17c-2-.08-3-1.15-3.1-3.22q.17-3.27,3.21-3.43c2.26,0,3.42,1.57,3.49,4.6-.14,3.62-1.36,5.46-3.65,5.54Q88.76,131.65,88.6,129.22Zm3.21-2c1.22,0,1.85-.8,1.89-2.27s-.74-2.07-2-2.11-1.9.81-1.94,2.22S90.41,127.21,91.81,127.17Z"/><path class="cls-1" d="M99.08,123.07l-.39,2.71a3.13,3.13,0,0,1,1.88-.61q3.11.28,3.33,3.22c-.19,2.18-1.41,3.3-3.66,3.38-2-.08-3-1-3.21-2.66H98.3a1.88,1.88,0,0,0,2.16,1.72c1.22-.08,1.91-.84,2.05-2.28a2.1,2.1,0,0,0-2.16-2.21,2.45,2.45,0,0,0-1.88.94l-1-.06.72-5.37h5.15v1.22Z"/><path class="cls-1" d="M109.16,121.63v10h-1.27v-7H105.5v-1c1.63.07,2.53-.58,2.72-1.94Z"/><path class="cls-1" d="M95.83,0C43.16-.08.08,42.8,0,95.38S42.86,191,95.53,191.06,191,148.27,191.06,95.68,148.51.08,95.83,0Zm-.29,187.43c-50.68-.08-92-41.44-91.9-92S45.14,3.56,95.83,3.64c50.37.08,91.67,41.43,91.59,92S145.91,187.5,95.54,187.43Z"/><path class="cls-1" d="M95.53,47.11A48.42,48.42,0,1,0,144,95.53,48.42,48.42,0,0,0,95.53,47.11Zm0,94.93A46.51,46.51,0,1,1,142,95.53,46.51,46.51,0,0,1,95.53,142Z"/></g></g></svg>