<svg xmlns="http://www.w3.org/2000/svg" xmlns:xlink="http://www.w3.org/1999/xlink" width="278.2362976074219" height="278.23638916015625" viewBox="0 0 278.2362976074219 278.23638916015625" fill="none">
<path d="M139.118 0C215.737 0 278.236 62.4963 278.236 139.118C278.236 215.74 215.737 278.236 139.118 278.236C62.499 278.236 0 215.743 0 139.118C0 62.4932 62.49 0 139.118 0ZM139.118 3.6731C64.5168 3.6731 3.67 64.5171 3.67 139.118C3.67 213.719 64.5168 274.563 139.118 274.563C213.719 274.563 274.563 213.719 274.563 139.118C274.563 64.5169 213.719 3.6731 139.118 3.6731Z" fill-rule="evenodd"  fill="#004098" >
</path>
<path d="M25.1659 131.111C27.4436 131.111 29.2991 132.967 29.2991 135.245C29.2991 137.519 27.4436 139.378 25.1659 139.378C22.8911 139.378 21.0356 137.519 21.0356 135.245C21.0356 132.967 22.8911 131.111 25.1659 131.111Z" fill-rule="evenodd"  fill="#004098" >
</path>
<path d="M139.118 46.662C170.095 46.662 197.655 61.7556 214.832 84.9597C213.858 84.7383 212.863 84.5938 211.863 84.5436C202.086 84.0334 196.038 92.7513 193.877 101.452C191.777 109.887 191.488 118.932 191.131 127.937C190.88 134.174 191.078 139.815 189.738 145.217C187.936 152.513 184.018 160.118 175.716 164.5C188.432 128.468 148.953 98.9028 111.651 109.052C128.828 113.486 157.701 119.304 156.067 154.232C154.716 182.948 140.759 192.867 140.759 192.867C149.503 179.127 149.253 153.639 140.573 140.564C126.146 118.823 106.449 119.882 94.1054 117.764C83.626 115.964 66.6705 111.754 53.8222 101.004C68.8716 68.9513 101.472 46.662 139.118 46.662ZM215.117 85.352C212.15 86.3847 206.54 88.2258 205.829 101.015C205.251 111.415 208.877 124.249 211.453 134.604C214.542 147.007 213.066 160.036 205.897 170.863C199.853 179.983 188.736 189.477 168.473 196.103C168.473 196.103 125.063 209.037 116.404 221.762C116.404 221.116 116.657 220.446 117.056 219.77C120.174 214.475 122.313 211.663 124.189 205.518C136.451 165.338 113.828 156.767 83.4253 150.937C83.4253 150.937 66.7326 146.246 57.2768 133.873C53.4829 128.907 49.9337 116.888 50.8807 107.99C47.0542 118.222 44.9535 129.285 44.9535 140.824C44.9535 192.684 87.2549 234.982 139.118 234.982C190.98 234.982 233.276 192.684 233.276 140.824C233.276 120.112 226.526 100.93 215.117 85.352Z" fill-rule="evenodd"  fill="#004098" >
</path>
<path d="M228.907 86.7534C228.919 85.7327 228.373 85.8506 228.857 84.9035C228.795 84.0569 228.173 83.9063 229.016 83.455C229.624 84.653 229.946 84.7267 231.064 85.6352C232.194 85.4464 233.312 86.5468 234.578 85.7682C234.59 85.6646 234.596 85.5646 234.598 85.4702C234.259 85.1425 233.923 84.8211 233.584 84.4994C233.882 83.2428 232.176 82.567 231.568 81.9771C230.99 82.027 230.902 81.4901 230.781 81.0417C231.014 80.4813 231.633 79.7377 232.223 79.7644C232.454 80.1125 232.938 81.0799 233.386 81.1862C233.746 81.6761 234.424 82.0655 234.758 82.6024C235.005 82.455 235.519 82.0831 235.723 82.1333C236.13 81.8529 236.543 81.6259 236.914 81.3929C236.684 81.0269 236.687 80.9651 236.735 80.6051C237.133 80.3455 238.776 79.5135 239.039 79.6314C239.161 79.8321 239.268 79.9561 239.36 80.0033C240.343 81.0476 243.815 84.9035 245.641 84.3018C245.647 84.2576 245.659 84.2162 245.671 84.172C245.526 83.986 245.379 83.8032 245.231 83.6232C244.712 83.7383 244.494 83.34 244.234 82.9799C243.278 82.7147 243.73 82.868 243.623 82.0596C243.432 81.8768 243.263 81.6171 243.015 81.6171C242.942 81.5168 242.871 81.4192 242.8 81.3249C242.771 81.3396 242.738 81.3575 242.712 81.3781C242.104 80.5167 241.354 80.7024 240.738 79.9795C240.482 79.8478 240.32 79.7328 240.251 79.6346C240.322 79.2156 240.372 79.1388 240.239 78.8026C240.213 78.8202 240.18 78.8409 240.148 78.8584C240.124 78.8142 240.098 78.7759 240.074 78.7377C239.765 78.8261 238.723 77.6724 238.558 77.4984C237.841 77.0499 236.079 75.8256 235.171 76.153C234.244 75.0498 231.271 78.5959 229.601 76.4127C229.748 76.2386 229.795 76.0144 229.937 75.7607C230.618 75.3063 231.167 74.9404 231.92 74.7074C232.647 74.6898 233.19 74.6554 233.548 74.6042C235.469 73.8252 237.678 73.4978 239.679 73.1024C239.72 73.1704 239.764 73.241 239.806 73.3119C239.307 73.6396 239.006 74.1645 238.466 74.4979C238.375 74.5098 238.132 74.6416 237.737 74.8933C237.988 75.6309 238.95 75.1825 239.086 74.6189C239.487 74.3771 239.637 74.3624 239.935 74.1764C239.994 73.9375 241.871 72.955 242.157 72.7838C242.54 72.3915 242.965 71.7248 243.52 71.7307C245.24 72.8666 241.753 74.5245 241.762 75.2267C241.785 75.2414 241.809 75.2621 241.838 75.2828C243.078 74.7695 245.414 73.961 246.181 72.8841C246.169 72.7985 246.143 72.716 246.125 72.6364C246.515 72.3118 246.603 72.536 246.978 72.7484C247.406 73.5245 246.588 73.9344 246.007 74.4508C245.999 74.6337 246.018 74.7754 246.063 74.8758C246.391 74.9937 246.813 74.9965 247.049 75.1884C247.942 74.8256 248.954 74.5982 249.863 74.3533C250.303 74.0849 250.745 73.8164 251.188 73.5568C251.433 73.9196 251.418 73.8754 251.356 74.374C251.542 75.3772 251.141 75.513 250.244 75.8934C250.433 76.2239 250.385 76.3359 250.318 76.7874C250.208 76.8524 250.099 76.9232 249.981 76.9938C249.84 76.8699 249.701 76.7461 249.553 76.631C249.441 76.6783 249.32 76.7313 249.208 76.7874C249.173 76.758 249.143 76.7285 249.12 76.7018C248.633 76.8436 248.264 76.805 247.948 77.2535C248.052 77.817 248.152 77.9499 247.768 78.4542C247.78 78.4928 247.786 78.5339 247.798 78.5784C246.904 79.3749 245.7 79.6402 244.588 80.1125C244.317 80.502 245.429 81.3339 245.795 81.5905C246.677 81.2985 247.122 81.3427 247.102 80.2185C247.459 79.8262 247.529 79.7791 247.547 79.304C247.816 79.1388 248.013 79.4072 248.317 79.2184C248.465 77.4661 248.689 78.3422 250.058 78.823C250.725 78.9352 250.837 78.8939 251.326 79.3718C251.825 79.4013 252.005 80.0033 252.259 80.3925C251.881 81.8147 250.583 81.7203 249.559 82.6143C248.99 82.8532 248.423 83.0951 247.851 83.3372C247.848 83.4137 247.839 83.4904 247.833 83.576C249.014 85.6236 249.689 88.1076 246.429 88.0546C245.252 87.6769 244.995 86.957 244.116 86.0366C244.072 86.0601 244.033 86.0868 243.998 86.1103C243.874 85.8801 243.842 85.8594 243.641 85.7415C242.886 84.4141 242.249 84.9538 241.104 85.4731C240.558 85.3846 239.894 85.2931 239.378 85.5054C239.337 85.6352 239.292 85.7622 239.251 85.892C239.788 86.6857 240.417 87.7328 240.49 88.7715C240.31 89.0634 240.074 90.0518 239.496 89.934C239.263 90.0077 239.027 90.0785 238.791 90.1581C238.626 90.0016 238.452 89.8484 238.277 89.695C238.165 89.7066 238.053 89.7157 237.935 89.7272C237.54 89.2287 237.502 87.7774 236.723 87.7507C236.256 88.1243 236.013 88.3427 235.994 88.4058C234.309 89.2052 231.627 90.3589 230.202 88.3997C229.722 88.1785 229.196 87.1753 228.907 86.7534ZM244.874 77.3657C244.957 77.4482 245.034 77.5338 245.11 77.6254C245.358 77.4916 245.558 77.3441 245.709 77.1829C245.553 76.9615 245.526 76.9555 245.308 76.8464C245.211 76.1502 246.163 75.746 244.945 75.1558C244.768 75.2149 244.507 75.3595 244.16 75.5895C244.131 76.0173 244.96 76.5544 244.874 77.3657ZM241.676 77.6665C242.139 77.9292 242.248 77.7198 242.679 77.7433C242.715 77.8229 242.753 77.9026 242.791 77.9822C243.216 77.4836 243.367 77.1829 243.606 76.932C243.7 76.4274 243.679 76.3095 244.01 76.0204C243.969 75.9555 243.927 75.8906 243.892 75.8285C243.408 76.0674 241.998 77.2033 241.72 77.1384C241.476 77.292 241.561 77.398 241.676 77.6665ZM248.816 80.496C248.851 80.5224 248.884 80.5518 248.916 80.5816C249.297 80.4427 249.403 80.3957 249.668 80.142C249.441 79.8999 249.353 79.9384 249.016 79.8735C248.91 79.9441 248.801 80.0238 248.695 80.1006C248.742 80.2304 248.78 80.3631 248.816 80.496Z" fill-rule="evenodd"  fill="#004098" >
</path>
<path d="M240.077 102.706C241.018 102.49 241.953 102.284 242.892 102.077C244.585 101.706 246.161 101.638 247.851 101.346C248.22 101.34 249.958 100.974 251.439 100.826C252.386 100.956 253.347 101 254.224 101.352C254.253 101.434 254.28 101.52 254.301 101.602C253.878 102.012 253.852 102.231 253.224 102.564C253.026 102.437 251.651 102.821 251.291 102.898C251.297 102.93 251.303 102.965 251.312 103.001C251.265 103.081 250.872 103.257 250.518 103.567C250.53 103.632 250.53 103.706 250.536 103.777C250.506 103.795 250.468 103.818 250.433 103.842C250.489 104.034 250.545 104.231 250.601 104.429C251.533 104.789 251.99 104.346 252.849 103.915C252.843 103.88 252.834 103.844 252.828 103.809C253.203 103.665 253.958 103.157 254.236 102.921C255.712 102.546 256.675 102.274 257.124 102.107C257.062 101.526 257.088 100.986 256.554 100.664C256.227 98.5931 259.168 100.245 259.685 101.316C260.216 101.921 260.449 102.629 260.679 103.435C260.525 103.736 260.383 103.965 260.251 104.122C258.593 104.455 257.381 104.104 255.708 104.736C255.436 105.09 254.849 105.706 254.448 105.981C254.454 106.125 254.46 106.27 254.466 106.417C255.115 106.559 255.185 106.68 255.731 106.547C255.87 106.827 256.596 106.677 256.805 106.653C256.808 106.506 256.911 106.447 256.959 106.317C257.021 106.293 257.074 106.273 257.127 106.255C257.13 106.22 257.127 106.181 257.124 106.146C257.614 105.813 258.286 106.158 258.611 106.562C258.693 107.031 258.64 107.299 258.693 107.597C258.661 107.615 258.622 107.639 258.581 107.662C258.646 108.22 258.643 108.663 258.779 109.294C258.814 109.285 258.85 109.279 258.885 109.27C259.395 110.731 259.953 110.371 261.352 110.152C261.487 110.09 261.626 110.031 261.765 109.975C261.753 109.925 261.744 109.881 261.732 109.837C262.107 109.677 262.396 109.005 262.361 108.683C263.644 108.465 263.774 109.497 263.839 110.489C263.803 110.506 263.768 110.524 263.733 110.542C263.738 110.624 263.747 110.707 263.753 110.796C263.709 110.804 263.662 110.813 263.611 110.825C263.626 111.197 263.405 111.863 263.007 112.079C262.986 112.406 261.664 113.126 261.328 113.3C261.343 114.135 261.777 114.731 262.181 115.507C262.237 115.51 262.293 115.519 262.346 115.528C262.502 116.135 263.249 117.242 262.868 117.823C262.874 117.891 262.877 117.965 262.877 118.038C262.791 118.092 262.703 118.148 262.614 118.201C262.626 118.257 262.641 118.319 262.656 118.378C262.364 118.547 262.146 118.647 262.001 118.679C261.983 118.77 261.959 118.865 261.936 118.962C260.844 119.301 260.357 119.059 259.918 118.03C259.564 117.764 259.446 117.177 259.171 117.077C259.148 117.003 259.124 116.935 259.098 116.867C259.053 116.876 259.006 116.885 258.956 116.897C258.735 116.54 258.342 116.156 258.195 115.855C258.148 115.864 258.106 115.876 258.053 115.885C258.027 115.79 258 115.699 257.968 115.611C257.932 115.607 257.897 115.605 257.85 115.601C257.776 115.472 257.702 115.342 257.625 115.212C257.575 115.221 257.534 115.23 257.484 115.242C257.463 115.144 257.446 115.056 257.422 114.964C257.168 114.97 257.115 114.764 257.059 114.601C256.469 114.457 256.074 114.112 255.448 114.059C255.086 113.901 254.774 113.801 254.513 113.758C254.504 113.707 254.492 113.663 254.486 113.616C254.291 113.637 253.814 113.203 253.781 113.038C253.448 113.035 253.061 112.282 252.866 112.043C252.79 111.427 252.846 111.341 252.843 111.158C253.111 111.09 253.38 111.026 253.651 110.958C253.846 111.088 254.295 111.052 254.584 111.152C254.831 111.583 255.646 112.843 256.053 112.994C256.416 113.631 257.912 114.885 258.561 115.014C258.572 115.059 258.578 115.103 258.593 115.153C259.239 115.38 259.755 115.664 260.378 115.507C260.166 114.702 260.104 114.658 259.927 114.176C259.891 114.174 259.844 114.174 259.806 114.171C259.599 113.601 259.195 113.182 258.947 112.681C258.744 112.613 258.59 112.53 258.546 112.324C258.511 112.33 258.475 112.338 258.44 112.344C258.242 111.849 257.773 111.515 257.469 111.079C257.147 110.326 256.608 109.795 256.174 109.143C256.112 109.146 256.053 109.149 255.985 109.152C255.973 109.117 255.97 109.081 255.958 109.046C255.472 108.931 254.955 109.028 254.421 109.061C252.71 108.524 253.023 108.716 252.648 106.945C251.984 106.869 251.347 106.878 250.586 106.916C250.176 106.804 249.958 106.683 249.477 106.736C249.406 106.588 249.19 106.388 249.002 106.4C248.948 106.264 248.828 106.094 248.642 105.889C248.453 105.034 248.382 104.287 248.332 103.461C247.633 103.063 245.762 103.665 245.001 103.818C244.644 103.727 243.688 104.075 243.26 104.184C241.986 104.494 240.847 104.824 239.584 105.21C239.527 105.173 239.402 105.152 239.21 105.146C238.87 104.641 238.95 104.237 238.862 103.688C239.233 102.85 239.859 103.039 240.077 102.706Z" fill-rule="evenodd"  fill="#004098" >
</path>
<path d="M244.606 114.56C245.146 114.469 245.683 114.38 246.223 114.295C247.031 114.197 247.063 114.206 247.76 113.973C247.527 113.71 247.441 113.822 247.116 113.707C247.105 113.657 247.096 113.613 247.084 113.569C246.246 113.2 245.155 112.846 244.98 112.737C244.352 112.595 242.139 111.595 241.877 111.058C241.234 110.71 240.239 110.238 240.419 109.397C241.534 109.185 243.074 110.096 243.974 110.695C244.149 110.716 244.319 110.737 244.497 110.763C244.503 110.81 244.514 110.854 244.523 110.905C245.423 111.188 245.476 111.265 245.671 111.309C246.087 111.801 246.96 111.498 247.164 112.026C247.603 112.07 247.804 112.097 248.17 111.958C247.901 110.955 245.871 109.488 247.105 108.707C248.78 108.653 248.612 108.474 249.073 110.055C249.117 110.055 249.155 110.064 249.19 110.07C249.356 110.553 249.71 110.778 249.887 111.309C249.922 111.3 249.958 111.294 249.993 111.285C250.607 112.719 251.441 113.586 252.725 114.421C254.058 114.719 254.525 115.023 254.882 116.368C254.784 116.463 254.675 116.522 254.557 116.546C254.454 116.374 253.578 116.277 253.327 116.224C252.796 115.967 252.545 115.702 251.931 115.852C251.896 115.951 251.878 116.141 251.878 116.422C251.719 116.451 251.551 116.487 251.386 116.522C251.374 116.475 251.368 116.43 251.356 116.386C251.117 116.395 250.952 116.245 250.754 116.109C250.532 116.142 250.101 116.282 249.459 116.528C248.624 117.274 246.547 116.38 245.96 117.28C245.982 117.615 246.149 118.508 246.462 119.959C246.497 119.953 246.532 119.944 246.568 119.938C247.229 121.44 247.243 122.172 248.745 122.614C248.786 122.638 248.822 122.667 248.863 122.694C250.421 122.735 251.961 123.234 253.489 123.364C253.601 123.408 253.719 123.455 253.831 123.505C253.846 123.623 253.861 123.741 253.879 123.862C253.581 124.042 253.404 124.119 253.032 124.199C253.008 124.166 252.973 124.137 252.941 124.107C252.849 124.122 252.755 124.137 252.657 124.151C252.634 124.246 252.601 124.34 252.577 124.441C251.262 124.789 249.955 125.264 248.577 125.571C247.822 125.532 247.066 125.293 246.296 125.216C245.972 125.01 245.76 124.824 245.349 124.854C245.337 124.803 245.332 124.759 245.32 124.712C245.273 124.721 245.228 124.733 245.178 124.741C245.169 124.691 245.157 124.647 245.152 124.603C245.104 124.612 245.057 124.62 245.01 124.632C244.998 124.582 244.987 124.535 244.981 124.491C244.945 124.496 244.91 124.506 244.871 124.511C244.86 124.452 244.851 124.393 244.836 124.337C244.795 124.346 244.748 124.355 244.7 124.367C244.68 124.296 244.659 124.228 244.629 124.16C244.594 124.157 244.553 124.154 244.511 124.154C244.373 123.78 244.028 123.718 243.898 123.334C243.868 123.34 243.833 123.349 243.801 123.355C243.786 123.31 243.78 123.266 243.768 123.219C243.724 123.219 243.677 123.225 243.623 123.228C243.55 122.862 243.343 122.794 243.284 122.39C242.906 122.08 242.73 121.464 242.582 121.027C242.479 120.54 242.376 120.053 242.272 119.567C242.113 118.856 241.948 118.147 241.785 117.436C241.898 117.088 242.004 116.616 242.039 116.283C242.378 116.085 242.423 115.737 242.558 115.424C243.113 114.941 243.96 114.749 244.606 114.56Z" fill-rule="evenodd"  fill="#004098" >
</path>
<path d="M211.545 64.6557C211.341 64.3459 211.264 64.2044 211.22 63.9181C211.3 63.8178 211.38 63.7234 211.454 63.6262C211.518 63.6497 211.775 63.6055 211.828 63.582C212.153 63.7234 212.486 63.8711 212.81 64.0216C212.846 63.9978 212.881 63.9802 212.917 63.9624C212.97 64.0097 213.023 64.0568 213.079 64.1041C213.188 64.0332 214.421 64.1897 214.672 64.2339C214.949 64.175 216.372 63.7027 216.67 63.9034C216.944 63.6764 217.304 63.6438 217.631 63.5672C217.664 63.5967 217.699 63.6262 217.738 63.6616C217.782 63.6143 217.823 63.5672 217.858 63.5258C217.894 63.5553 217.929 63.5879 217.965 63.6174C218.989 63.2514 220.033 62.9269 220.85 62.2247C220.838 62.0802 221.747 61.1065 221.806 61.0268C221.894 60.4398 222.019 59.8793 222.213 59.3867C222.225 58.9499 222.128 58.4189 222.231 58.0825C222.195 58.0295 222.157 57.9764 222.118 57.9291C222.369 57.5368 222.514 57.3568 222.844 57.0884C222.98 57.1326 223.122 57.1796 223.264 57.227C223.443 57.7638 223.57 57.6782 224.016 58.0382C224.337 57.9291 225.621 58.6372 226.084 58.9793C226.116 58.9618 226.14 58.947 226.172 58.9351C226.671 59.2951 227.161 59.3393 227.704 59.6727C227.727 59.6432 227.751 59.6166 227.777 59.5902C228.077 59.8045 228.453 60.133 228.907 60.5755C228.875 60.9089 228.831 60.9384 229.067 61.2482C228.763 62.0272 228.875 61.9475 227.987 62.098C227.892 62.1777 227.81 62.2602 227.721 62.3458C226.96 62.0005 226.317 61.7882 225.6 61.4194C225.412 61.4133 225.256 61.372 225.134 61.2955C225.104 61.3307 225.069 61.3633 225.037 61.4015C224.963 61.3398 224.895 61.2777 224.824 61.2159C224.798 61.251 224.765 61.2865 224.73 61.325C224.691 61.2955 224.641 61.2689 224.6 61.2422C224.355 61.384 224.045 61.7941 224.175 62.1156C223.511 63.4462 223.497 65.0424 221.803 65.6736C221.29 66.0414 220.879 66.3099 220.57 66.479C220.534 66.4495 220.499 66.4172 220.464 66.3877C220.071 66.7239 218.363 66.7681 217.862 66.4288C217.431 66.4849 217.375 66.2961 217.02 66.2017C216.991 66.2284 216.967 66.2579 216.947 66.2842C216.909 66.2491 216.876 66.2193 216.841 66.1898C216.487 66.4614 215.628 65.9007 215.147 66.1694C215.038 66.1161 214.923 66.066 214.811 66.0158C214.79 66.0424 214.767 66.0691 214.74 66.0954C214.681 66.0484 214.613 66.007 214.554 65.9656C213.867 66.2017 212.147 65.0687 211.545 64.6557Z" fill-rule="evenodd"  fill="#004098" >
</path>
<path d="M221.983 53.4475C221.959 53.424 221.93 53.4005 221.906 53.3769C221.576 53.7486 221.248 54.1233 220.915 54.4981C220.944 54.5216 220.968 54.5482 220.997 54.5718C220.75 54.9042 220.604 55.1362 220.558 55.2679C221.343 56.215 220.98 56.5838 220.989 57.6488C220.325 59.2362 219.676 57.6371 218.738 57.5515C218.679 57.6045 218.611 57.6635 218.552 57.7256C218.336 57.7403 217.454 58.8614 217.224 59.1211C216.377 60.0151 216.253 60.2422 215.006 60.3485C214.743 60.4959 214.486 60.6464 214.233 60.8026C212.536 60.9355 212.864 59.2274 213.642 58.3421C214.345 58.2979 214.33 56.9143 214.439 56.5277C213.887 55.9525 213.091 55.9585 212.448 55.4392C212.501 55.1942 212.282 54.9967 212.173 54.8255C212.548 54.2237 212.365 53.905 213.132 53.8549C213.203 53.7752 213.274 53.6956 213.344 53.6159C213.377 53.6482 213.412 53.6777 213.451 53.7131C213.489 53.6808 213.53 53.6482 213.575 53.6159C213.743 53.663 213.757 53.6482 213.893 53.5833C213.929 53.6128 213.958 53.6423 214.002 53.6777C214.82 53.477 216.289 53.4654 216.891 52.9903C216.92 53.0198 216.955 53.0493 216.991 53.0819C217.72 52.8752 218.366 52.3089 218.431 51.5741C217.926 51.0049 216.864 50.7098 216.935 49.8129C217.755 48.9691 218.121 49.9544 218.782 49.754C218.841 49.7951 218.9 49.8336 218.959 49.8779C218.994 49.8393 219.021 49.8039 219.053 49.7716C220.93 50.9221 221.357 47.6325 222.641 47.9543C223.284 47.0602 224.033 46.3493 224.794 45.5732C224.747 44.877 225.222 44.7678 225.691 44.644C226.028 44.877 226.246 44.9391 226.538 45.2577C226.514 45.2872 226.494 45.3138 226.47 45.3402C226.798 45.6086 226.872 46.0602 227.17 46.482C227.137 46.5174 227.105 46.5528 227.078 46.5883C227.113 46.6177 227.149 46.6472 227.187 46.6826C227.155 46.7181 227.122 46.7504 227.087 46.7889C227.122 46.8213 227.158 46.8507 227.196 46.8862C227.17 46.9335 227.137 46.9865 227.105 47.0426C227.246 48.0013 226.152 49.2758 225.5 49.9958C225.606 50.0635 225.712 50.1284 225.818 50.1993C226.013 50.1404 225.972 50.1228 226.175 50.2053C226.196 50.1786 226.222 50.1523 226.246 50.1256C226.281 50.1551 226.314 50.1846 226.349 50.2172C227.166 49.8688 227.293 49.9751 227.759 49.3586C228.668 49.7007 228.459 49.6831 229.01 50.4295C228.978 50.4618 228.951 50.4972 228.916 50.5358C229.533 51.1699 229.046 51.6155 229.031 52.3973C228.946 52.4917 228.866 52.5892 228.777 52.6893C228.385 52.5243 227.282 53.5037 226.836 53.5626C226.459 53.3149 226.045 53.1938 225.715 52.9815C225.689 53.0169 225.656 53.0493 225.621 53.0878C225.55 53.0257 225.479 52.9637 225.408 52.9019C225.37 52.9313 225.338 52.9608 225.299 52.9963C224.806 52.8636 224.316 52.7306 223.824 52.6008C223.788 52.6156 223.759 52.6363 223.729 52.6569C223.051 52.1229 222.505 52.9401 221.983 53.4475Z" fill-rule="evenodd"  fill="#004098" >
</path>
<path d="M206.494 54.2265C206.515 54.1998 206.541 54.1735 206.565 54.144C206.417 53.9552 206.267 53.7633 206.122 53.5745C206.196 53.4742 206.273 53.3826 206.346 53.2913C206.335 53.2587 206.317 53.2293 206.302 53.2057C206.618 52.8693 206.804 52.6039 207.208 52.4387C207.816 53.0198 208.718 52.7071 209.403 52.3766C210.258 52.2261 210.819 51.8692 211.539 51.4621C211.972 51.6183 214.191 49.7891 214.262 49.4351C213.713 49.0221 213.15 49.0901 212.598 48.6947C212.577 48.7213 212.554 48.7477 212.527 48.7743C211.869 48.4676 211.509 48.2255 210.978 47.7712C211.021 47.6671 211.092 47.5923 211.191 47.5469C211.294 47.5883 211.397 47.6325 211.504 47.6768C211.524 47.6504 211.548 47.6238 211.574 47.5971C211.757 47.7122 211.976 47.7181 212.217 47.8361C212.238 47.8097 212.262 47.7802 212.288 47.7536C212.365 47.8038 212.448 47.8599 212.524 47.9157C212.56 47.8775 212.592 47.8451 212.619 47.8097C213.058 48.0841 213.646 48.0546 214.168 48.2905C215.74 48.5087 215.206 48.8157 215.808 49.9604C215.684 51.4327 213.672 52.89 212.513 53.6956C212.448 53.6993 212.357 53.7475 212.241 53.8401C212.206 53.8194 212.167 53.8016 212.135 53.784C212.076 53.8401 212.011 53.8931 211.952 53.9552C211.92 53.9374 211.887 53.9167 211.861 53.896C210.152 54.3858 208.149 55.2886 206.494 54.2265Z" fill-rule="evenodd"  fill="#004098" >
</path>
<path d="M226.426 57.4038C226.264 57.168 226.107 56.935 225.954 56.7017C225.978 56.6753 225.998 56.6487 226.025 56.6192C225.91 56.4599 225.801 56.3006 225.689 56.1413C225.709 56.1146 225.733 56.0852 225.762 56.0585C225.621 55.796 225.491 55.5364 225.355 55.2739C225.37 55.2385 225.387 55.203 225.396 55.1735C225.364 55.1441 225.332 55.1146 225.296 55.082C225.329 55.0437 225.358 55.0083 225.387 54.976C225.352 54.9405 225.317 54.9111 225.281 54.8785C225.385 54.5332 226.084 54.0907 226.388 54.0198C226.751 54.1794 227.031 54.1851 227.577 54.4331C227.6 54.4065 227.621 54.3798 227.645 54.3535C227.857 54.5392 228.064 54.5777 228.273 54.7132C228.297 54.6837 228.317 54.6574 228.344 54.6307C228.742 54.79 229.14 54.9522 229.536 55.1146C229.562 55.0879 229.583 55.0616 229.607 55.0349C229.763 55.1735 229.925 55.3153 230.087 55.4567C229.937 55.8079 230.087 56.2859 230.117 56.7666C229.76 57.1708 229.067 57.6252 228.515 57.7786C228.462 57.7315 228.409 57.6814 228.353 57.634C227.922 57.7874 227.769 57.4393 227.373 57.6726C227.338 57.6428 227.302 57.6105 227.267 57.581C227.246 57.6045 227.226 57.6312 227.202 57.6578C227.149 57.6105 227.096 57.5632 227.043 57.5161C226.889 57.6164 226.574 57.454 226.426 57.4038Z" fill-rule="evenodd"  fill="#004098" >
</path>
<path d="M215.861 45.2044C215.643 44.6615 215.967 44.4464 216.253 44.0184C216.233 43.9566 216.203 43.9004 216.183 43.8443C216.79 43.1039 217.605 43.0064 218.384 43.632C218.416 43.6261 218.451 43.6232 218.484 43.6261C218.861 43.99 219.088 44.2369 219.163 44.3667C219.133 44.4019 219.103 44.4373 219.071 44.4759C219.372 44.7766 219.163 45.2398 219.328 45.6942C219.272 45.7886 219.216 45.883 219.163 45.9805C219.198 46.01 219.233 46.0423 219.272 46.0749C219.245 46.1103 219.213 46.1458 219.18 46.184C219.213 46.2135 219.248 46.2458 219.286 46.2784C219.092 46.6058 218.894 46.9392 218.699 47.2725C218.64 47.2462 218.578 47.2195 218.516 47.1988C218.484 47.2195 218.449 47.2431 218.413 47.2669C218.108 47.08 217.74 46.8163 217.307 46.476C217.038 45.8065 216.372 45.5703 215.861 45.2044Z" fill-rule="evenodd"  fill="#004098" >
</path>
<path d="M58.5958 60.6285C58.6162 60.6022 58.6459 60.5784 58.6723 60.5548C58.3803 60.1566 58.2828 59.6906 57.8846 59.233C57.7961 58.9144 57.5659 58.5663 57.3978 58.3186C57.2947 57.6045 56.6543 56.808 56.1146 56.3567C55.9984 56.392 55.7968 56.4057 55.5097 56.3978C54.769 57.0796 54.6689 57.9852 54.0847 58.7699C53.7454 58.9912 52.0166 57.9319 51.7155 57.7726C51.7892 57.6814 51.8689 57.5898 51.9457 57.5014C51.8896 57.1592 52.3264 56.4157 52.4443 56.1234C52.4267 56.0792 52.4089 56.0409 52.3913 55.9967C52.6212 55.6634 52.645 55.3802 52.7159 54.9669C53.0461 54.5392 53.4444 53.6012 53.4384 53.0493C53.9963 52.4032 54.4121 51.5534 54.9255 50.8484C54.9079 50.819 54.8932 50.7895 54.8872 50.7569C55.4771 50.1078 55.7781 49.5975 56.5364 48.9336C56.5806 48.9455 56.6189 48.9543 56.6603 48.9719C56.9761 48.7154 57.2385 48.3996 57.7491 48.6003C57.867 48.7213 57.8698 48.7329 58.1028 48.7568C58.1119 49.0606 58.0115 49.4116 58.2417 49.6151C58.2574 49.7351 58.3469 49.916 58.5102 50.1579C58.4393 50.2407 58.3684 50.3204 58.3007 50.4C58.1414 51.7187 57.3505 52.2853 56.8462 53.3472C56.8578 54.2324 58.0646 54.4065 58.814 54.616C59.3274 55.1412 59.8348 55.6693 60.3481 56.2003C60.4306 56.628 60.8527 57.0589 61.3454 57.1207C62.1005 56.8641 62.4191 56.0733 63.1834 55.6132C63.6023 55.1735 64.5936 54.2441 65.2957 54.1349C65.5466 53.9226 65.8417 53.8311 66.1101 53.5952C66.6116 54.0938 67.06 54.3328 67.5765 54.8019C67.5411 55.1855 67.4909 55.4272 67.7179 55.7606C67.6648 55.8118 67.6363 55.8698 67.6323 55.9346C67.4319 56.1827 67.3639 56.3715 67.4997 56.6663C67.4642 56.7017 67.4288 56.7343 67.3965 56.7638C67.4671 56.8375 67.5411 56.9171 67.6148 56.994C67.0424 57.4835 65.2722 58.7582 65.2575 59.4751C64.6911 60.0917 64.387 60.3836 64.1245 61.1184C63.7971 61.4548 63.5904 61.5847 63.5048 62.0152C63.2247 62.2661 63.0949 62.3517 62.9679 62.6377C63.0241 62.6967 63.0802 62.7559 63.1451 62.8177C62.5019 63.9683 61.8942 64.8003 61.0296 65.7561C60.3481 66.4053 59.6636 67.0544 58.9793 67.7004C58.9909 67.7211 58.994 67.7418 59.0088 67.7653C58.926 67.9601 58.153 68.7566 57.979 69.0548C57.2326 68.7271 56.7045 68.4499 56.1852 67.9158C56.1381 67.9337 56.0996 67.9513 56.0554 67.9689C55.6866 67.7095 55.4595 67.6562 55.3237 67.5057C55.4476 67.2874 55.5687 67.0691 55.6956 66.8537C55.8283 65.9154 55.9581 66.3049 56.6427 65.706C57.8435 64.1424 57.8846 63.989 58.0351 63.8444C58.0646 63.868 58.0853 63.8946 58.1147 63.9213C58.7962 63.2395 59.2979 62.6998 58.6516 61.7644C58.693 61.2717 58.6547 61.0328 58.7137 60.9089C58.6134 60.7653 58.5741 60.6718 58.5958 60.6285Z" fill-rule="evenodd"  fill="#004098" >
</path>
<path d="M59.0088 67.7653C58.994 67.7418 58.9909 67.7211 58.9793 67.7004C59.6636 67.0544 60.3481 66.4053 61.0296 65.7561C60.3541 66.426 59.6814 67.0927 59.0088 67.7653Z" fill-rule="evenodd"  fill="#004098" >
</path>
<path d="M63.1451 62.8177C63.0802 62.7559 63.0241 62.6967 62.9679 62.6377C63.0949 62.3517 63.2247 62.2661 63.5048 62.0152C63.5315 62.0419 63.5581 62.0683 63.5816 62.0921C63.316 62.3872 63.322 62.5669 63.1451 62.8177Z" fill-rule="evenodd"  fill="#004098" >
</path>
<path d="M58.5958 60.6285C58.274 60.2243 58.1856 59.7407 57.8109 59.3039C57.8315 59.2804 57.8551 59.2569 57.8846 59.233C58.2828 59.6906 58.3803 60.1566 58.6723 60.5548C58.6459 60.5784 58.6162 60.6022 58.5958 60.6285Z" fill-rule="evenodd"  fill="#004098" >
</path>
<path d="M58.2417 49.6151C58.0115 49.4116 58.1119 49.0606 58.1028 48.7568C57.8698 48.7329 57.867 48.7213 57.7491 48.6003C57.9583 48.5915 58.0853 48.5178 58.2772 48.6887C58.2624 48.9957 58.2533 49.3084 58.2417 49.6151Z" fill-rule="evenodd"  fill="#004098" >
</path>
<path d="M42.1183 95.4096C41.7554 95.8079 41.3983 95.982 41.1329 96.3774C40.8702 96.2889 40.295 96.6283 39.935 96.4335C39.9115 96.4718 39.882 96.5101 39.8585 96.5486C39.1178 96.2564 37.7075 96.5013 37.3181 96.097C37.4391 95.87 37.5395 95.8521 37.616 95.6072C37.563 95.557 37.5128 95.5128 37.4626 95.4686C37.5925 94.731 38.4185 95.2121 38.9409 94.6514C38.9763 94.6633 39.0115 94.6721 39.056 94.6868C39.4304 94.3033 40.9028 94.2061 41.3098 94.1352C41.7495 94.2591 42.0179 94.5247 42.3807 94.7696C42.2923 94.9847 42.2067 95.1973 42.1183 95.4096Z" fill-rule="evenodd"  fill="#004098" >
</path>
<path d="M47.4494 86.8921C47.4672 86.8626 47.4848 86.8331 47.5055 86.8037C47.8094 86.3524 48.1133 85.8949 48.4231 85.4405C48.4438 85.411 48.4645 85.3815 48.482 85.352C48.4968 85.3787 48.5056 85.4053 48.5203 85.4289C47.8496 86.4142 47.4927 86.9019 47.4494 86.8921Z" fill-rule="evenodd"  fill="#004098" >
</path>
<path d="M43.0211 90.8722C42.7261 91.1691 42.3721 91.5879 41.959 92.1288C40.8849 92.1555 40.5841 92.1909 39.7403 91.5979C39.882 91.2084 39.9203 91.1937 40.295 90.8898C40.3304 90.9017 40.3775 90.9133 40.4189 90.9224C40.7758 90.5122 42.5755 90.0459 43.0625 90.707C43.0418 90.7628 43.0299 90.8161 43.0211 90.8722Z" fill-rule="evenodd"  fill="#004098" >
</path>
<path d="M43.9503 84.6264C43.4281 84.7327 42.732 84.6734 42.3632 84.9421C42.0976 84.8239 41.832 84.9331 41.5961 84.9657C40.9884 84.4492 41.7435 83.2898 42.2923 82.9536C42.7379 82.8649 42.7172 82.874 43.0625 82.4905C43.0948 82.5109 43.1243 82.5316 43.1509 82.5494C43.738 82.1835 43.6229 82.1923 44.2394 82.6053C44.384 83.1807 44.2131 84.0952 43.9503 84.6264Z" fill-rule="evenodd"  fill="#004098" >
</path>
<path d="M47.3581 77.053C47.0953 76.8818 46.0893 76.3418 46.0423 76.1295C46.4816 76.4393 46.9153 76.7461 47.3581 77.053Z" fill-rule="evenodd"  fill="#004098" >
</path>
<path d="M37.864 85.1397C37.5356 84.888 37.2435 84.6283 36.9878 84.3608C37.0289 84.2958 37.0644 84.2281 37.1058 84.1572C37.5454 84.0895 37.5808 84.0186 38.0114 84.2899C38.0644 84.6383 38.0114 84.8594 37.864 85.1397Z" fill-rule="evenodd"  fill="#004098" >
</path>
<path d="M48.482 85.352C48.4645 85.3815 48.4438 85.411 48.4231 85.4405C48.1133 85.8949 47.8094 86.3524 47.5055 86.8037C47.4848 86.8331 47.4672 86.8626 47.4494 86.8921C46.942 87.1991 46.4346 87.7272 46.0423 88.0929C45.7324 88.0693 44.9475 88.8746 44.6998 89.0753C44.2425 88.9248 43.4281 89.8778 43.1067 89.4648C43.7204 88.6771 44.3931 87.9602 45.0065 87.1398C45.0419 87.1518 45.0773 87.1637 45.1216 87.1784C45.576 86.6089 46.0156 86.1486 46.3076 85.3994C46.2132 85.2812 46.5023 84.0186 46.2812 83.7088C46.8771 82.6024 44.9328 80.5283 44.6762 79.6107C44.2012 79.3956 43.9001 79.416 43.6169 78.9472C43.3457 78.77 43.0653 78.59 42.7938 78.4159C42.7201 78.4661 42.499 78.4485 41.847 78.6254C41.3424 79.3777 41.5726 80.428 41.2596 81.2838C41.3158 81.5522 40.947 82.2926 40.8498 82.4961C40.7936 82.8502 40.7375 83.2014 40.6845 83.5554C40.708 83.573 40.7406 83.5937 40.7701 83.6116C40.6894 83.7314 40.6196 83.9507 40.5606 84.2695C40.7406 84.5141 40.3866 85.8271 40.2919 86.1693C40.3126 86.1959 40.3452 86.2282 40.3687 86.2608C40.3126 86.3552 40.2596 86.4524 40.2066 86.5468C40.2361 86.5766 40.2567 86.603 40.2862 86.6356C40.0589 87.0693 40.0147 87.9219 40.7021 87.9514C40.893 87.615 41.1566 87.2177 41.4929 86.7594C42.1123 86.4377 43.7555 85.8036 43.8618 87.0574C43.6436 87.3111 43.5611 87.3258 43.3868 87.5118C43.3664 88.5297 42.487 88.2286 41.832 88.1666C41.0944 88.3879 40.7936 88.1461 40.8999 88.9279C40.6638 89.276 40.3659 89.6034 40.3126 89.9929C38.2563 90.8898 37.8286 89.4943 36.3152 88.2522C35.719 87.5293 35.1674 86.8861 34.4593 86.3728C34.0965 85.4906 31.9487 84.06 31.0634 83.9891C29.5707 84.7857 28.1426 81.2276 27.3254 80.3925C27.3254 80.3602 27.3373 80.3307 27.3432 80.2981C26.9302 80.015 26.5201 79.7258 26.1099 79.4367C26.0688 79.2391 25.5909 78.6433 25.4344 78.4749C25.5376 78.2685 25.4727 78.1622 25.567 77.9647C25.5376 77.944 25.5053 77.9233 25.4727 77.9026C25.4993 77.8496 25.52 77.7994 25.5495 77.7404C25.52 77.711 25.4993 77.6784 25.4786 77.6429C25.6498 77.3657 25.8267 77.0825 26.0039 76.8022C25.9772 76.7815 25.9477 76.7608 25.9123 76.7401C26.1779 76.3155 26.3579 76.1973 26.7029 75.8137C27.3815 75.9407 27.7327 76.1264 28.3257 76.5986C28.4408 76.9025 30.4971 80.1507 30.8157 80.136C31.1224 79.5402 31.3378 78.1798 31.102 77.5692C31.1374 77.1591 30.8364 76.9348 30.6269 76.5808C30.4262 75.333 30.0693 74.9937 31.4943 74.7133C32.4266 74.9288 33.1021 74.8491 33.6892 75.9762C34.3825 76.6457 34.7513 77.7963 35.7071 78.3244C35.7426 78.3068 35.7811 78.2861 35.8282 78.2685C36.2619 78.5959 36.017 79.1564 35.9521 79.6374C36.2914 80.437 36.2738 81.0918 36.2619 81.9621C36.3858 82.275 36.4005 82.2631 36.6749 82.4992C36.9198 82.1364 37.5984 81.0595 38.0293 81.0476C38.2623 81.5462 38.4953 82.275 38.6132 82.8147C38.3272 83.6912 37.9584 84.0453 38.7107 84.765C39.162 83.9656 38.7932 82.7323 39.168 81.9887C39.1356 81.9564 39.115 81.9238 39.0971 81.8915C39.1325 81.8325 39.1739 81.7733 39.2122 81.7115C39.1887 81.688 39.162 81.6642 39.1325 81.6406C39.2802 80.3424 40.2006 78.9823 40.2624 77.6812C40.5133 77.3067 40.7641 76.932 41.0178 76.5573C41.0621 76.5661 41.1035 76.572 41.1536 76.5808C41.5133 76.0439 42.186 76.2534 42.546 75.7165C42.8028 75.7372 43.5758 75.327 43.8148 75.1088C43.8443 75.1295 43.8766 75.1499 43.9032 75.1706C44.4166 74.5569 45.5995 75.8316 46.0423 76.1295C46.0893 76.3418 47.0953 76.8818 47.3581 77.053C48.4968 78.1356 48.895 78.9854 49.6975 80.3395C49.4793 80.788 50.3586 82.0715 50.3881 82.7677C49.9305 83.52 49.4526 84.1513 48.9333 84.8032C48.8922 84.7976 48.842 84.7916 48.8038 84.7885C48.6975 84.9773 48.5912 85.1632 48.482 85.352ZM33.7688 82.3547C33.9312 81.9564 33.766 81.4666 33.893 81.148C33.8516 81.1185 33.8161 81.0918 33.7779 81.0683C34.2116 79.9767 33.7631 79.8911 32.9074 79.183C32.2052 79.8588 31.3262 81.2098 31.5326 82.1775C31.6094 82.2249 31.695 82.2719 31.7834 82.3161C32.4975 82.1775 32.9842 82.3842 33.7688 82.3547Z" fill-rule="evenodd"  fill="#004098" >
</path>
<path d="M158.587 35.7106C158.428 35.4271 158.145 35.4067 157.891 35.3032C157.906 35.2531 157.914 35.2089 157.926 35.1618C157.761 35.0436 157.593 34.9257 157.428 34.8078C157.463 34.5186 157.36 34.439 157.251 34.2442C157.265 33.8134 157.283 33.3884 157.301 32.9638C157.268 32.9431 157.233 32.9253 157.2 32.9049C157.251 31.9045 156.194 31.1817 156.303 30.5592C157.191 30.6831 157.649 30.3497 158.451 30.9575C158.445 30.9869 158.44 31.0224 158.428 31.055C158.599 31.1553 158.773 31.1907 158.849 31.4266C159.165 31.5298 159.696 31.8662 159.906 32.1908C160.478 32.4238 160.254 32.9431 160.629 33.2291C160.481 34.1025 159.98 34.9257 159.679 35.7783C159.251 35.7341 158.997 35.7812 158.587 35.7106Z" fill-rule="evenodd"  fill="#004098" >
</path>
<path d="M151.362 36.8433C151.3 36.7214 151.223 36.6389 151.129 36.5956C151.143 36.5601 151.149 36.5278 151.161 36.4924C150.748 36.3832 150.698 36.2945 150.43 36.1913C150.341 35.1439 150.884 34.3769 150.739 33.3621C150.695 33.3326 150.648 33.306 150.601 33.2824C150.819 32.468 150.91 32.9491 151.418 33.1438C151.911 32.6954 152.135 31.2112 152.276 30.6388C152.023 30.6567 151.772 30.6743 151.524 30.695C151.518 30.7273 151.503 30.7627 151.498 30.7981C150.792 30.6536 150.146 31.1876 149.488 31.1494C149.382 31.4501 149.367 31.5357 149.388 31.8929C149.42 31.9105 149.456 31.9371 149.491 31.9635C149.167 33.2351 148.984 34.2088 148.308 35.3239C147.054 35.5275 147.022 35.1323 146.278 34.5628C146.31 34.2716 146.494 33.4888 146.83 32.2143C147.19 31.701 147.485 31.4649 147.727 30.8985C148.01 30.869 148.054 30.3202 148.367 30.2258C148.406 30.0223 148.45 29.8276 148.488 29.6328C148.347 29.5472 148.211 29.4616 148.078 29.3763C148.038 29.1658 148.039 28.9317 148.081 28.6741C148.397 28.7742 148.586 28.9131 148.884 29.1254C148.969 29.031 149.055 28.9366 149.143 28.8451C149.828 29.0872 149.816 29.2317 150.683 29.143C150.695 29.1076 150.701 29.0752 150.713 29.0398C151.235 29.0517 152.217 28.5591 152.855 28.4675C152.955 28.3122 153.032 28.1214 153.088 27.8952C152.265 27.7654 151.961 27.7889 151.273 27.4969C151.25 26.8625 150.999 26.7534 151.179 26.1369C151.648 26.1425 152.093 26.0748 152.586 26.1516C152.645 26.0572 152.74 26.0453 152.813 25.8418C152.607 25.7386 152.397 25.6351 152.194 25.5319L152.194 25.4169C150.934 24.7825 149.937 25.287 150.418 23.6171C150.496 23.5858 150.759 23.571 151.205 23.5729C151.256 22.9592 151.123 22.4578 151.182 21.9002C151.144 21.8795 151.111 21.8588 151.079 21.8412C151.096 21.7556 151.117 21.67 151.14 21.5904C150.332 21.5255 149.642 21.8412 148.822 21.7585C148.81 21.7879 148.804 21.8234 148.792 21.8588C148.28 21.8805 147.914 21.8698 147.692 21.8265C147.686 21.8588 147.671 21.8942 147.665 21.9297C147.205 21.8234 146.936 21.856 146.491 21.909C145.544 22.4578 142.225 22.0978 142.284 20.8261C142.529 20.6198 142.423 20.3808 142.505 20.1093C143.488 20.2184 144.367 20.2331 145.384 20.2538C145.39 20.2215 145.402 20.1861 145.408 20.1506C145.505 20.1594 145.6 20.1742 145.694 20.1889C145.706 20.1566 145.718 20.1212 145.724 20.0857C146.08 20.1486 146.331 20.1712 146.479 20.1535C146.609 19.9826 148.768 20.0945 149.456 19.9029C149.577 19.9176 149.689 19.9381 149.81 19.9587C149.825 19.9233 149.831 19.891 149.842 19.8556C149.91 19.8731 149.981 19.891 150.046 19.9117C150.058 19.8763 150.07 19.8408 150.076 19.8054C150.167 19.8201 150.267 19.8349 150.361 19.8496C150.394 19.8173 150.421 19.7878 150.453 19.7583C151.465 19.8349 152.539 19.5664 153.569 19.41C153.666 19.1327 153.89 18.7818 153.805 18.5369C152.161 18.1001 152.215 18.4334 152.651 16.6249C152.796 16.3063 152.946 15.9908 153.094 15.675C153.253 15.7164 153.409 15.7575 153.575 15.8017C153.563 15.8315 153.557 15.8666 153.545 15.9021C153.755 16.0084 153.769 16.1501 154.079 16.1705C154.356 15.1557 154.554 13.9757 155.628 13.5743C156.268 13.7132 156.516 13.7781 157.106 14.1585C157.071 14.3357 157.209 14.3504 157.218 14.5599C157.265 14.5715 157.307 14.5834 157.357 14.5953C157.368 14.8048 157.342 15.6277 157.495 15.8845C157.194 16.92 156.767 17.7934 156.584 18.885C156.894 18.9538 157.301 18.9902 157.805 18.9941C157.908 18.8495 158.018 18.7078 158.121 18.5723C158.301 17.0498 158.959 15.7694 159.375 14.3592C159.404 14.3385 159.431 14.3209 159.463 14.309C159.522 13.9048 159.599 13.6216 159.295 13.4121C159.13 12.7395 159.717 12.6303 160.086 12.2173C160.269 12.2675 160.454 12.3177 160.64 12.3647C160.64 12.4946 160.909 12.6539 161.071 12.822C161.065 12.8546 161.053 12.89 161.047 12.9254C161.222 13.0816 161.304 13.3237 161.437 13.3946C161.422 13.4504 161.407 13.5094 161.39 13.5686C161.425 13.5774 161.46 13.5862 161.496 13.595C161.275 14.6248 161.552 15.3476 160.9 16.3891C160.715 16.9004 160.603 17.2751 160.564 17.513C161.697 17.4923 161.732 16.7017 162.03 15.728C162.676 15.7459 163.195 16.268 163.124 17.0175C163.189 17.0558 163.251 17.0941 163.316 17.1383C163.26 17.4923 163.296 17.6134 163.119 18.2684C162.821 18.6075 162.169 18.9587 161.729 18.9292C161.723 18.9615 161.711 18.9969 161.703 19.0324C161.443 19.006 161.039 19.1208 160.8 19.1208C160.785 19.1653 160.776 19.2095 160.761 19.2597C161.174 19.8468 162.233 19.764 162.936 19.95C162.942 19.9145 162.953 19.8791 162.959 19.8437C163.077 19.8763 163.189 19.9057 163.31 19.9381C163.316 19.9029 163.328 19.8675 163.334 19.832C164.473 19.9973 165.78 19.7935 166.314 21.1093C166.355 21.1212 166.402 21.1331 166.449 21.1448C166.576 23.0978 164.246 22.03 163.239 21.6318C162.098 21.5785 161.036 21.4132 159.962 21.1479C159.593 21.4486 159.056 22.0859 158.861 22.5641C159 22.676 159.142 22.7883 159.286 22.9003C159.289 22.9533 159.295 23.0125 159.301 23.0743C159.342 23.0862 159.389 23.0978 159.44 23.1097C159.295 23.7736 158.283 24.1778 157.667 24.2189C157.661 24.2544 157.649 24.2898 157.643 24.3252C157.569 24.3045 157.501 24.287 157.439 24.2691C157.428 24.3136 157.413 24.3607 157.398 24.408C156.82 24.4933 156.238 24.5821 155.663 24.6733C155.625 24.7856 155.584 24.9007 155.539 25.0186C155.631 25.0481 155.731 25.0807 155.825 25.1101C156.625 24.9418 157.209 24.8888 158.035 25.0569C158.023 25.0895 158.018 25.1249 158.006 25.1603C158.053 25.1719 158.094 25.1838 158.145 25.1955C158.076 25.6884 158.2 26.2193 157.504 26.3432C157.398 26.5261 156.64 26.7948 156.392 26.7948C156.374 26.8625 156.357 26.9334 156.339 27.0011C156.371 27.0218 156.404 27.0394 156.442 27.0601C156.483 27.2843 156.519 27.5117 156.566 27.7418C156.749 27.8067 156.932 27.8773 157.124 27.9482C157.129 27.9128 157.141 27.8804 157.147 27.845C157.667 27.7713 158.28 28.1489 158.77 28.3878C158.761 28.4321 158.749 28.4763 158.734 28.5205C158.767 28.5412 158.802 28.5591 158.838 28.5795C158.802 28.7566 158.767 28.9335 158.729 29.1135C158.501 29.2552 158.215 29.5177 157.961 29.5002C157.513 30.0047 156.572 29.6269 156.162 30.1669C156.112 30.164 156.058 30.1609 156.014 30.1581C155.811 30.7775 155.109 32.002 155.309 32.6628C155.088 33.4979 154.698 34.2147 154.306 35.0495C154.018 35.3899 153.828 35.6554 153.734 35.8461C153.696 35.8461 153.657 35.852 153.613 35.8552C153.504 36.2769 153.22 36.2829 153.032 36.6605C152.967 36.6517 152.908 36.6457 152.849 36.6398C152.391 37.0735 151.961 36.9349 151.362 36.8433ZM153.415 22.6111C153.533 22.6318 153.645 22.6553 153.769 22.682C153.787 22.6553 153.805 22.629 153.822 22.6083C154.164 22.6996 154.218 22.7883 154.359 22.8234C154.365 22.7883 154.377 22.7557 154.383 22.7203C155.073 22.7852 156.858 21.443 157.495 21.0061C157.487 20.9707 157.483 20.9412 157.481 20.9089C156.551 20.7644 155.126 20.5135 154.383 21.3248C153.832 21.2343 153.425 21.1979 153.161 21.2156C152.913 21.6641 153.038 22.2276 153.415 22.6111Z" fill-rule="evenodd"  fill="#004098" >
</path>
<path d="M16.8726 149.241L20.8791 148.96L28.9304 144.169L29.1546 147.308L23.6522 150.244L29.5117 152.451L29.6974 155.121L21.0591 151.566L17.0555 151.846L16.8726 149.241ZM30.509 157.684L30.0458 155.047L17.8492 157.197L18.3123 159.835L30.509 157.684ZM22.3837 164.774L31.9957 165.028L32.6744 167.963L24.0891 172.144L24.1038 172.206L33.6214 172.073L34.1761 174.486L21.4013 174.206L20.7405 171.335L29.4409 167.058L19.705 166.836L19.0264 163.901L30.4115 158.177L31.0311 160.853L22.3837 164.774ZM37.5069 181.703L31.1933 184.125C28.6591 185.24 27.1071 184.88 26.5495 183.042C25.7 181.216 26.6057 179.888 29.249 179.062L35.5626 176.64L34.6008 174.141L27.3549 176.923C24.508 178.112 23.6789 180.363 24.859 183.688C26.1748 186.866 28.2903 187.963 31.2139 186.984L38.463 184.202L37.5069 181.703ZM42.4281 191.731L31.3911 197.354L30.1756 194.967L41.2095 189.344L42.4281 191.731ZM38.2269 208.742L48.7329 202.181L47.4171 200.077L39.1887 205.22L39.0943 205.202L44.8973 196.047L42.8088 192.699L32.3027 199.26L33.6186 201.364L42.3042 195.935L42.3955 195.956L36.2089 205.506L38.2269 208.742ZM49.2845 206.217L50.146 207.323C51.6948 209.229 51.3498 211.029 49.1045 212.725C46.9153 214.489 45.098 214.38 43.6643 212.392L42.7969 211.283L49.2845 206.217ZM39.5515 210.501L49.3081 202.877L51.9074 206.202C54.4002 209.465 54.0433 212.377 50.8365 214.941C47.5733 217.431 44.6791 217.062 42.1477 213.826L39.5515 210.501ZM61.9886 217.611L57.0466 222.219C55.1174 224.205 53.5447 224.453 52.3352 222.957C50.8688 221.579 51.2022 220.012 53.3531 218.257L58.2947 213.645L56.4655 211.686L50.7863 216.982C48.5971 219.148 48.668 221.549 51.0134 224.19C53.4208 226.642 55.7957 226.866 58.1383 224.866L63.8206 219.57L61.9886 217.611ZM69.3258 228.893L67.4112 227.223C68.1635 226.223 68.0632 225.311 67.1249 224.494C66.0894 223.712 65.2308 223.676 64.5553 224.388C63.8679 225.037 64.0595 225.972 65.1276 227.194C65.1659 227.285 65.2042 227.379 65.2396 227.471C67.0867 229.84 67.4495 231.634 66.3284 232.852C64.5641 234.746 62.3573 234.602 59.705 232.413C57.2768 230.241 56.9761 228.176 58.7962 226.214L60.8142 227.969C59.8495 229.082 59.879 230.108 60.8881 231.049C62.1331 232.07 63.1097 232.209 63.8118 231.462C64.3427 230.855 64.1304 229.905 63.1862 228.61C63.0802 228.459 62.9917 228.323 62.9209 228.202C61.2155 225.948 60.9352 224.199 62.0798 222.948C63.8206 221.148 66.0098 221.249 68.6474 223.246C70.5532 225.137 70.7805 227.019 69.3258 228.893ZM70.6064 227.946L73.5862 230.108L67.5263 238.449L69.6977 240.021L75.7516 231.684L78.7314 233.849L79.9528 232.168L71.8276 226.267L70.6064 227.946ZM81.1153 235.251L83.027 236.354C84.0716 236.956 84.3576 237.711 83.8825 238.626C83.26 239.605 82.4312 239.797 81.3866 239.195L79.4749 238.089L81.1153 235.251ZM78.4394 239.888L75.9611 244.175L73.6421 242.839L79.8349 232.114L84.4137 234.758C86.8064 236.239 87.5055 237.882 86.5173 239.682C85.6734 241.054 84.4373 241.497 82.8116 241.021L82.7761 241.077C83.7527 241.794 83.9327 242.954 83.3133 244.559C83.2512 244.674 83.2042 244.801 83.1687 244.939C82.4901 246.299 82.1922 247.261 82.2775 247.825L79.7847 246.385C80.0886 245.323 80.5135 244.278 81.0564 243.252C81.4722 242.258 81.4133 241.606 80.8704 241.293L78.4394 239.888ZM91.9074 238.647L89.5385 237.387L83.7232 248.32L86.0924 249.58L91.9074 238.647ZM89.3939 251.247L91.2378 249.176L95.7665 251.008L95.6573 253.779L98.1413 254.782L98.7463 241.671L95.8342 240.493L87.0335 250.294L89.3939 251.247ZM92.6362 247.503L96.2946 243.278L96.3535 243.305L95.9258 248.831L92.6362 247.503ZM106.981 257.658L99.4456 255.065L103.478 243.358L105.948 244.208L102.593 253.952L107.653 255.696L106.981 257.658ZM118.929 251.805C119.779 251.424 120.283 250.931 120.443 250.324C120.525 249.704 120.171 249.294 119.389 249.099C118.584 249.032 118.1 249.303 117.938 249.908C117.846 250.389 118.174 251.02 118.929 251.805ZM122.042 260.727L121.334 259.431C120.222 260.033 118.85 260.198 117.215 259.927C114.165 259.243 112.81 257.797 113.146 255.59C113.389 254.135 114.516 253.014 116.534 252.224C115.66 251.327 115.327 250.353 115.533 249.303C115.891 247.692 117.286 247.052 119.723 247.388C122.062 247.981 123.118 249.097 122.888 250.734C122.599 251.994 121.614 252.87 119.923 253.36L121.936 256.342C122.337 255.92 122.673 255.236 122.95 254.292C122.933 254.15 122.971 253.953 123.062 253.699C123.151 253.487 123.21 253.295 123.242 253.121L125.871 253.631C125.812 253.938 125.691 254.324 125.508 254.79C125.491 254.876 125.488 254.917 125.488 254.917C124.901 256.304 124.134 257.452 123.183 258.357L125.193 261.34L122.042 260.727ZM120.012 257.812L117.486 253.976C116.563 254.525 116.047 255.198 115.932 255.994C115.766 257.098 116.33 257.823 117.625 258.166C118.554 258.298 119.351 258.183 120.012 257.812ZM141.213 253.548L138.407 253.451C138.369 251.976 137.59 251.167 136.082 251.026C134.604 251.061 133.769 252.551 133.577 255.493C133.568 258.44 134.291 259.959 135.766 260.057C137.283 260.063 138.109 259.313 138.251 257.8L141.065 257.897C140.788 260.611 139 261.933 135.699 261.862C132.359 261.656 130.716 259.499 130.771 255.395C131.005 251.206 132.799 249.102 136.147 249.085C139.443 249.291 141.133 250.778 141.213 253.548ZM148.01 261.762C144.137 262.013 141.974 260.095 141.528 256.015C141.248 251.828 143.036 249.498 146.898 249.026C150.683 248.828 152.828 250.813 153.327 254.982C153.554 259.083 151.784 261.343 148.01 261.762ZM147.063 250.961C144.933 251.147 144.021 252.749 144.328 255.77C144.547 258.794 145.724 260.195 147.851 259.962C149.898 259.782 150.79 258.207 150.527 255.227C150.267 252.203 149.114 250.781 147.063 250.961ZM164.907 248.347L164.921 248.415L166.936 258.797L169.367 258.325L167.007 246.167L162.93 246.96L161.9 256.366L161.832 256.381L157.546 248.008L153.273 248.837L155.64 260.992L158.068 260.52L156.05 250.141L156.103 250.058L161.354 259.883L163.523 259.461L164.907 248.347ZM178.808 244.131L178.982 255.33L176.893 256.047L170.329 247.052L170.288 247.14L173.731 257.139L171.391 257.944L167.355 246.235L171.471 244.818L176.879 252.513L176.947 252.492L176.661 243.033L180.585 241.682L184.618 253.389L182.275 254.197L178.832 244.196L178.808 244.131ZM186.621 252.533L194.327 248.943L193.451 247.061L188.17 249.521L186.783 246.55L191.518 244.343L190.639 242.461L185.907 244.668L184.691 242.063L189.789 239.685L188.913 237.803L181.39 241.311L186.621 252.533ZM193.33 237.909L195.247 236.803C196.289 236.204 197.085 236.333 197.64 237.201C198.18 238.228 197.926 239.042 196.882 239.643L194.97 240.747L193.33 237.909ZM196.005 242.547L198.484 246.836L196.165 248.173L189.972 237.449L194.554 234.805C197.035 233.475 198.806 233.69 199.87 235.445C200.638 236.862 200.405 238.151 199.177 239.325L199.21 239.384C200.319 238.897 201.411 239.322 202.493 240.656C202.558 240.774 202.644 240.877 202.75 240.971C203.585 242.24 204.269 242.98 204.803 243.187L202.313 244.627C201.54 243.833 200.853 242.942 200.231 241.963C199.578 241.101 198.982 240.83 198.442 241.143L196.006 242.547L196.005 242.547ZM209.096 229.97C207.326 227.839 205.081 227.707 202.355 229.571C199.726 231.648 199.608 234.41 201.998 237.856C204.482 241.125 207.108 241.812 209.869 239.918C212.513 237.938 213.108 235.799 211.651 233.492L209.379 235.144C210.199 236.425 210.008 237.525 208.807 238.455C207.586 239.284 206.081 238.534 204.275 236.204C202.617 233.767 202.354 232.082 203.496 231.144C204.777 230.324 205.886 230.486 206.818 231.622L209.096 229.97ZM209.577 224.526L217.366 234.15L215.289 235.835L207.494 226.211L209.577 224.526ZM220.322 231.861L219.183 229.333L222.697 225.939L225.187 227.164L227.117 225.305L215.38 219.419L213.117 221.605L218.496 233.628L220.322 231.861ZM218.221 227.376L220.779 224.91L215.899 222.269L215.849 222.316L218.221 227.376ZM233.492 218.493L228.064 224.32L219.003 215.873L220.785 213.964L228.326 220.995L231.975 217.077L233.492 218.493ZM236.141 200.783L234.527 203.087C233.274 202.317 232.17 202.526 231.226 203.718C230.456 204.975 231.253 206.482 233.613 208.25C236.077 209.863 237.749 210.082 238.628 208.899C239.464 207.63 239.286 206.527 238.092 205.586L239.705 203.278C241.836 204.989 241.965 207.205 240.11 209.937C238.121 212.628 235.416 212.831 232.002 210.551C228.618 208.073 227.83 205.42 229.636 202.603C231.604 199.95 233.775 199.346 236.141 200.783ZM246.816 199.532C248.577 196.174 247.692 193.439 244.163 191.333C240.431 189.415 237.587 190.082 235.631 193.333C233.864 196.796 234.796 199.582 238.425 201.694C242.054 203.606 244.853 202.886 246.816 199.532ZM237.327 194.274C236.292 196.148 237.109 197.8 239.785 199.233C242.417 200.744 244.231 200.552 245.231 198.655C246.228 196.861 245.42 195.239 242.803 193.79C240.148 192.318 238.324 192.48 237.327 194.274ZM253.649 185.293L250.406 192.569L239.092 187.533L240.157 185.149L249.571 189.341L251.749 184.447L253.649 185.293ZM256.773 176.38L254.312 183.957L242.535 180.13L243.337 177.646L253.141 180.833L254.796 175.74L256.773 176.38ZM257.363 175.05L245.402 171.843L247.55 163.827L249.553 164.364L248.102 169.798L250.875 170.542L252.226 165.5L254.236 166.037L252.884 171.079L256.047 171.928L257.558 166.302L259.561 166.839L257.363 175.05ZM256.988 155.997L259.558 156.448C259.593 156.501 259.611 156.551 259.605 156.593C259.579 157.496 259.508 158.274 259.395 158.936C258.947 161.213 257.274 162.095 254.371 161.585C251.471 161.071 250.176 159.667 250.494 157.366C250.781 155.74 251.604 155.047 252.97 155.286L253.457 152.518C250.819 152.055 249.167 153.71 248.5 157.493C248.152 161.281 249.943 163.567 253.884 164.355C257.855 164.963 260.254 163.417 261.092 159.711C261.293 158.567 261.413 157.637 261.449 156.917C261.608 155.997 261.638 155.074 261.526 154.144L255.401 153.064L254.528 158.009L256.572 158.369L256.988 155.997ZM262.086 151.884L249.731 151.02L250.312 142.741L252.383 142.886L251.99 148.494L254.861 148.695L255.221 143.488L257.292 143.632L256.932 148.842L260.198 149.07L260.608 143.26L262.679 143.405L262.086 151.884Z" fill-rule="evenodd"  fill="#004098" >
</path>
<path d="M254.147 131.111C256.419 131.111 258.274 132.967 258.274 135.245C258.274 137.519 256.419 139.378 254.147 139.378C251.866 139.378 250.011 137.519 250.011 135.245C250.011 132.967 251.866 131.111 254.147 131.111Z" fill-rule="evenodd"  fill="#004098" >
</path>
<path d="M28.184 109.388C27.9391 109.547 27.8005 109.757 27.6618 109.925C26.9951 110.444 26.5053 110.388 25.753 110.471C25.5169 110.58 25.34 110.698 25.213 110.742C25.1866 110.728 25.1688 110.527 25.1274 110.438C25.2515 109.813 25.4667 109.049 25.9064 108.441C26.0362 108.373 26.1779 108.305 26.3194 108.238C27.125 108.232 27.4643 107.975 28.1633 108.721C28.178 108.984 28.1222 109.123 28.184 109.388Z" fill-rule="evenodd"  fill="#004098" >
</path>
<path d="M16.5568 114.651C16.3621 114.725 16.2768 115.215 16.2266 115.365C16.1203 115.475 16.0171 115.578 15.9168 115.678C15.4389 115.982 14.9785 115.873 14.595 116.153C14.2557 116.274 14.0876 116.174 13.8191 116.103C13.7128 115.938 13.5121 115.802 13.3676 115.646C13.5093 115.017 13.2437 114.563 13.763 113.994C14.0286 113.212 14.9519 113.247 15.6894 113.457C16.0642 113.772 16.5775 114.085 16.5568 114.651Z" fill-rule="evenodd"  fill="#004098" >
</path>
<path d="M41.5459 108.379C41.4603 108.512 41.1684 109.306 41.074 109.462C40.7641 110.197 40.3185 110.831 39.6666 111.123C39.2062 111.442 38.7609 111.76 38.3153 112.082C36.9878 112.757 35.7485 113.483 34.4063 113.896C33.9783 114.265 34.2379 114.421 34.5007 114.828C34.7573 115.135 34.8134 115.489 34.9786 115.811C35.0612 116.301 35.1143 116.57 35.1379 116.617C35.6011 116.959 35.5008 117.277 35.4948 117.776C35.5833 118.153 35.7071 118.272 35.6394 118.578C35.433 118.746 35.3355 118.965 35.2559 119.106C34.8015 119.319 34.4239 119.387 34.3235 119.821C34.9197 120.561 35.6366 120.747 36.5689 121.045C36.9198 121.275 37.2089 121.502 37.4981 121.853C37.0584 122.316 36.6307 122.827 36.2678 123.231C36.1706 123.691 36.2797 124.618 36.4419 124.974C36.4447 125.119 36.4566 125.264 36.4714 125.411C36.3977 125.751 36.2619 126.034 36.1468 126.311C36.0612 126.338 35.9759 126.355 35.899 126.373C35.0966 126.329 34.7425 126.792 34.2144 127.22C33.9105 127.152 33.8839 127.004 33.7631 126.763C33.173 126.532 33.3116 126.482 33.2467 125.833C33.353 125.385 33.4533 124.933 33.5537 124.473C33.5418 123.968 32.6449 121.776 32.2585 121.396C31.8543 121.242 31.4322 121.122 31.1283 121.287C31.028 121.747 30.9957 121.738 31.2111 122.08C31.3319 122.582 31.5975 123.231 31.8866 123.662C31.9101 124.178 32.3529 124.848 32.515 125.376C32.5357 125.986 32.5564 126.529 32.6624 127.134C32.8957 127.775 32.5031 128.562 32.0694 128.922C31.9377 128.969 31.6959 129.087 31.3438 129.276C31.1108 129.556 31.0371 129.692 30.8009 129.683C30.8126 129.484 30.8136 129.357 30.8038 129.3C30.6121 129.149 30.5708 128.996 30.4588 128.848C30.3584 128.37 30.2553 127.748 29.9984 127.305C29.6532 126.066 29.2609 124.783 28.6412 123.653C28.4879 122.912 28.072 122.06 27.7327 121.384C27.5173 121.183 27.4081 121.275 27.2194 121.352C26.9302 122.019 26.473 121.962 25.9095 121.942C25.6853 122.054 25.6793 122.051 25.5376 122.039C25.3074 121.871 24.9859 121.7 24.9712 121.653C25.0066 121.411 24.9533 121.21 24.9151 120.944C24.6291 120.744 24.6968 120.455 24.6347 120.121C24.3428 119.664 24.6466 119.301 24.2898 118.741C24.2778 118.513 24.2041 118.363 24.0508 118.222C23.5343 118.301 23.2364 118.906 22.9325 119.098C22.077 119.05 21.9529 119.404 21.6107 118.39C21.5399 118.286 21.4869 118.183 21.4279 118.083C21.6314 117.457 21.2391 116.162 20.8201 115.649C20.5103 115.59 20.2093 115.531 19.9114 115.472C19.3804 115.658 19.6134 115.888 19.7815 116.248C19.7285 116.72 19.6871 117.183 19.6489 117.649C19.9882 118.637 19.2418 118.985 18.5011 118.912C18.2829 118.637 18.4657 118.189 18.2948 117.82C18.2534 116.979 18.0793 116.118 17.9495 115.259C17.7222 114.725 17.333 114.327 17.2414 113.734C17.4744 113.303 16.9846 112.816 16.7252 112.501C16.4919 111.931 15.8726 111.3 15.4947 110.834C15.1231 110.506 13.763 109.132 13.3265 109.034C12.9665 109.197 12.757 108.71 12.6802 108.444C12.689 108.329 12.698 108.125 12.6388 107.943C12.8809 107.515 13.2967 106.936 13.9578 107.084C14.6009 107.647 14.8546 108.465 15.5038 109.011C15.7484 109.379 16.3712 110.68 16.9375 110.188C16.9698 110.043 16.967 109.784 17.0084 109.598C17.2975 109.214 17.2207 108.68 17.8874 108.893C18.4008 109.185 18.333 109.17 18.3242 109.748C18.3892 110.164 18.6545 110.698 18.7903 111.094C18.799 111.731 19.2418 112.064 19.6812 112.474C20.3952 112.634 20.4188 111.834 20.6075 111.241C20.6195 111.094 20.5724 110.967 20.7374 110.807C21.2272 110.89 21.31 110.899 21.6609 111.253C22.0062 111.403 22.2156 111.967 22.4132 112.28C22.7378 112.53 23.1273 113.244 23.4901 113.324C23.968 113.082 23.7469 112.353 23.9298 111.887C24.0743 111.955 24.2189 112.023 24.3635 112.091C24.8442 112.179 25.0625 112.203 25.281 112.725C25.2515 113.156 25.3105 113.454 25.6674 113.696C26.3579 113.849 27.4288 113.908 28.1369 113.53C28.6443 113.566 29.1398 113.48 29.677 113.483C29.8774 113.403 30.1756 113.309 30.0191 112.97C29.6623 112.657 29.1016 112.058 28.6767 112.401C28.6296 112.391 28.5882 112.383 28.5499 112.374C28.2962 111.861 28.4703 111.669 28.7801 111.182C29.0749 110.48 29.7328 109.904 30.4852 110.734C31.1609 111.02 31.8364 111.321 32.2319 112.035C32.462 112.158 32.695 112.282 32.9368 112.406C33.3824 112.97 34.0285 112.276 34.6776 112.315C35.666 111.784 36.6542 111.235 37.6279 110.489C38.0026 109.893 36.7784 109.834 36.4507 109.76C36.3917 109.705 36.3002 109.655 36.1763 109.61C35.731 109.565 35.4033 109.187 35.011 109.288C34.7513 109.193 34.5064 109.102 34.2618 109.002C33.9488 108.978 33.8042 109.034 33.6038 108.857C32.1434 108.547 31.4322 108.488 31.4265 108.37C31.7953 108.158 32.1227 108.016 32.6389 107.943C32.9813 107.842 33.1052 107.925 33.4887 107.58C34.2618 107.754 34.8516 107.94 35.7426 107.689C35.9552 107.532 36.0082 107.456 36.3651 107.535C36.6542 107.438 37.023 107.592 37.4391 107.418C38.5809 107.341 39.5427 107.066 40.7406 107.379C40.8466 107.482 40.947 107.586 41.0592 107.689C41.4603 107.833 41.599 107.901 41.5459 108.379ZM32.6242 116.956C32.7126 116.36 32.3645 116.05 31.9957 115.575C31.8719 115.33 31.748 115.088 31.621 114.846C31.0164 114.666 30.4441 114.808 30.0013 115.056C29.962 115.213 29.9483 115.317 29.9602 115.368C30.7006 115.885 31.4617 116.481 32.1227 117.13C32.3705 117.186 32.3733 117.23 32.6242 116.956ZM28.9924 122.015C29.0633 121.54 28.9451 120.753 28.6886 120.266C28.1075 120.136 28.0924 120.511 28.3138 120.853C28.3866 121.066 28.5577 121.456 28.8272 122.024C28.896 122.038 28.9511 122.035 28.9924 122.015ZM28.237 117.673C28.3226 117.183 28.4524 116.631 28.4289 116.062C28.2135 115.613 27.0541 115.613 26.6618 115.613C26.2987 115.997 26.8151 116.613 26.9625 116.914C27.1071 117.581 27.3285 117.622 28.0012 117.817C28.072 117.77 28.1573 117.726 28.237 117.673Z" fill-rule="evenodd"  fill="#004098" >
</path>
<path d="M78.7668 37.4304C78.6489 37.4128 78.5307 37.4009 78.4156 37.3893C77.6131 37.5514 76.4478 35.3064 76.4892 34.8046C76.2621 34.2147 76.153 34.3888 75.7664 34.6453C75.5274 35.0643 75.2147 35.0762 74.9491 34.7692C74.6512 34.5864 74.3533 34.4095 74.0551 34.2323C73.7603 33.8488 73.7248 33.4565 73.7161 33.0228C73.7308 33.014 73.7484 33.0049 73.7603 32.9961C73.9491 33.0877 74.2884 33.0049 74.4329 32.701C74.8074 32.4505 75.0259 32.008 75.2825 31.6066C75.5913 31.3725 75.7566 31.2357 75.7783 31.1964C75.725 30.8248 76.7429 30.1433 76.8197 29.4528C76.8904 29.3801 76.973 29.3122 77.0675 29.2493C77.1029 29.037 77.1264 28.7742 77.032 28.5885C77.091 28.0457 76.9288 27.5794 76.566 27.2608C76.3475 27.3198 76.1323 27.4822 76.0467 27.3552C76.1587 27.1576 76.0555 26.9598 76.2267 26.7741C76.2621 26.3965 76.0379 26.3758 76.3358 26.0481C76.5306 25.9155 76.731 25.7828 76.9376 25.647C77.0125 25.6411 77.2102 25.5969 77.5306 25.5144C78.3745 25.0659 78.7019 25.0333 79.4897 25.7621C79.7258 25.8092 79.8672 25.5586 80.0886 25.4081C80.1858 25.166 80.1683 24.8003 80.2479 24.5673C80.5399 24.2337 80.6315 24.1926 81.1536 24.2958C81.2953 24.2515 81.4368 24.2161 81.5813 24.1778C81.835 24.2515 81.847 24.2249 82.1508 24.0245C82.2276 24.0095 82.3189 23.9978 82.4133 23.9859C82.7291 24.048 83.0596 23.9477 83.44 24.2249C83.4755 24.2308 83.5137 24.2427 83.5611 24.2515C83.62 24.5081 83.4312 24.6764 83.4902 25.0038C83.1214 25.3698 82.7586 25.7295 82.4045 26.0983C82.3663 26.2312 82.3308 26.3667 82.2954 26.4966C81.9031 26.9099 82.1803 27.2194 82.8087 27.2432C83.0242 27.1488 83.0684 27.0867 83.3456 27.2874C83.5965 27.1193 83.9239 27.125 84.2811 27.3317C84.3074 27.364 84.6674 27.8036 84.6467 27.9159C84.1422 28.2552 84.0832 28.671 83.7941 29.1696C83.4902 29.4854 83.6141 29.4321 83.5021 29.7746C83.1509 30.1107 83.1628 30.6388 82.9355 31.0371C82.9179 31.3824 82.5933 31.9105 82.3957 32.1525C82.1891 32.5565 82.0919 32.8604 81.8087 33.1614C81.6757 33.247 81.5459 33.3354 81.4192 33.421C81.1329 33.8221 80.8143 33.9463 80.5339 33.6098C80.4985 33.1761 80.2981 32.4505 80.4928 32.114C80.3599 31.7098 80.4957 31.2406 80.3658 30.8129C80.5932 30.4532 80.4101 30.1697 80.6108 29.7893C80.5104 29.45 80.6195 29.217 80.3245 29.0103C79.7405 29.3763 79.7964 29.3644 79.4395 29.9013C79.0826 30.1935 79.0324 30.403 78.817 30.7157C78.463 30.9546 78.4247 31.0873 78.2977 31.4297C77.864 31.8427 77.5661 32.5361 77.2208 32.9754C77.1913 33.0551 77.1678 33.1319 77.1383 33.2087C77.1854 33.9993 77.7078 34.973 78.1914 33.7484C78.4187 33.5656 78.4394 33.4358 78.5307 33.126C78.5868 33.067 78.6577 33.0109 78.7254 32.9519C78.7756 32.6245 78.9528 32.3589 79.1356 32.0845C79.2065 32.2055 79.2241 32.3323 79.2978 32.5035C79.2683 32.8161 79.3009 33.3207 79.4041 33.6481C79.1886 34.02 79.4454 33.9934 79.4276 34.3208C79.2212 34.8194 79.3184 35.4243 79.4335 35.9436C79.3686 36.085 79.5044 36.3889 79.5634 36.5777C79.4925 36.9437 79.0117 37.2475 78.7668 37.4304Z" fill-rule="evenodd"  fill="#004098" >
</path>
<path d="M96.0851 43.5081C95.7693 43.4699 95.6602 43.6615 95.4921 43.7885C95.0879 43.9092 94.7693 44.0717 94.5008 44.2633C93.9696 43.9861 93.4857 44.0155 93.0109 43.8208C92.6776 43.7559 92.4502 43.7706 92.2144 43.7145C91.8396 43.4313 91.3203 43.2955 91.0224 43.0773C90.7863 43.0302 90.7656 42.8973 90.6653 42.7941C90.3968 42.6467 90.1462 42.5492 89.9367 42.4902C89.9308 42.4667 89.9248 42.44 89.9308 42.4193C90.341 42.1923 90.754 42.1597 91.2877 41.9975C91.8277 42.0506 92.9783 41.3603 93.1436 40.7642C93.4681 40.4546 93.6541 40.0533 93.4061 39.6077C93.3857 39.2241 93.0727 38.9999 93.005 38.7079C92.7867 38.3627 91.7186 36.9113 91.6066 36.3832C91.1049 35.4626 90.574 34.6425 90.0606 33.7986C89.7154 32.8547 88.9157 32.0343 88.3907 31.2497C88.2019 30.7806 87.783 30.4914 87.5647 30.1697C87.1486 29.9279 86.4584 30.8957 86.3668 31.1848C85.9685 31.462 85.706 31.6273 85.5377 32.0403C85.0422 32.5094 85.0303 32.5094 85.4404 33.061C85.7738 33.3649 85.6882 33.2529 86.1426 33.2765C86.3991 33.3502 86.3963 33.3442 86.6942 33.241C86.9303 33.3 87.2135 33.2793 87.4496 33.486C87.3788 33.8519 87.2016 34.0464 87.0012 34.3208C86.9933 34.3917 86.9667 34.4654 86.9215 34.5421C86.718 34.7281 86.5054 35.1706 86.4524 35.4331C86.5791 35.625 86.9626 35.6632 87.3051 35.7015C87.5616 35.5275 87.6296 35.4509 88.0219 35.5629C88.0869 35.5513 88.1518 35.5363 88.2195 35.5187C88.5707 35.6808 88.5265 35.6219 88.9511 35.386C89.3761 35.5275 89.7329 35.6808 89.9484 36.2208C89.9161 36.7461 89.4824 37.5248 90.2761 37.7992C90.3055 37.7992 90.3438 37.7935 90.3792 37.7904C90.8512 37.9585 91.1729 37.9792 91.6302 38.3244C91.8158 38.6283 92.1109 39.3953 91.8898 39.7967C92.0049 40.2097 91.5653 40.4782 91.2495 40.5992C90.8895 40.8438 90.5266 41.0859 90.1638 41.3277C89.7508 41.9326 88.8658 42.2218 88.5265 42.7351C88.1104 43.0155 87.9687 43.331 87.8774 43.7854C87.5763 44.0481 86.8861 43.9773 86.9626 44.5113C86.9008 44.5703 86.8475 44.6261 86.8033 44.6882C86.5763 45.3138 85.5878 44.691 85.3843 44.5408C85.3636 44.5465 85.346 44.5496 85.3282 44.5524C85.0036 44.3222 83.7824 43.3902 83.8502 43.0478C83.7498 42.9004 83.7765 42.8207 83.7765 42.7025C83.5786 42.3635 83.4726 41.9681 83.3309 41.6463C83.0596 41.2364 82.7586 40.9533 82.3957 40.7821C82.2217 40.5695 82.0593 40.3543 81.9 40.1448C81.3659 39.7318 81.1329 38.5929 80.5753 39.6609C80.5841 39.7227 80.5458 39.7848 80.5283 39.9175C80.1652 40.3897 80.3511 41.1449 80.5606 41.6407C81.0504 42.3751 81.9 42.9446 82.3101 43.759C82.6112 44.1777 82.9298 44.6794 83.387 45.0717C83.6821 45.5496 83.9327 45.9833 84.3842 46.4496C84.5464 46.7683 84.6793 47.4318 84.579 47.7978C84.6144 48.2168 84.2042 48.5708 83.9032 48.7715C83.7379 48.7862 83.5758 48.795 83.4165 48.8069C83.0596 48.7182 82.4901 48.4175 82.2098 48.2669C81.9915 48.0399 81.7701 47.8125 81.549 47.5943C80.5458 47.2904 80.1504 45.3903 79.7079 44.5555C79.6518 44.3075 79.6107 44.1573 79.4956 43.9948C79.3686 43.4903 79.0531 43.0566 78.8142 42.6821C78.8142 42.1393 78.4099 41.8354 78.1562 41.4516C78.1738 41.2305 78.1679 41.0003 78.1236 40.8203C78.4216 40.3631 78.69 39.7701 78.817 39.2153C78.9823 39.1062 79.3037 38.9086 79.2654 38.6283C79.4335 38.3893 79.6314 38.2272 79.7581 37.9437C80.0325 37.6075 80.236 37.2858 80.5311 36.917C80.6167 36.6724 80.6343 36.3626 80.5694 36.1383C80.6521 36.0349 80.6728 36.0408 80.8792 36.1383C81.0975 36.1412 81.4487 35.9552 81.5105 35.6366C81.6698 35.5011 81.7968 35.3418 81.9442 35.1352C82.1301 34.7457 82.434 34.4004 82.7056 33.9815C82.7645 33.7632 82.7761 33.5449 82.8589 33.2056C83.1038 32.8102 83.0684 32.4298 83.7765 32.3028C84.1127 32.0729 84.5435 31.6981 84.7411 31.2554C84.9183 31.0904 85.0952 30.9399 85.1896 30.6567C85.759 30.0283 86.3373 29.3556 87.063 28.8658C87.3226 28.7714 87.4851 28.91 87.83 28.7538C88.01 28.8303 88.2314 28.8451 88.5027 28.9573C88.7711 28.857 89.0161 29.3349 89.2817 29.3349C89.8599 30.0342 90.6389 30.7185 91.108 31.6094C91.2259 32.1375 91.819 32.8161 92.1583 33.3207C92.2144 33.4919 92.3499 33.7368 92.586 33.8547C93.0668 34.6306 93.5331 35.4243 94.0524 36.1942C94.5155 36.625 94.778 37.4984 95.3356 37.9026C95.9553 38.7757 96.0468 38.8701 96.802 39.9971C96.8227 40.1006 96.9672 40.5371 96.9318 40.6315C97.0143 40.8558 97.3153 41.3926 97.3655 41.5698C97.1382 42.2246 96.7311 42.853 96.2325 43.2573C96.209 43.3843 96.1412 43.4492 96.0851 43.5081ZM87.9658 41.1449C88.0072 41.1066 88.0574 41.0624 88.1104 41.027C87.9718 40.3189 87.8391 39.6167 87.7033 38.9174C87.6413 38.7904 87.6177 38.7462 87.5086 38.7581C86.957 39.3687 86.4345 39.9971 85.9155 40.6315C86.178 41.4575 86.4198 41.2333 87.2075 41.1684C87.3581 41.2866 87.7416 41.0358 87.9658 41.1449ZM84.6793 39.4957C85.0804 39.0946 85.3106 38.6048 85.4847 38.0118C85.5584 37.9437 85.6292 37.876 85.706 37.8139C85.7766 37.4482 85.8268 37.4363 86.1278 37.1857C86.2545 36.8787 86.2047 36.4981 86.29 36.1826C86.2075 36.0615 86.178 36.0232 86.1071 35.9819C85.877 36.1352 85.9331 36.1352 85.8948 36.3535C85.5731 36.8169 84.924 36.7549 84.6498 37.156C84.399 37.3745 84.1688 37.5426 83.9919 37.7668C84.0123 38.2272 84.1512 39.354 84.6793 39.4957ZM83.7439 37.1208C83.8649 37.0145 83.9004 36.8966 84.0271 36.7461C84.0597 36.1706 83.8474 35.8373 83.3811 35.5363C83.1038 35.5924 82.974 35.7695 83.0242 35.9847C83.2512 36.3685 83.2246 36.9672 83.7439 37.1208Z" fill-rule="evenodd"  fill="#004098" >
</path>
<path d="M112.913 33.8341C112.751 33.6334 113.043 33.3768 113.25 33.4653C113.247 33.7456 113.209 33.781 112.913 33.8341Z" fill-rule="evenodd"  fill="#004098" >
</path>
<path d="M117.905 31.5269C117.885 31.4946 117.867 31.4708 117.852 31.4473C117.923 31.3676 117.932 31.3353 118.068 31.4206C118.068 31.4444 118.068 31.468 118.071 31.4946C118.014 31.5003 117.961 31.5122 117.905 31.5269Z" fill-rule="evenodd"  fill="#004098" >
</path>
<path d="M111.067 30.1107C110.919 30.0813 110.963 29.9869 110.943 29.9307C111.037 29.7507 111.025 29.7921 111.199 29.7272C111.219 29.7469 111.236 29.8276 111.25 29.9693C111.204 30.0164 111.143 30.0635 111.067 30.1107Z" fill-rule="evenodd"  fill="#004098" >
</path>
<path d="M118.894 29.2139C118.866 29.1844 118.847 29.1283 118.838 29.0458C118.873 29.0203 118.944 29.0035 119.05 28.9956C119.058 29.088 119.052 29.1509 119.032 29.1844C118.982 29.1903 118.938 29.2022 118.894 29.2139Z" fill-rule="evenodd"  fill="#004098" >
</path>
<path d="M119.395 28.4026C119.392 28.3791 119.389 28.3612 119.389 28.3465C119.44 28.3348 119.49 28.3289 119.534 28.3229C119.531 28.3405 119.525 28.3584 119.513 28.3759C119.478 28.3791 119.437 28.3907 119.395 28.4026Z" fill-rule="evenodd"  fill="#004098" >
</path>
<path d="M116.277 24.641C116.191 24.5347 116.197 24.5435 116.194 24.4698C116.295 24.3933 116.259 24.3873 116.492 24.4168C116.463 24.5582 116.377 24.5996 116.277 24.641Z" fill-rule="evenodd"  fill="#004098" >
</path>
<path d="M128.382 18.7699C128.155 18.6165 127.948 18.6608 127.751 18.6548C127.208 18.3362 125.983 17.2358 126.281 16.5986C126.429 16.454 126.629 16.3358 126.786 16.147C126.954 16.1323 127.827 16.206 127.927 16.1323C128.042 16.1442 128.188 16.1776 128.364 16.2326C128.739 16.1972 129.332 16.2473 129.45 16.8049C129.559 16.9081 129.609 16.9053 129.654 17.153C129.733 17.1797 129.754 17.2179 129.857 17.3418C129.828 17.4147 129.789 17.4807 129.739 17.5397C129.562 18.5426 129.382 18.5604 128.382 18.7699Z" fill-rule="evenodd"  fill="#004098" >
</path>
<path d="M127.382 17.9586C127.24 17.873 127.273 17.8376 127.261 17.7639C127.311 17.7579 127.367 17.7551 127.429 17.7491C127.472 17.8219 127.493 17.8829 127.491 17.932C127.453 17.9348 127.414 17.9467 127.382 17.9586Z" fill-rule="evenodd"  fill="#004098" >
</path>
<path d="M128.577 16.9673C128.559 16.9288 128.544 16.8965 128.538 16.8639C128.571 16.861 128.6 16.867 128.633 16.8729C128.612 16.8993 128.594 16.9319 128.577 16.9673Z" fill-rule="evenodd"  fill="#004098" >
</path>
<path d="M127.42 16.9112C127.402 16.8965 127.385 16.8817 127.367 16.867C127.414 16.8137 127.453 16.7842 127.562 16.8491C127.517 16.8698 127.47 16.8905 127.42 16.9112Z" fill-rule="evenodd"  fill="#004098" >
</path>
<path d="M122.862 14.436C122.831 14.4005 122.809 14.3336 122.797 14.2353C122.995 14.2175 123.007 14.3297 122.862 14.436Z" fill-rule="evenodd"  fill="#004098" >
</path>
<path d="M129.718 37.7374C129.415 37.7255 129.35 37.5749 129.232 37.4304C128.928 37.2447 128.618 37.0528 128.435 36.864C128.296 36.5896 128.131 36.4569 128.007 36.271C127.571 35.3092 127.19 34.613 126.96 33.6305C126.851 33.3386 126.632 32.7838 126.491 32.6245C126.423 32.2764 126.184 31.642 125.978 31.4708C125.423 31.5241 125.136 32.0845 124.691 32.3294C124.399 32.4091 124.299 32.5063 124.08 32.6835C123.541 32.8901 123.007 32.654 122.588 32.8547C122.475 32.8663 122.369 32.8751 122.263 32.887C121.723 32.3617 121.661 32.7954 121.245 32.7838C121.166 32.7189 121.083 32.5596 121 32.4859C120.708 32.4975 120.605 32.474 120.446 32.3736C120.437 32.3266 120.434 32.2764 120.425 32.235C120.761 31.8603 120.401 31.4238 120.584 30.996C120.564 30.6034 120.564 29.9781 120.41 29.6889C120.207 29.6742 120.036 29.8304 119.977 29.7862C120.245 29.4676 120.351 29.4823 120.354 29.0872C120.106 28.9928 120.03 29.2317 119.956 29.3791C119.868 29.3791 119.776 29.3879 119.688 29.3939C119.649 29.6033 119.413 29.6742 119.443 29.984C119.56 30.0577 119.693 30.0195 119.72 30.2788C119.457 30.6507 119.242 31.055 118.976 31.4266C118.923 32.0638 118.121 32.9519 117.599 33.2736C117.583 33.4171 117.567 33.5084 117.551 33.5478C117.286 33.5716 117.295 33.2677 117.277 33.1702C117.103 33.0463 117.026 33.0228 116.908 33.008C116.536 32.6568 116.51 31.7392 116.474 31.3648C116.551 31.102 116.528 30.875 116.413 30.7125C116.463 30.2465 116.303 29.8247 116.268 29.4265C116.047 29.217 116.135 28.9542 116.123 28.724C116.05 28.6328 115.976 28.55 115.908 28.4647C115.82 28.1047 115.477 27.2636 115.283 27.0454C115.261 26.9373 115.235 26.8685 115.206 26.839C114.911 26.1337 115.531 25.8299 116.071 25.5084C116.427 25.2193 116.838 25.2221 117.218 24.8916C117.407 24.8063 117.723 24.5495 117.852 24.3726C118.236 24.2603 118.496 23.8827 118.926 23.7441C118.973 23.691 119.002 23.634 119.012 23.5729C119.977 22.9887 120.34 22.7588 121.437 23.1333C121.685 23.1511 121.921 23.0803 122.115 23.3722C122.121 23.4462 121.995 23.8297 121.938 24.1364C121.941 24.3431 121.944 24.5495 121.95 24.753C121.782 25.1807 122.062 25.7856 122.169 26.2962C122.05 26.4878 121.821 26.9362 121.847 27.1871C121.956 27.3345 121.977 27.6267 121.874 27.8598C121.886 28.137 121.903 28.4145 121.921 28.6946C121.85 28.7833 121.882 28.8037 121.897 28.9335C122.083 29.09 121.924 29.6062 122.151 29.8896C122.26 30.642 122.446 30.5269 123.086 30.096C123.384 29.7391 123.915 29.7065 124.228 29.2847C124.254 28.9366 124.317 28.904 124.558 28.6622C124.724 28.3584 124.977 28.1696 125.104 27.8362C124.995 27.1162 124.794 26.5173 124.629 25.886C124.594 25.5025 124.55 25.2428 124.325 25.0158C124.116 24.1393 123.883 23.1922 123.8 22.3455C123.724 21.9413 123.647 21.5461 123.579 21.1507C123.458 20.9619 123.042 21.0504 122.927 21.0711C122.44 21.3131 121.903 21.2718 121.446 21.316C121.006 21.4398 120.463 21.5549 120.086 21.549C120.012 21.4398 120.042 21.4044 120.094 21.3426C120.065 21.0563 120.18 20.8911 120.168 20.7349C119.684 20.4781 118.997 20.4426 118.622 20.1328C117.964 20.0384 117.761 20.4664 117.699 21.0002C117.622 21.2037 117.672 21.2805 117.696 21.5578C117.619 21.8616 117.436 22.3634 117.693 22.6848C117.41 22.909 117.457 23.0182 117.253 23.2603C117.209 23.6171 116.855 23.98 116.548 24.1305C116.3 24.0982 116.283 24.2133 116.18 24.3371C115.657 24.52 115.566 24.2575 115.292 24.8828C114.746 25.7888 114.197 26.5292 113.25 27.013C113.12 27.1171 113.043 27.1899 113.02 27.2313C113.055 27.5825 113.179 28.0043 113.321 28.37C113.268 29.2552 113.763 30.2111 113.639 31.1848C113.672 31.5357 113.642 31.6775 113.577 32.0462C113.592 32.1996 113.728 32.648 113.572 32.834C113.589 32.9638 113.61 33.1024 113.642 33.2382C113.552 33.7514 113.507 34.0652 113.507 34.1793C113.734 34.5039 113.648 34.7516 113.489 35.1439C113.515 35.4124 113.737 35.7605 113.769 36.0882C113.734 36.1057 113.707 36.1352 113.683 36.1619C113.554 36.1089 113.374 36.0822 113.217 36.032C113.005 35.7636 112.981 34.8783 113.111 34.6365C113.256 34.5067 113.338 34.4183 113.3 34.2502C112.97 33.713 112.94 34.1762 112.607 34.2471C112.548 33.9165 112.548 33.5804 112.465 33.2912C112.468 33.1909 112.48 33.1024 112.495 33.008C112.373 32.4119 112.294 31.934 112.258 31.3943C112.215 31.3274 112.147 31.1857 112.055 30.9694C112.197 30.4325 111.86 30.3055 111.592 30.636C111.559 30.8455 111.559 31.108 111.568 31.3705C111.459 31.4385 111.444 31.7188 111.4 31.8691C111.061 32.2792 111.182 32.6716 110.934 33.1291C110.999 33.2793 111.129 33.3326 111.149 33.5863C110.896 34.0376 111.067 34.3415 111.164 34.8934C111.179 35.1204 111.09 35.4008 111.09 35.6485C110.913 35.7134 110.736 35.7783 110.574 35.8432C110.181 36.3566 109.698 36.5012 109.152 36.2475C108.754 35.8994 108.252 35.5601 108.054 35.2001C107.992 35.1794 107.933 35.1675 107.877 35.1587C107.718 34.4979 107.706 34.6484 108.001 34.1941C108.541 33.8221 108.149 33.5628 108.01 33.1554C107.529 32.6747 107.786 32.2143 107.665 31.7424C107.57 30.7157 107.556 29.7479 107.553 28.7685C107.506 28.4349 107.488 28.4202 107.576 28.1577C107.509 27.432 107.464 27.2962 107.449 27.125C107.475 26.9973 107.496 26.7328 107.511 26.3316C107.323 25.6912 107.559 25.2901 107.647 24.7501C107.789 24.5052 107.839 24.2544 107.877 24.0361C108.19 23.7353 108.134 22.862 108.494 22.6732C108.588 22.3192 109.046 21.6346 109.355 21.4812C109.379 21.7763 109.125 22.0062 109.258 22.3132C109.276 22.3192 109.302 22.3251 109.326 22.3398C109.792 22.1392 110.81 22.0448 111.273 22.4283C111.316 22.5679 111.357 22.6682 111.394 22.729C111.45 22.7262 111.506 22.7262 111.574 22.729C111.642 22.6406 111.704 22.5522 111.772 22.4637C111.739 21.7763 111.627 20.9177 111.217 20.4131C110.966 20.3454 110.801 20.245 110.645 20.1623C110.096 20.2774 109.792 20.2745 109.326 20.2037C109.225 20.1131 109.082 20.008 108.895 19.8882C108.556 19.8791 108.376 19.6254 108.167 19.5046C108.163 19.4573 108.161 19.4071 108.152 19.3569C108.606 18.9969 109.252 18.6962 109.81 18.4541C110.329 18.0204 111.235 16.9909 112.087 17.3625C112.179 17.4274 112.276 17.4954 112.383 17.5572C112.589 17.5484 112.704 17.4954 112.946 17.6281C112.952 17.6695 112.958 17.7106 112.961 17.7579C112.722 17.9467 112.612 18.0941 112.784 18.4158C112.825 18.8819 112.232 19.0857 112.981 19.4513C113.088 19.7289 113.321 19.8791 113.394 20.3661C113.182 20.6728 113.48 21.1949 113.238 21.6374C113.211 22.1156 113.043 22.6259 112.996 23.148C112.913 23.2455 112.834 23.3518 112.751 23.4578C112.728 23.8887 112.601 24.3754 112.553 24.8564C112.863 25.3551 113.486 24.8119 113.861 24.5968C114.215 24.4964 114.456 24.2691 114.923 24.2249C114.984 24.1699 115.093 24.0342 115.25 23.8178C115.711 23.4284 116.055 22.5816 116.126 22.0093C116.28 21.856 116.306 21.8205 116.306 21.6374C115.932 21.3279 115.672 21.3455 115.244 21.3426C114.636 20.8998 114.926 20.7405 115.053 20.1535C115.415 19.8468 116.176 19.3836 116.298 18.879C116.159 18.2152 116.041 17.7579 115.784 17.1737C115.584 16.8639 115.374 16.5631 115.339 16.2621C115.713 15.4389 116.359 15.7164 116.985 16.2326C117.032 16.4747 117.336 16.7341 117.478 17.0912C117.563 17.4776 117.247 17.9025 117.805 18.2594C117.962 18.2446 118.032 18.1976 118.174 18.0618C118.546 17.9615 118.92 17.7372 119.304 17.5691C119.575 17.5495 119.729 17.5495 119.764 17.5691C119.764 17.7313 119.77 17.9053 119.782 18.0765C119.395 18.292 119.443 18.2713 119.484 18.7109C119.263 19.0709 119.319 18.9734 119.667 19.41C119.797 19.7436 120.062 19.7524 120.369 20.0089C120.357 20.2292 120.357 20.4023 120.369 20.5282C120.457 20.5931 120.555 20.6581 120.655 20.7318C121.05 20.6935 121.478 20.5135 121.903 20.3689C122.189 20.3159 122.475 20.183 122.815 20.0945C122.909 19.9942 123.015 19.8938 123.122 19.8026C123.116 19.7138 123.104 19.6313 123.104 19.5489C123.39 19.5134 123.402 19.5369 123.458 19.2952C123.275 19.1387 123.225 19.2005 123.042 19.1948C122.723 18.7226 122.717 18.345 122.67 17.8464C122.404 17.4186 122.266 17.0881 122.39 16.6487C122.225 16.2386 121.924 15.4329 122.083 15.0996C122.015 14.8343 121.835 14.3915 121.673 14.2588C121.679 13.8781 121.655 13.8076 121.944 13.5507C121.999 13.4091 122.054 13.2204 122.107 12.9844C122.393 12.6363 123.086 12.5802 123.49 12.9135C123.558 13.0051 123.709 13.1644 123.706 13.3707C123.776 13.4297 123.835 13.4476 123.918 13.604C123.886 13.6244 123.865 13.6423 123.841 13.6689C124.399 13.7486 124.086 15.448 124.021 15.9554C123.995 15.9729 123.974 15.9996 123.954 16.026C124.03 16.4126 124.187 16.8758 124.128 17.3565C124.175 17.5513 124.204 17.6635 124.033 17.8671C124.045 17.9495 124.26 17.9379 124.243 18.1032C124.182 18.1424 124.143 18.1817 124.128 18.2211C124.243 18.3183 124.248 18.6931 124.278 18.9145C124.086 18.9646 124.01 19.1682 124.098 19.3569C124.173 19.4002 124.304 19.4484 124.491 19.5015C124.497 19.5664 124.505 19.6401 124.508 19.7138C124.349 19.8289 124.384 19.9233 124.278 20.1212C124.29 20.1387 124.352 20.304 124.479 20.251C124.491 20.2008 124.505 20.1594 124.514 20.1152C124.576 20.1271 124.635 20.1475 124.691 20.1654C124.706 20.2952 124.718 20.425 124.727 20.5577C124.859 20.8911 125.101 21.4605 125.066 21.8823C125.104 21.9444 125.385 23.1511 125.458 23.3666C125.491 23.7589 125.488 24.4403 125.827 24.8267C125.859 24.8238 125.901 24.821 125.939 24.8179C126.228 24.3782 126.06 23.629 126.037 23.1806C126.364 22.6879 126.724 22.7381 127.187 23.1216C127.47 23.2277 127.668 23.4371 127.827 23.8031C128.223 24.101 128.061 24.5701 127.881 25.0067C127.83 25.6088 127.523 26.2814 127.403 26.9334C127.031 27.4348 127.045 27.4261 127.054 28.0987C126.975 28.4349 126.815 28.8451 127.019 29.2198C127.096 29.6505 127.149 30.0183 127.178 30.3233C127.371 30.8485 127.535 31.3402 127.668 31.7985C128.001 32.1613 127.978 32.6421 128.279 33.0729C128.347 33.427 128.583 33.9256 128.73 34.3534C128.878 34.5302 128.892 34.5952 129.178 34.5688C129.665 33.9786 129.866 33.5007 129.975 32.7424C129.952 32.2852 129.987 31.8603 129.999 31.4592C129.904 30.3439 129.864 29.7715 129.878 29.742C129.895 29.742 129.916 29.7391 129.94 29.736C130.129 29.9988 130.105 30.403 130.433 30.7746C130.486 31.1315 130.465 31.1669 130.474 31.3146C130.804 31.7452 131.105 32.9253 130.872 33.5214C130.878 33.5951 130.884 33.6688 130.893 33.7425C131.202 33.9993 131.164 34.3091 131.073 34.793C131.087 35.1204 131.008 35.5158 130.872 35.8815C130.863 36.1854 130.736 36.9054 130.409 37.0823C130.205 37.4068 130.099 37.6693 129.718 37.7374ZM109.261 32.5803C109.311 32.5655 109.361 32.5536 109.412 32.5477C109.586 32.2203 109.391 32.0817 109.801 31.7985C109.896 31.4855 110.152 31.0992 110.338 30.8514C110.391 30.8866 110.45 30.9311 110.509 30.9753C110.58 30.9427 110.651 30.9781 110.73 31.0873C110.662 31.1995 110.698 31.1876 110.715 31.3764C110.772 31.4031 110.842 31.4297 110.91 31.4561C111.471 31.2143 110.642 30.6743 110.489 30.5739C110.415 30.2199 110.772 29.5532 111.034 29.3318C111.087 29.3437 111.133 29.3663 111.17 29.3998C111.376 29.382 111.471 29.1107 111.533 28.9483C111.792 28.7833 111.772 28.6387 111.766 28.3759C111.624 28.1755 111.751 27.252 111.754 27.1193C111.701 26.3758 111.554 25.6589 111.663 24.9744C111.663 24.7442 111.621 24.3459 111.722 24.2189C111.701 23.927 111.71 23.7115 111.556 23.5287C111.256 23.5553 111.188 23.6112 110.99 23.7943C110.276 24.0687 109.896 23.9063 109.361 23.4873C109.054 23.4431 108.945 23.2631 108.706 23.2838C108.438 23.4666 108.364 23.6466 108.276 23.9329C108.072 24.1158 108.093 25.0452 108.111 25.3962C107.969 25.6793 108.172 26.3667 108.214 26.7681C108.6 27.1576 108.86 26.7327 109.217 26.3611C109.553 26.1485 110.064 25.6646 110.471 25.6263C110.489 25.6411 110.506 25.6558 110.527 25.6793C110.733 25.6618 110.943 25.6411 111.152 25.6204C111.188 25.7326 111.058 25.9095 110.925 25.9537C111.04 25.9863 111.182 25.998 111.323 26.1162C111.337 26.2184 111.335 26.303 111.317 26.3699C111.078 26.591 110.848 26.8506 110.645 27.0247C110.078 27.6531 109.633 27.9099 108.804 28.0604C108.541 28.2815 108.618 28.4145 108.733 28.798C108.848 28.9278 108.821 29.1283 108.83 29.3644C108.7 29.7952 108.754 30.1935 108.931 30.6714C108.975 31.1757 108.869 32.1318 109.261 32.5803ZM119.617 28.9837C119.959 28.8833 119.979 28.7595 120.012 28.4026C120.139 28.2521 120.213 28.1784 120.192 27.9748C120.015 27.7535 120.162 27.5735 120.222 27.3818C120.174 26.473 120.189 25.526 119.811 24.7323C119.693 24.7323 119.581 24.7354 119.475 24.7382C119.263 25.0214 118.973 25.1719 118.796 25.4846C118.628 25.647 118.395 25.8151 118.425 26.0926C118.525 26.1014 118.622 26.1162 118.726 26.1309C118.835 26.2018 119.115 26.6117 119.389 26.2843C119.428 26.2871 119.472 26.293 119.513 26.3049C119.637 26.4081 119.726 26.8418 119.749 27.1043C119.549 27.3787 119.546 27.6324 119.18 27.7829C118.652 28.2521 118.071 28.131 118.089 28.9514C118.245 29.0781 118.301 29.0633 118.608 29.037C118.823 28.8833 119.032 28.5914 119.275 28.3966C119.366 28.4233 119.422 28.491 119.502 28.5089C119.502 28.6651 119.322 28.8686 119.617 28.9837Z" fill-rule="evenodd"  fill="#004098" >
</path>
<path d="M190.235 30.9988C190.161 30.748 190.132 30.7216 190.247 30.5592C190.379 30.5564 190.468 30.6006 190.592 30.7451C190.559 30.8101 190.524 30.8838 190.488 30.9575C190.403 30.9694 190.324 30.9813 190.235 30.9988Z" fill-rule="evenodd"  fill="#004098" >
</path>
<path d="M177.079 42.1923C177.053 41.5638 177.074 40.9119 177.23 40.4221C177.115 39.9943 177.174 39.5252 176.964 39.2448C176.953 38.4423 177.251 37.463 176.144 37.9792C175.873 38.2093 175.557 38.2124 175.206 38.2567C174.964 38.0855 174.722 37.9233 174.486 37.7609C174.303 37.3745 173.985 37.1177 173.89 36.8317C173.879 36.3626 173.802 36.085 173.651 35.7457C173.825 34.7723 173.008 34.8078 173.825 34.2235C174.106 34.2737 174.392 34.3298 174.678 34.3857C175.162 34.2797 175.448 34.4713 175.888 34.7871C176.197 34.8253 177.451 34.9228 177.678 34.7664C177.985 34.7281 178.286 34.6425 178.587 34.6601C179.39 34.4152 180.337 34.5067 181.104 34.2176C181.372 34.026 181.679 33.5684 181.835 33.3561C182.246 33.0197 182.234 32.5831 182.777 32.5449C182.948 32.2912 183.013 32.061 183.222 31.9164C183.246 31.6775 183.405 31.6273 183.502 31.4768C183.497 30.9016 182.744 30.5711 182.331 30.4974C182.293 30.4206 182.263 30.3497 182.234 30.276C181.753 29.9693 181.611 29.4588 181.443 29.0517C181.343 28.9219 181.251 28.798 181.157 28.6829C181.183 28.6387 181.213 28.5914 181.236 28.5531C181.803 28.6917 182.989 29.0546 183.579 28.8539C183.957 28.9335 185.335 29.037 185.668 28.8422C185.924 28.8686 186.951 27.5735 187.051 27.4467C187.243 27.3138 187.284 27.199 187.391 27.0839C187.813 26.9274 188.276 26.2783 188.562 25.9804C188.796 25.7719 189.015 25.5497 189.217 25.3137C189.775 24.9123 189.63 24.6025 189.382 24.101C189.378 24.0283 189.403 23.9339 189.456 23.8178C190.134 23.8266 190.043 24.0095 190.4 23.5111C190.692 23.561 190.792 23.5701 191.002 23.4666C191.164 23.5494 191.326 23.6438 191.489 23.7382C191.521 23.7263 191.545 23.7206 191.571 23.7146C191.739 23.8856 191.911 24.1571 192.156 24.3695C192.099 24.5582 192.114 24.6084 192.22 24.8916C192.223 25.1011 192.235 25.3077 192.235 25.5232C192.133 25.6235 192.053 25.7258 191.993 25.8299C192.02 25.9421 191.799 26.1986 191.69 26.3551C191.757 26.653 191.008 26.8948 190.79 26.9776C190.261 27.4232 189.721 27.4643 189.297 28.1254C189.17 28.1812 189.182 28.1458 189.084 28.2903C189.22 28.6209 189.792 28.4292 190.079 28.5177C190.111 28.6682 190.149 28.7036 190.329 28.8598C190.439 29.2759 190.639 29.683 191.026 30.037C190.881 30.2553 190.917 30.2879 191.011 30.6388C190.917 30.6743 190.816 30.7069 190.722 30.7539C190.683 30.869 190.645 30.9813 190.61 31.0992C190.368 31.1907 190.347 31.0609 190.093 31.2406C189.984 31.2231 189.872 31.2083 189.769 31.1936C189.205 31.5712 188.474 31.521 187.954 31.8308C187.742 31.8898 187.541 31.9547 187.338 32.0168C187.034 31.875 187.066 31.875 186.804 31.9961C186.525 31.9095 186.332 31.8642 186.225 31.8603C185.807 32.2498 185.547 32.5054 185.446 32.6273C185.243 32.775 184.464 33.5214 184.464 33.8547C184.703 34.0053 185.261 33.8576 185.55 33.8519C185.798 33.9137 186.14 34.0702 186.453 34.1705C186.438 34.3769 185.352 34.7635 185.019 34.7987C184.673 35.0172 184.246 35.2885 183.809 35.3506C183.423 35.6309 182.676 35.7222 182.396 36.1619C182.384 36.2829 182.366 36.4096 182.355 36.5426C182.175 36.8257 181.877 36.9023 181.641 37.1767C181.676 37.2209 181.706 37.2742 181.744 37.3303C181.351 37.7107 181.213 37.9349 180.87 38.4749C180.721 38.5949 180.622 38.6933 180.573 38.77C180.557 38.8861 180.533 38.9627 180.499 38.9999C180.154 38.9588 179.891 39.8115 179.623 40.0887C179.584 40.1803 179.537 40.2834 179.502 40.3897C179.451 40.3985 179.41 40.4161 179.363 40.4368C179.339 40.4898 179.316 40.5459 179.298 40.6108C179.416 40.8056 178.835 41.7172 178.531 41.9091C178.428 42.1656 178.345 42.3281 178.053 42.0772C177.929 42.1038 177.876 42.2393 177.749 42.3839C177.481 42.3397 177.304 42.2807 177.079 42.1923ZM177.923 38.1532C178.378 38.3805 178.198 37.9939 178.546 37.9174C178.605 37.8258 178.605 37.7286 178.672 37.5044C178.46 37.3686 178.451 37.4275 178.28 37.5307C177.84 37.6282 177.844 37.6398 177.923 38.1532Z" fill-rule="evenodd"  fill="#004098" >
</path>
<path d="M182.818 44.4019C182.732 44.2633 182.635 44.1218 182.555 44.0745C182.393 44.1099 182.349 44.0481 182.269 43.998C182.281 43.638 182.192 43.5198 182.048 43.3488C181.582 43.0509 181.593 42.5786 181.599 42.1716C181.287 41.7379 180.765 41.0681 180.319 40.9235C180.289 40.8824 180.269 40.847 180.248 40.8144C180.36 40.6375 180.531 40.4782 180.643 40.3484C181.098 40.4782 181.375 40.6463 181.747 41.0533C182.051 41.2512 182.535 41.7319 182.959 41.7586C183.176 41.8765 183.354 41.9896 183.493 42.0979C183.591 42.3249 183.942 42.3456 184.175 42.2484C184.762 42.3102 185.358 42.0625 185.916 42.0979C186.04 42.0389 186.161 41.98 186.282 41.9267C186.4 41.5933 185.709 40.9796 185.515 40.8645C185.033 40.127 184.19 39.9059 183.706 39.3069C183.352 39.0827 183.051 38.5339 183.172 38.236C183.335 38.1691 183.5 38.0776 183.667 37.9616C183.995 37.929 184.337 37.8995 184.673 37.8788C184.995 37.9792 185.258 38.0914 185.632 38.2771C185.759 38.2949 185.845 38.2655 185.975 38.2949C186.073 38.3598 186.268 38.4453 186.559 38.5515C186.789 38.463 186.656 38.1974 186.636 38.1297C186.889 37.6489 186.668 37.6135 187.11 37.3272C187.399 36.9763 187.42 36.8405 187.824 36.7784C187.881 36.6959 187.925 36.6191 187.975 36.5454C188.116 36.5394 188.258 36.5426 188.403 36.5482C188.656 36.2829 188.597 36.2889 188.969 36.4184C189.406 36.3685 189.477 36.3271 189.559 36.3359C190.253 36.0085 191.56 35.1323 191.937 34.5481C191.76 34.1881 191.132 34.0435 190.813 33.9579C190.613 33.8253 190.403 33.6923 190.194 33.5684C190.028 33.1407 189.801 33.0287 189.683 32.6628C189.692 32.648 189.704 32.6305 189.71 32.6157C189.899 32.595 190.049 32.5743 190.199 32.4445C190.512 32.5508 190.919 32.6392 191.291 32.707C192.099 32.5712 193.232 32.3972 193.893 32.0049C194.542 32.1228 194.894 31.6154 195.36 31.2704C195.54 31.0431 195.714 30.822 195.894 30.6065C196 30.4058 196.106 30.2051 196.215 30.0076C196.593 29.4146 197.003 28.7742 197.325 28.2078C197.31 28.0398 197.307 27.8773 197.304 27.724C196.888 27.3492 197.897 26.1751 198.304 26.007C198.522 25.6646 198.507 25.1396 198.894 25.1512C199.145 25.6677 199.643 25.5144 200.057 25.2309C200.52 25.2281 200.838 25.3698 201.287 25.6235C201.44 25.8386 201.741 27.2755 201.231 27.4643C201.107 27.6622 201.053 28.2756 200.785 28.3998C200.736 28.5413 200.674 28.6701 200.599 28.7861C200.41 28.8275 200.29 29.2672 200.074 29.2672C199.962 29.4823 200.053 29.5858 199.69 29.7686C199.407 30.2446 199.253 30.4855 199.227 30.4914C199.071 30.7364 198.59 31.1669 198.525 31.5003C198.626 31.642 198.882 31.7631 199.124 31.7747C199.513 32.0266 199.915 32.2636 200.328 32.4859C200.676 32.7838 201.304 33.4239 201.065 34.0316C200.767 34.1291 200.652 34.259 200.378 34.4801C200.307 34.4891 200.136 34.6453 200.053 34.6572C199.517 34.4418 199.127 34.2913 198.702 34.0169C198.127 33.7958 197.906 33.9225 197.395 33.8842C197.003 33.9579 196.622 34.0347 196.236 34.1172C195.861 34.3386 195.492 34.7369 195.005 34.8432C194.935 34.9376 194.867 35.1618 194.787 35.2916C194.632 35.3349 194.478 35.3899 194.327 35.4566C194.38 35.6958 193.982 35.7282 193.807 35.7605C193.633 35.9141 193.521 35.9731 193.386 36.1324C193.395 36.159 193.395 36.1913 193.4 36.2268C193.89 36.3036 194.604 36.6959 195.014 37.0468C195.058 37.2563 195.203 37.4482 195.365 37.6812C195.171 38.05 195.339 38.4778 195.126 38.9409C194.769 39.0974 194.507 39.5546 194.247 39.9118C194.044 39.9764 193.214 40.8056 193.046 41.0624C192.778 41.1477 192.834 41.1421 192.666 41.44C192.571 41.4547 192.474 41.4695 192.382 41.4961C192.173 41.7379 191.916 42.0095 191.527 42.0418C191.312 42.2246 191.096 42.4165 190.878 42.6081C190.716 42.6436 190.438 42.738 190.524 43.0271C190.881 43.4049 191.138 43.9036 191.453 44.4169C192.291 45.2222 193.462 45.8328 194.474 46.4613C194.645 46.5823 194.84 46.7476 195.132 46.8094C195.716 47.1841 196.365 47.5795 196.967 47.9954C197.05 48.3701 197.675 48.3318 197.805 48.9308C197.664 49.1312 197.484 49.4442 197.186 49.5091C196.837 49.3705 196.823 49.394 196.596 49.6919C196.109 49.9014 195.23 49.8189 194.666 49.9102C194.38 49.7242 194.321 49.6979 194.023 49.6772C193.601 49.4116 193.554 49.5709 193.144 49.5445C192.798 49.4147 192.514 49.3262 192.291 49.2789C190.875 49.267 189.583 47.2638 189.117 46.2756C188.919 45.9981 188.884 45.8802 188.701 45.6854C188.721 45.4847 187.919 44.3075 187.701 44.1984C187.208 44.3636 186.724 44.5348 186.231 44.7148C185.892 44.6261 185.225 44.9152 185.06 44.638C184.747 44.6321 184.55 44.644 184.281 44.7503C183.835 44.5731 183.246 44.591 182.818 44.4019ZM188.754 40.667C188.83 40.6964 188.907 40.7259 188.987 40.7526C189.123 40.6582 189.255 40.5726 189.394 40.4898C189.757 40.5196 190.04 40.248 190.253 40.0209C190.775 39.9059 190.848 39.4396 191.208 39.3599C191.63 38.7051 189.955 38.823 189.781 38.9262C189.046 38.9381 188.27 38.9971 187.541 38.9795C187.503 39.0059 187.456 39.0413 187.42 39.0827C187.527 39.5813 188.509 40.074 188.754 40.667Z" fill-rule="evenodd"  fill="#004098" >
</path>
</svg>
