<svg xmlns="http://www.w3.org/2000/svg" xmlns:xlink="http://www.w3.org/1999/xlink" width="164.5" height="164.79999542236328" viewBox="0 0 164.5 164.79999542236328" fill="none">
<path d="M5.39999 111.8L45.2 100.1L10.9 123.4C8.69999 119.7 6.89999 115.8 5.39999 111.8Z" fill-rule="evenodd"  fill="#00519F" >
</path>
<path d="M121.3 98.9L160.1 109.1C158.8 113 157.2 116.8 155.3 120.4L121.3 98.9Z" fill-rule="evenodd"  fill="#00519F" >
</path>
<path d="M1.5 98.2L42.4 93.5L4.6 109.6C3.3 105.9 2.3 102.1 1.5 98.2Z" fill-rule="evenodd"  fill="#00519F" >
</path>
<path d="M124.7 92.4L163.5 95.5C162.9 99.3 162 103.1 160.9 106.7L124.7 92.4Z" fill-rule="evenodd"  fill="#00519F" >
</path>
<path d="M0 84.1L41.6 86.4L1.1 95.9C0.5 92.1 0.1 88.1 0 84.1Z" fill-rule="evenodd"  fill="#00519F" >
</path>
<path d="M124.9 85.1L164.5 81.4C164.5 81.7 164.5 82.1 164.5 82.4C164.5 85.8 164.3 89.1 163.9 92.3L124.9 85.1Z" fill-rule="evenodd"  fill="#00519F" >
</path>
<path d="M0.9 69.8L41 79.1L0 81.9C0 77.8 0.3 73.8 0.9 69.8Z" fill-rule="evenodd"  fill="#00519F" >
</path>
<path d="M124 77.8L163.1 67.4C163.8 71.1 164.2 74.8 164.4 78.7L124 77.8Z" fill-rule="evenodd"  fill="#00519F" >
</path>
<path d="M13.5 127.7C14.8 126.9 15.8 126.2 16.6 125.7C21 122.9 45.7 106 51.7 102.2C59.4 97.2 63.8 94.8 66.1 91.9C68.4 89 69.8 86.5 69.8 83.9L69.8 74.4C69.8 73.3 70 73.1 70.9 71.2C71.8 69.3 73.6 67 74.6 66C76.8 67.2 78.2 68.5 78.2 71L78.2 87.7C78.2 91 77.8 95.3 76 101.7C74.9 105.7 65.8 138 59.1 161.6C55.2 160.4 51.3 159 47.7 157.3C58.6 133.6 72.6 103.3 73.9 100C76 94.5 75.8 92 75.8 92L74.7 92C73.6 95.2 69.6 102.5 67.4 105.9C66.1 107.9 51.6 132.8 39.8 153C36.2 150.8 32.7 148.3 29.5 145.5C46.3 126.2 67.5 101.3 70.5 95.6C72.9 91 73.1 87.9 73.1 87.9L72.2 87.9C70.6 92 67.5 95.7 63.7 99.6C61.4 101.9 40.3 123 23.5 139.9C19.6 136.1 16.4 132.1 13.5 127.7Z" fill-rule="evenodd"  fill="#00519F" >
</path>
<path d="M68.1 163.7C72.2 140.3 77.4 111.1 78.2 106.8C80.2 96.7 80.8 93.2 80.8 88C80.8 82.8 80.4 73.8 80.4 69.2C80.4 64.6 79.8 60.1 80.7 56.9C82 56.9 82.5 57.3 83.7 58.4C84.9 59.5 85.8 60.9 85.8 63.3L85.8 67.6C85.8 68.7 86.4 70.2 87.5 70.2C88.6 70.2 90 68.8 90 67L90 62.3L91.7 63.6L92.9 63.6C94 63.6 94.7 64.7 94.7 66.9L94.7 77.8C94.7 80.5 96.2 88.2 98.3 90.8C100.4 93.4 103.1 95.9 116.1 103.3C123 107.3 139.2 117.1 152.7 125.4C150.6 128.8 148.3 132.1 145.7 135.2C126.7 119.2 103.3 99.5 101.1 97.4C97.3 93.8 94.9 91.4 93.4 89.2C93.4 93.8 94.7 94.2 96.5 96.3C97.6 97.6 121.3 122.2 139.9 141.4C137 144.2 134 146.8 130.8 149.1C116.3 129 96.4 101 94.9 98.9C93 96.3 92.8 95.8 91.5 92.9C90.2 89.9 89.3 88.1 89.3 88.1L88.1 88.2C88.1 88.2 88.9 93.6 90.1 96.5C91.3 99.5 95.5 107 101.7 117.4C105 123 114.7 139.7 122.9 154.1C119.3 156.1 115.6 157.9 111.7 159.4C103.3 136.8 91.8 106 90.6 102.8C88.7 97.7 86.2 92.1 86.2 92.1L85.5 92.1C85.5 92.1 85.7 94.4 87.7 103.2C88.9 108.5 96.4 139.2 102.2 162.5C98.2 163.5 94.1 164.2 89.8 164.6L83.7 91.9L82.5 91.9C82.3 94.6 81.2 113.8 81.2 120C81.2 123.4 80.5 145.5 79.9 164.8C75.9 164.7 71.9 164.3 68.1 163.7Z" fill-rule="evenodd"  fill="#00519F" >
</path>
<path d="M1.3 67.7C2 63.7 3 59.9 4.3 56.2L42.7 72.2L1.3 67.7Z" fill-rule="evenodd"  fill="#00519F" >
</path>
<path d="M159.3 53.4C160.7 57 161.8 60.8 162.6 64.7L123.5 70.8L159.3 53.4Z" fill-rule="evenodd"  fill="#00519F" >
</path>
<path d="M5.10001 53.9C6.50001 50.2 8.10001 46.6 9.90001 43.2L44.8 65.4L5.10001 53.9Z" fill-rule="evenodd"  fill="#00519F" >
</path>
<path d="M153.3 40.8C155.3 44.1 157 47.6 158.5 51.2L121.3 64L153.3 40.8Z" fill-rule="evenodd"  fill="#00519F" >
</path>
<path d="M11 41.2C13 37.8 15.2 34.5 17.7 31.4L48.4 59L11 41.2Z" fill-rule="evenodd"  fill="#00519F" >
</path>
<path d="M144.9 29C147.5 32 149.9 35.3 152 38.7L117.3 58L144.9 29Z" fill-rule="evenodd"  fill="#00519F" >
</path>
<path d="M19.3 29.4C21.8 26.4 24.6 23.5 27.5 20.9L53.1 53.5L19.3 29.4Z" fill-rule="evenodd"  fill="#00519F" >
</path>
<path d="M135.1 19.3C138 21.7 140.7 24.3 143.2 27.1L112.3 52.4L135.1 19.3Z" fill-rule="evenodd"  fill="#00519F" >
</path>
<path d="M29.4 19.3C32.4 16.7 35.7 14.4 39.1 12.3L58.8 49.2L29.4 19.3Z" fill-rule="evenodd"  fill="#00519F" >
</path>
<path d="M123.5 11.1C126.9 13.1 130.1 15.3 133.2 17.7L106.6 47.7L123.5 11.1Z" fill-rule="evenodd"  fill="#00519F" >
</path>
<path d="M41.3 11C44.8 8.99999 48.4 7.19999 52.2 5.79999L65 44.8L41.3 11Z" fill-rule="evenodd"  fill="#00519F" >
</path>
<path d="M110.7 5C114.3 6.3 117.8 7.9 121.2 9.7L100.3 44.6L110.7 5Z" fill-rule="evenodd"  fill="#00519F" >
</path>
<path d="M54.4 4.80001C58.2 3.50001 62 2.40001 66 1.60001L71.5 42.3L54.4 4.80001Z" fill-rule="evenodd"  fill="#00519F" >
</path>
<path d="M97.4 1.39999C101.2 2.09999 104.9 3.09999 108.5 4.29999L93.7 41.7L97.4 1.39999Z" fill-rule="evenodd"  fill="#00519F" >
</path>
<path d="M68.5 1.1C72.4 0.4 76.3 0.1 80.4 0L79 41.6L68.5 1.1Z" fill-rule="evenodd"  fill="#00519F" >
</path>
<path d="M83 0C87 0 91 0.3 94.9 0.9L86.6 40.9L83 0Z" fill-rule="evenodd"  fill="#00519F" >
</path>
</svg>
