<svg xmlns="http://www.w3.org/2000/svg" xmlns:xlink="http://www.w3.org/1999/xlink" width="223.21319580078125" height="223.23536682128906" viewBox="0 0 223.21319580078125 223.23536682128906" fill="none">
<path d="M112.6 223.235L110.3 223.235C91.5 222.935 73.9 218.235 57.5 209.235C38.4 198.735 22.4 182.235 12.4 162.835C4.4 147.135 0.2 130.335 0 112.535L0 110.635C0.8 50.4354 48.5 1.63536 108.9 0.0353636C168.7 -1.46464 219.4 44.9354 223 104.635C226.9 168.535 176.8 222.535 112.6 223.235ZM219.2 111.635C219.2 52.2354 171 4.13536 111.6 4.13536C52.2 4.13536 4.1 52.2354 4.1 111.635C4.1 171.035 52.2 219.135 111.6 219.135C171 219.135 219.2 171.035 219.2 111.635Z" fill-rule="evenodd"  fill="#C5171E" >
</path>
<path d="M88.9001 22.7354C91.2001 23.2354 94.6001 16.4354 97.5001 16.0354C97.9001 15.9354 98.2001 16.1354 98.3001 16.6354C98.5001 17.7354 98.4001 18.8354 97.6001 19.6354C95.8001 21.3354 93.7001 22.7354 91.5001 23.8354C90.8001 24.1354 90.2001 24.7354 89.5001 25.1354C88.6001 25.6354 87.7001 25.6354 86.6001 25.1354C86.4001 25.0354 86.4001 24.8354 86.5001 24.7354C87.9001 22.3354 88.4001 18.8354 88.7001 16.2354C88.9001 14.3354 91.0001 16.7354 91.3001 17.2354C91.4001 17.4354 91.5001 17.6354 91.5001 17.8354C91.4001 19.9354 90.6001 21.5354 88.9001 22.7354C88.8001 22.6354 88.8001 22.7354 88.9001 22.7354Z" fill-rule="evenodd"  fill="#C5171E" >
</path>
<path d="M130.2 22.7354L128.5 23.7354C128.4 23.7354 128.4 23.8354 128.3 23.7354C127.5 23.7354 126 23.6354 126.4 22.5354C126.5 22.3354 126.6 22.2354 126.8 22.1354C128.6 21.0354 130.4 20.3354 132.1 19.2354C132.9 18.7354 133.8 18.2354 134.7 17.8354C134.9 17.7354 134.9 17.8354 134.9 18.0354C134.6 20.3354 132.8 21.1354 130.8 22.3354C130.6 22.4354 130.6 22.6354 130.8 22.8354C130.9 22.8354 130.9 22.9354 130.9 23.0354C130.9 23.8354 131.1 24.5354 131.7 25.1354C132 25.4354 132.3 25.4354 132.6 25.0354C134.9 22.4354 138.2 19.9354 141.4 19.0354C141.7 18.9354 142 19.0354 142.3 19.2354C143.1 19.8354 144.2 20.6354 144.7 21.5354C144.8 21.6354 144.8 21.8354 144.7 22.0354C143.7 24.5354 139.9 25.5354 137.5 26.0354C137.4 26.0354 137.4 26.1354 137.4 26.2354L136.9 28.5353C136.9 28.6353 136.9 28.6353 137 28.6353L137.5 28.4353C137.5 28.4353 137.6 28.4353 137.7 28.4353C138.4 28.8353 138.6 29.4353 138.4 30.2353C138.2 30.9353 137.6 31.2353 137.1 31.8353C136.4 32.7353 136 33.3353 135.8 33.5353C135.5 33.8353 135.6 33.9353 136 33.9353C136.1 33.9353 136.1 33.9353 136.2 34.0353C136.8 34.5353 138.9 36.1353 137.1 36.5353C136.3 36.7353 134 36.9353 133.4 36.1353C132.6 35.0353 133.4 33.8353 134 32.7353C134.1 32.5353 134.1 32.4353 133.8 32.6353C133.1 33.0353 132.4 33.1353 131.6 33.1353C131.5 33.1353 131.5 33.1353 131.6 33.0353C133 31.8353 134 30.8353 134.5 29.9353C135.2 28.7353 135.4 27.4354 135.8 26.1354C136 25.5354 136.1 24.9354 136.1 24.3354C136.1 24.0354 136 23.9354 135.7 24.0354C134.1 24.8354 132.8 26.8354 131.7 28.6353C130.5 30.7353 129.2 33.2353 127.6 35.0353C127.4 35.2353 127.2 35.3353 126.9 35.2353L124.6 33.9353C124.5 33.8353 124.4 33.7353 124.5 33.5353C124.7 33.1353 125 32.7353 125.4 32.4353C126.7 31.3353 127.6 30.6353 128.2 29.6353C128.2 29.5353 128.2 29.5353 128.2 29.4353C128 29.2353 127.7 29.2353 127.6 29.0353C126.5 27.6354 127.6 26.8354 128.6 26.0354C129.4 25.4354 129.7 24.7354 129.8 23.8354C129.8 23.7354 129.8 23.7354 129.9 23.6354C130 23.2354 130.2 23.0354 130.2 22.7354C130.3 22.6354 130.3 22.6354 130.2 22.7354ZM138.1 23.0354L138.1 23.6354C138.1 23.9354 138.3 24.0354 138.5 23.8354C139.6 23.2354 141.4 22.5354 142.1 21.6354C142.2 21.5354 142.2 21.4354 142.2 21.4354L141.5 20.6354C141.5 20.6354 141.4 20.5354 141.3 20.5354C139.3 20.4354 137.3 21.9354 136 23.3354C136 23.3354 135.9 23.4354 136 23.4354L136.2 23.4354C136.7 23.1354 137.3 22.9354 137.9 22.9354C138 22.9354 138.1 22.9354 138.1 23.0354ZM129.9 26.4354C129.8 26.3354 129.5 26.5354 129.2 26.8354C128.9 27.1354 128.7 27.4354 128.8 27.5354C128.9 27.6354 129.2 27.4354 129.5 27.1354C129.8 26.8354 130 26.5354 129.9 26.4354Z" fill-rule="evenodd"  fill="#C5171E" >
</path>
<path d="M138 22.9354C137.4 22.9354 136.8 23.1354 136.3 23.4354L136.1 23.4354L136.1 23.3354C137.4 21.9354 139.5 20.4354 141.4 20.5354C141.5 20.5354 141.6 20.5354 141.6 20.6354L142.3 21.4354C142.3 21.4354 142.3 21.5354 142.2 21.6354C141.4 22.6354 139.7 23.2354 138.6 23.8354C138.3 23.9354 138.2 23.9354 138.2 23.6354L138.2 23.0354C138.1 22.9354 138 22.9354 138 22.9354Z" fill-rule="evenodd"  fill="#FFFFFF" >
</path>
<path d="M94.6 26.0354C95.9 25.7354 97.1 25.7354 98.4 25.9354C98.4 25.9354 98.5 26.0354 98.6 26.0354C100 27.3354 101.1 28.8354 102 30.4354C102.1 30.5354 102 30.6354 101.9 30.7354C100.7 31.8354 99.4 30.9354 98.2 30.1354C97 29.4354 96.1 29.2354 94.8 29.0354C94.1 28.9354 93.7 28.9354 93.1001 29.4354C91.6001 30.6354 90.3001 31.9354 88.9001 33.1354C87.9001 34.0354 85.1001 34.3354 84.0001 33.4354C83.7001 33.1354 83.5001 32.8354 83.6001 32.4354C84.2001 29.8354 89.2 27.4354 91.5001 26.6354C91.6001 26.6354 91.6001 26.5354 91.7 26.5354L94.5 22.8354C94.6 22.7354 94.7 22.7354 94.8 22.8354C95.5 23.6354 94.6 24.9354 94.4 25.8354C94.4 26.0354 94.5 26.0354 94.6 26.0354ZM87.9001 31.8354C89.1001 31.3354 90.4001 30.2354 91.1001 29.2354C91.1001 29.1354 91.1001 29.1354 91.1001 29.1354C89.7 29.5354 88.5001 30.2354 87.6001 31.3354C87.4001 31.5354 87.5001 31.7354 87.7 31.8354C87.8001 31.9354 87.8001 31.8354 87.9001 31.8354Z" fill-rule="evenodd"  fill="#C5171E" >
</path>
<path d="M53.2 41.5354C52.9 41.6354 52.7 41.8354 52.8 42.2354C53 43.0354 53.2 43.7354 53.2 44.2354C53.2 44.3354 53.2 44.4354 53.2 44.4354L52.4 45.0354C52.2 45.1354 52.1 45.3354 52.1 45.5354C52.5 46.6354 53 47.9354 53.3 48.9354C53.8 50.7354 53.8 52.5354 53.6 54.4354C53.6 54.5354 53.5 54.6354 53.4 54.5354C52.4 54.0354 51 52.8354 50.7 51.7354C50.5 50.7354 50.7 49.6354 50.7 48.5354C50.7 46.3354 49.9 44.7354 47.5 44.4354C47.4 44.4354 47.4 44.4354 47.4 44.3354C46.9 43.2354 47.2 42.4354 48.3 41.8354C48.7 41.6354 49.1 41.5354 49.4 41.6354C49.5 41.6354 49.5 41.6354 49.6 41.7354L50.6 42.8354C50.6 42.8354 50.7 42.9354 50.8 42.9354C51.3 42.9354 51.5 42.7354 51.5 42.2354C51.5 40.8354 51 39.5354 51.1 38.1354C51.1 38.0354 51.1 38.0354 51.2 38.0354C51.9 37.7354 53.2 38.1354 54 38.2354C54.1 38.2354 54.1 38.3354 54.2 38.3354C54.7 39.0354 55.1 38.9354 55.6 38.2354C55.6 38.2354 55.6 38.1354 55.6 38.0354C55.5 37.4354 55.8 36.9354 55.7 36.2354C55.4 34.8354 55.4 31.5354 56.5 30.5354C56.6 30.4354 56.7 30.5354 56.8 30.6354C59.2001 34.8354 62 38.6354 65.3 42.1354C65.4 42.2354 65.5 42.4354 65.5 42.6354C65.6001 43.3354 66.2001 47.0354 64.4 46.1354C63.8 45.8354 63.1 45.6354 62.4 45.6354C62.3 45.6354 62.3 45.5354 62.3 45.5354C62.3 44.7354 62.4 44.2354 62 43.5354C60.7001 41.0354 59.2001 38.6354 57.5 36.4354C57.1 35.8354 56.3 35.7354 56.4 36.7354C56.4 37.5354 56.7 38.3354 57.1 39.0354C57.1 39.0354 57.2001 39.1354 57.3 39.1354C58.2001 39.4354 58.7001 40.0354 58.7001 41.0354C58.7001 41.3354 58.6 41.6354 58.3 41.7354C57.1 42.1354 56 41.3354 55.7 40.2354C55.5 39.3354 54.8 39.5354 55 40.4354C55.2 41.4354 55.8 42.2354 56.1 43.1354C56.5 44.1354 57.3 44.7354 58 45.5354C58.7001 46.2354 59.3 47.9354 58.2001 48.6354C57.8 48.8354 57.5 48.8354 57.2001 48.5354C55.2 46.7354 54.9 44.0354 53.6 41.7354C53.3 41.5354 53.3 41.4354 53.2 41.5354Z" fill-rule="evenodd"  fill="#C5171E" >
</path>
<path d="M169.7 40.9354L170.3 39.8354C170.5 39.3354 170.8 39.3354 171.2 39.6354L171.8 40.2354C171.8 40.2354 171.9 40.3354 172 40.2354C172.8 39.9354 173.4 39.4354 173.9 38.8354C173.9 38.8354 173.9 38.7354 173.9 38.6354C173.9 38.1354 174.2 37.8354 174.7 37.8354C174.7 37.8354 174.8 37.8354 174.9 37.8354L176 38.3354C176 38.3354 176.1 38.3354 176.2 38.2354L180.9 35.9354C181 35.8354 181.2 35.9354 181.2 36.1354C181.6 37.0354 181.5 37.9354 181.1 38.8354C181 39.0354 180.8 39.2354 180.5 39.3354C179.7 39.6354 179 39.8354 178.3 39.9354C177.4 40.1354 177.4 40.7354 178.2 41.1354C178.7 41.3354 179.1 41.5354 179.6 41.8354C179.7 41.9354 179.8 42.0354 179.8 42.1354L179.8 44.0354C179.8 44.1354 179.8 44.1354 179.7 44.2354C178.5 45.2354 176.9 45.0354 175.5 45.3354C175.2 45.4354 175 45.5354 174.9 45.8354L174 47.7354C173.9 47.9354 173.8 48.0354 173.6 47.9354C172.4 47.8354 171.1 47.6354 169.8 47.4354C168.9 47.2354 167.8 47.4354 167.1 47.1354C166.8 47.0354 167 46.7354 167.2 46.7354C168.3 46.5354 170 46.8354 171.1 46.4354C171.2 46.4354 171.2 46.3354 171.2 46.3354C171.4 45.8354 167 45.5354 166.4 45.5354C165.2 45.5354 163.9 45.7354 162.5 45.8354C162.4 45.8354 162.3 45.7354 162.2 45.6354L160.3 43.4354C160.2 43.3354 160.2 43.2354 160.2 43.2354C160.4 42.3354 161 42.4354 161.7 42.6354C164.4 43.3354 167.2 43.9354 170 44.4354C170.1 44.4354 170.2 44.4354 170.2 44.4354C170.6 44.0354 170.7 43.5354 170.6 42.9354L170.5 42.8354C169.2 42.7354 168.5 42.8354 167.3 42.1354C167.3 42.1354 167.2 42.1354 167.1 42.1354L164.4 42.5354C164.3 42.5354 164.1 42.4354 164.1 42.2354C164.1 41.3354 165.4 39.7354 166.5 38.2354C167.3 37.2354 167.6 35.6354 168.6 34.9354C168.9 34.7354 169.1 34.8354 169.2 35.2354C169.4 37.1354 168.4 39.3354 167.7 41.1354C167.3 42.1354 169.3 41.2354 169.7 41.2354C169.6 41.1354 169.6 41.0354 169.7 40.9354ZM172.6 42.1354C173 42.7354 175.2 41.0354 174.7 42.7354C174.6 43.0354 174.4 43.3354 174 43.4354L173.3 43.8354C173.2 43.8354 173.2 43.9354 173.2 43.9354C173.1 44.1354 173.2 44.2354 173.4 44.1354C174.4 43.7354 175.4 43.3354 176.4 42.7354C176.5 42.7354 176.5 42.6354 176.5 42.5354C176.7 41.8354 175.7 41.0354 175.3 40.5354C175.3 40.5354 175.2 40.5354 175.1 40.5354L173.7 40.8354C173.6 40.8354 173.5 40.9354 173.5 40.9354L172.6 41.9354C172.5 42.0354 172.5 42.1354 172.6 42.1354Z" fill-rule="evenodd"  fill="#C5171E" >
</path>
<path d="M161.4 38.8354C162 38.3354 162.7 37.8354 163.4 37.6354C163.7 37.5354 163.9 37.6354 163.9 37.9354C164 39.3354 163.5 40.3354 162.4 41.0354C161.4 41.6354 160.7 40.6354 160.8 39.7354C160.9 39.3354 161 39.0354 161.4 38.8354Z" fill-rule="evenodd"  fill="#C5171E" >
</path>
<path d="M161.4 55.0354C160.2 54.8354 158.6 52.4354 158 51.4354C157.8 51.1354 158 51.0354 158.3 50.9354C159.1 50.8354 159.7 51.4354 160.4 51.6354C160.7 51.7354 160.9 51.6354 161.1 51.4354C161.7 50.8354 162.1 50.1354 162.5 49.4354C162.6 49.2354 162.5 49.1354 162.3 49.0354C161 48.7354 159.7 48.6354 158.3 48.6354C156.7 48.6354 155.8 47.6354 155.7 46.1354C155.6 45.2354 156.3 45.2354 156.9 45.4354C159.3 46.4354 161.7 47.1354 164.2 47.7354C164.3 47.7354 164.5 47.7354 164.6 47.6354L165.5 46.6354C165.6 46.5354 165.7 46.5354 165.8 46.5354C166.9 47.1354 166.4 48.3354 167.7 48.7354C168.1 48.8354 168.1 49.0354 167.9 49.3354C167.5 49.9354 167.3 49.9354 166.7 49.6354C166.3 49.5354 165.8 49.6354 165.5 50.0354C164.1 51.5354 162.9 53.1354 161.6 54.7354C161.7 55.0354 161.5 55.1354 161.4 55.0354Z" fill-rule="evenodd"  fill="#C5171E" >
</path>
<path d="M46.9 49.7354C46.2 49.1354 45.7 48.6354 45.9 47.7354C45.9 47.5354 45.8 47.3354 45.7 47.2354L45.1 46.8354C44.7 46.6354 44.7 46.4354 45.2 46.3354C46.2 46.1354 47.2 46.2354 48.1 46.7354C49.4 47.3354 49.8 48.3354 49.4 49.8354C48.8 51.0354 47.5 50.2354 46.9 49.7354Z" fill-rule="evenodd"  fill="#C5171E" >
</path>
<path d="M92.8 55.4354C92.8 60.1354 89 63.9354 84.3 63.9354C79.6 63.9354 75.8 60.1354 75.8 55.4354C75.8 50.7354 79.6 46.9354 84.3 46.9354C89 46.9354 92.8 50.8354 92.8 55.4354Z" fill-rule="evenodd"  fill="#C5171E" >
</path>
<path d="M119.9 55.4354C119.9 60.1354 116.1 63.9354 111.4 63.9354C106.7 63.9354 102.9 60.1354 102.9 55.4354C102.9 50.7354 106.7 46.9354 111.4 46.9354C116.1 46.9354 119.9 50.7354 119.9 55.4354Z" fill-rule="evenodd"  fill="#C5171E" >
</path>
<path d="M147.4 55.4354C147.4 60.1354 143.6 63.9354 138.9 63.9354C134.2 63.9354 130.4 60.1354 130.4 55.4354C130.4 50.7354 134.2 46.9354 138.9 46.9354C143.6 46.9354 147.4 50.8354 147.4 55.4354Z" fill-rule="evenodd"  fill="#C5171E" >
</path>
<path d="M23 65.1354C23.1 65.1354 23.1 65.1354 23.2 65.0354L23.7 64.2354C23.7 64.1354 23.8 64.1354 23.9 64.1354C24.8 63.7354 25.1 64.0354 24.7 64.9354C24.5 65.5354 24.2 66.2354 24 66.8354C23.7 67.7354 23.7 69.1354 23.8 69.8354C23.9 70.3354 24.6 74.6353 24.4 74.7353C24.4 74.7353 24.3 74.7353 24.3 74.6353C24.1 74.2353 24 73.8354 23.9 73.4354C23.2 70.7354 21.8 68.4354 20.7 65.9354C19.6 63.6354 22.3 64.7354 23 65.1354Z" fill-rule="evenodd"  fill="#C5171E" >
</path>
<path d="M35.1 80.8354C35.1 81.4354 35.8 82.1354 36 82.7354C36 82.8354 36 82.9354 36 82.9354L35.6 83.4354C35.6 83.4354 35.5 83.4354 35.4 83.4354L33.6 82.7354C33.5 82.7354 33.4 82.5354 33.5 82.4354L33.7 80.4354C33.7 80.3354 33.7 80.2354 33.6 80.2354L33 79.7354C32.9 79.6354 32.9 79.6354 32.8 79.5354C32.6 79.2354 32.4 78.9354 32.1 78.7354C32 78.6354 31.9 78.6354 31.9 78.7354C31.5 79.0354 32.7 80.2354 32.9 80.3354C33.2 80.5354 33.2 80.7354 32.9 80.9354C31.4 81.7354 31.1 80.6354 31 79.4354C30.9 78.9354 30.9 78.4354 30.8 77.9354C30.8 77.7354 30.5 77.6354 30.4 77.7354C29.3 78.3354 31.7 80.9354 28.3 81.0354C28 81.0354 27.8 80.8354 27.8 80.5354C27.9 79.1354 28.2 76.8354 27.8 75.5354C27.5 74.7354 26.8 74.3354 26.4 75.3354C26.2 75.7354 26.1 76.2354 26 76.6354C25.8 77.8354 25.1 78.7354 24.2 79.3354C24.1 79.3354 24.1 79.4354 24 79.3354C23.7 79.2354 23.7 78.9354 23.9 78.7354C24.2 78.2354 24.4 77.6354 24.3 76.9354C24.3 76.8354 24.3 76.7354 24.3 76.7354C24.5 76.5354 24.7 76.5354 25 76.7354C25 76.7354 25.1 76.7354 25.1 76.6354C25.2 76.3354 25.3 76.0354 25.3 75.6354C25.3 74.1354 25.3 72.5354 25.2 71.0354C25.2 70.8354 25.3 70.7354 25.5 70.6354L26.4 70.5354C26.5 70.5354 26.6 70.3354 26.5 70.2354C25.7 68.4354 25.8 66.0354 26.4 64.2354C26.5 64.0354 26.6 63.9354 26.8 63.9354C27.3 64.0354 27.7 64.2354 28 64.5354C29.9 66.6354 32.3 68.2354 34.7 69.8354C38.2 72.1354 41.9 72.2354 44.5 75.3354C45.1 76.0354 45 77.3354 45.1 78.1354C45.1 78.3354 45 78.4354 44.8 78.4354C44 78.6354 43.1 78.4354 42.3 78.4354C41.8 78.4354 41.1 78.6354 40.4 78.5354C40.1 78.4354 39.9 78.2354 40 77.9354C40.2 77.0354 41.1 76.6354 41.8 76.2354C41.9 76.2354 41.9 76.1354 41.8 76.1354C39.4 74.6354 37 73.1354 34.6 71.6354C34.2 71.4354 33.8 71.0354 33.2 70.6354C32.6 70.1354 31.8 69.7354 31.3 69.3354C29.9 68.3354 28.5 67.0354 27.6 67.0354C27.4 67.0354 27.2 67.1354 27.2 67.3354C26.8 68.8354 27.6 70.1354 26.8 71.4354C26.8 71.5354 26.7 71.5354 26.7 71.5354L26 71.7354C26 71.7354 25.9 71.8354 25.9 71.9354C25.7 72.5354 25.8 73.0354 26.1 73.5354C26.3 73.7354 26.4 73.7354 26.6 73.3354L27.2 72.2354C27.2 72.1354 27.3 72.1354 27.4 72.1354L28.1 72.3354C28.3 72.4354 28.5 72.3354 28.6 72.1354L29 69.9354C29 69.8354 29.1 69.8354 29.2 69.8354C29.9 70.2354 30.3 70.9354 30.3 71.7354C30.3 72.6354 30.4 73.2354 30.5 73.9354C30.5 74.0354 30.6 74.0354 30.6 74.0354C30.8 74.0354 31 73.9354 31.1 73.7354C31.9 72.4354 32.3 73.6354 32.5 74.3354C32.7 75.1354 33 76.2354 33.9 76.7354C34.9 77.2354 36 76.9354 36.8 77.9354C37.2 78.5354 37.9 80.4354 37.4 81.1354C37 81.6354 35.5 80.8354 35 80.7354C35.1 80.7354 35.1 80.8354 35.1 80.8354Z" fill-rule="evenodd"  fill="#C5171E" >
</path>
<path d="M201.5 77.2353L203.4 79.0353C203.4 79.0353 203.4 79.1353 203.4 79.2353C203.4 79.7353 203.3 80.2353 203 80.6353C202.9 80.7353 202.8 80.8353 202.7 80.8353C201.3 81.0353 200.4 80.8353 199.3 79.9353C198.3 79.0353 197.3 78.2353 196.3 77.3353C196.1 77.2353 196.1 77.2353 196.1 77.4353C196.2 78.0353 196.6 78.7353 195.7 78.9353C195.3 79.0353 195.2 79.2353 195.5 79.7353C195.8 80.3353 195.7 80.8353 195.3 81.2353C195.1 81.4353 194.9 81.4353 194.7 81.2353C193.2 80.1353 191.1 79.3353 189.5 78.9353C188.6 78.6353 187.7 78.6353 186.8 78.3353C186.1 78.1353 183.8 78.0353 183.5 77.3353C183.2 76.6353 184.5 75.9353 184.9 75.5353C185.1 75.3353 185.3 75.3353 185.5 75.4353C187.8 76.5353 190 77.7353 192.2 78.8353C192.4 78.9353 192.5 78.9353 192.5 78.7353C192.5 78.6353 192.5 78.6353 192.4 78.5353C191.6 77.9353 190.9 77.2353 190.2 76.5353C189.9 76.2353 189.9 76.0353 190.1 75.7353L190.7 74.9353C190.8 74.8353 190.8 74.8353 190.9 74.8353L191.7 74.8353C191.8 74.8353 191.8 74.9353 191.8 75.0353C191.8 75.5353 191.9 75.9353 192.1 76.0353C192.3 76.2353 194.1 77.8353 194.2 77.8353C194.2 77.8353 194.2 77.8353 194.2 77.7353C193.7 77.1353 193.3 76.6353 192.8 76.0353C192.4 75.5353 192.8 75.5353 193.2 75.5353C193.3 75.5353 193.5 75.4353 193.6 75.3353L194.1 74.5353C194.3 74.2353 194.5 74.2353 194.6 74.6353C195.2 76.1353 196.2 77.0353 197.7 77.6353C198.6 77.9353 199.3 78.1353 199.9 78.1353C200.3 78.1353 200.4 77.7353 200.1 77.5353C198.9 76.4353 197.6 75.4353 196.3 74.5353C194.6 73.4354 194.2 73.5354 192.3 74.0354C191.5 74.3353 191.2 74.0354 190.6 73.6354C190.3 73.4354 190.3 73.2354 190.6 72.9354C191.6 72.0354 191.2 70.5354 190.8 69.5354C190.8 69.4354 190.7 69.4354 190.6 69.4354C186.8 70.5354 183 71.8354 179.3 73.3354C179.1 73.4354 179 73.3354 178.8 73.3354L177.8 72.6354C177.7 72.5354 177.6 72.4354 177.7 72.3354L178.4 71.4354C178.4 71.4354 178.5 71.3354 178.5 71.2354L179.1 70.0354C179.1 70.0354 179.2 69.9354 179.3 69.9354C179.8 69.8354 180.5 69.6354 181.5 69.5354C183.6 69.2354 185.8 68.7354 188.2 68.0354C189.1 67.8354 190.2 67.5354 191.4 67.2354C191.8 67.1354 192 67.2354 192 67.6354C192 68.1354 190.8 68.4354 191.5 68.7354C192 68.9354 192.5 69.1354 193 69.3354C193.1 69.3354 193.1 69.3354 193.2 69.3354C194.1 68.7354 195.3 68.0354 196.3 68.0354C196.7 68.0354 196.6 67.7354 196.3 67.6354C196 67.6354 195.7 67.5354 195.4 67.3354C195.1 67.1354 195 66.9354 195.1 66.6354C195.3 66.0354 195.5 65.3354 195.6 64.6354C195.7 64.1354 196.2 63.9354 196.4 64.5354C196.5 64.9354 196.7 65.3354 197 65.5354C198.4 66.7354 199.4 67.8354 201.1 68.9354C201.2 68.9354 201.2 69.0354 201.2 69.1354C201.4 69.6354 201.6 70.1354 201.6 70.6354C201.6 70.7354 201.6 70.7354 201.6 70.8354C201.3 71.2354 200.9 71.3354 200.3 71.2354C198.6 70.7354 197 70.2354 195.3 69.8354C195.2 69.8354 195.1 69.8354 195.1 69.8354C194.4 70.1354 193.9 70.6354 193.5 71.2354C193.4 71.5354 193.5 71.7354 193.8 71.7354C195.1 71.7354 196.4 71.4354 197.7 71.6354C198.4 71.7354 198.7 72.1354 197.8 72.5354C196.1 73.3354 199.9 76.0353 200.4 76.4353C200.5 76.5353 200.6 76.5353 200.6 76.4353L201.8 75.5353C201.9 75.4353 201.9 75.3353 201.8 75.2353C201 74.6353 200.3 73.9354 199.7 73.2354C199.7 73.1354 199.6 73.1354 199.7 73.0354C199.7 73.0354 199.8 72.9354 199.8 73.0354C200.9 73.6354 201.9 74.1354 203 74.4353C203.1 74.4353 203.1 74.4353 203.2 74.4353L204.4 73.2354C204.5 73.1354 204.6 73.1354 204.6 73.2354C204.9 74.3353 204.9 75.4353 204.6 76.5353C204.5 76.8353 204.3 77.1353 204 77.2353C203.2 77.4353 202.4 77.4353 201.5 77.2353C201.4 77.1353 201.4 77.1353 201.5 77.2353Z" fill-rule="evenodd"  fill="#C5171E" >
</path>
<path d="M141.9 170.135C150.5 165.935 158.1 159.335 163.8 151.735C182.1 127.535 181.7 94.9354 163.1 71.0354C163.1 70.9354 163 70.9354 162.9 70.9354C161.7 70.7354 160.9 70.0354 160.7 68.8354C159.8 64.6354 167 64.4354 165.9 69.2354C165.9 69.3354 165.9 69.3354 165.9 69.4354C189 99.1354 184.2 141.135 155.5 165.135C151.6 168.335 147.4 171.135 142.9 173.335C142.8 173.335 142.8 173.435 142.8 173.435C143.2 174.735 143.6 175.935 144.1 177.235C144.7 179.035 143.3 182.035 141.6 182.735C134.4 185.835 126.6 188.235 119.1 189.035C115.9 189.335 112.4 189.435 108.6 189.135C100.1 188.635 92.0999 186.135 84.2999 182.935C82.4999 182.135 81.5999 180.535 81.2999 178.635C81.0999 177.535 81.9999 175.635 82.3999 174.535C82.3999 174.435 82.3999 174.435 82.2999 174.435C67.4999 167.035 55.5999 155.235 48.8 140.135C38.3 116.635 41.7 89.5354 57.4999 69.3354C57.4999 69.3354 57.5999 69.2354 57.4999 69.1354C57.0999 67.0354 58.7999 65.1354 60.8999 65.8354C63.5999 66.7354 63.1999 70.7354 60.2999 71.0354C60.1999 71.0354 60.1999 71.0354 60.1999 71.1354C45.9 89.3354 42 113.535 50.2 135.135C56.1999 151.035 68.0999 163.735 83.2999 171.335C83.3999 171.335 83.4999 171.335 83.4999 171.235C83.6999 168.835 85.5999 167.535 87.8999 167.335C88.1999 167.335 88.5999 167.335 88.8999 167.535C97.9999 171.435 108.1 173.735 117.9 172.635C124.5 171.835 130.7 170.135 136.8 167.435C137 167.335 137.3 167.335 137.5 167.335C139.4 167.435 141.1 168.335 141.8 170.135C141.8 170.135 141.8 170.135 141.9 170.135ZM85.6999 181.135C92.8999 184.235 100.4 186.135 108.2 186.835C118.2 187.735 128.7 185.535 137.9 181.835C139.4 181.235 141.2 180.535 141.5 178.635C141.6 178.335 141.5 177.835 141.3 177.435C140.6 175.335 139.9 173.235 139.2 171.235C138.8 170.135 137.8 169.935 136.8 170.435C128.2 174.035 119.2 176.135 109.8 175.635C102.4 175.235 95.0999 173.135 88.1999 170.235C87.3999 169.935 86.4999 170.335 86.1999 171.135C85.3999 173.335 84.6999 175.535 83.8999 177.835C83.5999 178.735 84.2999 179.935 84.7999 180.635C85.0999 180.835 85.2999 181.035 85.6999 181.135Z" fill-rule="evenodd"  fill="#C5171E" >
</path>
<path d="M106 164.635C97 164.135 87.1 161.635 81.8 153.435C77.2 146.435 76.4 137.835 76.3 129.535C76.3 109.235 76.3 88.9354 76.3 68.5354C76.3 68.3354 76.4 68.3354 76.5 68.4354C80.9 73.4354 86.8 72.6354 91.4 68.4354C91.5 68.3354 91.5 68.3354 91.5 68.5354C91.5 88.3354 91.5 108.135 91.5 127.935C91.5 134.035 92.3 140.335 97.2 144.635C101.1 148.035 106.9 149.035 111.9 148.835C114.7 148.735 117.1 148.335 119.1 147.735C127.3 145.135 130.8 137.835 130.8 129.735C130.8 109.335 130.8 89.0354 130.8 68.6354C130.8 68.4354 130.9 68.4354 131 68.5354C135.8 72.8354 141.5 72.6354 146.4 68.5354C146.5 68.4354 146.6 68.4354 146.6 68.6354C146.6 89.1354 146.6 109.535 146.6 130.035C146.6 131.835 146.5 134.035 146.2 136.635C145.4 144.935 142.7 153.135 135.8 158.435C127.9 164.435 115.8 165.235 106 164.635Z" fill-rule="evenodd"  fill="#C5171E" >
</path>
<path d="M113.8 136.335C109.8 137.635 104.7 136.035 103.3 131.635C103.1 131.035 103 129.935 103 128.535C103 108.535 103 88.5354 103 68.6354C103 68.4354 103.1 68.4354 103.2 68.5354C105.9 71.0354 109.7 73.1354 113.5 71.9354C115.6 71.2354 117.3 70.1354 119 68.7354C119.3 68.5354 119.4 68.5354 119.4 68.9354C119.4 88.9354 119.4 108.835 119.4 128.735C119.4 132.635 117.5 135.135 113.8 136.335Z" fill-rule="evenodd"  fill="#C5171E" >
</path>
<path d="M20.4 74.9354C20.4 74.8354 20.4 74.8354 20.3 74.7354L18.5 73.9354C18.4 73.9354 18.4 73.8354 18.4 73.7354C18.6 73.2354 18.9 73.0354 19.5 73.1354C19.6 73.1354 19.7 73.1354 19.7 73.1354L20.1 72.7354C20.2 72.6354 20.2 72.6354 20.3 72.6354L22.3 72.7354C22.4 72.7354 22.4 72.7354 22.5 72.8354C22.9 73.4354 23.1 74.0354 23.1 74.7354C23.1 74.8354 23.1 74.9354 23 74.9354L22.7 75.2354C22.7 75.2354 22.6 75.3354 22.7 75.4354C22.8 76.2354 22.9 77.0354 22.9 77.8354C23 79.0354 21.7 79.6354 20.7 79.6354C20.4 79.6354 20.3 79.5354 20.4 79.2354C20.5 77.8354 20.3 76.4354 20.4 74.9354Z" fill-rule="evenodd"  fill="#C5171E" >
</path>
<path d="M35 76.3354C34.8 76.2354 34.8 76.1354 35 76.0354C36.2 75.3354 37.4 75.1354 38.7 75.6354C39.6 75.9354 39.7 76.9354 39.4 77.7354C39.3 78.0354 39 78.1354 38.7 78.0354L35 76.3354Z" fill-rule="evenodd"  fill="#C5171E" >
</path>
<path d="M185.8 81.8354C185.5 82.0354 185.5 82.2354 185.7 82.4354C186.9 84.1354 188.4 84.7354 190.4 83.7354C190.5 83.6354 190.5 83.7354 190.5 83.8354C190.4 84.4354 190.3 84.9354 189.8 85.3354C189.2 85.9354 188.5 86.5354 187.9 87.1354C186.5 88.4354 184.6 85.6354 184 84.6354C183.5 83.8354 182.8 81.6354 183.2 80.7354C183.2 80.6354 183.3 80.6354 183.3 80.6354C184.9 79.9354 186.6 79.5354 188.4 79.4354C188.5 79.4354 188.5 79.4354 188.5 79.5354C188.6 81.2354 186.9 81.2354 185.8 81.8354Z" fill-rule="evenodd"  fill="#C5171E" >
</path>
<path d="M30.9 87.7354C29.4 86.3354 28.1 84.8354 26.9 83.2354C26.8 83.1354 26.8 83.0354 26.8 83.0354L27.2 82.2354C27.2 82.2354 27.3 82.2354 27.4 82.2354L29.8 84.0354C29.9 84.0354 29.9 84.1354 30 84.1354C31 84.1354 31.9 84.4354 32.7 84.9354C33.3 85.3354 33.5 86.0354 33.5 86.7354C33.5 86.8354 33.5 86.8354 33.4 86.9354C33 87.5354 31.7 88.4354 30.9 87.7354Z" fill-rule="evenodd"  fill="#C5171E" >
</path>
<path d="M21.3 105.335C21.9 104.635 26.8 100.535 27.4 102.335C27.5 102.735 27.4 102.935 27 103.035C24.8 103.635 23.2 105.035 21.7 106.735C21.3 107.235 20.9 106.935 20.6 106.535C19.1 104.735 17.5 103.935 15.4 102.935C15.3 102.935 15.3 102.835 15.3 102.835C15 101.935 15.8 101.835 16.4 102.035C18.3 102.735 19.9 103.835 21.3 105.335C21.2 105.335 21.2 105.335 21.3 105.335Z" fill-rule="evenodd"  fill="#C5171E" >
</path>
<path d="M202.7 105.335C204.1 103.635 205.9 102.535 208 101.835C208.3 101.735 208.5 101.835 208.6 102.135C208.8 102.735 208.6 102.935 208.1 103.035C205.9 103.735 204.5 105.135 202.8 106.735C202.5 107.035 202.3 106.935 202.1 106.735C200.7 104.935 198.9 103.735 196.7 102.935C196.6 102.935 196.6 102.835 196.5 102.835C196 101.935 196.8 101.735 197.5 102.035C199.4 102.735 201.1 103.835 202.4 105.335C202.6 105.335 202.7 105.435 202.7 105.335Z" fill-rule="evenodd"  fill="#C5171E" >
</path>
<path d="M25.3 117.635C22.9 117.735 20.5 117.835 18.1 118.035C18 118.035 17.9 118.135 17.9 118.235L18.1 122.235C18.1 122.335 18.1 122.335 18 122.335L16.9 122.435C16.8 122.435 16.8 122.335 16.8 122.235L16.5 116.635C16.5 116.535 16.6 116.535 16.6 116.535L28 115.935C28.1 115.935 28.2 115.935 28.2 116.035L28.2 117.235C28.2 117.335 28.1 117.335 28.1 117.335C27 117.535 26.1 117.635 25.3 117.635Z" fill-rule="evenodd"  fill="#C5171E" >
</path>
<path d="M201.4 124.535C197.8 123.735 197.2 118.435 201.3 117.735C201.6 117.735 202.3 117.735 203.3 117.735C203.4 117.735 203.4 117.835 203.4 117.835L203 123.135C203 123.235 203.1 123.235 203.2 123.235C205.9 123.135 206.8 120.735 205.4 118.535C205.3 118.335 205.3 118.335 205.5 118.335L206.6 118.535C206.6 118.535 206.7 118.635 206.7 118.735C207.1 119.835 207.2 120.735 207.1 121.635C206.6 124.635 203.9 125.135 201.4 124.535ZM199.7 121.035C199.7 122.235 200.7 122.835 201.6 123.235C201.7 123.235 201.8 123.235 201.8 123.135L202.1 119.235C202.1 119.135 202 119.135 202 119.135C200.5 119.035 199.7 119.635 199.7 121.035Z" fill-rule="evenodd"  fill="#C5171E" >
</path>
<path d="M18.9 128.735C16.9 127.735 16.2 124.535 18.8 123.835C21.8 122.935 22.3 126.035 23 128.135C23 128.235 23.1 128.235 23.1 128.235C25.8 128.135 24.7 125.235 23.5 124.135C23.4 124.035 23.4 123.935 23.6 123.935L24.2 123.835C24.5 123.735 24.8 123.835 25 124.135C26.4 126.235 26.7 129.135 23.4 129.735C21.6 130.035 19.9 130.335 18.1 130.535C18 130.535 17.9 130.535 17.9 130.435L17.8 129.235C17.8 129.235 17.9 129.135 18 129.135L18.9 129.135C19.1 128.935 19.1 128.835 18.9 128.735ZM20.1 125.135C17.1 124.735 18.3 129.735 21.7 128.435C21.8 128.435 21.8 128.335 21.8 128.335L20.9 125.835C20.9 125.335 20.6 125.135 20.1 125.135Z" fill-rule="evenodd"  fill="#C5171E" >
</path>
<path d="M206 128.435C205.4 134.235 196.6 132.735 197.4 127.335C197.5 126.635 197.7 126.035 198.1 125.535C198.2 125.435 198.3 125.435 198.5 125.435L199.4 125.635C199.5 125.635 199.6 125.735 199.5 125.735C196.5 128.835 201.2 132.135 203.8 130.135C204.9 129.335 205 127.835 204.5 126.535C204.5 126.435 204.5 126.335 204.6 126.435L205.7 126.635C205.7 126.635 205.8 126.735 205.8 126.835C206 127.435 206.1 127.935 206 128.435Z" fill-rule="evenodd"  fill="#C5171E" >
</path>
<path d="M26 132.935C28.8 133.935 28.9 137.535 25.7 138.335C24 138.735 22.3 139.135 20.6 139.535C20.5 139.535 20.4 139.535 20.4 139.435L20.1 138.235C20.1 138.235 20.1 138.135 20.2 138.135C21.8 137.735 23.5 137.335 25.1 136.935C27.6 136.335 27 133.435 24.8 133.135C24.5 133.135 24.1 133.135 23.6 133.235C22.1 133.535 20.7 133.935 19.2 134.235C19.1 134.235 19.1 134.235 19 134.135L18.7 132.935C18.7 132.935 18.8 132.835 18.9 132.835L26.6 130.935C26.7 130.935 26.7 130.935 26.8 130.935L27.1 132.035C27.1 132.135 27.1 132.135 27 132.135C26.7 132.235 26.4 132.335 26 132.435C26 132.435 25.9 132.435 25.9 132.535C25.9 132.835 26 132.935 26 132.935Z" fill-rule="evenodd"  fill="#C5171E" >
</path>
<path d="M196.3 138.335C195.6 137.135 195.1 136.035 196 134.735C196.7 133.735 197.8 133.335 199.2 133.735C201.3 134.235 203 134.635 204.4 135.035C204.5 135.035 204.5 135.135 204.5 135.135L204.2 136.335L204.1 136.435C201.5 135.735 199.8 135.335 199.1 135.135C196.3 134.535 195.7 138.235 198.3 138.935C199.9 139.335 201.4 139.835 203 140.235C203.1 140.235 203.1 140.335 203.1 140.335L202.8 141.435C202.8 141.535 202.7 141.635 202.6 141.635L194.9 139.635C194.8 139.635 194.7 139.435 194.8 139.335L195.1 138.335C195.1 138.235 195.2 138.235 195.3 138.235L196.3 138.535C196.3 138.435 196.3 138.435 196.3 138.335Z" fill-rule="evenodd"  fill="#C5171E" >
</path>
<path d="M29.2 143.335C29.3 143.035 28 140.135 27.9 139.635C27.9 139.535 27.9 139.435 27.9 139.435L28.8 139.135C28.9 139.135 28.9 139.135 29 139.235L31 144.635C31.2 145.135 31 145.235 30.6 145.135L23 143.035C22.9 143.035 22.8 143.035 22.9 143.135L24.4 147.135C24.4 147.235 24.4 147.235 24.4 147.335L23.4 147.735C23.4 147.735 23.3 147.735 23.3 147.635L21.1 141.835C21 141.435 21.1 141.335 21.5 141.435L29 143.535C29.1 143.435 29.1 143.435 29.2 143.335Z" fill-rule="evenodd"  fill="#C5171E" >
</path>
<path d="M196.3 147.735C199 148.435 200.5 146.235 199.9 143.835C199.9 143.735 199.9 143.735 200 143.735C200.8 143.735 201.2 144.135 201.2 144.935C201.1 147.235 199.9 149.335 197.4 149.335C195.9 149.335 194 148.535 193.1 147.235C192.1 145.835 192.3 143.935 193.5 142.735C194.7 141.535 196.8 141.835 198.2 142.535C198.2 142.535 198.3 142.635 198.2 142.635L196.2 147.735C196.2 147.635 196.2 147.735 196.3 147.735ZM194.9 147.135C195 147.235 195.1 147.135 195.2 147.035L196.6 143.435C196.6 143.335 196.6 143.335 196.5 143.235C195.2 142.735 193.7 143.335 193.6 144.735C193.5 145.835 194.1 146.535 194.9 147.135Z" fill-rule="evenodd"  fill="#C5171E" >
</path>
<path d="M31.4 147.935C31.2 148.035 31.2 148.035 31.4 148.135C34 148.935 35.1 151.935 32.2 153.335C30.5 154.135 28.9 154.935 27.2 155.635C27.1 155.635 27.1 155.635 27 155.635L26.5 154.635C26.4 154.535 26.5 154.335 26.6 154.335C27.9 153.735 29.3 153.135 30.6 152.535C31.6 152.135 32.8 151.135 32.2 149.935C31.4 148.335 29.9 148.435 28.5 149.135C27.2 149.635 26 150.235 24.7 150.835C24.6 150.835 24.6 150.835 24.6 150.835L24.1 149.735C24.1 149.635 24.1 149.635 24.2 149.635L35.1 144.735C35.2 144.735 35.2 144.735 35.3 144.735L35.8 145.835C35.8 145.935 35.8 145.935 35.7 146.035L31.4 147.935Z" fill-rule="evenodd"  fill="#C5171E" >
</path>
<path d="M188.6 148.435C188.6 148.935 188.2 149.335 187.7 149.335C187.2 149.335 186.8 148.935 186.8 148.435C186.8 147.935 187.2 147.535 187.7 147.535C188.2 147.535 188.6 147.935 188.6 148.435Z" fill-rule="evenodd"  fill="#C5171E" >
</path>
<path d="M197.6 153.735C197.6 153.835 197.5 153.835 197.5 153.735L190.2 150.335C190.2 150.335 190.1 150.235 190.2 150.235L190.7 149.135C190.7 149.035 190.8 149.035 190.8 149.135L198.1 152.535C198.1 152.535 198.2 152.635 198.1 152.635L197.6 153.735Z" fill-rule="evenodd"  fill="#C5171E" >
</path>
<path d="M189.1 158.735C186.8 156.935 187.2 153.935 189.3 152.135C189.3 152.135 189.4 152.135 189.5 152.135L190.4 152.535C190.6 152.635 190.6 152.735 190.4 152.835C187.8 154.435 188.6 157.035 191 158.235C193.2 159.235 195.1 157.535 195 155.235C195 155.135 195 155.035 195.1 155.135L196.1 155.735C196.1 155.735 196.2 155.835 196.1 155.935C195.8 159.735 192 161.035 189.1 158.735Z" fill-rule="evenodd"  fill="#C5171E" >
</path>
<path d="M31 162.135C26.6 157.935 33.5 152.535 37.1 156.235C41.2 160.435 34.4 165.335 31 162.135ZM31.6 161.035C32.4 161.935 33.6 162.135 34.7 161.635C36.2 161.035 37.8 159.635 36.8 157.835C34.8 154.135 28.9 158.135 31.6 161.035Z" fill-rule="evenodd"  fill="#C5171E" >
</path>
<path d="M181.9 164.235C178.2 162.935 180.4 158.835 182.4 157.235C182.5 157.135 182.7 157.135 182.8 157.235L183.8 157.835C183.9 157.935 183.9 158.035 183.8 158.135C182.7 158.735 180.7 160.735 181.5 162.135C182.1 163.035 183 163.035 183.9 162.635C185.3 162.035 187.4 160.535 189.2 161.035C190.2 161.335 191.1 162.235 191.3 163.335C191.6 165.235 189.8 167.335 188.4 168.335C188.2 168.435 188 168.435 187.8 168.335L186.9 167.735C186.8 167.635 186.8 167.535 186.9 167.535C188.1 167.035 190.5 165.135 189.9 163.535C189.4 162.235 188 162.435 186.9 162.935C185.5 163.435 183.5 164.835 181.9 164.235Z" fill-rule="evenodd"  fill="#C5171E" >
</path>
<path d="M37.9 170.035C35.2 170.035 33.6 166.735 36.1 164.835C37.5 163.835 39 162.835 40.4 161.735C40.5 161.635 40.6 161.735 40.6 161.735L41.2 162.535C41.3 162.635 41.3 162.835 41.2 162.835L37.6 165.435C37.3 165.635 37.1 165.835 36.8 166.135C35.1 168.035 37.8 169.935 39.7 168.835C40.3 168.435 41.6 167.535 43.7 166.035C43.8 165.935 43.9 165.935 43.9 166.035L44.6 167.035C44.6 167.135 44.6 167.235 44.5 167.335L38.1 171.835C38 171.935 37.9 171.835 37.8 171.735L37.1 170.935C37 170.835 37.1 170.735 37.2 170.735L37.9 170.235C38.2 170.135 38.1 170.035 37.9 170.035Z" fill-rule="evenodd"  fill="#C5171E" >
</path>
<path d="M182.5 173.835C182.7 175.335 182.3 176.435 181.2 177.135C179.2 178.535 177 177.335 175.6 175.735C174.2 174.035 174.1 172.435 175.4 170.935C176.1 170.135 176.9 169.835 177.9 169.835C178 169.835 178 169.835 177.9 169.735L174.3 166.635C174.2 166.635 174.2 166.535 174.3 166.435L175.1 165.535C175.1 165.535 175.2 165.535 175.3 165.535L184.2 173.235C184.3 173.335 184.3 173.335 184.2 173.435L183.5 174.235C183.4 174.335 183.2 174.335 183.1 174.235L182.5 173.835C182.5 173.735 182.4 173.735 182.5 173.835ZM176 173.835C176.5 174.935 177.7 176.135 178.9 176.335C181.1 176.735 182.5 174.335 181.1 172.635C180.4 171.835 179.4 170.935 178.3 170.835C176.7 170.635 175.4 172.235 176 173.835Z" fill-rule="evenodd"  fill="#C5171E" >
</path>
<path d="M55.2 177.535C55.3 177.535 55.3 177.535 55.3 177.635C55.3 177.635 55.3 177.735 55.3 177.835C52.8 180.435 51.1 182.135 50.3 183.035C47.9 185.335 44.9 184.735 43.1 182.135C41.9 180.335 42.8 178.535 44.1 177.035C45.7 175.435 47.3 173.735 48.8 172.135C48.9 172.035 48.9 172.035 49 172.035L49.9 172.935C49.9 172.935 49.9 173.035 49.9 173.135C48.5 174.535 47.2 176.035 45.8 177.435C44.4 178.835 43.1 180.535 44.8 182.235C46 183.435 47.6 183.635 48.8 182.435C49.7 181.535 51.4 179.835 54 177.035C54 177.035 54.1 176.935 54.2 177.035C54.7 176.935 55 177.235 55.2 177.535Z" fill-rule="evenodd"  fill="#C5171E" >
</path>
<path d="M93.1 180.935L94.4 181.435C94.5 181.435 94.6 181.535 94.6 181.535C94.6 181.835 94.5 182.035 94.4 182.235C94.4 182.235 94.3 182.235 94.2 182.235L90.5 180.735C90.4 180.735 90.3 180.635 90.3 180.635C90.3 180.435 90.3 180.135 90.5 179.935C90.5 179.835 90.6 179.835 90.7 179.835L91.9 180.335C92.1 180.435 92.2 180.335 92.3 180.135L94.4 175.135C94.4 175.035 94.4 174.935 94.4 174.935L92.9 174.735C92.8 174.735 92.7 174.635 92.7 174.635L93 173.935C93 173.935 93.1 173.935 93.2 173.935L95.7 174.235C95.8 174.235 95.8 174.335 95.8 174.335L93.2 180.635C93.1 180.835 93.1 180.935 93.1 180.935Z" fill-rule="evenodd"  fill="#C5171E" >
</path>
<path d="M130.1 182.035C129.9 181.835 129.7 181.635 129.5 181.435C128.3 179.835 126.9 175.735 129.7 174.735C132.3 173.735 133.5 177.435 133.8 179.335C134.2 181.535 132.2 183.535 130.1 182.035ZM130.8 181.335C131.4 181.835 132.3 181.735 132.7 181.035C133.5 179.735 131.3 173.735 129.4 175.735C128.3 176.935 129.8 180.435 130.8 181.335Z" fill-rule="evenodd"  fill="#C5171E" >
</path>
<path d="M168.8 179.235C168.6 177.835 169.1 176.735 170.3 176.135C171.9 175.235 173.1 176.135 174.4 177.335C175.4 178.435 176.5 179.535 177.5 180.635C177.6 180.735 177.6 180.835 177.5 180.835L176.6 181.635C176.6 181.635 176.5 181.635 176.4 181.635C175 180.135 173.8 178.835 173 177.935C171.4 176.335 169.1 177.735 169.7 179.835C169.8 180.235 170.1 180.635 170.5 181.135C171.4 182.135 172.4 183.135 173.3 184.135C173.4 184.235 173.4 184.335 173.3 184.435L172.4 185.235C172.4 185.235 172.3 185.235 172.2 185.135L166.9 179.435C166.8 179.335 166.8 179.235 166.9 179.235L167.9 178.435C167.9 178.435 168 178.435 168.1 178.435C168.2 178.535 168.8 179.235 168.8 179.235C168.7 179.335 168.8 179.335 168.8 179.235Z" fill-rule="evenodd"  fill="#C5171E" >
</path>
<path d="M106.8 181.035C105.5 182.235 103.5 181.435 103.2 179.735C102.7 176.235 107.5 175.535 107.9 178.635C108.1 180.235 107.8 182.335 106.7 183.535C105.7 184.635 104.3 184.735 103.1 184.035C103 184.035 103 183.935 103 183.835L103 183.135C103 183.135 103.1 183.035 103.2 183.135C103.6 183.335 104.1 183.635 104.5 183.635C106.1 183.735 106.6 182.335 107 181.035C107 180.935 107 180.935 106.8 181.035ZM105.6 180.835C106.4 180.835 107.1 180.135 107.2 179.235C107.3 178.335 106.6 177.535 105.8 177.435C105 177.435 104.3 178.135 104.2 179.035C104.2 180.035 104.8 180.835 105.6 180.835Z" fill-rule="evenodd"  fill="#C5171E" >
</path>
<path d="M118.6 180.035C118.6 180.135 118.7 180.235 118.9 180.235C119.9 180.035 121.1 180.235 121.8 181.135C122.3 181.835 122.3 182.835 121.9 183.635C121.1 184.935 119.4 185.035 118.1 184.735C118 184.735 117.9 184.635 117.9 184.635L117.8 183.935C117.8 183.835 117.9 183.735 118 183.835C119 184.335 119.8 184.235 120.5 183.735C121.2 183.235 121.3 182.335 120.8 181.635C120.2 180.835 118.9 180.935 118 181.135C117.9 181.135 117.8 181.135 117.8 180.935L117.5 177.335C117.5 177.235 117.5 177.235 117.6 177.235L121.2 177.135C121.3 177.135 121.4 177.135 121.4 177.235L121.5 177.835C121.5 177.835 121.4 177.935 121.3 177.935L118.8 178.035C118.7 178.035 118.6 178.135 118.6 178.235L118.6 180.035Z" fill-rule="evenodd"  fill="#C5171E" >
</path>
<path d="M55.6 183.235C56.9 182.935 58 183.235 59 184.135C60.1 185.235 59.7 186.635 58.9 187.735C58.5 188.335 57.4 189.635 55.6 191.835C55.6 191.935 55.5 191.935 55.4 191.835L54.4 191.135L54.4 191.035C55.2 190.035 56 189.035 56.8 188.035C57.4 187.335 57.7 186.735 57.9 186.335C58.4 184.735 56.7 183.735 55.3 184.135C54.8 184.335 54.3 184.635 53.9 185.135C53 186.235 52 187.435 51.1 188.535C51 188.635 51 188.635 50.9 188.635L49.9 187.835C49.9 187.835 49.9 187.735 49.9 187.635L54.8 181.635C54.9 181.535 55 181.535 55.1 181.635L56 182.335C56 182.335 56.1 182.435 56 182.535L55.6 183.235C55.4 183.235 55.4 183.235 55.6 183.235Z" fill-rule="evenodd"  fill="#C5171E" >
</path>
<path d="M166.1 184.935C164.5 183.135 162.7 185.135 162.1 186.735C162.1 186.835 162 186.835 162 186.835L161.3 185.935C161.3 185.935 161.3 185.835 161.3 185.735C162.2 183.835 164.9 181.735 166.9 183.735C167.5 184.435 168.7 185.935 170.5 188.235C170.6 188.335 170.6 188.435 170.5 188.435L169.5 189.135C169.5 189.135 169.4 189.135 169.3 189.035L168.8 188.335C168.7 188.235 168.7 188.235 168.7 188.335C168.6 189.535 168.2 190.335 167.3 190.935C165.8 191.835 164.2 191.435 163.5 189.835C162.7 187.935 164.9 186.435 166.1 185.335C166.2 185.235 166.2 185.135 166.1 184.935ZM165.4 189.935C166.5 190.735 167.8 189.435 167.9 188.435C168 187.635 167.5 186.835 167 186.235C167 186.235 166.9 186.235 166.8 186.235C165.9 186.935 163.6 188.535 165.4 189.935Z" fill-rule="evenodd"  fill="#C5171E" >
</path>
<path d="M65.6 184.535C65.6 185.035 65.2 185.435 64.7 185.435C64.2 185.435 63.8 185.035 63.8 184.535C63.8 184.035 64.2 183.635 64.7 183.635C65.2 183.635 65.6 184.035 65.6 184.535Z" fill-rule="evenodd"  fill="#C5171E" >
</path>
<path d="M165.4 189.935C163.6 188.635 165.9 186.935 166.8 186.135C166.8 186.135 166.9 186.135 167 186.135C167.6 186.735 168 187.535 167.9 188.335C167.8 189.335 166.5 190.735 165.4 189.935Z" fill-rule="evenodd"  fill="#FFFFFF" >
</path>
<path d="M59.3 193.935C59.2 194.035 59.1 194.035 59.1 193.935L58.2 193.335C58.1 193.235 58.1 193.135 58.2 193.135L62.5 186.735C62.6 186.635 62.7 186.635 62.7 186.735L63.6 187.335C63.7 187.435 63.7 187.535 63.6 187.535L59.3 193.935Z" fill-rule="evenodd"  fill="#C5171E" >
</path>
<path d="M65 195.735L70.4 191.235C70.5 191.135 70.5 191.135 70.6 191.135L71.7 191.735C71.8 191.735 71.8 191.935 71.7 192.035L65.1 197.135C65 197.235 64.8 197.235 64.7 197.135L63.9 196.635C63.7 196.535 63.7 196.335 63.7 196.235L65.1 188.235C65.1 188.135 65.2 188.135 65.3 188.135L66.4 188.835C66.5 188.835 66.5 188.935 66.5 189.035L65 195.735L65 195.735Z" fill-rule="evenodd"  fill="#C5171E" >
</path>
<path d="M153.5 193.535C152.1 192.735 152 191.235 153.1 190.035C153.8 189.235 154.8 188.735 156 188.535C156.1 188.535 156.1 188.535 156.2 188.635L156.8 189.635C156.8 189.635 156.8 189.735 156.7 189.735C155.8 189.735 153.9 190.335 153.8 191.435C153.8 192.235 154.3 192.535 155 192.435C156.3 192.435 157.6 191.835 158.7 192.535C159.5 193.035 159.8 193.735 159.6 194.535C159.3 196.235 157.3 197.335 155.7 197.535C155.6 197.535 155.5 197.535 155.5 197.535L154.8 196.535C154.8 196.435 154.8 196.435 154.9 196.435C155.7 196.435 159.5 195.535 158 193.935C157.3 192.935 154.7 194.235 153.5 193.535Z" fill-rule="evenodd"  fill="#C5171E" >
</path>
<path d="M149.2 193.335C149.8 194.535 150.4 195.735 151 196.935C151.5 198.035 152.3 198.735 153.4 197.535C153.5 197.435 153.6 197.435 153.7 197.535L154.1 198.335C154.1 198.435 154.1 198.435 154.1 198.535C153 199.635 151.2 199.935 150.3 198.335C149.5 196.835 148.7 195.435 148 193.935C148 193.835 147.9 193.835 147.8 193.935L146.8 194.435C146.7 194.435 146.6 194.435 146.6 194.335L146.2 193.535C146.2 193.435 146.2 193.435 146.3 193.335L147.2 192.935C147.3 192.935 147.3 192.735 147.3 192.635L146.6 191.235C146.6 191.135 146.6 191.035 146.6 191.035L147.5 190.135C147.6 190.035 147.7 190.135 147.7 190.235L148.6 192.035C148.7 192.135 148.8 192.135 148.9 192.135L150.4 191.435C150.5 191.435 150.5 191.435 150.6 191.435L151 192.335C151 192.435 151 192.435 150.9 192.535L149.3 193.335C149.2 193.135 149.2 193.235 149.2 193.335Z" fill-rule="evenodd"  fill="#C5171E" >
</path>
<path d="M74.8 201.335C71 201.335 68.5 198.335 71 194.735C71.9 193.435 73.3 192.635 74.9 192.835C76.2 193.035 77.5 193.935 77.8 195.335C78 196.335 77.6 197.435 77.2 198.335C77.1 198.435 77 198.535 76.8 198.435L71.8 196.335C71.7 196.335 71.7 196.335 71.6 196.435C70.5 199.135 73.3 200.435 75.5 200.035C75.6 200.035 75.7 200.035 75.6 200.135L75.2 200.935C75.3 201.235 75.1 201.335 74.8 201.335ZM72.4 195.335L76.2 196.935C76.3 196.935 76.3 196.935 76.4 196.835C77 195.435 76.4 194.135 75 193.935C74 193.735 73.1 194.435 72.5 195.135C72.3 195.235 72.3 195.335 72.4 195.335Z" fill-rule="evenodd"  fill="#C5171E" >
</path>
<path d="M143.3 196.035C143.4 196.035 143.4 196.035 143.4 195.935C143.4 194.535 144 193.835 145.4 193.635C145.5 193.635 145.5 193.635 145.5 193.735L146 194.835C146 194.835 146 194.935 145.9 194.935C144.2 194.935 143.4 196.335 144 197.835C144.5 199.135 145 200.535 145.6 201.935C145.6 202.035 145.6 202.135 145.5 202.235L144.4 202.635C144.4 202.635 144.3 202.635 144.3 202.535L141.4 195.335C141.4 195.235 141.4 195.235 141.5 195.235L142.6 194.835C142.7 194.835 142.8 194.835 142.8 194.835L143.2 196.035C143.2 196.035 143.2 196.035 143.3 196.035Z" fill-rule="evenodd"  fill="#C5171E" >
</path>
<path d="M134.1 202.635L133.9 205.635C133.9 205.735 133.9 205.735 133.8 205.835L132.6 206.135C132.4 206.135 132.3 206.035 132.3 205.835L133.3 194.535C133.3 194.435 133.3 194.335 133.4 194.335C133.9 194.135 134.3 193.935 134.8 193.835C134.9 193.835 134.9 193.835 135 193.935L142.3 203.235C142.4 203.335 142.4 203.435 142.3 203.435L140.9 203.835C140.9 203.835 140.8 203.835 140.7 203.735L138.9 201.335C138.9 201.235 138.8 201.235 138.7 201.235L134.2 202.435C134.2 202.435 134.1 202.535 134.1 202.635ZM134.6 196.335C134.4 197.935 134.3 199.435 134.3 201.035C134.3 201.135 134.3 201.135 134.4 201.135L137.9 200.135C137.9 200.135 138 200.035 137.9 200.035L134.6 195.635C134.5 195.535 134.5 195.535 134.5 195.635C134.6 195.835 134.6 196.035 134.6 196.335Z" fill-rule="evenodd"  fill="#C5171E" >
</path>
<path d="M123.3 200.835L122.2 201.035C122.1 201.035 122 201.035 122 201.035L121.8 200.235C121.8 200.135 121.8 199.935 122 199.935L123 199.735C123.1 199.735 123.2 199.535 123.2 199.435C123.1 199.035 123 198.535 122.9 198.035C122.7 196.235 124.1 195.035 125.9 195.135C126 195.135 126.1 195.135 126.1 195.235L126.3 196.335C126.3 196.335 126.3 196.435 126.2 196.435C124 195.835 124.2 198.035 124.6 199.335C124.6 199.435 124.7 199.435 124.8 199.435L126.4 199.135C126.5 199.135 126.5 199.135 126.6 199.235L126.8 200.135C126.8 200.235 126.8 200.235 126.7 200.235L125.1 200.535C125 200.535 124.9 200.635 124.9 200.735L126.2 207.135C126.2 207.235 126.2 207.335 126.2 207.335L124.9 207.635C124.9 207.635 124.8 207.635 124.8 207.535L123.5 201.035C123.4 200.835 123.3 200.735 123.3 200.835Z" fill-rule="evenodd"  fill="#C5171E" >
</path>
<path d="M95.5 196.135C95.5 196.635 95 196.935 94.5 196.935C94 196.935 93.6 196.535 93.6 196.035C93.6 195.535 94.1 195.235 94.6 195.235C95.2 195.235 95.6 195.635 95.5 196.135Z" fill-rule="evenodd"  fill="#C5171E" >
</path>
<path d="M81.4 197.035C81.3001 197.335 81.4 197.335 81.6 197.135C82.4 196.135 83.4 195.935 84.5 196.535C84.6 196.635 84.7 196.735 84.7 196.835L84.4 197.735C84.4 197.835 84.2 197.835 84.2 197.835C82.5 196.635 81.3001 198.035 80.7 199.535C80.3001 200.735 79.9 201.935 79.5 203.235C79.5 203.335 79.4 203.435 79.3001 203.335L78.1 202.935C78.1 202.935 78 202.835 78.1 202.735L80.6 195.435C80.6 195.335 80.7 195.235 80.8001 195.335L81.8001 195.735C81.9 195.735 82 195.935 81.9 196.035L81.4 197.035Z" fill-rule="evenodd"  fill="#C5171E" >
</path>
<path d="M87.4 202.235C85.9 201.135 84.1 199.735 86 197.835C86.2 197.635 86.5 197.535 86.9 197.435C88.2 197.135 89.6 197.535 90.7 198.235C90.8 198.235 90.8 198.335 90.8 198.435L90.5 199.535L90.4 199.535C89.7 198.835 88 197.935 87 198.835C86.3 199.435 87 200.235 87.5 200.635C88.8 201.635 90.2 202.535 89.5 204.235C88.6 206.335 85.2 205.435 83.8 204.335C83.7 204.235 83.7 204.235 83.7 204.135L84 203.035C84 202.935 84.1 203.035 84.2 203.035C84.9 203.735 87.2 205.135 88 203.935C88.5 203.135 87.9 202.635 87.4 202.235Z" fill-rule="evenodd"  fill="#C5171E" >
</path>
<path d="M97.7 199.535L98 197.935C98 197.835 98.1 197.735 98.2 197.635L99.4 197.435C99.5 197.435 99.5 197.535 99.5 197.535L99.1 199.535C99.1 199.635 99.1 199.735 99.1 199.735L100.9 200.035C101 200.035 101.1 200.135 101 200.135L100.8 201.035C100.8 201.035 100.7 201.135 100.6 201.135L98.8 200.835C98.7 200.835 98.6 200.935 98.6 200.935C98.4 202.235 98.2 203.435 97.9 204.735C97.8 205.335 97.8 205.735 97.8 205.935C98 206.835 98.8 206.635 99.6 206.635L99.7 206.735L99.5 207.535C99.5 207.635 99.4 207.735 99.3 207.735C98.2 207.935 96.6 207.535 96.3 206.235C96.2 205.935 96.3 205.435 96.4 204.835C96.7 203.435 96.9 202.035 97.2 200.535C97.2 200.435 97.2 200.335 97.1 200.335L95.9 200.135C95.8 200.135 95.7 200.035 95.8 200.035L96 199.135C96 199.035 96.1 199.035 96.2 199.035L97.2 199.235C97.5 199.535 97.7 199.535 97.7 199.535Z" fill-rule="evenodd"  fill="#C5171E" >
</path>
<path d="M92.8 206.735C92.8 206.835 92.7 206.835 92.7 206.835L91.5 206.535C91.4 206.535 91.4 206.435 91.4 206.435L93.2 198.835C93.2 198.735 93.3 198.735 93.3 198.735L94.5 199.035C94.6 199.035 94.6 199.135 94.6 199.135L92.8 206.735Z" fill-rule="evenodd"  fill="#C5171E" >
</path>
<path d="M104.9 206.835L107.8 200.735C107.9 200.635 108 200.535 108.1 200.535L109.3 200.635C109.3 200.635 109.4 200.735 109.3 200.735C107.9 203.435 106.5 206.035 105.2 208.735C104.3 210.535 103.2 212.335 100.9 211.635C100.8 211.635 100.7 211.535 100.7 211.335L100.8 210.435L100.9 210.335C101.1 210.335 101.4 210.435 101.6 210.435C102.9 210.535 103.4 209.135 103.9 208.135C103.9 208.035 103.9 208.035 103.9 207.935L101.4 199.935C101.4 199.835 101.4 199.735 101.5 199.735L102.9 199.835C102.9 199.835 103 199.935 103 200.035L104.9 206.835C104.9 206.935 104.9 206.935 104.9 206.835Z" fill-rule="evenodd"  fill="#C5171E" >
</path>
<path d="M121.6 204.535C121.8 206.535 120.2 208.335 118.2 208.535L117.5 208.635C115.5 208.835 113.7 207.235 113.5 205.235L113.4 204.335C113.2 202.335 114.8 200.535 116.8 200.335L117.5 200.235C119.5 200.035 121.3 201.635 121.5 203.635L121.6 204.535ZM120 203.635C119.9 202.335 118.8 201.335 117.5 201.435L117.1 201.435C115.8 201.535 114.8 202.635 114.9 203.935L115 205.235C115.1 206.535 116.2 207.535 117.5 207.435L117.9 207.435C119.2 207.335 120.2 206.235 120.1 204.935L120 203.635Z" fill-rule="evenodd"  fill="#C5171E" >
</path>
</svg>
