<svg xmlns="http://www.w3.org/2000/svg" viewBox="0 0 249.44 249.44"><defs><style>.cls-1{fill:#6fba2c;}.cls-1,.cls-3,.cls-4{fill-rule:evenodd;}.cls-2,.cls-3{fill:#008cd6;}.cls-4{fill:#fff;}</style></defs><g id="Layer_2" data-name="Layer 2"><g id="图层_1" data-name="图层 1"><path class="cls-1" d="M123.83,161.08c19.34,0,37,3.93,50.64,10.43l-2.82,1.25a187.47,187.47,0,0,0-95.21-.11l-2.93-1.29c13.57-6.41,31.13-10.28,50.32-10.28Z"/><path class="cls-2" d="M111.35,184.27v-.55h1.43v-7l-.72.61-.8.6-.38-.45c.36-.32.74-.64,1.13-1l1.18-1h.64v8.23h1.52v.55Zm9.59-3.67a1.44,1.44,0,0,0,1.21-.64,3.23,3.23,0,0,0,0-3.32,1.43,1.43,0,0,0-1.21-.63,1.42,1.42,0,0,0-1.2.63,3.17,3.17,0,0,0,0,3.32,1.43,1.43,0,0,0,1.2.64Zm1.66-.36a2.33,2.33,0,0,1-.85.68,2.78,2.78,0,0,1-1.13.22,2.47,2.47,0,0,1-1.88-.74,2.74,2.74,0,0,1-.71-2,3,3,0,0,1,.8-2.14,2.81,2.81,0,0,1,2.1-.81,2.66,2.66,0,0,1,2.22,1,4.49,4.49,0,0,1,.77,2.82,6.72,6.72,0,0,1-.91,3.78,2.86,2.86,0,0,1-2.53,1.34,2.76,2.76,0,0,1-1.77-.51,1.78,1.78,0,0,1-.65-1.43h1a1.47,1.47,0,0,0,.42,1.06,1.51,1.51,0,0,0,1.1.37,1.58,1.58,0,0,0,1.45-.91,6.4,6.4,0,0,0,.53-2.73Zm6.49-1.06a1.45,1.45,0,0,0-1.23.65,3.33,3.33,0,0,0,0,3.41,1.44,1.44,0,0,0,1.23.64,1.47,1.47,0,0,0,1.23-.64,3.39,3.39,0,0,0,0-3.41,1.45,1.45,0,0,0-1.23-.65Zm-1.71.47a2.18,2.18,0,0,1,.84-.76,2.51,2.51,0,0,1,1.19-.26,2.47,2.47,0,0,1,1.87.75,2.71,2.71,0,0,1,.73,2,3,3,0,0,1-.82,2.2,2.8,2.8,0,0,1-2.13.87,2.55,2.55,0,0,1-2.17-1.07,5,5,0,0,1-.78-3,6.18,6.18,0,0,1,.89-3.56,2.9,2.9,0,0,1,2.5-1.28,2.48,2.48,0,0,1,1.55.43,1.38,1.38,0,0,1,.58,1.17v0h-1v0a1,1,0,0,0-.34-.78,1.24,1.24,0,0,0-.87-.3,1.57,1.57,0,0,0-1.46.91,5.9,5.9,0,0,0-.54,2.73Zm9.68,4.23a1.39,1.39,0,0,0,1.28-1,7.62,7.62,0,0,0,.44-2.94,7.72,7.72,0,0,0-.44-2.95,1.32,1.32,0,0,0-2.56,0,7.75,7.75,0,0,0-.43,2.95,7.65,7.65,0,0,0,.43,2.94,1.38,1.38,0,0,0,1.28,1Zm0,.51a2.53,2.53,0,0,1-2.19-1.19,7.06,7.06,0,0,1,0-6.53,2.62,2.62,0,0,1,4.38,0,7,7,0,0,1,0,6.52,2.52,2.52,0,0,1-2.19,1.19Z"/><path class="cls-3" d="M124.72,48.75a77.51,77.51,0,0,1,9.07.54l1.49.2a74.71,74.71,0,0,1,10.2,2.13l1.45.43a75.32,75.32,0,0,1,9.72,3.73l1.37.65a76.74,76.74,0,0,1,9,5.2c.42.28.83.57,1.24.86a75,75,0,0,1,8.1,6.54l1.1,1a75.27,75.27,0,0,1,7,7.73c.32.39.62.79.93,1.19a76.9,76.9,0,0,1,5.69,8.73c.24.43.48.88.71,1.32a73.93,73.93,0,0,1,4.27,9.51c.17.47.34,1,.5,1.42a75.23,75.23,0,0,1,2.7,10.06c.1.49.2,1,.28,1.49a75,75,0,0,1,1.09,10.35c0,.5,0,1,0,1.51s0,.89,0,1.34a75.22,75.22,0,0,1-.55,9.06c0,.5-.12,1-.19,1.5a76.1,76.1,0,0,1-2.13,10.19c-.14.49-.29,1-.44,1.46a74.38,74.38,0,0,1-3.72,9.72c-.21.46-.42.91-.64,1.37a77.41,77.41,0,0,1-5.21,9c-.28.42-.57.83-.86,1.24a75,75,0,0,1-6.55,8.1l-1,1.1a77.43,77.43,0,0,1-7.72,7l-1.21.92a75.44,75.44,0,0,1-8.72,5.69l-1.33.73a75.09,75.09,0,0,1-9.5,4.25c-.47.18-.95.34-1.42.51a75.23,75.23,0,0,1-10.06,2.7l-1.48.28a76.87,76.87,0,0,1-10.36,1.09l-1.52,0-1.33,0a75.35,75.35,0,0,1-9.06-.55c-.5,0-1-.12-1.5-.19a75,75,0,0,1-10.2-2.14c-.48-.13-1-.28-1.44-.43a75.41,75.41,0,0,1-9.73-3.72L91.42,193a75.81,75.81,0,0,1-9-5.2c-.43-.28-.84-.57-1.26-.86a77.17,77.17,0,0,1-8.09-6.55l-1.1-1a77.43,77.43,0,0,1-7-7.72c-.31-.39-.62-.8-.92-1.2a75.44,75.44,0,0,1-5.69-8.72c-.25-.44-.49-.88-.73-1.33a77.26,77.26,0,0,1-4.26-9.5c-.17-.47-.33-.95-.5-1.43a76.21,76.21,0,0,1-2.7-10.05c-.09-.5-.19-1-.28-1.49a76.7,76.7,0,0,1-1.09-10.36c0-.5,0-1,0-1.51s0-.88,0-1.33a77.64,77.64,0,0,1,.54-9.07c.07-.5.13-1,.2-1.5A73.42,73.42,0,0,1,51.63,104c.13-.48.28-1,.43-1.45a75.84,75.84,0,0,1,3.72-9.72c.22-.46.43-.92.65-1.37a74.65,74.65,0,0,1,5.21-9c.27-.42.56-.83.84-1.25A78.72,78.72,0,0,1,69,73.06c.35-.37.69-.74,1-1.1a77.43,77.43,0,0,1,7.73-7c.39-.31.79-.62,1.2-.92a75.44,75.44,0,0,1,8.72-5.69L89,57.64a78.08,78.08,0,0,1,9.51-4.26l1.43-.5A74.83,74.83,0,0,1,110,50.18l1.48-.28a75.12,75.12,0,0,1,10.36-1.09l1.5,0,1.34,0Zm49,29.2,4.34-4.15c1,1,1.9,2,2.81,3.12l-1.77,1.51.71.84,2.7-2.22q-2.16-2.62-4.55-5l-5.11,5a67.21,67.21,0,0,0-7.06-6.2l3.65-4.78c1.11.85,2.2,1.73,3.26,2.64l-1.51,1.76.82.73,2.32-2.62q-2.53-2.25-5.27-4.26l-4.25,5.79a67.8,67.8,0,0,0-7.95-5l2.85-5.29c1.24.66,2.45,1.36,3.64,2.09l-1.22,2,.93.58L165,61.51c-1.9-1.21-3.87-2.34-5.87-3.38l-3.3,6.38a67.82,67.82,0,0,0-8.63-3.72l2-5.67c1.32.46,2.63,1,3.91,1.5l-.89,2.15,1,.43L154.6,56c-2.07-.9-4.19-1.71-6.34-2.42L146,60.39a67.44,67.44,0,0,0-9.1-2.33L138,52.15q2.07.38,4.11.87l-.55,2.26,1.06.27.88-3.39c-2.19-.56-4.41-1-6.63-1.39l-1.17,7.08a66.75,66.75,0,0,0-9.36-.87l.14-6c1.4,0,2.8.1,4.19.22l-.19,2.32,1.1.09.33-3.48c-2.24-.21-4.5-.33-6.76-.34l0,7.18a66.81,66.81,0,0,0-9.37.6l-.81-6c1.39-.19,2.78-.34,4.18-.45l.18,2.32,1.09-.07-.21-3.49c-2.25.14-4.51.38-6.74.72l1.08,7.1a67.45,67.45,0,0,0-9.17,2.06L103.59,54c1.34-.4,2.69-.76,4-1.09l.54,2.27,1.07-.25-.75-3.41c-2.21.49-4.4,1.07-6.55,1.76l2.18,6.84a70.62,70.62,0,0,0-8.74,3.47l-2.6-5.41c1.26-.61,2.54-1.18,3.83-1.71l.89,2.15,1-.41L97.25,55c-2.1.82-4.17,1.75-6.18,2.76l3.22,6.42A67.73,67.73,0,0,0,86.2,69L82.78,64c1.16-.8,2.33-1.56,3.52-2.29l1.21,2,.94-.57-1.77-3q-2.93,1.73-5.68,3.7l4.19,5.84a65.85,65.85,0,0,0-7.24,6L73.8,71.34c1-1,2.06-1.9,3.12-2.81l1.51,1.77.84-.71L77.05,66.9c-1.75,1.44-3.42,2.95-5,4.54l5,5.11a67.05,67.05,0,0,0-6.21,7L66.08,80c.85-1.11,1.73-2.2,2.64-3.26l1.77,1.51.72-.83-2.62-2.32q-2.25,2.55-4.26,5.28l5.79,4.25a67.8,67.8,0,0,0-5,8L59.8,89.68c.66-1.23,1.37-2.44,2.1-3.63l2,1.22c.19-.31.39-.62.59-.93l-3-1.88c-1.21,1.9-2.34,3.87-3.38,5.88l6.39,3.29a67.87,67.87,0,0,0-3.73,8.63l-5.67-2c.47-1.32,1-2.63,1.5-3.92l2.15.9.43-1L56,94.84c-.9,2.07-1.71,4.19-2.43,6.34l6.82,2.25a69.52,69.52,0,0,0-2.33,9.11l-5.91-1.08c.25-1.38.55-2.74.87-4.1l2.26.54.27-1.06L52.17,106q-.86,3.29-1.4,6.63l7.08,1.17a68.14,68.14,0,0,0-.87,9.36L51,123c0-1.39.11-2.79.22-4.18l2.32.18c0-.36.06-.73.1-1.09l-3.48-.34q-.33,3.38-.35,6.77l7.18,0a66.86,66.86,0,0,0,.61,9.38l-6,.8c-.19-1.38-.34-2.77-.44-4.17l2.31-.18c0-.36,0-.73-.07-1.09l-3.49.21q.21,3.39.72,6.74l7.1-1.08a67.11,67.11,0,0,0,2.06,9.17L54,145.85c-.4-1.34-.76-2.69-1.09-4l2.27-.54c-.08-.36-.17-.72-.25-1.07l-3.41.75q.73,3.31,1.77,6.55l6.83-2.18A67.84,67.84,0,0,0,63.64,154l-5.43,2.61c-.59-1.26-1.17-2.54-1.7-3.83l2.16-.89c-.15-.34-.28-.68-.42-1L55,152.19c.82,2.1,1.75,4.17,2.76,6.19l6.42-3.23a66.49,66.49,0,0,0,4.8,8.09l-5,3.42c-.79-1.15-1.55-2.33-2.28-3.52l2-1.21-.57-1-3,1.78c1.15,2,2.39,3.84,3.7,5.68l5.84-4.19a68.19,68.19,0,0,0,6,7.24l-4.35,4.14c-1-1-1.91-2-2.81-3.11L70.3,171l-.7-.84-2.7,2.22c1.44,1.74,2.95,3.42,4.55,5l5.1-5a66.17,66.17,0,0,0,7.06,6.21L80,183.36c-1.11-.85-2.19-1.73-3.26-2.64L78.21,179l-.83-.72-2.31,2.62c1.69,1.5,3.46,2.92,5.27,4.26l4.26-5.79a67.68,67.68,0,0,0,7.94,5l-2.86,5.29q-1.84-1-3.63-2.1l1.23-2-1-.58-1.87,3c1.91,1.21,3.87,2.34,5.88,3.37l3.3-6.37a67.68,67.68,0,0,0,8.62,3.72l-2,5.67c-1.32-.46-2.62-1-3.91-1.5l.89-2.15-1-.43-1.39,3.21q3.11,1.35,6.33,2.41l2.25-6.81a68.32,68.32,0,0,0,9.11,2.32l-1.08,5.92c-1.38-.25-2.74-.54-4.1-.87l.55-2.26-1.07-.27-.88,3.38c2.2.57,4.4,1,6.64,1.4l1.16-7.08a68.14,68.14,0,0,0,9.36.87l-.14,6c-1.41,0-2.8-.11-4.19-.22l.18-2.32-1.09-.1-.34,3.48c2.25.22,4.52.34,6.78.35l0-7.18a70.23,70.23,0,0,0,9.38-.6l.8,6c-1.39.19-2.78.34-4.18.44l-.17-2.32-1.1.08.21,3.49q3.39-.21,6.74-.72L135,191.7a66.78,66.78,0,0,0,9.17-2.06l1.72,5.76q-2,.6-4,1.08l-.53-2.26-1.08.25.76,3.41q3.31-.74,6.54-1.76l-2.18-6.84a68.55,68.55,0,0,0,8.74-3.48l2.6,5.42q-1.89.92-3.84,1.71l-.88-2.15-1,.41,1.28,3.25q3.17-1.24,6.19-2.77l-3.22-6.41a67.14,67.14,0,0,0,8.08-4.8l3.42,4.95c-1.15.79-2.32,1.56-3.52,2.28l-1.21-2-1,.56,1.78,3q2.93-1.72,5.68-3.71l-4.19-5.83a67,67,0,0,0,7.24-6l4.15,4.35c-1,1-2.06,1.9-3.12,2.81l-1.5-1.77-.85.7,2.22,2.7c1.75-1.44,3.43-2.95,5-4.55l-5-5.1a67.26,67.26,0,0,0,6.22-7.06l4.77,3.65c-.85,1.11-1.73,2.2-2.64,3.26L179,171.22q-.34.42-.72.84l2.62,2.31q2.25-2.53,4.26-5.28l-5.79-4.25a69.09,69.09,0,0,0,5-7.94l5.28,2.85c-.66,1.24-1.36,2.45-2.09,3.64l-2-1.22c-.2.31-.4.62-.59.93l3,1.88q1.81-2.86,3.38-5.88l-6.38-3.29a68,68,0,0,0,3.72-8.64l5.67,2c-.46,1.33-1,2.63-1.5,3.92l-2.15-.89c-.13.34-.28.67-.43,1l3.21,1.4q1.35-3.12,2.42-6.34L189.05,146a69.92,69.92,0,0,0,2.33-9.11l5.91,1.08c-.25,1.37-.54,2.74-.87,4.1l-2.26-.55-.27,1.07,3.39.88c.56-2.19,1-4.41,1.4-6.64l-7.09-1.16a68.29,68.29,0,0,0,.87-9.36l6,.14c0,1.4-.1,2.8-.22,4.19l-2.31-.19c0,.37-.07.74-.1,1.1l3.48.34c.21-2.25.33-4.51.34-6.78l-7.18,0a68.55,68.55,0,0,0-.6-9.39l6-.8c.2,1.39.34,2.78.45,4.17l-2.33.18c0,.37.06.73.08,1.1l3.49-.21c-.14-2.26-.37-4.51-.72-6.75l-7.1,1.09a66.78,66.78,0,0,0-2.06-9.17l5.76-1.72c.4,1.34.76,2.69,1.09,4l-2.26.54.24,1.07,3.41-.76q-.74-3.31-1.76-6.54l-6.85,2.18a67.06,67.06,0,0,0-3.47-8.74l5.42-2.6c.61,1.26,1.18,2.54,1.71,3.83l-2.15.89c.14.34.28.68.41,1l3.26-1.28c-.83-2.11-1.76-4.17-2.77-6.19l-6.42,3.22a68.4,68.4,0,0,0-4.79-8.08l4.94-3.42c.8,1.15,1.56,2.32,2.29,3.52l-2,1.21.57.94,3-1.77c-1.15-2-2.38-3.85-3.71-5.68l-5.82,4.19a69.42,69.42,0,0,0-6-7.24ZM123.38,48.77l.13,6.78q-3.26.06-6.5.42l-.33-3,1.12-.12.17,1.77q2.06-.19,4.11-.27l-.2-5.57,1.5,0ZM111.52,49.9l1.18,6.69q-3.2.57-6.35,1.43l-.79-2.88,1.09-.29.45,1.72c1.32-.34,2.67-.65,4-.91L110,50.18l1.48-.28Zm-11.54,3,2.21,6.43c-2,.71-4.07,1.51-6,2.41L94.91,59l1-.45.71,1.63c1.26-.55,2.53-1.06,3.83-1.54l-1.93-5.25,1.43-.5ZM89,57.64l3.2,6q-2.88,1.53-5.6,3.32L85,64.47l1-.62,1,1.5c1.16-.73,2.34-1.44,3.54-2.11l-2.72-4.87L89,57.64ZM79,64.06l4.09,5.41q-2.61,2-5,4.16l-2-2.21.85-.75L78.08,72c1-.91,2.09-1.79,3.16-2.64L77.8,65l1.2-.92ZM70.07,72,75,76.67Q72.69,79,70.66,81.56l-2.34-1.87.71-.88L70.41,80c.86-1.06,1.77-2.1,2.71-3.11L69,73.06l1-1.1Zm-7.59,9.19,5.57,3.9q-1.86,2.67-3.48,5.5L62,89.07l.57-1,1.53.9c.7-1.18,1.43-2.34,2.2-3.48L61.64,82.4l.84-1.25Zm-6,10.27,6.11,3c-.95,1.95-1.81,3.95-2.57,6l-2.8-1.06.4-1,1.66.65c.5-1.28,1.05-2.54,1.62-3.79l-5.07-2.34.65-1.37Zm-4.37,11.09,6.5,2c-.63,2.08-1.16,4.18-1.61,6.31L54,110.2c.09-.36.16-.73.24-1.1l1.74.39c.3-1.35.63-2.68,1-4L51.63,104l.43-1.45Zm-2.57,11.64,6.73.95c-.31,2.15-.5,4.31-.61,6.48l-3-.14c0-.37.05-.75.07-1.13l1.78.12q.12-2.07.36-4.11l-5.54-.67.2-1.5Zm-.72,11.9,6.78-.12c0,2.17.19,4.34.42,6.5l-3,.33c0-.37-.08-.75-.11-1.12l1.76-.17c-.13-1.37-.22-2.74-.28-4.12l-5.56.21,0-1.51Zm1.13,11.87,6.69-1.18c.38,2.14.86,4.25,1.44,6.35l-2.89.79c-.1-.36-.19-.73-.29-1.09l1.73-.44c-.35-1.33-.66-2.67-.92-4l-5.48,1.08-.28-1.49Zm3,11.54,6.44-2.21a62.78,62.78,0,0,0,2.41,6L59,154.53c-.16-.34-.31-.68-.46-1l1.63-.71c-.55-1.26-1.06-2.54-1.53-3.83l-5.26,1.93-.5-1.43Zm4.76,10.93,6-3.19c1,1.92,2.13,3.79,3.32,5.6l-2.5,1.65c-.21-.32-.41-.64-.62-.95l1.51-1c-.75-1.16-1.45-2.34-2.11-3.54l-4.88,2.72-.73-1.33Zm6.42,10.05,5.41-4.08q2,2.59,4.16,5l-2.21,2c-.25-.28-.49-.56-.75-.84L72,171.36c-.91-1-1.8-2.08-2.65-3.16L65,171.64l-.92-1.2Zm7.9,8.92,4.71-4.87q2.34,2.26,4.89,4.29l-1.86,2.34c-.3-.23-.59-.47-.88-.71L80,179c-1.06-.88-2.09-1.78-3.1-2.72l-3.79,4.08-1.1-1ZM81.15,187l3.9-5.56c1.77,1.24,3.62,2.41,5.5,3.48l-1.48,2.6-1-.57.9-1.53q-1.77-1.05-3.48-2.19l-3.1,4.63L81.15,187ZM91.42,193l3-6.11c1.95.95,3.95,1.81,6,2.57l-1,2.8-1-.4.64-1.66c-1.27-.5-2.53-1-3.79-1.62l-2.34,5.07L91.42,193Zm11.1,4.37,2-6.5c2.08.63,4.19,1.17,6.31,1.6l-.6,2.93-1.11-.23.39-1.74c-1.35-.29-2.68-.63-4-1L104,197.81l-1.44-.43ZM114.16,200l.94-6.73c2.15.3,4.31.51,6.48.61l-.13,3-1.14-.07.12-1.77c-1.38-.09-2.74-.21-4.11-.37l-.66,5.53-1.5-.19Zm11.89.72-.11-6.78q3.26-.06,6.49-.42l.33,3-1.12.11-.17-1.77c-1.37.14-2.74.23-4.11.28l.21,5.57-1.52,0Zm11.88-1.13-1.19-6.7q3.21-.56,6.35-1.43l.8,2.89-1.09.29-.45-1.72c-1.33.34-2.67.65-4,.91l1.08,5.48-1.48.28Zm11.54-3-2.22-6.44q3.08-1.05,6.05-2.4l1.23,2.73-1,.45-.71-1.63c-1.26.55-2.54,1.06-3.82,1.53l1.92,5.25-1.42.51Zm10.92-4.76-3.18-6c1.91-1,3.78-2.13,5.59-3.33l1.64,2.5-.94.62-.95-1.5c-1.17.73-2.34,1.44-3.55,2.11l2.72,4.87-1.33.73Zm10.05-6.42L166.36,180q2.59-2,5-4.15l2,2.2c-.27.26-.55.51-.83.76l-1.18-1.33c-1,.91-2.09,1.79-3.17,2.64l3.45,4.38-1.21.92Zm8.93-7.9-4.89-4.71c1.52-1.56,3-3.2,4.3-4.89l2.34,1.86c-.23.3-.47.59-.71.88L179,169.49c-.87,1.06-1.78,2.1-2.71,3.1l4.07,3.79-1,1.1Zm7.58-9.2-5.55-3.89q1.86-2.67,3.47-5.5l2.61,1.48c-.19.33-.39.65-.57,1l-1.54-.91c-.7,1.19-1.42,2.35-2.19,3.49l4.63,3.11-.86,1.24ZM193,158l-6.12-3c.95-1.95,1.81-3.95,2.57-6l2.81,1.05c-.13.35-.27.71-.41,1.06l-1.65-.65c-.51,1.27-1.05,2.54-1.62,3.78l5.06,2.35L193,158Zm4.36-11.09-6.5-2q1-3.12,1.6-6.31l2.94.6-.24,1.11-1.74-.39c-.29,1.34-.63,2.68-1,4l5.39,1.52-.44,1.46ZM200,135.28l-6.72-.94c.3-2.15.49-4.31.6-6.48l3,.14c0,.37,0,.75-.07,1.12L195,129c-.08,1.37-.21,2.74-.37,4.11l5.53.66-.19,1.5Zm.72-11.9-6.78.12q-.06-3.25-.43-6.49l3-.33c.05.37.09.74.12,1.12l-1.77.17q.19,2.06.27,4.11l5.57-.21,0,1.51Zm-1.13-11.86-6.69,1.18q-.57-3.21-1.43-6.35l2.88-.79c.1.36.19.72.29,1.09l-1.72.44c.34,1.33.65,2.67.92,4l5.47-1.08.28,1.49Zm-3-11.55-6.44,2.22q-1.05-3.07-2.4-6l2.73-1.24c.15.35.31.69.45,1l-1.63.71c.55,1.26,1.06,2.53,1.53,3.82l5.26-1.92.5,1.42ZM191.79,89l-6,3.19c-1-1.91-2.13-3.78-3.33-5.59L185,85c.2.32.41.63.6,1l-1.5,1c.74,1.15,1.45,2.33,2.12,3.53l4.88-2.71.71,1.32ZM185.39,79,180,83.08q-2-2.6-4.16-5l2.22-2c.26.27.5.55.75.83l-1.33,1.18c.91,1,1.79,2.09,2.63,3.17l4.39-3.44.93,1.19Zm-7.91-8.92L172.77,75c-1.56-1.51-3.2-2.94-4.89-4.29l1.87-2.34c.29.23.59.47.87.71L169.5,70.4c1.05.88,2.09,1.78,3.09,2.71L176.38,69l1.1,1Zm-9.2-7.58-3.88,5.56q-2.67-1.87-5.51-3.48l1.48-2.6,1,.56-.91,1.54c1.19.69,2.35,1.42,3.5,2.19l3.1-4.63,1.24.86ZM158,56.43l-3,6.11q-2.92-1.42-6-2.58l1-2.8,1.06.41-.66,1.65c1.29.51,2.55,1.05,3.79,1.63l2.35-5.07,1.37.65Zm-11.09-4.38-2,6.51q-3.12-.95-6.31-1.61l.61-2.93,1.1.24L140,56c1.34.29,2.66.63,4,1l1.53-5.38,1.45.43Zm-11.65-2.56-.94,6.72q-3.22-.45-6.48-.6l.14-3,1.12.06L129,54.46c1.38.08,2.75.2,4.11.37l.67-5.54,1.49.2Z"/><path class="cls-3" d="M33.9,104.13c.08.34.4.63,0,1.05.25.82,1.28.51,2.08.64s1.54.72,2,.09c.09-.55-.59-1.5-.9-1.82-.16-.17-.5-.23-.68-.44-.41-.47-.81-1.25-1.54-1.43a.67.67,0,0,0-.52-.46c-.94.81,0,1.48-.44,2.37ZM28,89.21c.06-.17.11-.35.17-.53-.51-1.21-.28-2.81-.82-4,.52-.35.38-1.15.63-1.57,1-1.55,2.67,1.12,3.65,1.27.44.68,1.73.89,2.08,1.61.77.36,1.83.57,2.22,1.13a2.26,2.26,0,0,1,2,1c1.62.46,2.7,1.49,4.17,2.17a6.86,6.86,0,0,1,1.42.89c1.09.75,2.45,1.58,1.82,3.13-.2.5-.77.72-1.24.94-.87.41-1.62,1.41-2.4,1.31A1.26,1.26,0,0,1,40,96.9,8,8,0,0,1,41.28,95c.37-.42.9-.64,1-1.23a2.93,2.93,0,0,0-1.33-1.89c-.57-.28-1.28-.16-1.44-.81-2.85-1.14-4.43-2.92-6.79-4.17-.66-.74-1.58-1.34-2.31-2a1.48,1.48,0,0,0-.82.26c.21.12,0,.24,0,.38a3.7,3.7,0,0,0,1,1.62,2.09,2.09,0,0,0-.05.65c.28,1.1,1.05,2.14,1.15,3.37a8.72,8.72,0,0,0,0,1,9.62,9.62,0,0,0,1.16,2.2c.42-.06.81-.16,1-.73,1-.29,1.6-1.35,2.58-1.7a1.62,1.62,0,0,1,.84,2.76c-.8.76-2.72,1-2.9,1.75s.86,1.12,1.4,1.68c0,.52.44.75.73,1.19.09.13.06.37.14.47.21.28.59.4.75.68.3.52.19,1.18.5,1.7,1.27,1,1.32,2.71,2,4.07-.05.23-.22.53-.14.69,0,.69,1.19.8,1.85,1.16a1.53,1.53,0,0,1-.09,1.22,3.43,3.43,0,0,1-2.14.51,4.77,4.77,0,0,1-.55.13c-.58,0-1.2-.28-1.81-.34-.21,0-.48.12-.68.08a17.09,17.09,0,0,1-1.73-.6c-.45-.14-1-.13-1.45-.31a20.41,20.41,0,0,0-2.5-.93,11.73,11.73,0,0,1-1.23-.08c-.45-.15-.62-.56-1.08-.56.11-.48.47-.47.63-.83a21.27,21.27,0,0,0,2.66-.5c.69-.06,1.62.41,1.88-.37.18-.55-.91-2-1.17-2.42s-.37-.81-.58-1.21a8.46,8.46,0,0,1-1.06-3.2c-.59-1.24-2.3-1.9-3.11-3-1.49-.52-2.13-1.89-3.23-2.84a11.83,11.83,0,0,0-1.08-.55A37.72,37.72,0,0,0,20,90.12c-.65-.32-1-.37-1.41-.89a9.85,9.85,0,0,0-2.84.38c-.34.09-.72.43-1.15.16C14.5,88,17.31,87,18.47,86.55c.66.22,1.32-.12,1.94.16.26.12.41.5.75.67.52.28,1.15.2,1.32.71,1.11.19,2,1.11,2.85,1.47a4.79,4.79,0,0,1,1.6,1c.35.28.54.67.9.64.71-.07.6-1.65.18-2Z"/><path class="cls-3" d="M48.2,51.36c-.35.22-.73,0-1,.25-.67.59-.12,2.57.94,2.77a2.79,2.79,0,0,0,.93-2.4,1.84,1.84,0,0,0-.87-.62Zm4.08,2.53c.13-.12-.06-.32-.19-.2.24-.54,0-1.09.7-1.61.18-1,1.86-2.8,2.71-2,.67.59-.12,1.35.28,2.05A62.22,62.22,0,0,1,53,59.78l-.36.34c-.14.4.14,1.19-.64,1.27-.22-.16-.17-.31-.33-.47.07-.21.35-.41.47-.62a2,2,0,0,0,0-.55,10,10,0,0,0,1.22-3.53c.2-.11.07-.24.27-.34.34-1.5,1.32-3.22.81-4.59a.71.71,0,0,0-.72.67c-.18.1-.36,0-.54,0-.24.25.17.36.18.51-.94,1-.76,2-1.56,3.17a1.82,1.82,0,0,0-.09,1c-.12.11-.23,0-.36.22s0,.54-.13.8l-.3.28c-.17.94-.74,1.87-.66,2.81a15.41,15.41,0,0,0-1.38,6.46c-.49.42-.77,1.09-1.3,1.49-.12.09-.37.1-.55.23s-.34.37-.47.43c-1,.44-1.47-.64-1.44-1.44s.87-1.88,1-2.75c.65-.2.6-.83.79-1.22s.41-.48.53-.77a4.26,4.26,0,0,0,.19-1l.41-.38c.11-1,1.65-2,1.26-3a11.34,11.34,0,0,1-2.3-2.37c-.18-.25-.25-.62-.41-.87-.72-1-2.25-2.09-3.07-3.19-1-1.33-2.9-4.48-4.54-3.25-.41.3-.56.88-1.13,1a1.28,1.28,0,0,1-.33-.46c.45-.38.59-1.06.9-1.41a4.65,4.65,0,0,1,5.4-1c1.18,1.07,1.15,2.1,2.17,3.16.74.28,1.22-.91,2-1.26.18-.14-.31-.26.12-.49.27.51,1,1.65,1.61.61.21-.33,0-.87.06-1.4s.38-1.5.48-2.26c.05-.4-.08-.79,0-1.05,0-.06.2-.16.26-.33.15-.45.47-1.41,1.19-1.3,1,.76.8,1.87.84,2.76a6.21,6.21,0,0,0-.74,2.61c-.58,1.71-1.6,3.42-1.74,5.15-.41.5-.2,1-.8,1.51-.37.76-.19,2.32,1,2.52.49-1.22,1.29-2.44,1.68-3.66.15-.16.3,0,.44.16Z"/><path class="cls-3" d="M45.29,57.41c.42.39.93.59.85,1.12a1.76,1.76,0,0,1-1.51.54.91.91,0,0,1-1.44-.1c.1-.43.59-.84.45-1.28.88-.44.81-1,1.16-1.74.79.09.56.95.49,1.46Z"/><path class="cls-3" d="M58.32,69.08c-.28,1-1.21.66-1.87.67-.36.4-.72.61-1.06.51-.55-.58.49-1.59,1.17-1.94a1.32,1.32,0,0,1,1.76.76Z"/><path class="cls-3" d="M52.58,61.76a3.36,3.36,0,0,1,2-1.72c.21.23.42.44.62.67a8.37,8.37,0,0,1,.08,2c0,.26-.23.57-.23.78s.19.41.22.66c.07.59-.22.83.06,1.1s.65-.08,1.2-.26c.22-.07.37.07.55,0,.35-.19.52-.67.87-.61.21-.7-.28-1.54-.46-2.45a8,8,0,0,1,.09-.94c-.05-1.16-.67-2.25.8-2.75,1.08.35.37,1.68.24,2.64s-.36,2.28.51,2.4a7.49,7.49,0,0,1,2.49-1.54c.57.37,1.15.31,1.71.9,0,.27-.3.52-.33.79a2.49,2.49,0,0,1-2.24.07c-.43,0-.87.19-1.29.14a1.41,1.41,0,0,0-.13.69,7.93,7.93,0,0,1,2.12,1.87c.52,1.61-1,3.14-1.18,4.73-.63.46-.55,1.15-1.25,1.74-.25,0-.47-.42-.48-.61.42-.51.37-1,.71-1.52a8.78,8.78,0,0,1,.47-2.17c-.33-.62-.23-2.28-.49-2.69-1-1.71-2.61.93-3.91.84-1.05-.43-.91-1.47-1.26-2.18.45-.8,0-1.63.24-2.44a1,1,0,0,0-.73-.17c-.33.24-.29.48-.48.73-.09-.14-.1-.27-.28-.41-.15.21.33.44.22.65-1,1-.7,2.3-1.71,3.13-.29,0-.4-.42-.37-.62.21,0,.54.42.7-.07s-.48-.15-.44-.37c.45-.83,1.14-1.64.25-2.52.09-.71.48-1.12,1.16-.5Z"/><path class="cls-3" d="M55.29,70.25c.14.27.3.1.44.27-.16.49,0,1.15-.65,1.47a3.63,3.63,0,0,1,.78,1.56L55.4,74a1,1,0,0,0-1.1.15c-1.23-.84.65-1.71.55-2.71.15,0,.29.12.45-.13-.23-.36-.42-.71,0-1Z"/><path class="cls-3" d="M109,231.79c-.3,1,.68,1.21,1.62,1.3a14.47,14.47,0,0,1,.21-1.6,2.71,2.71,0,0,0-1.83.3Zm1.92-18c-.31,1,.66,1.22,1.62,1.3a12.42,12.42,0,0,1,.21-1.6,2.83,2.83,0,0,0-1.83.3Zm1.78-6.12c.79.23,1.68.38,2.46.62-.1.38-.31.54-.32.83-.07,1.46,3.72,1.49,2.39,3-1.09-.16-1.92-.65-3.1-.51a4.34,4.34,0,0,0,1,.64q-1.26,11.94-2.54,23.86a7.08,7.08,0,0,0,1.33.28c.16-.93.6-1.26,1.78-1,.2,0,.5,0,.56.24-.13.39-.59.18-.82.45s-.12.66-.29,1.1a13.55,13.55,0,0,1-2.57-.46,5.6,5.6,0,0,0-.16,1.07c1,.41,2.76,1.1,2.18,2.4-.18.42-1,.63-1.64.59-.33,0-.78,0-1-.33.2-.31.78-.14,1.16-.24.92-1-.39-2-1.67-2.11a3.14,3.14,0,0,0-2.65,1.16,13.77,13.77,0,0,1-1.41-.38c.28-.45.85-.56,1.3-.76a6.34,6.34,0,0,1,1.5-.52c0-.41.09-.83.14-1.25-.77-.36-1.93-.4-2.62-.82.22-.35.79-.29,1.25-.31s1,0,1.44,0a10.84,10.84,0,0,1,.22-1.6c-1.22-.16-2.81-.33-2.93-1.26-.2-1.45,1.71-1.5,3.16-1.29a4.75,4.75,0,0,0,.15-1.06,7.52,7.52,0,0,0-1.36-.42,3.12,3.12,0,0,1-1.25-.49c.25-.32.79-.31,1.26-.32s1,0,1.48,0c0-.35.07-.71.11-1.07a10.45,10.45,0,0,0-1.39-.42c-.44-.13-1-.2-1.21-.53.64-.42,1.77-.23,2.73-.25,0-.33.07-.65.11-1a23.49,23.49,0,0,1-2.61-.91c.23-.34.79-.3,1.25-.32a14.58,14.58,0,0,1,1.48,0l.12-1.11c-.4-.15-.89-.29-1.35-.42s-1-.17-1.26-.49c.26-.34.81-.25,1.29-.27s1,0,1.45,0l.12-1.08a19.15,19.15,0,0,1-2.62-.86c.21-.37.76-.3,1.21-.32a8.13,8.13,0,0,1,1.48,0c.19-.72.19-1.65.31-2.45a6.61,6.61,0,0,0-1.94.79c-.2.15-.31.45-.54.48-.48.07-1-.42-1.47-.6.34-.39,1.21-.25,1.68-.55-.13-.5-.76-.61-.72-1.24.68.06,1,.75,1.67.8.49,0,.88-.29,1.39-.39,0-.34.08-.68.11-1-1.21-.15-2.8-.33-2.93-1.26-.18-1.44,1.71-1.49,3.16-1.28a5.07,5.07,0,0,0,.16-1c-.42-.11-.93-.23-1.41-.33s-1-.08-1.22-.45c.35-.4,1.14-.38,1.88-.34s1.82.2,2.63.33c.39.05,1,.34,1.19-.1-.24-.45-.83-.42-1.3-.59-1.08-.4-2.43-1.24-2-2.7,0,0,0-.09,0-.13Z"/><path class="cls-3" d="M106.62,219.36c.62-.17,1.51.33,1.43.87-.12,1-1.68,0-1.43-.87Z"/><path class="cls-3" d="M106.49,221.38c.44-.16,1.35.2,1.42.6.25,1.3-1.86.46-1.42-.6Z"/><path class="cls-3" d="M106.88,227.46a1.41,1.41,0,0,1-1-1.32c.78-.41,2.1.93,1,1.32Z"/><path class="cls-3" d="M106.9,229.45a1.11,1.11,0,0,1-1.13-1.3c.69-.31,2,.61,1.13,1.3Z"/><path class="cls-3" d="M124.72,0A124.72,124.72,0,1,1,0,124.72,124.73,124.73,0,0,1,124.72,0Zm0,4.3A120.42,120.42,0,1,1,4.3,124.72,120.43,120.43,0,0,1,124.72,4.3Z"/><path class="cls-3" d="M172.93,29.82c.57-.81,2,0,2.79-.47a4.33,4.33,0,0,0,2.05,0c.68.65,1.85.52,2.41.79s1.32,1.39,1.07,1.84-1.86.38-2.78.06c-.58-.2-1.29-.06-1.84-.25-.91-.32-1.58-1.09-2.41-1.44-.4-.17-1.25,0-1.29-.58Z"/><path class="cls-3" d="M169.14,24.52c.09,3.06-3.29,2.47-5,2.95-.47.57-.18,1-.39,1.41-.4.84-1.58,1.3-2.28,1.64-.32.14-.6.41-.81.48-.45.14-1.29.11-1.82.25a2.34,2.34,0,0,0-.87.46c-.55,1,2.44,1.71,1.92,2.87-1.3,2.33-3.55,2.26-5.32,2.87-.81.28-1.48.76-2.15,1-.49.21-1.07.11-1.15.77-.15.29.41.42.4.67a13.86,13.86,0,0,0,2.93-.55c.31-.08.62-.31.89-.36s.52.12.77.09a18.88,18.88,0,0,0,2.13-.74c.43-.14.68-.09,1-.52.49,0,.91-.37,1.49,0-.47,1-1.54,1.16-2.26,1.72-1.53.21-3.07,1.55-4.69,2-.64.19-1.31.07-2,.24-1.4-1.19-3.25,0-3.74-1.71a2.84,2.84,0,0,1,1.94-1.75,3,3,0,0,1,2.3-1.13c1.69-1.53,4.33-1.21,5.44-3.86-.17-.91-1.49-.68-1.67-1.56.58-.63.82-1.24,1.5-1.71s1.41-.26,2.08-.67a4.89,4.89,0,0,0,1.48-1.14c.36-.68-.25-1-.33-1.71.43-.77,1.44-.88,2.22-1a22.49,22.49,0,0,0,3-.42c.78-.27,1.48-.7,2.23-.91.25-.07.41-.07.77.24Z"/><path class="cls-3" d="M173.48,39.82c.32.43-.42,1.18-.79,1.25-.76,1.73-2.38,1.62-3.73,2-.28.07-.52.3-.83.39-.84.25-2.06.49-1.1,1.47a5.8,5.8,0,0,0,.77.49,6.67,6.67,0,0,0,2.89,1.08,11.81,11.81,0,0,0,1,.74,1,1,0,0,1-1.06,1.41c-.15,0-.41-.24-.79-.33-.21-.06-.53,0-.71-.05s-.21-.22-.33-.28a4.25,4.25,0,0,0-.64-.16c-1.75-.92-3.43-2.36-3.78-3.49.56-1.43,1.89-1.17,2.72-2.18.42-.08,1-.52.64-1s-.73,0-1-.34c0-.49.35-.78.5-1.19.07-.18,0-.45.16-.64.32-.45.93-.33,1.39-.62a3,3,0,0,0,1.28-2.67c-1.16-.56-3.36-1-3.85-2.2.54-.8,1.5.32,2.1-.16a8.06,8.06,0,0,0,5.95-.72,7.82,7.82,0,0,0,1.34.77c.61.19,1.12,0,1.64,0s1,.51,1.63.45c.25.66,1.17,1,.69,1.78s-1.72.66-2.68,0c-.59-.39-.93-1-1.56-1.08-.84,0-1.66,1.46-2.57,2.86-.57.88-1.58,2.11-.8,2.57.55.32.79-.55,1.44-.17Z"/><path class="cls-3" d="M225.76,102.13c.71.3,2,.91,2.67.7,1.08-.36.27-2.45.61-3.44-1.22-1-2.76-2.3-4.82-1.31a6.91,6.91,0,0,1,0,.8c.4.38,1.13.26,1.57.59-.19.73-2.11.35-2.11,1.19a5.12,5.12,0,0,0,2.12,1.47Zm10.12-4a1.84,1.84,0,0,1-.5,1c-2.23.74-3.87-1.15-5.66.1.52,2.15,2.42,3.39,2.16,5.86a8.75,8.75,0,0,1-6.48-1.3c-.76-.45-1.56-1.59-2.72-1-.11.56.26,1.42,0,1.88-3.17.89-4.09-1.39-5.85-3-.47-.44-1.11-.68-1.17-1.39.94-.12,1.75.82,2.6,1.36s1.89,1.29,2.84.45c-.38-1.39-1.78-1.54-2.79-2.19a16,16,0,0,1-3.07-2.84c-1.21-1.35-2.52-2.87-2.65-5.09.59,0,.89.63,1.3,1a28.11,28.11,0,0,1,3.57,3.45c.64.79,1.37,1.71,2.17,2.61.6.68,1.91,2.52,2.84,1.82.05-.7-.6-1.08-.75-1.78.56-.24,1.1-.27,1.38-.59,1.28-1.45-1.8-2.14-1.86-3.18,1-.13,1.71,1,3.18.37.53,1.14,2.49,2.27,2.9.44.34,0,.83-.15,1.14,0,.28-.42.25-1,.47-1.47,1.19.57,1.3,2,2.05,2.78,1.07,1.14,2.92.66,4.92.77Z"/><path class="cls-3" d="M226.35,87.61c.1,0,.13,0,.22,0,.24.61-.42,1.15-.67,1.8s-.31,1.28-.55,1.78a6.76,6.76,0,0,1-1.73,1.89,6.41,6.41,0,0,1-2.43,1.4c-.46,0-1.84-.69-1.84-1.17,0-.77,2.31-1.08,3-1.54,1.63-1,2-3.44,4-4.19Z"/><path class="cls-3" d="M219,89a.32.32,0,0,0,.22,0s.11.28.1.42c-.05.66-2,2.1-2.91,2.15-.47,0-1.18-.31-1.24-.73-.1-.8,2.89-1.56,3.83-1.86Z"/><path class="cls-3" d="M214,103.74c-1.18.28-1.68.27-2.15-.31-.64-.78-.48-2.41-1.49-2.48-2,.64-4.12,2.22-5.87,1.09-.09-.92-1.17-1.29-1.32-2.08a3.67,3.67,0,0,1,.67-2.16c1,.82,1.1,3.15,2.53,3.32,1,.12,3.2-.69,3.26-1.52-.8-2.67-2.61-3.61-4.32-5.22-.47-.44-1.32-1.17-1.41-1.78s1.2-2,2.16-2c.57,0,1.75,1.7,2.23,2.31a45.45,45.45,0,0,1,3.92,5.31,21.66,21.66,0,0,0,1.63,3.16,3.27,3.27,0,0,1,.16,2.34Z"/><path class="cls-3" d="M210.64,55.28a3.74,3.74,0,0,1,0,3.06c-.13.43-.18,1.24-.51,1.5a8.4,8.4,0,0,1-2.22.7c-.76.22-1.57.41-2.12.57-1.13.35-3.89,1.25-3.76,2.1s1.58,1.14,2.23,1.35c1.35.45,2.77.73,3.1,2.52-1.87.32-3.36-.74-5.07-1.77-1-.62-2.1-1.43-3.11-1.45-1.72,0-3.21,1.13-4.84,1.18s-3.64-1.09-4.78-1.81a7.71,7.71,0,0,1-3.68-4.1c1.19-.24,1.64,1,2.43,1.65a8,8,0,0,0,3.46,1.38c1.14.22,2.86.48,3.85-.62-1.24-3.31-5-3.54-7-5.52a3.09,3.09,0,0,1-1-2.56A24.74,24.74,0,0,1,190,52.18c.19.3,0,.94.19,1.37.33.8,1.51,1.55,2.18,2.13,1.64,1.41,2.9,2.29,4.51,3.9.74.74,1.58,1.57,2.35,1.61,1.24.07,2.67-.73,3.89-1.24a15.56,15.56,0,0,0,3.72-1.85c1.32-1.07,1.49-2.27,3.6-2.87a.21.21,0,0,1,.25.05Z"/><path class="cls-3" d="M191.7,72.82c.41-.52.91-.47,1.41-.81,1.19-.84,1.72-2.69,3.34-2.38a5.45,5.45,0,0,1-.69,2.72c-.38.91-.68,2-1.49,2.29S192,74,191.7,72.82Z"/><path class="cls-3" d="M86.74,27.53c.7.63,1.65-.44,1.78-1.06-1-1.55,1.15-1.59,1.51-.6S88.42,28.18,87.76,29a4.82,4.82,0,0,0-1.13,2.1,1,1,0,0,0-.44.45,3.59,3.59,0,0,1-.52,1.3c.06.17.12.35.19.52a11.45,11.45,0,0,1-.69,2.1,8.76,8.76,0,0,1-.12,1.16,10.56,10.56,0,0,1-.8,1.1c-.41.64-.44,1.36-1,1.69-.09.65-1.34,1.36-.91,2.11.19.32.58.16.94.34.17.82,1.11,1.3,1.2,2.19a1.56,1.56,0,0,1-.54,1.22c-.63.3-1.15-.42-1.69-.6-.22-.65-.45-1.28-.67-1.92-.26,0-.53,0-.67-.22A3.19,3.19,0,0,1,81,41a6.84,6.84,0,0,0,.72-.7c.18-.82.93-1.43,1.26-2.37.27-.77.37-2,.7-2.7s1-1.16.51-1.73c-.84-.26-1.89.71-2.07,1.31-1.17.48-1.44,1.4-2.44,2-.21.94-1.47,1.28-2,2-.6-.17-1.58,0-1.83-.55s.46-.78.75-1.31a9.4,9.4,0,0,0,2.28-2c1.19-.42,1.64-1.44,2.49-1.83.21-.1.14-.34.28-.48,1.1-.51,1.47-1.38,2.44-2a1.72,1.72,0,0,0,.14-1.53c0-.19,0-.46,0-.6-.15-.6-.56-1.17-.69-1.77-.07-.33,0-.65,0-.95-.28-1.3-1.17-2.49-1.34-3.85.14-.08.14.09.25.06.37-1.2,1.5-.64,2.2-.09.7,1.73,2.17,3.59,2.11,5.66Z"/><path class="cls-3" d="M90.66,34.12c.25.79-.66,1-.33,1.82a6.45,6.45,0,0,0-1.1,2.84c-1.07.28-1.54,2.75.33,1.82,1.18-.58,1.65-2.09,3.34-1.76a5.1,5.1,0,0,1,1,.54c.24.55-.55.82-1,1.08a7.56,7.56,0,0,0-1.28,1.27c-.17.06-.36.15-.48.09a4.35,4.35,0,0,1-3,1.55c-.32.1-.21.41-.48.54s-.58-.25-.87-.37c-.7-1.13-.17-2,.14-2.8.09-.22,0-.46.06-.69s.41-.65.48-1,0-.45,0-.59c.23-.59,1.77-1.58.66-2.17-1.12.4-1.74,1.59-2.38,2.54-.13.19-.39.27-.47.39-.4.58-.34,1.55-1.46,1.54-.27-1,1-1.8,1.69-2.59s1.12-2,2.46-2.56a5,5,0,0,1,1.38-1.15c0-.42,1.06-.63,1.22-.35Z"/><path class="cls-3" d="M124.92,14l.67,0c2.71,1,.67,4.69-.39,6.26,0,2.46-1.45,4.9-1.66,7-.07.71.13,1.52,0,2.25-.07.48-.36.9-.4,1.33,0,.62.63,1.65-.31,2-1.58-.61-.78-2.18-.5-3.72.45-2.53.62-6.32,1.59-8.11.3-.54.83-.82,1-1.3s-.11-.82-.06-1.13c.13-.79,1-1.29.65-2-1-.47-1.77.31-2.7.32-1,1.21-3.61,3-5.45,1.44A86.52,86.52,0,0,0,124.92,14Z"/><path class="cls-3" d="M138.47,21.77a1.38,1.38,0,0,0,1.17-1.18c-.62-1.37-2.45.5-1.17,1.18ZM142.2,21h0v0h0c-.63,1.71-3.07,1.36-4.37,2.5-.55.48-.35,1.09-1.08,1.52-.2,2.3-1.15,5.63-1.05,8.47,0,.93.62,2.28-.46,2.67-1.59-.72-.06-4-.65-5.41-1.38-.29-2.18.37-3.07.87s-1.78,1.35-2.71.55c1.37-2,3.63-3.07,5.36-4.69.19-.15.13-.56.16-.89.49-.38,1.68-.55,1.51-1.27-1.69-.9-3,1.27-4.88,1.35-.52.38-.82.88-1.6.71-1,1-2.88,2.27-4.88,1.46.33-1.7,2.52-1.39,3.26-2.66,3.12-.84,5.56-2.43,8.77-3.19,0-1.1,1.29-3.2,1-5.1-.09-.62-.64-1-.6-1.49.19-2.41,3.5-1.08,2,1.21.54,1.58,3,1.43,3.33,3.17Z"/><path class="cls-4" d="M139.64,20.59a1.38,1.38,0,0,1-1.17,1.18c-1.28-.68.55-2.55,1.17-1.18Z"/><path class="cls-3" d="M117.89,20.74c.65-.47,2.37.44,2.64,1.24a1.06,1.06,0,0,1-.86,1.53c-.93,0-2.58-2.19-1.78-2.77Z"/><path class="cls-3" d="M114.41,20.81c.68,0,.78.51,1.21.72-.32,2.07.22,4.07.07,5.83-.08.88-.37,1.39-.45,2.56,0,.72.26,1.65-.43,2.11-1.71-.89-.61-3.1-.46-4.73a17.93,17.93,0,0,0-.35-2.25,21.25,21.25,0,0,1,.41-4.24Z"/><path class="cls-3" d="M117.43,26a4.43,4.43,0,0,1,.18-1.44c2.11-1.6,4,2.43,1.79,2.65-.84.09-1.54-.65-2-1.21Z"/><path class="cls-3" d="M112.79,39.57h-.22c-.6-.49-2-.2-1.73-1.53.35-.48,1.18-.43,1.82-.59,1.73-2.1,4.32-3.25,5.32-6.15-.24-.88-1.2-2.05-.77-2.84,1.15-.16.72,1.13,1.28,1.51.71,0,0-.74.26-.88,2.59.4,1.23,4.82.29,6.07,1.67,1,3.86,1.62,3.85,4.2-2.26,1-4.17-1.34-4.47-2.78a1.26,1.26,0,0,1-.91.19c-1,1.63-3,2-4.72,2.82Z"/><path class="cls-3" d="M26.91,126.79c-.7-.05-.78.74-.68,1.58l1.34-.11c0-.64-.1-1.44-.66-1.47Zm2.41-.16c-.89-.14-1,.72-.86,1.55l1.34-.11a2,2,0,0,0-.48-1.44Zm-1.08,3.24a2,2,0,0,1-1.83.73c.05,2.38,3.93,2,3.63-.3-.79.08-1.63.22-1.8-.43Zm7.44-4.09c-.78-.06-1,.91-.83,1.87l1.66-.14c-.14-.75-.2-1.69-.83-1.73Zm-4.11-1.32h.09a22.08,22.08,0,0,1,1.72,3.32l1-.08c-.14-1.39.12-3.75,1.63-3.06.77.35.79,1.64.92,2.85l1.07-.1c0-.66.17-1.41.24-2,0-.2-.1-.55.16-.64.33.17.45.65.54,1,.34,1.43,0,3.17.41,4.42.89.15,1.27-.84,1.92-.75.1.29-.2.57-.38.85-.49.79-1.26,2-2.56,1.65-.51-.91-.08-2.15,0-3.06-.22.12-.37.66-.7.83-2.23.23-4.74.36-7.1.59A3.44,3.44,0,0,1,29,133.13a1.91,1.91,0,0,1-2.49-.73c-.29-.53-.26-1.27-.68-1.7-.35-.15-.78,0-1.21.06.45,1.9-1.63,3.81-2.5,1.91-.23-.52-.48-1.5,0-1.89.29.67.21,1.68,1.12,1.53.54-.09.63-.71.72-1.05a3.93,3.93,0,0,0-.48-3c-.42-.59-1-.72-1.09-1.17a5.39,5.39,0,0,1,.06-1.44c.58.31.56,1.33,1.13,1.66.17-.11.12-.51.26-.74a.83.83,0,0,1,.72-.47c0,.81-.42,1.47-.17,2.35a7,7,0,0,0,1.35-.06c-.14-1.28-.25-2.66.86-2.73.76-.05,1.06.7,1.32,1.42.1-.92.34-2.15,1.43-1.87.82.21.82,1.63.95,2.8l2.32-.2c0-.89-1.46-1.58-1.54-2.3,0-.44.35-.64.45-1.07Z"/><path class="cls-3" d="M45.48,154.5l-.55.19a2,2,0,0,0,.06,1.83l1.57-.55a2.31,2.31,0,0,0-1.08-1.47Zm2.23,3.4c-1.36.58-3,1-4.43,1.59a3.76,3.76,0,0,0-1.58-3c0,1.27.29,2.37.31,3.6s-.49,2.37-.24,3.5c.09.45.41.83.43,1.23-.51,0-.85-.42-1.24-.8s-.91-.79-1-1.22a4.94,4.94,0,0,1,.45-1.44,7.73,7.73,0,0,0-.27-6.32c.28-.17.63.05.87.17a4.62,4.62,0,0,1,2.07,2l1.44-.5c-.23-1.13-.88-2.94.16-3.33,1.65-.64,2.39,2.77,3,4.55Z"/><path class="cls-3" d="M63.66,181.93l-4.24,3.67c.29,1.27.78,2.55-.22,3.73-.8-.39-1.12-1.45-1.59-2.12-1.69,1.32-3.4,2.9-5.09,4.32-.77-1-1.76-2.18-2.7-2.23a29.38,29.38,0,0,1,1.48,3.16,8,8,0,0,0,1.39,3.12c-.28.24-.82-.07-1.22-.25a3.86,3.86,0,0,1-1.22-.66,3.84,3.84,0,0,1-.13-1.25,6.1,6.1,0,0,0-2.37-4.89c1.29-.48,2.5,0,3.68,1l.85-.73a10.68,10.68,0,0,0-.71-1.23c-.22-.39-.57-.79-.54-1.18.4-.12.76.29,1.1.59a11.54,11.54,0,0,1,1.07,1l.81-.7a9.74,9.74,0,0,0-.74-1.2,2.73,2.73,0,0,1-.54-1.19c.4-.11.75.3,1.1.59a11.57,11.57,0,0,1,1.06,1l.82-.7a16.27,16.27,0,0,1-1.23-2.26c.24-.12.48.2.64.33A13.13,13.13,0,0,1,58.7,188c.44-.34.31-1.06.18-1.58-.33-1.35-1.9-2.86-3.06-4.17a4.16,4.16,0,0,1,2.34,1.48l.78-.68c-.33-.78-1.15-1.61-1.29-2.38.77-.07,1.45,1,2.18,1.56.57-.36,1.17-1,1.76-1.46a6.74,6.74,0,0,0-2.54-.89c-.27-.42-.18-.82-.29-1.23a9.1,9.1,0,0,1,2.52,1.21c.31.2.68.61.95.42l1.43,1.66Z"/><path class="cls-3" d="M63.71,196.6c-.79.46-.31,1.45.64,2l1-1.3c-.65-.54-1.16-1-1.67-.7Zm9.83-2.44c-1.05-.44-1.41-1.48-2.16-2.17-.07.3.27.63.2,1s-.68,1-1,1.36c-1,1.19-2.24,2.92-3.12,3.93,1.17,1,2.14,3,.51,3.91a1.81,1.81,0,0,1-1,0,6.19,6.19,0,0,1-2.88-1.78c.77.19,1.53.83,2.31,1,1.57.31,2.24-1.55.78-2.71a14.15,14.15,0,0,1-1.3,1.49c-1.2-.61-3.6-2.3-3.53-3.48.1-1.7,2.25-.86,3.34.19.24-.14.45-.55.68-.78-.78-.74-1.63-1.29-1.55-2.09,0-.28.25-.53.29-.8s-.11-.47-.06-.79c.67-.23,1.28.53,1.24,1,0,.33-.3.65-.33,1-.06.54.24.8.68,1.24.71-.74,1.4-1.74,2.1-2.58a14,14,0,0,0-.92-1.08c-.31-.34-.76-.68-.73-1.09.19-.16.42.09.59.19.55.3,1.2.7,1.74,1a3.16,3.16,0,0,0,.74-.79,8,8,0,0,0-.86-1.08c-.31-.36-.75-.65-.82-1.05.38-.19.75.22,1.1.41s.75.35,1.09.57c.9.61,1.55,1.7,2.53,2,.56-.67.12-1.22.58-1.88.81.35,1.1,3-.2,3.85Z"/><path class="cls-3" d="M101.69,205.91l-1.92,5.17c.79.79,2,1.68,1.58,2.93s-2.37.76-3.78,0c0,.27.51.65.69,1a10.77,10.77,0,0,1-1,2.74c-.59.34-1.56.08-2.62-.26-1.26-.41-3-1-3.53-1.61s-.42-1.29-.65-1.82c.56.21,1,.46,1.56.68-.11.31-.07.55-.17.85a4.85,4.85,0,0,0,3.23,1.34,10.27,10.27,0,0,0,1.19-2.8c-.35-.24-.8-.51-1.25-.76s-1-.35-1.09-.79a17,17,0,0,1,3,.63c.9.33,1.79,1.05,2.61,1a1.17,1.17,0,0,0,.87-1.58c-.49-1.27-3.36-2-4.36-1.11-.44-.25-1-.47-1.41-.72a6.5,6.5,0,0,1,3.06-.38c.11-.31.23-.61.35-.93a7.8,7.8,0,0,0-1.25-.75c-.41-.24-.89-.45-1-.82.72-.24,1.76.2,2.71.44l1-2.56c-1.48-.83-2.26.55-3.39.74-.2-.26-.53-.47-.53-.91s.42-1.16.74-1.07.14.64.34.89c.44,0,.73-.25,1.13-.34,1.1-.25,2.54.37,4,.87Z"/><path class="cls-3" d="M47.28,169.46a1.62,1.62,0,0,0-1.65-.32c-.48.42.42,1.29.85,1.42.6-.15,1-.71.8-1.1Zm6.42,4.23c-.86-.68-.83-1.86-1.27-2.74-.14.17,0,.7-.19,1-1.52,1-3.59,2-5.17,3.07a4.37,4.37,0,0,1-1.66.87c-1.58.15-2.54-2.37-2.7-3.76.45,0,.69.6,1,.95a1.82,1.82,0,0,0,1.09.6c1.48-.88,2.93-1.64,4.42-2.56a4,4,0,0,0-1.45-1.22c-.22.41-.13.78-.53,1-1,.66-3-1.38-2-2.27a1.19,1.19,0,0,1,1-.21,7.68,7.68,0,0,1,3.48,2.36l1.74-1c-.22-.85-.72-1.76-.85-2.58.5,0,.73.61,1.06,1a9.26,9.26,0,0,1,1,1.2c.44.76.59,1.72,1.25,2.28.9-.27.52-1.15,1.37-1.54a2.9,2.9,0,0,1-1.59,3.55Z"/><path class="cls-3" d="M40.83,174.06l-.5.29c-.26.51.07,1.16.39,1.81l1.46-.87a2.36,2.36,0,0,0-1.35-1.23ZM43.68,177c-1.34.8-2.68,1.58-4,2.38a3.86,3.86,0,0,0-2.14-2.65,6.56,6.56,0,0,0,.53,1.88,15.58,15.58,0,0,1,.48,1.85c.23,1.15,0,2.56.61,3.6.16.26.5.44.5.75-.51.11-.91-.25-1.37-.55s-1.05-.59-1.22-1a5.07,5.07,0,0,1,.16-1.5c.18-1.81.16-4.25-1.5-6.14.23-.22.61-.09.88,0A4.77,4.77,0,0,1,39,177.16l1.32-.78c-.45-1.08-1.47-2.64-.54-3.28,1.53-1,3,2.31,3.88,3.91Z"/><path class="cls-3" d="M24.19,145.22l-.59.2a2,2,0,0,0,0,1.83l1.57-.52a2.42,2.42,0,0,0-1-1.51Zm12.89-4.31-.6.2a2,2,0,0,0,.05,1.83l1.57-.53a2.4,2.4,0,0,0-1-1.5Zm4.32,5c.25.66.59,1.19.84,1.84-.26.24-.6.22-.85.39s-.28.48-.54.65a4.85,4.85,0,0,1-.38-1.39,2.81,2.81,0,0,1,.87-.38c-.06-.55-.36-1.23-.8-1.25-.41-1-.08-1.62-.38-2.57a8.51,8.51,0,0,0-.28,1l-6.34,2.12A5.41,5.41,0,0,1,33.3,148c-.63,1.29-2.43.83-2.87-.65l-8.37,2.81c0-1.59-1.13-3-2.34-3.19.43,1.52,1.65,3.3,1.35,4.75,1.48-.71,2.32.2,2.68,1.51-.59.15-1-.42-1.57-.32s-1.29.75-2.06.64a6.57,6.57,0,0,0,0-4.31c-.4-1-1.24-2-1.6-3,1.6-.47,2.43.61,3.31,1.59l1.32-.44c-.24-1.18-.82-2.56-.06-3.15,1.24-.94,2.11.88,2.51,2.28a4.26,4.26,0,0,0,1-.29,7.6,7.6,0,0,0-.2-1.44c-.08-.46-.28-1.07,0-1.28s.31.32.39.49c.27.5.68,1.21,1,1.81a4.84,4.84,0,0,0,1-.3,24.14,24.14,0,0,1-.3-2.74c.68.19,1,1.26,1.35,2.2.48,1.26,1.22,3.39,2.54,2.79,1-.48.5-3-.53-3.84a3.22,3.22,0,0,0-.91-.45,5.75,5.75,0,0,1-.26-1.34c.25,0,.41.28.57.43a6.51,6.51,0,0,1,1.52,1.57,5.58,5.58,0,0,1,1.08-.31c-.06-.41-.16-.93-.24-1.43s-.32-1.06,0-1.27c.4.11.55.61.77,1a11.83,11.83,0,0,1,.58,1.31l1.15-.38c-.22-1.16-.83-2.56-.06-3.15,1.24-.95,2.12.86,2.51,2.28a4.74,4.74,0,0,0,1-.28c-.08-.63-.26-1.39-.37-2.1,0-.19-.22-.5,0-.63s.34.3.44.47a14.93,14.93,0,0,1,1.82,4.45c.93.09,1-1,1.64-1.16.18,1.2-.69,2.18-1.66,2.92Z"/><path class="cls-3" d="M27.91,140.06c.47.19.45,1.34.09,1.57a.58.58,0,0,1-.79-.11c-.3-.52.28-1.17.7-1.46Z"/><path class="cls-3" d="M25.58,142.44c-.64-.26-.24-1.57.35-1.63s.71,1.69-.35,1.63Z"/><path class="cls-3" d="M78.17,207.42c-.73.84.18,1.4,1,1.86a15.25,15.25,0,0,0,.81-1.45,3.78,3.78,0,0,0-1.76-.41Zm9.5-4.87c-1.12-.24-1.67-1.19-2.54-1.72,0,.21.31.59.4.87a7.24,7.24,0,0,1-.45,1.17c-1.46,2.81-3.26,5.88-4.71,8.88.71.81,2.17,1.88,1.23,3-.45.53-2.18.15-2.58-.68.63-.16,1.38.66,1.75-.36a1,1,0,0,0,0-.56c-.37-1.49-3.22-2.25-4.25-1.35a4.82,4.82,0,0,1-1.13-.84c.11-.21.44-.18.66-.21a8.89,8.89,0,0,1,2.35.06l.6-1.16c-1.08-.55-2.57-1.36-2.21-2.35.45-1.28,2.08-.62,3.33.11a6,6,0,0,0,.55-1c-.59-.61-1.6-1.08-2.08-1.74.32-.31.84,0,1.28.16s1,.34,1.36.51c.17-.32.33-.64.49-1-.32-.29-.72-.58-1.11-.88s-.83-.51-1-.9c.35-.21.79,0,1.23.18a7.9,7.9,0,0,1,1.33.54,4.64,4.64,0,0,0,.52-.89,12,12,0,0,0-1.11-.88c-.37-.28-.88-.53-.93-.94.15-.2.43,0,.62.07.59.2,1.3.47,1.89.63a2.85,2.85,0,0,0,.58-.91,8.77,8.77,0,0,0-1-.9c-.37-.29-.87-.49-1-.87.33-.26.78.07,1.16.19s.8.2,1.17.36c1,.42,1.86,1.36,2.87,1.48.42-.76-.11-1.23.21-2,.87.19,1.66,2.74.55,3.82Z"/><path class="cls-3" d="M78.68,215l-3.36,6.48c-.94-.7-2.35-1.51-3.21-1.1a4.65,4.65,0,0,0,1.56,1.26c1.44,1.05,2.1,3.15,3.75,4.07.29.16.6.15.76.39-.34.4-.88.29-1.41.28a3.3,3.3,0,0,1-1.56-.21c-.25-.17-.44-1-.64-1.39A8.15,8.15,0,0,0,70,220.4a2.3,2.3,0,0,1,1.69-.64,4.55,4.55,0,0,1,2,.21L75,217.43c-.74-.46-2.06.47-2.75.14-.08,0-.75-.88-.69-1s.82-.09.9-.08c1,.05,1.9.28,2.82.4.38-.71.75-1.43,1.12-2.15-.68-.39-2.09.41-2.73.1-.36-.17-.4-.7-.69-1a7.21,7.21,0,0,1,2.79.18c.37.07.87.25,1,0,.64.32,1.27.65,1.91,1Z"/><path class="cls-3" d="M164.4,157.66v.13c-8.57-2.06-17.22-4-27.51-4.39a155.81,155.81,0,0,1-6.34-29.8c-5.42-1-11.84-.31-18.12-.5,1.31-9.15,1.25-20.88.63-30.8-2.38-1.43-6.66-.22-9.88-.75,1.85,21.33-1.28,41.61-7.23,56.84,4,.78,7.4-1,11.41-1,1.59-4.36,2.37-9.51,3.68-14.15h6.46A125.83,125.83,0,0,1,112.56,153c-9.21,1.55-19.19,2.34-27.26,5-.15,0-.23,0-.25-.13,9.37-18.09,15.58-48.45,10.39-75,4.93-.17,10.32.7,14-.88,2.64-3.25.41-9.49-.39-12.65,3.1-.87,7.06-.87,10.91-1-.17,16,.59,32.29-.39,47.59h16.86A149.18,149.18,0,0,0,142,147.39c4.15.2,8.09,1.28,11.66,1.63-5.59-15.39-9.75-36.37-7-57.35h-9.51c-1.44,4-.68,10.1-1.27,14.9-2.11-.08-4.56.17-6.46-.12.09-12.65-.17-25.63.13-38.07a70,70,0,0,1,11,.88c-.71,4.15-4.18,10.41.14,13,3.36,2,8.58-.15,13.3.63-5,27.22,1,56.94,10.4,74.75Z"/><path class="cls-2" d="M145.5,226.64l-8.25,1-.13-.89c1.6-.15,2.27-.76,2-1.82L137.49,214c0-1.09-.86-1.5-2.44-1.25l-.14-.89,8.26-1,.14.89c-1.61.14-2.27.75-2,1.8l1.6,10.94c.05,1.08.86,1.51,2.45,1.26l.13.89Zm23.2-6.82-5.27,2.61-.4-.81a2,2,0,0,0,1-2.93l-4.86-9.47c-.39-.9-1.22-1-2.47-.31l-.41-.8,5.91-2.93L170,213.4l.09-.05L168,202.29l6-3,.41.8c-1.46.67-1.89,1.46-1.29,2.38l5.08,9.87c.39,1,1.29,1.16,2.71.39l.41.82-7.1,3.51-.41-.81c1.29-.58,1.67-1.35,1.12-2.29l-5.41-10.53,2.63,14.66-1.77.87L160.1,208.14l5.12,10a2,2,0,0,0,3.07.92l.41.8Zm13.71-27.06L188,187l.65.63c-1.18,1.15-1.36,2.06-.48,2.74L195,197a3.13,3.13,0,0,0,4.52-.07q2.73-2.82-.15-5.61l-6.1-5.9c-.62-.85-1.64-.67-3.05.51l-.65-.62,4-4.15.65.63c-.94,1.24-1,2.17-.18,2.81l6,5.78q3.67,3.56-.45,7.82-4.08,4.08-7.3,1.11l-6.62-6.41c-.71-.86-1.56-.7-2.6.44l-.65-.62ZM220.46,169l-3.21,7.91-.83-.36c.65-1.46.46-2.34-.59-2.65l-10.23-4.33c-1-.54-1.73-.05-2.27,1.45l-.84-.34,5.29-13,5.36,2.05-.37.93q-4.76-.66-6.29,3.15c-.63,1.2-.42,2,.63,2.28l4.2,1.77c.91-1.75.51-3.18-1.18-4.35l.34-.83,6,2.51-.34.82c-2-.38-3.29.36-3.85,2.25l5,2.12c1,.54,1.76,0,2.38-1.7l.82.36Zm-6.07-39.26,5.64,1-.17,1c-3.17.2-5,1.66-5.48,4.36-.37,1.33,0,2,1.08,2.14l4.45.91a3.12,3.12,0,0,0-2-4.07l.15-.88,6.32,1.28-.16.89a2.92,2.92,0,0,0-3.3,3l5.24,1.07c1,.26,1.58-.26,1.75-1.56q.7-4.43-3.86-6.63l.16-1,5.92,1.4-2.56,14.26-.88-.18c.35-1.58,0-2.41-1.12-2.52l-10.84-2.2c-1-.34-1.68.29-1.9,1.88l-.89-.17,2.49-13.91Z"/></g></g></svg>