<svg width="889" height="890" viewBox="0 0 889 890" fill="none" xmlns="http://www.w3.org/2000/svg">
<path fill-rule="evenodd" clip-rule="evenodd" d="M408.878 662.699C402.248 662.129 400.999 661.859 399.609 656.629L402.959 655.229C405.969 657.549 406.738 659.509 408.878 662.699ZM446.119 654.939C446.979 653.929 449.269 653.839 450.789 653.479C453.219 658.709 449.359 648.579 451.199 655.559C452.539 660.699 456.138 662.009 456.138 662.009C456.248 661.739 456.729 662.459 456.999 662.699C449.719 662.099 448.618 660.579 446.148 654.939H446.119ZM354.579 637.879C356.779 632.409 353.149 636.509 360.019 633.979C381.389 626.169 377.849 621.829 377.849 662.699H363.878V636.329C357.428 636.329 358.349 635.769 354.579 637.879ZM464.729 644.089C457.709 644.089 450.519 649.499 448.709 645.429C448.199 644.269 451.709 631.129 452.299 628.569H480.949C478.749 637.849 482.079 634.009 475.719 634.939L455.388 634.759C445.998 654.339 464.728 633.689 484.878 647.179C485.028 657.609 484.518 662.699 463.148 662.699L465.829 660.729C474.979 654.249 470.909 644.089 464.699 644.089H464.729ZM514.209 642.689C521.049 637.429 529.069 643.549 534.539 647.209C534.539 667.599 514.929 665.219 512.729 662.639C507.439 662.609 506.478 662.339 503.158 659.959C474.118 639.189 521.909 615.439 532.249 635.619C523.869 637.159 528.599 637.129 525.239 630.149H512.809C510.499 636.989 509.809 633.359 509.719 642.539L514.239 642.719L514.209 642.689ZM396.459 640.999C396.459 634.189 405.069 628.569 411.969 628.569C450.819 628.569 439.968 662.219 418.178 662.699C420.408 658.469 422.339 654.759 422.849 648.729H419.759C423.619 641.409 422.849 642.369 422.849 631.669C419.369 630.859 419.279 630.119 415.089 630.119C413.869 630.119 404.269 637.939 415.829 650.299C409.089 650.299 396.479 649.559 396.479 640.999H396.459ZM483.329 487.399C483.329 478.149 484.908 467.509 484.878 456.369C484.848 432.409 482.169 430.749 491.089 430.009L494.829 544.229C497.779 552.929 513.829 567.079 519.029 583.609C516.859 585.029 516.229 585.359 513.939 586.699C511.119 581.699 493.559 556.769 489.569 554.119C484.849 557.599 475.399 573.559 470.549 580.099C464.219 588.629 467.489 586.729 463.209 586.729C461.039 586.729 460.119 584.619 460.119 582.059C460.119 573.739 482.739 552.369 483.509 537.059L483.388 487.429L483.329 487.399ZM311.119 541.699C311.119 529.689 317.399 519.969 329.729 519.969C330.559 523.509 331.719 523.689 330.059 526.479C328.629 528.889 330.469 526.119 327.649 528.649C310.079 544.519 329.699 559.499 329.699 566.489C329.699 575.429 311.099 564.499 311.099 541.669L311.119 541.699ZM270.789 569.639C266.419 557.869 278.549 558.019 278.549 541.699C278.549 534.329 269.719 530.259 269.249 519.969C278.309 520.179 276.139 521.429 280.539 527.279C292.489 543.239 285.269 566.129 270.789 569.609V569.639ZM500.418 436.219C500.418 431.489 503.128 430.959 506.628 430.009C510.408 438.709 508.178 509.779 508.178 526.179C527.048 531.239 512.549 550.319 503.509 527.699C498.069 514.119 500.418 455.569 500.418 436.189V436.219ZM460.449 538.249C459.789 528.919 459.939 535.369 465.939 528.979C475.959 518.339 463.299 445.969 470.939 430.039C475.959 431.369 476.789 431.519 477.239 437.699C477.949 447.269 475.958 467.509 477.418 477.919C478.748 487.399 478.928 521.929 477.148 527.789C475.308 533.789 468.649 539.049 460.449 538.279V538.249ZM294.059 504.489C296.029 496.019 294.149 492.569 300.599 487.749C306.249 483.559 322.599 480.289 329.729 484.309C329.729 493.279 324.919 489.149 312.699 492.089C306.459 493.579 303.959 495.659 303.369 502.909C323.279 502.909 328.899 500.359 331.309 510.669L303.369 512.219V575.819C330.589 575.819 315.879 575.309 331.309 578.909C330.349 582.419 329.819 585.119 325.089 585.119C315.399 585.119 275.219 586.929 269.249 583.579C269.249 572.909 276.889 577.359 295.609 577.359V512.219C268.359 512.219 269.459 514.329 269.249 504.459H294.059V504.489ZM393.359 485.879C393.359 479.339 394.519 477.919 399.579 476.579C404.029 495.719 402.668 484.009 402.668 509.149L404.209 543.269C404.209 577.309 386.589 596.329 367.029 578.909C366.789 578.699 366.469 578.379 366.259 578.139L364.089 575.639C362.419 573.679 363.259 574.899 361.979 573.079C356.089 564.699 361.179 562.329 360.729 554.239C360.459 549.779 359.209 549.189 359.209 543.269L360.759 478.119C365.929 478.539 365.658 477.889 367.388 482.369C369.588 488.079 368.519 532.659 368.519 541.729C380.999 540.689 377.819 527.939 377.819 509.149C377.819 504.339 371.818 484.779 380.908 478.119C390.748 485.319 385.579 515.809 385.579 516.909V538.639C390.089 541.669 387.659 541.789 393.329 543.299C396.099 536.649 393.329 499.049 393.329 485.909L393.359 485.879ZM269.249 470.369C269.249 466.799 270.319 465.699 273.909 465.699H325.119C328.599 465.699 328.539 466.919 331.339 468.789C326.129 476.159 317.039 473.459 298.759 473.459C277.329 473.459 269.279 477.649 269.279 470.369H269.249ZM421.269 468.819C416.279 500.949 418.178 501.369 418.178 535.549C418.178 544.199 424.388 565.329 424.388 583.639C411.258 583.339 416.699 575.969 412.949 554.749C401.239 488.729 411.969 520.569 411.969 467.279C331.989 467.279 351.459 463.259 351.459 487.459V533.999C351.459 545.889 349.049 552.309 348.369 561.939C347.679 571.599 348.779 580.629 342.149 585.209C340.729 584.259 337.489 582.679 337.489 580.539C337.489 580.429 345.249 531.769 345.249 521.579C345.249 501.279 337.489 450.099 337.489 443.999C337.489 438.539 344.199 432.319 348.929 430.629C352.259 429.409 364.679 426.939 368.519 426.939C381.979 426.939 424.359 421.359 424.359 443.999C424.359 461.509 423.319 455.479 421.239 468.819H421.269ZM574.869 521.579C588.809 521.579 602.249 519.909 610.359 529.539C621.659 542.979 610.569 550.999 610.569 557.269C610.569 569.519 615.918 575.549 613.658 585.209H607.449C606.139 579.649 602.779 576.499 602.779 569.699C602.779 553.319 607.449 548.089 607.449 537.119C607.449 536.079 602.569 531.329 601.239 529.359H574.869V574.359C574.869 577.329 578.199 581.259 571.599 586.609C565.569 582.059 567.949 580.429 566.999 571.389C561.829 523.479 579.358 529.359 545.418 529.359C526.038 529.359 538.519 556.109 539.089 569.819C539.239 573.649 536.738 580.069 534.928 582.539C531.388 587.379 530.769 586.519 525.239 585.209L531.449 561.939C531.449 544.019 502.148 521.609 567.148 521.609V510.759C554.958 510.759 525.269 512.569 525.269 493.699C525.269 469.269 547.168 470.429 567.148 470.429V461.119C540.868 461.119 525.419 460.499 525.329 433.389L531.479 431.639C534.659 438.239 533.139 438.029 534.809 445.399C536.799 454.319 547.589 451.819 562.509 451.819C574.959 451.819 558.499 433.159 572.559 430.089C573.449 433.099 574.928 447.509 574.928 451.819H601.299C612.319 435.379 604.269 440.109 609.049 430.089C611.939 430.419 615.259 427.869 615.259 437.849C615.259 465.309 596.598 461.119 574.928 461.119V470.429C587.948 470.429 615.259 469.589 615.259 489.029C615.259 513.169 588.008 510.759 574.928 510.759V521.609L574.869 521.579ZM267.669 451.759C267.669 447.779 288.889 426.939 298.699 426.939C303.659 426.939 328.069 441.269 331.249 453.249L325.059 456.339C309.219 445.699 306.279 423.969 283.279 445.669C283.039 445.879 282.709 446.199 282.499 446.439C282.269 446.679 281.969 447.009 281.729 447.239L272.688 457.649C269.928 456.249 267.669 456.069 267.669 451.789V451.759ZM466.269 262.469C473.289 262.319 475.688 260.769 484.878 260.949C506.248 261.369 526.639 259.289 543.839 259.339C557.279 259.399 570.738 259.339 584.178 259.339C604.948 259.339 612.619 255.389 615.209 264.009C608.489 267.219 558.648 267.099 545.388 267.099L545.269 285.679C545.569 295.039 543.839 296.259 543.839 304.339L598.148 319.859C599.628 313.439 600.999 308.089 603.439 301.879C608.789 288.089 606.438 290.549 613.658 290.399C613.628 299.769 611.159 305.829 608.339 312.989C605.839 319.349 603.349 327.819 602.779 335.399C600.049 371.309 640.169 409.559 593.449 409.849C584.859 409.909 577.609 411.459 567.119 411.429L485.529 412.349C478.779 411.219 479.529 411.989 474.859 409.049C461.339 400.579 467.579 390.559 471.199 380.669C475.099 370.089 480.149 343.749 477.799 333.139C473.909 315.429 464.839 297.949 464.729 291.949C473.909 292.749 477.709 302.649 480.829 313.079C482.109 317.299 481.669 317.979 483.329 321.429C500.719 321.429 520.359 307.369 537.359 305.919L536.089 268.679C514.509 268.679 484.849 271.439 466.269 267.129V262.469ZM273.879 270.219C273.879 251.559 316.179 256.249 332.849 256.249C340.639 256.249 339.808 257.649 346.818 257.799V262.469C341.678 262.699 337.189 264.099 332.259 264.989L284.759 265.589C279.109 277.359 282.059 284.789 284.759 296.649L360.819 296.619L360.789 257.829C379.219 254.619 362.629 278.009 374.759 278.009C388.909 278.009 403.379 279.789 413.549 274.919C414.619 270.369 416.248 262.759 416.638 257.859C416.638 257.859 424.509 254.859 424.359 268.739C424.299 273.139 421.718 278.489 419.188 280.569C409.828 288.229 382.689 287.339 370.089 287.339C370.329 297.689 370.688 295.099 394.908 295.099C422.518 295.099 423.619 292.309 422.489 304.129L370.089 304.399V323.009C376.509 326.399 387.298 335.279 395.888 330.259C403.558 325.769 414.788 314.509 424.388 319.889C421.448 325.469 424.599 322.559 419.279 325.619L401.119 335.399C405.129 341.669 401.719 337.749 408.079 340.839C430.489 351.629 425.998 375.999 425.878 406.579L419.729 408.339C408.759 385.479 427.719 358.879 407.099 349.609C383.999 339.239 388.939 342.949 370.089 355.579V408.339C363.319 408.189 362.329 407.329 362.329 400.579C362.329 370.829 356.929 346.489 377.849 341.609C375.439 332.609 368.808 336.089 364.148 325.799C362.598 322.379 362.329 318.819 361.769 314.119C361.089 308.359 361.919 309.779 360.789 304.369L314.188 304.309C308.148 304.369 303.869 305.919 287.879 305.919L289.429 318.339C305.689 318.339 332.259 314.749 342.539 322.619C356.929 333.619 340.609 355.229 340.609 366.429C340.609 395.859 352.378 398.409 346.818 408.309C340.578 407.619 342.658 408.189 339.568 401.589C317.778 355.399 337.989 363.899 340.609 332.279C323.819 321.049 307.909 327.609 290.969 327.609L287.818 374.129C287.138 383.219 285.589 405.129 278.549 409.849C276.139 408.249 273.879 407.799 273.879 403.639C273.879 403.399 281.639 361.739 281.639 352.429C281.639 309.599 273.879 310.079 273.879 270.189V270.219ZM168.369 419.159C168.369 459.669 166.709 471.229 177.259 512.569C181.929 530.819 187.569 547.049 195.239 562.949C203.739 580.539 208.759 590.029 219.519 605.359C232.659 624.059 250.669 643.109 268.059 657.669L319.859 691.199C335.789 699.699 362.309 708.409 381.359 713.459C389.229 715.539 401.479 718.539 410.359 718.629L449.209 721.689C454.199 721.689 456.399 720.119 463.119 720.089C481.579 720.059 515.849 712.889 533.589 706.769L579.628 686.089C592.558 679.519 608.429 668.699 619.489 659.249C623.409 655.889 624.859 655.289 628.789 651.459L634.519 646.319C634.759 646.079 635.059 645.749 635.299 645.519L641.658 639.479C643.918 637.399 643.439 637.669 645.339 635.409L693.789 565.979C716.439 524.759 720.719 477.169 720.719 431.519C720.719 420.409 715.069 386.309 712.339 374.749C704.729 342.589 688.739 312.839 670.749 285.969L656.638 267.519C633.598 241.129 627.089 235.209 596.299 213.039L563.969 194.189C511.979 167.239 449.828 163.879 393.688 172.769C390.268 173.299 385.639 174.729 381.059 175.649C376.329 176.569 372.349 177.579 367.269 178.919C355.679 182.009 343.279 187.779 331.779 192.979C307.019 204.209 285.029 218.329 264.279 235.749L243.149 256.489C237.859 262.639 232.238 267.899 227.068 274.529C224.248 278.129 223.149 280.859 219.969 284.489C216.109 288.919 216.219 289.929 213.099 294.679C191.499 327.729 182.699 352.189 174.049 390.649C172.679 396.659 168.399 414.789 168.399 419.099L168.369 419.159Z" fill="#E62129"/>
<path fill-rule="evenodd" clip-rule="evenodd" d="M484.881 366.341C480.451 374.721 478.401 386.731 474.031 395.831C480.391 403.141 484.071 406.351 499.171 403.941C508.561 402.421 525.801 403.791 536.151 403.641C543.901 403.521 543.781 402.101 551.541 401.981C566.881 401.741 593.841 403.291 605.901 400.491C610.421 381.051 601.031 380.641 599.691 364.801C580.551 364.801 561.411 364.801 542.301 364.801C522.861 364.801 505.181 366.341 484.911 366.341H484.881Z" fill="#E62129"/>
<path fill-rule="evenodd" clip-rule="evenodd" d="M485.062 329.281C484.612 344.171 482.262 357.041 489.542 357.041L596.602 355.491V329.131C592.682 327.261 588.372 326.841 583.252 325.421C541.082 313.531 558.792 308.181 513.142 321.611C505.592 323.841 493.592 328.181 485.062 329.311V329.281Z" fill="#E62129"/>
<path fill-rule="evenodd" clip-rule="evenodd" d="M773.47 358.58C769.43 359.51 769.19 360.25 765.72 358.91C767.8 354.54 767.08 355.23 771.93 353.95C772.64 356.89 772.31 356.5 773.47 358.61V358.58ZM779.68 349.28C784.8 353.03 781.441 350.98 784.351 357.04C779.151 355.52 779.98 355.82 779.68 349.28ZM779.68 349.28L775.23 345.95C767.71 357.28 768.87 344.94 759.53 355.49C755.43 360.13 756.35 360.99 757.99 367.89L770.92 368.24C783.96 367.44 767.26 389.14 780.75 384.74C785.12 383.31 784.351 377.78 784.351 372.55L785.9 384.98C789.25 387.21 790.47 388.51 795.2 389.64C797.58 386.08 798.17 386.52 798.29 380.34C803.02 383.82 806.05 392.41 812.94 393.89C818.05 395.02 819.09 392.14 818.08 387.21C816.78 380.94 815.29 382.99 813.83 376.92C817.49 378.35 828.58 391.72 832.44 377.25C827.89 376.18 825.34 374.72 821.8 372.35C816.87 369.05 816.78 367.77 815.38 361.74C827.09 344.08 813.51 355.52 801.41 355.52L803.97 353.44C805.81 351.15 805.19 352.61 806.05 349.34H792.08C786.58 341.11 785.6 334.6 780.96 333.83C768.54 331.78 779.3 347.94 779.65 349.34L779.68 349.28Z" fill="#E62129"/>
<path fill-rule="evenodd" clip-rule="evenodd" d="M588.841 101.048C585.391 105.744 586.171 104.139 577.991 104.139L578.051 102.92L588.841 101.018V101.048ZM577.991 70.0185H582.661L577.991 87.0795C567.501 86.7225 580.311 85.5335 565.571 85.5335C565.661 89.9625 565.271 91.7755 568.331 93.6475C574.101 97.1845 572.441 87.8515 573.331 97.9575C565.991 97.9575 554.511 96.9765 548.511 102.623C550.351 109.489 551.571 108.836 559.361 108.836V113.501H567.121C566.821 113.739 566.311 113.68 566.191 114.156C566.081 114.661 565.451 114.69 565.301 114.868C564.981 115.195 564.001 115.048 563.101 117.336C561.861 120.487 563.041 120.783 564.031 122.834C557.691 121.348 552.311 121.704 546.961 122.834C547.231 128.87 548.031 132.2 554.041 128.45C556.771 126.76 555.501 127.17 557.811 125.95C556.181 136.09 555.581 124.53 554.721 135.26C563.041 139.92 567.981 134.251 574.901 130.591C576.001 135.141 574.701 132.82 577.991 135.26C578.261 135.02 578.711 134.28 578.831 134.51C578.981 134.87 579.841 133.53 580.311 132.91C581.741 131.04 581.771 130.74 582.661 129.05C581.321 126.82 582.541 128.01 579.931 125.6L577.311 123.55C577.131 123.398 576.721 123.101 576.451 122.863C580.101 122.001 581.031 121.407 585.751 121.318L584.001 115.165C575.411 111.48 582.041 120.575 576.421 108.894C584.181 108.894 595.951 106.815 601.241 104.229C595.921 96.2925 591.961 98.0165 579.511 98.0165V96.4715C589.471 96.4715 608.991 98.8485 608.991 87.1685C602.781 83.6905 602.571 86.9605 598.181 86.3365L592.141 84.6415C591.961 84.6125 591.461 84.4335 591.311 84.4045C591.161 84.3745 590.721 84.2255 590.481 84.0775C595.111 62.2615 577.961 60.3895 577.961 70.1085L577.991 70.0185Z" fill="#E62129"/>
<path fill-rule="evenodd" clip-rule="evenodd" d="M736.229 253.099C738.759 250.189 730.079 252.119 739.319 250.009V253.099H736.229ZM722.409 237.739C723.569 235.889 722.799 236.879 724.429 235.089L726.929 232.919C732.669 233.579 732.249 234.469 739.349 234.469C735.279 240.029 735.339 235.269 733.139 240.679C729.189 238.569 728.559 237.649 722.439 237.739H722.409ZM722.409 237.739C717.889 253.549 723.449 253.729 729.899 259.309C728.269 267.669 727.079 265.019 731.569 271.739C743.309 263.889 727.759 265.619 745.529 256.219C744.909 248.729 742.469 249.059 740.869 242.249C744.289 240.439 750.739 236.849 754.839 236.789C756.499 236.759 760.249 238.089 763.989 237.589C769.729 236.789 765.389 236.219 771.869 234.499C772.049 226.029 780.989 218.059 746.519 229.439C737.989 232.269 744.699 230.069 734.629 229.829C736.109 227.809 741.309 223.319 744.379 222.729C747.079 222.189 755.189 223.859 757.899 225.159C759.239 223.139 765.359 216.899 763.519 213.309C760.839 208.049 753.079 213.009 749.519 213.809C740.629 215.859 740.479 210.809 735.459 210.129C726.839 208.969 733.409 218.659 734.659 220.529C720.389 228.079 722.079 225.019 706.719 220.529C706.719 229.359 707.039 231.379 716.019 231.379V232.919C709.129 232.919 708.799 232.569 708.259 239.129C716.019 242.849 714.739 239.099 722.379 237.739H722.409Z" fill="#E62129"/>
<path fill-rule="evenodd" clip-rule="evenodd" d="M488.258 97.6587C486.238 102.326 489.067 98.8477 485.467 101.999C485.557 97.0347 483.508 99.3827 488.258 97.6587ZM483.328 93.2897C482.258 87.0787 482.618 86.9887 477.118 85.5327C475.368 88.6537 472.357 109.251 480.207 115.017C481.517 114.571 498.607 103.039 500.387 96.4107C507.637 98.3427 507.638 106.427 514.358 96.4107C513.138 94.5977 513.498 94.8357 511.568 92.9927L508.147 90.1987C514.027 88.8317 517.628 85.4437 522.118 82.4417L512.808 107.26C503.958 106.516 510.787 104.882 501.967 104.168C502.707 113.234 505.767 112.253 509.717 118.138C514.597 115.79 517.118 116.8 519.588 110.945C521.788 105.744 521.197 100.78 527.877 85.0867C533.827 71.1477 529.188 74.0897 514.358 76.2297C515.068 67.7597 521.047 60.7747 516.917 53.6117C515.517 51.2047 511.328 47.7267 508.618 48.9757C502.588 51.7687 512.868 51.3237 505.978 69.3937C501.338 81.5497 494.508 87.4347 483.358 93.3197L483.328 93.2897Z" fill="#E62129"/>
<path fill-rule="evenodd" clip-rule="evenodd" d="M308.031 746.48C307.021 758.49 301.291 773.051 300.281 785.271L315.731 790.141C322.301 780.121 327.801 764.16 332.881 760.45C332.141 769.54 325.691 783.901 323.581 793.021C329.911 796.381 334.311 795.88 340.641 799.24C342.571 795.61 343.311 795.191 343.731 789.931L337.581 788.181C339.871 779.951 338.651 784.201 342.181 782.181C345.251 780.451 342.481 785.441 345.901 779.681C347.591 776.831 346.551 777.811 346.851 774.421C342.301 773.321 344.621 774.63 342.181 771.33C347.301 765.92 351.221 772.69 351.491 760.48C346.371 759.29 341.771 757.391 337.191 756.141C329.881 754.151 328.811 751.711 322.001 751.151C321.411 753.761 323.011 752.63 318.911 757.36C319.271 753.17 319.631 753.14 320.461 749.6C313.981 748.08 316.211 746.69 308.031 746.51V746.48Z" fill="#E62129"/>
<path fill-rule="evenodd" clip-rule="evenodd" d="M694.353 178.62C693.193 181.41 693.912 185.37 695.542 189.11C691.442 188.52 689.302 187.36 685.052 186.38C688.112 182.9 687.673 183.47 686.603 178.62H694.353ZM700.573 175.531C698.693 179.631 702.082 177.02 697.472 178.62H694.382L700.603 175.531H700.573ZM700.573 175.531C698.463 165.781 699.883 170.571 700.573 161.561C689.983 162.451 697.892 166.7 686.662 166.35C677.412 166.02 682.113 163.67 671.083 166.23C671.973 174.28 669.272 169.021 674.232 170.921L679.373 171.931C679.613 171.991 680.092 172.231 680.412 172.411C668.352 171.961 664.993 174.161 661.812 180.171C664.193 183.581 662.082 182.1 666.482 183.26C663.062 188.34 663.382 186.021 664.932 192.561C677.202 191.551 668.322 187.631 680.442 184.801C681.042 191.971 681.693 189.02 685.113 194.11H695.962C683.032 213.4 680.442 198.421 680.442 214.291C688.942 213.571 691.293 208.911 696.323 203.791C703.783 196.221 703.832 197.23 717.662 197.23C717.002 189.29 716.472 195.121 714.562 187.921C719.912 186.501 722.742 182.63 725.412 178.62C719.772 175.92 716.412 178.89 711.712 182.01C705.232 186.32 706.032 189.5 697.472 189.5V187.95C705.472 187.95 698.492 189.94 707.432 180.85C710.522 177.7 708.683 179.84 709.873 177.11C707.163 173.06 708.293 172.97 702.113 172.44L700.573 175.531Z" fill="#E62129"/>
<path fill-rule="evenodd" clip-rule="evenodd" d="M87.7109 568.06C91.4209 575.05 88.421 575.64 97.011 575.82C90.861 581.17 91.961 577.28 92.791 581.58C93.621 585.95 97.011 585.12 101.681 585.12L96.301 589.07C96.121 589.22 95.7309 589.52 95.4709 589.79L100.191 597.52C104.891 595.14 111.961 592.88 117.671 590.29C123.461 587.68 129.681 585 135.801 583.58C134.851 572.28 132.651 570.11 126.491 569.61C132.801 560.19 123.941 554.09 123.401 554.09L96.271 564.17C93.391 565.42 94.811 565 92.111 566.25C90.261 567.11 89.5509 567.2 87.7109 568.06Z" fill="#E62129"/>
<path fill-rule="evenodd" clip-rule="evenodd" d="M418.18 780.599C421.01 781.999 420.11 781.789 424.39 782.149V797.659C424.39 807.349 417.56 813.179 430.61 813.179C437 813.179 435.39 807.349 435.27 800.779C435.12 792.039 436.28 790.109 436.82 783.689C442.17 783.249 443.03 783.219 443.03 777.479H444.57C444.57 782.289 447.67 790.229 448.74 796.559C450.49 806.809 445.41 814.719 455.45 814.719C463.12 814.719 458.75 802.829 461.81 794.719C463.69 789.779 467.37 780.959 467.85 774.389C457.09 774.389 458.39 773.759 457 779.049C446.45 769.719 455.57 776.589 440 774.509L419.76 772.869C419.64 778.279 419.99 777.029 418.21 780.629L418.18 780.599Z" fill="#E62129"/>
<path fill-rule="evenodd" clip-rule="evenodd" d="M643.143 125.87C637.853 123.22 631.433 121.942 626.083 119.653C615.003 114.898 615.213 114.244 616.783 125.87C622.903 126.16 632.353 128.42 635.393 132.08H613.663C607.693 143.37 607.303 140.43 612.113 147.59C617.613 144.68 616.603 147.86 618.333 141.38L630.753 144.47C626.083 144.47 616.783 145.3 616.783 149.14C616.783 154.72 616.013 150.39 618.893 153.24C621.863 156.18 639.463 165.66 637.793 156.33C636.843 150.95 634.113 150.98 633.873 150.56C633.423 149.82 629.923 152.26 633.573 148.78C636.693 145.78 637.973 149.32 644.723 146.08C642.673 138.7 643.563 143.04 633.253 137.37C633.043 137.25 632.623 136.95 632.303 136.74C662.673 129.67 636.223 135.2 661.783 135.2C661.013 125.87 659.253 128.42 652.483 128.99L655.863 126.19C661.663 121.318 661.663 120.664 663.323 113.471L658.873 110.143C653.103 114.095 655.663 114.274 651.143 118.316C647.073 121.942 646.713 120.575 643.173 125.89L643.143 125.87Z" fill="#E62129"/>
<path fill-rule="evenodd" clip-rule="evenodd" d="M374.729 73.1085C377.139 69.8095 374.849 71.0875 379.399 70.0175V73.1085H374.729ZM374.729 73.1085L371.789 77.5964L379.399 79.3204C372.649 79.3204 376.099 78.4584 373.179 82.4114L374.789 85.7104C378.649 95.1924 375.059 91.6254 379.399 93.2894L376.299 97.9564H382.519C380.139 101.374 382.249 99.8884 377.849 101.047C378.239 104.197 377.139 109.517 385.609 105.713C383.409 111.39 384.979 106.337 380.939 111.925H385.609L382.429 118.077C391.789 117.364 385.159 115.67 393.359 113.47C394.579 115.937 394.969 110.617 393.359 118.137C397.909 117.067 400.559 115.432 404.209 113.47C400.709 108.715 405.219 110.974 397.999 110.379C400.139 107.199 401.449 106.753 401.089 101.076C396.569 104.108 399.009 104.227 393.329 105.743C393.069 93.8845 382.749 65.2034 382.489 52.9874C387.149 51.7394 385.899 53.0175 387.149 48.3215C373.539 48.0245 388.339 45.5275 374.729 45.2305V49.8964L379.399 51.4424C371.519 51.4424 373.329 53.0764 366.969 54.5334C370.629 56.8514 370.979 55.6035 374.369 57.2675C370.509 58.7835 372.439 58.2184 368.519 59.1694C369.049 65.7384 369.379 65.3815 376.269 65.3815V66.9265C368.839 66.9265 371.399 68.0564 366.969 74.6844C371.159 74.3274 371.189 73.9704 374.729 73.1384V73.1085Z" fill="#E62129"/>
<path fill-rule="evenodd" clip-rule="evenodd" d="M133.121 308.33C133.841 308.5 130.391 312.28 131.221 308.95C131.811 306.6 128.071 307.08 133.121 308.33ZM84.6214 279.5L87.7114 285.71C86.9414 286.84 86.8515 286.42 85.9315 288.62C81.9115 298.4 84.2614 298.1 86.1314 299.68C87.4414 294.03 86.9915 294.71 90.8015 291.92L90.7714 302.77C100.491 302.32 93.4414 302.86 100.101 298.1L103.191 304.31C104.591 299.05 104.001 300.84 107.861 297.66L110.951 304.31C111.461 298.34 112.501 299.32 112.501 291.89H115.591C115.591 299.29 113.921 306.9 115.591 310.5C122.331 305.56 115.051 307.67 121.801 302.74C121.681 307.46 121.091 308.39 120.251 312.04C125.661 310.08 122.721 310.11 126.821 304.64C128.931 309.78 124.121 311.59 131.101 316.68C136.781 312.87 134.071 312.43 138.861 308.92L139.601 313.05C139.601 313.05 140.321 316.35 140.401 316.59C141.921 320.96 140.791 317.81 141.981 319.71C145.491 318.55 143.821 322.68 146.171 316.23C147.001 313.97 146.621 311.33 146.621 308.92C146.411 308.8 145.991 308.53 145.961 308.71L143.581 305.77C143.471 305.5 143.381 304.97 143.231 304.67C142.131 302.47 145.611 302.71 136.011 299.35L118.711 293.41C118.561 287.31 119.121 289.78 117.161 285.65C113.301 287.37 112.821 287.82 109.701 289.99L101.831 286.99C99.2414 286.15 96.4514 285.32 93.8614 284.07V273.22C98.1114 271.68 97.0414 273.31 98.5314 267.01C85.8414 268.08 96.7115 273.02 84.5615 279.44L84.6214 279.5Z" fill="#E62129"/>
<path fill-rule="evenodd" clip-rule="evenodd" d="M106.307 361.709C99.0866 361.079 103.607 363.399 100.097 358.609C107.287 359.209 102.807 356.949 106.307 361.709ZM65.9766 357.039L70.6466 360.129C69.3666 365.599 69.0966 365.239 69.0966 372.549H72.1865C72.5465 368.359 72.9066 368.329 73.7366 364.799L74.7466 366.909C79.0266 380.189 83.7865 378.199 84.5865 367.919C90.6165 372.349 85.7466 371.509 89.2466 378.769C95.1966 374.429 91.4766 375.969 90.7966 367.919L95.5765 377.189L107.887 377.369C108.717 373.679 109.107 373.649 109.427 369.459C114.247 373.029 112.347 369.699 110.977 377.219C113.627 377.519 113.597 376.539 117.187 380.309V361.709C120.877 364.169 118.797 363.579 123.397 364.799L121.947 353.919C115.017 354.509 115.617 355.259 114.097 361.679C106.547 359.649 111.277 360.959 108.717 356.149C103.577 346.459 97.3966 351.329 95.4666 358.579H75.2766V349.279H69.0665C67.5265 355.049 67.4966 351.269 65.9766 357.039Z" fill="#E62129"/>
<path fill-rule="evenodd" clip-rule="evenodd" d="M233.547 744.929C233.547 754.119 241.897 757.359 245.977 757.359C255.717 757.359 256.347 750.489 260.567 744.009C263.807 739.019 269.307 731.919 270.787 726.329L260.687 720.919C255.337 717.769 257.207 716.129 249.097 715.449L241.307 729.389C238.627 734.059 233.577 738.279 233.577 744.929H233.547Z" fill="#E62129"/>
<path fill-rule="evenodd" clip-rule="evenodd" d="M751.752 588.21L757.902 589.97C752.672 592.76 758.142 590.38 748.662 589.79C748.212 595.05 747.472 595.46 745.562 599.09C748.392 600.58 750.472 601.59 753.982 603.1C758.882 605.21 758.642 605.36 763.522 607.53C770.262 610.53 774.932 613.95 782.812 614.64L788.722 600.49C789.222 599.63 789.432 598.79 790.292 597.31C791.162 595.76 790.953 596.21 792.113 594.48L754.873 577.42C753.533 583.16 752.312 581.76 751.782 588.27L751.752 588.21Z" fill="#E62129"/>
<path fill-rule="evenodd" clip-rule="evenodd" d="M267.884 164.44C267.584 160.1 268.774 160.82 272.844 160.34L267.884 164.44ZM235.104 116.562C230.044 117.9 228.684 119.267 227.344 124.32C232.154 123.9 230.284 124.35 233.554 122.774C232.014 128.54 231.984 124.77 230.464 130.53C234.534 129.58 235.014 129.13 238.224 127.44C237.064 131.78 235.724 130.83 234.684 133C234.594 133.18 234.414 133.59 234.354 133.77C234.354 133.77 234.294 138.23 233.554 141.41C239.594 139.8 239.354 137.04 244.404 133.65C243.954 138.91 243.214 139.33 241.314 142.96C254.154 141.89 244.584 131.81 255.284 136.74C250.554 143.82 248.124 139.54 245.984 147.59C254.364 146.88 251.214 143.55 255.284 149.14C245.894 149.35 250.734 148.13 249.074 152.23C253.384 154.31 252.074 153.77 258.374 153.77C257.244 158.59 256.384 158.26 255.284 163.08C260.634 161.65 260.064 162.24 261.494 156.86C267.264 161.09 263.044 160.82 263.044 170.83C273.884 169.94 268.594 162.6 281.644 161.53C280.904 152.67 279.264 159.51 278.554 150.68C273.324 152.08 274.754 152.32 270.794 156.89C269.134 150.68 267.234 151.6 261.914 145.6L258.374 141.38C259.684 136.27 262.594 135.52 258.734 132.11C254.544 128.42 252.754 135.76 245.384 124.88C241.754 119.534 244.164 121.258 239.734 119.653C246.964 108.865 248.264 115.195 250.584 108.805C243.154 104.644 243.154 108.448 241.554 109.073L236.554 110.529C231.294 112.164 232.694 110.856 234.064 114.333C234.154 114.571 234.474 115.195 234.564 115.403C234.654 115.641 234.954 116.146 235.074 116.562H235.104Z" fill="#E62129"/>
<path fill-rule="evenodd" clip-rule="evenodd" d="M115.653 620.79C120.023 620.79 148.193 611.99 145.783 600.04C144.573 593.98 141.533 592.11 138.923 588.21C123.313 588.21 133.843 586.55 119.543 593.65C112.793 597.01 111.903 596.39 108.663 599.83C100.853 608.22 108.873 620.79 115.653 620.79Z" fill="#E62129"/>
<path fill-rule="evenodd" clip-rule="evenodd" d="M627.632 727.841C628.732 732.601 630.042 733.821 632.302 737.151C626.442 735.571 627.782 734.151 622.992 730.941C622.732 731.171 622.312 731.201 622.192 731.681L619.632 733.791C616.072 735.961 620.262 734.231 615.242 735.601C621.662 747.731 629.002 757.601 635.422 769.721C649.652 766.391 642.582 762.471 641.632 758.871C646.982 760.301 645.732 761.961 647.842 761.961C663.412 761.961 649.472 746.211 645.972 740.571C632.032 718.011 638.062 724.781 627.662 727.841H627.632Z" fill="#E62129"/>
<path fill-rule="evenodd" clip-rule="evenodd" d="M784.32 467.219C784.32 481.249 798.94 480.089 811.96 481.599C825.19 483.179 825.9 473.159 826.2 459.459C817.61 457.469 812.02 458.419 804.47 454.789C804.47 462.579 803.08 461.749 802.93 468.759L801.38 467.219C801.44 455.149 807.68 454.559 790.71 454.939C787.98 458.419 784.32 460.619 784.32 467.219Z" fill="#E62129"/>
<path fill-rule="evenodd" clip-rule="evenodd" d="M492.631 814.75C509.691 814.75 504.791 795.07 503.361 783.84C501.311 767.67 483.421 771.24 480.391 779.35C478.961 783.13 480.091 804.94 481.881 808.45C483.301 811.21 488.561 814.75 492.631 814.75Z" fill="#E62129"/>
<path fill-rule="evenodd" clip-rule="evenodd" d="M798.292 558.73C807.032 558.73 818.412 540.36 798.142 534.06L779.682 529.25C768.512 529.25 764.652 542.38 770.382 549.37C773.622 553.32 777.752 553.23 783.222 555.16C788.332 556.98 791.872 558.73 798.292 558.73Z" fill="#E62129"/>
<path fill-rule="evenodd" clip-rule="evenodd" d="M180.8 177.081V172.411H183.89C182.82 176.841 184.12 174.761 180.8 177.081ZM180.8 177.081V180.171C188.91 178.261 186.44 175.081 190.1 180.171C186.77 182.011 185.94 179.161 183.89 184.831C189.06 187.211 188.02 186.321 193.19 183.291C192.74 188.551 192 188.961 190.1 192.591C203.71 191.821 189 187.691 200.95 186.381C199.34 192.351 198.75 189.201 196.73 195.241C200.71 194.731 200.74 194.311 204.04 192.561L202.28 198.711L207.07 197.051C206.42 205.731 202.94 202.781 210.25 203.441C211.68 197.381 213.61 194.171 219.55 192.591C214.89 201.421 213.58 198.831 211.8 206.561C215.81 205.491 217.41 203.851 221.1 201.891C221.46 206.171 222.58 209.531 223.89 212.741C226.03 210.931 232.78 204.951 226.06 200.261L222.64 198.771C223.15 192.741 224.04 194.731 224.19 187.921C212.21 187.921 217.18 192.081 208.67 186.381C209.3 185.461 212.84 181.061 212.92 180.881C215.27 174.611 212.92 175.981 208.67 175.531C207.84 179.071 207.49 179.101 207.13 183.291C205.67 182.511 205.55 182.631 204.16 181.621C198.12 177.281 191.79 169.471 182.31 163.141C185.64 158.171 184.87 162.041 185.4 155.381C181.54 155.711 174.2 157.161 171.43 158.471C172.68 163.141 171.4 161.891 176.1 163.141L171.43 170.891L177.59 169.141C177.2 174.611 176.46 174.991 174.55 178.651C179.37 178.231 177.5 178.681 180.77 177.111L180.8 177.081Z" fill="#E62129"/>
<path fill-rule="evenodd" clip-rule="evenodd" d="M62.8906 448.581C63.0106 453.311 63.6006 454.231 64.4406 457.881C69.8206 457.911 68.4506 457.201 72.0206 459.251C68.4506 460.321 68.7506 460.621 64.4406 460.981C64.4406 475.151 62.6806 470.871 83.1306 470.341C90.2306 470.161 98.7307 468.581 104.801 467.191C104.801 453.041 101.921 458.631 92.3706 459.431C96.1506 456.281 97.6906 455.241 103.221 454.761C103.221 441.831 103.251 444.661 97.0106 445.191C92.8506 445.551 88.9006 445.161 84.8806 445.731C78.6406 446.591 68.6306 448.111 62.8906 448.551V448.581Z" fill="#E62129"/>
<path fill-rule="evenodd" clip-rule="evenodd" d="M166.829 677.38C169.119 672.92 170.779 670.33 176.579 669.38L166.829 677.38ZM152.859 678.21C152.859 684.51 159.429 690.63 168.369 690.63C172.649 690.63 177.409 683.71 182.939 678.83C185.939 676.19 183.349 678.86 186.059 675.74L190.929 669.74C191.079 669.56 191.409 669.17 191.639 668.91C189.799 660.94 190.959 662.22 187.869 658.71C172.499 641.3 152.859 676.66 152.859 678.21Z" fill="#E62129"/>
<path fill-rule="evenodd" clip-rule="evenodd" d="M95.4694 535.46C94.2494 536.5 96.5894 536.35 91.8094 538.01C89.3994 538.85 88.7194 538.55 86.1294 538.55L86.1893 537.24L95.4393 535.46H95.4694ZM76.8594 527.7L78.5793 538.52L84.6494 538.55L79.9794 543.21C80.8094 546.75 81.1694 546.78 81.5294 550.97C86.6694 550.85 87.5594 550.26 91.8394 548.89C92.1094 548.8 96.4793 547.44 96.5693 547.41C99.7493 545.77 98.9094 546.63 100.159 543.24C107.679 546.87 126.969 545.21 114.129 518.43C106.819 519.02 102.809 521.52 95.6993 523.18C89.4293 524.67 83.5794 527.16 76.8894 527.73L76.8594 527.7Z" fill="#E62129"/>
<path fill-rule="evenodd" clip-rule="evenodd" d="M345.57 798.91L354.49 802.53C356.63 800.81 354.64 802.68 357.07 800.16L359.24 797.66C359.51 801.29 358.08 806.4 370.09 803.87C370.09 783.1 376.16 778.28 376.16 774.36C376.16 770.91 374.25 769.57 373.21 765.09C364.39 764.76 364.39 761.99 354.61 761.99C352.76 769.84 348.25 793.26 345.6 798.91H345.57Z" fill="#E62129"/>
<path fill-rule="evenodd" clip-rule="evenodd" d="M72.1865 476.52H65.9766C66.0966 481.25 66.6966 482.17 67.5266 485.82H76.8265L69.0665 490.1V499.76C77.5665 499.76 85.5366 497.98 93.7366 496.52C111.277 493.37 108.867 499.35 107.857 484.25C103.277 485.32 103.127 485.79 97.0066 485.79C98.1666 484.78 97.6066 484.69 100.547 483.15C103.367 481.66 103.217 481.87 106.307 481.16C106.307 467.22 106.137 470.66 94.8666 472.8L72.1566 476.49L72.1865 476.52Z" fill="#E62129"/>
<path fill-rule="evenodd" clip-rule="evenodd" d="M255.281 763.541C264.611 768.471 265.771 767.641 267.701 758.871C268.741 760.631 268.741 758.491 268.711 761.641L267.701 769.721C271.151 771.561 272.371 772.311 275.461 774.391L294.061 738.691C283.451 733.081 286.011 735.251 281.641 740.241C282.271 732.721 283.071 737.621 281.641 730.941L272.341 729.391C266.391 740.591 261.101 752.511 255.281 763.511V763.541Z" fill="#E62129"/>
<path fill-rule="evenodd" clip-rule="evenodd" d="M143.549 659.57C146.289 655.5 144.329 656.36 149.769 654.91C146.879 659.22 149.109 657.91 143.549 659.57ZM159.219 647.33C159.429 651.49 159.779 651.37 160.619 654.94L154.489 648.96L159.219 647.33ZM159.219 647.33C161.299 644.3 159.429 645.25 163.709 644.06C161.539 647.21 163.349 646.08 159.219 647.33ZM134.219 654.94C134.219 660.88 136.269 662.34 139.449 665.22L146.649 672C152.469 668.91 151.069 669.09 155.679 665.52C159.929 662.25 161.569 663.41 162.159 656.48C168.579 659.46 171.699 652.59 174.579 647.18C172.379 642.6 173.449 641.92 169.769 638.03C160.699 628.4 154.669 635.74 146.229 642.13C142.959 644.59 134.249 650.27 134.249 654.97L134.219 654.94Z" fill="#E62129"/>
<path fill-rule="evenodd" clip-rule="evenodd" d="M792.91 495.129C801.26 495.129 801.2 496.669 809.17 496.669V498.219C800.7 498.219 800.19 496.669 792.91 496.669V495.129ZM779.68 493.579V501.339C785.3 505.109 783.61 505.999 792.26 507.429C799.81 508.679 802.45 510.639 809.17 510.639C819.57 510.639 821.65 502.379 819.3 491.199C817.01 486.859 779.68 473.899 779.68 493.579Z" fill="#E62129"/>
<path fill-rule="evenodd" clip-rule="evenodd" d="M115.648 628.541C117.728 631.641 118.468 632.851 120.308 636.301C124.378 635.351 124.858 634.911 128.068 633.211C126.408 638.471 126.078 636.961 123.398 640.971C125.248 644.421 125.988 645.631 128.068 648.731L161.478 627.831C155.118 615.411 155.468 621.981 148.248 623.911L154.728 616.421C151.788 612.051 151.968 611.161 148.248 608.391C137.518 615.231 126.548 622.811 115.678 628.571L115.648 628.541Z" fill="#E62129"/>
<path fill-rule="evenodd" clip-rule="evenodd" d="M762.59 560.301C762.59 564.081 766.37 561.701 771.9 566.521L759.47 566.491C758.64 570.051 758.28 570.081 757.93 574.271C758.23 574.511 758.67 574.481 758.82 574.931C758.97 575.371 759.53 575.431 759.74 575.551C760.04 575.701 761.35 576.411 761.76 576.591L793.98 588.211C795.56 584.681 796.3 583.781 796.71 578.911C792.76 577.721 793.89 577.361 788.96 577.361V575.821C805.93 575.821 804.5 567.171 794.99 563.571C790.71 561.941 789.55 561.291 784.89 559.711C777.87 557.331 771.51 555.371 765.66 552.551C764.62 554.511 762.56 557.691 762.56 560.301H762.59Z" fill="#E62129"/>
<path fill-rule="evenodd" clip-rule="evenodd" d="M759.497 623.91C765.797 625.36 764.167 624.32 765.717 628.57L759.497 623.91ZM759.497 623.91C753.857 622.6 754.537 623.05 751.747 619.24C756.977 618.68 755.366 619.72 757.626 615.82C759.146 613.21 759.237 611.66 759.497 608.39C756.467 607.68 736.227 593.59 736.227 623.91C742.087 627.83 759.347 641.62 767.317 638.06C776.617 633.89 782.146 617.25 764.136 613.06C761.726 616.66 759.977 618.08 759.467 623.91H759.497Z" fill="#E62129"/>
<path fill-rule="evenodd" clip-rule="evenodd" d="M574.869 771.3L571.779 763.54C576.299 766.84 574.699 763.33 574.869 771.3ZM574.869 771.3C579.599 773.56 582.749 771.92 587.299 769.75C586.729 763.06 583.939 760.06 581.089 755.78C564.649 755.78 570.498 755.57 560.898 761.99C560.898 773.35 562.659 773.26 565.329 780.87C570.619 795.94 566.579 786.1 573.299 796.14C585.779 796.14 584.528 794.9 591.898 789.93C591.898 781.7 590.859 780.54 590.359 774.42C584.319 774.92 584.859 776.02 579.509 777.51L577.958 783.72C576.808 778.7 575.319 776.91 574.869 771.3Z" fill="#E62129"/>
<path fill-rule="evenodd" clip-rule="evenodd" d="M663.323 737.181C666.623 739.581 665.352 737.301 666.422 741.841C663.092 739.531 664.363 741.611 663.323 737.181ZM654.023 724.751L650.932 721.661C654.742 722.671 653.043 720.981 654.023 724.751ZM663.323 737.181C659.133 734.381 661.102 735.841 657.972 731.651C654.852 727.461 655.392 729.931 653.992 724.751L658.992 729.061C661.782 727.311 664.842 725.291 667.962 723.181C661.102 710.191 651.552 709.121 644.392 716.701C633.042 728.711 660.172 751.121 660.202 751.121C677.172 750.731 682.673 736.341 671.053 727.841C667.043 728.911 665.432 730.551 661.752 732.511L663.293 737.181H663.323Z" fill="#E62129"/>
<path fill-rule="evenodd" clip-rule="evenodd" d="M197.859 723.209C204.279 732.809 206.269 727.79 211.829 726.3C208.499 731.26 209.269 727.4 208.729 734.06C214.409 735.57 211.969 735.689 216.489 738.719C221.899 734.739 236.109 709.57 236.669 703.03C231.769 701.54 233.699 701.929 227.489 696.699C227.279 696.519 226.829 696.099 226.659 695.979C226.479 695.829 226.089 695.51 225.819 695.27C220.299 698.98 216.369 703.919 211.469 708.849C205.199 715.149 202.939 715.629 197.889 723.209H197.859Z" fill="#E62129"/>
<path fill-rule="evenodd" clip-rule="evenodd" d="M551.598 789.9L554.688 794.57C549.968 793.17 552.228 797.51 551.598 789.9ZM548.508 789.9C542.418 790.05 544.878 789.49 540.748 791.45C542.888 800.66 542.978 803.87 553.178 803.87C572.108 803.87 568.808 777.51 548.508 777.51V775.96C551.128 775.96 551.748 776.14 554.278 775.49L559.388 772.84C558.288 768.09 556.978 766.87 554.718 763.54C546.848 763.54 533.528 763.21 535.638 774.75C538.288 789.1 545.388 783.6 548.508 789.93V789.9Z" fill="#E62129"/>
<path fill-rule="evenodd" clip-rule="evenodd" d="M386.861 800.48C384.981 796.68 384.721 798.55 388.401 794.84C388.341 800.9 389.261 797.01 386.861 800.48ZM377.821 782.15C377.821 785.09 379.311 786.37 380.971 788.3L385.581 792.99L376.331 791.21C375.711 798.11 373.091 801.67 378.651 806.13C383.021 809.67 386.411 808.51 394.911 808.51C405.101 793.26 396.721 789.46 391.821 782.15C396.481 783.36 395.151 783.57 401.121 783.69V772.84C392.741 767.23 394.551 768.18 382.521 768.18C379.631 772.52 377.851 774.72 377.851 782.15H377.821Z" fill="#E62129"/>
<path fill-rule="evenodd" clip-rule="evenodd" d="M739.32 282.591C739.32 290.701 750.05 298.811 756.41 301.221C765.09 304.491 763.46 299.881 768.87 307.371C772.19 311.981 775.14 312.871 776.56 318.281C785.63 318.071 791.39 312.931 779.65 307.431C774.16 304.851 775.05 307.201 773.44 301.221C778.23 301.221 783.93 302.021 788.42 300.691C789.7 300.301 792.52 298.701 793.39 297.631C794.16 296.671 794.63 295.661 794.69 294.741C794.9 292.071 792.91 291.031 791.54 290.701C786.04 289.451 785.15 290.311 780.96 291.651C776.47 293.051 772.55 294.271 767.23 294.981C765.3 287.791 761.17 280.981 753.59 279.791C752.94 287.701 753.08 286.211 757.93 293.441C745.47 290.521 749.52 284.071 740.87 279.471C740.84 279.501 739.32 282.351 739.32 282.561V282.591Z" fill="#E62129"/>
<path fill-rule="evenodd" clip-rule="evenodd" d="M709.927 699.94C709.097 695.6 711.408 698.78 712.038 700.17C713.788 704.07 710.137 701.1 709.927 699.94ZM689.688 689.09C689.688 696.52 691.888 696.1 696.968 698.98C699.998 700.71 699.498 698.06 702.108 709.27C709.188 710.01 703.418 710.81 714.528 710.81C715.748 709 719.348 702.7 720.598 701.36C724.218 697.47 726.538 699.43 728.468 692.21C722.588 691.73 725.737 694.29 719.167 684.45C715.127 685.91 717.088 686.09 712.958 689.12C707.908 685.43 711.678 687.75 708.088 683.14C699.228 671.76 689.688 683.2 689.688 689.12V689.09Z" fill="#E62129"/>
<path fill-rule="evenodd" clip-rule="evenodd" d="M598.178 744.96C599.838 752.16 602.988 756.44 606.138 763.3C607.388 766.04 609.049 768.33 610.569 771.27C612.169 774.36 613.568 777.51 615.208 780.6C620.788 779.17 627.569 775.34 632.269 772.84C628.459 756.5 619.839 772.58 619.839 763.54C619.839 756.5 625.728 762.29 621.388 752.31C616.748 750.88 618.029 752.75 615.529 752.04L612.079 749.54C614.279 746.57 615.319 747.25 616.839 743.33L613.539 737.18L598.148 744.93L598.178 744.96Z" fill="#E62129"/>
<path fill-rule="evenodd" clip-rule="evenodd" d="M75.6116 524.28C79.4816 522.5 79.9516 523.96 82.3616 522.41C88.3016 518.58 76.3816 516.73 89.2516 513.73C89.6716 518.55 89.2217 516.67 90.8017 519.94C94.3417 519.11 94.3717 518.75 98.5617 518.4C98.7117 512.3 98.1416 514.77 100.102 510.64C105.012 512.42 103.282 514.53 105.782 516.08C116.242 522.59 111.012 501.01 110.952 498.25C101.262 498.25 91.6916 502.17 82.4216 503.83C75.2816 505.11 66.7816 499.64 75.5816 524.28H75.6116Z" fill="#E62129"/>
<path fill-rule="evenodd" clip-rule="evenodd" d="M722.258 640.969C727.488 642.369 733.468 647.389 737.778 650.269L753.288 661.119C757.268 658.209 761.668 650.299 764.138 645.609L757.928 640.939C754.508 643.319 755.998 641.209 754.838 645.609C749.748 645.159 751.598 645.249 747.438 643.699C747.968 641.859 748.358 641.619 748.678 640.909C749.038 640.139 749.038 641.089 750.198 637.429L744.168 632.969C740.068 636.449 738.188 640.199 736.828 634.639C735.868 630.739 741.278 628.039 731.568 625.449C726.658 628.749 722.798 634.639 722.258 640.969Z" fill="#E62129"/>
<path fill-rule="evenodd" clip-rule="evenodd" d="M660.203 706.12C660.203 709.54 661.693 710.55 663.983 713.22L685.053 735.6C693.553 731.95 691.833 728.2 699.023 726.3C697.333 721.16 696.943 722.41 694.353 718.54C688.593 720.09 692.363 720.12 686.603 721.63L683.803 718.21C685.883 711.23 685.653 719.31 686.603 710.75C678.243 705.17 684.103 709.21 677.293 709.21C671.913 709.21 676.643 702.4 677.293 699.91L672.303 695.6C671.293 696.16 660.233 705.38 660.233 706.12H660.203Z" fill="#E62129"/>
<path fill-rule="evenodd" clip-rule="evenodd" d="M788.988 434.609V437.699C792.728 439.489 791.008 439.249 796.738 439.249V440.789C790.438 440.789 791.747 440.289 787.438 442.339V451.639C795.137 451.639 799.807 449.679 807.438 448.339C816.958 446.679 816.598 448.519 827.768 448.519V437.669C804.228 437.669 803.908 429.619 788.988 428.369V434.579V434.609Z" fill="#E62129"/>
<path fill-rule="evenodd" clip-rule="evenodd" d="M366.968 560.299C366.968 569.669 376.538 575.819 385.578 575.819C388.338 575.819 394.877 566.869 394.877 557.209C391.997 554.839 384.687 546.359 380.907 546.359C374.697 546.359 380.467 545.739 376.627 548.299C372.437 551.059 366.938 554.949 366.938 560.329L366.968 560.299Z" fill="#E62129"/>
<path fill-rule="evenodd" clip-rule="evenodd" d="M512.807 811.63C516.797 809.85 516.197 810.2 522.117 810.08C520.187 790.38 519.287 795.22 526.777 791.48C523.337 784.32 527.707 783.42 519.027 785.27V779.05C523.837 778.64 521.967 779.08 525.237 777.51C523.277 773.38 523.807 775.84 523.687 769.75C521.287 769.75 510.137 771 508.327 771.56C504.847 772.69 505.117 770.47 506.777 783.54C507.847 791.95 509.627 805.6 512.837 811.63H512.807Z" fill="#E62129"/>
<path fill-rule="evenodd" clip-rule="evenodd" d="M722.259 640.969C716.619 642.099 716.499 643.88 713.169 648.9L711.949 650.81C708.589 655.53 708.109 653.989 706.719 659.569C712.419 664.239 712.509 662.959 717.569 659.569C720.419 662.869 724.939 665.58 728.799 668.49C731.239 670.33 732.639 671.34 735.009 673.16C738.309 675.65 737.899 675.59 742.379 676.63C744.229 673.19 744.969 671.97 747.049 668.88C744.199 664.98 729.099 653.239 723.779 651.819C724.999 647.239 724.399 649.289 726.869 645.609L722.199 640.939L722.259 640.969Z" fill="#E62129"/>
<path fill-rule="evenodd" clip-rule="evenodd" d="M773.648 523.091L812.168 532.721C814.788 527.081 814.728 521.401 816.928 516.851C813.298 514.921 812.879 514.181 807.619 513.761C806.289 519.381 805.009 519.881 790.349 515.511C785.719 514.151 781.259 513.281 776.589 512.221L773.678 523.121L773.648 523.091Z" fill="#E62129"/>
<path fill-rule="evenodd" clip-rule="evenodd" d="M169.952 699.939C181.812 707.869 178.362 708.639 185.462 709.239C186.562 704.689 185.252 707.009 188.552 704.569C186.182 700.589 186.802 702.909 185.462 698.359C186.982 697.259 204.072 678.599 204.072 678.179C204.072 674.969 199.522 670.419 197.862 670.419C192.542 670.419 197.262 668.789 192.242 674.139L187.102 679.839C181.182 686.799 173.722 692.769 169.922 699.909L169.952 699.939Z" fill="#E62129"/>
<path fill-rule="evenodd" clip-rule="evenodd" d="M159.066 237.589L143.546 225.159C133.236 240.559 134.696 240.589 138.886 246.889C145.036 243.619 144.856 242.399 149.736 239.129C149.586 246.149 148.186 245.289 148.186 253.099C153.266 251.739 152.766 250.989 156.336 247.279C173.006 229.949 171.486 243.409 176.126 223.619C170.686 225.079 171.336 226.409 166.976 229.979C163.706 232.649 161.356 234.139 159.066 237.589Z" fill="#E62129"/>
<path fill-rule="evenodd" clip-rule="evenodd" d="M308.032 746.479C305.092 742.469 302.062 742.85 297.192 740.27L281.672 777.51C287.412 778.85 286.012 780.069 292.522 780.599L307.322 747.31C307.472 747.13 307.802 746.749 308.032 746.479Z" fill="#E62129"/>
<path fill-rule="evenodd" clip-rule="evenodd" d="M62.9194 431.91L62.8594 442.37C112.699 442.37 101.889 440.94 101.649 429.95C81.6194 429.95 82.1794 429.2 62.9194 431.88V431.91Z" fill="#E62129"/>
<path fill-rule="evenodd" clip-rule="evenodd" d="M584.18 751.12C585.19 755.43 589.88 765.53 591.93 769.72C603.5 793.5 597.76 786.87 610.57 783.69C605.58 773.26 601.47 760.12 595.05 748C590.39 748.38 587.51 749.45 584.21 751.09L584.18 751.12Z" fill="#E62129"/>
<path fill-rule="evenodd" clip-rule="evenodd" d="M407.299 811.629H413.519L416.959 777.539C417.589 770.909 420.049 771.299 405.759 771.299C405.759 779.829 404.809 784.229 404.179 792.989C403.799 798.309 398.649 811.629 407.299 811.629Z" fill="#E62129"/>
<path fill-rule="evenodd" clip-rule="evenodd" d="M187.008 715.449L192.478 719.279C192.628 719.429 192.948 719.849 193.218 720.089C201.928 714.859 209.628 703.209 213.848 698.809L221.158 690.599L213.668 684.119L192.628 705.549C188.578 710.189 187.568 708.849 187.008 715.449Z" fill="#E62129"/>
<path fill-rule="evenodd" clip-rule="evenodd" d="M304.913 115.017C311.993 124.68 310.653 107.497 317.343 116.562L311.123 121.229C317.223 121.08 314.753 121.645 318.883 119.683C314.603 128.42 315.433 116.265 314.223 127.44C323.283 123.101 322.783 122.774 329.733 122.774C327.113 126.34 329.403 125.81 315.763 128.99L326.613 132.08V138.29L309.553 141.38C323.103 143.91 321.773 144.23 335.913 136.71C332.583 130.59 333.093 133.03 329.703 128.96C333.393 126.49 331.313 127.08 335.913 125.87C335.113 116.354 333.953 121.615 326.613 118.108C325.633 116.087 325.423 115.106 324.293 112.669C321.683 107.081 323.613 113.382 321.943 107.26C315.733 107.408 307.323 111.153 304.883 115.017H304.913Z" fill="#E62129"/>
<path fill-rule="evenodd" clip-rule="evenodd" d="M346.818 457.881C368.188 459.671 365.428 465.641 365.428 436.161C359.388 436.161 349.348 435.301 346.138 441.781C343.938 446.231 346.788 451.291 346.788 457.881H346.818Z" fill="#E62129"/>
<path fill-rule="evenodd" clip-rule="evenodd" d="M396.461 448.58V457.88H413.521C414.291 448.37 415.061 454.53 415.061 440.82C407.751 435.92 409.531 436.16 399.551 436.16C397.731 439.9 396.461 442.93 396.461 448.58Z" fill="#E62129"/>
<path fill-rule="evenodd" clip-rule="evenodd" d="M290.938 88.6545C295.727 90.9425 296.618 90.1995 303.368 90.1995L301.668 91.6265C301.318 91.9235 299.948 92.8745 299.088 93.7075C296.768 95.8765 297.158 95.6386 295.608 97.9866C317.538 97.9866 325.688 101.168 328.178 91.7756H311.118C309.878 86.3656 307.528 83.2746 304.908 79.3516C297.958 80.9866 294.388 83.5125 290.938 88.6545Z" fill="#E62129"/>
<path fill-rule="evenodd" clip-rule="evenodd" d="M554.718 487.369C554.718 492.389 553.828 490.989 553.828 493.579C553.828 495.239 554.628 497.739 554.718 501.339C562.388 501.959 559.058 503.769 567.148 501.339V479.609H554.718V487.369Z" fill="#E62129"/>
<path fill-rule="evenodd" clip-rule="evenodd" d="M374.732 440.819C374.732 461.149 373.272 457.879 388.702 457.879C386.942 449.919 387.982 445.279 386.832 436.479C378.442 435.949 374.732 434.849 374.732 440.819Z" fill="#E62129"/>
<path fill-rule="evenodd" clip-rule="evenodd" d="M574.867 501.339H585.747V479.609H574.867V501.339Z" fill="#E62129"/>
<path fill-rule="evenodd" clip-rule="evenodd" d="M761.051 333.771C762.981 329.721 764.14 316.971 764.14 310.501C764.14 299.651 754.421 313.411 753.111 316.651C750.651 322.771 755.491 330.821 761.051 333.771Z" fill="#E62129"/>
<path fill-rule="evenodd" clip-rule="evenodd" d="M595.047 501.339C611.787 500.949 611.907 479.999 595.047 479.609V501.339Z" fill="#E62129"/>
<path fill-rule="evenodd" clip-rule="evenodd" d="M534.539 487.369L537.629 499.789C554.749 503.889 541.639 493.519 546.939 479.609H538.759C536.859 482.909 534.539 483.859 534.539 487.369Z" fill="#E62129"/>
<path fill-rule="evenodd" clip-rule="evenodd" d="M512.731 662.61C525.511 661.86 520.751 652.62 520.571 644.06L514.211 642.66C510.231 645.63 509.221 645.61 508.981 652.08C508.831 656.87 510.111 658.86 512.731 662.61Z" fill="#E62129"/>
<path fill-rule="evenodd" clip-rule="evenodd" d="M700.542 161.56C706.032 165.25 719.532 174.19 720.722 160.02C714.652 157.1 706.242 157.04 698.992 155.35C699.412 160.16 698.962 158.29 700.542 161.56Z" fill="#E62129"/>
<path fill-rule="evenodd" clip-rule="evenodd" d="M146.678 305.859H149.768C151.278 300.179 151.398 302.619 154.428 298.099C149.078 290.459 141.298 290.049 144.418 298.579C145.748 302.259 146.438 295.549 146.678 305.859Z" fill="#E62129"/>
<path fill-rule="evenodd" clip-rule="evenodd" d="M115.652 321.37C121.002 319.95 120.432 320.54 121.862 315.16C113.542 314.27 120.792 315.46 114.102 312.07C112.732 314.89 111.162 312.07 113.922 318.31C114.132 318.82 114.342 317.81 115.652 321.4V321.37Z" fill="#E62129"/>
<path fill-rule="evenodd" clip-rule="evenodd" d="M376.274 97.9568L371.674 95.7869C374.164 94.3309 373.544 95.0739 374.734 91.7449C374.434 91.7749 365.604 89.6938 369.714 101.048C377.264 100.483 372.774 102.742 376.274 97.9568Z" fill="#E62129"/>
<path fill-rule="evenodd" clip-rule="evenodd" d="M208.727 220.53C212.597 222.13 218.747 222.01 219.577 214.32C211.287 218.3 211.437 213.04 208.727 220.53Z" fill="#E62129"/>
<path fill-rule="evenodd" clip-rule="evenodd" d="M371.79 77.6272L367.06 75.9922C363.49 83.7502 367.98 77.7762 365.43 83.9882H371.64C369.56 79.5002 369.56 82.1452 371.79 77.6272Z" fill="#E62129"/>
<path fill-rule="evenodd" clip-rule="evenodd" d="M759.5 623.91L765.72 628.57C764.17 624.32 765.8 625.39 759.5 623.91Z" fill="#E62129"/>
<path d="M444.511 0.5C567.261 0.5 678.391 50.254 758.821 130.68C839.251 211.11 889.001 322.24 889.001 444.98C889.001 567.73 839.251 678.86 758.821 759.29C678.391 839.72 567.261 889.47 444.511 889.47C321.771 889.47 210.641 839.72 130.211 759.29C49.7812 678.86 0.03125 567.73 0.03125 444.98C0.03125 322.24 49.7812 211.11 130.211 130.68C210.641 50.254 321.771 0.5 444.511 0.5ZM747.321 142.18C669.831 64.698 562.751 16.758 444.511 16.758C326.251 16.758 219.201 64.698 141.711 142.18C64.2312 219.67 16.2913 326.75 16.2913 444.98C16.2913 563.25 64.2312 670.3 141.711 747.79C219.201 825.27 326.281 873.21 444.511 873.21C562.781 873.21 669.831 825.27 747.321 747.79C824.801 670.3 872.741 563.22 872.741 444.98C872.741 326.72 824.801 219.67 747.321 142.18Z" fill="#E62129"/>
</svg>
