<?xml version="1.0" encoding="UTF-8"?><svg id="b" xmlns="http://www.w3.org/2000/svg" viewBox="0 0 98.6882 98.6882"><g id="c"><path d="M98.6882,49.3441c0,27.2525-22.0915,49.3441-49.3441,49.3441S0,76.5966,0,49.3441,22.0916,0,49.3441,0s49.3441,22.0915,49.3441,49.3441h0ZM96.3672,49.3426c0-25.9684-21.0518-47.0202-47.0202-47.0202S2.327,23.3742,2.327,49.3426s21.0515,47.02,47.02,47.02,47.0202-21.0518,47.0202-47.02Z" fill="#902622" fill-rule="evenodd" stroke-width="0"/><path d="M65.8063,8.6612c-.0782-.1564-.2333-.2616-.4623-.3172-.5587-.1349-1.1248-.2259-1.698-.2758-.303-.0255-.4935-.0669-.5689-.1236-.1692-.1295-.3384-.2591-.5062-.3897-.0071-.0057-.0797-.0712-.2177-.1965-.2089-.1919-.4238-.2146-.6443-.0666-.0015,0-.1095.1123-.3272.337-.1094.1151-.2389.209-.3866.2815-.1979.0953-.3473.0457-.4453-.1508-.2404-.4762-.3413-1.0097-.3014-1.5999.0012-.0127-.0031-.098-.0102-.2531-.0071-.1409.057-.2248.1908-.2489.0411-.0071.0825.0156.0995.0567l.3583.8107c.0867.1979.2333.269.4368.2163.6954-.1834,1.2501-.0839,1.6654.296.2089.1919.4836.3126.8234.3597.421.0584.6344.0881.6387.0895.6015.1367,1.1846.3243,1.7521.5647.5077.2163.7721.33.7923.3427.263.1636.4337.4167.5147.7566.0312.1338-.0683.2619-.2063.2676l-3.3208.1321c-.1009.0028-.1848.0782-.2035.1791-.091.5137-.3541.9031-.7906,1.1662-.2889.1752-.4167.4127-.3841.7126.0042.0442.0297.0839.0697.1083.1094.0695.3158.1862.6157.3526.2248.1236.4226.3201.5947.5888.0255.0397.0369.0867.0312.1295-.0241.1834-.1066.2574-.2489.2217-.0527-.0128-.131-.0581-.2333-.138-.2234-.1721-.4649-.2914-.7254-.3583-.1278-.0341-.2644.0014-.3611.0938-.4507.428-.9445.5207-1.4777.2775-.4864-.222-.758-.5888-.8135-1.0996-.0227-.2089-.0298-.3696-.0227-.4821.0156-.2376.1307-.3711.3469-.4011.1338-.0185.3243.0229.5732.1238.2177.0868.4394.1792.6656.2758.0725.0315.155-.0014.1876-.0737.1979-.4382.4666-.7625.8065-.9728.246-.1522.3713-.2305.3784-.2361.2461-.2135.1834-.3926-.1862-.5392-.0457-.017-.0825-.0468-.1041-.0839-.1465-.2489-.0595-.3852.2603-.411,1.4181-.1151,2.3524-.1976,2.8006-.2489.0368-.0042.0595-.0425.0439-.074h0ZM60.9923,11.618c-.1296-.0725-.188-.034-.1752.114.0286.3399.2548.4691.68.3866.0354-.007.0539-.0467.034-.0768-.0924-.1349-.2715-.2758-.5388-.4238Z" fill="#902622" fill-rule="evenodd" stroke-width="0"/><path d="M32.7753,7.1878c.1236-.108.2716-.1607.4408-.1593.1579.0014.2829-.061.3753-.1891.2447-.3385.5576-.5788.9375-.7197.2956-.1109.536-.0411.7211.2106.381.519.398,1.0511.051,1.597-.3172.5006-.6344,1.0015-.9499,1.5021-.0258.0411-.0371.0868-.0329.1307.0244.2973.091.6871.1993,1.1662.0666.2987.2188.5164.4536.6542.303.1749.3642.394.1862.6571-.0839.1238-.1293.1964-.1364.2191-.047.1409.027.2205.2206.2389.1675.0171.3498.1324.5445.347.0669.074.0853.182.0442.273-.1111.2489-.2619.468-.4524.6571-.2032.2035-.4337.3072-.6882.3143-.4709.0099-.7056-.28-.7056-.8716,0-.3371.0085-.5976.0244-.7838.0241-.2801-.074-.4507-.2945-.5134-.1948-.0555-.2931-.1094-.2959-.1621-.0057-.1009.0839-.2475.2704-.4365.0924-.0956.1448-.222.1491-.3544.0159-.5388-.2231-1.0196-.7166-1.4405-.1296-.1097-.2645-.1168-.4054-.0241-.337.2216-.4425.5601-.3158,1.0153.0128.0468-.0085.0924-.0456.0967l-.6157.074c-.1125.0142-.2276-.0613-.2846-.1863-.1179-.2531-.1505-.5051-.0952-.7568.0099-.0468.0998-.2744.2673-.6812.2633-.64.4368-1.0423.5179-1.2075.0896-.1806.2418-.3541.4578-.5191.0127-.0085.0697-.0581.1737-.1479h0ZM34.3111,6.8921c-.4096.4082-.5303.8918-.3625,1.4533.0754.2549.182.2676.3172.04.2202-.3742.3668-.7923.4365-1.2543.0754-.4949-.0541-.5746-.3912-.239Z" fill="#902622" fill-rule="evenodd" stroke-width="0"/><path d="M86.1143,49.3441c0,20.3079-16.4622,36.7701-36.7702,36.7701S12.574,69.652,12.574,49.3441,29.0362,12.5739,49.3441,12.5739s36.7702,16.4622,36.7702,36.7702h0ZM84.5782,49.3455c0-19.459-15.7751-35.2341-35.2341-35.2341S14.11,29.8865,14.11,49.3455s15.7751,35.2341,35.2341,35.2341,35.2341-15.7754,35.2341-35.2341Z" fill="#902622" fill-rule="evenodd" stroke-width="0"/><path d="M83.2884,49.3455c0,18.7449-15.1965,33.9412-33.9414,33.9412S15.4055,68.0904,15.4055,49.3455,30.602,15.404,49.347,15.404s33.9414,15.1965,33.9414,33.9415h0ZM82.728,49.3441c0-18.4363-14.9462-33.3825-33.3825-33.3825S15.9631,30.9078,15.9631,49.3441s14.9462,33.3824,33.3824,33.3824,33.3825-14.9462,33.3825-33.3824Z" fill="#902622" fill-rule="evenodd" stroke-width="0"/><path d="M85.1429,24.1307c-.1622.2106-.135.2705.0825.1781.1919-.0071.3784.0113.5589.0581.3116.0796.4836.1267.5148.1408.1721.0754.2716.222.3002.4408.0071.0513.0241.0956.0496.1282.2591.3299.6273.5275,1.1067.5944.0439.0057.0853-.0269.0881-.0726.0184-.3143.1236-.5374.3158-.6698.1321-.091.2234-.2503.273-.4794.017-.0782.0541-.0895.1122-.0354.2818.2617.4652.5944.5505.997.0527.2517-.0057.4765-.1777.6755-.1848.2134-.296.3568-.3314.4322-.0896.1809-.1721.3671-.2475.5562-.0796.2035-.1862.2191-.3186.0471-.1366-.1749-.3214-.296-.5533-.3615-.2616-.0725-.4776-.2117-.6486-.4195-.1734-.2089-.3597-.4068-.5587-.5902-.1822-.1664-.4096-.2931-.6843-.3798-.2871-.091-.5745-.182-.8617-.2716-.532-.1664-1.0681-.199-1.6086-.0966-.1934.0368-.3498.0612-.4678.0711-.1054.0099-.2106.0199-.3157.0326-.1055.0128-.2092.0343-.3116.0641-.7239.212-1.3952.4651-2.0123.7566-.1695.081-.3087.0456-.4198-.1066-.1392-.1891-.2047-.3555-.1976-.4978.0071-.1151.1009-.2375.2832-.3699.6355-.4592,1.3609-.7934,2.1787-.9998.3668-.0924.7608-.2475,1.1818-.4649.0414-.0215.0896-.0244.1309-.0088l.6472.2532c.1919.0754.3725.0711.5389-.0156.8903-.4564.8818-.6769-.0241-.6613-.1806.0028-.3357-.0114-.4652-.0411-.3027-.0698-.5233-.148-.6585-.2348-.1777-.1122-.2018-.2262-.0754-.3398.0955-.0854.222-.131.3501-.1253.65.0329,1.2813.0839,1.8972.1565.3144.0371.6115.1252.8932.263.1023.0513.1551.165.1264.2761-.0683.2602-.1649.455-.2914.5873-.0513.0525-.1978.1137-.4396.1806-.2061.0584-.3753.1749-.5105.3526h0ZM83.1617,24.1735c-.3228-.1664-.6029-.1267-.8404.1165-.101.1055-.1126.1951-.0315.2691.0471.0425.1154.0595.2064.0524.2658-.0227.4821-.0641.6471-.125.2418-.0896.2475-.195.0184-.313Z" fill="#902622" fill-rule="evenodd" stroke-width="0"/><path d="M14.9477,23.6772c.1094.1293.1961.2716.2602.4294.0811.205.1536.3527.2163.4422.6384.9162,1.2898,1.8207,1.9567,2.7151.0273.0371.0712.0541.1112.0442.2403-.0598.3098-.1933.2089-.4025-.0184-.0369-.0853-.1151-.2033-.2347-.1224-.1236-.1083-.2288.0426-.3158.0626-.0355.1493-.0525.2588-.051.3143.0042.6258-.0329.9317-.1112.4054-.1037.5091,0,.3115.3116-.1766.2761-.3384.5604-.485.8521-.1922.3795-.4751.6698-.8507.873-.2301.1239-.4181.0783-.5632-.1363l-2.0307-3.0124c-.2064-.3058-.3572-.2815-.4539.0726-.0425.1536-.1536.3795-.3328.6769-.0396.0641-.0439.1437-.0141.2134.6556,1.533,1.0667,3.1403,1.2302,4.8226.0199.1979-.034.3742-.1607.5278-.1451.1749-.2702.1891-.3739.044-.0471-.0641-.0726-.1593-.0782-.2858-.0131-.2973-.0343-.5193-.0655-.6655-.2333-1.1109-.4666-2.2201-.6999-3.331-.0581-.2773-.2503-.512-.576-.7053-.0383-.023-.0581-.0669-.0496-.1111.1678-.9145.4323-1.7436.792-2.4846.0924-.1905.2588-.2715.4992-.2418.0456.0057.0867.0284.1182.0641Z" fill="#902622" fill-rule="evenodd" stroke-width="0"/><path d="M40.2574,32.9913c-1.4976-1.2147-3.1232-2.2385-4.8753-3.0719-.1976-.0939-.1933-.1778.0127-.2503l17.0711-6.0231c.1208-.0428.256-.0116.3484.0794,1.2501,1.2418,2.3182,2.6268,3.2043,4.1559.0485.0839.0028.1904-.091.212-4.214.9612-8.411,1.9156-12.5924,2.8641-.36.0811-.4096.2503-.1508.5063,3.0992,3.0594,5.012,6.747,5.7388,11.0622.7466,4.443.0966,8.697-1.9528,12.7601-.4224.8391-.8617,1.5418-1.3156,2.1065-.0297.0368-.034.034-.0156-.01,1.2076-2.6824,1.8516-5.4813,1.9327-8.3967.0258-.9431-.0241-1.8888-.1477-2.8375-.5576-4.2738-2.2615-8.0056-5.1103-11.1986-.6242-.7013-1.3096-1.3541-2.0565-1.9584Z" fill="#902622" fill-rule="evenodd" stroke-width="0"/><path d="M10.7805,28.3719c-.044-.1975-.0896-.1975-.1395-.0028-.1491.5817-.2358,1.1562-.2602,1.7237-.0071.1962-.0439.3371-.1094.4224-.1352.1763-.3158.1721-.5448-.0113-.2971-.239-.4366-.5746-.4167-1.0055.0226-.5094.0343-1.0043.0343-1.4848,0-.1593.0496-.1766.1505-.0527.087.108.1865.1919.2959.2503.0584.0298.1296.0043.1537-.0556.2531-.6284.1734-1.1675-.2404-1.6183-.027-.03-.0683-.0541-.1179-.0683l-.3785-.1182c-.0456-.0141-.0825-.0453-.1023-.0867-.0697-.1491-.023-.2404.1406-.2758.4751-.1009.879.0014,1.2118.3087.0683.0626.1777.051.2319-.0244.1366-.1919.2262-.3994.2687-.6242.0712-.377.1593-.7509.2645-1.1194.0499-.1749.1253-.3115.2248-.4082.1323-.1292.2732-.2089.4209-.2389.2517-.0511.3954.0527.4312.3101.0269.2035.0141.4025-.0386.5986-.1179.4383-.2276.9017-.3257,1.3924-.0014.0057-.0496.3699-.148,1.0939-.0637.4833-.1961.9499-.3965,1.4009-.0513.1137-.1097.1933-.1766.239-.1463.098-.2574.0311-.3328-.2022-.0496-.1479-.0825-.2616-.1009-.3427Z" fill="#902622" fill-rule="evenodd" stroke-width="0"/><path d="M85.1429,24.1307c.0014.0698.0286.1296.0825.1781-.2175.0924-.2447.0325-.0825-.1781Z" fill="#902622" fill-rule="evenodd" stroke-width="0"/><path d="M83.4361,26.8202c-.2188-.0754-.3909-.2032-.5176-.384-.064-.0925-.0867-.1905-.0683-.2929.0357-.1919.1437-.2276.3271-.1037.1239.0839.1922.1292.2021.1349.4706.2659.9655.4737,1.4877.6231.2743.0796.3313.0014.1692-.2347-.0839-.1225-.2262-.2418-.4252-.3598-.1366-.081-.2248-.1635-.2648-.2474-.0552-.1182-.0737-.2461-.0538-.3827.0184-.1295.1579-.2049.2758-.1494.4223.2007.7781.4595,1.0695.7781.1919.2089.2163.4706.074.7821-.0184.0414-.0255.0882-.0184.1324.098.667-.1891.94-.8649.8192-.4734-.0839-.7906-.1381-.9513-.1607-.0414-.0057-.0811.017-.1012.0567-.1562.32-.3866.5334-.6897.6372-.2942.1009-.4408.273-.4393.5162,0,.1936.0938.3571.28.4907.2517.1805.5264.2375.8221.1692.0385-.0099.286-.1009.7438-.2744.4992-.1891.9672-.438,1.4065-.7452.04-.027.057-.017.0513.0311-.0413.3328-.1848.6203-.4294.8606-.633.6274-1.364,1.0795-2.1932,1.3595-.0725.0258-.1536-.0028-.1961-.0666-.2106-.3257-.4723-.6004-.7866-.8249-.3583-.2576-.6259-.6301-.8008-1.1208-.0312-.0881.0028-.1848.0825-.2318.3557-.2107.6584-.4624.9073-.7566.0315-.0386.0485-.0839.0471-.1267-.0085-.1664-.1052-.239-.2903-.2203-.1151.0114-.1777.017-.1891.0185-.2474.007-.5119.034-.7951.0796-.2316.0383-.4138-.04-.5473-.2347-.1324-.1919-.1168-.347.0496-.4652.087-.0623.2134-.1037.3784-.1236.65-.0754,1.381.0227,2.1946.2943.0938.0314.1947-.0298.2089-.1279.0014-.0099-.0114-.0343-.0411-.0725-.0258-.0326-.0655-.0598-.114-.0769Z" fill="#902622" fill-rule="evenodd" stroke-width="0"/><path d="M13.2993,29.7856c.101.0071.1877-.0255.2574-.0967.0298-.0298.0468-.0754.0482-.1267.0216-.5318,0-.8844-.0652-1.0582-.121-.3197-.121-.6525,0-.9955.0783-.2217.1466-.2188.2047.0088.4581,1.8105.7339,3.6065.8291,5.3901.0114.2148-.0726.3812-.2517.5006-.2801.1862-.5105.1564-.6911-.0896-.4992-.6798-.7894-1.3368-.8733-1.9698-.0326-.2546.0456-.3484.2361-.2815.0697.0241.1451.0797.2234.1664.1094.1208.2247.2361.3455.347.1137.1051.2134.1508.2971.138.1323-.0215.1893-.1593.1681-.4167-.0057-.0711-.0386-.138-.0927-.1851-.2089-.1848-.3484-.28-.4181-.2871-.2345-.0216-.3966-.1423-.4836-.3614-.1406-.3513-.2985-.4936-.472-.4281-.0527.0199-.1551.1367-.3073.3484-.2517.3543-.5547.3472-.9059-.0198-.0284-.0284-.0369-.0754-.0185-.1151.1321-.2931.2503-.7368.3527-1.3312.0555-.3285.246-.5819.5717-.7582.2092-.1123.347-.1792.4167-.2005.1664-.0498.2903.0142.3728.1919.0382.0797.0609.2036.0711.37.0241.394.0581.7877.1052,1.1803.0057.0442.0397.0768.0796.0797Z" fill="#902622" fill-rule="evenodd" stroke-width="0"/><path d="M50.6597,45.3846c.0269-1.1735-.057-2.3397-.2489-3.4988-.6072-3.6663-2.0579-6.8992-4.352-9.6982-.1721-.2089-.1253-.3384.1394-.3911l18.2727-3.6151c.044-.0085.0896.0114.1123.0497.7852,1.3297,1.4692,2.7164,2.0523,4.1629.2304.5718.4039,1.1605.5218,1.7649.0145.0683-.034.1338-.1037.1408-.1522.0156-.3028.0355-.4522.0627-.1763.0312-.3271.051-.4538.0581-1.6937.104-3.3848.2262-5.0757.3643-.8093.0654-1.7552.1335-2.8375.2046-1.3952.0924-2.7833.205-4.1644.3385-.0666.0059-.115.0683-.1051.1352.0297.2063.0725.4096.1267.6086.1052.3855.1579.5805.1579.5848,1.0593,4.5694.6142,8.9813-1.3371,13.2366-1.5004,3.2723-3.7474,5.959-6.7414,8.0569-.0609.0426-.0711.0341-.0269-.0272.7296-1.0182,1.3995-2.0806,2.0098-3.1887,1.597-2.9055,2.4332-6.023,2.5058-9.3495Z" fill="#902622" fill-rule="evenodd" stroke-width="0"/><path d="M55.3031,53.2709c-2.3879,2.3323-5.1783,3.9849-8.3738,4.9564-.091.0283-.1026.0099-.0343-.057.2333-.2262.4779-.4252.7353-.5973.2744-.1848.4124-.2789.4153-.2803,3.776-2.7179,6.353-6.2663,7.7312-10.6452.2917-.9244.5105-1.846.6571-2.7664.3656-2.2867.3455-4.5949-.0584-6.9247-.0114-.0683.0399-.1321.1097-.135.5604-.0201,1.1307-.0428,1.7095-.0669.2175-.0099.7864-.0484,1.7065-.1182.4195-.0311.8391-.051,1.2589-.0581.5873-.0113,1.0068-.0243,1.2571-.0371,1.9925-.1066,3.9864-.2146,5.9789-.3243.2817-.0156,1.0029-.0411,2.1634-.0782.7239-.0227,1.4434-.0669,2.1588-.1307.0641-.0057.1197.0397.1282.1037.3398,2.7505.115,5.5027-.6716,8.256-.0198.0697-.0853.1153-.1579.1111l-11.0236-.6571c-.0967-.0057-.1848.0581-.2103.1522-.9814,3.5881-2.8075,6.6872-5.48,9.2971h0ZM67.0578,36.4147c.377.0382.7552.0354,1.1322-.0085.057-.0074.057-.0102,0-.0088l-1.1293.0074c-.0581.0014-.0596.0042-.0029.0099Z" fill="#902622" fill-rule="evenodd" stroke-width="0"/><path d="M33.8304,38.5222c-.0397-.0283-.0354-.0496.0113-.0637l7.7854-2.2346c.0527-.0142.1094.0014.1465.0428.923,1.0295,1.711,2.1234,2.3638,3.2825.4479.7949.8377,1.6583,1.1691,2.5883.8946,2.5076,1.3169,5.1798,1.2642,8.0201-.0468,2.5841-.5958,5.0204-1.6455,7.3117-.0612.1349-.0938.1278-.0967-.0201-.0156-.8207-.047-1.6382-.091-2.4546-.121-2.2317-.6329-4.3693-1.5346-6.4099-1.7663-3.998-4.527-7.1127-8.2829-9.3442-.3486-.206-.7112-.4464-1.0896-.7183Z" fill="#902622" fill-rule="evenodd" stroke-width="0"/><path d="M67.0607,36.4048l1.1293-.0074c.057-.0014.057.0014,0,.0088-.377.0439-.7552.0467-1.1322.0085-.0567-.0057-.0552-.0085.0029-.0099Z" fill="#902622" fill-rule="evenodd" stroke-width="0"/><path d="M55.3031,59.2925c.6018-.3526,1.2929-.4751,2.0738-.3685.9287.1267,1.5772.6202,1.9455,1.4791.2846.6614.1936,1.2274-.2716,1.7011-.1664.1692-.3827.256-.6514.2602-.1338.0015-.2602-.0326-.3813-.1037-.3512-.2064-.2899-.3784.1806-.5134.2404-.0697.3232-.2233.2463-.4623-.1408-.4351-.377-.7098-.7098-.822-.2959-.101-.6159-.0669-.9586.0995-.3796.1836-.65.4878-.8107.9102-.2373.6273-.1477,1.2075.2675,1.7424.4238.546,1.0338.8048,1.8318.7778,1.2472-.0428,2.082-.6156,2.5058-1.7195.2461-.64.2648-1.3368.0584-2.0891-.3172-1.1619-1.044-1.9429-2.1773-2.3454-1.9655-.6967-3.6708-.3384-5.1174,1.0738-.371.3628-.6426.8135-.8132,1.3527-.4269,1.3368-.3002,2.6609.3781,3.9722.6001,1.1605,1.4122,2.0423,2.435,2.6453,2.3836,1.4065,4.8909,1.7464,7.522,1.0167.138-.0382.148-.0184.0269.0613-1.1832.7781-2.4573,1.3527-3.8242,1.7251-1.9613.5364-3.6822.8564-5.1656.963-4.9847.3569-9.8317-.2305-14.538-1.7609-.9343-.3028-1.8162-.6511-2.6453-1.0423-4.7033-2.2201-8.5717-5.4771-11.6053-9.7693-2.2074-3.1247-3.729-6.5552-4.5666-10.2926-.4369-1.95-.6957-4.015-.7767-6.1951-.0114-.3116.0156-.599.081-.8649.0811-.3186.2192-.5632.4153-.7339.3342-.2914.7467-.3002,1.2373-.0283.1466.081.2747.2304.3841.445.0669.131.1239.3144.1721.5491.1108.5417.2191,1.0837.3229,1.6256.4793,2.4747,1.3796,4.7829,2.7008,6.9262,2.1291,3.4532,4.989,6.09,8.5802,7.9118,1.6257.8249,3.3395,1.4122,5.1443,1.7606.896.1738,1.8374.2846,2.823.3316,5.8283.2787,10.8644-1.6214,15.107-5.7018,2.3522-2.2627,4.0632-4.9422,5.1341-8.0385.0284-.0825.108-.135.1947-.1279l15.7754,1.2643c.0371.0028.0627.0385.0556.0754-.1834.8606-.4652,1.9414-.8476,3.2457-.5235,1.7861-1.2546,3.4302-2.1946,4.9308-.4223.6741-.9714,1.4477-1.6441,2.321-1.5587,2.0194-3.2896,3.7503-5.1925,5.1925-2.7436,2.0792-5.9079,3.028-9.4935,2.8446-.4564-.0244-1.0153-.1494-1.6767-.3756-.866-.2973-1.5828-.7795-2.1489-1.4493-.3682-.4337-.6174-.876-.7495-1.3255-.1607-.5491-.1409-1.078.0598-1.5857.2489-.6302.6826-1.1265,1.3011-1.4891Z" fill="#902622" fill-rule="evenodd" stroke-width="0"/><path d="M89.2616,54.2537c-.0796-.0499-.182-.0499-.2616,0-.1636.1037-.2333.0808-.2078-.0712.013-.0697.0187-.1239.0201-.1593.0085-.229.0539-.4467.1349-.6528.0273-.0683.1126-.0896.1693-.0442.8946.7225,1.7864,1.4465,2.6725,2.1733.2474.2032.4765.3214.6882.3526.8178.1208,1.3057.199,1.4621.2347.2773.0627.5063,0,.6897-.1876.0329-.0329.0499-.0272.0499.0184.0042.3569-.0584.7024-.1877,1.0352-.0155.04-.0555.0641-.0966.057l-2.024-.3285c-.1947-.0326-.377-.0142-.5462.0555-.9527.3909-1.9071.7608-2.8627,1.1092-.2832.104-.5136.2262-.69.3643-.0269.0198-.0654.007-.0725-.0244-.0641-.3084-.0255-.6114.1139-.9102.0525-.1151.1548-.2004.2773-.2333,1.004-.2716,1.9428-.6044,2.8159-.9998.0896-.0397.1069-.1607.03-.2231-.6998-.5703-1.4252-1.0924-2.1747-1.5658Z" fill="#902622" fill-rule="evenodd" stroke-width="0"/><path d="M10.2243,54.4867c.0028-.027.0116-.0482.0272-.0638.0326-.0371.0553-.0286.0683.0255.0882.3399.118.684.0882,1.0341-.0028.0411-.0357.0737-.0768.0779-.7909.0871-1.5744.2107-2.3511.3714-.3413.0711-.7565.1394-1.2472.2046-.421.0556-.8377.1338-1.2501.2319-.0085.0014-.138.017-.3898.0471-.2333.0269-.3841.1621-.4521.4039-.0159.0553-.0485.0952-.0782.0952-.0315.0015-.0527-.0269-.0641-.0853-.064-.3214-.1395-.6315-.2234-.93-.0241-.0882.0341-.1795.1253-.195l5.2549-.8975c.3614-.0609.5505-.1678.5689-.32Z" fill="#902622" fill-rule="evenodd" stroke-width="0"/><path d="M8.1607,56.9571c-.0712-.0411-.1621-.0312-.2217.0258-.7809.7523-1.5191,1.5616-2.213,2.4276-.2775.3483-.4552.6514-.532.9102-.0128.0442-.0298.0456-.0511.0042-.1922-.394-.2661-.7991-.2205-1.2158.0085-.074.0397-.1423.091-.195.8663-.8918,1.7138-1.7977,2.5444-2.7207.1264-.1409.2347-.1437.3214-.0085.0298.0456.0612.0782.0938.0981l2.7862,1.6356c.1179.0697.1962.189.2118.3214.0286.256.0484.5134.0584.7722.0028.0811-.0256.0983-.084.0499-.017-.0128-.0325-.0326-.0453-.0584-.1579-.2914-.3728-.5318-.6472-.7209-.68-.4694-1.3767-.9119-2.0922-1.3257Z" fill="#902622" fill-rule="evenodd" stroke-width="0"/><path d="M85.7316,65.4349c-.0354-.0113-.0538-.051-.0397-.0881l1.4678-4.0062c.0199-.0542.0712-.0896.1279-.0896.2432-.0014.4365.0782.5802.2389.0286.0312.0269.0794-.0028.1052-.0584.0482-.1307.0697-.2189.0655-.0456-.0028-.087.017-.1068.0524-.2118.3756-.3796.7781-.5049,1.2076-.017.057.0128.1179.0683.1409,1.5546.6298,3.1176,1.2073,4.6905,1.7322.1038.034.1848.0454.2461.0355.0839-.0142.1607-.0539.2304-.1208.1151-.1111.1579-.0882.1307.0695-.0581.3316-.1749.64-.3512.9274-.0227.0369-.0669.0511-.1052.0369l-5.1485-1.893c-.0598-.0212-.125.0071-.1494.0641-.1579.3682-.2872.7339-.3867,1.0993-.0456.1664.0057.36.1523.5816.0326.0499.0212.0669-.0343.0485l-.6458-.2078Z" fill="#902622" fill-rule="evenodd" stroke-width="0"/><path d="M8.9445,65.0965l-1.842.0258c-.0382,0-.0811.0212-.1165.0567l-.2106.2106c-.0269.0269-.0709.0198-.0896-.0128-.1363-.2432-.2273-.5006-.2729-.7753-.0071-.0368.0226-.0708.0612-.0708,1.3481-.0074,2.6966-.0372,4.0433-.0899.8306-.0326,1.6611-.0297,2.4903.0099.0895.0046.1536.0899.1323.1766-.0371.1608-.1196.3014-.2474.4252-.0868.0839-.1338.1293-.1395.1364-1.1747,1.256-2.3695,2.4919-3.5824,3.7094-.1965.1962-.3657.4493-.5066.758-.0368.0825-.074.0796-.1094-.0071l-.3356-.8263c-.0241-.0584-.0142-.1225.0255-.1621l1.5831-1.5988c.0312-.0312.0412-.0782.0227-.1179l-.8036-1.7822c-.0184-.0396-.0584-.0654-.1023-.0654h0ZM11.7264,64.9031l-2.1592.1523c-.0396.0028-.0652.0425-.0496.0782l.5831,1.3368c.0312.0712.1236.0924.1933.0457.6033-.4096,1.1081-.8932,1.5163-1.4508.0853-.1179.0567-.1721-.0839-.1622Z" fill="#902622" fill-rule="evenodd" stroke-width="0"/><path d="M83.7862,69.8113c-.0754-.0414-.1678-.0442-.2446-.0056-.1225.0609-.2036.0825-.2432.0666-.0386-.0156-.0329-.0681.0198-.1562.1295-.2149.2659-.4439.4124-.6857.0726-.1208.2319-.1579.3555-.0825l4.6123,2.8446c.0442.0269.0997.0326.1493.0127.3286-.1253.4252-.074.2889.1551-.1466.2446-.2832.4722-.4124.684-.0471.0768-.148.0981-.222.0485-1.5432-1.0341-3.1161-1.9939-4.716-2.8815Z" fill="#902622" fill-rule="evenodd" stroke-width="0"/><path d="M16.0912,70.6617c.0326-.172.0938-.1834.182-.0326l.4864.8334c.0213.0369.0085.0839-.0286.1066-1.5829.9329-3.1145,1.8646-4.5936,2.7933-.104.0654-.1737.1338-.2092.2046-.0439.0899-.064.1908-.0598.303.0071.1965-.0397.2135-.1406.0499l-.4396-.7027c-.1137-.182-.0695-.3285.1309-.4393,1.5304-.8504,3.005-1.7465,4.4232-2.6881.0797-.0525.1363-.1137.1692-.1834.0369-.0769.0638-.1579.0797-.2447Z" fill="#902622" fill-rule="evenodd" stroke-width="0"/><path d="M79.7981,76.9478c-.371-.3254-.5561-.7066-.5519-1.1418.0043-.36.1367-.7253.3983-1.0967.286-.4053.6698-.7339,1.152-.987.0697-.0369.1536-.034.2234.0042.2418.1353.4082.2889.4992.4638.0212.0425.0085.0598-.0411.0527-.4992-.0754-.9233.0298-1.2745.3141-.2475.2007-.394.4482-.4394.7438-.0555.3487.0454.6472.3028.8989.1865.1822.4025.2832.65.303.2545.0213.502-.0354.7423-.1678.0726-.0383.2861-.1395.6401-.3002.0071-.0028.1108-.0553.3144-.1593.3569-.1806.7183-.2359,1.0865-.1692.3271.0598.6301.2276.9102.502.7098.6956.7509,1.5262.1253,2.4919-.2775.428-.6557.7523-1.135.9743-.1777.0825-.3427.0924-.4949.0283-.1693-.0697-.3101-.182-.4252-.3342-.0712-.0952-.0471-.138.0711-.1267.2716.0258.5346-.0014.7906-.0825.5505-.172.9003-.4878,1.0497-.9456.1451-.4482.0782-.8549-.2004-1.2232-.3374-.4453-.8521-.5218-1.5446-.2318-.3785.1579-.7583.3143-1.1407.4665-.6372.256-1.2061.1636-1.7082-.2775Z" fill="#902622" fill-rule="evenodd" stroke-width="0"/><path d="M16.003,79.7241c.4139.5105.8915.9502,1.4335,1.3184.0369.0244.0825.0357.1295.0283.3187-.0425.3583.04.1194.2461-.0383.0329-.0839.0856-.1395.1579-.0453.0612-.1009.1097-.1664.1451-.0354.0198-.081.0128-.1122-.0184l-2.1759-2.1932c-.0272-.0269-.0258-.0726.0028-.0995,1.3539-1.2557,2.6581-2.5614,3.9124-3.9155.0697-.0751.1182-.2273.1437-.4549.0057-.0471.027-.0556.0641-.0284.2616.1948.4893.4224.684.684.0241.0326.0213.0797-.0057.1108-.3912.4468-.8762.936-1.455,1.4664-.7481.684-1.5588,1.499-2.4318,2.4449-.0287.0298-.0287.0768-.0029.108Z" fill="#902622" fill-rule="evenodd" stroke-width="0"/><path d="M76.904,82.2058c.9272.3073,1.8618.5876,2.8046.8408.1607.0425.3186.0524.4751.0283.1221-.0184.1394.017.051.1038-.1636.1607-.3413.3016-.5332.4223-.1919.1211-.3898.165-.593.1296-.1806-.0329-.387-.091-.6174-.1778-.8405-.3143-1.6682-.5947-2.4817-.8404-.1494-.0457-.1636-.1182-.0426-.2177.3725-.3087.5715-.6699.5987-1.0823.0184-.2917-.0527-.5576-.212-.7979-.1763-.2645-.4224-.4281-.7382-.4907-.2588-.0527-.5303-.0114-.8163.1238-.2518.118-.4907.2759-.7138.4706-.0938.0825-.1083.2234-.0343.3229,1.0171,1.3583,2.0823,2.6937,3.1986,4.0093.04.047.1009.0669.1593.0527.3855-.0881.4496-.0173.1948.2146-.1863.1692-.4079.3455-.6628.5292-.0595.0425-.142.0298-.1862-.0286-.8646-1.1478-1.7294-2.257-2.594-3.3279-.0071-.0085-.0899-.121-.2503-.3356-.269-.3614-.6103-.633-1.0256-.815-.0297-.0127-.0354-.0513-.0113-.0725.6542-.5661,1.2529-1.0483,1.7949-1.448.216-.1579.4737-.2829.7707-.3739.5236-.1593.97-.0456,1.3411.3428.269.28.4181.6015.4482.9629.0155.1848-.0315.4266-.1423.7237-.0797.212-.1551.4269-.2263.6429-.0127.0371.0074.0768.0443.0881Z" fill="#902622" fill-rule="evenodd" stroke-width="0"/><path d="M25.361,80.5589c.0414.0329.0485.0924.0159.1352-1.1052,1.438-2.1932,2.9098-3.2655,4.4147-.1009.142-.1052.2871-.0113.4351.1179.1877.0825.2234-.1069.1066-.29-.1777-.5675-.3838-.8334-.6171-.0411-.0372-.0468-.0995-.0127-.1437,1.0879-1.3612,2.122-2.7349,3.1019-4.1202.0057-.0085.0454-.057.1208-.1465.1323-.1594.1607-.347.0853-.5647-.0638-.1834-.0199-.216.1309-.0995l.775.6001Z" fill="#902622" fill-rule="evenodd" stroke-width="0"/><path d="M68.9352,87.3173l1.0809,2.2501c.017.0368.0626.0524.1009.034.5731-.2673,1.1222-.5618,1.6469-.883.0984-.0598.1664-.1309.2078-.2134.0354-.0712.064-.1466.0853-.2248.0085-.034.0485-.051.0768-.0312.2089.1437.296.3413.2617.5944-.0057.0442-.0326.0839-.0726.1038l-2.7805,1.3853c-.034.017-.0765.0014-.0953-.034l-2.4703-4.8498c-.0539-.1083-.1551-.1922-.2773-.2319-.2333-.0768-.2673-.1551-.1009-.2361.061-.0298.0953-.0454.1023-.0499.9188-.5063,1.8718-.9885,2.8588-1.4477.034-.0156.0754-.0071.0995.0213.138.1664.2262.3427.263.532.0298.1491-.0127.1764-.1306.0783-.1083-.0899-.2234-.1069-.3459-.0528-.3838.1679-.7679.3357-1.1506.5049-.2588.1123-.394.1735-.4067.182-.142.1026-.1622.2474-.061.4368.0754.142.1151.2174.1194.2273.2148.4907.4552.9786.7197,1.4664.0212.04.0697.0541.1094.0343.5958-.3087,1.1761-.6075,1.7393-.8932.1693-.0867.2461,0,.2291.2574-.0029.0496-.0326.0924-.0754.1151l-1.6966.8291c-.0371.0173-.0541.0598-.0371.0953Z" fill="#902622" fill-rule="evenodd" stroke-width="0"/><path d="M33.9755,92.1557c-.5034-.3654-.7735-.8532-.8093-1.4649-.0226-.3853.0272-.7864.1508-1.2059.2861-.9743.5775-1.9485.8734-2.92.0354-.115.0468-.2103.0368-.2857-.0155-.1122-.0541-.2035-.1165-.2744-.121-.1352-.0952-.178.0754-.1267l.9471.2787c.0385.0116.0598.0541.0471.0941-.3955,1.1959-.758,2.3677-1.0894,3.5155-.0712.246-.1125.5902-.1225,1.0312-.0099.4139.1409.7538.4507,1.0225.3615.3115.8451.4694,1.4494.4751.5803.0056,1.0069-.2447,1.2801-.7509.2773-.5176.5035-1.0568.6769-1.6172.222-.7155.4252-1.4349.6101-2.1589.0442-.1734.0042-.3228-.1222-.4464-.148-.1437-.1211-.195.0796-.1508.3683.0811.724.199,1.0681.3569.0581.0269.0596.0541.0015.081-.2064.1024-.3442.2659-.4125.4921-.3855,1.2671-.7724,2.3766-1.1633,3.3279-.1437.3515-.36.6514-.6486.9017-.2704.2347-.5961.3784-.9785.4297-.8164.1095-1.5772-.0927-2.2842-.6046Z" fill="#902622" fill-rule="evenodd" stroke-width="0"/><path d="M62.2622,91.8686c.1791-1.4707.3072-3.0422.3855-4.7149.0042-.1066-.0683-.199-.1721-.2188-.2576-.0499-.2803-.114-.0711-.1948.216-.0842.4649-.1596.7466-.229.0995-.0244.1933.0567.182.1593l-.6727,6.245c-.007.0624-.0456.1165-.1009.1434-.2676.1253-.4821.1239-.6443-.0056-.0042-.0043-.1182-.1523-.3413-.4437-1.0839-1.4224-2.1818-2.8202-3.2924-4.1941-.0683-.0853-.1622-.1451-.269-.1721-.2773-.0711-.3056-.155-.0839-.2517.2775-.121.5646-.1893.8634-.2049.0439-.0014.0867.0184.1137.0541l3.1575,4.0845c.1108.1437.1777.1238.199-.0567Z" fill="#902622" fill-rule="evenodd" stroke-width="0"/><path d="M43.9637,90.307c-.0981-.114-.1576-.0967-.1806.051-.1749,1.1038-.2545,2.2445-.2375,3.4205,0,.0071-.0057.1052-.0156.2931-.0114.2132.0541.3598.1978.438.1664.091.1548.1338-.0357.1295-.3526-.0102-.6953-.0215-1.0267-.0343-.064-.0028-.1111-.0184-.1409-.0467-.0584-.0584.0015-.1111.1792-.1565.0952-.0244.165-.1083.172-.2078l.4167-5.4102c.0287-.371.1636-.4138.4068-.1292.3558.4167.7013.8418,1.0355,1.2741.8093,1.0454,1.6838,2.0523,2.6212,3.0237.1321.1367.2018.1109.2118-.0754l.1805-3.6535c.0046-.0655-.0283-.1395-.0867-.2064l-.1792-.2047c-.0496-.0555-.0297-.0782.0584-.0683l1.0582.1165c.0584.0071.0683.0315.0269.074l-.1791.1905c-.0355.0386-.057.0797-.0598.1168l-.3697,5.4315c-.0156.2361-.1224.2899-.32.1607-.0867-.0584-.2092-.1877-.3657-.3912-1.0837-1.4094-2.2056-2.7876-3.3678-4.1357Z" fill="#902622" fill-rule="evenodd" stroke-width="0"/><path d="M52.5952,88.7779c-.1349-.0609-.1293-.098.0159-.108l1.0595-.0782c.0411-.0028.0766.0298.0823.0726l.7097,5.4697c.01.0768.0584.1437.131.1794.2461.1208.3186.1948.2174.2217-.3143.0811-.6313.1508-.9541.2092-.104.0184-.2035-.0555-.212-.1607-.1664-1.836-.4196-3.6652-.7595-5.487-.017-.0924-.0484-.1579-.0938-.1976-.0485-.0428-.1139-.0825-.1964-.1211Z" fill="#902622" fill-rule="evenodd" stroke-width="0"/><path d="M41.7195,79.1265h-.5865v-3.7337c-.1412.1352-.3265.2698-.5553.4042-.2288.1343-.4354.2352-.6174.3019v-.5664c.3274-.1531.614-.3399.8595-.5596.2455-.2188.4198-.4311.5218-.6375h.3779v4.7911h0ZM44.9552,78.0202l.5596-.0465c.0479.2642.1389.4552.2733.574.1343.1191.3064.1789.5176.1789.1797,0,.3376-.0411.4742-.1245.1366-.0819.2475-.1919.3331-.3308.0856-.1377.1576-.3242.2165-.5587.059-.2344.0879-.4731.0879-.7163,0-.0255-.0011-.0655-.0034-.1176-.1165.1865-.2766.3387-.4788.4541-.2021.1168-.422.1743-.6573.1743-.3943,0-.7274-.1431-1.0006-.4297-.2722-.2855-.4088-.663-.4088-1.1316,0-.4842.142-.8731.4275-1.1685.2843-.2942.6409-.4419,1.0706-.4419.309,0,.5919.0834.8498.2509.2566.1667.4507.4042.584.714.1335.3087.1998.7563.1998,1.3417,0,.6097-.0655,1.095-.1976,1.4561-.132.362-.3296.6364-.5907.8252s-.5664.2832-.9173.2832c-.3733,0-.6775-.1035-.9142-.311-.2352-.2078-.3775-.4997-.4252-.8753h0ZM47.3474,75.9157c0-.3353-.089-.602-.2665-.7985-.1766-.1967-.3923-.2953-.6454-.2953-.2619,0-.4887.1054-.6798.3174-.1919.2123-.2874.4876-.2874.8252,0,.3033.091.5499.2721.7387.182.1899.4085.2843.6784.2843.271,0,.4932-.0944.6675-.2843.1744-.1888.2611-.4521.2611-.7875h0ZM50.2166,77.8736l.6132-.0465c.0453.2988.1508.523.3152.6741.1644.15.3654.2254.6021.2254.2854,0,.5241-.1066.7185-.3186.1931-.2132.2897-.4955.2897-.8465,0-.3342-.0921-.5975-.2775-.7905-.1856-.1934-.4308-.29-.7364-.29-.1899,0-.3597.0433-.5108.1301-.15.0864-.2676.1987-.3543.3365l-.5531-.08.4598-2.4522h2.3655v.5595h-1.8981l-.2542,1.2872c.2854-.2009.5853-.3007.8985-.3007.4153,0,.7662.1443,1.0517.4331.2854.2886.4289.6596.4289,1.1126,0,.432-.1256.8053-.3767,1.1197-.3053.3864-.7229.5797-1.2515.5797-.4332,0-.7864-.1222-1.0608-.3654-.2741-.2432-.4308-.5652-.4697-.9675h0ZM56.4676,76.5399c-.2432-.089-.4232-.2165-.5409-.3809-.1165-.1656-.1754-.3632-.1754-.5931,0-.3475.1244-.6386.373-.8753.25-.2364.5811-.3552.9953-.3552.4152,0,.7509.1211,1.004.3631.2531.2421.3798.5364.3798.8839,0,.2211-.0578.4144-.1732.5777-.1156.1644-.2911.2908-.5278.3798.2923.0956.5134.2486.6653.4621.1522.212.2288.4651.2288.7605,0,.4076-.1443.7498-.432,1.0276-.2886.2775-.6673.4164-1.1373.4164-.4697,0-.8484-.1389-1.1372-.4176-.2875-.2789-.432-.6264-.432-1.0428,0-.3099.079-.5698.2366-.7787.1577-.2098.3822-.3521.673-.4275h0ZM56.3511,75.5447c0,.2268.072.411.2154.5542.1443.1434.3331.2154.5675.2154.2276,0,.4119-.0709.5553-.2132.1432-.142.2143-.3163.2143-.523,0-.2154-.0734-.3965-.2211-.5431-.1465-.1465-.3319-.2199-.5553-.2199-.2253,0-.4107.0722-.5573.2154-.1457.1434-.2188.3143-.2188.5142h0ZM56.1578,77.7503c0,.1678.0388.3288.1165.4856.0779.1553.1956.2764.3532.362.1567.0853.3254.1287.5042.1287.2821,0,.5131-.0899.6943-.2699.1808-.18.2709-.4087.2709-.6862,0-.2821-.0932-.5154-.2789-.6996-.1865-.1846-.4218-.2767-.7052-.2767-.2776,0-.5052.091-.6852.2733-.18.1819-.2698.4098-.2698.6828Z" fill="#902622" fill-rule="evenodd" stroke-width="0"/></g></svg>