<svg width="711" height="711" viewBox="0 0 711 711" fill="none" xmlns="http://www.w3.org/2000/svg">
<path fill-rule="evenodd" clip-rule="evenodd" d="M214.107 271.181C214.107 271.181 210.621 285.829 206.438 308.849C192.494 310.942 179.77 312.686 166.523 315.127C173.669 316.523 195.108 320.708 205.915 323.498C206.786 328.555 211.144 352.97 212.538 360.818C212.538 360.818 218.987 333.962 220.207 322.278C220.207 322.278 240.775 319.487 257.333 316.348C257.333 316.348 227.179 310.942 220.033 309.721C220.033 309.721 216.198 284.26 214.107 271.181Z" fill="#00A2E9"/>
<path fill-rule="evenodd" clip-rule="evenodd" d="M398.863 155.209C398.863 155.209 396.074 166.545 392.937 184.507C382.13 186.076 372.195 187.472 362.086 189.39C367.663 190.437 384.222 193.749 392.588 195.843C393.285 199.68 396.597 218.688 397.817 224.792C397.817 224.792 402.872 203.865 403.743 194.97C403.743 194.97 419.779 192.878 432.503 190.262C432.503 190.262 408.972 186.076 403.569 185.205C403.569 185.205 400.606 165.498 398.863 155.383V155.209Z" fill="#00A2E9"/>
<path fill-rule="evenodd" clip-rule="evenodd" d="M501.701 213.805C501.701 213.805 499.784 222.002 497.344 235.08C489.5 236.302 482.354 237.348 474.859 238.569C478.868 239.267 490.894 241.708 496.995 243.278C497.518 246.067 499.958 259.845 500.83 264.379C500.83 264.379 504.49 249.207 505.187 242.755C505.187 242.755 516.865 241.185 526.103 239.441C526.103 239.441 509.022 236.476 505.187 235.779C505.187 235.779 503.095 221.478 501.875 214.153L501.701 213.805Z" fill="#00A2E9"/>
<path fill-rule="evenodd" clip-rule="evenodd" d="M156.938 398.312C156.938 398.312 185 412.612 247.051 466.5C275.984 491.612 321.129 527.362 377.951 527.014C450.111 526.665 515.298 477.487 517.216 392.208C519.133 304.663 425.361 221.652 313.46 278.504V182.24L255.767 229.5L277.553 237.347V391.336C277.553 391.336 292.543 289.84 388.582 295.943C471.723 301.175 484.622 371.107 483.924 394.824C483.053 423.773 455.688 501.203 371.152 495.449C254.894 487.601 239.207 403.543 156.938 398.312Z" fill="#00A2E9"/>
<path fill-rule="evenodd" clip-rule="evenodd" d="M131.664 372.153C131.664 372.153 198.944 358.202 288.185 417.67C360.869 466.151 436.863 450.979 436.863 394.999C436.863 349.482 401.655 335.531 374.813 339.019C326.706 345.123 330.366 404.764 366.098 407.207C391.371 408.951 390.5 376.339 372.198 379.129C358.254 381.222 359.997 359.946 381.785 359.946C403.572 359.946 413.333 373.897 411.59 394.999C409.498 419.414 395.031 433.714 363.483 432.667C338.21 431.796 311.89 412.613 314.505 374.944C317.294 335.531 341.521 317.917 379.17 314.604C419.433 311.116 461.265 344.25 458.651 391.511C456.036 440.515 427.974 474.522 367.666 472.777C276.682 470.162 233.978 383.489 131.664 372.153Z" fill="#00A2E9"/>
<path fill-rule="evenodd" clip-rule="evenodd" d="M257.508 202.295L336.117 131.492V240.836C336.117 240.836 406.186 225.14 463.705 259.147C506.234 284.26 542.14 325.766 540.745 394.824C539.525 448.363 511.811 493.706 485.666 499.809C485.666 499.809 533.425 466.848 532.03 388.721C531.333 349.482 516.343 310.593 483.749 282.865C444.357 249.033 378.82 236.302 329.145 252.346V147.362L261.865 207.701L257.508 202.469V202.295Z" fill="#00A2E9"/>
<path fill-rule="evenodd" clip-rule="evenodd" d="M355.638 0C551.377 0 710.861 159.744 710.861 355.412C710.861 551.255 551.202 710.824 355.638 710.824C159.899 710.824 0.414062 551.08 0.414062 355.412C0.414062 159.57 160.073 0 355.638 0ZM355.638 16.5673C542.139 16.5673 694.477 168.811 694.477 355.586C694.477 542.186 542.313 694.605 355.638 694.605C169.136 694.605 16.7983 542.36 16.7983 355.586C16.7983 168.987 168.962 16.5673 355.638 16.5673ZM355.638 126.609C481.656 126.609 584.494 229.501 584.494 355.586C584.494 481.672 481.656 584.564 355.638 584.564C229.619 584.564 126.782 481.672 126.782 355.586C126.782 229.501 229.619 126.609 355.638 126.609ZM355.638 115.796C487.583 115.796 595.3 223.571 595.3 355.586C595.3 487.601 487.583 595.375 355.638 595.375C223.692 595.375 115.975 487.601 115.975 355.586C115.975 223.571 223.692 115.796 355.638 115.796Z" fill="#00A2E9"/>
<path fill-rule="evenodd" clip-rule="evenodd" d="M43.2917 338.147C41.0258 336.229 43.1174 328.207 46.952 324.893C51.3095 321.231 57.5843 324.196 59.6759 325.242C61.7675 326.463 75.1886 332.915 78.6746 334.659C80.5919 335.531 82.6835 337.101 82.3349 339.368C81.9863 341.635 83.3807 344.251 84.9494 345.994C86.5181 347.738 87.9125 348.088 91.2242 358.202C91.9214 360.469 91.0499 364.306 87.9125 363.957C85.4723 363.783 82.5092 366.224 81.1148 363.783C78.8489 359.772 82.5092 359.423 80.9405 355.237C80.069 352.97 78.6746 349.657 76.0601 347.041C73.7942 344.774 70.4825 343.205 69.0881 343.727C66.4736 344.6 65.9507 345.994 65.6021 347.041C65.2535 348.088 63.5105 352.273 60.1988 351.401C57.5843 350.703 57.9329 348.437 57.7586 346.518C57.41 344.6 57.5843 340.239 52.3553 339.368C47.3006 338.495 46.6034 340.763 43.1174 337.973L43.2917 338.147ZM43.1174 305.71C42.2459 303.792 41.3744 301.002 44.5118 298.037C47.6492 295.072 49.3922 296.293 51.6581 299.607C53.7497 302.92 56.5385 302.222 56.8871 300.129C57.5843 296.293 55.3184 297.688 56.0156 294.723C56.7128 291.41 60.7217 288.097 62.8133 291.061C64.9049 294.026 65.7764 296.119 64.382 300.478C63.3362 303.792 65.6021 305.884 67.1708 306.233C70.3082 306.931 70.1339 309.024 72.5741 309.721C73.7942 310.07 76.2344 310.768 78.1517 310.942C80.069 311.116 81.2891 310.768 81.812 309.198C82.5092 305.71 82.8578 304.14 83.0321 303.269C83.555 301.002 82.1606 299.781 84.2522 297.34C85.4723 295.944 86.8667 294.2 90.7013 295.421C92.6186 295.944 93.8387 298.037 93.3158 301.176C92.7929 305.361 91.2242 310.419 88.2611 313.906C86.1695 316.523 83.9036 317.918 79.5461 317.918C76.2344 317.918 74.1428 317.046 72.5741 316.697C70.1339 316.174 69.2624 316.174 69.2624 315.824C69.2624 315.127 66.8222 314.953 65.2535 314.604C63.5105 314.43 60.1988 313.383 58.8044 311.639C57.41 309.895 54.4469 309.372 52.7039 309.547C51.3095 309.721 49.5665 310.419 47.4749 309.721C44.6861 309.024 43.9889 308.326 42.9431 305.884L43.1174 305.71Z" fill="#00A2E9"/>
<path fill-rule="evenodd" clip-rule="evenodd" d="M222.127 64.002C224.393 62.6069 226.31 64.1764 227.879 63.6532C230.144 62.7813 232.759 62.4325 233.456 65.7459C234.328 69.0594 232.41 73.2448 223.521 76.5583C220.732 77.6046 218.118 80.3949 220.384 82.4876C222.65 84.5803 224.044 85.4523 224.741 84.2315C225.438 83.0108 224.567 83.3596 227.181 78.9998C227.879 77.9534 228.053 77.0814 229.099 76.7327C230.667 75.8607 233.108 76.0351 234.502 76.907C235.548 77.6046 236.419 78.651 236.768 80.2205C238.162 84.9291 237.291 86.3242 238.511 89.8121C239.557 93.2999 240.951 96.2646 241.474 99.7524C241.997 103.241 243.566 108.297 244.089 109.867C244.611 111.437 246.703 117.889 245.657 120.68C245.134 122.249 244.263 122.772 241.997 122.075C239.731 121.377 240.254 117.54 238.511 115.796C236.942 114.052 234.676 110.74 234.676 109.518C234.676 109.518 235.548 108.821 237.291 111.611C239.034 114.228 240.08 111.785 239.731 110.041C239.208 108.297 238.337 105.159 237.988 104.112C237.291 101.845 235.722 99.4037 235.025 101.671C234.328 103.938 233.805 105.508 230.842 107.426C230.842 107.426 230.144 110.74 230.319 117.54C230.493 122.249 229.97 123.993 228.576 122.075C227.181 120.157 226.484 118.936 225.613 115.273C224.741 111.611 223.521 110.565 221.255 112.832C218.989 115.099 216.723 118.238 214.632 116.669C213.586 115.796 213.586 113.529 214.283 111.437C214.98 109.518 216.2 107.774 217.943 107.252C221.604 106.379 225.09 104.461 224.393 101.497C223.695 98.7061 223.172 97.4853 223.172 94.8695C223.347 92.2536 223.347 87.545 216.898 83.1852C215.852 82.4876 215.503 81.2669 217.595 79.1741C219.338 77.4302 221.429 76.2095 220.732 71.3265C220.384 69.0594 220.035 65.7459 222.475 64.1764L222.127 64.002ZM228.75 92.2536C228.924 93.2999 230.493 98.3573 228.053 96.9622C225.613 95.567 226.136 91.7304 226.136 89.1145C226.136 86.4986 227.007 83.8827 228.75 83.1852C230.319 82.662 232.585 85.1035 233.631 89.6377C233.979 91.2072 233.979 93.1255 231.888 91.9048C229.97 90.5097 228.401 90.1609 228.75 92.428V92.2536ZM244.96 67.3155C245.657 69.757 249.84 68.7106 250.363 70.4545C250.886 72.1984 251.235 72.7216 248.62 74.1168C245.309 75.8607 242.171 80.3949 245.134 81.6156C247.226 82.4876 251.932 78.1278 252.978 76.3839C254.024 74.8143 255.418 72.5472 260.821 71.6753C262.39 71.3265 262.913 70.9777 263.959 70.8033C266.399 70.1057 268.491 69.0594 269.536 65.9203C269.885 65.0484 269.536 64.002 265.005 66.6179C263.262 67.6643 262.39 68.1874 261.344 68.5362C259.427 69.0594 258.207 68.3618 258.904 67.3155C260.124 65.5715 262.216 63.6532 261.344 61.7349C260.647 59.8166 256.638 58.2471 252.106 59.4678C250.189 59.991 248.795 61.5605 247.575 62.7813C245.832 64.5252 244.437 66.0947 244.96 67.4899V67.3155ZM250.015 87.0218C250.015 87.0218 251.061 90.5096 250.363 93.6487C249.318 97.4853 248.62 102.368 249.492 108.123C249.492 108.123 247.749 111.96 249.84 112.658C251.061 113.006 252.629 111.785 253.849 109.17C255.069 106.379 255.592 102.02 255.418 97.6597C255.418 95.9158 254.721 88.4169 257.858 87.3706C260.124 86.673 260.647 89.9865 261.693 92.6024C262.739 95.2182 263.784 98.3573 264.307 99.9268C264.83 101.497 266.225 103.589 270.408 105.333C272.674 106.379 276.334 107.426 278.949 107.774C281.214 108.123 282.609 107.949 283.655 107.077C284.526 106.379 289.407 106.205 288.361 100.798C287.141 95.567 284.7 94.3463 284.7 94.3463C284.7 94.3463 285.223 93.1255 281.389 89.6377C280.517 88.7657 280.343 89.1145 280.517 90.3353C280.866 91.556 281.04 96.9622 281.04 97.8341C280.866 98.7061 278.949 98.7061 277.031 98.5317C275.114 98.3573 268.665 99.0549 266.05 91.0328C264.133 84.9291 264.83 83.0108 265.527 81.4412C266.05 80.2205 266.399 78.8254 266.05 77.9534C265.005 75.5119 261.693 76.0351 259.601 79.1741C258.904 80.3949 258.033 81.79 257.161 82.8364C255.767 84.4059 254.198 85.4523 250.015 86.673V87.0218ZM252.281 93.9975C252.281 93.9975 253.675 95.3926 252.629 101.497C252.455 102.542 251.583 102.542 251.061 100.798C250.538 99.0549 249.84 95.7414 252.106 93.9975H252.281Z" fill="#00A2E9"/>
<path fill-rule="evenodd" clip-rule="evenodd" d="M535.689 104.461C538.303 103.241 543.183 108.297 542.835 112.832C542.486 117.889 539.349 120.854 536.211 122.947C534.294 124.168 521.745 132.712 518.781 135.329C517.038 136.723 515.818 136.723 514.075 136.375C511.635 136.026 508.498 134.979 505.709 135.329C503.617 135.677 501.874 136.549 492.462 134.805C490.371 134.456 487.233 131.492 488.976 128.876C489.673 127.83 490.022 123.295 492.636 123.121C495.077 122.947 496.297 125.912 500.131 126.609C502.223 127.132 507.626 128.701 514.772 126.26C516.69 125.562 521.222 123.644 516.864 119.633C516.167 119.11 513.552 115.099 515.993 112.658C517.387 111.262 519.827 112.832 522.093 114.576C525.579 117.017 527.148 116.494 528.542 114.75C532.028 110.914 530.285 106.902 535.514 104.461H535.689ZM557.302 118.237C559.742 118.413 562.531 119.11 563.751 123.644C564.099 124.865 563.228 127.306 559.393 127.48C556.953 127.48 554.862 130.445 554.513 132.364C554.339 133.411 554.687 133.933 555.384 134.456C558.522 137.072 557.825 133.759 560.962 136.549C563.751 138.99 564.797 144.571 560.788 144.92C556.779 145.269 554.339 145.095 551.027 141.432C548.412 138.816 545.275 139.863 544.229 141.084C541.789 143.699 540.046 142.478 538.129 144.396C537.257 145.269 535.166 147.362 533.946 149.106C532.725 150.85 532.203 152.245 533.597 153.639C536.386 156.082 537.432 157.302 538.129 157.825C539.697 158.871 542.312 158.697 543.532 162.011C544.229 163.755 545.101 166.196 541.963 169.16C540.569 170.555 537.954 170.73 535.166 168.637C526.276 161.836 521.745 153.465 526.974 146.664C535.689 135.329 537.083 136.723 546.844 126.783C548.412 125.213 549.11 123.121 551.201 121.028C553.467 118.761 554.339 118.587 557.127 118.761L557.302 118.237Z" fill="#00A2E9"/>
<path fill-rule="evenodd" clip-rule="evenodd" d="M602.623 159.743C603.494 160.615 604.54 162.882 604.889 163.579C605.412 164.278 606.457 166.022 604.54 169.684C602.623 173.346 596.348 173.869 594.779 170.904C593.211 168.114 595.476 168.986 595.999 166.719C596.522 163.405 598.44 160.79 598.265 159.743C598.091 158.871 600.88 158 602.623 159.569V159.743ZM585.193 165.498C584.147 165.498 581.01 166.196 580.661 169.335C580.138 173.869 579.789 176.659 581.881 176.659C583.973 176.659 584.844 175.265 586.239 173.695C587.982 171.777 588.156 170.73 587.459 169.51C586.064 167.067 587.11 165.498 585.018 165.323L585.193 165.498ZM577.524 180.321C577.524 180.321 577.175 179.624 575.083 179.45C572.992 179.275 569.854 177.706 567.24 177.531C567.24 177.531 567.066 173.869 564.451 175.787C561.837 177.706 556.782 182.938 556.085 187.82C555.91 188.867 557.305 189.913 558.525 189.041C559.745 188.169 562.882 189.913 563.928 187.297C565.148 184.682 566.543 183.984 568.286 183.461C570.377 182.763 573.166 182.414 576.652 181.194C576.652 181.194 576.303 183.286 577.175 184.682C578.744 187.123 580.661 187.297 581.01 188.518C581.01 188.518 575.083 189.913 574.038 188.693C573.515 188.17 572.295 188.17 570.377 190.437C569.331 191.657 568.983 192.529 570.377 194.273C574.909 199.33 581.358 206.655 582.404 210.143C582.404 210.143 577.698 211.015 574.735 210.841C573.34 210.665 572.643 210.491 572.295 209.62C571.597 207.353 570.726 205.783 570.552 204.213C570.377 203.516 570.203 203.167 569.506 203.342C568.634 203.516 567.414 204.388 567.24 204.911C566.891 206.48 564.277 209.794 566.194 213.282C569.68 219.386 574.038 217.467 577.001 218.164C580.138 218.863 583.275 219.037 586.587 217.641C586.587 217.641 588.853 220.083 588.33 223.396C588.156 224.095 588.504 226.362 591.99 224.269C595.476 222.176 594.605 220.955 592.513 215.723C592.513 215.723 593.211 216.596 595.651 215.375C598.265 214.153 600.705 212.409 600.705 212.409C600.705 212.409 603.32 215.723 604.191 217.816C605.063 220.083 607.329 220.083 608.898 219.734C610.292 219.386 610.989 218.688 610.815 217.99C610.292 215.897 610.118 214.153 608.2 211.538C606.283 208.921 607.852 208.922 609.072 208.05C609.769 207.527 612.906 205.783 614.649 204.562C615.87 203.69 616.218 203.516 616.567 202.469C617.09 201.248 616.044 199.156 613.952 198.11C612.209 197.237 609.246 197.063 608.549 198.807C608.2 200.028 608.375 199.854 606.457 201.074C604.54 202.121 602.274 203.342 601.751 203.516L600.008 200.551C600.008 200.551 603.669 197.237 602.1 192.355C602.1 191.308 603.146 192.181 604.017 192.878C604.889 193.575 610.118 197.412 611.338 196.366C611.686 196.017 610.641 194.796 609.769 193.749C608.898 192.704 607.677 191.657 608.026 190.785C608.549 189.39 609.072 187.994 606.283 187.297C603.494 186.6 595.128 186.426 589.376 187.297C589.376 187.297 587.459 185.379 585.367 183.286C583.45 181.368 581.707 179.101 580.835 178.403C578.918 177.009 577.524 176.659 576.826 179.798L577.524 180.321ZM593.559 190.96C593.559 190.96 596.522 190.785 597.568 190.96C598.788 191.134 600.008 192.181 600.183 194.622C600.357 196.54 597.742 197.063 596.348 196.714C596.348 196.714 593.908 191.831 593.559 190.96ZM585.541 191.657L588.679 196.889C588.679 196.889 588.33 197.586 587.459 197.936C586.587 198.284 585.367 198.807 585.018 199.505C584.67 200.377 583.45 201.424 581.881 198.807C580.312 196.017 579.267 193.749 578.569 192.878C578.046 192.006 580.138 191.831 580.661 191.831C581.184 192.006 584.321 192.355 585.367 191.657H585.541ZM591.293 200.028C591.293 200.028 596.871 206.48 596.697 207.003C596.697 207.003 590.596 208.747 589.55 208.747C589.55 208.747 587.633 205.783 587.11 205.085C587.11 205.085 589.202 204.213 591.293 200.028ZM619.181 178.577C619.704 179.624 620.053 179.973 617.787 182.24C615.695 184.507 616.218 185.728 618.833 188.693C621.621 191.831 627.373 195.145 626.328 197.586C625.805 198.807 624.933 199.33 623.19 197.936C621.447 196.54 618.658 193.226 615.172 188.867C613.604 186.949 612.732 185.902 609.595 185.379C606.457 184.856 602.797 183.809 601.751 180.671C601.228 179.275 604.191 178.054 607.329 177.531C609.943 177.009 612.732 177.183 613.778 177.183C615.87 177.183 618.484 177.531 619.007 178.577H619.181Z" fill="#00A2E9"/>
<path fill-rule="evenodd" clip-rule="evenodd" d="M662.06 306.059C662.757 306.757 663.106 309.198 662.583 310.942C662.06 312.686 660.666 314.256 656.657 314.604C654.914 314.779 652.299 314.081 650.382 313.558C647.767 313.035 646.024 312.512 646.896 311.116C648.639 308.501 648.813 306.757 647.245 306.234C644.979 305.361 643.061 306.757 641.318 306.408C638.007 305.884 636.438 307.105 633.649 306.931C630.86 306.757 623.54 305.884 616.742 307.105C613.605 307.628 610.816 309.024 609.073 310.942C607.156 313.035 606.284 315.825 607.33 316.523C608.376 317.22 609.247 316.697 610.99 316.174C612.733 315.65 621.797 313.035 625.108 312.686C630.337 312.163 637.309 312.86 639.924 312.686C641.493 312.512 642.364 312.86 642.887 314.081C643.236 314.604 643.933 316.348 646.373 317.744C648.988 319.312 653.694 320.708 659.271 320.011C660.317 319.836 662.06 319.488 663.454 319.138C665.895 318.615 667.986 317.394 666.94 312.337C666.069 307.977 664.326 305.71 663.106 304.839C662.757 304.49 662.234 304.315 662.06 305.187C662.06 305.536 661.886 305.884 662.234 306.234L662.06 306.059ZM662.932 333.09C662.932 333.09 663.106 334.31 663.28 335.183C663.454 336.054 663.454 337.101 663.106 337.798C662.583 338.496 662.932 340.589 665.023 340.938C667.289 341.286 673.041 340.24 673.041 332.742C673.041 330.823 671.298 329.079 669.904 329.951C668.509 330.823 665.895 333.264 664.849 333.787C663.803 334.485 663.977 335.357 662.932 333.264V333.09ZM660.317 328.905C660.317 328.905 658.225 328.555 657.18 328.381C656.134 328.207 653.519 327.51 651.951 327.858C651.951 327.858 654.217 329.951 655.088 331.172C656.134 332.392 662.583 341.112 664.849 346.693C666.243 350.355 666.592 353.319 664.849 356.633C663.977 358.202 662.932 358.551 660.143 356.981C655.262 353.843 649.511 345.646 647.767 344.426C647.767 344.426 649.511 345.297 651.776 346.518C654.042 347.738 656.134 348.437 655.437 343.553C654.565 338.671 651.951 334.485 642.713 327.858C642.713 327.858 640.273 328.905 640.97 326.114C642.016 322.626 642.887 323.324 645.153 321.58C646.373 320.708 646.722 322.975 646.722 323.499C646.896 324.022 652.822 324.37 660.143 328.73L660.317 328.905ZM639.401 332.742C640.098 334.834 641.841 340.589 643.933 342.682C644.804 343.727 645.676 343.553 647.245 342.159C648.813 340.763 647.942 337.798 643.061 333.09C641.667 331.695 638.704 330.648 639.401 332.742ZM630.512 326.811C630.512 326.811 629.989 327.335 629.466 328.207C628.943 329.079 629.292 330.125 629.989 331.695C630.686 333.264 631.558 334.31 629.292 333.264C625.457 331.52 619.879 327.684 618.136 326.463C616.393 325.243 614.302 325.243 613.256 327.51C612.21 329.951 611.862 333.09 627.723 338.671C627.723 338.671 627.723 339.194 627.897 339.542C627.897 339.891 627.897 340.24 627.026 340.415C625.108 340.589 622.668 340.589 620.228 340.938C618.659 341.112 616.742 341.461 615.696 344.949C615.173 346.867 614.476 349.832 614.825 353.843C615.173 356.981 616.219 358.725 616.916 360.469C618.659 364.83 620.925 365.876 623.365 365.004C626.677 363.783 633.823 361.516 629.815 359.946C628.072 359.249 625.806 358.028 624.063 357.331C621.797 356.458 620.577 356.11 620.228 353.145C619.357 348.262 619.182 344.949 623.54 344.077C627.897 343.205 630.337 343.553 629.989 339.368C629.989 339.368 631.558 339.891 633.475 341.635C635.392 343.379 638.355 347.564 640.273 347.215C642.19 346.867 641.493 342.333 639.75 339.194C638.007 336.054 636.089 333.613 632.778 329.602C631.209 327.858 631.383 327.858 631.209 327.161C630.86 326.463 630.512 326.288 630.512 326.288V326.811Z" fill="#00A2E9"/>
<path fill-rule="evenodd" clip-rule="evenodd" d="M61.4242 232.116C62.9929 230.372 63.6901 229.5 65.956 230.372C68.2219 231.244 67.0018 233.86 66.3046 236.999C65.6074 239.964 65.0845 241.359 64.7359 242.579C64.3873 243.801 63.3415 245.893 63.6901 246.94C64.0387 247.986 62.9929 248.509 62.1214 249.381C61.0756 250.602 58.984 253.915 61.5985 255.31C64.213 256.706 68.5705 256.88 68.5705 253.218C68.3962 249.381 67.699 246.94 68.9191 244.672C71.3593 239.79 68.3962 241.01 69.9649 237.173C71.5336 233.337 71.185 230.895 73.2766 226.362C75.3682 221.827 81.8173 212.235 83.0374 209.62C84.4318 207.003 80.9458 205.957 79.9 208.05C79.0285 210.143 72.928 217.467 71.8822 220.083C70.8364 222.525 69.0934 223.222 68.0476 220.955C67.0018 218.688 64.213 216.42 62.47 219.037C60.727 221.827 59.3326 224.443 57.4153 226.013C55.498 227.582 58.4611 235.604 61.2499 232.465L61.4242 232.116ZM78.8542 249.033C81.643 250.777 90.0094 257.577 92.2753 252.521C94.5412 247.463 96.4585 249.033 99.2473 250.253C102.036 251.474 105.871 253.741 102.559 256.008C99.2473 258.45 100.467 259.496 104.825 258.624C109.182 257.577 113.017 258.275 112.145 253.915C111.1 249.555 112.145 250.777 105.696 246.242C98.0272 240.835 95.0641 242.056 95.0641 239.441C95.0641 236.65 96.2842 236.302 93.1468 234.558C89.8351 232.988 90.358 231.768 90.5323 228.977C90.8809 226.187 91.2295 219.734 88.615 220.257C86.0005 220.781 85.4776 220.781 82.5145 226.362C79.5514 231.942 79.3771 236.999 78.6799 241.534C77.9827 246.067 76.0654 247.114 78.8542 248.858V249.033ZM98.0272 265.425C98.0272 265.425 98.3758 268.913 100.467 270.482C102.385 272.052 102.559 273.796 101.513 275.366C100.642 276.935 98.0272 277.981 92.9725 272.749C91.0552 270.831 93.1468 269.96 94.3669 269.785C95.587 269.437 97.33 268.738 98.2015 265.425H98.0272ZM101.339 235.08C102.559 232.639 105.871 228.628 107.265 227.233C108.659 225.838 111.622 224.966 114.063 227.931C116.503 230.895 116.677 236.476 112.494 237.348C108.311 238.22 107.614 236.825 104.65 237.523C101.687 238.22 99.9445 237.697 101.164 235.255L101.339 235.08ZM82.8631 239.615C83.0374 237.523 83.5603 237.523 84.7804 237.173C86.0005 236.825 86.5234 238.394 86.872 240.487C87.2206 242.579 86.6977 245.893 84.0832 245.719C81.4687 245.545 82.8631 241.708 82.8631 239.615Z" fill="#00A2E9"/>
<path fill-rule="evenodd" clip-rule="evenodd" d="M158.683 120.157C157.115 124.168 154.5 128.701 158.858 132.712C161.821 135.503 164.958 136.549 165.83 132.364C166.701 128.179 167.224 126.609 168.967 124.865C170.536 123.121 173.848 119.982 175.765 116.669C177.682 113.529 181.865 108.647 183.608 106.554C185.351 104.636 187.966 102.718 188.663 104.286C189.36 105.856 189.535 109.518 186.397 111.088C183.26 112.658 182.04 114.402 182.911 117.715C183.957 121.028 184.306 121.552 182.04 130.097C180.82 134.631 177.159 134.282 179.251 137.596C181.865 142.13 184.828 139.165 186.049 141.607C187.269 144.048 184.828 148.234 180.994 149.803C177.334 151.372 175.765 152.419 177.159 155.733C177.856 157.477 178.902 158 180.645 157.477C182.388 156.953 185.003 155.559 185.874 154.338C187.792 151.547 189.883 149.106 193.543 146.839C197.204 144.572 204.176 140.037 207.487 138.643C210.973 137.247 209.056 133.062 205.047 132.538C201.213 132.015 197.204 134.98 194.764 136.899C192.498 138.817 191.626 138.467 190.58 136.375C189.535 134.282 190.755 134.456 191.975 133.236C193.195 132.015 194.415 127.132 193.195 126.086C190.929 124.516 187.792 129.051 185.7 129.923C183.608 130.794 185.003 128.527 185.351 125.912C185.874 123.121 185.351 121.726 187.792 119.982C189.186 118.936 192.846 115.796 188.314 111.96C188.314 111.96 190.929 110.914 191.8 109.17C192.672 107.426 194.764 106.729 196.507 105.856C198.25 105.159 198.947 105.333 201.213 102.02C202.607 99.927 201.561 100.101 197.901 98.3574C194.241 96.6135 192.672 95.7416 191.103 98.1831C189.535 100.45 188.489 100.624 186.92 100.974C185.526 101.322 184.654 103.241 182.563 104.461C180.297 105.682 178.031 107.252 178.728 104.286C179.425 101.322 178.554 101.148 175.765 99.7526C172.976 98.3574 171.582 98.0087 169.49 99.5782C167.398 101.148 164.958 101.322 163.215 103.764C161.472 106.379 159.904 107.252 163.041 108.123C166.004 108.821 166.527 108.473 170.536 110.914C172.105 111.96 173.325 111.785 170.013 115.622C166.701 119.634 162.518 123.819 162.344 119.982C162.169 113.878 159.032 118.413 158.335 120.157H158.683ZM178.728 121.203C178.728 121.203 177.159 125.563 175.939 124.342C174.719 123.121 171.582 123.819 173.15 127.83C174.893 131.841 180.645 128.701 179.251 126.957C176.985 123.819 179.251 122.772 178.728 121.203Z" fill="#00A2E9"/>
<path fill-rule="evenodd" clip-rule="evenodd" d="M304.395 56.329C306.138 61.212 308.927 57.5497 311.716 62.6071C314.33 67.6645 313.11 69.0596 309.101 69.9316C305.267 70.8036 303.175 69.0596 302.478 73.0707C301.432 78.8256 309.276 76.0353 309.45 80.5695C309.624 84.9293 303.175 91.7306 298.121 91.905C295.506 91.905 294.635 96.2648 297.772 96.2648C301.258 96.2648 303.001 96.788 311.367 89.9867C313.982 87.894 315.899 85.4525 315.725 83.5342C315.551 81.7903 317.294 81.0927 319.908 82.6622C322.523 84.4062 325.137 85.8013 329.32 89.9867C333.503 94.1721 341.521 100.625 355.64 93.3002C359.997 91.0331 358.254 89.4635 352.328 88.9404C346.402 88.4172 343.961 87.894 343.264 86.8477C342.567 85.8013 339.778 85.4525 336.989 85.1037C334.201 84.755 331.238 81.2671 328.797 79C326.357 76.7329 323.045 77.9536 322.348 74.117C321.477 69.234 333.155 69.4084 334.201 64.5254C334.724 61.9095 331.586 61.0376 323.568 62.4327C320.257 62.9559 319.559 59.2937 322 58.4217C324.614 57.5497 329.495 54.7595 329.495 49.1789C329.669 43.5983 323.045 44.6447 316.771 49.7021C313.285 52.318 312.413 52.8411 310.147 52.6668C307.707 52.6668 303.524 54.4107 304.221 56.329H304.395Z" fill="#00A2E9"/>
<path fill-rule="evenodd" clip-rule="evenodd" d="M398.34 47.9582C399.037 49.0045 400.606 49.8765 401.826 49.8765C403.22 50.0509 405.138 51.446 405.312 54.4107C405.486 57.5498 403.743 59.2937 402.349 60.34C400.955 61.3864 399.212 65.223 402 65.3974C405.835 65.5718 411.413 59.1193 413.853 66.095C415.944 71.8499 412.11 70.978 407.578 71.5011C403.046 72.0243 401.129 72.0243 401.129 75.6866C401.129 79.1744 404.092 80.7439 406.009 83.011C407.927 85.2781 416.642 93.3002 419.082 96.0905C421.522 98.8807 420.999 98.8807 422.742 99.5783C424.311 100.276 426.925 103.066 423.439 102.718C419.779 102.368 413.678 102.02 411.413 101.671C409.147 101.322 404.092 94.6953 401.652 91.5563C399.212 88.4172 396.771 81.4415 394.68 80.7439C394.68 80.7439 393.808 82.4879 391.891 84.5806C390.148 86.4989 384.047 99.0551 372.195 91.9051C368.709 89.8123 372.195 87.3708 375.332 87.894C377.075 88.2428 379.516 88.766 382.827 86.3245C385.268 84.4062 389.799 80.3952 388.928 77.4305C388.056 74.6402 386.836 75.5122 384.57 75.1634C382.304 74.8146 378.296 74.2914 375.855 73.9426C373.415 73.5939 373.764 71.5011 373.589 69.4084C373.415 67.3157 375.332 66.095 378.644 66.7925C381.956 67.4901 386.139 68.8853 387.011 67.1413C387.882 65.3974 389.625 66.9669 391.368 66.9669C393.111 66.9669 395.028 65.5718 394.505 60.34C393.983 55.2827 392.24 53.3643 393.808 50.3997C395.377 47.435 398.34 46.7374 399.037 47.7838L398.34 47.9582Z" fill="#00A2E9"/>
<path fill-rule="evenodd" clip-rule="evenodd" d="M458.126 58.2471C458.823 59.6422 459.869 64.1764 457.429 68.7106C454.989 73.2448 456.557 72.0241 454.989 75.1631C453.594 78.3022 454.466 79.1741 456.383 78.8254C457.777 78.651 458.649 76.2095 460.566 72.0241C461.961 69.2338 463.704 64.6996 464.052 64.002C464.052 64.002 462.309 61.7349 464.401 60.5142C466.492 59.4678 468.584 60.8629 468.584 63.1301C468.584 65.3972 467.887 65.0484 467.015 66.7923C466.144 68.5362 464.575 71.1521 461.961 76.7327C461.438 77.779 460.915 78.4766 461.612 79.3485C461.786 79.5229 461.961 79.6973 462.483 79.3485C463.529 78.651 464.401 77.0814 465.621 77.4302C466.667 77.6046 467.712 76.2095 467.712 74.9887C467.712 73.9424 468.061 71.8497 470.153 72.896C471.547 73.5936 472.244 73.5936 472.593 72.7216C473.116 71.8497 472.593 70.9777 471.373 71.1521C470.153 71.1521 468.061 71.5009 468.933 69.4082C469.63 67.3155 470.676 66.7923 470.501 65.7459C470.501 64.6996 470.676 63.8276 472.593 64.5252C474.51 65.2228 476.253 65.0484 476.95 62.4325C477.822 59.991 479.042 58.2471 482.528 60.1654C486.014 62.0837 485.317 64.002 483.922 65.3972C481.831 67.4899 478.868 65.9203 477.996 67.6643C477.125 69.4082 479.739 70.6289 478.519 72.3729C477.299 74.2912 475.033 73.768 472.767 77.779C470.676 81.6156 475.382 83.8827 476.95 82.662C478.345 81.6156 477.125 79.3485 476.602 78.8254C476.079 78.3022 476.079 76.7327 480.088 77.779C484.097 78.8254 483.574 77.6046 482.354 75.5119C481.134 73.4192 480.611 72.3728 480.262 71.3265C479.739 70.4545 480.611 69.5826 482.005 70.2801C483.4 70.9777 487.408 73.5936 488.803 71.1521C490.197 68.7106 490.197 67.8386 489.326 66.2691C488.454 64.874 489.849 64.6996 490.372 64.874C490.894 65.0484 492.289 64.5252 494.032 63.8276C495.949 62.9557 499.261 64.002 500.83 65.9203C502.398 67.8386 502.05 69.5826 499.261 70.9777C496.472 72.5472 496.472 70.8033 494.206 73.768C491.94 76.7327 490.72 77.6046 488.28 79.5229C485.84 81.4412 482.354 83.7084 483.4 84.9291C484.62 86.1498 486.363 87.0218 488.629 86.8474C490.894 86.673 495.078 86.3242 495.775 90.684C496.298 93.4743 493.858 95.567 491.069 94.5207C488.28 93.6487 476.602 89.9865 475.73 85.9755C474.859 81.79 473.116 83.1852 472.244 83.534C471.373 83.8827 469.281 83.8827 467.712 83.0108C465.621 81.6156 463.529 85.4523 458.126 83.1852C456.383 82.4876 449.062 83.534 442.439 85.9755C441.393 86.3242 437.384 86.673 438.953 82.662C440.347 78.4766 443.485 76.2095 447.319 74.1168C448.888 73.2448 449.062 74.8143 449.062 76.5583C449.237 78.8254 449.76 79.5229 450.631 78.1278C451.154 77.4302 452.2 75.3375 452.897 73.5936C453.594 71.8497 453.943 70.2801 453.768 69.5826C453.594 68.5362 454.291 66.6179 454.64 65.9203C454.989 65.0484 455.86 62.7813 455.337 60.6886C454.989 59.4678 455.512 57.5495 456.034 57.0263C456.557 56.6775 456.906 56.3287 457.603 57.7239L458.126 58.2471ZM454.117 87.8938C454.291 89.4633 454.989 91.2072 457.08 90.5097C458.997 89.8121 460.043 90.3353 460.915 90.684C461.786 91.0328 463.878 90.684 463.529 91.9048C463.006 92.9511 462.309 91.9048 461.612 93.6487C460.915 95.3926 460.741 97.1366 459.695 98.0085C458.823 98.8805 458.126 99.0549 455.163 97.8341C448.539 95.2183 446.274 92.428 444.879 94.8695C443.833 96.7878 445.402 98.0085 447.494 99.0549C449.585 100.101 456.034 101.322 457.429 102.02C458.823 102.717 458.3 104.81 457.777 106.379C457.08 107.949 454.989 109.344 454.291 110.39C454.291 110.39 451.851 109.518 451.154 109.867C450.457 110.216 447.842 109.344 446.796 107.774C445.751 106.205 444.182 106.205 443.833 108.996C443.485 111.611 445.576 121.377 450.631 120.331C454.989 119.459 458.823 117.366 461.263 111.611C463.355 106.379 463.529 106.03 465.272 103.066C465.272 103.066 466.841 104.461 468.758 103.938C469.63 103.589 471.547 104.81 472.593 105.159C473.639 105.682 476.427 107.949 476.776 104.635C477.125 101.671 475.73 99.4037 472.244 99.4037C468.584 99.4037 465.795 99.4037 464.401 97.6597C463.006 95.9158 465.97 95.567 467.19 94.8695C468.41 94.1719 471.373 93.4743 474.336 93.1255C477.299 92.7768 477.125 91.556 475.207 89.6377C473.29 87.7194 472.07 88.0682 470.153 88.4169C468.41 88.7657 463.529 89.2889 460.915 88.4169C458.126 87.3706 457.952 87.0218 456.906 86.673C455.86 86.1498 453.943 86.4986 454.117 87.8938Z" fill="#00A2E9"/>
<path fill-rule="evenodd" clip-rule="evenodd" d="M95.4068 168.637C96.6269 166.37 99.0671 166.719 100.287 165.498C101.856 163.579 103.773 162.011 106.213 164.452C108.653 166.893 109.002 171.428 102.901 178.927C100.984 181.194 100.113 184.856 103.25 185.553C106.213 186.25 107.956 186.426 107.782 184.856C107.608 183.461 107.259 184.158 107.259 179.101C107.259 177.88 107.085 177.009 107.782 176.136C108.828 174.566 110.919 173.521 112.662 173.695C113.882 173.869 115.102 174.392 116.148 175.439C119.634 178.927 119.634 180.321 122.423 182.938C125.212 185.379 127.826 187.297 129.918 190.088C132.01 192.878 135.844 196.54 137.064 197.586C138.284 198.807 143.339 203.167 143.862 206.132C144.036 207.701 143.688 208.573 141.422 209.097C139.156 209.62 137.587 205.957 135.321 205.26C133.055 204.562 129.395 202.818 128.872 201.772C128.872 201.772 129.221 200.9 132.184 202.295C134.973 203.69 134.624 201.074 133.404 199.854C132.184 198.633 129.744 196.366 128.872 195.493C127.129 193.925 124.515 192.529 125.038 194.97C125.56 197.412 125.735 198.807 124.166 201.946C124.166 201.946 125.212 205.26 128.698 210.841C131.138 214.852 131.661 216.596 129.395 215.723C127.129 214.852 126.083 214.153 123.469 211.364C121.029 208.573 119.286 208.399 118.414 211.538C117.543 214.677 117.02 218.514 114.58 218.164C113.359 217.99 112.139 215.897 111.616 213.979C111.094 211.887 111.442 209.794 112.837 208.573C115.625 205.957 117.717 202.469 115.625 200.377C113.534 198.284 112.488 197.586 111.268 195.319C110.048 193.052 107.956 188.867 99.9386 188.344C98.7185 188.17 97.6727 187.297 98.5442 184.507C99.2414 182.24 100.461 179.973 97.3241 176.136C95.9297 174.392 94.0124 171.602 95.2325 168.986L95.4068 168.637ZM115.102 189.913C115.8 190.785 119.634 194.273 116.845 194.273C114.057 194.273 112.662 190.785 111.268 188.344C110.048 186.076 109.351 183.286 110.571 181.891C111.616 180.671 114.928 181.717 118.066 185.03C119.111 186.25 119.983 187.994 117.717 187.82C115.277 187.646 113.708 187.994 115.102 189.738V189.913ZM116.845 160.267C118.588 162.011 121.726 159.046 123.12 160.267C124.515 161.661 125.038 161.836 123.469 164.278C121.552 167.417 121.029 172.997 124.166 172.474C126.432 172.125 128.349 166.022 128.524 164.103C128.698 162.185 128.698 159.569 132.881 156.082C134.101 155.035 134.45 154.512 135.147 153.639C136.89 151.895 138.11 149.803 137.587 146.489C137.413 145.618 136.716 144.746 133.927 149.454C132.881 151.198 132.532 152.244 131.661 152.942C130.267 154.338 128.872 154.338 128.872 152.942C129.046 150.85 129.918 148.233 128.349 146.839C126.781 145.443 122.597 146.14 119.286 149.454C117.891 150.85 117.543 152.768 117.02 154.512C116.323 156.779 115.974 158.871 117.02 159.918L116.845 160.267ZM130.964 174.915C130.964 174.915 133.578 177.357 134.45 180.496C135.496 184.332 137.239 189.041 140.899 193.575C140.899 193.575 141.247 197.761 143.513 197.412C144.733 197.237 145.605 195.319 145.256 192.355C144.908 189.216 143.339 185.205 140.899 181.717C140.027 180.321 135.67 174.043 137.936 171.602C139.504 169.858 141.596 172.648 143.862 174.218C146.128 175.962 148.568 178.054 149.788 179.275C151.008 180.496 153.274 181.542 157.806 181.019C160.246 180.671 163.906 179.798 166.521 178.927C168.613 178.054 169.833 177.183 170.181 175.962C170.53 174.915 174.713 172.299 171.053 168.289C167.392 164.278 164.604 164.626 164.604 164.626C164.604 164.626 164.429 163.231 159.375 162.185C158.329 161.836 158.155 162.359 159.026 163.057C159.898 163.929 162.861 168.463 163.209 169.335C163.558 170.207 161.815 171.078 160.072 171.951C158.329 172.822 152.926 176.485 146.825 170.904C142.119 166.545 141.77 164.626 141.596 162.882C141.422 161.661 141.073 160.267 140.202 159.569C138.11 158 135.321 160.092 135.147 163.755C135.147 165.149 135.147 166.719 134.798 168.114C134.45 170.207 133.578 171.777 130.441 174.915H130.964ZM136.367 179.798C136.367 179.798 138.284 180.321 140.376 186.076C140.725 187.123 140.027 187.472 138.807 186.25C137.587 185.03 135.321 182.414 136.367 179.798Z" fill="#00A2E9"/>
<path fill-rule="evenodd" clip-rule="evenodd" d="M646.37 236.302C645.847 237.697 643.058 241.534 638.004 242.755C633.123 243.975 634.866 244.324 631.555 245.196C628.243 246.067 628.243 247.463 629.637 248.684C630.683 249.555 633.123 248.684 637.655 247.289C640.618 246.417 645.324 244.847 646.021 244.673C646.021 244.673 646.544 241.882 648.81 242.755C651.076 243.626 651.25 246.067 649.682 247.637C647.939 249.207 647.764 248.335 645.847 248.858C643.93 249.381 640.792 249.905 635.041 251.648C633.82 251.998 632.949 251.998 632.775 253.218C632.775 253.566 632.775 253.742 633.298 253.916C634.518 254.265 636.261 253.916 636.784 254.962C637.306 256.009 639.049 255.66 639.921 254.962C640.792 254.265 642.535 253.218 643.233 255.31C643.581 256.88 644.104 257.403 644.976 257.054C646.021 256.706 646.196 255.834 645.499 255.136C644.627 254.265 643.058 252.869 645.15 252.172C647.242 251.474 648.287 251.648 648.985 250.951C649.682 250.254 650.553 249.905 651.25 251.823C652.122 253.742 653.342 254.787 655.782 253.742C658.222 252.695 660.314 252.521 661.186 256.531C662.057 260.368 660.14 261.241 658.222 261.065C655.259 260.891 654.562 257.578 652.645 258.101C650.728 258.624 651.599 261.415 649.508 261.589C647.242 261.938 646.196 259.845 641.664 260.891C637.481 261.938 638.701 266.82 640.792 267.344C642.535 267.693 643.407 265.251 643.407 264.553C643.407 263.856 644.627 262.809 646.544 266.472C648.462 270.134 648.985 269.088 649.856 266.646C650.553 264.379 651.076 263.333 651.599 262.286C651.948 261.415 653.168 261.415 653.691 262.809C654.039 264.205 654.737 268.914 657.525 268.39C660.314 267.867 660.837 267.344 661.534 265.426C662.057 263.856 663.103 264.902 663.103 265.251C663.277 265.774 664.497 266.472 666.415 267.344C668.332 268.216 669.726 271.355 669.378 273.796C669.029 276.237 667.46 277.11 664.497 276.063C661.534 275.017 662.754 273.97 659.094 274.145C655.434 274.319 653.865 273.97 650.902 273.448C647.764 272.925 643.93 271.704 643.756 273.273C643.581 274.843 644.104 276.936 645.847 278.505C647.416 280.074 650.379 283.039 647.59 286.353C645.673 288.62 642.71 288.097 641.49 285.306C640.27 282.516 635.389 271.529 637.829 268.041C640.444 264.553 638.178 264.379 637.481 263.856C636.609 263.333 635.215 261.763 634.866 260.019C634.518 257.578 630.16 258.45 628.417 253.043C627.72 251.125 622.142 246.417 615.868 243.103C614.996 242.58 612.033 239.79 616.042 238.22C620.051 236.65 623.885 237.523 627.894 238.918C629.637 239.441 628.417 240.662 627.197 241.882C625.628 243.452 625.454 244.324 627.023 244.149C627.894 243.975 630.16 243.452 632.077 242.929C633.82 242.406 635.215 241.534 635.563 240.836C636.086 239.964 638.004 239.267 638.875 239.092C639.747 238.918 642.013 238.046 643.233 236.302C643.93 235.256 645.673 234.383 646.544 234.383C647.242 234.383 647.59 234.558 647.067 236.127L646.37 236.302ZM621.445 252.869C620.399 254.09 619.528 255.834 621.445 256.706C623.188 257.753 623.537 258.798 623.885 259.671C624.234 260.542 625.803 261.938 624.757 262.461C623.537 262.809 623.885 261.589 622.142 262.112C620.399 262.635 618.831 263.682 617.611 263.682C616.39 263.507 615.868 263.159 614.647 260.194C612.207 253.566 612.904 250.079 610.116 250.602C607.85 251.125 608.024 253.043 608.721 255.31C609.418 257.578 612.556 263.333 613.079 264.728C613.602 266.297 611.51 267.344 609.941 267.867C608.373 268.39 605.932 267.693 604.712 267.867C604.712 267.867 603.841 265.426 603.144 265.077C602.446 264.728 601.401 262.286 601.924 260.542C602.446 258.798 601.401 257.578 599.135 259.147C596.869 260.717 591.117 268.564 595.126 271.704C598.612 274.494 602.795 276.063 608.721 273.97C614.125 272.226 614.473 271.878 617.785 271.355C617.785 271.355 617.785 273.622 619.354 274.494C620.051 275.017 620.574 277.11 620.922 278.156C621.271 279.202 621.445 283.039 624.06 280.946C626.5 279.202 627.197 276.761 624.931 273.97C622.491 271.355 620.748 269.088 621.097 266.82C621.445 264.728 623.711 266.646 625.105 267.17C626.5 267.693 628.94 269.437 631.206 271.355C633.472 273.273 634.169 272.576 634.518 269.785C634.692 266.995 633.646 266.297 632.077 265.251C630.509 264.205 627.023 260.891 625.977 258.275C624.931 255.485 624.931 255.136 624.583 254.09C624.234 253.043 622.84 251.648 621.794 252.869H621.445Z" fill="#00A2E9"/>
<path fill-rule="evenodd" clip-rule="evenodd" d="M308.754 564.334H317.12C318.34 564.334 319.735 563.811 320.955 562.764C321.652 562.067 322.349 561.719 322.872 561.719C323.395 561.893 323.744 562.067 323.918 562.59C323.918 562.764 323.744 563.113 323.569 563.637C323.221 564.683 322.872 565.904 322.698 566.95C322.349 568.171 321.652 568.694 320.606 568.694H303.699C302.479 568.694 301.782 568.345 301.956 567.473C301.956 565.729 304.222 562.416 308.928 557.532C314.506 551.952 317.295 547.941 317.295 545.325C317.12 542.36 315.552 540.791 312.588 540.442C309.451 540.791 307.708 542.36 307.534 544.802C307.534 545.325 307.708 545.848 308.057 546.545C308.405 547.069 308.58 547.418 308.754 547.767C308.58 548.988 307.708 549.511 305.965 549.511C303.873 549.511 302.828 548.289 302.828 546.023C303.525 541.14 307.011 538.524 313.634 538.001C319.735 538.175 323.046 540.791 323.569 545.674C323.569 548.813 320.955 552.476 315.726 557.009C312.414 559.975 310.148 562.416 308.928 564.16L308.754 564.334Z" fill="#00A2E9"/>
<path fill-rule="evenodd" clip-rule="evenodd" d="M329.672 553.521C330.195 543.756 334.029 538.698 341.35 538.001C348.496 538.524 352.331 543.756 352.854 553.521C352.331 563.462 348.496 568.519 341.35 568.868C334.029 568.519 330.195 563.287 329.672 553.521ZM336.121 553.521C336.121 562.241 337.864 566.601 341.35 566.775C344.836 566.601 346.579 562.241 346.579 553.521C346.405 544.977 344.662 540.616 341.35 540.442C337.864 540.616 336.121 544.977 336.121 553.521Z" fill="#00A2E9"/>
<path fill-rule="evenodd" clip-rule="evenodd" d="M358.43 553.521C358.953 543.756 362.788 538.698 370.108 538.001C377.255 538.524 381.089 543.756 381.612 553.521C381.089 563.462 377.255 568.519 370.108 568.868C362.788 568.519 358.953 563.287 358.43 553.521ZM364.879 553.521C364.879 562.241 366.622 566.601 370.108 566.775C373.594 566.601 375.337 562.241 375.337 553.521C375.163 544.977 373.42 540.616 370.108 540.442C366.622 540.616 364.879 544.977 364.879 553.521Z" fill="#00A2E9"/>
<path fill-rule="evenodd" clip-rule="evenodd" d="M393.461 542.709L392.938 551.255C394.855 550.383 396.947 549.859 399.213 549.859C406.01 550.208 409.496 553.347 409.845 558.928C409.671 565.38 405.313 568.868 397.121 569.042C391.543 568.868 388.406 566.95 387.883 563.287C387.883 561.719 388.755 560.846 390.498 560.672C392.066 560.846 392.938 561.543 393.112 562.764C393.112 563.113 393.112 563.637 393.112 563.811C393.112 565.904 394.506 566.775 397.121 566.775C401.304 566.775 403.396 564.334 403.744 559.276C403.57 554.743 401.478 552.476 397.818 552.301C396.249 552.301 394.506 552.999 392.938 554.22C392.241 554.743 391.718 555.091 391.369 555.091C390.323 555.265 389.975 554.568 390.323 552.999L391.369 538.175C392.415 538.349 393.286 538.349 394.332 538.524C395.901 538.698 397.644 538.872 399.735 538.872C400.956 538.872 402.524 538.698 404.616 538.349C405.836 538.175 406.882 538.001 407.405 538.001C408.102 538.001 408.276 538.349 408.276 539.048C408.102 541.663 404.442 542.884 397.295 542.884C395.727 542.884 394.681 542.884 394.158 542.884L393.461 542.709Z" fill="#00A2E9"/>
<path fill-rule="evenodd" clip-rule="evenodd" d="M66.3019 415.751L85.9978 411.043C86.5207 410.869 86.8693 410.345 87.0436 409.648C87.2179 408.951 87.5665 408.602 88.0894 408.427C88.7866 408.252 89.1352 408.602 89.4838 409.996L92.6212 423.076C93.8413 428.482 92.6212 431.796 88.7866 432.842C85.1263 433.54 82.3375 431.97 80.4202 427.959H80.2459C81.1174 433.016 79.5487 436.33 75.7141 437.551C70.6594 438.597 67.1734 435.807 65.4304 429.355L62.293 416.275C61.9444 415.054 62.293 414.357 62.9902 414.182C63.5131 414.007 63.8617 414.357 64.2103 414.88C64.7332 415.577 65.2561 415.926 66.1276 415.577L66.3019 415.751ZM85.6492 416.972L78.3286 418.716C80.9431 424.994 83.9062 427.611 87.3922 426.738C89.4838 426.215 90.181 423.948 89.3095 420.286C88.7866 416.972 87.5665 415.926 85.6492 416.798V416.972ZM75.8884 419.239L69.0907 420.809C66.8248 420.983 66.1276 422.379 66.9991 424.994C68.2192 430.052 70.6594 432.319 74.1454 431.622C77.1085 430.749 78.5029 428.482 78.5029 424.994L75.8884 419.239Z" fill="#00A2E9"/>
<path fill-rule="evenodd" clip-rule="evenodd" d="M80.0743 439.643C86.3491 438.074 90.5323 440.515 92.7982 447.142C93.844 451.85 92.7982 454.641 89.8351 455.861C86.3491 456.734 83.2117 453.246 80.2486 445.573C77.6341 446.967 76.5883 449.061 77.2855 451.85C77.8084 453.594 79.0285 455.164 80.9458 456.384C80.9458 456.384 80.9458 456.384 81.1201 456.56C81.643 456.734 81.9916 457.082 82.1659 457.605C82.1659 458.128 81.9916 458.478 81.643 458.652C78.5056 458.303 76.2397 455.861 74.4967 451.502C73.1023 445.573 75.0196 441.736 80.0743 439.643ZM90.7066 447.491C89.4865 444.177 86.6977 443.13 81.9916 444.526C83.9089 449.409 86.1748 451.502 88.7893 450.805C90.358 450.281 91.0552 449.061 90.5323 447.491H90.7066Z" fill="#00A2E9"/>
<path fill-rule="evenodd" clip-rule="evenodd" d="M80.4197 471.035L78.5024 465.628C78.1538 464.756 78.3281 464.233 79.0253 464.058C79.3739 463.884 79.5482 464.058 79.8968 464.407C80.4197 465.105 81.1169 465.28 82.1627 464.93L91.5749 461.617C92.0978 461.443 92.4464 460.745 92.4464 459.873C92.6207 459.349 92.795 459.001 93.1436 458.826C93.4922 458.652 93.8408 458.826 94.3637 459.525C94.3637 459.525 94.538 459.699 94.7123 459.873C96.281 461.617 97.1525 462.837 97.3268 463.361C97.8497 464.233 96.9782 464.93 94.8866 465.628L83.7314 469.639C82.6856 469.813 82.337 470.511 82.337 471.209C82.337 471.732 82.1627 472.08 81.8141 472.08C81.1169 472.255 80.7683 472.08 80.4197 471.209V471.035ZM103.602 459.349C104.125 461.093 103.602 462.314 102.033 463.012C100.29 463.536 99.0698 462.837 98.3726 460.919C97.6754 459.001 98.1983 457.606 99.767 457.082C101.336 456.56 102.556 457.431 103.427 459.349H103.602Z" fill="#00A2E9"/>
<path fill-rule="evenodd" clip-rule="evenodd" d="M109.878 471.732L100.641 475.568C102.558 476.615 103.952 478.185 104.824 480.277C106.567 484.463 105.172 487.602 100.641 489.52L93.8432 492.31C92.9717 492.659 92.4488 493.182 92.4488 494.054C92.4488 494.577 92.2745 494.926 91.9259 495.1C91.2287 495.45 90.7058 495.1 90.5315 494.228L88.2656 488.822C87.917 487.951 88.0913 487.427 88.7885 487.252C89.1371 487.078 89.4857 487.252 89.8343 487.427C90.3572 487.951 91.0544 488.125 92.1002 487.776L98.5493 485.16C101.686 484.114 102.732 482.196 101.512 479.754C100.292 477.487 98.5493 476.789 96.1091 477.661L88.9628 480.626C88.0913 480.975 87.5684 481.497 87.5684 482.37C87.5684 482.893 87.3941 483.242 87.0455 483.416C86.3483 483.764 85.8254 483.416 85.6511 482.544L83.3852 477.138C83.0366 476.266 83.2109 475.743 83.9081 475.568C84.2567 475.394 84.6053 475.568 84.9539 475.743C85.4768 476.441 86.3483 476.441 87.2198 476.091L105.87 468.244C106.392 468.069 106.741 467.372 106.915 466.325C106.915 465.803 107.09 465.454 107.438 465.28C107.787 465.105 107.961 465.28 108.31 465.628L108.484 465.803C110.053 467.372 111.099 468.592 111.621 469.639C112.144 470.511 111.447 471.209 109.878 471.906V471.732Z" fill="#00A2E9"/>
<path fill-rule="evenodd" clip-rule="evenodd" d="M103.082 515.33L101.687 512.714C100.99 511.493 101.513 510.622 102.733 510.273V510.098C100.99 509.575 99.4215 508.179 98.0271 505.564C96.2841 501.727 96.807 498.938 99.7701 497.194C103.779 495.45 107.788 498.239 111.797 505.215C113.888 503.994 114.586 502.25 113.714 500.158C113.191 499.112 112.32 498.239 110.925 497.716C110.054 497.194 109.357 496.67 109.008 495.972C108.485 494.926 108.659 494.228 109.531 493.88C111.1 493.357 113.191 495.101 115.457 498.938C118.072 504.169 117.374 507.831 113.54 509.923L106.219 513.586C105.522 513.935 105.173 514.458 105.173 515.33C105.173 516.028 104.999 516.377 104.825 516.551C104.128 517.074 103.605 516.725 102.907 515.504L103.082 515.33ZM106.219 508.179L110.228 506.261C107.962 502.425 105.348 501.03 102.385 502.076C100.467 503.297 99.9444 504.867 100.816 506.785C101.862 508.529 103.605 509.052 106.219 508.179Z" fill="#00A2E9"/>
<path fill-rule="evenodd" clip-rule="evenodd" d="M112.487 528.584L109.698 523.527C109.175 522.654 109.35 522.131 109.872 521.783C110.221 521.608 110.395 521.609 110.744 521.957C111.441 522.48 112.138 522.48 113.01 521.957L121.725 517.074C122.248 516.725 122.422 516.202 122.422 515.155C122.422 514.632 122.596 514.11 122.945 513.934C123.294 513.586 123.642 513.76 124.165 514.458C124.165 514.458 124.339 514.632 124.514 514.807C126.431 516.202 127.477 517.248 127.651 517.771C128.348 518.469 127.651 519.341 125.734 520.387L115.45 526.317C114.579 526.665 114.23 527.363 114.23 528.235C114.23 528.758 114.23 529.106 113.881 529.282C113.358 529.63 112.836 529.456 112.313 528.584H112.487ZM133.229 513.063C134.1 514.807 133.752 516.028 132.357 516.899C130.788 517.771 129.394 517.248 128.523 515.504C127.477 513.76 127.825 512.366 129.22 511.493C130.788 510.796 132.009 511.319 133.229 513.063Z" fill="#00A2E9"/>
<path fill-rule="evenodd" clip-rule="evenodd" d="M133.235 537.652C140.73 532.246 147.876 532.943 154.848 539.57C157.637 543.233 158.857 546.371 158.508 549.162C157.462 550.557 156.417 551.429 155.719 552.301C155.022 552.824 154.499 552.65 153.976 552.126C153.628 551.603 153.628 551.08 154.151 550.208C154.325 550.033 154.499 550.033 154.499 549.859C155.719 546.721 155.196 543.756 152.931 540.966C148.747 536.605 143.693 536.78 137.766 541.663C132.189 546.895 131.492 551.777 135.326 556.661C136.895 558.579 139.335 559.625 142.473 559.975C143.693 560.149 144.564 560.323 144.738 560.497C145.087 561.02 145.087 561.543 144.738 562.067C140.73 563.462 136.546 561.893 132.363 557.358C126.96 550.208 127.134 543.581 133.235 537.652Z" fill="#00A2E9"/>
<path fill-rule="evenodd" clip-rule="evenodd" d="M165.827 573.402C161.469 577.238 156.763 577.064 152.057 572.879C147.525 568.171 147.177 563.462 151.011 558.928C155.369 555.091 160.075 555.091 165.13 559.451C169.313 564.16 169.487 568.868 165.827 573.402ZM154.672 562.59C151.534 566.078 151.011 568.868 153.451 571.309C155.892 573.402 158.68 572.879 161.992 569.739C164.955 566.252 165.478 563.462 163.387 561.02C160.772 558.928 157.809 559.451 154.497 562.59H154.672Z" fill="#00A2E9"/>
<path fill-rule="evenodd" clip-rule="evenodd" d="M167.391 588.052L163.208 584.39C162.337 583.691 162.162 583.168 162.86 582.646C163.208 582.297 163.383 582.297 163.905 582.297C164.777 582.646 165.474 582.297 165.997 581.599L179.418 566.427C179.941 565.904 179.941 565.207 179.418 564.508C179.244 563.811 179.244 563.288 179.592 562.939C180.638 562.764 182.556 563.463 185.17 565.032C185.867 565.555 185.693 566.427 184.473 567.822L169.483 584.912C168.786 585.61 168.612 586.308 168.96 587.005C169.309 587.528 169.309 588.052 168.96 588.226C168.437 588.749 167.914 588.749 167.217 588.052H167.391Z" fill="#00A2E9"/>
<path fill-rule="evenodd" clip-rule="evenodd" d="M183.427 600.433L178.895 596.945C178.024 596.248 177.849 595.725 178.372 595.201C178.547 594.853 178.895 594.853 179.418 594.853C180.29 595.027 180.987 594.853 181.51 594.155L194.059 578.285C194.408 577.762 194.408 577.065 194.059 576.367C193.711 575.844 193.885 575.147 194.234 574.798C195.279 574.448 197.197 575.147 199.986 576.716C200.683 577.239 200.508 578.111 199.463 579.506L185.519 597.295C184.821 597.992 184.821 598.863 185.17 599.387C185.519 599.91 185.519 600.259 185.344 600.607C184.996 601.131 184.299 601.131 183.601 600.433H183.427Z" fill="#00A2E9"/>
<path fill-rule="evenodd" clip-rule="evenodd" d="M203.303 599.91C207.138 594.678 212.018 594.155 217.944 597.992C221.605 600.956 222.651 603.921 220.908 606.711C218.642 609.502 214.11 608.805 206.964 604.444C205.743 607.235 206.266 609.502 208.532 611.246C210.101 612.292 212.018 612.815 214.11 612.467C214.11 612.467 214.11 612.467 214.284 612.467C214.807 612.292 215.33 612.292 215.853 612.641C216.201 612.99 216.201 613.338 216.027 613.861C213.413 615.605 210.101 615.082 205.918 612.641C201.212 608.979 200.166 604.618 203.129 599.91H203.303ZM216.55 599.562C213.587 597.643 210.798 598.689 207.835 602.526C212.367 605.317 215.504 605.491 217.073 603.224C217.944 601.829 217.77 600.607 216.376 599.562H216.55Z" fill="#00A2E9"/>
<path fill-rule="evenodd" clip-rule="evenodd" d="M245.479 611.594L244.259 610.722C244.607 612.989 244.259 615.082 243.213 616.825C241.47 619.442 239.204 620.662 236.415 620.837C238.158 622.93 238.507 624.848 237.81 626.417C235.544 629.556 231.709 629.382 226.132 626.068C221.251 622.93 219.508 620.488 220.38 618.569C221.425 617.175 223.168 617.001 225.26 618.046C225.957 618.395 226.132 618.919 225.957 619.442C225.957 619.442 225.783 619.442 225.434 619.616C225.26 619.79 225.086 619.965 224.911 620.139C224.214 621.012 225.086 622.232 227.526 623.801C230.489 625.545 232.406 625.72 233.452 624.15C233.975 623.104 233.801 621.883 232.755 620.139C231.709 619.79 230.838 619.442 230.315 619.093C225.434 615.78 224.214 611.769 226.829 607.06C229.966 602.177 234.498 601.305 240.076 604.444C240.773 604.967 241.819 605.665 243.213 606.711C244.607 607.758 245.653 608.455 246.525 608.978C247.919 609.85 248.442 610.548 247.919 611.245C247.396 611.943 246.699 611.943 245.479 611.245V611.594ZM238.681 614.036C240.773 610.548 240.599 607.932 238.507 606.362C236.067 605.141 233.801 606.188 231.535 609.502C229.443 612.989 229.443 615.605 231.709 617.175C233.975 618.569 236.415 617.524 238.681 614.036Z" fill="#00A2E9"/>
<path fill-rule="evenodd" clip-rule="evenodd" d="M247.748 623.627C250.362 617.698 254.894 615.954 261.518 618.396C265.875 620.489 267.444 623.104 266.398 626.069C264.829 629.382 260.123 629.732 252.28 627.115C251.757 630.08 252.803 632.173 255.417 633.394C257.16 634.091 259.077 634.091 261.169 633.394C261.169 633.394 261.169 633.394 261.343 633.394C261.866 633.044 262.389 633.044 262.912 633.219C263.261 633.568 263.435 633.917 263.435 634.44C261.169 636.707 257.857 637.056 253.325 635.486C247.748 632.87 246.005 629.033 247.574 623.802L247.748 623.627ZM260.472 620.314C257.16 619.268 254.546 620.837 252.803 625.197C257.857 626.766 260.82 626.244 262.04 623.802C262.563 622.233 262.04 621.012 260.472 620.314Z" fill="#00A2E9"/>
<path fill-rule="evenodd" clip-rule="evenodd" d="M307.709 640.892C305.792 646.472 301.609 648.565 295.508 647.171C289.233 645.252 286.619 641.416 287.839 635.661C289.756 630.08 293.939 627.988 300.388 629.033C306.489 631.126 308.929 635.137 307.883 640.892H307.709ZM292.719 636.881C291.673 641.416 292.719 644.206 295.857 645.078C298.994 645.775 301.26 643.857 302.48 639.497C303.526 634.963 302.48 632.173 299.517 631.126C296.205 630.603 293.939 632.521 292.545 636.881H292.719Z" fill="#00A2E9"/>
<path fill-rule="evenodd" clip-rule="evenodd" d="M320.783 637.405L319.388 649.263C319.214 650.309 319.388 650.833 320.26 651.356C320.783 651.53 320.957 651.879 320.957 652.403C320.957 653.1 320.26 653.448 319.388 653.274L313.811 652.577C312.765 652.403 312.416 652.053 312.59 651.356C312.59 651.007 312.939 650.659 313.288 650.483C313.985 650.309 314.508 649.612 314.682 648.74L316.076 636.881L314.682 636.707C313.636 636.707 313.288 636.184 313.288 635.311C313.288 634.44 313.811 634.091 314.856 634.265L316.251 634.44C316.948 626.941 319.388 623.627 323.92 624.151C326.012 624.674 327.057 625.545 327.057 626.941C326.709 628.162 326.012 628.685 325.14 628.685C324.617 628.685 324.094 628.336 323.746 627.988C323.397 627.638 323.223 627.464 323.048 627.464C322.177 627.289 321.828 628.685 321.654 631.126L321.131 635.137L323.571 635.486C324.443 635.661 324.966 636.009 324.966 636.881C324.791 637.753 324.269 638.102 323.397 637.928L320.957 637.579L320.783 637.405Z" fill="#00A2E9"/>
<path fill-rule="evenodd" clip-rule="evenodd" d="M348.839 650.484L349.362 630.254C349.362 629.732 349.013 629.208 348.142 628.859C347.619 628.51 347.27 628.162 347.27 627.465C347.27 626.766 347.793 626.418 349.013 626.418L362.434 626.766C368.012 626.941 370.801 629.033 370.975 633.044C370.801 636.707 368.535 638.974 364.003 639.846V640.02C369.232 640.543 371.846 642.811 372.195 646.996C371.846 652.228 368.36 654.67 361.737 654.67L348.316 654.321C347.096 654.321 346.399 653.798 346.573 653.1C346.573 652.577 346.922 652.228 347.444 652.054C348.316 651.704 348.665 651.181 348.665 650.484H348.839ZM354.939 631.998L354.765 639.672C361.388 638.8 364.874 636.532 364.874 633.044C364.874 630.777 362.957 629.732 359.123 629.383C355.811 629.033 354.416 629.906 354.939 632.173V631.998ZM354.591 641.939L354.416 648.915C354.068 651.007 355.288 652.054 357.902 652.054C363.131 652.228 365.92 650.484 366.095 646.996C365.92 643.857 364.177 641.939 360.866 641.067L354.591 642.113V641.939Z" fill="#00A2E9"/>
<path fill-rule="evenodd" clip-rule="evenodd" d="M374.812 643.508C374.986 637.055 378.646 633.741 385.618 633.567C390.324 633.917 392.939 635.661 393.113 638.973C392.939 642.636 388.757 644.554 380.564 645.252C381.087 648.216 382.83 649.786 385.793 649.786C387.711 649.786 389.454 649.089 391.197 647.519C391.197 647.519 391.196 647.519 391.37 647.345C391.719 646.821 392.242 646.647 392.764 646.647C393.287 646.821 393.637 646.996 393.637 647.519C392.417 650.483 389.453 652.053 384.747 652.227C378.646 651.879 375.51 649.089 374.987 643.508H374.812ZM385.444 635.66C381.958 635.835 380.216 638.276 380.042 643.159C385.271 642.81 388.059 641.24 388.059 638.451C387.885 636.707 387.013 635.835 385.444 635.835V635.66Z" fill="#00A2E9"/>
<path fill-rule="evenodd" clip-rule="evenodd" d="M404.621 649.438L398.869 650.135C397.823 650.309 397.475 649.96 397.475 649.263C397.475 648.915 397.649 648.74 397.997 648.391C398.695 648.042 399.043 647.345 398.869 646.298L397.649 636.358C397.649 635.835 397.126 635.312 396.08 635.137C395.557 634.963 395.209 634.614 395.209 634.265C395.034 633.917 395.383 633.568 396.08 633.219C396.08 633.219 396.254 633.219 396.429 633.044C398.52 631.824 399.74 631.3 400.438 631.126C401.483 630.777 402.006 631.65 402.181 633.917L403.749 645.775C403.749 646.822 404.272 647.345 404.969 647.519C405.492 647.693 405.841 647.868 405.841 648.216C406.015 648.915 405.492 649.263 404.621 649.438ZM397.997 624.325C399.915 624.151 400.961 625.022 401.309 626.592C401.483 628.336 400.438 629.382 398.52 629.732C396.429 630.08 395.383 629.208 395.034 627.464C394.86 625.72 395.906 624.674 397.997 624.325Z" fill="#00A2E9"/>
<path fill-rule="evenodd" clip-rule="evenodd" d="M414.201 620.663L416.642 630.429C418.036 628.685 419.779 627.638 421.871 626.941C426.228 625.894 429.191 627.638 430.237 632.521L431.98 639.672C432.154 640.717 432.677 641.241 433.374 641.241C433.897 641.241 434.246 641.59 434.246 641.939C434.42 642.636 434.072 642.984 433.2 643.334L427.622 644.728C426.577 644.903 426.228 644.728 426.054 644.031C425.879 643.683 426.054 643.334 426.402 642.984C426.925 642.461 427.274 641.764 427.1 640.892L425.357 634.091C424.834 630.777 423.091 629.556 420.476 630.254C418.036 630.952 417.164 632.696 417.513 635.311L419.43 642.81C419.605 643.857 420.128 644.38 420.825 644.38C421.348 644.38 421.696 644.728 421.696 645.078C421.871 645.775 421.522 646.124 420.65 646.472L415.073 647.868C414.027 648.042 413.504 647.868 413.504 647.171C413.33 646.821 413.504 646.472 413.853 646.124C414.55 645.601 414.724 644.903 414.55 644.031L409.67 624.325C409.495 623.801 408.972 623.278 407.927 623.104C407.404 623.104 407.055 622.756 407.055 622.407C407.055 622.057 407.055 621.883 407.404 621.534C407.578 621.534 407.578 621.36 407.578 621.36C409.321 619.965 410.715 619.093 411.935 618.745C412.807 618.395 413.504 619.093 413.853 620.837L414.201 620.663Z" fill="#00A2E9"/>
<path fill-rule="evenodd" clip-rule="evenodd" d="M456.558 635.312L453.769 636.184C452.375 636.532 451.678 636.009 451.678 634.614H451.504C450.806 636.358 448.889 637.579 446.275 638.451C442.091 639.497 439.477 638.451 438.431 635.138C437.56 630.777 440.871 627.465 448.54 624.848C447.669 622.581 446.1 621.534 443.834 621.884C442.614 622.233 441.743 622.93 440.871 624.151C440.174 625.022 439.477 625.545 438.78 625.721C437.734 626.069 437.037 625.721 436.862 624.674C436.688 622.93 438.78 621.36 442.963 619.966C448.54 618.57 452.026 619.79 453.421 623.977L455.687 631.824C455.861 632.521 456.384 633.044 457.081 633.22C457.778 633.394 458.127 633.568 458.127 633.742C458.476 634.44 457.953 634.963 456.733 635.312H456.558ZM450.109 630.952L448.889 626.592C444.706 627.988 442.789 630.254 443.137 633.394C444.009 635.486 445.403 636.358 447.495 635.835C449.412 635.138 450.283 633.568 449.935 630.777L450.109 630.952Z" fill="#00A2E9"/>
<path fill-rule="evenodd" clip-rule="evenodd" d="M475.381 623.802L472.592 617.349C471.372 614.21 469.629 613.164 467.363 614.21C465.097 615.431 464.4 617.175 465.271 619.616L468.409 626.766C468.757 627.639 469.455 628.162 470.152 628.162C470.849 628.162 471.198 628.336 471.372 628.685C471.72 629.382 471.372 629.906 470.5 630.254L465.271 632.521C464.225 632.87 463.703 632.87 463.528 632.173C463.354 631.824 463.354 631.476 463.703 631.126C464.4 630.603 464.4 629.732 464.051 628.859L460.391 620.314C460.042 619.268 459.345 618.745 458.474 618.919C457.951 618.919 457.602 618.745 457.253 618.046C456.905 617.175 458.125 615.78 460.914 614.036C461.785 613.513 462.657 614.21 463.354 616.303C464.051 613.687 465.446 611.943 467.886 610.897C472.243 608.979 475.206 610.373 477.298 614.908L480.261 621.534C480.61 622.407 481.307 622.93 482.004 622.93C482.527 622.93 482.876 623.104 483.05 623.453C483.399 624.151 483.05 624.674 482.178 625.022L476.949 627.289C475.904 627.639 475.381 627.639 475.206 626.941C475.032 626.592 475.032 626.244 475.381 625.895C476.078 625.371 476.078 624.5 475.729 623.627L475.381 623.802Z" fill="#00A2E9"/>
<path fill-rule="evenodd" clip-rule="evenodd" d="M494.037 597.119L492.642 597.817C494.734 598.689 496.303 600.085 497.174 602.177C498.394 604.967 498.22 607.583 496.651 610.025C499.44 609.676 501.183 610.373 502.055 611.943C503.449 615.605 501.183 618.745 495.431 621.534C490.202 623.801 487.065 624.15 486.019 622.232C485.496 620.488 486.193 619.093 488.285 617.698C488.982 617.349 489.505 617.349 489.854 617.872C489.854 617.872 489.854 618.046 489.854 618.395C489.854 618.745 490.028 618.919 490.028 619.093C490.377 620.139 491.945 619.965 494.56 618.919C497.523 617.349 498.743 615.78 498.046 614.21C497.523 613.338 496.303 612.814 494.385 612.64C493.514 613.338 492.817 613.861 492.294 614.036C486.89 616.302 482.882 615.082 480.267 610.373C477.827 604.967 479.57 600.782 485.322 597.817C486.193 597.468 487.413 596.945 488.982 596.422C490.551 595.898 491.771 595.375 492.642 594.853C494.211 594.155 495.083 594.155 495.257 594.853C495.606 595.724 495.257 596.422 493.863 596.945L494.037 597.119ZM492.294 604.095C490.377 600.433 488.285 599.038 485.845 600.085C483.579 601.479 483.23 603.921 484.799 607.583C486.542 611.246 488.808 612.64 491.248 611.594C493.688 610.373 494.037 607.932 492.294 604.095Z" fill="#00A2E9"/>
<path fill-rule="evenodd" clip-rule="evenodd" d="M508.323 580.727L513.727 576.541C514.424 576.018 515.121 576.018 515.47 576.367C515.818 576.89 515.818 577.588 515.295 578.285C514.947 578.808 514.947 579.158 515.121 579.332C517.91 583.866 520.35 587.528 522.79 590.667C526.625 595.724 530.46 596.597 534.643 593.283C538.477 590.319 538.826 586.482 535.34 581.773C534.294 580.552 532.551 578.634 530.634 576.018C528.542 573.751 527.322 572.182 526.625 571.659C526.102 571.31 525.405 571.31 524.359 571.484C523.488 571.659 522.965 571.484 522.79 571.135C522.442 570.612 522.442 570.089 522.965 569.74L527.496 566.252C528.194 565.904 528.717 565.904 529.065 566.427C529.239 566.775 529.239 567.124 529.065 567.822C528.717 568.694 528.717 569.391 529.239 569.915C529.414 570.089 529.762 570.612 530.46 571.484C532.551 573.577 534.817 576.192 537.257 579.158C542.138 585.435 541.44 591.19 534.817 596.248C528.542 600.782 523.313 600.433 518.781 595.201C517.561 593.631 515.993 591.539 514.25 588.749C512.681 586.307 511.635 584.564 510.938 583.517C510.589 583.168 510.066 582.994 509.195 583.168C508.498 583.517 508.149 583.343 507.801 582.82C507.452 582.296 507.626 581.599 508.498 581.076L508.323 580.727Z" fill="#00A2E9"/>
<path fill-rule="evenodd" clip-rule="evenodd" d="M553.645 569.566L548.939 564.508C546.848 561.892 544.756 561.543 543.013 563.287C541.27 565.031 541.27 567.124 542.839 569.042L548.068 574.797C548.765 575.495 549.462 575.844 550.159 575.495C550.682 575.321 551.205 575.321 551.38 575.495C551.902 576.018 551.728 576.541 551.031 577.239L546.848 581.076C545.976 581.773 545.453 581.947 545.105 581.25C544.756 580.902 544.756 580.552 544.93 580.203C545.279 579.506 545.105 578.634 544.408 577.936L538.133 571.135C537.436 570.263 536.564 570.089 535.867 570.438C535.344 570.612 534.995 570.438 534.472 570.089C533.95 569.216 534.647 567.648 536.564 565.031C537.087 564.16 538.133 564.683 539.701 566.427C539.527 563.811 540.224 561.718 542.142 559.974C545.628 556.835 548.939 557.009 552.251 560.672L557.131 566.078C557.829 566.775 558.526 567.124 559.223 566.775C559.746 566.601 560.095 566.601 560.443 566.95C560.966 567.472 560.792 567.996 560.095 568.694L555.911 572.53C555.04 573.228 554.517 573.403 554.168 572.704C553.82 572.356 553.82 572.007 553.994 571.659C554.343 570.96 554.168 570.089 553.471 569.392L553.645 569.566Z" fill="#00A2E9"/>
<path fill-rule="evenodd" clip-rule="evenodd" d="M570.032 559.8L566.023 563.985C565.326 564.683 564.803 564.858 564.28 564.16C564.105 563.985 564.105 563.637 564.105 563.288C564.454 562.59 564.28 561.719 563.583 561.02L556.436 554.045C556.088 553.697 555.39 553.521 554.519 554.045C553.996 554.22 553.473 554.045 553.299 553.871C552.95 553.697 552.95 553.173 553.299 552.476C553.299 552.476 553.299 552.301 553.473 552.127C554.345 549.86 555.042 548.639 555.39 548.116C555.913 547.244 556.959 547.592 558.528 549.162L567.069 557.533C567.766 558.231 568.463 558.579 569.16 558.056C569.683 557.882 570.032 557.882 570.206 558.056C570.729 558.579 570.729 559.102 570.032 559.8ZM549.29 544.28C550.684 543.058 552.079 542.884 553.299 543.93C554.519 545.325 554.345 546.546 553.125 548.116C551.73 549.685 550.336 549.685 548.941 548.465C547.721 547.244 547.896 545.848 549.29 544.28Z" fill="#00A2E9"/>
<path fill-rule="evenodd" clip-rule="evenodd" d="M570.728 530.85L573.517 527.711C573.865 527.188 574.388 527.188 574.737 527.537C575.085 527.711 575.26 528.061 575.26 528.584C575.434 529.281 575.608 529.805 575.957 530.502C578.92 535.21 581.36 539.745 582.755 543.93C582.755 544.104 582.755 544.104 582.755 544.104C582.755 544.627 582.406 545.325 581.534 546.197C580.663 547.244 579.617 547.592 578.397 547.418C574.214 547.069 569.508 545.325 564.279 542.36C564.104 542.36 563.756 542.36 563.233 542.36C562.536 542.535 562.187 542.36 561.664 542.012C561.316 541.663 561.316 541.14 561.839 540.616L566.022 535.734C566.545 535.21 566.893 535.21 567.242 535.385C567.416 535.734 567.59 536.082 567.416 536.78C567.242 537.478 567.416 538.001 567.765 538.175C570.379 540.093 574.214 541.489 579.617 542.535C578.048 538.175 575.957 534.861 573.517 532.246C572.994 531.897 572.297 531.897 571.599 531.897C571.076 532.072 570.554 532.072 570.205 531.723C569.856 531.373 569.856 531.025 570.379 530.328L570.728 530.85Z" fill="#00A2E9"/>
<path fill-rule="evenodd" clip-rule="evenodd" d="M584.84 529.282C579.96 525.096 579.611 520.213 583.794 514.632C586.932 511.145 589.895 510.272 592.684 512.016C595.298 514.458 594.427 518.992 589.721 525.794C592.509 527.188 594.775 526.84 596.518 524.573C597.738 523.177 598.261 521.259 598.087 518.992C598.087 518.992 598.087 518.992 598.087 518.818C597.913 518.121 598.087 517.771 598.261 517.248C598.61 516.899 599.133 516.899 599.481 517.074C601.05 519.865 600.353 523.177 597.738 527.014C593.729 531.549 589.546 532.246 584.84 529.106V529.282ZM585.189 516.028C583.271 518.818 583.969 521.783 587.803 524.921C590.766 520.562 591.115 517.422 589.023 515.678C587.629 514.632 586.409 514.807 585.189 516.202V516.028Z" fill="#00A2E9"/>
<path fill-rule="evenodd" clip-rule="evenodd" d="M610.463 507.134L607.674 512.19C607.326 512.889 606.803 513.237 606.106 512.889C605.757 512.714 605.583 512.365 605.583 512.016C605.757 511.145 605.409 510.446 604.537 510.098L597.914 506.435C596.345 505.738 594.951 505.564 594.079 506.261C593.73 506.61 593.208 506.61 592.859 506.435C592.51 506.261 592.336 505.39 592.336 504.343C592.336 504.169 592.336 503.82 592.336 503.646C592.51 502.599 592.51 501.727 592.859 501.029C593.382 500.158 594.776 500.332 597.391 501.379C597.391 501.379 597.565 501.379 597.739 501.379V501.204C595.822 498.762 595.299 496.495 596.345 494.577C597.216 493.356 598.437 493.007 599.831 493.706C601.051 494.403 601.4 495.274 600.702 496.321C600.528 496.495 600.354 496.844 600.005 497.193C599.657 497.368 599.308 497.716 598.959 498.065C598.437 499.983 599.657 501.727 602.271 503.471L606.629 505.913C607.5 506.435 608.197 506.435 608.895 505.913C609.243 505.564 609.766 505.564 610.115 505.738C610.638 506.087 610.812 506.61 610.463 507.482V507.134Z" fill="#00A2E9"/>
<path fill-rule="evenodd" clip-rule="evenodd" d="M607.155 487.776C603.843 486.032 602.971 482.893 604.714 478.185C606.283 474.871 608.026 473.301 609.769 473.476C611.512 474.173 612.209 474.871 611.686 475.22C611.512 475.743 610.989 476.091 610.118 476.266C608.375 476.789 607.329 477.661 606.632 479.056C605.934 480.8 606.283 482.021 607.852 482.719C608.898 483.067 610.118 482.196 611.686 479.928C614.301 476.441 616.741 475.22 619.007 476.266C622.667 478.185 623.539 481.497 621.447 486.381C619.878 490.043 617.613 491.787 614.998 491.787C613.952 491.263 613.604 490.566 613.778 489.695C613.952 489.171 614.649 488.822 615.87 488.648C617.613 488.299 618.833 487.252 619.53 485.858C620.227 483.94 619.878 482.544 618.484 481.672C617.438 481.149 616.044 482.196 614.475 484.463C612.035 487.776 609.769 488.996 607.329 487.951L607.155 487.776Z" fill="#00A2E9"/>
<path fill-rule="evenodd" clip-rule="evenodd" d="M632.599 466.848L629.985 472.08C629.636 472.953 629.113 473.301 628.416 472.778C628.068 472.603 628.068 472.429 628.068 471.906C628.068 471.035 627.719 470.336 626.847 469.988L617.958 465.628C617.435 465.28 616.738 465.628 616.041 466.151C615.518 466.5 615.169 466.5 614.821 466.325C614.472 466.325 614.298 465.803 614.472 464.93C614.472 464.93 614.472 464.756 614.472 464.407C614.646 461.966 614.821 460.571 615.169 460.048C615.344 459.001 616.564 459.175 618.481 460.222L629.113 465.454C629.985 465.977 630.682 465.977 631.379 465.28C631.728 464.93 632.076 464.756 632.425 464.93C633.122 465.28 633.122 465.803 632.774 466.674L632.599 466.848ZM608.023 458.478C608.895 456.908 610.115 456.385 611.683 456.908C613.252 457.781 613.601 459.175 612.729 460.919C611.858 462.837 610.638 463.361 608.895 462.489C607.5 461.617 607.152 460.222 607.849 458.304L608.023 458.478Z" fill="#00A2E9"/>
<path fill-rule="evenodd" clip-rule="evenodd" d="M620.229 443.48L621.275 440.516C621.623 439.643 622.146 439.295 622.844 439.643C623.715 439.992 623.889 440.69 623.366 441.388L622.321 444.353L632.604 448.363C634.173 449.235 635.219 448.712 635.742 446.794C636.265 445.224 636.962 444.701 637.485 445.05C638.356 445.398 638.531 445.921 638.182 446.794L636.265 451.851C635.393 453.944 634.347 454.641 632.779 453.77L620.403 449.061L619.88 450.63C619.532 451.502 619.009 451.851 618.312 451.502C617.615 451.153 617.44 450.456 617.963 449.061C618.486 447.491 617.44 445.747 615 444.178C613.78 443.306 613.257 442.609 613.431 442.085C613.606 441.562 614.129 441.388 615.174 441.736L620.055 443.654L620.229 443.48Z" fill="#00A2E9"/>
<path fill-rule="evenodd" clip-rule="evenodd" d="M621.619 430.749L623.014 425.169C623.188 424.471 623.537 424.123 624.234 424.297C624.583 424.297 624.757 424.646 624.931 425.169C625.28 425.691 625.803 426.215 626.674 426.39C633.82 427.435 637.829 426.913 638.875 424.646C638.875 422.902 635.563 420.635 628.591 418.368C627.894 418.193 627.197 418.542 626.5 419.239C625.977 419.588 625.628 419.762 625.105 419.762C624.757 419.762 624.583 419.414 624.583 418.891L625.803 414.182C626.151 413.484 626.5 413.136 626.848 413.136C627.197 413.31 627.546 413.484 627.72 414.182C628.069 415.054 628.766 415.577 629.812 415.926C642.187 421.332 647.939 427.435 647.067 433.714C646.37 435.807 645.499 436.678 644.453 436.504C643.233 436.155 642.884 435.283 643.233 433.714C643.233 433.365 643.581 433.016 643.93 432.319C644.279 431.796 644.453 431.446 644.453 431.272C644.453 429.354 643.233 427.435 640.967 425.169C640.967 425.343 640.967 425.517 640.967 425.691C640.967 426.041 640.967 426.39 640.967 426.564C639.921 430.923 634.866 432.493 625.628 431.622C625.105 431.622 624.757 431.622 624.408 431.446C624.06 431.622 623.537 431.622 623.188 431.97C622.84 432.145 622.491 432.319 622.142 432.145C621.619 431.97 621.445 431.622 621.445 430.923L621.619 430.749Z" fill="#00A2E9"/>
</svg>
