<svg width="889" height="889" viewBox="0 0 889 889" fill="none" xmlns="http://www.w3.org/2000/svg">
<path fill-rule="evenodd" clip-rule="evenodd" d="M237.459 722.85C230.719 721.5 230.779 713.14 233.369 707.91H233.859C237.389 712.48 240.939 717.05 238.499 722.25C238.099 722.97 237.709 722.87 237.459 722.84" fill="#990B12"/>
<path fill-rule="evenodd" clip-rule="evenodd" d="M206.632 737.12C205.762 739.25 203.812 743.46 201.532 745.41C200.742 746.07 200.272 745.61 200.112 745.41C198.962 743.82 199.322 742.04 198.942 740.36C198.832 739.79 198.912 739.19 199.182 738.66C201.822 733.66 203.482 728.48 208.592 725.43V724.98C203.592 723.33 197.312 719.25 192.102 717.24C191.262 716.9 190.262 717.1 189.532 716.68C184.252 713.56 185.982 708.63 186.942 703.87L187.572 702.93C188.432 702.39 189.322 701.9 190.242 701.47L191.172 701.78C192.082 702.96 192.632 704.38 192.762 705.87C192.912 706.55 193.322 707.15 193.902 707.55C209.752 717.93 230.652 721.63 243.702 737.97C244.402 738.69 245.242 739.27 246.162 739.67C249.392 741.04 251.292 744.42 251.942 747.21C252.062 747.81 251.972 748.42 251.702 748.96C250.692 750.69 249.722 751.99 248.412 752.7C247.132 753.16 246.692 751.71 246.142 751.11C243.922 748.63 240.842 746.64 238.212 743.47C236.122 740.95 234.702 738.72 232.492 736.97C227.232 732.85 220.702 730.9 214.902 727.83C214.322 727.49 214.212 727.93 214.142 728.09C213.302 730.27 211.762 730.47 210.182 731.99C209.782 732.43 210.122 732.66 210.342 732.73C213.712 734.11 218.132 736.69 222.482 739.07C225.652 740.78 235.882 744.62 232.932 748.58C232.062 749.78 230.462 748.93 228.432 749.49C227.082 749.85 226.292 750.77 225.422 750.84C222.252 751.18 219.342 749.46 216.752 750.42C216.162 750.57 216.282 751.03 216.312 751.22C216.602 752.97 216.092 754.77 214.922 756.11C214.642 756.44 214.182 756.53 213.802 756.32C211.762 755.26 209.642 754.89 207.752 756.64C207.352 756.93 207.272 757.5 207.562 757.9C207.602 757.95 207.642 757.99 207.682 758.03C209.472 760.26 212.622 762.46 213.922 765.08C214.162 765.71 214.272 766.38 214.242 767.05C214.242 769.73 215.592 773.4 213.872 775.53C213.072 776.51 212.042 776.32 211.002 776.96C210.592 777.3 210.032 777.43 209.512 777.3C203.512 775.07 201.212 768.13 206.552 764.51C206.932 764.25 207.152 763.81 207.122 763.34C207.032 762.03 206.952 760.52 205.042 759.74C200.452 757.78 196.922 769.76 192.422 769.86C192.182 769.86 191.632 769.6 191.502 768.69C191.092 766.81 190.392 764.94 190.242 763C190.162 762.46 190.352 761.91 190.742 761.54C191.882 760.36 193.052 760.27 194.092 758.47L193.882 757.88C192.572 757.4 191.652 759.23 190.382 759.65C189.922 759.78 189.452 759.07 188.872 759.17C186.882 759.48 186.492 761.02 185.012 760.22C182.852 759.06 182.872 755.92 181.842 753.59C181.622 752.97 181.772 752.28 182.232 751.81C184.232 748.8 186.772 746.2 189.722 744.12C190.132 743.9 190.582 743.77 191.042 743.74C195.392 744.04 196.332 748.67 192.232 751.67C191.582 752.05 192.052 752.37 192.372 752.46C194.512 752.97 196.622 753.01 198.782 753.51C199.182 753.64 199.612 753.46 199.802 753.09C200.302 752.49 200.852 751.93 201.432 751.41L201.642 750.61C201.442 750.19 201.072 749.76 200.852 749.34C200.732 748.92 200.782 748.47 200.992 748.09C202.292 745.6 203.242 743.58 205.452 742.88C206.032 742.75 206.642 742.79 207.212 742.98C212.372 744.69 217.512 743.77 222.582 744.22L222.782 743.85C217.802 741.05 212.442 737.47 207.652 736.45C206.772 736.22 206.702 736.79 206.582 737.08" fill="#990B12"/>
<path fill-rule="evenodd" clip-rule="evenodd" d="M306.771 767.46C306.741 766.94 306.531 766.44 306.171 766.06C305.661 765.62 305.281 765.05 305.081 764.4C304.851 763.49 305.721 763.49 306.061 763.55C307.821 763.76 310.511 765.56 312.191 767.01C313.381 768 315.141 770.65 314.801 771.76C313.541 775.63 306.831 770.53 306.771 767.47" fill="#990B12"/>
<path fill-rule="evenodd" clip-rule="evenodd" d="M272.109 783.03C271.249 782.94 270.379 783.03 269.549 783.3V783.44C270.429 783.62 271.339 783.51 272.149 783.13V783.03M311.179 789.28C307.289 789.63 303.459 790.47 299.779 791.79C299.079 792 299.429 792.22 299.669 792.31C303.119 793.2 306.439 792.65 309.719 793.1C310.059 793.13 310.369 792.93 310.509 792.63C311.079 791.77 311.529 790.83 311.839 789.85C311.899 789.61 311.879 789.18 311.199 789.26M283.299 783.26C282.619 783.34 281.939 783.39 281.249 783.39C280.639 783.47 280.849 783.88 281.059 783.99C283.299 785.25 286.069 784.36 288.119 783.26L288.589 783.54C287.729 784.74 284.329 785.19 284.189 787.34C284.189 787.66 284.189 788.56 283.399 788.92C281.729 789.65 279.759 789.78 278.219 790.87L278.289 791.13C286.879 788.85 294.929 784.83 303.959 783.77C304.229 783.77 304.709 783.55 304.389 782.85C302.959 779.98 299.989 777.3 298.249 774.53C297.569 773.54 298.789 773.74 299.309 773.86C301.459 774.38 303.869 776.24 305.479 777.73C308.029 780.19 310.379 782.84 312.529 785.66C313.019 786.28 313.359 786.91 314.289 785.92C318.449 781.43 320.819 772.28 325.709 768.67C326.089 768.38 326.279 767.91 326.219 767.44C326.009 766.07 324.879 764.86 324.809 763.43C324.749 762.98 325.129 763.06 325.249 763.12C326.659 763.75 326.529 765.37 327.409 766.68C328.639 768.46 329.939 769.12 330.579 771.29C330.869 772.31 330.249 772.88 330.679 774.39C331.239 776.34 331.969 779.24 329.259 780.96C327.669 781.94 325.439 781.51 323.889 783.1C321.189 785.84 320.429 789.37 317.789 793.2C317.249 794 317.789 794.21 318.139 794.37C321.859 796.15 329.839 797.4 333.439 800.96C333.889 801.36 334.129 801.94 334.099 802.54C334.069 803.24 334.109 803.95 334.199 804.63C334.589 806.26 333.669 806.22 333.289 806.32C332.779 806.44 332.299 806.66 331.799 806.82C331.159 806.99 330.479 806.88 329.929 806.52C325.519 804.02 320.679 802.36 315.659 801.61C315.139 801.47 314.579 801.7 314.309 802.17C308.399 811.57 305.779 824.25 299.739 832.01C298.789 833.21 298.089 832.01 297.679 831.54C296.309 829.96 295.489 827.98 295.369 825.89C295.609 824.44 294.659 823.92 294.799 822.72C295.189 820.49 295.919 819.79 296.799 819.05C297.529 818.37 298.169 817.6 298.689 816.74C301.789 811.68 304.569 806.43 306.999 801.03C301.669 799.7 296.979 800.16 291.619 799.82C287.659 799.58 285.759 798.86 283.149 799.38C279.519 800.11 275.229 803.1 274.339 797.35C272.749 801.06 272.059 805.33 269.099 806.95C268.509 807.16 268.219 806.95 267.799 806.16C267.229 804.95 266.769 803.69 266.419 802.4C266.249 801.77 265.989 801.19 265.629 800.65C265.429 800.24 265.329 799.78 265.319 799.33C265.359 798.55 265.749 797.83 266.389 797.38C267.719 796.06 268.769 794.48 269.489 792.74C269.589 792.5 269.789 792.01 268.939 791.82C266.479 791.33 264.559 792.01 262.389 792.93C261.769 793.17 261.109 793.25 260.449 793.16C257.169 792.54 253.819 792.38 250.489 792.68C249.969 792.79 249.439 792.57 249.159 792.13C248.819 791.4 248.819 790.55 248.169 789.98C247.959 789.78 247.239 789.19 247.549 788.45C247.519 787.52 247.159 786.64 246.549 785.95C246.169 785.51 246.079 784.9 246.309 784.37C248.159 780.09 253.659 780.63 258.459 779.61C262.339 778.82 268.699 775.87 272.899 778.19C273.859 778.73 274.089 780.14 275.079 780.24C275.229 780.24 275.499 780.24 275.959 779.74C277.259 778.15 278.289 775.73 279.649 774.31C279.829 774.12 280.269 773.79 279.499 773.58C276.529 772.86 272.519 774.24 268.459 772.1C267.869 771.68 267.129 771.56 266.439 771.75C262.919 772.4 262.539 768.93 262.429 766.05C262.309 765.38 261.339 764.36 262.559 762.46C263.229 761.35 264.209 760.44 265.379 759.86C265.759 759.64 267.319 758.87 268.239 758.27C271.239 756.18 274.359 754.26 277.589 752.55C283.139 749.96 288.119 750.96 294.949 751.83C295.829 751.72 296.669 751.43 297.439 750.99C297.849 750.85 298.309 750.92 298.639 751.2C301.679 753.6 302.229 757.99 299.879 761.06C299.559 761.48 299.059 761.71 298.529 761.68C296.849 761.44 295.589 762.35 293.659 761.34C292.479 760.85 292.989 759.75 292.169 759.17C282.289 754.65 275.349 759.29 268.959 764.72C267.619 765.68 268.919 766.07 269.459 766.25C274.069 767.74 279.529 767.77 283.969 767.32C284.869 767.28 285.679 766.79 286.129 766.02C287.159 764.43 288.219 763.34 289.079 762.19C289.429 761.78 289.939 761.52 290.489 761.5C293.199 761.69 294.019 765.1 291.869 767.12C291.259 767.68 291.759 767.91 291.979 768.13C293.559 769.63 295.199 770.96 295.229 772.97C295.079 774.38 294.509 774.42 294.239 774.44C292.489 774.57 290.729 774.53 288.989 774.32C288.459 774.32 287.959 774.51 287.549 774.84C285.709 776.65 284.099 779.15 282.449 781.47C281.659 782.56 282.239 782.46 282.449 782.41L283.359 782.61L283.299 783.26Z" fill="#990B12"/>
<path fill-rule="evenodd" clip-rule="evenodd" d="M408.93 819.51C407.31 820.43 405.52 821.01 403.67 821.19C403.2 821.25 403.14 821.46 403.33 821.76C404.05 822.94 405.71 823.55 406.95 824.36C407.44 824.62 407.66 824.82 408.12 824.36C409.12 823.08 409.67 821.5 409.71 819.88C409.62 819.13 409.13 819.43 408.91 819.53M364.77 828.76C365.19 829.14 365.67 829.43 366.2 829.64C366.95 829.95 367.64 830.39 368.24 830.94C368.63 831.44 369.08 831.88 369.58 832.27C370.17 832.74 371.03 832.64 371.51 832.05C371.63 831.9 371.72 831.71 371.77 831.52C373.98 825.72 376.43 819.99 378.7 814.3L378.19 813.95C375.1 816.47 371.55 817.81 369.29 819.58C366.2 822.01 364.14 823.85 363.9 826.77C363.84 827.53 364.18 828.26 364.79 828.71M403.06 831.65C403.69 831.03 403.74 830.04 403.2 829.35C399.89 823.64 388.14 818.97 389.51 811.76C389.67 810.34 390.6 809.12 391.93 808.59C392.57 808.4 393.25 808.69 393.56 809.27C395.64 813.04 397.7 816.82 401.41 819.43L401.68 819.14C400.99 817.92 400.23 816.72 399.62 815.45C399.29 814.65 399.24 813.78 399.48 812.96L399.87 811.81C400.4 810.91 401.31 809.99 401.96 809.09C402.31 808.61 401.78 808.37 401.52 808.25C398.94 807.15 398.49 803.14 400.56 801.39C401.8 800.54 402.33 801.92 403.58 802.27C404.08 802.38 404.6 802.15 404.87 801.72C406.96 798.95 410.13 792.87 412.52 789.52C414.01 787.41 415.32 783.28 418.07 785.03C418.55 785.34 418.85 785.88 418.86 786.45C419.18 792.04 413.65 793.89 412.52 799.55C412.31 800.58 413.08 800.43 413.45 800.35C416.41 799.87 419.71 799.55 421.68 797.77C422.06 797.2 422.68 796.83 423.36 796.77C425.06 796.72 426.34 797.14 428.44 797.51C428.71 797.57 429.45 797.66 429.56 798.37C429.59 799.02 429.51 799.67 429.34 800.3C429.35 800.81 429.15 801.3 428.78 801.65C422.31 804.92 410.01 803.28 408.03 809.95C407.89 810.56 408.33 810.64 408.61 810.45C413.25 807.27 420.69 810.68 420.5 816.37C420.45 817.96 419.46 818.41 418.92 819.74C417.41 823.51 416.75 827.89 415.33 831.07C419.82 836.97 429.6 838 435.59 842.96C436.14 843.45 436.48 844.14 436.52 844.89C436.63 845.62 436.79 846.35 437.01 847.07C437.04 847.79 436.75 848.49 436.21 848.98C435.22 849.89 434.13 850.45 431.98 849.77C424.8 847.57 416 842.73 411.41 838.37C410.95 837.79 410.11 837.68 409.52 838.13C408.98 838.51 408.47 838.94 408.02 839.42C407.05 840.46 405.85 841.28 404.52 841.8C400.29 842.97 395.81 842.88 391.63 841.55C388.15 840.4 385.97 837.21 383.64 835.41C382.76 834.75 382.19 833.75 382.06 832.65C381.8 830.89 381.69 829.11 381.74 827.34H381.42C380.21 830.72 378.25 835.37 377.69 839.86C377.27 842.97 377.8 846.79 375.2 846.72C374.02 846.72 369.7 840.33 368.45 839.58C366.07 838.21 363.73 838 362.1 836.18C360.33 834.27 359.36 831.59 357.94 829.46C357.3 828.7 357.11 827.65 357.46 826.72C357.94 824.82 358.85 823.04 360.12 821.54C361.07 820.46 362.98 818.61 363.56 817.93C370.58 810.1 380.99 810.19 383.89 801.86C384.17 800.96 383.64 801.16 383.34 801.19C378.47 801.71 372.17 803.18 366.13 804.73C363.4 805.41 359.79 806.41 357.96 805.99C355.39 805.39 352.63 802.49 351.53 800.01C351.31 799.48 351.05 798.54 352.32 798.57C364.75 798.63 375.39 795.21 386.58 793.62C388.52 791.56 389.61 788.36 391.54 786.32C392.03 785.81 392.7 785.5 393.41 785.43C397.84 785.13 398.66 789.98 395.16 792.25L395.23 792.51C395.85 792.24 396.51 792.07 397.18 792.02C397.71 792.09 398.14 792.45 398.32 792.95C398.71 794.1 398.32 795.06 398.86 796C399.06 796.35 399.6 796.32 400.05 796.56C400.98 796.92 400.32 797.83 400.12 797.98C398.31 799.51 395.3 799.79 392.73 800.24C392.43 800.23 392.18 800.47 392.18 800.77C392.18 800.85 392.2 800.95 392.24 801.03C392.45 801.65 392.69 802.32 392.88 802.99C393.04 803.56 392.92 804.2 392.55 804.67C392.09 805.13 391.72 805.67 391.44 806.26L390.65 807.41L389.4 807.85C388.73 808.04 388.18 808.53 387.9 809.16C385.21 813.92 382.52 820.88 385.12 824.94C385.75 825.73 386.83 825.79 387.5 826.8C388.18 827.8 388.69 829.37 389.97 830.36C393.65 833.23 399.57 834.93 403.05 831.62" fill="#990B12"/>
<path fill-rule="evenodd" clip-rule="evenodd" d="M530.639 780.55C531.419 780.77 531.999 781.41 532.159 782.2C533.329 786.9 528.309 789.76 526.849 793.09C526.059 794.94 525.859 796.78 525.169 798.49C524.789 799.54 525.329 799.59 525.669 799.65C527.439 799.91 529.749 799.49 531.069 800.59L531.619 802.05C531.599 802.63 531.519 803.21 531.399 803.77C531.209 804.43 530.749 804.98 530.129 805.28C526.819 806.95 523.369 808.19 520.919 810.14C520.129 810.95 518.939 811.22 517.869 810.83C509.159 808.22 502.919 801.08 501.879 790.26C507.659 791.35 511.879 796.17 514.169 800.4C516.989 796.63 519.499 792.63 519.909 786.93C516.359 787.06 512.809 786.74 509.349 785.97C508.679 785.76 508.619 785.3 509.349 784.98C511.719 783.95 514.949 782.68 517.669 781.58C522.299 779.73 526.719 779.05 530.629 780.53" fill="#990B12"/>
<path fill-rule="evenodd" clip-rule="evenodd" d="M546.299 828.87C541.249 828.48 539.088 827.74 537.438 824.65C537.068 823.97 536.129 821.48 534.839 819.89C533.359 817.86 532.499 815.44 532.349 812.93C532.349 812.43 532.298 811.83 532.918 811.86C538.038 812.53 542.059 813.85 544.329 817.41C546.059 820.16 545.759 824.29 546.829 827.56C547.149 828.53 547.029 828.95 546.299 828.84" fill="#990B12"/>
<path fill-rule="evenodd" clip-rule="evenodd" d="M511.139 821.65C512.719 825.03 514.58 828.13 515.1 831.62C515.21 832.35 515.37 833.06 515.58 833.77C516.1 835.55 516.28 836.44 515.66 836.94C513.77 838.52 511.3 836.29 509.32 834.83C508.32 834.16 507.5 833.26 506.94 832.2C504.3 826.65 507.07 823.9 507.74 819.3C507.84 818.51 508.62 817.16 509.72 818.82C510.18 819.62 510.8 820.9 511.15 821.65" fill="#990B12"/>
<path fill-rule="evenodd" clip-rule="evenodd" d="M491.629 810.48H491.089C490.549 810.6 490.059 810.9 489.709 811.33C485.889 815.83 481.089 820.12 479.549 825.8C479.349 826.59 479.889 826.59 480.159 826.45C482.059 825.61 483.619 823.97 485.109 822.37C486.089 821.41 487.019 818.63 489.159 817.25C491.109 816.06 492.329 813.97 492.409 811.7C492.409 811.39 492.259 810.54 491.619 810.48M490.829 802.67C489.769 799.86 490.129 796.19 489.529 793.28C489.469 792.96 489.389 792.33 488.179 792.7C482.309 794.72 479.459 802.36 478.999 808.62C478.919 809.67 479.489 809.49 479.709 809.46C482.549 808.95 481.589 803.91 484.459 802.76C486.349 802.04 488.699 803.4 490.259 803.55C490.759 803.6 491.139 803.34 490.799 802.68M499.619 812.88C500.169 812.49 500.989 811.83 501.549 811.51L501.909 811.75C501.409 813.33 498.689 818.22 500.709 818.6L500.929 819.01C500.349 820.35 499.539 821.11 499.249 822.75C498.579 831.47 499.309 842.02 498.299 850.99C498.129 852.38 497.229 852.11 496.479 851.78C495.219 851.26 494.249 850.2 493.079 849.7C491.929 849.2 491.049 848.22 490.699 847.01C490.369 845.76 490.919 843.94 491.069 841.98C491.399 837.96 490.989 834.84 491.639 830.63L491.169 830.41C487.279 834.62 482.669 838.16 479.639 843.1C478.949 844.18 478.319 844.44 477.809 844.49C477.089 844.62 476.419 844.94 475.879 845.44C475.149 846 474.149 846.02 473.399 845.5C471.649 844.5 470.319 842.96 468.849 841.63C468.349 841.19 466.939 840.68 467.049 838.61C467.049 836.94 467.719 835.8 467.749 834.15C467.749 833.22 467.959 832.3 468.359 831.46C476.289 816.83 470.459 804.84 476.529 796.67C476.789 796.32 476.529 795.88 475.849 796.02C472.979 796.34 469.949 797.76 466.589 798.4C465.529 798.59 464.439 798.44 463.459 797.98C461.249 796.74 458.889 795.64 457.749 793.05C457.549 792.7 457.669 792.26 458.019 792.06C458.069 792.03 458.129 792.01 458.189 791.99C458.909 791.9 459.639 792.04 460.289 792.38C460.969 792.66 461.709 792.78 462.449 792.72C471.109 792.24 480.979 788.63 487.899 785.9C489.669 785.19 490.699 784.27 492.349 784.92C492.759 785.12 492.999 785.57 492.939 786.02C492.769 787.5 493.389 788.89 492.789 789.99L492.959 790.85C499.299 794.9 496.479 804.27 498.899 812.51C498.919 812.75 499.129 812.93 499.369 812.91C499.449 812.9 499.519 812.88 499.589 812.83" fill="#990B12"/>
<path fill-rule="evenodd" clip-rule="evenodd" d="M180.261 670.49C184.271 669.85 188.101 669.01 192.081 668.62C192.811 668.53 193.521 668.88 193.871 669.52C196.941 673.79 198.631 678.76 193.531 682.5C192.731 682.99 192.381 683.13 191.741 682.97C190.091 682.26 187.981 680.83 186.191 680.93C185.501 680.96 184.951 681.53 184.951 682.23C184.791 685.92 187.021 689.86 184.761 693.56C184.161 694.49 183.631 694.32 183.451 694.17C181.261 692.46 179.161 692.35 177.261 690.31C175.861 688.82 175.821 685.51 173.981 684.31C171.291 682.66 162.021 686.97 158.991 687.48C157.911 687.65 156.151 687.12 154.801 687.35C153.801 687.54 153.821 688.14 154.381 688.68C155.781 690.11 157.221 692.18 158.811 693.71C159.731 694.56 161.041 694.7 161.851 695.77C164.231 698.94 164.231 701.97 161.851 705.33C161.281 706.12 160.791 706.24 160.461 706.18C159.781 706.15 159.101 706.21 158.431 706.35C157.641 706.26 157.051 705.4 156.771 705.03C153.661 700.77 148.641 697.23 145.431 693.83C142.541 690.76 143.411 687.15 143.141 683.78C142.981 682.97 143.231 682.12 143.821 681.53C144.281 680.99 144.851 680.44 145.401 679.95C145.881 679.43 146.531 679.13 147.231 679.09C155.651 677.45 164.061 674.2 172.481 671.6L173.121 671.02C173.271 670.5 173.621 670.06 174.101 669.81C175.511 669.21 177.121 669.34 178.421 670.16C179.011 670.45 179.671 670.58 180.331 670.53" fill="#990B12"/>
<path fill-rule="evenodd" clip-rule="evenodd" d="M151.349 664.92C149.529 666.13 147.639 667.24 145.689 668.25C143.319 669.31 142.059 669.31 140.559 670.51C139.889 671.06 140.649 671.31 140.829 671.31C142.039 671.8 143.809 670.91 145.169 670.93L145.329 671.34C139.709 674.8 132.649 674.51 126.189 676.47C124.379 677.04 124.169 678.06 122.179 678.57C116.839 679.95 110.089 681.95 105.949 677.05C103.259 673.88 104.669 670.25 104.399 666.61C104.389 665.35 104.979 664.15 105.989 663.39C107.769 662.02 109.239 660.06 111.109 658.3C113.689 655.92 118.849 653.09 121.419 649.67C124.329 645.71 123.219 640.8 125.459 637.62C126.499 636.12 127.839 634.91 129.049 634.88L129.839 635.55C130.359 636.44 131.769 638.16 131.909 638.48C132.899 640.53 133.079 644.62 133.619 646.95L134.189 647.22C137.739 644.05 141.319 640.08 143.019 635.64C144.009 633.02 142.129 629.3 144.949 628.31L145.549 628.45C157.039 637.42 151.099 651.49 139.279 661.29C137.629 663.27 136.899 663.94 136.369 664.56C136.369 664.6 135.269 665.52 136.649 665.57C137.999 665.71 139.349 665.71 140.699 665.57C141.619 665.57 147.919 664.63 151.199 664.15C152.189 664.07 151.809 664.57 151.329 664.88" fill="#990B12"/>
<path fill-rule="evenodd" clip-rule="evenodd" d="M596.1 771.33C597.1 774.22 597.049 776.72 598.719 779.8C599.019 780.35 599.179 780.09 599.469 779.8C600.199 778.86 600.74 777.78 601.06 776.63C602.44 771.75 599.959 769.71 596.629 770.39C595.829 770.52 595.99 771.06 596.06 771.29M593.879 792.36C592.159 791.86 590.74 790.64 589.99 789C589.72 788.51 589.86 788.28 590.34 788.42C591.1 788.7 591.909 788.86 592.719 788.88C593.509 788.75 593.689 788.59 593.389 787.58C592.889 785.56 591.629 782.3 590.679 779.66C589.479 776.44 588.5 773.15 587.75 769.8C586.67 764.97 586.48 761.87 582.08 758.21C581.77 757.94 581.61 757.74 582.27 757.59C589.54 755.54 595.49 758.53 595.62 767.31C595.62 768.05 595.83 768.15 596.29 767.99C601.99 765.42 611.689 763.91 614.419 770.85C614.769 771.67 614.659 772.62 614.129 773.33C613.039 774.96 611.42 776.34 610.37 778.09C609.33 779.83 609.419 781.69 608.139 783.3C606.759 785.04 604.32 786.35 602.59 787.65C602.29 787.85 602.03 788.09 601.8 788.36C600.79 789.69 603.149 792.28 603.649 794.12C603.839 794.8 604.049 794.85 604.439 794.62C613.819 789.55 626.13 788.34 626.11 798.4C626.12 799.25 625.539 800 624.709 800.19C610.869 805.03 610.379 806.85 609.149 807.54C606.839 808.88 604.629 807.6 601.459 810.33C600.169 811.47 599.08 813.91 597.36 815.49C595.42 817.24 593.85 818.28 592.1 819.7C590.35 821.13 588.93 823.67 585.28 822.87C584.86 822.79 583.139 822.68 582.659 822.65C581.299 822.37 579.99 821.9 578.77 821.23C577.98 820.7 577.379 819.54 576.639 818.96C575.179 817.82 573.469 817.07 572.449 815.39C572.209 814.85 571.72 814.49 572.8 813.6C575.24 811.91 577.69 813.24 580.27 812.76C581.12 812.51 581.879 812.01 582.449 811.32C583.939 809.87 586.169 808.69 587.649 807.23C588.209 806.61 588.04 805.89 587.27 805.36C586.26 804.61 585.18 803.95 584.05 803.4C583.8 803.3 583.369 803.04 583.479 802.03C583.599 801.01 582.959 800.67 582.979 799.78L582.49 798.98C582.02 799.02 581.849 799.33 581.639 799.68C578.549 804.6 570.48 804.1 567.87 799.97C567.46 799.29 567.869 798.6 567.659 797.91C567.029 795.84 565.039 794.01 565.209 791.84C565.359 789.99 568.05 786.5 569.03 786.13C571.19 785.33 573.79 788.23 574.31 792.11C574.31 792.7 574.8 792.72 575 792.58C577.61 790.55 578.64 786.91 577.79 782.43C577.16 779.26 574.04 776.71 571.25 774.92C570.77 774.56 570.029 774.12 571.419 773.8C575.509 772.9 579.789 773.52 583.449 775.55C584.579 776.18 585.389 777.25 585.699 778.5C587.779 786.89 586.129 793.7 591.129 801.94C591.559 802.64 591.87 802.41 592.27 802.2C593.9 801.31 594.87 799.99 596.35 799.09C596.79 798.83 597.139 798.83 596.729 797.78C596.049 796.35 595.459 794.88 594.959 793.38C594.739 792.78 594.48 792.59 593.82 792.41" fill="#990B12"/>
<path fill-rule="evenodd" clip-rule="evenodd" d="M669.821 743.53C670.091 745.18 670.311 745.05 671.321 744.71C677.231 742.16 683.891 731.16 690.281 738.68C691.541 740.47 691.011 740.9 690.381 742.16C688.511 745.25 686.281 748.11 683.741 750.67C682.961 751.33 682.761 752.45 683.251 753.34C686.071 760.7 700.241 771 694.421 777.67C693.171 779.1 691.701 778.29 690.111 778.06C689.311 778.02 688.521 778.26 687.881 778.75C684.711 780.52 681.671 780.33 678.611 780.59C677.831 780.69 677.031 780.55 676.321 780.2C674.561 779.23 673.001 777.92 671.731 776.35C671.031 775.41 671.381 775.33 671.561 775.34H672.181L672.461 774.77C671.541 773.19 670.401 771.85 670.081 770.64C669.921 769.85 670.531 769.85 670.771 770.34C675.251 776.34 682.661 775.69 687.901 771.67C688.561 771.33 688.881 770.57 688.651 769.86C687.471 766.02 684.231 761.29 681.231 757.88C680.601 757.2 680.291 757.09 679.461 758C676.881 761.01 673.381 765.14 669.591 767.55C668.731 768.07 667.691 768.21 666.721 767.95C662.651 766.75 658.871 764.24 660.261 760.09C660.391 759.66 660.811 758.51 661.931 758.51L663.151 758.57C663.731 758.59 664.301 758.38 664.731 757.99C665.911 756.8 666.071 755.54 666.761 754.33C666.971 753.85 667.091 753.74 666.551 753.16C664.641 751.21 664.921 749.24 664.661 747.05L664.061 747.01C662.431 749.38 661.861 754.38 658.141 755.96C657.641 756.22 657.021 756.07 656.701 755.62C655.731 754.51 654.911 753.45 654.871 752.2C654.881 751.67 655.191 751.19 655.671 750.96C660.641 747.96 660.041 735.6 665.891 736.26C669.061 736.61 669.221 740.51 669.761 743.57" fill="#990B12"/>
<path fill-rule="evenodd" clip-rule="evenodd" d="M679.329 729.09C680.589 728.87 681.769 728.34 682.779 727.55C686.829 723.97 692.689 717.11 687.899 713.75C686.179 712.54 678.509 714.21 676.009 714.97C671.479 716.39 666.019 719.93 664.959 720.68C660.989 723.37 656.759 729.52 655.349 731.65C655.049 732.12 654.959 732.06 655.099 731.49C655.509 729.86 656.079 728.26 656.809 726.74C657.429 725.53 659.459 722.93 659.759 721.8C660.759 718.28 661.559 713.41 658.769 711.35C656.809 709.92 653.049 711.51 650.779 714.76L649.939 716.07C649.339 717.17 648.049 719.6 647.969 719.71C647.519 720.36 646.839 720.81 646.069 720.97C644.349 721.32 642.329 721.66 641.209 723.52C640.869 723.96 640.849 724.57 641.159 725.03C643.339 728.85 643.339 732.29 642.669 735.96C642.569 736.47 642.369 736.62 641.719 736.44C640.789 736.19 639.829 736.05 638.859 736C638.299 735.98 637.739 736.14 637.279 736.46C636.479 737.11 635.889 737.7 635.899 738.46C636.439 741.81 641.139 743.62 644.839 741.39C645.559 740.9 646.069 740.16 646.299 739.32C647.089 736.15 646.449 732.52 645.159 729.12C644.979 728.67 644.739 728.49 644.579 729.12L644.499 729.58C644.429 730 644.349 730.11 644.049 729.58C643.479 728.56 642.799 727.71 642.799 726.52C642.799 726.14 642.969 726.02 643.439 726.22C645.509 726.72 647.929 725.33 649.779 723.76C650.309 723.23 650.619 722.79 650.439 722.28L649.729 721.25L649.339 720.35C649.289 718.76 650.619 717.36 651.239 716.78C651.709 716.36 652.369 716.24 652.959 716.46C655.899 717.53 654.879 722.18 654.719 724.32L653.689 732.12C653.419 737.74 648.289 743.51 645.949 749.56C645.689 750.2 645.479 750.29 644.899 749.69C643.579 748.26 642.019 747.82 640.519 748.33C639.489 748.74 639.529 749.12 639.639 749.75C640.719 755.35 643.199 760.72 645.229 766.4C645.529 767.19 646.459 770.96 646.819 771.89C647.879 774.73 649.199 777.67 649.349 780.61C649.439 781.88 649.899 782.33 650.419 782.42C651.329 782.62 652.229 782.92 653.079 783.3C653.659 783.58 654.339 783.55 654.899 783.23C655.459 783.02 656.049 782.88 656.659 782.81C657.229 782.74 657.789 782.58 658.319 782.34C658.969 782.04 659.389 781.69 658.849 780.85C651.769 771.28 653.139 764.28 648.989 756.38C648.829 755.97 648.699 755.44 649.439 754.6C650.249 753.71 650.849 752.65 651.189 751.5C651.729 749.42 652.929 747.84 653.909 746.03C654.459 745.02 656.639 741.13 657.199 740.13C659.859 735.38 661.099 729.42 667.389 725.79C670.249 724.17 673.859 722 676.979 721.99C677.919 721.93 678.389 722.93 678.439 723.32C678.589 724.84 678.539 726.37 678.309 727.87C678.209 729.12 678.399 729.31 679.339 729.13" fill="#990B12"/>
<path fill-rule="evenodd" clip-rule="evenodd" d="M713.409 652.2C712.369 646.44 721.629 641.71 727.049 644.54C728.039 645.18 728.119 645.41 727.929 645.96C725.489 652.3 718.869 652.16 714.359 653.09C713.989 653.18 713.569 653.01 713.409 652.23" fill="#990B12"/>
<path fill-rule="evenodd" clip-rule="evenodd" d="M743.371 665.27C743.901 667.52 742.161 669.57 743.481 672.15H743.88C742.89 669.49 745.051 667.18 743.811 665.29H743.371M732.7 665.88C732.41 665.59 732.4 665.13 732.68 664.83C732.72 664.79 732.761 664.76 732.811 664.73C735.931 662.41 738.64 656.27 741.94 658.34C745.41 660.47 742.941 662.39 743.531 664.37C743.651 664.87 743.801 664.81 744.011 664.37C745.241 661.94 747.651 661.95 749.501 662.55C750.231 662.86 750.78 663.49 750.96 664.26C751.34 665.27 752.33 665.72 752.71 666.82C753.86 670.04 752.201 673.95 755.081 676.56C756.181 677.53 757.51 677.35 758.98 678.29C762.42 680.56 765.85 684.73 769.88 687.17C771.07 687.91 771.47 687.43 771.92 686.99C777.75 680.5 775.09 673.6 774.69 667.11C774.62 666.2 774.12 663.43 773.19 662.13C771.5 659.75 769.231 657.51 768.511 655.05C768.181 654.11 768.291 653.97 769.311 653.61C771.541 652.93 776.78 651.93 779.38 654.6C780.17 655.53 780.28 654.01 781.38 654.86C782.34 655.82 782.951 657.08 783.111 658.43C783.591 660.66 783.79 662.94 783.72 665.22C783.56 667.18 783.63 669.14 783.92 671.08C784.13 673.12 784.031 675.19 783.611 677.2C782.271 682.3 781.65 687.81 777.48 691.96C770.15 699.3 762.42 688.71 755.16 683.12C752.61 686.68 760.601 693.08 756.541 696.91C755.391 698.02 751.97 697.56 751.21 697.08C746.08 693.7 751.33 683.76 747.7 679.87C746.29 680.78 746.22 683.62 745.16 685.32C743.22 686.17 740.401 685.49 738.761 682.94C738.701 677.82 737.971 672.77 738.021 667.64C738.021 666.67 737.811 666.47 737.521 666.49C736.811 666.6 736.26 668.08 735.48 667.7C734.48 667.24 733.54 666.64 732.71 665.92" fill="#990B12"/>
<path fill-rule="evenodd" clip-rule="evenodd" d="M738.441 653.65C738.341 649.61 739.931 645.84 739.941 644.04C739.941 643.4 739.671 643.13 738.911 643.4C737.151 643.93 735.391 644.58 734.161 646.05C730.681 650.16 731.781 662.39 731.221 666.88C730.821 669.88 729.331 671.77 730.511 674.67C730.791 675.1 730.671 675.67 730.241 675.95C730.211 675.97 730.181 675.98 730.151 676C729.101 676.63 727.951 677.09 726.751 677.35C726.231 677.54 725.651 677.44 725.231 677.09C724.691 676.55 724.121 676.03 723.531 675.55L723.061 675.84C723.291 678.11 726.601 681.67 728.761 683.77C729.071 684.04 729.271 684.43 729.301 684.84C729.451 685.58 729.221 686.34 728.701 686.87L728.541 687.53C728.751 688 729.221 688.47 729.041 688.99L729.191 689.6C733.841 693.29 736.761 698.2 740.021 701.33C743.271 704.46 745.561 706.09 748.631 709C749.591 709.93 749.891 711.44 750.751 712.56C751.791 713.94 753.421 714.56 754.711 715.78C755.221 716.29 755.271 717.1 754.841 717.69C753.431 720.21 751.851 719.42 750.521 720.42C749.981 720.87 749.181 720.81 748.711 720.28C740.331 714.6 742.311 710.92 732.861 703.02C726.421 697.65 717.961 686.37 716.371 684.6C715.791 683.96 715.481 683.13 715.511 682.27C715.691 681.1 715.981 679.96 716.391 678.85C716.831 677.88 716.961 676.79 716.771 675.74C716.331 673.92 715.541 672.21 714.441 670.7C713.501 669.48 712.501 670.28 712.071 670.94C710.941 672.73 710.421 675.95 709.901 678.08C709.541 679.45 707.901 686.3 707.331 689.75C706.441 695.11 703.361 705.18 697.171 703.83C696.581 703.67 696.131 703.19 696.011 702.59C695.741 700.62 697.951 698.63 699.111 696.25C700.691 693.01 701.561 687.38 702.481 683.57C702.981 681.53 704.571 678.7 705.461 675.9C707.051 671 707.471 665.75 711.991 661.48C712.811 660.83 713.801 660.44 714.841 660.36C715.671 660.42 716.491 660.56 717.291 660.79C717.911 660.95 718.461 661.3 718.871 661.79C719.331 662.58 719.261 663.37 719.941 664.16C720.211 661.94 720.871 657.93 723.911 656.69L724.241 656.9C724.451 657.4 724.951 656.86 725.511 657.17L725.711 657.73C725.201 660.38 722.121 663.38 724.661 665.65L725.271 665.6C728.361 659.48 724.651 649.04 731.451 641.75C734.471 638.58 744.141 632.54 748.261 637.05C748.761 637.62 749.691 640.49 749.251 641.34C747.321 645.24 746.171 651 744.301 654.32C743.991 654.84 743.771 654.64 743.651 654.45L743.501 653.97H743.171C742.451 655.36 741.581 653.18 740.001 654.86L739.561 654.72L738.971 653.93L738.461 653.68" fill="#990B12"/>
<path d="M346.49 343.38C350.83 343.38 355.38 343.38 360.12 343.31C357.83 359.96 342.63 363.44 319.07 363.44C313.9 363.44 308.5 363.28 302.98 363.12C297.21 362.95 291.32 362.78 285.4 362.78L263.68 363.29L262.96 363.41C257.78 365.1 253.68 369.7 251.72 376.03C249.21 384.13 250.6 392.94 255.26 398.5C258.66 402.56 275.49 404.63 305.29 404.63C326.75 404.63 349.28 403.4 356.59 401.83C407.76 390.91 407.13 352.74 406.32 304.39C406.22 298.1 406.11 291.62 406.11 284.95L405.5 228.89L405.33 228.1C402.27 220.79 391.61 217.52 382.39 217.52C373.67 217.52 366.45 220.37 363.14 225.15C358.52 231.83 359.31 261.61 360.51 291.58C360.67 295.5 360.81 298.94 360.89 301.62C357.79 301.62 354.66 301.69 351.52 301.73C347.56 301.8 343.6 301.86 339.71 301.86C318.31 301.86 302.98 299.78 297.84 289.63C293.88 281.77 294.67 270.4 295.41 259.4C296.66 240.92 297.96 221.81 276.85 218.05C269.87 216.81 260.66 218.1 255.87 220.9C245.04 227.25 247.49 273.63 249.34 283.83C259.21 338 285.17 343.38 346.49 343.38Z" fill="#990B12"/>
<path d="M604.2 569.8C597.77 567.89 589.49 567.64 582.22 567.64C579.6 567.64 576.93 567.64 574.3 567.71C571.67 567.78 568.96 567.78 566.37 567.78C548.33 567.78 536.65 565.71 534.93 555.83H536.23C584.98 555.83 610.59 550.42 624.62 537.15C641.69 521.01 641.63 494.07 641.52 449.45V438.41C641.52 434.98 641.75 429.98 642 424.19C643.19 397.5 643.7 374.87 637.99 368.19C633.72 363.21 623.72 360.98 605.49 360.98C596.87 360.98 587.26 361.45 577.91 361.92C568.85 362.37 559.49 362.83 551.36 362.83C542.98 362.83 536.76 362.33 532.33 361.31C522.92 359.12 521.17 353.39 518.52 344.74C518.37 344.27 518.23 343.79 518.07 343.3C520.93 343.3 523.74 343.3 526.51 343.3C574.97 343.3 613.1 340.38 626.34 303.51C627.92 299.19 628.18 295.1 628.48 290.77C628.61 287.77 628.91 284.77 629.39 281.81C631.06 272.59 633.29 230.41 623.57 224.04C620.04 221.74 614.19 220.3 608.27 220.3C606.77 220.3 605.26 220.4 603.77 220.62C581.5 223.88 582.76 243.4 583.88 260.63C584.67 272.26 585.42 284.29 579.84 291.88C573.4 300.65 556.48 301.86 539.15 301.86C535.3 301.86 531.38 301.8 527.49 301.74C524.04 301.69 520.6 301.64 517.23 301.62C517.28 299.59 517.35 297.11 517.43 294.31C518.6 255.08 518.37 229.64 513.66 223.99C509.69 219.23 500.88 217.55 493.94 217.55C486.75 217.55 480.59 219.22 477.04 222.16C470.27 227.71 470.6 252.53 471.66 281.94C471.85 287.16 472.02 291.61 472.02 294.67V300.29C472.02 335.17 471.97 360.34 482.93 377.7C494.55 396.09 517.42 403.93 559.47 403.93H595.76C595.82 407.9 595.96 412.82 596.13 418.41C596.92 446.02 598.51 497.41 590.28 506.24C583.9 513.11 567 514 552.98 514C548.38 514 543.73 513.9 539.21 513.8L532.37 513.67L532.77 506.08L537.19 505.49C548.12 504.04 557.56 502.78 566.02 498.47C576.03 493.34 583.65 482.47 586.41 469.37C589.32 455.6 586.25 441.78 578.21 432.42C563.62 415.41 532.15 413.24 506.36 413.24C502.86 413.24 498.03 413.11 492.45 412.97C484.65 412.76 475.8 412.54 466.93 412.54C441.64 412.54 429.24 414.36 425.5 418.62C421.75 422.89 420.21 430.45 421.67 437.81C422.88 443.85 425.84 448.49 429.78 450.54C433.34 452.4 438.8 453.22 447.52 453.22C450.61 453.22 453.79 453.12 456.85 453.03C459.62 452.95 462.31 452.86 464.73 452.86H486.8C505.6 452.86 525.17 453.09 541.17 454.8C541.89 456.15 542.16 458.12 542.07 461.21C538.49 463.27 527.97 465.46 499.26 465.46C489.47 465.46 479.68 465.23 471.03 465.03C464.69 464.88 459.14 464.75 455.07 464.75C453.49 464.75 451.82 464.75 450.13 464.68C448.44 464.61 446.54 464.61 444.77 464.61C439.43 464.61 433.47 464.9 429.7 467.11C424.73 470.04 421.78 476.78 421.78 485.15C421.78 491.84 424.06 500.93 430.3 504.54C433.98 506.68 442.63 507.71 457.54 507.71C465.34 507.71 473.62 507.43 480.27 507.22C483.04 507.13 485.56 507.05 487.7 506.99V513.76C428.8 515.78 424.35 552.36 424.35 607.68C424.35 610.95 424.1 615.19 423.84 619.69C422.81 637.32 421.53 659.27 431.5 665.11C435 667.17 439.91 668.29 445.32 668.29C453.49 668.29 463.7 665.57 466.83 659.63C469.09 655.36 468.78 648.87 468.47 642.6C468.39 640.7 468.3 638.87 468.3 637.22C468.3 632.66 468.09 627.21 467.86 621.3C466.96 597.9 465.61 562.65 478.57 555.88H487.97C492.11 586.85 507.09 601.37 539.21 605.81C544.98 606.61 552.99 606.46 560.73 606.14C564.16 606 567.55 605.85 570.79 605.85C576.29 605.85 583.18 606.21 587.73 609.02C595 613.53 595.08 624.18 595.15 635.46C595.25 650.52 595.37 667.63 616.16 667.96H618.13C624.09 667.96 630.27 667.53 635.02 664.49C644.7 658.31 642.42 632.58 640.85 624.06C636.1 598.42 632.38 578.17 604.2 569.8Z" fill="#990B12"/>
<path d="M414.57 462.86C414.57 460.05 414.78 456.52 415.01 452.71C415.9 437.37 416.9 419.98 408.74 414.66C404.66 412 398.83 410.53 392.32 410.53C383.03 410.53 372.22 413.7 369 420.71L368.21 438.42C368.21 442.64 368.44 447.53 368.69 452.68C369.58 471.48 370.69 494.79 361.27 501.95L355.47 502.27C355.91 468.98 355.81 431.98 330.1 418.59C323.96 415.42 298.76 412.16 280.17 412.16C268.79 412.16 261.03 413.32 257.11 415.59C252.8 418.1 250.24 424.37 249.41 427.68C247.29 436.14 247.9 442.19 251.25 446.19C255.53 451.3 263.59 451.99 270.9 451.99C273.48 451.99 276.17 451.9 278.91 451.8C281.66 451.71 284.5 451.61 287.28 451.61C291.18 451.61 296.91 451.78 301.46 453.2C310.83 457.01 309.57 481.85 308.83 496.68C308.73 498.63 308.63 500.48 308.56 502.23L301.27 501.51C296.35 499.01 296.31 493.22 296.84 484.07C297.26 476.52 297.72 468.7 292.67 463.68C288.31 459.33 280.82 458.04 269.46 459.67C264.95 460.3 261.05 460.86 257.61 463.08C248.89 468.75 250 488.69 251.8 498.44C257.54 529.61 273.99 542.64 308.48 543.09C305.77 543.58 303.07 543.88 300.45 544.22C295.57 544.79 290.94 545.35 286.5 546.89C257.17 557.02 251.16 583.35 251.16 619.81C251.16 622.67 251.01 625.87 250.85 629.21C250.16 643.88 249.38 660.49 259.67 665.61C263.82 667.58 268.37 668.56 272.97 668.48C283.94 668.48 294.16 663.68 296.75 657.32L297.54 634.6V631.54C297.54 615.05 297.5 598.01 301.94 586.14C303.91 584.97 306.15 584.35 308.44 584.35C308.39 586.15 308.33 588.31 308.25 590.69C307.1 629.34 307.3 656.25 312.02 661.94C315.19 665.71 323.91 668.45 332.85 668.45C335.16 668.46 337.45 668.26 339.71 667.83C345.1 666.78 351.6 663.45 354.05 658.4C356.18 653.99 355.9 647.62 355.64 641.45C355.56 639.58 355.47 637.76 355.47 636.08V584.66L360.88 585.31C369.86 589.55 368.81 606.22 367.78 622.34C366.76 638.61 365.7 655.43 374.07 663.82C377.58 667.33 382.48 669.11 388.65 669.11C392.76 669.03 396.85 668.44 400.81 667.35C416.74 663.21 415.8 644.28 414.98 627.58C414.79 623.86 414.6 620.2 414.6 616.78C414.6 589.29 410.78 559.7 382.38 548.46C377.88 546.68 373.12 546.04 368.11 545.36C363.93 544.9 359.79 544.11 355.74 542.99C409.95 540.81 414.57 500.55 414.57 462.86Z" fill="#990B12"/>
<path d="M371.089 699.07H361.148V692.58H365.309C366.349 692.59 367.398 692.46 368.408 692.22C369.308 691.99 370.159 691.65 370.969 691.22C371.609 690.87 372.178 690.43 372.678 689.9L374.128 688.4H382.849V736.19H371.039L371.089 699.07Z" fill="#990B12"/>
<path d="M428.322 718.33C426.632 718.85 424.872 719.06 423.112 718.95C421.342 718.96 419.572 718.73 417.852 718.27C416.152 717.8 414.571 716.99 413.191 715.89C411.801 714.87 410.691 713.53 409.931 711.99C409.231 710.51 408.751 708.95 408.491 707.35C408.231 705.91 408.121 704.44 408.171 702.97C408.191 701.46 408.461 699.95 408.961 698.52C409.451 697.13 410.151 695.81 411.031 694.63C411.911 693.44 412.981 692.4 414.201 691.55C415.661 690.57 417.271 689.81 418.961 689.31C421.011 688.68 423.152 688.38 425.302 688.43C426.902 688.48 428.502 688.7 430.052 689.08C431.732 689.49 433.332 690.15 434.812 691.04C436.512 692.07 437.921 693.52 438.901 695.26C440.101 697.27 440.951 699.47 441.421 701.77C441.951 704.19 442.142 707.89 442.052 712.87C441.982 716.11 441.721 719.35 441.251 722.57C440.861 725.16 439.901 727.63 438.421 729.81C437.001 731.97 434.962 733.65 432.572 734.65C429.962 735.72 427.152 736.22 424.332 736.11C422.732 736.1 421.132 735.9 419.572 735.5C417.922 735.02 416.341 734.31 414.881 733.4C413.191 732.41 411.741 731.05 410.631 729.43C409.421 727.55 408.681 725.41 408.451 723.18L408.102 720.98H418.761C418.851 721.76 418.981 722.53 419.151 723.3C419.391 724.33 419.982 725.25 420.822 725.9C421.692 726.66 422.791 727.12 423.941 727.21C424.971 727.35 426.011 727.16 426.941 726.69C427.761 726.25 428.461 725.61 428.981 724.83C430.061 723.19 430.702 721.3 430.832 719.35L431.001 717.09C430.201 717.5 429.352 717.95 428.332 718.39M430.612 703.33C430.562 702.53 430.451 701.73 430.261 700.95C429.991 700.04 429.471 699.22 428.771 698.57C427.881 697.74 426.731 697.24 425.511 697.18C424.631 697.12 423.751 697.24 422.931 697.54C421.951 697.86 421.081 698.45 420.421 699.24C419.781 699.88 419.332 700.68 419.112 701.56C418.972 702.21 418.911 702.87 418.931 703.53C418.941 704.48 419.051 705.43 419.241 706.36C419.531 707.51 420.182 708.53 421.102 709.28C422.272 710.22 423.761 710.69 425.271 710.61C426.001 710.63 426.731 710.52 427.421 710.27C428.111 710.03 428.721 709.62 429.211 709.08C429.751 708.49 430.142 707.78 430.352 707C430.642 705.78 430.732 704.52 430.612 703.27" fill="#990B12"/>
<path d="M477.042 718.33C475.362 718.85 473.602 719.06 471.842 718.95C470.062 718.96 468.292 718.73 466.572 718.27C464.872 717.8 463.282 716.99 461.902 715.89C460.522 714.87 459.412 713.53 458.652 711.99C457.952 710.52 457.462 708.96 457.202 707.35C456.942 705.91 456.842 704.44 456.892 702.97C456.912 701.46 457.182 699.95 457.682 698.52C458.172 697.12 458.862 695.81 459.742 694.63C460.622 693.44 461.692 692.4 462.912 691.55C464.372 690.57 465.982 689.81 467.672 689.31C469.722 688.68 471.862 688.38 474.012 688.43C475.602 688.48 477.172 688.7 478.722 689.08C480.392 689.5 481.992 690.16 483.472 691.04C485.172 692.07 486.582 693.52 487.552 695.26C488.762 697.27 489.612 699.47 490.082 701.77C490.612 704.19 490.802 707.89 490.702 712.87C490.632 716.11 490.372 719.35 489.912 722.57C489.512 725.16 488.552 727.63 487.092 729.81C485.652 731.96 483.612 733.65 481.222 734.65C478.612 735.72 475.802 736.22 472.982 736.11C471.372 736.1 469.772 735.9 468.222 735.5C466.572 735.02 464.992 734.31 463.532 733.4C461.842 732.4 460.392 731.05 459.282 729.43C458.072 727.55 457.332 725.41 457.102 723.18L456.762 720.98H467.412C467.482 721.56 467.602 722.34 467.792 723.3C468.052 724.33 468.632 725.24 469.472 725.9C470.342 726.65 471.442 727.12 472.592 727.21C473.622 727.35 474.662 727.16 475.582 726.69C476.412 726.25 477.122 725.61 477.642 724.83C478.172 724.01 478.592 723.13 478.912 722.21C479.232 721.29 479.422 720.33 479.492 719.35L479.642 717.09C478.852 717.5 478.002 717.95 477.002 718.39M479.272 703.33C479.212 702.53 479.092 701.73 478.912 700.95C478.642 700.04 478.132 699.22 477.422 698.57C476.542 697.74 475.382 697.24 474.172 697.18C473.312 697.14 472.452 697.26 471.652 697.56C470.672 697.88 469.802 698.47 469.132 699.26C468.492 699.9 468.042 700.71 467.822 701.59C467.682 702.23 467.622 702.89 467.642 703.55C467.652 704.5 467.762 705.45 467.962 706.38C468.242 707.53 468.892 708.56 469.812 709.3C470.992 710.24 472.472 710.71 473.982 710.63C474.712 710.66 475.452 710.54 476.142 710.29C476.822 710.05 477.442 709.65 477.922 709.11C478.472 708.52 478.862 707.8 479.072 707.02C479.362 705.8 479.452 704.54 479.332 703.29" fill="#990B12"/>
<path d="M506.25 688.4H539.67V696.2C539.1 696.74 538.54 697.31 537.95 697.94C537 699.02 536.15 700.18 535.4 701.4C534.39 702.91 533.49 704.49 532.71 706.12C531.9 707.88 531.21 709.69 530.64 711.54C529.95 713.72 529.41 715.6 529.06 717.16C528.71 718.72 528.19 721.13 527.59 724.43C527 727.74 526.68 729.74 526.66 730.49L526.28 736.23H514.39C514.57 734.52 514.74 733.15 514.89 732.14C515.04 731.14 515.34 729.54 515.79 727.39C516.24 725.23 516.73 722.86 517.3 720.33C517.88 717.79 518.54 715.39 519.25 713.19C519.95 710.99 520.74 708.66 521.62 706.3C522.1 704.86 522.67 703.44 523.3 702.06L525.47 697.45H506.25V688.4Z" fill="#990B12"/>
<path d="M888.99 442.01C887.66 198.06 688.77 0 444.5 0C199.41 0 0 199.41 0 444.5C0 689.58 199.41 888.99 444.5 889C688.77 889 887.66 690.92 888.99 446.97V442.01ZM744.8 744.82C664.58 825.02 557.94 869.2 444.5 869.21C331.06 869.23 224.42 825.01 144.2 744.8C63.9799 664.6 19.8199 557.93 19.8199 444.5C19.8199 331.06 63.99 224.42 144.2 144.19C224.41 63.961 331.07 19.817 444.5 19.817C557.92 19.817 664.58 63.985 744.8 144.2C825.02 224.41 869.19 331.06 869.2 444.5C869.21 557.94 825.01 664.58 744.8 744.8V744.82Z" fill="#990B12"/>
<path d="M766.678 444.5H763.038C763.038 620.42 620.428 763.03 444.508 763.03C268.588 763.04 125.978 620.43 125.968 444.51C125.968 268.59 268.578 125.97 444.498 125.97C528.978 125.97 609.998 159.53 669.738 219.26C729.568 278.93 763.148 359.99 763.038 444.5H770.328C770.328 264.56 624.468 118.704 444.538 118.704C264.598 118.704 118.738 264.56 118.738 444.5C118.738 624.43 264.598 770.29 444.538 770.29C624.468 770.29 770.328 624.43 770.328 444.5H766.678Z" fill="#990B12"/>
<path d="M83.0612 616.33C82.1212 613.79 81.0211 610.98 79.7711 607.95C78.5211 604.91 77.291 602.07 76.191 599.69L77.941 598.82L80.7111 601.78C81.0611 602.15 81.611 602.26 82.071 602.04L84.8511 600.95C85.8211 600.55 86.8911 600.1 88.0211 599.65L107.601 591.57C114.071 588.93 118.231 586.35 120.101 583.83C121.971 581.3 122.231 578.41 120.851 575.11C119.761 572.06 117.091 569.86 113.901 569.37C110.611 568.85 106.021 569.78 100.151 572.19L80.1111 580.48C78.9711 580.95 77.911 581.38 76.941 581.81L74.201 583.01C73.711 583.17 73.3911 583.63 73.4111 584.14L73.5511 588.02L71.7111 588.87C70.8011 586.43 69.9911 584.33 69.2811 582.6C68.5711 580.86 67.7011 578.96 66.6211 576.55L68.3811 575.67L71.3411 578.77C71.7311 579.14 72.3211 579.21 72.7911 578.95L75.441 577.86C76.411 577.48 77.4811 577.02 78.6711 576.55L96.7111 569.15C104.861 565.76 111.221 564.63 115.821 565.71C120.421 566.79 123.751 569.78 125.721 574.64C128.001 580.17 128.001 584.95 125.721 588.96C123.441 592.98 118.571 596.53 111.131 599.61L91.5211 607.71C90.3311 608.18 89.2611 608.64 88.2811 609.05L85.6111 610.17C85.0011 610.45 84.7011 610.83 84.7111 611.31L84.821 615.5L83.0612 616.33Z" fill="#990B12"/>
<path d="M109.611 548.54C110.331 548.31 110.691 547.96 110.711 547.46L111.021 543.49L112.931 542.88C113.541 545.43 114.071 547.53 114.511 549.17C114.951 550.75 115.571 552.87 116.361 555.51L114.541 556.16L112.161 552.77C111.861 552.34 111.321 552.16 110.821 552.31C108.801 552.84 106.331 553.5 103.411 554.29L73.8607 562.34C71.3907 563.03 69.3407 563.61 67.7307 564.1C67.0807 564.29 66.7408 564.63 66.6808 565.11L66.2808 569.29L64.4108 569.89C63.7908 567.22 63.2807 565.18 62.8907 563.79C62.3907 561.95 61.8608 560.21 61.3108 558.59L87.0408 531.37C88.0708 530.28 89.1707 529.15 90.3307 527.98C88.6507 528.49 87.0008 528.95 85.4308 529.39L66.1007 534.69C63.7107 535.35 61.6508 535.94 59.9308 536.45C59.4308 536.56 59.0608 536.99 59.0208 537.49L58.7107 541.46L56.7607 542.08C56.1607 539.46 55.6308 537.33 55.1808 535.74C54.7308 534.16 54.1008 532 53.3008 529.49L55.1508 528.81L57.6608 532.25C58.0008 532.67 58.5708 532.81 59.0608 532.6C60.7008 532.21 62.7607 531.67 65.2407 531.02L106.461 519.69L107.751 522.86L77.2407 555.06C76.3107 556.03 75.1908 557.14 73.9008 558.43C75.7208 557.89 77.4008 557.42 78.9308 556.99L102.391 550.54C105.321 549.75 107.721 549.07 109.611 548.5" fill="#990B12"/>
<path d="M91.1605 502.22C92.6705 501.93 94.0405 501.7 95.2905 501.43L98.6105 500.79C99.2205 500.69 99.6905 500.2 99.7605 499.58L100.46 495.8L102.34 495.39C102.73 498.06 103.221 501.03 103.791 504.27C104.361 507.51 104.96 510.61 105.5 513.22L103.63 513.7L101.541 510.09C101.271 509.64 100.74 509.41 100.23 509.53L96.8304 510.08C95.5804 510.29 94.2004 510.53 92.6904 510.8L62.4905 516.19C61.2205 516.41 60.1105 516.62 59.0505 516.81C57.9805 517 57.0704 517.18 56.2104 517.36C55.6804 517.39 55.2304 517.76 55.0804 518.27L54.2905 522.38L52.3805 522.81C52.0105 520.13 51.5404 517.17 50.9604 513.92C50.3804 510.67 49.8005 507.58 49.2305 504.97L51.1305 504.49L53.2004 508.11C53.4604 508.55 53.9705 508.78 54.4705 508.66L57.4105 508.19L60.8005 507.59L91.1605 502.22Z" fill="#990B12"/>
<path d="M80.6915 475.54C82.1115 475.04 83.4916 474.57 84.8116 474.14C83.4316 473.92 82.0016 473.66 80.5316 473.4L55.3116 468.65L51.8315 468.03C51.1615 467.9 50.4816 467.85 49.8016 467.88L48.8416 468.25L48.3516 469.11L47.5616 471.98L45.5416 472.23C45.3916 469.41 45.2315 467.13 45.0715 465.36C44.9115 463.59 44.6716 461.4 44.3516 459.07L46.2816 458.72L47.7616 461.77C48.1016 462.43 48.6616 462.94 49.3416 463.23C50.3516 463.62 51.3815 463.92 52.4415 464.12L100.002 474.22L100.662 477.25L55.6116 493.9C54.3916 494.29 53.2216 494.85 52.1516 495.55C51.5516 496.01 51.1216 496.66 50.9116 497.38L50.1216 500.28L48.1816 500.59C48.0416 497.94 47.8516 495.3 47.6216 492.67C47.3016 489.17 46.9316 485.74 46.5316 482.43L48.4716 482.1L49.8016 484.86L50.4515 485.65C50.7815 485.81 51.1516 485.87 51.5116 485.81C52.1916 485.73 52.8516 485.57 53.5016 485.34C54.2916 485.07 55.3816 484.69 56.7316 484.2L80.6915 475.54Z" fill="#990B12"/>
<path d="M44.78 447.29L44.87 439.94C44.91 435.18 44.91 430.27 44.87 425.2L45.17 425L57.95 426.98L58.24 428.56L48.9 430.27L48.77 441.58L69.17 441.82V440.24C69.17 438.53 69.17 436.72 69.17 434.77C69.17 434.26 68.8 433.92 68.15 433.76L62.89 432.65L62.8 430.71C66.5 430.82 69.28 430.89 71.14 430.9C72.93 430.9 75.67 430.9 79.36 430.9L79.54 432.83L74.1 433.84C73.41 433.99 73.04 434.29 73.01 434.75C72.94 436.73 72.89 438.57 72.87 440.29V441.88L86.0601 442.03C88.8801 442.03 91.67 442.08 94.45 442.03L94.58 430.35L84.52 426.55L84.1899 424.75L98.55 425.62L98.83 425.84C98.69 430.69 98.6 435.42 98.54 440L98.45 447.75C98.45 450.27 98.45 452.85 98.45 455.52L96.52 455.65L95.15 451.69C94.96 451.2 94.49 450.88 93.96 450.89C92.95 450.89 91.79 450.83 90.52 450.81L86.3199 450.75L55.67 450.38H52.17H49.3101C48.6401 450.38 48.21 450.62 48.04 451.07L46.45 454.96L44.5 455.04C44.63 452.3 44.72 449.72 44.75 447.26" fill="#990B12"/>
<path d="M88.3013 407.51C89.8313 407.69 91.2013 407.84 92.4113 407.98C93.6213 408.11 94.7312 408.22 95.7212 408.33C96.5412 408.4 97.0613 408.23 97.3013 407.83L98.9512 404.96L100.871 405.11C100.541 407.23 100.201 409.9 99.8113 413.03C99.4213 416.42 99.1012 419.44 98.8612 422.1L96.9412 422.03L95.9812 417.97C95.8612 417.46 95.4212 417.08 94.8912 417.05C93.8812 416.9 92.7412 416.76 91.4812 416.6C90.2212 416.44 88.8313 416.27 87.3113 416.09L56.8812 412.51C55.6012 412.34 54.4412 412.23 53.4012 412.11L50.5312 411.81C50.0013 411.69 49.4712 411.91 49.1912 412.37L47.2312 416.07L45.2812 415.94C45.7012 413.22 46.0713 410.47 46.4213 407.62C46.4713 407.02 46.5512 406.27 46.6212 405.38C46.6812 404.48 46.7712 403.4 46.8612 402.11C46.9612 400.95 47.0312 399.97 47.0912 399.19C47.1612 398.42 47.2312 397.78 47.2812 397.34C47.8712 392.36 49.4112 388.76 51.8912 386.53C54.3712 384.32 57.7113 383.44 61.9113 383.94C65.7013 384.38 68.6712 385.5 70.8312 387.3C73.0512 389.22 74.6412 391.78 75.3912 394.62C78.7412 393.37 81.4612 392.41 83.5112 391.77C85.5612 391.12 87.6112 390.46 89.6112 389.79C91.6212 389.11 93.3813 388.52 94.9213 387.96C96.1913 387.54 97.4212 386.99 98.5912 386.32L99.7012 385.45L100.551 384.52L101.201 383.47C101.381 383.08 101.571 382.67 101.761 382.2L103.711 382.31C103.841 384.5 103.761 386.7 103.481 388.88C103.391 390.25 103.061 391.59 102.511 392.84C102.081 393.58 101.521 394.22 100.841 394.74C99.6712 395.61 98.3612 396.29 96.9812 396.76C95.3912 397.34 93.6512 397.93 91.6912 398.54C89.7312 399.16 87.6612 399.77 85.4712 400.41C83.2712 401.04 81.1212 401.73 78.9612 402.44L77.4313 403L76.5012 403.44L76.0112 403.98L75.7512 404.72L75.5712 405.93L88.3013 407.51ZM72.2312 405.61C72.4312 404.59 72.5713 403.67 72.6713 402.84C72.9913 400.08 72.3212 397.97 70.6512 396.5C68.9812 395.03 66.2112 394.04 62.3412 393.58C58.6112 393.14 55.8013 393.43 53.9313 394.45C52.0713 395.48 50.9913 397.28 50.6813 399.88C50.6413 400.33 50.6012 400.81 50.5912 401.33C50.5912 401.84 50.5912 402.43 50.5912 403.09L72.2312 405.61Z" fill="#990B12"/>
<path d="M59.0916 352.41C58.1916 353.51 57.5717 354.8 57.2817 356.18C56.8217 358.14 57.2616 360.21 58.4816 361.81C59.8216 363.62 61.8117 364.85 64.0317 365.24C65.3217 365.56 66.6717 365.61 67.9917 365.39C69.1217 365.16 70.2116 364.76 71.2116 364.18C72.2216 363.59 73.1617 362.87 74.0017 362.05C74.8717 361.22 75.7416 360.36 76.6116 359.45C77.4816 358.54 78.6517 357.45 79.7817 356.45C80.9217 355.46 82.1917 354.62 83.5617 353.97C85.0617 353.27 86.6617 352.82 88.3117 352.64C90.3817 352.44 92.4817 352.6 94.5017 353.1C99.5817 354.21 103.262 356.55 105.522 360.09C107.782 363.63 108.382 367.82 107.342 372.58C106.552 376.09 105.062 379.4 102.952 382.3L102.572 382.41L89.3917 377.9V376.06L101.352 376.44C102.492 375.26 103.272 373.77 103.602 372.16C104.162 369.98 103.752 367.66 102.462 365.81C101.002 363.88 98.8616 362.58 96.4716 362.18C93.9916 361.54 91.3717 361.92 89.1817 363.24C88.1517 363.84 87.2016 364.57 86.3516 365.4C85.4816 366.25 84.6116 367.12 83.7216 368.06C82.7216 369.05 81.6817 370.03 80.5517 371.01C79.4617 371.99 78.2217 372.8 76.8917 373.42C75.4017 374.11 73.8117 374.55 72.1817 374.72C70.1217 374.91 68.0517 374.76 66.0417 374.27C61.2817 373.22 57.7817 370.98 55.5417 367.58C53.3017 364.18 52.6817 360.27 53.6817 355.84C54.4817 352.59 55.7817 349.47 57.5317 346.61L57.9017 346.51L69.6116 350.9V352.55L59.0916 352.41Z" fill="#990B12"/>
<path d="M102.609 337.78L106.639 338.97L109.889 339.89C110.489 340.08 111.139 339.84 111.469 339.31L113.789 336.26L115.649 336.71C114.809 339.29 113.919 342.16 112.969 345.32C112.009 348.58 111.179 351.5 110.489 354.07L108.609 353.67L108.359 349.52C108.319 349 107.949 348.56 107.449 348.42C106.459 348.11 105.369 347.77 104.159 347.4C102.949 347.03 101.599 346.61 100.119 346.19L70.7891 337.47C69.5691 337.09 68.4191 336.76 67.4291 336.48C66.4491 336.19 65.4991 335.92 64.6591 335.68C64.1691 335.48 63.599 335.61 63.249 336L60.689 339.32L58.7891 338.85C59.6491 336.28 60.559 333.43 61.499 330.27C62.459 327.01 63.279 324.1 63.949 321.49L65.869 321.91L66.119 326.06C66.139 326.58 66.499 327.01 67.009 327.12L69.839 328C70.869 328.32 71.959 328.65 73.149 329L102.609 337.78Z" fill="#990B12"/>
<path d="M122.069 318.74C120.849 321.95 119.699 325.01 118.639 327.94L116.789 327.38L116.899 322.41C116.889 321.88 116.539 321.42 116.029 321.27C114.259 320.52 111.959 319.62 109.139 318.52L74.0988 304.95L71.0588 312.81L79.6288 319.01L79.3588 320.66L65.6788 316.18L65.4688 315.88C67.2687 311.44 68.9588 307.17 70.5488 303.09L73.4888 295.49C75.0688 291.41 76.6888 287.09 78.3488 282.52L78.7087 282.47L91.1588 289.33L90.8888 290.98L80.3088 288.92L77.2488 296.8L112.289 310.37C115.109 311.45 117.419 312.33 119.229 312.99C119.719 313.21 120.299 313.09 120.659 312.7L123.889 309.03L125.719 309.65C124.469 312.63 123.259 315.66 122.069 318.73" fill="#990B12"/>
<path d="M111.591 271.23L101.041 259.6C100.131 258.55 99.3308 257.68 98.6608 257C98.1608 256.43 97.5708 255.96 96.9108 255.58C96.2208 255.24 95.3707 255.42 94.8807 256.03L92.8707 257.96L91.0107 257.12C92.0807 255.24 93.1507 253.24 94.2307 251.11C95.2007 249.19 96.1107 247.26 96.9807 245.33L98.7908 246.12L98.4607 249.42C98.4007 250.15 98.5707 250.87 98.9407 251.49C99.4007 252.21 99.9007 252.91 100.461 253.56L116.381 271.89L127.481 277.53C128.851 278.21 130.091 278.84 131.231 279.4C132.361 279.95 133.371 280.45 134.261 280.89C134.821 281.18 135.511 281.06 135.931 280.59L138.601 278.27L140.361 279.06C139.161 281.27 137.821 283.82 136.331 286.77C134.841 289.72 133.501 292.44 132.431 294.69L130.661 293.96L131.021 290.08C131.081 289.56 130.801 289.06 130.321 288.84C129.411 288.35 128.401 287.83 127.271 287.26C126.151 286.69 124.901 286.02 123.531 285.33L113.231 280.11L88.9807 278.48C87.7107 278.4 86.4408 278.42 85.1708 278.55C84.3808 278.63 83.6308 278.96 83.0308 279.49L80.8507 281.54L79.0508 280.75C80.0108 279.08 81.3008 276.65 82.9008 273.5C84.6608 270.01 86.2808 266.69 87.7708 263.54L89.5707 264.34L89.0907 267.42C88.9907 267.8 89.0108 268.19 89.1508 268.56L89.8307 269.29C90.4507 269.56 91.1008 269.73 91.7708 269.79C92.7508 269.91 93.7307 269.98 94.7207 270L111.591 271.23Z" fill="#990B12"/>
<path d="M138.389 234.8L148.859 241.97C151.349 243.67 153.399 245.06 155.019 246.1C155.429 246.43 156.009 246.47 156.459 246.18L160.209 243.55L161.849 244.56C160.079 247.02 158.259 249.6 156.399 252.3C154.499 255.09 152.819 257.61 151.349 259.9L149.689 258.93L150.709 254.89C150.839 254.39 150.629 253.85 150.189 253.57C148.489 252.37 146.389 250.91 143.899 249.2L118.619 231.89L115.729 229.93L113.349 228.35C112.949 228.01 112.369 227.95 111.909 228.21L108.459 230.59L106.789 229.56C108.419 227.37 109.959 225.25 111.319 223.22L115.489 217.12C118.159 213.22 120.889 209.14 123.669 204.88H124.049L133.559 213.6L132.919 215.09L124.159 211.34L117.769 220.68L135.349 232.71L136.289 231.34C137.259 229.93 138.269 228.4 139.309 226.79C139.589 226.31 139.459 225.7 139.019 225.38L135.259 221.54L136.259 219.87C139.299 222.02 141.579 223.61 143.089 224.63C144.609 225.65 146.889 227.18 149.939 229.22L149.019 230.96L143.909 228.77C143.289 228.51 142.829 228.55 142.519 228.91C141.359 230.5 140.299 232.03 139.349 233.45L138.389 234.8Z" fill="#990B12"/>
<path d="M176.078 182.41C182.778 188.2 186.868 194.37 188.358 200.91C189.858 207.46 188.268 213.41 183.608 218.76C179.178 223.89 173.858 226.22 167.678 225.76C161.488 225.3 155.168 222.29 148.728 216.73C142.008 210.91 138.008 204.82 136.708 198.43C135.418 192.05 137.078 186.18 141.688 180.83C146.128 175.71 151.378 173.33 157.448 173.69C163.518 174.06 169.718 176.96 176.048 182.41M154.208 208.48C160.418 213.83 165.848 217.14 170.508 218.4C175.168 219.66 178.838 218.73 181.518 215.61C184.168 212.58 184.608 209.05 182.858 205.01C181.108 200.97 177.048 196.19 170.658 190.67C164.648 185.48 159.358 182.25 154.808 180.98C150.258 179.72 146.598 180.69 143.818 183.92C141.128 187.03 140.648 190.58 142.448 194.58C144.248 198.57 148.148 203.2 154.218 208.44" fill="#990B12"/>
<path d="M201.268 181.02L204.038 184.09C204.838 184.99 205.628 185.8 206.298 186.53C206.868 187.12 207.368 187.33 207.798 187.2L210.968 186.13L212.318 187.5C210.658 188.89 208.648 190.67 206.268 192.8C203.738 195.08 201.498 197.14 199.568 198.98L198.168 197.65L200.138 193.97C200.378 193.5 200.288 192.93 199.918 192.56C199.258 191.78 198.498 190.92 197.658 189.97C196.808 189.01 195.868 187.96 194.848 186.8L174.328 164.08C173.468 163.13 172.688 162.27 171.948 161.49C171.208 160.72 170.588 160.02 169.988 159.38C169.678 158.95 169.128 158.76 168.618 158.91L164.718 160.41L163.328 159.01C165.428 157.26 167.538 155.44 169.668 153.52C170.128 153.12 170.668 152.59 171.308 151.93C171.938 151.28 172.728 150.55 173.678 149.67C174.638 148.78 175.218 148.14 175.788 147.61C176.358 147.07 176.808 146.64 177.138 146.34C180.868 142.99 184.398 141.3 187.728 141.26C191.068 141.22 194.148 142.79 196.978 145.92C199.528 148.77 201.018 151.57 201.458 154.34C201.868 157.26 201.378 160.23 200.058 162.86C203.398 164.11 206.058 165.19 208.028 166.07C210.018 166.95 211.988 167.79 213.928 168.62C215.858 169.44 217.598 170.14 219.128 170.74C220.368 171.25 221.658 171.65 222.968 171.94C223.478 171.94 223.958 172.01 224.378 172L225.618 171.87L226.798 171.51C227.188 171.34 227.588 171.14 228.048 170.93L229.458 172.3C228.098 174.02 226.588 175.61 224.958 177.06C223.978 178.05 222.838 178.85 221.578 179.44C220.768 179.71 219.928 179.82 219.078 179.77C217.618 179.64 216.188 179.29 214.828 178.73C213.248 178.13 211.568 177.41 209.698 176.59C207.828 175.76 205.838 174.85 203.788 173.87C201.738 172.9 199.638 171.99 197.538 171.12L196.038 170.51L195.038 170.24L194.318 170.32L193.638 170.7L192.688 171.5L201.268 181.02ZM190.438 168.99C191.228 168.36 191.988 167.76 192.608 167.21C194.658 165.35 195.558 163.32 195.288 161.1C195.028 158.88 193.588 156.31 190.978 153.41C188.448 150.61 186.158 148.98 184.078 148.52C182.008 148.05 179.988 148.71 178.048 150.46L177.028 151.48C176.678 151.86 176.298 152.27 175.898 152.81L190.438 168.99Z" fill="#990B12"/>
<path d="M227.5 112.331C226.1 112.504 224.76 113.016 223.6 113.821C221.92 114.93 220.82 116.732 220.6 118.736C220.33 120.97 220.93 123.22 222.28 125.03C223 126.15 223.94 127.11 225.04 127.85C226.02 128.47 227.09 128.92 228.21 129.19C229.36 129.45 230.53 129.58 231.71 129.56C232.9 129.56 234.13 129.52 235.39 129.47C236.8 129.41 238.25 129.41 239.74 129.47C241.25 129.52 242.75 129.79 244.19 130.26C245.77 130.78 247.25 131.56 248.57 132.57C250.22 133.85 251.63 135.4 252.75 137.16C255.69 141.45 256.721 145.68 255.931 149.84C255.131 154 252.71 157.41 248.66 160.15C245.69 162.15 242.341 163.53 238.811 164.19L238.47 164L231.98 151.69L233.25 150.36L241.67 158.85C243.32 158.76 244.9 158.21 246.25 157.27C248.18 156.08 249.481 154.1 249.811 151.86C250.081 149.45 249.42 147.03 247.96 145.1C247.23 143.95 246.27 142.97 245.14 142.21C244.17 141.58 243.09 141.12 241.97 140.85C240.81 140.6 239.62 140.48 238.44 140.49C237.23 140.49 235.98 140.54 234.7 140.61C233.29 140.64 231.85 140.64 230.39 140.61C228.91 140.56 227.44 140.29 226.03 139.81C224.48 139.28 223.02 138.51 221.71 137.51C220.09 136.23 218.681 134.7 217.561 132.96C214.811 128.91 213.8 124.89 214.53 120.892C215.26 116.889 217.5 113.623 221.25 111.086C224.07 109.269 227.15 107.895 230.38 107.012L230.72 107.194L236.22 118.466L235.05 119.695L227.5 112.331Z" fill="#990B12"/>
<path d="M272.868 98.5619L271.618 99.6399L264.378 91.0229C262.668 91.2209 261.028 91.7599 259.538 92.6089C255.758 94.6799 253.848 98.1419 253.818 102.993C253.798 107.844 255.428 113.282 258.728 119.306C262.258 125.74 266.288 130.2 270.818 132.68C275.348 135.16 279.768 135.22 284.088 132.85C286.708 131.34 288.948 129.26 290.648 126.76L292.028 128.51C290.508 133.16 287.278 137.06 282.988 139.42C277.728 142.46 271.318 142.76 265.808 140.21C259.928 137.67 255.018 132.78 251.058 125.54C246.828 117.83 245.378 110.695 246.698 104.142C248.018 97.5889 251.718 92.6409 257.798 89.2949C260.918 87.6039 264.258 86.3629 267.728 85.6089L268.068 85.8629L272.868 98.5619Z" fill="#990B12"/>
<path d="M303.451 114.661C304.071 116.062 304.641 117.335 305.171 118.482C305.691 119.623 306.161 120.646 306.591 121.558C306.831 122.128 307.421 122.468 308.041 122.39L311.861 122.152L312.741 123.86C310.231 124.92 307.471 126.11 304.471 127.42C301.351 128.82 298.581 130.09 296.181 131.24L295.271 129.54L298.261 126.65C298.641 126.29 298.731 125.72 298.501 125.25C298.101 124.29 297.651 123.25 297.141 122.081C296.621 120.915 296.071 119.631 295.441 118.22L282.991 90.231C282.461 89.066 282.001 88.0109 281.551 87.0599C281.111 86.1089 280.711 85.237 280.341 84.452C280.051 83.842 279.671 83.556 279.181 83.572L274.991 83.7939L274.121 82.0419C276.631 81.0359 279.401 79.8549 282.411 78.5229C285.411 77.1909 288.261 75.8589 290.671 74.6699L291.601 76.3979L288.581 79.2679C288.221 79.6199 288.131 80.1719 288.361 80.6229C288.721 81.4869 289.111 82.407 289.531 83.366C289.961 84.325 290.411 85.3949 290.911 86.5369L303.451 114.661Z" fill="#990B12"/>
<path d="M304.769 69.241L311.739 66.7599C316.209 65.1739 320.819 63.491 325.579 61.71L325.869 61.9319L328.419 74.6149L327.039 75.408L322.169 67.2269L311.519 70.9999L318.339 90.2549L319.819 89.739C321.409 89.161 323.129 88.5339 324.939 87.8369C325.419 87.6469 325.609 87.2109 325.539 86.5289L324.749 81.21L326.509 80.4169C327.699 83.9449 328.609 86.5769 329.219 88.3439C329.819 90.1119 330.799 92.6089 332.049 96.0649L330.289 96.8579L327.459 92.1019C327.079 91.4989 326.669 91.2689 326.239 91.3879C324.359 92.0329 322.619 92.6429 321.039 93.2189L319.579 93.7339L323.979 106.164C324.909 108.835 325.869 111.459 326.829 114.043L337.809 110.183L337.899 99.426L339.489 98.5059L343.629 112.299L343.519 112.608C338.919 114.162 334.459 115.702 330.129 117.229L322.819 119.814C320.449 120.654 318.019 121.555 315.529 122.517L314.729 120.749L317.949 118.101C318.349 117.765 318.489 117.207 318.289 116.722C317.979 115.747 317.609 114.653 317.189 113.464C316.769 112.275 316.319 110.936 315.799 109.501L305.589 80.6079C305.159 79.4109 304.789 78.3089 304.399 77.3179C303.999 76.3269 303.709 75.4389 303.399 74.6229C303.149 73.9969 302.789 73.6719 302.319 73.6559L298.119 73.5449L297.379 71.7299C299.999 70.9369 302.459 70.097 304.759 69.288" fill="#990B12"/>
<path d="M353.44 104.919C353.62 105.641 353.97 106.029 354.46 106.061L358.42 106.528L358.96 108.462C356.38 108.978 354.27 109.437 352.62 109.826C350.97 110.214 348.86 110.729 346.28 111.411L345.7 109.572L349.18 107.289C349.62 107.002 349.82 106.458 349.68 105.95C349.24 103.92 348.68 101.434 348 98.4909L341 68.6539C340.42 66.1569 339.9 64.0879 339.49 62.4549C339.32 61.8049 338.99 61.4489 338.51 61.3769L334.35 60.8059L333.82 58.9199C336.5 58.4049 338.58 57.9689 339.98 57.6359C341.84 57.2079 343.59 56.7319 345.24 56.2489L371.46 82.9859C372.51 84.0719 373.59 85.2049 374.72 86.4179C374.28 84.7059 373.87 83.0509 373.5 81.4559L368.93 61.9559C368.37 59.5779 367.85 57.4529 367.42 55.7099C367.32 55.2079 366.91 54.8249 366.41 54.7579L362.45 54.2989L361.9 52.3489C364.54 51.8329 366.65 51.3809 368.3 51.0089C369.94 50.6359 372.08 50.0579 374.64 49.3599L375.22 51.2469L371.7 53.6249C371.28 53.9599 371.12 54.5179 371.3 55.0199C371.64 56.6849 372.1 58.7639 372.67 61.2579L382.42 102.842L379.25 104.023L348.17 72.3159C347.25 71.3489 346.16 70.1839 344.93 68.8439C345.4 70.6829 345.82 72.3879 346.17 73.9249L351.72 97.6269C352.4 100.567 353 102.985 353.49 104.903" fill="#990B12"/>
<path d="M416.162 59.0153L414.572 59.5383L411.102 48.8372C409.452 48.3702 407.732 48.2382 406.032 48.4492C401.752 48.9402 398.692 51.4373 396.822 55.9083C394.962 60.3783 394.452 66.0542 395.242 72.8712C396.082 80.1532 398.132 85.8022 401.392 89.8192C404.652 93.8352 408.722 95.5582 413.612 94.9872C416.602 94.5782 419.472 93.4932 421.992 91.8162L422.602 93.9482C419.442 97.7122 414.952 100.118 410.062 100.67C404.042 101.503 398.002 99.3523 393.862 94.9083C389.382 90.3313 386.672 83.9472 385.732 75.7562C384.722 67.0002 386.062 59.8373 389.762 54.2673C393.462 48.6973 398.742 45.5102 405.622 44.7072C409.162 44.3182 412.732 44.4413 416.242 45.0723L416.462 45.4213L416.162 59.0153Z" fill="#990B12"/>
<path d="M432.219 43.986L439.609 43.8909C444.369 43.8429 449.249 43.7159 454.339 43.5659L454.549 43.8669L452.889 56.692L451.309 57.017L449.319 47.7029L438.029 47.838L438.269 68.2499H439.859C441.559 68.2499 443.369 68.1779 445.319 68.1149C445.839 68.1149 446.159 67.7269 446.299 67.0529L447.289 61.7729L449.209 61.6309C449.209 65.3489 449.209 68.139 449.209 69.978C449.209 71.817 449.279 74.5199 449.399 78.2139L447.469 78.4279L446.339 73.0059C446.149 72.3239 445.859 71.975 445.419 71.952C443.419 71.952 441.569 71.952 439.869 71.952H438.319L438.489 85.1339C438.489 87.9479 438.569 90.746 438.649 93.512L450.319 93.3699L453.889 83.231L455.669 82.8669L455.149 97.254L454.939 97.5229C450.089 97.5229 445.369 97.5419 440.769 97.5789L433.029 97.674C430.509 97.674 427.919 97.7849 425.259 97.8879L425.079 95.9699L428.979 94.4949C429.479 94.3119 429.799 93.8279 429.779 93.2979C429.779 92.2679 429.779 91.1269 429.779 89.8499C429.779 88.5739 429.779 87.1709 429.779 85.6409L429.399 55.012C429.399 53.728 429.399 52.5629 429.329 51.5079C429.269 50.4539 429.279 49.4949 429.249 48.6229C429.309 48.0919 429.019 47.5839 428.529 47.3629L424.559 45.8959L424.449 43.9299C427.169 44.0019 429.779 44.025 432.219 43.986Z" fill="#990B12"/>
<path d="M500.261 71.6421C501.361 71.8431 502.461 72.0261 503.571 72.1891C504.671 72.3561 505.881 72.538 507.201 72.72C508.311 72.863 509.311 72.974 510.201 73.069C511.101 73.164 511.911 73.2361 512.691 73.2831L512.551 75.3051L508.661 76.0021C508.261 76.0391 507.981 76.3871 508.011 76.7791C508.011 76.7841 508.011 76.79 508.011 76.795C508.001 77.899 507.921 79.001 507.751 80.092C507.211 84.596 505.551 88.8931 502.941 92.6011C503.791 94.7281 504.851 96.7651 506.111 98.6811C506.511 99.2791 507.061 99.765 507.701 100.092C508.321 100.405 509.001 100.601 509.691 100.67C510.291 100.743 510.901 100.743 511.491 100.67V102.803C509.371 103.647 507.071 103.939 504.811 103.651C501.471 103.257 498.491 101.367 496.701 98.514C493.421 100.597 489.511 101.463 485.651 100.964C481.821 100.555 478.301 98.6741 475.831 95.7161C473.351 92.7441 472.401 89.0811 472.981 84.6741C473.791 78.5551 477.211 74.0631 483.241 71.1981C482.001 68.8991 481.041 66.462 480.361 63.938C479.891 61.748 479.801 59.4911 480.101 57.2711C480.601 53.6091 482.141 50.845 484.711 48.98C487.231 47.123 490.391 46.348 493.491 46.824C496.281 47.135 498.841 48.5161 500.631 50.6761C502.461 52.9651 503.221 55.9371 502.691 58.8251C502.031 63.8821 498.571 67.8981 492.321 70.8741L501.111 88.899C502.721 86.252 503.761 83.2981 504.161 80.2271C504.331 79.0711 504.441 77.9071 504.481 76.7391C504.511 76.3691 504.431 75.9981 504.261 75.6691L503.461 75.0991L500.001 73.6721L500.261 71.6421ZM484.691 74.3531C483.111 76.4411 482.071 79.2681 481.571 82.8351C481.031 85.9191 481.421 89.094 482.681 91.959C483.681 94.313 485.861 95.9521 488.401 96.2551C490.611 96.5181 492.841 96.109 494.811 95.082L484.691 74.3531ZM490.991 68.0121C493.301 65.8161 494.741 62.5981 495.301 58.3491C495.621 56.5011 495.521 54.604 495.011 52.8C494.501 51.374 493.671 50.5651 492.491 50.4221C491.311 50.2631 490.141 50.7771 489.461 51.7541C488.531 52.9811 487.971 54.4461 487.831 55.9791C487.451 58.8751 488.091 62.0461 489.761 65.4911L490.991 68.0121Z" fill="#990B12"/>
<path d="M539.56 110.737C536.26 109.802 533.11 108.948 530.09 108.177L530.46 106.283L535.42 105.934C535.95 105.866 536.38 105.476 536.49 104.959C537.05 103.12 537.75 100.734 538.57 97.8251L548.81 61.6861L540.71 59.3881L535.33 68.4881L533.67 68.3841L536.84 54.3381L537.11 54.1001C541.71 55.4951 546.1 56.8031 550.32 57.9921L558.17 60.2441C562.4 61.4331 566.86 62.6401 571.55 63.8661L571.63 64.2071L565.97 77.2151L564.31 77.0961L565.36 66.3711L557.25 64.0641L546.95 100.203C546.16 103.128 545.48 105.506 544.98 107.337C544.81 107.85 544.98 108.417 545.41 108.748L549.38 111.625L548.93 113.496C545.85 112.537 542.72 111.617 539.55 110.714" fill="#990B12"/>
<path d="M584.209 68.8281L591.089 71.5231C595.489 73.2571 600.079 75.0061 604.849 76.7711L604.929 77.1281L598.589 88.3841L596.999 88.0911L598.669 78.7131L588.169 74.5831L580.719 93.6081L582.179 94.1781C583.769 94.8051 585.469 95.4391 587.309 96.1121C587.779 96.2791 588.209 96.0651 588.599 95.5021L591.509 90.9921L593.349 91.5861C591.929 95.0191 590.889 97.6031 590.179 99.3151C589.479 101.027 588.549 103.548 587.249 107.012L585.389 106.497L586.359 101.051C586.469 100.345 586.359 99.8941 585.919 99.7031C584.079 98.9371 582.359 98.2391 580.769 97.6111L579.319 97.0401L574.509 109.326C573.479 111.969 572.479 114.574 571.519 117.142L582.379 121.415L589.519 113.345L591.309 113.678L585.399 126.8L585.109 126.98C580.619 125.13 576.239 123.37 571.959 121.692L564.739 118.862C562.409 117.951 559.979 117.031 557.469 116.136L558.029 114.289L562.199 114.4C562.719 114.414 563.189 114.094 563.369 113.607C563.749 112.664 564.159 111.601 564.669 110.436C565.169 109.271 565.659 107.955 566.249 106.528L577.439 77.9921C577.899 76.8031 578.319 75.7171 578.709 74.7341C579.089 73.7511 579.419 72.8471 579.719 72.0311C579.959 71.5611 579.879 70.9891 579.519 70.6041L576.429 67.7661L577.059 65.9111C579.569 67.0051 581.959 68.0011 584.249 68.9001" fill="#990B12"/>
<path d="M635.44 108.161L633.85 107.733L636.92 96.9049C635.82 95.5919 634.48 94.5139 632.96 93.7339C629.12 91.7579 625.19 92.1169 621.15 94.8119C617.12 97.5079 613.52 101.92 610.36 108.05C607 114.574 605.61 120.392 606.04 125.54C606.48 130.7 608.95 134.39 613.33 136.64C616.05 137.97 619.03 138.66 622.05 138.66L621.39 140.79C616.67 142.14 611.61 141.64 607.25 139.39C601.78 136.74 597.95 131.59 596.98 125.59C595.8 119.314 597.1 112.503 600.88 105.157C604.9 97.3408 610 92.1389 616.18 89.5489C622.35 86.9589 628.51 87.2529 634.68 90.4289C637.83 92.0709 640.74 94.1618 643.3 96.6358V97.0639L635.44 108.161Z" fill="#990B12"/>
<path d="M647.35 130.72L639.35 142.53C637.65 145.03 636.25 147.14 635.15 148.83C634.76 149.27 634.7 149.92 635.02 150.42L637.08 153.42L636.07 155.07C634.11 153.65 631.77 152.01 629.06 150.17C626.35 148.32 623.72 146.61 621.43 145.15L622.4 143.48L626.43 144.5C626.94 144.61 627.47 144.4 627.76 143.96C628.95 142.25 630.4 140.16 632.09 137.62L649.29 112.251C650.72 110.137 651.89 108.37 652.81 106.948C653.17 106.546 653.22 105.959 652.95 105.498L650.57 102.065L651.59 100.377C653.76 101.962 656.23 103.722 658.96 105.569C661.68 107.416 664.16 109.033 666.19 110.325L665.24 112.053L661.64 111.181C661.12 111.064 660.59 111.292 660.33 111.744C659.27 113.258 658.04 115.034 656.63 117.087L649.66 127.39L664.05 137.13L671.04 126.83C672.44 124.78 673.64 122.961 674.64 121.415C674.97 121.01 674.99 120.43 674.68 120.004L672.58 117L673.61 115.327C675.6 116.801 677.98 118.482 680.75 120.369C683.47 122.223 685.95 123.84 688.21 125.24L687.25 126.92L683.13 125.94C682.6 125.87 682.08 126.12 681.81 126.58C680.83 127.96 679.62 129.75 678.19 131.83L660.99 157.2C659.29 159.7 657.87 161.82 656.75 163.54C656.45 163.97 656.45 164.55 656.75 164.98L659.13 168.29L658.12 169.93C655.85 168.35 653.36 166.56 650.54 164.66C647.72 162.75 645.46 161.27 643.48 160.02L644.44 158.35L648.1 159.2C648.67 159.29 649.23 159.01 649.48 158.5C650.65 156.86 652.09 154.77 653.79 152.27L661.78 140.46L647.35 130.72Z" fill="#990B12"/>
<path d="M668.761 173.12C668.281 173.69 668.171 174.18 668.421 174.62L670.321 178.1L669.061 179.68C667.141 177.89 665.551 176.43 664.311 175.29C663.061 174.14 661.391 172.76 659.301 171.01L660.461 169.49L664.341 171.01C664.831 171.2 665.391 171.05 665.721 170.64C667.131 169.11 668.831 167.21 670.831 164.96L691.141 141.97C692.841 140.05 694.221 138.44 695.321 137.15C695.721 136.8 695.851 136.23 695.631 135.74L693.711 132.01L694.941 130.49C696.901 132.39 698.451 133.81 699.531 134.78C700.971 136.04 702.361 137.21 703.701 138.25L697.041 175.12C696.771 176.6 696.471 178.14 696.141 179.76C697.271 178.41 698.391 177.12 699.481 175.89L712.731 160.91C714.381 159.06 715.781 157.43 716.951 156.06C717.311 155.7 717.391 155.15 717.151 154.7L715.241 151.21L716.521 149.63C718.461 151.49 720.061 152.96 721.321 154.07C722.571 155.18 724.261 156.63 726.291 158.28L725.111 159.87L721.151 158.35C720.641 158.2 720.091 158.4 719.791 158.85C718.611 160.07 717.191 161.64 715.491 163.6L687.181 195.52L684.381 193.62L692.301 149.94C692.551 148.61 692.871 147.07 693.251 145.28C692.031 146.74 690.871 148.05 689.831 149.25L673.711 167.48C671.701 169.75 670.061 171.63 668.791 173.14" fill="#990B12"/>
<path d="M741.75 214.27C735.08 220.08 728.4 223.27 721.7 223.84C715.01 224.4 709.34 222.01 704.69 216.65C700.24 211.53 698.68 205.94 700.01 199.87C701.34 193.81 705.21 187.98 711.61 182.4C718.3 176.58 724.91 173.48 731.43 173.07C737.95 172.7 743.53 175.15 748.16 180.47C752.62 185.59 754.24 191.12 753.03 197.12C751.83 203.12 748.06 208.8 741.77 214.29M719.05 188.98C712.85 194.37 708.83 199.29 706.92 203.73C705.01 208.17 705.42 211.92 708.11 214.99C710.8 218.06 714.18 218.95 718.42 217.81C722.65 216.67 727.93 213.31 734.32 207.75C740.31 202.53 744.25 197.76 746.14 193.42C748.02 189.09 747.57 185.32 744.78 182.12C742.07 179.02 738.63 178.08 734.41 179.28C730.19 180.49 725.08 183.71 719.04 188.98" fill="#990B12"/>
<path d="M764.989 222.03L739.919 239.29C737.609 240.87 735.309 242.46 733.059 244.04L739.519 253.46L750.799 250.58L752.099 251.84L739.169 259.86H738.829C736.169 255.87 733.519 251.97 730.909 248.18L726.799 242.2C725.149 239.82 723.599 237.62 722.129 235.63L723.639 234.42L726.859 236.6C727.289 236.91 727.869 236.91 728.299 236.6L731.149 234.7C732.199 233.98 733.359 233.19 734.629 232.32L759.869 214.94C760.929 214.22 761.879 213.56 762.739 212.95C763.609 212.35 764.389 211.8 765.119 211.28C765.589 211.03 765.849 210.51 765.769 209.99L764.939 206.1L766.519 204.91C767.849 207.03 769.459 209.46 771.329 212.16C773.199 214.86 774.959 217.36 776.459 219.34L774.929 220.58L771.689 218.4C771.289 218.09 770.719 218.09 770.319 218.4C769.529 218.9 768.459 219.64 767.049 220.59C765.639 221.54 764.949 222.01 764.999 221.97" fill="#990B12"/>
<path d="M785.86 287.09C778.03 291.27 770.8 292.87 764.17 291.9C757.54 290.92 752.56 287.31 749.23 281.06C746.06 275.08 745.79 269.28 748.43 263.67C751.08 258.06 756.16 253.25 763.69 249.25C771.52 245.08 778.65 243.54 785.09 244.64C791.52 245.73 796.4 249.39 799.72 255.61C802.89 261.59 803.22 267.35 800.72 272.89C798.19 278.44 793.24 283.15 785.88 287.09M769.43 257.32C762.19 261.17 757.15 265.05 754.32 268.96C751.46 272.85 751 276.61 752.91 280.19C754.82 283.77 757.93 285.42 762.33 285.26C766.73 285.1 772.63 283.03 780.1 279.05C787.11 275.31 792.02 271.54 794.84 267.74C797.65 263.95 798.06 260.18 796.06 256.43C794.13 252.8 790.98 251.1 786.61 251.32C782.24 251.54 776.51 253.54 769.43 257.32Z" fill="#990B12"/>
<path d="M810.96 319.75L810.09 318.32L819.28 312.63C819.31 310.68 818.94 308.74 818.21 306.93C816.62 302.85 813.41 300.42 808.58 299.65C803.76 298.88 797.84 299.83 790.85 302.49C783.56 305.29 778.32 308.6 775.12 312.44C771.93 316.27 771.11 320.26 772.69 324.4C773.11 325.46 773.62 326.48 774.23 327.45L783.68 323.85L786.94 322.58C787.92 322.19 788.81 321.85 789.61 321.51C790.14 321.38 790.52 320.92 790.55 320.37V316.13L792.3 315.34C793.22 317.96 794.25 320.77 795.42 323.79C796.58 326.81 797.65 329.56 798.59 331.75L796.84 332.59L794.46 329.8C794.12 329.43 793.58 329.31 793.12 329.51C792.14 329.85 791.16 330.2 790.17 330.58C789.18 330.94 788.1 331.37 786.95 331.79L775.57 336.1L775.25 336C772.74 332.81 770.71 329.28 769.23 325.5C766.71 318.88 766.9 312.7 769.8 306.97C772.71 301.23 778.16 296.85 786.14 293.82C794.62 290.57 802 290.07 808.34 292.23C814.68 294.39 819.18 299.01 821.81 305.99C823.09 309.34 823.87 312.86 824.11 316.43L823.87 316.76L810.96 319.75Z" fill="#990B12"/>
<path d="M809.569 352.94L825.188 354.67C826.558 354.87 827.728 354.99 828.658 355.07C829.408 355.15 830.168 355.12 830.898 354.97C831.658 354.76 832.168 354.06 832.148 353.28L832.359 350.51L834.309 349.91C834.759 352.02 835.288 354.23 835.898 356.53C836.458 358.62 837.038 360.68 837.668 362.7L835.799 363.33L833.878 360.62C833.428 360.05 832.828 359.62 832.138 359.4C831.318 359.15 830.488 358.97 829.638 358.87L805.549 355.6L793.489 358.77L789.438 359.84C788.228 360.16 787.148 360.46 786.178 360.74C785.568 360.89 785.138 361.44 785.138 362.06L784.658 365.58L782.809 366.13C782.269 363.68 781.559 360.86 780.739 357.69C779.909 354.52 779.148 351.56 778.398 349.18L780.229 348.54L782.519 351.71C782.819 352.14 783.359 352.33 783.859 352.17L787.198 351.38C788.448 351.09 789.809 350.73 791.289 350.34L802.458 347.45L821.719 332.61C822.709 331.82 823.649 330.97 824.529 330.06C825.049 329.45 825.399 328.7 825.509 327.91L825.799 324.94L827.658 324.32C828.048 326.22 828.689 328.88 829.589 332.32C830.559 336.09 831.539 339.64 832.519 342.99L830.658 343.62L828.979 340.99L828.188 340.19L827.188 340.11C826.538 340.31 825.938 340.61 825.398 341C824.568 341.56 823.779 342.16 823.019 342.8L809.569 352.94Z" fill="#990B12"/>
<path d="M779.631 372.94C783.621 375.78 787.291 376.89 790.641 376.28C793.481 375.83 795.871 373.9 796.911 371.22C798.441 370.84 800.051 370.99 801.491 371.66C802.611 372.22 803.411 373.28 803.621 374.53C803.841 375.97 803.281 377.42 802.141 378.34C800.701 379.59 798.941 380.4 797.051 380.68C793.811 381.29 790.481 381.09 787.341 380.11C783.821 378.93 780.531 377.14 777.621 374.84L779.631 372.94Z" fill="#990B12"/>
<path d="M841.438 384.54C841.628 387.25 841.878 390.05 842.178 392.92C842.328 393.96 842.578 395.59 842.918 397.81C843.258 400.03 843.479 401.56 843.569 402.38C844.099 407.27 843.438 411.1 841.638 413.8C839.828 416.49 836.969 418.07 833.069 418.49C826.959 419.14 822.429 416.84 819.499 411.58C819.369 414.58 818.068 417.4 815.878 419.45C813.508 421.52 810.519 422.76 807.369 422.97C802.279 423.52 798.159 422.39 795.039 419.57C791.929 416.74 790.048 412.47 789.448 406.76C789.318 405.64 789.228 404.45 789.178 403.22C789.118 401.99 788.999 400.44 788.809 398.6C788.499 395.77 788.179 393.05 787.809 390.4L789.719 390.05L791.549 393.78C791.779 394.26 792.289 394.53 792.819 394.45C793.839 394.36 794.969 394.26 796.229 394.12L800.428 393.69L830.898 390.44C832.158 390.31 833.319 390.19 834.369 390.05C835.409 389.92 836.369 389.83 837.229 389.71C837.759 389.72 838.238 389.41 838.428 388.91L839.499 384.86L841.438 384.54ZM815.799 400.8L792.938 403.24C792.818 404.39 792.818 405.55 792.938 406.71C793.088 409.13 794.478 411.3 796.628 412.43C798.798 413.59 801.808 413.97 805.658 413.55C809.508 413.13 812.289 412.13 814.009 410.55C815.729 408.98 816.439 406.59 816.099 403.47C816.009 402.58 815.899 401.68 815.789 400.8M819.219 400.45C819.309 401.43 819.389 402.38 819.489 403.26C819.739 405.75 820.728 407.5 822.418 408.52C824.118 409.55 826.839 409.86 830.589 409.46C834.099 409.08 836.558 408.2 837.958 406.82C839.388 405.33 840.028 403.26 839.688 401.23C839.688 400.86 839.579 400.44 839.489 399.95C839.399 399.46 839.279 398.92 839.109 398.32L819.219 400.45Z" fill="#990B12"/>
<path d="M845.319 434.6V441.98C845.319 446.74 845.389 451.65 845.539 456.72L845.229 456.92L832.419 455.16L832.099 453.57L841.439 451.67L841.389 440.37L820.979 440.45V442.03C820.979 443.73 820.979 445.54 821.079 447.49C821.079 448.01 821.449 448.32 822.109 448.48L827.389 449.51L827.499 451.44C823.799 451.39 820.999 451.38 819.159 451.39C817.329 451.4 814.629 451.44 810.939 451.51L810.739 449.58L816.159 448.48C816.849 448.32 817.199 448.02 817.229 447.56C817.279 445.58 817.289 443.73 817.289 442.01V440.47L804.089 440.52C801.269 440.52 798.479 440.52 795.709 440.61L795.759 452.3L805.879 455.94L806.239 457.72L791.889 457.07L791.609 456.86C791.669 452.01 791.689 447.29 791.679 442.7V434.94C791.679 432.45 791.629 429.86 791.539 427.18L793.459 427.02L794.899 430.93C795.079 431.43 795.559 431.75 796.079 431.73H799.529C800.809 431.73 802.209 431.73 803.749 431.73L834.379 431.61C835.659 431.61 836.829 431.61 837.889 431.61L840.769 431.55C841.299 431.61 841.799 431.33 842.029 430.85L843.519 426.92L845.479 426.83C845.389 429.55 845.339 432.14 845.359 434.6" fill="#990B12"/>
<path d="M802.402 475.28L798.212 474.97C796.962 474.87 795.842 474.82 794.852 474.75C794.222 474.69 793.632 475.06 793.422 475.65L791.832 479.13L789.922 479.07C790.192 476.38 790.462 473.38 790.722 470.11C790.972 466.7 791.162 463.67 791.292 461.01H793.222L794.352 465.03C794.482 465.53 794.942 465.88 795.462 465.89C796.492 465.99 797.632 466.1 798.892 466.2C800.152 466.3 801.562 466.42 803.102 466.53L833.652 468.85L837.132 469.11L840.022 469.28C840.542 469.38 841.072 469.14 841.332 468.67L843.132 464.88L845.092 464.94C844.782 467.63 844.512 470.62 844.292 473.9C844.032 477.29 843.862 480.32 843.762 483H841.802L840.662 478.99C840.542 478.49 840.082 478.15 839.572 478.15L836.612 477.88L833.192 477.6L802.402 475.28Z" fill="#990B12"/>
<path d="M843.061 488.87C842.641 491.57 842.231 494.54 841.831 497.8C841.421 501.06 841.101 504.08 840.871 506.86L839.111 506.73L838.321 502.67C838.241 502.18 837.861 501.79 837.371 501.71L834.731 501.28C833.781 501.12 832.771 500.97 831.671 500.82L800.711 496.14C798.451 495.79 796.421 495.41 794.611 494.95C792.971 494.57 791.381 494.04 789.851 493.36C788.531 492.75 787.301 491.95 786.211 490.99C785.141 490.02 784.231 488.88 783.531 487.61C782.731 486.14 782.111 484.57 781.691 482.95C781.171 480.9 780.821 478.82 780.641 476.72L782.731 476.48C783.341 478.25 784.271 479.9 785.471 481.35C786.541 482.57 787.821 483.59 789.261 484.34C790.861 485.17 792.561 485.77 794.321 486.15C796.221 486.58 798.361 486.94 800.771 487.34L832.611 492.14C833.751 492.33 834.791 492.46 835.721 492.6L838.291 492.94C838.771 493.06 839.271 492.85 839.511 492.42L841.331 488.72L843.061 488.87Z" fill="#990B12"/>
<path d="M796.181 517.28C794.661 516.97 793.291 516.72 792.061 516.49C790.821 516.25 789.681 516.06 788.731 515.89C788.131 515.74 787.501 516.03 787.221 516.59L785.211 519.86L783.301 519.58C783.901 516.94 784.521 514 785.141 510.76C785.821 507.43 786.361 504.42 786.791 501.81L788.721 502.04L789.351 506.15C789.441 506.67 789.851 507.07 790.371 507.16L793.741 507.85L797.871 508.7L827.931 514.58C829.191 514.84 830.311 515.05 831.371 515.25L834.201 515.76C834.711 515.93 835.261 515.75 835.581 515.31L837.811 511.75L839.751 512.06C839.121 514.7 838.501 517.6 837.861 520.84C837.211 524.18 836.681 527.18 836.281 529.83L834.331 529.61L833.691 525.48C833.611 524.97 833.211 524.58 832.701 524.51C831.801 524.31 830.831 524.12 829.791 523.89C828.751 523.66 827.611 523.45 826.401 523.22L796.181 517.28Z" fill="#990B12"/>
<path d="M785.4 531.33C784.67 531.14 784.18 531.24 783.9 531.65L781.52 534.87L779.59 534.39C780.38 531.87 781.04 529.81 781.52 528.19C782 526.56 782.57 524.47 783.26 521.85L785.15 522.26L785.4 526.4C785.44 526.93 785.82 527.38 786.33 527.51C788.31 528.12 790.75 528.87 793.66 529.72L823.05 538.36C825.51 539.07 827.56 539.65 829.2 540.09C829.69 540.3 830.25 540.17 830.61 539.78L833.15 536.45L835.06 536.91C834.19 539.5 833.54 541.49 833.14 542.9C832.61 544.74 832.13 546.48 831.75 548.15L795.55 557.77C794.1 558.16 792.56 558.56 790.95 558.91C792.67 559.39 794.31 559.85 795.89 560.31L815.11 565.95C817.48 566.66 819.55 567.23 821.29 567.7C821.76 567.88 822.3 567.72 822.6 567.31L824.98 564.14L826.95 564.62C826.09 567.17 825.43 569.26 824.96 570.86C824.48 572.46 823.91 574.61 823.27 577.15L821.35 576.73L821.03 572.5C820.98 572.03 820.64 571.71 820.01 571.48C818.42 570.94 816.37 570.32 813.92 569.6L772.93 557.56L773.47 554.22L816.37 542.8C817.66 542.49 819.2 542.11 820.98 541.71C819.14 541.2 817.48 540.74 815.95 540.3L792.6 533.43C789.7 532.58 787.3 531.85 785.4 531.37" fill="#990B12"/>
<path d="M794.33 609.49L794.69 607.91L805.24 610.21C806.62 608.83 807.73 607.19 808.47 605.37C810.19 601.35 809.57 597.39 806.62 593.48C803.66 589.57 798.75 586.13 791.9 583.18C784.75 580.1 778.69 578.83 773.71 579.35C768.74 579.89 765.38 582.19 763.63 586.24C763.19 587.29 762.85 588.38 762.61 589.49L771.91 593.46C773.08 593.96 774.15 594.42 775.12 594.83C776.1 595.23 776.98 595.62 777.79 595.91C778.26 596.18 778.85 596.11 779.25 595.75L782.19 592.68L783.99 593.37C782.83 595.88 781.61 598.62 780.32 601.58C779.04 604.54 777.95 607.28 777.06 609.51L775.22 608.91L775.42 605.2C775.44 604.69 775.12 604.23 774.63 604.06L771.77 602.76L768.6 601.42L757.5 596.66L757.34 596.35C757.76 592.32 758.76 588.37 760.32 584.63C763.12 578.13 767.57 573.83 773.65 571.74C779.73 569.66 786.69 570.3 794.54 573.69C802.88 577.27 808.55 582.06 811.57 588.04C814.59 594.03 814.62 600.45 811.67 607.31C810.26 610.61 808.36 613.68 806.04 616.42L805.64 616.47L794.33 609.49Z" fill="#990B12"/>
</svg>
