<?xml version="1.0" encoding="UTF-8"?><svg id="b" xmlns="http://www.w3.org/2000/svg" viewBox="0 0 84.3851 57.6111"><g id="c"><path d="M42.7896,14.3756c3.1003.6316,5.8765,2.0945,7.2247,3.9005l2.2416,3.1555c.6642.9128,1.179,2.8485,1.302,4.1156.3336,3.437-1.6917,5.4973-2.9092,7.8185-1.5993,3.0496-3.8086,5.4156-3.8177,5.4329-.3283.6401-1.0247.0459.1522.4663,3.1133-1.4286,4.0825-.8206,7.1048-3.0622,1.0301-.7637,1.8175-1.5137,2.8315-2.2618,2.5982-1.9165,3.4849-1.8332,4.6755-5.8278,1.0899-3.6578,3.8236-1.9193,2.2824-12.924C62.2058,3.2527,50.0628-.8161,36.4947.1321-11.62,8.742-.0042,38.9109,4.7201,41.7807c.055-.0615.1196-.2517.1423-.2021.0221.0487.1091-.154.1394-.1976.6903-.9938.5471-.9899,1.5409-1.4757.4238,2.5324-.4663,3.5112,1.0333,5.5182.6355.8509,2.736,2.7263,4.3772,2.6396-.1054-2.6904-1.7317-3.9073-2.0293-6.9727-.2194-2.2603-1.1004-1.3065-1.3258-3.3086-.0915-.8121.1696-3.5623.4374-4.3432.7631-2.2255,1.3059.1522,1.7992-2.749,1.381-8.1239,7.3363-14.6186,15.6705-16.6743,4.6717-1.1523,11.9452-1.0993,16.2844.3603Z" fill="#9d557e" fill-rule="evenodd" stroke-width="0"/><path d="M33.9379,35.3083c-1.0162-1.118-.8087-3.4154-.9879-5.1511-.3005-2.9137,1.1461-6.6569,2.6796-8.818l2.3618-3.3242-1.6066.1349c-.76.6795-2.2037.7796-3.0674,1.4743-.9984.8031-1.3034,1.6643-2.9194,2.1957-2.1858.7189-1.9111-.0822-3.0631,1.715-.8388,1.3079-1.2084,1.9383-2.2235,2.8738-1.0199.9394-1.5925.8937-2.3233,2.4715-.7206,1.5562-1.3054,1.5097-1.6679,3.4101-.4306,2.2549-.6131,2.332-1.141,4.0172-.8702,2.78.9468,1.6288.3714,3.6091-.845,2.9081-1.7011,2.6223,2.0557,6.5653,1.4397,1.5109-.0394,2.7856,4.3713,5.8249,3.9464,2.7193,8.4398,5.211,14.8082,5.3,10.6347.1488,24.8295-3.6097,31.0583-8.8396,3.1601-2.6529,7.5152-6.654,9.5539-10.5386,1.5429-2.9401,2.4426-9.0647,2.1229-12.6998-.1304-1.4822-.9196-2.5688-.9533-3.9124-.2903-.2568-.2055-.1621-.4805-.5295l-.6571-1.1622c-3.031-5.7223-1.4187-1.0321-3.7014-3.7154.3067-1.7209-.7481,1.3153.2055-.3821.7495-1.3334.3036.7484.6301-1.2237l-3.5042-2.2535c.1511,1.0423.5536,1.1627,1.0165,1.7662-.5927,1.6172-1.038.5811.1191,2.6433,1.0003,1.7827.4155.6157,2.0568,1.7638.0641.9652-.2421,2.3859-.8405,2.8845-1.5539,1.2946-1.3033-.7333-1.5522-1.2776-3.301,1.1364.3668,5.3677.3676,5.3711.0689,1.923-.2885,3.2165-.477,4.9496-.1222,1.1211.2755,1.4913.0096,2.177-.3078.7931-1.0304.9955-1.4272.2656-.1585-.2908.3121-4.0255.5028-4.4915.1877-.4589,1.4409-3.0328-1.0085-3.1516-.9451,3.2738.8583,4.8666-1.1458,7.2635-2.0118,2.4055-1.6115,2.8664-3.0322,5.673-3.0544,6.0341-18.9338,8.3974-27.1908,5.4323-2.8171-1.0114-3.5861-2.2059-5.2852-3.7088l-3.3446-3.2553c-.7325-.8995-.5298-.4031-.6905-1.3468Z" fill="#9d557e" fill-rule="evenodd" stroke-width="0"/><path d="M35.4289,33.6841c.0405.0351.093.053.1052.1221.1074.6146,2.1957,2.477,3.3202,3.1258,2.0316,1.173,3.4671.8385,5.6789.9439.6296-.6774.9817-.8254,1.639-1.4989,1.0281-1.0534.3271-.6256,2.128-.8938.417-2.8287,2.897-2.4755,1.5043-8.9138-.428-1.9783-.9966-2.3941-2.2736-3.4143-1.2728-1.0171-1.9389-2.0098-3.8223-2.2139-5.5054-.5975-9.0453,2.5475-9.6142,7.8579-.4071,3.7976.3945,2.7488,1.3345,4.885Z" fill="#9d557e" fill-rule="evenodd" stroke-width="0"/><path d="M74.2616,13.8634c.0337-.055.9581.0915-.241-2.2147-1.3388-2.5759-1.1766.8498-1.7181-3.5997-.2809.087-1.1746-.1259-1.0241,1.5471.0726.8099.3909,1.1055.735,1.6705.491.807,1.4301,2.1259,2.2482,2.5968Z" fill="#9d557e" fill-rule="evenodd" stroke-width="0"/><path d="M65.5842,5.4181c.665.7438,2.789,1.294,3.6677,1.4687-.2288-1.4684-.1389-1.1331-1.4196-1.6541-.866-.3526-1.4955-.7497-2.2481.1854Z" fill="#9d557e" fill-rule="evenodd" stroke-width="0"/><path d="M76.3601,19.1165c.5402-.8512.1916-1.5964-.8995-2.3127-.3359.697-.1324,1.2378.8995,2.3127Z" fill="#9d557e" fill-rule="evenodd" stroke-width="0"/><path d="M13.66,49.4813c-.4094-1.0109.4175-.5548-1.1934-.6996.1692.5819-.0496.6514.4739.9159.8949.4524.6735-.1826.7195-.2163Z" fill="#9d557e" fill-rule="evenodd" stroke-width="0"/><path d="M65.0748,5.3668c-.5015-1.171.428-.6264-1.105-.8439.5667.9267.0352.4533,1.105.8439Z" fill="#9d557e" fill-rule="evenodd" stroke-width="0"/><path d="M70.3651,8.6031c.8563-.9462.2075-.5811,0-.9329-.0528.0893-.8955.0675,0,.9329Z" fill="#9d557e" fill-rule="evenodd" stroke-width="0"/></g></svg>