<svg xmlns="http://www.w3.org/2000/svg" xmlns:xlink="http://www.w3.org/1999/xlink" width="226.77200317382812" height="226.77149963378906" viewBox="0 0 226.77200317382812 226.77149963378906" fill="none">
<g  clip-path="url(#clip-path-r256g0zNa3aY_g9P6quhi)">
<path d="M0 113.385C0.0019 50.7617 50.7656 0 113.389 0C176.008 0 226.768 50.7617 226.772 113.385C226.768 176.008 176.008 226.772 113.389 226.772C50.7656 226.771 0.0019 176.008 0 113.385ZM36.5713 36.5664C16.9087 56.2334 4.7539 83.3794 4.749 113.385C4.7539 143.391 16.9087 170.537 36.5713 190.202C56.2349 209.866 83.3794 222.021 113.389 222.023C143.392 222.021 170.538 209.866 190.202 190.202C209.869 170.537 222.023 143.391 222.023 113.385C222.023 83.3794 209.869 56.2334 190.202 36.5664C170.538 16.9038 143.392 4.74761 113.389 4.74511C83.3794 4.74761 56.2349 16.9038 36.5713 36.5664Z"   fill="#B31B21" >
</path>
<path d="M183.923 113.486C183.923 74.5537 152.363 42.9932 113.432 42.9932C74.5014 42.9932 42.938 74.5537 42.938 113.486C42.938 152.418 74.5015 183.979 113.432 183.979C152.363 183.979 183.923 152.414 183.923 113.486Z"   fill="#B31B21" >
</path>
<path d="M173.781 162.081C173.781 162.081 172.736 161.696 173.17 160.964C173.17 160.964 173.898 159.501 175.362 159.787C175.362 159.787 176.308 160.171 176.734 161.561L177.565 165.036C177.565 165.036 178.775 164.055 179.175 164.201C179.175 164.201 179.999 164.011 180.675 167.942C180.675 167.942 181.056 167.608 182.275 168.11C182.275 168.11 182.098 167.38 182.216 167.239L181.579 166.653C181.579 166.653 180.772 165.492 181.594 164.636C181.594 164.636 181.867 164.649 182.222 164.903L182.341 164.815C182.341 164.815 181.282 162.895 180.52 161.12C180.52 161.12 179.773 160.22 179.737 161.763C179.737 161.763 179.151 163.06 178.613 161.913L179.08 159.475C179.08 159.475 179.909 157.555 180.87 158.261C180.87 158.261 181.375 158.561 181.779 159.421L183.815 165.423C183.815 165.423 184.498 165.896 183.911 167.144C183.911 167.144 183.439 171.31 183.004 172.099C183.004 172.099 182.495 172.757 182.509 172.012L182.505 168.905L181.368 169.241C181.368 169.241 181.946 172.01 181.785 172.304C181.785 172.304 181.232 173.179 180.814 171.843C180.814 171.843 180.384 170.45 180.215 169.367C180.215 169.367 179.894 169.304 179.349 169.72C179.349 169.72 178.888 169.872 179.475 169.132L180.005 168.341C180.005 168.341 179.592 167.266 179.532 167.005C179.532 167.005 178.48 165.902 178.357 165.882C178.357 165.882 177.544 165.782 177.793 166.487C177.793 166.487 178.593 168.714 178.109 168.846C178.109 168.846 177.88 169.272 177.372 167.596L176.998 166.866L176.26 167.456C176.26 167.456 175.694 167.452 175.787 167.287L176.765 165.921C176.765 165.921 175.318 162.392 175.156 162.022L174.44 161.364L173.781 162.081Z"   fill="#B31B21" >
</path>
<path d="M175.526 171.151C175.526 171.151 175.029 171.013 175.127 170.45C175.127 170.45 175.066 169.466 176.514 169.49C176.514 169.49 178.923 170.112 179.372 170.36C179.372 170.36 179.984 171.527 179.754 171.804C179.754 171.804 179.423 172.138 178.987 171.702L177.925 171.563C177.925 171.563 176.461 171.167 176.156 170.915L175.526 171.151Z"   fill="#B31B21" >
</path>
<path d="M177.127 173.665C177.127 173.665 177.515 172.985 177.957 172.965C177.957 172.965 179.601 173.538 180.898 174.683C180.898 174.683 181.069 175.204 180.513 175.417L179.306 175.386L177.682 174.069C177.682 174.069 177.087 174.038 177.127 173.665Z"   fill="#B31B21" >
</path>
<path d="M180.55 178.764C180.55 178.764 180.75 177.583 181.561 178.188L182.463 179.906L182.534 179.764C182.534 179.764 182.667 176.495 182.787 176.307L183.087 175.951L183.154 175.702L182.96 175.208C182.96 175.208 183.965 169.693 184.276 168.381C184.276 168.381 184.171 167.51 184.237 167.372C184.237 167.372 184.984 166.331 185.374 166.314C185.374 166.314 185.915 166.346 186.088 167.54L186.593 171.559C186.593 171.559 187.898 170.969 188.64 172.379L188.807 172.236L189.224 171.077L189.977 170.245C189.977 170.245 190.993 169.889 191.004 171.324C191.004 171.324 191.205 171.982 190.233 173.504L190.432 173.609C190.432 173.609 191.577 172.655 192.627 173.861C192.627 173.861 194.047 176.755 193.309 178.458C193.309 178.458 191.109 180.538 190.013 180.822C190.013 180.822 188.851 181.242 188.461 180.648C188.461 180.648 188.057 180.341 188.789 180.208L189.57 180.122L189.815 180.115L191.945 177.557C191.945 177.557 192.32 175.999 191.645 174.965L191.308 174.577L190.033 174.629L189.706 175.018C189.706 175.018 188.706 179.465 188.666 179.576L188.197 180.126C188.197 180.126 187.816 179.956 187.831 179.607C187.831 179.607 187.61 179.087 188.442 173.499C188.442 173.499 187.762 172.518 187.36 172.323L186.744 172.826L185.795 171.877L185.327 168.814C185.327 168.814 184.686 168.122 184.705 169.16L183.815 175.042L183.348 175.697L183.309 175.971C183.309 175.971 183.589 176.141 183.526 177.046C183.463 177.951 183.454 181.303 183.454 181.303L183.858 184.046C183.858 184.046 183.642 185.915 182.623 184.495L182.083 183.855L182.065 183.434C182.065 183.434 181.014 180.497 181.082 180.309L181.031 179.647C181.031 179.647 180.445 179.161 180.55 178.764Z"   fill="#B31B21" >
</path>
<path d="M33.5981 164.044C33.5981 164.044 34.2876 163.712 33.8994 164.585C33.8994 164.585 32.978 165.744 32.6455 166.513C32.6455 166.513 31.4673 170.676 29.0708 169.483C29.0708 169.483 27.916 168.338 29.0312 167.111L33.5981 164.044Z"   fill="#B31B21" >
</path>
<path d="M51.6899 172.251L50.856 170.585C47.7568 169.071 43.2427 167.2 43.2427 167.2C43.4067 167.183 45.6201 167.246 45.6201 167.246C46.3154 167.254 46.8823 167.017 46.8823 167.017L50.0869 168.088C50.6743 168.209 50.9668 167.554 50.9668 167.554L50.3862 165.954C50.2349 165.451 50.5112 165.316 50.5112 165.316L52.2339 164.184C53.478 161.005 52.8164 160.198 52.8164 160.198C52.5894 159.686 51.7085 160.608 51.7085 160.608L50.9766 161.7L47.7895 163.799C47.3765 163.89 45.8896 164.253 45.8896 164.253C41.2168 164.498 39.4995 160.339 39.4995 160.339C39.0874 159.381 38.5962 160.074 38.5962 160.074L37.9751 161.777C37.8423 162.174 39.4629 164.365 39.4629 164.365L41.6523 165.077C41.897 165.103 41.918 165.455 41.918 165.455L40.4321 166.432C37.5166 165.461 35.9165 164.456 35.9165 164.456L35.2783 164.875L35.8857 165.982C36.2075 166.45 36.9678 166.99 36.9678 166.99L36.314 167.486L36.4058 168.594C36.6704 169.281 37.1963 169.182 37.1963 169.182L38.5122 168.313L40.019 168.734C41.1841 168.956 40.0376 169.402 40.0376 169.402L37.0566 169.459L36.7446 169.416L35.9038 169.786C35.6333 169.291 34.8257 169.513 34.8257 169.513L34.6235 169.152C33.7241 169.62 33.8144 169.996 33.8144 169.996C34.0542 170.635 34.5454 170.682 34.5454 170.682L33.9311 171.148L33.3862 170.892L32.3667 171.564L32.4976 172.065C31.3852 172.889 31.1465 173.876 31.1465 173.876L32.0815 175.567L33.0503 175.112L33.647 173.842C33.9897 173.432 35.0903 173.999 35.0903 173.999C34.5049 176.876 35.2446 181.284 35.2446 181.284C35.5488 182.232 36.3496 182.031 36.3496 182.031L48.6567 173.926C49.8989 173.886 51.2095 173.117 51.2095 173.117C51.7285 172.867 51.6899 172.251 51.6899 172.251ZM47.647 172.145C47.647 172.145 47.1811 172.141 46.457 172.618L37.0596 178.808C37.0596 178.808 36.5801 177.833 36.2729 176.438C36.2729 176.438 36.1025 175.808 36.2764 174.034L37.0024 173.553C37.0024 173.553 37.5464 173.075 37.1645 172.276L37.354 172.095C37.354 172.095 37.6138 172.351 37.9155 172.276L38.335 171.875C38.335 171.875 38.8657 172.206 37.875 170.52L37.9453 170.225C37.9453 170.225 39.2212 170.86 41.7637 171.155L42.9673 170.607L42.1509 168.808L42.3447 168.744L48.814 171.005C48.814 171.005 49.3003 171.787 47.647 172.145Z"   fill="#B31B21" >
</path>
<path d="M72.7227 180.88L73.5102 180.016C73.5102 180.016 74.8369 180.285 75.3618 181.192C75.3618 181.192 77.5693 185.887 74.3335 186.193C74.3335 186.193 73.3061 186.63 72.2432 185.439C72.2432 185.439 72.3027 184.641 73.2964 184.607L73.4321 184.194L72.7227 180.88Z"   fill="#B31B21" >
</path>
<path d="M59.8262 182.685C59.8262 182.685 60.2007 181.898 60.7891 183.006C60.7891 183.006 61.0635 183.466 61.8867 183.874C61.8867 183.874 63.3599 184.529 64.6558 184.595C64.6558 184.595 67.1401 184.547 69.7568 185.689L73.1567 186.984C73.1567 186.984 74.918 187.268 75.5493 187.92C75.5493 187.92 76.644 188.718 76.7378 189.164C76.7378 189.164 76.8667 190.202 75.9521 190.141C75.9521 190.141 74.5029 189.784 73.1577 188.976C73.1577 188.976 72.0737 188.25 67.8418 187.676L64.5537 187.046C64.5537 187.046 62.521 187.01 62.3394 186.919C62.3394 186.919 60.9062 186.942 60.2788 185.161L59.7007 183.559L59.8262 182.685Z"   fill="#B31B21" >
</path>
<path d="M63.771 189.144C63.771 189.144 64.9775 188.716 64.6172 189.766C64.6172 189.766 64.106 191.419 64.2466 191.606L64.4438 191.781L66.8809 191.753L67.5942 191.402C67.5942 191.402 67.7646 191.188 67.3115 191.032C67.3115 191.032 67.0464 191.003 66.2617 190.119C66.2617 190.119 66.417 189.568 66.7144 189.734C66.7144 189.734 71.2915 190.4 71.8359 190.264C71.8359 190.264 73.0498 190.432 73.2519 191.682C73.2519 191.682 73.6255 193.68 72.27 192.843C72.27 192.843 68.228 192.835 67.9912 192.831C67.9912 192.831 67.479 194.006 66.875 193.977L64.4604 193.979L60.833 198.494L60.3345 199.421C60.3345 199.421 59.7529 200.316 59.3716 200.499C59.3716 200.499 58.0293 200.905 58.0928 199.631L57.9927 197.951C57.9927 197.951 57.3843 197.329 57.4019 197.188C57.4019 197.188 57.3745 195.696 58.46 196.27C58.46 196.27 58.6694 196.964 58.998 197.443L59.0972 197.636L59.5015 197.658L59.6719 197.603L63.0576 193.39C63.0576 193.39 62.831 192.831 62.8945 192.708C62.8945 192.708 62.0713 193.334 61.5303 192.727C61.5303 192.727 61.0439 192.457 61.4678 191.046L62.4824 189.78L63.1855 189.788L63.771 189.144Z"   fill="#B31B21" >
</path>
<path d="M55.1572 192.781C55.1572 192.781 55.7231 193.035 55.6724 193.574L55.8965 193.776L60.0757 193.439C60.0757 193.439 61.4082 193.818 60.3691 194.454L59.333 195.142C59.333 195.142 56.7085 195.169 55.7436 195.288L55.4365 195.373L54.6528 196.348C54.6528 196.348 53.4722 196.804 53.0737 196.752L52.4639 196.191C52.4639 196.191 52.1279 194.922 52.2993 194.654L53.376 193.311L55.1572 192.781Z"   fill="#B31B21" >
</path>
<path d="M65.3799 197.224C65.3799 197.224 66.1772 196.946 66.5361 198.185C66.5361 198.185 67.064 200.53 66.4976 201.229L65.9355 201.934C65.9355 201.934 65.0522 202.132 64.6538 202.022L63.8027 201.349C63.8027 201.349 63.3579 200.935 63.895 200.21L64.7519 199.145L64.8926 198.311L64.9868 197.709L65.3799 197.224Z"   fill="#B31B21" >
</path>
<path d="M154.344 178.879C154.344 178.879 157.035 177.66 160.077 185.867L160.386 186.045C160.386 186.045 160.315 183.547 160.879 183.339C160.879 183.339 162.035 182.176 162.248 185.742C162.248 185.742 161.86 187.42 161.741 187.853C161.741 187.853 160.78 190.289 161.214 192.394C161.214 192.394 162.674 200.01 160.791 203.954C160.791 203.954 159.594 205.021 159.149 204.801C159.149 204.801 158.151 204.597 158.552 203.394L159.523 202.647C159.523 202.647 161.002 200.69 160.081 192.581C160.081 192.581 159.735 192.116 159.387 192.985C159.387 192.985 158.05 196.126 157.09 196.445C157.09 196.445 156.533 196.891 156.196 196.55C156.196 196.55 155.372 195.577 155.886 195.155C155.886 195.155 158.959 191.115 159.194 188.801C159.194 188.801 159.219 188.181 159.067 187.426L155.572 181.001L154.985 180.497L154.344 178.879Z"   fill="#B31B21" >
</path>
<path d="M162.015 193.316C162.015 193.316 161.222 192.631 161.985 192.251C161.985 192.251 167.038 191.408 169.634 195.026C169.634 195.026 170.221 196.979 168.508 196.357C168.508 196.357 165.467 193.961 162.015 193.316Z"   fill="#B31B21" >
</path>
<path d="M106.162 194.571C105.677 193.6 104.928 194.115 104.928 194.115C104.32 194.416 103.58 195.377 103.58 195.377C103.437 195.589 102.73 197.57 102.73 197.57C102.352 198.88 101.665 199.972 101.665 199.972C100.155 201.325 97.9214 202.03 97.9214 202.03C96.0869 202.316 96.2671 203.358 96.2671 203.358C96.3174 204.012 97.4102 203.96 97.4102 203.96C97.9687 203.973 100.472 202.471 100.472 202.471C100.724 202.274 101.211 202.516 101.211 202.516L100.977 203.817C99.2031 206.215 97.4102 208.485 97.4102 208.485C97.0376 209.23 97.2876 209.798 97.2876 209.798C98.3818 210.233 99.4785 208.404 99.4785 208.404C99.9829 207.767 100.177 208.2 100.177 208.2L99.9551 210.95C99.9097 212.278 101.042 212.435 101.042 212.435C101.55 212.28 103.094 201.152 103.094 201.152C104.194 200.536 105.887 199.453 105.887 199.453C108.105 197.093 106.162 194.571 106.162 194.571ZM104.192 198.556C104.192 198.556 103.522 198.273 104.623 196.891C104.623 196.891 105.329 196.933 105.318 197.495C105.318 197.495 104.879 198.47 104.192 198.556Z"   fill="#B31B21" >
</path>
<path d="M91.6811 194.275L91.8208 193.328C91.8208 193.328 93.478 191.476 97.2617 190.395C97.2617 190.395 98.6269 189.742 99.4116 190.245C99.4116 190.245 100.247 190.43 99.3071 192.205C99.3071 192.205 96.895 195.87 95.5366 204.769C95.5366 204.769 96.0679 205.71 95.7192 206.292C95.7192 206.292 95.2583 206.899 94.561 206.538L94.3857 206.225C94.3857 206.225 93.8726 205.89 93.7715 206.564C93.7715 206.564 93.6426 207.949 91.9189 208.983C91.9189 208.983 91.5405 209.284 91.7388 209.683L92.3501 210.112L92.563 209.946C92.563 209.946 93.4087 209.528 93.7012 210.303L93.6269 211.062C93.6269 211.062 94.249 212.138 94.3066 212.512C94.3066 212.512 93.9517 213.908 92.8672 212.908L90.6997 210.392L87.6768 212.654C87.6768 212.654 86.5127 212.94 86.2036 211.992C86.2036 211.992 86.0137 211.272 86.4546 211.066L86.8774 210.981C86.8774 210.981 88.4517 210.443 92.3501 205.344L92.4668 205.042C92.4668 205.042 91.4155 203.565 91.4355 201.953L90.8232 201.277C90.8232 201.277 90.4238 199.712 91.376 200.081L92.5234 200.401C92.5234 200.401 92.979 200.358 92.7559 202.34C92.7559 202.34 92.6201 203.005 93.5068 204.091L93.8755 204.111L94.124 203.958C94.124 203.958 95.3872 195.484 97.5518 192.71C97.5518 192.71 98.2412 190.603 96.4282 192.473C96.4282 192.473 94.4341 194.589 93.9121 194.577L91.6811 194.275Z"   fill="#B31B21" >
</path>
<path d="M91.3403 196.56C91.3403 196.56 90.7402 195.566 91.9604 195.896C91.9604 195.896 93.5674 195.652 93.4477 197.208C93.4477 197.208 92.8721 198.807 92.3457 198.833L91.5723 198.781L91.8389 196.97C91.8389 196.97 91.7236 196.742 91.3403 196.56Z"   fill="#B31B21" >
</path>
<path d="M88.7529 198.656L89.1836 198.246C89.1836 198.246 89.7959 197.662 90.0684 198.56C90.0684 198.56 90.0078 201.743 89.689 204.15C89.689 204.15 89.1123 205.508 88.7837 205.45L87.7402 205.189L88.7529 198.656Z"   fill="#B31B21" >
</path>
<path d="M135.044 193.023C134.85 193.243 133.83 194.914 133.83 194.914L133.731 194.718L133.416 193.212L133.545 192.9L133.272 192.427L132.583 192.513L132.555 192.189L133.552 190.422L133.793 190.794L133.486 191.211L133.636 191.607L134.334 191.348L135.703 189.037C137.254 187.489 136.154 186.927 136.154 186.927C134.979 186.711 134.411 187.701 134.411 187.701C128.809 194.143 129.67 198.296 129.67 198.296C130.505 205.876 128.427 211.533 128.427 211.533L128.314 211.287L128.242 209.106L128.965 206.041C129.599 204.044 128.223 203.827 128.223 203.827L126.644 204.226L126.328 202.942C126.169 202.271 126.787 200.661 126.787 200.661C126.45 199.055 125.947 199.086 125.947 199.086C127.603 195.645 127.446 193.759 127.446 193.759C127.258 192.991 126.693 192.546 126.693 192.546C125.119 192.554 125.77 193.36 125.77 193.36L126.097 193.649C126.229 194.026 125.913 194.777 125.913 194.777L124.331 199.232C124.126 200.112 124.694 201.024 124.694 201.024L125.408 200.988L125.564 201.483L125.088 202.814C124.69 203.669 125.273 205.278 125.273 205.278C125.404 205.816 125.917 205.878 125.917 205.878L127.582 205.525L127.819 205.706L127.834 206.403C127.521 206.985 126.877 211.216 126.877 211.216C126.834 213.704 127.539 213.627 127.539 213.627C127.722 213.904 128.503 213.517 128.503 213.517C130.238 212.652 130.495 203.703 130.495 203.703C130.717 201.327 132.526 198.581 132.526 198.581L132.873 199.845L133.236 199.978L134.293 204.735L134.097 205.179L133.29 206.455C132.76 206.99 133.371 208.246 133.371 208.246L134.907 208.302L135.037 208.816L134.788 210.097C134.788 210.097 135.103 212.211 135.269 212.49C135.445 212.774 136.733 213.284 136.733 213.284C138.56 213.255 139.5 211.287 139.5 211.287C140.848 210.128 139.854 209.587 139.854 209.587C138.696 208.815 137.282 210.927 137.282 210.927C136.917 211.307 136.482 211.212 136.482 211.212C136.044 210.239 136.634 207.039 136.634 207.039C137.007 205.227 136.127 204.321 136.127 204.321L135.041 204.468C134.596 202.011 134.388 199.7 134.388 199.7C134.601 199.532 137.508 194.313 137.877 193.368C138.246 192.424 138.026 191.624 137.386 191.357C136.746 191.091 135.044 193.024 135.044 193.024L135.044 193.023ZM131.926 194.092L131.773 194.708L132.366 197.143C132.366 197.143 132.234 197.387 132.133 197.456C132.036 197.523 131.202 199.086 131.202 199.086L130.472 198.756C130.142 195.217 131.639 193.842 131.639 193.842C131.884 193.771 131.926 194.092 131.926 194.092ZM134.384 197.913L134.126 196.011C134.126 196.011 135.503 193.742 136.215 193.322C136.215 193.322 134.992 196.642 134.384 197.913Z"   fill="#B31B21" >
</path>
<path d="M100.27 166.593L100.24 166.593L98.584 167.486L98.3345 166.503L100.415 165.39L101.517 165.39L101.517 174.922L100.27 174.922L100.27 166.593Z" stroke="rgba(255, 255, 255, 1.00)" stroke-width="0.5"      fill="#FFFFFF" >
</path>
<path d="M105.949 174.024C106.228 174.042 106.548 174.024 106.99 173.967C107.737 173.88 108.44 173.572 108.982 173.044C109.615 172.473 110.07 171.637 110.244 170.508L110.202 170.508C109.671 171.151 108.91 171.534 107.942 171.534C106.228 171.534 105.126 170.244 105.126 168.6C105.126 166.811 106.447 165.228 108.396 165.228C110.346 165.228 111.55 166.797 111.55 169.247C111.55 171.344 110.844 172.808 109.905 173.732C109.175 174.437 108.161 174.893 107.135 175.009C106.666 175.068 106.242 175.097 105.949 175.082L105.949 174.024ZM108.28 166.21C107.195 166.21 106.418 167.179 106.418 168.526C106.418 169.715 107.135 170.549 108.25 170.549C109.115 170.549 109.793 170.127 110.143 169.555C110.202 169.438 110.244 169.291 110.244 169.085C110.26 167.441 109.643 166.21 108.294 166.21L108.28 166.21Z" stroke="rgba(255, 255, 255, 1.00)" stroke-width="0.5"      fill="#FFFFFF" >
</path>
<path d="M119.524 166.474L115.889 166.474L115.521 168.895C115.742 168.863 115.947 168.837 116.299 168.837C117.046 168.837 117.766 168.996 118.351 169.347C119.099 169.759 119.716 170.597 119.716 171.827C119.716 173.689 118.235 175.082 116.168 175.082C115.127 175.082 114.26 174.787 113.791 174.494L114.116 173.514C114.51 173.747 115.287 174.042 116.168 174.042C117.368 174.042 118.426 173.25 118.41 171.956C118.41 170.698 117.575 169.832 115.683 169.832C115.127 169.832 114.699 169.876 114.348 169.936L114.967 165.39L119.524 165.39L119.524 166.474Z" stroke="rgba(255, 255, 255, 1.00)" stroke-width="0.5"      fill="#FFFFFF" >
</path>
<path d="M127.498 166.285C127.232 166.27 126.897 166.301 126.532 166.358C124.492 166.682 123.437 168.161 123.216 169.743L123.247 169.743C123.701 169.127 124.508 168.631 125.563 168.631C127.248 168.631 128.437 169.863 128.437 171.708C128.437 173.468 127.248 175.082 125.254 175.082C123.232 175.082 121.896 173.499 121.896 171.019C121.896 169.143 122.556 167.662 123.51 166.709C124.302 165.933 125.357 165.449 126.561 165.301C126.942 165.243 127.263 165.228 127.498 165.228L127.498 166.285ZM125.285 174.086C126.384 174.086 127.131 173.162 127.131 171.796C127.131 170.435 126.355 169.612 125.167 169.612C124.389 169.612 123.657 170.081 123.305 170.785C123.232 170.932 123.173 171.107 123.173 171.344C123.188 172.911 123.919 174.086 125.269 174.086L125.285 174.086Z" stroke="rgba(255, 255, 255, 1.00)" stroke-width="0.5"      fill="#FFFFFF" >
</path>
<path d="M28.7353 121.663L18.7832 122.152L18.7148 120.735L23.5928 117.314C24.7222 116.533 25.729 115.893 26.7402 115.383L26.7217 115.339C25.3989 115.522 24.1894 115.613 22.6538 115.687L18.477 115.893L18.4165 114.683L28.3662 114.192L28.4326 115.493L23.5376 118.899C22.4634 119.647 21.3608 120.37 20.3071 120.909L20.3227 120.952C21.5762 120.815 22.7695 120.742 24.4224 120.662L28.6743 120.452L28.7353 121.663Z" stroke="rgba(179, 27, 33, 1.00)" stroke-width="0.4"      fill="#B31B21" >
</path>
<path d="M25.3364 110.912L28.4136 112.105L28.3462 113.431L18.5732 109.547L18.6514 107.998L28.769 105.111L28.6997 106.482L25.5161 107.385L25.3364 110.912ZM24.5005 107.6L21.5869 108.443C20.9263 108.618 20.3306 108.734 19.748 108.854L19.7451 108.897C20.314 109.059 20.9233 109.251 21.5225 109.475L24.3477 110.594L24.5005 107.6Z" stroke="rgba(179, 27, 33, 1.00)" stroke-width="0.4"      fill="#B31B21" >
</path>
<path d="M28.8643 104.384L19.0181 102.875L19.2329 101.474L24.6948 99.0952C25.9595 98.5567 27.0703 98.1284 28.1631 97.8325L28.1558 97.7857C26.8227 97.7027 25.6196 97.5489 24.102 97.3155L19.9673 96.6822L20.1494 95.4834L29.9976 96.9932L29.7993 98.2774L24.3252 100.64C23.1235 101.158 21.897 101.643 20.7559 101.961L20.7656 102.007C22.0181 102.124 23.2036 102.291 24.8394 102.542L29.0474 103.187L28.8643 104.384Z" stroke="rgba(179, 27, 33, 1.00)" stroke-width="0.4"      fill="#B31B21" >
</path>
<path d="M21.396 90.7544L21.6953 89.4893L28.1841 91.0298C30.7568 91.6411 31.248 93.0952 30.852 94.7627C30.7388 95.2373 30.5054 95.7759 30.3042 96.0464L29.3242 95.6314C29.4858 95.3955 29.6602 95.041 29.7632 94.6109C30.0298 93.4888 29.6802 92.7227 27.7808 92.272L21.396 90.7544Z" stroke="rgba(179, 27, 33, 1.00)" stroke-width="0.4"      fill="#B31B21" >
</path>
<path d="M22.375 86.6377L31.9531 89.3721L31.5972 90.6231L22.0185 87.8877L22.375 86.6377Z" stroke="rgba(179, 27, 33, 1.00)" stroke-width="0.4"      fill="#B31B21" >
</path>
<path d="M32.2295 88.2398L22.8657 84.8496L23.3472 83.5152L29.1675 82.2432C30.5107 81.961 31.6826 81.7569 32.813 81.6778L32.8149 81.6319C31.5234 81.2891 30.375 80.9058 28.9297 80.3819L24.9985 78.959L25.4097 77.8189L34.7744 81.209L34.332 82.4326L28.5029 83.6846C27.2246 83.961 25.9272 84.1978 24.749 84.2901L24.748 84.3364C25.9536 84.6944 27.085 85.0884 28.6406 85.6524L32.6426 87.1016L32.2295 88.2398Z" stroke="rgba(179, 27, 33, 1.00)" stroke-width="0.4"      fill="#B31B21" >
</path>
<path d="M38.2983 72.7974C38.2471 73.4097 38.0337 74.5894 37.4443 75.7998C36.7837 77.1543 35.894 78.1026 34.6299 78.5728C33.5098 78.98 32.081 78.877 30.686 78.1973C28.0151 76.8965 26.9604 74.0972 28.4243 71.0943C28.9297 70.0591 29.5557 69.3428 29.9292 69.0479L30.731 69.7998C30.272 70.169 29.8213 70.69 29.3804 71.5938C28.3193 73.772 28.9844 75.8545 31.23 76.9492C33.5005 78.0567 35.5039 77.3545 36.5259 75.253C36.8945 74.4971 37.0405 73.9268 37.0381 73.5957L34.3667 72.2949L33.4858 74.1021L32.5566 73.6485L33.9932 70.6992L38.2983 72.7974Z" stroke="rgba(179, 27, 33, 1.00)" stroke-width="0.4"      fill="#B31B21" >
</path>
<path d="M34.3686 61.0362L39.2021 64.4409C41.0146 65.7178 42.3584 65.4527 43.123 64.3657C43.9668 63.169 43.7231 61.8228 41.9341 60.5625L37.1016 57.1587L37.8496 56.0957L42.6099 59.4473C45.1123 61.2095 45.1963 63.2422 43.956 65.0059C42.7812 66.6729 40.9546 67.2656 38.4185 65.4776L33.6206 62.1001L34.3686 61.0362Z" stroke="rgba(179, 27, 33, 1.00)" stroke-width="0.4"      fill="#B31B21" >
</path>
<path d="M46.4194 60.8867L38.915 54.3335L39.8491 53.2647L45.7358 54.187C47.0918 54.4102 48.2607 54.6446 49.3408 54.9805L49.3603 54.9361C48.2798 54.1514 47.3467 53.3765 46.1885 52.3653L43.0391 49.6133L43.8364 48.7007L51.3398 55.2539L50.4839 56.2329L44.5952 55.2906C43.3027 55.0855 42.0088 54.8369 40.8745 54.4961L40.8574 54.5376C41.852 55.3086 42.7637 56.085 44.0107 57.1748L47.2178 59.9746L46.4194 60.8867Z" stroke="rgba(179, 27, 33, 1.00)" stroke-width="0.4"      fill="#B31B21" >
</path>
<path d="M46.2334 46.3408L53.4082 53.2456L52.5063 54.1822L45.3301 47.2774L46.2334 46.3408Z" stroke="rgba(179, 27, 33, 1.00)" stroke-width="0.4"      fill="#B31B21" >
</path>
<path d="M56.0317 50.7959L46.9907 45.5L48.042 44.5708L52.4531 47.2178C53.6519 47.9497 54.7427 48.6236 55.7148 49.2998L55.7363 49.2813C55.1855 48.2324 54.6519 47.0283 54.1343 45.7505L52.1352 40.9507L53.1645 40.0396L57.0937 49.856L56.0317 50.7959Z" stroke="rgba(179, 27, 33, 1.00)" stroke-width="0.4"      fill="#B31B21" >
</path>
<path d="M61.1963 40.419L58.1597 42.7998L60.3745 45.6255L63.7725 42.9639L64.436 43.8125L60.0185 47.2764L53.873 39.4365L58.1172 36.1099L58.7827 36.9585L55.5625 39.4844L57.501 41.9614L60.5391 39.5811L61.1963 40.419Z" stroke="rgba(179, 27, 33, 1.00)" stroke-width="0.4"      fill="#B31B21" >
</path>
<path d="M59.7617 35.0752C60.2275 34.6021 60.9624 33.999 61.6855 33.5117C62.8247 32.7422 63.7212 32.459 64.5488 32.5772C65.1929 32.6607 65.8188 33.0576 66.2563 33.709C66.9834 34.7866 66.772 35.981 66.1128 36.8516L66.1372 36.8892C66.9121 36.6875 67.6885 37.0191 68.4756 37.7364C69.5215 38.7071 70.2544 39.3711 70.6279 39.5811L69.5254 40.3262C69.2349 40.1841 68.5708 39.5982 67.6562 38.7183C66.644 37.7422 65.9009 37.6206 64.9077 38.2364L63.9028 38.9131L66.3154 42.4922L65.25 43.2105L59.7617 35.0752ZM63.3589 38.1065L64.4487 37.3697C65.5879 36.6006 65.8892 35.4878 65.2534 34.5454C64.5342 33.4795 63.4477 33.5342 62.3193 34.2959C61.8057 34.6426 61.4834 34.9307 61.334 35.104L63.3589 38.1065Z" stroke="rgba(179, 27, 33, 1.00)" stroke-width="0.4"      fill="#B31B21" >
</path>
<path d="M70.8818 37.9873C71.5659 38.0073 72.4204 37.8208 73.1787 37.3638C74.3076 36.6861 74.6162 35.7066 74.0879 34.8325C73.6172 34.0489 72.8794 33.8535 71.4683 34.1177C69.7705 34.4468 68.4673 34.2305 67.751 33.0401C66.9512 31.7124 67.458 30.0606 69.1177 29.0615C69.979 28.544 70.7471 28.3574 71.2446 28.3531L71.4795 29.4351C71.1157 29.4292 70.4014 29.5318 69.6294 29.9981C68.4644 30.6988 68.4394 31.6607 68.791 32.2427C69.2685 33.0415 70.0249 33.1206 71.4766 32.8697C73.2622 32.5713 74.3965 32.8198 75.1514 34.0742C75.9424 35.3916 75.6719 37.1236 73.6611 38.3335C72.8364 38.8286 71.7852 39.1162 71.1475 39.086L70.8818 37.9873Z" stroke="rgba(179, 27, 33, 1.00)" stroke-width="0.4"      fill="#B31B21" >
</path>
<path d="M74.5679 26.7124L78.6772 35.7842L77.4927 36.3238L73.3823 27.2495L74.5679 26.7124Z" stroke="rgba(179, 27, 33, 1.00)" stroke-width="0.4"      fill="#B31B21" >
</path>
<path d="M78.9385 26.3721L76.1123 27.4644L75.7187 26.4444L82.5972 23.7842L82.9922 24.8037L80.1509 25.9014L83.3501 34.1724L82.1392 34.6416L78.9385 26.3721Z" stroke="rgba(179, 27, 33, 1.00)" stroke-width="0.4"      fill="#B31B21" >
</path>
<path d="M89.2026 32.1988L88.0288 28.1382L83.4033 23.5069L84.8223 23.0967L86.9321 25.3487C87.4951 25.9688 87.9624 26.4658 88.4536 27.0464L88.4814 27.0396C88.5566 26.3408 88.7173 25.6162 88.8779 24.7876L89.4922 21.7476L90.8838 21.3472L89.2749 27.7627L90.4521 31.8384L89.2026 32.1988Z" stroke="rgba(179, 27, 33, 1.00)" stroke-width="0.4"      fill="#B31B21" >
</path>
<path d="M102.628 29.5441C100.005 29.8731 97.9336 28.0796 97.5561 25.0899C97.1626 21.9536 98.8389 19.6572 101.476 19.3252C104.189 18.9844 106.193 20.8311 106.563 23.7622C106.988 27.1494 105.151 29.2261 102.644 29.5421L102.628 29.5441ZM102.558 28.4956C104.579 28.2403 105.487 26.2354 105.206 23.9922C104.959 22.0279 103.676 20.105 101.55 20.3726C99.4243 20.6416 98.6182 22.752 98.8857 24.8926C99.1499 26.9751 100.533 28.7515 102.543 28.4981L102.558 28.4956Z" stroke="rgba(179, 27, 33, 1.00)" stroke-width="0.4"      fill="#B31B21" >
</path>
<path d="M107.794 18.8697L113.158 18.6934L113.193 19.772L109.132 19.9048L109.239 23.2149L112.993 23.0908L113.026 24.1548L109.274 24.2783L109.422 28.7852L108.121 28.8277L107.794 18.8697Z" stroke="rgba(179, 27, 33, 1.00)" stroke-width="0.4"      fill="#B31B21" >
</path>
<path d="M120.351 18.9556L125.69 19.482L125.583 20.5557L121.538 20.1572L121.214 23.4522L124.95 23.8198L124.847 24.8799L121.111 24.5113L120.668 28.9981L119.375 28.8711L120.351 18.9556Z" stroke="rgba(179, 27, 33, 1.00)" stroke-width="0.4"      fill="#B31B21" >
</path>
<path d="M128.59 19.9453L127.074 29.7915L125.788 29.5923L127.305 19.7461L128.59 19.9453Z" stroke="rgba(179, 27, 33, 1.00)" stroke-width="0.4"      fill="#B31B21" >
</path>
<path d="M128.586 29.9668L130.78 20.2515L132.164 20.5625L134.154 26.1797C134.603 27.4766 134.952 28.6167 135.171 29.7271L135.216 29.7232C135.395 28.3994 135.633 27.211 135.972 25.7119L136.893 21.6314L138.075 21.8989L135.882 31.6153L134.613 31.3291L132.641 25.7002C132.209 24.4658 131.81 23.2105 131.572 22.0498L131.524 22.0537C131.32 23.2969 131.071 24.4678 130.707 26.0816L129.768 30.2344L128.586 29.9668Z" stroke="rgba(179, 27, 33, 1.00)" stroke-width="0.4"      fill="#B31B21" >
</path>
<path d="M139.846 29.5806L137.865 32.2217L136.607 31.7969L142.988 23.4346L144.46 23.9278L144.507 34.4527L143.203 34.0166L143.193 30.708L139.846 29.5806ZM143.261 29.669L143.236 26.6363C143.248 25.9546 143.296 25.3467 143.34 24.7539L143.298 24.7393C142.988 25.2437 142.635 25.7793 142.261 26.2925L140.417 28.7119L143.261 29.669Z" stroke="rgba(179, 27, 33, 1.00)" stroke-width="0.4"      fill="#B31B21" >
</path>
<path d="M145.167 34.7412L149.292 25.6763L150.58 26.2647L151.387 32.1651C151.562 33.5274 151.671 34.7144 151.661 35.8447L151.707 35.8496C152.15 34.5904 152.626 33.4756 153.26 32.0772L154.993 28.27L156.094 28.771L151.973 37.8369L150.789 37.2989L150.003 31.3906C149.829 30.0938 149.697 28.7822 149.699 27.6001L149.651 27.5952C149.199 28.7671 148.716 29.8638 148.033 31.3697L146.27 35.2442L145.167 34.7412Z" stroke="rgba(179, 27, 33, 1.00)" stroke-width="0.4"      fill="#B31B21" >
</path>
<path d="M159.48 41.7857C158.964 41.7598 158.016 41.4815 156.967 40.874C154.54 39.4624 153.617 36.875 155.265 34.0396C156.837 31.3311 159.718 30.5772 162.389 32.1304C163.45 32.7456 164.005 33.376 164.21 33.7007L163.403 34.4439C163.111 34.001 162.6 33.5005 161.885 33.0835C159.866 31.9126 157.776 32.4229 156.461 34.6836C155.229 36.8047 155.663 38.8531 157.748 40.0625C158.437 40.4619 159.209 40.7227 159.781 40.7652L159.479 41.7857L159.48 41.7857Z" stroke="rgba(179, 27, 33, 1.00)" stroke-width="0.4"      fill="#B31B21" >
</path>
<path d="M166.923 41.6963L163.764 39.4854L161.705 42.4258L165.24 44.9014L164.619 45.7847L160.02 42.5625L165.734 34.4053L170.152 37.4981L169.533 38.3828L166.179 36.0347L164.373 38.6133L167.533 40.8257L166.923 41.6963Z" stroke="rgba(179, 27, 33, 1.00)" stroke-width="0.4"      fill="#B31B21" >
</path>
<path d="M173.635 53.6538C173.623 53.2564 173.62 52.8701 173.613 52.3164C172.453 52.3023 171.531 51.9033 170.722 51.1436C169.308 49.8198 169.379 48.1021 170.402 47.0122C171.33 46.0225 172.552 45.9087 173.816 46.2246L173.848 46.1909C173.925 45.3736 174.172 44.6128 174.658 44.0947C175.489 43.2119 176.985 42.9112 178.191 44.0454C179.097 44.895 179.242 46.1455 178.351 47.0928C177.633 47.8584 176.625 48.0493 174.935 47.5381L174.904 47.5689C174.842 48.8677 174.794 50.3032 174.771 51.2554C175.581 51.062 176.466 50.5738 177.465 49.7881L178.328 50.5967C177.061 51.5586 175.9 52.1709 174.764 52.3013C174.768 53.0742 174.761 53.8389 174.757 54.7071L173.635 53.6538ZM171.562 50.5938C172.185 51.1802 172.968 51.3863 173.666 51.3316C173.669 50.4639 173.7 48.8106 173.772 47.1353C173.142 47.0093 172.168 46.9678 171.449 47.7315C170.67 48.5625 170.677 49.7652 171.55 50.5845L171.562 50.5938ZM177.52 44.6309C176.927 44.0752 176.149 44.2783 175.624 44.8379C175.137 45.356 175.011 45.9868 174.95 46.6587C176.088 46.9361 176.915 46.9824 177.492 46.3692C177.906 45.9258 178.124 45.1973 177.531 44.6406L177.52 44.6309Z" stroke="rgba(179, 27, 33, 1.00)" stroke-width="0.4"      fill="#B31B21" >
</path>
<path d="M185.064 59.7246L182.654 56.7158L179.852 58.96L182.549 62.3281L181.708 63.0025L178.197 58.6201L185.97 52.3926L189.343 56.6031L188.501 57.2774L185.94 54.0816L183.486 56.0513L185.897 59.0615L185.064 59.7246Z" stroke="rgba(179, 27, 33, 1.00)" stroke-width="0.4"      fill="#B31B21" >
</path>
<path d="M186.391 69.3487C185.939 69.1001 185.21 68.4336 184.533 67.4287C182.969 65.0967 183.273 62.3657 185.995 60.5381C188.594 58.792 191.516 59.378 193.236 61.9424C193.919 62.961 194.145 63.7705 194.186 64.1519L193.133 64.4678C193.067 63.9419 192.827 63.2681 192.366 62.5806C191.064 60.6416 188.962 60.1861 186.789 61.6426C184.754 63.0098 184.249 65.0386 185.589 67.0386C186.033 67.7031 186.614 68.2739 187.11 68.563L186.391 69.3487Z" stroke="rgba(179, 27, 33, 1.00)" stroke-width="0.4"      fill="#B31B21" >
</path>
<path d="M188.118 73.4781C186.864 71.148 187.791 68.5684 190.448 67.1406C193.232 65.6426 195.978 66.3809 197.238 68.7246C198.533 71.1309 197.53 73.667 194.928 75.0659C191.921 76.6826 189.323 75.7149 188.124 73.4907L188.118 73.4781ZM189.07 73.0322C190.035 74.8301 192.234 74.9551 194.225 73.8838C195.969 72.9458 197.3 71.0547 196.286 69.1675C195.271 67.2822 193.01 67.2901 191.11 68.3106C189.261 69.3052 188.103 71.2359 189.062 73.0191L189.07 73.0322Z" stroke="rgba(179, 27, 33, 1.00)" stroke-width="0.4"      fill="#B31B21" >
</path>
<path d="M190.81 78.336L200.046 74.5962L200.578 75.9112L197.098 80.7486C196.288 81.8589 195.549 82.7969 194.763 83.6094L194.794 83.6441C195.982 83.0366 197.094 82.5523 198.52 81.9766L202.398 80.4058L202.852 81.5288L193.617 85.2705L193.127 84.064L196.627 79.2354C197.395 78.1729 198.2 77.1294 199.018 76.2715L198.987 76.2359C197.849 76.7769 196.746 77.2393 195.211 77.8623L191.263 79.4605L190.81 78.336Z" stroke="rgba(179, 27, 33, 1.00)" stroke-width="0.4"      fill="#B31B21" >
</path>
<path d="M195.017 90.4795C194.298 87.9346 195.763 85.6172 198.664 84.7984C201.709 83.9375 204.227 85.252 204.95 87.8135C205.694 90.4429 204.166 92.7017 201.324 93.5049C198.039 94.4336 195.71 92.9258 195.021 90.4947L195.017 90.4795ZM196.044 90.251C196.599 92.2134 198.716 92.8135 200.893 92.1983C202.798 91.6607 204.507 90.1021 203.925 88.0415C203.342 85.9781 201.134 85.4966 199.058 86.084C197.039 86.6538 195.489 88.2891 196.039 90.2378L196.044 90.251Z" stroke="rgba(179, 27, 33, 1.00)" stroke-width="0.4"      fill="#B31B21" >
</path>
<path d="M202.09 102.944C203.451 102.659 205.101 102.313 206.313 102.127L206.308 102.098C205.117 101.922 203.812 101.721 202.379 101.435L197.336 100.433L197.187 99.4712L201.625 97.1402C202.955 96.4556 204.151 95.8819 205.278 95.4234L205.272 95.3946C204.041 95.5562 202.395 95.7354 200.893 95.878L196.632 96.2676L196.445 95.0576L206.392 94.2207L206.642 95.8413L202.142 98.2549C200.993 98.8531 199.963 99.3404 198.981 99.7627L198.987 99.791C200.019 99.9004 201.153 100.082 202.462 100.329L207.494 101.346L207.744 102.965L197.998 105.102L197.805 103.846L202.09 102.944Z" stroke="rgba(179, 27, 33, 1.00)" stroke-width="0.4"      fill="#B31B21" >
</path>
<path d="M207.983 106.916L198.048 107.628L197.954 106.331L207.889 105.62L207.983 106.916Z" stroke="rgba(179, 27, 33, 1.00)" stroke-width="0.4"      fill="#B31B21" >
</path>
<path d="M198.766 115.907C198.522 115.456 198.268 114.499 198.246 113.287C198.194 110.479 199.929 108.349 203.21 108.289C206.342 108.233 208.479 110.308 208.535 113.395C208.557 114.624 208.305 115.426 208.134 115.769L207.08 115.461C207.307 114.985 207.472 114.288 207.456 113.46C207.415 111.125 205.895 109.6 203.28 109.649C200.827 109.691 199.3 111.123 199.343 113.532C199.358 114.33 199.536 115.127 199.795 115.639L198.766 115.907Z" stroke="rgba(179, 27, 33, 1.00)" stroke-width="0.4"      fill="#B31B21" >
</path>
<path d="M200.06 117.128C199.655 117.68 199.321 118.489 199.264 119.375C199.182 120.687 199.811 121.497 200.831 121.563C201.743 121.621 202.323 121.123 202.912 119.813C203.605 118.228 204.524 117.278 205.911 117.368C207.46 117.466 208.53 118.823 208.407 120.755C208.343 121.758 208.058 122.495 207.781 122.907L206.755 122.489C206.968 122.191 207.289 121.542 207.344 120.644C207.433 119.285 206.656 118.718 205.977 118.675C205.045 118.615 204.549 119.192 203.932 120.53C203.161 122.169 202.311 122.96 200.848 122.865C199.317 122.769 198.045 121.563 198.193 119.218C198.256 118.259 198.616 117.231 199.004 116.72L200.06 117.128Z" stroke="rgba(179, 27, 33, 1.00)" stroke-width="0.4"      fill="#B31B21" >
</path>
<path d="M30.1792 126.673L106.867 126.673L111.356 132.238L116.021 126.461L196.682 126.461L187.7 138.661L116.193 138.661L111.702 143.369L106.175 139.084L39.8501 139.084L30.1792 126.673Z"   fill="#F08300" >
</path>
<path d="M105.722 140.554L39.1841 140.554L29.0688 127.576L30.23 126.673L29.0688 127.576L27.2241 125.204L107.618 125.204L111.408 129.898L115.369 124.99L199.636 124.99L188.488 140.128L116.87 140.128L111.898 145.339L105.722 140.554ZM40.6177 137.617L106.728 137.617L111.603 141.394L115.614 137.189L187.009 137.189L193.828 127.929L116.771 127.929L111.408 134.576L106.216 128.141L33.2319 128.141L40.6177 137.617Z"   fill="#FFFFFF" >
</path>
<path d="M38.2417 115.382L107.502 115.382L111.559 120.296L115.773 115.195L188.619 115.195L180.502 125.963L115.924 125.963L111.871 130.12L106.879 126.344L46.979 126.344L38.2417 115.382Z"   fill="#F08300" >
</path>
<path d="M106.435 127.813L46.3218 127.813L37.145 116.298L38.2935 115.382L37.145 116.298L35.2427 113.913L108.245 113.913L111.611 117.986L115.129 113.723L191.619 113.723L181.287 127.43L116.598 127.43L112.069 132.075L106.435 127.813ZM47.7378 124.869L107.423 124.869L111.773 128.166L115.359 124.493L179.82 124.489L185.716 116.664L116.514 116.664L111.611 122.604L106.862 116.851L41.3462 116.851L47.7378 124.869Z"   fill="#FFFFFF" >
</path>
<path d="M53.2085 105.994L108.683 105.994L111.931 110.163L115.307 105.833L173.652 105.833L167.154 114.967L115.428 114.967L112.18 118.495L108.184 115.288L60.2046 115.288L53.2085 105.994Z"   fill="#F08300" >
</path>
<path d="M107.718 116.757L59.52 116.757L52.0825 106.878L53.2534 105.996L52.0825 106.878L50.313 104.526L109.448 104.526L111.981 107.774L114.639 104.365L176.547 104.365L167.961 116.435L116.123 116.435L112.382 120.496L107.718 116.757ZM60.9849 113.819L108.749 113.819L112.079 116.489L114.83 113.5L166.446 113.5L170.857 107.3L116.071 107.3L111.981 112.551L108.014 107.461L56.1997 107.461L60.9849 113.819Z"   fill="#FFFFFF" >
</path>
<path d="M150.638 109.176C150.638 88.626 133.978 71.9668 113.428 71.9668C92.8784 71.9668 76.2202 88.626 76.2202 109.176C76.2202 129.727 92.8804 146.385 113.428 146.385C133.976 146.385 150.638 129.726 150.638 109.176Z"   fill="url(#linear_fill_PoPx56MtP6boY6ZDAyhCR)" >
</path>
<path d="M74.3413 109.176C74.3413 87.586 91.8423 70.086 113.43 70.083C135.017 70.086 152.517 87.586 152.52 109.176C152.517 130.762 135.017 148.263 113.43 148.265C91.8423 148.263 74.3413 130.762 74.3413 109.176ZM88.4517 84.1958C82.0532 90.5957 78.104 99.4136 78.102 109.176C78.104 118.935 82.0532 127.755 88.4517 134.152C94.8481 140.548 103.668 144.501 113.43 144.501C123.19 144.501 132.011 140.548 138.408 134.152C144.804 127.755 148.753 118.935 148.753 109.176C148.753 99.4136 144.804 90.5957 138.408 84.1958C132.011 77.8008 123.19 73.8491 113.43 73.8462C103.669 73.8491 94.8481 77.8008 88.4517 84.1958Z"   fill="#FFFFFF" >
</path>
<rect x="102.62060546875" y="137.40330505371094" width="21.6182" height="5.7901"   fill="#FFFFFF" >
</rect>
<path d="M21.0327 139.032L103.91 139.032C109.865 139.032 113.515 144.205 113.515 144.205C113.515 144.205 117.27 138.935 123.551 138.935C127.708 138.935 205.829 138.961 205.829 138.961L195.926 152.897L121.387 152.897C116.821 152.897 113.494 157.257 113.494 157.257C113.494 157.257 110.067 152.897 105.785 152.897C103.176 152.897 31.4731 152.447 31.4731 152.447L21.0327 139.032Z" fill-rule="evenodd"  fill="#F08300" >
</path>
<path d="M112.471 158.314C112.469 158.314 112.314 158.11 111.967 157.742C111.619 157.379 111.107 156.884 110.485 156.393C109.235 155.404 107.551 154.502 105.877 154.513C103.248 154.513 31.5561 154.063 31.5542 154.063L30.8804 154.059L20.0034 140.08L21.1226 139.03L20.0034 140.08L17.9321 137.415L104 137.415C108.686 137.455 111.986 140.157 113.61 141.852C115.282 140.128 118.713 137.356 123.639 137.316C127.798 137.316 205.919 137.344 205.919 137.346L208.929 137.346L196.729 154.513L121.475 154.513C118.253 154.453 115.39 157.433 114.815 158.164C114.732 158.263 114.707 158.297 114.707 158.297L113.597 159.747L112.471 158.314ZM67.7495 151.057C85.9966 151.168 104.584 151.282 105.877 151.282C109.399 151.35 112.135 153.545 113.576 154.981C115.019 153.535 117.788 151.338 121.475 151.282L195.299 151.282L202.906 140.577C196.671 140.575 181.657 140.571 166.336 140.567C146.286 140.556 125.721 140.548 123.639 140.548C118.839 140.517 115.561 144.176 114.882 145.044C114.788 145.162 114.759 145.198 114.759 145.198L113.597 146.831L112.444 145.196C112.444 145.196 112.419 145.158 112.327 145.042C112.236 144.921 112.09 144.746 111.895 144.534C111.51 144.101 110.927 143.516 110.185 142.936C108.689 141.767 106.58 140.645 104 140.645L24.311 140.645L32.2407 150.835C35.6538 150.856 51.5601 150.954 67.7495 151.057Z"   fill="#FFFFFF" >
</path>
</g>
<defs>
<clipPath id="clip-path-r256g0zNa3aY_g9P6quhi">
<path d="M-1.36719e-05 226.771L226.772 226.771L226.772 -7.8125e-06L-1.36719e-05 -7.8125e-06L-1.36719e-05 226.771Z" fill="white"/>
</clipPath>
<radialGradient id="linear_fill_PoPx56MtP6boY6ZDAyhCR" cx="0" cy="0" r="1" gradientTransform="translate(121.69869995117188 91.66889953613281) rotate(90) scale(42.66619873046875, 42.66619873046875)" gradientUnits="userSpaceOnUse">
<stop offset="0" stop-color="#FFF100"  />
<stop offset="1" stop-color="#EE7800"  />
</radialGradient>
</defs>
</svg>
