<svg xmlns="http://www.w3.org/2000/svg" xmlns:xlink="http://www.w3.org/1999/xlink" width="2373" height="2373" viewBox="0 0 2373 2373" fill="none">
<g  clip-path="url(#clip-path-v3nbRWDalku786QVx8pKj)">
<path d="M1947.66 1175.43C1947.71 748.861 1601.96 403.02 1175.38 402.97C748.81 402.92 402.978 748.68 402.925 1175.25C402.878 1601.82 748.63 1947.65 1175.19 1947.7C1175.22 1947.7 1175.27 1947.7 1175.3 1947.7C1601.82 1947.7 1947.6 1601.96 1947.66 1175.43ZM1101.58 598.559C950.308 631.142 837.648 758.02 823.174 912.06C901.799 843.955 998.53 800.175 1101.58 786.049L1101.58 859.226C995.673 876.281 898.916 929.344 827.585 1009.45C853.831 1149.99 961.814 1261.07 1101.58 1291.27L1101.58 1364.99C949.182 1337.88 823.31 1230.55 772.499 1084.34C642.5 1306.62 717.317 1592.2 939.59 1722.19C989.436 1751.34 1044.26 1770.98 1101.32 1780.11L1101.32 1853.2C806.676 1812.55 600.781 1540.76 641.428 1246.12C654.453 1151.73 692.294 1062.48 751.077 987.488C749.728 973.448 749.007 959.225 749.007 944.735C749.295 737.938 897.71 561.058 1101.32 524.842L1101.58 598.559ZM1249.65 1853.1L1249.65 1780.11C1503.97 1739.24 1677.01 1499.92 1636.16 1245.59C1627.01 1188.77 1607.46 1134.13 1578.45 1084.43C1527.47 1230.36 1401.81 1337.47 1249.65 1364.63L1249.65 1290.91C1389.36 1260.73 1497.34 1149.69 1523.62 1009.18C1452.34 929.011 1355.55 875.917 1249.65 858.867L1249.65 785.599C1352.7 799.74 1449.4 843.517 1528.02 911.612C1513.51 757.593 1400.87 630.744 1249.65 598.11L1249.65 524.302C1453.23 560.518 1601.64 737.398 1601.93 944.193C1601.93 958.471 1601.22 972.746 1599.78 986.948C1783.26 1221.02 1742.27 1559.51 1508.21 1743.01C1433.23 1801.78 1344 1839.62 1249.65 1852.66L1249.65 1853.1Z"   fill="#02478F" >
</path>
<path d="M1526.14 263.906C1519.11 265.617 1508.13 268.497 1517.15 279.478C1527.06 292.045 1530.72 308.435 1527.13 324.033C1525.8 332.134 1527.58 337.803 1537.22 339.603C1546.84 341.404 1551.35 336.723 1553.5 327.723C1560.44 299.281 1575.56 274.528 1589.51 249.235C1596.35 237.083 1610.03 238.163 1619.75 241.314C1631.73 245.094 1627.04 254.365 1620.56 262.108C1616.68 265.819 1616.55 271.97 1620.25 275.851C1621.38 277.03 1622.79 277.906 1624.34 278.398C1630.99 281.908 1638.12 284.699 1645.04 287.398C1635.5 297.48 1636.05 297.21 1627.04 290.37C1620.35 285.024 1613.04 280.519 1605.26 276.957C1588.88 270.298 1580.7 276.957 1581.78 294.959C1582.41 301.477 1581.25 308.042 1578.45 313.951C1573.39 323.853 1583.93 340.324 1594.46 338.075C1607.51 335.373 1612.47 338.075 1615.79 351.667C1619.12 365.258 1629.4 376.959 1644.6 372.457C1661.42 367.417 1651.17 353.375 1648.29 344.106C1644.78 332.404 1645.49 325.472 1657.28 318.543C1672.14 309.541 1678.9 296.22 1670.15 278.129C1667.37 272.457 1657.65 266.967 1664.57 259.586C1670.54 252.049 1680.71 249.245 1689.7 252.654C1699.5 256.525 1705.53 250.675 1702.64 242.664C1696.17 224.662 1694.36 204.68 1680.79 189.739C1679.16 190.606 1677.64 191.664 1676.28 192.889C1667.29 203.33 1660.9 215.121 1645.67 219.262C1624.26 225.022 1630.84 199.009 1617.42 196.309C1613.8 195.589 1612.83 192.979 1615.61 189.198C1620.75 182.178 1623.52 175.247 1612.2 170.567C1605.89 166.703 1597.63 168.693 1593.75 175.012C1592.99 176.253 1592.44 177.609 1592.13 179.027C1581.41 203.42 1560.97 206.03 1538.11 201.8C1535.05 201.17 1531.9 197.929 1529.13 201.26C1521.29 211.521 1511.12 220.792 1516.15 236.273C1521.18 251.755 1531.27 250.495 1543.15 247.254C1546 246.927 1548.86 246.927 1551.72 247.254C1546.4 256.622 1536.86 262.829 1526.14 263.906Z"   fill="#02478F" >
</path>
<path d="M537.668 412.69C542.797 412.69 548.738 401.801 553.6 413.681C557.29 422.683 560.529 430.603 552.158 438.793C543.473 449.428 533.391 458.844 522.185 466.788C510.124 473.717 511.566 483.618 523.985 490.369C530.799 493.939 538.441 495.645 546.128 495.32C562.691 498.74 568.09 483.437 576.73 473.536C599.324 447.795 617.685 418.002 653.148 406.12C660.72 404.023 665.157 396.187 663.06 388.619C662.166 385.421 660.196 382.633 657.47 380.738C641.269 365.166 613.995 366.067 603.464 385.6C592.934 405.129 581.773 392.17 574.841 387.94C563.409 381.008 578.801 376.686 580.601 370.478C582.132 366.84 584.401 363.562 587.263 360.847C599.504 346.805 594.014 336.363 580.693 327.453C567.372 318.542 548.198 320.162 540.457 332.042C531.934 347.344 520.709 360.975 507.336 372.278C493.202 382.539 497.524 391.09 505.894 401.08C513.995 409.849 525.822 414.174 537.668 412.69Z"   fill="#02478F" >
</path>
<path d="M1940.56 621.873C1932.54 621.747 1925.96 628.134 1925.83 636.135C1925.8 638.428 1926.3 640.698 1927.32 642.755C1930.2 651.754 1931.28 664.355 1947.92 658.505C1957.04 653.806 1967.34 651.925 1977.53 653.104C1969.88 662.646 1962.78 671.106 1956.02 680.108C1948.84 688.586 1949.18 701.116 1956.83 709.18C1964.48 717.551 1975.57 716.56 1985.92 711.34C2009.48 699.279 2012.91 673.897 1993.39 647.705C2006.78 640.684 2017.95 638.703 2027.77 651.576C2033.8 659.496 2042.79 667.956 2052.43 664.085C2061.97 658.739 2066.98 647.81 2064.75 637.083C2061.48 624.666 2068.24 611.809 2080.32 607.472C2084.36 605.241 2087.84 602.173 2090.59 598.469C2098.3 590.151 2097.8 577.168 2089.47 569.468C2089.1 569.13 2088.73 568.808 2088.34 568.496C2081.87 559.633 2069.44 557.664 2060.53 564.085C2045.67 572.456 2029.03 591.089 2012.47 570.026C1998.87 552.025 1993.47 561.027 1986.26 573.268C1980.55 579.76 1977.35 588.102 1977.27 596.761C1980.23 616.83 1964.93 618.361 1951.98 622.143C1948.16 622.266 1944.36 622.174 1940.56 621.873Z"   fill="#02478F" >
</path>
<path d="M1745.76 449.774C1752.6 454.276 1753.59 445.814 1756.4 442.124C1768.98 425.112 1786.01 412.42 1800.66 397.12C1814.63 389.829 1827.68 373.806 1845.68 393.7C1828.26 401.229 1811.61 410.455 1796 421.242C1788.6 425.833 1781.32 433.842 1789.78 439.243C1803.2 448.246 1797.33 455.264 1790.94 463.726C1788.42 466.966 1785.83 471.017 1788.6 474.348C1791.41 477.677 1797.62 474.977 1800.58 472.907C1805.22 468.342 1809.54 463.472 1813.55 458.325C1815.78 455.985 1816.7 450.494 1822.54 453.015C1835.04 458.687 1841.44 453.914 1837.66 441.314C1833.89 428.713 1842.8 423.312 1849.46 417.101C1853.15 413.5 1860.81 411.702 1861.7 408.101C1866.55 387.219 1878.97 395.86 1890.42 399.639C1890.42 404.5 1884.55 404.049 1882.66 407.291C1869.61 409.181 1861.07 415.751 1861.33 429.882C1861.33 441.584 1869.72 442.933 1878.89 442.304C1880.96 444.105 1887.88 443.025 1885.28 446.893C1869.43 469.306 1856.85 494.51 1835.78 512.962C1824.61 522.683 1801.66 513.95 1801.84 512.962C1804.72 489.648 1788.08 506.39 1782.03 503.42C1773.59 499.099 1771.6 509 1769.79 514.582C1768.08 519.831 1770.97 525.463 1776.23 527.161C1777.07 527.429 1777.94 527.589 1778.8 527.633C1786.17 529.777 1792.98 533.425 1798.88 538.344C1824.06 554.546 1842.36 549.954 1859.63 524.931C1865.58 516.262 1872.18 508.077 1879.44 500.451C1892.73 487.588 1900.12 469.804 1899.85 451.304C1909.18 451.322 1918.41 453.38 1926.87 457.334C1931.36 458.957 1934.68 466.337 1940.45 461.386C1945.67 456.994 1947.76 449.907 1945.77 443.384C1943.96 436.992 1939.74 428.622 1933.24 429.882C1921.55 432.403 1913.64 423.042 1903.18 423.493C1898.41 418.18 1885.18 420.613 1888.35 408.009C1902.29 405.129 1914.71 403.779 1924.33 419.082C1929.84 425.424 1939.43 426.187 1945.85 420.791C1950.99 415.308 1951.88 407.079 1948.02 400.629C1942.63 390.007 1917.68 384.698 1910.94 394.059C1900.04 409.181 1900.3 393.249 1896.08 390.007C1896.89 385.688 1893.46 377.858 1897.6 377.499C1918.41 375.428 1907.69 356.347 1914.98 347.164C1916.94 343.474 1915.53 338.898 1911.83 336.948C1911.81 336.932 1911.78 336.919 1911.75 336.903C1907.32 333.934 1904.55 336.903 1901.74 340.054C1891.68 350.405 1881.59 360.755 1871.32 371.018C1867.83 374.438 1865.13 380.017 1858.37 376.778C1833.16 364.356 1816.25 378.848 1799.69 394.78C1796.81 394.78 1792.93 396.04 1794.82 390.188C1798.62 381.687 1805.95 375.274 1814.89 372.637C1821.99 369.217 1831.9 368.496 1835.23 361.475C1842.07 346.894 1849.27 339.873 1866.55 347.164C1875.01 350.764 1880.78 341.673 1882.66 333.572C1884.03 328.082 1884.21 317.822 1878.08 318.721C1859.36 321.331 1840 316.65 1821.91 323.223C1818.22 324.573 1813.71 329.793 1815.62 334.474C1822.28 351.396 1809.75 355.175 1798.96 360.485C1786.01 366.877 1773.12 373.447 1760.17 379.747C1753.67 381.852 1749.45 388.147 1750 394.958C1750.81 403.96 1757.55 405.221 1767.56 403.96C1758.54 414.941 1751.15 423.223 1744.6 432.044C1739.99 436.712 1740.04 444.236 1744.71 448.846C1745.05 449.176 1745.39 449.485 1745.76 449.774Z"   fill="#02478F" >
</path>
<path d="M957.83 258.954C955.235 263.2 956.598 268.738 960.818 271.327C961.42 271.684 962.049 271.972 962.678 272.187C968.628 274.527 972.847 270.387 974.917 265.166C978.691 255.427 984.221 246.46 991.218 238.704C995.752 247.917 998.792 257.791 1000.23 267.957C1001.02 272.819 1004.37 276.957 1009.22 275.788C1014.07 274.616 1014.88 269.938 1013.81 264.445C1011.48 252.295 1010.59 239.784 1008.33 227.542C1005.08 209.54 1010.11 195.949 1031.73 184.968C1012.81 208.46 1024.34 227.902 1030.82 247.164C1033.33 254.905 1034.88 272.727 1050.26 255.445C1054.51 250.585 1058.18 256.795 1061.79 259.046C1072.67 265.706 1082.13 261.206 1082.31 248.514C1082.5 235.823 1081.06 222.502 1080.24 209.001C1096 230.423 1095.18 250.585 1077.1 277.588C1086.69 280.45 1097.07 278.209 1104.64 271.647C1110.23 265.169 1119.98 264.437 1126.47 270.014C1126.55 270.077 1126.61 270.143 1126.68 270.208C1133.24 273.217 1140.08 275.568 1147.13 277.227C1156.11 280.558 1160.81 275.159 1163.69 268.227C1166.55 261.295 1146.21 231.683 1138.4 231.143C1135.78 231.143 1135.41 232.313 1135.41 234.383C1135.41 247.884 1129.93 239.063 1127.42 235.913C1120.37 228.804 1117.04 218.821 1118.4 208.91C1120.73 198.062 1122.26 187.047 1122.91 175.967C1123.36 164.986 1117.69 157.965 1105.9 159.766C1094.11 161.566 1090.23 167.506 1096.89 178.937C1099.51 182.509 1098.72 187.521 1095.16 190.133C1094.68 190.475 1094.19 190.766 1093.66 190.999C1091.85 184.788 1090.68 179.207 1088.71 173.987C1083.47 159.945 1077.99 146.174 1097.7 137.983C1101.37 136.581 1103.2 132.47 1101.81 128.802C1101.71 128.557 1101.6 128.316 1101.47 128.082C1099.32 122.232 1094.92 122.862 1090.15 123.492C1085.38 124.122 1078.8 132.493 1076.63 121.602C1074.48 110.711 1084.46 116.651 1088.71 114.761C1095.71 112.311 1100.58 105.949 1101.13 98.5595C1101.13 91.7188 1093.3 93.339 1088.6 92.6188C1081.95 91.5388 1076.1 92.6188 1076.47 81.7278C1076.44 71.9385 1069.81 63.3933 1060.35 60.9358C1051.81 58.1455 1050.26 67.0563 1047.04 72.3667C1045.05 75.5171 1041.8 75.6972 1038.02 76.0573C1030.74 76.7772 1021.72 78.2175 1021.64 86.7682C1021.64 97.4792 1031.92 98.1994 1039.65 101.08C1044.68 102.88 1052.44 97.0293 1053.78 103.15C1056.84 116.381 1065.31 129.703 1057.65 144.284C1053.15 142.844 1055.58 139.064 1054.14 137.713C1047.75 131.953 1038.92 128.712 1048.11 116.651C1052.15 111.251 1041.46 103.6 1033.99 109.001C1023.64 116.651 1016.8 112.691 1007.7 106.93C990.799 98.4704 970.252 105.304 961.787 122.193C961.499 122.768 961.237 123.351 960.975 123.942C957.83 130.315 960.451 138.034 966.819 141.184C967.422 141.488 968.051 141.741 968.732 141.944C975.284 145.454 983.671 147.704 985.374 159.226C977.171 154.905 970.252 169.037 962.521 158.415C959.9 154.815 959.009 148.785 952.798 152.385C948.186 155.221 945.565 160.409 946.037 165.796C945.277 182.216 947.819 198.621 953.506 214.041C959.796 228.082 966.924 242.574 957.83 258.954ZM1065.31 159.406C1066.12 159.406 1068.82 162.106 1068.63 163.186C1066.12 173.897 1055.14 173.177 1049.11 179.207C1047.75 177.407 1047.04 176.867 1047.12 176.507C1049.03 167.56 1056.26 160.72 1065.31 159.315L1065.31 159.406ZM1057.73 188.479C1062.79 204.23 1052.15 206.03 1040.65 214.401C1044.03 204.419 1049.92 195.467 1057.73 188.388L1057.73 188.479ZM1007.96 132.943C1011.29 129.883 1014.44 126.282 1019.76 129.612C1026.86 134.023 1020.57 136.993 1018.58 140.234C1014.88 146.534 1009.59 152.925 1020.02 158.235C1027.12 161.836 1020.65 164.356 1019.13 166.516C1015.25 172.277 1006.89 171.287 1002.75 177.947C1002.75 161.926 993.918 146.084 1007.96 132.943Z"   fill="#02478F" >
</path>
<path d="M306.524 883.887C281.682 875.967 256.751 868.498 233.799 861.566C224.797 864.087 213.816 859.137 211.837 870.566C210.215 879.568 217.327 884.608 223.898 889.288C242.89 902.701 265.481 907.29 286.903 914.762C299.055 918.722 306.794 907.379 312.646 898.65C315.482 893.98 313.996 887.886 309.323 885.045C308.461 884.519 307.515 884.128 306.524 883.887Z"   fill="#02478F" >
</path>
<path d="M146.041 798.199C159.181 799.187 164.042 805.579 158.371 817.821C153.871 827.811 158.371 831.231 167.371 830.691C173.933 830.397 180.414 829.187 186.633 827.09C208.236 819.44 208.776 819.529 207.334 842.663C207.334 848.696 205.715 855.984 211.205 858.864C216.696 861.744 222.996 856.254 226.146 852.116C238.118 836.001 249.549 842.663 260.619 852.116C264.401 855.444 265.84 861.744 272.772 858.683C278.558 855.869 281.449 849.28 279.612 843.114C291.942 849.411 281.412 871.557 299.954 870.115C313.907 869.213 308.956 855.533 310.935 846.264C317.416 848.515 323.087 850.132 328.486 852.386C335.599 855.263 341.178 855.352 344.058 846.712C346.939 838.074 344.058 834.292 336.228 832.403C331.188 830.885 326.237 829.116 321.376 827.09C317.686 825.741 312.376 824.839 313.726 819.98C315.076 815.121 319.127 814.581 323.357 814.4C332.357 814.4 341.359 813.858 350.99 813.769C359.827 814.898 368.245 809.678 371.152 801.26C374.121 792.258 369.44 787.037 363.68 780.737C338.479 753.736 303.914 740.414 273.671 721.422C260.26 713.14 242.348 721.422 233.437 736.184C223.599 754.608 215.139 773.745 208.144 793.427C203.105 784.875 206.794 779.204 206.436 773.805C205.175 751.123 195.093 745.184 174.842 754.902C164.76 759.677 154.411 763.907 144.149 768.134C137.489 770.925 127.318 774.885 128.398 780.826C129.64 789.954 136.894 797.093 146.041 798.199ZM256.03 746.083C283.708 759.058 309.955 774.896 334.338 793.34C324.256 807.917 304.454 791.718 295.994 807.647C288.163 800.81 298.604 772.547 273.582 790.366C272.861 790.366 271.511 790.366 270.342 790.366C271.152 773.983 242.617 767.953 256.03 746.083ZM245.139 791.807C254.141 797.206 252.159 804.858 255.129 810.349C256.84 813.499 260.711 819.348 252.969 819.98C248.828 819.98 243.97 818.9 243.97 812.422C243.97 805.938 244.78 799.638 245.139 791.807Z"   fill="#02478F" >
</path>
<path d="M2258.01 831.142C2257.17 827.803 2253.94 825.63 2250.54 826.102C2242.07 826.086 2233.79 823.479 2226.87 818.63C2224.98 818.63 2222.28 818.63 2221.47 819.891C2219.04 823.311 2220.03 830.424 2212.46 827.363C2208.76 825.921 2204.62 824.302 2204.62 820.072C2204.62 813.682 2209.39 811.612 2215.26 811.971C2216.55 811.822 2217.8 811.518 2219.04 811.072C2224.25 808.1 2235.78 809.18 2232.98 801.079C2229.28 790.549 2222.63 801.079 2217.33 802.699C2202.55 806.211 2188.06 810.44 2173.41 814.13C2168.32 815.745 2162.9 812.949 2161.3 807.88C2161.22 807.597 2161.12 807.311 2161.06 807.02C2159.18 798.92 2166.57 800.45 2171.23 799.279C2183.92 796.04 2196.52 792.62 2209.13 789.019C2213.72 787.758 2221.92 789.019 2220.84 781.909C2219.74 774.798 2212.72 776.958 2207.5 777.857C2206.25 778.198 2204.94 778.41 2203.65 778.489C2176.63 777.949 2150.45 797.659 2122.02 781.099C2116.07 777.587 2104.01 783.169 2095.55 785.599C2089.91 786.254 2085.88 791.346 2086.53 796.975C2086.53 796.994 2086.53 797.012 2086.53 797.03C2087.34 803.781 2090.96 806.03 2097.43 808.462C2129.93 820.882 2147.75 848.874 2167.2 874.976C2164.58 875.786 2163.24 874.976 2162.32 874.976C2147.12 861.655 2129.56 850.944 2118.95 832.672C2115.8 827.274 2108.68 820.431 2100.94 825.743C2091.93 831.954 2097.33 839.694 2101.65 846.355C2105.06 851.028 2108.73 855.507 2112.63 859.766C2092.22 859.766 2090.41 836.273 2075.03 835.104C2059.62 833.933 2047.19 850.855 2030 846.533C2029.35 846.447 2028.69 846.447 2028.04 846.533C2011.66 846.533 2005.34 854.545 2010.03 870.207C2019.94 906.21 2033.98 916.112 2070.07 909.63C2077.02 908.262 2084.25 909.442 2090.41 912.961C2103.02 919.532 2109.85 912.961 2112.19 900.45C2112.48 895.526 2112.08 890.594 2111.03 885.779C2123.35 891.99 2134.59 903.781 2144.76 884.338C2146.94 880.197 2151.89 884.338 2154.59 886.859C2161.09 892.069 2165.97 899.082 2168.53 907.02C2171.23 919.712 2180.96 919.802 2190.05 917.191C2201.11 914.13 2200.14 904.499 2197.89 896.04C2194.64 883.979 2190.42 872.277 2186.46 860.035C2197.96 860.756 2213.45 878.037 2214.16 851.754C2214.21 849.469 2216.1 847.645 2218.38 847.681C2218.88 847.689 2219.38 847.789 2219.85 847.975C2234.6 857.695 2241.81 841.944 2252.53 838.344C2255.31 837.264 2258.82 835.013 2258.01 831.142ZM2046.22 880.828C2045.12 880.197 2044.6 876.599 2045.23 876.148C2051.18 871.648 2057.1 874.347 2065.01 876.148C2057.83 885.059 2052.15 885.059 2046.22 880.828Z"   fill="#02478F" >
</path>
<path d="M711.476 254.004C722.006 245.634 731.996 236.003 747.479 234.383C746.389 236.591 745.155 238.726 743.787 240.774C731.005 257.335 730.916 257.335 748.829 265.885C750.9 266.784 750.538 268.136 750.808 270.026C751.159 281.9 761.071 291.243 772.95 290.892C774.588 290.845 776.219 290.606 777.812 290.187C769.441 302.07 757.289 310.621 751.618 324.031C758.369 328.531 763.859 324.031 769.62 324.031C775.823 317.495 783.465 312.503 791.943 309.452C791.943 330.961 788.253 333.752 771.512 326.28C768.262 331.21 766.307 336.876 765.84 342.754C765.84 347.702 762.059 353.643 769.171 356.073C776.281 358.507 784.833 357.603 786.361 350.944C791.854 326.731 800.133 342.573 807.335 348.962C814.534 355.354 816.334 365.167 827.496 357.965C838.658 350.763 828.127 344.284 826.416 338.073C823.444 327.001 817.414 316.83 838.118 320.789C846.614 321.211 855.092 319.636 862.881 316.201C868.254 314.625 871.477 309.153 870.245 303.689C870.062 298.956 866.707 294.952 862.069 293.969C844.806 290.35 827.056 297.447 817.055 311.971C808.595 302.429 809.494 295.497 821.646 289.917C830.916 285.147 839.934 279.89 848.648 274.166C852.844 271.737 854.571 266.572 852.7 262.106C851.347 257.875 848.108 258.325 844.777 259.675C833.888 264.084 822.815 269.305 818.944 251.215C818.944 249.684 812.736 252.384 810.935 248.335C813.724 242.484 821.646 239.784 821.735 232.493C821.735 221.602 810.485 229.073 805.715 224.482C832.716 204.5 832.716 204.5 816.426 192.259C826.057 188.118 835.867 184.428 845.047 179.658C849.638 177.317 854.589 172.457 852.249 167.056C849.188 160.036 843.247 165.166 838.658 166.516C821.285 171.467 807.424 183.258 791.492 190.819C787.532 192.709 783.032 199.82 778.53 193.519C774.84 188.388 776.91 182.538 782.582 178.127C791.584 170.747 800.583 162.826 809.583 154.995C818.585 147.165 815.254 142.304 805.804 140.144C797.515 137.393 788.478 141.254 784.741 149.145C780.33 158.145 777.361 165.796 769.08 150.675C764.365 143.073 754.372 140.736 746.767 145.456C746.588 145.571 746.397 145.691 746.219 145.814C736.677 152.025 747.569 156.885 749.369 161.926C755.219 178.668 750.719 190.369 730.916 200.9C734.806 191.319 733.338 180.395 727.046 172.187C724.679 167.315 718.801 165.287 713.931 167.658C713.743 167.751 713.554 167.85 713.365 167.956C708.504 170.657 709.225 174.977 710.393 179.928C712.105 187.218 718.497 193.339 716.605 201.71C710.304 202.34 706.344 189.919 699.593 199.01C694.192 206.21 693.474 216.111 700.854 220.252C717.414 229.793 703.734 235.463 699.682 242.664C697.164 247.254 687.082 249.775 693.382 256.436C698.603 261.206 705.624 258.954 711.476 254.004ZM818.944 269.394C818.944 279.387 812.736 283.166 803.553 286.408C803.734 275.065 812.644 273.357 818.944 269.394ZM800.943 202.34L779.162 217.731C781.366 207.709 790.853 201.029 801.034 202.34L800.943 202.34ZM775.202 237.443L757.2 262.646C757.2 249.955 766.199 242.844 775.202 237.443Z"   fill="#02478F" >
</path>
<path d="M1332.44 249.955C1335.95 258.954 1341.45 263.817 1341.45 271.737C1341.45 279.66 1347.12 282.988 1353.51 285.058C1358.1 286.458 1363.02 284.374 1365.2 280.108C1369.26 274.693 1369.63 267.381 1366.19 261.565C1358.72 248.335 1347.12 247.074 1332.44 249.955Z"   fill="#02478F" >
</path>
<path d="M1274.94 153.105L1290.14 150.494C1275.28 156.705 1287.89 169.847 1283.67 176.688C1276.83 187.848 1282.23 187.308 1290.32 186.318C1298.42 185.328 1306.62 179.118 1317.32 183.888C1305.08 194.599 1287.99 189.199 1277.82 199.82C1287.81 212.781 1300.41 198.649 1313.81 205.85C1299.5 211.431 1287.44 215.841 1275.46 220.702C1270.88 222.592 1261.89 226.102 1265.3 229.703C1275.39 240.414 1266.84 249.145 1265.3 258.776C1264.59 264.086 1263.96 270.207 1270.88 271.465C1275.83 272.367 1279.34 269.125 1281.05 264.086C1282.17 256.999 1285.89 250.586 1291.5 246.084C1296.25 254.321 1296.9 264.292 1293.29 273.088C1291.5 279.928 1289.88 288.029 1300.05 291.09C1310.22 294.148 1312.02 286.857 1313.54 279.207C1315.82 271.704 1317.5 264.028 1318.58 256.255C1319.13 241.044 1324.97 233.843 1341.17 235.193C1349.11 235.913 1360.72 237.443 1361.97 226.192C1363.05 216.291 1351.81 218.542 1345.78 215.661C1343.24 214.401 1341.53 212.691 1342.42 209.54C1348.74 204.77 1362.42 213.141 1362.97 200.54C1362.97 190.549 1350.26 197.299 1345.78 194.329C1347.74 183.618 1366.46 190.459 1361.53 180.918C1355.21 168.677 1363.76 170.927 1368.45 167.867C1371.07 166.066 1375.66 163.006 1375.29 161.746C1369.81 144.284 1383.2 152.745 1388.26 152.745C1395.94 154.333 1403.54 156.346 1411.04 158.776C1418.14 160.306 1428.38 166.156 1431.27 155.715C1434.15 145.274 1424.72 140.684 1416.07 137.713C1410.93 136.703 1405.72 136.101 1400.5 135.913L1363.49 130.873C1371.8 128.093 1380.48 126.577 1389.23 126.372C1395.44 125.832 1404.01 129.073 1406.53 120.972C1409.04 112.871 1400.13 109.001 1394.63 104.95C1391.48 102.624 1387.74 101.166 1383.83 100.72C1377.36 99.9997 1369.89 102.25 1374.84 90.5487C1376.28 86.8585 1370.34 82.9879 1365.83 81.5478C1361.35 80.1077 1357.83 82.718 1357.73 85.1482C1357.21 106.66 1340.72 97.1195 1329.11 101.35C1331.29 92.3489 1335.14 82.898 1326.59 78.9375C1318.05 74.9771 1318.23 85.6883 1314.99 90.2788C1313.54 92.3489 1312.47 93.8792 1308.85 93.0688C1296.43 90.1887 1292.58 101.08 1293.57 108.1C1296.43 127.632 1285.29 128.623 1271.61 128.443C1262.6 128.443 1252.69 128.443 1254.24 141.134C1255.76 153.825 1264.3 154.905 1274.94 153.105ZM1355.95 103.33C1345.15 117.372 1333.51 118.092 1319.94 118.451C1327.3 103.24 1339.1 102.97 1356.21 103.33L1355.95 103.33ZM1311.84 169.487C1317.13 162.016 1320.83 137.804 1337.13 161.116L1311.84 169.487C1310.58 171.287 1309.22 172.097 1307.52 170.927L1311.84 169.487Z"   fill="#02478F" >
</path>
<path d="M285.642 573.087C279.504 579.435 278.262 589.058 282.584 596.761C285.959 603.326 293.428 606.685 300.585 604.861C309.622 604.463 317.146 597.772 318.587 588.838C325.066 548.874 346.849 517.551 374.213 489.197C377.992 485.329 384.923 481.458 380.691 474.977C377.011 468.386 369.603 464.793 362.149 465.978C353.671 467.474 346.587 473.268 343.429 481.277C338.209 491.268 334.967 507.021 321.737 506.389C297.794 505.129 291.672 522.232 279.612 538.344L304.275 538.344C303.285 553.825 293.924 563.275 285.642 573.087Z"   fill="#02478F" >
</path>
<path d="M451.168 585.958C458.802 587.8 466.489 583.104 468.334 575.47C468.622 574.249 468.756 572.993 468.722 571.738C468.722 561.027 460.621 555.985 449.818 555.625C438.387 558.506 421.286 561.205 421.645 572.548C422.007 583.888 440.187 583.529 451.168 585.958Z"   fill="#02478F" >
</path>
<path d="M352.159 541.764C350.359 547.255 352.159 555.356 346.399 557.785C328.397 564.987 327.676 576.867 334.157 592.258C340.009 606.211 344.509 624.032 360.26 626.642C376.011 629.253 381.053 638.344 385.372 651.215C387.893 658.865 391.402 669.216 403.374 664.897C415.345 660.576 411.115 649.595 411.115 641.135C411.115 637.804 406.705 634.384 404.364 631.053C417.505 638.163 431.997 638.252 445.5 642.215C451.981 644.104 456.3 644.464 460.351 638.074C464.4 631.682 461.879 627.093 457.649 622.413C447.722 611.759 435.588 603.404 422.096 597.93C404.993 590.639 404.094 582.087 415.434 568.858C419.486 564.085 428.758 554.454 419.486 550.856C404.184 545.724 402.113 537.624 403.555 523.852C404.094 519.441 398.334 516.741 394.555 514.852C377.903 506.57 359.809 517.91 352.159 541.764ZM371.152 581.639C358.551 567.956 367.551 558.055 373.4 547.884C376.317 559.077 375.552 570.907 371.241 581.639L371.152 581.639ZM386.813 608.641C386.363 598.828 395.813 599.641 401.033 601.8C411.899 606.216 420.917 614.223 426.596 624.483C413.726 627.001 404.094 622.682 395.184 622.772C380.243 623.042 387.083 612.692 386.902 608.641L386.813 608.641Z"   fill="#02478F" >
</path>
<path d="M2014.25 336.451C1544.8 -120.71 793.617 -110.736 336.453 358.73C-112.097 819.355 -112.16 1553.44 336.317 2014.13C793.41 2483.67 1544.59 2493.77 2014.12 2036.68C2483.68 1579.59 2493.77 828.407 2036.68 358.866C2029.29 351.295 2021.82 343.823 2014.25 336.451ZM1175.3 2325.65C539.99 2325.65 24.9783 1810.64 24.9783 1175.34C24.9783 540.033 539.99 25.0219 1175.3 25.0219C1810.59 25.0219 2325.59 540.033 2325.59 1175.34C2325.59 1175.36 2325.59 1175.4 2325.59 1175.42C2324.91 1810.42 1810.28 2325 1175.3 2325.65Z"   fill="#02478F" >
</path>
<path d="M2043.6 1175.43C2043.63 695.869 1654.89 307.092 1175.33 307.069C695.777 307.045 307.001 695.783 306.975 1175.35C306.957 1548.43 545.273 1879.83 898.968 1998.56L906.621 1975.7C464.626 1827.31 226.607 1348.71 374.994 906.724C523.382 464.73 1001.99 226.715 1443.98 375.101C1885.96 523.487 2123.98 1002.09 1975.59 1444.08C1891.42 1694.77 1694.65 1891.54 1443.98 1975.7L1451.6 1998.56C1805.01 1879.47 2043.16 1548.34 2043.6 1175.43Z"   fill="#02478F" >
</path>
<path d="M1018.21 1975.97C1018.37 1975.02 1018.84 1974.16 1019.57 1973.54C1020.52 1972.96 1021.62 1972.65 1022.72 1972.64L1022.72 1970.84L999.238 1965.98L999.238 1967.78C1000.23 1968.23 1001.12 1968.94 1001.75 1969.85C1002.04 1970.76 1002.04 1971.73 1001.75 1972.64L1001.02 1975.88L995.988 1975.88L994.363 1975.88C993.708 1975.82 993.105 1975.45 992.765 1974.89C992.293 1973.97 992.083 1972.94 992.11 1971.92L990.327 1971.92L986.082 1992.35L987.89 1992.35C988.309 1991.32 988.991 1990.42 989.882 1989.74C990.747 1989.25 991.743 1989.01 992.765 1989.02L998.321 1989.02L988.257 2037.62C988.178 2038.6 987.68 2039.49 986.894 2040.06C986.003 2040.68 984.929 2040.99 983.854 2040.95L983.854 2042.75L1007.23 2047.62L1007.23 2045.82C1006.24 2045.36 1005.37 2044.65 1004.72 2043.75C1004.4 2042.84 1004.4 2041.86 1004.72 2040.95L1018.21 1975.97Z"   fill="#02478F" >
</path>
<path d="M1134.34 1983.8C1127.18 1977.67 1118.01 1974.46 1108.6 1974.8C1099.64 1974.11 1090.73 1976.32 1083.13 1981.1C1076.37 1985.24 1072.2 1992.54 1072.04 2000.45C1071.88 2004.42 1072.7 2008.37 1074.4 2011.97C1076.13 2015.55 1078.72 2018.64 1081.95 2020.97C1088.19 2025.25 1095.55 2027.59 1103.1 2027.72C1107.79 2027.96 1112.48 2027.34 1116.96 2025.92C1121.36 2024.34 1125.43 2021.96 1128.94 2018.9C1128.65 2023.04 1127.6 2027.1 1125.87 2030.87C1124.25 2033.97 1121.86 2036.6 1118.95 2038.52C1114.1 2041.82 1108.31 2043.38 1102.47 2042.94C1099.43 2042.79 1096.39 2042.28 1093.48 2041.4C1090.75 2040.64 1088.13 2039.49 1085.72 2037.98C1083.31 2036.36 1082.21 2034.74 1082.21 2033.21C1082.29 2032.45 1082.45 2031.69 1082.68 2030.96L1081.06 2030.15L1070.26 2048.16L1071.78 2049.24L1072.85 2048.33C1073.46 2047.94 1074.14 2047.71 1074.85 2047.7C1076.16 2047.85 1077.41 2048.28 1078.54 2048.97C1082.42 2050.93 1086.48 2052.5 1090.68 2053.65C1094.53 2054.61 1098.43 2055.15 1102.39 2055.27C1113.66 2056.11 1124.77 2052.3 1133.16 2044.74C1141.15 2037.11 1145.66 2026.53 1145.58 2015.48C1145.82 2009.6 1145.03 2003.73 1143.25 1998.11C1141.57 1992.64 1138.5 1987.71 1134.34 1983.8ZM1121.21 2010.8C1112.27 2016.24 1100.97 2015.82 1092.48 2009.72C1087.5 2005.59 1086.85 1998.21 1090.96 1993.24C1091.62 1992.46 1092.38 1991.77 1093.19 1991.18C1097.49 1988.35 1102.57 1987.02 1107.68 1987.4C1112.82 1987.37 1117.8 1989.08 1121.84 1992.26C1126.82 1996.37 1127.52 2003.74 1123.41 2008.73C1122.75 2009.51 1122.02 2010.21 1121.21 2010.8Z"   fill="#02478F" >
</path>
<path d="M1207.77 2053.82L1207.77 2055.72L1231.72 2054.64L1231.72 2052.74C1230.62 2052.59 1229.6 2052.12 1228.76 2051.39C1228.16 2050.66 1227.85 2049.73 1227.85 2048.78L1224.88 1982.45C1224.81 1981.49 1225.07 1980.53 1225.62 1979.75C1226.38 1978.96 1227.32 1978.41 1228.4 1978.13L1228.4 1976.33L1204.44 1977.41L1204.44 1979.21C1205.54 1979.4 1206.56 1979.86 1207.43 1980.56C1208.03 1981.29 1208.35 1982.21 1208.32 1983.17L1208.32 1986.59L1203.47 1988.03L1201.85 1988.03C1201.19 1988.09 1200.54 1987.89 1200.04 1987.49C1199.41 1986.7 1198.94 1985.77 1198.7 1984.79L1196.89 1984.79L1197.79 2005.58L1199.59 2005.58C1199.78 2004.49 1200.25 2003.47 1200.93 2002.61C1201.64 2001.86 1202.56 2001.36 1203.55 2001.17L1208.87 1999.55L1211.12 2049.14C1211.26 2050.11 1210.99 2051.08 1210.39 2051.85C1209.74 2052.74 1208.82 2053.44 1207.77 2053.82Z"   fill="#02478F" >
</path>
<path d="M1328.59 2052.66C1339.36 2051.88 1349.47 2047.1 1356.92 2039.24C1360.9 2034.42 1362.6 2028.13 1361.61 2021.96C1360.09 2012.96 1353.25 2007.65 1341.27 2006.66C1348.85 2003.62 1353.43 1995.86 1352.44 1987.76C1351.89 1984.09 1350.1 1980.73 1347.38 1978.22C1344.68 1975.68 1341.35 1973.85 1337.76 1972.91C1330.32 1971.35 1322.61 1971.35 1315.17 1972.91C1305.29 1973.72 1296.01 1977.98 1288.96 1984.97C1285.55 1988.94 1284.06 1994.19 1284.82 1999.37C1286.08 2006.75 1291.66 2011.43 1301.57 2013.59C1290.59 2018.45 1285.82 2025.56 1287.36 2034.65C1288.1 2039.02 1290.17 2043.04 1293.29 2046.18C1296.38 2049.32 1300.2 2051.58 1304.45 2052.74C1312.42 2054.4 1320.62 2054.37 1328.59 2052.66ZM1301.57 1997.03C1301.17 1994.04 1302.54 1991.09 1305.08 1989.47C1308.72 1986.93 1312.91 1985.32 1317.32 1984.79C1321.69 1983.71 1326.28 1983.71 1330.66 1984.79C1334.64 1985.61 1337.21 1989.51 1336.4 1993.51C1335.98 1995.55 1334.69 1997.32 1332.88 1998.38C1329.24 2000.93 1325 2002.55 1320.57 2003.06C1316.24 2004.09 1311.74 2004.09 1307.41 2003.06C1304.37 2002.45 1301.96 2000.08 1301.3 1997.03L1301.57 1997.03ZM1304.82 2031.23C1304 2027.91 1305.16 2024.43 1307.78 2022.23C1312.02 2018.74 1317.19 2016.53 1322.64 2015.84C1327.7 2014.74 1332.91 2015 1337.84 2016.56C1341.38 2017.64 1344 2020.65 1344.6 2024.3C1345.15 2027.42 1344.02 2030.6 1341.64 2032.67C1337.37 2036.25 1332.12 2038.48 1326.59 2039.06C1321.62 2040.18 1316.43 2039.96 1311.55 2038.43C1308.07 2037.53 1305.37 2034.75 1304.55 2031.23L1304.82 2031.23Z"   fill="#02478F" >
</path>
<path d="M841.848 2064.7C847.752 2066.6 853.655 2068.51 859.558 2070.42C860.445 2070.71 861.332 2071 862.246 2071.29C871.656 2074.34 881.061 2077.39 890.434 2080.55C891.498 2080.91 891.498 2080.91 892.584 2081.27C895.875 2082.38 899.164 2083.49 902.45 2084.61C911.282 2087.6 920.171 2090.08 929.199 2092.39C929.662 2097.29 930.117 2102.19 930.564 2107.1C930.717 2108.76 930.872 2110.42 931.029 2112.08C931.99 2122.24 932.638 2132.22 932.395 2142.44C934.999 2139.93 937.257 2137.54 939.186 2134.48C939.861 2133.42 939.861 2133.42 940.549 2132.34C941.022 2131.59 941.495 2130.83 941.982 2130.06C943.009 2128.45 944.037 2126.84 945.066 2125.23C945.601 2124.39 946.135 2123.55 946.686 2122.69C949.574 2118.21 952.534 2113.79 955.498 2109.36C956.061 2108.52 956.625 2107.67 957.205 2106.8C958.521 2104.84 959.839 2102.87 961.156 2100.91C964.133 2101.56 967.106 2102.23 970.078 2102.9C970.924 2103.09 971.769 2103.27 972.641 2103.46C973.451 2103.65 974.261 2103.84 975.096 2104.03C975.844 2104.19 976.591 2104.36 977.361 2104.53C979.266 2105.17 979.266 2105.17 981.396 2107.3C974.306 2116.99 967.181 2126.66 959.876 2136.2C957.707 2139.03 955.551 2141.87 953.396 2144.71C951.032 2147.82 948.638 2150.9 946.18 2153.95C939.391 2162.54 936.482 2170.8 934.063 2181.42C933.002 2185.91 931.719 2190.32 930.464 2194.75C930.012 2196.38 929.561 2198 929.112 2199.62C928.789 2200.78 928.466 2201.94 928.134 2203.14C925.135 2202.49 922.14 2201.82 919.146 2201.14C918.291 2200.96 917.436 2200.77 916.555 2200.58C914.362 2200.08 912.19 2199.49 910.024 2198.88C908.357 2195.55 909.77 2193.14 910.757 2189.61C911.154 2188.14 911.551 2186.66 911.947 2185.18C912.575 2182.86 913.209 2180.55 913.862 2178.24C916.843 2167.63 917.985 2158.8 916.416 2147.76C916.147 2145.71 915.879 2143.66 915.612 2141.61C914.665 2134.47 913.645 2127.34 912.621 2120.21C912.266 2117.71 911.912 2115.21 911.558 2112.72C910.697 2106.65 909.83 2100.58 908.959 2094.52C907.553 2098.03 906.147 2101.55 904.698 2105.17C898.66 2104.53 893.403 2102.94 887.721 2100.84C886.891 2100.54 886.06 2100.24 885.205 2099.93C883.179 2099.2 881.155 2098.46 879.132 2097.71C878.958 2098.31 878.783 2098.91 878.604 2099.52C876.267 2107.43 873.689 2115.26 871.076 2123.08C870.611 2124.48 870.145 2125.87 869.68 2127.27C868.71 2130.18 867.74 2133.09 866.768 2136C865.531 2139.7 864.296 2143.41 863.062 2147.12C862.103 2149.99 861.143 2152.87 860.183 2155.75C859.508 2157.77 858.834 2159.8 858.16 2161.82C856.031 2168.19 853.85 2174.51 851.436 2180.78C849.636 2180.32 847.839 2179.85 846.043 2179.38C845.042 2179.12 844.041 2178.86 843.009 2178.59C839.273 2177.45 835.844 2175.95 832.261 2174.39C839.457 2151.94 846.818 2129.56 854.522 2107.29C854.807 2106.46 855.092 2105.63 855.386 2104.78C855.918 2103.24 856.451 2101.7 856.987 2100.16C858.119 2096.89 859.203 2093.64 859.958 2090.26C858.639 2089.99 857.321 2089.73 855.963 2089.46C851.74 2088.5 847.589 2087.39 843.446 2086.13C842.359 2085.8 841.271 2085.48 840.151 2085.14C837.587 2083.87 837.587 2083.87 836.732 2082.14C836.422 2078.4 837.783 2075.32 839.119 2071.89C839.378 2071.19 839.636 2070.5 839.903 2069.79C840.541 2068.09 841.193 2066.39 841.848 2064.7Z"   fill="#004990" >
</path>
<path d="M464.637 1800.6C467.791 1802.08 469.57 1804.18 471.873 1806.78C472.712 1807.71 473.551 1808.64 474.416 1809.6C476.416 1812.24 477.115 1813.37 477.533 1816.57C476.909 1819.01 476.909 1819.01 475.833 1821.73C475.434 1822.76 475.035 1823.78 474.624 1824.84C474.179 1825.94 473.734 1827.05 473.276 1828.19C472.822 1829.34 472.367 1830.5 471.899 1831.69C470.931 1834.14 469.958 1836.59 468.979 1839.04C467.507 1842.72 466.053 1846.41 464.602 1850.1C459.282 1863.56 453.735 1876.89 447.706 1890.05C448.398 1889.27 449.089 1888.5 449.802 1887.7C456.241 1880.53 462.935 1873.64 469.743 1866.82C470.59 1865.97 471.437 1865.12 472.31 1864.24C476.829 1859.73 481.422 1855.39 486.286 1851.26C488.939 1848.91 491.365 1846.38 493.79 1843.81C496.001 1841.8 498.375 1840.4 500.968 1838.93C502.96 1840.78 504.931 1842.64 506.893 1844.52C507.462 1845.04 508.03 1845.57 508.615 1846.11C512.625 1849.99 512.625 1849.99 512.886 1852.8C510.997 1855.94 508.423 1858.18 505.696 1860.56C504.425 1861.7 503.156 1862.84 501.887 1863.99C501.215 1864.59 500.544 1865.19 499.852 1865.81C496.314 1869 492.852 1872.27 489.384 1875.54C487.933 1876.9 486.482 1878.26 485.031 1879.62C484.315 1880.29 483.598 1880.97 482.86 1881.66C478.838 1885.43 474.805 1889.19 470.772 1892.95C467.3 1896.18 463.832 1899.43 460.372 1902.68C452.307 1910.25 444.212 1917.79 435.988 1925.19C432.007 1923.54 429.531 1921.13 426.6 1918C425.305 1916.66 425.305 1916.66 423.983 1915.29C422.14 1912.41 422.14 1912.41 422.368 1909.55C423.332 1905.49 424.703 1901.67 426.234 1897.8C426.538 1897.02 426.842 1896.23 427.155 1895.43C428.14 1892.9 429.134 1890.38 430.129 1887.85C430.809 1886.11 431.489 1884.38 432.169 1882.64C436.516 1871.57 441.024 1860.58 445.821 1849.7C447.682 1845.45 449.311 1841.15 450.901 1836.8C450.474 1837.27 450.047 1837.73 449.607 1838.21C439.767 1848.88 429.654 1859.09 418.954 1868.9C416.714 1870.97 414.506 1873.07 412.303 1875.19C411.574 1875.88 410.845 1876.58 410.093 1877.29C408.7 1878.62 407.312 1879.96 405.93 1881.3C401.194 1885.79 401.194 1885.79 397.639 1885.79C395.505 1883.89 393.545 1881.99 391.58 1879.93C391.036 1879.37 390.491 1878.81 389.93 1878.24C388.587 1876.86 387.253 1875.47 385.921 1874.07C390.543 1868.49 395.45 1863.49 400.768 1858.57C401.561 1857.83 402.354 1857.09 403.171 1856.32C405.585 1854.07 408.003 1851.83 410.422 1849.58C411.801 1848.29 413.18 1847.01 414.558 1845.72C417.174 1843.28 419.791 1840.83 422.41 1838.39C427.297 1833.84 432.17 1829.27 437.044 1824.69C440.678 1821.29 444.315 1817.88 447.959 1814.49C448.688 1813.81 449.416 1813.13 450.167 1812.43C451.553 1811.14 452.94 1809.85 454.328 1808.56C454.951 1807.98 455.573 1807.4 456.215 1806.8C456.759 1806.29 457.304 1805.79 457.864 1805.26C458.975 1804.21 460.049 1803.12 461.096 1802C462.619 1800.59 462.619 1800.59 464.637 1800.6Z"   fill="#004990" >
</path>
<path d="M311.354 1555.65C313.205 1558.6 313.205 1558.6 314.882 1562.31C315.733 1564.13 315.733 1564.13 316.601 1565.99C317.842 1569.8 318.175 1571.15 316.68 1574.82C314.881 1577.36 312.844 1579.64 310.754 1581.95C309.574 1583.28 308.395 1584.62 307.217 1585.96C306.643 1586.61 306.069 1587.26 305.477 1587.93C303.483 1590.21 301.582 1592.55 299.702 1594.92C282.695 1616.39 282.695 1616.39 273.966 1625.82C271.763 1628.27 269.714 1630.81 267.678 1633.4C268.634 1632.88 269.59 1632.36 270.575 1631.83C290.596 1621.06 311.108 1611.3 331.593 1601.45C334.523 1604.22 335.996 1606.8 337.652 1610.5C338.117 1611.52 338.583 1612.54 339.063 1613.59C340.115 1616.36 340.115 1616.36 340.115 1619.55C339.407 1619.88 338.699 1620.2 337.969 1620.53C322.396 1627.68 306.912 1634.99 291.513 1642.51C280.039 1648.11 268.544 1653.65 256.959 1659.02C255.8 1659.56 254.641 1660.1 253.447 1660.66C252.396 1661.14 251.346 1661.62 250.264 1662.12C249.352 1662.54 248.44 1662.96 247.501 1663.39C245.308 1664.28 245.308 1664.28 243.178 1664.28C241.897 1661.71 240.635 1659.14 239.383 1656.56C239.018 1655.83 238.653 1655.11 238.278 1654.36C235.647 1648.89 235.647 1648.89 235.995 1646.14C237.367 1642.51 240.156 1639.84 242.712 1636.99C243.886 1635.65 245.06 1634.31 246.232 1632.97C246.806 1632.31 247.379 1631.66 247.97 1630.98C250.762 1627.76 253.397 1624.41 256.044 1621.07C259.067 1617.26 262.155 1613.5 265.24 1609.75C266.871 1607.76 268.497 1605.76 270.117 1603.76C275.186 1597.52 280.386 1591.43 285.788 1585.47C278.388 1589.12 271.048 1592.81 263.817 1596.79C255.795 1601.15 247.524 1604.99 239.249 1608.84C238.581 1609.15 237.913 1609.46 237.225 1609.78C235.301 1610.68 233.374 1611.57 231.447 1612.46C230.322 1612.98 229.196 1613.5 228.037 1614.03C225.605 1615.06 223.384 1615.83 220.807 1616.36C219.559 1613.92 218.317 1611.48 217.079 1609.03C216.723 1608.34 216.368 1607.65 216.001 1606.93C213.351 1601.69 213.351 1601.69 213.351 1599.32C254.817 1578.99 254.817 1578.99 274.593 1569.92C280.219 1567.34 285.818 1564.72 291.372 1561.99C292.411 1561.48 293.45 1560.97 294.521 1560.45C296.448 1559.5 298.37 1558.55 300.286 1557.58C301.546 1556.96 301.546 1556.96 302.832 1556.33C303.557 1555.96 304.282 1555.6 305.029 1555.23C307.596 1554.43 308.886 1554.63 311.354 1555.65Z"   fill="#004990" >
</path>
<path d="M2025.34 1606.77C2029.18 1608.23 2032.77 1609.94 2036.39 1611.88C2037.49 1612.48 2038.6 1613.07 2039.74 1613.68C2041.51 1614.64 2041.51 1614.64 2043.32 1615.62C2044.55 1616.29 2045.79 1616.96 2047.06 1617.65C2055.88 1622.42 2064.63 1627.31 2073.34 1632.27C2083.36 1637.96 2093.45 1643.52 2103.55 1649.06C2104.51 1649.59 2104.51 1649.59 2105.49 1650.12C2107.23 1651.08 2108.97 1652.03 2110.71 1652.99C2113.53 1654.57 2116.32 1656.21 2119.08 1657.89C2117.46 1664.05 2114.5 1669.92 2110.56 1674.93C2107.11 1676.2 2104.02 1676 2100.38 1675.74C2098.6 1675.62 2098.6 1675.62 2096.78 1675.49C2094.86 1675.35 2094.86 1675.35 2092.89 1675.2C2091.56 1675.11 2090.23 1675.02 2088.86 1674.92C2085.32 1674.67 2081.78 1674.41 2078.24 1674.15C2074.69 1673.9 2071.13 1673.64 2067.58 1673.39C2061.13 1672.93 2054.67 1672.47 2048.22 1672C2042.01 1671.55 2035.81 1671.11 2029.6 1670.67C2030.68 1671.17 2030.68 1671.17 2031.77 1671.67C2045.76 1678.16 2059.46 1685.03 2072.95 1692.5C2073.61 1692.87 2074.27 1693.23 2074.96 1693.61C2081.3 1697.12 2087.53 1700.67 2093.52 1704.75C2092.35 1707.22 2091.18 1709.68 2089.99 1712.13C2089.66 1712.84 2089.33 1713.54 2088.99 1714.26C2088.1 1716.1 2087.08 1717.88 2086.06 1719.66C2082.87 1720.72 2082.87 1720.72 2080.35 1719.69C2079.36 1719.15 2078.37 1718.61 2077.36 1718.05C2076.24 1717.45 2075.13 1716.84 2073.98 1716.22C2072.78 1715.55 2071.58 1714.88 2070.35 1714.2C2069.09 1713.51 2067.83 1712.82 2066.57 1712.13C2057.73 1707.29 2048.95 1702.34 2040.18 1697.35C2034.34 1694.03 2028.47 1690.74 2022.57 1687.5C2021.88 1687.12 2021.18 1686.74 2020.47 1686.34C2017.07 1684.48 2013.67 1682.61 2010.26 1680.75C2003.8 1677.21 1997.45 1673.59 1991.25 1669.6C1993.51 1663.6 1996.67 1658.16 1999.78 1652.56C2013.96 1652.32 2027.98 1653.09 2042.12 1654.1C2044.23 1654.24 2046.34 1654.39 2048.45 1654.53C2058.86 1655.25 2069.27 1656 2079.67 1656.82C2078.75 1656.4 2078.75 1656.4 2077.81 1655.97C2062.56 1648.91 2047.88 1641.18 2033.33 1632.79C2027.89 1629.68 2022.36 1626.74 2016.82 1623.81C2018.16 1619.36 2019.83 1615.64 2022.28 1611.7C2022.85 1610.77 2023.43 1609.84 2024.02 1608.88C2024.46 1608.18 2024.89 1607.49 2025.34 1606.77Z"   fill="#004990" >
</path>
<path d="M251.699 1366.09C253.106 1372.42 254.512 1378.75 255.96 1385.26C246.896 1392.78 237.824 1400.27 228.526 1407.5C225.205 1410.08 221.92 1412.71 218.673 1415.39C210.416 1422.2 202.159 1428.51 193.111 1434.25C200.59 1432.41 208.037 1430.49 215.462 1428.45C226.604 1425.39 237.776 1422.53 249.036 1419.94C250.231 1419.66 251.426 1419.39 252.657 1419.1C260.994 1417.21 260.994 1417.21 263.417 1417.21C264.133 1419.63 264.841 1422.05 265.548 1424.47C265.943 1425.81 266.339 1427.16 266.746 1428.55C267.678 1432.12 267.678 1432.12 267.678 1435.32C255.708 1438.58 243.682 1441.55 231.609 1444.42C229.729 1444.86 227.849 1445.31 225.969 1445.76C222.066 1446.69 218.163 1447.62 214.26 1448.54C209.255 1449.73 204.251 1450.92 199.248 1452.12C195.383 1453.04 191.517 1453.95 187.651 1454.87C185.804 1455.31 183.958 1455.75 182.111 1456.19C179.546 1456.8 176.979 1457.41 174.412 1458.02C173.271 1458.29 173.271 1458.29 172.108 1458.57C169.082 1459.28 166.405 1459.81 163.284 1459.81C161.878 1453.48 160.471 1447.16 159.023 1440.64C166.568 1434.19 174.15 1427.84 181.991 1421.75C185.324 1419.16 188.624 1416.54 191.879 1413.85C201.896 1405.57 212.226 1397.94 222.938 1390.59C222.241 1390.8 221.543 1391 220.825 1391.22C205.434 1395.78 189.985 1400.01 174.397 1403.84C172.625 1404.28 170.854 1404.72 169.084 1405.16C166.585 1405.78 164.084 1406.39 161.582 1407C160.831 1407.19 160.08 1407.37 159.306 1407.57C155.803 1408.4 153.989 1408.79 150.501 1407.63C149.452 1404.64 149.452 1404.64 148.637 1400.9C148.356 1399.68 148.076 1398.45 147.788 1397.19C147.337 1394.01 147.495 1392.5 148.37 1389.52C161.212 1386.46 174.055 1383.41 186.9 1380.36C192.864 1378.94 198.828 1377.53 204.79 1376.1C210.543 1374.73 216.297 1373.37 222.051 1372C224.248 1371.48 226.445 1370.96 228.641 1370.43C231.713 1369.7 234.787 1368.97 237.861 1368.24C238.772 1368.03 239.683 1367.81 240.621 1367.58C241.461 1367.38 242.3 1367.19 243.165 1366.98C243.892 1366.81 244.618 1366.64 245.367 1366.46C247.438 1366.09 247.438 1366.09 251.699 1366.09Z"   fill="#004990" >
</path>
<path d="M1314.82 2117.95C1316.95 2129.3 1318.11 2140.73 1319.29 2152.2C1319.51 2154.26 1319.72 2156.32 1319.94 2158.37C1320.38 2162.65 1320.82 2166.93 1321.27 2171.22C1321.83 2176.71 1322.41 2182.21 1322.99 2187.71C1323.43 2191.94 1323.87 2196.17 1324.3 2200.41C1324.51 2202.44 1324.73 2204.47 1324.94 2206.49C1325.24 2209.31 1325.52 2212.13 1325.81 2214.95C1325.9 2215.79 1325.99 2216.64 1326.09 2217.5C1326.28 2219.46 1326.42 2221.42 1326.54 2223.38C1324.17 2225.74 1319.46 2225.32 1316.22 2225.64C1314.93 2225.83 1314.93 2225.83 1313.62 2226.02C1310.92 2226.26 1308.91 2226.25 1306.3 2225.51C1303.38 2222.79 1301.77 2219.41 1299.91 2215.92C1298.81 2214.11 1297.72 2212.31 1296.62 2210.51C1294.56 2207.14 1292.54 2203.74 1290.52 2200.35C1289.71 2198.99 1288.89 2197.62 1288.08 2196.26C1286.45 2193.55 1284.83 2190.83 1283.2 2188.11C1281.51 2185.27 1279.8 2182.43 1278.1 2179.59C1277.67 2178.88 1277.24 2178.16 1276.79 2177.42C1275.98 2176.07 1275.16 2174.71 1274.34 2173.35C1271.38 2168.44 1268.54 2163.46 1265.82 2158.41C1266.43 2164.16 1267.13 2169.88 1267.95 2175.6C1269.48 2186.34 1270.75 2197.09 1271.88 2207.87C1272.02 2209.19 1272.16 2210.5 1272.3 2211.86C1272.49 2213.74 1272.49 2213.74 1272.69 2215.65C1272.8 2216.76 1272.92 2217.86 1273.03 2219C1273.29 2222.58 1273.27 2226.18 1273.27 2229.76C1264.31 2230.29 1264.31 2230.29 1255.17 2230.83C1253.22 2219.04 1251.94 2207.25 1250.73 2195.37C1250.52 2193.31 1250.31 2191.25 1250.09 2189.19C1249.54 2183.82 1248.99 2178.46 1248.44 2173.09C1247.88 2167.59 1247.32 2162.09 1246.75 2156.59C1245.65 2145.84 1244.55 2135.09 1243.45 2124.34C1244.5 2124.23 1244.5 2124.23 1245.58 2124.13C1246.99 2123.99 1246.99 2123.99 1248.43 2123.85C1249.4 2123.75 1250.37 2123.65 1251.38 2123.56C1253.34 2123.35 1255.29 2123.1 1257.24 2122.82C1259.99 2122.55 1262.08 2122.55 1264.75 2123.27C1267.79 2126.13 1269.43 2129.56 1271.28 2133.25C1272.45 2135.41 1273.62 2137.56 1274.8 2139.71C1275.41 2140.85 1276.02 2141.99 1276.65 2143.17C1279.99 2149.22 1283.71 2155.03 1287.39 2160.88C1293.8 2171.19 1299.79 2181.63 1305.23 2192.49C1304.97 2191.12 1304.72 2189.74 1304.45 2188.32C1301.89 2174.12 1300.08 2159.91 1298.57 2145.57C1298.48 2144.68 1298.39 2143.79 1298.29 2142.87C1298.02 2140.3 1297.75 2137.72 1297.49 2135.15C1297.41 2134.38 1297.33 2133.62 1297.25 2132.83C1296.79 2128.19 1296.64 2123.66 1296.71 2119.01C1302.81 2118.12 1308.66 2117.84 1314.82 2117.95ZM1263.69 2154.15C1264.75 2156.28 1264.75 2156.28 1264.75 2156.28L1263.69 2154.15Z"   fill="#004990" >
</path>
<path d="M233.59 1201.03C234.118 1211.04 234.118 1211.04 234.656 1221.26C232.571 1222.37 230.487 1223.47 228.339 1224.61C225.517 1226.11 222.696 1227.61 219.875 1229.12C219.144 1229.5 218.412 1229.89 217.659 1230.29C209.121 1234.84 200.608 1239.41 192.179 1244.16C183.757 1248.89 175.161 1253.23 166.48 1257.47C165.425 1258 165.425 1258 164.349 1258.53C165.319 1258.44 166.289 1258.35 167.289 1258.26C190.493 1256.09 213.455 1254.09 236.786 1254.27C236.786 1260.25 236.786 1266.22 236.786 1272.38C201.294 1274.85 165.789 1276.9 130.261 1278.77C129.909 1272.09 129.558 1265.41 129.196 1258.53C130.769 1257.68 132.343 1256.83 133.964 1255.96C136.148 1254.77 138.331 1253.59 140.514 1252.41C141.667 1251.79 142.82 1251.16 144.007 1250.52C149.706 1247.44 155.4 1244.35 161.078 1241.22C170.606 1235.99 180.134 1230.81 189.907 1226.05C193.574 1224.26 197.101 1222.35 200.568 1220.2C199.642 1220.32 199.642 1220.32 198.698 1220.46C184.094 1222.44 169.536 1223.81 154.828 1224.66C153.668 1224.72 153.668 1224.72 152.484 1224.79C144.005 1225.28 135.56 1225.63 127.065 1225.52C126.714 1219.55 126.362 1213.57 126 1207.42C130.362 1206.33 134.506 1205.99 138.968 1205.74C139.844 1205.69 140.719 1205.64 141.621 1205.58C144.516 1205.41 147.41 1205.25 150.305 1205.08C152.325 1204.97 154.345 1204.85 156.365 1204.73C160.603 1204.48 164.841 1204.24 169.079 1204C174.486 1203.69 179.891 1203.37 185.297 1203.05C189.472 1202.81 193.648 1202.57 197.824 1202.33C199.815 1202.21 201.807 1202.1 203.798 1201.98C213.741 1201.4 223.625 1200.87 233.59 1201.03Z"   fill="#004990" >
</path>
<path d="M1699.77 1987.89C1709.25 1993.4 1715.02 2003.23 1718.1 2013.51C1719.87 2022.18 1718.53 2029.34 1714.29 2037.01C1722.81 2042.73 1731.37 2048.4 1739.99 2053.98C1740.74 2054.47 1741.5 2054.96 1742.28 2055.47C1746.05 2057.9 1749.83 2060.29 1753.7 2062.57C1752.18 2067.12 1748.84 2068.52 1744.91 2070.89C1743.85 2071.58 1743.85 2071.58 1742.75 2072.28C1742.06 2072.71 1741.36 2073.13 1740.64 2073.57C1740 2073.96 1739.37 2074.36 1738.71 2074.76C1735.66 2075.63 1734.11 2074.63 1731.33 2073.22C1729.69 2072.19 1728.07 2071.1 1726.49 2069.97C1725.59 2069.34 1724.69 2068.7 1723.76 2068.04C1722.37 2067.05 1722.37 2067.05 1720.95 2066.03C1718.21 2064.08 1715.46 2062.14 1712.71 2060.2C1710.92 2058.94 1709.13 2057.66 1707.36 2056.36C1706.52 2055.77 1705.68 2055.18 1704.82 2054.57C1704.08 2054.03 1703.33 2053.49 1702.57 2052.94C1700.53 2051.75 1700.53 2051.75 1698.44 2052.02C1695.27 2053.37 1692.59 2055.27 1689.79 2057.24C1690.33 2058.13 1690.87 2059.01 1691.43 2059.91C1693.45 2063.19 1695.46 2066.47 1697.47 2069.75C1698.34 2071.17 1699.21 2072.59 1700.08 2074C1701.34 2076.04 1702.58 2078.08 1703.83 2080.12C1704.22 2080.75 1704.61 2081.38 1705.02 2082.03C1706.86 2085.08 1708.38 2087.78 1708.96 2091.32C1706.55 2092.96 1704.13 2094.57 1701.71 2096.18C1701.02 2096.65 1700.34 2097.11 1699.63 2097.59C1697.82 2098.78 1695.94 2099.85 1694.05 2100.91C1690.01 2099.56 1689.72 2098.38 1687.68 2094.73C1687.06 2093.64 1686.45 2092.54 1685.81 2091.42C1684.81 2089.62 1684.81 2089.62 1683.8 2087.79C1682.36 2085.25 1680.91 2082.71 1679.47 2080.17C1679.09 2079.51 1678.72 2078.85 1678.33 2078.17C1674.26 2071.02 1669.98 2064 1665.69 2056.98C1659.5 2046.86 1653.39 2036.7 1647.39 2026.47C1646.87 2025.59 1646.36 2024.72 1645.83 2023.81C1645.35 2022.99 1644.86 2022.17 1644.36 2021.32C1642.49 2018.2 1640.53 2015.14 1638.54 2012.09C1637.59 2010.39 1637.59 2010.39 1637.59 2008.26C1639.69 2006.81 1641.77 2005.51 1643.97 2004.24C1644.96 2003.66 1644.96 2003.66 1645.97 2003.06C1647.38 2002.23 1648.79 2001.41 1650.2 2000.6C1652.33 1999.36 1654.45 1998.11 1656.57 1996.86C1670.07 1988.93 1683.95 1981.05 1699.77 1987.89ZM1664.22 2013.58C1665.92 2020.07 1669.4 2025.37 1672.88 2031.02C1673.48 2032.01 1674.08 2032.99 1674.7 2034.01C1676.17 2036.43 1677.65 2038.85 1679.14 2041.27C1686.93 2037.55 1693.63 2033.83 1698.31 2026.36C1699.9 2021.68 1699.64 2018.9 1697.64 2014.51C1695.08 2009.97 1692.27 2006.17 1687.39 2004C1678.67 2004 1671.31 2009.01 1664.22 2013.58Z"   fill="#004990" >
</path>
<path d="M673.539 1980.57C679.916 1982.96 685.584 1986.46 691.448 1989.89C692.572 1990.53 693.696 1991.18 694.854 1991.85C706.439 1998.6 715.098 2004.32 720.809 2016.78C722.945 2027.03 720.61 2035.39 715.408 2044.39C710.081 2052.34 703.962 2057.4 694.844 2060.44C693.18 2060.51 691.515 2060.53 689.85 2060.5C688.989 2060.5 688.128 2060.49 687.241 2060.48C686.586 2060.46 685.931 2060.45 685.256 2060.44C685.197 2061.44 685.138 2062.43 685.078 2063.46C684.854 2067.22 684.63 2070.99 684.405 2074.75C684.308 2076.37 684.212 2077.99 684.116 2079.6C683.549 2089.2 682.922 2098.78 682.061 2108.36C677.586 2107.4 673.986 2105.27 670.076 2102.97C669.384 2102.57 668.692 2102.17 667.979 2101.75C666.279 2100.77 664.582 2099.77 662.886 2098.78C663.603 2083.84 664.778 2068.95 666.082 2054.05C664.917 2053.32 663.753 2052.6 662.553 2051.85C661.898 2051.44 661.243 2051.04 660.568 2050.62C658.443 2049.46 658.443 2049.46 655.429 2050.85C653.52 2053.55 653.52 2053.55 651.697 2056.9C651.352 2057.51 651.007 2058.11 650.651 2058.74C649.549 2060.67 648.461 2062.62 647.373 2064.56C646.279 2066.5 645.182 2068.44 644.084 2070.37C643.088 2072.13 642.098 2073.89 641.109 2075.65C639.919 2077.73 638.645 2079.75 637.32 2081.74C630.414 2080.83 625.059 2076.75 619.211 2073.22C623.392 2064.55 627.966 2056.26 632.992 2048.06C638.661 2038.72 644.208 2029.32 649.637 2019.84C654.958 2010.56 660.384 2001.35 665.949 1992.22C666.589 1991.16 667.23 1990.11 667.89 1989.03C672.327 1981.78 672.327 1981.78 673.539 1980.57ZM680.995 2006.13C679.39 2008.31 679.39 2008.31 677.795 2011.14C677.182 2012.18 676.569 2013.22 675.937 2014.3C675.3 2015.4 674.662 2016.5 674.005 2017.64C673.042 2019.28 673.042 2019.28 672.059 2020.95C668.647 2026.65 668.647 2026.65 666.082 2032.75C677.415 2040.41 677.415 2040.41 690.583 2041.27C696.169 2039.24 698.629 2034.64 701.235 2029.55C702.646 2025.94 702.353 2024.45 701.435 2020.64C698.864 2015.16 693.435 2012.38 688.452 2009.32C687.505 2008.72 686.557 2008.12 685.581 2007.51C683.286 2005.95 683.286 2005.95 680.995 2006.13Z"   fill="#004990" >
</path>
<path d="M2170.22 1378.87C2171.22 1379.19 2172.22 1379.51 2173.25 1379.84C2186.24 1384.48 2198.06 1394.26 2204.35 1406.62C2207.95 1415.86 2207.66 1426.64 2204.41 1435.94C2199.38 1446.98 2191.87 1453.42 2180.79 1458.04C2162.18 1464.45 2140.86 1459.84 2123.34 1452.35C2110.22 1445.72 2101.38 1436.54 2096.71 1422.54C2095.79 1409.31 2096.82 1397.8 2105.58 1387.16C2122.06 1369.72 2149.12 1371.83 2170.22 1378.87ZM2118.02 1403.37C2115.41 1407.67 2115.28 1412.29 2115.89 1417.21C2118.83 1425.7 2125.16 1430.66 2133 1434.52C2146.02 1440.1 2160.61 1443.32 2174.41 1438.91C2180.68 1436.35 2183.16 1433.3 2186.59 1427.53C2187.8 1422.33 2187.45 1417.62 2185.07 1412.79C2177.73 1401.95 2164.38 1397.38 2152.11 1394.58C2139.25 1392.32 2127.16 1393.19 2118.02 1403.37Z"   fill="#004990" >
</path>
<path d="M2112.69 1538.62C2113.67 1539.03 2113.67 1539.03 2114.68 1539.44C2128.88 1545.56 2139.73 1554.15 2147.85 1567.37C2148.25 1568.03 2148.66 1568.69 2149.08 1569.37C2153.01 1577.5 2152.29 1589.18 2150.07 1597.74C2145.75 1608.81 2139.42 1615.52 2128.67 1620.62C2122.66 1622.77 2117.2 1623.12 2110.9 1623.08C2109.48 1623.07 2109.48 1623.07 2108.03 1623.06C2088.65 1622.7 2069.49 1613.81 2055.29 1600.67C2046.21 1590.89 2042.89 1581.17 2043.12 1567.98C2044.1 1556.77 2049.52 1548.13 2057.5 1540.48C2072.89 1528.36 2095.75 1531.44 2112.69 1538.62ZM2066.42 1559.32C2063.16 1564.66 2062.16 1568.25 2063.05 1574.47C2064.97 1581.94 2070.14 1587.71 2076.47 1591.86C2088.76 1599.04 2102.68 1605.89 2117.25 1603.12C2123.57 1601.42 2127.29 1598.44 2130.8 1592.93C2132.45 1588 2132.77 1583.67 2130.98 1578.79C2124.25 1565.59 2110.97 1559.4 2097.64 1554.41C2086.54 1551.06 2075.13 1550.61 2066.42 1559.32Z"   fill="#004990" >
</path>
<path d="M1068.75 2121.14C1081.32 2130.91 1084.83 2143.26 1086.86 2158.41C1087.18 2161.69 1087.16 2164.72 1086.86 2168C1086.76 2169.18 1086.66 2170.35 1086.56 2171.56C1084.53 2190.44 1078.44 2207.74 1063.42 2220.18C1053.46 2226.54 1041.65 2226.99 1030.24 2224.89C1019.9 2221.64 1012.47 2214.73 1007.49 2205.21C998.852 2185.81 1000.42 2163.67 1007.52 2144.01C1012.34 2132.65 1019.59 2122.97 1030.86 2117.41C1042.93 2113.22 1057.99 2114.27 1068.75 2121.14ZM1029.74 2144.45C1021.75 2156.64 1020.09 2173.72 1022.53 2187.74C1024.61 2195.73 1027.54 2200.89 1034.66 2205.27C1039.7 2206.95 1043.93 2207.38 1048.84 2205.28C1057.45 2200.13 1061.59 2192.65 1064.29 2183.17C1067.59 2169.8 1068.73 2156.11 1062.36 2143.51C1059.51 2138.96 1056.78 2136.77 1051.7 2134.99C1041.82 2133.67 1035.96 2136.83 1029.74 2144.45Z"   fill="#004990" >
</path>
<path d="M1980.6 1684.51C1985.18 1686.12 1989 1688.52 1992.98 1691.23C1993.67 1691.7 1994.36 1692.16 1995.07 1692.64C1997.35 1694.18 1999.63 1695.74 2001.91 1697.29C2002.71 1697.84 2003.52 1698.39 2004.35 1698.96C2013.83 1705.41 2023.28 1711.91 2032.72 1718.41C2038.38 1722.3 2044.04 1726.17 2049.71 1730.04C2056.53 1734.7 2063.34 1739.38 2070.08 1744.15C2068.36 1747.8 2066.27 1751.14 2064.09 1754.53C2063.42 1755.58 2062.75 1756.63 2062.05 1757.71C2061.54 1758.51 2061.02 1759.3 2060.5 1760.12C2054.8 1759.68 2051.09 1756.47 2046.65 1753.2C2045.04 1752.04 2043.42 1750.89 2041.81 1749.73C2039.51 1748.06 2037.21 1746.39 2034.92 1744.72C2033.02 1743.35 2031.11 1741.98 2029.2 1740.62C2028.12 1739.84 2027.03 1739.05 2025.92 1738.24C2024.58 1737.47 2024.58 1737.47 2023.21 1736.69C2019.21 1738.03 2018.55 1739.46 2016.21 1742.91C2015.5 1743.96 2014.79 1745 2014.05 1746.08C2013.32 1747.18 2012.58 1748.28 2011.83 1749.41C2011.08 1750.5 2010.33 1751.6 2009.56 1752.73C2005.7 1757.63 2005.7 1757.63 2004.04 1763.32C2006.31 1765.13 2006.31 1765.13 2009.26 1766.99C2010.36 1767.72 2011.47 1768.45 2012.6 1769.2C2013.78 1769.96 2014.95 1770.72 2016.15 1771.51C2018.43 1772.99 2020.7 1774.49 2022.97 1775.98C2024.08 1776.7 2025.19 1777.43 2026.33 1778.18C2031.03 1781.31 2035.65 1784.54 2040.26 1787.81C2037.04 1793.8 2033.67 1799.4 2029.6 1804.85C2023.22 1801.65 2017.49 1797.8 2011.72 1793.6C2004.27 1788.2 1996.58 1783.16 1988.9 1778.11C1983.76 1774.71 1978.69 1771.26 1973.73 1767.6C1969.61 1764.57 1965.41 1761.7 1961.12 1758.91C1960.01 1758.19 1958.9 1757.46 1957.75 1756.72C1955.46 1755.24 1953.16 1753.76 1950.86 1752.29C1949.76 1751.58 1948.67 1750.86 1947.54 1750.12C1946.55 1749.49 1945.56 1748.85 1944.53 1748.19C1942.25 1746.28 1942.25 1746.28 1941.27 1744.12C1941.13 1740.38 1943.77 1737.71 1945.91 1734.83C1946.38 1734.19 1946.84 1733.55 1947.31 1732.89C1948.46 1731.31 1949.61 1729.74 1950.77 1728.18C1954.46 1729.54 1957.56 1731.12 1960.79 1733.35C1962.08 1734.24 1962.08 1734.24 1963.4 1735.15C1964.29 1735.77 1965.17 1736.39 1966.09 1737.03C1966.97 1737.63 1967.85 1738.24 1968.75 1738.86C1975.6 1743.6 1975.6 1743.6 1978.53 1745.78C1982.33 1748.76 1982.33 1748.76 1986.99 1749.47C1988.95 1747.32 1988.95 1747.32 1990.8 1744.46C1991.51 1743.42 1992.22 1742.38 1992.95 1741.3C1993.69 1740.2 1994.42 1739.1 1995.18 1737.96C1995.93 1736.87 1996.68 1735.78 1997.45 1734.65C2001.55 1729.21 2001.55 1729.21 2002.97 1722.85C2000.65 1720.88 2000.65 1720.88 1997.6 1719C1996.48 1718.26 1995.35 1717.53 1994.2 1716.77C1992.99 1716 1991.79 1715.23 1990.59 1714.46C1976.35 1705.26 1976.35 1705.26 1971.01 1700.49C1973.99 1694.99 1977.04 1689.65 1980.6 1684.51Z"   fill="#004990" >
</path>
<path d="M1393.71 2115.22C1406.73 2125.68 1412.92 2141.11 1414.95 2157.35C1415.27 2161.41 1415.39 2165.45 1415.42 2169.53C1415.43 2170.49 1415.44 2171.44 1415.45 2172.43C1415.29 2184.46 1411.61 2194.2 1403.47 2203.08C1394.48 2211.61 1383.32 2214.61 1371.41 2216.79C1370.24 2217.02 1369.07 2217.25 1367.86 2217.48C1362.87 2218.44 1358.25 2219.17 1353.17 2219.11C1350.52 2206.14 1347.89 2193.16 1345.25 2180.18C1344.03 2174.15 1342.8 2168.13 1341.58 2162.1C1340.39 2156.29 1339.21 2150.47 1338.03 2144.66C1337.58 2142.44 1337.13 2140.22 1336.68 2138C1336.04 2134.9 1335.41 2131.79 1334.79 2128.68C1334.6 2127.76 1334.41 2126.84 1334.21 2125.89C1334.04 2125.04 1333.87 2124.2 1333.7 2123.32C1333.55 2122.59 1333.4 2121.85 1333.24 2121.1C1332.93 2119.01 1332.93 2119.01 1332.93 2114.75C1376.07 2103.23 1376.07 2103.23 1393.71 2115.22ZM1359.36 2127.55C1358.02 2127.89 1356.68 2128.24 1355.3 2128.59C1358.26 2144.95 1361.37 2161.28 1364.62 2177.58C1364.78 2178.41 1364.95 2179.24 1365.12 2180.09C1365.59 2182.45 1366.06 2184.81 1366.53 2187.17C1366.94 2189.21 1366.94 2189.21 1367.36 2191.29C1368.02 2194.63 1368.02 2194.63 1369.15 2197.82C1378.21 2196.57 1385.58 2194.25 1391.38 2186.83C1398.07 2176.41 1396.16 2164.36 1393.69 2152.87C1390.96 2142.87 1386.63 2134.25 1377.67 2128.59C1371.31 2126.07 1365.92 2125.85 1359.36 2127.55Z"   fill="#004990" >
</path>
<path d="M359.56 1654.35C362.237 1656.38 364.503 1658.59 366.746 1661.08C367.471 1661.87 368.197 1662.67 368.943 1663.48C375.235 1672.41 376.985 1681.22 376.333 1691.97C375.816 1694.59 375.102 1696.9 374.203 1699.42C368.049 1699.55 362.188 1699.24 356.094 1698.36C356.208 1697.61 356.322 1696.86 356.439 1696.09C357.53 1687.47 356.8 1681.59 351.5 1674.6C346.426 1669.52 341.498 1667.91 334.477 1667.41C320.443 1667.73 307.634 1675.91 297.73 1685.24C292.947 1690.33 290.306 1695.91 289.911 1702.93C290.265 1709.16 292.626 1713.72 296.44 1718.59C296.915 1719.22 297.39 1719.85 297.88 1720.5C299.601 1722.04 299.601 1722.04 302.078 1721.69C305.596 1720.51 308.511 1718.85 311.686 1716.93C312.825 1716.24 313.963 1715.56 315.136 1714.86C315.997 1714.33 316.858 1713.81 317.745 1713.27C316.5 1709.99 315.157 1707.04 313.284 1704.08C312.647 1702.9 312.01 1701.71 311.353 1700.49C312.79 1696.18 314.797 1695.55 318.677 1693.3C319.817 1692.62 320.956 1691.95 322.131 1691.25C325.202 1689.84 325.202 1689.84 328.397 1690.9C330.227 1693.47 330.227 1693.47 332.205 1696.83C332.915 1698.03 333.626 1699.23 334.358 1700.46C335.101 1701.73 335.844 1703.01 336.587 1704.28C337.341 1705.56 338.096 1706.84 338.852 1708.11C340.702 1711.25 342.543 1714.38 344.376 1717.53C341.483 1720.61 338.674 1722.85 335.022 1724.97C334.043 1725.54 333.064 1726.12 332.056 1726.71C331.024 1727.3 329.993 1727.9 328.93 1728.51C326.808 1729.74 324.685 1730.97 322.563 1732.2C321.546 1732.79 320.528 1733.38 319.479 1733.98C317.149 1735.35 314.863 1736.76 312.593 1738.23C304.11 1743.63 304.11 1743.63 299.503 1743.42C290.924 1741.26 282.542 1735.19 277.265 1728.18C270.126 1715.89 267.212 1703.37 270.737 1689.34C277.536 1672.04 291.839 1660.51 308.158 1652.56C325.099 1645.81 343.769 1643.74 359.56 1654.35Z"   fill="#004990" >
</path>
<path d="M2132.93 1284.09C2137.38 1287.82 2141.79 1291.53 2145.72 1295.81C2145.72 1296.51 2145.72 1297.21 2145.72 1297.94C2144.58 1298.92 2143.39 1299.84 2142.19 1300.73C2136.85 1305.17 2135.39 1309.8 2134.66 1316.57C2135.4 1323.45 2137.01 1328.05 2142.19 1332.81C2153.76 1341.99 2168.9 1345 2183.5 1343.45C2190.27 1342.03 2196.23 1339.71 2200.65 1334.18C2205.09 1327.36 2206.35 1321.31 2204.83 1313.14C2204.66 1312.34 2204.48 1311.54 2204.3 1310.72C2202.92 1310.62 2202.92 1310.62 2201.5 1310.52C2200.27 1310.43 2199.04 1310.34 2197.78 1310.25C2196.57 1310.16 2195.36 1310.08 2194.11 1309.99C2190.72 1309.68 2187.41 1309.19 2184.06 1308.59C2184 1309.38 2183.94 1310.18 2183.87 1311C2183.73 1312.57 2183.73 1312.57 2183.6 1314.18C2183.47 1315.73 2183.47 1315.73 2183.34 1317.32C2183.05 1319.84 2182.62 1322.13 2181.93 1324.56C2179.11 1324.23 2176.3 1323.9 2173.48 1323.56C2172.67 1323.47 2171.87 1323.38 2171.04 1323.28C2165.01 1322.55 2165.01 1322.55 2163.82 1321.37C2163.91 1310.32 2166.28 1299.22 2168.09 1288.35C2177.76 1289.06 2187.4 1290.04 2197.01 1291.31C2198.65 1291.51 2200.28 1291.71 2201.91 1291.88C2215.49 1293.37 2215.49 1293.37 2219.3 1296.64C2220.72 1298.82 2221.62 1300.79 2222.41 1303.26C2222.81 1304.25 2223.22 1305.23 2223.63 1306.24C2227.12 1319.35 2226.27 1331.29 2220.02 1343.46C2213.66 1353.98 2204.57 1359.44 2192.91 1363.05C2174.54 1367.32 2153.39 1364.08 2136.93 1355.19C2126.31 1348.4 2118.64 1339.85 2115.36 1327.58C2113.28 1315.96 2114.43 1305.27 2120.8 1295.23C2124.32 1290.45 2127.76 1286.99 2132.93 1284.09Z"   fill="#004990" >
</path>
<path d="M407.226 1730.31C411.249 1731.92 413.372 1734.29 416.081 1737.63C416.846 1738.55 417.611 1739.47 418.399 1740.41C420.009 1743.08 420.009 1743.08 419.763 1745.21C418.359 1748.87 415.051 1750.83 412.02 1753.14C411.31 1753.69 410.6 1754.24 409.869 1754.81C407.577 1756.6 405.273 1758.36 402.965 1760.12C402.21 1760.7 401.454 1761.28 400.676 1761.88C396.889 1764.79 393.095 1767.68 389.296 1770.57C382.787 1775.54 376.358 1780.6 369.943 1785.68C368.987 1786.42 368.031 1787.15 367.046 1787.9C364.852 1789.75 363.302 1791.39 361.687 1793.74C361.253 1794.35 360.819 1794.97 360.372 1795.6C357.894 1799.71 357.835 1803.36 358.225 1808.05C359.754 1812.31 361.714 1814.93 365.349 1817.63C373.238 1820.01 379.287 1817.52 386.361 1813.88C390.62 1811.45 394.37 1808.53 398.172 1805.45C399.839 1804.13 401.506 1802.8 403.173 1801.48C404.439 1800.47 404.439 1800.47 405.729 1799.44C409.885 1796.13 414.082 1792.87 418.278 1789.61C419.071 1788.99 419.864 1788.38 420.681 1787.74C427.145 1782.71 433.671 1777.78 440.249 1772.9C444.383 1774.52 446.363 1777.01 449.038 1780.49C449.79 1781.46 450.542 1782.43 451.318 1783.43C451.883 1784.17 452.449 1784.92 453.033 1785.68C451.391 1790 448.701 1791.9 445.043 1794.6C443.784 1795.54 442.526 1796.49 441.269 1797.43C440.59 1797.94 439.911 1798.44 439.211 1798.97C436.142 1801.28 433.117 1803.65 430.09 1806.02C426.031 1809.19 421.955 1812.35 417.879 1815.5C417.115 1816.09 416.352 1816.68 415.565 1817.29C384.548 1841.25 384.548 1841.25 363.551 1838.93C354.04 1836.48 346.938 1830.02 341.847 1821.82C337.141 1813.31 335.235 1805.41 337.577 1795.75C344.013 1777.87 359.448 1766.71 374.145 1755.88C378.198 1752.88 382.171 1749.8 386.121 1746.68C393.107 1741.16 400.155 1735.72 407.226 1730.31Z"   fill="#004990" >
</path>
<path d="M1484.19 2076.41C1486.67 2078.89 1487.09 2080.46 1488.08 2083.79C1488.41 2084.89 1488.74 2085.99 1489.08 2087.11C1489.61 2088.9 1489.61 2088.9 1490.15 2090.73C1490.52 2091.96 1490.88 2093.2 1491.26 2094.47C1492.04 2097.09 1492.82 2099.71 1493.59 2102.34C1494.76 2106.3 1495.95 2110.26 1497.13 2114.21C1509.95 2157.3 1509.95 2157.3 1503.37 2175.45C1498.59 2184.22 1491.54 2189.09 1482.13 2191.9C1472.91 2194.4 1464.18 2194.51 1455.43 2190.36C1439.75 2179.4 1434.07 2161.49 1428.81 2143.9C1428.26 2142.07 1428.26 2142.07 1427.69 2140.19C1426.92 2137.63 1426.15 2135.07 1425.38 2132.5C1424.2 2128.57 1423.01 2124.65 1421.82 2120.72C1421.06 2118.22 1420.31 2115.72 1419.56 2113.22C1419.2 2112.05 1418.85 2110.87 1418.48 2109.67C1417.99 2108.03 1417.99 2108.03 1417.5 2106.37C1417.21 2105.41 1416.93 2104.46 1416.63 2103.48C1416.02 2100.91 1416.02 2100.91 1416.02 2096.65C1418.41 2095.93 1420.81 2095.22 1423.21 2094.52C1424.54 2094.12 1425.88 2093.73 1427.25 2093.32C1430.93 2092.39 1430.93 2092.39 1435.19 2092.39C1435.51 2093.48 1435.51 2093.48 1435.83 2094.59C1437.84 2101.52 1439.86 2108.44 1441.89 2115.36C1442.94 2118.91 1443.98 2122.47 1445 2126.03C1450.86 2152.5 1450.86 2152.5 1467.15 2172.26C1471.48 2173.27 1475.09 2172.48 1479.2 2170.93C1483.21 2168.32 1484.82 2166.12 1486.33 2161.61C1486.93 2154.28 1485.89 2147.74 1483.93 2140.71C1483.66 2139.71 1483.39 2138.72 1483.12 2137.7C1479.47 2124.38 1475.4 2111.17 1471.37 2097.96C1471.1 2097.05 1470.82 2096.13 1470.53 2095.19C1470 2093.45 1469.47 2091.71 1468.94 2089.98C1467.15 2084.11 1467.15 2084.11 1467.15 2081.74C1472.78 2079.98 1478.4 2078.22 1484.19 2076.41Z"   fill="#004990" >
</path>
<path d="M1881.6 1817.8C1884.84 1819.2 1886.83 1821.57 1889.26 1824.09C1890.21 1825.07 1891.16 1826.05 1892.14 1827.05C1892.86 1827.81 1893.57 1828.57 1894.32 1829.35C1889.44 1835.14 1884.35 1840.69 1879.14 1846.19C1878.37 1847 1877.6 1847.81 1876.81 1848.65C1871.28 1854.51 1871.28 1854.51 1868.75 1857.03C1873.67 1861.95 1878.59 1866.87 1883.66 1871.94C1889.56 1866.94 1889.56 1866.94 1895.11 1861.67C1895.76 1861.02 1896.41 1860.36 1897.08 1859.69C1897.73 1859.03 1898.37 1858.38 1899.04 1857.7C1899.72 1857.02 1900.4 1856.34 1901.1 1855.63C1902.74 1853.97 1904.39 1852.31 1906.03 1850.64C1909.9 1852.45 1912.37 1854.63 1915.35 1857.7C1916.21 1858.57 1917.06 1859.44 1917.93 1860.34C1918.58 1861 1919.22 1861.67 1919.88 1862.36C1918.36 1865.83 1916.48 1868.16 1913.82 1870.85C1913.05 1871.63 1912.29 1872.41 1911.51 1873.22C1909.9 1874.86 1908.28 1876.49 1906.66 1878.12C1905.9 1878.9 1905.14 1879.69 1904.36 1880.5C1903.66 1881.21 1902.96 1881.91 1902.24 1882.64C1900.29 1884.86 1900.29 1884.86 1900.71 1888.98C1902.7 1891.14 1904.62 1893 1906.83 1894.91C1907.41 1895.42 1907.98 1895.93 1908.57 1896.46C1911.54 1899.09 1914.57 1901.51 1917.75 1903.89C1926.54 1895.11 1935.33 1886.32 1944.38 1877.27C1946.84 1879.38 1949.3 1881.49 1951.84 1883.66C1953.97 1885.44 1956.1 1887.21 1958.23 1888.98C1956.65 1892.7 1954.54 1894.99 1951.64 1897.77C1948.65 1900.63 1945.85 1903.56 1943.16 1906.7C1938.36 1912.25 1933.15 1917.37 1927.94 1922.53C1926.96 1923.51 1925.97 1924.48 1924.96 1925.49C1922.56 1927.88 1920.16 1930.26 1917.75 1932.65C1912.84 1928.49 1908.02 1924.25 1903.3 1919.87C1902.64 1919.25 1901.98 1918.63 1901.3 1918C1893.73 1910.9 1886.44 1903.53 1879.15 1896.15C1874.43 1891.38 1869.66 1886.79 1864.56 1882.43C1859.9 1878.28 1855.57 1873.78 1851.17 1869.35C1850.2 1868.37 1849.22 1867.38 1848.21 1866.37C1845.82 1863.97 1843.44 1861.57 1841.05 1859.16C1842.97 1855.03 1845.42 1852.49 1848.71 1849.31C1852.12 1846.02 1855.37 1842.7 1858.47 1839.12C1862.52 1834.44 1866.75 1829.97 1871.08 1825.55C1871.82 1824.77 1872.57 1823.99 1873.33 1823.18C1874.06 1822.44 1874.78 1821.71 1875.52 1820.96C1876.16 1820.29 1876.81 1819.62 1877.47 1818.94C1879.4 1817.63 1879.4 1817.63 1881.6 1817.8Z"   fill="#004990" >
</path>
<path d="M612.82 1939.03C618.016 1940.75 622.019 1943.72 626.402 1946.89C628.012 1948.04 629.622 1949.19 631.233 1950.34C632.058 1950.93 632.884 1951.53 633.734 1952.14C637.823 1955.07 641.933 1957.97 646.042 1960.87C646.781 1961.39 647.52 1961.91 648.282 1962.45C652.398 1965.36 656.547 1968.21 660.756 1970.98C659.028 1974.8 656.716 1978 654.231 1981.37C653.46 1982.42 652.688 1983.46 651.893 1984.54C651.302 1985.34 650.712 1986.14 650.103 1986.96C647.238 1985.58 644.614 1984.08 641.998 1982.28C641.285 1981.79 640.573 1981.3 639.839 1980.8C639.095 1980.28 638.352 1979.77 637.587 1979.24C636.826 1978.71 636.065 1978.19 635.281 1977.65C631.322 1974.91 627.422 1972.12 623.605 1969.19C620.681 1966.51 620.681 1966.51 618.146 1966.72C616.739 1968.34 616.739 1968.34 615.375 1970.45C614.853 1971.22 614.331 1971.99 613.793 1972.78C613.252 1973.59 612.711 1974.41 612.154 1975.24C611.605 1976.06 611.055 1976.87 610.49 1977.71C609.129 1979.72 607.776 1981.74 606.428 1983.76C614.394 1990.09 622.625 1996 630.929 2001.87C630.289 2006.13 628.089 2008.85 625.536 2012.25C624.755 2013.3 623.973 2014.35 623.168 2015.43C622.566 2016.22 621.963 2017.02 621.342 2017.84C615.806 2016.08 611.48 2012.69 606.828 2009.32C605.216 2008.17 603.604 2007.01 601.992 2005.86C600.93 2005.09 600.93 2005.09 599.847 2004.31C598.157 2003.11 596.436 2001.95 594.71 2000.8C592.619 2003.55 590.535 2006.3 588.452 2009.05C587.86 2009.83 587.268 2010.61 586.659 2011.41C586.089 2012.16 585.519 2012.92 584.932 2013.7C584.145 2014.73 584.145 2014.73 583.343 2015.79C581.938 2017.82 580.845 2019.87 579.797 2022.1C580.633 2022.67 580.633 2022.67 581.486 2023.25C601.937 2037.21 601.937 2037.21 610.689 2043.4C609.211 2047.54 607.264 2050.82 604.697 2054.38C604.024 2055.32 603.351 2056.26 602.658 2057.23C602.145 2057.94 601.631 2058.65 601.102 2059.37C597.638 2058.71 595.374 2057.51 592.513 2055.47C591.255 2054.58 591.255 2054.58 589.97 2053.67C589.074 2053.03 588.177 2052.38 587.254 2051.72C585.348 2050.36 583.442 2049.01 581.536 2047.65C580.554 2046.96 579.571 2046.25 578.558 2045.53C575.547 2043.41 572.514 2041.32 569.469 2039.24C568.5 2038.58 567.53 2037.91 566.531 2037.23C564.663 2035.95 562.791 2034.68 560.914 2033.41C559.645 2032.54 559.645 2032.54 558.351 2031.64C557.605 2031.14 556.859 2030.63 556.09 2030.11C554.034 2028.32 553.143 2026.72 552.1 2024.23C553.073 2022.93 553.073 2022.93 554.065 2021.6C561.819 2011.14 569.265 2000.48 576.68 1989.79C581.77 1982.44 586.924 1975.15 592.088 1967.86C593.746 1965.52 595.398 1963.17 597.049 1960.82C597.899 1959.61 597.899 1959.61 598.767 1958.38C599.836 1956.86 600.905 1955.34 601.973 1953.82C605.495 1948.82 609.125 1943.91 612.82 1939.03Z"   fill="#004990" >
</path>
<path d="M132.392 1293.68C145.596 1295.32 158.801 1296.97 172.006 1298.62C178.138 1299.39 184.269 1300.15 190.401 1300.92C196.321 1301.65 202.24 1302.39 208.159 1303.13C210.415 1303.41 212.672 1303.7 214.928 1303.98C218.093 1304.37 221.257 1304.77 224.421 1305.16C225.351 1305.28 226.28 1305.39 227.238 1305.51C232.204 1306.14 237.16 1306.8 242.112 1307.52C242.65 1310.43 243.181 1313.33 243.71 1316.24C243.862 1317.06 244.014 1317.88 244.172 1318.72C244.316 1319.52 244.46 1320.32 244.609 1321.15C244.809 1322.24 244.809 1322.24 245.015 1323.36C245.344 1325.91 245.355 1328.38 245.308 1330.95C243.279 1331.85 241.251 1332.75 239.223 1333.65C237.374 1334.48 235.524 1335.3 233.674 1336.12C228.409 1338.46 223.143 1340.8 217.876 1343.14C207.602 1347.7 197.331 1352.26 187.074 1356.86C182.685 1358.82 178.296 1360.79 173.905 1362.75C171.8 1363.69 169.696 1364.63 167.593 1365.58C164.649 1366.9 161.703 1368.22 158.757 1369.53C157.887 1369.93 157.019 1370.32 156.123 1370.72C152.137 1372.5 148.474 1374.02 144.109 1374.61C142.136 1367.64 141.593 1361.85 140.914 1354.38C148.999 1351.22 157.084 1348.05 165.414 1344.8C164.798 1335.45 163.743 1326.35 162.219 1317.11C153.079 1316.05 143.939 1315 134.522 1313.91C132.125 1299.53 132.125 1299.53 132.392 1293.68ZM181.393 1318.17C181.544 1320.57 181.7 1322.96 181.859 1325.36C181.946 1326.69 182.032 1328.03 182.121 1329.4C182.379 1332.21 182.717 1334.66 183.524 1337.34C188.295 1336.59 192.602 1334.93 197.06 1333.14C198.219 1332.68 198.219 1332.68 199.401 1332.22C201.856 1331.24 204.308 1330.27 206.759 1329.29C208.428 1328.62 210.098 1327.96 211.767 1327.3C215.848 1325.68 219.926 1324.06 224.003 1322.43C224.003 1322.08 224.003 1321.73 224.003 1321.37C218.089 1320.74 212.174 1320.11 206.258 1319.5C204.233 1319.29 202.209 1319.07 200.185 1318.86C193.902 1318.23 187.706 1318.05 181.393 1318.17Z"   fill="#004990" >
</path>
<path d="M777.11 2034.12C783.998 2038.89 790.456 2045.88 792.847 2054.05C792.805 2056.82 792.805 2056.82 791.782 2059.37C789.227 2061.33 789.227 2061.33 786.056 2062.97C784.495 2063.8 784.495 2063.8 782.902 2064.66C780.064 2065.76 780.064 2065.76 776.868 2064.7C775.391 2062.8 775.391 2062.8 774.005 2060.5C773.54 2059.75 773.074 2058.99 772.595 2058.21C771.542 2056.18 771.542 2056.18 771.542 2054.05C770.133 2053.32 768.709 2052.61 767.281 2051.92C766.117 2051.33 764.952 2050.73 763.752 2050.12C759.294 2048.53 756.905 2048.57 752.367 2049.79C749.648 2051.51 749.238 2052.79 748.173 2055.85C748.019 2063.99 753.408 2069.28 758.659 2074.97C766.415 2083.69 772.335 2092.51 771.912 2104.48C770.65 2114.08 766.308 2122.74 759.046 2129.16C750.55 2135.61 741.441 2135.96 731.062 2134.98C718.45 2131.9 709.319 2123.52 702.467 2112.77C700.198 2108.57 699.105 2105.75 699.105 2100.91C701.342 2099.66 703.584 2098.41 705.829 2097.18C706.463 2096.82 707.097 2096.47 707.75 2096.1C710.778 2094.44 712.641 2093.45 716.149 2093.45C716.472 2094.15 716.794 2094.84 717.127 2095.56C721.061 2103.76 724.526 2110.15 733.139 2114.01C736.572 2115.17 739.207 2115.29 742.78 2114.75C745.713 2112.84 747.602 2111.5 749.172 2108.36C750.192 2101.22 746.256 2096.67 742.161 2091.2C739.779 2088.15 737.374 2085.12 734.941 2082.12C727.87 2073.12 725.755 2065.49 726.801 2054.05C728.099 2045.42 733.223 2039.54 739.584 2033.81C751.598 2025.81 764.95 2027.1 777.11 2034.12Z"   fill="#004990" >
</path>
<path d="M1559.83 2058.31C1560.35 2058.84 1560.35 2058.84 1560.89 2059.37C1560.75 2065.3 1559.88 2070.88 1557.7 2076.41C1556.91 2076.24 1556.11 2076.06 1555.3 2075.88C1545.87 2074.62 1538.14 2074.2 1530.2 2079.94C1528.28 2082.67 1528 2084.82 1527.87 2088.13C1528.63 2091.15 1528.63 2091.15 1531.07 2093.45C1539.14 2097.35 1547.88 2097.39 1556.66 2097.8C1566.57 2098.43 1575.83 2100.53 1582.69 2108.2C1589.44 2117.65 1591.32 2127.82 1589.65 2139.25C1586.83 2148.41 1581.98 2154.72 1573.68 2159.48C1560.14 2165.96 1548.12 2166.23 1533.71 2161.89C1531.07 2160.54 1531.07 2160.54 1530.02 2158.75C1529.99 2155.11 1531 2152.03 1532.06 2148.56C1532.47 2147.22 1532.87 2145.87 1533.29 2144.49C1533.61 2143.46 1533.93 2142.43 1534.26 2141.38C1534.84 2141.52 1535.42 2141.66 1536.02 2141.8C1538.62 2142.41 1541.23 2142.97 1543.85 2143.51C1544.64 2143.67 1545.43 2143.83 1546.25 2144C1552.71 2145.03 1558.1 2144.02 1564.09 2141.38C1566.67 2139.29 1567.95 2137.91 1569.41 2134.99C1569.85 2130.07 1569.35 2127.15 1566.22 2123.27C1562.6 2121.52 1559.49 2120.84 1555.5 2120.62C1554.48 2120.55 1553.46 2120.48 1552.41 2120.41C1551.35 2120.35 1550.28 2120.28 1549.17 2120.21C1524.79 2118.32 1524.79 2118.32 1515.78 2109.49C1509.5 2101.66 1506.74 2092.8 1507.63 2082.8C1509 2073.64 1513.48 2067.51 1520.41 2061.5C1532.53 2053.68 1546.49 2052.91 1559.83 2058.31Z"   fill="#004990" >
</path>
<path d="M545.709 1884.72C550.003 1886.17 552.73 1888.09 556.028 1891.18C559.146 1894.16 559.146 1894.16 562.753 1896.44C561.278 1901.21 559.394 1905.54 557.154 1910C556.81 1910.69 556.467 1911.38 556.114 1912.08C554.988 1914.33 553.856 1916.58 552.724 1918.83C551.939 1920.39 551.154 1921.96 550.369 1923.53C548.31 1927.64 546.246 1931.74 544.18 1935.85C542.071 1940.04 539.966 1944.24 537.861 1948.44C533.735 1956.67 529.604 1964.89 525.469 1973.11C526.404 1972.39 527.338 1971.68 528.301 1970.93C529.548 1969.97 530.795 1969.02 532.043 1968.06C532.656 1967.58 533.27 1967.11 533.902 1966.63C539.333 1962.45 544.782 1958.29 550.236 1954.14C556.538 1949.35 562.835 1944.55 569.115 1939.73C572.019 1937.5 574.931 1935.29 577.844 1933.07C579.695 1931.66 581.534 1930.23 583.371 1928.79C584.411 1928 585.45 1927.21 586.521 1926.39C587.396 1925.71 588.271 1925.03 589.172 1924.33C591.515 1923.06 591.515 1923.06 593.574 1923.08C596.766 1924.6 599.208 1926.71 601.901 1928.98C602.95 1929.86 603.999 1930.74 605.08 1931.65C605.876 1932.33 606.673 1933.01 607.493 1933.71C606.086 1936.97 604.796 1938.71 601.867 1940.69C601.156 1941.19 600.445 1941.68 599.712 1942.18C598.94 1942.7 598.169 1943.22 597.373 1943.76C595.719 1944.9 594.066 1946.04 592.413 1947.18C591.559 1947.77 590.705 1948.36 589.825 1948.96C585.729 1951.81 581.699 1954.74 577.666 1957.67C570.748 1962.69 563.788 1967.64 556.798 1972.55C551.139 1976.53 545.523 1980.57 539.917 1984.63C539.109 1985.21 538.302 1985.79 537.471 1986.39C534.091 1988.82 530.729 1991.27 527.408 1993.78C526.483 1994.48 525.557 1995.17 524.604 1995.88C523.85 1996.46 523.096 1997.04 522.319 1997.63C520.143 1998.67 520.143 1998.67 517.659 1998.66C513.64 1997.17 510.752 1994.82 507.493 1992.08C506.525 1991.33 506.525 1991.33 505.537 1990.57C503.706 1989.04 503.706 1989.04 500.968 1985.89C501.241 1980.79 503.106 1976.76 505.304 1972.19C505.638 1971.49 505.971 1970.8 506.314 1970.08C507.035 1968.57 507.758 1967.06 508.485 1965.56C510.44 1961.5 512.369 1957.44 514.301 1953.37C514.698 1952.54 515.096 1951.7 515.506 1950.84C519.592 1942.25 523.543 1933.59 527.466 1924.92C527.961 1923.83 527.961 1923.83 528.465 1922.72C530.064 1919.19 531.662 1915.66 533.258 1912.13C535.956 1906.16 538.669 1900.2 541.381 1894.24C542.234 1892.36 543.087 1890.49 543.94 1888.61C544.53 1887.32 545.119 1886.02 545.709 1884.72Z"   fill="#004990" >
</path>
<path d="M1943.32 1761.19C1944.72 1766.81 1946.13 1772.43 1947.58 1778.23C1945.4 1778.8 1943.23 1779.37 1940.99 1779.96C1933.59 1782.22 1931 1784.27 1927.24 1790.93C1924.82 1796.45 1925.9 1802.44 1927.8 1807.98C1933.31 1820.43 1945.78 1830.94 1958.22 1836.06C1965.15 1838.45 1972 1839.22 1978.8 1836.07C1983.73 1833.27 1986.25 1830.19 1988.32 1824.89C1989.3 1819.92 1989.31 1815.22 1989.12 1810.18C1991.94 1810.33 1994.76 1810.48 1997.58 1810.64C1998.38 1810.68 1999.19 1810.73 2000.02 1810.77C2006.05 1811.12 2006.05 1811.12 2007.23 1812.31C2009.17 1823.11 2008.23 1833.96 2001.91 1843.19C1994.89 1851.88 1986.41 1857.42 1975.28 1859.16C1959.11 1860.49 1943.62 1854.89 1931.2 1844.59C1927.99 1841.77 1924.99 1838.79 1922.01 1835.74C1920.91 1834.65 1920.91 1834.65 1919.79 1833.54C1910.17 1823.44 1905.56 1810.65 1905.65 1796.91C1905.94 1785.61 1909.47 1777.96 1917.36 1769.81C1924.82 1763.2 1933.49 1761.19 1943.32 1761.19Z"   fill="#004990" >
</path>
<path d="M1107.1 2123.27C1126.08 2124.33 1145.06 2125.38 1164.62 2126.47C1164.27 2132.79 1163.92 2139.12 1163.55 2145.63C1158.96 2145.48 1154.37 2145.33 1149.77 2145.17C1148.48 2145.13 1147.19 2145.09 1145.86 2145.04C1143.96 2144.98 1143.96 2144.98 1142.02 2144.91C1140.87 2144.87 1139.71 2144.83 1138.52 2144.79C1134.07 2144.53 1129.64 2144 1125.21 2143.5C1124.85 2152.29 1124.5 2161.08 1124.14 2170.13C1127.01 2170.1 1127.01 2170.1 1129.93 2170.06C1138.68 2170.05 1147.37 2170.61 1156.1 2171.19C1156.13 2173.79 1156.15 2176.39 1156.16 2178.98C1156.17 2179.72 1156.18 2180.45 1156.19 2181.21C1156.21 2184.56 1156.1 2187.16 1155.03 2190.36C1144.7 2190.57 1134.44 2189.93 1124.14 2189.3C1122.8 2193.32 1122.71 2197.22 1122.5 2201.42C1122.44 2202.73 1122.44 2202.73 1122.37 2204.06C1122.22 2206.84 1122.08 2209.62 1121.94 2212.39C1121.85 2214.28 1121.75 2216.16 1121.65 2218.04C1121.41 2222.66 1121.18 2227.28 1120.94 2231.9C1114.27 2231.54 1107.59 2231.19 1100.7 2230.83C1101.81 2206.06 1102.99 2181.29 1104.29 2156.53C1104.43 2153.83 1104.57 2151.14 1104.71 2148.44C1104.9 2144.64 1105.1 2140.84 1105.3 2137.04C1105.39 2135.32 1105.39 2135.32 1105.48 2133.56C1105.56 2131.99 1105.56 2131.99 1105.65 2130.39C1105.7 2129.47 1105.75 2128.56 1105.8 2127.61C1106.03 2125.4 1106.03 2125.4 1107.1 2123.27Z"   fill="#004990" >
</path>
<path d="M1759.03 1930.52C1759.32 1931.73 1759.61 1932.95 1759.91 1934.2C1760.1 1935.01 1760.29 1935.82 1760.49 1936.65C1760.93 1938.49 1761.36 1940.32 1761.8 1942.15C1763.01 1947.24 1764.22 1952.33 1765.45 1957.42C1769.68 1974.94 1769.68 1974.94 1771.33 1983.47C1774.18 1997.91 1778.84 2007.77 1788.31 2019.08C1790.55 2021.8 1792.53 2024.65 1794.52 2027.56C1795.08 2028.37 1795.65 2029.19 1796.23 2030.03C1796.8 2030.85 1796.8 2030.85 1797.38 2031.69C1795.75 2036.25 1792.7 2037.93 1788.72 2040.47C1787.56 2041.22 1786.39 2041.98 1785.19 2042.75C1783.84 2043.6 1783.84 2043.6 1782.46 2044.46C1777.85 2040.18 1774.37 2035.47 1770.81 2030.29C1769.2 2027.96 1767.59 2025.64 1765.96 2023.33C1764.9 2021.82 1763.86 2020.3 1762.84 2018.77C1758.98 2013.21 1754.84 2009.99 1749.04 2006.59C1747.24 2005.5 1745.44 2004.4 1743.65 2003.31C1742.69 2002.73 1741.74 2002.16 1740.75 2001.57C1735.33 1998.29 1729.98 1994.91 1724.61 1991.55C1723.53 1990.87 1722.44 1990.2 1721.33 1989.5C1713.25 1984.46 1705.23 1979.36 1697.24 1974.18C1700.62 1970.71 1704 1967.54 1707.9 1964.66C1708.78 1963.99 1709.65 1963.32 1710.56 1962.63C1713.22 1961.4 1713.22 1961.4 1715.77 1961.94C1719.29 1963.95 1722.51 1966.27 1725.74 1968.72C1727.15 1969.77 1728.55 1970.82 1729.96 1971.87C1730.7 1972.41 1731.44 1972.96 1732.2 1973.53C1736.24 1976.51 1740.34 1979.4 1744.45 1982.3C1745.23 1982.85 1746.01 1983.41 1746.82 1983.98C1747.55 1984.49 1748.28 1985.01 1749.03 1985.53C1749.68 1985.99 1750.32 1986.45 1750.99 1986.91C1752.67 1988.1 1752.67 1988.1 1754.77 1989.09C1754.38 1987.75 1753.98 1986.42 1753.58 1985.05C1752.12 1980.11 1750.68 1975.16 1749.25 1970.21C1748.62 1968.07 1748 1965.93 1747.37 1963.79C1746.46 1960.72 1745.57 1957.64 1744.68 1954.56C1744.39 1953.6 1744.11 1952.65 1743.81 1951.66C1743.56 1950.77 1743.3 1949.87 1743.04 1948.95C1742.81 1948.16 1742.58 1947.38 1742.34 1946.57C1741.93 1944.01 1742.1 1942.51 1743.05 1940.1C1745.31 1938.24 1747.48 1936.64 1749.91 1935.04C1750.55 1934.6 1751.18 1934.17 1751.84 1933.71C1756.59 1930.52 1756.59 1930.52 1759.03 1930.52Z"   fill="#004990" >
</path>
<path d="M2126.54 1203.16C2130.57 1203.96 2132.85 1204.52 2136.33 1206.28C2137.17 1206.7 2138.01 1207.12 2138.88 1207.56C2139.78 1208.02 2140.68 1208.48 2141.61 1208.96C2142.56 1209.43 2143.51 1209.91 2144.48 1210.4C2147.52 1211.93 2150.54 1213.47 2153.57 1215C2155.57 1216.01 2157.56 1217.02 2159.56 1218.03C2160.53 1218.53 2161.51 1219.02 2162.51 1219.53C2165.43 1220.99 2168.34 1222.45 2171.26 1223.9C2174.5 1225.51 2177.71 1227.17 2180.88 1228.9C2191.51 1234.54 2201.43 1235.5 2213.29 1236.1C2215.12 1236.22 2216.94 1236.34 2218.77 1236.46C2223.18 1236.76 2227.59 1237 2232 1237.24C2231.65 1243.56 2231.3 1249.89 2230.94 1256.4C2227.74 1256.44 2227.74 1256.44 2224.48 1256.47C2223.32 1256.49 2223.32 1256.49 2222.14 1256.51C2217.99 1256.53 2213.99 1256.33 2209.88 1255.77C2191.09 1253.55 2175.59 1259.26 2158.28 1265.63C2154.49 1267.02 2150.68 1268.36 2146.88 1269.7C2142.61 1271.21 2138.35 1272.72 2134.09 1274.27C2132.23 1274.94 2132.23 1274.94 2130.33 1275.63C2128.68 1276.23 2128.68 1276.23 2127.01 1276.85C2124.41 1277.7 2124.41 1277.7 2122.28 1277.7C2122.17 1270.84 2122.32 1264.26 2123.34 1257.47C2132.48 1253.75 2142.04 1251.37 2151.54 1248.77C2153.82 1248.14 2156.1 1247.51 2158.38 1246.88C2159.73 1246.51 2161.08 1246.14 2162.48 1245.76C2165.28 1244.9 2167.67 1243.99 2170.22 1242.56C2169.28 1242.17 2168.34 1241.78 2167.37 1241.37C2163.83 1239.9 2160.29 1238.42 2156.75 1236.94C2155.23 1236.3 2153.71 1235.67 2152.19 1235.03C2143.21 1231.29 2134.3 1227.47 2125.48 1223.39C2125.83 1216.71 2126.18 1210.04 2126.54 1203.16Z"   fill="#004990" >
</path>
<path d="M1833.65 1866.85C1836.87 1868.14 1838.55 1870.47 1840.79 1873.07C1841.64 1874.05 1842.49 1875.03 1843.37 1876.04C1844.01 1876.8 1844.65 1877.55 1845.31 1878.33C1843.58 1883.06 1839.92 1885.85 1836.26 1889.12C1835.01 1890.25 1833.75 1891.38 1832.5 1892.52C1831.45 1893.46 1830.41 1894.4 1829.34 1895.37C1828.63 1896.07 1827.93 1896.78 1827.2 1897.5C1827.89 1898.25 1828.57 1899 1829.27 1899.76C1834.04 1905 1838.79 1910.24 1843.43 1915.59C1845.58 1918.04 1847.78 1920.45 1849.97 1922.86C1853.25 1926.48 1856.38 1930.17 1859.43 1933.98C1863.86 1939.46 1868.59 1944.62 1873.43 1949.74C1875.08 1951.49 1876.71 1953.25 1878.34 1955.01C1878.88 1955.57 1879.42 1956.14 1879.97 1956.72C1883.61 1960.72 1883.61 1960.72 1883.83 1963.58C1882 1966.68 1879.49 1968.91 1876.81 1971.25C1876.27 1971.74 1875.73 1972.23 1875.18 1972.73C1871.17 1976.31 1871.17 1976.31 1868.75 1976.31C1867.36 1974.97 1867.36 1974.97 1865.69 1972.98C1865.03 1972.2 1864.36 1971.43 1863.68 1970.63C1862.89 1969.69 1862.11 1968.75 1861.29 1967.79C1859.26 1965.39 1857.21 1962.99 1855.17 1960.6C1854.62 1959.96 1854.08 1959.32 1853.51 1958.66C1848.93 1953.31 1844.19 1948.12 1839.41 1942.94C1836.62 1939.91 1833.89 1936.82 1831.19 1933.7C1828.2 1930.29 1825.15 1926.93 1822.1 1923.57C1819.29 1920.41 1816.58 1917.17 1813.9 1913.9C1812.27 1912.05 1812.27 1912.05 1809.1 1912.41C1807.18 1913.79 1807.18 1913.79 1805.29 1915.67C1804.58 1916.34 1803.87 1917.02 1803.13 1917.71C1802.4 1918.42 1801.66 1919.13 1800.91 1919.87C1800.16 1920.58 1799.41 1921.29 1798.64 1922.02C1796.79 1923.78 1794.95 1925.55 1793.12 1927.32C1788.99 1925.95 1787.63 1923.92 1784.86 1920.6C1783.55 1919.06 1783.55 1919.06 1782.21 1917.48C1780.33 1914.54 1780.33 1914.54 1780.27 1912.29C1781.85 1909.48 1783.83 1908.04 1786.39 1906.09C1791.4 1902.14 1796.12 1898.01 1800.77 1893.64C1802.05 1892.44 1803.33 1891.24 1804.61 1890.04C1805.51 1889.21 1805.51 1889.21 1806.42 1888.35C1808.96 1885.98 1811.56 1883.68 1814.21 1881.42C1816.24 1879.67 1818.24 1877.88 1820.23 1876.07C1821.58 1874.87 1822.93 1873.67 1824.28 1872.48C1824.92 1871.89 1825.56 1871.3 1826.22 1870.69C1830.91 1866.56 1830.91 1866.56 1833.65 1866.85Z"   fill="#004990" >
</path>
<path d="M1629.07 2014.65C1630.32 2017.08 1631.56 2019.52 1632.8 2021.97C1633.15 2022.66 1633.51 2023.35 1633.87 2024.07C1636.53 2029.31 1636.53 2029.31 1636.53 2031.69C1625.98 2036.96 1625.98 2036.96 1615.22 2042.33C1615.22 2045.79 1615.82 2047.08 1617.37 2050.11C1617.84 2051.03 1618.31 2051.95 1618.79 2052.89C1619.3 2053.89 1619.82 2054.89 1620.35 2055.91C1621.43 2058.05 1622.52 2060.19 1623.6 2062.33C1624.16 2063.43 1624.72 2064.53 1625.29 2065.66C1628.34 2071.76 1631.24 2077.93 1634.16 2084.09C1636.78 2089.61 1639.47 2095.09 1642.27 2100.53C1642.87 2101.69 1643.46 2102.86 1644.08 2104.06C1645.24 2106.31 1646.4 2108.55 1647.58 2110.79C1648.1 2111.81 1648.62 2112.82 1649.16 2113.86C1649.63 2114.76 1650.09 2115.65 1650.57 2116.57C1651.57 2119.39 1651.63 2120.57 1650.37 2123.27C1647.68 2124.8 1645.15 2126.06 1642.32 2127.26C1641.56 2127.6 1640.8 2127.94 1640.02 2128.28C1638.15 2129.11 1636.27 2129.92 1634.39 2130.73C1626.57 2116.32 1619.37 2101.63 1612.25 2086.87C1611.47 2085.27 1610.7 2083.67 1609.93 2082.07C1609.55 2081.3 1609.18 2080.52 1608.79 2079.72C1605.46 2072.83 1602.04 2065.97 1598.53 2059.16C1596.05 2054.27 1596.05 2054.27 1596.05 2051.92C1595.38 2052.24 1594.71 2052.56 1594.03 2052.9C1591.02 2054.35 1588.01 2055.8 1584.99 2057.24C1583.94 2057.75 1582.9 2058.26 1581.81 2058.78C1580.31 2059.5 1580.31 2059.5 1578.78 2060.24C1577.85 2060.69 1576.93 2061.13 1575.97 2061.59C1573.68 2062.57 1573.68 2062.57 1571.55 2062.57C1570.27 2060.16 1569 2057.74 1567.75 2055.31C1567.39 2054.63 1567.02 2053.94 1566.65 2053.24C1565.71 2051.42 1564.89 2049.54 1564.09 2047.66C1565.15 2044.46 1565.15 2044.46 1568.78 2042.4C1570.41 2041.61 1572.04 2040.83 1573.67 2040.06C1574.55 2039.64 1575.42 2039.22 1576.32 2038.78C1579.14 2037.43 1581.97 2036.09 1584.79 2034.75C1587.54 2033.43 1590.29 2032.11 1593.04 2030.79C1594.86 2029.92 1596.69 2029.05 1598.52 2028.17C1603.11 2025.98 1607.69 2023.74 1612.23 2021.44C1613.11 2020.99 1613.99 2020.54 1614.9 2020.08C1616.56 2019.23 1618.23 2018.38 1619.89 2017.52C1625.52 2014.65 1625.52 2014.65 1629.07 2014.65Z"   fill="#004990" >
</path>
<path d="M2170.22 1480.04C2176.52 1481.37 2182.34 1482.97 2188.33 1485.37C2186.89 1492.33 2185.01 1498.95 2182.72 1505.67C2182.4 1506.65 2182.07 1507.63 2181.73 1508.64C2180.69 1511.73 2179.65 1514.82 2178.61 1517.92C2177.9 1520.03 2177.19 1522.14 2176.48 1524.25C2174.75 1529.39 2173.02 1534.54 2171.28 1539.68C2160.3 1536.92 2149.62 1533.29 2138.88 1529.73C2136.9 1529.07 2134.91 1528.41 2132.92 1527.75C2128.78 1526.38 2124.65 1525 2120.51 1523.62C2115.2 1521.85 2109.88 1520.1 2104.56 1518.34C2100.47 1516.99 2096.38 1515.63 2092.29 1514.26C2090.33 1513.61 2088.37 1512.96 2086.41 1512.32C2083.68 1511.42 2080.96 1510.51 2078.23 1509.59C2077.01 1509.2 2077.01 1509.2 2075.76 1508.79C2070.2 1506.91 2070.2 1506.91 2069.02 1504.54C2069.7 1501.79 2070.46 1499.17 2071.35 1496.48C2071.57 1495.74 2071.79 1495 2072.02 1494.23C2072.73 1492.09 2072.73 1492.09 2074.34 1488.56C2077.75 1486.85 2080.47 1487.83 2083.96 1488.98C2084.65 1489.22 2085.35 1489.46 2086.06 1489.71C2086.8 1489.95 2087.55 1490.2 2088.31 1490.46C2090.76 1491.28 2093.2 1492.11 2095.65 1492.95C2097.35 1493.52 2099.06 1494.09 2100.76 1494.66C2105.24 1496.17 2109.72 1497.69 2114.2 1499.21C2119.64 1501.06 2125.09 1502.89 2130.53 1504.72C2134.77 1506.15 2139 1507.58 2143.24 1509.01C2144.02 1509.28 2144.79 1509.54 2145.6 1509.81C2147.05 1510.3 2148.5 1510.8 2149.95 1511.29C2153.13 1512.36 2156.29 1513.38 2159.56 1514.12C2159.96 1512.15 2159.96 1512.15 2160.35 1510.13C2161.76 1503.81 2163.91 1497.79 2166.09 1491.69C2166.49 1490.57 2166.88 1489.44 2167.29 1488.28C2168.26 1485.53 2169.24 1482.79 2170.22 1480.04Z"   fill="#004990" >
</path>
<path d="M184.589 1472.59C188.483 1474.05 191.997 1475.79 195.574 1477.91C196.515 1478.46 197.455 1479.01 198.424 1479.58C199.485 1480.34 199.485 1480.34 200.567 1481.11C200.567 1481.81 200.567 1482.51 200.567 1483.24C199.864 1483.24 199.161 1483.24 198.437 1483.24C197.706 1484.65 197.001 1486.07 196.306 1487.5C195.889 1488.31 195.471 1489.12 195.041 1489.96C193.608 1494.7 194.772 1498.87 196.306 1503.47C204.92 1506.66 213.68 1503.82 221.947 1501C223.054 1500.63 224.161 1500.27 225.302 1499.89C228.824 1498.72 232.339 1497.54 235.854 1496.35C238.189 1495.57 240.525 1494.8 242.861 1494.02C255.14 1489.95 255.14 1489.95 267.382 1485.76C268.486 1485.38 268.486 1485.38 269.613 1484.99C271.493 1484.34 273.37 1483.68 275.247 1483.03C278.219 1482.2 280.593 1481.99 283.657 1482.17C284.549 1484.79 285.435 1487.41 286.32 1490.03C286.701 1491.14 286.701 1491.14 287.09 1492.28C288.984 1497.91 288.984 1497.91 288.984 1500.28C270.306 1506.54 251.622 1512.78 232.89 1518.88C231.323 1519.39 229.757 1519.9 228.191 1520.41C226 1521.13 223.808 1521.84 221.614 1522.55C220.374 1522.96 219.135 1523.36 217.857 1523.78C206.975 1526.92 197.389 1526.58 187.118 1521.98C180.524 1517.85 177.161 1512.04 175.068 1504.67C173.059 1495.18 173.936 1487.18 179.262 1478.98C180.95 1476.74 182.707 1474.68 184.589 1472.59Z"   fill="#004990" >
</path>
<path d="M526.534 1865.55C530.692 1867.24 533.283 1869.95 536.388 1873.14C537.338 1874.11 538.288 1875.08 539.267 1876.08C539.987 1876.82 540.706 1877.57 541.448 1878.33C537.171 1884.51 532.373 1889.67 527.032 1894.91C523.331 1898.54 519.859 1902.29 516.493 1906.24C514.194 1908.86 511.709 1911.27 509.224 1913.71C507.272 1915.69 505.449 1917.76 503.631 1919.87C500.667 1923.3 497.549 1926.5 494.31 1929.68C492.358 1931.67 490.536 1933.73 488.718 1935.84C485.763 1939.27 482.655 1942.46 479.426 1945.63C476.146 1948.96 473.115 1952.52 470.076 1956.07C466.348 1955.46 464.656 1954.21 462.087 1951.48C461.448 1950.81 460.81 1950.15 460.152 1949.46C459.56 1948.83 458.968 1948.2 458.358 1947.55C457.501 1946.7 456.645 1945.84 455.762 1944.96C455.212 1944.41 454.663 1943.86 454.097 1943.29C457.7 1939.08 461.323 1934.93 465.282 1931.05C467.897 1928.48 470.347 1925.84 472.739 1923.06C475.703 1919.62 478.822 1916.42 482.06 1913.24C484.012 1911.26 485.835 1909.2 487.653 1907.09C490.617 1903.65 493.735 1900.45 496.973 1897.27C498.925 1895.28 500.748 1893.22 502.566 1891.11C505.527 1887.68 508.643 1884.48 511.879 1881.3C514.534 1878.6 516.983 1875.73 519.456 1872.87C521.71 1870.31 524.087 1867.93 526.534 1865.55Z"   fill="#004990" >
</path>
<path d="M813.087 2052.98C819.325 2054.75 825.293 2056.68 831.196 2059.37C830.566 2062.93 829.695 2066.1 828.324 2069.43C827.766 2070.8 827.766 2070.8 827.197 2072.2C826.791 2073.18 826.384 2074.16 825.965 2075.17C825.54 2076.21 825.114 2077.25 824.675 2078.32C823.28 2081.73 821.879 2085.13 820.477 2088.53C819.515 2090.87 818.553 2093.21 817.592 2095.56C815.633 2100.33 813.671 2105.11 811.707 2109.88C809.006 2116.44 806.312 2123.01 803.62 2129.57C799.678 2139.19 795.732 2148.8 791.782 2158.41C784.837 2157.36 779.018 2154.8 772.607 2152.02C777.467 2138.76 782.739 2125.68 788.12 2112.62C789.819 2108.49 791.516 2104.35 793.213 2100.22C793.633 2099.2 794.053 2098.18 794.486 2097.12C797.164 2090.6 799.825 2084.07 802.467 2077.53C802.793 2076.73 803.118 2075.92 803.454 2075.09C804.677 2072.07 805.9 2069.04 807.118 2066.02C807.93 2064 808.746 2061.98 809.562 2059.96C810.241 2058.27 810.241 2058.27 810.934 2056.55C812.021 2054.05 812.021 2054.05 813.087 2052.98Z"   fill="#004990" >
</path>
<path d="M294.309 1517.32C297.602 1520.36 298.798 1523.28 300.368 1527.5C300.834 1528.73 301.299 1529.96 301.779 1531.23C302.831 1534.36 302.831 1534.36 302.831 1536.49C301.787 1536.89 300.743 1537.29 299.667 1537.71C294.551 1539.7 289.437 1541.68 284.323 1543.67C283.373 1544.04 282.424 1544.41 281.446 1544.79C269.106 1549.59 256.793 1554.46 244.509 1559.4C243.297 1559.89 242.086 1560.37 240.837 1560.87C234.856 1563.28 228.878 1565.69 222.903 1568.11C220.709 1569 218.515 1569.88 216.321 1570.76C215.311 1571.18 214.301 1571.59 213.261 1572.01C212.334 1572.38 211.407 1572.76 210.453 1573.14C209.645 1573.47 208.838 1573.79 208.006 1574.13C205.894 1574.82 205.894 1574.82 202.698 1574.82C201.598 1572.23 200.513 1569.64 199.436 1567.04C199.122 1566.3 198.808 1565.57 198.485 1564.81C196.186 1559.21 196.186 1559.21 197.372 1555.65C199.514 1554.48 199.514 1554.48 202.377 1553.38C203.99 1552.75 203.99 1552.75 205.635 1552.1C206.816 1551.65 207.997 1551.2 209.214 1550.74C210.438 1550.27 211.661 1549.79 212.921 1549.3C215.554 1548.28 218.188 1547.26 220.825 1546.25C224.928 1544.68 229.025 1543.09 233.12 1541.5C237.212 1539.91 241.305 1538.32 245.4 1536.74C256.765 1532.34 268.09 1527.85 279.396 1523.31C280.956 1522.68 282.516 1522.06 284.077 1521.43C287.488 1520.06 290.899 1518.69 294.309 1517.32Z"   fill="#004990" >
</path>
<path d="M1210.23 2125.3C1211.91 2125.3 1213.6 2125.32 1215.29 2125.33C1216.14 2125.34 1217 2125.34 1217.89 2125.35C1220.02 2125.36 1222.15 2125.38 1224.27 2125.4C1225.58 2129.54 1225.61 2133.74 1225.75 2138.04C1225.8 2139.3 1225.8 2139.3 1225.85 2140.58C1225.95 2143.36 1226.05 2146.14 1226.14 2148.92C1226.21 2150.87 1226.28 2152.81 1226.35 2154.75C1226.5 2158.83 1226.64 2162.91 1226.78 2166.99C1226.96 2172.18 1227.15 2177.37 1227.34 2182.56C1227.49 2186.58 1227.63 2190.59 1227.77 2194.61C1227.84 2196.52 1227.91 2198.44 1227.98 2200.35C1228.35 2210.87 1228.64 2221.36 1228.53 2231.9C1222.12 2233.04 1215.87 2233.07 1209.36 2232.96C1208.4 2227.94 1208.05 2223.01 1207.88 2217.92C1207.85 2217.07 1207.82 2216.23 1207.79 2215.36C1207.68 2212.58 1207.59 2209.8 1207.49 2207.02C1207.42 2205.08 1207.35 2203.13 1207.28 2201.19C1207.13 2197.11 1206.99 2193.04 1206.85 2188.97C1206.67 2183.77 1206.48 2178.58 1206.29 2173.38C1206.15 2169.37 1206.01 2165.35 1205.86 2161.33C1205.8 2159.42 1205.73 2157.51 1205.66 2155.59C1204.79 2131.26 1204.79 2131.26 1205.1 2126.47C1206.16 2125.4 1206.16 2125.4 1210.23 2125.3Z"   fill="#004990" >
</path>
</g>
<defs>
<clipPath id="clip-path-v3nbRWDalku786QVx8pKj">
<path d="M0 2373L2373 2373L2373 0L0 0L0 2373Z" fill="white"/>
</clipPath>
</defs>
</svg>
