<?xml version="1.0" encoding="UTF-8"?>
<svg id="Layer_2" data-name="Layer 2" xmlns="http://www.w3.org/2000/svg" viewBox="0 0 730.49 730.49">
  <defs>
    <style>
      .cls-1 {
        stroke: #fcf231;
        stroke-width: 3.94px;
      }

      .cls-1, .cls-2 {
        fill: none;
        stroke-miterlimit: 10;
      }

      .cls-3 {
        fill: #c00;
      }

      .cls-2 {
        stroke: #cc0001;
        stroke-linecap: round;
        stroke-width: 1.83px;
      }

      .cls-4 {
        fill: #fef140;
      }

      .cls-5 {
        fill: #fff140;
      }
    </style>
  </defs>
  <g id="Layer_1-2" data-name="Layer 1">
    <g>
      <path class="cls-5" d="M730.49,365.25c0,201.72-163.53,365.25-365.25,365.25S0,566.97,0,365.25,163.53,0,365.25,0s365.25,163.53,365.25,365.25"/>
      <path class="cls-3" d="M707.45,365.25c0,189-153.21,342.21-342.21,342.21S23.04,554.24,23.04,365.25,176.25,23.04,365.25,23.04s342.21,153.21,342.21,342.21"/>
      <path class="cls-3" d="M365.25,233.37c-72.83,0-131.87,59.04-131.87,131.87s59.04,131.87,131.87,131.87,131.87-59.04,131.87-131.87-59.04-131.87-131.87-131.87M365.25,490.01c-68.9,0-124.76-55.86-124.76-124.76s55.86-124.76,124.76-124.76,124.76,55.86,124.76,124.76-55.86,124.76-124.76,124.76"/>
      <path class="cls-5" d="M365.25,610.71c-33.13,0-65.28-6.49-95.55-19.29-29.23-12.36-55.48-30.06-78.02-52.6-22.54-22.54-40.24-48.79-52.6-78.02-12.8-30.27-19.29-62.41-19.29-95.55s6.49-65.28,19.29-95.55c12.36-29.23,30.06-55.48,52.6-78.02,22.54-22.54,48.79-40.24,78.02-52.6,30.27-12.8,62.41-19.29,95.55-19.29s65.28,6.49,95.55,19.29c29.23,12.36,55.48,30.06,78.02,52.6,22.54,22.54,40.24,48.79,52.6,78.02,12.8,30.27,19.29,62.41,19.29,95.55s-6.49,65.28-19.29,95.55c-12.36,29.23-30.06,55.48-52.6,78.02-22.54,22.54-48.79,40.24-78.02,52.6-30.27,12.8-62.41,19.29-95.55,19.29M365.25,136.36c-126.21,0-228.89,102.68-228.89,228.89s102.68,228.89,228.89,228.89,228.89-102.68,228.89-228.89-102.68-228.89-228.89-228.89"/>
      <path class="cls-5" d="M575.26,365.25c0,115.98-94.02,210.01-210.01,210.01s-210.01-94.03-210.01-210.01,94.02-210.01,210.01-210.01,210.01,94.03,210.01,210.01"/>
      <path class="cls-5" d="M82.65,335.89c.1-2.92-.37-3.91-2.45-4.4-1.8-.44-3.37-.84-7.45-1.51l-18.65-3.06.43-2.62,26.63-15.69-10.59-1.74c-4.08-.67-5.92-.88-7.3-.96-2.09-.15-3.33.66-4.09,4.09l-1.73-.28,1.91-11.62,1.73.29c-.2,2.71.31,4,2.46,4.64,1.66.46,3.33.84,7.4,1.5l11.1,1.82c1.55.25,2.59.33,3.96-.36,1.31-.65,1.63-1.75,2.15-3.69l1.73.29-1.5,9.13-23.69,14.44,8.43,1.39c4.08.67,5.63.88,7.39,1.02,2.04.19,3.14-.4,4.02-4.25l1.73.29-1.9,11.57-1.73-.28Z"/>
      <path class="cls-5" d="M52.77,353.9l1.75.08c.3,3.01.82,3.03,2.89,2.45,1.44-.41,3.61-1.08,5.54-1.71l.4-9.25c-1.45-.58-3.22-1.33-4.67-1.86-2.94-1.12-3.37,0-3.87,3.73l-1.75-.07.5-11.71,1.76.07c.25,3,.65,3.78,4.56,5.56l24.1,10.91.33,2.3c-8.38,2.68-16.96,5.55-25.01,8.29-4.49,1.57-4.84,1.98-5.35,5.05l-1.76-.08.59-13.75ZM75.61,350.7c-3.36-1.52-6.48-2.98-9.89-4.32l-.32,7.54,10.21-3.22Z"/>
      <path class="cls-5" d="M83.81,404.28c-.6-2.86-1.28-3.71-3.42-3.69-1.86,0-3.48-.02-7.59.29l-18.84,1.44-.2-2.65,22.16-21.54-10.7.82c-4.12.31-5.96.55-7.32.8-2.07.35-3.08,1.43-3,4.94l-1.75.13-.89-11.74,1.75-.13c.44,2.68,1.24,3.81,3.49,3.92,1.72.06,3.43.02,7.55-.29l11.22-.86c1.56-.12,2.6-.29,3.76-1.29,1.12-.94,1.17-2.09,1.21-4.09l1.75-.13.7,9.23-19.59,19.63,8.52-.65c4.12-.31,5.68-.48,7.42-.76,2.02-.3,2.96-1.13,2.9-5.08l1.75-.13.89,11.69-1.75.13Z"/>
      <path class="cls-5" d="M69.9,441.19c-2.46-.18-6.24-.66-8.02-1.07-.53-1.15-2.24-4.78-2.96-8.31-2.56-12.51,4.43-19.32,11.83-20.83,9.63-1.97,17.64,4.05,19.93,15.21.83,4.05.58,7.83.68,9.02-2.14.68-5.51,1.71-7.49,2.45l-.71-1.79c3.43-1.72,4.86-3.47,5.34-6.13.24-1.21.08-2.92-.18-4.18-1.38-6.74-7.7-8.99-15.01-7.49-8.51,1.74-13.39,7.29-12.08,13.67.8,3.91,3.38,6.09,9.01,7.56l-.34,1.91Z"/>
      <path class="cls-5" d="M79.91,472.97c-1.29.17-6.89.61-8.29.62l-7.67-23.41,1.62-.53c1.75,3.97,2.06,4.17,5.85,2.93l17.23-5.64c3.83-1.26,3.93-1.88,3.19-5.04l1.67-.55,4.8,14.66c1.55,4.74,2.11,6.3,2.36,6.92-.8.31-4.42,1.75-7.16,2.84l-.8-1.68c1.4-.91,3-2.28,3.56-3.31.64-1.11.71-1.78-.04-4.08l-.96-2.93c-.56-1.71-.71-1.87-2.24-1.36l-9.43,3.09,1.45,4.42c.83,2.53,1.65,2.76,5.08,2.38l.58,1.76-10.06,3.29-.58-1.76c3.1-1.82,3.53-2.35,2.67-4.97l-1.43-4.38-7.76,2.54c-3.11,1.02-4.03,1.42-3.16,4.23l1.05,3.2c.83,2.53,1.37,3.1,2.91,3.69,1.68.7,3.64,1.06,5.41,1.27l.14,1.8Z"/>
      <path class="cls-5" d="M115.47,500.72c-1.91-3.19-2.31-3.37-5.88-1.7l-16.47,7.71c-3.57,1.67-3.67,2.13-2.42,5.59l-1.59.74-6.22-13.29,1.59-.74c2.02,3.2,2.27,3.39,5.84,1.72l8.08-3.78-5.43-11.61-8.08,3.78c-3.57,1.67-3.6,2.16-2.44,5.54l-1.59.74-6.2-13.24,1.59-.74c1.83,3.02,2.27,3.39,5.84,1.72l16.47-7.71c3.57-1.67,3.73-2.22,2.46-5.61l1.59-.74,6.2,13.24-1.59.74c-1.83-3.13-2.29-3.33-5.86-1.66l-6.15,2.88,5.43,11.61,6.15-2.88c3.57-1.67,3.63-2.22,2.46-5.61l1.59-.75,6.22,13.29-1.59.74Z"/>
      <path class="cls-5" d="M101.75,533.66l1.49-.94c1.96,2.3,2.4,2.02,3.77.37.95-1.16,2.35-2.94,3.58-4.56l-4.94-7.83c-1.52.34-3.4.74-4.9,1.12-3.06.75-2.78,1.92-1.06,5.27l-1.49.94-6.25-9.92,1.49-.94c1.92,2.33,2.68,2.74,6.92,1.98l26.03-4.73,1.58,1.7c-5.37,6.97-10.79,14.21-15.86,21.05-2.8,3.84-2.85,4.38-1.53,7.19l-1.49.94-7.34-11.65ZM118.72,518.03c-3.62.66-7.02,1.23-10.59,2.07l4.02,6.39,6.57-8.46Z"/>
      <path class="cls-5" d="M156.05,557.46c-2.12-2.01-3.17-2.32-4.92-1.08-1.53,1.06-2.87,1.97-6.07,4.57l-14.65,11.93-1.68-2.06,5.91-30.34-8.32,6.77c-3.2,2.61-4.58,3.85-5.56,4.83-1.5,1.47-1.72,2.93.35,5.77l-1.36,1.11-7.43-9.13,1.36-1.11c1.89,1.95,3.19,2.42,5.1,1.23,1.45-.93,2.83-1.94,6.03-4.54l8.73-7.1c1.22-.99,1.97-1.72,2.35-3.2.38-1.41-.23-2.39-1.34-4.05l1.36-1.11,5.84,7.18-4.89,27.31,6.63-5.39c3.2-2.61,4.39-3.63,5.66-4.85,1.49-1.4,1.79-2.62-.52-5.82l1.36-1.11,7.4,9.1-1.36,1.11Z"/>
      <path class="cls-5" d="M170.77,593.81c-2.29-1.52-2.66-1.61-4.88.73l-2.52,2.65c-1.18,1.24-2.25,2.44-2.96,3.54-2.05-1.36-6.62-4.12-9.41-6.77-8.09-7.68-8.07-17.01-1.6-23.83,7.35-7.75,17.35-5.66,24.68,1.3,2.79,2.65,5.17,6.21,6.21,7.39-1.37,1.58-3.58,4.46-5.13,6.58l-1.57-1.03c1.95-3.71,2.08-6.4.63-9.15-.53-1.03-1.67-2.37-2.54-3.19-4.17-3.95-10.73-3.31-16.35,2.62-5.75,6.06-8.16,12.87-2.51,18.23.69.65,1.68,1.4,2.66,1.61.81.18,1.64-.14,2.65-1.21l2.88-3.03c2.29-2.41,2.03-3.11-.53-6.2l1.21-1.27,10.3,9.77-1.21,1.27Z"/>
      <path class="cls-5" d="M177.94,615.74l1.02-1.43c3.13,1.82,3.64,1.84,5.96-1.41l10.5-14.73c2.32-3.25,2.15-3.83-.59-6.13l1.02-1.43,11.94,8.52-1.02,1.43c-3.09-1.79-3.67-1.8-5.99,1.45l-10.5,14.73c-2.29,3.21-2.11,3.69.61,6.09l-1.02,1.43-11.95-8.52Z"/>
      <path class="cls-5" d="M239.47,620.06c-2.7-1.11-3.79-1.02-4.98.76-1.04,1.54-1.97,2.87-4.02,6.45l-9.39,16.4-2.31-1.32-5.39-30.43-5.33,9.31c-2.05,3.58-2.89,5.24-3.45,6.5-.87,1.91-.55,3.35,2.4,5.26l-.87,1.52-10.22-5.85.87-1.52c2.47,1.14,3.85,1.11,5.21-.68,1.01-1.39,1.95-2.82,4-6.41l5.59-9.76c.78-1.36,1.22-2.31,1.05-3.83-.15-1.46-1.07-2.14-2.71-3.3l.87-1.52,8.03,4.6,5.25,27.24,4.24-7.42c2.05-3.58,2.79-4.97,3.54-6.56.89-1.84.73-3.08-2.57-5.25l.87-1.52,10.18,5.83-.87,1.52Z"/>
      <path class="cls-5" d="M256.93,634.07c.34-3.16.49-6.87-3.51-8.61-2.53-1.09-4.96-.03-6.01,2.41-1.04,2.4-.05,4.53,2.95,8.11,3.66,4.33,5.64,7.88,3.77,12.19-2.23,5.14-8.12,7.04-14.35,4.34-2.79-1.21-4.95-3.02-6.73-4.52.17-1.12,1.4-5.97,1.98-8.15l1.87.34c-.32,3.12.06,8.93,4.33,10.78,2.66,1.15,4.99.19,6.19-2.59,1.1-2.53.17-4.69-2.64-8.23-3.47-4.4-5.49-7.86-3.53-12.39,1.98-4.57,7.12-6.64,13.65-3.81,3.01,1.3,4.99,2.94,5.89,3.48-.52,1.69-1.2,4.08-2.04,6.98l-1.83-.32Z"/>
      <path class="cls-5" d="M289.33,645.52c.16-2.24-.29-4.27-.54-5.05-.51-1.21-.76-1.69-3.43-2.53l-2.9-.92-6.75,21.27c-1.21,3.8-.84,4.22,3.09,5.81l-.53,1.67-15.02-4.77.53-1.68c3.95.9,4.44.76,5.65-3.04l6.75-21.27-2.76-.88c-2.53-.8-3.39-.63-4.59.19-.91.66-2.06,2.09-3.22,3.71l-1.72-.55c1.36-3.2,2.8-6.63,3.58-8.78l1.36.43c.35,1.26.86,1.52,2.22,1.95l18.1,5.74c1.22.39,1.94.32,2.98-.3l1.31.42c-.56,1.91-1.64,5.96-2.35,8.97l-1.76-.41Z"/>
      <path class="cls-5" d="M291.08,669.16l.38-1.72c3.6.45,4.07.26,4.92-3.64l3.86-17.67c.85-3.9.47-4.37-2.95-5.41l.37-1.72,14.33,3.13-.38,1.72c-3.55-.43-4.08-.21-4.93,3.68l-3.86,17.67c-.84,3.85-.48,4.22,2.96,5.36l-.37,1.72-14.33-3.13Z"/>
      <path class="cls-5" d="M341.81,654.61c-.25-2.23-1.07-4.15-1.46-4.87-.73-1.09-1.06-1.52-3.84-1.86l-3.02-.37-2.72,22.15c-.49,3.96-.05,4.3,4.1,5.15l-.21,1.74-15.64-1.92.21-1.74c4.05.16,4.51-.07,4.99-4.02l2.72-22.15-2.87-.35c-2.64-.32-3.45,0-4.48,1.03-.77.81-1.64,2.43-2.48,4.24l-1.79-.22c.75-3.4,1.54-7.03,1.91-9.28l1.41.18c.57,1.17,1.13,1.33,2.54,1.51l18.85,2.32c1.27.16,1.97-.04,2.88-.84l1.37.17c-.2,1.99-.52,6.15-.66,9.25l-1.81-.08Z"/>
      <path class="cls-5" d="M381.97,649.09c-3.04.24-3.86,1.12-4.08,2.83-.16,1.42-.29,3.04-.34,6.36l-.1,6.22c-.07,4.08-.8,8.2-3.55,11.01-2.22,2.24-5.61,3.19-8.98,3.13-3.13-.05-6.26-.76-8.46-2.61-2.72-2.13-4-5.05-3.92-10.37l.19-12.01c.07-4.37-.35-4.71-3.95-5.1l.03-1.76,14.67.24-.03,1.76c-3.57.27-4,.6-4.07,4.97l-.2,12.63c-.09,5.32,2.47,8.87,7.55,8.95,5.65.09,8.19-4.04,8.3-11.17l.1-5.93c.05-3.28-.06-4.99-.13-6.41-.15-2.19-1.47-2.68-4.8-2.93l.03-1.76,11.77.19-.03,1.76Z"/>
      <path class="cls-5" d="M412.89,651.67c-.78-2.1-2.03-3.77-2.59-4.37-.97-.89-1.39-1.22-4.17-.88l-3.02.37,2.68,22.15c.48,3.96.98,4.18,5.22,4.01l.21,1.74-15.64,1.89-.21-1.74c3.97-.81,4.35-1.15,3.88-5.11l-2.68-22.15-2.88.35c-2.64.32-3.34.83-4.1,2.07-.55.97-1.01,2.75-1.39,4.71l-1.79.22c-.09-3.48-.2-7.2-.38-9.47l1.41-.17c.84,1,1.41,1.02,2.83.85l18.85-2.28c1.27-.15,1.9-.52,2.59-1.51l1.37-.17c.29,1.97.98,6.1,1.58,9.13l-1.77.36Z"/>
      <path class="cls-5" d="M448.2,658.74c.06,1.3.01,6.92-.1,8.31l-23.99,5.62-.39-1.66c4.11-1.4,4.33-1.7,3.42-5.58l-4.14-17.66c-.92-3.93-1.54-4.08-4.75-3.62l-.4-1.71,15.02-3.52c4.85-1.14,6.46-1.56,7.1-1.76.24.82,1.36,4.56,2.21,7.38l-1.75.65c-.78-1.47-2.02-3.18-2.99-3.83-1.05-.73-1.72-.87-4.07-.31l-3.01.7c-1.76.41-1.92.55-1.55,2.12l2.26,9.66,4.53-1.06c2.59-.61,2.89-1.41,2.81-4.85l1.8-.42,2.41,10.31-1.8.42c-1.54-3.25-2.04-3.72-4.72-3.09l-4.48,1.05,1.86,7.95c.75,3.19,1.07,4.14,3.94,3.51l3.28-.77c2.59-.61,3.2-1.09,3.93-2.58.84-1.61,1.37-3.54,1.74-5.28h1.81Z"/>
      <path class="cls-5" d="M472.84,625.09c8.12-3.35,17.19-.17,20.76,8.48,3.86,9.35-.38,17.98-8.67,21.41-8.78,3.62-17.78-.15-21.28-8.62-3.1-7.5-.81-17.13,9.2-21.26M472.98,627.29c-4.47,1.85-5.95,7.6-2.75,15.36,3.06,7.41,8.63,12.56,14.55,10.12,4.17-1.72,5.75-7.1,2.43-15.13-3.59-8.69-9.15-12.45-14.24-10.35"/>
      <path class="cls-5" d="M515.02,613.5c-1.34-1.32-2.85-2.49-4-2.88-1.38-.43-2.01-.29-4,.82l-3.11,1.73c-1.41.79-1.53.96-.74,2.37l5.04,9.04,4.44-2.47c2.45-1.36,2.43-2.17,1.44-5.42l1.53-.85,5.13,9.21-1.58.88c-2.03-2.56-3.04-2.92-5.32-1.65l-4.44,2.47,3.6,6.47c2.13,3.82,2.54,3.97,6.41,2.14l.85,1.54-13.27,7.39-.85-1.54c2.99-2.04,3.22-2.5,1.1-6.32l-8.5-15.26c-2.06-3.69-2.61-3.82-5.9-2.31l-.85-1.53,14.06-7.83c3.57-1.99,5.62-3.18,6.26-3.6.43.68,2.63,4.13,4.2,6.46l-1.48,1.15Z"/>
      <path class="cls-5" d="M551.75,587.72c-1.74-1.41-3.67-2.21-4.45-2.44-1.29-.27-1.82-.34-4.04,1.37l-2.41,1.85,13.6,17.69c2.43,3.16,2.98,3.1,6.53.79l1.07,1.39-12.49,9.61-1.07-1.39c3-2.72,3.16-3.21.73-6.37l-13.6-17.69-2.3,1.76c-2.11,1.62-2.45,2.42-2.47,3.87.02,1.12.54,2.88,1.21,4.76l-1.43,1.1c-1.85-2.95-3.84-6.09-5.16-7.95l1.13-.87c1.23.43,1.74.16,2.87-.71l15.05-11.57c1.02-.78,1.37-1.41,1.46-2.62l1.09-.84c1.25,1.55,3.95,4.75,6.02,7.05l-1.34,1.21Z"/>
      <path class="cls-5" d="M585.75,575.83c.72,1.09,3.53,5.95,4.15,7.2l-17.79,17.05-1.18-1.23c2.82-3.3,2.86-3.67.11-6.54l-12.55-13.09c-2.79-2.91-3.4-2.72-5.93-.7l-1.22-1.27,11.14-10.67c3.6-3.45,4.77-4.63,5.21-5.13.63.58,3.49,3.23,5.66,5.22l-1.17,1.45c-1.43-.87-3.35-1.72-4.53-1.78-1.28-.09-1.92.13-3.66,1.8l-2.23,2.13c-1.3,1.25-1.37,1.45-.26,2.61l6.86,7.16,3.36-3.22c1.92-1.84,1.77-2.68-.05-5.61l1.34-1.28,7.32,7.64-1.34,1.28c-2.98-2.01-3.65-2.16-5.64-.25l-3.32,3.18,5.65,5.89c2.27,2.36,3.02,3.02,5.18,1.02l2.43-2.33c1.92-1.84,2.2-2.57,2.07-4.22-.1-1.82-.63-3.74-1.2-5.43l1.56-.91Z"/>
      <path class="cls-5" d="M609.03,548.35c1.4,2.03,3.39,5.28,4.18,6.93-.57,1.13-2.33,4.73-4.63,7.51-8.16,9.82-17.84,8.62-23.65,3.8-7.56-6.28-7.87-16.29-.59-25.05,2.64-3.18,5.74-5.35,6.61-6.17,1.87,1.24,4.78,3.23,6.6,4.31l-.96,1.67c-3.48-1.6-5.74-1.63-8.12-.33-1.09.57-2.33,1.77-3.15,2.75-4.4,5.29-2.2,11.63,3.53,16.39,6.68,5.55,14.06,5.88,18.22.88,2.55-3.07,2.64-6.45.27-11.75l1.7-.93Z"/>
      <path class="cls-5" d="M614.09,502.42c-1.66,3.33-1.6,3.76,1.73,5.87l15.36,9.73c3.33,2.11,3.77,1.94,6.01-.97l1.48.94-7.85,12.39-1.48-.94c1.61-3.42,1.64-3.74-1.69-5.85l-7.54-4.78-6.86,10.83,7.54,4.78c3.33,2.11,3.76,1.87,5.98-.93l1.48.94-7.83,12.35-1.48-.94c1.56-3.17,1.64-3.74-1.69-5.85l-15.36-9.73c-3.33-2.11-3.88-1.95-6.05.94l-1.48-.94,7.83-12.35,1.48.94c-1.65,3.22-1.57,3.72,1.76,5.83l5.73,3.63,6.86-10.83-5.73-3.63c-3.33-2.11-3.82-1.86-6.05.94l-1.48-.94,7.85-12.39,1.48.94Z"/>
      <path class="cls-5" d="M630.13,468.19c-.87,2.79-.68,3.87,1.2,4.89,1.62.9,3.03,1.71,6.78,3.44l17.16,7.9-1.11,2.42-29.84,8.05,9.74,4.49c3.75,1.73,5.47,2.42,6.78,2.86,1.98.7,3.39.25,5.03-2.86l1.59.73-4.93,10.69-1.6-.74c.92-2.56.77-3.93-1.14-5.12-1.47-.89-2.99-1.69-6.74-3.42l-10.22-4.71c-1.42-.66-2.41-1.01-3.91-.7-1.44.28-2.04,1.26-3.05,2.99l-1.59-.73,3.87-8.41,26.67-7.62-7.76-3.58c-3.75-1.73-5.19-2.34-6.85-2.95-1.91-.73-3.14-.45-5,3.03l-1.6-.73,4.91-10.65,1.59.74Z"/>
      <path class="cls-5" d="M634.04,447.98c2.59-8.39,10.83-13.35,19.77-10.59,9.66,2.98,13.61,11.76,10.97,20.33-2.8,9.07-11.45,13.61-20.21,10.9-7.76-2.39-13.72-10.3-10.52-20.64M635.83,449.27c-1.43,4.63,2.06,9.43,10.09,11.91,7.67,2.37,15.18,1.36,17.07-4.77,1.33-4.31-1.81-8.95-10.11-11.52-8.98-2.77-15.43-.89-17.05,4.38"/>
      <path class="cls-5" d="M666.93,407.59c1.94.74,6.65,2.96,7.83,3.61l-4.24,23.16-1.73-.32c.47-4.16.22-4.59-3.71-5.31l-17.79-3.26c-3.92-.72-4.38-.32-5.3,3.13l-1.73-.32,2.67-14.57,1.73.32c-.34,3.7-.1,4.23,3.82,4.95l18.12,3.32c2.57.47,3.75.59,4.27-1.97.06-.08.46-2.23.49-2.42.49-2.66.06-3.46-1-4.82-.77-1.06-2.56-2.64-4.32-3.83l.89-1.67Z"/>
      <path class="cls-5" d="M645.82,383.53c.57-8.76,7.44-15.5,16.77-14.89,10.09.66,15.97,8.28,15.38,17.23-.62,9.47-7.98,15.89-17.13,15.29-8.1-.53-15.73-6.83-15.02-17.63M647.86,384.38c-.32,4.83,4.19,8.7,12.58,9.24,8.01.52,15.08-2.2,15.5-8.6.29-4.5-3.84-8.29-12.51-8.86-9.38-.61-15.21,2.72-15.57,8.21"/>
      <path class="cls-5" d="M663.22,329.36c.65,2.67.86,2.99,4.08,2.78l3.65-.24c1.7-.11,3.31-.26,4.58-.58.58,2.39,2.06,7.53,2.31,11.36.72,11.13-5.64,17.97-15.02,18.58-10.66.69-16.58-7.63-17.23-17.72-.25-3.84.43-8.07.47-9.64,2.08-.23,5.65-.84,8.24-1.34l.45,1.83c-3.95,1.4-5.88,3.28-6.68,6.29-.31,1.11-.39,2.88-.31,4.06.37,5.73,5.63,9.72,13.78,9.19,8.34-.54,14.73-3.91,14.23-11.68-.06-.95-.28-2.17-.86-2.99-.47-.68-1.3-1.01-2.77-.91l-4.17.27c-3.32.21-3.61.9-3.82,4.91l-1.75.11-.92-14.16,1.75-.11Z"/>
      <path class="cls-5" d="M641.53,299.09c.87,2.93,1.71,3.89,4.87,5.06,3.2,1.16,6.03,2.15,11.11,3.59.82.24,1.4.28,2.57.07l5.79-1.04c4.06-.73,4.14-1.13,3.91-5.05l1.73-.31,2.66,14.76-1.73.31c-1.13-3.61-1.33-3.91-5.4-3.18l-5.37.97c-1.03.18-1.46.46-2.06.9-2.51,1.85-5.33,4.14-9.73,7.83-2.73,2.27-3.21,3.09-3,5.85l-1.73.31-2.46-13.69,1.73-.31c.99,3.05,1.58,2.85,3.07,1.76,2.76-2.09,6.14-4.77,9.23-7.16-2.87-.93-7.76-2.37-10.84-3.16-2.03-.55-2.57-.07-2.38,3.37l-1.73.31-1.96-10.89,1.73-.31Z"/>
      <path class="cls-3" d="M407.42,241.35c.2-1.02,3.77-3.25,5.55-3.56,1.78-.32,8.59-.05,10.42-1.26,1.83-1.21,26.55-23.99,30.01-27.49,3.46-3.51,7.28-5.03,10.37-2.15,3.09,2.88,2.15,7.02-1.31,12.26-3.46,5.24-22.26,30.33-22.26,30.33,0,0,2.15,6.75.89,10-2.93-.63-33.67-18.12-33.67-18.12"/>
      <path class="cls-3" d="M459.79,270.71c-25.26-25.25-58.83-39.16-94.54-39.16s-69.29,13.91-94.54,39.16c-25.25,25.26-39.16,58.83-39.16,94.54s13.91,69.28,39.16,94.54c25.26,25.25,58.83,39.16,94.54,39.16s69.29-13.91,94.54-39.16c25.25-25.26,39.16-58.83,39.16-94.54s-13.91-69.29-39.16-94.54M365.25,474.7c-60.35,0-109.46-49.1-109.46-109.45s49.1-109.45,109.46-109.45,109.45,49.1,109.45,109.45-49.1,109.45-109.45,109.45"/>
      <path class="cls-3" d="M466.96,365.25c0,56.18-45.54,101.72-101.72,101.72s-101.71-45.54-101.71-101.72,45.54-101.72,101.71-101.72,101.72,45.54,101.72,101.72"/>
      <path class="cls-4" d="M271.3,322.27s-.94,45.25-.94,46.82,4.82,3.77,5.66-7.44c.84-11.21.73-41.27.63-42.53-.11-1.26-1.68-3.46-1.68-3.46l-3.67,6.6Z"/>
      <path class="cls-4" d="M281.88,302.57l-3.98,72.59s-4.82-.1-7.8,1.83c-2.99,1.94-3.04,4.5-1.89,5.92,1.15,1.41,4.35,1.26,4.35,1.26,0,0-5.81,6.91-6.23,7.59-.42.68.68,3.09,1.31,3.67.63.57,9.11-.58,10-.73-.11.89-1.78,7.02-.05,8.75,1.73,1.73,10.68-3.93,11.52-3.72.84.21,1.21,3.82.47,5.18-.73,1.36-4.77,6.34-3.67,8.59,1.1,2.25,9.43,1.73,12.62.37,3.2-1.36,4.09-4.35,4.03-4.92s-1.62-1.94-1.73-2.3c-.11-.37.26-.79,1.05-.84.79-.05,1.62.63,2.15-2.25.52-2.88,1.31-5.92,1.78-5.97.47-.05,1.15,1.36.42,2.72s-1.94,5.5-1.83,6.34c.11.84,1.57,2.72,2.78,3.25-.16.52-2.93,1.62-4.14,3.46-.58.37-4.87,2.09-7.96,6.96s-3.72,8.07-2.46,9.64c1.26,1.57,4.82.47,4.82.47,0,0,1.15,4.71,2.31,5.39,1.15.68,4.35-.99,6.02-3.82,1.68-2.83,1.83-6.02,1.83-6.02,0,0-.32,6.65,1.47,7.8,1.78,1.15,8.07-1.05,9.79-7.91,1.57,1.15,3.4,1.36,5.55-.47.42.68-2.78,7.12-2.83,7.7-.05.58,2.07,1.83,2.87,6.39,2.11.52,5.09-.47,6.88-6.55s.47-8.96-.47-9.74c-.94-.79-3.12-.32-5.5,1.42.84-1.78,3.35-6.34,2.67-7.54-.68-1.2-4.82-4.5-5.66-5.81-.84-1.31-.79-5.6-.47-6.08.31-.47,1.05-.79,1.05-.79,0,0,4.29,3.19,13.72,3.25s11.63.52,14.35-2.25c2.72-2.78,33.62-40.9,33.62-40.9,0,0,1.33-4.64,0-10.02,3.35.98,23.46,6.7,23.46,6.7l26.54-34.64-31.42-10.61,6.91-10.96s-1.47-10.34-5.45-14.73c.63-1.05.98-.98.98-.98,0,0,4.05,1.74,12.71-.77,8.66-2.51,7.82-6.98,7.82-6.98,0,0,.42-7.96-2.44-11.94s-3.77-4.61-3.77-4.61c0,0,1.12-.21,1.89.59.77.8,5.15,1.74,8.03,1.43,2.88-.31,5.24-3.3,4.97-6.76-.26-3.46-4.14-10.47-4.14-10.47,0,0,27.13-33.88,28.07-35.46.94-1.57-1.05-2.93-2.62-1.89-1.57,1.05-29.75,33.31-29.75,33.31,0,0-7.75-5.87-14.35-3.25-6.6,2.62-3.61,12.2,1.15,16.76-.52.37-4.61-3.35-11.73-3.51-7.12-.16-13.51,4.29-13.88,10.68-.37,6.39,3.77,10.58,3.77,10.58l-1.83,4.24s-4.98-1.94-10.27-.73c-.73.94-9.85,12.41-9.85,12.41,0,0-17.65-20.74-18.91-21.79-1.26-1.05-22.68,26.08-24.67,28.91-1.99,2.83-3.72,3.46.47,8.95,4.19,5.5,7.54,9.38,7.75,9.85.21.47-32.63,39.84-33.47,41.65-.84,1.82-1.82,8.59-1.68,14.46.14,5.87,2.24,9.71,2.24,9.71,0,0-1.33,3.77,2.09,8.31-.07.7-3.98,8.03-4.19,8.59-.21.56-1.89-.77-2.79-.84-.91-.07-1.61.28-1.61.28l-.7-2.93s4.26-1.82,5.94-3.56c1.68-1.74.75-7.31-1.66-8.83-2.41-1.52-7.38-1.05-7.38-1.05l-4.4-3.67,20.42-101.88-5.87,4.26-2.83,17.49-12.67-3.77-3.67,5.55Z"/>
      <polygon class="cls-3" points="288.37 312.84 295.71 313.89 297.07 305.4 287.33 301.21 286.38 322.68 293.4 322.68 294.34 317.13 288.79 316.5 288.37 312.84"/>
      <polygon class="cls-3" points="285.6 330.96 292.46 330.23 292.46 326.93 285.6 326.93 285.6 330.96"/>
      <path class="cls-3" d="M284.71,338.19l.52-4.5h5.97v3.77l-2.41-.21-.05-2.62s-1.83-.26-2.36,1.05c-.52,1.36-.52,2.51-.52,2.51h-1.15Z"/>
      <path class="cls-3" d="M284.03,345.2s-.16-3.4,0-3.72c.16-.32,2.41-.63,3.93-.63h2.1l-.26,4.14-5.76.21Z"/>
      <polygon class="cls-3" points="283.19 353.22 283.5 349.24 288.79 348.71 288.37 352.17 283.19 353.22"/>
      <path class="cls-3" d="M282.56,358.72v-2.3s3.82-1.05,4.77-1.05c.37.58-.32,4.19-.32,4.19l-4.44-.84Z"/>
      <path class="cls-3" d="M281.99,362.64l-.47,14.04h1.99l2.49-13.62s-1.94.52-2.24.52-1.77-.94-1.77-.94"/>
      <path class="cls-3" d="M273.15,380.33c.03.61,1.5,1.26,2.65,1.36,1.15.1,2.2-.8,2.34-1.61.14-.8-1.43-1.08-2.72-1.08s-2.3.7-2.27,1.33"/>
      <path class="cls-3" d="M271.34,392.2s2.44.63,4.5-.87c2.06-1.5,1.57-3.35,1.47-3.63-.1-.28-3.14.11-4.15,1.15-1.01,1.05-1.82,3.35-1.82,3.35"/>
      <path class="cls-3" d="M283.1,393.6s-1.08,4.02-1.15,4.75c.31.49,5.83-1.36,6.08-2.2-.59-.49-4.92-2.55-4.92-2.55"/>
      <path class="cls-3" d="M285.99,391.26c-.17-.63,2.17-3.32,6.22-3.35,4.05-.04,4.29,2.13,4.22,2.93-.07.8-1.15,2.17-4.71,2.2-3.56.04-5.73-1.78-5.73-1.78"/>
      <path class="cls-3" d="M290.82,410.74c-.07-.42.77-3.98,3.32-5.03,2.55-1.05,4.02.14,4.68,1.36.66,1.22-.63,3.39-2.58,4.05-1.95.66-5.41-.38-5.41-.38"/>
      <path class="cls-3" d="M299.41,420.58s-1.08,1.22-2.17,2.62c-1.08,1.4-.66,2.55,0,2.62.66.07,1.33-.84,1.75-2.06.42-1.22.42-3.18.42-3.18"/>
      <path class="cls-3" d="M302.76,422.23s-.07,1.61-.52,2.34c-.45.73-1.08,3.39-.28,4.4.77-.03,1.43-1.99,1.78-3.37.35-1.38-.98-3.37-.98-3.37"/>
      <path class="cls-3" d="M307.96,423.69s1.57-2.55.98-4.47c-.59-1.92-1.22-3.42-1.22-4.08s-1.96.98-2.58,2.55c.52.56,1.75,1.43,2.27,2.51.52,1.08.56,3.49.56,3.49"/>
      <path class="cls-3" d="M315.01,419.89s-1.75,1.85-2.55,4.12c-.8,2.27-.1,3,.59,3.28.7.28,2.44-1.36,2.51-2.83.07-1.47-.56-4.57-.56-4.57"/>
      <path class="cls-3" d="M320.78,417.69s-.21,1.92-.17,3.25c.03,1.33.66,1.54,1.36,1.29.7-.24,1.26-1.85.84-3.11-.42-1.26-2.02-1.43-2.02-1.43"/>
      <path class="cls-3" d="M317.25,411.05s-1.05,1.43-2.3,2.27c-1.26.84-2.31,2.06-2.1,2.9.21.84,2.86.8,4.4-.14,1.54-.94,1.5-2.58,1.29-3.32-.21-.73-1.29-1.71-1.29-1.71"/>
      <path class="cls-3" d="M313.55,401.45s.61,2.72-.73,4.12-2.87,2.44-3.12,3.18c-.24.73.49,1.61,1.64,1.54,1.15-.07,1.68-.87,1.92-1.47.24-.59,3.21-2.55,3.94-3.51.73-.96-.38-2.11-1.01-2.6-.63-.49-2.65-1.26-2.65-1.26"/>
      <path class="cls-3" d="M326.57,429.31c-.55-.17-.77,1.71-.63,3.28.14,1.57.56,1.57,1.36,1.61s.7-1.54.7-2.44-1.08-2.34-1.43-2.44"/>
      <path class="cls-3" d="M308.12,391.24s6.96,5.97,7.28,6.08c.31.1,9.32-8.75,9.79-10.16.47-1.41-4.5-5.76-6.18-6.02s-3.93,1.52-5.81,3.67c-1.88,2.15-5.08,6.44-5.08,6.44"/>
      <path class="cls-3" d="M305.29,379.87c-.68-1.31-1.26-6.96-1.05-10.84.21-3.88,1.94-6.39,1.94-6.39,0,0,16.08-1.83,26.5,11.63,10.42,13.46,11.52,21.32,12.15,24.09.63,2.78-2.41,4.61-3.82,4.61s-2.57-1.68-4.4-1.52c-1.83.16-2.41.89-4.56.94s-5.34-1.78-5.6-2.62c-.26-.84,1.41-2.88,3.09-3.61,1.68-.73,2.46-7.28,2.67-9.43.21-2.15-.37-3.61-1.26-4.45-.89-.84-3.61-1.2-7.86-4.98-4.24-3.77-8.08-1.73-9.54-.63-1.46,1.1-5.18,4.61-6.49,5.08-1.31.47-1.78-1.89-1.78-1.89"/>
      <path class="cls-3" d="M315.97,358.66c-2.54-.4-4.45-1.1-4.35-2.51.1-1.41,8.48-3.35,17.81,1.26,9.32,4.61,18.07,14.98,21.73,24.62,3.67,9.64,1.1,15.45.58,16.6-.52,1.15-1.52-.63-1.88-2.3-.37-1.68-3.67-15.71-11.37-24.98-7.7-9.27-16.23-11.68-22.52-12.67"/>
      <path class="cls-3" d="M314.4,350.65s17.81-22.26,19.8-24.41c1.99-2.15,4.61-1.62,5.6-1.1s.26,1.89-.52,3.25c-.79,1.36.16,1.73,1.68,2.04,1.52.32,4.82-5.18,4.82-5.18,0,0,15.5,6.23,22.78,11.63,7.28,5.39,9.01,11.63,9.01,11.63,0,0-6.76,7.91-7.12,8.95-.37,1.05.31,2.25,2.57,1.05,2.25-1.21,6.55-5.18,6.55-5.18,0,0,.37,2.57.31,3.04-.05.47-6.18,4.03-6.91,6.7-.73,2.67,2.2,1.99,3.67,1.26,1.47-.73,2.04-1.26,2.1-.94.05.32-.16.99-4.35,6.13-4.19,5.13-15.14,19.17-15.55,19.54-.42.37-1.15-1.31-.52-2.31.63-.99,5.03-5.97,5.24-7.59.21-1.62-1.89-2.1-2.3-1.78-.42.31-3.93,4.5-4.29,4.82-.37.31-1.05-1.05-1.05-1.41s3.93-5.76,3.98-5.92c.05-.16.26-2.41-1.1-2.57-1.36-.16-4.56,4.19-4.56,4.19,0,0-1.31-1.94-1.41-2.1-.11-.16,2.3-4.06,3.72-5.8,1.41-1.74,2.36-1.95,2.36-1.95,0,0-.21,1.68,1.47,1.68s4.37-2.36,5.51-5.13c1.14-2.78-.59-3.14-1.43-2.88-.84.26-3.3,3.27-4.29,4.96.05-1.14-.47-2.13-1.26-2.39-.79-.26-2.72.94-4.71,2.83-1.99,1.89-3.61,4.08-3.61,4.08,0,0-3.4-4.99-5.87-7.21-2.46-2.22-4.82-3.79-4.82-3.79,0,0,3.98-4.82,4.61-6.23.63-1.41-.37-2.72-1.1-3.04-.73-.31-4.92,4.45-5.76,5.5-.84,1.05-3.77-.37-4.5-.79-.73-.42-.16-1.2-.16-1.2,0,0,4.92-6.55,5.5-7.86.58-1.31-.05-2.78-1.26-3.04-1.21-.26-4.45,3.67-5.81,5.87-1.36,2.2-2.25,3.82-3.93,3.82s-2.04-.84-2.04-.84c0,0,3.04-3.19,2.41-5.18-.63-1.99-2.58-1.52-3.25-1.05-.67.47-4.55,5.76-4.55,5.76l-5.6.16Z"/>
      <path class="cls-4" d="M330.38,340.54c-.52-.58.58-3.3,2.62-5.34,2.04-2.04,3.72-3.51,5.08-2.62,1.36.89.26,2.3-1.26,4.5-1.52,2.2-3.09,3.19-4.24,3.46-1.15.26-2.2,0-2.2,0"/>
      <path class="cls-4" d="M344.92,337.66c-.71,1.26-2.6,3.48-3.75,3-1.15-.48-1.26-1.64-.79-2.58.47-.94,5.34-7.28,6.23-8.07.89-.79,2.04-.52,2.88,0,.84.52.31,2.09-.37,2.67-.68.58-4.21,4.97-4.21,4.97"/>
      <path class="cls-4" d="M355.36,339.65c-.68,1.05-2.46,4.29-4.82,3.09-2.36-1.21.21-3.56,1.47-5.39,1.26-1.83,3.3-4.24,4.29-4.4.99-.16,3.04.63,2.62,2.51-.42,1.89-3.56,4.19-3.56,4.19"/>
      <path class="cls-4" d="M358.71,357.77c-.52-.55.31-2.51,1.94-4.4,1.62-1.89,2.93-1.52,3.61-.79.68.73.26,1.94-.79,3.67-1.05,1.73-3.14,3.25-4.77,1.52"/>
      <path class="cls-4" d="M365.52,350.39c-.42-1.1-.37-1.68,1.1-3.3,1.47-1.62,2.62-2.57,3.56-2.09.94.47,1.68,1.26.58,2.88-1.1,1.62-2.57,3.2-3.2,3.3-.63.1-2.04-.79-2.04-.79"/>
      <path class="cls-4" d="M361.73,374.36c-1.19-.59-1.45-1.53-.38-2.51.71-.66,5.52-6.42,6.04-6.88.52-.45,2.2-.07,1.85,1.57-.35,1.64-1.47,2.44-2.1,3.42-.63.98-3.14,3.53-3.53,3.8-.38.28-1.46.8-1.89.59"/>
      <path class="cls-3" d="M341.06,320.48s-9.9-13.72-10.81-16.55c-.92-2.83,11.3-17.49,14.77-21.16,3.48-3.67,4.56-5.66,4.56-5.66l18.72,25.45-15.19,19.69-12.05-1.78Z"/>
      <path class="cls-4" d="M337.92,307.25c-.87.66-2.2.91-3,0-.8-.91.14-2.09,1.5-3.56,1.36-1.47,2.37-2.41,3.28-2.48.91-.07,1.61.66,1.26,1.85-.35,1.19-3.04,4.19-3.04,4.19"/>
      <path class="cls-4" d="M341.05,311.44c-.85-.62-1.28-1.08-.72-2.06s2.83-3.7,3.81-3.88c.98-.17,1.74.98,1.19,1.89-.56.91-2.51,3.28-2.79,3.6-.28.31-.96.83-1.48.45"/>
      <path class="cls-4" d="M342.49,299.33c-.74-.25-.59-2.03.77-3.91,1.36-1.89,3.21-3.11,4.23-3.28,1.01-.17,1.64,1.33,1.29,2.2-.35.87-2.28,3.14-3.27,3.98-.99.84-1.76,1.43-3.02,1.01"/>
      <path class="cls-4" d="M346.61,303.06c-.41-.32,0-1.71,1.68-3.18,1.68-1.47,2.83-1.05,3.56-.42s-.28,2.17-1.57,3.21c-1.29,1.05-1.92,1.75-3.67.38"/>
      <path class="cls-4" d="M352.44,308.68c-.45-.34.17-2.58,1.5-3.74,1.33-1.15,3.42-1.78,4.08-.84.66.94-.52,2.09-1.47,3.35-.94,1.26-3.11,1.99-4.12,1.22"/>
      <path class="cls-4" d="M346.86,313.47c1.28-1.38,2.86-3.14,3.67-3.18.8-.03,1.68.94,1.36,2.06-.32,1.12-3.81,4.19-4.37,4.5-.56.31-1.79.28-2.01-.35-.22-.63-.38-1.17,1.35-3.04"/>
      <path class="cls-3" d="M358.98,324.31c-.06.7,4.4,2.72,5.65,2.98,1.26.26,7.02-5.76,7.91-7.07.89-1.31,3.67-.68,3.46.94-.21,1.62-6.76,9.58-6.86,9.95-.1.37,6.44,5.24,8.96,8.54,1.68.58,16.39-21.68,21.32-27.7,4.92-6.02,5.45-7.42,5.45-7.42,0,0,.21-9.39-7.86-14.73-8.07-5.34-15.08-5.24-15.08-5.24l-9.95,12.04s2.83,3.95,2.41,5.9c-.42,1.96-15.15,18.89-15.39,21.8"/>
      <path class="cls-4" d="M367.77,319.54c-.88,1.16-3.61,2.93-4.35,1.89-.73-1.05,1.89-3.88,3.56-6.18,1.68-2.3,3.09-2.57,3.88-1.94.78.63-.84,3.25-3.09,6.23"/>
      <path class="cls-4" d="M377.41,328.2c-1.54,2.2-4.16,4.16-4.82,4.05-.66-.1-1.64-.8-1.68-1.68-.03-.87,4.16-5.69,5.73-6.84s2.94-1.92,3.23-.31c.29,1.61-2.47,4.78-2.47,4.78"/>
      <path class="cls-4" d="M380.41,309.94c-.91,1.26-4.16,3.98-4.26,4.96-.1.98.1,1.78,1.47,1.61,1.36-.18,3.32-1.68,5.73-4.78,2.41-3.11,2.44-4.64,1.85-5.03-.59-.38-3,.77-4.78,3.25"/>
      <path class="cls-4" d="M385.51,316.64c-.9-.34-.49-2.27,1.11-4.75s4.4-5.73,6.08-5.8c1.68-.07,2.16.91,1.61,2.2-.56,1.29-3.35,5.27-4.92,6.74-1.57,1.47-1.35,2.55-3.87,1.61"/>
      <path class="cls-4" d="M382.82,302.61c-1.43,2.06-4.57,4.85-5.45,5.03-.87.17-1.88-.94-1.82-1.82.07-.87,7.82-9.78,8.9-10.33,1.08-.56,1.85.8,1.85,1.64s-3.49,5.48-3.49,5.48"/>
      <path class="cls-4" d="M388.37,303.9c-.84.1-1.08-1.08-1.05-1.89.03-.8,2.97-4.54,3.98-5.13,1.01-.59,2.65,1.36,2.62,2.58-.04,1.22-3.28,4.16-5.55,4.43"/>
      <path class="cls-4" d="M376.64,299.01c-.53-.69-1.43-2.03,1.47-5.27,2.9-3.25,4.57-4.96,5.8-4.82,1.22.14,1.82,1.26.7,3.14-1.12,1.89-4.64,5.76-5.27,6.46-.63.7-2.19,1.14-2.69.49"/>
      <path class="cls-3" d="M382.75,343.53c-.6-.52-1.7,4.29,2.76,5.55,4.46,1.26,21.01,6.18,21.01,6.18l20.01-25.74s-18.02-5.89-21.05-7.26c-3.04-1.36-4.29-1.68-7.12,1.26-2.83,2.93-4.43,4.5-4.43,4.5,0,0,1.65.79.61,2.2-1.04,1.41-2.46,2.83-3.14,2.93-.68.1-1.15.05-1.15.05l-2.41,3.4s.99,1.89-1.36,4.4c-2.36,2.51-2.93,3.2-3.72,2.51"/>
      <path class="cls-4" d="M390.78,344.58c-1.01,1.26-2.34,1.96-3.18,1.29-.84-.66-.59-1.47.35-3.39.94-1.92,4.02-3.46,4.71-2.41.7,1.05-1.89,4.5-1.89,4.5"/>
      <path class="cls-4" d="M400.49,346.12c-.8,1.49-2.2,2.29-3.39,1.63-1.19-.66-1.05-1.82.45-4.36,1.5-2.55,3.04-2.48,3.98-2.06.94.42.77,2.3.38,2.9-.38.59-1.43,1.9-1.43,1.9"/>
      <path class="cls-4" d="M403.77,337.98c-.51-.54.07-1.85,1.54-3.77,1.47-1.92,2.69-1.89,3.49-1.29.8.59-.07,2.48-1.15,3.88-1.08,1.4-2.86,2.27-3.88,1.19"/>
      <path class="cls-4" d="M398.11,335.92c-.52.77-2.55,2.03-3.56,1.4-1.01-.63-.52-1.99.24-2.86.77-.87,1.92-2.2,2.93-2.51,1.01-.31,1.85.38,1.88.84.04.45-1.5,3.14-1.5,3.14"/>
      <path class="cls-3" d="M393.92,282.41s5.11,1.61,6.37,3.66c2.25-1.51,5.29-5.6,5.24-6.33-.05-.73-3.51-3.61-5.24-3.46-1.73.16-6.37,6.13-6.37,6.13"/>
      <path class="cls-3" d="M395.79,274.35c-.94.37-1.48-1.36-1.87-3.3-.39-1.94-.45-3.2,0-3.67.45-.47,12.09,3.32,18.01,7.47,5.91,4.16,7.17,7.24,6.38,8.45-.79,1.2-8.43,4.19-9.85,1.94-.94-1.83,2.98-5.08,2.83-6.91-.16-1.83-7.38-5.92-8.8-6.65-1.41-.73-3.67-.47-4.56.63-.89,1.1-2.15,2.04-2.15,2.04"/>
      <path class="cls-3" d="M398.56,261.01s15.17,6.12,20.54,8.97c-.57-2.64-5.67-7.66-8.6-8.58-6.14-1.93-11.05-.86-11.94-.39"/>
      <path class="cls-3" d="M420.98,252.56c-.52-.37-5.66-2.98-7.75-2.98-1.77-.24,1.15-3.61,4.29-3.2,3.14.42,5.76,1.68,5.45,4.19-.31,2.51-1.99,1.99-1.99,1.99"/>
      <path class="cls-3" d="M425.22,256.17s3.72,4.45,4.61,4.97c.89.52.84-2.41,0-4.35-.84-1.94-1.24-3.04-1.98-3.04s-2.63,2.41-2.63,2.41"/>
      <path class="cls-4" d="M351.95,430.78c-1.75,2.58-2.1,6.63.49,9.29,2.58,2.65,6.42,1.54,6.42,1.54,0,0,4.12,4.47,4.89,5.66.77,1.19,3.63-.21,3-2.93-.63-2.72-2.16-4.26-2.16-4.26,0,0,4.09-4.34,2.25-8.31-1.83-3.98-4.98-4.68-6.72-4.43-1.75.25-1.61-.14-1.61-1.73s-.84-4.66-2.23-4.8c-1.4-.14-2.44,3.91-2.44,6.01s-1.89,3.98-1.89,3.98"/>
      <path class="cls-3" d="M355.36,431.54c-.63.26-2.02,1.99-1.36,4.14.65,2.15,1.55,3.06,2.3,3.27.76.21,1.78-.29,1.91-.71.13-.42-1.49-1.78-2.02-3.82-.52-2.04-.84-2.88-.84-2.88"/>
      <path class="cls-3" d="M359.29,430.54c-.33.08-.97,1.65,0,3.69s1.78,2.51,2.54,2.3c.76-.21,1.86-1,1.57-2.98s-2.36-3.47-4.11-3.02"/>
      <path class="cls-4" d="M370.39,402.97s-2.26-1.83-3.07-3.35c-.81-1.52,1.02-2.99,3.28-2.67s3.41,1.26,3.41,1.26c0,0,6.76-5.66,12.67-3.51,5.92,2.15,10.21,6.86,9.37,17.96,2.93,1.62,2.86,3.56,2.34,4.99-.52,1.43-3.39.66-3.91.24s-1.26-.94-1.26-.94c0,0-3.84,4.47-11.31,4.33-7.47-.14-10.93-5.03-11.7-8.52-.77-3.49.17-9.79.17-9.79"/>
      <path class="cls-3" d="M374.86,404.38s-1.01,5.1,0,7.51c1.01,2.41,4.43,4.4,7.68,4.26,3.25-.14,5.97-.8,6.04-2.1.07-1.29-1.57-2.06-2.23-2.02s-1.92,0-2.51-.28c-.59-.28-.94-3.07.8-3.84s5.24.38,6.46,1.78c.14-1.22-1.05-6.04-3-8.45-1.96-2.41-6.63-2.79-9.36-.59,2.51,1.33,2.9,2.23,2.69,3.32-.21,1.08-1.64,1.82-3.63,1.47-1.99-.35-2.93-1.05-2.93-1.05"/>
      <path class="cls-4" d="M377.9,414.09c-.45-.7-.66-2.02.35-3.04,1.01-1.01,2.13-2.2,3.39-1.68,1.26.52,1.22,1.57.98,2.58-.24,1.01-2.02,2.58-2.48,2.76-.46.18-2.24-.63-2.24-.63"/>
      <path class="cls-4" d="M389.4,385.9c-.73-.77-.37-5.03,2.72-5.24,3.09-.21,4.45,1.68,3.98,3.88-.47,2.2-4.29,3.88-6.7,1.36"/>
      <path class="cls-4" d="M407.73,377.88c-1.15-1.73-.89-4.14,1.73-5.13,2.62-1,4.66-.16,3.82,2.57-.84,2.72-2.67,3.4-3.35,3.46-.68.05-2.2-.89-2.2-.89"/>
      <path class="cls-2" d="M242.65,413.94s-34.41-7.77-53.89-14.74c-19.48-6.96-27.25-12.9-33.53-20.2"/>
      <path class="cls-2" d="M155.88,348.71s8.37-10.32,36.86-20.37c28.49-10.05,50.44-13.09,50.44-13.09"/>
      <path class="cls-2" d="M160.08,410.29s24.49,64.13,134.82,89.27c110.33,25.14,192.45-14.92,218.99-32.6,26.54-17.68,42.26-33,57.44-61.09"/>
      <path class="cls-2" d="M487.84,413.94s33.87-6.88,54.54-15.51c20.67-8.64,28.26-16.56,32.57-21.67"/>
      <path class="cls-2" d="M487.22,315.03s29.81,6.61,49.5,13.52c19.69,6.91,38.22,21.37,38.22,21.37"/>
      <path class="cls-2" d="M570.94,322.68s-14.6-32.65-50.63-56.93c-36.03-24.28-63.68-29.87-63.68-29.87"/>
      <path class="cls-2" d="M160.92,316.53s16.23-42.97,84.32-70.19c68.09-27.22,99.38-24.14,111.39-24.14s53.72,1.9,70.74,6.15"/>
      <path class="cls-2" d="M365.25,155.24s-7.21,74.17-6.27,78.28"/>
      <path class="cls-2" d="M388.43,156.5s25.96,17.85,43.75,67.51"/>
      <path class="cls-2" d="M337.83,157.01s-21.28,17.98-33.85,47.31c-12.57,29.33-18.26,55.72-18.26,55.72"/>
      <path class="cls-2" d="M291.73,168.47s-39.07,21.47-65.88,64.9c-26.81,43.43-32.18,91.84-32.22,94.66"/>
      <path class="cls-2" d="M436.53,167.65s40.49,22.7,68.7,72.84c28.21,50.15,30,87.55,30,87.55"/>
      <path class="cls-2" d="M193.55,400.83s3.96,52.47,37.11,100.4c33.14,47.93,73.54,65.01,73.54,65.01"/>
      <path class="cls-2" d="M285.99,470.66s7.69,36.45,22.13,61.31c14.44,24.86,24.24,36.31,36.8,43.29"/>
      <path class="cls-2" d="M356.02,496.8s4.28,47.45,11.1,78.45"/>
      <path class="cls-2" d="M442.03,472.47s-9.14,34.07-21.99,60.61c-12.85,26.54-35.13,42.93-36.03,42.18"/>
      <path class="cls-2" d="M534.44,401.45s-7.72,62.36-37.32,100.9c-29.6,38.55-49.07,51.23-76.62,65.56"/>
      <polygon class="cls-3" points="283.1 522.33 294.55 522.33 297.98 511.22 301.12 522.33 312.01 522.33 303.74 528.98 306.98 539.77 297.98 533.01 288.44 539.77 291.9 528.87 283.1 522.33"/>
      <polygon class="cls-3" points="197.63 461.3 209.07 461.3 212.5 450.19 215.65 461.3 226.54 461.3 218.27 467.95 221.51 478.74 212.5 471.98 202.97 478.74 206.43 467.84 197.63 461.3"/>
      <polygon class="cls-3" points="197.63 256.3 209.07 256.3 212.5 245.2 215.65 256.3 226.54 256.3 218.27 262.95 221.51 273.74 212.5 266.99 202.97 273.74 206.43 262.85 197.63 256.3"/>
      <polygon class="cls-3" points="268.16 209.8 279.6 209.8 283.03 198.69 286.17 209.8 297.07 209.8 288.79 216.45 292.04 227.24 283.03 220.48 273.5 227.24 276.96 216.34 268.16 209.8"/>
      <polygon class="cls-3" points="350.79 182.14 362.24 182.14 365.67 171.04 368.81 182.14 379.7 182.14 371.43 188.8 374.67 199.58 365.67 192.83 356.13 199.58 359.59 188.69 350.79 182.14"/>
      <polygon class="cls-3" points="423 196.42 434.44 196.42 437.87 185.31 441.01 196.42 451.9 196.42 443.63 203.07 446.88 213.86 437.87 207.1 428.34 213.86 431.79 202.96 423 196.42"/>
      <polygon class="cls-3" points="501.76 256.87 513.21 256.87 516.64 245.77 519.78 256.87 530.67 256.87 522.4 263.52 525.65 274.31 516.64 267.56 507.11 274.31 510.56 263.42 501.76 256.87"/>
      <polygon class="cls-3" points="418.29 521.35 429.74 521.35 433.17 510.25 436.31 521.35 447.2 521.35 438.93 528 442.17 538.79 433.17 532.03 423.63 538.79 427.09 527.89 418.29 521.35"/>
      <polygon class="cls-3" points="502.48 461.3 513.93 461.3 517.36 450.19 520.5 461.3 531.39 461.3 523.12 467.95 526.37 478.74 517.36 471.98 507.83 478.74 511.28 467.84 502.48 461.3"/>
      <path class="cls-3" d="M189.74,347.75c1.4-.98-.21-5.03-2.23-6.49-2.03-1.47-3.56-1.68-5.03-3.21-1.47-1.54-2.17-1.33-3-.84-.84.49-.49,3.62.77,5.09,1.26,1.47,2.17,1.68,1.61,2.94-.56,1.26-3,2.79-4.96,8.17-1.95,5.38-1.67,15.64-1.67,15.64,0,0-3.14,1.68-5.87,2.3-2.72.63-3.98.14-4.96,1.12-.98.98-.56,6.91.7,8.03,1.26,1.12,4.47-.21,6.01-.91,1.54-.7,3.35-1.82,3.35-1.82,0,0,.28,1.67.7,5.03.42,3.35,1.4,6.77,3.56,6.77s2.65-2.51,2.72-3.63c.07-1.12-.21-3.14,0-3.21.21-.07.63,2.23,3.63,1.33.56,1.4,2.79,7.89,4.68,7.89s4.47-1.75,4.82-4.96c1.4,1.47,3.21,1.96,5.73-1.75,2.51-3.7,6.07-12.78,6.14-13.48.07-.7.21-1.95,0-2.16-.21-.21,1.68-.7,1.68-.7,0,0-1.68,8.52-2.3,13.2-.63,4.68,2.23,9.92,8.59,9.85,6.35-.07,11.31-.14,14.52-2.17,3.21-2.02,1.68-5.8.91-7.12-.77-1.33-4.08-5.31-6.02-7.66-1.94-2.36-2.25-2.31-3.04-2.1-.79.21-.21,2.51.37,3.61.58,1.1,2.36,6.08.73,7.7-1.62,1.62-5.39,1.1-6.91,1.1s-2.67-1.52-2.88-2.25c-.21-.73.84-6.13,2.04-9.53,1.21-3.4,3.61-7.33,3.72-8.8.11-1.47-1.78-4.19-4.66-4.71-2.88-.52-4.3.68-4.61,1.05s-4.45,4.66-5.6,4.82-1.62-.72-1.36-1.49c.26-.76,2.2-1.02,4.56-2.91s5.66-3.51,7.91-3.67c2.25-.16,6.08,1.05,7.07-2.2s-1.36-6.23-3.98-6.23-4.82,1.26-9.27,3.56c-4.45,2.3-9.22,4.08-12.05,3.3.05-2.36-.99-4.45-2.1-5.6-1.1-1.15-4.08-2.51-4.08-2.51l.09-.38Z"/>
      <path class="cls-3" d="M197.98,353.32c-.68-.31-.25-1.89,1.55-2.88,1.8-.99,4.58-2.72,5.99-4.61-.16-.79-2.87-2.09-3.84-4.71-.98-2.62-.14-2.88,3.42-2.88s8.64.94,9.95,2.25c1.31,1.31,1.52,4.82,1.1,6.18-.42,1.36-2.1,2.04-3.4,2.04s-1.78-.16-5.66,2.04c-3.87,2.2-6.33,3.82-9.11,2.57"/>
      <path class="cls-4" d="M180.96,362.54c-.52.47-.79,3.72-.47,4.71.31,1,1.68-.42,1.68-1.73s-.31-2.98-.31-2.98h-.89Z"/>
      <path class="cls-4" d="M188.87,360.71s.16-5.39-.42-5.92c-.58-.52-2.25,1.99-2.25,1.99,0,0,2.15.26,2.67,3.93"/>
      <path class="cls-4" d="M188.66,370.71c.49-.03,0,9.79,0,9.79,0,0-1.26-.54-1.36-1.5-.1-.96.37-8.24,1.36-8.29"/>
      <path class="cls-4" d="M180.35,377.62c.82.58,1.45.21,1.45-.99s.07-2.15-.54-2.3c-.61-.16-1.19.37-1.19.73s.28,2.57.28,2.57"/>
      <path class="cls-4" d="M195.05,379.87l.42-17.75s2.3.84,2.46,2.04c.16,1.2-.71,4.03-.57,4.77.15.73,1.25,2.41,1.25,3.25s-3.14,7.44-3.56,7.7"/>
      <path class="cls-4" d="M181.54,356.1c-.24-.35.63-3.04,1.01-3.53.38-.49.52.24.49.49-.04.24-1.5,3.04-1.5,3.04"/>
      <path class="cls-3" d="M515.04,350.49s-3.46-2.57-4.82-4.87c-1.36-2.3.16-3.56,1.62-3.56s5.34-.78,8.33-2.51c2.99-1.73,2.57-3.25,6.13-2.72,3.56.52,7.59,3.3,7.38,5.87-.21,2.57-3.04,3.4-5.76,5.34-2.72,1.94-7.75,5.81-7.85,6.23-.11.42,1.62,2.72,1.62,2.72,0,0,5.45-3.88,8.27-3.51,2.83.37,6.28,3.14,6.07,4.92-.21,1.78-4.92,3.25-7.65,4.19-2.72.94-5.45,2.36-5.52,2.98-.08.63,5.79,3.93,9.98,8.17,4.19,4.24,14.4,7.23,17.13,8.85s5.18,3.61,4.92,5.6c-.26,1.99-5.5,3.93-12.57,2.36-7.07-1.57-11.99-8.54-13.3-10.42-1.31-1.89-4.4-8.43-11-8.8-.05,3.56.16,9.69-4.03,13.09-4.19,3.4-9.11,4.03-11.99,3.98-2.88-.05-4.45-1.2-4.61-2.25-.16-1.05,1.15-1.78,3.46-1.83,2.3-.05,6.49-3.46,8.22-5.92,1.73-2.46,1.99-6.08,1.99-6.08,0,0-3.67.47-6.55-.47-2.88-.94-2.88-3.88-2.88-5.6s1.78-2.62,2.62-2.57c.84.05.89.99,2.88.23,1.99-.76,7.18-1.86,6.7-4.84-.58-.16-2.09.31-2.72-.63-.63-.94,1.36-3.72,2.36-4.66.99-.94,1.57-3.3,1.57-3.3"/>
      <path class="cls-5" d="M90.35,183.12l.41-.91c.73-.7,1.57-1.22,2.53-1.57.96-.35,1.92-.26,2.89.25,1.59.67,2.81.87,3.64.61.83-.26,1.94-.89,3.32-1.87.91-.58,2.08-1.09,3.51-1.55,1.43-.46,2.64-.46,3.64.02.46.3.89.83,1.32,1.57.42.74.85,1.39,1.27,1.94.01,1.85-.07,3.52-.24,5.02-.18,1.49-.36,3.07-.54,4.72.51,1.4,1.16,2.6,1.93,3.61.77,1.01,1.57,2.08,2.38,3.22.18.32.39.46.61.41.23-.04.48-.27.75-.68.21-.52.5-1.21.86-2.09.36-.88.44-1.71.24-2.5-.38-.52-.76-.9-1.15-1.16-.39-.26-.81-.54-1.26-.84-.88-.65-1.29-1.19-1.24-1.62.05-.42.35-1.08.88-1.98.21-1.11.82-1.89,1.81-2.34.99-.45,2.05-.28,3.15.53.36.44.66.61.9.5.24-.1.5-.42.79-.95.44-1.74,1.04-3.22,1.78-4.43.75-1.21,1.96-2.34,3.64-3.39,2.2-.44,3.93-.71,5.19-.82,1.26-.11,2.49.56,3.68,2.02,1.11.81,2.14,1.6,3.1,2.37.96.78,1.93,1.72,2.9,2.83,1.44,1.09,2.79,2.15,4.06,3.16,1.27,1.01,2.62,2.1,4.08,3.27.92.68,1.86,1.36,2.79,2.02.94.66,1.84,1.48,2.7,2.45.77.71,1.53,1.37,2.28,1.97.75.6,1.43,1.43,2.03,2.49.7.93.88,1.68.57,2.25-.32.58-1.04.92-2.16,1.02-1.39-.27-2.95-.29-4.65-.05-1.71.24-3.27.68-4.68,1.31-.75.42-1.41.59-2,.49-.59-.1-1.11-.26-1.55-.49-.82-.15-1.13-.42-.93-.82.2-.39.46-.74.8-1.05,1.62-1.15,2.86-2.45,3.69-3.9.84-1.45.35-2.94-1.45-4.47-2.55-2.49-5.02-4.76-7.44-6.8-2.42-2.04-5.15-3.98-8.19-5.82-.59-.4-1.19-.63-1.8-.71-.61-.08-1.28.1-2.02.52-.7.46-1.28,1.03-1.75,1.74-.47.7-.81,1.41-1.03,2.12l-2.19,6.23c-.32.77-.19,1.73.39,2.88.58,1.15,1.25,1.64,2.01,1.49l2.28-2.23c.59-.59,1.11-.8,1.56-.64.45.17.85.67,1.22,1.5.19,1.58.09,2.86-.3,3.84-.39.99-.59,2.21-.57,3.66.01,1.06.23,1.7.65,1.91.42.21.96.02,1.63-.59.56-.94,1.18-1.67,1.87-2.2.68-.53,1.47-1.22,2.37-2.07.67-.41,1.21-.46,1.63-.15.42.31.6.85.55,1.6l-1.24,7.46c.33,1.08.87,1.93,1.6,2.55.73.62,1.47,1.22,2.22,1.78.5.33,1,1.06,1.5,2.19.5,1.12.56,2.02.18,2.68-1.28.53-2.52.75-3.74.65-1.22-.09-2.37-.27-3.45-.53-.44-.23-.8-.24-1.07-.03-.27.21-.45.52-.53.93-.38,1.06-.63,2.11-.77,3.14-.13,1.03-.42,1.99-.88,2.87-.73.7-1.32,1.11-1.76,1.24-.45.13-1.07-.04-1.88-.52-1.17-.12-1.83-.65-2-1.58s-.03-1.88.41-2.83c.5-.65.83-1.34.98-2.06.15-.72.13-1.67-.06-2.86-.13-.48-.29-.79-.48-.91-.18-.12-.34-.03-.48.27-.29.93-.55,1.76-.78,2.49-.23.74-.61,1.45-1.14,2.15-.73.5-1.53.67-2.41.51-.88-.16-1.68-.29-2.41-.38-.91-.21-1.29-.55-1.15-1.01.14-.46.39-1,.74-1.63.3-.45.46-.98.46-1.57,0-.59-.32-1.1-.95-1.53-.68-.06-1.35-.03-1.99.1-.64.13-1.07.55-1.29,1.26-.21,1.3-.43,2.52-.66,3.65-.23,1.13-.24,2.52-.03,4.17.86,1.57,1.88,2.77,3.05,3.62,1.17.85,2.62,1.56,4.35,2.12,1.56.52,2.98,1.14,4.24,1.85,1.27.72,2.52,1.62,3.76,2.71.57.52.87.98.9,1.39.02.41-.29.86-.95,1.34-1.61.83-3.29,1.25-5.04,1.27s-3.42-.22-5.02-.69c-2.41-.82-4.35-1.83-5.83-3.01-1.48-1.18-3.15-2.54-5.03-4.06-.61-1.06-1.17-2.01-1.69-2.86-.52-.84-1.18-1.7-1.99-2.56-.36-.83-.53-1.57-.5-2.21.03-.64.29-1.22.78-1.75.56-1.14,1.04-2.25,1.44-3.33.4-1.08.66-2.37.8-3.85.09-.53.08-.93-.03-1.21-.11-.27-.42-.48-.92-.61-.99-.4-1.42-.8-1.31-1.22.11-.42.35-.8.72-1.15,1.4-1.1,1.99-2.24,1.78-3.4-.21-1.16-.82-2.27-1.82-3.34-.58-.32-1.06-.35-1.47-.09-.4.26-.69.56-.85.91-.79.99-1.66,1.85-2.62,2.59-.96.74-2.1,1.42-3.44,2.04-1.12.5-1.99.42-2.59-.25-.6-.67-.72-1.57-.36-2.71.55-.82.95-1.77,1.21-2.84.26-1.08.44-2.17.53-3.3.18-.67.39-1.37.62-2.1.23-.73.24-1.54.03-2.4l-4.77-4.97-3.13-3.87c-.23-.15-.42-.36-.57-.63-.15-.26-.26-.59-.34-.97M112.15,213.68l-.41,2.09c-.12.58-.08.85.14.83.21-.02.41-.27.59-.74.14-.5.26-1.12.37-1.88.11-.75-.12-.85-.68-.31M114.12,205.72c-.09.14-.15.34-.17.62-.02.28.19.44.62.47.23.15.38.14.47-.03.08-.17.22-.3.4-.37.15-.82.09-1.34-.19-1.56-.28-.22-.66.07-1.13.88M121.18,199.59c-.4.99-.71,1.86-.96,2.61-.24.76-.26,1.57-.05,2.43.2.79.54,1.33,1.03,1.63.49.3.92.86,1.28,1.7.06.3.18.42.36.34.18-.08.4-.3.64-.66.52-.97.48-2.76-.12-5.36-.6-2.6-1.33-3.5-2.19-2.7"/>
      <path class="cls-5" d="M173.01,100.07l.95-.93c.3-.23.72-.38,1.26-.44.54-.06,1.04-.14,1.52-.23,2.27-1.18,4.26-1.4,5.98-.68,1.72.72,3.08,2.1,4.09,4.15.03,1.49.27,2.82.72,3.99.45,1.17.87,2.43,1.27,3.77.51,1.75.98,3.47,1.41,5.17.43,1.7.99,3.39,1.65,5.08.08.28.16.55.24.79.08.24.11.66.07,1.24-.4.65-.92,1.18-1.56,1.6-.64.42-1.4.73-2.29.92-1.18,1.79-2.31,3.42-3.38,4.9-1.08,1.47-2.19,3.13-3.33,4.96-1.04,1.07-1.89,2.51-2.54,4.31-.65,1.8-1.08,3.75-1.29,5.83,0,.55.14.88.39.99.26.11.6.04,1.02-.21,1.27-1.86,2.47-3.6,3.6-5.22,1.14-1.62,2.47-3.32,4-5.11.07-.53.06-.78-.05-.74-.1.04.15-.03.76-.22,1.74-2.49,3.48-4.8,5.21-6.9,1.73-2.11,3.84-4.04,6.35-5.81.96-1.08,1.96-1.73,2.99-1.97,1.03-.23,2.24-.64,3.65-1.23.96-.18,1.88-.04,2.75.43.87.47,1.49,1.08,1.86,1.83-.06.46-.04.89.06,1.29.1.4.24.81.42,1.23,1.23,2.16,2.28,4.26,3.15,6.31.87,2.05,1.68,4.37,2.42,6.97.54,1.52,1.01,2.93,1.42,4.23.41,1.3.83,2.78,1.27,4.45,0,1.09-.18,1.79-.58,2.09-.39.3-1.11.3-2.17,0-.67-.25-1.26-.5-1.77-.77-.51-.26-1.06-.52-1.65-.75-1.03-.45-1.77-.65-2.2-.59-.44.06-.94.44-1.5,1.14-2.17,2.48-4.21,4.87-6.12,7.19-1.91,2.32-3.86,4.88-5.84,7.7-.55.63-1.07,1.05-1.55,1.28-.48.23-1.11.47-1.88.71-1.54.96-3.2,1.27-4.98.91-1.79-.36-3.71-.68-5.78-.96-2.17-.96-3.93-2.07-5.28-3.35-1.35-1.27-2.58-2.83-3.7-4.66-1.48-2.03-2.05-4.06-1.69-6.08.35-2.02,1.54-3.77,3.58-5.25.39-.57.67-1.33.84-2.29.17-.95.28-1.93.34-2.94.05-.38.02-.63-.1-.74-.12-.11-.32-.17-.59-.17-1.14-.51-1.93-1.14-2.38-1.9-.44-.76-1.07-1.45-1.89-2.07-.64-.2-1.31-.32-2.03-.36-.72-.04-1.28,0-1.68.1-1.07-.14-2.11-.3-3.1-.48-.99-.17-2.02-.37-3.08-.59-1.07-1.31-2.24-2.64-3.5-3.99-1.26-1.34-2.45-2.83-3.55-4.46-1.11-1.91-1.14-3.48-.09-4.72,1.05-1.24,2.67-1.64,4.87-1.18,1.27.13,2.42.36,3.45.67,1.03.32,2.06.7,3.09,1.15.49.38.99.81,1.49,1.29.5.48,1.15.83,1.94,1.05.53-.2,1.04-.55,1.52-1.05.48-.5.87-1.04,1.19-1.62.05-.38.13-.75.24-1.11.11-.36.31-.61.6-.77.77-1.34,1.54-2.31,2.32-2.9.78-.6,2-1.08,3.65-1.44.72-.14,1.11-.37,1.18-.69.06-.32-.04-.8-.31-1.42l-1.64-4.32c-.36-.48-.69-.71-.99-.69-.29.02-.59.24-.88.67-1.3,1.54-2.8,2.71-4.49,3.52-1.69.81-3.56,1.44-5.61,1.9-.56.08-.95.04-1.18-.13-.23-.17-.3-.46-.2-.88.95-2.45,2.04-4.44,3.27-6,1.22-1.55,2.69-3.15,4.39-4.79M172.06,122.65l-.42.53c1.18,2.27,2,2.83,2.46,1.68.47-1.15-.21-1.88-2.04-2.21M181.26,115.23l-.42.53c-.88,1.29-1.74,2.57-2.6,3.83-.86,1.27-1.61,2.74-2.26,4.41-.32,1.48-.46,2.5-.45,3.07.02.57.44,1.26,1.27,2.07.24.5.56.67.96.51.39-.16.75-.43,1.08-.82.83-.98,1.53-2.03,2.09-3.14.56-1.11,1.28-2.18,2.16-3.19.18-.48.22-.84.11-1.07-.11-.23-.29-.52-.56-.87-.39-.25-.66-.46-.79-.63-.13-.17-.08-.42.16-.74.82-.63,1.12-1.49.87-2.57-.24-1.08-.79-1.55-1.63-1.39M199.21,125.27l-.71.96c-1.39,1.61-2.7,3.21-3.93,4.8-1.23,1.59-2.49,3.39-3.77,5.4-1.19,1.32-2.2,2.55-3.02,3.69-.82,1.14-1.65,2.55-2.5,4.23l-1.64,5.16c.05,1.33.72,2.63,1.99,3.9,1.27,1.27,2.63,2.07,4.06,2.42.3.12.56.33.79.63.23.3.44.63.63.96.11.6.4.93.86.99s.89-.13,1.31-.58c2.54-2.9,4.93-5.92,7.17-9.07,2.24-3.15,5.19-5.57,8.85-7.26.65-.5,1.08-1.04,1.28-1.64.2-.6.19-1.4-.03-2.4-.86-2.3-1.67-4.47-2.43-6.5-.76-2.03-1.71-4.16-2.85-6.39-.74-1.15-1.72-1.47-2.94-.95-1.22.52-2.26,1.07-3.12,1.66M193.54,138.66c.62-.81,1.26-1.51,1.92-2.08.66-.57,1.68-.86,3.04-.88.74-.02,1.26.12,1.55.41.29.29.32.77.07,1.44l-2.36,4.48c-.44.96-.8,1.88-1.08,2.78-.28.9-.66,1.71-1.15,2.42l-2.73,3.73c-.49.17-.83.19-1.03.07-.2-.12-.32-.48-.35-1.07.15-.8-.03-1.21-.53-1.24-.5-.03-1.05-.03-1.64.01-1.13-.04-1.32-1.03-.56-2.97.75-1.95,1.39-3.16,1.93-3.63l2.93-3.47Z"/>
      <path class="cls-5" d="M244.48,70.92c.43-.26.87-.41,1.31-.47.44-.06.85-.47,1.24-1.23l5.4-2.47c1.44-.36,2.45-.3,3.03.17.59.47,1.3,1.29,2.14,2.45l-.21,1.45c-.84,1.49-1.08,3.05-.74,4.69.34,1.65.54,3.26.61,4.85.14.42.37.74.71.98.34.23.82.36,1.46.38.74.16,1.29.63,1.63,1.41.34.78.26,1.54-.24,2.28-1.34,1.53-1.83,3.19-1.47,4.97.36,1.78.78,3.43,1.28,4.93.57.33.97.33,1.21,0,.23-.34.52-.68.87-1.02.66-1.83,1.57-2.75,2.72-2.75,1.15,0,1.59.81,1.33,2.46-.89,2.88-2.17,5.69-3.83,8.43-1.66,2.74-3.4,5.29-5.2,7.67-.77,1-1.44,1.89-2.02,2.65-.58.77-1.32,1.56-2.2,2.36-1.63,1.34-3.27,1.58-4.9.71-1.64-.87-2.47-2.31-2.5-4.32-.17-.52-.22-1.14-.14-1.85.08-.72.34-1.2.77-1.46,1.27-.88,2.22-2.23,2.86-4.05.64-1.82,1.27-3.53,1.9-5.12.21-.93.12-1.56-.28-1.89-.4-.33-1.04-.55-1.94-.66-.67-.12-1.27-.26-1.77-.41-.51-.15-1.08-.38-1.7-.69-1.35-.59-2.08-1.34-2.21-2.25-.13-.91.34-1.68,1.4-2.32.97-.55,1.88-1.14,2.74-1.77.86-.63,1.63-1.57,2.31-2.83-.08-1.3-.36-2.49-.83-3.57-.47-1.08-.88-2.32-1.22-3.7-.17-.52-.46-.83-.86-.92-.41-.09-.84-.07-1.31.09-1.12.08-2.11.06-2.96-.06-.85-.12-1.85-.54-3-1.26-.22-.16-.41-.33-.56-.51-.15-.18-.15-.41-.01-.69.28-.38.63-.67,1.05-.86.42-.2.82-.44,1.18-.73.87-.34,1.46-.68,1.78-1.02.32-.34.72-1.01,1.19-2.03M255.22,100.38l-.73.41c-.5.57-.95,1.26-1.34,2.08-.39.82-.71,1.65-.96,2.47-.12.33-.06.52.19.58.25.06.57-.03.95-.27.8-.55,1.7-1.47,2.72-2.75,1.01-1.28.74-2.13-.83-2.53M281.91,51.35l.99-.67c1.87-.61,3.64-.58,5.3.11,1.67.69,2.59,2.18,2.77,4.48.08.95.05,1.87-.09,2.75-.14.88-.24,1.85-.3,2.9,0,2.3.06,4.47.16,6.51.1,2.04.06,4.3-.1,6.77-.11.55-.26,1.24-.45,2.05-.19.81-.53,1.44-1.02,1.89-1.11.65-1.72,1.29-1.84,1.9-.12.61.06,1.45.52,2.51.19.92.47,1.53.86,1.83.39.3,1.12.34,2.19.1,1.26-.01,2.25.37,2.96,1.14.71.77.64,1.76-.23,2.97-1.6,1.79-2.36,3.28-2.29,4.46.07,1.18-.04,2.63-.34,4.34.07.38.26.58.58.59.32.01.68-.08,1.08-.27,2.86-1.63,5.82-2.96,8.87-4,3.05-1.03,6.38-.73,9.97.91.73.28,1.06.69,1.01,1.22-.05.54-.38,1.05-.97,1.53l-7.32,2.41c-.4.02-.75.03-1.06.05s-.7.02-1.17,0c-2.54.32-4.95,1.09-7.23,2.29-2.28,1.21-4.55,2.68-6.8,4.4-1.01.79-2,1.48-2.99,2.06-.99.59-2.02,1.26-3.09,2.01-1.84,1.58-3.51,2.81-5.01,3.68-1.5.87-3.38,1.44-5.65,1.73-.92-.33-1.73-.71-2.45-1.14-.72-.43-1.54-.66-2.47-.7-1.02-.64-1.27-1.54-.75-2.69.51-1.15,1.24-1.27,2.17-.37.55.28,1.09.42,1.61.42.52,0,1.04-.08,1.56-.25,2.6-1.37,5-2.81,7.21-4.32,2.21-1.5,4.61-3.14,7.19-4.91.64-.67.77-1.28.4-1.81-.38-.54-.97-.82-1.79-.84-.52.17-.86.18-1.02.03-.16-.15-.22-.49-.16-1.03-.14-.41-.34-.67-.59-.75-.26-.09-.56-.13-.91-.13-1.23-.23-2.35-.31-3.36-.23-1.01.07-2.04.28-3.08.62-1.25.24-2.03-.09-2.36-.99-.33-.9.05-1.64,1.12-2.23,1.19-.57,2.29-1.14,3.27-1.73.99-.58,2.08-1.42,3.28-2.5.59-1,.66-1.93.2-2.79-.45-.86-1.18-.87-2.17-.02-.68.39-1.35.75-2.03,1.06-.68.31-1.33.63-1.98.95l-1.35.1c-.88-.75-1.36-1.76-1.43-3.03-.07-1.27.33-2.42,1.19-3.46.43-.6.61-1.03.52-1.29-.08-.26-.43-.35-1.04-.26l-2.13.35c-.93-.21-1.71-.57-2.34-1.09-.63-.51-1.18-1.04-1.64-1.57-.62-.49-1.16-.73-1.62-.72-.46,0-.89-.24-1.28-.74-.39-2.23-.87-4.36-1.45-6.39-.58-2.02-.63-4.33-.15-6.9.12-.85.28-1.37.47-1.58s.71-.25,1.56-.12c.27.14.52.27.74.41.22.13.47.12.76-.04,2.88-2.27,5.59-4.43,8.14-6.48,2.55-2.05,5.49-3.88,8.81-5.49M270.97,62.72c-.49.28-.97.74-1.44,1.38-.48.65-.73,1.29-.75,1.93.15.64.54,1.19,1.15,1.65.61.46,1.16.99,1.64,1.58.69.7,1.36.75,2,.16.64-.59.81-1.26.5-2.02l-1.75-3.22c-.07-.38-.19-.7-.36-.96-.17-.26-.5-.42-.98-.5M273.79,73.37c-.74.36-1.18.76-1.29,1.2-.11.44.04.94.45,1.49.2.62.37,1.12.49,1.48.12.36.18.89.18,1.58.05.33.18.5.39.52.21.02.48-.17.8-.57.96-1.64,1.45-3.17,1.47-4.59.02-1.42-.8-1.79-2.48-1.12M282.58,52.34l-.62.21c-1.15,1.07-2.22,1.81-3.24,2.23s-2.08,1.36-3.21,2.83c-.33.4-.48.72-.46.97.02.25.33.39.92.43,1.19-.05,2.11.17,2.76.65.65.48,1.19,1.22,1.64,2.22.24.9.62,1.39,1.14,1.48.52.09,1.23.1,2.13.03.71.06,1.14.24,1.31.56.16.32.07.83-.28,1.52-.99,1.36-1.45,2.56-1.36,3.6.08,1.04.87,1.91,2.38,2.63.74.16,1.2.11,1.38-.15.17-.26.29-.74.34-1.45.14-1.49.17-2.92.09-4.31-.08-1.38-.19-2.8-.32-4.25.16-1.95.1-3.85-.19-5.68-.29-1.83-1.75-3.01-4.4-3.52M277.7,81.06c-.45.03-.74.33-.87.89-.13.56.02.89.45.97.47-.15.73-.44.79-.87.06-.42-.06-.76-.37-1"/>
      <path class="cls-5" d="M464.77,60.63l.62-.32c1.51.48,3.02,1.11,4.52,1.89,1.5.79,3.01,1.68,4.54,2.67,1.01,1.18,1.6,2.25,1.78,3.22.18.97-.26,1.95-1.31,2.94-.43.44-.85.79-1.28,1.06-.43.27-.96.42-1.6.44-1.55.2-3.08.4-4.57.59-1.49.19-2.99.31-4.49.35-1.09.17-1.74.48-1.97.93-.23.45-.33,1.1-.32,1.96-.15,1.21-.11,2.46.12,3.73.23,1.28.41,2.62.54,4.04.01.52-.01,1.08-.06,1.7-.05.62-.36,1.09-.92,1.43-.57.16-1,.39-1.28.67-.29.28-.51.66-.66,1.13-.9.69-1.7,1.36-2.39,2-.69.64-1.32,1.42-1.89,2.33-.37.63-.5,1.18-.39,1.64.11.47.6.78,1.47.93,1.98.45,3.85.89,5.6,1.33,1.76.44,3.57,1.04,5.45,1.8l3.39.72c1.35,1,2.71,1.98,4.1,2.96,1.38.98,2.7,2.21,3.96,3.69,1.05,1.76,1.24,3,.56,3.7-.68.7-1.79.96-3.33.76-.98-.36-1.84-.75-2.6-1.16-.76-.41-1.62-.74-2.57-.98-5.71-3.17-11.43-5.22-17.15-6.16-5.72-.94-11.92-1.65-18.59-2.14-1.92-.09-3.72-.19-5.4-.32-1.68-.13-3.53-.08-5.55.15-1.71.15-2.95-.36-3.74-1.52-.78-1.16-1.39-2.61-1.81-4.35.2-1.2.76-2.27,1.66-3.22.9-.95,2.01-1.88,3.32-2.78,1.62-.23,3.19-.16,4.7.23,1.51.39,3.05.83,4.61,1.32.47.15.71.29.72.44,0,.15-.12.38-.39.7-.51.53-.77.98-.77,1.35,0,.37.42.66,1.27.87l6.44.3c.16.05.38.02.67-.09.29-.11.36-.27.2-.5l-1.31-.76c-.53-.34-.83-.65-.91-.93-.08-.28.16-.51.73-.67,1.51-.44,3-.92,4.45-1.44,1.45-.52,2.98-1.04,4.58-1.57,1.3-.68,2.26-1.54,2.87-2.58.61-1.04.82-2.05.61-3.03-.16-.57-.41-1.09-.71-1.56-.31-.47-.4-.91-.27-1.33.07-.95.52-1.71,1.36-2.28.84-.57,1.74-1.22,2.72-1.94.42-.61.66-1.13.7-1.54.04-.42-.31-.8-1.06-1.15-1.93-.61-3.7-1.76-5.31-3.47-1.61-1.71-3.2-3.55-4.75-5.53-.08-.31-.2-.68-.38-1.11-.18-.43-.08-.7.3-.81.79-.5,1.59-.8,2.4-.92.81-.12,1.68-.2,2.62-.25,2.58.18,5.05.3,7.41.35,2.36.05,4.88.13,7.54.22l1.24-.13Z"/>
      <path class="cls-5" d="M564.18,103.07c1.03-.66,1.84-.76,2.42-.3.58.46.66,1.29.25,2.48-.49.66-.67,1.65-.56,2.96.12,1.31.54,2.21,1.28,2.68,1.11-.13,2.1-.21,2.95-.26.85-.05,1.63.05,2.33.3.86.3,1.39.76,1.58,1.38.19.62-.01,1.28-.61,2-.61,1.18-1.32,2.26-2.13,3.22-.82.96-1.8,1.9-2.95,2.82-1.23,1.2-2.45,2.41-3.65,3.62s-2.63,2.47-4.27,3.77c-.42.3-.6.58-.52.84.08.26.37.55.89.86,1.31.9,2.62,1.72,3.94,2.46,1.32.74,2.47,1.74,3.44,3.01.78.78,1.46,1.56,2.05,2.33.58.77,1.12,1.85,1.6,3.22.24,1.06,0,1.83-.68,2.3-.69.47-1.48.52-2.35.15-1.96-1.31-3.91-2.33-5.85-3.06-1.95-.73-3.75-2.08-5.41-4.06-.23-.24-.32-.46-.27-.66.05-.2.26-.23.63-.09,1.03.35,2,.65,2.92.88.91.24,2.04.41,3.39.52.74,0,1.18-.16,1.3-.52.12-.35-.04-.73-.49-1.13l-8.98-4.41c-.6-.11-1.19-.18-1.77-.24-.57-.05-1.11-.2-1.62-.43l-.96-.91c-2.24-.84-4.52-1.47-6.85-1.91-2.33-.43-4.89-.79-7.67-1.08-.44-.05-.7.03-.79.23-.09.21,0,.47.23.79,1.16.73,2.49,1.21,3.97,1.46,1.48.25,3.08.5,4.8.75,2.35.04,3.94.33,4.76.87.82.54,1.87,1.66,3.14,3.34.3.42.34.9.12,1.42-.22.52-.56.91-1.03,1.18-1.62.91-3.41,1.46-5.35,1.65-1.94.19-4.04.65-6.27,1.38-.7.3-1.09.66-1.16,1.08-.08.42.16.9.71,1.45,1.37.54,2.55,1.15,3.53,1.85.98.69,1.93,1.72,2.83,3.07l2.9,2.97c.37.41.46.78.25,1.11-.21.33-.64.52-1.29.57-1.76-.01-3.24-.15-4.43-.42-1.2-.27-2.47-.74-3.82-1.4-.64-.34-1.16-.41-1.56-.24-.4.18-.73.58-.99,1.2-1.06,2.35-2.19,4.35-3.38,6.02-1.2,1.66-3.32,3.04-6.36,4.12l-.46.07c-3-.45-5.59-1.59-7.78-3.41-2.19-1.82-3.77-4.32-4.76-7.5-.63-1.35-1.06-2.66-1.29-3.91-.23-1.26-.5-2.58-.83-3.98-.18-.95.01-1.69.58-2.23.56-.53,1.29-.95,2.19-1.24,3.52-.8,6.66-.95,9.43-.47,2.77.49,5.67,1.03,8.69,1.63.52.12.93.05,1.23-.21.29-.26.4-.69.3-1.31-.59-.77-.69-1.44-.3-2.01.38-.57.98-.75,1.79-.56,1.05.23,2.07.17,3.05-.19.98-.36,1.97-.72,2.98-1.06.28-.2.44-.37.48-.51.04-.14-.12-.24-.49-.31-1.57,0-2.96-.17-4.18-.49-1.22-.33-2.52-.66-3.9-1-1.06-.31-1.77-.97-2.11-1.97-.35-1-.41-2.07-.18-3.2.26-.62.29-1.11.1-1.45-.19-.34-.56-.51-1.1-.51-2.04-.28-4-.57-5.9-.85-1.9-.28-4.05-.33-6.44-.12-1.31.39-2.46.89-3.44,1.48-.99.6-2.02,1.21-3.1,1.84-.74.54-1.41.76-2.01.65-.6-.1-1.19-.37-1.76-.79-1.04-.16-1.81-.43-2.29-.83-.49-.4-.9-1.19-1.24-2.4-.34-1.47-.45-2.52-.32-3.15.12-.62.56-1.3,1.31-2.04.51-.51.85-.97,1.03-1.39.17-.42.35-.93.53-1.54.09-.4.36-.74.79-1,.43-.26.85-.3,1.27-.13.78.24,1.41.25,1.91.04.49-.21.99-.47,1.5-.78,1.07-.71,2.23-1.22,3.49-1.55,1.26-.33,2.8-.53,4.63-.6,1.03.35,2.07.75,3.11,1.18,1.04.43,2.09.9,3.14,1.41.55.27.91.35,1.09.25.18-.1.23-.56.15-1.37l.02-1.41c.55-1.02,1.12-1.98,1.71-2.87.59-.89.97-1.95,1.14-3.19.18-.34.38-.67.59-1,.2-.32.51-.58.91-.75,1.58-.94,2.98-1.96,4.2-3.06,1.22-1.1,2.46-2.27,3.73-3.52.49-.39,1.05-.7,1.68-.95.63-.25,1.19-.26,1.7-.02.8.66,1.43,1.63,1.87,2.92.45,1.28.79,2.59,1.03,3.92-.24,1.25-.68,2.39-1.31,3.42-.63,1.03-1.23,2.12-1.8,3.26-.26.08-.51.3-.75.67-.24.37-.15.64.27.81,1.24-1.12,2.36-2.27,3.36-3.43,1-1.17,1.9-2.47,2.7-3.92.05-.44.1-.81.16-1.11.05-.3.2-.39.46-.27.27.27.42.42.45.43.02.02.15-.13.37-.44.25-.15.53-.26.84-.3.3-.04.57.05.8.29,1.21.76,1.9,1.71,2.07,2.86.17,1.15-.33,2.24-1.51,3.27-.28.2-.39.37-.33.52.06.15.28.19.67.14.86-.25,1.65-.36,2.35-.35.71.01,1.46-.02,2.27-.11,1.22-.73,2.17-1.6,2.86-2.63.69-1.02,1.49-1.97,2.42-2.85M532.92,146.67l-.26-.2c-.94-.29-1.79-.59-2.54-.91-.75-.32-1.59-.58-2.52-.8-1.36-.46-2.66-.83-3.89-1.09-1.23-.27-2.51-.65-3.84-1.16-.41-.1-.81-.12-1.21-.08-.41.04-.75.26-1.05.65-.04.51.05,1.06.27,1.63s.44,1.08.67,1.51c.9,2.1,2,3.76,3.29,4.99,1.3,1.23,3.36,1.64,6.19,1.22,1.41-.25,2.83-1.07,4.27-2.46,1.44-1.39,1.64-2.49.62-3.32M527.49,118.16l-1.97-.64c-.5.04-.78.21-.83.51-.05.3.13.54.55.71.51.04,1.18.18,1.99.41.82.23.9-.1.27-.98M540.63,115.03c-.1-.41-.28-.54-.53-.39-.25.16-.47.27-.65.33-.45.42-.91.79-1.39,1.12-.48.33-.88.75-1.19,1.26-.33.17-.83.22-1.5.16-.67-.05-1.22-.07-1.65-.05-.58.05-.92.15-1.04.3-.11.16-.06.45.16.89,1.35,1.21,2.81,2.18,4.36,2.93,1.56.74,3.49,1.26,5.8,1.54.69-.1,1.06-.25,1.1-.46.05-.2-.15-.47-.59-.79l-.43-1.34c.05-.44.01-.66-.13-.66-.14,0-.43.04-.89.1-1.51.38-2.33.05-2.47-1.01-.14-1.05.1-2.04.7-2.95l.32-.99ZM548.11,115.67l1.97-.18c1.24-.03,2.2-.36,2.87-.99.67-.63.4-.95-.82-.96-.75.19-1.43.47-2.04.83-.61.36-1.27.79-1.98,1.29M549.74,119.53c-.4,1-.14,1.38.79,1.14.92-.24,1.26-.6,1.01-1.09-.25-.49-.52-.69-.82-.61-.3.08-.62.27-.97.56M571.1,113.29c-.22-.16-.42-.26-.6-.29-.18-.03-.39-.03-.61,0-2.24.18-4.26.56-6.05,1.14-1.79.58-3.52,1.31-5.19,2.18-.48.46-.63.85-.44,1.15.18.3.66.3,1.43-.01.77-.58,1.57-.95,2.39-1.09.82-.14,1.79-.24,2.92-.29,1.78.16,2.96.51,3.53,1.03.56.52,1.51-.29,2.83-2.45.08-.21.11-.45.07-.71-.04-.27-.13-.49-.27-.66M562.54,119.61c-.23-.24-.42-.35-.58-.32-.16.02-.32.07-.51.13-.59.24-1.1.52-1.52.81-.42.3-.8.67-1.12,1.11-.13.18-.21.37-.23.59-.03.22.06.37.27.46.79.04,1.62-.28,2.49-.96.88-.68,1.27-1.29,1.2-1.82"/>
      <path class="cls-5" d="M609.37,163.8c-.15-1.09.35-1.35,1.5-.78,1.15.57,2.2.96,3.15,1.17,1.8.69,3.23,1.51,4.29,2.47,1.06.96,2.18,2.1,3.35,3.42.81,1.37.86,2.69.15,3.98-.71,1.28-2.07,1.72-4.08,1.31-3.07-.61-5.72-.33-7.94.84-2.22,1.16-3.82,3.01-4.8,5.54-.04.43-.06.71-.07.84,0,.14.23.17.72.1.78-.41,1.42-.88,1.91-1.42.49-.54,1.05-1.02,1.68-1.46l9.01.36c.88.32,1.39.72,1.52,1.2.13.48-.2,1.02-.98,1.62l-2.08,1.03c-.51.22-.85.48-1,.79-.16.31.02.68.53,1.13,3.22,2.36,6.28,4.62,9.19,6.77,2.91,2.15,5.99,4.49,9.26,7.02,1.15.8,1.98,1.82,2.5,3.06.52,1.24.93,2.61,1.24,4.12-.2,1.73-.94,3-2.21,3.81-1.27.81-2.57.54-3.89-.81-.82-.9-1.69-1.71-2.62-2.43-.93-.72-1.79-1.57-2.6-2.54-.31-.65-.35-1.2-.11-1.67.24-.47.8-.6,1.67-.4l3.37.27c.72-.1,1.13-.28,1.22-.54.09-.26-.1-.63-.56-1.11-1.14-1.08-2.38-2.03-3.72-2.87-1.34-.84-2.79-1.75-4.33-2.74-1.73-1.26-3.44-2.41-5.11-3.45-1.68-1.04-3.72-1.95-6.13-2.75-1.93-.2-3.66-.18-5.2.04-1.54.23-3.06.6-4.57,1.1-1.03.24-1.75.09-2.16-.46-.41-.55-.49-1.37-.25-2.46.19-.4.27-.69.25-.87-.03-.18-.28-.24-.76-.17-1.98.5-3.44.11-4.39-1.16-.94-1.27-1.5-2.75-1.66-4.43.07-.38.08-.65.03-.82-.05-.17-.14-.3-.28-.41-1.93-.2-3.63.13-5.1.98-1.47.85-2.97,1.66-4.49,2.44-.85.98-1.68,1.8-2.49,2.46-.81.66-1.79,1.35-2.95,2.08-1.4.96-2.76,1.85-4.09,2.67-1.33.82-2.87,1.59-4.62,2.33-.82.16-1.47.03-1.96-.39-.49-.42-.64-1.07-.44-1.94l.29-1.6c1.78-2.82,3.64-5.32,5.58-7.52,1.94-2.2,4.37-3.77,7.3-4.73l1.4-.57c1.97-1.09,3.88-2.06,5.72-2.9,1.84-.84,3.79-1.8,5.84-2.88.87-.47,1.64-.97,2.31-1.49.67-.53,1.49-.99,2.47-1.4,1.86-.48,3.03-.18,3.52.91.49,1.09.12,2.16-1.09,3.19-1.04.52-1.93,1.54-2.66,3.08-.73,1.53-.84,2.92-.32,4.16.59.85,1.14,1.36,1.64,1.51.5.15,1.07-.19,1.69-1.02,1.03-2.17,2.29-3.83,3.78-4.99,1.49-1.16,3.1-2.27,4.83-3.33.55-.45.92-.83,1.1-1.15.18-.32.04-.76-.41-1.31-.45-.75-.81-1.54-1.07-2.35-.26-.82-.55-1.65-.87-2.49M619.62,197.77l1.57,1.71c.91,1.23.99,2.34.24,3.32-.75.98-2.04,1.11-3.87.38-1.7-1.02-3.36-2.08-4.99-3.19-1.62-1.11-3.59-1.93-5.88-2.47-.44-.16-.81-.16-1.09,0-.29.16-.3.49-.03.97.94,1.28,2.38,2.61,4.3,4.01,1.92,1.4,3.87,2.18,5.85,2.35.32-.02.48.02.48.12,0,.1.09.22.26.37.57.73,1.15,1.41,1.75,2.03.59.62,1.06,1.47,1.41,2.56.38.93.33,1.58-.15,1.95-.48.36-1.22.39-2.23.09l-.68-.13-10.51-6.3c-.75-.41-1.32-.49-1.7-.22-.38.26-.37.79.03,1.57l1.22,2.35c.55,1.08.59,2.02.13,2.8-.46.78-1.28,1.32-2.48,1.61-1.58.02-3.06.3-4.46.83-1.4.53-2.62,1.32-3.68,2.39-.59,1.46-.59,2.85-.03,4.15.57,1.3,1.25,2.44,2.05,3.42,1.19,1.63,2.54,3.2,4.03,4.69,1.49,1.49,3.66,2.23,6.49,2.2,1.74-.47,3.2-1.19,4.38-2.17,1.18-.98,2.55-1.74,4.11-2.28.52-.3.98-.36,1.36-.19.38.17.52.62.43,1.35-.95,1.51-1.93,2.89-2.94,4.12-1.01,1.23-2.19,2.41-3.54,3.53-1.25,1.66-2.42,2.95-3.52,3.86-1.09.92-2.79,1.54-5.09,1.86-2.54-1.77-4.74-3.8-6.6-6.11-1.85-2.31-3.56-4.69-5.11-7.14-2.43-5.36-2.55-9.59-.37-12.69,2.18-3.1,5.54-5.54,10.08-7.34.99-.48,1.46-1.1,1.41-1.86-.06-.76-.71-1.27-1.96-1.54-4.43-.27-8.63-.48-12.59-.64-3.96-.16-8.31-.5-13.05-1.02-.46-.08-.81-.26-1.05-.52-.25-.26-.27-.63-.06-1.1l.45-.51c.61-1.62,1.45-2.84,2.5-3.67,1.06-.83,2.32-1.38,3.79-1.66.55.22,1.05.42,1.51.6.46.18,1.03.3,1.73.35,1.86.58,3.67,1.01,5.42,1.29,1.76.29,3.47.35,5.16.18.5-.14.73-.32.69-.52-.04-.21-.2-.41-.48-.62-.47-.67-.96-1.22-1.47-1.63-.52-.41-1.1-.85-1.76-1.33-1.7-1.89-1.8-3.39-.32-4.51,1.48-1.12,3.21-.93,5.17.57l1.21,1.76c1.56.72,3.13,1.39,4.73,2.02,1.59.63,3.45,1.18,5.57,1.65.88.12,1.47-.03,1.77-.47.3-.44.41-1.1.33-1.97-.12-.65-.05-1.08.21-1.29.26-.21.7-.2,1.32.04.58.26,1.03.53,1.35.81.32.28.62.62.9,1.02,1.16.73,2.26,1.4,3.28,2.02,1.03.62,2.03,1.36,3.01,2.21M634.8,181.35c1.03,1.02,1.84,2.17,2.43,3.46.59,1.29.89,2.82.92,4.59-.37,1.78-1.15,3.27-2.36,4.46-1.2,1.19-2.56,1.51-4.07.96l-5.39-7.25c-.31-.45-.38-.8-.22-1.04.16-.25.52-.36,1.07-.33l1.65.66c.91.17,1.63.17,2.15.01.52-.16.81-.72.87-1.7.32-1.08.59-2.1.83-3.06.24-.96.94-1.21,2.12-.76"/>
      <polygon class="cls-5" points="333.3 64.94 358.02 64.94 365.88 41.45 373.52 64.94 397.19 65.43 377.82 79.47 385.04 102.41 365.46 88.48 346.18 102.41 353.2 79.68 333.3 64.94"/>
      <path class="cls-5" d="M101.1,265.76c0,4.73-3.83,8.56-8.56,8.56s-8.56-3.83-8.56-8.56,3.83-8.56,8.56-8.56,8.56,3.83,8.56,8.56"/>
      <path class="cls-5" d="M643.65,265.76c0,4.73-3.83,8.56-8.56,8.56s-8.56-3.83-8.56-8.56,3.83-8.56,8.56-8.56,8.56,3.83,8.56,8.56"/>
      <circle class="cls-1" cx="365.25" cy="365.25" r="121.98"/>
      <rect class="cls-3" x="296.81" y="580.84" width="136.88" height="40.96"/>
      <path class="cls-5" d="M320.86,593.67c-1.49,1.49-3.39,2.93-5.68,4.3v-3.27c2.87-1.95,5.22-4.25,7.06-6.89h2.06v29.61h-3.44v-23.75Z"/>
      <path class="cls-5" d="M344.04,617.94c2.52-4.24,4.59-8.09,6.2-11.53-.8.11-1.55.17-2.24.17-1.95,0-3.56-.46-4.82-1.38-1.95-1.15-3.1-2.75-3.44-4.82-.23-.92-.34-1.83-.34-2.75,0-1.03.11-2.01.34-2.93.46-1.6,1.18-2.95,2.15-4.04.97-1.09,2.15-1.86,3.53-2.32,1.38-.46,2.64-.69,3.79-.69,1.03,0,2.12.23,3.27.69,1.15.46,2.18,1.15,3.1,2.07s1.55,1.87,1.89,2.84c.34.98.52,2.21.52,3.7,0,1.61-.58,3.61-1.72,6.02-1.15,2.41-3.96,7.4-8.43,14.98h-3.79ZM345.08,602.28c.92.92,1.95,1.38,3.1,1.38h.34c1.26-.11,2.27-.46,3.01-1.03.75-.57,1.46-1.55,2.15-2.92.35-1.15.52-2.18.52-3.1,0-.46-.06-.92-.17-1.38-.23-1.15-.83-2.12-1.81-2.93-.98-.8-2.04-1.2-3.18-1.2h-.52c-.57,0-1.26.17-2.06.52-1.15.46-2.01,1.38-2.58,2.75-.57,1.03-.86,2.18-.86,3.44,0,.23.06.52.17.86.12,1.49.75,2.7,1.89,3.61"/>
      <path class="cls-5" d="M371.37,617.94c2.52-4.24,4.59-8.09,6.2-11.53-.8.11-1.55.17-2.24.17-1.95,0-3.56-.46-4.82-1.38-1.95-1.15-3.1-2.75-3.44-4.82-.23-.92-.34-1.83-.34-2.75,0-1.03.11-2.01.34-2.93.46-1.6,1.18-2.95,2.15-4.04.98-1.09,2.15-1.86,3.53-2.32,1.38-.46,2.64-.69,3.79-.69,1.03,0,2.12.23,3.27.69,1.15.46,2.18,1.15,3.1,2.07.92.92,1.55,1.87,1.89,2.84.34.98.52,2.21.52,3.7,0,1.61-.57,3.61-1.72,6.02-1.15,2.41-3.96,7.4-8.43,14.98h-3.78ZM372.4,602.28c.92.92,1.95,1.38,3.1,1.38h.34c1.26-.11,2.27-.46,3.01-1.03.75-.57,1.46-1.55,2.15-2.92.34-1.15.52-2.18.52-3.1,0-.46-.06-.92-.17-1.38-.23-1.15-.83-2.12-1.81-2.93-.97-.8-2.04-1.2-3.18-1.2h-.52c-.57,0-1.26.17-2.06.52-1.15.46-2.01,1.38-2.58,2.75-.57,1.03-.86,2.18-.86,3.44,0,.23.06.52.17.86.11,1.49.74,2.7,1.89,3.61"/>
      <path class="cls-5" d="M398.69,617.94c2.52-4.24,4.59-8.09,6.2-11.53-.8.11-1.55.17-2.24.17-1.95,0-3.56-.46-4.82-1.38-1.95-1.15-3.1-2.75-3.44-4.82-.23-.92-.34-1.83-.34-2.75,0-1.03.11-2.01.34-2.93.46-1.6,1.18-2.95,2.15-4.04.98-1.09,2.15-1.86,3.53-2.32,1.38-.46,2.64-.69,3.79-.69,1.03,0,2.12.23,3.27.69,1.15.46,2.18,1.15,3.1,2.07.92.92,1.55,1.87,1.89,2.84.34.98.52,2.21.52,3.7,0,1.61-.57,3.61-1.72,6.02-1.15,2.41-3.96,7.4-8.43,14.98h-3.79ZM399.72,602.28c.92.92,1.95,1.38,3.1,1.38h.34c1.26-.11,2.27-.46,3.01-1.03.74-.57,1.46-1.55,2.15-2.92.34-1.15.52-2.18.52-3.1,0-.46-.06-.92-.17-1.38-.23-1.15-.83-2.12-1.81-2.93-.97-.8-2.04-1.2-3.18-1.2h-.52c-.57,0-1.26.17-2.07.52-1.15.46-2.01,1.38-2.58,2.75-.57,1.03-.86,2.18-.86,3.44,0,.23.06.52.17.86.11,1.49.74,2.7,1.89,3.61"/>
      <path class="cls-3" d="M414.12,252.56c-.75-.01-.73,2.78,2.88,4.87,1.41.17,2.09-1.36,2.09-1.83s-1.88-2.99-4.97-3.04"/>
      <path class="cls-3" d="M423.76,259.47s3.82,3.46,3.61,3.77c-.21.31-2.93-.31-4.37-1.1-1.44-.79-.45-2.46.76-2.67"/>
    </g>
  </g>
</svg>