<svg xmlns="http://www.w3.org/2000/svg" xmlns:xlink="http://www.w3.org/1999/xlink" width="77" height="85.84284973144531" viewBox="0 0 77 85.84284973144531" fill="none">
<path d="M32.9 15.3L32.9 58.5C31.7 57.6 30.5 56.9 29.3 56.3L29.2 56.3C29.1 56.2 28.9 56.2 28.8 56.1C28.7 56 28.5 56 28.4 55.9L28.4 54.9L28.4 18.5L32.9 15.3ZM38.3 0C17.1 0 0 17.2 0 38.3C0 45.6 2 52.4 5.6 58.2C6 57.9 6.5 57.5 7 57.1C7.3 56.9 7.6 56.7 8 56.5C8.6 56.1 9.3 55.8 10 55.4C10 55.4 10.1 55.4 10.1 55.3C10.2 55.3 10.3 55.2 10.4 55.2C10.5 55.2 10.5 55.2 10.6 55.1C10.7 55.1 10.8 55 10.9 55C10.9 55 11 55 11 54.9C11.1 54.9 11.2 54.8 11.3 54.8C11.4 54.8 11.4 54.8 11.5 54.7C11.6 54.7 11.7 54.6 11.8 54.6C11.8 54.6 11.9 54.6 11.9 54.5C12 54.5 12.1 54.4 12.2 54.4C12.3 54.4 12.3 54.4 12.4 54.3C12.5 54.3 12.6 54.2 12.7 54.2C12.8 54.2 12.8 54.2 12.9 54.1C13 54.1 13.1 54 13.2 54C13.3 54 13.3 54 13.4 54C13.5 54 13.6 54 13.7 53.9C13.8 53.9 13.8 53.9 13.9 53.8C14 53.8 14.1 53.8 14.2 53.7C14.3 53.7 14.3 53.7 14.4 53.7C14.5 53.7 14.6 53.7 14.6 53.6C14.7 53.6 14.8 53.6 14.8 53.6C14.9 53.6 15 53.6 15 53.6C15.1 53.6 15.2 53.6 15.2 53.6C15.3 53.6 15.3 53.6 15.4 53.6C15.5 53.6 15.6 53.6 15.6 53.6C15.7 53.6 15.8 53.6 15.8 53.6C15.9 53.6 16 53.6 16.1 53.6C16.2 53.6 16.2 53.6 16.3 53.6C16.4 53.6 16.5 53.6 16.6 53.6C16.7 53.6 16.7 53.6 16.8 53.6C16.9 53.6 17 53.6 17.1 53.6C17.2 53.6 17.2 53.6 17.3 53.6C17.4 53.6 17.5 53.6 17.6 53.6C17.7 53.6 17.7 53.6 17.8 53.6C17.9 53.6 18 53.6 18.1 53.6C18.2 53.6 18.2 53.6 18.3 53.6C18.4 53.6 18.5 53.6 18.6 53.6L18.7 53.6C18.8 53.6 18.9 53.6 19.1 53.6L19.2 53.6C19.3 53.6 19.4 53.6 19.5 53.6L19.6 53.6C19.7 53.6 19.9 53.6 20 53.6L20.1 53.6C20.4 53.6 20.7 53.6 21 53.7L21.1 53.7C21.3 53.7 21.4 53.7 21.6 53.8L21.6 23.5L19 25.3L19 51.4C18.3 51.3 17.5 51.3 16.8 51.3C13.1 51.3 9.7 52.2 6.8 53.9C4.5 49.2 3.2 44 3.2 38.4C3.2 18.9 19.3 3 38.6 3C58.2 3 74 18.9 74 38.4C74 44.3 72.6 49.8 70 54.7C66.5 52.7 62.4 51.6 58 51.6C57.7 51.6 57.5 51.6 57.2 51.6L57.2 27.2C57.2 19.9 52 15 44.6 15C41 15 37.7 16.4 35.4 18.6L35.4 22C37.4 20.3 40 19.2 42.5 19.2C45.9 19.2 48.6 20.5 50.5 22.7C52 24.4 52.2 25.6 52.2 27.6L52.2 54.2C53.3 54.1 54.4 54 55.5 54C60.3 54 64.7 55.3 68.3 57.6C69.3 58.2 70.1 58.8 70.7 59.3C74.7 53.3 77 46 77 38.3C76.6 17.2 59.5 0 38.3 0ZM23.3 54L23.3 22.1L26.5 19.9L26.5 55C26.4 55 26.3 54.9 26.1 54.9L26 54.9C25.9 54.9 25.8 54.8 25.7 54.8C25.6 54.8 25.6 54.8 25.5 54.8C25.4 54.8 25.3 54.7 25.2 54.7C25.1 54.7 25.1 54.7 25 54.6C24.9 54.6 24.8 54.5 24.7 54.5C24.6 54.5 24.6 54.5 24.5 54.4C24.4 54.4 24.3 54.4 24.2 54.3C24.1 54.3 24.1 54.3 24 54.2C23.9 54.2 23.8 54.2 23.7 54.1C23.6 54.1 23.6 54.1 23.5 54C23.4 54.1 23.3 54 23.3 54Z" fill-rule="evenodd"  fill="#8E1B20" >
</path>
<path d="M40.4 58.8L40.4 59C41.5 58.1 42.7 57.3 44 56.7L44 55.7L44 55L44 29C43.8 24.6 38.3 24.8 35.9 26.4C35.6 26.6 35.3 26.8 35.1 27L35.1 29.1L35.2 29C35.9 28.1 36.9 27.5 38 27.6C39.1 27.6 39.8 28.1 40.2 28.9C40.4 29.4 40.4 29.7 40.4 30.3L40.4 58.8Z" fill-rule="evenodd"  fill="#8E1B20" >
</path>
<path d="M49.7 28.3C49.7 23.7 45.2 21.2 40.8 21.2C38.7 21.2 36.7 22.2 35.1 23.5L35.1 25.4C36.6 24.5 38.4 24 40 24C42.9 24 44.7 25.1 45.7 27C46 27.5 46 27.8 46 28.4L46 55.9C47.2 55.4 48.4 55 49.7 54.7L49.7 28.3Z" fill-rule="evenodd"  fill="#8E1B20" >
</path>
<path d="M37.8 65.3C33.2 59.8 27.9 57 20.6 56.8C16 56.7 11.2 57.6 8 61.2C8.9 62.4 9.8 63.5 10.9 64.6C12 65.8 13.2 66.9001 14.4 67.9001L14.5 67.9001C17.5 64.3 21.6 61.9 26.4 62.5C29.9 62.8 33 64.4 35.6 67.3L35.6 70.4001L40.1 70.4001L40.1 67.2C42.7 64.4 45.7 62.8 49.2 62.5C54.3 61.9 59.1 64.7 61.8 68.9001C64.3 67.0001 66.6 64.8 68.6 62.3C65 58 60.6 56.6 55 56.7C47.7 57 42.5 59.7 37.8 65.3L37.8 65.3Z" fill-rule="evenodd"  fill="#8E1B20" >
</path>
<path d="M51.3 79.2C51 79.1 50.8 79.1 50.6 79.2C50.2 79.5 49.9 79.6 49.6 79.7C49.5 79.7 49.4 79.7 49.3 79.7C48.9 79.4 48.5 79 48.3 78.5C48.3 78.5 48.2 78.4 48.1 78.2C47.9 78 48 77.9 48.4 77.9C48.5 77.9 48.6 78 48.7 78.1C48.9 78.3 49.1 78.5 49.3 78.8C49.4 78.9 49.4 79 49.5 79C49.7 79.1 49.8 79 49.7 78.7C49.7 78.6 49.8 78.4 49.9 78.4C50.3 78.3 50.5 78.1 50.6 77.7C50.6 77.6 50.6 77.5 50.5 77.5C50.4 77.4 50.3 77.5 50.2 77.6C50.1 77.8 49.9 77.9 49.7 77.9C49.6 77.9 49.5 77.9 49.5 77.8C49.4 77.5 49.5 77.3 49.8 77.1C50.4 76.7 50.6 76.2 50.4 75.5C50.4 75.4 50.4 75.4 50.5 75.4C51.5 75.6 51.7 76 51 76.7C50.9 76.8 50.9 76.9 50.9 76.9C51.1 77.4 51.4 77.8 51.9 78.2C52 78.3 52.1 78.2 52.1 78.2C52.5 77.8 52.7 77.3 52.6 76.7C52.6 76.6 52.6 76.5 52.7 76.5C53.2 76.2 53.6 76.3 53.9 76.8C53.9 76.9 53.9 77 53.9 77L52.5 78.9C52.4 79 52.4 79.1 52.4 79.1C52.4 79.2 52.5 79.2 52.6 79.2C52.6 79.2 52.7 79.2 52.8 79.1C53.1 78.9 53.5 78.8 53.9 78.7C54.4 78.7 54.5 78.8 54.2 79.2C53.6 80.1 52.7 80.8 51.6 81.4C51.4 81.5 51.3 81.8 51.4 82C51.5 82.2 51.4 82.3 51.2 82.5C51.1 82.6 51.1 82.6 51 82.7C50.9 82.8 51 82.9 51.1 82.9C51.2 82.9 51.2 82.9 51.3 82.9C51.5 82.8 51.7 82.7 51.9 82.6C52 82.6 52.1 82.6 52.2 82.6C52.6 82.7 52.6 82.9 52.3 83.3C52.1 83.5 52 83.7 51.8 83.8C51.8 83.8 51.7 83.9 51.6 84.1C51.5 84.3 51.3 84.3 51.1 84.1C51 84 50.9 84 50.9 84C50.9 84 50.9 84.1 50.9 84.2C50.9 84.3 51 84.3 51 84.3C51.4 85.5 50.8 86 49.3 85.8C48.9 85.7 48.8 85.6 49.1 85.3C49.2 85.2 49.4 85.1 49.6 85.1C49.8 85.1 50 85 50.1 85C50.3 84.8 50.3 84.6 50.2 84.4C50.1 84.2 49.9 84.2 49.8 84.3C49.5 84.5 49.1 84.6 48.8 84.7C48.7 84.7 48.6 84.7 48.5 84.6C48.2 84.4 48.3 84.2 48.6 84.1C49.2 83.8 49.6 83.7 49.7 83.5C50.3 83.1 50.4 82.6 49.9 82.1C49.8 82 49.8 81.8 50 81.7C51 81.3 51.9 80.7 52.6 79.9L52.7 79.8C52.7 79.7 52.6 79.6 52.5 79.7C51.5 80.3 50.4 80.9 49.2 81.5C49 81.6 48.7 81.6 48.5 81.6C48.2 81.5 48.1 81.4 48.2 81.2C48.2 81.1 48.3 81.1 48.4 81C49.3 80.6 50.2 80.2 51.1 79.8C51.4 79.7 51.5 79.5 51.6 79.3C51.4 79.3 51.4 79.3 51.3 79.2Z" fill-rule="evenodd"  fill="#8E1B20" >
</path>
<path d="M23.4 79.4C23.2 79.7 23.2 79.9 23.2 80.2C23.2 80.3 23.2 80.5 23.1 80.6C22.7 81.2 22.7 81.5 23.2 81.2C23.3 81.1 23.5 81 23.6 80.9C24 80.4 24.5 80.3 25.2 80.7C25.6 81 25.8 81.4 25.6 81.9C25.1 83 24.4 84 23.4 84.8C23 85.1 22.6 85.3 22.3 85.3C21.9 85.3 21.4 85.2 21 85C20.8 84.8 20.8 84.7 21.1 84.7C21.4 84.6 21.7 84.7 21.9 84.9C22.2 85.1 22.5 84.9 23 84.4C23.7 83.6 24.3 82.7 24.7 81.7C24.9 81.2 24.7 81.1 24.3 81.2C23.8 81.4 23.5 81.7 23.4 82.2C23.4 82.6 23.4 82.8 23.4 82.8C23.3 83.1 23.1 83.5 22.7 83.8C22.4 84.1 22.1 84.2 21.9 84.1C21.8 84.1 21.8 84 21.8 83.9L22.6 82.8C22.7 82.6 22.7 82.4 22.7 82.3C22.6 82.1 22.5 82.1 22.4 82.3C22.1 82.8 21.8 83.3 21.5 83.7C21.3 84 21.1 84.1 20.8 84C20.6 84 20.5 83.7 20.6 83.6L21.7 81.9C21.9 81.6 21.8 81.5 21.4 81.5C21.1 81.5 21 81.4 21 81.2C21 81.1 21 81 21.1 80.8C21.3 80.4 21.5 79.8 21.6 79.2C21.6 79 21.7 78.9 21.9 78.9C22.2 78.8 22.4 78.5 22.3 78.1C22.3 77.8 22.3 77.6 22.3 77.6C22.3 77.3 22.3 77 22.2 76.8C22.2 76.6 22.4 76.4 22.6 76.5C23.4 76.7 23.5 77.2 23 77.9C22.9 78.1 22.8 78.3 22.9 78.5C23 78.8 23.1 78.8 23.3 78.4C23.5 77.9 23.7 77.3 23.9 76.8C23.9 76.7 23.9 76.5 24 76.2C24 75.9 24.1 75.8 24.4 75.8C24.6 75.8 24.7 75.9 24.8 76C25.1 76.2 25.1 76.5 25 76.9C25 77 24.8 77.2 24.5 77.5C24.2 77.8 24 78.2 23.9 78.7C23.9 78.9 23.7 79 23.6 79.1C23.5 79.2 23.4 79.3 23.4 79.4ZM22.3 80.1C22.1 80.4 21.9 80.7 22 80.9C22 81 22.1 81 22.2 81C22.5 80.8 22.7 80.5 22.7 80.2C22.6 79.8 22.5 79.8 22.3 80.1Z" fill-rule="evenodd"  fill="#8E1B20" >
</path>
<path d="M61.5 79.2L63.7 78C64.1 77.8 64.6 77.8 65 78C65.3 78.1 65.4 78.3 65.3 78.5C65.3 78.6 65.1 78.7 64.9 78.8C64.5 78.9 64.2 79.1 63.9 79.4C63.5 79.7 63.5 80 63.8 80.2C64 80.3 64 80.6 63.8 80.8C63.2 81.2 63.1 81.5 63.4 81.7C63.6 81.8 63.7 81.8 63.7 81.8C64 82 64.1 82.4 64 82.8C64 82.9 63.9 82.9 63.8 83L62.8 83.8C62.7 83.9 62.7 84 62.8 84C62.9 84.1 63 84.2 63.2 84.3C63.3 84.3 63.4 84.4 63.5 84.4C64.1 84.8 64.8 84.6 65.4 83.8C65.5 83.6 65.7 83.6 65.9 83.6C66.1 83.7 66 84 65.6 84.5C65.5 84.7 65.3 84.9 65.2 85.1C65 85.6 64.5 85.7 63.8 85.3C63.2 85 62.7 84.7 62.1 84.4C62 84.4 61.9 84.4 61.9 84.4C61.8 84.5 61.6 84.7 61.5 84.8C61.3 85 61.1 85 61 85C60.7 85 60.6 84.8 60.6 84.5C60.6 84.4 60.6 84.3 60.7 84.3C61.5 84 62.3 83.4 63 82.5C63.1 82.4 63 82.3 62.9 82.2C62.3 81.9 62.1 81.6 62.5 81.3C62.7 81.1 62.8 81 62.8 81C62.9 80.8 62.8 80.6 62.5 80.6C62.3 80.6 62.3 80.4 62.4 80.3C62.8 79.8 63.2 79.4 63.7 79C64 78.8 64 78.7 63.7 78.6C63.6 78.6 63.5 78.6 63.5 78.7C62.8 79 62.2 79.5 61.7 80C61.5 80.2 61.2 80.4 61 80.5C60.4 80.7 60.2 80.4 60.4 79.8C60.5 79.6 60.6 79.4 60.8 79.1C61.6 78.1 62.7 77.3 63.9 76.7C64.2 76.6 64.3 76.4 64.2 76.1C64.2 76 64.2 75.9 64.3 75.9C64.7 75.7 65 75.7 65.4 76C65.8 76.3 65.8 76.5 65.4 76.7C64.2 77.2 63.1 77.9 61.9 78.7C61.6 78.8 61.5 79 61.5 79.2C61.4 79.3 61.4 79.3 61.5 79.2Z" fill-rule="evenodd"  fill="#8E1B20" >
</path>
<path d="M10.8 84.4L10.6 84.8C10.6 84.9 10.5 84.9 10.4 84.9C9.9 84.9 9.8 84.6 10 84.1C10.1 83.8 10.2 83.5 10.1 83.2C10 82.9 9.9 82.9 9.8 83.1C9.6 83.3 9.4 83.5 9.1 83.4C9 83.4 8.9 83.3 8.9 83.3C8.7 83 8.7 82.7 9.1 82.4C9.5 82.1 9.5 81.9 9.1 81.9C9 81.9 9 81.9 8.8 82C8.6 82.1 8.3 82 7.9 81.5C7.8 81.4 7.7 81.3 7.5 81.4C7.2 81.5 7 81.5 6.9 81.3C6.9 81.2 6.9 81.1 6.9 81.1C7 80.9 7.2 80.8 7.4 80.8C7.7 80.7 7.8 80.6 7.9 80.6C8.3 80.2 8.7 79.8 8.9 79.3C8.9 79.2 8.9 79.1 8.8 79.1C8.6 79 8.4 79 8.2 79C8.1 79 8 79 8 78.9C8 78.5 8.2 78.4 8.9 78.5C9.3 78.6 9.5 78.4 9.6 78C9.7 77.5 9.7 77.1 9.8 76.6C9.8 76.4 9.9 76.3 9.9 76.2C10 76.1 10.2 76.1 10.3 76.2C10.4 76.2 10.4 76.3 10.4 76.4L10.4 77.7C10.4 77.8 10.4 77.9 10.5 77.9C10.8 78.1 11 78 11.2 77.4C11.2 77.3 11.4 77.2 11.5 77.3C11.8 77.5 12 77.6 12.3 77.5C12.4 77.5 12.5 77.5 12.6 77.6C12.6 77.6 12.7 77.7 12.7 77.8C12.7 77.9 12.6 78 12.5 78C12 78.3 11.4 78.6 10.8 78.8C10.2 79 9.8 79.3 9.5 79.8C9.3 80.1 9.4 80.2 9.7 80.1C9.8 80.1 9.8 80 9.9 80C10.5 79.5 11 79.3 11.4 79.2C12.5 79 13.3 78.7 14 78.3C14.6 78 15.1 78 15.4 78.5C15.5 78.6 15.5 78.7 15.5 78.8C15.3 80.4 15 82 14.5 83.6C14.3 84.1 14.1 84.6 13.7 85C13.4 85.3 13.1 85.4 12.7 85.1L11.2 84.3C10.9 84.2 10.8 84.3 10.8 84.4ZM11 82.3L11.1 83.4C11.1 83.5 11.1 83.6 11.2 83.6C11.6 84 12 84.1 12.3 84.2C12.7 84.2 12.9 84.1 13 83.7C13.6 82.2 14 80.7 14.1 79.3C14.1 78.7 14 78.6 13.5 79C13 79.4 12.3 79.7 11.4 79.7C11.1 79.7 10.9 79.8 10.7 80C10.7 80.1 10.7 80.2 10.8 80.2C11 80.4 11 80.6 10.8 80.8C10.2 81.3 10.2 81.7 10.8 82C10.9 82.2 11 82.3 11 82.3ZM9 81.4C9.4 81.4 9.7 81.1 9.9 80.6C10 80.4 9.9 80.3 9.7 80.5C9.4 80.8 9 81 8.6 81.1C8.5 81.1 8.4 81.2 8.4 81.3C8.3 81.5 8.4 81.5 8.7 81.5C8.8 81.4 8.9 81.4 9 81.4Z" fill-rule="evenodd"  fill="#8E1B20" >
</path>
<path d="M34.4 83.1C34.6 83 34.9 82.9 35.3 82.9C35.5 82.9 35.6 82.9 35.6 83.1C35.6 83.2 35.5 83.2 35.4 83.3C34.9 83.7 34.3 84 33.6 84.1C33.5 84.1 33.4 84.1 33.3 84.1C32.8 83.8 32.7 83.4 33 83C33.3 82.6 33.4 82.4 33.4 82.4C33.5 82.1 33.3 81.8 32.9 81.7C32.8 81.6 32.7 81.5 32.8 81.3C33.2 80.5 33.5 79.7 33.6 78.8C33.7 78.3 33.6 78.2 33.3 78.5C33 78.8 32.6 79 32.2 79.1C32 79.1 31.9 79.2 31.7 79.2C31.3 79.2 31.2 79 31.4 78.7C31.5 78.6 31.6 78.5 31.7 78.5C32.5 78.2 33.2 77.8 33.8 77.3C34.1 77 34.4 76.9 34.7 76.8C35.1 76.7 35.4 76.7 35.7 76.8C36 76.9 36.1 77 36 77.3C36 77.4 35.9 77.5 35.7 77.6C34.8 78.2 34.3 78.9 34 79.9C34 79.9 33.9 80.2 33.8 80.6C33.7 81 33.7 81.3 33.8 81.7C33.9 82 33.9 82.2 33.9 82.3C33.9 82.5 33.8 82.7 33.7 82.9C34 83.2 34.1 83.3 34.4 83.1ZM34.4 77.8C34.3 78 34.4 78.1 34.6 78C34.9 77.9 35.1 77.8 35.2 77.5C35.2 77.4 35.2 77.3 35.1 77.3C34.8 77.3 34.5 77.5 34.4 77.8Z" fill-rule="evenodd"  fill="#8E1B20" >
</path>
<path d="M18.6 82.9C18.7 82.9 18.8 82.8 18.9 82.7C19 82.6 19.1 82.6 19.1 82.6C19.3 82.6 19.3 82.6 19.3 82.8C19.3 83 19.2 83.2 19 83.3C18.5 83.9 18.3 84.4 18.4 84.8C18.5 85.2 18.3 85.4 18 85.4C17.9 85.4 17.8 85.3 17.8 85.3C17.4 84.7 17.4 84.2 17.6 83.5C17.7 83.3 17.8 82.9 17.8 82.1C17.9 81.5 18.2 80.9 18.8 80.5C18.9 80.4 18.9 80.4 18.8 80.3C18.6 79.8 18.7 79.3 19.3 78.8C19.4 78.7 19.5 78.5 19.5 78.3C19.5 78.1 19.4 78.1 19.2 78.3C19 78.5 18.8 78.6 18.6 78.8C18.3 79 18.1 79 17.8 78.7C17.7 78.6 17.7 78.5 17.8 78.4C18.1 78.2 18.4 78 18.6 77.9C18.6 77.9 18.8 77.8 19.1 77.5C19.4 77.3 19.7 77.2 20.1 77.3C20.6 77.4 20.7 77.7 20.3 78.3L19.5 79.6C19.3 79.9 19.3 80.2 19.6 80.5C20.2 81.2 20.3 81.6 19.8 81.7C19.7 81.7 19.6 81.7 19.5 81.6C19.4 81.5 19.3 81.4 19.2 81.4C19.1 81.1 18.9 81.1 18.8 81.4C18.5 81.9 18.4 82.5 18.4 83C18.4 82.9 18.5 83 18.6 82.9Z" fill-rule="evenodd"  fill="#8E1B20" >
</path>
<path d="M34.4 77.8C34.6 77.5 34.8 77.3 35.1 77.4C35.2 77.4 35.2 77.5 35.2 77.6C35.1 77.9 34.9 78 34.6 78.1C34.3 78.1 34.3 78 34.4 77.8Z" fill-rule="evenodd"  fill="#8E1B20" >
</path>
<path d="M30 81.5C30.4 81.2 30.7 80.8 30.9 80.3C31 79.9 31.2 79.8 31.5 80C31.6 80 31.6 80.1 31.6 80.2C31.5 80.8 31.2 81.3 30.9 81.7C30.3 82.6 29.6 83.5 28.9 84.5C28.8 84.6 28.7 84.6 28.6 84.6C27.8 84.4 27.7 84 28.1 83.5C28.5 83.1 28.7 82.8 28.7 82.8C29 82.2 29.2 81.6 29.2 80.9C29.2 80.8 29.2 80.7 29.1 80.6C28.7 79.9 28.9 79.5 29.6 79.1C29.9 79 30.1 78.7 30 78.4C30 78.3 29.9 78.3 29.8 78.3C29.4 78.4 29 78.5 28.5 78.6C28.1 78.7 28 78.5 28 78.2C28 78.1 28.1 78 28.2 78L28.9 77.8C29 77.8 29.1 77.7 29.2 77.7C29.7 77.3 30.2 77.3 30.7 77.5C30.9 77.6 31 77.9 30.9 78.1C30.7 78.4 30.6 78.7 30.7 79.1C30.7 79.6 30.6 80.1 30.2 80.5C30 80.8 29.9 81.1 30 81.4C29.9 81.5 29.9 81.6 30 81.5Z" fill-rule="evenodd"  fill="#8E1B20" >
</path>
<path d="M41.7 81.4C42.1 81.3 42.6 81.1 43.1 81.1C43.4 81.1 43.5 81.1 43.6 81.4C43.6 81.5 43.6 81.6 43.5 81.6C42.8 82 42.2 82.4 41.8 82.5C41.1 82.8 40.6 83 40.2 83.3C39.6 83.7 39.1 83.8 38.5 83.7C38.3 83.7 38.3 83.5 38.4 83.3C38.9 82.8 39.5 82.4 40.2 82.1C40.4 82 40.6 81.8 40.6 81.6C40.8 80.5 41.1 79.5 41.6 78.7C41.7 78.5 41.6 78.3 41.3 78.3C41 78.3 40.7 78.3 40.4 78.3C40.2 78.3 40.1 78.3 40 78.3C39.9 78.2 39.8 78.1 39.9 77.9C39.9 77.8 40 77.8 40.1 77.7C41.1 77.4 42 77.4 42.9 77.7C43.1 77.8 43.2 78 43 78.2C42.2 79.2 41.7 80.2 41.5 81.1C41.3 81.4 41.4 81.5 41.7 81.4Z" fill-rule="evenodd"  fill="#8E1B20" >
</path>
<path d="M47.6 78.7C47.8 78.8 48.2 79.1 48.6 79.7C48.9 80.1 48.8 80.4 48.3 80.5C48.2 80.5 48.1 80.5 48.1 80.4C47.8 80 47.6 79.6 47.4 79.1C47.2 78.8 47.3 78.7 47.6 78.7Z" fill-rule="evenodd"  fill="#8E1B20" >
</path>
<path d="M58.7 79.2C58.8 79.1 59 79.1 59.2 79.1C59.8 79.3 60 79.7 59.6 80.3C59.2 81 58.8 81.8 58.6 82.6C58.6 82.7 58.6 82.8 58.7 82.8C58.8 82.9 59 82.8 59.1 82.6C59.4 82.1 59.6 81.6 59.9 81.2C60 81 60.1 81 60.2 80.9C60.3 80.8 60.5 80.9 60.6 81C60.6 81.1 60.6 81.2 60.6 81.3C60.2 82.2 59.9 82.8 59.7 83.1C59.3 83.7 59 84.2 59 84.7C58.9 85.2 58.7 85.4 58.4 85.5C58.3 85.5 58.2 85.5 58.1 85.4C57.8 85.2 57.8 84.8 58 84.4C58.2 84.1 58.2 83.7 58.2 83.3C58.2 82.7 58.2 82.3 58.3 82.2C58.4 81.6 58.7 81 59.1 80.5C59.2 80.4 59.2 80.3 59.2 80.2C59.3 79.8 59.1 79.8 58.7 80.1C58.4 80.4 58.2 80.6 57.9 80.9C57.4 81.4 57 81.5 56.4 81.1C56.3 81 56.3 80.8 56.4 80.7L58.7 79.2Z" fill-rule="evenodd"  fill="#8E1B20" >
</path>
<path d="M22.3 80.1C22.5 79.8 22.6 79.9 22.6 80.2C22.6 80.5 22.4 80.8 22.1 81C22 81 21.9 81 21.9 80.9C21.9 80.7 22.1 80.4 22.3 80.1Z" fill-rule="evenodd"  fill="#8E1B20" >
</path>
<path d="M6.4 81.7C6.7 81.8 6.9 82 6.9 82.3C7 83 7 83.6 7 84.3C7 84.6 7 84.8 6.9 84.9C6.8 85.1 6.6 85.1 6.3 85C6.1 84.9 6 84.8 5.9 84.7C5.6 84.3 5.6 83.8 5.9 83.3C6 83.1 6.1 82.9 6.1 82.7C6.1 82 6.2 81.7 6.4 81.7Z" fill-rule="evenodd"  fill="#8E1B20" >
</path>
<path d="M46.8 83.3C46.7 83.4 46.6 83.6 46.5 83.6C46.2 83.7 46.1 83.5 46 83.2C46 83.1 46 83 46.1 82.9C46.2 82.6 46.3 82.3 46.3 82C46.3 81.7 46.4 81.6 46.7 81.6C46.8 81.6 46.9 81.7 46.9 81.7C47.1 82.2 47.1 82.7 46.8 83.3Z" fill-rule="evenodd"  fill="#8E1B20" >
</path>
<path d="M11.8 48.1L8.09999 49.4L7.89999 48.9L10.2 46L7.29999 47L7.09999 46.5L10.8 45.2L11 45.7L8.7 48.6L11.6 47.6L11.8 48.1ZM10.8 44.6L6.69999 43.8L6.59999 43.2L10.2 40.9L10.3 41.5L9.2 42.2L9.49999 43.8L10.7 44L10.8 44.6ZM8.99999 43.8L8.79999 42.5L7.79999 43.1C7.49999 43.3 7.19999 43.4 6.99999 43.5C7.29999 43.5 7.49999 43.5 7.79999 43.6L8.99999 43.8ZM10.1 40.5L6.19999 40.6L6.19999 40.1L9.2 38L6.09999 38.1L6.09999 37.6L9.99999 37.5L9.99999 38L6.99999 40.1L10.1 40L10.1 40.5ZM10.2 35.3L8.49999 35.2L6.09999 36.5L6.09999 35.9L7.29999 35.2C7.49999 35.1 7.79999 35 7.99999 34.8C7.79999 34.7 7.59999 34.5 7.29999 34.3L6.19999 33.5L6.19999 32.9L8.29999 34.6L9.99999 34.7L10.2 35.3ZM10.3 33.5L10.4 33L9.39999 32.3L9.79999 30.7L11.1 30.5L11.2 29.9L6.99999 30.6L6.89999 31.2L10.3 33.5ZM8.99999 32.1L7.99999 31.4C7.79999 31.3 7.49999 31.1 7.29999 31C7.49999 31 7.79999 31 8.2 30.9L9.39999 30.7L8.99999 32.1ZM11.3 29.5L7.59999 28.1L7.79999 27.6L11.4 26.8L8.49999 25.7L8.7 25.2L12.4 26.6L12.2 27.1L8.59999 27.9L11.5 29L11.3 29.5ZM12.3 23.3L12.9 22.3L13.5 22.7C13.5 22.8 13.5 23 13.5 23.3C13.5 23.5 13.4 23.7 13.3 23.9C13.2 24.1 13 24.3 12.8 24.5C12.6 24.6 12.3 24.7 12.1 24.7C11.8 24.7 11.5 24.6 11.2 24.4C11 24.3 10.7 24.1 10.6 23.9C10.5 23.8 10.4 23.6 10.4 23.5C10.4 23.3 10.3 23.2 10.4 23C10.4 22.8 10.5 22.6 10.6 22.4C10.7 22.2 10.8 22.1 11 22C11.1 21.9 11.3 21.8 11.4 21.8C11.5 21.8 11.7 21.8 11.9 21.8L12 21.3C11.7 21.2 11.5 21.2 11.3 21.2C11.1 21.2 10.9 21.3 10.7 21.5C10.5 21.7 10.3 21.9 10.2 22.1C9.99999 22.4 9.89999 22.8 9.89999 23.1C9.89999 23.4 9.99999 23.8 10.2 24.1C10.4 24.4 10.7 24.7 11 24.8C11.3 25 11.7 25.1 12 25.1C12.4 25.1 12.7 25 13 24.8C13.3 24.6 13.5 24.3 13.7 24C13.8 23.8 13.9 23.5 14 23.2C14 22.9 14 22.6 14 22.3L12.7 21.6L11.9 23.1L12.3 23.3ZM16.7 19.7L13.7 17.1L14 16.7L17 19.3L16.7 19.7ZM17.6 18.5L18 18.2L15.9 16L19.5 16.8L19.9 16.4L17.2 13.5L16.8 13.8L18.9 16L15.3 15.2L14.9 15.6L17.6 18.5ZM19.7 14.8L20.1 14.5C20.2 14.6 20.4 14.7 20.5 14.8C20.6 14.9 20.8 14.9 21 14.8C21.2 14.8 21.4 14.7 21.6 14.5C21.8 14.4 21.9 14.3 22 14.1C22.1 14 22.1 13.8 22.1 13.7C22.1 13.6 22.1 13.5 22 13.4C21.9 13.3 21.8 13.2 21.7 13.2C21.6 13.2 21.4 13.2 21.3 13.2C21.2 13.2 21 13.3 20.6 13.5C20.3 13.6 20 13.7 19.8 13.7C19.6 13.7 19.4 13.7 19.2 13.6C19 13.5 18.9 13.4 18.8 13.3C18.7 13.1 18.6 13 18.6 12.7C18.6 12.5 18.6 12.3 18.8 12.1C18.9 11.9 19.1 11.7 19.3 11.6C19.5 11.4 19.8 11.3 20 11.3C20.2 11.2 20.5 11.3 20.7 11.3C20.9 11.4 21.1 11.5 21.2 11.7L20.9 12.1C20.7 11.9 20.6 11.8 20.4 11.8C20.2 11.8 20 11.9 19.7 12C19.4 12.2 19.3 12.4 19.2 12.5C19.1 12.7 19.2 12.8 19.3 13C19.4 13.1 19.5 13.2 19.6 13.2C19.7 13.2 20 13.1 20.4 13C20.8 12.8 21.1 12.7 21.3 12.7C21.5 12.7 21.8 12.7 21.9 12.7C22.1 12.8 22.2 12.9 22.4 13.1C22.5 13.3 22.6 13.5 22.6 13.7C22.6 13.9 22.6 14.1 22.4 14.4C22.3 14.6 22.1 14.8 21.9 15C21.6 15.2 21.3 15.3 21.1 15.4C20.8 15.5 20.6 15.4 20.4 15.3C20 15.2 19.8 15 19.7 14.8ZM24.5 13.1L25 12.8L23.3 9.79999L24.4 9.19999L24.2 8.79999L21.4 10.3L21.6 10.7L22.7 10.1L24.5 13.1ZM26.7 11.9L25.1 8.29999L25.6 8.09999L27.2 11.7L26.7 11.9ZM29.1 11L29.6 10.8L28.4 7.49999L29.6 7.09999L29.5 6.69999L26.5 7.69999L26.6 8.09999L27.8 7.69999L29.1 11ZM33 5.89999L33.5 5.79999L34 7.99999C34.1 8.39999 34.1 8.69999 34.1 8.89999C34.1 9.09999 34 9.39999 33.8 9.59999C33.6 9.79999 33.3 9.89999 33 9.99999C32.6 10.1 32.3 10.1 32.1 9.99999C31.8 9.89999 31.6 9.79999 31.5 9.59999C31.3 9.39999 31.2 9.09999 31.1 8.69999L30.6 6.49999L31.1 6.39999L31.6 8.59999C31.7 8.89999 31.8 9.19999 31.9 9.29999C32 9.39999 32.1 9.49999 32.3 9.59999C32.5 9.69999 32.7 9.69999 32.9 9.59999C33.3 9.49999 33.5 9.39999 33.6 9.19999C33.7 8.99999 33.7 8.69999 33.6 8.19999L33 5.89999ZM36.4 9.39999L36.1 5.89999L34.8 6.09999L34.8 5.59999L37.9 5.39999L37.9 5.89999L36.6 5.99999L36.9 9.49999L36.4 9.39999ZM38.8 9.29999L39.1 5.39999L41.9 5.59999L41.9 6.09999L39.6 5.89999L39.5 7.09999L41.7 7.29999L41.7 7.79999L39.5 7.59999L39.4 8.79999L41.8 8.99999L41.8 9.49999L38.8 9.29999ZM45.6 8.19999C45.8 7.59999 46.1 7.09999 46.5 6.89999C46.9 6.59999 47.4 6.59999 48 6.69999C48.3 6.79999 48.6 6.99999 48.9 7.19999C49.1 7.39999 49.3 7.69999 49.3 8.09999C49.4 8.39999 49.3 8.79999 49.2 9.19999C49.1 9.59999 48.9 9.89999 48.7 10.2C48.5 10.5 48.2 10.6 47.8 10.7C47.5 10.8 47.1 10.8 46.8 10.7C46.4 10.6 46.1 10.4 45.9 10.2C45.7 9.89999 45.5 9.69999 45.5 9.29999C45.5 8.79999 45.5 8.49999 45.6 8.19999ZM46.1 8.29999C46 8.79999 46 9.09999 46.2 9.49999C46.4 9.79999 46.6 10.1 47 10.2C47.4 10.3 47.7 10.3 48 10.1C48.3 9.89999 48.5 9.59999 48.7 9.09999C48.8 8.79999 48.8 8.49999 48.8 8.19999C48.8 7.89999 48.7 7.69999 48.5 7.49999C48.3 7.29999 48.1 7.19999 47.9 7.09999C47.5 6.99999 47.2 6.99999 46.9 7.19999C46.5 7.39999 46.3 7.69999 46.1 8.29999ZM49.4 11.4L51 7.79999L53.4 8.89999L53.2 9.29999L51.3 8.39999L50.8 9.49999L52.5 10.3L52.3 10.7L50.6 9.89999L49.9 11.5L49.4 11.4ZM55.5 14.8L57.5 12L56.4 11.2L56.7 10.8L59.2 12.6L58.9 13L57.8 12.2L55.8 15L55.5 14.8ZM57.5 16.3L59.6 18.3L59.9 18L58.2 16.3L59.1 15.3L60.7 16.8L61 16.5L59.4 15L60.2 14.1L61.9 15.7L62.2 15.4L60.1 13.4L57.5 16.3ZM63 20.2L63.2 20.7C62.8 20.9 62.4 20.9 62.1 20.8C61.7 20.7 61.4 20.5 61.2 20.2C60.9 19.9 60.8 19.5 60.8 19.2C60.8 18.9 60.8 18.6 61 18.3C61.2 18 61.4 17.7 61.7 17.5C62 17.2 62.4 17.1 62.7 17C63 16.9 63.4 17 63.7 17.1C64 17.2 64.3 17.4 64.5 17.7C64.7 18 64.9 18.3 64.9 18.7C64.9 19 64.8 19.4 64.6 19.7L64.2 19.4C64.4 19.2 64.5 18.9 64.4 18.7C64.4 18.5 64.3 18.3 64.1 18.1C63.9 17.9 63.7 17.7 63.5 17.6C63.3 17.5 63 17.5 62.8 17.6C62.6 17.7 62.3 17.8 62.1 18C61.8 18.2 61.6 18.4 61.5 18.7C61.4 18.9 61.3 19.2 61.3 19.4C61.3 19.6 61.4 19.9 61.6 20C61.8 20.2 62 20.4 62.3 20.4C62.4 20.4 62.7 20.4 63 20.2ZM62.7 22.1L63 22.6L64.6 21.7L65.6 23.5L64 24.4L64.3 24.9L67.7 22.9L67.4 22.4L66 23.2L65 21.4L66.4 20.6L66.1 20.1L62.7 22.1ZM64.7 25.6L68.4 24.2L68.6 24.7L66.4 27.7L69.3 26.6L69.5 27.1L65.8 28.5L65.6 28L67.7 24.9L64.8 26.1L64.7 25.6ZM68 28.8C68.6 28.7 69.2 28.7 69.6 29C70 29.3 70.3 29.7 70.4 30.2C70.5 30.6 70.5 30.9 70.4 31.2C70.3 31.5 70.1 31.8 69.8 32C69.5 32.2 69.2 32.4 68.8 32.5C68.4 32.6 68 32.6 67.7 32.5C67.4 32.4 67.1 32.2 66.8 32C66.6 31.7 66.4 31.5 66.3 31.1C66.2 30.7 66.2 30.4 66.3 30.1C66.4 29.8 66.6 29.5 66.9 29.3C67.3 29 67.6 28.9 68 28.8ZM68.1 29.3C67.6 29.4 67.3 29.6 67.1 29.9C66.9 30.2 66.8 30.6 66.9 30.9C67 31.3 67.2 31.6 67.5 31.8C67.8 32 68.2 32 68.7 31.9C69 31.8 69.3 31.7 69.5 31.6C69.7 31.4 69.9 31.2 69.9 31C70 30.8 70 30.5 69.9 30.3C69.8 29.9 69.6 29.7 69.3 29.5C69.1 29.2 68.7 29.2 68.1 29.3ZM67.1 33.6L71 33.1L71.1 33.6L67.6 34.1L67.8 36L67.4 36L67.1 33.6ZM69.4 36.6C70.1 36.6 70.6 36.8 70.9 37.2C71.3 37.6 71.4 38 71.4 38.6C71.4 39 71.3 39.3 71.1 39.6C70.9 39.9 70.7 40.1 70.4 40.2C70.1 40.3 69.7 40.4 69.3 40.4C68.9 40.4 68.5 40.3 68.2 40.1C67.9 39.9 67.7 39.7 67.5 39.4C67.3 39.1 67.3 38.8 67.3 38.4C67.3 38 67.4 37.7 67.6 37.4C67.8 37.1 68 36.9 68.3 36.8C68.7 36.7 69 36.6 69.4 36.6ZM69.3 37.2C68.8 37.2 68.5 37.3 68.2 37.6C67.9 37.8 67.8 38.2 67.8 38.5C67.8 38.9 67.9 39.2 68.2 39.5C68.5 39.8 68.9 39.9 69.4 39.9C69.7 39.9 70 39.9 70.2 39.8C70.4 39.7 70.6 39.5 70.8 39.3C70.9 39.1 71 38.9 71 38.6C71 38.2 70.9 37.9 70.6 37.6C70.3 37.3 69.9 37.2 69.3 37.2ZM68.5 43.2L69 43.3L68.7 44.9L67.3 44.6C67.1 44.3 67 44 67 43.7C66.9 43.4 66.9 43.1 67 42.8C67.1 42.4 67.2 42.1 67.4 41.8C67.6 41.5 67.9 41.3 68.2 41.2C68.5 41.1 68.9 41.1 69.3 41.1C69.7 41.2 70 41.3 70.3 41.5C70.6 41.7 70.8 42 70.9 42.3C71 42.6 71 43 71 43.4C70.9 43.7 70.9 43.9 70.7 44.1C70.6 44.3 70.4 44.5 70.2 44.6C70 44.7 69.8 44.8 69.5 44.8L69.5 44.3C69.7 44.3 69.9 44.2 70 44.2C70.1 44.1 70.2 44 70.3 43.9C70.4 43.8 70.5 43.6 70.5 43.4C70.5 43.2 70.5 43 70.5 42.8C70.5 42.6 70.4 42.5 70.3 42.3C70.2 42.2 70.1 42.1 70 42C69.8 41.9 69.5 41.8 69.2 41.7C68.9 41.6 68.6 41.6 68.3 41.7C68 41.8 67.8 41.9 67.7 42.1C67.5 42.3 67.4 42.5 67.4 42.8C67.4 43 67.4 43.2 67.4 43.5C67.4 43.7 67.5 43.9 67.6 44L68.3 44.1L68.5 43.2ZM66.1 46.4L67.7 46.9L70.3 46.2L70.1 46.8L68.7 47.2C68.4 47.3 68.2 47.3 67.9 47.4C68.1 47.6 68.2 47.8 68.4 48L69.4 49.1L69.2 49.7L67.6 47.5L66 47L66.1 46.4Z" fill-rule="evenodd"  fill="#8E1B20" >
</path>
</svg>
