<svg width="886" height="886" viewBox="0 0 886 886" fill="none" xmlns="http://www.w3.org/2000/svg">
<path fill-rule="evenodd" clip-rule="evenodd" d="M130.501 756.77C303.854 929.145 584.174 928.405 756.611 755.116C929.051 581.827 928.309 301.61 754.956 129.236C581.603 -43.1394 301.283 -42.3986 128.846 130.891C46.36 213.783 0.0390861 325.937 0 442.855C0.0494906 560.669 47.0052 673.621 130.501 756.77ZM140.712 139.488C308.394 -27.1016 579.424 -26.2668 746.073 141.353C912.725 308.972 911.891 579.902 744.209 746.492C576.527 913.081 305.497 912.246 138.846 744.626C59.1071 664.425 14.367 555.931 14.4027 442.855C14.4305 328.958 59.8909 219.772 140.712 139.488Z" fill="#732729"/>
<path fill-rule="evenodd" clip-rule="evenodd" d="M291.656 734.648L268.602 780.446L296.627 794.673L300.307 787.316L280.908 777.304L300.307 739.13L291.656 734.648Z" fill="#732729"/>
<path fill-rule="evenodd" clip-rule="evenodd" d="M774.306 531.869C771.912 530.828 769.256 530.558 766.702 531.089C765.355 531.391 764.041 531.822 762.779 532.38C759.123 534.207 756.492 538.154 754.396 543.952L751.788 552.113L747.328 565.024L751.788 566.607L766.702 571.601L795.556 581.614L798.7 572.673L778.766 566.071L782.957 553.696L805.232 552.916L808.375 543.708L784.273 545.024C784.307 538.892 780.22 533.498 774.306 531.869ZM775.354 552.673L771.698 563.733L766.702 561.881L757.271 558.739L761.219 547.143C761.76 544.717 763.276 542.619 765.411 541.345C765.764 541.021 766.224 540.841 766.702 540.833C768.14 540.297 769.724 540.297 771.162 540.833C773.329 541.389 775.09 542.96 775.89 545.048C776.614 547.574 776.424 550.273 775.354 552.673Z" fill="#732729"/>
<path fill-rule="evenodd" clip-rule="evenodd" d="M577.784 768.609L560.75 774.139L556.559 760.984L578.052 753.871L575.689 746.221L545.031 756.502L561.018 804.956L569.913 802.057L563.114 781.52L580.148 775.99L577.784 768.609Z" fill="#732729"/>
<path fill-rule="evenodd" clip-rule="evenodd" d="M718.766 692.237L707.751 682.76L720.326 668.265L714.575 663.539L702.268 678.034L692.032 669.069L691.764 668.801L692.032 668.533L707.215 650.896L701.464 645.902L692.032 656.962L679.969 670.921L692.032 681.177L718.498 704.368L740.26 679.082L734.217 673.82L718.766 692.237Z" fill="#732729"/>
<path fill-rule="evenodd" clip-rule="evenodd" d="M671.072 680.664L663.98 686.706L677.627 702.784L662.689 715.403L649.066 699.373L646.945 701.225L642.242 705.147L646.945 710.701L674.995 744.392L682.087 738.326L667.66 721.469L682.598 708.85L692.03 719.91L697.001 725.683L703.825 719.91L692.03 705.683L671.072 680.664Z" fill="#732729"/>
<path fill-rule="evenodd" clip-rule="evenodd" d="M628.626 724.369L639.885 717.012L635.694 710.41L604.5 730.167L608.716 736.744L620.243 729.655L643.296 766.245L646.952 763.882L651.411 760.983L646.952 753.334L628.626 724.369Z" fill="#732729"/>
<path fill-rule="evenodd" clip-rule="evenodd" d="M751.786 594.281L735.262 591.65L730.023 601.638L751.786 624.294L766.7 640.104L767.236 640.64L770.916 633.502L766.7 629.312L761.996 624.294L766.7 615.085L771.16 606.925L783.759 609.044L788.462 600.347L766.7 596.644L751.786 594.281ZM756.489 618.764L751.786 613.77L739.99 601.59L751.786 603.441L763.556 605.56L756.489 618.764Z" fill="#732729"/>
<path fill-rule="evenodd" clip-rule="evenodd" d="M84.125 555.84L87.0007 564.512L104.572 558.203L135.204 547.679L132.061 538.982L104.572 548.458L84.125 555.84Z" fill="#732729"/>
<path fill-rule="evenodd" clip-rule="evenodd" d="M73.375 509.237L79.3944 540.03L87.5096 538.446L83.318 517.13L104.569 512.648L125.258 508.701L123.431 499.225L104.569 502.903L73.375 509.237Z" fill="#732729"/>
<path fill-rule="evenodd" clip-rule="evenodd" d="M805.496 441.027C802.41 440.756 799.335 441.624 796.844 443.463C794.237 445.046 792.141 448.725 790.557 453.987L788.12 462.416C786.804 467.166 784.733 469.529 781.832 469.529C780.032 469.349 778.401 468.386 777.373 466.898C775.935 465.03 775.367 462.635 775.813 460.321C775.813 455.302 777.909 452.403 781.832 451.112L780.005 442.147C776.449 443.144 773.434 445.509 771.622 448.725C769.487 452.211 768.394 456.235 768.478 460.321C768.075 465.005 769.385 469.678 772.158 473.475C774.702 476.854 778.65 478.891 782.881 479.005C785.142 479.115 787.394 478.662 789.436 477.69C791.366 477 793.021 475.712 794.164 474.011C795.653 471.79 796.718 469.312 797.307 466.703L800.183 456.959C800.621 455.078 801.626 453.38 803.058 452.087C804.246 451.383 805.603 451.02 806.983 451.039C808.978 451.02 810.811 452.133 811.71 453.914C813.116 456.206 813.754 458.883 813.538 461.563C813.294 468.676 810.662 472.623 805.422 473.743L807.251 482.708C811.49 481.865 815.139 479.188 817.218 475.4C819.567 471.41 820.837 466.876 820.898 462.245C821.382 457.012 819.982 451.777 816.949 447.482C814.559 443.441 810.192 440.98 805.496 441.027Z" fill="#732729"/>
<path fill-rule="evenodd" clip-rule="evenodd" d="M775.889 486.046L768.017 484.73L766.726 491.576L761.219 521.077L766.726 522.124L769.066 522.66L771.43 509.237L813.882 517.398L815.734 507.654L773.281 499.493L775.889 486.046Z" fill="#732729"/>
<path fill-rule="evenodd" clip-rule="evenodd" d="M120.803 483.684L120.024 474.475L104.573 476.034L69.1875 479.201L69.9673 488.434L104.573 485.267L120.803 483.684Z" fill="#732729"/>
<path fill-rule="evenodd" clip-rule="evenodd" d="M84.3691 457.86L104.547 457.081L119.487 456.545L119.242 447.068L104.62 447.604L84.1985 448.384C80.5187 448.652 78.1548 448.14 77.1069 447.068C76.0589 445.996 75.2791 443.926 75.011 440.759C75.011 439.711 75.011 437.86 75.2791 434.961L67.6757 435.229C67.3177 437.648 67.2359 440.099 67.432 442.537C67.0611 447.005 68.5816 451.424 71.6236 454.718C74.4262 457.081 78.6178 458.128 84.3691 457.86Z" fill="#732729"/>
<path fill-rule="evenodd" clip-rule="evenodd" d="M169.544 665.122C173.031 661.806 177.259 659.368 181.876 658.008C185.147 657.28 188.556 658.391 190.77 660.907C194.425 664.854 193.646 670.116 188.942 676.45L194.425 681.712L195.23 682.248C196.619 680.762 197.771 679.068 198.642 677.229C200.171 674.581 201.01 671.59 201.079 668.532C201.305 665.278 200.448 662.04 198.642 659.324C198.004 658.064 197.182 656.907 196.205 655.889C195.649 655.222 195.029 654.608 194.352 654.062C190.698 650.673 185.799 648.953 180.827 649.312C174.106 650.05 167.825 653.017 162.989 657.74C159.481 660.617 156.624 664.203 154.606 668.264C152.559 671.677 151.559 675.617 151.73 679.592C152.109 683.604 153.755 687.395 156.433 690.408C159.501 694.338 164.065 696.818 169.032 697.254C173.791 697.736 178.557 696.416 182.387 693.551L177.659 686.438C175.434 688.211 172.658 689.151 169.812 689.093C167.157 689.215 164.609 688.033 162.989 685.926C160.687 683.449 159.98 679.885 161.161 676.718C162.724 672.096 165.645 668.055 169.544 665.122Z" fill="#732729"/>
<path fill-rule="evenodd" clip-rule="evenodd" d="M228.758 723.833C229.89 722.612 230.94 721.319 231.902 719.959C234.688 715.706 236.24 710.765 236.385 705.684C236.728 700.79 235.125 695.956 231.926 692.237C231.145 691.457 230.098 690.677 229.05 689.606C228.667 689.191 228.222 688.838 227.734 688.558C223.333 685.211 217.647 684.046 212.283 685.391C207.161 686.424 202.436 688.892 198.66 692.505C197.56 693.53 196.587 694.682 195.76 695.939C195.249 696.207 194.981 696.719 194.445 697.255C190.583 702.069 188.303 707.954 187.913 714.113C187.535 719.952 189.96 725.623 194.445 729.387L195.249 730.167C196.297 730.946 197.686 731.75 198.66 732.603C202.741 734.81 207.47 735.509 212.015 734.576C218.181 733.297 223.725 729.952 227.734 725.099C227.977 724.637 228.489 724.369 228.758 723.833ZM221.154 717.255C216.719 722.785 212.503 725.952 209.115 726.488C205.89 727.285 202.478 726.498 199.928 724.369L198.636 723.053C196.728 720.902 195.95 717.974 196.541 715.16C196.908 712.875 197.614 710.658 198.636 708.583C200.003 706.48 201.484 704.456 203.072 702.517C211.195 692.772 218.271 690.402 224.298 695.404C225.736 696.643 226.899 698.171 227.709 699.886C228.206 701.513 228.298 703.235 227.977 704.904C227.709 705.148 227.709 705.684 227.709 706.22C226.311 710.312 224.079 714.069 221.154 717.255Z" fill="#732729"/>
<path fill-rule="evenodd" clip-rule="evenodd" d="M157.232 599.544L126.038 616.402C127.216 614.641 128.258 612.792 129.158 610.872L147.24 580.859L142.513 571.895L104.543 592.187L97.4766 596.134L101.156 602.711L104.543 600.592L134.031 584.806C133.495 585.853 132.984 586.657 132.716 587.242C131.936 588.289 131.668 589.337 131.131 589.678L111.757 622.322L115.949 630.215L160.741 606L157.232 599.544Z" fill="#732729"/>
<path fill-rule="evenodd" clip-rule="evenodd" d="M253.912 711.482L231.907 747.536L227.714 754.138L227.203 754.917L227.714 755.185L231.907 757.816L253.912 771.507L258.105 764.394L239.778 753.09L262.32 716.476L253.912 711.482Z" fill="#732729"/>
<path fill-rule="evenodd" clip-rule="evenodd" d="M311.57 800.204L343.276 810.484L345.64 802.835L322.853 795.478L327.021 781.787L345.104 787.561L347.468 780.74L329.385 774.674L333.576 761.519L356.119 768.876L358.483 761.519L327.289 751.482L311.57 800.204Z" fill="#732729"/>
<path fill-rule="evenodd" clip-rule="evenodd" d="M377.732 777.84C380.218 775.406 383.773 774.405 387.163 775.185C392.671 775.988 395.815 779.667 396.059 786.244L404.198 786.001C404.164 781.689 402.689 777.513 400.006 774.137C392.524 765.723 379.66 764.909 371.176 772.31C366.396 776.977 363.266 783.075 362.257 789.679C361.059 796.152 361.787 802.837 364.353 808.9C366.754 814.654 372.057 818.678 378.244 819.448C383.815 820.613 389.571 818.586 393.183 814.186L394.767 821.275L398.691 822.079L403.15 796.257L384.166 793.041L382.85 800.13L393.329 801.982C392.963 805.105 391.357 807.95 388.869 809.874C386.5 811.733 383.454 812.505 380.486 811.994C372.614 810.41 369.739 803.565 371.835 790.654C372.858 784.685 374.735 780.446 377.732 777.84Z" fill="#732729"/>
<path fill-rule="evenodd" clip-rule="evenodd" d="M418.75 823.664L451.746 823.932L451.99 816.014L428.18 815.746V801.544L447.287 801.788V794.163L428.449 793.895V780.204L451.99 780.447L452.258 772.822L419.529 772.311L418.75 823.664Z" fill="#732729"/>
<path fill-rule="evenodd" clip-rule="evenodd" d="M527.46 769.144C524.321 766.423 520.352 764.844 516.201 764.662C514.276 764.72 512.353 764.898 510.45 765.198C504.404 766.511 499.337 770.615 496.803 776.257C493.908 782.343 493.352 789.278 495.243 795.746C496.464 802.37 499.9 808.385 504.991 812.799C508.061 815.632 512.073 817.228 516.25 817.281C518.19 817.498 520.154 817.325 522.025 816.77C528.138 815.644 533.314 811.605 535.892 805.953C538.832 799.7 539.394 792.591 537.476 785.953C536.168 779.366 532.631 773.432 527.46 769.144ZM527.728 803.639C526.364 806.633 523.644 808.789 520.417 809.437C519.069 809.9 517.622 809.992 516.225 809.705C514.217 809.313 512.385 808.297 510.986 806.806C507.796 803.159 505.707 798.682 504.967 793.895C502.074 781.519 504.431 774.413 512.034 772.579C513.403 772.23 514.825 772.14 516.225 772.311C518.395 772.62 520.364 773.746 521.733 775.453C524.76 779.103 526.829 783.449 527.752 788.097C529.288 795.21 529.288 800.472 527.728 803.639Z" fill="#732729"/>
<path fill-rule="evenodd" clip-rule="evenodd" d="M55.566 298.296L57.6618 300.148C60.4821 299.402 63.4221 299.219 66.3132 299.612C69.9686 300.659 82.8116 303.022 84.3712 304.484C85.9309 305.945 81.4956 329.77 80.4477 333.717C80.1796 335.032 82.2755 334.496 84.1276 332.937C86.2389 331.692 88.0326 329.975 89.3671 327.919C91.8041 323.705 92.7789 309.77 96.9461 309.502C102.722 309.234 107.961 310.55 107.961 316.348C107.897 324.716 108.509 333.074 109.789 341.342C112.957 338.906 116.881 337.127 118.708 334.253C118.822 319.324 120.225 304.433 122.9 289.745C121.459 286.578 119.309 283.787 116.613 281.584C115.044 284.055 112.756 285.984 110.057 287.114C111.373 290.013 110.837 297.37 107.449 296.859L100.358 294.423C98.2621 292.596 97.2142 286.262 95.6545 283.363C89.6108 278.101 85.9065 271.791 83.8594 271.791C82.8116 272.839 81.2519 273.107 80.7158 274.934L84.3712 284.435C83.8295 286.384 82.184 287.828 80.1796 288.113C76.9245 287.675 73.8985 286.196 71.5527 283.899L68.1408 282.851C62.6659 286.259 57.9401 290.742 54.25 296.031L55.566 298.296Z" fill="#732729"/>
<path fill-rule="evenodd" clip-rule="evenodd" d="M134.425 336.738C136.365 336.104 138.423 335.922 140.444 336.202C142.54 337.006 148.048 338.321 148.048 338.321C151.729 337.563 155.158 335.887 158.015 333.449C156.7 326.141 153.823 323.705 153.823 323.705C146.756 319.49 145.684 314.228 143.076 311.865C140.469 309.502 145.513 307.919 145.513 307.919L153.531 310.696L157.211 314.106C158.751 314.676 160.462 313.89 161.031 312.35C161.072 312.24 161.107 312.126 161.134 312.011C160.275 310.067 159.221 308.213 157.991 306.481C156.719 304.372 155.827 302.055 155.359 299.636C148.559 290.403 146.732 291.719 146.732 291.719C135.449 296.981 133.085 303.582 133.085 303.582C132.573 307.017 139.396 317.809 141.493 320.952C141.345 322.465 141.076 323.963 140.689 325.434C137.696 327.568 135.05 330.148 132.841 333.083C131.013 335.958 133.109 337.006 134.425 336.738Z" fill="#732729"/>
<path fill-rule="evenodd" clip-rule="evenodd" d="M166.663 181.364C167.029 181.832 167.295 182.371 167.443 182.947C167.245 183.503 166.983 184.035 166.663 184.531C163.941 189.87 160.787 194.978 157.232 199.805C157.232 199.805 154.795 202.704 159.839 205.067C159.839 205.067 163.251 202.168 164.713 202.436L166.566 200C168.393 197.369 171.805 193.398 172.853 193.398C172.853 193.398 176.508 190.523 180.164 195.249L187.768 202.899C188.536 205.267 188.243 207.852 186.963 209.988L182.772 214.47C182.772 214.47 181.991 223.167 185.672 225.798C187.38 226.975 189.22 227.948 191.155 228.697C192.443 228.308 193.172 226.948 192.782 225.66C192.769 225.616 192.754 225.573 192.739 225.53L193.275 214.738C193.183 213.396 194.197 212.233 195.539 212.141C196.261 212.092 196.967 212.365 197.467 212.887L202.95 217.905C202.95 217.905 207.824 219.221 210.042 216.054C210.042 216.054 214.916 213.959 202.95 200.243C202.95 200.243 196.419 193.666 200.074 188.672C200.074 188.672 201.391 177.88 205.314 179.439C205.314 179.439 213.185 184.19 212.381 191.303L213.697 205.919C213.697 205.919 215.013 206.967 215.793 202.485C215.793 202.485 218.23 183.264 216.84 179.829C216.84 179.829 217.108 175.614 221.033 179.561L225.907 184.579C225.907 184.579 231.146 185.115 231.926 183.8C231.926 183.8 234.801 181.144 231.39 175.371C231.39 175.371 225.102 167.722 235.337 169.037L238.993 171.156C238.993 171.156 242.941 173.251 244.501 168.257L244.232 163.775C242.258 161.896 240.065 160.26 237.701 158.903C234.812 158.208 231.764 158.775 229.318 160.462C228.341 162.232 227.883 164.242 228.002 166.26C228.002 166.26 226.954 170.206 223.543 167.307C223.543 167.307 214.111 158.635 213.307 157.831C212.503 157.027 214.892 143.629 214.623 142.045C214.355 140.462 210.968 130.985 209.384 129.134C209.384 129.134 205.192 126.698 203.875 128.598C202.56 130.498 203.364 133.616 205.192 136.247C206.711 139.528 206.612 143.33 204.924 146.528C203.875 147.819 202.828 148.355 196.297 142.289C189.766 136.223 185.282 131.497 185.282 131.497C185.282 131.497 176.362 131.497 179.262 136.369C180.97 139.013 182.377 141.841 183.454 144.798L199.441 159.804C199.441 159.804 202.316 165.87 200.488 167.965C198.661 170.06 196.029 171.132 196.297 174.543C195.947 178.377 195.236 182.169 194.177 185.87C194.177 185.87 193.933 190.353 188.158 186.406C183.994 183.168 180.136 179.556 176.63 175.614C176.63 175.614 177.143 158.221 172.975 153.227C172.975 153.227 169.295 151.643 166.42 150.596C164.567 149.792 163.007 149.524 162.739 149.792C161.692 150.596 158.28 153.227 155.673 152.423C153.675 152.069 151.633 152.044 149.628 152.35C149.537 157.635 151.257 162.793 154.502 166.966C159.328 173.471 164.567 178.733 166.663 181.364ZM163.788 161.095C163.788 161.095 164.567 157.66 166.663 159.244C166.663 159.244 166.663 159.512 166.907 159.512C169.027 161.948 170.318 164.384 168.759 165.31C168.164 165.78 167.357 165.884 166.663 165.578C165.971 165.532 165.316 165.248 164.811 164.774C164.206 163.637 163.857 162.381 163.788 161.095Z" fill="#732729"/>
<path fill-rule="evenodd" clip-rule="evenodd" d="M304.234 98.4138L304.502 99.7291L309.376 102.165C312.288 101.701 315.176 101.091 318.027 100.338C321.683 99.5341 321.172 101.922 321.172 101.922L313.3 112.446C310.863 113.493 312.519 118.511 312.519 118.511L317.394 122.726C317.394 122.726 316.614 123.505 323.169 121.142C323.73 121.083 324.271 120.9 324.754 120.607C330.237 117.44 332.601 109.547 332.601 109.547C336.524 105.064 331.284 98.7549 333.38 92.957C334.031 90.9884 335.457 89.3698 337.329 88.4746C338.72 87.8249 340.229 87.4682 341.764 87.427C341.764 87.427 343.348 94.7353 342.3 96.6355C340.862 101.023 339.675 105.488 338.742 110.01C339.287 111.386 338.737 112.955 337.451 113.688C336.629 114.167 335.742 114.52 334.819 114.736L334.551 116.855L334.819 118.95L337.256 119.218C337.256 119.366 337.375 119.486 337.524 119.486C340.131 121.069 338.815 124.748 338.815 124.748L337.524 126.063L336.719 126.599C336.11 128.304 335.676 130.068 335.428 131.861C335.16 132.909 336.207 133.713 337.524 133.956L340.131 134.492L342.568 133.177C347.028 135.028 342.032 140.29 342.032 140.29C338.888 141.338 341.252 145.552 341.52 146.6C341.788 147.647 347.295 149.499 347.295 149.499L354.363 147.915C355.922 147.915 360.65 141.338 360.65 141.338C363.794 139.486 364.574 144.505 364.574 144.505C365.622 146.356 368.254 143.969 368.254 143.969C379.513 135.808 375.054 128.158 375.054 128.158C370.35 122.653 366.134 125.284 366.134 125.284C362.673 127.927 359.413 130.826 356.386 133.956C352.706 136.076 352.438 132.641 352.438 132.641L354.875 126.867C359.603 124.212 359.067 122.896 360.918 121.849C362.771 120.801 360.65 117.099 359.067 115.539C357.482 113.98 354.875 115.271 354.875 115.271C354.095 117.708 347.563 122.385 347.563 122.385C343.908 122.896 346.516 119.486 348.612 117.513C350.708 115.539 350.195 114.614 347.563 114.102C344.931 113.591 342.861 111.666 344.688 110.667C346.516 109.668 346.004 106.185 348.1 100.387C350.195 94.5892 352.974 100.143 352.974 101.191C352.974 102.238 355.07 101.459 356.386 100.923C357.702 100.387 358.481 97.2445 359.53 96.0508C360.577 94.8571 357.434 90.5209 357.434 90.5209C352.194 88.6695 351.926 82.36 351.926 82.36C352.625 79.69 354.58 77.527 357.166 76.5621L361.626 79.729C362.405 82.36 372.884 101.849 372.884 101.849C376.493 106.237 382.32 108.137 387.823 106.721C393.33 101.191 391.503 95.929 391.503 95.929C391.503 91.0568 389.675 90.6671 389.675 90.6671C387.823 89.8631 385.996 94.0776 385.996 94.0776C379.44 99.3391 377.076 92.7621 377.076 92.7621L372.616 73.6631C365.817 63.9188 363.453 68.4012 363.453 68.4012C362.941 69.7167 351.268 73.9311 351.268 73.9311C349.416 74.7106 346.808 72.0797 348.125 70.2282C349.44 68.3768 353.876 61.5557 353.876 61.5557C364.891 45.2096 361.186 43.6505 361.186 43.6505C361.455 40.4836 352.291 36.5371 352.291 36.5371L348.344 41.799L348.1 47.329C345.583 51.902 341.985 55.7907 337.621 58.6568C335.053 60.3604 332.209 61.6052 329.214 62.3353C329.024 61.0374 328.584 59.7881 327.922 58.6568C327.157 57.782 326.159 57.1403 325.046 56.8054C322.502 55.8906 319.86 55.2694 317.174 54.9539L313.251 59.4364C314.031 59.4364 316.395 62.3353 316.395 62.3353C316.395 62.3353 317.686 66.5497 317.954 68.1332C318.223 69.7167 313.763 72.8592 313.763 72.8592L306.452 76.2941L307.5 79.1931L315.615 78.4135C324.266 75.5146 322.926 78.6571 322.926 78.6571C323.298 82.0803 323.208 85.5383 322.658 88.9374C321.001 94.9789 304.234 98.4138 304.234 98.4138ZM337.524 66.0138L338.303 65.2342C339.163 64.0632 340.811 63.8108 341.983 64.671C342.515 65.0608 342.88 65.6357 343.007 66.2818C342.343 68.101 341.527 69.8611 340.57 71.5437C338.133 72.3476 340.302 73.6631 338.133 77.3416L337.353 78.9251C336.168 80.3407 334.465 81.2192 332.625 81.3612L331.846 74.0529C332.016 72.6156 335.16 68.4012 337.524 66.0138ZM324.949 108.694C325.489 108.284 326.236 108.284 326.777 108.694C329.384 109.742 326.509 113.956 324.949 114.468C323.388 114.979 321.537 112.373 322.317 112.373C323.096 112.373 323.364 109.474 324.949 108.694Z" fill="#732729"/>
<path fill-rule="evenodd" clip-rule="evenodd" d="M489.2 94.9794C489.2 94.9794 495.244 97.0988 496.51 97.8784C496.51 97.8784 498.338 101.046 493.367 103.409L490.223 105.528C490.223 105.528 488.688 108.5 494.708 114.225C496.693 114.802 498.835 114.404 500.483 113.153L513.838 95.2474C514.635 93.9665 515.514 92.7377 516.47 91.5689C517.25 90.7894 515.154 88.9379 513.838 89.4739C511.744 91.03 509.734 92.6971 507.818 94.4679C507.818 94.4679 502.042 96.0513 504.674 91.5689C506.731 87.602 509.585 84.1023 513.057 81.2886C514.766 79.8781 515.675 77.7222 515.495 75.5151C515.197 74.1111 514.661 72.7681 513.911 71.5442C513.911 71.5442 515.738 67.3542 518.102 66.8182L528.07 58.3893C528.07 58.3893 530.166 52.8594 528.849 52.3235C530.166 52.8594 527.802 44.6985 523.342 47.5974C520.53 49.445 517.902 51.5578 515.495 53.9069C512.083 56.8059 510.768 61.2152 507.623 62.0678C504.479 62.9205 498.46 68.4017 498.46 68.4017L500.897 74.4432C500.897 74.4432 504.82 75.5151 504.309 76.5626C502.993 79.014 501.409 81.3103 499.581 83.408C497.754 84.4555 494.073 88.2802 489.103 90.2534C488.957 90.2534 485.544 93.4203 489.2 94.9794Z" fill="#732729"/>
<path fill-rule="evenodd" clip-rule="evenodd" d="M523.954 82.6045C525.026 83.1404 531.046 85.7714 531.046 85.7714C531.046 85.7714 528.609 94.2003 527.365 94.9798C524.275 95.9869 521.127 96.8006 517.935 97.4159C517.935 97.4159 515.327 101.63 522.662 103.993C522.662 103.993 526.586 109.791 526.05 111.302C525.514 112.812 528.17 111.302 528.17 111.302C528.17 111.302 531.557 108.135 532.873 107.087C534.189 106.04 536.553 98.3904 536.553 98.3904C536.553 98.3904 547.033 97.3428 550.688 88.646L549.371 84.4315C547.968 84.6369 546.776 85.5612 546.228 86.8676C545.448 88.7191 543.791 90.3025 542.305 90.0346C540.818 89.7666 538.38 89.7666 539.161 88.7191C539.941 87.6716 541.793 83.8469 541.793 83.8469C541.793 83.8469 552.271 79.9004 553.588 78.5849C553.588 78.5849 554.879 74.9064 552.516 73.5909C552.516 73.5909 549.908 72.787 548.86 74.1269C548.86 74.1269 545.448 74.3705 546.423 71.2279C547.695 67.7994 549.186 64.4554 550.883 61.2156L549.566 58.0487L547.471 56.1973L540.671 62.7991L538.234 67.5251C538.234 67.5251 536.138 72.787 535.602 73.5909C534.779 74.4553 534.082 75.4312 533.532 76.4899L522.223 79.267C522.604 80.4705 523.191 81.5994 523.954 82.6045Z" fill="#732729"/>
<path fill-rule="evenodd" clip-rule="evenodd" d="M563.362 86.5752C568.819 87.557 574.173 89.0496 579.349 91.0333C580.666 91.8372 582.762 90.7897 582.762 90.7897C581.616 88.6678 580.303 86.6395 578.838 84.7238C578.058 84.1879 575.182 84.7238 575.182 84.7238L563.63 79.8516L561.023 83.5545C561.023 83.5545 561.292 86.8188 563.362 86.5752Z" fill="#732729"/>
<path fill-rule="evenodd" clip-rule="evenodd" d="M542.404 100.511C541.891 102.094 548.423 104.993 548.959 106.309C550.914 105.548 553.1 105.645 554.978 106.577C554.978 106.577 554.978 107.113 554.199 111.595C553.419 116.077 547.912 125.286 546.084 126.065C544.255 126.845 529.025 133.715 529.025 133.715C527.708 135.03 530.584 136.614 530.584 136.614C546.059 136.857 548.935 133.715 553.906 133.447C558.878 133.179 562.046 124.482 562.557 121.851C563.569 117.484 565.065 113.243 567.018 109.208C568.065 107.892 576.765 104.482 576.765 104.482L576.497 99.6086C573.419 98.6424 570.263 97.9415 567.066 97.514C565.506 98.0255 558.951 97.246 556.587 98.0255C554.045 98.4083 551.45 98.2338 548.984 97.514C547.399 97.0998 542.672 98.9516 542.404 100.511Z" fill="#732729"/>
<path fill-rule="evenodd" clip-rule="evenodd" d="M644.609 168.988C647.216 168.988 652.724 167.137 652.724 164.116C652.724 161.095 655.356 147.526 655.356 147.526C653.771 138.318 648.532 141.217 647.484 144.652C646.436 148.087 640.636 158.684 639.832 160.072C638.809 162.898 644.609 168.988 644.609 168.988Z" fill="#732729"/>
<path fill-rule="evenodd" clip-rule="evenodd" d="M639.834 160.195C639.834 160.195 639.834 160.195 639.834 160.049C639.712 160.414 639.712 160.414 639.834 160.195Z" fill="#732729"/>
<path fill-rule="evenodd" clip-rule="evenodd" d="M650.895 189.794C650.895 189.794 651.406 189.794 651.674 192.23C651.942 194.666 655.865 195.932 657.182 196.712C659.319 197.605 661.249 198.923 662.86 200.585C663.664 201.778 663.664 203.339 662.86 204.532C662.081 205.604 658.424 210.33 658.424 210.33C654.745 210.598 653.551 203.752 650.553 200.585C647.555 197.419 646.094 200.074 646.094 200.074L647.141 202.51C647.141 202.51 646.873 207.382 646.63 208.819C646.386 210.257 649.067 217.248 649.067 217.248L651.674 220.415C655.89 219.114 660.179 218.056 664.518 217.248C666.345 216.98 670.293 211.718 670.293 211.718C671.411 210.488 673.12 209.98 674.728 210.403C681.284 213.838 680.503 211.718 682.039 211.207C683.575 210.695 680.724 204.873 680.724 204.873C680.724 204.873 675.996 200.659 674.679 200.001C673.364 199.343 675.728 197.565 675.728 197.565L684.647 195.713L686.207 192.546C688.058 190.719 686.207 185.701 686.207 185.701L671.292 174.105L666.613 171.84C666.537 175.186 666.717 178.533 667.15 181.852C667.661 183.167 671.584 185.019 673.437 185.798C675.289 186.578 674.728 189.209 673.948 188.965C673.169 188.722 666.881 191.864 665.565 190.792C664.249 189.72 658.254 188.356 656.133 187.382C654.014 186.407 650.895 189.794 650.895 189.794Z" fill="#732729"/>
<path fill-rule="evenodd" clip-rule="evenodd" d="M673.954 158.976C673.954 158.976 678.413 162.922 678.95 163.458C679.486 163.994 682.337 163.458 684.434 164.238C686.528 165.017 687.333 167.405 690.209 167.405C693.085 167.405 694.936 167.673 695.082 170.036C695.229 172.399 699.81 173.471 700.859 173.739C703.107 175.144 705.206 176.776 707.122 178.611C708.064 179.232 708.947 179.941 709.753 180.73C712.191 182.825 709.242 187.04 709.242 187.04C708.583 187.377 707.86 187.56 707.122 187.576C704.246 187.814 701.351 187.724 698.495 187.308L701.858 192.959C703.608 193.73 705.449 194.263 707.341 194.543C712.848 195.59 719.94 196.102 719.94 196.102C723.084 196.906 726.495 190.596 726.495 190.596C727.275 189.257 724.667 181.096 724.667 181.096C714.92 173.982 717.576 173.982 717.576 173.982C720.082 171.329 722.177 168.315 723.79 165.042C723.79 165.042 725.107 161.363 726.227 161.875C728.392 161.535 730.505 160.921 732.515 160.048C735.242 159.552 737.053 156.939 736.556 154.212C736.526 154.044 736.487 153.878 736.439 153.714C735.188 152.84 734.318 151.526 734.002 150.036C734.277 148.517 733.361 147.036 731.881 146.601C730.59 146.357 714.823 147.137 707.243 147.648L703.32 147.916C701.37 146.828 699.703 145.302 698.446 143.458C697.13 137.124 694.254 140.803 694.254 140.803C689.795 143.97 689.795 140.023 689.795 140.023C690.306 137.171 691.006 134.355 691.89 131.594C692.938 130.011 689.282 121.582 688.503 120.534C687.723 119.487 683.775 124.213 683.775 124.213L681.143 131.862L673.028 140.023L673.296 145.285C674.449 146.582 675.669 147.818 676.952 148.988C678.837 149.838 681.031 149.635 682.727 148.452C684.312 146.869 686.382 144.774 689.282 146.601C692.182 148.428 690.842 147.648 691.719 152.131C692.597 156.613 690.672 157.66 690.672 157.66L677.293 152.666C675.124 151.663 673.023 150.515 671.006 149.232C669.446 148.452 667.861 147.137 666.278 150.547C665.995 151.128 665.822 151.755 665.766 152.399V152.934C666.229 155.148 667.216 157.22 668.642 158.976C670.403 159.228 672.192 159.228 673.954 158.976ZM701.468 156.881C703.481 156.482 705.42 155.775 707.219 154.786C707.433 154.582 707.728 154.484 708.023 154.518C709.071 154.274 717.454 153.47 717.454 153.47C717.454 153.47 720.087 155.59 713.262 158.343L712.994 163.605C712.994 163.605 712.483 167.039 707.219 165.724H706.975C706.975 165.724 704.368 166.503 703.832 165.724C703.296 164.944 697.276 161.753 696.52 160.194C695.765 158.635 698.592 156.881 701.468 156.881Z" fill="#732729"/>
<path fill-rule="evenodd" clip-rule="evenodd" d="M724.547 279.856L724.79 284.728C725.784 286.562 728.075 287.242 729.91 286.251C730.144 286.124 730.363 285.973 730.566 285.8C730.03 281.585 738.145 276.324 738.145 276.324L754.936 270.526L755.983 274.716L760.687 282.901C762.51 283.437 764.209 284.333 765.683 285.532C767.779 287.627 773.286 284.484 773.53 283.096C773.774 281.707 779.549 275.788 780.598 275.447C781.645 275.105 788.2 274.131 790.028 274.911C791.856 275.69 797.9 273.351 797.34 272.475C796.779 271.598 798.119 266.945 797.583 265.897C797.047 264.85 793.148 263.461 793.148 263.461C792.1 257.127 788.42 259.49 788.152 257.395C787.884 255.3 785.544 253.985 785.008 253.449C784.472 252.913 782.912 254.764 782.912 254.764C782.968 255.778 783.244 256.767 783.717 257.663C784.635 259.485 785.252 261.441 785.544 263.461C786.056 265.556 782.132 266.336 782.132 266.336C780.212 265.729 778.365 264.91 776.625 263.899C776.089 263.12 773.238 267.578 773.238 267.578C771.989 270.384 770.581 273.118 769.021 275.763C768.242 276.543 764.586 277.858 764.148 276.543C763.709 275.227 762.832 274.691 761.516 273.644C760.536 272.667 759.978 271.347 759.956 269.965C762.218 269.671 764.375 268.835 766.243 267.529C768.071 265.702 767.292 260.952 767.292 260.952L763.1 259.125L746.845 264.655L745.017 266.214L731.126 271.768C727.154 274.155 724.547 279.856 724.547 279.856Z" fill="#732729"/>
<path fill-rule="evenodd" clip-rule="evenodd" d="M780.596 288.015C780.596 288.015 779.304 291.693 780.864 293.277C782.424 294.86 789.515 294.592 790.831 295.396C792.748 296.536 794.408 298.061 795.704 299.879C796.753 301.706 805.453 305.92 807.5 309.087C809.547 312.254 805.063 313.569 803.576 313.569C802.09 313.569 799.117 311.986 797.533 311.718C795.949 311.45 796.753 314.154 797.289 314.885C799.178 316.853 801.188 318.7 803.308 320.415C804.357 320.926 806.184 324.093 806.184 324.093C807.997 324.364 809.764 324.897 811.423 325.677C811.959 326.456 816.419 326.992 817.468 325.677C817.904 324.924 817.904 323.993 817.468 323.241C817.468 323.241 820.879 316.663 820.611 315.591C820.343 314.519 814.323 310.865 813.519 309.014C812.715 307.162 815.372 306.383 817.711 307.698C820.05 309.014 822.17 307.698 824.266 303.216C825.65 300.741 825.555 297.708 824.023 295.323L817.711 289.793C817.979 290.841 813.519 295.055 811.691 295.323C809.864 295.591 803.308 296.103 803.308 296.103C803.308 296.103 801.749 295.055 798.605 293.204C795.461 291.352 795.704 292.156 800.164 287.674C804.625 283.191 801.993 280.365 801.993 280.365L785.226 283.508L780.596 288.015Z" fill="#732729"/>
<path fill-rule="evenodd" clip-rule="evenodd" d="M775.618 309.624C775.887 311.451 782.929 313.57 784.538 313.57C786.146 313.57 787.146 308.04 786.634 307.237C785.208 306.179 783.719 305.21 782.174 304.338C782.174 304.338 779.031 299.465 778.25 297.76C776.433 296.235 773.961 295.738 771.695 296.445C770.915 297.492 769.599 300.391 770.647 301.317C772.579 303.911 774.244 306.696 775.618 309.624Z" fill="#732729"/>
<path fill-rule="evenodd" clip-rule="evenodd" d="M757.27 306.725C752.836 306.457 738.14 294.35 738.14 294.35C737.36 296.445 738.944 299.076 739.724 300.391C742.461 302.995 745.349 305.436 748.376 307.699C750.355 309.195 751.517 311.529 751.519 314.009C746.791 318.881 743.136 335.349 743.404 336.933C744.106 341.05 745.066 345.118 746.28 349.113C747.059 350.696 755.199 356.738 756.491 357.542C757.782 358.346 765.142 354.107 765.142 354.107C764.272 352.979 764.077 351.471 764.63 350.16C765.921 348.065 763.851 344.899 763.558 343.851C763.265 342.803 760.17 343.315 754.931 342.803C749.691 342.292 750.057 335.958 750.057 335.958L756.077 319.368C757.845 318.43 759.678 317.617 761.56 316.932C762.632 316.421 764.46 319.368 764.971 320.879C766.702 323.342 768.936 325.41 771.526 326.945C773.111 327.48 774.402 323.266 773.963 321.951C773.744 319.909 773.396 317.882 772.916 315.885C772.648 314.569 773.963 313.765 774.231 312.206C774.5 310.647 770.82 310.355 770.82 310.355C769.836 309.02 768.956 307.609 768.188 306.14C767.082 303.833 765.768 301.634 764.265 299.563C763.729 298.247 758.757 292.255 757.709 292.717C756.661 293.18 756.661 293.765 756.929 295.348C758.17 298.026 759.663 300.579 761.389 302.973C762.266 305.824 757.27 306.725 757.27 306.725Z" fill="#732729"/>
<path fill-rule="evenodd" clip-rule="evenodd" d="M313.4 692.238C323.161 697.546 333.254 702.216 343.619 706.221L344.131 511.869C341.045 510.734 338.068 509.324 335.236 507.655C327.596 503.326 320.32 498.39 313.474 492.892C311.036 490.797 308.599 488.678 306.162 486.583C289.396 471.308 280.501 454.719 274.482 431.283C273.434 427.58 270.802 413.89 270.29 411.259C268.94 403.782 268.126 396.218 267.853 388.627H281.744C281.744 388.871 281.744 388.871 282.012 388.871C282.351 398.435 283.491 407.953 285.424 417.325C289.883 441.296 298.779 459.445 313.449 474.207C319.507 479.908 326.093 485.024 333.115 489.482C341.082 494.658 349.98 498.232 359.313 500.006L359.581 711.945C364.731 713.812 369.978 715.395 375.3 716.696L375.568 499.884L375.812 500.152C395.746 495.937 412.245 483.294 426.404 469.067C445.51 449.846 451.018 413.256 452.577 394.036C452.577 392.184 452.846 390.333 452.846 388.749H466.736C465.956 401.66 463.056 430.163 452.577 454.329C448.675 463.54 443.08 471.934 436.078 479.079C415.389 500.152 398.891 508.581 390.751 511.747V720.301C409.288 724.126 428.165 726.07 447.093 726.099C448.922 726.099 479.237 725.149 497.929 721.349C515.63 717.909 532.986 712.886 549.788 706.343C694.934 648.593 765.767 484.159 707.996 339.065C672.211 249.193 592.952 183.842 497.881 165.822C482.93 162.936 467.755 161.355 452.528 161.096H447.045C400.357 161.068 354.408 172.744 313.4 195.055C176.056 270.031 125.521 442.109 200.524 579.403C226.555 627.05 265.735 666.218 313.4 692.238ZM633.085 604.027H466.151C464.726 565.644 474.005 527.621 492.958 494.208C494.345 491.357 495.993 488.641 497.881 486.095C511.479 466.363 531.658 451.6 549.74 440.808C561.803 433.5 572.818 427.897 580.666 423.756L581.202 312.11H560.755C559.975 318.687 561.535 329.479 558.319 360.564C557.156 372.71 554.268 384.63 549.74 395.96C544.31 409.29 537.178 421.858 528.514 433.354H509.334C515.379 427.313 538.164 399.663 544.183 358.298C546.62 337.226 544.988 317.761 546.036 297.737H595.019V433.89C579.227 440.092 564.053 447.759 549.691 456.789C531.877 468.117 516.426 482.344 505.825 500.785C502.791 505.872 500.081 511.143 497.71 516.571C485.526 543.709 481.699 576.085 482.504 590.044H633.158L633.085 604.027ZM375.3 263.802H389.922V340.174C398.573 335.691 410.101 322.512 414.292 309.089C418.937 294.424 421.498 279.179 421.895 263.802H549.74L606.888 263.534C615.003 263.534 620.242 264.314 623.386 266.677C632.281 273.79 632.038 285.386 631.77 288.017V450.236C599.284 459.713 570.454 471.308 549.74 495.791C536.922 510.797 527.222 530.822 521.715 558.204L549.74 557.936L633.085 556.62L632.817 570.043L549.74 571.383L503.437 571.895C510.261 522.661 527.539 494.744 549.74 476.034C569.651 459.445 593.606 449.968 617.098 439.493L617.879 288.066C617.879 283.851 617.342 281.756 615.247 279.637C613.151 277.517 609.496 277.785 603.476 277.542L549.861 277.785H497.881L452.528 278.053H436.224C434.678 290.178 432.133 302.156 428.622 313.864C421.043 338.371 396.673 358.128 375.178 363.657L375.3 263.802ZM375.3 381.343C395.746 377.129 411.855 365.022 426.477 350.527C439.808 337.104 446.363 315.764 449.774 297.323H452.651C465.493 297.323 483.04 297.591 498.002 297.591H529.172C529.416 330.259 532.316 363.17 516.061 393.719C510.721 403.782 504.688 413.461 498.002 422.684C495.102 426.362 492.47 429.992 489.595 433.744H472.049C480.944 421.101 489.863 410.309 498.002 397.397C499.831 393.987 501.927 390.552 503.754 387.141C516.329 363.438 513.697 326.044 513.965 310.502H460.912C458.792 319.226 455.989 327.771 452.528 336.057C448.544 345.107 442.956 353.358 436.03 360.417C415.34 381.222 398.305 389.651 390.19 392.793V458.568C401.234 451.211 409.669 440.553 414.292 428.116C418.16 415.342 420.611 402.182 421.603 388.871H437.054C435.669 403.721 432.862 418.406 428.671 432.721C421.116 457.35 396.746 477.106 375.3 482.368V381.343ZM312.938 263.899C312.938 265.483 312.938 269.429 313.449 275.203C313.676 275.995 313.766 276.818 313.717 277.639C314.992 288.363 317.185 298.96 320.273 309.308C324.464 322.731 335.479 336.422 344.106 340.977V263.802H359.045V363.682C342.547 359.467 324.464 346.629 313.449 329.698C310.276 324.802 307.815 319.476 306.138 313.888C301.157 297.639 298.169 280.845 297.243 263.875L312.938 263.899ZM281.744 263.899C281.744 271.013 283.596 325.508 308.551 350.527C310.135 352.11 311.962 353.694 313.425 355.277C326.536 367.653 341.474 377.665 359.289 381.343V381.611H359.557V482.466C342.791 478.519 324.44 465.608 313.425 448.482C310.206 443.707 307.739 438.465 306.114 432.94C301.913 418.677 299.105 404.041 297.73 389.236H313.206C313.206 390.552 313.449 391.867 313.449 393.183C314.489 405.088 316.868 416.84 320.541 428.214C324.961 440.787 333.442 451.535 344.643 458.762V392.988C333.325 388.323 322.802 381.931 313.449 374.035C308.2 369.872 303.211 365.387 298.51 360.612C269.705 331.379 267.853 270.818 267.609 263.973L281.744 263.899Z" fill="#732729"/>
</svg>
