<svg width="889" height="890" viewBox="0 0 889 890" fill="none" xmlns="http://www.w3.org/2000/svg">
<path fill-rule="evenodd" clip-rule="evenodd" d="M444.51 0.5C689.96 0.5 889 199.56 889 444.99C889 690.44 689.94 889.49 444.51 889.49C199.06 889.49 0 690.43 0 444.99C0 199.54 199.06 0.5 444.51 0.5ZM444.51 18.838C679.83 18.838 870.68 209.68 870.68 445.01C870.68 680.33 679.83 871.18 444.51 871.18C209.18 871.18 18.34 680.33 18.34 445.01C18.34 209.68 209.18 18.838 444.51 18.838Z" fill="#E62129"/>
<path d="M108.18 212.96C108.7 211.35 109.54 209.72 110.7 208.05C111.88 206.38 113.11 205.1 114.4 204.18C115.89 203.12 116.97 202.47 117.64 202.25C118.32 202.02 119.31 201.98 120.63 202.14C123.03 202.38 124.67 203.31 125.55 204.94C128.28 209.97 130.05 213.82 130.89 216.48C131.7 219.3 132.6 220.5 133.58 220.08C134.07 219.87 135.17 219.91 136.86 220.22C138.56 220.53 139.56 220.87 139.85 221.23C140.83 222.31 140.87 224.01 139.98 226.34C138.76 229.15 138.29 232.73 138.56 237.06C138.81 240.75 138.49 243.27 137.61 244.65C137.13 245.39 137 246.45 137.24 247.84C137.85 250.44 137.03 252.65 134.8 254.46C133.57 255.41 132.7 256.6 132.24 258.01C131.76 259.42 131.56 261.43 131.63 264.04C131.7 268.13 132 270.67 132.53 271.62C133.05 272.57 134.24 272.64 136.11 271.83C138.62 270.82 141.73 270.64 145.46 271.28C146.96 271.55 147.74 271.62 147.83 271.49C147.91 271.37 147.58 270.58 146.85 269.14C146.12 267.69 145.51 265.42 145.04 262.35C144.58 259.27 144.44 256.83 144.65 255.02C144.87 253.04 145 251.36 145.01 249.97C145.04 249.12 145.25 248.21 145.64 247.27C146.03 246.33 146.97 244.51 148.49 241.77C150.88 237.68 152.16 235.2 152.36 234.3C152.54 233.4 153.1 232.24 154.02 230.82C154.95 229.39 155.31 228.49 155.13 228.1C154.81 227.37 155.97 225.91 158.62 223.76C160.25 222.34 162.16 221.33 164.36 220.73C166.56 220.12 168.41 220.1 169.91 220.63C171.87 221.29 173.32 222.07 174.26 222.98C175.2 223.91 175.41 224.77 174.89 225.58C174.48 226.2 174.27 227.32 174.23 228.93C174.2 230.54 174.35 231.82 174.72 232.76C175.17 233.84 175.9 236.11 176.92 239.54C177.94 242.99 178.63 244.81 178.97 245.04C179.3 245.26 180.23 244.88 181.74 243.93C183.24 242.96 184.45 242.42 185.32 242.29C186.2 242.16 187.24 242.39 188.43 242.99C189.38 243.43 189.99 243.78 190.25 244.04C190.52 244.31 190.72 244.83 190.83 245.6C191.19 247.07 190.44 249.05 188.56 251.53C188.04 252.33 187.63 253.58 187.34 255.23C186.83 257.91 184.64 262.21 180.79 268.17C179.54 270.09 178.66 271.33 178.13 271.86C177.59 272.41 176.81 272.94 175.74 273.49C174.19 274.24 172.76 274.68 171.45 274.8L169.49 274.99L171.35 276.19C172.28 276.79 172.94 277.44 173.33 278.14C173.72 278.83 173.75 279.43 173.43 279.92C173.23 280.23 172.17 280.51 170.23 280.76C168.31 281.01 166.38 281.13 164.46 281.11C161.93 281.06 157.22 279.77 150.32 277.21C147.2 276.06 144.9 275.43 143.43 275.31C141.95 275.2 140.68 275.57 139.58 276.44C138.56 277.19 137.61 277.58 136.71 277.62C135.81 277.65 134.8 277.31 133.68 276.58C132.07 275.53 131 274.03 130.47 272.06C129.95 270.08 129.52 266.08 129.21 260.05L128.87 255.08L126.62 253.87C125.09 252.97 123.49 252.2 121.83 251.56C120.18 250.93 118.47 249.9 116.73 248.52C113.96 246.27 111.52 245.14 109.43 245.09C108.5 245.02 107.25 245.22 105.67 245.7C104.09 246.17 102.75 246.76 101.67 247.46C100.82 247.97 99.7396 248.26 98.4496 248.35C97.1596 248.43 96.2097 248.28 95.5897 247.87C95.0997 247.55 94.6897 246.71 94.3697 245.36C94.0597 244.01 94.0298 242.85 94.3098 241.88C95.3198 238.58 96.9397 236.01 99.1797 234.2C100.75 233.01 102.08 232.17 103.2 231.66C104.32 231.16 105.01 230.64 105.28 230.09C105.54 229.56 105.61 228.42 105.52 226.67C105.52 224.64 105.84 222.58 106.48 220.49C107.14 218.4 107.51 216.94 107.6 216.13C107.7 215.3 107.9 214.25 108.21 212.95L108.18 212.96ZM119.63 218.95C119.02 219.07 117.53 220.76 115.18 223.98C113.32 226.56 112.27 228.2 112.05 228.9C111.82 229.59 112.08 230.58 112.83 231.86C113.18 232.53 114.36 233.63 116.34 235.13C118.32 236.63 119.77 237.61 120.73 238.04L122.3 238.67L124.11 235.48C125.37 233.39 126.17 231.69 126.48 230.4C126.67 229.56 126.69 228.85 126.55 228.26C126.39 227.68 125.87 226.64 124.98 225.19C122.44 220.81 120.66 218.72 119.63 218.95ZM159.82 241.6C158.34 243.47 157.01 245.16 155.85 246.69C153.6 249.47 152.58 253.21 152.79 257.92C152.78 258.89 152.41 260.14 151.67 261.69C150.17 264.68 150.14 267.23 151.61 269.32C152.22 270.15 152.73 270.68 153.16 270.92C153.58 271.14 154.6 271.52 156.2 272.04C158.19 272.63 160.66 273.18 163.6 273.68C166.54 274.19 168.09 274.3 168.26 274.06C168.45 273.75 168.4 273.16 168.07 272.29C167.75 271.42 167.34 270.84 166.85 270.51C166.11 270.04 165.82 269.42 165.98 268.69C166.15 267.96 166.88 266.66 168.2 264.78L170.58 261.3L170.27 258.32C169.94 255.44 168.56 251.52 166.17 246.52C164.11 242.09 162.83 239.64 162.35 239.15C162.3 239.11 162.13 239.18 161.88 239.37C161.62 239.56 161.33 239.85 160.98 240.24C160.64 240.64 160.25 241.1 159.83 241.6H159.82ZM358.77 121.69C358.82 121.367 359.21 121.199 359.95 121.185C360.68 121.185 361.37 121.311 362 121.563C362.63 121.83 364.56 122.278 367.82 122.937C370.41 123.498 372.98 124.27 375.51 125.28C378.05 126.27 379.59 127.12 380.13 127.8C380.45 128.32 380.51 129.02 380.28 129.91C380.06 130.79 379.57 131.6 378.79 132.32C378.21 132.89 377.69 133.24 377.27 133.34C376.83 133.44 375.85 133.55 374.34 133.65C372.18 133.73 370.78 133.52 370.12 133.03C369.46 132.54 368.57 131.94 367.48 131.21C365.64 130.1 363.7 128.41 361.62 126.12C359.56 123.83 358.61 122.349 358.77 121.676V121.69ZM290.31 70.3476C291.39 69.6046 292.73 69.1136 294.32 68.8756C295.92 68.6226 297.45 68.6796 298.92 69.0156C300.39 69.3526 301.17 69.8986 301.26 70.6416C301.33 71.3146 301.71 72.0156 302.4 72.7166C303 73.3756 303.34 73.9506 303.42 74.4276C303.51 74.9036 303.31 75.6476 302.86 76.6566C302.65 77.1896 302.33 77.6096 301.92 77.8906C301.52 78.1846 300.7 78.5216 299.51 78.9136C297.62 79.5306 296.61 80.0076 296.48 80.3576C296.29 81.1996 295.98 81.3396 295.57 80.7786C295.42 80.5266 295.33 80.1616 295.33 79.6846C295.25 78.7036 294.38 77.5816 292.73 76.3346C291.07 75.0866 289.82 74.3296 288.95 74.0626C288.21 73.9226 287.79 73.6006 287.72 73.1236C287.64 72.6466 287.96 72.1706 288.66 71.7076C289.21 71.2166 289.75 70.7686 290.31 70.3476ZM326.09 52.6546C329.26 50.2286 331.56 48.7426 332.98 48.1956C334.39 47.6626 335.8 47.7056 337.17 48.3496C338.61 48.9666 339.97 49.8086 341.25 50.8736C342.1 51.6026 342.71 52.2476 343.04 52.7946C343.38 53.3416 343.81 54.4346 344.33 56.0466C345.1 58.4446 345.57 60.7576 345.72 63.0006C345.86 65.2446 345.99 66.3796 346.06 66.3936C346.14 66.4076 348.16 66.4216 352.14 66.4636C355.09 66.4356 356.9 66.5056 357.58 66.6746C358.26 66.8426 358.94 67.2776 359.64 67.9926C360.46 68.8196 361.23 70.2216 361.94 72.1986C362.66 74.1746 362.94 75.6336 362.77 76.5306C362.64 77.1196 362.03 77.8206 360.89 78.6616C360.06 79.2366 359.46 79.5306 359.08 79.5446C358.7 79.5586 357.98 79.3766 356.92 79.0256C355.97 78.7176 355.26 78.5636 354.79 78.5496C354.33 78.5496 353.68 78.7176 352.86 79.0536C351.22 79.7406 350.25 79.9656 349.98 79.6986C349.7 79.4466 349.86 78.5216 350.42 76.9366C350.82 75.5626 351.05 74.6376 351.09 74.1466C351.13 73.6706 350.92 73.1096 350.49 72.4786C350.05 71.6096 349.54 71.0346 348.95 70.7686C348.36 70.5016 347.81 70.5576 347.32 70.9506C346.94 71.2306 346.91 72.4506 347.22 74.5956C348.1 81.1426 348.53 87.4656 348.48 93.5506C348.54 96.1026 348.69 97.5326 348.95 97.8266C349.2 98.1356 350.46 97.7986 352.7 96.8316C354.62 96.0466 356.11 95.6536 357.15 95.6256C358.19 95.5976 359.22 95.9626 360.25 96.7196C361.09 97.3786 361.56 98.1496 361.7 99.0466C361.89 100.547 359.95 102.033 355.91 103.491C352.28 104.753 350.33 106.548 350.08 108.889C349.93 110.109 349.38 111.287 348.44 112.45C347.85 113.263 347.38 113.782 347.03 114.021C346.67 114.259 346.09 114.427 345.27 114.539C344.05 114.623 342.78 114.876 341.45 115.31L339.41 115.857L339.92 117.792C340.21 119.18 341.25 121.521 343.02 124.83C344.8 128.14 346.11 130.82 346.97 132.88C347.82 134.92 348.97 136.97 350.42 138.99C351.83 140.94 352.97 142.9 353.85 144.88C354.72 146.86 355.07 148.13 354.88 148.75C354.6 149.31 353.64 149.86 352.02 150.37C349.62 151.15 345.31 150.81 339.08 149.32C337.11 148.79 334.97 148.52 332.63 148.5C330.52 148.48 329.08 148.69 328.29 149.14C327.51 149.59 327.12 150.43 327.13 151.68C327.14 152.69 326.57 153.77 325.39 154.93C324.35 156.04 323.4 156.63 322.52 156.68C321.64 156.74 320.32 156.31 318.55 155.41C317.27 154.82 316.45 154.33 316.08 153.94C315.72 153.54 315.37 152.83 315.03 151.78C314.26 149.38 314.4 147.49 315.47 146.1C316.53 144.71 318.21 144.22 320.53 144.63C324.99 145.43 330.4 145.12 336.78 143.66L340.23 142.78L340.24 141.37C340.3 140.57 339.62 138.4 338.23 134.85C336.85 131.31 335.54 128.36 334.32 126.04C333.61 124.79 333.1 124 332.8 123.68C332.5 123.344 332.18 123.274 331.86 123.456C329.74 124.61 323.96 129.68 314.51 138.65C312.79 140.31 311.65 141.44 311.08 142.1C310.52 142.75 309.47 144.19 307.92 146.39C306.41 148.44 305.41 149.58 304.95 149.81C301.12 151.22 298.04 151.75 295.68 151.43C293.62 151.09 292.15 150.67 291.25 150.18C290.36 149.69 289.74 148.92 289.39 147.86C289.11 147.02 289.02 146.46 289.14 146.2C289.25 145.93 289.85 145.45 290.96 144.79C292.39 143.94 294.21 142.85 296.43 141.5C298.64 140.15 300.06 139.38 300.69 139.19C302.02 138.75 305.85 135.79 312.16 130.33C314.93 127.87 317.57 125.73 320.05 123.92C322.53 122.096 324.51 120.484 326 119.068L328.25 117.049L327 114.301C326.21 112.534 325.9 111.118 326.09 110.053C326.15 109.492 326.19 109.085 326.22 108.847C326.26 108.595 326.25 108.413 326.21 108.272C326.16 108.132 326.04 108.118 325.84 108.216C325.64 108.314 325.41 108.413 325.13 108.511C324.43 108.973 323.84 108.973 323.37 108.497C322.94 108.09 322.08 106.744 320.82 104.431C319.56 102.117 318.9 100.744 318.83 100.295C318.79 99.9156 317.64 99.5516 315.38 99.2006C313.12 98.8506 311.95 98.8366 311.82 99.1866C311.68 99.4676 311.48 101.122 311.22 104.164C311.01 106.408 310.98 107.992 311.13 108.917C311.27 109.843 311.85 111.693 312.83 114.483C314.2 118.465 314.92 120.961 314.96 121.956C315.02 122.951 314.47 123.97 313.34 125.04C312.13 126.13 311.26 126.75 310.73 126.88C310.18 127.02 309.58 126.76 308.9 126.13C307.85 125.07 306.98 123.64 306.28 121.858C305.58 120.063 304.18 115.577 302.09 108.413C298.96 97.6026 297.93 92.2326 298.95 92.2886C299.34 92.3166 300.69 93.5086 302.97 95.8786C305.26 98.2476 306.51 99.7476 306.72 100.379C306.93 101.01 307.17 101.276 307.45 101.192C307.59 101.15 307.81 100.043 308.12 97.8826C308.43 95.7236 308.55 94.0696 308.48 92.9196C308.47 92.1486 308.61 91.1256 308.89 89.8776C309.19 88.6156 309.37 86.6946 309.47 84.1016C309.77 74.7496 310.46 68.4546 311.55 65.2306C312.65 62.0056 314.93 59.5376 318.44 57.8696C320.25 56.9726 322.8 55.2476 326.09 52.6966V52.6546ZM336.17 59.2856C336.03 58.8656 335.89 58.5846 335.73 58.4446C335.56 58.3046 335.35 58.2766 335.05 58.3746C334.56 58.5286 333.52 59.3416 331.93 60.7856C330.34 62.2296 329.51 63.1276 329.47 63.4496C329.37 63.8706 329.92 64.8236 331.1 66.3096C332.19 67.7396 332.77 68.8896 332.87 69.7586C332.95 70.6276 332.57 71.7776 331.72 73.2216C330.89 74.7356 330.58 75.8296 330.79 76.4886C331 77.1616 331.17 77.4696 331.28 77.4416C331.39 77.4136 332.21 76.7546 333.73 75.4786C335.99 73.5726 337.25 72.3106 337.52 71.6796C337.79 71.0486 337.73 69.1976 337.35 66.1416C336.92 62.3986 336.52 60.1126 336.17 59.2856ZM318.89 67.1226C318.23 67.0246 317.33 67.1646 316.17 67.5436C315 67.9216 314.23 68.3286 313.83 68.7776C313.31 69.3386 312.93 70.5436 312.68 72.4226C312.42 74.2876 312.34 76.1796 312.42 78.1006C312.59 80.5406 312.73 82.8676 312.83 85.0826C312.82 86.7226 312.86 87.6906 312.97 88.0126C313.07 88.3356 313.36 88.5176 313.85 88.6016C315.02 88.8396 316.2 88.5596 317.37 87.7466C318.55 86.9336 319.1 86.0356 319.01 85.0546C318.9 84.2416 318.82 82.2226 318.75 79.0256C318.68 75.8156 318.58 74.0206 318.45 73.6426C318.33 73.2496 318.58 72.2266 319.2 70.5436C319.74 69.1276 319.99 68.2166 319.95 67.8516C319.91 67.4736 319.56 67.2356 318.9 67.1366L318.89 67.1226ZM337.94 74.8056C338.08 74.5256 338.07 74.2176 337.88 73.8946C337.77 73.7826 337.2 74.1046 336.16 74.8616C335.12 75.6196 334.08 76.4886 333.03 77.4556C331.98 78.4236 331.36 79.0826 331.18 79.4606C330.99 79.8396 331.01 80.0216 331.25 80.0216C331.32 79.9936 331.52 79.8956 331.86 79.7126C332.63 79.2226 333.79 78.3666 335.33 77.1196C336.87 75.8856 337.74 75.1146 337.97 74.8056H337.94ZM339.38 82.5026C338.94 79.9236 338.52 78.5916 338.14 78.4796C337.76 78.3666 336.48 79.3206 334.34 81.3396C332.99 82.7136 332.19 83.6526 331.93 84.1576C331.66 84.6766 331.48 85.6016 331.38 86.9616C331.25 88.9526 331.34 90.9006 331.65 92.8216L332.15 95.8076L335.47 97.4066C337.59 98.4296 338.94 98.8506 339.5 98.6686C340.48 98.3456 340.7 95.9346 340.18 91.4476C339.95 89.7376 339.86 88.5456 339.95 87.8446C340.03 87.1576 339.85 85.3626 339.37 82.4886L339.38 82.5026ZM542.97 58.7246C543.54 58.3746 543.97 58.2346 544.22 58.3186C544.47 58.4026 545.26 58.8936 546.6 59.7906C548.06 60.8136 549.5 61.3886 550.93 61.5426C551.99 61.6556 552.6 61.7816 552.8 61.9216C552.98 62.0616 553.05 62.4686 552.98 63.1416C552.92 64.0526 553.43 65.8186 554.52 68.4266L556.16 72.3386L554.75 75.6056C553.88 77.8066 553.16 79.0536 552.6 79.3346C552.04 79.6146 550.95 79.5866 549.31 79.2506C547.67 78.9136 546.55 78.4936 545.93 77.9746C545.38 77.4836 544.57 75.5906 543.46 72.2826C542.35 68.9736 541.9 67.0386 542.09 66.4636C542.27 65.9036 542.19 64.9496 541.85 63.5896C541.08 61.1646 541.46 59.5376 542.97 58.7106V58.7246ZM579.86 66.5056C582.42 66.4916 584.81 66.1836 586.97 65.6086C589.14 65.0336 590.68 64.8936 591.59 65.1886C592.43 65.4686 593.5 66.1136 594.8 67.1646C596.09 68.2026 597.12 69.2676 597.84 70.3756C598.32 71.0766 598.55 71.6096 598.55 72.0016C598.53 72.3946 598.25 73.1936 597.7 74.4136C597.1 75.7736 596.34 76.7266 595.43 77.2876C594.51 77.8486 591.65 79.1666 586.85 81.2696C584.33 82.3206 583.12 82.9516 583.21 83.1756C583.29 83.4006 585.28 84.1016 589.17 85.2926C591.98 86.2046 593.78 86.8496 594.55 87.2136C595.32 87.5786 596.34 88.3216 597.62 89.4286C599.64 91.3356 600.99 93.0316 601.63 94.5186C602.28 96.0046 602.47 97.8406 602.23 100.014C602.12 100.842 601.45 101.388 600.23 101.697C599.01 102.005 597.65 102.174 596.15 102.244C595.05 102.272 594.31 102.146 593.93 101.879C593.55 101.599 593.37 100.996 593.36 100.057C593.36 99.8176 592.04 99.4956 589.42 99.0746C586.8 98.6546 585.11 98.5136 584.36 98.6546C582.3 98.9906 581.08 99.7616 580.7 100.968C580.05 102.931 577.4 105.735 572.73 109.338C569.41 111.918 567.66 113.474 567.48 114.049C567.07 115.31 568.67 117.666 572.3 121.101C573.79 122.517 574.68 123.47 574.99 123.96C575.3 124.45 575.36 124.97 575.17 125.55C574.89 126.39 575.01 127.13 575.51 127.75C575.82 128.24 575.93 128.53 575.88 128.62C575.81 128.71 575.36 128.81 574.54 128.94C573.42 129.04 572.51 129.09 571.81 129.09C571.04 129.08 570.41 129.57 569.93 130.58C569.45 131.59 568.88 133.47 568.22 136.2C567.7 138.51 567.06 140.45 566.29 141.99C565.51 143.53 564.2 145.59 562.35 148.17C560.79 150.32 558.87 152.31 556.56 154.16C554.24 156.01 552.59 156.94 551.58 156.92C550.98 156.88 549.52 157.26 547.23 158.07C545.41 158.65 544.02 158.87 543.04 158.76C542.07 158.63 541.23 158.11 540.52 157.19C539.86 156.35 539.44 155.59 539.27 154.92C539.1 154.24 539.13 153.21 539.35 151.79C539.51 150.12 539.45 148.64 539.17 147.3C538.9 145.97 537.92 143.77 536.24 140.7C534.56 137.63 532.78 134.81 530.88 132.25C527.41 127.38 525.84 124.42 526.19 123.372C526.41 122.671 527.35 121.774 528.99 120.666C530.63 119.573 532.34 118.689 534.11 118.016C536.37 117.273 539.07 116.867 542.2 116.797C545.48 116.768 547.5 116.628 548.28 116.376C549.07 116.124 549.66 115.366 550.08 114.105C550.41 113.053 550.93 112.31 551.62 111.861C552.31 111.427 553.08 111.343 553.92 111.609C554.76 111.89 555.36 111.637 555.74 110.866C556.11 110.095 556.06 109.198 555.62 108.202C555.41 107.669 555.6 107.207 556.23 106.828C556.86 106.45 558.15 106.001 560.12 105.468L562.32 104.781L560.59 104.697C559.47 104.571 557.48 104.038 554.64 103.113C551.79 102.188 549.6 101.08 548.07 99.8176C546.48 98.5136 545.65 97.4906 545.58 96.7336C545.51 95.9766 546.21 95.1636 547.65 94.3216C548.42 93.8736 548.63 93.5926 548.28 93.4806C547.93 93.3686 546.85 93.3266 545.06 93.3686C543.07 93.4946 541.62 93.8036 540.74 94.2936C539.84 94.7846 539.2 95.6256 538.81 96.8176C538.4 98.0796 537.68 99.4396 536.66 100.898C535.83 102.033 535.05 102.706 534.31 102.931C533.58 103.155 532.22 103.071 530.25 102.664C528.94 102.398 528.11 101.893 527.77 101.15C527.42 100.421 527.16 98.5416 526.97 95.5276C526.86 93.4666 526.88 91.9386 527.02 90.9286C527.14 89.9196 527.56 88.3636 528.25 86.2606C529.19 83.3726 529.93 81.6756 530.49 81.1566C531.05 80.6386 531.91 80.7646 533.06 81.5216C534.07 82.2366 535.03 82.6296 535.95 82.6996C536.86 82.7696 538.25 82.5586 540.11 82.0686C543.91 81.1286 547.78 80.7086 551.7 80.8206C557.41 80.9606 561.1 80.9886 562.75 80.9186C564.41 80.8346 565.94 80.4416 567.34 79.7266C569.34 78.8296 569.73 77.8626 568.5 76.8386C566.78 75.1846 566.22 72.2546 566.82 68.0066C567.38 64.1506 568.09 61.6976 568.98 60.6596L569.66 59.6086L572.85 63.0996L575.93 66.5486H579.9L579.86 66.5056ZM582.45 71.0766C582.7 70.3056 581.76 70.1936 579.65 70.7546C578.55 71.0206 577.73 71.4136 577.17 71.9316C576.6 72.4506 576.44 72.9416 576.63 73.3896C576.83 73.8386 577.84 73.6286 579.65 72.7306C581.46 71.8336 582.39 71.2866 582.45 71.0766ZM586.21 90.7326C585.59 89.5266 582.63 88.5596 577.35 87.8586C572.06 87.1436 567.56 87.0876 563.87 87.6766C562.64 87.9006 560.27 88.7556 556.79 90.2706C553.3 91.7846 551.49 92.7516 551.37 93.1726C551.34 93.2426 551.48 93.2706 551.76 93.2426C552.04 93.2146 552.42 93.1866 552.9 93.1446C553.37 93.1026 553.91 93.0316 554.49 92.9056C560.5 92.1346 565.88 91.8266 570.66 91.9806C573.07 91.9806 574.81 92.3586 575.89 93.1026C576.59 93.5646 577.17 93.8316 577.61 93.9016C578.06 93.9716 578.82 93.9016 579.9 93.7046C580.91 93.4806 581.93 93.2006 582.98 92.8356C584.04 92.4716 584.85 92.1066 585.45 91.7146C586.04 91.3216 586.31 90.9996 586.24 90.7466L586.21 90.7326ZM558.85 133.28C559.56 130.63 559.78 129.12 559.53 128.71C559.26 128.32 557.96 128.05 555.59 127.9C553.37 127.8 550.85 128.22 548.06 129.19C546.19 129.91 543.5 130.16 540 129.95C538.32 129.86 537.38 130.05 537.19 130.49C537.01 130.94 537.46 131.99 538.55 133.68C540.38 136.21 542.76 138.91 545.72 141.78C548.68 144.64 550.48 146 551.17 145.82C551.59 145.72 552.53 144.88 553.98 143.29C555.42 141.71 556.37 140.43 556.84 139.51C557.38 138.53 558.07 136.45 558.85 133.28Z" fill="#E62129"/>
<path d="M759.411 239.64C759.851 239.89 760.312 241.01 760.812 243.03C761.322 245.04 761.662 246.97 761.802 248.81C761.872 250.27 761.731 251.28 761.391 251.85C761.051 252.43 760.421 252.67 759.471 252.57C758.631 252.5 757.242 251.95 755.292 250.91C753.342 249.89 752.321 249.15 752.191 248.68C752.041 248.16 750.732 247.66 748.312 247.18C745.872 246.69 744.612 246.52 744.522 246.66C744.542 246.83 745.552 247.66 747.522 249.15C749.502 250.63 751.141 251.75 752.421 252.51C756.091 254.63 758.142 256.56 758.562 258.3C758.952 259.72 759.132 261.16 759.122 262.63C759.102 264.11 758.881 265.06 758.471 265.51C757.441 266.63 755.161 266.62 751.661 265.51C748.151 264.39 745.811 262.93 744.651 261.13C744.371 260.7 743.852 260.59 743.122 260.81C742.252 261.11 738.732 261.25 732.542 261.2C731.472 261.19 730.761 261.26 730.401 261.4C730.051 261.54 729.682 261.92 729.282 262.52C728.602 263.5 727.502 265.66 726.022 269C724.532 272.35 723.702 274.42 723.522 275.25C723.172 277.16 723.932 279.14 725.792 281.18C726.562 282.09 728.681 283.83 732.141 286.38C735.611 288.94 737.772 290.38 738.592 290.72C739.772 291.18 741.262 290.79 743.052 289.54C744.852 288.29 746.362 286.59 747.622 284.45C748.862 282.68 749.631 281.95 749.921 282.29C750.161 282.65 750.001 283.23 749.441 283.99C748.881 284.74 748.631 285.72 748.701 286.92C748.951 291.51 748.931 294.39 748.631 295.57C748.481 296.02 748.341 297.08 748.201 298.76C748.061 300.45 747.791 301.4 747.431 301.65C747.121 301.85 746.191 301.79 744.661 301.47C743.141 301.15 742.242 300.8 742.002 300.42C741.762 300.04 740.112 299 737.052 297.28C730.712 293.63 725.572 290.06 721.612 286.54C719.952 285.07 718.811 283.71 718.191 282.49C717.581 281.25 717.161 279.61 716.961 277.54C716.741 275.56 716.952 273.71 717.582 271.97C718.212 270.23 719.612 267.83 721.752 264.76C723.242 262.56 723.901 261.34 723.731 261.09C723.531 260.78 722.132 260.56 719.542 260.45C716.952 260.32 714.661 260.38 712.701 260.6C710.031 260.84 708.632 260.75 708.512 260.35C708.382 259.94 708.072 259.35 707.612 258.55C707.132 257.75 707.231 256.62 707.891 255.13C708.551 253.65 709.471 252.51 710.651 251.75C712.081 250.83 713.372 250.28 714.532 250.1C715.702 249.92 717.161 250.1 718.911 250.63C721.081 251.25 724.542 251.87 729.302 252.48C734.062 253.1 736.902 253.49 737.822 253.69C739.272 254.15 739.772 254.05 739.342 253.37C739.202 253.28 739.061 253.14 738.941 252.96C738.491 252.54 736.532 251.57 733.032 250.06C729.522 248.54 727.452 247.73 726.762 247.65C726.092 247.56 725.512 246.95 725.042 245.8C724.562 244.65 724.331 243.85 724.391 243.37C724.391 242.14 725.471 240.55 727.641 238.6C728.951 237.5 730.191 236.91 731.391 236.84C732.581 236.77 734.011 237.2 735.681 238.15C737.341 239.09 739.671 239.7 742.671 239.96C747.831 240.31 750.581 240.12 750.891 239.39C751.061 239.11 751.071 238.31 750.921 236.99C750.861 236.23 750.861 235.42 750.921 234.55C750.971 233.68 751.061 232.94 751.181 232.32C751.311 231.71 751.481 231.42 751.691 231.47C752.001 231.54 752.632 232.22 753.572 233.56C754.252 234.61 755.252 235.81 756.572 237.16C757.882 238.5 758.821 239.35 759.401 239.68L759.411 239.64ZM760.842 189.5C761.422 189.84 762.361 191.16 763.691 193.47C764.671 195.13 765.232 196.19 765.372 196.68C765.512 197.17 765.461 197.89 765.191 198.86C764.941 199.82 764.591 200.51 764.151 200.92C763.721 201.34 762.542 202.16 760.622 203.41C757.842 205.12 755.361 206.51 753.161 207.6C751.321 208.45 750.091 209.19 749.441 209.82C748.801 210.46 746.721 212.89 743.211 217.11C743.061 217.29 743.141 217.33 743.421 217.24C743.641 217.18 743.932 217.03 744.312 216.79C745.412 216.17 746.771 215.78 748.381 215.61C749.991 215.44 751.242 215.3 752.122 215.16C752.842 215.05 754.131 215.43 755.961 216.3C757.811 217.17 758.951 217.95 759.401 218.62C759.721 219.12 760.581 219.89 761.951 220.94C763.341 221.98 765.261 223.38 767.711 225.13C770.951 227.53 773.782 230.01 776.242 232.56C778.691 235.11 781.382 238.43 784.302 242.53L787.901 247.46L788.532 251.29C788.812 253.23 788.881 255.12 788.731 256.98C788.571 258.85 788.211 259.96 787.661 260.32C787.101 260.68 786.332 260.84 785.322 260.78C784.312 260.73 783.482 260.47 782.842 260.01C781.942 259.45 780.862 258.15 779.572 256.11C778.302 254.08 777.062 252.61 775.862 251.71C774.232 250.56 771.612 248.5 767.992 245.52C764.382 242.53 762.591 240.93 762.641 240.73C762.681 240.52 763.301 240.66 764.471 241.13C765.671 241.59 767.631 242.25 770.391 243.1C773.151 243.96 774.891 244.6 775.631 245.05C776.361 245.5 776.922 245.61 777.292 245.36C777.542 245.21 777.511 244.81 777.201 244.23C776.911 243.62 776.362 242.85 775.582 241.91C774.792 240.97 773.802 239.92 772.612 238.76C771.192 237.38 768.582 235.35 764.802 232.64C761.012 229.94 758.282 228.17 756.582 227.33C754.972 226.62 754.042 226.07 753.802 225.69C753.572 225.33 753.162 225.12 752.612 225.07C752.072 225.03 751.561 225.16 751.131 225.44C750.571 225.8 749.431 226.98 747.731 228.97C745.601 230.98 744.411 231.87 744.191 231.66C743.911 231.23 743.362 230.79 742.552 230.35C741.692 229.84 740.882 229.18 740.122 228.34C739.362 227.51 739.072 226.95 739.242 226.67C739.361 226.32 739.351 226.03 739.181 225.77C739.101 225.65 738.802 225.73 738.282 226.03C737.772 226.32 737.202 226.73 736.572 227.26C735.962 227.79 735.522 228.28 735.272 228.7C735.062 228.93 734.642 228.85 733.992 228.47C733.352 228.09 732.702 227.58 732.032 226.97C731.362 226.35 730.952 225.77 730.802 225.26C730.502 224.39 730.361 222.87 730.401 220.69C730.451 218.5 729.912 215.82 728.822 212.65C727.732 209.48 727.242 207.53 727.332 206.81C727.432 206.08 727.282 205.56 726.862 205.26C726.442 204.97 725.012 205.6 722.552 207.2C720.102 208.78 717.801 210.1 715.661 211.14C713.861 212.04 711.592 213.27 708.862 214.82C706.122 216.38 703.891 217.71 702.201 218.82C700.491 219.93 699.591 220.6 699.481 220.85C699.871 221.05 700.601 220.88 701.661 220.36C702.801 219.8 706.631 218.5 713.161 216.47C714.741 216.06 716.692 215.39 718.992 214.46C721.312 213.54 722.582 213.25 722.822 213.63C723.182 214.19 722.051 214.97 719.441 215.96C718.041 216.52 715.562 217.87 712.012 220C703.982 224.86 697.152 228.14 691.562 229.84C688.792 230.75 687.042 231.45 686.302 231.93C685.502 232.45 684.662 232.77 683.822 232.88C682.962 232.99 682.482 232.83 682.362 232.38C682.252 231.93 682.062 231.78 681.812 231.94C680.692 232.67 680.622 231.26 681.592 227.72L682.481 224.23L690.292 219.16C695.482 215.88 699.142 213.72 701.302 212.68C707.862 209.48 712.331 207.41 714.731 206.47C716.651 205.75 718.072 205.1 718.992 204.49C719.922 203.89 721.661 203.05 724.181 201.98C726.701 200.92 728.672 199.89 730.052 198.9C730.522 198.52 730.872 198.24 731.112 198.08C731.362 197.93 731.582 197.82 731.762 197.79C731.962 197.75 732.072 197.76 732.122 197.82C732.162 197.87 732.242 198 732.352 198.2C732.452 198.49 732.682 198.6 733.042 198.55C733.412 198.49 734.111 198.25 735.161 197.83C736.731 196.99 737.432 196.44 737.272 196.19C736.912 195.9 736.742 195.74 736.772 195.73C736.802 195.72 737.562 195.48 739.042 195.06C740.232 194.72 741.051 194.68 741.471 194.93C741.891 195.18 742.061 195.8 741.961 196.8C741.861 197.79 740.911 198.88 739.141 200.09C737.361 201.3 735.592 202.02 733.832 202.29C730.622 202.78 729.141 203.83 729.381 205.43C729.651 206.93 730.501 208.1 731.921 208.94C732.771 209.44 733.322 209.88 733.562 210.25C733.972 210.87 734.571 211.45 735.401 211.96C736.221 212.48 736.762 212.67 737.012 212.51C737.392 212.27 738.162 211.24 739.352 209.4C740.542 207.56 742.171 205.46 744.231 203.06C746.291 200.66 747.992 198.94 749.332 197.89C749.462 197.8 749.581 197.73 749.711 197.65C750.751 196.8 751.172 196.18 751.002 195.76C750.822 195.35 749.641 194.27 747.441 192.52C747.121 192.29 746.861 192.1 746.681 191.96C743.321 189.21 741.762 187.3 742.042 186.24C742.112 185.93 742.321 185.93 742.691 186.21C743.231 186.64 744.352 187.02 746.052 187.33C747.752 187.64 749.531 187.81 751.391 187.82C755.841 187.75 758.992 188.31 760.812 189.5H760.842ZM782.492 214.07C782.782 213.97 783.081 214.17 783.401 214.67C783.721 215.16 784.051 215.95 784.381 217.01C784.721 218.08 784.971 219.21 785.141 220.42C785.381 222.55 785.321 225.1 784.961 228.07C784.591 231.05 784.101 232.87 783.471 233.53C782.871 234.09 782.101 234.35 781.141 234.31C780.191 234.27 779.492 233.91 779.052 233.23C778.612 232.55 778.202 231.2 777.822 229.21C777.442 227.2 777.081 225.93 776.711 225.37C775.661 223.76 776.352 222.83 778.752 222.59C780.062 222.44 780.892 222.03 781.262 221.36C781.592 220.78 781.831 219.9 781.981 218.71C782.141 217.52 782.172 216.45 782.102 215.53C782.042 214.77 782.172 214.29 782.492 214.08V214.07Z" fill="#E62129"/>
<path fill-rule="evenodd" clip-rule="evenodd" d="M444.51 144.561C610.41 144.561 744.94 279.091 744.94 444.991C744.94 610.891 610.41 745.431 444.51 745.431C278.61 745.431 144.07 610.891 144.07 444.991C144.07 279.091 278.61 144.561 444.51 144.561ZM444.51 152.391C606.07 152.391 737.11 283.431 737.11 444.991C737.11 606.561 606.07 737.591 444.51 737.591C282.94 737.591 151.91 606.561 151.91 444.991C151.91 283.431 282.94 152.391 444.51 152.391Z" fill="#E62129"/>
<path fill-rule="evenodd" clip-rule="evenodd" d="M722.076 444.99C722.076 598.3 597.796 722.58 444.486 722.58C291.186 722.58 166.906 598.3 166.906 444.99C166.906 291.69 291.186 167.41 444.486 167.41C597.796 167.41 722.076 291.69 722.076 444.99Z" fill="#E62129"/>
<path fill-rule="evenodd" clip-rule="evenodd" d="M382.024 270.921C382.024 270.921 420.574 262.4 425.964 270.47C431.344 278.55 422.824 274.961 425.964 283.021C429.104 291.091 465.864 279.431 469.904 275.391C473.944 271.351 491.424 256.561 501.744 265.521C512.064 274.491 529.544 277.191 533.134 302.301C536.724 327.411 533.134 345.34 533.134 345.34C533.134 345.34 522.364 374.931 508.474 375.381C494.574 375.83 475.284 374.931 475.284 374.931C475.284 374.931 458.254 383.91 432.244 380.32C406.234 376.73 399.504 370.901 399.504 370.901L381.494 352.881L377.084 342.651C377.084 342.651 373.944 320.401 377.084 317.171C380.234 313.951 383.374 298.261 383.374 296.021C383.374 293.771 385.614 285.701 383.374 283.901C381.124 282.111 382.024 270.911 382.024 270.911V270.921ZM447.484 480.32C447.484 480.32 458.254 483.46 460.484 482.57C462.724 481.67 469.904 460.15 478.414 465.08C486.934 470.02 489.624 471.81 491.404 475.85C493.204 479.89 503.954 481.681 503.954 481.681C503.954 481.681 502.614 486.17 507.094 487.96C509.154 488.79 511.024 489.141 512.454 489.281C507.494 482.811 502.214 476.58 496.564 470.71C473.284 446.46 441.664 447.84 441.664 447.84C441.664 447.84 379.304 451.191 353.744 409.051C328.184 366.901 309.804 366.451 332.674 302.771C355.544 239.111 368.274 258.511 381.924 258.511C382.824 259.871 385.174 264.481 380.464 267.881C375.744 271.261 369.654 283.501 370.104 294.021C370.554 304.571 361.354 344.02 375.714 360.61C390.054 377.19 398.134 381.231 409.344 386.161C420.564 391.101 442.984 402.75 459.124 403.2C475.254 403.65 494.994 404.991 501.714 412.171C508.444 419.351 589.014 471.18 616.954 592.36C621.244 610.96 629.954 640.84 629.954 640.84C629.954 640.84 602.154 674.031 597.894 672.901C593.624 671.781 591.834 669.99 579.734 634.57C573.064 615.04 563.364 582.741 547.794 549.151C547.854 550.121 547.894 551.08 547.894 552.08C548.344 589.74 492.744 606.781 492.744 606.781C492.744 606.781 456.864 618.001 447.454 617.551C438.034 617.101 413.824 623.83 399.474 618.45C385.134 613.07 323.254 602.31 312.494 565.09C301.734 527.87 338.054 500.53 348.824 492.45C359.594 484.38 368.554 474.07 371.244 468.24C373.934 462.41 380.214 459.27 384.684 458.37C389.174 457.471 399.034 459.271 406.654 459.271C414.284 459.271 422.344 459.711 426.834 463.301C431.314 466.891 442.964 474.521 442.964 474.521L447.454 480.35L447.484 480.32ZM360.054 530.541C363.194 532.791 376.644 530.99 380.674 525.61C384.714 520.22 389.204 519.78 394.124 516.19C399.054 512.6 413.854 508.56 419.684 508.11C425.514 507.66 429.554 504.52 441.204 507.21C452.864 509.91 462.724 513.49 465.414 517.08C468.104 520.67 476.184 522.02 479.304 529.2C482.454 536.38 486.034 548.031 484.694 551.171C483.344 554.311 465.414 563.28 444.344 563.71C423.274 564.16 400.404 571.791 370.804 558.781C341.214 545.781 360.044 530.531 360.044 530.531L360.054 530.541ZM434.934 312.631C430.444 314.421 425.064 322.501 421.044 326.521C417.004 330.561 414.764 339.52 417.904 347.6C421.044 355.67 473.504 348.94 473.504 348.94C473.504 348.94 482.924 344.011 484.724 341.761C486.514 339.521 489.654 320.24 482.024 314.86C474.404 309.47 434.954 312.62 434.954 312.62L434.934 312.631Z" fill="#FEFEFE"/>
<path d="M69.7812 489.729L128.351 484.709L129.311 495.89L80.6912 500.05L83.0712 527.849L73.1112 528.709L69.7812 489.729ZM81.2712 563.76L132.211 527.52L135.761 539.17L97.8712 565.37L143.801 565.64L147.271 577.03L84.7712 575.229L81.2913 563.76H81.2712ZM101.211 618.28L154.091 592.599L159.001 602.689L115.111 624L127.291 649.099L118.301 653.459L101.211 618.27V618.28ZM133.581 674.89L182.781 641.829L189.031 651.14L139.841 684.199L133.581 674.89ZM193.951 744.06L185.331 735.41L191.441 722.459L175.761 706.719L162.981 712.99L154.591 704.55L211.841 678.05L220.231 686.459L193.951 744.069V744.06ZM195.971 712.859L206.151 691.9L185.281 702.109L195.991 712.849L195.971 712.859ZM214.421 759.62L247.651 710.53L256.691 716.66L253.341 762.18L275.541 729.4L284.171 735.25L250.951 784.339L241.611 778.01L244.721 733.439L223.051 765.449L214.411 759.599L214.421 759.62ZM311.551 788.3L315.481 779.109L337.731 788.599L328.461 810.31C325.351 811.62 321.371 812.259 316.551 812.209C311.721 812.139 307.191 811.23 303.001 809.43C297.661 807.15 293.501 803.96 290.541 799.88C287.581 795.79 286.051 791.09 285.951 785.79C285.861 780.48 286.921 775.22 289.151 769.99C291.581 764.31 294.841 759.74 298.951 756.28C303.071 752.83 307.771 750.829 313.081 750.319C317.131 749.899 321.591 750.739 326.471 752.819C332.821 755.519 337.171 759.06 339.521 763.42C341.881 767.78 342.511 772.68 341.391 778.14L330.271 775.81C330.691 772.82 330.231 770.119 328.911 767.719C327.581 765.319 325.431 763.499 322.461 762.229C317.951 760.299 313.711 760.289 309.751 762.209C305.781 764.129 302.531 768.089 299.971 774.089C297.211 780.549 296.481 785.99 297.811 790.38C299.121 794.77 301.981 797.88 306.341 799.74C308.511 800.669 310.871 801.13 313.431 801.16C315.981 801.19 318.331 800.88 320.431 800.26L323.371 793.349L311.551 788.3ZM392.071 771.89L403.231 773.079L399.831 805C399.281 810.06 399.071 813.37 399.181 814.9C399.401 817.37 400.331 819.429 401.971 821.069C403.611 822.719 405.991 823.72 409.111 824.05C412.271 824.39 414.741 823.96 416.491 822.75C418.251 821.54 419.401 819.949 419.931 817.979C420.481 816.009 421.001 812.68 421.491 808.02L424.961 775.42L436.121 776.609L432.811 807.569C432.061 814.649 431.231 819.609 430.321 822.469C429.411 825.329 428.031 827.67 426.201 829.51C424.361 831.34 422.021 832.699 419.191 833.62C416.341 834.51 412.721 834.74 408.351 834.26C403.081 833.7 399.141 832.62 396.541 831.04C393.951 829.44 391.991 827.52 390.631 825.29C389.271 823.04 388.451 820.76 388.201 818.42C387.821 814.97 388.011 809.949 388.711 803.349L392.061 771.91L392.071 771.89ZM461.181 834.459L455.081 775.5L465.941 774.38L492.651 811.41L488.591 772.04L498.961 770.969L505.061 829.93L493.841 831.089L467.581 794.949L471.571 833.39L461.191 834.459H461.181ZM535.531 822.849L521.281 765.31L532.171 762.62L546.421 820.16L535.531 822.849ZM588.261 806.229L546.881 759.37L558.101 754.63L588.111 789.56L583.591 743.859L594.551 739.229L599.271 801.579L588.241 806.25L588.261 806.229ZM640.171 781.43L607.111 732.24L641.311 709.26L646.901 717.589L622.021 734.31L629.351 745.219L652.511 729.66L658.081 737.939L634.911 753.5L643.911 766.89L669.681 749.579L675.251 757.87L640.171 781.449V781.43ZM697.231 739.37L656.141 696.67L673.161 680.28C677.441 676.16 680.911 673.559 683.591 672.449C686.271 671.349 689.131 671.22 692.191 672.05C695.241 672.89 697.981 674.569 700.401 677.099C703.491 680.289 705.151 683.799 705.391 687.579C705.631 691.349 704.261 695.22 701.261 699.15C704.061 698.56 706.651 698.36 709.051 698.56C711.451 698.77 715.191 699.599 720.321 701.069L733.241 704.689L723.561 714L708.771 710.319C703.501 709.009 700.071 708.28 698.471 708.15C696.871 708.02 695.491 708.219 694.321 708.709C693.151 709.219 691.651 710.37 689.791 712.16L688.161 713.729L705.321 731.56L697.231 739.359V739.37ZM681.601 706.93L687.571 701.18C691.461 697.45 693.711 694.94 694.351 693.67C694.981 692.39 695.141 691.06 694.861 689.67C694.581 688.3 693.841 686.97 692.611 685.68C691.221 684.23 689.751 683.43 688.181 683.24C686.611 683.04 685.051 683.46 683.511 684.5C682.761 685.03 680.751 686.88 677.461 690.04L671.161 696.109L681.571 706.93H681.601ZM731.641 677.25L736.481 667.39C740.131 668.92 743.281 669.329 745.911 668.589C748.521 667.859 750.731 666.05 752.561 663.16C754.481 660.1 755.231 657.36 754.811 654.93C754.411 652.5 753.291 650.72 751.441 649.56C750.241 648.82 749.021 648.51 747.791 648.65C746.541 648.77 745.101 649.449 743.471 650.709C742.351 651.549 740.041 653.64 736.501 656.93C731.961 661.18 728.061 663.72 724.811 664.53C720.241 665.7 715.961 665.04 711.981 662.54C709.421 660.94 707.471 658.76 706.081 656C704.711 653.25 704.241 650.22 704.681 646.92C705.131 643.63 706.471 640.18 708.741 636.56C712.461 630.65 716.621 627.07 721.261 625.81C725.901 624.56 730.571 625.31 735.281 628.05L729.761 637.839C726.931 636.619 724.521 636.339 722.551 636.969C720.581 637.599 718.771 639.26 717.091 641.92C715.351 644.68 714.591 647.23 714.831 649.55C714.971 651.03 715.701 652.2 716.991 653.01C718.181 653.75 719.501 653.92 720.931 653.51C722.751 652.99 725.711 650.78 729.761 646.88C733.831 642.98 737.181 640.32 739.811 638.89C742.451 637.46 745.241 636.79 748.181 636.89C751.131 637 754.181 638.04 757.351 640.03C760.231 641.83 762.451 644.269 764.021 647.339C765.601 650.429 766.141 653.709 765.641 657.209C765.151 660.719 763.601 664.529 761.041 668.609C757.311 674.57 752.981 678.219 748.041 679.579C743.111 680.919 737.621 680.15 731.641 677.25ZM785.391 623.55L730.871 600.31L735.271 589.99L789.791 613.229L785.391 623.55ZM804.821 574.079L757.281 561.25L752.991 577.16L743.301 574.55L754.811 531.9L764.501 534.51L760.211 550.4L807.751 563.219L804.821 574.079ZM818.611 506.3L793.691 504.959L758.321 523.439L759.031 510.3L783.151 498.49L760.441 484.43L761.141 471.52L794.391 493.78L819.221 495.13L818.621 506.3H818.611Z" fill="#E62129"/>
</svg>
