<svg width="907" height="907" viewBox="0 0 907 907" fill="none" xmlns="http://www.w3.org/2000/svg">
    <path d="M718.539 207.147C717.739 209.056 719.389 214.636 720.859 216.202C725.189 220.829 730.469 224.369 734.989 228.776C735.449 229.215 735.799 229.415 735.489 230.16C734.479 232.641 733.089 234.854 730.449 235.713C723.669 237.927 718.049 237.45 712.739 230.275C712.309 229.682 712.019 228.948 710.929 228.709C710.839 229.072 710.699 229.33 710.749 229.53C711.709 233.299 715.169 235.655 716.409 239.281C716.479 239.472 716.789 239.606 717.009 239.72C720.649 241.628 724.419 242.63 728.519 241.533C729.559 241.217 730.639 241.097 731.719 241.18C737.249 241.723 738.219 241.247 740.429 236.409C741.179 234.749 741.829 234.549 743.059 235.884C747.299 240.455 751.639 244.92 754.629 250.491C756.419 253.831 760.349 254.938 763.049 253.059C767.199 250.196 767.749 247.506 764.669 243.937C760.599 239.224 756.399 234.625 752.209 230.007C751.049 228.719 749.519 227.784 748.539 226.296C747.559 224.808 748.129 223.501 749.449 223.329C751.639 223.033 754.019 222.326 756.129 223.577C758.229 224.827 761.199 224.922 762.799 223.472C763.759 222.613 764.429 217.843 763.759 216.574C763.609 216.278 763.429 215.82 763.199 215.773C761.299 215.371 760.149 213.511 758.329 212.977C755.889 212.154 753.489 211.198 751.149 210.115C746.789 208.273 742.439 206.384 738.039 204.619C737.209 204.285 735.979 203.789 735.379 204.981C734.989 205.773 735.769 206.384 736.399 206.765C741.169 209.628 745.299 213.444 750.179 216.202C750.889 216.593 751.869 216.917 751.579 217.986C751.299 219.054 750.309 218.892 749.489 218.94C746.199 219.073 743.049 217.356 739.679 218.243C739.329 218.339 738.719 217.891 738.369 217.604C734.929 215.123 731.389 212.709 729.109 209.018C727.309 206.088 724.439 205.458 721.389 205.248C720.119 205.18 718.969 205.952 718.539 207.147Z" fill="#007471"/>
    <path d="M76.4052 327.828C83.8652 333.657 92.7182 336.271 101.828 338.151C104.194 338.638 106.541 339.172 108.907 339.649C111.005 340.069 112.465 339.439 113.028 337.177C113.352 335.861 114.058 335.012 115.718 335.27C117.521 335.537 118.866 334.497 120.011 333.19C121.646 331.183 122.836 328.85 123.502 326.349C126.048 317.553 129.977 309.219 135.141 301.656C135.983 300.415 136.744 299.122 137.421 297.783C138.317 296.114 138.27 294.92 135.875 295.532C135.118 295.651 134.354 295.356 133.872 294.758C132.584 293.575 132.269 291.171 129.694 291.629C129.512 291.629 129.007 290.866 128.94 290.418C128.167 285.17 124.37 280.724 124.857 275.152C124.857 274.714 124.409 274.418 124.008 274.361C121.06 273.94 119.629 271.593 117.788 269.695C116.128 267.968 114.373 265.992 112.255 265.134C108.496 263.627 106.617 260.698 104.852 257.501C104.137 256.194 103.669 254.582 101.828 254.572C100.165 254.527 98.6461 255.514 98.0121 257.053C96.5001 260.633 94.5142 263.992 92.1072 267.043C91.7462 267.698 91.4612 268.393 91.2582 269.113C88.1292 276.745 85.2581 284.378 83.8561 292.602C82.7591 298.985 81.4522 305.311 83.9222 311.637C84.3142 312.658 84.5332 314.632 86.2602 313.135C87.6052 311.99 88.2632 312.486 89.1222 313.469C90.1172 314.482 90.9052 315.681 91.4402 316.999C91.6692 317.676 92.3941 318.402 91.8691 319.06C91.3441 319.718 90.4382 319.107 89.7612 318.936C85.4332 317.697 81.3342 315.764 77.6262 313.211C74.9362 311.48 71.8362 310.493 68.6402 310.349C64.9392 310.349 64.6712 310.502 65.2062 312.257C67.1522 318.745 71.2162 323.772 76.4052 327.828ZM92.2701 298.394C95.5041 301.628 97.6792 305.836 102.363 307.267C105.081 308.106 107.275 306.609 109.097 304.872C112.112 301.896 114.778 298.587 117.044 295.006C117.318 294.588 117.491 294.111 117.55 293.614C117.75 291.286 115.928 289.798 111.778 288.319C109.47 287.488 108.563 288.682 107.342 290.275C105.043 293.289 102.706 296.495 98.1272 295.866C97.7122 295.844 97.2961 295.87 96.8871 295.942C91.8501 296.534 91.8691 296.543 92.7181 291.629C94.1011 283.672 97.4882 276.45 100.617 269.103C101.351 267.357 102.143 267.195 103.717 268.502C107.972 272.146 111.215 276.917 116.281 279.646C117.054 280.056 117.54 280.933 118.628 280.79C119.133 280.724 119.744 281.173 119.658 281.678C118.99 285.637 122.043 288.357 123.092 291.725C123.876 294.606 124.16 297.601 123.932 300.578C123.932 300.893 123.474 301.323 123.14 301.466C119.448 303.088 118.513 306.647 117.559 309.939C116.205 314.613 113.657 318.745 112.15 323.295C111.807 324.365 111.11 325.061 109.88 324.489C107.872 323.682 105.774 323.122 103.631 322.818C102.076 322.513 101.466 321.769 101.99 320.176C103.412 315.863 101.132 312.476 98.9852 309.175C97.4882 306.857 94.9982 305.435 93.0142 303.546C90.7342 301.418 90.6961 300.874 92.2701 298.394Z" fill="#007471"/>
    <path d="M190.49 139.474C192.498 138.478 194.43 137.337 196.271 136.058C197.692 135.037 198.341 135.572 198.98 136.783C200.163 139.054 199.152 140.8 197.549 142.327C195.946 143.853 194.191 145.475 193.313 147.803C195.069 146.849 196.872 146.028 198.551 144.988C200.573 143.729 201.928 144.292 203.053 146.209C204.179 148.128 205.486 150.169 206.697 152.153C206.993 152.64 207.575 153.107 207.184 153.709C206.793 154.31 206.106 153.948 205.562 153.91C203.071 153.734 200.566 153.904 198.121 154.415C196.938 154.673 195.794 155.417 196.49 156.638C198.589 160.282 199.905 164.452 203.311 167.257C204.17 167.964 205.152 168.689 206.249 168.317C209.044 167.362 211.677 166.188 212.717 163.002C213.385 160.951 214.625 160.616 216.199 162.124C217.577 163.241 218.391 164.911 218.422 166.684C218.422 168.679 218.031 170.654 218.364 172.657C218.565 173.926 217.954 174.565 216.829 173.563C214.921 171.961 212.679 170.778 211.191 168.717C210.904 168.326 210.675 167.686 210.094 167.906C209.292 168.212 209.826 168.86 209.865 169.423C209.901 169.841 209.981 170.253 210.103 170.654C211.925 177.046 216.6 181.597 220.664 186.463C222.505 188.667 225.653 188.953 227.427 186.969C231.052 182.905 233.876 184.565 237.11 187.255C240.725 190.251 244.579 189.975 248.405 187.522C249.941 186.568 251.496 185.566 253.031 184.584C254.854 183.41 256.704 182.285 258.459 181.034C259.957 179.676 260.282 177.448 259.232 175.72C258.173 174.288 256.962 175.377 255.855 175.72C252.631 176.76 250.131 179.002 247.222 180.681C244.829 182.301 241.752 182.512 239.161 181.234C237.148 180.28 236.747 178.859 237.94 176.98C238.97 175.367 240.277 173.935 241.021 172.142C241.536 170.864 242.09 169.404 240.821 168.469C239.724 167.648 239.294 169.299 238.493 169.728C238.054 169.967 237.663 170.415 237.157 170.072C236.962 169.824 236.901 169.496 236.995 169.194C238.169 166.198 236.995 163.174 237.072 160.158C237.072 157.916 236.118 155.77 235.316 153.69C234.828 152.516 233.722 151.716 232.454 151.619C228.219 151.037 222.791 154.101 220.673 158.403C219.118 161.562 217.687 161.666 215.646 158.708C215.226 158.107 215.016 157.344 214.606 156.733C213.728 155.407 213.719 154.578 215.464 153.957C218.04 153.002 219.109 150.675 220.043 148.338C220.45 147.375 220.165 146.258 219.347 145.608C218.393 144.788 217.439 145.217 216.59 145.761C214.695 146.833 213.11 148.378 211.992 150.246C211.324 151.428 210.771 151.781 210.008 150.331C209.245 148.881 208.271 147.469 207.604 145.971C206.02 142.393 206.249 141.697 209.33 139.225C210.103 138.596 210.819 137.89 211.61 137.317C215.064 134.732 217.63 131.068 221.703 129.236C224.222 128.111 227.074 127.7 229.154 125.42C229.984 128.597 229.669 131.43 229.593 134.284C229.593 135.304 228.868 137.069 230.174 137.346C231.481 137.623 232.512 136.287 233.408 135.285C233.972 134.648 234.242 133.804 234.153 132.958C233.771 128.645 234.782 124.532 235.803 120.402C236.413 117.931 234.429 115.974 232.111 116.995C229.392 118.198 226.387 118.856 223.926 120.592C220.873 122.748 217.935 125.077 214.892 127.271C211.296 129.837 208.596 133.444 204.809 135.781C203.855 136.382 202.758 137.165 202.061 135.839C201.441 134.878 201.718 133.597 202.678 132.977C202.756 132.927 202.837 132.882 202.92 132.843C206.116 131.325 206.821 128.654 206.736 125.392C206.593 121.527 204.57 119.829 200.735 120.621C195.364 121.756 187.38 131.03 187.008 136.526C187.008 136.774 187.008 137.031 187.008 137.279C187.008 139.799 188.248 140.648 190.49 139.474ZM229.602 182.504C229.087 183.525 228.171 184.326 228.057 185.929C226.206 184.364 225.491 182.552 223.688 181.406C224.582 180.961 225.409 180.39 226.139 179.708C226.721 179.097 227.093 177.313 228.181 178.363C229.268 179.412 230.547 180.671 229.621 182.504H229.602ZM221.684 161.342C222.638 159.195 226.349 157.029 228.677 157.22C229.181 157.243 229.641 157.52 229.898 157.955C230.122 158.307 230.323 158.673 230.499 159.052C231.968 162.353 231.787 166.217 233.971 168.851C233.914 169.471 233.971 169.7 233.876 169.805C232.359 171.388 232.579 172.667 234.439 173.811C235.612 174.555 234.849 175.539 234.153 176.035C233.199 176.722 232.636 175.863 232.245 175.081C231.652 173.802 231.241 172.446 231.024 171.054C230.728 169.318 230.155 167.438 227.599 168.555C227.216 168.755 226.749 168.69 226.435 168.393C224.785 166.761 223.125 165.139 221.532 163.441C220.959 162.792 221.389 162.029 221.703 161.342H221.684ZM220.511 168.021C222.016 169.535 223.3 171.253 224.327 173.125C224.904 174.098 224.767 175.335 223.993 176.159C222.8 177.261 222.187 178.854 222.333 180.471C219.376 178.544 218.555 172.552 220.53 168.049L220.511 168.021Z" fill="#007471"/>
    <path d="M274.733 110.461C275.782 110.833 277.175 111.472 278.549 110.69C279.799 110.021 280.886 109.099 281.754 107.98C283.09 106.196 284.483 104.441 285.847 102.676L286.476 102.771C286.4 107.799 286.744 112.837 286.181 117.875C285.818 121.07 284.635 124.229 285.456 127.491C285.608 128.14 285.141 129.973 287.03 128.846C287.602 128.503 287.841 129.104 287.774 129.447C287.593 130.316 288.117 131.356 287.325 132.043C286.848 132.463 286.429 132.11 286.123 131.633C285.103 130.011 284.349 130.593 283.662 131.938C281.42 136.288 280.323 141.126 277.938 145.439C277.767 145.82 277.805 146.268 278.043 146.612C278.749 148.005 283.958 150.58 285.465 150.218C285.694 150.15 285.895 149.997 286.019 149.789C286.915 147.747 288.728 146.059 288.88 143.739C289.09 141.414 289.739 139.149 290.788 137.062C291.399 135.868 291.676 134.535 291.599 133.197C291.456 131.537 290.645 133.197 289.93 132.787C294.499 128.608 293.936 122.903 294.795 117.522C295.253 114.064 295.358 110.57 295.091 107.093C294.881 102.323 297.266 97.8002 295.806 93.0202C295.682 92.6194 295.987 92.066 296.197 91.5985C296.779 90.2734 298.019 89.3482 299.45 89.1561C301.043 88.9557 301.11 90.5395 301.52 91.5508C303.028 95.2337 304.478 98.9547 305.947 102.657C306.319 103.671 306.452 104.76 306.319 105.834C305.937 110.309 305.25 114.802 305.413 119.258C305.575 123.399 303.457 126.671 302.608 130.917C301.597 129.447 300.948 128.398 300.185 127.434C299.746 126.871 299.698 125.526 298.506 126.146C297.485 126.69 298.058 127.577 298.372 128.35C299.326 130.631 300.69 132.711 300.509 135.41C300.299 138.712 301.32 139.723 304.554 140.181C305.851 140.268 307.149 139.934 308.246 139.227C308.818 138.903 308.16 137.443 307.101 136.918C306.748 136.746 307.101 136.355 307.101 136.04C307.311 135.086 307.969 134.933 308.79 134.657C311.127 133.874 311.26 133.216 309.61 131.566C309.257 131.213 309.018 130.765 309.429 130.612C312.09 129.361 312.958 127.387 312.081 124.601C312.033 124.467 312.148 124.258 312.243 124.134C314.847 120.841 314.427 117.054 314.294 113.199C314.132 109.71 314.351 106.214 314.933 102.771C315.391 100.489 314.952 98.1189 313.712 96.1496C312.577 94.2414 310.946 92.5527 310.287 90.3678C309.085 86.3892 305.727 83.2121 306.262 78.5179C306.462 76.7147 304.611 76.2471 302.923 76.667C301.959 76.9578 301.101 77.537 300.471 78.3271C298.124 80.9795 294.471 80.989 291.676 82.7541C291.008 83.1834 290.273 82.6587 289.596 82.2674C288.823 81.7799 287.993 81.398 287.116 81.1321C283.939 80.3116 282.088 81.7905 282.432 84.9485C282.68 86.6789 283.061 88.386 283.586 90.0529C283.996 91.1528 283.967 92.3665 283.519 93.4495C282.441 95.7011 281.535 98.0388 279.837 99.9469C277.671 102.163 276.078 104.865 275.181 107.827C274.953 108.744 273.865 110.156 274.733 110.461Z" fill="#007471"/>
    <path d="M551.396 104.838C553.066 105.354 553.306 106.183 553.426 107.7C553.746 112.771 555.066 117.727 557.296 122.288C558.646 124.826 560.756 125.026 562.506 122.842C563.376 121.633 564.156 120.357 564.826 119.026C566.936 115.304 567.926 111.144 569.596 107.252C570.456 105.23 571.756 103.874 573.976 103.75C579.146 103.473 584.246 103.139 588.986 100.678C589.876 100.22 590.976 100.43 590.636 98.9225C590.246 97.2338 589.156 98.1593 588.276 98.2356C587.746 98.2928 587.156 98.665 586.626 97.9112L588.226 96.69C587.806 96.1032 587.016 95.9267 586.386 96.2798C584.086 97.1193 581.766 96.5278 579.466 96.2798C577.396 96.0889 576.426 94.6291 577.346 93.0644C578.646 90.8604 580.206 88.7805 581.686 86.691C582.476 85.6034 583.596 85.5556 584.846 85.8228C587.036 86.3866 589.306 86.4938 591.526 86.1376C593.096 86.0207 594.276 84.6561 594.166 83.0845C594.476 81.6189 593.526 80.1858 592.056 79.8839C591.996 79.8702 591.926 79.8589 591.856 79.8502C586.806 78.5145 586.886 78.5145 590.186 74.5454C592.036 72.3319 594.486 70.8721 596.546 68.9544C598.826 66.8267 599.006 64.3366 597.046 62.0945C596.176 61.1403 595.266 60.8732 594.326 61.9799C590.326 66.7504 585.376 70.6241 582.056 75.967C581.196 77.3395 579.616 78.0858 578.016 77.8752C574.776 77.735 571.516 77.9107 568.306 78.3999C564.486 78.9819 560.676 79.1345 556.966 80.0887C556.196 80.289 555.146 80.3558 555.146 81.4626C555.146 82.5693 556.106 82.7507 556.846 83.0464C558.246 83.588 559.706 83.9284 561.206 84.0577C565.516 84.4585 569.796 84.5443 574.166 84.5634C576.306 84.5634 576.816 85.3457 575.656 87.1395C574.116 89.5066 572.746 91.9917 571.596 94.5719C571.196 95.6284 570.086 96.2358 568.986 96.003C565.826 95.7213 562.656 95.7982 559.516 96.232C557.976 96.4133 556.986 96.232 556.176 94.5719C554.756 91.6142 552.236 91.5188 550.086 94.0662C549.476 94.7474 548.906 95.4712 548.406 96.232C546.206 99.7717 547.456 103.626 551.396 104.838ZM558.456 103.674C559.416 103.731 560.446 103.674 561.426 103.674C561.926 103.674 562.376 103.674 562.916 103.674C564.336 103.826 566.296 102.786 567.026 104.294C567.636 105.525 566.076 106.784 565.256 107.901C563.696 110.244 562.406 112.761 561.436 115.4C561.056 116.354 560.606 117.308 559.396 117.308C558.186 117.308 557.856 116.354 557.576 115.495C556.776 113.053 554.786 111.182 554.296 108.568C553.616 105.096 554.946 103.483 558.456 103.674Z" fill="#007471"/>
    <path d="M466.008 59.4259C468.868 60.8952 471.818 62.3741 475.218 62.0783C482.588 61.4104 489.958 60.7902 497.308 59.9602C501.108 59.4191 504.978 59.5093 508.748 60.2274C513.688 61.3055 518.598 62.5649 523.558 63.5285C526.758 64.0041 530.028 63.9783 533.218 63.4522C535.058 63.2328 535.628 61.7444 535.708 60.1891C535.788 58.8535 534.558 58.634 533.588 58.5386C528.118 58.0138 522.778 56.7068 517.378 55.8671C511.978 55.0275 506.608 55.3424 501.228 54.913C500.488 54.8558 499.508 54.913 499.468 53.959C499.378 52.7027 499.668 51.4477 500.328 50.3716C500.838 49.6083 501.528 50.2285 502.078 50.5242C503.738 51.4019 505.458 51.173 507.208 50.8867C508.598 50.6673 509.998 50.5242 511.398 50.3048C512.928 50.0662 513.518 50.5146 512.668 52.0316C511.998 53.2243 512.468 53.7108 513.698 53.7776C517.438 53.978 520.538 52.003 523.878 50.839C524.388 50.6673 524.468 50.0853 524.568 49.5797C525.138 45.44 522.238 41.6228 518.098 41.0539C517.638 40.9899 517.168 40.9694 516.698 40.9928C515.128 41.143 513.578 41.4891 512.088 42.0232C510.958 42.4908 509.678 42.4908 508.538 42.0232C505.888 40.9134 502.898 40.9585 500.278 42.1472C498.468 43.0345 497.688 42.5575 496.878 40.8019C495.718 38.3308 494.368 35.9647 491.708 34.6099C490.748 34.1233 490.538 33.942 489.608 34.8198C486.258 37.9492 486.168 42.2998 484.998 46.2117C483.608 50.839 484.738 52.7568 489.258 54.7985C485.448 55.1706 481.538 55.6572 477.658 55.8957C474.078 56.1057 470.618 57.0884 467.068 57.5082C466.388 57.5267 465.768 57.9282 465.468 58.5481C465.218 59.0157 465.658 59.2446 466.008 59.4259Z" fill="#007471"/>
    <path d="M793.447 271.76C793.107 271.417 792.867 270.806 792.267 271.197C791.917 271.461 791.787 271.929 791.967 272.333C792.427 274.174 792.417 276.207 793.597 277.79C795.117 279.841 794.287 280.843 792.207 281.253C787.347 282.208 783.627 285.242 779.987 288.237C778.087 289.755 778.377 290.871 780.597 291.835C783.157 292.941 785.607 293.819 788.237 291.711C789.387 290.757 790.577 290.928 790.877 292.827C791.187 294.481 791.977 296.004 793.167 297.206C794.367 298.523 793.847 299.181 792.437 299.248C789.957 299.372 787.507 299.868 784.987 299.744C781.687 299.582 778.367 299.219 775.057 299.658C773.207 299.906 771.447 300.278 771.617 302.673C771.797 305.221 773.377 306.394 775.947 306.184C777.347 306.07 778.807 306.051 780.177 306.032C785.307 306.032 790.097 304.915 794.117 301.528C795.357 300.488 796.267 301.06 797.127 301.986C799.027 304.009 800.847 306.032 802.637 308.111C803.777 309.428 805.037 310.076 806.497 308.846C807.957 307.615 807.037 306.261 806.037 305.23C801.527 300.603 797.777 295.24 792.677 291.224C791.517 290.318 791.727 289.526 792.937 288.992C794.377 288.352 795.887 287.865 797.357 287.312C802.947 285.223 807.517 281.587 812.407 277.867C810.777 276.998 809.447 277.39 808.157 277.38C807.457 277.38 806.687 277.38 807.097 276.283C808.047 273.745 809.257 271.445 812.147 270.558C813.927 270.13 815.767 269.969 817.587 270.081C818.597 270.222 819.627 269.958 820.447 269.347C823.937 266.179 822.917 258.794 818.667 256.724C814.937 255.077 811.007 253.944 806.967 253.356C805.587 253.107 804.197 252.678 802.767 253.098C802.117 253.299 801.447 253.557 801.267 254.263C801.087 254.968 801.637 255.474 802.217 255.856C803.547 256.714 804.887 257.544 806.187 258.45C806.987 258.994 808.467 259.271 808.347 260.264C808.217 261.447 806.767 262.01 805.687 262.172C803.687 262.553 802.007 263.889 801.177 265.749C800.427 267.239 799.787 268.787 799.267 270.377C797.787 274.547 796.517 274.871 793.447 271.76Z" fill="#007471"/>
    <path d="M381.737 76.1996C384.787 75.1215 388.057 74.7876 391.017 73.3373C393.787 72.0016 396.677 70.9043 399.547 69.8167C402.147 68.8626 402.407 69.1393 402.877 71.8871C403.767 76.877 404.587 81.9051 407.557 86.1986C408.507 87.6488 408.197 89.0609 407.557 90.4348C407.107 91.2725 406.207 91.767 405.267 91.6941C404.127 91.5224 404.597 90.2629 404.747 89.6046C405.787 85.2253 404.177 81.2277 403.117 77.1442C402.867 76.1424 401.977 75.434 400.947 75.4173C397.887 74.9593 395.897 76.7434 394.067 78.7184C391.847 81.0559 390.007 83.7244 388.617 86.6278C387.477 83.5652 386.527 80.9033 385.497 78.3082C385.207 77.564 384.767 76.4858 383.847 76.7052C382.777 76.9629 383.237 78.0505 383.337 78.852C383.717 81.9051 384.167 84.9487 384.437 88.0113C384.877 92.7055 386.497 97.0562 388.147 101.369C388.557 102.447 389.327 103.277 390.677 102.6C391.557 102.339 392.057 101.416 391.797 100.536C391.757 100.403 391.697 100.276 391.627 100.157C390.677 97.9625 391.047 95.5678 390.617 93.3066C389.747 88.6696 391.637 85.2062 395.027 82.344C396.077 81.4471 397.257 80.14 398.727 80.8937C400.007 81.5616 399.687 83.2313 399.907 84.5288C399.917 84.6938 399.917 84.8601 399.907 85.025C399.727 86.5515 399.907 88.2213 397.317 87.4388C396.007 87.0382 394.567 87.8873 393.257 88.393C392.687 88.5887 392.307 89.1143 392.297 89.7096C392.247 91.2171 394.487 94.69 395.967 95.1766C396.997 95.3474 397.707 96.2872 397.607 97.3233C397.487 99.6512 399.187 100.739 400.967 100.978C403.157 101.274 402.537 99.0693 402.817 97.8862C403.497 94.8999 406.787 92.1616 409.797 92.1616C410.387 92.0831 410.967 92.3365 411.317 92.82C413.797 96.5791 415.627 100.692 418.787 104.097C421.247 106.73 422.847 110.194 424.627 113.39C425.787 115.461 427.247 115.137 428.807 114.345C430.717 113.342 429.847 111.921 429.017 110.757C426.537 107.323 423.967 103.945 421.387 100.558C421.197 100.31 420.867 100.109 420.537 100.453C420.357 101.665 421.687 102.361 421.607 103.83C419.787 103.258 419.527 101.712 418.977 100.376C418.517 99.2315 418.187 97.6 417.077 97.3614C415.097 96.9512 415.487 94.7664 414.027 94.0508C413.577 93.8313 413.677 92.8295 414.347 92.2952C415.867 93.2016 415.787 95.6441 418.597 96.2643C417.587 94.4712 416.487 92.7354 415.277 91.0644C414.057 89.5283 414.437 88.7269 416.087 88.1258C420.067 86.6851 422.887 83.7465 425.697 80.7888C426.647 79.9451 426.717 78.4975 425.877 77.5554C425.837 77.5123 425.797 77.4705 425.757 77.4303C424.607 76.2157 423.167 75.3127 421.577 74.8066C420.937 74.5394 420.337 74.6158 420.417 75.4936C420.577 77.3063 419.197 78.041 418.147 79.081C416.827 80.3785 414.997 81.18 414.417 83.2504C413.987 84.8247 412.907 84.2045 412.147 83.4698C410.447 81.8392 409.427 79.623 409.287 77.2682C409.217 75.186 408.797 73.1303 408.057 71.1811C407.217 69.0821 407.107 67.5746 409.597 66.6586C410.447 66.3438 411.307 65.5996 410.887 64.55C410.467 63.5006 409.417 63.8631 408.677 64.1017C406.887 64.6837 406.197 64.0158 406.167 62.2507C406.057 61.6832 405.967 61.1099 405.927 60.5334C406.557 55.5625 402.977 52.9006 400.127 49.8093C399.587 49.2368 398.727 48.2732 397.757 49.046C396.787 49.8189 397.387 50.7825 397.757 51.5839C399.477 55.2285 400.337 59.1308 401.357 62.9853C401.827 64.8173 401.517 66.0575 399.447 66.8877C393.347 69.3301 387.327 72.0016 381.317 74.6158C380.707 74.8734 379.607 75.0356 380.067 76.066C380.267 76.772 381.097 76.419 381.737 76.1996Z" fill="#007471"/>
    <path d="M351.87 67.757C354.42 77.6586 357.52 87.4089 361.17 96.9619C361.87 98.8033 362.31 100.397 360.65 102.219C358.99 104.041 357.36 104.871 355.03 103.784C354.6 103.514 354.07 103.486 353.62 103.707C352.06 104.489 351.14 107.867 352.05 109.499C353.18 111.531 355.51 112.218 357.33 110.758C359.46 109.169 361.47 107.432 363.35 105.558C366.21 102.562 368.95 99.4235 372.54 97.21C373.91 96.3608 374.76 96.628 375.53 98.0591C376.51 99.8928 377.14 101.897 377.38 103.965C377.86 107.848 378.28 111.731 378.81 115.605C379 116.912 379.57 118.104 381.29 117.589C382.77 117.151 383.8 116.511 383.2 114.565C382.21 111.386 381.67 108.086 381.58 104.757C381.58 102.849 381.2 100.941 379.39 99.6811C378.98 99.3758 378.77 98.871 378.83 98.3644C379.05 94.3954 379.4 90.4645 381.69 87.0488C382.03 86.5492 382.11 85.9196 381.91 85.3505C380.96 85.7418 380.11 86.0852 379.26 86.4C377.27 87.1537 376.08 86.5909 375.94 84.4919C375.63 82.0175 375.1 79.5732 374.39 77.1835C373.41 73.2104 371.69 69.4642 369.28 66.1541C368.89 65.6102 368.56 64.5989 367.6 65.2C366.97 65.6595 366.75 66.5129 367.09 67.2227C367.24 67.6997 367.39 68.1768 367.56 68.6443C367.9 69.5984 367.67 70.4094 366.65 70.5525C364.36 70.896 362.48 72.1553 360.47 73.119C359.68 73.5102 358.97 73.6534 358.69 72.642C357.85 69.4839 355.54 66.9174 354.88 63.7498C354.37 61.4122 352.64 60.3723 350.66 59.5327C350.29 59.3705 349.89 59.1129 349.52 59.4659C349.15 59.8189 349.41 60.2387 349.52 60.6299C350.34 63.0152 351.24 65.3813 351.87 67.757ZM366.47 88.9761C367.87 89.1843 369.31 88.912 370.54 88.2033C372.26 87.0679 372.51 87.793 372.38 89.7012C372.26 92.3536 368.03 96.7711 365.02 97.1145C364.15 97.21 363.81 96.752 363.67 96.0173C363.45 94.8819 363.23 93.7466 363.06 92.6017C362.57 89.1669 362.98 88.6804 366.47 88.9761Z" fill="#007471"/>
    <path d="M657.418 148.732C661.228 146.584 665.188 144.695 668.868 142.311C670.688 141.117 672.678 141.614 674.488 140.697C677.438 139.19 678.898 136.471 680.218 133.761C680.978 131.989 682.588 130.726 684.498 130.413C688.528 129.573 692.128 127.637 695.838 125.938C698.658 124.545 699.878 121.18 698.608 118.305C697.538 115.672 695.098 116.397 692.998 116.588C686.528 117.052 680.108 118.009 673.798 119.45C669.788 120.405 666.168 121.797 665.328 126.863C664.488 131.929 666.568 134.497 671.548 133.837L673.448 133.608C669.118 135.947 664.228 136.748 659.988 139.285C657.448 140.812 654.588 141.843 652.038 143.427C651.168 143.961 650.398 144.581 650.668 145.812C651.408 148.341 654.058 149.796 656.588 149.062C656.868 148.978 657.148 148.867 657.418 148.732Z" fill="#007471"/>
    <path d="M515.497 94.958C515.027 93.2312 513.187 93.4697 511.817 93.1072C511.247 92.9724 510.677 92.8768 510.097 92.8209C505.877 92.3248 501.657 91.8668 497.457 91.342C494.487 90.97 495.677 88.6802 495.617 87.0391C495.547 85.398 496.567 85.0546 498.107 85.274C501.397 85.7606 504.697 86.1518 508.007 86.5048C509.487 86.7912 511.017 86.6692 512.437 86.1518C513.627 85.6079 515.057 84.7683 514.977 83.4135C514.907 82.0587 513.267 82.2973 512.267 82.1923C507.717 81.6771 503.177 81.1618 498.607 80.8947C496.467 80.7707 495.977 79.8547 495.997 77.918C495.997 75.838 497.047 75.4182 498.857 75.504C501.017 75.6807 503.187 75.6615 505.347 75.4468C508.457 75.0271 511.947 75.8094 514.777 72.5845C509.357 71.8308 504.287 72.7181 499.177 71.9643C497.147 71.6686 494.587 71.0103 492.097 72.2506C489.797 73.3764 486.817 72.012 484.277 73.2047C483.727 73.4718 482.747 73.3192 482.907 74.2638C483.067 75.2083 483.857 75.008 484.557 75.0557C486.617 75.2274 488.637 74.674 490.747 74.9794C494.397 75.5136 494.447 75.504 493.037 78.872C492.767 79.8704 491.817 80.5235 490.787 80.4081C488.807 80.2936 486.807 80.1887 484.817 80.0361C483.197 79.9215 481.567 79.7402 479.767 80.7993C483.377 83.0415 487.107 83.7666 490.827 84.4917C492.587 84.6463 493.907 86.2058 493.747 87.9748C493.727 88.1978 493.687 88.4182 493.617 88.6325C493.127 90.9891 491.367 90.4834 489.867 90.1972C486.777 89.5353 483.757 88.5768 480.847 87.3349C480.087 87.0295 479.007 86.1899 478.427 87.3349C477.837 88.4797 478.877 89.1667 479.697 89.7582C480.937 90.6085 482.307 91.2529 483.757 91.6665C484.707 91.9813 485.757 92.7636 484.527 93.5747C481.967 95.2062 480.957 97.8681 479.367 100.167C476.507 104.365 476.507 105.234 480.127 108.507C481.347 109.613 481.777 109.527 482.617 108.02C484.897 103.927 485.897 99.4328 486.557 94.958C486.917 92.5728 487.687 92.8113 489.357 93.1739C492.647 93.8895 492.897 94.1852 492.037 97.5341C491.417 99.948 490.857 102.391 490.127 104.776C489.447 106.998 490.587 109.699 488.387 111.54C488.327 111.762 488.387 111.996 488.537 112.17C489.377 112.799 490.267 113.849 491.117 113.839C491.977 113.83 491.437 112.446 491.647 111.693C491.757 111.217 491.917 110.75 492.117 110.3C494.117 105.968 495.747 101.542 495.297 96.6564C495.147 95.0345 495.887 94.4715 497.307 94.6432C499.287 94.8817 501.287 94.7863 503.217 95.4161C505.507 96.1602 507.817 96.8758 510.127 97.5628C511.547 97.9444 515.767 95.9981 515.497 94.958Z" fill="#007471"/>
    <path d="M127.347 230.115C129.76 232.9 133.185 234.255 136.161 236.249C137.392 237.07 139.281 237.261 139.93 238.234C141.444 240.802 143.902 242.678 146.779 243.463C146.993 243.527 147.164 243.685 147.246 243.892C147.943 246.83 150.5 247.889 152.684 249.33C154.411 250.474 156.347 251.477 157.378 253.318C158.408 255.159 160.239 255.531 161.871 256.123C164.218 256.972 166.03 260.579 164.399 262.42C163.273 263.698 163.054 265.083 162.548 266.466C161.938 268.154 160.64 269.328 159.686 270.825C159.419 271.226 159.095 271.779 159.553 272.181C160.011 272.582 160.325 272.181 160.697 272.046C163.001 271.151 164.906 269.458 166.068 267.277C167.044 265.159 168.19 263.123 169.493 261.189C170.285 260.054 169.836 258.766 168.987 257.736C167.795 256.304 167.537 258.566 166.65 258.404C166.564 258.232 166.383 258.07 166.421 257.965C168.196 251.773 165.467 249.12 159.81 247.097C159.207 246.875 158.714 246.427 158.436 245.848C155.697 241.264 151.815 237.471 147.17 234.837C145.568 233.959 143.936 233.12 142.4 232.166C137.735 229.304 134.129 225.22 130.132 221.594C126.317 218.121 121.547 217.473 116.777 216.824C116.109 216.729 115.355 217.253 114.125 217.673C119.524 221.184 123.455 225.668 127.347 230.115Z" fill="#007471"/>
    <path d="M132.118 208.293C136.563 212.805 141.514 216.736 146.36 220.81C152.027 225.58 158.533 229.263 163.818 234.52C164.352 235.045 164.982 236.38 165.955 235.245C166.928 234.11 166.289 233.213 165.211 232.545C162.988 231.172 161.843 228.786 160.002 227.011C161.805 227.345 162.931 228.729 164.114 229.874C166.489 232.164 169.694 233.537 171.44 236.552C173.186 239.568 173.72 239.682 176.458 237.44C176.66 237.296 176.898 237.207 177.145 237.183C177.937 237.059 178.69 236.868 178.652 235.875C178.651 234.988 177.979 234.245 177.097 234.158C174.683 233.995 173.911 232.44 173.52 230.418C173.255 229.53 172.705 228.755 171.955 228.213C169.866 226.305 167.844 224.302 165.611 222.575C158.8 217.261 151.359 212.748 144.987 206.87C142.055 204.238 138.398 202.55 134.493 202.024C132.834 201.749 131.145 202.288 129.952 203.474C129.437 203.903 129.16 204.371 129.58 204.962C130.334 206.139 131.183 207.253 132.118 208.293Z" fill="#007471"/>
    <path d="M146.561 190.124C151.485 193.115 155.794 197.017 159.258 201.621C162.336 205.676 166.136 209.126 170.467 211.801C174.683 214.315 178.707 217.137 182.506 220.246C183.756 221.324 184.271 222.249 183.069 223.795C182.029 225.14 182.601 226.752 184.204 226.8C187.645 227.043 191.017 225.754 193.419 223.279C193.925 222.755 193.801 222.325 193.419 221.782C189.934 217.137 185.451 213.332 180.302 210.647C174.311 207.642 168.511 204.531 165.316 198.243C165.114 197.887 164.857 197.564 164.552 197.289C159.935 192.997 155.452 188.541 150.434 184.715C146.341 181.585 141.352 181.156 136.534 180.211C136.314 180.715 136.451 181.305 136.868 181.662C139.845 184.706 142.831 187.825 146.561 190.124Z" fill="#007471"/>
    <path d="M787.648 316.194C791.998 313.761 793.568 309.029 797.068 305.479C796.338 305.384 796.118 305.26 795.888 305.336C790.078 307.438 784.688 310.549 779.958 314.524C778.468 315.837 777.878 317.912 778.498 319.81C779.438 323.264 780.958 326.533 782.988 329.484C785.158 332.557 788.428 334.35 790.928 337.032C792.178 338.377 793.908 339.894 796.098 339.55C797.508 339.3 798.958 339.619 800.128 340.438C801.868 341.687 803.358 341.287 804.898 340.189C808.098 337.861 812.018 336.738 815.958 337.021C818.198 337.35 820.358 336.076 821.178 333.959C821.958 331.717 823.838 330.033 826.148 329.494C827.628 329.251 828.808 328.109 829.098 326.632C826.538 327.414 824.328 328.044 822.428 329.389C821.658 330.039 820.658 330.349 819.658 330.248C817.488 329.952 815.778 330.897 813.868 331.927C811.718 333.091 809.368 335.457 806.458 332.633C804.548 330.83 802.228 333.291 799.978 332.633C798.888 332.328 799.018 333.902 798.608 334.675C798.428 335.056 798.148 335.419 797.658 335.39C797.168 335.361 797.108 334.904 797.088 334.436C797.038 331.713 795.108 329.383 792.448 328.826C792.018 328.767 791.708 328.381 791.748 327.948C791.898 326.508 790.728 325.916 789.918 325.163C788.448 323.937 787.248 322.402 786.418 320.668C785.758 318.97 785.688 317.263 787.648 316.194Z" fill="#007471"/>
    <path d="M753.15 201.536C755.29 200.41 756.57 198.386 758.41 197.08C761.18 195.019 763.74 192.689 766.05 190.124C767.11 188.762 767.89 187.194 768.32 185.517C768.13 184.349 767.7 183.232 767.06 182.234C766.29 181.252 765.61 180.219 764.99 179.143C764.12 177.455 763.17 177.235 761.38 178.027C757.09 180.008 753.01 182.411 749.19 185.202C745.09 188.064 743.53 192.052 743.88 196.812C744.19 200.973 749.46 203.463 753.15 201.536Z" fill="#007471"/>
    <path d="M765.949 192.616C764.329 194.404 762.889 196.339 761.629 198.397C760.109 201.26 758.639 204.189 760.489 207.567C761.969 210.257 764.819 210.705 767.229 211.774C768.439 212.308 769.499 212.794 770.089 213.988C771.749 217.622 775.079 218.901 778.529 219.883C780.769 220.514 783.86 218.805 784.93 216.535C786.01 214.264 785.019 212.527 783.409 210.991C781.739 209.24 779.659 207.929 777.359 207.175C774.239 206.222 774.019 205.677 774.799 202.615C774.969 201.975 775.019 201.308 775.139 200.659C775.089 199.735 774.829 198.834 774.379 198.025C773.209 195.621 771.029 194.209 769.139 192.482C767.829 191.318 766.879 191.47 765.949 192.616Z" fill="#007471"/>
    <path d="M832.408 304.002C831.268 301.249 830.478 298.364 830.038 295.415C829.738 293.329 828.538 291.483 826.748 290.377C825.808 289.734 824.928 288.996 824.148 288.173C821.218 285.311 818.168 282.649 815.138 279.94C814.358 279.252 813.498 278.775 812.498 279.739C811.508 280.703 812.378 281.437 812.768 282.162C813.318 283.092 813.938 283.99 814.578 284.853C817.588 289.156 821.058 293.039 822.418 298.496C823.368 302.523 823.248 301.893 819.888 302.714C818.568 302.926 817.248 302.961 815.918 302.819C814.968 302.837 814.098 302.285 813.708 301.416C811.448 295.94 806.068 293.563 801.888 289.137C801.738 290.753 802.188 292.367 803.148 293.679C804.468 295.383 805.648 297.191 806.678 299.088C807.988 301.865 809.868 303.439 813.008 303.277C814.208 303.219 815.218 303.515 815.368 304.898C815.678 308.008 817.888 308.858 820.438 308.982C823.498 309.121 826.578 309.102 829.638 308.925C832.458 308.801 833.578 306.616 832.408 304.002Z" fill="#007471"/>
    <path d="M650.237 169.586C650.897 169.545 651.567 169.629 652.197 169.834C653.997 170.722 655.057 169.968 655.767 168.375C657.077 165.436 660.537 164.606 662.137 161.982C662.247 161.811 662.747 161.877 663.087 161.839C663.907 161.744 664.937 161.925 665.517 161.496C666.807 160.542 670.527 162.259 669.267 158.299C669.267 158.194 669.717 157.822 670.007 157.736C671.327 157.267 672.677 156.894 674.057 156.62C678.037 156 680.487 153.024 683.517 150.895C677.967 150.533 673.657 154.435 668.117 155.017C669.927 151.321 671.257 147.406 672.067 143.367C669.937 144.674 667.717 145.725 665.697 147.051C661.627 149.869 657.797 153.016 654.247 156.458C651.827 158.611 649.617 160.995 647.657 163.575C646.567 164.884 646.257 166.667 646.827 168.27C647.377 169.806 648.917 169.529 650.237 169.586Z" fill="#007471"/>
    <path d="M595.289 91.0261C594.439 91.0261 593.549 91.0261 593.379 92.1615C593.209 93.2969 594.099 93.545 594.869 93.8312C595.639 94.1414 596.439 94.3747 597.259 94.5277C599.829 94.9092 600.219 96.4359 599.689 98.6589C599.289 100.405 598.219 102.094 598.989 103.992C595.989 103.826 592.989 103.855 589.999 104.078C590.529 105.137 591.249 105.099 591.909 105.242C595.729 106.129 599.539 106.988 603.359 107.913C604.449 108.181 606.049 108.037 606.419 109.212C606.869 110.566 605.169 110.938 604.409 111.72C603.689 112.527 602.889 113.255 602.019 113.896C599.749 115.442 598.329 115.155 596.739 112.942C596.349 112.407 596.029 111.806 595.609 111.291C593.209 108.296 590.559 105.7 586.289 105.938C585.159 106.005 584.079 106.301 583.649 107.465C583.219 108.63 584.099 109.469 585.059 110.051C587.589 111.685 589.609 113.999 590.889 116.73C591.529 117.897 591.109 119.366 589.939 120.008C589.639 120.17 589.309 120.269 588.979 120.298C587.899 120.402 586.829 120.376 585.759 120.221C583.509 119.956 581.229 120.181 579.079 120.88C578.669 120.994 578.229 121.051 578.209 121.585C578.189 122.12 578.359 122.54 578.779 122.598C580.789 123.046 582.399 124.582 584.639 124.506C587.449 124.372 590.279 124.506 593.089 124.506C594.199 124.452 595.239 125.058 595.739 126.051C598.269 130.641 600.909 135.172 603.369 139.828C604.609 142.431 606.449 144.699 608.749 146.44C611.419 148.405 614.159 150.609 615.419 153.977C615.679 154.674 615.959 155.447 617.029 154.931C619.229 153.92 620.739 147.699 618.939 146.049C617.469 144.685 616.359 143.034 614.899 141.688C609.179 136.403 605.519 129.706 601.929 122.96C601.059 121.328 601.399 120.345 603.049 119.611C607.169 117.9 610.449 114.613 612.139 110.48C612.789 108.935 612.609 108.152 611.339 107.436C610.459 106.973 609.559 106.559 608.629 106.196C605.609 104.908 602.269 105.013 599.189 103.992C601.289 103.286 603.269 102.628 604.379 100.281C605.839 97.1992 606.379 97.1324 609.229 99.0787C611.479 100.537 613.999 101.48 616.659 101.836C618.659 102.161 620.539 101.541 621.299 99.384C622.059 97.2278 620.239 96.6839 618.949 95.8539C616.769 94.4683 614.379 93.4348 611.869 92.7912C606.839 91.446 606.559 92.1043 609.479 86.685C609.759 86.1793 610.149 85.7309 610.439 85.2157C611.759 82.7922 613.059 80.3307 613.189 77.5256C613.279 75.856 613.719 73.5757 611.679 72.9746C609.629 72.3735 608.689 74.4249 607.859 75.9228C605.619 79.9109 603.389 83.9181 602.429 88.4691C601.919 90.883 600.349 91.7131 597.999 91.3314C597.099 91.1726 596.189 91.0706 595.289 91.0261Z" fill="#007471"/>
    <path d="M186.148 162.223C190.221 169.254 195.688 175.179 201.278 180.999C201.998 181.98 203.377 182.192 204.358 181.472C204.378 181.458 204.397 181.443 204.416 181.428C206.506 179.806 207.221 175.294 205.466 173.356C202.795 170.409 201.373 166.725 199.198 163.511C196.499 159.503 193.265 155.878 188.161 154.762C185.299 154.161 184.927 154.523 185.013 157.414C184.906 159.094 185.302 160.767 186.148 162.223Z" fill="#007471"/>
    <path d="M760.359 279.813C758.799 280.117 757.349 280.847 756.159 281.921C754.989 283.095 754.069 284.393 754.669 286.11C755.009 287.064 758.589 287.751 759.749 286.883C762.299 284.975 765.319 283.839 767.789 281.873C774.559 276.483 781.219 270.997 788.779 266.694C792.059 264.786 794.779 261.972 797.729 259.519C798.519 259.084 799.019 258.264 799.039 257.363C798.709 257.306 798.529 257.21 798.399 257.268C797.089 257.973 795.709 258.581 794.309 259.09C784.369 261.809 776.649 268.097 768.999 274.565C766.449 276.75 763.829 278.935 760.359 279.813Z" fill="#007471"/>
    <path d="M683.938 152.093C679.038 158.39 675.219 165.451 669.999 171.528C669.269 172.387 669.319 172.845 670.429 173.341C672.079 174.076 673.438 174.095 674.568 172.463C675.418 171.242 676.479 170.155 677.279 168.905C680.939 163.257 684.609 157.618 688.139 151.883C689.329 149.975 690.669 149.451 692.909 149.804C695.279 150.176 697.618 150.7 699.978 151.092C701.338 151.339 702.649 150.438 702.889 149.08C702.889 149.054 702.899 149.028 702.899 149.002C703.159 147.695 701.539 147.81 700.679 147.667C698.469 147.313 696.239 147.077 693.999 146.961C692.419 146.894 691.599 145.94 692.239 144.775C693.189 142.963 693.669 140.759 695.749 139.548C698.609 137.858 699.408 135.731 698.718 132.516C695.998 134.987 694.369 138.306 692.149 141.179C689.419 144.709 687.069 148.459 681.109 144.995C681.529 146.127 682.448 146.997 683.598 147.342C686.248 148.621 686.279 148.697 684.669 151.092C684.459 151.416 684.198 151.769 683.938 152.093Z" fill="#007471"/>
    <path d="M700.238 159.158C702.378 161.801 703.898 165.016 706.668 167.039C709.958 169.427 713.058 172.058 715.958 174.91C719.238 178.192 720.598 178.135 724.208 176.074C726.118 174.996 725.368 174.09 724.768 173.211C723.988 172.138 723.068 171.176 722.028 170.35C717.708 166.591 712.998 163.318 708.788 159.407C707.018 157.765 704.658 157.364 702.658 156.944C700.198 156.754 699.138 157.803 700.238 159.158Z" fill="#007471"/>
    <path d="M677.067 194.312C678.437 196.03 679.557 195.792 680.967 194.809C684.857 192.108 689.807 190.601 691.137 185.077C691.547 183.398 693.137 182.043 693.847 180.383C695.527 176.471 698.467 173.275 700.077 169.363C700.667 167.932 702.127 165.67 700.887 164.945C699.647 164.22 698.027 166.32 696.807 167.598C693.147 171.595 689.817 175.822 687.687 180.86C685.987 184.867 682.757 187.453 679.387 189.905C678.197 190.882 676.547 191.062 675.167 190.363C674.157 189.676 672.887 189.46 671.707 189.771C673.657 191.383 675.687 192.585 677.067 194.312Z" fill="#007471"/>
    <path d="M355.258 58.6081C357.208 59.085 359.208 59.2556 361.198 59.1138C366.288 59.2928 371.338 58.2731 375.958 56.137C376.588 55.8412 377.598 56.137 377.688 55.0779C377.808 54.1511 377.448 53.2259 376.728 52.6259C374.418 50.385 371.158 49.3978 367.988 49.9735C365.208 50.4792 362.409 50.9277 359.679 51.5955C357.269 52.1052 355.228 53.6675 354.108 55.8508C353.328 57.3869 353.688 58.1406 355.258 58.6081Z" fill="#007471"/>
    <path d="M715.497 156.155C716.697 158.569 718.927 159.017 720.957 159.618C723.947 159.676 726.247 156.48 725.007 154.046C722.417 148.922 718.007 146.29 712.467 145.383C711.317 145.193 710.067 144.906 709.317 146.127C708.577 147.348 709.527 148.15 710.137 148.989C711.847 151.461 714.147 153.464 715.497 156.155Z" fill="#007471"/>
    <path d="M504.387 99.2229C503.517 99.5473 502.967 99.9384 503.097 101.007C503.347 103.058 503.417 105.138 503.737 107.18C504.387 111.13 505.387 112.036 509.317 112.656C512.767 113.2 513.667 112.437 513.577 108.135C513.317 106.459 512.967 104.8 512.527 103.163C511.587 100.072 507.337 98.1257 504.387 99.2229Z" fill="#007471"/>
    <path d="M413.367 59.2539C414.907 61.2194 416.727 62.8318 418.977 63.3375C419.927 63.3172 420.857 63.1859 421.767 62.9463C423.307 62.2784 424.967 61.3625 424.287 59.3303C423.537 56.962 422.297 54.7737 420.657 52.8997C418.257 50.1996 415.518 50.0374 411.668 52.7756C409.448 54.3594 412.397 55.6952 412.387 57.2789C412.507 58.0224 412.837 58.7128 413.367 59.2539Z" fill="#007471"/>
    <path d="M823.677 282.045C825.747 282.65 827.647 283.673 829.287 285.051C829.677 285.301 830.107 285.454 830.567 285.499C833.747 285.499 836.297 282.636 835.437 280.194C834.537 277.432 832.147 275.426 829.267 275.042C826.577 274.594 824.497 276.263 822.867 278.21C821.767 279.565 821.607 281.32 823.677 282.045Z" fill="#007471"/>
    <path d="M382.06 70.6443C382.85 70.3569 383.55 69.8546 384.06 69.194C385.29 67.7326 386.79 66.5184 388.48 65.6162C389.14 65.33 389.86 64.5095 390.49 65.0437C391.27 65.7116 390.31 66.3795 389.97 66.9519C389.11 68.4785 389.33 69.1559 390.93 68.7551C393.35 68.7551 397.51 63.9275 397.21 61.7998C397.04 60.6358 396.25 60.4355 395.24 60.3401C392.7 60.111 390.83 61.6377 388.84 62.7634C385.88 64.4426 385.91 64.5095 384.97 61.1415C384.83 60.6644 384.78 60.0442 384.2 60.0156C383.91 60.0156 383.5 60.3973 383.25 60.7121C381.48 63.1283 380.29 65.9296 379.8 68.8888C379.64 70.7874 380.5 71.1023 382.06 70.6443Z" fill="#007471"/>
    <path d="M383.829 48.9373C386.089 50.5211 388.279 49.2521 390.229 47.9831C391.779 47.1852 392.479 45.3596 391.879 43.7279C391.069 41.3808 389.019 41.3045 387.019 41.0469C384.579 41.0469 381.449 42.8501 381.029 44.7393C380.519 46.9623 382.459 47.9831 383.829 48.9373Z" fill="#007471"/>
    <path d="M490.189 69.4329C494.429 70.2057 497.489 67.9159 500.679 65.4639C499.709 65.3925 498.729 65.3925 497.749 65.4639C495.199 65.8265 492.909 65.6643 491.529 63.05C491.289 62.5826 490.879 62.1723 490.329 62.449C488.899 63.1837 486.909 63.5939 486.969 65.6452C486.839 67.5725 488.259 69.2561 490.189 69.4329Z" fill="#007471"/>
    <path d="M699.799 139.702C699.789 140.122 699.829 140.542 699.929 140.952C700.579 143.575 704.699 145.369 706.219 143.575C707.419 142.343 707.709 140.505 706.979 138.958C706.019 137.049 702.689 135.141 701.119 135.466C698.699 135.981 700.079 137.746 699.799 139.702Z" fill="#007471"/>
    <path d="M517.307 64.5563C517.037 63.1921 515.847 62.6484 514.447 62.6484C510.707 62.6773 507.017 63.5306 503.637 65.1477C504.467 65.9969 505.657 66.3914 506.837 66.2066C507.787 66.2066 509.177 65.7392 509.187 67.5422C509.147 67.8141 509.347 68.0617 509.617 68.0952C509.707 68.105 509.777 68.0953 509.857 68.0669C511.607 67.3896 513.527 67.9524 515.247 67.3132C516.447 66.8744 517.597 65.9872 517.307 64.5563Z" fill="#007471"/>
    <path d="M687.597 167.006C690.027 168.227 692.037 167.235 692.007 164.487C692.007 161.883 690.617 159.602 689.687 157.236C689.377 156.613 688.667 156.298 687.987 156.482C687.227 156.635 687.247 157.389 687.287 157.894C687.457 160.069 686.667 162.121 686.577 164.258C686.557 165.308 686.277 166.347 687.597 167.006Z" fill="#007471"/>
    <path d="M577.316 120.307C576.096 119.161 574.376 118.446 574.216 116.49C574.146 115.536 576.066 114.725 574.706 114.105C573.756 113.695 573.756 115.574 573.126 116.28C572.736 116.7 572.586 117.311 572.236 117.769C571.136 119.207 571.106 121.195 572.166 122.663C573.066 124.113 574.696 123.159 575.826 123.36C576.566 122.091 574.746 121.872 575.106 120.87C575.846 120.507 576.666 120.975 577.316 120.307Z" fill="#007471"/>
    <path d="M393.04 54.5106C393.7 54.2718 394.08 53.5655 393.91 52.8793C393.88 52.4216 393.49 52.0704 393.03 52.095C392.96 52.0989 392.879 52.1124 392.819 52.1352C389.079 53.1171 385.57 54.8539 382.52 57.2389C386.28 57.1244 389.57 55.5122 393.04 54.5106Z" fill="#007471"/>
    <path d="M453.507 0.5C203.367 0.5 0.601562 203.302 0.601562 453.467C0.601562 703.631 203.367 906.434 453.507 906.434C703.647 906.434 906.407 703.669 906.407 453.467C906.407 203.264 703.637 0.5 453.507 0.5ZM765.407 765.409C593.477 936.911 315.095 936.55 143.615 764.6C-27.8654 592.65 -27.5024 314.226 144.424 142.723C316.345 -28.7802 594.727 -28.4179 766.217 143.532C892.437 270.097 929.487 460.484 859.937 625.156C837.797 677.585 805.687 725.217 765.407 765.409Z" fill="#007471"/>
    <path d="M134.98 453.465C134.98 629.381 277.568 772 453.469 772C629.369 772 771.949 629.381 771.949 453.465C771.949 277.549 629.399 134.93 453.509 134.93C277.616 134.93 134.98 277.539 134.98 453.465ZM453.509 140.836C626.139 140.825 766.089 280.78 766.099 453.435C766.109 626.089 626.18 766.063 453.549 766.074C280.917 766.086 140.964 626.13 140.952 453.475C140.947 370.571 173.868 291.06 232.475 232.429C290.962 173.597 370.549 140.614 453.509 140.836Z" fill="#007471"/>
    <path d="M54.4462 449.31C54.2992 450.11 54.2222 450.921 54.2172 451.733C54.0822 454.22 54.9242 456.662 56.5642 458.536C58.0272 460.25 60.1582 461.252 62.4122 461.283H62.5261C63.6831 461.28 64.8242 461.015 65.8652 460.511C66.9782 459.954 67.9552 459.159 68.7272 458.183C70.0172 456.431 71.1751 454.584 72.1901 452.659C73.9931 449.415 75.4431 447.344 76.4921 446.505C77.1211 445.986 77.9091 445.698 78.7241 445.694C79.8381 445.721 80.8821 446.234 81.5861 447.096C82.4311 448.061 82.8691 449.317 82.8071 450.598C82.7741 451.876 82.4202 453.127 81.7772 454.233C81.1602 455.353 80.2461 456.282 79.1351 456.914C77.7241 457.618 76.1931 458.049 74.6221 458.183H74.3742V459.528L84.9821 459.69V458.374L84.7532 458.317C84.3232 458.267 83.9162 458.095 83.5802 457.821C83.4052 457.625 83.3201 457.366 83.3411 457.105C83.4221 456.559 83.6032 456.031 83.8762 455.549C84.6252 453.988 85.0472 452.29 85.1162 450.56C85.2272 448.24 84.4262 445.969 82.8842 444.234C81.4902 442.616 79.4662 441.678 77.3322 441.658C76.1342 441.624 74.9501 441.897 73.8881 442.45C72.7781 443.049 71.8041 443.872 71.0261 444.864C69.7601 446.537 68.6122 448.296 67.5922 450.131C66.1802 452.563 65.2451 454.071 64.8251 454.605C64.2981 455.307 63.6292 455.89 62.8602 456.313C62.2432 456.662 61.5451 456.842 60.8381 456.838C59.6341 456.822 58.5001 456.269 57.7471 455.33C56.8241 454.196 56.3702 452.752 56.4782 451.294C56.4852 449.864 56.8482 448.455 57.5372 447.201C58.1102 446.086 58.9782 445.149 60.0462 444.492C61.4812 443.763 63.0352 443.294 64.6342 443.108L64.8732 443.061V441.735L54.3792 441.562V442.899L54.6271 442.946C55.0431 442.963 55.4451 443.103 55.7811 443.347C55.9451 443.514 56.0262 443.745 56.0012 443.977C55.8702 444.848 55.6372 445.698 55.3042 446.514C54.9642 447.428 54.6782 448.362 54.4462 449.31Z" fill="#007471"/>
    <path d="M56.8221 475.345C56.7931 474.716 56.9311 474.09 57.2231 473.532C57.3641 473.186 57.6251 472.902 57.9581 472.731C58.8621 472.467 59.802 472.342 60.743 472.359L79.4311 471.586C81.5011 471.5 82.2931 471.72 82.5601 471.93C83.2571 472.487 83.6411 473.347 83.5911 474.238V475.583L84.9741 475.526L84.4401 462.531L83.0561 462.588L83.1141 463.905C83.1361 464.543 82.9981 465.177 82.7131 465.747C82.5631 466.081 82.3041 466.353 81.9781 466.52C81.0771 466.795 80.1351 466.921 79.1931 466.892L60.4951 467.674C58.4351 467.75 57.633 467.54 57.376 467.35C56.684 466.775 56.302 465.91 56.345 465.012L56.2881 463.695L54.9141 463.752L55.449 476.738H56.832L56.8221 475.345Z" fill="#007471"/>
    <path d="M64.8909 504.558L65.1479 504.673L65.7689 503.471L65.5198 503.337C63.5478 502.306 61.8049 500.885 60.3979 499.159C59.4559 497.758 58.8939 496.138 58.7659 494.455C58.5509 492.495 58.8808 490.515 59.7198 488.73C60.5688 486.999 61.9409 485.576 63.6409 484.666C65.6689 483.589 67.8959 482.938 70.1849 482.757C72.8419 482.426 75.5379 482.618 78.1219 483.321C81.8779 484.223 84.6099 487.462 84.8669 491.316C85.1109 493.366 84.6429 495.437 83.5409 497.183C82.0669 499.157 80.0319 500.639 77.7029 501.439L77.5019 501.525L77.6169 502.717L87.9388 501.019L87.8149 499.769H87.5859C87.0399 499.724 86.5158 499.533 86.0688 499.216C85.8378 499.021 85.6938 498.744 85.6678 498.443C85.6968 498.031 85.8069 497.63 85.9929 497.259C86.8119 495.214 87.1389 493.006 86.9459 490.811C86.7039 488.152 85.7519 485.609 84.1899 483.445C82.6109 481.261 80.4489 479.568 77.9509 478.56C75.3429 477.477 72.5058 477.064 69.6988 477.358C66.2868 477.618 63.0539 478.989 60.4929 481.259C57.1449 484.275 55.7229 488.263 56.1529 493.119C56.3249 495.592 57.1909 497.967 58.6519 499.97C60.3129 502 62.4579 503.578 64.8909 504.558Z" fill="#007471"/>
    <path d="M76.3661 562.568C78.3601 562.492 80.3361 562.17 82.2521 561.613L93.623 558.666C95.531 558.179 96.2371 558.217 96.5521 558.322C97.4851 558.596 98.1951 559.356 98.4031 560.306L98.7461 561.642L100.082 561.298L97.3721 550.804L96.0271 551.147L96.3801 552.483C96.6541 553.278 96.5621 554.154 96.1321 554.877C95.9221 555.183 95.2451 555.651 93.1651 556.185L81.813 559.123C78.885 559.887 76.7291 560.173 75.3831 559.963C73.9611 559.707 72.6691 558.974 71.7201 557.883C70.5501 556.618 69.722 555.075 69.316 553.399C68.971 552.199 68.9121 550.934 69.1451 549.707C69.3471 548.736 69.7891 547.829 70.4321 547.073C71.2421 546.255 72.2181 545.621 73.2941 545.213C74.4721 544.714 75.6841 544.296 76.9191 543.963L89.1871 540.843C91.0951 540.356 91.8871 540.423 92.2501 540.547C93.0801 540.894 93.6711 541.65 93.8041 542.542L94.157 543.906L95.493 543.562L92.4691 531.931L90.3031 519.528L88.9391 519.767L89.1681 521.065C89.2711 521.686 89.216 522.322 89.006 522.915C88.905 523.275 88.6831 523.588 88.3761 523.803C87.5131 524.195 86.5921 524.447 85.6481 524.547L77.7401 525.844L75.5271 513.175L83.4631 511.8C84.3531 511.586 85.2691 511.505 86.1821 511.561C86.5681 511.639 86.909 511.86 87.136 512.181C87.533 512.677 87.795 513.265 87.899 513.89L88.1281 515.206L89.493 514.968L87.2791 502.164L85.9151 502.402L86.144 503.7C86.256 504.338 86.2031 504.995 85.9921 505.609C85.8821 505.959 85.6601 506.263 85.3621 506.477C84.4941 506.867 83.5701 507.118 82.6241 507.221L64.2131 510.426C62.1711 510.779 61.3511 510.665 61.0741 510.512C60.3161 510.034 59.825 509.23 59.748 508.337L59.5291 507.03L58.1641 507.269L60.3971 520.082L61.7511 519.844L61.5221 518.479C61.4151 517.858 61.4701 517.22 61.6851 516.628C61.7871 516.271 62.0041 515.959 62.3051 515.741C63.1661 515.353 64.0841 515.105 65.0231 515.006L73.4181 513.547L75.6411 526.207L67.2461 527.686C65.2141 528.039 64.3841 527.915 64.1081 527.753C63.3431 527.29 62.849 526.487 62.782 525.596L62.5531 524.289L61.1981 524.528L63.4301 537.322L64.7941 537.084L64.5651 535.777C64.4541 535.139 64.5061 534.481 64.7181 533.869C64.8251 533.516 65.0461 533.211 65.3481 533C66.2081 532.618 67.1221 532.37 68.0571 532.265L86.4681 529.06C87.3661 528.86 88.2871 528.776 89.2061 528.812C89.5931 528.892 89.9341 529.117 90.1601 529.442C90.5521 529.939 90.8151 530.525 90.9241 531.149H90.847L91.0951 532.103L91.1431 532.408V532.485C91.4131 533.235 91.3511 534.065 90.9711 534.766C90.7231 535.147 90.017 535.72 87.938 536.235L76.9771 539.097C73.5331 539.993 71.3001 540.804 70.1561 541.597C68.5151 542.716 67.28 544.336 66.636 546.214C65.968 548.123 66.0351 550.661 66.8361 553.771C67.3371 556.198 68.5491 558.419 70.3181 560.154C71.6951 561.447 73.45 562.264 75.326 562.482C75.698 562.549 76.0231 562.568 76.3661 562.568Z" fill="#007471"/>
    <path d="M83.1412 598.253C82.8342 597.363 82.8342 596.396 83.1412 595.506C83.8412 594.265 84.7781 593.173 85.8981 592.291L105.407 574.869L105.55 574.735L105.178 573.657L79.1251 571.835C77.5481 571.826 75.9872 571.528 74.5172 570.958C74.2502 570.824 73.7831 570.395 73.0771 569.125L72.9622 568.906L71.7031 569.344L74.8801 578.523L76.1682 578.075L76.1011 577.808C75.7691 576.978 75.6711 576.075 75.8151 575.193C75.9091 574.832 76.1721 574.537 76.5211 574.401C77.3431 574.213 78.1922 574.171 79.0302 574.277L83.7991 574.621L87.2811 584.848L84.0671 587.711C83.3631 588.417 82.5431 588.998 81.6431 589.428C81.2801 589.552 80.8801 589.496 80.5651 589.276C79.9941 588.766 79.5812 588.104 79.3732 587.368L79.2681 587.11L77.9802 587.549L81.9202 598.902L83.2081 598.463L83.1412 598.253ZM86.0981 574.773L97.6702 575.613L89.0842 583.331L86.0981 574.773Z" fill="#007471"/>
    <path d="M118.122 613.774C119.001 614.007 119.699 614.673 119.973 615.539L120.507 616.752L121.766 616.189L117.464 606.428L116.205 606.981L116.729 608.164C117.143 608.904 117.21 609.787 116.91 610.579C116.767 610.903 116.185 611.466 114.258 612.315L99.7302 618.755L112.131 594.531L112.188 594.407L108.849 586.773L107.581 587.337L107.705 587.604C107.971 588.143 108.158 588.718 108.258 589.312C108.356 589.979 108.356 590.657 108.258 591.325C108.021 592.143 107.701 592.936 107.304 593.69L88.9692 601.763C87.2042 602.545 86.4312 602.631 86.1072 602.564C85.2012 602.348 84.4762 601.669 84.1992 600.779L83.6743 599.597L82.4062 600.15L86.7083 609.92L87.9772 609.367L87.4432 608.155C87.0392 607.417 86.9693 606.542 87.2523 605.751C87.4043 605.436 87.9862 604.873 89.9232 604.024L105.482 597.173L92.2032 623.307L92.1462 623.44L92.6322 624.537L115.241 614.576C117.025 613.803 117.807 613.717 118.122 613.774Z" fill="#007471"/>
    <path d="M118.687 655.417H118.506C116.906 655.525 115.298 655.396 113.736 655.035C112.956 654.832 112.237 654.446 111.637 653.91C110.849 653.048 110.178 652.086 109.643 651.048L107.316 646.763C107.032 646.349 106.846 645.876 106.772 645.38C106.763 645.139 106.841 644.902 106.991 644.712C107.552 644.222 108.178 643.811 108.851 643.491L116.903 638.93L119.898 644.216C120.378 644.95 120.703 645.775 120.852 646.639C120.897 647.163 120.773 647.688 120.499 648.137C119.908 648.814 119.235 649.413 118.496 649.922L118.286 650.084L118.954 651.248L128.246 645.991L127.568 644.808L127.32 644.932C126.31 645.568 125.091 645.784 123.924 645.533C123.294 645.323 122.579 644.531 121.806 643.157L118.763 637.833L128.207 632.49L132.023 639.169C132.546 639.994 132.938 640.896 133.187 641.841C133.29 642.493 133.183 643.161 132.882 643.749C132.289 644.639 131.555 645.425 130.707 646.077L130.526 646.229L131.203 647.441L137.07 643.72L125.947 624.047L125.803 623.789L124.487 624.476L125.136 625.63C125.63 626.327 125.81 627.2 125.632 628.035C125.536 628.293 125.078 628.903 123.075 630.029L106.695 639.302C105.934 639.789 105.109 640.169 104.244 640.428C103.842 640.498 103.429 640.401 103.099 640.161C102.565 639.826 102.123 639.364 101.811 638.816L101.163 637.671L99.9609 638.348L111.131 658.003L111.236 658.194L119.402 656.677L118.687 655.417Z" fill="#007471"/>
    <path d="M133.861 677.259H133.613C132.17 677.596 130.683 677.702 129.206 677.574C128.241 677.452 127.32 677.095 126.525 676.534C125.403 675.49 124.438 674.288 123.664 672.966L122.452 671.229C121.8 670.37 121.261 669.431 120.849 668.434C120.779 668.159 120.809 667.868 120.935 667.614C121.406 666.99 122 666.47 122.681 666.087L137.887 656.078C138.719 655.426 139.662 654.932 140.673 654.619C141.191 654.582 141.705 654.724 142.132 655.019C142.965 655.667 143.659 656.474 144.174 657.395L144.326 657.643L145.471 656.918L137.935 645.469L136.781 646.232L137.544 647.387C138.058 648.052 138.253 648.911 138.078 649.733C137.983 650.086 137.486 650.754 135.693 651.928L120.086 662.213C118.436 663.291 117.692 663.52 117.358 663.52C116.429 663.478 115.592 662.944 115.164 662.118L114.401 660.963L113.246 661.727L125.858 680.885L134.31 678.48L133.861 677.259Z" fill="#007471"/>
    <path d="M148.707 698.576C147.139 698.895 145.531 698.982 143.937 698.833C143.136 698.74 142.37 698.452 141.705 697.993C140.805 697.243 140.01 696.377 139.339 695.417L136.372 691.506C136.028 691.137 135.78 690.693 135.647 690.207C135.601 689.971 135.644 689.726 135.771 689.521C136.263 688.958 136.827 688.464 137.45 688.051L144.824 682.46L148.497 687.298C149.063 687.963 149.482 688.74 149.728 689.578C149.846 690.089 149.792 690.626 149.575 691.104C149.078 691.854 148.491 692.539 147.829 693.147L147.648 693.328L148.459 694.396L156.959 687.937L156.138 686.849L155.909 687.012C154.991 687.778 153.811 688.157 152.618 688.071C151.97 687.946 151.149 687.25 150.205 685.991L146.532 681.163L155.184 674.589L159.811 680.695C160.439 681.441 160.95 682.277 161.328 683.176C161.504 683.802 161.483 684.469 161.271 685.085C160.801 686.043 160.179 686.919 159.43 687.679L159.267 687.861L160.107 688.967L165.411 684.493L151.569 666.25L150.472 667.09L151.273 668.139C151.856 668.764 152.15 669.605 152.084 670.458C152.027 670.725 151.664 671.412 149.823 672.776L134.836 684.159C134.149 684.747 133.381 685.235 132.556 685.609C132.167 685.731 131.745 685.694 131.383 685.504C130.81 685.244 130.312 684.844 129.933 684.341L129.132 683.29L128.035 684.12L141.705 702.134L141.829 702.306L149.718 699.711L148.85 698.557L148.707 698.576Z" fill="#007471"/>
    <path d="M167.356 720.154C165.151 720.475 162.906 720.341 160.755 719.763C159.177 719.175 157.776 718.189 156.691 716.901C155.363 715.44 154.471 713.634 154.115 711.692C153.783 709.79 154.063 707.833 154.916 706.1C155.94 704.049 157.376 702.23 159.133 700.758C161.099 698.937 163.399 697.515 165.906 696.569C167.735 695.872 169.735 695.762 171.63 696.255C173.34 696.766 174.868 697.759 176.028 699.116C177.427 700.635 178.26 702.59 178.384 704.65C178.343 707.112 177.558 709.503 176.133 711.51L176.008 711.701L176.8 712.598L183.993 705.394L184.184 705.194L183.363 704.24L183.154 704.355C182.68 704.634 182.14 704.78 181.589 704.774C181.293 704.755 181.019 704.618 180.826 704.393C180.605 704.042 180.459 703.649 180.397 703.239C179.87 701.096 178.844 699.107 177.401 697.437C175.657 695.42 173.399 693.914 170.867 693.077C168.31 692.225 165.565 692.113 162.949 692.752C160.205 693.391 157.665 694.702 155.555 696.569C152.935 698.768 151.111 701.769 150.366 705.108C149.412 709.517 150.547 713.6 153.762 717.273C155.338 719.193 157.425 720.628 159.782 721.414C161.019 721.785 162.306 721.965 163.597 721.949C164.925 721.941 166.249 721.792 167.547 721.509L167.814 721.452L167.623 720.126L167.356 720.154Z" fill="#007471"/>
    <path d="M214.157 769.995C213.993 769.661 213.947 769.282 214.024 768.917C214.408 768.06 214.916 767.262 215.531 766.551L226.979 751.725C228.238 750.084 228.887 749.635 229.249 749.549C230.124 749.391 231.024 749.648 231.682 750.246L232.741 751.067L233.59 749.978L223.287 742.031L222.447 743.129L223.497 743.94C223.998 744.328 224.392 744.836 224.641 745.418C224.803 745.75 224.847 746.127 224.766 746.487C224.398 747.355 223.893 748.157 223.268 748.862L211.82 763.679C210.551 765.321 209.912 765.779 209.569 765.874C208.685 766.034 207.776 765.769 207.117 765.159L206.077 764.347L205.915 764.558L205.772 764.404C204.826 763.48 204.105 762.35 203.664 761.103C203.31 759.438 203.252 757.723 203.492 756.037L204.341 746.277C206.077 747.265 208.075 747.698 210.065 747.517C211.831 747.296 213.447 746.412 214.587 745.046C215.683 743.823 216.296 742.242 216.313 740.6C216.337 739.022 215.903 737.471 215.064 736.135C213.71 734.252 212.105 732.564 210.294 731.116L202.3 724.228L185.128 707.188L179.672 712.168L180.626 713.122L180.826 712.94C181.592 712.219 182.532 711.71 183.554 711.462C184.31 711.285 185.103 711.356 185.815 711.662C186.625 712.141 187.362 712.735 188 713.427L190.261 715.67L174.883 731.174C173.519 732.547 172.841 732.91 172.517 732.977C171.614 733.087 170.718 732.727 170.142 732.023L169.188 731.069L168.234 732.023L177.373 741.086L178.327 740.132L177.373 739.178C176.728 738.639 176.343 737.852 176.314 737.013C176.314 736.669 176.676 735.935 178.222 734.427L193.628 718.932L196.318 721.604C197.019 722.244 197.555 723.042 197.883 723.932C198.121 724.703 198.121 725.527 197.883 726.298C197.571 727.089 197.133 727.823 196.585 728.474L196.423 728.683L197.377 729.638L201.365 725.21L202.214 725.954C202.893 726.451 203.319 727.223 203.378 728.063C203.378 728.416 203.101 729.189 201.689 730.83L189.478 745.008C188.191 746.496 187.571 746.916 187.227 747.002C186.319 747.209 185.37 746.922 184.728 746.248L183.678 745.342L182.782 746.391L192.407 754.682L192.626 754.883L193.58 753.833L192.503 752.879C191.827 752.396 191.409 751.63 191.367 750.8C191.367 750.437 191.644 749.673 193.065 748.032L198.35 741.888L198.608 742.136L199.066 742.546C199.39 742.822 199.8 743.167 200.315 743.577L198.894 760.13V760.283L205.085 765.626L205.324 765.35L205.247 765.445L215.541 773.383L216.39 772.286L215.331 771.475C214.819 771.09 214.415 770.581 214.157 769.995ZM200.23 741.077L199.877 740.752L199.562 740.466L207.079 731.755C207.976 732.257 208.829 732.834 209.626 733.482C210.876 734.465 211.67 735.917 211.82 737.499C211.924 739.053 211.39 740.583 210.342 741.735C209.284 743.027 207.69 743.76 206.02 743.72C204.189 743.739 202.262 742.784 200.23 741.077Z" fill="#007471"/>
    <path d="M253.747 763.573C253.359 763.96 252.875 764.236 252.345 764.374C252.048 764.429 251.741 764.359 251.496 764.184C251.197 763.897 250.959 763.554 250.799 763.172C249.764 761.229 248.284 759.559 246.478 758.298C244.29 756.768 241.728 755.861 239.065 755.673C236.378 755.493 233.694 756.061 231.31 757.314C228.805 758.616 226.666 760.525 225.09 762.867C223.098 765.642 222.072 768.994 222.171 772.409C222.323 776.912 224.441 780.595 228.457 783.361C230.463 784.815 232.836 785.675 235.307 785.842H235.86C238.299 785.773 240.69 785.15 242.853 784.02L243.101 783.896L242.576 782.655L242.318 782.751C240.263 783.611 238.05 784.037 235.822 784.001C234.145 783.817 232.544 783.203 231.176 782.217C229.516 781.13 228.195 779.6 227.36 777.799C226.576 776.039 226.365 774.076 226.759 772.189C227.248 769.947 228.192 767.829 229.535 765.969C230.992 763.719 232.87 761.776 235.068 760.244C238.186 757.938 242.444 757.938 245.562 760.244C247.288 761.369 248.575 763.052 249.206 765.015C249.776 767.41 249.603 769.923 248.71 772.218L248.643 772.428L249.597 773.105L254.93 764.107L253.89 763.392L253.747 763.573Z" fill="#007471"/>
    <path d="M286.723 785.72C287.515 785.592 288.326 785.678 289.08 785.968L289.309 786.044L289.957 784.88L281.61 780.3L280.971 781.473L281.162 781.626L281.448 781.865C282.039 782.25 282.507 782.792 282.803 783.43C282.955 783.779 282.955 784.178 282.803 784.527C282.106 785.464 281.276 786.29 280.341 786.979L266.824 797.951L268.465 780.214C268.504 779.088 268.743 777.976 269.17 776.933C269.361 776.568 269.717 776.32 270.124 776.265C270.979 776.269 271.82 776.488 272.567 776.904L272.815 777.009L273.463 775.826L262.569 769.844L261.92 771.036L262.149 771.189C262.739 771.545 263.259 772.003 263.685 772.543C263.988 772.967 264.193 773.453 264.286 773.965C264.338 774.815 264.302 775.67 264.181 776.513L261.691 803.629V803.819L262.731 804.382L283.594 787.504C284.501 786.695 285.569 786.086 286.723 785.72Z" fill="#007471"/>
    <path d="M310.594 798.123C309.392 794.523 306.73 791.593 303.267 790.052C299.919 788.487 296.093 788.292 292.602 789.508C288.49 790.898 285.18 794.003 283.539 798.018C281.698 801.726 281.412 806.016 282.747 809.935C284.016 813.618 286.792 816.584 290.379 818.093C292.173 818.918 294.128 819.351 296.103 819.361C297.982 819.349 299.852 818.97 301.588 818.245C305.414 816.664 308.447 813.621 310.021 809.792C311.767 806.136 311.967 801.933 310.594 798.123ZM304.784 808.037C302.952 812.12 300.806 814.792 298.392 815.965C296.151 817.126 293.489 817.18 291.2 816.108C289.072 815.225 287.489 813.379 286.935 811.137C286.153 808.065 286.716 804.363 288.614 800.127C290.513 795.891 292.754 793.229 295.435 791.883C296.465 791.344 297.61 791.06 298.774 791.053C299.909 791.066 301.025 791.319 302.056 791.797C304.297 792.684 305.995 794.58 306.625 796.912C307.36 799.851 306.74 803.59 304.784 808.037Z" fill="#007471"/>
    <path d="M334.298 826.751L333.478 825.692L333.248 825.845C331.478 827.198 329.458 828.172 327.288 828.708C325.618 828.962 323.918 828.781 322.348 828.183C320.486 827.544 318.836 826.4 317.577 824.881C316.365 823.378 315.659 821.533 315.554 819.605C315.459 817.328 315.831 815.055 316.651 812.927C317.472 810.375 318.798 808.012 320.534 805.972C322.948 802.962 327.038 801.866 330.638 803.262C332.598 803.911 334.288 805.218 335.408 806.964C336.478 808.671 336.928 811.056 336.778 814.053V814.272L337.918 814.682L340.778 804.616L339.598 804.187L339.458 804.387C339.188 804.863 338.788 805.255 338.308 805.522C338.028 805.637 337.728 805.637 337.448 805.522C337.078 805.327 336.748 805.054 336.498 804.721C334.998 803.109 333.138 801.873 331.068 801.115C328.558 800.203 325.858 799.982 323.238 800.476C320.591 800.981 318.139 802.217 316.155 804.044C314.076 805.953 312.492 808.344 311.557 811.009C310.346 814.208 310.212 817.715 311.175 820.999C312.454 825.286 315.783 828.653 320.057 829.976C321.608 830.555 323.248 830.858 324.908 830.873C325.728 830.872 326.538 830.789 327.328 830.625C329.878 829.989 332.218 828.722 334.148 826.942L334.298 826.751Z" fill="#007471"/>
    <path d="M361.369 839.311C360.739 838.031 360.369 836.641 360.279 835.218L356.849 809.123L355.759 808.828L339.539 829.303C338.639 830.598 337.509 831.72 336.209 832.613C335.469 832.863 334.659 832.913 333.889 832.757H333.639L333.289 834.045L342.659 836.592L343.019 835.285L342.759 835.19C341.899 834.992 341.089 834.564 340.449 833.949C340.199 833.667 340.099 833.284 340.189 832.919C340.489 832.135 340.939 831.412 341.489 830.781L344.469 827.042L354.959 829.904L355.539 834.188C355.709 835.173 355.709 836.179 355.539 837.164C355.429 837.532 355.159 837.825 354.799 837.956C354.069 838.155 353.289 838.132 352.579 837.889L352.299 837.823L351.939 839.139L363.539 842.307L363.889 840.991L363.639 840.895C362.719 840.636 361.929 840.079 361.369 839.311ZM345.929 825.161L353.149 816.088L354.669 827.538L345.929 825.161Z" fill="#007471"/>
    <path d="M387.528 821.606C387.698 822.442 387.728 823.298 387.628 824.144V824.401L388.978 824.678L390.138 817.379L366.418 812.438L364.508 819.584L365.888 819.87L365.958 819.611C366.198 818.587 366.718 817.642 367.428 816.874C367.978 816.318 368.678 815.948 369.448 815.815C370.378 815.776 371.318 815.872 372.228 816.101L375.348 816.75L370.948 838.198C370.558 840.106 370.188 840.773 369.998 841.002C369.298 841.586 368.348 841.769 367.478 841.49L366.188 841.213L365.908 842.568L378.218 845.124L378.508 845.182L378.788 843.827L377.518 843.569C376.688 843.471 375.928 843.02 375.458 842.329C375.278 842.024 375.168 841.223 375.598 839.152L380.028 817.77L383.738 818.543C384.668 818.696 385.558 819.071 386.318 819.641C386.908 820.164 387.328 820.847 387.528 821.606Z" fill="#007471"/>
    <path d="M403.228 819.259L390.668 817.352H390.388L390.178 818.716L391.478 818.916C392.108 819.018 392.688 819.274 393.198 819.66C393.488 819.877 393.718 820.185 393.828 820.538C393.908 821.475 393.858 822.422 393.658 823.342L390.798 841.833C390.478 843.884 390.118 844.6 389.838 844.838C389.148 845.406 388.218 845.615 387.348 845.401L386.038 845.201L385.828 846.566L398.388 848.474H398.678L398.888 847.11L397.568 846.909C396.948 846.81 396.358 846.554 395.858 846.165C395.558 845.951 395.338 845.642 395.218 845.287C395.138 844.349 395.188 843.403 395.388 842.482L398.258 823.991C398.568 821.94 398.928 821.225 399.208 820.986C399.898 820.416 400.808 820.207 401.678 820.423L403.008 820.633L403.228 819.259Z" fill="#007471"/>
    <path d="M418.248 820.268C414.588 819.838 410.898 820.866 407.978 823.13C404.518 825.765 402.388 829.767 402.108 834.102C401.568 838.205 402.658 842.358 405.178 845.646C407.548 848.721 411.108 850.645 414.978 850.942C415.468 850.989 415.928 851.018 416.448 851.018C419.838 851.022 423.128 849.764 425.648 847.487C428.768 844.764 430.668 840.913 430.938 836.783C431.428 832.762 430.298 828.71 427.778 825.533C425.488 822.514 422.028 820.602 418.248 820.268ZM425.418 836.869C424.998 841.325 423.818 844.501 421.908 846.409C420.158 848.228 417.658 849.13 415.138 848.852C412.838 848.699 410.748 847.459 409.508 845.512C407.788 842.851 407.138 839.158 407.598 834.541C408.068 829.923 409.318 826.67 411.418 824.541C412.818 823.081 414.758 822.269 416.778 822.3C417.068 822.3 417.358 822.3 417.668 822.3C420.078 822.42 422.288 823.672 423.628 825.677C425.278 828.282 425.938 832.021 425.418 836.869Z" fill="#007471"/>
    <path d="M452.237 824.004H453.537C454.377 823.934 455.217 824.241 455.807 824.843C456.037 825.11 456.307 825.873 456.277 827.983L456.017 843.859L439.087 822.391L430.797 822.258V823.641H431.097C431.697 823.627 432.297 823.697 432.877 823.851C433.527 824.044 434.137 824.333 434.707 824.71C435.347 825.265 435.937 825.881 436.457 826.551L436.137 846.587C436.137 848.496 435.867 849.259 435.677 849.526C435.117 850.214 434.247 850.573 433.367 850.48H433.277H431.977V851.863L442.647 852.035V850.652H441.337C440.497 850.714 439.677 850.411 439.077 849.822C438.847 849.555 438.587 848.792 438.617 846.673L438.887 829.671L457.097 852.655L457.177 852.76H458.377L458.777 828.049C458.777 826.14 459.047 825.387 459.247 825.11C459.817 824.4 460.717 824.038 461.627 824.156H462.947V822.783L452.277 822.601L452.237 824.004Z" fill="#007471"/>
    <path d="M494.149 849.005C493.209 849.054 492.299 848.795 491.519 848.27C490.509 847.261 489.719 846.066 489.169 844.749L477.449 821.164L476.319 821.231L467.579 845.846C467.149 847.367 466.439 848.793 465.489 850.054C464.869 850.536 464.139 850.845 463.349 850.951L463.109 851.008L463.189 852.334L472.879 851.724L472.799 850.369H472.519C471.629 850.453 470.749 850.304 469.939 849.94C469.609 849.753 469.389 849.419 469.349 849.043C469.389 848.203 469.569 847.376 469.909 846.601L471.519 842.097L482.319 841.41L484.229 845.284C484.719 846.151 485.069 847.096 485.239 848.08C485.239 848.447 485.079 848.797 484.799 849.034C484.169 849.452 483.429 849.676 482.669 849.673H482.389L482.469 851.037L494.469 850.283L494.379 848.919L494.149 849.005ZM472.329 839.875L476.239 828.95L481.369 839.302L472.329 839.875Z" fill="#007471"/>
    <path d="M518.357 838.527C518.037 839.979 517.487 841.37 516.737 842.65C516.207 843.464 515.497 844.139 514.647 844.615C513.217 845.198 511.707 845.564 510.167 845.702L508.077 845.988C507.027 846.203 505.937 846.288 504.857 846.238C504.577 846.176 504.337 846.022 504.147 845.798C503.787 845.105 503.587 844.344 503.537 843.565L501.067 825.533C500.837 824.499 500.797 823.433 500.947 822.384C501.137 821.911 501.467 821.51 501.897 821.24C502.847 820.77 503.867 820.495 504.917 820.429H505.217L505.027 819.055L491.457 820.963L491.637 822.327L493.007 822.136C493.827 821.958 494.687 822.15 495.357 822.661C495.637 822.9 496.027 823.615 496.307 825.762L498.847 844.281C499.127 846.238 499.007 847.001 498.847 847.306C498.407 848.125 497.557 848.648 496.637 848.68L495.257 848.87L495.447 850.244L517.957 847.153H518.177L519.657 838.489L518.367 838.394L518.357 838.527Z" fill="#007471"/>
    <path d="M557.699 837.245C556.779 837.455 555.819 837.351 554.969 836.949C553.829 836.114 552.849 835.065 552.109 833.858L536.779 812.477L535.669 812.725L531.049 838.437C530.869 840.004 530.399 841.524 529.659 842.922C529.129 843.5 528.449 843.924 527.699 844.152L527.469 844.248L527.769 845.545L537.229 843.37L536.919 842.044L536.659 842.092C535.789 842.315 534.889 842.315 534.019 842.092C533.669 841.955 533.409 841.662 533.309 841.3C533.209 840.463 533.259 839.617 533.459 838.8L534.319 834.097L544.809 831.672L547.339 835.184C547.969 835.962 548.459 836.838 548.789 837.779C548.869 838.151 548.769 838.54 548.519 838.828C547.959 839.332 547.259 839.663 546.519 839.782L546.249 839.859L546.559 841.195L558.009 838.571L558.289 838.504L557.999 837.168L557.699 837.245ZM534.689 831.787L536.779 820.338L543.519 829.726L534.689 831.787Z" fill="#007471"/>
    <path d="M606.686 796.791C604.656 795.212 602.176 794.32 599.616 794.242C597.136 794.242 593.816 794.987 589.786 796.628L579.106 800.988L569.876 803.918L569.606 804.004L570.016 805.32L571.256 804.929C572.026 804.602 572.916 804.627 573.666 804.996C573.976 805.177 574.476 805.816 575.116 807.858L579.886 822.989L556.986 808.001L549.086 810.51L549.506 811.827L549.786 811.732C550.356 811.53 550.946 811.408 551.546 811.369C552.216 811.35 552.886 811.43 553.536 811.608C554.326 811.925 555.086 812.325 555.786 812.8L561.836 831.881C562.416 833.724 562.426 834.496 562.336 834.821C561.996 835.672 561.256 836.296 560.356 836.48L559.116 836.872L559.526 838.188L569.416 835.05L569.706 834.964L569.286 833.647L568.026 834.048C567.256 834.366 566.376 834.339 565.626 833.972C565.316 833.79 564.836 833.151 564.196 831.109L559.056 814.889L583.606 830.908L583.716 830.985L584.876 830.622L577.416 807.066C576.836 805.215 576.826 804.452 576.926 804.128C577.256 803.278 577.996 802.655 578.886 802.476L579.056 802.419L579.506 802.238L580.126 802.037L580.356 801.942C581.106 801.561 581.996 801.534 582.766 801.866C583.096 802.028 583.646 802.648 584.456 804.633L591.526 821.959C592.256 823.772 592.336 824.554 592.266 824.897C592.046 825.792 591.366 826.499 590.476 826.749L589.196 827.274L589.716 828.552L601.966 823.552C607.236 821.406 610.626 818.344 612.056 814.441C613.326 810.871 613.166 806.951 611.636 803.488C610.626 800.847 608.916 798.532 606.686 796.791ZM607.246 815.519C606.176 818.36 603.946 820.605 601.116 821.683C599.776 822.191 598.386 822.561 596.976 822.789L587.856 800.416C588.956 799.592 590.146 798.901 591.416 798.355C594.236 797.095 597.446 797.095 600.266 798.355C603.066 799.633 605.236 802.114 606.716 805.73C608.186 809.346 608.356 812.628 607.246 815.519Z" fill="#007471"/>
    <path d="M668.028 780.391V780.563C668.198 782.154 668.128 783.761 667.828 785.333C667.648 786.121 667.288 786.857 666.778 787.48C665.948 788.301 665.008 789.01 663.988 789.588L659.808 792.164C659.408 792.464 658.938 792.67 658.448 792.765C658.218 792.771 657.998 792.7 657.818 792.565C657.298 792.024 656.868 791.414 656.518 790.752L651.668 782.881L656.828 779.694C657.538 779.191 658.358 778.846 659.218 778.682C659.748 778.621 660.268 778.725 660.728 778.978C661.438 779.529 662.078 780.172 662.638 780.887L662.798 781.078L663.938 780.372L658.328 771.288L657.168 772.013L657.308 772.252C657.978 773.242 658.248 774.452 658.048 775.63C657.858 776.269 657.088 777.003 655.748 777.833L650.588 781.021L644.858 771.775L651.368 767.758C652.178 767.209 653.068 766.782 653.998 766.49C654.648 766.37 655.318 766.454 655.908 766.728C656.818 767.289 657.638 767.995 658.318 768.817L658.478 768.989L659.658 768.264L655.718 762.539L636.488 774.409L636.338 774.504L615.168 785.666L614.918 785.79L618.038 792.469L619.278 791.82L619.158 791.563C618.708 790.618 618.498 789.569 618.558 788.52C618.618 787.744 618.938 787.008 619.438 786.42C620.138 785.793 620.918 785.272 621.768 784.875L624.628 783.386L634.818 802.698C635.718 804.415 635.858 805.168 635.768 805.502C635.598 806.397 634.988 807.142 634.138 807.477L632.968 808.088L633.618 809.31L644.738 803.442L644.998 803.308L644.358 802.087L643.198 802.698C642.498 803.151 641.628 803.28 640.818 803.051C640.498 802.927 639.868 802.383 638.908 800.512L628.728 781.192L632.078 779.426C632.888 778.954 633.808 778.683 634.748 778.635C635.558 778.651 636.348 778.909 636.998 779.379C637.658 779.924 638.218 780.568 638.678 781.288L638.838 781.507L640.058 780.858L637.008 775.696L638.058 775.038C638.738 774.521 639.608 774.31 640.448 774.456C640.768 774.552 641.398 775.067 642.548 776.927L652.418 792.937C652.928 793.685 653.348 794.501 653.648 795.361C653.728 795.757 653.648 796.168 653.428 796.505C653.118 797.054 652.668 797.517 652.128 797.851L651.008 798.537L651.728 799.711L670.968 787.842L671.158 787.728L669.328 779.627L668.028 780.391Z" fill="#007471"/>
    <path d="M692.647 763.718L691.297 763.785V764.062C691.417 766.29 691.057 768.518 690.277 770.607C689.547 772.139 688.427 773.454 687.037 774.423C685.457 775.601 683.567 776.314 681.597 776.483C679.667 776.63 677.757 776.163 676.117 775.148C674.167 773.935 672.497 772.33 671.197 770.435C669.577 768.303 668.377 765.876 667.677 763.289C666.577 759.589 668.007 755.604 671.197 753.442C672.837 752.193 674.867 751.555 676.927 751.639C678.937 751.725 681.157 752.698 683.537 754.501L683.717 754.634L684.667 753.929L677.997 745.867L676.967 746.601L677.067 746.821C677.297 747.317 677.397 747.867 677.347 748.415C677.287 748.707 677.127 748.966 676.887 749.14C676.517 749.324 676.107 749.432 675.697 749.455C673.507 749.773 671.437 750.603 669.637 751.878C667.457 753.417 665.747 755.518 664.667 757.955C663.577 760.423 663.197 763.147 663.577 765.817C663.967 768.615 665.037 771.275 666.707 773.555C668.647 776.372 671.457 778.474 674.707 779.537C676.047 779.975 677.447 780.2 678.847 780.205C681.847 780.158 684.757 779.155 687.137 777.343C689.187 775.943 690.797 774 691.797 771.733C692.717 769.274 693.007 766.622 692.637 764.024L692.647 763.718Z" fill="#007471"/>
    <path d="M752.059 715.606C751.639 716.071 751.109 716.42 750.509 716.617C750.159 716.757 749.779 716.777 749.419 716.674C748.589 716.232 747.829 715.666 747.169 714.995L733.279 702.458C731.739 701.075 731.369 700.369 731.279 700.026C731.189 699.14 731.509 698.26 732.169 697.659L733.068 696.657L732.039 695.703L723.339 705.358L723.519 705.522L716.339 712.609L717.299 713.564L718.249 712.609C718.769 712.006 719.509 711.632 720.299 711.57H720.438C720.788 711.57 721.519 711.932 723.009 713.479L734.159 724.774L707.129 721.855H706.989L702.429 726.368L692.779 734.497L693.669 735.556L694.679 734.698C695.169 734.295 695.739 734.023 696.359 733.905C696.719 733.809 697.098 733.842 697.448 734C698.218 734.556 698.898 735.224 699.458 735.986L704.599 742.101L694.759 750.421L689.609 744.305C688.979 743.641 688.439 742.885 688.029 742.063C687.879 741.687 687.879 741.266 688.029 740.889C688.259 740.305 688.639 739.787 689.119 739.382L690.149 738.514L689.259 737.455L679.309 745.831L680.208 746.89L681.159 746.041C681.649 745.629 682.229 745.35 682.859 745.23C683.219 745.147 683.599 745.185 683.929 745.335C684.699 745.889 685.378 746.561 685.938 747.329L697.979 761.641C699.319 763.235 699.609 763.969 699.639 764.313C699.609 765.21 699.149 766.04 698.419 766.554L697.409 767.404L698.299 768.462L708.249 760.086L707.349 759.027L706.328 759.895C705.838 760.297 705.269 760.569 704.649 760.687C704.289 760.78 703.909 760.75 703.559 760.601C702.809 760.045 702.128 759.379 701.568 758.626L696.068 752.1L705.919 743.809L711.399 750.335C712.739 751.919 713.029 752.663 713.049 753.016C713.029 753.908 712.589 754.736 711.849 755.239L710.839 756.098L711.729 757.147L721.659 748.79L720.769 747.73L719.759 748.589C719.269 748.994 718.679 749.27 718.059 749.391C717.699 749.474 717.329 749.437 716.989 749.286C716.239 748.728 715.559 748.062 714.999 747.31L702.958 732.999C702.318 732.336 701.789 731.58 701.379 730.757C701.209 730.383 701.209 729.957 701.379 729.583C701.509 729.243 701.679 728.921 701.899 728.629L702.109 728.42C702.519 727.983 702.989 727.601 703.499 727.284C704.109 726.96 704.739 726.727 705.409 726.597C706.259 726.511 707.108 726.511 707.958 726.597L722.039 740.851C723.399 742.225 723.759 742.903 723.809 743.237C723.909 744.148 723.529 745.044 722.809 745.612L721.859 746.566L722.809 747.52L730.399 740.021L729.438 739.067L728.489 740.021C727.939 740.658 727.149 741.034 726.309 741.052C725.959 741.052 725.239 740.679 723.749 739.143L711.789 727.046L740.948 730.118H741.078L741.938 729.269L724.578 711.694C723.208 710.32 722.859 709.633 722.799 709.299C722.699 708.402 723.049 707.512 723.759 706.943L724.708 705.989L724.519 705.789L725.049 705.196C725.479 704.731 726.019 704.377 726.619 704.166C726.969 704.048 727.338 704.048 727.698 704.166C728.528 704.606 729.288 705.172 729.948 705.846L743.839 718.382C745.379 719.766 745.749 720.463 745.839 720.796C745.949 721.687 745.608 722.575 744.948 723.181L744.068 724.135L745.099 725.089L753.799 715.434L752.779 714.48L752.059 715.606Z" fill="#007471"/>
    <path d="M766.628 688.82L765.348 689.249L765.418 689.517C766.108 691.632 766.368 693.871 766.158 696.09C765.858 697.747 765.118 699.297 764.028 700.585C762.808 702.141 761.188 703.33 759.338 704.019C757.518 704.67 755.538 704.727 753.688 704.181C751.498 703.521 749.458 702.417 747.708 700.937C745.578 699.311 743.788 697.289 742.428 694.984C741.418 693.294 740.978 691.332 741.138 689.373C741.348 687.599 742.068 685.924 743.208 684.545C744.468 682.911 746.248 681.762 748.248 681.292C750.218 680.844 752.628 681.197 755.408 682.332L755.608 682.418L756.358 681.464L747.778 675.453L746.988 676.407L747.128 676.588C747.478 677.003 747.718 677.508 747.818 678.048C747.838 678.347 747.758 678.646 747.568 678.879C747.248 679.153 746.888 679.363 746.498 679.499C744.488 680.38 742.698 681.727 741.308 683.429C739.618 685.495 738.518 687.977 738.118 690.614C737.728 693.28 738.088 696.003 739.148 698.475C740.258 701.075 742.008 703.354 744.218 705.106C746.828 707.313 750.108 708.597 753.518 708.761H754.158C758.398 708.751 762.398 706.731 764.918 703.313C766.528 701.413 767.568 699.098 767.928 696.634C768.158 694.028 767.738 691.404 766.698 689.001L766.628 688.82Z" fill="#007471"/>
    <path d="M789.659 665.817C789.129 666.57 788.369 667.129 787.489 667.41C786.079 667.584 784.639 667.473 783.269 667.086L757.509 661.695L756.859 662.649L770.829 684.728C771.759 686.002 772.439 687.438 772.849 688.963C772.849 689.771 772.639 690.566 772.229 691.262L772.119 691.482L773.219 692.236L778.719 684.24L777.609 683.467L777.439 683.677C776.399 684.985 775.809 685.367 775.529 685.462C775.179 685.597 774.779 685.559 774.459 685.357C773.819 684.821 773.299 684.173 772.889 683.448L770.339 679.404L776.469 670.483L780.699 671.361C781.699 671.506 782.669 671.829 783.559 672.315C783.879 672.533 784.069 672.887 784.079 673.269C784.019 674.026 783.729 674.749 783.269 675.348L783.119 675.587L784.249 676.359L791.059 666.466L789.929 665.693L789.659 665.817ZM768.989 677.333L762.819 667.515L774.139 669.871L768.989 677.333Z" fill="#007471"/>
    <path d="M796.197 640.124L796.347 640.315C797.297 641.458 798.047 642.748 798.587 644.131C798.907 645.048 799.007 646.033 798.837 646.993C798.417 648.478 797.777 649.892 796.937 651.182L795.867 653.014C795.377 653.976 794.777 654.876 794.067 655.695C793.847 655.875 793.587 655.975 793.297 655.981C792.527 655.842 791.787 655.535 791.147 655.084L775.437 645.896C774.487 645.441 773.617 644.815 772.897 644.046C772.637 643.597 772.537 643.078 772.607 642.567C772.817 641.54 773.227 640.566 773.827 639.704L773.977 639.456L772.787 638.75L766.027 650.333L765.867 650.581L767.067 651.278L767.757 650.085C768.137 649.319 768.837 648.763 769.667 648.567C770.017 648.482 770.837 648.634 772.697 649.722L788.837 659.158C790.537 660.112 791.077 660.723 791.217 661.019C791.587 661.872 791.487 662.862 790.937 663.613L790.237 664.807L791.427 665.503L803.007 645.706L797.117 639.199L796.197 640.124Z" fill="#007471"/>
    <path d="M814.259 606.886L814.099 606.657L812.949 607.383L813.099 607.621C814.279 609.511 815.059 611.625 815.389 613.832C815.499 615.51 815.169 617.185 814.439 618.698C813.639 620.506 812.339 622.053 810.699 623.163C809.089 624.225 807.189 624.756 805.259 624.68C802.969 624.566 800.729 623.985 798.669 622.973C796.219 621.907 793.989 620.374 792.119 618.459C790.729 617.06 789.829 615.266 789.509 613.326C789.289 611.554 789.589 609.756 790.359 608.146C791.189 606.254 792.639 604.708 794.479 603.766C796.749 602.806 799.26 602.56 801.68 603.06H801.899L802.399 601.973L792.639 598.156L792.109 599.291L792.3 599.434C792.75 599.757 793.099 600.191 793.319 600.695C793.429 600.969 793.429 601.278 793.319 601.553C793.089 601.897 792.799 602.19 792.439 602.412C790.699 603.752 789.279 605.488 788.339 607.478C787.199 609.891 786.729 612.567 786.979 615.225C787.219 617.902 788.219 620.457 789.839 622.601C791.539 624.858 793.779 626.652 796.349 627.819C798.509 628.861 800.879 629.412 803.269 629.432C804.269 629.435 805.269 629.332 806.259 629.127C810.669 628.229 813.949 625.539 816.009 621.121C817.119 618.902 817.579 616.415 817.329 613.946C816.909 611.373 815.859 608.945 814.259 606.886Z" fill="#007471"/>
    <path d="M817.869 574.87C814.119 573.349 809.909 573.39 806.189 574.984C802.659 576.396 799.879 579.233 798.559 582.798C797.199 586.239 797.249 590.072 798.669 593.484C800.309 597.5 803.609 600.606 807.719 602.005C809.729 602.783 811.849 603.193 813.989 603.216C815.959 603.228 817.909 602.833 819.719 602.052C823.289 600.56 826.059 597.624 827.349 593.97C828.759 590.328 828.559 586.258 826.799 582.77C824.989 579.06 821.779 576.221 817.869 574.87ZM825.379 593.274C824.639 595.456 822.889 597.15 820.689 597.835C817.669 598.789 813.939 598.474 809.599 596.881C805.259 595.288 802.459 593.169 800.939 590.574C799.749 588.572 799.569 586.127 800.459 583.972C801.199 581.673 802.979 579.861 805.269 579.086C806.379 578.743 807.519 578.576 808.679 578.59C811.359 578.675 813.999 579.234 816.479 580.242C820.679 581.816 823.469 583.8 824.799 586.137C826.089 588.302 826.309 590.939 825.379 593.283V593.274Z" fill="#007471"/>
    <path d="M831.058 552.21L831.248 552.363C832.438 553.25 833.478 554.318 834.338 555.53C834.878 556.339 835.208 557.272 835.288 558.24C835.258 559.782 834.968 561.307 834.458 562.762L833.868 564.795C833.628 565.849 833.258 566.871 832.788 567.838C832.608 568.066 832.378 568.227 832.098 568.296C831.318 568.339 830.538 568.222 829.808 567.953L812.288 562.838C811.248 562.627 810.258 562.227 809.378 561.655C809.008 561.282 808.788 560.799 808.738 560.282C808.688 559.229 808.848 558.178 809.218 557.191L809.308 556.905L807.978 556.522L804.168 569.67L805.498 570.061L805.878 568.735C806.058 567.919 806.588 567.222 807.318 566.827C807.658 566.665 808.478 566.607 810.548 567.218L828.478 572.475C830.388 573.029 831.028 573.429 831.238 573.696C831.808 574.433 831.948 575.419 831.588 576.282L831.198 577.608L832.528 577.999L838.978 555.978L831.678 551.094L831.058 552.21Z" fill="#007471"/>
    <path d="M836.83 526.525L837.03 526.669C838.28 527.47 839.4 528.465 840.33 529.616C840.92 530.39 841.3 531.298 841.45 532.26C841.51 533.801 841.33 535.343 840.92 536.829L840.47 538.89C840.31 539.961 840.02 541.007 839.59 542.001C839.44 542.244 839.21 542.424 838.94 542.506C838.17 542.615 837.37 542.55 836.63 542.316L818.86 538.403C817.81 538.27 816.8 537.946 815.86 537.449C815.48 537.1 815.22 536.634 815.14 536.123C815.01 535.076 815.11 534.014 815.41 533.004L815.48 532.718L814.13 532.422L811.18 545.778L812.53 546.074L812.83 544.72C812.94 543.886 813.42 543.146 814.14 542.697C814.45 542.525 815.27 542.411 817.37 542.878L835.62 546.896C837.53 547.325 838.23 547.697 838.48 547.935C839.1 548.632 839.3 549.608 839.01 550.492L838.71 551.837L840.05 552.142L845 529.731L837.36 525.352L836.83 526.525Z" fill="#007471"/>
    <path d="M841.588 500.888L841.738 500.992C843.048 501.888 844.218 502.972 845.228 504.208C845.708 504.846 846.038 505.592 846.178 506.383C846.268 507.55 846.208 508.725 845.988 509.875L845.248 514.731C845.228 515.234 845.078 515.725 844.828 516.162C844.688 516.357 844.488 516.495 844.248 516.554C843.508 516.597 842.748 516.536 842.028 516.372L832.878 514.999L833.828 508.988C833.908 508.119 834.178 507.276 834.608 506.517C834.878 506.074 835.298 505.738 835.798 505.563C836.688 505.399 837.578 505.338 838.478 505.382H838.738L838.928 504.046L828.668 502.509H828.378L828.178 503.865L828.448 503.922C829.648 504.038 830.738 504.617 831.508 505.534C831.868 506.088 831.938 507.156 831.708 508.711L830.748 514.712L820.018 513.1L821.158 505.534C821.248 504.549 821.498 503.584 821.878 502.671C822.208 502.11 822.688 501.66 823.268 501.384C824.298 501.053 825.348 500.888 826.418 500.897H826.658L826.868 499.523L819.958 498.836L816.598 521.191V521.487L817.958 521.687L818.158 520.38C818.198 519.527 818.588 518.73 819.248 518.186C819.478 518.033 820.198 517.833 822.478 518.186L841.088 520.981C841.998 521.061 842.888 521.27 843.728 521.601C844.088 521.804 844.358 522.15 844.458 522.555C844.678 523.146 844.738 523.784 844.638 524.407L844.448 525.714L845.818 525.914L849.178 503.55V503.34L841.818 499.523L841.588 500.888Z" fill="#007471"/>
    <path d="M849.958 471.883L849.878 471.721L840.868 471.034C839.848 471.036 838.858 470.828 837.938 470.423C837.288 469.942 836.968 469.129 837.128 468.334L837.188 467.503L835.788 467.398L834.898 479.163L836.298 479.277V478.982C836.298 478.195 836.468 477.418 836.788 476.702C836.998 476.325 837.348 476.032 837.748 475.872C838.638 475.669 839.578 475.637 840.478 475.776L848.658 476.396C849.058 477.275 849.358 478.196 849.538 479.144C849.728 480.143 849.778 481.163 849.698 482.178C849.548 484.006 848.888 485.754 847.788 487.225C846.468 488.944 844.668 490.233 842.618 490.927C840.218 491.817 837.638 492.162 835.078 491.938C832.038 491.783 829.098 490.734 826.648 488.923C824.018 486.948 822.638 483.719 823.038 480.451C823.118 478.075 824.148 475.832 825.898 474.22C827.408 472.993 829.208 472.149 831.128 471.759L831.338 471.702L831.428 470.423L821.658 470.481L821.568 471.816L821.828 471.864C822.278 471.871 822.728 472.003 823.108 472.246C823.258 472.359 823.338 472.537 823.328 472.723C823.228 473.236 823.048 473.731 822.798 474.192C822.228 475.36 821.758 476.565 821.368 477.799C821.118 478.735 820.958 479.693 820.888 480.66C820.618 483.331 821.078 486.022 822.208 488.455C824.808 493.555 829.858 496.956 835.558 497.453C835.988 497.453 836.398 497.501 836.808 497.501C839.838 497.516 842.808 496.59 845.288 494.848C849.108 492.177 851.318 487.969 851.748 482.321C852.088 478.724 851.458 475.101 849.938 471.826L849.958 471.883Z" fill="#007471"/>
    <path d="M844.458 443.204L844.608 443.29C846.038 444.002 847.338 444.918 848.498 446.009C849.068 446.576 849.488 447.273 849.738 448.04C849.988 449.183 850.068 450.356 849.998 451.523L849.928 456.436C849.968 456.94 849.888 457.448 849.698 457.916C849.578 458.123 849.388 458.285 849.168 458.374C848.438 458.527 847.688 458.566 846.938 458.488L837.688 458.336L837.788 452.268C837.758 451.397 837.908 450.528 838.228 449.719C838.448 449.24 838.818 448.847 839.288 448.603C840.138 448.316 841.028 448.14 841.918 448.079H842.168V446.734L831.508 446.562V447.926H831.778C832.978 447.882 834.138 448.31 835.018 449.118C835.458 449.624 835.668 450.674 835.648 452.248L835.538 458.317L824.688 458.135L824.808 450.503C824.778 449.536 824.898 448.571 825.148 447.64C825.398 447.044 825.818 446.535 826.368 446.18C827.328 445.722 828.368 445.42 829.428 445.284L829.658 445.236V443.853L822.718 444.091L822.348 466.693V466.98H823.718V465.663C823.638 464.811 823.918 463.964 824.508 463.335C824.718 463.153 825.398 462.858 827.718 462.896L846.528 463.201C847.438 463.157 848.338 463.251 849.218 463.478C849.598 463.615 849.918 463.905 850.078 464.28C850.368 464.841 850.518 465.463 850.508 466.092V467.418H851.888L852.258 444.807V444.597L844.438 441.734L844.458 443.204Z" fill="#007471"/>
    <path d="M437.049 682.807C438.089 682.772 439.109 682.565 440.089 682.196C441.209 681.814 442.259 681.229 443.179 680.469C443.469 678.552 443.639 676.617 443.679 674.678C443.639 672.697 443.319 670.73 442.729 668.839C442.269 667.056 441.369 665.415 440.119 664.069C439.119 663.012 437.749 662.407 436.299 662.398C434.579 662.424 432.979 663.246 431.949 664.622C430.709 666.11 430.039 668.324 430.039 671.301C430.039 675.219 430.869 678.285 432.519 680.498C433.549 681.973 435.249 682.838 437.049 682.807Z" fill="#007471"/>
    <path d="M453.507 752.531C618.647 752.531 752.527 618.643 752.527 453.47C752.527 288.296 618.637 154.398 453.507 154.398C288.375 154.398 154.477 288.296 154.477 453.47C154.477 618.643 288.356 752.531 453.507 752.531ZM415.927 699.102H401.717V698.072C402.887 698.13 404.057 697.975 405.167 697.614C405.647 697.392 406.037 697.005 406.257 696.526C406.547 695.186 406.657 693.812 406.557 692.443V672.053C406.617 670.284 406.537 668.511 406.287 666.758C406.207 666.255 405.957 665.794 405.577 665.451C405.227 665.17 404.787 665.021 404.337 665.031C403.337 665.121 402.367 665.413 401.477 665.89L401.057 665.031L410.257 660.547H411.207V692.452C411.137 693.778 411.227 695.107 411.477 696.411C411.667 696.942 412.057 697.373 412.567 697.604C413.667 697.975 414.827 698.136 415.977 698.082L415.927 699.102ZM472.997 699.102H458.777V698.072C459.957 698.13 461.117 697.975 462.237 697.614C462.707 697.392 463.107 697.005 463.327 696.526C463.617 695.186 463.727 693.812 463.627 692.443V672.053C463.697 670.284 463.597 668.511 463.347 666.758C463.277 666.253 463.027 665.792 462.647 665.451C462.287 665.17 461.857 665.021 461.407 665.031C460.407 665.121 459.427 665.413 458.547 665.89L458.127 665.031L467.317 660.547H468.277V692.452C468.207 693.777 468.297 695.105 468.527 696.411C468.717 696.943 469.127 697.373 469.637 697.604C470.727 697.976 471.877 698.138 473.037 698.082L472.997 699.102ZM505.957 662.37L493.367 699.856H490.247L501.527 665.833H491.127C489.597 665.727 488.057 665.982 486.647 666.577C485.027 667.495 483.717 668.874 482.887 670.537L482.077 670.231L485.707 661.281H505.957V662.37ZM562.877 256.487H582.057C592.657 256.487 601.247 265.076 601.257 275.674C601.257 440.466 644.447 569.889 661.357 614.273H620.337C600.057 558.106 562.887 433.635 562.887 275.674L562.877 256.487ZM483.977 265.933C483.977 260.715 488.197 256.487 493.417 256.487H529.837C540.417 256.504 549.007 265.099 548.997 275.693V294.88H483.947L483.977 265.933ZM483.977 492.407C483.977 487.189 488.197 482.961 493.417 482.961H527.877C525.527 469.804 523.327 456.123 521.367 441.887H483.977V412.969C483.977 407.752 488.197 403.523 493.417 403.523H516.787C515.427 389.898 514.307 375.904 513.447 361.542H483.977V332.595C483.977 327.379 488.197 323.15 493.417 323.15H531.697C542.017 323.136 550.507 331.286 550.907 341.602C553.207 394.287 559.647 446.711 570.147 498.389C572.247 508.765 565.527 518.878 555.157 520.974C553.897 521.228 552.627 521.355 551.347 521.354H484.027L483.977 492.407ZM434.317 216.672H453.507C464.107 216.678 472.687 225.272 472.677 235.869C472.677 235.879 472.677 235.888 472.677 235.898V559.813C472.677 568.771 479.937 576.034 488.897 576.034H522.967C533.567 576.034 542.147 584.624 542.147 595.22C542.147 595.223 542.147 595.227 542.147 595.229V614.426H488.897C458.747 614.426 434.297 589.975 434.297 559.813L434.317 216.672ZM427.987 665.213C429.977 662.23 433.347 660.459 436.937 660.509C440.037 660.501 442.977 661.906 444.907 664.325C447.657 667.613 449.107 671.796 448.977 676.08C448.997 680.201 447.927 684.256 445.887 687.834C443.797 691.496 440.847 694.597 437.297 696.869C434.407 698.813 430.997 699.844 427.517 699.827H425.937V698.902C428.287 698.88 430.597 698.302 432.677 697.213C435.117 695.799 437.177 693.839 438.717 691.489C440.647 688.801 442.017 685.76 442.777 682.538C439.857 684.447 437.217 685.385 434.857 685.354C432.237 685.373 429.747 684.251 428.027 682.281C426.047 680.023 425.027 677.091 425.167 674.095C425.117 670.918 426.107 667.813 427.987 665.251V665.213ZM357.987 275.654C357.977 265.059 366.557 256.464 377.157 256.459H377.167H413.587C418.797 256.459 423.027 260.686 423.037 265.904V294.842H357.987V275.654ZM375.307 323.112H413.587C418.797 323.112 423.027 327.34 423.037 332.557V361.533H393.567C392.707 375.895 391.597 389.888 390.207 403.513H413.587C418.797 403.513 423.027 407.741 423.037 412.959V441.887H385.637C383.677 456.123 381.497 469.814 379.127 482.961H413.587C418.797 482.961 423.027 487.189 423.037 492.407V521.344H355.717C345.127 521.36 336.537 512.79 336.517 502.203C336.517 500.919 336.647 499.638 336.907 498.38C347.417 446.702 353.847 394.279 356.147 341.593C356.557 331.299 365.007 323.162 375.307 323.15V323.112ZM305.737 275.683C305.737 265.087 314.323 256.497 324.917 256.497H344.117V275.683C344.117 433.644 306.91 558.096 286.667 614.283H245.637C262.551 569.899 305.737 440.475 305.737 275.683Z" fill="#007471"/>
    </svg>
    