<svg width="211" height="211" viewBox="0 0 211 211" fill="none" xmlns="http://www.w3.org/2000/svg">
<path d="M105.619 0C47.6196 0 0.601562 47.018 0.601562 105.018C0.601562 163.017 47.6196 210.035 105.619 210.035C163.619 210.035 210.637 163.017 210.637 105.018C210.637 47.018 163.619 0 105.619 0ZM105.619 204.376C50.7451 204.376 6.26086 159.892 6.26086 105.018C6.26086 50.1435 50.7451 5.6593 105.619 5.6593C160.493 5.6593 204.977 50.1435 204.977 105.018C204.977 159.892 160.493 204.376 105.619 204.376Z" fill="#9C9C9C"/>
<path d="M25.9305 105.017C25.9305 84.1401 34.0013 65.1126 47.1859 50.8896L38.8964 42.6001C31.5102 50.4847 25.6424 59.5039 21.4349 69.4517C16.669 80.7196 14.2524 92.6856 14.2524 105.017C14.2524 105.653 14.2604 106.288 14.2733 106.922H25.9537C25.9388 106.289 25.9305 105.654 25.9305 105.017Z" fill="#9C9C9C"/>
<path d="M189.803 69.4517C185.595 59.504 179.727 50.4848 172.341 42.6001L164.052 50.8896C177.236 65.1126 185.307 84.14 185.307 105.017C185.307 105.654 185.299 106.289 185.284 106.922H196.964C196.977 106.288 196.985 105.653 196.985 105.017C196.985 92.6857 194.569 80.7197 189.803 69.4517Z" fill="#9C9C9C"/>
<path d="M161.189 162.08L169.474 170.365C169.726 170.119 169.976 169.872 170.225 169.623C178.614 161.235 185.201 151.464 189.803 140.583C194.066 130.505 196.448 119.868 196.903 108.911H185.213C184.207 129.71 175.191 148.442 161.189 162.08Z" fill="#9C9C9C"/>
<path d="M26.0256 108.911H14.335C14.7908 119.868 17.1723 130.505 21.4351 140.583C26.0372 151.464 32.6242 161.235 41.0133 169.623C41.2622 169.872 41.5126 170.12 41.764 170.365L50.0489 162.08C36.0475 148.442 27.0311 129.71 26.0256 108.911Z" fill="#9C9C9C"/>
<path d="M106.613 184.7V196.378C118.594 196.251 130.22 193.839 141.185 189.202C151.132 184.994 160.151 179.126 168.036 171.74L159.747 163.451C145.75 176.426 127.1 184.448 106.613 184.7Z" fill="#9C9C9C"/>
<path d="M43.2017 171.74C51.0863 179.126 60.1055 184.994 70.0532 189.202C81.0179 193.839 92.6439 196.251 104.624 196.378V184.7C84.1376 184.448 65.4879 176.426 51.4911 163.451L43.2017 171.74Z" fill="#9C9C9C"/>
<path d="M95.2387 61.2268C89.4726 63.1463 84.4107 66.6193 80.5503 71.1473C83.0505 69.7552 85.7024 68.5805 88.4724 67.6389C90.4851 64.9587 92.7696 62.8062 95.2387 61.2268Z" fill="#225E9A"/>
<path d="M115.151 68.9685C114.859 68.2852 114.555 67.6379 114.244 67.0246C112.662 66.763 111.049 66.5717 109.41 66.4553C109.525 67.125 109.636 67.8319 109.743 68.5777C109.914 69.7788 110.071 71.0561 110.213 72.395C112.425 72.5788 114.601 72.8953 116.729 73.3392C116.262 71.7949 115.736 70.3317 115.151 68.9685Z" fill="#225E9A"/>
<path d="M105.618 73.6636C104.52 73.6636 103.432 73.6983 102.354 73.7641C102.123 76.1631 101.938 78.7497 101.804 81.4664C103.066 81.3796 104.337 81.3331 105.618 81.3331C106.899 81.3331 108.172 81.3797 109.434 81.4666C109.3 78.7498 109.115 76.1633 108.884 73.7642C107.806 73.6984 106.717 73.6636 105.618 73.6636Z" fill="#225E9A"/>
<path d="M96.9943 67.0242C96.6825 67.6376 96.3794 68.285 96.0865 68.9684C95.5023 70.3315 94.9765 71.7946 94.5093 73.3387C96.6372 72.8949 98.8136 72.5786 101.025 72.3948C101.167 71.0559 101.324 69.7787 101.495 68.5777C101.602 67.8319 101.713 67.1249 101.828 66.4551C100.189 66.5714 98.5762 66.7627 96.9943 67.0242Z" fill="#225E9A"/>
<path d="M82.688 86.4995C85.3211 85.2067 88.1037 84.1477 90.9955 83.3304C91.3292 80.5304 91.8151 77.846 92.4456 75.3335C89.7214 76.0439 87.1131 76.9672 84.6522 78.0816C83.7429 80.7114 83.0748 83.5367 82.688 86.4995Z" fill="#225E9A"/>
<path d="M92.5128 82.9249C95.0509 82.2906 97.667 81.8424 100.336 81.5866C100.468 78.871 100.649 76.2828 100.877 73.8755C98.543 74.0835 96.2642 74.443 94.0558 74.942C93.3907 77.436 92.8712 80.1148 92.5128 82.9249Z" fill="#225E9A"/>
<path d="M110.361 73.8755C110.589 76.2827 110.77 78.871 110.902 81.5866C113.571 81.8425 116.188 82.2909 118.726 82.9252C118.367 80.1152 117.848 77.4363 117.183 74.9423C114.974 74.4431 112.695 74.0836 110.361 73.8755Z" fill="#225E9A"/>
<path d="M130.12 87.3111C132.643 88.6704 135.018 90.248 137.205 92.0354C137.663 92.4104 138.111 92.7925 138.547 93.1808C138.551 92.9503 138.557 92.72 138.557 92.4883C138.557 90.0356 138.286 87.6455 137.775 85.3444C135.045 82.8772 131.895 80.7247 128.417 78.9624C129.235 81.6199 129.808 84.4206 130.12 87.3111Z" fill="#225E9A"/>
<path d="M73.4632 85.3424C72.952 87.6442 72.6802 90.035 72.6802 92.4884C72.6802 92.7195 72.6861 92.9493 72.6909 93.1793C73.1264 92.7915 73.5727 92.41 74.0309 92.0355C76.2185 90.2475 78.5936 88.6697 81.1176 87.3101C81.4296 84.4195 82.0032 81.6189 82.8204 78.9614C79.3424 80.7234 76.1925 82.8755 73.4632 85.3424Z" fill="#225E9A"/>
<path d="M118.793 75.3342C119.423 77.8467 119.909 80.5311 120.243 83.3311C123.135 84.1485 125.917 85.2077 128.55 86.5006C128.164 83.5377 127.495 80.7124 126.586 78.0825C124.125 76.9681 121.517 76.0447 118.793 75.3342Z" fill="#225E9A"/>
<path d="M87.0198 69.7441C83.8211 70.9889 80.8386 72.5441 78.1307 74.3619C76.4163 76.9531 75.0575 79.7987 74.126 82.8302C76.9596 80.5276 80.1031 78.5732 83.4791 76.9924C84.422 74.3985 85.6082 71.9645 87.0198 69.7441Z" fill="#225E9A"/>
<path d="M115.193 65.6989C116.91 66.0043 118.597 66.3922 120.249 66.8593C117.671 63.917 114.642 61.7329 111.333 60.5513C112.722 61.8105 114.022 63.5392 115.193 65.6989Z" fill="#225E9A"/>
<path d="M109.136 64.9721C110.555 65.062 111.96 65.2049 113.349 65.4021C111.636 62.5471 109.701 60.6802 107.668 59.9277C107.874 60.3611 108.043 60.8174 108.183 61.2319C108.522 62.2372 108.841 63.4894 109.136 64.9721Z" fill="#225E9A"/>
<path d="M122.766 67.6399C125.536 68.5818 128.189 69.7568 130.689 71.1493C126.828 66.6204 121.766 63.1466 115.999 61.2268C118.468 62.8064 120.753 64.9592 122.766 67.6399Z" fill="#225E9A"/>
<path d="M108.733 72.2925C108.612 71.1683 108.48 70.0882 108.337 69.0646C108.198 68.0651 108.056 67.1711 107.914 66.3701C107.153 66.3376 106.388 66.3193 105.618 66.3193C104.848 66.3193 104.084 66.3375 103.324 66.37C103.182 67.171 103.041 68.0649 102.901 69.0643C102.758 70.088 102.626 71.1681 102.505 72.2924C103.536 72.2346 104.574 72.2038 105.618 72.2038C106.662 72.2038 107.701 72.2347 108.733 72.2925Z" fill="#225E9A"/>
<path d="M125.861 76.1546C124.775 73.48 123.432 71.0399 121.878 68.9025C119.99 68.2767 118.035 67.7572 116.025 67.3516C116.184 67.691 116.34 68.0369 116.493 68.3936C117.197 70.0354 117.817 71.8169 118.355 73.7062C120.945 74.3334 123.456 75.1522 125.861 76.1546Z" fill="#225E9A"/>
<path d="M90.9897 66.8585C92.6413 66.3915 94.3285 66.0037 96.0451 65.6985C97.2167 63.539 98.5156 61.8104 99.9054 60.5513C96.5967 61.7328 93.5679 63.9167 90.9897 66.8585Z" fill="#225E9A"/>
<path d="M127.759 76.9935C131.135 78.5746 134.279 80.5293 137.112 82.8323C136.181 79.801 134.823 76.9554 133.109 74.3642C130.401 72.5459 127.418 70.9903 124.219 69.7451C125.63 71.9655 126.816 74.3996 127.759 76.9935Z" fill="#225E9A"/>
<path d="M107.632 64.8978C106.606 59.9439 105.651 59.5602 105.617 59.5498C105.616 59.5498 105.615 59.5498 105.615 59.5498C105.582 59.5619 104.629 59.9553 103.606 64.8977C104.274 64.8736 104.945 64.8598 105.618 64.8598C106.292 64.8598 106.963 64.8736 107.632 64.8978Z" fill="#225E9A"/>
<path d="M92.883 73.7057C93.4208 71.8165 94.0416 70.0352 94.7452 68.3935C94.8981 68.0366 95.0547 67.6906 95.2134 67.3511C93.2035 67.7565 91.2484 68.276 89.3596 68.9018C87.806 71.0391 86.4625 73.4793 85.3765 76.1538C87.7819 75.1515 90.2927 74.3328 92.883 73.7057Z" fill="#225E9A"/>
<path d="M102.102 64.972C102.397 63.4893 102.716 62.2372 103.055 61.2319C103.195 60.8175 103.364 60.3612 103.57 59.9277C101.537 60.6801 99.6017 62.5469 97.8892 65.4018C99.2777 65.2047 100.683 65.0618 102.102 64.972Z" fill="#225E9A"/>
<path d="M45.4503 135.651C45.6587 136.052 46.014 136.558 46.5166 137.167C47.019 137.775 47.7467 138.113 48.6999 138.177C49.6527 138.242 50.6582 138 51.7153 137.451C52.3614 137.116 52.8967 136.717 53.3215 136.254C53.7459 135.792 54.0508 135.295 54.2354 134.764C54.4196 134.234 54.4944 133.713 54.4599 133.203C54.4249 132.693 54.3359 132.277 54.1932 131.953C54.05 131.63 53.8236 131.169 53.5139 130.572L52.7518 129.104L44.3228 133.477L45.4503 135.651Z" fill="#225E9A"/>
<path d="M137.95 157.671C138.221 157.139 138.165 156.532 137.781 155.849C137.436 155.234 137 154.881 136.475 154.79C135.949 154.699 135.316 154.861 134.576 155.277L132.037 156.703L134.111 160.396L136.13 159.262C137.073 158.733 137.679 158.202 137.95 157.671Z" fill="#225E9A"/>
<path d="M60.1637 141.052L54.8408 143.085L57.0207 145.811L60.1637 141.052Z" fill="#225E9A"/>
<path d="M143.155 49.2437L143.215 49.2085C143.192 49.2219 143.155 49.2438 143.155 49.2437Z" fill="#225E9A"/>
<path d="M88.7946 35.2292C88.7592 35.0051 88.8012 34.8089 88.998 34.6689L89.0074 34.6421C89.0432 34.527 89.0789 34.4119 89.1147 34.2968C89.1122 34.2977 89.1104 34.2988 89.108 34.2998C89.0288 33.8875 89.0724 33.4988 89.3295 33.1512C89.364 33.0359 89.3986 32.9207 89.4331 32.8054C89.3518 32.576 89.4499 32.1827 89.1275 32.1655C88.6901 32.1422 88.7482 32.6981 88.4728 32.9008L88.4672 32.8941C88.4377 33.0135 88.4082 33.1329 88.3792 33.2525L88.3886 33.2654C88.4472 33.509 88.4061 33.7281 88.2288 33.9138C88.2932 34.8551 87.8698 35.785 88.0878 36.8211C88.637 36.3425 88.5057 35.6973 88.7946 35.2292Z" fill="#225E9A"/>
<path d="M86.5767 29.8194C86.4779 30.1418 86.3791 30.4643 86.2803 30.7867C86.3302 32.158 86.8915 31.8066 87.5405 31.16C87.4679 30.8233 87.6381 30.5564 87.7929 30.2852C87.7629 29.9102 87.7401 29.5344 87.7013 29.1602C87.6153 28.3301 87.2552 28.7234 86.9258 28.9914C86.9239 28.9867 86.9229 28.9828 86.9211 28.9781C86.8619 29.1061 86.8026 29.2342 86.7434 29.3623L86.5767 29.8194Z" fill="#225E9A"/>
<path d="M98.6974 31.0042C98.0176 31.5479 97.9545 32.2005 97.6309 32.7043C97.8349 33.3545 98.0389 34.0047 98.2429 34.6549C99.2049 33.555 98.5954 32.3304 98.6974 31.0042Z" fill="#225E9A"/>
<path d="M105.619 5.65918C50.7449 5.65918 6.26074 50.1434 6.26074 105.017C6.26074 159.892 50.745 204.376 105.619 204.376C160.493 204.376 204.977 159.892 204.977 105.017C204.977 50.1434 160.493 5.65918 105.619 5.65918ZM163.25 30.6602C167.635 32.656 154.019 38.3019 157.219 34.4968C158.549 33.4489 160.088 33.426 161.545 32.7622C163.417 32.3247 161.492 30.0938 163.25 30.6602ZM147.729 44.7998C147.658 44.694 147.587 44.5881 147.517 44.4822C147.516 44.4885 147.516 44.4941 147.516 44.5005C146.452 44.0275 145.273 44.0968 144.406 43.2801C143.408 42.4031 144.209 41.3826 145.447 41.7439C145.447 41.7439 145.45 41.7622 145.45 41.7629C148.67 41.2348 151.885 41.4884 155.099 41.8451C155.099 41.8451 155.096 41.8785 155.097 41.8789C156.199 41.6864 157.161 42.1513 158.109 42.5799C161.116 44.2914 152.959 45.3472 152.178 44.2496C151.213 44.0353 150.387 44.3359 149.638 44.9277C148.886 46.3195 147.521 52.217 145.366 53.2996C144.57 53.2747 143.212 51.3062 142.698 50.458C142.387 50.2193 142.15 49.926 142.028 49.5488C141.499 48.9463 140.928 48.369 140.622 47.2679C141.323 47.8162 141.857 48.1246 142.187 48.4627C142.631 48.5718 142.978 48.8203 143.233 49.1982C143.804 49.3969 144.328 49.7916 144.988 49.6191C146.148 48.2477 147.372 46.917 147.859 45.1167C147.861 45.1203 147.864 45.1233 147.866 45.1269C147.821 45.0178 147.775 44.9087 147.729 44.7998ZM145.057 32.5569C145.976 27.8917 146.433 33.1273 148.218 32.2427C149.12 31.7742 148.93 30.7579 149.033 29.9156C148.986 28.0607 150.241 28.135 150.604 29.604C151.392 32.4916 152.485 31.8857 154.762 30.7668C154.821 30.5881 154.88 30.4093 154.939 30.2306C155.177 30.2594 155.188 30.246 155.233 30.2413C154.701 30.2565 154.6 30.0871 154.397 30.0698C153.416 30.6859 152.394 29.9644 153.115 28.9427C152.448 27.237 155.111 28.5715 156.832 28.1009C156.938 28.0586 157.045 28.0164 157.151 27.9741C157.327 27.7511 157.56 27.647 157.841 27.6469C158.126 27.3799 158.448 27.1879 158.849 27.1574C160.389 26.3031 160.873 24.2986 161.692 26.2094C161.692 26.2094 161.666 26.2784 161.665 26.2783C161.603 27.4339 160.711 27.7028 159.838 27.9914C159.715 28.1601 159.569 28.2868 159.338 28.2656L159.334 28.2674C159.044 28.8471 157.797 28.7111 158.185 29.7981C159.313 30.15 160.729 30.9 158.772 31.1898C157.546 31.5554 156.319 31.921 155.093 32.2867C154.924 32.3785 154.756 32.4704 154.588 32.5623C154.508 32.6586 154.427 32.7549 154.347 32.8513C154.46 37.0707 153.552 33.4419 151.364 34.1523C150.621 34.25 151.292 32.7365 150.357 32.944C148.655 32.532 144.507 36.0312 145.057 32.5569ZM135.945 37.86C136.999 37.4469 138.038 37.6275 139.074 37.9391L139.14 37.9091C139.14 37.9091 139.193 37.9606 139.193 37.9607C139.898 37.875 140.601 37.9933 141.084 38.1039C141.509 37.8912 141.948 37.923 142.392 38.0288C142.389 38.0322 142.387 38.0348 142.385 38.0381C142.705 37.9993 143.025 37.9609 143.345 37.9225L143.406 37.8846C143.406 37.8846 143.464 37.9263 143.464 37.9264C144.193 37.6994 144.942 37.7054 145.693 37.7273C145.754 37.6829 145.812 37.6864 145.867 37.7379C146.08 37.5969 146.305 37.6074 146.535 37.6881C146.532 37.691 146.53 37.6927 146.527 37.6955C149.384 37.5689 152.264 36.8886 155.095 37.1267C156.102 37.4352 158.377 38.4614 156.603 39.2518C156.603 39.2521 156.585 39.2415 156.584 39.2407C156.466 39.2863 156.347 39.3312 156.228 39.3761L156.224 39.3716C156.103 39.4142 155.982 39.4563 155.861 39.4984C155.863 39.4946 155.866 39.4927 155.868 39.489C155.745 39.5268 155.622 39.5648 155.499 39.6029C155.499 39.6029 155.526 39.5914 155.526 39.5913C155.401 39.6315 155.276 39.6718 155.152 39.7121C154.878 39.9367 154.543 39.8826 154.227 39.9125C154.149 40.0485 154.038 40.0814 153.897 40.0147C153.838 40.0716 153.775 40.0763 153.708 40.0288C152.59 40.5283 152.038 39.2966 153.26 39.1479C153.26 39.1479 153.267 39.1621 153.268 39.1626C153.386 39.1169 153.505 39.0717 153.624 39.0265C153.925 38.7266 154.452 38.5883 154.358 38.0055C152.088 37.4948 149.723 38.5454 147.579 38.7395C147.409 38.9114 147.198 38.928 146.975 38.8935C143.559 39.4026 139.152 41.5005 136.142 39.2119C135.65 38.8801 135.306 38.3409 135.945 37.86ZM113.622 36.4996C115.447 34.5593 116.577 32.1405 118.14 30.0203C118.568 29.4394 118.653 28.8844 117.588 28.8735C117.233 28.8698 116.863 28.588 116.533 28.3799C116.237 28.1922 115.951 27.9365 116.068 27.5188C116.164 27.1755 116.456 27.089 116.779 27.0322C117.556 26.8957 118.323 26.6983 119.102 26.5905C120.033 26.4619 120.633 25.9855 120.927 25.1006C121.315 23.9326 121.674 22.753 122.113 21.6039C122.72 20.0107 121.959 18.6097 121.601 17.1408C121.461 16.5661 120.828 15.7731 121.628 15.415C122.483 15.0326 123.359 15.3451 123.785 16.3553C123.92 16.6759 124.118 16.9702 124.287 17.2766C124.407 17.4212 124.526 17.5658 124.646 17.7105C124.646 17.7102 124.648 17.709 124.648 17.709C124.967 17.907 125.152 18.1788 125.124 18.5682C125.122 18.5675 125.12 18.5666 125.118 18.5659C125.161 18.6569 125.204 18.7478 125.247 18.8387C125.269 19.0218 125.291 19.2049 125.313 19.388C125.702 20.4864 125.395 21.5247 125.039 22.5588C125.037 23.3451 124.067 24.2946 124.642 24.7393C125.25 25.2093 126.057 24.1851 126.826 23.9323C127.594 23.6804 128.253 23.2442 128.718 22.5589C129.057 22.0588 129.47 21.7998 130.041 22.205C130.643 22.6314 130.749 23.1856 130.384 23.8184C130.04 24.4163 129.471 24.7778 128.884 25.0733C127.391 25.8245 125.921 26.6531 124.358 27.2212C123.026 27.7053 122.342 28.6637 121.667 29.7684C119.621 33.114 117.267 36.2223 114.289 38.8051C113.326 39.6401 112.242 40.3141 110.624 39.8813C111.678 38.6877 112.62 37.565 113.622 36.4996ZM124.949 35.9247C124.8 35.8317 124.642 35.7417 124.522 35.6173C124.166 35.2473 123.581 34.9123 123.828 34.3177C124.041 33.8052 124.626 34.1924 125.069 34.0647C126.371 33.9904 127.544 34.5189 128.608 35.2184C129.784 35.9918 129.589 37.4478 128.302 38.0172C127.903 38.1935 127.488 38.3423 127.067 38.4566C126.123 38.7131 125.449 38.5384 125.632 37.3555C125.735 36.6892 125.482 36.2577 124.949 35.9247ZM105.619 58.0898C108.474 58.0898 111.249 58.4418 113.903 59.1006C144.768 61.1954 169.988 74.8563 177.917 92.9043C179.373 96.2184 180.245 99.6807 180.463 103.246L139.11 100.34C139.016 100.74 138.916 101.137 138.809 101.532C138.409 101.17 137.998 100.815 137.579 100.465C138.013 98.7279 138.305 96.9361 138.451 95.1034C136.053 92.8304 133.307 90.8085 130.28 89.0927C130.358 90.2141 130.398 91.3469 130.398 92.4881C130.398 92.5891 130.396 92.6896 130.395 92.7904C129.914 92.5253 129.427 92.2695 128.935 92.0206C128.922 90.7484 128.857 89.494 128.745 88.2602C126.142 86.9149 123.352 85.7904 120.414 84.9172C120.536 86.1798 120.631 87.4614 120.691 88.7607C120.201 88.6161 119.707 88.4798 119.211 88.3493C119.142 87.045 119.039 85.7595 118.907 84.4958C116.355 83.8237 113.702 83.3376 110.969 83.0619C111.021 84.3137 111.062 85.5896 111.093 86.8844C110.607 86.8351 110.119 86.7938 109.63 86.7574C109.598 85.4617 109.555 84.1859 109.502 82.934C108.223 82.8409 106.927 82.7926 105.618 82.7926C104.31 82.7926 103.015 82.8408 101.736 82.9339C101.683 84.1807 101.641 85.4512 101.609 86.7414C101.12 86.7758 100.632 86.8153 100.146 86.8626C100.177 85.5751 100.218 84.3065 100.269 83.0616C97.5366 83.3371 94.8837 83.8231 92.3322 84.495C92.2017 85.7396 92.0998 87.0052 92.0312 88.2893C91.5346 88.4173 91.0405 88.5509 90.5502 88.693C90.6107 87.4165 90.7044 86.1573 90.8248 84.9164C87.8865 85.7895 85.096 86.914 82.493 88.2594C82.3839 89.4561 82.3196 90.6723 82.3044 91.9051C81.8117 92.1509 81.3236 92.4038 80.8418 92.6659C80.8416 92.6065 80.8401 92.5474 80.8401 92.4879C80.8401 91.3463 80.88 90.2131 80.9585 89.0914C77.9312 90.807 75.1852 92.8288 72.7872 95.1016C72.9325 96.9344 73.225 98.7264 73.6586 100.463C73.2397 100.814 72.8285 101.169 72.4288 101.53C72.3213 101.136 72.2213 100.739 72.1275 100.339L30.7732 103.246C30.9911 99.6804 31.8655 96.2185 33.3217 92.9042C41.2511 74.8563 66.4697 61.1953 97.3347 59.1004C99.9892 58.4416 102.764 58.0898 105.619 58.0898ZM166.165 134.867C166.085 134.689 165.83 134.498 165.402 134.295L163.099 133.204L157.04 133.628C156.478 133.68 156.136 133.771 156.013 133.901C155.89 134.032 155.746 134.26 155.58 134.584L154.967 134.294L156.773 130.481L157.386 130.772L157.188 131.19C156.994 131.599 156.992 131.848 157.182 131.938C157.311 131.999 157.546 132.019 157.886 131.997L162.499 131.766L159.728 127.762C159.56 127.524 159.426 127.381 159.327 127.334C159.227 127.287 159.137 127.302 159.057 127.38C158.978 127.459 158.881 127.617 158.768 127.856L158.591 128.23L157.978 127.94L159.465 124.8L160.078 125.091C159.913 125.439 159.83 125.705 159.829 125.888C159.828 126.07 159.954 126.356 160.21 126.746L163.489 131.686L166.06 132.905C166.579 133.15 166.925 133.204 167.1 133.068C167.274 132.931 167.482 132.608 167.723 132.1L168.336 132.39L166.452 136.367L165.839 136.077L165.988 135.763C166.186 135.344 166.245 135.046 166.165 134.867ZM160.214 144.405C160.12 144.272 159.923 144.1 159.626 143.891L153.085 139.3C152.868 139.148 152.714 139.076 152.62 139.085C152.526 139.093 152.404 139.206 152.251 139.423C151.738 140.154 151.529 140.782 151.626 141.308C151.721 141.833 152.014 142.477 152.504 143.238L151.869 143.682L149.826 140.833L150.149 140.373L150.508 140.523L154.225 135.229L153.951 134.956L154.293 134.469L157.676 135.408L157.475 136.156C156.581 135.932 155.867 135.88 155.333 135.997C154.799 136.114 154.311 136.489 153.867 137.12C153.677 137.391 153.589 137.579 153.604 137.683C153.618 137.788 153.765 137.938 154.045 138.134L160.436 142.621C160.906 142.95 161.256 143.065 161.488 142.965C161.72 142.865 161.988 142.598 162.292 142.165L162.847 142.554L160.348 146.116L159.793 145.726C160.046 145.365 160.203 145.088 160.265 144.895C160.326 144.703 160.309 144.539 160.214 144.405ZM154.169 150.473L148.692 145.454C148.327 145.119 148.04 144.938 147.832 144.912C147.623 144.886 147.363 145.044 147.05 145.385L146.815 145.641L146.315 145.183L149.222 142.012L149.722 142.47L149.498 142.714C149.222 143.015 149.096 143.28 149.117 143.509C149.139 143.739 149.374 144.059 149.82 144.468L155.175 149.376C155.516 149.689 155.793 149.86 156.005 149.89C156.217 149.92 156.483 149.76 156.804 149.41L157.027 149.166L157.527 149.624L154.621 152.795L154.121 152.337L154.356 152.081C154.631 151.78 154.767 151.526 154.762 151.32C154.757 151.113 154.559 150.831 154.169 150.473ZM146.994 159.569L146.561 159.929L143.384 157.3L143.874 156.699C144.884 157.293 145.888 157.573 146.886 157.538C147.884 157.505 148.722 157.206 149.4 156.641C149.96 156.176 150.321 155.606 150.485 154.931C150.648 154.257 150.55 153.704 150.191 153.271C149.852 152.864 149.435 152.666 148.941 152.675C148.447 152.685 147.796 152.868 146.988 153.225L145.066 154.071C144.07 154.512 143.218 154.704 142.511 154.647C141.803 154.59 141.217 154.282 140.751 153.722C140.236 153.104 140.074 152.331 140.265 151.405C140.455 150.479 140.983 149.656 141.848 148.936C142.738 148.195 143.688 147.828 144.698 147.834L144.467 147.015L144.912 146.644L147.796 148.764L147.361 149.406C146.391 148.965 145.469 148.771 144.595 148.823C143.721 148.877 142.97 149.164 142.343 149.686C141.809 150.131 141.476 150.627 141.343 151.174C141.211 151.723 141.3 152.183 141.61 152.556C141.892 152.895 142.272 153.063 142.751 153.06C143.228 153.057 143.859 152.887 144.641 152.552L146.648 151.678C147.668 151.231 148.541 151.039 149.267 151.102C149.994 151.164 150.597 151.484 151.077 152.06C151.663 152.764 151.857 153.628 151.662 154.651C151.466 155.675 150.906 156.572 149.982 157.34C149.448 157.785 148.919 158.089 148.395 158.252C147.871 158.416 147.268 158.501 146.586 158.51L146.994 159.569ZM136.192 164.103C136.446 164.555 136.66 164.818 136.834 164.891C137.008 164.964 137.311 164.879 137.744 164.636L138.004 164.49L138.336 165.081L134.556 167.204L134.224 166.612L134.57 166.418C134.936 166.213 135.143 166.014 135.194 165.821C135.244 165.629 135.107 165.244 134.783 164.667L131.162 158.219C130.967 157.873 130.772 157.66 130.576 157.58C130.379 157.501 130.113 157.556 129.776 157.745L129.372 157.972L129.04 157.38L134.118 154.529C136.599 153.136 138.304 153.266 139.233 154.92C139.697 155.747 139.768 156.555 139.445 157.343C139.123 158.132 138.399 158.854 137.275 159.51L141.654 161.226C142.122 161.406 142.506 161.504 142.805 161.519C143.105 161.534 143.408 161.455 143.716 161.282L143.889 161.185L144.221 161.777L141.985 163.032L135.746 160.369L134.491 161.074L136.192 164.103ZM122.879 169.473L120.449 162.104C120.352 161.811 120.257 161.61 120.163 161.501C120.069 161.393 119.921 161.34 119.719 161.343C119.517 161.346 119.201 161.418 118.772 161.559L118.609 161.066L118.682 161.64C118.277 161.691 117.996 161.799 117.839 161.964C117.682 162.128 117.548 162.434 117.439 162.882L114.856 172.999L113.723 173.143L108.74 163.987C108.511 163.583 108.302 163.321 108.115 163.2C107.927 163.079 107.631 163.045 107.226 163.096L107.14 162.423L111.227 161.904L111.313 162.576L110.985 162.618C110.656 162.66 110.436 162.721 110.324 162.802C110.212 162.883 110.166 163 110.185 163.153C110.205 163.307 110.281 163.514 110.414 163.775L114.393 171.324L116.372 163.017C116.449 162.752 116.479 162.542 116.459 162.389C116.438 162.225 116.36 162.116 116.225 162.06C116.091 162.005 115.875 161.996 115.58 162.034L115.219 162.08L115.133 161.407L118.577 160.969L118.559 160.915L127.264 158.045L129.196 160.526L128.604 161C128.044 160.29 127.463 159.849 126.861 159.676C126.258 159.503 125.375 159.608 124.212 159.992L121.62 160.847L122.915 164.775L124.203 164.35C124.8 164.153 125.187 163.872 125.362 163.506C125.538 163.14 125.52 162.638 125.31 161.999L125.253 161.826L125.991 161.583L127.54 166.28L126.802 166.524L126.667 166.115C126.484 165.56 126.233 165.196 125.915 165.022C125.596 164.849 125.107 164.871 124.447 165.088L123.159 165.513L124.309 169.001C124.443 169.409 124.57 169.644 124.688 169.703C124.807 169.763 125.059 169.729 125.447 169.601L127.05 169.073C128.181 168.7 129.004 168.193 129.519 167.553C130.033 166.913 130.335 166.021 130.422 164.877L131.212 164.896L131.121 168.636L122.087 171.615L121.875 170.971L122.173 170.872C122.623 170.724 122.887 170.553 122.962 170.36C123.038 170.166 123.01 169.871 122.879 169.473ZM76.3899 146.032L78.7369 138.815C97.3084 138.815 105.619 146.379 105.619 146.379C105.619 146.379 113.93 138.815 132.501 138.815L134.848 146.032C134.848 146.032 119.668 143.503 108.293 150.037V151.387H102.945V150.037C91.5699 143.503 76.3899 146.032 76.3899 146.032ZM92.3026 171.161C92.4129 171.38 92.795 171.541 93.4486 171.645L93.3422 172.315L89.5678 171.715L89.6744 171.045L89.8705 171.076C90.3934 171.159 90.7401 171.119 90.9112 170.957C91.0822 170.794 91.2128 170.429 91.3028 169.863L92.4249 162.805C92.4906 162.391 92.5178 162.096 92.5067 161.921C92.4951 161.746 92.4186 161.614 92.2766 161.524C92.1343 161.435 91.8837 161.362 91.524 161.304L91.23 161.258L91.3366 160.588L94.7513 161.131L98.4892 170.285L99.4995 163.929C99.5808 163.417 99.549 163.055 99.4043 162.842C99.2593 162.629 98.9911 162.492 98.5988 162.429L98.321 162.385L98.4274 161.715L102.153 162.307L102.046 162.977L101.834 162.943C101.387 162.872 101.067 162.919 100.873 163.084C100.68 163.249 100.543 163.582 100.464 164.083L99.0116 173.216L98.0477 173.063L93.5315 162.059L92.267 170.016C92.1802 170.561 92.192 170.943 92.3026 171.161ZM80.8237 157.694C80.7543 157.503 80.5235 157.334 80.1312 157.186L79.7441 157.04L79.9834 156.405L84.055 157.939L83.816 158.574L83.5526 158.475C83.1087 158.308 82.7941 158.275 82.609 158.376C82.4234 158.477 82.2512 158.739 82.0916 159.162L80.3012 163.915C79.9589 164.823 79.833 165.533 79.9234 166.044C80.0136 166.556 80.2486 167.019 80.629 167.433C81.009 167.847 81.4469 168.148 81.9424 168.334C82.479 168.536 83.0458 168.597 83.6422 168.515C84.2386 168.433 84.7365 168.238 85.136 167.929C85.5355 167.619 85.9161 166.985 86.2775 166.025L87.9921 161.473C88.1475 161.061 88.1924 160.739 88.1263 160.507C88.0601 160.276 87.8203 160.083 87.4077 159.927L87.1135 159.816L87.3525 159.182L90.8826 160.511L90.6433 161.146L90.3958 161.053C89.9931 160.901 89.6913 160.873 89.4905 160.968C89.2895 161.063 89.1095 161.323 88.95 161.746L87.1189 166.607C86.621 167.928 85.8466 168.803 84.7952 169.232C83.7435 169.661 82.6088 169.646 81.3911 169.187C80.3484 168.795 79.5237 168.121 78.9165 167.168C78.3093 166.214 78.2486 165.093 78.7348 163.802L80.6827 158.631C80.846 158.198 80.8929 157.886 80.8237 157.694ZM69.0456 162.049L69.3192 162.235L68.9383 162.796L65.3799 160.38L65.7608 159.819L66.0483 160.014C66.3857 160.243 66.6566 160.341 66.8604 160.305C67.0639 160.27 67.3146 160.034 67.6118 159.596L71.7851 153.451C72.064 153.04 72.201 152.73 72.1968 152.52C72.1923 152.311 71.9988 152.076 71.6154 151.816L71.3281 151.62L71.7092 151.059L75.2676 153.476L74.8866 154.037L74.6129 153.851C74.2751 153.622 73.9944 153.534 73.7708 153.589C73.5468 153.644 73.2646 153.922 72.9238 154.424L68.8438 160.432C68.5835 160.816 68.4539 161.114 68.4552 161.328C68.4564 161.543 68.653 161.783 69.0456 162.049ZM56.1644 151.601L56.2782 151.743L55.7482 152.167L53.2374 149.027L53.7672 148.603C54.0498 148.957 54.2615 149.169 54.4028 149.239C54.5439 149.31 54.6834 149.29 54.8212 149.18C54.9506 149.077 55.1296 148.841 55.359 148.475L56.5869 146.54L54.0344 143.348L51.5981 144.195C51.3532 144.278 51.1793 144.36 51.076 144.443C50.9295 144.56 50.8748 144.699 50.9117 144.86C50.9486 145.021 51.1085 145.278 51.3908 145.632L50.8611 146.055L48.7534 143.419L49.2831 142.996C49.5448 143.323 49.7909 143.507 50.0219 143.549C50.2526 143.59 50.6333 143.519 51.164 143.335L61.1044 139.898L61.931 140.931L56.3174 149.911C56.0968 150.271 55.9662 150.581 55.9258 150.839C55.8851 151.097 55.9646 151.351 56.1644 151.601ZM51.5865 126.391L52.1883 126.078L54.0477 129.661C54.8349 131.179 55.3133 132.322 55.4828 133.092C55.6519 133.861 55.634 134.629 55.4287 135.394C55.2228 136.159 54.8584 136.857 54.3354 137.489C53.8119 138.121 53.1688 138.635 52.405 139.032C51.0834 139.717 49.7192 139.885 48.3131 139.533C46.9068 139.182 45.7515 138.135 44.8474 136.392L42.1881 131.268L42.7903 130.955L43.0797 131.513C43.1875 131.793 43.3524 131.943 43.575 131.964C43.7971 131.986 44.0942 131.9 44.4664 131.707L51.1626 128.232C51.6717 127.968 51.9417 127.735 51.9733 127.532C52.0046 127.329 51.8758 126.949 51.5865 126.391ZM57.6451 153.008L57.9054 153.238C58.2278 153.523 58.4844 153.665 58.676 153.665C58.8673 153.665 59.1202 153.487 59.4342 153.132L64.5063 147.392C64.8129 147.045 64.974 146.775 64.9894 146.582C65.0048 146.39 64.8308 146.133 64.4671 145.812L64.2069 145.582L64.6561 145.074L67.9289 147.965L67.4798 148.474L67.1821 148.211C66.9095 147.97 66.6763 147.834 66.4831 147.803C66.2897 147.772 66.0507 147.917 65.7661 148.24L60.5627 154.129C60.2703 154.459 60.1278 154.683 60.1351 154.8C60.1421 154.916 60.3111 155.121 60.6417 155.413L61.0882 155.807C61.8401 156.472 62.5811 156.829 63.3109 156.877C64.0406 156.926 64.9258 156.711 65.9668 156.233L66.3356 156.89L63.06 158.698L57.1958 153.516L57.6451 153.008ZM88.6192 26.6838C89.3881 26.6964 89.2569 27.3449 89.3327 27.7793C89.4109 28.2276 89.341 28.7018 89.3362 29.1648C89.4184 29.1974 89.5009 29.2301 89.5835 29.2628C89.9815 25.0388 91.1025 21.0634 93.5791 17.544C94.6448 16.0295 96.1258 14.9766 97.6476 14.0223C98.9747 13.1901 100.438 14.0886 100.524 15.6549C100.601 17.0646 100.066 18.3803 99.5199 19.5853C98.6467 21.5119 98.0451 23.6134 96.4115 25.1599C95.8396 25.7013 96.4896 26.4935 96.5005 27.1758C96.5936 27.521 96.6868 27.8662 96.78 28.2114C96.928 29.1251 97.0761 29.7764 98.2914 29.0509C99.5606 28.2933 100.258 28.903 100.232 30.552C100.191 32.2135 100.176 33.8762 100.096 35.5358C100.062 36.2566 100.107 36.6602 101.035 36.6688C102.068 36.6783 102.87 37.6563 102.537 38.3955C102.146 39.2625 101.289 39.653 100.379 39.4907C99.2014 39.2806 98.2818 38.6399 98.0642 37.334C97.9278 36.5153 97.8115 35.6933 97.6861 34.8728C97.4147 34.5196 97.1857 34.2281 96.6565 34.5975C96.0125 35.0471 95.745 34.702 95.7773 34.0141C95.7361 33.9605 95.7385 33.9088 95.7844 33.8591C95.781 33.8152 95.764 33.7671 95.776 33.7279C96.6179 30.9874 95.7832 28.362 95.2432 25.7135C95.1364 25.1897 95.075 24.6931 94.5802 24.3413C94.1234 24.0164 94.0805 23.4331 93.8955 22.945C93.6731 22.3583 93.8426 21.8968 94.3972 21.6159C95.0483 21.2862 95.3583 21.6846 95.6169 22.2155C95.7648 22.519 95.9788 22.7902 96.3259 23.3286C97.2042 20.6016 97.9594 18.1103 98.0149 15.4368C95.5265 17.406 93.8067 19.8754 92.4419 22.6653C91.1147 25.3783 91.1524 28.2861 90.8725 31.1621C90.7751 32.1631 90.8397 33.1865 90.4847 34.1547C90.4823 34.2463 90.4798 34.3379 90.4774 34.4296C90.3593 36.5329 89.9051 38.5712 89.1785 40.5394C88.937 41.1934 88.4516 41.892 87.6266 41.6311C86.7964 41.3685 85.9797 40.8583 86.1128 39.7732C86.1962 39.0936 86.1902 38.3709 86.5943 37.7591L86.5613 37.7017L86.599 37.6471C86.626 37.4843 86.6528 37.3215 86.6798 37.1587C86.6798 37.1587 86.6584 37.0683 86.6585 37.0682C86.4474 35.7888 87.237 34.4811 86.5517 33.215C84.7396 32.6497 84.2902 31.8382 84.844 30.0711C85.2136 28.8919 85.6993 27.7769 86.7905 27.0583C87.3746 26.8098 87.9395 26.4654 88.6192 26.6838ZM80.1562 24.7098C81.3494 22.6124 82.6272 20.5615 83.9207 18.5233C84.5175 17.5828 85.4548 16.531 86.4919 16.918C87.299 17.2192 86.8293 18.5521 86.6564 19.4307C86.163 21.937 84.8366 24.0592 83.5065 26.1786C83.1872 26.6873 82.6816 26.7913 82.1644 26.8391C82.0617 26.8725 81.9797 26.9076 81.8942 26.9255C81.0945 27.0929 80.2077 27.5176 79.5811 26.6921C78.9699 25.8869 79.8257 25.291 80.1562 24.7098ZM63.4485 42.6638C63.6906 42.2547 64.1359 42.4137 64.5287 42.5034C66.3313 42.9152 68.1287 43.3859 70.0062 43.2217C70.9694 43.1375 71.9578 43.133 72.6234 42.2171C72.7873 41.9916 73.109 41.7404 73.4286 41.9484C73.7301 42.1447 73.6324 42.4889 73.5459 42.7864C73.5092 42.9127 73.4489 43.032 73.4063 43.1568C72.1074 46.964 70.3692 47.6686 66.8201 45.8118C65.7276 45.2402 64.6408 44.6529 63.8548 43.6525C63.6317 43.3566 63.2024 43.0796 63.4485 42.6638ZM53.0134 43.9301C54.6394 42.2811 55.6915 40.2819 56.5123 38.1488C56.7574 37.5117 56.6918 36.8425 56.4794 36.2043C55.4125 32.9987 54.8366 29.6407 53.4614 26.5288C53.2428 26.0342 52.9291 25.4392 53.4433 24.9302C53.9334 24.4451 54.4077 24.8417 54.8707 25.0524C55.7371 25.3031 55.7967 26.167 56.1328 26.7903C56.8771 28.1707 57.65 29.5533 57.853 31.1529C57.853 31.1529 57.866 31.1757 57.866 31.1756C58.4175 31.8945 58.3995 32.9049 59.0819 33.5568C59.7057 33.3249 59.8691 32.7674 60.0284 32.2071L60.0294 32.1931C59.9589 31.7668 59.909 31.3358 59.8134 30.9152C59.6313 30.1145 59.6021 29.3718 60.668 29.2742C61.6846 29.181 62.6583 30.0268 62.6066 30.9651C62.5713 31.6051 62.3675 32.2359 62.239 32.8709C62.2373 32.8693 62.2361 32.8677 62.2345 32.8661C62.2132 32.9872 62.1919 33.1083 62.1707 33.2293C62.1719 33.2284 62.1729 33.2275 62.174 33.2266C62.127 33.4159 62.0801 33.6053 62.0331 33.7946C62.0334 33.7948 62.0344 33.7954 62.0344 33.7954C62.0792 34.1366 61.9561 34.4272 61.7625 34.6965C61.7625 34.6965 61.7498 34.7182 61.7491 34.7179C61.6199 35.2601 61.5028 35.8073 61.122 36.2463C61.1253 36.34 61.0872 36.4117 61.0078 36.4615C60.9885 37.1009 60.6532 37.6029 60.2988 38.0965C60.2675 38.3359 60.2358 38.5752 60.2041 38.8145C60.4341 39.4411 60.6654 40.0674 60.664 40.7487C60.8104 40.9528 60.8961 41.1722 60.8328 41.4291C61.6089 45.916 61.8722 50.3447 59.1613 54.3739C58.614 55.1873 57.9968 55.984 56.8451 56.3482C59.2355 52.4235 59.308 48.2148 58.6832 43.9127C58.6595 43.787 58.6358 43.6613 58.612 43.5356C58.6088 43.5397 58.606 43.5438 58.6028 43.5478C58.3937 43.122 58.4907 42.5792 58.041 42.1737C57.434 42.5707 57.0551 43.2051 56.5533 43.717C55.6647 44.6236 54.7528 45.5716 53.3017 45.2817C52.4097 45.1035 52.3276 44.6223 53.0134 43.9301ZM14.2526 105.017C14.2526 92.6857 16.6692 80.7197 21.4352 69.4517C25.6427 59.504 31.5105 50.4848 38.8967 42.6001L47.1861 50.8896C34.0015 65.1126 25.9307 84.14 25.9307 105.017C25.9307 105.654 25.939 106.289 25.9539 106.922H14.2735C14.2607 106.288 14.2526 105.653 14.2526 105.017ZM41.0132 169.623C32.6241 161.234 26.0371 151.464 21.435 140.583C17.1723 130.505 14.7907 119.868 14.3349 108.911H26.0255C27.031 129.71 36.0472 148.442 50.0486 162.08L41.7637 170.365C41.5123 170.119 41.2622 169.872 41.0132 169.623ZM104.625 196.378C92.6439 196.251 81.018 193.839 70.0533 189.201C60.1055 184.994 51.0864 179.126 43.2018 171.74L51.4912 163.45C65.488 176.425 84.1378 184.448 104.625 184.699V196.378ZM102.619 173.381L102.628 172.702L102.975 172.707C103.383 172.712 103.663 172.645 103.814 172.503C103.965 172.362 104.043 172.026 104.05 171.497L104.15 164.069C104.156 163.573 104.1 163.239 103.981 163.066C103.862 162.894 103.571 162.804 103.108 162.798L102.76 162.794L102.769 162.115L107.07 162.173L107.061 162.851L106.731 162.847C106.322 162.841 106.04 162.923 105.884 163.092C105.727 163.261 105.645 163.648 105.636 164.255L105.539 171.517C105.533 171.98 105.589 172.301 105.708 172.479C105.827 172.657 106.124 172.749 106.598 172.756L106.929 172.76L106.92 173.438L102.619 173.381ZM141.185 189.201C130.22 193.839 118.594 196.251 106.613 196.378V184.699C127.1 184.448 145.75 176.425 159.747 163.45L168.036 171.74C160.152 179.126 151.133 184.994 141.185 189.201ZM189.803 140.583C185.201 151.464 178.614 161.234 170.225 169.623C169.976 169.872 169.726 170.119 169.474 170.365L161.189 162.08C175.191 148.442 184.207 129.709 185.212 108.911H196.903C196.447 119.868 194.066 130.505 189.803 140.583ZM185.284 106.922C185.299 106.289 185.307 105.654 185.307 105.017C185.307 84.1401 177.237 65.1126 164.052 50.8896L172.341 42.6001C179.728 50.4847 185.595 59.5039 189.803 69.4517C194.569 80.7196 196.986 92.6856 196.986 105.017C196.986 105.653 196.978 106.288 196.965 106.922H185.284Z" fill="#225E9A"/>
</svg>
