<svg xmlns="http://www.w3.org/2000/svg" xmlns:xlink="http://www.w3.org/1999/xlink" width="433.273193359375" height="433.2043151855469" viewBox="0 0 433.273193359375 433.2043151855469" fill="none">
<path d="M106.793 347.445L86.1122 369.139L80.0097 363.376C76.6195 360.326 74.9243 356.597 74.5853 352.868C74.2463 348.801 75.6024 345.411 78.6536 342.021C81.7048 338.632 85.4341 336.937 89.5024 336.937C93.5707 336.937 97.3 338.632 100.69 342.021L106.793 347.445ZM85.7731 363.715L101.707 347.106L98.6561 344.055C95.9439 341.343 93.2317 339.987 90.1804 340.326C87.1292 340.326 84.417 341.682 82.0439 344.394C79.3317 347.106 78.3146 349.818 78.6536 352.868C78.9926 355.58 80.3487 358.292 83.0609 360.665L85.7731 363.715ZM67.8048 334.564C65.4317 333.547 63.3975 331.852 62.0414 329.818C58.9902 325.751 59.6683 322.022 64.0756 318.971L75.2634 311.175L77.2975 314.226L74.5853 316.259C77.6365 315.921 79.6707 316.937 81.3658 319.31C82.7219 321.005 83.0609 322.7 82.7219 324.395C82.3829 326.09 81.7048 327.445 80.0097 328.462C76.6195 330.835 73.5683 330.157 70.178 326.768L65.7707 322.022C63.0585 324.056 62.3804 326.09 64.0756 328.462C65.4317 330.496 67.4658 331.852 70.178 332.53L67.8048 334.564ZM71.8731 323.717C73.2292 325.073 74.2463 325.751 74.9243 325.751C75.9414 326.09 76.6195 325.751 77.6365 325.073C78.3146 324.395 78.9926 323.717 78.9926 322.7C78.9926 321.683 78.6536 320.666 77.9756 319.988C76.9585 318.632 75.6024 317.954 74.2463 317.615C72.5512 317.276 71.1951 317.954 69.839 318.971L68.1439 319.988L71.8731 323.717ZM70.178 302.362L68.1439 298.972L41.0219 314.565L43.0561 317.954L70.178 302.362ZM37.6317 302.023C36.9536 302.362 36.2756 302.362 35.9366 302.023C35.2585 301.684 34.9195 301.345 34.5805 300.667C34.2414 299.989 34.2414 299.311 34.5805 298.972C34.9195 298.294 35.2585 297.955 35.9366 297.616C36.6146 297.277 37.2926 297.277 37.6317 297.616C38.3097 297.955 38.6487 298.294 38.9878 298.972C39.3268 299.65 39.3268 300.328 38.9878 300.667C38.6487 301.345 38.3097 301.684 37.6317 302.023ZM63.7365 289.82L44.4122 298.633L42.717 295.243L62.0414 286.43L63.7365 289.82ZM39.3268 282.701C37.2926 281.007 35.9366 278.973 35.2585 276.261C33.5634 271.515 35.2585 268.126 40.3439 266.431L53.2268 262.024L54.5829 265.414L51.5317 266.431C54.2439 267.109 56.278 268.804 57.2951 271.515C57.9731 273.549 57.9731 275.244 57.2951 276.6C56.617 277.956 55.2609 279.312 53.5658 279.651C49.8365 281.007 46.7853 279.312 44.7512 275.244L41.7 269.821C38.3097 270.837 37.2926 272.871 38.3097 275.583C38.9878 277.956 40.6829 279.99 43.0561 281.346L39.3268 282.701ZM46.4463 273.549C47.1244 275.244 48.1414 276.261 48.8195 276.6C49.4975 276.939 50.5146 276.939 51.5317 276.6C52.5487 276.261 53.2268 275.583 53.5658 274.905C53.9048 273.888 53.9048 272.871 53.5658 271.854C52.8878 270.159 52.2097 269.143 50.5146 268.465C49.1585 267.787 47.4634 267.787 45.7683 268.465L43.7341 269.143L46.4463 273.549ZM48.1414 234.568L48.8195 238.296L36.9536 240.33C32.5463 241.008 30.8512 243.042 31.1902 246.093C31.5292 247.787 32.2073 248.804 33.5634 249.821C34.9195 250.499 36.6146 250.838 38.3097 250.499L50.1756 248.465L50.8536 252.194L30.1731 256.262L29.4951 252.533L32.8853 251.855C29.8341 250.838 28.139 248.804 27.8 245.754C27.4609 243.381 27.8 241.686 29.1561 239.991C30.5122 238.635 32.5463 237.618 35.2585 236.94L48.1414 234.568ZM36.9536 191.857C45.4292 192.535 49.1585 196.603 48.8195 204.399C48.1414 211.857 44.0731 214.907 35.9366 214.568L17.9683 213.212L18.3073 209.484L36.2756 210.84C42.378 211.179 45.4292 209.145 45.7683 204.06C46.1073 199.315 43.3951 196.603 37.6317 196.264L19.3244 194.908L19.6634 191.179L36.9536 191.857ZM54.9219 165.079L54.2439 168.807L42.378 166.096C37.9707 165.079 35.5975 166.096 34.9195 169.146C34.5805 170.841 34.9195 172.197 35.9366 173.553C36.9536 174.909 38.3097 175.587 40.0048 176.265L51.8707 178.976L51.1926 182.705L30.5122 177.96L31.1902 174.231L34.5805 174.909C32.2073 172.875 31.5292 170.163 32.2073 167.112C32.8853 164.74 33.9024 163.384 35.5975 162.367C37.2926 161.689 39.6658 161.35 42.378 162.028L54.9219 165.079ZM31.8683 145.757C31.1902 145.418 30.8512 145.079 30.5122 144.401C30.1731 143.723 30.1731 143.046 30.5122 142.707C30.8512 142.029 31.1902 141.69 31.8683 141.351C32.5463 141.012 33.2244 141.012 33.5634 141.351C34.2414 141.69 34.5805 142.029 34.9195 142.707C35.2585 143.385 35.2585 144.062 34.9195 144.401C34.5805 145.079 34.2414 145.418 33.5634 145.757C32.8853 146.096 32.5463 146.096 31.8683 145.757ZM58.6512 155.926L38.9878 148.13L40.3439 144.74L60.0073 152.537L58.6512 155.926ZM53.2268 117.962L68.4829 135.249L66.7878 138.639L44.0731 135.927L46.1073 132.198L62.0414 134.571C63.3975 134.91 64.4146 134.91 65.0926 135.249C64.0756 134.571 63.3975 133.893 62.7195 133.215L51.5317 121.351L53.2268 117.962ZM77.9756 102.369L76.2804 101.352C73.5683 99.6573 71.1951 98.6404 68.8219 98.9794C66.4487 99.3184 64.4146 100.335 62.7195 102.708C61.0244 105.081 60.6853 107.454 61.3634 110.165C62.0414 112.877 63.7365 115.25 66.4487 117.284C69.1609 119.318 71.8731 119.996 74.5853 119.996C77.2975 119.657 79.3317 118.301 81.0268 115.928C82.7219 113.555 83.739 110.843 83.739 108.81L81.0268 106.776C81.0268 109.149 80.3487 111.521 78.9926 113.555C77.6365 115.25 76.2804 116.267 74.5853 116.606C72.8902 116.945 71.1951 116.267 69.1609 114.911L77.9756 102.369ZM73.5683 103.725L67.1268 112.877C65.7707 111.521 65.0926 110.165 64.7536 108.81C64.4146 107.115 64.7536 105.759 65.7707 104.742C66.7878 103.386 67.8048 102.708 69.1609 102.708C70.517 102.03 71.8731 102.369 73.5683 103.725ZM87.1292 81.014C86.4512 81.014 85.7731 81.6919 84.7561 82.3698C83.739 83.7257 83.4 85.0816 83.739 86.7765C84.078 88.4713 85.0951 89.8272 86.7902 91.522L94.5878 98.9794L91.8756 101.691L76.6195 86.7765L79.3317 84.0647L82.3829 87.1154C81.0268 84.0647 81.0268 81.6919 82.7219 79.997C83.4 79.3191 83.739 78.9801 84.417 78.6412L87.1292 81.014ZM101.368 85.4206L103.741 88.4713C105.437 88.1323 107.132 87.1154 108.827 85.7595C110.861 84.0647 111.878 82.3698 112.556 80.336C112.895 78.3022 112.556 76.6073 111.2 75.2514C110.183 74.2345 109.166 73.5566 107.81 73.5566C106.454 73.2176 104.758 73.8956 102.385 74.5735C100.351 75.2514 99.3341 75.5904 98.317 75.5904C97.639 75.5904 96.9609 75.2514 96.2829 74.5735C95.6048 73.8956 95.6048 73.2176 95.9439 72.2007C96.2829 71.1838 96.6219 70.5059 97.639 69.8279C98.9951 68.472 101.029 67.7941 102.724 67.4551L100.351 64.7434C98.6561 65.4213 97.3 66.0993 95.9439 67.4551C94.2487 69.15 93.2317 70.8448 92.5536 72.5397C92.2146 74.5735 92.5536 76.2684 93.5707 77.6242C94.5878 78.6412 95.6048 79.3191 96.6219 79.3191C97.639 79.6581 99.6731 79.3191 102.046 78.3022C104.08 77.6242 105.437 77.2853 106.115 77.2853C106.793 77.2853 107.471 77.6242 108.149 78.3022C109.505 79.6581 108.827 81.3529 106.793 83.3867C105.776 84.4037 103.741 85.4206 101.368 85.4206ZM106.454 50.8456C106.115 50.1676 106.115 49.8287 106.115 49.1507C106.115 48.4728 106.454 48.1338 107.132 47.7948C107.81 47.4559 108.149 47.4559 108.827 47.4559C109.505 47.4559 109.844 47.7948 110.183 48.4728C110.522 49.1507 110.522 49.4897 110.522 50.1676C110.522 50.8456 109.844 51.1845 109.505 51.5235C108.827 51.8625 108.488 51.8625 107.81 51.8625C107.471 51.5235 106.793 51.1845 106.454 50.8456ZM122.388 74.5735L110.861 56.947L113.912 54.9132L125.439 72.8787L122.388 74.5735ZM143.068 62.0316L141.373 59.3198C141.034 59.9978 140.695 60.6757 139.678 61.0147C138.661 61.6926 137.983 61.6926 137.305 61.3537C136.627 61.0147 135.949 60.3368 135.271 58.9809L129.507 48.8118L134.254 46.1L132.558 43.3882L127.812 46.1L124.761 40.6765L122.049 43.7272L124.761 48.1338L121.71 49.8287L123.405 52.5404L126.456 50.8456L132.558 61.3537C134.593 65.0823 137.305 65.7603 140.695 64.0654C141.712 63.3875 142.729 62.7095 143.068 62.0316ZM159.002 32.8801L159.002 59.3198C159.002 64.0654 157.307 67.1162 154.595 68.472C153.578 68.811 152.9 69.15 152.222 69.15L150.866 66.0993C151.544 66.0993 152.222 66.0993 152.9 65.7603C154.595 65.0823 155.273 63.7265 155.273 61.6926L155.273 57.625L139.678 41.0154L143.407 39.3206L154.595 52.2015L155.612 53.5573C155.612 53.2184 155.612 52.5404 155.273 51.8625L154.934 34.914L159.002 32.8801ZM179.344 38.3037C178.666 34.914 179.344 31.8632 180.7 29.4904C182.395 27.1176 184.768 25.7618 188.158 25.0838C191.21 24.4059 193.922 25.0838 195.956 26.7787C197.99 28.4735 199.346 30.8463 200.024 34.236C200.702 37.6257 200.024 40.3375 198.668 42.7103C196.973 45.0831 194.6 46.439 191.549 47.1169C188.497 47.7948 185.785 47.1169 183.412 45.4221C181.378 44.0662 180.022 41.6934 179.344 38.3037ZM183.412 37.6257C183.751 39.9985 184.768 41.6934 186.124 43.0493C187.48 44.0662 189.515 44.7441 191.549 44.4051C193.583 44.0662 195.278 43.0493 195.956 41.3544C196.973 39.6596 196.973 37.6257 196.634 35.2529C196.295 32.5412 195.278 30.8463 193.922 29.8294C192.566 28.8125 190.871 28.1346 188.837 28.8125C186.802 29.1515 185.107 30.1684 184.429 31.8632C183.073 33.2191 182.734 35.2529 183.412 37.6257ZM220.366 16.2706C219.688 15.9316 219.01 15.5926 218.332 15.5926C215.958 15.5926 214.941 17.2875 214.941 19.9993L214.941 23.05L220.027 23.05L220.027 26.1007L214.941 26.1007L215.28 44.4051L211.551 44.4051L211.212 26.1007L207.483 26.1007L207.483 23.05L211.212 23.05L211.212 19.6603C211.212 17.2875 211.89 15.5926 212.907 14.2368C214.263 12.8809 215.958 12.2029 217.993 12.2029C219.01 12.2029 220.027 12.2029 220.705 12.5419L220.366 16.2706ZM255.963 21.0162L244.437 19.6603L243.08 29.4904L253.59 30.8463L253.251 34.236L242.741 32.8801L241.046 45.761L237.317 45.4221L241.046 15.5926L256.302 17.6265L255.963 21.0162ZM262.405 38.6426C263.422 35.2529 265.117 32.8801 267.49 31.5243C269.863 30.1684 272.915 29.8294 275.966 30.8463C279.017 31.8632 281.051 33.2191 282.407 35.5919C283.763 37.9647 283.763 40.6765 282.746 44.0662C281.729 47.4559 280.034 49.4897 277.661 51.1845C275.288 52.5404 272.576 52.8794 269.185 52.2015C266.134 51.1845 264.1 49.8287 262.744 47.1169C261.727 44.7441 261.727 42.0323 262.405 38.6426ZM266.134 39.6596C265.456 42.0323 265.456 44.0662 266.473 45.761C267.151 47.4559 268.846 48.4728 270.541 49.1507C272.576 49.8287 274.271 49.4897 275.966 48.4728C277.322 47.4559 278.678 45.761 279.356 43.3882C280.034 41.0154 280.034 38.9816 279.356 37.2868C278.678 35.5919 277.322 34.575 275.288 33.8971C273.254 33.2191 271.558 33.5581 269.863 34.575C268.168 35.5919 267.151 37.2868 266.134 39.6596ZM305.8 47.1169C305.461 46.439 304.783 45.761 303.766 45.4221C302.41 44.7441 301.054 45.0831 299.697 45.761C298.341 46.7779 296.985 48.1338 296.307 50.1676L291.9 59.9978L288.51 58.3029L297.324 38.9816L300.715 40.6765L299.019 44.7441C301.393 42.3713 303.766 41.6934 306.139 42.7103C306.817 43.0493 307.495 43.3882 307.834 43.7272L305.8 47.1169ZM324.446 67.1162L325.463 65.4213C327.158 62.7095 327.836 60.3368 327.497 57.964C327.158 55.5912 325.802 53.5573 323.429 52.2015C321.056 50.8456 318.683 50.1676 315.632 51.1845C312.919 51.8625 310.546 53.5573 308.851 56.2691C306.817 59.3198 306.139 62.0316 306.817 64.4044C307.156 67.1162 308.851 69.15 311.224 70.8448C313.936 72.5397 316.31 73.2176 318.683 73.2176L320.378 70.5059C318.005 70.8448 315.632 70.1669 313.597 68.811C311.902 67.7941 310.885 66.0993 310.546 64.7434C310.207 63.0485 310.546 61.3537 311.902 59.3198L324.446 67.1162ZM322.751 62.7095L313.258 56.6081C314.615 55.2522 315.971 54.2353 317.327 53.8963C318.683 53.5573 320.378 53.8963 321.395 54.5743C322.751 55.5912 323.429 56.6081 323.768 57.964C324.446 59.6588 323.768 61.0147 322.751 62.7095ZM343.432 57.625C343.771 56.947 344.449 56.947 345.127 56.6081C345.805 56.6081 346.483 56.6081 346.822 56.947C347.5 57.286 347.5 57.964 347.839 58.6419C347.839 59.3198 347.839 59.9978 347.5 60.3368C347.161 61.0147 346.483 61.0147 345.805 61.3537C345.127 61.3537 344.449 61.3537 344.11 60.6757C343.432 60.3368 343.432 59.6588 343.093 58.9809C342.754 58.9809 343.093 58.3029 343.432 57.625ZM326.141 80.675L339.363 64.0654L342.415 66.4382L329.193 83.0478L326.141 80.675ZM351.229 101.691L365.468 88.1323L362.756 85.4206L360.722 87.4544C361.4 84.7426 360.722 82.7088 358.688 80.675C356.654 78.6412 354.28 77.6242 351.568 77.6242C348.856 77.9632 346.144 79.3191 343.432 81.6919C341.058 83.7257 339.702 86.0985 339.702 88.8103C339.363 91.1831 340.041 93.5559 342.076 95.5897C344.449 97.9625 346.822 98.6404 349.873 97.9625L348.178 99.6573C344.11 103.386 340.38 103.386 336.99 99.6573C335.634 97.9625 334.278 95.9287 333.6 93.2169L330.888 95.5897C331.566 97.6235 332.583 99.6573 334.617 101.691C340.041 107.115 345.466 107.115 351.229 101.691ZM356.315 91.522L354.28 93.5559C352.924 94.9117 351.229 95.5897 349.534 95.9287C347.839 95.9287 346.144 95.2507 345.127 93.8948C343.771 92.5389 343.432 91.1831 343.771 89.1492C344.11 87.4544 345.127 85.7595 346.483 84.0647C348.517 82.3698 350.212 81.3529 352.246 81.014C354.28 80.675 355.637 81.3529 357.332 83.0478C358.349 84.0647 359.027 85.7595 359.027 87.1154C358.349 88.8103 357.671 90.1662 356.315 91.522ZM366.824 125.419L364.79 122.368L374.622 115.25C378.351 112.877 379.029 110.165 377.334 107.454C376.317 106.098 374.961 105.42 373.605 105.081C371.91 105.081 370.554 105.42 368.858 106.437L359.027 113.555L356.993 110.504L374.283 98.3014L376.317 101.352L373.605 103.386C376.656 103.047 379.029 104.403 381.063 106.776C382.419 108.81 382.758 110.504 382.419 112.538C381.741 114.233 380.385 116.267 378.012 117.962L366.824 125.419ZM382.758 156.943L376.317 142.707L403.439 130.504L405.134 133.893L381.063 144.74L385.81 155.587L382.758 156.943ZM403.778 159.655C405.473 161.35 406.829 163.384 407.846 166.096C409.202 171.18 407.507 174.231 402.083 175.587L388.861 179.315L387.844 175.587L390.895 174.57C388.183 173.892 386.149 172.197 385.471 169.485C384.793 167.451 385.132 165.757 385.81 164.401C386.488 163.045 387.844 162.028 389.539 161.35C393.268 160.333 396.319 162.028 398.015 166.096L400.727 171.858C404.117 170.841 405.473 169.146 404.456 166.435C403.778 164.062 402.422 162.028 400.049 160.333L403.778 159.655ZM396.319 168.129C395.641 166.435 394.963 165.418 393.946 165.079C393.268 164.74 392.251 164.401 391.234 164.74C390.217 165.079 389.539 165.418 389.2 166.435C388.861 167.451 388.861 168.468 389.2 169.485C389.539 171.18 390.556 172.197 391.912 172.875C393.268 173.553 394.963 173.553 396.658 173.214L398.693 172.536L396.319 168.129ZM392.929 207.111L392.59 203.382L404.456 202.026C408.863 201.348 410.897 199.654 410.219 196.603C409.88 194.908 409.202 193.552 407.846 192.874C406.49 191.857 404.795 191.518 403.1 191.857L390.895 193.552L390.556 189.823L411.576 187.112L411.915 190.84L408.524 191.179C411.236 192.535 412.932 194.569 413.271 197.62C413.61 199.993 412.932 201.687 411.576 203.043C410.219 204.399 408.185 205.416 405.473 205.755L392.929 207.111ZM393.607 235.585C385.81 234.907 382.08 230.839 382.758 223.382C383.097 220.67 383.776 218.636 384.793 216.602L388.522 216.941C387.166 219.314 386.149 221.348 386.149 223.721C385.81 228.805 388.183 231.517 393.607 232.195L395.98 232.534C393.268 230.839 392.251 228.127 392.59 225.076C392.929 222.365 393.946 220.331 395.98 218.975C398.015 217.619 400.727 216.941 403.778 217.28C407.507 217.619 410.219 218.636 412.254 220.67C414.288 222.704 414.966 225.076 414.966 228.127C414.627 230.839 413.61 232.873 411.236 234.229L413.949 234.568L413.61 238.296L393.607 235.585ZM404.795 232.534C406.49 232.534 407.846 232.195 409.202 231.178C410.558 230.161 411.236 228.805 411.236 227.11C411.236 225.076 410.897 223.382 409.202 222.026C407.846 220.67 405.812 219.992 403.1 219.992C400.727 219.653 399.032 220.331 397.676 221.348C396.319 222.365 395.302 223.721 395.302 225.415C395.302 227.11 395.641 228.805 396.997 230.161C398.354 231.517 400.049 232.195 402.083 232.195L404.795 232.534ZM386.827 262.702L387.844 258.973L391.234 259.651C389.2 257.618 388.183 255.245 388.861 252.533C389.878 247.787 393.607 245.754 399.371 247.109L411.915 249.821L411.236 253.55L399.371 250.838C395.302 249.821 392.59 250.838 391.912 254.228C391.573 255.923 391.912 257.279 392.929 258.634C393.946 259.99 395.302 260.668 396.997 261.007L408.863 263.719L407.846 267.448L386.827 262.702ZM402.083 280.329C402.422 282.701 402.083 285.413 401.405 287.786C399.371 292.532 395.98 293.887 391.234 291.854L378.351 286.769L379.707 283.379L382.758 284.735C381.063 282.362 380.724 279.99 381.741 277.278C382.419 275.244 383.776 273.888 385.132 273.21C386.488 272.532 388.183 272.532 389.878 273.21C393.607 274.566 394.963 277.617 393.607 282.362L392.251 288.464C395.641 289.82 397.676 289.142 398.693 286.43C399.71 284.057 399.71 281.684 398.693 278.973L402.083 280.329ZM390.556 282.701C390.895 281.007 390.895 279.651 390.556 278.973C390.217 277.956 389.539 277.617 388.522 276.939C387.505 276.6 386.827 276.6 385.81 276.939C384.793 277.278 384.454 278.295 383.776 279.312C383.097 280.668 383.097 282.362 383.776 283.718C384.454 285.074 385.471 286.091 387.166 286.769L389.2 287.447L390.556 282.701ZM366.146 312.87L383.097 322.7L385.132 319.31L382.758 317.954C385.471 317.954 387.505 316.598 388.861 314.226C390.217 311.514 390.556 309.141 389.539 306.429C388.522 303.718 386.488 301.684 383.436 299.989C380.724 298.294 378.012 297.955 375.639 298.294C373.266 298.633 371.232 299.989 369.876 302.362C368.18 305.073 368.18 307.785 369.876 310.497L367.841 309.48C363.095 306.768 362.078 303.04 364.79 298.633C365.807 296.599 367.502 295.243 369.876 293.548L366.824 291.854C365.129 293.209 363.434 294.904 362.078 296.938C358.01 303.718 359.366 308.802 366.146 312.87ZM377.673 314.904L374.961 313.548C373.266 312.531 371.91 311.175 371.571 309.48C370.893 307.785 371.232 306.09 371.91 304.734C372.927 303.04 374.283 302.362 375.978 302.023C377.673 301.684 379.707 302.362 381.402 303.379C383.776 304.734 385.132 306.09 385.81 307.785C386.488 309.48 386.488 311.175 385.471 313.209C384.793 314.565 383.436 315.582 381.741 315.921C380.385 315.921 379.029 315.921 377.673 314.904ZM355.637 339.987L364.79 328.123C363.095 326.768 361.061 326.09 359.366 326.429C357.671 326.429 356.315 327.445 354.958 329.14C353.602 331.174 352.585 333.208 352.585 335.581L349.873 333.547C349.873 331.174 350.89 328.801 352.924 326.429C354.958 324.056 356.993 322.7 359.705 322.7C362.417 322.7 365.129 323.378 367.841 325.751C370.554 327.784 371.91 330.157 372.588 332.869C372.927 335.581 372.588 338.293 370.893 340.326C369.197 342.36 367.163 343.716 364.79 343.716C362.417 343.716 360.044 343.038 357.332 341.004L355.637 339.987ZM360.044 338.632C361.4 339.648 363.095 340.326 364.451 340.326C365.807 340.326 367.163 339.648 368.18 338.293C369.197 337.276 369.536 335.92 369.197 334.225C368.858 332.53 368.18 331.174 367.163 329.818L360.044 338.632ZM345.466 342.36L342.754 339.648C341.058 340.326 339.363 341.343 337.668 342.699C335.973 344.394 334.617 346.428 334.278 348.123C333.939 350.157 334.278 351.851 335.634 353.207C336.651 354.224 337.668 354.902 339.024 354.902C340.38 354.902 342.076 354.563 344.449 353.546C346.483 352.868 347.5 352.529 348.178 352.529C348.856 352.529 349.534 352.868 350.212 353.546C350.89 354.224 350.89 354.902 350.89 355.919C350.551 356.936 350.212 357.614 349.195 358.631C347.839 359.987 346.144 361.004 344.11 361.343L346.483 364.054C348.178 363.376 349.534 362.359 350.89 361.343C352.585 359.648 353.602 357.953 353.941 355.919C354.28 353.885 353.941 352.19 352.585 350.834C351.568 349.818 350.551 349.479 349.534 349.14C348.517 348.801 346.483 349.479 344.11 350.157C342.076 350.834 340.719 351.512 340.041 351.512C339.363 351.512 338.346 351.173 338.007 350.834C336.651 349.479 336.99 347.784 339.363 345.75C341.397 343.377 343.093 342.699 345.466 342.36Z" fill-rule="evenodd"  fill="#0E396C" >
</path>
<path d="M216.637 0C276.305 0 330.549 24.4059 369.876 63.3875C409.202 102.708 433.273 156.604 433.273 216.602C433.273 276.261 408.863 330.496 369.876 369.817C330.549 409.137 276.644 433.204 216.637 433.204C156.968 433.204 102.724 408.798 63.3975 369.817C24.4098 330.496 0 276.6 0 216.602C0 156.943 24.4098 102.708 63.3975 63.3875C102.724 24.4059 156.968 0 216.637 0ZM365.468 67.7941C327.497 29.8294 274.949 6.44044 216.637 6.44044C158.663 6.44044 105.776 29.8294 67.8049 68.1331C29.8341 106.098 6.10244 158.638 6.10244 216.602C6.10244 274.566 29.4951 327.446 67.8049 365.41C105.776 403.375 158.324 427.103 216.637 427.103C274.61 427.103 327.497 403.714 365.468 365.41C403.439 327.446 427.171 274.566 427.171 216.602C427.171 158.638 403.439 106.098 365.468 67.7941Z" fill-rule="evenodd"  fill="#0E396C" >
</path>
<path d="M286.814 401.341L294.273 398.29L291.9 392.528L296.307 390.494L293.934 385.409L289.527 387.443L281.729 369.817L272.575 373.884L267.829 395.24L270.88 402.019L284.441 395.918L286.814 401.341ZM273.932 394.223L277.322 378.969L282.407 390.494L273.932 394.223Z" fill-rule="evenodd"  fill="#E17A00" >
</path>
<path d="M249.522 387.104C249.183 379.986 242.402 378.63 238.334 378.63C227.824 378.63 224.773 386.765 224.773 394.901C224.773 399.985 225.79 403.375 227.824 406.087C230.536 410.154 234.605 411.171 238.334 411.171C243.758 411.171 250.878 408.46 250.878 399.985C250.878 393.884 246.81 389.816 240.707 389.816C235.283 389.816 233.588 392.528 232.91 393.545C232.91 391.85 232.91 389.477 233.588 387.443C234.266 385.748 235.622 384.054 237.995 384.054C238.334 384.054 239.351 384.054 240.029 384.732C240.707 385.071 241.385 386.087 241.385 387.443L249.522 387.443L249.522 387.104ZM243.08 399.985C243.08 403.036 241.385 405.07 238.334 405.07C235.961 405.07 233.588 404.053 233.588 399.985C233.588 396.935 235.283 394.562 238.673 394.562C243.08 394.901 243.08 398.968 243.08 399.985Z" fill-rule="evenodd"  fill="#E17A00" >
</path>
<path d="M178.327 399.307C178.327 400.663 177.988 402.697 179.344 404.731C181.378 407.782 184.768 409.137 188.836 409.815C192.566 410.493 196.634 410.154 200.024 407.104C203.076 404.053 204.432 399.646 205.11 396.257C205.449 393.206 205.788 389.816 204.771 386.765C204.093 384.054 202.397 379.308 194.261 377.952C186.463 376.935 181.039 380.325 180.022 386.426C179.683 389.138 180.361 391.85 181.717 393.884C183.073 395.918 185.107 397.273 189.176 397.951C192.905 398.629 194.939 397.273 196.634 395.918C195.617 401.341 194.6 405.07 189.854 404.392C187.48 404.053 186.124 402.358 186.124 400.663L178.327 399.307ZM191.888 392.867C188.497 392.189 187.48 389.477 187.819 387.443C188.158 384.732 190.193 383.037 193.244 383.376C196.973 384.054 197.651 386.765 197.312 388.799C196.973 391.85 195.278 393.545 191.888 392.867Z" fill-rule="evenodd"  fill="#E17A00" >
</path>
<path d="M140.695 394.901L147.476 399.985L165.783 375.24L160.019 370.834C155.612 371.173 153.578 370.834 149.849 369.478L145.78 374.901C147.137 375.579 150.866 376.596 153.917 376.257L140.695 394.901Z" fill-rule="evenodd"  fill="#E17A00" >
</path>
<path d="M159.002 316.259C162.053 318.293 165.444 319.31 169.173 318.971C171.207 318.632 172.902 318.632 173.58 318.293C175.275 317.615 175.953 316.259 175.953 313.887C176.292 306.768 176.292 300.667 175.953 295.921C175.953 291.515 176.971 287.447 178.666 284.057C180.022 281.345 182.056 278.634 184.09 276.261C186.463 273.549 188.497 271.515 190.531 269.482C192.227 268.126 193.922 266.77 195.956 265.414C197.312 264.397 199.346 263.719 202.058 262.702C209.517 260.329 216.975 257.618 224.434 255.245C227.485 254.228 230.197 252.872 232.571 251.177C233.927 250.16 234.944 249.143 235.622 247.787C237.656 243.72 238.673 240.669 239.012 239.313C239.351 237.957 239.351 236.262 239.012 233.89C238.673 231.856 238.334 230.161 237.656 228.466C235.283 222.704 230.875 219.653 224.434 218.975C221.044 218.636 214.941 218.297 206.466 218.636C197.312 218.636 188.497 220.331 180.022 223.72C177.31 224.737 174.258 225.754 171.546 226.771C168.495 227.788 165.783 229.144 163.071 231.178C159.68 233.551 155.612 235.245 151.544 235.923C150.188 236.262 146.119 236.262 139.339 236.262C115.268 236.601 90.8585 236.262 66.7877 235.923C66.7877 235.923 66.7877 235.923 66.7877 235.584C62.3804 203.382 67.4658 173.214 81.7048 145.079C90.5195 127.453 102.385 112.199 117.302 99.3183C121.032 95.9286 125.1 92.8779 129.507 89.8272C157.646 69.8279 189.514 60.3367 224.434 61.6926C229.858 62.0316 234.944 62.3706 240.029 63.0485C262.405 66.4382 283.085 74.2345 301.392 86.4375C321.395 99.6572 337.329 116.606 349.534 136.944C360.044 154.909 366.485 174.231 369.197 195.247C369.197 195.925 368.858 196.264 368.18 196.264L355.636 196.264C355.297 196.264 355.297 196.603 355.297 196.603L355.297 199.315C355.297 199.654 355.636 199.654 355.636 199.654L369.197 199.993C369.536 199.993 369.536 200.331 369.536 200.331C370.214 205.755 370.214 211.518 370.214 216.941C370.214 217.28 369.875 217.619 369.536 217.619L355.297 217.619C354.958 217.619 354.958 217.958 354.958 217.958L354.958 221.687C354.958 222.026 355.297 222.365 355.636 222.365L369.197 222.365C369.536 222.365 369.536 222.704 369.536 222.704C369.536 226.771 368.858 231.178 368.18 235.245C368.18 235.584 367.841 235.584 367.841 235.584L271.558 235.584C271.219 235.584 271.219 235.245 271.219 235.245L271.219 205.416C271.219 205.077 271.558 205.077 271.558 205.077L287.831 204.738C288.171 204.738 288.51 204.399 288.51 204.06C289.188 201.687 288.51 199.993 287.153 198.637C287.153 198.637 285.458 197.62 282.746 196.264C275.288 191.857 267.151 186.095 258.675 179.315C251.556 173.553 246.81 169.485 245.114 167.79C239.351 162.706 235.283 156.604 233.249 149.486C232.232 146.435 231.892 142.368 231.892 137.283C231.892 132.198 231.892 127.453 232.232 122.368C232.232 122.029 232.571 122.029 232.571 122.029C241.385 123.385 248.844 124.741 254.607 126.436C256.98 127.114 260.031 128.131 263.422 129.826C268.846 132.537 273.253 136.605 276.644 141.69C276.983 142.368 278 144.401 279.356 147.113C281.051 150.164 281.729 152.198 282.068 152.537C282.746 154.57 283.085 156.604 282.746 158.977C282.746 162.028 284.102 164.062 286.814 165.079C288.51 165.757 290.544 166.095 292.917 165.757C295.629 165.757 296.985 165.418 297.663 165.418C299.697 164.74 300.375 163.384 300.375 160.672C300.036 154.232 298.68 148.808 295.968 144.062C295.29 142.707 293.595 140.334 291.561 137.283C289.866 134.571 288.171 132.537 286.475 131.182C283.424 128.131 279.695 125.758 275.966 123.724C273.253 122.368 269.524 120.673 264.1 118.64C259.692 116.945 255.624 115.589 251.556 114.911C246.81 113.894 240.707 113.216 233.249 112.538C233.249 112.538 232.571 112.538 231.553 112.538C229.858 112.538 229.18 111.521 229.519 109.487C229.858 106.776 229.858 103.047 229.519 97.9624C229.519 97.9624 229.519 96.9455 229.519 95.2507C229.519 93.8948 229.18 92.5389 228.841 91.522C228.502 90.1661 227.485 89.1492 226.129 89.1492C223.078 88.8103 220.027 88.8103 217.314 89.1492C215.619 89.1492 214.602 89.8272 213.924 91.183C213.585 91.861 213.246 93.2169 213.246 94.5728C213.246 100.335 212.907 106.437 213.246 112.538C213.246 112.877 212.907 113.216 212.568 113.555C208.5 114.233 204.771 114.572 201.38 115.25C195.617 116.606 191.888 117.284 190.192 117.623C182.395 119.318 175.275 122.029 168.495 125.758C163.071 128.809 159.002 131.859 156.29 135.249C150.866 141.69 148.153 149.825 148.832 158.977C148.832 158.977 148.832 159.655 148.832 160.333C148.832 162.028 149.51 163.045 151.205 163.384C152.9 163.723 156.629 164.062 162.053 163.723C162.392 163.723 162.392 163.723 162.732 163.384C163.749 160.672 165.105 156.943 166.461 151.52C168.495 144.74 171.885 139.317 177.31 134.91C180.7 132.198 185.107 129.826 190.871 127.453C197.99 124.741 205.449 123.385 213.246 122.707C213.585 122.707 213.585 122.707 213.585 123.046C213.585 127.114 213.585 131.52 213.246 135.588C212.907 142.029 212.568 145.418 212.568 145.757C212.229 148.13 211.551 150.164 210.873 152.537C210.195 154.57 209.178 156.604 207.483 158.638C203.414 164.401 198.668 169.146 193.583 173.892C185.446 180.671 176.971 186.773 167.478 191.518C163.41 193.552 159.68 195.586 155.951 197.959C153.917 198.976 153.239 201.009 153.917 204.06C153.917 204.399 154.256 204.738 154.595 204.738C157.985 205.077 161.036 205.416 164.088 205.416C166.122 205.416 167.817 205.077 169.512 204.399C178.666 200.331 188.836 194.569 199.007 187.112C207.822 180.671 215.619 173.214 222.061 164.062C223.078 162.706 224.095 162.706 224.773 164.062C231.553 174.231 240.368 182.705 251.217 190.501C256.302 193.891 261.388 197.281 266.812 200.331C267.151 200.331 267.151 200.67 266.812 200.67C265.795 201.009 264.1 201.009 262.744 200.67C261.049 200.67 259.353 200.67 257.658 201.348C255.963 202.026 254.607 203.043 253.59 204.399C251.895 206.772 251.217 209.484 251.217 212.195C250.878 230.839 250.878 252.533 250.878 276.6C250.878 276.6 250.878 281.345 250.878 290.837C250.878 301.345 251.217 311.514 251.556 321.683C251.556 323.039 252.234 323.717 253.929 323.717L272.236 323.378C272.575 323.378 272.575 323.039 272.575 323.039L272.575 244.398C272.575 244.059 272.914 243.72 273.253 243.72L367.502 243.72C367.841 243.72 368.18 244.059 368.18 244.398C363.773 264.736 355.636 283.379 343.771 300.328C331.566 317.276 316.988 331.513 299.019 342.36C281.729 352.868 263.083 359.987 243.419 363.037C238.334 363.715 233.249 364.393 227.824 364.732C200.024 366.088 173.919 360.665 149.51 348.462C144.763 346.089 140.356 343.377 135.949 340.665C117.98 329.14 103.402 314.565 91.5365 296.599C81.0268 280.329 73.5682 263.041 69.4999 244.398C69.4999 244.059 69.4999 244.059 69.839 244.059C91.5365 244.059 112.895 244.059 133.914 244.059C135.949 244.059 137.983 244.059 140.017 244.059C143.407 244.059 145.441 244.059 146.119 244.059C147.136 244.059 148.153 244.059 148.832 244.737C148.832 244.737 149.51 245.415 150.527 246.77C151.205 247.787 152.222 248.465 153.239 248.804C155.612 249.482 157.985 249.482 160.019 248.804C161.375 248.465 163.071 247.109 165.105 245.415C167.478 243.381 169.512 241.686 171.885 239.652C173.919 237.618 175.614 236.601 176.971 236.262C179.005 235.584 180.7 236.262 182.056 237.957C182.734 238.974 183.412 240.33 183.751 242.364C184.768 247.109 185.446 250.838 185.785 254.567C186.124 256.601 185.107 257.956 183.412 258.634C182.734 258.973 182.395 258.973 182.395 258.973C178.666 260.668 174.936 263.041 171.885 266.092C167.139 270.498 163.41 275.244 160.697 280.668C159.341 283.379 158.324 286.43 157.985 289.82C157.646 293.887 157.307 299.65 157.646 307.107C157.646 307.107 157.646 307.785 157.646 309.48C157.646 310.836 157.985 311.852 158.324 313.208C157.307 314.565 157.985 315.581 159.002 316.259ZM82.3829 196.603C82.3829 196.264 82.0438 196.264 82.0438 196.264L67.1268 196.264C66.7877 196.264 66.7877 196.603 66.7877 196.603L66.7877 199.654C66.7877 199.993 67.1268 199.993 67.1268 199.993L82.0438 199.993C82.3829 199.993 82.3829 199.654 82.3829 199.654L82.3829 196.603ZM152.561 196.264L152.561 196.264L107.471 195.925C107.471 195.925 107.132 195.925 107.132 196.264L107.132 199.315C107.132 199.315 107.132 199.654 107.471 199.654L152.222 199.654C152.222 199.654 152.561 199.654 152.561 199.315L152.561 196.264ZM329.192 196.264L329.192 196.264L290.883 195.925C290.883 195.925 290.544 195.925 290.544 196.264L290.544 199.315C290.544 199.315 290.544 199.654 290.883 199.654L329.192 199.654C329.192 199.654 329.531 199.654 329.531 199.315L329.531 196.264L329.192 196.264ZM152.561 217.958C152.561 217.958 152.561 217.619 152.561 217.958L66.1097 217.619C65.7707 217.619 65.7707 217.619 65.7707 217.958L65.7707 222.026C65.7707 222.365 65.7707 222.365 66.1097 222.365L152.222 222.365C152.561 222.365 152.561 222.365 152.561 222.026L152.561 217.958ZM329.531 218.297C329.531 217.958 329.531 217.958 329.531 218.297L290.544 217.958C290.544 217.958 290.205 217.958 290.205 218.297L290.205 222.365C290.205 222.365 290.205 222.704 290.544 222.704L329.192 222.704C329.192 222.704 329.531 222.704 329.531 222.365L329.531 218.297Z" fill-rule="evenodd"  fill="#0E396C" >
</path>
<path d="M221.383 229.483C221.722 229.483 221.722 229.822 222.061 230.161C222.4 232.534 222.4 234.907 222.061 237.279C221.722 239.652 221.722 241.347 221.383 242.364C220.705 243.72 219.688 245.415 218.331 246.771C214.602 250.499 210.195 252.533 205.11 253.211C203.414 253.55 202.058 253.55 200.363 253.889C200.024 253.889 200.024 253.889 200.024 253.55C200.702 245.754 198.329 238.635 193.244 232.873C192.905 232.534 192.905 231.856 193.583 231.517C195.617 231.178 197.651 230.5 199.685 230.161C202.058 229.483 204.092 229.144 205.788 229.144C210.873 227.788 216.297 228.127 221.383 229.483Z" fill-rule="evenodd"  fill="#0E396C" >
</path>
</svg>
