<svg xmlns="http://www.w3.org/2000/svg" xmlns:xlink="http://www.w3.org/1999/xlink" fill="none" version="1.1" width="633.033203125" height="632.6805419921875" viewBox="0 0 633.033203125 632.6805419921875"><g><g transform="matrix(1.0005799531936646,0,0,1,0,0)"><path d="M304.501,0.366566C405.878,-4.44293,482.075,38.8084,533.949,86.9725C587.025,136.269,627.734,207.553,632.337,304.602C634.45,350.22,626.387,395.739,608.736,437.86C578.093,511.377,525.017,565.861,455.21,600.421C415.985,619.972,373.033,630.9,329.235,632.473C226.964,635.908,153.585,596.161,99.238,546.417C71.339,520.573,48.6158,489.655,32.2827,455.311C12.8979,416.028,1.97828,373.11,0.23077,329.337C-3.44506,225.932,37.2983,151.591,86.2866,99.3395C134.131,47.9612,197.95,14.2784,267.364,3.76767C279.672,1.95657,292.069,0.821165,304.501,0.366566ZM98.6539,101.744C48.6007,151.66,10.2964,221.397,10.2964,319.237C10.3271,362.416,19.9242,405.052,38.3977,444.078C53.4748,477.81,74.8599,508.347,101.402,534.05C153.997,583.897,221.983,622.339,319.032,622.339C400.076,622.366,477.65,589.459,533.949,531.164C560.174,505.097,581.339,474.391,596.369,440.608C614.419,400.892,623.44,357.668,622.787,314.049C622.048,270.993,612.471,228.548,594.651,189.346C562.943,120.226,511.584,67.9059,441.159,36.9189C401.337,19.2024,358.185,10.1956,314.601,10.501C216.59,11.4972,147.711,52.5842,98.6539,101.744Z" fill-rule="evenodd" fill="#103775" fill-opacity="1"/></g><g transform="matrix(1.0005799531936646,0,0,1,-0.17311036470346153,0)"><path d="M327.725234375,33.5522004296875C326.179234375,35.5790404296875,322.194234375,35.1324404296875,318.724234375,35.235540429687504C317.350234375,32.5559004296875,311.304234375,28.8114004296875,309.140234375,33.5522004296875C315.392234375,38.945740429687504,327.484234375,36.6440404296875,328.859234375,45.9195404296875C331.366234375,63.0963404296875,298.799224375,64.64224042968749,298.490234375,47.602840429687504C301.925234375,48.0494404296875,303.987244375,46.7783404296875,307.491244375,47.0188404296875C308.487244375,50.694640429687496,315.770234375,55.023240429687505,318.724234375,49.8358404296875C314.911234375,41.3161404296875,295.948244375,46.5722404296875,299.589234375,31.8688004296875C301.994234375,22.1811104296875,325.732234375,21.4597004296875,327.725234375,33.5522004296875Z" fill-rule="evenodd" fill="#103775" fill-opacity="1"/></g><g transform="matrix(1.0005799531936646,0,0,1,-0.1496845600195229,0)"><path d="M274.96885625,27.918212890625C275.96485625,28.983112890625,275.38075625,31.628412890625,275.51875625,33.552212890625C273.52575625,34.342312890625,269.95275625,33.552212890625,270.46885625,36.987512890625C270.84675625,39.426612890625,273.90385625,36.094312890625,274.96885625,37.537212890625C275.27775625,39.873212890625,275.79375625,42.003212890625,276.10285625,44.407912890625C274.28175625,44.064412890625,273.49175625,44.785812890624996,272.15175625,44.957612890625C272.66785625,50.405012890625,273.60975625,55.803712890625,274.96885625,61.103812890625C271.94575625,62.422312890625,268.71175625,63.190112890625,265.41879625,63.371112890625C264.59380625,57.599712890625,263.32281625,52.343612890624996,262.60180625,46.469112890625C260.84979625,46.263012890625,259.92181625,47.774612890625,258.68481425,46.469112890625C259.09780625,43.823912890624996,258.03280635,42.621512890625,258.10079956,40.285512890625C258.92678825,39.728312890625,259.94378625,39.529712890625,260.91781625,39.735812890625C258.99481225,29.326712890625,266.17480625,27.918212890625,274.96885625,27.918212890625Z" fill-rule="evenodd" fill="#103775" fill-opacity="1"/></g><g transform="matrix(1.0005799531936646,0,0,1,-0.21474126260727644,0)"><path d="M380.6369375,32.41854890625C380.8089375,35.029448906249996,379.5039375,36.16304890625,379.5039375,38.60214890625C375.7929375,38.60214890625,373.8349275,37.12494890625,370.5029295,36.91884890625C368.8879375,28.74274890625,376.1709275,30.94134520625,380.6369375,32.41854890625Z" fill-rule="evenodd" fill="#103775" fill-opacity="1"/></g><g transform="matrix(1.0005799531936646,0,0,1,-0.19297602702863514,0)"><path d="M360.896540625,45.335563671875L353.029540625,45.335563671875C348.632540625,36.094323671875,337.742550625,48.289963671875,345.128540625,53.786563671875C349.663540625,54.748463671875,350.728540625,52.240563671875,353.029540625,50.969563671875C355.125540625,52.240563671875,358.904540625,51.862663671875,360.896540625,53.236863671875C357.117540625,62.237463671875,343.719540625,63.542963671875,336.849550625,57.153163671875C327.573580625,48.873963671875,334.925570625,33.380423671875,349.800540625,35.235526671875C355.262540625,35.956928671875,360.278540625,38.499123671875,360.896540625,45.335563671875Z" fill-rule="evenodd" fill="#103775" fill-opacity="1"/></g><g transform="matrix(1.0005799531936646,0,0,1,-0.2113057195674628,0)"><path d="M369.948609375,39.15185546875C372.628629375,40.21685546875,376.166609375,40.45725546875,378.915609375,41.41915546875C376.785609375,49.01135546875,375.273609375,57.25625546875,373.315609375,65.05445546875L364.349609375,62.78715546875C365.798619375,54.81575546875,367.667629375,46.92645546875,369.948609375,39.15185546875Z" fill-rule="evenodd" fill="#103775" fill-opacity="1"/></g><g transform="matrix(1.0005799531936646,0,0,1,-0.13301543658599257,0)"><path d="M242.76376875,43.6520581015625C252.21076875,42.4497641015625,261.00576875,50.1105641015625,256.84876875,61.1037541015625C251.90176875,74.0550541015625,223.62874875,71.06625410156249,230.39574875,51.5534541015625C231.66775875,47.8432541015625,236.06473875,44.5452541015625,242.76376875,43.6520581015625ZM244.44676875,62.2373541015625C249.90876875,61.9282541015625,248.60376875,54.6795541015625,246.12976875,50.9694541015625C237.16373875,46.1255641015625,237.16373875,62.649654101562504,244.44676875,62.2373541015625Z" fill-rule="evenodd" fill="#103775" fill-opacity="1"/></g><g transform="matrix(1.0005799531936646,0,0,1,-0.2202451543416828,0)"><path d="M407.060371875,63.3710931640625C401.168371875,62.2054931640625,395.352371875,60.6914931640625,389.643401875,58.8363931640625C388.200381875,61.0006931640625,390.467371875,63.4054931640625,391.876371875,64.4703931640625C396.490371875,63.2058931640625,401.430371875,64.03519316406249,405.377371875,66.7377931640625C392.941371875,79.0019931640625,371.023371875,61.3098931640625,383.459381875,48.1525131640625C391.841371875,39.1175131640625,414.103371875,47.8776131640625,407.060371875,63.3710931640625ZM390.742371875,54.336113164062496C393.284371875,55.0231931640625,397.201371875,56.7064931640625,399.193371875,56.0193931640625C400.155371875,50.2137131640625,391.361371875,49.2518131640625,390.742371875,54.336113164062496Z" fill-rule="evenodd" fill="#103775" fill-opacity="1"/></g><g transform="matrix(1.0005799531936646,0,0,1,-0.2371419547125697,0)"><path d="M418.3454575,52.6871337890625C420.9904375,53.7521237890625,423.3614375,55.1263337890625,426.2124375,56.1225237890625C426.2124375,57.7715337890625,424.9414375,57.8745337890625,425.0784375,59.5579337890625C427.2084375,58.5145337890625,429.5964375,58.120233789062496,431.9494375,58.4242337890625C445.6914375,60.1419337890625,435.1784375,78.0058337890625,431.9494375,84.8424337890625C429.0194375,84.0344337890625,426.1924375,82.8804337890625,423.5334375,81.4068337890625C423.8424375,76.6316337890625,433.4954375,64.8827337890625,426.3504375,63.9551337890625C421.0934375,63.2681337890625,420.5094375,74.2612337890625,417.34945749999997,78.0058337890625C413.6394375,78.0058337890625,412.1274375,75.7384337890625,408.8984375,75.1888337890625C411.4544375,67.4530337890625,414.6144375,59.9296337890625,418.3454575,52.6871337890625Z" fill-rule="evenodd" fill="#103775" fill-opacity="1"/></g><g transform="matrix(1.0005799531936646,0,0,1,-0.10586977587081492,0)"><path d="M208.416828125,56.0194091796875C208.176828125,71.1694091796875,216.524828125,96.0074091796875,198.316828125,96.5564091796875C196.015828125,95.8354091796875,196.084828125,92.74340917968749,194.366828125,91.4724091796875C212.985828125,86.7314091796875,184.506838125,73.67720917968751,182.548828125,66.7378091796875C185.375838125,66.1026091796875,188.05782812500001,64.9370091796875,190.450838125,63.3024091796875C195.396828125,65.8446091796875,197.320828125,71.3412091796875,201.683828125,74.5360091796875C201.683828125,68.9364091796875,200.034828125,64.9170091796875,200.000828125,59.351709179687504C202.662828125,57.9079091796875,205.487828125,56.7890091796875,208.416828125,56.0194091796875Z" fill-rule="evenodd" fill="#103775" fill-opacity="1"/></g><g transform="matrix(1.0005799531936646,0,0,1,-0.09509873110800982,0)"><path d="M169.6208825,65.054443359375C172.6788825,66.085143359375,173.0568725,69.932743359375,174.6708625,72.371853359375C176.7668625,71.993953359375,177.4538625,70.241843359375,179.7208625,70.104443359375C180.0988625,72.749743359375,182.2978625,73.539843359375,182.5378625,76.288143359375C180.6828625,76.288143359375,180.6488625,78.108843359375,178.6218625,77.971443359375C179.7608625,81.246043359375,181.4708625,84.293443359375,183.6718625,86.972443359375C186.4888625,87.727443359375,186.0768625,85.220443359375,188.1718625,85.254443359375C189.0308625,87.125443359375,190.1918625,88.843443359375,191.6078625,90.33844335937499C188.1718625,93.12144335937501,185.4578625,96.591443359375,178.6558625,95.972443359375C175.3978625,92.291443359375,172.7428725,88.117443359375,170.7888825,83.605443359375C168.5218825,83.055443359375,169.1058825,85.254443359375,166.8388825,84.704443359375C166.3798825,82.795443359375,165.4048725,81.048143359375,164.0218811,79.654743359375C163.6088715,77.559243359375,166.1508825,78.418043359375,166.2888825,76.872143359375C166.4258725,75.326243359375,164.4338835,74.948353359375,164.5708775,72.921443359375C166.7408725,70.645543359375,168.4558725,67.975253359375,169.6208825,65.054443359375Z" fill-rule="evenodd" fill="#103775" fill-opacity="1"/></g><g transform="matrix(1.0005799531936646,0,0,1,-0.2547602984122932,0)"><path d="M467.45344375,86.3884283203125C464.56834375,85.7013283203125,462.54134375,84.1893283203125,459.55244375,83.6053283203125C458.72834375,70.7570803203125,441.48239375,83.6053283203125,451.13534375,89.2394283203125C458.00634375,87.4874283203125,459.55244375,89.8924283203125,463.50334375,93.1903283203125C455.91134375,102.1223283203125,440.45239375,93.1903283203125,439.45538375,84.7043283203125C436.53537375,64.5047783203125,470.54534375000003,66.7377783203125,467.45344375,86.3884283203125Z" fill-rule="evenodd" fill="#103775" fill-opacity="1"/></g><g transform="matrix(1.0005799531936646,0,0,1,-0.042507624020799994,0)"><path d="M309.008921875,73.4711225546875C383.967921875,70.0357235546875,445.563921875,103.5993935546875,484.486921875,140.3923935546875C524.9559218750001,178.6623935546875,555.7019218749999,233.6623935546875,559.274921875,308.7243935546875C562.623921875,373.8493935546875,538.322921875,437.3623935546875,492.353921875,483.6193935546875C452.297921875,524.0873935546874,399.255921875,557.4793935546875,325.36092187500003,559.5403935546875C246.690921875,561.7393935546875,190.797921875,531.4393935546875,148.74902187499998,492.6193935546875C102.078021875,449.1113935546875,74.918851875,388.6243935546875,73.411452875,324.8363935546875C71.144051875,244.1403935546875,102.268021875,189.7583935546875,140.332021875,148.8433935546875C171.341021875,115.86139355468751,211.144921875,92.4483935546875,255.038921875,81.3724235546875C272.69092187499996,76.7979235546875,290.785921875,74.1485215546875,309.008921875,73.4711225546875ZM148.199021875,152.2093935546875C109.448021875,191.06339355468748,81.278451875,245.6853935546875,81.278451875,320.3703935546875C81.278451875,393.6123935546875,115.357021875,447.7883935546875,152.116021875,484.5813935546875C191.449921875,523.8813935546875,246.587921875,551.5023935546875,319.726921875,551.5023935546875C381.961921875,551.4233935546874,441.486921875,526.0393935546874,484.623921875,481.1803935546875C521.244921875,443.8033935546875,553.7439218750001,387.1193935546875,552.094921875,313.6033935546875C551.610921875,251.4603935546875,526.3019218750001,192.0893935546875,481.806921875,148.7053935546875C437.356921875,104.08739355468751,376.502921875,79.7351235546875,313.542921875,81.3724235546875C238.308921875,83.1244235546875,186.12592187500002,114.2833935546875,148.199021875,152.2093935546875Z" fill-rule="evenodd" fill="#103775" fill-opacity="1"/></g><g transform="matrix(1.0005799531936646,0,0,1,-0.0845984066836536,0)"><path d="M156.69209375,80.2387520703125C155.28410374999999,82.9873620703125,151.74510375,83.6743520703125,149.82209375,85.8383520703125C147.85510375,84.5273620703125,146.44709775,82.5313520703125,145.87109375,80.2387520703125C149.58110375,77.4904520703125,154.90609375,73.1275520703125,156.69209375,80.2387520703125Z" fill-rule="evenodd" fill="#103775" fill-opacity="1"/></g><g transform="matrix(1.0005799531936646,0,0,1,-0.0877088587731123,0)"><path d="M172.430375,102.740419921875C169.825375,104.23841992187499,167.333375,105.926419921875,164.97537499999999,107.790419921875C159.960375,101.744419921875,156.112365,94.667419921875,151.234375,88.655419921875C152.746365,86.078409921875,156.044375,85.220409921875,158.105365,83.055419921875C163.876375,88.380419921875,167.758375,95.938419921875,172.430375,102.740419921875Z" fill-rule="evenodd" fill="#103775" fill-opacity="1"/></g><g transform="matrix(1.0005799531936646,0,0,1,-0.27017889777198434,0)"><path d="M489.79958125,111.7064548828125C484.13158125,108.9244548828125,480.38658125,104.1834548828125,475.16562125,101.0574548828125C470.59662125,109.7484548828125,487.49858125000003,108.0994548828125,486.39858125,115.0734548828125C477.50158125,118.0624548828125,467.22961125,109.5084548828125,466.16461225,103.8744548828125C462.48862125,84.2584548828125,493.64758125000003,84.0524548828125,494.26558125,101.6064548828125C494.50658125,106.1754548828125,492.51358125,108.0994548828125,489.79958125,111.7064548828125ZM478.53158125,97.6904548828125C480.90258125,99.0644548828125,482.24258125,101.43545488281251,485.40258125,102.1564548828125C488.87258125,97.1404548828125,480.21558125,92.3654548828125,478.53158125,97.6904548828125Z" fill-rule="evenodd" fill="#103775" fill-opacity="1"/></g><g transform="matrix(1.0005799531936646,0,0,1,-0.07513905293308198,0)"><path d="M148.232346875,95.97246515625C148.954346875,98.54946015625,144.247346875,100.12946015625,143.148346875,102.84346015625C140.056346875,101.77847015625,136.930316875,103.04946015625,136.964306875,106.75946015625C143.251346875,107.89346015625,145.175346875,99.33946015625,153.282346875,101.70946015625C165.40934687499998,105.14546015625,150.122346875,129.39846015625,137.548306875,121.94446015625C138.132306875,118.50846015625,141.190346875,117.34046015625,143.148346875,115.07346015625001C145.484346875,115.07346015625001,150.603346875,115.07346015625001,150.465346875,111.15746015625C146.480346875,107.72146015625,142.289346875,114.79846015625,137.548306875,115.07346015625001C133.804306875,115.69046015625,130.269301875,113.15546015625,129.652313275,109.41146015625C129.531311075,108.68146015625,129.530303975,107.93646015625,129.647308375,107.20646015625C130.162307875,100.98846015625,139.850346875,92.98446015625,148.232346875,95.97246515625Z" fill-rule="evenodd" fill="#103775" fill-opacity="1"/></g><g transform="matrix(1.0005799531936646,0,0,1,-0.0640259264037013,0)"><path d="M126.2694375,116.7563762890625C126.2694375,118.9893762890625,123.5554375,118.5433762890625,123.4524375,120.7073862890625C124.3804375,127.5783462890625,130.3234375,129.1923462890625,133.5874375,133.6583462890625C132.0884375,136.6233462890625,129.68143750000002,139.0313462890625,126.7164375,140.5293462890625C121.6664375,134.7233462890625,115.2074375,130.2233462890625,110.3984375,124.2113462890625C112.1844375,121.6003762890625,114.7264375,116.6533862890625,118.2654375,119.1613762890625C116.0664375,112.4283752890625,126.3724375,107.8593762890625,126.2694375,116.7563762890625Z" fill-rule="evenodd" fill="#103775" fill-opacity="1"/></g><g transform="matrix(1.0005799531936646,0,0,1,-0.2914683904964477,0)"><path d="M525.893265625,136.441420703125C524.622265625,137.231420703125,525.687265625,140.357420703125,525.343165625,142.075420703125C526.202165625,143.827420703125,527.748165625,140.426420703125,528.778165625,142.075420703125C529.088265625,144.961420703125,531.389165625,145.85442070312502,531.595165625,148.946420703125C529.428165625,149.348420703125,527.339165625,150.102420703125,525.412165625,151.179420703125C526.271165625,152.381420703125,525.790165625,154.923420703125,526.511165625,156.22942070312502C523.962165625,157.105420703125,521.193165625,157.105420703125,518.644165625,156.22942070312502C517.510265625,155.335420703125,518.644165625,152.106420703125,517.545165625,151.179420703125C514.316165625,148.70542070312501,504.353205625,143.621420703125,502.910186625,137.128420703125C500.746185625,127.303420703125,509.369205625,121.909420703125,517.545165625,126.444430703125C519.572165625,123.009430703125,519.262165625,120.570420703125,521.461165625,119.127430703125C535.718165625,109.645430703125,547.432265625,145.098420703125,525.893265625,136.441420703125ZM525.893265625,130.257420703125C527.816165625,130.257420703125,530.462165625,130.704420703125,531.527165625,129.708420703125C531.623165625,128.364420703125,531.424265625,127.015430703125,530.943165625,125.757430703125C527.473165625,123.936420703125,525.171165625,126.410430703125,525.893265625,130.257420703125ZM516.892165625,142.075420703125C516.617265625,138.983420703125,517.510265625,134.723420703125,516.342165625,132.525420703125C507.823185625,131.631420703125,510.365205625,142.659420703125,516.789165625,142.075420703125L516.892165625,142.075420703125Z" fill-rule="evenodd" fill="#103775" fill-opacity="1"/></g><g transform="matrix(1.0005799531936646,0,0,1,-0.05369777558371425,0)"><path d="M116.84594375,137.0254202734375C113.34994375,141.9014302734375,109.59994375,146.5914802734375,105.61294375,151.0764802734375C106.50594375,152.8963802734375,109.32294375000001,152.4153802734375,110.11294375,152.2093802734375C113.17094374999999,151.3853802734375,111.24694375,148.7743802734375,112.92994375,145.9913802734375C114.61294375,143.2093802734375,118.66694375,142.1444202734375,118.52994375,139.8424202734375C123.37394375,149.4273802734375,114.71594375000001,160.6953802734375,105.61294375,160.66048027343749C98.27168375,160.5103802734375,92.44258075,154.4373802734375,92.59268188,147.0963802734375C92.60028075,146.7273802734375,92.62328335,146.3583802734375,92.66138455,145.9913802734375C93.79508375,135.3424202734375,107.94894375,127.4404302734375,116.84594375,137.0254202734375ZM101.11198375000001,148.2593802734375C104.34194375,147.2283802734375,105.09694375,143.6553802734375,107.29594374999999,141.3884302734375C105.39894375,139.6424302734375,102.44598375,139.7654302734375,100.69998375,141.6634202734375C98.95468375,143.5603802734375,99.07758375,146.5133802734375,100.97498375,148.2593802734375L101.11198375000001,148.2593802734375Z" fill-rule="evenodd" fill="#103775" fill-opacity="1"/></g><g transform="matrix(1.0005799531936646,0,0,1,-0.04133978858590126,0)"><path d="M85.91595,152.7593994140625C92.44315,158.22138941406251,95.80975000000001,166.8783994140625,101.09985,173.5773994140625C100.61885,177.0133994140625,97.93975,177.9063994140625,97.14955,180.8953994140625C88.32065,179.6233994140625,80.17886,177.4593994140625,71.28125,176.3943994140625C72.48365,172.9593994140625,74.95715,171.0693994140625,76.36565,167.9433994140625C81.24385,169.0433994140625,85.60675,170.6573994140625,90.41625,171.8943994140625C89.28255,168.6993994140625,84.54175000000001,164.2673994140625,81.96525,160.6603994140625C82.17135,157.0533894140625,85.26325,156.1943994140625,85.91595,152.7593994140625Z" fill-rule="evenodd" fill="#103775" fill-opacity="1"/></g><g transform="matrix(1.0005799531936646,0,0,1,-0.31211789580993354,0)"><path d="M576.997734375,184.81141796875C574.860734375,185.81141796875,572.792734375,186.95941796875,570.813734375,188.24641796875C567.618734375,186.90641796875,566.656734375,183.36841796875,565.179734375,180.37941796875C557.659734375,183.76141796875,550.500734375,187.89341796875,543.811704375,192.71241796875C541.183714375,190.03541796874998,539.249754375,186.75741796875,538.177734375,183.16241796875C545.666744375,179.72641796875,551.472734375,174.71141796875,558.995734375,171.37941796875C557.862734375,167.60041796875,555.182734375,165.43542796875,553.945734375,161.79441796875C556.175734375,160.77541796875,558.253734375,159.45742796875,560.129734375,157.87841796875C567.137734375,165.57342796875,571.637734375,175.57041796875,576.997734375,184.81141796875Z" fill-rule="evenodd" fill="#103775" fill-opacity="1"/></g><g transform="matrix(1.0005799531936646,0,0,1,-0.03276735544204712,0)"><path d="M66.08459,179.21145546875C65.1739,182.01945546875,63.8417,184.67144546875,62.134,187.07845546875C59.7979,186.80345546875,58.870400000000004,185.12045546875,56.5,184.81144546875C57.5649,179.58944546875,61.5843,173.33744546875,66.08459,179.21145546875Z" fill-rule="evenodd" fill="#103775" fill-opacity="1"/></g><g transform="matrix(1.0005799531936646,0,0,1,-0.0374319008551538,0)"><path d="M89.68986875,191.613458984375C88.83346875000001,194.410458984375,87.55926875,197.063458984375,85.91096875,199.480458984375C78.11266875,196.525458984375,71.86037875,192.128458984375,64.54296875,188.762448984375C65.84976875,185.857448984375,67.35346875,183.045458984375,69.04336875,180.345458984375C75.87966875000001,184.192458984375,82.88786875,187.628448984375,89.68986875,191.613458984375Z" fill-rule="evenodd" fill="#103775" fill-opacity="1"/></g><g transform="matrix(1.0005799531936646,0,0,1,-0.3196301020216197,0)"><path d="M568.003159375,222.4623685546875C566.045259375,217.0073685546875,563.595259375,211.7403685546875,560.686219375,206.7283685546875C553.815189375,212.6373685546875,566.148159375,216.3473685546875,565.186259375,223.5963685546875C556.326229375,222.4223685546875,550.098209375,214.2883685546875,551.273193375,205.4293685546875C551.365234375,204.7324085546875,551.503173375,204.0414085546875,551.685180375,203.3624085546875C554.330199375,195.0144042546875,567.281159375,192.0254085546875,573.637159375,198.8964085546875C580.508159375,206.3513685546875,579.821259375,220.67636855468749,568.003159375,222.4623685546875ZM568.553259375,211.8133685546875C573.499159375,211.0573685546875,571.6102593749999,202.1254085546875,565.7361593749999,203.9464085546875C565.048259375,206.1443685546875,567.625159375,209.3743685546875,568.553259375,211.6753685546875L568.553259375,211.8133685546875Z" fill-rule="evenodd" fill="#103775" fill-opacity="1"/></g><g transform="matrix(1.0005799531936646,0,0,1,-0.02979736076667905,0)"><path d="M82.94990625,205.0794523828125C81.95360625,208.0344523828125,80.57950625000001,210.6104423828125,79.51450625,213.4964423828125C73.60570625,212.4664423828125,70.41080625000001,208.7214523828125,63.78050625,208.4464523828125C58.421406250000004,215.7294423828125,72.16280625,217.0694423828125,76.76620625,219.6804423828125C75.94140625,222.7934423828125,74.78990625,225.8094423828125,73.33090625,228.6804423828125C66.08220625,225.6234423828125,58.52440625,222.8404423828125,51.37890625,219.6804423828125C51.93370825,216.88244238281248,52.90630625,214.1844423828125,54.26460625,211.6754423828125C55.84490625,211.1944423828125,55.70740625,212.4664423828125,57.08160625,212.2254423828125C56.94490625,210.67444238281252,56.56220625,209.1554423828125,55.94790625,207.7254523828125C56.97850625,191.6824523828125,75.18600624999999,201.3694623828125,82.94990625,205.0794523828125Z" fill-rule="evenodd" fill="#103775" fill-opacity="1"/></g><g transform="matrix(1.0005799531936646,0,0,1,-0.017776924651116133,0)"><path d="M30.65234375,255.682458984375C31.54554375,252.247458984375,32.64494375,249.052458984375,33.43504375,245.376458984375C40.85544375,247.12845898437502,62.01724375,257.057458984375,60.43704375,244.827458984375C59.406343750000005,236.857458984375,42.74484375,239.330458984375,36.83604375,234.521448984375C37.35134375,231.085448984375,38.51934375,228.337448984375,39.06904375,224.970458984375C49.615643750000004,228.406448984375,67.23904375000001,228.406448984375,68.88794375,240.704458984375C70.05604375,249.636458984375,65.04034375,260.423458984375,56.48634375,261.523458984375C46.42074375,263.206458984375,40.13394375,256.335458984375,30.65234375,255.682458984375Z" fill-rule="evenodd" fill="#103775" fill-opacity="1"/></g><g transform="matrix(1.0005799531936646,0,0,1,-0.32654876238666475,0)"><path d="M583.194846875,251.148488671875C583.194846875,247.712488671875,580.377846875,247.438488671875,580.377846875,244.277488671875C580.377846875,243.006488671875,582.507846875,241.494488671875,582.061846875,239.261488671875C579.724846875,227.409458671875,560.486816875,242.868488671875,575.190846875,245.411488671875C574.9158468749999,248.846488671875,576.907846875,252.04148867187502,575.739846875,254.411488671875C557.601806875,253.037488671875,559.078856875,221.569458671875,579.175846875,225.726455671875C586.286846875,227.203458671875,589.309846875,235.51748867187501,588.759846875,245.995488671875C587.076846875,247.953488671875,586.595846875,251.010488671875,583.194846875,251.148488671875Z" fill-rule="evenodd" fill="#103775" fill-opacity="1"/></g><g transform="matrix(1.0005799531936646,0,0,1,-0.330079453997314,0)"><path d="M603.4324375,262.4163796484375C599.9764375,263.6083696484375,596.3904375,264.3693896484375,592.7484375,264.6833896484375C604.8414375,278.4243896484375,587.1834375,284.4363896484375,573.6484375,284.9173896484375C573.6484375,281.4823896484375,571.9994475,279.0433896484375,571.9304175,275.3673896484375C577.5994275,273.6843896484375,589.6224375,275.3673896484375,587.6984375,268.0843896484375C583.7484375,264.8553896484375,576.2934575,268.7373896484375,570.8314175,269.1833896484375C569.8414305,266.0913896484375,569.2754515,262.8783896484375,569.1484375,259.6333896484375C580.2444375,258.3283696484375,591.7874375,254.5493776484375,601.7494375,253.9993896484375C602.0694375,256.8483896484375,602.6324375,259.6643696484375,603.4324375,262.4163796484375Z" fill-rule="evenodd" fill="#103775" fill-opacity="1"/></g><g transform="matrix(1.0005799531936646,0,0,1,-0.01969688688404858,0)"><path d="M59.888190625,286.0514243359375C59.989890625,289.2844243359375,59.607890624999996,292.5154143359375,58.754490625,295.6364443359375C53.154890625,295.1894443359375,41.577700625,291.6163943359375,41.886900625,297.2854443359375C42.196090625,302.9534443359375,53.120490625,300.1024443359375,58.754490625,302.3354443359375C57.723890624999996,304.7054443359375,58.754490625,309.2054443359375,57.620890625,311.3704443359375C49.685190625000004,310.6834443359375,41.646400625,310.0994443359375,33.985496525,309.1024443359375C34.432094625,305.6674443359375,32.473990625,299.6894443359375,37.420890625,300.6514443359375C35.062190625,297.6244443359375,34.044494625,293.7644043359375,34.603896625,289.9674043359375C36.768200625,281.2763943359375,51.231090625,285.4334103359375,59.888190625,286.0514243359375Z" fill-rule="evenodd" fill="#103775" fill-opacity="1"/></g><g transform="matrix(1.0005799531936646,0,0,1,-0.3326439345255494,0)"><path d="M597.8000125,288.318359375C596.7699125,291.754329375,600.9949125,297.731349375,595.5669125,297.285339375C598.8279125,300.512359375,600.2909125,305.136359375,599.4839125,309.652359375C596.0480125,316.282359375,584.2989125,314.358359375,575.8829325,315.870359375C574.9899925,313.362359375,575.8829325,309.274359375,574.7489625,306.869359375C579.9369525,303.984359375,592.7159125000001,308.037359375,591.6169125,301.235359375C590.7239125,295.636349375,580.5889925,300.583359375,574.1999515,299.552359375C574.5769625,296.11733937500003,573.2379765,294.124359375,573.6499634,290.551359375C581.3449725,289.452359375,589.4869125,288.799347375,597.8000125,288.318359375Z" fill-rule="evenodd" fill="#103775" fill-opacity="1"/></g><g transform="matrix(1.0005799531936646,0,0,1,-0.014427468413487077,0)"><path d="M31.198053125,316.969451921875C31.679053125,321.332432421875,31.507253125,321.160432421875,31.747753125,325.970432421875C30.407953125,327.035432421875,27.247353125,326.313442421875,24.876953125,326.554442421875L24.876953125,317.553436421875C26.216753125,316.488433421875,29.136853125000002,317.175445421875,31.198053125,316.969451921875Z" fill-rule="evenodd" fill="#103775" fill-opacity="1"/></g><g transform="matrix(1.0005799531936646,0,0,1,-0.019787504570558667,0)"><path d="M58.205640625,316.969482421875L58.205640625,325.970462421875C50.206040625,326.599452421875,42.178590625,326.791472421875,34.157993325,326.554472421875C34.467193625,323.462462421875,33.573993625,319.168452421875,34.741992625,316.969482421875L58.205640625,316.969482421875Z" fill-rule="evenodd" fill="#103775" fill-opacity="1"/></g><g transform="matrix(1.0005799531936646,0,0,1,-0.33285008976235986,0)"><path d="M591.20558125,347.92234453125C569.45959125,352.35434453125,569.66559125,322.80935453125,583.88757125,320.43936153125C599.00358125,317.75933453125,605.18758125,340.74234453125,591.20558125,347.92234453125ZM580.52154125,334.97134453125C581.24255125,339.36834453125,588.86958125,339.74634453125,592.33858125,336.68834453125L592.33858125,332.15434453125C588.14758125,328.23733453125,579.42157125,329.33734453125,580.38354125,334.97134453125L580.52154125,334.97134453125Z" fill-rule="evenodd" fill="#103775" fill-opacity="1"/></g><g transform="matrix(1.0005799531936646,0,0,1,-0.020009517902508378,0)"><path d="M68.305153125,346.2394283203125C64.698053125,345.9294283203125,60.919153125,345.7584283203125,60.987853125,341.7043783203125C53.430053125,341.1203883203125,44.223233125,343.1813283203125,35.119533125,342.8384283203125C35.531833125,339.4023783203125,34.192032125,337.4103683203125,34.569931025,333.8373683203125C47.761753125,333.5623783203125,74.557553125,324.5613683203125,68.305153125,346.2394283203125Z" fill-rule="evenodd" fill="#103775" fill-opacity="1"/></g><g transform="matrix(1.0005799531936646,0,0,1,-0.014707250520586967,0)"><path d="M32.297985,333.83737184375C32.180685,336.85037234375,32.376385,339.86636234375,32.881985,342.83838234375C30.669885,343.57336234375,28.315485,343.77237234375,26.011282,343.42236234375C26.389185,339.98639234375,25.049383,337.99438234375,25.4272823,334.42138634375C26.938885,333.35638434375,30.064985,334.04336534375,32.297985,333.83737184375Z" fill-rule="evenodd" fill="#103775" fill-opacity="1"/></g><g transform="matrix(1.0005799531936646,0,0,1,-0.02100178156979382,0)"><path d="M58.756190625,346.7884521484375C60.748690624999995,348.7464321484375,60.233390625,353.1784321484375,60.989190625,356.3734421484375C55.939190624999995,358.1944521484375,47.694290625,356.8884521484375,44.705600625,360.8394521484375C45.461410625,369.49645214843747,55.939190624999995,362.3164521484375,62.122890625,363.1064521484375C62.915090625000005,366.0614521484375,63.489090625,369.0704521484375,63.840590625000004,372.1074521484375C55.973590625,373.4124521484375,48.656190625,375.3364521484375,40.205310625,376.0584521484375C39.312100625,373.7564521484375,39.346400625,370.4924521484375,38.487610625,368.1564521484375C39.586910625,367.9164521484375,39.896110625,366.9544521484375,41.304600625,367.0234521484375C38.556300625,363.93145214843753,35.842304625,361.2854521484375,36.254604325,356.9234521484375C37.113403625,347.8194321484375,50.854890624999996,349.7084321484375,58.756190625,346.7884521484375Z" fill-rule="evenodd" fill="#103775" fill-opacity="1"/></g><g transform="matrix(1.0005799531936646,0,0,1,-0.33137415419332683,0)"><path d="M573.064879375,351.83837890625C584.023859375,353.62536890625,594.638859375,355.78936890625,605.700859375,357.50738890625C605.494859375,360.94237890625,604.497859375,363.75937890625,604.016859375,367.02337890625C593.195859375,365.09937890625,582.614859375,362.93437890625,571.380859375,361.38936890625C571.707885375,358.17037890625,572.270874375,354.97835890625,573.064879375,351.83837890625Z" fill-rule="evenodd" fill="#103775" fill-opacity="1"/></g><g transform="matrix(1.0005799531936646,0,0,1,-0.3286476945504546,0)"><path d="M578.6967875,368.15634153125C594.6027875,366.91933953125,596.4577875,393.02836953125,582.1317875,395.63936953125C563.7188075,399.17836953125,560.7637975,369.70235953125,578.6967875,368.15634153125ZM573.0628075,382.20736953125C573.6127975,385.98636953125,581.2387875,387.94436953125,584.8807875,384.47436953125L584.8807875,380.00836953125C581.1697875,375.95434953125,572.2377975,376.16134953125,573.0628075,382.20736953125Z" fill-rule="evenodd" fill="#103775" fill-opacity="1"/></g><g transform="matrix(1.0005799531936646,0,0,1,-0.02513281535357237,0)"><path d="M64.3947375,376.058349609375C65.4597375,378.978329609375,68.7233375,384.886349609375,64.94443749999999,386.157349609375C72.5022375,389.593349609375,73.2923375,407.663349609375,61.509037500000005,404.708349609375C55.8407375,403.26634960937497,56.3216375,393.509349609375,51.2029375,390.074349609375C47.0461375,392.582349609375,51.2029375,397.666349609375,54.0199375,398.490349609375C54.0828375,401.149349609375,54.4634375,403.791349609375,55.1536375,406.357349609375C44.4009375,406.357349609375,43.6108365,396.051349609375,43.3359375,385.745359609375C47.3210375,379.184359609375,58.7607375,380.558349609375,64.3947375,376.058349609375ZM57.0774375,388.975349609375C58.795137499999996,391.551349609375,58.7607375,395.845349609375,63.9481375,395.158349609375C65.0605375,392.726349609375,63.9900375,389.851349609375,61.557137499999996,388.737349609375C60.115337499999995,388.078349609375,58.4419375,388.167349609375,57.0774375,388.975349609375Z" fill-rule="evenodd" fill="#103775" fill-opacity="1"/></g><g transform="matrix(1.0005799531936646,0,0,1,-0.3175175772048533,0)"><path d="M562.36698125,395.7084046484375C563.01998125,402.5794046484375,547.28601025,408.3504146484375,560.13408125,412.5754146484375C559.83798125,409.3504146484375,560.21298125,406.1004146484375,561.23308125,403.0254246484375C569.78698125,388.8374046484375,596.34298125,411.8884146484375,577.00198125,419.3094146484375C577.00198125,420.4774146484375,579.09698125,419.8584146484375,579.2339812499999,421.0264146484375C578.30698125,423.6724146484375,577.41398125,426.3174146484375,576.45198125,428.8934146484375C569.27208125,423.7064146484375,550.06799125,423.9464146484375,547.76702925,414.2594146484375C546.04901125,407.1484146484375,552.43902125,391.5514246484375,562.36698125,395.7084046484375ZM575.31798125,411.4424146484375C574.66498125,408.8654146484375,568.92798125,407.8354146484375,567.45098125,408.6254146484375C558.10698125,413.5374146484375,577.92898125,422.0574146484375,575.31798125,411.4424146484375Z" fill-rule="evenodd" fill="#103775" fill-opacity="1"/></g><g transform="matrix(1.0005799531936646,0,0,1,-0.030156433349475265,0)"><path d="M77.316646875,415.97640625C70.102346875,418.65640625,62.613246875,421.13040625,55.948646875,424.39340625C53.650046875,421.92740625,52.257045875,418.75240625,51.998046875,415.39239625C59.074846875,412.50741625,66.563946875,410.06841625,73.400346875,406.94140625C75.537846875,409.52142625,76.896146875,412.65441625,77.316646875,415.97640625Z" fill-rule="evenodd" fill="#103775" fill-opacity="1"/></g><g transform="matrix(1.0005799531936646,0,0,1,-0.02527100732550025,0)"><path d="M52.57651875,425.52743375C50.27481875,425.83642375,48.93501875,427.14144375,46.39281875,427.17644375C45.67141875,423.98144375,43.50711825,422.22943375,43.57581711,418.20944375C50.20611875,414.12143375,50.79011875,420.47744375,52.57651875,425.52743375Z" fill-rule="evenodd" fill="#103775" fill-opacity="1"/></g><g transform="matrix(1.0005799531936646,0,0,1,-0.31198083655908704,0)"><path d="M548.86170625,422.7104512109375C547.45275625,425.4244412109375,544.25872625,429.4094512109375,547.76275625,432.2603912109375C556.76280625,432.2603912109375,564.73270625,433.2914912109375,573.0467062499999,433.9783912109375C572.31480625,437.0154912109375,570.98170625,439.8763912109375,569.13070625,442.3943912109375C564.00480625,442.1643912109375,558.91670625,441.4023912109375,553.9457062500001,440.1274912109375C556.59080625,444.9713912109375,562.25970625,446.8264912109375,564.62980625,451.9453912109375C562.84370625,453.7314912109375,562.43180625,456.8923912109375,560.67970625,458.8153912109375C556.45670625,455.1953912109375,552.50670625,451.2683912109375,548.86170625,447.0674912109375C545.42571625,443.1853912109375,539.00170625,437.8253912109375,538.17773425,434.1154912109375C536.83770625,427.7254312109375,541.30370625,417.7974212109375,548.86170625,422.7104512109375Z" fill-rule="evenodd" fill="#103775" fill-opacity="1"/></g><g transform="matrix(1.0005799531936646,0,0,1,-0.028780177235603333,0)"><path d="M88.5476,438.4094541015625C81.299,442.2234541015625,73.5694,445.5554541015625,66.63,449.6774541015625C67.9159,452.5944541015625,69.4202,455.4084541015625,71.1303,458.0944541015625C69.89359999999999,460.6024541015625,66.0803,460.5334541015625,64.2596,462.6294541015625C58.6088,453.6624541015625,53.7134,444.2394541015625,49.625,434.4594441015625C52.442,433.7374241015625,54.0909,431.8484541015625,56.9423,431.0234341015625C58.4195,434.0464441015625,59.931,437.0354341015625,61.4426,440.0244541015625C69.2065,436.7604341015625,75.5963,432.0544441015625,83.9442,429.3404541015625C85.4901,432.5354341015625,87.20779999999999,435.3184541015625,88.5476,438.4094541015625Z" fill-rule="evenodd" fill="#103775" fill-opacity="1"/></g><g transform="matrix(1.0005799531936646,0,0,1,-0.05587260005995631,0)"><path d="M151.20254375,507.117423828125C146.70254375,510.105423828125,137.46154375,501.723383828125,133.20154374999998,507.666423828125C135.36554375,508.491423828125,138.80054375,508.937423828125,140.07154375,513.300423828125C136.63654375,516.323423828125,132.75454375,511.789423828125,128.83854374999999,511.61742382812497C122.13954375,517.011423828125,119.94054375,531.370423828125,126.57054375,538.069423828125C122.44854375,536.764423828125,119.70054375000001,533.947423828125,114.78754375,533.569423828125C113.79154375,523.950423828125,118.22354375,519.827423828125,121.65854375,514.434423828125C115.61254375,517.869423828125,96.95814475,524.465423828125,96.33984375,509.934423828125C99.77514375,510.586423828125,100.87455375,513.678423828125,103.65754375,514.984423828125C109.03854375,515.520423828125,114.38554375,513.675423828125,118.29154375,509.934423828125C116.78054374999999,508.800423828125,111.42054375000001,510.174423828125,108.74154375,508.800423828125C107.36754375,506.464423828125,108.53554375,502.445433828125,108.74154375,499.799433828125C113.10454375,502.101383828125,118.01654375,506.120423828125,123.34154375,505.433423828125C128.11654375,504.815423828125,128.70054375,499.215393828125,132.89254375000002,499.799433828125C133.28654375,497.985413828125,134.05954375,496.278383828125,135.15954375,494.784423828125L136.84254375,494.784423828125C139.35054374999999,500.727413828125,150.10354375,498.975403828125,151.20254375,507.117423828125Z" fill-rule="evenodd" fill="#103775" fill-opacity="1"/></g><g transform="matrix(1.0005799531936646,0,0,1,-0.10343442554585636,0)"><path d="M198.313909375,571.736400390625C198.863909375,573.041400390625,200.890909375,572.870400390625,202.814909375,572.870400390625C204.738909375,572.870400390625,203.363909375,569.675400390625,204.497909375,568.919400390625C205.883909375,570.884400390625,207.386909375,572.766400390625,208.997909375,574.553400390625C207.658909375,577.713400390625,201.062909375,575.618400390625,197.180909375,576.236400390625C193.401909375,578.847400390625,193.229909375,585.031400390625,189.313909375,587.470400390625C183.644899375,584.825400390625,189.485909375,580.599400390625,190.447909375,576.786400390625C188.16089937499999,576.422400390625,186.346909375,574.663400390625,185.912899375,572.389400390625C187.183899375,571.324400390625,191.408909375,573.522400390625,193.229909375,571.839400390625C193.641909375,569.400400390625,191.615909375,569.331400390625,191.580909375,567.339400390625L195.016909375,567.339400390625C195.219909375,566.260400390625,194.777909375,565.161400390625,193.882909375,564.522400390625C193.882909375,563.079400390625,195.771909375,563.422400390625,197.317909375,563.422400390625C197.55890937499998,561.121400390625,195.428909375,561.189400390625,194.500909375,559.987400390625C188.214909375,563.766400390625,186.736909375,572.423400390625,179.316909375,575.137400390625C177.323899375,573.694400390625,178.972900375,571.186400390625,179.316909375,568.953400390625C185.500899375,565.724400390625,190.515909375,561.430400390625,191.134909375,552.635400390625C196.355909375,552.189390390625,196.493909375,546.761410390625,198.004909375,542.535400390625C201.227909375,544.150390390625,202.529909375,548.073420390625,200.914909375,551.295410390625C200.873909375,551.378420390625,200.831909375,551.457400390625,200.787909375,551.536440390625C206.833909375,551.948420390625,205.081909375,544.665400390625,209.238909375,543.085388390625C209.822909375,545.146420390625,212.673909375,547.379390390625,210.92190937499998,549.956420390625C213.601909375,550.677430390625,216.040909375,551.605410390625,215.42290937500002,555.590400390625C212.982909375,556.895400390625,209.307909375,556.998400390625,206.971909375,558.407400390625C208.139909375,559.712400390625,211.814909375,558.785400390625,213.154909375,558.407400390625C213.49890937499998,559.575400390625,214.563909375,560.021400390625,214.288909375,561.842400390625C211.918909375,562.666400390625,207.417909375,560.056400390625,203.982909375,561.842400390625C203.982909375,563.560400390625,205.562909375,564.006400390625,206.24990937500002,565.277400390625C205.837909375,566.720400390625,204.46390937500001,567.201400390625,202.299909375,566.961400390625C202.299909375,568.369400390625,203.192909375,568.713400390625,203.982909375,569.194400390625C203.673909375,571.461400390625,198.932909375,569.537400390625,198.313909375,571.736400390625ZM196.630909375,558.235400390625C199.310909375,558.853400390625,200.066909375,557.513400390625,201.130909375,556.552400390625C200.581909375,553.735400390625,197.077909375,553.769400390625,199.413909375,550.918400390625C194.019909375,550.608400390625,194.741909375,555.212400390625,196.630909375,558.235400390625ZM207.864909375,554.800400390625C209.444909375,555.280400390625,209.341909375,554.009400390625,210.681909375,554.250400390625L210.681909375,553.116400390625C210.097909375,553.116400390625,209.994909375,552.635400390625,209.547909375,552.532410390625C209.341909375,553.666400390625,207.383909375,553.047400390625,207.864909375,554.868400390625L207.864909375,554.800400390625Z" fill-rule="evenodd" fill="#103775" fill-opacity="1"/></g><g transform="matrix(1.0005799531936646,0,0,1,-0.24772723321802914,0)"><path d="M436.322390625,551.50244103125C437.937390625,553.46044703125,436.322390625,558.37249703125,438.589390625,559.95348703125C440.238390625,559.43749703125,437.834390625,558.51049703125,438.589390625,557.13647703125C441.269390625,557.30749703125,443.296390625,555.65844703125,444.773390625,557.68548703125C444.430390625,561.12145703125,439.964390625,562.25445703125,439.139390625,566.68645703125C438.624390625,569.33145703125,440.067390625,572.45745703125,439.723390625,575.10245703125C438.899390625,580.97745703125,436.082400625,583.24445703125,429.417390625,584.65345703125C430.585390625,580.15245703125,438.315390625,579.39745703125,435.60141062499997,572.87045703125C433.265410625,573.52245703125,434.055390625,577.33645703125,431.650390625,577.92045703125C429.730410625,577.94045703125,427.971404625,576.84145703125,427.150390625,575.10245703125C429.829410625,572.30645703125,432.275390625,569.29745703125,434.467410625,566.10245703125C433.333400625,560.67449703125,430.722380625,556.72344703125,429.417390625,551.50244103125C431.272400625,550.19647203125,434.398410625,551.22747803125,436.322390625,551.50244103125Z" fill-rule="evenodd" fill="#103775" fill-opacity="1"/></g><g transform="matrix(1.0005799531936646,0,0,1,-0.15349390101619065,0)"><path d="M264.666015625,576.236384765625C267.959015625,571.942384765625,272.808985625,569.118407765625,278.167015625,568.369384765625C281.843015625,576.923404765625,269.097995625,573.797424765625,264.666015625,576.236384765625Z" fill-rule="evenodd" fill="#103775" fill-opacity="1"/></g><g transform="matrix(1.0005799531936646,0,0,1,-0.19980406970717013,0)"><path d="M366.537578125,567.8204345684375C370.258578125,567.6994018984375,373.648578125,569.9464158984375,374.988578125,573.4194358984375C371.72557812499997,575.0344258984375,370.866578125,579.0883958984375,369.938578125,582.9703958984375C372.721578125,583.1383958984375,374.840578125,585.5323958984375,374.672578125,588.3183958984375C374.583578125,589.7723958984375,373.872578125,591.1153958984376,372.721578125,592.0053958984375C374.198578125,596.0583958984375,381.275578125,596.5053958984375,386.222578125,595.4403958984375C384.298578125,598.8753958984375,380.313578125,600.0433958984376,377.805578125,602.7573958984375C375.562578125,601.7683958984375,373.477578125,600.4493958984375,371.622578125,598.8413958984376C369.182578125,601.4173958984375,367.465578125,604.8183958984375,364.751578125,607.2573958984375C363.775578125,607.4573958984375,362.762578125,607.2573958984375,361.93457812500003,606.7083958984375C360.697578125,607.2923958984375,360.938578125,609.4563958984374,359.701578125,610.1433958984375C357.207578125,608.8763958984375,354.565578125,607.9313958984375,351.834598125,607.3263958984375C352.143588125,605.2313958984375,355.475578125,606.0893958984375,356.300578125,604.5093958984376C355.819578125,601.4523958984375,355.510578125,598.2223958984375,355.200578125,594.9593958984375C352.280578125,596.9173958984375,352.761598125,602.2763958984375,350.151578125,604.5093958984376C347.402588125,605.0253958984375,346.406588125,603.7533958984375,344.517578125,603.3763958984375C347.952578125,597.8103958984375,353.105588125,594.0313958984375,354.067598125,585.9583958984375C352.796568125,585.5463958984375,349.429598125,586.3363958984376,349.017578125,583.6913958984375C349.463588125,581.1833958984375,352.830598125,581.5273958984375,353.517578125,579.2253958984375C353.517578125,576.6143758984375,351.937588125,574.5874058984375,352.96859812499997,572.3544358984375C357.708578125,571.8734158984375,359.082578125,574.8624258984376,361.384578125,576.8554058984375C361.384578125,579.5343958984375,358.808578125,579.5343958984375,358.567578125,581.9053958984375C361.453578125,581.9053958984375,364.751578125,577.6104158984375,367.018578125,575.0344258984375C367.533578125,572.0454058984375,366.228578125,570.7744158984375,366.537578125,567.8204345684375ZM358.670578125,585.2023958984375C359.003578125,591.4413958984375,359.763578125,597.6523958984375,360.938578125,603.7883958984376C364.734578125,602.6303958984375,367.451578125,599.2873958984375,367.808578125,595.3373958984375C367.087578125,593.4473958984375,364.682578125,593.2413958984375,364.373578125,590.8713958984375C366.606578125,589.4623958984375,369.870578125,593.3103958984375,370.007578125,588.6033958984375C367.49957812499997,589.4283958984375,365.988578125,588.8443958984375,365.507578125,586.3363958984376C365.507578125,584.9963958984375,368.289578125,581.8363958984374,365.507578125,581.2863958984375C365.163578125,584.5843958984375,361.35057812499997,584.3783958984375,358.670578125,585.2023958984375Z" fill-rule="evenodd" fill="#103775" fill-opacity="1"/></g><g transform="matrix(1.0005799531936646,0,0,1,-0.2556608116719872,0)"><path d="M454.331078125,567.8204345703125C456.461078125,569.3314245703125,451.343078125,572.9384145703125,450.381068125,575.1024145703125C446.032078125,575.1713845703125,442.150088125,572.3784145703125,440.830078125,568.2324215703125C445.056088125,570.0874045703125,450.930078125,570.8084145703125,454.331078125,567.8204345703125Z" fill-rule="evenodd" fill="#103775" fill-opacity="1"/></g><g transform="matrix(1.0005799531936646,0,0,1,-0.14865038567222655,0)"><path d="M286.648453125,568.953369140625C289.087453125,568.953369140625,289.843453125,570.980349140625,291.149453125,572.389339140625C290.943453125,578.400329140625,288.503453125,582.111369140625,288.33245312500003,588.157369140625C290.702453125,588.157369140625,290.702453125,585.615369140625,291.767453125,584.206369140625C295.993453125,588.294369140625,290.324453125,591.455369140625,287.267453125,593.173369140625C285.034453125,600.524369140625,286.683453125,611.723369140625,279.949453125,614.575269140625C280.266453125,608.302369140625,281.210453125,602.074369140625,282.766453125,595.990369140625C279.675453125,595.749369140625,279.675453125,598.532369140625,276.583453125,598.257369140625C273.14745312499997,594.821369140625,280.602453125,592.039369140625,277.716453125,587.573369140625C272.858453125,590.836369140625,269.420453125,595.821369140625,268.097453125,601.520369140625C266.483453125,601.143369140625,265.383453125,600.146369140625,265.864473125,597.604369140625C263.631473125,597.261369140625,263.082463125,601.520369140625,261.364473125,599.871369140625C257.929473125,596.9173691406249,262.223483125,592.554369140625,264.181453125,591.420369140625C266.002473125,590.905369140625,264.937473125,593.276369140625,266.414453125,593.069369140625C267.195453125,590.699369140625,267.758453125,588.260369140625,268.097453125,585.786369140625C266.551453125,585.374369140625,263.288453125,588.054369140625,261.948453125,589.737369140625C259.804473125,590.005369140625,257.674473125,589.150369140625,256.314453125,587.470369140625C260.746463125,583.107369140625,269.609453125,583.141369140625,272.048453125,576.786379140625C274.315453125,577.164369140625,274.659453125,579.431369140625,275.483453125,581.286369140625C274.693453125,584.034369140625,272.048453125,584.722369140625,272.048453125,588.603369140625C275.108453125,587.934369140625,277.661453125,585.838269140625,278.919453125,582.970369140625C278.610453125,580.256369140625,276.033453125,577.473329140625,277.201453125,575.102359140625C284.965453125,575.274349140625,280.087453125,585.855369140625,281.152453125,591.420369140625C286.923453125,587.985369140625,284.793453125,576.442319140625,286.648453125,568.953369140625Z" fill-rule="evenodd" fill="#103775" fill-opacity="1"/></g><g transform="matrix(1.0005799531936646,0,0,1,-0.053458771435543895,0)"><path d="M307.37173437499996,92.6064609375C367.881734375,89.5004659375,426.959734375,111.7034359375,470.447734375,153.8934359375C507.755734375,189.7234359375,537.643734375,237.3383359375,540.736734375,307.4193359375C543.8957343750001,379.5623359375,513.6647343750001,433.8063359375,479.448734375,470.5303359375C443.205734375,509.2123359375,391.674734375,536.9363359375,325.372734375,540.2343359375C265.110734375,543.6243359375001,206.178734375,521.6483359375,162.846234375,479.6343359375C124.576234375,443.1503359375,95.616014375,393.7503359375,92.524215375,326.1073359375C89.120414375,265.70533593749997,110.913234375,206.5963359375,152.712234375,162.8594359375C187.37423437500001,125.7914359375,238.045734375,95.9044659375,307.37173437499996,92.6064609375ZM235.228734375,185.3604359375C236.808734375,175.0544359375,249.931734375,171.6194359375,262.711734375,171.8604359375C284.01073437499997,171.8604359375,306.924734375,178.4214359375,326.849734375,184.7764359375C385.525734375,203.5343359375,445.781734375,232.8723359375,486.559734375,262.3813359375C450.862734375,232.4403359375,412.448734375,205.8963359375,371.818734375,183.0934359375C340.453734375,165.5384359375,307.955734375,149.1524359375,268.75773437500004,139.2244359375C255.016734375,135.7884359375,240.278734375,131.6664359375,226.021734375,132.3534359375C211.764734375,133.0404359375,200.94373437500002,139.0174359375,204.10473437500002,153.7214359375C209.600734375,177.32243593750002,233.648734375,200.2013359375,246.049734375,214.0463359375C241.583734375,205.1833359375,233.407734375,198.2773359375,235.365734375,185.3954359375L235.228734375,185.3604359375ZM298.920734375,203.9463359375C298.920734375,210.1293359375,294.00773437500004,216.1763359375,289.91973437499996,220.2643359375C275.562734375,233.5123359375,259.008734375,244.1613359375,240.999734375,251.7323359375C233.270734375,255.1673359375,217.502734375,262.3813359375,215.131734375,252.2813359375C209.600734375,263.2063359375,200.462734375,273.2033359375,202.180734375,289.4183359375C205.890734375,293.5403359375,212.177734375,294.2273359375,219.59773437500002,292.2353359375C229.594734375,289.5553359375,239.247734375,282.9253359375,248.317734375,277.0503359375C265.876734375,265.7923359375,281.299734375,251.5093359375,293.870734375,234.8643359375C300.122734375,226.7223359375,318.57073437500003,200.5103359375,296.103734375,201.7133359375C297.23673437499997,202.26233593749998,298.50773437500004,202.6403359375,298.920734375,203.9463359375ZM315.203734375,241.7353359375C307.331734375,250.9243359375,298.47273437499996,259.2193359375,288.785734375,266.4693359375C266.697734375,283.1653359375,246.530734375,296.52933593750004,221.864734375,301.88833593749996C213.207734375,303.8123359375,205.03173437499998,303.4343359375,201.252734375,299.6553359375C199.809734375,299.6553359375,199.122734375,294.39933593750004,198.43573437499998,297.38833593749996C195.240734375,315.7333359375,196.992734375,331.7413359375,218.670734375,329.4403359375C232.823734375,327.8943359375,248.214734375,319.1343359375,259.894734375,311.9883359375C283.561734375,297.4683359375,304.559734375,278.9933359375,321.971734375,257.3663359375C329.838734375,247.5753359375,340.831734375,232.2883359375,342.205734375,219.1303359375C343.579734375,205.9733359375,338.014734375,202.3313359375,329.288734375,201.7133359375C341.278734375,213.2213359375,324.170734375,231.3263359375,315.203734375,241.6323359375L315.203734375,241.7353359375ZM362.474734375,225.4173359375C360.722734375,239.1583359375,348.080734375,254.2403359375,338.83973437500003,264.20233593750004C318.27073437499996,286.0113359375,294.35873437500004,304.4033359375,268.001734375,318.6873359375C254.260734375,325.93633593749996,237.358734375,333.2193359375,220.765734375,334.4213359375C208.089734375,335.3143359375,201.73373437499998,331.60433593749997,197.748734375,324.8363359375C197.50873437500002,346.0673359375,205.95973437499998,360.2893359375,230.350734375,357.5073359375C246.943734375,355.5833359375,263.226734375,345.7923359375,276.452734375,337.75333593749997C303.600734375,321.78433593750003,327.46473437500003,300.7993359375,346.774734375,275.9173359375C355.500734375,264.1683359375,367.077734375,248.0223359375,368.692734375,231.4293359375C369.860734375,219.4053359375,365.875734375,213.9083359375,358.386734375,210.0953359375C358.386734375,209.5453359375,357.390734375,209.4083359375,357.253734375,210.0953359375C361.993734375,213.2903359375,363.470734375,217.4813359375,362.474734375,225.4173359375ZM362.474734375,282.2033359375C340.910734375,307.4173359375,314.525734375,328.0693359375,284.869734375,342.9413359375C266.799734375,352.0103359375,243.919734375,364.6863359375,219.047734375,360.9423359375C211.52473437499998,359.8083359375,208.260734375,355.5143359375,203.863734375,353.0753359375C211.84773437500002,373.3883359375,225.048734375,391.2323359375,242.133734375,404.8123359375C255.428734375,415.1183359375,271.299734375,424.3593359375,294.41973437499996,422.8133359375C327.674734375,420.5803359375,355.053734375,403.5063359375,378.208734375,384.0283359375C389.335734375,374.5873359375,398.830734375,363.3743359375,406.309734375,350.8423359375C416.169734375,334.3523359375,426.131734375,312.1603359375,420.944734375,289.5213359375C421.081734375,293.0913359375,420.899734375,296.6673359375,420.394734375,300.20533593749997C414.107734375,335.00533593750004,383.223734375,363.1753359375,359.657734375,380.6273359375C332.689734375,400.6553359375,296.412734375,418.4163359375,255.050734375,411.5453359375C283.461734375,414.2933359375,304.828734375,406.1173359375,324.23873437500004,395.8113359375C353.456734375,380.6753359375,378.393734375,358.4273359375,396.759734375,331.1233359375C409.126734375,312.8473359375,424.517734375,281.7573359375,410.844734375,259.18633593749996C413.163734375,265.0783359375,413.929734375,271.4643359375,413.077734375,277.7373359375C411.325734375,293.8843359375,400.469734375,309.75533593750004,391.159734375,321.5733359375C381.423734375,333.88533593750003,370.286734375,345.0223359375,357.974734375,354.7583359375C333.720734375,374.3743359375,304.691734375,393.2693359375,269.101734375,398.5943359375C253.676734375,400.9643359375,237.564734375,400.0363359375,229.766734375,391.8953359375C257.249734375,406.8383359375,291.259734375,389.3183359375,311.287734375,377.8443359375C341.049734375,361.0383359375,366.469734375,337.5093359375,385.525734375,309.1373359375C396.931734375,292.2003359375,413.420734375,260.2863359375,399.026734375,242.2163359375C407.168734375,263.8933359375,390.747734375,286.87533593750004,379.342734375,301.2703359375C357.871734375,328.37533593750004,330.353734375,347.6133359375,300.053734375,363.6903359375C284.319734375,372.0383359375,266.524734375,379.8023359375,247.183734375,381.6923359375C235.159734375,382.8603359375,222.723734375,381.4513359375,216.814734375,374.8213359375C240.862734375,388.5623359375,274.59773437499996,371.0423359375,292.186734375,360.7703359375C320.082734375,344.4183359375,348.115734375,320.8173359375,366.390734375,295.4983359375C375.563734375,282.8223359375,387.277734375,264.58033593749997,388.892734375,248.2283359375C390.335734375,233.8333359375,385.800734375,226.7913359375,379.342734375,222.3253359375C393.358734375,240.2233359375,374.704734375,267.3633359375,362.474734375,282.1003359375L362.474734375,282.2033359375ZM372.024734375,395.8113359375C349.145734375,412.5073359375,319.429734375,425.9733359375,282.052734375,423.9463359375C315.61373437500004,432.9443359375,351.447734375,426.1113359375,379.342734375,405.3963359375C404.533734375,386.7793359375,420.669734375,358.3763359375,423.761734375,327.20733593750003C414.691734375,356.7513359375,395.110734375,379.0123359375,372.024734375,395.7083359375L372.024734375,395.8113359375ZM396.759734375,449.8153359375C393.564734375,459.7093359375,377.143734375,461.3923359375,363.024734375,460.4993359375C341.930734375,459.1593359375,320.494734375,452.8043359375,300.603734375,446.4143359375C244.126734375,428.1033359375,187.065234375,399.2463359375,146.528234375,369.7023359375C145.188234375,370.2863359375,146.528234375,370.3893359375,147.078234375,370.8363359375C155.544234375,378.7753359375,164.568234375,386.1033359375,174.080234375,392.7533359375C202.211734375,414.2423359375,231.906734375,433.6033359375,262.917734375,450.6743359375C294.522734375,467.8503359375,327.227734375,484.2723359375,366.390734375,493.9943359375C380.406734375,497.4293359375,395.213734375,501.1053359375,410.260734375,499.5933359375C443.583734375,496.1583359375,422.421734375,462.3203359375,412.493734375,448.4413359375C405.038734375,437.3893359375,396.374734375,427.2033359375,386.659734375,418.0723359375C390.884734375,426.5233359375,401.122734375,436.3143359375,396.759734375,449.7123359375L396.759734375,449.8153359375Z" fill-rule="evenodd" fill="#103775" fill-opacity="1"/></g><g transform="matrix(1.0005799531936646,0,0,1,-0.27659349725581706,0)"><path d="M497.672828125,530.134387109375C502.447828125,526.286487109375,500.146828125,515.362387109375,506.089828125,512.682387109375C511.414828125,514.194387109375,507.875828125,522.988387109375,507.772828125,527.282387109375C511.20882812499997,527.007387109375,510.727828125,523.125387109375,512.857828125,521.683387109375C513.856828125,522.133387109375,514.791828125,522.710387109375,515.639828125,523.400387109375C516.189828125,527.110387109375,512.410828125,526.526387109375,512.857828125,530.271387109375C516.052828125,533.432387109375,520.930828125,534.909387109375,520.724828125,541.505387109375C516.945828125,542.226387109375,514.746828125,544.528387109375,510.589828125,544.940387109375C512.925828125,542.157387109375,518.353828125,535.9053871093749,511.723828125,533.706387109375C508.288828125,537.142387109375,511.929828125,547.791387109375,502.173828125,544.940387109375C505.824828125,537.035387109375,507.020828125,528.213387109375,505.608828125,519.621387109375C500.421828125,523.847387109375,501.486828125,534.290387109375,499.974828125,542.123387109375C497.985828125,543.178387109375,495.563828125,542.961387109375,493.790828125,541.573387109375C494.787828125,533.569387109375,497.226828125,527.110387109375,498.291828125,519.072387109375C496.776828125,517.859387109375,495.068828125,516.907387109375,493.241828125,516.255387109375C491.557828125,517.972387109375,493.241828125,521.064387109375,494.34082812500003,521.889387109375C494.34082812500003,523.778387109375,492.69182812500003,524.019387109375,491.557828125,524.706387109375C492.107828125,526.389387109375,493.516828125,527.214387109375,493.241828125,529.756387109375C488.19182812500003,529.550387109375,486.370818125,526.011387109375,481.973818125,525.255387109375C482.557798125,523.022387109375,485.649808125,523.332387109375,487.607828125,522.473387109375C486.645808125,517.595387109375,479.946808125,518.522387109375,476.923828125,515.6023871093751C479.053798125,512.648487109375,486.095828125,514.606387109375,487.607828125,511.033387109375C487.435828125,505.983397109375,484.171818125,503.922427109375,482.557798125,500.383427109375C484.735808125,499.497437109375,487.081828125,499.109437109375,489.427828125,499.250427109375C490.513828125,501.366397109375,490.908828125,503.767397109375,490.561828125,506.120427109375C492.382828125,504.643437109375,491.935828125,500.761417109375,492.244828125,497.704407109375C493.653828125,496.776428109375,494.993828125,495.746399109375,496.745828125,496.570434109375C499.483828125,501.730407109375,501.558828125,507.209387109375,502.928828125,512.888387109375C499.527828125,516.976387109375,499.768828125,524.740387109375,497.672828125,530.134387109375ZM492.588828125,509.865387109375C494.848828125,510.391387109375,497.147828125,510.758387109375,499.459828125,510.964387109375C499.459828125,506.155397109375,496.951828125,503.750427109375,496.023828125,499.731387109375L494.34082812500003,499.731387109375C493.309828125,502.651427109375,491.523828125,506.704387109375,492.588828125,509.865387109375Z" fill-rule="evenodd" fill="#103775" fill-opacity="1"/></g></g></svg>