<svg width="619" height="618" viewBox="0 0 619 618" fill="none" xmlns="http://www.w3.org/2000/svg">
<path fill-rule="evenodd" clip-rule="evenodd" d="M309.587 94.2625C427.715 94.2625 524.058 190.533 524.058 308.575C524.058 426.617 427.715 522.888 309.587 522.888C191.458 522.888 95.1154 426.617 95.1154 308.575C95.1154 190.533 191.458 94.2625 309.587 94.2625ZM309.587 106.283C421.077 106.283 512.029 197.167 512.029 308.575C512.029 419.984 421.077 510.868 309.587 510.868C198.095 510.868 107.144 419.984 107.144 308.575C107.144 197.167 198.095 106.283 309.587 106.283ZM309.587 12.2227C472.937 12.2227 606.214 145.346 606.214 308.632C606.214 471.861 472.993 605.041 309.587 605.041C146.237 605.041 12.9582 471.918 12.9582 308.632C12.9582 145.403 146.18 12.2227 309.587 12.2227ZM309.587 0.203125C479.575 0.203125 618.243 138.77 618.243 308.632C618.243 478.495 479.575 617.061 309.587 617.061C139.598 617.061 0.929688 478.495 0.929688 308.632C0.929688 138.77 139.598 0.203125 309.587 0.203125ZM221.415 274.444V353.366C220.224 387.383 233.387 404.165 249.614 414.995C270.777 429.112 296.026 429.679 304.593 429.906C346.013 430.813 369.105 418.737 381.814 403.995C397.701 385.569 397.418 359.319 397.418 356.37C397.418 351.098 397.418 274.444 397.418 274.444L403.261 258.966V233.283H335.856V258.966L341.871 274.273C341.871 274.273 342.041 346.165 341.871 356.937C341.701 367.766 341.587 386.476 309.303 387.1C277.019 387.724 277.189 362.494 277.189 358.582C277.189 354.67 277.189 274.728 277.189 274.728L283.033 259.135V233.339H215.457V258.682L221.472 274.444H221.415Z" fill="#004882"/>
<path fill-rule="evenodd" clip-rule="evenodd" d="M233.843 273.025C233.843 273.025 233.956 351.209 233.843 359.43C233.219 416.126 290.921 418.735 304.993 419.018C336.539 419.585 355.377 412.498 367.178 402.349C384.597 387.381 385.051 362.662 385.051 360.054C385.051 358.013 385.051 337.035 385.051 316.227C397.76 309.14 412.569 299.615 424.654 288.219C439.746 273.932 448.825 257.263 449.108 236.852C455.52 234.585 460.115 228.518 460.115 221.374C460.115 212.303 452.626 204.932 443.434 204.932C441.846 204.932 440.314 205.159 438.896 205.556C427.264 190.588 402.696 174.203 352.88 174.827C336.539 175.053 294.44 178.342 248.992 199.263L251.318 204.762C251.318 204.762 303.234 179.135 359.688 180.95C371.264 181.347 411.661 181.97 433.506 208.107C429.364 211.112 426.697 215.931 426.697 221.374C426.697 230.446 434.186 237.816 443.378 237.816C443.208 243.939 442.073 250.856 439.236 258.17C432.824 274.782 413.193 294.966 384.994 308.914C384.994 290.09 384.994 273.365 384.994 273.365C385.164 272.174 390.838 257.32 390.838 257.32V244.393H348.171V257.887L354.185 273.478V324.108C334.043 333.18 304.993 344.292 276.511 348.091V353.874C285.248 353.023 311.404 349.111 354.185 331.025V355.405C354.468 373.434 347.887 383.639 339.83 389.536C329.334 397.247 316.454 397.587 315.035 397.587C312.482 397.587 300.623 397.587 300.623 397.587C290.695 397.417 278.609 390.726 272.992 383.753C263.744 372.243 264.425 357.956 264.425 355.688C264.425 352.06 264.425 273.025 264.425 273.025L270.893 256.98V244.506H227.829V257.547L233.843 273.025ZM166.551 196.088C166.551 196.088 177.048 192.799 192.878 189.171C210.353 185.145 233.503 180.496 233.503 180.496C233.503 180.496 226.013 194.047 217.842 208.107C209.105 223.189 199.687 238.893 199.687 238.893C199.687 238.893 205.87 221.091 208.197 215.591C210.524 210.092 211.034 206.917 205.02 208.618C199.005 210.262 191.856 213.607 185.218 220.24C178.579 226.874 143.402 259.021 147.43 297.404C148.508 307.666 150.55 317.305 158.607 326.263C168.877 337.715 188.679 348.601 221.814 351.322V357.049C214.665 356.539 199.913 354.951 185.275 349.848C168.821 344.122 152.82 333.917 146.125 316.341C143.005 308.12 125.813 264.917 187.431 210.715C193.105 205.726 201.388 200.567 199.232 195.237C198.552 193.536 193.785 193.706 190.551 193.877C183.516 194.33 174.494 195.464 166.551 196.031V196.088ZM54.89 289.297L58.8049 289.467L57.8972 308.46L53.9823 308.29L54.3226 301.316L34.8047 300.409L35.0316 295.363L54.5496 296.27L54.89 289.297ZM44.4502 315.32L44.7906 322.01L54.6063 318.325V318.212L44.4502 315.32ZM35.4287 312.769L35.2018 307.95L59.0886 315.207L59.3724 321.16L36.3934 330.628L36.1096 325.582L40.9324 323.541L40.4785 314.3L35.4287 312.769ZM60.8475 335.618L37.5281 338.055L37.0174 333.01L60.3369 330.572L60.8475 335.618ZM39.287 348.204L46.7764 347.014L61.188 336.638L62.0958 342.535L52.2234 348.998L63.6277 352.173L64.4221 357.162L47.5141 351.889L40.0245 353.08L39.2303 348.204H39.287ZM68.3937 372.073L69.6988 376.949L55.5142 380.748C49.8403 381.995 46.0389 379.501 44.1665 373.264C42.5778 366.744 44.6203 362.718 50.2375 361.018L64.4221 357.219L65.727 362.095L53.3581 365.383C48.1949 366.404 46.2658 368.728 47.4573 372.357C48.1381 375.929 50.975 376.893 56.0248 375.305L68.3937 372.017V372.073ZM58.8617 390.273L61.3015 396.566L69.5286 390.046L69.4718 389.933L58.9184 390.33L58.8617 390.273ZM49.4999 390.613L47.7977 386.134L72.7627 385.68L74.9186 391.237L55.968 407.339L54.1524 402.576L58.1241 399.174L54.7766 390.556L49.4999 390.67V390.613ZM66.1242 428.826L63.1171 422.25L77.0747 405.808L76.9045 405.751L59.2589 413.802L57.3297 409.55L78.6634 399.798L81.784 406.601L68.6207 422.363L68.7909 422.42L85.5288 414.766L87.4578 419.018L66.1242 428.77V428.826ZM103.117 444.701L105.841 449.01L93.4154 456.835C88.3657 459.726 83.9969 458.479 80.3656 453.093C76.9613 447.366 77.6422 442.887 82.4649 439.599L94.8906 431.775L97.614 436.084L86.777 442.944C82.1812 445.439 80.9896 448.273 83.2025 451.335C84.9046 454.567 87.9118 454.623 92.2238 451.618L103.061 444.758L103.117 444.701ZM102.38 481.441L97.841 475.771L107.373 456.438H107.202L92.0537 468.514L89.1032 464.829L107.43 450.201L112.082 456.041L103.174 474.524H103.345L117.699 463.071L120.649 466.756L102.323 481.384L102.38 481.441ZM125.529 472.086L108.337 488.074L104.877 484.389L122.068 468.401L125.529 472.086ZM115.714 495.842L125.699 472.936L129.671 476.678L121.274 494.254L121.387 494.368L138.58 485.183L142.153 488.584L119.742 499.584L115.771 495.842H115.714ZM127.969 506.841L143.515 489.265L155.317 499.64L152.707 502.588L144.707 495.559L141.075 499.64L148.508 506.16L145.898 509.109L138.466 502.588L134.381 507.238L142.665 514.551L140.055 517.5L127.969 506.841ZM152.537 514.892L147.033 522.489L142.948 519.484L156.735 500.547L164.849 506.444C169.047 509.732 170.069 512.965 167.856 516.139C165.984 518.577 163.601 519.145 160.594 517.897L160.537 518.01C162.239 519.541 162.352 521.752 160.877 524.643C160.707 524.87 160.594 525.098 160.537 525.324C159.005 527.762 158.21 529.519 158.267 530.597L153.842 527.365C154.636 525.437 155.657 523.566 156.849 521.695C157.814 519.881 157.87 518.69 156.905 517.953L152.594 514.835L152.537 514.892ZM158.494 506.671L154.863 511.717L158.267 514.155C160.083 515.515 161.729 515.288 163.09 513.588C164.169 511.943 163.771 510.469 161.955 509.165L158.551 506.727L158.494 506.671ZM184.083 526.118L179.828 523.85C180.793 521.695 180.225 520.051 178.126 518.917C175.856 517.897 174.268 518.237 173.359 519.824C172.396 521.298 173.133 522.943 175.629 524.757C175.743 524.927 175.856 525.04 175.969 525.21C180.396 528.782 181.814 531.958 180.281 534.68C177.842 538.932 173.701 539.612 167.856 536.664C162.466 533.659 161.047 529.973 163.544 525.607L168.026 527.989C166.721 530.426 167.176 532.355 169.444 533.659C172.168 535.02 174.041 534.849 175.006 533.205C175.743 531.844 174.949 530.2 172.622 528.215C172.339 527.989 172.168 527.763 171.941 527.592C167.856 524.133 166.551 521.072 168.139 518.237C170.579 514.211 174.664 513.418 180.396 516.026C184.708 518.69 185.899 522.092 184.026 526.174L184.083 526.118ZM194.353 524.417L183.516 545.224L179.034 542.901L189.871 522.092L194.353 524.417ZM194.296 529.009L195.998 525.437L213.19 533.659L211.488 537.231L205.19 534.226L196.793 551.859L192.197 549.648L200.594 532.014L194.296 529.009ZM210.864 557.641L213.701 550.61L212.225 532.921L217.786 535.133L218.24 546.925L226.864 538.761L231.573 540.633L218.354 552.425L215.516 559.456L210.92 557.584L210.864 557.641ZM253.304 549.307C249.39 548.286 246.723 550.61 245.361 556.167C243.828 561.724 245.077 564.956 249.048 565.862C252.793 566.826 255.403 564.559 256.822 559.059C258.24 553.503 257.105 550.214 253.304 549.25V549.307ZM248.198 569.208C241.105 567.223 238.438 562.461 240.198 554.864C242.353 547.21 247.006 544.148 254.212 545.734C261.134 547.776 263.687 552.651 261.985 560.419C259.829 567.904 255.233 570.794 248.198 569.208ZM268.454 572.893L263.517 572.326L266.297 549.023L281.276 550.838L280.822 554.75L270.722 553.56L270.042 559.115L279.461 560.25L279.006 564.161L269.588 563.028L268.397 572.95L268.454 572.893ZM312.028 559.398L307.205 559.286C307.092 556.905 305.844 555.714 303.461 555.656C301.021 555.771 299.716 556.791 299.603 558.606C299.376 560.363 300.795 561.497 303.858 562.007C304.028 562.064 304.198 562.177 304.368 562.291C309.929 563.481 312.652 565.635 312.482 568.81C312.199 573.686 308.794 576.18 302.326 576.237C296.141 576.01 293.191 573.402 293.475 568.3L298.525 568.414C298.468 571.192 299.773 572.665 302.383 572.779C305.447 572.779 307.035 571.758 307.149 569.831C307.205 568.3 305.73 567.167 302.78 566.43C302.44 566.315 302.156 566.26 301.872 566.146C296.652 564.956 294.099 562.744 294.269 559.513C294.61 554.807 297.9 552.255 304.198 551.971C309.248 552.425 311.858 554.864 312.028 559.343V559.398ZM333.419 559.229L328.086 559.682C327.688 556.904 326.042 555.6 323.149 555.656C320.369 556.053 319.177 559.058 319.461 564.615C320.142 570.172 321.844 572.836 324.624 572.666C327.461 572.326 328.879 570.739 328.766 567.846L334.099 567.393C334.213 572.552 331.149 575.443 324.908 576.068C318.554 576.464 314.979 572.779 314.127 565.068C313.617 557.13 316.51 552.766 322.809 551.971C329.049 551.575 332.568 554.013 333.362 559.172L333.419 559.229ZM339.319 550.951L342.1 574.253L337.05 574.877L334.269 551.575L339.319 550.951ZM345.788 573.403L342.326 550.214L357.873 547.89L358.44 551.802L347.887 553.39L348.681 558.776L358.44 557.302L359.008 561.214L349.248 562.688L350.156 568.81L361.05 567.167L361.618 571.078L345.674 573.459L345.788 573.403ZM386.696 565.693L379.661 567.336L366.27 550.44L366.157 550.61L370.639 569.49L366.043 570.568L360.653 547.776L367.915 546.076L380.796 562.063L380.909 561.893L376.654 544.034L381.249 542.956L386.639 565.748L386.696 565.693ZM402.98 543.127L397.93 544.885C396.853 542.333 394.923 541.426 392.143 542.219C389.589 543.297 389.136 546.473 390.781 551.802C392.767 557.018 395.15 559.172 397.76 558.321C400.426 557.301 401.391 555.373 400.597 552.651L405.647 550.895C407.008 555.884 404.795 559.456 398.895 561.609C392.881 563.537 388.455 560.872 385.731 553.615C383.235 546.076 384.994 541.142 390.894 538.761C396.853 536.833 400.881 538.308 402.923 543.127H402.98ZM410.47 557.245L401.108 535.757L415.519 529.52L417.108 533.148L407.348 537.401L409.505 542.39L418.583 538.477L420.172 542.107L411.093 546.018L413.59 551.688L423.689 547.323L425.279 550.951L410.526 557.357L410.47 557.245ZM441.676 532.071L447.52 528.726L439.746 521.639L439.633 521.695L441.676 532.071ZM443.491 541.255L439.293 543.693L434.867 519.145L440.03 516.139L458.924 532.297L454.555 534.849L450.526 531.447L442.526 536.096L443.491 541.255ZM477.988 518.123L472.2 522.432L453.193 512.227V512.397L464.768 527.932L461.023 530.71L447.009 511.887L453.023 507.408L471.18 516.934V516.763L460.229 502.022L463.973 499.243L477.988 518.067V518.123ZM481.392 516.139L465.733 498.676L471.69 493.347C477.534 488.244 483.094 488.528 488.371 494.254C493.478 500.094 493.194 505.593 487.349 510.809L481.392 516.139ZM472.03 498.28L482.414 509.902L484.399 508.145C487.974 505.197 487.974 501.738 484.342 497.826C480.825 493.801 477.421 493.404 474.017 496.522L472.03 498.28ZM492.513 479.967L489.506 477.472L501.705 462.901L504.712 465.396L500.229 470.725L515.208 483.255L511.975 487.167L496.996 474.637L492.513 479.967ZM521.62 476.225L503.01 461.937L512.598 449.464L515.719 451.845L509.195 460.293L513.506 463.638L519.52 455.814L522.642 458.195L516.627 466.019L521.563 469.818L528.315 461.087L531.436 463.468L521.62 476.225ZM530.584 436.197L527.691 440.676C525.251 439.315 523.209 439.769 521.507 442.093C520.145 444.531 521.733 447.309 526.272 450.541C531.039 453.433 534.216 453.773 535.804 451.448C537.279 449.01 536.882 446.913 534.556 445.212L537.449 440.733C541.592 443.851 541.989 448.047 538.641 453.319C535.01 458.535 529.904 459.102 523.322 454.964C516.74 450.485 515.095 445.495 518.385 440.052C521.96 434.893 526.045 433.646 530.584 436.197ZM548.344 438.068L546.017 442.434L525.365 431.321L527.691 426.955L535.861 431.321L540.059 423.497L531.889 419.131L534.272 414.652L554.925 425.765L552.599 430.13L543.578 425.255L539.322 433.192L548.344 438.068ZM565.648 402.86L562.642 409.436L541.081 409.606L541.138 409.776L558.783 417.884L556.798 422.136L535.464 412.328L538.584 405.524L559.124 405.184L559.068 405.014L542.386 397.36L544.372 393.108L565.705 402.916L565.648 402.86ZM550.783 383.186C549.819 387.098 552.145 389.763 557.706 391.01C563.266 392.484 566.5 391.237 567.408 387.268C568.315 383.469 566.046 380.918 560.543 379.557C554.983 378.197 551.691 379.387 550.783 383.129V383.186ZM570.755 388.118C568.826 395.205 564.06 397.927 556.458 396.226C548.798 394.185 545.677 389.536 547.209 382.335C549.194 375.418 554.074 372.81 561.848 374.455C569.337 376.552 572.287 381.145 570.755 388.118ZM578.358 359.94L575.522 374.738L552.486 370.372L553.393 365.497L572.571 369.125L574.5 359.147L578.358 359.884V359.94ZM560.543 344.632C560.145 348.658 562.755 350.926 568.485 351.436C574.217 352.116 577.224 350.415 577.564 346.39C577.961 342.535 575.352 340.323 569.734 339.7C564.003 339.133 560.94 340.72 560.543 344.632ZM580.968 346.73C580.06 354.044 575.692 357.332 567.975 356.709C560.088 355.745 556.401 351.549 556.911 344.235C557.933 337.092 562.358 333.86 570.302 334.427C578.018 335.504 581.592 339.586 581.025 346.73H580.968ZM575.578 316.227L575.352 320.763L571.437 320.593L571.89 311.125L583.692 311.692C584.145 313.393 584.316 315.15 584.202 316.908C584.316 318.268 584.316 320.026 584.202 322.237C583.522 329.381 579.38 332.896 571.777 332.669C564.173 332.159 560.258 328.247 560.032 321.047C560.372 313.789 563.096 310.274 568.145 310.501L567.918 315.831C565.308 315.717 563.89 317.191 563.776 320.31C563.72 324.732 566.5 327.056 572.06 327.283C577.62 327.567 580.571 325.469 580.855 321.103C580.912 319.856 580.855 318.382 580.685 316.681C580.685 316.624 580.628 316.511 580.571 316.397L575.635 316.171L575.578 316.227ZM584.884 300.919L577.28 301.26L561.791 309.934L561.507 303.981L572.06 298.708L561.053 294.229L560.826 289.183L576.997 296.327L584.599 295.987L584.827 300.919H584.884ZM359.575 489.208H337.22C337.561 481.044 342.838 479.23 349.646 474.58C355.15 470.839 354.355 465.566 349.078 465.112C345.845 464.829 344.143 466.36 343.801 470.215L337.561 470.158C337.674 462.788 343.688 460.35 349.362 460.69C354.355 460.973 359.121 463.751 359.348 468.797C359.745 478.096 349.476 478.436 344.993 484.105H359.575V489.151V489.208ZM318.497 472.313C326.554 468.401 333.589 472.936 333.986 479.059C334.269 483.822 331.206 489.605 322.639 489.322C316.907 489.151 311.915 487.054 311.858 481.497H317.816C318.837 486.827 327.291 486.94 327.744 480.193C328.086 475.091 321.164 472.596 318.44 477.189H313.05L315.035 461.71H332.908L332.964 466.076H319.574L318.497 472.313ZM302.553 477.926C294.61 482.801 287.291 478.833 286.666 470.839C286.213 465.112 291.091 460.35 297.957 460.69C306.922 461.143 309.022 467.947 308.965 475.658C308.908 483.028 305.163 489.492 297.163 489.605C292.681 489.662 288.311 487.394 287.006 482.178H293.305C294.723 487.28 303.347 486.373 302.553 477.926ZM302.723 469.818C302.667 469.194 302.553 468.571 302.44 467.947C302.27 467.323 301.872 466.7 301.191 466.076C300.51 465.452 299.603 465.055 298.411 464.942C297.73 464.885 296.993 464.999 296.198 465.226C295.404 465.452 294.666 465.906 294.043 466.586C293.418 467.267 293.021 467.89 292.908 468.457C292.794 469.024 292.738 469.535 292.738 470.045C292.738 470.725 292.851 471.462 293.021 472.313C293.191 473.163 293.702 473.9 294.61 474.637C295.461 475.374 296.652 475.714 298.185 475.714C298.865 475.714 299.433 475.658 300.057 475.431C300.623 475.204 301.135 474.921 301.588 474.467C302.042 474.014 302.326 473.503 302.553 472.823C302.78 472.143 302.837 471.179 302.78 469.818H302.723ZM270.212 470.101H262.552V465.793H264.425C268.794 465.793 270.779 463.411 271.914 460.69H276.737V488.981H270.269V470.101H270.212ZM523.379 162.467C524.23 164.735 523.89 166.776 521.109 166.039C518.329 165.302 514.471 163.431 512.372 162.07C511.407 161.503 509.988 160.369 506.755 158.441C502.726 156.117 496.541 152.828 495.406 153.962C493.988 155.38 495.861 156.4 496.826 157.477C497.79 158.555 501.308 161.389 503.52 164.394C505.676 167.399 508.4 167.91 508.683 171.765C508.853 174.089 502.896 173.523 502.669 170.744C502.443 167.966 495.918 162.127 493.988 159.972C492.059 157.818 490.697 159.008 488.882 160.936C487.066 162.864 483.776 169.44 480.427 169.554C478.896 169.61 477.08 168.873 475.492 166.379C473.109 162.58 472.995 160.085 473.732 155.55C474.187 152.828 474.924 154.473 475.265 156.23C475.662 157.988 475.094 158.781 477.647 162.75C480.201 166.662 480.712 164.735 482.074 163.374C483.435 162.013 486.612 158.555 487.634 156.854C488.654 155.153 488.031 154.416 484.002 153.112C479.974 151.808 479.407 149.256 479.974 147.442C480.541 145.628 481.109 145.061 483.549 147.385C484.967 148.746 487.917 150.731 489.676 151.411C490.811 151.864 490.981 151.468 491.606 151.071C493.137 150.164 494.101 148.916 499.265 150.504C502.499 151.524 500.91 152.261 508.513 156.457C515.208 160.142 520.769 163.09 520.712 160.936C520.712 159.405 522.187 159.405 523.322 162.467H523.379ZM514.471 155.039C515.208 155.55 516.91 157.024 517.705 157.477C518.5 157.931 519.52 157.818 517.762 156.684C516.003 155.55 515.833 155.266 515.095 154.699C514.357 154.189 513.733 154.473 514.471 154.983V155.039ZM488.939 134.912C487.52 134.572 485.761 134.289 483.151 133.495C480.541 132.644 480.484 130.943 478.499 130.377C476.569 129.81 472.939 128.619 472.712 131.567C472.427 134.515 474.584 136.556 478.215 138.031C479.52 138.541 482.414 140.015 485.818 141.546C491.946 144.267 499.606 147.556 502.386 149.086C506.698 151.524 504.825 150.334 505.223 150.05C505.223 150.05 501.194 147.102 504.825 148.746C508.456 150.334 508.513 149.71 507.208 149.03C505.903 148.349 491.208 139.675 489.109 139.108C487.009 138.484 485.988 137.01 488.882 137.237C491.776 137.464 492.569 138.087 492.967 136.897C493.364 135.763 490.414 135.309 488.996 134.969L488.939 134.912ZM517.932 145.174C517.705 146.818 518.726 147.385 521.96 146.365C525.194 145.344 523.322 144.437 521.677 144.551C520.032 144.607 518.159 143.587 517.932 145.231V145.174ZM515.946 137.86C516.4 139.448 516.343 140.752 524.91 139.164C527.52 138.654 528.996 135.989 524.797 136.046C522.642 136.103 521.165 136.386 519.464 136.5C516.967 136.613 515.435 136.216 515.946 137.86ZM513.223 132.134C512.088 132.474 508.173 135.139 509.932 136.67C511.975 138.484 512.428 137.747 512.598 135.989C512.768 134.289 515.378 135.989 514.868 133.722C514.755 133.211 514.3 131.794 513.166 132.134H513.223ZM518.329 128.392C518.215 129.299 518.272 130.887 519.067 132.077C519.861 133.268 518.613 133.665 517.251 132.248C515.946 130.83 515.719 130.66 516.23 128.449C516.74 126.238 518.385 127.428 518.329 128.335V128.392ZM503.293 135.933C504.712 136.273 505.109 133.098 503.804 132.701C503.066 132.418 502.215 132.304 501.988 133.948C501.818 135.479 501.988 135.706 503.236 135.989L503.293 135.933ZM503.18 125.898C502.329 126.748 497.449 132.644 496.939 134.175C496.428 135.706 497.336 137.067 501.421 138.654C503.35 139.391 503.861 140.298 506.3 138.257C506.3 138.257 506.981 139.618 508.4 140.639C509.761 141.659 511.69 142.339 513.903 141.999C515.719 141.716 513.45 145.741 512.882 147.159C512.882 147.159 507.548 145.118 505.45 143.473C503.35 141.829 503.066 142.453 502.953 143.7C502.84 144.948 505.733 146.308 507.662 147.612C509.648 148.916 510.67 150.787 513.052 151.468C515.435 152.148 519.464 152.772 527.18 153.679C534.897 154.586 536.315 155.777 540.457 154.983C543.691 154.359 545.564 155.833 544.656 153.906C543.578 151.581 541.649 148.973 540.514 148.86C539.379 148.746 539.663 147.839 539.096 146.932C538.471 146.025 538.584 145.855 537.336 145.798C536.089 145.741 535.634 145.911 533.307 144.494C530.982 143.02 529.109 143.417 530.812 145.741C533.649 149.767 536.145 148.406 536.769 150.56C537.166 152.035 531.832 150.56 526.727 150.107C524.57 149.937 525.137 148.86 525.875 148.349C526.613 147.839 526.897 147.385 526.783 145.458C526.67 143.53 525.024 142.566 522.982 143.077C520.939 143.587 517.875 144.04 518.215 142.113C518.385 141.262 518.272 141.262 519.464 141.262C521.109 141.262 524.684 141.773 528.712 141.092C530.357 140.809 529.79 139.505 529.96 138.371C530.13 137.237 528.769 135.423 532.457 135.819C536.089 136.273 539.663 137.18 543.351 136.103C547.096 135.026 548.287 133.325 547.096 131.227C545.904 129.129 545.961 131 540.117 131.567C534.272 132.191 531.436 132.248 528.485 132.304C525.535 132.418 524.684 133.438 520.769 128.222C519.18 126.124 518.215 124.934 518.783 122.893C519.293 121.078 520.258 120.001 519.067 118.527C516.967 117.053 517.762 120.625 514.982 122.723C513.223 124.027 514.357 124.423 510.102 129.356C507.095 132.871 506.243 134.118 505.393 132.985C504.485 131.851 504.258 131.681 505.563 130.263C506.868 128.789 507.038 126.635 505.45 125.16C503.804 123.63 503.974 124.99 503.123 125.841L503.18 125.898ZM436.909 104.239C437.534 106.167 438.498 108.152 439.689 110.249C441.335 113.027 445.648 119.377 444.909 121.078C444.172 122.779 447.86 123.233 449.619 123.006C450.356 122.893 451.038 121.929 451.378 121.192C451.945 120.114 451.888 118.981 450.924 116.996C449.391 113.651 448.768 112.46 439.236 103.673C437.931 102.425 436.172 102.312 436.796 104.183L436.909 104.239ZM426.186 79.1802C426.98 81.2212 427.207 82.6385 433.676 85.3605C440.201 88.1385 441.676 87.6275 440.484 88.8755C439.293 90.1225 430.498 96.1325 421.307 98.5705C419.037 99.1935 419.49 102.425 422.952 101.972C424.711 101.745 427.547 101.405 429.874 101.121C432.2 100.838 434.526 100.611 436.682 101.405C436.682 101.405 435.888 100.214 438.214 99.1935C440.541 98.1735 447.973 93.9215 448.768 92.7875C449.619 91.6535 450.13 90.4625 453.193 91.0865C457.278 91.9365 465.052 92.3905 468.172 92.3335C471.293 92.2205 471.122 89.3855 469.818 88.5915C468.513 87.7985 466.924 85.9275 466.073 84.6235C465.222 83.3185 463.236 83.6595 462.952 85.4165C462.668 86.8905 462.668 86.9475 460.4 86.9475C458.13 87.0045 452.966 86.0405 455.009 83.1485C457.052 80.2574 458.81 77.7628 458.47 74.1342C458.243 72.1498 455.406 71.8096 454.101 73.4538C452.796 75.098 451.718 77.4793 449.165 80.3141C446.611 83.1485 446.271 84.1125 440.03 82.4115C433.959 80.711 429.307 77.9328 428.172 77.2525C427.037 76.5721 425.335 77.1391 426.072 79.1235L426.186 79.1802ZM362.922 46.9199C364.795 47.827 367.178 47.4869 365.873 49.9815C364.568 52.4761 364.909 53.2699 363.604 55.1976C362.639 56.615 363.037 59.9034 366.1 57.7489C368.54 56.048 374.951 57.2953 373.874 60.9806C372.795 64.6659 370.582 64.8927 366.781 62.9083C362.98 60.9239 362.412 61.5476 360.54 61.661C358.667 61.7744 359.972 63.9855 363.15 65.2328C366.327 66.4802 368.199 67.6141 365.987 69.9953C363.717 72.4333 363.15 72.8869 357.873 73.227C355.036 73.3971 355.15 74.9846 358.554 75.3248C362.469 75.7217 367.292 73.8507 370.129 71.1293C371.604 69.7119 376.994 72.8869 380.739 74.4177C384.539 76.0052 386.866 76.5721 387.717 78.3297C388.568 80.144 392.2 78.6132 393.505 77.7061C394.81 76.7989 395.491 73.3971 392.2 72.2065C388.909 71.0159 386.979 70.4489 385.221 69.4851C383.462 68.5212 381.192 69.1449 377.561 66.4235C375.916 65.2328 378.526 64.7226 379.093 63.4186C379.661 62.1145 383.121 57.8056 379.32 55.5378C375.519 53.2699 373.419 52.873 371.036 54.1203C368.653 55.311 367.745 54.5172 367.235 53.9503C366.781 53.3266 367.689 51.2288 368.653 49.9248C369.617 48.6208 369.107 47.6003 372.057 46.9766C375.007 46.3529 383.859 43.6882 384.086 39.7195C384.199 37.7351 387.15 35.694 386.072 33.7096C384.994 31.7253 384.767 34.7302 380.852 37.3382C375.405 40.9668 373.817 37.7351 375.179 36.2043C377.051 34.1065 377.447 30.4779 375.292 29.911C373.192 29.344 374.724 32.4056 372.569 35.4105C370.469 38.4154 372.114 40.5132 368.767 42.1007C367.462 42.7244 367.575 42.611 366.27 43.2346C364.284 44.482 360.483 45.5592 362.752 46.7498L362.922 46.9199ZM342.383 49.9815C344.653 49.8681 347.32 49.8681 346.866 53.0431C346.411 56.2181 344.88 59.7333 344.143 62.0578C343.461 64.3824 343.178 64.269 337.674 68.1244C332.114 71.9797 325.986 75.3815 318.78 81.0511C317.475 82.0715 318.212 83.4325 321.39 83.2055C324.567 82.9785 327.631 80.3708 332.624 75.5516C337.277 71.0726 339.603 69.1449 341.476 69.4851C343.234 69.7686 341.476 73.0002 339.943 77.8761C338.411 82.7525 336.993 89.1025 333.078 91.4835C332.114 92.0505 331.773 92.6735 334.269 92.5605C335.461 92.5035 337.334 90.7465 338.923 88.4215C340.624 85.9275 342.156 82.7525 342.894 77.8761C343.745 72.2632 344.823 67.2172 346.241 64.1556C347.15 62.1145 347.887 61.4342 349.986 60.2436C351.235 59.5065 349.418 59.3364 348.455 59.1663C347.49 58.9962 347.376 57.2953 348.568 55.4811C349.76 53.6668 350.327 51.8525 350.553 50.1516C350.553 50.1516 357.76 44.8221 359.632 43.1212C361.504 41.4203 359.632 40.5132 358.44 41.2503C357.248 41.9306 355.717 42.4976 355.717 40.3998C355.717 38.302 355.547 37.5083 356.795 34.7869C358.327 31.4985 356.908 31.2717 354.809 29.911C352.71 28.5503 351.858 31.5552 351.632 33.9364C351.405 36.3177 351.405 39.9462 350.213 42.5543C349.022 45.1623 347.15 47.4869 341.816 47.6003C339.093 48.7909 339.093 50.1516 342.383 49.9815ZM270.552 65.573C272.027 64.6092 273.73 63.6453 275.262 62.398C276.964 61.0373 278.609 59.4498 282.071 58.3726C284.737 57.5221 284.794 58.7695 284.34 61.6043C283.886 64.4391 284.17 67.5574 284.396 72.3199C284.624 77.0824 284.056 85.4165 284.056 90.4065C284.113 95.3955 281.844 103.956 284.51 106.621C285.531 107.641 287.461 106.677 288.766 103.899C290.071 101.121 288.368 98.1735 288.823 90.4625C289.276 82.7525 289.9 81.5047 288.709 74.7011C287.518 67.8976 287.461 62.7949 287.858 60.357C288.255 57.919 287.574 55.311 289.843 53.5534C292.113 51.7958 294.78 50.4918 296.652 50.1516C298.525 49.8114 300.113 47.6003 302.44 47.0333C304.765 46.523 306.525 45.3891 305.844 42.8378C305.163 40.2864 300 40.1163 296.425 43.8583C292.851 47.6003 289.843 50.0382 289.958 47.9971C290.071 45.9561 292 34.9003 292.51 30.8181C293.021 26.736 293.702 24.298 287.688 21.4065C285.872 20.5561 280.879 22.7672 283.603 24.5815C284.964 25.4887 285.758 25.4887 286.269 26.7927C286.78 28.1534 286.893 30.7614 286.78 33.5962C286.553 39.1525 284.908 48.394 285.078 50.0382C285.248 51.6257 284.113 52.2494 280.766 54.5739C277.418 56.8985 269.588 61.6043 266.354 64.6659C264.539 66.3668 264.822 67.2172 266.751 67.7275C267.659 67.9543 268.907 66.5936 270.496 65.5163L270.552 65.573ZM270.212 48.394C271.404 49.6413 275.772 50.1516 277.588 46.8632C278.496 45.219 276.851 42.1007 272.652 44.4253C271.234 45.219 268.567 46.6931 270.212 48.4507V48.394ZM266.807 38.0186C268.226 38.9257 270.326 38.5288 273.219 37.9619C276.169 37.3949 277.816 37.7351 278.609 36.261C279.461 34.7869 278.042 31.6686 272.709 32.5757C270.156 32.9726 268.624 34.4467 267.375 35.4672C266.07 36.5445 265.219 37.1114 266.751 38.0753L266.807 38.0186ZM235.375 58.3159C234.921 59.7333 235.205 62.0011 238.836 61.3775C243.318 60.5837 247.573 57.0119 251.148 55.4811C254.78 53.8936 254.893 57.4654 253.645 59.3931C253.134 60.2436 251.035 64.4391 248.198 67.8976C244.17 72.9436 241.389 77.0824 244.396 77.9895C245.701 78.3864 246.78 76.4587 248.425 74.7578C249.56 73.6239 250.865 72.7735 252.963 72.7735C253.588 72.7735 253.985 75.1547 253.588 76.402C253.19 77.7061 253.815 78.273 254.893 78.8967C255.97 79.5203 258.467 77.0257 258.013 73.8507C257.56 70.6757 257.617 65.9699 259.318 63.3052C260.453 61.5476 263.347 58.0891 264.992 55.311C265.844 53.8369 266.524 52.7029 265.844 52.136C265.219 51.569 264.312 51.7391 263.63 53.0998C262.382 55.4811 259.432 59.7333 258.467 57.9757C257.673 56.3882 257.787 54.0636 258.07 52.3628C258.354 50.7186 258.751 49.7547 259.602 48.5641C261.247 46.2395 265.219 43.0078 264.084 41.4203C263.12 40.173 261.304 44.5386 259.205 42.8378C257.503 41.4203 256.935 43.6882 256.538 45.6726C256.141 47.6569 255.403 48.2239 250.467 51.3422C245.531 54.4605 244.283 54.8007 241.673 56.7284C239.063 58.6561 236.963 59.1663 237.133 57.8623C237.191 57.4654 235.771 56.8985 235.261 58.3159H235.375ZM256.538 34.0498C254.723 36.0909 248.311 41.2503 240.084 52.4195C238.779 54.177 238.041 52.3628 239.403 50.4918C240.425 49.0744 243.602 44.1418 247.006 39.2659C249.843 35.1837 252.963 30.9315 253.702 30.1945C256.027 27.5864 259.148 31.1016 256.595 34.0498H256.538ZM189.417 76.6288C190.835 76.7989 191.46 75.6083 192.31 74.6444C193.161 73.6806 195.488 73.7373 194.24 76.6288C192.991 79.4636 195.318 78.8967 194.126 81.0511C192.367 84.2825 188.736 81.448 186.977 84.9635C185.615 87.7415 188.282 87.3445 189.133 90.1795C189.984 93.0145 189.53 96.3595 190.665 99.3075C191.8 102.198 189.19 102.709 186.523 105.033C182.608 108.492 176.196 111.213 178.069 115.012C178.976 116.826 179.658 119.718 181.643 118.81C182.381 118.47 183.516 117.677 183.8 116.656C184.196 115.295 185.899 112.007 187.033 109.909C188.282 107.585 188.963 106.507 191.63 106.507C193.502 106.564 193.9 106.167 194.013 103.786C194.183 101.348 193.842 100.724 197.417 97.6635C200.992 94.6015 200.878 97.7195 201.218 99.4775C201.899 103.049 198.438 105.203 200.48 107.018C200.992 107.414 201.615 107.131 202.58 105.6C204.055 103.219 206.041 98.8535 207.062 97.0965C208.822 94.0915 208.878 91.9365 207.232 89.6125C205.87 87.6275 198.325 93.7515 195.658 96.4725C192.991 99.2505 193.445 95.7925 193.048 93.9215C192.708 92.1065 191.403 86.4945 193.445 85.4735C195.431 84.4525 195.318 83.9995 196.395 82.0145C197.36 80.2574 198.778 77.4226 199.232 75.0413C200.197 69.9953 201.332 67.6141 199.913 66.6503C198.495 65.6864 192.991 69.7119 190.325 73.794C189.133 75.6083 187.431 76.4587 189.19 76.6855L189.417 76.6288ZM177.899 91.7105C178.523 92.1635 179.885 92.1065 181.133 90.4625C182.608 88.5355 184.14 84.7365 185.899 80.5976C186.353 79.5203 184.594 79.8038 184.14 81.3346C183.686 82.8655 182.665 84.5095 179.488 87.0605C176.367 89.6125 176.083 90.4065 177.899 91.6535V91.7105ZM166.664 61.8311C166.437 63.8154 165.644 65.2328 167.346 65.9699C169.047 66.707 168.877 67.444 174.154 64.8927C179.431 62.3413 177.558 64.2123 176.934 67.5574C176.311 70.9025 175.516 72.8302 174.324 77.4793C173.133 82.0715 168.537 102.368 160.254 119.434C159.119 121.759 159.062 125.387 161.615 126.068C164.225 126.691 164.339 124.027 166.097 119.718C166.949 117.563 170.126 109.172 172.679 100.498C175.289 91.4835 177.331 82.1285 178.296 78.0462C178.806 76.0052 180.396 72.8869 182.211 69.4851C183.005 68.011 185.105 63.6453 186.636 60.0168C188.623 55.311 189.814 51.2855 187.658 51.2288C185.501 51.1721 180.168 54.2337 178.296 55.8212C176.424 57.4087 170.579 60.2436 168.537 60.5837C167.799 60.6971 166.778 60.5837 166.608 61.8311H166.664ZM119.401 160.142C120.706 160.596 125.926 162.41 127.401 163.147C128.876 163.884 129.614 164.961 129.955 165.868C130.295 166.776 130.523 167.116 132.054 166.662C133.586 166.209 137.558 165.018 138.466 162.75C139.771 159.518 141.36 158.498 139.317 156.457C137.275 154.416 129.558 154.189 126.494 154.586C124.906 154.813 122.919 155.833 121.274 157.137C119.742 158.328 118.437 159.802 119.401 160.142ZM108.621 178.172C109.132 178.852 112.082 182.027 113.727 182.367C115.316 182.707 117.019 182.594 117.756 181.46C118.777 179.872 118.21 179.419 116.621 177.321C115.373 175.677 114.068 174.94 109.983 175.677C109.075 175.847 107.487 176.641 108.621 178.172ZM74.2378 178.228C76.2804 178.512 78.2662 178.852 80.2521 179.135C80.2521 179.135 84.5642 175.393 89.0465 171.538C93.5289 167.626 98.2382 163.601 99.2027 162.637C101.075 160.766 101.812 163.544 101.415 165.358C101.075 167.173 101.018 173.806 99.0892 179.306C98.2949 181.517 96.6495 184.181 99.3729 185.485C100.564 186.052 102.097 184.181 103.629 180.439C104.592 178.002 105.557 174.997 106.239 171.538C106.919 168.08 107.373 164.224 107.544 160.085C107.714 156.4 106.295 157.761 108.111 154.473C109.926 151.184 109.983 150.56 112.877 147.272C114.636 145.288 115.827 142.85 116.678 140.752C117.926 137.577 118.154 135.139 117.076 132.304C116.394 130.547 113.784 134.629 111.685 137.577C109.529 140.525 107.487 143.643 106.635 142.396C105.784 141.149 107.544 139.335 107.259 136.33C107.089 134.856 107.94 131.34 108.507 127.372C109.075 123.403 109.472 119.037 108.394 115.862C107.657 113.708 106.692 115.409 105.104 113.594C103.572 111.78 100.451 111.156 97.841 115.806C95.3445 120.455 98.068 122.723 98.9757 128.165C99.3729 130.433 100.224 134.175 100.735 137.86C101.302 142.906 101.472 147.896 101.756 148.463C102.323 149.37 102.72 149.54 99.5432 153.168C96.3658 156.797 94.6636 158.101 91.7133 161.616C90.2381 163.374 87.2876 166.719 83.9969 170.007C80.706 173.296 77.018 176.527 74.1811 178.115L74.2378 178.228Z" fill="#004882"/>
</svg>
