<svg width="889" height="890" viewBox="0 0 889 890" fill="none" xmlns="http://www.w3.org/2000/svg">
<path fill-rule="evenodd" clip-rule="evenodd" d="M444.49 0.5C689.94 0.5 888.98 199.54 888.98 444.99C888.98 690.44 689.94 889.48 444.49 889.48C199.04 889.48 0 690.44 0 444.99C0 199.54 199.04 0.5 444.49 0.5ZM444.49 17.016C680.81 17.016 872.46 208.67 872.46 444.99C872.46 681.31 680.81 872.96 444.49 872.96C208.17 872.96 16.52 681.31 16.52 444.99C16.52 208.67 208.17 17.016 444.49 17.016Z" fill="#E62129"/>
<path fill-rule="evenodd" clip-rule="evenodd" d="M444.486 150.93C606.876 150.93 738.566 282.62 738.566 445.01C738.566 607.4 606.876 739.09 444.486 739.09C282.096 739.09 150.406 607.4 150.406 445.01C150.406 282.62 282.096 150.93 444.486 150.93ZM444.486 161.8C600.876 161.8 727.696 288.62 727.696 445.01C727.696 601.4 600.876 728.22 444.486 728.22C288.096 728.22 161.276 601.4 161.276 445.01C161.276 288.62 288.096 161.8 444.486 161.8Z" fill="#E62129"/>
<path fill-rule="evenodd" clip-rule="evenodd" d="M768.178 587.93C775.278 587.93 781.028 593.67 781.028 600.78C781.028 607.88 775.278 613.63 768.178 613.63C761.078 613.63 755.328 607.88 755.328 600.78C755.328 593.67 761.078 587.93 768.178 587.93Z" fill="#E62129"/>
<path fill-rule="evenodd" clip-rule="evenodd" d="M120.819 587.93C113.719 587.93 107.969 593.67 107.969 600.78C107.969 607.88 113.719 613.63 120.819 613.63C127.919 613.63 133.669 607.88 133.669 600.78C133.669 593.67 127.919 587.93 120.819 587.93Z" fill="#E62129"/>
<path fill-rule="evenodd" clip-rule="evenodd" d="M429.723 249.988L431.223 251.488L435.604 253.238L435.743 256.008L437.243 257.498L441.344 257.918L449.303 268.058L450.803 269.558L465.553 275.938L469.293 279.978L476.463 280.118L477.963 278.618L481.403 276.098L490.163 273.978C492.953 277.288 491.183 276.558 496.063 277.118V289.178L496.723 292.638L489.733 303.908L484.423 306.068L482.483 311.798L480.983 313.298L479.483 314.798L470.594 325.608L470.443 328.378L468.943 329.878L467.443 332.898V335.918L465.943 337.418L464.443 338.918L459.923 344.958L458.423 346.458L447.864 358.518L446.364 360.018L444.864 361.508L443.364 363.008L441.624 367.368L437.893 367.908L434.874 375.658L432.833 376.588L431.333 378.088L428.313 382.608L426.813 384.108L422.003 392.938L417.753 396.168L416.124 397.548L416.233 400.688L414.173 401.338L407.173 412.768L405.673 414.268L405.273 416.888C397.403 423.058 385.763 432.988 381.533 441.408L380.033 442.908L378.533 444.408L369.223 460.818L365.374 461.298L363.433 467.018L361.933 468.518L352.893 482.098L351.393 483.598C348.503 489.328 346.173 496.218 341.253 498.968L338.233 508.448L333.173 516.658L333.273 519.798L331.773 521.298L328.233 524.718L333.273 528.838L334.773 530.338V539.378L333.273 540.878L328.753 545.398L327.253 546.898C323.093 548.808 321.193 550.288 318.223 551.418H315.203H310.683H307.663C301.353 553.138 293.023 558.248 289.183 563.328L283.373 563.138L274.483 566.508L272.983 568.008L260.923 572.528L259.423 574.028L227.743 584.588L226.243 586.088L224.873 587.608L220.623 587.988L217.333 590.718L214.183 590.608L212.693 592.108L206.653 593.608L205.153 595.108H203.653L200.633 596.608H194.593L193.093 598.108L191.593 599.608H190.093L188.593 601.108L184.073 602.608H178.033L176.533 604.108L173.633 605.728L170.493 605.628H168.993L167.493 607.128H165.993L164.493 608.628L149.413 613.148H135.833H132.813L131.313 611.648H129.813L125.023 611.708L126.823 616.168L128.323 617.668H129.813L132.833 619.168L134.333 620.668L137.353 622.158L138.853 623.658L149.413 628.178L152.433 629.678H155.453C161.013 631.808 160.103 634.198 169.033 634.198L191.673 634.328L206.733 632.698L208.233 631.198H221.813H223.313L226.333 629.698L234.243 623.848L238.393 623.658H241.413L244.433 622.158C248.203 620.418 250.993 620.438 255.233 619.388C263.593 617.368 260.053 616.688 265.543 614.628H270.063H273.083L274.583 613.128L283.083 610.958L288.143 608.588H291.163L292.663 607.088L298.953 599.688L301.723 599.548L303.223 598.048L311.013 590.648L313.783 590.508L315.283 589.008C325.513 588.088 353.893 574.568 360.453 566.078L366.563 567.908C374.763 565.948 375.973 562.328 383.133 560.368H389.173L390.673 558.868L401.233 554.348L402.733 552.848L407.173 552.618L408.983 548.268L423.753 546.598L425.604 542.458L430.833 541.648L435.893 539.268H441.933L443.433 537.768L446.323 536.148L449.473 536.248L450.973 534.748L466.053 530.228L467.553 528.728C479.403 522.778 490.084 522.898 498.104 515.548C513.224 513.758 525.463 503.098 541.443 503.098H548.983L552.104 502.778L556.523 504.598L558.023 507.618V513.658C556.503 519.198 552.273 524.048 547.463 527.238L545.963 528.728L533.094 540.228L532.003 544.878L529.364 546.828L527.864 548.328L526.364 549.828L524.993 551.458L521.844 551.348L520.344 552.848L518.594 560.248L515.823 560.388L514.323 561.888C509.373 569.388 506.493 570.718 499.243 575.468L497.743 576.968L493.223 579.988L491.733 581.488L490.233 582.988V584.488L488.733 585.988V587.488L487.233 588.988H485.733L484.233 590.488V591.988L476.693 596.508L475.193 598.008L473.693 599.498V600.998L472.193 602.498L469.173 603.998L467.673 605.498L466.173 606.998L464.673 608.498L463.173 609.998H461.673L459.763 613.018L461.673 614.518L463.033 616.418L464.693 614.518H466.193L467.693 613.018L472.213 609.998L473.713 608.498L475.213 606.998L478.233 605.498L479.733 603.998L488.773 597.958L490.273 596.458L491.773 594.958L493.273 593.468L517.783 578.568L521.923 578.388L523.423 576.888H526.443L527.943 575.388L529.443 572.368L530.943 570.868L533.503 570.428L538.483 566.348H541.503C547.503 564.698 551.694 561.038 554.604 555.348L564.374 548.398L567.143 548.248L568.643 546.748L571.783 546.878L574.683 545.248L576.183 543.748L577.683 542.248L579.183 540.748L582.203 539.248H585.223L586.723 537.748L591.243 536.248L592.743 534.748L610.833 525.708L612.333 524.218L617.104 518.338L619.874 518.198L621.374 516.698L624.393 515.198L625.893 513.698L634.933 509.178L636.433 507.678L650.013 500.138L651.513 498.638C662.133 497.698 661.844 493.218 669.614 491.098H672.633L674.133 489.598L678.133 489.058L684.983 483.498L682.403 475.228L678.023 470.838L668.233 465.378L665.094 465.478L663.594 463.978L648.513 465.478L636.393 465.748L624.374 463.958L612.253 463.648L592.693 466.978L591.193 468.478L583.763 470.228L581.663 473.518L567.203 479.168L564.063 479.058L562.563 480.558L552.003 482.058L550.503 483.558L529.383 488.078H527.883L526.383 489.578L515.823 491.078L514.323 492.578L510.374 492.368L506.783 482.018V478.998V475.978L506.223 472.458L509.803 468.438L511.303 466.938C513.433 458.208 516.684 458.988 518.364 454.398C522.474 443.238 517.613 450.838 525.903 442.428L527.173 424.218L532.423 417.188L533.923 415.688C537.633 410.058 544.063 407.308 546.923 401.538C548.653 398.018 554.163 386.088 555.043 382.508L556.543 381.008L557.483 378.628L562.583 377.988V368.948C560.564 367.028 559.023 365.428 558.063 361.408L556.563 358.388L554.773 356.308L563.703 352.038L565.624 347.828L567.124 346.328C574.874 341.268 582.843 341.018 585.223 331.248L586.723 329.748L586.263 325.008L591.263 314.668L592.763 313.178L597.283 305.638L598.783 304.138C599.673 300.408 600.283 299.388 600.283 295.098L600.864 291.538L597.153 287.678L597.263 284.538L595.763 283.038C594.303 277.018 588.923 270.018 585.203 266.458L583.703 264.958L582.203 263.458L580.703 261.958L577.803 261.708L577.703 257.438L576.203 255.938L561.124 245.378L559.624 243.878L547.193 238.048L540.633 237.088L532.483 233.348H527.963L526.463 231.848H524.973L511.393 230.348L509.893 228.848H503.854L502.354 227.348H499.333L497.833 225.848L485.773 224.348L466.114 224.078L454.094 225.868L444.993 226.138L432.973 224.348H420.913V228.868L420.483 232.138L429.973 249.968L429.723 249.988Z" fill="#E62129"/>
<path fill-rule="evenodd" clip-rule="evenodd" d="M212.853 660.114C212.853 660.114 219.143 662.674 221.503 664.824C223.853 666.984 227.393 672.884 223.453 677.004C219.523 681.134 207.333 685.464 210.483 689.774C213.623 694.104 218.543 701.164 213.233 704.124C207.923 707.084 196.523 701.374 196.523 701.374C196.523 701.374 192.003 700.394 190.823 703.144C189.633 705.894 192.983 714.344 193.383 716.894C193.773 719.454 201.043 731.634 207.333 738.304C213.623 744.984 213.623 751.674 213.623 754.604C213.623 757.564 208.313 758.734 201.833 754.214C195.363 749.694 188.863 740.654 184.343 721.204C184.343 721.204 183.763 710.974 181.013 710.584C179.073 710.304 175.513 717.664 168.123 721.414C168.123 721.414 169.243 723.974 170.723 725.634C172.203 727.304 170.533 736.464 168.073 738.944C165.623 741.404 162.933 738.674 162.933 733.574C162.933 728.474 164.743 726.634 163.243 723.114C161.203 723.534 158.953 723.654 156.453 723.344C140.733 721.384 136.793 709.204 137.403 703.314C137.983 697.414 140.143 694.854 140.143 692.684C140.143 690.524 143.693 689.144 146.043 691.894C148.393 694.644 155.663 700.744 163.143 698.584C170.613 696.414 174.933 693.874 171.203 687.374C167.473 680.904 167.473 679.134 168.243 673.634C169.033 668.134 171.573 667.344 172.953 670.094C174.323 672.844 177.863 679.714 189.463 679.134C201.063 678.544 209.313 674.424 212.253 671.654C215.213 668.904 216.793 665.014 215.853 663.444C214.913 661.864 212.833 660.074 212.833 660.074L212.853 660.114ZM654.183 704.994C654.183 704.994 657.033 703.814 657.533 701.244C658.033 698.684 662.653 682.524 665.033 677.424C667.383 672.324 671.323 667.194 674.073 666.214C676.813 665.234 679.963 667.404 680.153 669.174C680.333 670.944 676.813 672.324 676.813 677.234C676.813 682.154 674.863 690.214 686.043 695.704C697.253 701.204 699.413 700.624 699.413 702.584C699.413 704.544 699.223 709.264 696.453 708.664C693.713 708.084 688.983 705.914 688.003 707.874C687.023 709.834 699.203 727.324 711.183 739.504C711.183 739.504 710.203 745.404 707.453 745.404C704.703 745.404 702.743 746.584 699.603 741.464C696.453 736.364 683.483 714.344 677.003 706.494C677.003 706.494 674.653 703.354 676.813 703.354C678.983 703.354 680.753 700.604 678.383 698.434C676.023 696.274 671.113 687.624 671.113 683.904C671.113 680.174 668.923 681.334 668.233 682.424C667.553 683.504 661.283 694.704 660.883 700.994C660.493 707.284 657.903 709.534 655.153 707.664C652.413 705.784 654.183 704.994 654.183 704.994ZM684.273 670.524C684.273 670.524 683.883 678.984 684.673 684.484C685.463 689.984 688.213 694.314 691.353 690.774C694.503 687.234 691.353 681.734 691.353 679.174C691.353 676.614 691.543 673.464 693.913 670.524C696.273 667.574 697.253 661.884 698.623 658.744C700.003 655.594 704.913 651.474 707.083 654.224C709.243 656.974 707.473 665.614 705.893 667.784C704.333 669.944 696.123 672.694 696.123 672.694C696.123 672.694 697.143 675.424 700.393 674.254C703.643 673.074 706.783 670.114 707.263 673.174C707.763 676.234 705.293 692.754 703.913 695.894C702.543 699.044 704.103 699.044 705.473 701.604C706.853 704.164 711.553 702.394 711.763 698.064C711.953 693.734 716.283 685.694 717.473 689.414C718.663 693.144 719.823 701.024 719.243 706.914C718.663 712.804 716.893 721.844 718.263 723.034C719.643 724.224 724.953 720.684 723.973 717.534C722.993 714.394 722.013 712.824 722.203 708.494C722.383 704.164 720.823 697.874 722.593 697.684C724.363 697.504 730.843 701.414 733.803 704.564C736.753 707.704 741.863 712.034 745.983 708.284C750.103 704.564 764.253 687.644 762.683 678.024C761.123 668.404 758.563 666.234 754.443 665.264C750.313 664.284 745.403 667.214 742.843 666.824C740.273 666.424 743.633 669.174 745.593 670.554C747.543 671.924 751.483 680.564 749.133 686.674C746.773 692.754 743.633 704.354 736.943 701.414C730.263 698.454 722.413 694.484 722.413 691.394C722.413 688.314 720.843 683.154 723.783 678.024C726.743 672.924 722.803 670.554 720.633 670.364C718.473 670.174 716.513 673.694 716.913 676.844C717.303 679.984 715.143 681.754 714.553 683.314C713.973 684.874 711.413 690.394 710.033 690.194C708.663 690.004 708.083 683.134 710.033 677.344C711.993 671.524 712.393 669.844 709.453 669.134C706.533 668.424 709.853 665.984 711.123 664.304C712.393 662.634 714.163 656.384 714.163 654.034C714.163 651.684 717.303 651.474 715.143 649.114C712.973 646.764 709.433 646.164 706.283 646.764C703.143 647.344 698.223 650.494 697.433 654.034C696.643 657.574 690.353 655.404 687.023 653.634C683.693 651.864 678.963 652.264 678.963 652.264C678.963 652.264 679.043 654.454 681.213 655.724C683.383 657.014 684.943 659.364 687.893 659.474C690.853 659.574 694.083 658.284 694.683 660.054C695.273 661.824 691.643 672.574 689.373 673.544C687.103 674.524 688.003 671.484 686.733 670.194C685.463 668.904 684.273 670.524 684.273 670.524ZM577.763 731.844C577.763 731.844 581.493 736.754 584.053 737.344C586.613 737.924 587.013 741.274 586.613 743.044C586.223 744.814 585.433 746.774 581.513 745.004C577.573 743.234 575.243 739.964 575.143 735.844C575.033 731.694 577.783 731.844 577.783 731.844H577.763ZM590.743 768.974C590.743 768.974 593.303 770.354 595.843 766.624C598.403 762.894 605.863 755.024 607.233 751.884C608.613 748.734 610.383 747.944 612.153 747.364C613.923 746.774 618.623 746.964 618.623 750.314C618.623 753.654 618.233 759.544 619.213 760.144C620.193 760.734 625.103 762.104 628.833 759.164C632.563 756.214 634.723 755.444 638.453 756.024C642.183 756.604 643.953 757.004 643.953 760.734C643.953 764.454 635.493 764.664 632.563 767.814C629.603 770.954 631.973 777.834 636.683 780.974C641.393 784.124 644.353 792.184 641.783 797.494C639.223 802.804 633.723 803.194 629.793 802.804C625.853 802.404 623.313 803.594 620.753 803.594C618.193 803.594 612.503 802.614 612.113 795.534C611.713 788.454 614.673 791.014 615.063 792.384C615.463 793.764 619.773 795.724 622.333 793.764C624.893 791.804 628.623 790.804 627.833 785.704C627.043 780.604 628.413 775.084 624.503 774.704C620.563 774.314 610.543 782.764 608.773 786.094C607.003 789.434 600.923 789.434 598.943 786.894C596.983 784.324 595.013 780.804 598.763 780.604C602.483 780.414 606.613 777.644 608.593 775.284C610.543 772.934 616.253 772.334 613.693 768.994C611.133 765.664 610.363 763.894 611.133 762.124C611.923 760.354 612.753 755.374 611.963 753.794C611.173 752.214 609.613 752.604 607.633 756.464C605.673 760.314 597.803 769.164 597.303 773.414C596.803 777.644 591.013 777.054 589.723 773.414C588.453 769.774 590.673 769.024 590.673 769.024L590.743 768.974ZM586.033 720.244C586.033 720.244 589.173 724.364 590.743 723.784C592.303 723.204 594.463 722.594 594.463 720.634C594.463 718.684 600.363 716.514 601.553 715.144C602.733 713.764 609.213 713.374 608.633 717.494C608.043 721.614 603.713 731.444 601.753 735.574C599.803 739.694 603.923 737.734 607.253 735.574C610.583 733.404 624.753 728.494 630.043 727.514C635.353 726.534 637.893 730.074 639.083 732.214C640.263 734.384 638.283 739.094 635.543 740.464C632.793 741.844 628.453 744.404 628.273 745.774C628.083 747.154 623.943 748.134 623.943 745.774C623.943 743.424 625.123 737.534 621.773 737.714C618.443 737.904 599.573 739.674 586.993 766.204C586.993 766.204 584.633 769.744 586.203 776.834C587.763 783.914 588.363 789.994 588.363 793.134C588.363 796.284 584.633 798.444 582.863 795.704C581.093 792.954 578.533 793.924 578.533 788.824C578.533 783.724 579.123 775.084 578.533 770.354C577.953 765.644 576.763 754.834 577.743 752.084C578.723 749.334 581.283 751.294 581.863 753.064C582.453 754.834 582.053 758.374 585.013 758.964C587.973 759.544 589.343 754.044 589.923 751.484C590.513 748.924 592.493 744.614 596.013 737.344C599.553 730.074 604.403 723.324 604.113 720.054C603.823 716.804 601.253 717.894 600.283 718.394C599.303 718.894 596.843 720.954 596.733 723.404C596.633 725.864 595.073 731.304 593.013 731.594C590.953 731.884 588.783 731.014 587.303 727.744C585.823 724.494 585.993 720.244 585.993 720.244H586.033ZM459.493 804.734C459.493 804.734 465.193 806.694 467.943 804.154C470.693 801.594 478.423 796.674 480.923 795.904C484.063 794.924 485.873 795.094 488.003 794.344C490.103 793.594 490.413 791.304 493.063 790.414C495.703 789.534 497.223 790.414 497.223 787.664C497.223 784.914 497.413 780.974 495.663 781.574C493.893 782.164 491.393 782.554 490.603 784.934C489.813 787.304 485.393 788.074 482.333 786.414C479.293 784.744 478.943 780.784 480.123 778.644C481.313 776.474 481.503 773.724 482.293 771.954C483.083 770.184 485.253 772.354 484.643 774.514C484.063 776.684 483.463 781.784 487.003 780.414C490.543 779.034 492.503 779.434 494.083 777.264C495.643 775.104 496.833 774.704 496.643 771.164C496.453 767.624 499.603 760.354 491.543 761.544C491.543 761.544 489.773 759.374 492.723 758.584C495.683 757.794 499.993 758.394 500.973 761.544C501.953 764.684 503.143 773.334 502.353 777.054C501.563 780.784 500.183 785.704 503.723 785.304C507.263 784.914 508.433 783.534 508.433 779.014C508.433 774.494 509.413 760.754 510.593 758.194C511.783 755.624 512.763 749.334 510.413 747.384C508.053 745.424 509.033 744.424 510.993 744.424C512.953 744.424 517.283 746.774 517.283 750.134C517.283 753.464 514.933 753.084 514.533 755.444C514.143 757.794 512.573 765.854 515.723 765.454C518.863 765.064 521.203 765.124 522.283 765.524C523.363 765.914 525.033 766.814 526.513 767.184C527.993 767.584 527.783 770.724 524.553 770.044C521.303 769.354 515.993 770.544 514.433 771.224C512.843 771.914 513.533 778.514 513.643 780.284C513.743 782.054 517.493 781.184 520.053 779.604C522.613 778.034 533.803 778.624 537.153 779.204C540.483 779.784 541.483 781.164 541.673 782.934C541.863 784.704 539.113 786.074 536.573 784.304C534.003 782.534 528.513 782.534 524.193 783.124C519.863 783.704 517.323 783.914 516.723 785.474C516.133 787.034 516.913 791.184 515.533 793.324C514.163 795.494 511.803 797.844 515.343 799.034C518.883 800.214 520.453 798.844 520.653 800.994C520.843 803.154 519.283 804.714 517.903 805.324C516.533 805.904 516.133 812.404 517.903 812.594C519.683 812.774 529.693 811.794 531.463 812.594C533.233 813.384 531.073 816.524 527.633 816.424C524.193 816.314 520.653 817.504 518.493 818.694C516.323 819.884 516.993 822.064 517.493 823.834C517.993 825.604 525.053 826.214 527.713 824.924C530.363 823.624 534.613 823.814 536.963 825.774C539.313 827.734 539.713 831.274 537.363 832.854C535.003 834.414 532.253 835.024 530.673 836.584C529.113 838.144 527.923 836.584 528.113 834.024C528.303 831.454 528.693 829.354 526.533 828.664C524.363 827.984 520.823 826.214 518.653 827.374C516.493 828.564 517.113 831.854 518.493 835.394C519.863 838.934 520.053 845.224 519.683 847.394C519.283 849.554 515.163 845.834 514.573 840.704C513.993 835.604 513.203 832.064 511.433 831.854C509.663 831.664 508.103 833.414 507.893 836.954C507.703 840.494 505.333 843.434 503.373 842.664C501.413 841.874 497.083 837.164 497.083 830.484C497.083 830.484 492.023 829.434 489.563 837.124C489.563 837.124 486.913 838.704 486.213 835.754C485.523 832.794 487.193 830.814 489.353 829.734C491.523 828.644 494.773 826.874 494.773 826.874C494.773 826.874 495.953 823.734 495.853 822.654C495.743 821.564 496.353 821.354 498.123 822.154C499.893 822.944 500.973 821.564 501.853 820.564C502.723 819.584 507.283 817.904 508.263 815.924C509.243 813.964 508.143 814.154 505.973 814.154C503.803 814.154 504.103 812.964 505.103 812.564C506.073 812.174 510.013 813.254 509.913 810.194C509.803 807.134 510.703 805.864 507.853 806.844C504.993 807.824 501.063 808.824 500.663 811.384C500.263 813.944 493.873 813.544 494.663 809.614C495.453 805.674 499.683 805.864 502.933 804.594C506.183 803.304 506.873 799.574 507.953 798.574C509.033 797.594 510.413 794.134 509.913 791.284C509.413 788.434 506.663 788.134 504.893 789.224C503.123 790.304 496.543 791.864 499.293 794.744C502.033 797.614 501.453 800.654 500.873 801.234C500.293 801.824 497.913 799.764 497.583 797.944C497.243 796.114 494.973 793.114 491.833 795.324C488.713 797.534 487.733 797.724 485.543 798.174C479.673 799.424 471.793 803.404 468.043 808.524C468.043 808.524 463.823 810.594 460.963 808.924C458.113 807.254 459.553 804.714 459.553 804.714L459.493 804.734ZM501.993 831.604C501.993 831.604 500.413 829.734 500.333 827.564C500.223 825.394 502.493 823.624 503.873 822.544C505.243 821.464 508.393 821.274 509.973 822.044C511.553 822.834 511.843 825.504 511.343 827.064C510.843 828.644 508.893 829.334 507.913 830.914C506.933 832.504 506.143 833.774 504.083 833.774C502.013 833.774 502.013 831.604 502.013 831.604H501.993ZM368.703 778.394C368.703 778.394 375.393 781.354 385.013 777.604C394.633 773.874 399.363 772.684 401.133 771.494C402.903 770.314 405.833 770.314 408.793 771.494C411.753 772.684 416.463 778.184 416.063 780.354C415.673 782.514 409.583 787.614 404.273 791.344C398.963 795.074 389.923 801.764 388.763 803.924C387.573 806.094 387.573 808.254 390.923 808.844C394.253 809.424 398.003 808.254 399.963 808.444C401.923 808.634 406.833 811.344 411.563 813.364C413.733 815.924 412.943 821.024 411.173 823.374C409.403 825.734 383.653 823.194 375.203 825.944C366.743 828.694 363.813 824.374 361.643 821.024C359.473 817.694 355.163 812.384 360.663 808.844C366.163 805.304 378.553 801.174 381.303 795.674C384.053 790.184 381.703 790.364 378.953 789.594C376.203 788.804 371.283 785.864 370.303 783.894C369.333 781.934 368.743 778.394 368.743 778.394H368.703ZM276.153 719.054C276.153 719.054 281.643 723.384 289.523 725.924C297.373 728.494 313.303 731.424 319.593 731.424C325.883 731.424 328.823 736.924 329.823 740.274C330.803 743.614 329.633 744.214 326.483 743.024C323.343 741.844 318.243 740.464 312.743 742.444C307.243 744.404 302.723 747.364 301.743 750.104C300.763 752.854 305.073 752.064 309.993 752.854C314.903 753.654 326.693 762.084 329.053 765.624C331.403 769.164 329.443 771.124 326.303 772.314C323.153 773.494 316.473 776.644 313.323 778.394C310.183 780.164 310.763 782.514 307.243 782.514C303.703 782.514 297.813 783.304 297.623 787.034C297.433 790.764 300.763 788.014 304.303 790.184C307.843 792.344 317.473 798.424 317.473 803.554C317.473 808.654 311.763 809.054 308.243 807.884C304.703 806.694 299.393 807.694 299.013 805.534C298.623 803.364 300.393 800.824 303.143 800.214C305.893 799.634 303.323 792.954 298.803 792.554C294.293 792.154 291.143 791.364 289.953 793.924C288.773 796.494 284.853 800.614 282.873 811.424C282.873 811.424 279.913 812.404 278.943 808.464C277.963 804.534 277.563 801.784 278.943 798.844C280.313 795.884 280.713 791.764 276.983 792.764C273.253 793.744 271.083 795.724 266.563 790.414C262.053 785.094 265.983 779.784 266.963 777.834C267.943 775.874 271.483 774.104 272.853 774.284C274.233 774.474 274.233 778.994 272.853 780.574C271.483 782.144 268.923 787.264 273.833 787.454C278.753 787.644 283.663 786.664 286.203 785.284C288.773 783.914 292.103 781.554 293.293 779.574C294.473 777.624 293.683 776.034 289.753 775.644C285.813 775.244 281.693 776.624 280.893 772.314C280.103 767.974 281.873 765.044 279.123 765.044C276.373 765.044 273.813 765.624 271.853 767.794C269.903 769.954 242.973 786.664 239.033 791.764C235.103 796.864 231.373 795.494 230.393 793.134C229.413 790.784 228.833 787.644 228.623 785.864C228.433 784.094 228.623 782.144 230.973 781.354C233.323 780.554 256.903 764.064 260.053 763.084C263.193 762.104 265.363 761.894 266.343 759.754C267.313 757.584 274.003 756.794 275.373 755.234C276.753 753.674 286.183 746.584 287.163 742.864C288.143 739.134 289.123 735.984 290.703 738.154C292.273 740.324 291.293 742.674 294.643 743.074C297.973 743.464 303.123 738.824 307.843 738.214C312.573 737.634 311.493 734.764 303.223 733.384C294.953 732.014 282.463 730.864 274.793 724.384C274.793 724.384 273.523 721.364 274.023 719.784C274.523 718.204 276.193 719.074 276.193 719.074L276.153 719.054ZM295.813 759.564C295.813 759.564 296.783 762.024 299.933 762.524C303.073 763.024 306.913 765.274 307.703 767.064C308.493 768.834 307.113 770.024 305.053 768.934C302.993 767.854 304.473 767.354 299.243 766.274C294.043 765.184 293.833 762.414 293.743 760.934C293.643 759.464 295.813 759.564 295.813 759.564ZM292.243 772.314C292.243 772.314 298.933 771.334 301.283 772.314C303.643 773.294 306.203 775.064 308.553 772.894C310.913 770.724 314.053 769.564 316.403 768.374C318.763 767.184 321.323 765.814 317.383 763.064C313.453 760.314 305.013 756.584 301.473 755.794C297.933 755.004 292.623 755.394 290.473 758.144C288.313 760.894 286.953 763.504 286.563 766.564C286.163 769.624 285.773 770.414 287.433 771.494C289.103 772.584 292.223 772.314 292.223 772.314H292.243Z" fill="#E62129"/>
<path d="M72.7676 517.653L98.3175 513.163C99.9875 512.863 101.048 512.263 101.508 511.343C101.908 510.553 101.968 509.283 101.658 507.513L101.428 506.163L103.608 505.763L107.198 526.113L105.008 526.513L104.678 524.613C104.158 521.723 102.508 520.493 99.7175 520.993L74.1676 525.493L75.3475 532.173C75.5775 533.523 75.8476 534.483 76.1376 535.023C76.6176 535.943 77.3476 536.503 78.3676 536.733C79.2876 536.963 80.8476 537.093 83.0376 537.113L83.4475 539.423L72.7876 540.253L72.4775 538.423C72.8675 537.843 73.0575 537.423 73.0775 537.213C73.1175 536.823 73.0775 536.273 72.9575 535.553L68.2075 508.643C68.0175 507.533 67.5176 506.683 66.7676 506.103L66.4575 504.263L76.7676 501.393L77.1776 503.703C75.5176 504.333 74.4076 504.763 73.8676 505.053C72.5176 505.783 71.7276 506.623 71.5176 507.553C71.3476 508.323 71.3976 509.473 71.6676 510.993L72.8275 517.633L72.7676 517.653ZM88.5076 466.943L88.7375 479.503L95.4475 481.793C97.0275 482.353 98.1376 482.353 98.7576 481.813C99.3876 481.293 99.6776 479.753 99.6376 477.173L99.6176 476.443L101.838 476.403L102.108 491.623L99.8876 491.663L99.8676 490.793C99.8376 489.253 99.2976 488.003 98.2776 487.103C97.5076 486.463 96.2776 485.853 94.5476 485.273L67.2476 475.943L65.5775 476.583L65.4375 468.093L94.1576 456.133C95.8476 455.423 97.0275 454.743 97.6975 454.053C98.5975 453.133 99.0676 451.883 99.1576 450.303L101.388 450.263L101.718 468.923L99.4875 468.963L99.4475 466.943C99.4275 465.273 99.0276 464.213 98.2976 463.803C97.5976 463.403 96.5075 463.503 95.0775 464.153L88.5376 466.983L88.5076 466.943ZM85.3876 468.323L72.1875 473.813L85.5775 478.403L85.4076 468.293L85.3876 468.323ZM68.0975 442.593L65.8976 442.413L67.4775 424.223L69.6875 424.413L69.5975 425.373C69.3475 428.273 70.6475 429.853 73.4775 430.103L95.9276 432.063C97.4476 432.183 98.5676 431.933 99.2375 431.263C99.9075 430.623 100.318 429.513 100.448 427.933L100.528 427.103L102.738 427.293L101.158 445.473L98.9475 445.283L99.0076 444.473C99.2576 441.703 98.0675 440.203 95.4675 439.973L72.7876 437.993C71.2676 437.873 70.1475 438.073 69.4375 438.663C68.7275 439.243 68.3076 440.303 68.1676 441.843L68.0975 442.593ZM93.0975 394.533L100.758 396.033C102.658 396.403 103.988 396.003 104.778 394.863C105.218 394.213 105.568 393.213 105.838 391.923L106.008 391.073L108.198 391.483L104.468 410.693L102.278 410.273L102.548 408.853C103.088 406.023 102.028 404.343 99.3676 403.813L91.5975 402.293L73.2476 411.293C71.6876 412.063 70.7076 412.853 70.2876 413.713C70.0376 414.233 69.8276 414.963 69.6476 415.893L69.5576 416.313L67.3776 415.893L70.9375 397.523L73.1176 397.943L72.9976 398.633C72.6876 400.193 72.7675 401.213 73.2275 401.673C73.7075 402.173 74.4075 402.173 75.3475 401.713L88.9076 394.983L79.9976 386.473C79.0376 385.553 78.2276 385.033 77.5376 384.903C76.3276 384.673 75.5376 385.593 75.1376 387.633L74.9976 388.323L72.8076 387.903L75.3876 374.593L77.5775 375.013C77.3675 376.683 77.4575 377.993 77.8275 378.913C78.1575 379.763 78.9776 380.803 80.2476 382.033L93.0775 394.503L93.0975 394.533ZM87.8076 339.353L85.6975 338.633L90.5576 324.553L92.6576 325.283L92.5076 325.673C91.9076 327.423 91.7776 328.773 92.1376 329.753C92.5276 330.803 93.5776 331.613 95.2576 332.193L108.648 336.813C113.418 338.463 116.548 341.043 118.028 344.583C119.458 347.983 119.338 352.123 117.668 356.973C116.088 361.583 113.898 364.973 111.128 367.103C107.858 369.643 104.068 370.163 99.7375 368.663L83.6776 363.143C82.2676 362.663 81.1976 362.603 80.5176 362.973C79.8076 363.353 79.2275 364.243 78.7275 365.683L78.4076 366.623L76.3076 365.893L82.1576 348.893L84.2676 349.623L83.9475 350.543C83.0775 353.103 83.8476 354.813 86.2876 355.643L102.338 361.163C106.338 362.543 109.548 361.793 111.988 358.933C113.068 357.663 113.918 356.143 114.528 354.353C115.648 351.083 115.708 348.233 114.718 345.793C113.648 343.253 111.528 341.423 108.318 340.313L95.2375 335.813C92.6775 334.943 90.8276 334.963 89.6576 335.923C89.0576 336.443 88.5576 337.253 88.1776 338.383L87.8475 339.353H87.8076ZM123.148 304.343L117.838 315.723L122.858 320.713C124.048 321.903 125.018 322.403 125.818 322.193C126.608 322.013 127.538 320.743 128.628 318.403L128.938 317.743L130.958 318.673L124.518 332.463L122.498 331.523L122.878 330.733C123.528 329.343 123.588 327.983 123.068 326.713C122.668 325.803 121.818 324.713 120.528 323.423L100.068 303.053L98.2976 302.913L101.888 295.203L132.938 297.033C134.768 297.143 136.128 297.033 137.038 296.723C138.228 296.283 139.228 295.373 139.998 293.993L142.018 294.933L134.128 311.843L132.108 310.913L132.958 309.073C133.668 307.553 133.788 306.453 133.308 305.743C132.858 305.073 131.828 304.703 130.248 304.643L123.128 304.303L123.148 304.343ZM119.758 304.203L105.468 303.353L115.488 313.343L119.758 304.203ZM125.048 268.633L143.078 280.333C145.038 281.603 146.598 281.753 147.808 280.773C148.498 280.233 149.248 279.333 150.058 278.083L151.908 279.293L144.328 290.953L142.478 289.753L142.668 289.473C143.478 288.223 143.848 287.203 143.808 286.413C143.788 285.483 143.188 284.603 142.038 283.853L120.128 269.633C118.778 270.193 117.588 271.253 116.568 272.813L114.718 271.603L121.148 261.673L154.238 255.233L139.828 245.863C137.668 244.473 136.058 244.203 134.998 245.073C134.378 245.593 133.648 246.493 132.788 247.823L132.478 248.303L130.628 247.093L138.688 234.683L140.538 235.893L140.228 236.373C139.418 237.623 138.958 238.573 138.808 239.263C138.618 240.343 139.038 241.223 140.078 241.883L165.618 258.463L163.888 261.133L124.998 268.673L125.048 268.633ZM162.258 208.963L160.658 207.423L173.338 194.293L174.948 195.843L174.278 196.523C172.258 198.613 172.258 200.653 174.318 202.653L190.528 218.313C191.628 219.373 192.648 219.873 193.588 219.793C194.518 219.703 195.518 219.103 196.628 217.983L197.208 217.373L198.808 218.913L186.128 232.033L184.528 230.493L185.088 229.913C187.028 227.913 187.048 225.993 185.168 224.183L168.798 208.373C167.698 207.313 166.678 206.773 165.778 206.773C164.868 206.773 163.868 207.333 162.778 208.443L162.258 208.983V208.963ZM188.548 187.983L202.648 204.213C204.168 205.963 205.648 206.523 207.058 205.943C207.848 205.603 208.828 204.963 209.958 203.963L211.408 205.623L200.918 214.753L199.458 213.083L199.708 212.853C200.828 211.873 201.478 211.003 201.668 210.233C201.918 209.313 201.558 208.333 200.668 207.273L183.528 187.553C182.068 187.713 180.628 188.403 179.238 189.633L177.778 187.963L186.708 180.203L220.308 183.133L209.018 170.163C207.328 168.223 205.848 167.513 204.598 168.073C203.878 168.413 202.918 169.073 201.728 170.093L201.308 170.473L199.858 168.803L211.018 159.103L212.478 160.763L212.058 161.143C210.938 162.123 210.228 162.913 209.888 163.533C209.418 164.513 209.578 165.473 210.388 166.413L230.368 189.403L227.968 191.483L188.528 188.013L188.548 187.983ZM240.198 181.303L233.098 173.633L234.928 172.343C239.738 175.933 244.048 176.363 247.858 173.703C250.008 172.203 251.068 170.343 251.048 168.143C251.028 167.143 250.718 166.203 250.108 165.323C248.988 163.723 247.088 162.893 244.448 162.783C243.488 162.743 241.278 162.973 237.798 163.433C234.408 163.913 231.868 163.993 230.138 163.743C227.428 163.333 225.348 162.053 223.848 159.933C222.638 158.203 222.138 156.333 222.348 154.313C222.538 152.413 223.288 150.603 224.638 148.873C225.558 147.683 226.698 146.623 228.098 145.643C229.638 144.563 231.138 143.753 232.578 143.213C234.798 142.393 235.968 141.963 236.088 141.873C236.448 141.623 236.678 141.213 236.758 140.623L237.738 139.943L243.928 146.873L242.048 148.183C240.278 146.713 238.318 145.853 236.178 145.663C233.928 145.463 231.868 146.003 230.008 147.313C228.888 148.103 228.058 149.063 227.528 150.163C226.908 151.503 226.948 152.703 227.698 153.773C228.638 155.103 230.348 155.723 232.818 155.663C234.778 155.433 236.758 155.183 238.718 154.933C242.528 154.523 245.608 154.493 247.968 154.913C251.008 155.433 253.338 156.873 254.958 159.203C257.318 162.553 257.398 166.223 255.208 170.223C254.188 172.073 252.798 173.633 251.008 174.883C249.898 175.653 248.218 176.473 245.928 177.323C243.628 178.173 242.298 178.743 241.928 179.013C241.488 179.323 241.318 179.803 241.468 180.453L240.258 181.303H240.198ZM270.628 124.343L282.408 147.463C283.178 148.953 284.058 149.793 285.078 149.983C285.948 150.123 287.178 149.813 288.788 149.003L290.018 148.373L291.018 150.353L272.598 159.723L271.598 157.743L273.328 156.873C275.958 155.543 276.648 153.603 275.348 151.063L263.568 127.943L257.528 131.023C256.298 131.653 255.458 132.173 255.028 132.613C254.298 133.313 253.958 134.193 254.048 135.233C254.088 136.173 254.418 137.713 255.048 139.793L252.938 140.853L249.028 130.903L250.668 130.063C251.358 130.253 251.798 130.343 252.008 130.293C252.378 130.233 252.898 130.023 253.568 129.693L277.918 117.28C278.918 116.759 279.578 116.051 279.908 115.155L281.558 114.322L287.308 123.34L285.198 124.403C284.118 122.986 283.368 122.049 282.928 121.633C281.828 120.55 280.808 120.05 279.848 120.112C279.058 120.175 277.978 120.57 276.598 121.258L270.578 124.323L270.628 124.343ZM291.098 113.01L290.308 110.928L307.338 104.388L308.138 106.45L307.238 106.783C304.528 107.824 303.658 109.678 304.698 112.344L312.778 133.383C313.318 134.813 314.048 135.693 314.948 136.003C315.818 136.313 317.008 136.193 318.468 135.633L319.258 135.333L320.048 137.403L303.008 143.943L302.218 141.873L302.968 141.583C305.568 140.583 306.388 138.873 305.468 136.443L297.308 115.197C296.758 113.76 296.078 112.844 295.238 112.469C294.408 112.094 293.258 112.177 291.828 112.719L291.118 112.989L291.098 113.01ZM335.768 97.328L343.788 122.008C344.308 123.613 345.058 124.573 346.038 124.903C346.868 125.193 348.158 125.073 349.848 124.503L351.158 124.093L351.848 126.193L332.208 132.563L331.518 130.463L333.358 129.863C336.168 128.943 337.128 127.133 336.248 124.443L328.228 99.764L321.778 101.868C320.488 102.284 319.568 102.68 319.068 103.034C318.238 103.617 317.778 104.43 317.668 105.471C317.568 106.408 317.648 107.97 317.938 110.136L315.718 110.865L313.398 100.431L315.168 99.848C315.818 100.139 316.258 100.285 316.468 100.285C316.858 100.285 317.398 100.16 318.088 99.931L344.078 91.496C345.168 91.142 345.918 90.559 346.388 89.726L348.158 89.143L352.428 98.952L350.208 99.681C349.368 98.119 348.768 97.078 348.408 96.578C347.498 95.349 346.558 94.683 345.618 94.599C344.828 94.537 343.708 94.745 342.228 95.224L335.808 97.307L335.768 97.328ZM386.608 84.915L386.218 82.728L400.877 80.145L401.268 82.332L400.858 82.415C399.018 82.728 397.768 83.29 397.108 84.061C396.378 84.915 396.168 86.227 396.478 87.976L398.938 101.93C399.818 106.887 399.068 110.886 396.688 113.885C394.418 116.801 390.737 118.696 385.667 119.592C380.877 120.446 376.857 120.154 373.637 118.779C369.817 117.155 367.548 114.093 366.738 109.574L363.788 92.85C363.538 91.371 363.057 90.434 362.387 89.996C361.717 89.559 360.638 89.476 359.158 89.747L358.178 89.913L357.788 87.726L375.488 84.602L375.887 86.789L374.927 86.956C372.257 87.435 371.138 88.934 371.598 91.454L374.548 108.178C375.278 112.344 377.487 114.801 381.177 115.53C382.797 115.864 384.547 115.864 386.397 115.551C389.797 114.947 392.338 113.614 393.978 111.552C395.688 109.386 396.247 106.637 395.667 103.305L393.278 89.684C392.798 87.018 391.878 85.414 390.488 84.831C389.738 84.54 388.778 84.519 387.608 84.727L386.588 84.915H386.608ZM433.218 81.187L433.677 107.137C433.697 108.824 434.138 109.969 434.968 110.573C435.678 111.094 436.948 111.344 438.738 111.323L440.118 111.302L440.157 113.531L419.498 113.885L419.458 111.657L421.387 111.615C424.327 111.573 425.788 110.115 425.748 107.283L425.288 81.332L418.498 81.457C417.118 81.478 416.138 81.603 415.558 81.791C414.578 82.103 413.918 82.749 413.518 83.727C413.148 84.602 412.767 86.123 412.417 88.268L410.058 88.309L410.917 77.646L412.768 77.604C413.288 78.083 413.668 78.333 413.868 78.396C414.248 78.5 414.808 78.542 415.538 78.542L442.868 78.063C443.988 78.042 444.908 77.688 445.588 77.042L447.448 77L448.677 87.622L446.318 87.664C445.968 85.914 445.698 84.748 445.508 84.186C444.988 82.728 444.297 81.832 443.407 81.478C442.677 81.187 441.528 81.062 439.988 81.082L433.238 81.207L433.218 81.187ZM485.038 88.58C484.908 86.831 484.707 85.623 484.387 84.977C483.867 83.894 482.888 83.311 481.458 83.207L468.897 82.332L467.998 95.099L477.288 95.745C478.828 95.849 479.957 95.62 480.667 95.057C481.367 94.495 481.768 93.454 481.868 91.933L484.167 92.1L483.368 103.409L481.078 103.242C481.228 101.201 480.708 99.931 479.498 99.389C478.768 99.077 477.668 98.869 476.188 98.765L467.768 98.181L467.068 108.407C466.998 109.449 467.048 110.157 467.228 110.532C467.458 111.115 468.038 111.427 468.978 111.49L478.538 112.156C480.618 112.302 482.188 111.948 483.228 111.094C484.168 110.344 484.938 108.907 485.538 106.825L487.708 106.97L486.407 115.843L451.917 113.427L452.068 111.219L454.417 111.386C457.397 111.594 458.987 110.344 459.188 107.616L460.778 84.956C460.898 83.29 460.548 82.124 459.758 81.457C459.088 80.916 457.858 80.583 456.068 80.458L455.508 80.416L455.647 78.208L487.188 80.416V88.684L485.018 88.539L485.038 88.58ZM524.688 104.804C526.237 99.41 529.508 95.516 534.458 93.162C539.418 90.788 544.997 90.475 551.167 92.246C556.977 93.912 561.248 96.89 563.968 101.16C566.718 105.45 567.348 110.157 565.868 115.28C564.738 119.175 562.638 122.341 559.558 124.773C556.538 127.153 552.977 128.503 548.897 128.793C546.017 129.023 542.998 128.693 539.808 127.773C536.128 126.713 532.978 125.093 530.338 122.861C527.438 120.383 525.508 117.467 524.568 114.072C523.718 110.99 523.757 107.908 524.647 104.784L524.688 104.804ZM533.688 104.534C532.207 109.699 532.208 114.281 533.708 118.238C535.168 122.153 537.858 124.693 541.768 125.823C546.628 127.213 550.618 125.823 553.808 121.674C555.248 119.758 556.328 117.509 557.078 114.926C558.428 110.24 558.457 105.95 557.177 102.097C555.827 98.015 553.157 95.391 549.167 94.245C544.377 92.871 540.397 94.058 537.167 97.807C535.607 99.618 534.437 101.847 533.667 104.555L533.688 104.534ZM592.397 111.802L587.198 123.503L594.488 126.753C596.798 127.793 598.418 127.923 599.318 127.113C599.818 126.693 600.278 125.963 600.728 124.983L602.838 125.923L598.228 136.273L596.127 135.333C597.227 132.863 596.587 131.093 594.167 130.023L585.927 126.363L582.198 134.733C581.158 137.063 580.967 138.653 581.637 139.483C582.007 139.923 582.698 140.373 583.677 140.813L584.677 141.253L583.778 143.273L568.118 136.293L569.008 134.273L569.848 134.653C570.968 135.153 571.868 135.273 572.528 135.043C573.178 134.813 573.758 134.153 574.258 133.043L583.627 111.99C584.277 110.553 584.548 109.449 584.468 108.678C584.338 107.637 583.628 106.804 582.318 106.221L581.657 105.929L582.528 103.951L608.998 115.739L605.728 123.07L603.838 122.216C604.418 120.654 604.687 119.508 604.627 118.8C604.537 117.696 603.838 116.863 602.518 116.28L592.397 111.781V111.802ZM668.478 155.893L653.588 177.153C652.608 178.533 652.298 179.723 652.608 180.693C652.878 181.533 653.758 182.493 655.218 183.513L656.338 184.303L655.068 186.113L638.157 174.263L639.427 172.453L641.008 173.553C643.428 175.243 645.448 174.933 647.088 172.613L661.988 151.353L656.427 147.463C655.297 146.663 654.448 146.183 653.858 146.003C652.878 145.683 651.968 145.813 651.068 146.353C650.258 146.833 649.068 147.853 647.508 149.393L645.568 148.043L652.528 139.923L654.048 140.983C654.198 141.673 654.338 142.103 654.488 142.273C654.738 142.583 655.148 142.943 655.738 143.353L678.127 159.033C679.037 159.683 679.977 159.933 680.938 159.813L682.458 160.873L677.208 170.183L675.268 168.823C676.018 167.203 676.477 166.123 676.667 165.533C677.107 164.053 677.088 162.913 676.558 162.103C676.148 161.433 675.288 160.663 674.018 159.763L668.478 155.893ZM704.468 193.823C705.468 192.383 706.078 191.303 706.238 190.613C706.508 189.443 706.118 188.363 705.078 187.383L695.868 178.803L687.147 188.173L693.958 194.523C695.078 195.593 696.098 196.113 696.998 196.133C697.888 196.133 698.867 195.593 699.907 194.463L701.598 196.023L693.868 204.313L692.188 202.753C693.578 201.253 693.978 199.943 693.368 198.773C692.998 198.093 692.268 197.213 691.188 196.213L685.018 190.463L678.018 197.963C677.308 198.733 676.918 199.313 676.808 199.733C676.628 200.333 676.898 200.943 677.588 201.583L684.598 208.123C686.148 209.563 687.577 210.253 688.917 210.253C690.117 210.253 691.617 209.623 693.407 208.393L694.998 209.873L688.417 215.963L663.127 192.383L664.647 190.753L666.377 192.363C668.567 194.403 670.588 194.423 672.438 192.423L687.938 175.823C689.078 174.593 689.538 173.473 689.328 172.473C689.168 171.613 688.418 170.573 687.098 169.373L686.688 168.993L688.208 167.373L711.318 188.923L706.118 195.363L704.508 193.883L704.468 193.823ZM722.258 239.163L723.758 240.893C720.818 242.743 717.508 244.203 713.818 245.263C713.468 244.433 712.797 243.513 711.887 242.453C711.427 241.913 710.328 240.933 708.618 239.473C706.908 238.033 705.577 236.763 704.637 235.683C702.217 232.893 700.538 229.803 699.618 226.453C698.638 222.913 698.638 219.433 699.598 216.043C700.518 212.793 702.238 210.063 704.808 207.833C708.738 204.423 713.468 203.133 718.968 203.963C724.488 204.793 729.278 207.543 733.318 212.193C734.978 214.103 736.228 216.063 737.088 218.043C738.148 220.623 738.708 221.953 738.768 222.043C739.068 222.373 739.458 222.543 739.938 222.543L740.877 223.623L733.708 230.553L732.258 228.873C734.318 225.413 734.857 222.103 733.897 218.893C733.417 217.293 732.587 215.813 731.397 214.433C728.717 211.353 725.487 209.773 721.677 209.673C717.818 209.583 714.218 211.003 710.868 213.913C708.698 215.813 707.098 218.003 706.028 220.503C704.908 223.143 704.558 225.833 704.968 228.563C705.368 231.183 706.427 233.473 708.177 235.493C709.948 237.533 712.117 238.863 714.657 239.473C717.067 240.033 719.588 239.953 722.238 239.163H722.258ZM734.758 270.773L735.188 271.443C736.747 273.853 738.768 274.253 741.228 272.673L749.728 267.153L739.417 251.263L730.818 256.843C728.438 258.383 728.047 260.403 729.647 262.883L730.108 263.593L728.258 264.793L718.218 249.343L720.068 248.133L720.588 248.943C722.128 251.323 724.067 251.743 726.377 250.243L745.377 237.913C747.707 236.393 748.078 234.433 746.538 232.053L746.038 231.283L747.897 230.083L757.938 245.533L756.078 246.743L755.637 246.073C754.017 243.553 752.038 243.073 749.708 244.573L742.228 249.423L752.538 265.313L759.887 260.553C761.267 259.653 762.017 258.753 762.157 257.823C762.307 256.883 761.928 255.733 761.038 254.343L760.768 253.923L762.618 252.713L772.618 268.113L770.768 269.313L770.198 268.443C768.638 266.043 766.698 265.593 764.368 267.113L745.478 279.373C744.188 280.213 743.458 281.103 743.288 282.023C743.128 282.963 743.458 284.063 744.308 285.393L744.808 286.163L742.958 287.373L732.958 271.983L734.818 270.773H734.758ZM772.177 284.123L753.018 293.893C750.958 294.953 750.038 296.243 750.268 297.763C750.398 298.623 750.788 299.723 751.478 301.053L749.498 302.053L743.188 289.663L745.167 288.663L745.308 288.953C745.998 290.293 746.687 291.123 747.397 291.473C748.227 291.933 749.268 291.853 750.498 291.203L773.758 279.353C773.948 277.893 773.638 276.333 772.788 274.693L774.758 273.693L780.137 284.233L769.157 316.113L784.488 308.303C786.778 307.143 787.818 305.873 787.588 304.533C787.448 303.743 787.028 302.643 786.318 301.243L786.068 300.743L788.048 299.743L794.778 312.933L792.798 313.933L792.548 313.433C791.858 312.093 791.278 311.223 790.758 310.763C789.928 310.053 788.948 309.993 787.838 310.553L760.708 324.383L759.268 321.573L772.177 284.123ZM779.637 327.133C784.927 325.303 789.988 325.733 794.778 328.463C799.568 331.173 803.028 335.543 805.108 341.633C807.068 347.333 807.087 352.543 805.147 357.223C803.207 361.933 799.707 365.143 794.667 366.893C790.837 368.203 787.048 368.303 783.278 367.163C779.618 366.063 776.468 363.913 773.868 360.743C772.038 358.523 770.578 355.853 769.488 352.733C768.248 349.103 767.768 345.583 768.098 342.153C768.448 338.363 769.768 335.113 771.988 332.383C774.038 329.923 776.577 328.173 779.657 327.113L779.637 327.133ZM785.028 334.343C779.948 336.093 776.198 338.713 773.808 342.233C771.428 345.693 770.908 349.333 772.218 353.183C773.868 357.953 777.298 360.433 782.528 360.663C784.928 360.743 787.408 360.353 789.948 359.473C794.568 357.893 798.088 355.453 800.508 352.183C803.068 348.733 803.688 345.043 802.338 341.133C800.708 336.423 797.438 333.843 792.548 333.363C790.178 333.113 787.658 333.443 785.008 334.363L785.028 334.343ZM794.318 408.483L783.798 406.253L777.927 376.073L780.118 375.663L780.298 376.593C780.738 378.863 781.598 380.183 782.838 380.533C783.448 380.703 784.238 380.683 785.218 380.493L807.588 376.143C810.248 375.613 811.318 373.893 810.728 370.933L810.518 369.873L812.708 369.453L816.417 388.553L814.228 388.963L813.917 387.343C813.378 384.553 811.788 383.403 809.208 383.923L786.198 388.403C785.177 388.593 784.548 388.943 784.278 389.423C784.008 389.903 783.987 390.653 784.177 391.713L785.568 398.883C785.988 400.983 787.087 402.563 788.927 403.633C789.758 404.113 791.397 405.003 793.877 406.253L794.318 408.503V408.483ZM801.728 409.603C807.318 409.133 812.128 410.773 816.108 414.563C820.098 418.333 822.367 423.433 822.938 429.833C823.458 435.853 822.208 440.893 819.188 444.993C816.167 449.093 811.997 451.363 806.688 451.823C802.648 452.173 798.938 451.343 795.568 449.343C792.278 447.363 789.738 444.533 787.988 440.823C786.738 438.223 785.967 435.283 785.677 431.993C785.337 428.183 785.738 424.643 786.858 421.393C788.138 417.793 790.178 414.963 793.008 412.873C795.568 410.983 798.488 409.903 801.708 409.633L801.728 409.603ZM805.208 417.913C799.858 418.393 795.587 420.043 792.427 422.853C789.277 425.623 787.888 429.043 788.238 433.103C788.678 438.123 791.397 441.373 796.417 442.843C798.737 443.493 801.207 443.723 803.897 443.473C808.767 443.053 812.767 441.533 815.917 438.973C819.247 436.243 820.727 432.813 820.377 428.683C819.937 423.733 817.398 420.433 812.748 418.773C810.498 417.963 807.978 417.663 805.208 417.913ZM803.798 499.543L801.647 499.493C801.647 498.083 801.438 497.063 800.988 496.433C800.438 495.743 799.487 495.393 798.127 495.373L789.627 495.223C787.337 489.893 786.238 484.873 786.298 480.173C786.468 470.773 789.608 464.463 795.758 461.213C798.648 459.653 801.937 458.903 805.627 458.963C810.897 459.053 815.188 461.113 818.518 465.113C821.848 469.133 823.478 474.153 823.368 480.193C823.328 482.773 822.808 485.893 821.828 489.563C821.398 491.123 821.167 492.143 821.167 492.603C821.147 493.373 821.397 493.953 821.897 494.353L821.868 495.773L811.458 495.583L811.498 493.293C815.458 492.313 818.208 490.163 819.748 486.873C820.498 485.273 820.897 483.503 820.917 481.583C821.017 476.003 818.577 471.943 813.627 469.423C811.247 468.213 808.568 467.593 805.548 467.553C800.918 467.463 797.027 468.713 793.877 471.293C790.737 473.863 789.108 477.153 789.048 481.153C789.008 483.583 789.467 485.623 790.407 487.313L798.258 487.463C800.068 487.503 801.148 486.663 801.528 484.983C801.728 484.063 801.878 482.543 801.958 480.463L804.108 480.503L803.778 499.563L803.798 499.543ZM795.858 528.553L788.177 527.193C786.277 526.863 784.948 527.263 784.177 528.423C783.737 529.093 783.407 530.073 783.177 531.383L783.028 532.233L780.848 531.843L784.238 512.573L786.427 512.973L786.177 514.393C785.677 517.243 786.758 518.903 789.448 519.363L797.238 520.743L815.417 511.433C816.957 510.643 817.938 509.803 818.328 508.953C818.558 508.433 818.768 507.683 818.938 506.763L819.018 506.353L821.208 506.743L817.958 525.173L815.768 524.783L815.897 524.093C816.167 522.533 816.078 521.513 815.608 521.053C815.128 520.573 814.418 520.573 813.478 521.053L800.048 528.013L809.108 536.383C810.068 537.273 810.898 537.773 811.608 537.903C812.808 538.113 813.588 537.173 813.958 535.133L814.088 534.423L816.268 534.823L813.917 548.173L811.728 547.773C811.918 546.083 811.787 544.793 811.397 543.883C811.037 543.043 810.227 542.003 808.917 540.793L795.877 528.533L795.858 528.553Z" fill="#E62129"/>
<path d="M400.42 662.381V685.211C400.42 686.441 400.92 687.041 401.92 687.041H404.54V688.441H391.55V687.041H394.01C394.96 687.041 395.44 686.481 395.44 685.351V667.481C394.07 668.381 392.46 669.111 390.61 669.651L390.07 668.421C393.28 666.881 395.96 664.861 398.13 662.361H400.42V662.381ZM414.35 689.061L413.4 687.711C416.75 686.621 419.23 684.621 420.83 681.751C421.58 680.421 422.12 678.941 422.45 677.311C420.89 678.251 419.5 678.711 418.25 678.711C415.44 678.711 413.42 677.461 412.15 674.941C411.54 673.771 411.25 672.441 411.25 670.981C411.25 667.631 412.58 665.131 415.27 663.511C416.52 662.741 417.94 662.361 419.48 662.361C422.41 662.361 424.68 663.511 426.27 665.781C427.62 667.751 428.31 670.251 428.31 673.271C428.31 676.171 427.58 678.831 426.1 681.271C424.64 683.621 422.64 685.521 420.1 686.941C418.37 687.891 416.46 688.601 414.37 689.041L414.35 689.061ZM416.48 670.231C416.48 673.021 416.79 674.881 417.41 675.791C417.83 676.441 418.5 676.771 419.37 676.771C420.41 676.771 421.54 676.361 422.77 675.521C422.95 673.751 423.06 672.321 423.06 671.231C423.06 666.341 421.89 663.901 419.54 663.901C418.19 663.901 417.27 664.691 416.83 666.231C416.58 667.091 416.48 668.421 416.48 670.251V670.231ZM435.53 676.021L435.99 662.991H445.09C445.89 662.991 446.39 662.761 446.57 662.281H447.93L447.24 667.011H437.53L437.33 671.921C438.53 671.591 439.64 671.421 440.64 671.421C444.26 671.421 446.86 672.791 448.47 675.561C449.24 676.901 449.61 678.381 449.61 680.001C449.61 683.601 447.99 686.231 444.76 687.871C443.24 688.671 441.51 689.061 439.62 689.061C438.3 689.061 437.1 688.831 436.01 688.351C434.6 687.751 433.89 686.891 433.89 685.751C433.89 684.371 434.6 683.691 436.01 683.691C436.97 683.691 437.85 684.291 438.66 685.521C439.41 686.711 440.2 687.291 441.01 687.291C442.51 687.291 443.61 686.401 444.32 684.621C444.64 683.791 444.8 682.901 444.8 681.881C444.8 680.191 444.41 678.811 443.64 677.711C442.74 676.461 441.49 675.841 439.89 675.841C438.8 675.841 437.74 676.111 436.7 676.671L435.51 676.041L435.53 676.021ZM464.73 689.041V682.041H455.86V680.191L467.55 662.361H469.71V679.331H473.19V682.041H469.71V689.041H464.71H464.73ZM464.73 679.331L464.65 669.611L458.3 679.331H464.73Z" fill="#E62129"/>
</svg>
