<?xml version="1.0" encoding="UTF-8"?><svg id="b" xmlns="http://www.w3.org/2000/svg" viewBox="0 0 120.0155 120.016"><g id="c"><path d="M29.7312,76.5586h1.3617v3.2233h-1.3617v-3.2233h0ZM91.6835,28.9712c.4632.9379.1256,2.1605-.3458,3.1901-.4403.9601.5958,1.4434,1.3388,1.4751.5986.025,1.017-.2392,1.2897-.6364.7464-1.0873.2832-2.4485-.0309-3.6008-.2284-.8376-.2608-.9907-1.1987-1.2648-.6971-.2044-1.4857.0011-1.0531.8368h0ZM96.1418,19.3013c.4856-.7236.7076-1.091,1.5545-.2001.7668.8096-.585,2.7632-1.148,3.462-.434.4688-1.1236,1.1497-1.4763,1.5777.4312.1429,1.6002.5352,1.88.5928.6497.1309.3897-.4726.4736-.9482.072-.4125.1721-.2594.3952-.0284.5666.5885.3549.5715.5142.9326.0383.0661.2937.2798.572.5029.6412.5139.7501.3387.6287,1.0797-.0935.5774-.1964,1.0185-.7018.8668-1.1529-.343-2.935-1.091-4.0116-1.1948-2.2589-.3909-.6276-.4487-3.1215.927-.7503.4152-1.5117.8742-2.3386,1.0868-.5165.1326-.9235.1802-1.419.1391-.8051-.0666-1.1052-.6159-1.4117-1.2747-.1684-.4371-.1281-.7943.7665-1.0406.7424-.0655.7917.8351,2.6411.3172.5482-.1534,1.4119-.5749,1.7416-1.0712l-.6398-.3138c-.7149-.4578-1.4049-.9094-1.5333-1.8105-.0561-.3954-.0978-.7971-.0422-1.1869.1771-1.2106,1.1225.2302,1.3873.5673.7463.7605,2.0511,1.1432,2.5908,1.2925.843-.8872,2.6036-2.6305,2.8114-3.7556.0168-.0898-.0788-.3917-.1131-.5196h0ZM48.1975,19.9133c.2472-.3781.462-.6602.8852-.7024.6035-.0595.8553,1.097.0023,1.213-.4963.0677-1.1256-.1466-.8875-.5106h0ZM44.8591,14.0414c-.5644.4898-.2143,1.3405.0213,1.8493.3827.8257,1.3838.5964,1.0851,1.8536,0,0-.2659.4731-.2398,1.2875.0266.8146.3784.7378.9314.9283.5536.1916.6829-.2041,1.0347-.6202.6582-.779,1.2396-1.5863,1.0349-2.67-.1488-.79-.6418-1.8708-1.0066-2.5934-.1386-.2744-.0331-.695-.0655-1.3926-.026-.5559-2.5015,1.1029-2.7955,1.3575h0ZM49.2738,13.6267c-.1227-.6446-.6103-1.8202.2653-1.7102.7013.0876,2.4588,1.4774,2.3959,2.607-.059,1.0472-1.3697,1.4114-1.6507,1.7558-.2797.3441-.1357-.5672-.3945-1.2486-.2594-.6821-.493-.7594-.616-1.404h0ZM49.2446,6.9102c-.0091-.9751,1.0278-1.2863,1.1636-1.0451.3317.5933.4329,2.626.0148,2.7105-.9034.25-1.1725-1.0171-1.1784-1.6654h0ZM44.4039,23.1536c.9527.1772.513-1.9505,2.7283-1.5434.8796.1148,1.2827.269,2.2006.1774,1.9522-.1947,5.4192-.7121,7.319-1.2365,1.2322-.341,2.5781-.9725,2.6524-2.3831.0156-.2834-.1287-.4631-.6435-.2386-.8285.3625-4.1354,1.3861-6.2597,1.91-1.2561.3101-1.9727-.1012-1.8768-1.4593.0138-.2007.0566-.368.1082-.4578.9604-1.6946,1.4006-.9578,2.2204-2.0446.3577-.4743.5397-1.3559.385-1.8964-.7898-2.7576-3.4546-2.4625-3.3512-3.2403.0936-.7923,1.5095-.4499,2.1479-.9196.663-.4887.3957-.4756-.3246-.5751-.5814-.0802-.1537-1.3541.0011-2.4979.1548-1.1429-.4184-2.4197-1.1647-2.2691-.747.1502-1.2785.5816-1.3655.1244-.0873-.4575.2554-1.2535-.0623-1.7938-.3187-.54-1.1537-.574-1.1674.0326-.0136.6072.1024,2.4957-.0839,2.8778-.5093,1.0513-3.4194,2.6934-2.9522,3.344.3517.4904.3738.8308.8161.4399.5952-.5261,2.2541-3.0106,2.5242-.8767.1511,1.1976.1834,1.6333.015,1.8975-.1394.2166-2.7504,2.1254-3.1566,2.1881-1.7099.267-.1517-4.8136-1.8803-2.7505-.354.4238.1948,2.3783-.1046,3.5181-.3007,1.1387-.0496,2.3768.3357,2.817.1981.2257.5417.4686.8025.722.5249.508.3075.5477.2539,1.103-.0391.4036-.0411.8501-.5887.7804-.557-.0703-.7314-.3572-1.4355-.2387-.3495.0584-.5553.2285-.5043.5153.0709.3938.5746.8771.9275,1.0693.9046.4909,2.0313.2956,1.3077,1.4309-.6668.642-1.0528,1.2461.1763,1.4737h0ZM25.8534,27.8206c-.3453-.525-.1165-1.1316.4204-1.4358.1559.0012.2922.0888.407.1959.2367.2214.3388.2721.2517.5499-.1791.5627-.578,1.4519-1.0791.69h0ZM31.5728,28.0556c.0494.3529,1.2266,1.3714,1.5446.6715.4165-.9167.1148-.9096-.8869-1.1126-.5088-.1035-.7727-.3827-.6577.4411h0ZM32.1205,24.5593c-.1465-.3929-.6267-.3923-.8357-.0397.3589.4536,1.2839,1.2368.8357.0397h0ZM26.2018,24.2903c-.2455.6245-.834,1.1007-1.2756,1.4482-.6645.5602-1.4037,2.1172-.7484,2.6173.8963.6825,1.052-.5735,1.4173-.3484.3303.2049.362,1.0309,1.1486,1.5874,1.0055.7648.9536-1.8998,1.4423-1.5951.5363.3167.5292.4887.1281,1.0523-.4008.5621-.5547.729-.449,1.188.1026.447.1931,1.3957.902.3441.3456-.5131.7606-1.2779.9808-1.1316,1.0874.7203.3095,1.3102-.1548,1.4448-1.1523.1647-1.1018.7702-.0025.9581,2.1469.3648.4425-1.2231,1.2994-1.2974.3708-.0323.8025.5119,1.1786.3742.3773-.1381.7197-.5071.451-.8683-.2355-.3155-1.4295-.769-1.7056-1.713-.1465-.5048.2262-.7852.5618-1.3881.0922-.1641-.1644-.832-.1091-1.0071.0935-.2946.474-.0644.7381.1709.4615.4141,1.3292,1.7736,1.878,1.156.5576-.6262-.7177-2.6796.4601-2.9809.5867-.2084,2.6676-.1642,3.8446-.1715.7242-.0049.8974-.2849.7339-.9343-.1137-.4496-.5423-.9309-.631-1.0066-.7852-.629-2.4874-.116-3.6125.1165-1.8796.3878-1.2821-.879-1.5605-1.927-.2094-.7889-1.9303-1.1679-1.4227-2.3375.0341-.3404.0494-.8078-.0374-1.1525-.1207-.4774-.4368-.7183-1.1696-.0581-.5275.4756-1.178,1.5468-1.178,1.5468,0,0-.9706-1.1486-1.4057-2.666-.4363-1.5182-.7382-1.8521-1.0279-1.3892-.29.4626-.1681,1.1078.2248,2.0619.3935.9536,1.6727,4.3291,1.9732,5.0647.6834,1.6718.8994.2783.8226-.0618-.093-.4145.9071-1.4681,1.222-.7818.5939,1.2929,1.2218,2.4488-.8095,2.3493-2.204-.1088-1.2827.6072-.9839.8946.1457.1389,1.0655.781,1.235.953.5709.5797-.1284,1.1376-.3486,1.5875-.2365.4801-.6625.9036-.9324.8022-.1785-.0667-.2701-.1154-.3843-.313-.1696-.5352.2409-.7999.4345-1.0596.6355-.8526-.5683-1.8493-.9303-1.2444-.2625.4374-.5633,1.366-.7594,1.0885-.2738-.3903-.3841-.8762-.1494-1.3266.3807-.7305-.0882-2.0058-.6316-1.3935-.3007.3382-.4858.9139-.657,1.347h0ZM21.9203,22.2094c-.0422-.5094-.1536-.7671.2495-1.1302.2497-.2256.3801.2614.6553.5168.2756.2551.8005.2854.5777-.4193-.3517-1.1075-1.601-2.4706-1.8927-3.7808-.2517-1.1319.6299-.4164.6299-.4164,0,0,.294.3892.8147,1.4306.1828.3663,1.1744,2.2204,1.7745,1.671.5082-.4654.5196-1.4941.4124-2.2209-.3345-2.2683,1.025-.1023,1.1582.3172.1511.4757.1993,1.0763-.0464,1.6512-.1911.4481-.0851,2.7816.0048,3.4256.0102.0718-.1814,1.357-.5874.5366-.2089-.4212-.5179-1.1247-.5448-1.248-.178-.819-1.3223,1.0233-1.6892,1.2702-.9637.6477-1.4683-1.0285-1.5165-1.6036h0ZM21.5898,28.2719c1.3073.589.9805,1.8093,1.3745,2.7147.4326.9938.8399.7308,1.569.2528.453-.2976.5017-.1261,1.3969,1.0126.8952,1.1384,1.4244,1.9253,1.6469,2.1146.1131.0958,2.2505.7852,1.2855-.4785-.352-.4606-2.9882-3.6481-3.6093-3.9784-.6214-.3285-1.3348.3654-1.4956-.4921-.5031-2.6892-2.4159-2.2297-2.4831-3.5166-.0723-1.3774-.1715-2.5458-.4745-3.4606-.2262-.6792-.6602-1.2713-.7756-1.4278-.2701-.3685-.1695.4309-.0904,1.0814.0796.6511.229,3.1289.053,4.6766-.1749,1.5475.7795,1.1313,1.6027,1.5013h0ZM108.3399,35.6232c1.0553.1196,2.1118.1953,2.353.3708.2427.1743.6922.6959.1684.7362-.5244.0405-.9476.0963-1.0755.4929-.0621.1911-.1168.506-.2347.7713-.1624.362-.5641.506-1.0154.4918-1.3076-.04-2.4052-1.1457-1.4813-2.3238.2851-.3648.7392-.6013,1.2855-.5392h0ZM111.6397,38.258s-.1545.2764-.3161.4638c-.6313.7364-1.1199,1.0882-.2832,2.0429.1523.1732,2.6042,1.5503,1.9392,2.1416-.307.273-.9385-.3203-1.5837-.4822-.6449-.1619-.4643.3691-.4643.3691,0,0-.0275.6219,1.2265,1.4473.9077.597,3.3191,1.1197,3.6941-.3761.0803-.3232.3547-.8065-.8013-1.4386-1.1551-.6321-1.6926-1.2237-1.9879-1.6404-.2951-.4167-.5434-2.507-.7983-2.8553-.2548-.3504-.625.3279-.625.3279h0ZM100.298,40.1176c-.438.2709-.544.1876-.5343.6786.0136.638,1.0006.8232,1.4499.8696.3546.0369.551-.2505.807-.4453.2565-.1953,1.6923-1.0168,2.147-1.1517,1.6928-.5029,5.5111,4.4677,5.9269,5.8198.1812.5905-.1369.8657-.6724.9156-.8903.0839-2.5296-.5309-3.2337-1.0922-.8722-.6942-.9618-1.5179-1.9727-2.3082-.3903-.3059-.5694-.0964-.9844.1108-.415.2075.0255.5885.3481,1.0593.5785.841,1.5536,1.5922-.0315,1.6733-1.4117.0706-1.0814,1.5605-2.4625-.0887-.6052-.722-.657-1.1608-1.1021-1.6339-.585-.6222-1.1704-2.3071-1.6537-1.9077-.1142.0946-.2625.216-.4671.3237-.5678.2993-.0125,1.0394.0856,1.2719.0966.2321-.0661.4059-.2804,1.1565-.2333.8161-.5683,4.8637,1.2495,4.9516.3631.0173,1.5307-1.2039,2.1345-.9797.6398.2376.8612,1.1251,1.5367,1.5565,0,0,.4555.11.8334.0488,1.707-.2744-1.1679-2.1779-.5845-2.975.8832-.7444,2.2813-.6035,2.8808-1.2515.2667-.2883-.0315-.4303,1.9398.7124.8858.513,1.7708.5113,2.3354.3594,1.3312-.3572,1.6523-1.3473,1.1699-2.6045-1.0661-2.7819-5.6308-7.0591-7.1141-6.7181,0,0-.7832.1327-1.9554.6696-.682.3123-1.3535.7052-1.7957.9791h0ZM98.4821,45.3597c.6534-.2841,1.6535,2.0443,1.5452,2.323-.146.3781-.6554.7072-.8935.7251-.5477.0422-.8768-1.2351-.8963-1.6566-.0184-.4011-.159-1.2161.2446-1.3915h0ZM68.8859,8.4846c1.4893-.7285,1.6956-1.0916,2.8131-2.194.3177-.3124.6236-.5465.9742-.6214.7733-.1649.9153,1.3332.8249,1.7238-.091.3903-.5468.8096-1.0814,1.2631-.5346.4541-1.1702.7033-.2744,1.1404.8952.4374,1.8706,1.036,2.3391.4357.3816-.3782.0222-.8725.4286-1.0749.1732-.0853.7674-.1792,1.0251-.2098,1.3529-.1647,1.5261-.6041,2.5579-1.0916.4485-.2123.7662-.1897,1.0066.2197.3957.6755-1.4386,1.1999-1.6242,1.4927-.1863.2925.2279.4062.7908.5828.6316.1239,1.2269.3739,1.0608.6126-.1662.2398-1.0302.2625-1.1081.6154-.078.3523.4671.7517.1369.9785-.3436.2364-1.4264.6131-2.2226.629-1.7261.0351-.1418-.7452.3685-1.0735,1.2243-.7971-.8246-1.4442-1.0114-1.3714-.2912.1137-.4754.2322-.7546.3161-.8464.2517-.4859-.5919-1.2838.9397-.233.4493-.8643.8898-1.2181.8149-.354-.0751-.7458-.5882-.8563-1.1293-.4845-2.3675-2.0257-.4589-3.4399-.1783-.3617-.0448-.6094-.7288-.6791-1.3292-.1262-1.0763.3344-1.0542,1.2274-1.491h0ZM67.0864,16.5472c-.4325-.1976-1.5468-.4261-1.199-1.3272.1749-.4524.3872-.7112.8248-.644.4374.0689,1.0599.1006,1.7635.0643.7041-.0351.9351-.2996,1.281-.072,1.1803.7832-.4791.6154-.7892,1.1087-.2381.3792-1.1251,1.7132-.7588,2.1126,2.0219.5738,1.241-.352,1.7433-.3815.1958-.0122.4974.0235.2528.4022-.244.379-.6046,1.1546-1.3331,1.4885-.728.3339-2.2315.4119-2.7488.2412-.4952-.1638-.5649-.7566-.3696-1.2725.1947-.5167.2441-.4305.7364-.447.2809-.0085.5939-.0459.7101-.246.2339-.398.3773-.8028-.1134-1.0273h0ZM69.4964,20.69c.8448.8433,1.446,1.1146,2.5679-.0371.8796.1627,1.378.108,1.9528-.017.802,1.62,2.0186,2.5163,2.74,2.6433,1.3153.2327,2.4222-1.5066,2.9288-2.2011.8178-1.2107.0269-.9357-1.0772-1.2005-.6358-.1519-1.3249-.5037-1.819-.6845-.1797-.0661-.7719-.072-.5202.2196.6713.779,2.0688,1.6427.4142,1.9987,0,0-.4326-.0274-1.016-.8832-.3897-.5715-.1916-.671.0876-1.3247.4938-1.1522,1.2654-2.6611,1.5497-2.8425.5012-.3209.9805-.635,1.1203-.7453.5196-.642-.8464-2.3326-2.0081-1.5176-1.6418,1.1528-.9966.604-2.5852,1.3952-1.2622.6278-.6879,1.2401-.0504,1.8278.6307.5808.7486-.546,1.7314-.5483.3892-.0059-.4816,1.3867-.7988,2.0123-.2815.059-1.8233.0443-2.0339-.1125-.184-.1372-.034-.7968-.3433-1.2433-.4898-1.3456-1.3019-.6063-1.4573-.1511-.1933.5661.6823,1.0803-.466,2.2899-.36.379-.5791.0975-1.1106.1905-.5303.0927-.1511.5884.1933.9314h0ZM18.8717,42.5789c.9887.7166,1.4779,1.6761,1.4244,2.0551-.0899.6386-.6976,1.2745-1.3091,1.084-.6987-.2186-.1165-3.1397-.1153-3.1391h0ZM18.4745,52.2975c-.0731-.6341-.0357-5.0089.3875-5.0534.512.0375.7625.9153,1.3969.1123.6336-.8033.809-1.1146.9726-.9164,1.3799,1.6594-2.5379,7.7799-2.757,5.8575h0ZM15.999,47.4644c.2441.1301,1.4678.1386,1.427-.0318.0147-.7415.0635-1.1154-.1746-1.2724-.847-.557-2.403-1.5874-2.9384-1.7757-1.1971-.42-1.4942.5823-1.2614.7246.1173.701,2.6036,2.1719,2.9474,2.3553h0ZM17.8914,55.9655c.8683-.6701-.5363-2.02,1.6866-2.8219,2.0982-.489,3.4589-5.8918,2.9013-7.3321-.2747-.7104-.1429-.8691-.0655-1.1347.078-.267,2.5158-2.3261,2.9058-3.1742.3915-.8476.0904-2.6278.0904-2.6278,0,0-.2522-.1244-.5439-.115-.2917.0079-.8036,1.1089-1.4227,2.0803-.334.5227-1.4587,2.7224-2.1773,2.122-.2713-.2262-1.7345-1.9893-1.9094-2.3808-.1755-.39.3838-3.5606.4555-3.9736.0717-.4124-1.4817-.6174-1.675,1.0088-.0661.559-.0958,1.4403-.25,2.0404-.1786.2843-.3042-.034-.8555.0406-.5511.0759-.5261.8367-.104,1.2053.422.3687.7398.7058.763.9547.0406.4184-.0144,2.9395-.6457,2.7586-.6942-.1981-2.6209-1.4819-3.1059-1.9136-.7189-.6409-.7512-.7875-.9958-1.6742-.4261-4.176,1.8227-2.1262,2.188-2.8873.5672-1.1793-1.3201-1.4613-2.1259-1.4624-1.0086,0-1.175,2.9188-1.19,3.5997-.0173.7191-.5868.6922-1.0792.3988-.3977-.2364-2.7147-1.8726-3.7497-2.463-.4626-.2636-1.525.3172-1.347.7132.2064.4569,4.4992,2.8723,5.1069,3.2496,1.0738.6662,1.135,1.0179,1.1648,2.5719.0459.8561-.898.9357-1.3774.5984-.479-.3376-.6726.328-.6726.328,0,0-.2362.3152,1.9579,2.0389,2.1945,1.7238,3.2144,1.6929,3.6972,1.3556.4827-.3365,1.4201-.6906,1.8703-.7478.159.3101-.0508,6.2617-.1055,6.9284-.1029.3552.1905,1.0392.6103.7152h0ZM69.4491,95.2234c-.1259.1131-.2163.2182-.2699.3123-.0822.1429-.1559.3518-.2208.6268-.0649.2749-.0981.559-.0981.8589,0,.3852.0494.7058.1457.9666.099.2596.2399.4481.4221.5612.182.1151.3685.1744.5613.1744.2999,0,.551-.1123.7566-.3291.2029-.2208.3052-.5202.3052-.8997,0-.7943-.5337-1.552-1.6021-2.2714h0ZM70.6768,93.9268c.1525-.2035.2636-.4343.3365-.688.0762-.2523.1119-.532.1119-.8339,0-.5315-.1151-.9386-.3441-1.2218-.1715-.2174-.4085-.3245-.7121-.3245-.2744,0-.5071.0983-.6993.2976-.1933.1976-.2868.4442-.2868.7398,0,.2971.1065.6078.3203.9304.2148.3203.6403.6874,1.2736,1.1004h0ZM71.1437,94.2406c.585.4303.9921.8297,1.2171,1.201.2291.3691.3422.794.3422,1.2739,0,.6707-.2531,1.2387-.7594,1.7033-.5043.4632-1.1917.696-2.0588.696-.8209,0-1.459-.203-1.9089-.6078-.4512-.4042-.6752-.9006-.6752-1.4856,0-.4465.1304-.8363.3895-1.1739.2605-.335.6945-.6409,1.2994-.9195-.6596-.5023-1.0828-.9153-1.2679-1.2351-.1863-.3177-.2804-.6879-.2804-1.1095,0-.557.2364-1.0479.7107-1.4706.4708-.4243,1.118-.6352,1.9417-.6352.7945,0,1.404.1865,1.8315.5612.4297.3756.6437.8232.6437,1.3476,0,.3941-.1176.7399-.3481,1.0418-.2302.2987-.5904.5714-1.0771.8124h0ZM61.8588,90.6176h3.8973l-.6182,1.5843h-3.2791l-.3118.83c1.4099.0516,2.497.4039,3.2575,1.0562.6279.5346.9406,1.203.9406,2.0012,0,.5108-.1454,1.0114-.4351,1.5004-.2917.4876-.6994.8649-1.228,1.1288-.5275.2642-1.1084.3963-1.7374.3963-.6803,0-1.203-.1279-1.5667-.381-.254-.1809-.3793-.3838-.3793-.6143,0-.1766.0664-.3314.1996-.4649.131-.1369.2863-.2035.4623-.2035.1591,0,.3223.0334.4865.0978.1635.0655.4439.2378.8399.5159.2488.1721.4654.2923.6451.3566.1256.0482.2702.0726.4298.0726.335,0,.6202-.1214.8552-.368.2358-.2446.3537-.5386.3537-.8844,0-.7183-.3597-1.3053-1.0811-1.7546-.7214-.4499-1.6276-.6761-2.7261-.6761-.1088,0-.2749.0023-.4963.0065l1.4916-4.1998h0ZM56.939,95.0751c.0411-.4572.0618-.8612.0618-1.209,0-.7438-.0851-1.438-.2588-2.0815-.0961-.3557-.2435-.6176-.436-.786-.1009-.0887-.2356-.1335-.3986-.1335-.2055,0-.3642.0881-.4779.2619-.1607.2429-.2412.7024-.2412,1.3839,0,1.1333.1363,1.9148.407,2.3439.1764.2781.4133.4173.7107.4173.1607,0,.371-.0655.633-.197h0ZM53.4163,99.1148v-.1715c.6787-.1554,1.2555-.3856,1.7261-.6874.4739-.3042.8484-.6767,1.1239-1.1231.2761-.4459.4703-.9596.5797-1.5424-.2534.1321-.4692.2217-.6475.275-.178.049-.3639.0746-.5615.0746-.6301,0-1.1545-.2263-1.5741-.6809-.4204-.4541-.6304-1.0749-.6304-1.8649,0-.5494.1154-1.0517.3421-1.5084.2262-.4546.5508-.8093.972-1.0624.421-.2517.8589-.3767,1.3142-.3767.4881,0,.9465.1395,1.381.4184.4334.2764.781.6814,1.0392,1.2095.2577.5273.3858,1.1296.3858,1.8034,0,.8757-.21,1.7144-.6287,2.5172-.4196.8019-1.0463,1.4454-1.8754,1.9321-.8323.4844-1.8125.7458-2.9464.7875h0ZM50.2081,90.4467v6.8074c0,.5108.0232.8382.0669.9805.0462.1409.1403.2562.2832.3455.1428.0902.3727.1364.6868.1364h.1905v.2268h-4.3838v-.2268h.2223c.3563,0,.6094-.0411.7605-.1236.1511-.0811.2543-.1953.3064-.337.0544-.1423.0816-.478.0816-1.0018v-4.3146c0-.3858-.0189-.6262-.0569-.7203-.0357-.0964-.1049-.178-.2044-.248-.1012-.0667-.2166-.1001-.3464-.1001-.2095,0-.4629.0649-.7631.1964l-.1088-.2219,3.0622-1.3989h.203ZM106.9211,66.1617l-.3948-.0346.2942-3.3658.3957.0348c-.0465.527.0369.8014.2478.8204.0796.0065.2296-.0352.4504-.1213.0547-.0221.0947-.0324.1213-.0298l2.1132-.8912-1.8178-1.1177c-.2274-.1256-.4085-.1959-.54-.2072-.2914-.0255-.4618.2523-.5125.8334l-.3952-.0346.2251-2.575.3952.0346c.0005.6131.2049,1.0034.6165,1.1727l2.8417,1.7243,1.8218.1596c.4703.0938.7274-.2566.7714-1.0494l.3954.0348-.3399,3.881-.3951-.0346c.0992-.8428-.0919-1.2453-.5741-1.2081l-1.8603-.1625-2.649,1.0848c-.8229.2733-1.226.6245-1.211,1.0514h0ZM105.336,72.6363l1.2512-6.4389,2.4276.4303-.091.4683c-1.3618.0601-2.1396.5845-2.3315,1.5715l5.3464,1.0398c.4581.144.7504-.1775.8774-.9632l.3892.0757-.7589,3.9033-.3889-.076c.1865-.8274.0388-1.2489-.4445-1.2614l-5.3467-1.0398c-.1924.9893.3328,1.7649,1.5724,2.3315l-.091.4677-2.4117-.5088h0ZM111.8154,74.95l-.375-.1287c-.2089.6851-.5298.9244-.9638.7191l-4.5853-1.5786c-.4677-.1054-.5732-.4915-.3161-1.1602l-.375-.1296-1.2036,3.4952.3751.1295c.2083-.6843.5303-.9244.9626-.7183l4.5859,1.5786c.4686.1041.5737.4921.3172,1.1588l.375.1296,1.203-3.4954h0ZM107.9192,84.6898l-2.4505-1.1432.1851-.3966c1.5721.2656,2.5939-.0757,3.067-1.0255.334-.7799.1704-1.3386-.492-1.6756-.4071-.1899-1.0148.1406-1.821.9924-1.12,1.1452-2.0634,1.5381-2.8318,1.1801-1.287-.688-1.6475-1.7343-1.0815-3.136.2129-.4561.5349-.834.9652-1.1296.1389-.1108.2192-.1899.2418-.239.0445-.0949.0071-.2307-.1179-.405-.0363-.0465-.0606-.0859-.0737-.1222l.1678-.36,2.198,1.025-.1678.36c-1.3822-.235-2.2856.0737-2.7136.9283-.3005.7079-.1684,1.2068.396,1.5001.4326.2013,1.0344-.1168,1.8057-.9569,1.1174-1.2048,2.1214-1.5988,3.0095-1.1846,1.1917.6434,1.5171,1.701.9754,3.1742-.235.5043-.5661.9655-.9932,1.3802-.1506.1335-.2413.2375-.2756.3095-.0555.1202-.0042.29.1571.5108.0113.0358.0178.0536.0178.0536l-.1678.36h0ZM105.9211,85.3939c.4291.3113.5763.5483.4385.7112.0244.2061-.3946.171-1.2583-.1057-.9077-.3056-1.6557-.0788-2.2425.6783l-.0329-.0212c.8589-1.372.8394-2.3635-.0564-2.9778-1.0375-.6412-2.029-.2577-2.9755,1.15l-1.9483,3.0002.3328.2163c.3685-.6143.7376-.7685,1.1084-.4649l4.0677,2.6413c.4283.2157.4374.6157.0266,1.2019l.3328.2166,1.9707-3.0348-.3328-.2157c-.3612.6514-.7742.7775-1.2433.3776l-1.7666-1.1467c.4465-.7843,1.1481-.8183,2.1048-.1023.9558.6208,1.6968.5018,2.2229-.3577.534-.8226.3566-1.5219-.5326-2.0994l-.216.3328h0ZM100.175,86.2131c-.334-.2168-.3788-.513-.133-.8917.434-.5715,1.0262-.6299,1.7739-.1749.8292.4742.8927,1.2271.1928,2.2575l-1.8337-1.1909h0ZM97.5506,88.2975l1.9429,1.5837-.2871.3305c-1.2629-.6083-2.2961-.4518-3.0958.4688-.4396.4252-.4617.7745-.0671,1.0472l1.5001,1.3042c.6344-.6083.6825-1.2679.1428-1.9817l.2617-.3011,2.1299,1.8522-.2613.3008c-.7816-.4352-1.4287-.296-1.9429.4167l1.7708,1.5392c.3209.3157.6636.2446,1.0273-.2126.8487-1.0174.8546-2.1362.019-3.3551l.2868-.3294,1.9579,1.8071-4.225,4.8605-.2994-.2602c.4882-.5235.5347-.9207.1406-1.1939l-3.6601-3.1819c-.2256-.2441-.4807-.2702-.7664-.078l.079.0941c-.3506.3649-.441.7334-.2667,1.107l2.1328,5.9431-.6398.5363-5.2438-3.2808c-.4416-.3206-.8186-.3155-1.1293.013l-.2551-.3038,2.5883-2.1717.2548.3036c-.5238.4068-.6727.7041-.4439.8929-.1298-.0303,1.1171.7745,3.7395,2.416l.0306-.0261c-.0621-.1559-.146-.3793-.2532-.6709-.9017-2.6-1.3277-3.7284-1.2843-3.386-.2376-.2835-.5709-.2472-.997.11l-.2548-.3036,1.3076-1.097-.0601-.0528,4.1207-4.7403h0ZM92.6198,103.007l-.2274-.3251c-.572.432-.9725.4362-1.2027.0156l-2.7816-3.9725c-.3161-.3603-.1749-.735.4263-1.1245l-.2279-.3249-3.028,2.1201.2279.3251c.5704-.4306.972-.4365,1.2008-.015l2.7819,3.9724c.3178.3595.1749.7351-.4249,1.1243l.2273.3245,3.0283-2.12h0ZM79.2008,103.3259l-.1797-.3535,2.1957-1.1185,5.2124,2.6974.0346-.0178-1.624-3.1873c-.1582-.4266-.597-.4995-1.3178-.222l-.1803-.3534,2.2671-1.1549.1798.3535c-.5534.3711-.7047.7458-.453,1.1239l2.6351,5.1718-.8493.4326-5.9267-3.0492-.0362.0184,1.9672,3.8616c.1457.461.6035.4811,1.3703.0616l.1802.354-2.444,1.2447-.1803-.3532c.6489-.3022.8416-.6534.578-1.0545l-2.2017-4.3208c-.1692-.4482-.5785-.4933-1.2274-.1344h0ZM72.072,105.4496l.1222.3773c.648-.237,1.0207-.1207,1.116.349l1.241,3.8188c.4189,1.2016,1.4522,1.5491,3.0974,1.0409,1.6892-.5488,2.3051-1.5285,1.8468-2.9398l-1.1183-3.4413c-.1911-.4124.0303-.7625.6608-1.0508l-.1228-.3773-2.4565.7982.1222.3773c.8053-.178,1.2404-.0411,1.3042.4128l1.1427,3.5163c.3605,1.109-.0142,1.844-1.1226,2.2045-.8832.2024-1.4791-.0904-1.7915-.8807l-1.29-3.9708c-.1976-.4362.0604-.7577.7733-.9623l-.1228-.3773-3.4021,1.1052h0ZM60.7303,106.9752l3.5688-.2494.0275.3957c-.741.0264-1.0689.2755-.9828.7469l.2912,4.165c.1114.8421.6185,1.2707,1.525,1.2877,1.1622-.0813,1.7039-.7041,1.6223-1.8671l-.2577-3.6885c.0476-.4558-.341-.6939-1.1659-.716l-.0275-.3957,2.5767-.1803.0281.3957c-.6815.1273-.9811.4136-.8958.86l.2529,3.6094c.1034,1.4802-.7314,2.2822-2.5033,2.4058-1.7192.0946-2.6376-.4921-2.7536-1.7595l-.2798-4.0056c.0179-.4201-.2364-.6279-.763-.6231l-.0108.157c-.7124-.0751-1.0576.1268-1.0386.6058l-.3385,4.8379c-.0853.472.2285.7203.9439.7447l-.0274.3957-3.5706-.2498.0278-.3954c.6078.0675.9145-.1369.9199-.6143l.1669-2.3796-2.2609-.1582-.1661,2.3797c-.0607.4736.2149.7194.8254.7361l-.0275.396-3.5294-.2466.0278-.3963c.6851.0737,1.0191-.1292.9978-.6089l.3385-4.8378c.0875-.4714-.2149-.7186-.9034-.7416l.0275-.3954,3.5294.2466-.0278.3957c-.6072-.0677-.9139.1369-.9199.6137l-.142,2.0225,2.2607.1582.142-2.0219c.0604-.4737-.2149-.7189-.826-.7362l.0275-.3957,3.2992.2307-.0085-.1236h0ZM52.23,110.7756l-.4286-.0907c-.4807,1.497-1.6588,2.0061-3.5342,1.5256l4.6681-4.9419.1488-.6999-5.0176-1.0666-.5819,2.3558.4274.091c.3433-1.2274,1.2291-1.7036,2.6606-1.4272l.6622.1409-4.8257,5.1117-.1077.506,5.3277,1.1321.6009-2.6368h0ZM40.3724,103.3568l.1231-.3773,2.3439.7614,1.7779,5.593.0372.0119,1.1052-3.4021c.1893-.413-.0686-.7756-.7756-1.0882l.123-.3773,2.4197.7858-.1227.3778c-.6534-.129-1.0256.0281-1.1149.474l-1.7938,5.5204-.9065-.2945-2.0344-6.3473-.0388-.0128-1.3397,4.1224c-.2228.4286.0867.7662.9255,1.012l-.1227.3779-2.6088-.8482.1228-.3772c.6724.2457,1.0565.1332,1.154-.3368l1.4986-4.6125c.1976-.4369-.06-.7577-.773-.9624h0ZM33.4817,106.9806l-2.4797-1.2637.1802-.3535c.5321.1815,1.1084-.0155,1.7297-.5918l4.4731-3.7885.4612.2347-.4048,6.5747c-.0646.4742.1174.82.5423,1.0366l-.1803.3532-3.2593-1.6603.1803-.3535.3541.1803c.3656.2149.5969.199.6942-.0482.0249-.0481.0606-.1476.1088-.3024-.0244.1074-.0238.0774.0017-.0885l.0615-1.2614-1.9828-1.01-.644.5619c-.1316.0822-.275.2472-.4315.4946-.1207.2965-.0161.5287.3144.6976l.4612.235-.1803.3532h0ZM35.9864,105.0437l.1582-2.3278-1.7524,1.5154,1.5942.8124h0ZM30.3942,105.0686l.2279-.3248c-.6015-.3895-.7427-.7642-.4266-1.1245l2.7819-3.9731c.2305-.42.6304-.4155,1.2025.0162l.2273-.3251-3.0274-2.1201-.2279.3249c.5995.3889.7424.7645.4252,1.1234l-2.7816,3.973c-.2296.4218-.631.4158-1.2016-.015l-.2279.3251,3.0282,2.12h0ZM29.6376,97.2493c.2656-.3991.6537-.3677,1.1651.0947l.2551-.3042-2.8627-2.4021-.2549.3036c.6052.4748.7339.8773.3875,1.2087l-2.9134,3.4724c-.4448.4904-.9609.5072-1.5477.0496-.4326-.4311-.5814-.8506-.4482-1.2571.0921.1786.1976.3209.3189.4226.3835.2869.7458.2452,1.0911-.1233.3359-.4439.2809-.8714-.1707-1.2832-.4827-.3719-.9655-.2923-1.4454.2398-.5493.8183-.3444,1.6486.6137,2.4851,1.3244,1.1821,2.4619,1.1676,3.409-.0442l2.4026-2.8624h0ZM18.1962,93.9787l-2.3262-2.873.3082-.25c.4297.5715.8144.688,1.1511.3453l3.769-3.0518c.3903-.2483.3719-.6304-.0513-1.1409l-.0536.0309c-.413-.5565-.8017-.7005-1.1653-.4275l-3.1337,1.8085c-1.285.7421-2.3715.3433-3.2596-1.1948-.8391-1.5041-.714-2.5866.3745-3.2462l3.4772-2.0075c.4108-.1792.4686-.5298.1758-1.0514l-.0848.034c-.2446-.6726-.578-.8946-.9998-.6678l-4.4969,1.8167c-.4617.1301-.547.5213-.2554,1.175l-.3676.1488-1.3411-3.3185.368-.1483c.2052.5757.5241.7614.9558.5573l2.2116-.8935-.8493-2.101-2.2113.8935c-.4521.1539-.5522.5088-.2999,1.0652l-.3679.1488-1.3249-3.2802.3673-.1488c.2345.6477.563.8589.9851.6298l4.4963-1.8167c.4623-.1284.5522-.5083.2707-1.1373l.0904-.0362c-.2208-.4785-.5213-.6512-.9005-.5157l-5.6563,1.306-.2143-.929,4.3929-5.0125-.0091-.0408-4.2231.9754c-.4827.0298-.6128.4692-.3914,1.3147l-.3864.0893-.6168-2.6725.3864-.0893c.1357.7024.4302.974.8832.8155l4.7254-1.091c.4756-.0558.6185-.4416.4269-1.1582l.3863-.0893.5542,2.4018-3.8778,4.4044.0088.038,3.4855-.8047c.4518-.0505.6293-.4587.5335-1.2249l.3869-.0893.5723,2.4786-.0927.0213,1.2286,3.0404-.368.1483c-.2052-.5752-.5233-.7614-.9547-.5579l-1.8802.7594.8492,2.1014,1.8797-.7597c.4518-.1528.5519-.5077.2991-1.0647l.3682-.1488,1.275,3.1563.0595-.0345,1.7887,3.0982-.343.1982c-.3487-.6543-.7166-.8399-1.1024-.5559l-3.6153,2.0877c-.7087.4691-.8711,1.1132-.4893,1.9347.5828,1.0094,1.3799,1.2231,2.3894.6403l3.2023-1.8488c.4303-.157.4742-.6111.1326-1.3617l.343-.1982,1.2283,2.1266.0345-.0278,2.3262,2.8729-.3085.2495c-.4308-.5726-.8141-.6874-1.1511-.347l-3.7692,3.0521c-.4037.2596-.3711.6585.0997,1.1987l-.3086.2501h0ZM6.1359,62.7927l.3951-.034-.045-.5159c-.0324-.3696.1094-.5817.4249-.6364.2928.0017.5088.0358.6477.1041l.8183.2483.1939,2.2167-1.1024.6159c-.1539.0661-.1802.0817-.0759.0457-.1565.0411-.2597.0638-.3138.068-.2614.0488-.3974-.1392-.4093-.5632l-.0346-.3957-.3949.0345.3186,3.6434.3952-.0346c-.0411-.4745.1559-.8118.5916-1.0088l5.7903-3.14-.0448-.5159-5.5834-1.7861c-.8181-.2214-1.2906-.606-1.419-1.1531l-.3949.0346.2424,2.7725h0ZM9.106,63.8903l-.1559-1.7827,2.2136.6834-2.0577,1.0993h0ZM60.0077,1.0284C27.523,1.0284,1.0273,27.5241,1.0273,60.0083s26.4957,58.9804,58.9804,58.9804,58.98-26.4962,58.98-58.9804S92.4919,1.0284,60.0077,1.0284h0ZM60.0077,0C26.9569,0,0,26.958,0,60.0083s26.9569,60.0077,60.0077,60.0077,60.0078-26.9575,60.0078-60.0077S93.0574,0,60.0077,0h0ZM60.0083,23.159c-17.8308,0-32.8371,12.4988-36.7052,29.183-1.196,5.1582-1.2952,10.5811-.2336,15.7708.7906,3.8682,2.2399,7.6365,4.4285,10.8575l-.0059-19.2923,27.1023,1.4176v.6937l-1.6047,1.5545-.0751.0703v1.2719h1.0284v1.4298l-12.2771-.4071v.6052h.3319v.9995l-2.2807-.0912v.6684h.2982v.9969l-2.3412-.0921v.669h.2991v1.2089l.451.5755v8.7417l12.943-.0201,13.7063.0201h15.7397l-2.6104-1.4122v-5.7866l.375-.4899v-1.0689h.2426v-.5562l-1.7433-.1122v-.843h.2886v-.4695l-1.7688-.0898v-.7336h.3101v-.6475l-10.4769-.5201v-.4672l11.9656-.3934v1.5622l.3643-.0153,1.5729-.0627v1.616l.3643-.0141,1.6316-.0627v1.3368l-.3637.4627-.0757.0969v8.6703h.7079v-8.7417l.4504-.5749v-1.209h.3013v-.6695l-2.3423.0921v-.9969h.2994v-.669l-2.2813.0913v-.999h.3308v-.6052l-12.2772.4071v-1.4292h1.029v-1.2719l-.0757-.0709-1.6047-1.5551v-.6931l27.0893-1.4176.0071,20.1408c3.2754-5.5809,5.1562-12.0711,5.1562-18.9868,0-20.7246-16.8848-37.6327-37.5999-37.6719l32.3635,56.7936c-2.3655,3.9923-5.4474,7.5163-9.0658,10.3895v.0017l-.0011.0017c.1477.2965.2917.6038.432.9238,8.9954-7.0747,14.7892-18.0544,14.7892-30.34,0-21.255-17.3359-38.5917-38.5892-38.5917-18.2653,0-33.637,12.8035-37.5993,29.8938-1.1982,5.1741-1.3204,10.5999-.3047,15.8134.9462,4.8518,2.8939,9.5805,5.9896,13.3262,6.4482,7.8004,15.5296,8.4371,24.9386,6.1926,11.3757-2.7136,22.4241-8.2091,28.7623.1953-6.1659-9.3645-17.4509-3.5098-29.0236-.8274-9.0176,2.0905-17.6621,1.3209-23.8394-6.0622-.3815-.4558-.7452-.9266-1.0916-1.4105L60.0143,23.159h-.006ZM29.7312,72.7225h1.3617v3.2213h-1.3617v-3.2213h0ZM29.7312,68.8841h1.3617v3.2219h-1.3617v-3.2219h0ZM29.7312,62.5076h2.5497v2.569h-2.5497v-2.569h0ZM90.2903,76.6451v3.2218h-1.3618v-3.2218h1.3618ZM90.2903,72.8078v3.2213h-1.3618v-3.2213h1.3618ZM90.2903,68.9691v3.223h-1.3618v-3.223h1.3618ZM90.2903,62.5076v2.5696h-2.5487v-2.5696h2.5487ZM61.763,65.9826v-1.1098h1.0768v.5547h.4125v-.5547h.8541v1.1098h-2.3434ZM58.7857,65.9826v-1.1098h1.0763v.5547h.4119v-.5547h1.0778v1.1098h-2.566ZM55.9715,64.8728h.913v.5547h.4113v-.5547h1.0775v1.1098h-2.4018v-1.1098h0ZM55.9633,69.5012h2.41v.4995h.4124v-.4995h2.566v.4995h.4113v-.4995h2.3346v1.1109h-8.1343v-1.1109h0ZM55.9437,61.6654v-.5601h8.1907v.5601h-8.1907ZM56.505,70.8179h7.0676v.913h-7.0676v-.913h0ZM55.9715,66.4222h2.4018v.544h.4124v-.544h2.566v.544h.4113v-.544h2.3434v2.6487h-2.3434v-.5505h-.4113v.5505h-2.566v-.5505h-.4124v.5505h-2.4018v-2.6487h0ZM56.4151,58.5394v2.4355h-.472v-2.4355h.472ZM55.5752,63.8951h-.5094v-2.1209h.5094v2.1209h0ZM55.5752,64.0312v.5114h-.5094v-.5114h.5094ZM55.0658,69.5012h.5094v1.1109h-.5094v-1.1109h0ZM54.6324,69.5012v1.1109h-.4025v-1.1109h.4025ZM55.9658,70.8137h.3767v8.7411h-.3767v-8.7411h0ZM63.6619,58.5394h.4725v2.4355h-.4725v-2.4355h0ZM64.5021,63.8951v-2.1209h.5091v2.1209h-.5091ZM64.5021,64.0312h.5091v.5114h-.5091v-.5114h0ZM65.0112,69.5012v1.1109h-.5091v-1.1109h.5091ZM65.4454,69.5012h.402v1.1109h-.402v-1.1109h0ZM64.1112,70.8137v8.7411h-.3762v-8.7411h.3762ZM63.6664,61.7742h.4655v.9114h-.4655v-.9114h0ZM55.942,61.7742h.466v.9114h-.466v-.9114h0ZM62.8934,61.7742h.4666v.9114h-.4666v-.9114h0ZM62.1218,61.7742h.4655v.9114h-.4655v-.9114h0ZM61.3494,61.7742h.4649v.9114h-.4649v-.9114h0ZM60.5772,61.7742h.4655v.9114h-.4655v-.9114h0ZM59.8042,61.7742h.466v.9114h-.466v-.9114h0ZM59.0321,61.7742h.4657v.9114h-.4657v-.9114h0ZM58.2596,61.7742h.4655v.9114h-.4655v-.9114h0ZM57.4872,61.7742h.4654v.9114h-.4654v-.9114h0ZM56.715,61.7742h.4649v.9114h-.4649v-.9114h0ZM55.8003,63.3177v16.6558h-.9595v-24.3595h.9595v7.1668h8.4764v-7.1668h.9598v24.3595h-.9598v-16.6558h-8.4764ZM65.4398,62.132l1.4337,1.3691v.925h-1.0261v.248h-.4076v-2.5421h0ZM65.4398,65.9826v-1.1098h.4076v1.1098h-.4076ZM54.6372,62.132v2.5421h-.407v-.248h-1.0265v-.925l1.4335-1.3691h0ZM54.6372,65.9826h-.4073v-1.1098h.4073v1.1098h0ZM55.9715,63.4957h8.1349v1.0761h-.8541v-.5381h-.4125v.5381h-1.0768v-.5381h-.4113v.5381h-1.0778v-.5381h-.4119v.5381h-1.0763v-.5381h-.4124v.5381h-1.0775v-.5381h-.4113v.5381h-.913v-1.0761h0ZM54.5907,67.261l-10.4768.5201v.6469h.3107v.7353l-1.7672.0873v.4709h.2875v.8436l-1.7445.1116v.5568h.2433v1.0683l.375.4899v5.7866l-2.6105,1.4122h-.0756v-8.6703l-.0763-.0969-.3642-.4621v-1.3374l1.635.0627.3625.0141v-1.6154l1.5727.0621.3634.0153v-1.5622l11.965.3946v.466h0ZM54.5956,42.0675l4.3058,2.8559c1.2574.8337.9581.8357,2.207.0131l4.32-2.8452-.0215,8.1479-4.3194,2.3015q-1.1004.4841-2.1838,0l-4.3243-2.3023.0162-8.1709Z" fill="#004ea2" fill-rule="evenodd" stroke-width="0"/></g></svg>