<svg width="809" height="808" viewBox="0 0 809 808" fill="none" xmlns="http://www.w3.org/2000/svg">
    <path fill-rule="evenodd" clip-rule="evenodd" d="M404.054 0.0664062C180.899 0.0664062 0 180.913 0 403.962C0 627.011 180.899 807.858 404.054 807.858C627.208 807.858 808.107 627.011 808.107 403.962C808.107 180.913 627.246 0.0664062 404.054 0.0664062ZM405.3 800.422C186.28 800.422 8.79855 623.009 8.79855 404.075C8.79855 185.141 186.28 7.72911 405.3 7.72911C624.319 7.72911 801.801 185.141 801.801 404.075C801.801 623.009 624.356 800.422 405.337 800.422H405.3Z" fill="#00417C"/>
    <path fill-rule="evenodd" clip-rule="evenodd" d="M673.882 197.844C675.003 197.123 675.805 196.004 676.128 194.711C676.26 193.443 675.856 192.176 675.014 191.219C674.267 190.185 673.126 189.504 671.862 189.332C670.496 189.156 669.12 189.575 668.085 190.483C667.09 191.204 666.303 192.174 665.8 193.295C665.245 194.703 664.866 196.174 664.668 197.674C666.613 198.478 668.669 198.982 670.766 199.165C671.92 199.074 673.015 198.612 673.882 197.844Z" fill="#00417C"/>
    <path fill-rule="evenodd" clip-rule="evenodd" d="M650.903 214.038C652.225 214.624 653.263 215.001 653.961 215.246C653.961 213.623 654.188 211.038 654.547 207.452C654.906 203.866 655.17 201.393 655.435 200.091C653.942 199.71 652.4 199.576 650.865 199.694C649.633 199.791 648.456 200.251 647.486 201.016C646.024 202.033 645.161 203.709 645.182 205.489C645.252 207.569 646.024 209.564 647.372 211.151C648.273 212.41 649.491 213.406 650.903 214.038Z" fill="#00417C"/>
    <path fill-rule="evenodd" clip-rule="evenodd" d="M193.322 659.435L208.37 651.358L198.458 643.129L193.322 659.435Z" fill="#00417C"/>
    <path fill-rule="evenodd" clip-rule="evenodd" d="M289.314 86.2433C284.737 83.3966 278.716 84.7986 275.869 89.3743C275.438 90.0658 275.096 90.8083 274.851 91.5846C274.096 94.5289 274.718 98.4923 276.739 103.55C277.956 107.337 280.198 110.714 283.215 113.308C285.754 115.136 289.085 115.447 291.919 114.119C294.87 113.218 297.102 110.792 297.753 107.778C298.338 104.871 297.753 100.964 295.865 96.0954C293.978 91.226 291.825 87.9986 289.314 86.2433Z" fill="#00417C"/>
    <path fill-rule="evenodd" clip-rule="evenodd" d="M114.399 235.855C112.796 234.785 110.833 234.398 108.943 234.78C107.202 235.357 105.771 236.618 104.977 238.271L102.807 242.046L115.079 248.916L117.42 244.783C118.351 243.286 118.572 241.455 118.025 239.781C117.351 238.065 116.057 236.663 114.399 235.855Z" fill="#00417C"/>
    <path fill-rule="evenodd" clip-rule="evenodd" d="M721.537 479.892C717.769 478.601 713.715 478.385 709.832 479.269C704.802 481.267 702.345 486.962 704.344 491.99C704.664 492.79 705.087 493.545 705.602 494.235C708.579 496.94 712.221 498.81 716.156 499.652C721.122 501.068 725.03 501.294 727.938 500.332C732.957 498.337 735.409 492.652 733.414 487.635C733.117 486.89 732.729 486.184 732.261 485.535C730.317 483.232 726.767 481.345 721.537 479.892Z" fill="#00417C"/>
    <path fill-rule="evenodd" clip-rule="evenodd" d="M686.645 567.484C683.39 565.178 679.561 563.813 675.581 563.539C672.454 563.611 669.609 565.365 668.141 568.126C666.307 570.608 665.972 573.894 667.273 576.694C668.538 579.374 671.427 582.13 675.845 584.904C680.263 587.679 683.888 589 686.948 588.925C692.317 588.439 696.276 583.697 695.791 578.329C695.717 577.519 695.544 576.725 695.274 575.958C694.103 573.165 691.214 570.353 686.645 567.484Z" fill="#00417C"/>
    <path fill-rule="evenodd" clip-rule="evenodd" d="M404.525 144.582C261.652 144.582 145.383 260.769 145.383 403.567C145.383 546.364 261.652 662.532 404.525 662.532C547.398 662.532 663.591 546.364 663.591 403.529C663.591 260.693 547.379 144.582 404.525 144.582ZM404.921 654.171C266.233 654.171 153.804 541.786 153.804 403.151C153.804 264.517 266.233 152.132 404.921 152.132C543.609 152.132 656.038 264.517 656.038 403.151C656.071 541.786 543.666 654.195 404.978 654.227C404.959 654.227 404.94 654.227 404.921 654.227V654.171Z" fill="#00417C"/>
    <path fill-rule="evenodd" clip-rule="evenodd" d="M427.825 727.287V714L416.533 727.287H427.825Z" fill="#00417C"/>
    <path fill-rule="evenodd" clip-rule="evenodd" d="M378.848 708.697C377.357 708.661 375.932 709.308 374.976 710.452C373.859 711.954 373.321 713.811 373.467 715.68C373.333 717.609 373.887 719.521 375.033 721.078C375.997 722.291 377.467 722.99 379.017 722.965C380.6 722.971 382.106 722.282 383.134 721.078C384.308 719.626 384.895 717.788 384.776 715.925C384.872 713.987 384.255 712.079 383.039 710.565C381.989 709.35 380.453 708.665 378.848 708.697Z" fill="#00417C"/>
    <path fill-rule="evenodd" clip-rule="evenodd" d="M404.053 17.6367C190.698 17.6367 17.5781 190.689 17.5781 403.961C17.5781 617.233 190.698 790.38 404.053 790.38C617.409 790.38 790.585 617.384 790.585 403.961C790.585 190.538 617.579 17.6367 404.053 17.6367ZM753.541 381.199L733.848 382.124L734.452 395.147L754.126 394.222L754.636 404.697L707.263 406.867L706.772 396.393L726.616 395.487L726.031 382.483L706.187 383.351L705.696 372.914L753.087 370.743L753.541 381.199ZM749.104 341.791C749.494 343.996 749.653 346.234 749.575 348.472C749.538 350.743 749.09 352.987 748.253 355.097L735.528 356.003L734.999 353.266L739.738 352.36C740.244 351.317 740.638 350.222 740.909 349.095C741.196 347.395 741.125 345.653 740.702 343.98C740.05 340.547 737.924 337.573 734.886 335.846C731.374 333.874 727.239 333.319 723.331 334.298C719.351 334.848 715.645 336.637 712.739 339.413C710.281 342.125 709.37 345.902 710.322 349.435C710.754 351.462 711.387 353.44 712.209 355.342C713.032 357.247 714.077 359.045 715.326 360.703L706.829 362.345C705.39 360.729 704.24 358.877 703.43 356.871C702.543 354.85 701.859 352.743 701.391 350.586C699.981 343.339 701.008 337.38 704.468 332.713C707.93 328.045 713.356 324.98 720.744 323.521C726.875 322.168 733.289 323.144 738.738 326.258C744.176 329.367 747.606 334.544 749.028 341.791H749.104ZM740.229 304.855L732.45 307.498L727.05 291.625L715.118 295.683L720.782 312.178L715.797 313.877L710.133 297.381L697.71 301.609L703.374 318.444L695.614 321.106L686.513 294.343L731.374 279.055L740.154 304.855H740.229ZM712.153 236.91L726.484 266.485L719.139 269.958L714.249 259.88L678.98 276.96L674.392 267.523L709.68 250.537L704.809 240.44L712.191 236.873L712.153 236.91ZM656.606 194.029C656.84 192.008 657.544 190.068 658.664 188.367C659.679 186.808 660.958 185.435 662.44 184.309C665.021 182.22 668.459 181.516 671.654 182.422C674.96 183.346 677.867 185.337 679.924 188.084C681.989 190.494 683.103 193.575 683.058 196.747C682.933 199.627 681.473 202.285 679.112 203.938C677.375 205.21 675.298 205.941 673.145 206.033C669.701 205.969 666.307 205.218 663.157 203.825C662.492 208.03 662.089 212.273 661.949 216.527C663.5 216.531 665.049 216.391 666.575 216.112C668.472 215.713 670.294 215.019 671.975 214.054L677.016 220.698C674.586 221.896 672.06 222.887 669.464 223.661C666.871 224.369 664.175 224.624 661.496 224.416C661.213 232.701 661.043 238.496 660.986 241.855L653.434 232.003L653.528 223.793C650.635 223.291 647.882 222.185 645.446 220.547C643.193 219.071 641.195 217.235 639.537 215.111C637.133 211.995 635.701 208.241 635.421 204.316C635.03 200.375 636.809 196.53 640.065 194.275C642.059 192.567 644.639 191.7 647.259 191.859C650.444 192.221 653.579 192.937 656.606 193.992V194.029ZM645.163 149.752L639.763 155.924L627.132 144.901L618.824 154.338L632.041 165.813L628.548 169.777L615.426 158.302L606.797 168.172L620.203 179.893L614.802 186.046L593.524 167.455L624.696 131.765L645.239 149.714L645.163 149.752ZM583.422 110.948C589.441 109.249 595.544 110.432 601.737 114.496C603.589 115.761 605.298 117.223 606.835 118.856C608.429 120.454 609.708 122.336 610.611 124.405L602.304 134.068L600 132.52L602.625 128.5C602.261 127.403 601.76 126.357 601.133 125.386C600.125 123.987 598.841 122.811 597.357 121.932C594.459 119.992 590.854 119.426 587.501 120.384C583.621 121.509 580.313 124.066 578.249 127.538C575.866 130.783 574.549 134.686 574.473 138.711C574.706 142.351 576.766 145.627 579.949 147.411C581.733 148.535 583.632 149.465 585.613 150.186C587.546 150.934 589.563 151.453 591.617 151.734L586.841 158.924C584.686 158.809 582.566 158.331 580.572 157.509C578.487 156.75 576.492 155.762 574.624 154.565C568.487 150.488 564.976 145.6 564.032 139.843C563.088 134.087 564.731 128.047 568.885 121.781C572.226 116.5 577.405 112.641 583.422 110.948ZM539.052 80.7501L547.228 114.42L558.557 89.8849L567.657 94.0938L547.813 136.993L543.641 135.106L535.56 101.265L524.061 126.084L514.961 121.875L534.842 78.8816L539.033 80.769L539.052 80.7501ZM493.058 65.2926L519.133 73.144L516.773 81.0143L500.724 76.1638L497.08 88.2052L513.752 93.2633L512.242 98.3026L495.551 93.2633L491.775 105.814L508.767 110.948L506.388 118.799L479.313 110.627L493.002 65.3303L493.058 65.2926ZM465.322 59.404L475.574 61.2914L466.606 107.796L456.316 105.908L465.322 59.404ZM411.303 77.4472C411.643 71.1968 414.286 65.2935 418.724 60.8762C423.193 56.4848 429.108 54.5975 436.472 55.2141C438.706 55.4075 440.909 55.8507 443.043 56.5352C445.219 57.1624 447.26 58.1863 449.066 59.555L446.554 72.0682L443.704 71.7851L444.081 66.9535C443.209 66.19 442.259 65.5197 441.249 64.9529C439.685 64.2291 437.988 63.8371 436.264 63.8016C432.768 63.4711 429.306 64.7166 426.823 67.1988C423.957 70.0429 422.299 73.8833 422.197 77.9191C421.661 81.9122 422.395 85.9726 424.293 89.5264C426.304 92.6214 429.759 94.4729 433.451 94.4335C435.526 94.5567 437.608 94.4554 439.663 94.1315C441.698 93.8531 443.69 93.3205 445.592 92.5461L444.949 101.152C443.007 102.124 440.913 102.762 438.757 103.04C436.557 103.372 434.329 103.46 432.11 103.304C424.784 102.738 419.309 100.19 415.722 95.5848C412.134 90.9796 410.699 84.9967 411.303 77.4472ZM372.824 58.7246C375.692 56.0064 379.448 54.4176 383.397 54.2515C386.39 53.9595 389.409 54.1379 392.347 54.78C394.154 55.2373 395.879 55.9694 397.464 56.9504L396.633 68.2746L393.876 68.4256L393.612 63.9903C392.661 63.53 391.685 63.1267 390.685 62.7824C389.113 62.2598 387.444 62.0796 385.795 62.2539C383.797 62.21 381.85 62.879 380.301 64.1413C379.24 64.9957 378.626 66.2891 378.639 67.6518C378.662 68.9524 379.184 70.1948 380.093 71.1246C381.995 72.4508 384.159 73.3579 386.437 73.7857C390.27 74.7058 393.912 76.2901 397.2 78.4664C400.092 80.571 401.804 83.9307 401.806 87.5069C402.183 91.4541 400.728 95.3559 397.86 98.095C394.619 101.057 390.395 102.718 386.003 102.756C382.846 103.038 379.665 102.853 376.563 102.209C374.297 101.678 372.09 100.926 369.973 99.9635L369.407 90.7343C371.395 91.9071 373.518 92.8324 375.731 93.4898C378.228 94.3278 380.861 94.6864 383.491 94.5467C385.82 94.5841 388.101 93.8837 390.006 92.5461C391.306 91.5268 392.013 89.928 391.894 88.2807C391.855 86.6438 390.878 85.175 389.383 84.506C387.015 83.4177 384.549 82.5582 382.019 81.9391C378.567 81.1197 375.341 79.5397 372.579 77.3151C370.226 75.2118 368.858 72.2224 368.803 69.0673C368.424 65.1476 369.907 61.2776 372.805 58.6113L372.824 58.7246ZM337.648 60.0457L339.537 68.0293L325.15 71.4077L328.001 83.6566L343.106 80.1273L344.333 85.2798L329.284 88.7714L334.193 109.532L323.998 111.929L313.122 65.7456L337.667 60.0835L337.648 60.0457ZM265.24 88.9035C267.364 83.3618 271.871 79.0711 277.513 77.2207C283.914 74.7483 289.597 74.7294 294.506 77.2207C299.415 79.7121 303.323 84.6192 306.249 92.112C308.834 97.9127 309.204 104.459 307.288 110.514C302.51 121.701 289.563 126.897 278.371 122.12C278.298 122.089 278.226 122.058 278.154 122.026C273.019 119.422 269.086 114.609 266.354 107.588C263.636 100.548 263.277 94.3769 265.259 88.9601L265.24 88.9035ZM202.027 117.082L222.796 125.669V103.417L232.633 101.869L232.236 131.293L242.999 147.77L234.237 153.432L223.438 136.956L196.343 125.631L202.027 117.082ZM187.243 128.783L192.586 134.993L184.109 142.316L209.749 171.947L201.857 178.798L176.103 149.167L167.644 156.509L162.263 150.28L187.149 128.783H187.243ZM152.577 160.378L187.054 192.878L179.879 200.428L145.384 168.04L152.596 160.491L152.577 160.378ZM124.823 192.142C126.55 189.673 128.652 187.489 131.053 185.668C132.571 184.568 134.253 183.715 136.038 183.139L144.194 191.161L142.494 193.369L138.945 190.689C137.972 191.106 137.025 191.585 136.113 192.123C134.703 193.005 133.478 194.152 132.507 195.502C131.203 196.991 130.456 198.884 130.392 200.862C130.338 202.226 130.925 203.54 131.978 204.41C132.968 205.252 134.251 205.667 135.547 205.561C137.762 204.995 139.828 203.957 141.607 202.523C144.815 200.233 148.392 198.51 152.181 197.427C155.664 196.583 159.339 197.468 162.055 199.805C165.295 202.087 167.318 205.72 167.55 209.676C167.688 214.069 166.195 218.358 163.359 221.717C161.51 224.31 159.297 226.624 156.788 228.587C154.902 229.976 152.877 231.165 150.746 232.135L143.496 226.549C145.689 225.779 147.785 224.759 149.745 223.51C151.991 222.134 153.963 220.356 155.561 218.263C157.129 216.527 158.09 214.328 158.299 211.997C158.376 210.344 157.625 208.758 156.297 207.769C155.047 206.762 153.331 206.556 151.879 207.241C149.516 208.347 147.259 209.668 145.138 211.186C142.252 213.301 138.93 214.747 135.415 215.413C132.294 215.84 129.14 214.926 126.729 212.903C123.515 210.629 121.546 206.984 121.405 203.051C121.171 199.11 122.394 195.222 124.842 192.123L124.823 192.142ZM98.181 233.513C100.031 229.625 103.222 226.535 107.169 224.812C110.706 223.504 114.65 223.903 117.855 225.888C120.273 227.081 122.254 229.002 123.519 231.38C124.551 233.468 124.845 235.842 124.35 238.118L150.784 236.797L145.119 246.97L121.669 247.782L119.61 251.462L137.113 261.276L132.015 270.392L90.6287 247.31L98.181 233.513ZM83.5483 262.295L91.1007 265.296L84.9644 280.886L96.6895 285.491L103.071 269.279L107.999 271.166L101.579 287.397L113.795 292.172L120.442 275.62L127.994 278.621L117.648 304.912L73.6358 287.643L83.6238 262.295H83.5483ZM66.1401 308.687L72.2952 300.76L110.756 330.033L109.699 334.468L62.0429 342.829L60.419 332.713L92.158 327.466L66.2722 308.687H66.1401ZM57.3037 355.644L104.318 361.495L103.033 371.876L55.982 366.025L57.3037 355.644ZM53.8485 415.795L81.1881 394.392L54.0751 394.222V384.2L101.466 384.464V389.07L73.9379 410.453L101.296 410.623V420.664L53.9051 420.381V415.795H53.8485ZM58.531 461.28L90.8741 456.543C92.7456 456.381 94.4893 455.526 95.7643 454.146C96.9382 452.551 97.3395 450.517 96.8594 448.597C96.7484 446.525 95.6901 444.617 93.9895 443.426C91.8561 442.384 89.4257 442.116 87.1168 442.671L56.4541 447.144L55.1513 438.066L87.249 433.385C91.3292 432.619 95.5455 433.538 98.9363 435.933C102.26 438.311 104.299 442.388 105.167 448.201C106.035 454.014 105.167 458.298 102.845 461.318C100.168 464.54 96.3273 466.574 92.158 466.98L60.0603 471.68L58.531 461.28ZM69.1609 506.464L114.267 491.874L117.478 501.877L72.3896 516.41L69.1609 506.464ZM87.7965 554.384L117.553 540.87C119.309 540.189 120.754 538.885 121.612 537.209C122.293 535.344 122.119 533.274 121.14 531.547C120.438 529.584 118.892 528.04 116.929 527.338C114.587 526.94 112.178 527.366 110.114 528.546L81.7924 541.342L78.0162 533.019L107.622 519.6C111.348 517.752 115.659 517.475 119.592 518.826C123.368 520.185 126.521 523.525 129.032 528.885C131.544 534.246 131.846 538.549 130.43 542.097C128.737 545.913 125.611 548.909 121.725 550.439L92.158 563.877L87.7965 554.384ZM113.286 599.077L129.844 588.413L122.802 577.447L106.224 588.13L100.56 579.335L140.381 553.648L146.045 562.462L129.353 573.22L136.415 584.185L153.087 573.408L158.752 582.204L118.95 607.891L113.286 599.077ZM151.048 646.374L157.071 612.269L136.774 630.237L130.109 622.687L165.605 591.282L168.664 594.717L162.452 628.972L182.938 610.835L189.584 618.384L154.126 649.828L151.048 646.374ZM181.56 674.798L179.049 672.703L193.643 622.763L202.442 630.067L199.912 638.239L212.619 648.79L219.888 644.543L227.875 651.187L181.56 674.798ZM344.068 744.196H332.305V716.206C330.533 717.558 328.635 718.739 326.641 719.736C324.475 720.783 322.219 721.636 319.901 722.284V712.847C323.25 711.865 326.392 710.278 329.171 708.166C331.386 706.36 333.161 704.076 334.363 701.485H343.993V744.253L344.068 744.196ZM392.196 739.629C388.776 743.239 383.947 745.17 378.98 744.913C376.297 745.017 373.616 744.634 371.069 743.781C369.207 743.045 367.549 741.875 366.235 740.365C364.862 738.704 363.854 736.775 363.27 734.703L374.92 733.249C375.06 734.533 375.609 735.737 376.487 736.684C377.206 737.358 378.163 737.724 379.15 737.703C381.033 737.686 382.74 736.584 383.529 734.872C384.614 732.038 385.202 729.037 385.267 726.002C384.042 727.321 382.574 728.391 380.943 729.154C379.34 729.865 377.599 730.22 375.845 730.192C372.233 730.256 368.761 728.788 366.292 726.153C363.678 723.431 362.275 719.77 362.402 715.999C362.36 713.36 363.011 710.758 364.29 708.449C365.551 706.211 367.45 704.397 369.746 703.24C372.463 701.961 375.448 701.353 378.45 701.466C381.963 701.291 385.457 702.04 388.589 703.637C391.287 705.241 393.425 707.642 394.707 710.507C396.378 714.445 397.158 718.705 396.992 722.982C396.992 730.531 395.368 736.194 392.196 739.666V739.629ZM443.269 736.326H438.039V744.196H427.863V736.326H406.507V726.7L427.825 701.372H438.039V727.229H443.307V736.269L443.269 736.326ZM485.279 737.213C484.015 739.634 482.038 741.61 479.615 742.875C476.664 744.249 473.427 744.896 470.174 744.762C467.771 744.819 465.371 744.558 463.037 743.988C461.218 743.543 459.505 742.741 457.996 741.629C456.665 740.665 455.524 739.462 454.635 738.081C453.669 736.571 452.938 734.921 452.464 733.193L464.246 731.871C464.422 733.491 465.133 735.005 466.267 736.175C467.278 737.152 468.636 737.688 470.042 737.666C471.61 737.702 473.105 737.003 474.083 735.778C475.267 734.189 475.837 732.224 475.687 730.248C475.854 728.276 475.282 726.313 474.083 724.737C472.986 723.56 471.425 722.923 469.816 723.001C468.674 722.995 467.55 723.282 466.55 723.831C465.558 724.394 464.676 725.128 463.944 726.002L453.994 724.567L457.769 701.919H485.562V711.224H466.682L465.662 717.528C466.869 716.935 468.133 716.472 469.438 716.15C470.673 715.842 471.942 715.689 473.214 715.697C477 715.533 480.691 716.893 483.466 719.472C486.087 721.985 487.528 725.487 487.432 729.116C487.415 731.858 486.707 734.552 485.374 736.948L485.279 737.213ZM404.091 670.381C257.159 670.381 137.624 550.873 137.624 403.961C137.624 257.048 257.159 137.654 404.053 137.654C550.948 137.654 670.539 257.143 670.539 403.961C670.539 550.779 551.004 670.381 404.053 670.381H404.091ZM641.388 662.7L619.731 656.868L622.355 678.969L612.802 681.743L609.61 652.508L596.828 637.522L604.815 630.709L617.579 645.808L645.9 653.621L641.388 662.832V662.7ZM666.216 636.729C664.647 638.466 662.857 639.989 660.891 641.259C659.155 642.541 657.195 643.494 655.114 644.071L647.278 635.333L649.166 633.219L652.187 635.88C653.451 635.648 654.659 635.187 655.755 634.521C657.246 633.617 658.579 632.475 659.702 631.143C662.138 628.487 663.062 624.779 662.157 621.291C661.256 617.609 659.213 614.306 656.323 611.854C653.406 609.044 649.693 607.2 645.693 606.569C642.016 606.296 638.455 607.919 636.252 610.873C635.557 611.652 634.926 612.484 634.364 613.364C633.995 613.966 633.68 614.596 633.42 615.251L642.86 623.442L647.976 617.497L651.999 620.951L641.199 633.389L623.847 618.384C624.039 615.784 624.785 613.254 626.037 610.967C627.139 608.712 628.488 606.584 630.058 604.625C635.156 598.756 640.633 595.944 646.542 596.132C652.621 596.378 658.417 598.771 662.893 602.889C667.66 606.96 670.826 612.592 671.824 618.781C672.937 625.309 670.885 631.977 666.292 636.748L666.216 636.729ZM701.787 589.036C698.163 594.862 693.655 598.265 688.269 599.246C682.882 600.228 676.771 598.624 669.935 594.434C664.377 591.357 660.144 586.346 658.04 580.354C655.1 568.594 662.255 556.677 674.02 553.736C674.144 553.706 674.267 553.676 674.392 553.648C680.069 552.642 686.103 554.125 692.498 558.102C698.899 562.047 702.921 566.803 704.582 572.314C706.206 578.025 705.181 584.163 701.787 589.036ZM726.163 541.418L690.289 525.809L682.869 542.795L675.316 539.511L686.929 512.862L730.355 531.735L726.201 541.323L726.163 541.418ZM742.231 496.121C740.418 502.764 737.076 507.326 732.205 509.804C727.333 512.282 721.009 512.479 713.23 510.389C707.023 509.029 701.532 505.435 697.804 500.292C691.652 489.843 695.14 476.39 705.592 470.241C705.677 470.192 705.762 470.143 705.847 470.094C711.007 467.503 717.213 467.201 724.464 469.188C731.714 471.176 736.938 474.599 740.135 479.455C743.338 484.464 744.113 490.647 742.25 496.291L742.231 496.121ZM753.673 427.534L724.426 446.068L751.464 449.031L750.387 459.015L703.185 453.995L703.676 449.409L733.149 430.875L705.942 427.987L707.017 418.003L754.22 423.042L753.673 427.534Z" fill="#00417C"/>
    <path fill-rule="evenodd" clip-rule="evenodd" d="M300.02 576.582L299.434 575.016C299.434 575.016 299.434 573.317 296.451 573.676C295.511 573.561 294.583 573.364 293.676 573.091C293.676 573.091 291.108 571.788 287.294 574.204C287.294 574.204 283.518 574.902 284.368 572.166C284.368 572.166 283.593 569.052 290.976 567.73L296.866 567.41C298.411 566.298 298.802 564.165 297.754 562.578C297.754 562.578 297.169 560.879 293.336 561.597C293.336 561.597 290.089 562.502 289.73 561.2C290.126 559.736 290.126 558.192 289.73 556.727C289.73 556.727 289.466 554.33 286.293 555.802C286.293 555.802 283.253 555.425 283.008 561.049C283.008 561.049 282.385 564.069 279.61 563.484C279.61 563.484 276.834 563.484 276.608 562.974C276.608 562.974 274.55 559.898 272.567 562.427C272.335 563.203 272.335 564.029 272.567 564.805C272.567 564.805 268.432 567.863 270.414 571.505C270.414 571.505 272.057 574.563 274.436 572.203C275.188 571.382 275.858 570.492 276.438 569.542L278.929 569.958C279.781 571.031 279.604 572.592 278.533 573.449L276.116 576.488C276.116 576.488 267.507 577.601 266.488 578.526C266.488 578.526 264.335 578.639 263.995 577.507C263.102 576.771 261.782 576.896 261.044 577.788C260.983 577.86 260.928 577.937 260.879 578.017C260.879 578.017 258.085 580.206 260.313 582.301C260.313 582.301 263.618 585.453 270.414 582.131C270.414 582.131 274.587 580.47 274.946 583.414C274.519 585.44 275.622 587.476 277.552 588.227C276.766 589.741 275.178 590.666 273.473 590.605C273.473 590.605 267.054 590.605 266.071 594.38C266.071 594.38 265.543 596.267 268.771 595.965C273.305 596.507 277.869 595.246 281.478 592.455C281.478 592.455 283.989 590.266 285.255 592.304C285.255 592.304 289.428 599.023 292.203 599.627C294.528 599.531 296.332 597.57 296.236 595.248C296.217 594.808 296.13 594.376 295.979 593.965C294.8 591.081 292.554 588.763 289.711 587.491C289.711 587.491 286.955 585.113 289.711 584.018C289.711 584.018 291.221 584.528 292.996 580.867C292.996 580.867 293.883 578.413 295.904 579.111L299.51 579.621C299.51 579.621 301.813 579.111 300.02 576.45V576.582ZM285.104 582.565C284.528 584.041 282.865 584.771 281.388 584.196C281.235 584.137 281.089 584.064 280.95 583.981C279.062 581.754 282.083 579.734 282.083 579.734C282.58 578.926 283.638 578.675 284.447 579.172C284.676 579.313 284.868 579.506 285.01 579.734C285.814 580.396 285.929 581.586 285.266 582.391C285.217 582.452 285.162 582.51 285.104 582.565Z" fill="#00417C"/>
    <path fill-rule="evenodd" clip-rule="evenodd" d="M354.32 596.475L346.107 593.342C346.107 593.342 339.725 590.19 342.029 586.755C342.029 586.755 345.144 582.98 342.029 581.093C342.029 581.093 337.365 578.979 341.462 576.771L344.237 575.582C344.237 575.582 346.012 574.11 342.935 573.374C342.091 573.223 341.379 572.655 341.047 571.864C341.047 571.864 340.273 568.995 337.988 571.128C337.418 571.969 337.382 573.062 337.894 573.94C337.894 573.94 335.609 577.205 336.402 579.017C336.402 579.017 336.856 581.527 335.213 581.829C335.213 581.829 331.607 583.716 330.587 581.414C330.587 581.414 329.813 580.036 331.606 578.451C331.606 578.451 335.382 575.959 332.06 574.94C332.06 574.94 330.511 574.298 332.286 573.147C333.532 572.296 334.275 570.882 334.269 569.373C334.269 569.373 333.23 567.712 331.247 570.58L328.528 572.468C328.528 572.468 324.507 573.562 324.753 569.788C324.753 569.788 324.205 566.183 326.452 566.013L330.115 566.9C330.115 566.9 332.211 567.542 334.117 564.56C334.92 563.684 336.088 563.237 337.271 563.352C339.064 564.09 341.116 563.235 341.854 561.442C341.987 561.117 342.072 560.776 342.104 560.426C342.586 559.351 342.103 558.09 341.026 557.609C340.93 557.565 340.828 557.529 340.726 557.501C340.726 557.501 338.837 556.048 336.95 560.011C336.95 560.011 334.609 560.917 334.004 560.011V557.237C334.004 557.237 334.495 554.972 331.72 555.481C331.72 555.481 330.605 555.368 330.02 559.445C330.02 559.445 329.02 563.39 326.244 561.917C325.502 560.728 324.015 560.243 322.713 560.766C322.713 560.766 320.655 561.37 320.825 566.126C320.836 567.579 321.214 569.008 321.921 570.278C321.921 570.278 323.223 572.071 320.863 573.393C320.863 573.393 316.898 575.186 317.238 577.828C317.238 577.828 316.238 581.074 318.71 580.716L319.976 580.395C319.441 581.199 319.136 582.131 319.089 583.094C319.089 583.094 315.104 585.302 315.142 587.378C315.142 587.378 310.893 589.869 312.914 593.04C312.914 593.04 314.802 595.645 315.708 592.134C315.708 592.134 316.898 589.605 317.464 590.247C317.464 590.247 319.353 591.889 317.181 594.456C317.181 594.456 315.293 598.702 318.465 600.287C318.465 600.287 321.259 601.175 320.202 593.814C320.202 593.814 319.976 589.36 322.543 587.586C323.538 586.461 325.257 586.355 326.381 587.348C326.681 587.612 326.916 587.938 327.075 588.303C327.075 588.303 327.811 591.341 324.885 591.039C324.885 591.039 321.788 589.85 322.279 592.927C322.279 592.927 321.43 596.834 324.356 597.173C324.356 597.173 325.206 597.022 325.432 595.739C325.432 595.739 326.811 594.739 327.32 597.098C327.32 597.098 329.492 599.533 330.209 595.475C330.209 595.475 329.454 592.965 331.965 593.587C331.965 593.587 335.741 596.116 336.837 593.266C336.837 593.266 339.158 590.417 342.048 594.097L345.691 599.155C347.463 600.363 349.793 600.363 351.563 599.155C351.563 599.155 353.603 598.249 354.206 598.815C354.206 598.815 356.831 598.004 354.565 596.55L354.32 596.475ZM324.922 584.622C320.429 584.339 322.43 581.489 322.43 581.489C324.734 578.602 327.32 581.64 327.32 581.64C327.622 582.95 326.805 584.258 325.494 584.56C325.307 584.603 325.115 584.624 324.922 584.622ZM327.453 576.714C326.528 578.696 323.676 577.526 323.676 577.526C321.788 576.318 323.676 574.317 323.676 574.317C327.698 572.675 327.453 576.714 327.453 576.714ZM334.627 587.246C334.741 590.605 332.456 589.964 332.456 589.964C330.36 588.907 331.644 586.189 331.644 586.189C332.154 584.301 333.532 585.132 333.532 585.132C334.363 585.513 334.801 586.436 334.571 587.321L334.627 587.246ZM339.574 585.151C339.215 586.132 337.95 585.491 337.95 585.491C336.515 584.547 337.95 583.603 337.95 583.603C339.952 583.452 339.574 585.151 339.574 585.151Z" fill="#00417C"/>
    <path fill-rule="evenodd" clip-rule="evenodd" d="M370.295 575.165L366.236 576.693C366.236 576.693 364.555 577.392 366.5 578.788C367.699 579.776 367.967 581.504 367.123 582.808L362.591 591.868C362.591 591.868 361.27 595.643 365.442 595.227C365.442 595.227 372.806 591.736 374.034 589.565C375.447 589.058 376.502 587.861 376.828 586.394C376.828 586.394 378.49 584.243 377.206 583.601L373.619 583.79C373.619 583.79 372.768 582.865 373.977 581.431C373.977 581.431 376.205 576.712 374.147 575.618C373.231 575.18 372.664 574.236 372.712 573.221L373.713 569.446L376.507 565.199C376.507 565.199 378.679 562.595 374.619 561.746L367.425 563.746C367.425 563.746 364.857 564.86 369.313 568.861C370.199 569.644 370.612 570.829 370.408 571.994L370.295 575.165Z" fill="#00417C"/>
    <path fill-rule="evenodd" clip-rule="evenodd" d="M396.84 586.886H390.836C390.836 586.886 389.402 584.999 393.461 583.81C394.981 582.798 395.393 580.748 394.38 579.231C394.199 578.957 393.978 578.714 393.725 578.506C393.725 578.506 391.384 577.827 393.366 576.09C394.32 575.33 394.476 573.941 393.716 572.988C393.395 572.586 392.946 572.308 392.442 572.202C392.442 572.202 393.083 570.579 398.106 566.295C398.106 566.295 404.109 563.766 399.994 561.124C399.994 561.124 397.105 557.802 389.912 560.255C389.912 560.255 385.436 562.143 384.757 563.672C384.757 563.672 383.246 564.408 383.624 562.596C383.624 562.596 383.189 561.69 382.284 562.445C382.284 562.445 381.944 564.049 381.207 564.03L381.018 570.56C381.018 570.56 379.942 578.11 384.246 577.166C384.246 577.166 387.627 578.336 385.965 579.601C385.965 579.601 381.207 580.356 384.361 583.546C384.361 583.546 385.965 585.999 380.074 588.509C378.52 589.444 378.018 591.463 378.952 593.016C379.028 593.143 379.113 593.264 379.206 593.379C380.869 595.117 383.507 595.493 385.587 594.285C385.587 594.285 393.951 591.982 396.765 592.964C396.765 592.964 400.088 595.587 401.051 592.511C401.051 592.511 402.826 587.622 396.897 586.848L396.84 586.886ZM392.913 563.03C395.009 562.03 394.651 564.276 394.651 564.276C394.41 565.635 393.151 566.569 391.78 566.408C389.893 565.031 392.913 563.03 392.913 563.03ZM385.663 573.203C383.775 573.599 384.983 570.674 384.983 570.674C386.872 569.372 387.344 570.9 387.344 570.9C387.37 571.959 386.68 572.905 385.663 573.203ZM385.946 567.729C384.171 567.409 386.475 564.483 386.475 564.483C388.57 563.653 388.533 565.861 388.533 565.861C388.597 566.901 387.806 567.797 386.765 567.862C386.486 567.879 386.207 567.833 385.946 567.729Z" fill="#00417C"/>
    <path fill-rule="evenodd" clip-rule="evenodd" d="M429.108 577.73L427.334 582.543C427.334 582.543 426.824 583.374 422.953 583.732C422.953 583.732 412.607 584.884 412.531 588.715C412.531 588.715 411.984 592.112 417.893 590.999C417.893 590.999 430.864 588.092 436.963 588.3C438.802 588.234 440.62 588.706 442.194 589.659C442.194 589.659 448.424 592.433 450.105 589.659C451.114 588.115 450.68 586.044 449.135 585.035C449.107 585.016 449.077 584.997 449.047 584.978C449.047 584.978 448.16 582.845 446.385 582.581C443.245 582.285 440.084 582.285 436.944 582.581H435.302L435.189 576.919C435.189 576.919 435.189 574.107 438.964 572.691C438.964 572.691 443.93 571.502 445.045 568.011C445.045 568.011 445.479 565.519 442.382 565.18C442.382 565.18 441.91 563.5 438.606 564.349C438.606 564.349 428.334 566.387 424.898 566.784C424.898 566.784 420.839 567.407 423.916 570.558C425.655 571.211 427.264 572.163 428.674 573.371C429.734 574.582 429.909 576.334 429.108 577.73Z" fill="#00417C"/>
    <path fill-rule="evenodd" clip-rule="evenodd" d="M480.069 564.973L479.843 573.768C479.843 573.768 479.201 574.712 476.935 574.504C475.787 574.674 474.656 574.946 473.555 575.316C473.555 575.316 467.381 574.749 468.23 577.505C468.23 577.505 467.985 579.6 472.46 580.053L476.671 581.28C476.671 581.28 478.124 581.94 476.331 584.432C474.669 587.572 471.917 589.996 468.59 591.245C468.59 591.245 464.285 591.094 463.643 593.982C463.643 593.982 463.832 596.699 470.609 594.907C475.407 594.189 479.686 591.5 482.41 587.489L484.469 584.186C484.469 584.186 488.679 585.168 494.683 592.019L497.912 595.888C497.912 595.888 501.687 598.964 503.576 593.17C503.576 593.17 504.69 589.622 496.874 584.507C496.874 584.507 491.983 581.072 488.018 580.997C488.018 580.997 484.733 580.242 487.338 578.354L495.514 574.712C495.514 574.712 501.442 574.353 501.744 570.409C501.127 569.104 500.225 567.955 499.101 567.049C499.101 567.049 497.761 566.521 494.778 567.879L490.359 569.937C490.359 569.937 488.282 571.126 488.377 567.861L489.302 562.198C489.302 562.198 489.302 559.424 485.714 559.122C485.714 559.122 479.786 557.48 480.05 562.066L480.069 564.973Z" fill="#00417C"/>
    <path fill-rule="evenodd" clip-rule="evenodd" d="M548.154 568.372C545.729 568.049 543.271 568.049 540.846 568.372C541.118 566.738 541.245 565.084 541.224 563.427C541.243 561.955 541.584 560.506 542.225 559.181C543.308 557.795 544.029 556.159 544.32 554.425C544.32 554.425 545.019 552.537 540.809 553.632C539.791 554.406 538.673 555.042 537.486 555.519C537.486 555.519 535.352 556.67 537.92 557.614C537.92 557.614 540.224 558.52 537.656 560.577C537.656 560.577 533.879 561.88 533.879 559.539L534.503 556.142C534.503 556.142 535.126 553.235 532.973 552.933C532.973 552.933 530.745 552.613 530.896 556.199C530.896 556.199 531.085 558.407 529.462 558.275C529.462 558.275 527.932 559.011 529.462 560.162L530.16 564.541C530.16 564.541 530.99 565.843 529.009 565.39L528.649 561.313C528.455 560.543 528.102 559.824 527.611 559.2C527.611 559.2 527.611 556.859 525.817 557.614L526.1 564.503C526.1 564.503 524.911 565.183 524.722 564.107L523.759 560.332C523.759 560.332 522.758 558.18 521.324 559.03C521.52 561.53 521.885 564.014 522.419 566.466C522.419 566.466 523.627 570.92 523.74 572.128C523.941 572.702 524.373 573.168 524.93 573.411C524.93 573.411 526.119 574.166 524.552 574.676C524.552 574.676 523.627 576.997 521.588 576.261L521.191 572.694C520.959 572.192 520.366 571.973 519.864 572.205C519.687 572.287 519.539 572.417 519.436 572.581L517.755 577.677C517.755 577.677 516.717 581.584 519.643 581.338C520.534 580.98 521.225 580.249 521.532 579.338C521.532 579.338 524.269 576.186 526.119 576.148C526.119 576.148 533.539 573.336 534.22 572.789L539.714 570.637L540.809 570.411C540.848 571.056 540.444 571.647 539.827 571.845C539.827 571.845 538.448 573.317 541.715 573.562C541.715 573.562 548.814 574.468 549.759 572.166C550.563 571.152 550.393 569.68 549.378 568.878C549.046 568.614 548.65 568.446 548.229 568.391L548.154 568.372ZM527.083 573.279C525.741 571.656 526.289 568.032 526.289 568.032C527.328 566.975 527.196 568.806 527.196 568.806C527.19 569.805 527.362 570.796 527.705 571.732C528.196 573.619 527.083 573.279 527.083 573.279ZM536.901 566.692C538.128 569.901 536.901 569.542 536.901 569.542L534.767 567.655C533.711 566.789 533.556 565.232 534.424 564.175C534.576 563.99 534.756 563.825 534.956 563.691C535.299 563.22 535.728 562.816 536.22 562.502C538.354 562.502 536.863 563.918 536.863 563.918C534.522 564.673 536.901 566.692 536.901 566.692Z" fill="#00417C"/>
    <path fill-rule="evenodd" clip-rule="evenodd" d="M527.251 578.429C527.251 578.429 526.722 581.071 529.479 580.316L531.82 578.655C532.523 579.503 533.153 580.405 533.708 581.354C533.708 581.354 534.048 582.694 532.349 583.053L527.063 584.733C527.063 584.733 525.287 585.695 527.572 586.526C529.001 587.145 530.548 587.441 532.104 587.394C532.104 587.394 534.691 586.205 534.557 587.564C534.557 587.564 535.747 593.131 532.67 595.113C530.465 596.112 528.084 596.663 525.665 596.736C525.665 596.736 522.984 597.321 526.288 598.322L532.519 599.416C532.519 599.416 536.068 600.511 537.144 595.642C538.027 592.635 538.072 589.443 537.277 586.412C537.277 586.412 536.767 584.619 538.976 584.336C538.976 584.336 542.47 584.053 542.753 582.052C542.753 582.052 543.206 580.392 540.26 580.505L536.37 581.184C535.591 580.399 535.479 579.171 536.106 578.259C536.106 578.259 538.561 577.466 538.617 575.466C538.617 575.466 538.617 573.861 536.955 574.748L532.991 575.786C530.927 576.292 528.978 577.191 527.251 578.429Z" fill="#00417C"/>
    <path fill-rule="evenodd" clip-rule="evenodd" d="M557.216 251.971L556.328 251.084C550.305 245.215 512.902 211.148 483.051 240.987C459.073 264.938 475.914 292.191 475.914 292.191C475.914 292.191 467.154 301.628 478.67 313.575L479.029 313.952L342.482 442.727C338.706 446.502 343.029 450.994 343.029 450.994L338.177 455.863L333.154 450.824L322.6 461.356L327.641 466.376L311.536 482.4L306.57 477.436L305.513 476.379L299.433 482.456L295.808 478.833L301.888 472.755L287.35 458.223L280.137 465.413L288.086 473.378L281.458 479.984L273.491 472.057L268.11 477.455L276.058 485.42L269.432 492.044L261.463 484.098L253.156 492.403L267.713 506.935L273.83 500.82L277.437 504.444L271.319 510.559L277.343 516.58L268.619 525.281C265.464 528.008 265.121 532.775 267.849 535.929C268.087 536.205 268.344 536.461 268.619 536.699C273.321 541.399 277.022 538.851 278.456 537.435L308.666 507.237L338.536 477.417L343.407 482.268L353.962 471.717L348.656 466.244L353.47 461.431C353.47 461.431 357.776 465.564 361.571 461.752L494.304 329.184C506.369 341.244 516.074 332.298 516.074 332.298C516.074 332.298 543.319 349.171 567.298 325.22C597.376 295.173 562.653 257.464 557.14 251.839L557.216 251.971ZM272.49 531.566L269.847 528.904L281.421 517.354L284.064 519.996L272.49 531.566ZM335.137 468.981L314.368 489.742L311.725 492.384L309.081 489.742L304.625 485.287L307.269 482.664L311.725 487.099L332.494 466.338L327.924 461.752L330.568 459.147L333.589 456.165L336.233 458.789L333.211 461.809L335.099 463.696L337.743 466.338L335.118 468.981H335.137ZM351.186 444.652C349.898 445.698 349.704 447.587 350.75 448.874C351.004 449.188 351.321 449.446 351.677 449.635L348.505 452.051C348.505 452.051 343.331 447.257 347.108 443.35C347.348 443.099 347.599 442.859 347.863 442.633L481.465 317.029L484.014 319.747C484.014 319.747 351.186 444.369 351.186 444.652ZM488.376 246.234C467.512 266.995 484.902 293.173 484.902 293.173C484.902 293.173 475.461 299.873 483.825 308.875L480.653 311.631C472.667 302.779 476.631 295.853 479.521 292.757L479.577 292.606C478.595 290.927 463.169 265.032 485.147 243.044C495.569 232.664 508.031 229.229 522.191 232.852L521.078 237.193C509.33 233.762 496.651 237.254 488.319 246.215L488.376 246.234ZM523.438 307.328C518.978 302.881 516.957 296.547 518.019 290.342C507.42 292.085 497.415 284.912 495.671 274.318C493.926 263.724 501.103 253.723 511.701 251.979C522.299 250.235 532.304 257.409 534.049 268.003C534.392 270.094 534.392 272.227 534.049 274.318C544.647 272.578 554.65 279.753 556.393 290.349C558.133 300.943 550.952 310.942 540.355 312.682C534.168 313.7 527.867 311.671 523.438 307.233V307.328ZM559.312 309.215L555.856 307.196C562.938 299.508 562.821 287.643 555.592 280.093L558.858 277.923C566.877 286.757 567.025 300.19 559.199 309.196L559.312 309.215Z" fill="#00417C"/>
    <path fill-rule="evenodd" clip-rule="evenodd" d="M420.537 402.754L416.382 406.868L532.784 520.242L530.16 522.904L413.701 409.492L407.377 415.72L527.29 536.813L544.452 519.185L420.537 402.754Z" fill="#00417C"/>
    <path fill-rule="evenodd" clip-rule="evenodd" d="M396.293 392.64L328.416 326.582L331.041 323.902L399.012 390.073L402.883 386.298L339.669 326.808L342.897 323.487L322.449 296.629L315.917 288.004C346.825 256.315 365.724 233.667 408.962 207.923L415.722 200.959L417.496 197.184C383.68 206.753 333.816 230.006 291.484 273.377L282.158 268.866L270.206 281.134L274.964 290.363C232.802 333.641 210.768 383.939 202.064 417.949L206.124 415.93L212.487 409.418C237.032 365.575 259.274 346.06 290.163 314.333L298.961 320.693L326.358 340.379L329.586 337.113L390.232 398.358L396.293 392.489V392.64ZM262.974 313.786L260.123 311.408L272.66 296.403L275.549 298.8L262.974 313.786ZM286.991 277.378L279.439 273.151L281.628 270.905L289.88 274.566L286.991 277.378ZM388.665 208.886L390.138 212.34C334.193 236.026 305.174 268.772 304.872 269.112L302.095 266.602C309.648 258.486 338.064 230.326 388.684 208.886H388.665ZM303.889 286.268L306.872 283.984L334.363 319.844L331.38 322.128L303.889 286.268Z" fill="#00417C"/>
    </svg>
    