<svg xmlns="http://www.w3.org/2000/svg" xmlns:xlink="http://www.w3.org/1999/xlink" width="128.60025024414062" height="128.60000610351562" viewBox="0 0 128.60025024414062 128.60000610351562" fill="none">
<path d="M57.3 92.2C57.3 92.3 57.3 92.3 57.3 92.4C57.1 93.9 55.8 93.8 54.7 93.8C49.8 93.8 45.8 93.8 40.8 93.8L40.5 93.8C39.3 93.8 38 93.8 36.8 93.8C36 93.8 35.6 93.7 35.1 93.1C35 93 34.9 92.9 34.9 92.9L34.8 92.8C34.3 92.3 33.8 91.7 33.3 91.1C33 90.8 33.8 91 37.1 86.2C40.4 81.4 41.5 73.4 42.1 65.2C42.5 60 42.2 54.7 42.9 49.5C43.2 46.9 44.4 44.2 45.7 42.5C47.8 39.9 53.2 38.1 56.4 37.5C58.1 37.2 59.5 37.2 60.3 37.3L60.4 37.3L60.5 37.3L60.6 37.3C60.6 37.3 60.7 37.3 60.7 37.4C60.7 37.4 60.8 37.4 60.8 37.5C60.8 37.5 60.9 37.5 60.9 37.6C60.9 37.6 61 37.6 61 37.7C61 37.7 61.1 37.7 61.1 37.8C62.5 39.1 61.8 42.3 61 43.7C59.3 47.5 50.8 50 47.4 52.8C45.1 55.5 46.6 58.3 50.3 56.8C54 55.2 56.6 53.7 59.1 52.3C62.3 50.4 65.6 54.7 60.8 58C60.6 58.2 60.3 58.4 60 58.5L47.5 65.9C44 68.2 46.4 72.3 50.2 70.1L62.6 62.7C65.6 60.4 70.6 64.1 65.3 68L49.3 77.9C45 80.6 47 85.4 51.9 82.7C56.9 80 61.2 77.2 65.7 73.9C71.1 70 74.6 75.1 68 79.4C67.7 79.6 67.4 79.9 67.1 80.1C66.8 80.3 66.5 80.6 66.1 80.8C65.8 81 65.5 81.3 65.1 81.5C64.8 81.7 64.5 82 64.2 82.2C63.9 82.4 63.6 82.7 63.3 82.9C63 83.1 62.7 83.4 62.4 83.6C62.1 83.8 61.8 84.1 61.5 84.3C61.2 84.6 61 84.8 60.7 85.1C60.4 85.4 60.2 85.6 60 85.9C59.8 86.2 59.5 86.5 59.3 86.8C59.1 87.1 58.9 87.4 58.7 87.8C58.5 88.1 58.3 88.5 58.2 88.8C58 89.2 57.9 89.5 57.8 89.9C57.7 90.3 57.6 90.7 57.5 91.1C57.4 91.4 57.4 91.8 57.3 92.2ZM61.4 100C61.2 100 61.1 100.1 61 100.2C60.9 100.3 60.9 100.5 60.9 100.7C60.9 100.9 60.9 101.1 61 101.2C61.1 101.3 61.2 101.4 61.4 101.4C61.6 101.4 61.7 101.3 61.8 101.2C61.9 101.1 61.9 100.9 61.9 100.7C61.9 100.5 61.9 100.3 61.8 100.2C61.7 100.1 61.6 100 61.4 100ZM56.8 99.3L56.8 103.3L56.8 103.3L55.7 103.3L55.7 103.3L55.7 100.8C55.7 100.7 55.7 100.7 55.6 100.7C55.4 100.8 55.3 100.9 55.1 101C54.9 101.1 54.7 101.2 54.5 101.2L54.5 101.2L54.5 100.3L54.5 100.3C54.9 100.2 55.2 100 55.4 99.9C55.6 99.8 55.7 99.6 55.8 99.4C55.8 99.3 55.8 99.3 55.9 99.3L56.8 99.3L56.8 99.3ZM65.5 99.4L68.4 99.4C68.6 99.4 68.6 99.4 68.6 99.6L68.6 100.1C68.6 100.1 68.6 100.1 68.6 100.2C68.3 100.4 68.1 100.7 68 101C67.8 101.4 67.6 101.7 67.5 102.2C67.4 102.5 67.3 102.9 67.3 103.4L67.3 103.4L66.2 103.4L66.2 103.4C66.3 102.8 66.4 102.2 66.6 101.8C66.8 101.4 67.1 100.9 67.5 100.4L67.5 100.4L65.6 100.4L65.6 100.4L65.5 99.4L65.5 99.4ZM71.7 101.2C71.5 101.1 71.4 101 71.3 100.9C71.2 100.7 71.1 100.6 71.1 100.4C71.1 100.1 71.3 99.8 71.6 99.6C71.8 99.4 72.2 99.4 72.6 99.4C73.1 99.4 73.5 99.5 73.8 99.7C74.1 99.9 74.2 100.2 74.2 100.5C74.2 100.7 74.2 100.8 74 101C73.9 101.1 73.8 101.2 73.6 101.3C73.8 101.4 74 101.5 74.1 101.7C74.2 101.9 74.3 102.1 74.3 102.3C74.3 102.5 74.3 102.7 74.2 102.9C74.1 103.1 74 103.2 73.9 103.3C73.8 103.4 73.6 103.5 73.4 103.5C73.2 103.5 73 103.6 72.8 103.6C72.4 103.6 72.1 103.6 71.8 103.5C71.6 103.4 71.4 103.3 71.3 103.1C71.2 102.9 71.1 102.7 71.1 102.5C71.1 102.3 71.2 102.1 71.3 101.9C71.3 101.4 71.5 101.3 71.7 101.2ZM72.2 100.5C72.2 100.6 72.2 100.7 72.3 100.8C72.4 100.9 72.5 100.9 72.6 100.9C72.7 100.9 72.8 100.9 72.9 100.8C73 100.7 73 100.6 73 100.5C73 100.4 73 100.3 72.9 100.2C72.8 100.1 72.7 100.1 72.6 100.1C72.5 100.1 72.4 100.1 72.3 100.2C72.2 100.2 72.2 100.3 72.2 100.5ZM72.1 102.1C72.1 102.3 72.2 102.4 72.3 102.5C72.4 102.6 72.5 102.7 72.7 102.7C72.8 102.7 72.9 102.6 73.1 102.5C73.2 102.4 73.3 102.2 73.3 102.1C73.3 101.9 73.2 101.8 73.1 101.7C73 101.6 72.9 101.5 72.7 101.5C72.6 101.5 72.4 101.6 72.3 101.7C72.2 101.8 72.1 102 72.1 102.1ZM59.9 102.4L60.9 102.4L60.9 102.4C60.9 102.5 61 102.6 61.1 102.7C61.2 102.8 61.3 102.8 61.4 102.8C61.6 102.8 61.7 102.7 61.9 102.5C62 102.3 62.1 102.1 62.1 101.8C62 101.9 61.9 102 61.7 102C61.6 102 61.4 102.1 61.3 102.1C60.9 102.1 60.5 102 60.3 101.8C60.1 101.6 59.9 101.3 59.9 100.9C59.9 100.5 60 100.1 60.3 99.8C60.6 99.5 61 99.4 61.5 99.4C62 99.4 62.5 99.6 62.7 99.9C63 100.3 63.1 100.8 63.1 101.4C63.1 102.1 62.9 102.6 62.6 103C62.3 103.4 61.8 103.6 61.3 103.6C60.9 103.6 60.6 103.5 60.3 103.3C60.1 103 60 102.7 59.9 102.4L59.9 102.4ZM42.4 98.3L86.6 98.3C86.8 98.3 87 98.4 87.1 98.4C87.2 98.5 87.1 98.5 87 98.6C84.1 100.6 80.9 102.1 77.5 103.3L77.2 103.4C76 103.7 74.7 104 73.5 104.3C73.2 104.3 73 104.4 72.7 104.4C72.4 104.4 72.2 104.5 71.9 104.5C71.6 104.5 71.4 104.6 71.1 104.6C70.8 104.6 70.6 104.7 70.3 104.7C70 104.7 69.8 104.8 69.5 104.8C69.2 104.8 69 104.8 68.7 104.9C68.4 104.9 68.2 104.9 67.9 105C67.6 105 67.4 105 67.1 105C66.8 105 66.6 105 66.3 105C66 105 65.8 105 65.5 105C65.2 105 65 105 64.7 105L64.4 105L64.1 105C63.8 105 63.6 105 63.3 105C63 105 62.8 105 62.5 105C62.1999 105 62 105 61.6999 105C61.3999 105 61.1999 105 60.8999 105C60.5999 105 60.3999 105 60.0999 104.9C59.7999 104.9 59.5999 104.9 59.2999 104.8C58.9999 104.8 58.7999 104.7 58.4999 104.7C58.1999 104.7 57.9999 104.6 57.6999 104.6C57.3999 104.6 57.1999 104.5 56.8999 104.5C56.5999 104.5 56.3999 104.4 56.0999 104.4C55.7999 104.4 55.5999 104.3 55.2999 104.3C54.9999 104.3 54.7999 104.2 54.4999 104.2C54.1999 104.2 53.9999 104.1 53.6999 104C53.3999 103.9 53.1999 103.9 52.9999 103.8C52.7999 103.7 52.4999 103.7 52.2999 103.6C52.0999 103.5 51.7999 103.5 51.5999 103.4L51.2999 103.3C47.8999 102.1 44.7999 100.6 41.7999 98.6C41.6999 98.6 41.6999 98.5 41.6999 98.4C42 98.4 42.2 98.3 42.4 98.3ZM20 90.1L18.9 87.8L18.6 88C18.7 88.2 18.7 88.4 18.7 88.5C18.7 88.6 18.7 88.7 18.7 88.8C18.7 88.9 18.6 88.9 18.5 88.9C18.4 88.9 18.3 88.9 18.2 89C18 89 17.7 89 17.5 89C17.2 89 17 89 16.7 89C16.4 89 16.2 89 16 89C15.8 89 15.6 89 15.4 89C15.7 88.6 16 88.2 16.3 87.9C16.6 87.5 16.9 87.2 17.2 86.8C17.3 86.7 17.4 86.6 17.5 86.5C17.6 86.5 17.6 86.5 17.7 86.5C17.8 86.6 17.9 86.7 18 86.9L18.4 86.7L17.1 83.8L16.7 84C16.7 84.1 16.8 84.3 16.8 84.4C16.8 84.5 16.8 84.6 16.8 84.7C16.8 84.8 16.7 84.9 16.7 85C16.6 85.1 16.5 85.3 16.4 85.4C16.2 85.7 15.9 86 15.8 86.2C15.6 86.4 15.4 86.7 15.3 86.9C15.1 87.1 15 87.3 14.9 87.4C14.8 87.6 14.6 87.7 14.5 87.8C14.5 87.9 14.4 87.9 14.4 87.9C14.4 87.9 14.3 88 14.2 88C14.1 88 14.1 88.1 14 88.1L12.7 88.7C12.4 89 12.3 89 12.1 89.1C12 89.1 11.8 89.2 11.7 89.1C11.6 89.1 11.5 89 11.4 88.9C11.3 88.8 11.2 88.6 11.1 88.4L10.7 88.6L12.2 91.8L12.6 91.6C12.5 91.4 12.5 91.2 12.4 91.1C12.4 91 12.4 90.8 12.4 90.7C12.4 90.6 12.5 90.5 12.7 90.4C12.8 90.3 13 90.2 13.2 90.1L14.6 89.5C14.7 89.4 14.8 89.4 14.9 89.4C15 89.4 15.1 89.4 15.1 89.4C15.2 89.4 15.3 89.4 15.4 89.4C15.7 89.4 16 89.4 16.2 89.4C16.4 89.4 16.7 89.4 16.9 89.4C17.1 89.4 17.3 89.4 17.5 89.4C17.7 89.4 17.9 89.4 18.1 89.4C18.3 89.4 18.5 89.4 18.6 89.5C18.7 89.5 18.9 89.6 19 89.6C19.1 89.7 19.2 89.7 19.3 89.8C19.4 89.9 19.5 90 19.5 90.1L20 90.1ZM16.6 98.9L16.9 98.7C16.8 98.5 16.7 98.4 16.7 98.3C16.7 98.2 16.7 98.1 16.7 98C16.7 97.9 16.8 97.8 16.9 97.7C17 97.6 17.2 97.5 17.4 97.4L21.3 94.9C21.5 94.8 21.7 94.7 21.8 94.6C21.9 94.5 22 94.5 22.1 94.5C22.2 94.5 22.3 94.6 22.4 94.6C22.5 94.7 22.6 94.8 22.7 95L23 94.8L21.2 92L20.9 92.2C21 92.4 21.1 92.5 21.1 92.6C21.1 92.7 21.1 92.8 21.1 92.9C21.1 93 21 93.1 20.9 93.2C20.8 93.3 20.6 93.4 20.4 93.5L16.6 96C16.4 96.1 16.2 96.2 16.1 96.3C16 96.4 15.9 96.4 15.8 96.4C15.7 96.4 15.6 96.3 15.5 96.3C15.4 96.2 15.3 96.1 15.2 95.9L14.9 96.1L16.6 98.9ZM24.5 101.9C24.7 102.3 24.9 102.6 25 103C25.1 103.3 25.1 103.7 25 104C24.9 104.3 24.7 104.6 24.5 104.8C24.3 105 24.1 105.1 23.8 105.2C23.6 105.3 23.3 105.3 23.1 105.3C22.9 105.3 22.6 105.3 22.4 105.2C22.2 105.1 22 105 21.7 104.9C21.5 104.8 21.3 104.6 21 104.4C20.8 104.2 20.6 104 20.4 103.8L18.6 101.7L18.9 101.4C19.1 101.6 19.2 101.7 19.3 101.7C19.4 101.8 19.5 101.8 19.6 101.8C19.7 101.8 19.8 101.8 19.9 101.7C20 101.6 20.2 101.5 20.4 101.3L23.9 98.3C24.1 98.1 24.2 98 24.3 97.9C24.4 97.8 24.5 97.7 24.5 97.6C24.5 97.5 24.5 97.4 24.5 97.3C24.4 97.2 24.4 97 24.2 96.9L24.5 96.6L26.6 99C26.8 99.2 27 99.4 27.1 99.6C27.2 99.8 27.3 100 27.4 100.1C27.5 100.3 27.5 100.4 27.5 100.6C27.5 100.8 27.5 101.1 27.4 101.3C27.3 101.5 27.2 101.7 26.9 101.9C26.7 102.1 26.5 102.2 26.3 102.3C26.1 102.4 25.9 102.4 25.7 102.3C25.5 102.3 25.3 102.2 25.1 102.1C24.9 102.1 24.7 102 24.5 101.9ZM23.5 100.6L23.7 100.8C24 101.2 24.4 101.4 24.7 101.4C25 101.4 25.4 101.3 25.8 100.9C26 100.7 26.1 100.5 26.2 100.4C26.3 100.2 26.4 100.1 26.4 99.9C26.4 99.7 26.4 99.6 26.3 99.4C26.2 99.3 26.2 99.1 26.1 99C26 98.9 25.9 98.8 25.9 98.8C25.8 98.8 25.8 98.7 25.7 98.7C25.6 98.7 25.6 98.7 25.5 98.8C25.4 98.8 25.3 98.9 25.2 99L23.5 100.6ZM23.2 100.9L21.5 102.4C21.3 102.6 21.1 102.7 21.1 102.9C21 103 21 103.2 21 103.3C21 103.4 21.1 103.6 21.2 103.7C21.3 103.8 21.4 103.9 21.6 104C21.8 104.1 21.9 104.1 22.1 104.1C22.3 104.1 22.5 104.1 22.7 104C22.9 103.9 23.1 103.8 23.4 103.6C23.8 103.2 24 102.8 24 102.4C24 102 23.8 101.5 23.4 101.1L23.2 100.9ZM27.9 110.8L28.2 110.5C28.1 110.4 28 110.2 27.9 110.1C27.8 110 27.8 109.9 27.8 109.8C27.8 109.7 27.8 109.6 27.9 109.5C28 109.4 28.1 109.2 28.3 109.1L31.3 105.6C31.5 105.4 31.6 105.3 31.7 105.2C31.8 105.1 31.9 105 32 105C32.1 105 32.2 105 32.3 105.1C32.4 105.2 32.5 105.2 32.7 105.4L33 105.1L30.5 102.9L30.2 103.2C30.3 103.3 30.4 103.5 30.5 103.6C30.6 103.7 30.6 103.8 30.6 103.9C30.6 104 30.6 104.1 30.5 104.2C30.4 104.3 30.3 104.5 30.1 104.7L27.1 108.2C26.9 108.4 26.8 108.5 26.7 108.6C26.6 108.7 26.5 108.8 26.4 108.8C26.3 108.8 26.2 108.8 26.1 108.7C26 108.6 25.9 108.6 25.7 108.4L25.4 108.7L27.9 110.8ZM41.2 110.2L41 110.5C40.8 110.4 40.7 110.3 40.5 110.3C40.4 110.3 40.3 110.3 40.2 110.3C40.1 110.3 40 110.4 39.9 110.5C39.8 110.6 39.7 110.7 39.6 110.9C39.5 111 39.4 111.2 39.2 111.4C39.1 111.6 38.9 111.9 38.7 112.2L36.2 116.3L35.7 116L35.2 108.8L33.8 111C33.5 111.4 33.3 111.8 33.2 112.1C33 112.4 32.9 112.6 32.9 112.8C32.8 112.9 32.8 113.1 32.8 113.2C32.8 113.3 32.9 113.4 33 113.6C33.1 113.7 33.3 113.9 33.5 114L33.3 114.3L31 112.8L31.2 112.5C31.4 112.6 31.5 112.7 31.7 112.7C31.8 112.7 32 112.7 32.1 112.7C32.2 112.6 32.3 112.6 32.4 112.4C32.5 112.3 32.7 112.1 32.9 111.8C33.1 111.5 33.3 111.2 33.6 110.8L34.9 108.7C35 108.5 35.1 108.4 35.2 108.3C35.3 108.2 35.3 108.1 35.4 108C35.4 107.9 35.5 107.8 35.5 107.8C35.5 107.7 35.5 107.7 35.5 107.6C35.5 107.5 35.5 107.4 35.4 107.3C35.4 107.2 35.3 107.1 35.2 107C35.1 106.9 35 106.8 34.9 106.7L35.1 106.4L36.8 107.5L37.4 113.9L38.5 112.1C38.7 111.8 38.8 111.6 39 111.3C39.1 111.1 39.2 110.9 39.3 110.7C39.4 110.5 39.4 110.4 39.5 110.3C39.6 110.2 39.6 110 39.6 109.9C39.6 109.8 39.5 109.7 39.4 109.6C39.3 109.5 39.1 109.3 38.9 109.2L39.1 108.9L41.2 110.2ZM53.5 114.5L50.9 113.7L50.8 114.1C51 114.2 51.2 114.3 51.4 114.4C51.5 114.5 51.6 114.6 51.7 114.7C51.7 114.8 51.8 114.9 51.7 115.1C51.7 115.2 51.7 115.3 51.6 115.5C51.6 115.7 51.5 115.8 51.5 116C51.4 116.2 51.4 116.5 51.3 116.8L50.9 118.2C50.6 119.1 50.3 119.8 49.9 120.2C49.5 120.6 49 120.7 48.4 120.5C47.8 120.3 47.5 120 47.3 119.5C47.2 119 47.2 118.4 47.4 117.5L48.2 114.7C48.3 114.5 48.3 114.3 48.4 114.1C48.5 114 48.5 113.9 48.6 113.8C48.7 113.7 48.8 113.7 48.9 113.7C49 113.7 49.2 113.7 49.4 113.8L49.5 113.4L46.4 112.5L46.3 112.9C46.5 113 46.6 113 46.7 113.1C46.8 113.2 46.9 113.2 46.9 113.3C46.9 113.4 46.9 113.5 46.9 113.7C46.9 113.9 46.8 114.1 46.8 114.3L46 117.1C45.9 117.5 45.8 117.9 45.8 118.3C45.8 118.6 45.8 119 45.8 119.2C45.9 119.5 46 119.7 46.1 119.9C46.2 120.1 46.4 120.3 46.6 120.4C46.8 120.5 47 120.7 47.2 120.8C47.4 120.9 47.6 121 47.9 121.1C48.2 121.2 48.4 121.2 48.7 121.2C49 121.2 49.2 121.2 49.4 121.1C49.6 121 49.9 120.9 50.1 120.8C50.4 120.6 50.6 120.4 50.8 120.2C51 119.9 51.2 119.6 51.3 119.3C51.4 119 51.6 118.6 51.7 118.2L52.1 117C52.2 116.7 52.3 116.4 52.3 116.2C52.4 116 52.4 115.8 52.5 115.7C52.6 115.6 52.6 115.4 52.7 115.3C52.8 115.2 52.8 115.1 52.9 115C53 114.9 53.1 114.9 53.2 114.9C53.3 114.9 53.5 114.9 53.7 115L53.5 114.5ZM62.7 115.6L60 115.3L60 115.7C60.3 115.7 60.4 115.8 60.6 115.9C60.7 116 60.8 116 60.9 116.1C61 116.2 61 116.3 61 116.5C61 116.6 61 116.8 61 117C61 117.2 61 117.4 61 117.7C61 118 61 118.3 60.9 118.6L60.6 120.7L57.3 115.1L55.3 114.9L55.3 115.3C55.5 115.3 55.6 115.4 55.7 115.4C55.8 115.4 55.9 115.5 56 115.6C56.1 115.7 56.1 115.8 56.2 115.9C56.2 116 56.3 116 56.3 116.1C56.3 116.2 56.3 116.3 56.3 116.3C56.3 116.4 56.3 116.5 56.3 116.6C56.3 116.7 56.3 116.9 56.2 117.1L55.9 119.6C55.8 120.1 55.8 120.5 55.7 120.8C55.6 121.1 55.6 121.4 55.5 121.5C55.5 121.6 55.4 121.8 55.3 121.9C55.2 122 55.1 122.1 55 122.1C54.9 122.1 54.7 122.1 54.5 122.1L54.5 122.5L57.2 122.8L57.2 122.4C56.9 122.4 56.7 122.3 56.6 122.2C56.5 122.1 56.4 122 56.3 121.9C56.2 121.8 56.2 121.7 56.2 121.5C56.2 121.3 56.2 121.1 56.2 120.8C56.2 120.5 56.3 120.1 56.3 119.6L56.6 117L60.1 123.3L60.7 123.4L61.3 118.6C61.3 118.3 61.4 118 61.4 117.7C61.4 117.4 61.5 117.2 61.5 117C61.5 116.8 61.6 116.7 61.6 116.6C61.6 116.5 61.7 116.3 61.8 116.3C61.9 116.2 62 116.2 62.1 116.1C62.2 116.1 62.4 116.1 62.6 116.1L62.7 115.6ZM68.4 123L68.4 122.6C68.2 122.6 68 122.6 67.9 122.5C67.8 122.5 67.7 122.4 67.6 122.3C67.5 122.2 67.5 122.1 67.5 122C67.5 121.9 67.5 121.7 67.5 121.4L67.3 116.8C67.3 116.6 67.3 116.4 67.3 116.2C67.3 116.1 67.3 115.9 67.4 115.9C67.5 115.8 67.5 115.8 67.7 115.7C67.8 115.7 68 115.6 68.2 115.6L68.2 115.2L64.9 115.3L64.9 115.7C65.1 115.7 65.3 115.7 65.4 115.8C65.5 115.8 65.6 115.9 65.7 116C65.8 116.1 65.8 116.2 65.8 116.3C65.8 116.4 65.8 116.6 65.8 116.9L66 121.5C66 121.7 66 121.9 66 122.1C66 122.2 66 122.4 65.9 122.4C65.8 122.5 65.8 122.5 65.6 122.6C65.5 122.6 65.3 122.7 65.1 122.7L65.1 123.1L68.4 123ZM77.5 113.6L75 114.1L75.1 114.5C75.3 114.5 75.5 114.5 75.6 114.5C75.7 114.5 75.8 114.6 75.9 114.6C76 114.7 76 114.8 76 114.9C76 115 76 115.2 76 115.4C76 115.7 75.9 116 75.9 116.4C75.9 116.8 75.8 117.1 75.8 117.5C75.7 117.9 75.7 118.3 75.6 118.6C75.5 119 75.5 119.3 75.4 119.6C75.3 119.4 75.2 119.2 75 118.9C74.9 118.7 74.7 118.4 74.6 118.1C74.4 117.8 74.3 117.6 74.1 117.3C73.9 117 73.8 116.8 73.7 116.5C73.6 116.3 73.4 116 73.3 115.9C73.2 115.7 73.1 115.6 73 115.4C72.9 115.2 72.9 115.1 72.8 115C72.8 114.9 72.8 114.8 72.9 114.8C73 114.7 73.2 114.7 73.4 114.6L73.3 114.2L70.1 114.8L70.2 115.2C70.4 115.2 70.5 115.2 70.6 115.2C70.7 115.2 70.8 115.2 70.9 115.3C71 115.4 71.1 115.5 71.2 115.6C71.3 115.7 71.4 115.9 71.5 116.1C71.6 116.3 71.8 116.6 72 116.9C72.2 117.2 72.4 117.6 72.6 118C72.8 118.4 73.1 118.8 73.3 119.3C73.6 119.7 73.8 120.2 74.1 120.6C74.4 121 74.6 121.5 74.8 121.9L75.3 121.8C75.4 121.3 75.4 120.8 75.5 120.3C75.6 119.8 75.7 119.3 75.7 118.8C75.8 118.3 75.9 117.8 75.9 117.4C76 117 76 116.6 76.1 116.2C76.2 115.9 76.2 115.6 76.2 115.4C76.3 115.1 76.3 114.9 76.4 114.7C76.5 114.5 76.5 114.4 76.6 114.3C76.7 114.2 76.8 114.1 76.9 114.1C77 114 77.2 114 77.3 113.9L77.5 113.6ZM86.4 116.5C86.4 116.8 86.4 117 86.3 117.2C86.3 117.4 86.2 117.6 86.2 117.7C86.2 117.8 86.1 117.9 86 118C85.9 118.1 85.8 118.2 85.7 118.2C85.6 118.3 85.4 118.3 85.2 118.4C85 118.5 84.8 118.5 84.7 118.6C84.5 118.6 84.4 118.7 84.3 118.6C84.2 118.6 84.1 118.5 84 118.4C83.9 118.3 83.8 118.1 83.7 117.8L83 115.8L83.6 115.6C83.8 115.5 84 115.5 84.1 115.4C84.2 115.4 84.4 115.4 84.5 115.4C84.6 115.4 84.7 115.5 84.8 115.6C84.9 115.7 85 115.8 85.1 116L85.5 115.9L84.7 113.7L84.3 113.8C84.3 114 84.3 114.2 84.3 114.3C84.3 114.4 84.3 114.5 84.2 114.6C84.1 114.7 84.1 114.8 83.9 114.8C83.8 114.9 83.6 114.9 83.4 115L82.8 115.2L81.9 112.8C81.9 112.7 81.8 112.6 81.8 112.5C81.8 112.4 81.8 112.4 81.9 112.3C82 112.3 82 112.2 82.1 112.2L82.5 112.1C82.7 112 82.9 112 83.1 111.9C83.3 111.9 83.4 111.9 83.5 111.9C83.6 111.9 83.7 111.9 83.8 112C83.9 112.1 84 112.2 84.2 112.3C84.3 112.4 84.4 112.6 84.6 112.8L85 112.6C84.9 112.4 84.9 112.3 84.8 112.1C84.7 111.9 84.7 111.8 84.6 111.6C84.5 111.5 84.5 111.3 84.4 111.2C84.3 111.1 84.3 111 84.3 111L79.4 113L79.5 113.4C79.7 113.4 79.8 113.3 79.9 113.3C80 113.3 80.1 113.3 80.2 113.4C80.3 113.4 80.4 113.5 80.4 113.7C80.5 113.8 80.5 114 80.6 114.2L82.2 118.6C82.3 118.8 82.3 119 82.4 119.2C82.4 119.3 82.4 119.5 82.4 119.5C82.4 119.6 82.3 119.7 82.2 119.7C82.1 119.8 81.9 119.9 81.7 120L81.8 120.4L87 118.5C87 118.4 87 118.3 87 118.2C87 118.1 87 117.9 86.9 117.8C86.9 117.7 86.9 117.5 86.8 117.4C86.8 117.3 86.8 117.1 86.7 117C86.7 116.9 86.7 116.8 86.6 116.7L86.4 116.5ZM96.3 113L96.4 113.3C96.3 113.3 96.3 113.4 96.2 113.4C96.1 113.4 96.1 113.5 96 113.5C95.7 113.7 95.4 113.8 95.2 113.9C95 114 94.8 114 94.6 114C94.4 114 94.2 114 94.1 113.9C93.9 113.8 93.7 113.8 93.5 113.7C93.3 113.6 93.2 113.5 93 113.4C92.8 113.3 92.6 113.2 92.4 113C92.2 112.9 92 112.8 91.8 112.6C91.7 112.5 91.6 112.5 91.5 112.4C91.4 112.4 91.3 112.3 91.2 112.4C91.1 112.4 91 112.4 90.9 112.5L90.7 112.6L91.6 114.1C91.7 114.3 91.8 114.5 91.9 114.6C92 114.7 92.1 114.8 92.2 114.8C92.3 114.8 92.4 114.8 92.5 114.8C92.6 114.8 92.8 114.7 92.9 114.6L93.1 114.9L90.2 116.6L90 116.3C90.2 116.2 90.3 116.1 90.4 116C90.5 115.9 90.5 115.8 90.6 115.7C90.6 115.6 90.6 115.5 90.5 115.3C90.4 115.2 90.3 115 90.2 114.8L87.8 110.8C87.7 110.6 87.6 110.4 87.5 110.3C87.4 110.2 87.3 110.1 87.2 110.1C87.1 110.1 87 110.1 86.9 110.1C86.8 110.1 86.6 110.2 86.5 110.3L86.3 110L89.1 108.3C89.3 108.2 89.6 108 89.8 107.9C90 107.8 90.2 107.7 90.4 107.7C90.6 107.7 90.8 107.6 90.9 107.7C91.2 107.7 91.5 107.8 91.7 107.9C92 108.1 92.2 108.3 92.4 108.6C92.6 108.9 92.7 109.2 92.7 109.5C92.7 109.8 92.7 110 92.6 110.3C92.5 110.6 92.4 110.8 92.2 111C92.3 111.1 92.4 111.1 92.5 111.2C92.6 111.3 92.8 111.4 92.9 111.5C93.1 111.6 93.2 111.7 93.4 111.8C93.6 111.9 93.7 112 93.9 112.1C94.1 112.2 94.3 112.3 94.5 112.4C94.7 112.5 94.8 112.6 94.9 112.6C95 112.7 95.1 112.7 95.3 112.7C95.5 112.8 95.7 112.8 95.8 112.8C96 113 96.1 113 96.3 113ZM90.5 112.3L90.8 112.1C91 112 91.1 111.9 91.3 111.7C91.4 111.6 91.5 111.4 91.5 111.3C91.6 111.1 91.6 110.9 91.5 110.6C91.5 110.4 91.3 110.1 91.2 109.8C91 109.5 90.9 109.3 90.7 109.2C90.5 109 90.3 108.9 90.2 108.9C90 108.8 89.9 108.8 89.7 108.9C89.5 108.9 89.4 109 89.3 109.1C89.2 109.2 89.1 109.2 89.1 109.3C89 109.4 89 109.4 89 109.5C89 109.5 89 109.6 89 109.7C89 109.8 89.1 109.8 89.1 110L90.5 112.3ZM98.5 104C98.2 103.8 98 103.6 97.8 103.4C97.6 103.2 97.4 103 97.3 102.9C97.2 102.9 97.1 103 96.9 103.1C96.8 103.2 96.6 103.2 96.4 103.3C96.2 103.4 96.1 103.5 95.9 103.7C95.6 104 95.3 104.2 95.2 104.5C95 104.8 94.9 105.1 94.9 105.4C94.9 105.7 94.9 106 95 106.3C95.1 106.6 95.2 106.8 95.4 107.1C95.6 107.3 95.8 107.5 96 107.6C96.2 107.7 96.5 107.8 96.7 107.8C97 107.8 97.2 107.8 97.5 107.8C97.8 107.8 98.1 107.7 98.4 107.7C98.7 107.6 99 107.6 99.3 107.6C99.6 107.6 99.8 107.6 100 107.7C100.2 107.8 100.4 107.9 100.5 108.1C100.7 108.3 100.8 108.5 100.8 108.7C100.8 108.9 100.8 109.1 100.8 109.3C100.7 109.5 100.6 109.6 100.4 109.8C100.2 109.9 100.1 110 99.9 110.1C99.7 110.1 99.5 110.2 99.3 110.1C99.1 110.1 98.9 110 98.7 110C98.5 109.9 98.3 109.9 98.1 109.8C97.9 109.7 97.8 109.6 97.6 109.5L97.4 109.9C97.5 110 97.7 110.1 97.8 110.3C97.9 110.4 98.1 110.6 98.2 110.7C98.3 110.8 98.5 110.9 98.6 111C98.7 111.1 98.8 111.2 98.9 111.2C99 111.2 99.1 111.1 99.2 111.1C99.3 111.1 99.4 111 99.6 110.9C99.7 110.8 99.9 110.8 100.1 110.7C100.3 110.6 100.4 110.5 100.6 110.4C100.9 110.1 101.2 109.8 101.3 109.5C101.5 109.2 101.6 108.9 101.6 108.6C101.6 108.3 101.6 108 101.5 107.7C101.4 107.4 101.3 107.1 101.1 106.9C100.8 106.6 100.6 106.4 100.2 106.3C99.9 106.2 99.5 106.1 99.2 106.1C98.8 106.1 98.4 106.2 98 106.3C97.7 106.4 97.4 106.4 97.1 106.4C96.8 106.4 96.6 106.4 96.4 106.3C96.2 106.2 96 106.1 95.9 105.9C95.8 105.7 95.7 105.5 95.6 105.3C95.6 105.1 95.6 104.9 95.6 104.7C95.7 104.5 95.8 104.4 95.9 104.3C96.1 104.2 96.3 104.1 96.4 104C96.6 104 96.8 104 97 104C97.2 104 97.4 104.1 97.6 104.2C97.8 104.3 98 104.4 98.1 104.5L98.5 104ZM107.2 103.7L105 106.2L104.7 105.9C104.8 105.7 104.9 105.6 105 105.5C105.1 105.4 105.1 105.3 105.1 105.2C105.1 105.1 105 105 104.9 104.9C104.8 104.8 104.7 104.7 104.5 104.5L101.1 101.4C100.9 101.2 100.8 101.1 100.6 101C100.5 100.9 100.4 100.9 100.3 100.9C100.2 100.9 100.1 100.9 100 101C99.9 101.1 99.8 101.2 99.6 101.3L99.3 101L101.5 98.5L101.8 98.8C101.7 99 101.6 99.1 101.5 99.2C101.4 99.3 101.4 99.4 101.4 99.5C101.4 99.6 101.5 99.7 101.6 99.8C101.7 99.9 101.8 100.1 102 100.2L105.4 103.3C105.6 103.5 105.7 103.6 105.8 103.7C105.9 103.8 106 103.8 106.1 103.8C106.2 103.8 106.3 103.8 106.4 103.7C106.5 103.6 106.6 103.5 106.8 103.4L107.2 103.7ZM108.2 92.8C108 92.7 107.9 92.6 107.7 92.5C107.5 92.4 107.4 92.3 107.2 92.2C107 92.1 106.9 92 106.7 91.9C106.6 91.8 106.4 91.7 106.3 91.7L106.1 91.9C106.1 92 106.2 92.1 106.2 92.2C106.2 92.3 106.1 92.4 106.1 92.5L103.8 95.9C103.7 96 103.7 96.1 103.6 96.1C103.5 96.2 103.5 96.2 103.4 96.2C103.3 96.2 103.2 96.2 103.1 96.2L102.9 96.4C103.1 96.5 103.2 96.6 103.4 96.8C103.6 96.9 103.8 97.1 104 97.3C104.2 97.5 104.4 97.6 104.6 97.8L104.8 97.5C104.6 97.3 104.5 97.1 104.3 97C104.2 96.8 104.1 96.7 104.1 96.6C104.1 96.5 104.1 96.4 104.1 96.3C104.1 96.2 104.1 96.1 104.2 96C104.3 95.9 104.4 95.7 104.5 95.5L104.7 95.1L109.4 98.3C109.6 98.4 109.8 98.5 109.9 98.7C110 98.8 110.1 98.9 110.1 99C110.1 99.1 110.1 99.2 110.1 99.3C110.1 99.4 110 99.6 109.9 99.8L110.2 100L112.2 97L111.9 96.8C111.8 97 111.6 97.1 111.5 97.2C111.4 97.3 111.3 97.4 111.2 97.4C111.1 97.4 111 97.4 110.9 97.3C110.8 97.2 110.6 97.1 110.4 97L105.7 93.8L106 93.4C106.1 93.2 106.3 93 106.4 92.9C106.5 92.8 106.6 92.7 106.8 92.7C106.9 92.7 107.1 92.7 107.3 92.7C107.5 92.7 107.7 92.8 108 92.9L108.2 92.8ZM110.8 83.8L111.2 84C111.1 84.2 111.1 84.3 111.1 84.4C111.1 84.5 111.1 84.6 111.1 84.7C111.1 84.8 111.2 84.9 111.2 85.1C111.3 85.2 111.4 85.4 111.5 85.6C111.6 85.8 111.7 85.9 111.9 86.1C112 86.3 112.1 86.4 112.3 86.6C112.4 86.8 112.6 86.9 112.7 87.1C112.9 87.3 113 87.5 113.2 87.8C113.3 87.9 113.3 87.9 113.4 88C113.5 88.1 113.5 88.1 113.6 88.2C113.7 88.2 113.8 88.3 113.9 88.4L115.3 89.1C115.5 89.2 115.7 89.3 115.9 89.3C116 89.3 116.2 89.4 116.3 89.3C116.4 89.3 116.5 89.2 116.6 89.1C116.7 89 116.8 88.8 116.9 88.6L117.3 88.8L115.7 92L115.3 91.8C115.4 91.6 115.4 91.4 115.5 91.3C115.5 91.2 115.5 91.1 115.5 91C115.5 90.9 115.4 90.8 115.2 90.7C115.1 90.6 114.9 90.5 114.7 90.4L113.5 89.8C113.4 89.8 113.3 89.7 113.3 89.7C113.2 89.7 113.2 89.7 113.1 89.7C113 89.7 113 89.7 112.9 89.7C112.7 89.7 112.5 89.7 112.3 89.7C112.1 89.7 111.9 89.7 111.6 89.7C111.4 89.7 111.1 89.7 110.8 89.7C110.5 89.7 110.1 89.7 109.8 89.7C109.6 89.7 109.4 89.7 109.3 89.7C109.2 89.7 109.1 89.8 109 89.8C108.9 89.8 108.8 89.9 108.8 90C108.7 90.1 108.7 90.2 108.6 90.3L108.2 90.1L109.6 87.3L110 87.5C109.9 87.7 109.9 87.9 109.9 88C109.9 88.1 109.9 88.2 110 88.2C110.1 88.2 110.2 88.2 110.4 88.2C110.9 88.2 111.3 88.2 111.8 88.2C112.3 88.2 112.8 88.2 113.3 88.2C113.2 88.1 113.1 87.9 112.9 87.7C112.8 87.5 112.6 87.3 112.4 87.1C112.2 86.9 112.1 86.7 111.9 86.5C111.7 86.3 111.6 86.1 111.4 86C111.3 85.9 111.2 85.8 111.2 85.8C111.1 85.8 111.1 85.7 111 85.8C110.9 85.8 110.9 85.9 110.8 86C110.7 86.1 110.6 86.2 110.5 86.4L110.1 86.2L110.8 83.8ZM103.5 20.4C101.7 22.5 99.7 24 97.9 25.7C97.6 26.5 97.7 26.9 98.1 27.1C99.3 25.8 100.4 24.4 101.8 23.2C102.2 23.7 101.9 24.1 102 24.5C102.1 24.7 103.7 24.6 103.8 24C103.9 23.6 103.6 23.3 103.9 22.9C104.2 22.5 106.2 22.9 106.2 22.5C106.3 22.1 106.5 21.8 106 21.4C105.5 21.2 104.9 21.1 104.4 21.3C104.1 21.3 104 21.1 104 20.9C104.1 20.7 104.2 20.5 104.1 20.2C103.9 20.2 103.7 20.2 103.5 20.4ZM103.5 21.4C103.9 21.6 104.5 21.7 104.8 22C104.4 22 104.3 22.2 103.9 22.3C103.6 22.5 103.5 22.9 103.3 23.2C103.2 23.7 102.8 23.7 102.5 24C102.4 23.7 102.3 23.5 102.2 23.3L102.4 22.6L103.5 21.4ZM102.3 25.6C102.7 25.3 106.3 27.7 107 28.9C107 29.3 104.6 29.1 104.4 28.9C104.4 28.9 104.4 28.4 104.1 28.5C103.4 28.8 102.5 29.5 102.5 30.1C104 33.5 107.3 34.8 109 32.1C108.9 33.2 108.4 34.1 108.4 34.8C108.4 35 108 35.2 107.7 35.2C104.5 35.8 101 30.9 101.6 29.8C101.6 29.5 103.5 28.1 103.2 28C101.7 27.7 100.5 27.7 99.9 27.6C99.5 27.5 99.4 27.1 99.6 27C100.1 26.7 102.7 27.1 103.6 27.4C103.4 27.1 102.3 26.4 102.1 26.2C101.8 26 102 25.8 102.3 25.6ZM104.5 25.1C105.6 25.4 106.6 25.8 107.3 27.1C107.2 27.4 106.7 27.5 106.5 27.4C105.7 26.7 103.8 25.6 104.5 25.1ZM108.6 22.7C109.4 23.6 109 24.3 108.6 24.7C108.2 24.8 111.7 26.7 110.1 28.5C109.4 28.4 108.4 27 108.9 27C109.1 27 109.8 27.4 109.6 26.6C108.6 25.5 107.3 24.5 106.1 23.8C105.6 23.5 104.6 24.5 104.1 24.2C103.4 23.2 104.9 22.7 106.4 23C106.7 23.1 106.5 23.3 106.6 23.5L107.6 24.1C108.3 23.7 108.3 22.4 108.6 22.7ZM81.1 9.8C81.2 9.8 81.4 9.9 81.7 10C81.7 9.8 81.8 9.7 81.9 9.6C81.8 9.6 81.7 9.6 81.7 9.6C81.3 9.4 81 9.2 80.7 8.9L79.6 9C79.4 9 79.4 8.9 79.6 8.7C79.8 8.6 80.5 8.5 80.4 8.4C80.3 8.2 80.1 8.1 80.1 7.8C80 7.6 80.2 7.3 80.5 7.3C80.8 7.4 80.7 7.7 80.9 7.9C81.1 7.9 81.3 7.5 81.5 7.4C81.3 7.3 81.2 7.2 81.1 7.1L79.8 7.3C79.7 7.3 79.7 7.3 79.7 7.3C79.4 8.1 79.2 8.9 79.4 9.5C80.1 9.5 80.9 9.7 81.1 9.8ZM81.9 7.7C82 7.9 81.9 8.1 81.8 8.2L81.4 8.6C81.5 9 81.7 9.2 82 9.4L82 9.4C82.2 9.2 82.4 9.1 82.6 8.8C82.4 8.5 82.1 8.7 82 8.6C82 8.4 82.1 8.1 82.4 8C82.7 7.9 83.1 8 83.4 8.2C83.5 8 83.4 7.8 83.4 7.7C83.4 7.6 82.8 7.5 82.7 7.4C82.6 7.3 82.5 7 82.7 6.9C83.7 6.5 84.5 6.6 85.2 7.1C85.6 7.2 82.9 9.5 82.9 10.3C84.4 10.9 86.2 11.8 85.7 13.5C84.7 13.7 82.3 12.5 83 12.3C83.3 12.2 84.6 12.4 83.6 11.5C81.5 10.6 79.1 10 76.9 9.8C76 9.7 75.3 11.3 74.6 11.1C73 10.2 74.6 9 76.8 8.6C77.3 8.6 77.2 8.9 77.3 9.1L78.7 9.3C78.3 8.7 78.3 7.1 78.4 6.5C78.6 6.3 78.9 6.2 79 6.3C79.3 6.3 78.5 8.5 79 9.3L79.1 9.3L79.2 9.3C78.8 8.4 79.4 5.7 79.8 4.9C80.1 4.7 80.6 4.6 80.7 4.9C80.9 5 80.4 5.9 80 6.9C80 6.9 80 6.9 80.1 6.9C80.4 6.8 81.1 6.7 81.1 6.5C81 6.3 80.8 6.1 80.8 5.8C80.7 5.5 80.9 5.2 81.3 5.2C81.4 5.5 81.4 5.8 81.5 6.1C81.7 6.1 82.1 5.4 82.3 5.5C82.8 5.8 82.6 6.1 82.4 6.3L82 6.8C82.1 7.2 82.3 7.5 82.7 7.7C82.8 8 82.5 8 82.4 8C82.2 7.9 82.1 7.8 81.9 7.7ZM77.5 10.8C76.9 11.8 79.5 11.6 79.9 12.1C80.1 12.4 79.9 12.6 79.7 12.7L78.8 12.6C78.8 12.8 79 13.1 78.9 13.3C77.9 13.2 77 12.8 76 12.7C74.8 12.8 74.9 13.4 75.5 13.6C76.5 13.9 78.7 13.6 78.9 14.6C78.8 15.7 78.3 16.4 78.1 16.4C78.1 16.7 77.4 16.4 76.4 15.5C76.8 16.9 77.5 17.5 78.3 17.9C78.7 18 79.7 16.9 80.1 14.5C80.6 14.3 82.4 15.2 82.8 15.2C83 15.2 83.3 14.7 83.1 14.3C82.1 13.7 80.8 13.8 80.2 13.3L80.2 12.9L81.9 12.4C82.1 12.2 82 11.8 81.4 11.2C80.4 10.7 79 10.6 77.5 10.8ZM43.7 5.6C45.2 5.1 45.8 5.9 46.1 6.5C46 7 50 3.8 51.4 6.6C50.9 7.4 48.7 7.9 49 7.4C49.1 7.1 50 6.5 48.9 6.4C47.1 7 45.3 8.1 43.8 9.3C43.2 9.7 43.8 11.4 43.3 11.7C41.8 12 42 10.1 43 8.5C43.3 8.2 43.4 8.5 43.6 8.5L44.8 7.6C44.6 6.5 43.2 5.8 43.7 5.6ZM47.7 12.4C48 12.4 48.2 12 48.5 12C49.2 13.2 49.4 14.4 49.3 14.6C49.1 14.9 48.8 15 48.6 14.9C48.5 14.8 48.4 14.7 48.4 14.6C48.5 14.5 48.8 14.3 49 14.3C49.1 14.2 49 14 48.8 13.9C48.7 13.9 48.6 13.9 48.4 14C48.2 14.1 48.2 13.8 48.3 13.7C48.4 13.5 48.5 13.4 48.6 13.2C48.6 13.1 48.5 12.9 48.4 12.8C48.2 12.8 47.9 13 47.8 12.9C47.7 12.8 47.6 12.4 47.5 12.4C47.3 12.4 47.1 12.5 47.1 12.7C47.3 13.6 47.7 14.4 48 15.3C47.8 15.5 47.6 15.8 47.3 15.8C47.1 15.8 47.2 16.3 47.4 16.4C47.7 16.4 48 16.3 48.2 16.3C48.3 16.3 48.3 16.5 48.2 16.7C48.1 17.1 47.9 17.4 47.8 17.8C47.7 18.2 47.7 18.5 48.1 18.4C48.6 18.2 48.7 16.9 49.2 16.5C49.6 16.9 50.4 17.3 51 17.6C51.4 17.6 52.1 17.4 52 16.9C51.8 16.4 50.8 16.2 50.6 15.7C50.3 14.1 49.4 11 48.9 10.7C48.4 10.7 47.9 11.2 47.4 11.8C47.4 12.2 47.5 12.4 47.7 12.4ZM45.4 12.5C46.1 12.3 46.3 11.3 46.3 10.9C46.3 10.7 46 10.4 45.8 10.6C45.4 10.9 45.2 11.4 45.1 11.9C45.1 11.9 45.2 12.5 45.4 12.5ZM46.3 9.7C46.6 10.3 47.1 11.3 47 11.5C46.3 13.4 44.9 15.3 44.4 17C44.3 17.5 44.5 18.1 45.1 17.4L48.2 10C48.8 9.9 49.2 10.2 49.7 10.3C50.1 10.2 50.4 9.9 50.5 9.6C50.3 8.8 47.4 9 47.6 9.3C47.7 9.6 48 9.7 47.9 9.9C47.8 10.1 47.6 10.3 47.5 10.2L47.2 9.1C47.3 8.8 48 8.5 48.7 8.3C49 8.2 48.8 7.7 48.4 7.6C48.2 7.5 45.3 8.1 44.9 9.9C44.6 10.4 45.7 9.6 46.3 9.7ZM18 22.7C19.5 21.6 20.9 22.3 21.5 22.8C21.6 23.4 24.5 18.7 27 21.2C26.8 22.3 24.5 23.7 24.6 22.9C24.6 22.5 25.3 21.5 24.1 21.9C22.3 23.3 20.5 25.1 19.3 27C18.8 27.7 20.1 29.3 19.7 29.9C18.1 30.8 17.6 28.7 18.1 26.4C18.3 25.9 18.6 26.2 18.8 26.2L20.3 24.3C19.7 23.5 17.5 23 18 22.7ZM25 32C25.3 32.4 23.4 33.9 22.6 34.8C22.2 35.5 22.5 36 22.8 36C23.7 35.5 27.8 30.3 31 27.7C31.8 26.9 30.4 26.1 29.1 27.1C28.2 27.9 28.5 28 27.3 29.2L24.3 25C24 24.6 22.9 24.4 22.2 25.6C20.9 28.5 23.9 30.4 25 32ZM22.6 26.7C22.6 27.1 22.7 27.3 23 27.4C23.2 27.5 23.4 27.3 23.4 27.1C23.6 26.9 24.1 27.4 24.1 27.6C23.8 27.9 23.6 28.2 23.6 28.4C23.6 28.7 23.8 28.9 24 28.8C24.1 28.6 24.3 28.5 24.5 28.4C24.7 28.4 25.3 28.8 25.1 29C25.1 29.3 24.7 29.4 24.6 29.7C25.4 30.6 25.7 31.2 26.2 30.6C26.3 30.4 26.4 30.1 26.1 29.5C25.1 28.3 23.4 25.6 23.1 25.9C22.6 26.4 22.6 26.6 22.6 26.7ZM64.3 0C28.8 0 0 28.8 0 64.3C0 99.8 28.8 128.6 64.3 128.6C99.8 128.6 128.6 99.8 128.6 64.3C128.7 28.8 99.8 0 64.3 0ZM64.3 2C29.9 2 2 29.9 2 64.3C2 98.7 29.9 126.6 64.3 126.6C98.7 126.6 126.6 98.7 126.6 64.3C126.6 29.9 98.7 2 64.3 2ZM64.3 16.4C37.9 16.4 16.4 37.9 16.4 64.3C16.4 90.7 37.8 112.2 64.3 112.2C90.7 112.2 112.2 90.8 112.2 64.3C112.2 37.9 90.8 16.4 64.3 16.4ZM64.3 18.7C39.1 18.7 18.7 39.1 18.7 64.3C18.7 89.5 39.1 109.9 64.3 109.9C89.5 109.9 109.9 89.5 109.9 64.3C109.9 39.1 89.5 18.7 64.3 18.7ZM78.3 25.3C77.9 25.2 77.5 25 77 24.9C75.8 24.5 74.6 24.2 73.4 23.9C72.2 23.6 72.2 23.7 71.1 23.6C68.4 23.8 68.1 26.6 68.1 28.1C68.1 30.1 68.2 32.7 70.6 33.3C71.2 33.3 72.5 33.6 74.2 33.8C78 34.2 80.9 34.4 84.5 35.4C86.1 35.8 88.1 36.8 88.7 37.2C90.8 38.6 91.4 40.2 91.5 45.8C91.5 46.4 91.5 48 91.5 48.3C91.5 48.3 91.5 48.8 91.5 49.7C91.5 50.6 91.5 51.8 91.6 53.2C91.6 54.7 91.7 56.4 91.8 58.2C92 62.3 92.1 66.3 92.6 70.4C93 73.6 93.9 78.6 95.6 81.3C98 85.2 99.8 84.9 101 83.3C103.9 77.6 105.5 71.2 105.5 64.4C105.5 46.4 94.2 31.1 78.3 25.3ZM94.2 92.8C94.8 92.2 95.5 91.5 96 90.8C95.9 90.7 95.7 90.6 95.6 90.5L95.6 90.5C95.5 90.4 95.3 90.3 95.2 90.2C90.3 86.6 87.7 77.2 87 67.9C86.6 62.4 87 55.3 87 52.6C87 49.8 86.9 49.4 86.8 48.5C85.4 38.2 75.4 37.4 68.5 37.1C66.8 37.2 67.6 42 67.6 42C78.3 39 82.9 52.1 69.5 58.4C73 59.2 73.3 61.4 73.3 64C82.8 59.8 89.2 69.7 81.2 76.8C80.9 77.1 80.5 77.4 80.2 77.6C79.8 77.9 79.4 78.2 79 78.4C78.6 78.7 78.1 79 77.7 79.2C77.2 79.5 76.8 79.8 76.3 80.1C75.8 80.4 75.3 80.7 74.8 81C74.3 81.3 73.8 81.6 73.3 81.9C72.8 82.2 72.3 82.5 71.8 82.8C71.3 83.1 70.8 83.4 70.3 83.8C69.8 84.1 69.3 84.5 68.9 84.8C68.4 85.2 68 85.5 67.6 85.9C67.2 86.3 66.8 86.6 66.4 87C66 87.4 65.7 87.8 65.4 88.2C65.1 88.6 64.8 89 64.6 89.5C64.4 89.9 64.2 90.4 64 90.8C63.9 91.2 63.8 91.7 63.7 92.1C63.5 93.9 64.9 93.7 65.6 93.7L66.5 93.7L67.4 93.7L68.3 93.7L69.2 93.7L70.1 93.7L71 93.7L71.9 93.7L72.8 93.7L73.7 93.7L74.6 93.7L75.5 93.7L76.4 93.7L77.3 93.7L78.2 93.7L79.1 93.7L80 93.7L80.9 93.7L81.8 93.7L82.7 93.7L83.6 93.7L84.5 93.7L85.4 93.7L86.3 93.7L87.2 93.7L88.1 93.7L89 93.7L89.9 93.7L90.8 93.7C91.7 93.7 92.5 93.8 93.3 93.1L93.4 93L93.5 92.9C94.1 92.9 94.1 92.8 94.2 92.8ZM37.9 46.8C38.4 42.7 38 38.8 41.5 36.6C45 34.4 53.4 34 56.2 33.7C59 33.4 58.9 33.4 60.2 32.7C61.4 32.1 62.2 29.7 61.8 26.4C61.6 24.5 60.6 23.6 58.7 23.4C58.4 23.4 57.8 23.5 57.5 23.5C57.2 23.6 56.9 23.6 56.6 23.7C56.3 23.8 56 23.8 55.7 23.9C55.4 24 55.1 24 54.8 24.1C54.5 24.2 54.2 24.3 53.9 24.3C53.6 24.4 53.3 24.5 53 24.6C52.7 24.7 52.4 24.8 52.1 24.9C51.8 25 51.5 25.1 51.2 25.2C50.9 25.3 50.6 25.4 50.3 25.5C50 25.6 49.7 25.7 49.4 25.8C49.1 25.9 48.8 26 48.5 26.2C48.2 26.3 47.9 26.4 47.6 26.6C47.3 26.7 47 26.9 46.8 27C46.5 27.1 46.2 27.3 46 27.4C45.7 27.5 45.5 27.7 45.2 27.8C44.9 27.9 44.7 28.1 44.4 28.2C44.1 28.4 43.9 28.5 43.6 28.7C43.3 28.9 43.1 29 42.8 29.2C42.5 29.4 42.3 29.5 42 29.7C41.7 29.9 41.5 30 41.2 30.2C40.9 30.4 40.7 30.5 40.4 30.7C40.2 30.9 39.9 31.1 39.7 31.2C39.5 31.4 39.2 31.6 39 31.8C38.8 32 38.5 32.2 38.3 32.4C38.1 32.6 37.8 32.8 37.6 33C37.4 33.2 37.1 33.4 36.9 33.6C36.7 33.8 36.4 34 36.2 34.2C36 34.4 35.8 34.6 35.5 34.8C35.3 35 35.1 35.2 34.9 35.4C34.7 35.6 34.5 35.8 34.3 36.1C34.1 36.3 33.9 36.5 33.7 36.8C27.2 44.1 23.3 53.6 23.3 64.2C23.3 64.7 23.3 65.2 23.3 65.7C23.3 66.2 23.3 66.7 23.4 67.2C23.4 67.7 23.5 68.2 23.5 68.6C23.5 69.1 23.6 69.6 23.7 70C23.8 70.5 23.8 70.9 23.9 71.4C24 71.9 24.1 72.3 24.2 72.8C24.3 73.3 24.4 73.7 24.5 74.2C24.6 74.7 24.7 75.1 24.9 75.6C25 76 25.2 76.5 25.3 76.9C25.4 77.3 25.6 77.8 25.7 78.2C25.9 78.6 26 79.1 26.2 79.5C26.4 79.9 26.5 80.4 26.7 80.8C26.9 81.2 27.1 81.6 27.3 82.1C29 85.7 31.7 83.9 33.5 79.7C36.1 73.6 36.7 66.5 37 59.9C37.2 55.5 37.5 51.3 37.9 46.8ZM73.6 68.8C76.4 69.4 77.4 71.7 77 74.2C83.6 70.3 79.6 64.1 73.6 68.8ZM64.8 48.2C67.6 48.6 68.5 51.3 68.3 53.8C76.1 49.1 71 43.4 64.8 48.2Z" fill-rule="evenodd"  fill="#77331D" >
</path>
</svg>
