<?xml version="1.0" encoding="UTF-8"?><svg id="b" xmlns="http://www.w3.org/2000/svg" xmlns:xlink="http://www.w3.org/1999/xlink" viewBox="0 0 666.17 666.17"><defs><clipPath id="d"><path d="M475.098,188.8906c-3.276.031-6.5509.062-9.824.058-.955-.001-1.9149.011-2.8629.104-1.321.13-2.5371.558-3.0681,1.914-.543,1.385.1421,2.465,1.0791,3.421,1.9309,1.971,3.9679,3.849,5.7889,5.917,8.52,9.678,12.974,20.854,11.7421,33.864-1.1311,11.948-7.0221,21.925-14.146,31.135-9.6331,12.453-22.5031,21.148-35.927,28.89-8.583,4.95-17.6901,8.962-27.035,12.442-3.392,1.262-7.5,2.427-9.5,5.895-4.76,8.255-9.214,16.688-13.7371,25.079-1.9569,3.632-4.1029,7.152-6.1649,10.717-3.952,6.836-7.3151,14.011-11.123,20.934-3.968,7.217-8.2729,14.246-12.248,21.459-5.3679,9.7401-11.021,19.319-16.1239,29.212-4.167,8.078-8.917,15.853-13.3341,23.802-4.7229,8.501-9.584,16.938-13.9569,25.617-2.916,5.786-7.146,10.798-9.514,16.866-.507,1.3-1.8459,2.862.27,3.773,1.733.745,3.4189.187,4.243-1.691.83-1.895,2.256-3.132,4.1119-3.752,3.588-1.199,5.9661-3.987,8.616-6.383,1.332-1.202,2.651-2.387,4.04-3.531,4.536-3.734,9.577-6.763,13.017-11.95,2.1161-3.19,3.943-8.138,9.594-7.213.157.027.3761-.185.532-.324,2.7161-2.442,6.1011-3.636,9.3921-4.989,1.197-.492,2.016-1.284,2.188-2.507.2789-1.968,1.299-3.57,2.244-5.224,3.1329-5.486,7.5079-10.228,9.7429-16.254.144-.389.4711-.717,1.198-.507.629,1.061.109,2.085-.408,3.126-.754,1.519-1.495,3.046-2.214,4.582-.744,1.586-.505,3.042,1.141,3.759,1.733.755,1.897,2.031,1.8831,3.611-.0111,1.215-.4301,2.855,1.1129,3.33,1.733.534,3.016-.931,3.454-2.203,2.0531-5.966,6.483-9.664,11.426-13.103,4.552-3.168,6.702-9.874,14.0911-8.803-.3.659-.7461,1.487-1.061,2.362-.422,1.17-1.177,2.451.079,3.523,1.313,1.121,2.349.129,3.355-.671,1.764-1.399,3.8301-2.08,5.907-2.906,3.536-1.405,8.035-1.655,9.91-5.694,2.9-6.249,6.454-12.136,9.616-18.237,6.139-11.846,12.078-23.804,18.5271-35.48,4.0909-7.405,8.1-14.899,11.995-22.3651,4.297-8.237,8.818-16.405,12.913-24.777,6.093-12.453,13.328-24.348,19.433-36.795,4.8571-9.903,10.317-19.469,15.337-29.274,5.892-11.509,12.2429-22.782,18.075-34.329,3.563-7.055,7.4451-13.948,11.051-20.983,1.5599-3.044,1.1071-3.448-2.097-4.232-1.813-.444-3.599-.291-5.3829-.138-1.374.117-2.7471.235-4.126.079-6.415-.722-12.8831-.535-19.323-.88-4.873-.262-9.7561-.335-14.644-.335-3.093,0-6.189.0291-9.2841.059" fill="none" stroke-width="0"/></clipPath><linearGradient id="e" x1="-906.149" y1="920.9984" x2="-905.149" y2="920.9984" gradientTransform="translate(-195535.1742 -198979.2106) rotate(180) scale(216.4163 -216.4163)" gradientUnits="userSpaceOnUse"><stop offset="0" stop-color="#e74c17"/><stop offset="1" stop-color="#f7f82c"/></linearGradient><clipPath id="f"><path d="M362.551,185.4196c0,16.34,13.2471,29.588,29.588,29.588s29.587-13.248,29.587-29.588-13.2469-29.587-29.587-29.587-29.588,13.246-29.588,29.587" fill="none" stroke-width="0"/></clipPath><linearGradient id="g" y1="920.9996" y2="920.9996" gradientTransform="translate(-195699.056 -199133.78) rotate(180) scale(216.4163 -216.4163)" xlink:href="#e"/></defs><g id="c"><g clip-path="url(#d)"><rect x="235.3967" y="185.0969" width="354.0183" height="309.3723" transform="translate(-24.0674 648.0397) rotate(-74.7167)" fill="url(#e)" stroke-width="0"/></g><path d="M270.9905,382.5016c-7.848,0-15.7831.742-23.5211-.179-10.902-1.297-21.861-2.168-32.7079-4.244-10.5591-2.022-20.916-4.69-31.171-7.727-9.868-2.922-19.276-7.139-28.3251-12.11-8.7839-4.825-17.049-10.362-24.1499-17.478-11.4441-11.469-19.8781-24.407-20.819-41.281-.643-11.547,2.133-22.184,6.964-32.508,7.587-16.212,19.9009-28.332,33.597-39.296.676-.541,1.45-1.191,2.233-.401.828.835.043,1.544-.515,2.174-7.296,8.231-13.347,17.233-17.5861,27.447-1.605,3.867-2.371,7.92-3.209,11.93-.511,2.45-1.573,4.805-1.418,7.449.868,14.801,5.655,27.817,16.298,38.567,5.483,5.537,11.2831,10.655,17.7841,14.831,11.549,7.421,23.88,13.201,37.193,16.932,5.813,1.628,11.593,3.483,17.486,4.697,9.3101,1.918,18.652,3.572,28.209,4.31,11.27.87,22.479,2.28,33.823,2.226,9.765-.046,19.49-.539,29.2161-1.333,9.8059-.8,19.7159-.674,29.39-2.596,5.418-1.077,10.901-1.491,16.3199-2.436.9871-.1721,2.244-.518,2.9189.595.6051.997-.3529,1.757-.782,2.573-3.354,6.384-7.365,12.41-10.36,18.989-.5239,1.15-1.323,1.806-2.613,2.043-14.6969,2.698-29.4349,4.879-44.3779,5.945-9.9661.71-19.903,1.119-29.877.881" fill="#120ff9" stroke-width="0"/><path d="M338.1083,346.0923c-3.524.493-7.8,1.23-12.1061,1.668-18.4709,1.878-36.969,2.367-55.526,1.344-12.093-.667-24.129-1.798-35.996-4.106-18.594-3.615-36.624-8.955-53.454-18.018-8.6951-4.683-16.498-10.3719-23.4141-17.336-9.3829-9.448-15.0089-20.892-16.2489-34.063-.645-6.846,1.2319-13.711,4.111-20.05,7.827-17.238,20.639-30.114,36.027-40.691,1.922-1.321,3.751-2.776,5.663-4.113.6731-.47,1.5801-1.129,2.274-.292.755.912-.244,1.56-.825,2.081-3.9561,3.545-7.6411,7.338-10.9131,11.532-7.877,10.1-13.277,21.245-13.564,34.2679-.297,13.501,5.306,24.624,14.595,34.145,8.462,8.674,18.6581,14.647,29.724,19.219,14.6061,6.033,29.9041,9.132,45.553,11.214,10.537,1.401,21.109,2.136,31.635,2.169,10.9.034,21.891.32,32.743-.665,11.475-1.041,23.0499-1.74,34.356-4.175,7.868-1.695,15.9661-2.419,23.556-5.35,1.011-.39,2.137-.686,2.978.233.9559,1.044.037,1.961-.463,2.859-3.7581,6.753-7.525,13.501-11.277,20.257-.9701,1.746-2.281,3.123-4.2881,3.521-7.48,1.485-14.9709,2.913-22.464,4.334-.6119.116-1.265.015-2.6759.015" fill="#120ff9" stroke-width="0"/><path d="M300.7462,291.5798c13.9199.155,26.641-.4839,39.25-2.137,14.9349-1.958,29.6069-5.391,43.8789-10.24,5.3981-1.834,10.337-4.956,15.896-6.467,5.6261-1.528,11.261-3.201,17.177-1.5569,1.12.311,2.234.674,3.301,1.129.666.284,1.4301.7,1.449,1.545.027,1.174-1.0399,1.198-1.8159,1.385-8.1421,1.962-15.14,5.891-21.03,11.875-1.677,1.703-3.121,3.597-3.973,5.71-2.022,5.016-6.236,7.059-10.855,8.502-8.903,2.78-17.902,5.303-27.064,7.022-8.108,1.522-16.3101,2.748-24.526,3.451-13.193,1.129-26.406,2.413-39.677,2.003-14.728-.455-29.3451-1.859-43.8671-4.603-14.803-2.798-28.9399-7.381-42.281-14.274-12.6219-6.521-22.955-15.544-29.226-28.636-2.5181-5.258-2.749-10.853-2.314-16.487.755-9.797,5.198-18.042,11.3009-25.478,10.5121-12.805,24.04-21.618,38.665-28.951,2.561-1.284,5.094-2.624,7.66-3.898.848-.421,1.985-.975,2.538.116.597,1.179-.7209,1.587-1.478,2.044-6.7479,4.067-13.1649,8.584-18.657,14.264-8.63,8.924-15.1069,18.876-14.691,31.994.2581,8.112,3.467,15.054,8.6801,21.015,8.816,10.083,20.1899,16.064,32.6219,20.769,10.931,4.137,22.196,6.443,33.5851,8.196,8.776,1.35,17.702,1.993,25.452,1.7079" fill="#120ff9" stroke-width="0"/><path d="M333.085,666.17c-22.598,0-45.182-2.277-67.1261-6.767-21.387-4.377-42.424-10.907-62.526-19.41-19.7379-8.348-38.7739-18.68-56.5809-30.71-17.637-11.916-34.221-25.599-49.294-40.672s-28.756-31.657-40.671-49.294c-12.03-17.806-22.363-36.843-30.711-56.58-8.502-20.102-15.033-41.139-19.409-62.526-4.4901-21.944-6.767-44.528-6.767-67.126s2.277-45.183,6.767-67.126c4.376-21.387,10.907-42.424,19.409-62.527,8.348-19.737,18.681-38.773,30.711-56.58,11.915-17.637,25.599-34.222,40.671-49.294,15.073-15.072,31.657-28.756,49.294-40.671,17.807-12.03,36.843-22.363,56.5809-30.711,20.1021-8.5031,41.139-15.033,62.526-19.409,21.9441-4.491,44.5281-6.767,67.1261-6.767s45.1819,2.276,67.126,6.767c21.387,4.376,42.424,10.9059,62.527,19.409,19.7369,8.348,38.7729,18.681,56.58,30.711,17.6371,11.915,34.222,25.599,49.2941,40.671,15.072,15.072,28.756,31.657,40.671,49.294,12.0299,17.807,22.3629,36.843,30.7109,56.58,8.5021,20.103,15.033,41.14,19.4091,62.527,4.49,21.943,6.767,44.528,6.767,67.126s-2.277,45.182-6.767,67.126c-4.3761,21.387-10.907,42.424-19.4091,62.526-8.348,19.737-18.681,38.774-30.7109,56.58-11.915,17.637-25.599,34.222-40.671,49.294-15.072,15.073-31.657,28.756-49.2941,40.672-17.807,12.03-36.843,22.362-56.58,30.71-20.103,8.503-41.14,15.033-62.527,19.41-21.9441,4.49-44.5281,6.767-67.126,6.767M333.085,4.608C151.962,4.608,4.608,151.962,4.608,333.085s147.3539,328.476,328.477,328.476,328.4769-147.354,328.4769-328.476S514.2079,4.608,333.085,4.608" fill="#009a8a" stroke-width="0"/><path d="M333.085,12.2029C155.866,12.2029,12.204,155.8659,12.204,333.0849s143.662,320.881,320.881,320.881,320.881-143.663,320.881-320.881S510.304,12.2029,333.085,12.2029M333.085,583.8159c-138.4761,0-250.731-112.256-250.731-250.731s112.2549-250.731,250.731-250.731,250.731,112.255,250.731,250.731-112.255,250.731-250.731,250.731" fill="#009a8a" stroke-width="0"/><path d="M76.888,175.784l-1.545-1.049,7.342-10.814,1.544,1.049-2.829,5.414-.524.772-3.988,4.628ZM99.739,175.781l-22.927-3.209,2.726-4.016,19.988,3.301-.917,1.352-10.314-17.552,1.337-1.97,11.549,19.97-1.442,2.124ZM90.288,157.2921l-3.489,3.8929-1.545-1.048,6.03-8.883,1.545,1.049-2.043,4.255-.498.734ZM96.397,174.472l2.36-3.476c4.402,2.989,8.1479,5.532,11.664,7.749l-2.517,3.7079c-3.281-2.397-7.066-4.966-11.507-7.981M107.301,178.771l4.25-5.014,1.545,1.049-7.866,11.586-1.545-1.049,3.092-5.8.524-.772Z" fill="#fff" stroke-width="0"/><path d="M99.9292,143.6384l-1.425-1.207,8.452-9.971,1.425,1.208-3.39,5.082-.604.712-4.458,4.176ZM112.4102,148.4054c-3.667-3.109-7.37-6.248-11.128-9.25l2.897-3.419c3.506,3.156,7.209,6.295,10.948,9.4641l1.78,1.5099c3.668,3.109,7.371,6.248,11.129,9.25l-2.8971,3.418c-3.506-3.155-7.209-6.294-10.9479-9.464l-1.781-1.509ZM124.9312,155.6534l4.4579-4.176,1.4241,1.207-8.451,9.97-1.4249-1.207,3.39-5.082.604-.712Z" fill="#fff" stroke-width="0"/><path d="M150.8566,126.0084l1.777,1.853-1.636,2.475-3.9401-5.7939,2.0551-1.971,4.5499,5.014c-1.0229,3.181-2.895,5.882-5.2529,8.144-6.8051,6.527-16.104,6.004-22.696-.868-6.463-6.738-6.526-16.379.043-22.68,1.8191-1.745,4.5021-3.736,8.053-4.62l4.8201,4.756-2.0551,1.971-5.625-4.178,2.541-1.532,1.9711,2.055c-3.6321.057-6.068,1.293-7.6851,2.8441-4.548,4.363-4.827,11.422,1.474,17.991,6.301,6.569,12.995,6.939,17.678,2.448,1.92-1.842,3.5271-4.483,3.9281-7.908" fill="#fff" stroke-width="0"/><path d="M144.6509,98.5975l-1.087-1.517,10.6221-7.615,1.088,1.517-4.524,4.105-.759.544-5.34,2.966ZM155.5989,106.2575c-2.802-3.908-5.63-7.853-8.545-11.679l3.6421-2.611c2.6329,3.913,5.4609,7.859,8.317,11.842l.8159,1.138c3.345,4.666,6.1741,8.612,9.089,12.438l-3.642,2.611c-2.6331-3.914-5.462-7.859-8.317-11.842l-1.36-1.897ZM158.394,106.5505l-1.2511-1.745,15.9331-11.423,1.252,1.746-15.934,11.422ZM160.5849,87.1755l-1.088-1.518,10.623-7.615,1.088,1.517-4.524,4.105-.7589.544-5.3401,2.967ZM165.9799,116.3325l5.34-2.967,1.088,1.518-10.6229,7.615-1.087-1.518,4.5229-4.104.759-.544ZM171.5319,94.8345c-2.801-3.908-5.629-7.853-8.5449-11.679l3.642-2.611c2.634,3.913,5.4619,7.859,8.318,11.842l1.36,1.897c2.801,3.908,5.629,7.853,8.5439,11.679l-3.642,2.611c-2.6329-3.913-5.4609-7.8589-8.861-12.601l-.816-1.138ZM181.914,104.9095l5.34-2.967,1.088,1.518-10.623,7.615-1.088-1.517,4.524-4.105.759-.544Z" fill="#fff" stroke-width="0"/><path d="M182.8339,72.5927l-.849-1.663,11.639-5.944.849,1.663-5.0851,3.383-.8319.425-5.722,2.136ZM209.2569,89.2357c4.781-2.442,5.812-6.375,2.0121-13.816l-7.8761-15.423,2.0791-1.061,8.428,16.503c4.458,8.73,1.874,14.138-3.739,17.004-6.027,3.078-11.821,1.791-15.769-5.941l-2.293-4.489c-2.187-4.282-4.394-8.606-6.7061-12.824l3.9911-2.038c2.0199,4.263,4.2269,8.586,6.4559,12.951l1.677,3.284c3.652,7.15,7.5,8.015,11.74,5.85M204.852,62.1346l-4.8911,1.712-.849-1.663,9.9771-5.095.849,1.663-4.255,2.958-.8309.425Z" fill="#fff" stroke-width="0"/><path d="M224.0668,52.5442l3.101.124-5.527,1.149-.603-1.766,6.625-2.265,26.9501,18.955,1.6,4.682-1.413.483-30.733-21.362ZM224.5709,50.8432l2.812,1.012,9.511,27.826-2.208.755-10.115-29.593ZM230.3278,79.9522l4.411-2.248.8829-.301,5.306-1.074.604,1.767-10.601,3.623-.603-1.767ZM239.1458,45.8612l10.601-3.623.604,1.767-4.1909,2.172-.8831.302-5.527,1.149-.604-1.767ZM243.7839,44.2762l2.209-.7549,10.22,29.902-2.963-1.454-9.4659-27.6931Z" fill="#fff" stroke-width="0"/><path d="M281.3006,36.8899l-.231-1.853,12.9711-1.611.23,1.853-5.936,1.443-.926.115-6.108.053ZM300.4516,61.5569c5.326-.662,7.639-4.006,6.609-12.298l-2.135-17.185,2.316-.288,2.285,18.39c1.208,9.727-3.068,13.927-9.321,14.704-6.7169.834-11.7219-2.354-12.793-10.97l-.621-5.002c-.593-4.772-1.191-9.589-1.9231-14.343l4.447-.552c.442,4.696,1.04,9.513,1.645,14.377l.454,3.659c.99,7.968,4.312,10.095,9.037,9.508M305.5667,34.5809l-5.182-.062-.2301-1.853,11.1171-1.381.23,1.853-5.009,1.328-.9259.115Z" fill="#fff" stroke-width="0"/><path d="M323.4202,60.0252l4.9141-.603.934.019,5.353.806-.037,1.867-11.201-.222.037-1.867ZM326.9142,32.1292l2.871,1.177-5.5869-.811.037-1.867,7.001.139,18.84,27.031-.098,4.947-1.4929-.0291-21.571-30.587ZM327.9693,30.7022l2.296,1.913-.5811,29.402-2.334-.046.619-31.269ZM343.3703,31.0072l11.2.222-.037,1.866-4.6801.608-.934-.018-5.5859-.811.037-1.867ZM348.2703,31.1042l2.3329.046-.625,31.595-2.287-2.38.5791-29.261Z" fill="#fff" stroke-width="0"/><path d="M370.1011,62.0671l5.92,1.504-.249,1.85-12.953-1.744.249-1.85,6.108.116.9249.124ZM366.7432,34.5331l.2489-1.851,12.953,1.744-.2489,1.851-6.1071-.116-.926-.125-5.9199-1.503ZM369.4562,47.6151c.642-4.765,1.2889-9.576,1.792-14.36l4.4409.598c-.7679,4.654-1.416,9.465-2.069,14.323l-.312,2.313c-.641,4.765-1.2889,9.576-1.792,14.359l-4.441-.598c.7681-4.653,1.416-9.464,2.0701-14.322l.311-2.313Z" fill="#fff" stroke-width="0"/><path d="M396.8134,40.1294l-5.717-2.149.452-1.812,12.228,3.054-.509,2.038-5.548-.905-.906-.226ZM394.2204,36.8354l4.348,1.086,2.6331,27.985-.951-.237,15.119-23.552,2.4459.611-18.028,28.069-1.812-.452-3.755-33.51ZM414.4305,44.5294l-4.415-1.584.509-2.038,10.4609,2.613-.453,1.811-5.196-.576-.9059-.226Z" fill="#fff" stroke-width="0"/><path d="M427.8719,76.4801l-.9401,2.389-6.0809-2.394.684-1.737,5.903,1.571.4341.171ZM431.1329,62.4631c1.761-4.473,3.5389-8.99,5.17-13.515l4.1699,1.641c-1.858,4.336-3.636,8.853-5.431,13.413l-.6499,1.651c-1.9661,4.995-3.745,9.512-5.375,14.037l-4.17-1.642c1.8569-4.335,3.635-8.852,5.431-13.413l.855-2.172ZM446.6539,77.7031l-3.348,7.612-16.374-6.446.855-2.172,14.854,5.848-2.809,1.402,4.389-7.201,2.433.957ZM431.6229,49.1121l.684-1.737,6.0811,2.393-.941,2.389-.434-.171-5.39-2.874ZM442.2018,68.8781l-9.816-3.864.7871-1.998,9.8159,3.864-.787,1.998ZM450.4189,54.5042l1.099,2.942-13.985-5.506.855-2.172,15.505,6.104-2.739,7.851-2.432-.957,1.697-8.262ZM441.4279,66.7671l2.464-4.348,1.954.77-4.052,10.2939-1.9551-.77,1.2471-5.077.342-.869Z" fill="#fff" stroke-width="0"/><path d="M459.0541,90.3861l5.036,3.458-.874,1.65-11.552-6.115.874-1.65,5.6909,2.22.8251.437ZM463.4461,76.6021c2.249-4.25,4.52-8.54,6.646-12.855l3.9609,2.097c-2.396,4.225-4.5359,8.268-7.1129,13.136l-.655,1.238c-2.468,4.661-4.739,8.952-6.865,13.267l-3.96-2.097c2.329-4.101,4.601-8.392,6.8939-12.723l1.092-2.063ZM465.1931,77.7911l5.157,2.73c4.4561,2.358,7.868,1.101,9.6361-2.241,1.835-3.465.9829-6.346-3.3081-8.617l-5.61-2.97,1.004-1.898,5.652,2.992c6.312,3.342,8.6061,7.989,6.182,12.568-1.856,3.507-6.302,5.22-11.947,2.813l.2991-.264c2.817,1.861,3.912,4.183,3.0599,8.486l-1.604,7.918-.864-1.46,3.9871,2.744-.873,1.65c-.8739-.145-1.9509-.504-3.189-1.16-2.558-1.353-3.322-2.603-2.813-4.763l1.869-7.62c.943-3.779-.277-5.164-3.701-6.977l-3.9199-2.075.9829-1.856ZM465.4232,63.3881l.8739-1.65,5.775,3.057-1.2009,2.269-.4121-.218-5.0359-3.458Z" fill="#fff" stroke-width="0"/><path d="M500.0871,110.4297c1.7629-2.47,1.0669-4.629-1.316-8.28l-1.037-1.6c-2.791-4.286-3.8781-8.388-1.1121-12.263,3.118-4.3701,8.702-4.399,13.527-.955,2.546,1.817,3.99,4.052,4.7561,6.434l-3.7531,4.776-2.28-1.627,3.031-6.496,1.537,2.989-1.356,1.9c-.5601-3.153-1.505-4.802-3.519-6.239-2.963-2.115-6.262-2.233-8.296.616-1.709,2.394-1.1539,4.911.8601,7.955l1.075,1.627c3.6331,5.517,3.998,9.104,1.449,12.676-3.2,4.483-8.9139,4.5341-14.119.819-2.85-2.034-4.9729-4.925-5.934-7.274l4.024-5.157,2.2799,1.627-3.188,6.556-1.71-2.826,1.301-1.824c1.136,3.391,1.885,5.073,4.469,6.917,3.609,2.576,7.1959,2.613,9.311-.351" fill="#fff" stroke-width="0"/><path d="M512.9029,126.9842l4.124,4.506-1.224,1.411-9.871-8.567,1.224-1.41,5.042,3.449.705.611ZM520.295,114.5492c3.151-3.631,6.333-7.298,9.3779-11.021l3.385,2.937c-3.196,3.4691-6.3779,7.136-9.59,10.838l-1.53,1.762c-3.151,3.632-6.333,7.298-9.3781,11.021l-3.3849-2.937c3.1959-3.469,6.3779-7.135,9.59-10.837l1.53-1.763ZM525.206,102.1241l1.224-1.41,9.871,8.566-1.224,1.41-5.042-3.448-.7051-.612-4.1239-4.506Z" fill="#fff" stroke-width="0"/><path d="M533.3361,146.7515l3.949,5.253-1.365,1.275-9.558-10.234,1.364-1.275,4.973,4.298.637.683ZM541.9881,135.1575c3.5131-3.282,7.061-6.596,10.479-9.98l3.0591,3.275c-3.541,3.116-7.0891,6.429-10.671,9.775l-1.7051,1.593c-3.5139,3.282-7.062,6.595-10.48,9.979l-3.058-3.275c3.541-3.115,7.088-6.429,10.67-9.774l1.7059-1.593ZM544.7082,120.2895l3.1389-.058-7.0909,4.58-1.7841-1.911,6.327-5.398,17.396,18.626-5.817,5.944-1.785-1.911,5.0531-6.762-.2721,3.128-15.1659-16.238Z" fill="#fff" stroke-width="0"/><path d="M555.1974,173.4558l3.252,5.711-1.514,1.091-8.188-11.361,1.515-1.091,4.389,4.892.546.758ZM562.9744,164.6868l2.4559,3.408c-4.317,3.111-7.991,5.758-11.2789,8.301l-2.62-3.636c3.376-2.261,7.088-4.935,11.443-8.073M560.5984,167.3768l10.875-20.438,2.8379,3.939-9.954,17.645-.955-1.326,20.024-3.671,1.392,1.932-22.72,4.002-1.5-2.083ZM568.4304,145.9098l1.515-1.091,7.641,10.603-1.515,1.092-4.116-4.514-.545-.757-2.98-5.333ZM581.2075,164.8378l-2.4611-4.613,1.515-1.092,6.276,8.711-1.514,1.091-3.298-3.377-.5179-.72Z" fill="#fff" stroke-width="0"/><path d="M234.8106,614.8181c.153.296.205.504.155.621-.067.158-.2571.17-.572.037l-31.5179-13.333c-.8251-.349-2.031-.674-2.816-.681l-.485-1.92c.949.495,1.8989.989,2.802,1.371l5.856,2.477,7.697-18.196c.681-1.611,1.733-4.316,2.27-5.804l1.543,2.923,13.951,5.902,1.934-1.175,1.7109,2.855c.1691.257.2201.464.1541.622-.05.117-.218.185-.5031.204l-1.5409.136-8.6271,20.396,3.772,1.596,2.576-1.598,1.641,3.567ZM246.4736,586.8101c.1521.296.2201.464.171.582-.067.157-.3359.136-.818.071-1.256-.207-2.745.136-6.368,1.8l-.3719-.435,3.5341-2.768-26.488-11.204c-.911,1.607-2.0541,2.884-3.468,3.49-.576.266-1.272.157-1.822-.075-.668-.283-1.1799-.824-1.014-1.217.1991-.472.5061-.759,1.676-1.005,1.926-.39,3.573-1.547,5.376-4.166l.5901.249c-.266.629-.5491,1.297-.854,1.909l25.9769,10.989,2.2521-1.272,1.6279,3.052ZM224.9346,610.4551l3.059-7.231-14.855-6.284-3.059,7.231,14.855,6.284ZM228.3596,602.3591l2.6101-6.17-14.8551-6.283-2.61,6.17,14.855,6.283ZM231.3347,595.3251l2.5439-6.013-14.855-6.284-2.5441,6.013,14.8551,6.284ZM228.1777,572.1211c2.6389,2.414,4.101,4.654,4.0499,5.651-.005.23-.071.387-.1539.584-.3661.864-1.3051,1.44-1.8551,1.207-.4719-.199-.562-.423-.5559-1.532.027-1.379-.295-3.137-1.9031-5.577l.4181-.333Z" fill="#fff" stroke-width="0"/><path d="M301.2546,609.4792c2.0969,5.716,7.6489,9.8,12.475,10.725l-.166.58c-1.818-.251-2.866.164-3.549,1.06-.1021.115-.1991.188-.3251.171-.127-.018-.2059-.072-.321-.174-5.3569-4.875-7.313-7.557-8.8319-12.462l-10.863-1.5c-.959,1.332-2.172,2.629-3.506,3.866l1.49,1.067,13.7369,1.898.7931-.752,1.33,1.906c.109.145.14.235.134.277-.012.085-.0601.121-.506.232l-.9751,7.059c-.443,3.212-.4579,3.942-.594,5.862l-.0409.296c-.0811.591-.274.737-1.2141.995-.4459.111-.7109.16-.88.137-.2539-.035-.267-.252-.22-.591l.338-2.451-14.16-1.956-.3379,2.452c-.123.888-1.576,1.118-1.9141,1.071-.296-.041-.345-.306-.252-.983l.058-.422c.429-2.482.734-4.379,1.067-6.788l1.156-8.369c-3.239,2.869-7.295,5.411-11.577,7.102l-.274-.511c6.301-3.524,10.918-7.323,14.319-11.677l-7.2699-1.004c-.8871-.123-2.136-.123-2.896.073l-.967-1.727c1.045.231,2.09.461,3.062.595l8.707,1.203c.8459-1.132,1.672-2.44,2.522-3.916l-6.636-.917c-.8871-.122-2.136-.122-2.896.074l-.967-1.727c1.045.23,2.09.461,3.062.595l7.9039,1.092c.634-1.162,1.286-2.45,1.9071-3.829l-9.9331-1.372c-.8879-.122-2.137-.122-2.896.074l-.9679-1.727c1.0449.23,2.09.461,3.0619.595l11.1171,1.535c.86-1.862,1.707-3.942,2.4821-6.118l2.8259,1.682c.2421.12.3571.222.339.349-.011.084-.15.151-.427.285-1.452.532-1.5959.642-1.799,1.173-.441,1.016-.8781,1.99-1.35,2.915l14.033,1.938,1.964-2.054,2.082,2.699c.297.343.437.578.4199.704-.0239.169-.283.177-.7059.118l-18.175-2.51c-.658,1.331-1.3519,2.613-1.9919,3.817l12.807,1.769,1.947-1.928,2.0459,2.652c.218.288.322.475.3041.602-.0171.126-.198.188-.579.135l-16.9911-2.347c-.85,1.477-1.683,2.826-2.48,3.922l19.401,2.68,2.0131-1.79,2.142,2.579c.255.337.401.529.389.614-.0171.126-.2351.139-.6571.081l-12.3429-1.704ZM299.6885,626.7502l.723-5.241-14.1591-1.956-.724,5.242,14.16,1.955ZM300.5406,620.5792l.683-4.945-14.16-1.956-.683,4.945,14.16,1.956Z" fill="#fff" stroke-width="0"/><path d="M384.9732,601.1458c.1851.106.286.222.296.307.016.127-.106.185-.27.248-1.673.38-2.499,1.342-5.1329,5.41l-.535-.148,1.825-5.043-29.1749,3.622c.536,4.32-1.254,5.832-2.61,6-.635.079-1.1371-.16-1.2161-.795-.058-.466.17-1.053.9811-1.799,1.313-1.195,1.802-3.147,1.63-6.265l.5929-.073c.1741.709.342,1.376.4641,2.006l18.547-2.302c2.407-4.513,3.8539-7.746,4.9099-11.016l2.8091,1.157c.45.159.641.307.656.434.021.17-.1801.281-.588.46-.9.37-1.212.624-2.192,2.078l-4.621,6.766,9.3159-1.157,1.266-1.92,3.047,2.03ZM386.2053,615.5688c.5179.366.761.593.787.805.021.169-.264.291-.8151.359l-16.599,2.061.972,7.834c.321,2.583-.368,3.614-2.91,4.962-.079.053-.1639.063-.2479.074-.17.021-.265-.053-.291-.265-.248-1.302-1.676-2.071-5.238-2.36l.001-.688c2.551.114,4.149.173,5.165.047,1.4821-.184,1.631-.719,1.5-1.777l-.941-7.58-14.3979,1.787c-.889.111-2.0959.433-2.7791.818l-1.38-1.419c1.0691-.047,2.1381-.094,3.1121-.215l15.329-1.903c-.2999-2.413-.484-3.551-.626-4.351l2.571.971,4.5409-5.68-15.1599,1.882c-.889.11-2.0961.432-2.7791.818l-1.38-1.42c1.069-.047,2.1381-.093,3.1121-.214l16.1339-2.003,1.615-1.534,2.317,1.691c.4231.291.619.482.629.566.021.17-.064.18-.699.259-1.101.137-3.124,1.506-7.653,5.895.0959.074.1489.154.1539.196.021.169-.0959.27-1.017.814l.231,1.863,12.365-1.535,1.6801-2.745,2.698,1.987ZM352.9052,594.9788c3.64,1.612,5.803,3.106,6.348,4.372.068.206.137.413.163.625.1421,1.143-.531,2.301-1.0389,2.364-.5081.063-.863-.366-1.1691-1.445-.58-1.906-2.299-3.972-4.626-5.403l.323-.513ZM362.3233,592.2188c2.793,2.061,4.5959,3.772,5.1349,4.995.0631.164.1321.371.1531.54.142,1.144-.6851,2.45-1.447,2.545-.381.047-.709-.514-.814-1.361-.2001-1.609-1.6901-4.606-3.535-6.312l.5081-.407Z" fill="#fff" stroke-width="0"/><path d="M427.2267,580.5856c.2061.055.333.142.365.221.0481.119.0011.23-.189.445-.775.818-1.0339,1.429-1.08,2.229l-.635,8.813c5.173,2.332,7.611,4.615,8.4249,6.634,1.4031,3.483-1.725,7.136-1.7639,7.152-.1591.064-.286-.023-.4611-.229-.7629-.98-2.15-1.341-4.5499-1.018l-.1531-.721c1.212-.074,2.265-.315,3.057-.634,2.4141-.973,2.394-2.621,1.8201-4.046-.75-1.86-2.792-4.073-7.2521-6.692l-.637-10.371-5.462,2.201,9.188,22.797c1.212,3.008,2.448,5.96,3.2841,7.693l.1119.277c.271.673.161.856-.401,1.404-.3319.318-.5769.509-.7749.588-.276.112-.436-.054-.6271-.529-.064-.158-.104-.372-.2-.609-.822-2.383-2.2571-5.945-3.167-8.201l-8.0071-19.868c-.6539-1.623-1.817-4.282-2.4869-5.715l3.323,1.054,4.3929-1.771.573-2.117,3.307,1.013ZM450.7067,575.2636c.2771.118.437.284.469.363.0631.159-.095.222-.214.27-1.4089.384-2.4049,1.338-3.8939,4.606l-.6421-.109.703-3.734-14.881,5.997c.687,1.932.7461,3.564.17,4.532-.441.73-.837,1.12-1.233,1.279-.4349.176-1.291.107-1.4979-.408-.16-.396-.0271-1.093.5959-2.173.718-1.301.799-3.496-.047-6.053l.514-.208c.4779.728.86,1.448,1.147,2.161l14.644-5.902.969-2.047,3.1969,1.426ZM457.9047,594.9516c1.525,4.354,2.802,4.668,3.1431,4.714.285.023.412.11.476.268.016.04.047.119.024.175-.183,2.742-1.0441,3.687-5.5961,5.521-3.9969,1.611-4.6799,1.058-5.605-1.237l-4.7529-11.794-4.473,1.802c3.7729,9.475,3.149,13.177-5.422,20.45l-.5-.443c6.866-7.506,7.818-10.052,4.142-19.289l-1.7419.702c-.8311.335-1.915.956-2.4761,1.504l-1.698-1.018c1.021-.32,2.042-.639,2.953-1.006l14.999-6.045.786-2.617,2.816,1.165c.444.189.682.323.746.482.064.158-.118.277-.514.437l-7.8359,3.158,4.609,11.438c.511,1.266.6379,1.583,3.4879.435,3.285-1.324,3.958-1.596,1.8401-8.563l.5929-.239ZM449.8317,583.0236c.333.141.516.252.5631.371.064.158-.118.277-.4741.421l-12.2289,4.929c-.832.334-1.916.955-2.4771,1.504l-1.698-1.018c1.021-.32,2.043-.639,2.953-1.006l9.8149-3.956.802-2.347,2.745,1.102ZM433.7698,573.7626c4.6349-.028,5.7339,1.784,5.9409,2.298.3511.871.116,2.116-.715,2.451-.6331.255-1.141-.093-1.604-1.24-.335-.831-1.947-2.436-3.7-3.018l.078-.491Z" fill="#fff" stroke-width="0"/><g clip-path="url(#f)"><rect x="355.7983" y="149.08" width="72.6802" height="72.6803" transform="translate(109.9111 514.815) rotate(-74.7167)" fill="url(#g)" stroke-width="0"/></g><path d="M264.046,516.3096h10.8561v-6.147h2.4249v6.147h10.969v12.859h-2.3119v-1.523h-8.6571v10.49h-2.4249v-10.49h-8.5441v1.523h-2.312v-12.859ZM266.358,525.5586h8.5439v-7.162h-8.5439v7.162ZM285.9841,518.3966h-8.657v7.162h8.657v-7.162Z" stroke-width="0"/><path d="M292.6669,511.6852h24.673v26.309h-2.1709v-1.41h-20.3311v1.438h-2.171v-26.337ZM315.169,513.6872h-20.3311v20.895h20.3311v-20.895ZM296.1349,529.6762h7.783v-5.584h-6.796v-1.917h6.796v-3.779h-7.3309v-1.917h16.806v1.917h-7.3881v3.779h6.824v1.917h-6.824v5.584h7.839v1.917h-17.709v-1.917ZM307.471,525.8972l1.579-1.184c1.0339,1.071,1.918,2.077,2.651,3.017l-1.6641,1.269c-.902-1.222-1.7579-2.256-2.5659-3.102" stroke-width="0"/><path d="M346.8354,517.9176c1.917,1.165,3.807,2.434,5.668,3.806l-1.579,2.059c-1.88-1.542-3.6941-2.886-5.443-4.033l1.354-1.832ZM350.3323,526.0946c.752.489,1.522.93,2.312,1.325-1.354,3.365-2.679,6.862-3.976,10.49l-2.3971-1.354c1.485-3.12,2.839-6.607,4.061-10.461M348.2734,510.7266c1.7479,1.184,3.562,2.529,5.442,4.032l-1.5221,1.918c-1.7679-1.579-3.5349-3.017-5.302-4.314l1.3821-1.636ZM353.0954,533.7926h9.0229v-18.639h-7.3311v-2.087h17.511v2.087h-7.8109v18.639h9.052v2.087h-20.444v-2.087Z" stroke-width="0"/><path d="M374.7232,512.0523h27.4089v2.03h-9.1089v4.173h7.98v19.795h-2.255v-1.748h-20.077v1.748h-2.256v-19.795h7.698c.037-1.334.0659-2.725.085-4.173h-9.475v-2.03ZM398.7482,534.2723v-4.907h-5.217c-1.824,0-2.735-1.034-2.735-3.102v-5.978h-4.512c-.188,4.399-2.011,7.877-5.4701,10.434-.47-.583-1.0339-1.185-1.6919-1.805,3.0449-1.992,4.6809-4.869,4.9059-8.629h-5.3569v13.987h20.077ZM386.3692,518.2553h4.427v-4.173h-4.371c-.019,1.504-.0381,2.895-.056,4.173M394.3773,527.3353h4.371v-7.05h-5.725v5.64c0,.94.4519,1.41,1.354,1.41" stroke-width="0"/><path d="M334.1945,525.1868c0,1.131-.9171,2.048-2.0481,2.048s-2.048-.917-2.048-2.048.917-2.048,2.048-2.048,2.0481.917,2.0481,2.048" stroke-width="0"/></g></svg>