<?xml version="1.0" encoding="UTF-8"?><svg id="b" xmlns="http://www.w3.org/2000/svg" xmlns:xlink="http://www.w3.org/1999/xlink" viewBox="0 0 48 48"><defs><clipPath id="d"><rect width="48" height="48" fill="none" stroke-width="0"/></clipPath></defs><g id="c"><g clip-path="url(#d)"><path d="M36.0867,37.2979l.2787-.2789,1.3585,1.4292c.0348.0349.1045.1046.1393.2091.0348.0697.1045.1743.1393.2789.0348.1046.0348.2091.0348.3137s-.0697.244-.1393.3834c-.0697.1394-.1742.244-.2787.3486-.1045.1046-.2438.1743-.3483.244-.1393.0349-.2438.0697-.3832.0697-.1045,0-.209,0-.3135-.0349-.1045-.0349-.1742-.0697-.2438-.1394-.0697-.0697-.1393-.1394-.2438-.2092l-1.3237-1.3943.2787-.2789,1.3237,1.3595c.1045.1046.209.1743.2787.2092.0697.0349.1742.0697.2787.0349.1045,0,.1742-.0349.2787-.1046.0697-.0349.1742-.1046.2438-.1743.1045-.0697.1393-.1743.1742-.244.0348-.0697.0348-.1394.0348-.2092s-.0348-.1394-.0697-.244c-.0348-.0697-.1045-.1743-.209-.2789l-1.2888-1.2898Z" fill="#cb3d37" stroke-width="0"/><path d="M34.9378,38.5528l1.2888,1.3246c.0697.0697.1393.1394.2438.2091l.209.1046c.0697.0348.1742.0348.2787.0348s.209-.0349.3483-.0697c.1045-.0349.209-.1046.3483-.2092.1045-.1046.1742-.2092.2438-.3137.0697-.1046.1045-.244.1045-.3486s0-.2092-.0348-.2789c-.0348-.1046-.0697-.1743-.1045-.2789-.0697-.1046-.1045-.1394-.1393-.1743l-1.3237-1.3595-.1742.1394,1.2192,1.2898c.1045.1046.1742.2091.209.2789.0697.1046.0697.2092.0697.2789s0,.1743-.0697.244c-.0348.0697-.1045.1743-.209.2789-.0697.0697-.1742.1394-.2438.2092-.1045.0697-.1742.1046-.2787.1046s-.209,0-.3135-.0697c-.0697-.0349-.1742-.1394-.2787-.244l-1.254-1.2898-.1393.1394ZM36.8885,40.4003c-.1045,0-.209,0-.2787-.0349-.1045-.0349-.1742-.0697-.2787-.1394-.0697-.0697-.1742-.1394-.2438-.2092l-1.3933-1.4292.3832-.3834,1.3585,1.4292c.1045.1046.1742.1743.2438.2092.0697.0349.1393.0349.209.0349s.1742-.0349.2438-.0697c.0697-.0349.1393-.1046.209-.1743.0697-.0697.1393-.1394.1742-.2091.0348-.0697.0348-.1394.0348-.1743,0-.0697-.0348-.1394-.0697-.2092-.0348-.0697-.1045-.1743-.209-.244l-1.3585-1.3943.3832-.3834,1.4282,1.4641c.0348.0349.1045.1046.1742.2091.0697.0697.1045.1743.1393.2789.0348.1046.0348.244.0348.3486,0,.1394-.0697.2789-.1393.3834-.0697.1394-.1742.244-.2787.3486-.1045.1046-.2438.2092-.3832.244-.1393.0697-.2787.0697-.3832.1046.0348-.0349,0,0,0,0Z" fill="#cb3d37" stroke-width="0"/><path d="M43.5418,24.435c.0348,0,.0697-.0349.1393-.0349.0348,0,.1045-.0349.1393-.0697l.1045-.1046c.0348-.0349.0697-.1046.0697-.1743.0348-.0697.0348-.1394.0348-.244v-.2092c0-.0697-.0348-.1394-.0348-.1743s-.0348-.1046-.0697-.1394l-.1045-.1046c-.0348-.0349-.1045-.0349-.1742-.0349s-.1393,0-.1742.0349c-.0697,0-.1045.0349-.1393.1046-.0348.0349-.0697.1394-.1393.244l-.1045.4183c-.0348.1743-.0697.2789-.1393.3835-.0348.1046-.1045.1743-.1742.244-.0697.0697-.1742.1394-.2787.1743-.1045.0349-.2438.0349-.3832.0349-.1045,0-.209-.0349-.2787-.0697s-.1393-.1046-.1742-.1394c-.0348-.0697-.1045-.1394-.1393-.2091-.0348-.0697-.0697-.1394-.0697-.244-.0348-.0697-.0348-.1743-.0348-.244,0-.1743,0-.3137.0697-.4532.0348-.1046.1045-.2091.1742-.2789.0697-.0697.1393-.1394.209-.1743.0697-.0349.1393-.0697.1742-.1046l.1045-.0349v.3834c-.0348,0-.0697.0349-.1045.0349s-.0697.0349-.1045.0697c-.0348.0349-.0697.0697-.1045.1394-.0348.0697-.0348.1394-.0697.2092v.1743c0,.1046.0348.2091.0697.2789.0348.0697.0697.1394.1045.1743.0348.0349.1045.0697.1393.1046.0348,0,.1045.0349.1742,0,.0697,0,.1393-.0349.1742-.0697.0348-.0349.1045-.0697.1393-.1394.0348-.0349.0697-.1046.1045-.1743.0348-.0697.0697-.1743.1045-.3137s.0697-.2789.1045-.3834c.0348-.1394.0697-.2092.1393-.2789.0348-.0697.1045-.1394.209-.1743l.209-.1046c.0697-.0349.1393-.0349.209-.0349.1393,0,.2787.0349.3483.0697.1045.0349.1742.1046.2438.2091.0697.0697.1045.1743.1393.2789.0348.1046.0348.2092.0697.3486,0,.1394,0,.2789-.0348.3834l-.1045.3137c-.0348.0697-.1045.1743-.1742.2091-.0697.0697-.1393.1046-.209.1394-.0697.0349-.1393.0697-.209.0697l-.1045.0349-.0697-.3486Z" fill="#cb3d37" stroke-width="0"/><path d="M43.6458,24.4702v.244h.0348c.0697,0,.1393-.0349.1742-.0697.0697-.0349.1393-.0697.1742-.1394.0697-.0349.1045-.1046.1393-.2091.0348-.0697.0697-.1743.1045-.2789.0348-.1046.0348-.2092.0348-.3834,0-.1046-.0348-.2091-.0697-.3137-.0348-.1046-.0697-.1743-.1393-.244-.0697-.0697-.1393-.1394-.209-.1743-.0697-.0349-.1742-.0697-.3135-.0697-.0697,0-.1393,0-.1742.0349-.0697,0-.1045.0349-.209.0697-.0697.0349-.1393.0697-.1742.1394-.0348.0697-.1045.1743-.1393.2789-.0348.1046-.0697.244-.1045.3834-.0348.1394-.0697.244-.1045.3137l-.1045.2092c-.0348.0349-.0697.1046-.1393.1394-.0697.0349-.1393.0697-.209.0697s-.1393,0-.209-.0349c-.0697-.0349-.1393-.0697-.1742-.1046-.0348-.0349-.1045-.1046-.1393-.2092-.0348-.0697-.0697-.1743-.0697-.3137v-.2091c0-.0697.0348-.1394.0697-.244.0348-.0697.1045-.1394.1393-.1743.0348-.0349.1045-.0697.1393-.0697h.0348v-.244c-.0348,0-.1045.0349-.1742.0697-.0697.0349-.1393.1046-.1742.1743-.0697.0697-.1045.1743-.1393.2789-.0348.1046-.0697.244-.0348.4183,0,.0697,0,.1394.0348.2092,0,.0697.0348.1394.0697.2091.0348.0697.0697.1394.1045.1743.0348.0697.1045.1046.1393.1394.0697.0349.1393.0697.2438.0697.1393.0349.2787,0,.3483-.0349.1045-.0349.1742-.1046.2438-.1394.0697-.0697.1045-.1394.1742-.2091.0348-.1046.0697-.2091.1045-.3834.0348-.1743.0697-.3137.1393-.4183.0348-.1394.1045-.244.1393-.2789.0348-.0349.1045-.1046.1742-.1046s.1393-.0349.209-.0349.1393,0,.209.0349c.0697.0349.1045.0697.1742.1394.0348.0349.0697.1046.0697.1743.0348.0697.0348.1394.0348.2091v.2091c0,.1046,0,.1743-.0348.244-.0348.0697-.0348.1394-.0697.2091-.0348.0697-.0697.1046-.1393.1394-.0348.0349-.1045.0697-.1393.0697-.0348.0349-.0697.0349-.0697.0349ZM43.5065,24.9234l-.0348-.5577.1045-.0349c.0348,0,.0697,0,.0697-.0349.0348,0,.0697-.0349.1045-.0697.0348-.0349.0697-.0349.1045-.0697.0348-.0349.0348-.0697.0697-.1394,0-.0697.0348-.1394.0348-.2092v-.1743c0-.0697,0-.1046-.0348-.1743,0-.0349-.0348-.1046-.0697-.1394l-.0697-.0697c-.0348,0-.1045-.0349-.1393-.0349-.0697,0-.1045,0-.1393.0349-.0348,0-.0697.0349-.1045.0697-.0348.0349-.0697.0697-.1045.2092l-.1045.4183c-.0348.1743-.0697.3137-.1393.3834-.0348.1046-.1045.2091-.209.2789-.0697.0697-.1742.1394-.3135.1743-.1045.0349-.2787.0697-.4528.0349-.1045,0-.209-.0349-.2787-.1046-.0697-.0349-.1393-.1046-.209-.1743-.0697-.0697-.1045-.1394-.1393-.2091-.0348-.0697-.0697-.1743-.1045-.244-.0348-.1046-.0348-.1743-.0348-.244,0-.1743,0-.3486.0697-.488.0348-.1046.1045-.2092.1742-.3137l.209-.2092.209-.1046.209-.0697.0348.5577-.1393.0697c-.0348,0-.0348.0349-.1045.0349l-.1045.1046c-.0348.0697-.0348.1046-.0348.1743v.1743c0,.1046.0348.1743.0697.244.0348.0697.0697.1046.1045.1394s.0697.0697.1045.0697h.1045c.0697,0,.1045-.0349.1393-.0349l.1045-.1046c.0348-.0349.0697-.1046.0697-.1743.0348-.0697.0697-.1743.1045-.3137.0348-.1394.0697-.2789.1045-.3834.0348-.1394.1045-.244.1393-.3137l.209-.2092c.0697-.0349.1742-.0697.2438-.1046.0697-.0349.1393-.0349.2438-.0349.1742,0,.2787.0349.3832.1046.1045.0349.209.1394.2787.2092.0697.1046.1393.2092.1742.3137.0348.1046.0697.2091.0697.3486,0,.1743,0,.2789-.0348.4183-.0348.1046-.0697.244-.1045.3137-.0697.1046-.1045.1743-.1742.244-.0697.0697-.1393.1046-.209.1394-.0697.0349-.1393.0697-.2438.0697l-.209.2091Z" fill="#cb3d37" stroke-width="0"/><path d="M44.2727,27.2932l-.0348.3834-2.9608-.2789.1045-.976c0-.1394.0348-.244.0697-.3486.0348-.1046.1045-.2092.1742-.2789.0697-.0697.1393-.1046.2438-.1394.1045-.0349.209-.0349.3483-.0349s.2438.0349.3135.1046c.0697.0349.1393.1046.1742.1394l.0697.1046c.0348-.0349.0697-.0349.1045-.0697.0348-.0349.0697-.0349.1393-.0349.0348,0,.1393-.0349.2787-.0349l1.1147-.0697-.0348.4183-1.0798.0697c-.0697,0-.1393.0349-.209.0697-.0697.0349-.1045.0697-.1393.1394-.0348.0349-.0348.1394-.0348.244l-.0348.5229,1.3933.0697ZM41.6602,27.084l.8012.0697.0348-.5229v-.244c0-.0697-.0697-.1394-.1045-.1743-.0697-.0349-.1393-.0697-.2438-.1046h-.1393c-.0348,0-.1045.0349-.1393.0697-.0348.0349-.0697.1046-.1045.1743-.0348.0697-.0348.1394-.0697.244l-.0348.488Z" fill="#cb3d37" stroke-width="0"/><path d="M41.7652,26.9803l.6618.0697.0348-.4532v-.2091c0-.0697-.0348-.1046-.0697-.1394-.0348-.0349-.1045-.0697-.209-.0697h-.1393c-.0348,0-.0697.0349-.1045.0697-.0348.0349-.0697.0697-.0697.1394-.0348.0697-.0348.1394-.0348.2091l-.0697.3835ZM42.5663,27.2243l-.9753-.1046.0348-.5577c0-.1046.0348-.1743.0697-.244.0348-.0697.0697-.1394.1393-.2091.0697-.0697.1045-.1046.1742-.1046.0348,0,.1045-.0349.1742-.0349.1393,0,.2438.0349.3135.1046.0697.0697.1045.1394.1393.244.0348.0697.0348.1743,0,.2789l-.0697.6274ZM41.3472,27.3638l2.7866.244.0348-.2091-1.3933-.1394.0697-.5926c0-.1046.0348-.2092.0697-.2789.0348-.0697.0697-.1046.1742-.1743.0697-.0349.1393-.0697.2438-.0697l1.0102-.0349.0348-.244-1.0102.0697c-.1393,0-.209.0349-.2438.0349s-.0697.0349-.1045.0349l-.0348.0349-.0348.0349-.0697.0349-.1393-.1394c-.0348-.0349-.1045-.1046-.1742-.1394-.0697-.0349-.1742-.0697-.2787-.1046h-.3135c-.1045.0349-.1742.0697-.209.1394-.0697.0697-.1045.1394-.1393.244-.0348.1046-.0697.2092-.0697.3137l-.209.9412ZM44.308,27.7821l-3.135-.2789.1045-1.0457c0-.1394.0348-.244.1045-.3834.0348-.1046.1045-.2092.1742-.2789.0697-.0697.1742-.1394.2787-.1743.1045-.0349.2438-.0349.3832-.0349s.2787.0697.3483.1046c.0697.0349.1742.1046.209.1743l.0348.0349.0348-.0349c.0348-.0349.0697-.0349.1393-.0697.0697,0,.1742-.0349.2787-.0349l1.1843-.0697-.0697.5577-1.1495.0697c-.0697,0-.1045.0349-.1742.0349-.0348.0349-.0697.0349-.1045.0697,0,.0349-.0348.0697-.0348.2091l-.0348.4183,1.3933.1394.0348.5926Z" fill="#cb3d37" stroke-width="0"/><path d="M42.148,14.884l.1742.3834-1.254.5926-1.0102,1.6035-.1742-.3834.7315-1.2549-1.3933-.1394-.209-.4183,1.9158.2092,1.2192-.5926Z" fill="#cb3d37" stroke-width="0"/><path d="M39.9538,17.0796l.1045.244.9405-1.5338,1.1843-.5577-.1045-.244-1.1843.5577-1.7765-.1743.1045.244,1.4978.1394-.7663,1.3246ZM40.0583,17.6374l-.2787-.5926.6967-1.1503-1.3237-.1394-.2787-.5926,2.0203.2091,1.2888-.5926.2438.5229-1.2888.5926-1.0798,1.7429Z" fill="#cb3d37" stroke-width="0"/><path d="M41.2773,20.2178l-.3832.1046-.5922-2.0218.3832-.1046.2438.8366,2.4732-.732.1393.4183-2.508.6972.2438.8018Z" fill="#cb3d37" stroke-width="0"/><path d="M40.406,18.3697l.5573,1.8475.209-.0697-.2438-.7669,2.4731-.732-.0697-.244-2.4732.732-.2438-.8366-.209.0697ZM40.824,20.4264l-.627-2.1961.5225-.1743.2438.8366,2.4732-.732.1742.5577-2.4731.732.2438.7669-.5573.2091Z" fill="#cb3d37" stroke-width="0"/><path d="M41.058,21.373l.0619.3784,2.9564-.4844-.0619-.3784-2.9564.4844Z" fill="#cb3d37" stroke-width="0"/><path d="M41.173,21.4373l.0348.2092,2.7866-.4532-.0348-.2091-2.7867.4532ZM41.0685,21.8556l-.1045-.5577,3.1002-.5229.1045.5577-3.1001.5229Z" fill="#cb3d37" stroke-width="0"/><path d="M42.3225,28.5485l.3832.0697-.2787,1.1155.9753.2092.2787-1.22.3832.1046-.3832,1.6383-2.926-.6972.3832-1.6035.3832.0697-.2787,1.22.8012.2091.2787-1.1155Z" fill="#cb3d37" stroke-width="0"/><path d="M40.8592,29.7332l2.7518.6274.3483-1.464-.209-.0349-.2787,1.22-1.1147-.244.2438-1.1155-.209-.0349-.2438,1.1155-.9753-.2092.2787-1.22-.209-.0349-.3832,1.3943ZM43.7503,30.5349l-3.0653-.6972.418-1.7778.5573.1394-.2787,1.22.6618.1394.2438-1.1155.5573.1394-.2438,1.1155.8012.1743.2787-1.22.5573.1394-.4877,1.7429Z" fill="#cb3d37" stroke-width="0"/><path d="M42.8098,32.8012l-3.1698-.1046.1393-.4183,2.4035.1046-1.8113-1.5686.1393-.4183,2.4035,2.1264-.1045.2789Z" fill="#cb3d37" stroke-width="0"/><path d="M39.7448,32.6274l2.9956.1046.0697-.1743-2.2293-1.9869-.1045.244,1.9507,1.7081-2.5776-.1046-.1045.2091ZM42.845,32.8714l-3.344-.1046.209-.5926,2.2293.1046-1.672-1.464.209-.5577,2.508,2.2309-.1393.3834Z" fill="#cb3d37" stroke-width="0"/><path d="M41.6956,35.032l-.209.3486-2.5777-1.4641.1742-.3486,2.6125,1.4641Z" fill="#cb3d37" stroke-width="0"/><path d="M39.0128,33.8823l2.4731,1.3943.1045-.2091-2.4731-1.3943-.1045.2092ZM41.5208,35.4858l-2.7518-1.5338.2787-.488,2.7518,1.5338-.2787.488Z" fill="#cb3d37" stroke-width="0"/><path d="M37.7242,36.7404l1.8113,1.3246-.2438.3137-2.3686-1.7778.2438-.3137,2.5428.2091-1.7417-1.3246.2438-.3137,2.3686,1.8126-.209.2789-2.6473-.2092Z" fill="#cb3d37" stroke-width="0"/><path d="M37.0278,36.5655l2.2293,1.6732.1393-.1743-1.9507-1.4641,2.8912.244.1393-.2091-2.2293-1.6732-.1393.1743,1.881,1.4292-2.7867-.2091-.1742.2091ZM39.292,38.4827l-2.508-1.8824.3135-.4183,2.299.1743-1.5675-1.1852.3483-.4532,2.508,1.8823-.3135.4183-2.4035-.2091,1.6372,1.22-.3135.4532Z" fill="#cb3d37" stroke-width="0"/><path d="M12.8186,38.2391l.2787.2789-1.3236,1.4292c-.0348.0349-.1045.1046-.209.1743-.0697.0697-.1742.1046-.2787.1394-.1045.0349-.209.0697-.3135.0349-.1045,0-.2438-.0349-.3832-.1046-.1393-.0697-.2438-.1394-.3483-.244-.1045-.1046-.209-.2091-.2438-.3486-.0697-.1394-.1045-.244-.1045-.3486v-.3137c.0348-.1046.0697-.1743.1045-.244.0348-.0697.1045-.1743.209-.244l1.3237-1.4292.2787.2789-1.2888,1.3943c-.1045.1046-.1742.2092-.209.2789-.0348.0697-.0348.1743-.0348.2789s.0697.1743.1045.244l.209.2091c.1045.0697.1742.1394.2438.1743.0697.0349.1393.0349.209.0349s.1393-.0349.2438-.1046c.0697-.0349.1742-.1046.2438-.2092l1.2888-1.3595Z" fill="#cb3d37" stroke-width="0"/><path d="M11.5298,37.159l-1.254,1.3595c-.0697.0697-.1393.1743-.1742.244l-.1045.2092c-.0348.0697-.0348.1743,0,.2789,0,.1046.0348.2092.1045.3486.0697.1046.1393.2092.2438.3137.1045.1046.209.1743.3483.244.1393.0697.2438.1046.3483.1046s.209,0,.2787-.0349c.1045-.0349.1742-.0697.2438-.1394.0697-.0349.1393-.1046.1742-.1394l1.2888-1.3943-.1742-.1394-1.2192,1.2898c-.1045.1046-.1742.1743-.2787.244-.1045.0697-.1742.1046-.2787.1046-.0697,0-.1742,0-.2438-.0348-.0697-.0349-.1742-.1046-.2787-.1743-.0697-.0697-.1393-.1394-.209-.244-.0697-.1046-.1045-.1743-.1045-.2789-.0348-.1046,0-.2092.0348-.3137.0348-.1046.1045-.2092.209-.3137l1.2192-1.3246-.1742-.2091ZM11.0421,40.4008h-.0697c-.1045,0-.2438-.0349-.418-.1046-.1393-.0697-.2787-.1743-.3832-.2789-.1045-.1046-.209-.244-.2787-.3835-.0697-.1394-.1045-.2789-.1045-.3834,0-.1394,0-.244.0348-.3486.0348-.1046.0697-.1743.1045-.2789.0697-.0697.1393-.1743.209-.244l1.3585-1.4641.418.3834-1.3237,1.464c-.1045.1046-.1393.1743-.1742.2789-.0348.0697-.0348.1394-.0348.2092s.0348.1394.1045.2092c.0697.0697.1045.1394.1742.2091.1045.0697.1742.1394.209.1394.0697.0349.1393.0349.1742.0349.0697,0,.1393-.0349.209-.0697.0697-.0349.1742-.1046.2438-.2092l1.3237-1.4292.418.3835-1.3933,1.4989c-.0697.0697-.1393.1046-.209.1743-.0697.0697-.1742.1046-.2787.1394-.1045.0349-.209.0697-.3135.0697Z" fill="#cb3d37" stroke-width="0"/><path d="M10.3803,35.6593c.1393.1743.209.3486.209.5926.0348.244-.0348.4532-.1393.6972-.1393.244-.2787.4532-.4877.5926-.209.1743-.4528.2789-.6967.3137-.2438.0697-.4877.0349-.6967-.0349-.209-.0697-.3832-.2092-.5225-.3486-.1393-.1743-.209-.3834-.209-.5926,0-.244.0348-.4532.1393-.6972.1045-.244.2787-.4183.4877-.5926.209-.1743.4528-.2789.6967-.3486.2787-.0697.5225-.0349.7315.0349.1742.1046.3483.2092.4877.3834ZM10.0668,35.9033c-.0697-.1046-.209-.1743-.3483-.244-.1393-.0349-.3135-.0349-.5225,0-.1742.0697-.3483.1394-.5225.244-.1393.1046-.2787.244-.3483.4183-.1045.1743-.1393.3137-.1393.488s.0348.3137.1393.4183c.0697.1046.209.2092.3832.244.1742.0349.3135.0349.5225,0,.1742-.0349.3483-.1394.5225-.244.1393-.1046.2787-.2789.3832-.4532.1045-.1743.1393-.3486.1393-.488-.1045-.1743-.1393-.2789-.209-.3834Z" fill="#cb3d37" stroke-width="0"/><path d="M9.4397,35.6949c-.0697,0-.1742,0-.2438.0349-.1742.0697-.3483.1394-.4877.244-.1393.1046-.2438.244-.3483.3834-.0697.1394-.1393.3137-.1045.4532,0,.1394.0348.2789.1045.3834.0697.1046.1742.1743.3135.2092.1393.0349.3135.0349.4528,0,.1742-.0349.3135-.1046.4877-.244.1393-.1046.2438-.244.3483-.4183.1045-.1743.1393-.3137.1045-.4532,0-.1394-.0348-.2789-.1393-.3486-.0697-.1046-.1742-.1394-.3135-.2092,0,0-.1045-.0349-.1742-.0349ZM8.9173,37.6121c-.1045,0-.1742,0-.2438-.0349-.1742-.0349-.3135-.1394-.418-.2789-.1045-.1394-.1393-.2789-.1393-.4532s.0348-.3486.1393-.5229c.1045-.1743.209-.3137.3832-.4532.1742-.1394.3483-.2092.5573-.2789.209-.0697.3832-.0697.5573,0,.1742.0697.3135.1394.3832.244.1045.1046.1393.2789.1742.4532,0,.1743-.0348.3486-.1393.5577-.1045.1743-.2438.3486-.3832.4532-.1742.1394-.3483.2091-.5225.2789-.1393,0-.2438.0349-.3483.0349ZM9.4397,35.3114c-.1045,0-.209,0-.3135.0349-.2438.0697-.4528.1743-.6618.3137-.209.1743-.3483.3486-.4528.5577-.1045.2091-.1393.4183-.1393.6623,0,.2091.0697.3834.209.5577.1393.1743.2787.2789.4877.3486.209.0697.418.0697.6618.0349.2438-.0697.4528-.1394.6618-.3137.209-.1394.3483-.3486.4877-.5926.1045-.244.1742-.4532.1393-.6623-.0348-.2091-.1045-.3834-.209-.5577-.1045-.1394-.2787-.244-.4877-.3137-.1045-.0697-.2438-.0697-.3832-.0697ZM8.9173,37.9955c-.1393,0-.2787-.0349-.418-.0697-.2438-.0697-.418-.2092-.5573-.3834-.1393-.1743-.209-.4183-.2438-.6623,0-.244.0348-.488.1742-.732.1393-.244.2787-.4532.5225-.6274.209-.1743.4528-.2789.7315-.3486.2787-.0697.5573-.0349.7663.0349.2438.1046.418.2091.5573.3834.1393.1743.209.3834.2438.6274.0348.244-.0348.488-.1742.7669-.1393.244-.3135.4532-.5225.6274-.2438.1743-.4528.2789-.7315.3486-.1045.0349-.2438.0349-.3483.0349Z" fill="#cb3d37" stroke-width="0"/><path d="M6.1306,28.9318c.0697-.0349.1045-.0697.1742-.1046.0697-.0349.1045-.1046.1393-.2091.0348-.1046.0348-.2092.0348-.3834-.0348-.0697-.0348-.1743-.0697-.244-.0348-.0697-.1045-.1394-.1742-.2092-.0697-.0697-.1742-.1046-.2787-.1394s-.209-.0697-.3483-.0697c-.1045,0-.209,0-.3483.0349-.1045.0349-.209.0349-.2787.0697-.1045.0349-.2438.0697-.3483.1394-.1045.0697-.209.1743-.2438.244-.0697.1046-.0697.2092-.1045.3137v.244c0,.0697.0348.1394.0348.2091l.0697.3834.6967-.1394-.1045-.488.418-.1046.1742.8715-1.4978.3137-.1393-.5926c-.0348-.1394-.0697-.3137-.0697-.4532-.0348-.1394,0-.3137,0-.4532.0348-.1743.0697-.3137.1742-.4183.0697-.1046.1742-.2091.2787-.2789.1045-.0697.209-.1394.3483-.1743.1045-.0349.2438-.0697.3832-.1046.1742-.0349.3483-.0349.5225-.0349s.3135.0349.4528.1046c.1393.0697.2438.1046.3135.1743.1045.0697.1742.1743.2438.2789.0697.1046.1393.244.1742.4183.0348.1743.0348.3137,0,.4532-.0348.1394-.0697.244-.1045.3137-.0348.0697-.1045.1394-.1742.2091-.0697.0697-.1393.1046-.209.1394l-.1393.0697v-.3834Z" fill="#cb3d37" stroke-width="0"/><path d="M5.6081,27.2933c-.1742,0-.3135,0-.4528.0349-.1742.0349-.2787.0697-.3832.1046-.1045.0349-.209.1046-.3135.1394-.1045.0697-.1742.1394-.2787.2789-.0697.1046-.1393.244-.1393.3834-.0348.1394-.0348.3137,0,.4532.0348.1394.0348.2789.0697.4532l.1045.488,1.3237-.2789-.1393-.6972-.2438.0697.1045.488-.836.1743-.1045-.5577c0-.0349-.0348-.1046-.0348-.1394v-.2789c0-.1046.0348-.244.1045-.3486.0697-.1046.1742-.2092.2787-.2789.1045-.0697.209-.1394.3483-.1743.0697-.0349.1742-.0349.2787-.0697.1045-.0349.2438-.0349.3483-.0349s.2438.0349.3483.0697c.1393.0349.2438.1046.3135.1394.1045.0697.1393.1394.209.244.0348.0697.0697.1743.1045.244.0348.1743.0348.3137-.0348.4183-.0348.1046-.1045.2092-.1742.244-.0348.0349-.1045.0697-.1393.1046l.0348.244h.0348c.0697-.0349.1045-.0697.1742-.1394.0697-.0697.1393-.1046.1742-.1743.0348-.0697.0697-.1743.1045-.2789.0348-.1046.0348-.244,0-.4183-.0348-.1394-.0697-.2789-.1393-.3834-.0697-.1046-.1393-.1743-.209-.244-.0697-.0697-.1742-.1046-.3135-.1743-.1742-.0697-.3135-.1046-.5225-.1046q.0348,0,0,0ZM4.0755,29.8031l-.1393-.6623c-.0348-.1743-.0697-.3137-.0697-.4532-.0348-.1743,0-.3137,0-.488.0348-.1743.1045-.3137.1742-.4532.1045-.1394.209-.244.3135-.3137.1045-.0697.2438-.1394.3483-.1743.1045-.0349.2438-.0697.418-.1046.1742-.0349.3483-.0349.5225-.0349s.3483.0349.4877.1046c.1393.0697.2438.1394.3483.2091.1045.0697.1742.1743.2438.2789.0697.1394.1393.2789.1742.4532.0348.1743.0348.3486,0,.488-.0348.1394-.0697.244-.1393.3486-.0697.0697-.1045.1743-.209.2092-.0697.0697-.1393.1046-.209.1394l-.209.1046-.1045-.5577.0348-.0349c.0697-.0349.1045-.0697.1742-.1046.0348-.0349.1045-.1046.1045-.1743.0348-.0697.0348-.1743,0-.3137-.0348-.0697-.0348-.1394-.0697-.2092-.0348-.0697-.0697-.1046-.1393-.1743-.0697-.0697-.1393-.1046-.2787-.1394-.1045-.0349-.209-.0349-.3135-.0697-.1045,0-.209,0-.3135.0349-.1045.0349-.209.0349-.2438.0697-.1045.0349-.209.0697-.3135.1394-.1045.0697-.1742.1394-.209.244-.0348.1046-.0697.1743-.0697.2789v.244c0,.0349,0,.1046.0348.1394l.0697.3834.5225-.1046-.1045-.488.5573-.1394.209,1.0458-1.6023.2789Z" fill="#cb3d37" stroke-width="0"/><path d="M7.2452,17.0452c.0348,0,.0697.0349.1045.0349h.1742c.0697,0,.1393-.0349.209-.1046.0697-.0697.1393-.1394.1742-.2091.0697-.1394.1045-.2789.1045-.4183s-.0348-.244-.1045-.3486c-.0697-.1046-.1393-.2092-.2438-.2789-.1045-.0697-.209-.1394-.3483-.244-.1393-.0697-.2787-.1394-.3832-.1743-.1045-.0349-.2438-.0349-.3483-.0349s-.2438.0697-.3483.1394c-.1045.0697-.209.1743-.2787.3137-.0697.1046-.1045.244-.1045.3486s0,.2092.0348.2092l.209.2091-.209.3486c-.0348-.0349-.0697-.0697-.1393-.0697-.0348-.0349-.1045-.0697-.1742-.1743-.0697-.0697-.1045-.1743-.1393-.3137-.0348-.1394-.0348-.2789,0-.3834.0348-.1394.0697-.2789.1742-.4183.0697-.1394.1742-.2789.3135-.3834.1393-.1046.2787-.1743.4528-.244.1742-.0349.3135-.0349.4877,0,.1742.0349.3135.0697.418.1046.1045.0349.209.1046.3135.1743.1393.0697.2787.1743.3832.2789.1045.1046.209.2092.2787.3486.0697.1394.1045.2789.1393.4183.0348.1394,0,.2789-.0348.4183-.0348.1394-.1045.2789-.1742.4183-.1045.2091-.2438.3137-.3483.3835-.1393.0697-.2438.1046-.3483.1046s-.209,0-.3135-.0349l-.1045-.0349.1742-.3835Z" fill="#cb3d37" stroke-width="0"/><path d="M7.1755,17.3587c.1045.0349.209.0697.3135.0349.1045,0,.209-.0349.3135-.1046.1045-.0697.209-.1743.3135-.3486.0697-.1046.1045-.244.1393-.3834.0348-.1394.0348-.2789.0348-.3834-.0348-.1046-.0697-.244-.1393-.3834-.0697-.1394-.1393-.244-.2438-.3486-.1045-.1046-.2438-.1743-.3832-.244-.1045-.0697-.209-.1046-.3135-.1394-.1045-.0349-.209-.0697-.3832-.1046-.1393-.0349-.3135-.0349-.4528,0-.1393.0349-.2787.1046-.418.2092-.1393.1046-.209.2092-.2787.3486-.0697.1394-.1393.244-.1393.3834-.0348.1394-.0348.244,0,.3486.0348.1046.0697.2092.1045.2789.0697.0697.1045.1046.1742.1394.0348,0,.0348.0349.0697.0349l.1045-.2092-.1742-.1394c-.0697-.0349-.0697-.1394-.0697-.2789s.0348-.244.1045-.3834c.0697-.1394.1742-.2789.3135-.3486.1393-.0697.2438-.1394.3832-.1394s.2787,0,.3832.0349c.1393.0349.2787.1046.418.1743.1393.0697.2787.1743.3832.244.1045.1046.209.2091.2438.3137.0697.1394.1045.244.1045.3834s-.0348.2789-.1393.4532c-.0697.1046-.1393.1743-.209.244-.0697.0697-.1393.1046-.209.1394-.0697.0349-.1393.0349-.209,0h-.0348l-.1045.1743ZM7.4194,17.5678c-.1045,0-.209-.0349-.2787-.0697l-.209-.0697.2787-.5229.0697.0349q.0348,0,.0697.0349h.1393c.0348,0,.1045-.0349.1742-.1046.0697-.0349.1045-.1046.1742-.2092.0697-.1394.1045-.244.1045-.3486s-.0348-.2092-.0697-.3137c-.0697-.1046-.1393-.1743-.209-.2789-.1045-.0697-.209-.1394-.3483-.2092-.1393-.0697-.2787-.1394-.3832-.1743-.1045-.0349-.209-.0349-.3135-.0349s-.209.0349-.3135.1046c-.1045.0697-.1742.1743-.2438.3137-.1045.1046-.1393.2092-.1393.3137q0,.1394.0348.1394l.2438.244-.2787.5229-.0697-.0697c-.0348-.0349-.0697-.0697-.1045-.0697-.0697-.0349-.1045-.1046-.209-.1743-.0697-.1046-.1393-.2091-.1742-.3486-.0348-.1394-.0348-.2789,0-.4183.0348-.1394.0697-.2789.1742-.4183.0697-.1394.1742-.2789.3135-.4183.1393-.1394.3135-.2091.4877-.244.1742-.0349.3483-.0349.5225,0,.1742.0349.3135.0697.418.1046.1045.0349.2438.1046.3483.1743.1742.1046.2787.1743.418.2789.1393.1046.209.244.2787.3834.0697.1394.1393.2789.1393.4183.0348.1394,0,.2789-.0348.4532-.0348.1743-.1045.3137-.1742.4183-.1393.2091-.2438.3486-.3832.4183-.1393.0697-.2787.1046-.3832.1046-.0348.0349-.0697.0349-.0697.0349Z" fill="#cb3d37" stroke-width="0"/><path d="M7.3845,33.2193l.6618,1.1852,1.045-.5926.1742.3486-2.6125,1.4292-.209-.3137,1.254-.6972-.6618-1.1503-1.2192.6623-.1742-.3486,2.6125-1.4292.209.3137-1.0798.5926Z" fill="#cb3d37" stroke-width="0"/><path d="M6.5835,35.2766l.1045.2092,2.4731-1.3595-.1045-.2091-1.045.5926-.7315-1.3246,1.045-.5926-.1045-.1743-2.4731,1.3595.1045.2092,1.2192-.6972.7315,1.3246-1.2191.6623ZM6.6184,35.7297l-.2787-.488,1.2192-.6972-.5573-1.0109-1.2192.6972-.2787-.488,2.7866-1.5338.2787.488-1.045.5926.5573,1.0109,1.045-.5926.2787.488-2.7866,1.5338Z" fill="#cb3d37" stroke-width="0"/><path d="M4.7721,30.6396l2.6125.5926-.4877-1.2898.3483-.1394.6967,1.8126-.2787.1046-2.6473-.5926.5573,1.4989-.3832.1394-.7663-1.9869.3483-.1394Z" fill="#cb3d37" stroke-width="0"/><path d="M4.5283,30.8143l.6967,1.8475.2438-.1046-.5922-1.5686,2.7518.6274.1742-.0697-.627-1.6732-.1742.1046.5225,1.3595-2.7518-.6274-.2438.1046ZM5.1553,32.871l-.8012-2.1612.418-.1743,2.4732.5577-.4528-1.22.5225-.2092.7315,1.9869-.3832.1743-2.508-.5926.5225,1.4292-.5225.2092Z" fill="#cb3d37" stroke-width="0"/><path d="M5.6429,24.5403l-2.2293.1743-.0348-.3834,2.9608-.2092.0348.3834-2.09,1.5338,2.1596-.1394.0348.3834-2.9608.1743-.0348-.3834,2.1597-1.5338Z" fill="#cb3d37" stroke-width="0"/><path d="M3.5878,26.1434v.244l2.7866-.1743v-.2091l-2.3686.1394,2.2641-1.6383v-.2789l-2.7866.1743v.2091l2.4383-.1743-2.3338,1.7081ZM3.4484,26.5617l-.0348-.5229,1.9507-1.3943-2.0203.1394-.0348-.5577,3.135-.2092.0348.5229-1.881,1.3595,1.9507-.1394.0348.5577-3.135.244Z" fill="#cb3d37" stroke-width="0"/><path d="M6.6183,21.9952l-.0348.3486-3.1001.9063.0348-.4531.8012-.244.1045-1.1852-.7663-.3834.0348-.4183,2.926,1.4292ZM4.7373,22.4484l1.254-.3486-1.1843-.5926-.0697.9412Z" fill="#cb3d37" stroke-width="0"/><path d="M4.9114,21.647l-.0697.6972.9405-.244-.8708-.4532ZM4.6328,22.5534l.1393-1.1852,1.463.732-1.6023.4532ZM3.6226,22.8671l-.0348.2789,2.926-.8715.0348-.244-2.717-1.3246v.244l.7663.3834-.1393,1.2898-.836.244ZM3.4136,23.3551l.0697-.6275.8012-.244.1045-1.0806-.7663-.3834.0697-.5926,3.0305,1.4989-.0348.4532-3.2743.976Z" fill="#cb3d37" stroke-width="0"/><path d="M6.3047,18.3005l-.3832,1.2898,1.1495.3486-.1045.3835-2.8911-.8715.1045-.3835,1.3585.4183.3832-1.2898-1.3585-.3834.1393-.3834,2.8563.8715-.1045.3486-1.1495-.3486Z" fill="#cb3d37" stroke-width="0"/><path d="M4.18,19.3808l2.717.8017.0697-.2092-1.1495-.3486.418-1.4292,1.1495.3486.0697-.2092-2.717-.8017-.0697.2092,1.3585.4183-.418,1.4292-1.3585-.4183-.0697.2092ZM7.0015,20.4265l-3.0305-.9063.1742-.5229,1.3585.4183.3483-1.1155-1.3585-.4183.1742-.5229,3.0305.9063-.1742.5229-1.1495-.3486-.3483,1.1155,1.1495.3486-.1742.5229Z" fill="#cb3d37" stroke-width="0"/><path d="M24,48C10.7634,48,0,37.2288,0,23.9826,0,10.7712,10.7634,0,24,0s24,10.7712,24,24.0174c-.0348,13.2462-10.7634,23.9826-24,23.9826ZM24,1.2549C11.4601,1.2549,1.254,11.4684,1.254,24.0174s10.2061,22.7626,22.746,22.7626,22.746-10.2136,22.746-22.7626S36.5399,1.2549,24,1.2549Z" fill="#cb3d37" stroke-width="0"/><path d="M29.2946,5.2279c.1742.0349.3135.0697.4528.0697.2438,0,.4528-.0349.6967-.0349.1393,0,.2438-.0349.3832,0,.1393.0349.1742.1394.0697.244-.0697.0697-.1393.1394-.2438.1394-.2787.0697-.5573.1394-.836.1743-.1393.0349-.2787.0349-.4528.0349-.2787.0349-.4877.1743-.627.4183-.3135.5926-.7663,1.0457-1.2888,1.4641-.3135.244-.6618.3486-1.0798.2789-.0348,0-.0697,0-.1045-.0349-.1045-.0349-.2438-.0697-.209-.2091.0348-.1743.1742-.1394.2787-.1046.2438,0,.4528-.0697.6618-.1743.5573-.3137.9057-.8017,1.1843-1.4292-.1045-.0349-.209-.0349-.3135-.0697h-.2438c-.3832,0-.4877-.244-.3483-.5926.0348-.0349.1045-.0697.1393-.0697.209,0,.418.0349.6618.0349h.209c.2787,0,.4877-.0697.5225-.3486.1045-.4183.1742-.8366.2787-1.2549v-.0349c.0348-.1394,0-.3137.1742-.3834.1742-.0697.3135.0349.4528.1394.1742.1394.2438.3486.1742.5577-.0697.2092-.1742.4183-.2787.6274-.1045.1394-.1742.3137-.3135.5577Z" fill="#cb3d37" stroke-width="0"/><path d="M29.1205,6.448c.1045.2092.209.3834.2787.5926.2438.5926.5922,1.1155,1.0102,1.6035.1742.1743.3832.3486.5573.5229.1742.2092.1742.2789-.0697.4183-.3135.1743-.7315.1046-.9057-.2091-.209-.3486-.418-.732-.5922-1.1503-.1742-.4532-.2438-.9412-.3483-1.3943-.0348-.1046,0-.244-.0348-.3486.0348-.0349.0697-.0349.1045-.0349Z" fill="#cb3d37" stroke-width="0"/><path d="M12.7489,10.0042c-.0348.0697-.0697.1743-.0348.1743s.2438.1046.3135.0697c.0348,0,.2438-.3834.209-.3834,0-.0349-.3832.1394-.4877.1394ZM11.4949,8.3659c-.2438.2091-.418.4532-.5225.6972-.0697.244-.2787.4532-.4877.5926-.1742.1046-.3135.1046-.3483-.0349-.0348-.1046-.0697-.244-.0697-.3486,0-.0349.0348-.0697.0697-.1046.0697-.0697.1393-.1743.2438-.244.2787-.244.2438-.4532.1742-.6623-.0348-.1046-.1045-.1046-.209,0-.0348.0349-.0348.0697-.0697.0697-.0697.1046-.1393.2091-.2787.1743-.1393-.0349-.209-.1394-.1742-.2789.0348-.1743.1393-.3137.1742-.488.0348-.0697,0-.1743-.0348-.244,0-.0349-.0348-.0697-.0697-.1046-.1393-.1743-.1045-.3486.1045-.488.209-.1743.418-.1743.5573,0,0,0,.0348.0349.0348.0697.1045-.0697.209-.1046.3483-.1743.3135-.1394.4877,0,.3483.3137-.0697.1394-.1045.2789-.1742.4532-.0697.1743-.0697.3486.0348.5229.1045-.1046.209-.2092.2438-.3137l.5225-.8366c.1045-.1743.2787-.2789.4528-.244.1393.0349.2438.244.1393.3834-.209.3486-.209.6972-.3135,1.0109-.0348.1046-.0697.244-.0697.3486-.0348.1394.0348.1743.209.0697.0348-.0349.0697-.0349.1045-.0697.2438-.1743.3135-.1394.3832.0349.0697.1394.0348.3137-.0348.5229-.0697.1743-.1045.3486-.1393.5229.209-.1046.3832-.1743.5573-.244.209-.0697.4528-.1394.627,0,.209.1394.2438.3834.0348.6274-.1393.1743-.2787.3486-.4528.488-.1045.1046-.1393.1743-.1045.244.209.3137.3832.6623.5922.976.1393.244.2787.4532.418.6972.0348.0697.0697.1743.0348.244,0,.0697-.0697.1743-.1393.2092-.0348.0349-.1742.0349-.209,0-.1393-.1394-.3135-.3137-.418-.488-.2787-.3834-.5573-.7669-.836-1.1155-.0348-.0697-.1393-.1046-.209-.0697-.0697.0349-.1393.1394-.1742.2091-.0697.1394-.1742.244-.3135.2789-.1742.0349-.1742-.0697-.1742-.2091.0348-.3834.0697-.8017.1045-1.1852,0-.1046.0697-.2092.0697-.3137,0-.0349-.0697-.1046-.1045-.1046-.0697,0-.1393.0697-.1742.1046,0,0-.0348.0349-.0348.0697-.1045.244-.209.3137-.3832.1394-.209-.1743-.209-.3486-.0697-.6623.1742-.3137.209-.6274.209-.9412.0348,0,0-.0349,0-.1046Z" fill="#cb3d37" stroke-width="0"/><path d="M9.3701,11.2242c-.0348-.0697-.1045-.1743-.1742-.2789-.0697-.1046-.0348-.2092.0697-.3137.1393-.1046.2787-.1743.3832-.1046.1393.0697.3135.0697.5225,0,.1393-.0697.209,0,.209.1046-.0348.1743-.0348.3486-.1045.5229-.1045.2789-.3483.4532-.627.2789-.1045,0-.1742-.1046-.2787-.2092Z" fill="#cb3d37" stroke-width="0"/><path d="M21.5269,6.1693c-.2438-.976-.4877-1.9521-.7315-2.963,0-.0349,0-.1046-.0348-.1394-.0697-.2789.0348-.2789.209-.2789.418,0,.6967.2789.7663.732.0697.3834.0697.732.1045,1.1155.0697.5229.1742,1.0458.2438,1.5686.0697.3834.1393.7669.1393,1.1503.0348.3834,0,.8017-.0348,1.1852,0,.1394-.0348.2789-.1742.3137-.1393.0349-.2438-.0697-.2787-.2789-.0697-.4183-.1045-.8366-.1393-1.2549.0348-.3834,0-.732-.0697-1.1503Z" fill="#cb3d37" stroke-width="0"/><path d="M18.8447,6.5185c.1045.5229.1045,1.0457-.0348,1.5686-.0348.1394-.0697.2789-.2438.3486-.1045.0349-.1742.0349-.1742-.1046,0-.1046,0-.2091.0348-.2789.1045-.4532.0697-.9063-.1045-1.3595-.0348-.0697-.1045-.2092-.1742-.1743-.0697,0-.1742.1046-.209.1743-.0348.1394-.0697.3137-.0697.4531,0,.1046.0348.2092.0697.3137.0348.1394,0,.2092-.1393.244-.1045.0349-.209.0349-.3135-.0697-.1742-.2091-.1742-.6274,0-.8366.1742-.2091.2787-.3834.3135-.6623.0348-.1743.1742-.3834.3135-.5229.1045-.1394.3483-.0697.418.1046.1045.244.1742.488.2438.732.0697,0,.0697.0349.0697.0697Z" fill="#cb3d37" stroke-width="0"/><path d="M20.3077,5.8901c.0348.4532.0348.9412.0697,1.4292,0,.1046,0,.2789-.1393.3137-.1393.0349-.209-.1046-.2438-.244-.0697-.244-.1393-.488-.1742-.7669-.0348-.244-.1045-.4183-.3832-.488-.1393-.0349-.2438-.1394-.3483-.244-.1393-.1743-.0697-.3486.1393-.3834.0348,0,.0697,0,.1045-.0349.2787-.0697.3832-.2789.2438-.5229-.0348-.0349-.0697-.0697-.0697-.1046-.0697-.0697-.1393-.1743-.0348-.2789.0697-.1046.2787-.1046.3483-.0349.0697.0697.1393.1394.1742.244.0697.3486.1742.6972.3135,1.1155Z" fill="#cb3d37" stroke-width="0"/><path d="M20.1335,4.88q.4877-.1743.4877-.732c.1045.0697.209.1046.2787.1743.209.244.3135.5229.2787.8366-.0348.244-.2438.3486-.4528.244-.0697-.0349-.1393-.0349-.1742-.0349-.1393.0349-.209-.0349-.2438-.1743-.0348-.1046-.1045-.2091-.1742-.3137Z" fill="#cb3d37" stroke-width="0"/><path d="M36.0526,11.817c-.0348,0,0,0,0,0-.1393-.1046-.209-.1743-.2787-.244-.1045-.1046-.2438-.2091-.3832-.3137l-.0697-.0697c0-.0349.0348-.0697.0697-.1046.1393-.1046.2787-.1394.4528-.2091.1742-.0697.2787-.1394.3135-.244.0348-.1046-.0348-.2092-.1742-.3137-.1045-.0697-.1742-.1394-.2787-.2091-.0348-.0349-.0697-.0697-.1045-.0697-.0348-.0349-.1393-.1046-.209,0-.1045.0697-.1393.1394-.1045.244,0,.0697.0348.1394.0697.2092.0348.0697.0348.1046.0348.1394s-.0348.0349-.0348.0349c-.0697.0349-.1393.1046-.1742.1743-.0697.1046-.1393.1743-.2787.1394-.1742-.0697-.3483-.1046-.4877-.1743h-.0348c-.0348,0-.1045-.0349-.1393-.0349-.0697-.0349-.209-.0697-.3135.0697-.0697.1394,0,.244.0697.3486.1393.1743.3483.3137.5922.4183h.0348c.0697.0349.1045.0349.1045.0697s0,.0697-.0697.1394l-.0348.0349c-.1045.1046-.2438.1743-.418.1743-.1393.0349-.3135.0349-.4528.0349h-.1742c-.0697,0-.1045,0-.1393.0697-.0348.0349-.0348.1046,0,.1394.0348.0349.0348.0697.0697.1046l.0348.0349s.1742.1046.5573.1394h.2787c.2787-.0349.5573-.2092.6967-.4183.0348-.0697.0697-.1046.1045-.1046s.0697,0,.1393.0349c.1742.1394.3135.2092.4528.3137.1045.0697.2438.0697.3483.0349.0697-.0349.1045-.0697.1393-.1046.0348-.3137-.1045-.4183-.209-.488" fill="#cb3d37" stroke-width="0"/><path d="M34.9724,8.2606c-.0697-.0697-.1393-.0349-.209-.0349-.1742.0349-.2787.1743-.3483.3137-.0348.0349-.0697.0697-.0697.1046-.1393.1743-.2787.3486-.2787.6275v.0697c0,.0697-.0348.1394.0348.2092l.0348.0349c.1393.0349.2787,0,.3483-.1046.209-.244.4877-.5577.5922-.976-.0348-.1046-.0697-.2091-.1045-.244Z" fill="#cb3d37" stroke-width="0"/><path d="M37.3408,9.1672c.0348.0349,0,0,0,0,.0697.0697.1045.0697.1742.0697.1393-.0349.2438-.0697.3135-.1394.0348-.0349.0697-.0697.1393-.0697.1393-.1743.0697-.3486.0348-.488,0-.0349-.0348-.0697-.1045-.0697-.0348,0-.1045,0-.1393.0349l-.0348.0349c-.1393.1394-.2787.3137-.418.488,0,.0349,0,.1046.0348.1394" fill="#cb3d37" stroke-width="0"/><path d="M36.6093,8.4351c0,.0349.1045.2789-.0348.3834-.1045.0697-.1045.1046-.1045.1743s.0697.1394.1742.1743c.0348,0-.0348.0697-.0348.0697l-.4528-.244c0-.0349,0-.0697.0697-.1046l.0348-.0349.209-.2092c.0348-.0697.1045-.1394.1393-.2091ZM38.0723,10.5266c0-.0697,0-.1046-.0348-.1743-.0348-.0697-.209-.3137-.209-.3137,0,0,0-.0348-.0348-.0348-.0348-.0349-.0697-.1046-.0697-.1394s.0348-.0697.0697-.1046c.2787-.1743.4528-.4183.6618-.6623.1393-.1394.2438-.3137.3832-.4532.1045-.1046.2787-.3137.1393-.5229-.0697-.1046-.1742-.2091-.2438-.3137l-.0697-.0697c-.0697-.0697-.209-.1046-.3135-.0349-.1045.0349-.0697.1394-.0697.1743v.0349c0,.0697.0348.1743.0697.244.0348.1394.0348.244-.0697.3834-.0348.0349-.0697.0697-.0697.1046-.209.2789-.418.5577-.7315.7669-.1045.0697-.209.1046-.3135.0697-.0348,0-.1045-.0349-.1393-.0697-.0697-.0697-.0348-.1743-.0348-.3137,0-.1046.0697-.1394.1393-.1743.1742-.0697.2787-.2092.3135-.4183.0697-.4183.2787-.6623.627-.8017.1045-.0349.1393-.1046.1393-.244,0-.1743-.0697-.2789-.1742-.3486-.0348-.0349-.0697-.0349-.1045-.0349s-.0697.0697-.1045.1046c0,.0349-.0348.0697-.0348.1046-.3483.244-.4877.4532-.5922.8017-.0348.0697-.0697.1743-.1045.2091,0,0-.1045.1743-.1393.1743,0,0,0-.0697-.0348-.1394-.0697-.1046-.209-.1046-.2438-.0697.209-.2789.418-.5577.627-.8715.0348-.0697.1045-.1394.1393-.2092.1045-.1743.1045-.3486.0697-.488,0-.0697-.0348-.1394-.1045-.1394-.0348,0-.1045-.0349-.1742.0349-.0697.0697-.1393.1046-.1742.1743-.209.3137-.7315,1.1155-.7663,1.22-.0697.1394-.1393.244-.1742.3137l-.209.3137c-.0348.0697-.1045.1046-.1393.1743l-.0697-.0697s0-.0348.0348-.0697c.3135-.3486.4877-.5577.5573-.6972.0348-.0697.2438-.5577.1742-.7669,0-.0349-.0348-.0697-.0697-.0697-.0348-.0349-.0697-.0349-.1045,0-.1045.0349-.2438.2092-.2787.3137l-.3135.5229c-.1393.2092-.2787.4183-.3832.6623-.1393.2789-.1045.6623.1393.8017.3135.2092.7315.3486,1.0798.488.1742.0697.3483.1394.4877.244.0348.0349.0697.0349.0697.0697.1045.0697.1742.1046.1393.1743q0,.0349-.0348.0697h-.627c-.0348,0-.1045.0349-.1045.0697-.0348.0349-.0348.0697-.0348.0697,0,.0349.0348.0349.0348.0697l.0348.0349c.0697.0349.1045.0349.1742.0697q.0348,0,.0697.0349c.1393,0,.2787,0,.418.0349.209.0349.418.1046.627-.0349.209-.1394.2787-.2091.2787-.2789Z" fill="#cb3d37" stroke-width="0"/><path d="M19.4717,44.6533v-.3835h.6967v-2.1961h-.5573v-.3137c.2787-.0697.5225-.1394.6967-.244h.3832v2.7538h.627v.4183h-1.8462v-.0349Z" fill="#cb3d37" stroke-width="0"/><path d="M19.5066,44.6184h1.7068v-.3137h-.627v-2.7538h-.3135c-.1742.1046-.3832.1743-.6618.244v.244h.5922v2.2658h-.6967v.3137ZM21.3179,44.723h-1.881v-.488h.6967v-2.0915h-.5573v-.3834h.0348c.2787-.0349.4877-.1394.6618-.244h.418v2.7538h.627v.4532Z" fill="#cb3d37" stroke-width="0"/><path d="M22.8156,43.1193c.1045,0,.209-.0349.3135-.1046.1045-.0697.209-.1743.3135-.3137-.0348-.3137-.1045-.5229-.209-.6972-.1045-.1394-.2438-.2092-.418-.2092-.1393,0-.2438.0697-.3483.1743-.1045.1046-.1393.2789-.1393.488s.0348.3486.1393.4532c.1045.1046.1742.2091.3483.2091ZM21.8751,44.3742l.2787-.3137c.0697.0697.1393.1394.2438.1743.1045.0349.1742.0697.2787.0697.1393,0,.2438-.0349.3483-.1046.1045-.0697.209-.2092.2787-.3835.0697-.1743.1045-.4183.1045-.6972-.1045.1046-.209.2091-.3135.2789-.1045.0697-.2438.1046-.3832.1046-.2787,0-.4877-.0697-.627-.244-.1742-.1743-.2438-.4183-.2438-.732,0-.2091.0348-.3834.1393-.5577.0697-.1394.209-.2789.3483-.3486.1393-.0697.3135-.1394.4528-.1394.209,0,.3832.0697.5573.1743.1742.1046.3135.2789.3832.488.1045.2092.1393.5229.1393.8715,0,.3137-.0348.5926-.1045.8017-.0697.2092-.1393.3834-.2787.5229-.1045.1394-.2438.244-.3832.3137-.1393.0697-.2787.1046-.4528.1046s-.3483-.0349-.4877-.1046c-.0697-.1046-.1742-.1743-.2787-.2789Z" fill="#cb3d37" stroke-width="0"/><path d="M22.7809,41.8642c-.1393,0-.209.0349-.3135.1743-.0697.1046-.1393.244-.1393.4532,0,.1743.0348.3486.1393.4532.0697.1046.209.1394.3483.1394.1045,0,.1742-.0349.2787-.0697.1045-.0697.1742-.1394.2787-.2789-.0348-.2789-.1045-.5229-.209-.6623-.1045-.1394-.2438-.2092-.3832-.2092ZM22.8157,43.1539c-.1742,0-.3135-.0697-.418-.1743-.1045-.1046-.1393-.2789-.1393-.488s.0348-.3834.1393-.5229c.1045-.1394.2438-.1743.3832-.1743.1742,0,.3483.0697.4528.244.1045.1394.1742.3834.209.6972-.1045.1394-.209.244-.3135.3137-.1045.0697-.209.1046-.3135.1046ZM21.9449,44.374c.0697.0697.1742.1394.2787.2092.1393.0697.2787.1046.4528.1046.1393,0,.2787-.0349.418-.1046.1393-.0697.2438-.1743.3483-.2789.1045-.1394.209-.3137.2438-.5229.0697-.2091.1045-.488.1045-.8017,0-.3486-.0348-.6275-.1393-.8366-.1045-.2092-.209-.3834-.3832-.488-.1742-.1046-.3483-.1743-.5225-.1743s-.3135.0349-.4528.1394c-.1393.0697-.2438.2092-.3135.3486-.0697.1394-.1393.3137-.1393.5229,0,.3137.0697.5577.2438.6972.1742.1394.3483.244.5922.244.1045,0,.2438-.0349.3483-.1046.1045-.0697.209-.1394.3135-.244l.0697-.1046v.1394c0,.3137-.0348.5577-.1393.732-.0697.1743-.1742.3137-.2787.3834-.1045.0697-.2438.1046-.3832.1046-.1045,0-.209-.0349-.3135-.0697-.0697-.0349-.1393-.0697-.209-.1394l-.1393.244ZM22.6764,44.7574c-.1742,0-.3483-.0349-.4877-.1046-.1393-.0697-.2438-.1394-.3483-.244l-.0348-.0349.3135-.3834.0348.0349c.0697.0697.1393.1046.209.1743.0697.0349.1742.0697.2787.0697s.2438-.0349.3135-.1046c.1045-.0697.1742-.2091.2438-.3486.0697-.1394.1045-.3486.1045-.5926-.0697.0697-.1742.1394-.2438.1743-.1393.0697-.2787.1046-.3832.1046-.2787,0-.4877-.1046-.6618-.244-.1742-.1743-.2438-.4183-.2438-.7669,0-.2092.0348-.4183.1393-.5577.1045-.1743.209-.2789.3483-.3834.1393-.1046.3135-.1394.4877-.1394.209,0,.418.0697.5573.1743.1742.1046.3135.2789.418.5229.1045.244.1393.5229.1393.8715,0,.3137-.0348.5926-.1045.8017-.0697.2092-.1393.4183-.2787.5577-.1045.1394-.2438.244-.3832.3137-.1045.0697-.2438.1046-.418.1046Z" fill="#cb3d37" stroke-width="0"/><path d="M25.0101,44.6531c0-.2789.0348-.5577.0697-.8018s.0697-.488.1393-.6972c.0697-.2091.1393-.4183.2438-.6274.1045-.2091.2438-.4183.3832-.6275h-1.4978v-.4183h2.0203v.3137c-.1742.244-.3483.4532-.4528.6623-.1045.2092-.209.4183-.2787.6623-.0697.2091-.1045.4532-.1393.6972s-.0348.5229-.0697.8366h-.418Z" fill="#cb3d37" stroke-width="0"/><path d="M25.0798,44.6182h.418c0-.2789.0348-.5577.0697-.8017.0348-.244.0697-.488.1393-.6972s.1393-.4532.2787-.6623c.1045-.2092.2787-.4183.4528-.6623v-.244h-1.9507v.3137h1.5327l-.0348.0697c-.1393.2092-.2787.4183-.3832.6275-.1045.2091-.1742.4183-.2438.6274-.0697.2091-.1045.4532-.1393.6972-.1045.2091-.1393.4532-.1393.732ZM25.5675,44.7228h-.5922v-.0349c0-.2789.0348-.5577.0697-.8017s.0697-.488.1393-.6972c.0697-.2092.1393-.4183.2438-.6274.1045-.1743.209-.3834.3483-.5577h-1.4282v-.5229h2.1248v.3486c-.1742.244-.3483.4532-.4528.6623-.1045.2091-.209.4183-.2438.6274-.0697.2091-.1045.4532-.1393.6972-.0348.244-.0348.5229-.0697.8366v.0697Z" fill="#cb3d37" stroke-width="0"/><path d="M28.18,42.9101c.1742-.1743.2787-.3834.2787-.5926,0-.1394-.0348-.2789-.1393-.3486-.0697-.1046-.209-.1394-.3483-.1394s-.2438.0349-.3135.1394c-.0697.1046-.1393.2091-.1393.3486,0,.1046.0348.2092.1045.2789.0697.0697.1393.1394.2438.2092.0697,0,.1742.0697.3135.1046ZM27.971,44.3741c.1742,0,.2787-.0349.3832-.1394.1045-.1046.1393-.2092.1393-.3486s-.0348-.244-.1045-.3137c-.0697-.0697-.1742-.1394-.2787-.2091-.1045-.0697-.2438-.1046-.3832-.1743-.1045.0697-.209.1743-.2787.2789-.0697.1046-.1045.244-.1045.3835s.0697.2789.1742.3834c.1045.1046.2787.1394.4528.1394ZM27.971,44.7227c-.209,0-.3832-.0349-.5225-.1046-.1393-.0697-.2787-.1743-.3832-.3137-.1045-.1394-.1393-.2789-.1393-.4183s.0348-.2789.0697-.3834c.0697-.1046.1393-.2092.209-.2789.0697-.0697.1742-.1394.2787-.2092v-.0349c-.1045-.0697-.209-.1743-.3135-.3137-.0697-.1046-.1393-.2789-.1393-.4183,0-.1743.0348-.3137.1045-.4183.0697-.1046.1742-.2092.3135-.2789.1393-.0697.2787-.1046.4528-.1046s.3483.0349.4877.1046c.1393.0697.2438.1743.3135.2789.0697.1394.1045.2789.1045.4183,0,.1046-.0348.2091-.0697.3137-.0348.1046-.1045.1743-.1742.244-.0697.0697-.1393.1394-.209.1743v.0349c.1045.0697.1742.1046.2787.2092.0697.0697.1393.1743.209.2789.0348.1046.0697.244.0697.3834s-.0348.3137-.1393.4183c-.0697.1394-.209.2091-.3483.3137-.0697.0697-.2438.1046-.4528.1046Z" fill="#cb3d37" stroke-width="0"/><path d="M27.9709,41.8643c-.1045,0-.209.0349-.2787.1046-.0697.0697-.1045.1743-.1045.3137,0,.1046.0348.2091.0697.2789.0697.0697.1393.1394.209.1743.1045.0349.1742.1046.2787.1394.1742-.1743.2438-.3486.2438-.5229,0-.1394-.0348-.244-.1045-.3486-.0697-.1046-.1742-.1394-.3135-.1394ZM28.1799,42.9798c-.1393-.0697-.2438-.1046-.3483-.1743-.1045-.0697-.1742-.1394-.2438-.2092-.0697-.0697-.1045-.1743-.1045-.3137s.0348-.2789.1393-.3486c.1045-.1046.209-.1394.3483-.1394.1742,0,.3135.0697.3832.1743.1045.1046.1393.244.1393.3834,0,.2092-.1045.4183-.3135.6275ZM27.7619,43.2238c-.1045.0697-.1742.1394-.2438.244-.0697.1046-.1045.2092-.1045.3486s.0348.244.1742.3486c.1045.1046.2438.1394.3832.1394s.2787-.0349.3483-.1046c.1045-.0697.1393-.1743.1393-.3137,0-.1046-.0348-.2091-.1045-.2789-.0697-.0697-.1393-.1394-.2787-.2092-.0697-.0697-.209-.1046-.3135-.1743ZM27.9709,44.409c-.1742,0-.3483-.0697-.4528-.1743-.1393-.1046-.1742-.244-.1742-.4183,0-.1394.0348-.2789.1045-.3834.0697-.1046.1742-.2091.2787-.3137h.0697c.1393.0697.2787.1046.3832.1743.1393.0697.209.1394.2787.2092.0697.1046.1045.2092.1045.3486,0,.1743-.0697.2789-.1742.3834-.1045.1394-.2438.1743-.418.1743ZM27.9709,41.5157c-.1742,0-.3135.0349-.4528.1046-.1393.0697-.2438.1394-.3135.2789-.0697.1046-.1045.244-.1045.4183s.0348.2789.1045.4183c.0697.1046.1742.2091.2787.2789h.0348v.0697h-.0348c-.1045.0349-.1742.1046-.2787.1743-.0697.0697-.1393.1743-.209.2789-.0348.1046-.0697.2091-.0697.3486s.0348.2789.1393.4183c.0697.1046.209.2091.3483.2789.1393.0697.3135.1046.5225.1046s.3832-.0349.5225-.1046c.1393-.0697.2438-.1743.3483-.2789.0697-.1046.1045-.244.1045-.3834s-.0348-.244-.0697-.3486c-.0348-.1046-.1045-.1743-.1742-.244-.0697-.0697-.1742-.1394-.2438-.1743h-.0348v-.0697c.0697-.0349.1393-.1046.1742-.1743.0697-.0697.1045-.1394.1393-.244.0348-.1046.0697-.1743.0697-.2789,0-.1394-.0348-.2789-.1045-.4183-.0697-.1046-.1742-.2092-.2787-.2789-.0697-.1394-.2438-.1743-.418-.1743ZM27.9709,44.7576c-.209,0-.3832-.0348-.5573-.1046-.1742-.0697-.2787-.1743-.3832-.3137-.1045-.1394-.1393-.2789-.1393-.4532,0-.1394.0348-.2789.0697-.3834.0697-.1046.1393-.2092.209-.2789.0697-.0697.1742-.1394.2438-.1743-.1045-.0697-.209-.1743-.2787-.2789-.0697-.1394-.1393-.2789-.1393-.4532s.0348-.3137.1393-.4532c.0697-.1394.209-.244.3483-.3137.1393-.0697.3135-.1046.4877-.1046s.3483.0349.4877.1046c.1393.0697.2438.1743.3135.3137.0697.1394.1045.2789.1045.4532,0,.1046-.0348.2092-.0697.3137-.0348.1046-.1045.1743-.1742.2789l-.1742.1743c.0697.0349.1742.1046.2438.1743.0697.0697.1393.1743.209.2789.0348.1046.0697.244.0697.3835,0,.1743-.0348.3137-.1393.4532-.1045.1394-.209.244-.3832.3137-.1045.0349-.2787.0697-.4877.0697Z" fill="#cb3d37" stroke-width="0"/><path d="M17.6255,42.596c0,.2789-.209.488-.4877.488s-.4877-.2092-.4877-.488.209-.488.4877-.488.4877.244.4877.488Z" fill="#cb3d37" stroke-width="0"/><path d="M31.3843,42.596c0,.2789-.209.488-.4877.488s-.4877-.2092-.4877-.488.209-.488.4877-.488.4877.244.4877.488Z" fill="#cb3d37" stroke-width="0"/><path d="M14.3861,32.9406c.2438-.732.3832-1.5337.3483-2.3355v-.244l-.3832-.488c-.7663-.9412-1.2888-2.1612-1.5675-3.451l-.4528-2.1264c-.0697-.3486.1045-.6623.3483-.732l3.4485-.976-.0348-1.8475c-1.3237.6623-2.6473,1.8824-3.2046,2.4052-.0697.0697-.1393.1046-.2438.1046h-.0697c-.1045-.0349-.209-.1046-.2787-.244-.1393-.2789-.0697-.6274.1045-.8017.627-.5926,2.1248-1.9869,3.6226-2.6841v-.4532l-2.4732.0349-.4528.7669c-.627.8715-1.3933,1.4989-2.1945,1.9172l-1.6023.8366c-.1045.6972-.1393,1.3595-.1393,2.0915,0,4.1481,1.7068,7.878,4.4238,10.562.2787-.8017.5225-1.5686.8012-2.3355Z" fill="#cb3d37" stroke-width="0"/><path d="M29.0508,36.4961c-.0697.0697-.1742.1046-.2438.1046h-.0349c-.2786,0-.4528-.3138-.4528-.6972l-.1393-15.8257c0-1.1852-.5574-2.2309-1.1844-2.3704l-.7315,13.5948c-.0348.6274-.1045,1.2549-.1741,1.8475l-.2787,2.0566c-.0348.2092-.1045.3486-.2438.4532-.0697.0348-.1393.0697-.209.0697h-.1045c-.2438-.0697-.418-.4183-.3832-.732l.2787-2.0567c.0697-.5577.1393-1.1503.1742-1.7429l.7315-13.6645-.627-.1394c-.5922-.1046-1.463-.5926-1.9159-1.3246-.1045-.1743-.1742-.2789-.2438-.4183-.209-.3137-.1742-.8366.0697-1.0458l.0348-.0349c.0697-.0697.1742-.1046.2438-.1046.1045,0,.209.0697.2787.2091.0697.1394.1742.2789.2787.4532.2786.4532,1.1495.9412,1.5675,1.0109l1.5674.3486c1.1147.2091,1.8462,1.6383,1.8462,3.6252l.1393,15.8258c-.0348.244-.1393.4531-.2438.5577ZM34.5196,30.361c-.209,0-.4528.0349-.6618.0349-1.254,0-2.508-.2092-3.7272-.5578-.2786-.1045-.4528-.3834-.3483-.6623.1045-.2788.3832-.4531.6618-.3486,1.045.3138,2.09.4881,3.1698.5229l-.1045-6.3791-2.508.0698c-.1393,0-.2786-.2441-.3134-.5578,0-.3137.1045-.5577.2438-.5926l2.5428-.1045-.0697-4.8105c-1.2888.1046-2.2641.5926-2.7866.9412-.1045.0697-.1742.0697-.2787.0697-.1741,0-.3483-.1046-.4528-.244-.1393-.244-.0697-.5926.1742-.732.7315-.4532,2.2641-1.22,4.2844-1.1155.5922.0349,1.1495.1394,1.6372.2789-2.6822-3.7647-7.0711-6.2396-12.0523-6.2396-3.8316,0-7.315,1.4641-9.9274,3.8344l.0348.0697c.5922.732,1.2888,1.2898,2.0552,1.6383l-.0697-2.2658c0-.1743.0348-.3486.1393-.488.1045-.1394.2438-.244.3832-.244.3135,0,.5225.3137.5573.6972l.0348,2.3006h.0348c.7663-.3486,1.4282-.9412,2.0551-1.7081l.0697-.1046c.0697-.1046.1742-.1743.2787-.1394.1045,0,.209.0697.3135.2092.1393.244.1393.5926-.0348.8017l-.0697.1046c-.6967.9063-1.463,1.5686-2.3338,1.9521l-.2787.1394.0348,1.1852,2.6125-.0349,2.0552-1.464c.0697-.0697.1742-.0697.2787-.0349.1393.0349.2438.1743.2787.3137.1045.2789,0,.6274-.1742.7669l-1.6023,1.1503.2438.3137c.5922.732,1.254,1.2897,1.9855,1.6035l1.8114.8366c.209.1045.3135.4183.2786.732-.0348.1743-.1393.3137-.2438.3834-.0348.0349-.1045.0349-.1393.0349-.0349,0-.1045,0-.1394-.0349l-1.8113-.8366c-.836-.3834-1.6023-1.0109-2.2641-1.8475l-.5922-.732-2.5777.0349v.4531c1.4978.6275,3.0305,1.9521,3.6575,2.5098.1742.1743.2438.5229.1393.8018-.0697.1394-.1742.244-.2787.2788h-.0697c-.0697,0-.1393-.0348-.209-.1045-.5573-.4881-1.881-1.6384-3.2046-2.2658l.0348,1.7777,3.8665.9412c.1742.0349.2787.244.2438.4532l-.3832,2.3703c-.209,1.3247-.7315,2.5447-1.463,3.5207l-.3483.4881v.5577c0,.732.1393,1.4292.3832,1.9172v.0349l1.5327,3.9738c.1045.3137.0348.6972-.1742.8715-.0697.0697-.1742.1046-.2438.1046h-.1045c-.1393-.0349-.2787-.1743-.3483-.3486l-1.5326-3.939c-.3135-.6972-.4877-1.6035-.5225-2.5796v-.5228l-1.1495.0348-1.254.0349v.3137c0,.9412-.1393,1.8475-.418,2.6841l-.9057,2.6144c.1045.1046.2438.2091.3483.3137,2.508,1.9869,5.6778,3.1373,9.1263,3.1373,5.8172,0,10.868-3.3813,13.2714-8.2963.209-.4183.418-.8715.5574-1.3246-.9754.2091-2.1249.3834-3.2395.4531Z" fill="#cb3d37" stroke-width="0"/><path d="M10.5893,20.705c.6967-.3486,1.3585-.9412,1.9158-1.6732l.2438-.3486-1.6023-1.0806-.1045-.1046c-.6618,1.1503-1.1495,2.4052-1.463,3.7299l1.0102-.5229Z" fill="#cb3d37" stroke-width="0"/><path d="M38.665,24.6797c0-2.5098-.627-4.8802-1.7416-6.9717-.5922-.3137-1.4282-.6623-2.4383-.732l.0697,4.7756,2.508-.1046c.1393,0,.2787.244.3135.5577,0,.3137-.1045.5577-.2438.5926l-2.5428.1046.1045,6.3791c1.6372-.1046,2.8563-.488,3.4485-.6972.3483-1.2549.5225-2.5446.5225-3.9041Z" fill="#cb3d37" stroke-width="0"/><path d="M16.0928,17.8821l-.0348-1.22-.209-.0697c-.8708-.3834-1.672-1.0109-2.4035-1.8824l-.209-.244c-.627.6623-1.2192,1.3595-1.7068,2.1264l1.9855,1.3595,2.5776-.0697Z" fill="#cb3d37" stroke-width="0"/><path d="M20.3077,24.6795c.0348-.1394-.0348-.2789-.1393-.3137l-3.3091-.8017-3.1001.8715c-.209.0697-.3135.3137-.2787.5926l.0348.1046,6.7228-.1046.0697-.3486Z" fill="#cb3d37" stroke-width="0"/><path d="M16.1973,29.2105l2.508-.0349c.2438-.3486.4528-.6972.6618-1.0806l-4.8766.0697c.209.3834.418.732.6967,1.0458h1.0102Z" fill="#cb3d37" stroke-width="0"/><path d="M20.0638,26.004l-6.3396.1394c.1045.3834.209.732.3483,1.0806l5.7126-.1046c.1045-.3486.209-.732.2787-1.1155Z" fill="#cb3d37" stroke-width="0"/></g></g></svg>