<?xml version="1.0" encoding="UTF-8"?>
<svg id="Layer_2" data-name="Layer 2" xmlns="http://www.w3.org/2000/svg" viewBox="0 0 473.27 399.32">
  <defs>
    <style>
      .cls-1 {
        fill: #0046c8;
      }
    </style>
  </defs>
  <g id="_图层_1" data-name="图层 1">
    <g>
      <g>
        <path class="cls-1" d="M249.69,174.33c-20.08-31.55-43.02-59.26-70.28-84.72-.37-.35-.98-.04-.92.47l6.66,52.32c.1.82.61,1.53,1.35,1.89l62.49,30.82c.5.24,1-.32.71-.79Z"/>
        <path class="cls-1" d="M230.85,196.98l-144.9-59.49c-.53-.22-1,.43-.62.86l51.29,58.83c.47.54,1.14.84,1.85.84h92.17c.6,0,.76-.82.21-1.05Z"/>
        <path class="cls-1" d="M274.14,110.46c-14.31,0-27.86,2.96-40.01,8.27-.45.2-.43.84.03,1.01,22.15,8.44,40.13,24.51,50.27,44.76,8.2-11.15,17.34-16.16,25.73-17.49,12.16-1.93,23.21,4.2,28.38,11.81-16.51,9.97-19.43,24.56-22.13,45.9-7.34,58.05-75.41,76.09-115.16,41.55l41.41-24.84c.53-.32.21-1.14-.4-1l-73.42,16.23c-.9.2-1.83-.12-2.41-.82l-18.04-21.53c-.51-.6-1.27-.93-2.05-.87l-48.86,3.36c-.71.05-1.03.92-.51,1.41l28.41,26.95c.59.56,1.42.79,2.22.62l23.52-5.18c.59-.13,1.19.07,1.59.52l24.58,28.2c.57.65,1.54.75,2.22.23l19.73-14.89c17.35,20.95,44.42,34.36,74.9,34.36,52.45,0,94.86-39.73,94.86-89.28s-42.41-89.28-94.86-89.28Z"/>
      </g>
      <path class="cls-1" d="M403.88,58.41C359.2,20.74,299.8,0,236.63,0S114.07,20.74,69.39,58.41C24.64,96.12,0,146.29,0,199.66s24.64,103.54,69.39,141.25c44.68,37.67,104.08,58.41,167.25,58.41s122.56-20.74,167.25-58.41c44.74-37.72,69.38-87.88,69.38-141.25s-24.64-103.53-69.38-141.25ZM399.85,336.13c-43.56,36.72-101.52,56.94-163.22,56.94s-119.66-20.22-163.22-56.94C30.1,299.62,6.25,251.16,6.25,199.66S30.1,99.7,73.41,63.19C116.97,26.47,174.94,6.25,236.63,6.25s119.66,20.22,163.22,56.94c43.31,36.51,67.16,84.98,67.16,136.47s-23.85,99.96-67.16,136.47Z"/>
      <g>
        <g>
          <path class="cls-1" d="M384.98,98.8c-.12-.39-1.08-2.27-1.38-2.52,0,0-.01,0-.02-.01l-.04-.03h-.05c-.27.02-1.59,3.95-1.75,4.67-.32,1.47.21,2.21.71,2.69h.01s.02.02.02.02c.7.34,1.29.33,1.75-.04,1.08-.88,1.06-3.54.74-4.78Z"/>
          <path class="cls-1" d="M393.06,92.05c.41-.49.43-1.33.05-2.11-.31-1.33-4.5-1.76-4.53-1.76-1.72-.3-2.63-.65-2.72-1.06-.11-.51.99-1.25,2.26-2.11,2.55-1.73,6.41-4.34,4.74-8.13-.11-.8-.47-2.64-1.37-2.98-.37-.14-.79-.02-1.23.37l-.04.04v.06c-.03,1.02-2.36,8.31-7.64,11.23-.82.42-15.51-6.04-17.58-7.33l-.41-.25.21.43c.08.16.02.46-.05.8-.25,1.28-.68,3.43,3.85,5.5,1.03.47,3.31,1.16,5.51,1.83,2.22.68,4.51,1.37,5.3,1.78-1.55.85-2.73,1.38-5.01,1.55-3.5.26-6.49.14-9.15-.36l-.41-.08.29.3c.14.15.3.29.47.44,1.9,1.59,5.32,2.66,8.01,2.44,2.68-.22,4.72-1.06,6.36-1.73,1.38-.57,2.47-1.01,3.37-.84.81.16,2.11.49,3.5.85,4.01,1.03,5.93,1.48,6.23,1.13Z"/>
        </g>
        <g>
          <path class="cls-1" d="M134.02,52.79h-.06s-.02.06-.02.06c-.11.28-.15.6-.2.92-.09.64-.17,1.24-.74,1.49-.12.03-.24.11-.36.18-.14.09-.29.19-.38.16-.01,0-.05-.01-.09-.09l-.05-.08-.09.04c-.21.09-.18.31-.16.45v.05s.02.03.02.03c.05.1.04.17-.14.3l-.15.1.16.07c.12.06.2.17.29.28.07.1.15.2.26.28.28.9,1.14,1.43,2.14,1.31h.02c.07-.03.13-.06.2-.1.26-.15.5-.4.59-.69.05-.19.03-.38-.08-.54.13-.2.13-.4,0-.65.2-.55-.14-2.53-.66-3.27-.16-.23-.33-.33-.51-.3Z"/>
          <path class="cls-1" d="M131.28,50.3s.08-.02.12-.05c.37-.21.82-1.11,1.49-2.48.47-.97.95-1.96,1.26-2.21.89-.65,1.42-1.43,1.61-2.4.36-2.49.1-2.92-.17-3.01-.58-.21-1.57,1.36-2.9,3.59-.51.85-1.08,1.82-1.25,1.91,0,0,0,0-.01,0h-.11s0,.1,0,.1c-.01.38-.12.81-.24,1.27-.24.95-.48,1.93.04,2.62,0,.02-.02.04-.03.07-.05.13-.12.3-.07.45v.02s.02.02.02.02c.06.07.15.1.23.08Z"/>
          <path class="cls-1" d="M141.13,45.28c-.31-.04-.63-.5-.86-.82l-.03-.03c-.25-.16-.58-.15-.92.02-.51.25-1.08.91-1.16,1.76-.07.7-.49,1.45-1.46,1.46h-.04c-.27.11-.77-.11-1.25-.33-.63-.28-1.28-.57-1.77-.36-.23.1-.4.3-.51.61v.04s0,.04,0,.04c.27.61.84.9,1.39,1.18.56.29,1.14.58,1.44,1.23.77,1.04,2.01,3.07,1.75,4.9-1.01,3.17-.23,5.86,2.13,7.37.28.18.3.42.31.74,0,.16.01.32.06.49h0s0,.03,0,.03c.7,1.1,2.31.62,3.37.3.12-.04.23-.07.34-.1h.03c.66-.31,1.33-.62,1.94-.97,1.08-.63,2-1.41,2.42-2.61v-.03c.04-.4-.24-.43-.44-.45-.26-.03-.54-.07-.64-.63v-.04s-.04-.02-.04-.02c-.59-.46-1.1.06-1.55.52-.28.29-.57.58-.85.63h-.04s-.02.05-.02.05c-.12.19-.4.28-.7.37-.22.06-.44.13-.62.25l-.37-.75c.44-.58.4-1.32.35-2.03-.03-.52-.07-1.05.09-1.53.51-2.45-.44-3.21-1.86-4.37-.16-.13-.32-.26-.49-.4l-.04-.03h-.05c-.56.12-1,.28-1.36.41-1.07.39-1.35.5-2.22-1.7-.6-1.98-.22-2.1,1.22-2.55.25-.08.52-.16.83-.27.86-.01,1.44-.24,1.72-.66.26-.39.26-.94-.02-1.62l-.02-.06h-.06ZM139.34,61.04h0c-.61-1.18-1.53-2.95-.51-4,.27-.07.5.06.68.4.47.88.44,2.93-.16,3.6Z"/>
          <path class="cls-1" d="M127.77,52.84c.61-1.43,1.23-2.9.65-4.47l-.02-.04-.04-.02c-1.27-.58-2.58-.56-3.59.05-.27.17-.37.43-.45.65-.09.24-.16.43-.41.51h-.05s-.02.06-.02.06c-.14.4-.15.64-.15.81,0,.27-.01.36-.76.89-.16-.48-.52-1.34-.84-1.77.63-.46.81-1.39.77-2.16.49-.3.71-1.15.68-1.68-.02-.33-.13-.54-.31-.6-.2-.07-.46.06-.76.39-.6-.09-1.22.55-1.58.93-.23-.06-.47-.23-.69-.41-.33-.25-.67-.51-1.06-.45h-.03s-.02.02-.02.02c-.77.67-.51,1.49-.27,2.22.06.19.12.39.17.58v.03c.36.62-.69,1.39-1.38,1.9-.22.16-.41.3-.54.43-.32.36-.39.65-.23.86.46.58,2.68.16,3.29-.13.6.17.93.88,1.22,1.5.08.18.16.35.25.5.11.45-.06.84-.24,1.25-.19.43-.38.88-.22,1.42v.02s.02.01.02.01c.24.33.59.14.84,0,.14-.07.29-.16.36-.12.04.02.08.09.11.23.15.33.26.37.49.3.04-.01.08-.02.13-.03.36.46.75,1.04.64,1.5-.07.29-.32.53-.77.74-.29.15-.44.31-.44.47,0,.11.06.2.18.27.26.15.77.15,1.19-.08.13.08.25.14.37.19.17.08.33.16.55.32.61.99.21,2.45-.07,3.52-.13.5-.24.9-.23,1.16.03.49-.21.59-.49.7-.06.03-.13.05-.19.08-.1-1.83-.71-3.11-1.82-3.82-.19-.32-.66-1.4-.72-1.68v-.02s-.02-.02-.02-.02c-.09-.12-.05-.33-.02-.53.05-.31.1-.69-.31-.82l-.07-.02-.04.06c-.1.15-.22.32-.34.51-.43.63-.97,1.41-1.32,2.06-.4.73.31,2.39.73,3.38.09.21.16.39.22.52.2.49.85,1.14,1.39,1.37.17.16.35.12.49.09.14-.03.2-.04.28.04l.04.04h.06c.27-.06.54-.25.8-.44.18-.13.34-.24.49-.31h0s0,0,0,0c.3-.15.54-.15.78.13.52.54.09,1.5-.36,2.52-.48,1.09-.97,2.21-.46,3.06-.08.15-.09.21-.01.26.09.05.13-.01.22-.13.05-.08.13-.18.18-.24l.02-.03c.53-1.25,1.36-2.68,2.16-4.05.34-.58.65-1.12.94-1.65.16-.49.28-.52.3-.52.03,0,.07.04.11.1.2.34.27,1.14.11,1.38-1.39,3.13-5.01,9.99-5.04,10.05l-1.89,2.75c-.02.05-.55,1.26-.07,1.79.26.29.76.32,1.48.09h.02c.05-.04.11-.07.16-.1,2.03-1.17,2.98-3.56,3.65-5.77l.11-.36c.6-2.01,1.73-5.76,2.85-5.75.37,0,.94.47,1.53,2.67v.03s.03.02.03.02c.02.01,1.86,1.42,2.42,1.1.08-.05.17-.15.17-.36h0c.11-.06.18-.16.21-.27.16-.54-.52-1.52-1.12-2.38-.26-.38-.49-.71-.58-.91-.19-.44-.44-.96-.68-1.46-.3-.61-.66-1.38-.66-1.49v-.03s0-.03,0-.03c-.28-.93.96-3.57,1.22-3.67h.03s.02-.04.02-.04c.21-.29,1.25-1.81,1.14-2.81v-.04s-.03-.03-.03-.03c-.4-.38-.9-.36-1.43-.34-.63.02-1.28.05-1.89-.59l-.02-.02c-.15-.09-.14-.25-.11-.49.03-.25.07-.56-.23-.76l-.06-.04-.06.05c-.14.11-.25.16-.34.14-.15-.04-.26-.28-.36-.52-.03-.07-.06-.13-.09-.2.58-.68.76-1.26.47-1.58-.28-.3-.89-.22-1.56.21.09-.9.47-1.8.84-2.66ZM128.39,62.78c-.07-.47.17-1.02.65-1.46.38-.21.67-.27.84-.17.15.09.22.31.21.61-.02.65-.44,1.61-.96,1.92-.43-.21-.68-.53-.74-.91ZM127.59,60.03c-.39.16-.64.15-.76-.04-.28-.46.18-1.77.65-2.16h.01c.1-.13.2-.21.27-.25.06-.04.11-.04.14-.02.28.22,0,1.99-.31,2.48ZM125.78,56.82c-.2.17-.53.11-.97-.17h0c-.34-.21-.47-.69-.35-1.28.12-.57.48-1.21.97-1.49.1-.06.2-.1.3-.12.34.87.57,2.63.04,3.07Z"/>
        </g>
        <path class="cls-1" d="M185.71,40.76c-.57-.76-2.37.46-4.27,1.75-1.12.76-2.17,1.47-2.7,1.55-.42.13-.68.03-.81-.32-.46-1.23.89-4.75,1.34-4.95l.04-.02.02-.04c.9-1.63,2.15-3.53,3.24-5.21l.57-.87.02-.05c.18-1.36-.67-2.67-2.07-3.19l-.04-.02h-.04c-1.38.48-4.85,1.35-7.92,2.11-5.3,1.32-6.39,1.63-6.49,1.8-.21.38.14,1.15.95,2.04.79.87,2.37,1.21,3.17,1.11,1.67-.39,3.47-1.07,5.66-2.15.13-.07.28-.17.46-.28.74-.45,2.11-1.29,2.58-.99.16.11.22.37.16.76-.46,1.24-1.19,2.42-1.9,3.56-.43.7-.88,1.42-1.24,2.12-.49.7-.98,1.76-1.51,2.89-.78,1.69-1.67,3.61-2.69,4.5-1.97,1.56-7.37,4.68-9.92,4.92-.32.03-1.88.4-2.44.83-.1.06-.19.12-.27.17-.5.3-.65.43-.44,1.23.03.13.14.52,1.94.86,1.12.21,3.29.4,3.94.23.05-.01.09-.03.13-.05h0c1.06-.28,8.44-5.4,10.7-6.98,2.68-1.87,9.67-6.8,9.82-7.2l.02-.08-.04-.05Z"/>
        <g>
          <path class="cls-1" d="M54.35,102.76l.02.17.13-.11c.09-.08,2.26-1.98,2.2-3.41-.02-.38-.19-.7-.52-.94-.86-.62-4.43.43-5.48,1.28-.98.79-2.01,1.68-1.94,2.34.02.22.16.39.41.52l.05.03.03-.02s.17.02.31.04c.86.12,3.14.43,4.06-.6.68.04.74.67.75.7Z"/>
          <path class="cls-1" d="M82.88,112.23c-.73-.38-3.93.32-4.81,1.18-.32.31-.28.58-.2.75l.03.07.07-.02c1.55-.42,2.4.1,3.09.51.28.17.54.33.81.38.4.07.8-.11,1.31-.87v-.03c.03-.08.06-.17.08-.26.15-.52.39-1.31-.39-1.71Z"/>
          <path class="cls-1" d="M76.55,121.02c.03-.84,0-.88-.11-.89-.1,0-.22-.02-.68,3.33.03.35-.38,1.1-.71,1.3-.08.05-.14.05-.18.03-.08-.05-.25-.31-.09-1.54.05-.38.1-.78.16-1.21.55-4.2.92-7.2.59-7.54-.1-.1-.19-.14-.28-.14-.16,0-.27.15-.38.28-.08.1-.16.2-.25.24-1.31-.48-1.16-1.56-1.01-2.7.1-.72.2-1.46-.06-2.08l-.02-.04h-.05s0,0,0,0c-.14-.02-.37.07-.64.19-.18.08-.53.22-.59.18-.11-.16.01-1.69.49-2.45.18-.29.38-.42.6-.4h.02s.02,0,.02,0c0,0,0,0,0,0,.41.07,1.97,3.98,2.64,5.66.67,1.68.71,1.77.8,1.76.06.01.16,0,.25-.05.16-.1.22-.33.17-.67-.22-1.46-1.05-4.32-1.11-4.52-.02-.46-.24-.92-.46-1.36-.3-.6-.58-1.16-.32-1.68.27-.53.17-1.05-.27-1.44-.56-.5-1.49-.62-2.03-.26-.82.55-1.93,3.84-2.13,4.46-.23-.11-.44-.3-.65-.48-.11-.09-.21-.18-.31-.26h-.02s-.02-.02-.02-.02c-.16-.03-.35-.01-.55,0-.48.04-.81.04-.9-.28.18-.4.43-1.12.67-1.83.2-.57.39-1.11.51-1.4.39-.5,2.02-4.53,1.84-5.48-.02-.11-.07-.19-.14-.23-.45-.24-.84.01-1.13.26-.68.57-1.18,2.08-1.67,3.54-.29.87-.56,1.7-.85,2.21-.1-.25-.23-.54-.36-.84-.72-1.63-1.7-3.87-1.29-5.15.09-.19.07-.4.06-.61-.01-.17-.02-.33.02-.46l.05-.15-.16.04c-.1.03-.28.04-.45.05-.12,0-.24.02-.3.03-.46-.02-.83.17-1.2.35-.3.15-.59.3-.92.33h-.15s.09.14.09.14c1.76,2.55,1.63,3.05.95,5.84l-.12.51c-.12.48-.35.99-.56,1.03-.08.02-.16-.04-.25-.15-.07-.1-.13-.22-.18-.35-.12-.29-.27-.62-.69-.57-.58.07-.89.23-.97.48-.14.45.57,1.06,1.25,1.65.37.32.71.62.89.86-.04.19-.11.63-.19,1.23-.16,1.1-.57,4.03-.88,4.06,0,0,0,0,0,0-.02,0-.21-.09-.43-1.74-.88-3.64-1.61-9.04-1.32-11.77.15-1.43-.53-2.29-1.22-2.62-.57-.27-1.06.4-1.35.81-.07.09-.15.21-.18.23h-.03s-.01.05-.01.05c-.41.96-.86,2.09-1.3,3.18-.8,2.01-1.63,4.08-2.23,5.16-.13.24-.28.5-.43.76-.73,1.26-1.49,2.57-1.19,3.18.09.19.28.3.54.34.4.09,1.24-.07,1.85-.35,1.46-.65,1.98-3.68,2.4-6.11.22-1.29.45-2.63.75-2.72.05-.01.11.02.19.09.26.8,2.5,13.15,2.64,14.55.02.24-.01.55-.05.85-.06.47-.11.96.05,1.26.24.43.79.2,1.09.07.04-.02.07-.03.1-.04.3.54,1.01,3.4,1.7,6.17.63,2.53,1.29,5.16,1.74,6.51.27.49.45,1.22.64,2,.43,1.78.93,3.79,2.71,4.23.09.02.18.04.26.05.47.08.8.04,1.02-.12.22-.17.26-.42.27-.64v-.04c-2.08-4.82-5.02-12.44-6.66-17.69.03-.35.14-.37.38-.44.08-.02.17-.05.27-.08,2.54.01,2.73-2.02,2.92-3.99.04-.39.07-.79.13-1.17,1.05,5.26,4.33,6.41,5.35,6.64.37.19.91.03,1.18-.31.06.05.12.08.18.12.11.06.18.1.2.17l.02.04c.16.16-.06,1.15-.27,2.11-.44,2.01-1,4.52.1,5.28.07.05.13.09.18.13.38.27.57.41,1.04.12.75-.46.91-2.61.92-2.7,0-.03.2-2.97.07-4.33ZM69.49,110.34c.12-.03.8.26.89.38l.02.02c.69.48.37,1.5.07,2.49-.08.24-.15.48-.21.7-.03.12-.11.26-.19.41-.21.37-.46.83-.03,1.2h.02s.06.06.09.09c.08.08.17.17.27.15.05,0,.09-.04.13-.09.14-.06.23-.38.4-1,.12-.45.34-1.29.51-1.3,0,0,.07,0,.16.2.04.07.1.13.17.2.12.12.25.24.25.47,0,.1,0,.21,0,.33,0,.34,0,.76-.11,1.01l-.02.05c-.16.34-.29.61-.17.88.14.23.28.34.43.33.29-.02.5-.47.7-.9.09-.19.17-.36.25-.49.65.24,1.27,1,1.28,1.35v.09c.03.48.09,1.6-.25,2.24-1.77.52-4.03-1.53-4.44-2.58-.26-.65-.26-1-.27-1.37,0-.21,0-.43-.05-.72-.12-.66-.32-.85-.58-1.09-.05-.05-.1-.09-.15-.15-.02-.16-.13-1.01-.22-1.71-.06-.5-.12-.95-.14-1.08.22-.33.73-.27,1.13-.11h.03s.03,0,.03,0ZM63.6,118.54c-.15-.04-.46-.51-.05-4.02.12-.24.22-.85.34-1.63.19-1.26.46-2.98.94-3.26.07-.04.14-.05.22-.02.51.18.64-.12.73-.35.06-.16.02-.34-.11-.45-.16-.14-.32-.31-.47-.48l-.07-.07s-.14-.23-.02-1.08c.17-1.24.62-2.73.81-3,1.43,2.93,1.36,6.96-.2,10.53h0c-1.48,3.69-2.01,3.87-2.13,3.84Z"/>
        </g>
        <g>
          <path class="cls-1" d="M271.32,26.8c-.12-.25-.32-.43-.6-.53h0c-.79-.26-2.25.04-3.43.27-.65.13-1.61.33-1.74.22.17-1.36.75-2.95,1.31-4.48.76-2.08,1.48-4.05,1.13-5.3-.16-.58-.39-1.18-.98-1.59-.05-.04-.12-.04-.18-.02-.84.36-2.48,10.72-2.71,12.15l-3.66,1.45c-.34-.33-.16-1.24-.04-1.85.03-.15.06-.3.08-.41.17-.18.27-.33.34-.44.18-.27.22-.32.86-.24.07.04.19.06.36-.02.87-.46,2.51-3.71,2.51-4.32,0-.09-.03-.14-.08-.17-.21-.12-.49.16-.98.65-.34.34-.76.77-.98.76h0c-.4-.02-.63-.3-.74-.43-.02-.03-.04-.05-.05-.06l-.16-.16v.33c.02.45.03.96.08,1.43.05.45-.31.9-.66,1.15-.2.1-.29,0-.46-.24-.03-.05-.07-.1-.1-.14l-.05-.62c-.03-.53.09-1.08.21-1.62.12-.56.25-1.15.21-1.72-.04-.61-.42-1.47-1.99-2.09h-.03c-.07-.07-.13-.05-.16-.04-.24.1-.33,1.05-.39,4.09,0,.56-.02,1.01-.03,1.18-.3.52-.89.91-1.58,1.05-.12.02-.24.04-.36.07-.33.08-.67.16-.94.03-.39-.29-.57-.51-.57-.56l.06-.21-.19.1c-.71.35-.6.77-.48,1.22.04.17.09.34.1.53v.04s.04.03.04.03c.17.12.23.36.28.59.01.06.03.12.04.18v.03s.03.02.03.02c.7.61,1.76.24,2.53-.2l.08-.07c.24-.22.53-.48.83-.44-.01.24.02.75.04,1.21.01.28.03.52.03.65v.07s.07.02.07.02c.07.02.4.26.64.43.23.16.47.33.61.42.02.06.06.12.1.17l-4.99,1.84c-.48.27-3.69.8-4.63.71h-.02s-.02,0-.02,0c-.82.23-3.04,0-3.19-.08l-.14-.1v.17c0,.1-.01.22-.02.33,0,.11-.01.21-.02.3v.06s.05.03.05.03c.01,0,.02.05.01.19v.05s0,.08,0,.08l.07.02c.06.01.09.03.07.15v.07s.05.03.05.03c.26.14.54.33.82.52.27.19.55.38.81.52,2.15,1.25,6.88-1.49,7.82-2.05,0,.16.02.34.05.46-.03.08-.06.22-.1.37-.08.32-.26.98-.34,1.06l-.02.02v.02c-.06.12-.06.22-.01.31.09.18.34.26.56.32.1.03.19.06.25.09h.04c.54.07,1.07-.27,1.54-.57.17-.11.33-.21.5-.3.29-.24.56-.53.84-.81.43-.46.88-.93,1.39-1.21.17.02,1.07.17,1.05.75-.05.14-.1.3-.14.46-.11.4-.22.81-.49,1.06-.42.6-1.15.98-1.8,1.31l-.17.09c-.33.27-.93.72-1.24.89-.17.08-.36.17-.56.26-1.07.49-2.41,1.1-2.72,2.03l-.04.11h.12c.2.03.35-.11.49-.24.05-.05.1-.1.16-.14.27-.19.55-.12.8-.05.09.03.18.05.26.05h0s.09,0,.09,0c.09,0,.19,0,.21.01.01.02,0,.12,0,.22v.07c-.02.12,0,.22,0,.29.02.13.03.2-.11.38l-.02.03c-.03.1-.13.18-.23.26-.14.12-.31.25-.29.47,0,.05,0,.11-.01.19-.02.15-.04.35.05.46l-2.48,1.57v.1c-.01.23-.04.86.39,1.1.27.15.43.11.53.08.06-.02.06-.02.08,0l.02.03h.04c.74.1,1.44-.36,1.77-.64.18-.09.27-.35.3-.51.13-.18.32-.15.61-.08h.03c.02.26.07,1.23-.36,2.14-.34.73-1.29,1.05-2.29,1.38-.4.14-.82.28-1.2.44-1.3.57-2.56,1.45-3.73,2.3-.4.29-1.39,1.09-1.71,1.61v.02s-.01.02-.01.02c0,.21-.02.44-.04.67-.01.21-.02.42-.03.6v.04s.02.03.02.03c.06.07.11.13.15.2.22.29.39.51.66.52.19,0,.42-.08.75-.32.34-.38.59-.79.86-1.23.27-.45.56-.92.97-1.41.73-.88,3.51-2.6,4.05-2.93.2.42,1.03,2.08,2.18,2.99l.03.02c.76.21,1.55-.38,2.09-1.62.04-.16.4-1.63.48-3.09.1-1.86-.27-3.49-.35-3.84.13-.08.32-.12.5-.15.11-.02.21-.04.3-.07,0,0,0,0,0,0,.44.02.86-.43.92-.75.03-.15-.05-.25-.12-.35-.11-.14-.22-.28-.08-.65.09-.03.17-.03.24-.04.28-.03.4-.1.38-.56v-.05s-.05-.03-.05-.03c-.04-.02-.04-.08-.03-.19,0-.05.01-.1,0-.14v-.05s-.11-.06-.11-.06c-.83-.45-.98-.69-.97-.81.02-.14.15-.31.33-.44.27-.2.6-.29.89-.25.23.04.4,0,.52-.13.21-.22.17-.62.12-.96-.05-.26-.27-.47-.49-.67-.22-.2-.43-.39-.39-.59.06-.33.27-.39.71-.5.07-.02.13-.03.21-.05.55-.15,2.14-1.72,2.2-2.62.01-.16-.03-.29-.14-.39-.29-.29-.98-.22-1.71-.15-.35.03-.68.07-.95.06-.54-.02-1.51.61-2.45,1.22-.68.44-1.52.99-1.69.9-.22-.15-.19-.41-.16-.7.01-.12.03-.24.02-.36v-.03s-.02-.02-.02-.02c0-.35,3.15-1.64,4.5-2.18,1.26-.51,1.57-.65,1.65-.73.67-.45,1.7-.68,2.39-.73,1.04-.1,2.49.05,4.45.48l.08.02.03-.07s.35-.9.07-1.52ZM257.39,46.81c-.32.11-.59-.05-.73-.15-.19-.15-.27-.3-.27-.31.34-.39,1.04-.67,1.32-.76.03.38.03,1.11-.31,1.23Z"/>
          <path class="cls-1" d="M266.21,45.25c-.27-.2-.58-.34-.88-.47-.18-.08-.36-.16-.53-.25-.49-.27-1.08-.34-1.7-.22h-.02c-.07.03-.14.04-.21.06-.16.03-.34.07-.4.27-.08.25.12.35.24.41.04.02.08.04.11.06.24.18.46.35.55.62.07.21.16.44.31.62.3.37.38.75.24,1.2,0,.02-.01.04-.02.06-.04.09-.11.29.1.39.04.02.09.03.13.03.15,0,.26-.09.34-.16l.03-.02c.29-.25.62-.34,1.01-.32.49.04.86-.16,1.13-.56.34-.51.15-1.26-.44-1.7Z"/>
        </g>
        <g>
          <path class="cls-1" d="M313.93,54.76h-.1c-1.04-.11-2.73-.77-3.85-1.3-1.28-.74-2.77-2.61-3.86-3.97-.19-.23-.36-.45-.51-.64v-.44s1.63-1.6,1.63-1.6c.54-.51,1.57-1.42,2.05-1.59l.04-.02.02-.04c.06-.1.11-.18.15-.26.34-.58.35-.63-.02-1.11-.09-.11-.2-.25-.33-.44l-.03-.03c-.11-.07-.24-.17-.37-.27-.35-.27-.75-.57-1.16-.61h-.03s-.03.01-.03.01c-.12.05-.6-.04-1.02-.16.04-.31.19-1.32.69-1.87l.21-.23c.8-.89,2.46-2.73,3.5-3.8l.07-.03c.4-.16,1.24-.49,1.62-.5h.04c.18-.08.54-.19.88-.3.33-.11.68-.21.87-.28l.11-.04v-.03s.09-.07.09-.07l.04-.03.03-.21v-.04c-.02-.08-.18-.81-.52-1.03l-.15-.1c-.22-.14-.42-.27-.55-.39.09-.86-.49-1.52-1-2.11l-.03-.02c-.09-.05-.25-.21-.42-.36-.48-.46-1.07-1.02-1.51-.8l-.04.04c-.09.13-.1.28-.11.49-.02.29-.05.68-.33,1.16l-.17.29c-.46.79-1.02,1.78-1.39,2.38-.13.09-1.01.58-1.35.7-.29.1-2.27.7-3.46,1.06l-.82.25c-.73.19-2.09.51-3.16.76l-.21.05.15.15c.32.32,1.76.13,3.92-.2,1.11-.17,2.36-.36,2.57-.26.13.07.22.16.25.28.07.23-.04.57-.28.97-.14.22-.45.67-.81,1.18-.44.63-.93,1.34-1.23,1.81-.09.11-.19.22-.29.32-.32.33-.65.67-.53,1.28.06.14.12.26.16.36.3.69.39.68,1.28.32l.09-.04h0c.1-.03.29-.09.71-.21.15.11.27.18.37.24.31.19.31.19.27.77-.2.52-1.47,1.71-2.08,2.29-.07.07-.14.13-.2.19l-1.26-1.24c-.16-.12-.34-.26-.52-.41-.47-.38-1.01-.81-1.46-1.07l-.2-.11.02.23c.03.39.41,1.26.66,1.85.05.12.1.23.13.3.14.45.46,1.33.64,1.75.03.12.05.21.07.28q.05.18.03.24v.04c-.52.85-2.46,2.15-3.51,2.86l-.25.17c-.68.35-4.02,1.21-4.49,1.17l-.06-.21-.14.23c-.11.19-.23.29-.34.39-.17.15-.33.29-.28.63.05.35.44.52.77.61.13.03.24.06.33.07.04,0,.07.01.09.02h.02s.02,0,.02,0c1.77-.04,3.8-1.03,5.59-1.9.51-.25,1-.48,1.46-.69.07-.05.15-.11.26-.19.44-.33,1.23-.93,1.65-1.05l.51.49c.45.75,1.28,2.3,1.65,3.1.04.08.08.19.13.33.16.45.38,1.06.85,1.15,1.49.48,3.4.24,4.94.04.22-.03.43-.05.64-.08.03,0,2.13-.31,2.13-.31l.11-.02-.07-.62Z"/>
          <path class="cls-1" d="M297.82,37.91c0-.06-.03-.11-.08-.14-.24-.13-1.17.33-1.88.75.83-2.23,1.42-3.47,1.84-3.79.53-.49,1.34-.65,1.37-.66l.24-.1c.61-.25,1.58-.64,2.13-.87h.03c.28-.22.91-.75.75-1.07-.09-.18-.35-.32-1.62,0-1.22.31-1.35.16-1.35.16-.02-.09.31-.42.67-.68l.48-.82-1.02-1.68c-.08-.15-.76-1.42-1.42-1.15l-.62.26-.02.05c-.44,1.33-1.75,4.8-2.64,4.88-1.61.24-2.95.28-4.19.11-.2-.03-.45-.04-.59.11-.14.14-.12.37-.09.52.15.87,1.08,1.59,2.17,1.68.44.04,1.19.03,1.53.03-.21.62-1.01,2.91-1.88,5.39-.92.41-1.84.77-2.81,1.15-.76.3-1.56.61-2.35.95-.43.23-1.08.42-1.65.58-.78.22-1.26.37-1.41.58l-.1.14c-.43.59-.81,1.15-.61,1.47.41.66,2.11.72,2.89.53,1.63-.28,3.28-1.12,5.03-2.55-.85,2.37-1.39,3.82-1.61,4.31-.65,1.44-1.25,2.29-1.69,2.39-.12.03-.23,0-.34-.1-1.13-.98-1.4-1.2-1.59-1.06-.2.15-.06.52.77,2.48.11.26.14.72.17,1.2.06,1,.13,2.14.91,2.35,1.31.35,2.66-1.68,2.92-2.09.75-1.22,1.32-2.33,1.78-3.47.44-.95.78-1.9,1.07-2.9.34-.99.7-2.06,1.08-3.2.46-1.38.94-2.8,1.39-4.09.2-.13.39-.25.57-.35,1.77-1.01,1.77-1.23,1.77-1.32Z"/>
        </g>
        <g>
          <path class="cls-1" d="M107.5,81.94c-.98-.31-4.22-.5-4.77.88l-.03.07.05.05c.4.42,1.04.64,1.65.84.25.08.49.16.7.25.25.47.65.65,1.18.55.09,0,.17,0,.26,0,.37,0,.79,0,1.11-.27.04-.03.08-.07.11-.11.38-.38.54-.98.41-1.49-.1-.38-.34-.65-.68-.76Z"/>
          <path class="cls-1" d="M93.77,95.96c-.25.53-.49,1.07-.72,1.6-.28.64-.57,1.31-.89,1.96-.24.55-.58,1.14-.91,1.7-.64,1.08-1.14,1.94-.8,2.32.29.33,1.09.18,2.69-.49.09-.04.17-.09.24-.15.45-.37.47-1.15.49-1.68,0-.1,0-.2.01-.29,0-1.44.25-2.89.5-4.3l.09-.54c.03-.17-.06-.32-.21-.37-.16-.05-.38.01-.49.23Z"/>
          <path class="cls-1" d="M91.81,88.76c-.22-.57-.45-1.14-.67-1.71-.64-1.61-1.3-3.28-1.84-4.97-.19-.59.1-1.5.4-2.11.49-.99,1.05-1.98,1.59-2.94.47-.84.96-1.7,1.4-2.57.89-1.74,1.32-3.52,1.27-5.29,0-.28-.05-.69-.32-.9-.2-.16-.49-.2-.9-.13-.3.06-.59.04-.91.02-.23-.02-.48-.03-.72-.01-.62.05-1.26.12-1.87.2-.26.03-.53.06-.79.09h-.08s-.07.4-.07.4l.1.02c.1.02.19.05.29.07.22.05.44.1.64.17.2.07.4.16.6.25.11.05.21.1.32.15.91.39,1.06.75.71,1.67-.46,1.21-.98,2.44-1.48,3.62l-.31.74c-.14.34-.31.68-.5,1.07-.07.14-.14.28-.21.44l-.11-.31c-.12-.32-.22-.58-.31-.84-.21-.59-.43-1.18-.64-1.77-.52-1.45-1.06-2.96-1.62-4.42-.26-.67-.87-.98-1.81-.91h-.12s.02.13.02.13c.06.33.12.66.17.99.11.71.22,1.38.43,2.02.76,2.42,1.58,4.83,2.43,7.14.3.81.17,1.57-.44,2.54-.53.84-1.03,1.67-1.56,2.55-.22.37-.45.75-.68,1.12l-.06.11.11.05c.87.39,1.37-.23,1.81-.77l.12-.15c.38-.46.75-.93,1.17-1.45l.47-.59.12.33c.1.28.18.5.26.73.19.54.38,1.08.57,1.62.45,1.28.91,2.6,1.43,3.86.14.34.19.71.25,1.11.11.8.23,1.62,1.12,2.15.7.42,1.37.53,1.95.33.58-.2,1.05-.73,1.35-1.53.24-.63.48-1.25.74-1.92l.32-.84s.09.07.13.11c.15.12.29.23.39.36.28.32.55.65.81.97.51.62,1.03,1.27,1.62,1.84.37.37.54.68.53.99-.01.41-.34.87-1.07,1.51-.29.25-1.44,1.2-1.45,1.21l-.36.29.45-.1c.08-.02,1.98-.45,2.62-.66.01,0,.05-.01.1-.02,1.55-.39,2.72-.9,3.43-1.49.24-.2.42-.41.56-.62v-.03c.51-1.83-.48-3.09-1.62-4.33-.4-.44-.84-.86-1.25-1.27-.51-.49-1.03-1.01-1.5-1.54-.72-.82-1.42-1.7-2.09-2.54-.35-.44-.71-.89-1.06-1.33-.24-.29-.53-.46-.8-.47-.21,0-.4.08-.56.26l-.22.23c-.87.95-1.77,1.92-1.8,3.3-.02.99-.17,1.99-.3,2.76-.05.28-.18.58-.33.92-.05.12-.11.26-.17.4-.03-.04-.05-.07-.08-.1-.07-.1-.11-.15-.13-.21Z"/>
        </g>
        <g>
          <path class="cls-1" d="M215.45,20.63h.06s.08,0,.12,0h.06c.4-.03.71.06.91.26.21.21.31.55.29.98-.02.39-.18.74-.35,1.1-.05.11-.1.21-.14.33-.05.12-.14.34.05.48.06.04.12.06.17.06.13,0,.23-.12.29-.19.13-.14.25-.28.38-.43.16-.18.31-.35.47-.53.21-.23.47-.36.75-.49.19-.09.4-.19.58-.32.26-.19.4-.43.42-.69.02-.27-.1-.56-.34-.79-.25-.24-.54-.34-.82-.44-.1-.04-.2-.07-.3-.11-.83-.35-1.69-.27-2.72.25-.02,0-.04.02-.05.03-.1.04-.3.13-.22.36.07.2.27.19.39.18Z"/>
          <path class="cls-1" d="M211.66,27.84c-.05-.71.09-1.52.34-2.01.1-.2.25-.37.4-.54.3-.35.62-.71.46-1.29-.19-.91-.6-1.36-1.26-1.36-1.12,0-2.8,1.27-4.28,2.38-.25.19-.49.37-.73.54-.34.19-.6.34-.75.43-.38.23-.6.39-.77.52-.26.2-.42.31-.95.48-.03,0-.07.02-.12.03-.03.01-.06.03-.08.03l-.11.03c-.91.26-1.99.65-1.97.99.01.22.1.4.27.54.32.27.92.37,1.65.28h.01s.01,0,.01,0c.05,0,.11-.02.15-.03.25-.04.5-.1.72-.18.18-.06.46-.17.77-.29.54-.21,1.22-.47,1.44-.51.05,0,.1-.02.16-.03.28-.06.67-.14.79,0,.05.06.1.25-.14.75-.63,1.35-.87,2.18-.95,2.53-.28-.29-.94-.86-1.63-.49-.79.43-.73,1.1-.66,1.8.01.11.02.22.03.33.03.45.07,1.51.07,1.51-.01.16.03.37.09.63.11.49.25,1.17.02,1.84-.21.61-.41,1.31-.12,1.85.19.36.55.61,1.12.77h.04s.04,0,.04,0c1.16-.67,1.76-1.23,1.9-1.78.12-.46-.1-.83-.31-1.18-.32-.54-.66-1.1.3-1.81l.03-.03c.52-.93.77-1.05.93-1.05.07,0,.14.03.19.08.24.25.14,1.54.05,2.69-.02.22-.03.45-.05.67-.09,1.32-1.05,2.52-1.98,3.51l-.03.03c-2.55,2.91-6.66,6.25-8.46,6.88h-.02s-.02.03-.02.03c-.19.21-.26.41-.23.62.09.48.8.85,1.55,1.25,1.66.87,4.25-1.27,5.96-3.37.74-.91,1.32-1.92,1.75-2.66.34-.59.69-1.2.83-1.2h0c.06,0,.1.02.14.06.25.28.14,1.35.03,2.29-.08.76-.16,1.48-.06,1.86.02.26.02.56.02.88,0,.26-.03.54-.05.84-.09,1.02-.18,2.17.75,2.39.07.02.14.03.21.03.12,0,.23-.05.34-.13.68-.5,1-2.35,1.01-3.45,0-.31,0-.83,0-1.47,0-2.11-.02-5.65.08-6.65,1.35-6.07,1.09-10.66,1.08-10.85ZM209.16,30.08c.04.33.04.55-.22.68-.05.02-.1.04-.16.05-.29.05-.67-.06-.78-.3-.05-.11-.07-.29.14-.51.19-.15.21-.32.22-.49.01-.2.03-.4.3-.55.06-.03.1-.05.15-.06.01,0,.02,0,.03,0,.06,0,.11.02.16.06.15.15.15.55.15.83v.13c0,.05.01.1.02.15Z"/>
          <path class="cls-1" d="M231.23,22.07c-.36-.32-1.44-.58-2.05-.49-.11.02-.2.1-.24.14l-.03.04v.04c0,.06.05.16.1.2.37.32.54.75.71,1.2.03.07.06.15.09.22.22.54.62.88.83.93.09.02.17.02.25.02.25-.01.44-.12.61-.23.22-.15.34-.36.36-.64.04-.56-.39-1.22-.63-1.43Z"/>
          <path class="cls-1" d="M231.53,38.11c-.11-.03-.13.03-.33.52-.23.6-.78,1.99-1.18,1.93-.21-.03-.6-.53-.81-3.51-.06-.79.46-1.5.91-2.13.4-.56.78-1.08.73-1.61-.03-.32-.15-.55-.36-.68-.49-.31-1.35-.07-2.23.25-1.47-2.51-.66-3.02.28-3.6.62-.39,1.33-.82,1.35-1.9v-.03s-.02-.03-.02-.03c-.8-1.18-1.16-1.06-1.78-.73-.26.14-.56.3-.99.36-.96-1-1.09-2.76-1.21-4.46-.11-1.56-.21-3.04-.92-3.99l-.03-.04h-.05c-.51,0-.9.15-1.17.45-.72.83-.44,2.69-.12,4.85.47,3.19,1.07,7.16-1.53,9.05-2.87,2.08-3.89,2.05-4.24,1.84-.27-.16-.29-.47-.28-.58.35-.25,2.76-2.04,2.55-3.34-.08-.47-.48-.82-1.19-1.03h-.02s-.02,0-.02,0c-.38.04-.64.26-.89.47-.31.26-.61.52-1.15.45-.62-.71.31-1.7,1.21-2.66.77-.82,1.49-1.59,1.31-2.23-.11-.37-.51-.65-1.24-.83-.88-.23-1.82.37-2.64.9-.4.25-.77.49-1.11.63-.1.04-.24.05-.33-.03-.04-.03-.12-.08-.24-.03-.28.11-.65.74-.7,1.35-.04.48.13.84.48,1.06l.04.02.04-.02c.12-.05.28-.12.45-.21.47-.23,1.11-.55,1.51-.4.13.05.22.14.3.28-2.47,4.29-2.4,5.2-2.14,5.5.27.31.85.08,1.37-.13.21-.09.53-.22.59-.19.03.08-.1.48-1.38,2.19l-.02.03c-.25.79-.85,1.38-1.49,2-.63.62-1.29,1.25-1.58,2.14-.08.96.04,1.49.37,1.65.53.27,1.43-.55,2.3-1.33.47-.42.91-.83,1.23-.99.34,0,.56.11.66.29.18.33-.03.99-.56,1.81-.17.27-.32.55-.44.83-.44,1.09-1.51,3.79-1.83,5.37v.04s.01.03.01.03c.34.6.71.9,1.09.88.02,0,.03,0,.05,0,1-.13,1.83-2.44,2.35-4.35.16-.58.24-1.1.31-1.52.09-.54.16-.97.32-1.04.09-.04.25.02.48.18-.52,2.99-.01,4.54.63,4.99.29.2.63.21.96.03.82-.47,1.54-2.18,1.3-4.94-.16-2.18.85-3.97,1.92-5.87.55-.97,1.12-1.98,1.5-3.02.71-1.08,1.07-1.27,1.23-1.23.28.06.42.79.56,1.5.14.72.3,1.53.64,2.08.08.61-.3,1.15-.66,1.67-.52.74-1.05,1.51-.01,2.33l.03.03h.04c.43-.07.77,0,1.04.22.7.57.78,2.04.85,3.35.04.69.08,1.35.19,1.84.07.95,1.08,1.55,1.95,1.51h.02c.65-.04,1.04-.43,1.01-1.03-.06-1.21.26-3.32.58-5.36.07-.46.14-.93.21-1.38.04-.27.06-.39-.05-.42ZM220.18,35.66c-.21.8-.49,1.48-.64,1.48s-.23-.01-.26-.06c-.05-.07-.06-.24.14-.7.15-.36.53-.6.76-.72Z"/>
        </g>
        <g>
          <path class="cls-1" d="M431.01,117.48c-.35-.81-1.04-1.24-1.72-1.66-.1-.06-.19-.12-.29-.18-.96-.61-2.05-1.17-3.43-1.77-.3-.13-.4-.24-.26-.57.2-.45.22-.92.07-1.31-.04-.11-.08-.26-.02-.35.05-.07.18-.11.41-.1.27,0,.55.03.82.05.17.01.34.03.5.04l.31.02c1.22.07,2.49.14,3.73-.06.64-.11,1.07-.51,1.23-1.16.07-.26.04-.46-.07-.57-.11-.12-.3-.14-.56-.08-.1.02-.2.05-.3.08-.27.07-.53.14-.81.15-.43,0-.85.01-1.28.01-1.52.01-3.09.03-4.63.16-.47.04-.85-.09-1.21-.4-.42-.36-.85-.72-1.28-1.06l-.4-.33c-.13-.11-.33-.27-.54-.13-.22.15-.16.44-.14.54.03.13.07.26.12.36.2.45.33.75.27.85-.06.1-.4.12-.92.15h-.04c-.12,0-.29,0-.34.2-.05.18.04.36.24.45.08.04.17.05.25.06.06,0,.11.02.16.03.23.07.46.11.69.16.43.08.83.15,1.19.38.17.11.27.2.25.33-.01.1-.08.13-.23.17l-.06.02c-1.79.47-3.46-.14-5.07-.73l-.32-.12c-.12-.04-.2-.12-.21-.2,0-.08.05-.16.17-.23.51-.31.78-.76.83-1.41.02-.28.06-.56.11-.83.04-.23.07-.48.1-.72,0-.06.02-.13.03-.2.05-.33.13-.77-.35-.89-.37-.1-.5.21-.61.46-.05.11-.09.22-.15.29-.11.14-.21.3-.31.45-.24.38-.46.74-.9.82-.34.06-.55.17-.64.34-.09.16-.09.38.03.68.05.13.08.28.11.45.02.12-.01.23-.08.27-.05.03-.11.03-.17,0-.41-.22-.86-.31-1.29-.4-.32-.07-.66-.14-.97-.26-.17-.07-.27-.14-.31-.25-.05-.11-.03-.25.06-.45.25-.6.48-1.22.71-1.86.11-.29.07-.53-.11-.66-.09-.07-.19-.1-.29-.08-.17.03-.3.18-.36.26-.34.5-.84.84-1.33,1.16-.15.1-.3.2-.45.31-.51.37-.86.8-1.07,1.34-.14.35-.11.72.08.98h0c.17.25.45.37.78.37,2.06-.06,3.98.49,5.74,1.09.31.11.5.18.46.45-.05.31-.31.39-.53.4-.3.02-.6.04-.9.05-.32.02-.64.04-.97.06-.08,0-.17,0-.26,0-.23-.02-.47-.03-.61.1-.07.07-.11.16-.12.28-.01.46.58.51.97.55h.05c.25.03.5.04.76.06.3.02.62.03.93.07.28.03.46.11.55.23h0c.09.13.1.33.05.6-.08.41-.1.85-.07,1.35.04.49.37.83.86.88.26.02.61-.08.76-.74.03-.13.06-.25.1-.38.11-.38.22-.78.16-1.19-.05-.38.09-.56.5-.65.5-.11,1.02-.11,1.52-.1.29,0,.58,0,.87,0h.22c.73-.06,1.49-.11,2.2.14,1.76.61,3.42,1.47,5.1,2.63.18.12.24.27.22.48-.02.19-.14.22-.36.25l-.49.07c-1.2.16-2.44.33-3.67.27-.33-.02-.53-.14-.65-.4-.16-.35-.26-.52-.42-.57-.18-.05-.37.07-.67.27l-.13.09c-.46.32-.88.62-1.44.19-.17-.13-.41-.07-.57.04-.4.28-.8.28-1.38-.02-.16-.08-.5-.26-.71.06-.18.27.03.5.16.65l.04.04c.94,1.04,2.13,1.55,3.55,1.51h.07c1.52-.04,3.08-.08,4.63-.13,1.29-.05,2.36-.13,3.26-.63h0c.67-.45.77-.75.49-1.41Z"/>
          <path class="cls-1" d="M413.4,117.74c.58.24,1.16.52,1.71.79.49.24,1,.49,1.51.71.17.07.24.15.23.26,0,.11-.07.16-.26.2-.16.03-.34.06-.52.07-.6.05-1.21-.02-1.79-.09-.31-.04-.63-.08-.95-.1-.06,0-.12-.02-.18-.03-.2-.04-.51-.1-.6.24-.09.34.2.43.4.49.07.02.13.04.17.06.7.37,1.45.62,2.18.85.44.14.89.29,1.32.46.79.32,1.56.27,2.29-.14.3-.14.43-.44.35-.81-.12-.57-.35-1.28-1.11-1.65-.69-.34-1.39-.67-2.08-1.01l-.31-.15c-.49-.24-1.22-.52-2.14-.89-2.77-1.09-7.39-2.9-11.22-5.76-.47-.35-.96-.66-1.44-.96-.87-.55-1.69-1.06-2.39-1.8-.2-.21-.38-.31-.54-.29-.17.02-.33.14-.51.4-.51.76-.44,1.81.12,2.61.1.15.22.28.36.41,1.49,1.39,3.28,2.16,4.84,2.72,2.62.94,4.73,1.55,6.43,2.04,1.63.47,2.92.85,4.13,1.34Z"/>
          <path class="cls-1" d="M416.78,125.14c-.24-.42-.57-.64-.86-.79-.51-.27-1.02-.56-1.51-.84-.32-.18-.63-.36-.95-.54-.71-.4-1.41-.85-2.08-1.28-.21-.13-.41-.27-.62-.4-.75-.48-1.56-.88-2.34-1.27-.58-.29-1.18-.59-1.75-.92-.29-.17-.83-.37-1.41-.59-.67-.25-1.43-.54-1.56-.7-.09-.12-.1-.15-.09-.15.03-.03.09-.07.08-.17,0-.05-.04-.1-.1-.13-.23-.11-.89-.13-1.25.14-.15.12-.31.33-.24.72.11.56.27,1.08.49,1.57.48,1.08,1.23,1.85,2.31,2.36.13.06.3.17.31.29.01.1-.08.23-.26.38-.34.27-.74.51-1.22.73-1.14.53-2.44,1.12-3.56,1.95-.85.63-.92.68-1.93-.31-.14-.14-.25-.29-.32-.44-.26-.58-.6-1.13-.92-1.67-.53-.88-1.08-1.78-1.3-2.83,0-.02,0-.04-.01-.06-.02-.12-.05-.28-.17-.36-.07-.05-.17-.06-.28-.03-.3.08-.29.34-.28.53v.07c.02.98.63,6.3.85,7.26.07.29.11.59.16.88.1.67.19,1.31.58,1.86.01.02.03.04.04.06.11.15.35.24.68.28.56.06,1.35-.09,1.85-.53l.43-.38c1.27-1.14,2.28-2.03,3.36-2.81.19-.14.37-.27.56-.41.96-.71,1.95-1.43,3.78-2.34.49-.24,1.31-.19,2.28.14.94.32,1.67.79,1.71.89.01.03.02.05.01.06-.02.03-.11.06-.18.09-.12.04-.26.08-.33.2-.02.03-.02.07-.01.11.06.19.53.41,1.65.9.29.13.56.24.75.34,1.08.53,2.2,1.01,3.14,1.03.21.07.4.05.57-.05.33-.19.48-.63.55-.96.14-.67-.2-1.42-.59-1.86Z"/>
        </g>
        <g>
          <path class="cls-1" d="M357.74,65.91c0-.05-.01-.09-.03-.11-.64-1.67-6.33-2.01-8.07-2.07-2.02-.07-5.3-.02-5.51.46-.26.72-.26,1.25.02,1.62.53.72,1.9.64,3.11.58.24-.01.47-.03.68-.03.1,0,.44,0,.66,0-2.21,4.07-5.8,9.95-6.86,9.83-.72-.08-1.36-1.58-1.54-2.16l-.1-.3-.1.29c-.14.39-.28,4.33.42,5.71.11.21.24.36.38.45.04.02.08.04.12.05.56.17,1.22.32,1.9-.04.48-.25.91-.65,1.33-1.21,3.13-4.3,5.39-7.87,6.71-10.6.3-.61.48-.8.89-1.21l.05-.05c.44-.44.86-.56,1.36-.6.7-.06,1.54-.04,2.29-.02,1.11.03,1.74.03,1.94-.12.23-.19.35-.34.35-.47Z"/>
          <path class="cls-1" d="M337.87,53.65h0c.29-.07.46-.11.55-.14.1-.02.27-.06.55-.11.52-.11,1.11-.27,1.59-.79,0-.01.02-.03.04-.05.05-.07.13-.17.17-.3.21-.71-.02-1.44-.25-2.14-.04-.13-.16-.25-.32-.26-.16,0-.27.09-.32.27l-.05.17c-.03.11-.06.22-.09.33-.14.59-.46.95-1.02,1.13-.36.11-3.05.58-5.2.95-1.08.19-2.06.36-2.64.46-.34.06-.68.14-1,.21-.69.15-1.4.31-2.13.35-.09,0-.17,0-.26,0-.12,0-.24,0-.35,0-.19.01-.32.14-.33.32,0,.14.06.26.2.34.03.02.06.03.1.05l.09.04c.16.06.33.12.51.12.68-.02,1.37,0,2.04,0,1.25.02,2.54.03,3.79-.13,1.33-.17,2.74-.44,4.31-.82Z"/>
          <path class="cls-1" d="M346.09,60.71l.46-.08c2.37-.41,10.42-.46,12.49-.44h.12s-.01-.12-.01-.12c-.25-2.18-2.95-1.97-5.12-1.8-.6.05-1.16.09-1.61.08h-.24c-1.28,0-1.41,0-1.58-1.33v-.03s-.03-.02-.03-.02c-.43-.48-.62-.92-.59-1.34.04-.46.35-.9.96-1.37.77-.67,2.7-2.64,2.35-3.73-.13-.4-.54-.64-1.21-.7h-.04s-.03.02-.03.02c-1.75,1.39-3.2,2.75-4.73,4.18-.82.77-1.67,1.57-2.63,2.44-.63.8-2.33.94-3.97,1.07-1.42.12-2.88.24-3.76.77-.99.4-4.68,2.88-5.77,3.63.35-.88,1.01-3.29-1.16-5.06-.1-.08-.22-.08-.32,0-.1.07-.13.2-.08.31.41.95.5,1.87-1.71,6.52v.03s0,.03,0,.03c.15.74.94,2.3.97,2.37l.07.13.1-.11s3.52-3.71,5.38-5.35c1.08-.96,1.82-1.27,2.67-1.64.12-.05.25-.11.37-.16,1-.44,2.84-.2,3.61.76.55.69.45,1.6-.29,2.6-.31.26-1,.61-1.8,1.01-1.74.87-3.71,1.86-3.61,2.79.05.47.61.84,1.7,1.13.16.06.42.02.69-.02.23-.03.58-.08.65,0,.02.02,0,.07,0,.11-.04.17-.18.92-.41,2.1l-.28,1.46.71-.76c.54-.94.91-1.78,1.24-2.51.77-1.71,1.38-3.05,3.46-4.71l.03-.02v-.04c.32-1.58,1.16-2.88,2.36-3.67,1.09-.72,2.45-.98,3.83-.74-.88.59-1.75,1.19-2.83,1.95l-.38.27Z"/>
          <path class="cls-1" d="M337.25,48.3c.16.09.36.17.61.23l.08.02.04-.08c.31-.64,2.05-1.22,3.9-1.84,2.38-.79,4.84-1.61,5.26-2.83.13-.37.06-.75-.21-1.14-.24-.41-1.04-.43-2.38-.05-1.48.42-3.43,1.29-4.98,2.22-1.04.63-2.79,1.82-2.77,2.77,0,.29.16.52.46.69Z"/>
        </g>
      </g>
      <g>
        <path class="cls-1" d="M174.27,322.74l.61-2.28,15.4,4.12-.61,2.28-15.4-4.12Z"/>
        <path class="cls-1" d="M203.29,317.73l2.81.47-3.6,21.55-4.5-.75,2.92-17.47-4.45.76.46-2.77,6.36-1.79Z"/>
        <path class="cls-1" d="M221.91,319.62c5,.36,8.02,3.81,7.63,9.26-.36,4.97-3.55,9.7-9.38,13.3l-4.22-.3.04-.52c4.2-2.94,7.14-6,8.18-8.78l-.12-.07c-1.96,1.55-3.42,2.02-5.13,1.9-4.26-.3-6.61-3.26-6.33-7.13.34-4.71,4.4-8.01,9.33-7.66ZM217.41,326.88c-.19,2.61,1.12,4.33,3.47,4.49,1,.07,2.29-.26,3.43-.86.22-.76.33-1.43.38-2.18.27-3.71-.76-5.73-3.3-5.91-2.26-.16-3.78,1.67-3.98,4.45Z"/>
        <path class="cls-1" d="M240.6,342.69c-1.74.05-3.6-.22-4.84-.66l-.12-3.84c2.61.83,5.05,1.17,6.86,1.12,2.2-.07,3.65-1.27,3.59-3.15-.07-2.29-1.91-3.21-6.54-3.36l-.08-2.78c4.08-.9,5.79-2.08,5.73-4.09-.05-1.55-1.33-2.42-3.47-2.35-1.68.05-3.54.56-5.96,1.7l-.09-2.84c2.61-1.47,4.91-2.22,7.46-2.29,4.13-.12,6.64,1.51,6.73,4.42.07,2.39-1.59,4.19-4.46,5.28v.06c3.51.44,5.4,2.17,5.49,5.11.12,4.07-4.46,7.51-10.31,7.68Z"/>
        <path class="cls-1" d="M263.43,341.16c-1.73.23-3.6.15-4.88-.17l-.5-3.81c2.68.56,5.14.66,6.93.42,2.18-.29,3.5-1.64,3.26-3.49-.3-2.28-2.22-3-6.84-2.68l-.36-2.76c3.97-1.31,5.55-2.66,5.29-4.64-.2-1.54-1.57-2.27-3.69-1.99-1.67.22-3.47.91-5.76,2.29l-.37-2.82c2.45-1.72,4.66-2.7,7.2-3.04,4.1-.54,6.76.84,7.14,3.72.31,2.37-1.16,4.33-3.91,5.7v.06c3.54.09,5.6,1.61,5.99,4.53.53,4.04-3.68,7.92-9.48,8.69Z"/>
        <path class="cls-1" d="M279.37,327.76l-.56-2.29,15.48-3.78.56,2.29-15.48,3.78Z"/>
      </g>
      <g>
        <path class="cls-1" d="M41.17,140.67c.79-1.77,2.86-2.58,4.62-1.79,1.82.81,2.57,2.88,1.78,4.65-.81,1.81-2.83,2.59-4.65,1.77-1.77-.79-2.56-2.82-1.75-4.64Z"/>
        <path class="cls-1" d="M36.13,167.65l-.88,3.33-6.75-1.79c-.18-2.92,0-4.59.53-6.56,1.31-4.93,5.31-7,10.22-5.71,5.3,1.4,7.84,5.95,6.36,11.55-.4,1.5-1.01,2.92-1.76,4.04l-2.93-.78c1.19-1.82,2.02-3.63,2.43-5.18.68-2.56-.76-4.58-4.21-5.5-4.41-1.17-7.05.24-7.95,3.64-.12.47-.21,1-.31,1.55l5.27,1.4Z"/>
        <path class="cls-1" d="M25.27,182.14c.56-4.61,2.79-6.75,7.37-6.2l10.68,1.29-.45,3.75-10.35-1.25c-2.94-.35-4.49.56-4.8,3.17-.31,2.56,1.06,3.77,3.74,4.1l10.53,1.27-.36,2.96-10.35-1.25c-4.33-.52-6.6-2.98-6.01-7.84Z"/>
        <path class="cls-1" d="M24.57,205.73l5.08-1.73-.08-5.61-5.12-1.59-.04-3.19,17.24,5.91.05,3.98-17.08,6.25-.06-4.03ZM32,199.15l.06,4.03,6.17-2.1-6.22-1.93Z"/>
        <path class="cls-1" d="M43.72,223.57l.45,2.9-16.85,2.61-.66-4.26,12.16-8.95-13.23,2.05-.45-2.92,16.85-2.61.74,4.79-11.07,8.27,12.07-1.87Z"/>
        <path class="cls-1" d="M39.47,243.41l1,3.29-6.69,2.03c-1.69-2.39-2.41-3.91-3-5.86-1.48-4.88.84-8.75,5.69-10.23,5.25-1.59,9.8.94,11.48,6.48.45,1.49.68,3.02.63,4.36l-2.9.88c.06-2.18-.19-4.15-.66-5.69-.77-2.54-3.06-3.5-6.47-2.46-4.37,1.33-5.87,3.91-4.85,7.28.14.46.34.96.56,1.48l5.22-1.58Z"/>
        <path class="cls-1" d="M53.37,253.81c2.02,4.43,1.14,8.59-3.9,10.88-5.18,2.36-9.69.44-12.01-4.65l-2.28-5.01,15.53-7.07,2.66,5.85ZM39.73,259.32c1.15,2.53,3.67,3.74,7.68,1.91,4.08-1.86,4.69-4.46,3.41-7.27l-.72-1.58-11.21,5.11.84,1.83Z"/>
        <path class="cls-1" d="M47.64,279.71c-2.52-4.02-1.53-8.49,3.01-11.33,4.58-2.87,9.5-1.83,12.22,2.51,2.52,4.02,1.53,8.49-3.01,11.33-4.58,2.87-9.5,1.83-12.22-2.51ZM49.88,278.76c1.37,2.18,4.16,2.36,7.57.22,3.72-2.33,4.71-4.73,3.2-7.15-1.37-2.18-4.16-2.36-7.57-.22-3.72,2.33-4.71,4.73-3.2,7.15Z"/>
        <path class="cls-1" d="M76.25,289.54l1.85,2.27-13.23,10.77-2.72-3.34,5.97-13.87-10.38,8.45-1.87-2.29,13.23-10.77,3.06,3.76-5.38,12.73,9.47-7.71Z"/>
        <path class="cls-1" d="M82.08,308.82l2.45,2.42-4.9,4.98c-2.63-1.3-3.99-2.28-5.44-3.71-3.63-3.58-3.45-8.09.11-11.71,3.85-3.91,9.06-3.86,13.19.21,1.11,1.09,2.04,2.33,2.64,3.53l-2.13,2.16c-.99-1.94-2.16-3.55-3.3-4.68-1.89-1.86-4.36-1.61-6.86.94-3.2,3.25-3.29,6.25-.78,8.72.35.34.76.68,1.2,1.04l3.83-3.89Z"/>
        <path class="cls-1" d="M89.43,325.68l10.51-13.43,2.97,2.33-10.51,13.43-2.97-2.33Z"/>
        <path class="cls-1" d="M115.94,323.78l2.43,1.64-9.53,14.14-3.57-2.41,1.69-15-7.48,11.1-2.45-1.65,9.53-14.14,4.02,2.71-1.46,13.74,6.83-10.12Z"/>
        <path class="cls-1" d="M127.9,330.85c4.27,2.33,6.06,6.19,3.41,11.04-2.73,4.99-7.49,6.16-12.39,3.48l-4.83-2.64,8.18-14.96,5.64,3.08ZM120.3,343.43c2.44,1.33,5.17.79,7.29-3.08,2.15-3.94,1.08-6.38-1.63-7.86l-1.52-.83-5.9,10.8,1.77.97Z"/>
        <path class="cls-1" d="M137.81,355.01c-4.25-1.85-5.67-4.61-3.82-8.84l4.3-9.87,3.46,1.51-4.17,9.56c-1.18,2.71-.75,4.46,1.66,5.51,2.36,1.03,3.92.07,5-2.41l4.24-9.72,2.74,1.19-4.17,9.56c-1.74,4-4.75,5.47-9.24,3.51Z"/>
        <path class="cls-1" d="M154.02,361.34c-1.86-.64-3.3-1.38-4.88-2.74l1.14-3.3c1.83,1.9,4,3.35,6,4.04,1.49.52,2.61.09,3.02-1.09.36-1.04-.22-1.86-1.46-2.72l-2.29-1.57c-1.9-1.3-3.61-2.97-2.63-5.82,1.04-3.01,4.66-4.19,8.76-2.78,1.62.56,2.97,1.24,4.21,2.18l-1.01,2.94c-1.82-1.44-3.86-2.57-5.4-3.1-1.47-.51-2.45-.09-2.84,1.04-.39,1.13.31,1.91,1.62,2.8l2.34,1.59c1.97,1.33,3.39,2.92,2.47,5.6-1.1,3.18-4.66,4.44-9.02,2.93Z"/>
        <path class="cls-1" d="M182.58,351.75l-.63,2.36-5.17-1.38-3.78,14.11-3.64-.98,3.78-14.11-5.17-1.38.63-2.36,13.99,3.74Z"/>
        <path class="cls-1" d="M191.82,370.95l-2.6-7.15-2.2-.42-1.23,6.41-3.71-.71,3.22-16.75,7.19,1.38c3.28.63,5.11,2.59,4.54,5.55-.43,2.25-1.99,3.59-4.28,4.03l3.46,8.5-4.38-.84ZM188.57,355.24l-1.14,5.93,2.58.5c1.43.27,2.74-.75,3.11-2.67.33-1.73-.37-2.95-2.3-3.32l-2.25-.43Z"/>
        <path class="cls-1" d="M211.51,356.5l3.24.4-7.05,9.77-.79,6.46-3.75-.46.77-6.3-4.37-11.33,4.08.5,2.98,8.02,4.9-7.06Z"/>
        <path class="cls-1" d="M231.47,357.7c3.95.1,5.97,2.04,5.89,5.07-.09,3.62-2.8,5.95-6.88,5.85l-2.32-.06-.15,6.12-3.77-.09.43-17.06,6.81.17ZM230.05,366.34c2.27.06,3.35-1.14,3.4-3.21.06-2.19-1.04-3.16-3.06-3.21l-2.01-.05-.16,6.42,1.84.05Z"/>
        <path class="cls-1" d="M248.63,374.8c-4.74.22-8.15-2.83-8.4-8.18-.25-5.4,3.07-9.18,8.19-9.42,4.74-.22,8.15,2.83,8.4,8.18.25,5.4-3.07,9.18-8.19,9.42ZM248.9,372.39c2.57-.12,4.1-2.46,3.91-6.49-.2-4.38-1.81-6.42-4.66-6.29-2.57.12-4.1,2.46-3.91,6.49.2,4.38,1.81,6.42,4.66,6.29Z"/>
        <path class="cls-1" d="M265.43,370.77l7.75-.91.29,2.43-11.5,1.35-1.99-16.95,3.75-.44,1.7,14.51Z"/>
        <path class="cls-1" d="M282.19,353.48l3.21-.56-3.91,11.4,1.12,6.41-3.72.65-1.09-6.25-7.47-9.57,4.04-.71,5.17,6.81,2.64-8.17Z"/>
        <path class="cls-1" d="M301.24,349.01l.59,2.37-5.19,1.3,3.55,14.17-3.66.92-3.55-14.17-5.19,1.3-.59-2.38,14.05-3.52Z"/>
        <path class="cls-1" d="M312,360.91l7.61-2.48.76,2.33-11.2,3.64-5.28-16.22,10.91-3.55.76,2.33-7.32,2.38,1.44,4.44,7.06-2.3.76,2.33-7.06,2.29,1.56,4.8Z"/>
        <path class="cls-1" d="M331.44,356.67c-4.72,1.93-8.81.01-10.76-4.76-1.98-4.87-.06-9.75,5.35-11.96,1.42-.58,2.82-.93,4.14-1l1.16,2.83c-2.3.17-3.98.52-5.37,1.09-2.5,1.02-3.18,3.47-1.82,6.83,1.56,3.83,4.31,5.3,7.87,3.84,1.18-.48,2.13-1.06,3.4-1.99l.76,1.87c-1.49,1.54-2.89,2.5-4.73,3.25Z"/>
        <path class="cls-1" d="M342.77,332.27l3.36-1.71,7.75,15.2-3.36,1.71-3.42-6.7-6.07,3.09,3.42,6.7-3.36,1.71-7.75-15.2,3.36-1.71,3.13,6.13,6.07-3.09-3.13-6.13Z"/>
        <path class="cls-1" d="M359.67,322.23l2.48-1.57,9.14,14.41-3.64,2.31-13.07-7.57,7.17,11.31-2.5,1.58-9.14-14.41,4.09-2.59,12.01,6.85-6.54-10.32Z"/>
        <path class="cls-1" d="M376.02,331.62l-10.13-13.73,3.04-2.24,10.13,13.73-3.04,2.24Z"/>
        <path class="cls-1" d="M389.27,321.47c-3.88,3.32-8.36,2.79-11.71-1.13-3.42-3.99-3.14-9.23,1.3-13.03,1.16-1,2.38-1.77,3.61-2.25l1.99,2.33c-2.13.88-3.61,1.75-4.75,2.72-2.05,1.76-1.93,4.3.43,7.05,2.69,3.14,5.76,3.67,8.68,1.16.97-.83,1.69-1.68,2.6-2.96l1.31,1.53c-.93,1.94-1.96,3.29-3.47,4.58Z"/>
        <path class="cls-1" d="M407.88,303.37c-3.09,3.46-6.15,3.95-9.59.87l-8.03-7.16,2.51-2.82,7.78,6.94c2.21,1.97,4,2.1,5.75.14,1.71-1.92,1.29-3.7-.73-5.5l-7.92-7.06,1.99-2.23,7.78,6.94c3.25,2.9,3.71,6.22.46,9.87Z"/>
        <path class="cls-1" d="M408.93,273.78l1.68-2.4,13.97,9.78-2.47,3.53-14.97-1.95,10.97,7.67-1.7,2.42-13.97-9.78,2.78-3.97,13.72,1.7-10.01-7Z"/>
        <path class="cls-1" d="M427.77,275.69l-14.82-8.45,1.87-3.28,14.82,8.45-1.87,3.28Z"/>
        <path class="cls-1" d="M421.67,249.94l1.31-2.88,13.09,12.59-1.67,3.67-18.01-1.8,1.65-3.62,13.96,1.58-10.33-9.54Z"/>
        <path class="cls-1" d="M438.95,245.19l2.43-7.63,2.33.74-3.58,11.22-16.25-5.19,3.49-10.93,2.33.74-2.34,7.34,4.45,1.42,2.26-7.07,2.33.74-2.26,7.07,4.81,1.53Z"/>
        <path class="cls-1" d="M446.96,222.84l-7.13,2.64-.41,2.21,6.42,1.19-.69,3.71-16.77-3.11,1.34-7.19c.61-3.28,2.56-5.13,5.52-4.58,2.26.42,3.6,1.97,4.06,4.25l8.48-3.51-.81,4.39ZM431.27,226.17l5.94,1.1.48-2.58c.27-1.43-.76-2.74-2.69-3.09-1.73-.32-2.95.39-3.31,2.32l-.42,2.26Z"/>
        <path class="cls-1" d="M448.76,208.49c-.1,1.96-.42,3.55-1.29,5.45l-3.49-.19c1.32-2.28,2.12-4.76,2.23-6.88.08-1.58-.63-2.54-1.88-2.6-1.1-.06-1.72.73-2.21,2.16l-.88,2.63c-.73,2.18-1.86,4.29-4.87,4.13-3.18-.17-5.31-3.32-5.08-7.65.09-1.71.37-3.2.94-4.65l3.11.17c-.88,2.15-1.41,4.42-1.5,6.05-.08,1.55.59,2.38,1.79,2.45,1.2.06,1.76-.83,2.24-2.33l.88-2.69c.73-2.26,1.88-4.06,4.7-3.91,3.36.18,5.55,3.26,5.3,7.87Z"/>
        <path class="cls-1" d="M448.72,195.51l-17.05.7-.16-3.77,17.05-.7.16,3.77Z"/>
        <path class="cls-1" d="M429.57,175.12l2.43-.33.72,5.31,14.48-1.96.51,3.74-14.48,1.96.72,5.31-2.43.33-1.94-14.35Z"/>
        <path class="cls-1" d="M426.07,161.62l-.85-3.15,11.71,2.86,6.28-1.7.98,3.64-6.13,1.66-8.85,8.31-1.07-3.96,6.31-5.77-8.38-1.88Z"/>
        <path class="cls-1" d="M432.2,140.91c.79,1.77.01,3.85-1.76,4.64-1.82.81-3.86-.01-4.65-1.78-.81-1.82-.03-3.84,1.78-4.65,1.77-.79,3.81-.02,4.62,1.79Z"/>
      </g>
    </g>
  </g>
</svg>