<svg width="498" height="500" viewBox="0 0 498 500" fill="none" xmlns="http://www.w3.org/2000/svg">
<path fill-rule="evenodd" clip-rule="evenodd" d="M248.877 0.812502C386.343 0.796753 497.793 112.357 497.811 249.991C497.828 387.623 386.4 499.208 248.934 499.226C111.467 499.243 0.0157309 387.68 1.6294e-06 250.048C-5.43133e-07 250.029 -5.43133e-07 250.01 1.6294e-06 249.991C0.0157284 112.379 111.432 0.828247 248.877 0.812502ZM249.19 12.2191C380.239 12.2034 486.486 118.555 486.503 249.762C486.52 380.97 380.296 487.345 249.247 487.363C118.199 487.38 11.9497 381.027 11.934 249.819C11.934 249.8 11.934 249.781 11.934 249.762C11.9497 118.578 118.164 12.2349 249.19 12.2191Z" fill="#0075C2"/>
<path fill-rule="evenodd" clip-rule="evenodd" d="M249.188 64.6016C350.995 64.6016 433.524 147.232 433.524 249.161C433.524 351.09 350.995 433.72 249.188 433.72C147.382 433.72 64.8516 351.09 64.8516 249.161C64.8516 249.151 64.8516 249.142 64.8516 249.132C64.8673 147.214 147.393 64.6016 249.188 64.6016ZM213.614 107.091C227.762 107.595 238.823 119.487 238.32 133.653C237.816 147.818 225.939 158.893 211.79 158.388C197.948 157.895 187.001 146.482 187.069 132.613C187.38 118.236 199.252 106.821 213.614 107.091ZM125.889 173.706C125.889 173.706 156.65 186.453 182.284 190.36C208.573 193.411 232.184 193.924 255.34 180.664C255.34 180.664 285.845 161.787 292.367 158.05C292.367 158.05 353.005 126.426 381.089 127.966C341.527 137.89 295.415 163.868 285.474 206.814C282.26 219.3 280.351 232.087 279.778 244.969C279.778 244.969 277.328 284.236 264.882 307.021C264.882 307.021 243.178 350.566 183.736 364.682C235.203 347.572 261.008 308.276 266.591 257.887C268.414 231.281 269.866 199.942 283.68 176.073C283.68 176.073 269.211 205.674 234.919 208.724C214.701 210.135 194.453 206.458 176.018 198.03C236.371 236.528 238.479 328.951 182.027 361.117C264.056 293.276 184.42 206.129 125.889 173.706ZM259.356 318.57C290.971 311.727 311.535 340.157 344.233 332.344C360.041 329.492 388.352 309.189 400.457 314.663C381.26 328.921 378.981 343.18 352.35 350.28C315.893 359.919 292.538 322.933 259.356 318.57ZM260.182 320.424C306.893 332.629 329.422 378.198 378.867 338.875C358.189 381.848 319.767 376.858 290.031 347.429C280.835 337.654 270.851 328.648 260.182 320.509V320.424ZM198.718 291.024C99.6852 264.817 96.1819 382.419 182.511 361.088C98.6599 389.976 68.5828 283.38 146.339 277.25C146.339 277.25 109.113 283.723 107.746 319.255C107.746 319.255 106.891 341.868 123.952 353.104C91.7672 321.336 117.971 272.887 162.346 277.763C162.346 277.763 186.3 280.13 198.718 291.024ZM203.788 390.404C203.503 390.802 203.076 391.345 202.534 392.029C201.993 392.714 201.395 393.569 200.74 394.51C200.085 395.451 199.344 396.506 198.575 397.619C197.806 398.731 197.066 399.899 196.325 401.126C196.064 401.57 195.827 402.027 195.613 402.494C195.357 403.036 195.101 403.607 194.844 404.235C194.588 404.861 194.36 405.517 194.161 406.145C193.961 406.772 193.79 407.399 193.648 407.97C193.543 408.449 193.486 408.933 193.477 409.424C193.453 409.86 193.552 410.297 193.762 410.679C193.949 411.013 194.212 411.295 194.531 411.506C194.879 411.72 195.241 411.908 195.613 412.076L196.781 412.647L197.208 412.875L197.635 413.017C197.782 413.023 197.925 412.972 198.034 412.875C198.149 412.764 198.211 412.607 198.205 412.446C198.219 412.21 198.219 411.971 198.205 411.734C198.178 411.506 198.178 411.278 198.205 411.05C198.222 410.391 198.337 409.735 198.547 409.11C198.803 408.312 199.107 407.534 199.458 406.772C199.829 405.946 200.227 405.119 200.655 404.32L201.908 402.038C202.335 401.354 202.677 400.755 202.962 400.271L205.81 395.764L207.633 392.714L208.715 390.774C208.927 390.415 209.117 390.044 209.285 389.662C209.377 389.451 209.444 389.231 209.484 389.006C209.499 388.827 209.499 388.644 209.484 388.464C209.508 388.236 209.508 388.008 209.484 387.78C209.382 387.463 209.248 387.158 209.085 386.868C208.926 386.565 208.724 386.286 208.487 386.041C208.296 385.832 208.029 385.707 207.747 385.698C207.381 385.73 207.024 385.826 206.693 385.983L205.155 386.696C204.557 386.982 203.987 387.295 203.417 387.609L201.794 388.522L200.655 389.149L199.743 389.691C199.485 389.853 199.262 390.067 199.088 390.318C198.888 390.592 198.779 390.919 198.775 391.259C198.758 391.373 198.758 391.487 198.775 391.601C198.745 391.732 198.745 391.87 198.775 392.001C198.823 392.112 198.938 392.183 199.06 392.172H199.401L199.857 392.001L200.17 391.858L204.044 390.404H203.788ZM235.83 391.829L236.4 391.487L237.169 390.973C237.419 390.811 237.641 390.609 237.824 390.375C237.974 390.187 238.064 389.958 238.08 389.719C238.043 389.449 237.956 389.188 237.824 388.949C237.62 388.576 237.381 388.222 237.112 387.894C236.822 387.523 236.508 387.17 236.172 386.839C235.845 386.514 235.482 386.226 235.089 385.983C234.778 385.792 234.427 385.675 234.064 385.641C232.825 385.644 231.592 385.798 230.39 386.098C229.08 386.414 227.802 386.853 226.573 387.409C225.345 387.968 224.164 388.627 223.041 389.377C222.018 390.072 221.065 390.865 220.193 391.743C219.4 392.508 218.72 393.383 218.171 394.339C217.713 395.108 217.449 395.982 217.402 396.877C217.43 397.541 217.565 398.194 217.801 398.816C218.047 399.424 218.383 399.99 218.798 400.498C219.175 401.001 219.616 401.451 220.108 401.839C220.508 402.175 220.948 402.463 221.418 402.695C221.744 402.871 222.102 402.979 222.472 403.008C222.977 402.982 223.475 402.888 223.953 402.723C224.565 402.5 225.164 402.241 225.747 401.953C226.402 401.639 227.029 401.297 227.684 400.927L229.422 399.899L230.732 399.015L223.041 408.084C222.672 408.038 222.296 408.095 221.959 408.255C221.694 408.421 221.47 408.646 221.304 408.911L220.706 409.852L220.336 410.451C220.165 410.707 219.994 410.964 219.852 411.221C219.747 411.437 219.68 411.668 219.652 411.905C219.636 412.127 219.732 412.341 219.908 412.475C220.095 412.596 220.313 412.655 220.535 412.647C221.099 412.593 221.649 412.438 222.159 412.19C222.794 411.891 223.38 411.497 223.896 411.021C224.647 410.348 225.351 409.624 226.004 408.854L236.741 396.392L237.283 395.793C237.482 395.539 237.663 395.275 237.824 394.994C237.976 394.766 238.065 394.499 238.08 394.224C238.074 394.048 237.977 393.885 237.824 393.797C237.62 393.666 237.399 393.561 237.169 393.484L236.428 393.283C236.248 393.261 236.067 393.261 235.887 393.283C235.627 393.289 235.373 393.358 235.146 393.484C234.866 393.609 234.599 393.763 234.349 393.94C234.083 394.116 233.826 394.307 233.58 394.51L232.982 394.966C232.425 395.423 231.845 395.85 231.244 396.25C230.589 396.705 229.849 397.162 229.051 397.619C228.254 398.074 227.456 398.474 226.63 398.816C225.858 399.175 225.058 399.472 224.238 399.7C223.564 399.911 222.864 400.025 222.159 400.042C221.976 400.053 221.795 400.005 221.646 399.899C221.597 399.743 221.597 399.572 221.646 399.415C221.611 398.639 221.788 397.872 222.159 397.19C222.747 396.298 223.49 395.514 224.352 394.88C225.601 393.951 226.96 393.175 228.396 392.57C230.397 391.721 232.465 391.034 234.577 390.518C234.007 391.003 233.551 391.373 233.267 391.658L232.64 392.257C232.64 392.257 232.469 392.485 232.469 392.542C232.432 392.645 232.432 392.754 232.469 392.856C232.548 392.95 232.66 393.013 232.782 393.027C233.02 393.019 233.252 392.959 233.466 392.856C233.69 392.759 233.9 392.636 234.093 392.485L235.602 391.573L235.83 391.829ZM246.482 391.658C246.167 391.992 245.872 392.345 245.599 392.714C245.298 393.107 245.031 393.527 244.802 393.968C244.607 394.379 244.5 394.826 244.489 395.28C244.465 395.594 244.465 395.907 244.489 396.221C244.547 396.597 244.632 396.968 244.745 397.333C244.874 397.713 245.027 398.083 245.201 398.445C245.366 398.759 245.588 399.038 245.856 399.272C246.102 399.483 246.414 399.606 246.739 399.615L247.992 399.358L250.043 398.901L251.666 398.617C252.236 398.617 252.834 398.416 253.403 398.359H255.084H255.881L256.821 398.617C257.105 398.731 257.365 398.896 257.59 399.101C257.79 399.284 257.903 399.543 257.904 399.814C257.859 400.37 257.64 400.9 257.277 401.325C256.729 401.996 256.086 402.581 255.369 403.065C254.403 403.761 253.362 404.346 252.264 404.804C250.904 405.42 249.494 405.917 248.049 406.287C246.299 406.741 244.519 407.063 242.723 407.257L245.229 405.574L245.542 405.346C245.678 405.258 245.803 405.153 245.913 405.032C246.014 404.947 246.076 404.824 246.084 404.69C246.121 404.599 246.121 404.497 246.084 404.405L245.827 404.263H245.542C245.309 404.277 245.078 404.323 244.859 404.405L243.606 404.776C243.092 404.958 242.588 405.167 242.096 405.403C241.592 405.645 241.114 405.943 240.672 406.287C240.234 406.584 239.857 406.96 239.561 407.399C239.281 407.79 239.132 408.257 239.134 408.74C239.099 409.282 239.099 409.823 239.134 410.365C239.198 410.767 239.376 411.144 239.647 411.449C240.005 411.751 240.438 411.948 240.9 412.019C241.671 412.147 242.453 412.204 243.235 412.19C245.149 412.204 247.059 412.014 248.932 411.619C250.536 411.269 252.094 410.733 253.574 410.022C254.859 409.393 256.056 408.597 257.135 407.656C258.071 406.824 258.886 405.862 259.556 404.804C260.036 404.04 260.409 403.216 260.666 402.352C260.914 401.539 261.038 400.692 261.037 399.842C261.101 398.211 260.341 396.657 259.014 395.707C258.367 395.252 257.644 394.912 256.878 394.71C256.053 394.479 255.2 394.362 254.343 394.368C253.389 394.382 252.437 394.467 251.495 394.624C250.535 394.766 249.584 394.969 248.647 395.223C249.093 394.428 249.608 393.675 250.185 392.97C250.763 392.294 251.402 391.675 252.093 391.117H259.043C259.659 391.168 260.278 391.168 260.894 391.117C261.335 391.071 261.761 390.934 262.147 390.717C262.533 390.478 262.871 390.167 263.144 389.805C263.429 389.406 263.771 388.864 264.141 388.236L265.508 385.812H254.115C253.722 385.812 253.33 385.861 252.948 385.955C252.573 386.047 252.217 386.2 251.894 386.411C251.468 386.707 251.076 387.053 250.726 387.438L246.511 391.858L246.482 391.658ZM286.129 390.746L278.24 397.418L277.471 396.563L276.759 395.537C276.557 395.206 276.376 394.863 276.218 394.51C276.1 394.256 276.023 393.988 275.99 393.712C276.008 393.255 276.167 392.819 276.445 392.456C276.806 391.992 277.263 391.612 277.784 391.345C278.469 390.979 279.211 390.728 279.977 390.603C280.923 390.495 281.879 390.495 282.825 390.603L285.987 390.859L286.129 390.746ZM276.93 402.01C277.177 402.338 277.405 402.68 277.613 403.036C277.82 403.355 277.983 403.701 278.097 404.063C278.224 404.451 278.291 404.853 278.297 405.261C278.291 405.891 278.103 406.504 277.756 407.029C277.386 407.533 276.922 407.958 276.389 408.283C275.821 408.626 275.207 408.885 274.566 409.053C273.952 409.219 273.321 409.305 272.686 409.31H272.031C271.84 409.316 271.655 409.245 271.518 409.11C271.365 408.939 271.292 408.711 271.319 408.483C271.316 408.172 271.395 407.87 271.547 407.599C271.688 407.274 271.87 406.966 272.088 406.686C272.344 406.373 272.572 406.088 272.828 405.831C273.042 405.589 273.27 405.361 273.512 405.147L276.93 402.038V402.01ZM286.614 393.454L287.44 392.656C287.605 392.485 287.75 392.294 287.867 392.086C287.91 391.927 287.91 391.76 287.867 391.601C287.892 391.393 287.892 391.182 287.867 390.973C288.422 391.16 289.032 390.962 289.376 390.489C289.641 390.179 289.881 389.844 290.088 389.491C290.288 389.234 290.459 388.949 290.658 388.636C290.852 388.339 291.014 388.025 291.142 387.695C291.251 387.381 291.316 387.056 291.342 386.725C291.364 386.537 291.302 386.349 291.171 386.212C291.04 386.078 290.872 385.986 290.687 385.955L289.69 385.727C289.177 385.727 288.579 385.727 287.867 385.527C287.081 385.482 286.289 385.482 285.503 385.527C284.62 385.527 283.737 385.527 282.825 385.812C281.914 386.098 281.003 386.098 280.12 386.297C279.301 386.48 278.492 386.707 277.699 386.982C276.945 387.227 276.219 387.552 275.534 387.951C274.855 388.342 274.224 388.812 273.654 389.349C273.112 389.879 272.66 390.498 272.316 391.174C271.991 391.89 271.826 392.668 271.831 393.454C271.827 394.288 271.991 395.111 272.316 395.878C272.65 396.628 273.071 397.336 273.569 397.989C274.053 398.645 274.594 399.301 275.135 399.956L273.483 401.354L271.518 403.093C270.863 403.749 270.208 404.377 269.638 405.061C269.097 405.697 268.62 406.384 268.214 407.114C267.868 407.736 267.673 408.429 267.645 409.139C267.665 409.669 267.833 410.183 268.129 410.622C268.441 411.044 268.839 411.392 269.296 411.648C269.773 411.931 270.292 412.133 270.834 412.247C271.348 412.361 271.875 412.409 272.401 412.389C273.745 412.341 275.077 412.11 276.36 411.706C277.376 411.431 278.339 410.987 279.208 410.394C279.858 409.928 280.426 409.362 280.889 408.711C281.246 408.152 281.524 407.548 281.715 406.915C281.868 406.387 281.945 405.839 281.943 405.289C281.934 404.234 281.771 403.187 281.458 402.181C281.12 401.183 280.587 400.262 279.892 399.472L286.671 393.512L286.614 393.454Z" fill="#0075C2"/>
<path fill-rule="evenodd" clip-rule="evenodd" d="M452.862 172.219C456.305 172.313 459.02 175.185 458.926 178.633C458.832 182.081 455.963 184.8 452.52 184.705C449.145 184.612 446.453 181.846 446.453 178.465C446.499 174.969 449.37 172.172 452.862 172.219Z" fill="#0075C2"/>
<path fill-rule="evenodd" clip-rule="evenodd" d="M44.8304 172.219C48.2738 172.313 50.9891 175.185 50.8948 178.633C50.8002 182.081 47.9321 184.8 44.4886 184.705C41.1123 184.612 38.423 181.846 38.4219 178.465C38.4689 174.969 41.3373 172.172 44.8292 172.219H44.8304Z" fill="#0075C2"/>
<path fill-rule="evenodd" clip-rule="evenodd" d="M62.6592 117.872C64.7566 118.018 66.8412 118.313 68.8968 118.756C68.9569 119.283 69.3277 119.721 69.8367 119.868C70.9851 119.776 72.111 119.498 73.1691 119.041C73.1691 119.041 75.5331 116.817 74.9634 115.933C71.7971 114.435 68.2701 113.871 64.7953 114.308C64.7953 114.308 62.5452 115.22 62.3174 116.474C62.0895 117.73 62.8301 117.673 62.6592 117.872Z" fill="#0075C2"/>
<path fill-rule="evenodd" clip-rule="evenodd" d="M67.3594 129.532C71.6243 123.859 75.1023 117.634 77.6984 111.025C77.6984 111.025 79.6352 108.544 81.7429 110.17C81.7429 110.17 82.9961 110.882 82.3695 111.624C79.9616 115.504 77.8021 119.533 75.9041 123.686C75.9041 123.686 76.0749 125.568 77.0718 126.053C83.8506 132.013 82.0277 141.224 86.8127 148.125C86.8127 148.125 86.9551 149.551 86.2716 150.093C86.2716 150.093 82.4265 147.925 81.9138 148.467C81.9138 148.467 80.6321 148.467 80.5466 144.731C79.8981 140.115 78.5233 135.629 76.4737 131.443C76.4737 131.443 75.0211 128.392 74.2521 128.278C74.2521 128.278 74.0242 132.156 72.5147 132.07C72.5147 132.07 70.0652 133.068 68.9544 132.07C68.0364 131.472 67.4474 130.482 67.3594 129.39V129.532Z" fill="#0075C2"/>
<path fill-rule="evenodd" clip-rule="evenodd" d="M93.8185 94.9175H97.0655C97.6183 95.167 98.0774 95.5865 98.3757 96.1152C98.3757 96.1152 102.22 99.6798 102.534 99.8223C102.847 99.9649 102.106 105.297 102.762 105.525L97.2648 104.129C97.581 105.524 98.2589 106.813 99.2301 107.864C101.427 109.318 103.868 110.361 106.436 110.944C107.555 111.046 108.656 111.295 109.711 111.685L111.021 110.773C111.181 109.755 110.902 108.719 110.252 107.921C110.252 107.921 107.746 106.524 107.404 106.809C107.062 107.094 105.667 104.499 106.037 104.1C106.407 103.701 107.062 104.584 107.717 104.984C108.878 105.273 110.095 104.806 110.765 103.814C110.765 103.814 111.619 105.127 110.765 105.868C110.765 105.868 111.449 106.724 114.639 107.494C116.454 104.644 118.543 101.98 120.876 99.5372C121.183 99.3385 121.461 99.0987 121.702 98.8243C121.702 98.8243 121.417 96.7426 120.705 96.3148C120.705 96.3148 119.338 95.2883 118.797 95.6019C118.797 95.6019 118.398 87.6173 116.718 85.5641C116.718 85.5641 114.525 83.5109 112.531 84.5945C110.847 86.3953 109.277 88.3002 107.831 90.2978C107.831 90.2978 104.983 86.3626 104.47 86.6477C103.316 87.0091 102.282 87.6798 101.48 88.5869C101.343 89.0573 101.558 89.5589 101.992 89.7845C103.302 90.4051 104.401 91.3966 105.154 92.6362L105.61 93.4917C105.61 93.4917 104.47 95.1457 104.584 95.7445C104.584 95.7445 101.451 92.8929 99.9422 92.8929C99.9422 92.8929 99.0307 92.6932 99.401 91.9803C100.656 89.1911 102.172 86.5271 103.929 84.0242C103.929 84.0242 105.496 82.5128 105.809 82.5698C106.122 82.6269 106.521 82.3417 106.037 81.2581C106.037 81.2581 105.752 80.0889 103.701 79.4615C102.894 79.1091 101.954 79.479 101.602 80.2873C101.562 80.3798 101.531 80.4756 101.508 80.5737C100.186 82.9308 98.6411 85.156 96.8946 87.218C95.7006 88.9019 94.4172 90.5203 93.0495 92.0659C93.0495 92.0659 92.1096 92.6932 92.309 93.178C92.3679 93.7273 92.6582 94.2252 93.1065 94.5468L93.8185 94.832V94.9175ZM110.509 93.9765C110.509 93.9765 112.844 90.526 113.129 90.3833C113.414 90.2408 113.926 92.5792 113.955 93.9765C114.097 94.9791 114.097 95.9966 113.955 96.9992L112.531 98.5962C112.531 98.5962 111.506 96.657 110.395 93.9765H110.509ZM107.433 99.5372C107.433 99.5372 107.433 98.1684 108.059 97.8548L109.483 100.706L107.433 99.5087V99.5372Z" fill="#0075C2"/>
<path fill-rule="evenodd" clip-rule="evenodd" d="M128.595 58.7303L125.519 56.9908C125.519 56.9908 124.237 55.2798 126.544 54.6809C126.544 54.6809 131.301 53.7113 132.782 54.6809C132.782 54.6809 135.63 55.8216 135.63 56.563C135.844 57.6489 135.411 58.7606 134.519 59.4147C134.519 59.4147 129.848 60.1276 129.022 61.6105L128.623 58.7589L128.595 58.7303Z" fill="#0075C2"/>
<path fill-rule="evenodd" clip-rule="evenodd" d="M124.949 72.1026C124.949 72.1026 125.319 70.5913 127.797 69.9924C130.324 68.1208 132.398 65.7038 133.864 62.9203C133.864 62.9203 137.595 57.388 139.133 57.2169C139.133 57.2169 140.7 55.9622 141.298 57.8728C140.419 61.0602 139.734 64.2979 139.247 67.5685C139.247 67.5685 144.944 69.1654 144.944 70.6197C145.932 71.882 146.588 73.3722 146.852 74.9543C146.852 74.9543 146.567 75.8953 147.137 76.1805C149.853 76.2923 152.547 76.7132 155.169 77.4353C155.169 77.4353 156.507 78.0626 157.191 78.4903C157.191 78.4903 158.045 79.8591 156.137 80.8001C155.624 81.2048 155.016 81.47 154.371 81.5702L146.994 81.1139C146.433 82.7376 145.738 84.3115 144.915 85.8191C144.915 85.8191 143.121 88.2716 141.383 88.4141C140.037 88.3166 138.776 87.716 137.851 86.7316C136.151 84.9787 135.28 82.5813 135.459 80.1443L134.348 78.4618C134.348 78.4618 133.665 77.2071 134.348 76.5512C134.348 76.5512 135.516 75.2679 136.427 75.8383C138.126 76.0681 139.84 76.173 141.554 76.152C141.554 76.152 143.092 75.8668 142.779 74.5551C142.779 74.5551 142.323 72.5589 141.412 72.8156L139.076 74.2414C138.405 74.5179 137.632 74.3474 137.139 73.8136C136.499 73.1227 136.048 72.278 135.829 71.3612C135.564 69.3533 135.67 67.3135 136.143 65.3442C136.143 65.3442 135.032 65.6864 132.611 70.2776C132.611 70.2776 131.044 73.8421 129.763 74.5551C128.354 75.013 126.808 74.6754 125.718 73.671C125.296 73.2168 124.967 72.6838 124.75 72.1026H124.949ZM137.253 80.6576C137.687 81.8068 138.292 82.8837 139.048 83.8514C139.048 83.8514 140.159 84.6499 140.785 84.3362C140.785 84.3362 142.124 83.9656 142.238 81.9408C142.224 81.5387 142.302 81.1389 142.466 80.7717C140.737 80.5193 138.982 80.5193 137.253 80.7717V80.6576Z" fill="#0075C2"/>
<path fill-rule="evenodd" clip-rule="evenodd" d="M141.129 64.5123L141.756 63.9419C142.599 63.6541 143.503 63.5952 144.376 63.7708C145.784 64.0485 147.128 64.5904 148.335 65.3677C148.335 65.3677 149.189 66.2232 148.563 67.0217C148.563 67.0217 147.965 68.362 147.253 68.533C146.173 68.1019 145.141 67.557 144.176 66.9077C143.73 66.6008 143.264 66.3248 142.781 66.0807C142.638 66.0807 141.271 65.0255 140.987 65.054C140.973 64.9309 140.973 64.8065 140.987 64.6834V64.5123H141.129Z" fill="#0075C2"/>
<path fill-rule="evenodd" clip-rule="evenodd" d="M160.609 53.1663C161.143 54.1612 161.563 55.2135 161.862 56.3031C161.76 57.634 161.924 58.972 162.346 60.2384C163.222 62.2426 164.571 64.004 166.277 65.3714C166.659 65.4632 166.929 65.8046 166.932 66.1984C166.932 66.1984 166.391 67.2534 164.084 67.6242C164.084 67.6242 161.976 68.0519 163.229 68.7934C163.961 69.3389 164.827 69.6743 165.735 69.763C167.721 69.996 169.727 69.5542 171.432 68.5083C174.767 66.6974 178.49 65.7193 182.284 65.6565C186.534 65.733 190.726 64.659 194.417 62.5483C195.934 61.8453 196.779 60.1999 196.468 58.5559C196.468 58.5559 196.069 57.1016 193.306 58.5559C193.306 58.5559 189.888 60.2099 186.784 61.4076C185.781 61.7897 184.753 62.1042 183.708 62.3486C181.372 62.8707 178.978 63.0818 176.587 62.976C175.314 61.3389 174.349 59.4836 173.739 57.5009C174.708 57.5756 175.682 57.4293 176.587 57.073C177.136 58.9355 178.112 60.6442 179.435 62.0635C179.435 62.0635 181.344 63.7459 186.613 61.151C186.521 56.4363 185.475 51.7893 183.537 47.4915C183.537 47.4915 180.916 42.273 177.84 42.0449C176.309 41.8926 174.793 42.4615 173.739 43.5847C173.739 43.5847 174.024 41.4745 177.926 37.5107C177.926 37.5107 179.122 36.8833 177.926 34.6591C177.231 33.8035 176.005 33.6071 175.078 34.2028C172.072 35.4187 169.207 36.958 166.533 38.794C165.216 39.4721 163.819 39.9797 162.375 40.3053C162.375 40.3053 162.147 41.5601 163.258 41.8452C164.381 42.6012 165.573 43.2505 166.818 43.7844C166.818 43.7844 168.356 43.7844 169.666 41.4745C169.666 41.4745 171.546 38.2521 172.343 38.024C172.343 38.024 168.27 46.579 168.869 49.9439C168.836 53.3263 169.711 56.655 171.403 59.5826C171.403 59.5826 173.027 62.7764 173.54 63.4322C173.54 63.4322 172.543 64.9437 171.802 64.744C171.486 64.7144 171.17 64.8062 170.919 65.0007C170.904 64.6753 170.826 64.3559 170.691 64.0596C168.893 63.4177 167.18 62.556 165.593 61.4932C164.651 60.9163 163.813 60.1834 163.115 59.3259C162.653 58.5936 162.872 57.6249 163.603 57.1623C163.621 57.1512 163.638 57.1403 163.656 57.1301C164.536 56.4608 164.791 55.2457 164.254 54.2785C163.808 53.1378 162.604 52.487 161.406 52.7385C161.406 52.7385 160.723 52.7385 160.609 53.1378V53.1663ZM172.286 51.8545C173.055 51.8831 173.822 51.7967 174.565 51.5979C174.709 52.3333 174.959 53.044 175.305 53.7081C174.675 54.2186 173.844 54.4079 173.055 54.2214L172.286 51.8545ZM173.027 46.1512C172.331 46.9528 171.893 47.9472 171.774 49.0029V49.4877C172.412 49.3072 173.077 49.2396 173.739 49.288C173.743 48.2232 173.509 47.1713 173.055 46.2082L173.027 46.1512ZM175.248 44.8109C175.248 44.8109 176.872 43.8984 177.869 44.5543C177.869 44.5543 179.208 45.0391 180.717 48.0904C182.484 51.8072 183.546 55.8197 183.85 59.9247C183.85 59.9247 182.625 61.0084 181.856 60.3525C181.105 59.2375 180.573 57.9887 180.29 56.6739C180.906 56.2307 181.576 55.8666 182.284 55.5902C182.284 55.5902 182.996 55.3621 182.454 53.9933C182.454 53.9933 181.856 51.94 180.859 52.539C180.26 52.765 179.615 52.8432 178.98 52.767C178.73 52.1705 178.445 51.5896 178.125 51.0275C178.125 51.0275 179.72 50.5998 179.35 49.4306C179.35 49.4306 178.98 47.6911 177.84 47.7767L176.986 48.0619C176.612 46.8624 175.991 45.7552 175.163 44.8109H175.248Z" fill="#0075C2"/>
<path fill-rule="evenodd" clip-rule="evenodd" d="M205.638 29.5836C205.638 29.5836 205.439 32.1501 207.461 32.4353C208.549 32.6223 209.665 32.3431 210.537 31.6653C209.232 34.1721 208.447 36.9172 208.23 39.7355C207.967 42.1953 208.034 44.6791 208.429 47.1213C208.429 47.1213 208.686 47.9198 207.518 49.4596C207.518 49.4596 206.378 50.2866 206.265 50.6288C206.151 50.9711 205.353 51.5699 207.489 52.9672C207.489 52.9672 207.489 53.4519 209.255 52.9672C211.021 52.4824 212.103 49.8873 212.417 49.6593C212.73 49.4311 215.265 46.8076 215.778 46.8076L216.461 46.722C216.268 48.1222 216.268 49.5423 216.461 50.9425C216.658 51.7358 216.763 52.5492 216.774 53.3664C216.774 53.3664 217.145 54.7352 218.199 54.7637C218.199 54.7637 220.819 55.0203 220.819 51.6839C220.315 49.3837 219.991 47.048 219.851 44.6974C219.851 44.6974 219.252 33.5474 218.74 31.8364C218.74 31.8364 218.085 28.8136 217.629 28.614C217.629 28.614 220.961 27.1311 221.73 27.4448C221.73 27.4448 222.813 25.9905 222.129 25.192C221.171 24.1763 219.777 23.6966 218.398 23.9087C214.889 24.9848 211.477 26.3586 208.201 28.0151C207.225 28.3052 206.341 28.8459 205.638 29.5836ZM215.094 32.4353C215.094 32.4353 213.499 33.4333 213.243 34.3173C213.643 35.012 214.379 35.4452 215.179 35.458C215.435 34.4667 215.435 33.4264 215.179 32.4353H215.094ZM212.046 38.4237C212.046 38.4237 212.986 39.3647 213.926 39.0796C214.578 39.0628 215.2 38.7975 215.664 38.3382C216.433 37.5397 215.664 38.4808 215.664 38.4808C215.664 38.4808 215.436 40.2203 215.664 40.5339C214.45 40.6257 213.247 40.2482 212.303 39.4789C212.303 39.4789 211.619 38.823 212.018 38.4237H212.046ZM212.046 42.6442C212.838 43.3754 213.83 43.8521 214.895 44.0129C214.895 44.0129 215.692 44.2126 215.948 43.8418C216.205 43.4712 213.442 45.4958 213.3 46.0376C213.3 46.0376 212.075 46.0376 211.961 43.9844C211.875 43.5419 211.875 43.0867 211.961 42.6442H212.046Z" fill="#0075C2"/>
<path fill-rule="evenodd" clip-rule="evenodd" d="M221.366 34.6579L222.221 33.5458C222.221 33.5458 222.648 32.9184 223.759 33.2891C223.759 33.2891 225.04 33.2891 225.382 34.9145L225.781 36.5685C225.781 36.5685 227.461 32.0629 229.683 31.2644C229.683 31.2644 231.705 30.58 232.531 31.8348C233.381 32.7949 233.793 34.0653 233.67 35.3423C233.413 37.1274 233.375 38.9374 233.556 40.732C233.556 40.732 234.354 41.8156 234.012 42.3859C233.047 43.9868 231.26 44.903 229.398 44.7527C229.398 44.7527 227.461 44.5247 227.006 44.4106C227.006 44.4106 225.24 44.6958 224.414 44.9524C224.105 45.3046 223.82 45.6761 223.559 46.0645C222.747 45.9662 222.168 45.2273 222.267 44.4143C222.275 44.3455 222.288 44.2777 222.306 44.211C222.321 42.7446 222.254 41.2783 222.107 39.8194C221.936 38.3887 221.679 36.97 221.338 35.5704C221.338 35.5704 220.996 35.3138 221.508 34.6865L221.366 34.6579ZM227.062 39.962C227.062 39.962 228.202 36.6826 229.427 35.9982C229.33 37.6176 229.407 39.2428 229.654 40.846C229.874 41.233 229.748 41.7246 229.37 41.9582C229.37 41.9582 227.404 41.9582 227.148 42.5284V39.8194L227.062 39.962Z" fill="#0075C2"/>
<path fill-rule="evenodd" clip-rule="evenodd" d="M226.174 44.9553C226.174 44.9553 225.12 46.2386 225.348 47.0656C225.348 47.0656 225.348 48.0637 226.145 48.0922C226.145 48.0922 226.686 47.7786 226.914 48.0922C227.142 48.4059 227.655 48.634 226.487 50.8013C226.111 51.7991 225.209 52.5032 224.151 52.6263C223.026 52.2747 222.234 51.2658 222.158 50.0883C222.057 48.7969 222.399 47.5096 223.126 46.4382C223.126 46.4382 224.436 44.7557 225.12 44.8984C225.44 44.6901 225.853 44.6901 226.174 44.8984V44.9553Z" fill="#0075C2"/>
<path fill-rule="evenodd" clip-rule="evenodd" d="M228.167 45.411C229.414 45.3736 230.658 45.5571 231.841 45.9528C231.841 45.9528 234.035 47.1221 234.376 48.5764C234.376 48.5764 235.06 49.8597 234.576 50.658C234.145 51.3531 233.399 51.7905 232.582 51.8272C232.582 51.8272 231.272 51.8272 230.902 51.6847C229.958 50.8015 229.082 49.8483 228.281 48.833C228.281 48.833 227.683 47.892 228.281 47.2646C228.281 47.2646 227.199 47.0079 227.313 46.3806C227.427 45.7532 227.313 46.6087 227.313 46.6087C227.313 46.6087 227.313 45.4395 228.082 45.411H228.167Z" fill="#0075C2"/>
<path fill-rule="evenodd" clip-rule="evenodd" d="M263.147 38.4796L261.837 32.1773C261.837 32.1773 262.037 29.6964 264.087 29.8676C266.621 30.6159 268.375 32.9262 268.417 35.5708C270.009 32.9593 271.769 30.4542 273.686 28.071C273.686 28.071 275.395 26.1318 276.961 26.6737C276.961 26.6737 279.809 26.474 279.98 27.7288L275.338 37.7381C275.338 37.7381 276.961 37.8807 277.531 36.9112C277.531 36.9112 276.306 36.1697 277.36 35.4283C278.522 34.8842 279.893 35.0501 280.892 35.856C280.892 35.856 282.259 37.4244 281.86 38.394C281.267 40.089 279.885 41.3877 278.157 41.8731C276.742 42.3592 275.296 42.7496 273.828 43.0422C273.828 43.0422 272.347 45.8938 272.888 46.3786C272.888 46.3786 279.382 47.1771 279.154 48.0611C279.714 48.6805 280.097 49.4388 280.265 50.2569C280.265 50.2569 279.439 51.7112 278.471 51.6542C278.471 51.6542 265.113 49.8006 257.992 52.082C256.146 52.7131 254.139 51.7267 253.508 49.8784C253.503 49.8622 253.497 49.8457 253.492 49.8292C253.232 48.8093 253.232 47.7406 253.492 46.7208C254.438 47.4665 255.553 47.9661 256.739 48.1752C258.88 48.2992 261.025 48.0186 263.062 47.3482C263.062 47.3482 263.404 44.0688 262.806 43.6695C262.207 43.2703 263.119 44.0688 263.119 44.0688C263.119 44.0688 259.786 44.6106 258.875 43.584C258.371 41.7387 257.655 39.9586 256.739 38.2799C257.825 37.7124 259.106 37.6498 260.242 38.1088C260.242 38.1088 261.239 37.2534 261.809 37.9092C261.809 37.9092 261.524 39.278 262.122 39.278C262.72 39.278 263.147 38.4796 263.147 38.4796ZM268.075 43.2703L269.214 42.3863C268.933 43.1323 268.695 43.894 268.502 44.6676L267.989 45.2379V43.2703H268.075ZM271.834 33.2895C271.834 33.2895 268.189 37.8807 268.36 39.5061C268.36 39.5061 268.758 40.3902 269.527 39.3635L271.834 33.2895Z" fill="#0075C2"/>
<path fill-rule="evenodd" clip-rule="evenodd" d="M367.791 54.989C366.694 55.6535 365.729 56.5139 364.942 57.527C364.942 57.527 359.844 63.5726 358.05 63.7722C358.05 63.7722 355.828 64.4566 351.015 61.2056C351.015 61.2056 349.534 57.9548 348.166 59.1525C346.725 60.4314 346.586 62.6347 347.853 64.0858C349.818 67.2512 347.625 64.314 347.625 64.314C347.625 64.314 350.474 67.4508 352.41 67.7645C349.138 69.3092 345.959 71.0522 342.897 72.983C342.897 72.983 340.647 74.7796 341.131 76.1484C341.131 76.1484 342.356 78.3156 344.321 77.5172C344.877 76.6041 345.703 75.8866 346.685 75.464L349.932 73.81C347.833 75.9667 346.013 78.3812 344.521 80.9962C344.521 80.9962 344.834 83.3346 348.166 82.0513L353.692 75.2643C354.68 77.9521 355.803 80.5884 357.053 83.1635C357.053 83.1635 358.876 86.1862 360.67 85.5589C360.67 85.5589 361.724 84.9885 361.582 82.9353C361.582 82.9353 363.12 81.5666 362.749 81.0247C362.277 80.4068 361.582 79.9979 360.813 79.884C359.625 77.0592 358.01 74.4336 356.028 72.099C356.466 70.777 357.66 69.8525 359.047 69.7607C361.599 70.8272 364.051 72.1252 366.367 73.6389C366.367 73.6389 366.367 75.2358 368.417 72.7264C368.417 72.7264 370.041 70.445 368.417 70.1884C366.216 69.1088 364.148 67.7685 362.265 66.1961C363.82 63.9145 365.746 61.9098 367.962 60.2646L370.639 58.6107L367.791 54.875V54.989Z" fill="#0075C2"/>
<path fill-rule="evenodd" clip-rule="evenodd" d="M368.758 61.6328C369.63 61.8093 370.396 62.3211 370.894 63.0586C371.968 64.554 372.253 66.4764 371.663 68.2201C371.319 69.2156 370.453 69.9391 369.413 70.1023C369.413 70.1023 368.103 70.6725 367.961 68.933C368.476 67.0786 368.667 65.1495 368.53 63.2297C368.53 63.2297 367.761 62.6308 368.046 62.2031C368.331 61.7754 368.046 61.8609 368.758 61.7183V61.6328Z" fill="#0075C2"/>
<path fill-rule="evenodd" clip-rule="evenodd" d="M317.266 29.7227C317.266 29.7227 318.121 28.4964 319.431 30.5497C320.049 31.718 320.049 33.117 319.431 34.2853C319.431 34.2853 315.5 36.7092 315.159 37.9925C315.159 37.9925 315.159 38.7909 316.412 39.1617C316.412 39.1617 318.178 40.2168 316.184 42.4981C314.615 43.0305 313.082 43.6689 311.598 44.4087L309.605 47.7737C312.128 46.7451 314.877 46.3914 317.58 46.7471C319.573 46.2446 321.362 45.1393 322.706 43.5817C324.467 41.0109 326.082 38.3455 327.548 35.5971C327.548 35.5971 329.172 34.7986 329.969 35.5971C329.969 35.5971 331.593 36.1104 329.969 40.3308C328.081 42.0364 326.389 43.9496 324.928 46.0341L326.01 45.749L326.324 45.1787C326.324 45.1787 328.317 45.9201 328.403 47.2318C328.608 48.1204 328.374 49.0532 327.776 49.7413C326.079 49.4054 324.353 49.2335 322.621 49.228L321.14 51.4238C322.598 52.6089 323.604 54.2603 323.988 56.1005C323.424 58.4298 322.174 60.5357 320.399 62.146C320.399 62.146 322.422 67.0224 321.937 67.8494C321.937 67.8494 321.453 70.4728 319.545 70.3017L316.27 64.4559C313.293 65.1696 310.166 64.1698 308.152 61.8608C306.822 59.8664 306.386 57.404 306.956 55.0739C306.956 55.0739 309.263 51.709 310.858 52.8211C313.216 54.177 315.364 55.8675 317.238 57.84C317.238 57.84 318.52 57.2697 318.776 56.3001L315.7 54.5606C315.7 54.5606 314.618 52.0226 314.988 51.709L316.469 49.1995C316.469 49.1995 314.19 47.9732 308.807 50.055C307.255 52.4669 306.059 55.0884 305.247 57.84C305.153 59.4771 304.441 61.0168 303.253 62.146C301.43 63.5434 299.55 61.6612 300.12 59.2943C298.613 58.5843 297.283 57.5525 296.218 56.2716C295.48 54.9239 295.58 53.2713 296.474 52.0226C298.542 49.4929 301.792 48.2459 305.019 48.7432C305.688 47.156 306.46 45.613 307.326 44.1235C305.834 44.0266 304.469 43.2486 303.623 42.0133C303.623 42.0133 301.858 39.8175 303.623 38.4487C305.646 37.7487 307.822 37.6106 309.918 38.0496C309.918 38.0496 310.63 38.4487 311.712 36.0533C311.712 36.0533 315.7 30.0078 317.038 29.7227H317.266ZM310.26 55.7298C310.26 55.7298 313.82 57.5263 314.589 60.1499C314.279 60.5325 313.797 60.7356 313.307 60.6917C311.747 60.1459 310.479 58.9801 309.804 57.4693C309.377 55.7868 310.146 55.9009 310.203 55.7868L310.26 55.7298ZM304.421 51.1386C302.664 51.1754 300.932 51.5937 299.351 52.3649C298.699 52.991 298.613 54.0051 299.152 54.7317C299.983 55.5897 300.943 56.3112 302 56.8705C302.496 54.8423 303.336 52.9135 304.478 51.1671L304.421 51.1386Z" fill="#0075C2"/>
<path fill-rule="evenodd" clip-rule="evenodd" d="M393.794 87.0179L395.645 84.5369C396.522 83.7076 397.639 83.1784 398.835 83.0256C398.835 83.0256 400.259 82.6834 400.886 84.8221C400.886 84.8221 401.171 86.1624 399.006 88.6148C398.995 88.9259 398.849 89.2168 398.607 89.4132C398.607 89.4132 397.411 90.2687 396.614 89.8696C396.992 90.6923 397.482 91.4596 398.066 92.1508C398.818 91.1303 399.459 90.0307 399.974 88.8715C399.974 88.8715 401.285 87.36 402.367 87.9019C403.483 88.3632 404.073 89.5929 403.734 90.7535L403.592 92.3219L405.272 92.8923L406.981 92.6356C408.08 93.202 408.619 94.4732 408.263 95.6584C408.263 95.6584 408.12 97.6831 406.639 98.1963C406.639 98.1963 405.329 98.8238 402.082 96.7421L400.886 95.6014C400.886 95.6014 402.823 99.2515 403.164 100.335C403.164 100.335 403.706 102.018 403.392 102.645L401.37 104.784C401.37 104.784 399.205 103.985 398.693 102.445C398.693 102.445 395.845 98.1394 395.446 97.7686C395.446 97.7686 394.05 96.5994 393.879 96.9132C394.178 98.3992 394.677 99.8378 395.36 101.191C395.48 102.123 395.073 103.045 394.307 103.586C394.307 103.586 393.253 104.384 389.92 101.932C389.92 101.932 389.55 101.076 387.471 101.476C387.471 101.476 386.303 101.932 386.901 102.645C387.767 104.059 388.385 105.612 388.724 107.236C388.724 107.236 388.724 108.776 388.069 109.004C388.069 109.004 386.502 109.461 385.762 108.576L384.11 106.409C383.204 107.47 382.088 108.334 380.834 108.947C379.331 109.223 377.781 108.804 376.619 107.807C374.614 106.088 373.423 103.604 373.344 100.962C373.583 99.4288 374.437 98.0592 375.708 97.1698C375.708 97.1698 377.303 96.0006 377.929 96.2857C380.185 96.5678 382.233 97.7379 383.626 99.5366L386.474 97.7115C386.474 97.7115 386.958 97.0842 388.809 97.7115C388.294 96.9961 388.456 95.9981 389.171 95.4821C389.211 95.4536 389.251 95.4266 389.294 95.4017C389.294 95.4017 391.629 93.2915 392.825 94.033C392.825 94.033 395.674 95.3162 396.329 96.8846H397.411C397.411 96.8846 391.287 88.7289 389.037 88.073C389.037 88.073 389.806 87.1605 386.901 87.9019C386.901 87.9019 384.395 88.2441 383.74 86.9038C383.74 86.9038 381.774 84.2232 387.129 82.1701C387.129 82.1701 390.86 80.9439 392.256 82.5692C392.632 83.3358 392.469 84.2572 391.857 84.8506C391.857 84.8506 392.712 86.7327 393.594 87.0463L393.794 87.0179ZM378.271 99.8789C378.271 99.8789 380.236 102.73 380.977 102.502C381.717 102.274 380.692 102.645 380.692 102.645C380.692 102.645 381.603 103.557 380.265 104.242C380.265 104.242 379.41 104.841 378.926 104.471C378.926 104.471 376.932 102.588 377.474 100.962L378.271 99.8789Z" fill="#0075C2"/>
<path fill-rule="evenodd" clip-rule="evenodd" d="M422.673 113.851L423.214 112.711L424.866 113.338L430.562 117.445C430.562 117.445 432.414 120.296 430.562 121.836C430.562 121.836 429.565 122.663 426.66 121.836C425.136 121.495 423.541 121.794 422.245 122.663C422.245 122.663 419.824 123.86 419.397 125.116C418.731 125.841 417.606 125.904 416.862 125.258C416.862 125.258 416.15 124.973 415.04 123.062C412.983 123.542 411.046 124.434 409.343 125.686C407.281 127.228 405.031 128.503 402.65 129.478C402.65 129.478 399.802 130.191 399.232 129.478C398.662 128.765 398.947 129.478 398.947 129.478C398.947 129.478 398.406 126.855 399.232 126.398C399.232 126.398 409.856 121.523 411.394 120.467C411.394 120.467 418.685 115.562 418.999 115.22C420.038 114.367 421.306 113.841 422.644 113.709L422.673 113.851ZM419.682 118.898C419.682 118.898 419.91 121.466 418.97 122.178C418.97 122.178 417.774 123.205 417.261 122.549L416.093 121.237C416.865 121.242 417.603 120.933 418.144 120.382L419.682 118.898ZM423.954 116.047L425.379 116.561L426.062 118.158L425.265 117.844L424.325 117.473L422.701 118.158L422.245 117.986L423.869 117.301V116.047H423.954Z" fill="#0075C2"/>
<path fill-rule="evenodd" clip-rule="evenodd" d="M438.336 127.908C438.336 127.908 437.282 127.252 434.462 128.25C434.462 128.25 433.067 128.25 433.067 127.337C433.067 127.337 434.291 125.655 433.693 124.97C432.901 123.773 431.426 123.229 430.048 123.631L425.576 125.171C425.576 125.171 423.725 126.539 424.664 127.481C424.664 127.481 425.006 128.792 426.032 128.592C426.032 128.592 428.88 128.164 429.307 128.592C429.307 128.592 429.307 128.592 430.218 128.592L431.073 130.789C431.073 130.789 430.304 131.929 430.418 132.413C430.418 132.413 430.703 134.296 433.266 134.438C434.026 134.88 434.516 135.671 434.576 136.548L431.301 135.265L430.874 136.32L431.984 138.886C433.303 139.684 434.747 140.252 436.257 140.569C436.257 140.569 438.165 140.569 438.193 138.088L436.2 132.955L439.19 129.419C439.19 129.419 439.561 128.507 438.222 127.993L438.336 127.908Z" fill="#0075C2"/>
<path fill-rule="evenodd" clip-rule="evenodd" d="M425.406 129.133C425.406 128.676 426.802 130.073 427.172 131.471C427.898 132.471 428.687 133.424 429.536 134.322C429.536 134.322 430.675 135.578 430.134 136.746C429.63 137.19 428.872 137.19 428.368 136.746C428.368 136.746 423.953 132.298 423.384 132.469C423.384 132.469 421.96 132.725 424.324 135.321C424.324 135.321 427.798 138.628 428.026 139.113C428.026 139.113 428.368 140.995 427.257 141.109C424.446 140.77 421.749 139.795 419.368 138.258C419.368 138.258 415.494 141.11 415.38 142.079C414.634 143.806 415.358 145.816 417.032 146.67C417.032 146.67 419.026 147.696 423.384 145.016L425.235 143.619C425.235 143.619 423.669 146.271 423.925 146.841C423.925 146.841 423.441 149.693 418.456 150.321C416.799 150.478 415.13 150.382 413.5 150.035C413.5 150.035 408.374 144.075 410.823 142.535C410.823 142.535 413.671 137.773 415.523 137.545C413.27 136.132 410.689 135.327 408.032 135.206C408.032 135.206 406.75 135.634 405.782 133.324C405.46 132.694 405.708 131.92 406.337 131.597C406.579 131.473 406.853 131.429 407.12 131.471C412.353 131.89 417.405 133.573 421.846 136.376C420.826 134.82 419.598 133.41 418.2 132.184C418.2 132.184 417.203 130.559 417.887 129.874C417.887 129.874 418.969 128.933 419.909 129.589C421.424 130.406 422.985 131.138 424.58 131.784C425.292 131.955 424.067 131.613 424.067 131.613C424.067 131.613 422.928 129.931 423.896 129.303C424.15 128.762 424.794 128.528 425.335 128.783C425.36 128.794 425.383 128.806 425.406 128.819V129.133Z" fill="#0075C2"/>
<path d="M35.7736 208.157L36.5711 204.963L39.4195 205.647L37.7675 212.291L29.5077 210.238C29.4442 208.972 29.5692 207.703 29.8779 206.474C30.0511 205.196 30.2983 203.93 30.6185 202.681C32.1374 197.719 35.5649 195.818 40.9004 196.978C46.1982 198.432 48.4198 201.712 47.5938 206.873C46.3121 211.949 43.8911 214.059 40.3594 213.175L41.2708 209.439C43.122 209.896 44.3183 209.04 44.8594 206.844C45.5145 203.736 43.8626 201.683 39.9606 200.714C36.0585 199.744 33.6946 200.714 32.8686 203.851C32.6151 204.89 32.4436 205.948 32.3559 207.015C32.332 207.08 32.332 207.151 32.3559 207.216L35.8021 208.1L35.7736 208.157ZM43.4639 228.118L42.9512 231.796L32.4413 230.314C28.3114 229.544 26.4885 226.806 27.0296 222.158C27.5708 217.51 30.3051 215.228 34.4919 215.713L45.002 217.168L44.4893 220.818L35.3464 219.535C31.6437 218.765 29.6501 219.734 29.4792 222.386C29.3083 225.038 30.5329 226.407 34.3211 226.749L43.4639 228.033V228.118ZM25.8335 236.075V232.595L42.7234 239.324L42.5809 243.631L25.4062 248.906V245.228L29.0235 244.087L29.3653 237.5L25.8335 236.075ZM32.1565 238.497L31.9855 243.345L39.3055 241.321L32.1565 238.469V238.497ZM25.6341 267.47V262.252L39.5903 255.408L25.6056 255.636V252.243L42.524 251.958V257.347L29.2798 263.992L42.524 263.764V267.157L25.6341 267.47ZM33.8654 282.128L33.4667 278.849L36.3149 278.507L37.1694 285.322L28.6247 286.377C28.1241 285.203 27.7886 283.965 27.6279 282.699C27.3422 281.447 27.1236 280.181 26.9728 278.906C26.6025 273.716 29.1089 270.75 34.549 269.951C39.9891 269.154 43.2645 271.663 44.3183 276.767C45.3722 281.872 43.4639 284.808 39.8467 285.322L39.3625 281.501C41.2423 281.273 42.0397 280.047 41.7549 277.794C41.2708 274.657 38.9068 273.346 35.0047 273.83C31.1027 274.315 29.3083 276.14 29.5077 279.305C29.6583 280.364 29.8774 281.411 30.1628 282.442C30.1915 282.513 30.2414 282.572 30.3052 282.613L33.837 282.185L33.8654 282.128ZM36.7137 296.187L29.5646 293.706L28.6817 289.885L38.5935 293.706L45.2582 286.434L46.2552 290.798L41.4417 295.502L47.8785 297.755L48.733 301.52L39.5618 297.898L32.3274 305.683L31.3305 301.291L36.7137 296.187ZM50.3566 307.594L34.0079 311.985L33.0679 308.449L49.4167 304.058L50.3566 307.594ZM51.6098 320.968L54.1162 320.198L59.0152 333.002L56.3663 334.029L54.5719 329.323L41.4131 334.37L40.1029 330.949L53.3472 325.901L51.5528 321.196L51.6098 320.968ZM58.9866 338.934L54.9137 340.758L56.1385 343.611C56.4418 344.785 57.638 345.49 58.8109 345.187C58.9915 345.138 59.1655 345.07 59.3285 344.979C60.6102 344.351 60.895 343.296 60.2113 341.785L58.9866 338.934ZM52.3219 341.927L46.1411 344.779L44.6317 341.443L60.0405 334.456L62.8886 341.043C64.3412 344.608 63.8002 347.004 61.2652 348.201C59.4042 349.082 57.1797 348.432 56.0814 346.69C56.5941 348.287 55.8535 349.713 53.8883 350.995C53.7208 351.065 53.5667 351.162 53.4326 351.281C52.1386 351.814 51.0017 352.667 50.1287 353.762L48.4198 350.283C49.6337 349.333 50.941 348.512 52.3219 347.831C53.613 347.052 54.0687 346.282 53.689 345.521L52.1509 342.014L52.3219 341.927ZM53.2048 358.81L51.4674 355.786L69.1833 352.621L71.3194 356.357L59.6418 369.988L57.8188 366.823L60.2683 363.971L56.9359 358.267L53.2048 358.952V358.81ZM59.841 357.497L62.2621 361.689L67.3889 355.986L59.898 357.469L59.841 357.497ZM69.9808 385.045L66.9902 380.767L74.7373 367.279L63.3444 375.292L61.3792 372.44L75.022 362.973L78.1267 367.421L70.8637 380.34L81.7154 372.726L83.6806 375.577L69.8099 385.273L69.9808 385.045ZM89.9183 390.235L87.6682 387.555C88.7439 386.759 88.9721 385.242 88.178 384.163C88.0857 384.038 87.9818 383.924 87.8675 383.818C86.6428 382.536 85.5034 382.307 84.4212 383.105C83.3389 383.904 83.4243 385.159 84.5921 387.041C84.6086 387.172 84.6086 387.309 84.5921 387.44C86.5574 391.033 86.6712 393.514 84.9053 394.94C82.0571 397.107 79.209 396.451 76.0475 392.915C72.8859 389.379 73.1993 386.613 76.0475 384.361L78.3829 387.212C77.1207 388.15 76.8581 389.938 77.7966 391.201C77.8717 391.304 77.9535 391.398 78.0412 391.489C79.4938 393.115 80.8894 393.514 81.8863 392.659C82.8832 391.803 82.6553 390.634 81.6584 388.666L81.3736 388.067C79.4747 384.645 79.4747 382.221 81.3736 380.795C84.2218 378.714 87.07 379.342 90.1746 382.593C92.249 384.657 92.2581 388.016 90.1948 390.092C90.0968 390.192 89.9952 390.286 89.8898 390.377L89.9183 390.235ZM85.8453 403.837L83.4243 401.213L95.7856 389.664L99.3457 393.486C102.498 396.794 102.792 399.645 100.229 402.04C97.7224 404.208 95.1305 403.979 92.4247 401.327L90.6018 399.389L85.8453 403.808V403.837ZM96.1273 394.341L92.6525 397.592C92.8951 397.866 93.1236 398.15 93.3361 398.448C94.8172 400.415 96.1843 400.7 97.58 399.389C98.9756 398.076 98.5482 396.851 96.8679 395.14C96.5855 394.909 96.3363 394.64 96.1273 394.341ZM99.6876 417.81C95.757 414.217 95.5862 410.273 99.1749 405.976C102.764 401.679 106.751 401.222 111.137 404.607C114.935 408.143 115.02 412.135 111.394 416.584C107.596 420.711 103.694 421.118 99.6876 417.81ZM109.4 406.604C107.178 404.692 104.757 405.32 102.08 408.485C99.4028 411.651 99.061 414.189 101.311 415.928C103.561 417.668 105.811 417.154 108.488 414.075C111.166 410.995 111.508 408.371 109.4 406.604ZM120.479 416.527L117.631 420.006L119.995 421.916C120.819 422.826 122.223 422.897 123.133 422.073C123.26 421.959 123.373 421.828 123.47 421.689C124.296 420.547 124.068 419.464 122.815 418.438L120.451 416.527H120.479ZM115.894 422.23L111.621 427.478L108.773 425.196L119.625 412.021L125.321 416.556C128.17 419.094 128.825 421.461 127.116 423.684C125.854 425.307 123.583 425.735 121.818 424.682C122.986 425.852 122.986 427.534 121.818 429.502C121.697 429.647 121.6 429.81 121.533 429.987C120.611 431.042 119.983 432.32 119.71 433.694L116.406 431.413C117.052 430.013 117.844 428.683 118.77 427.449C119.568 426.194 119.625 425.31 118.941 424.769L116.093 422.345L115.894 422.23ZM128.939 422.943L130.505 420.576L141.898 428.048L140.331 430.443L136.116 427.591L128.454 439.397L125.378 437.401L133.239 425.71L129.024 422.857L128.939 422.943ZM150.101 451.659L152.237 433.722L155.74 435.519L153.803 449.435L163.772 439.511L166.962 441.136L153.803 453.427L150.3 451.659H150.101ZM169.07 459.929C164.209 457.819 162.766 454.14 164.741 448.894C167.019 443.609 170.646 441.878 175.621 443.703C180.349 445.814 181.744 449.578 179.751 455.11C177.757 460.642 174.054 461.896 169.07 460.072V459.929ZM174.766 446.155C171.918 445.072 169.953 446.47 168.443 450.319C166.934 454.169 167.418 456.593 170.152 457.619C172.886 458.646 174.795 457.306 176.333 453.513C177.871 449.721 177.358 447.211 174.766 446.155ZM196.698 456.479L192.995 455.424C193.535 453.81 192.667 452.065 191.057 451.525C190.945 451.486 190.831 451.457 190.716 451.432C188.751 451.003 187.156 452.714 185.931 456.536C184.707 460.357 185.419 462.695 187.327 463.323C188.881 463.927 190.631 463.16 191.236 461.603C191.292 461.458 191.338 461.307 191.371 461.156L195.074 462.211C193.792 465.718 191.001 466.887 186.529 465.69C182.058 464.492 180.691 460.927 182.143 455.481C183.596 450.034 186.9 447.809 191.343 448.894C195.786 449.977 197.381 452.8 196.584 456.479H196.698ZM198.919 468.713L195.53 467.886L205.584 452.915L209.742 453.969L211.423 471.849L207.863 470.965L207.492 467.173L200.884 465.633L198.777 468.77L198.919 468.713ZM202.593 463.009L207.293 464.178L206.837 456.593L202.707 463.009H202.593ZM215.41 457.591L215.809 454.739L229.395 456.65L228.996 459.502L224.012 458.789L222.047 472.762L218.429 472.248L220.395 458.275L215.41 457.562V457.591ZM235.091 456.964L233.553 473.988L229.908 473.675L231.389 456.792L235.034 457.106L235.091 456.964ZM245.43 474.615C240.133 474.301 237.512 471.336 237.598 465.718C237.683 460.1 240.731 457.163 246.143 457.163C251.554 457.163 253.89 460.585 253.89 466.317C253.89 472.049 250.728 474.701 245.544 474.644L245.43 474.615ZM245.943 459.787C243.095 459.787 241.528 461.697 241.443 465.86C241.357 470.024 242.582 472.106 245.516 472.135C248.45 472.163 249.788 470.253 249.931 466.146C250.073 462.04 248.763 459.872 245.943 459.787ZM272.574 473.104L267.362 473.561L259.586 460.1L260.811 474.073L257.421 474.358L255.94 457.477L261.323 457.021L268.871 469.767L267.703 456.536L271.093 456.222L272.574 473.104ZM278.982 472.704L275.565 473.36L278.413 455.566L282.628 454.739L291.685 470.224L288.097 470.936L286.16 467.657L279.609 468.941L279.039 472.704H278.982ZM279.894 465.974L284.679 465.062L281.033 458.389L279.979 465.946L279.894 465.974ZM305.357 467.315L294.79 469.967L290.518 453.655L293.992 452.8L297.382 466.488L304.502 464.72L305.186 467.571L305.357 467.315ZM321.848 462.781L318.63 464.093L317.974 446.098L321.962 444.473L333.81 457.962L330.421 459.33L327.886 456.479L321.706 458.988V462.752L321.848 462.781ZM321.478 456.022L325.978 454.197L321.164 448.494L321.563 456.108L321.478 456.022ZM350.33 450.491L345.602 452.686L333.668 442.705L339.564 455.396L336.516 456.849L329.367 441.479L334.238 439.198L345.631 448.608L339.934 436.574L343.01 435.12L350.159 450.491H350.33ZM350.074 434.664L355.77 444.33L357.422 443.333C360.27 441.707 360.812 439.255 358.789 436.004C356.767 432.753 354.46 431.897 351.64 433.694L349.988 434.664H350.074ZM354.261 448.608L345.545 434.093L350.501 431.099C354.192 428.156 359.567 428.763 362.509 432.459C365.448 436.155 364.842 441.536 361.15 444.481C360.558 444.952 359.909 445.343 359.217 445.643L354.261 448.494V448.608ZM369.641 422.8L367.875 420.605L378.527 412.05L380.322 414.246L376.391 417.411L385.278 428.361L382.429 430.672L373.572 419.72L369.613 422.857L369.641 422.8ZM391.629 423.172L380.521 410.396L389.066 402.953L390.917 405.092L385.221 410.139L387.813 412.991L393.196 408.315L395.047 410.453L389.664 415.13L392.512 418.523L398.522 413.305L400.402 415.443L391.629 423.057V423.172ZM404.275 395.225L401.655 398.076C400.439 396.868 398.473 396.871 397.266 398.088C397.197 398.156 397.132 398.23 397.069 398.305C395.788 399.873 396.585 402.069 399.433 404.893C402.282 407.715 404.674 408.172 406.098 406.746C407.366 405.636 407.491 403.709 406.383 402.44C406.295 402.34 406.201 402.243 406.098 402.154L408.718 399.303C411.253 402.154 411.026 405.007 408.006 408.4C404.987 411.793 401.085 411.422 396.898 407.687C392.712 403.951 392.227 399.931 395.218 396.479C398.209 393.029 401.427 392.858 404.361 395.254L404.275 395.225ZM417.462 398.076L415.155 400.929L402.196 390.036L404.503 387.183L409.573 391.489L413.703 386.584L408.576 382.278L410.94 379.427L423.899 390.292L421.592 393.143L415.896 388.353L411.709 393.343L417.406 398.105L417.462 398.076ZM435.577 374.208L432.729 378.486L417.406 375.805L428.798 383.847L426.862 386.699L412.991 377.003L416.095 372.554L430.707 374.978L419.855 367.364L421.792 364.513L435.663 374.236L435.577 374.208ZM425.352 358.753L439.593 367.735L437.656 370.843L423.415 361.861L425.352 358.753ZM438.539 346.832L436.659 350.197C435.21 349.31 433.316 349.767 432.43 351.219C432.373 351.313 432.322 351.409 432.273 351.509C431.419 353.334 432.7 355.274 436.175 357.213C439.65 359.151 442.043 359.123 443.068 357.383C444.008 356.024 443.672 354.158 442.313 353.217C442.174 353.12 442.025 353.035 441.872 352.964L443.723 349.599C446.856 351.623 447.369 354.618 445.233 358.582C443.096 362.545 439.251 363.201 434.295 360.577C429.34 357.954 427.887 354.218 429.966 350.112C432.045 346.005 435.121 345.093 438.511 346.718L438.539 346.832ZM450.957 347.317L449.562 350.483L436.602 337.993L438.34 334.057L456.227 335.512L454.717 338.848L450.957 338.591L448.109 344.694L450.957 347.317ZM446.002 342.697L447.995 338.249L440.448 337.393L446.144 342.612L446.002 342.697ZM461.296 322.394L457.394 332.546L441.473 326.443L442.755 323.135L455.913 328.183L458.534 321.339L461.183 322.365L461.296 322.394ZM457.224 292.28L456.341 296.016C454.683 295.582 452.985 296.575 452.552 298.238C452.53 298.323 452.51 298.409 452.495 298.497C452.154 300.493 453.948 302.004 457.822 303.031C461.695 304.058 464.002 303.231 464.515 301.291C465.042 299.708 464.185 297.995 462.604 297.471C462.456 297.419 462.305 297.382 462.151 297.357L463.005 293.62C466.566 294.675 467.876 297.442 466.936 301.833C465.996 306.225 462.464 307.935 456.967 306.795C451.47 305.655 449.049 302.404 449.904 297.898C450.758 293.393 453.492 291.653 457.224 292.194V292.28ZM470.468 284.01C469.727 289.258 466.537 291.596 460.955 291.054C455.372 290.512 452.666 287.175 453.151 281.872C453.635 276.567 457.224 274.429 462.92 274.943C468.616 275.455 470.98 278.849 470.468 284.01ZM455.714 282.157C455.372 285.066 457.272 286.748 461.41 287.204C465.54 287.775 467.733 286.577 468.018 283.668C468.303 280.76 466.509 279.248 462.464 278.735C458.42 278.221 456.113 279.391 455.771 282.157H455.714ZM472.404 261.311L471.635 272.176L454.774 270.979L455.03 267.442L469.072 268.412L469.585 261.112L472.433 261.311H472.404ZM472.689 247.053L472.49 257.946L455.714 257.461V253.897L469.784 254.125V246.825L472.689 247.053ZM472.832 243.945L455.97 245.399L454.973 233.992L457.822 233.736L458.505 241.407L462.407 241.065L461.809 233.935L464.657 233.707L465.284 240.808L469.727 240.409L469.044 232.481L471.892 232.224L472.917 243.831L472.832 243.945ZM463.945 217.538L464.429 220.789L461.581 221.189L460.641 214.401L469.044 213.204C469.576 214.363 469.941 215.592 470.126 216.854C470.436 218.103 470.676 219.369 470.838 220.647C471.331 225.817 468.864 228.84 463.433 229.715C457.964 230.371 454.689 228.146 453.521 223.071C452.809 217.881 454.261 215 457.879 214.515L458.42 218.308C456.54 218.564 455.742 219.82 456.084 222.073C456.625 225.18 458.932 226.464 462.891 225.922C466.85 225.381 468.588 223.498 468.303 220.218C468.126 219.16 467.89 218.113 467.591 217.082C467.563 217.011 467.511 216.952 467.449 216.911L463.917 217.424L463.945 217.538ZM468.873 208.983L452.382 212.776L449.818 201.712L452.666 201.084L454.404 208.584L458.22 207.7L456.625 200.742L459.474 200.086L461.069 207.044L465.455 206.046L463.66 198.29L466.509 197.634L469.129 209.04L468.873 208.983Z" fill="#0075C2"/>
</svg>
