<svg width="761" height="764" viewBox="0 0 761 764" fill="none" xmlns="http://www.w3.org/2000/svg">
<path fill-rule="evenodd" clip-rule="evenodd" d="M636.781 607.072H687.234C711.986 573.315 730.972 535.693 743.427 495.73L697.029 508.17C682.721 544.325 662.344 577.772 636.781 607.072Z" fill="#00356D"/>
<path fill-rule="evenodd" clip-rule="evenodd" d="M711.018 298.992L746.383 278.648C732.35 228.751 708.296 182.237 675.687 141.945L647.539 169.987C677.618 207.994 699.261 251.971 711.018 298.992Z" fill="#00356D"/>
<path fill-rule="evenodd" clip-rule="evenodd" d="M721.15 381.948C721.119 411.206 717.352 440.344 709.945 468.65L753.25 457.035C762.657 409.897 763.086 361.409 754.521 314.112L717.953 335.178C720.063 350.68 721.133 366.306 721.15 381.948Z" fill="#00356D"/>
<path fill-rule="evenodd" clip-rule="evenodd" d="M624.644 143.835L652.517 115.897C584.908 46.1147 493.167 4.82884 396.094 0.5V40.1225C482.685 44.4109 564.403 81.4918 624.644 143.835Z" fill="#00356D"/>
<path fill-rule="evenodd" clip-rule="evenodd" d="M602.034 641.849C587.864 654.021 572.673 664.956 556.633 674.53C555.568 675.251 554.503 675.835 553.369 676.454C551.375 677.657 549.347 678.756 547.354 679.89C520.574 694.684 492.124 706.224 462.602 714.255L488.068 747.967C510.954 741.128 533.115 732.059 554.228 720.888C563.576 716.042 572.821 710.578 581.723 705.011C597.71 695.011 612.963 683.884 627.364 671.712C638.231 662.409 648.559 652.498 658.295 642.02L602.034 641.849Z" fill="#00356D"/>
<path fill-rule="evenodd" clip-rule="evenodd" d="M396.094 723.912V763.397C417.821 762.476 439.426 759.682 460.672 755.046L434.14 719.96C421.537 721.96 408.837 723.279 396.094 723.912Z" fill="#00356D"/>
<path fill-rule="evenodd" clip-rule="evenodd" d="M124.035 607.072H73.5128C48.773 573.308 29.7861 535.686 17.3203 495.73L63.7177 508.17C78.0759 544.315 98.4718 577.758 124.035 607.072Z" fill="#00356D"/>
<path fill-rule="evenodd" clip-rule="evenodd" d="M49.7635 298.992L14.3984 278.648C28.4302 228.751 52.4852 182.237 85.0944 141.945L113.242 169.987C83.1618 207.994 61.5224 251.971 49.7635 298.992Z" fill="#00356D"/>
<path fill-rule="evenodd" clip-rule="evenodd" d="M39.6222 381.948C39.6541 411.206 43.4192 440.344 50.8263 468.65L7.52199 457.035C-1.86973 409.897 -2.31276 361.415 6.21599 314.112L42.8185 335.178C40.7068 350.68 39.639 366.306 39.6222 381.948Z" fill="#00356D"/>
<path fill-rule="evenodd" clip-rule="evenodd" d="M136.135 143.835L108.297 115.897C175.89 46.1109 267.622 4.82366 364.686 0.5V40.1225C278.092 44.404 196.374 81.486 136.135 143.835Z" fill="#00356D"/>
<path fill-rule="evenodd" clip-rule="evenodd" d="M158.783 641.849C172.923 654.045 188.104 664.98 204.149 674.53C205.215 675.251 206.281 675.835 207.586 676.454C209.58 677.657 211.607 678.756 213.6 679.89C240.397 694.698 268.875 706.234 298.422 714.255L272.955 747.967C249.91 741.097 227.6 731.967 206.349 720.716C197.001 715.87 187.756 710.406 178.855 704.839C162.861 694.849 147.608 683.719 133.213 671.54C122.346 662.237 112.019 652.326 102.281 641.849H158.783Z" fill="#00356D"/>
<path fill-rule="evenodd" clip-rule="evenodd" d="M364.682 723.912V763.397C342.918 762.448 321.276 759.62 300 754.943L326.636 719.96C339.237 721.963 351.938 723.279 364.682 723.912Z" fill="#00356D"/>
<path fill-rule="evenodd" clip-rule="evenodd" d="M380.353 61.8411C203.504 61.8411 60.1414 205.189 60.1414 382.017C60.1414 558.844 203.504 702.193 380.353 702.193C557.199 702.193 700.564 558.844 700.564 382.017C700.564 381.993 700.564 381.972 700.564 381.948C700.354 205.206 557.113 61.9806 380.353 61.7724V61.8411ZM380.353 706.661C201.056 706.64 55.7233 561.294 55.7422 382.017C55.7611 202.74 201.125 57.4235 380.422 57.4424C559.664 57.4613 704.974 202.725 705.031 381.948C704.859 561.184 559.608 706.451 380.353 706.661Z" fill="#00356D"/>
<path fill-rule="evenodd" clip-rule="evenodd" d="M122.589 453.461L119.153 454.423L116.335 444.32L127.024 441.296C128.8 442.303 130.382 443.619 131.697 445.179C132.942 446.53 133.849 448.155 134.344 449.922C134.992 452.166 134.992 454.551 134.344 456.795C133.663 459.111 132.238 461.142 130.288 462.568C128.149 464.29 125.664 465.534 123.002 466.211C120.3 466.974 117.48 467.228 114.686 466.967C112.263 466.829 109.944 465.943 108.052 464.424C106.393 462.857 105.203 460.857 104.615 458.65C104.183 457.015 104.089 455.307 104.34 453.633C104.615 452.135 105.28 450.74 106.265 449.578C107.46 448.313 108.867 447.265 110.423 446.485L112.21 449.097C111.084 449.712 110.053 450.485 109.152 451.399C108.455 452.221 107.971 453.2 107.743 454.252C107.544 455.396 107.614 456.575 107.949 457.688C108.259 458.977 108.899 460.159 109.805 461.125C110.549 461.998 111.491 462.681 112.554 463.118C113.665 463.492 114.821 463.723 115.991 463.805C118.021 463.925 120.055 463.692 122.005 463.118C124.233 462.489 126.329 461.465 128.192 460.094C129.633 459.059 130.685 457.571 131.182 455.867C131.594 454.289 131.594 452.633 131.182 451.056C130.771 449.685 130.068 448.417 129.12 447.344C128.3 446.389 127.338 445.568 126.268 444.905L120.803 446.485L122.589 453.461Z" fill="#00356D"/>
<path fill-rule="evenodd" clip-rule="evenodd" d="M97.4983 423.186L96.9141 419.75L114.098 416.897C116.469 416.389 118.903 416.251 121.316 416.485C123.096 416.77 124.748 417.585 126.058 418.822C127.492 420.306 128.42 422.207 128.705 424.251C129.04 426.217 128.838 428.234 128.12 430.093C127.39 431.739 126.116 433.086 124.512 433.908C122.232 435.028 119.782 435.76 117.26 436.073L100.076 438.891L99.6636 435.729L116.848 432.877C118.756 432.629 120.62 432.107 122.381 431.33C123.486 430.801 124.382 429.918 124.924 428.822C125.427 427.65 125.547 426.354 125.268 425.11C125.158 423.165 124.106 421.396 122.45 420.368C119.956 419.516 117.265 419.42 114.717 420.093L97.4983 423.186Z" fill="#00356D"/>
<path fill-rule="evenodd" clip-rule="evenodd" d="M113.172 404.354L112.587 395.9L104.442 399.096C101.968 400.059 99.9741 400.746 98.3588 401.261C100.335 401.457 102.297 401.766 104.236 402.189L113.172 404.354ZM125.922 410.574L95.3687 403.151L95.0938 399.715L124.375 387.55L124.582 391.261L115.783 394.698L116.436 405.007L125.716 407.069L125.922 410.574Z" fill="#00356D"/>
<path fill-rule="evenodd" clip-rule="evenodd" d="M124.378 383.22L94.375 382.258L94.4437 378.993L118.433 366.656L94.8905 365.969L94.9592 362.773L124.928 363.735L124.86 367.172L100.905 379.44L124.447 380.127L124.378 383.22Z" fill="#00356D"/>
<path fill-rule="evenodd" clip-rule="evenodd" d="M115.44 343.425L112.002 343.013L113.411 332.704L124.41 334.353C125.67 335.9 126.647 337.656 127.296 339.542C127.811 341.28 127.939 343.11 127.674 344.903C127.373 347.237 126.38 349.429 124.822 351.192C123.279 353.075 121.17 354.415 118.807 355.006C116.159 355.611 113.421 355.725 110.731 355.35C107.92 355.003 105.208 354.089 102.757 352.67C100.583 351.542 98.8166 349.766 97.7051 347.584C96.7504 345.426 96.4287 343.043 96.7772 340.711C97.0425 339.078 97.6519 337.52 98.5643 336.14C99.4267 334.85 100.611 333.807 102.001 333.116C103.619 332.44 105.338 332.034 107.088 331.913L107.672 335.006C106.377 335.108 105.104 335.397 103.891 335.865C102.922 336.346 102.094 337.068 101.486 337.961C100.808 338.991 100.395 340.171 100.283 341.398C100.07 342.727 100.14 344.085 100.489 345.384C100.884 346.463 101.518 347.439 102.345 348.237C103.129 349.027 104.034 349.69 105.026 350.195C106.856 351.13 108.832 351.745 110.868 352.017C113.142 352.405 115.468 352.405 117.742 352.017C119.446 351.549 120.975 350.594 122.141 349.267C123.162 347.975 123.847 346.453 124.135 344.834C124.309 343.387 124.156 341.919 123.688 340.539C123.316 339.322 122.771 338.165 122.072 337.102L116.471 336.346L115.44 343.425Z" fill="#00356D"/>
<path fill-rule="evenodd" clip-rule="evenodd" d="M129.26 331.089L116.44 317.996L100.391 322.738L101.319 318.923L109.911 316.415C111.664 315.899 113.038 315.556 113.932 315.384C112.933 314.53 111.992 313.612 111.114 312.635L104.515 305.762L105.442 302.325L116.99 314.353L134.655 308.992L133.659 312.978L121.733 316.415L119.534 317.033C120.204 317.549 120.847 318.099 121.458 318.683L130.119 327.205L129.26 331.089Z" fill="#00356D"/>
<path fill-rule="evenodd" clip-rule="evenodd" d="M136.58 303.836L107.984 294.523L109.05 291.396L137.576 300.709L136.58 303.836Z" fill="#00356D"/>
<path fill-rule="evenodd" clip-rule="evenodd" d="M126.266 250.4L127.709 247.479L143.312 255.074C145.518 256.109 147.566 257.451 149.396 259.06C150.694 260.285 151.583 261.881 151.939 263.631C152.265 265.676 151.889 267.771 150.874 269.576C150.104 271.408 148.797 272.965 147.127 274.043C145.548 274.923 143.736 275.295 141.938 275.108C139.443 274.632 137.034 273.786 134.789 272.6L119.117 265.108L120.594 262.084L136.129 269.747C137.866 270.622 139.7 271.292 141.594 271.741C142.785 271.945 144.01 271.7 145.031 271.053C146.125 270.453 146.994 269.511 147.505 268.372C148.548 266.671 148.702 264.572 147.917 262.737C146.334 260.614 144.193 258.972 141.732 257.995L126.266 250.4Z" fill="#00356D"/>
<path fill-rule="evenodd" clip-rule="evenodd" d="M157.919 254.902L132.383 239.025L134.17 236.07L161.115 237.548L141.113 225.142L142.728 222.359L168.264 238.338L166.409 241.156L139.532 239.816L159.535 252.222L157.919 254.902Z" fill="#00356D"/>
<path fill-rule="evenodd" clip-rule="evenodd" d="M172.872 231.843L148.711 214.18L150.601 211.499L174.865 229.266L172.872 231.843Z" fill="#00356D"/>
<path fill-rule="evenodd" clip-rule="evenodd" d="M183.804 217.891L154.797 205.795L157.065 203.046L177.927 212.187C179.543 212.943 181.089 213.664 182.429 214.42C181.467 213.046 180.539 211.671 179.612 210.193L167.273 191.052L169.403 188.441L186.072 215.279L183.804 217.891Z" fill="#00356D"/>
<path fill-rule="evenodd" clip-rule="evenodd" d="M195.726 204.317L174.727 182.839L187.546 170.33L190.054 172.839L179.607 183.114L185.999 189.678L195.794 180.09L198.2 182.599L188.405 192.152L195.554 199.506L206.483 188.887L208.888 191.465L195.726 204.317Z" fill="#00356D"/>
<path fill-rule="evenodd" clip-rule="evenodd" d="M205.49 172.324L211.024 167.925C211.928 167.27 212.679 166.426 213.223 165.451C213.649 164.663 213.794 163.754 213.636 162.873C213.435 161.955 213.023 161.096 212.433 160.365C211.702 159.322 210.592 158.607 209.34 158.371C207.844 158.299 206.382 158.831 205.284 159.849L199.133 164.695L205.49 172.324ZM213.223 187.513L194.492 164.042L203.085 157.169C204.362 156.009 205.891 155.162 207.553 154.694C208.877 154.361 210.278 154.546 211.471 155.21C212.907 155.836 214.17 156.803 215.148 158.028C216.366 159.531 217.066 161.387 217.142 163.32C217.068 165.385 216.222 167.347 214.77 168.818C215.604 168.719 216.446 168.719 217.279 168.818C218.841 169.142 220.362 169.638 221.815 170.296L230.408 173.87L226.971 176.55L220.544 173.595C218.688 172.839 217.107 172.22 216.145 171.877C215.315 171.578 214.447 171.404 213.567 171.361C212.995 171.363 212.426 171.456 211.883 171.636C211.355 171.926 210.86 172.272 210.405 172.667L207.416 175.073L215.698 185.382L213.223 187.513Z" fill="#00356D"/>
<path fill-rule="evenodd" clip-rule="evenodd" d="M228.408 163.698L230.815 161.705C231.564 162.751 232.524 163.629 233.633 164.282C234.711 164.765 235.891 164.978 237.069 164.901C238.354 164.695 239.59 164.252 240.713 163.595C241.688 162.975 242.52 162.155 243.153 161.189C243.656 160.389 243.896 159.452 243.84 158.509C243.819 157.608 243.584 156.724 243.153 155.932C242.698 155.179 242.027 154.581 241.228 154.213C240.328 153.834 239.333 153.738 238.375 153.938C236.843 154.26 235.329 154.662 233.839 155.141C232.244 155.707 230.579 156.054 228.89 156.172C227.574 156.153 226.284 155.798 225.144 155.141C224.018 154.479 223.065 153.56 222.36 152.461C221.543 151.205 221.058 149.763 220.951 148.268C220.815 146.81 221.166 145.348 221.948 144.11C222.754 142.727 223.872 141.55 225.213 140.674C226.627 139.769 228.222 139.183 229.886 138.955C231.417 138.82 232.952 139.155 234.286 139.918C235.724 140.788 236.955 141.96 237.894 143.354L235.42 145.347C234.508 144.043 233.172 143.096 231.64 142.667C230.063 142.415 228.451 142.812 227.171 143.766C225.806 144.502 224.774 145.731 224.285 147.203C223.971 148.374 224.171 149.624 224.834 150.639C225.323 151.499 226.143 152.12 227.103 152.358C228.92 152.484 230.744 152.191 232.43 151.499C234.239 150.831 236.118 150.37 238.032 150.124C239.529 149.979 241.035 150.278 242.363 150.983C243.762 151.66 244.949 152.706 245.799 154.007C246.634 155.335 247.141 156.843 247.277 158.406C247.348 159.99 247.004 161.566 246.28 162.976C245.458 164.405 244.272 165.59 242.844 166.413C241.242 167.508 239.406 168.214 237.482 168.475C235.754 168.665 234.01 168.304 232.499 167.444C230.862 166.532 229.46 165.249 228.408 163.698Z" fill="#00356D"/>
<path fill-rule="evenodd" clip-rule="evenodd" d="M256.355 157.822L241.852 131.498L244.773 129.849L259.173 156.172L256.355 157.822Z" fill="#00356D"/>
<path fill-rule="evenodd" clip-rule="evenodd" d="M271.51 149.952L260.443 125.966L253.02 129.333L251.508 126.137L269.379 117.959L270.891 121.155L263.502 124.591L274.5 148.578L271.51 149.952Z" fill="#00356D"/>
<path fill-rule="evenodd" clip-rule="evenodd" d="M293.06 141.086L288.833 128.99L274.055 115.965L277.766 114.591L285.396 121.464C286.771 122.77 288.18 124.041 289.451 125.416C289.657 123.697 289.864 121.704 290.242 119.574L291.858 109.642L295.294 108.336L291.858 127.924L296.119 139.918L293.06 141.086Z" fill="#00356D"/>
<path fill-rule="evenodd" clip-rule="evenodd" d="M315.533 118.885C316.026 121.906 317.514 124.676 319.76 126.755C321.528 128.405 323.994 129.086 326.359 128.576C328.686 128.066 330.607 126.429 331.479 124.212C332.738 121.267 332.944 117.979 332.063 114.899C331.647 112.783 330.83 110.765 329.658 108.954C328.772 107.454 327.455 106.257 325.878 105.518C324.43 104.804 322.787 104.587 321.203 104.899C318.935 105.45 317.025 106.971 315.98 109.057C314.691 112.205 314.533 115.703 315.533 118.954V118.885ZM312.095 119.607C310.984 115.573 311.287 111.28 312.955 107.442C314.34 104.369 317.112 102.145 320.413 101.463C322.576 101.049 324.814 101.288 326.84 102.15C328.997 103.151 330.821 104.749 332.098 106.755C333.607 109.061 334.646 111.642 335.157 114.349C335.826 117.049 335.92 119.859 335.432 122.597C335.077 124.95 333.982 127.128 332.305 128.817C330.853 130.403 328.943 131.497 326.84 131.944C324.673 132.369 322.425 132.067 320.447 131.085C318.273 130.128 316.44 128.534 315.189 126.514C313.785 124.411 312.772 122.071 312.199 119.607H312.095Z" fill="#00356D"/>
<path fill-rule="evenodd" clip-rule="evenodd" d="M344.13 128.234L340.797 98.4398L357.363 96.5498L357.741 100.089L344.405 101.567L345.471 110.776L357.019 109.505L357.363 113.01L345.814 114.35L347.396 127.856L344.13 128.234Z" fill="#00356D"/>
<path fill-rule="evenodd" clip-rule="evenodd" d="M373.961 125.725L374.03 95.6904L390.699 95.7935V99.333H377.226V108.543L388.946 108.646L388.877 112.151H377.226V125.794L373.961 125.725Z" fill="#00356D"/>
<path fill-rule="evenodd" clip-rule="evenodd" d="M397.367 126.309L399.498 96.3779L402.831 96.6528L400.632 126.584L397.367 126.309Z" fill="#00356D"/>
<path fill-rule="evenodd" clip-rule="evenodd" d="M408.227 127.1L412.625 97.4082L415.959 97.8549L425.307 123.045L428.779 99.745L431.906 100.261L427.507 129.849L424.173 129.436L414.756 104.144L411.285 127.512L408.227 127.1Z" fill="#00356D"/>
<path fill-rule="evenodd" clip-rule="evenodd" d="M441.769 120.467L449.914 122.529L449.433 113.904C449.323 111.751 449.323 109.595 449.433 107.443C448.673 109.274 447.756 111.034 446.684 112.701L441.94 120.57L441.769 120.467ZM431.836 130.777L448.368 104.007L451.804 104.763L454.21 136.378L450.773 135.485L450.189 125.931L440.05 123.388L435.17 131.567L431.836 130.777Z" fill="#00356D"/>
<path fill-rule="evenodd" clip-rule="evenodd" d="M458.336 137.718L468.578 109.505L471.74 110.605L475.864 137.203L484.01 115.106L486.931 116.137L476.655 144.351L473.528 143.217L469.334 116.653L461.326 138.749L458.336 137.718Z" fill="#00356D"/>
<path fill-rule="evenodd" clip-rule="evenodd" d="M503.466 145.21L506.009 147.65C504.343 149.941 502.05 151.706 499.411 152.736C497.135 153.428 494.685 153.245 492.537 152.22C490.386 151.26 488.608 149.617 487.485 147.547C486.543 145.386 486.23 143.003 486.591 140.674C486.9 137.957 487.718 135.323 488.997 132.907C490.101 130.304 491.74 127.962 493.809 126.034C495.534 124.5 497.675 123.508 499.961 123.182C502.074 122.854 504.236 123.19 506.147 124.144C508.23 125.081 509.876 126.777 510.753 128.887C511.636 131.241 511.756 133.814 511.096 136.241L507.66 135.725C508.182 133.976 508.182 132.113 507.66 130.364C507.116 128.939 506.026 127.79 504.635 127.168C503.085 126.349 501.284 126.129 499.583 126.55C497.884 127.04 496.372 128.035 495.252 129.402C493.926 130.843 492.822 132.476 491.987 134.247C490.953 136.274 490.255 138.456 489.926 140.708C489.565 142.447 489.819 144.257 490.647 145.828C491.341 147.185 492.465 148.273 493.843 148.921C495.41 149.687 497.225 149.774 498.861 149.162C500.758 148.336 502.363 146.959 503.466 145.21Z" fill="#00356D"/>
<path fill-rule="evenodd" clip-rule="evenodd" d="M506.867 159.129L522.677 133.561L537.937 142.977L536.012 145.932L523.605 138.338L518.76 146.07L530.479 153.321L528.554 156.276L516.937 149.094L511.611 157.823L524.533 165.761L522.677 168.785L506.867 159.129Z" fill="#00356D"/>
<path fill-rule="evenodd" clip-rule="evenodd" d="M543.156 168.441L549.755 173.596L552.883 165.486C553.811 163.08 554.635 161.122 555.357 159.541C553.89 160.859 552.353 162.098 550.752 163.252L543.156 168.441ZM529.891 173.699L555.977 156.104L558.76 158.235L548.14 188.098L545.218 185.796L548.484 176.792L540.476 170.435L532.605 175.761L529.891 173.699Z" fill="#00356D"/>
<path fill-rule="evenodd" clip-rule="evenodd" d="M551.164 190.949L572.095 169.403L574.501 171.705L567.421 197.685L583.781 180.777L586.049 182.942L565.222 204.489L562.746 202.187L569.827 176.138L553.433 193.114L551.164 190.949Z" fill="#00356D"/>
<path fill-rule="evenodd" clip-rule="evenodd" d="M574.78 209.85L578.217 213.905C578.987 214.953 579.956 215.841 581.07 216.517C581.864 216.975 582.764 217.212 583.681 217.204C585.121 217.172 586.531 216.807 587.806 216.139C589.545 215.29 591.16 214.216 592.617 212.943C594.593 211.467 596.196 209.548 597.292 207.341C598.069 205.951 598.302 204.323 597.945 202.771C597.416 201.49 596.646 200.323 595.677 199.334L592.239 195.279L574.643 210.022L574.78 209.85ZM569.969 209.678L592.927 190.331L598.495 196.894C599.481 197.99 600.316 199.216 600.969 200.537C601.574 201.822 601.811 203.249 601.656 204.661C601.429 206.634 600.746 208.528 599.663 210.193C598.313 212.236 596.642 214.046 594.714 215.554C593.181 216.891 591.497 218.044 589.696 218.991C588.294 219.715 586.786 220.213 585.228 220.469C584.094 220.701 582.925 220.701 581.791 220.469C580.678 220.266 579.62 219.82 578.699 219.163C577.589 218.446 576.598 217.552 575.777 216.517L569.969 209.678Z" fill="#00356D"/>
<path fill-rule="evenodd" clip-rule="evenodd" d="M590.828 235.83L615.986 219.609L625.713 234.627L622.723 236.517L614.784 224.283L607.05 229.266L614.509 240.744L611.518 242.634L604.164 231.156L595.572 236.62L603.786 249.472L600.829 251.362L590.828 235.83Z" fill="#00356D"/>
<path fill-rule="evenodd" clip-rule="evenodd" d="M621.313 267.686L621.863 271.122C619.165 271.95 616.278 271.95 613.581 271.122C611.246 270.344 609.329 268.659 608.253 266.449C607.064 264.367 606.642 261.937 607.05 259.576C607.58 257.286 608.776 255.205 610.487 253.596C612.381 251.639 614.588 250.013 617.017 248.785C619.481 247.414 622.213 246.594 625.025 246.38C627.338 246.128 629.668 246.609 631.693 247.754C633.542 248.846 635.023 250.46 635.954 252.393C637.03 254.445 637.274 256.832 636.642 259.06C635.958 261.47 634.511 263.593 632.518 265.108L630.249 262.703C631.676 261.558 632.748 260.033 633.342 258.304C633.748 256.857 633.549 255.307 632.793 254.008C632.105 252.483 630.881 251.261 629.355 250.572C627.706 249.912 625.898 249.768 624.166 250.16C622.235 250.556 620.371 251.227 618.632 252.153C616.605 253.118 614.735 254.394 613.099 255.933C611.8 257.147 610.93 258.752 610.624 260.503C610.405 261.98 610.631 263.488 611.277 264.833C612.04 266.404 613.423 267.587 615.093 268.098C617.162 268.586 619.327 268.442 621.313 267.686Z" fill="#00356D"/>
<path fill-rule="evenodd" clip-rule="evenodd" d="M630.113 277.514C627.202 278.422 624.676 280.271 622.93 282.772C620.641 286.242 621.604 290.91 625.074 293.197C625.744 293.64 626.483 293.972 627.26 294.181C630.381 294.805 633.615 294.47 636.539 293.219C638.582 292.427 640.458 291.261 642.073 289.782C643.475 288.694 644.499 287.19 644.994 285.487C646.169 281.639 644.004 277.566 640.159 276.389C640.111 276.374 640.059 276.359 640.011 276.346C636.698 275.441 633.168 275.809 630.113 277.376V277.514ZM628.979 274.318C632.752 272.609 636.996 272.245 641.008 273.287C644.272 274.156 646.905 276.57 648.054 279.748C648.885 281.815 649.005 284.099 648.397 286.243C647.755 288.527 646.437 290.563 644.616 292.085C640.52 295.916 635.069 297.967 629.46 297.789C627.109 297.747 624.82 297.031 622.861 295.727C621.071 294.505 619.712 292.749 618.977 290.71C618.139 288.655 618.029 286.375 618.668 284.249C619.31 281.955 620.628 279.908 622.449 278.373C624.342 276.56 626.604 275.177 629.082 274.318H628.979Z" fill="#00356D"/>
<path fill-rule="evenodd" clip-rule="evenodd" d="M625.266 307.102L654.341 299.507L655.2 302.806L635.714 321.329L658.465 315.384L659.256 318.408L630.249 326.003L629.39 322.807L648.945 304.181L626.125 310.126L625.266 307.102Z" fill="#00356D"/>
<path fill-rule="evenodd" clip-rule="evenodd" d="M646.263 333.082C643.266 333.429 640.457 334.731 638.255 336.793C636.485 338.413 635.657 340.819 636.055 343.185C636.375 345.587 637.853 347.68 640.007 348.786C642.898 350.113 646.139 350.474 649.252 349.817C651.405 349.515 653.484 348.838 655.405 347.824C656.985 347.089 658.305 345.893 659.186 344.388C659.959 342.998 660.251 341.39 660.01 339.817C659.749 337.534 658.491 335.482 656.573 334.216C653.47 332.702 649.937 332.301 646.572 333.082H646.263ZM645.85 329.645C649.948 328.815 654.202 329.371 657.948 331.226C660.976 332.79 663.031 335.749 663.447 339.13C663.804 341.35 663.406 343.625 662.313 345.59C661.244 347.676 659.567 349.391 657.501 350.505C655.119 351.872 652.494 352.762 649.769 353.116C646.998 353.635 644.149 353.539 641.417 352.841C639.124 352.319 637.042 351.123 635.437 349.405C633.945 347.838 632.983 345.845 632.688 343.7C632.32 341.469 632.722 339.18 633.822 337.205C634.932 335.134 636.629 333.436 638.701 332.326C640.933 330.991 643.41 330.126 645.988 329.783L645.85 329.645Z" fill="#00356D"/>
<path fill-rule="evenodd" clip-rule="evenodd" d="M635.539 361.329L665.611 360.264V365.213L644.715 371.639L640.317 372.945C641.451 373.185 642.997 373.529 645.196 374.148L666.264 379.337V383.701L636.261 384.766V381.57L661.35 380.711L635.951 374.491V371.57L661.178 363.529L635.676 364.422L635.539 361.329Z" fill="#00356D"/>
<path fill-rule="evenodd" clip-rule="evenodd" d="M635.988 392.189L665.992 393.564L665.751 396.863L635.781 395.488L635.988 392.189Z" fill="#00356D"/>
<path fill-rule="evenodd" clip-rule="evenodd" d="M643.72 421.88L642.379 425.076C639.709 424.22 637.327 422.64 635.505 420.506C634.045 418.533 633.416 416.066 633.753 413.633C633.928 411.334 634.901 409.172 636.502 407.516C638.182 405.846 640.349 404.749 642.689 404.388C645.342 403.804 648.075 403.687 650.765 404.045C653.57 404.358 656.288 405.21 658.773 406.553C660.763 407.667 662.402 409.306 663.516 411.296C664.43 413.234 664.798 415.385 664.581 417.516C664.33 419.787 663.237 421.884 661.523 423.392C659.595 425.038 657.179 426.004 654.649 426.141L654.099 422.705C655.937 422.612 657.708 421.98 659.186 420.884C660.364 419.897 661.086 418.468 661.179 416.932C661.416 415.22 661.038 413.478 660.114 412.017C659.093 410.574 657.67 409.461 656.023 408.822C654.236 408.069 652.35 407.571 650.422 407.344C648.143 406.997 645.826 406.997 643.548 407.344C640.194 407.715 637.512 410.296 637.017 413.633C636.818 415.382 637.299 417.141 638.359 418.547C639.754 420.193 641.627 421.358 643.72 421.88Z" fill="#00356D"/>
<path fill-rule="evenodd" clip-rule="evenodd" d="M641.454 430.506L641.075 433.598C639.834 433.399 638.569 433.399 637.329 433.598C636.178 433.922 635.157 434.592 634.408 435.523C633.624 436.547 633.054 437.715 632.724 438.959C632.48 440.093 632.48 441.262 632.724 442.396C632.896 443.327 633.339 444.186 633.995 444.87C634.7 445.502 635.549 445.953 636.47 446.176C637.294 446.351 638.15 446.293 638.944 446.004C639.844 445.688 640.618 445.083 641.143 444.286C642.048 442.997 642.852 441.64 643.55 440.231C644.337 438.702 645.316 437.279 646.471 436.004C647.43 435.062 648.612 434.375 649.907 434.011C651.17 433.774 652.462 433.774 653.723 434.011C655.173 434.344 656.52 435.028 657.64 436.004C658.723 436.997 659.49 438.289 659.841 439.715C660.253 441.234 660.253 442.836 659.841 444.355C659.528 446.014 658.795 447.564 657.709 448.856C656.73 450.039 655.431 450.911 653.963 451.365C652.348 451.743 650.664 451.743 649.048 451.365L649.495 448.272C651.053 448.599 652.678 448.317 654.032 447.482C655.331 446.571 656.201 445.166 656.438 443.599C656.915 442.121 656.792 440.516 656.094 439.131C655.472 438.117 654.468 437.399 653.31 437.138C652.365 436.843 651.338 436.966 650.493 437.482C649.12 438.64 648.045 440.114 647.364 441.777C646.474 443.533 645.406 445.193 644.168 446.726C642.216 449.052 639.085 450.018 636.16 449.2C634.628 448.832 633.195 448.128 631.967 447.138C630.768 446.111 629.926 444.726 629.561 443.186C629.094 441.571 629.094 439.853 629.561 438.238C629.922 436.348 630.75 434.574 631.967 433.083C633.078 431.77 634.566 430.836 636.229 430.403C637.958 430.052 639.741 430.086 641.454 430.506Z" fill="#00356D"/>
<path fill-rule="evenodd" clip-rule="evenodd" d="M380.353 80.3287C213.698 80.3476 78.6131 215.449 78.632 382.086C78.6509 548.724 213.767 683.794 380.422 683.773C547.078 683.753 682.163 548.655 682.142 382.017C682.142 381.993 682.142 381.971 682.142 381.948C681.953 215.383 546.937 80.4116 380.353 80.26V80.3287ZM380.353 688.172C211.25 688.172 74.1641 551.102 74.1641 382.017C74.1641 212.932 211.25 75.8613 380.353 75.8613C549.429 75.8613 686.504 212.89 686.542 381.948C686.391 550.982 549.405 687.982 380.353 688.172Z" fill="#00356D"/>
<path fill-rule="evenodd" clip-rule="evenodd" d="M303.51 544.665C283.867 537.727 267.793 523.263 258.831 504.459C223.535 433.289 253.916 331.948 329.011 303.219C372.419 287.102 429.505 286.483 482.741 280.263C550.345 282.6 544.364 235.589 541.684 200.09C465.523 213.286 378.571 216.998 325.403 239.885C250.17 272.428 210.165 325.934 202.914 389.509C195.181 477.345 241.063 527.93 303.167 545.353C303.27 545.112 303.407 544.94 303.51 544.665Z" fill="#F3B900"/>
<path fill-rule="evenodd" clip-rule="evenodd" d="M544.357 358.615C515.35 326.106 474.452 331.707 434.722 390.471C394.992 449.234 377.877 372.189 335.053 392.876C308.728 405.557 304.844 446.657 317.181 481.159C328.73 513.943 349.729 492.362 361.861 484.424C299.758 464.424 328.386 380.642 363.923 400.574C400.388 421.193 407.399 437.069 445.755 390.471C495.829 330.917 516.725 390.814 506.312 421.777C498.888 443.977 491.499 467.276 451.494 502.225C416.266 530.335 367.188 552.535 325.43 549.167C325.47 549.487 325.47 549.81 325.43 550.129C376.502 557.793 434.894 545.799 482.907 515.936C546.592 475.901 579.379 399.852 544.357 358.615Z" fill="#F3B900"/>
<path fill-rule="evenodd" clip-rule="evenodd" d="M413.622 382.189C388.567 380.642 377.294 434.045 401.971 439.578C425.513 444.836 440.91 383.838 413.622 382.189ZM393.757 443.805C359.388 429.543 397.503 358.615 428.126 375.694C458.748 392.773 424.998 456.829 393.757 443.805Z" fill="#F3B900"/>
<path fill-rule="evenodd" clip-rule="evenodd" d="M332.412 629.58L332.79 633.567L333.271 634.323L334.13 633.017V637.862C332.79 638.206 333.924 643.67 333.065 646.247C332.584 648.137 331.002 648.825 329.215 649.34V650.302C331.269 650.361 333.31 650.649 335.299 651.161C333.374 655.045 327.085 658.034 326.5 660.302L326.775 660.921C327.633 661.251 328.518 661.505 329.421 661.677C334.082 658.763 338.028 654.842 340.97 650.199H342.516L342.757 651.058L341.829 651.918C343.245 655.22 345.131 658.299 347.43 661.059C351.761 657.897 348.358 655.182 345.643 651.918C349.08 646.832 349.08 632.776 347.912 626.728L344.475 623.292C341.348 623.051 334.165 624.769 333.855 625.972C334.13 628.824 340.076 627.209 345.128 626.934C343.839 632.979 343.642 639.206 344.544 645.32C343.543 645.598 342.853 646.515 342.86 647.553C339.663 645.835 338.666 645.663 336.742 647.038L336.055 646.591C336.742 643.429 335.677 643.154 341.279 642.983V640.13C339.732 639.601 338.084 639.45 336.467 639.684L336.811 636.694L341.382 636.35L342.138 635.216L340.867 633.67L336.983 634.77C336.424 633.316 336.246 631.742 336.467 630.199L332.412 629.58Z" fill="#00356D"/>
<path fill-rule="evenodd" clip-rule="evenodd" d="M352.416 635.388L352.141 637.278C355.574 638.563 359.341 638.649 362.83 637.519L363.62 638.137L363.277 645.01L356.162 645.457L355.887 646.728C357.674 648.722 360.08 648.825 362.143 649.856C362.417 652.364 362.83 654.839 363.036 657.175L362.555 662.708H359.667L357.159 660.543L356.54 660.302C354.547 659.787 358.361 664.873 359.152 665.835C362.143 667.382 364.101 666.316 366.747 665.835C367.266 662.316 367.266 658.736 366.747 655.217C366.747 654.083 366.747 652.708 366.747 651.505L369.704 652.021C370.271 651.285 370.776 650.502 371.216 649.684C369.748 648.299 368.198 647.003 366.576 645.801L367.881 643.67L367.16 636.591C368.438 636.598 369.707 636.828 370.907 637.278C372.144 636.66 373.965 636.247 374.034 635.113C373.553 633.807 372.968 633.017 370.597 632.433L367.16 633.017C366.885 628.446 369.222 624.048 368.775 619.752L367.813 618.79C366.232 618.79 364.823 617.072 362.349 620.439L364.101 622.501C362.816 625.732 362.72 629.309 363.826 632.605C361.49 635.182 352.623 634.838 352.623 635.388H352.416Z" fill="#00356D"/>
<path fill-rule="evenodd" clip-rule="evenodd" d="M239.892 566.521L239.445 568.136C242.093 570.817 246.56 568.927 250.031 569.683L250.685 568.411C249.612 565.982 248.275 563.676 246.697 561.538L244.842 562.054C244.223 564.666 242.642 567.587 239.892 566.659V566.521Z" fill="#00356D"/>
<path fill-rule="evenodd" clip-rule="evenodd" d="M207.414 612.501L209.475 613.086C212.432 613.086 214.631 611.711 217.277 613.292L217.621 612.673C215.632 609.993 212.566 608.323 209.235 608.104C207.826 608.104 207.62 610.955 207.414 612.501Z" fill="#00356D"/>
<path fill-rule="evenodd" clip-rule="evenodd" d="M228.414 619.065C227.457 619.659 226.345 619.958 225.219 619.924V620.817C226.917 622.333 228.956 623.419 231.164 623.979C233.019 623.979 233.913 622.948 233.5 620.817L232.71 618.378L231.713 617.965C230.439 618.288 229.104 618.288 227.83 617.965L227.418 618.481L228.414 619.065Z" fill="#00356D"/>
<path fill-rule="evenodd" clip-rule="evenodd" d="M226.76 587.381C227.786 587.453 228.795 587.686 229.75 588.068L230.506 586.796C230.472 586.119 230.205 585.477 229.75 584.975C228.573 585.521 227.547 586.35 226.76 587.381ZM225.695 587.896C227.799 590.714 231.294 592.13 234.768 591.573C233.221 594.597 224.457 593.223 216.346 593.051C219.147 590.807 222.308 589.051 225.695 587.862V587.896ZM230.403 599.477L231.056 599.992L230.403 600.852L229.715 600.336L230.403 599.477ZM228.787 602.742C226.931 602.594 225.074 603.013 223.46 603.944L226.141 606.041C226.931 605.718 227.553 605.085 227.86 604.288C227.516 603.944 227 602.913 228.478 603.429L228.787 602.742ZM222.326 604.632L223.735 607.656H221.673L220.058 606.384L222.326 604.46V604.632ZM227.275 609.408C226.313 609.821 231.33 611.986 232.052 609.718C230.499 609.281 228.872 609.175 227.275 609.408ZM231.124 606.212L232.327 603.876C233.531 604.563 236.005 606.041 234.94 606.453C233.687 606.886 232.312 606.8 231.124 606.212ZM227 572.879C226.857 572.171 227.313 571.484 228.02 571.339C228.385 571.264 228.764 571.349 229.062 571.573C229.038 572.143 229.157 572.71 229.406 573.222C231.05 573.514 232.67 573.927 234.252 574.459C234.871 573.944 235.593 573.394 236.28 573.772C241.332 577.209 241.263 573.772 248.343 575.662C248.343 576.246 248.343 576.59 248.721 576.865C248.37 578.264 247.603 579.521 246.522 580.473C242.604 578.308 236.211 582.398 231.743 583.91C233.943 587.69 238.342 583.91 239.785 585.8C239.785 587.278 236.349 586.659 235.593 588.996C240.404 591.573 242.467 586.212 244.666 586.143C245.525 586.831 246.934 587.106 247.071 588.034L245.869 590.714C244.666 590.37 243.944 590.714 243.669 591.504C244.408 591.944 245.225 592.236 246.075 592.363V594.322L244.597 594.597C243.016 594.597 242.467 594.254 240.129 592.948L236.864 595.044C239.063 595.731 241.332 595.525 243.944 596.522C245.428 597.807 246.218 599.718 246.075 601.676C242.89 600.408 239.501 599.735 236.074 599.683L234.596 601.505C236.314 602.408 237.815 603.676 238.995 605.216C238.411 606.137 238.134 607.219 238.204 608.309C235.864 610.123 233.913 612.391 232.464 614.975C231.294 614.573 230 614.793 229.028 615.56L225.832 613.085C223.838 612.055 221.295 612.295 220.092 611.161L216.278 607.45C216.746 604.968 217.755 602.621 219.233 600.577C220.436 599.889 223.151 599.443 224.286 598.24C222.704 597.106 217.412 598.24 213.974 598.515C213.631 594.357 210.881 596.075 209.301 596.865C205.239 599.395 200.919 601.48 196.412 603.085C196.723 603.738 196.723 604.494 196.412 605.147L194.281 602.81C197.719 595.044 209.507 592.501 215.693 589.271C218.443 587.724 220.023 584.872 222.36 585.044C222.993 585.016 223.603 584.8 224.114 584.425C225.179 583.738 225.351 582.295 226.691 581.848C229.509 580.714 234.768 580.13 235.112 578.411C232.774 577.793 229.887 578.411 227.825 577.037C227.443 575.673 227.156 574.284 226.966 572.879H227Z" fill="#00356D"/>
<path fill-rule="evenodd" clip-rule="evenodd" d="M284.637 604.288L285.566 604.804C287.387 607.759 296.254 609.133 302.131 608.962C302.907 609.233 303.63 609.639 304.262 610.164C304.385 611.505 304.269 612.852 303.919 614.151C296.701 611.642 282.781 612.845 284.637 604.288Z" fill="#00356D"/>
<path fill-rule="evenodd" clip-rule="evenodd" d="M285.123 630.199C284.56 633.591 283.283 636.821 281.377 639.684L283.714 640.199C286.051 636.763 289.591 634.323 290.245 630.371C288.549 630.663 286.817 630.663 285.123 630.371V630.199ZM293.853 631.471C295.524 631.993 297.222 632.429 298.939 632.776C299.73 635.457 293.578 638.55 290.003 639.649C289.522 640.234 287.975 639.649 288.869 638.103C290.072 635.697 293.2 633.086 293.853 631.436V631.471ZM285.982 613.085C287.185 613.463 287.323 614.048 285.982 614.494C279.797 617.463 274.675 622.264 271.307 628.24C274.759 628.495 278.23 628.264 281.618 627.553C282.162 626.233 282.235 624.763 281.824 623.395L282.821 621.951L285.226 623.223C285.962 624.426 286.376 625.8 286.429 627.209C287.981 627.47 289.518 627.814 291.035 628.24C291.982 626.316 292.609 624.25 292.891 622.123C293.057 621.055 293.577 620.075 294.368 619.34C296.77 621.948 297.711 625.584 296.877 629.031C298.905 629.972 301.041 630.663 303.235 631.093C305.118 633.33 306.238 636.113 306.431 639.031C303.545 641.711 299.558 640.577 295.296 641.78C293.858 641.801 292.45 642.192 291.207 642.914C293.604 643.68 295.674 645.227 297.083 647.313L295.227 649.203C291.36 648.385 287.548 647.316 283.817 646.007C286.292 644.907 289.934 647.313 291.757 645.491C289.625 643.842 288.319 644.289 286.017 644.048L281.343 641.883C279.817 641.948 278.289 641.797 276.806 641.436C275.871 641.423 274.949 641.223 274.091 640.852C273.404 640.529 273.109 639.711 273.432 639.024C273.637 638.587 274.057 638.288 274.538 638.24C275.976 638.261 277.385 638.649 278.627 639.374L280.62 631.849L279.761 630.577C276.875 630.577 270.688 631.264 269.451 633.842C268.214 636.419 266.77 638.859 264.983 636.178C263.781 633.223 265.774 631.161 266.839 627.45C269.039 621.127 277.974 616.625 285.982 613.085Z" fill="#00356D"/>
<path fill-rule="evenodd" clip-rule="evenodd" d="M401.561 642.192C406.21 638.587 409.545 633.553 411.047 627.862L412.902 628.137L414.62 629.924C414.036 634.598 406.028 638.034 406.028 640.99C411.837 637.072 414.517 636.247 417.164 636.935L418.092 640.715C415.263 642.955 413.122 645.945 411.906 649.34C410.686 649.581 409.517 650.045 408.469 650.715L407.919 651.23L408.263 651.677L407.988 653.498C410.462 654.426 411.425 654.942 411.425 656.935C412.833 657.794 412.833 658.069 411.699 659.547L412.765 661.849C413.139 662.21 413.73 662.21 414.105 661.849C416.304 657.381 420.36 645.904 421.288 648.756C421.701 650.027 417.508 662.021 414.964 668.756L412.971 669.1C410.29 667.382 408.572 666.007 409.294 658.069C407.341 657.553 405.492 656.705 403.829 655.56L403.623 654.014C404.984 653.357 406.241 652.512 407.369 651.505L407.885 651.093V649.684C410.184 647.151 411.772 644.058 412.49 640.715L411.768 640.371C408.744 640.783 403.898 646.935 402.901 646.247C401.905 645.56 401.08 644.77 401.423 642.364L401.561 642.192Z" fill="#00356D"/>
<path fill-rule="evenodd" clip-rule="evenodd" d="M422.626 627.69C422.18 626.556 434.243 625.113 435.583 622.158C438.058 622.158 439.261 622.948 439.845 623.876C438.917 629.168 432.181 636.144 423.451 643.739L420.839 643.051L420.633 642.192C426.369 638.127 431.002 632.694 434.105 626.385C429.569 627.519 424.31 633.017 422.626 627.69Z" fill="#00356D"/>
<path fill-rule="evenodd" clip-rule="evenodd" d="M438.297 637.45V638.137L441.561 639.512V640.096L438.812 643.533C444.345 644.185 447.816 643.533 447.335 640.096C446.132 637.45 438.022 635.732 438.331 637.45H438.297Z" fill="#00356D"/>
<path fill-rule="evenodd" clip-rule="evenodd" d="M435.446 648.481H437.233C436.959 650.99 436.58 651.505 434.897 650.99L435.446 648.481ZM431.701 637.622C430.257 638.206 431.254 644.082 430.91 647.931C429.267 648.347 427.531 648.227 425.961 647.588C424.758 651.024 426.717 651.402 431.563 649.581L431.838 650.027C431.185 651.275 431.003 652.711 431.323 654.083C428.435 655.801 427.645 656.247 427.645 656.935V657.588L429.294 657.794L429.742 656.866H431.46L432.079 658.172V659.512L430.498 660.577C427.06 660.818 420.737 660.234 420.188 661.265L423.624 664.426C429.225 664.426 437.68 663.67 439.881 661.952C443.059 662.612 446.348 662.553 449.504 661.78V660.577C447.614 659.529 445.839 658.285 444.21 656.866C442.578 657.959 440.743 658.718 438.815 659.1L435.756 659.615L435.068 654.598C437.646 653.1 440.045 651.313 442.217 649.271L440.018 646.316C438.403 646.316 437.302 647.107 435.55 647.278C434.965 644.667 435.893 642.433 435.55 638.996C434.498 638.237 433.237 637.818 431.941 637.794L431.701 637.622Z" fill="#00356D"/>
<path fill-rule="evenodd" clip-rule="evenodd" d="M465.519 629.374C465.072 632.367 465.237 635.416 466 638.343C467.924 639.959 469.711 638.172 470.261 635.594C470.141 633.172 469.278 630.842 467.787 628.927L465.519 629.374Z" fill="#00356D"/>
<path fill-rule="evenodd" clip-rule="evenodd" d="M482.976 605.938C482.825 607.456 483.395 608.962 484.522 609.993L485.003 616.281L490.4 612.432L489.987 610.852C487.478 611.917 485.21 610.268 484.728 606.728L482.976 605.938ZM465.242 612.432H468.678C470.637 616.487 473.215 618.034 474.281 623.807L476.377 622.089C473.143 617.182 470.575 611.865 468.747 606.281L469.743 605.25L471.497 605.766L473.628 613.635C474.827 614.666 476.143 615.553 477.545 616.281L479.16 620.096L480.777 618.996C477.954 616.189 476.446 612.319 476.617 608.343C477.305 608.343 478.095 608.343 478.507 608.962C478.748 613.085 480.227 615.079 482.563 615.353C482.127 612.298 480.948 609.395 479.126 606.9L476.858 607.999L474.796 606.968C473.456 602.054 469.262 595.594 470.74 592.226C472.391 592.226 472.872 591.951 474.177 595.388L476.789 592.57H478.061L478.473 594.185C477.717 595.937 476.274 596.9 475.38 598.79C474.796 600.061 475.793 602.226 476.136 603.704C478.92 604.907 480.467 603.36 482.014 605.869C483.663 604.116 485.072 603.188 486.344 603.257C487.615 603.326 487.546 605.525 487.718 608.446H488.612L489.541 608.103C486.103 602.226 486.997 597.793 484.144 596.453C482.113 597.896 480.522 599.869 479.538 602.157C478.92 602.913 477.855 602.845 477.992 602.157C481.258 592.741 484.454 591.848 487.615 594.494C490.056 600.096 492.393 606.144 491.809 610.611L492.874 611.745C495.324 608.951 499.188 607.862 502.738 608.962L503.39 610.542C501.82 614.804 498.806 618.381 494.867 620.646L494.352 619.099C496.042 617.006 497.221 614.546 497.788 611.917L497.41 611.298L493.08 612.536C493.08 619.58 491.396 621.058 487.993 616.831L486.206 617.622C484.797 618.824 485.141 620.714 483.079 620.886C480.399 620.646 479.916 621.47 479.848 623.91C477.882 624.508 476.002 625.35 474.246 626.419L471.909 627.175L471.531 626.488C473.8 624.048 463.523 613.292 465.242 612.432Z" fill="#00356D"/>
<path fill-rule="evenodd" clip-rule="evenodd" d="M495.042 639.168C491.068 639.938 488.192 643.405 488.168 647.45C489.732 648.299 491.532 648.598 493.288 648.309C493.977 645.629 496.726 644.014 494.904 639.168H495.042ZM483.768 629.924C486.828 627.347 489.439 622.673 492.773 622.33C495.489 622.089 492.154 629.202 491.089 633.017L491.57 633.635C494.836 632.261 496.898 632.605 497.825 635.01C505.833 630.371 507.655 634.254 508.136 635.01C504.851 635.567 501.619 636.405 498.478 637.519C500.509 642.488 498.386 648.182 493.598 650.612C488.065 648.55 483.803 646.385 486.725 643.567C487.343 641.402 489.543 639.581 492.601 637.416V636.728C490.402 635.526 490.127 637.416 488.718 633.807L490.608 626.556C488.134 629.58 485.247 634.838 483.734 629.821L483.768 629.924Z" fill="#00356D"/>
<path fill-rule="evenodd" clip-rule="evenodd" d="M529.414 569.855L530.067 570.989C531.853 570.023 533.796 569.384 535.806 569.099C535.806 570.645 535.154 572.535 536.15 573.497H538.349C539.965 569.786 541.545 566.865 540.343 565.25C539.621 564.287 538.693 564.013 536.631 564.872L529.414 569.855Z" fill="#00356D"/>
<path fill-rule="evenodd" clip-rule="evenodd" d="M530.547 583.668C531.406 584.871 533.365 584.63 534.292 586.864C535.804 590.301 536.905 593.737 539.964 591.366C539.964 589.029 537.627 588.685 537.077 585.73L546.494 572.362L546.906 576.005L547.422 576.177C550.858 573.771 551.374 570.988 552.508 566.417L551.958 565.73C549.621 565.933 547.405 566.871 545.635 568.41L536.493 582.156C534.292 582.912 532.54 583.015 530.547 583.771V583.668Z" fill="#00356D"/>
<path fill-rule="evenodd" clip-rule="evenodd" d="M541.953 590.061V589.374C544.417 586.391 546.115 582.851 546.902 579.064L550.82 578.755L551.507 579.786C550.82 582.192 546.352 592.123 542.09 590.095L541.953 590.061Z" fill="#00356D"/>
<path fill-rule="evenodd" clip-rule="evenodd" d="M545.148 597.828L546.558 599.821C552.537 598.961 551.609 593.154 553.877 591.711C554.365 595.931 554.283 600.195 553.637 604.391C553.118 605.357 552.482 606.257 551.747 607.072C551.784 608.14 552.242 609.154 553.018 609.889L556.146 608.79C555.837 605.078 557.04 599.889 556.146 597.999L558.689 596.384C560.796 598.137 562.782 600.034 564.635 602.054C572.953 599.718 574.705 594.632 579.035 589.992C579.001 588.93 578.544 587.927 577.764 587.209C576.063 586.576 574.152 586.979 572.849 588.24L573.846 590.577C571.904 593.752 569.003 596.233 565.563 597.656C563.878 597.312 561.232 592.913 559.892 592.638C558.937 592.666 557.985 592.607 557.04 592.467L556.49 591.882C555.975 588.79 557.693 585.009 556.215 584.013C555.078 583.841 553.915 583.841 552.778 584.013C549.135 588.515 551.54 593.601 545.182 597.759L545.148 597.828Z" fill="#00356D"/>
<path fill-rule="evenodd" clip-rule="evenodd" d="M523.6 589.649C526.164 591.539 528.075 594.181 529.065 597.209L530.818 595.766C529.271 592.57 526.28 591.539 524.94 587.484C523.737 586.865 523.875 588.583 523.6 589.649ZM517.138 595.147C516.348 594.391 516.554 593.326 517.688 592.295C517.413 588.858 520.885 588.343 521.126 581.985C522.81 581.288 524.7 581.288 526.384 581.985C528.171 582.57 527.45 586.625 528.721 588.858C530.714 592.054 532.398 588.686 535.319 597.243L533.979 598.102C532.663 598.144 531.381 598.535 530.268 599.236C534.804 604.807 538.863 610.752 542.399 617.003L541.197 618.378H538.86C533.12 610.783 528.24 600.267 521.194 593.704C520.163 593.188 518.514 595.078 517.242 595.766L517.138 595.147Z" fill="#00356D"/>
</svg>
