<svg xmlns="http://www.w3.org/2000/svg" xmlns:xlink="http://www.w3.org/1999/xlink" fill="none" version="1.1" width="849.849609375" height="850.001953125" viewBox="0 0 849.849609375 850.001953125"><g><g transform="matrix(1,0,0,1.0001800060272217,0,-1.3733369996771216e-9)"><path d="M849.849,424.9240076293945Q849.849,435.3560076293945,849.337,445.7750076293945Q848.825,456.1930076293945,847.803,466.57400762939454Q846.78,476.9550076293945,845.25,487.27400762939453Q843.719,497.5920076293945,841.684,507.8230076293945Q839.649,518.0540076293945,837.114,528.1730076293945Q834.58,538.2910076293946,831.552,548.2740076293945Q828.524,558.2560076293945,825.01,568.0770076293945Q821.495,577.8990076293945,817.503,587.5360076293945Q813.512,597.1730076293945,809.052,606.6030076293945Q804.592,616.0330076293945,799.674,625.2330076293945Q794.757,634.4320076293945,789.394,643.3790076293946Q784.032,652.3270076293945,778.236,661.0000076293945Q772.441,669.6730076293945,766.227,678.0520076293946Q760.013,686.4300076293945,753.396,694.4940076293946Q746.778,702.5570076293945,739.773,710.2860076293945Q732.767,718.0150076293945,725.391,725.3910076293945Q718.015,732.7680076293946,710.286,739.7730076293946Q702.557,746.7780076293946,694.494,753.3960076293945Q686.43,760.0130076293946,678.052,766.2270076293945Q669.673,772.4410076293946,661,778.2360076293945Q652.326,784.0320076293946,643.379,789.3940076293945Q634.432,794.7570076293945,625.232,799.6740076293945Q616.033,804.5920076293945,606.603,809.0520076293946Q597.173,813.5120076293945,587.536,817.5030076293946Q577.899,821.4950076293945,568.077,825.0100076293945Q558.256,828.5240076293945,548.273,831.5520076293946Q538.291,834.5800076293946,528.173,837.1150076293945Q518.054,839.6490076293945,507.823,841.6840076293945Q497.592,843.7190076293946,487.274,845.2500076293945Q476.955,846.7800076293945,466.574,847.8030076293945Q456.193,848.8250076293946,445.775,849.3370076293945Q435.356,849.8490076293946,424.924,849.8490076293946Q414.493,849.8490076293946,404.074,849.3370076293945Q393.656,848.8250076293946,383.275,847.8030076293945Q372.894,846.7800076293945,362.575,845.2500076293945Q352.257,843.7190076293946,342.026,841.6840076293945Q331.795,839.6490076293945,321.676,837.1140076293946Q311.558,834.5800076293946,301.575,831.5520076293946Q291.593,828.5240076293945,281.772,825.0100076293945Q271.95,821.4950076293945,262.313,817.5030076293946Q252.676,813.5120076293945,243.246,809.0520076293946Q233.816,804.5920076293945,224.616,799.6740076293945Q215.417,794.7570076293945,206.47,789.3940076293945Q197.522,784.0320076293946,188.849,778.2360076293945Q180.176,772.4410076293946,171.797,766.2270076293945Q163.419,760.0130076293946,155.355,753.3960076293945Q147.292,746.7780076293946,139.563,739.7730076293946Q131.834,732.7670076293946,124.457,725.3910076293945Q117.081,718.0150076293945,110.076,710.2860076293945Q103.071,702.5570076293945,96.4534,694.4940076293946Q89.8359,686.4300076293945,83.6219,678.0520076293946Q77.408,669.6730076293945,71.6127,661.0000076293945Q65.8174,652.3260076293946,60.4546,643.3790076293946Q55.0918,634.4320076293945,50.1745,625.2320076293945Q45.2573,616.0330076293945,40.7973,606.6030076293945Q36.3373,597.1730076293945,32.3454,587.5360076293945Q28.3536,577.8990076293945,24.8393,568.0770076293945Q21.3251,558.2560076293945,18.2971,548.2730076293946Q15.269,538.2910076293946,12.7344,528.1730076293945Q10.1998,518.0540076293945,8.1648,507.8230076293945Q6.12975,497.5920076293945,4.59916,487.27400762939453Q3.06857,476.9550076293945,2.04612,466.57400762939454Q1.02368,456.1930076293945,0.511836,445.7750076293945Q-0.00000402785,435.3560076293945,-0.00000402785,424.9240076293945Q-0.00000402785,414.4930076293945,0.511836,404.07400762939454Q1.02368,393.65600762939454,2.04612,383.2750076293945Q3.06857,372.89400762939454,4.59916,362.5750076293945Q6.12975,352.25700762939454,8.1648,342.02600762939454Q10.1998,331.79500762939455,12.7344,321.6760076293945Q15.269,311.5580076293945,18.2971,301.5750076293945Q21.3251,291.59300762939455,24.8393,281.7720076293945Q28.3536,271.9500076293945,32.3454,262.3130076293945Q36.3373,252.67600762939452,40.7973,243.24600762939454Q45.2573,233.81600762939453,50.1745,224.61600762939455Q55.0918,215.41700762939453,60.4546,206.47000762939453Q65.8174,197.52200762939452,71.6127,188.84900762939452Q77.408,180.17600762939452,83.6219,171.79700762939453Q89.8359,163.41900762939454,96.4534,155.35500762939452Q103.071,147.29200762939453,110.076,139.56300762939452Q117.081,131.83400762939453,124.457,124.45700762939452Q131.834,117.08100762939453,139.563,110.07600762939452Q147.292,103.07100762939453,155.355,96.45340762939453Q163.419,89.83590762939453,171.797,83.62190762939453Q180.176,77.40800762939453,188.849,71.61270762939454Q197.522,65.81740762939454,206.47,60.45460762939453Q215.417,55.09180762939453,224.616,50.17450762939453Q233.816,45.25730762939453,243.246,40.79730762939453Q252.676,36.33730762939453,262.313,32.34540762939453Q271.95,28.35360762939453,281.772,24.839307629394533Q291.593,21.32510762939453,301.575,18.29710762939453Q311.558,15.269007629394531,321.676,12.734407629394532Q331.795,10.199807629394531,342.026,8.16480762939453Q352.257,6.129757629394531,362.575,4.599167629394532Q372.894,3.068577629394531,383.275,2.0461276293945314Q393.656,1.0236876293945312,404.074,0.5118436293945312Q414.493,0.00000360154453125,424.924,0.00000360154453125Q435.356,0.00000360154453125,445.775,0.5118436293945312Q456.193,1.0236876293945312,466.574,2.0461276293945314Q476.955,3.068577629394531,487.274,4.599167629394532Q497.592,6.129757629394531,507.823,8.16480762939453Q518.054,10.199807629394531,528.173,12.734407629394532Q538.291,15.269007629394531,548.274,18.29710762939453Q558.256,21.32510762939453,568.077,24.839307629394533Q577.899,28.35360762939453,587.536,32.34540762939453Q597.173,36.33730762939453,606.603,40.79730762939453Q616.033,45.25730762939453,625.233,50.17450762939453Q634.432,55.09180762939453,643.379,60.45460762939453Q652.327,65.81740762939454,661,71.61270762939454Q669.673,77.40800762939453,678.052,83.62190762939453Q686.43,89.83590762939453,694.494,96.45340762939453Q702.557,103.07100762939453,710.286,110.07600762939452Q718.015,117.08100762939453,725.391,124.45700762939452Q732.768,131.83400762939453,739.773,139.56300762939452Q746.778,147.29200762939453,753.396,155.35500762939452Q760.013,163.41900762939454,766.227,171.79700762939453Q772.441,180.17600762939452,778.236,188.84900762939452Q784.032,197.52200762939452,789.394,206.47000762939453Q794.757,215.41700762939453,799.674,224.61600762939455Q804.592,233.81600762939453,809.052,243.24600762939454Q813.512,252.67600762939452,817.503,262.3130076293945Q821.495,271.9500076293945,825.01,281.7720076293945Q828.524,291.59300762939455,831.552,301.5750076293945Q834.58,311.5580076293945,837.115,321.6760076293945Q839.649,331.79500762939455,841.684,342.02600762939454Q843.719,352.25700762939454,845.25,362.5750076293945Q846.78,372.89400762939454,847.803,383.2750076293945Q848.825,393.65600762939454,849.337,404.07400762939454Q849.849,414.4930076293945,849.849,424.9240076293945Z" fill="#E60012" fill-opacity="1"/></g><g transform="matrix(1,0,0,1.0001800060272217,0,-0.0191722912768455)"><path d="M424.924234375,743.3781629028321C600.332234375,743.3781629028321,743.381234375,600.395162902832,743.381234375,424.94316290283206C743.381234375,249.49216290283204,600.398234375,106.50916290283203,424.924234375,106.50916290283203C249.451234375,106.50916290283203,106.490234375,249.49216290283204,106.490234375,424.94316290283206C106.490234375,600.395162902832,249.539234375,743.3781629028321,424.924234375,743.3781629028321Z" fill-rule="evenodd" fill="#FFFFFF" fill-opacity="1"/></g><g transform="matrix(1,0,0,1.0001800060272217,0,-0.03619430898652354)"><path d="M297.46996875,668.1857615356446L294.47896875000004,653.9317615356445C294.19296875,652.5677615356445,344.28096875,608.8807615356445,416.45396875,656.4607615356445C419.55596875,654.8997615356445,483.96396875,608.2207615356446,540.07996875,653.9317615356445L538.0779687500001,667.9217615356445C537.65996875,670.9357615356446,486.53796875,619.6377615356446,423.88896875,668.3617615356445L412.36296875,668.6917615356446C403.76196875,668.9337615356445,364.09996875,625.7087615356445,306.44496875,662.4667615356445L297.46996875,668.1857615356446ZM296.14996874999997,632.4177615356446L307.43496875,627.7547615356445C371.93196875,601.1157615356445,403.43196875,635.3437615356445,412.03296875,634.9257615356446L423.55996875,634.3537615356445Q486.20796875,592.0967615356445,538.40796875,633.4737615356446L540.07996875,616.6457615356445Q483.28296875,575.8187615356445,416.45396875,619.1537615356445Q345.44696875,574.3887615356446,294.47896875000004,616.6457615356445L296.14996874999997,632.4177615356446ZM554.83996875,465.41376153564454L528.5749687499999,465.41376153564454Q530.2029687500001,486.13476153564454,540.8059687499999,491.1067615356445C543.39696875,493.1787615356445,545.54396875,495.7517615356445,547.11896875,498.67376153564453C549.1649687500001,502.91876153564453,548.96696875,508.11076153564454,539.9919687500001,511.8717615356445Q537.65996875,562.4657615356446,478.86096875,589.7647615356445C476.51396875,589.6927615356445,474.17296875,590.0107615356445,471.93196875,590.7107615356445C467.79196875,591.6987615356445,464.90796875,595.4507615356445,465.02496875,599.7077615356445L366.38796875,600.5437615356445Q372.98696874999996,593.9447615356446,356.62096875,589.7647615356445C357.39096875,589.5007615356445,306.40096875,574.7407615356445,293.04896875,511.03576153564455Q280.94996875000004,506.63676153564455,288.97896875000004,497.15576153564456C297.93196875,486.53076153564456,302.96996875,479.99776153564454,306.40096875,465.56776153564454L276.94696875,466.38176153564456L276.74896875,451.8187615356445L308.93096875000003,451.44476153564455Q315.85996875,369.4167615356445,293.04896875,361.2557615356445Q253.12296874999998,396.8917615356445,187.90096875,367.0407615356445Q135.30506875,346.8687615356445,155.30102875,311.51976153564453C166.01406875,292.60216153564454,247.68996875,296.12116153564455,269.40196875,315.6767615356445Q232.73206875,283.3411615356445,240.05706874999998,247.72716153564454Q249.84596875,217.87716153564452,298.74596875,241.12816153564452Q319.95196875,250.2571615356445,346.83196875,284.2211615356445C332.02796875,178.76516153564452,500.15496875,166.35916153564455,485.56996875,289.1701615356445Q526.99096875,235.58416153564454,561.98896875,233.67116153564453Q575.03396875,231.60316153564452,584.7129687500001,236.35416153564452C594.3919687499999,241.10616153564453,600.99096875,252.43516153564454,587.26396875,280.0852615356445Q536.66996875,361.2997615356445,478.09096875,348.0347615356445L477.78296875,453.20476153564454L513.79296875,453.20476153564454C515.99296875,453.20476153564454,489.74996875,351.15876153564454,576.66196875,309.9577615356445C611.02196875,293.68026153564455,725.18796875,292.47016153564454,671.25096875,351.4007615356445C659.65596875,361.0397615356445,646.34896875,368.41376153564454,632.02896875,373.13376153564457C607.83196875,381.22876153564454,574.68196875,383.7147615356445,538.40796875,361.3437615356445Q521.7999687500001,370.67076153564454,525.0779687500001,452.72076153564456L555.23596875,452.72076153564456L554.88396875,465.7437615356445L554.83996875,465.41376153564454ZM354.02596875,453.05076153564454L353.51996875,346.14376153564456Q334.00796875000003,366.2267615356445,282.00596874999997,326.0597615356445Q319.40196875000004,352.45676153564455,318.56596875,396.7377615356445L318.69796875,453.1167615356445L354.02596875,453.1167615356445L354.02596875,453.05076153564454ZM318.36796875,462.22376153564454L354.06996875,462.5757615356445L353.76196875,580.5477615356446C307.10496875,548.7837615356445,317.83996875,512.7517615356445,318.36796875,462.22376153564454ZM364.34196875,462.8617615356445L411.10896875,462.50976153564454L411.39496875,583.4957615356445L364.05596875000003,582.8357615356445L364.34196875,462.8617615356445ZM410.40496875,452.8527615356445L410.00896875,342.40376153564455Q382.40196875000004,343.2177615356445,363.11096875,315.58876153564455L364.62796875000004,453.2487615356445L410.40496875,452.8527615356445ZM469.18196875,452.98476153564457L470.39196875,317.59076153564456Q448.74696875,344.69176153564456,420.14996875,342.27176153564454L421.35996875,453.13876153564456L469.18196875,452.98476153564457ZM421.20596875,462.5757615356445L469.59996875,462.17976153564456L469.86396875,583.8697615356446L422.17396875,584.1997615356445L421.27196875,462.5757615356445L421.20596875,462.5757615356445ZM514.6069687500001,462.2897615356445C515.15696875,513.7417615356445,526.85896875,550.4337615356445,478.48696875,582.7697615356445L478.15696875,462.64176153564455L514.6069687500001,462.2897615356445Z" fill-rule="evenodd" fill="#E60012" fill-opacity="1"/></g><g transform="matrix(1,0,0,1.0001800060272217,0,-0.07930278609819652)"><path d="M65.068128125,440.666298043457L66.761928125,454.634282043457L55.213328125000004,463.43328204345704L68.411728125,468.932282043457L70.083528125,482.76928204345705L48.988028125,472.43028204345705L29.850228125,489.016282043457L28.134428125,474.76228204345705L40.123028125,465.03928204345704L26.176628125,458.549282043457L24.548828125,444.427282043457L47.294228125000004,455.95428204345706L65.068128125,440.55628204345703L65.068128125,440.666298043457ZM71.447428125,487.740282043457L31.676028125000002,496.341282043457L34.293728125,508.85828204345705L74.065028125,500.25728204345705L71.447428125,487.740282043457ZM75.362928125,509.144282043457L78.794528125,520.582282043457L61.768528125,542.1402820434571L83.26002812499999,535.5402820434571L86.735628125,547.067282043457L47.844128125,559.144282043457L44.390528125,547.639282043457L61.284528125,526.192282043457L39.925028125,532.791282043457L36.471428125,521.286282043457L75.362928125,509.18828204345704L75.362928125,509.144282043457ZM73.691128125,582.417282043457L77.100728125,590.226282043457L73.58112812499999,591.810282043457C72.242128125,590.8712820434571,71.01002812499999,589.786282043457,69.907528125,588.576282043457C68.999328125,587.538282043457,68.25712812500001,586.365282043457,67.70782812499999,585.101282043457C66.53312812499999,582.7232820434571,66.452828125,579.953282043457,67.487828125,577.512282043457C69.205828125,574.603282043457,71.904528125,572.404282043457,75.098928125,571.308282043457C77.92492812500001,569.722282043457,81.223028125,569.192282043457,84.40382812499999,569.812282043457C86.828628125,570.576282043457,88.777628125,572.395282043457,89.705228125,574.762282043457C90.416828125,576.229282043457,90.669828125,577.8772820434571,90.431128125,579.491282043457C90.159028125,580.983282043457,89.382328125,582.3332820434571,88.23142812500001,583.3192820434571L95.138628125,593.680282043457C97.066728125,592.116282043457,98.628528125,590.149282043457,99.714128125,587.916282043457C100.700728125,585.818282043457,101.124728125,583.4972820434571,100.945728125,581.185282043457C100.478728125,577.762282043457,99.468828125,574.436282043457,97.954328125,571.330282043457C96.564028125,567.729282043457,94.401728125,564.478282043457,91.619028125,561.805282043457C88.804928125,559.306282043457,85.269028125,557.764282043457,81.522228125,557.406282043457C77.496628125,557.113282043457,73.46432812500001,557.8722820434571,69.819528125,559.606282043457C66.235328125,561.161282043457,63.074928125,563.552282043457,60.602628125,566.579282043457C58.380228125,569.320282043457,57.045228125,572.672282043457,56.775128125,576.192282043457C56.657628125,580.356282043457,57.556028125,584.485282043457,59.392828125,588.224282043457C60.721828125,591.418282043457,62.540228125,594.388282043457,64.782128125,597.023282043457C67.358928125,599.777282043457,70.323128125,602.1402820434571,73.58112812499999,604.0402820434571L89.397328125,596.869282043457L81.390228125,578.9192820434571L73.669128125,582.417282043457L73.691128125,582.417282043457ZM107.896728125,594.801282043457L114.364728125,605.8002820434571L102.177728125,613.257282043457L109.260728125,625.224282043457L121.447728125,617.767282043457L127.936828125,628.7662820434571L93.092828125,650.059282043457L86.493628125,639.060282043457L100.593728125,630.459282043457L93.532828125,618.493282043457L79.520428125,627.0062820434571L73.053228125,616.007282043457L107.896728125,594.714282043457L107.896728125,594.801282043457ZM120.545728125,674.674282043457L116.695728125,680.613282043457L125.142828125,690.798282043457L146.458828125,652.3032820434571L137.659828125,641.634282043457L96.788428125,656.3722820434571L105.059728125,666.3812820434571L111.460728125,663.522282043457L120.655728125,674.674282043457L120.545728125,674.674282043457ZM125.604828125,666.865282043457L119.841728125,660.0022820434571L133.897828125,653.9092820434571L125.604828125,666.975282043457L125.604828125,666.865282043457ZM159.172828125,667.4152820434571L167.971828125,676.610282043457L138.583828125,705.339282043457L129.784828125,696.144282043457L159.040828125,667.4152820434571L159.172828125,667.4152820434571ZM189.969828125,727.182282043457C188.392828125,728.733282043457,186.434828125,729.839282043457,184.293828125,730.394282043457C182.282828125,730.713282043457,180.232828125,730.134282043457,178.684828125,728.810282043457C176.831828125,727.556282043457,175.656828125,725.521282043457,175.494828125,723.288282043457C175.494828125,721.089282043457,176.638828125,718.1412820434571,179.300828125,714.490282043457C180.764828125,712.096282043457,182.877828125,710.167282043457,185.393828125,708.924282043457C187.855828125,707.943282043457,190.654828125,708.363282043457,192.718828125,710.0242820434571C193.647828125,710.730282043457,194.399828125,711.6412820434571,194.918828125,712.686282043457C195.427828125,713.735282043457,195.698828125,714.886282043457,195.710828125,716.051282043457C195.648828125,717.065282043457,195.441828125,718.066282043457,195.094828125,719.021282043457L205.499828125,723.6402820434571C206.873828125,719.855282043457,206.989828125,715.728282043457,205.829828125,711.8722820434571C204.286828125,707.864282043457,201.544828125,704.430282043457,197.976828125,702.039282043457C192.667828125,698.1392820434571,187.534828125,696.606282043457,182.578828125,697.441282043457C177.621828125,698.277282043457,173.134828125,701.4672820434571,169.115828125,707.010282043457C166.406828125,710.488282043457,164.729828125,714.657282043457,164.276828125,719.0432820434571C163.931828125,722.461282043457,164.580828125,725.906282043457,166.146828125,728.964282043457C168.099828125,732.145282043457,170.700828125,734.8812820434571,173.779828125,736.993282043457C176.193828125,738.9182820434571,178.991828125,740.306282043457,181.984828125,741.062282043457C184.491828125,741.610282043457,187.097828125,741.5052820434571,189.551828125,740.754282043457C192.280828125,739.866282043457,194.791828125,738.412282043457,196.920828125,736.4872820434571L189.969828125,727.1602820434571L189.969828125,727.182282043457ZM204.443828125,734.2652820434571C206.890828125,729.065282043457,211.356828125,725.0922820434571,216.806828125,723.267282043457C222.349828125,721.8722820434571,228.220828125,722.844282043457,233.018828125,725.950282043457C238.913828125,729.2942820434571,242.609828125,733.473282043457,244.017828125,738.511282043457C245.380828125,744.067282043457,244.437828125,749.941282043457,241.399828125,754.789282043457C239.597828125,758.445282043457,236.931828125,761.608282043457,233.634828125,764.0062820434571C230.825828125,765.898282043457,227.516828125,766.907282043457,224.131828125,766.9092820434571C220.239828125,766.762282043457,216.453828125,765.618282043457,213.132828125,763.588282043457C209.676828125,761.7552820434571,206.671828125,759.180282043457,204.333828125,756.0432820434571C202.386828125,753.148282043457,201.330828125,749.743282043457,201.297828125,746.254282043457C201.333828125,742.0502820434571,202.479828125,737.9282820434571,204.619828125,734.309282043457L204.443828125,734.2652820434571ZM215.442828125,740.513282043457C213.705828125,743.181282043457,212.929828125,746.3622820434571,213.242828125,749.531282043457C213.720828125,751.883282043457,215.242828125,753.8912820434571,217.378828125,754.9872820434571C219.392828125,756.267282043457,221.885828125,756.542282043457,224.131828125,755.735282043457C226.287828125,754.8992820434571,228.486828125,752.4572820434571,230.730828125,748.4102820434571C232.397828125,745.8712820434571,233.115828125,742.8242820434571,232.754828125,739.809282043457C232.248828125,737.444282043457,230.693828125,735.436282043457,228.530828125,734.353282043457C226.544828125,733.1412820434571,224.109828125,732.915282043457,221.931828125,733.7372820434571C219.098828125,735.194282043457,216.859828125,737.589282043457,215.596828125,740.513282043457L215.442828125,740.513282043457ZM255.499828125,740.337282043457L240.255828125,778.656282043457L251.254828125,783.165282043457L259.613828125,762.114282043457L265.376828125,788.973282043457L276.375828125,793.482282043457L291.619828125,755.1412820434571L280.620828125,750.6312820434571L272.195828125,771.837282043457L266.432828125,744.802282043457L255.433828125,740.402282043457L255.499828125,740.337282043457ZM288.803828125,784.331282043457L300.264828125,787.587282043457C299.848828125,789.158282043457,299.848828125,790.812282043457,300.264828125,792.382282043457C300.959828125,794.415282043457,302.600828125,795.983282043457,304.663828125,796.584282043457C306.056828125,797.196282043457,307.631828125,797.251282043457,309.063828125,796.738282043457C310.147828125,796.353282043457,310.996828125,795.4952820434571,311.373828125,794.406282043457C311.727828125,793.348282043457,311.590828125,792.187282043457,310.999828125,791.239282043457C309.564828125,789.404282043457,307.747828125,787.902282043457,305.675828125,786.839282043457C301.861828125,784.754282043457,298.594828125,781.791282043457,296.150828125,778.194282043457C294.556828125,775.537282043457,294.254828125,772.299282043457,295.336828125,769.395282043457C296.018828125,767.369282043457,297.290828125,765.5922820434571,298.988828125,764.292282043457C300.893828125,762.840282043457,303.194828125,761.9952820434571,305.587828125,761.8722820434571C308.995828125,761.780282043457,312.387828125,762.387282043457,315.552828125,763.654282043457C319.593828125,764.789282043457,323.187828125,767.138282043457,325.847828125,770.385282043457C327.860828125,773.482282043457,328.445828125,777.297282043457,327.453828125,780.856282043457L316.014828125,777.600282043457C316.337828125,776.1112820434571,316.135828125,774.558282043457,315.442828125,773.201282043457C314.606828125,771.953282043457,313.348828125,771.047282043457,311.901828125,770.6492820434571C310.827828125,770.167282043457,309.613828125,770.097282043457,308.491828125,770.451282043457C307.640828125,770.7262820434571,306.973828125,771.3992820434571,306.709828125,772.2552820434571C306.489828125,772.917282043457,306.595828125,773.643282043457,306.995828125,774.213282043457C307.930828125,775.411282043457,309.127828125,776.382282043457,310.493828125,777.0502820434571C314.100828125,779.103282043457,317.453828125,781.577282043457,320.480828125,784.4192820434571C322.169828125,786.076282043457,323.366828125,788.1702820434571,323.933828125,790.469282043457C324.356828125,792.5832820434571,324.204828125,794.769282043457,323.493828125,796.8042820434571C322.679828125,799.2652820434571,321.146828125,801.426282043457,319.094828125,803.007282043457C316.975828125,804.664282043457,314.408828125,805.645282043457,311.725828125,805.8232820434571C308.379828125,805.9772820434571,305.037828125,805.4292820434571,301.914828125,804.2172820434571C295.374828125,801.9292820434571,291.282828125,799.070282043457,289.639828125,795.638282043457C287.981828125,792.1212820434571,287.635828125,788.124282043457,288.671828125,784.375282043457L288.803828125,784.331282043457ZM336.560828125,771.551282043457L328.091828125,812.004282043457L361.637828125,819.263282043457L363.551828125,810.090282043457L342.323828125,805.5152820434571L343.995828125,797.552282043457L363.111828125,801.665282043457L364.848828125,793.416282043457L345.711828125,789.281282043457L347.052828125,782.858282043457L367.686828125,787.257282043457L369.556828125,778.788282043457L336.560828125,771.661282043457L336.560828125,771.551282043457ZM371.140828125,821.837282043457L373.955828125,780.5922820434571L394.831828125,782.066282043457C397.829828125,782.180282043457,400.794828125,782.734282043457,403.630828125,783.715282043457C405.614828125,784.523282043457,407.270828125,785.972282043457,408.337828125,787.829282043457C411.639828125,793.441282043457,409.767828125,800.6692820434571,404.156828125,803.971282043457C403.997828125,804.0632820434571,403.837828125,804.153282043457,403.674828125,804.239282043457C402.242828125,804.908282043457,400.713828125,805.348282043457,399.142828125,805.537282043457C400.284828125,805.955282043457,401.351828125,806.549282043457,402.310828125,807.297282043457C403.012828125,807.959282043457,403.639828125,808.6982820434571,404.180828125,809.4962820434571C404.789828125,810.3432820434571,405.313828125,811.250282043457,405.742828125,812.202282043457L410.999828125,824.587282043457L396.833828125,823.575282043457L391.003828125,810.4862820434571C390.546828125,809.250282043457,389.844828125,808.119282043457,388.936828125,807.165282043457C388.089828125,806.463282043457,387.042828125,806.047282043457,385.944828125,805.9772820434571L384.844828125,805.9772820434571L383.678828125,822.7172820434571L371.096828125,821.815282043457L371.140828125,821.837282043457ZM385.416828125,798.190282043457L390.695828125,798.5642820434571C391.824828125,798.559282043457,392.950828125,798.456282043457,394.061828125,798.2562820434571C394.912828125,798.163282043457,395.698828125,797.7562820434571,396.261828125,797.1122820434571C396.830828125,796.452282043457,397.169828125,795.6272820434571,397.229828125,794.758282043457C397.372828125,793.608282043457,396.993828125,792.453282043457,396.195828125,791.613282043457C394.857828125,790.638282043457,393.229828125,790.1412820434571,391.575828125,790.205282043457L386.076828125,789.809282043457L385.504828125,798.190282043457L385.416828125,798.190282043457ZM412.385828125,783.1882820434571L425.583828125,782.946282043457L435.262828125,812.532282043457L443.753828125,782.616282043457L456.512828125,782.396282043457L442.147828125,823.905282043457L428.553828125,824.147282043457L412.385828125,783.1882820434571ZM484.976828125,812.4002820434571L470.744828125,813.984282043457L469.600828125,821.001282043457L456.864828125,822.585282043457L467.070828125,779.6682820434571L480.687828125,777.952282043457L500.814828125,817.108282043457L487.748828125,818.735282043457L484.954828125,812.136282043457L484.976828125,812.4002820434571ZM481.281828125,803.8432820434571L475.056828125,789.655282043457L472.394828125,805.0532820434571L481.193828125,803.931282043457L481.281828125,803.8432820434571ZM491.532828125,776.434282043457L493.731828125,786.3992820434571L506.204828125,783.473282043457L513.111828125,813.786282043457L525.342828125,810.926282043457L518.456828125,780.5922820434571L530.951828125,777.644282043457L528.751828125,767.701282043457L491.532828125,776.500282043457L491.532828125,776.434282043457ZM536.274828125,787.433282043457C534.0358281250001,782.079282043457,534.0358281250001,776.047282043457,536.274828125,770.693282043457C538.848828125,765.561282043457,543.410828125,761.705282043457,548.901828125,760.0242820434571C555.280828125,757.677282043457,560.808828125,757.598282043457,565.487828125,759.782282043457C570.529828125,762.411282043457,574.273828125,766.991282043457,575.848828125,772.453282043457C577.377828125,776.261282043457,577.979828125,780.376282043457,577.608828125,784.463282043457C577.168828125,787.8622820434571,575.747828125,791.056282043457,573.516828125,793.658282043457C570.870828125,796.5932820434571,567.502828125,798.7842820434571,563.749828125,800.0162820434571C560.131828125,801.5142820434571,556.217828125,802.152282043457,552.310828125,801.885282043457C548.888828125,801.489282043457,545.665828125,800.062282043457,543.072828125,797.7942820434571C539.948828125,795.0052820434571,537.629828125,791.426282043457,536.3628281250001,787.433282043457L536.274828125,787.433282043457ZM548.109828125,783.0342820434571C548.908828125,786.107282043457,550.742828125,788.810282043457,553.300828125,790.6892820434571C555.364828125,791.879282043457,557.867828125,792.0262820434571,560.054828125,791.085282043457C562.359828125,790.3892820434571,564.207828125,788.656282043457,565.047828125,786.3992820434571C565.839828125,784.1992820434571,565.458828125,780.9282820434571,563.903828125,776.588282043457C563.133828125,773.663282043457,561.347828125,771.104282043457,558.866828125,769.373282043457C556.763828125,768.225282043457,554.251828125,768.104282043457,552.047828125,769.0432820434571C549.801828125,769.7742820434571,548.021828125,771.5052820434571,547.229828125,773.729282043457C546.470828125,776.8412820434571,546.780828125,780.119282043457,548.109828125,783.0342820434571ZM591.532828125,787.873282043457L602.971828125,782.462282043457L595.997828125,767.261282043457L596.987828125,766.777282043457C597.977828125,766.3002820434571,599.092828125,766.1392820434571,600.177828125,766.315282043457C601.424828125,766.7162820434571,602.577828125,767.367282043457,603.564828125,768.229282043457L614.915828125,776.808282043457L627.784828125,770.693282043457L617.291828125,762.444282043457C616.453828125,761.837282043457,615.562828125,761.307282043457,614.629828125,760.860282043457C613.758828125,760.405282043457,612.845828125,760.0352820434571,611.902828125,759.760282043457C610.705828125,759.584282043457,609.491828125,759.584282043457,608.294828125,759.760282043457C609.565828125,758.806282043457,610.685828125,757.664282043457,611.616828125,756.373282043457C613.921828125,753.003282043457,614.207828125,748.643282043457,612.364828125,745.000282043457C611.479828125,742.8332820434571,609.942828125,740.994282043457,607.964828125,739.743282043457C606.143828125,738.643282043457,604.002828125,738.192282043457,601.893828125,738.4672820434571C598.932828125,739.001282043457,596.070828125,739.980282043457,593.402828125,741.3702820434571L574.418828125,750.367282043457L591.620828125,787.763282043457L591.532828125,787.873282043457ZM592.742828125,760.156282043457L589.244828125,752.5452820434571L594.260828125,750.191282043457C595.661828125,749.331282043457,597.308828125,748.959282043457,598.945828125,749.135282043457C600.043828125,749.463282043457,600.934828125,750.273282043457,601.365828125,751.335282043457C601.734828125,752.125282043457,601.829828125,753.0162820434571,601.629828125,753.865282043457C601.462828125,754.683282043457,601.000828125,755.411282043457,600.331828125,755.911282043457C599.464828125,756.645282043457,598.529828125,757.292282043457,597.537828125,757.847282043457L592.742828125,760.046282043457L592.742828125,760.156282043457ZM607.128828125,734.067282043457L618.699828125,726.148282043457L633.195828125,733.055282043457L632.315828125,716.799282043457L643.820828125,708.924282043457L643.930828125,737.829282043457L653.455828125,752.193282043457L643.006828125,759.3422820434571L633.525828125,745.000282043457L607.128828125,734.001282043457L607.128828125,734.067282043457ZM668.721828125,715.105282043457C660.606828125,707.778282043457,659.968828125,695.259282043457,667.295828125,687.144282043457C668.035828125,686.3242820434571,668.844828125,685.567282043457,669.711828125,684.8812820434571C674.667828125,680.202282043457,679.726828125,677.945282043457,684.889828125,678.106282043457C690.536828125,678.513282043457,695.762828125,681.245282043457,699.319828125,685.6512820434571C702.188828125,688.559282043457,704.315828125,692.1122820434571,705.523828125,696.012282043457C706.433828125,699.320282043457,706.356828125,702.8222820434571,705.303828125,706.087282043457C703.976828125,709.848282043457,701.704828125,713.203282043457,698.703828125,715.831282043457C695.954828125,718.636282043457,692.597828125,720.7742820434571,688.893828125,722.079282043457C685.613828125,723.113282043457,682.098828125,723.113282043457,678.818828125,722.079282043457C674.874828125,720.748282043457,671.369828125,718.368282043457,668.677828125,715.193282043457L668.721828125,715.105282043457ZM677.938828125,706.4382820434571C679.858828125,708.946282043457,682.586828125,710.710282043457,685.659828125,711.432282043457C688.030828125,711.705282043457,690.391828125,710.849282043457,692.038828125,709.1222820434571C693.884828125,707.5542820434571,694.911828125,705.229282043457,694.832828125,702.809282043457C694.700828125,700.4772820434571,693.094828125,697.618282043457,690.014828125,694.230282043457C688.171828125,691.8482820434571,685.531828125,690.2072820434571,682.579828125,689.610282043457C677.874828125,689.3422820434571,673.842828125,692.941282043457,673.574828125,697.646282043457C673.562828125,697.8422820434571,673.558828125,698.038282043457,673.560828125,698.233282043457C674.046828125,701.3902820434571,675.597828125,704.287282043457,677.960828125,706.4382820434571L677.938828125,706.4382820434571ZM689.310828125,665.831282043457L720.107828125,692.954282043457L728.378828125,683.2752820434571L715.839828125,672.2762820434571L726.178828125,660.200282043457L719.975828125,654.701282043457L709.636828125,666.799282043457L704.291828125,662.070282043457L716.389828125,647.903282043457L709.790828125,642.0742820434571L689.398828125,665.9192820434571L689.310828125,665.831282043457ZM720.239828125,626.2362820434571L729.236828125,612.157282043457L753.433828125,620.407282043457L736.143828125,601.291282043457L745.118828125,587.2562820434571L779.236828125,609.760282043457L773.627828125,618.559282043457L747.626828125,601.379282043457L769.315828125,625.356282043457L764.234828125,633.2752820434571L733.921828125,622.870282043457L759.922828125,640.028282043457L754.313828125,648.827282043457L720.217828125,626.302282043457L720.239828125,626.2362820434571ZM758.162828125,560.024282043457L781.018828125,569.878282043457C782.846828125,570.532282043457,784.324828125,571.9092820434571,785.109828125,573.684282043457C785.767828125,575.479282043457,785.664828125,577.465282043457,784.823828125,579.183282043457C784.199828125,580.989282043457,782.852828125,582.4572820434571,781.106828125,583.231282043457C779.302828125,583.875282043457,777.313828125,583.748282043457,775.606828125,582.879282043457L752.751828125,573.024282043457L747.912828125,584.859282043457L770.239828125,594.494282043457C772.408828125,595.360282043457,774.689828125,595.908282043457,777.014828125,596.1212820434571C778.829828125,596.3002820434571,780.659828125,596.0822820434571,782.382828125,595.483282043457C784.172828125,594.9202820434571,785.837828125,594.0162820434571,787.287828125,592.822282043457C788.838828125,591.462282043457,790.129828125,589.828282043457,791.093828125,588.004282043457C792.190828125,586.104282043457,793.169828125,584.133282043457,794.018828125,582.109282043457C795.263828125,579.329282043457,796.009828125,576.350282043457,796.218828125,573.310282043457C796.286828125,571.2362820434571,795.903828125,569.172282043457,795.096828125,567.2612820434571C794.267828125,565.1602820434571,792.973828125,563.273282043457,791.313828125,561.739282043457C789.595828125,560.167282043457,787.624828125,558.895282043457,785.483828125,557.978282043457L763.156828125,548.3432820434571L758.250828125,560.090282043457L758.162828125,560.024282043457ZM789.707828125,552.4342820434571L792.280828125,540.534282043457C793.847828125,540.8622820434571,795.472828125,540.763282043457,796.988828125,540.248282043457C798.972828125,539.3812820434571,800.422828125,537.613282043457,800.881828125,535.4962820434571C801.416828125,534.080282043457,801.416828125,532.514282043457,800.881828125,531.097282043457C800.455828125,530.039282043457,799.573828125,529.2322820434571,798.484828125,528.897282043457C797.412828125,528.591282043457,796.262828125,528.7942820434571,795.360828125,529.447282043457C793.627828125,531.0112820434571,792.252828125,532.932282043457,791.335828125,535.079282043457C789.502828125,539.042282043457,786.759828125,542.518282043457,783.327828125,545.219282043457C780.837828125,546.933282043457,777.696828125,547.404282043457,774.814828125,546.495282043457C772.780828125,545.8862820434571,770.972828125,544.683282043457,769.623828125,543.042282043457C768.088828125,541.159282043457,767.144828125,538.8622820434571,766.917828125,536.442282043457C766.649828125,532.993282043457,767.058828125,529.5262820434571,768.127828125,526.2362820434571C769.020828125,522.1072820434571,771.137828125,518.3432820434571,774.199828125,515.435282043457C777.104828125,513.222282043457,780.846828125,512.417282043457,784.405828125,513.235282043457L781.810828125,525.004282043457C780.294828125,524.735282043457,778.730828125,525.024282043457,777.410828125,525.818282043457C776.227828125,526.759282043457,775.404828125,528.081282043457,775.078828125,529.557282043457C774.667828125,530.6792820434571,774.667828125,531.911282043457,775.078828125,533.033282043457C775.402828125,533.869282043457,776.093828125,534.509282043457,776.948828125,534.7712820434571C777.624828125,534.927282043457,778.332828125,534.773282043457,778.884828125,534.353282043457C780.015828125,533.330282043457,780.901828125,532.067282043457,781.480828125,530.657282043457C783.257828125,526.898282043457,785.472828125,523.360282043457,788.079828125,520.120282043457C789.601828125,518.332282043457,791.601828125,517.012282043457,793.842828125,516.315282043457C795.886828125,515.758282043457,798.046828125,515.796282043457,800.068828125,516.4252820434571C802.547828125,517.135282043457,804.753828125,518.576282043457,806.403828125,520.560282043457C808.156828125,522.626282043457,809.252828125,525.171282043457,809.548828125,527.863282043457C809.872828125,531.251282043457,809.513828125,534.6692820434571,808.493828125,537.916282043457C806.572828125,544.676282043457,803.968828125,548.981282043457,800.683828125,550.829282043457C797.342828125,552.707282043457,793.420828125,553.273282043457,789.685828125,552.412282043457L789.707828125,552.4342820434571ZM774.595828125,502.280282043457L776.992828125,489.698282043457L816.918828125,497.595282043457L814.520828125,510.155282043457L774.595828125,502.280282043457ZM806.623828125,456.086282043457L811.440828125,445.461282043457C814.130828125,446.47730204345703,816.574828125,448.052282043457,818.611828125,450.08030204345704C820.413828125,451.93028204345705,821.728828125,454.198282043457,822.439828125,456.68028204345705C823.180828125,459.720282043457,823.286828125,462.881282043457,822.747828125,465.963282043457C822.360828125,469.70228204345705,821.198828125,473.321282043457,819.337828125,476.58728204345704C817.443828125,479.412282043457,814.757828125,481.61628204345703,811.616828125,482.92328204345705C807.586828125,484.57928204345706,803.165828125,485.037282043457,798.880828125,484.242282043457C792.208828125,483.290282043457,787.331828125,480.751282043457,784.251828125,476.631282043457C781.172828125,472.540282043457,780.094828125,467.172282043457,780.996828125,460.595282043457C781.359828125,456.297282043457,783.015828125,452.208282043457,785.747828125,448.87128204345703C788.534828125,446.02628204345706,792.186828125,444.18528204345705,796.130828125,443.635292043457L797.032828125,455.162282043457C796.033828125,455.287282043457,795.061828125,455.569282043457,794.150828125,455.99828204345704C793.141828125,456.523282043457,792.267828125,457.27628204345706,791.598828125,458.19728204345705C789.458828125,461.51528204345703,789.986828125,465.888282043457,792.852828125,468.602282043457C795.087828125,470.28128204345705,797.762828125,471.273282043457,800.551828125,471.46228204345704C804.951828125,472.100282043457,808.185828125,471.836282043457,810.032828125,470.71428204345705C813.570828125,468.090282043457,814.456828125,463.167282043457,812.056828125,459.47328204345706C810.560828125,457.92328204345705,808.688828125,456.785282043457,806.623828125,456.174282043457L806.623828125,456.086282043457Z" fill-rule="evenodd" fill="#FFFFFF" fill-opacity="1"/></g><g transform="matrix(1,0,0,1.0001800060272217,0,-0.049842905636978685)"><path d="M741.049195,302.58095958251954C736.496155,293.34185958251953,736.100155,295.8489595825195,741.049195,293.34185958251953C744.019165,284.2348995825195,754.006175,286.74289958251956,759.065175,285.7969095825195C771.252175,279.5928995825195,765.181175,294.88185958251955,776.069175,289.3378595825195C777.741175,289.46995958251955,789.950175,292.48385958251953,787.860175,288.25985958251954C782.405175,286.43490958251954,774.112175,283.3988995825195,776.179175,277.06391158251955C779.545175,275.34790958251955,794.481175,287.20385958251956,797.209175,292.72585958251955C797.341175,293.64995958251956,799.2771749999999,296.2889595825195,795.141175,298.40095958251953C790.346175,297.89485958251953,776.971175,289.8659595825195,774.002175,298.9728595825195C763.883175,304.1199595825195,771.516175,280.78088958251953,762.717175,292.5278595825195C760.517175,293.58385958251955,748.177175,297.3009595825195,747.803175,298.4888595825195C748.969175,300.18285958251954,776.399175,314.5249595825195,777.257175,314.12895958251954C782.317175,315.84495958251955,784.384175,312.8088595825195,784.384175,310.82985958251953C790.1041749999999,307.90385958251954,792.963175,317.0108595825195,797.0991750000001,314.89885958251955C797.0991750000001,311.5998595825195,792.941175,303.1528595825195,797.605175,304.73585958251954C803.984175,317.64885958251955,810.187175,305.2418595825195,812.145175,305.90185958251953C814.741175,311.1818595825195,811.111175,312.3699595825195,805.282175,316.32885958251956C804.512175,318.70485958251953,812.035175,320.72885958251953,809.835175,327.52595958251953C806.470175,329.26385958251956,798.155175,316.35085958251955,790.368175,320.3108595825195C782.207175,317.5608595825195,794.657175,326.35985958251956,787.002175,325.3258595825195C773.628175,312.67695958251954,754.556175,312.85295958251953,741.071165,302.58095958251954L741.049195,302.58095958251954ZM762.079175,326.1618595825195C764.433175,330.23085958251954,775.739175,351.19485958251954,779.677175,352.5588595825195C781.239175,351.7669595825195,792.875175,340.54785958251955,790.544175,339.7558595825195C779.413175,345.4538595825195,778.379175,347.96095958251954,771.472175,333.99285958251954C766.544175,323.96185958251954,771.472175,325.4139595825195,774.046175,322.1138595825195C770.548175,314.98695958251955,765.489175,321.8718595825195,762.123175,326.22795958251953L762.079175,326.1618595825195ZM775.409175,302.5368595825195C780.865175,308.32185958251955,786.408175,303.8348595825195,790.324175,301.8548595825195C789.158175,299.47885958251953,789.026175,301.19485958251954,786.826175,301.3269595825195C782.141175,299.74285958251954,782.141175,299.0828595825195,775.409175,302.5368595825195Z" fill-rule="evenodd" fill="#FFFFFF" fill-opacity="1"/></g><g transform="matrix(1,0,0,1.0001800060272217,0,-0.024410066753262072)"><path d="M713.971890625,163.13534122314454C713.766890625,163.21334122314454,713.537890625,163.21334122314454,713.333890625,163.13534122314454C706.733890625,153.08234122314454,721.428890625,160.05534122314452,720.416890625,161.83734122314453C714.125890625,162.91534122314454,714.125890625,162.91534122314454,713.971890625,163.15734122314453L713.971890625,163.13534122314454ZM690.8738906250001,149.60734122314454C689.355890625,148.70534122314453,691.247890625,145.38334122314453,693.997890625,147.01134122314454C695.097890625,150.37634122314452,693.557890625,150.15634122314452,690.8738906250001,149.60734122314454ZM686.474890625,154.88634122314454C696.527890625,160.78134122314452,691.335890625,145.14135122314454,686.122890625,154.33634122314453C686.172890625,154.55534122314452,686.2968906250001,154.74934122314454,686.474890625,154.88634122314454ZM697.780990625,161.48534122314453C696.615890625,157.08634122314453,700.244890625,159.52734122314453,700.662890625,161.13334122314453Q700.222890625,161.90334122314454,697.780990625,161.48534122314453ZM682.382890625,187.24434122314454C684.692890625,183.17534122314453,689.267990625,185.04434122314453,687.222890625,188.74034122314453C685.642990625,188.13634122314454,684.026890625,187.63634122314454,682.382890625,187.24434122314454ZM671.384890625,187.24434122314454C670.829890625,185.71934122314454,669.815890625,184.40434122314454,668.480890625,183.48334122314452C669.052890625,176.00334122314453,679.787890625,187.75034122314452,671.384890625,187.24434122314454ZM680.886890625,175.78334122314453C681.738890625,176.01134122314454,682.549890625,176.37534122314452,683.284890625,176.86134122314454C688.058890625,175.56434122314454,675.893890625,168.06234122314453,680.886890625,175.78334122314453ZM644.525940625,163.53134122314452C644.965940625,162.76134122314454,643.843932625,161.77134122314453,643.337890625,161.46334122314454C651.454890625,147.16534122314454,663.816890625,157.83434122314452,674.133890625,146.83534122314452C681.172890625,142.10534122314453,675.013890625,160.62734122314453,666.214890625,155.45834122314454C663.332890625,155.81034122314452,658.097890625,154.44634122314454,656.073890625,158.01034122314454C664.608890625,163.02534122314452,647.868900625,164.78534122314454,644.569880625,163.53134122314452L644.525940625,163.53134122314452ZM720.526890625,148.13334122314453C719.272890625,147.38534122314454,711.925890625,139.66434122314453,713.201890625,144.50335122314453C710.891890625,148.59534122314454,690.015890625,149.95834122314454,695.383890625,140.52235122314454C695.156890625,138.14234122314454,693.440890625,136.17034122314453,691.115890625,135.61634063314452C690.367890625,135.17633822314454,685.440890625,150.33234122314454,680.249890625,152.40034122314452C676.927890625,158.27434122314452,691.401890625,159.28534122314454,692.149890625,162.12334122314454C689.949890625,165.95134122314454,652.092890625,151.87234122314453,674.199890625,164.85134122314452C675.453890625,165.57734122314454,680.908890625,165.40134122314453,683.834890625,166.76534122314453C684.626890625,166.54534122314453,685.616990625,167.13834122314452,686.804890625,166.76534122314453C688.718890625,167.53434122314454,706.250890625,169.66834122314452,707.217890625,173.36434122314452C704.754990625,177.76334122314452,678.027890625,165.77534122314452,674.551990625,171.89034122314453C678.951890625,176.11334122314452,683.196890625,179.69934122314453,671.538890625,178.97334122314453C656.645890625,178.07134122314454,663.882890625,187.77234122314454,674.419890625,193.95334122314455C683.460890625,192.78734122314452,672.703890625,185.79234122314455,687.728990625,192.91934122314453C703.346890625,192.54534122314453,689.927890625,184.31834122314453,685.924890625,181.92134122314454L685.704890625,181.12934122314454C686.430890625,179.85334122314453,689.026890625,180.00734122314452,688.388890625,177.58734122314453C689.113890625,176.31134122314452,689.399890625,175.80534122314452,690.191890625,175.58534122314452C697.560890625,176.15734122314453,706.426990625,182.38334122314453,715.928890625,179.78734122314452C720.328890625,171.86834122314454,698.220890625,167.35834122314452,715.928890625,167.51234122314452C718.722890625,166.74334122314454,726.377890625,166.80934122314454,728.115890625,163.75134122314452C728.621890625,155.19434122314453,710.847890625,154.64434122314452,706.909890625,153.34634122314452C700.112890625,149.36534122314453,719.404890625,150.79434122314453,720.548890625,148.74934122314454C720.453890625,148.59034122314452,720.416890625,148.40434122314454,720.438890625,148.22134122314452L720.526890625,148.13334122314453Z" fill-rule="evenodd" fill="#FFFFFF" fill-opacity="1"/></g><g transform="matrix(1,0,0,1.0001800060272217,0,-0.005635231564156129)"><path d="M525.277665625,60.34469376220703C515.884665625,54.47129376220703,532.118665625,51.78769376220703,527.036765625,60.21269376220703C526.449665625,60.103593762207026,525.842665625,60.14909376220703,525.277665625,60.34469376220703ZM468.545745625,86.08169376220704C472.945735625,88.85329376220703,483.635765625,86.82959376220703,490.763765625,85.11379376220702C491.709765625,84.29989376220703,512.320765625,78.14059376220703,514.432765625,80.71429376220703C518.061665625,96.11249376220704,505.91976562499997,85.11379376220702,503.895765625,84.80579376220703C500.552765625,86.30159376220703,495.250765625,87.00549376220704,493.996765625,88.08339376220704C484.185765625,87.20349376220703,496.504765625,106.36369376220703,500.596765625,93.97869376220703C501.101765625,88.10539376220703,511.132765625,89.88719376220703,512.606765625,96.53039376220703C514.3007656249999,96.99239376220703,518.061665625,97.32229376220702,519.4257656249999,95.07859376220702C519.947765625,90.14659376220703,519.887765625,85.17049376220703,519.249765625,80.25229376220703C519.711765625,74.66499376220703,543.337665625,77.65659376220702,534.648765625,70.66139376220704C528.576765625,70.13349376220702,529.918765625,68.17569376220703,528.048665625,72.86119376220702C518.919765625,74.11499376220704,519.623765625,72.70719376220703,518.369765625,66.96589376220703C520.899765625,51.19369376220703,521.031765625,73.41109376220703,525.739765625,69.38559376220704C528.048665625,67.46039376220703,530.096765625,65.24189376220704,531.832665625,62.78639376220703C533.130765625,61.13659376220703,541.533765625,61.576493762207036,545.316665625,58.38689376220703C545.844765625,52.20559376220703,545.8007656249999,52.799493762207035,549.518765625,50.181793762207036C550.398765625,39.88696376220703,531.568765625,45.606393762207034,533.944665625,48.48799376220703C540.301765625,49.05999376220703,539.509665625,48.09209376220703,538.761765625,56.62709376220703Q533.658765625,65.42609376220703,533.130765625,51.083693762207034C530.622765625,46.42029376220703,520.195765625,52.60159376220703,518.149765625,52.71149376220703C517.841765625,52.97549376220703,511.286765625,68.10969376220703,512.254765625,70.52949376220704C523.4737656249999,75.39089376220703,501.409765625,78.16259376220702,500.222765625,78.33849376220704C491.643765625,79.94439376220703,480.050765625,82.73799376220703,472.813725625,82.12209376220703C472.527735625,82.12209376220703,466.609745625,83.35399376220704,468.413726625,85.59769376220703C468.565734625,85.75829376220703,468.653747625,85.97029376220704,468.655731625,86.19159376220703L468.545745625,86.08169376220704ZM501.541765625,57.94689376220703C502.892765625,56.20499376220703,503.772765625,54.14419376220703,504.093765625,51.96359376220703C504.46776562499997,47.56409376220703,499.694765625,48.90599376220703,503.147765625,45.958293762207035C512.980665625,46.816193762207035,504.489765625,57.61699376220703,511.946765625,58.27689376220703C512.870765625,61.02659376220703,503.455765625,72.33329376220703,500.310765625,68.48369376220703C500.618765625,64.67809376220703,500.310765625,59.02479376220703,501.497765625,57.94689376220703L501.541765625,57.94689376220703ZM532.602765625,42.06479376220703Q532.316665625,42.06479376220703,529.346765625,42.65869376220703C514.322765625,41.31689376220703,528.642765625,40.81085376220703,529.082665625,35.53145376220703C526.596765625,27.304453762207032,531.656765625,32.803853762207034,535.681765625,37.59925376220703C537.881665625,40.15096376220703,532.756665625,41.184853762207034,532.668765625,41.99879376220703L532.602765625,42.06479376220703ZM546.900765625,95.71649376220704Q546.900765625,95.14459376220702,542.853765625,92.10889376220703C541.181765625,87.81939376220703,530.028765625,82.07809376220703,540.653765625,83.04599376220703C543.249765625,83.26599376220703,554.885765625,86.96149376220703,551.652665625,94.96859376220704C550.145765625,95.48709376220702,548.559765625,95.74029376220703,546.966765625,95.71649376220704L546.900765625,95.71649376220704Z" fill-rule="evenodd" fill="#FFFFFF" fill-opacity="1"/></g><g transform="matrix(1,0,0,1.0001800060272217,0,-0.006336611249935231)"><path d="M343.40258125,82.95861710205078C335.70358125,74.75361710205078,347.40558125,71.95991710205078,345.11858125,82.49671710205078C344.51758125,82.50961710205078,343.92858125,82.66821710205079,343.40258125,82.95861710205078ZM346.35058125,90.19581710205078C350.41958125,86.87421710205078,349.40758125,75.12751710205077,349.14358125,71.89391710205078C345.86658125,67.73641710205078,341.29058125,71.89391710205078,339.57458125,72.44381710205079C335.35158125,77.56921710205077,321.51458125,79.04311710205079,336.53958124999997,81.00081710205077C337.79358125,82.07871710205077,336.82558125,84.54241710205079,338.87058125,87.90801710205079C341.46658125,87.66611710205078,341.97258125,86.74221710205077,344.81058125,89.16191710205078C346.32858125,89.90981710205078,346.32858125,89.90981710205078,346.35058125,90.19581710205078ZM332.49158125,98.24681710205078C326.70658125,98.75281710205078,330.29158125,84.21251710205078,332.99758125,83.99251710205078C333.37158125,84.85041710205078,337.11158125,97.82891710205078,332.49158125,98.24681710205078ZM338.12358125000003,35.20221710205078C339.00258125,35.20221710205078,344.72258125,39.601717102050785,347.29558125,40.30561710205078C348.21958125,40.833517102050784,348.21958125,40.833517102050784,348.24158125,41.11951710205078C348.39558125,42.879317102050784,348.72558125,43.451217102050784,348.94558125,45.80491710205078C342.87458125,46.33291710205078,334.95558125,39.05171710205078,338.12358125000003,35.20221710205078ZM340.03658125,60.78521710205078C340.31358124999997,58.77201710205078,341.78558125,57.12791710205078,343.75458125,56.62771710205078C348.15358125,56.23171710205078,340.12458125,68.48431710205078,339.50858125,61.44511710205078L340.03658125,60.78521710205078ZM315.50958125,86.96211710205078C317.58658125,84.40471710205078,320.04158125,82.17951710205078,322.79058125,80.36291710205077C322.57058125,77.72321710205078,349.86958125,63.44691710205078,353.85158125,62.21501710205078C354.90758125,60.939217102050776,361.28658125,60.65321710205078,361.08858125,58.299517102050785C355.74258125,53.746017102050786,353.16958125,61.09321710205078,349.93558125,53.90001710205078C342.21458125,52.22821710205078,346.24058125,44.77111710205078,338.93658125,50.75441710205078C328.24658125,51.70031710205078,334.53758125,56.16571710205078,339.15658125,53.394117102050785C344.65658125,52.910117102050776,337.83758124999997,58.23351710205078,336.95758125,58.91541710205078C326.26658125,59.861317102050776,329.19258125,60.19131710205078,335.79158125,65.82261710205078C335.79158125,66.70251710205078,308.69058125,82.43071710205078,306.20462125,83.83851710205079C292.32461125,85.07041710205078,297.40560925,93.51741710205079,309.48258125,88.23801710205078C310.64858125,88.23801710205078,313.17758125,87.02811710205077,315.20158125,86.85221710205079L315.50958125,86.96211710205078Z" fill-rule="evenodd" fill="#FFFFFF" fill-opacity="1"/></g><g transform="matrix(1,0,0,1.0001800060272217,0,-0.01794781302123738)"><path d="M182.73386875,153.05393370361327C178.33386875,145.13493370361329,187.24286875,148.0169337036133,184.93286875,151.46993370361326C184.11186874999999,151.86393370361327,183.36686875,152.39993370361327,182.73386875,153.05393370361327ZM189.48686874999999,144.2549337036133C189.20086874999998,143.72693370361327,185.70286875,144.07893370361327,184.84486875,142.53893370361328C184.38286875,137.01793370361327,187.50686875,137.2379337036133,191.44486875,132.9039337036133C196.19586875,134.2019337036133,191.44486875,142.40693370361328,189.50886875,144.2549337036133L189.48686874999999,144.2549337036133ZM178.48786875,138.0519337036133C178.22386875,142.27493370361327,175.95786875,150.0839337036133,176.28786875,153.62593370361327C176.59586875,158.90493370361327,172.43886875,160.9949337036133,169.13886875,164.6249337036133C167.97286875,169.0239337036133,175.47386875,166.3409337036133,173.53886875,170.5639337036133C172.06486875,187.43593370361327,177.93786875,165.9229337036133,178.44386875,165.6369337036133C178.31186875,165.37293370361328,182.07386875,154.3079337036133,185.39486875,160.18093370361328C188.23286875,159.89493370361328,189.31086875,155.78193370361328,190.36686875,154.19793370361327C189.79486875,144.34293370361328,196.96586875,147.33493370361327,196.67986875,157.65193370361328C193.62186875,162.86493370361327,186.09886875,169.66193370361327,182.51386875,172.7859337036133C180.90786875,178.83493370361327,159.50386875,183.5649337036133,175.73786875,185.60993370361328C183.76786875,180.9029337036133,189.77286875,170.21193370361328,198.81386874999998,164.9329337036133C201.18886874999998,165.57093370361326,202.37686875,168.27593370361328,205.25886875,162.13893370361328C207.45886875,160.81893370361328,196.45986875,145.50893370361328,199.75986875,143.59493370361326C198.32986875,139.32793370361327,211.90186875,133.73993370361327,208.55886875,127.86693370361328C203.78486875,126.56893370361328,197.84586875,140.2739337036133,198.59386875,128.59293370361328C193.35786875,119.39793370361328,188.80486875,127.86693370361328,186.03286875,129.49493370361327C182.07386875,128.41693370361327,191.90686875,108.00297370361328,191.53286875,103.80197370361329C183.12986875,88.97553370361328,178.94986875,119.35393370361328,170.21686875,116.99993370361328C161.70386875,109.08097370361328,165.59786875,108.83897370361328,165.55386875,119.39793370361328C166.71986875,121.44393370361328,164.54186875,132.94793370361327,175.10086875,126.74493370361328C172.19686875,121.64193370361328,176.19986875,116.91193370361329,181.21586875,113.96493370361328C182.29386875,114.69093370361328,179.58786874999998,134.66393370361328,178.48786875,138.16193370361327L178.48786875,138.0519337036133ZM166.91686875,206.5957337036133C155.39085875,205.18773370361328,161.06586875,193.39693370361329,159.67986875,187.34793370361328C157.48084875,183.52093370361328,159.50386875,171.11393370361327,159.43786875,168.07793370361327C156.53484875,162.9749337036133,158.38286875,155.05593370361328,156.18285875,150.9639337036133C152.59684875,138.7779337036133,158.68986875,147.11493370361327,165.17986875,151.49193370361328C168.08286875,156.5959337036133,162.27586875,168.1659337036133,163.55186875,174.56793370361328C162.62786875,182.94893370361328,162.58386875,182.28893370361328,165.75186875,191.61593370361328C163.83786875,198.85293370361327,175.16686875,199.35893370361327,166.89586875,206.5957337036133L166.91686875,206.5957337036133ZM152.88285875,138.22793370361327C150.68285875,134.39993370361327,149.84684875,131.14493370361328,148.26385475,128.32893370361327C146.67985875,125.51293370361329,157.39284875,126.72293370361328,161.83586875,131.6069337036133C160.58186875,132.33293370361326,154.18084875,140.51593370361329,152.88285875,138.22793370361327Z" fill-rule="evenodd" fill="#FFFFFF" fill-opacity="1"/></g><g transform="matrix(1,0,0,1.0001800060272217,0,-0.053463878930415376)"><path d="M69.57845625,313.384404309082C72.70205625,312.395504309082,70.28235624999999,329.091404309082,85.57055625000001,324.273404309082C86.84645625,324.95540430908204,86.64845625000001,341.87140430908204,93.18165625,326.011404309082C94.23755625,325.24140430908204,94.89745625,325.26340430908203,95.02945625000001,324.99950430908206C100.19855625,332.08240430908205,92.41175625,338.923404309082,88.73815625,340.94750430908203C84.33875625,338.61550430908204,82.13895625,334.480404309082,78.94935625,337.71450430908203C74.32985625,335.250404309082,81.14905625,335.074404309082,78.26745625000001,332.038404309082C69.79835625,322.843404309082,74.35185625,343.389404309082,74.70385625,346.00740430908206C75.31975625,350.406404309082,71.88815625000001,352.73840430908206,70.30435625,352.49640430908204C68.72055625,352.254404309082,66.85075625,348.73440430908204,64.69495625,346.75540430908205C62.935256249999995,345.105404309082,60.99945625,343.917504309082,61.13145625,343.543404309082C61.92335625,341.343404309082,62.51725625,338.96740430908204,67.90665625,341.84940430908205C70.65625625,340.96940430908205,69.22645625,321.567404309082,62.583256250000005,323.65740430908204C58.733656249999996,321.611504309082,66.58675625000001,317.80640430908204,68.87455625,313.362404309082C69.08805625,313.288404309082,69.32085624999999,313.288404309082,69.53445625,313.362404309082L69.57845625,313.384404309082ZM59.701556249999996,333.754404309082C61.219356250000004,332.39040430908204,60.36155625,329.355404309082,59.701556249999996,326.09940430908205C57.96375625,317.300404309082,60.295556250000004,306.411444309082,54.29025625,299.042454309082C51.23255625,295.324444309082,47.00902625,297.568458309082,44.87532625,299.042454309082C43.09352625,300.27445430908205,39.46392825,301.770454309082,40.65172625,304.47544430908204C43.42342625,310.67940430908203,40.91572625,316.442404309082,38.95792725,322.07340430908204C35.96632625,330.49840430908205,49.95675625,318.51040430908205,46.37112625,310.72350430908205C46.21712625,310.34940430908205,45.42522625,300.56043430908204,48.702856249999996,304.98145430908204C49.07685625,305.50943430908205,55.58805625,314.704404309082,49.91275625,315.980404309082C45.05122625,317.05840430908205,48.85685625,322.579404309082,46.19512625,323.877404309082C44.54532625,324.69140430908203,42.87352625,325.68140430908204,42.69752625,326.95740430908205C42.43352625,328.629404309082,43.33542625,329.443504309082,46.08512625,328.73940430908203C48.83485625,328.035404309082,52.376456250000004,330.05840430908205,54.51015625,332.346404309082C55.61005625,333.55640430908204,55.56605625,334.546504309082,57.08385625,335.00840430908204C57.91975625,335.11840430908205,58.90965625,334.41440430908204,59.701556249999996,333.754404309082Z" fill-rule="evenodd" fill="#FFFFFF" fill-opacity="1"/></g></g></svg>