<svg width="763" height="762" viewBox="0 0 763 762" fill="none" xmlns="http://www.w3.org/2000/svg">
    <path fill-rule="evenodd" clip-rule="evenodd" d="M381.164 0C171.001 0 0.0429688 170.915 0.0429688 380.974C0.0429688 591.032 171.001 762 381.164 762C591.328 762 762.207 591.085 762.207 380.974C762.207 170.863 591.276 0 381.164 0ZM381.164 748.883C178.253 748.883 13.0852 583.861 13.0852 380.974C13.0852 178.087 178.253 13.039 381.164 13.039C584.076 13.039 748.956 178.087 748.956 380.87C748.956 583.652 583.894 748.779 381.164 748.779" fill="#0962A7"/>
    <path fill-rule="evenodd" clip-rule="evenodd" d="M307.528 644.414C308.07 642.218 306.745 639.997 304.554 639.433C302.319 638.826 300.005 640.109 299.337 642.328C298.777 644.487 300.073 646.696 302.233 647.257C302.267 647.267 302.303 647.275 302.337 647.283C304.525 647.956 306.847 646.725 307.52 644.534C307.53 644.495 307.543 644.456 307.554 644.414" fill="#0962A7"/>
    <path fill-rule="evenodd" clip-rule="evenodd" d="M347.411 666.059C342.802 665.485 341.064 663.842 342.194 661.13L346.289 635.887L343.42 635.443C340.467 637.011 337.037 637.431 333.794 636.617L333.455 638.573C337.472 638.912 339.038 640.033 338.124 641.78L335.178 660.035C335.308 662.93 333.064 663.947 328.395 663.112L328.108 664.833L347.229 667.78L347.411 666.059Z" fill="#0962A7"/>
    <path fill-rule="evenodd" clip-rule="evenodd" d="M368.018 637.66C361.183 637.66 357.349 641.207 356.462 648.091C356.053 653.203 359.864 657.677 364.976 658.09C365.06 658.095 365.143 658.1 365.226 658.105C367.327 658.209 369.371 657.425 370.861 655.941H371.018L370.809 659.957C370.496 665.485 367.966 668.093 363.218 667.78C361.954 667.692 360.724 667.326 359.619 666.711V666.502C361.914 666.763 363.114 665.772 363.245 663.529C363.018 661.568 361.243 660.165 359.282 660.392C357.526 660.596 356.186 662.051 356.123 663.816C356.123 667.024 358.576 668.797 363.323 669.188C372.695 669.483 377.911 664.111 378.974 653.072C378.974 643.58 375.348 638.416 367.94 637.66M371.305 649.499C370.94 653.724 369.4 655.862 366.74 655.941C364.783 656.097 363.975 653.072 364.288 646.996C364.47 641.598 365.722 639.173 368.018 639.407C370.697 639.199 371.792 642.563 371.305 649.499Z" fill="#0962A7"/>
    <path fill-rule="evenodd" clip-rule="evenodd" d="M385.651 668.119V669.866L404.979 669.345V667.598C400.336 667.858 398.275 666.555 398.824 663.738L397.936 638.156H395.016C392.409 640.229 389.13 641.267 385.807 641.076V643.006C389.824 642.641 391.546 643.449 391.025 645.301L391.65 663.816C392.381 666.633 390.372 668.041 385.572 668.093" fill="#0962A7"/>
    <path fill-rule="evenodd" clip-rule="evenodd" d="M434.011 655.941C432.89 650.021 429.447 647.231 423.578 647.518C421.48 647.791 419.59 648.926 418.361 650.647C417.187 642.198 418.857 637.895 423.369 637.608C424.399 637.504 425.44 637.694 426.369 638.156V638.364C424.814 638.289 423.495 639.488 423.419 641.042C423.406 641.316 423.432 641.593 423.5 641.859C423.907 643.509 425.456 644.618 427.152 644.466C429.081 644.396 430.59 642.776 430.519 640.849C430.514 640.68 430.496 640.513 430.465 640.346C429.838 637.06 427.126 635.626 422.404 635.913C414.162 637.809 410.283 644.049 410.771 654.637C412.179 664.077 416.796 668.432 424.543 667.676C431.403 666.789 434.586 662.851 434.089 655.915M423.995 666.346C421.386 666.998 419.822 664.207 419.274 658.001C418.622 652.785 419.691 650.177 422.457 649.786C424.491 649.134 425.769 651.716 426.395 657.61C427.021 663.503 426.395 666.346 423.995 666.268" fill="#0962A7"/>
    <path fill-rule="evenodd" clip-rule="evenodd" d="M457.826 641.52C455.657 641.986 454.277 644.122 454.744 646.289C454.754 646.334 454.765 646.378 454.775 646.422C455.386 648.626 457.647 649.935 459.862 649.369C462.03 648.902 463.412 646.766 462.945 644.599C462.935 644.555 462.924 644.511 462.914 644.466C462.303 642.263 460.041 640.954 457.826 641.52Z" fill="#0962A7"/>
    <path fill-rule="evenodd" clip-rule="evenodd" d="M366.01 411.303C366.01 402.123 364.262 396.204 350.933 396.204H320.883V444.239C321.718 491.388 313.501 540.884 307.371 554.706C297.747 576.351 268.244 563.937 277.009 541.51C283.869 523.647 290.73 481.531 290.73 445.178V396.204H260.393C250.351 396.204 246.229 396.204 245.342 411.303C243.674 436.893 237.122 461.925 226.04 485.051C216.805 503.723 190.669 490.058 202.407 464.189C209.058 449.403 215.163 435.164 215.163 411.433C215.163 381.269 230.24 366.188 260.393 366.188H290.599V320.76H212.345C190.591 320.76 188.321 294.291 212.345 290.535H290.443V262.345C290.443 253.531 287.391 245.394 278.261 245.394C254.785 245.394 253.768 215.196 278.261 215.222H328.917C349.784 215.222 351.689 244.143 330.795 244.742C319.735 245.107 320.674 257.547 320.674 261.354V290.587H347.985C360.323 290.587 366.923 280.417 365.932 272.698V139.7C357.487 139.818 349.072 140.691 340.785 142.308C208.9 164.625 120.083 289.604 142.406 421.455C158.714 517.779 231.323 594.869 326.518 616.928C339.432 620.016 352.63 621.763 365.905 622.144L366.01 411.303Z" fill="#0962A7"/>
    <path fill-rule="evenodd" clip-rule="evenodd" d="M623.307 381.835C623.289 263.665 537.964 162.764 421.412 143.09C413.123 141.466 404.758 140.265 396.346 139.491L396.189 274.237C396.189 294.708 385.442 320.812 352.55 320.812H320.883V366.057H351.063C381.234 366.057 396.319 381.138 396.319 411.303L396.606 622.535C409.779 622.368 422.897 620.788 435.733 617.815C545.559 592.404 623.336 494.614 623.36 381.913M504.544 526.776C488.893 506.096 486.703 451.541 486.703 396.099H431.925C406.441 396.099 407.901 365.953 431.768 365.953H486.546V320.76H431.299C405.683 320.76 406.649 290.587 430.491 290.587H486.703V273.819C487.198 257.521 487.303 244.821 464.948 244.429C441.289 244.429 439.151 215.092 465.966 215.274C507.909 215.509 516.882 235.38 516.882 259.789V366.109L579.172 365.953C601.109 365.953 598.397 396.204 579.172 396.204H516.856C516.856 441.449 515.004 481.739 532.324 513.555C543.593 534.417 519.282 546.309 504.518 526.75" fill="#0962A7"/>
    <path fill-rule="evenodd" clip-rule="evenodd" d="M145.386 152.191C145.042 152.432 144.86 152.844 144.916 153.261C145.824 153.874 146.859 154.276 147.942 154.434C151.152 156.968 153.62 160.319 155.09 164.135C153.446 168.751 155.455 171.959 152.481 176.835C147.838 181.503 155.481 181.633 158.976 179.104L159.133 178.947C164.506 183.746 164.089 194.829 165.784 196.029C168.386 197.335 171.532 196.842 173.609 194.803C174.255 193.86 175.162 193.126 176.218 192.691C178.592 193.056 181.096 196.211 183.105 197.072C184.196 197.608 185.385 197.918 186.6 197.984C188.582 198.48 188.53 196.185 189.651 195.194L191.217 195.351C192.416 194.438 194.843 193.29 194.347 191.778C194.139 188.466 185.896 181.138 183.913 178.947V178.791C182.84 177.696 181.854 176.519 180.965 175.27C180.626 174.592 179.453 173.628 179.531 173.002C179.436 168.041 179.61 163.079 180.052 158.137C181.591 156.833 181.591 156.833 182.009 156.677C182.046 156.917 182.107 157.153 182.192 157.381L181.957 157.59C181.957 158.137 182.661 158.685 183 159.128C183.747 159.337 184.33 159.92 184.539 160.667C185.347 161.84 186.574 161.945 187.435 162.883C188.518 162.459 189.663 162.212 190.826 162.153C191.55 161.552 192.152 160.817 192.599 159.989C192.822 159.69 192.89 159.303 192.782 158.946C192.769 158.737 192.769 158.528 192.782 158.32C192.208 157.537 192.208 157.537 192.182 157.277C192.156 157.016 191.608 156.364 191.347 155.842C190.654 150.86 191.685 145.79 194.269 141.473C197.216 146.115 213.44 163.118 215.502 166.456C216.493 167.369 221.709 173.393 222.779 173.315C223.341 174.011 224.02 174.602 224.787 175.062C225.126 175.062 225.126 175.062 226.066 174.253C226.719 173.566 227.264 172.783 227.683 171.932C227.741 171.729 227.81 171.528 227.892 171.333C227.732 170.967 227.732 170.551 227.892 170.185C227.552 169.159 227.646 168.037 228.152 167.082C227.839 166.743 226.483 165.517 226.901 164.97L226.718 164.292C226.849 164.364 226.989 164.417 227.135 164.448C227.527 164.213 227.892 163.926 228.283 163.666C228.126 163.431 228.022 163.222 227.892 163.04C227.761 162.857 227.318 161.971 227.031 161.449C219.016 149.782 210.195 138.689 200.633 128.252C200.642 127.519 200.695 126.788 200.79 126.061C199.616 123.818 202.329 118.759 199.981 116.751C198.077 117.821 198.312 117.716 196.825 116.204C194.217 116.96 194.765 117.873 193.147 119.255C191.53 117.455 187.669 114.691 184.956 111.588H184.33C184.174 111.244 183.99 110.913 183.783 110.597L183.626 110.362C182.557 109.554 181.905 108.693 181.565 108.511L181.096 107.989C179.896 106.372 175.071 99.4877 172.227 101.522C170.037 100.713 165.497 103.66 163.645 105.277C163.567 105.706 163.368 106.104 163.072 106.424C163.332 106.842 163.802 107.285 163.75 107.781C166.202 110.779 168.445 113.596 171.001 116.491C170.636 117.299 170.323 117.925 169.358 117.925C165.549 112.553 160.385 123.74 161.141 126.296C160.936 126.519 160.744 126.754 160.567 127C160.776 128.226 161.297 128.147 162.498 128.174L163.906 129.008C164.292 128.785 164.747 128.71 165.184 128.799C167.636 128.799 168.34 126.948 170.402 125.148C171.425 124.445 172.193 123.429 172.592 122.254C172.749 122.097 173.557 120.663 173.818 120.924C173.979 120.811 174.144 120.707 174.314 120.611C178.514 125.383 182.296 129.217 186.783 133.78C186.841 134.918 186.744 136.058 186.496 137.17C186.991 139.361 184.07 155.425 181.983 155.425C180.965 154.017 180.313 152.426 179.374 151.044C178.601 145.635 178.522 140.149 179.14 134.719C180 132.555 177.731 130.99 176.27 129.816C175.253 129.816 174.732 129.53 174.001 129.686C172.797 130.281 171.638 130.96 170.532 131.72C169.697 132.476 168.862 133.259 168.08 134.041C168.34 135.762 167.767 138.161 168.679 139.491C170.532 137.875 171.549 138.161 173.896 138.396C174.337 138.193 174.79 138.019 175.253 137.875C176.218 139.126 175.801 139.726 175.253 141.213C175.189 142.098 175.023 142.973 174.758 143.82C174.428 145.415 174.34 147.05 174.497 148.671C173.322 151.487 174.497 163.196 172.644 164.865C172.136 163.928 171.433 163.111 170.584 162.466C167.532 159.519 167.975 155.399 165.106 152.191C164.328 152.226 163.554 152.055 162.863 151.696C160.515 151.696 159.498 146.48 156.941 148.019C153.912 147.172 150.662 147.962 148.36 150.105C147.812 150.575 145.987 152.452 145.281 152.191" fill="#0962A7"/>
    <path fill-rule="evenodd" clip-rule="evenodd" d="M142.1 150.001C142.34 150.339 142.601 150.661 142.882 150.966L143.247 150.653C143.665 150.262 144.134 149.897 144.577 149.531C144.708 149.897 144.916 150.288 145.073 150.705H145.516C148.542 147.367 147.186 138.787 150.577 135.058C152.637 130.416 151.229 128.174 148.334 125.618C148.151 125.618 143.691 125.618 143.612 125.618C141.004 126.426 136.335 130.573 136.674 133.441C137.639 134.745 137.3 136.962 137.874 138.422C136.987 140.065 141.735 149.166 142.1 149.662" fill="#0962A7"/>
    <path fill-rule="evenodd" clip-rule="evenodd" d="M630.455 168.803C631.315 172.767 627.012 175.505 624.194 176.627C623.047 176.12 621.7 176.403 620.855 177.331C621.611 182.285 614.386 179.938 611.569 179.625C610.831 180.298 610.006 180.868 609.117 181.321C608.058 182.078 607.086 182.953 606.221 183.928L606.509 184.241C605.335 185.884 606.744 187.345 606.796 189.17C607.803 190.378 609.034 191.379 610.421 192.117C610.524 192.088 610.633 192.088 610.735 192.117L611.595 193.004C611.22 193.173 610.79 193.164 610.421 192.977C604.109 198.584 593.205 214.387 583.424 204.478C583.163 204.478 583.163 204.478 580.972 202.366C580.685 202.366 580.685 202.366 580.346 202.366C575.625 205.964 580.763 214.7 583.789 218.012C583.789 218.012 583.92 218.012 583.972 218.012C584.024 218.012 584.311 218.143 585.015 218.925C585.25 218.743 585.25 218.743 585.38 218.925H586.946C593.649 222.42 608.361 207.607 610.004 205.208C612.3 202.444 615.221 196.315 616.995 194.777C619.03 196.315 623.647 196.472 626.176 197.671C627.697 197.678 629.145 197.021 630.141 195.872C629.825 194.734 629.966 193.518 630.532 192.482C630.297 191.167 629.948 189.876 629.489 188.622C629.447 188.39 629.447 188.151 629.489 187.918C629.301 187.699 629.09 187.498 628.863 187.318C628.472 187.318 626.907 187.788 626.619 187.475C626.333 187.162 626.437 187.475 625.55 187.684C624.664 187.892 623.099 186.145 622.211 186.38C621.794 185.754 621.794 185.754 621.768 185.337C622.263 184.795 622.856 184.353 623.516 184.033C624.09 184.033 624.09 184.033 624.455 184.033L624.69 184.293C624.802 184.265 624.917 184.265 625.029 184.293L625.681 184.841L626.254 184.293C627.716 185.128 629.619 184.45 630.924 185.467C632.437 185.467 633.089 185.05 633.532 185.102L636.323 182.494C636.295 182.375 636.253 182.261 636.193 182.155C637.028 181.242 637.028 180.225 637.732 179.208C637.732 178.974 637.549 178.765 637.497 178.556C637.651 178.376 637.789 178.184 637.914 177.983C637.236 177.044 637.419 176.496 637.914 175.375C637.106 173.393 639.063 172.923 637.914 171.15C637.758 170.55 637.627 169.977 637.445 169.455C636.167 168.073 634.707 167.864 633.376 166.847C633.107 167.048 632.765 167.124 632.437 167.056C631.785 167.734 631.185 168.438 630.532 169.142" fill="#0962A7"/>
    <path fill-rule="evenodd" clip-rule="evenodd" d="M574.921 148.436C575.938 148.984 576.772 150.522 574.373 150.288L573.824 150.575C565.321 152.609 551.549 153.626 547.584 154.486C546.716 154.405 545.844 154.405 544.975 154.486C543.723 155.842 541.141 156.416 541.219 158.789C541.793 159.389 542.393 160.093 542.967 160.771C543.061 160.743 543.16 160.743 543.254 160.771C546.593 163.926 548.053 161.997 552.018 163.014C553.648 162.67 555.308 162.486 556.974 162.466C558.208 161.959 559.528 161.694 560.861 161.684L558.435 163.353C555.383 167.134 549.618 169.533 550.087 175.427L551.105 176.705C551.236 177.696 552.801 179.026 553.505 179.808C554.862 181.086 557.913 178.087 561.33 175.323C561.799 175.74 564.826 172.923 565.243 173.341C566.342 172.806 567.497 172.395 568.686 172.115C568.686 172.115 567.095 174.253 567.2 174.436C567.098 174.883 567.03 175.336 566.991 175.792C567.093 176.026 567.223 176.245 567.382 176.444C567.226 176.992 567.982 177.487 568.425 177.983C569.208 177.983 577.946 179.365 577.946 179.365C575.338 181.973 572.938 184.763 570.12 187.188C570.12 187.188 570.12 187.371 570.12 187.449C568.295 189.822 570.825 189.666 570.12 191.595C570.591 192.176 571.123 192.701 571.712 193.16C572.818 192.997 573.934 192.893 575.051 192.847C575.789 192.668 576.501 192.387 577.163 192.013C577.163 192.013 577.163 192.013 577.346 192.013C579.329 190.578 581.311 189.144 583.242 187.579C585.171 186.015 585.224 185.702 585.563 185.571C585.902 185.441 587.467 183.928 587.493 184.033C588.224 186.275 586.476 191.335 589.006 192.247C590.467 191.204 594.092 194.673 594.719 191.1C596.179 189.431 596.179 189.431 596.362 188.935C598.057 187.032 598.971 182.129 597.04 179.991H596.727L594.118 178.139C594.536 177.305 600.301 171.411 601.266 171.489C603.809 171.477 606.335 171.909 608.726 172.767H609.613C611.726 173.862 612.221 173.836 613.838 172.376C613.76 171.084 613.838 169.789 614.073 168.516C612.795 166.978 612.013 165.204 610.056 164.813C609.326 163.64 610.056 163.77 611.1 163.014C612.143 162.258 615.091 157.563 616.76 158.32C616.982 158.181 617.216 158.067 617.464 157.981C618.09 158.528 618.195 158.346 618.978 158.528C620.49 159.676 620.021 160.954 619.134 161.997C619.29 163.796 617.803 163.953 618.925 165.856C618.691 166.482 620.151 169.377 620.542 170.081C623.151 173.419 628.55 167.786 629.228 163.744C630.637 161.136 626.046 158.815 627.429 155.921C626.907 155.243 626.907 155.243 626.62 155.086C626.074 155.49 625.438 155.758 624.768 155.868C624.619 155.655 624.434 155.469 624.22 155.321H623.933C622.812 154.121 623.281 152.191 623.438 150.757C623.67 150.535 623.913 150.326 624.168 150.131C624.298 150.131 624.298 150.131 625.342 150.757C625.681 150.366 625.967 150.001 626.359 149.61C626.751 149.218 626.62 148.645 626.829 148.332C627.716 147.471 628.654 146.663 629.593 145.881C630.005 145.422 630.528 145.073 631.107 144.863C631.446 143.612 632.854 142.725 632.046 141.186C632.077 141.02 632.139 140.861 632.228 140.717L630.637 139.048C630.872 138.709 630.637 138.344 630.637 137.979C631.576 137.197 630.637 137.144 631.107 136.388C630.403 135.736 630.533 135.319 630.351 134.406C629.776 133.859 629.15 133.337 628.55 132.815L627.95 132.633C627.585 132.894 627.168 133.363 626.725 133.154C626.012 133.82 625.365 134.554 624.794 135.345C624.794 139.674 608.1 152.191 605.126 154.956C603.509 156.129 601.944 157.355 600.353 158.581C596.284 158.893 593.701 156.807 589.919 156.964C589.475 157.407 588.745 158.32 588.067 158.215C586.476 158.789 587.102 160.015 587.285 161.293C588.192 162.518 589.175 163.686 590.232 164.787H590.572L591.093 165.335C584.65 170.837 576.251 169.716 571.138 169.116C570.982 168.647 569.025 169.977 568.399 170.133L565.217 170.368C566.991 169.012 576.511 163.301 573.407 159.937C572.234 158.607 576.485 158.867 578.26 158.398C583.476 159.963 587.858 155.399 589.475 151.566C588.98 150.966 586.867 149.271 586.502 148.645C587.076 147.889 588.693 148.984 588.771 148.645C591.993 148.126 595.241 147.795 598.501 147.654C599.857 145.698 601.917 142.438 599.857 139.83C601.239 137.64 598.58 134.615 596.988 132.737C595.814 133.624 595.397 133.285 594.17 133.832C592.136 133.311 589.919 136.44 588.354 135.658C585.745 138.057 572.338 141.552 568.921 139.491C564.773 146.193 573.824 147.315 574.608 148.175" fill="#0962A7"/>
    <path fill-rule="evenodd" clip-rule="evenodd" d="M222.126 114.743C223.953 114.743 225.335 115.004 226.953 113.466C227.495 113.178 228.089 113.001 228.7 112.944C229.3 113.935 231.935 122.489 231.935 122.749C232.404 124.21 235.169 129.269 235.039 130.833C234.57 135.84 231.439 140.874 232.43 146.48C232.43 146.689 234.203 149.636 234.308 149.87C234.307 150.635 234.597 151.371 235.117 151.931C235.508 152.113 235.508 152.113 236.473 153.156H236.682C236.969 153.574 237.412 153.652 237.699 154.095C238.208 154.166 238.728 154.112 239.212 153.939C239.212 153.939 239.212 153.704 239.212 153.6C240.423 152.936 241.888 152.936 243.099 153.6C244.794 154.095 244.351 152.869 245.342 154.93C245.912 155.02 246.494 155.02 247.064 154.93C248.081 156.077 248.524 155.425 249.672 155.894C251.003 155.19 251.003 155.19 251.29 154.877C251.003 154.278 250.768 153.73 250.533 153.182C249.646 152.869 247.925 149.297 247.664 148.332C245.237 143.429 245.237 143.429 245.055 142.934C244.481 141.734 243.908 140.482 243.386 139.283C242.995 138.474 242.63 137.692 242.264 136.884C242.501 136.731 242.755 136.608 243.021 136.518C243.127 136.595 243.216 136.693 243.282 136.805C243.471 136.709 243.673 136.639 243.881 136.597C245.035 137.691 246.767 137.913 248.159 137.144C248.355 137.488 248.573 137.82 248.811 138.135C248.246 138.462 247.743 138.886 247.325 139.387C247.472 139.874 247.646 140.353 247.846 140.821C249.124 141.16 253.454 140.378 253.95 140.821C263.028 140.352 265.87 140.169 272.783 133.18C273.096 131.381 274.87 129.503 275.392 127.548C276.435 121.941 295.32 124.158 295.529 120.715C297.772 119.072 298.137 114.874 300.224 112.735C300.824 109.215 304.45 105.329 302.65 101.47C302.65 100.087 302.049 98.4447 303.146 97.7666C302.963 96.202 304.476 93.881 302.442 93.3595C301.943 93.6218 301.463 93.918 301.006 94.2461C299.311 95.211 297.85 97.1929 296.155 97.9753C296.139 98.0702 296.139 98.1672 296.155 98.2621C295.816 98.4968 295.164 98.7054 295.138 99.1488C292.294 100.792 283.66 108.041 279.487 107.859C275.809 108.798 274.583 107.181 275.053 104.547C275.6 103.034 270.905 95.3935 269.392 95.7586C268.479 94.5069 266.784 94.1418 266.209 93.1508C263.601 89.8911 262.218 92.2642 259.871 93.3595C259.584 93.0987 259.715 92.2642 259.871 92.0034C259.454 91.1167 258.149 85.4839 258.75 85.197C258.75 82.7196 262.741 79.1469 261.827 77.1389H261.279C261.201 77.032 261.131 76.9186 261.071 76.7999L258.463 77.843C257.836 77.9995 257.836 77.9995 257.68 77.843C257.132 77.843 257.028 77.6344 256.611 77.1911H256.245C256.089 76.8521 255.854 75.9393 255.541 75.8089C254.994 73.9574 252.202 68.5332 252.515 67.0728C251.368 64.465 249.906 57.0328 247.038 56.6416C245.293 57.3952 243.603 58.2665 241.977 59.2494L241.533 59.5362C241.315 59.9342 241.315 60.4161 241.533 60.8141C241.628 60.8631 241.716 60.9244 241.794 60.9966C241.976 60.9139 242.169 60.861 242.368 60.8401C244.563 64.4582 246.025 68.4719 246.673 72.6535C246.992 75.8767 247.71 79.0476 248.811 82.0937C248.811 83.1629 249.489 84.3364 249.15 85.3013C251.472 91.9773 240.177 116.83 238.403 124.418C238.403 124.418 237.36 120.402 236.76 119.072C237.177 118.499 235.873 115.082 235.639 114.091C235.639 113.544 234.622 111.484 234.674 111.327C234.431 110.082 234.054 108.867 233.552 107.702C234.709 104.249 236.295 100.955 238.273 97.897V97.6884L238.795 97.4537C238.678 96.9739 238.678 96.4732 238.795 95.9933C238.664 95.6311 238.664 95.2342 238.795 94.872C238.468 93.9579 238.038 93.083 237.516 92.2642H237.099C236.836 91.885 236.487 91.5726 236.082 91.3514L235.039 91.8469C234.926 91.7327 234.821 91.6107 234.726 91.4818C232.769 92.0556 233.656 90.0475 231.491 91.0385C232.279 92.4892 231.826 94.3014 230.448 95.211C229.717 92.6032 229.717 92.6032 229.847 92.6032C229.587 91.8208 228.804 90.5691 229.248 89.9954C228.7 88.7697 227.839 86.2141 226.457 86.6052C226.248 86.3445 225.987 85.9794 225.622 85.9533C225.334 85.5405 225.081 85.1044 224.866 84.6494C224.5 84.6494 224.5 84.6494 224.083 84.519C218.214 87.4137 221.474 88.8219 222.022 93.6724L224.631 99.0705C224.839 104.912 220.796 106.112 216.805 107.885C216.796 107.98 216.796 108.076 216.805 108.172C217.222 109.578 217.846 110.914 218.658 112.136C219.867 112.931 221.026 113.802 222.126 114.743ZM252.802 136.962C251.707 134.641 255.411 133.78 256.193 135.215C255.461 136.366 254.165 137.034 252.802 136.962ZM243.256 126.687C243.339 126.609 243.436 126.547 243.542 126.505C243.151 124.575 244.507 122.671 244.925 120.82C246.438 114.144 246.986 103.504 250.559 101.183C252.15 100.114 253.167 103.504 253.532 108.12C253.741 112.057 255.15 115.943 257.002 116.517C257.539 116.266 258.134 116.167 258.724 116.23C259.883 115.862 260.964 115.278 261.905 114.509C264.175 113.283 264.175 113.283 264.514 113.309L264.723 113.622C264.423 114.458 263.953 115.222 263.341 115.865C263.304 115.975 263.304 116.094 263.341 116.204C261.723 117.195 260.341 118.499 258.724 119.437C258.227 120.793 253.506 122.671 251.968 123.323C250.428 123.975 249.359 124.601 247.898 125.279C244.533 127.548 244.82 128.434 242.447 131.616C242.265 132.64 242.186 133.679 242.211 134.719C242.035 134.827 241.891 134.98 241.794 135.162C240.972 133.17 241.401 130.88 242.89 129.321C242.525 128.121 243.386 127.626 243.282 126.713M238.821 142.908C240.751 145.959 241.012 148.619 240.334 149.166C240.151 148.932 239.864 149.166 239.656 148.906C237.464 146.715 237.621 141.082 238.821 142.908Z" fill="#0962A7"/>
    <path fill-rule="evenodd" clip-rule="evenodd" d="M347.124 70.6193C347.881 70.854 343.316 77.1127 342.586 77.7908C342.04 78.4318 341.703 79.223 341.62 80.0596C342.157 80.3357 342.818 80.168 343.159 79.6684C343.446 79.6684 343.342 78.3384 344.515 78.7296C345.872 78.2341 344.933 77.7386 346.315 77.2692C346.629 77.1127 347.75 77.0084 347.802 76.2C347.985 76.2 349.81 74.1659 350.202 74.0616C350.828 73.3314 353.332 69.6283 353.41 69.524C354.819 67.9333 356.384 67.3335 357.271 65.4559C357.271 65.4559 358.732 63.9694 358.862 63.8912C360.975 61.8571 359.071 51.452 354.166 57.8672C353.488 58.0236 349.941 60.0838 349.68 59.145C349.419 58.2062 350.228 57.2934 350.097 56.5372C350.097 56.5372 351.063 55.0507 351.246 54.9986L350.62 55.4158C352.132 54.5292 352.706 53.3556 354.14 52.9906C354.101 52.8722 354.101 52.7439 354.14 52.6255C354.226 52.601 354.315 52.601 354.401 52.6255C355.732 50.0177 357.766 49.4439 357.662 46.3667C357.036 44.9324 355.054 46.3667 354.819 44.9064C355.656 44.7147 356.465 44.4075 357.218 43.9936C358.453 41.2158 357.198 37.9649 354.419 36.7322C354.226 36.6467 354.028 36.5721 353.827 36.5092C353.533 36.4866 353.235 36.4866 352.941 36.5092H352.341C351.872 35.3618 343.551 39.3517 342.586 39.7951C342.742 41.1251 344.594 40.0819 344.75 41.3858C346.32 42.2767 347.836 43.2606 349.289 44.3327C350.447 44.5071 351.613 44.5945 352.784 44.5934C353.097 45.6626 343.994 51.3216 342.35 51.6606C341.907 52.9358 341.907 54.3231 342.35 55.5984C343.368 56.2764 343.968 56.3285 344.594 57.476C345.53 57.8103 346.553 57.8103 347.489 57.476C348.924 56.9023 344.542 63.0306 342.507 64.2302C339.899 65.847 342.899 69.4458 347.098 70.7497" fill="#0962A7"/>
    <path fill-rule="evenodd" clip-rule="evenodd" d="M380.408 60.6836C381.66 60.9444 381.973 61.5702 383.277 60.9444C383.251 60.8416 383.251 60.7342 383.277 60.6314C383.423 60.6137 383.575 60.6137 383.721 60.6314C383.856 60.3073 384.034 60.0009 384.242 59.7187C384.242 57.5021 384.242 57.5021 384.242 57.5021C384.242 57.5021 384.242 57.5021 384.425 56.2764C384.842 56.0678 384.686 56.2764 384.764 55.807C392.589 52.0778 370.966 40.1602 371.722 50.7478C375.642 52.9989 378.65 56.551 380.225 60.7879" fill="#0962A7"/>
    <path fill-rule="evenodd" clip-rule="evenodd" d="M317.857 61.3355C317.857 61.5181 318.666 61.4659 318.744 61.6485C319.631 61.6485 319.344 63.1088 318.901 62.7698C317.153 62.9784 317.909 63.0567 316.944 64.3345C317.513 72.0312 317.661 79.7529 317.387 87.4657C317.387 87.6483 317.387 93.229 317.387 94.6372L317.179 99.3834C316.97 100.166 319.031 113.074 319.162 113.1C319.448 114.483 322.787 116.543 323.961 116.751C325.134 116.96 326.857 116.751 326.857 115.734C326.724 114.268 327.063 112.797 327.822 111.536C328.161 110.858 329.986 107.363 330.273 108.198C330.738 111.211 330.999 114.251 331.056 117.299C331.536 117.704 331.943 118.189 332.256 118.733C333.899 118.472 337.472 116.751 337.472 114.926C337.858 114.708 338.187 114.405 338.438 114.039C337.759 104.677 336.534 98.6793 337.498 93.907C337.655 93.2029 336.899 90.9341 337.342 90.3604C337.785 89.7867 338.333 91.3513 338.673 90.6994C338.673 90.0735 341.046 90.3604 341.594 90.3343C340.704 91.4249 340.144 92.7452 339.977 94.1417C338.517 96.0454 344.385 109.345 344.437 111.327C344.437 111.536 346.002 113.231 346.106 113.492C346.994 113.778 347.463 113.674 347.515 114.352C348.767 114.561 350.828 115.161 350.933 113.335C351.193 112.97 351.637 112.892 351.741 112.501C353.54 111.927 354.506 111.484 353.723 109.476C353.384 108.511 354.871 107.963 355.836 108.172C356.358 109.528 357.01 111.118 358.706 111.353C359.593 112.224 360.85 112.605 362.07 112.37C363.271 111.718 363.323 110.91 363.297 109.58C363.531 109.293 364.105 107.624 364.314 107.363C364.264 106.495 364.264 105.624 364.314 104.755C364.314 103.712 363.662 101.626 364.314 100.739C365.226 100.739 366.061 104.782 370.313 104.338C370.522 104.103 370.94 104.338 371.044 104.651C372.817 111.64 379.547 121.289 384.086 121.289C384.086 121.289 387.92 122.619 388.077 119.437C388.077 118.577 388.077 117.716 387.946 116.83C387.738 108.693 386.903 104.312 382.73 97.8187C382.285 97.0885 381.894 96.0975 381.112 96.1758C381.112 97.3754 381.425 103.086 379.652 101.548C377.984 100.009 377.04 97.8437 377.043 95.576C377.564 92.1337 380.33 89.4216 380.877 85.6924C381.19 82.7456 381.686 79.3815 379.026 77.191C378.687 77.191 378.373 75.9131 376.417 75.2873C375.854 75.2226 375.285 75.2226 374.722 75.2873C375.186 77.7587 375.473 80.2596 375.582 82.7717C375.209 84.4592 374.659 86.1026 373.938 87.6743C372.713 85.5881 370.601 71.4538 370.496 70.0977C372.804 68.6447 375.423 67.7518 378.138 67.4899C378.138 67.2031 384.451 65.4037 379.26 61.1008C378.843 59.5101 377.434 59.8752 376.652 58.9885C374.043 59.2493 372.061 62.0918 369.452 62.3787C366.844 62.6655 364.783 33.093 364.992 28.1121C364.705 28.1121 364.209 26.417 363.949 26.3388C363.61 24.9828 362.409 25.2696 360.584 25.1392C360.401 25.1392 359.384 25.8694 359.254 25.8955C359.254 26.4692 360.192 28.5033 360.792 28.8423C361.027 30.7721 360.792 33.3799 360.792 38.1C360.503 46.8343 361.134 55.5752 362.671 64.178C361.775 66.0648 360.625 67.8196 359.254 69.3936C356.501 71.9117 353.553 74.2053 350.437 76.2522C350.254 76.852 347.568 78.4949 346.89 79.1468C345.543 79.9378 344.244 80.8085 343.003 81.7546L340.394 82.0154C340.394 81.8329 338.438 83.4758 338.438 83.2932C338.47 81.957 338.644 80.6281 338.96 79.3294C338.96 75.9914 339.977 76.7216 340.707 73.3314C340.942 72.184 341.542 71.0105 340.42 71.1148C339.654 71.452 339.153 72.2064 339.142 73.0446C338.543 73.6965 337.968 74.8961 337.525 75.1308C336.195 77.167 335.308 79.4587 334.917 81.8589L334.708 80.9201C333.938 76.0115 333.554 71.0501 333.56 66.0817C333.56 64.3084 333.56 61.9875 333.56 61.1791C333.56 58.5713 333.116 56.3285 330.613 56.5893C330.613 56.5893 336.925 49.1571 333.508 47.1491C332.725 47.1491 333.351 44.7499 330.9 45.0107C328.797 45.9318 326.846 47.1624 325.108 48.6616C322.501 51.7649 313.449 50.3306 314.179 57.7628C314.179 58.6756 315.744 61.3095 317.648 61.5181M349.941 95.0023L349.419 90.6472C350.123 88.8218 351.246 89.8127 352.862 89.2651C353.932 88.8479 355.132 92.1337 354.245 93.4637L351.22 94.8197L349.941 95.0023ZM355.445 102.826C355.445 103.999 352.836 104.077 352.08 104.156C351.188 102.689 350.688 101.02 350.62 99.3051L353.228 97.7926C354.637 97.0624 355.132 98.1838 355.158 98.1577L355.497 99.9832C355.604 100.928 355.604 101.881 355.497 102.826M363.61 72.7577C365.146 80.0371 366.293 87.3927 367.053 94.7936C366.909 96.6614 365.511 98.19 363.662 98.4967C363.192 98.4967 363.427 97.245 363.271 96.593C362.749 94.3503 363.949 88.1959 362.148 85.4838L361.705 84.3885C361.157 80.5029 355.889 80.0335 353.879 81.9372C352.469 83.5475 350.826 84.9364 349.002 86.0575C348.246 86.6312 345.819 87.1006 345.402 86.2661C346.028 87.3353 353.567 77.1649 363.662 72.4187M328.708 95.2891C328.275 96.7273 327.133 97.8411 325.682 98.2359C325.474 97.4014 325.056 97.584 325.161 96.5669L325.004 95.0805C324.795 93.1246 324.065 90.2561 326.961 89.8649C327.587 89.8649 328.239 88.8218 328.604 89.1869C329.457 91.0953 329.457 93.2764 328.604 95.1848M326.492 83.9713L324.665 84.7014C323.283 83.5019 323.883 81.885 323.674 79.4858C323.987 79.0584 324.475 78.7911 325.004 78.7557C325.995 78.6253 326.36 77.3214 327.378 77.217C328.604 79.0947 328.161 79.6162 328.395 81.8589C327.795 82.4327 327.222 83.8409 326.492 84.0756M326.987 67.0727C327.201 67.8264 327.365 68.593 327.483 69.3676V71.1148C327.483 71.1148 323.935 74.4528 323.726 72.9403C323.57 71.9232 323.544 68.2723 323.439 67.2031C324.144 66.2904 326.308 65.821 326.987 67.0727Z" fill="#0962A7"/>
    <path fill-rule="evenodd" clip-rule="evenodd" d="M96.8948 236.137C107.329 244.377 122.98 256.999 124.727 264.457C126.762 271.107 128.222 264.848 133.726 267.404C134.848 266.022 137.221 263.962 136.335 261.458C134.662 255.91 131.308 251.017 126.736 247.454C124.31 245.551 117.71 242.526 115.076 239.918C107.251 232.668 92.7996 223.15 82.5745 220.203C81.0876 219.786 74.5665 221.272 76.3924 223.437C83.5268 227.155 90.3792 231.391 96.8948 236.11" fill="#0962A7"/>
    <path fill-rule="evenodd" clip-rule="evenodd" d="M107.277 192.638C110.798 195.246 106.494 199.992 112.493 201.583C117.319 202.939 116.876 200.488 122.536 203.669C123.475 204.035 124.962 202.47 125.614 202.079C125.848 198.949 126.136 199.471 126.084 197.932C126.032 196.394 116.797 193.212 113.693 191.1C110.59 188.987 110.564 187.266 112.624 188.492C121.701 192.325 121.414 194.099 124.988 196.055C131.301 199.497 129.761 198.662 131.614 200.618C132.631 201.74 140.769 207.79 141.708 208.859C143.221 210.58 144.603 217.83 146.43 219.447C151.647 223.124 152.976 217.752 155.403 218.273C160.828 219.394 163.228 218.091 164.584 215.665C165.236 213.918 163.072 210.059 163.202 208.155C162.733 204.739 161.662 200.957 154.464 197.28C141.212 190.5 125.77 182.051 116.276 178.191C113.015 177.226 106.208 176.679 102.764 181.712C102.164 182.859 104.851 184.971 105.529 187.084C106.208 189.196 105.529 191.308 107.225 192.638" fill="#0962A7"/>
    <path fill-rule="evenodd" clip-rule="evenodd" d="M96.1386 253.478C97.808 254.365 102.138 251.94 107.668 252.905C108.841 252.357 110.407 252.514 110.277 250.688C110.694 249.541 106.39 247.454 104.824 247.376C100.573 248.159 96.4516 246.959 90.1652 241.196C88.0785 238.588 85.9396 240.231 83.9049 240.413C82.8355 240.413 84.0875 243.464 84.844 244.977C87.7915 248.967 89.5914 250.193 96.269 253.478" fill="#0962A7"/>
    <path fill-rule="evenodd" clip-rule="evenodd" d="M112.754 218.221C110.87 217.182 108.838 216.434 106.729 216.004C104.718 215.59 102.805 214.793 101.094 213.657C100.521 214.727 101.485 217.256 101.877 217.934C103.781 221.168 104.277 224.454 106.599 225.366C111.502 228.47 115.598 226.018 118.937 227.114C120.267 227.557 121.179 226.54 121.362 224.793C121.544 224.532 120.267 222.576 118.363 221.637C116.458 220.698 114.815 219.264 112.754 218.221Z" fill="#0962A7"/>
    <path fill-rule="evenodd" clip-rule="evenodd" d="M94.9908 202.626C97.8862 206.329 97.0254 208.494 100.208 211.258C101.459 211.754 103.364 212.64 103.521 211.415C103.677 210.189 104.146 210.502 106.129 211.415C109.886 214.022 117.894 219.681 122.693 223.489C124.649 225.81 125.98 227.713 126.058 227.661C129.182 230.188 132.709 232.172 136.491 233.529C138.627 233.709 140.764 233.206 142.595 232.094C142.665 230.229 142.445 228.364 141.943 226.566C139.335 222.42 133.283 221.768 128.561 216.891C123.84 212.014 107.955 203.956 98.3296 198.193C95.043 197.15 90.5043 200.488 91.9128 201.322C93.3214 202.157 93.9736 202.183 94.9908 202.731" fill="#0962A7"/>
    <path fill-rule="evenodd" clip-rule="evenodd" d="M717.368 310.329C712.151 308.946 706.778 314.579 702.735 311.398C700.856 309.911 697.022 310.902 696.396 308.321C696.657 305.4 701.847 304.2 700.491 302.844C699.315 301.452 697.797 300.39 696.083 299.767C693.657 298.802 689.77 299.506 684.658 301.253C683.745 299.923 684.658 299.193 685.206 298.359C686.105 296.066 688.602 294.836 690.971 295.516C693.109 295.881 695.848 297.003 698.117 297.524C700.387 298.046 706.413 297.342 706.804 294.916C706.334 292.309 706.413 290.196 705.943 287.562C704.847 285.215 701.508 285.867 700.152 284.955C697.152 282.868 697.074 279.4 690.762 281.147C688.153 281.877 688.362 285.581 688.779 287.406C689.301 289.727 687.632 290.014 685.936 290.353C682.78 291.422 682.989 289.336 681.136 290.353C679.285 291.37 677.745 294.186 676.285 294.682C673.963 295.751 673.963 294.264 674.459 292.908C676.233 290.718 681.658 287.562 680.615 285.554C680.067 283.468 667.234 286.18 664.182 286.545C654.335 287.823 644.691 290.355 635.489 294.082C632.698 295.177 629.411 299.454 630.063 302.714C632.671 306.912 645.531 300.341 650.252 298.62C658.417 295.673 659.33 297.003 667.416 294.03C669.216 294.03 669.477 293.873 669.398 295.255C669.398 297.107 665.773 298.698 666.791 302.244C668.616 304.422 671.196 305.828 674.015 306.182C676.335 306.503 678.277 308.094 679.05 310.302C679.467 311.476 681.841 311.346 683.38 311.45C687.632 312.936 681.163 314.892 679.546 315.127C673.859 309.911 662.278 308.894 658.861 309.911C655.052 310.746 665.746 315.127 664.495 319.951C664.104 319.951 662.487 321.073 661.599 320.786C648.948 314.997 648.713 315.388 642.767 312.024C640.966 310.329 637.132 314.058 637.914 316.118C643.393 325.454 654.139 327.097 664.547 327.488C667.156 328.218 669.372 329.392 666.791 330.096C660.895 329.366 653.617 328.062 649.052 330.096C645.654 331.415 643.32 334.571 643.054 338.206C642.688 341.857 645.661 359.381 653.33 365.927C661.416 371.273 676.65 365.927 685.884 360.294C687.528 359.329 688.049 353.488 684.189 355.548C670.886 360.164 665.355 358.156 657.921 352.184C653.33 345.873 654.374 338.441 656.721 337.684C661.025 337.945 667.442 338.128 670.938 335.468C673.754 333.277 675.19 332.469 677.537 334.007C678.55 334.8 679.835 335.157 681.11 334.998C681.736 334.399 683.719 335.52 684.215 331.947C681.032 318.256 672.451 319.821 672.451 316.718C672.32 314.631 675.816 316.561 677.38 317.448C683.719 320.916 682.441 325.845 685.414 327.566C690.632 330.722 694.362 328.948 697.935 336.72C700.544 343.526 705.03 346.577 708.369 344.1C712.803 341.909 717.498 337.137 716.507 334.712C715.516 332.286 712.908 327.723 715.282 324.645C718.281 322.038 719.012 325.532 722.245 321.907C723.524 320.03 720.863 313.693 717.159 310.381M706.361 331.243C703.909 331.426 697.152 329.235 695.927 326.732C692.77 319.586 688.31 319.169 688.545 315.883C688.91 315.883 690.71 314.579 691.727 315.44C696.944 319.404 695.144 320.655 698.64 323.654C701.109 324.682 703.353 326.189 705.239 328.088C706.752 329.652 707.404 330.461 706.282 331.243" fill="#0962A7"/>
    <path fill-rule="evenodd" clip-rule="evenodd" d="M607.422 226.279C605.934 227.557 604.813 234.102 609.195 234.363C614.908 235.276 621.977 228.522 626.646 227.87C632.593 227.087 633.662 231.26 636.558 233.503C638.541 234.989 643.314 233.268 645.088 233.842C655.522 237.154 659.017 246.881 669.659 253.009C671.173 253.817 673.024 256.947 670.573 257.99C667.385 257.449 664.362 256.192 661.729 254.313C659.904 252.618 658.913 253.974 657.738 249.254C656.8 245.42 652.079 241.117 645.792 237.597C644.123 235.85 641.644 236.528 639.532 236.006C638.437 236.919 638.984 238.77 641.045 241.378C642.166 243.308 643.653 244.351 642.376 245.864C640.992 246.594 641.045 248.68 639.193 247.272C636.402 244.664 632.671 243.073 629.854 239.448C628.602 237.832 626.098 238.875 624.116 241.587C623.777 246.151 626.725 249.932 631.368 253.426C633.428 256.425 629.541 257.338 627.637 257.833C621.846 256.973 620.438 254.965 616.421 247.611C615.247 246.307 613.343 249.176 613.447 251.262C611.439 254.078 608.908 254.052 608.908 256.738C610.422 260.389 611.934 263.884 615.899 265.683C620.581 268.246 626.056 268.953 631.237 267.665C632.88 267.091 635.385 265.057 637.393 264.431C641.879 265.657 640.627 267.691 642.793 273.011C642.454 274.002 643.966 275.619 644.488 275.775C648.419 275.055 651.802 272.578 653.669 269.047C655.678 264.614 649.105 258.225 650.383 257.442C651.268 257.098 652.185 256.845 653.122 256.686C654.713 256.686 657.087 254.078 658.339 256.843C660.196 259.582 662.427 262.048 664.964 264.17C667.573 266.778 674.173 270.82 677.563 268.343C679.645 265.986 680.956 263.044 681.319 259.92C681.319 258.59 679.65 256.66 678.868 254.861C678.398 253.583 675.607 249.645 679.363 249.202C682.728 248.967 684.58 246.594 687.397 248.185C688.831 248.967 691.18 249.723 691.884 248.576C693.631 247.611 693.866 245.238 694.284 244.143C694.701 243.047 696.605 240.596 693.892 239.814C691.779 237.623 689.118 236.71 687.971 233.659C689.562 231.677 690.997 231.886 692.405 234.65C692.77 235.354 695.223 234.937 695.979 235.302C699.735 236.189 700.726 234.311 699.761 231.782C699.109 230.139 694.179 230.791 694.336 228.991C694.336 227.687 698.065 227.322 696.944 226.018C695.822 224.714 696.057 223.645 695.144 223.41C691.049 221.742 686.902 224.636 687.058 225.836C683.73 228.428 680.049 230.535 676.129 232.094C675.164 232.433 674.381 230.504 673.311 230.843C669.659 231.902 666.079 233.191 662.591 234.702C660.999 234.546 661.808 233.138 662.826 232.433C666.973 229.643 675.268 227.896 679.467 223.567C680.44 222.506 680.37 220.856 679.308 219.882C679.066 219.66 678.784 219.486 678.476 219.368C671.12 223.019 665.59 226.67 658.339 230.608C656.617 231.208 655.131 230.608 656.278 229.2C662.461 222.628 663.347 220.803 673.937 218.091C675.842 217.804 675.033 216.109 675.033 215.274C674.146 214.492 673.937 212.953 670.938 212.666C663.452 217.491 655.6 220.255 654.427 222.732C652.73 226.331 651.035 226.07 650.096 225.34C646.549 221.768 639.662 224.845 638.28 221.429C636.819 219.551 642.219 215.665 640.367 213.918C637.758 212.64 635.358 213.918 632.776 214.283C623.506 216.106 614.825 220.18 607.5 226.149M683.458 235.902C683.98 236.867 685.362 238.51 685.884 239.475C685.884 240.309 684.032 241.456 683.537 241.743C682.467 241.352 682.78 240.231 681.893 240.752C680.146 240.022 679.52 241.039 678.763 239.761C678.868 237.503 680.784 235.757 683.044 235.861C683.182 235.868 683.32 235.881 683.458 235.902ZM673.389 241.769C674.146 241.326 675.164 241.587 675.19 242.578C674.199 243.282 674.512 245.473 672.216 244.038C672.085 242.76 672.007 242.578 673.389 241.769ZM669.372 235.224C670.521 235.224 671.981 236.241 671.251 237.467C669.555 237.467 667.077 239.814 665.381 236.841C666.295 235.172 667.782 235.667 669.372 235.224Z" fill="#0962A7"/>
    <path fill-rule="evenodd" clip-rule="evenodd" d="M54.8205 305.374C58.681 307.982 61.3938 308.138 65.0196 311.424C67.7102 313.369 71.3021 313.523 74.1492 311.815C75.4534 311.033 75.323 310.276 76.7576 309.494C78.5314 307.356 67.4454 302.27 70.419 289.388C70.419 286.154 67.5758 285.789 65.8021 283.625C62.4372 282.477 61.9155 283.625 61.8633 285.111C61.8633 290.118 59.8287 294.212 61.8633 299.167C61.159 300.601 58.8637 297.446 56.6464 296.924C46.8908 294.499 43.239 291.448 42.0913 292.178C40.6475 294.338 39.951 296.911 40.1089 299.506C40.8914 300.94 52.9946 304.174 54.8466 305.374" fill="#0962A7"/>
    <path fill-rule="evenodd" clip-rule="evenodd" d="M58.8636 350.384C58.7332 351.271 60.0896 353.879 61.159 354.114C61.5503 354.114 65.5412 355.678 66.6629 354.296C69.2714 351.036 70.1322 351.323 70.6017 346.186C74.6163 346.697 78.4473 348.173 81.7659 350.489C87.1653 355.704 87.8696 355.444 92.591 362.954C93.243 363.449 94.6777 366.109 95.1994 366.605C96.0871 368.17 97.7841 369.101 99.5816 369.004C102.843 362.511 98.1731 357.608 95.6167 352.34C103.781 354.557 109.441 357.113 117.606 359.355C120.58 359.746 125.848 353.305 125.614 347.907C124.649 344.725 120.814 345.977 116.015 343.917C107.668 340.292 94.4952 334.946 89.1738 332.443C90.2728 330.609 90.493 328.38 89.7738 326.367C86.9567 322.403 87.4523 319.117 77.9314 319.013C80.6763 320.572 82.034 323.78 81.2441 326.836C80.8528 329.626 80.879 330.513 76.0272 329.027C69.4018 327.019 70.8103 325.949 65.776 321.933C65.1124 319.889 64.2837 317.899 63.298 315.987C62.0049 314.42 60.1102 313.474 58.0811 313.38C57.2725 313.64 60.4286 320.447 59.4896 320.577C57.6376 320.838 49.4992 317.969 47.4647 318.96C41.9579 321.524 37.6512 326.108 35.4397 331.765C35.4397 334.216 40.0828 336.98 43.0825 338.441C48.2994 341.048 53.0989 341.414 60.2461 344.439C59.3592 346.734 59.62 347.933 58.7332 350.202" fill="#0962A7"/>
    <path fill-rule="evenodd" clip-rule="evenodd" d="M116.589 309.963C122.98 308.268 129.813 294.525 128.301 288.423C126.892 282.842 123.971 275.801 117.136 274.654C104.929 272.698 109.024 274.237 100.573 274.158C99.2426 274.158 93.5039 276.479 96.1124 277.94C102.504 281.93 98.7208 279.165 107.485 282.164C112.207 283.781 114.162 284.59 116.197 293.221C116.849 295.829 115.285 301.227 112.493 301.045C99.1903 298.802 85.5742 291.996 83.331 292.465C80.6638 293.279 79.0199 295.952 79.4965 298.698C80.5921 303.913 83.5396 305.791 82.8875 309.885C82.5745 311.998 81.505 312.858 82.731 315.544C84.9482 316.561 86.3567 316.379 88.5739 317.37C92.7996 319.247 97.234 321.255 101.407 323.159C106.312 325.35 110.198 329.157 115.963 329.757C116.797 329.235 118.702 329.47 118.702 327.618C118.702 325.767 120.554 324.75 119.797 322.403C116.814 320.961 113.93 319.323 111.163 317.5C107.642 314.423 101.251 314.214 97.0775 309.52C94.7559 306.912 89.4608 306.912 90.426 304.904C90.1912 304.174 90.7128 303.392 90.0086 303.209C92.2779 303.653 100.234 307.173 102.504 307.59C109.624 308.92 111.529 310.798 116.589 309.781" fill="#0962A7"/>
    <path fill-rule="evenodd" clip-rule="evenodd" d="M407.197 70.411C407.197 70.1763 408.579 70.098 408.71 69.8633C414.996 71.3759 420.056 69.3157 424.986 68.064C426.29 69.8373 425.482 73.6186 426.16 75.7048L423.187 75.9134C421.752 77.6346 423.187 79.3557 423.734 80.6336H427.751C429.055 81.3116 429.629 82.7459 431.847 83.2414C431.847 83.6847 431.847 84.1019 431.847 84.4931V84.6496C429.812 84.907 427.751 84.907 425.716 84.6496C425.899 86.0317 426.081 87.2574 426.238 88.7699C427.929 90.1101 430.211 90.4387 432.212 89.6305C432.394 90.0217 432.707 90.0217 432.916 90.465C433.125 90.9083 432.577 91.795 432.629 91.9254C428.909 93.6731 424.997 94.9689 420.969 95.7849C420.552 95.2373 420.422 94.1941 419.978 93.6726C419.118 94.1159 416.561 96.7237 417.552 97.2453C417.552 98.0276 416.952 98.5753 416.874 99.3576C415.309 99.5401 415.779 100.505 414.866 101.783L412.257 104.547C410.614 106.913 409.789 109.752 409.909 112.631C411.579 114.561 413.535 116.96 416.717 116.386C418.479 113.063 419.543 109.416 419.848 105.668C419.848 104.364 419.092 103.504 419.17 101.965C423.474 101.965 426.5 99.3576 430.517 99.0707C429.786 101.887 428.716 108.015 427.412 109.084C426.656 108.589 425.925 108.067 425.169 107.598L424.908 107.989C424.749 108.328 424.749 108.72 424.908 109.058C425.117 110.075 425.351 111.092 425.534 112.109C425.534 114.248 423.813 117.325 424.569 119.098C425.325 120.872 431.377 122.123 432.733 120.976C434.716 119.281 439.646 111.927 440.063 108.198C440.885 104.664 441.912 101.181 443.141 97.7668C446.522 97.3193 449.641 95.7051 451.958 93.2032C453.966 91.2734 449.923 90.5954 448.097 89.813C446.271 89.0307 445.306 90.3607 444.55 90.5432C443.89 89.3929 443.423 88.142 443.168 86.8401C444.993 85.3798 448.384 85.6145 449.792 82.5112C450.236 81.5202 449.479 81.2855 449.297 80.6596C446.434 79.8903 443.387 80.2354 440.767 81.6245C440.35 80.8683 439.933 80.0859 439.49 79.3557C440.533 78.5995 441.393 79.0689 442.829 78.9124L450.654 76.6958C451.723 76.2525 452.975 74.6878 453.888 74.7399C453.88 73.678 453.327 72.6944 452.427 72.1321L450.079 72.3408C452.023 70.6496 453.692 68.6708 455.036 66.4732L468.782 68.064L472.173 69.9416C474.414 70.5317 476.803 70.0503 478.643 68.6377C477.99 62.0921 470.426 61.8052 464.113 61.9878C462.026 61.9878 457.696 61.9878 456.496 59.9537C456.413 59.8822 456.332 59.8037 456.262 59.719C458.558 59.8494 466.852 58.2065 467.035 54.6859C466.865 53.3896 466.438 52.1399 465.782 51.0089C465.235 49.2659 463.839 47.92 462.078 47.4362C461.275 49.0038 461.045 50.8021 461.426 52.5215C460.041 53.479 458.508 54.2014 456.888 54.6598C457.276 52.6255 458.017 50.6751 459.079 48.8966C459.598 47.7051 459.708 46.3756 459.392 45.1153C459.392 39.8997 459.653 38.4654 456.079 35.5186C454.775 35.9963 453.645 36.8606 452.845 37.996C452.745 39.442 453.024 40.8886 453.653 42.1946C452.61 42.3771 452.714 45.3239 451.958 46.68C450.34 49.4703 448.488 59.5364 448.306 59.4582C447.054 60.6056 444.602 59.4582 443.089 59.6668C441.811 57.6067 444.341 53.8775 445.176 51.8434C446.151 49.2638 446.151 46.4171 445.176 43.8375C443.846 40.7863 438.681 40.3952 437.507 43.0551C436.101 45.2921 435.402 47.8999 435.499 50.5395C433.229 51.0872 431.899 47.3841 431.638 48.1925C430.48 50.635 429.535 53.1742 428.821 55.7812C428.821 56.5114 429.394 56.9026 429.968 57.4241C431.273 57.2677 433.333 58.05 434.873 58.05C435.16 59.2543 434.722 60.5157 433.75 61.2837C431.325 61.4401 420.526 63.5003 417.917 63.8915C413.822 64.413 409.44 63.8915 405.475 64.4913C402.867 64.9085 398.746 65.7952 395.798 63.735C394.833 64.5695 394.65 65.9516 394.024 67.3338C394.442 68.3247 394.833 69.2896 395.276 70.2806C399.111 71.2976 405.292 72.8884 407.197 70.5935M436.385 67.5163C438.002 67.1773 439.411 65.4822 441.263 65.1954C442.15 64.7781 443.872 65.9777 445.697 65.1954C445.854 65.3518 446.95 65.1954 447.08 65.5083C446.637 66.0559 439.464 72.6798 436.385 73.097C435.603 73.2274 435.29 72.758 434.873 72.2886C434.246 72.8362 433.907 72.7319 432.942 72.7319C431.685 71.216 430.793 69.4318 430.334 67.5163C432.108 66.2646 434.037 67.8032 436.385 67.3338" fill="#0962A7"/>
    <path fill-rule="evenodd" clip-rule="evenodd" d="M451.488 115.813C452.704 116.895 454.344 117.365 455.949 117.09C457.253 117.508 458.558 110.258 459.366 108.093C458.165 105.147 456.444 104.938 453.418 102.878L450.001 99.2531C447.81 98.3404 446.062 100.035 444.498 99.2531C443.663 100.766 447.732 104.469 448.332 106.19C449.923 110.91 446.349 112.448 451.488 115.865" fill="#0962A7"/>
    <path fill-rule="evenodd" clip-rule="evenodd" d="M488.372 108.954C481.981 113.153 475.93 110.832 469.617 113.518C466.382 117.69 468.574 120.898 471.965 122.28C473.973 122.984 476.269 121.367 477.964 120.637C479.66 119.907 480.755 120.115 483.39 119.02C484.902 119.02 484.929 121.341 483.39 124.236C482.502 126.061 479.555 128.33 479.451 129.451C478.867 132.078 479.151 134.823 480.26 137.275C480.938 137.979 481.224 139.465 481.902 140.169C482.581 140.169 484.85 141.604 486.05 138.996C492.363 129.895 493.693 119.802 500.892 110.467C502.535 108.38 503.006 106.503 505.092 105.512C508.22 104.261 511.259 102.806 514.195 101.157C514.748 102.938 515.158 104.76 515.422 106.607C515.787 108.615 517.717 107.468 519.726 107.598C521.316 106.112 523.091 107.781 521.629 110.884C516.152 111.64 514.508 115.265 515.526 118.707C516.23 120.481 517.247 122.228 519.178 122.489C520.404 122.671 521.968 120.924 523.456 119.881C525.594 119.881 525.125 120.037 525.829 120.663C526.533 121.289 525.125 122.176 524.525 123.062C521.655 122.775 518.238 125.67 517.795 125.487C512.839 123.01 513.752 118.472 505.274 118.003C502.98 117.638 501.492 121.784 501.492 121.784C502.014 122.671 501.649 124.705 502.248 125.54C503.423 127.13 507.961 127.026 509.109 128.643C508.248 130.312 500.449 133.05 498.675 132.085C498.075 131.564 497.032 131.042 496.302 130.364L496.041 132.424C496.745 133.363 496.719 135.032 497.162 136.336C498.492 139.935 501.805 142.647 510.204 139.596C512.813 138.579 512.135 144.603 514.822 147.993C519.256 153.86 539.472 156.468 542.601 150.288C543.124 149.245 540.489 147.21 539.341 146.871C532.976 145.098 528.359 139.283 524.655 133.832C529.298 127.522 534.881 127.991 535.429 119.177C536.159 113.778 529.637 116.804 527.186 115.135C527.055 112.031 531.725 110.206 533.576 108.093C538.143 106.744 543.071 107.438 547.088 109.997C548.236 111.223 553.948 106.633 554.026 104.99C554.548 98.6008 546.984 98.9138 548.001 93.3331C549.018 87.7524 552.67 84.4926 554.678 80.6331C555.592 78.7555 556.948 77.1647 555.748 74.4526C551.836 72.4967 539.524 87.4916 533.002 101.026C528.672 101.47 518.969 101.756 517.534 100.4C517.534 100.009 516.778 99.8526 515.969 99.8004C516.491 98.8095 511.196 98.653 511.431 97.1926C511.759 96.2875 512.169 95.4146 512.656 94.5848C513.402 92.77 514.911 91.3767 516.778 90.7774C518.056 90.3602 520.873 90.308 521.681 89.2388C522.542 89.2388 523.717 85.614 523.56 84.3622C523.56 83.5277 520.117 82.9279 520.273 82.2238C520.586 79.955 524.056 75.4696 526.194 71.7926C526.585 65.899 525.672 64.7776 519.647 60.9181C517.039 60.553 515.917 64.5169 514.43 66.8378C511.04 72.5489 507.649 82.4846 503.11 87.7002C502.248 88.3261 499.015 85.7704 497.449 85.9008C494.841 86.1095 494.841 86.0573 494.136 87.4134C493.719 88.2479 492.258 91.3511 492.936 92.3682C493.849 94.1676 497.579 94.1676 498.44 95.967C498.936 96.9579 495.832 102.852 494.214 104.469C492.535 106.319 490.539 107.856 488.32 109.006M542.079 95.7062C542.445 95.8626 544.349 93.8286 544.688 94.0111C543.124 96.6189 545.914 99.2267 544.688 101.626C542.7 101.597 540.843 100.63 539.68 99.0181C539.263 97.5056 540.958 96.8015 542.001 95.6019" fill="#0962A7"/>
    <path d="M72.6624 485.703L54.0641 492.51L50.908 483.852L90.0086 469.561L93.1649 478.193L76.0273 484.478L81.2181 498.612L98.3557 492.327L101.485 500.907L62.359 515.172L59.2289 506.644L77.8533 499.864L72.6624 485.703Z" fill="#0962A7"/>
    <path d="M114.372 524.612L84.9222 559.974L80.54 551.681L88.3654 542.188L81.6356 529.384L69.2715 530.349L66.3501 524.794L112.519 521.169L114.372 524.612ZM85.8874 529.045L91.1043 539.007L100.416 527.845L85.8874 529.045Z" fill="#0962A7"/>
    <path d="M124.284 544.248L127.727 549.021L118.545 581.801L140.117 566.415L143.456 571.109L109.024 595.674L106.729 592.415L117.032 556.583L93.7909 573.169L90.3999 568.423L124.284 544.248Z" fill="#0962A7"/>
    <path d="M149.325 609.131L160.15 620.37L148.725 631.506C147.369 631.114 146.116 630.723 144.786 630.254C143.447 629.764 142.147 629.169 140.899 628.481C139.556 627.711 138.274 626.84 137.065 625.873C135.663 624.822 134.33 623.68 133.074 622.457C130.909 620.287 129.143 617.755 127.857 614.972C126.742 612.445 126.13 609.728 126.057 606.966C126.026 604.28 126.551 601.618 127.597 599.143C128.787 596.431 130.518 593.992 132.683 591.971C134.882 589.747 137.496 587.974 140.378 586.756C143 585.647 145.826 585.105 148.673 585.165C151.484 585.241 154.251 585.879 156.811 587.043C159.577 588.289 162.075 590.06 164.167 592.258C165.477 593.586 166.561 595.119 167.376 596.796C168.18 598.454 168.776 600.207 169.149 602.011C169.517 603.725 169.675 605.474 169.618 607.227C169.597 608.831 169.378 610.424 168.966 611.973H163.541C163.919 610.542 164.197 609.086 164.376 607.618C164.517 606.309 164.517 604.989 164.376 603.68C164.29 602.46 164.008 601.263 163.541 600.134C163.081 598.986 162.388 597.948 161.506 597.083C160.231 595.714 158.661 594.652 156.915 593.979C155.195 593.325 153.351 593.059 151.516 593.197C149.468 593.395 147.477 593.979 145.647 594.918C143.453 596.024 141.446 597.466 139.7 599.195C137.932 600.854 136.452 602.791 135.318 604.932C134.395 606.747 133.827 608.721 133.648 610.747C133.507 612.594 133.783 614.448 134.457 616.172C135.119 617.929 136.141 619.528 137.456 620.866C138.222 621.666 139.102 622.352 140.065 622.9C141.017 623.401 142.05 623.727 143.117 623.865L151.099 616.041L146.665 611.452L149.325 609.131Z" fill="#0962A7"/>
    <path d="M209.345 632.314L165.836 645.822L185.269 660.974L182.635 664.312L153.733 641.806L154.933 640.294L196.616 627.359L178.357 613.121L180.731 610.043L209.345 632.314Z" fill="#0962A7"/>
    <path d="M210.101 658.209L200.085 675.317L192.156 670.649L213.154 634.713L221.135 639.381L211.902 655.132L224.892 662.721L234.099 646.97L241.977 651.586L220.953 687.495L213.101 682.905L223.118 665.798L210.101 658.209Z" fill="#0962A7"/>
    <path d="M252.202 702.464C249.509 701.4 247.054 699.812 244.977 697.796C243.012 695.884 241.45 693.595 240.386 691.068C239.313 688.481 238.764 685.706 238.769 682.905C238.78 679.862 239.382 676.853 240.542 674.039C241.597 671.275 243.194 668.748 245.237 666.607C249.066 662.619 254.368 660.384 259.897 660.426C262.79 660.434 265.651 661.01 268.323 662.121C270.171 662.831 271.922 663.769 273.539 664.912C275.032 666.028 276.383 667.324 277.556 668.771C278.686 670.177 279.633 671.718 280.374 673.361C281.104 675.025 281.604 676.777 281.86 678.576C282.095 680.431 282.095 682.306 281.86 684.157C281.599 686.142 281.091 688.087 280.348 689.946C279.57 691.9 278.553 693.746 277.321 695.449C276.187 697.021 274.854 698.44 273.357 699.674C270.493 701.989 267.045 703.471 263.393 703.95C261.556 704.185 259.699 704.185 257.862 703.95C255.928 703.7 254.034 703.202 252.228 702.464M253.558 699.178C255.139 699.848 256.883 700.031 258.567 699.7C260.292 699.335 261.903 698.555 263.262 697.431C264.884 696.109 266.293 694.541 267.436 692.789C268.808 690.718 269.952 688.507 270.853 686.191C271.795 683.956 272.467 681.62 272.861 679.228C273.184 677.215 273.184 675.165 272.861 673.152C272.619 671.452 271.974 669.835 270.984 668.432C269.965 667.073 268.581 666.033 266.993 665.433C265.409 664.742 263.659 664.533 261.958 664.833C260.267 665.167 258.678 665.892 257.315 666.946C255.729 668.205 254.354 669.71 253.245 671.405C251.906 673.426 250.787 675.585 249.906 677.846C248.953 680.138 248.245 682.525 247.794 684.966C247.406 687.013 247.335 689.104 247.586 691.172C247.786 692.93 248.413 694.614 249.411 696.075C250.415 697.483 251.813 698.56 253.428 699.178" fill="#0962A7"/>
    <path d="M294.799 672.813L303.772 674.952L297.615 701.03C297.229 702.527 297.099 704.078 297.224 705.619C297.307 707.009 297.654 708.373 298.242 709.635C298.8 710.843 299.611 711.92 300.615 712.791C301.688 713.68 302.958 714.298 304.319 714.59C305.663 714.942 307.071 714.942 308.414 714.59C309.706 714.283 310.911 713.685 311.936 712.843C312.992 711.962 313.877 710.892 314.545 709.688C315.338 708.373 315.911 706.936 316.24 705.437L322.396 679.359L328.03 680.689L321.849 706.767C321.391 708.788 320.599 710.72 319.501 712.478C318.434 714.152 317.02 715.573 315.353 716.65C313.511 717.777 311.446 718.489 309.301 718.737C306.628 719.031 303.923 718.836 301.319 718.163C298.897 717.62 296.596 716.63 294.538 715.242C292.787 714.048 291.303 712.504 290.182 710.705C289.127 708.981 288.452 707.051 288.199 705.046C287.946 702.954 288.069 700.834 288.564 698.787L294.799 672.813Z" fill="#0962A7"/>
    <path d="M352.471 683.766L365.513 684.444C367.507 684.541 369.478 684.893 371.383 685.487C373.057 686.037 374.628 686.867 376.026 687.938C377.301 688.976 378.327 690.286 379.026 691.772C379.759 693.407 380.064 695.201 379.912 696.987C379.868 698.774 379.386 700.518 378.504 702.073C377.697 703.455 376.602 704.647 375.296 705.567C373.957 706.477 372.462 707.132 370.887 707.497C369.262 707.919 367.582 708.086 365.904 707.992L360.479 707.706L359.54 725.96L350.333 725.491L352.471 683.766ZM360.688 703.898L363.714 704.081C364.653 704.141 365.594 703.971 366.453 703.585C367.228 703.191 367.919 702.652 368.487 701.995C369.048 701.249 369.473 700.412 369.739 699.517C370.06 698.576 370.246 697.59 370.288 696.596C370.368 695.465 370.255 694.325 369.948 693.232C369.718 692.291 369.301 691.404 368.722 690.624C368.216 689.913 367.533 689.347 366.74 688.982C365.925 688.58 365.036 688.358 364.131 688.33L361.392 688.173L360.688 703.898Z" fill="#0962A7"/>
    <path d="M411.266 726.143C408.381 726.414 405.472 726.104 402.711 725.23C400.081 724.409 397.642 723.068 395.537 721.292C393.387 719.462 391.617 717.229 390.319 714.721C388.953 712.011 388.129 709.062 387.894 706.037C387.61 703.077 387.91 700.091 388.781 697.248C390.45 691.949 394.222 687.566 399.215 685.122C401.807 683.836 404.625 683.057 407.51 682.827C409.44 682.652 411.386 682.712 413.3 683.01C415.101 683.33 416.853 683.873 418.517 684.627C420.169 685.365 421.712 686.322 423.109 687.469C424.512 688.614 425.748 689.949 426.787 691.433C427.871 692.972 428.748 694.646 429.394 696.414C430.065 698.299 430.484 700.263 430.647 702.255C430.83 704.342 430.759 706.443 430.438 708.514C430.132 710.428 429.58 712.295 428.795 714.069C428.057 715.761 427.071 717.334 425.873 718.737C424.715 720.14 423.362 721.368 421.856 722.388C420.341 723.478 418.682 724.356 416.926 724.995C415.093 725.658 413.18 726.078 411.24 726.247M410.901 722.701C412.617 722.578 414.257 721.952 415.622 720.901C416.991 719.79 418.071 718.369 418.779 716.755C419.631 714.833 420.184 712.793 420.422 710.705C420.685 708.243 420.685 705.76 420.422 703.298C420.229 700.876 419.775 698.479 419.065 696.153C418.488 694.21 417.607 692.372 416.457 690.703C415.463 689.295 414.148 688.142 412.622 687.339C411.097 686.585 409.385 686.277 407.692 686.452C405.986 686.582 404.351 687.187 402.971 688.199C401.614 689.253 400.524 690.609 399.789 692.163C398.923 694.007 398.369 695.981 398.145 698.005C397.895 700.414 397.895 702.845 398.145 705.254C398.354 707.726 398.808 710.173 399.502 712.556C400.081 714.564 400.96 716.47 402.11 718.215C403.102 719.675 404.424 720.883 405.97 721.736C407.479 722.549 409.197 722.886 410.901 722.701Z" fill="#0962A7"/>
    <path d="M435.812 680.141L444.784 678.133L453.053 714.59L471.678 710.34L472.643 714.486L445.019 720.771L435.812 680.141Z" fill="#0962A7"/>
    <path d="M473.817 670.518L491.763 684.001L496.302 662.46L502.119 660.348L496.38 687.547L502.432 704.472L493.772 707.575L487.902 691.224L464.739 673.752L473.817 670.518Z" fill="#0962A7"/>
    <path d="M535.142 643.528L536.706 646.683L525.177 652.551L542.497 686.504L534.332 690.651L516.986 656.723L505.431 662.643L503.84 659.487L535.142 643.528Z" fill="#0962A7"/>
    <path d="M563.835 624.308L565.817 627.229L550.271 637.738L557.966 649.108L570.852 640.398L572.86 643.345L559.948 652.107L569.234 665.772L584.754 655.263L587.128 658.783L563.965 674.456L540.619 639.955L563.835 624.308Z" fill="#0962A7"/>
    <path d="M590.206 629.602C591.782 631.446 593.659 633.008 595.762 634.218C597.517 635.198 599.435 635.853 601.422 636.148C603.173 636.377 604.951 636.226 606.64 635.704C608.277 635.159 609.779 634.27 611.048 633.096C611.989 632.257 612.751 631.237 613.291 630.097C613.804 628.945 614.147 627.724 614.309 626.473C614.439 625.111 614.439 623.74 614.309 622.378C614.309 620.996 614.022 619.562 613.786 618.102L618.743 617.867C619.116 619.583 619.324 621.327 619.369 623.082C619.384 624.835 619.21 626.585 618.847 628.298C618.448 630.056 617.806 631.748 616.942 633.331C616.079 634.979 614.911 636.447 613.499 637.66C611.262 639.72 608.65 641.329 605.804 642.406C603.194 643.408 600.41 643.885 597.614 643.814C594.841 643.689 592.126 642.996 589.632 641.78C586.899 640.409 584.459 638.513 582.459 636.2C580.44 633.986 578.854 631.412 577.789 628.611C576.851 626.068 576.418 623.367 576.511 620.657C576.671 617.932 577.39 615.269 578.625 612.834C579.997 610.145 581.865 607.738 584.128 605.74C585.615 604.39 587.306 603.281 589.136 602.455C590.788 601.68 592.546 601.161 594.354 600.916C596.085 600.689 597.838 600.689 599.57 600.916C601.349 601.193 603.097 601.646 604.787 602.272L603.9 607.123C602.505 606.718 601.086 606.403 599.649 606.184C598.277 605.978 596.886 605.926 595.501 606.027C594.213 606.095 592.939 606.34 591.719 606.758C590.532 607.162 589.434 607.79 588.484 608.609C587.238 609.741 586.252 611.128 585.589 612.677C584.864 614.315 584.543 616.104 584.65 617.893C584.733 619.888 585.184 621.852 585.981 623.682C586.995 625.888 588.349 627.922 589.998 629.706" fill="#0962A7"/>
    <path d="M625.838 596.092L640.992 608.818L635.098 615.885L603.17 589.129L609.065 582.062L623.073 593.823L632.776 582.27L618.769 570.535L624.611 563.572L656.513 590.328L650.67 597.265L635.515 584.539L625.838 596.092Z" fill="#0962A7"/>
    <path d="M629.854 556.323L633.011 551.316L666.791 547.274L644.331 533.218L647.357 528.341L683.224 550.768L681.11 554.132L644.018 558.305L668.251 573.456L665.147 578.385L629.854 556.323Z" fill="#0962A7"/>
    <path d="M651.564 519.54L655.619 511.304L692.969 529.686L688.914 537.922L651.564 519.54Z" fill="#0962A7"/>
    <path d="M682.624 501.793C684.888 502.675 687.29 503.16 689.719 503.228C691.725 503.285 693.726 502.967 695.614 502.289C698.927 501.066 701.537 498.455 702.761 495.144C703.184 493.957 703.371 492.7 703.309 491.44C703.228 490.181 702.954 488.942 702.5 487.763C702.013 486.499 701.401 485.283 700.674 484.139C699.918 482.965 699.109 481.766 698.066 480.592L702.292 477.984C703.437 479.299 704.451 480.722 705.317 482.235C706.191 483.8 706.875 485.463 707.352 487.19C707.832 488.887 708.079 490.642 708.082 492.405C708.061 494.26 707.717 496.095 707.065 497.83C706.019 500.688 704.474 503.337 702.5 505.653C700.674 507.755 698.45 509.476 695.953 510.712C693.436 511.927 690.689 512.595 687.893 512.668C684.848 512.759 681.816 512.246 678.972 511.155C676.147 510.149 673.535 508.618 671.277 506.644C667.103 502.943 664.633 497.691 664.443 492.119C664.406 489.101 664.928 486.105 665.982 483.278C666.66 481.406 667.62 479.648 668.825 478.062C669.924 476.623 671.225 475.35 672.685 474.281C674.139 473.251 675.727 472.424 677.406 471.83C679.097 471.225 680.844 470.797 682.624 470.552L684.084 475.246C682.671 475.559 681.275 475.958 679.911 476.446C678.599 476.899 677.338 477.494 676.155 478.219C675.059 478.889 674.058 479.705 673.181 480.644C672.333 481.573 671.671 482.652 671.225 483.826C670.648 485.411 670.416 487.099 670.547 488.781C670.682 490.53 671.22 492.225 672.111 493.735C673.129 495.451 674.467 496.956 676.05 498.169C677.965 499.668 680.117 500.842 682.415 501.637" fill="#0962A7"/>
    </svg>
    