<svg width="884" height="889" viewBox="0 0 884 889" fill="none" xmlns="http://www.w3.org/2000/svg">
    <path d="M442.077 164.871C596.394 165.175 721.42 290.187 721.724 444.49C721.724 598.505 596.107 724.109 442.077 724.109V713.903C590.472 713.903 711.497 592.87 711.497 444.49C711.204 295.83 590.752 175.39 442.077 175.097V164.871ZM442.077 164.871V175.097C293.662 175.097 172.637 296.11 172.637 444.49C172.919 593.166 293.386 713.621 442.077 713.903V724.109C287.744 723.837 162.701 598.807 162.43 444.49C162.43 290.495 288.046 164.871 442.077 164.871Z" fill="#004098"/>
    <path d="M442.076 1.98137e-05C687.591 1.63444 885.297 201.969 883.661 447.459C882.041 690.642 685.284 887.38 442.076 889V878.735C681.949 878.735 876.404 684.3 876.404 444.451C876.404 204.601 681.949 10.1665 442.076 10.1665V1.98137e-05ZM442.076 889C196.562 887.365 -1.14307 687.031 0.491508 441.541C2.11073 198.358 198.869 1.61907 442.076 1.98137e-05V10.2059C202.203 10.2059 7.74861 204.641 7.74861 444.49C7.74861 684.339 202.203 878.774 442.076 878.774V889Z" fill="#004098"/>
    <path d="M442.077 22.5986C675.11 24.1909 862.729 214.374 861.137 447.382C859.558 678.145 672.86 864.825 442.077 866.401V862.973C673.233 862.973 860.62 675.603 860.62 444.47C860.62 213.338 673.233 25.9677 442.077 25.9677V22.5986ZM442.077 22.5986V25.9874C210.92 25.9874 23.5321 213.357 23.5321 444.49C23.5321 675.623 210.92 862.993 442.077 862.993V866.401C209.044 864.809 21.424 674.626 23.0164 441.617C24.5936 210.855 211.292 24.1755 442.077 22.5986Z" fill="#004098"/>
    <path fill-rule="evenodd" clip-rule="evenodd" d="M396.894 612.218C411.77 625.222 433.248 640.905 478.569 654.244C478.569 654.244 461.406 666.065 406.766 630.147C406.766 630.147 402.824 628.847 396.914 627.468V612.218H396.894ZM396.894 252.764V240.943C403.342 240.001 409.924 240.677 416.047 242.913C412.105 247.839 404.815 251.109 396.894 252.922V252.764ZM396.894 234.126V233.318C399.258 231.348 407.771 226.284 426.786 231.072C416.717 236.313 406.963 235.978 396.894 234.126ZM396.894 221.023V219.368L397.623 219.093C397.386 219.743 397.15 220.393 396.894 221.023ZM385.584 602.052C389.091 605.165 392.736 608.573 396.894 612.218V627.468C393.642 626.7 389.76 625.911 385.584 625.301V602.052ZM396.894 219.368V221.023C394.518 227.045 390.62 232.347 385.584 236.411V225.023C389.108 222.684 392.907 220.787 396.894 219.368ZM396.894 233.318C396.626 233.513 396.382 233.738 396.165 233.988L396.894 234.126V233.318ZM396.894 240.844V252.666C393.173 253.503 389.39 254.031 385.584 254.242V243.721C389.23 242.308 393.023 241.311 396.894 240.746V240.844ZM385.584 266.733V259.286C388.576 259.434 391.549 259.849 394.469 260.527C391.863 263.063 388.862 265.159 385.584 266.733ZM363.06 608.376C359.193 605.389 355.67 601.979 352.558 598.21V575.611C360.736 582.034 371.534 590.565 380.716 597.934C382.351 599.234 383.947 600.613 385.584 602.052V625.301C377.288 623.935 368.838 623.782 360.499 624.848C358.017 625.222 355.357 625.478 352.617 625.616V609.322C364.44 608.416 363.12 608.376 363.12 608.376H363.06ZM385.584 225.023V236.431C382.081 239.246 377.952 241.173 373.543 242.046C373.543 242.046 373.957 232.963 385.584 225.043V225.023ZM385.584 243.819V254.341C380.302 254.845 374.977 254.248 369.938 252.587C374.695 248.912 379.965 245.959 385.584 243.819ZM385.584 259.286V266.733C375.138 271.598 363.994 274.796 352.558 276.21V266.891C362.728 261.556 374.103 258.935 385.584 259.286ZM352.558 290.337V281.983C354.758 281.652 356.976 281.461 359.199 281.412C357.532 284.757 355.284 287.78 352.558 290.337ZM352.558 258.439V242.677C356.86 238.738 361.961 235.775 367.514 233.988C366.096 242.696 359.672 251.819 352.558 258.439ZM352.558 598.21C346.214 590.664 339.455 579.335 339.928 565.72C339.928 565.72 345.189 569.818 352.558 575.571V598.17V598.21ZM352.558 625.616C339.441 626.191 326.34 624.182 313.996 619.705V609.007C323.622 610.283 333.346 610.646 343.041 610.09L352.558 609.381V625.675V625.616ZM352.558 242.618V258.38C348.34 262.616 343.222 265.849 337.583 267.837C340.137 258.187 345.321 249.435 352.558 242.558V242.618ZM352.558 266.891C347.095 269.588 341.951 272.894 337.228 276.742C342.337 277.245 347.492 277.079 352.558 276.25V266.931V266.891ZM352.558 281.983V290.337C342.568 300.09 325.8 307.419 313.996 311.261V302.691C322.528 294.534 335.987 284.486 352.558 281.983ZM313.996 598.288V589.836C320.138 592.963 325.96 596.685 331.376 600.948C331.376 600.948 332.065 600.18 321.523 598.978C319.1 598.702 316.637 598.485 314.055 598.249L313.996 598.288ZM313.996 574.764C320.846 585.133 329.843 593.909 340.381 600.495C333.976 588.398 331.041 559.77 314.016 536.087V574.764H313.996ZM313.996 331.535V314.906C317.882 313.265 321.994 312.223 326.194 311.813C323.387 319.081 319.252 325.762 313.996 331.516V331.535ZM313.996 291.795C323.73 281.156 334.272 266.28 335.889 253.198C327.232 258.596 319.78 265.719 313.996 274.122V291.795ZM313.996 619.646C306.273 616.612 300.065 612.415 297.11 607.017V606.15C298.903 606.544 305.406 607.884 313.996 608.948V619.646ZM313.996 274.122V291.854C310.073 296.246 305.774 300.287 301.149 303.932C303.358 293.243 307.729 283.118 313.996 274.181V274.122ZM313.996 302.691C310.333 306.156 306.972 309.925 303.947 313.961C307.352 313.279 310.708 312.376 313.996 311.261V302.691ZM313.996 314.906V331.535C308.868 337.349 303.216 342.677 297.11 347.455V325.782C302.118 321.284 307.821 317.625 313.996 314.946V314.906ZM313.996 536.087V574.764C304.138 560.016 300.55 541.955 304.026 524.561C307.699 528.086 311.037 531.946 313.996 536.087ZM313.996 589.836V598.288C308.992 597.855 303.553 597.422 297.11 596.673V584.103C302.804 586.073 307.061 587.688 309.859 588.358C311.285 588.705 312.672 589.202 313.996 589.836ZM297.031 567.001V558.253C297.268 561.563 297.366 564.656 297.524 567.434L297.031 567.001ZM297.031 607.017C296.854 606.701 296.677 606.367 296.519 606.032L297.031 606.15V607.017ZM297.031 325.743V347.416C290.735 352.452 283.972 356.871 276.834 360.616V349.327C282.516 340.606 289.305 332.658 297.031 325.684V325.743ZM297.031 558.233V566.981C288.631 559.208 281.777 549.915 276.834 539.594V521.468C293.188 532.383 296.145 546.569 297.031 558.233ZM297.031 584.083V596.653C292.302 596.101 287.002 595.412 280.952 594.427C279.533 594.19 278.154 593.895 276.834 593.54V578.862C283.683 580.125 290.432 581.876 297.031 584.103V584.083ZM276.834 568.951C281.602 571.237 284.716 572.498 284.716 572.498C282.036 567.907 279.435 563.651 276.834 559.73V568.951ZM276.834 336.559C284.439 323.221 292.361 299.519 293.582 290.928C285.701 293.076 280.341 298.652 276.834 305.469V336.559ZM276.834 305.469V336.559C275.199 339.82 272.934 342.726 270.174 345.11C270.174 345.11 268.42 321.783 276.834 305.469ZM276.834 349.307V360.636C274.11 362.127 271.202 363.254 268.184 363.985C270.757 358.916 273.645 354.014 276.834 349.307ZM276.834 521.468V539.594C273.3 532.409 270.654 524.82 268.952 516.996C271.675 518.31 274.309 519.803 276.834 521.468ZM276.834 559.73C262.626 538.255 249.109 527.123 227.986 527.399C233.582 546.234 262.607 562.154 276.834 568.951V559.75V559.73ZM276.834 578.842V593.54C266.954 590.667 258.187 584.845 251.71 576.852C260.156 576.7 268.597 577.372 276.913 578.862L276.834 578.842Z" fill="#004098"/>
    <path fill-rule="evenodd" clip-rule="evenodd" d="M833.093 356.735V351.415C833.919 351.37 834.747 351.429 835.557 351.592C835.557 351.592 836.226 351.277 836.542 349.8C836.857 348.322 835.064 348.795 833.093 348.755V345.485C834.067 345.605 835.05 345.644 836.029 345.603C836.029 345.603 837.231 345.327 839.674 344.578C842.118 343.83 843.458 346.844 844.128 347.77C844.798 348.696 842.157 350.391 842.157 350.391C841.546 351.21 840.839 351.951 840.049 352.597C837.935 354.262 835.618 355.653 833.152 356.735H833.093ZM833.093 339.574V334.156C833.687 334.024 834.254 333.791 834.768 333.466C836.27 332.676 837.876 332.099 839.536 331.752L841.861 335.22L838.906 337.604C836.906 338.057 834.958 338.717 833.093 339.574ZM833.093 334.156V339.574L831.832 340.244C828.443 342.214 827.891 342.904 829.763 344.362C830.758 345.018 831.905 345.404 833.093 345.485V348.736H832.482C831.168 348.708 829.997 349.563 829.625 350.824C829.901 352.794 830.374 353.149 831.438 352.046C831.893 351.642 832.484 351.423 833.093 351.435V356.755C831.294 357.637 829.446 358.414 827.556 359.079C822.768 360.794 822.807 363.69 822.807 363.69C826.748 369.167 828.601 380.417 825.153 383.944C824.171 385.099 822.9 385.97 821.467 386.466V373.462C821.788 372.976 821.997 372.424 822.078 371.847L821.467 370.369V354.607C822.537 354.404 823.239 353.374 823.036 352.304C823.032 352.284 823.028 352.262 823.024 352.243C822.768 351.474 822.117 351.514 821.467 351.809V344.145C823.053 344.011 824.301 342.738 824.404 341.15C824.699 338.707 827.615 337.308 829.645 335.653C830.654 334.869 831.836 334.341 833.093 334.116V334.156ZM821.467 337.407C822.649 336.579 824.443 335.22 824.128 334.826C823.813 334.432 823.497 333.663 821.467 333.88V337.407ZM821.467 333.88V337.407L820.462 338.077L817.231 340.5L810.59 345.406C810.59 345.406 807.536 346.923 807.733 348.479C807.931 350.036 808.935 350.45 810.728 349.681C813.01 348.259 815.137 346.6 817.074 344.736C817.074 344.736 820.423 344.224 821.349 344.204H821.546V351.868C820.937 352.154 820.374 352.526 819.871 352.972C820.265 354.233 820.916 354.686 821.546 354.666V370.428C819.576 365.739 814.887 356.104 811.3 356.853C807.359 357.72 803.931 354.095 803.931 354.095C802.255 353.405 801.211 352.952 800.541 352.637V335.653C802.255 334.097 803.181 334.234 804.483 332.895C805.753 331.691 807.154 330.635 808.66 329.742L813.487 326.531C815.064 325.506 814.946 325.349 816.305 327.181C817.665 329.013 812.777 332.225 812.777 332.225C812.265 334.097 806.748 338.865 804.896 340.658C803.044 342.45 802.708 342.628 802.925 343.416C803.142 344.204 804.502 343.416 804.502 343.416C806.451 342.269 808.321 340.992 810.098 339.594C812.102 338.22 814.309 337.17 816.64 336.481C818.008 335.334 819.617 334.512 821.349 334.077L821.467 333.88ZM821.467 373.443C820.896 374.172 819.871 374.487 818.039 372.655C814.552 369.187 808.187 369.857 809.94 372.655C811.028 374.382 812.87 375.494 814.906 375.649C814.906 375.649 814.63 379.058 816.995 380.063C819.359 381.068 819.162 380.752 819.162 380.752C818.567 381.99 818.524 383.422 819.044 384.693L820.009 386.348C820.478 386.535 820.998 386.535 821.467 386.348V373.344V373.443ZM800.462 384.003V381.816C800.513 381.944 800.573 382.07 800.64 382.191C800.837 382.793 800.772 383.45 800.462 384.003ZM800.462 370.704C800.941 370.844 801.41 371.023 801.861 371.236C802.779 370.493 803.959 370.146 805.133 370.271C807.477 370.271 811.556 368.084 811.713 365.365C811.871 362.646 807.064 360.912 806.61 360.301C806.157 359.69 806 358.843 801.94 356.794C801.467 356.558 800.975 356.321 800.462 356.104V362.527C801.44 362.872 802.45 363.117 803.478 363.256C802.608 363.905 801.546 364.245 800.462 364.222V370.704ZM549.131 98.0006C548.158 98.7665 547.306 99.6767 546.609 100.7V119.693C547.106 118.418 547.482 117.098 547.732 115.753L550.274 103.675C550.274 103.675 551.456 102.513 552.067 104.581C552.512 106.644 552.471 108.782 551.948 110.827C551.613 112.797 549.722 116.738 550.55 118.708C551.377 120.678 551.239 121.388 554.136 120.521C554.136 120.521 557.486 114.846 556.658 113.92C555.831 112.994 554.688 111.812 554.688 111.812C554.688 111.812 561.072 105.192 563.042 104.581C563.042 104.581 565.979 102.375 562.51 99.7936C561.251 98.678 559.828 97.761 558.294 97.0746C558.294 97.0746 554.117 99.6753 552.559 99.5965C551.003 99.5177 551.554 96.4835 549.131 98.0006ZM546.609 145.661V133.623C548.954 134.844 551.613 136.027 551.613 136.027C554.601 135.931 557.592 136.069 560.559 136.44C565.131 137.051 565.506 134.963 565.506 134.963C566.038 131.928 568.126 126.825 570.156 125.111C572.185 123.397 572.953 119.358 573.288 117.447C573.624 115.536 574.964 114.61 576.028 115.201C577.092 115.792 574.688 122.786 574.688 123.969C574.696 126.307 574.219 128.621 573.288 130.766C572.285 132.856 571.493 135.041 570.924 137.288C568.954 146.764 566.373 147.474 566.373 147.474C566.373 147.474 565.013 147.474 557.604 147.277C550.195 147.08 548.185 146.213 548.185 146.213C547.614 146.036 547.062 145.858 546.55 145.661H546.609ZM800.462 335.574V352.558C798.492 351.691 799.674 351.908 798.748 350.863C797.467 349.465 786.335 346.352 784.66 346.253C781.008 346.718 777.385 347.374 773.803 348.223C772.367 349.427 770.838 350.513 769.231 351.474C767.749 352.105 766.033 351.768 764.896 350.627C763.832 349.524 766.137 345.721 766.137 345.721C765.347 344.172 764.89 342.474 764.798 340.736C764.938 339.276 765.424 337.872 766.216 336.638C767.162 335.397 770.433 335.417 770.433 335.417L774.216 333.289C774.216 333.289 774.906 332.974 777.98 331.437C780.281 330.507 782.73 330 785.211 329.939C786.827 329.604 788.758 331.91 788.758 331.91L790.354 330.59C791.792 330.924 789.664 334.097 789.664 334.097L788.147 337.052C788.147 337.052 792.088 339.909 793.291 340.894C794.492 341.879 797.408 340.48 797.408 340.48C797.942 338.577 799 336.865 800.462 335.535V335.574ZM800.462 356.104C797.438 354.845 794.339 353.774 791.181 352.893C791.181 352.893 789.507 350.607 788.482 353.366C788.023 355.224 788.577 357.186 789.94 358.528C789.94 358.528 787.201 361.7 787.753 363.729C787.753 363.729 786.65 365.089 784.916 363.355C783.181 361.621 781.368 359.178 777.625 358.823C777.625 358.823 774.276 352.913 771.536 354.016C771.536 354.016 767.595 355.71 771.772 360.636C773.868 363.292 776.305 365.658 779.024 367.67L781.763 371.197C781.763 371.197 772.6 376.733 759.398 370.192C759.398 370.192 754.354 369.66 759.241 374.684C759.241 374.684 757.27 379.235 761.033 380.279C762.937 380.912 764.943 381.18 766.945 381.068C770.438 382.155 774.029 382.908 777.664 383.314C779.497 383.314 785.546 378.861 785.546 378.861C786.756 380.352 787.745 382.011 788.482 383.786C789.684 386.663 791.221 390.052 794.906 389.027C797.341 388.172 799.322 386.356 800.383 384.003V381.816C799.576 379.846 797.94 374.093 794.059 371.453C795.954 370.284 798.267 370.01 800.383 370.704V364.301C800.045 364.291 799.708 364.245 799.379 364.163C798.118 363.889 797.269 362.707 797.408 361.424C799.714 360.754 799.497 361.424 799.792 362.153C799.952 362.364 800.171 362.523 800.423 362.606V356.104H800.462ZM546.609 86.3761V82.7508C546.989 82.591 547.377 82.4529 547.771 82.3371C549.686 81.9016 551.564 81.3153 553.388 80.5835C554.469 78.2188 555.053 75.6569 555.102 73.0572C555.988 71.2686 557.145 69.6271 558.53 68.1906C559.531 67.1245 560.611 66.1366 561.761 65.2352C562.492 64.2225 563.443 63.3875 564.54 62.7921C565.179 62.5667 565.872 62.5667 566.511 62.7921C566.511 62.7921 567.456 60.8219 568.107 62.6739C569.078 64.4495 568.684 66.6617 567.161 67.9936C565.941 69.2016 564.264 69.8322 562.549 69.7274C562.549 69.7274 558.333 73.6679 561.623 73.865C564.915 74.062 569.702 75.8352 567.535 81.746C565.214 81.6095 562.89 81.9377 560.697 82.7114C558.573 83.533 556.367 84.1209 554.117 84.4649C554.117 84.4649 549.131 88.2872 546.707 86.4352L546.609 86.3761ZM546.609 75.5397C547.456 74.7516 548.047 74.1408 548.047 74.1408C548.047 74.1408 547.949 72.1705 546.609 72.3479V75.5397ZM662.688 211.113C661.447 205.971 672.304 197.735 671.811 202.621C667.023 206.365 681.289 209.143 690.274 207.98C695.237 206.871 700.009 205.047 704.443 202.562C706.196 201.518 706.078 200.375 701.821 199.784C698.511 195.647 697.053 184.258 700.186 184.633C702.55 187.569 713.053 196.021 718.748 195.706C727.26 192.455 740.541 185.854 744.029 180.298C745.351 178.951 747.057 178.049 748.915 177.717C760.403 186.643 743.734 189.756 736.265 193.144C735.517 193.696 728.817 196.435 728.58 198.543C735.28 199.41 752.639 204.986 739.477 215.408C736.305 215.054 720.048 202.7 716.443 205.399C715.042 207.303 713.857 209.358 712.915 211.527C709.743 218.305 709.861 225.851 711.339 233.357C712.639 240.076 711.93 245.179 715.122 251.306C716.955 254.853 718.866 259.345 716.383 262.497C710.649 260.941 702.097 251.779 699.161 251.208C690.688 249.494 698.019 215.054 700.777 212.867C697.565 212.512 678.255 223.585 672.954 216.807C667.989 216.255 664.836 212.256 662.688 211.113ZM546.609 100.779C546.398 101.12 546.227 101.483 546.097 101.862C545.585 103.833 545.565 104.916 544.698 105.33C543.831 105.744 542.924 108.739 542.451 111.398C541.978 114.058 541.702 111.28 540.737 114.433C539.968 116.994 536.993 124.737 536.126 129.269V133.209C536.847 139.068 540.957 143.951 546.609 145.661V133.623C544.639 132.638 542.983 131.653 543.061 131.199C543.219 130.254 544.442 123.318 545.781 121.348C546.105 120.835 546.38 120.294 546.609 119.733V100.7V100.779ZM546.609 72.4267V75.6185C545.397 76.828 544.032 77.8746 542.549 78.7315C540.315 80.0567 538.205 81.5799 536.244 83.2828L536.126 83.3813V78.2389C539.003 77.0371 544.422 73.4118 545.978 72.5843C546.174 72.4698 546.386 72.3898 546.609 72.3479V72.4267ZM546.609 82.7902C543.595 84.1694 546.156 86.12 546.609 86.4549V82.7508V82.7902ZM536.126 99.2222V96.917C536.308 97.6481 536.308 98.4122 536.126 99.1434V99.2222ZM536.126 89.3709V86.6913C536.42 87.4186 536.461 88.2232 536.244 88.9768C536.211 89.0838 536.172 89.189 536.126 89.2921V89.3709ZM536.126 129.269C535.933 130.095 535.86 130.944 535.909 131.791C535.909 132.204 536.047 132.717 536.126 133.288V129.347V129.269ZM536.126 78.3177V83.3813C534.946 84.2894 533.421 84.6218 531.968 84.2876C530.471 83.8345 530.746 82.3174 531.16 80.0516C531.383 78.6344 531.081 77.1848 530.313 75.9731C530.313 72.4464 533.269 74.7319 534.018 74.8698C534.767 75.0077 533.032 78.2192 534.53 78.6724C535.086 78.7067 535.638 78.5837 536.126 78.3177ZM536.126 86.6716C535.634 85.9426 534.333 86.2185 531.988 87.44C531.146 87.5699 530.295 87.6095 529.446 87.5583C528.678 87.44 529.446 81.2928 526.55 83.9133L526.412 84.0512V98.2765C526.845 98.1655 527.298 98.1655 527.732 98.2765C529.617 98.5476 530.926 100.295 530.654 102.18C530.61 102.478 530.53 102.768 530.411 103.044C528.762 105.149 527.434 107.486 526.471 109.98V110.197V117.23C527.046 117.018 527.557 116.658 527.949 116.186C530.478 112.318 532.705 108.261 534.609 104.049C535.301 102.472 535.829 100.828 536.185 99.1434V96.917C536.126 96.6934 535.967 96.5107 535.752 96.4244C534.546 95.9311 533.308 95.5163 532.047 95.1832C531.178 96.1868 529.659 96.296 528.656 95.4271C528.293 95.1136 528.033 94.6994 527.909 94.2374C527.909 94.2374 527.771 90.5136 530.707 91.617C530.707 91.617 535.279 91.8928 536.185 89.2921V86.6913L536.126 86.6716ZM526.412 79.5393V73.6285C527.555 72.9389 528.382 72.7222 528.816 73.4315C529.525 74.9092 529.466 76.2687 528.697 76.3278C527.929 76.3869 526.786 78.8103 526.412 79.4605V79.5393ZM526.412 73.6285V79.5393L526.294 79.7757L521.663 85.3122C521.663 85.3122 518.609 85.9426 518.825 84.7999C519.304 81.9099 520.528 79.1943 522.372 76.9189C523.622 75.6583 525.001 74.5352 526.491 73.5694L526.412 73.6285ZM526.412 84.1103C524.974 85.2946 523.918 86.8783 523.377 88.6616C523.377 88.6616 519.436 87.3612 517.801 89.0359C516.165 90.7107 520.677 93.8434 520.677 93.8434L519.377 97.9218L515.121 98.7493C515.121 98.7493 513.486 100.207 514.53 100.976C515.574 101.744 517.21 101.271 517.84 102.138C518.471 103.005 517.978 106.886 517.21 106.749C516.035 106.715 514.946 107.348 514.392 108.384C514.392 108.384 513.584 108.384 512.598 106.414C511.613 104.443 509.525 103.911 507.141 104.069C504.757 104.227 504.776 108.561 504.776 108.561C504.776 108.561 504.146 116.679 505.545 120.836C505.545 120.836 506.077 122.314 509.229 119.91C509.229 119.91 512.677 124.836 507.85 125.545C503.022 126.254 498.549 128.224 496.737 127.515C495.771 128.672 495.494 130.256 496.008 131.672C496.008 131.672 494.53 135.613 497.545 135.081C498.563 134.6 499.617 134.198 500.697 133.879C501.856 133.588 503.065 133.588 504.225 133.879C504.225 133.879 507.712 130.786 508.303 131.909C508.894 133.032 506.077 141.13 511.751 142.312C511.751 142.312 513.524 140.085 514.648 140.341L517.86 134.431L518.175 128.224C518.175 128.224 526.057 124.717 526.057 123.181C526.057 121.644 525.111 119.673 523.87 120.048C522.628 120.422 520.934 121.092 520.934 121.092C520.934 121.092 520.934 117.152 523.752 117.289C524.568 117.661 525.49 117.731 526.353 117.486V110.078C525.821 112.305 525.919 115.221 522.411 113.664C521.505 113.27 522.411 110.334 523.969 108.069C525.228 106.65 525.507 104.612 524.678 102.907C524.166 102.138 524.225 98.8084 526.353 98.1976V83.9724L526.412 84.1103ZM362.174 148.439V111.004C363.613 115.831 371.14 141.386 371.08 147.159C370.887 149.188 369.177 150.734 367.14 150.725C365.252 150.735 363.454 149.922 362.213 148.498L362.174 148.439ZM362.174 110.137V103.773H362.489C365.071 103.379 368.913 98.769 368.913 98.769C367.573 97.5081 367.101 91.4988 367.101 91.4988C368.716 90.9865 369.071 86.0017 369.071 86.0017C369.071 86.0017 368.598 85.3122 365.544 85.6471C364.118 85.9551 362.893 86.8683 362.194 88.1493V84.1497C363.714 83.4022 365.371 82.9796 367.061 82.9084C367.061 82.9084 367.731 78.2586 371.455 79.8348C374.571 80.8698 376.675 83.7826 376.677 87.0657C376.677 87.0657 374.076 87.4597 374.273 88.6813C374.47 89.9029 376.5 97.0746 376.5 97.0746C376.5 97.0746 374.904 101.015 375.633 101.803C376.389 102.961 376.269 104.484 375.337 105.507C374.372 106.65 372.992 107.931 367.77 107.261C366.214 108.727 364.273 109.724 362.174 110.137ZM362.174 84.1497V88.2281C361.608 89.1045 361.145 90.0433 360.795 91.0259C355.16 94.5133 354.588 91.5185 355.869 93.2326C356.842 95.0202 357.508 96.9582 357.839 98.966C357.465 102.315 361.071 103.478 362.174 103.773V110.137H361.937L362.174 110.926V148.36C361.303 147.48 360.531 146.509 359.869 145.464C359.869 145.464 358.726 138.686 356.618 130.805C353.485 119.141 349.012 104.857 349.012 104.857C349.012 104.857 347.041 99.1237 345.741 99.3207C344.441 99.5177 346.115 102.375 344.677 103.478C343.763 104.43 343.304 105.729 343.416 107.044C343.416 107.044 346.962 112.699 347.061 115.634C347.24 117.572 348.034 119.401 349.327 120.856C349.327 120.856 347.12 123.023 345.642 122.018C344.807 121.467 344.098 120.749 343.554 119.91L340.381 118.472C340.381 118.472 338.411 115.063 337.563 114.925C337.114 111.643 336.245 108.432 334.982 105.369V104.069C338.684 101.336 341.908 98.0071 344.519 94.2177C345.977 91.6367 341.799 85.7456 341.799 85.7456C341.799 85.7456 341.307 88.8586 339.474 89.4497C338.495 89.8252 337.406 89.7825 336.46 89.3315C336.46 89.3315 334.175 88.5828 336.933 84.7408C338.07 83.0438 339.335 81.4367 340.716 79.9333C340.716 79.9333 340.046 77.9631 342.568 77.4508C342.568 77.4508 350.194 69.3334 352.657 68.5453C352.657 68.5453 354.943 65.2746 355.672 67.3828C356.285 69.5046 357.885 71.1998 359.967 71.9341C359.967 71.9341 361.425 74.2393 358.687 77.4311C355.948 80.6229 350.647 79.1255 350.647 79.1255C350.647 79.1255 350.45 79.1255 352.105 83.3222C352.105 83.3222 352.519 88.504 355.317 87.4006C356.738 86.8622 358.109 86.2029 359.416 85.4304C360.334 84.9057 361.281 84.4322 362.253 84.0118L362.174 84.1497ZM334.904 116.462L335.455 114.295L334.904 114.393V116.462ZM334.904 104.069V105.369C334.744 105.062 334.551 104.771 334.332 104.502L334.904 104.069ZM334.904 114.393C333.064 114.595 331.392 115.542 330.272 117.014C330.272 117.014 326.706 119.201 328.598 113.507C330.489 107.812 329.642 104.719 330.331 103.419C330.331 103.419 330.233 99.8527 326.962 100.897C324.332 101.829 321.941 103.337 319.967 105.31V113.94C320.477 114.426 320.885 115.009 321.169 115.654C322.085 117.07 321.681 118.961 320.266 119.878C320.17 119.94 320.069 119.997 319.967 120.048V145.799C320.787 146.625 322.122 146.629 322.948 145.809C323.001 145.756 323.052 145.7 323.1 145.641C323.1 145.641 322.252 143.789 325.071 144.991C325.071 144.991 326.687 146.962 330.154 141.267C330.154 141.267 329.425 138.529 327.81 137.78C327.81 137.78 325.012 132.933 327.514 132.362C328.749 131.942 330.103 132.049 331.258 132.657C331.258 132.657 332.105 129.21 334.076 128.382C334.076 128.382 331.533 124.934 334.076 122.885L333.899 120.402L334.904 116.462V114.492V114.393ZM319.967 99.301V81.2928C321.368 82.1111 322.231 83.6108 322.233 85.2333C320.716 86.1397 321.169 88.7601 321.169 88.7601C322.237 91.8223 323.029 94.9743 323.534 98.1779L319.967 99.301ZM319.967 81.2928V99.301H319.849L316.834 101.094C314.588 102.453 311.75 98.2567 312.893 96.4047C314.036 94.5527 314.864 86.4352 314.864 86.4352C309.366 87.5583 312.164 85.8244 308.499 84.4649C304.834 83.1055 314.194 79.2635 314.194 79.2635C317.997 74.456 318.351 78.1601 318.351 78.1601L319.356 81.017L319.888 81.2731L319.967 81.2928ZM319.967 105.31C319.459 105.783 319.086 106.381 318.883 107.044C318.883 107.044 313.662 111.674 312.814 107.281C311.967 102.887 309.287 89.1345 305.209 93.804C304.925 96.7724 304.925 99.7608 305.209 102.729C306.438 108.11 308.105 113.382 310.193 118.491C310.193 118.491 310.824 121.486 312.794 128.067C314.765 134.647 318.41 143.021 318.41 143.021C318.73 144.025 319.275 144.942 320.006 145.701V119.989C319.277 117.27 318.312 113.822 318.312 113.822C318.822 113.418 319.557 113.469 320.006 113.94V105.31H319.967ZM205.681 210.325V196.119L205.78 196.454C205.78 196.454 211.001 204.572 214.785 206.897C214.785 206.897 215.809 210.404 215.179 211.606C214.548 212.808 214.528 214.344 211.237 213.852C209.092 213.156 207.151 211.945 205.582 210.325H205.681ZM205.681 181.658V171.649C208.361 174.348 210.725 176.279 210.725 176.279C210.725 176.279 210.37 180.219 211.277 181.165C212.183 182.111 209.306 185.539 206.843 183.135C206.843 183.135 206.371 182.485 205.681 181.717V181.658ZM205.681 168.142C209.188 172.214 212.476 176.469 215.533 180.889C217.917 184.574 223.75 193.006 223.75 193.006C218.489 199.942 225.878 204.434 225.878 204.434L230.035 201.754C230.035 201.754 232.735 205.695 235.947 204.099C239.159 202.503 240.42 198.819 241.208 197.144C241.996 195.469 239.769 188.022 239.769 188.022L219.099 167.472C219.099 167.472 210.685 158.862 206.922 156.557C206.509 156.296 206.065 156.084 205.602 155.926L205.681 168.142ZM205.681 155.847V168.142C203.593 165.777 201.877 164.201 201.424 164.615C201.424 164.615 199.001 163.985 202.606 168.28C203.593 169.482 204.578 170.624 205.681 171.649V181.658C204.889 180.639 203.833 179.855 202.626 179.392C200.453 178.829 198.469 177.7 196.873 176.121V171.629C197.622 170.323 197.622 168.718 196.873 167.413V156.793C199.568 155.328 202.734 154.988 205.681 155.847ZM205.681 196.119V210.325C203.699 208.763 202.134 206.731 201.129 204.414C201.129 204.414 199.158 200.73 196.873 196.888V184.278L198.449 186.248C198.449 186.248 204.361 191.115 205.681 196.1V196.119ZM196.873 241.751V232.274C197.844 235.357 197.844 238.667 196.873 241.751ZM196.873 202.109C197.1 201.747 197.356 201.404 197.641 201.084C197.878 200.868 197.464 200.277 196.873 199.646V202.109ZM196.873 156.793V167.472C196.642 167.155 196.378 166.864 196.085 166.605C196.085 166.605 195.73 157.916 196.656 157.03C196.719 156.961 196.792 156.901 196.873 156.852V156.793ZM196.873 171.629V176.121C196.227 175.494 195.959 174.574 196.164 173.698C196.367 173.03 196.605 172.372 196.873 171.728V171.629ZM196.873 184.278C194.666 181.658 190.843 177.087 189.897 175.885C187.829 173.753 185.499 171.893 182.961 170.348C181.739 169.718 178.528 172.89 179.887 172.437C181.247 171.984 182.744 177.796 182.744 177.796C182.744 177.796 182.291 178.249 183.119 184.022C183.947 189.795 186.272 187.549 186.272 187.549C187.671 186.505 185.898 181.323 185.898 181.323C187.329 182.86 188.646 184.499 189.838 186.229C190.666 187.724 191.587 189.165 192.597 190.544C193.839 192.14 195.316 194.484 196.715 196.789V184.278H196.873ZM196.873 199.646V202.109C196.164 203.173 195.336 204.532 195.336 204.532C195.336 204.532 193.366 202.562 192.005 202.996C190.646 203.429 184.124 201.025 183.276 195.292C183.062 193.131 182.68 190.99 182.133 188.889C182.974 188.991 183.797 189.21 184.578 189.539C186.37 190.15 186.548 188.79 187.73 191.233C190.418 192.474 192.635 194.546 194.055 197.144C195.043 197.944 195.984 198.799 196.873 199.705V199.646ZM196.873 232.274V241.751C196.682 242.261 196.424 242.746 196.105 243.189C193.622 246.381 192.616 242.086 192.616 242.086C190.881 242.631 188.993 242.387 187.454 241.416C189.602 238.086 185.602 230.599 184.282 226.777C182.961 222.954 175.829 211.547 172.34 206.266C171.631 205.202 169.897 202.858 167.868 200.218V192.199C170.799 195.202 173.531 198.395 176.045 201.754C181.483 205.695 181.739 209.103 181.739 209.103L184.597 212.335C183.947 215.054 192.833 223.21 192.833 223.21C196.44 227.525 195.671 228.885 195.809 229.929C196.239 230.674 196.595 231.46 196.873 232.274ZM167.868 222.422C169.381 222.706 170.921 222.812 172.458 222.738C173.577 223.055 174.644 223.526 175.632 224.137C176.223 224.747 179.907 223.27 175.08 220.787C173.866 219.52 172.136 218.88 170.39 219.053C170.39 219.053 169.267 218.048 167.868 216.65V222.422ZM167.868 192.238V200.257C164.065 195.331 159.296 189.361 158.41 188.652C157.05 187.569 162.074 187.47 166.134 190.622C166.686 191.056 167.257 191.568 167.868 192.14V192.238ZM167.868 216.65V222.422C167.158 222.284 166.39 222.107 165.622 221.89C161.838 220.787 158.567 213.753 157.976 212.532C157.224 210.995 157.423 209.163 158.488 207.823C159.71 206.621 161.976 209.222 161.976 209.222C161.976 210.581 165.366 214.206 167.887 216.65H167.868ZM112.97 394.347V377.58C114.034 378.693 115.166 379.74 116.36 380.713C119.02 382.801 125.247 387.963 126.843 387.688C128.439 387.412 126.173 391.49 126.173 391.49C126.173 391.49 123.789 401.46 119.276 399.371L112.97 394.426V394.347ZM112.97 356.755V347.081V347.297C123.829 352.243 124.459 359.316 124.459 359.316C128.222 360.281 128.4 362.606 128.4 362.606C127.44 363.678 126.625 364.87 125.976 366.153C123.848 369.581 115.986 360.951 114.429 358.547C114.006 357.885 113.495 357.283 112.911 356.755H112.97ZM112.97 338.333C118.35 342.588 127.434 349.09 132.32 347.337C138.429 345.13 143.197 339.672 145.287 331.575C147.375 323.477 146.508 319.398 140.754 315.99L126.745 307.695C126.745 307.695 123.099 302.572 113.661 302.415L112.97 301.863V307.36L117.601 310.454C117.601 310.454 127.828 316.522 131.394 321.172C131.394 321.172 138.666 323.969 137.168 331.496C135.671 339.022 133.227 343.987 127.079 339.869C123.553 337.505 117.444 332.934 112.892 329.506L112.97 338.333ZM112.97 301.784V307.36C109.838 305.272 106.035 302.75 104.695 301.824C102.31 300.149 102.547 298.79 102.547 298.79C104.636 295.736 110.882 300.228 112.97 301.863V301.784ZM112.97 329.368V338.274C111.473 337.091 110.271 336.087 109.503 335.476C106.035 332.678 107.198 337.072 107.198 337.072C110.192 338.648 112.557 345.682 112.97 346.923V356.597C111.775 355.689 110.495 354.897 109.148 354.233C106.705 352.308 104.461 350.142 102.448 347.77C101.357 346.767 100.154 345.895 98.862 345.169C97.6999 344.716 100.123 340.717 100.123 340.717C104.4 340.717 102.094 338.904 102.094 338.904C99.0001 334.116 101.739 326.058 101.739 326.058C102.651 324.275 104.836 323.57 106.619 324.482C106.816 324.582 107.003 324.702 107.178 324.836L112.97 329.269V329.368ZM112.97 377.521C111.237 375.708 109.779 374.014 109.779 374.014C109.779 374.014 102.409 367.926 100.695 366.665C98.9811 365.404 98.547 365.384 101.68 362.291C104.814 359.198 101.207 359.257 101.207 359.257C102.133 355.316 100.833 353.839 99.4931 352.814C97.7869 351.2 95.7778 349.941 93.5816 349.11C90.7638 348.184 92.1432 349.997 92.1432 349.997C93.5266 351.193 94.6757 352.637 95.5323 354.252C97.8379 357.838 95.2368 358.193 93.8377 358.193C92.4387 358.193 86.5273 358.055 86.5273 358.055C86.5273 358.055 84.5569 353.425 83.749 350.962C82.8487 349.051 81.496 347.386 79.8081 346.115C79.8081 346.115 81.6012 344.972 80.4583 340.559C79.3155 336.146 77.2859 341.15 76.0643 342.923C74.8425 344.697 73.2859 342.746 68.4189 340.362C63.5518 337.978 58.0149 344.578 53.5222 348.854C49.0296 353.129 59.7094 361.444 59.7094 361.444C68.7932 366.586 70.3696 366.291 70.3696 366.291C74.6455 369.798 73.0495 370.113 73.0495 370.113C73.0495 370.113 67.1381 372.753 69.4041 375.886C72.9115 380.536 75.7095 377.383 76.0249 375.098C76.2735 373.573 76.7588 372.097 77.4632 370.724C81.6406 372.694 89.818 377.304 89.818 377.304C95.5126 388.614 91.9855 387.274 96.1629 397.421C100.34 407.568 101.739 393.303 100.439 388.338C99.1381 383.373 102.409 386.033 102.409 386.033L112.931 394.288V377.521H112.97ZM65.4632 318.098C65.4632 318.098 66.8819 317.684 66.8425 314.69C66.8031 311.695 69.8178 313.232 70.1135 314.414C70.409 315.596 74.2317 317.33 76.3795 318.61C78.0956 319.739 79.6759 321.061 81.0889 322.551C82.9017 326.59 84.8918 324.304 84.8918 324.304C84.0052 316.423 87.0594 316.423 87.0594 316.423C87.6745 314.829 88.1043 313.171 88.3402 311.478C88.9905 308.109 91.9855 310.907 91.9855 310.907C94.5668 314.847 94.153 317.409 91.552 320.758C88.1629 325.191 92.8722 334.412 93.5225 335.968C94.1727 337.525 90.6259 338.234 88.222 338.293C85.8179 338.352 85.5618 336.185 83.0003 333.446C80.4386 330.708 78.0741 328.56 78.0741 328.56C74.3696 323.792 65.4632 318.098 65.4632 318.098Z" fill="#004098"/>
    <path fill-rule="evenodd" clip-rule="evenodd" d="M486.451 592.476V588.536C490.561 588.679 494.012 585.464 494.156 581.354C494.162 581.179 494.162 581.005 494.156 580.832C494.311 576.635 491.034 573.107 486.835 572.951C486.648 572.945 486.461 572.945 486.274 572.951V569.109C487.931 569.17 489.538 568.549 490.726 567.395C491.853 566.286 492.472 564.761 492.441 563.178C492.476 561.545 491.836 559.969 490.667 558.824C489.497 557.646 487.893 557.004 486.234 557.051V553.11C489.174 552.996 492.041 554.044 494.215 556.026C496.183 557.871 497.279 560.461 497.229 563.159C497.271 564.816 496.788 566.441 495.85 567.809C494.788 569.227 493.316 570.287 491.633 570.843C496.012 572.076 498.977 576.149 498.806 580.694C498.873 583.815 497.619 586.82 495.358 588.969C492.9 591.257 489.627 592.464 486.274 592.319L486.451 592.476ZM486.451 553.248V557.189C484.796 557.151 483.192 557.776 481.997 558.923C480.864 559.998 480.23 561.498 480.244 563.06C480.191 564.719 480.817 566.327 481.978 567.513C483.175 568.67 484.788 569.294 486.451 569.247V573.089C484.402 573.022 482.419 573.824 480.992 575.296C479.546 576.761 478.758 578.753 478.805 580.812C478.809 582.184 479.14 583.535 479.771 584.753C480.382 585.996 481.367 587.017 482.588 587.669C483.793 588.343 485.151 588.695 486.53 588.693V592.634C483.178 592.78 479.909 591.564 477.466 589.265C475.184 587.078 473.933 584.03 474.018 580.871C473.941 578.635 474.597 576.434 475.889 574.606C477.223 572.858 479.127 571.633 481.268 571.138C479.544 570.598 478.035 569.531 476.953 568.084C475.994 566.684 475.497 565.015 475.535 563.316C475.486 560.647 476.575 558.081 478.53 556.263C480.679 554.312 483.511 553.286 486.412 553.406L486.451 553.248ZM453.88 592.476V588.536C456.1 588.494 458.141 587.31 459.278 585.403C460.736 583.314 461.485 579.118 461.485 572.813C461.485 566.508 460.736 562.292 459.278 560.223C458.126 558.332 456.094 557.153 453.88 557.09V553.15C455.744 553.107 457.59 553.54 459.239 554.411C460.801 555.246 462.119 556.476 463.062 557.977C464.146 559.746 464.944 561.673 465.426 563.691C466.067 566.674 466.352 569.724 466.274 572.774C466.382 576.466 465.923 580.154 464.914 583.709C464.169 586.187 462.742 588.406 460.795 590.112C458.849 591.704 456.394 592.543 453.88 592.476ZM453.88 553.248V557.189C451.798 557.14 449.846 558.186 448.736 559.947C447.121 562.292 446.333 566.626 446.333 572.911C446.333 579.197 447.062 583.413 448.52 585.521C449.662 587.421 451.702 588.597 453.919 588.634V592.575C450.575 592.732 447.359 591.264 445.288 588.634C442.785 585.442 441.524 580.221 441.524 573.01C441.41 569.308 441.875 565.612 442.903 562.055C443.641 559.569 445.078 557.346 447.042 555.652C448.987 554.096 451.428 553.29 453.919 553.386L453.88 553.248ZM421.169 592.456V588.516C422.214 588.419 423.225 588.09 424.126 587.551C425.207 586.883 426.118 585.972 426.786 584.891C427.593 583.49 428.185 581.977 428.539 580.398C428.996 578.509 429.229 576.57 429.229 574.626C429.229 574.409 429.229 574.094 429.229 573.7C428.236 575.221 426.882 576.474 425.288 577.345C424.002 578.089 422.57 578.547 421.091 578.684V574.567H421.189C423.214 574.63 425.162 573.792 426.51 572.281C427.991 570.504 428.738 568.226 428.598 565.917C428.724 563.584 427.964 561.291 426.47 559.494C425.192 557.967 423.3 557.086 421.307 557.09H421.169V553.15C423.46 553.197 425.69 553.879 427.613 555.12C429.711 556.535 431.339 558.544 432.283 560.893C433.507 564.355 434.049 568.021 433.88 571.69C434.017 575.692 433.485 579.687 432.302 583.512C431.424 586.148 429.776 588.459 427.574 590.151C425.706 591.521 423.483 592.322 421.169 592.456ZM393.919 591.826H389.248V561.76C387.908 563.011 386.427 564.102 384.835 565.011C383.265 565.976 381.609 566.794 379.888 567.454V562.903C382.389 561.742 384.707 560.221 386.766 558.391C388.448 556.945 389.851 555.201 390.903 553.248H393.919V591.826ZM421.169 553.248V557.189C419.144 557.262 417.247 558.194 415.948 559.75C414.37 561.6 413.546 563.978 413.643 566.41C413.57 568.595 414.362 570.719 415.85 572.32C417.219 573.802 419.152 574.633 421.169 574.606V578.724C420.821 578.743 420.474 578.743 420.125 578.724C417.085 578.771 414.169 577.508 412.125 575.256C409.869 572.776 408.685 569.503 408.835 566.154C408.675 562.682 409.91 559.291 412.263 556.736C414.478 554.387 417.587 553.091 420.815 553.17L421.169 553.248ZM421.169 588.575V592.516H420.243C417.585 592.628 414.983 591.733 412.952 590.013C410.976 588.177 409.761 585.669 409.544 582.98L414.037 582.566C414.242 584.305 415.01 585.933 416.224 587.196C417.369 588.187 418.848 588.703 420.362 588.634L421.169 588.575Z" fill="#004098"/>
    <path fill-rule="evenodd" clip-rule="evenodd" d="M605.427 593.56V578.862C613.736 577.386 622.171 576.726 630.609 576.891C624.119 584.903 615.331 590.733 605.427 593.599V593.56ZM605.427 568.971V559.75C619.614 538.274 633.131 527.142 654.255 527.418C648.659 546.254 619.634 562.174 605.427 568.971ZM605.427 539.614C608.954 532.427 611.6 524.837 613.308 517.015C610.585 518.329 607.951 519.823 605.427 521.488V539.614ZM605.427 360.656V349.327C608.605 354.036 611.486 358.94 614.058 364.005C611.046 363.272 608.144 362.147 605.427 360.656ZM605.427 336.579V305.488C613.821 321.802 612.067 345.13 612.067 345.13C609.307 342.75 607.051 339.842 605.427 336.579ZM585.23 607.017C585.407 606.682 585.585 606.367 585.723 606.032L585.23 606.15V607.017ZM605.427 305.567V336.658C597.801 323.319 589.88 299.617 588.678 291.027C596.56 293.174 601.899 298.75 605.427 305.567ZM605.427 349.405C599.738 340.689 592.95 332.743 585.23 325.762V347.435C591.525 352.471 598.288 356.891 605.427 360.636V349.327V349.405ZM605.427 521.567V539.693C600.481 550.013 593.627 559.305 585.23 567.08V558.312C586.097 546.648 589.072 532.482 605.427 521.567ZM605.427 559.829C602.8 563.77 600.171 568.025 597.545 572.596C597.545 572.596 600.658 571.335 605.427 569.05V559.75V559.829ZM605.427 578.94V593.639C604.113 593.993 602.733 594.289 601.289 594.525C595.24 595.51 589.959 596.2 585.23 596.752V584.181C591.826 581.927 598.576 580.148 605.427 578.862V578.94ZM568.323 619.725C576.028 616.691 582.274 612.494 585.23 607.096V606.229C583.436 606.623 576.934 607.962 568.323 609.026V619.725ZM585.23 325.841V347.514C579.117 342.738 573.458 337.409 568.323 331.594V314.965C574.503 317.657 580.211 321.323 585.23 325.822V325.841ZM585.23 558.332V567.099L584.718 567.434C584.895 564.656 584.974 561.523 585.23 558.233V558.332ZM585.23 584.201V596.771C578.786 597.52 573.407 597.953 568.323 598.387V589.935C569.649 589.302 571.034 588.808 572.461 588.457C575.26 587.787 579.535 586.093 585.23 584.201ZM568.323 574.862V536.068C571.288 531.936 574.627 528.084 578.294 524.561C581.759 541.955 578.174 560.014 568.323 574.764V574.862ZM568.323 311.36V302.789C571.986 306.255 575.348 310.024 578.373 314.059C574.97 313.375 571.612 312.473 568.323 311.36ZM568.323 291.894C572.258 296.281 576.564 300.322 581.19 303.971C578.979 293.279 574.601 283.154 568.323 274.22V291.894ZM529.761 598.21C536.107 590.664 542.865 579.335 542.392 565.72L529.761 575.571V598.17V598.21ZM529.761 625.616C542.878 626.191 555.981 624.182 568.323 619.705V609.007C558.698 610.283 548.973 610.646 539.279 610.09L529.761 609.381V625.675V625.616ZM568.323 274.122V291.854C558.589 281.215 548.047 266.339 546.432 253.257C555.092 258.65 562.544 265.774 568.323 274.181V274.122ZM568.323 302.691C559.811 294.534 546.333 284.486 529.761 281.983V290.317C539.771 300.169 556.52 307.419 568.323 311.261V302.691ZM568.323 314.906V331.535C563.068 325.788 558.936 319.105 556.146 311.833C560.337 312.244 564.444 313.287 568.323 314.926V314.906ZM568.323 536.068V574.764C561.485 585.129 552.502 593.903 541.978 600.495C548.382 588.398 551.298 559.75 568.323 536.068ZM568.323 589.836C562.179 592.961 556.359 596.683 550.944 600.948C550.944 600.948 550.254 600.18 560.796 598.978C563.219 598.702 565.683 598.485 568.264 598.249V589.797L568.323 589.836ZM529.761 276.21V266.891C535.234 269.586 540.382 272.891 545.112 276.742C539.994 277.245 534.836 277.079 529.761 276.25V276.21ZM529.761 258.478C533.986 262.706 539.103 265.938 544.737 267.935C542.183 258.285 536.999 249.533 529.761 242.657V258.478ZM519.259 608.416C523.126 605.429 526.65 602.018 529.761 598.249V575.611C521.584 582.034 510.786 590.565 501.584 597.934C499.988 599.234 498.372 600.613 496.737 602.052V625.301C505.038 623.935 513.495 623.784 521.84 624.848C524.453 625.236 527.084 625.494 529.722 625.616V609.322C517.899 608.416 519.219 608.376 519.219 608.376L519.259 608.416ZM529.761 242.657V258.419C522.648 251.799 516.225 242.657 514.806 233.909C520.36 235.692 525.462 238.655 529.761 242.598V242.657ZM529.761 266.931V276.25C518.325 274.835 507.182 271.637 496.737 266.773V259.286C508.216 258.933 519.592 261.554 529.761 266.891V266.931ZM529.761 282.023V290.357C527.046 287.803 524.804 284.787 523.14 281.451C525.358 281.501 527.568 281.692 529.761 282.023ZM496.737 254.439V243.918C502.356 246.052 507.629 249.005 512.382 252.686C507.344 254.346 502.017 254.943 496.737 254.439ZM496.737 236.51V225.122C508.362 233.003 508.776 242.125 508.776 242.125C504.363 241.228 500.23 239.274 496.737 236.431V236.51ZM496.737 602.15C493.229 605.263 489.584 608.672 485.426 612.317V627.566C488.677 626.798 492.539 626.03 496.737 625.399V602.15ZM496.737 225.122V236.431C491.704 232.36 487.809 227.06 485.426 221.043V219.388C489.416 220.799 493.215 222.698 496.737 225.043V225.122ZM496.737 243.918V254.439C492.929 254.226 489.146 253.7 485.426 252.863V241.041C489.296 241.603 493.091 242.602 496.737 244.016V243.918ZM496.737 259.384V266.832C493.461 265.252 490.46 263.157 487.85 260.626C490.77 259.948 493.744 259.534 496.737 259.384ZM485.426 234.224L486.155 234.086C485.939 233.836 485.694 233.611 485.426 233.416V234.224ZM485.426 612.317C470.549 625.32 449.091 641.004 403.771 654.342C403.771 654.342 420.913 666.164 475.555 630.246C475.555 630.246 479.495 628.946 485.407 627.566V612.317H485.426ZM485.426 219.467V221.122C485.17 220.492 484.934 219.841 484.697 219.152L485.426 219.428V219.467ZM485.426 233.416V234.224C475.357 236.076 465.604 236.411 455.535 231.17C474.569 226.383 483.12 231.486 485.426 233.416ZM485.426 240.943V252.764C477.544 250.952 470.135 247.681 466.274 242.755C472.399 240.539 478.983 239.883 485.426 240.844V240.943Z" fill="#004098"/>
    <path fill-rule="evenodd" clip-rule="evenodd" d="M594.569 537.427H662.117V345.721L635.181 341.15C622.002 346.332 608.42 350.416 594.569 353.366V365.483C605.191 363.375 615.398 360.321 621.663 355.907H634.708V524.089H621.663V417.379L594.569 413.557V537.427ZM561.466 537.427H594.569V413.557L579.693 411.469V391.037L561.466 387.727V426.049L568.481 425.063V490.22H561.466V500.859H568.481V524.089H561.466V537.368V537.427ZM594.569 353.366C584.954 355.553 573.84 357.641 561.466 359.276V369.581C572.575 368.899 583.629 367.532 594.569 365.483V353.366ZM444.815 537.427H561.407V524.089H444.934V537.368L444.815 537.427ZM561.407 359.276C558.333 359.671 555.2 360.045 551.988 360.38L526.589 351.159C499.645 356.701 472.299 360.067 444.815 361.227V371.985C471.14 370.988 497.367 368.21 523.318 363.67V385.008C497.369 389.557 471.14 392.335 444.815 393.323V405.144C478.114 404.23 511.314 401.064 544.185 395.667V414.857C511.314 420.26 478.114 423.432 444.815 424.354V434.659C483.83 434.4 522.782 431.504 561.407 425.989V387.727L554.392 386.446V369.975C555.752 369.975 558.195 369.798 561.407 369.581V359.276ZM561.407 490.22V500.859H444.934V490.22H561.407ZM319.514 537.506H444.815V524.089H321.346V500.859H444.934V490.22H321.346V425.063C362.239 431.392 403.553 434.619 444.934 434.718V424.413C403.53 425.16 362.148 421.98 321.346 414.917V395.726C362.152 402.764 403.532 405.936 444.934 405.203V393.382C409.12 394.388 373.301 391.603 338.076 385.067V363.67C373.303 370.196 409.12 372.982 444.934 371.985V361.227C410.391 362.803 369.209 361.227 330.391 351.159L319.632 354.646V363.02L326.824 361.739V385.382L319.632 383.944L319.514 537.506ZM301.385 537.506H319.514V383.964L312.302 382.526V364.261L319.514 362.981V354.646L311.021 357.365C311.021 357.365 307.08 355.71 301.385 353.208V395.549L309.267 394.918V524.089H301.385V537.506ZM283.474 537.506H301.385V524.089H293.405V396.022L301.385 395.372V353.169C296.401 351.001 290.016 348.184 283.474 345.288V361.759H290.686V385.402H283.474V537.506ZM268.617 537.506H283.474V385.402H276.282V361.759H283.474V345.288C278.41 343.002 273.267 340.618 268.617 338.392V397.086L281.169 394.938V524.089H268.617V537.506ZM240.203 537.506H268.617V524.089H256.046V399.174L268.617 397.027V338.333C263.024 335.858 257.642 332.94 252.518 329.604L240.203 331.456V341.308H246.115V524.089H240.203V537.506ZM221.72 334.294V537.427H240.203V524.089H234.291V341.387H240.203V331.535L221.72 334.294Z" fill="#004098"/>
    <path fill-rule="evenodd" clip-rule="evenodd" d="M791.615 581.561V558.982C793.403 560.503 794.62 562.587 795.064 564.893C795.562 569.353 794.924 573.867 793.212 578.014C792.698 579.335 792.166 580.536 791.615 581.64V581.561ZM791.615 546.451V540.008L804.463 543.436L802.847 549.465L791.615 546.451ZM791.615 514.139V508.011L812.305 512.799L810.984 518.71L791.615 514.237V514.139ZM791.615 477.886V471.739L794.138 470.478L791.615 468.685V461.73L799.595 467.641L817.96 468.941L817.527 475.128L799.162 473.847L791.615 477.886ZM791.615 461.73V468.685L773.231 455.799L773.744 448.608L791.615 461.73ZM791.615 471.739V477.886L770.905 489.038L771.418 481.846L791.615 471.739ZM791.615 508.011L773.034 503.736L776.443 488.624L771.339 487.442L764.463 517.212V523.635L768.147 524.483L771.634 509.469L791.615 514.237V508.11V508.011ZM791.615 540.008V546.451L764.542 539.2V532.758L791.615 540.008ZM791.615 558.982V581.561C790.226 584.867 787.743 587.594 784.581 589.284C781.073 591.491 776.949 591.595 772.206 589.6L774.354 584.024C780.921 586.374 785.738 583.781 788.797 576.241C791.477 568.754 790.551 564.045 785.96 562.115C784.187 561.281 782.137 561.281 780.364 562.115C778.021 563.773 776.092 565.953 774.729 568.478L769.487 576.596C768.175 578.458 766.49 580.026 764.542 581.206V572.734V572.596L771.91 561.523C775.852 555.77 780.935 554.082 787.162 556.46C788.734 557.027 790.194 557.869 791.477 558.942L791.615 558.982ZM764.542 634.561V629.556L766.669 630.719L764.542 634.561ZM764.542 603.569V597.106C766.051 597.345 767.501 597.865 768.817 598.643L776.246 602.19C777.649 603.433 779.733 603.516 781.231 602.387L782.097 602.879L778.374 609.637C774.748 608.368 771.234 606.8 767.871 604.948C766.841 604.315 765.718 603.849 764.542 603.569ZM764.542 555.455C765.117 555.546 765.684 555.686 766.236 555.869L768.206 550.529C766.99 550.104 765.737 549.792 764.463 549.603L764.542 555.455ZM764.542 517.291V523.714L763.143 523.399L764.542 517.291ZM764.542 532.758V539.2L758.866 537.683L760.482 531.773L764.542 532.856V532.758ZM764.542 549.603V555.514C759.826 554.7 756.161 557.327 753.546 563.395C751.26 569.804 752.521 573.93 757.329 575.768C760.364 576.931 762.787 575.965 764.542 572.852V581.226C761.865 582.755 758.628 582.946 755.793 581.738C751.727 580.261 748.638 576.891 747.516 572.714C746.598 569.097 746.939 565.277 748.482 561.878C752.009 552.736 757.349 548.638 764.542 549.643V549.603ZM764.542 597.106V603.569C761.388 602.919 758.768 604.455 756.659 608.14L749.428 621.203L764.482 629.556V634.561L763.596 636.157L740.186 623.192V616.1L744.837 618.661L751.831 606.051C754.801 600.667 753.966 596.726 749.329 594.23C745.664 592.259 742.63 592.575 740.186 595.372V588.339L741.25 587.748C744.246 585.777 747.832 585.974 752.028 588.319C756.173 590.364 758.707 594.677 758.472 599.293C759.964 597.642 762.184 596.85 764.384 597.185L764.542 597.106ZM740.186 669.356V659.8L752.127 642.757L756.62 645.89L740.186 669.356ZM740.186 588.26V595.294C739.581 595.999 739.053 596.763 738.61 597.579L731.122 611.056L740.186 616.1V623.192L723.773 614.09L734.019 595.609C735.448 592.695 737.564 590.173 740.186 588.26ZM740.186 659.8V669.356L737.349 673.296L709.94 654.126V646.52L719.516 653.239L733.783 632.847L738.275 635.999L724.009 656.372L736.443 665.159L740.186 659.8ZM709.94 696.309V690.398L712.54 691.58L709.94 686.753V674.124L719.792 693.609L715.221 698.515L709.9 696.289L709.94 696.309ZM709.94 642.265L723.32 623.192L719.024 620.198L709.94 633.182V642.265ZM709.94 633.182V642.304L707.969 645.24L709.94 646.658V654.263L700.087 647.328L709.94 633.221V633.182ZM709.94 674.143L697.9 650.402L693.093 655.485L709.881 686.773V674.143H709.94ZM709.94 690.418V696.328L671.2 679.975V679.049L675.319 674.616L709.94 690.378V690.418ZM671.2 733.231V717.312L681.053 730.828L675.359 734.906L671.161 733.231H671.2ZM671.2 698.2L691.26 721.272L695.95 717.193L671.2 688.723V698.2ZM671.2 679.03V679.956L670.59 679.68L671.2 679.03ZM671.2 688.723V698.2L661.348 686.911L666.038 682.832L671.161 688.743L671.2 688.723ZM671.2 717.312L654.255 693.984L649.427 697.471L671.102 727.281L630.924 710.928L629.9 711.677V722.198L651.575 752.146L656.403 748.639L634.728 718.849L634.925 718.711L671.102 733.212V717.292L671.2 717.312ZM629.821 765.484V740.994L632.284 745.25C634.726 749.411 635.433 754.364 634.255 759.042C633.37 761.526 631.862 763.745 629.88 765.484H629.821ZM629.821 711.696V722.218L624.817 715.341L629.821 711.696ZM629.821 740.994L617.604 719.834L612.303 722.947L626.609 747.713C630.747 754.898 629.348 760.592 622.412 764.795C615.845 768.381 610.426 766.627 606.156 759.534L591.83 734.768L586.452 737.862L601.624 764.145C603.75 768.359 607.681 771.378 612.303 772.341C616.631 772.68 620.952 771.61 624.619 769.287C626.493 768.221 628.251 766.958 629.86 765.524V740.994H629.821ZM531.298 805.54V799.925L534.274 804.909L531.298 805.481V805.54ZM531.298 768.105L543.122 802.506L570.924 792.891L569.151 787.709L547.279 795.235L534.235 757.367L531.338 758.372L531.298 768.105ZM531.298 758.431V768.105L528.323 759.456L531.298 758.431ZM531.298 800.043L510.569 765.248V776.892L517.525 789.206L510.569 790.566V796.142L520.756 794.171L527.673 806.249L531.298 805.54V800.043ZM510.569 765.248V776.892L507.101 770.725H506.845L503.614 791.866L510.569 790.507V796.083L502.687 797.619L500.559 811.411L494.451 812.593L502.608 764.618L509.446 763.298L510.549 765.13L510.569 765.248ZM413.86 794.802V789.541L416.106 789.758C422.214 790.296 425.499 787.92 425.958 782.626C426.411 777.503 423.889 774.745 418.45 774.232L413.86 773.838V768.834L418.391 769.228C422.052 769.301 425.603 770.483 428.579 772.617C431.573 774.587 432.855 777.897 432.519 782.705C432.326 787.313 429.428 791.372 425.131 793.048C428.677 794.363 430.239 797.409 429.82 802.19L429.603 810.406C429.028 812.195 429.794 814.142 431.435 815.056V816.061L423.751 815.371C423.42 811.549 423.42 807.707 423.751 803.885C424.402 798.447 421.898 795.492 416.283 794.999L414.017 794.802H413.86ZM485.525 813.125L481.583 767.809L472.657 768.598L463.121 808.141L446.648 770.863L437.702 771.651L441.642 816.967L447.83 816.435L445.485 789.66C445.485 789.325 445.367 788.241 445.21 786.428C444.717 782.803 444.402 780.084 444.244 778.291H444.5L460.46 815.352L466.648 814.82L476.343 775.493C476.796 780.596 477.111 784.399 477.328 786.882L479.594 813.716L485.525 813.125ZM413.86 768.834V773.838L403.081 772.893L401.721 788.497L413.86 789.541V794.802L401.268 793.699L399.554 813.283L393.347 812.731L397.288 767.415L413.82 768.854L413.86 768.834ZM365.721 808.377V803.057C373.13 802.841 378.293 798.033 381.209 788.694C383.43 776.951 379.804 769.557 370.332 766.509C368.817 766.184 367.27 766.044 365.721 766.095V760.519C367.717 760.596 369.699 760.886 371.632 761.386C377.597 762.559 382.751 766.279 385.741 771.573C388.253 777.428 388.793 783.944 387.278 790.132C385.863 796.094 382.456 801.398 377.623 805.165C374.112 807.504 369.932 808.631 365.721 808.377ZM365.721 760.579V766.095C358.292 766.312 353.17 771.257 350.312 780.99C347.948 792.562 351.606 799.787 361.287 802.663C362.749 802.935 364.236 803.047 365.721 802.998V808.318C363.826 808.227 361.943 807.944 360.105 807.471C352.854 805.672 347.863 802.039 345.13 796.575C344.75 795.629 344.427 794.664 344.165 793.679V778.843C345.822 772.085 350.068 766.247 355.987 762.588C359.037 761.057 362.432 760.344 365.84 760.519L365.721 760.579ZM344.165 759.121V756.382L345.13 756.776L344.165 759.121ZM344.165 756.382V759.121L328.066 798.979L321.602 796.358L313.958 753.564L313.721 753.466L299.927 787.61L294.391 785.364L311.435 743.161L318.351 745.959L325.78 788.674L339.573 754.53L344.165 756.382ZM344.165 778.902L344.027 779.434C342.896 784.141 342.943 789.055 344.165 793.738V778.902ZM229.878 747.122V738.078C230.424 736.451 231.178 734.9 232.124 733.468L248.656 708.012L253.859 711.401L238.292 735.399C233.918 742.438 234.81 748.062 240.971 752.264C247.868 756.545 253.583 755.233 258.115 748.324L273.701 724.326L278.903 727.715L262.922 752.343C260.309 756.404 256.205 759.276 251.494 760.342C247.553 760.933 243.061 759.613 238.055 756.402C234.444 754.272 231.584 751.07 229.878 747.24V747.122ZM229.878 722.671C233.949 717.867 236.379 711.89 236.814 705.608C236.58 700.019 234.075 694.768 229.878 691.068V700.919C230.885 703.89 230.885 707.11 229.878 710.081V722.671ZM229.878 691.147V700.998C228.938 698.425 227.413 696.106 225.425 694.22C217.675 688.138 209.759 689.176 201.68 697.333V688.822C205.387 686.144 209.769 684.554 214.331 684.231C219.752 684.387 224.925 686.542 228.853 690.28L229.878 691.225V691.147ZM229.878 710.081V722.75L229.72 722.927C225.754 727.592 220.321 730.773 214.312 731.951C209.888 732.42 205.437 731.377 201.68 728.995V722.848C209.391 728.247 217.175 726.932 225.031 718.908C227.155 716.297 228.796 713.328 229.878 710.14V710.081ZM229.878 738.157V747.201L229.74 746.826C228.889 743.991 228.936 740.963 229.878 738.157ZM201.72 679.542V671.424L203.927 669.572L207.868 674.34L201.72 679.542ZM201.72 671.424V679.542L173.051 703.599L169.109 698.831L185.326 685.236L169.956 666.952L165.011 670.991V662.873L184.499 646.52L188.439 651.288L174.154 663.268L189.503 681.571L201.582 671.424H201.72ZM201.72 688.664C199.685 690.116 197.815 691.789 196.144 693.649C192.321 698.088 189.943 703.587 189.326 709.411C189.326 715.519 192.124 721.022 197.72 725.922C198.95 727.007 200.268 727.99 201.661 728.857V722.71L200.912 722.159C193.609 715.17 193.609 707.06 200.912 697.826L201.582 697.117V688.605L201.72 688.664ZM165.011 644.471V638.363L171.552 638.738L165.011 629.379V620.277L180.478 642.304L176.183 645.299L165.011 644.471ZM165.011 620.277V629.379L156.715 617.558L161.069 614.504L165.011 620.277ZM165.011 638.363V644.511L137.306 642.54V636.728L165.011 638.363ZM165.011 662.913V671.03L153.622 680.586L149.68 675.818L165.011 662.873V662.913ZM137.424 660.036V650.481L147.71 665.159L143.218 668.292L137.424 660.036ZM137.424 620.789V617.301L138.843 620.079L137.424 620.789ZM137.424 587.413V581.305C142.726 583.125 147.109 586.944 149.641 591.944C154.187 602.308 152.688 610.333 145.149 616.021L142.409 610.78C147.277 606.445 148.065 600.929 144.833 594.19C143.207 591.164 140.591 588.786 137.424 587.452V587.413ZM137.424 581.305V587.413C133.129 585.758 127.828 586.388 121.483 589.284L120.458 589.816V582.723C126.942 580.3 132.616 579.847 137.424 581.305ZM137.424 617.301V620.789L120.458 629.438V619.134C124.254 619.92 128.205 619.215 131.493 617.164L125.149 604.751L129.818 602.367L137.424 617.341V617.301ZM137.424 636.708V642.521L131.513 642.127L137.424 650.481V660.036L122.665 638.955L126.745 636.117L137.424 636.708ZM120.458 574.961V568.675L134.725 564.045L136.577 569.72L120.458 574.961ZM120.458 550.805V536.777L125.365 535.181L127.651 542.274L120.458 550.805ZM101.148 459.602L111.256 458.893L110.823 452.686L101.148 453.356V459.602ZM101.148 489.767L113.346 488.919L112.872 482.713L101.049 483.541V489.767H101.148ZM120.458 536.777V550.805L101.148 573.739V565.168L118.961 543.791V543.555L101.227 549.328V543.042L120.537 536.777H120.458ZM120.458 568.675L101.148 574.961V581.226L120.458 574.941V568.656V568.675ZM120.458 582.723V589.816C110.054 595.451 107.073 602.637 111.512 611.371C112.989 614.435 115.433 616.929 118.468 618.464C119.105 618.742 119.764 618.966 120.439 619.134V629.438L117.109 631.133L115.296 627.606L119.71 623.665C114.196 622.255 109.599 618.454 107.178 613.302C104.4 607.844 103.651 602.899 104.951 598.525C106.843 591.958 111.44 586.914 118.744 583.393L120.439 582.723H120.458ZM101.108 526.059V518.808L111.808 512.267V512.011L101.227 510.77V505.371L117.68 507.597L119.257 514.375L101.108 526.059ZM94.2712 484.053L92.5964 460.232L101.108 459.641V453.396L65.3647 455.898L65.7982 462.085L86.8821 460.627L88.557 484.447L67.4534 485.925L67.8869 492.131L101.108 489.806V483.58L94.2712 484.053ZM101.108 505.45V510.848L90.4487 509.607L93.6211 523.399L101.108 518.848V526.059L78.4683 540.658L76.951 534.117L88.7737 526.788L84.6358 508.858L70.7244 507.203L69.3253 501.155L101.089 505.41L101.108 505.45ZM101.108 543.082V549.367L83.8673 554.982L82.015 549.288L101.108 543.082ZM101.108 565.208V573.778L99.6702 575.473L101.108 575V581.226L93.2269 583.768L91.0791 577.285L101.108 565.208Z" fill="#004098"/>
    </svg>
    