<svg xmlns="http://www.w3.org/2000/svg" viewBox="0 0 132.25 171.2"><defs><style>.cls-1{font-size:9.19px;}.cls-1,.cls-2,.cls-3,.cls-4,.cls-5,.cls-6,.cls-7,.cls-8{fill:#2c3e70;}.cls-1,.cls-2,.cls-3,.cls-4,.cls-5,.cls-6,.cls-7{font-family:BodoniMT, Bodoni MT;}.cls-2{font-size:9.19px;}.cls-3{font-size:9.19px;}.cls-4{font-size:9.19px;}.cls-5{font-size:9.19px;}.cls-6{font-size:9.19px;}.cls-7{font-size:9.19px;}.cls-9{fill:none;stroke:#2c3e70;stroke-miterlimit:10;stroke-width:2.09px;}</style></defs><g id="Layer_2" data-name="Layer 2"><g id="Layer_1-2" data-name="Layer 1"><text class="cls-1" transform="matrix(0, 1, -1, 0, 4.63, 100.43)"> </text><text class="cls-2" transform="translate(4.81 103.89) rotate(88.18)"> </text><text class="cls-3" transform="matrix(0.8, 0.6, -0.6, 0.8, 60.21, 157.63)"> </text><text class="cls-4" transform="translate(62.74 159.59) rotate(40.37)"> </text><text class="cls-5" transform="translate(69.38 159.39) rotate(-37.39)"> </text><text class="cls-6" transform="matrix(0.88, -0.47, 0.47, 0.88, 77.57, 154.07)"> </text><text class="cls-7" transform="matrix(0.9, -0.44, 0.44, 0.9, 80.26, 152.55)"> </text><text class="cls-3" transform="matrix(0.66, -0.75, 0.75, 0.66, 117.01, 132.63)"> </text><text class="cls-2" transform="matrix(0.58, -0.82, 0.82, 0.58, 119.41, 129.94)"> </text><path class="cls-8" d="M116.83,36.65a119.43,119.43,0,0,1-29.49-6.42,62.94,62.94,0,0,0-42.8,0,119.43,119.43,0,0,1-29.49,6.42c0,19.22,0,49,0,63.91-.05,38,32.85,32.09,50.89,49.92,18-17.83,50.94-11.91,50.89-49.92,0-14.91,0-44.69,0-63.91m-52.34,56v4.77H47.6v2.54H64.49v4.77H47.6v2.54H64.49V112h-23V83.78H47.6v1.51H64.49v4.78H47.6V92.6ZM28.86,69.29V61.72H44V55.29H28.86V48.54H59.21v-6.7h5.27V55.29H50.28v6.43h14.2V80.49h-23v-6.7H59.21v-5.3H35.27v43.39H28.86Zm74.31-14H87.86v6.43h15.31V115c0,5.05-2.85,7.55-6.36,7.54-9.68,0-27-.07-27.43,0a4.66,4.66,0,0,0-3.13,2.27c-.12.21-.23.4-.31.58-.08-.18-.19-.37-.31-.58a4.66,4.66,0,0,0-3.13-2.27c-.4-.07-17.75,0-27.43,0-3.51,0-6.36-1.7-6.36-6.74H61.22s3.62-.28,4.72,2.22c1.1-2.5,4.77-2.25,4.77-2.25H96.76V68.62H72.82v5.13H90.55v6.7h-23V61.68H81.75V55.25H67.54V41.81h5.28V48.5h30.35ZM67.64,104.68V99.91H84.52V97.37H67.64V92.6H84.52V90.07H67.64V85.29H84.52V83.78h6.09V112h-23v-4.77H84.52v-2.54Z"/><path class="cls-8" d="M67,156.93H65.26l-.56,1.5h1v.21h-2v-.21h.76l2-5.4h.12l1.92,5.4h.74v.21H66.65v-.21h.89Zm-1.67-.21h1.59l-.77-2.19h0Z"/><path class="cls-8" d="M8.89,59.88l-2.41,1,4,1.5v-.8h.21v1.6h-.21v-.57l-5.41-2v-.15l2.54-1-2.54-1v-.15L10.53,56v-.61h.21v5.72h-.21v-.59ZM6.43,58.67l1.51.61,2.59-1.06V57Zm4.1.55-1.35.55,1.35.55Z"/><path class="cls-8" d="M10.53,68.87V68h.21v2h-.21v-.86H7.21A4,4,0,0,1,6.14,69a1.27,1.27,0,0,1-.57-.4,1.74,1.74,0,0,1-.34-.68,3.26,3.26,0,0,1-.11-.83,2.43,2.43,0,0,1,.28-1.31,1.18,1.18,0,0,1,.7-.52,5.5,5.5,0,0,1,1.11-.09h3.32v-.8h.21V67h-.21V66.1H7.3a7,7,0,0,0-1,.06,1.07,1.07,0,0,0-.64.33,1.23,1.23,0,0,0-.25.86,1.83,1.83,0,0,0,.19.85,1.09,1.09,0,0,0,.52.52,3.35,3.35,0,0,0,1.22.15Z"/><path class="cls-8" d="M5.46,72h5.07v-.86h.21v2.71h-.21V73H8.18v2.36h2.35v-.85h.21v2.69h-.21V76.3H5.46v.86H5.25V74.47h.21v.85H8V73H5.46v.87H5.25V71.12h.21Z"/><path class="cls-8" d="M7,81.55V79.81l-1.5-.56v1H5.25v-2h.21V79l5.4,2v.12l-5.4,1.92v.74H5.25V81.2h.21v.89Zm.21-1.66v1.59l2.19-.77v0Z"/><path class="cls-8" d="M10.53,89.7H5.12v-.16l5.43-3.62H5.46v.93H5.25v-2h.21v.82h5.07v-.87h.21v2.09L6.89,89.48h3.64v-.9h.21v1.94h-.21Z"/><path class="cls-8" d="M5.46,97.73h5.07v-.85h.21v2.84a5.83,5.83,0,0,1-.05.79,1.39,1.39,0,0,1-.25.61,1.07,1.07,0,0,1-.48.42,1.26,1.26,0,0,1-.55.13c-.65,0-1.08-.5-1.28-1.5h0c-.18,1.13-.65,1.69-1.4,1.69a1.32,1.32,0,0,1-.59-.15,1.37,1.37,0,0,1-.54-.48,1.73,1.73,0,0,1-.28-.68,6.81,6.81,0,0,1,0-.87v-2.8h.21ZM8,99.45v-.74H5.46v.76a3.14,3.14,0,0,0,.06.69.77.77,0,0,0,.35.44,1.73,1.73,0,0,0,.9.18,1.4,1.4,0,0,0,1-.28A1.4,1.4,0,0,0,8,99.45Zm2.52.09v-.83H8.22v.75c0,.51.1.83.3,1a1.65,1.65,0,0,0,.94.21,1.54,1.54,0,0,0,.74-.14.59.59,0,0,0,.28-.35A3.2,3.2,0,0,0,10.53,99.54Z"/><path class="cls-8" d="M10.87,107.69l-.07-.9H11l.15,2-.21,0-.07-.86-3.3.25a3.84,3.84,0,0,1-1.07,0,1.14,1.14,0,0,1-.61-.35,1.81,1.81,0,0,1-.39-.66,3.16,3.16,0,0,1-.17-.81A2.55,2.55,0,0,1,5.52,105a1.15,1.15,0,0,1,.66-.56,5.69,5.69,0,0,1,1.1-.18l3.31-.25-.06-.79.2,0,.2,2.61-.21,0-.06-.86-3.22.25a6.56,6.56,0,0,0-1,.14,1,1,0,0,0-.6.37,1.22,1.22,0,0,0-.19.88,1.77,1.77,0,0,0,.26.83,1.14,1.14,0,0,0,.56.49,3.33,3.33,0,0,0,1.23.05Z"/><path class="cls-8" d="M12,113l-1.4.28,0-.19a1.52,1.52,0,0,0,1-1.65,1.25,1.25,0,0,0-.47-.82.94.94,0,0,0-.71-.19.7.7,0,0,0-.48.35,2.13,2.13,0,0,0-.16,1,4.46,4.46,0,0,1-.1,1.1,1.43,1.43,0,0,1-.46.71,1.62,1.62,0,0,1-.87.42,1.85,1.85,0,0,1-1.41-.28,1.71,1.71,0,0,1-.76-1.18,2.09,2.09,0,0,1,.23-1.33l-.4-.32,0-.14,1.51-.27,0,.17a2.37,2.37,0,0,0-1,.86,1.5,1.5,0,0,0-.19,1,1.55,1.55,0,0,0,.5.86,1.06,1.06,0,0,0,.92.27,1,1,0,0,0,.67-.42,1.88,1.88,0,0,0,.23-1,5.12,5.12,0,0,1,.07-1.06,1.47,1.47,0,0,1,1.16-1.08,1.61,1.61,0,0,1,1.18.23,1.54,1.54,0,0,1,.69,1.09,1.93,1.93,0,0,1-.18,1.24,1.52,1.52,0,0,0,.38.2Z"/><path class="cls-8" d="M7.44,116.78l4.87-1.41-.25-.86.2-.06.77,2.67-.2.06-.25-.87-4.87,1.41.25.86-.2.06L7,116l.2-.06Z"/><path class="cls-8" d="M15.08,122.54l-4.91,2.26-.07-.15,3.43-5.55v0l-4.63,2.13.39.84-.19.09-.81-1.77.19-.09.34.74,4.6-2.12-.36-.79.19-.08.87,1.9-2.43,3.93h0L15,122.36l-.38-.83.19-.09.81,1.77-.19.09Z"/><path class="cls-8" d="M17,125.55,15.14,127l.3.39a1.64,1.64,0,0,0,.3.33.6.6,0,0,0,.42.09,1.36,1.36,0,0,0,.66-.28l.13.17-1.86,1.39-.13-.17c.34-.29.53-.53.55-.73a1,1,0,0,0-.24-.67l-.3-.4-2,1.5.66.9a1.74,1.74,0,0,0,1.11.81A2,2,0,0,0,16,129.9l.12.17-1.5,1.06-2.91-3.9.16-.12.52.7,4.06-3-.52-.7.17-.12,2.79,3.73-1.11,1-.13-.17a1.62,1.62,0,0,0,.51-.93,1.68,1.68,0,0,0-.43-1.06Z"/><path class="cls-8" d="M22.25,130.9l-1,1-.14-.13a1.53,1.53,0,0,0-.17-1.93,1.18,1.18,0,0,0-.86-.38.9.9,0,0,0-.68.26.64.64,0,0,0-.18.57,2.19,2.19,0,0,0,.46.91,3.68,3.68,0,0,1,.57.95,1.39,1.39,0,0,1,.05.84,1.7,1.7,0,0,1-.46.85,1.83,1.83,0,0,1-1.3.61,1.75,1.75,0,0,1-1.32-.51,2.16,2.16,0,0,1-.59-1.21l-.51,0-.11-.1,1.06-1.11.13.12a2.35,2.35,0,0,0-.26,1.26,1.45,1.45,0,0,0,.43.91,1.53,1.53,0,0,0,.92.41,1,1,0,0,0,.89-.33,1,1,0,0,0,.29-.73,1.69,1.69,0,0,0-.41-1,4.85,4.85,0,0,1-.56-.89,1.41,1.41,0,0,1-.08-.8,1.37,1.37,0,0,1,.38-.77,1.57,1.57,0,0,1,1.08-.5,1.55,1.55,0,0,1,1.21.47,2,2,0,0,1,.58,1.11,1.52,1.52,0,0,0,.42-.06Z"/><path class="cls-8" d="M26.05,133.71l-.8,1.18-.16-.11a1.52,1.52,0,0,0-.44-1.88,1.22,1.22,0,0,0-.91-.26.91.91,0,0,0-.64.36.67.67,0,0,0-.09.59,2.06,2.06,0,0,0,.59.83,4.39,4.39,0,0,1,.7.86,1.48,1.48,0,0,1,.17.83,1.77,1.77,0,0,1-.33.9,1.83,1.83,0,0,1-1.2.79,1.76,1.76,0,0,1-1.38-.31,2.09,2.09,0,0,1-.76-1.11l-.51.06-.12-.09.89-1.25.14.1a2.39,2.39,0,0,0-.08,1.28,1.47,1.47,0,0,0,1.53,1.11,1.05,1.05,0,0,0,.84-.45,1,1,0,0,0,.18-.77,1.8,1.8,0,0,0-.55-.89,4.59,4.59,0,0,1-.68-.8,1.42,1.42,0,0,1-.2-.78,1.34,1.34,0,0,1,.27-.81,1.55,1.55,0,0,1,1-.65,1.52,1.52,0,0,1,1.26.29,1.94,1.94,0,0,1,.73,1,1.23,1.23,0,0,0,.41-.13Z"/><path class="cls-8" d="M32.43,141.92l-1.52-.85-1.22,1,.88.51-.1.18-1.73-1,.1-.18.66.37,4.4-3.72.11.06L33,144l.64.37-.1.18-2.28-1.29.1-.18.78.43Zm-1.35-1,1.39.79.41-2.3h0Z"/><path class="cls-8" d="M41.38,142l-2,5-.16-.06-1.38-6.37h0L36,145.32l.86.34-.07.2L35,145.15,35,145l.76.3,1.85-4.72-.82-.32.08-.2,2,.77,1,4.51h0l1.32-3.38-.84-.33.07-.2,1.82.71-.08.2Z"/><path class="cls-8" d="M42.23,147.7,44.07,143l-.8-.31.07-.2,2.42.94a4,4,0,0,1,1.28.76,2.15,2.15,0,0,1,.61,1.26,3,3,0,0,1-.18,1.58,2.89,2.89,0,0,1-1,1.3,2.36,2.36,0,0,1-1.31.5,3.82,3.82,0,0,1-1.42-.29l-2.4-.94.08-.19ZM45,143.33l-1.84,4.72.67.26a3.05,3.05,0,0,0,.89.24,1,1,0,0,0,.7-.21,2.08,2.08,0,0,0,.61-.69,9.79,9.79,0,0,0,.58-1.26,3.54,3.54,0,0,0,.31-1.52,1.15,1.15,0,0,0-.37-.81,3.43,3.43,0,0,0-.87-.47Z"/><path class="cls-8" d="M54.86,147.35,59,149.58l-.77,1.71-.18-.1a3,3,0,0,0,.17-1.38,1.09,1.09,0,0,0-.56-.72l-.39-.21-2.43,4.45.87.47-.1.18L53,152.58l.1-.18.86.47,2.43-4.45L56,148.2a1.08,1.08,0,0,0-.91-.08A3,3,0,0,0,54,149l-.19-.1Z"/><path class="cls-8" d="M58.27,155.38l2.92-4.15-.71-.5.12-.17,2.46,1.73a3.76,3.76,0,0,1,.73.64,1.22,1.22,0,0,1,.29.72,1.07,1.07,0,0,1-.2.76,1,1,0,0,1-.81.46,2.93,2.93,0,0,1-1.39-.38v0a2.31,2.31,0,0,1,.62,1.07,1.67,1.67,0,0,1-.4,1.33c-.2.3-.3.5-.28.63a.41.41,0,0,0,.19.32,1.36,1.36,0,0,0,.32.16l-.12.16a2.28,2.28,0,0,1-.63-.29,1.13,1.13,0,0,1-.57-.86,1.2,1.2,0,0,1,.21-.76l.41-.56a1.31,1.31,0,0,0,.22-.72c0-.28-.21-.58-.65-.89l-.42-.3-1.5,2.14.71.49-.12.17-2.21-1.55.12-.17ZM62,151.79l-1.3,1.86.6.42a4,4,0,0,0,.63.37.65.65,0,0,0,.52-.05,1.82,1.82,0,0,0,.61-.61,1.27,1.27,0,0,0,.28-.66.61.61,0,0,0-.15-.43,2.49,2.49,0,0,0-.43-.37Z"/><path class="cls-8" d="M72,156.7l-2.81-4.21-.71.47-.12-.17,2.15-1.44a3.93,3.93,0,0,1,1.36-.61,2,2,0,0,1,1.38.22A3,3,0,0,1,74.4,152a2.85,2.85,0,0,1,.5,1.55,2.39,2.39,0,0,1-.35,1.36,3.6,3.6,0,0,1-1,1l-2.14,1.43-.12-.17ZM70,152l2.81,4.21.6-.39a3.42,3.42,0,0,0,.7-.6,1,1,0,0,0,.24-.69,2.14,2.14,0,0,0-.23-.9,9.87,9.87,0,0,0-.69-1.19,3.55,3.55,0,0,0-1.07-1.13,1.16,1.16,0,0,0-.87-.16,3.3,3.3,0,0,0-.89.44Z"/><path class="cls-8" d="M76.27,148.12l1.09,2.09.44-.23a1.59,1.59,0,0,0,.37-.25.64.64,0,0,0,.16-.39,1.39,1.39,0,0,0-.18-.71l.19-.09,1.07,2.06-.19.1c-.22-.39-.43-.6-.63-.66a.9.9,0,0,0-.7.13l-.44.22,1.16,2.23,1-.52a1.72,1.72,0,0,0,1-1,2,2,0,0,0-.18-1.29l.19-.09.8,1.65-4.32,2.24-.09-.18.77-.4-2.34-4.5-.77.4-.1-.19,4.14-2.15.76,1.26-.18.1a1.58,1.58,0,0,0-.84-.65,1.63,1.63,0,0,0-1.11.24Z"/><path class="cls-8" d="M85.09,143.85l2.45-.95.07.2-.81.31,2.72,3.1h0l-.17-4.09-.82.32-.08-.2,1.81-.69.08.19-.78.3.22,5.71-.1,0-3.85-4.31-.68.26Z"/><path class="cls-8" d="M95.73,145.74a2.26,2.26,0,0,1-2-.14,2.91,2.91,0,0,1-1.42-1.48,3,3,0,0,1-.07-2.22,2.35,2.35,0,0,1,1.35-1.48,2.27,2.27,0,0,1,1.94.14,3,3,0,0,1,1.52,3.7A2.33,2.33,0,0,1,95.73,145.74Zm-2.09-5.12a1.51,1.51,0,0,0-.66.5,1.08,1.08,0,0,0-.18.85,8.83,8.83,0,0,0,.56,1.7,10.45,10.45,0,0,0,.6,1.27,1.63,1.63,0,0,0,.68.65,1.14,1.14,0,0,0,1,0,1.67,1.67,0,0,0,.65-.49,1.1,1.1,0,0,0,.16-.95,10.51,10.51,0,0,0-.6-1.79,5.64,5.64,0,0,0-.74-1.41,1.1,1.1,0,0,0-.69-.4A1.44,1.44,0,0,0,93.64,140.62Z"/><path class="cls-8" d="M100.36,137l.8,1.41-.15.09c-.66-.77-1.33-.95-2-.56a1,1,0,0,0-.57.9,5,5,0,0,0,.79,2,8.15,8.15,0,0,0,1,1.51,1.16,1.16,0,0,0,.72.38,1.31,1.31,0,0,0,.7-.16,1.45,1.45,0,0,0,.62-.78,2.41,2.41,0,0,0,0-1.36l.17-.1.77,1.49-.15.08a1.11,1.11,0,0,0-.47-.24,2.05,2.05,0,0,1-.89,1.12,2.09,2.09,0,0,1-1.79.07,2.92,2.92,0,0,1-1.61-1.4,3.09,3.09,0,0,1-.41-2.13,2.07,2.07,0,0,1,1-1.54,1.75,1.75,0,0,1,1.35-.18,3.86,3.86,0,0,0,0-.51Z"/><path class="cls-8" d="M106.15,138l-1.49.91.3,1.57.87-.53.11.18-1.7,1-.11-.17.64-.4-1.1-5.65.11-.07,4.45,3.62.63-.38.11.17-2.23,1.36-.11-.17.76-.47Zm-1.53.69,1.36-.83-1.81-1.48h0Z"/><path class="cls-8" d="M106.78,133.21l3.67-2.89,1.27,1.38-.17.13a2.8,2.8,0,0,0-1.2-.71,1.07,1.07,0,0,0-.88.23l-.35.28,3.14,4,.77-.6.13.16L110.85,137l-.13-.16.77-.61-3.13-4-.35.27a1.08,1.08,0,0,0-.43.8,3,3,0,0,0,.4,1.34l-.16.13Z"/><path class="cls-8" d="M115.58,132.56l-3.7-3.46-.61.65-.15-.14,1.89-2,.15.15-.62.66,3.71,3.46.61-.66.16.14-1.9,2-.15-.15Z"/><path class="cls-8" d="M119.79,127.9a2.29,2.29,0,0,1-1.75,1,2.93,2.93,0,0,1-2-.45,3,3,0,0,1-1.29-1.81,2.37,2.37,0,0,1,.3-2,2.26,2.26,0,0,1,1.69-1,3,3,0,0,1,3.32,2.24A2.33,2.33,0,0,1,119.79,127.9Zm-4.58-3.1a1.61,1.61,0,0,0-.28.79,1.11,1.11,0,0,0,.32.81,9.33,9.33,0,0,0,1.41,1.1,11,11,0,0,0,1.21.72,1.63,1.63,0,0,0,.93.17,1.18,1.18,0,0,0,.81-.59,1.72,1.72,0,0,0,.26-.77,1.1,1.1,0,0,0-.39-.88A9.91,9.91,0,0,0,118,125a5.74,5.74,0,0,0-1.4-.76,1.14,1.14,0,0,0-.8,0A1.51,1.51,0,0,0,115.21,124.8Z"/><path class="cls-8" d="M119,117.46l5,2-.06.16L117.55,121h0l4.72,1.91.34-.86.2.08-.73,1.81-.2-.08.31-.75-4.7-1.91-.33.81-.19-.08.79-1.94,4.52-.92v0l-3.38-1.36-.34.84-.19-.08.73-1.81.19.08Z"/><path class="cls-8" d="M123.68,113.55l-.37,1.7,1.34.87.22-1,.2.05-.43,1.94-.2,0,.16-.74-4.84-3.13,0-.12,5.69-.7.16-.72.2,0-.56,2.55-.21,0,.19-.87Zm-.56,1.58.34-1.55-2.31.28h0Z"/><path class="cls-8" d="M121,107.88l5,.51.12-1.22a2.14,2.14,0,0,0,0-.56.89.89,0,0,0-.22-.43,1.46,1.46,0,0,0-.45-.36,6,6,0,0,0-.76-.3l0-.2,1.77.34-.47,4.58-.21,0,.09-.86-5-.51-.09.86-.21,0,.28-2.74.21,0Z"/><path class="cls-8" d="M121.09,94h1.62v.17c-1,.19-1.48.69-1.48,1.48a1,1,0,0,0,.5.94,4.82,4.82,0,0,0,2.12.3,8.63,8.63,0,0,0,1.81-.13,1.1,1.1,0,0,0,.68-.44,1.22,1.22,0,0,0,.21-.69,1.37,1.37,0,0,0-.37-.92,2.41,2.41,0,0,0-1.19-.67v-.19l1.68.06v.17a1.06,1.06,0,0,0-.45.29,1.93,1.93,0,0,1-.28,2.92,3,3,0,0,1-2,.71,3.12,3.12,0,0,1-2.06-.7,2.08,2.08,0,0,1-.84-1.63,1.77,1.77,0,0,1,.51-1.25,4.5,4.5,0,0,0-.44-.25Z"/><path class="cls-8" d="M126.76,90a2.28,2.28,0,0,1-.89,1.8,2.91,2.91,0,0,1-1.91.74,3,3,0,0,1-2.08-.78A2.37,2.37,0,0,1,121,90a2.25,2.25,0,0,1,.88-1.73,3,3,0,0,1,4,0A2.31,2.31,0,0,1,126.76,90Zm-5.53,0a1.58,1.58,0,0,0,.21.81,1,1,0,0,0,.71.48,8.13,8.13,0,0,0,1.79.13,10.52,10.52,0,0,0,1.4-.07,1.58,1.58,0,0,0,.87-.38,1.18,1.18,0,0,0,.34-.94,1.7,1.7,0,0,0-.21-.79,1.1,1.1,0,0,0-.82-.51,10.66,10.66,0,0,0-1.88-.12,5.72,5.72,0,0,0-1.59.15,1.12,1.12,0,0,0-.63.48A1.45,1.45,0,0,0,121.23,90Z"/><path class="cls-8" d="M121.36,84.3h5.06V83.07a2.22,2.22,0,0,0,0-.57.83.83,0,0,0-.26-.4,1.39,1.39,0,0,0-.48-.3,6.57,6.57,0,0,0-.79-.24v-.19l1.79.15v4.61h-.21v-.86h-5.06v.86h-.21V83.38h.21Z"/><path class="cls-8" d="M121.36,78.37h5.06V77.13a2.18,2.18,0,0,0,0-.56.83.83,0,0,0-.26-.4,1.59,1.59,0,0,0-.48-.31,6.86,6.86,0,0,0-.79-.23v-.19l1.79.15V80.2h-.21v-.86h-5.06v.86h-.21V77.45h.21Z"/><path class="cls-8" d="M121.36,72.4h2.35v-.5a1.84,1.84,0,0,0,0-.44.66.66,0,0,0-.28-.33,1.46,1.46,0,0,0-.7-.17v-.21H125V71a1.35,1.35,0,0,0-.87.26,1,1,0,0,0-.21.68v.5h2.5V71.28A1.79,1.79,0,0,0,126,70a2,2,0,0,0-1.23-.43v-.21l1.83.05v4.87h-.21v-.87h-5.06v.87h-.21V69.57l1.46-.09v.21a1.54,1.54,0,0,0-1,.44,1.61,1.61,0,0,0-.29,1.1Z"/><path class="cls-8" d="M124.8,64.47v.93h-.21V62.56h.21v.8a1.67,1.67,0,0,1,1.5.67,2.44,2.44,0,0,1,.46,1.41,2.23,2.23,0,0,1-.86,1.79,3,3,0,0,1-2,.72,3,3,0,0,1-2-.73,2.31,2.31,0,0,1-.85-1.83,2,2,0,0,1,.33-1.08.6.6,0,0,0,.1-.21q0-.13-.24-.27v-.18l1.49-.06v.21c-1,.23-1.47.76-1.47,1.61a1.31,1.31,0,0,0,.3,1,1.22,1.22,0,0,0,.74.37,8.69,8.69,0,0,0,1.29.07,12.21,12.21,0,0,0,2-.1,1.25,1.25,0,0,0,.73-.41,1.16,1.16,0,0,0,.25-.76,1.32,1.32,0,0,0-.15-.64.64.64,0,0,0-.44-.36,4.42,4.42,0,0,0-.87-.07Z"/><path class="cls-8" d="M121.36,59.61h2.35v-.5a1.84,1.84,0,0,0,0-.44.66.66,0,0,0-.28-.33,1.36,1.36,0,0,0-.7-.16V58H125v.22a1.3,1.3,0,0,0-.87.25,1,1,0,0,0-.21.68v.5h2.5V58.49a1.75,1.75,0,0,0-.39-1.31,2,2,0,0,0-1.23-.44v-.21l1.83,0v4.87h-.21v-.87h-5.06v.87h-.21V56.79l1.46-.1v.21a1.6,1.6,0,0,0-1,.44,1.63,1.63,0,0,0-.29,1.1Z"/><path class="cls-9" d="M131.2,105.9c.06,48.6-42,41-65.08,63.82C43.06,146.93,1,154.5,1.05,105.9c0-19.07,0-57.15,0-81.73C42,20.28,62.84,4.12,66.12,1.37c3.28,2.75,24.15,18.91,65.08,22.8C131.2,48.75,131.17,86.83,131.2,105.9Z"/><path class="cls-8" d="M35.23,27.41a.35.35,0,0,0-.37,0,.23.23,0,0,1-.16,0c-.19,0-.36-.13-.57-.05a.31.31,0,0,1-.36-.22,1.43,1.43,0,0,1-.09-.42c0-.3.07-.61,0-.92a.59.59,0,0,1,0-.23c.05-.14-.11-.39-.25-.46s-.13,0-.16-.1a1.75,1.75,0,0,1-.22-.4c0-.11-.08-.26,0-.35a1.28,1.28,0,0,0,.26-.47,5.81,5.81,0,0,0,.21-.63,1.6,1.6,0,0,1,.11-.47c.09-.17,0-.31-.18-.35s-.27.06-.4.08a.48.48,0,0,0-.41.27,1.8,1.8,0,0,1-.33.45,2.6,2.6,0,0,0-.44.54.36.36,0,0,0-.07.1.19.19,0,0,0,0-.13s0-.05,0-.06a.32.32,0,0,1-.05-.43,2.5,2.5,0,0,0,.09-.25c.05,0,0-.1.06-.15a.24.24,0,0,0,.08-.06,2.73,2.73,0,0,1,.48-.65,1.09,1.09,0,0,1,.46-.36c.05,0,.12,0,.1-.1a.12.12,0,0,0-.17-.1l-.23.06c-.1,0-.22.16-.21-.08,0,0,0,0,0,0s-.09-.12-.07-.19a.88.88,0,0,1,.12-.28c.05-.06.11-.14.09-.21a.3.3,0,0,1,.15-.32s.07-.06.06-.11-.06-.05-.1-.06-.2,0-.31,0-.13,0-.19,0l-.15.08a2.64,2.64,0,0,1-.27.46c-.19.24-.41.46-.59.7a3.65,3.65,0,0,1-.29.37.29.29,0,0,0-.13.22.25.25,0,0,1-.17.26c-.18.07-.11.18-.07.27s.12.05.19,0,.06,0,.09,0a.56.56,0,0,0,.34-.27,3.91,3.91,0,0,0,.26-.59l.12-.09a3.22,3.22,0,0,1,.34-.56.19.19,0,0,1,.26,0c.09,0,0,.14,0,.2s-.16.28-.23.42-.07.1,0,.15a.45.45,0,0,1-.07.47l-.19.27c-.17.25-.34.5-.52.74s-.44.57-.66.86-.3.41-.47.61a1.31,1.31,0,0,0-.38.87c0,.25,0,.5,0,.76a2.73,2.73,0,0,0,0,.57.25.25,0,0,0,0,.12v0c0,.06.1.11.07.19s0,0,0,0,0-.13-.06-.19a1.1,1.1,0,0,1-.12-.39.54.54,0,0,0-.06-.25s-.05,0,0,0c0-.18-.07-.34-.12-.5a5.58,5.58,0,0,0-.23-.69c-.06-.12-.09-.26-.15-.38a1.16,1.16,0,0,1-.15-.65.63.63,0,0,0-.06-.48,1.57,1.57,0,0,1-.31-.77c0-.09-.07-.1-.13-.09a.23.23,0,0,0-.2.2,2,2,0,0,0,.05.78c.13.47.25.93.34,1.41s.26,1,.39,1.46a.58.58,0,0,1,0,.14,1.3,1.3,0,0,0,.2.6.32.32,0,0,1,.06.18,1.18,1.18,0,0,0,.14.45,4.76,4.76,0,0,1,.19.61,1.91,1.91,0,0,0,.12.47,2.2,2.2,0,0,0,.63.76s.08.09.12.05.24-.1.25-.27a.12.12,0,0,1,.07-.11c.09-.07.07-.12,0-.21a1.72,1.72,0,0,1-.31-.72c0-.17,0-.35,0-.52a6.17,6.17,0,0,0,0-1,2.67,2.67,0,0,0-.15-.62A.55.55,0,0,1,30,26a.3.3,0,0,0,0-.28.4.4,0,0,1,0-.19c0-.29.26-.46.42-.67a7.21,7.21,0,0,0,.72-.93.31.31,0,0,1,.23-.17c.08,0,.1,0,.08.08s-.05.22-.09.33a1.11,1.11,0,0,0,0,.84c0,.05.05.1.11.05a.47.47,0,0,0,.24-.35.52.52,0,0,1,.16-.36,1,1,0,0,0,.32-.42,2.58,2.58,0,0,1,.58-.65c.09-.09.22,0,.34,0s0,.05,0,.08a2.4,2.4,0,0,0-.16.52c0,.09,0,.15-.14,0s-.08-.11-.18-.08a.4.4,0,0,0-.29.48c0,.23.2.44.41.4,0,0,.08,0,.08,0s0,.27-.09.38a1.51,1.51,0,0,0-.36.54,3,3,0,0,0-.19,1.16,2.52,2.52,0,0,0,.07.56,2.82,2.82,0,0,0,.43,1,7.64,7.64,0,0,0,.5.66c.22.23.43.48.63.73s.37.56.58.83.32.43.5.62a.23.23,0,0,0,.35-.05.76.76,0,0,0,0-.66c-.07-.15-.1-.3-.16-.45s0-.14,0-.2a2.57,2.57,0,0,1-.24-.5c-.2-.36-.3-.76-.53-1.11a.34.34,0,0,1,0-.43c.11-.09.23,0,.35,0s.16.06.08.19,0,.07,0,.09,0,.22.1.25.09-.1.14-.16.17-.39.34-.54,0-.17,0-.22m-1,2.22a11.71,11.71,0,0,1-.95-1,7.37,7.37,0,0,1-.49-.65,2.44,2.44,0,0,1-.27-.88,3.49,3.49,0,0,1,0-.56c0-.15.1-.29.11-.45a1,1,0,0,0,0-.34.12.12,0,0,1,.12-.14c.07,0,.06.08.06.14a1.29,1.29,0,0,0,.21.66c.06.08.08.17.18.21s0,0,0,.05,0,.16,0,.23a2.54,2.54,0,0,1,0,.39.46.46,0,0,0,.24.41.64.64,0,0,1,.22.27,2.35,2.35,0,0,1,.28.82A1.74,1.74,0,0,0,34,29c0,.19.21.33.24.53s.08.13-.05.13"/><path class="cls-8" d="M116.86,33.68a1.7,1.7,0,0,1-.81.11c-.25,0-.51,0-.75-.09a10.58,10.58,0,0,0-1.13-.15c-.34,0-.67-.09-1-.12s-.64,0-1-.06a.8.8,0,0,1-.72-.66.34.34,0,0,1,0-.1c.09-.19.13-.41.24-.61a1.44,1.44,0,0,0,.21-.73c0-.25-.21-.35-.45-.21a3.09,3.09,0,0,0-.55.4,3.13,3.13,0,0,1-.88.56,2.53,2.53,0,0,0-.49.31,10.08,10.08,0,0,1-1,.7.68.68,0,0,1-.62,0c-.2-.09-.28,0-.35.19a1.47,1.47,0,0,1-.54.82.89.89,0,0,1-.43,0,.39.39,0,0,1,0-.44c.09-.11,0-.19,0-.28a1,1,0,0,1-.09-.22c0-.18.08-.29.19-.39s.25-.34.42-.47.06-.23.16-.33.21-.57.36-.84.15-.31.24-.45a1,1,0,0,0,.17-.38,2.07,2.07,0,0,1,.23-.58,2.39,2.39,0,0,0,.32-.73.29.29,0,0,1,.07-.12,1.56,1.56,0,0,0,.25-.69c0-.08,0-.16,0-.24s.1-.08.16-.05a.78.78,0,0,1,.52.45c0,.11.09.11.17.08.23-.1.47-.17.59-.43a.18.18,0,0,1,.07-.08c.17-.19.19-.25,0-.45a.73.73,0,0,1-.12-.42,4.38,4.38,0,0,1,0-.51c0-.15-.13-.23-.28-.26a1.89,1.89,0,0,1-.52-.18.32.32,0,0,1-.1-.1c-.09-.12-.14-.27-.29-.34a.07.07,0,0,1,0-.11c0-.05.07,0,.11,0a3.5,3.5,0,0,0,.65.08s0,0,.07,0c.18.08.31,0,.44-.11a.17.17,0,0,1,.2,0,2.12,2.12,0,0,1,.37.24.36.36,0,0,1,.1.42,1.17,1.17,0,0,0,.1.95,5.91,5.91,0,0,0,.4.74,1.07,1.07,0,0,1,.18.65s0,.08,0,.09c-.26.14-.43.42-.73.5a2.18,2.18,0,0,1-1,.09c-.08,0-.16-.07-.25-.09-.29-.06-.42,0-.52.3s-.21.43-.3.65a5.23,5.23,0,0,0-.49,1.14.94.94,0,0,1-.1.23c-.17.27-.09.6-.26.9.17,0,.18-.16.25-.24s.07-.11.11-.07.26,0,.35-.07a1.59,1.59,0,0,1,.54-.26,5.83,5.83,0,0,0,1.23-.66,7.44,7.44,0,0,1,.72-.47,1.49,1.49,0,0,0,.49-.24s.13-.07.1-.13a.26.26,0,0,0-.17-.15.56.56,0,0,1-.27-.21.64.64,0,0,1-.16-.29c0-.07,0-.14.07-.14s.29-.15.44-.22a1.51,1.51,0,0,1,.51-.2.29.29,0,0,0,.26-.43c0-.07,0-.1,0-.14s.15-.14,0-.25a3.13,3.13,0,0,1-.68-.68.32.32,0,0,1-.07-.27c0-.09.13-.09.22-.1a6.11,6.11,0,0,1,.73-.05c.22,0,.41-.12.63-.11a.07.07,0,0,0,.05,0s-.08-.3-.14-.3-.13-.06-.06-.17a3.33,3.33,0,0,0,.43-.56,2.47,2.47,0,0,0,.15-.46,1.28,1.28,0,0,0,.06-.34c0-.08.07-.12.15-.06a2.56,2.56,0,0,1,.73.7,1.58,1.58,0,0,1,.14.36.12.12,0,0,1-.06.14,4.87,4.87,0,0,1-.47.32.12.12,0,0,0-.08.14c0,.06.07.05.11.06s.34.05.46-.1.07,0,.11,0c.26,0,.52-.06.78-.11a.72.72,0,0,1,.72.52.13.13,0,0,1-.09.14c-.21.09-.42.2-.64.27a2.7,2.7,0,0,1-.41.08c-.27.06-.53.15-.79.23a3.12,3.12,0,0,0-.7.26.29.29,0,0,1-.24,0,.27.27,0,0,0-.4.18c0,.12,0,.11.09.13a.62.62,0,0,1,.43.43.65.65,0,0,1,0,.34c0,.07,0,.09,0,.12a1.15,1.15,0,0,1,.35.31.16.16,0,0,1,0,.25,11.24,11.24,0,0,1-1.19.74.3.3,0,0,0-.16.3.78.78,0,0,0,.16.47c0,.06,0,.13,0,.2a1.62,1.62,0,0,1-.2.92l0,.09c0,.23-.11.31.25.32a4.53,4.53,0,0,1,.81.12,4,4,0,0,0,1.42.12.91.91,0,0,0,.78-.67,13.26,13.26,0,0,0,.33-1.35,2,2,0,0,0,0-.23s0-.09.06-.08a.07.07,0,0,1,0,.08c0,.15.06.29,0,.44s0,.13.1.13.16.16.17.25,0,.38,0,.57a2.15,2.15,0,0,0,.07.67,5.35,5.35,0,0,1,.17.69c0,.05,0,.1,0,.14Z"/><path class="cls-8" d="M86.86,23.28a.14.14,0,0,1,.2.1.2.2,0,0,0,.07.09c.23.17.17.41.17.63,0,0,0,.08,0,.08-.19,0-.29.18-.43.27a1.92,1.92,0,0,1-.56.22.36.36,0,0,0-.28.22l-.3.74c-.11.27-.21.55-.34.81a.76.76,0,0,1-.64.41.21.21,0,0,1-.2-.11.55.55,0,0,0-.4-.37.07.07,0,0,1-.06,0c0-.19-.22-.2-.32-.33A.24.24,0,0,1,84,26c.42.18.6.07.85-.3.11-.16.14-.36.24-.53a.26.26,0,0,0-.26-.37c-.25,0-.44-.18-.68-.17a.06.06,0,0,1,0-.06.06.06,0,0,1,.07-.05c.11,0,.22,0,.33-.06.28,0,.56,0,.84-.06.11,0,.22-.07.24-.13s-.06-.18-.17-.21-.33-.26-.49-.39a.09.09,0,0,1,0-.11s0,0,.09,0c.27,0,.54,0,.81,0,.12,0,.23,0,.23-.18a.18.18,0,0,1,0-.09c.09-.14,0-.25-.13-.29l-.38-.08a.45.45,0,0,1-.31-.19.16.16,0,0,0-.13-.06c-.07,0-.11,0-.11-.09s.07,0,.12,0a.28.28,0,0,1,.13,0,2.1,2.1,0,0,0,.79-.06.45.45,0,0,1,.28.05c.12,0,.21,0,.25-.11a.2.2,0,0,0-.17-.28L85.2,22a.17.17,0,0,1-.14-.06.91.91,0,0,0-.24-.24.07.07,0,0,1,0-.08s.06,0,.1,0c.26.11.5,0,.75-.05s.09-.1,0-.16a1,1,0,0,1-.11-.1c-.07-.11,0-.18.09-.2s.35-.27.28-.42-.18-.12-.3-.11a1.67,1.67,0,0,1-.59,0,.66.66,0,0,1-.36-.41c0-.09,0-.13.12-.13s.4.05.6.06a2,2,0,0,1,.69,0c.09,0,.29-.17.31-.28s0-.12,0-.17.07-.2.2-.09a1,1,0,0,1,.23.26.21.21,0,0,0,.23.1,3.13,3.13,0,0,1,.44,0c.08,0,.22,0,.11.15s0,.06,0,.09,0,.07,0,.11-.07,0-.1,0a1.52,1.52,0,0,0-.6,0,.51.51,0,0,0-.42.4c0,.14-.07.26-.08.4a.27.27,0,0,1-.1.16c-.1.08-.06.2-.08.29s0,.06.08.06a3.47,3.47,0,0,0,.78-.15.23.23,0,0,0,.13-.31c0-.1,0-.2-.17-.26s0-.09.06-.09c.24,0,.45-.17.7-.2a.48.48,0,0,0,.38-.32c0-.09.07-.16.2-.15s.13-.12.15-.2a.65.65,0,0,1,.08-.17s0-.1.1-.1.06.07.08.11,0,.05,0,.05c.16.05.17.2.19.32s.09.16.2.1a.37.37,0,0,0,.18-.11c.14-.21.34-.12.52-.13s.26.37.25.43,0,.11-.09.09a.71.71,0,0,0-.46.1,1.53,1.53,0,0,1-.7.16,1.43,1.43,0,0,0-.87.44.82.82,0,0,0-.31.67.21.21,0,0,1-.14.22,1.69,1.69,0,0,0-.53.5.64.64,0,0,0-.09.34.91.91,0,0,1-.17.39c-.08,0-.07.1-.1.15a.72.72,0,0,0-.15.33.72.72,0,0,0,.16-.33s0-.06.09-.07"/><path class="cls-8" d="M86,27.14c-.06,0-.14,0-.13-.1S86,27,86.05,27a.76.76,0,0,0,.47-.37,1.45,1.45,0,0,0,.21-.81c0-.07,0-.15.14-.07A1.14,1.14,0,0,1,87.26,27s0,.06-.05.06c-.27.08-.5.28-.81.26s-.23-.14-.36-.17"/><path class="cls-8" d="M83.64,25.55c.08,0,.2,0,.18.11s-.11.08-.2.08a2.35,2.35,0,0,0-.86.2,3.49,3.49,0,0,1-.71.24.58.58,0,0,1-.43-.18c-.07-.14,0-.29,0-.44s.09-.07.16-.06l.4.09a2.85,2.85,0,0,0,.51,0,3.58,3.58,0,0,0,1.11-.25l.09,0s.08,0,.1,0,0,.05,0,.08-.18.09-.29.17"/><path class="cls-8" d="M45.9,19.54a.4.4,0,0,0-.21.18c-.14.19-.32.35-.46.54s-.41.47-.58.73a1.74,1.74,0,0,0-.2.49c0,.08-.05.16-.14.16s-.12-.07-.15-.13a.69.69,0,0,1,0-.35,1.3,1.3,0,0,1,.29-.67,1.61,1.61,0,0,0,.36-.62c0-.14.18-.22.24-.36.19-.47.43-.92.61-1.39a.83.83,0,0,1,.09-.16c.07-.09.14-.17,0-.21s-.06-.05,0-.08.14-.37.29-.51l0,0a.18.18,0,0,1,.26,0,.21.21,0,0,1,0,.28c-.09.16-.25.27-.29.46a9.9,9.9,0,0,1-.56,1.49c0,.09-.13.23-.05.29s.17-.08.24-.15a1.21,1.21,0,0,1,.76-.32c.12,0,.19,0,.18.17a5.77,5.77,0,0,1,0,.72c0,.1-.1.22,0,.28s.12-.11.23-.1.13,0,.2,0a.38.38,0,0,1,.37.17,2.22,2.22,0,0,1,.47,1.05,3.85,3.85,0,0,1,.21.89,1.35,1.35,0,0,0,.09.33c.1.35.23.69.35,1s.36.74.46,1.14A.4.4,0,0,0,49,25c.07.08.16.13.11.26s.1.06.09.15a.6.6,0,0,1-.48.58,2.13,2.13,0,0,1-1.25,0c-.14,0-.29,0-.43-.05s-.11,0-.1-.08a.14.14,0,0,1,.11-.15,3.41,3.41,0,0,1,.55,0,1.49,1.49,0,0,0,.92-.23s.07-.05,0-.1a5.31,5.31,0,0,0-.25-.8c-.12-.26-.16-.55-.3-.81a4.26,4.26,0,0,1-.25-.93,15.63,15.63,0,0,0-.59-2,1.16,1.16,0,0,0-.25-.29.12.12,0,0,0-.17,0c-.14.13-.32.21-.41.42a8.2,8.2,0,0,1-.75,1.19,1.33,1.33,0,0,0-.27.48,1.87,1.87,0,0,1-.3.62c-.2.29-.42.56-.62.84s-.31.22-.41.39-.12,0-.17,0,0-.13,0-.19.11-.12.15-.19.27-.39.4-.6A3.91,3.91,0,0,1,44.7,23a1,1,0,0,0,.18-.37,3,3,0,0,1,.33-.67,10.12,10.12,0,0,0,.61-1.18,5.73,5.73,0,0,0,.28-.89.45.45,0,0,0,0-.2c0-.18,0-.19-.21-.11"/><path class="cls-8" d="M45.83,22.82a1.64,1.64,0,0,0-.25.61,1,1,0,0,0,0,.38c0,.19-.07.23-.2.27a2,2,0,0,1-.54.07c-.05,0-.11,0-.13,0a.13.13,0,0,1,.05-.16,1.92,1.92,0,0,0,.46-.66c.14-.29.3-.58.46-.86.07-.11.08-.25.15-.36s0-.09.12-.09a.35.35,0,0,0,.24-.08c.11-.07.19,0,.25.08s0,.42,0,.63-.16.54-.19.83c0,.11,0,.16.15.14a1.55,1.55,0,0,1,.48,0c.12,0,.28.1.29.18s.15.31.14.51a1.86,1.86,0,0,1-.16.57,1.32,1.32,0,0,1-.36.58c-.17.14-.27.36-.43.52s-.08.12-.16.08,0-.1,0-.14a7.06,7.06,0,0,1,.28-.89,2.62,2.62,0,0,0,.15-1,.19.19,0,0,0-.3-.12c-.1.07-.19.15-.29.21s-.17.06-.24-.08,0-.52,0-.77a1,1,0,0,0,0-.42"/><path class="cls-8" d="M44.62,18.66a.22.22,0,0,1,0,.18A5,5,0,0,1,44,19.92c-.15.17-.16.43-.28.62s-.29.52-.45.78-.17.44-.28.65a7.62,7.62,0,0,1-.71,1.1c-.08.1-.12.22-.19.32l-.34.5a.79.79,0,0,1-.41.33,2.1,2.1,0,0,1-.85.22s-.1,0-.11-.07a.09.09,0,0,1,0-.11c.41-.16.61-.55.91-.83a4,4,0,0,0,.57-.78c.13-.17.25-.36.39-.53a1.15,1.15,0,0,0,.33-.6.1.1,0,0,1,0-.05,2.64,2.64,0,0,0,.55-.77c.32-.46.61-.94.93-1.41.12-.17.22-.34.34-.5s.06-.12.15-.13"/><path class="cls-8" d="M42.64,17.65a3.39,3.39,0,0,1,1.29-.35c.2,0,.23,0,.18.22a2.7,2.7,0,0,1-.46.81c-.06.09-.2.11-.27.22a.08.08,0,0,1-.1,0c-.05,0,0-.07,0-.1a.51.51,0,0,0,0-.25c0-.1-.07-.12-.15-.08a.33.33,0,0,1-.32,0,.32.32,0,0,0-.16,0,.44.44,0,0,1-.36-.15c-.08-.08-.05-.14,0-.17l.31-.14"/><path class="cls-8" d="M44.23,27.58a.21.21,0,0,1,0-.23.76.76,0,0,0,0-.61.67.67,0,0,1,0-.24.89.89,0,0,0-.08-.33c0-.07,0-.14,0-.17a.11.11,0,0,1,.14.08c0,.19.2.32.25.51s.22.36.26.58a2,2,0,0,1,0,.35c0,.22-.06.33-.22.37s-.29-.08-.37-.22a.36.36,0,0,0,0-.09"/><path class="cls-8" d="M76.1,23.27c0-.11-.06-.18-.18-.16s-.06,0,0,0,0,0,0,0a3.36,3.36,0,0,1,.06-.63c0-.05,0-.14-.06-.16s-.09,0-.1.07a3,3,0,0,0-.08.51,2.32,2.32,0,0,1-.17.78c0,.06,0,.17-.13.16s-.07-.12-.08-.19c0-.38,0-.75,0-1.13a7,7,0,0,0-.19-1.82c0-.16-.11-.36.08-.53l.24-.17a1.29,1.29,0,0,1,.47-.33c.07,0,.16,0,.18-.08s0-.17-.12-.21a.28.28,0,0,1-.14-.2c0-.05,0-.11-.08-.11a.13.13,0,0,0-.11.08.47.47,0,0,1-.28.29.9.9,0,0,0-.27.2c-.1.11-.21.09-.24-.05a1.59,1.59,0,0,1,0-1c.08-.17.15-.34.39-.33.06,0,.1,0,.11-.09s0-.13-.06-.13-.07,0-.07-.1a.11.11,0,0,0-.17-.11s-.07.06-.11.06-.12.11-.19.05,0-.15,0-.23a5.07,5.07,0,0,1,.11-.68c.07-.3,0-.61.08-.91a4.89,4.89,0,0,0,0-.55.9.9,0,0,0-.5-.88c-.09,0-.18,0-.2.1a1.4,1.4,0,0,0,0,.41c0,.16-.06.31,0,.46a1.55,1.55,0,0,1,0,.43,1.79,1.79,0,0,0,0,.73,2,2,0,0,1-.07.74c0,.17-.12.36.06.51s0,.15,0,.2a.65.65,0,0,1-.27.17c-.08,0-.15.11-.24.05s-.13,0-.16.05,0,.08-.06.09a3.65,3.65,0,0,1-.53.25s-.05,0-.07,0,0,0,0-.05a.16.16,0,0,1,0-.19,4,4,0,0,0,.42-.49.23.23,0,0,0,0-.25c0-.1-.14-.07-.23-.06a2.24,2.24,0,0,0-.5.16.15.15,0,0,0-.11.13c0,.07.07.07.12.08s.15.1.08.19-.19.25-.28.37-.27.19-.36.31a2.7,2.7,0,0,1-.76.67s-.08.06-.13,0,0-.08,0-.12a.9.9,0,0,0,0-.36c-.09-.2-.3-.33-.39-.53s-.23-.15-.22-.32-.07-.05-.11,0l-.3.18a1.85,1.85,0,0,1-.76.16,2.73,2.73,0,0,1-.5-.05s-.11,0-.13,0,0,.08.06.11a2.51,2.51,0,0,0,.37.36.76.76,0,0,0,.59.24,1.54,1.54,0,0,0,.65-.3.15.15,0,0,1,.13,0s.06,0,0,.07,0,.17,0,.21a.79.79,0,0,0-.23.58c0,.22-.13.29-.36.3l-.09,0a1.55,1.55,0,0,0-.43.29,8.09,8.09,0,0,0-.56.61,3.33,3.33,0,0,0-.43.56.92.92,0,0,1-.44.41.53.53,0,0,0-.33.4c0,.1-.11.25,0,.33a.42.42,0,0,0,.49,0,6.7,6.7,0,0,0,.81-.69.47.47,0,0,1,.19-.12.15.15,0,0,1,.23.12l.09.57c0,.14.1.18.21.2a.48.48,0,0,0,.52-.38c0-.09.15-.11.11-.22a.36.36,0,0,1,0-.27,1.52,1.52,0,0,0,.15-.66,2.67,2.67,0,0,1,.15-.68.69.69,0,0,1,.45-.43,1,1,0,0,0,.5-.24.25.25,0,0,1,.33,0c.11.09,0,.21,0,.3a1.16,1.16,0,0,0-.14.58.48.48,0,0,1,0,.23c-.07.22-.24.39-.23.63a.23.23,0,0,1-.11.2c-.14.11-.16.22,0,.33a.16.16,0,0,1,.05.1c0,.07.06.08.14.1s.24,0,.36,0a8.26,8.26,0,0,0,1,.08c.16,0,.47-.18.5-.33s0-.27,0-.41.06-.44.06-.67.08-.35.33-.39l.39-.05c.21,0,.33.05.34.26s.11.63.14.95,0,.71,0,1.06,0,.4,0,.6a5.68,5.68,0,0,1,.1,1.23.34.34,0,0,0,.19.34c.15.07.23,0,.32-.11l.1-.1a2.32,2.32,0,0,0,.61-1.13,1.45,1.45,0,0,0,0-.55m-3.8-1.62a.22.22,0,0,0-.16.15.25.25,0,0,1-.3.18.07.07,0,0,1-.06-.08s0-.08,0-.11a.39.39,0,0,0,0-.24.57.57,0,0,0,.11-.27c0-.05.09-.12.15-.1s.29,0,.38.16a.19.19,0,0,1-.11.31m.78-1.12c-.09.14-.11.32-.26.43a.1.1,0,0,0,0,.13.25.25,0,0,1,0,.19l0,.06c-.08,0,0-.07,0-.11s0-.17-.1-.17-.07,0,0-.07a1.54,1.54,0,0,0,.17-.19s.06-.08,0-.13a.09.09,0,0,0-.13,0,1,1,0,0,1-.34.09.24.24,0,0,0,.1-.27c0-.13.12-.08.19-.1s.12,0,.15-.05,0-.09-.07-.13,0-.05,0-.07a.18.18,0,0,1,.27.05.16.16,0,0,0,0,.08c.18.07.14.15.06.28"/><path class="cls-8" d="M76.2,15.9a1,1,0,0,1,.56.23c.16.1.29.23.44.34a.36.36,0,0,1,.16.28c0,.1,0,.17-.13.15s0,0-.06,0c-.06.24-.3.21-.45.3h0a.68.68,0,0,1-.52-.46.69.69,0,0,0-.15-.28.76.76,0,0,1-.11-.48c0-.1.08-.15.19-.13l.12,0"/><path class="cls-8" d="M71.61,18.73a1.61,1.61,0,0,1,.3-.58,1.13,1.13,0,0,0,.16-.26c.05-.12-.06-.18-.12-.26s-.12-.17-.06-.28.15-.14.28-.14a1.31,1.31,0,0,0,1-.39c.13-.12.28-.13.35,0s0,.12,0,.14c-.23,0-.38.22-.58.3l-.36.17a.25.25,0,0,0-.16.34.46.46,0,0,1-.16.43,3.21,3.21,0,0,0-.34.48.44.44,0,0,1-.14.16s-.08,0-.11,0a.07.07,0,0,1,0-.1"/><path class="cls-8" d="M73.61,16.09s-.07,0-.11,0a4,4,0,0,0-.5.42.08.08,0,0,1-.12,0s-.06,0-.09,0-.09.07-.14,0,0-.1,0-.16a3.09,3.09,0,0,0,.31-.6c.05-.25.22-.31.43-.16a.86.86,0,0,1,.32.28.15.15,0,0,1,0,.16s-.07,0-.1,0"/><path class="cls-8" d="M98.8,27.24c.11,0,.2,0,.21.13s.09.11.16.12a1.23,1.23,0,0,1,.49.16.4.4,0,0,0,.35,0c.51-.15,1,.45.93.82a.11.11,0,0,1-.08.12.78.78,0,0,1-.58,0,1.73,1.73,0,0,1-.36-.18.72.72,0,0,0-.64-.12,1.19,1.19,0,0,1-.42,0c-.2,0-.35,0-.43.26,0,.12-.16.18-.19.31a2.11,2.11,0,0,1-.27.59,6.42,6.42,0,0,0-.3.66,4.37,4.37,0,0,0-.29.57.45.45,0,0,1-.3.33c-.13,0-.22.14-.37.14s-.37-.21-.46-.41a4.35,4.35,0,0,0-.66-1.09,3.12,3.12,0,0,1-.47-.76s-.07-.09,0-.12.09,0,.13.05a2.56,2.56,0,0,0,1,.9c.15.07.3.17.46.24s.22,0,.25-.13a.39.39,0,0,1,.21-.34.33.33,0,0,0,.17-.23.45.45,0,0,1,.11-.19,2.47,2.47,0,0,0,.4-.61c.09-.15,0-.27-.16-.28a.92.92,0,0,1-.74-.4.52.52,0,0,1-.11-.19c-.06-.21,0-.22.17-.24a2.66,2.66,0,0,1,.69,0,2.71,2.71,0,0,1,.39.17.31.31,0,0,0,.39-.1,1.12,1.12,0,0,0,.2-.33.18.18,0,0,1,0-.09s.09-.08.14-.05,0,.08,0,.13-.09.1-.07.18"/><path class="cls-8" d="M100.18,26.43a2.47,2.47,0,0,0-.39,0,2.14,2.14,0,0,1-.8-.07,2.38,2.38,0,0,0-.38,0,3.12,3.12,0,0,0-.75.06c-.18,0-.33,0-.5,0-.42.08-.85.12-1.28.17a2.36,2.36,0,0,1-1.12,0,1,1,0,0,1-.58-.67.19.19,0,0,1,.25-.23,4.62,4.62,0,0,0,1.15.29,2.84,2.84,0,0,0,.82.06,2.34,2.34,0,0,1,.75.08c.42.06.84,0,1.25,0a12.81,12.81,0,0,1,1.75.07,3.68,3.68,0,0,1,.57.15.68.68,0,0,1,.44.68c0,.06,0,.09-.08.1a7,7,0,0,1-1.44.07s-.08,0-.08,0-.07-.13-.15-.14-.07,0-.07-.07,0-.07.06-.08a.29.29,0,0,1,.16,0,.63.63,0,0,0,.44-.12c.11-.06.11-.15,0-.22"/><path class="cls-8" d="M103.94,24.75a1.16,1.16,0,0,0-1-.62c-.29,0-.58,0-.87-.06,0,0-.11,0-.13-.07a.43.43,0,0,1,.13-.47c.26-.1.51-.25.78-.33.08,0,.18,0,.19-.12s.08-.25-.06-.34,0-.07,0-.12,0-.09,0-.1a.11.11,0,0,0-.13.05.26.26,0,0,1-.16.13.51.51,0,0,0-.29.13A1.32,1.32,0,0,1,102,23a3,3,0,0,0-.55.24.38.38,0,0,1-.35.1c-.16-.07-.34-.09-.51-.15s-.11,0-.15,0,0,.08.06.11.09.27-.11.32l-.14,0s-.12,0-.11.09a.1.1,0,0,0,.09.11c.08,0,.1,0,.06.11a.08.08,0,0,0,0,.08c.11.1,0,.16,0,.19a1.17,1.17,0,0,1-.45.06c-.06,0-.13,0-.13-.1a1.9,1.9,0,0,1,0-.41.47.47,0,0,0-.11-.43.92.92,0,0,1-.22-.26.1.1,0,0,0-.12-.06.09.09,0,0,0,0,.13.76.76,0,0,1-.08.49.13.13,0,0,1-.12.11s-.11,0-.13.07,0,.12.08.16,0,.17,0,.24-.1,0-.15,0a.6.6,0,0,0-.23,0c-.16.06-.26,0-.3-.17s0-.18-.1-.21a.19.19,0,0,1-.14-.22c0-.05,0-.08-.06-.08s-.08,0-.08.06a1.68,1.68,0,0,1-.25.71.31.31,0,0,0,0,.33c.21.28.48.21.75.17s.34-.2.55-.17.11-.13,0-.21-.09,0,0-.1.08,0,.12,0,.27.16.41.23.11.15,0,.18A4.25,4.25,0,0,1,99,25c-.05,0-.15,0-.13.08s.11.06.17.06a3.9,3.9,0,0,0,.46-.12.24.24,0,0,0,.14-.05s0,0,0,0a.22.22,0,0,0-.13.18c.1.08.2,0,.29,0s.14,0,.17.05a.74.74,0,0,0,.48.38c.11,0,.19,0,.18-.14a1.57,1.57,0,0,0-.08-.31.36.36,0,0,1,.13-.4,4.66,4.66,0,0,1,.6-.28,1.74,1.74,0,0,1,.8-.24h.46a1.62,1.62,0,0,1,.71.15.18.18,0,0,1,.11.16c0,.08-.06.1-.11.13-.25.14-.5.3-.76.43a.65.65,0,0,1-.56.05c-.08,0-.14,0-.15.07s-.09.14-.19.16-.17,0-.19.06c-.08.27-.29.11-.43.15s-.06,0-.1,0-.1,0-.11.07.06.06.1.08.16,0,.17.09.09.13.18.13a2.81,2.81,0,0,1,.49.05.58.58,0,0,0,.54-.07,1.45,1.45,0,0,1,.35-.24,6.52,6.52,0,0,0,.89-.5,1,1,0,0,1,.34-.18.22.22,0,0,0,.13-.28"/><path class="cls-8" d="M20.74,25.35a.3.3,0,0,0-.14-.26.3.3,0,0,1-.17-.33c0-.13.19-.15.31-.18a2.67,2.67,0,0,1,1.16,0c.3,0,.3.15.16.41s-.55.54-.78.85c-.07.08-.18.13-.24.22s-.12.05-.13,0a2.12,2.12,0,0,0-.17-.69"/><path class="cls-8" d="M22.87,28.25a.63.63,0,0,0-.92-.14,1,1,0,0,0-.29.87c0,.11.07.19.19.13s.14,0,.16,0a1.06,1.06,0,0,1,.1.93c-.08.23-.13.46-.22.69a3.44,3.44,0,0,1-.37.68c0,.06-.09,0-.13,0a.47.47,0,0,0-.25-.19.32.32,0,0,1-.21-.3.29.29,0,0,0-.17-.26.39.39,0,0,1-.23-.35.64.64,0,0,0-.13-.4,2.12,2.12,0,0,1-.47-.73c-.3-.57-.58-1.15-.84-1.73-.05-.12-.17-.27,0-.42s0-.14,0-.21-.08,0-.13,0-.17,0-.21-.08c-.13-.29-.32-.56-.43-.85s-.21-.4-.3-.6-.27-.67-.39-1a.16.16,0,0,0-.2-.13,1.71,1.71,0,0,0-.38.13.55.55,0,0,0-.31.83.87.87,0,0,1,.05.22c0,.25,0,.25-.26.28a.85.85,0,0,0-.64.28,3,3,0,0,0-.36.51.38.38,0,0,0-.08.3s0,.08.06.09a.1.1,0,0,0,.1,0c0-.1.12-.1.2-.1a6,6,0,0,0,.74-.07,4.75,4.75,0,0,0,.64-.2.34.34,0,0,1,.39.14l.51,1.06a.14.14,0,0,1-.06.21,1.12,1.12,0,0,0-.38.4,2,2,0,0,1-.47.49c-.15.1-.33.18-.39.37s-.06.06-.09.09-.41.26-.52.5a3,3,0,0,1-.58.79c-.27.29-.55.56-.85.83a.56.56,0,0,0-.2.41c0,.06,0,.12.07.14s.07,0,.09-.07a.17.17,0,0,1,.14-.08.74.74,0,0,0,.26-.1l.59-.49a3.11,3.11,0,0,1,.49-.39c.11-.06.24,0,.22.1a1.15,1.15,0,0,1-.15.54.3.3,0,0,0,0,.23.42.42,0,0,1-.12.34,1,1,0,0,0-.28.65c0,.14,0,.26-.14.33s-.06.11-.06.17a1.16,1.16,0,0,1-.21.67.87.87,0,0,0-.14.27,1.86,1.86,0,0,0,.17.9c.06.11.12.25.28.09h.06a.47.47,0,0,0,.43-.24,1.26,1.26,0,0,1,.28-.33c.08-.07.17-.13.25-.21s.37-.47.59-.68.51-.51.78-.74a6.68,6.68,0,0,1,.74-.67c.1-.06.08-.14,0-.19a2.1,2.1,0,0,0-.26-.13c-.1,0-.12-.11-.07-.19s.07-.11.12-.17.33-.24.45-.4a1.34,1.34,0,0,0,.32-.86s0-.11.06-.12.08,0,.1.08a1,1,0,0,0,.44.48c.07.05.16.13.14.22a.21.21,0,0,0,.15.25.31.31,0,0,1,.19.32.28.28,0,0,0,.17.25,1.23,1.23,0,0,1,.47.49,1.19,1.19,0,0,0,.38.5c.11.07.21.12.22.26a.1.1,0,0,0,.11.08,1.65,1.65,0,0,0,.43-.09.36.36,0,0,0,.1-.55.33.33,0,0,1-.09-.21,1.51,1.51,0,0,1,.11-.66c.23-.7.47-1.39.63-2.11a1.45,1.45,0,0,0-.1-1.08m-4.44.8a.43.43,0,0,0-.07.36,1.93,1.93,0,0,1,0,.83s0,.08,0,.09c-.19.09-.23.28-.29.45s-.22.25-.34.34a.81.81,0,0,0-.36.89.32.32,0,0,0,.1.19c.16.09.07.17,0,.24l-.6.53a.16.16,0,0,0-.07.07c0,.07-.13.14-.2.12s-.09-.15-.13-.24.08-.47.15-.7.26-.5.36-.77a11.59,11.59,0,0,0,.33-1.15.94.94,0,0,1,.18-.36,1.6,1.6,0,0,0,.38-.7.81.81,0,0,1,.18-.31.26.26,0,0,1,.38-.09c.1.05.13.12.06.21"/><path class="cls-8" d="M57.69,19.89a12.09,12.09,0,0,1-.31,2.34,1,1,0,0,1-.22.42c-.1.1-.15.09-.21,0l-.35-.78a.2.2,0,0,1,0-.2l.9-1.77c0-.06,0-.19.15-.16s0,.14,0,.19"/><path class="cls-8" d="M60.73,24.4c-.07,0-.16,0-.2,0a.21.21,0,0,1,0-.23c.17-.17.15-.32,0-.52a6.86,6.86,0,0,1-.47-.79c0-.05-.08-.09,0-.16s.12-.05.19,0a1.53,1.53,0,0,1,.5.34,5,5,0,0,1,.7.83.3.3,0,0,1-.12.43,1.23,1.23,0,0,1-.65.16"/><path class="cls-8" d="M61.93,14.73c0-.08-.07-.09-.15-.06a12.22,12.22,0,0,0-1.55.62,2.57,2.57,0,0,0-.78.53.52.52,0,0,0-.17.41c0,.14.1.2.23.17l.45-.11c0,.1-.05.19-.07.27a5.73,5.73,0,0,1-.48,1.27.83.83,0,0,1-.45.45c-.16,0-.12.13-.12.22s.11.06.17.08a.69.69,0,0,0,.25,0l.7-.2c.15,0,.21,0,.19.17-.16,1-.33,1.94-.5,2.9,0,.21-.08.22-.24.08a1.64,1.64,0,0,0-.72-.36c-.09,0-.19,0-.28-.06l.57-.63a.19.19,0,0,0,0-.31.69.69,0,0,0-.32-.16c-.15-.05-.16-.08-.08-.21l.24-.36a.11.11,0,0,0,0-.15.59.59,0,0,0-.66-.33.48.48,0,0,1-.12,0c-.1,0-.14.07-.08.16a.31.31,0,0,0,.09.11.3.3,0,0,1,.11.32c0,.29-.07.57-.11.85,0,.12-.05.23.08.31s0,.07,0,.09a.4.4,0,0,0,0,.54,1.26,1.26,0,0,0,.28.19c.18.1.18.1,0,.26l0,0a16.16,16.16,0,0,1-1.68,1.73.31.31,0,0,0-.11.23c0,.17.12.24.21.34s.23.22.42,0l1.67-2c.1-.12.17-.15.3,0a1.15,1.15,0,0,0,.61.28.21.21,0,0,0,.17,0,.8.8,0,0,0,.44-.63c0-.14.06-.29.08-.43.17-.92.3-1.84.42-2.76,0-.11,0-.19.18-.21a.43.43,0,0,0,.27-.19,1.63,1.63,0,0,0,.31-.6,9.29,9.29,0,0,0,.35-1.82,1.27,1.27,0,0,0-.15-.95M60.33,18a1.61,1.61,0,0,1-.71.14,3.09,3.09,0,0,1,.88-.59c.17.34.17.35-.17.45m.67-.8c0,.17-.18.07-.27.07s0-.09,0-.13a5.2,5.2,0,0,0,.18-1.41.08.08,0,0,1,.07-.1l.49-.12c-.15.58-.28,1.14-.43,1.69"/><path class="cls-8" d="M58.84,14.65a.77.77,0,0,0-.56.18c-.3.35-.61.69-.94,1a2.65,2.65,0,0,1-.66.54.27.27,0,0,0-.17.19,15.07,15.07,0,0,1-.9,2.34.55.55,0,0,0,0,.53.28.28,0,0,0,.26.16.88.88,0,0,0,.74-.23c.12-.12.27-.21.4-.32a3.5,3.5,0,0,0,.82-.81c.08-.13.13-.24.28-.09a.11.11,0,0,0,.09,0c.14,0,.14,0,.18,0s.37-.33.3-.63a1.4,1.4,0,0,1,0-.29,1.93,1.93,0,0,0-.16-.67.45.45,0,0,0-.28-.26s-.09,0-.1-.06,0-.07.07-.1l.44-.35a1.38,1.38,0,0,0,.45-.61c0-.13-.17-.53-.29-.51m-1,3.08-.71.28c-.08,0-.11,0-.11-.07,0-.39,0-.78-.08-1.17,0-.05,0-.09.06-.1l.92-.13c-.15.2,0,.39,0,.57a3.59,3.59,0,0,0,.05.46.13.13,0,0,1-.1.16"/></g></g></svg>