<?xml version="1.0" encoding="UTF-8"?><svg id="b" xmlns="http://www.w3.org/2000/svg" xmlns:xlink="http://www.w3.org/1999/xlink" viewBox="0 0 201.0286 213.559"><defs><clipPath id="d"><rect x="69.365" y="51.7798" width="62.529" height="62.051" fill="none" stroke-width="0"/></clipPath></defs><g id="c"><path d="M176.7152,65.101s-7.814-15.801-5.756-29.1c.078-.464.113-.743.188-1.187.327-1.984-1.033-4.237-4.48-4.419-32.294-.559-48.155-5.8-65.42-18.528l-.732-.543-.734.543c-17.264,12.728-33.125,17.969-65.42,18.528-3.447.182-4.806,2.435-4.478,4.419.072.444.107.723.186,1.187,2.06,13.299-5.754,29.1-5.754,29.1-15.886,40.845-18.294,73.362-6.955,94.034,9.161,16.736,25.532,23.138,37.672,25.584l2.052.392c13.133,2.612,30.215,6.485,43.43,17.318,13.215-10.833,30.297-14.706,43.431-17.318l2.051-.392c12.141-2.446,28.512-8.848,37.672-25.584,11.34-20.672,8.932-53.189-6.953-94.034" fill="#231e5f" stroke-width="0"/><path d="M185.4961,60.164l-.543-1.411c-2.939-7.324-6.037-14.231-3.832-29.04.147-.717.235-1.534.263-2.048.184-3.413-3.335-6.853-7.52-6.842l-1.312-.059c-33.504-.588-51.346-5.697-70.872-20.114,0,0-.727-.65-1.159-.65-.433,0-1.172.65-1.172.65-19.527,14.417-37.368,19.526-70.872,20.114l-1.311.059c-3.904-.028-8.129,3.275-7.45,7.607.079.509.093.97.24,1.688,2.183,14.256-1.032,21.413-3.88,28.635l-.545,1.411C-2.1829,105.71-4.8019,142.106,7.9711,165.381c10.439,19.064,29.025,26.346,42.783,29.107l2.251.442c14.28,2.838,32.049,6.361,46.286,18.027,0,0,.62.602,1.223.602s1.225-.602,1.225-.602c14.236-11.666,32.003-15.189,46.285-18.027l2.252-.442c13.757-2.761,32.342-10.043,42.782-29.107,12.772-23.275,10.154-59.671-7.562-105.217M189.8431,163.627c-9.755,17.814-27.285,24.664-40.277,27.27l-2.242.439c-14.344,2.85-32.08,6.354-46.81,17.922-14.73-11.568-32.465-15.072-46.81-17.922l-2.241-.439c-12.992-2.606-30.523-9.456-40.277-27.27C-1.0529,141.311,1.6341,106,18.9451,61.49l.541-1.408c3.02-7.651,6.44-15.331,4.078-30.624,0,0-.74-4.588,4.538-5.022h.278c33.881-.588,52.273-5.712,72.134-20.097,19.863,14.385,38.254,19.509,72.135,20.097h.278c4.938.394,4.597,4.568,4.597,4.568-2.475,15.669.999,23.427,4.019,31.078l.541,1.408c17.311,44.51,19.997,79.821,7.759,102.137" fill="#231e5f" stroke-width="0"/><path d="M156.2298,143.1425c3.142-3.514,2.901-10.18,3.479-14.555.925-7.029-.02-7.449,6.802-9.406,6.675-1.909-2.942-4.239-4.928-5.296-5.461-2.89-5.754.529-6.577.244-4.127-1.39-6.646.371-6.646.371,2.49,1.323,3.828,2.928,5.795,2.135-2.374,8.144-3.774,15.691-12.892,18.45-6.749,2.045-14.808,3.26-20.935,6.862-4.708,2.75-3.466,4.179-3.466,8.633,0,5.97-4.726,6.412-7.805,10.033-1.982,2.328-3.171,6.066-4.596,8.789-1.234,2.367-3.404,1.998-3.947,4.072-.543-2.074-2.657-1.705-3.894-4.072-1.414-2.723-2.604-6.461-4.586-8.789-3.078-3.621-7.81-4.063-7.81-10.033,0-4.454,1.237-5.883-3.46-8.633-6.141-3.602-14.188-4.817-20.941-6.862-9.118-2.759-10.405-9.826-12.774-17.969,2.061-.061,3.706-.92,4.91-2.616-2.011-.117-4.023-.232-6.025-.351,2.383-1.369,4.757-2.727,7.141-4.094.572-.324,5.756-6.566,3.634-6.846-.713-.097-4.74,6.582-4.74,4.395,0-.412,1.369-3.572.279-3.572-1.992,0-1.933,6.664-5.032,6.664-1.542,0,1.743-5.558.201-5.558-.875,0-5.124,7.896-7.909,8.747-2.648,1.283-11.613,3.387-4.937,5.296,6.827,1.957,5.878,2.377,6.803,9.406.572,4.375.337,11.041,3.479,14.555-1.176-.188-13.968-2.801-12.544-.215-.316.842,3.412,6.694,4.131,7.516,1.918,3.494,5.887,4.062,9.494,4.219-1.508-5.54-6.925-3.143-8.926-8.918,4.263.793,8.324,1.019,12.674,1.839l.377.11c5.952,2.455,20.819,2.34,23.291,6.949,2.271,4.219,6.059,6.254,10.389,7.75,7.584,2.596,9.577,11.006,16.775,13.439.001.01,0,.01,0,0,7.205-2.431,9.245-10.843,16.834-13.439,4.336-1.496,8.117-3.531,10.379-7.75,2.482-4.609,17.354-4.494,23.301-6.949l.371-.11c4.361-.82,8.424-1.046,12.681-1.839-2.008,5.775-7.425,3.378-8.922,8.918,3.606-.157,7.571-.725,9.493-4.219.709-.822,4.435-6.674,4.121-7.516,1.43-2.586-11.368.027-12.542.215" fill="#f9a533" stroke-width="0"/><path d="M128.4818,66.2183c-2.188.01-4.258.451-6.182,1.203l-10.561,4.524,4.718-11.291c.749-1.915,1.171-3.999,1.156-6.197-.03-9.366-7.659-16.942-17.026-16.897-9.372.029-16.942,7.658-16.905,17.029.016,2.19.446,4.274,1.205,6.191l5.294,11.507-11.573-4.704c-1.922-.75-4.008-1.16-6.195-1.15-9.371.034-16.944,7.654-16.903,17.021.043,9.382,7.662,16.942,17.03,16.908,2.188-.01,4.272-.451,6.197-1.214l10.768-4.455-4.452,10.255c-.738,1.922-1.164,4.006-1.158,6.193.038,9.367,7.657,16.943,17.029,16.913,9.368-.041,16.944-7.664,16.899-17.034,0-2.181-.43-4.271-1.204-6.189l-4.302-10.057,10.102,4.214c1.922.748,4.007,1.173,6.195,1.169,9.377-.04,16.943-7.66,16.908-17.041-.03-9.367-7.664-16.932-17.04-16.898" fill="#ee4023" stroke-width="0"/><g opacity=".8"><g clip-path="url(#d)"><path d="M131.8939,52.019c-17.135-.191-31.185,13.535-31.38,30.67,17.123.2,31.184-13.537,31.38-30.67" fill="#f9a533" stroke-width="0"/><path d="M100.514,82.687c-.068-17.135-14.006-30.98-31.149-30.906.073,17.134,14.006,30.974,31.149,30.906" fill="#f9a533" stroke-width="0"/><path d="M69.5999,113.8311c17.133-.059,30.973-14.009,30.914-31.142-17.143.068-30.978,14.017-30.914,31.142" fill="#f9a533" stroke-width="0"/><path d="M131.429,113.8311c-17.134-.059-30.973-14.009-30.915-31.142,17.144.068,30.978,14.017,30.915,31.142" fill="#f9a533" stroke-width="0"/></g></g></g></svg>