<?xml version="1.0" encoding="UTF-8"?><svg id="b" xmlns="http://www.w3.org/2000/svg" viewBox="0 0 357.1785 353.7781"><g id="c"><path d="M178.5893,1.0578h.0036v.0035c49.0084,0,93.3887,19.685,125.5151,51.5012,32.1228,31.8197,51.9989,75.7744,51.9989,124.3211h.0036v.0073h-.0036c0,48.5465-19.8761,92.5049-52.0025,124.3246-32.1228,31.8162-76.503,51.4975-125.5115,51.4975v.0073h-.0036v-.0073c-49.0121,0-93.3888-19.6813-125.5152-51.501C20.9477,269.3959,1.0752,225.4412,1.0716,176.8945h-.0036v-.0073h.0036c.0036-48.5503,19.8761-92.5087,52.0025-124.3246C85.2005,20.7464,129.5772,1.0651,178.5856,1.0613v-.0035h.0036Z" fill="#202a6b" stroke-width="0"/><path d="M178.5929,2.9539v.0073h-.0073v-.0073c-48.4904.0038-92.3974,19.4767-124.1836,50.9545C22.6194,85.3862,2.9576,128.8686,2.9576,176.8872h.0037v.0073h-.0037c0,48.0113,19.6618,91.4937,51.4444,122.9715,31.7826,31.4813,75.6932,50.9545,124.1873,50.9545v-.0073h.0037v.0073c48.4904,0,92.3974-19.4732,124.1836-50.9545,31.7826-31.4778,51.448-74.9602,51.448-122.975h-.0073v-.0073h.0073c0-48.0151-19.6655-91.4975-51.448-122.9753C270.9939,22.4306,227.0833,2.9539,178.5929,2.9539ZM178.5893,0h.0037v.0035C227.8962.0035,272.5434,19.807,304.8631,51.8146c32.316,32.0112,52.3117,76.2302,52.3117,125.069h.0037v.0073h-.0037c0,48.8386-19.9957,93.0614-52.3154,125.0726-32.316,32.0076-76.9633,51.8073-126.2666,51.8073v.0073h-.0037v-.0073c-49.3069,0-93.9506-19.7997-126.2703-51.8108C19.9993,269.9524.0073,225.7333.0037,176.8945h-.0037v-.0073h.0037c.0036-48.8424,19.9956-93.0652,52.3153-125.0726C84.6386,19.807,129.2823.0073,178.5856.0035v-.0035h.0037Z" fill="#fff" stroke-width="0"/><path d="M178.5892,7.5307c94.4248,0,171.0022,75.8384,171.0022,169.3584s-76.5774,169.3584-171.0022,169.3584S7.5871,270.4091,7.5871,176.8891,84.1644,7.5307,178.5892,7.5307" fill="#005f3e" fill-rule="evenodd" stroke-width="0"/><path d="M178.5911,8.9546v.0073h-.0073v-.0073c-46.8195,0-89.2122,18.8028-119.9001,49.1952-30.6879,30.3957-49.6745,72.3775-49.6745,118.7392h.0072v.0037h-.0072c.0036,46.3615,18.9866,88.3433,49.6745,118.7357,30.6879,30.3922,73.0843,49.195,119.9038,49.195v-.0035h.0036v.0035c46.8194,0,89.2122-18.8028,119.9001-49.195,30.6915-30.3924,49.6745-72.3777,49.6745-118.7357h-.0072v-.0073h.0072c0-46.3582-18.983-88.34-49.6709-118.7322-30.6879-30.3959-73.0843-49.1987-119.9037-49.1987M178.5875,6.0996h.0036v.0073c47.6053,0,90.7082,19.1163,121.9151,50.0242,31.2034,30.9042,50.5073,73.5997,50.5073,120.7544h.0072v.0073h-.0072c0,47.1547-19.3039,89.8538-50.5108,120.7579-31.2034,30.9042-74.3063,50.0207-121.9116,50.0242v.0035h-.0036v-.0035c-47.6053-.0035-90.7119-19.1201-121.9153-50.0242-31.207-30.9077-50.5108-73.6032-50.5108-120.7579h-.0036v-.0037h.0036c0-47.1582,19.3038-89.8538,50.5108-120.7579C87.8757,25.2232,130.9822,6.1069,178.5839,6.1069v-.0073h.0036Z" fill="#fff" stroke-width="0"/><path d="M178.7709,65.6895v.0073h-.0073v-.0073c-30.8861.0035-58.8487,12.433-79.0935,32.5264-20.2447,20.0932-32.7715,47.8469-32.7715,78.495h.0072v.0037h-.0072c0,30.6483,12.5268,58.4018,32.7679,78.4914,20.2447,20.097,48.2146,32.5264,79.097,32.5264v-.0035h.0073v.0035c30.8861,0,58.8524-12.4294,79.097-32.5229,20.2447-20.0932,32.7679-47.8467,32.7679-78.495h-.0072v-.0073h.0072c0-30.6445-12.5232-58.3982-32.7679-78.4914-20.2447-20.0934-48.2109-32.5229-79.097-32.5264M178.7672,62.8381h.0036v.0037c31.6719,0,60.3484,12.7465,81.1086,33.3517,20.7602,20.6052,33.6042,49.0726,33.6042,80.5139h.0073v.0073h-.0073c0,31.4412-12.844,59.9122-33.6042,80.5174-20.7602,20.6015-49.4367,33.3482-81.1086,33.3519v.0035h-.0073v-.0035c-31.6684-.0037-60.3484-12.7504-81.1086-33.3556-20.7601-20.605-33.6042-49.0724-33.6042-80.5137h-.0072v-.0037h.0072c0-31.4448,12.844-59.9122,33.6042-80.5174,20.7602-20.6052,49.4367-33.3517,81.1086-33.3517v-.0037h.0036Z" fill="#fff" stroke-width="0"/><path d="M178.7655,67.0666c60.8459,0,110.4735,49.2564,110.4735,109.6445s-49.6276,109.648-110.4735,109.648-110.4699-49.2564-110.4699-109.648,49.6241-109.6445,110.4699-109.6445" fill="#a3cadd" fill-rule="evenodd" stroke-width="0"/><path d="M178.7708,68.4905v.0073h-.0072v-.0073c-30.0282,0-57.2879,12.1555-77.0423,31.762-19.7545,19.6067-32.0001,46.661-32.0001,76.4584h.0073v.0073h-.0073c0,29.7937,12.2456,56.848,32.0001,76.451,19.7544,19.6067,47.0177,31.7658,77.046,31.7658v-.007h.0072v.007c30.0246-.0035,57.2879-12.159,77.0388-31.762,19.7545-19.6067,32.0036-46.661,32.0036-76.4584h-.0072v-.0073h.0072c-.0035-29.7975-12.2491-56.848-32-76.4547-19.7545-19.6065-47.0177-31.762-77.046-31.762M178.7673,65.6355h.0035v.007c30.8141,0,58.7876,12.4728,79.0576,32.5878,20.2699,20.1185,32.8363,47.8865,32.8363,78.4769h.0036v.0073h-.0036c0,30.5906-12.5664,58.3586-32.8363,78.4807-20.27,20.115-48.2435,32.5878-79.0539,32.5878v.007h-.0072v-.007c-30.8141,0-58.7912-12.4728-79.0575-32.5913-20.2699-20.1185-32.8363-47.8865-32.8363-78.4734h-.0072v-.0073h.0072c0-30.5942,12.5665-58.3621,32.8363-78.4807,20.2699-20.115,48.2434-32.5878,79.0539-32.5878v-.007h.0036Z" fill="#202a6b" stroke-width="0"/><path d="M280.4737,159.4635c-9.8917,40.6768-25.1654,76.5484-57.2952,91.7105-54.6204,25.7744-96.0686,7.3791-131.897-18.5108,49.5699,14.1056,105.4196,12.3934,118.9232-58.2504,14.1706,23.5935,56.6571,5.9082,70.2689-14.9493" fill="#fff" fill-rule="evenodd" stroke-width="0"/><path d="M148.5802,80.7846c-23.4025,39.7756-27.9518,70.442-20.4249,95.9965,13.1864,32.6885,32.3244,44.5483,53.2469,48.7877-18.1251-17.7106-24.0298-40.7706-4.5926-71.6063,12.397-20.2699,36.2394-39.2709,66.3109-58.4451-41.4555,9.0266-74.0685,6.8708-94.5402-14.7328" fill="#fff" fill-rule="evenodd" stroke-width="0"/><path d="M259.9591,56.8448s-.4794.8724-.7282,1.0528c-.2487.1802-.6561.919-.9012,1.0416-.2524.1263-.6993.3102-1.1607.3641-.4615.0541-1.1031-.0684-1.4059-.1406-.3027-.0684-.7137-.0143-1.0706-.2812-.3532-.2667-1.0923-.7606-1.341-.8506-.2487-.0902-.7822-.1767-1.085-.1226-.3027.0539-.7642.3063-.8183.519-.0505.2128.1189,1.121.2451,1.424.1262.3027.6056,1.0634.8219,1.3481.2128.2849.5876.6669.5552.9699-.0361.3027-.1442,1.2255-.4471,1.3661-.3027.1441-.4433.4651-.6416.5371-.1947.0722-1.2256.6561-1.5898.7571-.3641.101-.9842.7318-1.2545,1.0851-.2704.3531-.4615.9263-1.3591,1.2255-.8939.2992-1.7771.6345-2.0367.6706-.2631.0359-.9949.4757-1.1571.6777-.1623.2018-.1298.6235-.0649.7967.0649.1729.2883.5622.7967.5732.5119.0108,1.4239-.1551,1.9682-.411.5443-.2596,1.7916-.8977,2.0583-1.0744.2668-.1729.9012-.7749,1.5104-1.0777.6092-.2992,1.4924-.7067,2.1161-.8904.62-.1802,1.9069-1.0202,2.1629-1.2257.2595-.2018,1.1392-.4937,2.3936-.0541,1.2545.4398,2.7288,1.0418,3.3705,1.1573.6417.1153,1.3554.2198,1.8529.1694.501-.0506,1.0021.0612,1.3049.1441.3027.0829,1.2076.3894,1.4239.4398.2199.0541.6957.2163,1.0238.3714.3244.1549,1.2148.8253,1.9322.7894.7174-.0361,1.2076-.2596,1.7483-.4794.5407-.2165.4975-.5228.5912-.8581.2128-.7859-.5119-1.4059-1.1463-1.9357-.2812-.2378-.7354-.5443-.9517-.8255-.7966-1.031-1.4131-1.2581-2.4693-1.7809-.703-.3496-1.6005-.3784-2.2963-.7606-.3064-.1694-.6488-.2055-.7714-.4253-.119-.2235-.31-1.1608-.155-1.4022.1514-.2381.3388-.3967.5732-.6526.2343-.2524.2703-.4253.3316-.5912.0578-.1659.3749-.793.6958-1.1608.2776-.3135.6344-.4794.9084-.7388.2956-.2777.5082-.6561.7823-1.0022.1766-.2198.8146-1.4491.9228-1.6114.1046-.1586.6453-.8326.804-1.0273.1622-.1982.8543-.7967.519-1.4636-.5263-1.0453-1.0887-2.6748-2.3936-3.2119-.3281-.1333-1.3734-.3606-1.6294-.2488-.2595.1118-.8146.3138-.674.7391.1514.4506.519,1.2328.4433,1.8708-.1081.9012.0217,1.2438-.7318,2.026-.4794.5012-.9408,1.442-1.5861,1.7663-.1297.0686-1.2508,1.3483-1.3734,1.4816-.1227.1333-.6165.9408-.6165.9408M257.0465,76.0982s.054,1.0275-.2091,1.626c-.2631.5982-.2883.8832-.3965.9912-.1118.1118-.4723.4506-.429.6706.0469.2233.119.8579.5696.8975.4506.0433.9337-.0431,1.1571-.1586.2272-.1118.775-.4541,1.1139-.6957.3389-.2451.804-.6273,1.2978-.7137.4938-.0865.8615-.1586,1.341-.2306.4794-.0722.7641-.0433.9444-.1586.1838-.1155.4938-.512.4938-.7102s-.1982-.6381-.3425-.8075c-.1406-.1694-.7065-.811-.8327-.9373-.1262-.1298-.1623-.2739-.3678-.7173-.2019-.4436-.3208-.8436-.501-1.1861-.1803-.3424-.3569-.6235-.6669-.9155-.3136-.2957-.429-.4398-.512-.5408-.0792-.0972-.638-.4722-.7858-.5694-.1477-.0975-.6633-.4579-.8436-.5589-.1802-.0937-.6416-.2992-.9877-.2955-.3317,0-.9048.3316-.9048.6631.0036.4255-.0036.6526.1118.9949.1154.3426.0721.6128.137.8904s.0757.5228.1442.8363c.0649.31.2631.8328.3136,1.1608.0504.3243.155.4649.155.4649Z" fill="#fff" fill-rule="evenodd" stroke-width="0"/><path d="M118.2197,62.124s-.5551-.119-1.1536.1729c-.5948.2922-1.0021.53-1.222.5661-.2199.0323-.4723.1947-1.0166.7534-.548.5589-1.1715,1.1644-1.2761,1.6222-.1045.4579-.209.9335.0937,1.0887.2992.1549.93.2271,1.597.3749.6633.1514.8363.007,1.139.3351.3029.3281.7715.8977,1.0562,1.0528.2848.1549.8976.2812,1.1968.1514.2992-.1298.5587-.8543.4723-1.4854-.0866-.6271-.31-.9155-.3136-1.3696-.0073-.4579.1118-1.1212.2199-1.5503.1045-.4253.1442-.9335.0793-1.0922-.0649-.1549-.4794-.5443-.5912-.5732-.1081-.0323-.2812-.0469-.2812-.0469M96.6665,41.9694s-1.1896.9842-1.6906,1.6187c-.5011.6343-1.2401,1.204-1.7123,1.2075-.4759.0073-.8652.0469-1.0887-.2055-.2235-.2524-.7029-.7749-1.0238-.6524s-.4362.2451-.4866.4288c-.0469.1912.0829.8689.2559,1.2871.1766.4145.501.9877.3136,1.8889-.191.8975-.8976,2.5881-1.0634,2.9595-.1658.3714-.5227,1.2147-.2343,1.5212.2884.31.6849.4145.9409.3173.2559-.101,1.3987-1.3195,1.788-1.4455.3929-.1298,1.0058-.1479,1.3699-.1514.3677-.0037,1.1067-.53,1.4022-.912.2956-.3857.5515-.5912.8364-.4867.2848.1045.3244.3892.4578.8471.137.4579.3244.7967,1.067.8363.739.0433,1.6618-.1045,2.3612-.6488.6993-.5408.9481-.804,1.615-1.4095.6633-.6092,1.3301-1.3879,1.4491-1.9357.1226-.5443.1875-1.0887-.3929-1.2473-.584-.1586-1.1103-.1875-1.5933.4361-.4831.6238-1.2365,1.6475-1.323,1.7773-.0901.1261-.3244.2559-.6344.2594-.3064.0037-.8904-.0612-.9301-.2812-.036-.2163-.0613-.7606.0974-1.2147.1586-.4579.5047-1.0238.93-2.4911.4254-1.4671,1.0093-1.9608,1.3987-2.2024.3893-.2451,1.4311-1.0779,2.062-2.1593.6308-1.0814.894-1.7809.5623-2.5487-.3316-.7641-2.0151-.8363-2.6928-.8436-.6813-.0108-1.9358-.1045-2.5414.1696-.6056.2774-.8075,1.0273-.5443,1.4924.2631.4684.8868,1.1245.8075,1.55-.0757.4253-.2451,1.002-.93,1.5897-.6813.5877-.8327.6488-.8327.6488ZM104.1645,48.6816s-1.3915.9914-1.7808,1.4671c-.3929.4759-.9409,1.0816-1.4527,1.6979-.5155.613-.8255,1.24-.5768,1.5718.2487.3316.5408.4722.8291.4108.2883-.0612.328-.4073.8075-.3712.4758.0396,1.0129.2343,1.0021.6416-.0072.4075-.3533,1.4744-.858,2.1342-.5047.6596-.5119.8543-.3497,1.1283.1622.2739.4866.5694.7462.4937.2559-.0757.6092-.5371.8508-.5118.2415.0253.7678.2235.8147.4579.0469.2306-.1298,1.2255-.3136,1.5247-.1838.2957-.292.721.0577.9949.3497.2739.9913.5985,1.2364.7173.2452.119.4723.2812.4686.9518-.0036.6669-.1875,1.7809-.3929,2.026-.2055.2414-.5443.8759-.7534,1.3481-.2055.4724-.2848,1.1861-.2452,1.3122.0361.1298.3785.411.6921.393.31-.018.3858-.2596.8327-.31.447-.0469.8363-.1441,1.1463.0792.3101.2273.2704.7067.274.9373.0036.2271.2235,1.1789.31,1.7159.0865.5371.1118,1.2761.3281,1.6583.2163.3857.3352.62.8255.5947.4938-.0253.62-.4832.6308-.7751.0109-.2882-.054-.6308-.2415-.8975-.1838-.2631-.4867-1.0959-.5119-1.5393-.0253-.4433-.1081-1.9791-.1514-2.3036-.0433-.3208-.2308-2.0906.1477-2.8332.3785-.7428,1.2509-1.5538,1.7519-1.9467.5011-.3965.0253.1083,1.7196-1.341,1.6978-1.4526,1.9213-1.6438,2.0908-1.8167.1694-.1767,1.2364-1.4961,1.3806-2.0763.1442-.5769.3461-1.7195.1911-2.0187-.1514-.2992-1.1211-.8832-1.6799-.3245-.5624.5624-.7679,1.9034-1.9718,2.8009-1.2076.8977-1.6618,1.251-2.0511,1.5718-.3893.3173-1.0562,1.3661-1.2761,1.5428-.2199.1767-.6741.4326-.912.2812-.2379-.1586-.7137-.2163-.4686-.9443.2451-.7283.5876-1.0455.93-1.4312.3425-.3822.9625-1.3049.8003-1.9177-.1659-.6128-.6381-.7571-1.3122-.9696-.6777-.2128-.8399-.8581-.6777-1.1824.1658-.3281.3965-1.3987.6309-1.954.2271-.5551.6092-1.4994.9842-2.051.3784-.5479.5623-1.5069.4975-1.8638-.0649-.3604-.4146-.6271-.7354-.71-.3244-.0829-1.067-.2128-1.5573.018-.4902.2271-1.3338.9696-1.6798,1.1355-.3425.1622-.5876.3135-.7354.3677-.1478.0504-.292.1153-.292.1153ZM100.6642,58.9913s-1.1031-.9551-1.4779-1.0345c-.3713-.0757-.9373-.1802-1.1247.2812-.1874.4579-.0613,1.031.1082,1.532.1694.5012.5515,1.1932.8111,1.6656.2596.4722.876.9661,1.2437,1.0273.3641.0576.7174-.0937.8508-.4326.1298-.3388.2883-.8796.2199-1.3987-.0685-.5228-.2595-1.204-.4434-1.4202l-.1875-.22ZM90.3544,65.3323s-1.1175-.4218-1.6942-.9012c-.5732-.4794-.7607-.822-.8471-1.6438-.0829-.8183-.3317-1.7628-.4434-2.2818-.1081-.5228-.1695-1.3916-.0289-2.235.137-.8436.1118-1.4528-.0216-1.7628-.1334-.31-1.0922-.6814-1.55-.5769-.4578.1045-1.3735.411-1.4996,1.0563-.1226.6453-.018,1.3338.3028,1.9069.3172.5732.4578,1.3663.7282,1.8889.2668.5228.3281,1.1969.8039,1.9177.4758.7175,1.0093,1.4854,1.1175,1.853.1045.3677.4145.8471.6381,1.1897.2307.3388.5767.8759.7137,1.2581.1334.3784.9589,1.2293,1.1319,1.3987.173.1694.6993.9047,1.3374,1.5463.6381.6418,1.4888,2.0836,1.6402,2.473.1514.3892.3316,1.4275.501,1.741.1694.3138.7678.8471,1.1247,1.215.3569.3677,1.2365,1.8493,1.615,2.5665.3785.7137,1.7555,2.1232,2.7072,2.2746.9517.1514,1.3158.1263,1.806-.4686.4903-.5912.0613-3.6156.0252-4.1707-.036-.5586-.3677-2.6856-.6777-4.1815-.31-1.4924-.5948-2.2856-.8183-2.5883-.2235-.3065-.5047-.4361-.8255-.3569-.3208.0757-.5948.4145-.5623.6957.0324.2777.5695,1.3302.6092,1.9465.0361.6165.2812,1.7881.2055,2.6425-.0793.8508.0721,1.2473-.5408,1.341-.6128.0972-.8147-.2524-1.5212-1.2942-.7029-1.0418-.9841-1.525-1.6005-2.7397-.6128-1.2112-1.0887-2.8515-2.5739-4.3401-1.4888-1.4924-1.8997-1.4059-1.8997-1.4059l.0973.0361Z" fill="#fff" fill-rule="evenodd" stroke-width="0"/><path d="M203.6106,32.9305s1.2905-.4904,1.6799-1.3448c.3857-.8506.411-.8398-.0216-1.5104-.4327-.6739-.6345-.4829-1.0238-.4829-.393.0035-.7967.018-.9446-.0902-.1477-.108-.5263-.3604-.5947-.5514-.0649-.1875-.1046-.9589.1982-1.341.3027-.3822.5011-.8761.5839-1.0275.0793-.1476.3209-.5912.4723-.8506.1477-.2631.4542-.8904.4289-1.0851-.0288-.191-.2415-.6381-.4109-.7787s-.6056-.1298-.8399-.0504c-.2307.0757-.9373.6488-1.2256,1.1283-.2848.4759-.6525,1.6185-.7174,1.7232-.0649.1008-.018.5802-.0541.8398-.036.2631-.1838.519-.3784.93-.1911.411-.0685.411-.5912.7498-.5228.3388-.6453.5298-1.3374.5877-.6886.0576-.93.0612-1.1175.0719-.1911.0108-1.2041.2992-1.3806.3426-.1803.0431-.6525.1188-.8184.2163-.1694.0972-.4109.3784-.4433.5586-.0361.1839.0108.6526.1694.7318.1622.0794.6417.5696,1.1211.8293.4794.2631,1.4383.7027,1.7231.7714.2883.0719.6236.2125.9372.7173.3101.5012.3966.7967.3858,1.0491-.0144.2524-.2199.6416-.3425.728-.1226.0867-.6344.5804-1.4888.703-.8545.1263-1.8817.411-2.5631.5877-.6813.1767-2.4657.501-3.0388.7318-.5695.2343-1.8132.8471-1.9935,1.0634-.1766.2128.0433,1.1212.1875,1.3483.1442.2235.804.3857,1.1968.3857.393-.0035,1.0923.0757,2.0584-.5877.9661-.6631,1.3518-.9481,1.7952-1.1102.4435-.1586.6922-.1622.9769-.2704.2848-.1118.5516-.2198.7787-.2198.2272-.0037.5407.0865.9878.519.447.4326.3784.6814.3784.7606,0,.0794-.2127.8832-.7678,1.6834-.5516.8004-.6056.8689-.6056,1.0816,0,.2125-.0073.5333-.1298.8002-.1045.2306-.1838.4939-.2343.6922-.054.2018-.3208.7461-.4145.8724-.0901.1226-.1911.6812-.2992.8939-.1081.2163-.757.9589-.9913,1.1067-.2307.1441-.5407.3784-.6993.4867-.1586.1116-.4579.4361-.4362.6488.0217.2125.173.5551.2992.6631.1297.1045.2163.1912.6308.2092.4145.0216,1.1067-.4616,1.2329-.5912.1297-.1298.2668-.4183.4362-.5481s.6381-.602.7642-.7426c.2198-.2416.7065-.6812.8471-.9661.1333-.2704.4037-.7641.6056-.9553.137-.1261.4037-.6739.5371-.8614.1371-.1839.2487-.7463.4327-1.0887.036-.0686.5479-.8724.5695-.8904.1406-.0975.3641-.9842.3821-1.1536.0217-.1694.0902-.822.1586-1.3014.0722-.4757.2019-1.1714.3136-1.2651.1118-.0902.238-.2849.31-.3967.0721-.1153.3317-.3063.6813-.501.3497-.1947.5985-.2992.8832-.3245.2812-.0251.1983-.0865.7066-.1369.5046-.0506.7101.0576.9444.108.238.0506.7354.018,1.0274.018s1.4527.0073,1.7448-.1188c.292-.1263.6633-.3569.9228-.429.2596-.0722.9192-.3677,1.3662-.4939.4506-.1226,1.734-.5118,2.062-.5804.3281-.0719,1.0057-.2847,1.6113-.007.6092.2739.7498.7787.8219.9516.0685.1729.0541.9228.0396,1.2869-.0179.3677.411,1.6583.9012,2.1593.4903.4975,1.1536,1.4059,1.3518,1.7809.1947.3749.2848,1.424-.3713,1.8889-.6525.4614-1.0021.7571-1.3374.9842-.3316.2235-1.0057.7859-1.7844.7245-.7822-.0576-1.377-.2018-1.6438-.2847-.2704-.0865-.6128-.0937-1.0057-.1514-.3893-.0579-.6488-.018-.93.0649-.2812.0792-.6236.3243-.7354.5045-.1081.1839-.1081.5263.1406.8581.2487.3316.4578.7641.5839.9696.1298.2055.1515.5586-.0865.7461-.238.1839-.2956.4363-.6164.4363-.3173,0-.9012-.101-1.1968-.1083-.2992-.0108-.959.0722-1.2437.2092-.2848.1406-.7535.5912-.8399.8075-.0901.2198-.1442.4145.1045.8686.2487.4543.411.7967.7174.8581.3064.0576.6417.1188.7894.1441.1442.0253.4182.0361.7462-.0541.3352-.0865.6164-.2235.9229-.2739.3064-.0504.9444-.0396,1.1679-.0649.2199-.0288.4759-.1875.7715-.2992.2956-.1118.7353-.3316.8724-.3641.137-.0288.4253-.2306.6596-.209.2343.0253.2127.0326.3857.0614.1767.0288.3425.007.5047.0792.1586.0722.5371.2992.9192.6092.3821.3065,1.3553,1.1032,1.5645,1.3085.2055.202.3966.5985.4831.7498.0865.1551.8038,1.1463,1.085,1.341.2812.1982.7714.6887,1.2617.5912.4902-.0937.8038-.2594,1.0706-.411.2704-.1549.4433-.5155.5587-.692.1154-.1767.2307-.3388.256-.4904.0216-.1549.054-.4108.054-.5622,0-.1516.0432-1.1681-.0649-1.4601-.1045-.2884-.7065-1.2328-.8688-1.3483-.1658-.1153-.7714-.3351-.9481-.4614-.1766-.1261-.6344-.4326-.7462-.5226-.1081-.0902-.5119-.3569-.5659-.4218-.0541-.0649-.6525-.6887-.649-1.2222.0073-.5371.3173-.7137.4218-.8037.1081-.0902.5119-.4363.7318-.6488.2199-.2128.2704-.3894.4867-.6345.2199-.2451.4145-.5228.5407-.7426.1226-.2235.4074-.501.4938-.6488.31-.5443.548-.7822.6813-1.2508.0325-.1045.173-.7102.0793-.9373-.0972-.2271-.4218-.7824-.6705-1.1102-.2523-.3245-.5082-.6202-.6777-.6887-.1694-.0684-.1694.0108-.3281-.0972-.1586-.1083-.6164-.4326-.7353-.5912-.119-.1586-.4903-.4433-.804-1.0345-.3136-.5912-.6488-1.1355-.6813-1.6114-.0325-.4759.238-.8724.4398-1.0526.2019-.1802.8327-.9049,1.4239-1.1608.5876-.2559,1.0491-.6488,1.3013-.8037.2524-.1586.7751-.3245,1.0779-.4543.2992-.1261,1.806-1.0849,2.336-1.4059.5263-.3208.8976-.5479,1.085-.6416.1838-.0937,1.1102-.7606,1.2364-1.5212.1262-.7606-.1766-1.5897-.3713-1.8926-.1946-.3027-.6561-.8759-1.2004-.7714-.5443.1083-.6525.0288-.9589.6598-.31.6271-.1442,1.0165-.548,1.4022-.4073.3857-.9949.9265-1.2112,1.013-.2163.09-.7787.4649-.9625.5551-.1875.0865-.3208.1479-.5082.0035-.1838-.1476-.4758-.292-.4218-.8255.0576-.5371.3244-1.4526.4614-1.7555.1334-.299.2308-.4757.3641-.7496.137-.2741.2235-.429.3966-.6526.1766-.2235.3748-.5877.5298-.912.155-.3208.2956-.5912.3209-.6922.0216-.101-.0361-.2451-.2272-.3784-.191-.1333-.5912-.3534-.8795-.1839-.2883.1694-.9192,1.3952-1.1392,1.6438-.2234.2451-.5551.9265-.7101,1.1501-.155.2235-.3388.9516-.8075,1.3949-.4723.4398-1.0994,1.2004-1.222,1.4528-.1262.2524-.4939,1.3122-.5516,1.6077-.0576.2957-.2739.6706-.4326.8112-.155.1369-.8038.6524-1.2185.7353-.4145.0794-1.8745.1586-3.5651.7571-1.6906.5985-2.7433.9734-3.3597,1.1679-.6129.1947-1.8456.703-2.4513.9265-.602.2235-1.1175.7137-1.8132.2739-.6958-.4398-.9949-.8651-.7462-1.4275.2487-.5624.292-.7426.6596-.9624.3713-.2235.8688-.5516,1.0022-.6273.1333-.0722.4073-.1514.4073-.1514" fill="#fff" fill-rule="evenodd" stroke-width="0"/><path d="M144.9818,37.3228s1.6978-1.7305,1.7195-2.235c.0217-.5047.018-.9049-.4867-1.114-.5046-.2128-.674.0433-.9877.0865-.3173.0433-1.323,1.3483-1.5356,1.4997-.2091.1441-.5047.3353-1.031.1261-.5263-.209-1.4311-.8398-1.8529-.2053-.4182.6308-.4578,1.9177-.7714,2.2746-.3173.3604-1.4563,1.3914-2.3035,1.5393-.8471.1441-1.2652.7894-1.7231,1.0381-.4614.2488-.8688.5155-1.46.6922-.5912.1767-1.5573.5082-1.8349.7787-.2776.2739-.548.5732-.6705.8977-.1189.3243-.0288.9047.4182,1.3157.4471.411,1.1392.9769,2.199.7426,1.0562-.2378,1.5789-.8867,2.026-1.5104.4433-.6273,1.1751-1.4095,1.5464-1.6799.3641-.2667,1.0779-1.1787,1.6799-1.0887.6056.0902,1.6221.5551,1.687,1.3626.0649.8112.3029,3.0066-.1262,3.5833-.4289.5732-1.7266,3.6733-2.3647,4.5782-.6381.9012-.584,1.2004-1.4708,2.1593-.8868.9624-1.1067,1.4057-1.1067,1.8493.0036.4433.3317.829.9012.8867.5733.0576,1.5646-.6128,2.1233-1.9212.5587-1.3122.3316-1.0636.9481-1.9864.6164-.9228.7678-1.0598,1.1031-1.4744.3352-.411.62-.8939,1.049-.8977.4326,0,1.2581.3677,1.4096.8508.1477.4867-.0361,1.7879.8832,2.4946.9192.7027,1.1319.6235,1.3843.4757.2523-.1476.9047-.6416.674-1.5644-.2271-.9192-.7209-1.7197-.8038-1.9179-.0793-.2018-.8616-1.6869-.3317-2.545.5299-.8579.7787-1.0381,1.0562-1.0669.2812-.0326.5587-.0506.8436-.4616.2812-.4145.5912-.9263.3353-1.3769-.256-.4543-.7823-.7932-.9661-.9049-.1838-.1153-.6669-.1406-.9373-.1837-.2704-.0396-1.5032-.3496-1.9862-.7894-.4831-.4363-1.2869-1.24-1.2185-1.5681.0722-.3318,0-.7824.5587-1.4348.5587-.6526,1.0923-1.0057,1.2004-1.0959.1118-.0902.2235-.209.2235-.209M154.3254,35.9096s.0685-2.2493-.8327-3.3705c-.9012-1.121-1.4023-.9769-2.0367-2.3828-.6381-1.4095-.9986-1.2904-1.2905-1.3914-.292-.1045-.548.0541-.7354.4326-.1875.3787-.3064.8436-.1514,1.0671.155.2235,1.0635,1.5285,1.3591,1.9034.292.3784,1.0922,1.1536,1.3987,1.9357.3064.7822.5695,2.1989.465,3.046-.1081.8508-.8399,4.2574-.7535,5.1478.0866.8904.2343,1.7518,1.0418,2.1197.8111.3677,1.8637.0288,3.6373-1.5034,1.77-1.5355,2.6856-1.9393,3.2408-2.2097.5587-.2739,1.1859-.62,1.7735.0361.5877.6596.7931,1.8746.8472,2.7758.054.8975.1081,2.3538.2487,3.0964.1406.7426.1406,2.0044.1622,2.5126.0253.512.2956,2.3252.2992,2.4981,0,.1732.2704.4183.5119.4867.238.0684.6778-.8436.7282-.9985.0505-.1586.1406-1.2222.173-1.4961.0361-.2739.2524-1.1824.1911-1.7049-.0613-.5228-.0108-1.651-.0108-1.8169s-.0144-1.3771.0108-2.2169c.0252-.84-.0469-3.2337-.1154-3.9401-.0684-.71-.3352-.9949-.2991-1.5536.0323-.5551,0-1.0022.4614-1.943.4614-.941.4001-1.132.8146-1.6475.4146-.5155.6309-1.2328.6886-1.5067.0576-.2739.0253-.5263-.238-.7679-.2595-.2451-.5263-.2271-.7606-.1839-.2343.0506-.5334.321-.7065.4579-.1767.1406-.5155.3027-.8399.1875-.3281-.119-.8003.0288-.8651-1.204-.0649-1.2293-.2019-1.6438-.3461-1.9069-.1442-.2669-.4542-1.4997-.4758-1.6548-.0217-.1549-.357-.6669-.7174-1.1534-.3641-.4867-.5443-.8942-.6705-1.3663-.1298-.4722-.2019-.6957-.3425-.9192-.1406-.2271-.2091-.4398-.3244-.7065-.119-.2669-.3425-.6922-.6669-.6922s-.5552,0-.721.2596c-.1658.2559-.173.6561-.155.9553.018.3027-.0325.5333-.1045.7426-.0757.209-.0901,1.1102.0828,1.6618.1695.5514.1262,1.2183.1406,1.4057s.2308,1.0744.4615,1.4997c.2307.4218.465,1.3591.519,1.7483.0578.393.3713,1.1501.3713,1.6871,0,.5336.1767,1.1067.3497,1.4348.1406.2704.9949,1.8565-.429,3.6805-.2271.292-.6813.5985-1.0417.822-2.1016,1.2832-2.1593,1.3734-3.2372,1.0128-1.0779-.3639-.9517-1.2293-1.0057-1.7122-.0505-.4829-.0613-1.8854-.0613-2.134,0-.2488-.0433-.53-.0433-.53ZM143.5001,26.3639c.4182-1.3157-1.6077-1.9753-2.4837-1.9538-1.0779.0288-1.6113-.0649-1.9574.9987-.0974.3027.2163.9877.4975,1.6799.3352.811.6488,1.5104,1.2508,1.6185.7606.1371.8219.1441,1.5465-.6814.364-.4145.9481-1.0922,1.1463-1.6618Z" fill="#fff" fill-rule="evenodd" stroke-width="0"/><path d="M296.5604,102.1603s.2127.804.3388,1.2653c.1226.4649.2451,1.6689-.5299,2.1916-.7715.5228-1.7304,1.4202-2.7469,1.2942-1.0202-.1226-1.9755-.7426-2.563-1.0526-.5877-.31-1.6474-1.132-1.8998-1.2834-.256-.1549-.9878-.018-.9734.4253.018.4398.238.8508.5948,1.4277.3569.5802.5624,1.0381.7642,1.2939.2055.2561.5624.7824.8832,1.1754.3244.3892,1.1572,1.0741,1.1752,1.55.0144.4757.0901,1.2363-1.1067,1.7699-1.2004.5371-1.5033.923-2.1485.9481-.6488.0288-1.4816.0614-2.0511-.2414-.5695-.303-1.3157-.8147-1.6186-.9987-.3027-.1837-1.1319-.0576-.7642.804.3678.8579,1.1067,1.4528,1.4275,1.7159.3209.2667,1.5646.71,2.9416.9012,1.3735.191,2.5486-.4363,3.0785-.4579.5299-.0218,1.4492-.5839,1.532-1.0779.0829-.4975.1334-.9085.3785-.9589.2487-.0469.8724-.1947,1.532.5155.6597.7065,1.0779,1.5032,1.4889,1.9357.4109.4326,1.5752,1.6403,2.7973,1.8673,1.2184.2235,2.1232-.0576,2.3214-.5228.1982-.4649.2668-1.323-.4433-2.4513-.7102-1.1283-.8184-1.5754-1.8493-2.6134-1.031-1.0383-1.2256-1.2257-1.7736-1.5899-.5516-.3604-.8255-.71-.5624-1.3012.2595-.5949.3749-.5661.6381-.6669.2595-.101,1.0238-.5373,1.3374-.7679.3173-.2308,1.4348-.93,1.0958-2.3252-.3352-1.3949-.4433-1.3445-.8723-2.0583-.4254-.7175-.9517-1.3663-1.2365-1.5069-.2883-.1406-.6596-.1837-.8002-.0431s-.3425.3496-.3713.4794c-.0325.1261-.0144.3569-.0144.3569M305.3273,96.8611s2.0728-.018,2.9488-.0359c.8723-.0145,2.0078-.0829,2.4044-.101.3965-.018,1.0057-.1263,1.204.0719.1947.1985.3785.8724.0469,1.1861-.3281.3135-1.1571,1.0526-1.5681,1.103-.4109.0469-1.8456.2631-3.4462.0469-1.5969-.2163-2.5054-.3171-2.8515-.7787-.346-.4614-.1766-.7749.0361-1.0561.2163-.2812.31-.3857.5732-.3857.2668-.0253.6525-.0506.6525-.0506ZM304.1414,92.5894s-.62.7137-.858,1.3338c-.2416.62-.5047,1.1934-.5263,1.5503-.0253.3604-.2884,1.0994-.5732,1.1463-.2884.0469-.5516.0684-.9337-.1947-.3785-.2596-1.0346-.8651-1.0598-1.0563-.0217-.191-.2019-.8037.0613-1.0669.2631-.2596,1.0994-.8796,1.1932-1.0959.0974-.2128.5985-.9516.8147-1.4528.2127-.501.6921-1.6691.6921-2.051,0-.3822-.1189-.8112-.4758-.9553-.3569-.1441-1.1211,0-1.6005.6884-.4759.6922-1.7411,1.8603-2.1702,2.145-.4326.2884-.9625.7894-1.2364.8616-.2739.0719-1.3301,1.0381-1.5141,1.312-.1838.2704-.6596,1.4744.1262,1.7305.7823.2594,1.752.4794,2.2242.8794.4723.4002,1.3482,1.0598,1.8421,1.4601.4902.4037,1.9213,1.8458,2.2602,2.2026.3353.3569.6165.6271.8184.793.2019.1659,1.7915,1.5428,2.6207,2.152.8255.613,2.4476,1.4059,3.111,2.5162.6633,1.1104.4037,1.6367.2812,1.8565-.1227.2235-.8472.4832-1.7555.3604-.9085-.1188-1.8961-.4829-2.2999-.6669-.4037-.1802-.8652-.2018-1.1067.119-.2451.3245-.0469.5408.1406.7498.191.209,2.1737,1.7879,3.6517,2.1558,1.4744.3677,2.5774.31,3.1542.31.5803,0,2.1557-.2381,2.2062-1.4024.0469-1.1606-.0217-1.9934-.3425-2.5269-.3209-.5336-1.9322-2.0836-2.4117-2.563-.4758-.4794-1.4744-1.3049-1.7087-1.4959-.2343-.1912-.602-.6488-.2343-.9879.3677-.3388,1.1392-.1549,1.8889-.1549.7462,0,1.9322-.0396,2.5451-.4433.6091-.4037,1.1968-1.2293,1.5825-1.8097.3893-.5804.3821-.9949.6417-1.4348.2595-.4398.7101-.8796,1.2796-1.0598.566-.1802,1.3447-.8037,1.5754-1.3987.2343-.5947.3713-1.5032.0865-1.7267-.2847-.2198-1.24-.3243-1.5428-.3569-.3029-.0323-1.8638-.0216-2.2783.2128-.4145.2378-.7137.501-.9877.793-.274.2922-1.7592.7391-2.4045.7391-.6488,0-3.6048.1045-4.0193-.4253-.4145-.5263-.5624-.7644-.7678-1.5681-.2055-.804-.3173-.804-.6814-.8761-.364-.0757-.7931.1083-.9264.2884-.1333.1839-.3821.4145-.3821.4145ZM287.6637,91.937s1.3482-.7859,1.8817-1.0238c.5336-.2381,1.2508-.912,1.4888-1.0345.238-.1263.7282-.101.9949.0396.2668.1441.8436.7461.5299,2.0656-.3064,1.3192-.8147,2.3142-1.0093,2.7758-.1982.4649-1.1139,2.1736-2.4188,2.1881-1.3049.0143-2.0187-.5085-2.3828-.9157s-.602-1.7555-.3208-2.4693c.2812-.7137.8435-1.2616,1.0382-1.4455l.1982-.1802Z" fill="#fff" fill-rule="evenodd" stroke-width="0"/><path d="M47.6164,94.9022c.6561-2.1089.4362-1.3809.8183-2.145.3821-.7641,1.2833-2.0403,1.6906-2.4513.8976-.9012,1.4852-.8183,2.2891-.7318,1.2112.1371,1.7663,1.2185,1.7519,3.8895-.0072,1.2546-1.9718,1.7663-3.284,2.5775-1.8421,1.1318-3.9185.9696-3.266-1.139M62.7134,77.1412s-1.7663-.3569-2.7541.1261c-.9914.4829-2.0079.822-2.0656,1.222-.0577.4002-.4831,1.3987.4182,1.8889.9012.4904,2.271.1118,2.9199.631.6453.5155,1.1391,1.4491,1.2689,1.8961.1298.4469,1.615.4902,1.8709-.1226.2523-.6092.6849-1.0924.4614-2.5991-.2199-1.5032-.1947-1.5899-.483-2.2169-.2884-.6273-.602-.8942-.9301-.8942-.3281-.0035-.7065.0686-.7065.0686ZM58.7697,104.5017s-1.9394-.4073-2.5739.6526c-.6309,1.0598-.7894,1.7518-1.7339,2.945-.9481,1.1897-1.7123,2.4623-2.7901,2.6966-1.0742.2378-1.2437.0539-1.5969-.2669-.3497-.3208-1.1571-.9949-.4218-2.3756.7354-1.3842,1.2581-2.8477,1.3446-3.3236.0902-.4759.9769-2.0475,1.1067-2.5665.1334-.5192.2307-.4904.8543-1.633.6272-1.1463,1.1463-1.543,1.7591-2.5162.7498-1.1969,1.013-2.956,1.0851-3.3129.0721-.3534.2811-1.1463.8471-1.925.2848-.3967.5119-.7283.6813-1.0671h.0036-.0036c.1658-.3281.1118-.793-.0072-1.3338-.2415-1.0994-1.359-1.9107-2.0944-2.1989-.7354-.2849-1.6257-.6488-2.4657-1.4348-.8399-.7894-1.0851-.9408-.9048-1.4636.1767-.5228.7787-.8939,1.5249-.8363.7462.0612,1.5321.4829,2.2746.9949.7462.5118,1.4888.9373,1.9502,1.0814.4614.1406,2.0115.2235,3.3417,1.1463,1.3302.923,2.3756,1.8818,3.7418,2.3575,1.3626.4759,3.3994.8075,3.969,1.0598.5659.2524,1.4203.7175,2.0115.8471.5912.1263,1.3662.3679,2.2674.3391.9048-.0288,1.4672-.1226,2.2134.292.7462.4108,1.5753.62,2.1989.62.6236.0035,1.3626.3388,1.8205.4649.4578.1263,1.2436.0288,1.6582-.1694.4146-.2018.9048-.3388,1.9827.2308,1.0706.5694,2.6495,1.9861,2.8334,2.2999.1875.3135.3749,1.6979-.1694,1.7087-.5479.0108-1.8384-.209-2.5486-.1802-.7102.0288-2.5126.1296-3.5616-.4363-1.049-.5696-1.8024-.9481-2.5738-.9516-.7714-.0037-2.1917-.2596-3.028-.7644-.8327-.501-2.7469-.5732-3.4282-.7606-.6777-.191-3.8788-.9551-5.1044-1.5751-1.2293-.6202-1.8385-1.0997-2.3576-1.251-.5191-.1514-2.1377-.5082-2.5883.8004-.4506,1.3085-.9444,3.273-1.3518,3.8031-.4073.5298-.8904,2.7793-.8904,2.7793,0,0-.2848,1.5536,1.0058,1.8673,1.2833.3171,2.0691.6812,2.4981.7461.429.0614.9337-.1729,1.2148-1.1679.2776-.9914.5299-2.6099,1.359-2.884.8291-.2774,1.5284-.09,2.1088.9699.5804,1.0598-.0685,2.7973-.3749,3.2948-.3101.4937-1.442,1.5969-1.615,1.9791-.173.3784-.1189,1.4022.4542,1.8708.5768.4722,1.4419.8255,1.9899,1.6761.5443.8508.9444,1.4673,1.5825,1.0887.6381-.3784.8147-1.6077,1.1355-2.2493.3208-.6418.3208-1.55.9012-2.1919.5804-.6416.2956-2.0257.2415-2.5522-.0577-.5263-.2812-1.8671-.4542-2.1916-.173-.3208-.4326-1.0526-.1117-1.3157.3172-.2631.894-.0541,1.2941.8543.4037.9085.6886,1.961.93,3.0966.238,1.139.9337,2.7036.1947,4.3329-.7426,1.6295-1.1427,3.8391-1.2076,4.297-.0649.4579-.7318,1.4528-1.1536,1.7952-.4217.3426-1.4203,1.9069-1.6654,2.2387-.2452.3351-1.3662,1.4526-2.5306,1.8563-1.1644.4075-2.0763.7102-2.7613.4796-.6813-.2343-1.514-.4686-2.1196-.804-.6056-.3353-1.4131-1.132-1.8926-1.4924-.4794-.3606-1.1391-.4902-1.1607-1.1608-.0217-.6631.2559-.8939,1.1427-1.0453.8867-.1514,1.4672-.0469,1.9971.0073.5335.0539,1.6942.2125,2.1268.1622.429-.0504,1.1391-.2271,1.6943-.6345.5587-.4073.9661-.8939.9156-1.204-.0469-.3065-.8688-1.4598-2.1845-2.2783-1.3122-.8183-3.0389-2.2024-3.4318-2.8332-.3965-.6345-.7931-.9699-1.0959-1.1754l-.3028-.209Z" fill="#fff" fill-rule="evenodd" stroke-width="0"/><path d="M50.7238,133.6792l-.6548,2.5072-6.2519-.5915c-1.3404-.156-2.7029-.3031-4.0639-.462l-.0177.0647c1.2477.5944,2.5043,1.2095,3.7137,1.8098l5.6162,2.9957-.5474,2.0923-6.3652-.1413c-1.3331-.0677-2.7265-.1677-4.1213-.2472l-.0235.0824c1.2816.5297,2.544,1.0564,3.7755,1.5744l5.7398,2.5308-.6136,2.3454-11.6886-5.497.8019-3.0546,6.4343.2148c1.0152.053,2.0084.1207,2.9781.2148l.0191-.0677c-.8872-.409-1.7877-.824-2.7-1.2742l-5.7236-2.9369.7901-3.0045,12.9025.8446Z" fill="#fff" stroke-width="0"/><path d="M39.7562,149.1698l6.9066,1.0211-.3708,2.5102-7.1288-1.0476c-2.6117-.3855-3.6284.3826-3.8462,1.8598-.2192,1.492.5238,2.572,3.1355,2.9575l7.1288,1.0564-.3546,2.4072-6.911-1.0182c-4.1743-.618-5.6251-2.6514-5.1719-5.7236.4517-3.0546,2.4351-4.6348,6.6123-4.0227Z" fill="#fff" stroke-width="0"/><path d="M44.8839,163.2244l-.131,2.5337-4.9821-.2619-.2501,4.7967,4.9806.259-.131,2.5131-12.6685-.6592.131-2.519,5.4779.2884.2501-4.7908-5.4779-.2884.1324-2.5366,12.6685.6651Z" fill="#fff" stroke-width="0"/><path d="M35.1773,182.7171l-.1427-4.114-3.2885-.7769-.0898-2.5749,12.8318,3.6255.103,2.9839-12.5479,4.523-.0956-2.6573,3.2297-1.0094ZM37.1298,182.105l1.3743-.4267c1.311-.4385,2.7559-.8357,4.1125-1.2595l-.0029-.0706c-1.3978-.2796-2.8515-.6033-4.1831-.9328l-1.4022-.3325.1015,3.0222Z" fill="#fff" stroke-width="0"/><path d="M44.8957,187.6815l.3105,2.5749-6.2725,4.4759-2.5705,1.592.0088.0824c1.2977-.2943,2.9413-.6827,4.3744-.8563l5.0262-.6062.2899,2.3836-12.6097,1.5273-.309-2.5572,6.3048-4.4612,2.5558-1.6097-.0088-.0824c-1.3522.2825-2.9133.6621-4.3626.8416l-5.06.6121-.2854-2.3866,12.6082-1.5302Z" fill="#fff" stroke-width="0"/><path d="M40.6449,206.5592l6.7771-1.6862.615,2.469-6.9993,1.7333c-2.5631.6415-3.2135,1.7362-2.8515,3.184.3649,1.4684,1.464,2.1865,4.0301,1.5479l6.9934-1.7362.59,2.366-6.7801,1.6832c-4.1007,1.0182-6.2165-.3119-6.964-3.3312-.746-2.9987.49-5.2145,4.5892-6.2298Z" fill="#fff" stroke-width="0"/><path d="M50.7473,217.6121l.8681,2.4425-5.1542,5.7325-2.1703,2.1129.0324.0824c1.2006-.5709,2.725-1.3066,4.0845-1.7862l4.7746-1.6862.8019,2.2659-11.9828,4.2287-.8563-2.4278,5.1866-5.7325,2.1467-2.1217-.028-.0795c-1.2551.5709-2.6985,1.2801-4.0742,1.7627l-4.8099,1.698-.799-2.2659,11.9799-4.2258Z" fill="#fff" stroke-width="0"/><path d="M55.3292,229.9334l1.0094,2.3307-11.6459,5.0468-1.0064-2.3277,11.643-5.0497Z" fill="#fff" stroke-width="0"/><path d="M57.011,233.965l1.2154,2.366-4.726,4.3199c-1.0697.9946-2.0835,1.801-3.1605,2.8221l.0383.0765c1.4464-.3002,2.7088-.6239,4.1419-.9152l6.2489-1.3566,1.1771,2.2895-13.0761,2.3365-1.3816-2.6838,9.5227-9.2549Z" fill="#fff" stroke-width="0"/><path d="M62.8685,245.0591l4.1257,6.6065-1.7921,1.1212-2.7779-4.4553-2.4896,1.5538,2.366,3.7844-1.8068,1.1271-2.363-3.7844-2.8824,1.798,2.8839,4.6142-1.8054,1.1271-4.2287-6.7654,10.7704-6.7271Z" fill="#fff" stroke-width="0"/><path d="M62.7582,267.3033l2.2483-4.9821-1.0712-1.4066-3.8212,2.9045-1.5361-2.0217,10.1069-7.6717,2.6735,3.5225c1.6097,2.1158,2.1467,4.3582-.1766,6.115-1.5155,1.1565-3.0369,1.1065-4.37.2854l-2.3439,5.5029-1.7097-2.2483ZM65.5361,259.6993l.9961,1.3125c.9829,1.2977,2.0687,1.592,3.1473.7739,1.0932-.8269.924-1.8157-.0633-3.1164l-.9932-1.3095-3.0869,2.3395Z" fill="#fff" stroke-width="0"/><path d="M67.0825,270.1107l2.2792-.0971c-.0103,1.236.3796,2.5072,1.1315,3.3341.8917.977,1.7833,1.1182,2.4454.515.6989-.6327.3929-1.4007-.0132-2.5661l-.6136-1.7421c-.4708-1.3095-.5768-2.9604.7931-4.2081,1.5361-1.3978,3.9477-1.1271,5.681.7769.9961,1.0947,1.5582,2.5778,1.4758,4.0492l-2.0496.1207c-.0471-1.0476-.334-1.9275-1.0403-2.7014-.7489-.824-1.6067-1.0241-2.2262-.4532-.6739.6121-.3046,1.5037.1089,2.5926l.5988,1.7068c.5709,1.5714.5297,2.9781-.8284,4.214-1.5391,1.4037-4.0154,1.3095-5.9944-.8622-1.1418-1.2566-1.7951-2.9663-1.748-4.679Z" fill="#fff" stroke-width="0"/><path d="M83.4265,271.3231l1.8304,1.7539-8.7782,9.1549-1.8304-1.7598,8.7782-9.149Z" fill="#fff" stroke-width="0"/><path d="M88.3894,278.6858l-2.7412-2.2806,1.3537-1.6244,7.454,6.221-1.3463,1.6156-2.7691-2.3042-6.7757,8.1308-1.951-1.6244,6.7757-8.1337Z" fill="#fff" stroke-width="0"/><path d="M93.2317,290.0448l1.5464-8.7547,2.1953,1.5567-.7504,3.2458c-.2531.977-.49,1.904-.7298,2.928l.053.0383c.8843-.5679,1.7097-1.077,2.5499-1.6391l2.8162-1.7804,2.1511,1.5273-7.7644,4.3405-2.6823,3.7873-2.0717-1.4625,2.6867-3.7873Z" fill="#fff" stroke-width="0"/><path d="M107.4551,299.9776c1.8613-3.699,5.0144-4.8084,8.0219-3.2929,3.009,1.5155,3.9904,4.7202,2.1364,8.4074-1.8569,3.6814-5.06,4.8967-8.069,3.3812-3.006-1.5155-3.9433-4.8173-2.0893-8.4957ZM115.2945,303.9238c1.2301-2.4395.8902-4.4406-.799-5.2911-1.6847-.8475-3.4974.0706-4.726,2.5102-1.2198,2.4219-.924,4.5142.7622,5.3646,1.6877.8505,3.5431-.1589,4.7628-2.5837Z" fill="#fff" stroke-width="0"/><path d="M122.3535,300.7531l7.248,2.9486-.7916,1.9569-4.8967-1.9952-1.2492,3.0693,4.1802,1.7038-.8019,1.9687-4.1787-1.7009-1.9437,4.7672-2.3527-.9564,4.7864-11.7621Z" fill="#fff" stroke-width="0"/><path d="M229.2541,313.0424l.6651-2.1394c1.1403.4208,2.4439.4826,3.4607.0618,1.1992-.5003,1.6229-1.2772,1.2875-2.0893-.3575-.8563-1.1668-.8328-2.3763-.8387l-1.8171-.0147c-1.3698.0029-2.9251-.4473-3.6255-2.1276-.7842-1.8863.2663-4.0227,2.6029-4.9938,1.3404-.5562,2.9001-.5827,4.2302-.0206l-.5694,1.9304c-.9799-.3002-1.8863-.3296-2.8368.0706-1.0138.4179-1.4802,1.1418-1.1653,1.9069.3443.824,1.2948.7769,2.4395.7592l1.7759.0118c1.6406-.0059,2.9295.5003,3.6225,2.1659.7813,1.8892-.1236,4.1434-2.7853,5.2499-1.5449.6445-3.3415.6768-4.9085.0677Z" fill="#fff" stroke-width="0"/><path d="M236.789,304.8762c-1.851-3.6784-.5724-7.0273,2.2483-8.4457,1.4169-.7151,2.8883-.6033,3.9933-.2119l-.4605,2.007c-.8328-.2648-1.6774-.3266-2.5219.0971-1.6891.8505-2.2277,2.9369-1.0197,5.3352,1.2227,2.4248,3.1061,3.3106,4.8688,2.4248.9505-.4767,1.4743-1.3095,1.7539-2.263l1.8745.7916c-.3796,1.5361-1.283,2.7073-2.7338,3.4371-2.8177,1.4184-6.1268.5562-8.0028-3.1723Z" fill="#fff" stroke-width="0"/><path d="M243.5117,294.2941l2.1644-1.2448,6.2283,10.8205-2.1614,1.2448-6.2313-10.8205Z" fill="#fff" stroke-width="0"/><path d="M247.558,291.9929l6.4225-4.161,1.1271,1.7392-4.3273,2.8074,1.5655,2.4189,3.677-2.3866,1.1374,1.7539-3.6784,2.3866,1.8127,2.7985,4.4862-2.9015,1.133,1.7509-6.577,4.264-6.7786-10.4703Z" fill="#fff" stroke-width="0"/><path d="M255.3666,286.8667l2.032-1.542,6.9154,3.1017,2.6308,1.3949.0677-.05c-.8946-.9564-2.0452-2.1629-2.9045-3.29l-3.0104-3.9639,1.8775-1.4331,7.5643,9.9494-2.0158,1.5332-6.9243-3.137-2.6352-1.3713-.0662.05c.9108,1.0064,2.0084,2.1423,2.8795,3.287l3.0369,3.9904-1.8848,1.4331-7.5628-9.9524Z" fill="#fff" stroke-width="0"/><path d="M268.2764,284.8744c-2.7353-3.0693-2.3601-6.6359-.0059-8.7311,1.183-1.0506,2.6352-1.3242,3.7991-1.236l.0706,2.0599c-.8696-.0412-1.7053.1177-2.4086.7445-1.4066,1.2566-1.3919,3.4048.3899,5.4058,1.8068,2.0275,3.8506,2.3983,5.3249,1.0888.7916-.7063,1.0859-1.645,1.1094-2.6367l2.0114.2854c.0294,1.5773-.5415,2.9427-1.7495,4.0168-2.3527,2.0982-5.7707,2.1129-8.5413-.9976Z" fill="#fff" stroke-width="0"/><path d="M271.9695,273.0122l5.3455-5.497,1.4876,1.4478-3.6004,3.7079,2.0687,2.0099,3.0605-3.1458,1.5008,1.4596-3.0605,3.1458,2.3969,2.3336,3.7329-3.8373,1.5008,1.4596-5.475,5.6295-8.9577-8.7135Z" fill="#fff" stroke-width="0"/><path d="M291.3754,265.2493l-2.5411,3.1428,1.9407,2.6956-1.592,1.9687-7.1876-10.947,1.8436-2.2836,12.2242,4.7231-1.645,2.0305-3.0428-1.3301ZM289.5303,264.4488l-1.2919-.5709c-1.258-.512-2.5808-1.1506-3.8638-1.7127l-.0441.053c.8622,1.1094,1.7318,2.2865,2.5057,3.393l.8284,1.1447,1.8657-2.3071Z" fill="#fff" stroke-width="0"/><path d="M286.6082,256.3269l1.4449-2.0982,7.5349.7798,2.928.5032.0486-.0706c-1.1477-.6268-2.6117-1.4096-3.777-2.2159l-4.1037-2.8221,1.3419-1.9452,10.2834,7.0802-1.4361,2.0864-7.5511-.8181-2.9295-.4767-.0456.0677c1.18.6709,2.5764,1.4066,3.7594,2.2218l4.1272,2.8397-1.3419,1.9481-10.2834-7.0802Z" fill="#fff" stroke-width="0"/><path d="M293.119,246.7129l1.7053-2.9692c1.8937-3.3018,4.779-4.37,8.4368-2.2718,3.6387,2.0893,4.2773,5.1792,2.4484,8.3662l-1.7686,3.0811-10.8219-6.2062ZM303.8291,249.0877c1.1536-2.0187.796-3.8962-1.8377-5.4088-2.6441-1.5185-4.3597-.8299-5.5206,1.1889l-.384.6739,7.3554,4.217.387-.6709Z" fill="#fff" stroke-width="0"/><path d="M302.7418,232.9674l-1.4346,3.2046-1.8951-.8475,3.905-8.7164,1.8922.8505-1.4464,3.2311,9.5021,4.2552-1.0211,2.2777-9.5021-4.2552Z" fill="#fff" stroke-width="0"/><path d="M303.6908,225.6458l2.6558-7.1862,1.9452.721-1.7892,4.8408,2.7059,1.0005,1.5214-4.111,1.9628.7239-1.5243,4.114,3.134,1.1565,1.8539-5.0144,1.9628.7269-2.7235,7.3539-11.7048-4.3258Z" fill="#fff" stroke-width="0"/><path d="M312.7147,219.2307c-3.955-1.1447-5.5353-4.3611-4.6569-7.3922.4444-1.5243,1.5243-2.5308,2.5617-3.0722l1.158,1.7068c-.7563.4296-1.3816,1.0064-1.6465,1.9128-.5253,1.8157.6371,3.6284,3.212,4.3729,2.6117.7592,4.5407-.0147,5.0909-1.9098.2972-1.0241.0441-1.9746-.4635-2.825l1.8598-.8328c.8608,1.3242,1.105,2.7838.6533,4.3376-.8799,3.034-3.7652,4.8673-7.7688,3.702Z" fill="#fff" stroke-width="0"/><path d="M309.5792,207.2301l.4988-2.4484,4.8129.9799.9417-4.6348-4.8143-.974.4944-2.4336,12.2433,2.4896-.4959,2.4278-5.294-1.0741-.9387,4.6289,5.294,1.077-.4988,2.4513-12.2433-2.4896Z" fill="#fff" stroke-width="0"/><path d="M311.8525,195.7034l.2943-2.5308,7.0155-2.8339,2.8265-.924.0088-.0824c-1.308-.0177-2.9678-.0235-4.3773-.1883l-4.9394-.5768.2737-2.3424,12.3934,1.4449-.2928,2.5102-7.0479,2.8103-2.8088.9446-.0118.0883c1.3537.0353,2.9324.0324,4.3567.2001l4.9762.5768-.2737,2.3483-12.3934-1.4449Z" fill="#fff" stroke-width="0"/><path d="M319.2682,185.0801c-4.0625-.1295-6.3534-2.4778-6.2519-5.7766.1015-3.3076,2.5484-5.5118,6.5947-5.3852,4.0477.1265,6.4564,2.4778,6.3534,5.7825-.103,3.3018-2.6499,5.5059-6.6962,5.3793ZM319.5345,176.4638c-2.6808-.0824-4.3185,1.0506-4.3788,2.9045-.0559,1.851,1.5082,3.084,4.1919,3.1664,2.6632.0824,4.4023-1.0447,4.4583-2.8986.0574-1.8569-1.6082-3.0928-4.2714-3.1723Z" fill="#fff" stroke-width="0"/><path d="M313.3577,172.2939l-.1015-2.4896,10.3746-.4296-.2104-5.0527,2.0908-.0883.3105,7.5452-12.464.515Z" fill="#fff" stroke-width="0"/><path d="M319.255,164.1631c-4.0374.4355-6.6212-1.5773-6.9758-4.8644-.3487-3.2812,1.773-5.7943,5.7928-6.2239,4.0227-.4267,6.7271,1.5714,7.0758,4.8526.3517,3.2841-1.8701,5.809-5.8928,6.2357ZM318.3427,155.6056c-2.6617.2825-4.1301,1.6273-3.9315,3.4695.1942,1.8422,1.9098,2.8427,4.5774,2.5602,2.6455-.2825,4.2125-1.6332,4.0154-3.4783-.1942-1.8422-2.0128-2.8339-4.6613-2.5514Z" fill="#fff" stroke-width="0"/><path d="M317.9455,151.7742c-4.0551.7504-6.9154-1.4361-7.5202-4.7084-.3281-1.7745.2075-3.1458.8725-4.0934l1.8039,1.0211c-.4679.7063-.7887,1.4861-.5827,2.6014.3767,2.0423,2.2365,3.1752,4.8761,2.6867,2.6779-.4944,4.061-2.0217,3.6166-4.4288-.1118-.6003-.387-1.1683-.7504-1.4596l-2.4278.4502.4032,2.1747-2.0084.3708-.8107-4.37,5.5485-1.0241c.9696.6798,1.8995,2.0011,2.2159,3.7137.6194,3.3547-1.1344,6.3092-5.2366,7.0655Z" fill="#fff" stroke-width="0"/><path d="M316.6948,137.4283l-6.7683,5.5559-.6445-2.572,2.6411-1.9481c.8181-.5709,1.5847-1.1094,2.4248-1.7186l-.0147-.0677c-1.0285-.1413-1.9702-.2913-2.9575-.409l-3.2488-.4708-.6297-2.5249,8.5899,1.7303,4.4391-1.1065.6062,2.4189-4.4377,1.1124Z" fill="#fff" stroke-width="0"/><path d="M156.2517,320.4643l3.2046.0147.0412-10.1937-2.6279-.0118.0059-1.4537c1.3757-.2531,2.3527-.5885,3.1914-1.1006l1.7318.0088-.053,12.7597,2.8677.0118-.0088,1.8922-8.3618-.0353.0088-1.8922Z" fill="#fff" stroke-width="0"/><path d="M166.8191,318.7575c.0074-1.9304,1.2875-3.2194,2.6455-3.9315v-.1001c-1.0932-.7798-1.9643-1.8775-1.9569-3.4312.0088-2.2895,1.7862-3.7785,4.1964-3.7667,2.5484.0088,4.1346,1.6126,4.1243,3.9021-.0059,1.492-1.0255,2.7603-1.9452,3.4342l-.0015.1001c1.3125.7622,2.4616,1.901,2.4528,3.8903-.0088,2.1717-1.926,3.8373-4.7525,3.8256-2.7471-.0118-4.7731-1.6538-4.7628-3.9227ZM174.1656,318.7869c.0074-1.7921-1.6023-2.4748-3.5901-3.2988-1.0182.6915-1.7186,1.7833-1.7244,3.0575-.0059,1.4537,1.2036,2.4748,2.7765,2.4807,1.4934.0059,2.5322-.8652,2.5381-2.2394ZM173.8964,311.5595c.0059-1.3537-.8048-2.3719-2.2394-2.3777-1.1933-.0059-2.0938.8063-2.0982,2.1217-.0074,1.592,1.3831,2.3336,3.0119,2.9781.8814-.8151,1.3213-1.748,1.3257-2.722Z" fill="#fff" stroke-width="0"/><path d="M179.8965,319.6428c.5753.6592,1.4684,1.1006,2.4042,1.1035,1.773.0088,3.3121-1.4184,3.468-5.6-.8608,1.0535-2.1173,1.7038-3.2326,1.7009-2.4484-.0118-4.0948-1.5508-4.0816-4.6172.0118-2.9074,2.0099-4.8084,4.3788-4.7996,2.8074.0118,5.0689,2.2895,5.0483,7.1273-.0235,5.7737-2.6602,8.0719-5.4882,8.0602-1.6921-.0059-2.8839-.6886-3.7373-1.5685l1.2404-1.4066ZM185.7363,313.413c-.2075-2.8868-1.2977-4.2052-2.8898-4.2111-1.2551-.0059-2.2541,1.1271-2.2615,3.0369-.0074,1.8716.824,2.9486,2.3571,2.9545.8961.0029,1.9128-.5091,2.7941-1.7804Z" fill="#fff" stroke-width="0"/><path d="M189.8444,318.7482c.0074-1.9304,1.2875-3.2194,2.6455-3.9315v-.1001c-1.0932-.7798-1.9643-1.8775-1.9569-3.4312.0088-2.2895,1.7862-3.7785,4.1964-3.7667,2.5484.0088,4.1346,1.6126,4.1243,3.9021-.0059,1.492-1.0255,2.7603-1.9452,3.4342l-.0015.1001c1.3125.7622,2.4616,1.901,2.4528,3.8903-.0088,2.1717-1.926,3.8373-4.7525,3.8256-2.7471-.0118-4.7731-1.6538-4.7628-3.9227ZM197.191,318.7776c.0074-1.7921-1.6023-2.4748-3.5901-3.2988-1.0182.6915-1.7186,1.7833-1.7244,3.0575-.0059,1.4537,1.2036,2.4719,2.7765,2.4807,1.4934.0059,2.5322-.8652,2.5381-2.2394ZM196.9217,311.5503c.0059-1.3537-.8048-2.3719-2.2394-2.3777-1.1933-.0059-2.0938.8063-2.0982,2.1217-.0074,1.592,1.3831,2.3336,3.0119,2.9781.8814-.8151,1.3213-1.748,1.3257-2.722Z" fill="#fff" stroke-width="0"/><circle cx="145.967" cy="315.1512" r="2.7238" fill="#fff" stroke-width="0"/><circle cx="209.6357" cy="315.1512" r="2.7238" fill="#fff" stroke-width="0"/></g></svg>