<svg xmlns="http://www.w3.org/2000/svg" width="3520" height="3520"><g fill="#005ea6"><path d="M1686.656 1.405c182.57-7.22 366.35 13.37 542.49 62.17 180.24 49.75 352.29 128.97 507.35 233.45 130.89 88.05 249.74 193.85 352.89 313.16 100.42 116.13 185.68 245.4 252.44 383.67 76.8 158.8 129 329.4 154.65 503.91 29.36 200.17 24.66 405.33-14.48 603.85-33.4 169.69-92.3 334.34-174.24 486.66-74.43 138.56-167.83 266.84-276.31 380.7-109.02 114.55-233.23 214.73-368.72 296.34-139.02 83.85-289.87 148.03-446.69 190.04-190.12 51.09-388.82 69.41-585.12 55.53-183.94-12.94-365.88-54.89-536.65-124.53-152.42-62.03-295.84-145.97-424.84-248.13-121.56-96.27-230.59-208.36-323.3-332.68-103.28-138.44-185.95-292.26-243.98-454.95-65.36-182.59-99.53-376.17-101.86-570.04.14-11.33-.65-22.65-.07-33.97.95-187.67 31.81-375.26 91.93-553.07 30.96-91.81 69.68-180.99 115.54-266.33 70.84-131.89 158.84-254.5 260.7-364.2 104.66-112.75 223.79-212.14 353.95-294.19 166.67-105.27 351.4-181.82 543.68-225.23 105.28-23.88 212.78-37.89 320.64-42.16m6.02 20.98c-140.85 5.17-281.11 27.24-416.59 66.15-201.13 57.63-391.44 152.59-558.58 278.41-123.44 92.72-234.52 201.82-329.69 323.37-83.33 106.46-154.16 222.69-210.38 345.64-75 163.85-123.77 339.61-144.41 518.6-22.84 197.6-12.28 399.1 32.03 593.06 46.21 202.99 129.87 397.35 245.44 570.5 86.05 129.13 189.54 246.55 306.34 348.68 117.52 102.77 248.87 189.78 389.62 257.35 161.17 77.56 334.6 129.44 511.79 153.69 195.4 26.72 395.3 20.63 588.61-18.61 163.88-33.23 322.88-90.52 470.19-169.64 139.24-74.67 268.01-168.7 381.95-278.12 111.08-106.47 208.34-227.45 287.79-359.25 87.08-144.2 152.7-301.32 194.06-464.61 50.38-198.38 65.02-405.63 44.28-609.19-18.09-178.23-63.98-353.65-135.97-517.71-63.35-144.58-146.87-280.25-247.04-402.24-98.76-120.25-213.32-227.56-340.09-317.83-155.47-110.82-329.5-195.54-512.73-249.22-180.17-53.01-369.01-75.89-556.62-69.03"/><path d="M1697.676 53.405c182.83-6.38 366.77 16.36 542.31 68.09 177.33 52.1 345.92 133.61 497.09 239.91 125.28 88.02 238.67 192.92 336.14 311 100.82 122.01 184.6 258.09 247.93 403.15 72.73 166.28 118.32 344.35 134.73 525.09 17.92 196.77 2.1 396.7-47.78 587.94-41.83 160.99-107.69 315.67-194.48 457.55-80.33 131.4-178.55 251.84-291.01 357.04-113.53 106.24-241.57 196.98-379.56 268.65-153.11 79.64-318.46 135.65-488.46 165.42-203.06 35.57-412.5 34.29-615.09-3.92-170.87-32.17-336.68-90.96-489.7-173.51-135.06-72.76-260.16-163.9-370.97-269.98-110.7-105.93-207.14-226.79-285.75-358.33-46.77-78.27-87.27-160.29-120.9-245.05-57.7-145.29-95.04-298.62-110.8-454.15-20.1-198.06-5.95-399.67 42.79-592.75 49.6-197.33 135.32-385.44 251.35-552.56 86.4-124.67 189.49-237.75 305.62-335.32 166.64-140.23 360.37-248.24 567.51-315.62 151.41-49.47 309.85-77.16 469.03-82.65m54.39 124.2c-5.33-.2-11.13-.94-15.97 1.94-4.72 2.47-6.68 7.91-7.03 12.94 2.03 1.5 4.03 3.09 5.57 5.15-2 4.14-.88 11.54 4.53 12.52 4.18.86 8.48.13 12.71-.12 15.66-1.62 31.41-1.54 47.1-2.75 4.57-.07 9.31-1.26 13.78.23-.07 4.08.36 8.24-.64 12.24-2.2 9.28-7.18 17.57-12.43 25.42-15.62 22.34-35.32 41.36-54.17 60.9-5.8 6.18-11.98 12.13-16.47 19.37-9.94 1.64-19.9 3.19-29.95 3.84-9.03.75-18.22-.55-27.1 1.61-4.15 1.05-8.63 1.87-11.97 4.74-1.91 1.48-3.57 3.47-6 4.05-3.08.96-6.43 1.52-8.87 3.81 1.83 3.08 4.99 4.93 8.02 6.67 7.45 3.89 15.33 6.9 23.03 10.27 7.98 3.17 15.92 8.03 24.88 6.84 43.32-9.48 87.43-16.93 131.92-16.71 10.74.68 22.13-.04 32.02 4.92 7.52 3.26 15.83 2.56 23.79 2.15 1.45-1.34 2.21-3.26 3.65-4.62 2.17-1.64 5.36-.75 7.38-2.64 4.68-3.99 8.82-8.56 13.54-12.5 5.1-4.11 11.25-7.43 14.73-13.17 1.54-2.2.33-5.18-2.1-6.02-6.11-2.59-12.1-6.29-18.96-6.11-11.76.24-23.3-2.65-35.04-2.55-11.76-.05-23.37 2.09-35 3.49-17.63 2.19-35.25 4.41-52.88 6.54-7.79.71-15.8 2.54-23.51.34.33-2.82.69-5.62 1.12-8.42 31.08-13.58 55.57-38.51 74.69-65.98 12.42-17.31 22.32-36.25 34.35-53.8 3.83-4.51 7.19-9.61 8.19-15.56.91-3.73-.13-8.28-3.62-10.33-4.39-2.77-9.8-2.43-14.75-2.97-36.65-2.51-73.76 2.52-108.54 14.27m-794.64 134.27c-6.28 4.25-12.17 9.1-17.55 14.45-19.78 19.13-34.68 43.52-41.67 70.2-.99 5.22-2.47 10.69-1.17 15.98 1.38 2.59 4.41.23 5.81-1.18 5.74-6.12 10.19-13.33 14.39-20.56 7.83-12.83 16.8-25.01 27.18-35.89 4.94-4.78 9.98-9.96 16.55-12.41 6.22-2.27 11.84 2.4 16.92 5.31 6.9 5.92 7.02 15.88 11.68 23.25 5.18 8.84 9.67 18.46 17.35 25.47.88 1.07 1.75 2.52 1.31 3.98-1.41 5.82-5.39 10.58-9.56 14.69-16.62 17.38-33.59 34.41-50.41 51.6 12.85.85 24.94-4.92 35.7-11.32 10.82-6.44 20.17-15.12 27.91-25.02 5.97-8.63 8.45-19.42 8.3-29.8-3.05-7.33-6.54-14.49-9.37-21.92-2.35-5.52-3.55-11.44-6.11-16.87-4.52-9.94-8.28-20.36-9.43-31.28-1.2-9.31-6.56-19.16-15.99-22.16-7.29-2.1-15.59-.87-21.84 3.48m1632.68 40.65c-3.78 4.29-7.18 8.9-10.46 13.58-10 14.51-19.08 29.64-27.7 45.01-13.34-3.7-26.59-8.07-40.35-9.9-3.15-.84-7.37-1.93-8.2-5.57.48-5.56 1.99-10.95 3.36-16.34 1.07-3.85-.8-8.46-4.58-10-4.2-1.78-8.83-.61-13.2-1.13-4.61-.78-9.26.7-13.25 2.9-4.06 5.59-8.18 11.44-14.12 15.16-3.1 1.2-6.52 1.66-9.2 3.74-6.61 4.52-9.79 12.28-11.86 19.71-.91 3.59 1.22 7.31 4.53 8.79 6.7 3.33 14.55 3.39 21.86 2.54 9.66-.91 19.41-.41 29.06.54 7.81 1.15 15.77.65 23.53 2.31 21.97 4.22 43.01 12.12 63.7 20.47 15.32 6.32 30.44 13.17 45.06 20.99 4.87 2.6 9.89 5.92 12.22 11.13 1.39 2.99-2.32 4.82-4.8 4.81-27.42-1.52-54.92-2.49-82.24-5.44-2.92-3.4-6.9-5.99-11.44-6.36-7-.65-13.98.58-20.96.83-5.25-.06-8.22 5.19-9.43 9.63-2.39 9.3-1.87 19.23.55 28.47 1.02 5.26 6.89 7.65 8.04 12.85 1.01 3.81 1.02 8.4-1.91 11.4-3.21 4.42-6.33 9.05-10.99 12.09-17.41-3.41-35.1-5.51-52.28-10.04-4.08-.94-7.74-3.59-12.04-3.42-2-.07-4.11 1.25-4.42 3.3-.49 6.33 1.97 12.58 5.94 17.46 3.96 5.23 7.96 10.79 13.76 14.14 5.95 3.65 13.88 1.24 19.49 5.69 3.81 2.89 3.66 8.31 2.09 12.39-.81 2.89-3.15 4.87-5.11 6.98-4.95 5.22-9.98 10.36-15.24 15.26-9.11-1.41-18.35-1.36-27.52-1.97-3.77-.2-8.07-.73-11.25 1.71-2.21 1.8-.94 4.98-.72 7.35.61 4.83 3.79 9.96 8.94 10.76 12.66 1.57 25.38 2.64 38.12 3.35 11.93.01 23.37-6.18 30.64-15.54 3.86-4.59 6.72-9.91 10.47-14.58 1.76-2.39 5.35-2.85 7.57-.77 7.38 5.86 13.04 14.12 21.99 17.82 6.17 3.01 13.74-.78 16.93-6.38 2.28-5.48-.88-11.28-3.4-16.08-5.69-9.86-13.37-18.33-20.63-27.01 6.88-10.8 15.02-20.84 24.57-29.4 4.68-8.72 4.22-19.71.23-28.65-1.86-4.89-5.44-8.93-7.14-13.88-.82-1.99.6-4.22 2.56-4.82 5.63-2.07 11.49.08 17.11 1.06 29.58 5.55 59.12 11.56 88.96 15.6 6.92 1.51 13.92 3.41 21.08 2.95 4.7-.03 7.12-5.32 6.81-9.42-.24-11.52-7.23-21.82-15.47-29.36-13.89-11.65-30.58-19.16-46.71-27.12-8.64-4.55-18.1-7.12-26.99-11.1-9.85-4.34-20.17-8.7-27.71-16.64 10.22-10.35 22-19.25 30.9-30.88 4.53-5.89 9.46-11.59 12.82-18.26 2.36-4.55 2.44-9.84 1.93-14.82-.5-3.21-3.11-6.27-6.55-6.15-6.46.04-12.95 3.16-16.95 8.26m49.72 21.76c-3.72 6.02-7.83 11.82-10.89 18.21-1.04 2.4-2.19 5.1-1.43 7.74 1.27 2.78 4.76 3.62 7.59 3.33 7.13-.76 13.94-3.28 21.04-4.3 12.16-1.82 24.52-2.95 36.81-1.81 4.22.7 9.49 1.26 11.93 5.31 1.62 5.61.01 11.8-2.94 16.7-4.3 7.01-12.17 10.96-20.05 12.41-10.95 1.68-21.98 2.66-32.95 4.05-3.4.65-7.42.67-9.74 3.62 1.24 1.7 2.8 3.18 4.77 4.07 3.84 1.85 7.76 3.98 12.16 4.03 17.6 1.99 36.44 3.73 52.99-3.98 7.58-3.19 13.24-9.45 18.22-15.79 5.16-6.73 8.17-15.51 6.16-23.97-1.71-6.28-4.39-13.11-10.48-16.32-8.52-4.5-18.54-5.26-27.98-4.36-11.62.12-23.59.8-34.82-2.76-3.94-1.13-8.2-4.33-6.8-8.98-1.24-2.1-3-4.11-5.54-4.46-4.02.34-6.18 4.2-8.05 7.26m-1581.88 29.22c-2.72 1.5-4.65 4.01-6.85 6.12-26.3 27.17-48.49 59.03-60.89 94.97 8.6-.33 17.43-1.59 25.05-5.83 3.41-2.08 6.85-4.59 8.68-8.25 6.79-14.28 13.59-28.62 22.18-41.93 4.9-7.5 10.27-14.94 17.5-20.37 4.02-2.96 9.57-5.08 14.38-2.69 7.02 3.55 14.03 7.77 18.86 14.14 5.45 6.98 8.15 15.52 11.15 23.72 7.08 12.69 14.33 25.3 21.56 37.9-18.93 14.36-33.76 33.3-47.24 52.67-2.43 3.73-5.31 7.87-4.74 12.55 2.41 4.98 9.55 4.73 13.88 2.5 13.71-5.24 27.48-10.33 41.01-16.03 2.92-1.11 6.06-2.61 7.12-5.82 3.17-8.46 3.04-17.69 3.45-26.6-.34-11.28 1.01-22.74-1.64-33.84-3.49-15.29-9.1-29.99-14.88-44.53-4.35-9.19-10.04-17.67-14.3-26.9-4.63-10.63-15.63-17.96-27.12-18.74-9.54-.8-18.92 2.38-27.16 6.96m-105.29-2.32c-6.55 5.64-11.28 13-15.74 20.31-1.54 2.42-2.37 5.22-2.14 8.09 3.56 2.17 7.69.03 11.18-1.26 6.46-3.16 12.81-6.79 18.23-11.56 3.46-3.17 6.73-8.17 4.7-12.98-1.7-2.82-4.22-5.87-7.78-6.01-3.2-.32-6.09 1.46-8.45 3.41m-88.2 49.64c9.25 15.1 22.59 27.35 37.42 36.86 8.98 5.56 18.35 10.88 28.59 13.74 2.52-13.02-3.03-26.34-10.59-36.75-5.62-8.01-15.3-11.87-24.77-12.66-10.2-.77-20.43-1.19-30.65-1.19m832.22 15.56c-45.45 2.14-90.79 6.64-135.78 13.5-169.01 25.72-332.68 85.74-478.3 175.29-130.09 79.77-245.85 182.78-340.31 302.63-101.75 128.87-178.7 277.3-224.89 434.9-56.99 193.57-67.41 400.47-31.13 598.91 23.27 127.54 66.07 251.5 126.39 366.26 40.99 78.07 90.04 151.9 146.02 220.03 97.01 118.11 215.04 218.93 346.99 296.12 147.04 86.25 311.42 142.76 480.43 165.06 191.46 25.41 388.66 8.02 572.32-52.02 150.59-48.96 291.85-126.22 414.61-226.2 119.31-97.04 221.22-215.44 299.24-347.99 88.71-150.33 146.3-318.92 167.94-492.13 24.6-194.95 4.75-395.54-59.05-581.49-51.08-149.7-130.26-289.69-231.84-410.92-105.55-126.16-235.29-232.04-380.2-309.89-113.55-61.12-236.36-105-362.95-129.6-101.77-19.86-205.93-27.23-309.49-22.46m-635.59 27.2c-8.13 4.14-15.08 10.17-21.98 16.05-3.14 2.73-6.86 5.59-7.6 9.94-.41 2.14 1.7 3.24 3.13 4.32 2.55 2.09 6.08 1.13 8.8-.09 10.7-4.68 21.14-9.93 31.9-14.47-.67-5.8-.86-12.39-5.22-16.81-2.83-1.75-6.3-.14-9.03 1.06m-87.51 80.33c-.65 2.54-.73 5.23.41 7.66 2.84 6.66 7.81 12.09 12.63 17.38 11.31 11.78 24.29 22.06 38.41 30.26 10.08-.4 20.58 1.1 29.28 6.5 2.12-2.84-.23-6.14-.37-9.21-1.18-9.36-3.13-19.17-9.16-26.72-4.41-5.57-11.01-8.56-17.13-11.8-11.71-5.97-23.74-11.65-36.63-14.52-5.71-1.15-11.97-2.16-17.44.45m2081.38 234.63c-6.89 4.5-7.73 14.46-4.14 21.31 4.23 7.08 12.33 11.05 15.96 18.66-1.83 2.34-4.71 4.02-7.72 3.12-4.5-1.21-9.24-.5-13.33 1.59-9.64 4.86-17.39 12.59-24.28 20.75-8.05 8.96-15.59 18.39-23.99 27.02-5.07 4.07-10.74 7.38-16.4 10.56-5.44 2.71-11.76 5.52-17.89 3.62-2.9-1.02-5.99-3.19-5.99-6.58-.21-6.17 5-10.38 7.14-15.73 2.08-5.11 3.48-10.64 3.17-16.18-.28-2.97-1.27-6.73-4.54-7.57-5.76-2.05-11.22 1.62-16.07 4.25-8.97 4.75-16.62 11.46-24.83 17.33-21.29 15.52-42.43 31.36-65.16 44.73-9.41 4.42-17.99 10.49-27.72 14.24-2.99 1.4-6.09 0-9.04-.63-3.29.18-5.35 3.08-7.2 5.43-2.75 3.41-3.48 7.87-4.39 12.03-.75 2.99-.12 7.1 3.19 8.27 4.06 1.19 8.45.43 12.49-.63 31.67-10.68 61.97-25.72 88.86-45.65 5.43-3.54 9.83-8.77 16.21-10.7 4.2-1.42 8.7-3.68 13.22-2.63 2.57.72 1.62 3.73 1.14 5.62-1.32 3.52.85 7.31 3.95 9.04 5.24 3.01 11.49 3.11 17.38 3.47 8.33.41 16.88-.69 24.49-4.31 9.8-4.5 17.71-12.31 23.92-21 3.71-5.56 9.18-9.55 14.19-13.85 9.41-7.48 19.09-14.84 29.93-20.15 8.86-3.71 17.34-8.33 25.41-13.56 2.8-1.71 5.87-4.17 5.91-7.78.48-3.8-2.24-6.74-4.69-9.19-7.39-9.26-13.56-19.6-17.12-30.94-1.27-4.94-8.1-7.11-12.06-3.96m-2642.48 59.7c-9.08 3.24-18.12 6.67-27.42 9.24-3.9 1.35-8.22-1.61-11.86 1 .59 1.32 1.07 2.76 2.1 3.86 3.49 3.83 7.01 7.87 11.8 10.11 9.45 4.57 20.44 3.85 30.46 1.78 6.09-1.43 12.48-2.75 17.69-6.43 1.56-1.03 3.06-3.17 1.99-5.01-2.74-3.11-5.73-6.05-7.76-9.7-1.44-2.37-2.73-5.43-5.74-6.07-3.76-.67-7.67.03-11.26 1.22m2699.55 8.25c-8.58 6.68-17.36 13.39-27.32 17.88-13.45 5.76-28.36 4.82-42.64 5.61-7.28 1.2-15.49 3.23-19.73 9.86-2.69 4.52-5.91 9.26-5.58 14.78-.15 2.23 2.09 4.07 4.29 3.72 5.06-.16 9.71-2.46 14.43-4.11 4.95-1.83 10.26-5.08 15.68-2.94 9.19 3.69 18.82-.71 27.25-4.39 3.58-1.22 7.81-3.54 11.4-1.12 9.23 4.67 15.92 12.83 24.51 18.45 14.8 10.34 31.86 17.54 49.72 20.44 2.7 1.99 3.69 5.6 5.36 8.46 1.29 2.19-.95 4.27-2.79 5.13-3.95 1.79-8.17 3.54-12.59 3.11-21.31-1.17-42.44-4.54-63.72-6.07-7.25-1.4-10.62-9.02-17.01-11.99-3.81-1.87-8.19-1.26-12.21-.75-1.89.82-1.45 3.17-.97 4.75 1.6 4.39 4.55 8.14 7.51 11.72 2.32 3.02 5.89 4.62 8.85 6.94 7.55 5.74 14.94 11.83 21.05 19.12 2.86 4.43 4.76 9.63 8.85 13.2 2.81 2.77 7.04 2.58 10.67 3.36 3.64.66 8.14-.7 9.47-4.5 1.18-3.6 1.79-7.57 1.32-11.32-.93-3.84-6.76-2.7-7.35-6.73-.75-2.57 2.59-3.61 4.58-3.7 11.36-.9 22.64 1.62 33.96 2.35 8.69.47 17.34 2.69 25.09 6.7 3.67 1.83 6.52 5.46 10.83 5.9 5.22.02 8.9-4.7 10.49-9.21 1.5-5.89 2.83-11.82 4.25-17.73.87-3.73.33-8.19-2.7-10.83-3.7-3.47-9.44-3.33-13.01-6.93-2.66-2.84-3.77-6.65-4.96-10.24 3.38-1.71 6.46-4.1 8.58-7.3 5.95-8.6 7.75-19.16 10.06-29.15.8-3.7 2.36-7.52 1.21-11.31-1.16-4.62-5.57-7.49-9.92-8.65-6.16-1.67-12.54-2.6-18.89-2.97-4.26-.29-9.07 1.6-10.5 5.93-.95 3.57-1.94 7.14-3 10.68-.29 6.22 5.17 10.44 6.93 15.97 1.01 6.16-5.63 9.41-10.53 10.82-10.59 2.02-21.66-.62-31.04-5.68-7.18-3.4-13.11-9.27-20.94-11.21-6.1-1.93-10.24-9.33-7.35-15.35 2.77-6.31 9.83-8.59 15.4-11.73 2.7-1.22 4.09-4.03 5.34-6.55.73-1.66.83-4.31-1.31-4.85-3.76-.67-8.16-.33-11.02 2.43m-2543.34 40.6c3.63 2.47 8.17 3.11 12.17 4.87 11.44 4.19 22.93 8.39 33.9 13.75 4.15 2 8.4 5.31 10.01 9.63-2.58 6.79-5.7 13.81-11.46 18.52-7.85 6.61-18.16 9.24-28.1 10.75-19.27 2.67-38.81 1.06-58.05-1.2-10.05-1-19.92-3.55-30.05-3.7-9.59-.65-19.14-1.84-28.55-3.79-9.78-2.19-19.8-4.97-28.06-10.86-2.15-4.09-3.57-8.66-6.68-12.18-2.46-3.01-5.99-4.87-9.62-6.08-4.03 2.94-7.2 6.88-9.66 11.2-1.82 3.63-5.88 5.15-9.48 6.41-10.45 3.23-21.62.54-31.43-3.51-14.37-5.64-29.67-8.72-43.69-15.24-3.45-1.41-6.04-4.68-9.89-5.07-4.24-.61-8.28 2.36-10.21 5.93-.49 4.77 1.72 9.29 3.97 13.35 2.84 4.65 5.84 9.31 9.81 13.11 7.79 6.59 18.31 9.79 28.46 8.65 6.37.98 12.65 2.93 18.45 5.78-7.29 16.01-14.4 32.18-19.58 49.01-1.92 5.22.94 10.28 2 15.31.56 2.89 2.88 5.8 6.02 5.85 3.89.35 7.37-1.7 10.78-3.24 3.62-1.77 7.4-3.24 10.86-5.31 2.17-1.35 2.51-4.25 1.95-6.52-1.96-9.97-3.59-20.85 1.01-30.36.4-5.03-2.37-9.73-3.72-14.48-1.09-4.21-2.04-8.45-3.28-12.61 1.81-.44 3.71-.82 5.57-.28 9.39 2.4 19.29 3.82 27.74 8.93 8.67 4.93 15.26 13.88 16.43 23.88 1.09 21.72-1.36 43.82-8.86 64.31-4.06 9.39-7.07 19.48-13.63 27.53-3.61 4.74-8.7 8.88-9.65 15.11-1.29 5.85-.64 13.44 5.12 16.73 5.09 1.74 10.67.1 15.18-2.49 5.45-3.3 10.19-7.83 13.4-13.36 4.82-7.4 10.25-15.52 9.33-24.8-.73-5.64 1.86-12.15 7.23-14.62 3.76-1.72 8.1-2.64 12.09-1.1 9.78 3.09 19.32 7.42 27.49 13.7 4.72 3.34 10.71 1.87 16.07 2.07 7.19 1.11 14.23 3.2 20.85 6.25 4.87 2.5 10.42 4.43 13.88 8.93 6.11 6.87 9.47 15.8 10.89 24.79-.07 3.44-1.47 7.17-4.62 8.94-5.72 3.14-12.48 4.88-18.87 2.79-7.35-1.47-9.66-9.75-15.82-13.07-7.08-3.9-15.69-4.65-23.5-2.87-2.91.71-6.19 1.21-8.34 3.5-2.14 2.47-.7 5.95.67 8.46 5.06 8.28 11.57 16.21 20.55 20.39 4.5 2.26 9.57 2.84 14.25 4.63 9.84 3.65 19.67 7.41 29.11 12.04 5.77 2.77 13.27 3.75 18.79-.08 3.87-2.78 6.19-7.19 7.54-11.65 2.42-7.93 5.12-15.86 5.97-24.15 1.17-10.16-.67-20.51-4.38-29.98-7.51-17.79-12.33-36.7-14.42-55.87-1.51-5.11-3.44-10.12-5.84-14.87-3.88-7.53-10.77-12.92-18.01-17-1.37 5.17.4 10.46 1.13 15.6 1.12 8.39 4.33 16.81 2.25 25.33-.7 3.46-3.05 7.62-7.13 7.3a30.37 30.37 0 0 1-14.4-4.27c-2.19-10.93-3.4-22.35-8.37-32.47-1.04-2.97-5.73-3.74-7.02-.57-3.84 7.68-4.87 16.78-10.44 23.58-2.87 3.64-7.97 5.17-12.35 3.6-6.88-2.41-13.51-5.54-19.92-8.98-4.65-3.82-7.67-9.49-8.82-15.36-2.4-10.66-4.7-21.36-6.46-32.14-.3-3.8-.73-7.97 1.12-11.45 2.66-4.15 8.32-3.8 12.64-3.91 21.38 1.63 42.55 5.29 63.9 7.25 25.94 2.5 52.17 4.13 78.14 1.07 11.26-1.55 22.74-3.55 32.91-8.87 8.22-4.16 16.61-7.98 24.73-12.33 8.95-4.62 18.11-9.02 26.26-15.01.44-5.06 1.26-11.1-2.5-15.17-2.38-2.81-6.15-3.44-9.47-4.5-22.63-7.68-44.99-16.21-68.01-22.71-9.2-2.04-19.13-4.15-28.28-.75m2426.6 53.48c.14 4.46-1.06 9.04.27 13.42.6 2.22 2.9 3.19 4.7 4.32 5.59 3.05 11.25 5.99 16.67 9.35 2.34 1.32 3.72 3.73 5.27 5.87 2.24 3.37 4.6 6.94 5.05 11.09-1.73 3.18-5.88 3.52-9.07 3.89-9.76.06-19.54.8-29.24-.45-11.77-1.25-23.47-3.42-34.78-6.91-3.29-.9-5.4-3.88-8.53-5.08-11.19-5.05-23.42-7.3-35.51-8.87-4.86-.28-10.17-1.69-14.64.85-2.26 1.16-4.71 2.78-5.2 5.45-.53 2.56.3 5.67 2.8 6.92 7.89 4.69 16.65 7.71 25.36 10.53 3.77 1.3 8.03 1.36 11.42 3.72 6.69 4.21 12.26 11.04 13.64 18.96 1.08 22.89.11 46.47-8.23 68.08-3.11 7.53-3.46 15.87-2.65 23.88 1.03 10.21 3.77 20.21 7.71 29.67 2.06 4.49 5.14 9.2 10.13 10.72 5.13 1.33 10.43 0 15.55-.85 14.13-1.78 28.44-2.02 42.53-4.31 6.46-.92 11.08-6.34 13.86-11.88 5.7-11.4 9.3-23.81 11.04-36.42.42-2.74.2-6.75-3.13-7.4-5.24 2.52-8.91 7.61-10.55 13.09-2.29 7.36-10.35 11.35-17.66 11.34-10.09-.03-20.31.36-30.23-1.78-2.67-.5-5.28-1.78-6.67-4.18-2.37-4.07-4.02-8.57-5.08-13.14-1.06-3.67.54-7.26 1.1-10.84 2.22-13.2 2.73-26.6 3.75-39.93.79-10.69-2.54-21.16-6.58-30.91 2.6-1.62 5.35-3.33 8.51-3.58 8.95-.81 17.95-.09 26.89.72 25.33 2.55 50.18 8.36 75.37 11.92 4.14.53 9.21.45 12.18-2.98 1.71-2.88 3.28-5.99 3.9-9.3.31-5.13-2.6-9.7-5.54-13.63-5.27-6.66-11.09-12.9-17.62-18.33-5.19-4.68-12.12-6.48-18.1-9.84-7.98-4.16-16.04-8.4-22.8-14.41-8.14-6.59-16.13-13.36-24.32-19.89-2.28 3.26-1.44 7.39-1.57 11.12m-2733.8 462.69c-17.51 3.18-31.94 18.42-34.06 36.11-2.49 16.57 5.81 34.11 20.29 42.58 16.4 10.25 39.62 7.36 52.87-6.78 13.55-13.38 16.09-36.12 5.93-52.21-8.93-15.2-27.83-23.31-45.03-19.7m2973.17.02c-6.2 1.23-12.14 3.84-17.19 7.63-13.83 10.02-20.32 28.79-15.78 45.24 4.49 18.4 22.45 32.29 41.41 31.93 18.89.41 36.87-13.33 41.48-31.64 4.7-16.56-1.84-35.55-15.84-45.6-9.6-7.27-22.33-9.85-34.08-7.56m-3065.59 284.94c-.2 9.88.41 19.75.23 29.63 47.12 7.48 94.11 15.9 141.46 21.84-47.15 7.27-94.04 16.12-140.96 24.74-.01 10.12.41 20.24.24 30.37 60.49 13.5 121.01 26.92 181.49 40.46.14-10.68-.45-21.35-.23-32.03-44.23-8.06-88.36-16.8-132.86-23.27 44.3-6.85 88.26-15.74 132.35-23.82-.11-11.16-.4-22.32-.22-33.48-44.24-6.95-88.48-14.02-132.93-19.56 44.43-6.89 88.35-16.66 132.42-25.48-.75-11.23.25-22.5-.61-33.72-60.12 14.8-120.24 29.6-180.38 44.32m3009.73-34.49c-.02 11.94-.02 23.89-.01 35.83 26.11 9.77 52.2 19.57 78.3 29.38-26.01 10.31-51.92 20.87-77.95 31.12-.24 12.52-.04 25.06-.1 37.59 35.74-16.66 71.54-33.21 107.3-49.84 2.46-1.07 4.86-2.78 7.71-2.53 21.99.19 43.98-.17 65.98-.22-.13-10.5-.36-21-.23-31.5-13.25-.02-26.48-.01-39.72-.01-9.59-.23-19.27.45-28.79-.34-37.53-16.41-74.97-33.04-112.49-49.48m.54 196.25c-11.7 14.2-15.96 33.39-14.57 51.46 1.36 17.09 10.49 32.98 23.68 43.75 16.37 13.58 37.18 20.7 57.98 23.85 21.32 3 43.7 2.81 64.09-4.82 15.88-5.86 30.24-17.13 37.64-32.61 6.84-14.3 8.56-31.69 2.3-46.49-3.87-9.19-10.99-16.4-18.22-23.01 7.55-.13 15.13-.14 22.68-.64.63-6.97 1.56-13.9 2.3-20.85-32.37-3.75-64.74-7.37-97.1-11.12-2.33 20.91-4.76 41.8-7.13 62.71 10.19 1.07 20.34 2.46 30.56 3.34 1.28-11.52 2.66-23.02 3.94-34.53 9.24 2.75 18.33 6.98 25.15 13.95 7.52 7.34 11.65 18.39 9.61 28.84-1.43 9.16-5.8 18.09-13.12 23.95-6.54 5.41-14.78 8.33-23.06 9.72-12.99 2.08-26.3 1.06-39.19-1.15-15.2-2.8-30.97-8.25-41.46-20.16-10.15-11.16-12.58-29.33-3.94-42.04 6.43-9.13 17.19-15.23 28.37-15.85.95-10.43 2.35-20.81 3.51-31.22-20.16-.88-41.06 7.17-54.02 22.92m-2942.37 34.12c-15.77 2.73-32.43 7.65-43.44 19.99-12.66 14.05-15.79 34.45-12.08 52.54 2.71 15.47 10.21 31.01 23.85 39.61 15.51 9.91 34.96 10.19 52.62 7.61 38.53-5.52 77.06-11.09 115.6-16.58-1.53-10.66-3.04-21.31-4.57-31.96-39.63 5.7-79.26 11.34-118.89 17-8.93 1.06-18.84 1.05-26.49-4.32-6.95-4.78-10.05-13.27-11.09-21.32-1.06-7.25 1.48-14.91 6.74-20.01 6.54-6.62 15.83-9.49 24.79-10.91 38.95-5.55 77.88-11.15 116.82-16.74-1.51-10.65-3.03-21.3-4.56-31.94-39.76 5.71-79.54 11.31-119.3 17.03m2957.71 125.24c-15.05 1.67-29.88 7.47-41.08 17.84-12.54 11.68-20.54 28.23-21.6 45.37-1.39 17.59 4.46 35.69 16.24 48.88 13.28 15.12 32.05 24.09 51.01 29.84 18.72 5.47 38.41 8.98 57.95 6.93 14.05-1.44 27.99-6.35 38.98-15.4 15.67-12.81 24.95-33.01 24.64-53.23.04-15.37-5.43-30.71-15.43-42.39-12.53-14.94-30.51-24.08-48.76-30.02-19.93-6.25-41.04-10.16-61.95-7.82m-2922.31 46.43c-18.28 7.34-35.89 18.59-46.59 35.53-8.97 13.92-11.2 31.59-7.01 47.52 3.55 15.01 12.58 29 25.92 37.06 16.57 10.22 36.89 11.92 55.86 10.02-2.64-10.24-5.35-20.46-8.12-30.66-9.29.9-19.14.04-27.41-4.62-13.21-7.47-18.93-25.76-12.17-39.38 4.25-8.66 12.01-14.99 20.18-19.79 14.77-8.39 31.44-13.04 48.22-15.17 12.74-1.27 26.59-.8 37.65 6.41 13.61 8.55 18.46 28.73 9.65 42.3-4.44 6.88-11.66 11.22-18.75 14.97 2.79 10.2 5.47 20.44 8.28 30.65 14.82-5.14 28.35-14.63 37.31-27.62 18.89-26.65 11.24-67.72-15.49-86.27-15.51-10.96-35.21-14.24-53.85-13.21-18.42 1.02-36.56 5.51-53.68 12.26m-12.92 202.11c3.97 9.82 7.64 19.77 11.85 29.49 25.06-10.02 50.09-20.14 75.25-29.9 7.01 18.05 14.34 35.98 21.46 54-25.11 9.99-50.23 19.98-75.33 29.99 3.88 9.83 7.82 19.64 11.73 29.47 56.08-22.33 112.19-44.56 168.25-66.95-3.86-9.84-7.78-19.65-11.66-29.48-21.21 8.5-42.49 16.84-63.7 25.34-7.11-18.06-14.39-36.05-21.54-54.09 21.2-8.54 42.47-16.94 63.7-25.44-3.93-9.79-7.86-19.58-11.74-29.38-56.15 22.17-112.17 44.66-168.27 66.95m2964.89 24.92c-46.3-17.06-92.52-34.35-138.84-51.36-3.66 9.91-7.3 19.82-10.98 29.72 56.63 20.88 113.2 41.92 169.84 62.8 12.33-33.26 24.83-66.47 36.85-99.84-10.33-3.67-20.57-7.55-30.84-11.35-8.73 23.32-17.31 46.7-26.03 70.03m-154.75 42.48c-14.43 2.67-27.74 10.51-37.31 21.61-14.17 15.98-20.13 38.92-15.35 59.76 3.32 15 12.3 28.19 23.42 38.58 13.19 12.27 29.01 21.4 45.46 28.56 17.59 7.47 36.95 12.43 56.16 9.82 16-2.04 31.05-10.29 41.48-22.59 14.05-15.9 19.69-38.68 15.06-59.34-3.28-14.68-11.93-27.65-22.7-37.94-13.83-13.03-30.59-22.57-48-29.96-18.23-7.64-38.5-12.19-58.22-8.5m-2742.3 96.06c5.3 9.77 10.6 19.53 15.93 29.3 12.54-2.93 25.12-5.68 37.67-8.55 8.82 16.12 17.55 32.3 26.31 48.46-9.3 8.85-18.74 17.55-28.11 26.33 5.43 10.08 10.86 20.16 16.4 30.19 44.72-44.2 89.2-88.65 133.97-132.8-5.75-10.72-11.54-21.42-17.39-32.09-61.6 13.01-123.19 26.1-184.78 39.16m2647.01 39.05c-5.47 8.26-11.03 16.45-16.44 24.74 34.88 23.36 69.79 46.68 104.6 70.14-46.01-6.73-91.97-13.85-137.99-20.54-6.24 9.17-12.33 18.45-18.51 27.68 50.18 33.59 100.32 67.26 150.47 100.9 5.51-8.24 11-16.49 16.5-24.74-35.74-23.94-71.44-47.94-107.23-71.79 47.17 6.77 94.29 13.87 141.45 20.74 5.93-8.71 11.73-17.5 17.64-26.23-50.15-33.66-100.33-67.26-150.49-100.9m-2549.34 133.01c5.64 8.07 11.36 16.1 16.97 24.2 35.18-24.72 70.26-49.59 105.46-74.28-23.26 41.51-46.57 82.99-69.92 124.45 5.97 8.67 12.17 17.19 18.15 25.85 49.45-34.67 98.77-69.55 148.09-104.4-5.78-8.02-11.35-16.19-17.11-24.21-34.27 24.34-68.68 48.5-103.03 72.75 22.79-40.52 45.66-80.99 68.58-121.44-6.22-9.24-12.83-18.22-19.21-27.36-49.32 34.81-98.69 69.58-147.98 104.44m2433.59 28.39c17.27 14.89 34.72 29.59 51.93 44.57-12.6 14.72-25.25 29.4-37.8 44.17-17.34-14.85-34.68-29.69-52.04-44.5-6.92 8.03-13.77 16.12-20.67 24.16 45.9 39.22 91.77 78.48 137.68 117.69 6.84-8.07 13.75-16.09 20.65-24.11-20.5-17.64-41.13-35.11-61.62-52.74 12.63-14.72 25.17-29.52 37.86-44.19 20.51 17.56 41.03 35.11 61.54 52.67 6.96-8 13.86-16.05 20.7-24.14-45.93-39.21-91.8-78.47-137.7-117.72-6.81 8.08-13.75 16.04-20.53 24.14m-2211.8 30.64c-16.86 5.29-32.07 14.96-45.34 26.51-14.09 12.48-26.73 27.13-34.46 44.46-6.37 14.19-8.97 30.42-5.34 45.7 3.8 16.17 14.63 30.72 29.29 38.62 11.06 5.89 24.1 6.03 36.23 4.27-4.81 5.83-9.75 11.56-14.51 17.44 4.74 5.22 9.44 10.49 14.14 15.76 24.23-21.84 48.42-43.73 72.54-65.69-14.04-15.63-28.15-31.2-42.21-46.81a2491 2491 0 0 0-22.91 20.74q11.745 12.945 23.46 25.92c-11.85 7.37-26.67 12.69-40.49 7.94-17.18-5.9-27.62-26.33-22.92-43.78 3.1-12.4 11.05-22.87 19.72-31.97 10.3-10.26 21.77-19.74 35.19-25.62 10.52-4.64 22.84-6.59 33.86-2.51 11.22 4.07 20.75 14.03 22.28 26.15 1.15 9.77-1.18 20.37-7.64 27.99 7.06 7.89 14.13 15.76 21.29 23.57 16.4-17.12 24.01-43.38 15.75-66.08-5.85-16.15-17.8-30.01-32.6-38.63-16.68-9.59-37.34-9.85-55.33-3.98m2086.29 98.12c-14.39 9.21-25.68 23.89-28.81 40.89-3.55 17.87 1.3 36.38 9.72 52.2 8.27 15.61 19.81 29.29 32.56 41.44 14.81 13.76 32.44 25.71 52.67 29.37 15.31 2.94 31.76-.27 44.63-9.14 15.84-10.61 27.87-28.24 28.24-47.73.91-18.96-7.05-37.02-17.22-52.57-7.9 7.03-15.59 14.3-23.36 21.46 4.86 7.46 8.56 16.01 8.82 25.04.29 15.37-12.9 29.6-28.23 30.51-8.25.58-16.29-2.21-23.49-5.97-10.96-5.92-20.33-14.35-28.69-23.48-9.74-10.93-18.76-23.21-22.46-37.59-2.64-10-1.28-21.47 5.51-29.56 6.02-6.92 14.68-12.36 24.13-12.15 8.95.04 16.92 4.81 24.11 9.67 7.79-7.16 15.6-14.31 23.26-21.62-10.36-9.68-23.34-16.72-37.31-19.38-15.09-3.07-31.27.09-44.08 8.61m-1997.05 193.84c8.14 6.76 16.29 13.52 24.46 20.26 38.5-46.53 77-93.05 115.53-139.55-8.14-6.74-16.3-13.44-24.42-20.18-38.57 46.45-77.03 93-115.57 139.47m1820.69-46.39c35.69 48.7 71.41 97.38 107.22 146 30.71-22.56 61.49-45.04 92.15-67.67-6.43-8.62-12.68-17.36-19.1-25.97-22.41 16.37-44.75 32.83-67.11 49.26-9.19-12.52-18.38-25.04-27.54-37.57 19.74-14.36 39.37-28.87 59.05-43.3-6.41-8.68-12.71-17.43-19.13-26.08-19.66 14.47-39.36 28.88-58.96 43.43-7.46-10.08-14.75-20.27-22.32-30.25 21.22-16.04 42.86-31.54 64.2-47.43-6.39-8.63-12.71-17.31-19.08-25.93-29.8 21.82-59.59 43.67-89.38 65.51m-1749.15 104.84c8.14 5.56 16.25 11.17 24.39 16.74 24.54-35.28 48.87-70.7 73.45-105.95-7.57 47.02-15.32 94.02-22.95 141.04 8.64 6.06 17.36 11.99 26.03 18.01 34.28-49.7 68.76-99.26 103.03-148.95-8.07-5.66-16.19-11.25-24.27-16.88-24.05 34.51-47.79 69.24-71.87 103.72 7.51-45.93 15.13-91.85 22.7-137.77-9.2-6.24-18.28-12.63-27.45-18.9-34.33 49.66-68.82 99.22-103.06 148.94m1614.73-24.02c5.29 9.38 10.88 18.59 16.19 27.96 13.11-7.55 26.2-15.15 39.24-22.82 25.1 42.8 49.9 85.79 75.07 128.55 9.06-5.4 18.23-10.61 27.29-16-24.95-42.86-50.01-85.66-74.87-128.56 13.1-7.52 26.08-15.26 39.19-22.78-5.34-9.37-10.85-18.65-16.27-27.96-35.3 20.5-70.54 41.1-105.84 61.61m-1365.81-18.69c-16.32 3.93-28.92 17.06-36.1 31.76-4.87 9.72-8.25 20.81-6.21 31.74 1.62 9.61 7.43 17.84 13.87 24.9 6.77 7.24 14.15 13.88 21.23 20.83 5.82 5.6 12.07 11.2 15.67 18.58 3.99 8.46-1.04 18.33-8.03 23.48-7.4 5.3-17.33 3.7-25.19.32-9.35-4.03-19.1-10-22.8-20.02-3.08-7.76-1.1-16.41 2.43-23.64-8.97-4.74-17.81-9.71-26.87-14.28-4.09 8.03-7.28 16.64-8.22 25.67-1.37 11.05.93 22.62 6.76 32.16 5.06 8.36 12.39 15.16 20.45 20.62 15.38 10.61 34.99 16.76 53.57 12.3 13.94-3.28 25.19-13.49 32.65-25.36 5.85-9.51 10.79-20.25 10.42-31.65.1-9.58-4.24-18.6-10.03-25.99-3.7-4.92-8.25-9.05-12.54-13.4-8.81-8.94-18.01-17.46-26.68-26.52-3.23-3.6-5.3-8.59-4.36-13.44.97-4.96 3.41-9.71 7.15-13.12 5.61-5.47 14.32-6.02 21.45-3.62 8.89 3.01 17.55 8.55 22.06 17.02 4.06 7.64 2.4 16.78-.93 24.37 8.96 4.81 17.95 9.56 26.91 14.38 8.42-16.52 10.89-37.13 2.34-54.09-5.07-10.09-13.63-18.04-23.27-23.7-13.61-7.96-29.99-13.23-45.73-9.3m120.52 52.99c-4.01 10.02-8.17 19.98-12.15 30.02 14.04 5.58 28 11.37 42.02 17.02-18.57 46.01-37.35 91.92-55.88 137.94 9.77 3.95 19.57 7.84 29.31 11.87 18.75-45.93 37.32-91.93 55.97-137.9 14.07 5.64 28.08 11.43 42.16 17.07 4.04-9.96 8-19.95 12.08-29.89-37.79-15.49-75.65-30.81-113.51-46.13m1072.49 41.73c22.54 56.03 45.22 112 67.84 168 9.77-4.04 19.64-7.85 29.38-11.97-9.51-23.47-18.98-46.96-28.49-70.43 20.41-8.29 40.85-16.54 61.27-24.83-3.95-9.99-8.03-19.92-12.03-29.87-20.45 8.2-40.86 16.5-61.3 24.72-5.1-12.5-10.19-24.99-15.18-37.52 23.33-9.41 46.67-18.78 69.96-28.29-3.94-10.03-8.09-19.96-12.06-29.96-33.12 13.39-66.23 26.84-99.39 40.15m-981.25 186.82c10.04 3.21 20.09 6.39 30.16 9.52 18.24-57.55 36.42-115.12 54.63-172.68-10.09-3.18-20.19-6.35-30.27-9.53-18.18 57.56-36.39 115.11-54.52 172.69m879.42-159.36c-16.4 2.75-31.77 11.67-42.1 24.73-10.02 12.52-14.56 28.66-14.99 44.52-.59 19.3 3.69 38.44 10.02 56.59 6.3 17.56 15.68 34.68 30.27 46.71 12.99 10.88 30.31 16.25 47.19 14.95 19.61-1.15 38.49-11.44 50.12-27.27 9.35-12.61 13.36-28.48 13.66-44 .3-19.79-4.28-39.36-11-57.87-6.76-18.05-17.06-35.57-32.94-47-14.27-10.47-32.87-14.3-50.23-11.36m-762.41 6.94c-2.33 10.47-4.8 20.91-7.18 31.37l44.29 10.29c-11.29 48.29-22.36 96.63-33.58 144.93 10.26 2.5 20.59 4.76 30.88 7.22 11.12-48.35 22.36-96.68 33.47-145.04 14.76 3.43 29.53 6.84 44.31 10.24 2.36-10.51 4.85-20.98 7.22-31.48-39.79-9.21-79.6-18.36-119.41-27.53m152.4 33.23c-4.48 38-8.93 76-13.4 114-1.25 9.65-1.7 19.46-.64 29.16 1.18 10.58 5.13 21.03 12.32 29.03 9.75 11.38 24.39 17.61 39.07 19.31 10.91 1.17 22.26.98 32.7-2.78 9.14-3.19 17.18-9.31 22.85-17.14 8.71-12.02 12.41-26.85 14.07-41.39 4.49-38.69 9.15-77.37 13.52-116.07-10.65-1.32-21.33-2.42-31.98-3.79-4.59 39.39-9.24 78.78-13.86 118.18-.99 8.66-3.35 17.75-9.54 24.23-6.89 6.89-17.54 8.1-26.71 6.3-7.31-1.3-13.72-6.36-16.89-13.03-3.9-8.01-4.14-17.24-3.09-25.91 4.52-38.78 9.19-77.54 13.6-116.33-10.68-1.22-21.34-2.58-32.02-3.77m311.07 15.41c5.84 60.08 11.53 120.18 17.45 180.26 37.91-3.68 75.82-7.34 113.73-11-.95-10.72-2.04-21.42-3.04-32.12-27.67 2.49-55.3 5.34-82.95 7.95-1.41-15.45-2.97-30.89-4.44-46.33 24.29-2.43 48.6-4.67 72.89-7.06-1.07-10.7-2.13-21.4-3.12-32.09-24.29 2.35-48.59 4.68-72.88 7.02-1.17-12.5-2.46-24.98-3.63-37.46 26.41-2.62 52.83-5.23 79.26-7.63-.89-10.75-2.05-21.47-3.02-32.2-36.75 3.59-73.52 6.93-110.25 10.66m-156.9.91c-.08 10.74-.4 21.48-.25 32.24 15.08-.15 30.16.26 45.25.27-.17 49.58-.93 99.15-1 148.73 10.49.24 20.99.32 31.49.26.49-49.58.69-99.17 1.27-148.75 15.15.38 30.32.15 45.48.5.01-10.75-.07-21.5.27-32.24-14.41-.56-28.84.05-43.24-.51-26.43.05-52.84-.42-79.27-.5"/><path d="M1714.586 493.375c99.1-3.29 198.64 4.79 295.83 24.63 120.36 24.41 237.05 66.76 345.16 125.01 143.98 77.45 272.64 183.12 376.83 309.07 103.12 124.45 182.26 268.76 231.16 422.84 60.93 191.09 74.87 396.76 41.41 594.46-28.44 169.26-92.34 332.38-186.01 476.17-84.73 130.41-193.62 245.03-319.5 336.36-133.69 97.25-286.66 167.93-447.5 206.28-190.68 45.59-391.97 46.05-582.86 1.3-162.97-38.03-317.99-109.32-453.3-207.75-125.11-90.81-233.44-204.63-317.94-334.1-57.94-88.67-104.72-184.64-138.66-284.98-59.77-175.77-79.33-364.83-58.31-549.21 19.45-172.11 75.18-339.97 162.36-489.62 77.87-134.05 180.55-253.6 301.24-350.89 126.62-102.35 273.17-180.03 429.13-226.89 104.1-31.38 212.3-49.02 320.96-52.68m31.73 13.54c-62.36.59-124.69 5.74-186.28 15.59-172.86 27.42-339.59 92.17-485.89 188.2-130.32 85.34-244.56 195.12-334.99 321.96-94.52 132.23-162.95 283.09-199.69 441.44-45.15 193.84-43.18 398.47 5.92 591.35 40.18 158.73 112.39 309.17 210.57 440.16 91.04 121.77 204.35 226.79 332.68 308.32 143.34 91.28 305.55 152.83 473.45 179.18 198.07 31.29 403.7 14.54 593.75-49.67 76.4-25.68 150.25-58.92 220.25-98.88 133.45-76.16 252.62-177.12 349.9-296.03 103.87-126.8 182.64-274.12 229.78-431.14 56.55-187.45 67.71-388.25 33.15-580.92a1239.5 1239.5 0 0 0-71.44-247.26c-59.8-147.65-148.3-283.55-258.81-398.25-119.51-124.37-264.89-223.84-424.34-289.71-154.1-63.93-321.22-95.98-488.01-94.34"/><path d="M1721.436 724.745c24.47-2.82 49.22-1.25 73.59 1.76 43.28 5.56 85.58 19.14 123.7 40.42 51.14 28.24 93.85 69.54 129.87 115.11 20.8 26.14 39.58 53.79 59 80.95 25.96 38.19 49.92 77.68 73.96 117.1 46.04 75.97 90.93 152.64 135.62 229.41 42.66 73.52 85.11 147.16 127.12 221.06-26.43.19-52.84-.42-79.27-.25-28.67-.13-57.35.26-86.01-.26-99.15.18-198.31-.42-297.44.49-2.24-61.15-8.45-122.37-22.45-182.02-8.08-34.09-18.74-67.66-33.34-99.55-12.23-26.52-27.15-51.95-45.83-74.46-17.82-21.63-39.2-40.53-63.74-54.18-15.61-8.62-32.47-15.23-50.06-18.34-3.67-.5-7.34-1.38-11.03-1.02-33.68 5.84-65.57 20.94-91.79 42.83-28.23 23.42-50.06 53.7-67.03 86.03-20.67 39.53-34.61 82.26-44.66 125.64-12.81 56.26-19.65 113.9-20.62 171.59-153.45-1.09-306.9-2.27-460.35-3.53 81.64-139.52 163.06-279.16 244.83-418.6 40.22-67.67 81.37-135.06 129.61-197.39 24.07-30.95 49.98-60.59 78.91-87.1 27.97-25.59 58.86-48.3 92.93-65.09 32.64-16.29 68.19-26.78 104.48-30.6M884.796 1620.315c138.08-.02 276.16-.01 414.25-.01 102.56-.49 205.15-.19 307.72-.2 18.67 18.92 37.79 37.37 56.47 56.28 31.22 31.39 62.79 62.43 94.05 93.79 49.89-50.1 100.2-99.76 150.09-149.85 239.47-.04 478.93-.01 718.4-.01.01 15.74 0 31.48.01 47.23-232.8.03-465.6-.01-698.4.02-35.35 34.77-70.06 70.2-105.44 104.94-21.55 21.55-43.1 43.11-64.66 64.66-33.11-33.21-66.53-66.09-99.6-99.34-23.37-23.56-47.12-46.73-70.52-70.27-234.13 0-468.25.01-702.38 0 0-15.75-.01-31.5.01-47.24"/><path d="M1951.476 1719.635c239.44-.19 478.87-.04 718.31-.07-.03 15.83.02 31.66-.02 47.5-232.82-.05-465.65.06-698.47-.06-26.46 26.12-52.46 52.7-79.04 78.7-28.06 27.95-55.89 56.14-84.14 83.9-16.94 16.93-33.88 33.88-50.82 50.81-72.85-71.5-145.53-143.17-218.43-214.62-20.63.14-41.25-.27-61.87.27-46.3-.03-92.61.01-138.92-.02-21.68.51-43.38.14-65.06.26-25.98-.01-51.95-.01-77.92 0-52.36.51-104.75.14-157.12.25-31.63.5-63.28.14-94.92.25-31.6-.14-63.18.16-94.77.24.01-15.25 0-30.49.01-45.73 29.58-.12 59.17.23 88.75-.26 55.65-.12 111.32.27 166.96-.25 55.03-.11 110.06.26 165.07-.25h130.93c54.56-.49 109.13-.17 163.69-.23 37.1 36.77 73.98 73.75 110.92 110.68 27.58 27.46 55.19 54.88 82.71 82.41 25.42-25.44 50.81-50.92 76.41-76.17 39.1-39.35 78.72-78.18 117.74-117.61"/><path d="M926.316 1837.805c122.24.01 244.48-.01 366.73.01-18.17 26.49-32.33 55.79-41.4 86.61-8.66 30.04-11.75 62.53-3.3 92.99 6.71 24.86 21.38 47.22 40.56 64.27 12.28 11.11 26.23 20.25 40.85 27.98 10.66 5.37 21.42 10.73 32.95 13.99 50.71 15.34 104.79 18.73 157.18 11.33 57.15-7.99 111.96-29.38 160.9-59.72-.02 130.6.02 261.2-.02 391.8-197.24-.02-394.49-.01-591.73-.01-26.34-.33-52.74 1-79-1.53-42.07-4.04-83.85-14.05-122.2-32.03-40.73-18.96-77.2-48.45-100.96-86.89-7.3-11.78-13.59-24.22-18.42-37.21-9.16-29.67-13.78-60.76-13.43-91.81.36-49.11 13.42-97.75 35.69-141.4 4.33-9.09 9.8-17.58 14.1-26.69 14.13-28.09 29.95-55.29 45.5-82.61 24.92-43.27 50.33-86.25 76-129.08M2222.536 1837.825c122.25.01 244.51-.08 366.76.04 20.59 34.61 41.22 69.2 61.45 104.03 20.71 35.84 41.62 71.61 60.55 108.45 2.56 5.87 5.99 11.31 8.99 16.98 20.06 37.2 33.82 78.02 38.42 120.12 3.15 28.02 2.22 56.47-2.58 84.24-3.31 17.19-6.78 34.62-14.4 50.51-14.54 32.07-37.29 60.25-65.21 81.67-28.14 21.76-60.91 36.98-94.9 47.09-23.62 7.03-47.93 11.68-72.43 14.2-22.97 2.6-46.09 1.77-69.15 1.9-201.75-.01-403.5.01-605.25-.01v-391.76c33.02 20.41 68.56 36.89 105.85 47.77 67.56 19.92 140.85 21.31 208.63 1.65 16.14-4.37 31.2-11.95 45.7-20.15 15.04-8.78 29.14-19.33 41.03-32.1 13.88-14.7 24.46-32.56 30.3-51.93 6.42-21.15 7.22-43.7 4.17-65.49-4.91-34.5-18.19-67.36-35.45-97.46-3.86-6.77-8.08-13.33-12.48-19.75M3198.616 2071.335c12.81-1.87 25.82.15 38.3 3.2 13.89 3.55 27.83 8.83 38.67 18.52 6.73 6.1 11.73 14.43 12.77 23.56 1.22 10.29-2.5 21.07-9.94 28.31-7.22 7.19-17.36 10.62-27.32 11.61-13.49 1.19-27.02-1.15-39.98-4.79-12.9-3.78-25.85-9.19-35.55-18.77-6.57-6.42-10.98-15.15-11.48-24.38-.64-11.43 5.01-22.95 14.35-29.54 5.9-4.3 12.99-6.69 20.18-7.72M3075.536 2387.345c17.34-3.54 34.86 2.74 50.22 10.43 14.37 7.33 28.69 16.77 36.91 31.09 4.91 8.58 6.59 19.17 3.41 28.66-3.24 10.28-11.59 18.76-21.81 22.15-10.95 3.8-22.91 2.44-33.81-.75-13.8-4.19-26.86-10.77-38.59-19.12-7.46-5.49-14.35-12.05-18.96-20.15-4.99-8.65-6.74-19.39-3.46-28.94 3.58-11.82 14.05-20.94 26.09-23.37M412.756 2464.515c23.94-5.78 47.9-11.45 71.85-17.14-17.9 16.82-35.94 33.5-53.73 50.44-6.19-11.02-12.14-22.17-18.12-33.3M2152.566 3144.225c10.93-2.1 22.33 1.91 30.45 9.31 10.34 9.39 16.42 22.46 20.66 35.56 3.87 12.42 6.64 25.4 6.09 38.49-.41 9.27-2.84 18.73-8.47 26.26-6.06 8.3-16.09 13.44-26.32 13.88-9.61.36-18.96-3.75-25.95-10.18-10.16-9.44-16.17-22.41-20.35-35.42-4.12-13.06-6.96-26.77-6-40.52.64-8.33 2.97-16.73 7.95-23.53 5.09-7.29 13.22-12.29 21.94-13.85"/></g></svg>