<svg xmlns="http://www.w3.org/2000/svg" xmlns:xlink="http://www.w3.org/1999/xlink" fill="none" version="1.1" width="915.880859375" height="915.8770141601562" viewBox="0 0 915.880859375 915.8770141601562"><g><g><path d="M478.2808984375,495.0780029296875C451.8509984375,495.0780029296875,430.4208984375,516.5060029296875,430.4208984375,542.9370029296875C430.4208984375,569.3670029296875,451.8509984375,590.7960029296875,478.2808984375,590.7960029296875C504.7108984375,590.7960029296875,526.1408984375,569.3670029296875,526.1408984375,542.9370029296875C526.1408984375,542.9020029296875,526.1408984375,542.8680029296875,526.1408984375,542.8340029296875C526.1009984375,516.4340029296875,504.6808984375,495.0570068296875,478.2808984375,495.0780029296875Z" fill="#E51C17" fill-opacity="1"/></g><g><path d="M457.971,0.00000131693C205.061,-0.0189726,0.0209961,204.992,0,457.904C-0.0200195,710.817,204.992,915.857,457.901,915.877C710.821,915.898,915.861,710.885,915.881,457.973C915.881,457.949,915.881,457.928,915.881,457.904C915.881,205.011,710.871,-0.000055301,457.971,0.00000131693ZM457.971,906.67C210.129,906.67,9.20795,705.749,9.20795,457.904C9.20795,210.058,210.129,9.13885,457.971,9.13885C705.821,9.13885,906.741,210.058,906.741,457.904C906.741,705.749,705.821,906.67,457.971,906.67Z" fill="#3971B7" fill-opacity="1"/></g><g><path d="M298.6279296875,524.9000029296875Q300.4489096875,598.1820029296875,428.0509296875,590.5210029296875C349.8879296875,563.3790029296874,355.8999296875,535.1380029296874,359.0609296875,519.5740029296875Q371.4289296875,465.9780029296875,566.0209296875,389.36300292968747L587.3909296874999,284.9530029296875C303.5059196875,416.8480029296875,298.6279296875,504.76700292968746,298.6279296875,524.9000029296875Z" fill="#3971B7" fill-opacity="1"/></g><g><path d="M279.4912109375,496.2459716796875C279.5671997375,509.3189716796875,284.3632209375,521.9209716796875,292.9932109375,531.7369716796875C288.2312009375,523.8549716796874,285.6792009375,514.8329716796875,285.6072409375,505.6259716796875C285.6072409375,485.8709716796875,290.2792109375,400.8039716796875,558.9112109375001,272.9629716796875L582.9612109375,261.4529716796875L587.3912109375,240.4959716796875C284.6792009375,381.01397167968753,279.4912109375,474.7729716796875,279.4912109375,496.2459716796875Z" fill="#3971B7" fill-opacity="1"/></g><g><path d="M435.9811234375,661.0549765625L411.04102343750003,626.2509765625L392.2490234375,626.2509765625L427.9811234375,672.4949765625L445.4010234375,672.4949765625L478.79102343750003,626.2509765625L461.1710234375,626.2509765625L435.9811234375,661.0549765625Z" fill="#3971B7" fill-opacity="1"/></g><g><path d="M522.01073984375,624.80798359375C512.15073984375,625.49597159375,487.86083984375,633.43200859375,487.86083984375,650.81595859375Q487.86083984375,668.20095859375,506.52073984375,672.49495859375Q528.03073984375,678.47305859375,554.82083984375,672.49495859375L554.82083984375,666.31095859375C548.64073984375,667.23905859375,528.03073984375,668.85395859375,517.27073984375,664.93705859375C506.52073984375,661.02005859375,504.90073984375,652.60305859375,504.90073984375,650.98795859375C504.90073984375,649.37295859375,506.04073984375,639.30695859375,519.78073984375,634.29101859375Q533.52073984375,629.27502859375,554.82083984375,634.29101859375L554.82083984375,627.17901859375C550.22083984375,625.28900159375,531.87083984375,624.15600559375,522.01073984375,624.80798359375Z" fill="#3971B7" fill-opacity="1"/></g><g><path d="M351.3650234375,624.80798359375C341.5390234375,625.49597159375,317.2490234375,633.43200859375,317.2490234375,650.81595859375Q317.2490234375,668.20095859375,335.8700234375,672.49495859375Q357.3770234375,678.47305859375,384.1760234375,672.49495859375L384.1760234375,666.31095859375C377.9910234375,667.23905859375,357.3770234375,668.85395859375,346.6240234375,664.93705859375C335.8700234375,661.02005859375,334.2560234375,652.60305859375,334.2560234375,650.98795859375C334.2560234375,649.37295859375,335.3890234375,639.30695859375,349.16602343750003,634.29101859375Q362.9430234375,629.27502859375,384.1760234375,634.29101859375L384.1760234375,627.17901859375C379.5370234375,625.28900159375,361.2250234375,624.15600559375,351.3650234375,624.80798359375Z" fill="#3971B7" fill-opacity="1"/></g><g><path d="M354.55984296875,800.163940859375C353.16484296875,798.531920859375,351.32674296875,797.339960859375,349.26884296875,796.728942859375C346.32784296875,795.707946859375,343.10574296875,795.893920859375,340.30182296875,797.243960859375C336.83880296875,799.359920859375,334.36480296875,802.775940859375,333.43078596875,806.726880859375C332.13177496875,810.038980859375,332.13177496875,813.720980859375,333.43078596875,817.032980859375C334.75378296875,819.929980859375,337.25476296875,822.121980859375,340.30182296875,823.045980859375C343.32584296875,824.161880859375,346.68874296875,823.869980859375,349.47474296875,822.255880859375C352.63584296875,820.279980859375,354.92374296875,817.170980859375,355.86574296875,813.562880859375C356.69674296875,811.182880859375,357.02684296875,808.656880859375,356.82784296875,806.141980859375C356.65884296875,803.974910859375,355.87284296875,801.898920859375,354.55984296875,800.163940859375Z" fill="#3971B7" fill-opacity="1"/></g><g><path d="M414.41076171875,811.60498046875C413.69079171875,813.76599046875,412.80078171875,815.86499046875,411.76080171875,817.89203046875L406.78076171875,827.44298046875L418.36076171875,828.88598046875L415.99078171875,818.99200046875C415.23077171875,815.96802046875,414.72076171875,813.49499046875,414.41076171875,811.60498046875Z" fill="#3971B7" fill-opacity="1"/></g><g><path d="M707.74095703125,717.3649904296875C705.75085703125,716.4959716296875,703.53085703125,716.2589724296874,701.39086703125,716.6779784296875C696.10095703125,717.7979704296876,692.23095703125,722.3430204296875,691.98095703125,727.7410404296875C692.13085903125,731.7910404296875,693.96093703125,735.5980404296874,697.03088703125,738.2540404296875C699.35095703125,740.9890404296875,702.63085703125,742.7240404296875,706.20095703125,743.0980404296874C709.37095703125,743.3150404296875,712.48095703125,742.1640404296875,714.75085703125,739.9370404296875C717.17085703125,737.8070404296875,718.52085703125,734.7080404296875,718.43095703125,731.4860404296875C718.20095703125,727.7609404296875,716.56095703125,724.2710004296875,713.83095703125,721.7280304296875C712.14085703125,719.8560204296875,710.06095703125,718.3679804296875,707.74095703125,717.3649904296875Z" fill="#3971B7" fill-opacity="1"/></g><g><path d="M232.5598125,733.100037421875C231.9658125,731.015077421875,230.7698125,729.149047421875,229.12381249999999,727.741087421875C226.8158125,725.659057421875,223.77881250000002,724.570068421875,220.6728125,724.717041021875C216.6698025,725.298034421875,213.0728125,727.480037421875,210.7088025,730.764037421875C208.1907925,733.320067421875,206.7717896,736.763057421875,206.7578125,740.350057421875C207.0778195,746.812057421875,212.5747725,751.794057421875,219.0368125,751.474057421875C219.1708125,751.467057421875,219.3018125,751.457057421875,219.4358125,751.447057421875C223.11181249999998,750.859057421875,226.4308125,748.894057421875,228.7118125,745.950057421875C230.4228125,744.094057421875,231.7118125,741.889057421875,232.4908125,739.491057421875C233.1648125,737.419057421875,233.1888125,735.189057421875,232.5598125,733.100037421875Z" fill="#3971B7" fill-opacity="1"/></g><g><path d="M530.7109,813.21997296875C529.491,811.40899296875,527.7709,810.00097296875,525.7609,809.16601596875C520.7109,807.21399296875,514.98096,808.90801996875,511.81091,813.28900296875C509.750854492,816.76898296875,509.210938,820.93999296875,510.300903,824.83199296875C510.730957,828.39899296875,512.54089,831.65599296875,515.35095,833.90299296875C520.5409,837.69899296875,527.8309,836.56499296875,531.621,831.36999296875C531.731,831.22299296875,531.8409,831.06799296875,531.9409,830.91399296875C533.7709,827.66699296875,534.2809,823.84299296875,533.3909,820.22899296875C533.0109,817.72699296875,532.0909,815.33600296875,530.7109,813.21997296875Z" fill="#3971B7" fill-opacity="1"/></g><g><path d="M768.380613125,636.8330033984375L775.460703125,644.9409833984375L780.990703125,634.6339733984375L770.890623125,633.2949833984375C767.820683125,632.8820193984375,765.350703125,632.4699703984375,763.470703125,632.0579833984375C765.220703125,633.5319833984375,766.860713125,635.1290233984375,768.380613125,636.8330033984375Z" fill="#3971B7" fill-opacity="1"/></g><g><path d="M457.9707421875,33.6007080078125C223.6167421875,33.6007080078125,33.6357421875,223.5827080078125,33.6357421875,457.9387080078125C33.6357421875,692.2947080078125,223.6167421875,882.2767080078125,457.9707421875,882.2767080078125C692.3307421875,882.2767080078125,882.3107421875,692.2947080078125,882.3107421875,457.9387080078125C882.3107421875,457.9277080078125,882.3107421875,457.9147080078125,882.3107421875,457.9037080078125C882.3107421875,223.5677080078125,692.3407421875,33.6007080078125,458.0107421875,33.6007080078125C458.0007421875,33.6007080078125,457.9807421875,33.6007080078125,457.9707421875,33.6007080078125ZM841.3907421875,363.8357080078125C842.6407421875,365.4367080078125,844.1607421875,366.7977080078125,845.8907421875,367.8557080078125C842.2907421875,372.4597080078125,839.9507421875,375.3797080078125,838.8507421875,376.5817080078125C837.6707421875,374.7787080078125,836.2107421875,373.1807080078125,834.5207421875,371.8407080078125C837.1707421875,369.5047080078125,839.4807421875,366.8107080078125,841.3907421875,363.8357080078125ZM826.1707421875,323.9817080078125L832.2507421875,347.2417080078125C829.3707421875,346.8637080078125,825.6207421875,346.5547080078125,820.9807421875,346.4167080078125C816.3507421875,346.2797080078125,811.6407421875,345.9707080078125,806.9707421875,345.5927080078125C804.1307421875,349.6877080078125,800.7207421875,353.3637080078125,796.8707421875,356.5177080078125C794.4207421875,358.2907080078125,791.5007421875,359.2937080078125,788.4807421875,359.4037080078125C785.7307421875,359.5717080078125,783.0307421875,358.6757080078125,780.9207421875,356.8957080078125C778.5907421875,354.7247080078125,776.9907421875,351.8757080078125,776.3507421875,348.7537080078125C778.8807421875,348.0767080078125,781.2707421875,346.9837080078125,783.4307421875,345.5237080078125C783.8807421875,349.7837080078125,784.9407421875,352.0857080078125,786.6607421875,352.3947080078125C788.5807421875,352.7217080078125,790.5407421875,352.4467080078125,792.3007421875,351.6047080078125C794.5707421875,350.5637080078125,796.5807421875,349.0387080078125,798.2107421875,347.1387080078125C800.2807421875,344.7647080078125,802.2307421875,342.2877080078125,804.0507421875,339.7177080078125C807.0707421875,339.7177080078125,810.5407421875,340.0267080078125,814.3507421875,340.3017080078125C818.0907421875,340.5417080078125,821.8507421875,340.5417080078125,825.5907421875,340.3017080078125L823.2207421875,331.2317080078125L758.5907421875,348.1687080078125L756.9807421875,342.0197080078125C761.1307421875,341.1607080078125,766.0807421875,339.9577080078125,771.9207421875,338.5837080078125L812.9407421875,327.8297080078125C817.6907421875,326.3867080078125,822.0807421875,325.2537080078125,826.1707421875,323.9817080078125ZM779.9607421875,398.7767080078125C780.2607421875,400.3597080078125,780.6607421875,401.9197080078125,781.1607421875,403.4487080078125C781.5507421875,404.5927080078125,782.5007421875,405.4517080078125,783.6707421875,405.7167080078125C785.9807421875,405.9257080078125,788.3007421875,405.7407080078125,790.5407421875,405.1667080078125C789.7807421875,407.3827080078125,789.3407421875,409.6947080078125,789.2407421875,412.0377080078125C783.3707421875,412.4057080078125,779.7307421875,411.6837080078125,778.3107421875,409.8737080078125C776.3507421875,406.5817080078125,775.0407421875,402.9437080078125,774.4707421875,399.1547080078125C773.1107421875,395.3267080078125,775.1107421875,391.1247080078125,778.9407421875,389.7677080078125C779.5707421875,389.5447080078125,780.2207421875,389.4077080078125,780.8907421875,389.3627080078125L802.2307421875,383.7627080078125L800.2707421875,376.3417080078125C795.2607421875,377.9147080078125,790.0507421875,378.7017080078125,784.8107421875,378.6777080078125C780.2607421875,378.7017080078125,775.8107421875,377.3347080078125,772.0607421875,374.7607080078125C768.6607421875,372.3767080078125,765.7107421875,369.3947080078125,763.3707421875,365.9657080078125C765.0307421875,364.2657080078125,766.2207421875,362.1557080078125,766.8007421875,359.8507080078125C771.9907421875,368.1647080078125,777.1107421875,372.4597080078125,782.4407421875,372.6997080078125C787.9207421875,372.8787080078125,793.3907421875,372.1327080078125,798.6207421875,370.5007080078125C797.3107421875,365.5537080078125,796.2807421875,362.0487080078125,795.4907421875,359.9537080078125L800.9907421875,358.5107080078125C801.5007421875,361.3617080078125,802.2607421875,364.7287080078125,803.2907421875,368.6117080078125L808.8907421875,389.9467080078125C809.8907421875,393.8287080078125,810.9207421875,397.3337080078125,811.9807421875,400.5287080078125L806.4907421875,401.9717080078125C805.8707421875,398.5357080078125,805.3907421875,396.3717080078125,805.0407421875,395.0997080078125L803.6007421875,389.6027080078125L783.2307421875,395.0997080078125C780.6507421875,395.6497080078125,779.5507421875,396.8867080078125,779.9307421875,398.7767080078125L779.9607421875,398.7767080078125ZM816.2407421875,441.8937080078125C823.1507421875,441.8937080078125,828.7507421875,447.4937080078125,828.7507421875,454.3997080078125C828.7507421875,461.3057080078125,823.1507421875,466.9057080078125,816.2407421875,466.9057080078125C809.3407421875,466.9057080078125,803.7407421875,461.3057080078125,803.7407421875,454.3997080078125C803.7407421875,447.5077080078125,809.3207421875,441.9147080078125,816.2107421875,441.8937080078125L816.2407421875,441.8937080078125ZM818.2007421875,393.7947080078125C817.6507421875,390.9427080078125,816.8607421875,387.3697080078125,815.7307421875,383.0407080078125L813.2907421875,373.6617080078125C812.0107421875,368.9207080078125,810.8607421875,365.0727080078125,809.8507421875,362.1177080078125L815.3507421875,360.6747080078125C815.8607421875,363.5267080078125,816.7607421875,367.3397080078125,817.9907421875,372.0817080078125L820.5407421875,381.7697080078125C821.7107421875,386.3047080078125,822.7407421875,389.8097080078125,823.6307421875,392.3517080078125L818.2007421875,393.7947080078125ZM769.5207421875,218.1637080078125C772.1007421875,219.0337080078125,774.4007421875,219.8587080078125,776.3907421875,220.6377080078125C775.2307421875,225.3247080078125,773.7307421875,229.9187080078125,771.8907421875,234.3797080078125C769.4207421875,233.6817080078125,767.0007421875,232.8327080078125,764.6407421875,231.8377080078125C766.7407421875,227.4617080078125,768.3707421875,222.8797080078125,769.5207421875,218.1637080078125ZM754.3307421875,201.9477080078125C756.5107421875,202.6917080078125,758.7407421875,203.2767080078125,761.0007421875,203.6997080078125C760.7207421875,208.5807080078125,759.9707421875,213.4247080078125,758.7607421875,218.1637080078125C756.3607421875,217.3497080078125,753.8707421875,216.8077080078125,751.3407421875,216.5487080078125C753.0307421875,211.8497080078125,754.0407421875,206.9327080078125,754.3307421875,201.9477080078125ZM736.1207421875,209.9187080078125C738.0307421875,208.5487080078125,739.8507421875,207.0687080078125,741.5907421875,205.4867080078125L769.0707421875,242.9347080078125C772.5107421875,242.5227080078125,776.3507421875,242.0757080078125,780.2707421875,241.5607080078125C783.9707421875,241.0937080078125,787.6107421875,240.2887080078125,791.1607421875,239.1557080078125C791.4807421875,242.2827080078125,791.9607421875,245.3907080078125,792.6107421875,248.4667080078125C786.1507421875,247.8627080078125,779.6507421875,247.8627080078125,773.1907421875,248.4667080078125L784.0507421875,263.2737080078125C781.9907421875,264.50770800781254,779.9907421875,265.8497080078125,778.0707421875,267.2937080078125C775.9407421875,268.8737080078125,773.9207421875,270.45470800781254,772.0907421875,272.1037080078125L767.9407421875,266.4347080078125L775.3607421875,261.1097080078125L741.1707421875,214.4877080078125L733.6507421875,220.0537080078125L729.4607421875,214.3847080078125C731.7607421875,213.0107080078125,733.9907421875,211.4987080078125,736.1207421875,209.9187080078125ZM717.0607421875,237.5757080078125C714.9607421875,234.6897080078125,712.4907421875,231.5287080078125,709.6707421875,228.0587080078125L715.0607421875,224.1077080078125C717.6407421875,228.0247080078125,719.8707421875,231.2197080078125,721.6907421875,233.7617080078125L735.4407421875,252.5887080078125C737.0607421875,251.3827080078125,738.5607421875,250.0127080078125,739.9007421875,248.5007080078125L751.8607421875,254.6507080078125L741.0007421875,239.8427080078125C738.4907421875,236.4077080078125,735.5707421875,232.6277080078125,732.2107421875,228.4367080078125L737.3307421875,224.6917080078125C740.0707421875,228.7797080078125,742.7207421875,232.5937080078125,745.3707421875,236.2007080078125L763.9507421875,261.5217080078125L758.2807421875,265.6787080078125C756.0307421875,263.63270800781254,753.4707421875,261.9527080078125,750.6907421875,260.6977080078125C748.0107421875,259.4607080078125,745.0607421875,257.9827080078125,741.8307421875,256.1967080078125L739.3907421875,257.9827080078125L751.9307421875,274.8527080078125C753.5407421875,277.0167080078125,755.6407421875,279.7307080078125,758.3507421875,283.0287080078125L752.9607421875,286.9797080078125C750.4807421875,283.2237080078125,748.5307421875,280.3727080078125,747.0807421875,278.4257080078125L734.6507421875,261.4527080078125L723.5807421875,269.5617080078125C721.7107421875,271.3537080078125,718.8207421875,271.55570800781254,716.7107421875,270.0427080078125C713.5607421875,267.4667080078125,710.6907421875,264.5767080078125,708.1207421875,261.4187080078125C709.8007421875,259.2887080078125,711.1307421875,256.9137080078125,712.0707421875,254.3757080078125L717.4007421875,261.65970800781247C718.3007421875,263.1337080078125,720.2207421875,263.6007080078125,721.7007421875,262.7027080078125C721.9307421875,262.5567080078125,722.1507421875,262.3787080078125,722.3507421875,262.1747080078125L730.6907421875,256.05870800781247L717.0607421875,237.5757080078125ZM682.9707421875,152.5767080078125C684.5507421875,154.6387080078125,686.4107421875,156.87170800781252,688.6107421875,159.4487080078125C682.0807421875,164.3267080078125,673.0407421875,171.0957080078125,661.4307421875,179.8567080078125C660.3107421875,177.5667080078125,658.8607421875,175.4497080078125,657.1407421875,173.5687080078125C666.7407421875,167.8807080078125,675.4407421875,160.8077080078125,682.9707421875,152.5767080078125ZM627.3807421875,121.6570080078125C629.7207421875,122.1030080078125,632.3307421875,122.5500080078125,635.1807421875,123.0310080078125C633.7807421875,130.5550080078125,631.4407421875,140.8617080078125,628.2407421875,154.60470800781252C625.7007421875,153.6227080078125,623.0207421875,152.9987080078125,620.3107421875,152.7487080078125C623.2007421875,142.5377080078125,625.5707421875,132.1820080078125,627.3807421875,121.7250080078125L627.3807421875,121.6570080078125ZM601.7207421875,158.38370800781252C606.3907421875,161.8187080078125,609.9307421875,164.3957080078125,612.3707421875,165.9077080078125L622.6807421875,172.5387080078125L649.1307421875,130.7610080078125C651.9107421875,126.3270080078125,654.4307421875,121.7390080078125,656.6907421875,117.0180080078125L664.3207421875,121.8630080078125C660.6107421875,126.8790080078125,657.5607421875,131.2760080078125,655.1807421875,135.05570800781248L628.9007421875,176.5577080078125L638.2107421875,182.4327080078125L666.7607421875,137.4257080078125C668.6807421875,134.40270800781252,670.6107421875,130.89900800781248,672.6307421875,126.9130080078125L679.7107421875,131.3800080078125C677.2807421875,134.3897080078125,675.0507421875,137.5577080078125,673.0407421875,140.8617080078125L644.2507421875,186.2807080078125L655.2807421875,193.1527080078125C658.2707421875,195.0767080078125,662.1507421875,197.2067080078125,666.6507421875,199.5767080078125L662.7407421875,205.7957080078125C658.6107421875,202.6687080078125,655.1807421875,200.1957080078125,652.4307421875,198.4087080078125L609.5207421875,171.2667080078125C606.8707421875,169.5837080078125,603.0307421875,167.3847080078125,597.8407421875,164.6707080078125L601.7207421875,158.38370800781252ZM563.6907421875,79.6042080078125C562.7307421875,83.4865080078125,561.6907421875,88.2964080078125,560.6307421875,93.96520800781249L558.4007421875,105.7840080078125C557.4707421875,110.5940080078125,556.7507421875,114.8880080078125,556.2707421875,118.6680080078125L523.4607421875,112.4150080078125C524.3807421875,108.7390080078125,525.3107421875,104.5130080078125,526.2007421875,99.7028080078125L528.3307421874999,88.5369080078125C529.4707421875,82.3870080078125,530.3307421874999,77.3366080078125,530.8407421874999,73.3856080078125L563.6907421875,79.6042080078125ZM557.6107421875,145.7747080078125C555.0707421875,146.3937080078125,552.6207421875,147.2927080078125,550.2907421875,148.45470800781248C549.1807421875,144.2907080078125,547.8607421875,140.18570800781248,546.3407421875,136.1547080078125C545.0107421875,132.3920080078125,543.5007421875,128.7000080078125,541.8007421875,125.0920080078125C543.9507421875,124.1340080078125,546.1607421875,123.2970080078125,548.4007421875,122.5840080078125C549.6007421875,125.7790080078125,551.1107421875,129.4560080078125,552.9307421875,133.6467080078125C554.7507421875,137.8387080078125,556.3007421875,141.8927080078125,557.6107421875,145.7747080078125ZM535.1007421874999,124.5080080078125C531.8407421874999,127.1030080078125,528.7507421875,129.9150080078125,525.8607421875,132.9260080078125C522.0507421875,136.7727080078125,518.5407421875,140.0367080078125,515.3107421875,142.85470800781252C513.8507421874999,140.77070800781252,512.1707421875001,138.8477080078125,510.3007421875,137.11670800781252C513.1707421875001,135.6997080078125,515.7607421875,133.7797080078125,517.9607421875,131.44800800781252C522.0507421875,127.5650080078125,525.8607421875,123.3980080078125,529.3707421875,118.9770080078125C531.8407421874999,121.4850080078125,533.7607421875,123.3400080078125,535.1007421874999,124.5080080078125ZM489.4807421875,119.2520080078125L498.6507421875,71.1524080078125C496.6607421875,70.7745080078125,494.5607421875,70.4997080078125,492.3307421875,70.2935080078125L493.5307421875,64.0406080078125C496.5207421875,64.8652080078125,499.2307421875,65.4836080078125,501.6407421875,65.9303080078125L520.0207421875,69.3659080078125C522.6707421875001,69.8469080078125,525.6507421875,70.2935080078125,528.9507421875,70.7058080078125L527.7807421875,76.9243080078125C525.4107421875,76.2716080078125,523.1507421875,75.7219080078125,520.9107421875,75.3096080078125L512.6307421875,118.9770080078125C514.9307421875001,118.9890080078125,517.2307421875,118.8510080078125,519.5107421875,118.5640080078125C519.0807421874999,120.5330080078125,518.8207421875,122.5320080078125,518.7107421875,124.5430080078125L511.6007421875,124.5430080078125L510.2307421875,131.7570080078125C509.5807421875,135.19270800781248,509.0307421875,138.62870800781252,508.5107421875,142.6477080078125L501.6407421875,141.34270800781252C502.6007421875,137.4607080078125,503.3907421875,133.8527080078125,504.0107421875,130.58900800781248L505.0807421875,124.9890080078125C503.0107421875,124.9890080078125,499.9907421875,125.2300080078125,495.9707421875,125.4700080078125C491.9507421875,125.7110080078125,487.7307421875,126.2600080078125,483.2907421875,126.9820080078125C483.1807421875,124.3080080078125,482.8807421875,121.6440080078125,482.4007421875,119.0110080078125C484.7507421875,119.3060080078125,487.1207421875,119.3860080078125,489.4807421875,119.2520080078125ZM380.8427421875,67.7168080078125C384.5117421875,70.37320800781251,387.9067421875,73.3887080078125,390.9777421875,76.7182080078125C389.0817421875,78.01790800781251,387.3117421875,79.4901080078125,385.6867421875,81.1159080078125C382.9277421875,77.7513080078125,379.7677421875,74.7396080078125,376.2737421875,72.1488080078125C377.7847421875,70.67150800781249,379.2967421875,69.1254080078125,380.8767421875,67.6824080078125L380.8427421875,67.7168080078125ZM366.0697421875,85.1356080078125L407.3007421875,77.4053080078125C412.5507421875,76.4090080078125,418.2207421875,75.2409080078125,424.3007421875,73.9697080078125L425.5407421875,80.5318080078125C419.3607421875,81.4938080078125,413.6507421875,82.4214080078125,408.3607421875,83.41770800781251L391.1837421875,86.6473080078125L393.2797421875,97.7788080078125L418.5707421875,92.7627080078125C419.0807421875,96.7481080078125,419.7307421875,100.8370080078125,420.5207421875,104.9590080078125L423.5507421875,121.0730080078125C424.4607421875,124.0480080078125,423.5307421875,127.2800080078125,421.1807421875,129.3180080078125C418.0607421875,131.49600800781252,414.5707421875,133.0700080078125,410.8707421875,133.95570800781252C409.8407421875,131.2720080078125,408.3407421875,128.7930080078125,406.4407421875,126.6380080078125C409.3507421875,126.1780080078125,412.2307421875,125.5230080078125,415.0607421875,124.6800080078125C416.2307421875,124.2330080078125,416.6407421875,123.0310080078125,416.2607421875,121.0380080078125L412.3107421875,100.0460080078125L394.2757421875,103.4820080078125L399.1207421875,129.4210080078125C400.1507421875,134.9177080078125,401.1477421875,139.7277080078125,402.1097421875,143.5067080078125L394.5507421875,144.9157080078125C394.0357421875,140.93070800781248,393.2797421875,136.1887080078125,392.2487421875,130.72700800781251L387.3707421875,104.7880080078125L368.9557421875,108.2230080078125L375.0367421875,140.3807080078125L367.7867421875,141.7547080078125C367.3747421875,138.3197080078125,366.6877421875,134.0247080078125,365.7597421875,129.21500800781251L363.4927421875,117.0530080078125C362.5647421875,112.0370080078125,361.6027421875,107.5700080078125,360.6407421875,103.6540080078125L386.4087421875,98.9469080078125L384.3127421875,87.7810080078125L367.1347421875,91.01050800781249C361.4657421875,92.07560800781249,355.7967421875,93.2437080078125,349.9567421875,94.4462080078125L348.7197421875,87.8497080078125C354.6977421875,87.1283080078125,360.4007421875,86.1663080078125,366.1037421875,85.1012080078125L366.0697421875,85.1356080078125ZM269.3557421875,107.8450080078125C273.3207421875,109.0440080078125,277.1787421875,110.5600080078125,280.8997421875,112.3800080078125C279.61774218749997,114.2550080078125,278.6627421875,116.3350080078125,278.0827421875,118.5300080078125C274.4167421875,116.5030080078125,270.5887421875,114.7790080078125,266.6417421875,113.3770080078125C267.7267421875,111.6110080078125,268.6477421875,109.7470080078125,269.3897421875,107.8110080078125L269.3557421875,107.8450080078125ZM255.0637421875,116.4690080078125C257.3517421875,115.5250080078125,259.5467421875,114.3750080078125,261.6257421875,113.0330080078125C263.54274218750004,117.4380080078125,265.9127421875,121.6290080078125,268.7027421875,125.5390080078125L272.9627421875,122.8590080078125C277.0857421875,120.2480080078125,281.1057421875,117.6030080078125,284.9187421875,114.9230080078125L288.3547421875,120.2820080078125C284.2667421875,122.6190080078125,280.17774218750003,125.0580080078125,276.0207421875,127.6690080078125L272.06974218749997,130.1770080078125C274.8527421875,134.1967080078125,278.0137421875,138.4227080078125,281.4147421875,142.8197080078125C284.9917421875,147.3687080078125,288.9357421875,151.6197080078125,293.1987421875,155.53170800781248C292.4257421875,151.5497080078125,291.2747421875,147.6497080078125,289.7637421875,143.8847080078125C288.14874218750003,139.6247080078125,286.3277421875,135.4337080078125,284.1637421875,131.2080080078125C286.7367421875,130.81100800781252,289.2827421875,130.2610080078125,291.7907421875,129.5590080078125C292.5667421875,132.9500080078125,293.5527421875,136.2887080078125,294.7457421875,139.55570800781248C295.9817421875,142.99170800781252,297.0817421875,146.63370800781252,298.1807421875,150.4817080078125C299.0257421875,153.49170800781252,299.5897421875,156.5747080078125,299.8647421875,159.6887080078125C302.4827421875,161.4247080078125,305.4717421875,162.5197080078125,308.5907421875,162.8837080078125C310.3777421875,162.8837080078125,309.9997421875,160.1357080078125,307.4917421875,154.87870800781252C309.9037421875,155.48370800781248,312.4077421875,155.6467080078125,314.8777421875,155.35970800781251C316.0527421875,158.59170800781249,316.7917421875,161.9657080078125,317.0767421875,165.3927080078125C317.2827421875,168.4497080078125,316.1837421875,170.0647080078125,313.8127421875,170.2367080078125C311.2677421875,170.3947080078125,308.7147421875,170.0677080078125,306.2887421875,169.2747080078125C303.7397421875,168.4607080078125,301.2587421875,167.4497080078125,298.8677421875,166.2507080078125C298.4657421875,169.2757080078125,297.8677421875,172.2707080078125,297.0817421875,175.2177080078125C296.2537421875,178.4187080078125,295.1027421875,181.5267080078125,293.6457421875,184.4947080078125C291.3027421875,183.5057080078125,288.8017421875,182.9467080078125,286.2587421875,182.8457080078125C288.17574218749996,179.7467080078125,289.7327421875,176.4377080078125,290.8977421875,172.9847080078125C291.9517421875,169.7507080078125,292.5537421875,166.3867080078125,292.6837421875,162.9877080078125C287.5127421875,158.8887080078125,282.8337421875,154.2087080078125,278.7347421875,149.0387080078125C274.0277421875,143.19770800781248,270.07674218750003,138.0097080078125,266.9167421875,133.4070080078125L252.4177421875,142.6827080078125L258.8077421875,152.9897080078125L270.9357421875,145.3277080078125C272.4477421875,148.0767080078125,274.3717421875,151.16870800781248,276.39874218750003,154.5357080078125L283.2697421875,166.3197080078125C285.2417421875,168.6127080078125,285.8227421875,171.7937080078125,284.78174218749996,174.6337080078125C283.3627421875,177.1977080078125,281.5417421875,179.5177080078125,279.3877421875,181.5057080078125C277.6387421875,179.4567080078125,275.5877421875,177.6837080078125,273.3067421875,176.2487080078125C276.5017421875,174.2567080078125,278.2537421875,172.8137080078125,278.5637421875,171.7477080078125C278.7657421875,170.4317080078125,278.4187421875,169.0897080078125,277.6017421875,168.0377080078125L268.77174218749997,153.43570800781248L261.72874218749996,157.90270800781252C263.4807421875,160.7197080078125,265.3357421875,163.9837080078125,267.2597421875,167.6257080078125C269.30074218749996,171.6537080078125,270.69174218750004,175.9777080078125,271.3827421875,180.4407080078125C272.2137421875,186.0487080078125,272.1557421875,191.7537080078125,271.2107421875,197.3437080078125C268.7617421875,197.0517080078125,266.2807421875,197.1447080078125,263.8587421875,197.6187080078125C265.1987421875,192.3697080078125,265.56974218749997,186.9217080078125,264.9577421875,181.5397080078125C264.4187421875,177.3307080078125,263.1787421875,173.2427080078125,261.28174218749996,169.4467080078125C259.4957421875,166.0107080078125,256.8497421875,161.4757080078125,253.4137421875,156.0127080078125C249.9787421875,150.5497080078125,246.5427421875,145.5337080078125,243.8627421875,141.5147080078125L263.6527421875,129.0430080078125C261.4197421875,125.2300080078125,258.5337421875,121.1070080078125,255.0977421875,116.4340080078125L255.0637421875,116.4690080078125ZM227.5777421875,137.0827080078125C229.0207421875,139.6017080078125,230.5087421875,142.0067080078125,232.0447421875,144.2977080078125L238.4687421875,154.60470800781252C240.7027421875,153.1957080078125,242.9357421875,151.6837080078125,245.0657421875,150.06870800781252L248.2607421875,155.1197080078125C245.8897421875,156.39070800781252,243.5887421875,157.6967080078125,241.3897421875,159.1397080078125L254.7537421875,180.3027080078125C256.7987421875,178.4047080078125,258.6497421875,176.3097080078125,260.2857421875,174.0497080078125C261.1617421875,175.8657080078125,262.1377421875,177.6317080078125,263.2057421875,179.3407080078125C260.80074218749996,182.1587080078125,258.3617421875,185.1127080078125,255.8877421875,188.1017080078125C253.5727421875,190.8847080078125,251.5867421875,193.9287080078125,249.9787421875,197.1717080078125C247.7107421875,195.1797080078125,245.5467421875,193.4957080078125,243.6227421875,192.0877080078125C246.3097421875,190.1467080078125,248.7037421875,187.8337080078125,250.7347421875,185.2157080078125L236.3047421875,162.3347080078125C233.6587421875,164.0177080078125,231.2887421875,165.7697080078125,229.1237421875,167.2477080078125L225.9287421875,162.1627080078125C228.2207421875,160.9257080078125,230.7287421875,159.4827080078125,233.4527421875,157.8337080078125L227.0287421875,147.5267080078125C225.7227421875,145.4657080078125,224.0737421875,143.0947080078125,222.1157421875,140.3807080078125L227.5777421875,137.0827080078125ZM206.3117421875,225.3097080078125C206.2047421875,227.6047080078125,206.3077421875,229.9057080078125,206.6207421875,232.1817080078125C200.5977421875,232.1077080078125,194.5747421875,232.3837080078125,188.5837421875,233.0057080078125C188.7277421875,230.7177080078125,188.7277421875,228.4227080078125,188.5837421875,226.1347080078125C194.5067421875,225.3667080078125,200.4777421875,225.0227080078125,206.4487421875,225.1037080078125L206.3117421875,225.3097080078125ZM185.0447421875,231.6317080078125L204.1127421875,247.3667080078125C207.0227421875,249.6577080078125,208.2247421875,252.0627080078125,207.7197421875,254.5817080078125C206.6037421875,258.4457080078125,205.0467421875,262.1687080078125,203.0817421875,265.6787080078125C200.5427421875,264.2287080078125,197.5917421875,263.6717080078125,194.6987421875,264.0987080078125C196.7427421875,261.7237080078125,198.6047421875,259.1967080078125,200.2647421875,256.53970800781246C200.9857421875,255.1657080078125,200.2647421875,253.3107080078125,197.7217421875,250.9397080078125L177.3827421875,233.6247080078125L168.0727421875,246.3017080078125C172.6217421875,250.6607080078125,176.5827421875,255.5917080078125,179.8567421875,260.9717080078125C182.1277421875,265.0707080078125,183.7087421875,269.5167080078125,184.5297421875,274.1307080078125C185.4157421875,279.6267080078125,185.6257421875,285.2117080078125,185.1477421875,290.7597080078125C182.2957421875,291.0067080078125,179.5577421875,292.0017080078125,177.2117421875,293.6457080078125C178.4307421875,288.5527080078125,178.8017421875,283.29470800781246,178.3107421875,278.0817080078125C177.7917421875,273.1517080078125,176.2977421875,268.3747080078125,173.9127421875,264.0297080078125C171.3127421875,259.40670800781254,168.0867421875,255.1637080078125,164.3277421875,251.4207080078125L155.8077421875,262.96470800781253C153.6767421875,265.8507080078125,151.34074218749998,269.21770800781246,148.9357421875,273.2717080078125L143.81674218749998,269.4927080078125C146.7717421875,266.0567080078125,149.4167421875,262.62170800781246,151.7877421875,259.18570800781254L160.1017421875,247.8827080078125L150.9627421875,241.0107080078125C153.1347421875,239.2067080078125,155.1477421875,237.2177080078125,156.9757421875,235.0677080078125C157.6937421875,236.6877080078125,158.7757421875,238.1217080078125,160.1357421875,239.2587080078125C161.5107421875,240.3927080078125,162.7477421875,241.5267080078125,163.8807421875,242.6947080078125L177.3487421875,224.3827080078125C179.6817421875,227.0227080078125,182.3097421875,229.3867080078125,185.1817421875,231.4257080078125L185.0447421875,231.6317080078125ZM170.4777421875,286.6017080078125C168.2717421875,287.2877080078125,166.1587421875,288.2457080078125,164.1907421875,289.4537080078125C163.7707421875,285.89070800781246,163.0357421875,282.3727080078125,161.9917421875,278.94070800781253C161.1117421875,275.4497080078125,159.8307421875,272.0717080078125,158.1777421875,268.8737080078125C160.5487421875,267.56870800781246,162.7817421875,266.1947080078125,165.0487421875,264.7167080078125C165.6917421875,267.9927080078125,166.5507421875,271.5307080078125,167.6257421875,275.3337080078125C168.7597421875,278.7687080078125,169.6877421875,282.5477080078125,170.6147421875,286.2247080078125L170.4777421875,286.6017080078125ZM127.5317421875,238.7777080078125L132.1697421875,232.5937080078125C134.25174218749999,234.7817080078125,136.5577421875,236.7497080078125,139.0417421875,238.4687080078125L152.3367421875,220.4317080078125C149.92574218750002,218.6237080078125,147.4277421875,216.9377080078125,144.8477421875,215.3807080078125L149.10774218749998,209.5747080078125C151.38174218749998,211.5287080078125,153.7557421875,213.3637080078125,156.2197421875,215.0717080078125L162.5407421875,206.4487080078125C164.9117421875,203.2187080078125,166.8697421875,200.3667080078125,168.4157421875,197.9277080078125L173.3977421875,201.6727080078125C171.4977421875,203.9637080078125,169.3677421875,206.6777080078125,167.0077421875,209.8157080078125L160.6857421875,218.4047080078125C162.9877421875,220.1567080078125,165.5647421875,221.8397080078125,168.4157421875,223.6957080078125L164.2247421875,229.3637080078125L156.7347421875,223.7987080078125L143.4387421875,241.8357080078125L151.2717421875,247.5727080078125L147.11474218749998,253.2417080078125C144.53874218750002,251.0777080078125,141.9957421875,249.0507080078125,139.4877421875,247.2297080078125L133.1667421875,255.8187080078125C131.8267421875,257.6397080078125,130.1427421875,260.11370800781253,128.0817421875,263.2737080078125L122.9627421875,259.5297080078125C125.1267421875,256.98670800781247,127.0507421875,254.5477080078125,128.76874218749998,252.2117080078125L134.9867421875,243.9317080078125C131.7577421875,241.4917080078125,129.2497421875,239.8087080078125,127.5317421875,238.7777080078125ZM83.2117421875,355.8307080078125L87.1967421875,340.6447080078125C88.4337421875,335.9037080078125,89.4987421875,330.9907080078125,90.3927421875,325.9407080078125L97.4697421875,327.7957080078125C95.9577421875,332.7087080078125,94.6527421875,337.3127080078125,93.51874218750001,341.5387080078125L92.0757421875,347.0357080078125L141.8237421875,360.1257080078125L143.7827421875,352.7047080078125C145.0877421875,347.7567080078125,146.39374218749998,342.3977080078125,147.6987421875,336.4877080078125L154.5707421875,338.2747080078125C152.81774218750002,344.0117080078125,151.1347421875,349.3717080078125,149.96674218750002,354.3187080078125L144.6067421875,374.6927080078125C143.3017421875,379.6397080078125,141.9617421875,385.2747080078125,140.51874218749998,391.5617080078125L133.6467421875,389.7747080078125C135.50274218750002,383.5907080078125,137.0827421875,378.0247080078125,138.35374218750002,373.0777080078125L140.0037421875,366.9277080078125L90.2897421875,353.8727080078125L89.32774218750001,357.3077080078125C88.0907421875,362.0487080078125,86.88774218750001,367.0307080078125,85.8917421875,372.2527080078125L79.02074218749999,370.4667080078125C80.6347421875,365.2787080078125,82.0097421875,360.3317080078125,83.2117421875,355.8307080078125ZM142.4767421875,404.2387080078125C139.9517421875,406.7097080078125,137.6527421875,409.3997080078125,135.6057421875,412.2787080078125C132.55474218749998,407.8707080078125,128.8747421875,403.9337080078125,124.6807421875,400.5977080078125C120.5027421875,396.8147080078125,116.0357421875,393.3687080078125,111.3157421875,390.2907080078125C113.5997421875,388.2807080078125,115.5997421875,385.9687080078125,117.2587421875,383.4187080078125C120.1867421875,387.4557080078125,123.8037421875,390.9467080078125,127.9437421875,393.7257080078125C133.6817421875,398.1237080078125,138.3887421875,401.5937080078125,142.4767421875,404.2387080078125ZM97.4357421875,442.0317080078125C104.3407421875,442.0517080078125,109.9277421875,447.6657080078125,109.9067421875,454.5717080078125C109.8867421875,461.4767080078125,104.2727421875,467.0597080078125,97.3667421875,467.0427080078125C90.4747421875,467.0227080078125,84.89574218749999,461.4287080078125,84.89574218749999,454.5367080078125C84.7987421875,447.6487080078125,90.30674218749999,441.9897080078125,97.1947421875,441.8937080078125C97.2157421875,441.8937080078125,97.2397421875,441.8937080078125,97.2637421875,441.8937080078125L97.4357421875,442.0317080078125ZM88.8467421875,398.1577080078125C92.3197421875,393.4747080078125,96.13374218749999,389.0537080078125,100.2527421875,384.9307080078125C101.6717421875,387.2737080078125,103.6537421875,389.2257080078125,106.0247421875,390.5997080078125C101.6097421875,394.2757080078125,97.6207421875,398.4367080078125,94.1367421875,403.0027080078125C92.4127421875,401.2397080078125,90.5877421875,399.5767080078125,88.6747421875,398.0207080078125L88.8467421875,398.1577080078125ZM69.2287421875,386.0987080078125C73.3167421875,381.8727080078125,77.4397421875,378.0247080078125,81.5967421875,374.4867080078125C83.05674218749999,376.6817080078125,84.7127421875,378.7397080078125,86.54474218749999,380.6357080078125C81.9817421875,383.6797080078125,77.7047421875,387.1297080078125,73.7637421875,390.9427080078125C72.3547421875,389.1357080078125,70.7817421875,387.4697080078125,69.05674218749999,385.9617080078125L69.2287421875,386.0987080078125ZM81.8377421875,502.3957080078125L112.1057421875,499.4407080078125L110.9717421875,488.1377080078125L115.0257421875,487.7257080078125L117.6717421875,514.9017080078124L113.6177421875,515.3137080078125L112.5177421875,503.9757080078125L82.2837421875,506.9307080078125L81.8377421875,502.3957080078125ZM88.53674218750001,547.0597080078124L104.5127421875,544.0357080078124L101.0767421875,526.4457080078125L85.10174218750001,529.4687080078124L84.2427421875,525.0027080078125L118.1177421875,518.5777080078125L118.9427421875,523.0787080078126L105.1997421875,525.6897080078124L108.6357421875,543.2797080078125L122.3787421875,540.6687080078125L123.2367421875,545.1357080078126L89.39574218749999,551.5597080078124L88.53674218750001,547.0597080078124ZM102.7607421875,584.5077080078125L98.8437421875,585.6417080078126L91.73274218750001,560.9397080078126L124.7837421875,551.3887080078125L131.6547421875,575.4377080078125L127.7727421875,576.5717080078125L121.8627421875,556.5757080078125L111.7277421875,559.4967080078125L117.0187421875,577.8087080078125L113.1367421875,578.9417080078125L108.1207421875,560.7337080078125L96.85174218750001,563.9967080078125L102.7607421875,584.5077080078125ZM111.9687421875,620.6857080078125C110.5767421875,617.8307080078125,110.0407421875,614.6317080078124,110.4217421875,611.4777080078125C110.9167421875,608.6507080078125,112.2607421875,606.0387080078125,114.2697421875,603.9877080078124C116.4657421875,601.6967080078125,119.0937421875,599.8657080078125,122.0007421875,598.5937080078126C124.9447421875,597.2337080078125,128.1707421875,596.5847080078125,131.41374218750002,596.7047080078125C134.2967421875,596.8417080078125,137.0657421875,597.8627080078124,139.3507421875,599.6247080078125C141.6587421875,601.4287080078125,143.4697421875,603.7957080078126,144.6067421875,606.4957080078125C145.9637421875,609.2927080078125,146.3487421875,612.4567080078125,145.7067421875,615.4977080078125C144.97774218749998,618.4587080078124,143.2877421875,621.0947080078125,140.8967421875,622.9877080078124L138.1137421875,619.3107080078125C139.8587421875,617.9337080078125,141.1297421875,616.0507080078125,141.7557421875,613.9167080078125C142.1537421875,611.9077080078125,141.88974218750002,609.8217080078125,140.9997421875,607.9737080078125C140.12674218749999,605.7917080078125,138.5877421875,603.9397080078126,136.6017421875,602.6827080078125C134.7467421875,601.5627080078125,132.5757421875,601.0777080078125,130.41774218749998,601.3087080078125C128.1777421875,601.5007080078125,125.9857421875,602.0577080078125,123.9247421875,602.9577080078125C121.5087421875,603.9707080078125,119.2967421875,605.4137080078125,117.3967421875,607.2177080078125C115.8267421875,608.7157080078125,114.8097421875,610.7017080078125,114.5107421875,612.8517080078125C114.2567421875,614.8997080078125,114.5657421875,616.9787080078125,115.4037421875,618.8647080078125C116.2937421875,621.0397080078125,117.9227421875,622.8297080078125,120.0077421875,623.9147080078125C122.3607421875,624.9727080078125,125.0027421875,625.1897080078126,127.4977421875,624.5337080078125L128.2537421875,629.1717080078125C124.9067421875,629.8927080078125,121.4127421875,629.4467080078125,118.3587421875,627.9007080078125C115.3457421875,626.3027080078125,113.0127421875,623.6677080078125,111.7967421875,620.4797080078125L111.9687421875,620.6857080078125ZM122.0347421875,640.3717080078125L152.54374218750002,624.3957080078125L154.6737421875,628.4157080078126L124.1647421875,644.3917080078126L122.0347421875,640.3717080078125ZM153.0927421875,690.5667080078125L150.41374218750002,686.8907080078125L162.1977421875,678.3357080078125L170.4777421875,655.9357080078125L167.0417421875,657.9627080078125L161.1667421875,648.2047080078125L135.1587421875,663.8717080078125L132.8227421875,659.9897080078125L158.8307421875,644.3227080078125L152.9557421875,634.5997080078125L156.3917421875,632.5037080078125L170.4427421875,655.8667080078125L173.7067421875,660.3327080078125L169.3097421875,671.9457080078125C168.4507421875,674.0757080078125,167.5567421875,676.1717080078125,166.6297421875,678.1987080078125C168.6907421875,677.9577080078125,171.0617421875,677.7857080078124,173.7757421875,677.6487080078125L185.8697421875,677.0987080078125L188.9957421875,681.3937080078125L164.9457421875,681.9427080078125L153.0927421875,690.5667080078125ZM180.2687421875,723.5487080078125L196.2797421875,690.2917080078125L199.7147421875,693.7277080078125L187.5527421875,717.3987080078125C186.5907421875,719.2987080078125,185.6287421875,721.0167080078126,184.6667421875,722.5527080078125C186.3847421875,721.6597080078125,188.1027421875,720.8347080078125,190.0607421875,720.0447080078125L214.6597421875,709.7377080078124L217.8547421875,713.1737080078125L183.4987421875,726.9157080078126L180.2687421875,723.5487080078125ZM224.3827421875,754.7107080078125C221.6517421875,755.8237080078125,218.6457421875,756.0877080078125,215.7597421875,755.4657080078125C212.9077421875,754.8067080078125,210.2627421875,753.4457080078125,208.0637421875,751.5157080078125C205.7237421875,749.5297080078125,203.9957421875,746.9187080078125,203.0817421875,743.9907080078125C202.2397421875,741.1777080078125,202.2397421875,738.1817080078125,203.0817421875,735.3677080078126C203.8587421875,732.4887080078125,205.2947421875,729.8327080078125,207.2737421875,727.6027080078125C210.2967421875,723.7207080078125,214.7287421875,721.1887080078125,219.6077421875,720.5597080078124C224.1117421875,720.1787080078125,228.5637421875,721.7697080078125,231.8037421875,724.9237080078125C234.0917421875,726.9057080078124,235.8027421875,729.4687080078126,236.7517421875,732.3447080078125C237.6787421875,735.1337080078125,237.7507421875,738.1367080078124,236.9577421875,740.9677080078125C236.0707421875,744.0387080078125,234.4837421875,746.8597080078125,232.3197421875,749.2137080078126C230.1647421875,751.6527080078125,227.4547421875,753.5387080078125,224.4177421875,754.7107080078125L224.3827421875,754.7107080078125ZM238.9497421875,775.9767080078125C236.2947421875,774.2347080078125,234.1947421875,771.7687080078125,232.9037421875,768.8657080078125C231.8937421875,766.1617080078125,231.7247421875,763.2137080078126,232.4227421875,760.4137080078125C233.1027421875,757.3217080078125,234.4257421875,754.4077080078125,236.3047421875,751.8587080078125C238.1597421875,749.2097080078125,240.6237421875,747.0417080078125,243.4847421875,745.5367080078125C246.0237421875,744.1937080078125,248.9167421875,743.6677080078125,251.7647421875,744.0257080078125C254.6647421875,744.3557080078125,257.4267421875,745.4477080078125,259.7697421875,747.1867080078125C262.35074218750003,748.9107080078124,264.2917421875,751.4327080078125,265.3017421875,754.3667080078125C266.18074218749996,757.2737080078125,266.0707421875,760.3927080078125,264.99274218749997,763.2307080078125L260.7317421875,761.4787080078125C261.5257421875,759.4167080078125,261.65674218749996,757.1597080078125,261.1097421875,755.0197080078125C260.4337421875,753.0817080078125,259.1417421875,751.4187080078125,257.4337421875,750.2787080078125C255.5507421875,748.8527080078125,253.2697421875,748.0447080078125,250.9057421875,747.9767080078125C248.7447421875,747.9837080078125,246.6427421875,748.6667080078125,244.8937421875,749.9347080078124C240.9837421875,752.8727080078125,238.1287421875,756.9947080078125,236.7517421875,761.6847080078124C236.1637421875,763.7737080078125,236.2947421875,765.9997080078125,237.1287421875,768.0067080078124C237.9637421875,769.8957080078125,239.2937421875,771.5207080078125,240.9767421875,772.7137080078126C242.8397421875,774.1457080078125,245.1617421875,774.8437080078126,247.5047421875,774.6717080078125C250.1027421875,774.4307080078125,252.5347421875,773.2867080078125,254.3757421875,771.4417080078125L257.3997421875,775.0497080078125C254.8707421875,777.3547080078125,251.6417421875,778.7467080078125,248.2267421875,779.0007080078125C244.8867421875,779.1037080078125,241.6157421875,778.0347080078125,238.9847421875,775.9767080078125L238.9497421875,775.9767080078125ZM281.9647421875,802.1227080078125L277.4987421875,799.5117080078124L279.2847421875,788.4827080078124L266.8137421875,781.2337080078125L258.29274218750004,788.3457080078125L254.1357421875,785.9057080078124L282.8917421875,762.7837080078125L287.11774218749997,765.2917080078125L281.9647421875,802.1227080078125ZM295.7067421875,808.5467080078125L291.6187421875,806.5887080078126L304.8457421875,779.1037080078125L294.5387421875,774.1557080078124L296.2907421875,770.5147080078125L320.8557421875,782.4017080078125L319.1037421875,786.0437080078125L308.7967421875,781.0967080078125L295.7067421875,808.5467080078125ZM312.1987421875,815.9337080078125L325.3227421875,784.0857080078125L329.5137421875,785.8377080078125L316.3207421875,817.6857080078125L312.1987421875,815.9337080078125ZM360.6067421875,815.0057080078125C359.6307421875,818.1047080078125,357.9337421875,820.9327080078125,355.6597421875,823.2517080078125C353.5707421875,825.3477080078125,350.9007421875,826.7737080078125,347.9977421875,827.3397080078125C345.1157421875,827.8587080078125,342.1507421875,827.6457080078125,339.3747421875,826.7217080078125C336.4537421875,825.8077080078125,333.8467421875,824.0937080078126,331.8507421875,821.7747080078125C329.9707421875,819.5107080078125,328.7787421875,816.7587080078125,328.4147421875,813.8377080078125C328.0367421875,810.8937080078125,328.3187421875,807.9007080078125,329.2387421875,805.0767080078125C330.5037421875,800.3257080078125,333.5887421875,796.2647080078125,337.8287421875,793.7737080078125C341.7757421875,791.6537080078125,346.4417421875,791.3277080078125,350.6437421875,792.8807080078125C353.5257421875,793.8017080078125,356.1027421875,795.4847080078125,358.0987421875,797.7587080078125C360.0057421875,799.9787080078125,361.2007421875,802.7207080078125,361.5347421875,805.6267080078125C361.9297421875,808.7907080078126,361.5787421875,812.0037080078125,360.5037421875,815.0057080078125L360.6067421875,815.0057080078125ZM384.9307421875,838.1627080078125L373.1127421875,807.8257080078125L367.2717421875,834.2457080078125L362.9777421875,833.3177080078125L370.3987421875,799.6827080078125L374.9677421875,800.6797080078125L386.8207421875,830.9817080078125L392.6267421875,804.5957080078125L396.8867421875,805.5237080078125L389.5007421875,839.1587080078125L384.9307421875,838.1627080078125ZM422.1007421875,843.5907080078125L419.3907421875,832.7337080078125L405.1007421875,830.9817080078125L400.1507421875,840.8767080078125L395.3417421875,840.2587080078125L412.6907421875,807.7227080078125L417.5707421875,808.3407080078125L427.3307421875,844.2437080078125L422.1007421875,843.5907080078125ZM453.9907421875,845.2747080078125L432.4807421875,844.3807080078125L433.8907421875,810.0247080078125L438.4207421875,810.1967080078125L437.2207421875,840.5677080078125L454.1607421875,841.2547080078125L453.9907421875,845.2747080078125ZM159.4147421875,457.9037080078125C159.4147421875,293.0147080078125,293.0827421875,159.3457080078125,457.9707421875,159.3457080078125C622.8607421875,159.3457080078125,756.5307421875,293.0147080078125,756.5307421875,457.9037080078125C756.5307421875,622.7947080078125,622.8607421875,756.4627080078125,457.9707421875,756.4627080078125C293.0827421875,756.4627080078125,159.4147421875,622.7947080078125,159.4147421875,457.9037080078125ZM497.0007421875,840.9107080078124C494.5507421875,843.0927080078125,491.4207421875,844.3637080078125,488.1407421875,844.5187080078125C484.9807421875,844.8997080078125,481.7807421875,844.3497080078125,478.9307421875,842.9377080078125C476.4207421875,841.5327080078125,474.4007421875,839.3857080078125,473.1607421875,836.7887080078125C471.7007421875,833.9707080078125,470.8507421875,830.8827080078125,470.6507421875,827.7177080078125C470.3307421875,824.4887080078125,470.7807421875,821.2277080078125,471.9607421875,818.2017080078125C473.0707421875,815.5527080078125,474.9507421875,813.2917080078125,477.3507421875,811.7077080078125C479.8007421875,810.1237080078125,482.6107421875,809.1897080078126,485.5307421875,808.9937080078125C488.6207421875,808.6677080078125,491.7307421875,809.3687080078125,494.3907421875,810.9867080078125C496.9107421875,812.6187080078125,498.8307421875,815.0307080078124,499.8507421875,817.8577080078124L495.4607421875,819.2667080078126C494.7207421875,817.1807080078125,493.3707421875,815.3707080078125,491.5707421875,814.0787080078125C489.8207421875,813.0207080078125,487.7707421875,812.5737080078125,485.7307421875,812.8077080078125C483.3707421875,812.8897080078125,481.1007421875,813.7207080078125,479.2407421875,815.1777080078125C477.5507421875,816.5657080078125,476.3507421875,818.4557080078125,475.8007421875,820.5717080078125C475.2507421875,822.7467080078125,475.0507421875,824.9967080078125,475.2207421875,827.2367080078125C475.3607421875,829.8517080078125,475.9907421875,832.4147080078125,477.0707421875,834.7957080078126C477.9607421875,836.7637080078125,479.4807421875,838.3757080078125,481.4007421875,839.3647080078125C483.2507421875,840.3067080078125,485.3207421875,840.7217080078125,487.3807421875,840.5677080078125C489.7407421875,840.4507080078125,491.9707421875,839.4847080078125,493.6707421875,837.8537080078125C495.4607421875,835.9877080078124,496.5507421875,833.5587080078125,496.7607421875,830.9817080078125L501.4007421875,831.8067080078125C500.9907421875,835.2457080078125,499.4407421875,838.4507080078125,497.0007421875,840.9107080078124ZM537.5807421874999,829.0237080078125C536.7407421875,831.8577080078124,535.0607421875,834.3727080078125,532.7707421875,836.2387080078125C530.4807421875,838.0387080078125,527.7707421875,839.2237080078125,524.9007421875,839.6737080078125C521.9007421875,840.2647080078125,518.7907421875,840.0007080078125,515.9307421875001,838.9187080078125C513.1807421875001,837.8467080078125,510.8007421875,836.0117080078124,509.0607421875,833.6277080078125C507.3007421875,831.2157080078125,506.1207421875,828.4297080078125,505.6307421875,825.4847080078125C504.4807421875,820.7127080078125,505.2407421875,815.6827080078125,507.7607421875,811.4677080078125C510.2407421875,807.7327080078124,514.2007421875,805.2317080078125,518.6507421875,804.5957080078125C521.6007421874999,804.0327080078125,524.6507421875,804.2797080078125,527.4807421875,805.3177080078125C530.2307421875,806.3617080078125,532.6207421875,808.1897080078126,534.3507421874999,810.5737080078125C536.1507421875,813.1817080078125,537.3207421875,816.1677080078125,537.7807421875,819.3007080078125C538.4907421875,822.5127080078125,538.4207421875001,825.8457080078125,537.5807421874999,829.0237080078125ZM548.3607421875,834.3487080078125L539.2607421875,801.1257080078125L543.6607421875,799.9237080078125L551.7007421875,829.2297080078125L568.0507421875,824.7287080078125L569.1207421875,828.6797080078125L548.3607421875,834.3487080078125ZM575.6407421875,826.5497080078125L564.0707421875,794.0827080078125L568.3607421875,792.5717080078125L578.6707421875,821.1907080078125L594.6407421875,815.4867080078125L595.9807421875,819.3007080078125L575.6407421875,826.5497080078125ZM602.6807421875,816.5867080078125L588.4607421875,785.2187080078126L611.1307421875,774.9117080078125L612.8207421875,778.5877080078125L594.3007421875,787.0057080078125L598.6607421875,796.6257080078125L616.0107421875,788.7577080078125L617.6607421875,792.3997080078125L600.4807421875,800.3017080078125L605.3307421875,810.9517080078125L624.6007421875,802.2257080078125L626.2907421875,805.9357080078125L602.6807421875,816.5867080078125ZM653.8007421875,789.6507080078125C652.2007421875,791.5887080078126,650.2707421875,793.2277080078125,648.1007421875,794.4957080078125C645.3507421875,796.1207080078125,642.2507421875,797.0517080078125,639.0707421875,797.2097080078125C636.0307421875,797.3567080078125,633.0307421875,796.5537080078125,630.4807421875,794.9077080078125C627.8207421875,793.1587080078125,625.6207421875,790.8017080078125,624.0507421875,788.0357080078124C622.4107421875,785.2357080078125,621.4307421875,782.0997080078125,621.1707421875,778.8627080078124C620.9007421875,775.8467080078125,621.6107421875,772.8197080078126,623.1907421875,770.2397080078125C624.9207421875,767.5697080078126,627.2807421875,765.3747080078125,630.0607421875,763.8497080078125C632.0507421875,762.6677080078125,634.2407421875,761.8737080078125,636.5207421875,761.5127080078125C638.4807421875,761.1967080078125,640.4707421875,761.3857080078125,642.3307421875,762.0627080078125C644.2307421875,762.8597080078125,645.9407421875,764.0277080078125,647.3807421875,765.4987080078125L644.3907421875,768.5557080078125C643.2907421875,767.5457080078126,642.0207421875,766.7317080078125,640.6507421875,766.1507080078125C639.3507421875,765.6427080078125,637.9407421875,765.4917080078125,636.5607421875,765.7047080078125C634.9407421875,765.9177080078125,633.3907421875,766.4567080078125,631.9907421875,767.2847080078125C630.3707421875,768.1367080078124,628.9507421875,769.3047080078125,627.8007421875,770.7207080078125C626.8807421875,771.8957080078125,626.2207421875,773.2527080078125,625.8707421875,774.7057080078125C625.5907421875,776.0387080078125,625.5407421875,777.4097080078125,625.7007421875,778.7597080078125C626.0107421875,781.1137080078125,626.8007421875,783.3807080078125,628.0007421875,785.4247080078125C629.2807421875,787.7647080078125,631.0707421875,789.7747080078125,633.2607421875,791.2997080078125C635.1207421875,792.5267080078125,637.3207421875,793.1177080078126,639.5507421875,792.9837080078125C641.7907421875,792.8457080078125,643.9607421875,792.1867080078125,645.9007421875,791.0597080078124C647.6107421875,790.0637080078125,649.1007421875,788.7437080078125,650.3007421875,787.1777080078125C651.3807421875,785.9127080078125,652.2207421875,784.4737080078125,652.8107421875,782.9167080078125L649.5807421875,777.3857080078125L640.8207421875,782.4357080078125L638.7907421875,779.0007080078125L651.4307421875,771.7167080078125L657.8207421875,782.7797080078125C656.8607421875,785.2497080078125,655.5407421875,787.5617080078125,653.9107421875,789.6507080078125L653.8007421875,789.6507080078125ZM667.5507421875,781.8517080078125L647.5207421875,753.8517080078125L667.7907421875,739.3527080078125L670.1607421875,742.7887080078125L653.6307421875,754.6417080078126L659.7507421875,763.2307080078125L675.2407421875,752.1337080078125L677.6107421875,755.5697080078126L662.0807421875,766.6317080078124L668.9607421875,776.1837080078125L686.1307421875,763.8837080078125L688.4707421875,767.3197080078126L667.5507421875,781.8517080078125ZM721.9307421875,735.4707080078125C721.0407421875,738.2567080078124,719.4407421875,740.7687080078125,717.3007421875,742.7547080078125C715.1107421875,744.9017080078125,712.3607421875,746.3787080078125,709.3607421875,747.0147080078125C706.4807421875,747.6297080078125,703.4807421875,747.3927080078125,700.7407421875,746.3277080078125C697.9607421875,745.2657080078125,695.4607421875,743.5857080078125,693.4207421875,741.4147080078125C689.8407421875,738.0367080078125,687.7407421875,733.3817080078124,687.5807421875,728.4617080078125C687.6007421875,723.9857080078125,689.5407421875,719.7317080078125,692.9007421875,716.7807080078124C695.0807421875,714.6847080078124,697.7907421875,713.2217080078125,700.7407421875,712.5547080078125C703.6007421875,711.9017080078125,706.5907421875,712.1147080078125,709.3307421875,713.1737080078125C712.3007421875,714.3307080078125,714.9707421875,716.1657080078126,717.1207421875,718.5327080078125C719.4007421875,720.8557080078125,721.0707421875,723.6967080078125,722.0007421875,726.8127080078125C722.9207421875,729.6227080078125,722.9407421875,732.6467080078125,722.0707421875,735.4707080078125L721.9307421875,735.4707080078125ZM734.3407421875,725.1637080078125L708.5007421875,702.3857080078125L723.8607421875,684.9667080078125L726.9207421875,687.6467080078125L714.5507421875,701.6637080078125L722.5507421875,708.7067080078125L733.2407421875,696.5787080078125L736.2907421875,699.2587080078125L725.7507421875,711.1807080078125L737.5007421875,721.4877080078124L734.3407421875,725.1637080078125ZM769.3807421875,680.1567080078125C769.1607421875,681.9877080078124,768.4607421875,683.7297080078125,767.3507421875,685.2067080078125C766.0207421875,687.4267080078125,763.7907421875,688.9587080078124,761.2407421875,689.3987080078125C758.4507421875,689.6017080078125,755.6907421875,688.6877080078125,753.5807421875,686.8557080078125L755.4707421875,683.1797080078125C756.9707421875,684.3687080078125,758.8407421875,685.0217080078125,760.7607421875,685.0357080078124C762.1107421875,684.8497080078125,763.3107421875,684.0667080078125,764.0207421875,682.9047080078125C764.6407421875,682.0767080078125,765.0007421875,681.0847080078125,765.0507421875,680.0537080078125C765.1207421875,679.1087080078125,764.8607421875,678.1707080078126,764.3007421875,677.4077080078125C763.3607421875,676.2917080078125,762.2707421875,675.3297080078125,761.0307421875,674.5567080078125L741.5907421875,660.8137080078125L744.2007421875,657.0687080078125L763.4407421875,670.5367080078125C765.3607421875,671.7497080078125,767.0207421875,673.3367080078125,768.3207421875,675.2097080078125C769.2607421875,676.6247080078125,769.6807421875,678.3257080078125,769.5207421875,680.0187080078125L769.3807421875,680.1567080078125ZM777.4507421875,669.0597080078124L748.2207421875,650.8157080078125L750.6607421875,646.9687080078126L779.8607421875,665.2117080078125L777.4507421875,669.0597080078124ZM795.9007421875,636.7647080078125L784.8107421875,635.3217080078125L777.9407421875,647.9987080078125L785.3207421875,656.2787080078125L783.0207421875,660.5737080078125L758.9707421875,632.5727080078125L761.3107421875,628.2437080078125L798.6907421875,632.1607080078124L795.9007421875,636.7647080078125ZM809.4407421875,606.3927080078125L777.4507421875,612.5087080078125L802.4007421875,623.0557080078125L800.6807421875,627.0757080078125L768.9307421875,613.6767080078125L770.7507421875,609.3817080078124L802.7407421875,603.2327080078124L778.0707421875,592.5477080078125L779.7607421875,588.5277080078125L811.5007421875,601.9607080078125L809.4407421875,606.3927080078125ZM820.0907421875,577.3277080078125C819.1907421875,580.4027080078125,817.5507421875,583.2097080078125,815.3207421875,585.5047080078125C813.2007421875,587.6827080078125,810.4407421875,589.1257080078125,807.4507421875,589.6267080078125C804.3107421875,590.1767080078125,801.0907421875,589.9497080078125,798.0707421875,588.9747080078125C794.9507421875,588.0437080078125,792.0807421875,586.4077080078125,789.6907421875,584.1987080078125C787.4407421875,582.1647080078125,785.9007421875,579.4677080078125,785.2907421875,576.5027080078125C784.7307421875,573.3937080078125,784.9507421875,570.1917080078125,785.9407421875,567.1927080078125C786.6007421875,564.9797080078125,787.6507421875,562.9047080078125,789.0707421875,561.0767080078125C790.3007421875,559.5647080078126,791.9007421875,558.3867080078124,793.7007421875,557.6407080078125C795.6807421875,556.9467080078125,797.7707421875,556.6687080078125,799.8507421875,556.8167080078125L799.8507421875,561.0767080078125C798.3307421875,561.0217080078125,796.8007421875,561.2417080078125,795.3507421875,561.7297080078125C794.0107421875,562.1967080078125,792.8207421875,563.0317080078125,791.9207421875,564.1347080078125C790.9007421875,565.4057080078124,790.1407421875,566.8657080078125,789.6907421875,568.4287080078125C789.0907421875,570.1747080078125,788.8607421875,572.0197080078125,789.0007421875,573.8577080078124C789.1207421875,575.3557080078125,789.5607421875,576.8087080078125,790.3007421875,578.1177080078126C791.0007421875,579.2827080078125,791.8807421875,580.3267080078125,792.9107421875,581.2097080078125C794.7507421875,582.7387080078125,796.8607421875,583.9037080078125,799.1307421875,584.6457080078125C801.6607421875,585.5047080078125,804.3607421875,585.7517080078125,807.0007421875,585.3667080078125C809.2007421875,585.0057080078125,811.2207421875,583.9347080078124,812.7407421875,582.3087080078125C814.3207421875,580.7047080078125,815.4907421875,578.7497080078125,816.1707421875,576.6057080078125C816.7607421875,574.7057080078125,816.9707421875,572.7097080078125,816.7907421875,570.7307080078125C816.6907421875,569.0817080078125,816.3407421875,567.4567080078125,815.7307421875,565.9207080078126L809.5807421875,564.0657080078125L806.6207421875,573.7197080078125L802.7407421875,572.5517080078125L807.0007421875,558.6027080078125L819.2307421875,562.3477080078125C820.2507421875,564.8357080078125,820.8607421875,567.4667080078125,821.0507421875,570.1467080078125C821.1707421875,572.5247080078125,820.8907421875,574.9057080078124,820.2307421875,577.1897080078126L820.0907421875,577.3277080078125ZM828.9207421875,542.1807080078124C828.4607421875,544.8257080078125,827.4607421875,547.3477080078125,826.0007421875,549.6017080078125C824.7807421875,551.4087080078125,823.0507421875,552.8107080078125,821.0207421875,553.6217080078125C818.9807421875,554.4387080078125,816.7507421875,554.6657080078126,814.5907421875,554.2737080078125L815.0707421875,549.9797080078125C816.5607421875,550.1347080078125,818.0707421875,549.9457080078125,819.4707421875,549.4297080078125C820.8807421875,548.8317080078125,822.0707421875,547.8257080078125,822.9107421875,546.5437080078125C824.8007421875,543.7027080078125,825.5807421875,540.2667080078124,825.1107421875,536.8897080078125C824.9807421875,535.6217080078125,824.4607421875,534.4227080078125,823.6307421875,533.4537080078126C822.9107421875,532.6567080078125,821.9607421875,532.1037080078124,820.9207421875,531.8737080078125C819.9207421875,531.6677080078125,818.8707421875,531.7977080078125,817.9607421875,532.2517080078126C816.8607421875,532.8697080078125,815.9707421875,533.7877080078125,815.3807421875,534.8967080078125C814.3107421875,536.7287080078124,813.3507421875,538.6217080078125,812.5007421875,540.5657080078124C811.5907421875,542.7197080078125,810.4407421875,544.7607080078126,809.0607421875,546.6467080078125C808.0707421875,547.9737080078125,806.7207421875,548.9967080078125,805.1807421875,549.6017080078125C803.7707421875,550.1617080078125,802.2307421875,550.2817080078125,800.7507421875,549.9457080078125C799.0507421875,549.6157080078125,797.4907421875,548.7767080078125,796.2807421875,547.5407080078126C794.9607421875,546.2007080078125,794.0707421875,544.4857080078125,793.7407421875,542.6277080078125C793.3307421875,540.4937080078125,793.3307421875,538.3017080078125,793.7407421875,536.1687080078125C794.1707421875,533.9007080078125,795.0407421875,531.7397080078125,796.3207421875,529.8127080078125C797.3807421875,528.1567080078125,798.9307421875,526.8717080078125,800.7507421875,526.1357080078126C802.5407421875,525.4107080078124,804.5107421875,525.2087080078124,806.4207421875,525.5517080078125L805.8707421875,529.9157080078126C803.9807421875,529.6337080078125,802.0707421875,530.1177080078126,800.5407421875,531.2557080078125C797.6807421875,534.4467080078125,796.7207421875,538.9197080078125,798.0307421875,543.0057080078125C798.6107421875,544.3347080078124,799.8107421875,545.2967080078125,801.2307421875,545.5817080078125C802.4207421875,545.8807080078125,803.6807421875,545.6267080078125,804.6607421875,544.8947080078125C806.3207421875,543.0737080078125,807.6007421875,540.9507080078125,808.4407421875,538.6417080078124C809.4607421875,536.1987080078125,810.6807421875,533.8427080078125,812.0907421875,531.5987080078125C813.1707421875,530.0077080078124,814.6707421875,528.7367080078125,816.4107421875,527.9227080078125C818.0307421875,527.2837080078125,819.8007421875,527.1397080078125,821.5007421875,527.5107080078126C823.3107421875,527.8917080078124,824.9607421875,528.7887080078125,826.2707421875,530.0867080078125C827.7007421875,531.5057080078125,828.6807421875,533.3067080078125,829.0907421875,535.2747080078125C829.5607421875,537.5077080078124,829.5507421875,539.8167080078125,829.0607421875,542.0437080078125L828.9207421875,542.1807080078124ZM834.1407421875,507.8237080078125C833.9707421875,510.5557080078125,833.1207421875,513.2007080078125,831.6707421875,515.5197080078125C830.4207421875,517.3817080078124,828.5607421875,518.7567080078124,826.4107421875,519.4027080078125C823.5507421875,520.0587080078126,820.5907421875,520.1887080078125,817.6907421875,519.7797080078125L797.8607421875,517.6847080078126L798.3807421875,513.1497080078125L818.1307421875,515.2447080078125C820.3407421875,515.6297080078125,822.5907421875,515.6297080078125,824.8007421875,515.2447080078125C826.2007421875,514.8227080078125,827.4107421875,513.9397080078124,828.2307421875,512.7367080078125C829.1907421875,511.3047080078125,829.7607421875,509.6447080078125,829.8807421875,507.9267080078125C830.4107421875,505.3747080078125,829.8707421875,502.7117080078125,828.3707421875,500.5747080078125C826.0007421875,498.5787080078125,822.9907421875,497.4927080078125,819.8807421875,497.5167080078125L800.1307421875,495.3867080078125L800.6107421875,490.8867080078125L820.4007421875,492.9817080078125C823.1907421875,493.1607080078125,825.9307421875,493.8477080078125,828.4707421875,495.0087080078125C830.4607421875,496.0437080078125,832.0407421875,497.7127080078125,832.9707421875,499.7507080078125C834.1507421875,502.2447080078125,834.6007421875,505.0167080078125,834.2807421875,507.7557080078125L834.1407421875,507.8237080078125ZM834.4207421875,397.1277080078125C832.4607421875,397.6427080078125,830.4707421875,398.2957080078125,828.3407421875,399.0517080078125L826.6507421875,392.5917080078125L834.1107421875,390.6687080078125L825.6607421875,358.3387080078125L818.5407421875,360.1937080078125L816.8607421875,353.7347080078125C818.8107421875,353.4157080078125,820.6607421875,353.0377080078125,822.4307421875,352.6007080078125C824.1407421875,352.1547080078125,826.1707421875,351.5017080078125,828.4707421875,350.6767080078125L840.2907421875,395.9247080078125C838.3607421875,396.2027080078125,836.4407421875,396.5807080078125,834.5507421875,397.0587080078125L834.4207421875,397.1277080078125Z" fill="#3971B7" fill-opacity="1"/></g><g transform="matrix(0.18549400568008423,-0.9827319979667664,0.9826419949531555,0.18551099300384521,327.75455972758937,561.4228491599206)"><path d="M502.5107421875,82.98388671875L513.5406421875,82.98388671875L513.5406421875,93.32528671875L502.5107421875,93.32528671875L502.5107421875,82.98388671875Z" fill="#3971B7" fill-opacity="1"/></g><g transform="matrix(0.1861799955368042,-0.9826020002365112,0.9825119972229004,0.18619699776172638,325.77644600870553,609.4361452137928)"><path d="M530.744140625,108.043212890625L559.154140625,108.043212890625L559.154140625,128.416612890625L530.744140625,128.416612890625L530.744140625,108.043212890625Z" fill="#3971B7" fill-opacity="1"/></g><g><path d="M278.2199140625,771.85491921875L269.8369140625,778.72594921875L279.9379140625,784.60094921875L281.6559140625,774.53393921875C282.1709140625,771.47692921875,282.6519140625,769.03692921875,283.1329140625,767.14794921875C281.6209140625,768.84490921875,279.9789140625,770.41894921875,278.2199140625,771.85491921875Z" fill="#3971B7" fill-opacity="1"/></g><g><path d="M506.1711109375,119.35496875L508.1311109375,108.84196875L497.8311809375,106.91796875L495.4912109375,119.38896875C499.7811309375,119.49196875,503.2211909375,119.45796874999999,506.1711109375,119.35496875Z" fill="#3971B7" fill-opacity="1"/></g><g transform="matrix(0.18669499456882477,-0.9825040102005005,0.9824150204658508,0.18671199679374695,306.3621916830234,572.8458692475069)"><path d="M499.1357421875,101.3699951171875L512.1557421875,101.3699951171875L512.1557421875,111.7109951171875L499.1357421875,111.7109951171875L499.1357421875,101.3699951171875Z" fill="#3971B7" fill-opacity="1"/></g></g></svg>