<svg xmlns="http://www.w3.org/2000/svg" viewBox="0 0 386.13 386.13"><defs><style>.cls-1,.cls-5{fill:#231f20;}.cls-1,.cls-2,.cls-4{fill-rule:evenodd;}.cls-2,.cls-3{fill:#a72428;}.cls-4{fill:#58595b;}</style></defs><g id="Layer_2" data-name="Layer 2"><g id="DOOOOR.com設計網"><path class="cls-1" d="M353.08,197.15a4.23,4.23,0,1,1-4.24-4.22,4.23,4.23,0,0,1,4.24,4.22"/><path class="cls-1" d="M40.4,198.23a4.08,4.08,0,1,1-4.08-4.09,4.09,4.09,0,0,1,4.08,4.09"/><path class="cls-2" d="M69.6,194.44a21.18,21.18,0,0,0,2,2.14l.59.45c.18.15.39.29.56.45a8.65,8.65,0,0,1,2.12,4.17,10.11,10.11,0,0,1,0,3.67c-.19,1.1-.43,2.16-.62,3.26-.06.26-.14.53-.18.81-.24,1.63-.34,3.47-.65,5.09-.05.28-.08.57-.14.83s-.15.49-.23.75c-.22.69-.49,1.56-1.43,1.61a1.35,1.35,0,0,1-1.25-.76,10.05,10.05,0,0,1-.73-1.37c-.05-.13-.08-.27-.14-.41-.13-.37-.29-.77-.42-1.16s-.35-1.08-.52-1.62-.32-1.11-.5-1.64c-.1-.27-.17-.54-.27-.81-.49-1.24-1-2.49-1.51-3.78a10,10,0,0,1-.58-3.64,8.49,8.49,0,0,1,1.36-4.5c.14-.19.33-.35.49-.53s.33-.35.49-.54a18.17,18.17,0,0,0,1.36-2.14,1.33,1.33,0,0,0,.19-.33"/><path class="cls-2" d="M83.56,203.14a3.24,3.24,0,0,0-.24.76,15.24,15.24,0,0,0-.29,1.81c0,.44,0,.89-.06,1.32a7.64,7.64,0,0,1-2.27,5,11.09,11.09,0,0,1-2.81,1.77,27,27,0,0,0-3,1.64A11.62,11.62,0,0,1,73,216.55s0-.05,0-.07a5.27,5.27,0,0,0,.59-1.69c.15-.64.27-1.32.4-2,0-.36.06-.7.12-1a15.76,15.76,0,0,1,.75-2.86c.22-.57.45-1.13.7-1.71a18.22,18.22,0,0,1,.75-1.68,4,4,0,0,1,3-2.11,5.48,5.48,0,0,1,1.52,0,4,4,0,0,0,.45.06.66.66,0,0,0,.14,0c.17,0,.34,0,.54,0a4.24,4.24,0,0,0,1.51-.37"/><path class="cls-2" d="M70.11,216.81A11,11,0,0,1,68,216a24.59,24.59,0,0,0-3.2-1.15,11.26,11.26,0,0,1-3.06-1.33A7,7,0,0,1,59.11,210a10.54,10.54,0,0,1-.39-1.2c-.1-.43-.17-.87-.28-1.31s-.25-.81-.4-1.19a6,6,0,0,0-.48-1.06,3.94,3.94,0,0,0,2,.06l.11-.05h.13c.19,0,.38-.13.55-.17a5.4,5.4,0,0,1,1.9-.2,3.74,3.74,0,0,1,1.94.73,5.82,5.82,0,0,1,1.33,1.49c.28.42.53.87.83,1.3a15.48,15.48,0,0,1,2,4.39,16.73,16.73,0,0,0,.75,2.16,6.65,6.65,0,0,0,1,1.86"/><path class="cls-2" d="M71.46,218.93a19.16,19.16,0,0,0,2.41,1.62c.21.11.44.2.65.29a6.83,6.83,0,0,1,.66.3,8.68,8.68,0,0,1,3,3.57,9.68,9.68,0,0,1,.92,3.55c.06,1.12.1,2.2.16,3.31,0,.28,0,.55,0,.82.14,1.66.49,3.47.57,5.12a7.91,7.91,0,0,1,.06.83c0,.25,0,.51,0,.79,0,.73-.12,1.63-1,1.9a1.29,1.29,0,0,1-1.37-.45,9.49,9.49,0,0,1-1-1.16c-.09-.11-.14-.24-.22-.36-.22-.33-.48-.67-.68-1s-.61-1-.89-1.46-.58-1-.88-1.48c-.16-.23-.3-.48-.46-.71-.75-1.11-1.6-2.18-2.34-3.33a10,10,0,0,1-1.45-3.4,8.67,8.67,0,0,1,.27-4.69,5.79,5.79,0,0,1,.36-.64l.34-.62a19,19,0,0,0,.83-2.41c0-.12.11-.32.11-.37"/><path class="cls-2" d="M87.07,224.1a2.72,2.72,0,0,0,0,.78,14.72,14.72,0,0,0,.13,1.83c.07.44.2.87.25,1.31a7.55,7.55,0,0,1-1,5.37,11.47,11.47,0,0,1-2.3,2.38,24.73,24.73,0,0,0-2.48,2.29,11.78,11.78,0,0,1-1.6,1.55s0-.06,0-.09a5.22,5.22,0,0,0,.17-1.76c0-.67,0-1.35-.08-2,0-.35-.1-.7-.12-1a15.94,15.94,0,0,1,0-2.94q.12-.9.27-1.83a15.63,15.63,0,0,1,.35-1.81,4,4,0,0,1,2.45-2.76,5.4,5.4,0,0,1,1.48-.36l.44,0s.08,0,.13,0,.34,0,.54-.1a4.39,4.39,0,0,0,1.38-.7"/><path class="cls-2" d="M77.22,240.56a12.62,12.62,0,0,1-2.23-.32,26.6,26.6,0,0,0-3.4-.36,12,12,0,0,1-3.3-.57,7.15,7.15,0,0,1-3.36-2.77,6.93,6.93,0,0,1-.66-1.08c-.2-.4-.37-.81-.59-1.21A11,11,0,0,0,63,233.2a5.12,5.12,0,0,0-.72-.93,3.61,3.61,0,0,0,1.92-.42.6.6,0,0,1,.11-.06l.11,0c.18-.08.34-.21.51-.3a5.6,5.6,0,0,1,1.79-.64,3.84,3.84,0,0,1,2.05.26,5.58,5.58,0,0,1,1.65,1.13c.37.34.73.71,1.09,1.07a14.75,14.75,0,0,1,3,3.78A15.4,15.4,0,0,0,75.8,239a6.91,6.91,0,0,0,1.42,1.58"/><path class="cls-2" d="M78.92,241.72a20.77,20.77,0,0,0,2.66,1.18c.23.07.46.11.7.17a4.77,4.77,0,0,1,.7.19,8.58,8.58,0,0,1,3.62,3,9.7,9.7,0,0,1,1.5,3.34c.27,1.09.48,2.14.74,3.23.06.27.11.54.17.8.42,1.61,1.07,3.34,1.45,4.95.06.27.15.54.19.8s.07.52.09.79c.08.72.18,1.61-.67,2.05a1.34,1.34,0,0,1-1.44-.21,10.41,10.41,0,0,1-1.23-1c-.11-.1-.17-.22-.27-.32-.29-.28-.59-.59-.87-.89l-1.12-1.28c-.37-.45-.73-.89-1.11-1.3-.2-.2-.37-.43-.58-.63-.93-1-2-1.86-2.89-2.87a9.73,9.73,0,0,1-2-3.09A8.52,8.52,0,0,1,78,246a4.05,4.05,0,0,1,.24-.69c.07-.22.16-.44.21-.67a15.77,15.77,0,0,0,.41-2.52,3.39,3.39,0,0,0,0-.37"/><path class="cls-2" d="M95.19,244.11a2.53,2.53,0,0,0,.09.78,12.63,12.63,0,0,0,.46,1.78c.13.42.33.82.46,1.24a7.42,7.42,0,0,1-.09,5.46,10.94,10.94,0,0,1-1.86,2.75,24.31,24.31,0,0,0-2,2.68,11.73,11.73,0,0,1-1.29,1.81.05.05,0,0,1,0-.08,5,5,0,0,0-.15-1.78c-.12-.65-.27-1.33-.42-2-.1-.35-.22-.67-.31-1a15,15,0,0,1-.45-2.9c0-.61,0-1.23,0-1.86s0-1.24,0-1.84A4,4,0,0,1,91.5,246a5.28,5.28,0,0,1,1.4-.61,3.45,3.45,0,0,0,.43-.12s.07,0,.12-.07A2.94,2.94,0,0,0,94,245a4.5,4.5,0,0,0,1.22-.93"/><path class="cls-2" d="M88.34,262a12.24,12.24,0,0,1-2.26.08,26.56,26.56,0,0,0-3.4.22,11.33,11.33,0,0,1-3.34,0,7.16,7.16,0,0,1-3.81-2.13,8.31,8.31,0,0,1-.82-1c-.27-.36-.51-.74-.8-1.09a12.3,12.3,0,0,0-.83-.92,5.3,5.3,0,0,0-.86-.79A3.67,3.67,0,0,0,74,255.7l.08-.09s.08,0,.11-.05.29-.27.46-.39a5.72,5.72,0,0,1,1.64-.94,3.92,3.92,0,0,1,2.08-.1,5.48,5.48,0,0,1,1.79.83c.43.27.87.57,1.29.86A15.38,15.38,0,0,1,85.12,259a14.58,14.58,0,0,0,1.56,1.68A6.91,6.91,0,0,0,88.34,262"/><path class="cls-2" d="M90.21,263.24a20.61,20.61,0,0,0,2.85.52h.73c.24,0,.5,0,.72,0a8.79,8.79,0,0,1,4.22,2.06,9.9,9.9,0,0,1,2.25,2.9c.5,1,1,2,1.46,3,.13.24.23.5.37.74.79,1.46,1.81,3,2.55,4.47.12.25.28.49.39.73s.18.48.26.74c.25.69.55,1.54-.17,2.15a1.29,1.29,0,0,1-1.45.13A10.59,10.59,0,0,1,103,280c-.12-.08-.23-.17-.36-.25-.33-.21-.71-.43-1-.66l-1.4-1c-.47-.33-.91-.7-1.38-1-.24-.15-.47-.33-.7-.49-1.16-.71-2.35-1.35-3.49-2.11A10,10,0,0,1,92,272a8.61,8.61,0,0,1-1.62-4.41,5.85,5.85,0,0,1,.07-.72c0-.24,0-.48.06-.72a16.79,16.79,0,0,0-.2-2.53c0-.13,0-.34-.05-.38"/><path class="cls-2" d="M106.59,261.75a3.36,3.36,0,0,0,.28.75,14.63,14.63,0,0,0,.83,1.62c.25.39.54.72.77,1.09a7.66,7.66,0,0,1,1.19,5.34,11.07,11.07,0,0,1-1.17,3.1,25.27,25.27,0,0,0-1.36,3.09,12.05,12.05,0,0,1-.85,2.07s0-.06,0-.09a4.94,4.94,0,0,0-.56-1.69c-.26-.61-.57-1.22-.87-1.83-.17-.31-.36-.61-.53-.91a13.13,13.13,0,0,1-1.12-2.72c-.18-.58-.33-1.18-.49-1.8s-.31-1.18-.4-1.78a4,4,0,0,1,1.14-3.51,4.9,4.9,0,0,1,1.22-.91,2.73,2.73,0,0,0,.38-.23s.06,0,.12-.09a3,3,0,0,0,.46-.3,4.1,4.1,0,0,0,1-1.2"/><path class="cls-2" d="M104.12,280.77a11.49,11.49,0,0,1-2.19.6,26.47,26.47,0,0,0-3.25,1,12,12,0,0,1-3.23.79,7.15,7.15,0,0,1-4.22-1.2,11.29,11.29,0,0,1-1-.73c-.34-.29-.67-.61-1-.87s-.68-.49-1-.71a6.12,6.12,0,0,0-1-.56,3.9,3.9,0,0,0,1.6-1.15.53.53,0,0,1,.06-.1.34.34,0,0,0,.09-.08c.12-.15.22-.33.34-.48A5.75,5.75,0,0,1,90.62,276a3.7,3.7,0,0,1,2-.59,5.53,5.53,0,0,1,1.95.38c.47.17,1,.36,1.44.55a15.29,15.29,0,0,1,4.28,2.26,19.6,19.6,0,0,0,1.89,1.28,7.24,7.24,0,0,0,1.94.87"/><path class="cls-2" d="M106.08,282a18.71,18.71,0,0,0,2.9,0c.25,0,.49-.08.71-.12a4.72,4.72,0,0,1,.71-.11,8.52,8.52,0,0,1,4.53,1.24,9.77,9.77,0,0,1,2.74,2.44c.68.88,1.31,1.76,2,2.64.16.23.31.46.48.67,1,1.29,2.35,2.6,3.32,3.92.18.22.37.43.52.65s.27.45.41.68c.37.63.81,1.41.22,2.15a1.35,1.35,0,0,1-1.4.41,14.49,14.49,0,0,1-1.51-.38c-.13-.05-.25-.14-.39-.19-.37-.14-.76-.28-1.15-.46l-1.55-.71c-.52-.25-1-.52-1.54-.73-.28-.1-.51-.23-.77-.34-1.26-.48-2.56-.9-3.83-1.44a10,10,0,0,1-3.08-2,8.65,8.65,0,0,1-2.41-4,5.52,5.52,0,0,1-.06-.72l-.06-.71a15.35,15.35,0,0,0-.67-2.45,2.69,2.69,0,0,0-.12-.37"/><path class="cls-2" d="M121.9,277.48a3.32,3.32,0,0,0,.4.68,14.65,14.65,0,0,0,1.14,1.44c.32.33.66.61.94.94a7.6,7.6,0,0,1,2.15,5,11.66,11.66,0,0,1-.57,3.28,27.38,27.38,0,0,0-.78,3.28,10.7,10.7,0,0,1-.45,2.18s0-.06,0-.08a4.6,4.6,0,0,0-.87-1.56c-.37-.54-.78-1.1-1.19-1.64-.22-.28-.46-.53-.68-.8a13.86,13.86,0,0,1-1.6-2.47c-.28-.54-.54-1.09-.81-1.67a15.51,15.51,0,0,1-.73-1.68,4,4,0,0,1,.48-3.66,5.68,5.68,0,0,1,1-1.13c.12-.09.25-.18.36-.28s0-.08.07-.11a3.37,3.37,0,0,0,.4-.37,4.42,4.42,0,0,0,.74-1.37"/><path class="cls-2" d="M123,296.63a11.78,11.78,0,0,1-2,1,26.28,26.28,0,0,0-3,1.61,12,12,0,0,1-3,1.37,7.11,7.11,0,0,1-4.34-.41,8.31,8.31,0,0,1-1.14-.53c-.4-.22-.76-.46-1.16-.66s-.78-.36-1.14-.51a6.23,6.23,0,0,0-1.11-.36,3.73,3.73,0,0,0,1.36-1.42.56.56,0,0,0,0-.12.71.71,0,0,1,.07-.09c.1-.17.17-.37.25-.54a5.43,5.43,0,0,1,1.12-1.52,4.16,4.16,0,0,1,1.86-1,5.75,5.75,0,0,1,2,0l1.53.27a15.16,15.16,0,0,1,4.62,1.44,17.2,17.2,0,0,0,2.11.91,6.44,6.44,0,0,0,2,.5"/><path class="cls-2" d="M125.38,296.61a19.09,19.09,0,0,0,2.87-.47c.24-.06.45-.14.69-.22a6.2,6.2,0,0,1,.69-.23,8.79,8.79,0,0,1,4.65.54,10.05,10.05,0,0,1,3.09,2c.8.77,1.55,1.54,2.35,2.31l.6.58c1.23,1.12,2.72,2.21,3.89,3.37.19.19.43.37.6.57s.32.39.5.61c.47.56,1,1.26.56,2.08a1.35,1.35,0,0,1-1.34.62,11.47,11.47,0,0,1-1.54-.15c-.13,0-.27-.09-.41-.12-.38-.08-.8-.16-1.2-.28s-1.09-.29-1.64-.46-1.11-.36-1.63-.49c-.29-.06-.56-.15-.83-.21-1.31-.3-2.67-.51-4-.84a10.13,10.13,0,0,1-3.36-1.52,8.56,8.56,0,0,1-3-3.64,5.85,5.85,0,0,1-.2-.7c0-.22-.09-.45-.16-.69a16.29,16.29,0,0,0-1-2.32,2.63,2.63,0,0,0-.17-.34"/><path class="cls-2" d="M140.34,289.77a3.32,3.32,0,0,0,.5.62,13.81,13.81,0,0,0,1.36,1.25c.33.28.73.5,1.05.78a7.64,7.64,0,0,1,2.9,4.64,11.54,11.54,0,0,1-.07,3.31,26,26,0,0,0-.26,3.37,12,12,0,0,1-.12,2.23s0-.06,0-.08a4.92,4.92,0,0,0-1.1-1.41c-.45-.48-.93-1-1.43-1.43-.26-.25-.54-.45-.8-.69a14.66,14.66,0,0,1-2-2.19c-.36-.5-.71-1-1.06-1.53a15.85,15.85,0,0,1-1-1.57,4,4,0,0,1-.08-3.68,5.88,5.88,0,0,1,.86-1.27c.08-.11.2-.21.29-.33l.06-.12a4.54,4.54,0,0,0,.34-.44,4.1,4.1,0,0,0,.52-1.46"/><path class="cls-2" d="M144.3,308.54a11.85,11.85,0,0,1-1.85,1.3,25.36,25.36,0,0,0-2.73,2,11.3,11.3,0,0,1-2.8,1.82,7.09,7.09,0,0,1-4.36.27,9.19,9.19,0,0,1-1.21-.35c-.42-.16-.83-.35-1.25-.48a11.34,11.34,0,0,0-1.2-.33,6,6,0,0,0-1.14-.19,4.07,4.07,0,0,0,1.12-1.61.79.79,0,0,1,0-.13.9.9,0,0,1,.05-.09c.07-.19.1-.38.16-.57a6.26,6.26,0,0,1,.87-1.68,4.06,4.06,0,0,1,1.69-1.22,5.78,5.78,0,0,1,2-.28c.52,0,1,0,1.56,0a15.52,15.52,0,0,1,4.79.7,17.26,17.26,0,0,0,2.22.58,6.51,6.51,0,0,0,2.09.19"/><path class="cls-2" d="M147,307.69a20.53,20.53,0,0,0,2.72-1c.21-.11.41-.25.62-.37A3.64,3.64,0,0,1,151,306a8.71,8.71,0,0,1,4.68-.41,9.89,9.89,0,0,1,3.41,1.34c.95.59,1.83,1.2,2.78,1.79l.69.45c1.43.86,3.1,1.63,4.5,2.52.21.15.47.29.7.44s.39.32.61.49c.56.47,1.26,1,.95,1.94a1.31,1.31,0,0,1-1.18.86,10,10,0,0,1-1.53.17c-.13,0-.28,0-.44,0-.39,0-.82,0-1.23,0l-1.7-.12c-.58-.05-1.14-.13-1.69-.14-.29,0-.57,0-.86-.06-1.35,0-2.7.05-4.08,0a10.17,10.17,0,0,1-3.59-.8,8.56,8.56,0,0,1-3.66-3,4.45,4.45,0,0,1-.31-.66c-.1-.2-.2-.43-.31-.64a16.55,16.55,0,0,0-1.49-2.07,2.15,2.15,0,0,0-.22-.31"/><path class="cls-2" d="M160.31,298a3.25,3.25,0,0,0,.61.49,14.07,14.07,0,0,0,1.56.95c.4.21.83.35,1.21.55a7.63,7.63,0,0,1,3.78,4,12.08,12.08,0,0,1,.59,3.26,22.41,22.41,0,0,0,.42,3.34,13.11,13.11,0,0,1,.34,2.2s0,0-.06-.06a5.15,5.15,0,0,0-1.35-1.16c-.55-.38-1.13-.76-1.69-1.12-.31-.19-.62-.33-.93-.51a14.5,14.5,0,0,1-2.35-1.75c-.45-.41-.88-.85-1.34-1.29s-.88-.86-1.26-1.33A4,4,0,0,1,159,302a5.09,5.09,0,0,1,.58-1.42,3.61,3.61,0,0,0,.22-.39s0-.07,0-.12.17-.29.25-.49a4.57,4.57,0,0,0,.21-1.53"/><path class="cls-2" d="M168,315.59a12.22,12.22,0,0,1-1.56,1.65,25.71,25.71,0,0,0-2.27,2.54,11.92,11.92,0,0,1-2.37,2.34,7.15,7.15,0,0,1-4.22,1.14,9.06,9.06,0,0,1-1.26-.11c-.44-.07-.88-.16-1.32-.22a10.87,10.87,0,0,0-1.23-.07,5.85,5.85,0,0,0-1.19,0,3.58,3.58,0,0,0,.79-1.81V321a.29.29,0,0,0,0-.11c0-.19,0-.39.06-.57a5.23,5.23,0,0,1,.51-1.82,4.08,4.08,0,0,1,1.41-1.54,5.66,5.66,0,0,1,1.87-.68l1.52-.27a15,15,0,0,1,4.84-.26,16,16,0,0,0,2.29.12,6.49,6.49,0,0,0,2.1-.24"/><path class="cls-2" d="M169.75,314.2a19.24,19.24,0,0,0,2.43-1.6c.19-.15.35-.32.54-.48a3.82,3.82,0,0,1,.51-.48,8.65,8.65,0,0,1,4.49-1.41,9.87,9.87,0,0,1,3.62.57c1.06.36,2.06.76,3.11,1.14.25.1.51.21.77.29,1.58.52,3.37.93,4.93,1.49.25.09.53.17.78.27s.47.23.71.36c.66.33,1.45.74,1.34,1.69a1.33,1.33,0,0,1-.95,1.09,12.14,12.14,0,0,1-1.47.5c-.13,0-.28,0-.41.06-.4.07-.82.18-1.23.24l-1.68.23c-.6.08-1.16.12-1.7.22-.28.07-.57.09-.84.14-1.31.27-2.64.63-4,.88a10.79,10.79,0,0,1-3.67,0,8.47,8.47,0,0,1-4.21-2.1,5,5,0,0,1-.45-.56c-.15-.19-.29-.38-.45-.57a14.71,14.71,0,0,0-1.88-1.7,2.92,2.92,0,0,0-.29-.24"/><path class="cls-2" d="M180.62,301.87a2.76,2.76,0,0,0,.71.34,11.84,11.84,0,0,0,1.74.61c.42.1.87.15,1.29.28a7.55,7.55,0,0,1,4.54,3,12.18,12.18,0,0,1,1.28,3.06,24.25,24.25,0,0,0,1.14,3.17,14,14,0,0,1,.81,2.09s-.06-.05-.08-.06a5.24,5.24,0,0,0-1.57-.85c-.62-.24-1.25-.5-1.89-.72-.34-.12-.69-.19-1-.3a14.17,14.17,0,0,1-2.7-1.21c-.52-.3-1-.63-1.57-1s-1-.66-1.53-1a4,4,0,0,1-1.6-3.34,6.07,6.07,0,0,1,.27-1.5,3.09,3.09,0,0,0,.14-.43s0-.07,0-.13a2.59,2.59,0,0,0,.12-.53,3.84,3.84,0,0,0-.11-1.54"/><path class="cls-2" d="M191.89,317.38a11.67,11.67,0,0,1-1.15,1.94,22.54,22.54,0,0,0-1.68,3,12.14,12.14,0,0,1-1.81,2.8,7.05,7.05,0,0,1-3.87,2,10.6,10.6,0,0,1-1.26.17c-.44,0-.88,0-1.33.07a9.44,9.44,0,0,0-1.24.2,5,5,0,0,0-1.12.29,3.86,3.86,0,0,0,.37-1.93.61.61,0,0,1,0-.13s0-.07,0-.11c0-.2-.07-.4-.08-.58a5.5,5.5,0,0,1,.1-1.89,3.93,3.93,0,0,1,1.06-1.81,5.6,5.6,0,0,1,1.67-1.06l1.42-.59a15,15,0,0,1,4.67-1.3,19,19,0,0,0,2.26-.38,6.54,6.54,0,0,0,2-.69"/><path class="cls-2" d="M263.83,277.26a2.92,2.92,0,0,1-.4.68,13.17,13.17,0,0,1-1.13,1.44c-.3.34-.65.63-.93.95a7.58,7.58,0,0,0-2.16,5,11.94,11.94,0,0,0,.59,3.26,25.11,25.11,0,0,1,.78,3.28,12.35,12.35,0,0,0,.45,2.19s0-.06,0-.07a5.06,5.06,0,0,1,.87-1.58c.37-.54.78-1.09,1.19-1.62.22-.3.47-.55.69-.82a14.43,14.43,0,0,0,1.6-2.47c.27-.54.54-1.1.8-1.66s.52-1.12.73-1.7a4,4,0,0,0-.49-3.67,5.08,5.08,0,0,0-1-1.12c-.1-.09-.26-.18-.35-.28S265,279,265,279a2.65,2.65,0,0,1-.4-.37,4.18,4.18,0,0,1-.75-1.36"/><path class="cls-2" d="M262.81,296.43a11.54,11.54,0,0,0,2,1,23.62,23.62,0,0,1,3,1.6,11.35,11.35,0,0,0,3.06,1.36,7.13,7.13,0,0,0,4.35-.4,10.88,10.88,0,0,0,1.15-.54c.38-.22.76-.47,1.16-.67s.76-.36,1.14-.51a5.43,5.43,0,0,1,1.1-.36,3.84,3.84,0,0,1-1.36-1.43.22.22,0,0,0-.05-.11.53.53,0,0,0-.06-.1c-.1-.17-.17-.35-.25-.52A6,6,0,0,0,277,294.2a3.88,3.88,0,0,0-1.83-.94,5.67,5.67,0,0,0-2,0c-.5.07-1,.17-1.51.27A15.5,15.5,0,0,0,267,295a15.61,15.61,0,0,1-2.11.91,6.44,6.44,0,0,1-2.05.52"/><path class="cls-2" d="M238.75,307.55a19.25,19.25,0,0,1-2.72-1,6.88,6.88,0,0,1-.63-.37c-.21-.1-.41-.26-.62-.34a8.64,8.64,0,0,0-4.68-.41,9.85,9.85,0,0,0-3.41,1.34c-1,.6-1.85,1.21-2.78,1.8l-.7.46c-1.43.85-3.1,1.64-4.48,2.53-.24.14-.49.27-.71.43s-.41.33-.61.49c-.57.48-1.26,1.06-1,2a1.33,1.33,0,0,0,1.17.86,9.19,9.19,0,0,0,1.55.17,3,3,0,0,0,.42,0c.41,0,.83,0,1.25,0s1.13-.08,1.69-.14,1.16-.12,1.72-.14l.84,0c1.34,0,2.71,0,4.09,0a10.26,10.26,0,0,0,3.59-.82,8.51,8.51,0,0,0,3.65-3,4.36,4.36,0,0,0,.32-.65c.1-.2.19-.43.31-.64a15.85,15.85,0,0,1,1.48-2.08c.07-.1.19-.27.22-.3"/><path class="cls-2" d="M225.44,297.88a4.81,4.81,0,0,1-.61.5,14.85,14.85,0,0,1-1.57.95c-.4.21-.82.36-1.21.56a7.72,7.72,0,0,0-3.76,4,11.91,11.91,0,0,0-.58,3.27,25.76,25.76,0,0,1-.42,3.35,13.26,13.26,0,0,0-.33,2.2s0,0,0-.06a5.3,5.3,0,0,1,1.34-1.17c.55-.37,1.12-.75,1.7-1.12.31-.18.63-.33.93-.51a14.17,14.17,0,0,0,2.34-1.76c.46-.41.89-.85,1.34-1.29a17.71,17.71,0,0,0,1.27-1.34,4,4,0,0,0,.83-3.6,6.1,6.1,0,0,0-.59-1.41,3.07,3.07,0,0,1-.23-.39s0-.08,0-.13a3.32,3.32,0,0,1-.25-.5,4,4,0,0,1-.22-1.52"/><path class="cls-2" d="M316,194.06a20.18,20.18,0,0,1-2,2.15,6.59,6.59,0,0,1-.57.44c-.18.16-.4.28-.56.45a8.49,8.49,0,0,0-2.11,4.2,9.37,9.37,0,0,0,0,3.65c.19,1.12.42,2.17.63,3.26,0,.28.1.54.15.81.28,1.65.37,3.49.68,5.11,0,.27.07.56.14.82s.15.5.24.75c.22.69.48,1.56,1.43,1.61a1.31,1.31,0,0,0,1.24-.76,11.3,11.3,0,0,0,.73-1.37c.05-.13.08-.28.13-.42.14-.37.3-.76.44-1.14.17-.55.36-1.09.52-1.64s.3-1.12.49-1.64c.09-.27.17-.55.27-.8.47-1.26,1-2.51,1.5-3.81a10.24,10.24,0,0,0,.58-3.63,8.56,8.56,0,0,0-1.38-4.5,5,5,0,0,0-.5-.54c-.15-.17-.32-.35-.47-.53a17,17,0,0,1-1.37-2.14,3.2,3.2,0,0,1-.2-.33"/><path class="cls-2" d="M302.07,202.79a2.52,2.52,0,0,1,.23.76,14.38,14.38,0,0,1,.3,1.8c0,.45,0,.91.07,1.33a7.51,7.51,0,0,0,2.28,5,11.24,11.24,0,0,0,2.81,1.76,25.29,25.29,0,0,1,2.95,1.65,14,14,0,0,0,1.93,1.13s0,0,0-.07a5,5,0,0,1-.58-1.7c-.15-.63-.29-1.31-.41-2-.07-.34-.08-.69-.14-1a14.08,14.08,0,0,0-.74-2.84c-.22-.58-.45-1.14-.71-1.72a14,14,0,0,0-.76-1.68,4,4,0,0,0-3-2.11,5.34,5.34,0,0,0-1.5,0,4.32,4.32,0,0,1-.47.06s-.08,0-.13,0-.33,0-.55,0a4.29,4.29,0,0,1-1.5-.37"/><path class="cls-2" d="M315.56,216.45a13.41,13.41,0,0,0,2.11-.83,23.22,23.22,0,0,1,3.2-1.16,12.22,12.22,0,0,0,3.06-1.33,7.41,7.41,0,0,0,2.64-3.5c.13-.39.26-.8.36-1.21s.17-.88.29-1.31.25-.81.38-1.19a5.72,5.72,0,0,1,.49-1.06,3.83,3.83,0,0,1-2,0l-.13,0h-.11l-.57-.17a5.69,5.69,0,0,0-1.87-.21,4,4,0,0,0-1.95.75,5.44,5.44,0,0,0-1.32,1.49c-.29.42-.56.87-.83,1.3a15.69,15.69,0,0,0-2,4.4,15.7,15.7,0,0,1-.74,2.16,6.72,6.72,0,0,1-1,1.87"/><path class="cls-2" d="M314.21,218.58a20.52,20.52,0,0,1-2.4,1.61c-.22.12-.45.2-.66.31a3.69,3.69,0,0,0-.67.3,8.6,8.6,0,0,0-3,3.57,9.84,9.84,0,0,0-.9,3.55c-.06,1.12-.1,2.2-.16,3.31,0,.29,0,.56,0,.84-.15,1.65-.47,3.47-.56,5.11,0,.28-.06.57-.06.83s0,.52.05.79c0,.72.12,1.63,1,1.9a1.31,1.31,0,0,0,1.38-.45,11.24,11.24,0,0,0,1-1.16c.09-.1.14-.25.22-.36.23-.34.48-.69.7-1s.59-1,.88-1.45.57-1,.88-1.47c.15-.24.28-.49.44-.73.76-1.11,1.6-2.18,2.35-3.34a9.91,9.91,0,0,0,1.43-3.39,8.6,8.6,0,0,0-.28-4.7,3.64,3.64,0,0,0-.36-.63c-.11-.21-.23-.41-.33-.64a17.38,17.38,0,0,1-.84-2.4c0-.12-.11-.32-.11-.36"/><path class="cls-2" d="M298.59,223.77a2.44,2.44,0,0,1,.06.79,14.72,14.72,0,0,1-.13,1.83c-.07.44-.2.87-.25,1.3a7.58,7.58,0,0,0,1,5.38,11.74,11.74,0,0,0,2.31,2.37,24.94,24.94,0,0,1,2.49,2.3,13.75,13.75,0,0,0,1.59,1.55s0-.06,0-.08a5.14,5.14,0,0,1-.17-1.78c0-.66,0-1.35.08-2,0-.37.08-.71.12-1.06a14.35,14.35,0,0,0-.07-2.94c-.07-.6-.17-1.21-.27-1.83a15.8,15.8,0,0,0-.35-1.82,4,4,0,0,0-2.46-2.76,5.66,5.66,0,0,0-1.48-.35c-.14,0-.29,0-.44,0s-.08,0-.13,0a2.88,2.88,0,0,1-.54-.11,4.14,4.14,0,0,1-1.39-.7"/><path class="cls-2" d="M308.48,240.22a12,12,0,0,0,2.25-.31,24.71,24.71,0,0,1,3.4-.39,11.11,11.11,0,0,0,3.28-.56,7.15,7.15,0,0,0,3.38-2.77,9.88,9.88,0,0,0,.64-1.1c.22-.39.37-.8.59-1.2s.45-.73.66-1a5.31,5.31,0,0,1,.71-.92,3.82,3.82,0,0,1-1.91-.42l-.11-.08a.29.29,0,0,1-.11,0c-.18-.08-.33-.21-.51-.3a5.81,5.81,0,0,0-1.78-.64,3.83,3.83,0,0,0-2.08.26,5.73,5.73,0,0,0-1.63,1.14c-.37.34-.74.71-1.1,1.07a15.1,15.1,0,0,0-3,3.79,16.7,16.7,0,0,1-1.24,1.93,6.31,6.31,0,0,1-1.42,1.58"/><path class="cls-2" d="M306.79,241.39a19.46,19.46,0,0,1-2.66,1.18l-.72.19c-.21.06-.47.09-.68.17a8.66,8.66,0,0,0-3.62,3,9.93,9.93,0,0,0-1.5,3.35c-.27,1.09-.48,2.14-.73,3.23-.05.26-.11.54-.18.81-.41,1.61-1.05,3.34-1.42,4.94a6.07,6.07,0,0,0-.19.82,6.18,6.18,0,0,0-.09.78c-.09.72-.17,1.63.67,2.05a1.34,1.34,0,0,0,1.44-.21,10.41,10.41,0,0,0,1.21-1,4,4,0,0,0,.28-.32c.29-.3.6-.58.86-.89l1.13-1.3c.39-.44.72-.89,1.11-1.29.2-.21.38-.43.57-.64,1-1,2-1.87,2.9-2.88a10.55,10.55,0,0,0,2-3.09,8.71,8.71,0,0,0,.52-4.69,3.68,3.68,0,0,0-.24-.68c-.07-.22-.15-.45-.22-.68a18.26,18.26,0,0,1-.4-2.51c0-.13-.05-.33,0-.38"/><path class="cls-2" d="M290.5,243.82a2.47,2.47,0,0,1-.09.77,11.27,11.27,0,0,1-.44,1.78c-.15.43-.34.83-.47,1.25a7.55,7.55,0,0,0,.1,5.47,11.85,11.85,0,0,0,1.86,2.74,26.7,26.7,0,0,1,2.06,2.69,12.1,12.1,0,0,0,1.31,1.8s0-.06,0-.08a4.77,4.77,0,0,1,.13-1.78c.13-.65.27-1.33.43-2,.07-.35.2-.68.29-1a13.53,13.53,0,0,0,.45-2.9c0-.6,0-1.21.05-1.85s0-1.24,0-1.84a4,4,0,0,0-1.95-3.15,5.51,5.51,0,0,0-1.39-.6l-.45-.12-.11-.06a3.65,3.65,0,0,1-.51-.19,4.35,4.35,0,0,1-1.24-.92"/><path class="cls-2" d="M297.39,261.72a11.61,11.61,0,0,0,2.27.08,25,25,0,0,1,3.41.22,11.27,11.27,0,0,0,3.33,0,7.2,7.2,0,0,0,3.81-2.16,8.68,8.68,0,0,0,.83-1c.26-.35.5-.73.79-1.08a9.45,9.45,0,0,1,.83-.93,4.87,4.87,0,0,1,.87-.78,3.71,3.71,0,0,1-1.82-.75.52.52,0,0,1-.11-.1l-.1,0c-.16-.11-.29-.26-.44-.38a5.48,5.48,0,0,0-1.66-.94,3.91,3.91,0,0,0-2.08-.1,5.65,5.65,0,0,0-1.8.84c-.42.27-.85.57-1.28.86a15.64,15.64,0,0,0-3.64,3.22,15.26,15.26,0,0,1-1.54,1.68,6.7,6.7,0,0,1-1.67,1.31"/><path class="cls-2" d="M295.52,263a20.08,20.08,0,0,1-2.85.52c-.25,0-.48,0-.73,0a5.93,5.93,0,0,0-.73,0,8.62,8.62,0,0,0-4.2,2.07,9.69,9.69,0,0,0-2.25,2.9c-.5,1-1,2-1.46,3-.12.25-.23.51-.36.75-.79,1.47-1.81,3-2.55,4.47-.12.26-.28.51-.38.75s-.18.48-.27.74c-.24.69-.55,1.53.19,2.14a1.29,1.29,0,0,0,1.44.14,10.67,10.67,0,0,0,1.41-.65,3.79,3.79,0,0,0,.35-.25c.33-.21.71-.43,1-.66l1.4-1c.47-.36.91-.7,1.39-1,.23-.16.45-.34.69-.48,1.13-.72,2.34-1.36,3.5-2.13a9.84,9.84,0,0,0,2.65-2.55,8.59,8.59,0,0,0,1.61-4.42,4.46,4.46,0,0,0-.06-.72c0-.24-.05-.47-.06-.72a18.62,18.62,0,0,1,.18-2.54,2.37,2.37,0,0,1,0-.37"/><path class="cls-2" d="M279.14,261.5a2.93,2.93,0,0,1-.28.75,11.42,11.42,0,0,1-.85,1.61c-.24.38-.51.73-.75,1.11a7.64,7.64,0,0,0-1.19,5.33,11.66,11.66,0,0,0,1.19,3.1,26.3,26.3,0,0,1,1.36,3.1,14,14,0,0,0,.85,2.06s0-.07,0-.09a5,5,0,0,1,.56-1.69c.26-.61.57-1.23.87-1.82l.53-.92a14.63,14.63,0,0,0,1.11-2.73c.18-.58.32-1.18.5-1.78s.3-1.21.39-1.8a4.05,4.05,0,0,0-1.15-3.52,6,6,0,0,0-1.21-.91,2.67,2.67,0,0,1-.41-.22s-.05-.05-.1-.08-.29-.17-.46-.3a3.92,3.92,0,0,1-1-1.2"/><path class="cls-2" d="M281.64,280.52a11.85,11.85,0,0,0,2.18.61,25.44,25.44,0,0,1,3.27,1,11.54,11.54,0,0,0,3.24.79,7.08,7.08,0,0,0,4.2-1.21,6.25,6.25,0,0,0,1-.74c.36-.29.67-.6,1-.88s.68-.48,1-.7a5.1,5.1,0,0,1,1-.55,4,4,0,0,1-1.6-1.16.44.44,0,0,0-.06-.1s-.06,0-.09-.09a2.25,2.25,0,0,1-.34-.47,5.92,5.92,0,0,0-1.39-1.29,3.94,3.94,0,0,0-2-.59,5.42,5.42,0,0,0-1.95.39c-.49.17-1,.37-1.44.55a14.78,14.78,0,0,0-4.29,2.28,16.9,16.9,0,0,1-1.9,1.26,6,6,0,0,1-1.93.89"/><path class="cls-2" d="M279.69,281.71a20.31,20.31,0,0,1-2.92,0c-.24,0-.46-.09-.71-.13a5.42,5.42,0,0,0-.72-.11,8.59,8.59,0,0,0-4.52,1.26,10.05,10.05,0,0,0-2.74,2.44c-.68.88-1.31,1.76-2,2.65l-.48.67c-1.05,1.29-2.34,2.61-3.33,3.92-.17.23-.37.44-.52.66s-.25.45-.39.69c-.37.62-.82,1.4-.23,2.14a1.33,1.33,0,0,0,1.41.4,10.16,10.16,0,0,0,1.49-.38c.14-.05.26-.13.4-.17.37-.15.77-.3,1.15-.48s1-.46,1.54-.71,1-.52,1.55-.72c.27-.12.52-.25.78-.35,1.25-.5,2.55-.91,3.83-1.45a10.5,10.5,0,0,0,3.08-2,8.65,8.65,0,0,0,2.39-4,5.85,5.85,0,0,0,.07-.72c0-.25,0-.48.06-.72a19.17,19.17,0,0,1,.67-2.46,1.36,1.36,0,0,1,.12-.36"/><path class="cls-2" d="M260.39,296.4a19.15,19.15,0,0,1-2.86-.44c-.25-.06-.47-.16-.71-.23a3.75,3.75,0,0,0-.67-.22,8.55,8.55,0,0,0-4.66.55,9.75,9.75,0,0,0-3.08,2c-.81.77-1.57,1.55-2.36,2.32-.21.19-.4.4-.61.6-1.21,1.11-2.7,2.21-3.86,3.36-.2.2-.44.38-.61.58s-.33.39-.51.6c-.46.57-1,1.27-.54,2.1a1.31,1.31,0,0,0,1.32.59,11.44,11.44,0,0,0,1.55-.13c.14,0,.27-.09.42-.12.4-.1.8-.16,1.19-.28.56-.15,1.09-.3,1.65-.47s1.09-.36,1.64-.48c.28-.07.54-.17.82-.23,1.3-.3,2.67-.5,4-.85a10.31,10.31,0,0,0,3.36-1.52,8.58,8.58,0,0,0,3-3.64,3.21,3.21,0,0,0,.18-.71c.06-.22.11-.46.17-.69a19,19,0,0,1,1-2.32l.16-.36"/><path class="cls-2" d="M245.41,289.61a3.2,3.2,0,0,1-.5.61,12.29,12.29,0,0,1-1.34,1.24c-.35.29-.74.52-1.07.79a7.58,7.58,0,0,0-2.89,4.65,11.62,11.62,0,0,0,.08,3.32,22.88,22.88,0,0,1,.26,3.36,12.23,12.23,0,0,0,.13,2.24s0-.06,0-.08a4.91,4.91,0,0,1,1.09-1.42c.45-.47.94-1,1.43-1.43.25-.25.55-.45.8-.69a14.24,14.24,0,0,0,1.95-2.2c.37-.49.71-1,1.05-1.53a13.44,13.44,0,0,0,1-1.56,4,4,0,0,0,.1-3.69,6,6,0,0,0-.86-1.27,3.17,3.17,0,0,1-.3-.34s0-.08-.07-.12a3.21,3.21,0,0,1-.33-.43,4.2,4.2,0,0,1-.53-1.45"/><path class="cls-2" d="M241.48,308.39a12.48,12.48,0,0,0,1.84,1.29,24.61,24.61,0,0,1,2.75,2,11.71,11.71,0,0,0,2.79,1.82,7.13,7.13,0,0,0,4.37.26,10.58,10.58,0,0,0,1.22-.35c.43-.16.83-.35,1.25-.49a11.25,11.25,0,0,1,1.2-.32,4.76,4.76,0,0,1,1.16-.19,3.81,3.81,0,0,1-1.13-1.62s0-.08,0-.12a.6.6,0,0,0-.06-.11c-.06-.17-.09-.37-.16-.56a5.47,5.47,0,0,0-.86-1.68,3.89,3.89,0,0,0-1.7-1.21,5.88,5.88,0,0,0-2-.29c-.5,0-1,0-1.52,0a15.24,15.24,0,0,0-4.8.73,16.08,16.08,0,0,1-2.22.57,6.34,6.34,0,0,1-2.1.2"/><path class="cls-2" d="M217.82,315.48a11.14,11.14,0,0,0,1.56,1.65,26.75,26.75,0,0,1,2.27,2.54A11.7,11.7,0,0,0,224,322a7.13,7.13,0,0,0,4.23,1.13,7.64,7.64,0,0,0,1.25-.11c.45-.06.87-.17,1.33-.22s.84-.06,1.24-.07a6.3,6.3,0,0,1,1.16,0,3.76,3.76,0,0,1-.77-1.79c0-.06,0-.09,0-.13a.42.42,0,0,0,0-.12c0-.19,0-.39-.06-.58a5.19,5.19,0,0,0-.51-1.83,3.86,3.86,0,0,0-1.43-1.53,5.92,5.92,0,0,0-1.85-.67c-.5-.11-1-.18-1.52-.27a15.68,15.68,0,0,0-4.85-.25,15.83,15.83,0,0,1-2.28.11,6.27,6.27,0,0,1-2.11-.23"/><path class="cls-2" d="M216,314.09a19.23,19.23,0,0,1-2.44-1.58c-.19-.14-.35-.32-.54-.49a5.89,5.89,0,0,0-.53-.48,8.71,8.71,0,0,0-4.48-1.4,9.92,9.92,0,0,0-3.63.58c-1,.37-2,.78-3.1,1.15-.25.09-.51.21-.77.29-1.59.53-3.37.93-4.93,1.5-.27.1-.53.17-.78.28a5.08,5.08,0,0,0-.7.35c-.65.33-1.46.75-1.36,1.68a1.36,1.36,0,0,0,1,1.11,12.51,12.51,0,0,0,1.46.49c.14,0,.28,0,.42.06.4.07.81.18,1.22.24l1.69.23c.6.07,1.15.12,1.71.23l.83.13c1.31.26,2.63.62,4,.85a9.91,9.91,0,0,0,3.68,0,8.68,8.68,0,0,0,4.22-2.1,6.59,6.59,0,0,0,.44-.57c.13-.19.29-.38.45-.57a16.17,16.17,0,0,1,1.87-1.7l.3-.26"/><path class="cls-2" d="M205.12,301.77a2.93,2.93,0,0,1-.71.37,14,14,0,0,1-1.73.59c-.43.12-.88.16-1.3.29a7.55,7.55,0,0,0-4.53,3.06,11.89,11.89,0,0,0-1.28,3.07,24.09,24.09,0,0,1-1.13,3.19,11.86,11.86,0,0,0-.8,2.07s.05,0,.07-.05a4.81,4.81,0,0,1,1.57-.85c.6-.26,1.25-.51,1.89-.73.34-.12.68-.2,1-.3a15.28,15.28,0,0,0,2.68-1.22c.54-.3,1.05-.63,1.59-1a14.61,14.61,0,0,0,1.53-1,4,4,0,0,0,1.57-3.34,6,6,0,0,0-.25-1.5c0-.14-.12-.29-.15-.43s0-.08,0-.13a4.79,4.79,0,0,1-.13-.54,4.58,4.58,0,0,1,.12-1.55"/><path class="cls-2" d="M193.87,317.33a10.49,10.49,0,0,0,1.18,1.93,27.36,27.36,0,0,1,1.66,3,11.35,11.35,0,0,0,1.82,2.8,7.18,7.18,0,0,0,3.88,2,8.72,8.72,0,0,0,1.25.16c.46,0,.9,0,1.34.08s.84.11,1.24.18a5.58,5.58,0,0,1,1.12.31,3.92,3.92,0,0,1-.37-1.94.69.69,0,0,0,0-.13.41.41,0,0,1,0-.11c0-.2.06-.4.07-.59a6.17,6.17,0,0,0-.1-1.9,4.11,4.11,0,0,0-1.07-1.79,5.76,5.76,0,0,0-1.68-1.05c-.46-.22-.95-.41-1.42-.61a15.25,15.25,0,0,0-4.67-1.29,15.57,15.57,0,0,1-2.27-.37,6.44,6.44,0,0,1-2-.68"/><path class="cls-3" d="M193.07,386.13A193,193,0,0,1,56.56,56.55,193.06,193.06,0,1,1,268.22,371a191.68,191.68,0,0,1-75.15,15.18m0-377.52C91.37,8.61,8.63,91.36,8.63,193.06S91.37,377.51,193.07,377.51s184.44-82.74,184.44-184.45S294.77,8.61,193.07,8.61"/><path class="cls-3" d="M66.78,194.24c0-.54,0-1.09,0-1.63A126.13,126.13,0,1,1,319,194.14l-6,0a120.1,120.1,0,0,0-240.2-1.45v1.54Z"/><path class="cls-2" d="M192.57,96.27h.31c20.88,14.17,45.8,24.56,81.47,24.81v99.26c-2.24,22.43-14.17,37.22-28.74,48.89s-32.83,20.75-52.25,27h-.31c-19.78-6.08-38.09-15.14-52.88-26.89-14.62-11.65-26.88-26.44-29.07-49V121.08c35.68-.25,60.58-10.64,81.47-24.81m-77.49,28.55V215a56.49,56.49,0,0,0,5.71,24.66c6.69,14,16.94,23.59,29.7,32.15a168.07,168.07,0,0,0,36.69,18.08c2,.73,4.59,2,6,1.95s4-1.29,5.88-1.95a148.36,148.36,0,0,0,16.5-6.87c20.75-10.37,39.6-23,49.23-43.5a57.71,57.71,0,0,0,5.57-24.67v-90c-33.64-.54-57.35-10.4-77.66-23.48-20.31,13.07-44,22.94-77.65,23.48"/><path class="cls-3" d="M265.66,128.79c-.22,28,.32,56.59,0,84.42h-146c-.43-27.27.33-57,0-84.42,31.3-.74,53.62-9.93,73-21.89C212.06,118.86,234.36,128.05,265.66,128.79Zm-17.48,43.84c.83-.54-.37-.67-.84-.89-1.74-.7-2.18-3.17-2.2-5.31.54-.44-.1-1-.55-1.27a5.31,5.31,0,0,1-3.3.33c-.24,0-.37-.19-.61-.21a7.73,7.73,0,0,0-2.3.47,6.14,6.14,0,0,0-1.14.21c-.28.15-.45.57-.81.54-.5-.59-1-1.32-1.5-2.08-.81-1.14-1.86-2-2-3.56A2.64,2.64,0,0,1,235,158c1.05-.09,1.79.83,3,.37a.77.77,0,0,0,0-.72,3.28,3.28,0,0,1-1.61-1.45c-1.8-.58-4,.13-4.6,1a5.88,5.88,0,0,0-.55,3.38,8.44,8.44,0,0,0,1.25,4.53,3.65,3.65,0,0,1,.8,1.25,4.63,4.63,0,0,1-.15,1.89,11.8,11.8,0,0,0-.35,1.83,6,6,0,0,1-.4,2c-.73,2-.73,3.82-2.46,5.08-.75-.34-1.23-.89-1.94-1.24-.27.2-.57-.88-.86-1.13-.42-.06-1.2-1-1.59-.89s-.72,0-1.16.06c-.26,0-.48.19-.75.25a34.27,34.27,0,0,1-5.09.15,18.37,18.37,0,0,0-3,.47,2.22,2.22,0,0,1-.84.12c.34-1.13-.54-2-.71-3.1-.24-1.73,1.5-3.84,3.05-4.94a12,12,0,0,1,2.21-1.18c1.4-.55,4.43-.39,4.65.88.13.79-.93.79-.86,1.28,0,.23.25.18.46.34.5,1.07,1.83.38,1.64-.68a2.38,2.38,0,0,0-1.64-3.57c.15-.26-.1-.55-.3-.74a19.41,19.41,0,0,0,1.89-2c.2-.21.46-.42.66-.66a7.45,7.45,0,0,0,1.3-4.5,6.53,6.53,0,0,0-1-2.8,5.91,5.91,0,0,0-.91-1.7,9.44,9.44,0,0,0-2.3-1.54,10.66,10.66,0,0,1-2.29-1.09c-.22-.19-.29-.46-.5-.63a3.9,3.9,0,0,0-1-.51,2.14,2.14,0,0,1-.59-.12,3.68,3.68,0,0,1-1.5-1.2c-.2-.25-.3-.55-.5-.8a23.64,23.64,0,0,1-1.75-2c-1.46-2.25-1.33-6,1.34-7.5a5,5,0,0,0,.66-.28c.18-.08.34-.27.55-.34.4-.13,1.23-.18,2-.3a13.42,13.42,0,0,1,2.2-.2c2,.09,3.45,1.2,2.25,2.58-.49-.79-1.58.5-1.45.91.19.63,1.93.81,2.8.59a2.46,2.46,0,0,0,1.7-2.09c.09-1.38-1.08-2-2.3-2.58a10.28,10.28,0,0,0-4.05-.92c-3.23-.12-5,.72-6.61,2.2a7.47,7.47,0,0,0-2.34,4.6,5.82,5.82,0,0,0,1.45,4.75,7.89,7.89,0,0,1,2.3,2.55.5.5,0,0,0-.05.83c.34.33,1.2.2,1.39.54-.27.27-.5.12-.89.16a7.27,7.27,0,0,0-2.91.82c-.81.4-1.35,1-2.09,1.41-.57.33-1.28.52-1.59.94-1.05,1.36,0,4.09,1.44,4.49,1.1.33,2.91-.15,3-.85.24-1-1.09-1-1.5-1.45a1.13,1.13,0,0,1-.18-.9,4,4,0,0,1,1.34-1.75,4.06,4.06,0,0,1,2.25-1c2.82-.31,5.21.08,6.55,1,.53.39,1.45,1.23,1.4,1.86,0,.16-.2.33-.2.49,0,.39.47.71.54,1.09a6,6,0,0,1,0,1.79,6.06,6.06,0,0,1-2.61,4.3c-.18.12-.47.15-.64.25a8.61,8.61,0,0,0-.86.73c-.31.25-.72.44-1,.65a8,8,0,0,1-.64.56c-.95.52-2,.84-2.8,1.36-2.2,1.28-3.36,3.31-4.5,5.38-.24.41-.33.91-.61,1.31-.13.19-1,.72-.84,1.06a6,6,0,0,1-.55,1.8c-.13.31,0,.62-.16.87s-.51.36-.75.54-.46.58-.75.86c-.77.43-1.63.81-2.44,1.25-.71-.24-1.31.1-1.95.06s-1.05-.6-1.66-.88a7.09,7.09,0,0,0-1.8-.41,14,14,0,0,0-2.7-.08l-.18-2.47a12.16,12.16,0,0,0,5.48-1.51,7.43,7.43,0,0,0,1.11-1,7,7,0,0,0,2-3.76,6.68,6.68,0,0,0-2.16-6.63,8,8,0,0,0-3.51-1.81l.43-1.65a6.06,6.06,0,0,0,.83.48,3.32,3.32,0,0,0,3.11-.15c.76-.43,1.3-.79,1.35-1.72-.14-.17-.45-.19-.71-.33s-.34-.41-.75-.37-.33.44-.5.69-.75.75-1,.75-.8-.37-1.1-.61-.62-.67-.86-.85-.77-.4-.94-.64c-.64-.77.4-1.18.6-1.73.13-.4-.14-.9-.14-1.37a4.61,4.61,0,0,1,.19-1.14,10,10,0,0,0,.34-1.1,3.77,3.77,0,0,0-.44-2,12,12,0,0,0-1-1.92,5.19,5.19,0,0,0-1.65-1.92c-.63,0-1.47,0-1.41-.49.06-.37,1.28-.64,1.75-.71s.94,0,1.46,0a19.24,19.24,0,0,1,2.59-.35c1.08.14.9,1.47,1.7,1.72a2.14,2.14,0,0,0,1.36-.16,1.75,1.75,0,0,0,.8-1,1.93,1.93,0,0,0-1.2-2.26,2.78,2.78,0,0,0-1.25-.3c-.35,0-.37.3-.75.43a14.57,14.57,0,0,1-1.46.11c-.48,0-1,.11-1.39.14a17.47,17.47,0,0,0-4.2.87c-.17-.12-.46-.12-.55-.28.31-.37.92-.22,1.64-.31a22.26,22.26,0,0,0,2.66-.66c1.12-.28,2.82-.36,2.41-1.3-2-.63-3.05.92-4.91,1a45.37,45.37,0,0,1-6.15-.08c-.49-.41-1.19-.25-1.87-.36-.24,0-.5-.16-.78-.18a20.88,20.88,0,0,0-3.91.16c-1.21.1-2.77.5-3-.16,1.16.3,1.34-.54,2-.58.36,0,.62.18.95.28a5.56,5.56,0,0,0,1.76.1c.42-.07.91-.37,1.45-.46.91-.16,1.84,0,2.55-.2a5.52,5.52,0,0,0,1.07-.51c.43-.3.48-.68.77-1.09a10.18,10.18,0,0,1,3.25-1.88c.62-.28,1.24-.5,1.86-.79a10.26,10.26,0,0,1,2-.82,28.82,28.82,0,0,0,5.24-1.09c.54-.13,1.11-.33,1.66-.46s1.33-.22,1.59-.68c.44-.74-.44-1.85-1.19-1.87-.46,0-1.23.68-1.75.93a10.78,10.78,0,0,1-4.65,1,28.55,28.55,0,0,1-5.3-.53,18.84,18.84,0,0,0-2.66-.32,24.32,24.32,0,0,0-6.05,1.09,16.81,16.81,0,0,0-1.89.46,4.29,4.29,0,0,0-2,1.76c-.33.49-.45,1.1-.75,1.66a13.12,13.12,0,0,1-1.75,1.84c-.25.16-1,.6-1.06.82a3,3,0,0,0-.69.28,6.5,6.5,0,0,1-1.85.19,12.85,12.85,0,0,1-3.36.28,6.37,6.37,0,0,1-.75-.26c-.85-.06-1.06.3-1.55.5a4.12,4.12,0,0,0-.59.14,1.83,1.83,0,0,1-.61.24,4.19,4.19,0,0,1-1.29-.16,5.7,5.7,0,0,1-.65-.4,7.67,7.67,0,0,0-2.4-.64,3,3,0,0,0-1.71-.05c-.22.4.25.69.46.92a5.67,5.67,0,0,0,1.2,1.43,9.87,9.87,0,0,0,2.91.17c1,0,1.83.23,2.73.16a4.16,4.16,0,0,1,.95-.13c.32.06.53.35.76.47a6.34,6.34,0,0,0,3.15.87,5.66,5.66,0,0,0,1.35-.41,8,8,0,0,1,1.34-.42c1.27-.09,1.94.5,2.95.77.37.1.83.14,1.3.24.21.06,1.16.2,1.16.41a5.21,5.21,0,0,1-.55.24,24.64,24.64,0,0,1-2.45,1.14c-.5.14-1.12.24-1.71.37a7,7,0,0,1-3,.36c-.37,0-.67-.27-.95-.28-1.19,0-1.56.51-2.39.66-.21.06-.42,0-.6.06-.69.18-1.35.81-1.15,1.49.41.65.95.63,1.65.93,1.59.77,2.85,2.23,4.6,2.64,1.28.32,3.58,0,5.05.17.62,0,1.49.21,1.64.56a2.22,2.22,0,0,1-.14,1.8c-.24.37-.83.6-.75,1.15-.29.24-.72.33-1,.55,0,.5-.08,1,.29,1.2a2,2,0,0,0,.35,0l-.2,1.25a7.17,7.17,0,0,0-1.75-.08,27.79,27.79,0,0,0-3.91.84c-1.31.33-2.6.68-3.75,1-.63.44-1.63.44-2.34.87-.45.28-.79.64-1.21.95a13.37,13.37,0,0,1-1.34.85c-1,.49-1.89,1-2.91,1.55a45.11,45.11,0,0,0-5.55,2.95,8.81,8.81,0,0,0-1.64,1.35,7.18,7.18,0,0,0-.65,1.66c-.22.59-.67,1.11-.8,1.61s0,.73-.25,1.05a2.64,2.64,0,0,1-1.66-2.07c-.13-.94.12-1.75-.19-2.4s-.92-.92-1.56-1.4a5.12,5.12,0,0,0-1.05-.73c-.24-.14-.42-.1-.64-.2a2.85,2.85,0,0,1-1.56-2.07,4.15,4.15,0,0,0-.05-.76,6.08,6.08,0,0,1-.25-.79,3.32,3.32,0,0,1,.3-1.66c.1-.17.35-.31.41-.5.2-.55-.23-1-1.05-.81-1.34.2-1.62,1.89-1.35,3.22.06.3.39.69.44,1.09a6.13,6.13,0,0,0,.25,1.78c.17.26.52.42.8.72.31.83,1.29,1.28,1.75,2a7,7,0,0,1,.36.95,5.91,5.91,0,0,0,.7.82c.23.28.43.64.64.9.51.59,1.16,1.14,1.16,2-.71-.14-.76-.77-1-1.29a5,5,0,0,0-1.11-1c-.47-.44-.84-1-1.25-1s-.55.62-.45,1.1c.68.71,1.31,1.9,2.11,2.63a4.68,4.68,0,0,0,1.25.85,4.17,4.17,0,0,1,.5,0,.7.7,0,0,0,.39-.89,2.51,2.51,0,0,1,1.21.64.83.83,0,0,1,.7.45c-.35.26-.62.62-1,.91-.26-.11-.6-.29-.91-.11-.22.65.33,1.2.61,1.75s.31.93,1,.9c.4,0,.71-.54.94-.9a7.1,7.1,0,0,0,.71-1.13c.12-.34.16-.71.29-1.09a4.6,4.6,0,0,0,.41-1c0-.18,0-.37,0-.56a3.39,3.39,0,0,1,1.09-1.53c.4-.93.86-2,1.8-2.35-1,2.07-2.53,5-2.07,8,.11.91.57,1.53.43,2.57,0,.29-.38.62-.36.88s.29.35.31.55-.24.37-.25.58c0,.37.19.55.5.8.88-.1,2.09-.58,2.3.29-.44.29-1.2.53-1.05,1.09s1.76.17,2.25.66a3,3,0,0,0-.06.47c.33.28,1.15.2,1.37.61-.66.83.21,1.3,1.38,1.35s2.91-.49,3.05.64c-.6.6-1.76-.56-2.25.14.06.51.14.86.5,1.07,1.39.72,3-1.07,4.5-.46.07.6.66.8.91,1.29-.54.28-1.79,0-2.21.31-.3.58.16,1,.21,1.5a12.51,12.51,0,0,0,0,1.5c.05.26.34.53.25.75s-.43.12-.46.32c-.43.52,0,1.07.46,1.32-.34.64.26,1,.75,1.16-1.43.15-2.43.54-3.66.26a4.14,4.14,0,0,1-1.89-1.13,7.18,7.18,0,0,0-.5-.6c-.42-.29-1.7-.57-1.95,0-.36.78.86,1.11.85,1.82,0,.31-.36.63-.35,1a1.17,1.17,0,0,0,.31.75c.94.18,2,.88,3.34.76.46,0,.79-.38,1.14-.41,1-.12,1.66.61,1.05,1.15.17.23.25.44.66.38s.49-.46.79-.69c.12-.09.34-.11.5-.23.59-.41,1.05-1.07,1.8-1.29.32-.07.44,0,.61-.07.6-.26.48-1.16,1.05-1.43.22-.09.59-.09.7-.19.64-2,.69-4.46,1.8-6.1.47-.35,1.14-.63,1.34-1.28a5.68,5.68,0,0,0,.21-1.51c0-1.06-.16-2.17-1.39-2.17-.33,0-.61.17-1,.17a7,7,0,0,1-2.7-.71c-.5-.33-.38-.88-.6-1.37a2.14,2.14,0,0,0-2.15-1.06c-.08-.11-.17-.17-.25-.28.46-.46.15-1.18-.14-1.59,1-.06.54-1.06-.46-.66-.29-.77-2.08-.38-2.81-.84.14-.43.16-.93.46-1.21.32,0,.48.07.79,0a2.94,2.94,0,0,1,1.86-.31c1.12.13,1.22.72,1.85,1.39.2.24.56.35.75.58s.13.31.27.43a4.92,4.92,0,0,0,1.52.78,14,14,0,0,0,1.71.66,21,21,0,0,1,2.15.4,10.09,10.09,0,0,0,1.51.75,28.13,28.13,0,0,0,5.93.81,10.85,10.85,0,0,0,2.66-.14c1.42-.34,2.17-1.35,3.66-1.64.94-.18,1.88,0,2.89-.22a11.45,11.45,0,0,0,2.14-1.37c.41-.28.48-.7.86-.83a4.75,4.75,0,0,1,1.76-.24,2.45,2.45,0,0,1,1.38.37c.13.33.37.5.5.79s.07.37.21.53a3.71,3.71,0,0,0,1.5.59,4.25,4.25,0,0,0,3.54-.32c.8-.56,1.41-1.12.91-1.81a2.9,2.9,0,0,1,1-.38c-.12.42-.52.67-.5,1.07s.58.81.25,1.32a7.38,7.38,0,0,1-1.7.5.45.45,0,0,0,.2.63,2.27,2.27,0,0,0,.75-.12c.54,0,1.06.1,1.55,0a6.47,6.47,0,0,0,2-.69c.42-.36.17-1.24.54-1.65.92.25.75,1.72.14,2.11-.39.25-1.19.34-.84.92a9.25,9.25,0,0,0,3.95-.41c.2.16.3.6,0,.75a4.62,4.62,0,0,1-.86.41,11.92,11.92,0,0,1-1.89,0c-.82.08-1.08,1-1.66,1.15-.41.14-.89.06-1.09.42a2.06,2.06,0,0,1-1.8,2.15c-.59.13-1.12-.07-1.66.14-.33.14-.46.61-.79.87a5.34,5.34,0,0,1-1.5.62c-.33,0-.58-.39-1-.34,0-.49.34-.66.36-1.15-.07-.11-.29-.11-.36-.26-.74.09-.84-.72-.45-.89.33.08.41.55.86.57a2.54,2.54,0,0,0,.64-.14c.64-.07,1.29.34,2,.32a2.3,2.3,0,0,0,1.66-.65c.05-.25.21-.49.15-.74s-.07-.67.25-.8.28-.35.49-.5.54-.14.61-.31c.37-.92-2-.73-2.55-1.16.14-.71-.74-1.15-1.45-.8-.3.63.2,1.35,0,1.58a1.33,1.33,0,0,1-1.41.28,1.58,1.58,0,0,0-1.19-.57c-.9.11-.31,1-1.25,1.1-.31-.21-.17-.72-.4-1-.47,0-.62-.3-1-.3s-.55.25-1,.28-.58-.08-1,0-.48.73-.89.95c-.76,0-1.29-.4-2-.22-.25.05-.34.31-.61.48s-.52.09-.8.21c-.46.92.59,1.53,1.84,1.49.25-.25.62-.15,1.07-.32s1.31-1.12,1.75-1.21.52.7.35.9-.13.43-.4.54c-.62,0-1.43.09-1.65.39a1.54,1.54,0,0,1-1.35.3c-.73.12-1.77-.08-2.36.29-1.13,1.7,2.53,1.11,4,1.31.12.17-.39.6-.79.6a35.3,35.3,0,0,0-3.71,0c-.31.08-.54.32-.84.34a4.81,4.81,0,0,1-.6-.14c-.39,0-1.89.48-2.25.55-.57.09-1.12-.12-1.61,0s-.71.65-1.34.67c-.28-.17-.45-.46-.91-.52-.21,0-.37.09-.6.09a13.46,13.46,0,0,0-2.54,0c-.38.34-.09.6-.05,1,.07.72-.58,1.32-.6,1.89a1.05,1.05,0,0,0,.85,1.07c.81.07,1.18-.68,1.74-.78.32-.07.69.07,1,0s.69-.48,1.07-.72.43-.1.3.36a.85.85,0,0,0,.5.84,6.48,6.48,0,0,0,3.3,0c.63.46,1.5-.12,1.7,0,1.14.7,2.17-.46,2.85-.49.32,0,.65.29,1,.32a3.46,3.46,0,0,0,.75-.25,11,11,0,0,0,1.15-.15c.52-.18.73-.52.8-.16.17.94,3,.36,3.05-.46,0-.1,0,0,1.39-.19a1.8,1.8,0,0,0,.85-.65c-.06.19-.12.94.65.94.24,0,.52-.41.7-.52.45-.3,1.49-.6,1.71-1.08.32-.71.45-.43.65-.19a1.11,1.11,0,0,0,1.35-.25c-.08-.77.74-1.42,1-1.16.93.32,1.87,0,2-.72,1.17-.41,2.5-1.71,1.34-2.81.26-.25.65-.14,1-.14,3.22-.22,6-1.26,9.45-1.12a26.79,26.79,0,0,1,3.94.29c.4.08.7.26,1,.34a8.05,8.05,0,0,0,4.7-.51,8.13,8.13,0,0,0,2.16-1c1.06-.8.92-2,1-3.48.07-.78.58-1.19.64-2a22.88,22.88,0,0,1,.5-4.3,6.66,6.66,0,0,1,.45-.83,5.59,5.59,0,0,0,.46-1.38,6.28,6.28,0,0,1,.4-1.47,3.78,3.78,0,0,1,.55-1.41c.51-.51,2.31-.71,3.7-.61a4.58,4.58,0,0,1,1.31.23c.16.16,0,.45.13.64.23.52.7.79.75,1.41.08.78-.45,1-.5,1.67a4,4,0,0,0,.91.86C245.27,172.83,247.39,173.17,248.18,172.63Zm-18.94,17c0-1-.7-1-1.55-1.39a1.86,1.86,0,0,0-1.2-.28c-.37.28-.24,1-.55,1.29.47.65,1.72,1,1.3,2.11-.33.77-2.28,1.42-3.46,1.79a15.05,15.05,0,0,1-2.13.6c-.8.12-1.59.17-2.46.34-.51.1-1,.32-1.45.41a19.28,19.28,0,0,1-7.1.55c-.15-.06-.21-.21-.41-.26s-.55.11-.64-.12c.13-.31.5-.43.44-.89a2,2,0,0,0-1.64,0c-.5.22-.91.68-1.35.8-.43.39-.56,1.14-1.15,1.29-1.09.26-2-.63-3.1-.54.1-.36.47-.51.85-.67a4.54,4.54,0,0,1,1.34-1.19c.82-.39,1.9-.48,2.86-.9a5.08,5.08,0,0,0,1.21-.61,9.19,9.19,0,0,1,1-.76c.25-.15.59-.25.9-.45.16-.12.31-.3.49-.42.5-.34.66-.46.25-.85a3.86,3.86,0,0,0-3.45,1c-.18.17-.31.46-.55.62a5.42,5.42,0,0,1-.94.31,8.82,8.82,0,0,0-.9.4,2.49,2.49,0,0,0-.74.14c-.56.27-.75,1.07-1.56,1.07a1,1,0,0,0-1.12,0,9.48,9.48,0,0,0-1.29,1.47c-.12.2-.06.53-.39.53-.16-.36.18-.59.25-.91.56-.12.87-.71.3-1a10.75,10.75,0,0,0-2.35.08c-.18.18-.29.41-.45.58-.71.14-1,.63-1.54.92-.13.66.51.72.68,1.16a1.26,1.26,0,0,1,.75.23c-.3,0-.63,0-.75.13-.05.58.82.56,1.31.65a4.5,4.5,0,0,1,1.44.58,4.14,4.14,0,0,0,1.46.1c.24-.17.84-.37.5-.75a4,4,0,0,0-1.1-.09c-.24,0-.29-.25-.61-.33s-1,.11-1.2-.23c.29-.18.61,0,.91-.08s.31-.16.5-.19a3.13,3.13,0,0,1,2,.46,4.32,4.32,0,0,1,1.75,1.07c.17.29.08.58.14.93.2,1.08.78,2.55.2,3.49,0,.17.08.22,0,.37-.56.8-2,.85-2.64,1.64a.82.82,0,0,0-.76.68c.23.22,1,.12,1.26,0-.49.24-.75.65-1.61.61-.19-.58-1.27-.83-1.94-.34a1.46,1.46,0,0,0-1-.15c.38-.43-.24-1.18-.65-1.4s-.88-.18-1-.48.41-.48.49-.73a.6.6,0,0,0-.2-.68c-1-.19-1.63.24-1.64.93,0,.3.26.67.2.93s-.48.42-.5.66.3.52.39.72a7,7,0,0,0,1.86.11c-.32.27-1.39.75-.65,1.27a2.53,2.53,0,0,0,.79-.21,7.71,7.71,0,0,0,1.66.58c-.46.36-1.71.16-1.5.92a.63.63,0,0,0,.35.33,16.53,16.53,0,0,0,1.91-.07c.2,0,.38-.14.54-.14s.39.12.59.14c1.07,0,2.12-.56,2.11-1,0-.23-.23-.18-.4-.5a17.36,17.36,0,0,0,2.59-.92c.41-.17.87-.27,1.16-.4a7.35,7.35,0,0,0,1.75-1.82,5.61,5.61,0,0,0,1.09-1.21v-.29c.2-.16.41-.25.3-.47s-.73-.11-.59-.45c.57-.25,1.13-.32,1.66-.54,1-.49,1.83-1.13,2.68-1.62a13.09,13.09,0,0,1,2.61-.75,16.17,16.17,0,0,1,3.14-.48,8.5,8.5,0,0,0,4.11-1.12,19,19,0,0,0,4.8-3.65A4.66,4.66,0,0,0,229.24,189.66Zm-27.1,18.91c.4-.67-.85-.56-1.14-.92-1,0-2.8.63-2,1.28A24.73,24.73,0,0,0,202.14,208.57Zm-6.8-25.13c.37,0,1.44-.76,1.4-1s-.41-.25-.56-.25a6,6,0,0,0-2.14.46C193.54,183.21,194.71,183.55,195.34,183.44Zm-3.5,2.38c.55-.17,1.19-.27.9-.83a1,1,0,0,0-.65-.14c-.88-.38-1-1.35-1.66-1.85-.9,0-1.77-.29-1.89.35,0,.37.36.61.55.92a.8.8,0,0,0-.25.58,4.25,4.25,0,0,0-.8.39,2,2,0,0,0,0,.7c.18.23.64.23.55.65-.78.36-1.64.68-2.35,1.09v.73c.3.27.61.15,1.21.19a2.74,2.74,0,0,0,.59.13,6.83,6.83,0,0,0,1.89-.34,3.46,3.46,0,0,0,1.46-.44c.09-.75-.39-1-.71-1.43.2-.08.15-.32.3-.43C191.41,186.17,191.54,185.92,191.84,185.82Zm-5.05.58c0-.2.09-.29.09-.46-.3-.46-1.25-.41-2.09-.46a1.4,1.4,0,0,0-.6-.24c-.1-.05,0-.25-.11-.31.37,0,.49-.28.8-.34.64.19,1.6-.07,1.66-.44.09-.6-1.09-.43-1.6-.65-.35-.15-.48-.47-.86-.39a.34.34,0,0,0-.29.39.92.92,0,0,0-.46.19,3.83,3.83,0,0,0,.11,1.3c-.5.18-.77.49-1.45.49-.13.17-.3.2-.36.37-.22.93,1.15,1.1,2.2,1.09.44,0,.79-.18,1.21-.22C185.78,186.64,186.53,186.78,186.79,186.4Zm-1.85,1.65c0-.32-.29-.44-.61-.63-.66.11-1.08-.24-1.59-.15s-.84.58-1.2.78a2.54,2.54,0,0,0,0,.83,3,3,0,0,0,2.36,0c.13-.08.21-.22.35-.32C184.62,188.34,184.91,188.3,184.94,188.05ZM182.19,184c0-.29-.36-.52-.61-.58-.88-.14-1.08.33-1.59.58-.28.09-.47.07-.6.21a.74.74,0,0,0,.1.74c.5.21,1,0,1.55-.08C181.29,184.47,182.17,184.44,182.19,184Zm-2.36,3.29c.87.08,1.34-.55,1.16-1s-1.37-.71-2.3-.46a.59.59,0,0,0-.5.38c-.13.6.67.68,1.1.83C179.54,187.1,179.66,187.23,179.83,187.27Zm-.94,2.28c1.26.1,1.8-.37,1.75-1.28-.24-.3-1.71-1-2.06-.62A1.24,1.24,0,0,0,178.89,189.55Zm1.14,1.86c.42-.75-.87-1.64-1.75-1.55,0,0-.05,0,0,0a1,1,0,0,0,.34,2C179,191.89,179.87,191.7,180,191.41ZM148.63,168c.84-.65-.26-1-.79-1.54a5.39,5.39,0,0,1-.75-1.15c-.14-.24-.38-.38-.46-.62s0-.51,0-.7c-.25-.63-1.37-.88-1.4-1.55,0-.43.38-.7-.2-1.07-.48-.07-1.07,0-1.25.2a4,4,0,0,0,0,1.83,4.89,4.89,0,0,0,.65.89,14.86,14.86,0,0,0,2.05,2.7,7.68,7.68,0,0,1,1.14,1A2.41,2.41,0,0,0,148.63,168Z"/><path class="cls-3" d="M227.38,177c.41.11.5.46.75.74a1.84,1.84,0,0,1-1.75.58,7.67,7.67,0,0,0-.75-.22c-.42-.07-.9.06-1.35,0a1.63,1.63,0,0,1-1.14-.63,16.62,16.62,0,0,1,2.67-.21C226.38,177.14,226.75,176.81,227.38,177Z"/><path class="cls-3" d="M198.43,187.09c.33-.25,2.08-.11,2,.26-.22.6-2.08.5-1.85,1.66,0,.15.23.15.25.46-.41.13-.48.51-.86.65a1.42,1.42,0,0,1-.39-.19c-.09-.36.35-.53.35-.79S198.58,187.38,198.43,187.09Z"/><path class="cls-3" d="M199.6,158l-.43,1.65s0,0,0,0a21.94,21.94,0,0,0-3.85-.1,11.46,11.46,0,0,0-3.89.93,13.12,13.12,0,0,0-3,1.63,8.33,8.33,0,0,0-2.7,6.16,5,5,0,0,0,2.7,4.38,13.68,13.68,0,0,0,7.81,1.71l.18,2.47a2.33,2.33,0,0,0-.59.14,7,7,0,0,0-1.64,1c-.35.28-.53.72-1,.86-.27.1-.6,0-.89.1-.68.09-1.37.31-2,.36-.38,0-.66,0-.9,0-1.75.19-2.56,1-4.21,1-1.46,0-1.94-.58-3.14-1.23a9.9,9.9,0,0,0-1.41-.54,13.09,13.09,0,0,0-1.43-.52,3.23,3.23,0,0,1-.66-.07c-.42-.12-.77-.73-1.6-.58-.6-.35-1.62-1.31-1.45-2.06.08-.36.54-.44.84-.77.53-.55.51-1.29.8-1.87.15-.29.86-.46,1.11-.89a3.05,3.05,0,0,0,.14-.7c.06-.19.21-.37.25-.53s0-.47.06-.69c.09-.37.63-.82.65-1.14s-.64-.69-.5-1.19c-.23-.17-.59-.13-.76-.33a1.39,1.39,0,0,1,0-1,5.7,5.7,0,0,1,.75-.89c.2-.27.41-.82.7-1s.63,0,1.09,0a2.37,2.37,0,0,0,1.3-.51c-.06-.68.86-.63,1.36-.87a1.28,1.28,0,0,0-.06-.47,4.34,4.34,0,0,0-1-.21c-.64.05-.84.6-1.25.87-1.08-.59.53-1,.8-1.36.35,0,.43-.18.66-.25-.06-.51.21-.77.79-.8a.61.61,0,0,0-.14.53c.63.88,2.67-.1,2.05-.86.71.15.45-.54,1-.56.26,0,.5.42.84.47.63.09,1.2-.28,2-.2.12-.31.66-.31.65-.66s-.22-.34-.5-.36v-.19c1.08,0,1.26-.7,1.93-1,.71,0,1.45-.06,1.46-.67.08.25.63.3,1,.2.15-.07.2-.25.25-.42.34-.45,1.76-.36,1.84-.94s-.71-.73-1.3-.36c-.54-.35.19-1.62-.33-2a1.19,1.19,0,0,1,.63.54c.23.43.11,1,.66,1.17,1.19.22,1.59-1,1.75-1.82,1.25.18.65,1.5.9,2.38A4.77,4.77,0,0,0,199.6,158ZM183.48,178.1c.09-.14.31-.17.35-.35-.34-.73-1.63-.56-2.25-.84a7,7,0,0,1-1.08-.64c-.26-.17-.14-.36-.26-.68s-.49-.61-.7-1c-.3-.53-.6-1.36-1.3-.79a1.73,1.73,0,0,0,.15,1.25,3.58,3.58,0,0,0,.14.64,6.1,6.1,0,0,0,1.16,1.07A5.54,5.54,0,0,0,183.48,178.1Z"/><path class="cls-3" d="M198.29,150.26a1.93,1.93,0,0,1-.8,1.76,1.43,1.43,0,0,1-2.36-1.44c-.13-.13-.41-.13-.7-.13a1.57,1.57,0,0,0-.43,1.29c-.59.32-1.26.69-.87,1.54a3.49,3.49,0,0,0,.58.29.75.75,0,0,0-.28,0c-.35,0-.6.42-.79.75s-.52.57-.71.83c-.39.56-.18,1.16-.19,1.63-.73,0-.9-.34-.86-.66s.27-.27.46-.54.17-.46.29-.62.62-.48.71-.71c.3-.68-.6-.92-1.21-.65-.67.89-1.51,1.65-2.14,2.55-.23,0-.27.1-.4.17-.42.67-1.3,2.08,0,2.53l.36,0V159c-.33,0-.77,0-1.15,0,0-.51-.76-1-.39-1.67.14-.26.59-.36.59-.66,0-.51-.92-.64-1.25-.28a1.72,1.72,0,0,0-.11.46,2.22,2.22,0,0,1-1.09.6.88.88,0,0,0-1.25.62c-.45,0-.58-.25-.91-.33a11.62,11.62,0,0,0-1.59-.27l-.85-.13.2-1.25a2.93,2.93,0,0,0,1.65-1,6.35,6.35,0,0,0,1-1.15,3.69,3.69,0,0,0-.55-4c-1-.23-1.64-.5-2.71-.71-1.43-.3-2.84-.56-4.45-.81-.72-.11-1.61-.28-1.69-.78-.17-1.08,1.51-1.19,2.6-1.4l1.95-.37c1.31-.28,2.68-.38,3.94-.7,1-.28,2.32-.66,3.56-1a11.31,11.31,0,0,1,3.86-.79c.17,0,.35.1.54.12a12.18,12.18,0,0,0,1.54-.07c0,.38-.34.55-.29.86s.46.31.4.65a1.84,1.84,0,0,1,1,2c-.12.75-.53,1.29-.4,1.92s.78,1,1.63,1.09a4.24,4.24,0,0,0,.77-.35c.09.43.07.93.44,1.14A5.19,5.19,0,0,0,198.29,150.26Z"/><path class="cls-3" d="M189.63,132.89a38.65,38.65,0,0,1,6.5.28,29.5,29.5,0,0,0-7,3,16.57,16.57,0,0,1-2.8,1.65,2.61,2.61,0,0,1-1.29.25c-.42-.09-.47-.55-.64-.82s-.61-.45-.66-.64a2,2,0,0,1,.25-1.1c.08-.14.25-.32.34-.47s.19-.45.25-.54a3.76,3.76,0,0,1,1.46-1.06A10.3,10.3,0,0,1,189.63,132.89Z"/><path class="cls-3" d="M179.54,139.32c.14.32.25.36.2.46a1.21,1.21,0,0,1-.2.25,1.68,1.68,0,0,1-.85.53c-.82.18-1.17-.17-1.8-.28s-1.56.22-1.75-.25a5.77,5.77,0,0,1,2.39-.71,2.09,2.09,0,0,0,.45-.44c.46.05,1-.16,1.41-.07C179.54,139,179.45,139.11,179.54,139.32Z"/><path class="cls-3" d="M175.39,166.63c-.33.33-.92.05-1.45.15a2.35,2.35,0,0,1-.66.46c-.27,0-.23-.21-.54-.28s-.58,0-.8,0-.43-.28-.55-.49c.37-.34,1.13-.18,1.75-.22C174,166.13,175.15,165.75,175.39,166.63Z"/><path class="cls-3" d="M172.78,169.85c.63.28.4,1.28,0,1.57v.47a1.36,1.36,0,0,1-1.35-1.81A2.3,2.3,0,0,1,172.78,169.85Z"/><path class="cls-3" d="M170.19,173.37c1.28.14,2,2,1,2.72-.89-.15-.7-1.13-1.21-1.61A10.46,10.46,0,0,0,170.19,173.37Z"/><path class="cls-4" d="M261.77,233.21a54.38,54.38,0,0,0,3.81-18.4H119.69a55.9,55.9,0,0,0,3.84,18.4Z"/><path class="cls-4" d="M162.18,273.32c3.12,1.72,6.34,3.34,9.64,4.91,6.46,3,13.85,6.79,21.15,8.53,1,.26,4.24-1.37,5.72-1.94a164.1,164.1,0,0,0,15.43-6.59q4.69-2.37,9.16-4.91Z"/><path class="cls-4" d="M189,247.19a2.57,2.57,0,0,0-1.12.28,4.24,4.24,0,0,0-1.08.81,6.82,6.82,0,0,0-1.22,1.92,4.78,4.78,0,0,0-.53,1.89.93.93,0,0,0,1,1,2.51,2.51,0,0,0,1.15-.34,4.24,4.24,0,0,0,1.15-.85,7.85,7.85,0,0,0,1.27-1.91,4.47,4.47,0,0,0,.51-1.82.93.93,0,0,0-.29-.76A1.27,1.27,0,0,0,189,247.19Zm-65-12.74c.37.93.78,1.85,1.21,2.73a66.9,66.9,0,0,0,10.09,15.44h34.08v1.18h-33c6.64,7.31,14.76,13.21,23.73,18.33h65.27c8.89-5.2,16.93-11.08,23.54-18.31H216.28v-1.25h33.77a65.26,65.26,0,0,0,10.18-15.69c.37-.79.72-1.6,1.07-2.43Zm51.25,24.4-4,.32q2.17-2.78,4.2-5.47c1.34-1.79,2.63-3.56,3.86-5.29q-3.3,2.84-6.05,4.83a13.54,13.54,0,0,1-3.15,2,.32.32,0,0,1-.17,0s0,0-.05-.1a9.84,9.84,0,0,1,2-1.56q2-1.39,3.84-2.85c1.05-.82,2.13-1.69,3.23-2.61a14.85,14.85,0,0,1,1.76-1.38.1.1,0,0,1,.09.07.3.3,0,0,1,0,.18,15.42,15.42,0,0,1-1.58,4.49A67.11,67.11,0,0,1,175.28,258.85Zm12.94-2a12.6,12.6,0,0,1-2.76,1.68,6.6,6.6,0,0,1-2.56.6,3.09,3.09,0,0,1-2-.62,1.85,1.85,0,0,1-.8-1.52,1.52,1.52,0,0,1,.4-1.06,1.27,1.27,0,0,1,1-.43,1.18,1.18,0,0,1,.82.32,1,1,0,0,1,.37.74,1.17,1.17,0,0,1-.51,1c-.33.25-.5.43-.5.55a.51.51,0,0,0,.3.43,1.45,1.45,0,0,0,.76.18,4,4,0,0,0,2.92-1.47,16.89,16.89,0,0,0,2.76-4.65,6.92,6.92,0,0,1-1.54.94,3.51,3.51,0,0,1-1.38.28,2.59,2.59,0,0,1-1.9-.68,2.46,2.46,0,0,1-.7-1.85,4,4,0,0,1,1.82-3.18,6.52,6.52,0,0,1,4.11-1.41,3.18,3.18,0,0,1,2.42,1,3.58,3.58,0,0,1,.92,2.57,6.61,6.61,0,0,1-1,3.39A12.44,12.44,0,0,1,188.22,256.89Zm8.9-4.91a6.37,6.37,0,0,1,1.36-.15,3.59,3.59,0,0,1,2.47.86,2.78,2.78,0,0,1,1,2.2,3.67,3.67,0,0,1-1.74,3.09,7.63,7.63,0,0,1-4.46,1.22,4.79,4.79,0,0,1-2.72-.69,2.09,2.09,0,0,1-1-1.78,1.57,1.57,0,0,1,.41-1.09,1.27,1.27,0,0,1,1-.46,1,1,0,0,1,.8.36,1.41,1.41,0,0,1,.31,1,.92.92,0,0,1-.68.92c-.45.17-.68.29-.68.35s.2.36.58.52a3.71,3.71,0,0,0,1.41.24,4,4,0,0,0,3-1.51,4.8,4.8,0,0,0,1.35-3.27,1.39,1.39,0,0,0-.41-1.07,1.67,1.67,0,0,0-1.18-.37,5.12,5.12,0,0,0-3.08,1.1,1.21,1.21,0,0,1-.27.17.28.28,0,0,1-.21-.07.25.25,0,0,1-.07-.19c0-.15.14-.32.44-.52a4.13,4.13,0,0,0,.46-.36l3-5.56a15,15,0,0,0,1.6.3,12.63,12.63,0,0,0,1.63.1,7.46,7.46,0,0,0,1.43-.13,10.06,10.06,0,0,0,1.6-.44,4.16,4.16,0,0,1-1.73,1.93,5.54,5.54,0,0,1-2.79.68,6.72,6.72,0,0,1-1.18-.1,7.2,7.2,0,0,1-1.15-.31l-1.79,3.5A9.08,9.08,0,0,1,197.12,252Zm17-.15a7.42,7.42,0,0,1-2.57,1.72l-1.6.67a20.22,20.22,0,0,0-4.7,2.48,4.9,4.9,0,0,1,.91-.31,3.93,3.93,0,0,1,.92-.1,6.17,6.17,0,0,1,2.54.62,6.77,6.77,0,0,0,1.65.63,1.68,1.68,0,0,0,1.18-.73c.41-.49.67-.73.78-.73a.17.17,0,0,1,.1,0s0,0,0,.08q0,.62-1.44,1.8a3.79,3.79,0,0,1-5,.44,4.3,4.3,0,0,0-1.75-.75,1.45,1.45,0,0,0-1.15.72q-.51.72-.6.72a.25.25,0,0,1-.16-.05.14.14,0,0,1-.06-.11,2.18,2.18,0,0,1,.17-.58,4.27,4.27,0,0,1,.4-.8,9.9,9.9,0,0,1,2.86-2.51l.69-.46a17.92,17.92,0,0,0,3.82-3.24,4.54,4.54,0,0,0,1.13-2.88,1.23,1.23,0,0,0-.34-.94,1.37,1.37,0,0,0-1-.33,3.68,3.68,0,0,0-1.35.3,5.62,5.62,0,0,0-1.44.84,6.43,6.43,0,0,0-1.38,1.43,2.5,2.5,0,0,0-.55,1.31.82.82,0,0,0,.15.55.53.53,0,0,0,.45.18,2.3,2.3,0,0,0,1.73-1.11,7.29,7.29,0,0,1,.92-1.12.17.17,0,0,1,.14.08.42.42,0,0,1,.05.2q0,.42-1,1.44a2.72,2.72,0,0,1-1.91,1,1.11,1.11,0,0,1-.85-.29,1.13,1.13,0,0,1-.28-.85,4.09,4.09,0,0,1,1.78-3,6,6,0,0,1,3.95-1.51,4,4,0,0,1,2.62.82,2.67,2.67,0,0,1,1,2.15A3.16,3.16,0,0,1,214.13,251.83Z"/><path class="cls-1" d="M161.92,23.69a.31.31,0,0,1,.19,0,4.23,4.23,0,0,0,1,.53.76.76,0,0,1,.17.23,6.25,6.25,0,0,1,.19,2.3c-.26,1.15-1.75,2-1.86,3.29a5.09,5.09,0,0,0,.14.7c.06,1.11-.53,2.44.05,3.7.18.38.74.61,1,1.19s.14,1.1.7,1.35c1.48-.3.37-2.21,1.42-2.72.3-.15.62.06,1,0,1-.13,2.17-.91,3.08-.84s1.2.66,1.86,1.46c.21.26.66.39.86.64a5.21,5.21,0,0,1,.89,4.27c-.07.19-.29.34-.37.55s0,.67-.15,1-.3.6-.34.85c-.26,1.72,1.11,3.12,1.25,5.2-.07.21-.44.26-.64.38a.39.39,0,0,0-.06.13c0,.37,0,.76-.05,1.13a.4.4,0,0,1-.11.19c-.75.3-1.3,1.06-2,1.09s-.81-1-1.56-1c0,0-.09-.08-.1-.12-.37-1.16-1.9-.93-1.78.28.47.52.25,1.14.37,1.75s.72,1.3.74,2c0,.54-.31,1-.36,1.52a6,6,0,0,0,.32,2.58c.21.55.74,1,.71,1.94a.64.64,0,0,0,.1.26c.63.57.64,2,1,3.2.2.66,1,1.85,0,2a.6.6,0,0,1-.63-.53.63.63,0,0,0-.17-.23c-.45-.25-.65-.7-1-1.08s-.73-.36-1-.66-.26-.51-.46-.76c-.46-.61-1.18-1.09-1.45-1.65-.14-.31-.18-.75-.32-1.09a16.88,16.88,0,0,1-.94-2.4c-.07-.49.05-1,0-1.49s-.24-.76-.3-1.18c-.17-1.27,0-2.88-1.07-3.39A4,4,0,0,0,160.74,53s-.1.12-.14.12c-.75,0-1.48-.83-1.92-1.4a7.92,7.92,0,0,1-.87-1.67,10.81,10.81,0,0,1-.81-4c.11-.84,1.24-1.65,1.44-2.66a13.66,13.66,0,0,0,0-2.16c0-.67.22-1.41.22-2.07,0-.48-.23-1-.23-1.49s.23-.92.22-1.33-.18-.56-.18-.84a16.08,16.08,0,0,1,.32-1.95c.07-.71-.05-1.42,0-2.06s.44-1.45-.33-2.15c-.91.16-.81,1.48-1.78,2-.18.09-.45,0-.62.17-.59.46-.56,1.66-1.45,1.62-.5,0-.57-.51-1-.82-.26-.07-.7.17-1,.23-.55.74-.1,1.5-.14,2.35-.07,1.45-1,2.77.09,4.57.21.35.62.57.88.94a18.42,18.42,0,0,1,1.43,3.06,13.28,13.28,0,0,1,.36,4.79c0,.66,0,1.33-.07,2A5.49,5.49,0,0,0,155,53a4.63,4.63,0,0,1-1.17,2.05.33.33,0,0,1-.29,0c-.64-.85-1.5-1.31-2.05-2.34-.77.46-1.05,1.2-1.65,1.74a.45.45,0,0,1-.31.06c-.35-.21-.35-.63-.62-1s-.88-.63-1.14-1.07c-.57-.95-.6-2.27-1.17-3.22-.22-.34-.69-.54-.85-.86-.67-1.26.16-2.38.29-3.28.17-1.23-.41-2.85-.61-4.28,0-.05.05-.14.09-.14.64,0,1.19.68,1.64,1.19a10,10,0,0,1,1.44,1.81c1,2,.77,4.83,2.38,5.77a.39.39,0,0,0,.28,0,3.7,3.7,0,0,0,.51-1.78,9.38,9.38,0,0,0,.19-2.65c.7-1.12-.32-3.49-.87-5.17a6.13,6.13,0,0,1-.46-2.31c.07-.41.57-.6.79-1.06.44-.9-.12-2.1-.06-3.18.08-.79.47-1.39.54-2.11a.36.36,0,0,1,.12-.18A5.45,5.45,0,0,0,154,28.34a1.45,1.45,0,0,1,.23-.19c.94-.46,1.74-1.74,2.83-2.38.35-.2.76-.26,1-.44a5.25,5.25,0,0,0,1.1-1.81c.53-1.16,1.82.69,2.82.17M167.5,39.6c-1,.81-1.34,2.49-2.14,3.61a15.88,15.88,0,0,0,1.37,3.71.41.41,0,0,0,.14.1c.93.1,1-.57,1.37-.88.18-.13.42-.12.53-.23s.22-.54.33-.74a.89.89,0,0,0,0-.33c-.44-1.62-.46-3.51-.91-5.07a1.17,1.17,0,0,0-.71-.17"/><path class="cls-1" d="M319.8,96.9c-.25,1.19.28,2.77-1.16,3.47a3.69,3.69,0,0,1-2.76-.41,18.71,18.71,0,0,1-2.71-2.59c-.61-.55-1.39-.72-1.63-1.37a10.47,10.47,0,0,0-3.15-.17c-1,.23-1.91,1-2.91.66a10.11,10.11,0,0,1-3.07,1c-.55,0-1.21-.28-1.89-.31a6.48,6.48,0,0,1-1.24,0A9.31,9.31,0,0,1,295,94.69c-1.24-1-2.88-2.07-2.95-4.16a13.22,13.22,0,0,1,3.58-.16,14.12,14.12,0,0,0,7.6,2.81c1.3-.19,3.72-1.08,3.16-2.51a7,7,0,0,0-2.29-2c-.38-.21-.93-.15-1.3-.37-1.48-.9-.85-2.67-1.47-3.8.28-.69.08-2,1-2,1.29-.06,2.26,2.3,3.59,3.77.61.66,2,1.46,2.52,2,1,1,1.66,2,2.63,2.28a21.43,21.43,0,0,0,8.39-3.2c.44-.32.75-.85,1.19-1.18a19.89,19.89,0,0,1,1.85-.81c1.23-.69,2.14-1.87,3.34-1.75a.5.5,0,0,1,.25.13,8.75,8.75,0,0,1-.23,2.64c0,.41.3.9.08,1.3-.48,1-3.18,2-4.58,2.55-1.79.77-3.39,1.19-4.58,1.76-1.47.71-2.37,1.84-1.63,3.12a4.44,4.44,0,0,0,2.14,1.5,5.37,5.37,0,0,0,2.49.4"/><path class="cls-1" d="M305.15,100.46c1.72,2.86,3.6,6.27,2.6,8.84-.45,1.15-1.92,2.59-3.52,2.38-.7-1.72.19-3.88.27-5.72a9.1,9.1,0,0,1-.07-2.2c.29-1,1.13-1.94.59-3.05a.21.21,0,0,1,.13-.25"/><path class="cls-1" d="M358.33,146.07a11.57,11.57,0,0,1,2.42,4.57c.31.37.45.94.82,1.22a14.2,14.2,0,0,0,.86,3.78c.09.31.33.57.37.84.06.5-.37,1.09-.52,1.82s-.2,1.47-.86,1.65-.72-.33-1.32-.23c-.31-.45-.84-.55-1.28-.84-.74-.51-1.2-1.34-2-1.77a4.55,4.55,0,0,1-2.38-2.09,5.13,5.13,0,0,1-1.78-1.58c-.58-.71-1.29-.82-2-1.24-.55-.33-1-1.12-1.78-.44,0,0-.06.16,0,.2.27.55.9,1,1.13,1.56a6.47,6.47,0,0,1,.15.88c.29.83,1.07,1.38,1.23,2.35a4.73,4.73,0,0,0,0,.67c.16.46.6.77.87,1.14a.84.84,0,0,1,.06.37c-.22.79-.28,1.69-.47,2.5a.91.91,0,0,1-.22.32,7.84,7.84,0,0,0-1.33,1,1.74,1.74,0,0,1-.35.19c-.83.14-1.65.29-2.49.42a.74.74,0,0,1-.36-.08,16.86,16.86,0,0,0-1.13-1.81,1,1,0,0,0-.29-.11c-1.76-.07-2.31-1.83-2.95-3.46-1.43-1.51-2.95.78-4.46.82-1.08,0-1.53-1.52-2.94-.93-.09.47.51.78.67,1.32a7.84,7.84,0,0,1-.28,2.91c-.17.87-.46,2.45-1.55,2.37-.4,0-.55-.51-.93-1s-.75-.81-.95-1.12a8.68,8.68,0,0,1-.33-1.15c-.26-.57-.82-.94-1-1.66a6.18,6.18,0,0,1-4.37.45,3.54,3.54,0,0,1-2.6-2.43c-.1-.49.14-1.11.09-1.75s-.31-1.14-.36-1.67a3.43,3.43,0,0,1,1-3.12.29.29,0,0,1,.27.09c.25.4.8.8,1,1.22.51,1.17.26,2.16,1,2.93s1.47.52,2.74.67c-.36-1.67-1.92-2.78-2.24-4.38-.47-2.35,2.66-2.94,4-1.57.13.32,0,.48,0,.75.16.33.39.57.54.89.28.65.26,1.41.49,2,.37,1,1.29,1.68,1.7,2.57a5.55,5.55,0,0,0,2.15-.73c.27-.18.42-.47.64-.64.45-.32,1.08-.35,1.12-.94.07-.93-1-1.42-1.35-2.26.35-1.09,2.43-.64,2.88.12s.16,1.7.62,2.23c.71.9,2.41-.46,3,.55a8.39,8.39,0,0,0,1.3,3.25A4,4,0,0,0,347,160c.68.27,1,.45,1.69.16.53-.36.06-1,0-1.51s.22-.79.08-1.28-.53-.58-.76-1c-.37-.72-.3-1.6-.56-2a1.55,1.55,0,0,0-1.4-.66.35.35,0,0,1-.21-.07c-.69-1-1.42-.8-1.54-2.28a4.56,4.56,0,0,0,0-.76,5.73,5.73,0,0,0-1.92-1.56c-.75-.24-1.69.05-2.52-.17-.63-.19-1.52-.59-1.62-1.17s.53-.92.6-1.31c-.45-1-1.89-.6-2.3-1.67a.51.51,0,0,1,.11-.33,4.32,4.32,0,0,1,3.73-.44c.69.32,1.14,1.49,1.79,2,.45.39,1.22.71,1.83,1.13a12.78,12.78,0,0,0,2.49,1.5,2.18,2.18,0,0,1,.31.3c.46.68,1.35.59,2.05,1,.35.2.75.55,1.18.78s1,.44,1.26.62.32.49.54.65a9.26,9.26,0,0,0,2.52,1c1.8.66,3.25,2,5,2.63.33-.13.32-.5.47-.76-.23-.56-.8-.63-.78-1.53-.2-.33-.58-.38-.87-.6,0-.66-.18-.91-.68-1-.61.41-.6,1.46-1.71,1a3.38,3.38,0,0,1-1.28-2.2c0-.83,1.41-2,2-2.69.1-.11.68-.54.45-.89-.41-.6-2.08.23-2.31-.75-.07-.29.16-.4.38-.89a22.06,22.06,0,0,0,5.87-3.62,2.47,2.47,0,0,1,.57,1.64c-.09,1.45-2.45,1.85-3.22,2.79"/><path class="cls-1" d="M34.58,154.92a2.72,2.72,0,0,0,.56,2.31,1.3,1.3,0,0,0,.1.15s0,.08,0,.09l0,.05a1,1,0,0,0-.14.18c-.34.64.9,1.08.37,1.93l-.08,0c-1-.07-2-1.17-2.67-1.86-1.39-.45-2.22-1.3-3.58-1.74a13.19,13.19,0,0,1-2.17-.43A2,2,0,0,1,26,153a11.72,11.72,0,0,1,2.4-1.88c1.23-.86,3-2.18,4.56-2.1a5.3,5.3,0,0,1,2.19.76,4.3,4.3,0,0,1,1,2.18,19.59,19.59,0,0,1-.7,2.6c-.24.17-.62.14-.82.38"/><path class="cls-1" d="M37.31,159.54a13.49,13.49,0,0,0,6.37.54c1.13-.18,2.31-.83,3.19-.78,1.23,0,2.13,1,3.35,1.35.47.11.88,0,1.27.13.58.17,1.12.56,1.7.73,1.24.37,2.53.53,4,.85.7-1.42.12-2.45-.2-3.7a9.43,9.43,0,0,0-.79-2.47c-.45-.78-1.36-1.23-1.3-2.34-.94-1.14-2.42-2.28-2.37-3.81.7-.16,1,.57,1.43.91a21.69,21.69,0,0,0,2.88,1.48c.2.65.87.88,1.31,1.38a8.26,8.26,0,0,1,.58,1.36c.52,1,1.7,2,2.32,3.22a6.27,6.27,0,0,1,.42,5.48c-.61,1.76-1.21,3-3.37,2.53a9.82,9.82,0,0,1-1.88-.61c-1-.4-1.51-1.11-3-1.27a7.71,7.71,0,0,0-2.67.6,11.11,11.11,0,0,1-5.92-.35c-2.93-1-6.53-3.14-7.56-4.87-.14-.38-.09-.28.25-.36"/><path class="cls-1" d="M44.9,129.45a2.23,2.23,0,0,1,1.3.07,5.85,5.85,0,0,1,1.79,2c.34.58.33,1.37.89,1.75a16.32,16.32,0,0,0,2,1,21.36,21.36,0,0,0,5.21,2,7.37,7.37,0,0,1,.21-1.91c.12-.61,0-1.4.09-2.09.38-2.38,2.18-4.58,3.15-1.94a5,5,0,0,1,.53,1.84c-.11,1.1-.62,2.29-.84,3.54-.37,2.25-.12,4.71-.39,6.83-.2,1.62-.94,2.81-.91,4.17,0,.56.31.91.15,1.42-.34,1.15-1.85,1.35-2.95,1.5s-2.36.51-3.59-.28c0-1.92,1.73-2.82,2.54-4.21.61-1.05.32-1.77-.07-2.86a14.53,14.53,0,0,0-.65-1.7c-.88-1.61-2.51-3.09-3.62-4.67-.35-.52-.45-1.18-1-1.46-.45,2.79.27,7.31-1.13,10.3-.48,1-2,1.35-2.95,2.16.4,2.22-3,1.75-3.09,0-.08-1.3,1.08-2.41,1.52-3.31,1.31-2.68,1.2-5.7,1-8.06,0-.44-.23-.9-.26-1.36s.15-.71.19-1.09c.07-1-.11-2.8.94-3.69"/><path class="cls-1" d="M77.54,60.75c.74-.21,1.35.38,2.08.67a6.55,6.55,0,0,1,2,.77c.54.47,1.16-1.09,1.84-1.33.85-.3,1.85.28,2.75.63.34,0,.67-.39,1-.32a1,1,0,0,1,.47.85C86.47,63.94,84.45,65.3,83.9,67a16.43,16.43,0,0,0-.42,4.9,13.68,13.68,0,0,0,.58,2c.08.3,0,.65,0,1,.25,1.21.85,2.38.71,3.55.81.48,1.85-.21,2.68.26.67.37.78,1.25,1.7,1.66,1-.1.63-1,.49-1.54a.32.32,0,0,1,.1-.19,4.52,4.52,0,0,1,2.45-.48c.52,0,1.07.23,1.59.29a.42.42,0,0,1,.18.07,7,7,0,0,1,1.81,2,4,4,0,0,0,3-.14c.24-.15.36-.47.58-.62.83-.55,1.76-.12,2.75.47l.09,0a.67.67,0,0,1,.18.16,2.67,2.67,0,0,1,.21.4,15.71,15.71,0,0,1,.07,6,.15.15,0,0,1,0,.09c-.08.12-.14.13-.29.28s-.23.05-.34.13-.07,0-.08,0A7.92,7.92,0,0,0,100.07,84a3.52,3.52,0,0,0-.74-.46c-.35-.13-1,.13-1.25-.1-.53-.43,0-1.53-.89-1.43-.26.48.27.93-.26,1.43.49.68.41,1.51.82,2.3.31.59,1,1,1.27,1.67.14.35-.09.83,0,1.19.28.73,1.25,1.26,1.78,1.93a8.53,8.53,0,0,1,0,3c-.72.46-1.43-.22-2,.31a2.36,2.36,0,0,0-.59,1.55c0,.2.25.39.31.69.1.45,0,.91.1,1.14.23.42.8.64.76,1.1-.9,1.76-2.85-.27-4.17.25-.24,0-.2-.23-.4-.36a1.63,1.63,0,0,0-1.34,1.25c-.3.86.3,2.13.19,3.26a8.16,8.16,0,0,1-.92,2.81c0,.65-.37,1.94-1.4,2a.26.26,0,0,1-.09,0c-1.39-1.91-3-.91-4.46-.88l-.1,0c-1.2-1.18-.79-2.41-.57-3.65a.1.1,0,0,1,.08-.08,3.5,3.5,0,0,0,2.91-2.36c.07-.22,0-.51.08-.77s.24-.36.3-.56a14,14,0,0,0,.23-1.85c.18-1,0-1.92.86-2.45a.2.2,0,0,1,.13,0c.42.26.09.81.32,1.24a2.19,2.19,0,0,0,1.63,1.17C94,95.84,95.26,94.38,94.89,93c-.65-.74-.38-1.55-1-2.24-.41-.47-1.06-.63-1.58-1.12s-.52-.9-1-1.2c-.14-.09-.27,0-.39,0-1,.85-.34,2-.34,3a5.38,5.38,0,0,0-.1,1.14.71.71,0,0,1-.06.31,8.64,8.64,0,0,1-2.15,2.56c-.4.26-1.1.08-1.67.25s-1.44.61-2,.19c-1-.84.76-1.81,1.23-2.72.88-1.67.37-3.71.51-5.45a1.92,1.92,0,0,1-.88-1.31c.52-.39.85.2,1.35-.23s.54-2.1-.54-2c-.58.51-.06,1.35-1,1.4-.64-.49-.06-1,0-1.57-1-.26-.47-1.29-.63-1.92-.81-.72-1.23-1.61-2.13-1.53-.22.42.08.77,0,1.18,0,0,0,.07-.89.62a3.73,3.73,0,0,1-.66.2l-.31,0c-.23-.1-.79-.3-.91-.17a4.86,4.86,0,0,0-.34,1.49A4.07,4.07,0,0,1,79,85.22c-.15.24-.49.41-.68.74s-.06.94-.26,1.32-.46.46-.62.78c-.35.76,0,1.78-.43,2.2-.71.67-3.06,0-3.85,0-.29,0-.51.24-.82.1-.43-.88.59-1.38,1-2,.2-.34.11-.73.27-1.09s.4-.45.51-.68c.39-.72.57-1.67,1-2.38a11.49,11.49,0,0,0,1.14-2.47.63.63,0,0,0,0-.21A2.79,2.79,0,0,0,75,80.15c-.64-.25-1.49.35-2.05.2-1.32-.63-2-2-3-2.68-.24-.14-.68-.12-1-.28s-.55-.54-.8-.62c-.48-.14-1.05.39-1.45.13a1,1,0,0,1-.29-1.3c.47-.53,3.37-.21,4.23-.3a3.87,3.87,0,0,1,3,.46c.38.28.54.68.85.88a8.64,8.64,0,0,0,2.44,1.08c1.43.79,1.73-1.51,2.11-2.32a6.86,6.86,0,0,0,.1-2.61,12.29,12.29,0,0,1,.15-2.56c-.71-1.48-.33-3.07-.81-4.58-.29-.87-1-1.47-.71-2.41a1.86,1.86,0,0,1-.21-2.49M81.13,79.4a.71.71,0,0,1,.25,0,.9.9,0,0,0,.22-.06c.26-.21.47-.27.66-.46a.51.51,0,0,1,.16-.11A3.1,3.1,0,0,0,83,78.5a.61.61,0,0,0,.16-.16c.27-.76.2-1.26-.55-2.29-.37-.53-1.26,1.09-1.63,1.85-.28.58-.49,1,0,1.44m16,9.89c.49-2.24-1.05-4.38-1.17-6.59-1.05-1-1.83-2.52-2.92-2-.91.4-.61,1-.84,1.72s-.47.81-.49,1a4,4,0,0,0,1.1,2.55c.91,1.24,1.43,2.8,2.22,3.67a1.1,1.1,0,0,0,.21.13,3.51,3.51,0,0,0,1.72-.25.58.58,0,0,0,.17-.21"/><path class="cls-1" d="M260.77,32.66c-1.36,2.06-2.56,5-4.33,6.35a10.66,10.66,0,0,1-1.93.82c-.58.25-1.46.54-1.39,1.4a6.71,6.71,0,0,1,2.06.52c.21.14.27.37.47.54.6.51,1.58.75,1.65,1.51-.51.34-1.19-.06-1.77-.14a17.77,17.77,0,0,0-2.47-.15,16.49,16.49,0,0,0-1.71-.59c-1.21-.23-2.49.12-3.66,0a6.63,6.63,0,0,0-2.38-.3c-.07,0-.35.29-.44.33a3.27,3.27,0,0,0-.28.41c-.35.82-1.09,1.08-1.6,1.78a1.27,1.27,0,0,1-.49.28,6.2,6.2,0,0,0-3.18.46c-1.31.72-2.4,2.16-3.61,3.12a1.2,1.2,0,0,0-.23.34c-.28,1.62-2,2.12-2.57,3.24a3.78,3.78,0,0,0-.13,2.57c.76,0,1.54-1.27,2.41-1.06a1,1,0,0,1,.7,1c-.15.59-.69.57-1,.85-.75.58-1.29,1.5-2,1.9-.34,1.22-.82,4.94-2.44,4.39-1-.34-.49-1.2-.48-2s-.65-1.24-.82-1.92a8.58,8.58,0,0,0,.47-3.94,1.41,1.41,0,0,1,.09-.49c.48-1,.53-2.29,1.16-3.1.21-.25.64-.36.83-.56s.39-.78.69-1.1.74-.49,1-.78a11.42,11.42,0,0,1,2.38-2.11c.87-.54,1.67-1.15,2.54-1.65,1.62-.9,3.8-1.19,5.1-3.11-.48-.41-.74-.34-1.55-.37a10.71,10.71,0,0,1-1.55-.26c-.3,0-1.59.15-1.69.15s-.71.52-1.31.08a4.75,4.75,0,0,1,.59-1.38c.2-.27.7-.41,1-.72.13-.16.21-.43.33-.56s.35-.06.48-.17c.38-.26.71-1.11,1.17-1.12s.41.72.64.95a2.24,2.24,0,0,0,1.21.29c1,0,3.17-1.18,3.49-2.54a4.84,4.84,0,0,0-.38-2.34c-.19-.42-.69-.82-.63-1.17.12-.6.67-.76,1-.89a.32.32,0,0,1,.17,0,6.92,6.92,0,0,1,1.05.27,4,4,0,0,1,.76.62s.12.1.12.13a2.89,2.89,0,0,1,.58,2.46c-.44,1.56-2.13,2.92-2.36,4.42,1.23.13,2.72,1,3.82.66,1.29-1.2,3-1.56,4.58-2.89a10.78,10.78,0,0,0,3.21-4.66c.13-.47-.07-1.15.27-1.54.71-.88,2.81.81,2.42,1.73"/><path class="cls-1" d="M257.49,43.9c0-.19-.14-.34,0-.58a1.21,1.21,0,0,1,1.18-.06.57.57,0,0,0,.22,0c.84-.51,1.44.67,1.44,1.31a.75.75,0,0,1-.86.63c-.46-.14-.41-.6-.77-.86-.2-.13-.87-.08-1.17-.4"/><path class="cls-1" d="M250.14,51.67c-.4,1.37-1.24,1.51-2.37,1.79-.63.16-1.67.2-1.93.51-.5.6-.11,1.27.13,1.89a1.37,1.37,0,0,1,0,.45c-.54,1.64-1.68,1.43-3,.59-.26-.34-.18-.51-.14-1s-.18-.68-.14-.87c.11-.42.54-.69.76-1.06.52-.92.31-1.66,1.13-2.16,1.07-.69,2.67-.91,3.33-2-1,.23-2.19,1.31-3.55.9-.29-.08-.53-.41-1-.62-.67-.34-1.75-.51-1.31-1.42.31-.65,3.42-.8,4.2-.77.25,0,.6.14.8.15,1,0,1.35-.38,2.19.1.48.28.86,1,1.43,1.48s1.08.52,1,1c-.16,1-1,.64-1.6,1"/><path class="cls-1" d="M243,51.9a.84.84,0,0,1,.07.47c-.91,2.13-2.66,2.75-3.22,5.3a5,5,0,0,0,0,1.9,3.57,3.57,0,0,0,1.11,2,5,5,0,0,0,1.81.55c2.51.84,5.61,3.06,7.3,1.39a23,23,0,0,0,2.67-4.7c.25-.55.22-1.34.84-1.58.74,0,1,.7,1.15,1.11a27.38,27.38,0,0,0-1.53,4.13,5,5,0,0,0-.65,2c0,.43.34.75.27,1.09s-.3.41-.43.74c-.29.66-.4,1.8-.74,2.35s-1.22,1-1.69.85-.53-.86-.88-1.14c-.5-.38-1.29-.32-2.05-.74-.51-.3-.88-.88-1.37-1.08-.33-.11-.66,0-1-.08-1.08-.26-2.09-1.3-3.31-1.74a6.51,6.51,0,0,1-3.46-3,5.65,5.65,0,0,1-1.05-3.3,6.47,6.47,0,0,1,0-1.21c0-.15.28-.41.46-.81a7.66,7.66,0,0,1,.69-1.57c.3-.36.89-.4,1.32-.74a11.8,11.8,0,0,0,1.13-1.19c.82-.9,1.57-2.16,2.64-.93"/><path class="cls-5" d="M47.85,228.14a.83.83,0,0,0,.54-.37,1,1,0,0,0,0-.73l-.66-2.37.59-.16,2.24,8.07-.59.16-.65-2.36a1.15,1.15,0,0,0-.38-.59.79.79,0,0,0-.67-.08l-14,3.88a4.49,4.49,0,0,1-3.78-.43,5.21,5.21,0,0,1-2.19-3.1,3.8,3.8,0,0,1,0-2.43,1.68,1.68,0,0,1,1.16-1.17,1.13,1.13,0,0,1,1,.1,1.18,1.18,0,0,1,.51.65,1,1,0,0,1-.15.89,1.34,1.34,0,0,1-.78.54,1.3,1.3,0,0,1-.37.05.89.89,0,0,1-.43-.15,1.24,1.24,0,0,0-.3.72,2.84,2.84,0,0,0,.12,1,2.87,2.87,0,0,0,1.42,1.83,4.78,4.78,0,0,0,3.33-.07Z"/><path class="cls-5" d="M32.81,234.15a4.42,4.42,0,0,1-2.44-.7,5.53,5.53,0,0,1-2.34-3.3,4.18,4.18,0,0,1,0-2.64,2.13,2.13,0,0,1,1.4-1.38,1.42,1.42,0,0,1,1.26.15,1.49,1.49,0,0,1,.65.84,1.4,1.4,0,0,1-.19,1.18,1.77,1.77,0,0,1-1,.67,1.69,1.69,0,0,1-.41.06,1,1,0,0,1-.34-.06.8.8,0,0,0-.08.33,2.77,2.77,0,0,0,1.35,2.52,2.43,2.43,0,0,0,1.09.21h0a7.52,7.52,0,0,0,2-.32l14-3.9c.13,0,.29-.1.34-.21s.07-.15,0-.48l-.75-2.68,1.25-.36L51,232.82l-1.26.34L49,230.48a.73.73,0,0,0-.23-.41.48.48,0,0,0-.38,0l-14,3.89a6.17,6.17,0,0,1-1.61.22Zm-3-2.06a3.93,3.93,0,0,0,.93.78,4.09,4.09,0,0,0,3.49.39l14-3.87a1,1,0,0,1,.94.13,1.34,1.34,0,0,1,.32.31l-.66-2.34a.88.88,0,0,1-.13.46,1.12,1.12,0,0,1-.72.52L33.9,232.38a8.74,8.74,0,0,1-2.17.34h0a3.13,3.13,0,0,1-1.41-.29,2.83,2.83,0,0,1-.51-.34Zm.1-5.35a1.08,1.08,0,0,0-.34,0,1.45,1.45,0,0,0-.92,1,3.17,3.17,0,0,0-.06,1.81c0-.11,0-.23,0-.33a1.73,1.73,0,0,1,.37-.92l.2-.2.24.13a.69.69,0,0,0,.27.11,1.09,1.09,0,0,0,.26,0,1,1,0,0,0,.6-.4.7.7,0,0,0,.1-.6.92.92,0,0,0-.37-.47.59.59,0,0,0-.36-.1Z"/><path class="cls-5" d="M50.7,236.42l.69-.23,3.12,9.3-.69.23-.9-2.68a1.27,1.27,0,0,0-.48-.67.89.89,0,0,0-.8-.05L35,247.88a.9.9,0,0,0-.6.53,1.25,1.25,0,0,0,0,.83l.91,2.68-.71.23-3.11-9.31.7-.23.89,2.68a1.19,1.19,0,0,0,.51.73,1,1,0,0,0,.77,0L51,240.45a1,1,0,0,0,.62-.47,1.21,1.21,0,0,0,0-.89Z"/><path class="cls-5" d="M34.42,252.58l-3.34-10,1.36-.45,1,3c.13.38.26.51.33.54a.78.78,0,0,0,.52,0l16.62-5.57a.73.73,0,0,0,.43-.3.88.88,0,0,0-.07-.63l-1-3,1.34-.45,3.34,10-1.35.45-1-3a.88.88,0,0,0-.34-.51.61.61,0,0,0-.5,0l-16.62,5.57c-.29.09-.36.22-.39.31a.77.77,0,0,0,0,.61l1,3-1.34.45ZM32,243.06l2.9,8.65h0l-.77-2.35a1.45,1.45,0,0,1,0-1.06,1.22,1.22,0,0,1,.81-.73L51.54,242a1.22,1.22,0,0,1,1.08.09,1.62,1.62,0,0,1,.63.86l.79,2.35h0l-2.89-8.66-.06,0,.79,2.35a1.5,1.5,0,0,1,0,1.14,1.37,1.37,0,0,1-.82.65l-16.64,5.56a1.28,1.28,0,0,1-1,0,1.55,1.55,0,0,1-.69-.93L32,243l0,0Z"/><path class="cls-5" d="M266.57,323l-.37-.63,8.39-5.09.38.63-2.41,1.46a1.25,1.25,0,0,0-.56.63.86.86,0,0,0,.12.79l9.09,15a.8.8,0,0,0,.64.46,1.25,1.25,0,0,0,.81-.19l2.41-1.47.38.63-8.39,5.09-.38-.64,2.41-1.45a1.21,1.21,0,0,0,.6-.66,1,1,0,0,0-.16-.76l-9.08-15a1,1,0,0,0-.61-.5,1.31,1.31,0,0,0-.86.23Z"/><path class="cls-5" d="M276.93,340.75l-.73-1.2,2.7-1.65c.36-.21.44-.37.46-.45a.71.71,0,0,0-.14-.49l-9.06-15a.7.7,0,0,0-.4-.36,1.07,1.07,0,0,0-.59.19l-2.72,1.64-.72-1.21,9-5.44.73,1.23-2.7,1.63a1,1,0,0,0-.42.44.52.52,0,0,0,.1.5l9.08,15c.15.25.28.3.38.31a1,1,0,0,0,.59-.15l2.72-1.64.73,1.21-9,5.43Zm.22-1,0,0,7.81-4.72v0l-2.13,1.28a1.56,1.56,0,0,1-1.06.24,1.19,1.19,0,0,1-.88-.63l-9.06-15a1.22,1.22,0,0,1-.16-1.08,1.54,1.54,0,0,1,.7-.8l2.11-1.28,0,0-7.81,4.73,0,0,2.13-1.28a1.52,1.52,0,0,1,1.11-.28,1.37,1.37,0,0,1,.8.66l9.09,15a1.24,1.24,0,0,1,.2,1,1.48,1.48,0,0,1-.75.87l-2.12,1.28Z"/><path class="cls-5" d="M322.76,266l-.65-.34,4.54-8.7.64.35-1.3,2.5a1.36,1.36,0,0,0-.16.81,1,1,0,0,0,.52.62l15.56,8.1a.84.84,0,0,0,.79.07,1.19,1.19,0,0,0,.58-.59l1.31-2.5.65.34-4.53,8.69-.65-.33,1.29-2.5a1.18,1.18,0,0,0,.19-.88,1,1,0,0,0-.54-.56L325.45,263a1.07,1.07,0,0,0-.77-.13,1.2,1.2,0,0,0-.61.66Z"/><path class="cls-5" d="M340.86,275.84l-1.26-.66,1.46-2.8c.19-.37.18-.54.15-.61a.66.66,0,0,0-.37-.37l-15.55-8.1a1,1,0,0,0-.38-.11c-.2,0-.36.13-.54.49l-1.45,2.8-1.26-.65,4.84-9.31,1.26.65L326.3,260a.83.83,0,0,0-.12.59.55.55,0,0,0,.34.38l15.55,8.1a.56.56,0,0,0,.49.06.9.9,0,0,0,.42-.44l1.47-2.81,1.25.66-4.84,9.31Zm-.34-.95,0,0,4.22-8.1,0,0L343.58,269a1.46,1.46,0,0,1-.75.74,1.25,1.25,0,0,1-1.09-.07l-15.54-8.11a1.22,1.22,0,0,1-.69-.84,1.65,1.65,0,0,1,.18-1.05l1.15-2.2,0,0-4.23,8.09.06,0,1.14-2.21a1.46,1.46,0,0,1,.8-.81,1.3,1.3,0,0,1,1,.15l15.54,8.1a1.25,1.25,0,0,1,.71.76,1.4,1.4,0,0,1-.2,1.14l-1.14,2.19Z"/><path class="cls-5" d="M47,260.87l-2.23-5-4.71.82a3.26,3.26,0,0,0-1.63.74,1,1,0,0,0-.16,1.28l.13.34-.66.29-1.83-4.09.68-.3.15.34a1.27,1.27,0,0,0,.63.66,1.72,1.72,0,0,0,1.16,0l19.15-3.36L59,254.11l-15.9,12.2a2.2,2.2,0,0,0-.71,1,1.27,1.27,0,0,0,.07.9l.15.35-.68.29L39.75,264l.69-.3.2.45c.19.45.45.67.76.66a1.89,1.89,0,0,0,1.14-.58Zm9-6.79-.06-.13-10.45,1.83,2.1,4.74Z"/><path class="cls-5" d="M41.74,269.3l-2.43-5.46,1.29-.59L41,264c.14.3.29.46.45.46a1.69,1.69,0,0,0,.92-.49l4.2-3.23-2-4.47-4.46.79a2.92,2.92,0,0,0-1.46.63c-.15.15-.32.4-.08.9l.28.65-1.3.58-2.1-4.72,1.29-.58.3.65a1,1,0,0,0,.46.49,1.38,1.38,0,0,0,.93,0l19.36-3.4,1.73,1.87-16.2,12.43a1.85,1.85,0,0,0-.59.81,1.13,1.13,0,0,0,0,.68l.31.65-1.31.58Zm-1.52-5.12,1.88,4.21,0,0v0A1.53,1.53,0,0,1,42,267.2a2.71,2.71,0,0,1,.8-1.14l15.63-12-1-1-19,3.32a2,2,0,0,1-1.37,0,1.58,1.58,0,0,1-.79-.82v0l0,0,1.55,3.46.05,0,0,0a1.36,1.36,0,0,1,.26-1.67,3.56,3.56,0,0,1,1.78-.82l5-.87L47.38,261l-4.63,3.55a2.28,2.28,0,0,1-1.35.65c-.46,0-.82-.3-1.08-.87l0-.14-.05,0Zm7.23-3.12L45,255.52l11.18-2,.22.64-8.94,6.86ZM46,256,47.75,260l7.16-5.52L46,256Z"/><path class="cls-5" d="M195.05,354.81h-5.43l-1.16,4.65a3.06,3.06,0,0,0,0,1.79,1,1,0,0,0,1.11.68h.36v.74h-4.5v-.74h.37a1.29,1.29,0,0,0,.87-.31,1.76,1.76,0,0,0,.5-1.06l4.71-18.87,1.87-.62,4.69,19.49a2.21,2.21,0,0,0,.62,1.05,1.25,1.25,0,0,0,.84.3h.38v.74H195v-.73h.49c.5,0,.81-.15.93-.43a2.09,2.09,0,0,0-.07-1.29Zm-2.51-11h-.15l-2.59,10.31H195Z"/><path class="cls-5" d="M185.11,363v-1.42h.7a1,1,0,0,0,.65-.23,1.35,1.35,0,0,0,.37-.85l4.78-19.08,2.4-.8,4.76,19.86a2,2,0,0,0,.51.86,1,1,0,0,0,.63.22h.73V363h-6v-1.42h.83c.34,0,.55-.08.61-.23a1.77,1.77,0,0,0-.07-1.05l-1.25-5.15h-4.88l-1.1,4.38a3.14,3.14,0,0,0,0,1.59c.08.21.23.45.8.45h.69V363Zm.69-.73v0l3.79-.05h0a1.36,1.36,0,0,1-1.44-.91,3.72,3.72,0,0,1,0-2l1.24-4.91h6l1.37,5.65a2.4,2.4,0,0,1,0,1.5c-.13.3-.43.65-1.24.65h-.14v0H200l0-.06a1.63,1.63,0,0,1-1.07-.38,2.43,2.43,0,0,1-.71-1.2l-4.61-19.16-1.34.46-4.68,18.68a2,2,0,0,1-.6,1.23,1.65,1.65,0,0,1-1.09.4Zm3.57-7.86,2.76-11,.67.06,2.62,10.94Zm3.08-9.48-2.2,8.8h4.32l-2.12-8.79Z"/><path class="cls-5" d="M53.88,280.08l.12.21,12.41-7.2a1,1,0,0,0,.52-.57,1.17,1.17,0,0,0-.22-.87l-.49-.85.63-.37,2.47,4.24-.64.37-.49-.85a1.26,1.26,0,0,0-.62-.57.86.86,0,0,0-.78.11L50.12,283.4l-.36-.65,0,.06,11.09-17.29-.12-.21-14.32,8.31a.85.85,0,0,0-.47.63,1.2,1.2,0,0,0,.18.82l.49.85-.64.36L43.55,272l.62-.36.5.85a1.19,1.19,0,0,0,.65.62,1,1,0,0,0,.76-.16l15.17-8.8a1,1,0,0,0,.5-.61,1.51,1.51,0,0,0-.29-1l-.4-.72.62-.37,1.94,3.36Z"/><path class="cls-5" d="M50,283.86l-.61-1.06,10.73-16.72-13.5,7.84c-.28.16-.32.32-.33.38a.88.88,0,0,0,.15.6l.67,1.14-1.24.71-2.79-4.83,1.22-.72.67,1.14c.2.36.36.45.44.46a.78.78,0,0,0,.49-.11l15.18-8.8a.67.67,0,0,0,.33-.39,1.3,1.3,0,0,0-.24-.72l-.59-1,1.23-.71L64,264.89l-9.39,14.63,11.6-6.72a.76.76,0,0,0,.36-.38c0-.08,0-.25-.19-.6l-.65-1.14L67,270l2.81,4.84-1.24.71-.66-1.14a.82.82,0,0,0-.45-.42A.57.57,0,0,0,67,274l-17,9.84Zm.19-1,.06.09,16.36-9.48a1.17,1.17,0,0,1,1.09-.13,1.58,1.58,0,0,1,.79.71l.31.55,0,0-2.1-3.65,0,0,.31.56a1.43,1.43,0,0,1,.26,1.11,1.31,1.31,0,0,1-.68.8l-12.7,7.37-.4-.69,9.75-15.2L61.56,262l0,0,.24.42a1.85,1.85,0,0,1,.32,1.2,1.27,1.27,0,0,1-.66.84l-15.17,8.8a1.37,1.37,0,0,1-1,.19,1.49,1.49,0,0,1-.85-.78l-.32-.55,0,0,2.11,3.65,0,0-.32-.55a1.55,1.55,0,0,1-.22-1,1.21,1.21,0,0,1,.65-.88l14.61-8.48.4.68-11.1,17.31Z"/><path class="cls-5" d="M267.12,339.92l.23-.11-6.13-13a1,1,0,0,0-.54-.56,1.2,1.2,0,0,0-.88.14l-.88.42-.32-.66,4.44-2.1.3.67-.88.42a1.23,1.23,0,0,0-.62.56.91.91,0,0,0,0,.8l8.24,17.4-.67.32.06,0-16.3-12.5-.24.11,7.08,15a.87.87,0,0,0,.61.52,1.24,1.24,0,0,0,.82-.11l.89-.42.31.66-4.43,2.1-.31-.67.87-.42c.37-.17.6-.36.67-.59a.92.92,0,0,0-.08-.76l-7.49-15.86a1,1,0,0,0-.57-.54,1.43,1.43,0,0,0-1,.19l-.76.35-.32-.66,3.51-1.67Z"/><path class="cls-5" d="M258.08,350l-.61-1.29,1.2-.57c.36-.17.47-.31.49-.38a.74.74,0,0,0-.08-.52l-7.48-15.86a.64.64,0,0,0-.37-.36,1.36,1.36,0,0,0-.73.18l-1.06.5-.62-1.29,4-1.89,13.79,10.59L260.91,327c-.12-.2-.22-.34-.34-.38a1.21,1.21,0,0,0-.63.13l-1.2.57-.6-1.29,5.06-2.38.6,1.28-1.19.56a1,1,0,0,0-.47.41.59.59,0,0,0,.06.5l8.35,17.72-1,.46-.13-.28-.15.22-15.62-12,6.69,14.12a.56.56,0,0,0,.35.36.93.93,0,0,0,.61-.1l1.19-.57.6,1.28-5.05,2.4Zm.3-1,0,0,3.81-1.8v0l-.59.28a1.59,1.59,0,0,1-1.05.14,1.17,1.17,0,0,1-.81-.73l-7.23-15.27.72-.35.18.13,16.12,12.38.1,0-8.08-17.09a1.25,1.25,0,0,1,0-1.1,1.51,1.51,0,0,1,.77-.72l.58-.28,0,0-3.8,1.8,0,.05.58-.28a1.47,1.47,0,0,1,1.12-.15,1.3,1.3,0,0,1,.75.73L267.8,340l-.73.35-14.32-11-3,1.43,0,.05.44-.21a1.82,1.82,0,0,1,1.24-.22,1.3,1.3,0,0,1,.77.74L259.7,347a1.34,1.34,0,0,1,.11,1,1.51,1.51,0,0,1-.84.78l-.59.27Z"/><path class="cls-5" d="M75.35,283.43c-.66-1-2-1.5-4-1.42S67,283.09,64,285a18.81,18.81,0,0,0-4.85,4.59c-1.3,1.79-1.47,3.42-.47,4.94A3.74,3.74,0,0,0,60.37,296a2.21,2.21,0,0,0,1.91-.16l3.54-2.33a1.5,1.5,0,0,0,.73-.92,1.47,1.47,0,0,0-.29-1.13l-.41-.61.62-.4,3.37,5.12-.62.4-.33-.51a1.33,1.33,0,0,0-.85-.61,1.26,1.26,0,0,0-1,.23l-5.12,3.37c0-.19,0-.34-.08-.47a1.81,1.81,0,0,0-.2-.39,2.17,2.17,0,0,0-.32-.37,1.05,1.05,0,0,0-.53-.25,4.52,4.52,0,0,1-1.56-.8A6.88,6.88,0,0,1,58,294.82a5.71,5.71,0,0,1-.23-6.3,14.94,14.94,0,0,1,5-5.37,14.57,14.57,0,0,1,7.61-2.61c2.56-.06,4.38.75,5.51,2.46a5.53,5.53,0,0,1,.63,1.62,5.72,5.72,0,0,0,.35,1.22,1.58,1.58,0,0,0,.57.51,1.48,1.48,0,0,0,.79.21l-4,3.9-.61-.48a9.47,9.47,0,0,0,2.19-3.64A3.52,3.52,0,0,0,75.35,283.43Z"/><path class="cls-5" d="M61.62,299l-.07-.54q0-.24-.06-.42a2,2,0,0,0-.15-.29,4,4,0,0,0-.26-.32.92.92,0,0,0-.37-.15,4.72,4.72,0,0,1-1.7-.88A6.33,6.33,0,0,1,57.75,295a6,6,0,0,1-.26-6.65,15.44,15.44,0,0,1,5.16-5.49,14.89,14.89,0,0,1,7.8-2.65h.3a6.09,6.09,0,0,1,5.48,2.6,5.1,5.1,0,0,1,.68,1.74,5.12,5.12,0,0,0,.32,1.12,1.23,1.23,0,0,0,.44.4,1.2,1.2,0,0,0,.63.15h.84l-4.86,4.7L73.16,290l.22-.28a8.91,8.91,0,0,0,2.12-3.49,3.08,3.08,0,0,0-.44-2.64c-.59-.92-1.84-1.35-3.67-1.26s-4.31,1.06-7.15,2.92a18.28,18.28,0,0,0-4.77,4.49c-1.22,1.68-1.37,3.17-.46,4.55a3.41,3.41,0,0,0,1.48,1.36,2,2,0,0,0,1.64-.14l3.49-2.31a1.23,1.23,0,0,0,.6-.71,1.18,1.18,0,0,0-.25-.87l-.59-.9,1.18-.77,3.75,5.69-1.19.77-.52-.79a1,1,0,0,0-.63-.47,1,1,0,0,0-.77.18L61.62,299Zm9.13-18.14h-.28A14.2,14.2,0,0,0,63,283.43a14.9,14.9,0,0,0-4.94,5.25,5.37,5.37,0,0,0,.24,5.95,5.88,5.88,0,0,0,1.12,1.28,4.4,4.4,0,0,0,1.43.74,1.44,1.44,0,0,1,.67.31,3.86,3.86,0,0,1,.38.44,2.89,2.89,0,0,1,.22.48l4.69-3.09a1.69,1.69,0,0,1,1.28-.28,1.63,1.63,0,0,1,1.06.76l.15.23,0,0-3-4.55,0,0,.21.33a1.88,1.88,0,0,1,.36,1.38,1.91,1.91,0,0,1-.9,1.14l-3.54,2.33a2.55,2.55,0,0,1-2.21.19,4,4,0,0,1-1.82-1.62c-1.08-1.63-.9-3.42.48-5.32a19.19,19.19,0,0,1,5-4.67c3-1.94,5.47-3,7.5-3s3.54.45,4.28,1.58a3.88,3.88,0,0,1,.53,3.18,9.57,9.57,0,0,1-2,3.52l.08.07,3.36-3.24a1.56,1.56,0,0,1-.26-.11,2.29,2.29,0,0,1-.68-.63,5.25,5.25,0,0,1-.4-1.33,4.63,4.63,0,0,0-.59-1.52c-1-1.54-2.62-2.29-4.91-2.29Z"/><path class="cls-5" d="M77.29,302a18.47,18.47,0,0,1-.86-5.15,4.4,4.4,0,0,1,1.88-3.12,5.08,5.08,0,0,1,3.67-1,5.57,5.57,0,0,1,4,2.3,6.27,6.27,0,0,1,1.13,2.07,5,5,0,0,0,.68,1.5,1.19,1.19,0,0,0,.56.4,1.56,1.56,0,0,0,.86,0l-3.54,3.61-.57-.31a9.41,9.41,0,0,0,1.37-4,4.55,4.55,0,0,0-1.15-2.89,3.53,3.53,0,0,0-3-1.62,5.17,5.17,0,0,0-2.72,1.12,3,3,0,0,0-1.2,2,17.44,17.44,0,0,0,.82,4.87,10.73,10.73,0,0,1,.52,5,5.45,5.45,0,0,1-2,3.28,5.68,5.68,0,0,1-4,1.28,5.61,5.61,0,0,1-4.14-2.36,5.69,5.69,0,0,1-1.1-2,4.51,4.51,0,0,0-.71-1.55,1.38,1.38,0,0,0-.65-.41l-1-.27,4-4.61.66.42A8,8,0,0,0,69,305a5.64,5.64,0,0,0,1.29,3.46,3.83,3.83,0,0,0,2.94,1.64,5.57,5.57,0,0,0,3.46-1.47,3.48,3.48,0,0,0,1.13-2.44A12.11,12.11,0,0,0,77.29,302Z"/><path class="cls-5" d="M74.08,311.61h-.31a5.94,5.94,0,0,1-4.39-2.49A6.15,6.15,0,0,1,68.22,307a4.09,4.09,0,0,0-.65-1.43,1,1,0,0,0-.48-.3c-.28-.08-.6-.17-1-.26l-.55-.14,4.57-5.25,1.21.76-.22.3A7.67,7.67,0,0,0,69.33,305a5.27,5.27,0,0,0,1.2,3.25,3.51,3.51,0,0,0,2.69,1.52h0a5.3,5.3,0,0,0,3.22-1.39,3.14,3.14,0,0,0,1-2.22,11.61,11.61,0,0,0-.48-4.13,18.65,18.65,0,0,1-.89-5.25,4.79,4.79,0,0,1,2-3.37A5.48,5.48,0,0,1,82,292.35a5.88,5.88,0,0,1,4.26,2.43A7,7,0,0,1,87.47,297a4.3,4.3,0,0,0,.6,1.39,1,1,0,0,0,.42.3,1.2,1.2,0,0,0,.68,0l1.13-.26L85.75,303l-1.09-.61.16-.29a9.16,9.16,0,0,0,1.32-3.85,4.24,4.24,0,0,0-1.06-2.68,3.2,3.2,0,0,0-2.71-1.48,4.91,4.91,0,0,0-2.54,1,2.72,2.72,0,0,0-1.07,1.77,17.49,17.49,0,0,0,.81,4.73,11.24,11.24,0,0,1,.53,5.14,5.84,5.84,0,0,1-2.1,3.48,6,6,0,0,1-3.92,1.37Zm-7.28-7.16a4,4,0,0,1,.48.14,1.63,1.63,0,0,1,.83.52,5,5,0,0,1,.77,1.66,5.66,5.66,0,0,0,1,1.91,5.4,5.4,0,0,0,3.89,2.25h.28a5.4,5.4,0,0,0,3.49-1.22,5.14,5.14,0,0,0,1.85-3.07,10.33,10.33,0,0,0-.51-4.83,18.76,18.76,0,0,1-.84-5,3.33,3.33,0,0,1,1.33-2.21,5.45,5.45,0,0,1,2.9-1.21,3.8,3.8,0,0,1,3.31,1.74,4.93,4.93,0,0,1,1.22,3.11,9.11,9.11,0,0,1-1.25,3.87l0,0,2.77-2.81-.14,0a1.56,1.56,0,0,1-.72-.51,5.28,5.28,0,0,1-.74-1.62,5.66,5.66,0,0,0-1.07-2A5.29,5.29,0,0,0,82,293a4.83,4.83,0,0,0-3.44,1,4.06,4.06,0,0,0-1.75,2.86,18.24,18.24,0,0,0,.86,5.05,12.8,12.8,0,0,1,.51,4.38,3.83,3.83,0,0,1-1.26,2.67,5.91,5.91,0,0,1-3.62,1.53h0A4.2,4.2,0,0,1,70,308.71a5.86,5.86,0,0,1-1.36-3.66,8.05,8.05,0,0,1,1.7-4.51l-.11-.06-3.43,4Z"/><path class="cls-5" d="M325.73,279.61a18.42,18.42,0,0,1-4.44,2.73,4.41,4.41,0,0,1-3.61-.57,5.16,5.16,0,0,1-2.32-3,5.61,5.61,0,0,1,.64-4.6,6.38,6.38,0,0,1,1.48-1.83,5.08,5.08,0,0,0,1.14-1.17,1.24,1.24,0,0,0,.16-.68,1.61,1.61,0,0,0-.33-.81l4.68,1.94-.08.65a9.42,9.42,0,0,0-4.22.23,4.49,4.49,0,0,0-2.25,2.15,3.45,3.45,0,0,0-.38,3.39,5.19,5.19,0,0,0,2.05,2.1,3,3,0,0,0,2.3.36,17.22,17.22,0,0,0,4.2-2.57,10.85,10.85,0,0,1,4.44-2.36,5.36,5.36,0,0,1,3.76.62A5.55,5.55,0,0,1,335,284.1a5.74,5.74,0,0,1-1.46,1.78,4.28,4.28,0,0,0-1.17,1.24,1.18,1.18,0,0,0-.15.76c0,.29.08.64.14,1.05l-5.78-2,.13-.76a8.06,8.06,0,0,0,5,0,5.55,5.55,0,0,0,2.73-2.49,3.85,3.85,0,0,0,.41-3.34,5.39,5.39,0,0,0-2.66-2.65,3.43,3.43,0,0,0-2.67-.15A12.29,12.29,0,0,0,325.73,279.61Z"/><path class="cls-5" d="M332.78,289.43l-6.58-2.26.27-1.41.35.08a7.79,7.79,0,0,0,4.72,0,5.2,5.2,0,0,0,2.55-2.35,3.44,3.44,0,0,0,.42-3.05A5.16,5.16,0,0,0,332,278a3.15,3.15,0,0,0-2.43-.13,12.11,12.11,0,0,0-3.65,2,18.47,18.47,0,0,1-4.53,2.78,4.67,4.67,0,0,1-3.87-.6,5.4,5.4,0,0,1-2.5-3.2,5.88,5.88,0,0,1,.67-4.87,6.62,6.62,0,0,1,1.56-1.92,4.48,4.48,0,0,0,1.06-1.09,1,1,0,0,0,.12-.49,1.24,1.24,0,0,0-.26-.63l-.66-.95,6,2.48-.15,1.24-.34,0a9.29,9.29,0,0,0-4.05.21,4.25,4.25,0,0,0-2.1,2,3.21,3.21,0,0,0-.37,3.07,5.12,5.12,0,0,0,1.93,2,2.79,2.79,0,0,0,2.05.33,16.62,16.62,0,0,0,4.08-2.53,11.24,11.24,0,0,1,4.56-2.42,5.8,5.8,0,0,1,4,.66,5.88,5.88,0,0,1,2.18,8.41,6.2,6.2,0,0,1-1.55,1.87,4.24,4.24,0,0,0-1.09,1.14.9.9,0,0,0-.09.56c0,.29.06.63.12,1l.08.56Zm-5.8-2.72,5,1.71c0-.18,0-.36-.05-.51a1.55,1.55,0,0,1,.17-1,4.77,4.77,0,0,1,1.27-1.34,5.66,5.66,0,0,0,1.37-1.67,5.2,5.2,0,0,0-1.92-7.48,5.08,5.08,0,0,0-3.54-.58,10.67,10.67,0,0,0-4.29,2.28,18.3,18.3,0,0,1-4.31,2.65,3.38,3.38,0,0,1-2.55-.4,5.43,5.43,0,0,1-2.2-2.23,3.82,3.82,0,0,1,.36-3.73,4.93,4.93,0,0,1,2.44-2.29,8.94,8.94,0,0,1,4.06-.29v-.06l-3.65-1.52c0,.06,0,.11,0,.15a1.55,1.55,0,0,1-.21.86,4.83,4.83,0,0,1-1.22,1.28,6.36,6.36,0,0,0-1.41,1.72,5.29,5.29,0,0,0-.6,4.33,4.74,4.74,0,0,0,2.16,2.82,4.1,4.1,0,0,0,3.32.56,18.17,18.17,0,0,0,4.35-2.69,12.84,12.84,0,0,1,3.87-2.12,3.78,3.78,0,0,1,2.94.18,5.78,5.78,0,0,1,2.81,2.82,4.14,4.14,0,0,1-.43,3.63,6,6,0,0,1-2.9,2.64,8,8,0,0,1-4.81.11l0,.12Z"/><path class="cls-5" d="M85,322.12a4.39,4.39,0,0,0,3.18,1.09,4.08,4.08,0,0,0,3-1.52l9.19-10.86a1,1,0,0,0,.3-.7,1.11,1.11,0,0,0-.46-.71l-.51-.44.47-.57,3.18,2.7-.48.56-.51-.44a1.14,1.14,0,0,0-.74-.29.87.87,0,0,0-.69.37l-9.19,10.86A4.79,4.79,0,0,1,88,324.05a5.64,5.64,0,0,1-3.77-1.34A6.4,6.4,0,0,1,82,319.27a4.58,4.58,0,0,1,1.27-4.06l9.28-11a1,1,0,0,0,.28-.71,1.1,1.1,0,0,0-.49-.74l-.47-.4.47-.56,4.12,3.48-.48.57-.46-.4a1.26,1.26,0,0,0-.78-.33.93.93,0,0,0-.7.37l-9.26,11c-1.07,1.25-1.52,2.32-1.34,3.2A4.14,4.14,0,0,0,85,322.12Z"/><path class="cls-5" d="M87.94,324.4A6,6,0,0,1,84,323a6.72,6.72,0,0,1-2.27-3.62A4.9,4.9,0,0,1,83.06,315L92.32,304a.65.65,0,0,0,.21-.47c0-.08-.06-.25-.37-.51l-.72-.62.91-1.08L97,305.29l-.92,1.07-.73-.61a.88.88,0,0,0-.56-.24.57.57,0,0,0-.43.24L85.08,316.7c-1,1.17-1.41,2.15-1.26,2.92a3.82,3.82,0,0,0,1.42,2.24,4,4,0,0,0,3,1,3.61,3.61,0,0,0,2.71-1.39l9.2-10.86a.73.73,0,0,0,.22-.47c0-.07,0-.22-.35-.46l-.78-.66.93-1.08,3.7,3.13-.91,1.08-.79-.66a.82.82,0,0,0-.49-.22c-.07,0-.23,0-.45.26L92,322.39a5.16,5.16,0,0,1-4,2Zm4.45-22,.21.18a1.45,1.45,0,0,1,.61,1,1.31,1.31,0,0,1-.37,1l-9.26,11a4.21,4.21,0,0,0-1.2,3.76,6,6,0,0,0,2,3.25,5.35,5.35,0,0,0,3.52,1.26v.34l0-.34a4.5,4.5,0,0,0,3.5-1.76l9.19-10.86a1.25,1.25,0,0,1,1.9-.12l.26.22,0,0-2.66-2.25,0,0,.27.22a1.19,1.19,0,0,1,.18,1.9l-9.17,10.86a4.48,4.48,0,0,1-3.21,1.63h-.31a4.7,4.7,0,0,1-3.11-1.18,4.47,4.47,0,0,1-1.67-2.63c-.19-1,.28-2.16,1.41-3.49l9.27-10.95a1.23,1.23,0,0,1,1-.48,1.48,1.48,0,0,1,1,.4l.22.18,0,0-3.59-3.05,0,0Z"/><path class="cls-5" d="M245.52,353.29a4.32,4.32,0,0,0,2.58-2.15,4,4,0,0,0,.26-3.31l-4.45-13.51a1.1,1.1,0,0,0-.44-.63,1.06,1.06,0,0,0-.84,0l-.66.21-.23-.69,4-1.31.24.7-.67.22a1.07,1.07,0,0,0-.62.46.93.93,0,0,0,0,.79l4.45,13.51a4.83,4.83,0,0,1-.35,4.19,5.66,5.66,0,0,1-3.11,2.5,6.35,6.35,0,0,1-4.06.06,4.61,4.61,0,0,1-2.81-3.22l-4.5-13.62a1,1,0,0,0-.45-.63,1.23,1.23,0,0,0-.9,0l-.58.19-.23-.7,5.12-1.69.24.7-.58.2a1.24,1.24,0,0,0-.69.48.87.87,0,0,0,0,.79l4.48,13.63c.52,1.56,1.2,2.49,2,2.82A4.23,4.23,0,0,0,245.52,353.29Z"/><path class="cls-5" d="M243.47,355a6.18,6.18,0,0,1-2-.33,4.88,4.88,0,0,1-3-3.42l-4.5-13.62a.6.6,0,0,0-.29-.43.93.93,0,0,0-.62.05l-.92.31-.44-1.35,5.77-1.91.45,1.35-.9.3a.89.89,0,0,0-.51.35.52.52,0,0,0,0,.49l4.5,13.64c.48,1.43,1.09,2.32,1.82,2.6a4.41,4.41,0,0,0,5.06-2,3.73,3.73,0,0,0,.24-3.05l-4.46-13.52a.76.76,0,0,0-.29-.43.82.82,0,0,0-.56.05l-1,.32L241.3,333l4.62-1.52.44,1.35-1,.32a.75.75,0,0,0-.44.32.58.58,0,0,0,0,.5l4.46,13.52A5.12,5.12,0,0,1,249,352a6,6,0,0,1-3.29,2.66,6.86,6.86,0,0,1-2.23.37Zm-10-18.52a1,1,0,0,1,.49.11,1.32,1.32,0,0,1,.63.82L239.05,351a4.22,4.22,0,0,0,2.6,3,6,6,0,0,0,3.84,0,5.33,5.33,0,0,0,2.92-2.36,4.52,4.52,0,0,0,.34-3.91l-4.47-13.5a1.22,1.22,0,0,1,.08-1.08,1.42,1.42,0,0,1,.82-.61l.31-.11v0l-3.31,1.09v.05l.35-.11a1.41,1.41,0,0,1,1.11,0,1.42,1.42,0,0,1,.6.82l4.46,13.51a4.48,4.48,0,0,1-.29,3.59,4.65,4.65,0,0,1-2.77,2.3,4.56,4.56,0,0,1-3.13.05c-.95-.37-1.67-1.36-2.23-3L235.78,337a1.18,1.18,0,0,1,.1-1.09,1.5,1.5,0,0,1,.86-.62l.25-.08v0l-4.48,1.47,0,.05.26-.08a1.92,1.92,0,0,1,.66-.13Z"/><path class="cls-5" d="M122.17,341.48l.22.11L129,328.86a1.1,1.1,0,0,0,.11-.77,1.27,1.27,0,0,0-.64-.62l-.87-.45.33-.65,4.35,2.27-.33.64-.87-.45a1.33,1.33,0,0,0-.82-.15.9.9,0,0,0-.62.52l-8.87,17.08-.66-.34.06,0,.1-20.54-.22-.12L112.43,340a.9.9,0,0,0-.07.79,1.17,1.17,0,0,0,.59.59l.89.46-.35.65-4.35-2.26.34-.66.87.45a1.19,1.19,0,0,0,.88.18,1,1,0,0,0,.55-.54l8.09-15.55a1,1,0,0,0,.09-.79,1.47,1.47,0,0,0-.75-.66l-.74-.39.34-.65,3.46,1.79Z"/><path class="cls-5" d="M120.93,346.74l-.9-.47h0l-.19-.1.09-19.87-7.19,13.86a.56.56,0,0,0-.06.5.9.9,0,0,0,.44.42l1.18.6-.67,1.27-4.95-2.58.65-1.26,1.18.61a1.16,1.16,0,0,0,.52.17.67.67,0,0,0,.45-.39L119.57,324a.6.6,0,0,0,.06-.51c0-.08-.14-.25-.57-.47l-1-.55.67-1.26,3.92,2-.08,17.39,6.18-11.89a.64.64,0,0,0,.1-.51c0-.07-.12-.22-.47-.41l-1.19-.61.67-1.26,4.95,2.58-.66,1.26-1.16-.62a1.15,1.15,0,0,0-.47-.13.55.55,0,0,0-.5.35l-9,17.39Zm-.39-1,.09.06L129.36,329a1.22,1.22,0,0,1,.85-.68,1.57,1.57,0,0,1,1,.18l.56.29,0,0-3.73-1.94,0,0,.56.3a1.53,1.53,0,0,1,.82.81,1.42,1.42,0,0,1-.14,1l-6.78,13-.71-.37.08-18.06-3-1.54,0,0,.45.23a1.74,1.74,0,0,1,.9.85,1.23,1.23,0,0,1-.11,1.06l-8.09,15.56a1.36,1.36,0,0,1-.76.72,1.63,1.63,0,0,1-1.13-.21l-.56-.3,0,.05,3.73,1.94,0,0-.58-.3a1.63,1.63,0,0,1-.74-.75,1.22,1.22,0,0,1,.07-1.08l7.8-15,.7.35-.08,20.55Z"/><path class="cls-5" d="M144.51,344.6a13.93,13.93,0,0,1-4.8,6.6,5.77,5.77,0,0,1-5.62.81q-2.61-1-3.38-4.55a13.74,13.74,0,0,1,1.07-8,14.12,14.12,0,0,1,4.68-6.43,5.7,5.7,0,0,1,5.7-.86,5.63,5.63,0,0,1,3.49,4.8A14.69,14.69,0,0,1,144.51,344.6Zm-10.65-4.4q-2,4.92-1.68,7.65c.21,1.82.95,3,2.18,3.48a3.79,3.79,0,0,0,4-.84q2-1.62,4.13-6.77a20.17,20.17,0,0,0,1.7-7,3.68,3.68,0,0,0-2.31-3.87q-2-.81-4.07,1C136.43,335,135.11,337.15,133.86,340.2Z"/><path class="cls-5" d="M136.09,352.76a5.76,5.76,0,0,1-2.12-.42,6.23,6.23,0,0,1-3.6-4.8,14.15,14.15,0,0,1,1.1-8.24,14.44,14.44,0,0,1,4.8-6.59,6,6,0,0,1,6-.89,6,6,0,0,1,3.69,5.06,14.94,14.94,0,0,1-1.16,7.85,14.28,14.28,0,0,1-4.92,6.75,7,7,0,0,1-3.82,1.28Zm4-20.7a6,6,0,0,0-3.45,1.21,13.8,13.8,0,0,0-4.55,6.29,13.36,13.36,0,0,0-1.06,7.83c.48,2.23,1.53,3.64,3.17,4.3a5.43,5.43,0,0,0,5.32-.78,13.62,13.62,0,0,0,4.67-6.43,14.49,14.49,0,0,0,1.11-7.51,5.23,5.23,0,0,0-3.27-4.52,5.17,5.17,0,0,0-1.94-.39Zm-4.43,19.88h0a3.7,3.7,0,0,1-1.44-.29c-1.35-.56-2.16-1.82-2.4-3.76s.36-4.51,1.72-7.81c1.24-3.09,2.6-5.28,4-6.52s3-1.64,4.43-1.06a4,4,0,0,1,2.51,4.19,19.94,19.94,0,0,1-1.72,7.16c-1.43,3.51-2.81,5.78-4.23,6.92a4.62,4.62,0,0,1-2.91,1.17Zm5-19a4.1,4.1,0,0,0-2.62,1.17,16.77,16.77,0,0,0-3.87,6.25c-1.29,3.21-1.86,5.72-1.66,7.48s.85,2.75,2,3.21a3.46,3.46,0,0,0,3.67-.79c1.3-1.05,2.65-3.28,4-6.64a20,20,0,0,0,1.69-6.91,3.39,3.39,0,0,0-2.09-3.55,2.93,2.93,0,0,0-1.11-.22Z"/><path class="cls-5" d="M163.16,343.65A5.15,5.15,0,0,1,161,347a5.34,5.34,0,0,1-3.35.82l1.41,9.69a1.62,1.62,0,0,0,.38.79,1.34,1.34,0,0,0,.61.33l.72.19-.17.7-3.34-.81-1.65-11.26-2.52-.62-2.1,8.57a.94.94,0,0,0,.11.79,1,1,0,0,0,.67.41l.65.17-.17.72L147,356.22l.16-.71.68.16A.86.86,0,0,0,149,355l4.16-17a1,1,0,0,0,0-.77,1.08,1.08,0,0,0-.72-.42l-.66-.16.17-.72,6.73,1.65a6.64,6.64,0,0,1,3.89,2.21A4.42,4.42,0,0,1,163.16,343.65Zm-9.95,2.48,2.58.63a4.25,4.25,0,0,0,3.19-.35,4.44,4.44,0,0,0,2-3.05,4.64,4.64,0,0,0-.28-3.42,4.36,4.36,0,0,0-3-1.92l-1.29-.32a1.18,1.18,0,0,0-.82.05.85.85,0,0,0-.47.64Z"/><path class="cls-5" d="M160.8,360l-3.9-.94-1.64-11.27-2-.48-2,8.25a.56.56,0,0,0,.06.51.84.84,0,0,0,.46.28l1,.25-.34,1.37-5.9-1.44.33-1.38,1,.24a.82.82,0,0,0,.55,0,.76.76,0,0,0,.27-.45l4.16-17.05a.72.72,0,0,0,0-.51.85.85,0,0,0-.51-.27l-1-.24.34-1.39,7.06,1.74a7,7,0,0,1,4.08,2.33,4.79,4.79,0,0,1,.68,4.23,5.49,5.49,0,0,1-2.38,3.57,5.83,5.83,0,0,1-3.13.9l1.34,9.28a1.35,1.35,0,0,0,.29.59.92.92,0,0,0,.44.25l1.06.26L160.8,360Zm-3.29-1.5,2.78.67v0l-.39-.1a1.57,1.57,0,0,1-.76-.43,1.85,1.85,0,0,1-.47-.95l-1.49-10.15.44.05a5,5,0,0,0,3.14-.78,4.81,4.81,0,0,0,2.06-3.16,4,4,0,0,0-.54-3.64,6.38,6.38,0,0,0-3.7-2.09l-6.4-1.57v.06l.33.07a1.36,1.36,0,0,1,.94.6,1.3,1.3,0,0,1,.07,1l-4.15,17a1.45,1.45,0,0,1-.54.86,1.4,1.4,0,0,1-1.11.1l-.33-.09V356l4.57,1.12v0l-.33-.08a1.43,1.43,0,0,1-.86-.55,1.26,1.26,0,0,1-.16-1.06l2.18-8.91,3.07.74,1.65,11.27ZM157,347.26h0a5.28,5.28,0,0,1-1.28-.16l-2.91-.71,2-8.08a1.21,1.21,0,0,1,.66-.86,1.47,1.47,0,0,1,1-.08l1.29.31a4.73,4.73,0,0,1,3.22,2.1,4.92,4.92,0,0,1,.31,3.66,4.8,4.8,0,0,1-2.15,3.27,4.38,4.38,0,0,1-2.15.55Zm-3.36-1.38,2.24.56a4.94,4.94,0,0,0,1.12.13h0a3.8,3.8,0,0,0,1.83-.46,4.19,4.19,0,0,0,1.82-2.83,4.33,4.33,0,0,0-.26-3.17,4.1,4.1,0,0,0-2.78-1.77l-1.29-.31a.83.83,0,0,0-.59,0,.54.54,0,0,0-.28.42l-1.81,7.4Z"/><path class="cls-5" d="M315.46,285.05a5.13,5.13,0,0,1,2.08,3.47,5.27,5.27,0,0,1-.72,3.37l9.32,3a1.66,1.66,0,0,0,.89,0,1.27,1.27,0,0,0,.57-.4l.47-.57.56.47L326.46,297l-10.86-3.42-1.66,2,6.81,5.63a.88.88,0,0,0,.75.25,1.08,1.08,0,0,0,.65-.42l.44-.52.58.47-3.45,4.15-.58-.47.45-.53a1,1,0,0,0,.33-.77,1,1,0,0,0-.42-.64L306,291.53a1,1,0,0,0-.72-.29,1.14,1.14,0,0,0-.7.46l-.43.52-.57-.47,4.42-5.33a6.72,6.72,0,0,1,3.68-2.54A4.43,4.43,0,0,1,315.46,285.05Zm-2.09,10.05,1.68-2a4.28,4.28,0,0,0,1.08-3,4.44,4.44,0,0,0-1.87-3.12,4.55,4.55,0,0,0-3.2-1.23,4.31,4.31,0,0,0-3,1.85l-.85,1a1.19,1.19,0,0,0-.31.76.86.86,0,0,0,.37.7Z"/><path class="cls-5" d="M319.76,305.61l-1.1-.91.68-.8a.79.79,0,0,0,.23-.5.72.72,0,0,0-.3-.43l-13.51-11.18a.8.8,0,0,0-.46-.22.78.78,0,0,0-.47.34l-.66.8-1.09-.91,4.63-5.6a7.1,7.1,0,0,1,3.89-2.65,4.83,4.83,0,0,1,4.1,1.24,5.55,5.55,0,0,1,2.18,3.69,5.85,5.85,0,0,1-.56,3.22l8.93,2.82a1.48,1.48,0,0,0,.66,0,.89.89,0,0,0,.42-.3l.69-.83,1.09.9-2.54,3.09L315.71,294l-1.29,1.56,6.54,5.41a.69.69,0,0,0,.41.19.74.74,0,0,0,.53-.32l.65-.78,1.1.9-3.89,4.69Zm-.13-1,.05,0,3-3.62,0,0-.23.26a1.42,1.42,0,0,1-.87.54h-.18a1.32,1.32,0,0,1-.84-.33l-7.07-5.85,2-2.44,10.85,3.42,1.82-2.2,0,0-.26.31a1.51,1.51,0,0,1-.71.51,2,2,0,0,1-1.06,0l-9.79-3.09.25-.37a5.2,5.2,0,0,0,.66-3.17,4.83,4.83,0,0,0-1.94-3.23,4.17,4.17,0,0,0-3.52-1.1,6.43,6.43,0,0,0-3.5,2.41l-4.2,5.08,0,0,.21-.26a1.4,1.4,0,0,1,.94-.59,1.19,1.19,0,0,1,1,.37l13.51,11.18a1.41,1.41,0,0,1,.55.87,1.44,1.44,0,0,1-.4,1l-.23.27Zm-6.21-9L307,290.28a1.25,1.25,0,0,1-.5-1,1.58,1.58,0,0,1,.4-1l.84-1a4.78,4.78,0,0,1,3.29-2h.22a5,5,0,0,1,3.21,1.32,4.71,4.71,0,0,1,2,3.36,4.54,4.54,0,0,1-1.15,3.26l-1.9,2.32ZM311.26,286h-.18a4.1,4.1,0,0,0-2.81,1.73l-.85,1a.94.94,0,0,0-.22.54.58.58,0,0,0,.24.44l5.88,4.87,1.48-1.78a3.94,3.94,0,0,0,1-2.79,4.12,4.12,0,0,0-1.75-2.87,4.39,4.39,0,0,0-2.78-1.17Z"/><path class="cls-5" d="M179,360.46a.84.84,0,0,0,.25.77,1.47,1.47,0,0,0,.82.34l.52.06-.08.73-5.37-.63.09-.73.62.07a1.25,1.25,0,0,0,.88-.14,1.07,1.07,0,0,0,.32-.7l1.89-16-.24,0L172.5,361.4l-.74-.08L170,343.58l-.24,0L168,359.14a.87.87,0,0,0,.22.76,1.2,1.2,0,0,0,.76.34l.37.05-.09.73-3.65-.43.09-.73.36,0a1.23,1.23,0,0,0,.87-.14,1,1,0,0,0,.34-.7l2.06-17.42a1.05,1.05,0,0,0-.13-.76,1.11,1.11,0,0,0-.76-.34l-.45-.05.09-.73,3.41.41L173,356.4l.25,0L178.85,341l4.15.5-.09.73-.52-.07a1.44,1.44,0,0,0-.88.14.9.9,0,0,0-.41.7Z"/><path class="cls-5" d="M180.84,362.74l-6.05-.71.18-1.41.94.11a1,1,0,0,0,.64-.07.69.69,0,0,0,.19-.47l1.68-14.06-5.69,15.66-1.27-.16-1.56-16-1.6,13.54a.57.57,0,0,0,.11.49.8.8,0,0,0,.56.23l.7.09-.16,1.41-4.33-.52.16-1.41.71.09a1,1,0,0,0,.63-.07.7.7,0,0,0,.19-.47l2.07-17.42a1,1,0,0,0-.07-.52.8.8,0,0,0-.52-.2l-.78-.09.15-1.41,4,.48,1.51,15.57,5.36-14.76,4.77.57-.17,1.4-.86-.1a1.15,1.15,0,0,0-.67.1.5.5,0,0,0-.25.44l-2.06,17.41c0,.29.05.42.13.48a1.07,1.07,0,0,0,.62.26l.87.1-.16,1.41Zm-5.28-1.31,4.69.56v-.06l-.2,0a1.68,1.68,0,0,1-1-.44,1.13,1.13,0,0,1-.34-1.05L180.76,343a1.19,1.19,0,0,1,.58-.95,1.7,1.7,0,0,1,1.09-.18l.18,0v-.05l-3.56-.42L173.5,356.8l-.79-.09-1.58-16.24-2.8-.33v.05h.12a1.33,1.33,0,0,1,1,.47,1.44,1.44,0,0,1,.21,1l-2.06,17.41a1.35,1.35,0,0,1-.47.94,1.47,1.47,0,0,1-1.13.21h0v.06l3,.35v-.05h0a1.65,1.65,0,0,1-1-.43,1.28,1.28,0,0,1-.31-1l1.89-15.93.85.11L172.08,361l.19,0,6.24-17.17.86.1-1.94,16.29a1.32,1.32,0,0,1-.46.93,1.42,1.42,0,0,1-1.13.21l-.27,0v.06Z"/><path class="cls-5" d="M285.83,309.74l-.44-.58,3.48-2.75.47.58-.39.3a1.38,1.38,0,0,0-.49.86,2.59,2.59,0,0,0,.3,1.48l7.53,17.65-.58.45-15-11.73a3.1,3.1,0,0,0-1.13-.74,1,1,0,0,0-1,.24l-.48.38-.47-.58,4.11-3.25.47.58-.4.3a.85.85,0,0,0-.39.78,1.62,1.62,0,0,0,.57.81l11.32,8.83.19-.15L288,310.25a1.73,1.73,0,0,0-.8-1,1,1,0,0,0-1,.28Z"/><path class="cls-5" d="M295.71,328.16l-15.23-11.88a3,3,0,0,0-1-.69.7.7,0,0,0-.68.17l-.74.59-.88-1.11,4.64-3.67.88,1.12-.65.51c-.22.17-.3.32-.28.44a1.21,1.21,0,0,0,.46.63l10.64,8.31-5.19-12.19a1.43,1.43,0,0,0-.59-.83c-.2-.07-.42,0-.71.23l-.55.43-.88-1.11,4-3.19.88,1.12-.65.52a1,1,0,0,0-.38.65,2.24,2.24,0,0,0,.29,1.28l7.62,17.89-1,.78Zm-16.45-13.28a1.65,1.65,0,0,1,.38.05,3.29,3.29,0,0,1,1.26.83l14.81,11.54.16-.13-7.42-17.42a2.78,2.78,0,0,1-.33-1.67,1.74,1.74,0,0,1,.62-1.06l.11-.09,0,0-3,2.33.05,0h0a1.33,1.33,0,0,1,1.37-.32,2,2,0,0,1,1,1.2l5.62,13.17-.61.48-11.55-9a1.75,1.75,0,0,1-.66-1,1.06,1.06,0,0,1,.5-1.12l.13-.09,0,0-3.57,2.83,0,0,.21-.17a1.46,1.46,0,0,1,.92-.34Z"/><path class="cls-5" d="M208.48,360.07a.94.94,0,0,0,.37.71,1.35,1.35,0,0,0,.82.17l3.3-.32a4.53,4.53,0,0,0,2.83-1.32,6.55,6.55,0,0,0,1.51-3.41l.64.18-.64,4.87-12.58,1.21-.06-.72.85-.09a1.15,1.15,0,0,0,.83-.33,1,1,0,0,0,.17-.76l-1.69-17.45a1,1,0,0,0-.34-.71,1.4,1.4,0,0,0-.93-.16l-.77.08-.08-.73,5.87-.57.06.73-.85.09a1.24,1.24,0,0,0-.78.32.88.88,0,0,0-.23.76Z"/><path class="cls-5" d="M204.42,362.54l-.13-1.42,1.2-.11a1,1,0,0,0,.6-.21.74.74,0,0,0,.1-.5l-1.7-17.47a.59.59,0,0,0-.21-.45,1,1,0,0,0-.69-.09l-1.11.1-.13-1.4,6.54-.64.13,1.41-1.2.12a.91.91,0,0,0-.57.22.58.58,0,0,0-.13.49l1.69,17.46a.53.53,0,0,0,.23.44.81.81,0,0,0,.46.13h.14l3.29-.32a4.09,4.09,0,0,0,2.62-1.23,6,6,0,0,0,1.43-3.23l.06-.37,1.29.37-.72,5.43-13.19,1.28Zm.62-.8v.05l12-1.16.56-4.21a6.48,6.48,0,0,1-1.52,3.12,4.67,4.67,0,0,1-3,1.42l-3.31.33a1.53,1.53,0,0,1-1-.23,1.24,1.24,0,0,1-.53-.95l-1.69-17.46a1.24,1.24,0,0,1,.33-1,1.6,1.6,0,0,1,1-.41l.5-.05v0l-5.17.5v0l.44,0a1.58,1.58,0,0,1,1.17.22,1.26,1.26,0,0,1,.46.95l1.69,17.45a1.31,1.31,0,0,1-.24,1,1.54,1.54,0,0,1-1.06.44l-.51.05Z"/><path class="cls-5" d="M292.37,304.28l-.5-.52,8.65-8.35,3.87,2.07-.27.6a9.18,9.18,0,0,0-3.43-.54,3.74,3.74,0,0,0-2.4,1L295.83,301a1.2,1.2,0,0,0-.42.73.9.9,0,0,0,.3.74l5.27,5.47,2.57-2.46a2.32,2.32,0,0,0,.85-1.68,2.68,2.68,0,0,0-.88-1.71l-.52-.53.54-.51,4.94,5.12-.53.51-.33-.34a3.28,3.28,0,0,0-1.79-1.07,2.16,2.16,0,0,0-1.77.74l-2.57,2.46,6.39,6.62a.85.85,0,0,0,.72.32,1.21,1.21,0,0,0,.75-.38l2.3-2.21a4.78,4.78,0,0,0,1.53-2.92,6.8,6.8,0,0,0-.81-3.74l.61-.25,2.38,4.37-8.94,8.6-.51-.53.49-.47a1,1,0,0,0,.41-.74,1,1,0,0,0-.35-.68l-12.17-12.64a1,1,0,0,0-.69-.35,1.21,1.21,0,0,0-.79.42Z"/><path class="cls-5" d="M306.42,319.34l-1-1,.75-.73a.75.75,0,0,0,.29-.47.77.77,0,0,0-.24-.46L294.05,304a.81.81,0,0,0-.46-.26,1,1,0,0,0-.53.33l-.7.67-1-1,9.08-8.75,4.37,2.34-.53,1.17-.28-.1a8.94,8.94,0,0,0-3.3-.51,3.32,3.32,0,0,0-2.19.93l-2.47,2.39a.9.9,0,0,0-.31.53.56.56,0,0,0,.21.46l5,5.23,2.3-2.23a2,2,0,0,0,.76-1.43,2.41,2.41,0,0,0-.79-1.48l-.74-.77,1-1,5.41,5.61-1,1-.57-.59a2.91,2.91,0,0,0-1.59-1,1.84,1.84,0,0,0-1.49.64L302,308.45l6.14,6.38a.64.64,0,0,0,.41.22,1,1,0,0,0,.58-.29l2.31-2.21a4.56,4.56,0,0,0,1.42-2.72,6.62,6.62,0,0,0-.76-3.55l-.16-.33,1.23-.5,2.62,4.86-9.35,9Zm0-1,0,0,8.5-8.19-2.06-3.82a6.76,6.76,0,0,1,.66,3.56,5.21,5.21,0,0,1-1.63,3.12l-2.29,2.21a1.58,1.58,0,0,1-1,.47,1.29,1.29,0,0,1-1-.42L301,308.43l2.81-2.7a2.48,2.48,0,0,1,2.07-.82,3.57,3.57,0,0,1,2,1.17l.09.08,0,0-4.47-4.63,0,0,.28.28a3.16,3.16,0,0,1,1,1.95,2.67,2.67,0,0,1-1,1.93L301,308.4l-5.52-5.73a1.16,1.16,0,0,1-.37-1,1.5,1.5,0,0,1,.49-.93l2.47-2.38a4,4,0,0,1,2.62-1.14,9.08,9.08,0,0,1,3.26.46v0l-3.36-1.81-8.23,7.93,0,0,.2-.18a1.55,1.55,0,0,1,1-.51,1.32,1.32,0,0,1,.93.46l12.18,12.63a1.45,1.45,0,0,1,.45.92,1.37,1.37,0,0,1-.52,1l-.25.24Z"/><path class="cls-5" d="M351.46,252.48l-2.35,5.94-.68-.27.41-1a1.2,1.2,0,0,0,.08-.89,1,1,0,0,0-.59-.49l-16.1-6.33a2.36,2.36,0,0,0-1.06-.29c-.11,0-.27.34-.49.87a3.55,3.55,0,0,0-.27,2.45,10,10,0,0,0,2.56,2.79l-.38.64-3.93-2.73,4.27-10.84,4.68.79-.1.62a15.86,15.86,0,0,0-3.7.2c-.56.17-1,.79-1.46,1.86-.3.76-.43,1.19-.37,1.3s.4.29,1.1.56l16,6.28a.92.92,0,0,0,.8,0,1.23,1.23,0,0,0,.52-.65l.41-1Z"/><path class="cls-5" d="M349.32,258.86l-1.34-.52.54-1.34a1,1,0,0,0,.09-.63.7.7,0,0,0-.41-.32l-16.09-6.32a3.57,3.57,0,0,0-.84-.27,6.86,6.86,0,0,1-.26.65,3.29,3.29,0,0,0-.3,2.2,9.7,9.7,0,0,0,2.48,2.67l.23.19-.72,1.2-4.46-3.1,4.46-11.35,5.31.9-.22,1.24h-.28a14.81,14.81,0,0,0-3.58.18c-.46.14-.89.72-1.27,1.66a7.06,7.06,0,0,0-.34,1,4.72,4.72,0,0,0,.87.4l16,6.27a.51.51,0,0,0,.48,0,1,1,0,0,0,.39-.49l.53-1.34,1.31.51-2.57,6.58Zm-.44-.91,0,0,2.07-5.29,0,0-.27.71a1.5,1.5,0,0,1-.67.82,1.22,1.22,0,0,1-1.09,0L333,248c-1.08-.42-1.22-.58-1.3-.75s-.07-.37.38-1.56,1-1.85,1.7-2.06a13.8,13.8,0,0,1,3.41-.22l-4-.67L329.08,253l3.4,2.38,0-.08a9.87,9.87,0,0,1-2.45-2.74,3.86,3.86,0,0,1,.29-2.7c.3-.78.47-1,.65-1.06l.22,0a3.48,3.48,0,0,1,1.13.32l16.08,6.32a1.34,1.34,0,0,1,.78.68,1.43,1.43,0,0,1-.07,1.15l-.28.71Z"/><path class="cls-5" d="M339.16,228.37a1.31,1.31,0,0,0-1.11-.09,1.49,1.49,0,0,0-.64,1l-.07.24-.71-.18,1.22-4.75.71.17-.08.37a1.62,1.62,0,0,0,.13,1.18,3.37,3.37,0,0,0,1,1.16l8.45,6.06,6.89,1.77a.84.84,0,0,0,.79-.12,1.11,1.11,0,0,0,.44-.71l.28-1.07.72.19-1.59,6.18-.72-.19.28-1.07a1.14,1.14,0,0,0,0-.89,1,1,0,0,0-.65-.42l-6.18-1.58-11.51,1.46a3.21,3.21,0,0,0-1.12.37,1.32,1.32,0,0,0-.58.87l-.07.23-.7-.18,1.35-5.31.71.18-.18.71c-.12.48-.07.78.14.93a1.89,1.89,0,0,0,1.11.15l9.65-1,.07-.25Z"/><path class="cls-5" d="M355.86,240.22l-1.38-.35.36-1.4c.09-.4.05-.57,0-.63a.63.63,0,0,0-.44-.27L348.24,236l-11.4,1.48a2.36,2.36,0,0,0-1,.31,1,1,0,0,0-.44.66l-.15.57-1.37-.35,1.53-6,1.38.35-.28,1c-.08.34-.07.52,0,.56a1.69,1.69,0,0,0,.9.1l9.09-.93L339,228.67a1,1,0,0,0-.78-.08,1.3,1.3,0,0,0-.46.82l-.14.56-1.38-.34,1.39-5.42,1.37.36-.18.68a1.43,1.43,0,0,0,.11.95,3.59,3.59,0,0,0,1,1l8.43,6.06,6.78,1.71a.58.58,0,0,0,.5-.06.92.92,0,0,0,.31-.52l.37-1.4,1.36.34-1.74,6.85Zm-.55-.84h.06l1.4-5.51,0,0-.19.73a1.46,1.46,0,0,1-.56.91,1.24,1.24,0,0,1-1.08.17L348,233.9l-8.57-6.1a4.24,4.24,0,0,1-1.14-1.29,2,2,0,0,1-.17-1.42v0l-.06,0-1,4.09h0a1.72,1.72,0,0,1,.82-1.16,1.64,1.64,0,0,1,1.39.08l8.26,5.62-.16.72-9.91,1a2.05,2.05,0,0,1-1.33-.21c-.36-.23-.44-.67-.28-1.3l.1-.38h-.06l-1.18,4.66h.05a1.6,1.6,0,0,1,.74-1,3.42,3.42,0,0,1,1.23-.4l11.5-1.47,6.32,1.59a1.32,1.32,0,0,1,.86.58,1.51,1.51,0,0,1,.06,1.15l-.19.74Z"/></g></g></svg>