<svg xmlns="http://www.w3.org/2000/svg" xmlns:xlink="http://www.w3.org/1999/xlink" width="317" height="317" viewBox="0 0 317 317" fill="none">
<g  clip-path="url(#clip-path-h-cRy3VGT8ZXvXRT8lK97)">
<path d="M158.005 27.8265C85.8374 28.0973 27.5514 86.8235 27.8259 158.995C28.098 231.161 86.8252 289.447 158.995 289.169C231.165 288.9 289.448 230.173 289.175 158.007C288.901 85.8358 230.176 27.552 158.005 27.8265Z"   fill="#ADE0EE" >
</path>
<path d="M143.258 244.837L133.639 244.873L133.633 243.06L134.227 243.057C134.78 243.054 135.256 242.905 135.65 242.608C136.024 242.291 136.212 241.843 136.21 241.268L136.177 232.513C136.172 231.405 135.556 230.851 134.329 230.857L133.587 230.861L133.58 229.051C135.459 228.764 137.187 228.026 138.767 226.834L140.638 226.825L140.693 241.252C140.693 241.807 140.884 242.242 141.262 242.558C141.638 242.872 142.114 243.029 142.688 243.029L143.251 243.023L143.258 244.837Z"   fill="#006092" >
</path>
<path d="M159.487 234.057C159.498 237.127 158.17 239.691 155.509 241.759C153.397 243.412 150.768 244.552 147.624 245.176L146.044 243.671C150.573 242.188 153.266 240.038 154.126 237.223C153.277 237.721 152.207 237.969 150.921 237.979C149.319 237.986 147.952 237.474 146.82 236.451C145.688 235.402 145.119 234.084 145.111 232.48C145.106 230.699 145.831 229.231 147.293 228.077C148.634 227.004 150.214 226.461 152.037 226.459C154.33 226.449 156.144 227.112 157.476 228.452C158.807 229.774 159.478 231.643 159.487 234.057ZM154.56 234.459C154.555 232.762 154.479 231.531 154.338 230.782C153.995 229.196 153.31 228.409 152.28 228.412C151.509 228.418 150.916 228.748 150.505 229.401C150.069 230.057 149.855 230.896 149.861 231.925C149.863 232.993 150.106 233.876 150.583 234.564C151.041 235.257 151.666 235.598 152.456 235.595C152.733 235.595 153.1 235.479 153.554 235.241C153.988 235.019 154.324 234.757 154.56 234.459Z"   fill="#006092" >
</path>
<path d="M172.965 226.316L171.786 228.578C171.177 229.708 170.229 230.276 168.943 230.276L164.371 230.299L163.695 231.815C166.408 232.514 168.271 233.155 169.281 233.72C171.305 234.822 172.32 236.343 172.328 238.283C172.335 240.56 171.285 242.314 169.171 243.548C167.413 244.585 165.307 245.108 162.853 245.119C162.14 245.126 161.458 245.034 160.803 244.859C159.893 244.585 159.437 244.189 159.434 243.678C159.432 243.259 159.639 242.812 160.052 242.338C160.446 241.862 160.851 241.623 161.267 241.621C161.701 241.621 162.366 241.786 163.258 242.12C164.15 242.455 164.843 242.616 165.337 242.616C165.991 242.612 166.653 242.39 167.324 241.955C168.074 241.473 168.449 240.933 168.446 240.314C168.441 238.93 167.339 237.776 165.138 236.86C163.75 236.247 162.055 235.788 160.056 235.48L163.913 226.736L169.552 226.717C170.344 226.711 170.946 226.354 171.36 225.637L172.965 226.316Z"   fill="#006092" >
</path>
<path d="M184.938 244.677L175.319 244.712L175.314 242.904L175.909 242.899C176.463 242.898 176.935 242.746 177.332 242.449C177.705 242.132 177.892 241.684 177.89 241.11L177.857 232.351C177.852 231.247 177.236 230.696 176.011 230.699L175.267 230.708L175.262 228.89C177.14 228.608 178.867 227.865 180.447 226.672L182.318 226.668L182.373 241.097C182.373 241.65 182.565 242.083 182.942 242.399C183.319 242.712 183.795 242.872 184.369 242.866L184.933 242.866L184.938 244.677Z"   fill="#006092" >
</path>
<path d="M202.862 146.788C202.862 146.788 194.379 162.152 190.996 165.585C196.094 163.863 197.812 165.557 197.812 165.557C191.177 177.84 183.007 180.712 173.79 176.491C169.419 174.471 168.94 171.89 167.115 167.346C165.878 164.276 164.437 159.859 163.715 132.591L163.637 132.591C163.587 131.615 163.524 129.516 163.459 126.805L152.837 126.848C152.699 129.935 152.579 132.24 152.521 133.004L152.554 133.004C151.962 159.915 150.874 164.639 149.845 167.92C148.609 171.888 147.94 175.248 143.158 176.761C134.444 179.531 125.35 177.884 117.644 165.864C117.644 165.864 121.039 164.143 124.457 165.834C121.028 160.728 114.161 147.123 114.161 147.123C114.161 147.123 105.671 157.383 105.722 171.022C107.416 169.307 109.118 167.597 110.819 167.589C119.447 191.445 150.994 188.355 158.723 203.427C165.723 188.548 197.908 191.15 204.645 167.236C205.783 167.234 207.491 168.365 209.771 170.63C209.72 156.989 202.862 146.788 202.862 146.788Z"   fill="#006092" >
</path>
<path d="M173.421 111.073L159.79 116.186L156.839 116.202L143.169 111.189L113.509 116.759L113.519 118.966L143.771 118.847L152.852 121.236L153.208 121.764L151.057 124.367L165.635 124.314L163.466 121.725L163.815 121.19L172.879 118.74L203.133 118.622L203.123 116.421L173.421 111.073Z"   fill="#006092" >
</path>
<path d="M162.922 88.6517L162.917 87.5093C165.407 85.931 167.062 83.1502 167.051 79.9846C167.032 75.0824 163.045 71.1256 158.145 71.1444C153.246 71.1631 149.286 75.1512 149.304 80.0521C149.316 83.2203 150.991 85.9849 153.494 87.5432L153.499 88.6879L138.15 88.7482L138.168 93.0509C140.174 93.2352 149.617 94.1167 151.784 94.7722C154.208 95.5096 154.836 98.1098 154.836 98.1098L153.92 112.905L162.684 112.874L161.658 98.0808C161.658 98.0808 162.268 95.4806 164.686 94.7247C166.846 94.0489 176.285 93.0999 178.287 92.9004L178.271 88.5952L162.922 88.6517ZM158.16 75.4172C160.703 75.4046 162.769 77.4608 162.779 79.9995C162.789 82.5396 160.736 84.6133 158.196 84.6207C155.653 84.6271 153.587 82.5735 153.579 80.0398C153.568 77.4957 155.618 75.4272 158.16 75.4172Z"   fill="#006092" >
</path>
<path d="M211.227 189.13C198.098 195.467 197.908 206.32 182.809 209.066C187.197 208.579 194.245 212.206 201.959 213.089C210.753 214.099 220.451 211.823 228.68 200.417C215.6 209.746 211.623 202.664 193.89 208.56C208.138 204.212 206.761 194.241 211.227 189.13Z"   fill="#006092" >
</path>
<path d="M204.499 204.724C212.915 198.714 212.804 180.415 223.278 171.326C219.66 177.707 221.06 193.35 212.19 199.824C222.586 190.393 237.575 189.491 242.25 178.618C242.25 178.618 239.424 202.176 204.499 204.724Z"   fill="#006092" >
</path>
<path d="M220.898 191.053C228.14 179.02 221.621 168.337 228.624 154.434C226.892 163.378 234.607 164.306 228.687 181.471C232.328 170.798 245.397 168.982 247.917 156.549C248.945 164.295 248.224 176.26 220.898 191.053Z"   fill="#006092" >
</path>
<path d="M233.895 170.538C235.209 159.559 227.117 150.856 228.092 134.733C230.811 146.216 239.484 150.413 236.458 162.072C239.861 144.825 246.753 141.804 245.434 130.516C247.286 134.904 254.445 149.556 233.895 170.538Z"   fill="#006092" >
</path>
<path d="M237.922 148.5C236.563 137.67 223.316 132.151 223.084 118.334C227.97 128.854 232.919 124.04 237.22 137.012C235.555 124.278 241.942 119.935 237.113 108.768C244.745 117.29 247.108 124.766 237.922 148.5Z"   fill="#006092" >
</path>
<path d="M215.213 102.099C217.762 117.549 230.298 117.938 235.195 127.524C233.348 117.118 240.906 104.055 224.981 96.8887C231.301 103.411 227.71 110.222 231.919 118.306C225.206 107.796 219.548 111.432 215.213 102.099Z"   fill="#006092" >
</path>
<path d="M227.523 110.405C214.279 102.726 215.299 92.374 207.681 89.0966C225.588 93.457 222.824 102.944 227.523 110.405Z"   fill="#006092" >
</path>
<path d="M165.872 208.588C154.208 209.825 143.792 219.036 140.08 222.681L147.941 222.652C151.111 219.217 155.264 215.576 161.473 212.836C168.208 210.337 177.152 214.819 184.499 219.293C200.901 228.733 211.418 218.961 214.736 214.501C198.437 223.993 181.716 206.928 165.872 208.588Z"   fill="#006092" >
</path>
<path d="M106.012 189.529C119.187 195.767 119.458 206.618 134.577 209.249C130.184 208.797 123.166 212.473 115.457 213.417C106.672 214.496 96.9568 212.292 88.6434 200.944C101.794 210.171 105.716 203.064 123.491 208.83C109.21 204.585 110.515 194.608 106.012 189.529Z"   fill="#006092" >
</path>
<path d="M112.855 205.071C104.397 199.124 104.367 180.828 93.8224 171.816C97.4911 178.17 96.206 193.819 105.131 200.227C94.6651 190.875 79.6674 190.085 74.9059 179.254C74.9059 179.254 77.9099 202.785 112.855 205.071Z"   fill="#006092" >
</path>
<path d="M96.3513 191.522C89.0205 179.548 95.4598 168.813 88.3524 154.967C90.1516 163.896 82.4434 164.878 88.4939 182.004C84.7728 171.356 71.6886 169.641 69.0708 157.226C68.1028 164.977 68.9165 176.936 96.3513 191.522Z"   fill="#006092" >
</path>
<path d="M83.2032 171.111C81.804 160.142 89.8294 151.377 88.7322 135.258C86.1018 146.761 77.461 151.025 80.5767 162.665C77.0397 145.441 70.1264 142.472 71.3602 131.177C69.5423 135.575 62.4937 150.282 83.2032 171.111Z"   fill="#006092" >
</path>
<path d="M79.008 149.099C80.287 138.262 93.4914 132.648 93.6183 118.822C88.8113 129.377 83.8251 124.602 79.6238 137.608C81.1896 124.861 74.7703 120.568 79.5159 109.363C71.9507 117.946 69.6449 125.435 79.008 149.099Z"   fill="#006092" >
</path>
<path d="M101.368 102.53C98.9329 118 86.4041 118.48 81.5783 128.106C83.3462 117.686 75.6906 104.679 91.5595 97.3938C85.2881 103.961 88.9304 110.747 84.7816 118.865C91.4152 108.303 97.0985 111.898 101.368 102.53Z"   fill="#006092" >
</path>
<path d="M89.1197 110.932C102.306 103.149 101.205 92.8051 108.797 89.4715C90.9237 93.9649 93.7649 103.432 89.1197 110.932Z"   fill="#006092" >
</path>
<path d="M169.545 222.575L177.406 222.541C173.668 218.922 163.183 209.788 151.509 208.644C135.653 207.104 119.066 224.297 102.691 214.922C106.044 219.359 116.633 229.051 132.965 219.487C140.276 214.961 149.186 210.411 155.941 212.856C162.172 215.554 166.35 219.159 169.545 222.575Z"   fill="#006092" >
</path>
<path d="M157.902 0.00103346C70.3648 0.332004 -0.332246 71.5643 0.00129817 159.097C0.332274 246.635 71.5634 317.331 159.101 316.998C246.638 316.666 317.332 245.434 316.998 157.902C316.672 70.3632 245.437 -0.328654 157.902 0.00103346ZM158.91 266.774C99.1122 267 50.4526 218.707 50.2256 158.91C50.0001 99.1102 98.2936 50.4526 158.093 50.2243C217.891 49.9986 266.55 98.2916 266.776 158.087C267.002 217.887 218.709 266.543 158.91 266.774Z"   fill="#006092" >
</path>
<path d="M34.0908 180.326L34.373 180.27C34.4444 180.895 34.5122 181.442 34.5722 181.912C34.6339 182.382 34.6965 182.776 34.7617 183.088C34.8079 183.298 34.897 183.617 35.0336 184.055C35.1993 184.55 35.3372 184.99 35.4488 185.374L35.1867 185.433C34.9109 185.122 34.5399 184.95 34.0808 184.927C33.6219 184.898 33.0629 184.936 32.4007 185.035C31.7413 185.134 30.731 185.322 29.368 185.614L23.9104 186.76C22.1715 187.128 20.7608 187.376 19.6852 187.506C18.6096 187.639 17.6442 187.622 16.7914 187.464C16.2099 187.353 15.6807 187.122 15.2044 186.764C14.7291 186.409 14.2741 185.962 13.8453 185.428C13.5595 185.078 13.3312 184.766 13.1594 184.497C12.9902 184.224 12.8672 183.923 12.7984 183.583C12.7671 183.439 12.762 183.264 12.7794 183.064C12.7984 182.865 12.8498 182.755 12.9376 182.738C12.9663 182.728 13.0051 182.746 13.059 182.781C13.113 182.816 13.1933 182.905 13.2986 183.048L13.3287 183.083C13.7849 183.735 14.1963 184.203 14.565 184.49C14.9335 184.773 15.5001 184.95 16.2574 185.024C16.7226 185.087 17.2516 185.109 17.8373 185.087C18.424 185.065 19.022 185.014 19.6313 184.934C20.2432 184.854 20.8651 184.753 21.5006 184.633C22.1299 184.514 22.797 184.378 23.4929 184.235L25.2746 183.859C26.3628 183.63 27.4749 183.383 28.6144 183.114C29.7542 182.85 30.8537 182.578 31.917 182.299C32.8521 182.06 33.577 181.402 34.0908 180.326Z"   fill="#ADE0EE" >
</path>
<path d="M18.4515 193.736C18.3249 193.392 18.1544 192.955 17.94 192.437L18.2384 192.35C18.5393 192.635 18.8703 192.828 19.2313 192.931C19.5926 193.033 20.0037 193.025 20.4625 192.902C21.8919 192.511 24.0183 191.896 26.8443 191.059C27.9224 190.738 29.0206 190.404 30.1353 190.045C31.2499 189.688 32.3255 189.331 33.3613 188.963C33.8803 188.788 34.3142 188.568 34.6652 188.31C35.0137 188.057 35.2794 187.673 35.4689 187.159L35.7234 187.08C35.8412 187.684 35.9365 188.165 36.0104 188.519C36.0831 188.872 36.1671 189.209 36.2626 189.529C36.334 189.773 36.4757 190.177 36.6875 190.738C36.8793 191.222 37.0224 191.604 37.1199 191.883L36.8642 191.957C36.5584 191.659 36.1596 191.496 35.6656 191.477C35.1754 191.454 34.6452 191.506 34.0808 191.632C33.5293 191.755 32.96 191.897 32.3771 192.064C31.7915 192.227 31.053 192.445 30.1566 192.706L27.6215 193.456C25.6606 194.036 23.5743 194.709 21.3615 195.471C20.4063 195.8 19.8419 196.372 19.6701 197.203L19.3718 197.288C19.249 196.671 19.1473 196.177 19.0621 195.807C18.9756 195.436 18.8829 195.079 18.7776 194.733C18.6846 194.412 18.5745 194.081 18.4515 193.736Z"   fill="#ADE0EE" >
</path>
<path d="M28.2485 213.307C27.7907 213.712 27.451 214.119 27.233 214.52C27.0122 214.916 26.8895 215.354 26.8592 215.83L26.5307 215.967C26.418 215.421 26.305 214.949 26.1923 214.557C26.0781 214.165 25.954 213.807 25.8236 213.49C25.6631 213.104 25.4913 212.728 25.2995 212.362C25.109 211.996 24.8533 211.559 24.5323 211.054L24.8207 210.939C24.9159 210.899 25.1141 210.909 25.4125 210.976C25.8513 211.069 26.1723 211.073 26.3777 210.986C26.5159 210.93 26.656 210.853 26.8029 210.761C26.947 210.664 27.0422 210.59 27.0849 210.548L30.8137 207.343C30.5628 206.542 30.3122 205.835 30.0626 205.229C29.7103 204.383 29.3793 203.666 29.0622 203.09L23.7099 203.395L23.6886 203.406C23.4341 203.406 23.2433 203.42 23.1154 203.443C22.9901 203.469 22.8497 203.51 22.6992 203.57C22.386 203.702 22.1577 203.927 22.0147 204.242L21.7677 204.348C21.6637 203.898 21.5684 203.525 21.478 203.232C21.3879 202.939 21.2939 202.668 21.1922 202.421C21.0744 202.14 20.9404 201.847 20.7848 201.549C20.632 201.25 20.4112 200.874 20.1254 200.415L20.5542 200.518C20.919 200.904 21.3401 201.187 21.8167 201.374C22.2956 201.557 22.8749 201.64 23.5543 201.619L37.2404 201.128C37.3056 201.135 37.4034 201.106 37.5439 201.049C37.9549 200.88 38.3098 200.585 38.6095 200.163C38.9078 199.746 39.1361 199.26 39.2927 198.705L39.5097 198.529C39.8055 199.521 40.1116 200.4 40.4325 201.18L40.7584 201.973L38.6798 203.866L28.2485 213.307ZM31.7552 206.48L31.8153 206.455L35.9139 202.867L30.4313 203.09L30.3697 203.117C30.6457 203.868 30.8612 204.423 31.0129 204.8C31.166 205.168 31.413 205.726 31.7552 206.48Z"   fill="#ADE0EE" >
</path>
<path d="M50.5703 221.013C50.6694 221.28 50.7408 221.455 50.7873 221.535C50.9139 221.755 51.1434 222.116 51.478 222.615C51.7764 223.041 51.9997 223.373 52.1502 223.613L51.9194 223.743C51.5609 223.535 51.1396 223.472 50.6556 223.568C50.1692 223.659 49.6678 223.833 49.1447 224.079C48.6345 224.322 48.1169 224.592 47.5838 224.887C47.0549 225.182 46.3829 225.561 45.5728 226.024L43.2734 227.331C42.7997 227.602 42.1049 227.988 41.1985 228.49C39.9685 229.174 39.1161 229.652 38.6395 229.925C37.6114 230.51 36.8894 230.936 36.4793 231.202L36.2775 231.338C36.0256 231.494 35.8561 231.599 35.7634 231.656C35.5328 231.787 35.3498 231.845 35.2119 231.829C35.0763 231.815 34.9536 231.709 34.8406 231.511C34.7743 231.396 34.7618 231.231 34.8005 231.017C34.8406 230.8 34.9071 230.601 35.0036 230.408L41.4242 214.831L40.0551 215.615L37.4473 217.097C35.6581 218.115 33.7788 219.245 31.8117 220.49C30.929 221.037 30.5127 221.727 30.5602 222.561L30.2909 222.711C30.0375 222.152 29.8231 221.698 29.649 221.341C29.4746 220.989 29.299 220.662 29.1285 220.363C29.0258 220.176 28.9179 220.002 28.8127 219.85C28.7074 219.699 28.4843 219.375 28.143 218.897L28.4126 218.745C28.7523 218.949 29.1123 219.059 29.4946 219.072C29.8757 219.084 30.277 218.979 30.6932 218.756C31.9822 218.054 33.9116 216.972 36.488 215.506C36.8994 215.265 37.5539 214.904 38.4464 214.41C39.3692 213.9 40.0612 213.515 40.5214 213.251C41.4129 212.745 42.0622 212.359 42.4736 212.095L42.6089 212.018C43.0138 211.742 43.3386 211.433 43.5895 211.092C43.8365 210.752 44.0006 210.319 44.081 209.798L44.3015 209.558C44.3329 209.615 44.3742 209.703 44.4207 209.814C44.6538 210.371 44.8395 210.798 44.9835 211.092C45.1265 211.387 45.2757 211.687 45.4349 211.997L38.7247 227.781L39.9411 227.091L42.3344 225.727C43.3112 225.169 44.3041 224.589 45.307 223.991C46.31 223.383 47.2754 222.789 48.2031 222.2L48.2209 222.189C48.7223 221.876 49.1121 221.568 49.3869 221.273C49.6626 220.98 49.8306 220.57 49.8883 220.045L50.1402 219.903C50.292 220.229 50.435 220.6 50.5703 221.013Z"   fill="#ADE0EE" >
</path>
<path d="M48.103 246.802C47.9425 246.846 47.7795 246.83 47.6128 246.756C47.4485 246.678 47.1727 246.507 46.7927 246.239C46.5257 246.055 46.3277 245.923 46.1921 245.838C44.9935 245.166 43.8552 244.091 42.7694 242.626C42.0648 241.668 41.5934 240.62 41.3589 239.479C41.1245 238.337 41.1219 237.181 41.3476 236.02C41.5759 234.86 42.0173 233.758 42.6692 232.719C43.3212 231.684 44.1485 230.795 45.1517 230.057C46.1634 229.314 47.2654 228.764 48.4591 228.425C49.65 228.081 50.8499 227.963 52.0511 228.071C53.2533 228.18 54.3892 228.532 55.4625 229.123C56.5358 229.713 57.461 230.543 58.2459 231.602C58.5391 231.999 58.8301 232.463 59.121 232.993C59.4119 233.527 59.6902 234.081 59.9534 234.667C60.0564 234.905 60.1465 235.201 60.2243 235.558C60.2718 235.822 60.3245 235.992 60.3797 236.066C60.45 236.166 60.5378 236.254 60.6418 236.347C60.7484 236.465 60.8262 236.559 60.8711 236.623C60.9741 236.763 61.0267 236.877 61.0293 236.964C61.0316 237.053 61.009 237.118 60.9615 237.152C60.9363 237.171 60.8788 237.214 60.7823 237.286C60.6192 237.388 60.4775 237.484 60.3596 237.572C60.1804 237.706 59.9208 237.913 59.5773 238.2C59.3115 238.411 59.1135 238.57 58.9818 238.66C58.8401 238.768 58.6721 238.848 58.4765 238.9C58.2872 238.95 58.1268 238.888 57.9989 238.718C57.9285 238.619 57.9149 238.475 57.9599 238.285C58.0025 238.099 58.0828 237.826 58.1933 237.482C58.3399 237.055 58.4516 236.696 58.5217 236.396C58.5943 236.09 58.6121 235.807 58.5756 235.531C58.5029 234.959 58.3763 234.451 58.1982 234.01C58.0215 233.571 57.7719 233.127 57.4435 232.69C56.8591 231.895 56.1745 231.283 55.3899 230.852C54.6 230.423 53.7573 230.185 52.8571 230.137C51.9571 230.088 51.0343 230.225 50.0888 230.54C49.1437 230.857 48.2183 231.347 47.3132 232.014C46.4078 232.685 45.6231 233.457 44.9635 234.332C44.3041 235.212 43.8126 236.116 43.4953 237.058C43.1769 237.998 43.0477 238.902 43.1104 239.776C43.1743 240.648 43.449 241.411 43.9305 242.064C44.1611 242.378 44.5272 242.711 45.0325 243.068C45.534 243.427 46.1472 243.819 46.8666 244.251C46.9583 244.296 47.1001 244.273 47.2932 244.168C47.486 244.069 47.7468 243.906 48.0778 243.678L48.0956 243.665C48.2861 243.523 48.474 243.378 48.6558 243.226C49.4343 242.637 49.981 242.209 50.3007 241.939C50.836 241.492 51.196 241.12 51.3802 240.819C51.5632 240.519 51.6498 240.088 51.6436 239.533L51.8593 239.375C52.1664 239.89 52.4196 240.31 52.6191 240.627C52.8145 240.946 53.0127 241.236 53.2107 241.502C53.3362 241.675 53.5416 241.916 53.8225 242.222C54.1435 242.582 54.4396 242.922 54.7066 243.234L54.4696 243.36C54.1361 243.205 53.7874 243.205 53.4238 243.349C53.0602 243.493 52.6265 243.733 52.1225 244.075L51.8793 244.228C51.2949 244.609 50.786 244.955 50.3533 245.267C49.9209 245.576 49.3116 246.022 48.5241 246.603C48.4062 246.693 48.266 246.758 48.103 246.802Z"   fill="#ADE0EE" >
</path>
<path d="M51.5884 253.205C51.384 252.847 51.1596 252.391 50.9213 251.837C50.8134 251.606 50.7434 251.456 50.7133 251.376C50.5603 251.033 50.5302 250.739 50.6229 250.501C50.7182 250.264 50.9138 250.01 51.2109 249.74C51.2222 249.729 51.2726 249.676 51.3627 249.575C51.488 249.409 51.6449 249.222 51.8303 249.017C52.0172 248.814 52.1977 248.636 52.3733 248.473C52.5161 248.347 52.6966 248.259 52.9161 248.212C53.1354 248.168 53.3336 248.245 53.5141 248.443C53.5919 248.532 53.6081 248.659 53.5642 248.814C53.5167 248.977 53.4163 249.212 53.2659 249.529C53.0165 250.025 52.8671 250.391 52.8222 250.631C52.7256 251.183 52.7518 251.763 52.9048 252.373C53.0553 252.984 53.2659 253.437 53.5342 253.734C53.7398 253.961 53.993 254.15 54.2965 254.296C54.6 254.443 54.9433 254.536 55.3221 254.573C55.7021 254.601 56.097 254.546 56.5032 254.403C56.9117 254.26 57.3043 254.017 57.6779 253.681C58.0377 253.351 58.316 252.984 58.5065 252.579C58.6996 252.175 58.8226 251.739 58.8801 251.283C58.9379 250.829 58.9605 250.372 58.9479 249.916C58.9353 249.462 58.8978 248.892 58.8413 248.206C58.7774 247.476 58.7374 246.863 58.7222 246.374C58.7096 245.88 58.7399 245.383 58.82 244.871C58.8953 244.362 59.0483 243.873 59.2776 243.407C59.502 242.938 59.8255 242.518 60.2443 242.139C60.6618 241.763 61.1358 241.461 61.6686 241.233C62.1989 241.001 62.7643 240.874 63.3587 240.848C63.9554 240.823 64.5522 240.933 65.154 241.178C65.7559 241.425 66.3151 241.836 66.8366 242.406C67.0672 242.666 67.3456 243.072 67.6665 243.625C67.9174 244.081 68.1154 244.387 68.2584 244.545C68.2671 244.554 68.2959 244.564 68.3449 244.575C68.4615 244.614 68.5729 244.67 68.6872 244.738C68.7999 244.807 68.9303 244.926 69.0834 245.092C69.2087 245.236 69.2701 245.353 69.2626 245.457C69.2564 245.562 69.2313 245.636 69.1887 245.672C68.9142 245.922 68.5367 246.308 68.0527 246.834C67.6039 247.31 67.2603 247.658 67.0184 247.876C66.9545 247.938 66.8467 247.978 66.7062 247.998C66.5632 248.019 66.433 247.959 66.3062 247.82C66.1721 247.671 66.1321 247.476 66.1796 247.233C66.2299 246.99 66.33 246.675 66.4805 246.285C66.6184 245.912 66.6949 245.666 66.7062 245.546C66.7188 245.029 66.641 244.556 66.4705 244.121C66.3013 243.695 66.0769 243.325 65.8011 243.019C65.4624 242.645 64.9684 242.455 64.3216 242.444C63.6758 242.438 63.1155 242.645 62.6441 243.075C62.0597 243.602 61.7187 244.252 61.6186 245.035C61.5169 245.818 61.5107 246.892 61.6009 248.246C61.6509 249.008 61.6787 249.654 61.6848 250.177C61.6912 250.706 61.6499 251.249 61.5608 251.814C61.473 252.38 61.3051 252.919 61.0593 253.427C60.811 253.938 60.4662 254.402 60.0261 254.816C59.531 255.265 58.9731 255.615 58.355 255.871C57.7344 256.125 57.0861 256.25 56.4028 256.247C55.7234 256.247 55.0337 256.085 54.3391 255.771C53.6446 255.453 52.9939 254.959 52.3857 254.284C52.0547 253.921 51.7889 253.558 51.5884 253.205Z"   fill="#ADE0EE" >
</path>
<path d="M62.1727 264.178C61.7613 263.644 61.4581 263.033 61.2699 262.35C61.0807 261.667 61.0994 260.918 61.3277 260.088C61.5534 259.267 62.0674 258.406 62.8647 257.508L63.8977 256.347C64.5173 255.626 64.9284 255.154 65.1389 254.921C65.4298 254.607 65.9716 254.027 66.7689 253.192C67.486 252.423 68.0602 251.801 68.489 251.334C68.8087 250.982 69.2475 250.482 69.8054 249.826C70.1564 249.402 70.4099 248.987 70.5716 248.585C70.7308 248.179 70.7583 247.712 70.6543 247.174L70.8323 246.978C71.2575 247.44 71.5897 247.805 71.8365 248.07C72.0835 248.335 72.3305 248.58 72.5762 248.8C72.7745 248.982 73.108 249.256 73.5818 249.627C73.9957 249.945 74.304 250.188 74.512 250.358L74.3341 250.556C73.9292 250.465 73.5091 250.539 73.0777 250.778C72.6453 251.013 72.2204 251.334 71.8003 251.733C71.3928 252.124 70.9814 252.542 70.5678 252.983C70.1541 253.427 69.6324 253.996 69.0056 254.684L67.2252 256.641C66.9268 256.971 66.6259 257.305 66.3262 257.646C66.0278 257.983 65.6306 258.442 65.1289 259.03C64.4621 259.806 63.9906 260.491 63.7136 261.092C63.4388 261.696 63.311 262.219 63.3336 262.669C63.3561 263.123 63.4766 263.516 63.6997 263.858C63.9203 264.199 64.2312 264.551 64.6362 264.921C65.1892 265.424 65.6781 265.791 66.1095 266.02C66.5406 266.253 66.9946 266.346 67.476 266.299C67.9575 266.261 68.4967 266.04 69.0983 265.65C69.7027 265.252 70.3947 264.643 71.1846 263.816C71.4706 263.524 71.8152 263.154 72.2152 262.717L72.9324 261.927C73.0603 261.78 73.5142 261.295 74.294 260.463C74.8104 259.896 75.2844 259.372 75.7132 258.902C76.5408 257.99 77.1437 257.31 77.5224 256.853C77.9712 256.323 78.2509 255.879 78.3636 255.529C78.474 255.181 78.4414 254.714 78.267 254.138L78.4465 253.942C78.6922 254.181 78.958 254.462 79.2438 254.783C79.4895 255.045 79.6626 255.226 79.7604 255.316C79.9496 255.483 80.2781 255.755 80.752 256.125C81.167 256.447 81.488 256.696 81.7137 256.881L81.5344 257.079C81.0704 256.974 80.6655 257.004 80.3245 257.164C79.981 257.323 79.5347 257.682 78.9868 258.245C78.3287 258.912 77.6464 259.623 76.9393 260.391C76.2298 261.159 75.3874 262.078 74.4119 263.151C74.3302 263.241 74.1158 263.48 73.7687 263.86C73.3987 264.248 73.1732 264.481 73.0954 264.569C72.0096 265.763 71.0192 266.618 70.1251 267.136C69.2287 267.653 68.4163 267.902 67.6891 267.881C66.962 267.861 66.2849 267.665 65.663 267.298C65.0413 266.934 64.3617 266.412 63.6219 265.737C63.0704 265.236 62.5864 264.718 62.1727 264.178Z"   fill="#ADE0EE" >
</path>
<path d="M99.6061 287.249C99.3917 287.793 99.3165 288.294 99.3843 288.761C99.4518 289.223 99.6449 289.668 99.9584 290.078L99.7854 290.389C99.3604 290.03 98.9804 289.729 98.6481 289.493C98.3171 289.259 97.9939 289.046 97.6816 288.869C97.3317 288.669 96.9694 288.486 96.5922 288.314C96.2147 288.145 95.7433 287.958 95.1815 287.762L95.3332 287.493C95.3997 287.377 95.5754 287.298 95.8586 287.251C96.0642 287.218 96.2347 287.169 96.36 287.115C96.493 287.064 96.6083 286.943 96.711 286.764C96.7162 286.756 96.7236 286.728 96.7262 286.697L96.7714 286.62L100.57 277.458L91.3199 285.251C91.2547 285.282 91.162 285.305 91.0367 285.318C90.9163 285.333 90.7958 285.31 90.6806 285.243C90.5301 285.156 90.4323 285.071 90.3896 284.979C90.3521 284.889 90.3321 284.774 90.3321 284.64C90.3447 284.512 90.3557 284.365 90.367 284.211C90.3771 284.055 90.3922 283.862 90.4109 283.626C90.4299 283.39 90.4749 282.943 90.5488 282.286C90.6205 281.631 90.7332 280.614 90.8837 279.233C91.2973 275.381 91.543 273.081 91.6196 272.326L86.2472 279.677C86.1984 279.731 86.1193 279.859 86.0117 280.052C85.7847 280.455 85.673 280.822 85.6782 281.151C85.6805 281.487 85.8009 281.823 86.0379 282.16L85.974 282.558C85.6042 282.265 85.2168 281.983 84.8105 281.708C84.4043 281.436 84.052 281.215 83.7498 281.045C83.4841 280.896 83.197 280.75 82.8922 280.614C82.5864 280.473 82.1815 280.311 81.6736 280.126L82.0759 279.949C82.5386 280.021 83.0126 279.908 83.499 279.602C83.9855 279.299 84.4369 278.858 84.8544 278.275L92.5914 267.799C93.0213 267.041 93.0403 266.179 92.6464 265.223L92.7768 264.992C93.1895 265.293 93.5466 265.542 93.8527 265.727C94.1611 265.919 94.5496 266.15 95.0274 266.417L93.1882 281.251L102.396 273.622L104.567 271.812C104.823 271.951 105.04 272.074 105.224 272.166C105.41 272.264 105.716 272.415 106.148 272.626C106.509 272.795 106.779 272.921 106.947 273.001L106.816 273.235C106.412 273.245 106.017 273.381 105.63 273.648C105.242 273.912 104.943 274.231 104.73 274.606C104.71 274.644 104.68 274.698 104.644 274.762C104.62 274.832 104.6 274.88 104.585 274.906L99.6061 287.249Z"   fill="#ADE0EE" >
</path>
<path d="M117.789 294.418C117.774 295.026 117.841 295.553 117.985 295.987C118.128 296.415 118.364 296.808 118.692 297.15L118.569 297.484C118.09 297.193 117.669 296.962 117.304 296.775C116.939 296.593 116.593 296.441 116.27 296.315C115.884 296.172 115.487 296.046 115.089 295.938C114.687 295.827 114.195 295.72 113.609 295.612L113.72 295.319C113.756 295.224 113.898 295.085 114.149 294.911C114.514 294.654 114.737 294.418 114.815 294.212C114.866 294.076 114.906 293.922 114.936 293.745C114.963 293.576 114.976 293.452 114.97 293.393L115.158 288.481C114.397 288.122 113.71 287.824 113.098 287.598C112.235 287.275 111.486 287.036 110.847 286.877L107.428 291.008L107.421 291.029C107.25 291.219 107.132 291.365 107.063 291.475C106.994 291.588 106.93 291.717 106.874 291.866C106.756 292.189 106.764 292.507 106.902 292.826L106.806 293.08C106.409 292.852 106.072 292.667 105.794 292.531C105.517 292.397 105.257 292.287 105.006 292.189C104.718 292.084 104.412 291.986 104.091 291.899C103.767 291.809 103.341 291.711 102.809 291.609L103.178 291.367C103.707 291.36 104.201 291.244 104.662 291.021C105.124 290.797 105.578 290.428 106.022 289.914L114.966 279.543C115.012 279.497 115.064 279.402 115.112 279.269C115.269 278.85 115.293 278.388 115.189 277.882C115.089 277.379 114.884 276.881 114.585 276.39L114.604 276.113C115.528 276.57 116.383 276.94 117.173 277.238L117.977 277.535L117.954 280.347L117.789 294.418ZM115.164 287.203L115.187 287.144L115.337 281.698L111.778 285.87L111.754 285.932C112.493 286.242 113.05 286.463 113.426 286.604C113.8 286.743 114.379 286.943 115.164 287.203Z"   fill="#ADE0EE" >
</path>
<path d="M129.933 281.343C130.726 281.456 131.32 281.551 131.711 281.633C132.193 281.739 132.73 281.931 133.323 282.221C133.918 282.506 134.367 282.82 134.678 283.159C135.282 283.772 135.673 284.486 135.856 285.297C136.034 286.106 136.044 286.897 135.879 287.662C135.701 288.492 135.354 289.236 134.835 289.904C134.314 290.577 133.678 291.085 132.92 291.439C132.619 291.57 132.342 291.655 132.089 291.691C132.203 292.053 132.386 292.633 132.634 293.445C132.97 294.549 133.266 295.483 133.522 296.259C133.777 297.034 134.071 297.779 134.402 298.495C134.733 299.212 135.101 299.802 135.503 300.28C135.906 300.747 136.335 301.035 136.793 301.132C136.872 301.148 136.982 301.163 137.13 301.178C137.371 301.202 137.556 301.225 137.687 301.253C137.803 301.281 137.905 301.325 137.992 301.399C138.078 301.471 138.138 301.533 138.168 301.587C138.143 301.7 138.04 301.797 137.859 301.869C137.682 301.944 137.456 302.005 137.189 302.046C136.922 302.085 136.659 302.105 136.4 302.1C136.142 302.098 135.934 302.082 135.778 302.049C135.009 301.882 134.341 301.579 133.775 301.132C133.209 300.688 132.732 300.144 132.343 299.517C131.952 298.888 131.626 298.233 131.363 297.558C131.098 296.88 130.798 296.025 130.457 295.003C130.184 294.184 129.95 293.509 129.76 292.975C129.567 292.443 129.349 291.945 129.108 291.486L128.325 291.316C128.155 291.28 127.883 291.244 127.511 291.208L127.27 291.18C126.837 293.193 126.478 295.096 126.19 296.88C126.098 297.496 126.104 297.961 126.208 298.269C126.313 298.58 126.551 298.88 126.924 299.173L126.859 299.479C126.26 299.286 125.773 299.14 125.4 299.04C125.026 298.939 124.664 298.847 124.312 298.773C123.529 298.606 122.645 298.467 121.661 298.364L121.726 298.056C122.178 297.91 122.561 297.712 122.875 297.463C123.188 297.211 123.396 296.87 123.501 296.441C123.839 294.996 124.319 292.826 124.941 289.93C125.178 288.828 125.404 287.708 125.623 286.556C125.841 285.408 126.042 284.291 126.22 283.207C126.305 282.678 126.31 282.214 126.232 281.811C126.154 281.41 125.916 281.027 125.518 280.671L125.587 280.342C126.684 280.704 127.51 280.938 128.071 281.058C128.501 281.148 129.121 281.246 129.933 281.343ZM128.059 287.508L127.541 289.919C127.749 289.965 128.036 290.019 128.405 290.084C128.706 290.145 128.894 290.189 128.97 290.207C130.251 290.479 131.198 290.361 131.82 289.852C132.441 289.339 132.905 288.368 133.212 286.933C133.343 286.327 133.35 285.711 133.231 285.084C133.112 284.46 132.895 283.965 132.579 283.595C132.328 283.3 132.028 283.079 131.676 282.935C131.327 282.789 130.904 282.668 130.407 282.56C130.199 282.514 129.861 282.476 129.389 282.432L129.331 282.422C129.244 282.581 129.153 282.879 129.058 283.318C129.006 283.562 128.959 283.747 128.919 283.88C128.702 284.632 128.416 285.844 128.059 287.508Z"   fill="#ADE0EE" >
</path>
<path d="M142.807 302.129C142.438 302.109 141.974 302.101 141.411 302.098L141.448 301.788C141.827 301.623 142.134 301.395 142.368 301.097C142.601 300.802 142.752 300.417 142.817 299.952C143.005 298.481 143.262 296.283 143.585 293.35C143.71 292.231 143.822 291.093 143.924 289.925C144.025 288.759 144.111 287.63 144.177 286.533C144.212 285.986 144.177 285.501 144.077 285.08C143.977 284.659 143.726 284.261 143.325 283.891L143.351 283.624C143.956 283.75 144.434 283.85 144.79 283.917C145.144 283.989 145.487 284.04 145.818 284.076C146.07 284.107 146.497 284.13 147.099 284.15C147.62 284.163 148.028 284.181 148.318 284.194L148.291 284.466C147.897 284.631 147.596 284.934 147.386 285.378C147.174 285.825 147.017 286.333 146.914 286.9C146.813 287.458 146.724 288.035 146.652 288.641C146.578 289.242 146.49 290.01 146.388 290.937L146.097 293.564C145.873 295.595 145.686 297.78 145.534 300.114C145.462 301.12 145.776 301.865 146.477 302.342L146.44 302.656C145.825 302.525 145.328 302.43 144.953 302.365C144.578 302.301 144.211 302.25 143.855 302.206C143.523 302.175 143.173 302.147 142.807 302.129Z"   fill="#ADE0EE" >
</path>
<path d="M164.407 285.951C164.077 286.667 163.875 287.196 163.803 287.517C163.79 287.607 163.705 287.684 163.549 287.746C163.395 287.81 163.273 287.843 163.179 287.843C162.992 287.841 162.867 287.772 162.802 287.638C162.737 287.502 162.694 287.309 162.671 287.058C162.66 286.924 162.647 286.845 162.634 286.814C162.597 286.603 162.525 286.452 162.412 286.354C162.3 286.254 162.177 286.2 162.045 286.18C161.726 286.162 161.22 286.149 160.526 286.133L158.945 286.113L158.824 287.556C158.742 288.519 158.692 289.731 158.669 291.199C158.663 291.685 158.659 292.226 158.667 292.82C158.652 293.649 158.644 294.129 158.644 294.268C158.614 296.306 158.632 298.499 158.705 300.841C158.731 301.85 159.111 302.561 159.853 302.967L159.848 303.28C159.222 303.213 158.72 303.162 158.341 303.136C157.961 303.108 157.591 303.09 157.231 303.085C156.898 303.08 156.548 303.09 156.182 303.103C155.816 303.118 155.35 303.149 154.79 303.206L154.795 302.892C155.159 302.692 155.44 302.433 155.645 302.117C155.851 301.799 155.964 301.406 155.983 300.933C156.032 299.454 156.077 297.241 156.123 294.291C156.147 292.735 156.164 291.433 156.182 290.383C156.197 289.33 156.199 288.265 156.189 287.184L156.185 286.072C155.495 286.064 154.874 286.072 154.326 286.113C153.78 286.149 153.238 286.228 152.704 286.354C152.541 286.393 152.352 286.47 152.13 286.588C151.907 286.703 151.673 286.87 151.433 287.086C151.405 287.107 151.359 287.145 151.292 287.217C151.142 287.366 150.999 287.479 150.866 287.569C150.728 287.656 150.574 287.7 150.402 287.695C150.282 287.695 150.163 287.659 150.046 287.589C149.926 287.525 149.867 287.474 149.867 287.443C149.881 287.322 150.006 287.091 150.237 286.739C150.483 286.372 150.648 286.092 150.728 285.9C150.743 285.856 150.791 285.741 150.874 285.571C151.107 285.099 151.26 284.708 151.331 284.398L152.173 284.41C152.303 284.575 152.421 284.683 152.526 284.729C152.633 284.773 152.819 284.808 153.085 284.824C154.178 284.857 155.811 284.888 157.982 284.924C158.703 284.932 159.83 284.919 161.364 284.883C161.91 284.878 162.463 284.873 163.025 284.865C163.235 284.855 163.524 284.773 163.888 284.631C164.062 284.559 164.196 284.511 164.289 284.485L164.968 284.493C164.925 284.773 164.739 285.258 164.407 285.951Z"   fill="#ADE0EE" >
</path>
<path d="M169.369 302.801C169.005 302.852 168.547 302.927 167.995 303.024L167.97 302.716C168.312 302.482 168.572 302.2 168.748 301.866C168.923 301.535 169 301.132 168.978 300.657C168.893 299.175 168.737 296.97 168.515 294.03C168.429 292.908 168.328 291.765 168.216 290.599C168.1 289.431 167.975 288.306 167.838 287.218C167.769 286.673 167.649 286.209 167.471 285.811C167.293 285.418 166.974 285.071 166.51 284.784L166.49 284.514C167.107 284.527 167.596 284.532 167.957 284.537C168.316 284.54 168.664 284.527 168.995 284.501C169.249 284.486 169.672 284.427 170.267 284.342C170.781 284.255 171.186 284.196 171.477 284.157L171.498 284.427C171.142 284.658 170.9 285.02 170.776 285.492C170.652 285.97 170.593 286.496 170.595 287.079C170.599 287.639 170.619 288.227 170.658 288.835C170.698 289.439 170.753 290.209 170.823 291.136L171.024 293.773C171.176 295.809 171.396 297.992 171.678 300.318C171.794 301.319 172.238 301.995 173.014 302.336L173.037 302.644C172.406 302.637 171.903 302.631 171.523 302.637C171.142 302.644 170.773 302.66 170.415 302.688C170.081 302.716 169.735 302.75 169.369 302.801Z"   fill="#ADE0EE" >
</path>
<path d="M194.552 296.472C194.743 297.022 195.013 297.453 195.367 297.758C195.718 298.067 196.151 298.277 196.661 298.388L196.731 298.739C196.174 298.744 195.69 298.76 195.284 298.796C194.874 298.829 194.494 298.881 194.143 298.95C193.75 299.027 193.356 299.122 192.957 299.24C192.556 299.356 192.081 299.522 191.524 299.733L191.464 299.433C191.44 299.297 191.521 299.124 191.708 298.906C191.842 298.744 191.937 298.598 192.002 298.475C192.066 298.349 192.077 298.185 192.037 297.984C192.035 297.966 192.025 297.948 192.006 297.92L191.988 297.833L188.92 288.407L186.957 300.334C186.929 300.401 186.874 300.478 186.789 300.57C186.706 300.663 186.598 300.722 186.468 300.75C186.297 300.783 186.167 300.775 186.078 300.734C185.986 300.693 185.899 300.619 185.811 300.516C185.736 300.411 185.65 300.29 185.56 300.172C185.465 300.041 185.352 299.884 185.211 299.694C185.074 299.502 184.818 299.137 184.444 298.583C184.072 298.041 183.494 297.196 182.714 296.054C180.527 292.857 179.215 290.947 178.781 290.323L179.479 299.404C179.479 299.479 179.502 299.62 179.545 299.841C179.632 300.29 179.785 300.642 180.006 300.894C180.224 301.145 180.535 301.32 180.936 301.425L181.144 301.769C180.673 301.787 180.194 301.823 179.71 301.882C179.226 301.941 178.812 302 178.471 302.067C178.171 302.126 177.862 302.201 177.539 302.296C177.218 302.388 176.802 302.529 176.297 302.722L176.485 302.319C176.887 302.075 177.17 301.682 177.342 301.132C177.513 300.585 177.57 299.956 177.511 299.245L176.576 286.248C176.408 285.393 175.863 284.73 174.945 284.26L174.893 284.004C175.4 283.962 175.833 283.914 176.188 283.857C176.545 283.801 176.991 283.724 177.529 283.616L185.777 296.082L187.809 284.299L188.281 281.513C188.569 281.456 188.814 281.402 189.016 281.356C189.215 281.31 189.548 281.225 190.016 281.102C190.402 280.999 190.684 280.92 190.863 280.868L190.916 281.13C190.616 281.402 190.405 281.765 190.284 282.216C190.161 282.671 190.141 283.11 190.227 283.529C190.234 283.575 190.244 283.634 190.257 283.706C190.287 283.775 190.303 283.824 190.308 283.852L194.552 296.472Z"   fill="#ADE0EE" >
</path>
<path d="M201.611 296.684C201.276 296.836 200.83 297.046 200.277 297.319C200.215 297.344 200.116 297.388 199.983 297.447L199.822 296.987C199.936 296.836 200.042 296.643 200.139 296.415C200.233 296.186 200.308 295.927 200.363 295.642C200.482 295.018 200.472 294.484 200.329 294.052C199.981 292.977 199.685 292.096 199.439 291.403C199.196 290.717 198.847 289.736 198.399 288.463C198.025 287.402 197.629 286.324 197.215 285.227C196.799 284.136 196.385 283.078 195.969 282.061C195.781 281.615 195.505 281.232 195.144 280.929C194.783 280.626 194.314 280.428 193.745 280.328L193.562 279.992L193.873 279.907C194.63 279.738 195.262 279.581 195.766 279.453C196.272 279.322 196.657 279.206 196.92 279.111C197.121 279.045 197.391 278.937 197.733 278.801C198.072 278.67 198.485 278.498 198.964 278.297C199.197 278.197 199.376 278.12 199.497 278.064C200.401 277.663 201.05 277.396 201.438 277.26C201.716 277.16 201.964 277.078 202.177 277.006C202.393 276.939 202.621 276.885 202.861 276.839C203.098 276.795 203.307 276.78 203.486 276.806C203.663 276.834 203.775 276.903 203.82 277.026C203.943 277.378 204.112 277.761 204.329 278.169C204.479 278.477 204.587 278.721 204.652 278.903C204.666 278.944 204.645 279.016 204.587 279.114C204.529 279.217 204.427 279.291 204.276 279.34C204.088 279.409 203.938 279.412 203.825 279.36C203.715 279.304 203.599 279.211 203.481 279.078C203.421 279.024 203.381 278.991 203.363 278.98C203.043 278.721 202.646 278.567 202.165 278.534C201.686 278.498 201.009 278.636 200.127 278.947C199.863 279.039 199.422 279.227 198.798 279.504L198.218 279.789C198.233 279.953 198.316 280.264 198.461 280.714C198.511 280.901 198.557 281.065 198.592 281.209C198.819 282.01 199.234 283.263 199.835 284.963L200.361 286.452C201.277 286.159 201.94 285.944 202.355 285.797C202.732 285.659 203.014 285.554 203.197 285.474C203.594 285.317 203.902 285.117 204.121 284.878C204.339 284.634 204.506 284.216 204.622 283.625L205.416 283.345C205.47 283.548 205.529 283.769 205.588 284.016C205.698 284.498 205.817 284.912 205.941 285.258C206.072 285.633 206.164 285.9 206.217 286.041C206.268 286.188 206.387 286.486 206.569 286.917L205.761 287.207C205.428 286.868 205.078 286.678 204.71 286.635C204.341 286.591 203.93 286.629 203.474 286.742C202.889 286.884 201.987 287.174 200.768 287.605C201.114 288.581 201.439 289.456 201.741 290.24C202.046 291.02 202.428 291.983 202.887 293.123C203.023 293.467 203.223 293.724 203.486 293.888C203.752 294.055 204.045 294.15 204.373 294.176C204.7 294.201 205.028 294.181 205.357 294.112C205.685 294.042 206.034 293.945 206.397 293.814C206.938 293.621 207.368 293.421 207.691 293.215C208.014 293.007 208.291 292.692 208.52 292.265C208.651 292.029 208.805 291.626 208.988 291.059C209.126 290.655 209.242 290.342 209.339 290.137C209.437 289.926 209.56 289.798 209.71 289.746C209.861 289.693 210 289.685 210.129 289.726C210.254 289.77 210.327 289.808 210.342 289.852C210.402 290.021 210.389 290.409 210.309 291.02C210.205 291.731 210.174 292.26 210.212 292.609L210.208 292.656C210.239 292.943 210.194 293.195 210.071 293.411C209.951 293.626 209.612 293.832 209.06 294.027L206.252 295.02C205.472 295.295 204.78 295.534 204.171 295.734C203.353 296.019 202.794 296.222 202.492 296.325C202.24 296.415 201.947 296.535 201.611 296.684Z"   fill="#ADE0EE" >
</path>
<path d="M226.884 285.741C226.578 285.936 226.193 286.203 225.733 286.532L225.583 286.257C225.794 285.9 225.909 285.533 225.925 285.158C225.944 284.783 225.841 284.385 225.619 283.964C224.913 282.665 223.837 280.726 222.388 278.164C221.834 277.18 221.257 276.189 220.66 275.183C220.061 274.179 219.468 273.211 218.885 272.284C218.591 271.819 218.28 271.449 217.951 271.164C217.624 270.882 217.19 270.705 216.646 270.638L216.514 270.404C217.077 270.155 217.523 269.952 217.849 269.809C218.178 269.652 218.487 269.493 218.78 269.334C218.998 269.208 219.359 268.977 219.86 268.643C220.289 268.35 220.63 268.124 220.879 267.968L221.009 268.196C220.787 268.563 220.72 268.99 220.808 269.472C220.9 269.957 221.072 270.461 221.317 270.982C221.56 271.493 221.829 272.012 222.122 272.546C222.413 273.077 222.789 273.753 223.248 274.566L224.548 276.862C225.553 278.646 226.678 280.526 227.92 282.511C228.452 283.374 229.14 283.787 229.986 283.771L230.139 284.041C229.567 284.298 229.107 284.511 228.765 284.68C228.423 284.845 228.098 285.017 227.783 285.191C227.492 285.358 227.193 285.538 226.884 285.741Z"   fill="#ADE0EE" >
</path>
<path d="M233.128 259.902C233.385 259.781 233.549 259.691 233.627 259.638C233.834 259.491 234.171 259.229 234.64 258.854C235.041 258.516 235.351 258.266 235.572 258.094L235.725 258.31C235.549 258.688 235.527 259.111 235.663 259.586C235.797 260.059 236.014 260.547 236.311 261.047C236.601 261.53 236.915 262.023 237.256 262.524C237.599 263.024 238.035 263.659 238.569 264.426L240.079 266.601C240.389 267.045 240.837 267.7 241.42 268.56C242.213 269.723 242.767 270.527 243.078 270.976C243.757 271.949 244.244 272.627 244.546 273.018L244.701 273.203C244.883 273.439 245.002 273.603 245.061 273.685C245.214 273.906 245.288 274.083 245.287 274.217C245.284 274.358 245.191 274.486 245.003 274.62C244.893 274.697 244.73 274.723 244.513 274.702C244.296 274.681 244.088 274.635 243.89 274.553L227.797 269.567L228.698 270.863L230.412 273.326C231.588 275.01 232.884 276.782 234.301 278.631C234.926 279.457 235.649 279.812 236.475 279.688L236.652 279.945C236.114 280.248 235.68 280.497 235.344 280.708C235.008 280.913 234.697 281.116 234.413 281.314C234.239 281.434 234.078 281.555 233.933 281.671C233.787 281.791 233.493 282.043 233.044 282.428L232.867 282.174C233.043 281.817 233.119 281.447 233.095 281.065C233.075 280.685 232.932 280.297 232.674 279.896C231.859 278.679 230.603 276.856 228.91 274.425C228.639 274.037 228.218 273.418 227.646 272.571C227.056 271.698 226.608 271.043 226.302 270.609C225.719 269.767 225.277 269.158 224.976 268.771L224.888 268.642C224.576 268.262 224.236 267.967 223.876 267.749C223.514 267.533 223.07 267.41 222.545 267.377L222.285 267.181C222.34 267.143 222.421 267.092 222.528 267.035C223.063 266.758 223.469 266.532 223.749 266.365C224.03 266.193 224.319 266.016 224.61 265.831L240.937 271.087L240.138 269.939L238.564 267.674C237.922 266.753 237.254 265.815 236.565 264.873C235.873 263.928 235.194 263.024 234.524 262.151L234.512 262.133C234.151 261.663 233.814 261.304 233.494 261.057C233.175 260.811 232.752 260.68 232.224 260.665L232.06 260.428C232.373 260.249 232.729 260.072 233.128 259.902Z"   fill="#ADE0EE" >
</path>
<path d="M250.873 269.278C250.514 269.47 250.053 269.684 249.493 269.912C249.264 270.015 249.108 270.079 249.028 270.11C248.678 270.256 248.386 270.279 248.15 270.182C247.915 270.082 247.664 269.879 247.403 269.576C247.395 269.563 247.34 269.512 247.245 269.424C247.077 269.291 246.894 269.132 246.696 268.944C246.495 268.751 246.319 268.567 246.162 268.389C246.036 268.243 245.954 268.061 245.914 267.843C245.873 267.622 245.954 267.421 246.157 267.247C246.247 267.17 246.371 267.157 246.53 267.203C246.687 267.255 246.921 267.36 247.235 267.519C247.726 267.781 248.09 267.935 248.328 267.984C248.879 268.094 249.462 268.084 250.075 267.94C250.688 267.804 251.144 267.606 251.447 267.342C251.678 267.144 251.871 266.893 252.025 266.592C252.18 266.292 252.278 265.953 252.322 265.57C252.365 265.195 252.315 264.797 252.181 264.384C252.044 263.978 251.812 263.583 251.483 263.198C251.163 262.828 250.801 262.543 250.399 262.343C249.996 262.145 249.569 262.009 249.113 261.945C248.659 261.875 248.203 261.844 247.748 261.847C247.293 261.85 246.721 261.873 246.036 261.914C245.3 261.963 244.69 261.991 244.198 261.993C243.709 261.996 243.209 261.952 242.701 261.865C242.192 261.778 241.707 261.613 241.244 261.375C240.783 261.138 240.369 260.807 240.001 260.384C239.634 259.957 239.341 259.475 239.124 258.938C238.906 258.404 238.791 257.839 238.777 257.238C238.765 256.644 238.887 256.046 239.147 255.45C239.407 254.856 239.827 254.306 240.412 253.796C240.673 253.572 241.085 253.3 241.646 252.993C242.108 252.751 242.418 252.563 242.581 252.421C242.591 252.41 242.601 252.383 242.611 252.335C242.654 252.222 242.71 252.106 242.78 251.999C242.852 251.887 242.975 251.755 243.145 251.606C243.286 251.486 243.409 251.428 243.513 251.442C243.617 251.444 243.687 251.471 243.727 251.517C243.97 251.795 244.349 252.18 244.863 252.677C245.332 253.133 245.671 253.487 245.883 253.734C245.942 253.799 245.981 253.904 245.996 254.047C246.014 254.193 245.954 254.323 245.811 254.441C245.658 254.578 245.463 254.613 245.22 254.555C244.978 254.504 244.665 254.396 244.284 254.237C243.91 254.09 243.664 254.01 243.545 253.993C243.03 253.971 242.555 254.039 242.121 254.198C241.687 254.36 241.315 254.575 241.001 254.846C240.618 255.177 240.416 255.665 240.395 256.31C240.369 256.961 240.567 257.521 240.984 258.003C241.498 258.596 242.145 258.953 242.927 259.071C243.707 259.192 244.775 259.218 246.137 259.156C246.9 259.123 247.546 259.107 248.069 259.115C248.594 259.123 249.138 259.174 249.7 259.277C250.264 259.374 250.798 259.554 251.305 259.813C251.809 260.07 252.265 260.425 252.673 260.876C253.109 261.382 253.446 261.945 253.687 262.569C253.928 263.193 254.04 263.845 254.023 264.53C254.003 265.208 253.828 265.896 253.498 266.582C253.168 267.267 252.659 267.909 251.974 268.505C251.601 268.826 251.234 269.085 250.873 269.278Z"   fill="#ADE0EE" >
</path>
<path d="M255.901 240.172C256.208 240.904 256.455 241.406 256.646 241.675C256.703 241.749 256.698 241.865 256.643 242.018C256.585 242.178 256.525 242.291 256.46 242.359C256.332 242.492 256.197 242.541 256.056 242.495C255.913 242.451 255.742 242.35 255.541 242.196C255.436 242.117 255.367 242.07 255.335 242.058C255.156 241.946 254.994 241.899 254.848 241.91C254.699 241.927 254.574 241.98 254.472 242.064C254.241 242.291 253.885 242.649 253.408 243.151L252.32 244.296L253.298 245.364C253.95 246.076 254.808 246.938 255.871 247.947C256.224 248.285 256.621 248.65 257.06 249.05C257.661 249.624 258.01 249.95 258.105 250.045C259.592 251.45 261.214 252.925 262.984 254.461C263.744 255.123 264.522 255.322 265.328 255.057L265.554 255.271C265.079 255.686 264.704 256.021 264.424 256.28C264.147 256.541 263.882 256.802 263.636 257.061C263.407 257.305 263.174 257.562 262.937 257.847C262.701 258.129 262.411 258.491 262.07 258.938L261.844 258.725C261.941 258.322 261.944 257.936 261.849 257.572C261.759 257.207 261.543 256.858 261.209 256.521C260.154 255.483 258.557 253.947 256.42 251.917C255.293 250.845 254.349 249.945 253.586 249.222C252.822 248.5 252.042 247.776 251.238 247.049L250.417 246.298C249.942 246.801 249.532 247.265 249.188 247.689C248.842 248.118 248.534 248.574 248.264 249.05C248.188 249.195 248.115 249.388 248.049 249.629C247.985 249.87 247.95 250.158 247.945 250.484C247.937 250.514 247.937 250.579 247.945 250.677C247.952 250.885 247.939 251.067 247.912 251.226C247.887 251.386 247.812 251.527 247.694 251.654C247.611 251.739 247.503 251.802 247.373 251.842C247.242 251.882 247.166 251.893 247.145 251.873C247.068 251.783 246.978 251.532 246.876 251.122C246.774 250.692 246.68 250.385 246.596 250.192C246.572 250.153 246.523 250.044 246.45 249.864C246.263 249.375 246.079 248.996 245.898 248.733L246.476 248.125C246.688 248.141 246.844 248.125 246.952 248.079C247.057 248.033 247.206 247.914 247.401 247.733C248.168 246.95 249.296 245.772 250.793 244.195C251.287 243.674 252.042 242.838 253.055 241.684C253.421 241.282 253.791 240.868 254.166 240.452C254.301 240.285 254.442 240.024 254.582 239.658C254.647 239.484 254.701 239.353 254.745 239.264L255.212 238.768C255.388 238.996 255.62 239.459 255.901 240.172Z"   fill="#ADE0EE" >
</path>
<path d="M271.657 247.983C271.444 248.28 271.187 248.67 270.882 249.141L270.638 248.948C270.705 248.533 270.674 248.153 270.553 247.796C270.43 247.441 270.189 247.109 269.827 246.801C268.692 245.852 266.976 244.45 264.683 242.597C263.808 241.891 262.904 241.182 261.977 240.468C261.05 239.752 260.144 239.073 259.258 238.428C258.814 238.101 258.385 237.872 257.979 237.727C257.568 237.589 257.098 237.587 256.571 237.724L256.362 237.555C256.793 237.116 257.132 236.764 257.383 236.502C257.633 236.243 257.861 235.982 258.069 235.724C258.228 235.526 258.48 235.18 258.821 234.685C259.114 234.252 259.345 233.917 259.52 233.679L259.725 233.843C259.653 234.27 259.751 234.686 260.013 235.105C260.272 235.523 260.616 235.928 261.042 236.322C261.456 236.707 261.895 237.09 262.362 237.479C262.832 237.865 263.43 238.354 264.154 238.937L266.214 240.597C267.803 241.881 269.544 243.216 271.429 244.599C272.24 245.206 273.034 245.341 273.814 245.008L274.056 245.205C273.616 245.656 273.267 246.022 273.016 246.302C272.759 246.585 272.517 246.864 272.292 247.145C272.084 247.404 271.87 247.687 271.657 247.983Z"   fill="#ADE0EE" >
</path>
<path d="M269.952 220.954C270.373 221.627 270.699 222.081 270.932 222.319C270.997 222.38 271.015 222.492 270.984 222.659C270.95 222.823 270.909 222.943 270.858 223.02C270.75 223.175 270.624 223.242 270.478 223.22C270.332 223.2 270.144 223.135 269.923 223.014C269.805 222.948 269.728 222.914 269.7 222.908C269.502 222.825 269.335 222.804 269.189 222.84C269.048 222.879 268.932 222.953 268.847 223.056C268.652 223.313 268.362 223.723 267.972 224.297L267.083 225.603L268.218 226.498C268.978 227.094 269.964 227.804 271.176 228.63C271.579 228.907 272.031 229.208 272.527 229.527C273.213 229.994 273.611 230.266 273.721 230.344C275.41 231.489 277.252 232.68 279.244 233.911C280.099 234.446 280.903 234.517 281.655 234.128L281.912 234.298C281.509 234.782 281.193 235.173 280.959 235.48C280.728 235.781 280.513 236.08 280.31 236.377C280.122 236.65 279.932 236.945 279.745 237.264C279.557 237.578 279.329 237.986 279.062 238.478L278.808 238.304C278.836 237.894 278.777 237.513 278.628 237.167C278.479 236.823 278.209 236.514 277.824 236.235C276.615 235.379 274.792 234.124 272.358 232.463C271.071 231.585 269.995 230.851 269.125 230.259C268.254 229.668 267.368 229.075 266.46 228.492L265.53 227.882C265.14 228.455 264.806 228.983 264.536 229.458C264.264 229.935 264.038 230.43 263.846 230.948C263.794 231.101 263.753 231.308 263.727 231.556C263.702 231.803 263.712 232.088 263.761 232.411C263.758 232.443 263.769 232.506 263.794 232.602C263.833 232.808 263.851 232.988 263.851 233.15C263.848 233.309 263.797 233.462 263.702 233.605C263.635 233.705 263.537 233.787 263.414 233.848C263.294 233.911 263.219 233.93 263.193 233.914C263.104 233.837 262.978 233.605 262.811 233.216C262.641 232.81 262.498 232.521 262.382 232.344C262.351 232.31 262.287 232.207 262.187 232.044C261.92 231.588 261.681 231.243 261.46 231.014L261.933 230.32C262.143 230.302 262.297 230.261 262.392 230.199C262.487 230.133 262.618 229.998 262.78 229.788C263.409 228.891 264.333 227.543 265.556 225.754C265.964 225.156 266.572 224.206 267.386 222.908C267.684 222.448 267.982 221.98 268.283 221.508C268.39 221.325 268.488 221.041 268.565 220.662C268.601 220.477 268.634 220.335 268.663 220.244L269.045 219.681C269.256 219.872 269.559 220.298 269.952 220.954Z"   fill="#ADE0EE" >
</path>
<path d="M288.699 222.976C288.283 223.511 287.767 223.954 287.156 224.311C286.54 224.665 285.808 224.835 284.953 224.823C284.095 224.811 283.135 224.533 282.067 223.981L280.68 223.277C279.831 222.859 279.266 222.581 278.991 222.433C278.611 222.233 277.915 221.854 276.903 221.292C275.982 220.791 275.237 220.392 274.672 220.096C274.254 219.874 273.658 219.576 272.885 219.198C272.387 218.966 271.925 218.825 271.491 218.77C271.059 218.718 270.597 218.807 270.102 219.048L269.868 218.923C270.212 218.396 270.479 217.981 270.674 217.676C270.869 217.369 271.044 217.069 271.201 216.774C271.321 216.541 271.504 216.148 271.742 215.598C271.948 215.114 272.104 214.751 272.215 214.512L272.451 214.634C272.464 215.047 272.644 215.436 272.983 215.796C273.319 216.154 273.735 216.485 274.228 216.786C274.708 217.087 275.214 217.378 275.748 217.667C276.282 217.955 276.965 218.318 277.789 218.752L280.128 219.983C280.521 220.189 280.922 220.393 281.322 220.6C281.728 220.803 282.278 221.073 282.971 221.409C283.885 221.86 284.671 222.143 285.32 222.261C285.973 222.38 286.512 222.367 286.941 222.234C287.372 222.097 287.726 221.878 288.004 221.579C288.276 221.28 288.54 220.888 288.794 220.408C289.141 219.745 289.372 219.182 289.49 218.702C289.606 218.229 289.58 217.764 289.416 217.313C289.257 216.858 288.907 216.385 288.376 215.902C287.842 215.421 287.079 214.902 286.08 214.348C285.721 214.14 285.279 213.904 284.753 213.625L283.81 213.129C283.638 213.037 283.05 212.723 282.049 212.18C281.369 211.823 280.745 211.495 280.18 211.198C279.094 210.627 278.28 210.214 277.743 209.963C277.114 209.663 276.616 209.502 276.249 209.483C275.884 209.464 275.442 209.61 274.924 209.928L274.69 209.803C274.862 209.502 275.07 209.175 275.306 208.815C275.501 208.51 275.63 208.303 275.691 208.184C275.812 207.959 275.989 207.57 276.228 207.02C276.431 206.538 276.59 206.162 276.716 205.899L276.952 206.025C276.973 206.497 277.101 206.881 277.34 207.174C277.579 207.463 278.041 207.807 278.721 208.193C279.53 208.667 280.393 209.145 281.315 209.639C282.239 210.13 283.338 210.712 284.624 211.39C284.73 211.445 285.012 211.593 285.469 211.833C285.934 212.095 286.222 212.252 286.327 212.304C287.754 213.058 288.833 213.799 289.56 214.534C290.284 215.274 290.728 215.996 290.89 216.706C291.051 217.418 291.033 218.119 290.836 218.812C290.638 219.507 290.307 220.295 289.842 221.181C289.493 221.846 289.113 222.441 288.699 222.976Z"   fill="#ADE0EE" >
</path>
<path d="M283.267 191.9C283.837 192.455 284.263 192.817 284.543 192.995C284.62 193.039 284.666 193.141 284.674 193.309C284.682 193.477 284.671 193.605 284.638 193.692C284.574 193.869 284.469 193.961 284.32 193.978C284.171 193.996 283.976 193.971 283.726 193.908C283.601 193.874 283.518 193.855 283.485 193.863C283.277 193.823 283.108 193.843 282.977 193.919C282.848 193.988 282.753 194.087 282.692 194.204C282.568 194.5 282.384 194.971 282.142 195.622L281.593 197.103L282.91 197.699C283.791 198.097 284.915 198.551 286.292 199.063C286.749 199.234 287.26 199.416 287.817 199.609C288.595 199.901 289.047 200.066 289.173 200.113C291.088 200.827 293.158 201.543 295.392 202.257C296.349 202.571 297.145 202.448 297.779 201.887L298.072 201.998C297.797 202.565 297.584 203.02 297.43 203.366C297.276 203.72 297.138 204.061 297.012 204.397C296.896 204.709 296.786 205.04 296.678 205.388C296.573 205.745 296.447 206.192 296.308 206.736L296.015 206.628C295.946 206.219 295.797 205.866 295.569 205.567C295.34 205.271 295.006 205.031 294.567 204.849C293.188 204.31 291.119 203.525 288.353 202.497C286.898 201.958 285.673 201.501 284.689 201.135C283.706 200.766 282.699 200.41 281.677 200.055L280.627 199.692C280.386 200.335 280.193 200.924 280.042 201.454C279.893 201.982 279.79 202.522 279.729 203.065C279.713 203.232 279.723 203.436 279.759 203.685C279.793 203.93 279.875 204.208 279.998 204.508C280.001 204.539 280.026 204.6 280.075 204.69C280.16 204.878 280.224 205.049 280.26 205.204C280.296 205.358 280.283 205.52 280.224 205.681C280.183 205.795 280.109 205.896 280.006 205.985C279.903 206.077 279.836 206.113 279.808 206.104C279.7 206.048 279.521 205.855 279.266 205.52C279.002 205.164 278.797 204.917 278.642 204.77C278.604 204.744 278.519 204.663 278.378 204.526C278.013 204.146 277.698 203.874 277.425 203.705L277.721 202.917C277.921 202.85 278.06 202.771 278.139 202.687C278.219 202.603 278.309 202.441 278.417 202.193C278.812 201.173 279.39 199.646 280.147 197.607C280.399 196.933 280.761 195.868 281.241 194.412C281.418 193.897 281.595 193.369 281.78 192.841C281.837 192.635 281.865 192.341 281.849 191.951C281.842 191.762 281.837 191.619 281.844 191.522L282.081 190.887C282.332 191.019 282.725 191.358 283.267 191.9Z"   fill="#ADE0EE" >
</path>
<path d="M300.837 192.332C300.79 192.698 300.742 193.187 300.688 193.801C300.675 193.869 300.659 193.971 300.644 194.121L300.166 194.018C300.1 193.841 299.992 193.652 299.843 193.449C299.697 193.249 299.512 193.053 299.296 192.858C298.826 192.432 298.369 192.164 297.92 192.057C296.826 191.803 295.917 191.597 295.198 191.449C294.482 191.301 293.465 191.091 292.142 190.815C291.041 190.582 289.916 190.364 288.763 190.144C287.616 189.934 286.499 189.744 285.415 189.569C284.927 189.495 284.462 189.535 284.016 189.685C283.569 189.841 283.153 190.137 282.775 190.57L282.393 190.552L282.48 190.246C282.727 189.507 282.922 188.884 283.073 188.385C283.22 187.887 283.325 187.5 283.384 187.228C283.425 187.019 283.479 186.73 283.538 186.371C283.6 186.011 283.669 185.569 283.746 185.054C283.782 184.808 283.808 184.609 283.82 184.479C283.946 183.496 284.057 182.804 284.141 182.4C284.201 182.115 284.26 181.861 284.311 181.638C284.367 181.418 284.434 181.195 284.519 180.968C284.604 180.741 284.704 180.556 284.814 180.418C284.927 180.276 285.05 180.22 285.179 180.248C285.543 180.322 285.957 180.374 286.419 180.403C286.76 180.435 287.025 180.469 287.212 180.508C287.256 180.518 287.307 180.572 287.361 180.672C287.418 180.77 287.428 180.899 287.395 181.058C287.354 181.254 287.279 181.383 287.177 181.452C287.071 181.518 286.933 181.567 286.76 181.599C286.678 181.624 286.63 181.638 286.612 181.651C286.221 181.788 285.885 182.049 285.608 182.439C285.33 182.831 285.094 183.485 284.904 184.398C284.848 184.672 284.778 185.149 284.699 185.825L284.629 186.464C284.781 186.537 285.089 186.631 285.551 186.739C285.736 186.792 285.9 186.838 286.042 186.883C286.843 187.105 288.127 187.403 289.896 187.771L291.439 188.089C291.665 187.159 291.824 186.478 291.914 186.042C291.996 185.651 292.05 185.359 292.078 185.161C292.148 184.739 292.137 184.373 292.045 184.06C291.952 183.748 291.68 183.389 291.236 182.982L291.408 182.159C291.608 182.218 291.827 182.282 292.07 182.36C292.538 182.514 292.951 182.627 293.313 182.703C293.706 182.782 293.978 182.843 294.13 182.874C294.284 182.905 294.595 182.958 295.062 183.024L294.887 183.866C294.425 183.977 294.084 184.178 293.853 184.467C293.627 184.762 293.444 185.133 293.303 185.581C293.123 186.152 292.9 187.08 292.635 188.341C293.652 188.552 294.571 188.734 295.396 188.877C296.22 189.02 297.242 189.195 298.456 189.392C298.818 189.457 299.139 189.417 299.419 189.279C299.699 189.143 299.933 188.938 300.125 188.669C300.318 188.405 300.469 188.111 300.58 187.796C300.693 187.477 300.788 187.132 300.865 186.748C300.986 186.189 301.037 185.715 301.027 185.332C301.014 184.95 300.888 184.546 300.641 184.131C300.511 183.897 300.249 183.556 299.856 183.11C299.578 182.78 299.376 182.519 299.247 182.326C299.124 182.139 299.075 181.964 299.111 181.808C299.139 181.655 299.209 181.53 299.311 181.44C299.412 181.354 299.481 181.314 299.527 181.325C299.702 181.359 300.028 181.571 300.505 181.956C301.06 182.412 301.497 182.717 301.815 182.861L301.853 182.89C302.118 183.015 302.308 183.184 302.431 183.399C302.552 183.615 302.552 184.009 302.431 184.587L301.823 187.5C301.653 188.31 301.497 189.026 301.35 189.654C301.176 190.5 301.055 191.08 300.988 191.392C300.934 191.652 300.885 191.965 300.837 192.332Z"   fill="#ADE0EE" >
</path>
<path d="M21.2926 156.821L23.2998 160.881L27.7871 161.538L24.5397 164.701L25.3072 169.169L21.2926 167.062L17.278 169.169L18.0465 164.701L14.7994 161.538L19.2865 160.881L21.2926 156.821Z"   fill="#ADE0EE" >
</path>
<path d="M294.783 156.821L296.788 160.881L301.277 161.538L298.031 164.701L298.797 169.169L294.783 167.062L290.769 169.169L291.535 164.701L288.291 161.538L292.776 160.881L294.783 156.821Z"   fill="#ADE0EE" >
</path>
<path d="M290.237 120.096C289.279 120.722 288.07 122.106 286.842 122.183C287.4 120.825 288.18 120.02 288.586 118.193L288.475 118.01C288.301 117.998 288.121 117.983 287.947 117.969C287.233 118.776 283.299 124.572 282.767 124.57C280.39 121.806 282.108 119.146 284.467 117.032C284.942 116.601 287.004 115.618 286.817 114.789C286.678 114.198 284.976 113.976 284.416 114.171C284.159 114.398 283.905 114.621 283.648 114.846C283.088 115.055 282.531 115.261 281.971 115.472C279.994 116.33 278.169 118.009 275.753 118.148C275.642 118.299 275.529 118.454 275.416 118.609C275.478 118.673 275.539 118.74 275.604 118.801C277.203 119.843 280.012 118.221 281.204 117.835L281.278 117.851C280.829 118.897 279.676 120.122 279.748 121.585C279.794 122.589 280.577 123.277 280.38 124.57C279.473 125.189 278.813 125.871 277.588 126.022C277.524 126.212 277.457 126.399 277.388 126.587C277.45 126.656 277.514 126.72 277.576 126.784C278.944 127.261 280.51 125.935 282.197 126.751C282.598 127.146 282.991 127.544 283.386 127.942C284.834 127.553 284.547 126.419 285.402 125.163C286.136 124.51 286.876 123.853 287.613 123.202C291.051 120.406 295.239 118.196 299.36 116.458L299.655 116.528C299.175 117.713 297.385 119.01 296.371 119.482C296.351 119.682 296.335 119.882 296.312 120.088C297.378 120.429 302.025 116.951 302.703 115.983C302.914 113.823 298.87 115.653 298.274 115.834C295.467 116.681 292.64 118.532 290.237 120.096ZM277.026 129.895C276.967 128.524 276.934 126.827 277.137 125.306C277.07 125.26 277.003 125.223 276.939 125.182L276.569 125.098C275.747 126.99 274.972 129.319 274.53 131.406C274.217 132.899 274.076 134.438 273.544 135.802C274.076 138.698 271.683 142.794 275.116 143.847C276.31 142.806 276.631 140.084 276.566 138.098C276.502 136.147 276.569 133.79 276.595 131.796L277.026 129.895ZM290.139 123.927C290.029 124.61 290.191 125.033 290.309 125.578C289.539 126.383 288.768 127.18 287.998 127.981C287.798 128.913 288.129 129.293 288.678 129.745C290.532 129.685 291.798 127.95 293.429 127.435L293.5 127.452C292.543 129.108 290.792 130.355 289.613 131.727C289.192 132.353 288.771 132.972 288.345 133.597C287.317 134.636 285.975 134.863 285.53 136.885C285.705 137.361 285.774 137.591 286.136 137.942C288.121 138.2 288.691 136.142 289.744 134.914C291.405 132.966 292.869 130.763 294.612 129.008C294.941 128.464 295.267 127.924 295.596 127.382C296.415 126.561 297.616 126.32 298.294 125.298C298.186 124.981 298.091 124.871 297.824 124.655C297.003 124.835 296.014 125.106 295.169 124.826C295.028 125.1 294.892 125.382 294.748 125.656C293.113 126.336 291.472 127.018 289.829 127.702L289.61 127.653C290.804 124.892 293.829 125.712 295.134 123.971C295.205 123.757 295.28 123.544 295.352 123.331L295.295 123.237C293.249 122.949 292.032 123.304 290.391 123.826C290.309 123.86 290.227 123.889 290.139 123.927ZM296.348 110.706C295.991 110.852 294.979 111.761 294.8 112.128C295.151 112.74 296.885 113.451 297.676 113.698C299.144 113.271 298.294 111.784 297.419 111.098C297.247 110.887 296.579 110.681 296.348 110.706ZM296.261 138.073C295.555 138.28 294.327 138.614 293.472 137.829C293.108 137.5 292.905 136.847 292.473 136.448C292.422 136.462 292.368 136.479 292.314 136.49C292.183 136.847 292.052 137.204 291.916 137.554C292.258 138.939 291.706 140.249 293.652 140.791C294.933 139.92 296.672 140.272 298.197 139.739C299.208 139.385 299.999 138.352 300.96 138.056C301.471 138.065 301.976 138.079 302.49 138.09C302.631 137.843 302.744 137.734 302.711 137.451C302.485 136.786 301.537 136.557 301.291 135.9C300.867 134.748 300.682 133.663 300.269 132.592L299.974 132.525C299.853 132.602 299.737 132.677 299.614 132.747C299.334 136.721 299.868 137.024 296.261 138.073Z" fill-rule="evenodd"  fill="#ADE0EE" >
</path>
<path d="M21.9268 127.415L22.0637 127.89C22.8222 127.825 22.8849 127.024 23.4816 126.679C25.924 125.88 28.3725 125.088 30.8137 124.289C33.5444 122.862 35.4437 120.895 38.3575 119.782C38.5455 119.925 38.7311 120.068 38.9204 120.211C38.4816 121.309 37.0899 121.79 36.3239 122.717C34.8945 124.46 33.2709 126.399 31.7488 128.07C31.1947 128.445 30.6432 128.825 30.0865 129.206C29.7077 129.851 29.3267 130.501 28.9505 131.149C28.0303 132.092 25.2543 133.796 24.8481 134.82C25.2394 136.17 27.5914 137.161 29.1059 136.324C31.9345 134.758 35.5277 132.443 39.0031 132.1C39.0457 132.16 39.0883 132.223 39.1286 132.285C39.1073 132.466 39.086 132.644 39.0634 132.825C40.0612 133.244 42.1778 131.954 42.5801 131.233C41.3428 128.062 36.4079 131.008 33.3236 131.519C33.2496 131.439 33.1757 131.364 33.1056 131.282C33.8476 129.715 35.5677 128.507 36.799 127.214C38.1832 125.764 39.5849 124.179 40.9378 122.651C42.0209 121.433 43.5065 120.224 43.5643 118.443C43.5117 118.334 43.4539 118.231 43.3987 118.123C41.2801 117.333 40.2594 118.592 37.8396 118.749C36.3101 118.855 34.3668 119.664 33.1205 120.247L30.9441 120.871C27.3758 122.607 22.9123 124.235 21.9268 127.415Z" fill-rule="evenodd"  fill="#ADE0EE" >
</path>
<path d="M23.5055 112.33C23.449 112.222 23.3938 112.118 23.3386 112.01C22.7719 111.828 22.2029 111.648 21.6411 111.465C20.0863 111.987 20.218 113.107 19.8809 114.319C19.3843 116.07 18.2145 117.657 17.4686 119.274C17.1227 120.032 17.115 120.833 16.7188 121.548C16.27 122.371 15.3135 122.954 15.1165 123.914L15.2732 124.46C15.475 124.497 15.5428 124.519 15.8563 124.439C16.557 123.186 17.7068 122.772 18.9054 121.732C21.23 119.719 24.4871 116.157 23.5055 112.33Z" fill-rule="evenodd"  fill="#ADE0EE" >
</path>
<path d="M19.0007 139.58L18.6497 138.354C18.7298 137.332 19.086 136.732 18.8128 135.581C18.0956 135.484 16.8066 139.91 15.445 140.52C15.3461 140.524 15.247 140.528 15.154 140.532C15.0965 140.495 15.0364 140.461 14.9799 140.431C14.1737 135.471 14.763 130.246 15.5828 126.064C15.5279 125.958 15.475 125.85 15.4188 125.742L15.3774 125.609C14.1588 125.86 14.5021 127.633 14.0859 128.55C13.1707 130.578 12.9176 133.273 12.6867 135.495C12.6115 136.183 13.2961 137.488 13.1407 138.381C12.9225 139.639 12.6292 142.51 14.0571 143.635C15.0439 144.424 16.7214 143.47 17.4085 142.75C18.2032 141.913 19.086 140.892 19.0007 139.58Z" fill-rule="evenodd"  fill="#ADE0EE" >
</path>
<path d="M39.5823 89.8839C40.7986 88.6001 42.5262 86.9791 43.8727 85.7104C44.8482 84.7889 46.3878 83.8799 47.1224 82.7163C47.155 82.6423 47.1902 82.5648 47.2179 82.4883L46.9896 82.1383C45.5979 82.0934 44.3141 82.2875 42.6867 83.1728C42.6402 83.1428 42.5963 83.1215 42.5488 83.0963C43.316 81.9991 46.9945 80.4773 48.2057 80.0872C48.3988 79.7727 48.4214 79.6898 48.3587 79.32C47.4749 78.6255 46.72 78.2919 45.7284 78.2406L45.6131 78.0663C46.7539 76.1893 49.7404 76.8538 51.3226 75.7731C51.3552 75.6113 51.3891 75.4521 51.4228 75.2904C50.608 74.8079 49.8796 74.2849 49.0207 74.0581C48.113 73.816 46.6435 73.9955 45.8737 73.322C47.1075 72.8305 48.5318 72.714 49.8505 72.1773C52.0698 71.2748 54.1974 69.4818 55.9075 68.153C55.9013 67.8244 55.7809 67.5448 55.4687 67.1162C54.9133 66.9028 54.3543 66.6962 53.7963 66.4792C53.3485 66.5857 52.3004 68.3371 51.4905 68.7636C50.332 69.3691 49.3581 70.6491 48.3148 71.1179C46.9845 71.7136 45.2017 72.3943 44.1636 73.3772C44.3493 74.4292 45.9777 74.5005 46.6961 74.9381C46.7013 74.9897 46.7087 75.0423 46.7126 75.0898C45.6354 75.9813 42.253 78.0588 43.5391 79.1935L44.4746 79.488L44.5172 79.5457C43.4213 80.9374 41.4103 82.9397 39.5348 83.9349C38.3162 84.5781 36.7789 85.2213 35.7059 86.0576C35.7485 86.1993 35.786 86.3398 35.8224 86.4812C36.4918 86.4412 37.8797 85.788 38.5342 85.4282C38.6045 85.496 38.6721 85.5574 38.7424 85.62C38.7273 86.5742 38.4528 88.609 38.158 89.5003C37.9349 90.2 37.293 90.8781 37.3307 91.6317C37.91 91.8186 39.0257 90.4757 39.5823 89.8839ZM42.0121 83.2894L42.13 83.4599C41.9369 83.53 41.9094 83.4647 42.0121 83.2894ZM40.3521 86.0437C40.0902 85.7253 39.8206 85.4044 39.5549 85.0898C39.5774 85.0421 39.6024 84.9943 39.6275 84.9481C40.9992 84.5118 42.3732 84.073 43.7423 83.6316C43.6796 84.3023 42.1475 85.798 41.5055 86.2807C41.1245 86.2029 40.7409 86.1241 40.3521 86.0437Z" fill-rule="evenodd"  fill="#ADE0EE" >
</path>
<path d="M51.4117 80.7844C52.3507 81.0363 57.1025 78.91 58.1555 78.0524C58.1406 77.7504 58.098 77.5697 57.832 77.1873C57.4761 76.9794 57.1148 76.7786 56.759 76.5667L51.3927 80.1324C51.3452 80.2742 51.3 80.4121 51.2574 80.5525L51.4117 80.7844Z" fill-rule="evenodd"  fill="#ADE0EE" >
</path>
<path d="M46.8579 69.4279C46.8566 69.1999 46.8867 69.1899 46.7639 68.9077C45.618 68.909 44.3767 70.0924 43.1481 70.475C42.2327 70.723 41.315 70.9687 40.4035 71.2235C40.0512 71.1495 39.7002 71.0817 39.3453 71.0078L39.1196 71.1605C39.0834 71.2371 39.0508 71.3123 39.0195 71.3901C40.9614 73.6394 44.3981 70.7456 46.8579 69.4279Z" fill-rule="evenodd"  fill="#ADE0EE" >
</path>
<path d="M54.3317 90.8154C55.2656 91.0663 57.273 91.1741 58.0051 89.9578C58.1055 89.7334 58.0903 89.8816 58.0228 89.612C56.142 88.663 53.9805 89.5455 52.0699 88.9123C52.1677 87.9582 55.0864 85.7454 56.1484 85.0408C56.1597 84.9756 56.1746 84.908 56.1872 84.8451L55.9566 84.5005C55.3195 84.6947 54.8607 84.4027 54.3066 84.5154C53.4215 84.7049 52.4735 85.1887 51.7653 85.4508C51.2474 85.1373 51.0944 84.5118 50.7709 83.9562C50.6381 83.9588 50.5051 83.9652 50.3672 83.9701C50.1002 84.4703 50.1754 85.3355 50.2319 85.8909C49.7379 86.1064 49.2402 86.3259 48.7498 86.5442C48.8202 86.692 48.8916 86.8374 48.9629 86.9817C49.3329 86.9591 49.7053 86.9339 50.0763 86.9077C50.6217 87.3866 49.3016 93.7418 50.8438 94.4602C50.9413 94.4803 51.0417 94.499 51.1344 94.519C51.6762 93.6566 51.8719 92.622 51.8167 91.6581C51.7866 91.1428 51.498 90.8958 51.6611 90.4293C52.115 89.8978 53.4264 90.2652 54.0634 90.1622C54.2901 90.383 54.2927 90.5258 54.3317 90.8154Z" fill-rule="evenodd"  fill="#ADE0EE" >
</path>
<path d="M51.7627 86.7034C51.9294 86.6194 52.0973 86.5329 52.2603 86.4512L52.303 86.5103C52.1638 86.6307 52.0221 86.7547 51.8793 86.8738L51.7627 86.7034Z" fill-rule="evenodd"  fill="#ADE0EE" >
</path>
<path d="M45.5353 90.5887C44.793 90.4644 44.1688 89.7712 43.4051 89.7612C43.1455 89.7999 42.9976 89.9604 42.9237 90.1622C42.8097 90.4483 42.8485 90.7366 43.0377 91.0889C42.4661 92.4141 38.7864 93.8948 37.4221 94.3937C37.1451 94.6068 36.8719 94.8174 36.5946 95.0292C36.0969 95.1974 35.5955 95.3628 35.0966 95.5245C33.1256 96.406 31.4379 97.5756 29.5398 98.3027C27.6893 99.3134 25.8336 100.323 23.9831 101.331C23.1067 101.66 22.4008 101.169 21.6598 101.455L21.1997 101.768C21.2374 102.121 21.2862 102.484 21.3327 102.839C23.2484 104.98 25.5804 103.043 28.286 101.793C31.5056 100.047 34.7217 98.2991 37.9375 96.55C38.5016 96.1503 39.0647 95.7441 39.6327 95.3427C41.5007 94.469 46.4656 92.3753 45.5353 90.5887Z" fill-rule="evenodd"  fill="#ADE0EE" >
</path>
<path d="M34.8532 91.2833C34.7466 91.0738 34.6401 90.8694 34.5273 90.6627C33.6646 90.294 32.762 89.0566 31.9771 88.4496C31.7927 88.5487 31.6086 88.6404 31.4191 88.7418C31.6887 90.097 31.0329 90.8845 31.7401 92.3527C32.6917 92.8003 33.1657 92.745 34.219 92.7011C34.798 92.2888 34.9662 91.8322 34.8532 91.2833Z" fill-rule="evenodd"  fill="#ADE0EE" >
</path>
<path d="M112.116 51.4544C112.023 49.1314 111.393 46.6539 111.225 44.3394C111.107 42.7558 111.31 41.5185 111.267 39.9676C111.195 39.3722 111.119 38.7803 111.044 38.1875C111.24 36.659 113.108 36.7129 113.311 35.0329C113.252 34.895 113.193 34.7609 113.134 34.6231C113.105 34.5553 113.078 34.4875 113.045 34.4187C112.403 34.5052 111.867 35.0216 111.329 35.3451C111.267 35.2899 111.2 35.2372 111.139 35.1846C111.285 34.0977 111.394 33.7028 111.992 32.8188L111.363 31.6402L111.506 31.2766C113.155 30.9708 118.95 28.6776 119.443 26.8235C117.574 24.6595 113.78 26.6466 112.02 26.5791C111.982 26.5339 111.942 26.49 111.902 26.4487C112.148 25.1987 112.388 23.9372 112.636 22.685C114.01 20.758 119.508 21.45 120.795 19.583L120.879 19.3663C120.816 18.8823 120.391 18.6314 119.74 18.4047C119.209 18.3947 118.68 18.3783 118.151 18.3708C116.503 18.7683 114.572 20.3705 112.687 20.0005C112.353 19.3198 112.344 17.7402 110.9 18.1063C110.533 18.1664 110.242 18.4987 109.971 18.7531C109.768 19.6033 110.267 19.7738 109.963 20.694C108.126 21.4951 106.097 21.6592 104.177 22.2862C101.601 23.1261 99.0657 23.9159 96.4153 24.6118C95.0536 24.9653 93.2634 26.0851 91.7665 25.892C91.463 26.0851 91.3677 26.0787 91.1546 26.574C91.2473 26.6993 91.34 26.8235 91.4329 26.9363C92.7067 28.1413 95.3219 27.6182 96.4905 27.6021C100.305 27.533 102.813 25.9056 106.077 24.7296C107.248 24.3072 108.421 23.4222 109.735 23.3919C110.101 23.313 110.217 23.6879 110.116 24.1367C108.677 24.9027 106.217 24.1819 105.676 26.594C105.686 26.6543 105.686 26.7118 105.693 26.7722C106.857 27.3625 108.243 26.7722 109.469 26.8348L109.542 26.861C109.536 26.9476 109.532 27.0241 109.527 27.1132C108.628 27.6372 107.505 27.7887 106.465 28.007C103.78 29.1103 101.087 30.2098 98.4011 31.3105C97.4159 31.7807 95.3397 32.1116 94.6726 33.0396C94.6099 33.2702 94.5473 33.4997 94.4846 33.7303C94.6826 33.8656 94.8857 33.9973 95.0814 34.1326C99.6375 32.2546 104.307 30.6686 108.949 28.9937L109.242 29.1103C109.637 31.8585 104.785 32.4377 103.143 34.0451C103.211 34.3909 103.346 34.5427 103.599 34.8084C104.674 35.1659 105.841 34.7609 106.586 34.3044C106.669 34.3134 106.754 34.3157 106.834 34.3221C106.606 35.5369 104.412 36.3606 103.534 36.8972C103.286 37.9091 103.331 38.5711 103.772 39.2705C105.567 40.4352 107.531 39.594 108.742 38.8782L109.108 39.0222C109.224 39.9011 108.909 40.6673 108.911 41.6502C108.915 43.9735 108.884 46.4108 108.582 48.8667C108.403 50.3123 107.752 51.457 107.718 52.7459C107.712 52.8312 107.708 52.9151 107.704 52.9942C109.051 53.8403 112.205 53.6272 112.116 51.4544ZM108.198 36.634C108.105 36.6528 108.013 36.679 107.922 36.6941L107.704 36.6063C107.982 36.3267 108.266 36.0435 108.544 35.759L108.838 35.873C108.822 35.9834 108.807 36.0848 108.795 36.1927L108.198 36.634ZM111.344 30.1972C111.099 29.7548 111.192 29.0512 111.47 28.388C112.772 27.7951 114.229 27.8966 115.579 27.4077L115.871 27.5168L115.841 27.5882C114.605 28.5123 112.86 29.9492 111.344 30.1972Z" fill-rule="evenodd"  fill="#ADE0EE" >
</path>
<path d="M198.746 15.333C198.274 15.5775 197.641 16.2556 197.098 16.5391C195.989 16.7622 194.875 16.984 193.76 17.2023C191.648 17.8255 189.541 18.4448 187.428 19.0602C187.363 19.0176 187.3 18.9737 187.234 18.9275C187.202 18.293 187.335 16.7796 187.491 16.0212C188.148 14.4793 190.352 13.7431 192.253 13.8435C192.289 13.8975 192.325 13.9462 192.363 13.9901C191.458 14.4341 190.551 14.8678 189.641 15.3053C189.641 15.788 189.733 15.8597 189.961 16.178C192.126 16.1041 197.419 14.1832 197.511 12.5972C197.305 12.2123 197.098 11.8261 196.889 11.4402C195.496 10.9172 194.688 11.8374 193.496 12.2826C191.965 12.5197 190.437 12.7541 188.904 12.9934C188.481 13.1703 188.157 13.4373 187.638 13.4635L187.044 10.0308C186.596 9.85544 186.345 9.72988 185.665 9.84671C184.774 11.2358 185.057 13.6905 184.72 15.5711C183.506 15.4332 181.129 13.8597 180.049 15.368C180.703 17.4893 183.055 16.0638 184.194 16.9278C184.255 16.9727 184.323 17.0179 184.387 17.0644C184.091 17.8593 183.585 18.9123 183.617 19.8991C181.282 21.1103 177.105 21.6957 174.323 22.6786L171.709 23.1313C171.181 23.3356 170.653 23.54 170.129 23.7454C168.934 23.8371 167.744 23.9337 166.554 24.0289C165.902 23.832 165.249 23.6376 164.6 23.4409C164.575 23.4684 164.552 23.5061 164.532 23.5336C164.301 23.7241 164.294 23.8107 164.206 24.0967C164.567 25.2675 167.967 26.7319 169.909 25.8856C172.345 24.8352 175.254 24.0115 178.157 22.9431C179.863 22.3137 181.31 21.5491 183.494 21.1716C183.577 21.4687 183.654 21.7622 183.737 22.0605C185.144 22.5481 185.675 20.8794 186.563 20.3931L187.789 20.1774C191.545 18.9098 196.094 18.49 199.641 17.1158C200.791 16.6656 201.997 17.1409 202.98 16.4487C202.996 14.78 200.348 14.4854 198.746 15.333Z" fill-rule="evenodd"  fill="#ADE0EE" >
</path>
<path d="M192.694 20.7641L192.676 20.6763L191.721 20.0018L190.492 20.2162C189.489 21.1991 183.594 23.2391 181.327 23.2391C180.663 23.2391 180.403 23.017 179.62 23.1099C178.877 24.1506 178.706 25.7841 180.392 26.0912C180.655 26.1138 183.437 24.6243 183.954 24.3008L184.444 24.212C184.382 24.5052 184.323 24.7948 184.261 25.0845C184.991 25.8956 185.545 25.9346 186.816 25.7402C186.672 26.49 184.951 27.7525 184.279 28.1148C184.118 28.4596 184.027 28.5059 184.107 29.0725C185.07 29.6405 185.452 28.9598 186.485 29.1655L186.646 29.1378C186.212 30.7777 181.413 34.0551 183.78 35.4468C184.723 35.4165 185.342 35.0945 186.026 34.8048C186.413 36.0034 185.743 40.4565 185.101 41.1161C184.559 41.6664 183.617 41.5585 182.962 41.906C183.06 42.2808 183.075 42.4901 183.333 42.5979C184.103 42.6344 184.868 42.6696 185.628 42.7032C186.628 42.8737 186.969 43.7577 188.376 43.4933C188.629 43.1723 188.814 43.0306 188.891 42.5705L188.11 38.0645C188.113 36.7029 188.346 35.0606 188.08 33.521C189.382 32.2559 192.787 30.1106 191.521 27.6246C190.931 27.7148 189.385 30.3351 188.651 30.9834L188.406 31.0273C188.249 30.932 188.23 30.8604 188.104 30.7364C188.159 30.4193 188.216 30.097 188.276 29.7797C188.817 29.3398 189.647 28.9185 189.86 28.244C190.091 27.7099 189.076 27.1594 188.624 26.9388L188.539 26.4499C189.023 25.9546 189.75 25.3805 190.496 25.1022C190.564 24.8701 190.593 24.7948 190.548 24.4164C189.845 24.1819 189.271 23.9912 188.782 23.4596C188.91 22.4716 192.019 21.9288 192.694 20.7641ZM184.888 33.5659C184.82 33.4984 184.749 33.4245 184.681 33.3505L186.345 31.2943C187.391 31.8446 185.432 33.2653 184.888 33.5659ZM186.554 27.6372C186.443 27.6295 186.326 27.6246 186.212 27.6133L186.362 27.4993L186.687 27.449C186.646 27.5104 186.598 27.5733 186.554 27.6372ZM187.135 24.1681L186.806 24.222L186.776 24.0628C186.877 23.9888 186.977 23.9149 187.076 23.8371C187.135 23.8597 187.194 23.8759 187.255 23.891C187.215 23.9837 187.17 24.0764 187.135 24.1681Z" fill-rule="evenodd"  fill="#ADE0EE" >
</path>
<path d="M194.156 31.6292C193.885 32.4239 192.671 37.3173 193.265 37.6757C193.947 38.1962 197.375 38.0257 197.932 37.3748C199.587 35.7025 195.703 31.5275 194.156 31.6292Z" fill-rule="evenodd"  fill="#ADE0EE" >
</path>
<path d="M176.222 38.0206C175.377 39.4348 171.132 40.5756 169.986 39.441L169.409 39.5363C169.349 39.6893 169.294 39.8385 169.239 39.9902C168.807 41.9398 171.626 43.4229 172.822 43.6638C173.444 43.5056 176.515 39.2805 176.909 38.576L176.742 38.0997C176.568 38.0706 176.395 38.0457 176.222 38.0206Z" fill-rule="evenodd"  fill="#ADE0EE" >
</path>
<path d="M224.356 31.9311C224.901 31.0674 226.285 30.3163 226.922 29.3083C227.22 28.1199 227.512 26.9288 227.811 25.7451C227.737 25.6701 227.666 25.5959 227.594 25.5246C227.512 25.4832 227.428 25.4432 227.35 25.4041C226.579 25.9482 225.618 27.3111 225.159 28.0709C225.082 28.086 225.005 28.1009 224.925 28.1174C224.396 27.3977 224.789 26.9124 224.87 26.2343C225.086 24.5052 224.584 22.9769 223.168 21.6556C223.037 21.6769 222.902 21.6957 222.77 21.7157C222.022 22.8542 222.142 27.5016 222.152 29.0363C222.156 29.5892 222.408 30.2098 222.156 30.6876C221.609 31.7218 220.485 32.1532 219.539 33.0771C218.52 34.1678 217.498 35.2537 216.478 36.3393C215.427 37.1807 214.381 38.0231 213.333 38.863C213.155 38.7929 213.19 38.8268 213.012 38.616C213.138 37.583 212.859 35.7187 213.311 34.7835C214.325 32.7022 217.986 29.7145 217.877 27.5181C217.217 26.5565 216.408 26.594 215.743 25.799C214.622 24.4564 215.418 23.5736 214.384 22.4154C214.076 22.3864 214.044 22.3188 213.649 22.4942C212.927 24.6708 212.396 26.8348 212.009 29.1041C211.841 30.0857 212.37 31.4474 211.666 32.2598C210.393 33.7403 205.349 35.5669 207.238 37.3612C208.384 38.1032 209.912 36.7755 211.305 36.1287C211.365 36.1788 211.424 36.2301 211.483 36.283C211.468 36.8194 211.277 39.9876 211.132 40.315C210.658 41.3832 209.682 41.8785 208.697 42.865C208.566 43.141 208.439 43.4216 208.311 43.6964C207.446 44.718 206.196 45.1969 205.399 46.1724C205.018 46.6425 204.87 48.2863 205.725 48.6848C207.184 49.3758 209.55 45.3938 210.43 44.6441C211.077 45.9105 210.54 48.2424 210.219 49.3758C209.587 49.565 209.445 48.9796 208.993 48.6109C208.933 48.5569 208.871 48.503 208.812 48.4555C208.719 48.5408 208.619 48.6222 208.524 48.7048C208.358 49.0009 209.457 53.3351 210.104 53.9657L211.347 54.462C213.1 53.1582 212.2 51.8356 212.184 50.0629C212.175 48.6047 212.39 46.9321 212.507 45.5179C212.571 44.6942 212.273 43.9308 212.424 43.1358C212.801 41.1074 216.205 38.151 218.581 37.1167C219.243 36.2052 220.11 35.3302 221.094 34.697C221.212 34.8048 221.33 34.9088 221.448 35.0154C221.394 36.5524 219.819 39.6805 220.161 40.73C220.251 40.7839 220.347 40.8478 220.437 40.9092C222.38 40.2547 224.477 41.0697 225.756 42.8662C225.768 44.4184 223.865 46.5924 222.182 47.6418C220.076 46.7655 220.149 45.0303 218.619 43.6224C218.547 43.6324 218.467 43.6512 218.388 43.6686C217.359 45.1969 219.563 48.7965 220.956 50.1782C222.684 50.2008 226.989 45.7926 227.576 44.5075C229.146 44.7745 229.808 46.9283 230.98 48.2673C232.662 50.1769 234.577 52.3545 236.453 53.1821C237.002 52.8637 237.2 52.6315 237.508 52.307C237.956 47.4775 231.159 46.1197 228.906 42.6005C229.202 41.3454 231.089 36.8394 229.983 35.6221C229.415 35.3425 228.847 35.0619 228.279 34.7835C227.237 35.1006 225.522 35.7187 224.588 36.6679C223.95 37.3209 223.385 38.2075 222.496 38.7577C222.368 38.6851 222.239 38.6173 222.112 38.5446C222.593 37.6282 223.077 36.7093 223.556 35.7952C224.029 34.5666 223.617 33.1058 224.356 31.9311ZM214.358 26.2604C214.455 26.2304 214.555 26.2004 214.659 26.1729C215.377 27.7551 215.695 28.902 214.215 29.9088L214.178 29.8436L213.873 29.7609C213.865 28.5297 214.291 27.4703 214.358 26.2604ZM224.85 38.1672C225.625 37.7497 226.398 37.3322 227.162 36.9124C227.496 36.9799 227.825 37.049 228.158 37.1191C228.205 38.3441 227.853 40.3625 227.042 41.3367C226.019 41.1788 225.082 40.0177 224.19 39.4261C224.229 38.8607 224.496 38.6599 224.85 38.1672Z" fill-rule="evenodd"  fill="#ADE0EE" >
</path>
<path d="M250.337 64.176C250.527 64.1534 250.368 64.1347 250.592 64.2086C250.997 65.8673 250.527 68.4927 252.97 69.3752C253.134 69.2926 253.294 69.2173 253.458 69.1385C254.256 68.0339 253.579 66.4065 253.634 65.2919C253.759 64.5434 253.884 63.795 254.005 63.0452C253.935 62.6978 253.865 62.3468 253.795 61.9997C254.065 60.9415 254.527 60.134 254.781 59.0607C254.775 58.6748 254.77 58.2848 254.76 57.9024C255.18 54.4107 257.419 51.7103 260.906 50.7649C261.702 50.5479 262.632 49.9399 263.441 50.0603C263.507 50.0577 263.574 50.0565 263.641 50.0452L263.695 50.0952C263.13 50.6306 262.044 51.0794 261.736 51.9809L261.641 52.0813C261.831 52.1892 262.026 52.2983 262.218 52.4059C263.145 51.8243 266.979 49.4384 265.862 48.2986C262.786 48.1169 260.367 50.3926 257.363 51.5347C256.775 51.6325 256.473 50.7384 255.949 50.6596C255.251 49.6377 257.06 46.7655 254.394 47.4662C253.183 49.1087 253.922 51.3416 253.107 52.9941C252.813 53.5983 248.958 55.6719 248.282 55.9654C247.17 55.3171 246.468 55.1931 245.451 55.0639C245.447 55 245.442 54.9322 245.44 54.867C246.859 54.2589 251.291 52.1075 250.46 50.0703C250.269 49.6102 249.805 49.3244 249.399 49.2279C247.511 48.7701 247.182 50.4565 245.412 51.8882C244.376 52.875 243.341 53.864 242.305 54.8482C242.136 55.494 241.716 56.0219 241.959 56.6412C241.997 56.7075 242.029 56.7678 242.072 56.8343C243.185 56.7565 244.133 56.2625 245.309 56.9432C245.332 56.9935 245.348 57.0448 245.368 57.0924C243.664 60.0788 239.889 61.7814 238.887 64.4995L239.314 64.8783C239.677 64.9571 240.066 64.8205 240.405 64.5095C241.33 65.1075 241.021 66.4992 241.029 67.3517C241.037 69.0882 240.865 71.1169 240.445 72.8444C240.144 74.0831 239.437 75.0886 239.386 76.2936C239.365 76.8538 239.686 77.6426 240.206 78.1628C241.975 78.0801 242.642 75.6843 243.069 74.507C243.927 72.1347 243.388 67.2038 242.896 64.8166C242.779 64.2425 242.4 63.9655 242.456 63.38C243.108 62.9713 243.757 62.5599 244.408 62.1514C244.862 61.6022 245.319 61.0555 245.773 60.505C246.066 60.1592 246.503 60.0061 246.929 59.5273C248.601 57.6354 249.642 56.0455 251.717 55.9577C251.911 55.9364 251.751 55.9189 251.97 55.9954C252.089 56.6186 251.925 57.5124 251.596 58.1356C251.109 59.0497 249.595 59.5999 248.911 60.6229C247.25 62.6755 245.585 64.7252 243.926 66.7775C244.131 67.9309 244.111 69.2638 245.522 69.917C246.159 69.7162 247.106 69.3452 247.257 68.4989L247.217 67.7931C247.52 67.5247 247.828 67.2554 248.128 66.9819C248.752 65.9313 249.179 64.7653 250.337 64.176Z" fill-rule="evenodd"  fill="#ADE0EE" >
</path>
<path d="M263.533 55.0026C262.18 54.6942 259.463 56.0645 258.259 57.1879C258.154 57.1576 258.049 57.1301 257.948 57.1037L257.897 57.0587C258.916 55.835 259.938 54.6125 260.96 53.3901C260.996 53.0455 260.896 53.0568 260.58 52.9602C259.61 53.908 258.642 54.8547 257.671 55.8075C257.193 57.2706 254.815 58.2434 255.126 59.743L255.446 60.0326C255.873 60.0988 257.728 58.9781 258.246 58.7036C260.049 57.7556 261.969 57.6716 263.785 55.9002C263.731 55.5728 263.703 55.3448 263.533 55.0026Z" fill-rule="evenodd"  fill="#ADE0EE" >
</path>
<path d="M258.462 64.0433C258.27 64.1912 258.072 64.3365 257.882 64.4857C257.977 66.3726 258.683 68.2519 259.076 70.1227C259.235 70.8912 258.983 71.6345 259.058 72.3943C259.274 72.8708 259.487 73.3446 259.7 73.8211C259.859 74.8228 260.021 75.8247 260.18 76.8238L260.552 77.1547C261.017 77.0407 263.166 75.535 263.259 75.075C263.513 74.2625 263.053 73.9477 262.648 73.2971C262.727 72.6639 262.812 72.0371 262.889 71.4075C262.637 70.9012 262.391 70.3997 262.144 69.888C261.708 67.9748 261.87 63.3274 258.462 64.0433Z" fill-rule="evenodd"  fill="#ADE0EE" >
</path>
<path d="M270.132 87.4354C270.197 87.5319 270.266 87.6285 270.333 87.7224C270.625 88.1012 271.213 88.2029 271.606 88.3217C272.954 87.5609 272.749 85.9033 272.731 84.7625C272.682 81.7886 272.808 78.7934 271.609 76.177C271.247 75.8786 270.874 75.7505 270.471 75.6539C270.266 75.866 270.06 76.0804 269.86 76.2959C270.384 78.3246 271.66 84.9142 271.016 86.9426C270.787 86.993 270.548 87.0443 270.317 87.0944L270.132 87.4354Z" fill-rule="evenodd"  fill="#ADE0EE" >
</path>
<path d="M262.139 99.6055C262.114 99.5339 262.096 99.4638 262.078 99.396L261.8 99.2468C261.49 99.302 261.392 99.4238 261.03 99.3573C261.898 97.7977 263.844 94.6556 265.041 93.9036C266.022 93.2853 267.193 93.0182 268.161 92.3976C268.949 90.7076 268.679 86.4925 267.652 85.2965L267.131 85.2852C266.042 86.5778 266.972 91.7421 266.309 92.3727C265.341 92.8554 264.371 93.3382 263.405 93.8219C261.182 95.1383 259.376 97.2772 257.715 100.41C257.897 101.324 257.612 102.533 259.14 102.859L259.279 102.933C260.193 102.384 261.477 100.709 262.139 99.6055Z" fill-rule="evenodd"  fill="#ADE0EE" >
</path>
<path d="M283.069 73.5028L282.725 73.3184C280.728 74.5083 279.844 77.7692 277.924 79.4115C276.75 80.229 274.578 78.6881 273.646 80.1137C273.643 80.1764 273.643 80.229 273.641 80.2891C274.19 81.2858 275.264 81.2181 276.126 81.1015L276.196 81.1379C275.993 81.9316 273.751 83.2781 274.047 83.9652C274.195 84.3023 276.034 85.2665 276.432 85.7918C275.772 87.5858 273.936 88.1638 273.04 89.2759C273.099 89.5393 273.109 89.5843 273.374 89.81C274.183 89.7234 274.596 89.1983 275.32 88.8235C276.098 88.4247 276.835 88.4296 277.708 88.342C278.26 88.7908 278.389 89.2196 279.136 89.642L279.097 89.7085C275.867 91.3559 272.003 91.7983 268.952 93.8897L268.757 94.4076C268.865 94.4916 268.965 94.5768 269.065 94.6582L272.349 94.6582C273.512 93.8722 274.676 93.0847 275.841 92.2924C278.969 90.5222 284.305 88.9123 287.984 89.0153C288.177 89.7874 286.061 90.4344 285.452 90.7502C282.479 92.2811 279.593 93.7305 276.591 95.0043C275.736 95.3715 272.932 96.3107 274.059 97.8865C274.781 98.684 276.74 97.7864 277.585 97.7574C277.367 98.4958 277.146 99.2343 276.922 99.9678C276.884 100.862 276.843 101.758 276.804 102.652C274.637 103.701 272.701 103.117 271.702 106.191C271.779 106.318 271.851 106.451 271.933 106.583C273.659 107.391 278.715 108.102 279.244 106.012C279.251 105.478 279.115 105.178 279.151 104.544C279.123 104.246 279.172 104.332 278.851 104.113C278.889 103.99 278.928 103.858 278.969 103.734C279.582 103.66 279.593 103.876 280.142 104.012C280.376 104.012 283.652 102.626 283.93 102.428C283.968 102.299 284.007 102.172 284.048 102.048C284.045 101.758 284.009 101.712 283.819 101.48C282.725 100.049 279.893 101.685 278.812 102.053C277.736 101.161 279.796 98.8971 279.996 97.7299C279.998 96.9 279.418 96.0386 278.358 95.5132C278.358 95.4544 278.36 95.4005 278.363 95.3402C280.771 95.0844 283.378 93.3605 285.606 92.4267C286.559 92.0857 287.517 91.747 288.469 91.4034C289.127 90.8293 292.002 88.7482 291.304 87.7954C290.231 86.341 286.359 88.0347 285.195 87.7764C287.478 84.671 289.43 81.8864 290.385 78.169C289.697 76.7886 288.718 77.2877 287.555 77.1699C287.399 77.3542 287.245 77.5348 287.085 77.7165C287.121 77.7615 287.15 77.8131 287.185 77.858C287.907 78.1027 288.323 77.8031 288.967 77.8431L289.127 78.3759C288.349 80.9084 286.829 83.6478 285.09 85.6801C285.039 85.714 284.995 85.7428 284.946 85.7767L284.877 85.7405C284.643 85.1435 284.905 84.6297 284.862 83.9588C284.777 82.5971 284.269 81.4088 283.621 80.1889C282.774 79.888 282.384 80.3068 281.757 80.684L281.483 80.5412L281.593 80.3317C282.114 80.0798 282.635 79.8302 283.154 79.5758C283.218 79.5244 283.272 79.4679 283.334 79.4115C283.257 79.28 283.18 79.1483 283.1 79.0191C281.596 79.1483 280.818 80.7982 278.961 79.7951C278.961 79.735 278.966 79.6785 278.966 79.6223C280.052 78.7421 284.741 75.2529 283.069 73.5028ZM277.4 104.834L277.346 105.256C276.483 105.838 274.945 105.876 273.975 104.936C274.704 104.23 276.078 104.577 276.992 104.437C277.125 104.573 277.261 104.706 277.4 104.834ZM277.369 81.425C277.454 81.3749 277.539 81.3323 277.621 81.2897L277.69 81.3246C277.593 81.3911 277.5 81.4615 277.403 81.5254C277.395 81.4941 277.387 81.4576 277.369 81.425ZM276.763 83.0449C277.346 82.3691 278.72 81.7208 279.529 81.6959L280.076 81.9991C279.508 82.6023 278.943 83.2178 278.378 83.8247C278.317 83.8799 278.26 83.9362 278.201 83.9927C277.721 83.6768 277.243 83.3633 276.763 83.0449ZM282.014 88.0924C282.055 88.2365 282.096 88.3782 282.137 88.5148C281.644 89.0314 280.391 89.5694 279.701 89.4176C279.806 88.9588 279.778 88.7105 279.665 88.3307C280.124 87.8955 281.087 87.9294 281.667 87.9094L282.014 88.0924ZM281.724 86.1641C281.023 86.6807 280.422 87.0518 279.598 87.1434C279.156 86.7259 279.274 86.2268 279.123 85.7317C279.824 84.706 280.723 84.1018 281.449 82.7327C281.927 83.3169 281.562 85.4044 281.724 86.1641ZM282.643 81.3423L282.759 81.1379L283.028 81.2858C283.532 82.1247 283.396 83.5939 283.272 84.6058C283.213 84.6646 283.154 84.7237 283.095 84.775C283.036 84.775 282.98 84.7738 282.918 84.7712C282.826 83.6304 282.736 82.4883 282.643 81.3423Z" fill-rule="evenodd"  fill="#ADE0EE" >
</path>
<path d="M152.117 28.388C151.904 28.1962 151.893 28.1374 151.468 28.0334C150.984 28.541 150.746 29.6857 150.598 30.665C150.37 30.7551 150.14 30.8455 149.916 30.9369C148.815 30.1746 149.672 30.1258 149.487 28.872C149.217 27.0641 149.29 25.1045 150.184 23.19C150.535 22.4429 151.543 22.1383 151.41 20.7842C150.994 19.9905 150.581 19.2032 150.166 18.416C149.946 17.3841 151.067 17.0356 151.004 15.9398C150.955 15.076 150.032 14.6911 149.675 14.0302C148.935 13.9226 148.772 14.1005 148.154 14.0754C148.088 14.014 148.021 13.9488 147.952 13.8787C148.358 13.2381 148.765 12.5949 149.17 11.953C148.742 11.4551 148.085 10.7706 147.27 10.58C142.995 12.5823 136.667 19.1432 134.38 23.9437C133.888 24.0163 133.396 24.0854 132.91 24.1555C131.226 24.8765 129.207 27.0328 128.717 29.3748C128.757 29.4361 128.8 29.4952 128.842 29.5578C129.239 29.5216 131.786 26.9314 132.249 26.5075L132.557 26.5578C133.098 27.3176 131.819 29.6883 131.43 30.6573C131.37 31.12 131.315 31.5865 131.255 32.0554C130.465 34.6292 129.003 41.328 130.447 42.8087C130.676 42.8763 130.901 42.9453 131.129 43.0129C131.848 42.5266 132.667 41.422 132.947 40.3913C133.604 36.5889 134.259 32.7774 134.913 28.9673C134.882 27.9066 134.504 26.2795 134.467 25.2288C135.405 24.0163 136.365 22.2585 137.504 21.159C139.372 19.3537 141.273 17.418 143.256 15.6689C143.617 15.3505 144.156 15.3079 144.502 14.9343C144.62 14.8752 144.738 14.8203 144.85 14.7576L144.928 14.7699C144.372 16.7835 142.837 16.9527 142.31 19.6369C142.535 19.6998 142.762 19.7699 142.99 19.8364C145.106 18.4496 145.63 15.9811 148.268 15.2113C149.249 16.7008 145.643 20.6863 145.339 22.2449L145.392 22.4154L145.613 22.5307C146.601 22.2372 147.515 20.9611 148.171 20.2049C148.317 20.1222 148.466 20.0483 148.614 19.9669L148.076 22.9721C147.819 23.5197 142.712 27.7425 142.2 27.8077C142.209 27.5969 142.218 27.3877 142.233 27.1794C142.185 27.1419 142.137 27.1068 142.092 27.0705L141.784 27.0166C140.818 27.8853 140.224 28.8132 140.441 30.5158C140.548 30.9421 140.786 31.2592 141.23 31.4535C142.724 31.9537 145.914 27.2272 147.398 26.7496C147.575 26.6579 147.526 26.6643 147.816 26.6643C148.078 28.1962 147.562 30.1936 147.66 31.9637C147.807 33.235 147.947 34.5088 148.09 35.7813C148.009 36.565 147.917 37.3435 147.832 38.1233C148.121 39.0222 148.411 39.9212 148.702 40.8265C148.832 40.9795 148.965 41.1387 149.098 41.2892C149.577 41.328 149.542 41.2579 149.845 41.1048C150.222 38.4368 149.206 36.3845 149.313 33.852C149.542 33.7616 149.768 33.6738 149.998 33.5772C151.222 33.9924 151.809 34.6931 152.907 33.7793C153.662 31.565 152.207 30.4555 152.117 28.388ZM132.255 34.935C131.494 34.4074 132.604 30.749 132.952 30.1297C133.283 30.4555 132.483 33.8055 132.255 34.935Z" fill-rule="evenodd"  fill="#ADE0EE" >
</path>
<path d="M137.674 14.4315C138.464 13.5826 139.63 11.4715 138.698 10.4748C138.316 10.3831 137.935 10.2865 137.555 10.1926C134.715 12.1673 132.895 17.0266 128.155 15.5923C128.003 15.7215 127.843 15.8507 127.694 15.9849L127.621 16.3724C130.194 18.8684 136.017 16.1968 137.674 14.4315Z" fill-rule="evenodd"  fill="#ADE0EE" >
</path>
<path d="M155.856 15.0547C155.377 15.2087 154.899 15.3656 154.424 15.5197L154.339 15.9798C154.785 16.396 155.761 16.746 156.01 17.3101C156.847 19.222 152.92 25.5297 152.248 27.2184C152.376 27.552 152.388 27.6272 152.782 27.7913C154.751 26.5339 155.032 24.2795 156.493 22.1709C157.466 20.7641 159.17 20.3654 159.542 18.0234C158.494 16.7622 158.199 15.4922 155.856 15.0547Z" fill-rule="evenodd"  fill="#ADE0EE" >
</path>
<path d="M129.118 23.4948C129.091 23.1287 128.898 23.3819 128.903 23.3205C128.657 25.3579 126.185 33.4471 126.144 34.4587C126.107 35.4694 128.135 35.3425 128.135 35.3425C128.135 35.3425 128.842 35.1107 129.171 34.7758C129.163 32.5494 129.026 31.584 129.087 29.9653C129.139 28.6979 129.118 23.5197 129.118 23.4948Z" fill-rule="evenodd"  fill="#ADE0EE" >
</path>
<path d="M85.974 56.0794L85.6982 55.8324C86.5132 54.4746 86.6059 50.2734 83.9791 51.4168L83.8312 51.5847C83.8186 51.6725 83.8063 51.7616 83.7973 51.8517C84.3152 52.2644 84.5158 52.1653 84.9823 52.4097C85.1038 53.5857 84.9572 54.5172 83.7547 55.7872C81.3339 55.9441 78.0465 56.235 75.7758 57.4962C75.7232 57.4811 75.668 57.4698 75.6154 57.4497C75.8285 54.7668 76.0442 52.0787 76.2599 49.3919L79.8895 45.8791C80.6355 45.088 81.3739 44.2967 82.1175 43.4994C83.8225 42.0952 87.3605 38.4768 87.975 36.7193C87.995 36.4985 88.0024 36.5737 87.8997 36.3544C87.0473 36.2027 85.9978 36.1387 85.1829 36.5085C85.1038 36.975 85.6404 37.2646 86.0366 37.6657C85.806 38.3667 84.9859 38.8229 84.4945 39.1691C82.1602 40.8152 80.7194 43.1194 78.3248 45.0767C77.772 45.5304 77.0248 46.0296 76.6835 46.6902C76.6309 46.7116 76.5808 46.7341 76.5307 46.7529C75.7132 45.2734 77.308 41.1724 78.4213 39.4097C78.988 38.5207 79.7001 38.304 80.2693 37.7836C80.2506 37.697 80.2267 37.6082 80.2018 37.5253C78.331 36.9863 76.523 40.0154 75.8711 41.5988C74.9008 43.9595 75.3221 46.6176 74.5523 48.8579L72.777 50.8463C71.0919 52.7332 69.5723 54.3519 68.3162 56.3965C66.1922 59.8582 64.9209 63.2369 63.6997 66.5707C63.454 66.5178 63.4414 66.5078 63.2635 66.2811C63.1104 66.3776 62.9587 66.4703 62.8069 66.5707C62.8208 66.9353 62.792 67.1271 63.0716 67.4971C63.1831 67.6625 63.1918 67.6463 63.3962 67.6902C64.3041 67.7429 65.2267 64.9308 65.559 64.1571C67.3407 60.0125 70.3459 55.6606 73.9792 51.7277C74.5623 52.9602 73.1506 54.8759 73.6018 56.1485C73.8226 56.7827 74.3028 57.2805 74.5873 57.8233C74.1911 58.3199 73.2408 58.6006 72.6114 59.0384C70.821 60.2857 70.2255 62.7028 70.8009 64.1759C72.1551 65.1852 72.3831 63.8975 73.2634 64.0883C73.4816 64.2524 73.7022 64.418 73.9204 64.5772C74.6764 64.3577 75.4323 64.141 76.1898 63.9253C76.7113 63.8575 77.2302 63.7923 77.7519 63.7283C80.5854 62.9033 82.7844 59.8621 85.1428 57.1239C93.0677 58.711 84.9258 65.6392 83.7511 69.5808L84.0834 69.8766C84.7053 69.9169 85.6517 68.4536 86.2372 68.1265C91.6273 65.13 93.0177 58.0516 85.974 56.0794ZM80.4123 59.7504C79.7252 60.228 79.0345 60.7032 78.3461 61.1808C77.0697 61.7362 75.7232 62.0095 74.4846 62.4997C73.6973 62.8107 73.2533 63.2369 72.4823 63.297L72.0309 62.6902C72.8171 58.0917 80.2757 58.1181 82.7756 56.9935L82.8308 57.0461C82.7418 57.5851 81.1495 59.3054 80.4123 59.7504Z" fill-rule="evenodd"  fill="#ADE0EE" >
</path>
<path d="M65.5502 47.3761C65.855 44.9099 67.1299 43.9734 65.7408 41.4897C65.475 41.348 65.2018 41.2063 64.9322 41.0648C64.8118 41.1223 64.6926 41.1837 64.5722 41.2376C63.8602 41.8107 63.7675 45.2234 63.8024 46.1097C63.8327 47.5954 63.8628 49.0797 63.8977 50.5631C63.2909 53.2273 62.2906 58.7801 63.0303 61.2086C63.123 61.3239 63.2183 61.4417 63.311 61.5608C63.4314 61.4995 63.5493 61.4404 63.6697 61.3816C64.176 59.1863 64.0933 57.0862 64.3542 54.9486C64.6639 52.3948 65.2406 49.8986 65.5502 47.3761Z" fill-rule="evenodd"  fill="#ADE0EE" >
</path>
<path d="M82.229 51.8518C82.6439 52.5276 79.482 55.0164 79.0684 54.8569C78.6519 54.7055 78.1843 53.928 78.1843 53.6661C78.1843 53.409 79.793 52.1653 82.229 51.8518Z" fill-rule="evenodd"  fill="#ADE0EE" >
</path>
</g>
<defs>
<clipPath id="clip-path-h-cRy3VGT8ZXvXRT8lK97">
<path d="M0 317L317 317L317 0L0 0L0 317Z" fill="white"/>
</clipPath>
</defs>
</svg>
