<svg width="583" height="582" viewBox="0 0 583 582" fill="none" xmlns="http://www.w3.org/2000/svg">
<path d="M331.059 357.762H253.11V355.533H331.059V357.762ZM260.143 350.903H324.059V353.132H260.143V350.903ZM298.98 321H303.886V337.495H298.98V321ZM289.752 321H294.657V337.495H289.752V321ZM280.522 321H285.394V337.495H280.522V321ZM316.82 348.16H267.382V345.965H316.82V348.16ZM265.702 278.958H318.364V337.255H314.213V282.627V282.284H305.602V310.061L309.959 314.759V337.324H307.454V315.445H276.577V337.255H274.072V314.691L278.739 310.061V282.284H270.127V282.627V337.495H265.702V279.198V278.958ZM265.702 260.234H279.424V264.692H265.702V260.234ZM285.223 260.234H298.946V264.692H285.223V260.234ZM304.779 260.234H318.502V264.692H304.779V260.234ZM337.062 273.162L342.414 268.91V265.927H330.2V262.806L338.675 256.153L341.488 249.981L336.513 251.695H330.475L295.652 236.058V234.618V232.114L299.083 226.868V220.318L294.554 218.912V208.83H289.957V218.912L285.6 220.318V226.868L289.03 232.114V234.618V236.058L253.727 251.764H247.86L242.886 250.049L245.699 256.222L254.173 262.875V265.995H241.754V268.91L247.243 273.06V355.876L233.52 361.877V365.306H240.999L251.909 361.088H332.19L343.1 365.306H350.786V361.877L337.062 355.876V273.162ZM290.746 282.627H281.963V312.462H290.746V282.627ZM302.239 282.627H293.422V312.462H302.239V282.627ZM368.454 316.302H378.472V303.717H368.454V316.199V316.302ZM368.454 332.831H378.472V320.349H368.454V332.797V332.831ZM382.006 332.831H391.956V320.349H382.006V332.797V332.831ZM382.006 316.302H391.956V303.717H382.006V316.199V316.302ZM391.956 287.188H382.006V299.773H391.956V287.188ZM378.232 287.188H368.214V299.773H378.232V287.188ZM351.163 303.717H341.35V316.199H351.403V303.717H351.163ZM341.11 332.728H351.163V320.349H341.35V332.797L341.11 332.728ZM485.204 348.606V277.826L493.199 272.339V269.665H485.033L457.587 256.153L452.681 250.804H445.819L437.379 259.274H338.812L337.543 260.268V263.389H349.927V266.373L344.439 270.522V283.622H476.868V288.045H465.443V350.08H459.646V336.741H344.439V353.167L350.27 355.739H495.566V348.606H485.204ZM354.834 332.728H364.852V320.349H354.903V332.797L354.834 332.728ZM364.852 287.188H354.903V299.773H364.92V287.188H364.852ZM354.834 316.199H364.852V303.717H354.903V316.199H354.834ZM351.403 287.188H341.35V299.773H351.403V287.188ZM436.179 332.728H446.231V320.349H436.179V332.797V332.728ZM446.231 287.188H436.179V299.773H446.231V287.188ZM436.179 316.199H446.231V303.717H436.179V316.199ZM449.902 332.728H459.954V320.349H449.902V332.797V332.728ZM449.902 316.199H459.954V303.717H449.902V316.199ZM422.799 332.728H432.85V320.349H422.799V332.797V332.728ZM459.954 287.188H449.902V299.773H459.954V287.188ZM432.85 287.188H422.799V299.773H432.85V287.188ZM395.386 332.728H405.679V320.349H395.386V332.797V332.728ZM409.109 316.199H419.127V303.717H409.109V316.199ZM405.679 287.188H395.386V299.773H405.679V287.188ZM395.386 316.199H405.679V303.717H395.386V316.199ZM422.49 316.199H432.542V303.717H422.49V316.199ZM409.109 332.728H419.127V320.349H409.109V332.797V332.728ZM419.127 287.188H409.109V299.773H419.127V287.188ZM218.082 332.728H228.099V320.349H218.082V332.797V332.728ZM200.927 287.188H190.978V299.773H200.996V287.188H200.927ZM190.978 332.728H200.996V320.349H190.978V332.797V332.728ZM214.548 287.188H204.529V299.773H214.548V287.188ZM200.996 303.717H190.978V316.199H200.996V303.717ZM173.926 287.188H163.875V299.773H173.926V287.188ZM173.926 303.717H163.875V316.199H173.926V303.717ZM187.479 287.188H177.426V299.773H187.479V287.188ZM187.479 303.717H177.426V316.199H187.479V303.717ZM163.875 332.728H173.892V320.349H163.875V332.797V332.728ZM241.651 303.717H231.633V316.199H241.651V303.717ZM238.563 336.741H123.356V349.943H117.489V287.908H106.133V283.484H238.563V270.385L233.074 266.235V263.252H245.493V260.131L244.224 259.137H145.348L136.873 250.667H130.183L125.278 256.016L97.8311 269.527H89.803V272.339L97.6938 277.963V348.743H87.4014V355.876H232.731L238.563 353.304V336.741ZM231.702 332.728H241.72V320.349H231.633V332.797L231.702 332.728ZM228.27 287.188H218.082V299.773H228.099V287.188H228.27ZM214.719 303.717H204.529V316.199H214.548V303.717H214.719ZM204.702 332.728H214.719V320.349H204.529V332.797L204.702 332.728ZM241.651 287.188H231.633V299.773H241.651V287.188ZM227.928 303.717H218.082V316.199H228.099V303.717H227.928ZM177.426 332.728H187.479V320.349H177.426V332.797V332.728ZM133.272 303.717H123.253V316.199H133.272V303.717ZM123.253 332.728H133.272V320.349H123.253V332.797V332.728ZM133.272 287.188H123.253V299.773H133.272V287.188ZM160.375 303.717H150.323V316.199H160.375V303.717ZM146.652 287.188H136.805V299.773H146.823V287.188H146.652ZM146.652 303.717H136.805V316.199H146.823V303.717H146.652ZM160.375 287.188H150.323V299.773H160.375V287.188ZM150.323 332.728H160.375V320.349H150.323V332.797V332.728ZM136.805 332.728H146.823V320.349H136.805V332.797V332.728Z" fill="#A40000"/>
<path d="M91.6899 91.7556C-18.6816 202.055 -18.6988 380.902 91.6515 491.225C202.001 601.543 380.932 601.56 491.305 491.262C601.674 380.964 601.692 202.115 491.342 91.794C438.343 38.8105 366.458 9.04336 291.5 9.04226C216.541 8.94656 144.633 38.7134 91.6899 91.7556ZM0.841797 291.475C0.841797 131.022 130.975 0.949219 291.5 0.949219C452.029 0.949219 582.16 131.022 582.16 291.475C582.16 451.929 452.029 582 291.5 582C130.982 581.979 0.86074 451.919 0.841797 291.475Z" fill="#A40000"/>
<path d="M140.545 140.622C57.2118 223.951 57.2399 359.027 140.607 442.32C223.974 525.616 359.112 525.589 442.443 442.258C525.778 358.928 525.75 223.854 442.382 140.56C402.361 100.572 348.088 78.1087 291.5 78.107C234.862 78.0261 180.53 100.526 140.545 140.622ZM69.9727 291.509C69.9727 169.199 169.169 70.0483 291.535 70.0483C413.903 70.0483 513.097 169.199 513.097 291.509C513.097 413.82 413.903 512.969 291.535 512.969C291.523 512.969 291.512 512.969 291.5 512.969C169.154 512.969 69.9727 413.833 69.9727 291.543C69.9727 291.52 69.9727 291.498 69.9727 291.475V291.509Z" fill="#A40000"/>
<path d="M429.008 463.623L423.04 468.389C421.759 477.209 416.665 485.021 409.11 489.753C398.44 494.211 366.671 500.418 366.671 500.418H360.736L327.766 509.334C301.623 516.776 294.796 534.848 294.796 534.848H288.277C288.277 534.848 281.414 516.776 255.306 509.334L222.336 500.418H216.367C216.367 500.418 184.597 494.211 173.927 489.753C166.358 485.028 161.251 477.216 159.964 468.389L154.029 463.623C154.029 463.623 154.337 479.671 104.453 486.187C117.834 506.183 139.316 519.307 163.223 522.091H176.946C176.946 522.091 253.866 506.968 286.527 548.222H296.613C329.275 507.071 406.194 522.091 406.194 522.091H419.917C443.837 519.317 465.334 506.193 478.721 486.187C428.837 479.671 429.146 463.623 429.146 463.623H429.008Z" fill="#A40000"/>
<path d="M360.255 527.749C319.086 530.424 308.278 539.923 300.559 555.183H282.444C274.724 540.06 264.054 530.561 222.782 527.749C196.931 526.35 171.047 529.769 146.446 537.831C155.641 549.697 194.856 560.087 194.856 560.087C209.402 539.923 247.999 541.089 262.854 544.656C277.71 548.222 277.092 567.803 277.092 567.803H305.911C305.911 567.803 305.293 548.222 320.149 544.656C335.004 541.089 373.601 539.923 388.147 560.087C388.147 560.087 427.361 549.799 436.557 537.831C411.967 529.773 386.092 526.354 360.255 527.749Z" fill="#A40000"/>
<path d="M60.813 409.509C56.9704 411.934 56.3299 415.706 58.8917 420.826C61.5677 425.421 64.6897 426.724 68.1891 424.769C70.2864 423.754 71.163 421.23 70.1468 419.135C70.1035 419.046 70.0569 418.957 70.0075 418.871L67.16 408.892C65.4154 404.393 67.4344 399.311 71.7915 397.232C74.4387 395.487 77.8223 395.302 80.6431 396.752C83.5387 398.697 85.8984 401.337 87.5047 404.434C89.7523 407.592 90.6645 411.512 90.0435 415.339C89.4753 418.727 87.209 421.587 84.0395 422.917L81.7752 418.837C86.4868 416.049 87.3444 411.865 84.3484 406.286C81.3522 400.706 78.0586 398.902 74.4675 400.867C73.0565 401.522 72.0211 402.784 71.6543 404.297C71.4653 406.526 71.7939 408.765 72.615 410.847L74.845 418.082C76.0458 423.192 74.845 426.758 71.0368 428.816C68.1229 430.52 64.559 430.685 61.4991 429.262C58.8673 427.993 56.7484 425.863 55.4951 423.226C51.1493 415.407 52.2016 409.554 58.6515 405.668L60.813 409.578V409.509Z" fill="#A40000"/>
<path d="M36.8318 379.435L35.082 374.908L68.2924 362.151L70.0421 366.712L54.6034 372.61L61.2936 390.031L76.7323 384.098L78.482 388.659L45.2373 401.382L43.5219 396.855L57.1423 391.643L50.4521 374.222L36.8318 379.435Z" fill="#A40000"/>
<path d="M60.7097 330.602L66.6107 356.15L31.9593 364.175L26.127 338.97L30.1067 338.078L34.8413 358.516L45.614 356.013L41.2569 337.083L45.4082 336.123L49.7996 355.053L61.3615 352.378L56.524 331.562L60.7097 330.602Z" fill="#A40000"/>
<path d="M22.4215 305.637L22.0098 300.974L57.4158 297.819L57.9305 303.237L30.8613 323.778L30.8957 323.984L59.5429 321.446L59.9546 326.076L24.5143 329.231L23.9997 323.435L51.0688 303.065L22.4215 305.637Z" fill="#A40000"/>
<path d="M58.2049 276.832L57.9648 281.667L43.5897 280.947L21.7354 293.223L22.0098 287.6L39.6442 278.409L23.0734 267.23L23.3821 261.606L43.8298 276.077L58.2049 276.832Z" fill="#A40000"/>
<path d="M48.4615 240.276L32.0279 242.539L46.4373 251.01L48.4958 240.105L48.4615 240.276ZM50.3142 253.479L59.7832 259.034L58.8569 263.801L26.4014 244.048L27.3962 238.699L64.7236 232.663L63.7629 237.841L52.9902 239.35L50.3142 253.479Z" fill="#A40000"/>
<path d="M39.4044 196.347L40.9139 191.924L74.6045 203.343L72.8548 208.487L39.816 216.374L39.7474 216.58L66.9881 225.805L65.5129 230.228L31.8223 218.809L33.6749 213.288L66.6794 205.572L39.4044 196.347Z" fill="#A40000"/>
<path d="M67.0567 175.292L74.2271 161.575L91.141 170.319L89.7001 172.891L85.2057 171.863C86.8174 176.013 86.4905 180.666 84.3137 184.551C82.7008 188.255 79.6934 191.174 75.9424 192.678C70.6298 194.435 64.8108 193.744 60.0577 190.792C49.9941 184.596 47.1236 176.766 51.4464 167.302C56.0207 159.734 61.7961 157.037 68.772 159.209L66.645 163.358C61.7732 162.162 56.7727 164.779 54.9801 169.462C52.0296 176.321 54.5684 182.036 62.5966 186.608C71.3451 191.135 77.5207 190.038 81.1916 182.87C82.4634 180.549 82.9224 177.87 82.4953 175.258C81.6332 171.721 79.0577 168.85 75.6337 167.61L70.6247 177.247L67.0567 175.292Z" fill="#A40000"/>
<path d="M89.4253 139.251L95.3606 131.74C98.4485 127.865 98.3112 124.608 94.9833 121.967C91.6553 119.327 88.8765 120.15 85.7887 123.819L79.7505 131.5L89.4596 139.251H89.4253ZM104.452 151.287L101.399 155.059L73.6436 132.872L83.6959 120.287C85.2326 118.168 87.489 116.68 90.0429 116.103C92.8884 115.532 95.8366 116.333 98.0023 118.264C100.113 119.933 101.6 122.264 102.222 124.882C102.624 127.863 101.753 130.875 99.8207 133.181L92.7532 142.028L104.452 151.287Z" fill="#A40000"/>
<path d="M113.545 89.2522L117.079 85.9258L141.506 111.748L137.972 115.109L126.616 103.106L113.065 115.897L124.42 127.9L120.852 131.226L96.4248 105.404L99.9585 102.043L109.976 112.64L123.563 99.849L113.545 89.2522Z" fill="#A40000"/>
<path d="M152.381 85.7887L139.001 75.9811H138.829L143.358 92.0985L152.381 85.6858V85.7887ZM144.559 96.5908L147.509 107.118L143.563 109.93L133.923 73.1691L138.349 70.0142L169.398 91.6184L165.109 94.6362L156.292 88.2578L144.559 96.5908Z" fill="#A40000"/>
<path d="M167.682 70.5971L177.7 65.4189C181.955 63.2242 183.121 60.275 181.131 56.6058C180.037 53.7591 176.842 52.3381 173.994 53.4313C173.517 53.6148 173.067 53.8637 172.657 54.171L162.09 59.7264L167.716 70.6314L167.682 70.5971ZM176.568 87.7433L172.382 90.0752L156.086 58.4575L170.77 50.9132C173.221 49.4201 176.071 48.7137 178.935 48.89C182.017 49.0697 184.705 51.0446 185.797 53.9309C187.593 57.056 187.364 60.9485 185.214 63.8415C188.096 63.2242 190.383 64.5959 192.075 67.9566L195.506 73.4776C196.226 75.1237 197.29 75.9124 198.663 75.7752L199.04 76.4611L193.688 79.2045C191.859 76.8294 190.252 74.2928 188.885 71.6258C187.921 68.6931 184.76 67.0968 181.826 68.0605C181.257 68.2477 180.721 68.5251 180.239 68.8824L169.946 74.1978L176.808 87.9147L176.568 87.7433Z" fill="#A40000"/>
<path d="M230.193 65.7275L223.64 45.8036C223.022 43.9519 222.096 41.1056 220.86 37.2991L220.586 68.8824L215.989 70.3913L197.188 45.0835C197.634 46.4552 198.354 48.5127 199.383 51.119C199.83 52.4907 200.07 53.2794 200.173 53.5194L206.692 73.4433L202.094 74.9522L190.979 41.1742L197.463 39.1509L216.675 64.5273L216.983 32.6696L223.606 30.4749L234.721 64.253L230.296 65.7275H230.193Z" fill="#A40000"/>
<path d="M255.409 46.0093L247.586 31.2636L244.43 47.7582L255.409 46.0093ZM243.675 52.3534L241.754 63.1555L236.985 63.9442L244.224 26.4969L249.61 25.6053L268.206 58.526L263.025 59.3833L257.879 49.8158L243.675 52.2505V52.3534Z" fill="#A40000"/>
<path d="M295.104 32.5668C294.014 27.9076 289.553 24.8453 284.811 25.5025C277.297 26.0855 273.558 31.0236 273.558 40.214C273.856 50.0446 277.95 54.8455 285.84 54.6168C291.296 54.3425 294.554 50.9475 295.653 44.3291H300.319C300.021 52.4865 293.165 58.8584 285.003 58.5611C284.997 58.5608 284.99 58.5608 284.983 58.5604C280.441 58.7892 276.015 57.0817 272.803 53.8624C269.962 50.0257 268.455 45.3644 268.514 40.5912C268.1 35.4806 269.701 30.4101 272.975 26.4627C275.989 23.2122 280.241 21.3925 284.674 21.456C293.114 21.456 298.089 25.1367 299.598 32.4982H294.933L295.104 32.5668Z" fill="#A40000"/>
<path d="M331.539 60.8579L305.464 57.9431L309.41 22.5876L335.106 25.4681L334.66 29.5489L313.802 27.217L312.566 38.1906L331.882 40.3853L331.402 44.6376L312.086 42.4429L310.747 54.2395L332.019 56.6057L331.539 60.8579Z" fill="#A40000"/>
<path d="M372.263 34.3157L366.533 56.5029C365.638 60.1698 363.315 63.3288 360.083 65.2817C353.208 67.6836 345.564 65.8771 340.493 60.6523C338.456 57.6301 337.889 53.8514 338.95 50.3645L344.885 27.4229L349.586 28.6231L343.993 50.2617C342.529 56.5715 344.586 60.5151 350.168 62.0925C356.378 63.5328 360.255 61.1324 361.901 54.8568L367.46 33.2183L372.16 34.4529L372.263 34.3157Z" fill="#A40000"/>
<path d="M379.433 36.6476L406.09 47.484L404.547 51.2561L393.397 46.7295L381.526 75.9124L377.203 74.1292L389.074 44.9806L377.889 40.454L379.433 36.6476Z" fill="#A40000"/>
<path d="M399.881 84.5198L395.558 82.3251L411.751 50.6389L416.074 52.8679L399.881 84.5198Z" fill="#A40000"/>
<path d="M440.399 79.6503C442.104 75.2512 440.227 70.2737 436.041 68.0937C429.489 64.3558 423.622 66.3105 418.441 73.8891C413.133 82.1879 413.81 88.4747 420.466 92.75C425.039 95.562 429.615 94.5904 434.189 89.8351L438.1 92.3728C433.249 98.866 424.074 100.257 417.515 95.4934C413.662 93.0884 410.989 89.1856 410.139 84.7255C409.957 79.9565 411.342 75.2591 414.084 71.3515C416.64 66.9062 420.822 63.6244 425.749 62.1954C430.072 61.1893 434.621 62.0888 438.237 64.6645C445.099 69.4198 447.133 75.2608 444.344 82.1879L440.399 79.6503Z" fill="#A40000"/>
<path d="M457.45 106.81L463.728 91.4469L449.181 99.711L457.587 106.913L457.45 106.81ZM445.065 101.837L435.561 107.256L431.856 104.066L465.238 85.8229L469.355 89.2522L455.941 124.882L451.927 121.453L456.01 111.165L445.065 101.803V101.837Z" fill="#A40000"/>
<path d="M464.003 127.522L476.182 140.862L473.026 143.743L457.587 126.802L483.867 102.832L487.126 106.433L464.003 127.522Z" fill="#A40000"/>
<path d="M527.439 160.889L507.987 172.891C504.795 174.909 500.936 175.586 497.248 174.777C493.714 173.463 490.791 170.885 489.048 167.542C487.123 164.745 486.163 161.399 486.304 158.008C486.921 154.369 489.154 151.205 492.376 149.401L512.515 136.85L515.088 140.965L496.115 152.796C490.695 156.362 489.47 160.649 492.444 165.656C495.92 170.96 500.404 171.897 505.894 168.468L524.866 156.637L527.439 160.752V160.889Z" fill="#A40000"/>
<path d="M541.985 192.164L543.838 196.45L511.245 210.682L509.084 205.709L528.194 177.624L528.125 177.452L501.742 188.975L499.89 184.688L532.482 170.422L534.815 175.772L515.637 203.686L541.985 192.164Z" fill="#A40000"/>
<path d="M514.504 221.552L513.029 216.957L546.857 205.984L548.367 210.613L514.504 221.552Z" fill="#A40000"/>
<path d="M556.429 242.334L557.629 247.649L520.062 242.779L518.93 237.67L550.733 217.129L551.934 222.41L524.59 238.973L556.429 242.334Z" fill="#A40000"/>
<path d="M525.551 284.959L523.218 258.828L558.659 255.673L560.957 281.393L556.874 281.77L555.022 260.851L543.974 261.846L545.724 281.187L541.47 281.598L539.72 262.223L527.919 263.286L529.806 284.582L525.551 284.959Z" fill="#A40000"/>
<path d="M544.799 295.898L544.215 307.146C543.975 311.913 545.931 314.416 550.048 314.622C554.165 314.828 556.189 312.804 556.395 308.552L557.013 296.516L544.799 295.898ZM525.381 294.904L525.621 290.034L561.164 291.852L560.307 308.346C560.379 311.214 559.551 314.032 557.939 316.405C556.272 318.992 553.222 320.34 550.185 319.834C546.579 319.821 543.331 317.663 541.917 314.348C540.991 317.16 538.487 318.463 534.884 318.291H528.468C527.106 317.957 525.69 318.593 525.038 319.834H524.283L524.591 313.833C527.559 313.452 530.558 313.338 533.545 313.49C536.548 314.211 539.567 312.362 540.291 309.36C540.442 308.725 540.483 308.069 540.408 307.421L540.991 295.761L525.655 295.007L525.381 294.904Z" fill="#A40000"/>
<path d="M544.113 349.429C548.686 350.046 551.603 347.577 552.861 342.022C553.754 336.809 552.21 333.791 548.264 333.037C546.024 332.462 543.742 333.81 543.17 336.048C543.132 336.186 543.104 336.325 543.084 336.466L538.864 345.931C537.296 350.509 532.469 353.108 527.782 351.898C524.646 351.514 521.953 349.487 520.714 346.583C519.73 343.239 519.613 339.698 520.371 336.295C520.718 332.469 522.539 328.928 525.449 326.419C528.064 324.187 531.642 323.461 534.918 324.498L534.027 329.059C528.674 328.167 525.323 330.819 523.974 337.015C522.91 343.153 524.283 346.651 528.057 347.508C529.539 347.92 531.123 347.642 532.38 346.754C533.951 345.163 535.124 343.225 535.81 341.096L538.761 334.237C541.128 329.539 544.421 327.619 548.607 328.408C551.918 328.941 554.758 331.052 556.224 334.066C557.403 336.717 557.657 339.689 556.944 342.502C555.228 351.281 550.655 355.077 543.221 353.887L544.078 349.497L544.113 349.429Z" fill="#A40000"/>
<path d="M515.121 359.442L516.494 354.778L550.63 364.792L549.258 369.456L515.121 359.442Z" fill="#A40000"/>
<path d="M547.647 375.8L537.183 402.616L533.374 401.107L537.765 389.894L508.432 378.44L510.113 374.119L539.481 385.539L543.838 374.325L547.647 375.8Z" fill="#A40000"/>
<path d="M495.497 405.428L497.83 401.176L510.456 408.069L535.5 406.423L532.79 411.395L512.926 412.081L523.013 429.296L520.302 434.234L508.157 412.321L495.497 405.428Z" fill="#A40000"/>
<path d="M240.347 154.339L230.879 162.604V155.677L240.107 148.098H246.043V187.157H240.347V154.339Z" fill="#A40000"/>
<path d="M276.13 152.076C274.069 151.957 272.056 152.731 270.607 154.202C269.191 155.883 268.479 158.045 268.617 160.237C268.465 162.365 269.197 164.462 270.642 166.033C272.093 167.474 274.087 168.234 276.13 168.125C278.194 168.213 280.199 167.429 281.655 165.964C283.045 164.362 283.77 162.288 283.679 160.169C283.777 158.053 283.036 155.983 281.62 154.408C280.178 152.945 278.183 152.16 276.13 152.247V152.076ZM273.969 187.157H266.525C269.475 184.242 272.048 181.533 274.278 178.995C276.297 176.69 278.187 174.274 279.939 171.76C279.203 172.104 278.432 172.368 277.64 172.548C276.874 172.725 276.093 172.84 275.307 172.891C272.041 173.012 268.872 171.77 266.559 169.462C264.237 167.06 262.997 163.815 263.128 160.478C262.939 157.029 264.18 153.655 266.559 151.15C272.101 146.42 280.263 146.42 285.806 151.15C288.23 153.834 289.467 157.383 289.236 160.992C289.068 165.119 287.814 169.129 285.6 172.617C282.293 177.912 278.365 182.793 273.9 187.157H273.969Z" fill="#A40000"/>
<path d="M298.74 180.127C300.344 181.024 302.049 181.726 303.818 182.219C305.451 182.657 307.136 182.876 308.827 182.87C311.215 182.981 313.555 182.184 315.38 180.641C317.053 179.12 317.958 176.932 317.85 174.675C318.014 172.486 317.01 170.374 315.208 169.119C312.665 167.754 309.786 167.135 306.906 167.336H306.151H304.916V163.564L315.414 152.83H298.74V148.098H322.173V153.448L312.154 163.495C315.299 163.487 318.319 164.72 320.56 166.924C322.665 169.133 323.769 172.109 323.614 175.155C323.779 178.712 322.283 182.145 319.566 184.448C316.386 186.877 312.446 188.093 308.45 187.877C306.893 187.877 305.341 187.716 303.818 187.397C302.089 187.042 300.391 186.549 298.74 185.922V180.127Z" fill="#A40000"/>
<path d="M346.429 154.339L336.993 162.604V155.677L346.222 148.098H352.123V187.157H346.429V154.339Z" fill="#A40000"/>
<path fill-rule="evenodd" clip-rule="evenodd" d="M149.259 398.776C148.505 398.501 147.818 398.33 147.818 397.781C147.818 397.232 148.607 396.101 150.735 395.998C152.862 395.895 155.332 396.307 155.469 398.433C155.606 400.559 152.827 401.862 152.827 401.862L152.622 401.039L152.106 399.976L151.352 399.427C150.721 399.036 150 398.813 149.259 398.776Z" fill="#A40000"/>
<path fill-rule="evenodd" clip-rule="evenodd" d="M149.945 406.526C149.465 405.943 149.568 405.085 151.866 404.64C154.165 404.194 156.121 404.983 156.121 407.212C156.121 409.441 153.479 409.063 151.626 410.641C151.626 407.212 151.626 408.549 149.945 406.457V406.526Z" fill="#A40000"/>
<path fill-rule="evenodd" clip-rule="evenodd" d="M145.759 423.672C145.382 422.986 145.553 422.403 145.176 421.923C144.799 421.443 145.485 420.243 145.862 420.723C146.24 421.203 146.583 421.786 146.789 422.06C146.995 422.334 147.406 422.266 148.367 421.066C149.328 419.865 156.395 412.355 156.395 412.355C156.395 412.355 152.965 418.117 152.415 419.557C151.866 420.997 152.106 421.683 151.523 422.472C150.94 423.26 150.426 423.466 150.185 424.426C149.945 425.387 147.818 426.312 147.338 425.592C146.848 424.924 146.321 424.282 145.759 423.672Z" fill="#A40000"/>
<path fill-rule="evenodd" clip-rule="evenodd" d="M159.62 404.365C159.62 403.988 159.62 403.268 160.341 403.885C161.062 404.502 162.022 404.742 162.09 405.565C162.16 406.388 163.395 406.251 163.703 406.08C164.906 405.483 166.053 404.784 167.134 403.988C167.374 403.645 167.409 400.353 167.752 399.599C168.063 398.985 168.182 398.292 168.095 397.61C168.095 397.232 167.272 397.061 167.272 396.581C167.272 396.101 168.197 395.312 168.85 395.346C169.502 395.381 170.702 395.106 170.943 395.929C171.161 396.687 171.075 397.5 170.702 398.193C170.447 399.187 170.366 400.223 170.462 401.245C170.999 401.173 171.514 400.984 171.972 400.696C173.036 400.182 174.442 399.359 175.403 398.913C176.363 398.467 180.823 397.541 179.45 400.662C178.358 403.11 176.963 405.415 175.3 407.52C174.442 408.549 173.379 409.646 172.898 410.126C172.417 410.606 173.276 411.464 173.996 412.15C175.178 413.004 175.446 414.653 174.591 415.836C174.587 415.843 174.583 415.846 174.579 415.853C173.76 416.875 173.133 418.038 172.726 419.282C172.235 420.136 172.529 421.227 173.384 421.717C173.427 421.741 173.471 421.765 173.516 421.786C174.51 422.506 178.319 422.78 178.73 421.546C179.172 420.328 179.516 419.08 179.76 417.808C179.76 417.019 181.646 420.243 182.573 420.928C183.499 421.614 184.974 421.203 184.974 422.78C184.974 424.358 182.23 423.466 181.132 424.392C179.176 426.004 178.044 425.215 176.603 426.244C174.739 426.789 172.733 426.552 171.046 425.592C168.614 422.945 167.981 419.108 169.433 415.819C171.114 412.081 171.251 411.498 171.251 411.018C171.251 410.538 169.467 409.509 169.262 411.018C169.056 412.527 167.683 420.723 164.699 423.569C161.713 426.415 160.753 426.347 160.753 426.347C160.742 425.483 160.834 424.618 161.027 423.775C161.795 422.225 162.716 420.754 163.772 419.385C165.773 415.431 166.819 411.063 166.826 406.629C166.826 406.629 164.596 407.417 164.561 408.377C164.276 409.777 163.766 411.121 163.052 412.355C162.635 413.449 162.46 414.619 162.537 415.785C162.537 416.265 163.84 416.402 163.36 417.225C162.88 418.048 162.914 418.357 162.503 418.494C162.09 418.631 160.787 418.494 159.758 416.711C159.127 415.843 158.726 414.828 158.592 413.761C158.592 413.007 158.146 412.664 158.592 412.15C159.037 411.635 159.415 411.327 159.415 410.504C158.815 408.453 158.949 406.258 159.792 404.297L159.62 404.365ZM170.119 406.046C170.119 405.325 170.119 404.983 171.046 404.331C171.972 403.679 174.202 402.068 174.682 401.656C175.162 401.245 175.128 402.685 174.922 403.165C174.182 404.962 173.177 406.639 171.937 408.137C171.286 408.309 169.913 408.137 170.016 407.52C170.119 406.903 170.016 406.046 170.016 406.046H170.119Z" fill="#A40000"/>
<path fill-rule="evenodd" clip-rule="evenodd" d="M204.152 409.509C204.031 408.371 204.031 407.218 204.152 406.08C204.254 404.52 204.87 403.038 205.902 401.862C206.966 400.833 209.333 397.918 209.985 397.472C211.224 396.859 212.726 397.363 213.341 398.604C213.439 398.8 213.51 399.005 213.553 399.221C213.965 401.862 213.553 401.348 215.92 403.371C217.708 404.897 218.746 407.126 218.767 409.475C218.767 410.984 213.93 413.864 213.587 414.276C213.244 414.687 213.587 416.608 213.587 416.985C213.587 417.362 214.41 416.985 215.44 415.236C216.469 413.487 217.326 411.807 216.915 414.276C216.637 416.515 216.095 418.713 215.302 420.826C214.827 421.731 214.535 422.722 214.445 423.74C214.445 424.495 210.499 425.969 209.333 424.838C208.166 423.706 208.406 422.609 208.406 421.409C208.406 420.208 208.715 408.892 208.715 408.892C208.715 408.892 210.225 408.377 210.602 410.332C210.979 412.287 213.038 413.281 213.45 413.007C213.862 412.733 216.332 410.332 216.503 409.063C216.735 407.808 216.323 406.522 215.405 405.634C214.205 404.022 213.244 404.194 213.244 402.925C213.244 401.656 213.416 400.147 212.969 399.976C212.523 399.804 212.42 399.393 210.67 401.245C208.922 403.096 206.279 405.325 206.313 407.726C206.463 408.662 205.826 409.54 204.891 409.691C204.645 409.729 204.392 409.715 204.152 409.646V409.509Z" fill="#A40000"/>
<path fill-rule="evenodd" clip-rule="evenodd" d="M223.056 406.08C223.582 404.883 224.041 403.659 224.429 402.411C224.429 401.485 225.183 400.73 225.286 401.485C225.389 402.239 226.83 400.936 227.139 400.662C227.447 400.387 231.77 398.364 232.319 397.918C232.869 397.472 238.563 395.106 238.22 399.942C237.877 404.777 237.706 409.063 237.569 414.001C237.432 418.94 234.446 421.82 233.177 420.071C231.907 418.322 228.992 418.151 228.923 419.42C228.854 420.688 228.237 422.094 226.899 421.066C224.934 419.389 223.482 417.187 222.713 414.722C221.986 411.868 222.105 408.864 223.056 406.08ZM234.275 407.794C234.275 407.486 234.275 401.896 234.275 401.69C234.275 401.485 233.52 401.313 232.389 402.479C231.256 403.645 228.374 404.845 228.477 405.565C228.58 406.286 230.158 406.8 230.982 406.8C232.197 406.79 233.391 407.133 234.412 407.794H234.275ZM229.095 414.31C229.095 413.487 228.786 413.041 228.786 411.944C228.786 410.847 228.786 409.989 228.786 409.612C228.786 409.235 230.296 408.686 231.599 409.612C232.903 410.538 233.349 409.612 233.589 409.612C233.829 409.612 234.309 408.892 234.48 409.612C234.516 411.073 234.402 412.53 234.137 413.967C234.137 414.687 230.947 414.893 229.197 414.173L229.095 414.31Z" fill="#A40000"/>
<path fill-rule="evenodd" clip-rule="evenodd" d="M257.879 408.275C257.57 407.623 257.364 407.829 257.33 407.314C257.296 406.8 257.33 406.526 257.639 406.457C257.947 406.388 258.188 406.457 258.496 406.251C258.806 406.046 259.526 406.011 259.629 406.629C259.732 407.246 260.383 407.349 260.83 407.349C262.289 407.177 263.707 406.749 265.015 406.08C265.312 405.463 265.312 404.742 265.015 404.125C264.728 403.213 264.361 402.332 263.917 401.485C263.526 400.771 262.959 400.171 262.27 399.736C261.653 399.427 263.472 397.027 264.157 397.335C264.843 397.644 264.157 398.261 264.535 399.873C265.007 401.622 265.616 403.33 266.353 404.983C268.773 404.523 270.99 403.326 272.7 401.553C273.317 400.113 274.964 392.877 275.205 391.711C275.445 390.545 278.052 392.672 278.636 394.146C279.219 395.621 279.253 395.586 278.636 395.861C276.555 396.742 275.041 398.587 274.587 400.799C274.587 401.107 275.067 400.799 276.166 400.147C277.383 399.485 278.533 398.704 279.596 397.815C280.523 396.958 283.85 397.541 283.953 398.296C284.056 399.05 283.953 399.221 283.61 399.564C282.072 400.147 280.473 400.552 278.842 400.765C276.852 401.142 272.357 402.308 271.396 404.914C271.018 406.543 270.442 408.12 269.681 409.612C268.72 411.121 264.295 416.951 263.814 417.739C263.483 418.357 262.788 418.689 262.099 418.562C261.379 418.562 260.418 418.562 260.246 419.042C260.075 419.522 260.04 419.694 260.555 419.968C261.506 420.256 262.52 420.256 263.472 419.968C265.889 417.993 268.015 415.682 269.784 413.11C270.162 411.772 270.436 410.915 271.087 411.429C271.74 411.944 273.215 412.561 273.249 413.35C273.283 414.139 273.489 414.344 272.597 414.413C271.706 414.482 271.122 414.207 270.916 414.619C270.71 415.03 269.269 416.23 269.097 417.088C268.926 417.945 269.476 418.048 269.922 418.048C270.367 418.048 272.94 418.048 272.975 418.837C273.009 419.625 271.843 420.037 271.19 420.517C270.274 421.031 269.392 421.604 268.549 422.232C267.863 422.952 266.936 423.226 266.696 423.603C266.456 423.981 266.525 424.666 267.383 424.735C268.272 424.869 269.059 425.383 269.544 426.141C269.99 426.861 268.377 428.37 267.52 427.273C266.662 426.175 267.073 426.793 265.736 425.558C264.397 424.323 264.397 424.495 263.677 424.255C262.957 424.015 262.716 423.809 262.51 423.089C262.305 422.369 261.379 421.649 260.761 422.129C260.143 422.609 260.075 423.089 259.492 422.952C258.909 422.815 258.05 422.952 258.05 421.443C258.05 419.934 257.707 419.042 258.222 418.562C258.737 418.082 266.833 411.944 266.49 410.847C266.147 409.749 265.564 409.955 265.564 408.995C265.564 408.035 265.839 407.692 265.29 407.726C264.74 407.76 260.109 409.029 259.972 409.646C259.835 410.264 257.879 410.366 257.81 408.549L257.879 408.275ZM266.867 407.966C266.919 407.297 267.242 406.677 267.76 406.251C268.274 405.943 269.441 404.983 269.681 404.845C269.922 404.708 270.985 404.845 270.333 405.565C269.681 406.286 267.897 408.652 267.691 408.995C267.486 409.338 266.73 409.338 266.867 408.035V407.966ZM264.809 421.957C265.24 421.175 265.81 420.479 266.49 419.9C267.76 418.837 267.897 418.459 268.24 418.288C268.583 418.117 269.887 417.876 269.132 418.974C268.295 420.267 267.266 421.422 266.079 422.403C265.324 422.712 264.603 422.746 264.809 421.82V421.957Z" fill="#A40000"/>
<path fill-rule="evenodd" clip-rule="evenodd" d="M270.607 421.82C271.191 422.232 271.157 422.472 271.466 422.472C271.774 422.472 272.494 422.78 272.7 422.06C272.906 421.34 273.524 419.934 273.524 420.963C273.4 422.022 273.135 423.061 272.734 424.049C272.46 424.804 270.745 425.146 270.607 424.358C270.516 423.514 270.516 422.664 270.607 421.82Z" fill="#A40000"/>
<path fill-rule="evenodd" clip-rule="evenodd" d="M260.83 430.325C260.28 429.33 260.349 429.296 260.04 428.816C259.732 428.336 259.56 428.096 259.697 427.89C259.835 427.684 261.996 425.181 262.716 427.478C263.437 429.776 263.129 430.05 262.991 430.565C262.854 431.079 261.447 431.285 260.83 430.325Z" fill="#A40000"/>
<path fill-rule="evenodd" clip-rule="evenodd" d="M278.052 406.08C276.458 408.539 275.297 411.255 274.622 414.104C274.382 417.088 274.279 419.694 276.852 417.876C279.424 416.059 282.546 413.11 282.443 415.579C282.34 418.048 282.443 427.101 280.213 427.17C277.907 427.41 275.651 426.388 274.313 424.495C274.207 425.596 274.46 426.703 275.033 427.65C276.028 429.193 280.282 431.079 282.203 428.713C283.98 426.103 285.001 423.055 285.154 419.9C285.38 417.276 285.38 414.636 285.154 412.012C285.154 411.395 282.306 410.401 280.007 412.87C280.007 412.87 278.533 413.35 279.424 411.91C280.316 410.469 280.282 408.48 281.346 407.314C282.409 406.148 281.723 406.148 281.14 405.6C278.018 402.651 278.807 404.571 278.018 406.08H278.052Z" fill="#A40000"/>
<path fill-rule="evenodd" clip-rule="evenodd" d="M275.307 419.797C275.753 419.797 276.646 419.488 277.16 420.105C277.675 420.723 279.013 420.997 279.082 421.82C279.15 422.643 278.636 425.249 277.126 423.363C275.616 421.477 275.067 421.1 275.307 419.934V419.797Z" fill="#A40000"/>
<path fill-rule="evenodd" clip-rule="evenodd" d="M311.126 406.423C311.126 405.565 311.503 405.223 312.43 404.228C314.033 402.246 315.361 400.055 316.374 397.713C317.265 396.118 317.934 394.41 318.364 392.637C318.364 391.677 319.566 389.86 320.629 392.191C321.693 394.523 321.796 394.455 321.727 395.072C321.658 395.689 320.8 396.649 319.223 398.021C317.644 399.393 314.11 403.474 311.126 406.423Z" fill="#A40000"/>
<path fill-rule="evenodd" clip-rule="evenodd" d="M315.963 405.771C315.963 404.845 315.963 403.954 316.478 403.405C316.993 402.856 317.644 403.405 317.781 403.885C317.919 404.365 317.781 404.811 318.571 404.845C319.36 404.88 323.168 404.605 323.408 405.771C323.566 406.402 323.566 407.061 323.408 407.692C322.796 407.479 322.234 407.139 321.761 406.697C320.801 405.874 318.09 407.28 318.124 408.24C318.159 409.201 317.919 412.493 318.124 412.801C318.33 413.11 320.595 412.561 320.698 412.801C320.801 413.041 317.85 414.859 317.781 417.191C317.713 419.522 317.781 424.049 317.781 424.632C317.781 425.215 316.856 425.695 315.894 423.74C314.934 421.786 315.346 421.306 314.831 421.1C314.317 420.894 313.561 420.826 311.4 422.3C309.239 423.775 307.593 423.706 307.283 422.506C307.108 421.669 307.108 420.805 307.283 419.968C309.208 417.458 311.33 415.109 313.63 412.938C314.16 412.667 314.751 412.537 315.346 412.561V408.412C315.346 408.412 313.939 408.035 312.396 409.818C310.897 411.433 309.499 413.141 308.21 414.927C307.73 415.75 306.494 416.196 306.288 414.413C306.083 412.63 305.877 410.984 307.73 410.161C310.711 409.266 313.478 407.774 315.86 405.771H315.963Z" fill="#A40000"/>
<path fill-rule="evenodd" clip-rule="evenodd" d="M324.437 396.581C325.688 397.006 326.851 397.658 327.867 398.501C328.485 399.153 328.622 399.633 328.897 399.804C329.171 399.976 330.886 399.804 330.886 398.878C330.782 397.178 330.782 395.47 330.886 393.769C331.127 393.117 332.876 392.054 333.117 394.489C333.251 395.789 333.698 397.037 334.42 398.124C334.606 398.899 334.676 399.695 334.626 400.49C334.626 401.965 336.307 403.131 336.65 403.542C336.993 403.954 336.65 404.502 336.65 405.051C337.798 406.296 339.291 407.167 340.939 407.554C341.762 407.554 340.939 409.372 339.155 410.606C337.37 411.841 334.523 412.767 334.523 415.099C334.523 417.431 334.763 418.905 333.974 420.105C333.167 421.525 332.555 423.048 332.156 424.632C331.882 425.729 332.156 427.581 331.95 428.953C331.744 430.325 330.646 432.656 329.652 429.193C328.656 425.729 328.45 426.244 328.553 423.535C328.656 420.826 328.553 416.882 328.553 416.676C328.553 416.47 326.976 415.716 325.466 416.676C323.956 417.636 321.795 418.425 321.657 417.602C321.52 416.779 322.103 416.505 322.413 415.373C322.722 414.241 322.687 412.733 323.785 412.39C324.883 412.047 325.466 412.39 325.637 411.052C325.811 410.161 325.88 409.252 325.843 408.343C325.843 408.035 324.952 407.863 324.952 406.423C324.919 405.432 325.208 404.458 325.775 403.645C326.196 402.555 326.315 401.368 326.117 400.216C325.843 399.804 325.603 400.216 325.294 399.564C324.986 398.913 325.294 398.021 324.093 398.09V397.13V396.581H324.437ZM327.25 404.502C327.559 404.262 327.593 403.885 328.142 403.817C328.69 403.748 329.755 403.817 329.755 404.88C329.764 405.857 329.381 406.797 328.69 407.486C328.245 407.692 327.422 407.692 327.284 407.212C327.147 406.731 326.392 405.12 327.284 404.502H327.25ZM335.038 408.275C335.052 407.825 335.182 407.39 335.416 407.006C335.621 406.697 335.827 406.011 336.239 406.011C336.65 406.011 338.4 406.663 338.503 407.177C338.71 407.798 338.595 408.477 338.194 408.995C337.68 409.715 335.896 410.847 335.381 410.195C335.083 409.602 334.963 408.933 335.038 408.275ZM327.422 411.704C327.833 411.429 328.622 411.292 328.794 411.704C328.997 412.132 329.08 412.606 329.034 413.076C329.034 413.453 328.725 414.55 328.245 414.859C327.765 415.167 326.804 415.202 326.701 414.859C326.24 413.782 326.531 412.534 327.422 411.772V411.704Z" fill="#A40000"/>
<path fill-rule="evenodd" clip-rule="evenodd" d="M373.327 407.349C373.443 406.484 373.512 405.613 373.533 404.742C373.543 403.573 373.752 402.414 374.15 401.313C374.668 400.206 375.09 399.06 375.42 397.884C375.42 397.198 377.409 397.164 377.924 398.604C378.192 399.54 378.713 400.384 379.433 401.039C379.674 402.376 379.674 403.748 379.433 405.085C379.056 406.114 379.433 406.629 378.781 407.28C378.13 407.932 378.336 410.195 378.987 410.435C379.924 410.682 380.922 410.517 381.732 409.989C382.693 409.406 383.31 409.303 383.756 408.583C384.535 407.774 385.694 407.458 386.775 407.76C387.941 408 388.937 407.966 389.143 408.583C389.348 409.201 389.143 409.201 387.393 410.195C386.539 410.812 385.619 411.33 384.648 411.738C383.331 412.18 382.055 412.743 380.84 413.418C380.257 413.899 378.85 413.418 378.541 413.418C378.233 413.418 377.821 413.418 376.723 416.265C375.625 419.111 373.293 421.751 367.22 423.123C367.22 423.123 363.103 424.289 363.274 422.06C363.446 419.831 366.705 418.905 367.768 418.631C368.833 418.357 369.793 417.465 369.793 417.019C369.601 415.96 368.737 415.15 367.666 415.03C366.726 415.13 365.809 414.691 365.298 413.899C364.671 413.079 363.747 412.537 362.726 412.39C361.867 412.39 362.417 410.744 363.034 409.921C363.651 409.098 364.303 408.686 364.887 409.646C365.929 411.052 367.707 411.711 369.416 411.327C371.988 411.121 372.846 410.949 373.121 409.646C373.173 408.744 373.173 407.839 373.121 406.937L373.327 407.349Z" fill="#A40000"/>
<path fill-rule="evenodd" clip-rule="evenodd" d="M379.81 417.739C380.719 417.756 381.629 417.674 382.52 417.499C383.035 417.499 382.932 416.848 384.442 416.882C387.605 416.844 390.504 418.634 391.887 421.477C393.259 425.318 389.039 424.529 386.946 423.329C385.437 422.379 384.003 421.313 382.657 420.14C381.149 419.008 379.502 418.665 379.81 417.739Z" fill="#A40000"/>
<path fill-rule="evenodd" clip-rule="evenodd" d="M414.29 394.523C414.876 395.436 415.594 396.255 416.417 396.958C417.549 398.09 417.893 398.638 418.75 398.33C419.607 398.021 420.98 397.472 419.676 399.324C418.956 400.353 415.25 403.096 414.564 400.696C413.971 398.693 413.875 396.574 414.29 394.523Z" fill="#A40000"/>
<path fill-rule="evenodd" clip-rule="evenodd" d="M424.926 391.574C425.167 391.574 425.578 391.163 426.744 392.363C427.911 393.563 428.974 394.283 429.214 393.872C429.454 393.46 429.73 393.152 429.627 394.283C429.524 395.415 431.822 396.512 429.627 397.198C428.46 397.575 426.813 397.575 426.436 396.478C426.165 395.47 425.763 394.499 425.235 393.597C424.926 393.152 423.897 392.02 424.926 391.574Z" fill="#A40000"/>
<path fill-rule="evenodd" clip-rule="evenodd" d="M433.88 390.82C434.703 390.271 435.15 389.654 435.973 390.1C436.796 390.545 437.551 391.06 438.169 391.403C438.786 391.746 440.124 391.849 439.026 392.946C437.929 394.043 436.693 394.523 436.076 395.484C434.672 397.239 433.369 399.07 432.164 400.97C431.821 401.965 431.821 401.793 432.645 401.999C433.468 402.205 438.683 404.605 438.683 406.354C438.683 408.103 439.267 409.098 438.134 409.029C437.003 408.96 437.037 408.652 436.316 409.269C435.596 409.886 433.263 410.709 432.645 411.567C432.027 412.424 431.924 412.938 432.199 413.281C432.824 413.809 433.091 414.65 432.886 415.442C432.807 416.313 432.535 417.156 432.096 417.911C431.513 419.077 431.787 419.557 431.204 420.105C430.621 420.654 430.656 420.928 430.724 421.1C430.793 421.271 433.263 420.723 434.566 420.791C435.87 420.86 437.997 420.071 439.507 422.06C441.016 424.049 434.223 424.941 433.811 425.284C433.4 425.627 433.811 425.284 433.126 427.101C432.439 428.919 432.199 431.422 429.934 431.936C427.67 432.451 425.063 431.731 424.857 430.942C425.838 431.168 426.861 431.168 427.842 430.942C429.626 430.599 431.273 430.016 431.273 429.056C431.273 428.096 432.577 425.627 429.249 426.655C425.92 427.684 424.206 427.238 422.901 425.764C422.315 425.153 421.787 424.485 421.323 423.775C420.946 423.295 420.843 423.158 420.911 422.815C420.98 422.472 421.597 421.82 422.113 422.129C422.627 422.437 422.661 423.055 423.073 423.158C423.484 423.26 428.494 422.78 428.7 422.163C428.906 421.546 429.866 418.974 430.312 418.014C430.758 417.053 429.934 412.493 428.768 414.962C427.601 417.431 425.852 418.391 425.543 416.779C425.368 414.999 426.329 413.298 427.944 412.527C429.557 411.91 430.793 411.875 431.376 410.812C431.804 409.842 432.356 408.93 433.023 408.103C434.051 406.8 436.11 404.674 433.537 404.228C430.964 403.782 429.146 402.754 424.137 409.543C419.127 416.333 418.304 417.739 416.692 415.853C415.079 413.967 416.246 414.55 417 412.973C419.446 409.506 422.449 406.471 425.886 403.988C428.528 402.513 430.243 402.102 431.719 400.216C432.978 398.728 433.942 397.02 434.566 395.175C435.184 393.495 435.321 392.329 434.566 391.951C432.577 390.82 430.553 392.98 433.777 390.785L433.88 390.82Z" fill="#A40000"/>
</svg>
