<svg width="801" height="800" viewBox="0 0 801 800" fill="none" xmlns="http://www.w3.org/2000/svg">
<path fill-rule="evenodd" clip-rule="evenodd" d="M109.1 556.41L111.46 555.27L113.09 554.55C113.63 554.35 114.23 554.31 114.79 554.45C115.34 554.66 115.84 554.99 116.24 555.43C116.8 556.06 117.29 556.76 117.69 557.5L119 556.83L113.19 545.43L111.88 546.11C112.32 546.98 112.66 547.89 112.9 548.83C113.09 549.44 113.09 550.09 112.9 550.7C112.66 551.3 112.24 551.81 111.71 552.16L110.35 553.04L108.09 554.32C107.19 554.83 106.05 555.41 104.7 556.1L93.95 561.63V561.48L105.84 530.76L102.43 524L101.11 524.67C101.43 525.43 101.66 526.14 101.84 526.69C101.97 527.22 102.04 527.76 102.05 528.3C102.03 528.8 101.93 529.29 101.76 529.76C101.64 530.05 101.5 530.34 101.34 530.61C101.2 530.84 101.04 531.04 100.85 531.23C100.54 531.48 100.21 531.7 99.86 531.9L98.05 532.87L88.65 537.68C87.36 538.35 86.25 538.91 85.3 539.33C84.34 539.76 83.55 540.12 82.89 540.4L81.17 541.12C80.56 541.36 79.9 541.44 79.26 541.32C78.66 541.19 78.12 540.86 77.72 540.4C77.19 539.76 76.72 539.07 76.34 538.34L75 539.03L80.71 550.32L82.04 549.63C81.64 548.77 81.32 547.87 81.08 546.94C80.94 546.32 80.99 545.68 81.22 545.08C81.51 544.48 81.97 543.97 82.54 543.62L84.08 542.73L86.37 541.45C87.27 540.96 88.36 540.37 89.65 539.73L100.31 534.24V534.34L87.92 565.54L88.6801 567L105.76 558.22C107.01 557.43 108.15 556.88 109.1 556.41Z" fill="#013D94"/>
<path fill-rule="evenodd" clip-rule="evenodd" d="M77.67 535.74L79.51 535.48L81.17 535.22C81.68 535.13 82.08 535.06 82.38 534.98L81.9301 533.32C80.9701 533.36 80.0099 533.3 79.0699 533.14C78.3299 533.02 77.61 532.81 76.92 532.52C76.42 532.31 75.96 532 75.58 531.6C75.1 531.1 74.7 530.51 74.41 529.88C73.93 528.94 73.5 527.97 73.13 526.97C72.63 525.71 72.26 524.64 71.99 523.75C71.75 523.06 71.67 522.33 71.73 521.6C71.85 521.03 72.16 520.51 72.62 520.15C73.31 519.62 74.08 519.2 74.91 518.92L83.08 515.73L84.8101 520.44C85.2101 521.52 85.5199 522.36 85.6899 523.01C85.8599 523.51 85.9099 524.05 85.8199 524.58C85.7099 525.03 85.46 525.43 85.1 525.73C84.57 526.17 84.0201 526.57 83.4301 526.93L84.03 528.51L92.48 525.22L91.88 523.64C91.25 523.77 90.61 523.86 89.96 523.9C89.51 523.93 89.06 523.81 88.67 523.56C88.24 523.24 87.89 522.8 87.67 522.3C87.27 521.48 86.9 520.63 86.59 519.76L84.8101 515L94.8199 511.14C95.1199 511 95.44 510.9 95.77 510.85C95.99 510.83 96.2001 510.95 96.3101 511.14C96.5301 511.46 96.69 511.8 96.8 512.17L98.37 516.34C98.8 517.48 99.13 518.43 99.33 519.24C99.49 519.82 99.56 520.42 99.54 521.02C99.51 521.45 99.37 521.85 99.13 522.2C98.88 522.53 98.63 522.87 98.35 523.19C98.04 523.51 97.7 523.82 97.35 524.12C96.95 524.43 96.48 524.8 95.92 525.17L96.7 526.63L98.53 525.77C99.15 525.47 99.77 525.17 100.37 524.91L101.93 524.19L103 523.69L94.8101 502L93.46 502.52C93.76 503.51 93.95 504.31 94.08 504.92C94.19 505.39 94.19 505.89 94.08 506.37C93.86 506.82 93.5101 507.19 93.0601 507.41C92.3701 507.82 91.63 508.16 90.88 508.43L73.39 515.23C72.69 515.53 71.96 515.76 71.22 515.92C70.74 516.03 70.23 515.97 69.79 515.76C69.3 515.46 68.9 515.03 68.62 514.52C68.15 513.7 67.72 512.84 67.34 511.97L66 512.49L74.89 536L76.12 535.88L77.67 535.74Z" fill="#013D94"/>
<path fill-rule="evenodd" clip-rule="evenodd" d="M107.1 585.23L112.65 581.8C112.93 581.61 113.23 581.46 113.54 581.33C113.81 581.22 114.09 581.14 114.38 581.09C114.67 581.09 115.01 581.09 115.42 581H119.94H123.92L127.93 581.1C128.74 581.11 129.55 581.17 130.35 581.28C130.91 581.35 131.46 581.5 131.97 581.74C132.46 581.98 132.9 582.31 133.28 582.71C133.8 583.25 134.29 583.82 134.74 584.42L136 583.64L129.76 573.75L128.5 574.52C128.97 575.45 129.3 576.17 129.53 576.71C129.7 577.1 129.76 577.52 129.71 577.94C129.59 578.23 129.34 578.45 129.03 578.51C128.51 578.65 127.99 578.73 127.45 578.77C126.6 578.86 125.66 578.91 124.64 578.94C123.62 579.01 122.55 579.07 121.46 579.09L118.14 579.17H115.04C115.94 577.2 116.88 575.22 117.83 573.17C118.78 571.13 119.79 569.16 120.76 567.25C120.92 566.88 121.11 566.53 121.33 566.2C121.46 565.98 121.7 565.85 121.96 565.86C122.33 565.94 122.66 566.13 122.91 566.41C123.44 566.92 123.93 567.48 124.38 568.06L125.64 567.26L119.15 557L117.89 557.77C118.21 558.36 118.48 558.98 118.7 559.61C118.86 560.07 118.92 560.57 118.89 561.06C118.86 561.61 118.73 562.15 118.52 562.65C118.29 563.23 117.96 563.96 117.55 564.8C116.87 566.25 116.24 567.61 115.64 568.86C115.04 570.1 114.47 571.33 113.89 572.48L112.18 575.94C111.92 576.46 111.7 576.88 111.52 577.19C111.37 577.45 111.19 577.69 110.98 577.91C110.8 578.09 110.6 578.24 110.38 578.38L104.88 581.78C104.22 582.22 103.52 582.61 102.8 582.93C102.34 583.15 101.82 583.19 101.33 583.06C100.81 582.87 100.34 582.54 100 582.1C99.39 581.39 98.82 580.64 98.29 579.87L97 580.65L104.79 593L106.08 592.22C105.57 591.37 105.12 590.49 104.73 589.58C104.47 589.05 104.35 588.46 104.41 587.87C104.49 587.36 104.76 586.9 105.15 586.57C105.75 586.06 106.41 585.61 107.1 585.23Z" fill="#013D94"/>
<path fill-rule="evenodd" clip-rule="evenodd" d="M129.85 624.12C129.62 623.64 129.5 623.11 129.5 622.57C129.51 621.99 129.64 621.42 129.88 620.88C130.24 620.1 130.65 619.34 131.12 618.61L134.53 612.83C135.68 610.82 136.88 608.82 138.09 606.77L141.63 600.72C142.81 598.74 143.92 596.81 145 594.94L143.67 594L117.71 600.93C116.8 601.18 115.88 601.37 114.95 601.51C114.35 601.62 113.74 601.62 113.15 601.51C112.62 601.37 112.13 601.13 111.71 600.78C111.16 600.34 110.64 599.86 110.16 599.34L109 600.26L116.01 609.31L117.19 608.39C116.73 607.75 116.33 607.07 115.98 606.36C115.76 605.97 115.65 605.52 115.68 605.06C115.79 604.67 116.05 604.34 116.4 604.15C116.98 603.83 117.6 603.58 118.24 603.41L121.21 602.47C122.18 602.14 123.16 601.82 124.07 601.52L131.07 610.54C130.28 611.84 129.64 613.06 128.92 614.22C128.2 615.37 127.66 616.37 127.17 617.24C126.95 617.66 126.62 618.02 126.21 618.27C125.91 618.41 125.54 618.27 125.05 617.98C124.36 617.46 123.73 616.86 123.17 616.21L122.01 617.14L129.64 627L130.82 626.07C130.44 625.45 130.11 624.8 129.85 624.12ZM126.47 600.8C128.55 600.19 130.67 599.57 132.81 598.9L139.26 596.98L139.35 597.08L132.42 608.48L126.47 600.8Z" fill="#013D94"/>
<path fill-rule="evenodd" clip-rule="evenodd" d="M216.98 180.419C217.32 178.009 217.98 175.656 218.93 173.421C220.09 171.05 220.15 160.51 219.85 155.377C219.55 150.245 214.62 137.84 207.64 138.779C200.66 139.719 195.79 144.765 193.36 148.293C190.93 151.821 188.64 157.662 187.89 157.748C186.52 157.82 185.35 156.754 185.28 155.366C185.27 155.196 185.28 155.025 185.31 154.857C185.52 152.543 185.85 148.77 185.09 147.628C184.34 146.485 178.93 143.102 178.93 143.102C178.93 143.102 179.08 137.016 178.17 134.326C177.26 131.637 176.83 129.165 175.66 126.013C174.58 123.341 174.03 120.483 174.03 117.598C173.87 114.056 174.4 108.07 173.17 105.525C171.94 102.981 168.32 101 168.32 101C168.32 101 159.59 109.299 158.92 111.598C158.25 113.897 157.5 118.046 158.45 118.827C159.41 119.608 161.19 117.381 161.45 116.355C162.17 114.809 163.06 113.354 164.11 112.017C164.75 111.178 166.28 108.2 167.56 108.62C168.85 109.039 170.06 112.263 170.35 114.489C170.63 116.716 170.86 122.051 171.29 123.902C171.78 126.09 172.39 128.252 173.1 130.379C173.72 131.984 174.04 136.163 173.17 136.582C172.3 137.001 170.52 136.163 170.32 133.69C169.81 131.135 169.01 128.647 167.95 126.273C167.38 124.726 167.15 120.041 161.45 120.967C160.93 122.449 160.63 124.005 160.58 125.579C160.77 127.025 163.65 128.008 163.96 129.627C164.28 131.247 162.71 133.864 164.55 136.379C166.39 138.895 168.83 142.163 168.66 143.609C168.49 145.054 165.81 146.5 165.66 147.946C165.48 150.072 165.99 152.201 167.09 154.018C168.01 155.175 169.06 156.215 170.23 157.112C170.23 157.112 172.7 152.963 171.94 151.561C171.26 150.138 170.85 148.598 170.73 147.02C170.66 145.849 171.44 142.784 171.44 141.815C171.44 140.847 172.1 140.283 172.52 140.37C172.93 140.456 174.26 144.375 174.21 146.269C174.11 148.014 173.91 149.753 173.6 151.474C173.6 151.474 175.81 151.228 175.81 149.767C175.81 148.307 177.71 147.96 178.83 148.163C179.94 148.365 182.61 154.943 182.22 157.257C181.84 159.57 182.9 160.944 181.85 161.956C180.81 162.968 179.5 163.72 180.24 165.7C181.24 168.077 181.88 170.592 182.15 173.161C182.47 176.313 183.22 183.079 183.22 184.54C183.22 186 183.44 189.99 185.55 188.14C187.66 186.289 188.85 180.911 188.65 179.465C188.45 178.019 189.82 176.732 190.51 175.026C191.19 173.32 191.46 170.486 192.09 169.706C192.72 168.925 193.92 169.329 194.08 167.898C194.23 166.467 194.3 163.763 195.5 163.662C196.7 163.561 198.24 166.12 197.74 167.999C197.14 169.551 196.8 171.192 196.72 172.857C196.79 174.462 197.09 178.091 196.3 179.566C195.52 181.041 196 182.371 195.13 182.458C194.26 182.544 191.71 182.544 191.86 183.181C192.02 183.817 194.85 184.93 194.63 186.39C194.42 187.851 193.48 193.142 193.48 194.53C193.48 195.918 193.72 198 194.75 198C195.77 198 196.79 196.323 197.6 194.198C198.42 192.072 198.29 187.532 200.26 188.414C202.23 189.297 203.78 190.685 206.14 189.759C208.5 188.834 216.36 183.253 216.98 180.419ZM203.28 185.841C201.8 185.02 200.63 183.709 199.99 182.125C199.87 181.026 201.09 176.963 201.7 173.624C202.31 170.284 201.7 160.799 201.4 158.934C201.1 157.069 198.74 155.348 196.97 156.158C195.2 156.968 193.4 160.799 192.36 162.823C191.2 164.911 190.18 167.075 189.31 169.301C188.72 171.108 187.88 172.915 187.31 173.031C186.74 173.146 187.01 171.816 186.94 170.732C186.86 169.648 186.69 167.84 186.69 167.84C187.84 168.216 189.96 163.503 190.98 161.854C191.99 160.206 193.33 155.941 194.76 153.18C196.19 150.418 203.8 144.505 207.27 144.664C210.74 144.823 212.38 149.103 213.75 151.488C215.12 153.874 214.73 161.797 214.78 166.524C214.82 171.252 211.92 177.036 210.42 180.188C208.92 183.339 204.21 186.101 203.28 185.841Z" fill="#013D94"/>
<path fill-rule="evenodd" clip-rule="evenodd" d="M168.51 635.62L170.46 633.92C170.97 633.47 171.41 633.1 171.8 632.8C172.26 632.46 172.82 632.26 173.4 632.25C173.98 632.27 174.54 632.46 175.01 632.79C175.7 633.23 176.34 633.75 176.92 634.33L178 633.36L169.34 624.23L168.29 625.22C168.93 625.92 169.51 626.68 169.99 627.49C170.32 628.03 170.48 628.64 170.46 629.26C170.36 629.88 170.1 630.45 169.69 630.92C169.45 631.25 169.07 631.63 168.62 632.12C168.18 632.6 167.57 633.2 166.85 633.92C166.13 634.63 165.18 635.5 164.06 636.51L155.31 644.59L155.21 644.49L158.21 612.41L153.1 607L152.05 607.98C152.5 608.53 152.91 609.11 153.27 609.71C153.55 610.16 153.77 610.64 153.91 611.14C154.04 611.6 154.08 612.09 154.05 612.57C154.05 612.92 153.92 613.24 153.87 613.48C153.81 613.73 153.71 613.97 153.56 614.19C153.39 614.42 153.14 614.72 152.81 615.08C152.48 615.43 151.95 615.92 151.37 616.5L143.7 623.57C142.66 624.53 141.76 625.35 140.98 626.01C140.2 626.67 139.54 627.24 138.95 627.68C138.36 628.12 137.91 628.51 137.51 628.81C136.99 629.19 136.38 629.44 135.73 629.52C135.13 629.56 134.53 629.4 134.03 629.06C133.33 628.62 132.69 628.09 132.13 627.49L131 628.48L139.51 637.53L140.61 636.53C139.99 635.82 139.45 635.06 138.98 634.26C138.66 633.72 138.52 633.1 138.57 632.48C138.7 631.82 139 631.21 139.45 630.72C139.77 630.41 140.18 629.98 140.68 629.49C141.18 629.01 141.78 628.38 142.51 627.67C143.25 626.95 144.14 626.1 145.18 625.15L153.84 617.13L153.92 617.2L150.56 649.82L151.67 651L165.61 638.16L168.51 635.62Z" fill="#013D94"/>
<path fill-rule="evenodd" clip-rule="evenodd" d="M195.31 646.98C194.38 645.89 193.38 644.87 192.31 643.92C190.85 642.62 189.25 641.49 187.55 640.55C185.89 639.62 184.12 638.93 182.28 638.48C180.51 638.04 178.68 637.9 176.86 638.07C175.02 638.24 173.23 638.78 171.59 639.66C169.77 640.64 168.14 641.96 166.81 643.57C165.34 645.28 164.25 647.29 163.62 649.47C163 651.57 162.84 653.77 163.16 655.94C163.5 658.24 164.28 660.46 165.45 662.47C166.79 664.76 168.49 666.81 170.47 668.55C171.51 669.48 172.61 670.33 173.77 671.09C174.91 671.87 176.08 672.57 177.22 673.23L180.44 675C180.79 674.35 181.19 673.73 181.63 673.14C182.09 672.52 182.59 671.92 183.08 671.33L185.76 668.14C186.11 667.71 186.48 667.31 186.88 666.94C187.14 666.7 187.47 666.54 187.82 666.5C188.2 666.5 188.58 666.61 188.9 666.81C189.47 667.12 190.02 667.45 190.55 667.81L191.47 666.74L181.69 658.05L180.78 659.14C181.5 659.86 182.18 660.63 182.82 661.42C183.22 661.87 183.52 662.41 183.68 662.99C183.77 663.46 183.69 663.94 183.47 664.36C183.11 664.95 182.7 665.5 182.24 666L179.77 668.95C179.44 669.39 179.03 669.76 178.58 670.06C178.26 670.26 177.89 670.38 177.51 670.38C177.13 670.36 176.76 670.29 176.4 670.16C175.69 669.95 175.01 669.65 174.36 669.28C173.6 668.82 172.87 668.29 172.2 667.7C170.81 666.48 169.63 665.03 168.71 663.4C167.92 661.98 167.39 660.43 167.14 658.81C166.9 657.31 166.9 655.77 167.14 654.27C167.39 652.81 167.84 651.39 168.48 650.06C169.09 648.77 169.87 647.56 170.79 646.48C172.11 644.87 173.72 643.54 175.53 642.55C177.11 641.69 178.84 641.19 180.62 641.08C182.37 640.97 184.12 641.25 185.76 641.89C187.54 642.56 189.18 643.56 190.61 644.84C191.49 645.6 192.29 646.44 193.01 647.36C193.65 648.22 194.14 649.18 194.46 650.21C194.77 651.26 194.85 652.36 194.7 653.44C194.49 654.78 194.06 656.07 193.42 657.26L194.72 658.12C195.58 656.79 196.37 655.58 197.12 654.47C197.88 653.37 198.48 652.51 199 651.79C198.67 651.3 198.21 650.62 197.56 649.77C196.86 648.8 196.11 647.87 195.31 646.98Z" fill="#013D94"/>
<path fill-rule="evenodd" clip-rule="evenodd" d="M768.69 311.92C764.74 309.52 760.46 305.82 760.62 304.5C760.78 303.18 761.24 302.35 763.12 302.65C765.01 302.96 769.06 303.42 769.06 303.42C769.06 303.42 770.35 302.19 770.13 298.41C769.92 294.64 769.61 293.87 768.07 293.41C766.32 293.02 764.49 293.29 762.91 294.16C762.21 294.86 761.84 295.77 758.96 295.77C756.09 295.77 749.45 295.86 749.45 295.86C749.45 295.86 749.35 293.12 747.86 293.12C746.37 293.12 739.95 294.81 739.27 293.54C738.6 292.26 738.75 287.613 739.27 287.192C739.8 286.771 742.14 287.279 743.67 287.38C745.38 287.4 747.01 286.638 748.12 285.305C749.23 282.705 749.8 279.895 749.78 277.058C749.5 275.106 747.71 273.754 745.79 274.037C745.61 274.063 745.44 274.103 745.27 274.155C744.33 275.06 743.56 276.133 743.01 277.32C742.61 278.641 739.27 281.414 737.29 282.648C735.3 283.882 730.76 286.132 729.76 286.045C728.76 285.958 728.33 285.667 728.33 284.274C728.33 282.88 729.32 276.26 728.4 275.331C727.49 274.402 724.82 273.24 723.91 275.084C722.51 277.254 720.65 279.075 718.46 280.412C716.63 281.573 714.95 284.506 713.65 286.219C712.35 287.932 710.09 288.99 711.39 290.08C712.69 291.17 713.65 290.47 716.26 290.24C718.86 290.01 720.73 289.92 720.73 289.92C720.73 289.92 723.44 292.45 724.25 293.49C725.07 294.54 727.27 294.86 729.32 294.86C731.36 294.86 733.97 295.02 733.97 295.02C733.97 295.02 734.5 299.66 733.81 300.11C732.82 300.48 731.71 300.06 731.22 299.11C730.6 298.11 727.87 298.34 727.94 299.66C728.02 300.98 729.23 301.9 731.61 303.74C733.98 305.59 733.58 306.65 732.89 307.68C732.21 308.71 728.6 313.48 729.32 314.94C730.03 316.39 735.34 319.8 740.03 321.11C744.73 322.41 750.05 320.95 755.17 321.48C760.29 322.02 763.54 322.03 765.18 323.09C766.83 324.15 770.36 324.55 771.12 322.8C771.88 321.06 773.78 321.18 773.98 319.8C774.18 318.42 772.64 314.3 768.69 311.92ZM725.87 286.945V287.148C725.18 288.06 721.42 288.6 720.7 288.38C719.99 288.16 720.5 287.38 720.43 286.059C720.36 284.738 719.97 283.795 720.63 283.62C721.29 283.446 723.17 282.866 723.92 282.546C724.67 282.244 725.52 282.502 725.98 283.17C726.11 284.428 726.07 285.697 725.87 286.945ZM740.89 297.95C742.59 297.12 744.88 297.83 746.37 297.83C747.86 297.83 747.59 300.03 747.43 301.11C747.27 302.2 746.41 302.13 745.46 301.67C744.5 301.2 742.84 301.58 741.69 301.11C740.55 300.65 740.89 297.95 740.89 297.95ZM739.9 313.77C738.79 314.24 737.57 314.42 736.37 314.31C735.61 314.04 736.13 312.86 736.37 312.15C736.46 311.09 736.4 310.02 736.18 308.98C736 307.76 738.5 308.13 740.48 308.13C742.45 308.13 742.04 310.87 742.08 312.18C742.12 313.48 741.12 313.4 739.88 313.77H739.9ZM764.23 317.61C763.49 318.08 762.72 318.51 761.94 318.9C761.94 318.9 757.07 319.23 754.25 319.07C751.44 318.91 749.43 318.3 747.6 318.45C745.77 318.59 740.68 318.27 742.49 314.44C743.67 313.79 744.61 312.77 745.18 311.54C745.7 309.83 745.66 307.59 747.23 306.66C748.8 305.73 749.43 303.64 750.09 302.83C751.23 301.77 752.98 301.77 754.13 302.83C755.17 304.1 756.24 307.34 758.42 309.06C760.59 310.77 764.4 312.89 764.93 313.77C765.57 315.08 765.24 316.67 764.14 317.61H764.23Z" fill="#013D94"/>
<path fill-rule="evenodd" clip-rule="evenodd" d="M629.08 191.44C627.93 194.004 625.06 197.305 626.31 199.274C627.56 201.243 627.77 204.458 628.62 205.365C629.48 206.272 635.36 204.827 640.15 205.28C643.07 205.569 645.87 206.499 648.36 208H652.38C653.44 208 653.22 206.045 651.07 205.365C648.92 204.685 643.24 202.433 642.16 199.699C640.9 196.521 640.12 193.18 639.85 189.783C639.77 186.95 638.29 184.952 638.13 182.771C637.97 180.589 635.41 176.566 633.89 178.521C634.51 179.922 634.78 181.447 634.67 182.969C634.27 184.81 630.25 188.89 629.08 191.44Z" fill="#013D94"/>
<path fill-rule="evenodd" clip-rule="evenodd" d="M302.98 119.272C307.68 117.204 319.58 109.222 328.3 102.847C337.01 96.4721 348.45 94.7491 348.96 91.9921C349.47 89.2361 345.4 85.0431 343.41 85.0431C341.42 85.0431 337.07 90.9151 334.46 92.5381C331.84 94.1601 331.67 92.3651 331.97 91.1021C332.28 89.8391 341.34 74.7631 343.15 71.3311C345.46 67.0041 346.3 62.0551 345.54 57.2181C344.54 52.0921 338.37 50.2681 335.37 51.2591C332.38 52.2501 328.91 53.7721 325.74 54.8491C322.57 55.9251 316.59 57.3331 313.8 58.2511C311.51 58.7771 309.14 58.8411 306.83 58.4381C298.98 57.7341 302.69 66.2341 307.15 68.9191C311.61 71.6041 314.79 69.4941 318.58 67.9291C322.37 66.3631 332.93 60.5631 333.95 59.8161C334.97 59.0701 335.4 59.7301 335.88 61.2521C336.36 62.7741 335.23 66.3061 324.88 81.5681C314.54 96.8311 315.86 97.3621 309.12 102.258C302.38 107.154 294.3 110.571 288.59 110.729C282.88 110.887 282.78 111.634 283.1 115.209C283.42 118.784 298.27 121.311 302.98 119.272Z" fill="#013D94"/>
<path fill-rule="evenodd" clip-rule="evenodd" d="M588 171.897C591.69 174.264 595.57 176.322 599.59 178.049C602.82 179.601 610.99 181.922 615.53 180.617C620.06 179.311 621.54 177.976 624.68 177.512C627.82 177.047 635.99 173.261 638.12 169.997C638.64 170.098 637.73 169.837 639.4 170.287C641.06 170.736 647.23 173.043 651.23 174.755C655.23 176.467 659.92 175.437 660.95 173.972C661.98 172.506 663.56 173.58 663.85 172.521C664.3 170.875 663.73 169.115 662.4 168.052C660.79 166.877 660.49 164.556 658.26 163.178C656.02 161.799 655.65 164.73 654.26 165.194C652.87 165.659 652.81 167.588 651.36 167.965C649.91 168.343 649.38 167.124 646.68 166.036C645.26 165.534 643.81 165.132 642.34 164.832C643.77 163.306 645.37 161.953 647.12 160.798C650.35 158.709 658.2 149.757 658.2 149.757C658.2 149.757 664.35 149.757 664.89 146.377C665.3 143.238 664.57 140.056 662.83 137.411C661.6 136.105 659.59 133.406 657.52 134.117C655.42 134.944 653.96 136.876 653.74 139.122C653.74 139.122 638.88 156.533 632.01 161.103L630.78 161.93L626.53 160.639C619.7 158.356 613.22 155.107 607.3 150.99C606.37 150.773 606.37 149.54 604.53 149.293C602.69 149.046 599.77 149.133 600.06 154.313C600.35 159.492 605.23 162.104 613.61 164.803C616.25 165.644 619.41 166.413 622.74 167.124C618.94 169.532 615.9 171.476 615.5 171.854C613.07 173.265 610.23 173.778 607.47 173.304C603.75 172.71 596.43 171.854 594.22 170.2C592 168.546 587.69 166.573 586.87 167.385C586.06 168.197 584.98 169.634 588 171.897Z" fill="#013D94"/>
<path fill-rule="evenodd" clip-rule="evenodd" d="M65.08 505.11C65.01 504.6 65.07 504.08 65.24 503.59C65.47 503.18 65.84 502.85 66.27 502.66C66.97 502.34 67.71 502.1 68.46 501.94L87 497.02C87.73 496.8 88.49 496.64 89.25 496.56C89.75 496.48 90.2699 496.59 90.6899 496.86C91.1099 497.18 91.44 497.6 91.64 498.08C91.9 498.68 92.2201 499.51 92.5601 500.46L94 500.08L90.59 487.41L89.15 487.8C89.33 488.59 89.45 489.39 89.51 490.2C89.57 490.69 89.5 491.18 89.3 491.62C89.0401 492.02 88.66 492.33 88.22 492.51C87.52 492.79 86.8001 493.02 86.0601 493.2L78.71 495.15L74.03 477.85L81.37 475.92C82.1 475.7 82.85 475.55 83.6 475.46C84.1 475.37 84.61 475.46 85.04 475.7C85.45 475.98 85.77 476.37 85.96 476.83C86.32 477.54 86.62 478.28 86.87 479.03L88.3101 478.66L84.87 466L83.4301 466.38C83.6501 467.42 83.76 468.28 83.83 468.93C83.91 469.45 83.85 469.98 83.65 470.47C83.42 470.89 83.04 471.21 82.6 471.39C81.89 471.71 81.16 471.95 80.41 472.13L61.87 477.04C61.14 477.26 60.38 477.41 59.62 477.5C59.14 477.55 58.66 477.46 58.25 477.23C57.85 476.9 57.54 476.48 57.34 476C57.09 475.42 56.7799 474.58 56.4399 473.64L55 474.02L58.49 486.83L59.9301 486.46C59.7301 485.41 59.59 484.58 59.53 483.94C59.46 483.42 59.53 482.89 59.73 482.4C59.96 482 60.33 481.67 60.77 481.49C61.46 481.21 62.18 480.98 62.91 480.81L71.98 478.39L76.51 495.74L67.4399 498.14C66.6999 498.35 65.95 498.5 65.2 498.6C64.7 498.67 64.19 498.56 63.76 498.3C63.35 497.95 63.04 497.51 62.85 497.02C62.49 496.2 62.17 495.37 61.89 494.53L60.45 494.91L63.99 508L65.4301 507.62C65.2701 506.79 65.15 505.95 65.08 505.11Z" fill="#013D94"/>
<path fill-rule="evenodd" clip-rule="evenodd" d="M152.33 176.627C153.4 175.648 154.87 175.936 155.5 174.568C156.12 173.2 154.49 170.752 155.89 169.745C157.29 168.737 160.26 168.448 160.59 170.349C160.93 172.25 159.91 177.448 162.31 179.723C164.71 181.997 166.68 188.031 167.32 190.334C167.96 192.638 171.05 197.289 173.91 200.125C176.78 202.962 180.57 207.166 183.65 205.698C186.74 204.229 187.76 200.888 186.43 199.132C185.11 197.375 180.73 193.373 179.87 190.176C179.01 186.979 179.02 184.978 177.47 183.898C175.91 182.818 173.83 182.372 173.83 184.2C173.83 186.029 173.67 188.074 173.07 188.232C172.14 188.537 171.13 188.037 170.83 187.116C170.78 186.979 170.75 186.836 170.74 186.691C170.21 183.1 169.34 179.566 168.13 176.137C166.46 172.253 165.01 168.283 163.77 164.244C163.07 160.991 162.1 157.802 160.86 154.712C159.78 152.581 158.05 146.865 158.53 143.28C159.01 139.694 159.53 131.89 158.64 130.321C157.76 128.752 156.18 128.809 154.63 129.328C154.63 129.328 149.92 131.818 148.8 136.282C147.68 140.746 150.13 151.804 149.81 157.246C149.49 162.689 148.19 164.043 148.8 165.958C149.36 167.927 149 170.04 147.81 171.717C146.76 173.173 146.73 175.12 147.73 176.613C148.45 178.239 151.25 177.621 152.33 176.627Z" fill="#013D94"/>
<path fill-rule="evenodd" clip-rule="evenodd" d="M670.17 333.3C671.51 333.71 672.69 334.49 673.59 335.55C674.32 336.37 679.81 338.04 685.13 336.09C688.36 335.09 691.24 333.24 693.47 330.74C694.92 329.31 694.33 328.62 696.38 328.36C697.17 328.1 697.85 327.6 698.32 326.93C698.82 327.33 699.26 327.82 699.6 328.36C700.39 330.01 700.81 331 701.45 332.41C702.09 333.83 704.06 335.54 704.1 335.99C704.15 336.45 705.3 336.81 707.67 336.31C709.38 336.13 710.93 335.24 711.93 333.86C712.28 332.99 710.47 330.77 708.52 329.02C707.06 327.77 704.52 324.95 701.74 322.16C702.02 321.71 702.27 321.39 702.38 321.21C703.59 320.34 705.08 319.89 706.58 319.97C707.48 319.89 708.38 319.94 709.26 320.12C709.22 321.19 709.78 322.19 710.72 322.72C712.36 323.75 714.3 325.11 715.41 325.91C716.52 326.71 721.97 327.07 723.79 327.19C725.61 327.3 725.81 326.03 728.43 326.61C731.06 327.2 732.24 325.41 731.96 324.32C731.68 323.23 723.44 313.51 715.31 308.32C707.18 303.14 702.54 300.6 702.54 300.6C702.54 300.6 700.61 296.71 702.32 295.91C703.47 295.68 704.66 295.68 705.81 295.91C706.74 296.36 706.94 297.85 707.63 298.24C708.46 298.47 709.32 298.54 710.18 298.44C710.18 298.44 709.61 296.49 708.79 295.99C706.37 294.54 704.04 292.95 701.81 291.22C700.18 289.79 694.09 286.325 693.16 285.652C692.23 284.979 689.95 282.788 688.53 283.017C686.73 283.612 685.11 284.635 683.81 285.996C683.3 286.712 681.66 288.53 682.1 290.42C682.54 292.31 681.98 294.04 685.54 295.08C689.18 296.31 692.73 297.79 696.18 299.49C700.55 301.41 704.55 304.69 709.19 308.55C712.42 311.16 715.49 313.96 718.37 316.95C719.59 318.38 720.23 320.58 719.26 321.14C717.42 321.76 715.43 321.71 713.63 321C712.63 320.23 707.8 316.7 706.14 316.49C704.48 316.27 700.65 316.6 700.31 317.26C700.03 318.02 699.81 318.8 699.64 319.59L699.02 319.51L698.07 318.64C694.11 315.04 681.24 302.48 679.38 298.77C679.38 298.77 678.46 297.48 677.73 297.44C677 297.4 674.31 299.73 673.53 300.92C672.76 302.11 672.73 304.84 672.22 305.95C671.71 307.05 673.83 309.1 676.59 310.64C680.68 313.16 684.58 315.97 688.25 319.05C688.99 319.71 689.97 320.48 691.03 321.26C691.03 321.26 691.03 321.26 691.03 321.34C691.03 324.21 690.57 326.13 688.41 326.83C686.25 327.53 679.32 329.18 677.22 327.8C675.12 326.43 674.31 322.83 674.2 321.41C673.99 319.88 673.43 318.41 672.57 317.12C672.11 316.62 671.12 315.01 670.79 314.67C670.47 314.32 669.05 315.43 669 316.76C668.96 318.09 669.47 324.46 669.67 326.78C669.88 329.1 668.27 332.67 670.17 333.3Z" fill="#013D94"/>
<path fill-rule="evenodd" clip-rule="evenodd" d="M58.4798 469.67C59.6798 470.02 60.9298 470.09 62.1598 469.88C64.0498 469.54 65.7398 468.48 66.8598 466.9C67.3998 466.15 67.8497 465.34 68.1997 464.49C68.5397 463.63 68.8397 462.76 69.0797 461.87C69.3397 460.99 69.5398 460.15 69.7398 459.33C70.0698 458.06 70.4898 456.8 70.9998 455.59C71.3998 454.59 72.0198 453.7 72.7998 452.97C74.0898 451.84 75.8098 451.35 77.4998 451.62C78.1498 451.73 78.7797 451.97 79.3397 452.32C79.9597 452.73 80.4898 453.26 80.8898 453.89C81.3498 454.68 81.6598 455.55 81.8098 456.46C82.0298 457.41 82.0298 458.41 81.8098 459.36C81.5998 460.12 81.2198 460.83 80.6798 461.41C80.1698 461.98 79.5598 462.47 78.8998 462.86C78.2198 463.28 77.5397 463.65 76.8397 463.99L77.3798 465.62L80.0098 464.78L82.0398 464.11C82.6398 463.91 83.2098 463.75 83.7398 463.62C83.8998 462.46 83.9898 461.29 83.9998 460.12C83.9998 459.07 83.9098 458.03 83.7398 456.99C83.4898 455.51 83.0098 454.07 82.2998 452.74C81.6998 451.63 80.9097 450.64 79.9497 449.83C79.0597 449.1 78.0397 448.56 76.9397 448.25C74.8597 447.71 72.6598 448.05 70.8498 449.21C70.0998 449.74 69.4398 450.39 68.8898 451.13C68.3498 451.85 67.8998 452.64 67.5398 453.46C67.1898 454.27 66.8898 455.09 66.6398 455.93C66.3998 456.75 66.1898 457.49 65.9898 458.16C65.6898 459.2 65.3897 460.17 65.0697 461.06C64.7897 461.9 64.3998 462.71 63.9298 463.46C63.5298 464.14 62.9897 464.73 62.3297 465.18C61.6597 465.68 60.8798 466 60.0498 466.11C59.0098 466.34 57.9298 466.27 56.9298 465.91C55.9898 465.57 55.1697 464.94 54.5897 464.12C53.9097 463.15 53.4698 462.02 53.2898 460.84C53.1098 459.88 53.1098 458.9 53.2898 457.94C53.4498 457.1 53.7597 456.29 54.2197 455.57C54.6197 454.9 55.1098 454.27 55.6598 453.71C56.2098 453.18 56.8197 452.69 57.4597 452.26C58.0197 451.89 58.5997 451.55 59.1997 451.26L58.6298 449.69C58.0198 449.86 57.3598 450.08 56.6698 450.34L54.5998 451.07L52.7998 451.8C52.3998 451.97 52.0098 452.16 51.6298 452.39C51.6298 452.62 51.5098 452.94 51.3998 453.38C51.2698 453.88 51.1798 454.4 51.1398 454.92C51.0498 455.67 51.0098 456.43 50.9998 457.18C50.9898 458.16 51.0798 459.13 51.2498 460.09C51.4998 461.63 51.9797 463.12 52.6897 464.52C53.3097 465.74 54.1597 466.83 55.1997 467.73C56.1297 468.63 57.2498 469.29 58.4798 469.67Z" fill="#013D94"/>
<path fill-rule="evenodd" clip-rule="evenodd" d="M94.2299 333.03C103.82 340.76 117.11 347.32 121.48 345.77C125.86 344.23 126.89 336.36 120.26 331.72C113.64 327.07 100.27 320.04 100.18 321.33C100.09 322.62 99.4199 324.19 102.09 326.8C104.76 329.42 109.48 333.86 109.18 334.62C108.87 335.37 106.81 336.2 102.46 331.42C98.1199 326.63 76.1699 312.29 69.9099 307.04C63.6599 301.8 55.8699 296.46 50.6199 297.04C45.3699 297.63 39.5599 301.16 43.0699 303.82C43.0699 303.82 49.1499 302.27 53.8199 304.77C58.4799 307.27 84.6299 325.27 94.2299 333.03Z" fill="#013D94"/>
<path fill-rule="evenodd" clip-rule="evenodd" d="M243.45 690.61C244.01 689.72 244.47 689.01 244.91 688.45C245.21 687.96 245.54 687.48 245.89 687.02C246.16 686.55 246.6 686.2 247.11 686.03C247.67 685.86 248.27 685.86 248.83 686.03C249.68 686.27 250.49 686.59 251.27 686.99L252 685.73L240.88 679.43L240.14 680.68C240.97 681.22 241.77 681.82 242.52 682.47C242.99 682.84 243.34 683.34 243.54 683.9C243.65 684.41 243.59 684.95 243.38 685.43C243.19 685.89 242.94 686.4 242.65 687.02C242.36 687.63 241.95 688.38 241.47 689.29L239.57 692.6L237.98 695.28C237.04 696.92 235.93 698.46 234.67 699.88C233.63 701.05 232.38 702.02 230.98 702.75C229.72 703.39 228.31 703.69 226.89 703.61C225.29 703.49 223.73 703 222.36 702.17C220.72 701.3 219.35 700.01 218.39 698.44C217.52 696.87 217.17 695.06 217.41 693.29C217.75 690.98 218.57 688.77 219.82 686.79L225.28 677.52C225.67 676.82 226.11 676.15 226.6 675.51C226.9 675.11 227.32 674.81 227.8 674.65C228.29 674.58 228.79 674.64 229.26 674.81C229.87 675.04 230.61 675.37 231.55 675.83L232.31 674.58L220.64 668L219.91 669.26C220.62 669.72 221.3 670.22 221.95 670.76C222.37 671.07 222.69 671.49 222.87 671.98C222.97 672.46 222.92 672.96 222.72 673.41C222.42 674.14 222.05 674.84 221.63 675.51L215.62 685.72C214.75 687.16 214.06 688.7 213.55 690.3C213.14 691.59 212.96 692.94 213.01 694.29C213.05 695.51 213.33 696.72 213.84 697.84C214.47 699.12 215.33 700.3 216.36 701.3C217.41 702.3 218.59 703.17 219.86 703.88C220.86 704.46 221.91 704.94 223.01 705.31C224.1 705.67 225.23 705.89 226.37 705.97C228.89 706.16 231.4 705.49 233.47 704.06C234.69 703.2 235.79 702.19 236.74 701.04C237.85 699.69 238.85 698.25 239.73 696.75L241.41 693.89C242.21 692.6 242.88 691.51 243.45 690.61Z" fill="#013D94"/>
<path fill-rule="evenodd" clip-rule="evenodd" d="M47.34 270.23C50.03 269.998 55.1001 270.23 55.4301 269.346C55.7601 268.462 56.8801 265.955 58.8801 268.027C61.5701 271.013 63.7701 274.408 65.3801 278.085C67.2801 282.433 77.1501 288.35 72.6401 291.43C71.7801 291.04 71.01 290.48 70.36 289.79C69.52 288.74 66.22 286.491 64.7 286.607C63.18 286.723 60.3501 288.32 61.1801 290.29C62.0001 292.26 66.0501 295.62 70.1401 300.43C74.2301 305.24 77.4001 309.77 80.5401 310.29C83.6901 310.81 90.41 312.68 91.11 311C92.26 307.95 91.64 304.52 89.49 302.07C86.59 298.45 82.0801 294.11 82.4001 292.35C82.7201 290.58 88.02 288.35 87.86 286.549C87.7 284.752 86.4001 281.244 84.7801 280.404C83.1601 279.563 82.9201 277.781 83.9201 277.505C84.9301 277.23 90.7101 281.129 92.2701 284.607C93.8201 288.08 95.17 292.23 98.07 292.37C100.97 292.52 102.07 291 103.68 290.59C104.9 290.44 106.14 290.65 107.24 291.22C107.24 291.22 107.31 293.16 107.24 293.84C107.16 294.52 108.4 294.61 108.69 293C108.98 291.39 109.23 290 109.92 289.84C110.62 289.68 112.39 290.93 112.62 292.61C112.85 294.29 113.78 298.16 113.93 299.85C114.14 301.8 115.83 303.24 117.78 303.16C119.73 302.85 122.25 303.01 121.8 300.16C121.35 297.3 121.72 293.84 122.95 293.29C124.18 292.74 126.65 292.61 126.74 294.3C126.82 296 126.56 299.01 127.58 300.69C128.59 302.37 130.19 303.69 129.72 304.78C129.26 305.87 126.82 306.77 124.04 306.32C121.25 305.87 118.64 308.03 118.47 309.55C118.29 311.07 124.11 312.33 125.58 314.17C127.04 316.01 132.76 316.79 133.67 314.94C134.58 313.08 135.37 309.46 134.21 308.4C133.25 307.37 132.43 306.22 131.74 305C131.74 305 134.21 303.55 133.67 301.78C133.13 300.01 130.9 296.78 131.74 296.07C133.5 295.07 135.55 294.7 137.54 295.03C139.5 295.49 141.21 293.68 141.9 291.4C142.58 289.13 139.84 284.65 135.95 280.665C132.06 276.679 119.25 258.187 115.3 259.071C112.2 259.733 109.93 262.388 109.76 265.549C109.44 268.085 110.62 276.404 108.98 276.477C107.34 276.549 104.29 274.563 103.18 273.578C102.06 272.592 101.72 272.795 99.71 272.404C97.69 272.013 95.7801 269.114 94.0601 269.419C92.3501 269.723 89.84 270.636 88.45 269.027C84.31 264.966 81.56 259.709 80.57 253.999C79.55 246.881 77.72 239.904 75.12 233.202C73.35 229.275 70.33 224.594 67.7 225.028C65.08 225.463 62.2401 228.738 62.0201 233.724C61.8001 238.709 63.47 242.651 63 244.825C62.75 247.949 62.7301 251.088 62.9301 254.216C62.9301 254.216 58.9901 251.767 56.5501 252.984C53.1801 255.146 50.15 257.804 47.57 260.868C45.97 263.044 44.2101 265.098 42.3001 267.013C41.2901 267.94 39.31 268.303 40.24 269.766C41.17 271.23 44.64 270.462 47.34 270.23ZM128.58 280.375C129.58 281.1 129.65 282.578 130.03 283.984C130.41 285.389 132.05 284.954 132.51 286.418C132.97 287.882 131.8 288.23 130.8 288.07C129.8 287.911 128.98 286.418 127.9 285.447C126.95 284.616 126.49 283.358 126.69 282.114C126.57 280.9 126.2 279.725 125.59 278.665C126.64 279.172 127.65 279.748 128.62 280.389L128.58 280.375ZM113.91 271.911C114.12 270.394 114.47 268.9 114.96 267.448C116.41 265.781 120.09 271.404 120.9 272.955C122.04 274.56 123.37 276.02 124.86 277.302C123.51 277.591 122.21 278.054 120.98 278.679C119.21 279.65 117.58 283.027 116.52 283.331C115.46 283.636 114.58 281.404 114.62 279.694C114.67 277.983 113.84 273.563 113.95 271.926L113.91 271.911ZM71.94 277.81C70.94 277.81 71.01 276.273 70.94 275.056C70.94 274.194 71.21 273.353 71.71 272.65C74.52 273.433 72.96 277.824 71.98 277.824L71.94 277.81ZM67.47 244.071C67.66 242.013 67.7901 237.752 67.7901 237.752C67.7901 237.752 70.3901 240.376 70.3901 241.622C70.3901 242.869 71.6501 244.521 72.1301 245.622C72.6101 246.723 72.45 248.738 71.61 248.897C70.77 249.057 69.71 251.216 69.59 252.173C69.47 253.129 68.59 253.028 68.24 252.173C67.67 249.517 67.4201 246.801 67.5201 244.086L67.47 244.071Z" fill="#013D94"/>
<path fill-rule="evenodd" clip-rule="evenodd" d="M278.27 704.85C278.6 704.24 278.87 703.72 279.11 703.3C279.39 702.79 279.83 702.4 280.36 702.18C280.91 701.98 281.5 701.94 282.07 702.06C282.87 702.23 283.64 702.47 284.39 702.8L285 701.48L273.67 696.13L273.06 697.45C273.92 697.84 274.73 698.33 275.49 698.9C275.98 699.27 276.36 699.77 276.57 700.35C276.75 700.95 276.75 701.58 276.57 702.18C276.46 702.59 276.26 703.09 276.01 703.72C275.77 704.34 275.46 705.17 275.06 706.09C274.66 707.02 274.13 708.2 273.5 709.59L268.49 720.48H268.36L258.96 689.19L252.26 686L251.64 687.33C252.26 687.69 252.85 688.08 253.43 688.49C253.86 688.81 254.24 689.18 254.56 689.61C254.84 690.01 255.06 690.45 255.21 690.91C255.21 691.28 255.37 691.58 255.41 691.84C255.46 692.1 255.46 692.37 255.41 692.63C255.32 693.01 255.19 693.39 255.04 693.76C254.86 694.22 254.57 694.84 254.21 695.63L249.83 705.17C249.23 706.47 248.7 707.6 248.24 708.5C247.79 709.4 247.34 710.2 247.01 710.83C246.69 711.47 246.36 712.01 246.1 712.43C245.76 713.01 245.26 713.48 244.67 713.79C244.13 714.04 243.53 714.11 242.94 714C242.14 713.84 241.36 713.58 240.63 713.23L240 714.6L251.21 719.9L251.83 718.55C251.01 718.14 250.22 717.65 249.49 717.1C248.99 716.71 248.63 716.17 248.46 715.56C248.31 714.9 248.36 714.21 248.6 713.57C248.79 713.15 249 712.6 249.26 711.94L250.27 709.54C250.66 708.6 251.16 707.47 251.7 706.17L256.66 695.34H256.76L266.1 727.3L267.53 728L275.5 710.6C276.13 709.22 276.67 708.06 277.13 707.12C277.53 706.25 277.96 705.47 278.27 704.85Z" fill="#013D94"/>
<path fill-rule="evenodd" clip-rule="evenodd" d="M548.74 697.33C548.89 697.97 548.99 698.62 549.05 699.27C549.1 699.71 549.01 700.16 548.79 700.55C548.5 701.01 548.1 701.39 547.64 701.67C547.07 702 546.22 702.42 545.24 702.92L540.41 705.27L535.75 694.97C535.59 694.69 535.48 694.38 535.44 694.06C535.42 693.84 535.51 693.64 535.68 693.51C535.97 693.28 536.3 693.09 536.64 692.96L540.58 691.07C541.46 690.63 542.35 690.24 543.27 689.91C543.82 689.7 544.41 689.61 545 689.64C545.45 689.69 545.89 689.86 546.25 690.15C546.58 690.35 546.9 690.58 547.2 690.84C547.5 691.12 547.77 691.43 548.03 691.75C548.35 692.11 548.71 692.55 549.13 693.07L550.54 692.24L549.36 690.14C548.93 689.38 548.55 688.69 548.16 687.93C547.76 687.18 547.45 686.57 547.18 686L527 695.67L527.61 697.01C528.35 696.7 529.1 696.44 529.87 696.22C530.33 696.08 530.82 696.08 531.28 696.22C531.73 696.39 532.11 696.71 532.36 697.12C532.77 697.79 533.14 698.49 533.45 699.21L541.3 716.54C541.64 717.25 541.93 717.99 542.16 718.74C542.31 719.22 542.31 719.72 542.16 720.2C541.93 720.67 541.59 721.07 541.16 721.36C540.47 721.83 539.76 722.26 539.03 722.65L539.65 724L552.05 718.06L551.45 716.68C550.57 717.07 549.67 717.4 548.75 717.67C548.21 717.87 547.62 717.92 547.06 717.81C546.57 717.67 546.15 717.36 545.87 716.93C545.4 716.29 544.99 715.6 544.64 714.88L541.07 707.05L546.05 704.72C546.85 704.31 547.68 703.95 548.52 703.66C549.02 703.47 549.56 703.41 550.09 703.48C550.55 703.61 550.96 703.86 551.29 704.21C551.75 704.72 552.18 705.26 552.59 705.82L554 705.14L550.16 696.69L548.74 697.33Z" fill="#013D94"/>
<path fill-rule="evenodd" clip-rule="evenodd" d="M530.689 709.78C530.019 708.09 529.06 706.53 527.87 705.18C526.77 703.9 525.47 702.83 524.02 702C522.6 701.21 521.06 700.64 519.47 700.32C517.86 700 516.22 699.92 514.59 700.08C512.95 700.26 511.34 700.67 509.8 701.28C507.98 702.01 506.28 703.04 504.78 704.32C502.09 706.59 500.209 709.69 499.409 713.16C499.049 714.82 498.92 716.53 499.04 718.23C499.19 719.94 499.58 721.62 500.2 723.22C500.85 724.87 501.759 726.39 502.909 727.73C503.979 728.99 505.249 730.05 506.669 730.88C508.069 731.71 509.599 732.31 511.189 732.64C512.809 732.99 514.46 733.08 516.1 732.93C517.81 732.77 519.49 732.36 521.08 731.7C522.75 731.02 524.31 730.1 525.73 728.97C527.09 727.91 528.28 726.64 529.25 725.2C530.23 723.81 530.959 722.26 531.409 720.61C531.879 718.91 532.08 717.15 531.97 715.38C531.83 713.46 531.389 711.57 530.689 709.78ZM527.32 723.56C526.79 724.92 526 726.16 525 727.19C523.97 728.2 522.759 728.99 521.439 729.52C519.849 730.18 518.139 730.48 516.419 730.39C514.719 730.27 513.05 729.78 511.55 728.94C509.93 728.07 508.49 726.89 507.32 725.46C505.97 723.87 504.899 722.06 504.149 720.11C503.379 718.25 502.94 716.27 502.85 714.26C502.77 712.62 503.02 710.98 503.6 709.45C504.64 706.73 506.739 704.58 509.389 703.51C510.899 702.87 512.529 702.54 514.169 702.55C515.819 702.57 517.439 702.96 518.929 703.67C520.579 704.48 522.05 705.63 523.25 707.04C524.69 708.75 525.829 710.71 526.629 712.81C527.439 714.68 527.92 716.68 528.04 718.72C528.13 720.36 527.89 722.01 527.32 723.56Z" fill="#013D94"/>
<path fill-rule="evenodd" clip-rule="evenodd" d="M496.12 102.619C496.4 101.478 496.66 99.443 497.56 98.735C498.47 98.028 498.8 97.09 498.51 96.628C498.22 96.166 496.96 95.733 496.8 94.881C496.64 94.029 498.4 93.1191 499.32 93.0901C500.75 92.7731 502.02 91.96 502.92 90.795C503.17 89.943 502.44 86.984 504.35 86.464C506.27 85.944 509.52 85.222 509.58 84.01C509.64 82.797 511.61 82.306 511.97 81.584C512.33 80.862 512.3 78.6971 511.2 78.0901C509.95 77.1241 508.58 76.319 507.13 75.694C505.69 75.247 502.09 74.351 501.09 75.102C500.08 75.853 497 78.177 495.65 78.148C494.31 78.089 493.22 77.046 493.1 75.708C493.1 74.654 495.68 74.727 496.81 73.803C497.95 72.879 502.11 73.211 504.2 72.864C507.62 72.202 511.11 71.912 514.6 71.998C518.15 72.287 519.95 72.59 521.25 73.832C522.54 75.073 524.84 77.8161 526.5 78.1631C528.15 78.5091 530.82 76.0551 530.6 74.7701C529.62 72.2251 527.79 70.098 525.42 68.75C522.74 67.494 517.49 68.115 517.49 68.115C517.49 68.115 518.48 64.448 520.53 62.989C522.57 61.531 529.44 51.526 530.89 48.711C532.34 45.896 533.32 43.052 532.9 41.492C532.49 39.933 527.51 39.717 526.83 39.948C526.15 40.179 525.39 44.5241 524.41 46.2281C523.43 47.9311 520.53 52.118 520.4 52.537C520.27 52.955 514.64 53.98 514.27 54.544C513.41 55.176 512.21 55.0101 511.55 54.1681C511.03 53.1141 509.49 51.281 510.37 50.458C511.25 49.635 512.43 48.408 512.33 46.993C512.23 45.578 509.62 38.071 505.13 39.096C504.48 40.57 503.92 42.079 503.43 43.615C502.81 45.194 502.27 46.809 501.84 48.451C501.68 50.068 500.4 53.98 499.07 54.601C497.75 55.222 495.78 55.828 494.94 55.121C494.11 54.414 492.21 51.916 490.63 51.974C489.04 52.031 487.95 53.605 487.42 55.67C486.97 57.822 487.41 60.065 488.65 61.878C489.63 62.874 490.63 62.8741 492.38 62.5851C494.14 62.2961 496.6 61.661 496.53 62.802C496.45 63.942 495.76 65.949 496.37 66.873C496.86 67.918 497.2 69.0331 497.36 70.1791C497.36 70.1791 487.11 70.641 481.53 70.396C475.95 70.15 472.18 69.14 470.35 68.013C468.52 66.887 463.95 63.87 462.57 65.011C461.18 66.151 460.88 67.898 463.19 71.002C465.49 74.106 469.06 78.134 471.36 78.596C473.82 79.102 476.37 78.777 478.62 77.672C480.22 76.618 480.68 75.289 483.82 75.289C485.02 75.333 486.22 75.2991 487.42 75.1891C487.42 75.1891 487.17 77.816 486.5 78.423C485.82 79.029 483.32 80.545 483.82 81.31C484.32 82.075 484.34 82.595 488.14 82.393C491.94 82.191 493.58 81.7001 494.08 81.1371C495.06 80.3741 496.33 80.0741 497.55 80.3141C499.2 80.5161 503.19 80.314 502.34 81.902C501.49 83.49 499.85 85.858 497.79 86.233C495.82 86.688 493.89 87.3361 492.04 88.1681C491.43 88.3981 485 88.543 483.04 89.409C481.09 90.275 480.34 91.2861 479.03 91.5461C477.72 91.8061 476.28 92.412 476.78 92.672C477.83 93.094 478.97 93.2 480.08 92.975C482.21 92.831 485 92.585 485.13 93.336C485.26 94.087 485.85 95.7611 483.85 96.5561C481.66 97.4121 479.61 98.563 477.73 99.977C476.29 101.204 474.94 100.67 473.21 100.482C471.49 100.295 470.34 100.742 470.84 102.085C471.63 104.02 473.32 105.439 475.36 105.882C477.29 105.757 479.22 105.491 481.11 105.088C481.7 105.088 481.99 107.094 481.52 107.845C481.04 108.596 480.08 108.942 479.68 110.271C479.27 111.599 479.29 114.53 478.73 114.717C478.16 114.905 477.49 113.028 476.73 112.451C475.96 111.873 471.52 111.483 469.07 111.83C466.62 112.176 465.1 113.707 464.26 113.909C462.7 113.977 461.13 114.146 459.59 114.414C458.59 114.833 456.71 116.262 455.27 116.291C453.56 116.231 451.85 116.298 450.15 116.493C449.37 116.753 447.46 117.937 448.15 119.525C448.84 121.113 451.17 121.401 452.36 121.301C453.56 121.2 455.24 119.178 456.84 118.716C458.48 118.296 460.05 117.608 461.47 116.681C462.73 115.878 464.15 115.383 465.63 115.237C467.54 114.978 469.46 114.862 471.39 114.89C472.83 114.89 474.52 117.2 476.32 119.655C478.12 122.109 478.37 124 480.02 124C481.68 124 483.99 119.582 485 118.615C486.26 116.886 486.97 114.821 487.06 112.682C487.06 110.675 487.47 107.412 488.34 106.199C489.2 104.987 489.94 103.11 491.92 103.312C493.91 103.514 495.86 103.788 496.12 102.619ZM504.47 68.115C504.72 67.134 504.84 66.1231 504.81 65.1111C505.69 64.2311 510.48 64.534 510.48 64.534C510.48 64.534 512.86 61.95 514 61.647C515.13 61.343 515.43 62.455 515.33 63.495C515.23 64.534 513.28 65.155 512.92 65.544C512.56 65.935 511.58 68.432 510.94 68.851C509.55 69.314 508.09 69.557 506.63 69.573C505.71 69.5 503.91 69.573 503.91 69.573C504.04 69.066 504.23 68.577 504.47 68.115Z" fill="#013D94"/>
<path fill-rule="evenodd" clip-rule="evenodd" d="M502.291 124.319C504.061 123.296 505.111 121.322 504.991 119.233C504.991 116.977 502.26 115.605 501.64 114.426C501.03 113.246 498.011 110.607 496.241 111.049C494.461 111.492 494.351 111.049 493.121 112.273C493.121 112.273 492.621 115.768 493.691 116.593C494.761 117.419 497.111 118.348 497.471 119.808C497.821 121.267 496.191 125.13 498.221 125.823C500.261 126.517 500.671 124.998 502.291 124.319Z" fill="#013D94"/>
<path fill-rule="evenodd" clip-rule="evenodd" d="M587.14 661.97L587.77 661.46C587.42 660.98 587.08 660.49 586.8 660L585.78 660.67C585.75 660.99 585.69 661.31 585.6 661.62C585.52 661.87 585.38 662.11 585.19 662.3C584.94 662.57 584.66 662.81 584.35 663L567.03 674.17C566.69 674.41 566.33 674.62 565.96 674.78C565.67 674.92 565.35 675 565.03 675C564.67 674.99 564.3 674.91 563.97 674.77L563 675.39C563.7 676.56 564.46 677.77 565.08 679.09C565.69 680.42 566.54 681.66 567.17 682.91L568.64 681.98C568.31 680.94 568.07 680.05 567.9 679.35C567.74 678.77 567.66 678.16 567.67 677.55C567.65 677.13 567.75 676.71 567.96 676.35C568.29 675.86 568.7 675.43 569.16 675.06C569.98 674.42 570.83 673.83 571.71 673.28L574.81 671.26L587.7 691.01C588.14 691.64 588.52 692.31 588.84 693.02C589.05 693.47 589.09 693.99 588.96 694.47C588.76 695.03 588.41 695.54 587.96 695.93C587.24 696.58 586.47 697.18 585.66 697.73L586.48 699L599 690.92L598.18 689.64C597.32 690.18 596.43 690.67 595.5 691.09C594.96 691.35 594.36 691.48 593.76 691.46C593.25 691.38 592.78 691.13 592.44 690.74C591.94 690.18 591.49 689.57 591.09 688.92L578.2 669.16L581.52 667.02C582.35 666.48 582.98 666.06 583.6 665.77C584.06 665.49 584.55 665.28 585.06 665.13C585.39 665.03 585.74 664.99 586.09 665.01C586.41 665.03 586.73 665.1 587.02 665.23C587.37 665.36 587.7 665.52 588.01 665.71C588.4 665.97 588.78 666.25 589.15 666.55C589.58 666.92 590.06 667.37 590.61 667.91L591.94 666.8L590.17 664.56L588.68 662.69L588.08 663.1L587.14 661.97Z" fill="#013D94"/>
<path fill-rule="evenodd" clip-rule="evenodd" d="M731.4 500.17C730.44 498.72 729.24 497.44 727.86 496.4C726.31 495.27 724.61 494.39 722.8 493.78C721.1 493.22 719.33 492.96 717.55 493C715.89 493.06 714.25 493.4 712.7 494C711.17 494.59 709.74 495.42 708.47 496.46C707.19 497.52 706.08 498.76 705.15 500.15C704.22 501.54 703.48 503.05 702.96 504.65C702.34 506.55 702.01 508.53 702 510.53C702 512.34 702.29 514.14 702.85 515.87C703.38 517.49 704.17 519.01 705.18 520.37C707.2 523.12 710.01 525.16 713.21 526.22C714.86 526.77 716.59 527.03 718.32 527C719.96 526.96 721.59 526.65 723.12 526.08C724.65 525.51 726.08 524.7 727.36 523.67C728.67 522.63 729.81 521.39 730.75 520C731.73 518.56 732.5 516.99 733.02 515.32C733.59 513.57 733.91 511.76 733.98 509.92C734.06 508.18 733.87 506.44 733.43 504.75C733.01 503.12 732.33 501.57 731.4 500.17ZM731.64 513.67C731.12 515.34 730.24 516.87 729.06 518.14C727.86 519.4 726.42 520.38 724.82 521.02C723.11 521.71 721.3 522.08 719.47 522.1C717.41 522.12 715.36 521.8 713.41 521.14C711.51 520.56 709.74 519.63 708.17 518.4C706.89 517.41 705.83 516.16 705.06 514.73C704.38 513.44 703.96 512.03 703.84 510.57C703.75 509.16 703.92 507.74 704.36 506.39C704.86 504.81 705.66 503.34 706.72 502.08C707.8 500.81 709.14 499.79 710.63 499.07C712.29 498.3 714.1 497.88 715.92 497.84C718.13 497.82 720.32 498.18 722.4 498.91C724.32 499.5 726.12 500.42 727.73 501.63C729.01 502.62 730.09 503.86 730.89 505.29C731.58 506.57 732 508 732.11 509.46C732.22 510.88 732.06 512.31 731.64 513.67Z" fill="#013D94"/>
<path fill-rule="evenodd" clip-rule="evenodd" d="M623.78 668.5C623.49 667.93 623.23 667.37 622.96 666.81C622.68 666.24 622.43 665.72 622.19 665.36L621.61 664.25L620.16 665.22C620.5 666.12 620.74 667.06 620.88 668.02C621.01 668.76 621.03 669.52 620.96 670.27C620.92 670.82 620.78 671.35 620.52 671.83C620.19 672.45 619.76 673.01 619.24 673.49C618.5 674.26 617.7 674.97 616.85 675.62C615.79 676.48 614.91 677.19 614.14 677.71C613.56 678.16 612.89 678.47 612.17 678.64C611.59 678.68 611.01 678.54 610.53 678.22C609.82 677.71 609.18 677.1 608.65 676.41L603.05 669.54L607.05 666.29C607.92 665.58 608.65 665.04 609.21 664.65C609.64 664.34 610.14 664.13 610.66 664.06C611.12 664.03 611.58 664.15 611.97 664.39C612.55 664.76 613.11 665.17 613.63 665.62L614.94 664.58L609.2 657.39L607.89 658.43C608.23 658.99 608.51 659.59 608.73 660.21C608.92 660.63 608.95 661.1 608.83 661.55C608.65 662.06 608.35 662.52 607.95 662.89C607.29 663.54 606.6 664.15 605.88 664.71L601.88 667.93L595.08 659.58C594.85 659.34 594.66 659.06 594.51 658.76C594.42 658.56 594.46 658.32 594.61 658.15C594.85 657.86 595.13 657.59 595.44 657.37L598.92 654.57C599.68 653.94 600.48 653.34 601.31 652.8C601.8 652.45 602.35 652.18 602.93 652.02C603.33 651.88 603.77 651.88 604.17 652.02C604.57 652.15 604.98 652.29 605.36 652.45C605.77 652.64 606.18 652.87 606.56 653.13C606.98 653.4 607.49 653.75 608.01 654.18L609.2 653.06L607.75 651.61C607.28 651.09 606.82 650.61 606.38 650.17L605.2 648.88C604.83 648.51 604.57 648.2 604.4 648L587 662.05C587.16 662.3 587.32 662.53 587.51 662.78L587.9 663.3C588.36 662.96 588.85 662.64 589.35 662.36C589.79 662.1 590.29 661.96 590.8 661.95C591.29 662.01 591.75 662.24 592.1 662.59C592.69 663.16 593.24 663.76 593.76 664.39L605.73 679.06C606.24 679.64 606.69 680.27 607.08 680.93C607.33 681.37 607.44 681.88 607.38 682.38C607.23 682.92 606.95 683.42 606.56 683.82C605.93 684.55 605.26 685.23 604.54 685.86L605.47 687L625 671.21C624.88 670.94 624.72 670.53 624.51 670.07C624.29 669.61 624.04 669.06 623.78 668.5Z" fill="#013D94"/>
<path fill-rule="evenodd" clip-rule="evenodd" d="M676.4 579.79C675.58 579.17 674.96 578.68 674.33 578.26L672.89 577.18C672.46 576.8 672.16 576.29 672.03 575.73C671.92 575.15 671.99 574.55 672.21 574C672.51 573.23 672.89 572.5 673.35 571.82L672.16 571L664.97 581.32L666.17 582.16C666.72 581.39 667.34 580.67 668.03 580.02C668.49 579.58 669.07 579.29 669.7 579.2C670.32 579.15 670.94 579.28 671.5 579.57L672.93 580.38C673.49 580.71 674.21 581.18 675.06 581.74C675.91 582.3 676.97 583.04 678.19 583.9L687.96 590.78L687.89 590.89L655.68 594.73L652 600L652.66 600.55L652.11 601.34L652.59 601.67C653.12 601.05 653.61 600.53 654.03 600.11C654.41 599.74 654.84 599.43 655.32 599.19C655.77 598.96 656.26 598.82 656.76 598.76C657.11 598.76 657.43 598.76 657.68 598.76C657.94 598.76 658.2 598.82 658.45 598.92C658.82 599.06 659.16 599.25 659.49 599.48C659.9 599.74 660.46 600.13 661.18 600.62L669.71 606.64C670.89 607.46 671.87 608.18 672.69 608.81C673.51 609.43 674.21 609.96 674.74 610.42C675.27 610.88 675.78 611.26 676.18 611.61C676.67 612.03 677.05 612.58 677.26 613.19C677.41 613.78 677.37 614.39 677.16 614.95C676.86 615.72 676.48 616.45 676.02 617.13L677.21 618L684.4 607.75L683.21 606.9C682.63 607.64 682 608.33 681.31 608.96C680.85 609.39 680.27 609.66 679.66 609.74C678.98 609.76 678.31 609.59 677.72 609.27C677.33 608.99 676.84 608.7 676.28 608.3L674.12 606.86C673.28 606.29 672.26 605.59 671.08 604.76L661.28 597.94L694.07 594.37L695 593.03L679.51 582.06C678.29 581.16 677.23 580.43 676.4 579.79Z" fill="#013D94"/>
<path fill-rule="evenodd" clip-rule="evenodd" d="M723.71 532C723.22 531.58 722.72 531.21 722.26 530.82C721.8 530.43 721.32 530.04 720.91 529.73L719.93 529L719.04 530.49C719.77 531.23 720.44 532.02 721.04 532.86C721.49 533.51 721.86 534.21 722.14 534.95C722.35 535.48 722.43 536.05 722.39 536.62C722.35 537.29 722.21 537.95 722 538.58C721.78 539.28 721.46 540.07 721.09 540.98C720.71 541.89 720.16 543.02 719.74 543.83C719.4 544.49 718.95 545.08 718.42 545.59C718.13 545.79 717.8 545.94 717.46 546.01C717.01 546.05 716.57 545.99 716.14 545.84C715.48 545.64 714.83 545.39 714.2 545.08L697.09 537.25C696.35 536.94 695.65 536.56 694.97 536.12C694.54 535.83 694.22 535.41 694.05 534.92C693.91 534.39 693.91 533.84 694.05 533.31C694.27 532.47 694.53 531.64 694.84 530.83L693.49 530.21L688 542.9L689.35 543.53C689.75 542.72 690.19 541.94 690.68 541.19C690.95 540.72 691.34 540.34 691.81 540.1C692.28 539.93 692.79 539.93 693.26 540.1C694.01 540.32 694.75 540.6 695.45 540.95L712.85 548.94C713.58 549.27 714.3 549.64 714.98 550.06C715.42 550.32 715.75 550.73 715.92 551.21C716.08 551.74 716.08 552.31 715.92 552.84C715.75 553.49 715.47 554.33 715.1 555.37L716.46 556L726 533.92L725.03 533.1C724.64 532.74 724.19 532.37 723.71 532Z" fill="#013D94"/>
<path fill-rule="evenodd" clip-rule="evenodd" d="M646.639 645.79C646.369 645.1 646.08 644.43 645.78 643.75C645.48 643.07 645.179 642.48 644.899 641.91L643.399 642.69C643.739 643.93 643.999 645.18 644.169 646.46C644.319 647.53 644.319 648.63 644.169 649.71C644.009 650.73 643.679 651.71 643.179 652.6C642.599 653.62 641.89 654.55 641.05 655.35C639.73 656.66 638.169 657.68 636.449 658.36C634.819 659.02 633.06 659.31 631.3 659.2C629.49 659.11 627.7 658.64 626.07 657.82C624.23 656.89 622.569 655.64 621.159 654.12C620.189 653.1 619.349 651.95 618.679 650.71C618.029 649.49 617.55 648.19 617.27 646.83C616.67 644.05 617.05 641.15 618.33 638.63C619.07 637.2 620.019 635.89 621.159 634.77C622.309 633.57 623.659 632.59 625.149 631.87C626.359 631.32 627.7 631.13 629.01 631.32C630.45 631.58 631.82 632.12 633.04 632.92L633.949 631.47C633.299 630.93 632.69 630.46 632.1 630.02L630.29 628.58C629.68 628.1 629.01 627.58 628.3 627C627.89 627.27 627.29 627.65 626.52 628.11C625.76 628.58 624.889 629.2 623.929 629.88C622.889 630.66 621.91 631.5 620.98 632.41C619.08 634.27 617.469 636.42 616.209 638.77C615.089 640.91 614.37 643.24 614.1 645.65C613.85 647.91 614.08 650.2 614.79 652.36C615.55 654.61 616.779 656.66 618.399 658.36C619.449 659.46 620.66 660.38 621.98 661.11C623.34 661.89 624.82 662.44 626.35 662.73C627.99 663.05 629.68 663.09 631.33 662.83C633.18 662.54 634.97 661.94 636.62 661.05C638.6 659.99 640.42 658.63 642.02 657.03C642.69 656.33 643.35 655.58 643.98 654.84C644.62 654.11 645.169 653.4 645.679 652.66L647.09 650.71C647.46 650.13 647.79 649.68 648 649.35C647.86 648.82 647.69 648.31 647.49 647.8C647.21 647.09 646.969 646.47 646.639 645.79Z" fill="#013D94"/>
<path fill-rule="evenodd" clip-rule="evenodd" d="M652.49 600.39L652.04 600L643.43 610.13L644.56 611.05C645.14 610.46 645.74 609.9 646.38 609.37C646.75 609.03 647.21 608.81 647.7 608.71C648.21 608.68 648.72 608.8 649.15 609.07C649.79 609.51 650.4 609.99 650.98 610.51L656.79 615.38L645.04 629.18L639.24 624.31C638.63 623.84 638.08 623.32 637.57 622.76C637.25 622.41 637.04 621.98 636.97 621.51C636.97 621.01 637.11 620.51 637.38 620.08C637.78 619.39 638.23 618.72 638.71 618.07L637.58 617.14L629 627.25L630.12 628.18C630.72 627.55 631.35 626.95 632.02 626.39C632.42 626.01 632.93 625.74 633.47 625.63C633.95 625.58 634.44 625.69 634.85 625.94C635.52 626.37 636.14 626.85 636.72 627.38L651.58 639.68C652.18 640.16 652.74 640.68 653.26 641.25C653.59 641.6 653.78 642.05 653.8 642.53C653.76 643.04 653.6 643.53 653.32 643.96C652.88 644.69 652.39 645.39 651.87 646.07L653.02 647L661.73 636.74L660.58 635.81C659.99 636.44 659.37 637.04 658.71 637.6C658.29 637.95 657.79 638.2 657.26 638.31C656.78 638.36 656.3 638.25 655.91 637.98C655.25 637.6 654.64 637.14 654.08 636.64L646.82 630.62L658.56 616.8L665.82 622.83C666.42 623.31 666.97 623.83 667.48 624.4C667.8 624.75 667.99 625.2 668.01 625.67C667.97 626.19 667.79 626.68 667.49 627.1C667.03 627.88 666.52 628.63 665.97 629.34L667.11 630.27L676 619.82L674.85 618.88C674.26 619.51 673.64 620.1 672.99 620.67C672.61 621.02 672.14 621.28 671.63 621.4C671.15 621.47 670.66 621.37 670.25 621.1C669.59 620.71 668.96 620.26 668.38 619.75L653.52 607.45C652.92 606.97 652.36 606.44 651.85 605.86C651.53 605.51 651.34 605.05 651.32 604.57C651.33 604.06 651.49 603.57 651.77 603.14C652 602.78 652.3 602.31 652.67 601.81L651.96 601.32L652.49 600.39Z" fill="#013D94"/>
<path fill-rule="evenodd" clip-rule="evenodd" d="M379.25 749.01C378.84 748.55 378.47 748.09 378.12 747.57C377.78 747.05 377.38 746.58 376.98 746.01C376.57 745.43 376.04 744.66 375.52 743.78L374.43 741.93C374.04 741.25 373.64 740.59 373.28 739.92C372.91 739.26 372.55 738.62 372.23 738.02C371.91 737.41 371.66 736.93 371.46 736.57C372.75 736.19 373.98 735.65 375.13 734.94C376.14 734.28 377 733.42 377.66 732.41C378.35 731.34 378.76 730.11 378.84 728.84C379.09 726.28 377.93 723.78 375.81 722.31C374.81 721.64 373.69 721.16 372.52 720.86C370.99 720.48 369.44 720.23 367.86 720.11L355.1 719L354.95 720.45C355.99 720.6 356.8 720.76 357.4 720.91C357.9 721.02 358.36 721.26 358.74 721.6C359.04 721.98 359.22 722.45 359.25 722.93C359.28 723.73 359.25 724.52 359.16 725.31L357.49 744.29C357.43 745.11 357.28 745.92 357.05 746.71C356.95 747.21 356.69 747.65 356.31 747.99C355.85 748.28 355.31 748.44 354.77 748.46C353.89 748.51 353.02 748.51 352.15 748.46L352 749.91L365.52 751.09L365.67 749.65C364.81 749.55 363.96 749.38 363.13 749.16C362.62 749.06 362.15 748.81 361.78 748.45C361.46 748.03 361.28 747.53 361.27 747C361.22 746.21 361.22 745.42 361.27 744.63L361.94 737.21L363.79 737.37C364.56 737.41 365.32 737.54 366.06 737.76C366.56 737.88 367.03 738.13 367.41 738.48C367.78 738.8 368.09 739.19 368.32 739.62C368.75 740.4 369.22 741.27 369.77 742.21L371.36 745.1C371.91 746.04 372.43 746.93 372.96 747.78C373.62 748.77 374.39 749.67 375.26 750.47C375.99 751.12 376.83 751.64 377.73 752.02C378.67 752.38 379.65 752.61 380.64 752.71C380.96 752.8 381.29 752.86 381.62 752.9L382.67 753L383 751.66C382.34 751.47 381.72 751.18 381.15 750.8C380.42 750.32 379.78 749.71 379.25 749.01ZM370.79 734.88C370.31 735.17 369.8 735.4 369.26 735.57C368.65 735.74 368.02 735.84 367.38 735.86C366.57 735.93 365.75 735.93 364.94 735.86L362.19 735.65L363.19 724.09C363.23 723.6 363.32 723.11 363.45 722.64C363.55 722.35 363.74 722.11 364.01 721.96C364.32 721.82 364.67 721.75 365.01 721.75C365.63 721.7 366.24 721.7 366.86 721.75C367.85 721.83 368.83 722.04 369.77 722.35C370.67 722.67 371.5 723.16 372.22 723.8C372.94 724.4 373.5 725.18 373.83 726.07C374.21 727.12 374.34 728.25 374.21 729.36C374.15 730.53 373.8 731.66 373.21 732.67C372.59 733.58 371.76 734.34 370.79 734.88Z" fill="#013D94"/>
<path fill-rule="evenodd" clip-rule="evenodd" d="M708.701 558.02C708.021 556.38 707.041 554.88 705.821 553.59C704.511 552.16 702.981 550.95 701.281 550.02C699.691 549.15 697.971 548.54 696.181 548.22C694.511 547.93 692.8 547.93 691.13 548.22C689.5 548.52 687.931 549.07 686.471 549.85C685.001 550.62 683.651 551.59 682.451 552.74C681.261 553.94 680.23 555.3 679.4 556.77C678.42 558.53 677.721 560.42 677.331 562.4C676.971 564.18 676.9 566 677.14 567.8C677.36 569.51 677.841 571.18 678.581 572.73C679.321 574.26 680.291 575.67 681.461 576.91C682.631 578.16 683.991 579.21 685.491 580.03C687.031 580.9 688.721 581.5 690.471 581.79C692.111 582.07 693.791 582.07 695.431 581.79C697.071 581.52 698.65 581 700.13 580.25C701.62 579.49 703.001 578.51 704.211 577.36C705.511 576.19 706.631 574.84 707.541 573.35C708.431 571.74 709.101 570.01 709.521 568.21C709.941 566.51 710.081 564.76 709.961 563.02C709.841 561.29 709.411 559.6 708.701 558.02ZM707.721 567.24C707.551 568.69 707.1 570.09 706.39 571.36C705.54 572.9 704.361 574.24 702.931 575.28C701.511 576.28 699.891 576.97 698.181 577.31C696.341 577.66 694.451 577.66 692.611 577.31C690.561 576.93 688.581 576.21 686.761 575.17C684.981 574.22 683.381 572.97 682.031 571.47C680.951 570.24 680.131 568.8 679.621 567.24C679.171 565.84 679.031 564.36 679.201 562.9C679.361 561.49 679.801 560.12 680.481 558.87C681.281 557.39 682.371 556.09 683.681 555.04C685.001 554 686.531 553.25 688.171 552.86C689.971 552.41 691.851 552.34 693.681 552.67C695.901 553.07 698.041 553.85 700.001 554.98C701.791 555.94 703.401 557.2 704.771 558.71C705.891 559.92 706.731 561.36 707.251 562.93C707.711 564.32 707.871 565.79 707.721 567.24Z" fill="#013D94"/>
<path fill-rule="evenodd" clip-rule="evenodd" d="M742.8 465.62C742.07 465.5 741.36 465.36 740.52 465.19L736.5 464.33C735.96 464.24 735.429 464.1 734.909 463.91C734.579 463.81 734.3 463.6 734.1 463.32C733.91 462.99 733.81 462.6 733.83 462.21C733.79 461.57 733.79 460.94 733.83 460.3L732.379 460L729.689 472.68L731.139 472.98C731.499 471.76 731.82 470.79 732.09 470.1C732.29 469.55 732.61 469.06 733.02 468.65C733.38 468.35 733.84 468.19 734.3 468.2C734.97 468.23 735.64 468.32 736.28 468.48L739.98 469.27C740.53 469.36 741.05 469.54 741.53 469.81C741.86 469.98 742.14 470.25 742.31 470.59C742.48 470.93 742.599 471.29 742.669 471.66C742.819 472.37 742.889 473.1 742.889 473.84C742.879 474.74 742.78 475.63 742.59 476.51C742.23 478.32 741.56 480.04 740.61 481.62C738.98 484.27 736.47 486.27 733.52 487.27C732.18 487.73 730.78 488.01 729.36 488.09C727.95 488.17 726.539 488.06 725.159 487.77C723.179 487.36 721.29 486.59 719.59 485.51C716.56 483.57 714.54 480.4 714.07 476.84C713.78 474.95 713.86 473.03 714.29 471.16C714.51 470.04 714.85 468.93 715.3 467.87C715.7 466.9 716.28 466.01 717 465.24C717.76 464.48 718.659 463.88 719.659 463.48C720.909 463.04 722.23 462.82 723.55 462.82L723.649 461.26C722.079 461.14 720.65 461.01 719.32 460.88C717.99 460.75 716.97 460.64 716.11 460.52C715.85 461.04 715.49 461.78 715.07 462.74C714.65 463.71 714.18 464.81 713.72 466.07C713.25 467.4 712.86 468.76 712.57 470.14C712.16 472.04 711.98 473.98 712 475.92C712.01 477.81 712.27 479.69 712.78 481.51C713.28 483.27 714.05 484.94 715.07 486.46C716.12 487.99 717.45 489.3 719 490.32C720.72 491.45 722.639 492.24 724.659 492.64C726.829 493.12 729.07 493.12 731.24 492.64C733.34 492.19 735.32 491.28 737.02 489.97C738.83 488.57 740.36 486.83 741.52 484.86C742.82 482.61 743.75 480.17 744.28 477.64C744.56 476.29 744.75 474.92 744.84 473.55C744.94 472.1 745 470.82 745 469.52C745 468.22 745 466.99 745 465.84C744.26 465.83 743.53 465.75 742.8 465.62Z" fill="#013D94"/>
<path fill-rule="evenodd" clip-rule="evenodd" d="M747.92 443.06C747.78 443.65 747.49 444.19 747.09 444.64C746.68 445 746.16 445.19 745.62 445.19C744.85 445.22 744.07 445.17 743.3 445.04L736.8 444.24C736.46 444.2 736.13 444.14 735.8 444.07C735.53 443.97 735.26 443.85 735 443.71C734.7 443.54 734.41 443.34 734.15 443.12C732.85 442.09 731.68 441.15 730.59 440.27L727.5 437.73L724.46 435.09C723.73 434.46 723.14 433.91 722.69 433.44C721.91 432.64 721.43 431.6 721.33 430.48C721.29 429.72 721.29 428.96 721.33 428.19L719.86 428L718.4 439.82L719.86 440.02C720.08 438.98 720.29 438.18 720.46 437.64C720.57 437.22 720.79 436.85 721.09 436.54C721.37 436.39 721.71 436.39 721.99 436.54C722.48 436.76 722.94 437.02 723.38 437.34C724.08 437.81 724.84 438.36 725.69 438.98C726.54 439.6 727.37 440.21 728.25 440.89L730.86 442.91L733.31 444.89L727.3 447.85C725.26 448.86 723.23 449.8 721.24 450.69C720.9 450.89 720.53 451.03 720.14 451.13C719.9 451.23 719.62 451.18 719.42 451.01C719.19 450.71 719.05 450.35 719.03 449.96C718.95 449.22 718.92 448.48 718.93 447.73L717.46 447.54L716 459.81L717.46 460C717.6 459.34 717.78 458.68 718.01 458.05C718.17 457.57 718.43 457.13 718.77 456.75C719.15 456.34 719.6 455.99 720.1 455.73C720.64 455.4 721.36 455.05 722.21 454.63C723.67 453.9 725.03 453.25 726.29 452.62L729.92 450.87C731.1 450.32 732.28 449.76 733.46 449.22C733.88 449.01 734.32 448.81 734.76 448.65C735.05 448.54 735.33 448.46 735.63 448.4C735.88 448.37 736.15 448.37 736.4 448.4L742.84 449.2C743.64 449.27 744.43 449.41 745.2 449.62C745.69 449.73 746.12 450.01 746.41 450.42C746.71 450.91 746.87 451.47 746.85 452.05C746.87 453.01 746.84 453.96 746.75 454.92L748.21 455.11L750 440.33L748.54 440.14C748.38 441.12 748.18 442.1 747.92 443.06Z" fill="#013D94"/>
<path fill-rule="evenodd" clip-rule="evenodd" d="M331.25 714.12L320.71 711.13L320.28 712.58C321.29 712.99 322.1 713.32 322.66 713.61C323.09 713.81 323.47 714.1 323.76 714.48C323.92 714.78 323.92 715.15 323.76 715.46C323.52 715.98 323.23 716.46 322.88 716.91C322.33 717.66 321.66 718.59 320.82 719.66C319.99 720.73 319.09 721.9 318.07 723.14C317.04 724.39 316.01 725.71 314.96 727.02C313.9 728.34 312.81 729.6 311.79 730.84L308.85 734.27C308.6 732.35 308.38 730.45 308.14 728.57C307.89 726.69 307.71 724.87 307.5 723.13C307.3 721.39 307.12 719.74 306.96 718.24C306.8 716.73 306.62 715.35 306.51 714.25C306.39 713.15 306.3 712.13 306.24 711.44C306.2 711.01 306.2 710.59 306.24 710.17C306.26 709.89 306.42 709.64 306.67 709.51C307.04 709.38 307.44 709.34 307.83 709.41C308.56 709.47 309.29 709.57 310.01 709.73L310.41 708.28L298.85 705L298.38 706.33L298 706.24C298.62 706.48 299.22 706.76 299.8 707.07C300.26 707.3 300.67 707.61 301.01 708C301.35 708.39 301.6 708.86 301.74 709.37C301.97 710.09 302.12 710.82 302.21 711.57C302.43 713.44 302.68 715.5 302.94 717.78C303.21 720.05 303.49 722.41 303.78 724.88C304.07 727.35 304.35 729.84 304.62 732.35C304.88 734.85 305.16 737.27 305.39 739.58L306.86 740C307.96 738.55 309.09 737.11 310.28 735.66L313.84 731.32C315.03 729.87 316.19 728.5 317.3 727.2C318.42 725.89 319.44 724.66 320.38 723.56L322.85 720.67L324.42 718.85C325.19 717.96 325.88 717.28 326.38 716.78C326.83 716.34 327.36 715.99 327.94 715.74C328.47 715.54 329.04 715.45 329.61 715.48C330.37 715.51 331.12 715.6 331.87 715.75L332 715.27L331.08 715.01L331.25 714.12Z" fill="#013D94"/>
<path fill-rule="evenodd" clip-rule="evenodd" d="M299 705.36L286.16 701L285.69 702.45C286.68 702.87 287.46 703.24 288.06 703.56C288.54 703.8 288.94 704.16 289.22 704.62C289.46 705.06 289.53 705.58 289.41 706.07C289.27 706.85 289.05 707.62 288.76 708.36L282.55 726.43C282.31 727.2 282 727.95 281.62 728.67C281.41 729.12 281.04 729.48 280.59 729.7C280.09 729.89 279.54 729.92 279.02 729.8C278.16 729.65 277.31 729.45 276.48 729.19L276 730.64L288.84 735L289.32 733.55C288.52 733.24 287.74 732.88 286.98 732.49C286.5 732.26 286.09 731.9 285.79 731.46C285.58 731 285.52 730.49 285.62 730C285.77 729.2 286 728.4 286.29 727.64L292.49 709.6C292.73 708.83 293.04 708.09 293.42 707.38C293.64 706.93 294 706.58 294.45 706.37C294.95 706.2 295.49 706.16 296.01 706.27C296.73 706.39 297.44 706.55 298.14 706.75L298.54 705.37L299 705.36Z" fill="#013D94"/>
<path fill-rule="evenodd" clip-rule="evenodd" d="M349.01 743.54C348.52 744.1 347.94 744.58 347.31 744.98C346.87 745.3 346.37 745.54 345.83 745.67C345.13 745.8 344.41 745.83 343.7 745.75C342.61 745.66 341.52 745.51 340.44 745.31C339.1 745.06 337.94 744.81 337.05 744.56C336.32 744.41 335.63 744.11 335.03 743.67C334.61 743.26 334.35 742.72 334.29 742.15C334.2 741.28 334.26 740.41 334.46 739.56L336.2 730.95L341.32 732.05C342.46 732.25 343.36 732.45 344.01 732.63C344.55 732.75 345.06 733 345.49 733.35C345.82 733.68 346.02 734.11 346.07 734.57C346.18 735.24 346.23 735.93 346.21 736.62L347.9 736.94L349.68 728.02L348.01 727.7C347.78 728.31 347.5 728.9 347.16 729.45C346.95 729.87 346.6 730.2 346.17 730.4C345.65 730.58 345.09 730.64 344.54 730.57C343.61 730.5 342.68 730.37 341.76 730.17L336.58 729.19L338.7 718.7C338.74 718.36 338.83 718.04 338.96 717.73C339.06 717.54 339.27 717.41 339.5 717.42C339.89 717.43 340.28 717.47 340.67 717.56L345.11 718.39C346.1 718.58 347.09 718.81 348.07 719.1C348.66 719.24 349.23 719.49 349.74 719.83C350.09 720.08 350.36 720.41 350.51 720.81C350.68 721.18 350.83 721.56 350.94 721.96C351.06 722.4 351.15 722.86 351.2 723.32C351.29 723.92 351.34 724.52 351.35 725.12L353.07 725.23C353.16 724.6 353.23 723.91 353.32 723.22C353.41 722.53 353.5 721.86 353.59 721.22C353.67 720.59 353.75 719.99 353.84 719.49C353.93 718.98 353.96 718.6 354 718.31L330.72 714L330.62 714.49L331.65 714.78L331.37 715.69C331.87 715.82 332.37 715.98 332.85 716.17C333.34 716.33 333.78 716.63 334.11 717.02C334.41 717.43 334.54 717.95 334.48 718.45C334.44 719.25 334.33 720.05 334.15 720.84L330.45 739.31C330.33 740.07 330.12 740.81 329.83 741.53C329.68 742.02 329.35 742.43 328.9 742.7C328.36 742.94 327.77 743.05 327.18 743.03C326.22 743.01 325.25 742.93 324.3 742.8L324 744.23L349.16 749C349.32 748.71 349.51 748.34 349.74 747.88C349.96 747.41 350.23 746.89 350.49 746.33C350.76 745.77 351.01 745.19 351.28 744.63C351.54 744.07 351.77 743.54 351.97 743.05L352.45 741.92L350.74 741.42C350.23 742.18 349.66 742.89 349.01 743.54Z" fill="#013D94"/>
<path fill-rule="evenodd" clip-rule="evenodd" d="M447.26 720.56C447.13 719.64 447.03 718.77 446.97 718L445.76 718.13C445.58 718.39 445.38 718.64 445.16 718.87C444.98 719.06 444.75 719.2 444.5 719.29C444.15 719.4 443.79 719.47 443.43 719.49L423.08 721.29C422.68 721.33 422.28 721.33 421.88 721.29C421.56 721.28 421.25 721.2 420.97 721.04C420.64 720.87 420.36 720.63 420.13 720.35L419 720.45C419 721.79 419.1 723.2 419.1 724.66C419.1 726.12 419.1 727.56 419.1 729.01L420.77 728.86C420.97 727.79 421.17 726.91 421.36 726.21C421.49 725.62 421.7 725.05 422 724.52C422.17 724.14 422.46 723.83 422.82 723.62C423.33 723.31 423.89 723.11 424.47 723.02C425.48 722.84 426.5 722.71 427.52 722.63L431.16 722.32L433.18 745.64C433.27 746.4 433.27 747.16 433.18 747.92C433.16 748.42 432.96 748.9 432.62 749.26C432.18 749.64 431.66 749.91 431.1 750.03C430.15 750.27 429.18 750.44 428.2 750.55L428.32 752L443.02 750.73L442.91 749.28C441.9 749.35 440.9 749.35 439.9 749.28C439.3 749.26 438.72 749.09 438.2 748.79C437.8 748.48 437.52 748.04 437.41 747.54C437.22 746.81 437.1 746.06 437.06 745.31L435.03 722L438.94 721.65C439.91 721.58 440.72 721.52 441.34 721.52C441.83 721.49 442.31 721.53 442.79 721.62C443.13 721.67 443.45 721.79 443.73 721.98C444 722.15 444.24 722.37 444.44 722.62C444.7 722.87 444.91 723.17 445.08 723.49C445.31 723.89 445.5 724.31 445.67 724.75C445.87 725.27 446.09 725.89 446.31 726.64L448 726.25C447.81 725.4 447.65 724.44 447.49 723.46C447.33 722.47 447.39 721.5 447.26 720.56Z" fill="#013D94"/>
<path fill-rule="evenodd" clip-rule="evenodd" d="M466.39 715.16L466.66 716.56C467.47 716.47 468.27 716.42 469.08 716.41C469.5 716.39 469.91 716.48 470.29 716.66C470.53 716.86 470.64 717.17 470.58 717.47C470.52 717.99 470.41 718.5 470.26 719C470.03 719.78 469.76 720.64 469.45 721.58C469.13 722.52 468.81 723.47 468.44 724.5C468.08 725.53 467.69 726.48 467.33 727.48C466.97 728.49 466.6 729.4 466.24 730.3L461.63 725.67C460.09 724.1 458.57 722.54 457.15 720.97C456.86 720.71 456.6 720.41 456.38 720.09C456.22 719.89 456.18 719.62 456.28 719.38C456.49 719.09 456.79 718.87 457.14 718.75C457.79 718.43 458.48 718.17 459.18 717.97L458.92 716.56L447 718.82L447.29 720.23C447.95 720.14 448.61 720.11 449.28 720.14C449.78 720.16 450.27 720.27 450.73 720.47C451.23 720.7 451.69 721 452.09 721.37C452.55 721.78 453.12 722.33 453.76 722.99L456.87 726.12L459.64 728.94L462.25 731.67C462.66 732.09 462.96 732.44 463.18 732.71C463.37 732.93 463.53 733.17 463.66 733.43C463.78 733.65 463.86 733.89 463.91 734.14L465.14 740.28C465.3 741.03 465.4 741.78 465.43 742.55C465.49 743.04 465.36 743.55 465.07 743.96C464.68 744.37 464.18 744.67 463.62 744.82C462.73 745.12 461.83 745.38 460.92 745.59L461.2 747L475.51 744.28L475.23 742.87C474.27 743.02 473.3 743.11 472.33 743.14C471.74 743.19 471.15 743.09 470.61 742.86C470.17 742.6 469.83 742.21 469.65 741.74C469.39 741.03 469.2 740.29 469.07 739.55L467.84 733.36C467.77 733.05 467.73 732.72 467.72 732.4C467.68 732.13 467.68 731.85 467.72 731.57C467.79 731.25 467.89 730.93 468.01 730.61C468.58 729.12 469.1 727.79 469.59 726.53C470.08 725.26 470.56 724.09 471.04 722.95L472.49 719.38C472.79 718.66 473.13 717.96 473.52 717.28C473.77 716.8 474.11 716.37 474.52 716C474.91 715.64 475.37 715.35 475.87 715.16C476.43 714.93 477.14 714.66 478 714.41L477.72 713L466.39 715.16Z" fill="#013D94"/>
<path fill-rule="evenodd" clip-rule="evenodd" d="M402.02 739.35C401.38 738.68 400.66 738.08 399.87 737.57C399.08 737.04 398.26 736.57 397.41 736.14L394.99 734.97C393.76 734.4 392.58 733.74 391.47 732.99C390.55 732.39 389.78 731.61 389.2 730.72C388.66 729.79 388.41 728.74 388.46 727.68C388.49 727.07 388.63 726.46 388.87 725.9C389.12 725.29 389.49 724.73 389.96 724.26C390.51 723.74 391.17 723.34 391.9 723.09C392.81 722.78 393.77 722.65 394.74 722.7C395.75 722.7 396.75 722.93 397.66 723.36C398.4 723.7 399.03 724.22 399.51 724.85C399.98 725.48 400.36 726.17 400.62 726.89C400.91 727.62 401.14 728.35 401.31 729.11L403.1 728.94C402.99 727.91 402.89 726.99 402.81 726.22C402.74 725.45 402.65 724.8 402.57 724.1C402.5 723.4 402.45 722.9 402.44 722.36C401.3 721.97 400.13 721.65 398.95 721.39C397.9 721.18 396.82 721.06 395.74 721.02C394.19 720.94 392.63 721.12 391.14 721.53C389.88 721.87 388.7 722.44 387.67 723.21C386.73 723.92 385.96 724.8 385.42 725.81C384.41 727.7 384.28 729.9 385.06 731.89C385.41 732.72 385.92 733.49 386.56 734.16C387.17 734.84 387.87 735.45 388.64 735.97C389.38 736.48 390.14 736.96 390.93 737.4L393.06 738.47C394.03 738.97 394.95 739.45 395.79 739.89C396.57 740.35 397.29 740.89 397.95 741.49C398.55 742.03 399.03 742.67 399.38 743.37C399.72 744.14 399.87 744.97 399.83 745.8C399.8 746.85 399.49 747.87 398.92 748.77C398.37 749.6 397.56 750.26 396.61 750.66C395.47 751.1 394.24 751.31 393.01 751.26C392.01 751.23 391.02 751.02 390.1 750.65C389.29 750.31 388.56 749.82 387.94 749.22C387.33 748.67 386.8 748.04 386.36 747.35C385.97 746.71 385.63 746.04 385.34 745.34C385.08 744.73 384.86 744.09 384.7 743.45L383 743.7C383 744.32 383.14 745 383.24 745.71C383.35 746.43 383.44 747.14 383.54 747.87C383.65 748.6 383.77 749.2 383.87 749.75C383.95 750.18 384.06 750.6 384.2 751.01C384.43 751.11 384.77 751.24 385.16 751.44C385.65 751.66 386.15 751.84 386.66 751.99C387.41 752.23 388.16 752.43 388.93 752.59C389.91 752.81 390.92 752.94 391.93 752.99C393.55 753.05 395.16 752.86 396.72 752.45C398.09 752.11 399.38 751.51 400.52 750.71C401.55 749.97 402.4 749.03 403.01 747.95C403.61 746.87 403.95 745.66 404 744.43C404.02 743.46 403.85 742.49 403.49 741.58C403.14 740.76 402.64 740 402.02 739.35Z" fill="#013D94"/>
<path fill-rule="evenodd" clip-rule="evenodd" d="M416.43 749.95C415.89 749.91 415.37 749.73 414.94 749.42C414.57 749.08 414.32 748.63 414.23 748.14C414.08 747.36 414 746.56 414 745.76L413.25 727.07C413.17 726.28 413.17 725.5 413.25 724.72C413.28 724.24 413.49 723.78 413.85 723.44C414.28 723.1 414.79 722.88 415.34 722.78C416 722.65 416.83 722.54 417.97 722.42V721L404 721.48V722.91C404.89 722.91 405.79 722.97 406.67 723.09C407.21 723.14 407.73 723.32 408.17 723.62C408.55 723.95 408.8 724.4 408.87 724.89C409.02 725.65 409.1 726.42 409.11 727.19L409.78 745.92C409.86 746.71 409.86 747.5 409.78 748.28C409.73 748.78 409.51 749.24 409.15 749.61C408.73 749.96 408.21 750.18 407.66 750.25C407 750.36 406.17 750.48 405.02 750.58V752L419 751.53V750.11C418.14 750.11 417.28 750.05 416.43 749.95Z" fill="#013D94"/>
<path fill-rule="evenodd" clip-rule="evenodd" d="M400.5 0C179.35 0 0 179.114 0 400C0 620.89 179.35 800 400.5 800C621.65 800 801 620.87 801 400C801 179.129 621.66 0 400.5 0ZM400.5 786.51C186.77 786.51 13.5 613.44 13.5 400C13.5 186.564 186.77 13.486 400.5 13.486C614.23 13.486 787.51 186.578 787.51 400C787.51 613.42 614.2 786.51 400.5 786.51Z" fill="#013D94"/>
<path fill-rule="evenodd" clip-rule="evenodd" d="M413.01 636.23L427.58 614.07V636.23H413.01ZM461.4 611.04C456.75 611.04 452.97 614.81 452.97 619.46C452.97 624.11 456.75 627.88 461.4 627.88C466.06 627.88 469.84 624.11 469.84 619.46C469.82 614.82 466.06 611.06 461.4 611.04ZM677 400C677 552.42 553.21 676 400.5 676C247.79 676 124 552.42 124 400C124 247.576 247.8 124 400.5 124C553.2 124 677 247.562 677 400ZM371.12 319.83C438.11 305.05 537.49 298.77 537.49 298.77L567.9 222.709C567.9 222.709 509.84 228.475 429.96 249.696C350.08 270.917 263.76 306.42 271.1 370.52C278.32 433.22 365.19 448.7 365.19 448.7C257.66 389.53 304.17 334.51 371.12 319.83ZM288.37 420.27C285.77 415.8 256.74 396.04 252.6 360.96C248.45 325.89 256.42 307.1 319.03 271.234C381.64 235.366 504.28 209.099 504.28 209.099L521.8 164.812C521.8 164.812 448.38 177.081 362.04 215.399C275.7 253.718 235.78 285.635 229.93 333.48C224.09 381.33 288.37 420.21 288.37 420.21V420.27ZM346.14 603.98H331.96V609.6H339.05V648.81H346.14V603.92V603.98ZM397.64 619.49C397.64 610.92 390.68 603.98 382.1 603.98C373.52 603.98 366.56 610.92 366.56 619.49C366.56 628.06 373.52 635 382.1 635C382.59 635 383.05 635 383.54 635L375.37 648.93H382.59C387.24 641 395.59 627.89 396.79 624.74C397.35 623.03 397.62 621.23 397.57 619.43L397.64 619.49ZM437.14 636.28H433.65V603.83H427.58L406.25 636.21V642.17H427.58V648.8H433.57V642.17H437.07L437.14 636.28ZM477 619.49C477 610.92 470.04 603.98 461.46 603.98C452.88 603.98 445.92 610.92 445.92 619.49C445.92 628.06 452.88 635 461.46 635C461.47 635 461.47 635 461.48 635C461.95 635 462.41 635 462.92 635L454.75 648.93H461.97C466.62 641 474.97 627.89 476.15 624.74C476.72 623.03 476.99 621.23 476.93 619.43L477 619.49ZM416.26 412.1C416.26 412.1 528.91 428.47 525.25 458.52C521.6 488.56 433.69 499.92 377.48 509.42C321.27 518.92 254.89 523.84 254.89 523.84L219.29 595.77C219.29 595.77 391.88 578.47 487.13 538.28C514.57 526.65 543.57 514.42 561.03 498.94C603.92 460.89 591.04 416.65 416.26 412.1ZM382.03 611.04C377.37 611.05 373.6 614.82 373.61 619.47C373.62 624.12 377.4 627.89 382.06 627.88C386.71 627.87 390.48 624.1 390.48 619.46C390.47 614.81 386.69 611.04 382.03 611.04Z" fill="#013D94"/>
</svg>
