<?xml version="1.0" encoding="UTF-8"?>
<svg id="Layer_2" data-name="Layer 2" xmlns="http://www.w3.org/2000/svg" viewBox="0 0 223.49 223.34">
  <defs>
    <style>
      .cls-1 {
        fill: #004098;
        fill-rule: evenodd;
      }
    </style>
  </defs>
  <g id="_图层_1" data-name="图层 1">
    <g>
      <path class="cls-1" d="M199.79,112.51c-.74-2.13.06-4.58,2.33-5.42.94-.35,1.97-.46,2.96-.67,1.35.13,2.56.42,3.51,1.42,2.26,2.38,1.4,5.91-1.44,7.05-1.4.56-2.84.67-4.29.43-1.58-.26-2.58-1.39-3.07-2.82h0ZM202.39,109.5c-.77.39-1.14,1.05-1.03,1.84.1.82.54,1.37,1.35,1.63,1.2.38,2.36.13,3.5-.2.41-.11.82-.33,1.14-.6,1.12-.97.78-2.65-.64-3.12-.43-.15-.91-.17-1.36-.25-1.04.06-2.03.24-2.96.71Z"/>
      <path class="cls-1" d="M199.36,105.1c0-1.09-.27-2.19-.42-3.28-.2-1.33-.09-1.51,1.23-1.72,1.15-.19,2.3-.33,3.44-.54,1.26-.21,2.51-.44,3.77-.71,1.29-.27,1.56-.08,1.6,1.24.02.7-.05.78-.75.9-2.28.42-4.57.83-6.85,1.26-.68.12-.71.17-.62.86.11.86.23,1.73.33,2.59.02.11-.03.23-.05.37-1.19.65-1.66.26-1.68-.96Z"/>
      <path class="cls-1" d="M199.22,161.48c.5.14.88.2,1.21.35,1.02.46,1.39,1.39,1.01,2.44-.55,1.53-1.44,2.5-3.4,2.99.59-1.88.45-3.85,1.18-5.79Z"/>
      <path class="cls-1" d="M199.33,121.91c0-1,.24-1.92.65-2.81.65-1.37,1.71-2.16,3.24-2.3,1.32-.13,2.6.03,3.84.54,2.4.99,3.65,4.57,1.86,7.03-.55.76-1.29,1.16-2.21,1.24-.48.04-.64-.1-.65-.59,0-.43.02-.89.13-1.3.05-.2.29-.47.48-.51.54-.1.96-.3,1.1-.85.18-.72.21-1.45-.26-2.09-.17-.22-.39-.47-.64-.58-1.33-.55-2.7-.91-4.14-.43-1,.32-1.4.89-1.42,1.92,0,.32-.06.64-.06.96,0,.49.15.67.66.72.15.02.3.02.43.02.58,0,.66-.07.72-.63,0-.15,0-.3,0-.43.02-.35.19-.55.55-.54,1.4.05,1.4.04,1.36,1.26-.03.73-.11,1.45-.16,2.18-.04.42-.26.63-.68.6-.23,0-.46-.02-.69-.04-.84-.06-1.68-.16-2.52-.2-1.05-.06-1.13-.1-1.29-1.12-.11-.68-.21-1.37-.31-2.05Z"/>
      <path class="cls-1" d="M199.57,130.31c-.75-.09-.88-.26-.74-1.01.23-1.32.27-1.47,1.54-1.16,1.91.47,3.6-.24,5.35-.68.95-.25,1.89-.56,2.84-.83.24-.06.5-.06.92-.12-.13.8-.19,1.44-.34,2.05-.04.17-.3.34-.49.4-.76.21-1.52.38-2.28.57-.25.06-.52.12-.75.22-.43.2-.47.5-.07.78.72.5,1.44,1,2.2,1.41.63.34.79.79.63,1.43-.08.36-.17.72-.28,1.2-.28-.12-.5-.18-.67-.29-1.52-.98-3.05-1.93-4.5-2.99-.88-.64-1.82-.85-2.84-.96-.18-.02-.35,0-.53-.04Z"/>
      <path class="cls-1" d="M201.45,98.56c-2.81,0-4.42-2.43-4.23-4.52.21-2.37,1.77-4.03,4.17-4.44.94-.16,1.88-.33,2.85-.05,1.76.53,2.88,1.66,3.22,3.43.36,1.89-.5,3.34-2.05,4.36-1.25.82-2.66,1.14-3.95,1.21h0ZM199.46,93.19c-.54.61-.57,1.3-.25,2.02.31.68.85,1,1.6.96.15,0,.29,0,.48,0,1.06.06,2.07-.3,3.02-.8.37-.19.73-.49.99-.82.77-1.02.13-2.52-1.12-2.75-1.44-.27-2.74.09-3.98.79-.28.15-.53.37-.74.6Z"/>
      <path class="cls-1" d="M195.41,83.54c-.7.24-.77.2-1-.49q-.4-1.21.85-1.62c2.46-.81,4.91-1.63,7.36-2.44.17-.06.34-.09.51-.15.37-.11.62.03.74.39.21.61.41,1.21.61,1.82.14.41-.09.66-.37.9-1.2,1.05-2.41,2.1-3.6,3.17-.28.25-.7.43-.7,1.13.46-.07.83-.1,1.18-.2,1.3-.4,2.6-.83,3.9-1.24.52-.17.73-.1.85.39.31,1.22.71,1.32-.81,1.81-2.57.83-5.13,1.68-7.7,2.52-.67.22-.76.18-.95-.43-.15-.43-.26-.9-.43-1.32-.22-.57-.08-.98.38-1.38,1.31-1.15,2.61-2.32,3.91-3.48.08-.07.17-.16.26-.23.18-.18.46-.35.28-.65-.19-.32-.47-.08-.7,0-1.52.5-3.03,1.01-4.55,1.52Z"/>
      <path class="cls-1" d="M191.21,75.27c-.67-1.33-.67-1.34.71-1.92,2.41-1.01,4.83-2.01,7.25-3.02.57-.24.79-.17,1.04.4.59,1.41.88,1.3-.76,1.97-.59.24-1.17.49-1.77.75-.55.23-.65.41-.45.91.22.57.46,1.14.73,1.68.23.51.31.52.88.29.82-.36,1.65-.71,2.49-1.05.59-.23.73-.21.96.35.54,1.32,1.05,1.28-.78,2.01-2.38.95-4.72,1.96-7.09,2.94-.71.29-.78.26-1.12-.45-.6-1.27-.6-1.26.73-1.78.62-.25,1.24-.5,1.85-.77.2-.09.38-.23.59-.37-.33-.79-.63-1.52-.95-2.23-.23-.5-.34-.52-.89-.3-.8.32-1.61.67-2.41,1-.61.25-.71.2-1.01-.41Z"/>
      <path class="cls-1" d="M190.17,71.89c-1.63-.84-2.74-2.65-2.29-4.64.23-1.05.91-1.82,1.7-2.47,1.17-.94,2.5-1.58,3.98-1.86,2.02-.38,4.26,1.56,4.38,3.77.08,1.47-.67,2.38-1.96,3.17-.34-.56-.63-1.03-.91-1.51-.15-.26-.11-.5.12-.7.09-.07.18-.15.26-.23.34-.33.64-.7.44-1.23-.21-.58-.6-1.01-1.24-1.08-.31-.04-.66-.05-.95.06-1.34.43-2.56,1.11-3.54,2.15-.64.68-.69,1.32-.22,1.96.36.51.83.67,1.44.5.81-.23.82-.23,1.25.47.2.35.4.69.59,1.03-.94.92-2.02,1.14-3.06.61Z"/>
      <path class="cls-1" d="M183.69,62.58c-.18-.26-.37-.52-.55-.79-.48-.68-.48-.78.18-1.25,1.5-1.05,3-2.11,4.5-3.15.98-.68,1.95-1.37,3.02-2.13.22.27.41.46.55.67.9,1.28,1.78,2.58,2.68,3.87.35.52.33.64-.14,1.01-.21.17-.43.3-.65.44-.07.05-.17.06-.32.09-.15-.18-.32-.36-.47-.56-.43-.59-.85-1.18-1.27-1.77q-.63-.88-1.48-.27c-.31.21-.59.44-.98.74.51.69.95,1.37,1.44,2,1.02,1.3.7,1.09-.34,1.88-.09.06-.21.08-.4.16-.36-.48-.72-.96-1.07-1.44-.26-.35-.51-.71-.76-1.07-.24-.36-.51-.43-.87-.16-.45.35-.92.67-1.44,1.05.34.5.63.92.91,1.35.34.51.7,1.01,1.03,1.52.33.52.31.61-.19,1-.07.06-.14.1-.21.16-.5.33-.64.32-1-.18-.74-1.04-1.46-2.1-2.19-3.15Z"/>
      <path class="cls-1" d="M179.98,57.42c-.96-1.3-.97-1.09.3-2.02,1.57-1.16,3.15-2.3,4.71-3.46.64-.47.65-.54.18-1.17-.31-.45-.64-.9-1.04-1.45.52-.38.95-.7,1.59-1.17.11.2.18.41.31.56,1.2,1.64,2.4,3.29,3.61,4.93.42.57.41.68-.16,1.13-.09.07-.18.15-.28.21-.52.36-.63.35-1-.13-.3-.4-.58-.8-.89-1.19-.08-.11-.21-.18-.37-.33-.72.52-1.42,1.02-2.13,1.52-1.25.91-2.49,1.82-3.73,2.73-.61.44-.68.43-1.12-.15Z"/>
      <path class="cls-1" d="M175.23,51.85c-1.32-1.42-2.62-2.82-3.9-4.2.3-.57,6.3-6.48,7.1-6.98.44.43.91.9,1.4,1.4-.24.27-.41.46-.59.65-1.56,1.52-3.12,3.03-4.69,4.56-.11.1-.21.2-.32.3-.31.29-.35.55-.03.88.57.58,1.11,1.19,1.66,1.79.53.56.53.59-.02,1.1-.17.16-.35.29-.62.51Z"/>
      <path class="cls-1" d="M164.47,40.86c2.57-1.52,5.15-3.03,7.72-4.57.44-.27.77-.25,1.16.08,1.22,1,1.24.99.64,2.41-1.09,2.56-2.18,5.12-3.28,7.67-.06.15-.2.26-.36.45-.23-.16-.37-.26-.51-.36q-.94-.77-.46-1.93c.3-.71.25-.9-.36-1.42-.45-.41-.91-.8-1.36-1.23-.34-.31-.7-.37-1.11-.14-.05.04-.1.06-.16.08-1.3.66-1.34.65-2.41-.62.17-.15.3-.31.49-.43h0ZM169.07,40.32c-.26.17-.36.43-.12.67.32.32.67.63,1.04.9.11.08.42.06.47,0,.45-.83.88-1.69,1.25-2.42-.02-.44-.28-.58-.57-.41-.7.41-1.39.84-2.07,1.28Z"/>
      <path class="cls-1" d="M159.04,34.99c.72-1.88,1.81-3.47,3.66-4.35,2.23-1.06,4.91.31,5.26,2.86.11.8-.25,1.52-.79,2.23-.31-.19-.53-.33-.75-.47-.79-.52-.79-.52-.58-1.42.13-.56.06-1.1-.47-1.47-.53-.37-1.06-.45-1.63-.11-.31.2-.65.41-.9.67-.79.86-1.48,1.8-1.91,2.89-.13.31-.16.67-.2,1.01-.1.69.26,1.13.85,1.37.57.24,1.14.18,1.59-.31.14-.15.3-.28.51-.47.44.29.88.55,1.3.85.27.18.27.43.06.67-.6.7-1.28,1.24-2.28,1.26-2.43.03-4.83-2.34-3.72-5.21Z"/>
      <path class="cls-1" d="M154.81,35.62c1.18-2.03,2.28-3.95,3.39-5.85.42-.72.85-1.45,1.26-2.18.21-.37.47-.5.85-.27.39.23.78.47,1.23.76-1.66,2.87-3.29,5.67-4.97,8.57-.62-.36-1.15-.67-1.76-1.03Z"/>
      <path class="cls-1" d="M146.29,31.29q-1.73-.67-.97-2.23c1.08-2.19,2.14-4.38,3.22-6.57.42-.87.46-.89,1.29-.48.53.25,1.04.53,1.57.77.4.18.44.45.36.85-.34,1.67-.67,3.35-1,5.04-.06.27-.13.54-.18.79.4.31.56.03.76-.18,1.02-1.16,2.04-2.31,3.06-3.47q.95-1.1,2.27-.47c.49.23.97.47,1.52.75-1.47,2.99-2.88,5.91-4.3,8.81-.18,0-.27,0-.34-.03-1.75-.81-1.45-.67-.76-2.11.64-1.34,1.31-2.65,1.96-3.99.06-.14.06-.31.1-.46-.37-.2-.53.05-.69.23-1.23,1.31-2.45,2.64-3.7,3.96-.2.21-.54.51-.75.46-.41-.07-.79-.35-1.14-.59-.09-.06-.09-.32-.07-.48.16-.94.33-1.89.51-2.83.18-1.05.38-2.11.56-3.17,0-.06-.06-.15-.09-.22-.37-.09-.45.16-.56.41-.71,1.49-1.42,2.99-2.14,4.47-.14.27-.32.52-.48.76Z"/>
      <path class="cls-1" d="M142.4,29.8c-1.34-.55-2.7-1.07-4.04-1.62-.57-.23-.6-.27-.37-.81,1.09-2.63,2.18-5.26,3.28-7.87.32-.78.36-.76,1.17-.43,1.37.55,2.74,1.09,4.12,1.65.65.26.67.3.4.95-.35.89-.39.91-1.26.55-.86-.35-1.72-.69-2.59-1.04-.05-.02-.11,0-.3.02-.24.55-.54,1.14-.77,1.75-.14.35.15.52.43.64.67.27,1.34.54,2.01.81.24.1.46.22.74.34-.04.22-.05.42-.11.61-.33.91-.39.92-1.32.54-.62-.25-1.23-.51-1.86-.74-.63-.24-.75-.19-1.02.39-.15.31-.28.64-.41.95-.28.66-.22.79.42,1.06.75.31,1.51.62,2.26.93.9.37.94.48.51,1.32-.06.12-.16.23-.29.43-.35-.15-.68-.3-1.03-.43Z"/>
      <path class="cls-1" d="M129.85,24.71c.32-1.12.64-2.24.97-3.35.48-1.58.98-3.16,1.48-4.73.2-.67.26-.69.91-.48.38.12.74.27,1.16.43-.29,1-.55,1.91-.81,2.83-.06.19-.09.4-.16.59-.13.35.05.57.35.67.69.23,1.4.42,2.07.66.41.14.6.03.72-.36.25-.83.51-1.65.78-2.49.1-.3.22-.58.36-.95.62.21,1.17.42,1.79.63-.88,3.21-1.81,6.28-2.82,9.38-.43-.11-.74-.18-1.03-.27-.22-.07-.42-.19-.71-.32.07-.31.12-.62.2-.91.2-.69.43-1.39.62-2.09.2-.72.15-.84-.55-1.09-.6-.22-1.22-.4-1.81-.62-.39-.15-.62-.04-.74.34-.24.74-.47,1.49-.7,2.24-.1.33-.21.66-.32,1-.58.11-1.05-.15-1.53-.3-.42-.14-.32-.49-.23-.8Z"/>
      <path class="cls-1" d="M126.84,91.09c-2.43-1.37-4.87-2.71-7.33-4.04-2.04-1.11-4.1-2.18-6.15-3.27-1-.54-1.97-1.13-2.98-1.64-.63-.32-.82-.77-.81-1.47.04-2.87,0-5.76,0-8.64s.02-5.88,0-8.82c0-.63.25-.94.77-1.21,1.52-.79,3.02-1.61,4.53-2.43,1.48-.81,2.94-1.65,4.41-2.47,2-1.13,3.99-2.25,6-3.38.22-.13.47-.23.67-.39.78-.58,1.5-.53,2.33-.06,2.66,1.5,5.34,2.94,8.02,4.38,1.82.98,3.64,1.94,5.46,2.91.92.49,1.83,1.01,2.76,1.5.46.24.67.57.67,1.11-.02,5.85-.02,11.7,0,17.55,0,.58-.25.89-.73,1.16-2.12,1.16-4.22,2.33-6.32,3.51-2.2,1.25-4.38,2.52-6.58,3.77-1.18.67-2.39,1.29-3.59,1.97-.41.23-.72.19-1.13-.04Z"/>
      <path class="cls-1" d="M122.18,18.43c.28-.83.61-1.63,1.15-2.33,1.08-1.38,3.4-1.6,4.77-.81,1.04.59,1.74,1.36,1.84,2.58.03.37.06.76-.32,1.07-.28-.04-.59-.08-.9-.14-.81-.14-.82-.14-.92-.95-.07-.6-.37-1.05-.95-1.24-.62-.19-1.23-.13-1.66.42-.26.3-.49.66-.64,1.04-.47,1.2-.62,2.47-.49,3.76.08.79.59,1.33,1.37,1.47.63.12,1.16-.17,1.51-.91.21-.47.49-.59.96-.44.38.12.78.2,1.15.29.09.97-.48,1.92-1.39,2.35-2.24,1.07-5.1-.16-5.66-2.52-.28-1.2-.2-2.42.18-3.61Z"/>
      <path class="cls-1" d="M118.01,166.41c-.09-1.14.43-2.02,1.4-2.38,1.01-.37,2.04-.42,3.08-.11,1.59.47,2.27,2.24,1.37,3.63-.37.57-.87,1.09-1.36,1.58-.55.55-1.16,1.04-1.75,1.57-.21.18-.4.41-.62.64.45.43.94.22,1.37.26.43.03.88,0,1.31,0h1.42v1.03c-.63.21-5.02.28-6.33.08-.2-.84-.19-1.55.52-2.16.86-.74,1.67-1.53,2.47-2.34.4-.41.78-.87,1.08-1.36.4-.66.19-1.37-.39-1.64-.56-.27-1.16,0-1.5.65-.09.18-.18.36-.27.55h-1.81Z"/>
      <path class="cls-1" d="M110.59,170.69c.5,0,.91,0,1.3,0,.38,0,.67.08.87.44.23.41.59.69,1.07.6.53-.09.83-.45,1.01-.97.22-.66.17-1.27-.11-1.87-.34-.75-1.23-.93-1.68-.26-.46.68-.99.68-1.65.53-.19-.05-.4-.05-.59-.07-.27-.73-.23-2.51.08-4.91.6-.23,4.57-.28,5.54-.06.02.13.04.27.04.42,0,.17-.02.34-.04.61h-1.83c-.43,0-.87,0-1.31,0-.42,0-.67.18-.68.61-.02.43,0,.86,0,1.36.25-.02.43-.04.62-.06.55-.04,1.1-.17,1.63-.09,1.03.15,1.81.73,2.01,1.79.13.73.16,1.52.05,2.25-.13.89-.72,1.5-1.61,1.77-1.12.33-2.25.38-3.34-.04-.86-.31-1.34-.97-1.35-2.04Z"/>
      <path class="cls-1" d="M110.2,24.42c-1.37.18-1.42.12-1.43-1.25,0-2.56-.03-5.11-.04-7.67,0-.31.03-.63.05-1.02.68-.11,1.33-.28,1.98-.31,1.07-.07,2.15-.07,3.23-.1.63-.02.73.08.79.75.07.93-.03,1.06-.95,1.13-.76.06-1.51.12-2.26.15-.43.02-.63.18-.61.64.02.48,0,.97,0,1.51,1.02,0,1.85.03,2.69,0,.75-.04.86.02.9.67.06.86-.09,1.06-.8,1.11-.69.04-1.39.06-2.08.13-.6.06-.67.15-.67.78,0,.87.02,1.74,0,2.62,0,.74-.06.79-.77.88Z"/>
      <path class="cls-1" d="M108.74,121.97c-1.36-.72-2.74-1.4-4.09-2.13-1.53-.82-3.05-1.69-4.58-2.51-2.74-1.47-5.47-2.94-8.23-4.37-.48-.25-.56-.57-.55-1.04,0-3.72,0-7.45,0-11.17,0-2.24.02-4.48-.02-6.72,0-.56.16-.87.67-1.16,3-1.65,5.98-3.36,8.96-5.04,2.43-1.37,4.88-2.7,7.31-4.07.38-.21.67-.18,1.05.03,2.15,1.19,4.33,2.37,6.51,3.52,2.02,1.08,4.08,2.11,6.1,3.19,1.43.77,2.84,1.59,4.26,2.38.43.23.59.55.58,1.04-.02,2.94,0,5.88,0,8.82s-.02,5.81.02,8.72c0,.68-.24,1.03-.84,1.34-2.56,1.36-5.11,2.75-7.64,4.18-2.94,1.65-5.86,3.33-8.78,5-.27.15-.46.13-.72,0Z"/>
      <path class="cls-1" d="M103.04,166.51c.3-1.71,1.07-2.68,3.11-2.76.43,0,.89-.02,1.29.09,1.4.41,2,1.14,2.16,2.82.14,1.39.12,2.78-.21,4.16-.32,1.36-1.17,2.14-2.57,2.15-.74.02-1.51-.05-2.23-.23-.9-.23-1.3-.96-1.24-2.02h1.74c.12.19.23.43.38.64.48.62,1.26.57,1.66-.09.35-.57.41-1.2.35-1.93h-.59c-.52.02-1.04.06-1.56.04-1.4-.09-2.52-1.47-2.29-2.86h0ZM105.23,166.21c-.03.15-.04.29-.04.43,0,.81.55,1.5,1.17,1.49.64,0,1.16-.69,1.16-1.52-.02-.11-.03-.26-.06-.4-.13-.67-.55-1.09-1.06-1.09-.55,0-1.06.46-1.18,1.09Z"/>
      <path class="cls-1" d="M101.37,135.49c.85-.28,1.71-.53,2.54-.84,1.47-.55,2.95-1.08,4.37-1.73,1.51-.68,2.96-1.49,4.44-2.24,1.01-.52,2.06-.96,3.02-1.54,1.95-1.16,3.76-2.51,5.51-3.96,1.52-1.28,3.03-2.55,4.37-3.99,1.3-1.4,2.47-2.93,3.37-4.63,1.53-2.86,2.52-5.93,3.6-8.96,1.05-2.98,2.08-5.97,3.17-8.94.42-1.14.89-2.25,1.58-3.28.82-1.23,1.53-2.53,2.34-3.78.37-.58.8-1.14,1.27-1.65,1.16-1.31,2.38-2.54,3.86-3.49.36-.24.69-.54,1.04-.79,1.62-1.1,3.32-2.02,5.21-2.59.41-.12.79-.34,1.19-.52,1.56-.68,3.24-.94,4.91-1.14,1.76-.2,3.53-.3,5.3-.29,1.89,0,3.76.3,5.59.77.93.23,1.77.67,2.66,1.26-.55.29-1.01.53-1.47.76-2.55,1.23-4.96,2.7-7.12,4.54-1.56,1.34-2.99,2.84-4.41,4.33-2.39,2.53-4.31,5.42-6.03,8.43-1.26,2.19-2.25,4.52-3.2,6.87-.99,2.48-1.96,4.96-3.03,7.41-.6,1.38-1.4,2.67-2.08,4.02-.87,1.77-2.04,3.32-3.23,4.84-1.5,1.93-3.09,3.8-5.18,5.14-.53.35-1.08.68-1.65.96-1.54.74-3.08,1.52-4.67,2.16-1.4.55-2.86.92-4.3,1.4-2.99.99-6.1,1.47-9.21,1.82-2.48.28-4.96.55-7.47.45-1.1-.05-2.2-.16-3.29-.25-.84-.07-1.68-.17-2.51-.26-.18-.02-.37-.09-.55-.15,0-.05.02-.09.04-.14Z"/>
      <path class="cls-1" d="M99.06,21.75c-.41-1.5-.43-2.99.09-4.45.55-1.54,2.39-2.85,3.96-2.86,1.94,0,3.73,1.42,4.16,3.35.16.74.24,1.49.35,2.24,0,1.24-.22,2.39-1.08,3.34-1.19,1.31-2.73,1.63-4.38,1.32-1.63-.3-2.67-1.33-3.11-2.94h0ZM101.44,17.3c-.79,1.71-.54,3.4.34,4.99.37.67,1.09.84,1.83.75.73-.1,1.25-.53,1.45-1.22.16-.55.21-1.14.34-1.84-.18-.77-.32-1.66-.62-2.5-.25-.7-.83-1.11-1.62-1.13-.75-.02-1.4.24-1.73.94Z"/>
      <path class="cls-1" d="M98.82,167.4c0-1.32.06-1.3-1.29-1.29-.22,0-.45-.04-.75-.06v-1.17c.23-.02.47,0,.67-.08.38-.13.88-.2,1.09-.48.64-.84,1.42-.54,2.33-.49.02,2.98,0,5.9,0,8.83-.7.26-1.31.18-2.05.07v-5.31Z"/>
      <path class="cls-1" d="M89.72,91.44c-1.13-.61-2.26-1.18-3.39-1.79-2.59-1.43-5.17-2.88-7.77-4.3-1.15-.62-2.34-1.16-3.49-1.77-.85-.44-1.64-.98-2.49-1.43-.33-.18-.48-.4-.47-.76,0-.46,0-.92,0-1.4,0-5.41,0-10.82,0-16.24,0-.67.09-1.16.79-1.45.79-.34,1.54-.79,2.3-1.22,3.23-1.79,6.45-3.58,9.68-5.39,1.34-.75,2.67-1.52,3.97-2.33.67-.42,1.21-.41,1.85.02.78.5,1.59.96,2.4,1.4,2,1.09,3.98,2.16,5.99,3.23,2.57,1.37,5.13,2.74,7.72,4.06.55.28.76.6.76,1.22-.03,2.99-.02,5.99-.02,8.99,0,2.79-.03,5.58.02,8.37.02.86-.19,1.34-1.01,1.77-2.37,1.24-4.67,2.6-7,3.91-1.84,1.04-3.68,2.1-5.53,3.14-1.14.65-2.28,1.27-3.42,1.91-.31.17-.56.23-.89.05Z"/>
      <path class="cls-1" d="M83.73,17.99c.65-.55,1.42-.55,2.14-.69.16-.03.43.25.57.44.56.74,1.09,1.51,1.63,2.26.17.23.3.54.73.33.22-.98.51-1.98.66-3,.11-.76.43-1.16,1.18-1.24.37-.05.73-.09,1.18-.15-.03.29-.02.48-.06.67-.44,2.1-.92,4.19-1.32,6.29-.09.46.05.97.12,1.45.08.49.21.96.31,1.45.08.41-.07.67-.5.76-.17.04-.34.05-.52.09-.99.23-1,.24-1.24-.72-.06-.22-.07-.45-.12-.68-.17-.92-.46-1.77-1.09-2.5-1.21-1.44-2.36-2.94-3.53-4.42-.06-.06-.07-.16-.16-.34Z"/>
      <path class="cls-1" d="M84.14,122.76c.06,0,.13-.02.19-.03.42.77.88,1.51,1.23,2.29.71,1.6,1.6,3.1,2.64,4.5,1.04,1.4,2.01,2.83,3.26,4.08,1.4,1.4,3.02,2.43,4.74,3.36,1.37.75,2.85,1.16,4.34,1.53.81.19,1.62.43,2.43.63,1.84.46,3.72.69,5.6.75,2.09.06,4.19.15,6.27.13,1.21,0,2.42-.18,3.63-.32,3.07-.35,6.15-.57,9.22-.31,3.95.32,7.85.97,11.42,2.83,1.25.65,2.39,1.44,3.45,2.37,2.22,1.96,3.92,4.28,5.02,7.03.33.81.67,1.62.99,2.42.06.16.06.32.12.58-.3-.05-.52-.07-.74-.11-3.47-.56-6.93-.7-10.41-.11-2.73.47-5.42,1.03-8.16,1.41-3.11.45-6.23.83-9.38.79-2.5-.02-5.01.06-7.5-.03-1.64-.06-3.29-.36-4.93-.57-2.12-.28-4.18-.8-6.15-1.6-2.35-.94-4.57-2.13-6.61-3.66-2.03-1.52-3.74-3.31-5.31-5.25-.67-.83-1.22-1.77-1.75-2.71-.67-1.18-1.28-2.4-1.9-3.62-.91-1.81-1.33-3.78-1.64-5.76-.18-1.15-.21-2.31-.3-3.47-.06-.69-.15-1.4-.14-2.09.03-1.1.12-2.2.19-3.3.05-.59.1-1.18.15-1.77Z"/>
      <path class="cls-1" d="M76.25,22.04c-.25-.37-.36-.85-.43-1.3-.02-.12.33-.37.55-.45,1.03-.39,2.08-.74,3.11-1.11.85-.3,1.71-.57,2.55-.89.4-.15.61-.03.76.31.04.08.06.17.09.25.4.97.39,1-.6,1.37-1.63.62-1.51.34-.94,1.97.62,1.81,1.25,3.62,1.87,5.43.29.82.25.9-.58,1.2-.11.05-.21.08-.32.12-.78.27-.88.22-1.15-.55-.72-2.06-1.42-4.11-2.13-6.17-.18-.52-.3-.64-.65-.65-.37.13-.77.29-1.18.41-.31.09-.71.43-.95.06Z"/>
      <path class="cls-1" d="M76.16,30.46c-1.15-2.54-2.29-5.08-3.43-7.62-.36-.82-.33-.79.49-1.22,1.35-.71,1.2-.43,1.67.61,1.12,2.46,2.2,4.93,3.3,7.39.06.13.11.27.15.38-.05.57-.55.58-.89.75-.31.16-.64.49-1.03.16-.13-.11-.19-.29-.27-.44Z"/>
      <path class="cls-1" d="M71.13,122.22c-1.4-.81-2.86-1.55-4.29-2.33-1.83-1-3.65-2.02-5.49-3-1-.54-2.04-.99-3.04-1.52-1.28-.68-2.52-1.42-3.79-2.13-.32-.18-.27-.49-.27-.78v-9.17c0-3.02,0-6.04-.02-9.08,0-.58.2-.93.71-1.16,1.87-.83,3.58-1.92,5.35-2.93,2.49-1.42,5.04-2.76,7.55-4.15,1.02-.55,2.02-1.14,3.02-1.73.39-.23.75-.27,1.15-.05.58.33,1.17.65,1.76.95,1.52.79,3.05,1.57,4.56,2.38,1.13.61,2.22,1.28,3.34,1.89,1.24.69,2.5,1.35,3.76,2.01,1.15.61,2.3,1.22,3.47,1.79.46.22.48.58.48,1.01,0,2.85,0,5.7,0,8.55,0,3.06-.02,6.11,0,9.17,0,.6-.17.94-.71,1.22-1.04.52-2.03,1.13-3.06,1.68-1.09.6-2.21,1.16-3.3,1.77-.55.3-1.08.67-1.64.98-2.74,1.53-5.48,3.04-8.2,4.59-.49.28-.84.31-1.35.02Z"/>
      <path class="cls-1" d="M65.85,25.92c.78-1.24,1.79-2.14,3.2-2.53,1.18-.33,2.34.32,3.17,1.78-.57.33-1.11.65-1.66.97-.22-.18-.39-.33-.57-.47-.73-.53-1.79-.14-2.02.73-.22.86.28,1.47,1.15,1.35.45-.06.9-.22,1.35-.33.33-.07.67-.17,1.02-.18,1.85-.13,2.88.63,3.24,2.44.08.42.02.96-.19,1.33-.97,1.71-2.43,2.73-4.45,2.74-1.1,0-1.77-.77-2.38-1.57-.17-.22-.08-.45.15-.6.38-.22.76-.43,1.15-.64.29-.16.47,0,.67.2.84.84,1.65.83,2.48,0,.38-.38.45-.75.29-1.18-.18-.47-.55-.59-.98-.55-.45.05-.92.13-1.36.24-.89.22-1.73.34-2.66.1-1.16-.3-2.36-2.6-1.58-3.84Z"/>
      <path class="cls-1" d="M66.46,190.47c-.13-.07-.27-.12-.4-.18-.71-.33-.75-.42-.47-1.12.23-.58.47-1.16.67-1.67.61,0,1.04.04,1.46,0,.43-.05.84-.18,1.35-.3-.03.2,0,.38-.08.5-.55.86-1.11,1.7-1.66,2.55-.22.35-.49.47-.87.24Z"/>
      <path class="cls-1" d="M62.81,193.74c-.09-.55.32-.97.74-1.28.11-.09.39-.03.55.05.33.16.64.37,1.05.62-.36.89-.79,1.65-1.38,2.39-.57-.53-.87-1.14-.97-1.77Z"/>
      <path class="cls-1" d="M57.22,30.64c.16-.17.27-.34.43-.45,1-.7,1.98-1.44,3.02-2.07.98-.57,2.02-.86,3.11-.14,1.09.73,1.49,1.71,1.14,2.99-.02.08-.02.17-.04.31.17.07.36.12.53.22.43.27.91.5,1.28.84.67.6,1.28,1.26,1.91,1.89.06.06.08.15.15.27-.38.52-.96.8-1.48,1.15-.26.18-.5,0-.68-.19-.43-.47-.86-.95-1.3-1.41-.21-.23-.43-.49-.7-.63-.2-.11-.55-.17-.73-.06-.49.27-.94.63-1.47,1,.54.79,1,1.48,1.47,2.17.7,1.03.71,1.03-.31,1.75-.77.55-.83.55-1.36-.23-1.54-2.26-3.08-4.52-4.61-6.78-.12-.18-.23-.39-.36-.62h0ZM60.2,31.22c.29.47.6.93.95,1.35.09.12.41.18.52.12.43-.29.86-.6,1.22-.96.34-.34.35-.79.14-1.22-.21-.43-.54-.75-1.13-.79-.67.1-1.18.56-1.69,1.04-.08.07-.08.36,0,.47Z"/>
      <path class="cls-1" d="M53.72,39.09c-.79-1.04-1.54-2.11-2.31-3.17-.44-.62-.43-.73.17-1.2,1.41-1.1,2.84-2.19,4.37-3.37.3.4.59.74.84,1.12.19.3.04.54-.23.74-.72.55-1.43,1.09-2.13,1.65-.61.47-.61.51-.18,1.11q.86,1.17,2.04.29c.57-.43,1.16-.88,1.73-1.31.03-.02.06-.02.12-.03.06.03.15.04.2.1,1.04,1.23,1.05,1.1-.18,2-.65.48-1.28.98-2.01,1.53.43.57.79,1.09,1.18,1.57.24.31.5.16.76-.04.74-.56,1.48-1.12,2.23-1.67.2-.15.42-.28.69-.45.31.43.58.79.84,1.14-.4.61-4.08,3.48-5.09,3.97-1.03-1.35-2.04-2.65-3.04-3.97Z"/>
      <path class="cls-1" d="M43.5,41.23c1.2-1.12,1.21-1.12,2.62-.26,1.31.8,2.61,1.64,3.92,2.44.28.17.53.48,1.02.21-.1-.27-.19-.54-.3-.79-.72-1.65-1.45-3.29-2.16-4.94-.31-.72-.3-.75.27-1.27.29-.27.59-.52.98-.85.21.38.4.64.52.92,1.13,2.73,2.25,5.47,3.38,8.2.18.44.15.78-.22,1.08-.17.12-.31.26-.47.39-.8.68-.81.69-1.7.17-2.17-1.28-4.34-2.57-6.52-3.86-.54-.32-1.1-.63-1.44-1.21.05-.09.06-.19.12-.24Z"/>
      <path class="cls-1" d="M42.29,42.58c.05-.06.14-.09.29-.18.21.15.46.29.67.47,2.12,1.77,4.22,3.56,6.33,5.34.55.46.55.55.07,1.12-.28.32-.56.65-.93,1.05-.92-.77-1.76-1.44-2.58-2.13-1.47-1.23-2.94-2.47-4.4-3.71-.62-.53-.63-.57-.13-1.18.21-.27.44-.54.67-.79Z"/>
      <path class="cls-1" d="M37.04,163.56c-.79,0-1.26-.3-1.4-.99-.14-.67.08-1.16.74-1.39.78-.28,1.59-.43,2.38-.03.72.36,1.43.75,2.13,1.18.4.25.34.6-.1.77-.27.09-.56.17-.85.19-.95.1-1.9.18-2.88.26Z"/>
      <path class="cls-1" d="M36.11,49.51c.36-.58.8-.62,1.4-.42,1.13.38,2.28.67,3.43,1.02.44.13.88.28,1.33.39.27.07.63.21.75-.15.06-.16-.16-.47-.32-.61-.79-.68-1.63-1.32-2.44-1.98-.39-.31-.76-.64-1.14-.96-.33-.29-.33-.57-.04-.9.3-.3.58-.63.92-.99.28.21.52.37.74.55,2.14,1.77,4.3,3.56,6.45,5.34.65.54.67.6.16,1.25-.27.34-.55.67-.81,1.02-.3.41-.65.52-1.14.36-1.16-.37-2.34-.7-3.51-1.03-.5-.14-1-.3-1.51-.38-.22-.04-.58,0-.7.15-.25.31.08.53.3.7.99.81,1.99,1.61,2.98,2.41.33.28.65.56,1.03.91-.37.43-.66.82-.99,1.17-.3.32-.57.09-.83-.12-1.43-1.19-2.86-2.38-4.3-3.56-.8-.67-1.62-1.34-2.41-2.01-.55-.46-.56-.61-.16-1.16.27-.35.59-.65.82-1.02Z"/>
      <path class="cls-1" d="M33.51,163.39c-.41-.54-.68-.9-1.02-1.34.54-.3.91-.42,1.41-.12-.12.43-.23.84-.4,1.46Z"/>
      <path class="cls-1" d="M29.92,58.43c.23-.32.47-.64.76-1.03.34.2.65.36.93.55,1.41.96,2.83,1.93,4.25,2.89.36.24.74.47,1.14.64.86.36,1.5.1,2.07-.77.49-.77.47-1.45-.2-2.03-.75-.65-1.56-1.21-2.37-1.78-1-.7-2.02-1.36-3.03-2.05-.67-.47-.68-.56-.23-1.26.7-1.09.7-1.08,1.78-.34,1.28.87,2.55,1.74,3.82,2.62.22.15.42.3.64.45,1.72,1.29,2.06,2.56,1.25,4.68-.48,1.25-1.47,2.01-2.66,2.5-.97.4-1.89.13-2.74-.43-1.18-.79-2.35-1.6-3.53-2.41-.57-.39-1.16-.78-1.72-1.18-.55-.4-.56-.47-.16-1.05Z"/>
      <path class="cls-1" d="M24.53,72.83c-1.16-1.41-1.26-3.89-.19-5.39.59-.84,1.28-1.58,2.35-1.82.6-.13,1.16-.03,1.71.18.36.14.48.4.31.77-.1.21-.23.41-.3.63-.21.58-.55.86-1.24.79-.85-.08-1.25.2-1.5,1.02-.26.87-.23,1.7.47,2.42.85.86,1.89,1.34,3.03,1.64,1.02.27,1.99-.21,2.52-1.13.08-.15.16-.31.23-.46.48-1,.35-1.3-.68-1.66-.33-.12-.57-.05-.73.27-.04.07-.07.16-.12.23-.46.83-.47.84-1.31.39-.79-.42-.79-.43-.4-1.27.37-.76.75-1.51,1.14-2.26.06-.12.18-.2.33-.36,1.27.65,2.46,1.24,3.64,1.86.73.4.78.53.53,1.32-.28.86-.52,1.74-.91,2.53-.61,1.22-1.51,2.2-2.87,2.63-.79.24-1.59.24-2.39-.02-1.4-.45-2.66-1.15-3.6-2.32Z"/>
      <path class="cls-1" d="M7.8,140.95c.32.9.42.98,1.3.72,2.74-.82,5.46-1.64,8.19-2.47l13.53-4.08c2.2-.67,4.4-1.32,6.59-2,.66-.2.7-.31.51-.95-.18-.64-.47-1.26-.63-1.9-.48-1.97-.96-3.95-1.37-5.94-.61-2.93-.89-5.92-.98-8.91-.13-3.57-.13-7.14.22-10.72.33-3.38.85-6.74,1.59-10.06,2.07-9.27,5.74-17.86,10.99-25.78,2.57-3.9,5.5-7.5,8.71-10.89,2.04-2.16,4.26-4.12,6.54-6.02,6.45-5.34,13.59-9.47,21.39-12.48,4.8-1.85,9.72-3.25,14.8-4.04,3.03-.47,6.1-.84,9.17-1,2.93-.15,5.88,0,8.81.11,1.83.07,3.65.28,5.46.5,5.13.65,10.12,1.89,15,3.58,5.91,2.04,11.49,4.79,16.74,8.19,4.2,2.71,8.07,5.82,11.65,9.28,1.64,1.57,3.17,3.25,4.66,4.96,3.93,4.48,7.25,9.4,10.01,14.68,2.56,4.89,4.57,10,6.03,15.32,1.49,5.43,2.45,10.96,2.67,16.58.21,5.44.03,10.87-.84,16.27-.44,2.75-.91,5.5-1.83,8.14-.2.59-.12.78.49.99.79.28,1.61.51,2.41.76,5.36,1.65,10.73,3.3,16.09,4.94,3.11.95,6.23,1.91,9.34,2.86.56.18.75.07.91-.48.42-1.53.91-3.06,1.22-4.62.47-2.36,1.06-4.69,1.31-7.09.13-1.16.43-2.28.56-3.43.23-2.25.44-4.5.59-6.76.16-2.41.23-4.82.34-7.23-.04,0-.06,0-.1,0,0-1.45.07-2.91-.02-4.36-.11-2.02-.33-4.05-.53-6.07-.17-1.67-.34-3.35-.55-5.01-.18-1.44-.36-2.88-.64-4.31-.37-1.85-.81-3.68-1.26-5.51-.42-1.76-.85-3.5-1.31-5.25-.28-1.04-.6-2.06-.94-3.08-.4-1.16-.88-2.27-1.25-3.43-.79-2.44-1.8-4.78-2.85-7.11-.78-1.72-1.61-3.42-2.49-5.09-1.22-2.35-2.45-4.69-3.77-6.97-1.05-1.8-2.21-3.56-3.42-5.26-1.61-2.27-3.3-4.49-5.01-6.69-.94-1.21-2.01-2.34-3.02-3.49-1.01-1.15-1.99-2.34-3.06-3.44-2.16-2.23-4.35-4.43-6.77-6.4-1.55-1.26-2.99-2.66-4.59-3.86-2.62-1.96-5.32-3.83-8.02-5.69-1.01-.68-2.09-1.26-3.14-1.89-1.29-.77-2.57-1.6-3.91-2.28-2.43-1.24-4.89-2.42-7.36-3.58-1.68-.79-3.37-1.56-5.11-2.23-2.09-.79-4.21-1.49-6.34-2.17-3.07-1-6.16-1.87-9.33-2.51-2.26-.45-4.53-.98-6.82-1.34-2.4-.39-4.82-.67-7.25-.9-1.85-.18-3.71-.3-5.56-.31-3.02,0-6.04.1-9.07.13-1.83.02-3.65.12-5.46.38-2.26.33-4.55.55-6.8.91-1.75.28-3.49.56-5.22.95-2.24.51-4.47,1.01-6.66,1.66-2.01.6-4,1.23-5.99,1.88-1.08.35-2.13.77-3.2,1.16-.95.35-1.91.67-2.85,1.08-1.63.7-3.23,1.44-4.83,2.2-1.47.7-2.94,1.4-4.37,2.17-1.81.98-3.62,1.96-5.38,3.04-2.44,1.52-4.85,3.09-7.23,4.71-1.49,1.02-2.88,2.15-4.29,3.28-1.58,1.28-3.15,2.55-4.66,3.91-1.53,1.38-3,2.84-4.46,4.29-2.05,2.02-4.04,4.09-5.82,6.36-1.62,2.04-3.33,4.03-4.86,6.15-1.64,2.25-3.18,4.57-4.65,6.94-1.41,2.26-2.74,4.58-3.98,6.95-1.23,2.34-2.31,4.76-3.42,7.15-.45.98-.82,1.99-1.21,2.99-.41,1.05-.79,2.12-1.17,3.18-.5,1.4-1.02,2.78-1.46,4.2-.38,1.18-.67,2.39-1.01,3.6-.41,1.45-.88,2.89-1.19,4.36-.48,2.18-.86,4.38-1.26,6.58-.23,1.31-.45,2.62-.62,3.95-.16,1.27-.15,2.56-.36,3.82-.33,2.04-.44,4.1-.48,6.16-.07,3.74.06,7.5.12,11.25,0,.08,0,.18.02.26.18,1.55.34,3.11.55,4.67.3,2.33.65,4.65.95,6.98.16,1.25.63,2.42.87,3.63.42,2.14.96,4.23,1.7,6.28h0ZM17.3,155.82c-.04,1.4.35,1.92,1.28,2.13.99.22,1.89-.12,2.79-.48.65-.26,1.28-.55,1.9-.85,1.01-.46,2.01-.93,2.99-1.43.16-.08.22-.34.33-.53-.17-.08-.33-.24-.51-.25-.75-.06-1.51-.1-2.26-.09-.91,0-1.73-.25-2.51-.64-.49-.25-.83-.64-.96-1.18-.05-.19-.08-.4-.16-.59-.19-.49-.48-.63-.95-.43-.64.27-1.19.64-1.35,1.38-.25,1.13-.47,2.27-.61,2.97h0ZM21.1,159.93c.18-.18.51-.33.76-.3,1.6.19,3.2.05,4.79-.08.99-.08,1.97-.41,2.95-.63.06-.08.1-.16.16-.24-.11-.03-.25-.03-.34-.08-.88-.59-.99-1.37-.23-2.08.74-.7,1.53-1.35,2.34-1.96.54-.4,1.14-.72,1.73-1.03.27-.15.59-.26.9-.27.89-.03,1.35.49,1.27,1.37-.04.41-.08.81-.17,1.21-.16.69.5,1.37,1.28,1.22.34-.06.69-.16,1.01-.29,1.33-.57,2.67-1.15,3.99-1.76,1.17-.54,1.66-.44,2.49.57.2.25.42.49.62.73.89,1.07.61,2.26-.69,2.82-.54.22-1.11.35-1.66.53-.41.12-.82.24-1.35.39.19.19.3.36.44.45.76.43,1.52.87,2.29,1.27.58.31.76.76.67,1.37-.18,1.31-.97,2.13-2.18,2.2-1.68.07-3.36.28-5.05.38-.67.04-1.33-.02-2-.08-.77-.07-1.4-.4-1.71-1.3-.39.65-.97.78-1.54.93-1.62.42-3.12,1.1-4.57,1.91-.98.55-1.07,1.24-.29,2.03.25.25.53.45.8.67.92.75,1.86,1.48,2.75,2.26.45.39.88.55,1.42.27.85-.43,1.71-.85,2.57-1.28.65-.32,1.29-.66,1.95-.98.23-.11.54-.25.69.05.07.14-.02.44-.14.6-.63.84-1.31,1.64-1.94,2.48-.34.45-.6.98-.92,1.46-.29.43-.58.86-.91,1.26-.19.25-.46.43-.69.66-.56.54-1.25.49-1.73-.13-.16-.2-.3-.43-.38-.68-.38-1.19-1.24-2.02-2.17-2.77-.56-.45-1.2-.81-1.82-1.2-.42-.27-.85-.51-1.26-.78-1.68-1.12-2.38-3.94.05-5.35,1.2-.69,2.47-1.29,3.7-1.95.43-.23.87-.47,1.28-.74.15-.1.24-.29.48-.59-.45,0-.73-.06-1-.02-1.79.24-3.59.18-5.39.17-.46,0-.95,0-1.39.13-.53.18-.96.07-1.41-.18-.19-.11-.41-.22-.61-.33-.79-.45-.87-.67-.46-1.45.17-.3.35-.62.6-.85h0ZM23.45,152.06c-.18-.1-.31-.31-.47-.45.18-.17.32-.39.53-.49.25-.13.55-.17.83-.23.77-.17,1.28-.58,1.62-1.31.5-1.09,1.17-1.25,2.14-.55,1.1.79,1.52,1.53,1.52,2.68,0,.98-.33,1.28-1.23,1.62-1.12.43-2.07.21-3.05-.35-.6-.35-1.26-.59-1.88-.91h0ZM30.79,148.74c.13.47.28.87.77,1.08.17.07.25.31.4.44.18.18.35.38.56.5.38.21.78.39,1.18.55.29.12.6.18.75.23.98-.05,1.72-.26,2.28-.89.54-.6.78-1.36.94-2.13.04-.19.02-.43-.07-.59-.56-1.01-1.12-2.02-1.77-2.98-.26-.39-.74-.65-1.16-.88-.81-.43-1.85-.24-2.5.4-.42.4-.44.75-.06,1.22.2.24.45.45.65.7.42.52.31.91-.32,1.12-.35.12-.73.17-1.09.27-.73.18-.73.24-.54.94h0ZM38.26,114.65c0-1.04-.13-2.09-.12-3.13.02-2.68.19-5.34.52-8,.37-2.97.87-5.91,1.57-8.84,1.01-4.2,2.36-8.28,4.08-12.24,2.66-6.08,6.07-11.72,10.23-16.89,2.59-3.23,5.41-6.23,8.53-8.96,4.62-4.01,9.61-7.45,15.04-10.26,6.42-3.33,13.2-5.67,20.31-6.95,2.31-.43,4.64-.81,6.98-1.02,2.66-.23,5.35-.4,8.01-.31,7.24.25,14.32,1.48,21.22,3.76,6.47,2.14,12.53,5.12,18.19,8.96,3.18,2.15,6.18,4.54,9.02,7.13,3.58,3.27,6.69,6.95,9.53,10.87,2.8,3.88,5.2,8,7.2,12.35,1.65,3.6,2.99,7.32,4.05,11.15.83,3.03,1.52,6.1,1.93,9.21.31,2.38.47,4.8.65,7.2.07.98.02,1.97.02,2.96.08,5.52-.58,10.96-1.83,16.33-1.49,6.44-3.76,12.59-6.92,18.4-2.48,4.57-5.32,8.88-8.75,12.8-1.57,1.79-3.13,3.6-4.84,5.26-4.91,4.72-10.39,8.69-16.39,11.93-3.21,1.74-6.52,3.2-9.95,4.45-4.78,1.73-9.69,2.94-14.7,3.67-2.35.33-4.73.44-7.11.64-.84.06-1.68.11-2.52.11-3.29,0-6.56-.21-9.82-.66-4.28-.58-8.47-1.52-12.59-2.8-5.94-1.86-11.55-4.46-16.84-7.75-3.67-2.28-7.11-4.86-10.34-7.72-5.06-4.49-9.31-9.68-12.93-15.38-2.71-4.26-4.97-8.74-6.74-13.48-1.73-4.64-3.04-9.4-3.8-14.31-.43-2.82-.84-5.63-.88-8.48h0ZM49.22,194.56c.43.1.82-.04,1.07-.41.28-.41.55-.82.72-1.28.44-1.18.95-2.28,1.79-3.26.75-.88,1.77-1.58,2.03-2.88.28.43.46.8.71,1.11.91,1.06,1.78,1.05,2.72.04,1.15-1.26,1.44-2.75,1.19-4.38-.06-.38-.17-.74-.22-1.12-.14-.82-.05-1.04.76-1.3.82-.27,1.67-.48,2.53-.58.94-.1,1.68-.45,2.15-1.27.16-.26.27-.62.2-.9-.11-.5-.32-1-.59-1.44-.32-.53-.8-.92-1.48-.95-1.48-.09-2.96-.2-4.45-.26-.84-.03-1.68.03-2.45.47-.63.37-.73.79-.26,1.36.86,1.02,1.93,1.57,3.31,1.38.17-.03.35,0,.52,0-.18.22-.38.33-.58.43-1.74.8-1.96,1.19-1.88,3.08.03.46-.02.93-.12,1.39-.05.21-.27.47-.47.55-.13.05-.41-.17-.55-.32-.17-.19-.29-.44-.39-.68-.22-.51-.5-.92-1.1-.85-.38-.81-.67-1.51-1.03-2.17-.19-.37-.54-.64-1-.55-.43.06-.65.4-.72.79-.12.59-.28,1.2-.26,1.8.02.75-.2,1.39-.63,1.95-.92,1.27-1.81,2.57-3.06,3.57-.29.23-.55.52-.78.82-.4.55-.67,1.15-.67,1.85,0,1.13.49,2.09,1.11,2.98.43.63,1.12.91,1.85,1.07h0ZM55.64,193.63c.26.86.6,1.7,1.04,2.48.44.76,1.02.83,1.79.41.3-.18.58-.38.89-.55.37-.2.75-.39,1.32-.67,0,.99-.03,1.77,0,2.54.05,1.02.05,2.04.25,3.02.2,1,1.06,1.29,1.97.82.33-.17.66-.39.93-.63,1.36-1.17,2.41-2.6,3.33-4.12.3-.5.54-1.04.76-1.57.86-2.05,1.89-3.97,3.66-5.43.24-.2.48-.42.7-.65.33-.34.43-.78.28-1.21-.32-.93-.69-1.85-1.07-2.75-.21-.52-.63-.83-1.2-.88-.64-.06-1.28-.08-1.91-.17-.82-.1-1.68-.16-2.26-.92-.51-.68-.68-.67-1.28-.07-1.55,1.56-3.11,3.12-4.68,4.68-.25.25-.49.51-.78.7-1.26.87-2.25,2-3.27,3.12-.49.55-.68,1.2-.48,1.86h0ZM84.06,202.88c.16.34.31.69.52,1.01.42.67.91,1.17,1.81,1.12.58-.03.67.15.7.74.06,1.07.12,2.14.18,3.22.06,1.03.66,1.66,1.55,2.02.45.18.96.25,1.45.27,1.43.06,1.68-.25,1.47-1.69,0-.06-.02-.12-.03-.18-.12-.69,0-1.31.43-1.89.64-.87,1.23-1.77,1.84-2.65.2-.3.63-.6.23-.97-.39-.34-.67.08-.95.31-.73.61-1.46,1.23-2.29,1.92-.53-.79-.98-1.42-1.39-2.08-.48-.76-.57-1.09.61-1.25,1.55-.21,3.09-.55,4.6-.93.95-.24,1.74-.84,2.17-1.76.81-1.68.86-3.35-.17-4.98-.49-.79-.92-1.62-1.39-2.42-.13-.22-.25-.46-.42-.67-.48-.6-.91-.62-1.45-.07-.4.39-.55.88-.6,1.41-.07.87-.37,1.64-1,2.26-.4.38-.8.76-1.26,1.06-1.77,1.23-3.56,2.42-5.33,3.63-.34.23-.67.48-.96.76-.57.53-.67,1.1-.34,1.8h0ZM98.37,200.28c.63-1.5,1.28-2.99,1.92-4.48.55-1.27,1.73-1.65,2.91-1.98.54-.15,1.22.46,1.4,1.19.13.47.15.97.2,1.46.02.23,0,.47,0,.7,0,.11.03.24,0,.34-.21.83.04,1.38.87,1.73.34.14.62.53.81.87.3.5.5,1.04.7,1.59.19.49.06.94-.36,1.25-.63.46-1.34.68-2.13.41-.27-.1-.54-.21-.81-.3-.67-.21-.74-.18-1.16.4-1,1.4-1.99,2.8-2.97,4.21-.61.86-.47,1.18.53,1.59,1.26.51,2.51.64,3.84.3.77-.19,1.29-.63,1.59-1.36.29-.7.55-1.4.85-2.1.08-.18.3-.31.45-.47.15.15.33.29.45.46.15.21.25.45.38.68.32.57.48,1.19.31,1.84-.15.58-.06,1.09.27,1.58.37.55.65,1.14.08,1.74-.62.67-1.24,1.31-2.32,1.03-.6-.16-1.25-.22-1.88-.25-.93-.04-1.87.02-2.79,0-.53-.02-1.04-.06-1.56-.15-1.26-.2-2.18-.84-2.73-2.04-.5-1.09-1.16-2.12-1.15-3.35,0-.71.07-1.46.31-2.13.59-1.61,1.28-3.18,1.96-4.76h0ZM105.02.17c31.84-1.64,59.54,8.47,83.08,29.95,21.31,20.42,33.15,45.35,35.13,74.78,1.38,20.39-2.85,39.75-12.24,57.9-9.37,18.11-22.76,32.65-40.06,43.48-19.16,11.99-39.9,17.12-52.41,17.06-25.83,0-43.7-4.58-60.35-13.66-16.75-9.13-30.29-21.78-40.54-37.86C6.5,154.37.62,135.26.04,114.56c-.52-18.9,3.58-36.81,12.13-53.6,9.26-18.17,22.57-32.78,39.82-43.7C68.19,7.03,85.87,1.15,105.02.17h0ZM129.18,197.77c.67.52,1.35,1.02,2.01,1.53.91.71,1.83,1.28,3.04.59.06.19.12.31.11.41-.04.9-.06,1.8-.16,2.7-.03.32-.18.74-.42.92-.95.73-2.01,1.29-3.26,1.29-.99,0-1.97-.02-2.96-.03-.18,0-.35,0-.53.03-.54.07-1.14.61-1.22,1.11-.1.64.36.86.82,1.05,1.26.55,2.5,1.1,3.77,1.6.45.18.96.25,1.45.27.66.02,1.23-.24,1.74-.68.68-.59,1.34-1.25,2.12-1.66,1.34-.69,2.77-1.2,4.15-1.83,1.28-.58,2.6-.57,3.93-.3,1.74.35,3.2-.26,4.08-1.77.29-.48.29-.81-.12-1.16-.71-.6-1.45-1.13-2.49-1.08-1.18.04-2.38.1-3.54-.3-.27-.1-.67.08-.97.22-.75.35-1.48.77-2.22,1.16-.06-.06-.12-.1-.18-.15.11-.54.14-1.1.34-1.6.36-.92.28-1.69-.43-2.4-.29-.3-.23-.57.09-.8.44-.31.91-.6,1.37-.92.42-.3.89-.58,1.21-.97.59-.72.28-1.43-.65-1.55-.69-.08-1.4-.11-2.08-.23-.83-.14-1.52.08-2.2.58-1.28.96-2.69,1.72-4.16,2.36-.45.2-.89.25-1.35.1-.19-.06-.39-.14-.59-.17-.47-.07-.88.16-1.07.57-.18.4-.06.81.34,1.14h0ZM158.94,179.65c.25.61.59,1.19.98,1.72.61.82,1.52,1.27,2.4,1.7,1.21.58,2.36,1.25,3.31,2.39-.67,1.09-1.33,2.21-2.02,3.31-.13.21-.38.35-.6.5-.41.28-.83.53-1.26.79-.59.36-.82.74-.71,1.17.12.45.57.72,1.26.71.3,0,.58-.05.88-.04,1.73.05,2.95-.67,3.59-2.32.15-.39.4-.73.7-1.27.2.66.42,1.08.47,1.52.13,1.12.48,2.22.22,3.36-.19.87-.5,1.17-1.37,1.28-.58.06-1.16.14-1.72.27-.63.14-.96.85-.59,1.25.49.54,1.03,1.1,1.82,1.09,1.04-.02,2.11,0,3.11-.2,1.52-.32,2.11-.85,2.13-2.81.04-2.88-.6-5.65-1.73-8.29-.21-.52-.14-.88.18-1.28.47-.59.91-1.2,1.39-1.79.69-.9,1.42-1.77,2.11-2.67.93-1.25-.06-2.26-1.01-2.42-.51-.09-.92.11-1.28.43-.46.43-1,.68-1.61.81-.19.04-.4.1-.57.18-.79.39-.93.78-.62,1.61.13.35.29.7-.08,1.21-.53-.86-.99-1.65-1.5-2.43-.79-1.23-1.98-1.87-3.4-1.96-1.22-.08-2.4.36-3.58.67-.17.04-.31.15-.46.24-.54.36-.69.67-.44,1.26h0ZM173.89,185.35c-1.03.7-1.48,1.85-1.7,3.04-.12.6.23.83.84.64.39-.12.77-.28,1.16-.38.77-.18,1.46-.21,2.02.55.28.37.76.61,1.19.81.46.23.92.09,1.26-.3.79-.93,1.18-2.04,1.4-3.22-.06-.25-.08-.48-.15-.7-.33-1.27-1.61-1.91-2.81-1.45-.38.14-.79.2-1.17.32-.68.21-1.46.3-2.03.67h0ZM178.73,157.51c-.97-.67-2.36.27-2.29,1.33.03.61.05,1.24.22,1.81.41,1.38,2.04,2.4,3.32,2.05.83-.22,1.67-.47,2.5-.71.84-.25,1.34-.85,1.7-1.62.51-1.08.23-2.07-.77-2.71-.42-.27-.8-.58-1.23-.82-.44-.25-.91-.47-1.4-.64-.4-.14-.67.14-.6.57.04.25.15.49.25.79-.73.28-1.14.33-1.7-.06h0ZM181.34,150.46c1.13-.06,1.67-.52,1.95-1.62.23-.91.77-1.24,1.51-.85.22.12.43.4.52.65.21.66.36,1.34.55,2.01.06.25.18.48.29.77.11-.11.2-.17.2-.23.05-1.13.09-2.26.12-3.38,0-.2-.04-.41-.08-.61-.25-1.03-.76-1.22-1.61-.63-.12.08-.22.19-.35.26-.5.23-1.13-.06-1.11-.59.03-.89.18-1.78.31-2.66.04-.2.24-.4.4-.56.83-.91,2.68-1.28,3.81-.75.94.43,1.46,1.49,1.32,2.62-.25,2.04-.5,4.09-.74,6.14-.05.42-.05.84-.06,1.26.06.03.11.05.18.06.13-.16.29-.31.4-.49,1.02-1.71,2.19-3.29,3.88-4.41.46-.3.95-.55,1.42-.85.3-.18.54-.12.81.06,1.12.69,1.45,1.42.99,2.71-.33.91-.36,1.81-.23,2.74.03.23.05.47,0,.69-.17.63-.65.79-1.17.4-.25-.19-.46-.44-.69-.67-.2-.2-.39-.43-.61-.61-.61-.47-1.13-.46-1.6.14-.62.8-1.24,1.63-1.71,2.52-.66,1.26-1.17,2.59-1.75,3.89-.46,1.04-.28,1.98.49,2.82.48.51.95,1.02,1.39,1.56,1.06,1.32.29,3.62-1.05,4.09-.48.17-1.03.23-1.52.19-1.12-.07-2.18-.41-3.16-.92-1.12-.57-1.69-1.64-1.14-2.82.5-1.05.95-2.13,1.41-3.19.56-1.3,1.27-2.57,1.46-4,.12-.91.18-1.83.27-2.74-.06-.03-.13-.06-.2-.08-.2.19-.4.4-.62.58-.49.41-1.06.62-1.7.49-1.58-.33-3.08-.87-4.31-1.97-.39-.33-.73-.69-.56-1.27.13-.42.67-.72,1.28-.74.34,0,.69.03,1.04,0h0ZM193.1,153.77c-1.03.27-2.57,2.33-2.41,3.46.15,1.11.35,2.18.85,3.18.22.43.5.83,1.03.85.57.03,1-.3,1.25-.79.13-.25.25-.54.27-.81.04-.55,0-1.1,0-1.65v-1.28c1.58.89,1.92,1.75,1.34,3.28-.18.49-.41.97-.65,1.43-.55,1.09-1.16,2.14-1.42,3.35-.23,1.06-.81,1.91-1.51,2.72-.32.37-.62.77-.89,1.18-.26.38-.27.82-.1,1.26.14.35.39.59.79.55,2.11-.2,4.27-.3,5.87-2.14.54,1.04,1.4,1.17,2.33.91,1.03-.3,1.97-.8,2.63-1.63.79-.96,1.46-2.02,2.14-3.08.29-.44.4-.97.21-1.51-.32-.97-.75-1.89-1.56-2.57-.56-.46-1.13-.91-1.68-1.39-.85-.7-.99-1.17-.64-2.22.09-.28.22-.55.37-.79.41-.67.55-1.4.54-2.17-.02-1.05-.72-1.58-1.68-1.16-.49.21-.93.57-1.34.94-.47.43-.86.94-1.29,1.41-.44.48-.57.48-1.07.03-.25-.23-.49-.5-.77-.7-.78-.57-1.62-.92-2.61-.67Z"/>
      <path class="cls-1" d="M27.08,84.96l-7.71-2.77c-.26-.09-.49-.26-.79-.42.3-.8.58-1.53.85-2.26.12-.32.34-.44.67-.46,1.79-.13,3.59-.26,5.39-.39.12,0,.24,0,.35,0,.25-.03.58.05.63-.31.04-.38-.31-.36-.55-.44-1.47-.54-2.94-1.08-4.42-1.62-.67-.25-.73-.37-.53-1.03.38-1.21.38-1.2,1.55-.79,2.51.91,5.04,1.81,7.55,2.72.85.31.84.32.52,1.18-.15.41-.31.81-.44,1.23-.15.44-.42.66-.89.68-1.34.08-2.67.2-4,.3-.84.06-1.68.11-2.52.18-.09,0-.18.09-.28.14,0,.07,0,.15,0,.22.81.3,1.62.59,2.43.89,1.06.39,2.13.78,3.19,1.18.53.19.58.32.46.84-.03.08-.06.17-.08.25-.35.97-.42,1.01-1.38.67Z"/>
      <path class="cls-1" d="M24.75,94.67c-2.42-1.72-4.83-3.44-7.25-5.17q-.88-.63-.54-1.72t1.65-1.25c2.74-.03,5.47-.06,8.21-.08.31,0,.62.04,1.11.06-.22.71-.36,1.24-.57,1.74-.07.18-.32.3-.52.39-.12.06-.28,0-.43.02q-1.25,0-1.6,1.17c-.13.44-.21.91-.39,1.33-.19.44-.05.72.3.98.25.18.49.4.75.59.33.24.41.55.27.92-.15.4-.3.79-.46,1.26-.23-.1-.4-.15-.53-.24h0ZM20.43,88.71c-.05.09-.1.18-.15.28.71.64,1.5,1.16,2.41,1.61.23-.67.56-1.2.47-1.89h-2.74Z"/>
      <path class="cls-1" d="M15.98,132.51c-.74-1.17-.99-2.4-.51-3.73.32-.9,1.02-1.4,1.89-1.65.16-.05.49.11.55.25.16.4.22.83.3,1.27.05.3-.14.45-.39.6-.85.5-.89,1.66-.09,2.2.79.54,1.6.18,1.72-.77.04-.29,0-.58,0-.88-.02-.88.15-1.71.52-2.53.71-1.55,3.8-1.9,4.74-.13.79,1.47,1.2,2.95.63,4.58-.35,1.01-1.2,1.44-2.14,1.73-.3.09-.51-.07-.57-.39-.04-.23-.07-.46-.13-.68-.18-.81-.18-.8.56-1.22.48-.27.9-.64.79-1.23-.11-.63-.27-1.28-.92-1.6-.56-.28-1.11-.02-1.28.64-.12.5-.17,1.03-.22,1.54-.05.41-.02.82-.1,1.21-.29,1.25-1.15,2.09-2.26,2.26-1.39.21-2.32-.25-3.08-1.46Z"/>
      <path class="cls-1" d="M13.68,110.36h1.67c.07.46.2.93.23,1.41.03.64-.02,1.28,0,1.91,0,.55.1.63.61.6.49-.04.98-.07,1.56-.12.02-.31.06-.58.06-.86,0-.67-.04-1.34-.05-2.01,0-.7.09-.79.81-.79h.18c.68.03.76.09.79.75.02.53,0,1.05.02,1.57.07,1.56-.11,1.41,1.53,1.42.29,0,.56-.05.95-.07v-3.94c.16-.08.2-.13.26-.14,1.28-.2,1.41-.09,1.43,1.18.02,1.37.06,2.73.07,4.09,0,.31-.03.62-.05,1.02-.94.04-1.81.09-2.67.1-2.15.03-4.31.04-6.46.06-.87,0-.92-.06-.94-.95-.02-1.4-.04-2.79-.05-4.19,0-.34.04-.68.06-1.06Z"/>
      <path class="cls-1" d="M14.28,100.17c1.04-.15,2.02-.09,3,0,.55.05,1.09.13,1.64.17,1.6.09,3.19.18,4.79.25.39.02.6.16.58.57-.04.55-.07,1.11-.06,1.65,0,.56-.29.83-.78,1.02-1.82.67-3.64,1.38-5.45,2.07-.11.05-.24.05-.32.11-.08.06-.18.2-.16.27.03.12.14.27.25.29.22.06.46.04.69.06,1.63.08,3.24.17,4.87.27.55.03.63.13.63.7,0,.18,0,.35-.02.53-.06.64-.16.77-.8.75-1.4-.05-2.78-.13-4.18-.2-1.45-.08-2.9-.18-4.34-.26-.73-.05-.79-.12-.77-.84,0-.49.09-.99.06-1.48-.04-.55.26-.79.69-.96,1.85-.7,3.69-1.4,5.54-2.11.17-.06.31-.17.66-.35-.39-.1-.56-.18-.75-.19-1.62-.07-3.24-.15-4.87-.2-.88-.03-1.02-.16-.99-1.02.02-.34.06-.68.09-1.08Z"/>
      <path class="cls-1" d="M14.79,96.95c.06-.17.33-.32.54-.36.82-.17,1.65-.3,2.48-.42.42-.06.84-.11,1.39-.18-.18-.26-.25-.42-.37-.5-.8-.62-1.63-1.22-2.44-1.84-.75-.57-.75-.58-.48-1.53.1-.38.22-.75.35-1.2.3.19.5.3.67.43,1.37,1.08,2.76,2.13,4.08,3.28.78.67,1.62,1.08,2.62,1.25.38.06.74.17,1.1.26.11.03.24.05.33.11.31.2.28,1.08-.06,1.8-.18.38-.49.36-.82.28-.42-.1-.85-.19-1.27-.31-.83-.26-1.66-.2-2.5-.04-1.85.37-3.7.73-5.55,1.09-.35.06-.56-.15-.5-.52.1-.54.23-1.08.43-1.59Z"/>
      <path class="cls-1" d="M14.9,120.39c-.81.06-.91-.04-.95-.83,0-.12,0-.23-.02-.35-.03-.92.03-.96.95-1.03,1.77-.14,3.52-.3,5.28-.45,1.07-.09,2.14-.18,3.22-.27.35-.03.57.11.61.46.04.49.06.98.1,1.59-.68.12-1.32.25-1.97.33-.46.05-.93,0-1.4.04-.56.04-.69.15-.67.68.02.64.08,1.28.17,1.9.08.54.23.62.78.57.9-.07,1.79-.15,2.69-.21.64-.04.76.08.81.73.13,1.38.05,1.44-1.36,1.54-2.43.17-4.86.37-7.29.55-.43.03-.85,0-1.21,0-.09-.17-.14-.21-.15-.27-.16-1.78-.39-1.83,1.59-1.98.74-.05,1.48-.2,2.24-.31.16-.89.06-1.72-.06-2.55-.05-.35-.3-.43-.66-.4-.89.1-1.78.19-2.69.25Z"/>
    </g>
  </g>
</svg>