<svg width="954" height="953" viewBox="0 0 954 953" fill="none" xmlns="http://www.w3.org/2000/svg">
<path d="M791.052 162.581C964.462 335.971 964.462 617.091 791.052 790.481C617.632 963.861 336.475 963.861 163.061 790.481C-10.3537 617.091 -10.3537 335.971 163.061 162.581C336.475 -10.803 617.632 -10.803 791.052 162.581Z" fill="#E60012"/>
<path fill-rule="evenodd" clip-rule="evenodd" d="M119.252 481.998C119.252 481.998 91.6443 484.48 92.2401 478.845C92.836 473.21 100.334 472.217 100.334 472.217C100.334 472.217 103.71 470.827 105.026 471.82C106.785 473.069 108.627 474.196 110.538 475.196C111.58 475.668 117.986 475.692 118.929 478.1C119.873 480.508 120.468 481.104 119.848 481.377C119.227 481.65 119.252 481.998 119.252 481.998ZM814.759 388.96C814.759 388.96 817.241 381.513 825.26 385.361C833.28 389.209 841.646 400.255 840.157 402.266C838.668 404.276 837.872 408.918 832.833 408.049C827.57 407.692 822.281 407.925 817.067 408.744C817.067 408.744 818.532 413.709 828.91 416.191C839.288 418.674 840.132 417.681 840.653 421.95C841.175 426.22 840.033 425.401 837.475 425.326C835.373 425.401 833.29 425.778 831.293 426.443C832.654 428.735 834.191 430.916 835.886 432.972C837.929 435.591 839.194 438.731 839.536 442.032C839.685 443.348 836.408 446.476 835.067 446.5C833.727 446.525 824.615 443.844 824.416 442.231C824.218 440.617 831.541 437.713 831.541 437.713C831.541 437.713 833.454 437.192 831.169 434.635C828.885 432.078 807.857 417.83 807.857 417.83C807.857 417.83 807.211 413.684 809.694 412.716C812.176 411.748 809.868 408.62 809.694 406.312C809.52 404.003 812.176 403.829 815.404 403.184C818.631 402.539 832.112 402.365 832.112 402.365C832.112 402.365 835.837 399.734 829.034 397.177C824.873 395.613 820.809 393.798 816.869 391.741C816.869 391.741 814.387 390.177 814.635 389.035L814.759 388.96ZM857.76 433.369C857.76 433.369 860.44 426.518 853.042 427.958C845.644 429.397 849.094 430.787 848.672 431.458C848.384 432.726 848.779 434.054 849.715 434.958C850.484 435.231 852.893 436.72 853.439 436.472C853.985 436.224 857.76 433.369 857.76 433.369ZM796.585 429.993C796.585 429.993 789.584 423.39 786.654 425.252C784.276 426.615 783.452 429.648 784.815 432.029C785.46 433.156 786.52 433.985 787.771 434.337C792.737 436.447 786.828 437.167 785.165 437.788C780.924 438.892 777.819 442.514 777.369 446.873C776.699 453.575 784.023 461.518 785.289 461.767C786.555 462.015 785.909 465.763 788.491 469.214C791.074 472.664 794.425 469.983 796.362 468.246C798.298 466.508 815.156 459.855 812.797 456.752C812.797 456.752 804.058 455.387 799.961 456.976C795.865 458.564 788.914 458.167 788.144 456.38C787.374 454.593 785.14 450.696 786.207 448.362C787.275 446.029 794.226 445.061 794.226 445.061C794.226 445.061 794.028 443.174 798.124 441.858C802.221 440.543 802.445 439.153 803.959 440.344C805.346 441.811 807.178 442.782 809.173 443.1C811.283 443.1 812.102 440.022 814.61 438.632C817.117 437.241 821.214 436.149 819.897 434.188C818.381 431.549 816.444 429.176 814.163 427.163C812.251 426.021 808.776 423.067 806.714 425.202C805.282 426.821 803.956 428.528 802.743 430.316C801.799 431.507 801.427 433.195 799.49 432.599C798.266 432.17 797.261 431.279 796.685 430.117L796.585 429.993ZM811.779 394.198C811.779 394.198 811.779 393.478 811.605 392.858C810.521 391.47 808.783 390.763 807.037 390.996C804.753 391.269 804.728 391.269 802.767 393.801C800.805 396.333 796.834 395.092 792.315 395.092C787.796 395.092 788.193 393.28 785.14 393.652L779.926 394.297C778.462 394.471 775.854 398.592 773.819 398.84C771.783 399.088 776.55 404.475 776.55 404.475C776.55 404.475 795.94 410.11 798.894 412.319C801.849 414.528 804.306 410.979 804.058 409.117L803.537 404.698L811.754 394.198H811.779ZM736.628 245.011L712.942 235.553C712.942 235.553 707.456 236.745 706.313 240.518C705.172 244.291 702.292 251.341 717.61 250.596C717.61 250.596 751.946 256.082 753.163 267.55C753.163 267.55 752.443 270.033 746.087 267.774C739.731 265.515 730.793 261.94 730.793 261.94C730.793 261.94 723.991 258.614 723.022 261.146C722.054 263.678 722.352 268.841 726.325 267.923C730.297 267.004 733.525 267.476 732.755 268.692C730.004 271.067 727.075 273.225 723.991 275.146C723.991 275.146 705.792 259.781 702.491 260.054C699.188 260.327 694.843 260.352 697.178 264.646C698.401 266.796 699.439 269.046 700.28 271.373L699.809 288.452C699.809 288.452 699.635 297.289 708.97 294.086C718.305 290.884 720.888 286.639 720.888 286.639L726.722 294.558C726.722 294.558 735.461 296.817 732.531 286.764L727.268 279.59L731.066 276.139C731.066 276.139 744.746 271.746 750.456 276.586C750.456 276.586 756.663 283.388 759.816 281.377C762.969 279.366 762.795 268.816 762.795 268.816C762.276 267.069 763.272 265.231 765.02 264.711C765.105 264.686 765.192 264.665 765.278 264.646C768.778 263.479 771.758 266.136 774.191 264.919C776.625 263.703 792.215 251.788 777.99 244.738L774.861 244.043C774.861 244.043 773.719 242.951 774.663 242.281C775.586 241.37 776.652 240.616 777.816 240.046C778.782 240.005 779.725 239.742 780.571 239.277C781.44 238.631 783.303 231.83 781.788 231.036C779.536 230.711 777.243 231.083 775.209 232.103L771.46 234.858L767.885 235.653C767.885 235.653 766.693 236.546 766.544 235.653C766.395 234.759 768.704 231.333 769.349 230.688C769.995 230.043 771.386 227.784 771.386 227.784C771.386 227.784 772.28 226.617 770.641 226.89C768.565 227.442 766.594 228.331 764.807 229.521C763.715 230.316 761.628 231.433 760.809 232.004L757.905 234.064C757.905 234.064 756.762 235.479 756.439 233.791C756.596 230.962 757.053 228.158 757.806 225.426C757.806 225.426 758.799 223.589 756.613 223.787C753.528 223.741 750.439 223.915 747.378 224.309C745.516 224.954 740.724 223.688 737.819 228.255C734.915 232.823 729.105 243.795 743.529 239.873C743.529 239.873 747.8 240.99 744.175 243.249C740.551 245.508 739.409 245.731 738.44 245.557L736.553 245.16L736.628 245.011ZM709.268 275.792L714.085 278.026C714.085 278.026 717.536 283.611 716.046 285.026C714.557 286.441 710.41 288.005 709.368 286.59C707.206 284.125 705.254 281.486 703.533 278.696C703.335 277.505 704.998 276.214 706.363 275.27C707.729 274.327 709.268 275.792 709.268 275.792ZM760.71 255.387L762.1 257.249C762.589 258.325 762.842 259.493 762.845 260.674C762.994 261.916 761.38 262.313 759.841 261.568C758.302 260.823 757.905 259.88 757.184 257.994C756.464 256.107 757.806 255.859 758.65 255.313C759.305 255.014 760.055 255.014 760.71 255.313V255.387ZM776.848 248.213C777.054 248.308 777.253 248.416 777.444 248.536C778.37 249.769 779.005 251.194 779.305 252.706C780.149 255.71 776.178 258.838 776.178 258.838C773.779 259.694 771.272 260.204 768.729 260.352C767.249 260.301 766.09 259.059 766.142 257.58C766.15 257.359 766.184 257.139 766.247 256.926C766.42 256.008 767.264 256.33 769.225 255.809C771.187 255.288 770.616 253.997 770.865 252.557C771.113 251.118 770.567 249.603 770.865 248.561C771.076 247.588 771.848 246.836 772.826 246.649C773.968 246.401 776.674 248.213 776.674 248.213H776.848ZM758.575 241.536L759.32 242.529C759.469 242.727 761.355 243.149 757.333 245.855C753.312 248.561 752.84 245.855 752.84 245.855C752.84 245.855 752.567 242.082 754.305 240.89C756.042 239.699 758.575 241.685 758.575 241.685V241.536ZM561.472 126.108C563.695 125.038 565.589 123.392 566.959 121.342C568.225 118.636 565.42 112.356 564.278 111.984C563.135 111.611 560.529 105.877 565.817 107.143C571.106 108.409 573.935 109.998 574.109 111.735C574.283 113.473 574.457 119.058 573.414 120.572C572.372 122.087 570.336 126.232 570.336 126.232L569.914 127.572L572.67 128.665C572.67 128.665 580.788 126.455 582.973 124.023C585.158 121.59 590.719 117.718 591.439 116.576C592.159 115.434 594.74 110.618 594.219 107.788C593.698 104.959 591.737 103.171 594.219 102.377C596.797 101.237 599.82 102.195 601.271 104.611C602.76 107.342 603.257 111.04 602.015 112.753C600.773 114.466 593.623 124.023 593.3 124.395C592.978 124.767 588.335 128.615 587.938 129.037C587.541 129.459 585.977 130.129 586.846 130.675C587.714 131.221 597.298 134.076 597.298 134.076C597.298 134.076 605.118 130.551 607.825 131.42C610.131 132.343 611.348 134.876 610.63 137.254C609.96 138.867 607.403 140.754 606.484 140.456C605.565 140.158 584.711 135.665 580.341 136.534C575.971 137.403 560.479 144.453 555.29 145.917C550.101 147.382 539.178 167.116 540.841 169.201C542.504 171.286 544.963 167.339 545.608 167.538C546.254 167.737 551.592 167.811 548.537 174.737C548.537 174.737 544.838 175.258 543.944 177.219C543.051 179.18 541.164 179.701 541.462 181.216C541.76 182.73 543.199 189.581 540.196 190.549C537.191 191.517 535.9 191.741 534.61 187.074C533.319 182.407 528.726 171.088 538.706 154.804C538.706 154.804 555.39 137.924 561.969 137.626C561.969 137.626 561.969 133.828 556.457 135.144C550.945 136.459 546.179 139.24 545.881 137.949C545.583 136.658 541.586 132.562 547.52 128.565C553.453 124.569 557.053 125.388 558.146 125.512C559.238 125.636 561.447 126.083 561.447 126.083L561.472 126.108ZM560.678 152.446L560.132 154.109C559.611 155.772 564.328 156.07 566.761 156.839C568.533 157.199 569.68 158.928 569.32 160.702C569.268 160.963 569.183 161.216 569.069 161.456C568.424 163.517 565.619 162.648 564.675 161.208C563.731 159.768 561.646 160.935 560.603 160.612C559.561 160.29 555.042 164.361 551.989 174.414C548.935 184.467 557.375 188.141 558.791 190.822C560.206 193.503 585.53 203.234 590.173 201.943C594.815 200.652 593.673 190.897 593.673 190.897L595.56 168.903C595.56 168.903 590.793 177.269 587.863 184.244C584.934 191.219 581.681 188.141 574.233 187.843C566.785 187.545 560.405 181.588 560.43 178.361C560.767 173.593 562.058 168.942 564.229 164.683C566.115 161.829 567.034 168.159 566.711 168.928C566.388 169.698 565.693 172.155 565.246 173.595C564.8 175.035 570.535 175.283 571.95 175.73C573.365 176.176 575.425 173.669 576.344 172.13C577.263 170.591 574.258 169.648 573.265 167.563C572.272 165.478 574.407 165.726 574.953 164.907C577.119 162.538 579.748 160.637 582.675 159.322C586.076 157.956 593.474 151.527 583.221 148.275C572.967 145.023 560.728 152.346 560.728 152.346L560.678 152.446ZM358.486 134.672L356.698 157.634C356.698 157.634 357.095 166.818 359.032 168.432C360.969 170.045 360.993 173.173 365.413 171.113C369.831 169.052 367.126 165.403 368.466 164.783C369.807 164.162 371.57 165.056 372.414 169.4C373.258 173.744 377.975 179.329 376.883 179.974C375.79 180.62 372.836 182.06 373.506 183.524C374.177 184.989 377.777 187.347 378.869 186.528C379.961 185.709 381.029 187.297 381.624 189.01C383.065 191.234 384.728 193.305 386.59 195.191C386.59 195.191 392.176 194.719 390.985 190.921C390.506 189.053 389.662 187.299 388.502 185.758L391.183 184.517L385.572 172.453C385.572 172.453 391.63 164.733 390.538 140.779C390.538 140.779 385.374 126.803 379.688 131.47C378.852 132.943 377.896 134.346 376.834 135.665C376.188 136.112 373.109 138.321 372.364 137.949C371.62 137.577 367.895 136.459 366.778 135.839C364.279 133.451 364.145 129.502 366.48 126.952C369.857 123.005 365.19 115.384 359.032 117.023C352.875 118.661 345.154 121.665 346.867 125.487C348.58 129.31 354.811 129.807 356.127 131.346C356.961 132.196 357.712 133.127 358.362 134.126C358.424 134.381 358.506 134.63 358.61 134.871L358.486 134.672ZM376.958 141.747C376.958 141.747 376.958 140.903 376.809 140.655C377.717 139.397 378.966 138.423 380.408 137.85C382.519 136.931 384.009 140.481 384.009 140.481L384.133 147.754C384.133 147.754 384.331 157.683 383.289 159.669C382.245 161.655 381.128 159.173 379.366 157.931C377.603 156.69 377.975 153.364 377.007 150.336C376.508 147.494 376.508 144.588 377.007 141.747H376.958ZM324.82 111.785C325.669 110.896 326.427 109.923 327.08 108.881C327.924 107.441 332.641 108.161 337.01 112.43C339.571 114.531 341.033 117.684 340.983 120.994L331.052 146.041C331.052 146.041 327.452 156.69 330.108 160.141C332.766 163.591 334.9 162.151 335.993 161.63C337.085 161.109 342.547 170.715 342.547 170.715L344.409 169.847C344.409 169.847 342.82 164.882 342.646 163.815C341.708 161.412 340.42 159.162 338.823 157.137C336.819 155.758 335.129 153.973 333.858 151.899C332.617 149.219 338.276 140.481 338.276 140.481C338.276 140.481 346.693 140.729 348.878 142.963C351.062 145.197 346.395 149.665 346.395 149.665C347.222 153.383 347.761 157.159 348.009 160.96C347.637 162.3 350.193 165.925 350.193 165.925L353.843 165.776L355.581 169.499C356.326 171.088 352.354 171.013 352.354 171.013C352.354 171.013 354.836 176.45 355.656 175.705C356.475 174.96 358.586 176.127 359.032 176.946C359.479 177.765 358.784 179.9 358.784 179.9L357.99 183.524L357.17 185.237C357.585 186.294 357.761 187.43 357.692 188.563C357.469 190.003 354.886 189.879 354.886 189.879C354.886 189.879 351.262 185.609 351.062 185.187C350.864 184.765 347.984 182.531 348.58 186.801C349.176 191.07 346.867 190.797 345.899 190.797C344.931 190.797 344.483 186.478 343.838 186.826C343.041 187.099 342.199 187.226 341.355 187.198L336.837 177.12C335.854 175.508 334.704 174.002 333.411 172.627C333.411 172.627 331.548 172.155 326.633 171.485C321.717 170.815 320.675 165.031 320.675 165.031L324.522 112.008L324.82 111.785ZM344.682 174.017C344.682 174.017 344.831 173.719 344.906 173.52C344.981 173.322 344.682 174.017 345.477 172.825C346.271 171.634 348.729 172.627 349.995 174.191C351 175.637 351.418 177.412 351.162 179.155C350.913 179.825 347.934 180.893 347.289 180.396C346.281 178.353 345.45 176.227 344.806 174.042L344.682 174.017ZM362.954 149.765C363.247 149.456 363.582 149.189 363.948 148.97C364.921 149.121 365.758 149.744 366.182 150.633C366.766 152.06 366.411 153.698 365.289 154.754C363.998 156.318 362.681 153.96 361.589 152.743C360.497 151.527 362.954 149.765 362.954 149.765ZM191.896 292.076C191.896 292.076 189.215 298.455 193.237 300.193C197.259 301.93 203.466 302.675 205.03 303.47C206.593 304.264 212.85 302.501 211.832 299.87C209.951 296.603 207.756 293.528 205.278 290.686C205.278 290.686 195.72 287.086 195.099 288.203C194.478 289.32 191.921 290.413 191.871 292.101L191.896 292.076ZM183.976 229.646C183.976 229.646 234.797 258.093 237.032 260.898C239.267 263.703 234.003 266.607 242.593 267.898C251.184 269.189 258.632 267.476 257.837 265.614C257.042 263.753 251.482 252.21 247.062 250.323C244.469 249.133 241.401 250.237 240.16 252.806C239.813 253.451 198.103 226.865 198.103 226.865C198.103 226.865 198.103 225.674 194.13 222.496C190.158 219.319 178.018 222.77 176.206 225.872C174.393 228.975 177.571 229.646 178.514 230.192C179.458 230.738 182.064 230.192 182.064 230.192L183.976 229.745V229.646ZM182.686 273.558C182.686 273.21 182.686 273.558 183.232 270.753C183.778 267.948 187.179 268.543 189.91 267.799C192.992 267.245 196.114 266.938 199.245 266.88C200.667 268.968 201.78 271.25 202.547 273.657C204.086 278.075 205.03 271.572 206.32 269.313C207.612 267.054 203.093 262.437 201.678 260.65C200.262 258.862 195.025 259.086 191.747 258.962C188.469 258.838 187.874 258.093 187.477 253.997C187.079 249.901 196.862 249.529 196.862 249.529C196.862 249.529 210.963 259.682 212.477 258.689C213.993 257.696 209.995 253.724 207.513 250.398C205.03 247.071 208.878 248.064 208.878 248.064C208.878 248.064 224.618 257.472 227.449 258.962C230.279 260.451 225.586 267.402 225.586 267.402C225.586 267.402 237.751 273.309 240.682 274.402C243.611 275.494 241.724 280.334 239.664 282.544C237.602 284.753 227.623 283.288 225.809 282.693C223.997 282.097 228.293 279.416 228.293 279.416C226.593 278.244 224.808 277.199 222.955 276.288C220.249 275.022 220.82 278.299 219.876 278.77C218.932 279.242 212.428 278.051 212.006 278.994C211.584 279.937 220.249 286.639 220.249 286.639C220.249 286.639 236.063 307.019 233.258 311.314C230.452 315.608 222.806 305.158 222.806 305.158C219.771 300.161 216.246 295.479 212.279 291.182C207.562 286.689 182.686 273.483 182.686 273.483V273.558ZM131.194 445.855C131.194 445.855 155.847 446.476 164.264 451.887C172.68 457.298 175.708 456.206 176.677 454.369C177.646 452.532 174.964 450.174 174.964 450.174C174.964 450.174 167.516 450.919 167.938 446.848C168.36 442.777 173.127 444.366 173.127 444.366C173.127 444.366 176.504 440.965 172.804 440.344C169.104 439.724 159.969 437.862 159.82 436.025C159.62 434.779 160.467 433.607 161.713 433.409C162.121 433.342 162.539 433.389 162.922 433.543C164.314 434.238 168.112 435.802 168.112 435.802C169.474 436.541 170.983 436.976 172.531 437.068C173.996 436.795 175.535 436.819 175.336 434.585C175.137 432.351 174.467 423.986 174.467 423.986C174.467 423.986 169.179 421.181 167.416 424.557C167.416 424.557 167.938 427.486 167.044 427.982C166.15 428.479 164.86 429.447 163.419 428.479C161.979 427.511 161.656 426.195 160.291 425.773C158.97 425.21 157.449 425.388 156.294 426.245C155.475 427.188 153.265 430.539 153.638 431.805C154.044 432.882 154.632 433.88 155.375 434.759C155.822 435.405 157.859 438.284 157.461 439.451C157.063 440.617 156.641 442.901 154.978 443.1C152.717 443.445 150.404 443.221 148.25 442.454C146.463 441.511 146.214 439.302 146.314 437.068C146.413 434.834 146.562 433.642 144.252 431.904C141.944 430.167 131.69 428.826 131.69 428.826L127.346 426.518C127.346 426.518 118.979 425.202 118.83 429C118.962 432.547 120.709 435.839 123.572 437.936C126.027 439.783 128.26 441.906 130.226 444.266L131.318 445.855H131.194ZM129.332 438.259C129.332 438.259 127.619 436.273 126.849 435.553C126.079 434.834 123.572 430.365 128.835 432.004C131.961 432.731 134.01 435.73 133.553 438.905C133.553 439.922 132.559 440.071 131.541 440.096C130.524 440.121 129.357 438.259 129.357 438.259H129.332ZM138.294 441.412C137.845 440.885 137.499 440.28 137.276 439.624C137.276 438.954 139.114 437.589 139.114 437.589C139.114 437.589 141.001 436.522 142.763 439.55C144.526 442.578 141.845 442.727 140.877 442.678C139.914 442.442 139.01 442.012 138.219 441.412H138.294ZM87.6222 440.295C87.3491 439.947 89.0126 439.376 89.0126 439.376L97.3545 438.805C97.3545 438.805 104.554 426.394 106.243 423.738C107.931 421.082 113.045 416.415 112.251 410.135C111.456 403.854 116.968 408.248 116.968 408.248C124.416 414.503 115.304 422.05 115.304 422.05L100.855 438.507L110.786 441.734L110.165 434.287C109.942 431.607 118.607 434.138 119.6 436.224C120.593 438.309 118.78 444.39 118.78 444.39C118.78 444.39 134.372 454.568 135.961 457.547C137.549 460.526 129.853 461.965 125.409 459.905C120.965 457.845 94.2511 449.554 89.6084 447.692C84.9657 445.83 87.5229 440.245 87.5229 440.245L87.6222 440.295ZM126.924 478.324C126.924 478.324 128.19 483.884 132.361 483.288C136.531 482.693 174.219 479.788 174.219 479.788C174.219 479.788 187.179 474.65 183.976 468.841C180.773 463.033 141.373 460.228 137.053 463.43C137.053 463.43 137.053 464.919 140.057 465.217C143.061 465.515 164.338 469.412 164.338 469.412C164.338 469.412 166.622 473.458 163.071 473.707C159.522 473.955 148.722 475.047 142.217 472.416C139.459 470.688 135.969 470.631 133.156 472.267C128.388 475.097 126.725 477.033 126.775 477.505C126.824 477.976 126.824 478.324 126.824 478.324H126.924Z" fill="white"/>
<path fill-rule="evenodd" clip-rule="evenodd" d="M472.438 308.607C482.364 308.662 490.457 300.661 490.512 290.734C490.566 280.81 482.562 272.718 472.636 272.664C462.708 272.609 454.617 280.611 454.562 290.536C454.562 290.585 454.562 290.635 454.562 290.685C454.603 300.547 462.574 308.54 472.438 308.607Z" fill="white"/>
<path fill-rule="evenodd" clip-rule="evenodd" d="M328.594 399.907C328.594 399.907 430.236 313.2 541.462 334.126C541.462 334.126 469.115 432.773 445.207 448.313C445.207 448.313 530.711 442.156 591.687 375.382C591.687 375.382 660.756 282.37 544.168 272.664C544.168 272.664 604.25 253.724 630.864 312.604C630.864 312.604 662.841 397.4 536.099 471.87C536.099 471.87 414.098 512.034 359.827 491.952C359.827 491.952 411.219 409.315 442.327 383.673L446.225 369.996L328.718 399.783L328.594 399.907Z" fill="white"/>
<path fill-rule="evenodd" clip-rule="evenodd" d="M318.513 405.867C318.513 405.867 236.162 549.841 363.351 568.483C363.351 568.483 483.539 597.601 621.082 453.105C621.082 453.105 607.302 487.063 591.165 497.588C600.047 496.466 608.251 492.247 614.329 485.673C614.329 485.673 578.18 537.802 553.949 549.345C553.949 549.345 579.372 536.933 590.718 529.61C590.718 529.61 541.064 604.08 408.959 619.594C408.959 619.594 289.962 635.779 263.671 553.838L235.864 464.152L263.596 553.813L235.789 464.127L318.513 405.867Z" fill="white"/>
<path d="M429.762 696.571H425.268V667.999C423.969 669.186 422.547 670.226 421.022 671.102C419.515 671.998 417.936 672.77 416.305 673.411V669.067C418.693 667.982 420.903 666.542 422.86 664.797C424.501 663.417 425.858 661.731 426.856 659.832H429.737V696.422L429.762 696.571ZM444.782 688.131L449.052 687.759C449.236 689.414 449.971 690.963 451.137 692.152C452.232 693.093 453.643 693.582 455.085 693.517C456.359 693.555 457.615 693.227 458.709 692.574C459.723 691.956 460.575 691.105 461.193 690.092C461.95 688.759 462.501 687.319 462.831 685.822C463.298 684.04 463.531 682.203 463.526 680.361C463.526 680.163 463.526 679.865 463.526 679.443C461.644 682.417 458.379 684.231 454.862 684.258C451.961 684.306 449.181 683.114 447.215 680.982C445.062 678.624 443.938 675.508 444.086 672.319C443.938 669.029 445.119 665.817 447.364 663.407C449.482 661.17 452.453 659.944 455.532 660.031C460.376 659.994 464.735 662.96 466.481 667.478C467.655 670.762 468.179 674.245 468.02 677.73C468.154 681.496 467.64 685.256 466.506 688.851C465.677 691.363 464.099 693.562 461.987 695.156C459.947 696.613 457.491 697.37 454.986 697.315C449.675 697.653 445.099 693.624 444.759 688.315C444.759 688.295 444.757 688.275 444.757 688.255L444.782 688.131ZM463.054 672.045C463.176 669.826 462.449 667.642 461.019 665.939C459.778 664.492 457.957 663.675 456.053 663.705C454.043 663.725 452.143 664.633 450.864 666.187C449.36 667.935 448.58 670.189 448.68 672.492C448.598 674.575 449.338 676.608 450.74 678.152C452.086 679.572 453.973 680.356 455.929 680.312C457.868 680.371 459.736 679.582 461.044 678.152C462.441 676.462 463.151 674.309 463.03 672.12L463.054 672.045ZM475.269 686.939L479.937 686.567C480.151 688.521 481.027 690.343 482.419 691.73C483.675 692.867 485.32 693.48 487.013 693.443C489.125 693.46 491.139 692.554 492.524 690.961C494.056 689.168 494.845 686.86 494.734 684.507C494.85 682.285 494.083 680.108 492.599 678.45C491.124 676.955 489.085 676.154 486.988 676.241C485.618 676.228 484.265 676.571 483.065 677.233C481.98 677.824 481.057 678.678 480.384 679.716L476.138 679.095L479.664 660.354H497.738V664.648H483.239L481.302 674.577C483.283 673.103 485.685 672.294 488.155 672.269C491.177 672.212 494.088 673.406 496.198 675.57C498.399 677.847 499.583 680.92 499.476 684.085C499.57 687.257 498.52 690.357 496.522 692.822C494.23 695.761 490.663 697.415 486.938 697.266C483.984 697.38 481.094 696.38 478.845 694.461C476.717 692.547 475.433 689.871 475.269 687.014V686.939ZM513.304 676.737C511.659 676.213 510.211 675.2 509.159 673.833C508.257 672.5 507.79 670.923 507.817 669.315C507.773 666.776 508.813 664.34 510.673 662.613C515.104 658.954 521.51 658.954 525.941 662.613C527.831 664.345 528.889 666.803 528.847 669.365C528.891 670.933 528.43 672.472 527.53 673.758C526.527 675.123 525.12 676.139 523.509 676.663C527.68 677.822 530.505 681.697 530.336 686.021C530.386 688.982 529.187 691.829 527.034 693.865C524.673 696.035 521.548 697.176 518.345 697.042C515.135 697.186 512.004 696.032 509.655 693.84C507.47 691.775 506.269 688.878 506.353 685.872C506.273 683.747 506.914 681.657 508.165 679.939C509.437 678.274 511.259 677.112 513.304 676.663V676.737ZM512.411 669.141C512.349 670.722 512.942 672.256 514.049 673.386C515.214 674.5 516.783 675.091 518.394 675.024C519.975 675.086 521.51 674.493 522.64 673.386C523.722 672.343 524.315 670.891 524.278 669.389C524.308 667.835 523.7 666.336 522.59 665.244C521.466 664.127 519.928 663.524 518.345 663.581C516.758 663.529 515.219 664.119 514.074 665.219C513.004 666.242 512.403 667.662 512.411 669.141ZM510.946 685.996C510.941 687.279 511.239 688.548 511.815 689.695C512.406 690.881 513.352 691.852 514.521 692.475C515.703 693.118 517.026 693.45 518.369 693.443C522.484 693.398 525.78 690.03 525.738 685.917C525.718 684.008 524.963 682.178 523.633 680.808C522.188 679.401 520.236 678.641 518.22 678.698C514.315 678.586 511.058 681.662 510.946 685.567C510.941 685.711 510.941 685.852 510.946 685.996Z" fill="white"/>
<path d="M196.986 677.356L198.177 679.193C195.239 680.523 192.102 681.36 188.892 681.675C188.47 680.771 187.98 679.9 187.428 679.068C187.056 678.522 186.41 677.604 185.416 676.363C184.051 674.724 182.934 673.285 182.14 672.068C176.611 662.139 177.753 654.047 185.565 647.791C194.752 643.057 202.961 645.465 210.194 655.015C211.672 657.38 212.731 659.984 213.322 662.71C213.426 663.244 213.602 663.762 213.844 664.249C214.041 664.572 214.365 664.798 214.737 664.87L215.482 666.036L208.208 671.249L207.116 669.586C210.446 666.098 210.92 660.771 208.258 656.752C203.606 650.596 197.582 649.611 190.183 653.798C182.984 659.26 181.279 665.508 185.069 672.54C187.689 676.422 192.404 678.329 196.986 677.356ZM209.399 702.179C208.881 702.112 208.409 701.844 208.084 701.434C207.587 700.987 208.084 700.243 209.375 699.2L216.971 693.416C219.653 691.033 219.604 687.565 216.822 683.015C214.964 680.605 212.335 678.907 209.375 678.2C207.546 677.887 205.708 678.699 204.708 680.26L209.672 683.636C211.51 681.898 213.074 681.774 214.39 683.288C215.485 684.641 215.276 686.627 213.922 687.722C213.865 687.769 213.805 687.814 213.744 687.856L212.181 689.072C210.065 688.419 208.088 687.384 206.346 686.019C205.063 684.976 203.56 684.239 201.951 683.859C200.411 683.681 198.864 684.127 197.656 685.1C195.174 687.136 195.174 689.693 197.209 692.721C198.6 694.719 200.835 695.965 203.267 696.097C202.063 697.363 202.063 699.349 203.267 700.615C204.733 702.273 206.775 703.311 208.977 703.519L209.424 702.179H209.399ZM204.583 694.856C203.223 694.831 201.922 694.3 200.934 693.367C200.09 692.026 200.462 690.636 202.076 689.271C203.67 687.938 205.993 687.938 207.587 689.271C208.471 689.792 209.436 690.162 210.442 690.363L204.583 694.831V694.856ZM234.698 716.452L228.889 721.913C227.25 723.254 227.176 724.619 228.64 725.984L227.474 727.076L219.207 718.388L220.373 717.296C221.73 718.736 223.767 718.09 226.481 715.36L229.658 712.381C232.563 709.65 233.283 707.59 231.819 706.25C230.305 704.897 228.418 704.033 226.406 703.767L218.958 710.842C217.62 711.726 217.252 713.528 218.136 714.866C218.289 715.097 218.474 715.305 218.685 715.484L218.958 715.782L217.792 716.874L208.928 707.441L210.094 706.349L210.367 706.647C211.634 708.186 213.149 708.037 214.861 706.225L222.111 699.423C222.98 698.778 223.004 697.661 222.111 696.023L221.565 695.179L222.434 694.359L230.602 698.679L231.148 699.274L227.821 702.402C231.309 702.866 234.585 704.331 237.256 706.622C239.887 709.236 238.994 712.547 234.574 716.551L234.698 716.452ZM263.572 732.091L257.142 728.466C256.591 726.054 255.297 723.874 253.443 722.236C248.477 718.165 244.199 717.686 240.607 720.796C238.513 723.502 238.735 727.337 241.128 729.782V729.931C236.834 727.325 234.227 726.803 233.333 728.317C231.938 730.177 232.02 732.756 233.531 734.523C232.562 734.662 231.574 734.499 230.702 734.052C229.277 733.354 227.575 733.558 226.357 734.573C224.702 737.155 226.117 740.779 230.602 745.446C237.322 751.222 242.751 752.413 246.888 749.02C249.074 746.339 248.403 743.261 244.927 739.811L241.55 736.807C238.472 733.903 237.33 731.991 238.15 731.123C238.423 730.651 239.987 731.123 242.817 732.264C247.782 736.814 251.978 737.584 255.405 734.573C256.368 733.801 256.956 732.654 257.018 731.42L259.947 735.839L263.498 732.091H263.572ZM240.682 742.74C242.693 744.651 243.165 746.24 241.948 747.481C239.937 749.219 237.256 748.598 233.854 745.619C230.677 742.243 229.833 739.438 231.372 737.254C232.326 736.527 233.562 736.278 234.723 736.584C235.58 737.815 236.563 738.954 237.653 739.984L240.682 742.839V742.74ZM245.647 724.445C247.832 722.31 249.843 721.963 251.68 723.576C253.517 725.488 253.17 727.896 250.613 730.775C248.627 732.711 246.739 732.959 245.002 731.495C243.09 729.509 243.289 727.151 245.647 724.445ZM252.326 749.02L253.343 747.804L274.025 743.832L268.687 739.389C267.62 737.949 265.608 738.098 262.654 739.761L261.264 738.619L268.141 733.208L269.357 734.225C268.464 734.871 268.588 735.665 269.705 736.584L282.689 747.431L281.796 748.499L260.791 752.396L265.757 756.616C267.347 758.627 269.928 758.875 273.453 757.336L274.67 758.353L268.315 762.325L252.301 748.945L252.326 749.02ZM288.871 757.509C290.755 757.343 292.65 757.716 294.333 758.577C296.046 759.818 296.22 761.655 294.855 764.063L290.733 770.641C289.492 773.123 288.102 773.769 286.538 772.478L286.24 772.254L285.395 773.62L295.5 779.95L296.344 778.584L296.021 778.386C294.408 777.691 294.433 776.152 296.021 773.744L299.622 768.035C302.774 763.07 302.799 759.446 299.622 757.485C296.59 756.023 293.209 755.447 289.864 755.822L298.629 741.846L297.635 741.201L289.442 738.892L288.822 739.91L289.839 741.25C290.636 741.878 290.775 743.033 290.147 743.83C290.112 743.874 290.075 743.916 290.038 743.956L278.195 762.822C276.954 765.304 275.49 765.9 273.826 764.559L273.155 764.137L272.311 765.478L283.26 772.354L284.104 770.988L283.782 770.79C281.945 769.946 281.796 768.457 283.31 766.272L288.797 757.509H288.871ZM303.941 773.421C307.747 767.613 313.234 766.304 320.402 769.499C326.839 773.503 328.775 778.468 326.211 784.393C322.405 790.169 316.893 791.386 309.676 788.042C303.122 784.294 301.21 779.379 303.941 773.347V773.421ZM311.39 773.918C308.286 780.67 308.485 785.138 312.01 787.272C314.642 788.514 316.975 787.347 319.012 783.772C321.99 777.567 321.792 773.247 318.391 770.864C315.642 769.574 313.309 770.591 311.39 773.918ZM340.859 803.407L341.753 803.83L349.822 805.815L350.492 804.376C350.036 804.281 349.586 804.15 349.152 803.978C347.934 803.705 347.885 802.588 348.953 800.578L355.433 786.503L354.538 786.081L345.303 783.797L344.807 784.889L346.644 786.602C347.736 787.397 347.86 788.563 347.016 790.053L343.193 798.368C341.345 798.699 339.444 798.569 337.657 797.996C335.769 797.003 335.446 795.017 336.664 792.088L342.075 780.347L341.182 779.925L333.734 778.46L333.237 779.552L334.056 780.595C334.727 781.042 334.652 782.035 333.808 783.524L330.209 791.294C328.545 795.191 329.314 797.971 332.517 799.585C334.255 800.553 337.483 800.677 342.449 799.982L340.884 803.407H340.859ZM416.308 799.56L413.677 818.45C412.982 821.454 414.422 823.043 418.022 823.291L417.749 825.252L405.534 823.539L405.807 821.578H406.204C408.811 821.95 410.201 821.082 410.375 818.947L413.628 795.712C412.53 794.853 411.215 794.322 409.829 794.173L410.102 792.212L420.356 793.652L438.033 818.003L440.143 802.837C441.011 799.61 439.621 797.872 436.022 797.872H435.45L435.723 795.886L448.709 797.723L448.435 799.684H447.839C444.984 799.138 443.47 799.808 443.346 801.645L439.597 828.429L436.841 828.057L416.308 799.56ZM448.882 819.592C449.627 812.691 453.847 809.042 461.743 808.596C469.191 809.241 473.287 812.791 473.759 819.294C472.989 826.17 468.645 829.77 460.674 830.068C453.127 829.72 449.198 826.227 448.882 819.592ZM455.685 816.688C455.983 824.103 458.192 827.975 462.314 828.305C465.218 828.305 466.757 826.096 466.956 822C466.757 815.099 464.615 811.358 460.525 810.78C457.472 810.78 455.859 812.84 455.685 816.688ZM492.155 828.305V829.894L478.054 830.068V828.454H478.252C480.363 828.578 481.331 827.362 481.182 824.855V816.489C481.182 814.628 480.686 813.535 479.344 813.138L477.954 812.567V811.376L486.272 808.099H487.265V813.883H487.339C488.878 810.01 490.318 808.273 491.659 808.67C492.001 808.653 492.344 808.72 492.653 808.869L496.649 810.209C496.227 812.138 495.435 813.967 494.316 815.596C492.995 815 491.587 814.613 490.144 814.454C489.201 814.322 488.208 815.067 487.166 816.688V825.028C487.166 827.511 488.208 828.529 490.591 828.355L492.155 828.305ZM522.916 812.716C524.751 810.797 527.04 809.373 529.57 808.571C531.688 808.273 533.004 810.035 533.517 813.858L534.138 818.177C534.783 821.975 534.138 824.011 531.978 824.309L532.202 825.872L544.02 824.234L543.796 822.645C541.834 823.067 540.792 822.199 540.618 820.163L539.476 812.22C538.781 806.312 536.614 803.673 532.971 804.301C530.191 804.698 526.683 806.932 522.444 811.003C522.01 808.201 519.423 806.255 516.61 806.61C514.475 806.61 511.042 808.826 506.307 813.262L505.513 807.553H504.719L496.45 811.698L496.624 812.89L497.865 813.113C499.522 813.411 500.349 814.032 500.349 814.975L501.739 824.904C502.21 827.387 501.391 828.702 499.256 828.851H499.058L499.281 830.44L511.893 828.677L511.67 827.089H511.273C509.286 827.387 508.169 826.394 507.846 824.16L506.556 814.901C508.333 812.912 510.641 811.475 513.209 810.755C515.294 810.482 516.585 811.971 517.032 815.248L518.075 822.546C518.547 825.028 517.728 826.344 515.592 826.493L515.816 828.082L527.832 826.394L527.609 824.805C525.647 825.078 524.506 824.11 524.183 821.876L522.891 812.617L522.916 812.716ZM567.457 814.925L568.524 815.894C567.428 817.807 565.656 819.24 563.558 819.915C561.903 820.471 560.1 819.632 559.462 818.003C558.347 820.181 556.282 821.712 553.875 822.149C550.226 822.844 547.991 821.677 547.147 818.599C546.723 817.107 546.939 815.506 547.743 814.181C548.754 812.87 550.043 811.803 551.517 811.053C553.488 810.048 555.252 808.672 556.706 807.007L556.259 805.071C555.939 803.36 554.29 802.231 552.58 802.551C552.523 802.564 552.468 802.573 552.411 802.588C550.492 803.167 549.946 804.656 550.773 807.056L545.608 810.284C544.598 808.73 544.598 806.724 545.608 805.17C547.473 802.772 550.102 801.082 553.056 800.379C558.337 799.701 561.515 801.082 562.59 804.525L564.75 813.808C565.122 815.496 565.619 816.291 566.239 815.918C566.751 815.799 567.19 815.476 567.457 815.025V814.925ZM558.816 816.316L557.153 809.142C556.562 809.973 555.832 810.696 554.993 811.276C553.138 812.17 552.173 814.248 552.684 816.241C553.28 818.277 554.372 819.195 555.962 818.947C556.88 818.748 557.798 817.855 558.816 816.266V816.316ZM571.006 782.184L570.063 782.457L562.367 787.421L562.764 788.762L565.097 788.911C566.14 788.737 566.86 789.556 567.258 791.393L573.191 811.624C574.011 813.982 573.414 815.422 571.329 815.869L570.957 815.993L571.404 817.532L583.42 814.007L582.973 812.468C581.062 813.039 579.771 812.17 579.1 809.986L571.006 782.184ZM645.14 753.736L644.147 751.999L655.618 745.594L656.586 747.332L656.238 747.531C653.407 748.97 652.737 750.931 654.276 753.414L660.483 764.535C664.572 772.098 662.544 778.244 654.4 782.978C645.761 787.627 639.547 786.694 635.755 780.173L628.307 766.967C627.24 764.832 625.676 764.485 623.54 765.776L622.646 766.247L621.678 764.51L635.581 756.765L636.55 758.502L635.854 758.875C634.251 759.441 633.409 761.198 633.973 762.802C634.075 763.082 634.214 763.35 634.39 763.591L641.838 776.772C644.619 781.471 648.641 782.415 653.904 779.602C659.515 776.293 660.888 771.957 658.025 766.595L652.017 755.822C650.379 752.644 648.318 751.825 645.86 753.339L645.165 753.712L645.14 753.736ZM685.211 746.96C681.835 741.995 678.681 740.704 675.752 742.963C673.12 745.292 671.223 748.337 670.29 751.726L667.634 748.027L666.988 748.474L661.601 755.921L662.296 756.889L663.214 756.467C664.927 755.896 666.044 756.095 666.541 757.038L672.326 765.13C673.89 767.091 673.815 768.605 672.127 769.648L671.804 769.871L672.723 771.162L683.25 763.715L682.331 762.425L682.009 762.648C680.834 763.72 679.011 763.636 677.939 762.462C677.748 762.251 677.587 762.012 677.465 761.754L671.457 753.339C672.023 751.398 673.155 749.668 674.71 748.375C676.249 747.109 678.185 748.077 680.494 751.329L682.977 754.878C685.31 757.932 685.682 760.041 684.044 761.183L684.987 762.499L694.695 755.548L693.777 754.258C692.238 755.524 690.896 755.251 689.779 753.463L685.161 746.985L685.211 746.96ZM706.19 744.477L707.158 745.743L697.053 753.439L696.085 752.173L696.557 751.825C698.22 750.733 698.22 749.194 696.557 747.282L690.648 739.538C690.154 738.619 689.012 738.274 688.094 738.768C688.024 738.805 687.957 738.847 687.893 738.892L686.279 739.364L685.533 738.421L690.698 730.75L691.343 730.254L701.696 743.857C702.555 745.227 704.362 745.642 705.734 744.783C705.878 744.693 706.014 744.592 706.141 744.477H706.19ZM681.86 723.005C683.247 721.64 685.479 721.66 686.845 723.048C686.925 723.129 687.001 723.214 687.074 723.303C688.166 725.048 687.734 727.34 686.081 728.566C684.506 729.993 682.073 729.874 680.646 728.3C680.628 728.28 680.611 728.263 680.594 728.243C679.61 726.431 680.157 724.17 681.86 723.005ZM695.912 729.435C697.326 728.166 699.425 728.022 701.001 729.087L717.313 735.74L719.498 733.754L714.085 716.874C713.219 715.176 713.666 713.101 715.153 711.909L714.085 710.743L706.637 717.569L707.705 718.761C710.187 716.626 711.925 716.874 712.67 719.555L715.773 728.839L705.545 724.42C703.806 723.7 703.31 722.881 704.104 721.938L705.446 720.746L704.352 719.555L694.819 728.268L695.887 729.459L695.912 729.435ZM738.366 704.611L739.905 704.413C740.95 708.655 739.878 713.141 737.026 716.452C732.723 720.622 728.12 720.573 723.221 716.303C718.48 711.115 718.256 705.853 722.501 700.565C724.034 698.778 726.233 697.701 728.584 697.587C730.315 697.611 731.998 698.145 733.425 699.126C734.12 699.689 735.026 699.925 735.909 699.771L736.902 700.714L727.219 710.991C731.067 713.697 734.294 713.92 736.951 711.686C738.242 710.527 738.738 708.169 738.441 704.611H738.366ZM725.679 710.197L730.645 704.984C727.566 702.278 725.208 701.682 723.57 703.221C722.228 705.431 722.948 707.764 725.729 710.197H725.679ZM754.478 693.242L753.634 694.359C752.984 695.767 751.318 696.38 749.911 695.73C749.514 695.546 749.166 695.273 748.893 694.93L742.314 689.792C741.692 687.98 741.742 686.739 742.314 686.093C743.349 685.086 744.541 684.246 745.839 683.611C745.258 681.722 744.325 679.962 743.084 678.423L739.533 680.707C739.233 680.863 738.969 681.082 738.763 681.352C737.621 682.171 738.093 684.381 740.153 687.98L740.004 688.154L735.61 684.455L735.014 685.225L732.358 693.764L733.301 694.508L734.642 693.764C735.759 692.969 737.125 693.193 738.391 694.434L744.995 699.597C747.03 701.037 747.477 702.551 745.963 704.14L745.839 704.289L747.105 705.282L755.795 694.161L754.528 693.168L754.478 693.242ZM761.133 687.235L755.869 684.356L756.763 683.04C759.166 683.884 761.84 683.105 763.417 681.104C764.149 679.984 763.935 678.498 762.92 677.629C762.051 677.008 760.238 677.306 757.508 678.473C753.461 680.384 750.457 680.632 748.495 679.292C745.367 676.809 745.126 673.416 747.775 669.114C748.878 667.496 750.256 666.083 751.847 664.944L756.465 667.997L755.572 669.313C752.641 668.419 750.606 668.891 749.265 670.753C748.545 672.043 748.57 673.036 749.39 673.731C750.209 674.426 752.294 674.054 755.174 672.664C759.196 670.579 762.275 670.306 764.459 671.82C767.263 673.672 768.035 677.445 766.182 680.247C766.036 680.468 765.874 680.679 765.7 680.881C764.881 682.072 763.988 683.239 763.069 684.356C762.804 684.567 762.56 684.81 762.349 685.076C762.156 685.354 762.012 685.666 761.927 685.994L761.158 687.136L761.133 687.235ZM777.022 660.55C776.277 661.988 774.51 662.546 773.071 661.804C772.915 661.722 772.766 661.628 772.627 661.518L758.252 652.259L757.806 652.955L755.596 661.916L756.589 662.561L757.955 661.543C758.553 660.689 759.729 660.483 760.581 661.079C760.643 661.124 760.702 661.171 760.76 661.221L768.978 666.483C771.163 667.724 771.659 669.164 770.467 670.753L770.145 671.249L771.485 672.118L778.362 661.419L777.022 660.55ZM746.807 648.71C748.296 646.674 749.961 646.227 751.773 647.195C753.399 648.462 753.776 650.763 752.641 652.483C751.634 654.369 749.288 655.079 747.4 654.072C747.383 654.064 747.368 654.054 747.353 654.047C745.822 652.681 745.566 650.38 746.757 648.71H746.807ZM769.152 641.66L779.877 647.766C780.821 648.541 782.213 648.404 782.988 647.461C783.114 647.305 783.221 647.133 783.303 646.947C783.881 645.455 783.745 643.782 782.931 642.405H784.693C786.084 645.056 786.084 648.218 784.693 650.869C783.598 653.518 780.563 654.774 777.915 653.679C777.459 653.491 777.034 653.237 776.649 652.93L766.122 646.947L764.732 649.43L763.516 648.735C763.866 644.961 762.766 641.198 760.437 638.21L761.133 637.018L766.669 640.146L769.897 634.436L772.031 636.348L769.077 641.536L769.152 641.66ZM793.855 632.302L795.146 634.114C796.625 635.839 797.087 638.215 796.362 640.369C795.888 641.268 795.739 642.303 795.94 643.298C796.345 643.966 796.876 644.547 797.504 645.011C798.937 645.791 800.732 645.262 801.511 643.83C801.553 643.753 801.591 643.676 801.625 643.596C802.442 641.553 802.008 639.225 800.508 637.614L785.612 616.936C784.025 615.486 783.442 613.24 784.122 611.202L782.707 610.457L778.263 618.897L779.679 619.642C781.143 617.16 782.757 616.936 784.495 619.046L789.46 626.17L779.778 625.798C778.61 625.798 777.915 625.475 777.766 624.929C777.618 624.383 777.543 623.638 778.164 622.447L776.749 621.702L770.567 633.245L771.982 633.99C772.602 632.227 774.713 631.507 778.337 631.731L793.855 632.302Z" fill="white"/>
<path d="M674.55 279.041C783.63 388.101 783.63 564.911 674.55 673.971C565.48 783.031 388.631 783.031 279.556 673.971C170.481 564.911 170.481 388.101 279.556 279.041C388.631 169.981 565.48 169.981 674.55 279.041Z" stroke="white" stroke-width="2.48251" stroke-linecap="round" stroke-linejoin="round"/>
<path d="M887.648 437.552C909.164 664.289 742.772 865.536 516 887.048C289.228 908.561 87.951 742.193 66.4349 515.457C44.9188 288.72 211.311 87.4745 438.083 65.9618C664.855 44.4489 866.132 210.816 887.648 437.552Z" stroke="white" stroke-width="2.48251" stroke-linecap="round" stroke-linejoin="round"/>
<path d="M905.545 428.577C932.007 665.194 761.612 878.458 524.958 904.915C288.303 931.373 75.0067 761.004 48.5454 524.387C22.0839 287.769 192.478 74.5053 429.133 48.0479C665.787 21.5907 879.084 191.959 905.545 428.577Z" stroke="white" stroke-width="2.48251" stroke-linecap="round" stroke-linejoin="round"/>
</svg>
