<svg xmlns="http://www.w3.org/2000/svg" xmlns:xlink="http://www.w3.org/1999/xlink" width="474" height="478" viewBox="0 0 474 478" fill="none">
<g  clip-path="url(#clip-path-tDF7SKEHhtiYR-GNMAXXF)">
<path d="M221.648 13.8039C347.156 6.08559 455.106 101.675 462.636 227.192C470.163 352.71 374.411 460.515 248.88 467.852C123.621 475.175 16.0955 379.672 8.58359 254.425C1.07169 129.176 96.412 21.5056 221.648 13.8039Z"   fill="#03559B" >
</path>
<path d="M225.07 17.7268C348.282 11.8934 452.889 107.058 458.707 230.272C464.522 353.485 369.344 458.08 246.13 463.88C122.94 469.677 18.3698 374.52 12.5548 251.333C6.73974 128.142 101.881 23.559 225.07 17.7268Z"   fill="#FEFEFE" >
</path>
<path d="M230.069 24.4173C349.48 21.3521 448.798 115.601 451.99 235.008C455.18 354.415 361.035 453.832 241.632 457.15C122.051 460.47 22.4521 366.155 19.2566 246.571C16.0612 126.987 110.481 27.487 230.069 24.4173Z"   fill="#03559B" >
</path>
<path d="M224.6 77.3472C314.98 71.2535 393.153 139.659 399.103 230.047C405.056 320.435 336.526 398.5 246.128 404.31C155.931 410.105 78.079 341.762 72.141 251.575C66.2027 161.387 134.422 83.4275 224.6 77.3472Z"   fill="#FEFEFE" >
</path>
<path d="M153.699 216.688C157.393 215.098 161.846 213.128 165.807 212.425C162.322 214.248 159.71 216.708 156.539 218.929C155.09 220.346 153.475 221.612 152.103 223.104C145.024 230.803 140.309 240.431 140.206 250.985C140.126 259.175 144.634 266.46 150.262 272.112C165.785 287.707 191.477 292.947 212.757 292.97C241.485 293 275.573 283.767 298.977 266.775C304.95 262.44 310.232 257.257 315.412 252.027C321.017 246.383 326.162 240.302 330.802 233.841C333.57 229.944 336.327 226 338.735 221.868C339.562 220.446 341.167 216.778 342.28 215.849C341.85 217.52 341.225 219.111 340.612 220.721L340.605 220.925C340.577 221.69 340.17 222.863 340.552 223.465C340.685 223.422 340.818 223.375 340.95 223.334C341.487 223.172 341.267 223.19 341.767 223.27L341.962 224.082L342.263 224.155L342.508 223.782L342.33 223.093C342.89 222.629 343.542 222.356 344.193 222.044C345.295 220.848 345.932 218.922 347.003 217.596C347.172 218.089 346.782 218.706 346.597 219.193C346.587 219.294 346.58 219.395 346.57 219.496C346.405 221.115 345.975 222.691 345.177 224.117L345.285 224.55L345.812 224.444C346.513 223.313 346.957 221.831 348.172 221.212L348.378 220.857C349.195 219.413 349.782 216.976 350.892 215.846C351.147 219.006 347.225 226.392 346.725 230.301C348.28 229.862 354.167 216.867 356.175 214.859L356.41 214.912C356.242 215.229 356.08 215.552 355.905 215.866C354.837 217.781 354.185 219.955 353.622 222.071L353.55 222.356C353.562 222.448 353.577 222.54 353.587 222.633C353.747 224.102 352.832 224.894 352.9 226.102C354.165 225.636 353.71 223.755 355.497 223.745L355.812 224.011C355.01 226.007 354.37 227.93 353.97 230.048C355.92 227.778 357.045 224.904 358.807 222.493C357.867 225.46 354.932 234.963 353.655 236.946C351.455 243.545 346.88 251.865 343.295 257.875C341.397 261.052 338.88 264.29 337.595 267.747C337.615 268.722 337.883 269.517 338.182 270.432C337.487 271.1 336.777 271.755 336.105 272.447L337.582 275.417C332.628 280.87 326.717 285.342 321.712 290.722C320.508 289.438 319.025 288.44 317.607 287.405C313.185 289.19 306.397 293.575 302.777 296.722C302.605 297.412 302.455 298.09 302.342 298.79C301.812 301.177 301.325 303.305 301.542 305.77L280.275 314.955C279.115 312.987 277.335 311.215 276.372 309.19C271.935 310.012 267.587 311.452 263.267 312.747C260.025 313.722 256.652 314.597 253.502 315.842C253.217 316.938 252.927 318.003 252.795 319.128L252.082 323.45C244.726 325.23 237.5 326.555 230.013 327.622C227.134 328.032 224.196 328.592 221.287 328.685C219.715 326.13 218.794 323.197 217.523 320.485C213.546 320.48 209.539 320.555 205.566 320.38C201.272 320.19 196.667 319.4 192.403 319.967C190.846 322.722 189.142 325.505 188.121 328.507C181.078 326.772 173.92 325.45 166.818 323.982C162.832 323.157 158.508 321.837 154.447 321.652C154.451 319.585 154.5 317.517 154.593 315.45C154.909 314.545 155.02 313.568 155.177 312.622C149.339 308.85 143.638 304.872 137.784 301.128C135.405 302.202 132.985 303.225 130.709 304.507C126.656 298.38 122.748 292.217 119.307 285.72L121.866 283.882C121.881 283.005 120.669 281.392 120.195 280.58C121.81 279.415 123.37 278.102 124.901 276.827L124.873 276.193C124.139 273.667 123.409 271.165 123.177 268.537C120.703 268.688 118.226 268.76 115.748 268.76C116.193 266.797 116.338 264.777 116.781 262.812C117.434 260.495 117.735 257.985 118.229 255.62C118.91 252.362 119.79 249.156 120.68 245.949C121.153 244.241 121.507 242.386 122.367 240.828C123.65 239.819 126.124 240.26 127.698 240.332C135.358 229.951 141.829 222.509 153.699 216.688Z"   fill="url(#linear_fill_gP8ScYQq64xPQkIy2tLR9)" >
</path>
<path d="M193.355 314.712C196.814 315.435 200.822 314.87 204.386 314.992C209.157 315.155 213.903 315.707 218.68 315.825C218.708 315.918 218.737 316.01 218.763 316.103C219.532 318.845 220.961 321.34 222.109 323.943C227.223 322.598 232.8 322.45 238.033 321.622C242.296 320.95 248.78 318.823 252.795 319.128L252.082 323.45C244.726 325.23 237.5 326.555 230.013 327.622C227.134 328.033 224.196 328.592 221.287 328.685C219.715 326.13 218.794 323.198 217.523 320.485C213.546 320.48 209.539 320.555 205.566 320.38C201.272 320.19 196.667 319.4 192.403 319.967C192.301 319.902 192.21 319.818 192.1 319.767C191.566 319.527 191.337 319.71 190.852 319.93C191.516 318.115 192.458 316.422 193.355 314.712Z"   fill="#03559B" >
</path>
<path d="M300.583 301.665C301.1 300.747 301.453 299.38 302.342 298.79C301.812 301.177 301.325 303.305 301.543 305.77L280.275 314.955C279.115 312.987 277.335 311.215 276.372 309.19C271.935 310.013 267.587 311.453 263.267 312.747C260.025 313.723 256.652 314.598 253.503 315.842C253.56 313.825 253.867 312.265 254.753 310.438C261.9 307.625 269.663 306.395 276.892 303.81C278.32 305.777 279.695 307.845 281.335 309.642C284.027 308.95 286.633 307.598 289.177 306.485C292.955 304.825 296.758 303.217 300.583 301.665Z"   fill="#03559B" >
</path>
<path d="M121.866 283.883C121.909 283.938 121.953 283.99 121.995 284.043C124.707 287.517 128.592 296.655 131.916 298.795C134.058 299.022 136.718 296.93 138.327 295.625L138.556 295.435C141.059 297.805 144.168 299.565 147.048 301.435C149.996 303.355 152.897 305.348 155.748 307.41C155.649 308.872 155.787 311.34 155.177 312.622C149.339 308.85 143.638 304.872 137.784 301.128C135.405 302.203 132.985 303.225 130.71 304.508C126.656 298.38 122.748 292.217 119.307 285.72L121.866 283.883Z"   fill="#223F8A" >
</path>
<path d="M154.594 315.45C158.556 317.413 183.611 322.495 189.113 323.087C189.718 322.047 190.336 321.02 190.852 319.93C191.336 319.71 191.566 319.527 192.099 319.767C192.21 319.818 192.301 319.902 192.403 319.967C190.846 322.723 189.142 325.505 188.121 328.508C181.078 326.772 173.921 325.45 166.818 323.983C162.832 323.158 158.508 321.837 154.447 321.652C154.451 319.585 154.5 317.517 154.594 315.45Z"   fill="#223F8A" >
</path>
<path d="M322.293 285.033C327.615 281.435 331.39 276.672 336.105 272.448L337.583 275.418C332.628 280.87 326.717 285.342 321.712 290.723C320.508 289.438 319.025 288.44 317.608 287.405C313.185 289.19 306.397 293.575 302.777 296.723C302.237 295.56 302.487 293.763 302.495 292.497C306.818 288.783 313.24 285.045 318.082 281.772C319.457 282.905 320.845 283.992 322.293 285.033Z"   fill="#03559B" >
</path>
<path d="M346.725 230.301C348.28 229.863 354.168 216.867 356.175 214.859L356.41 214.912C356.242 215.229 356.08 215.552 355.905 215.866C354.837 217.781 354.185 219.955 353.622 222.071L353.55 222.356C353.562 222.448 353.578 222.54 353.587 222.633C353.747 224.102 352.832 224.895 352.9 226.102C354.165 225.636 353.71 223.755 355.497 223.745L355.812 224.011C353.163 225.046 353.388 230.178 350.395 231.456C349.105 232.245 349.172 234.963 347.725 236.029C348.17 234.732 348.88 233.036 348.715 231.662C348.203 231.087 348.045 231.155 347.307 231.043C347.275 231.07 347.247 231.106 347.21 231.126C345.555 231.993 345.3 233.812 344.025 235.12C344.233 233.809 344.922 232.571 345.467 231.369L343.21 230.436C344.672 227.278 346.895 224.479 348.172 221.213L348.378 220.857C349.195 219.413 349.783 216.977 350.892 215.846C351.147 219.007 347.225 226.392 346.725 230.301Z"   fill="#50B2DC" >
</path>
<path d="M350.395 231.456C351.062 228.405 352.448 225.283 353.55 222.356C353.562 222.448 353.578 222.54 353.587 222.633C353.747 224.102 352.832 224.895 352.9 226.102C354.165 225.636 353.71 223.755 355.497 223.745L355.812 224.011C353.163 225.046 353.388 230.177 350.395 231.456Z"   fill="#DEF4F7" >
</path>
<path d="M116.781 262.812C118.748 263.682 121.492 263.28 123.618 263.198C123.958 264.672 124.203 266.272 124.663 267.707L123.177 268.538C120.703 268.688 118.226 268.76 115.748 268.76C116.193 266.797 116.338 264.777 116.781 262.812Z"   fill="#223F8A" >
</path>
<path d="M344.193 222.044C345.295 220.848 345.932 218.922 347.003 217.596C347.172 218.089 346.783 218.706 346.598 219.194C346.587 219.294 346.58 219.395 346.57 219.496C346.405 221.115 345.975 222.692 345.177 224.118L345.285 224.55L345.812 224.444C346.513 223.313 346.957 221.832 348.172 221.213C346.895 224.479 344.672 227.278 343.21 230.436L342.325 230.449C341.74 232.427 341.15 234.254 339.908 235.93C340.25 234.334 341.828 231 341.305 229.549C340.99 228.668 340.225 228.67 339.43 228.428C341.547 226.716 343.052 224.5 344.193 222.044Z"   fill="#50B2DC" >
</path>
<path d="M346.598 219.193C346.587 219.294 346.58 219.395 346.57 219.496C346.405 221.115 345.975 222.691 345.177 224.117L345.285 224.55L345.812 224.444C346.513 223.313 346.957 221.831 348.172 221.212C346.895 224.478 344.672 227.278 343.21 230.436L342.325 230.449C343.655 226.689 344.943 222.822 346.598 219.193Z"   fill="#DEF4F7" >
</path>
<path d="M337.595 267.748L337.128 267.35C336.997 266.553 336.94 265.925 337.27 265.17C338.28 262.858 340.307 260.675 341.682 258.535C343.848 255.17 345.865 251.498 347.712 247.951C349.557 244.416 350.82 240.276 352.885 236.921L353.655 236.946C351.455 243.545 346.88 251.865 343.295 257.875C341.397 261.053 338.88 264.29 337.595 267.748Z"   fill="#03559B" >
</path>
<path d="M340.612 220.721L340.605 220.926C340.578 221.69 340.17 222.863 340.552 223.465C340.685 223.422 340.818 223.375 340.95 223.334C341.487 223.172 341.267 223.19 341.767 223.27L341.962 224.082L342.263 224.156L342.508 223.782L342.33 223.093C342.89 222.629 343.543 222.356 344.193 222.044C343.052 224.5 341.547 226.716 339.43 228.428L339.297 228.469C338.642 228.294 338.655 228.253 338.255 227.695C337.967 225.722 339.733 222.499 340.612 220.721Z"   fill="#DEF4F7" >
</path>
<path d="M123.177 268.538L124.663 267.707C125.091 269.425 126.523 273.622 125.702 275.253C125.524 275.608 125.169 275.938 124.873 276.193C124.139 273.668 123.409 271.165 123.177 268.538Z"   fill="#282363" >
</path>
<path d="M153.699 216.688C157.393 215.098 161.846 213.128 165.807 212.425C162.323 214.248 159.71 216.708 156.539 218.929L156.339 218.456C157.273 217.852 158.275 217.248 158.66 216.15C157.669 215.361 155.42 216.711 154.168 216.704C154.012 216.703 153.855 216.693 153.699 216.688Z"   fill="#03559B" >
</path>
<path d="M144.659 196.063C147.467 192.414 152.053 185.209 155.431 182.566C159.56 179.336 185.567 172.875 192.199 171.372C197.405 170.191 202.712 169.279 207.965 168.326C223.019 165.594 244.694 164.255 259.1 170.071C262.11 171.287 264.698 173.005 267.35 174.841C267.76 175.467 267.935 176.107 268.758 176.19C268.85 176.199 269.4 176.146 269.473 176.14C270.35 176.072 270.81 176.155 271.505 176.735C272.662 177.701 273.258 179.253 274.432 180.274C277.44 182.891 282.008 186.691 285.237 188.883C286.45 189.706 287.915 190.061 289.138 190.838C290.193 191.509 291.025 192.483 292.107 193.158C293.647 194.119 295.62 193.646 297.22 194.704C298.578 195.6 298.61 197.791 300.427 197.898C300.31 198.635 300.212 199.328 300.217 200.075C294.487 221.149 282.042 235.37 263.355 246.096C240.306 259.323 213.019 265.503 187.191 270.615C181.456 271.75 172.529 273.813 166.96 273.855C173.994 271.86 180.957 269.623 187.837 267.148C190.083 266.333 192.57 265.613 194.658 264.463L194.822 264.075L194.631 263.93C191.767 264.433 188.949 265.323 186.136 266.063L173.232 269.4C171.003 269.99 168.44 271.053 166.169 271.183C166.868 270.218 168.961 269.75 170.084 269.38C168.643 269.078 167.329 270.088 165.878 270.058L165.858 269.625C166.391 269 166.549 268.79 167.406 268.715C167.93 268.668 168.365 268.685 168.805 268.36C169.185 268.08 169.102 268.06 169.177 267.635C168.539 267.895 168.059 268.075 167.353 268.083L167.37 267.853C169.099 266.925 170.928 266.295 172.709 265.483L172.833 265.063C173.631 264.333 186.032 259.243 187.709 258.485L187.742 258.278C186.686 258.013 172.445 264.06 171.271 263.698C171.173 263.668 171.078 263.628 170.981 263.593C170.275 263.655 169.395 264.028 168.698 264.223L168.747 264.003C179.073 258.705 189.246 253.113 199.255 247.237C211.923 239.802 242.193 221.181 245.896 206.349C246.48 204.007 246.395 201.507 245.077 199.421C242.816 195.843 237.906 194.013 233.986 193.064C212.474 187.851 175.53 196.989 155.311 204.852C145.233 208.715 135.528 213.491 126.318 219.12C130.714 214.549 137.996 202.893 142.067 200.007C145.503 197.571 151.48 196.013 155.499 194.554C180.732 185.398 215.698 177.06 242.44 181.035C243.428 180.607 244.343 180.919 245.411 180.961C245.618 180.739 245.635 180.801 245.585 180.432C245.461 179.51 241.263 179.247 240.41 178.544C240.314 178.466 240.225 178.381 240.133 178.299C213.83 174.15 168.941 185.349 144.659 196.063Z"   fill="url(#linear_fill_PUsapZuC-8KOznxoJL7Of)" >
</path>
<path d="M190.094 262.455C191.996 262.125 194.057 261.228 195.915 260.628C195.719 261.275 195.182 261.638 194.693 262.07C194.407 262.71 194.539 263.263 194.631 263.93C191.768 264.432 188.949 265.323 186.136 266.062L173.232 269.4C171.003 269.99 168.44 271.052 166.169 271.182C166.868 270.217 168.961 269.75 170.084 269.38C172.738 269.27 186.683 263.775 190.094 262.455Z"   fill="#223F8A" >
</path>
<path d="M169.177 267.635C170.975 266.86 172.999 266.38 174.876 265.805C179.236 264.475 183.639 263.267 187.967 261.837C188.689 262.003 189.436 262.112 190.095 262.455C186.683 263.775 172.738 269.27 170.084 269.38C168.643 269.078 167.329 270.087 165.878 270.057L165.858 269.625C166.391 269 166.549 268.79 167.406 268.715C167.93 268.668 168.365 268.685 168.806 268.36C169.185 268.08 169.102 268.06 169.177 267.635Z"   fill="#DEF4F7" >
</path>
<path d="M240.133 178.299C243.559 178.814 246.831 179.44 249.945 181.045C253.518 182.686 256.53 184.579 259.087 187.599C256.065 185.793 253.175 184.154 249.874 182.887C247.421 182.095 244.961 181.557 242.44 181.035C243.428 180.607 244.343 180.919 245.411 180.961C245.618 180.739 245.635 180.801 245.585 180.432C245.461 179.51 241.263 179.247 240.41 178.544C240.314 178.466 240.225 178.381 240.133 178.299Z"   fill="#F5FDCD" >
</path>
<path d="M189.508 256.793C189.991 257.075 190.471 257.332 190.877 257.723C186.463 259.633 182.091 261.663 177.654 263.517C176.081 264.175 174.36 265.07 172.709 265.483L172.833 265.062C173.631 264.332 186.032 259.242 187.709 258.485L187.742 258.277C186.686 258.013 172.445 264.06 171.271 263.698C171.173 263.668 171.078 263.628 170.982 263.592C176.941 260.892 183.427 259.237 189.508 256.793Z"   fill="#DEF4F7" >
</path>
<path d="M187.967 261.837C192.008 260.605 196.036 259.33 200.05 258.01C202.883 257.068 205.686 255.927 208.637 255.42C204.7 257.76 200.039 258.68 195.915 260.627C194.057 261.227 191.997 262.125 190.094 262.455C189.436 262.112 188.689 262.002 187.967 261.837Z"   fill="#B4CFF4" >
</path>
<path d="M206.333 250.208C202.358 252.665 195.273 256.37 190.877 257.723C190.471 257.332 189.991 257.075 189.508 256.793C195.108 254.663 200.581 251.883 206.333 250.208Z"   fill="#DEF4F7" >
</path>
<path d="M171.077 162.204C173.649 159.185 175.624 155.671 178.24 152.703C179.163 151.656 180.192 150.772 181.458 150.166C184.685 148.619 188.729 147.976 192.212 147.113C205.246 143.885 218.3 140.907 231.758 140.143C253.555 138.904 272.562 142.482 289.335 157.427C291.588 154.538 294.138 151.611 297.275 149.661C305.65 143.188 318.663 144.527 328.617 143.681C321.143 150.049 316.478 155.161 311.638 163.783C308.038 171.103 305.838 178.467 303.867 186.366C302.728 190.945 301.735 195.602 300.218 200.075C300.213 199.328 300.31 198.634 300.427 197.897C298.61 197.79 298.578 195.6 297.22 194.704C295.62 193.646 293.648 194.119 292.108 193.157C291.025 192.482 290.193 191.509 289.138 190.838C287.915 190.06 286.45 189.706 285.237 188.883C282.008 186.691 277.44 182.891 274.432 180.274C273.258 179.253 272.663 177.701 271.505 176.735C270.81 176.154 270.35 176.072 269.473 176.14C269.4 176.146 268.85 176.199 268.758 176.19C267.935 176.107 267.76 175.467 267.35 174.841C267.34 174.654 267.345 174.538 267.275 174.349C266.405 171.966 260.815 169.258 258.633 168.264C233.612 156.864 183.761 168.753 158.554 178.277C161.478 174.773 165.314 168.074 168.757 165.531C171.167 163.751 178.557 162.477 181.781 161.641C202.252 156.334 223.674 152.04 244.928 153.947C248.378 154.257 251.758 154.881 255.17 155.45C257.74 154.688 263.39 158.035 264.885 157.503L264.648 157.001C263.918 156.463 261.448 155.467 260.543 155.29C259.182 155.023 257.8 154.457 256.495 153.994L256.258 153.614C248.972 151.574 241.858 151.206 234.337 151.227C230.106 151.238 225.874 151.203 221.654 151.551C204.814 152.94 187.365 157.663 171.077 162.204Z"   fill="url(#linear_fill_KVqdolT5Uqm2LI4oCM-__)" >
</path>
<path d="M328.617 143.682C321.142 150.049 316.478 155.161 311.638 163.783C311.64 163.728 311.645 163.673 311.647 163.617C311.698 162.476 313.348 160.264 313.152 159.554C312.747 158.08 303.905 151.996 302.795 147.193C301.08 147.988 299.117 149.415 297.275 149.661C305.65 143.188 318.663 144.528 328.617 143.682Z"   fill="#50B2DC" >
</path>
<path d="M256.258 153.614C263.145 155.102 270.425 158.495 275.908 162.912C273.09 161.773 270.37 160.419 267.54 159.307C263.503 157.72 259.362 156.545 255.17 155.45C257.74 154.688 263.39 158.035 264.885 157.503L264.647 157.002C263.918 156.463 261.448 155.467 260.543 155.29C259.182 155.024 257.8 154.457 256.495 153.994L256.258 153.614Z"   fill="#F5FDCD" >
</path>
<path d="M226.599 390.09C224.971 389.457 223.73 388.625 223.051 386.93C222.61 385.83 222.749 384.658 223.225 383.598C223.869 382.175 225.059 381.075 226.526 380.545C228.102 379.962 230.077 379.897 231.598 380.675C232.544 381.16 233.241 381.957 233.549 382.967C234.811 385.658 234.49 390.015 233.526 392.795C233.09 394.055 232.349 395.395 231.117 396.02C229.819 396.677 228.036 396.52 226.609 396.505C227.499 395.99 227.867 395.47 228.415 394.61C228.71 394.485 228.973 394.348 229.229 394.152C229.939 393.608 230.503 392.125 230.518 391.24C230.53 390.543 230.447 390.293 229.975 389.795C228.827 390.087 227.777 390.337 226.599 390.09Z"   fill="#03559B" >
</path>
<path d="M230.588 383.245L230.905 384.235C231.748 383.897 231.675 382.655 232.544 382.217C232.774 382.562 233.008 382.897 233.253 383.233L233.549 382.967C234.811 385.658 234.49 390.015 233.526 392.795C233.09 394.055 232.349 395.395 231.117 396.02C229.819 396.677 228.036 396.52 226.609 396.505C227.499 395.99 227.867 395.47 228.415 394.61C228.71 394.485 228.973 394.348 229.229 394.152C229.939 393.608 230.503 392.125 230.518 391.24C230.53 390.543 230.447 390.293 229.975 389.795C229.947 389.543 229.94 389.663 230.008 389.383C230.157 388.772 230.243 388.302 230.227 387.675C230.434 386.205 230.504 384.728 230.588 383.245Z"   fill="#03559B" >
</path>
<path d="M226.786 387.55C226.608 386.087 226.323 384.258 227.188 382.948C227.411 382.61 227.737 382.332 228.14 382.265C229.124 382.095 229.844 382.698 230.588 383.245C230.504 384.728 230.434 386.205 230.227 387.675C230.243 388.302 230.157 388.772 230.008 389.383C229.94 389.663 229.947 389.543 229.975 389.795C228.827 390.087 227.777 390.337 226.599 390.09C226.731 389.228 226.399 388.355 226.786 387.55Z"   fill="#DEF4F7" >
</path>
<path d="M226.786 387.55C228.045 387.835 228.961 387.9 230.227 387.675C230.243 388.302 230.157 388.772 230.008 389.383C229.94 389.663 229.947 389.543 229.975 389.795C228.827 390.087 227.777 390.337 226.599 390.09C226.731 389.228 226.399 388.355 226.786 387.55Z"   fill="#223F8A" >
</path>
<path d="M236.725 380.272C240.313 380.693 243.984 380.112 247.611 380.497C246.517 385.867 244.23 391.212 242.46 396.41C241.268 396.59 240.047 396.453 238.848 396.385C240.782 392.05 242.274 387.307 243.768 382.797C241.625 382.765 238.814 383.408 236.916 382.34C236.518 381.595 236.671 381.103 236.725 380.272Z"   fill="#03559B" >
</path>
<path d="M216.256 379.255L219.54 379.207C219.228 384.587 218.361 389.957 217.912 395.332C216.816 395.362 215.719 395.467 214.657 395.152C214.228 394.665 214.316 394.6 214.34 393.938C214.757 390.115 215.516 386.288 215.479 382.432C214.923 382.733 214.367 383.043 213.797 383.318C213.116 383.647 212.75 383.69 212.042 383.448C211.819 382.957 211.778 382.902 211.996 382.375C212.762 380.522 214.547 379.935 216.256 379.255Z"   fill="#03559B" >
</path>
<path d="M251.13 389.795C251.018 387.03 249.661 382.948 250.602 380.345L251.125 380.172L251.445 380.49C252.17 381.217 252.39 381.84 253.372 382.237C253.558 383.46 253.565 384.655 253.575 385.888C255.543 385.29 257.733 384.81 259.655 385.812C260.79 386.405 261.622 387.533 261.967 388.753C262.388 390.245 262.142 391.767 261.328 393.082C260.625 394.212 259.665 394.88 258.475 395.422C258.38 394.785 258.253 394.25 258.038 393.64C258.383 392.545 258.652 391.092 258.45 389.948C258.29 389.05 257.86 387.953 257.015 387.51C256.497 387.237 255.808 387.32 255.318 387.615C254.698 387.99 254.63 388.465 254.467 389.12C253.465 389.89 252.333 389.767 251.13 389.795Z"   fill="#03559B" >
</path>
<path d="M258.475 395.422C257.432 395.733 256.272 395.872 255.188 395.795C254.045 395.712 252.307 395.388 251.6 394.362C251.065 393.592 251.107 393.005 251.242 392.138L251.697 391.825C253.01 391.892 254.318 392.562 255.41 393.27C255.53 393.348 255.95 393.63 256.092 393.707C256.835 394.108 257.283 393.853 258.038 393.64C258.253 394.25 258.38 394.785 258.475 395.422Z"   fill="#223F8A" >
</path>
<path d="M251.125 380.172C253.182 380.112 259.078 378.943 260.552 380.325C260.535 380.95 260.41 380.915 260.008 381.355C258.057 381.888 256.09 381.967 254.087 382.105C253.695 382.13 253.83 382.12 253.372 382.237C252.39 381.84 252.17 381.217 251.445 380.49L251.125 380.172Z"   fill="#223F8A" >
</path>
<path d="M226.609 396.505C226.111 396.397 225.586 396.29 225.118 396.082C224.301 395.717 223.202 394.533 223.038 393.63C222.915 392.953 223.044 392.82 223.425 392.315C224.529 391.815 225.419 391.867 226.558 392.23C226.773 392.78 226.832 393.325 226.907 393.905C227.454 394.527 227.625 394.467 228.415 394.61C227.867 395.47 227.499 395.99 226.609 396.505Z"   fill="#245F6F" >
</path>
<path d="M202.609 384.578C203.611 384.885 204.842 385.098 205.592 385.86C205.779 386.362 205.834 386.64 205.707 387.152C205.54 387.832 205.446 388.497 205.356 389.19C204.458 389.07 203.042 388.712 202.425 388.05C202.247 387.517 202.166 387.25 202.314 386.703C202.504 385.995 202.551 385.305 202.609 384.578Z"   fill="#223F8A" >
</path>
<path d="M268.24 384.035L268.962 384.022C269.828 383.997 270.505 383.848 271.253 384.353C271.888 385.355 271.772 386.31 271.535 387.445C270.54 387.688 269.733 387.902 268.79 387.453C268.175 386.515 268.295 385.13 268.24 384.035Z"   fill="#223F8A" >
</path>
<path d="M318.062 51.712C318.592 50.9423 318.945 50.3075 319.832 49.941C320.522 49.9898 320.807 50.0215 321.288 50.5528C322.092 51.4443 322.513 53.1928 322.823 54.3523C321.505 55.7555 319.81 57.248 319.23 59.1308L319.415 59.5815L319.74 59.6048C320.705 58.4015 321.342 57.2415 322.02 55.862C323.225 56.7325 324.28 57.3018 325.717 57.7288C328.115 56.1533 330.207 54.6423 331.925 52.3055C332.82 53.248 333.437 54.1363 334.077 55.2563C333.567 56.443 333.03 57.3828 332.117 58.3023C330.49 58.7895 328.622 59.1073 327.145 59.9313L327.2 60.1915C329.812 60.6038 335.547 58.5435 337.177 60.9143C337.535 61.435 337.56 61.6393 337.587 62.246C336.892 63.7408 335.257 64.3088 333.8 64.8408C331.43 65.7043 328.975 66.4438 326.682 67.495C328.83 68.055 330.802 68.402 332.03 70.4493C332.247 70.8125 332.29 71.1043 332.332 71.5178C332.022 72.0908 331.84 72.3018 331.205 72.5163C328.717 73.357 324.995 72.8125 322.402 72.5658C322.23 72.93 322.19 73.2108 322.145 73.6025C322.085 74.1005 321.99 74.3378 321.67 74.7398C320.108 75.547 318.378 75.1855 316.73 75.7388C318.55 76.3028 322.538 76.6888 323.445 78.4618C323.77 79.0978 323.775 79.6443 323.513 80.295C323.315 80.7853 323.152 80.8568 322.767 81.1898C320.92 81.6273 318.55 80.0758 316.875 79.2945C316.03 81.8378 314.973 84.2763 313.41 86.4703C312.035 86.5205 310.478 86.8028 309.375 85.7918C307.883 84.4235 307.495 81.3928 306.737 79.527C307.943 80.457 309.14 81.3948 310.33 82.3405C311.608 81.0845 312.38 79.8268 313.147 78.2038C311.312 77.6935 306.413 76.961 305.418 75.1943C305.142 74.7025 305.08 74.3673 305.185 73.8043C305.29 73.257 305.675 72.7088 306.128 72.4073C308.538 72.599 311.263 74.1828 313.7 74.7838L316.735 73.3775C315.793 73.0098 314.767 72.7545 314.13 71.9295C313.913 71.2388 313.925 70.8765 314.022 70.1803C314.168 69.6518 314.128 68.983 314.158 68.4308C313.888 68.3008 313.62 68.1695 313.362 68.0183C312.663 67.6075 312.043 66.9738 311.918 66.1415C311.81 65.424 312.075 65.0253 312.448 64.4685L312.573 64.2488L311.793 63.0308C311.715 63.0295 311.635 63.035 311.557 63.0268C310.872 62.9528 310.367 62.579 309.975 62.0355C309.612 59.6758 312.355 59.007 313.432 57.429C313.995 56.6063 313.888 55.2468 314.408 54.2985L315.275 54.2658C316.307 54.032 317.163 52.3788 318.062 51.712Z"   fill="#FEFEFE" >
</path>
<path d="M318.062 51.712C318.592 50.9423 318.945 50.3075 319.832 49.941C320.522 49.9898 320.807 50.0215 321.288 50.5528C322.092 51.4443 322.513 53.1928 322.823 54.3523C321.505 55.7555 319.81 57.248 319.23 59.1308L319.415 59.5815L319.74 59.6048C320.41 59.9643 321.055 60.2998 321.767 60.5663C322.405 61.2248 322.513 61.9185 322.723 62.79C322.82 62.8005 322.918 62.8075 323.013 62.8215C323.362 62.8725 323.543 62.9528 323.84 63.1248C324.478 64.128 324.98 65.0725 324.723 66.2918C324.4 66.6513 324.335 66.8098 323.818 66.8305C322.707 66.875 321.54 66.215 320.612 65.678L320.302 65.8663C319.91 65.2545 319.605 64.867 319.043 64.4078C318.13 64.3043 317.823 64.526 316.997 64.8878C316.445 65.542 315.992 65.3928 315.163 65.4675C314.263 65.2505 313.323 64.7958 312.448 64.4685L312.573 64.2488L311.793 63.0308C311.715 63.0295 311.635 63.035 311.557 63.0268C310.872 62.9528 310.367 62.579 309.975 62.0355C309.612 59.6758 312.355 59.007 313.432 57.429C313.995 56.6063 313.888 55.2468 314.408 54.2985L315.275 54.2658C316.307 54.032 317.163 52.3788 318.062 51.712Z"   fill="#DEF4F7" >
</path>
<path d="M311.793 63.0308C313.348 62.4353 316.652 60.3 318.175 60.7433L318.513 61.0635C317.853 62.164 316.37 62.578 315.878 63.7435C316.112 64.4513 316.383 64.4932 316.997 64.8878C316.445 65.542 315.992 65.3928 315.163 65.4675C314.263 65.2505 313.323 64.7958 312.448 64.4685L312.573 64.2488L311.793 63.0308Z"   fill="#223F8A" >
</path>
<path d="M315.275 54.2658C316.307 54.032 317.163 52.3788 318.062 51.712C318.802 53.5325 318.475 54.252 317.728 56.0135C316.812 58.1695 315.255 60.0928 313.062 60.968L312.755 61.0878L312.568 61.164C313.957 59.668 316.155 57.9865 316.408 55.88C316.235 55.0673 315.895 54.7943 315.275 54.2658Z"   fill="#03559B" >
</path>
<path d="M314.158 68.4307C318.073 68.3355 321.802 70.0197 325.712 69.9525L325.688 70.2455C322.27 72.621 317.825 70.5285 314.022 70.1802C314.168 69.6517 314.128 68.983 314.158 68.4307Z"   fill="#223F8A" >
</path>
<path d="M316.997 64.8878C317.823 64.526 318.13 64.3043 319.043 64.4078C319.605 64.867 319.91 65.2545 320.302 65.8663C318.765 66.1213 316.527 66.2763 315.163 65.4675C315.992 65.3928 316.445 65.542 316.997 64.8878Z"   fill="#03559B" >
</path>
<path d="M394.665 328.193C394.783 327.763 394.91 327.335 395.047 326.91C395.985 323.925 397.763 320.707 400.682 319.28C403.057 318.117 406.112 318.45 408.54 319.332C411.402 320.37 414.108 322.552 415.34 325.372C415.992 326.87 416.223 328.392 415.655 329.938C415.438 330.74 415.233 331.53 414.915 332.3C414.277 333.503 413.625 334.57 412.79 335.647C412.23 336.185 411.642 336.853 410.975 337.245C410.228 337.665 409.438 338.003 408.617 338.247C406.027 339.015 402.997 338.135 400.742 336.777C397.467 334.81 395.58 331.853 394.665 328.193Z"   fill="#03559B" >
</path>
<path d="M394.665 328.193C394.783 327.763 394.91 327.335 395.047 326.91C395.985 323.925 397.763 320.707 400.682 319.28C403.057 318.117 406.112 318.45 408.54 319.332C411.402 320.37 414.108 322.552 415.34 325.372C415.992 326.87 416.223 328.392 415.655 329.938L415.33 329.635L415.205 330.37C414.805 329.755 414.418 329.133 414.043 328.5L413.755 328.515C412.395 325.302 411.08 323.328 407.737 321.908C405.77 321.07 403.552 320.82 401.557 321.712C399.755 322.517 398.395 324.15 397.78 326.013C397.545 326.728 397.367 327.462 397.255 328.207C398.415 331.155 400.04 333.725 403.103 334.997C405.085 335.82 407.785 335.902 409.832 335.203C410.233 334.758 410.807 334.348 411.263 333.953L412.79 335.647C412.23 336.185 411.642 336.853 410.975 337.245C410.228 337.665 409.438 338.003 408.617 338.247C406.027 339.015 402.997 338.135 400.742 336.777C397.467 334.81 395.58 331.853 394.665 328.193Z"   fill="#FEFEFE" >
</path>
<path d="M411.263 333.953L412.79 335.647C412.23 336.185 411.642 336.853 410.975 337.245C410.99 336.255 410.45 335.888 409.832 335.203C410.233 334.758 410.807 334.348 411.263 333.953Z"   fill="#FEFEFE" >
</path>
<path d="M413.755 328.515L414.043 328.5C414.418 329.133 414.805 329.755 415.205 330.37L415.33 329.635L415.655 329.938C415.438 330.74 415.233 331.53 414.915 332.3C414.277 333.503 413.625 334.57 412.79 335.647L411.263 333.953C412.295 332.842 412.885 331.658 413.473 330.283L413.755 328.515Z"   fill="#F5FDCD" >
</path>
<path d="M383.44 349.795C386.052 350.312 388.52 351.128 390.685 352.725C392.878 354.342 394.832 356.828 395.182 359.587C395.51 362.152 394.288 364.802 392.703 366.76C391.198 368.622 389.09 370.133 386.675 370.388C384.525 370.365 382.812 370.025 380.888 369.005C378.06 367.505 375.73 364.825 374.862 361.717C374.247 359.505 374.628 357.397 375.747 355.413C377.508 352.293 380.09 350.755 383.44 349.795Z"   fill="#FEFEFE" >
</path>
<path d="M381.79 352.73C382.888 352.717 384.105 352.665 385.175 352.935C387.82 353.608 390.408 355.585 391.693 357.98C392.508 359.503 392.78 361.332 392.247 362.992C391.51 365.297 389.545 366.795 387.497 367.885C385.438 367.997 383.755 367.562 381.975 366.515C379.345 364.992 377.46 362.455 376.76 359.497C376.853 359.13 376.953 358.765 377.057 358.402C377.85 355.685 379.36 354.068 381.79 352.73Z"   fill="#03559B" >
</path>
<path d="M257.51 420.095C259.72 420.115 262.06 421 263.693 422.485C266.087 424.66 267.237 428.065 267.293 431.25C267.34 433.865 266.467 436.223 264.615 438.092C262.51 440.22 260.438 440.598 257.598 440.612C255.497 440.6 253.635 440.375 251.887 439.103C249.673 437.49 248.526 434.55 248.089 431.918C247.62 429.085 248.272 426.207 250.025 423.913C251.967 421.372 254.48 420.522 257.51 420.095Z"   fill="#FEFEFE" >
</path>
<path d="M256.108 422.513C257.003 422.465 257.98 422.45 258.848 422.685C260.88 423.233 262.598 424.848 263.568 426.675C264.717 428.842 265.112 431.652 264.283 433.997C263.42 436.43 261.767 437.465 259.545 438.467C258.01 438.848 256.652 438.788 255.18 438.172C253.572 437.503 252.367 436.117 251.71 434.53C250.693 432.08 250.595 428.552 251.702 426.14C252.675 424.022 254.045 423.29 256.108 422.513Z"   fill="#03559B" >
</path>
<path d="M82.552 114.599C86.0407 108.228 89.0797 101.12 91.519 94.2895C91.9265 93.148 92.4257 91.2017 93.3897 90.4382C94.103 90.2542 95.0695 90.1312 95.7787 90.3985C96.1035 90.521 96.35 90.6862 96.42 91.0367C96.7957 92.9245 92.5982 102.051 91.5512 104.194C88.7902 107.871 87.526 112.175 86.9847 116.688C86.337 117.204 85.654 117.702 85.0387 118.255C85.9842 119.216 86.9662 120.161 87.8615 121.168C91.4797 125.708 94.4515 131.719 95.84 137.367C94.0822 137.457 91.8065 137.852 90.2152 136.96C88.7825 136.158 89.0537 134.422 88.6397 133.056C87.0367 127.768 80.3672 129.374 77.233 127.596L77.1887 127.222C78.9605 125.662 85.5312 124.939 86.7295 123.708C86.714 122.018 83.9787 118.932 82.981 117.511L83.1722 117.555L81.5417 116.873C80.8682 117.496 80.117 118.033 79.3875 118.588C78.8325 119.788 78.7257 120.642 78.5542 121.916C78.458 122.63 78.2482 123.506 77.6507 123.958C76.615 123.134 76.5275 119.926 76.3782 118.66C73.6342 118.06 69.7262 117.195 67.3285 115.758C66.7745 115.426 66.564 115.245 66.4287 114.617C66.4825 114.541 66.527 114.456 66.5902 114.387C68.476 112.318 77.1547 112.586 80.1027 112.126C81.0737 112.901 81.7915 113.609 82.552 114.599Z"   fill="#FEFEFE" >
</path>
<path d="M241.894 37.7465C243.083 37.6773 244.548 37.7018 245.497 38.5315C246.757 39.635 246.702 41.4873 246.796 43.0215C243.77 46.1925 241.054 49.4073 238.616 53.0613C239.868 52.1253 241.267 51.0938 242.694 50.4458C243.505 50.077 244.553 49.7585 245.406 50.1895C245.978 50.479 246.298 51.0158 246.528 51.592C246.813 52.3068 246.913 52.9515 246.594 53.6688C244.603 55.2858 241.291 55.6215 239.007 56.9438C235.656 58.8838 232.917 62.6878 229.234 63.8421C227.351 64.4324 225.919 63.6329 224.312 62.7396C223.525 62.0603 222.439 61.054 222.065 60.0635C221.806 59.3778 221.923 59.0335 222.167 58.3708C223.718 56.9233 226.203 57.1493 228.197 57.132C232.228 53.786 235.155 49.7118 238.213 45.5085C236.35 46.362 234.66 47.7618 232.695 48.3488C231.903 48.5858 231.055 48.7035 230.31 48.2698C228.891 47.4443 226.867 45.6948 226.415 44.1038C227.163 41.6633 232.584 42.529 234.719 41.721C237.231 40.7708 239.566 39.084 241.894 37.7465Z"   fill="#FEFEFE" >
</path>
<path d="M151.044 65.8753C152.194 63.5978 154.326 57.3478 157.042 56.7083C157.645 56.5663 157.891 56.6638 158.386 57.0285C159.984 58.2073 167.279 77.0298 167.715 79.8145C167.496 80.3705 167.17 80.589 166.641 80.8415C164.446 81.8883 160.275 80.5045 157.916 80.0063C158.798 79.291 159.249 79.475 160.23 79.1805C160.302 79.159 160.372 79.13 160.443 79.1048C158.26 78.8193 155.133 76.268 153.273 74.9875C153.989 73.8053 154.702 71.9288 154.87 70.5508C154.967 69.7635 154.765 69.2395 154.311 68.6198C153.773 68.52 153.299 68.4178 152.785 68.2248L152.557 67.5815C152.533 67.443 152.521 67.3015 152.484 67.166C152.284 66.4378 151.646 66.2445 151.044 65.8753Z"   fill="#FEFEFE" >
</path>
<path d="M156.294 59.471C157.976 61.943 158.496 65.4583 159.589 68.2585C160.975 71.8128 162.69 75.283 164.319 78.7343C163.028 78.87 161.738 79.014 160.443 79.1048C158.26 78.8193 155.133 76.268 153.273 74.9875C153.989 73.8053 154.702 71.9288 154.87 70.5508C154.967 69.7635 154.765 69.2395 154.311 68.6198C153.773 68.52 153.299 68.4178 152.785 68.2248L152.557 67.5815C153.845 64.8973 155.09 62.1935 156.294 59.471Z"   fill="#03559B" >
</path>
<path d="M376.12 102.372C374.97 101.183 372.79 98.9958 372.927 97.1933C372.96 96.7403 373.13 96.6643 373.41 96.3308C375.15 95.7253 377.14 96.6325 378.715 97.3955C381.422 98.707 383.66 100.407 385.715 102.59C384.135 102.552 382.2 102.326 380.663 102.655C378.408 103.138 373.033 106.14 371.367 107.627L371.41 108.04C374.418 109.432 381.075 104.739 383.315 105.968C383.453 106.57 383.465 106.844 383.087 107.366C382.777 107.794 382.378 108.185 382.015 108.57C384.893 109.395 392.505 111.942 393.923 114.495C394.198 114.992 394.22 115.433 394.203 115.986C393.883 116.383 394.068 116.299 393.55 116.353C390.655 116.653 387.76 114.348 384.652 114.579L384.54 113.088L385.05 112.768C384.932 112.295 384.89 112.245 384.467 112.011C382.105 110.703 377.508 110.379 374.66 109.138C374.413 109.03 374.165 108.924 373.92 108.809C369.163 110.346 364.93 112.579 360.573 114.977C359.86 114.148 359.112 113.334 358.445 112.47C361.965 108.716 365.09 106.714 369.95 105.11C372.177 104.376 374.16 103.684 376.12 102.372Z"   fill="#FEFEFE" >
</path>
<path d="M94.329 102.974C96.97 105.092 99.0933 107.817 101.602 110.097C104.692 112.905 108.242 115.28 111.174 118.249C111.696 118.778 112.103 119.242 112.206 120.011C112.278 120.548 112.131 121.043 111.795 121.472C110.547 123.063 107.496 123.834 105.534 124.001C104.951 124.05 104.55 124.021 104.024 123.738C103.964 123.199 103.985 123.149 104.326 122.741C104.913 122.039 105.983 121.488 106.775 121.013C103.74 118.282 100.62 115.54 97.9168 112.472C97.7958 114.553 97.4938 119.87 95.9205 121.321C95.3258 121.869 94.5495 122.094 93.7495 122.049C92.4553 121.977 91.3337 121.423 90.2253 120.8C89.4437 118.444 92.6413 112.132 93.2323 109.381C93.5368 107.963 92.1895 107.536 91.4847 106.494C91.405 105.65 91.565 105.456 91.9285 104.713C92.7098 104.097 93.4678 103.477 94.329 102.974Z"   fill="#FEFEFE" >
</path>
<path d="M139.009 71.2708C140.931 69.5708 143.369 68.2723 144.875 66.1405C148.105 61.5698 141.607 56.6348 143.221 52.636C143.724 52.2045 143.839 52.0358 144.538 52.0533C145.959 52.0888 151.513 55.8068 152.398 56.9293C152.991 58.8988 151.092 61.0768 150.623 62.9923C150.423 63.8108 150.29 64.8325 150.804 65.5595C150.881 65.6675 150.964 65.77 151.044 65.8753C151.646 66.2445 152.284 66.4378 152.484 67.166C152.521 67.3015 152.533 67.443 152.557 67.5815L152.785 68.2248C153.299 68.4178 153.773 68.52 154.311 68.6198C154.765 69.2395 154.967 69.7635 154.87 70.5508C154.702 71.9288 153.989 73.8053 153.273 74.9875L153.273 75.53C152.931 75.634 152.799 75.653 152.426 75.6353L152.275 75.7428L152.092 74.8525L151.382 74.6548C151.369 75.2203 151.393 75.7855 151.18 76.3193C150.889 77.048 148.353 76.5493 147.111 77.144C146.555 77.4105 146.068 77.6318 145.473 77.7958L145.253 77.5115C145.716 75.0848 147.345 72.8023 148.048 70.3758L148.15 70.0105C146.726 71.231 144.895 73.1763 142.945 73.3228C141.295 73.4465 140.138 72.291 139.009 71.2708Z"   fill="#FEFEFE" >
</path>
<path d="M151.382 74.6548C151.038 73.9403 150.698 73.2468 150.997 72.4483C151.099 72.1745 151.275 71.944 151.443 71.7088L151.929 71.553C152.322 71.8815 152.444 71.9625 152.512 72.5075C152.6 73.219 152.278 74.161 152.092 74.8525L151.382 74.6548Z"   fill="#223F8A" >
</path>
<path d="M368.703 363.603C369.853 364 381.4 375.205 383.35 377.11C382.855 377.65 382.375 378.217 381.77 378.635C381.212 379.022 380.655 378.997 379.997 378.953C377.582 378.785 375.055 378.065 372.675 377.575C369.37 376.895 366.052 376.275 362.728 375.715C366.418 379.555 370.585 382.95 374.358 386.73C373.767 387.435 373.21 388.02 372.47 388.565C370.06 386.348 367.78 383.987 365.383 381.753C362.943 379.475 360.378 377.34 358.138 374.858C359.03 374.087 359.945 373.342 360.85 372.587C365.74 374.188 373.267 375.342 378.45 376.205C375.695 373.37 369.63 368.592 367.71 365.733C367.655 364.875 368.235 364.27 368.703 363.603Z"   fill="#FEFEFE" >
</path>
<path d="M114.604 376.642C115.699 376.89 116.432 377.647 117.253 378.36C117.114 383.228 116.309 392.665 114.887 397.207C118.59 393.092 121.844 388.562 125.324 384.26C125.874 384.823 126.56 385.358 126.667 386.172C125.821 388.795 117.455 398.533 115.245 401.203C114.281 401.145 113.474 400.53 112.661 400.05C112.737 395.038 113.867 386 114.991 381.025C111.234 384.4 108.942 389.045 105.415 392.538C104.95 392.997 104.871 393.225 104.206 393.225C103.724 392.815 103.41 392.535 103.096 391.973C103.247 390.56 113.086 378.587 114.604 376.642Z"   fill="#FEFEFE" >
</path>
<path d="M88.5563 347.228C89.5313 347.695 89.876 348.73 90.2643 349.67C89.517 352.378 88.4555 354.985 87.5203 357.63C86.3943 360.818 85.404 364.06 84.0463 367.158L96.5728 357.233L98.0253 359.34C93.0665 363.43 87.9833 367.725 82.6738 371.328C81.963 370.517 81.2885 369.67 80.603 368.837C83.3305 363.323 85.121 357.108 87.1165 351.29C84.684 353.155 76.6915 360.177 74.6223 360.905C74.3883 360.825 74.2755 360.805 74.0608 360.64C73.5808 360.27 73.4255 359.763 73.3458 359.205C75.1665 356.875 85.8235 348.737 88.5563 347.228Z"   fill="#FEFEFE" >
</path>
<path d="M69.1575 315.245L69.6117 315.19C70.4047 315.807 70.8257 316.775 71.3125 317.635C70.4022 319.353 69.243 321.008 68.2415 322.682C66.0537 326.408 63.8115 330.1 61.5152 333.76C63.8687 332.253 72.0692 328.115 74.6105 327.1C75.2882 326.83 75.6187 326.91 76.2665 327.18C76.4132 327.495 76.5912 327.658 76.4752 328.013C75.7652 330.18 63.3017 335.55 60.6087 337.065C60.3165 337.29 60.0987 337.345 59.7507 337.453C58.905 337.078 58.5037 336.14 58.044 335.38C59.9045 330.265 64.9175 324.455 67.3812 318.92C63.2005 320.658 57.3655 324.95 53.2017 325.587C52.6942 325.22 52.7935 325.098 52.6592 324.51C53.5525 322.095 66.2192 316.658 69.1575 315.245Z"   fill="#FEFEFE" >
</path>
<path d="M79.5215 337.43C80.0745 337.34 80.6755 337.215 81.2362 337.242C82.3317 337.293 82.92 338.28 83.5412 339.06C79.7347 345.015 74.8425 350.297 70.765 356.082C70.205 355.27 69.6545 354.45 69.1137 353.625C70.048 352.253 71.234 350.983 72.2992 349.707C72.4192 349.49 72.5285 349.367 72.537 349.12C72.585 347.71 69.4662 343.348 68.594 342.033C66.7662 342.545 64.0892 343.825 62.304 342.93C61.9127 342.44 61.7502 342.302 61.6565 341.693C63.4437 340.01 76.4352 338.095 79.5215 337.43Z"   fill="#FEFEFE" >
</path>
<path d="M78.9365 339.897L79.1148 339.76L79.3758 339.878C78.9003 341.642 76.7118 344.585 75.3363 345.763C74.862 346.168 74.784 346.26 74.1738 346.217L73.5543 345.42C72.626 344.203 71.9535 342.842 71.242 341.495C73.8108 340.86 76.3418 340.385 78.9365 339.897Z"   fill="#03559B" >
</path>
<path d="M218.761 421.255C221.6 421.32 230.585 421.54 232.65 422.925C233.139 423.253 233.113 423.41 233.23 423.955L232.857 424.26C229.097 424.78 224.995 424.263 221.251 423.69C221.24 425.872 220.995 427.938 220.383 430.035C223.912 429.93 227.818 430.18 231.277 430.878C231.456 431.685 230.965 432.797 230.735 433.587C230.481 433.497 230.229 433.42 229.973 433.337C227.813 432.658 225.475 432.698 223.227 432.56C222.329 432.547 221.463 432.43 220.573 432.307C220.555 434.522 220.276 436.552 219.816 438.72C222.38 438.742 229.165 439.033 231.333 439.61C231.73 440.212 231.607 440.85 231.572 441.535C231.465 441.638 231.382 441.77 231.253 441.842C230.807 442.092 219.151 441.233 217.423 441.24C217.482 434.522 218.057 427.93 218.761 421.255Z"   fill="url(#linear_fill_wBphYuuTv8q0JzKHUXw4s)" >
</path>
<path d="M63.037 298.473C63.6327 298.913 63.7362 299.237 64.0305 299.892C64.9962 302.045 68.817 310.622 68.1665 312.353C67.8917 312.473 67.857 312.56 67.5802 312.462C65.326 311.682 63.249 304.087 62.3917 301.737L56.5897 304.04C58.2355 307.092 59.2515 310.745 60.604 313.973L58.1557 315.165C57.5062 312.517 56.434 309.97 55.4352 307.44L54.3083 304.695C52.2932 305.647 50.293 306.52 48.221 307.337C49.451 310.233 51.2247 313.495 51.9637 316.535C52.1592 317.34 52.1862 317.85 51.7673 318.568C51.0835 318.71 50.9612 318.777 50.324 318.52C48.0827 314.555 46.738 309.74 45.198 305.445C51.1542 303.165 57.1705 300.973 63.037 298.473Z"   fill="#FEFEFE" >
</path>
<path d="M361.392 116.892C363.918 117.249 369.858 118.513 371.922 116.659C372.265 116.351 372.362 116.133 372.497 115.708C372.385 115.086 372.112 114.546 372.48 114.011C374.67 114.805 377.8 116.456 379.63 117.856C378.385 118.659 376.965 119.073 375.775 119.828C374.267 120.784 371.688 124.624 370.883 126.372C372.105 128.031 375.71 133.353 377.388 134.106C377.62 133.98 377.853 133.857 378.08 133.725C378.91 132.117 378.975 130.2 379.927 128.745L380.223 128.877C380.595 130.253 380.922 131.583 381.11 132.998C381.295 133.846 381.5 134.695 381.633 135.552C381.233 136.585 380.957 137.788 379.81 138.215C378.925 138.544 377.902 138.281 377.108 137.841C374.715 136.514 368.13 128.347 367.32 125.676C368.418 123.028 371.295 121.392 373.405 119.602C368.647 119.456 365.138 120.511 361.392 116.892Z"   fill="#FEFEFE" >
</path>
<path d="M378.08 133.725C378.91 132.117 378.975 130.2 379.927 128.745L380.223 128.877C380.595 130.253 380.922 131.583 381.11 132.998L380.715 133.029L380.453 132.69C379.915 132.669 379.66 132.615 379.23 133.007C379.078 133.144 378.848 133.464 378.72 133.634L378.08 133.725Z"   fill="#F5FDCD" >
</path>
<path d="M126.446 393.7C128.056 391.967 129.584 390.312 132.141 390.29C134.434 390.272 136.659 391.775 138.16 393.415C139.495 394.872 140.316 396.685 140.253 398.688C140.231 399.402 140.079 399.815 139.607 400.367C139.052 400.57 138.57 400.69 137.99 400.443C137.695 400.315 137.391 400.16 137.32 399.83C136.917 397.962 138.89 396.112 135.577 393.71C134.467 392.908 133.012 392.647 131.679 392.935C130.332 393.223 129.429 394.358 128.631 395.4C128.686 395.48 128.74 395.56 128.797 395.638C130.942 398.617 136.55 402.315 135.975 406.397C135.792 407.69 134.695 409.1 133.703 409.895C133.629 409.955 133.543 409.997 133.463 410.047C132.734 410.705 131.873 411.075 130.999 411.503C130.112 411.228 129.219 410.953 128.35 410.622C125.283 409.46 122.301 407.133 121.033 404.045C120.604 403 120.766 402.323 121.211 401.318C121.588 400.462 121.979 399.902 122.858 399.557L123.338 399.81C124.087 401.03 123.9 403.225 123.952 404.652C124.406 405.358 124.919 406.038 125.51 406.635C127.078 408.223 129.081 408.983 131.294 408.962C132.172 408.085 133.128 407.375 133.118 406.027C133.095 402.747 128.206 399.66 126.46 396.983C126.454 395.892 126.419 394.793 126.446 393.7Z"   fill="#FEFEFE" >
</path>
<path d="M182.725 414.688C183.288 414.807 184.109 414.953 184.627 415.215C184.667 415.235 185.037 415.492 185.065 415.608C185.585 417.685 181.234 426.585 182.635 431.24C182.912 432.163 183.474 433.013 184.357 433.448C185.548 434.035 188.382 434.043 189.607 433.497C193.148 431.925 193.294 421.855 195.209 418.438C195.525 417.875 195.691 417.733 196.309 417.59C196.52 417.72 196.706 417.82 196.872 418.017C197.376 418.622 197.316 419.323 197.263 420.055C196.554 423.372 196.041 426.915 194.999 430.138C194.277 432.37 193.22 434.392 190.998 435.44C188.788 436.485 186.125 436.26 183.9 435.37C182.074 434.64 180.442 433.385 179.728 431.497C178.615 428.552 181.417 417.725 182.725 414.688Z"   fill="#FEFEFE" >
</path>
<path d="M311.825 405.445C314.64 403.965 320.99 400.068 323.82 399.457C324.505 399.31 324.78 399.323 325.37 399.682L325.41 400.37C324.62 401.853 317.438 405.025 315.47 406.4C316.325 408.195 317.19 409.965 318.16 411.7C318.818 411.87 319.055 411.897 319.402 412.543C319.57 412.85 319.533 413.147 319.497 413.475C319.888 415.497 321.45 417.835 322.45 419.665C325.19 417.94 328.465 415.895 331.508 414.802C332.115 414.585 332.275 414.557 332.853 414.848C333.212 415.355 333.513 415.712 333.55 416.36C332.085 417.487 330.115 418.233 328.457 419.068C325.93 420.345 323.455 421.665 321.02 423.11C318.617 418.015 314.825 409.955 311.825 405.445Z"   fill="#FEFEFE" >
</path>
<path d="M280.4 416.53C280.842 416.49 281.443 416.38 281.872 416.455C282.495 416.565 282.58 416.775 282.865 417.265L282.598 417.825C279.945 419.712 275.215 420.26 272.008 421.047C272.67 422.85 272.953 424.853 273.402 426.723C275.492 426.325 281.44 424.367 283.145 425.115C283.41 425.795 283.418 425.755 283.133 426.425C281.135 428.085 277.13 428.465 274.578 429.128C273.533 429.737 276.41 436.557 275.525 437.93C274.777 438.057 274.258 438.003 273.517 437.85C272.552 436.58 269.59 421.552 269.125 418.957C272.897 418.435 276.703 417.443 280.4 416.53Z"   fill="#FEFEFE" >
</path>
<path d="M423.902 306.658C424.825 308.397 424.717 310.04 424.14 311.9C423.425 314.203 421.495 316.418 419.297 317.413C416.777 318.555 413.448 318.283 410.913 317.267C408.29 316.22 405.81 314.158 404.8 311.475C403.872 309.01 404.16 306.138 405.295 303.788C406.207 301.895 407.73 300.19 409.79 299.557C410.967 299.198 412.04 299.3 413.235 299.485C413.652 299.883 413.647 299.862 413.69 300.435C412.23 302.388 405.735 302.47 406.473 308.388C406.72 310.37 407.837 312.033 409.408 313.228C411.96 315.175 414.978 315.682 418.108 315.693C420.008 314.5 421.7 313.19 422.275 310.895C422.575 309.693 422.445 308.535 422.247 307.33C422.88 307.228 423.35 306.957 423.902 306.658Z"   fill="#FEFEFE" >
</path>
<path d="M348.19 406.258C347.557 407.203 346.81 408.068 345.965 408.828C344.267 410.36 342.092 411.443 339.758 411.272C337.098 411.078 334.74 409.28 333.105 407.267C331.193 404.91 329.758 401.587 330.145 398.513C330.453 396.065 331.885 394.052 333.8 392.568C335.797 391.017 338.172 390.443 340.677 390.865C341.77 391.05 342.973 391.425 343.603 392.405C343.95 392.95 343.895 393.355 343.78 393.953C343.215 394.348 343.103 394.315 342.402 394.325C341.865 393.978 341.085 393.367 340.457 393.233C338.913 392.897 337.242 392.98 335.87 393.818C333.828 395.065 333.02 397.08 332.45 399.275C332.788 400.775 333.217 402.12 333.938 403.483C335.513 406.455 337.612 408.185 340.81 409.172C343.23 408.49 344.777 407.53 346.323 405.527C346.948 405.717 347.67 405.85 348.19 406.258Z"   fill="#FEFEFE" >
</path>
<path d="M413.793 278.345C415.557 278.915 420.087 285.73 422.24 287.462C424.538 289.312 427.56 289.04 430.027 290.467C430.335 291.052 430.315 291.193 430.283 291.86C430.15 292.078 430.07 292.337 429.883 292.51C429.087 293.242 423.655 291.242 422.272 291.18C420.935 291.12 419.543 291.573 418.258 291.897C415.925 292.758 412.905 294.008 410.438 294.223C409.807 294.277 409.54 294.245 409.06 293.845C409.06 293.425 409.115 293.117 409.332 292.755C410.397 290.98 418.047 289.543 420.33 288.96C417.793 286.84 414.645 283.402 413.025 280.543C412.92 279.663 413.367 279.087 413.793 278.345Z"   fill="url(#linear_fill_x9MWFPHKxdFAKFqE8z3_2)" >
</path>
<path d="M164.938 408.688C168.431 409.397 177.737 411.99 180.398 413.815L180.454 414.307C180.142 414.888 180.104 415.115 179.504 415.42C177.486 415.267 175.37 414.265 173.524 413.473C172.737 416.783 171.438 420.022 170.4 423.267C169.765 425.142 169.008 428.705 167.485 429.962C166.872 429.892 166.771 429.73 166.286 429.378C166.197 429.168 166.042 428.975 166.02 428.747C165.863 427.092 170.321 415.255 171.123 412.918C169.45 412.375 166.358 411.725 165.261 410.335C164.821 409.777 164.885 409.348 164.938 408.688Z"   fill="#FEFEFE" >
</path>
<path d="M200.413 418.953C203.807 418.925 212.288 420.283 215.529 421.402C216.053 421.92 216.066 422.47 216.165 423.163L215.856 423.46C213.761 423.562 211.474 422.82 209.451 422.315C208.68 425.83 208.118 429.392 207.54 432.945C207.32 434.628 207.271 437.283 206.419 438.717C206.152 439.165 205.963 439.242 205.454 439.335C204.85 439.445 204.45 439.467 203.958 439.122C203.794 436.198 206.103 425.515 206.951 422.23C204.989 421.672 202.804 421.67 200.967 420.853C200.405 420.14 200.478 419.84 200.413 418.953Z"   fill="#FEFEFE" >
</path>
<path d="M143.671 397.633C145.547 398.025 156.9 403.86 157.737 405.06C157.637 405.655 157.594 405.707 157.18 406.152C155.437 406.565 152.682 404.665 151.128 403.855C149.178 406.897 147.614 410.152 146.021 413.39C145.415 414.62 144.046 418.18 142.911 418.735C142.152 418.605 141.66 418.465 141.007 418.05C140.877 417.223 147.764 404.25 148.632 402.422C146.801 401.418 144.619 400.72 143.174 399.17C143.079 398.397 143.273 398.277 143.671 397.633Z"   fill="#FEFEFE" >
</path>
<path d="M309.682 406.56L310.02 406.557C310.158 406.688 310.33 406.832 310.418 407.005C310.737 407.63 310.652 407.82 310.37 408.39C308.68 409.615 306.53 410.182 304.55 410.777C306.765 416.223 308.93 421.688 311.045 427.17L308.695 428.13C307.935 426.315 307.2 424.492 306.49 422.658C305.078 419.117 303.247 415.372 302.337 411.688C301.163 412.223 296.872 414.18 295.832 414.025C295.435 413.53 295.462 413.55 295.517 412.913C295.865 412.348 296.188 411.943 296.775 411.612C300.14 409.725 305.9 408 309.682 406.56Z"   fill="#FEFEFE" >
</path>
<path d="M353.99 378.703C354.51 378.062 355.013 377.372 355.573 376.77C358.062 379.103 366.103 388.772 367.628 391.647C367.547 392.297 367.41 392.432 367.013 392.965C366.427 393.158 366.185 393.2 365.633 392.87C363.793 391.77 361.652 388.353 360.503 386.492C358.087 388.445 355.095 391.427 352.443 392.867C352.237 392.517 352.34 392.612 352.068 392.397C351.5 391.948 351.25 391.693 350.922 391.04C353.725 388.997 356.285 386.675 358.97 384.487C357.05 382.837 355.505 380.723 353.99 378.703Z"   fill="#FEFEFE" >
</path>
<path d="M48.3165 284.83L48.033 284.935C46.8835 285.348 40.9037 287.27 40.1 287.145C39.5045 286.723 39.5017 286.7 39.2917 285.997C39.4562 285.263 39.709 284.853 40.3582 284.475C42.1812 283.418 56.229 279.745 58.094 279.855C58.5427 280.305 58.4605 280.392 58.4877 281.038C58.1535 281.837 57.6582 282.168 56.883 282.505C55.0025 283.323 52.7525 283.698 50.759 284.19C51.568 286.212 53.605 291.475 53.4722 293.46C53.3587 293.538 53.2295 293.6 53.1317 293.698C53.0142 293.815 53.0065 294.01 52.902 294.14C52.602 294.513 52.472 294.57 52.0122 294.568C51.7887 294.1 51.5737 293.685 51.2657 293.265L50.997 292.905C50.1055 290.237 49.538 287.37 48.3165 284.83Z"   fill="#FEFEFE" >
</path>
<path d="M385.948 342.337C388.807 342.832 397.435 349.408 400.825 351.21C402.272 349.145 404.425 344.233 406.707 343.328C407.312 343.508 407.288 343.538 407.625 344.078C407.68 345.052 407.06 345.777 406.557 346.57L401.325 355.04C397.788 352.665 387.483 346.655 385.047 344.275C385.068 343.42 385.478 343.04 385.948 342.337Z"   fill="#FEFEFE" >
</path>
<path d="M53.4722 293.46L53.7722 293.913C56.025 294.065 58.0847 292.258 60.1505 292.27C61.0535 292.277 61.7082 292.608 62.306 293.255C62.3762 294.015 62.3257 293.967 61.8325 294.562C58.8985 295.793 46.27 299.527 43.3935 299.668C42.9667 299.3 42.8207 298.932 42.8282 298.35C42.8632 295.587 49.4795 296.568 51.0382 294.51C51.3022 294.16 51.0525 293.335 50.997 292.905L51.2657 293.265C51.5737 293.685 51.7887 294.1 52.0122 294.568C52.472 294.57 52.602 294.513 52.902 294.14C53.0065 294.01 53.0142 293.815 53.1317 293.698C53.2295 293.6 53.3587 293.538 53.4722 293.46Z"   fill="#FEFEFE" >
</path>
<path d="M160.82 406.165L163.388 407.027C161.063 413.24 157.695 419.062 155.469 425.307C154.612 424.918 153.776 424.462 152.936 424.038C155.391 418.022 158.535 412.237 160.82 406.165Z"   fill="#FEFEFE" >
</path>
<path d="M356.277 402.28C352.617 397.802 347.543 392.275 344.508 387.515C344.147 386.95 343.91 386.73 344.062 386.068C344.638 385.7 345.147 385.283 345.85 385.255C347.79 386.582 349.215 389.32 350.922 391.04C351.25 391.693 351.5 391.948 352.068 392.397C352.34 392.612 352.237 392.517 352.443 392.867C352.802 394.547 356.492 398.245 357.733 399.675L356.277 402.28Z"   fill="url(#linear_fill_xSPjMjvwGw--NJEdevfIU)" >
</path>
<path d="M109.719 371.642C110.636 372.047 111.083 372.685 111.69 373.448C107.389 378.045 103.341 382.832 98.6718 387.075C98.5857 387.052 98.498 387.038 98.4143 387.01C97.7795 386.793 97.1697 386.492 96.8378 385.892C97.2282 384.568 107.881 373.348 109.719 371.642Z"   fill="#FEFEFE" >
</path>
<path d="M152.275 75.7427L152.426 75.6352C152.799 75.653 152.931 75.634 153.273 75.53L153.273 74.9875C155.133 76.268 158.26 78.8192 160.443 79.1047C160.372 79.13 160.302 79.159 160.23 79.1805C159.249 79.475 158.798 79.291 157.916 80.0062L157.647 79.845L157.335 79.9912C157.529 81.1487 158.488 82.3575 159.1 83.3567L156.849 85.3557C156.22 84.958 152.751 82.7672 152.625 82.2345C152.513 81.757 152.995 81.146 152.801 80.3855C152.176 79.8057 152.29 80.3347 151.658 80.0775C151.528 78.6052 151.982 77.1807 152.275 75.7427Z"   fill="#FEFEFE" >
</path>
<path d="M418.175 303.503C417.777 304.575 417.418 305.78 416.85 306.772C416.435 307.505 415.695 308.422 414.858 308.635L414.533 308.358C414.495 308.02 414.457 307.7 414.487 307.36C414.57 306.425 416.448 300.862 416.987 300.402C418.455 300.758 426.207 303.513 426.87 304.47C426.08 305.258 424.79 305.42 424.133 306.315C424.052 306.427 423.98 306.545 423.902 306.658C423.35 306.957 422.88 307.228 422.247 307.33C422.212 307.217 422.18 307.103 422.14 306.99C421.487 305.105 419.853 304.275 418.175 303.503Z"   fill="#FEFEFE" >
</path>
<path d="M307.543 61.226L307.767 61.2498L307.967 61.496C307.345 63.0113 306.265 64.17 305.6 65.6428C306.003 66.0728 307.233 65.8765 307.88 66.0338C307.705 67.0393 304.535 68.7285 303.61 69.438C303.082 69.6855 302.64 69.7015 302.07 69.7595C301.585 69.5403 301.375 69.4948 301.105 69.0068C300.467 67.8468 300.547 66.1425 300.93 64.9155C301.617 62.6998 305.35 62.3718 307.265 61.3745C307.358 61.326 307.45 61.2755 307.543 61.226Z"   fill="#FEFEFE" >
</path>
<path d="M143.642 80.1015C143.736 80.1172 143.83 80.1275 143.922 80.1488C146.077 80.6495 149.886 82.4715 151.012 84.3662C151.654 85.445 151.373 86.29 151.062 87.4425C150.207 88.057 148.711 87.7848 147.704 87.7388C145.638 85.4622 144.483 83.042 143.642 80.1015Z"   fill="#FEFEFE" >
</path>
<path d="M392.61 104.085C393.742 104.522 395.345 106.257 395.823 107.356C396.18 108.184 396.275 108.892 395.965 109.75C395.633 110.052 395.55 110.213 395.092 110.302C393.905 110.532 392.78 109.502 391.87 108.861C390.733 108.129 389.342 107.732 388.255 106.919C387.88 106.639 387.633 106.544 387.55 106.077C388.617 105.659 390.72 106.174 391.885 106.335C392.435 105.849 392.483 104.793 392.61 104.085Z"   fill="#FEFEFE" >
</path>
<path d="M318.16 411.7C320.135 410.625 325.74 406.997 327.688 407.228C328.177 407.633 328.277 407.68 328.46 408.277C327.71 410.228 322.675 412.142 320.737 413.005C320.332 413.185 319.918 413.335 319.497 413.475C319.533 413.147 319.57 412.85 319.402 412.543C319.055 411.897 318.818 411.87 318.16 411.7Z"   fill="#DEF4F7" >
</path>
<path d="M346.323 405.527L346.408 405.215C346.663 404.228 346.733 403.492 346.672 402.485C346.615 401.483 346.473 400.185 347.105 399.325C347.323 399.027 347.49 399.08 347.825 399.02C348.505 399.36 348.737 399.705 348.985 400.43C349.198 401.047 349.375 401.682 349.555 402.31C349.28 403.585 349.038 405.225 348.19 406.258C347.67 405.85 346.948 405.717 346.323 405.527Z"   fill="#FEFEFE" >
</path>
<path d="M382.372 114.723C381.74 115.383 381.358 115.657 380.43 115.718C379.332 115.789 378.367 115.577 377.55 114.807C376.985 114.275 376.865 113.816 376.86 113.065L377.335 112.592C378.487 112.252 380.027 112.642 381.163 112.981L382.372 114.723Z"   fill="#FEFEFE" >
</path>
<path d="M381.163 112.981C382.277 113.019 383.425 113.118 384.54 113.088L384.652 114.579C383.938 114.556 383.233 114.526 382.517 114.586L382.372 114.723L381.163 112.981Z"   fill="#DEF4F7" >
</path>
</g>
<defs>
<clipPath id="clip-path-tDF7SKEHhtiYR-GNMAXXF">
<path d="M0 478L474 478L474 0L0 0L0 478Z" fill="white"/>
</clipPath>
<linearGradient id="linear_fill_gP8ScYQq64xPQkIy2tLR9" x1="124.7662353515625" y1="292.2974853515625" x2="351.29998779296875" y2="220.44549560546875" gradientUnits="userSpaceOnUse">
<stop offset="0" stop-color="#0076C2"  />
<stop offset="1" stop-color="#17B3E9"  />
</linearGradient>
<linearGradient id="linear_fill_PUsapZuC-8KOznxoJL7Of" x1="172.8887481689453" y1="268.7099914550781" x2="252.16000366210938" y2="161.4735107421875" gradientUnits="userSpaceOnUse">
<stop offset="0" stop-color="#024196"  />
<stop offset="1" stop-color="#0C83C8"  />
</linearGradient>
<linearGradient id="linear_fill_KVqdolT5Uqm2LI4oCM-__" x1="210.4499969482422" y1="213.343505859375" x2="275.58499908447266" y2="126.80450439453125" gradientUnits="userSpaceOnUse">
<stop offset="0" stop-color="#0057AB"  />
<stop offset="1" stop-color="#25B0E3"  />
</linearGradient>
<linearGradient id="linear_fill_wBphYuuTv8q0JzKHUXw4s" x1="217.64949798583984" y1="430.1575012207031" x2="232.4905014038086" y2="433.17749786376953" gradientUnits="userSpaceOnUse">
<stop offset="0" stop-color="#F4F8EB"  />
<stop offset="1" stop-color="#F6F2F6"  />
</linearGradient>
<linearGradient id="linear_fill_x9MWFPHKxdFAKFqE8z3_2" x1="418.82250213623047" y1="279.4375" x2="419.66500091552734" y2="293.1575012207031" gradientUnits="userSpaceOnUse">
<stop offset="0" stop-color="#F0FFE5"  />
<stop offset="1" stop-color="#F8F3F3"  />
</linearGradient>
<linearGradient id="linear_fill_xSPjMjvwGw--NJEdevfIU" x1="347.29500007629395" y1="394.67999267578125" x2="354.2875003814697" y2="392.29249572753906" gradientUnits="userSpaceOnUse">
<stop offset="0" stop-color="#F3FBE9"  />
<stop offset="1" stop-color="#FBF8F8"  />
</linearGradient>
</defs>
</svg>
