<svg width="890" height="889" viewBox="0 0 890 889" fill="none" xmlns="http://www.w3.org/2000/svg">
<path d="M444.51 0.0234375C567.25 0.0234375 678.38 49.7734 758.82 130.216C839.27 210.666 889.02 321.766 889.02 444.496C889.02 567.226 839.27 678.326 758.82 758.776C678.38 839.216 567.25 888.966 444.51 888.966C321.76 888.966 210.64 839.216 130.2 758.776C49.75 678.326 0 567.226 0 444.496C0 321.766 49.75 210.666 130.2 130.216C210.64 49.7734 321.76 0.0234375 444.51 0.0234375ZM754.03 134.946C674.83 55.7405 565.39 6.74146 444.51 6.74146C323.63 6.74146 214.21 55.7405 134.99 134.946C55.77 214.146 6.79004 323.596 6.79004 444.496C6.79004 565.396 55.79 674.836 134.99 754.047C214.19 833.257 323.63 882.246 444.51 882.246C565.39 882.246 674.81 833.257 754.03 754.047C833.25 674.836 882.23 565.396 882.23 444.496C882.23 323.596 833.23 214.156 754.03 134.946Z" fill="#0D0DE7"/>
<path d="M444.512 132.93C530.562 132.93 608.442 167.8 664.832 224.19C721.232 280.59 756.102 358.47 756.102 444.5C756.102 530.53 721.232 608.41 664.832 664.81C608.442 721.2 530.562 756.07 444.512 756.07C358.462 756.07 280.582 721.2 224.192 664.81C167.792 608.41 132.922 530.53 132.922 444.5C132.922 358.47 167.792 280.59 224.192 224.19C280.582 167.8 358.462 132.93 444.512 132.93ZM661.462 227.51C605.952 171.99 529.242 137.64 444.512 137.64C359.782 137.64 283.072 171.97 227.552 227.51C172.022 283.02 137.682 359.75 137.682 444.5C137.682 529.25 172.022 605.96 227.552 661.49C283.072 717.01 359.782 751.36 444.512 751.36C529.242 751.36 605.952 717.03 661.462 661.49C717.002 605.98 751.342 529.25 751.342 444.5C751.342 359.75 717.002 283.04 661.462 227.51Z" fill="#0D0DE7"/>
<path d="M751.462 464.513C672.122 470.953 598.772 490.223 531.212 529.193C545.002 526.703 558.622 523.593 572.312 520.813C586.052 518.033 599.802 515.323 613.642 513.083C627.472 510.833 641.402 509.063 655.312 507.363C668.972 505.693 682.682 504.393 696.352 502.933C672.962 509.083 649.462 513.983 626.432 520.533C542.292 544.533 462.362 579.223 383.982 617.653C376.772 621.193 371.072 621.943 363.662 618.753C355.132 615.093 345.892 613.133 336.962 610.393C334.542 609.663 332.162 608.783 327.752 607.283C353.342 594.993 377.132 583.573 400.822 572.213C359.092 538.983 197.322 496.923 143.412 505.603L143.362 505.623C138.182 479.223 135.762 453.293 135.762 453.293C139.042 454.183 140.922 454.823 142.862 455.213C232.622 473.203 316.882 506.003 397.182 549.493C405.602 554.053 413.582 561.993 422.252 562.723C431.152 563.473 440.672 557.383 449.852 554.163C458.222 551.213 467.322 549.363 474.752 544.823C540.382 504.743 609.982 474.243 685.082 457.003C707.152 451.933 729.022 445.453 753.682 445.453C753.682 445.543 752.862 453.383 751.432 464.453L751.462 464.513Z" fill="#0D0DE7"/>
<path d="M744.578 521.489C744.858 520.459 744.288 520.769 744.288 520.769C736.198 520.769 728.018 520.169 719.928 520.879C688.608 523.589 658.588 531.969 629.248 542.829C565.278 566.499 505.958 599.169 448.878 636.199C446.998 637.419 444.748 639.799 443.138 639.449C433.268 637.329 423.528 634.569 412.328 631.639C434.478 619.359 455.638 608.889 475.458 596.329C513.968 571.929 555.358 554.119 598.408 539.899C645.908 524.209 694.428 512.519 743.698 503.859C745.698 503.509 748.718 501.849 749.048 500.309L749.318 498.969C747.688 507.719 746.758 512.969 744.578 521.499V521.489Z" fill="#0D0DE7"/>
<path d="M156.721 550.748C152.401 543.118 149.271 532.558 146.301 520.148L147.751 520.438C149.361 521.538 151.761 521.668 154.561 521.778C168.931 522.348 183.371 522.908 197.631 524.648C255.501 531.738 310.891 548.028 364.411 570.958C365.421 571.398 366.461 571.778 367.431 572.328C368.371 572.858 369.211 573.538 370.091 574.158C300.201 554.948 228.981 551.028 156.901 550.718C156.851 550.718 156.861 550.718 156.811 550.738H156.741L156.721 550.748Z" fill="#0D0DE7"/>
<path d="M396.301 834.52C402.411 840.21 409.021 846.25 415.481 852.44C416.721 853.65 417.401 855.46 418.331 857C416.651 857.76 415.041 858.99 413.281 859.25C409.441 859.8 405.491 860.38 401.661 860.02C394.871 859.36 389.851 856.01 387.511 849.09C386.691 846.67 384.671 844.68 382.681 841.73C374.371 847.7 366.081 845.23 356.721 839.48C356.891 842.96 357.511 845.02 356.961 846.73C355.881 850.02 354.161 853.1 352.701 856.28C350.171 854.65 346.781 853.59 345.271 851.3C339.301 842.32 333.751 833.04 328.481 823.61C327.471 821.8 327.691 818.43 328.791 816.64C329.491 815.48 332.801 815.59 334.921 815.68C338.711 815.83 342.721 817.4 346.201 816.56C354.601 814.55 356.411 810.98 355.701 803.22C350.151 800.55 345.321 798.5 340.841 795.86C339.721 795.2 338.951 792.42 339.391 791.06C339.761 789.97 342.101 789.14 343.691 788.89C345.741 788.58 347.921 789 350.021 789.03C357.241 789.14 361.481 787.11 363.661 778.76C365.511 771.66 371.461 765.57 375.941 759.27C376.751 758.14 380.231 757.28 380.701 757.84C381.911 759.22 383.061 761.83 382.511 763.32C379.931 770.25 376.771 776.97 374.191 782.88C374.111 782.92 375.491 782.02 378.691 779.94C379.641 785.37 380.431 789.88 381.271 794.8C387.161 795.7 389.541 793.98 390.711 787.15C391.481 782.65 392.291 778.11 393.641 773.77C394.081 772.32 396.301 770.53 397.691 770.55C398.971 770.56 400.851 772.58 401.371 774.08C402.791 778.4 403.661 782.88 404.991 788.37C404.621 788.19 405.471 788.41 406.031 788.92C408.031 790.74 409.931 792.64 411.871 794.52C410.171 796.06 408.691 798.02 406.711 799.03C401.971 801.44 396.991 803.42 390.991 806.07C392.891 806.9 393.391 807.26 393.901 807.3C396.941 807.54 401.901 806.7 402.671 808.12C404.311 811.22 404.951 815.78 403.971 819.14C402.451 824.29 399.231 828.94 396.321 834.55L396.301 834.52ZM362.311 807.98C363.481 808.38 364.061 808.64 364.671 808.78C367.251 809.42 371.481 809.33 372.121 810.8C373.861 814.81 371.311 817.79 367.291 819.36C365.051 820.22 362.071 820.68 360.901 822.36C359.291 824.65 357.491 829.14 358.571 830.56C363.081 836.53 369.961 836.95 377.651 832.56C376.361 830.11 374.831 827.73 373.871 825.13C373.201 823.32 372.581 820.88 373.231 819.29C374.971 815.13 377.431 811.31 379.601 807.34C378.141 808.45 376.681 809.57 375.211 810.67C374.201 807.56 373.341 804.41 372.191 801.37C369.981 795.59 367.671 798.11 365.601 801.48C364.471 803.33 363.621 805.36 362.291 808L362.311 807.98ZM398.221 817.53C397.521 816.56 396.831 815.59 396.131 814.62C391.901 816.78 387.691 818.94 382.201 821.72C385.281 824.38 388.241 827.32 388.501 827.11C391.961 824.18 395.031 820.79 398.201 817.51L398.221 817.53Z" fill="#0D0DE7"/>
<path d="M266.54 787.53C262.31 787.53 259.04 788.23 256.27 787.33C253.55 786.43 251.35 783.93 248.91 782.11C250.65 780.32 252.17 778.25 254.15 776.77C257.41 774.34 260.96 772.29 264.16 769.69C249.57 776.02 244.14 773.69 239.49 788.89C238.74 791.36 236.03 793.24 234.23 795.4C232.77 793.04 231.31 790.7 230.01 788.61C227.3 788.06 222.43 788.37 221.48 786.6C219.87 783.6 219.5 778.66 220.95 775.67C222.41 772.65 226.71 771.02 230.12 768.53C229.05 767.12 227.9 765.93 227.15 764.54C222.14 755.13 223.56 749.92 232.59 744.01C242.43 737.54 251.71 730.17 263.63 727.29C266.74 726.54 268.99 722.74 272.09 721.24C274.96 719.84 278.42 719.7 281.6 719C282.15 722.52 283.82 726.31 283.01 729.47C281.62 734.87 276.99 736.5 271.37 737.22C257.66 738.94 244.81 743.2 234.44 753.78C241.45 755.12 241.65 755.04 245.27 750.6C249.48 745.43 250.89 745.58 255.5 751.16C256.31 752.13 258.07 752.3 259.38 752.86C262.46 754.16 265.53 755.48 268.46 757.55C272.12 757.42 273.79 755.21 273.73 750.91C273.68 746.68 276.52 743.88 280.63 745.47C282.19 746.07 282.37 750.19 283.45 753.54C286.53 746.13 289.57 738.81 292.77 731.08C303.73 741.33 303.81 751.68 294.55 761.69C291.65 764.8 290.02 769.06 287.81 772.8C288.56 772.69 289.29 772.58 290.04 772.47C291.67 775.71 293.7 778.82 294.62 782.24C294.84 783.07 291.34 786.12 289.71 786.01C283.91 785.59 280.62 788.08 278.33 793.06C275.56 799.05 273 805.21 269.43 810.69C265.08 817.33 259.75 823.33 253.89 829.06C251.31 813.32 261.54 801.61 266.54 787.55V787.53ZM248.86 767.32C254.77 765.29 259.05 763.83 263.32 762.35C254.35 758.8 253.22 759.18 248.86 767.32ZM274.3 771.59C276.79 769.23 279.3 766.85 282.72 763.61C273.29 761.5 272.22 762.44 274.3 771.59Z" fill="#0D0DE7"/>
<path d="M774.89 594.612C765.61 589.342 757.93 582.472 752.73 571.772C757.21 572.432 761.151 572.992 765.361 573.622C764.631 567.372 763.34 560.562 763.23 553.722C763.18 550.922 765.301 547.862 767.041 545.342C769.381 541.912 771.64 542.372 774.99 545.192C778.24 547.922 782.91 548.942 789.15 551.672C785.25 553.772 782.93 555.042 781.98 555.552C785.77 565.732 788.911 574.202 792.081 582.692C792.651 582.582 793.231 582.472 793.801 582.382C793.421 578.652 792.65 574.912 792.76 571.202C792.83 568.642 793.73 565.932 794.97 563.682C795.58 562.582 797.831 562.382 799.331 561.752C799.701 563.272 799.95 564.852 800.46 566.312C801.32 568.822 801.65 572.212 803.47 573.542C808.85 577.512 814.831 580.702 820.621 584.122C821.701 584.762 822.941 585.112 824.371 585.682C828.541 577.862 827.081 572.192 819.571 569.312C824.201 566.662 828.4 563.092 833.16 561.962C835.83 561.322 839.451 564.682 843.371 566.592C837.491 572.832 835.7 579.472 835.9 587.072C835.96 589.412 833.65 592.292 831.67 594.102C829 596.532 826.02 596.502 822.96 593.582C820.69 591.422 817.49 590.252 813.19 587.762C814.52 592.362 815.931 595.622 816.321 598.972C816.631 601.662 815.691 604.492 815.311 607.262C812.561 606.362 809.73 605.672 807.13 604.442C806.16 603.982 805.811 602.262 805.061 601.202C802.091 597.122 800.24 592.342 793.4 592.292C790.56 592.272 787.78 587.642 785.47 585.552C784.92 587.582 784.96 591.322 783.13 592.942C781.32 594.552 777.6 594.012 774.71 594.412L774.91 594.612H774.89ZM776.361 578.582C781.141 572.702 781.37 561.082 777.68 556.122C776.5 554.542 773.87 554.072 771.89 553.082C771.32 553.652 770.78 554.232 770.21 554.802C772.15 562.302 774.091 569.812 776.361 578.562V578.582Z" fill="#0D0DE7"/>
<path d="M49.2214 586.258C79.4414 581.048 75.8914 580.638 78.7614 560.508C89.6914 560.818 98.8214 570.598 95.1414 578.908C93.8314 581.868 89.3015 583.988 85.8115 585.258C81.3615 586.848 76.4414 587.108 71.7514 588.088C70.6714 588.328 69.7614 589.268 67.6314 590.548C75.5414 593.858 82.0714 591.588 88.3514 589.828C91.9014 588.828 95.0514 585.548 97.1814 591.458C97.3615 591.968 99.1914 591.968 100.271 592.028C101.371 592.078 102.811 591.408 103.511 591.898C107.631 594.788 111.671 597.828 115.461 601.108C116.101 601.678 115.921 604.618 115.301 604.968C111.381 607.088 107.281 608.908 103.161 610.588C101.481 611.278 99.3514 611.028 97.8514 611.928C93.9514 614.228 90.4814 618.088 85.4114 615.258C82.0914 613.388 80.9614 606.508 82.3914 600.978C75.8514 603.158 69.2113 605.848 62.3213 607.548C51.4013 610.278 46.8214 605.608 48.7114 594.548C49.1814 591.788 49.0914 588.938 49.2614 586.258H49.2214ZM91.9413 601.658C91.9413 603.648 91.9413 605.738 91.9413 609.838C95.6213 606.868 97.8914 605.038 100.141 603.208C99.7714 602.678 99.4315 602.168 99.0615 601.638C96.9015 601.638 94.7413 601.638 91.9413 601.638V601.658Z" fill="#0D0DE7"/>
<path d="M774.692 594.406C776.872 598.596 781.432 602.256 777.732 607.786C780.202 609.216 782.652 611.706 785.182 611.816C789.612 611.976 792.172 614.116 795.322 616.776C800.062 620.726 806.052 623.156 810.992 626.916C814.272 629.406 816.612 633.116 820.182 637.196C811.482 639.266 804.842 640.936 797.792 636.796C790.622 632.586 782.672 629.696 775.502 625.506C771.272 623.036 766.902 619.756 764.442 615.706C763.052 613.426 765.412 608.866 766.202 604.706C761.182 602.476 756.042 601.106 750.332 606.376C747.842 608.666 742.942 609.216 739.242 608.956C737.322 608.826 733.782 604.786 734.152 603.296C735.382 598.446 737.542 593.566 740.502 589.556C741.342 588.416 746.192 589.996 749.092 590.766C750.312 591.096 751.192 593.196 752.342 593.306C759.852 593.926 767.372 594.236 774.892 594.646L774.692 594.426V594.406Z" fill="#0D0DE7"/>
<path d="M625.941 758.561C628.081 757.611 630.151 756.211 632.381 755.781C638.901 754.531 644.241 761.011 643.221 768.081C642.701 771.641 642.811 775.361 643.141 778.981C643.601 784.221 643.381 788.781 635.951 789.551C638.161 793.811 640.101 797.511 642.041 801.241C654.911 794.071 656.711 788.301 651.711 774.851C650.481 771.531 650.241 767.861 649.551 764.361C650.281 763.851 651.001 763.321 651.731 762.801C654.491 764.871 657.251 766.901 659.981 769.011C660.311 769.271 660.531 769.701 660.701 770.111C663.721 777.321 666.721 784.531 669.721 791.741C660.731 798.081 656.341 810.061 644.171 812.481C639.371 813.431 636.001 811.551 634.101 807.171C630.701 799.381 627.441 791.501 625.151 786.121C628.901 781.331 631.451 778.141 633.831 774.851C634.031 774.571 633.151 773.511 632.231 771.791C630.821 774.061 630.181 775.871 628.901 776.931C627.531 778.091 625.571 778.531 623.891 779.301C623.251 777.341 621.761 775.211 622.111 773.441C623.081 768.331 624.771 763.351 626.181 758.321L625.941 758.561Z" fill="#0D0DE7"/>
<path d="M135.6 705.73C131.4 707.86 128.57 710.55 126.5 710.05C123.79 709.41 119.98 706.5 119.65 704.14C118.96 699.22 119.47 693.78 120.97 689.02C122.18 685.2 125.58 682.69 129.17 687.87C129.76 688.73 130.84 689.53 131.82 689.77C133.71 690.21 135.72 690.23 137.66 690.41C136.69 688.76 135.8 687.08 134.75 685.47C134.17 684.57 133.38 683.8 132.19 682.38C134.19 680.8 136.14 679.52 137.77 677.89C142.59 673.1 147.4 668.28 151.98 663.27C155.11 659.84 157.65 658.64 160.78 663.29C161.37 664.16 164.19 664.62 165.12 663.98C167.46 662.41 169.04 659.61 171.45 658.25C173.81 656.93 176.85 656.82 179.6 656.18C179.54 659.3 180.75 663.47 179.19 665.32C174 671.47 167.61 676.59 162.1 682.5C158.15 686.75 154.36 691.35 151.41 696.32C147.35 703.19 140.43 707.16 135.58 705.7L135.6 705.73ZM144.8 680.71C145.75 681.68 146.71 682.65 147.68 683.62C151.15 680.55 154.63 677.47 159.65 673.02C156.28 672.4 153.77 671.21 152.91 671.93C149.91 674.49 147.46 677.73 144.8 680.71Z" fill="#0D0DE7"/>
<path d="M703.378 647.141C704.748 647.321 706.709 647.871 708.619 647.751C714.889 647.341 716.719 650.051 714.529 655.981C713.209 659.521 712.729 663.381 711.359 669.291C718.519 665.121 723.459 665.681 728.969 668.891C738.079 674.181 725.929 678.641 730.489 683.331C729.719 683.441 728.948 683.551 728.178 683.661C727.668 682.031 727.158 680.381 726.628 678.771C724.558 672.581 717.749 671.061 713.119 675.791C708.339 680.661 705.319 697.901 708.029 704.321C709.769 708.441 711.379 712.611 713.249 717.251C710.299 722.001 704.969 722.111 697.819 716.901C691.189 712.081 690.808 707.971 696.168 701.691C697.048 700.641 697.599 699.141 697.869 697.791C699.959 687.261 702.119 676.761 703.819 666.181C704.349 662.861 703.558 659.331 703.398 655.911C702.558 655.891 701.709 655.871 700.849 655.851C700.339 660.391 699.869 664.911 699.339 669.451C699.009 672.251 698.619 675.061 698.269 677.861C695.379 677.421 692.338 677.431 689.668 676.411C687.618 675.621 686.049 673.551 683.559 671.451C691.459 668.941 694.359 664.041 695.469 656.791C695.999 653.371 700.468 650.551 703.418 647.161L703.378 647.141Z" fill="#0D0DE7"/>
<path d="M488.881 795.372C490.601 793.302 492.521 791.032 494.421 788.762C494.831 788.942 495.231 789.112 495.611 789.292C495.321 790.862 495.301 792.552 494.701 793.982C491.571 801.282 494.001 807.942 496.471 814.792C497.351 817.222 496.601 820.242 496.581 822.992C492.451 822.382 487.761 828.282 484.211 822.222C482.321 819.022 481.411 815.262 479.711 811.952C479.091 810.712 477.491 809.952 476.341 808.972C475.411 810.302 473.781 811.582 473.691 812.962C473.361 818.042 473.561 823.172 473.561 828.302C461.751 828.092 457.961 821.652 459.741 808.862C460.961 800.072 460.621 791.062 461.061 782.152C461.151 780.172 461.571 778.222 461.821 776.242C463.451 777.612 465.921 778.712 466.531 780.452C467.571 783.412 467.281 786.842 467.881 789.992C468.141 791.302 468.981 792.902 470.041 793.502C470.721 793.872 472.401 792.792 473.451 792.052C475.971 790.282 475.351 783.252 481.101 787.062C483.811 788.852 485.691 791.892 488.881 795.372Z" fill="#0D0DE7"/>
<path d="M160.381 715.912C163.841 716.992 166.241 717.482 168.401 718.512C170.371 719.442 173.541 720.942 173.561 722.222C173.591 724.712 172.241 727.612 170.571 729.602C169.641 730.722 166.531 731.172 165.081 730.482C160.981 728.522 157.301 727.532 152.541 728.722C149.841 729.402 146.391 727.112 143.281 726.162C144.551 722.652 144.881 718.222 147.251 715.782C152.141 710.802 158.131 706.892 163.651 702.512C166.331 700.392 169.481 698.762 168.931 694.262C168.801 693.212 171.541 691.292 173.281 690.632C178.901 688.512 184.781 687.032 190.381 684.872C195.491 682.892 200.321 680.182 205.421 678.152C207.181 677.452 209.341 677.782 211.671 677.602C209.431 689.002 197.571 686.752 191.731 692.192C192.231 693.032 192.701 693.872 193.201 694.712C195.581 693.692 197.961 692.682 200.941 691.402C201.511 693.742 202.991 696.652 202.721 699.402C202.241 704.102 198.511 704.212 194.701 703.432C181.411 700.662 170.521 704.712 160.381 715.912Z" fill="#0D0DE7"/>
<path d="M739.071 704.712C732.141 709.612 730.541 704.192 728.091 698.852C723.661 703.852 719.801 708.192 715.831 712.652C712.171 708.622 711.711 704.562 714.711 699.862C716.831 696.532 718.081 692.632 720.371 689.462C721.461 687.942 724.191 686.712 726.021 686.902C727.831 687.082 730.201 688.842 731.041 690.562C733.421 695.392 740.451 699.802 745.281 698.232C746.711 697.772 747.681 695.482 748.541 693.852C751.081 689.092 756.591 686.662 760.141 688.972C758.511 691.752 756.811 694.512 755.271 697.352C753.201 701.192 750.641 704.672 755.381 709.012C757.031 710.512 757.271 715.492 756.061 717.792C751.481 726.602 747.551 736.322 736.641 739.542C735.721 739.812 734.591 739.362 732.261 739.102C737.461 733.112 742.131 728.042 746.451 722.702C751.041 717.032 750.701 713.492 745.281 710.252C739.791 718.072 734.461 726.072 728.581 733.652C727.301 735.312 724.031 735.422 721.681 736.262C722.001 733.902 721.481 730.852 722.781 729.292C727.251 723.872 732.561 719.152 737.111 713.802C738.821 711.812 739.351 708.792 740.411 706.242C739.971 705.732 739.551 705.222 739.111 704.712H739.071Z" fill="#0D0DE7"/>
<path d="M626.179 758.32C621.779 758.3 616.999 752.94 612.849 760.28C613.379 761.58 614.259 763.72 615.229 766.1C609.959 772.71 607.319 765.9 603.919 763.7C602.109 764.58 600.399 766.04 598.699 766.03C597.329 766.01 595.299 764.47 594.819 763.15C594.439 762.09 595.719 759.25 596.609 759.09C601.279 758.21 600.589 754.93 600.879 751.66C601.119 749.02 602.199 746.46 602.909 743.88C604.959 745.76 607.029 747.63 609.059 749.53C609.679 750.12 610.209 750.83 610.889 751.62C615.979 749.95 617.649 747.5 615.869 741.83C613.619 734.63 612.649 726.98 611.599 719.46C611.369 717.7 612.589 714.57 613.909 714.08C615.389 713.51 618.509 714.65 619.549 716.04C621.379 718.49 622.839 721.64 623.229 724.66C623.809 729.42 623.389 734.3 623.389 739.12C623.979 739.36 624.559 739.59 625.169 739.83C626.379 737.16 627.329 734.32 628.899 731.89C629.979 730.24 631.959 729.22 633.529 727.9C634.579 729.8 636.099 731.61 636.479 733.63C636.769 735.13 636.039 737.89 634.939 738.42C626.189 742.69 626.629 750.8 625.969 758.52L626.209 758.3L626.179 758.32Z" fill="#0D0DE7"/>
<path d="M127.23 596.643C121.67 593.583 117.02 591.303 112.66 588.553C110.83 587.403 107.97 584.583 108.36 583.723C110.1 579.713 112.18 575.373 115.44 572.773C116.82 571.683 122.93 573.633 124.19 575.793C128.75 583.523 135.25 588.883 142.46 593.583C146.21 596.043 150.33 597.923 155 600.453C156.32 608.483 154.12 610.553 145.22 608.693C139.84 607.553 134.24 607.333 128.99 605.873C124.83 604.713 122.54 601.753 127.21 596.643H127.23Z" fill="#0D0DE7"/>
<path d="M71.7094 612.693C74.2594 616.063 77.0394 619.303 79.2894 622.853C82.4994 627.943 85.7494 629.113 90.9894 625.143C99.3894 618.773 108.139 612.843 116.979 607.093C118.519 606.093 122.179 606.013 123.219 607.093C125.139 609.113 125.559 611.343 121.789 613.743C108.489 622.213 95.5494 631.313 82.7494 640.573C79.4194 642.993 76.8394 642.953 75.1194 639.883C70.5594 631.803 66.0994 623.533 69.5894 613.853C70.3094 613.463 71.0194 613.083 71.7294 612.683L71.7094 612.693Z" fill="#0D0DE7"/>
<path d="M98.6406 564.537C102.701 556.757 106.641 548.917 110.981 541.307C111.471 540.447 114.861 540.057 115.811 540.827C125.891 548.957 125.311 563.087 114.451 570.497C112.731 571.677 109.351 571.577 107.261 570.757C104.531 569.677 102.301 567.297 98.6406 564.547V564.537Z" fill="#0D0DE7"/>
<path d="M691.541 698.033C680.281 701.193 672.63 698.913 668.73 689.133C671.93 688.333 674.881 687.063 677.861 686.993C681.671 686.903 686.341 686.643 689.091 688.603C691.191 690.123 690.861 694.993 691.561 698.033H691.541Z" fill="#0D0DE7"/>
<path d="M736.789 563.223C740.119 559.303 742.479 555.773 745.589 553.153C747.289 551.713 750.549 550.813 752.559 551.433C754.209 551.943 755.619 554.953 756.099 557.073C756.699 559.743 756.239 562.633 756.239 565.623C749.709 564.813 743.189 564.023 736.789 563.243V563.223Z" fill="#0D0DE7"/>
<path d="M607.079 781.203C613.709 783.933 618.889 790.483 617.899 795.573C617.539 797.433 615.979 799.473 614.369 800.513C613.599 801.003 610.529 799.763 610.099 798.663C607.979 793.243 606.389 787.613 604.609 782.043C605.439 781.773 606.259 781.473 607.069 781.203H607.079Z" fill="#0D0DE7"/>
<path d="M625.959 226.099C620.009 230.559 613.929 234.869 608.129 239.519C582.699 259.909 552.629 269.039 521.459 275.649C502.659 279.639 483.969 284.179 465.139 287.999C435.599 293.989 414.159 311.339 397.299 335.349C389.429 346.589 381.399 357.719 373.839 369.139C367.359 378.919 369.209 383.159 380.409 386.199C381.869 386.589 383.279 387.119 386.319 388.089C353.589 397.919 322.389 407.289 291.199 416.659C290.959 416.169 290.719 415.669 290.479 415.179C297.899 410.229 305.339 405.349 312.719 400.369C320.829 394.899 321.049 391.469 313.489 385.139C297.019 371.359 280.509 357.609 263.919 343.939C257.539 338.669 251.369 337.039 242.819 341.379C223.339 351.259 202.749 351.129 182.179 344.249C175.899 342.139 169.699 339.779 163.449 337.549C163.599 336.869 163.729 336.199 163.869 335.519C166.179 335.519 168.509 335.499 170.809 335.519C196.349 335.869 221.659 334.349 246.419 327.229C255.499 324.629 263.779 325.779 272.159 331.359C294.619 346.319 317.659 360.409 340.489 374.839C347.759 379.429 350.869 379.029 356.739 371.799C369.019 356.679 381.139 341.409 393.289 326.169C398.949 319.059 404.409 311.799 410.229 304.839C412.609 301.999 415.519 299.499 418.539 297.339C439.529 282.239 463.669 274.459 488.069 267.039C532.439 253.569 576.659 239.619 620.959 225.899C622.389 225.459 623.889 225.309 625.369 225.039C625.569 225.379 625.769 225.729 625.989 226.079L625.959 226.099Z" fill="#0D0DE7"/>
<path d="M394.941 702.88C404.811 699.73 413.101 697.07 421.411 694.42C421.251 693.78 421.101 693.14 420.931 692.5C414.111 691.8 407.221 691.49 400.511 690.27C396.961 689.62 391.321 688.97 392.431 683.77C393.081 680.78 397.011 677.22 400.181 676.28C413.631 672.27 427.361 671.12 440.321 678.15C446.961 681.75 447.421 688.66 440.761 691.82C432.211 695.87 422.911 698.54 413.701 700.96C408.181 702.4 402.231 702.22 394.961 702.9L394.941 702.88ZM420.061 689.2C423.811 689.72 427.851 688.4 427.491 683.51C427.101 678.44 423.391 675.4 417.801 675.75C414.221 675.99 410.561 675.95 410.571 681.21C410.591 686.84 412.941 689.13 420.061 689.19V689.2Z" fill="#0D0DE7"/>
<path d="M446.488 691.438C462.468 686.348 474.798 671.848 494.458 673.758C494.458 679.888 494.458 684.898 494.458 689.838C498.358 690.468 501.728 690.998 505.088 691.528C505.078 692.298 505.058 693.078 505.018 693.848C501.778 694.158 498.538 694.478 494.858 694.818C494.588 696.598 494.298 698.468 493.928 700.718C489.188 700.718 484.408 700.718 479.048 700.718C478.848 698.808 478.628 696.798 478.318 693.868C467.808 693.868 457.398 693.868 446.978 693.868C446.818 693.048 446.648 692.238 446.488 691.418V691.438ZM458.988 690.168C466.888 690.168 472.918 690.168 479.098 690.168C479.098 687.038 479.098 684.298 479.098 680.178C472.478 683.468 466.598 686.398 458.988 690.168Z" fill="#0D0DE7"/>
<path d="M519.609 675.791C526.899 675.201 534.179 674.601 541.149 674.031C544.799 683.151 538.239 693.511 545.549 700.741C538.659 700.741 530.119 700.741 521.549 700.741C528.319 701.011 527.859 696.381 527.699 691.751C527.539 687.151 527.659 682.541 527.659 677.511C524.679 677.291 522.169 677.111 519.649 676.921C519.629 676.541 519.629 676.151 519.609 675.771V675.791Z" fill="#0D0DE7"/>
<path d="M357.461 677.451C354.121 677.221 351.821 677.071 349.491 676.901C349.481 676.591 349.481 676.261 349.461 675.951C354.841 675.401 360.201 674.761 365.601 674.341C367.501 674.191 369.461 674.541 372.041 674.711C372.041 681.371 371.751 687.741 372.191 694.051C372.361 696.431 374.191 698.701 375.141 700.771C368.461 700.771 359.841 700.771 351.211 700.771C357.471 700.611 357.821 696.531 357.511 691.641C357.221 687.061 357.461 682.451 357.461 677.451Z" fill="#0D0DE7"/>
<path d="M523.401 875.538C522.341 873.978 521.041 872.408 520.491 870.598C518.571 864.368 518.261 857.338 515.091 851.928C511.501 845.778 511.651 837.678 504.251 833.218C499.751 830.508 497.571 824.688 499.591 819.108C501.731 813.228 508.371 809.168 506.471 801.568C506.341 801.058 507.821 799.938 508.741 799.388C513.081 796.758 515.641 792.528 512.731 788.468C510.751 785.718 505.921 784.478 502.151 783.738C499.921 783.298 497.241 785.168 494.771 785.988C492.941 786.598 491.111 787.198 488.461 788.078C490.031 779.768 493.331 774.848 500.541 772.398C506.961 770.218 512.981 766.868 519.241 764.158C521.511 763.168 523.951 762.568 526.931 761.578C527.971 772.068 525.121 780.488 520.121 788.058C516.481 793.548 518.551 796.978 523.311 799.118C525.211 799.978 528.191 798.308 530.701 797.978C534.161 797.508 538.411 795.818 540.931 797.198C543.461 798.568 545.661 803.108 545.531 806.178C545.311 812.168 544.301 818.518 541.871 823.938C539.541 829.138 535.061 833.368 531.451 837.958C529.221 840.798 527.131 842.758 527.921 847.608C529.311 856.058 528.301 864.918 528.301 873.648C529.921 873.708 532.041 873.488 534.551 873.078L534.511 873.098C533.081 873.358 528.101 874.458 523.381 875.498L523.401 875.538ZM538.081 812.218C536.141 810.158 534.361 806.508 532.241 806.308C526.691 805.758 525.631 810.828 525.431 814.878C525.251 818.478 526.241 823.188 531.121 822.908C536.611 822.598 536.931 817.918 538.061 812.218H538.081Z" fill="#0D0DE7"/>
<path d="M69.3489 462.399L69.3389 461.539C69.2589 458.829 67.1589 457.529 63.0389 457.639L49.1489 458.029L49.6389 476.219L63.8389 475.839C67.7589 475.729 69.6789 474.239 69.6089 471.389L69.5889 470.529L72.6689 470.439L73.1389 487.989L70.0688 488.079L70.049 487.239C69.979 484.529 67.979 483.209 64.059 483.319L32.5789 484.179C28.8689 484.289 27.0489 485.699 27.1289 488.409L27.1389 489.249L24.049 489.339L23.5789 471.789L26.6689 471.699L26.6888 472.559C26.5588 475.559 28.4589 476.949 32.3589 476.699L45.0289 476.349L44.5289 458.149L32.179 458.479C28.059 458.449 26.139 459.999 26.429 463.129L26.4489 463.549L23.3589 463.649L22.8789 446.089L25.9689 445.999L26.0089 447.059C25.8789 449.939 27.769 451.239 31.679 450.979L63.1689 450.119C67.2889 450.159 69.209 448.669 68.929 445.689L68.9089 444.829L71.9889 444.739L72.4689 462.289L69.3889 462.379L69.3489 462.399ZM63.3489 421.639L64.9789 420.469C70.9089 424.069 73.7789 428.149 73.6389 432.729C72.7389 439.099 67.2689 442.049 57.1589 441.569C46.3289 440.179 40.7789 435.809 40.5089 428.479C40.7289 425.649 42.1389 423.449 44.7189 421.929C46.4389 420.919 48.8689 420.319 51.9789 420.119C53.8489 419.969 55.0189 419.639 55.4789 419.089L57.6389 419.259L56.4889 434.409C63.7289 434.249 67.7988 432.329 68.6888 428.689C69.0388 426.849 67.2489 424.489 63.3489 421.619V421.639ZM53.6888 434.429L54.2689 426.749C47.8989 426.399 44.5189 427.439 44.1289 429.839C44.7489 432.599 47.9388 434.139 53.6888 434.429ZM73.2889 416.019L33.7489 411.079C31.1389 410.449 29.4089 410.889 28.6089 412.379L27.5089 413.749L25.6589 413.509L23.0289 404.759L23.2489 403.059L49.2889 406.319C45.3889 402.659 43.6389 399.339 43.9989 396.379C45.4989 391.089 50.8689 388.819 60.1089 389.549C71.4789 391.549 76.9489 396.839 76.4689 405.419C76.1589 407.969 75.0989 411.519 73.2889 416.039V416.019ZM52.9689 406.789L62.4689 407.979C69.6289 408.879 73.3989 407.689 73.799 404.429C74.089 400.439 70.3789 397.879 62.6189 396.759C54.8189 396.069 50.4789 397.619 49.5889 401.389C49.5689 403.259 50.6789 405.059 52.9489 406.779L52.9689 406.789ZM72.8989 366.319L74.6989 365.409C80.0089 369.859 82.2389 374.339 81.4189 378.839C79.5689 385.009 73.709 387.099 63.809 385.099C53.299 382.079 48.489 376.939 49.309 369.659C49.949 366.869 51.6689 364.929 54.4689 363.819C56.3389 363.069 58.8289 362.849 61.9189 363.119C63.7889 363.269 64.9989 363.099 65.5289 362.649L67.6289 363.139L64.2089 377.949C71.3889 378.879 75.6989 377.599 77.1489 374.119C77.7689 372.359 76.3588 369.769 72.9388 366.339L72.8989 366.319ZM61.429 377.509L63.1689 369.979C56.9289 368.689 53.4289 369.199 52.6589 371.499C52.8589 374.339 55.769 376.339 61.429 377.489V377.509ZM85.4589 352.119L87.8389 352.799L84.1089 365.989L81.7289 365.319L81.9089 364.699C82.6989 362.699 81.1789 361.219 77.3889 360.299L62.8188 356.179C61.0788 355.539 59.8189 355.849 59.0289 357.119L57.679 358.509L55.8789 357.999L53.9989 347.669L54.2289 346.849L79.7889 354.079C82.7689 354.919 84.6589 354.259 85.4789 352.119H85.4589ZM36.0389 345.269C36.9689 342.709 39.0589 341.829 42.2589 342.579C45.3589 343.759 46.7489 345.639 46.4589 348.219C45.5189 350.779 43.3289 351.719 39.8789 351.039C36.9889 349.919 35.7089 347.999 36.0389 345.269ZM58.8689 315.929L86.429 326.859C90.729 328.869 93.3988 328.009 94.4489 324.279L97.3188 325.419L92.429 337.749L89.559 336.619L89.7289 336.209C90.7689 333.559 89.7389 331.689 86.6289 330.609L52.7489 317.179C51.3789 317.859 50.3689 318.989 49.7289 320.599L46.8589 319.469L50.9589 309.109L90.549 300.609L68.4388 291.849C63.8288 289.559 61.0789 290.309 60.2389 294.129L59.9989 294.719L57.1289 293.579L62.3389 280.439L65.2189 281.579L64.9789 282.159C63.6189 284.999 64.319 286.899 67.049 287.819L106.109 303.299L105.009 306.089L58.8989 315.919L58.8689 315.929ZM95.6689 289.939C86.4489 284.429 83.3889 277.749 86.4889 269.859C90.9189 262.999 97.7589 261.589 106.999 265.649C116.229 271.159 119.159 277.859 115.809 285.789C111.749 292.849 105.029 294.239 95.6689 289.939ZM94.8489 281.339C105.319 286.189 111.749 286.759 114.109 282.989C115.349 280.109 113.169 277.149 107.539 274.109C97.8689 269.519 91.6689 268.979 88.9189 272.549C87.6189 275.569 89.5789 278.499 94.8289 281.339H94.8489ZM129.389 257.559L131.479 258.899L123.239 271.689L121.149 270.359L121.259 270.169C122.669 268.359 121.679 266.459 118.329 264.459L107.429 257.429C105.059 255.749 103.269 255.349 101.969 256.229L100.379 256.979L98.8188 255.969L99.5389 245.739L100.119 244.839L107.659 249.689L107.769 249.509C103.669 244.839 102.259 242.059 103.559 241.199C103.799 240.829 104.079 240.589 104.409 240.469L108.539 238.029C111.009 240.279 112.879 242.519 114.159 244.689C111.959 245.829 110.649 246.759 110.169 247.479C109.459 248.209 109.819 249.729 111.289 252.019L122.199 259.029C125.239 261.149 127.359 261.079 128.579 258.789L129.389 257.529V257.559ZM133.009 218.669L144.439 227.639C147.199 229.799 149.209 230.029 150.549 228.349L152.489 229.889L144.419 240.159L142.479 238.619C144.049 236.949 143.259 234.959 140.099 232.669L131.109 225.599C127.069 222.419 124.339 221.719 122.929 223.519C121.789 224.629 121.499 227.669 122.049 232.629L133.469 241.599C136.239 243.759 138.249 243.999 139.589 242.319L139.839 241.989L141.779 243.519L133.309 254.299L131.369 252.769L131.489 252.599C133.069 250.939 132.279 248.939 129.119 246.649L116.979 237.099C115.939 236.089 114.559 235.999 112.839 236.839L111.559 237.459L110.099 236.309L112.289 226.039L112.829 225.369L119.869 230.909C118.869 222.859 119.229 218.059 120.969 216.529C123.079 214.179 126.329 214.379 130.739 217.109C129.699 209.749 130.119 204.899 131.969 202.539C134.279 199.279 139.039 200.559 146.229 206.399L155.949 214.039C158.459 216.179 160.289 216.339 161.439 214.529L163.379 216.069L155.439 226.169L153.499 224.629C154.909 222.839 153.219 220.149 148.439 216.579L143.099 212.369C138.409 208.669 135.359 207.719 133.929 209.529C132.979 210.429 132.679 213.469 133.049 218.649L133.009 218.669ZM175.939 194.779L177.859 195.439C178.519 198.619 178.129 201.129 176.689 202.929C174.969 204.439 173.029 204.369 170.899 202.719C171.759 206.309 171.209 208.949 169.289 210.669C166.379 213.409 163.089 213.139 159.409 209.829C157.469 207.979 156.319 206.069 155.909 204.099C155.619 202.629 155.889 200.709 156.719 198.329C157.799 195.419 158.239 192.879 158.039 190.699L155.799 188.579C153.309 186.399 151.259 186.009 149.629 187.439C148.299 189.119 149.139 191.209 152.159 193.719L150.109 200.339C147.349 198.479 145.769 196.389 145.419 194.079C144.879 190.789 145.829 187.549 148.279 184.379C152.819 180.829 157.189 180.869 161.419 184.489L172.149 194.729C174.089 196.569 175.219 197.179 175.569 196.499C175.959 196.099 176.079 195.509 175.939 194.779ZM168.739 200.949L160.489 193.059C160.689 194.049 160.649 195.269 160.359 196.789C159.629 199.649 160.429 202.079 162.759 204.119C165.229 206.289 167.149 206.819 168.489 205.739C169.179 205.009 169.269 203.439 168.759 200.969L168.739 200.949ZM151.779 153.009L182.639 185.459C185.179 188.149 187.229 188.739 188.789 187.279L190.489 189.069L180.709 198.369L179.009 196.569L179.319 196.279C181.119 194.849 180.619 192.789 177.819 190.059L155.249 166.339C153.369 164.139 151.939 163.369 150.969 164.009L148.409 164.739L146.929 163.169L150.989 153.759L151.759 153.029L151.779 153.009ZM194.259 126.209L192.339 123.779L203.449 115.029L205.369 117.464L205.039 117.72C202.219 119.679 202.259 122.388 205.169 125.869L217.399 141.409C225.559 152.019 225.699 160.529 217.869 166.979C209.429 173.349 201.539 171.959 194.169 162.819L179.649 144.369C177.469 141.369 175.389 140.779 173.369 142.629L172.529 143.289L170.609 140.859L184.079 130.259L185.999 132.689L185.339 133.219C183.309 134.819 183.399 136.999 185.559 139.739L200.079 158.189C205.409 164.739 210.659 166.119 215.839 162.309C221.219 157.809 221.019 151.799 215.289 144.279L203.449 129.229C200.119 124.789 197.279 123.599 194.949 125.699L194.279 126.229L194.259 126.209ZM245.769 123.979L252.429 134.399C254.079 137.249 255.739 138.019 257.439 136.679L258.779 138.769L247.939 145.709L246.609 143.619C248.419 142.469 247.649 139.409 244.319 134.469L240.659 128.739C237.329 123.539 234.819 121.601 233.119 122.918C231.669 123.829 230.609 125.869 229.899 129.009L238.549 142.539C240.439 145.489 242.339 146.349 244.269 145.119L244.629 144.879L245.969 146.969L234.229 154.479L232.899 152.389L233.259 152.149C235.189 151.179 235.019 149.079 232.809 145.849L224.479 132.839C223.709 131.379 222.319 130.789 220.309 131.099L219.239 131.429L218.239 129.859L223.669 120.887L224.409 120.429L228.229 126.419C229.489 120.704 231.269 117.134 233.559 115.67C236.819 113.345 240.879 116.128 245.749 123.999L245.769 123.979ZM270.479 130.329L271.589 132.549L259.369 138.749L258.249 136.539L258.819 136.239C260.809 135.459 260.869 133.349 258.979 129.949L252.119 116.457C251.399 114.755 250.319 114.023 248.859 114.297L246.919 114.242L246.079 112.595L252.369 104.194L253.139 103.809L265.169 127.479C266.579 130.239 268.329 131.189 270.459 130.329H270.479ZM241.979 89.3861C244.479 88.3421 246.549 89.2581 248.179 92.1311C249.409 95.2061 248.989 97.4941 246.879 99.0321C244.369 100.075 242.199 99.1051 240.349 96.1031C239.189 93.2301 239.739 90.9781 241.979 89.3861ZM259.269 105.127L258.249 102.876L270.929 97.1281L271.959 99.3801L270.199 100.167C269.119 100.881 269.509 102.29 271.389 104.377L282.369 116.695L280.539 102.272C280.099 98.1721 278.219 96.7801 274.869 98.0621L273.839 95.8101L283.799 91.3081L284.829 93.5591C282.739 94.4931 282.009 96.5241 282.649 99.6361L285.719 125.699L282.789 127.019L265.189 107.854C263.039 105.2 261.069 104.285 259.239 105.109L259.269 105.127ZM313.159 102.748L314.919 103.718C314.239 110.618 311.819 114.993 307.629 116.842C301.499 118.8 296.469 115.139 292.509 105.859C289.049 95.4991 290.569 88.5991 297.049 85.1761C299.709 84.1331 302.289 84.4621 304.799 86.1281C306.459 87.2441 308.049 89.1661 309.589 91.8751C310.529 93.5041 311.349 94.4011 312.029 94.5661L312.809 96.5791L298.649 102.125C301.939 108.568 305.439 111.405 309.119 110.637C310.929 110.161 312.259 107.525 313.159 102.748ZM297.439 99.6181L304.609 96.7991C302.139 90.9051 299.739 88.3241 297.419 89.0011C295.189 90.7591 295.199 94.3091 297.439 99.6181ZM334.099 104.944L334.779 107.324L320.129 111.46L319.459 109.081L319.659 109.026C321.909 108.605 322.439 106.536 321.249 102.821L317.719 90.3381C317.059 87.5191 315.979 86.0181 314.439 85.8171L312.739 85.3221L312.249 83.5471L319.549 76.3531L320.569 76.0611L323.009 84.6821L323.229 84.6271C323.249 78.4031 324.029 75.4021 325.569 75.6031C325.989 75.4931 326.359 75.4931 326.689 75.6211L331.389 76.5361C331.739 79.8681 331.669 82.7781 331.189 85.2491C328.789 84.6451 327.179 84.4621 326.359 84.7001C325.329 84.7731 324.619 86.1461 324.179 88.8551L327.709 101.338C328.589 104.944 330.219 106.298 332.649 105.402L334.099 104.999V104.944ZM341.169 105.237L338.459 96.3601L340.119 95.9751C342.029 99.7461 344.419 101.521 347.279 101.283C348.759 100.734 349.399 99.3251 349.159 97.0551C348.799 95.4441 346.999 93.7601 343.819 91.9481C338.989 89.4771 336.169 86.4211 335.329 82.8151C334.209 76.7381 336.259 72.8761 341.439 71.2651C343.529 70.7891 345.669 70.8261 347.849 71.3751L349.789 79.8131L348.119 80.1971C346.129 76.0061 343.949 74.1751 341.589 74.7241C340.099 75.2921 339.479 76.3721 339.699 78.0191C340.119 79.8311 342.059 81.6071 345.539 83.3271C350.459 85.5791 353.369 88.7091 354.309 92.7171C355.419 98.8121 353.779 102.455 349.369 103.681C347.829 104.029 346.269 104.303 344.719 104.45C344.109 104.377 343.749 104.358 343.599 104.395C343.329 104.45 342.999 104.633 342.629 104.926L341.169 105.255V105.237ZM370.709 96.2131L371.149 98.6471L357.659 101.082L357.219 98.6471L357.839 98.5381C359.979 98.3731 360.639 96.3601 359.799 92.5521L357.109 77.6531C356.929 75.8041 356.099 74.8161 354.599 74.6511L352.749 74.0471L352.419 72.2171L360.879 65.9931L361.719 65.8471L366.439 91.9851C366.989 95.0421 368.419 96.4511 370.689 96.2311L370.709 96.2131ZM355.189 48.8061C357.899 48.5321 359.619 49.9961 360.349 53.2171C360.639 56.5121 359.579 58.5991 357.129 59.4591C354.419 59.7331 352.619 58.1781 351.709 54.7911C351.429 51.6981 352.609 49.7211 355.199 48.8241L355.189 48.8061ZM376.819 69.3981L380.229 88.2331C380.699 90.8681 381.779 92.0221 383.469 91.7101C384.729 91.4911 385.829 89.9351 386.759 87.0431L388.039 89.3131C386.799 93.7241 384.579 96.3231 381.379 97.1101C377.299 97.8421 374.719 95.1701 373.619 89.0931L370.269 70.5691L367.319 71.1001L366.939 68.9771C370.139 65.8841 372.099 61.4361 372.789 55.6701L374.279 55.3951L376.029 65.1151L382.989 63.8521L383.119 68.2271L376.799 69.3611L376.819 69.3981ZM400.689 93.4131L391.789 72.4001C389.839 67.3841 387.879 65.1701 385.919 65.7191L385.739 63.2481L399.829 62.1681L400.009 64.6391C398.579 64.7491 397.759 65.2251 397.539 66.0671C397.159 66.7261 397.319 67.8421 398.019 69.4351L403.529 82.6321L406.889 70.2951C407.739 66.3051 406.579 64.3281 403.439 64.3641L403.249 61.8931L413.499 61.1061L413.689 63.5771C411.709 63.9431 410.299 66.1031 409.459 70.0931L399.979 106.427C398.859 110.435 397.299 112.504 395.289 112.668C393.129 112.632 391.889 111.186 391.519 108.312C391.559 107.067 391.779 105.914 392.119 104.853C392.619 103.974 393.589 103.388 394.999 103.095C397.249 102.51 398.859 100.313 399.869 96.5241L400.689 93.3761V93.4131ZM432.469 76.5001C433.469 65.8101 438.189 60.1731 446.629 59.5691C454.739 60.6121 458.949 66.1951 459.239 76.2801C458.239 86.9701 453.439 92.5161 444.859 92.8821C436.729 92.2591 432.589 86.7871 432.449 76.4821L432.469 76.5001ZM439.879 72.0521C439.989 83.5831 442.259 89.6241 446.669 90.1551C449.799 90.0451 451.539 86.7871 451.869 80.4171C451.869 69.7091 449.669 63.8701 445.259 62.9371C441.969 63.0651 440.169 66.0851 439.879 72.0521ZM472.749 65.9201L471.269 85.3221C470.789 89.6241 472.199 91.7841 475.499 91.8201L476.779 91.9121L476.599 94.3831L459.939 93.1201L460.119 90.6491L461.179 90.7221C463.309 91.0881 464.439 89.3131 464.589 85.4141L466.109 65.3891L462.039 65.0781L462.149 63.5411L466.619 61.3991C468.099 49.3371 473.339 42.7111 482.309 41.5391C486.259 42.2531 488.489 44.0651 488.969 46.9941C489.099 47.1951 488.909 47.6161 488.459 48.1841L486.519 51.1491C486.169 51.9361 485.769 52.3391 485.349 52.3021C484.919 52.2661 484.189 51.4781 483.169 49.9781C481.499 47.3601 480.039 46.0061 478.759 45.9141C475.769 45.6941 474.049 48.3481 473.629 53.8951L473.029 61.8931L478.569 62.3141L477.839 66.2861L472.719 65.9021L472.749 65.9201ZM494.569 96.4331L495.829 82.2111L497.939 82.5951C498.229 90.5941 500.629 95.0051 505.129 95.8291C508.959 96.3051 511.459 94.1451 512.619 89.3311C513.279 85.6881 511.349 81.4781 506.849 76.6831C501.379 70.8811 499.129 65.2431 500.119 59.7701C501.969 51.9541 506.389 48.3481 513.389 48.9891C515.359 49.3371 517.499 50.2521 519.869 51.7161C520.639 52.2661 521.089 52.5581 521.239 52.5951C521.509 52.6501 521.899 52.5041 522.389 52.1741C522.249 52.1561 522.339 52.0641 522.649 51.8991L523.709 52.1011L522.499 64.7491L520.399 64.3641C520.069 57.4091 517.719 53.4191 513.419 52.4301C510.169 52.0461 508.059 53.5651 507.159 56.9511C506.689 59.5871 508.319 63.0281 512.049 67.2561C515.469 70.8071 517.819 73.9561 519.039 76.6831C520.559 80.3071 520.999 83.9311 520.339 87.5921C518.159 96.3961 513.459 100.368 506.229 99.4711C504.399 99.1421 502.039 98.1901 499.129 96.6161C498.229 96.0301 497.629 95.7191 497.329 95.6641C496.909 95.5911 496.489 95.9201 496.049 96.6891L494.569 96.4141V96.4331ZM544.209 98.7941L545.309 100.386C541.369 104.834 537.089 106.408 532.399 105.072C525.519 102.693 523.179 96.7991 525.389 87.3721C529.109 76.8661 535.349 72.3271 544.159 73.7361C548.909 75.2921 550.929 78.1111 550.229 82.1921C549.559 84.5721 548.289 85.5971 546.459 85.3041C545.089 84.9201 544.049 83.3271 543.349 80.5821C542.669 78.2571 541.869 76.9391 540.899 76.6651C537.899 76.2621 535.309 79.5931 533.169 86.6771C530.979 95.4811 531.859 100.752 535.829 102.51C538.149 103.169 540.949 101.924 544.229 98.7761L544.209 98.7941ZM558.139 110.051L557.349 112.394L544.359 108.019L545.139 105.676L545.749 105.878C547.709 106.756 549.259 105.328 550.359 101.576L555.189 87.2261C555.919 85.5241 555.669 84.2421 554.439 83.3821L553.119 81.9541L553.709 80.1971L564.119 78.8241L564.929 79.0991L556.459 104.267C555.469 107.195 556.019 109.136 558.119 110.051H558.139ZM567.419 61.0331C569.929 62.0951 570.709 64.2181 569.799 67.3841C568.459 70.4051 566.519 71.7231 563.959 71.2831C561.449 70.2221 560.629 67.9891 561.469 64.5841C562.719 61.7471 564.709 60.5751 567.419 61.0331ZM582.409 110.325L583.029 112.229C577.829 116.823 573.079 118.361 568.759 116.86C562.939 114.114 561.749 108.001 565.199 98.5191C569.759 88.5801 575.559 84.5901 582.649 86.4941C585.299 87.5371 586.969 89.5321 587.659 92.4611C588.119 94.4191 587.969 96.9091 587.239 99.9291C586.819 101.759 586.799 102.967 587.169 103.553L586.359 105.566L572.229 99.9651C570.239 106.921 570.859 111.387 574.079 113.327C575.729 114.206 578.509 113.199 582.409 110.325ZM573.059 97.3111L580.229 100.148C582.449 94.1631 582.469 90.6301 580.289 89.5321C577.449 89.2941 575.049 91.8931 573.059 97.2931V97.3111ZM613.089 114.535L608.019 125.809C606.529 128.759 606.809 130.569 608.859 131.269L607.829 133.519L596.099 128.229L597.129 125.979C599.089 126.849 601.209 124.549 603.549 119.056L606.349 112.851C608.899 107.214 609.129 104.065 607.099 103.352C605.549 102.656 603.259 102.857 600.239 103.992L593.629 118.635C592.179 121.838 592.509 123.889 594.599 124.819L594.989 125.009L593.959 127.259L581.259 121.527L582.279 119.276L582.669 119.459C584.529 120.539 586.219 119.239 587.679 115.634L594.029 101.558C594.839 100.112 594.559 98.6291 593.209 97.1101L592.369 96.3961L593.139 94.6941L603.619 94.3461L604.409 94.6941L601.499 101.173C606.969 99.1231 610.949 98.6471 613.419 99.7641C617.129 101.228 617.039 106.134 613.109 114.535H613.089ZM632.289 137.619L632.969 139.429C628.079 142.779 623.519 143.259 619.309 140.819C613.219 136.829 612.389 130.529 616.839 121.948C623.009 112.668 630.179 109.795 638.369 113.309C642.589 115.981 643.869 119.221 642.189 122.992C640.949 125.129 639.479 125.829 637.759 125.079C636.519 124.369 635.909 122.589 635.889 119.734C635.799 117.317 635.349 115.835 634.469 115.341C631.669 114.206 628.329 116.823 624.529 123.179C620.239 131.169 619.819 136.499 623.229 139.169C625.329 140.379 628.349 139.849 632.289 137.599V137.619ZM654.249 149.549L654.509 151.549C648.519 155.039 643.549 155.649 639.609 153.339C634.429 149.509 634.449 143.289 639.669 134.649C646.049 125.769 652.509 122.973 659.099 126.209C661.499 127.749 662.749 130.039 662.859 133.039C662.929 135.039 662.309 137.469 660.989 140.289C660.219 142.009 659.959 143.199 660.219 143.839L659.049 145.649L646.249 137.419C642.959 143.859 642.699 148.359 645.489 150.889C646.929 152.079 649.859 151.619 654.229 149.549H654.249ZM647.589 134.959L654.069 139.139C657.399 133.699 658.099 130.219 656.179 128.739C653.449 127.969 650.569 130.039 647.589 134.959ZM694.799 188.559L693.589 191.599C690.489 191.909 687.689 191.119 685.169 189.219C682.839 187.749 682.439 184.399 683.939 179.169C678.949 180.579 674.659 179.859 671.059 177.039C666.789 172.819 667.229 167.469 672.409 161.059C676.049 156.619 681.309 155.009 688.129 156.289C688.119 151.929 689.379 148.379 691.899 145.669C696.129 141.419 700.489 140.989 704.969 144.299C708.729 147.809 708.959 151.689 705.689 155.919C703.119 158.889 699.829 160.089 695.749 159.579C696.149 162.379 695.599 166.939 694.119 173.269C700.199 170.379 703.979 168.179 705.429 166.719C706.109 165.929 705.799 164.999 704.499 163.879L704.019 163.459L705.829 161.359L714.109 168.499L712.289 170.599L711.489 169.909C710.409 168.969 709.259 168.659 708.049 168.969C707.319 169.149 705.579 169.979 702.829 171.409C698.689 173.819 695.439 175.509 693.089 176.479C692.799 177.039 692.539 177.759 692.329 178.669C690.069 184.349 689.669 187.529 691.139 188.249C692.009 188.739 693.259 188.849 694.809 188.579L694.799 188.559ZM679.439 163.059C675.469 168.329 674.719 172.469 677.239 175.429C678.619 176.899 681.249 177.139 685.129 176.129C686.799 171.569 687.769 165.879 688.009 159.029C684.579 159.069 681.729 160.409 679.439 163.059ZM697.849 147.939C696.149 149.479 695.359 152.459 695.489 156.929C698.149 156.469 700.269 155.209 701.919 153.079C704.089 150.339 704.439 148.179 702.959 146.639C701.419 145.579 699.719 146.019 697.849 147.939ZM751.849 193.059L724.559 216.739C721.249 219.229 720.809 221.689 723.199 224.159L724.049 225.129L721.719 227.139L708.799 212.259L711.119 210.249L712.389 211.709C714.339 213.979 716.759 213.759 719.629 211.089L746.929 187.399L742.569 182.389C741.099 179.129 737.499 179.699 731.789 184.089L730.249 182.319L742.149 173.399L743.259 174.699C743.079 175.429 743.009 175.959 743.029 176.309C743.149 176.769 743.409 177.209 743.779 177.649L760.909 197.379C761.499 198.389 762.449 198.699 763.769 198.309L765.029 199.779L754.389 210.139L752.979 208.529C758.149 203.469 759.169 199.939 756.059 197.929L751.849 193.079V193.059ZM749.209 246.009L748.699 247.949C741.839 248.979 736.999 247.699 734.189 244.089C730.779 238.619 733.109 232.849 741.159 226.759C750.369 220.879 757.429 220.679 762.339 226.119C763.979 228.439 764.309 231.019 763.309 233.839C762.629 235.729 761.149 237.739 758.899 239.879C757.539 241.199 756.879 242.209 756.859 242.899L755.109 244.159L746.269 231.789C740.809 236.549 738.909 240.629 740.569 244.019C741.469 245.649 744.359 246.309 749.199 246.009H749.209ZM748.429 229.999L752.909 236.279C758.019 232.449 759.959 229.479 758.709 227.399C756.459 225.679 753.039 226.539 748.429 229.999ZM761.809 268.949L761.569 270.869C755.669 271.579 751.429 269.899 748.809 265.799C745.239 259.449 747.399 253.479 755.329 247.919C765.079 242.519 772.769 243.289 778.409 250.189C780.919 254.509 780.569 257.969 777.329 260.549C775.239 261.879 773.609 261.809 772.439 260.359C771.669 259.159 771.949 257.289 773.249 254.759C774.289 252.579 774.549 251.049 774.019 250.199C772.039 247.899 767.899 248.689 761.589 252.569C754.099 257.689 751.259 262.209 753.039 266.169C754.339 268.199 757.269 269.129 761.789 268.949H761.809ZM781.779 274.049L767.459 281.339C763.729 283.079 762.539 284.819 763.879 286.519L764.079 286.899L761.859 288.019L755.549 275.609L757.759 274.489L758.149 275.259C758.799 277.499 760.999 277.499 764.739 275.279L795.579 259.609C797.279 258.899 798.029 257.869 797.829 256.539L797.879 254.599L799.549 253.759L806.829 259.909L807.419 261.039L784.579 272.649C789.869 274.439 793.109 276.489 794.279 278.779C796.089 282.349 792.869 286.229 784.609 290.439L775.239 295.199C771.139 297.119 769.699 298.819 770.899 300.279L771.099 300.669L768.889 301.779L763.069 290.329L765.279 289.209L765.469 289.579C766.069 291.679 768.229 291.609 771.969 289.409L782.709 283.959C786.499 281.869 787.959 279.769 787.119 277.639C786.409 276.229 784.629 275.059 781.829 274.069L781.779 274.049ZM797.389 319.429L785.879 323.929C782.759 324.989 781.679 326.489 782.649 328.419L780.349 329.309L775.659 317.339L777.969 316.449C778.759 318.439 781.889 318.289 787.399 315.989L793.729 313.499C799.479 311.249 801.859 309.159 800.899 307.239C800.279 305.649 798.489 304.199 795.559 302.899L780.599 308.759C777.349 310.039 776.139 311.739 776.979 313.869L777.149 314.269L774.839 315.159L769.749 302.189L772.059 301.289L772.219 301.689C772.809 303.759 774.889 304.019 778.479 302.459L792.869 296.819C794.459 296.369 795.299 295.099 795.389 293.069L795.279 291.969L797.019 291.299L804.769 298.379L805.079 299.189L798.469 301.779C803.809 304.129 806.979 306.579 807.969 309.109C809.619 312.749 806.099 316.189 797.429 319.449L797.389 319.429ZM796.029 326.059C806.389 323.259 813.329 325.729 816.849 333.409C818.689 341.379 814.939 347.269 805.589 351.079C795.209 353.859 788.369 351.309 785.019 343.409C782.759 335.569 786.439 329.789 796.029 326.059ZM802.789 331.439C792.029 335.569 787.159 339.799 788.199 344.119C789.409 347.029 793.049 347.509 799.149 345.589C809.179 341.849 813.879 337.749 813.199 333.289C811.939 330.249 808.459 329.619 802.769 331.419L802.789 331.439ZM843.349 353.239L800.239 365.429C796.679 366.429 795.189 367.969 795.779 370.019L793.399 370.699L789.739 357.719L792.119 357.039L792.229 357.469C792.649 359.719 794.719 360.249 798.429 359.039L829.949 350.129C832.769 349.479 834.109 348.569 833.999 347.419L834.549 344.819L836.629 344.229L843.059 352.209L843.349 353.239ZM809.669 369.559C820.339 368.359 826.819 371.829 829.129 379.979C829.749 388.119 825.159 393.399 815.349 395.759C804.669 396.949 798.269 393.399 796.139 385.069C795.099 376.979 799.599 371.819 809.649 369.559H809.669ZM815.529 375.919C804.249 378.389 798.819 381.829 799.199 386.279C799.949 389.329 803.479 390.359 809.799 389.369C820.269 387.169 825.539 383.839 825.559 379.339C824.769 376.149 821.419 374.999 815.529 375.929V375.919ZM835.369 424.659L827.409 425.649L828.559 419.899C827.219 420.919 825.539 421.509 823.469 421.619C816.479 422.059 812.439 418.669 811.319 411.479C809.289 408.569 807.879 407.229 807.089 407.469C805.239 407.709 804.619 410.089 805.189 414.609L805.769 419.299C806.209 424.569 803.809 427.679 798.519 428.609C790.269 428.919 785.239 424.369 783.419 414.959C782.969 407.969 785.049 403.879 789.679 402.729C791.719 402.469 793.579 403.259 795.269 405.059C796.269 406.369 797.189 407.119 798.049 407.289C798.909 404.159 800.959 402.329 804.219 401.759C806.819 401.009 809.269 403.149 811.559 408.189L811.849 408.149C812.339 403.769 815.219 401.029 820.469 399.949C827.879 399.579 832.329 402.769 833.799 409.499C834.159 412.489 833.469 415.089 831.649 417.339L835.369 424.639V424.659ZM797.979 419.199L797.429 414.739C797.209 413.039 797.209 411.439 797.459 409.979C796.069 408.859 794.549 408.329 792.889 408.389C788.859 409.319 786.959 412.289 787.159 417.299C787.959 422.099 790.429 424.379 794.549 424.149C797.209 423.819 798.359 422.149 797.979 419.189V419.199ZM822.519 406.409C817.029 407.249 814.359 409.159 814.519 412.159C815.029 414.539 817.429 415.519 821.749 415.139C827.659 414.259 830.539 412.379 830.389 409.519C829.859 406.999 827.239 405.969 822.539 406.409H822.519ZM804.249 440.559L825.669 432.689C830.779 430.969 833.079 429.139 832.619 427.149L835.099 427.069L835.479 441.209L833.009 441.279C832.969 439.849 832.529 439.009 831.709 438.749C831.089 438.329 829.949 438.439 828.319 439.059L814.869 443.929L827.019 447.889C830.959 448.929 832.989 447.869 833.119 444.719L835.589 444.649L835.859 454.929L833.389 455.009C833.139 453.009 831.029 451.489 827.099 450.469L791.259 439.229C787.299 437.909 785.309 436.239 785.249 434.249C785.399 432.089 786.899 430.919 789.789 430.699C791.039 430.809 792.169 431.059 793.219 431.469C794.059 432.019 794.609 432.989 794.839 434.409C795.319 436.679 797.429 438.399 801.159 439.589L804.269 440.579L804.249 440.559Z" fill="#0D0DE7"/>
</svg>
