<svg width="760" height="760" viewBox="0 0 760 760" fill="none" xmlns="http://www.w3.org/2000/svg">
    <path fill-rule="evenodd" clip-rule="evenodd" d="M379.768 0C589.041 0 759.289 170.223 759.289 379.51C759.289 588.796 589.041 759.019 379.768 759.019C169.881 759.019 0.24707 588.776 0.24707 379.51C0.24707 170.243 169.881 0 379.768 0ZM379.768 20.1255C180.865 20.1255 19.779 181.225 19.779 379.51C19.779 577.794 180.787 738.855 379.748 738.855C578.058 738.855 739.124 577.851 739.124 379.51C739.124 181.168 578.058 20.1255 379.768 20.1255Z" fill="#593D2C"/>
    <path fill-rule="evenodd" clip-rule="evenodd" d="M376.087 165.336C484.521 165.262 572.482 253.1 572.557 361.531C572.557 361.621 572.557 361.709 572.557 361.799C572.557 469.806 484.711 557.649 376.087 557.649C267.464 557.649 179.618 469.806 179.618 361.799C179.555 253.359 267.414 165.399 375.857 165.336C375.934 165.336 376.011 165.336 376.087 165.336ZM376.701 411.231C353.952 411.402 335.65 429.981 335.818 452.728C335.989 475.476 354.568 493.78 377.316 493.61C400.067 493.439 418.369 474.86 418.199 452.113C418.199 452.107 418.199 452.101 418.199 452.096C417.905 429.404 399.396 411.178 376.701 411.231ZM323.031 528.362C323.031 528.362 277.853 487.478 291.884 427.102C291.884 427.102 312.048 356.317 376.087 360.017C376.087 360.017 451.148 372.82 468.227 306.349C468.227 306.349 490.194 242.273 432.23 201.389C432.23 201.389 368.766 159.931 287.015 207.504C287.015 207.504 236.374 232.421 213.2 297.187C213.2 297.187 187.573 355.742 213.794 428.961C213.794 428.961 225.986 472.892 280.881 507.661C280.881 507.661 303.461 519.871 313.236 525.372L318.718 527.806L323.031 528.362Z" fill="#593D2C"/>
    <path fill-rule="evenodd" clip-rule="evenodd" d="M371.813 623.546C371.219 621.725 369.992 620.498 369.992 618.658C369.992 618.064 369.379 617.431 368.766 616.837C366.889 612.854 364.19 609.314 360.85 606.449C360.52 606.127 360.098 605.92 359.642 605.854L354.122 602.194C352.667 601.189 351.002 600.534 349.253 600.277C348.027 600.277 346.8 599.05 345.593 599.05C344.384 599.05 343.138 597.229 341.336 597.843C340.039 597.722 338.785 597.302 337.675 596.616C334.609 596.616 331.561 594.182 328.494 594.795C327.9 595.389 326.693 595.389 326.693 594.795C324.814 593.808 322.693 593.382 320.578 593.568H318.662C316.841 592.361 314.387 592.955 311.972 592.361C310.055 592.361 308.31 592.955 306.451 591.728C306.451 591.134 305.244 591.134 304.649 591.134H300.356C296.695 591.134 293.667 589.217 290.006 589.907C288.089 587.991 286.345 588.7 284.486 588.7C283.891 588.7 283.278 588.067 282.684 588.067C282.165 587.594 281.463 587.375 280.767 587.473C278.657 587.722 276.521 587.293 274.671 586.246C274.058 585.633 273.444 585.633 272.237 586.246C271.095 586.302 269.983 585.861 269.189 585.039C268.495 585.056 267.819 584.834 267.273 584.406C266.046 584.406 264.838 585.039 263.612 583.812L262.998 583.199C261.354 583.295 259.703 583.093 258.13 582.605C257.517 581.972 255.676 581.972 254.469 580.688C251.621 580.832 248.813 579.969 246.534 578.254C243.736 578.097 241.018 577.261 238.617 575.82C235.55 574.593 232.502 573.999 230.049 572.772C227.001 571.564 224.567 569.705 221.52 568.498C219.563 567.721 217.715 566.696 216.019 565.45C213.584 564.837 211.744 562.383 209.328 561.789C206.262 560.562 203.808 557.515 200.761 556.902C198.844 554.467 195.279 553.241 193.439 550.806L192.825 550.193C190.435 549.07 188.346 547.395 186.73 545.305C186.117 545.305 186.117 544.711 185.504 544.711C183.702 544.079 183.069 542.795 181.862 542.258C179.945 540.341 178.795 537.984 175.746 537.389L175.133 536.776C171.472 532.502 167.217 528.841 163.633 525.18V524.567C163.633 523.953 163.019 523.34 163.019 522.746L164.227 522.113H203.425C204.87 522.054 206.313 522.268 207.68 522.746C208.406 523.215 209.273 523.424 210.133 523.34H216.229C217.088 523.244 217.953 523.463 218.664 523.953C219.89 525.18 221.117 524.567 222.938 525.18C224.855 525.18 227.212 524.567 229.052 525.793C229.646 526.407 230.26 525.793 231.506 525.793C232.359 525.703 233.213 525.922 233.921 526.407C235.167 527.614 236.968 527.001 238.828 527.614C240.313 527.739 241.76 528.155 243.083 528.841C245 528.841 246.15 528.227 247.952 529.435C250.405 529.435 252.226 531.352 255.274 531.352C257.193 531.687 259.052 532.3 260.794 533.173C260.794 533.805 261.388 533.805 262.002 533.805C264.455 533.805 265.663 535.013 267.483 535.722C271.2 536.72 274.711 538.367 277.853 540.59C282.128 540.59 284.562 543.657 288.223 544.884C290.677 547.318 294.338 547.912 296.772 550.366H297.347C301.008 551.573 303.423 554.64 306.47 555.867C309.518 557.093 311.992 559.527 315.02 560.735L315.652 561.348C316.86 563.265 318.681 563.783 320.521 565.009C322.974 565.623 324.776 568.057 327.229 569.284C330.89 571.104 333.325 574.765 337.618 575.992C338.212 575.992 338.212 575.992 338.826 576.605C342.013 579.58 345.487 582.231 349.196 584.521C349.875 585.313 350.703 585.963 351.63 586.438C352.263 587.051 352.263 588.355 353.547 588.355C355.567 589.261 357.263 590.758 358.415 592.648C359.579 593.982 361.045 595.021 362.69 595.677C363.916 596.309 364.606 597.593 365.737 598.13C366.351 598.743 366.983 598.743 368.171 599.338C367.685 598.182 367.481 596.926 367.577 595.677C367.276 594.423 366.866 593.198 366.351 592.016C365.737 590.808 366.351 589.582 365.124 588.355C364.955 586.484 364.085 584.744 362.69 583.486V582.681C362.69 580.228 360.255 579.02 359.661 577.161C359.029 575.954 358.415 575.359 357.745 574.133C356.663 573.646 355.797 572.78 355.31 571.699C355.31 570.472 354.084 569.782 353.489 569.245C352.014 567.476 350.384 565.839 348.621 564.358C347.988 563.744 347.988 563.15 347.375 561.31C350.423 563.227 353.489 562.518 355.904 562.518H358.358C360.811 564.434 364.472 563.744 367.52 563.744H370.567C371.629 563.589 372.712 563.806 373.634 564.358C375.472 565.441 377.692 565.663 379.711 564.971C380.825 564.294 382.076 563.875 383.372 563.744H390.081C391.997 563.744 393.741 564.358 394.968 563.15C396.116 562.634 397.376 562.418 398.629 562.518C400.546 562.518 402.903 563.15 404.724 561.31C405.056 561.643 405.485 561.858 405.951 561.923C406.564 562.518 406.564 563.744 405.338 563.744C404.111 563.744 404.13 565.661 402.903 566.178C401.943 566.834 401.117 567.666 400.469 568.632C399.84 569.793 399.01 570.83 398.016 571.699C396.063 573.443 394.416 575.503 393.147 577.794V578.388C393.147 580.305 390.694 580.822 390.694 583.276C390.694 584.483 388.873 586.323 388.26 587.55C388.26 589.984 386.343 591.805 386.343 594.258C386.956 595.466 386.343 596.175 385.749 597.306C385.135 597.306 385.749 597.919 385.749 599.127C388.183 596.693 391.231 595.466 393.071 593.032C393.839 592.085 394.92 591.439 396.118 591.211C396.732 591.211 396.732 590.597 397.326 590.597C399.444 588.621 401.69 586.791 404.053 585.116C406.432 582.932 409.094 581.083 411.97 579.615L413.197 578.388C415.587 576.216 418.255 574.374 421.132 572.906L422.359 571.699C424.18 569.245 427.227 568.018 430.275 566.178L435.776 562.518C437.873 560.89 440.119 559.466 442.484 558.262L447.986 554.602C450.047 554.067 451.935 553.011 453.468 551.535C456.516 550.327 458.969 547.874 461.423 546.666C465.678 544.845 469.339 542.392 472.923 540.552C477.197 538.731 480.859 537.524 484.52 535.684C485.728 535.07 487.568 535.07 488.775 534.457C489.983 533.843 491.842 533.863 493.049 532.636C495.503 533.23 496.71 532.023 498.55 531.409C499.881 530.727 501.333 530.317 502.825 530.202C504.646 530.202 505.872 528.975 507.08 528.975C510.147 528.975 512.601 527.058 515.629 527.748C516.262 527.748 516.856 527.748 516.856 527.135C519.164 526.148 521.677 525.734 524.178 525.927H524.772C526.689 524.701 528.433 525.314 530.273 525.314C531.5 524.701 532.707 524.701 533.934 524.087C534.647 523.601 535.51 523.384 536.368 523.474H542.693C544.338 523.572 545.989 523.371 547.563 522.88C548.176 522.247 548.79 522.247 550.016 522.247H589.655C590.268 522.247 590.268 522.88 590.862 522.88C589.795 524.245 588.566 525.473 587.201 526.541C586.005 527.599 584.978 528.833 584.154 530.202V530.796C580.493 532.713 578.672 535.684 575.623 538.118C574.397 539.344 572.557 541.779 570.736 542.392C569.509 543.005 568.819 544.213 567.688 544.845C566.442 546.666 565.235 548.506 562.782 548.506L562.187 549.101C559.607 551.477 556.742 553.524 553.658 555.196L553.064 555.828C551.16 557.44 549.106 558.864 546.93 560.083C543.268 562 540.221 564.358 536.56 565.584C535.347 567.141 533.622 568.22 531.691 568.632C526.804 571.066 521.916 572.906 517.642 575.359C516.316 576.034 514.87 576.444 513.387 576.567C509.725 577.794 506.064 579.02 501.885 580.228C499.432 581.455 496.365 582.049 493.931 583.276H492.11C490.903 583.276 490.194 583.276 489.657 583.889C489.12 584.502 488.449 584.483 487.242 584.483C485.325 585.116 483.581 584.483 482.335 585.71C481.722 586.323 481.127 585.71 480.514 586.323C478.885 586.729 477.255 587.138 475.625 587.55C473.805 587.55 471.965 586.936 470.738 588.144C470.033 588.648 469.166 588.874 468.304 588.776C466.456 588.679 464.606 588.88 462.822 589.371C462.208 589.984 460.368 589.984 459.161 589.984C457.306 589.884 455.448 590.091 453.66 590.597C452.755 591.153 451.682 591.37 450.632 591.211C448.515 590.958 446.373 591.387 444.517 592.437C443.903 593.032 442.063 592.437 440.855 592.437C438.939 593.032 437.194 592.437 435.354 593.645C434.741 594.258 432.92 593.645 431.693 593.645C429.966 593.388 428.207 593.829 426.806 594.872C426.212 595.466 424.985 594.872 423.758 595.466C421.937 595.466 420.097 594.872 418.89 596.098C415.823 596.098 413.389 597.919 410.954 597.919H409.727C406.679 600.353 402.405 600.353 398.744 602.788C396.31 604.704 393.262 605.854 390.809 608.902C389.601 609.515 388.988 610.819 387.761 611.95C386.747 613.023 385.923 614.261 385.327 615.611C385.327 617.431 384.1 619.271 384.1 621.092C383.92 622.603 382.567 623.691 381.053 623.546C378.005 624.171 374.861 624.171 371.813 623.546Z" fill="#87611A"/>
    <path fill-rule="evenodd" clip-rule="evenodd" d="M642.731 377.593C642.731 378.82 643.344 379.51 643.344 380.046V388.576C643.53 390.5 643.101 392.432 642.117 394.096C641.523 394.69 642.117 395.897 642.117 397.124C641.523 399.041 642.117 400.191 640.91 402.012C640.316 402.012 640.316 403.219 640.316 403.929C640.463 405.378 640.247 406.84 639.683 408.184C639.683 408.816 639.069 408.816 639.069 409.41C639.563 411.724 639.13 414.141 637.861 416.138C637.428 418.492 636.6 420.753 635.408 422.827C634.906 423.979 634.697 425.237 634.795 426.488C634.2 429.555 631.747 431.989 631.134 435.65C630.246 437.751 629.228 439.792 628.086 441.764C626.878 444.199 626.265 446.633 623.812 448.454C623.812 449.086 623.812 449.681 623.218 449.681C621.991 452.728 619.557 455.181 618.33 458.21C616.413 461.277 613.442 463.711 611.008 466.758C609.983 467.822 609.158 469.062 608.574 470.419C607.347 471.646 605.506 472.336 604.299 473.486C603.589 474.226 602.759 474.843 601.845 475.307C599.428 478.042 596.54 480.321 593.316 482.035C592.702 482.629 592.07 482.629 592.07 483.242C589.655 485.676 586.607 486.903 584.154 488.724C581.7 490.545 579.285 491.158 577.426 493.017C575.274 494.365 573.041 495.574 570.736 496.64C568.302 498.557 565.848 499.707 563.414 501.528C560.98 502.754 558.526 502.754 556.725 503.981C554.252 505.189 551.205 506.415 548.77 507.623C546.235 508.911 543.576 509.938 540.835 510.69C539.883 510.695 538.987 511.15 538.419 511.916C536.069 512.995 533.608 513.812 531.078 514.35C529.832 514.945 527.417 514.945 525.577 515.577C523.756 515.577 523.143 517.398 521.303 517.398C519.771 516.859 518.067 517.342 517.048 518.606C514 518.011 512.16 520.522 509.132 519.832C508.083 519.37 506.857 519.616 506.065 520.446C505.714 520.975 504.998 521.12 504.469 520.768C504.343 520.683 504.232 520.574 504.147 520.446V518.529C504.856 517.789 505.686 517.172 506.602 516.708C507.424 515.345 508.453 514.117 509.649 513.066C512.083 513.66 511.47 510.613 513.31 510.613L513.923 510C516.377 505.744 520.632 502.678 524.293 499.036C525.594 497.115 527.247 495.457 529.161 494.148C529.756 492.941 531.078 492.232 531.078 490.487L532.899 488.571L536.56 484.91C537.558 484.061 538.39 483.033 539.013 481.881C539.608 480.655 540.222 479.965 540.835 478.815C541.627 478.128 542.277 477.295 542.752 476.361C543.346 476.361 543.346 475.767 543.959 475.154C546.413 473.333 547.62 470.266 548.847 467.832C550.074 465.398 551.895 462.944 553.14 460.51C555.205 456.976 557.029 453.307 558.603 449.527C559.272 448.41 559.69 447.16 559.83 445.866V445.253C561.746 442.819 562.264 439.771 563.491 436.724C565.312 434.27 565.312 430.628 567.152 427.562C567.765 427.562 567.765 426.967 567.765 426.335C567.734 423.763 568.852 421.311 570.813 419.646C573.248 417.192 575.701 414.758 578.135 412.324C578.749 411.691 579.362 411.097 579.956 411.097C582.059 409.798 583.92 408.145 585.457 406.209C587.535 404.387 589.774 402.757 592.147 401.341C594.305 399.781 596.549 398.347 598.874 397.048C599.948 396.034 601.186 395.209 602.535 394.613C603.762 394.019 604.99 394.019 606.197 393.387C610.044 390.596 614.128 388.152 618.407 386.084C621.165 384.88 623.819 383.45 626.342 381.81H627.549C630.003 381.81 631.21 380.583 633.05 379.375L640.392 377.459C640.91 377.056 642.117 377.593 642.731 377.593Z" fill="#87611A"/>
    <path fill-rule="evenodd" clip-rule="evenodd" d="M109.503 376.443C112.57 377.056 115.024 378.36 117.439 378.877C120.851 379.929 124.131 381.369 127.214 383.171H129.131C130.877 383.723 132.526 384.545 134.019 385.605C134.632 386.218 135.226 386.831 135.935 386.831C139.333 387.702 142.475 389.371 145.097 391.7C149.967 393.521 153.033 396.588 157.308 398.408C157.902 399.022 159.224 399.022 159.742 399.616C160.969 400.843 162.176 402.683 164.016 402.683C165.933 405.73 169.498 406.938 171.932 409.391L183.433 420.891C184.656 421.704 185.379 423.084 185.35 424.552C187.267 428.807 187.804 433.101 190.219 436.762C191.465 439.196 191.465 441.649 192.672 443.47C193.266 447.112 195.72 450.179 196.927 453.226C198.861 457.646 201.031 461.957 203.425 466.145C204.512 468.253 205.734 470.289 207.086 472.24C208.293 473.467 209.002 475.288 210.133 476.495C211.264 477.703 212.569 478.949 212.569 480.156L214.485 482.073C216.166 483.292 217.441 484.988 218.146 486.941C218.146 487.536 219.354 488.168 220.063 488.762C221.997 491.287 224.253 493.548 226.771 495.49C228.14 496.619 229.19 498.087 229.819 499.745C229.819 500.339 231.046 500.972 231.736 502.199L248.182 518.644C248.795 519.276 249.409 519.871 250.099 519.871C249.466 521.787 248.182 521.097 247.645 521.097C245.989 520.114 244.06 519.685 242.143 519.871C241.53 519.871 240.917 519.276 239.709 519.276C239.73 518.949 239.483 518.667 239.155 518.646C239.142 518.644 239.128 518.644 239.115 518.644C237.198 518.05 236.048 518.644 234.208 517.436C233.001 516.823 231.161 517.436 229.934 516.21C229.945 515.891 229.696 515.627 229.378 515.616C229.367 515.616 229.353 515.616 229.34 515.616C226.886 516.21 224.471 514.983 222.612 514.389C220.258 513.95 217.991 513.128 215.904 511.955C214.696 511.322 213.987 511.322 213.489 510.728C210.929 509.641 208.263 508.825 205.533 508.294C204.306 507.661 203.616 507.067 203.099 507.067C195.777 503.406 188.455 500.339 181.747 496.678C178.55 494.875 175.488 492.845 172.584 490.602C170.667 489.376 168.329 488.686 166.508 486.941C164.687 485.197 161.601 484.507 159.78 482.073C159.78 482.073 159.78 481.44 159.186 481.44C156.119 480.214 154.279 477.78 151.864 475.345V474.732C148.203 473.524 146.344 471.09 143.909 468.637C142.559 467.487 141.518 466.017 140.88 464.363C140.88 463.749 140.248 463.749 139.635 463.136C138.427 461.315 135.974 460.107 135.36 457.654C135.323 457 134.806 456.475 134.153 456.427C133.125 455.362 132.294 454.122 131.699 452.766C131.105 450.332 129.265 449.125 128.038 447.265C126.237 443.01 123.783 439.349 122.576 435.075C121.33 432.028 120.122 428.961 118.915 426.527C117.669 423.498 117.669 420.431 116.461 417.384C115.784 416.272 115.371 415.019 115.254 413.723C115.212 412.218 114.79 410.746 114.027 409.449V407.532C114.213 405.995 113.771 404.446 112.801 403.239V402.644C112.801 398.983 110.883 395.917 110.883 392.256C111.649 390.249 111.429 387.999 110.289 386.18C109.656 386.18 109.656 385.566 109.656 384.934L109.503 376.443Z" fill="#87611A"/>
    <path fill-rule="evenodd" clip-rule="evenodd" d="M152.784 170.223C153.786 170.49 154.804 170.695 155.832 170.837C156.445 168.383 158.266 167.195 160.106 165.336C161.314 163.534 163.154 161.694 164.361 159.873C167.264 157.242 170.331 154.796 173.542 152.551C175.576 151.345 177.888 150.685 180.252 150.635H181.459C183.913 149.408 186.328 150.635 188.168 150.635C191.418 154.615 193.901 159.165 195.49 164.052C196.103 165.968 197.406 167.118 197.406 169.533C199.049 172.174 200.059 175.159 200.358 178.255C200.799 180.418 201.629 182.484 202.811 184.35C203.425 184.982 203.425 190.445 203.425 191.058C202.576 193.063 200.718 194.458 198.556 194.719C193.6 194.985 188.635 194.336 183.913 192.802C181.459 192.189 180.252 194.01 177.798 194.01C178.26 194.746 178.505 195.595 178.508 196.463L182.168 201.945C183.961 205.027 185.389 208.309 186.424 211.72V214.155C186.424 216.071 185.81 217.815 184.008 217.815C182.125 218.442 180.062 217.635 179.102 215.899C177.894 213.982 175.44 212.851 173.638 211.03C171.185 209.114 169.345 209.804 167.524 212.238C166.91 212.851 166.316 214.155 165.07 214.155C163.154 211.107 159.589 210.494 158.994 206.219C159.589 205.606 160.202 204.993 160.911 204.303C162.828 203.689 162.828 201.849 162.828 200.642C163.36 199.524 162.885 198.185 161.767 197.654C161.706 197.625 161.645 197.598 161.582 197.575C159.665 197.575 159.167 199.492 157.921 200.642C156.713 201.236 156.713 203.689 154.26 203.689C153.647 202.463 153.053 201.236 152.439 200.028C151.466 199.089 150.121 198.637 148.778 198.802C147.552 199.415 146.325 200.028 146.325 201.236C145.838 202.606 145.636 204.059 145.731 205.51C147.552 207.964 150.618 209.171 153.647 210.398C153.647 211.011 154.873 211.011 154.873 211.625C156.1 213.541 157.921 214.059 159.167 215.88C160.63 218.076 161.967 220.355 163.173 222.703C163.786 224.62 165.089 226.364 163.786 228.798C162.579 229.412 161.333 229.412 160.125 230.025C157.672 231.232 155.851 230.619 153.398 230.619C151.855 230.048 150.417 229.226 149.142 228.185C146.51 226.573 144.39 224.246 143.027 221.476C142.157 219.786 140.904 218.322 139.366 217.202C137.545 215.381 136.319 212.928 134.498 211.107C133.884 209.88 133.884 208.059 132.581 207.446C131.963 206.29 131.138 205.257 130.147 204.398C129.553 203.785 129.553 203.172 128.92 202.482C130.837 200.565 133.214 200.565 135.629 200.048C135.964 200.385 136.403 200.6 136.874 200.661C139.29 200.661 140.535 200.048 141.13 198.208C141.172 196.705 141.586 195.237 142.337 193.933C143.563 192.923 144.069 191.279 143.621 189.755C142.65 188.278 143.06 186.293 144.538 185.322C144.845 185.12 145.183 184.973 145.539 184.886C145.566 184.224 146.086 183.689 146.747 183.64C147.992 181.724 147.36 180.593 145.539 179.98H143.621C143.008 181.225 141.705 182.433 141.187 183.64C138.734 186.094 136.299 187.915 132.025 184.886C130.259 182.954 127.898 181.665 125.317 181.225C124.638 179.896 125.165 178.268 126.494 177.589C126.51 177.581 126.527 177.573 126.543 177.564C128.634 175.908 130.888 174.469 133.271 173.271C134.479 172.044 135.686 171.354 136.932 170.223C136.414 168.327 135.347 166.627 133.865 165.336C132.069 163.844 130.617 161.98 129.61 159.873C129.142 158.634 129.368 157.24 130.204 156.212C131.299 155.698 132.329 155.055 133.271 154.296C133.865 154.296 133.865 153.682 134.479 154.296C137.526 155.503 139.96 154.296 143.008 154.296C145 153.679 147.132 153.679 149.123 154.296C149.806 153.5 150.64 152.849 151.577 152.379C153.109 151.891 154.784 152.366 155.832 153.586C156.83 154.821 157.491 156.294 157.748 157.861L155.832 161.522C154.673 163.05 153.652 164.679 152.784 166.39V170.051V170.223ZM179.619 160.467C177.949 160.153 176.297 159.743 174.673 159.241C172.756 160.467 171.012 160.467 169.805 161.694C168.019 163.158 166.376 164.788 164.898 166.563C162.483 169.61 160.643 173.271 158.189 176.319C159.353 176.942 160.393 177.774 161.256 178.772C161.869 178.159 162.502 176.855 163.173 176.319C164.38 175.705 165.607 174.498 166.834 173.904C168.06 173.309 168.655 173.271 169.268 174.498C169.769 175.205 169.994 176.071 169.9 176.932C169.9 178.849 169.9 181.225 167.984 182.433V184.254C168.578 184.254 169.191 184.886 169.9 184.254C170.976 183.765 171.835 182.899 172.316 181.82C174.232 179.903 175.363 179.903 177.817 181.225C177.119 183.602 176.707 186.054 176.59 188.528C180.388 188.136 183.99 186.651 186.96 184.254C188.425 183.916 189.339 182.455 189.001 180.99C188.97 180.855 188.928 180.722 188.877 180.593C188.316 179.456 188.046 178.199 188.091 176.932C187.973 175.633 187.553 174.379 186.864 173.271C185.638 171.354 185.638 168.997 184.449 167.195V165.968C181.996 164.742 181.383 162.307 179.543 160.467H179.619ZM149.756 187.838C150.388 189.755 150.982 190.886 152.209 191.499C153.481 192.889 155.639 192.986 157.029 191.714C157.292 191.474 157.515 191.195 157.691 190.886C158.401 188.714 158.82 186.459 158.937 184.177C157.742 183.842 156.515 183.636 155.276 183.564C153.301 184.805 151.452 186.237 149.756 187.838ZM148.548 157.343C147.322 157.343 146.632 157.956 146.095 159.26C146.095 159.892 146.095 160.487 146.708 160.487H147.839C148.35 159.549 148.582 158.485 148.51 157.42L148.548 157.343Z" fill="#593D2C"/>
    <path fill-rule="evenodd" clip-rule="evenodd" d="M387.685 48.8187C388.902 47.2558 390.633 46.1758 392.572 45.7712C394.543 45.3226 396.406 44.4889 398.054 43.3178C398.667 42.1102 399.971 42.1102 401.102 42.7236C402.232 43.3369 404.168 43.9311 404.763 45.1578L408.423 47.0745C409.717 47.2008 410.969 47.6133 412.084 48.2821C413.257 48.8538 414.001 50.0441 414.001 51.3488C412.217 53.8102 409.579 55.5186 406.603 56.1406C404.914 56.2577 403.26 56.673 401.715 57.3673C400.762 57.383 399.869 57.8265 399.281 58.5748C396.233 61.0282 393.186 62.8299 390.119 65.2833C388.608 66.1989 387.349 67.477 386.458 69.0017C385.864 69.0017 385.864 69.6151 385.864 70.2093C387.685 70.2093 388.911 69.6151 390.119 69.6151C392.467 70.2233 394.589 71.494 396.233 73.276C397.59 74.9014 397.372 77.3187 395.746 78.6754C395.706 78.7101 395.662 78.744 395.62 78.777C394.393 79.9845 393.703 81.2112 391.959 81.8246C391.346 81.8246 391.346 82.4379 391.959 84.2588C393.462 84.2168 394.93 83.802 396.233 83.0513C398.148 82.561 400.183 83.0091 401.715 84.2588C400.782 87.5908 398.598 90.4339 395.62 92.194C394.213 92.5051 393.205 93.7433 393.186 95.1841C396.847 98.2316 396.847 98.2316 398.667 103.1C398.667 104.346 399.281 105.017 399.281 106.167C399.894 106.761 400.507 107.394 401.102 108.084C404.168 108.697 406.603 109.291 409.65 109.904C410.877 110.499 412.698 109.291 413.924 109.904C415.151 110.518 416.36 110.499 416.973 111.821C417.586 112.435 418.2 113.029 418.89 113.029C418.89 114.945 418.276 116.095 418.276 117.897C415.822 118.53 414.001 119.124 411.567 119.814C410.954 120.408 410.34 119.814 409.65 119.814H407.733C405.28 121.021 402.846 119.814 400.412 120.408C399.798 121.021 398.495 120.408 397.958 120.408C396.992 120.311 396.017 120.429 395.102 120.753C393.487 121.052 391.83 121.052 390.215 120.753C389.62 120.753 389.007 121.347 387.78 121.347C386.554 121.347 385.346 121.98 384.12 121.347C383.259 121.254 382.392 121.479 381.684 121.98H378.637C377.577 121.827 376.496 122.036 375.57 122.574C373.768 122.574 372.522 123.206 371.315 122.574H370.702C367.654 124.491 364.606 123.206 361.54 123.801C358.887 123.877 356.234 123.678 353.624 123.206C349.974 123.1 346.582 121.291 344.461 118.319C343.514 116.968 342.699 115.531 342.026 114.025V112.818C340.491 109.74 340.491 106.12 342.026 103.043C342.64 101.241 342.64 98.7875 343.943 97.58C343.33 93.3057 345.151 89.0314 344.557 84.7571C344.557 83.5304 343.33 82.3229 343.33 80.4829C344.557 78.5662 344.557 76.8219 346.397 75.6144C346.991 76.2086 347.604 76.8219 348.217 76.8219C349.693 78.9966 352.395 79.9845 354.927 79.2753C356.844 80.4829 356.134 82.3229 356.134 83.5304C358.051 85.9647 361.041 87.1914 360.428 90.8523C356.134 92.769 354.927 96.9474 353.719 100.608C353.719 101.835 353.106 102.525 352.512 103.675C351.693 105.167 351.469 106.912 351.879 108.563C351.879 109.77 351.266 111.61 351.879 112.818C352.389 114.242 353.507 115.365 354.927 115.885C358.36 116.379 361.829 116.577 365.296 116.479C366.157 116.563 367.023 116.354 367.75 115.885C369.666 115.885 371.411 114.658 373.232 115.271C374.458 115.885 375.666 115.271 376.892 114.658C378.119 114.658 379.94 113.431 381.78 114.658H382.393C386.055 113.431 389.716 112.224 393.895 110.997C393.481 110.254 393.276 109.413 393.301 108.563C391.683 106.881 390.249 105.03 389.026 103.043C388.292 101.93 387.227 101.079 385.979 100.608C383.525 99.3817 383.525 99.3817 381.09 101.241C379.173 102.448 378.043 103.675 376.202 104.902C373.155 107.336 369.494 109.77 366.446 112.224C365.833 112.224 365.22 112.818 364.53 112.818C364.53 112.818 363.322 112.818 363.322 112.224V110.997C366.351 107.949 366.983 103.675 369.398 100.608C370.012 99.6922 370.012 98.4962 369.398 97.58V95.1841C369.996 92.5124 371.516 90.137 373.692 88.4756V87.2489C373.059 86.6547 372.446 86.0222 372.446 86.6547C370.399 87.0892 368.265 86.8678 366.351 86.0222C364.626 85.5867 363.581 83.8358 364.018 82.1115C364.102 81.7717 364.244 81.4481 364.434 81.1537C365.201 80.2247 365.846 79.2004 366.351 78.1061C367.577 76.8794 368.785 75.6719 368.171 73.8127C367.715 72.775 367.961 71.563 368.785 70.7843C369.283 70.2762 369.998 70.0406 370.702 70.1518C372.522 70.7843 374.362 69.5576 376.183 68.9442C376.879 69.0529 377.586 68.8336 378.1 68.3501C379.308 65.2833 382.374 63.4624 384.81 61.0282C385.423 60.4149 385.423 59.8015 386.036 58.5748C384.185 56.9705 381.602 56.5073 379.308 57.3673C376.388 57.8865 373.531 58.7021 370.778 59.8015C370.079 59.6947 369.369 59.9217 368.861 60.4149C367.06 63.4624 363.993 62.8299 360.945 64.0566C360.25 64.1595 359.544 63.941 359.029 63.4624C357.672 62.622 356.441 61.5961 355.368 60.4149C355.368 59.8015 354.754 58.4981 355.368 57.9615C355.962 56.7539 356.594 54.9139 357.285 53.7064C359.19 52.5209 360.344 50.4309 360.332 48.1862C360.945 46.3845 361.54 44.5253 362.766 43.9311C366.427 43.9311 370.088 44.5253 373.136 44.5253C375.052 44.5253 376.183 45.1578 377.429 45.1578C379.231 47.0745 376.797 47.592 376.797 48.8187H377.429C379.231 49.4321 380.458 50.0454 382.298 48.8187C384.043 48.2081 385.94 48.2081 387.685 48.8187Z" fill="#593D2C"/>
    <path fill-rule="evenodd" clip-rule="evenodd" d="M258.341 81.7671C260.236 81.2727 261.936 80.2092 263.209 78.7195C265.663 75.6719 269.323 73.8127 271.777 71.3976C272.252 70.9286 272.915 70.7026 273.579 70.7843C275.545 70.0745 277.606 69.6611 279.693 69.5576L283.355 71.4743C284.961 72.531 285.904 74.3448 285.847 76.2661C285.847 77.4736 285.847 78.7195 284.62 79.3328C282.943 80.283 281.647 81.7874 280.958 83.5879C279.75 85.5047 278.524 87.2489 277.297 89.0889C276.287 89.8581 276.089 91.3012 276.86 92.3121C276.985 92.4771 277.132 92.6243 277.297 92.7498C277.297 93.3632 277.91 93.3632 278.524 93.3632C281.572 94.5707 282.818 97.6375 280.958 100.072C278.524 103.733 276.703 106.761 274.249 109.828C273.636 111.054 273.042 112.281 272.429 113.489C274.32 116.302 275.744 119.402 276.645 122.67C276.536 123.366 276.756 124.074 277.239 124.586C279.156 125.813 279.156 128.247 279.693 130.068C279.804 132.548 280.21 135.006 280.9 137.39C282.128 141.684 280.9 145.939 280.306 150.807C279.099 150.807 278.39 151.42 277.853 151.42C275.438 152.015 274.192 151.42 273.579 148.986C272.984 147.76 271.777 146.533 271.144 145.325C270.686 144.067 269.831 142.991 268.71 142.259C268.116 141.664 267.483 141.664 267.483 141.032C266.87 138.003 264.455 136.777 263.209 133.71C262.347 131.173 260.623 129.017 258.341 127.615C257.727 128.228 257.133 128.228 256.424 128.822C254.603 130.739 252.15 129.455 251.536 127.021C250.923 124.586 250.329 122.727 252.15 120.293C252.918 118.782 253.344 117.119 253.396 115.425C252.901 112.874 251.375 110.641 249.179 109.253C247.951 108.659 247.261 108.659 246.744 109.253C245.517 111.169 244.29 112.914 243.083 114.754C244.999 116.575 246.149 119.009 247.952 120.849C249.951 123.651 249.702 127.472 247.357 129.992C246.692 131.339 245.059 131.892 243.711 131.226C243.706 131.223 243.702 131.221 243.696 131.218C241.043 129.445 238.178 128.015 235.167 126.963C233.177 126.287 231.458 124.991 230.26 123.264C228.533 121.926 227.082 120.266 225.986 118.376C224.778 116.46 223.551 114.715 222.325 112.875C221.73 110.422 221.73 108.62 221.117 106.167C221.73 106.167 222.325 105.553 223.034 106.167C224.951 108.084 228.535 108.62 230.356 109.828C231.602 111.054 232.809 110.422 234.017 108.62C237.212 105.926 240.269 103.073 243.178 100.072C243.178 99.4392 243.792 99.4392 244.386 98.845C244.643 97.1263 244.208 95.3759 243.178 93.9765C242.584 93.3632 242.584 92.7498 241.952 92.0598V90.1431C239.518 88.2264 239.518 85.8497 238.923 84.0288C237.007 81.5946 235.262 79.7545 234.017 77.9336C234.67 75.9213 235.705 74.0534 237.064 72.4327C238.331 71.1337 240.225 70.6656 241.952 71.2251C245.613 72.4327 249.275 72.4327 253.568 73.6402C255.721 74.4584 257.317 76.3012 257.823 78.547C257.781 79.5972 257.992 80.6421 258.437 81.5946L258.341 81.7671ZM262.002 87.8622C261.844 90.6403 262.968 93.3373 265.049 95.1841C265.663 95.7783 266.87 95.7783 266.87 94.5707C266.92 94.1071 267.138 93.6777 267.483 93.3632C267.857 90.3269 268.89 87.4091 270.512 84.8146C271.125 83.5879 271.125 82.3804 271.758 81.1537C271.689 80.6858 271.466 80.2542 271.125 79.927H269.208C268.001 81.1537 266.142 81.8437 264.934 83.5879C264.319 85.2306 263.313 86.698 262.002 87.8622Z" fill="#593D2C"/>
    <path fill-rule="evenodd" clip-rule="evenodd" d="M148.509 281.872C148.018 283.662 147.818 285.52 147.915 287.373C147.559 287.689 147.333 288.126 147.282 288.6C144.848 289.826 144.848 292.855 141.8 292.855C138.139 295.922 134.479 297.742 131.412 301.403C130.204 303.838 127.157 305.064 125.317 306.291C123.4 305.064 123.4 305.064 124.09 303.838C124.78 302.611 124.703 301.921 125.317 301.403C125.317 298.969 125.949 297.129 125.949 294.695V291.647C125.949 291.034 125.317 289.826 125.317 289.194C125.896 287.661 125.396 285.928 124.09 284.939C123.446 283.795 122.624 282.76 121.656 281.872C120.938 281.399 120.077 281.188 119.221 281.278H117.304C115.481 279.896 113.422 278.857 111.228 278.211C108.774 277.617 106.34 277.004 105.113 275.164C104.4 274.679 103.538 274.462 102.679 274.55C100.821 274.868 98.9387 274.13 97.7914 272.634C97.7914 272.634 96.5839 272.634 96.5839 273.247C95.9514 273.247 95.9514 274.454 95.9514 274.454C97.8681 276.371 99.0182 278.729 100.839 279.955C102.318 281.18 103.956 282.198 105.708 282.984C106.934 284.23 107.624 285.437 108.774 286.664C109.173 288.314 108.955 290.051 108.161 291.552C107.738 292.694 106.469 293.275 105.328 292.851C105.255 292.824 105.183 292.794 105.113 292.759H102.756C101.529 292.759 101.529 293.392 101.529 294.676C102.756 295.289 103.983 295.289 104.577 295.902C106.079 297.145 107.735 298.187 109.503 299.008C111.128 299.782 111.817 301.725 111.043 303.351C110.955 303.535 110.85 303.711 110.729 303.876C109.556 305.526 108.728 307.399 108.295 309.377C106 310.188 103.447 309.72 101.587 308.15C99.6431 306.145 96.9603 305.03 94.1687 305.064C92.252 305.064 91.1019 304.451 89.3002 304.451C88.6677 299.583 87.3834 294.695 91.1019 290.421C89.5331 287.95 88.3018 285.282 87.4409 282.485C86.8467 281.278 86.8467 278.825 85.0066 277.617L84.4124 276.39C85.0066 273.956 83.7798 272.729 83.1857 270.295C83.0691 268.411 82.6616 266.554 81.9781 264.794C82.1146 262.741 81.9007 260.681 81.3456 258.699C81.3456 258.105 80.7513 257.472 80.1188 256.782C79.7907 256.782 79.5244 257.049 79.5242 257.376C79.5242 257.382 79.5244 257.39 79.5246 257.396C79.0412 258.111 78.8241 258.971 78.9113 259.83C79.4125 260.982 79.6232 262.239 79.5246 263.491C79.5246 264.717 80.1188 265.944 80.1188 267.152C79.5246 270.813 81.3456 274.474 82.0356 278.135C81.8018 281.441 82.212 284.761 83.2432 287.91C83.8373 291.571 83.8373 294.618 84.4699 297.666C84.4699 298.893 85.0641 299.583 85.0641 300.733C85.6967 302.553 83.8373 304.988 82.6298 304.374C81.4031 303.167 80.1763 304.374 78.3746 304.374C77.3178 304.33 76.2661 304.541 75.3078 304.988C72.9808 303.355 71.2616 300.995 70.4199 298.279C71.6467 298.279 72.3368 297.666 73.4868 297.052C74.081 292.184 74.7136 287.296 75.3078 282.409V281.795C74.081 278.748 75.3078 276.314 75.3078 273.266C75.3078 272.653 75.9211 272.039 75.3078 272.039C74.081 268.992 75.3078 266.558 75.3078 264.104C75.9211 262.187 76.5153 260.443 75.3078 259.236V258.757C75.9211 255.709 74.7136 252.642 73.4868 249.595C72.5528 247.676 72.5528 245.435 73.4868 243.519C75.9773 241.253 78.0417 238.558 79.5821 235.564C81.4031 233.13 82.6298 233.13 85.0641 233.648C86.5195 234.29 87.4694 235.718 87.4984 237.308C87.5785 238.163 87.3694 239.02 86.9042 239.743C86.2908 244.63 85.6967 249.499 84.9875 254.406C84.9875 256.207 84.9875 257.434 86.2142 258.066C88.5017 257.948 90.7638 257.53 92.942 256.821C94.1496 257.434 95.9705 258.066 97.1972 258.737C97.8106 259.351 98.4049 259.351 99.1141 259.945C99.7082 259.945 100.341 260.558 101.031 260.558C102.948 261.172 104.098 261.172 105.305 262.475C108.353 262.475 110.193 264.909 113.221 265.523C113.854 265.523 114.448 266.136 115.138 266.136C115.715 266.887 116.605 267.334 117.553 267.343C118.986 267.449 120.312 268.143 121.215 269.26C121.828 269.26 122.461 269.873 123.668 269.873H126.122C126.716 269.873 126.716 269.873 127.329 270.487C128.537 272.308 131.584 271.694 134.038 273.534C137.269 276.26 140.999 278.33 145.02 279.63C146.228 280.243 147.455 281.546 148.681 282.064L148.509 281.872ZM87.4792 270.372C87.3891 271.232 87.6138 272.097 88.1118 272.806V275.24C88.706 277.694 89.9327 280.128 90.546 282.562C91.7728 285.016 92.4629 286.223 93.5937 285.61C94.9804 284.402 95.463 282.457 94.8014 280.741C94.4731 280.741 94.2069 280.475 94.2067 280.147C94.2067 280.141 94.2069 280.134 94.2071 280.128C92.9995 277.694 91.7728 275.24 90.546 272.193C89.9327 270.889 89.3385 269.682 87.4792 270.257V270.372Z" fill="#593D2C"/>
    <path fill-rule="evenodd" clip-rule="evenodd" d="M74.0617 328.257C72.835 326.34 73.4675 325.209 74.0617 323.369C75.2885 322.756 77.7227 322.756 78.3553 320.341C79.5629 319.708 80.7896 319.095 82.0164 318.424C85.5883 320.801 88.35 324.21 89.9326 328.199C89.9326 328.812 90.5459 329.407 91.1401 330.116C91.9518 331.868 92.9822 333.51 94.207 335.003C96.2821 337.396 98.524 339.636 100.916 341.712H102.123C102.756 340.485 104.04 339.278 104.577 338.051C104.577 337.438 103.983 336.23 103.983 335.617C103.627 335.301 103.401 334.864 103.35 334.39C100.916 333.163 99.689 330.729 97.868 328.908C97.2002 327.779 96.3812 326.748 95.4338 325.842C93.8165 324.174 92.3777 322.344 91.1401 320.379C90.5459 320.379 91.1401 319.746 91.1401 319.133C91.7727 318.52 92.3669 319.133 92.3669 319.746C94.2836 320.379 95.4338 322.181 97.868 322.181C98.4623 322.181 98.4623 323.407 99.0948 323.407C100.691 325.955 103.417 327.574 106.417 327.758C107.667 327.664 108.922 327.868 110.078 328.352C111.729 328.446 113.384 328.245 114.965 327.758C116.767 327.126 118.626 327.758 119.834 326.512C121.089 326.946 122.172 327.772 122.92 328.87C125.988 330.691 127.195 333.738 126.582 338.013C125.966 340.504 123.534 342.099 121.003 341.674H118.626C117.275 342.619 115.838 343.433 114.333 344.108C112.497 344.758 110.828 345.804 109.445 347.175C107.536 348.783 105.223 349.837 102.756 350.222C102.123 348.305 101.529 346.561 100.839 344.702C100.839 344.108 100.245 343.514 99.6123 342.9C94.1303 339.239 88.6292 335.578 83.7414 331.918C82.2558 330.852 80.6132 330.024 78.8728 329.464C77.3494 328.791 75.7224 328.383 74.0617 328.257Z" fill="#593D2C"/>
    <path fill-rule="evenodd" clip-rule="evenodd" d="M59.4178 311.16C61.8521 309.952 64.3055 308.112 66.7398 306.904C68.4539 306.322 70.3154 307.24 70.8975 308.953C71.0674 309.454 71.114 309.986 71.0335 310.508C71.2982 312.227 70.848 313.979 69.7875 315.357C69.3471 316.317 69.137 317.368 69.1742 318.424C68.58 320.341 68.58 322.085 67.9666 323.944C67.4538 324.427 66.7462 324.647 66.0498 324.538C64.3291 323.986 62.4448 324.454 61.1813 325.746C59.9736 326.359 58.1144 326.359 56.9068 326.972C53.9166 324.596 53.9166 323.925 55.8334 321.548C57.6102 319.499 58.6791 316.931 58.8811 314.226C58.7642 313.174 58.9505 312.11 59.4178 311.16Z" fill="#593D2C"/>
    <path fill-rule="evenodd" clip-rule="evenodd" d="M376.087 232.459C398.993 232.12 417.837 250.415 418.177 273.32C418.514 296.224 400.22 315.068 377.314 315.405C354.409 315.744 335.565 297.451 335.226 274.546C335.224 274.349 335.222 274.154 335.222 273.956C335.042 251.218 353.328 232.639 376.066 232.459C376.072 232.459 376.08 232.459 376.087 232.459Z" fill="#593D2C"/>
    <path fill-rule="evenodd" clip-rule="evenodd" d="M545.108 87.8622H543.882L540.777 90.9098H540.163L535.947 95.8358H535.352L528.625 101.356H526.171L524.37 97.695V98.2891L524.964 92.8073C528.031 89.1464 527.417 85.4855 528.625 83.6454C528.031 81.7287 529.238 81.7287 526.708 79.3903L524.274 77.4736C523.547 77.2315 522.89 76.8171 522.357 76.2661L521.763 76.8794H520.554L518.254 82.4187C518.848 83.6263 517.047 90.3539 515.187 89.7214L513.999 90.9481C513.999 91.5615 511.546 92.8648 510.932 92.1748C509.725 90.9481 509.725 90.2581 508.498 89.1273L507.271 87.9006C506.064 86.693 501.809 88.5139 500.563 90.3539C499.95 90.3539 499.95 89.7214 499.355 90.3539L498.742 90.9481C498.148 92.1748 499.355 91.5615 498.742 93.4015L500.563 95.2224C501.176 95.8166 501.809 95.2224 502.48 95.2224L503.093 95.8166C503.093 95.8166 504.914 96.4491 506.141 97.0433C508.575 98.96 507.348 97.0433 509.207 98.27V99.4775H503.016V100.11L502.403 99.4775C501.809 98.8833 498.148 99.4775 497.515 99.4775C495.426 99.4953 493.439 100.385 492.034 101.931C492.034 101.337 491.42 101.337 490.826 101.931C489.971 103.183 489.737 104.759 490.194 106.205C488.277 108.659 491.42 112.914 493.241 115.367L492.034 115.98C492.034 116.575 491.42 116.575 491.42 117.188C489.504 115.98 490.194 117.188 488.373 117.188C487.164 117.188 487.164 115.98 485.918 117.188L485.305 116.575C484.711 115.98 484.097 115.98 484.097 116.575L482.871 115.98L481.05 116.575L479.842 115.367C478.596 117.188 478.596 115.367 477.389 116.575C475.472 117.782 476.181 117.782 474.935 119.009C474.073 119.874 473.419 120.922 473.019 122.076C473.019 122.67 473.019 124.51 473.632 125.104L476.085 127.021C477.293 128.228 477.887 127.021 478.501 127.615L479.746 128.822L477.83 131.276C479.056 133.193 476.622 134.343 477.83 136.144L477.236 136.777C476.622 138.003 477.236 137.371 476.622 138.693L477.236 139.307L476.622 139.901L477.236 140.534C478.681 140.592 480.124 140.378 481.491 139.901C483.478 139.098 485.219 137.782 486.532 136.087C490.194 135.493 496.289 126.331 500.563 124.586C501.669 123.616 502.901 122.797 504.224 122.152C505.47 120.926 504.224 120.926 504.837 119.086L504.224 118.491C503.016 117.859 500.563 120.926 499.355 122.152C498.148 120.926 499.95 118.491 500.563 118.491C499.95 117.265 500.563 116.575 500.563 115.444C500.563 113.527 500.563 114.83 499.95 113.527C499.95 112.319 500.563 112.914 500.563 111.61L505.47 109.253C507.271 106.799 509.131 108.045 509.725 106.799C510.338 106.205 509.131 106.205 509.131 104.998C509.725 103.771 510.338 103.771 509.131 102.544L510.338 101.337C510.637 100.734 510.838 100.087 510.932 99.42L512.159 98.8258L517.641 104.327C518.254 104.94 518.254 105.534 518.848 106.244L519.481 106.838C520.113 107.47 520.113 106.244 520.708 106.838L521.302 107.47C521.915 108.084 521.302 109.904 520.708 110.499L518.254 113.565V114.792L519.481 114.16L521.916 116.076L523.143 115.463C523.143 116.076 523.756 116.076 523.143 116.67L521.916 117.878C521.303 118.51 516.452 119.795 514.593 122.171C513.386 121.539 512.159 122.766 510.932 123.398C507.885 124.606 509.131 123.992 507.271 126.427C507.885 127.653 509.188 129.493 508.498 130.72C509.725 132.522 507.885 132.522 509.131 134.975L501.809 146.571L501.176 148.392L501.809 149.619L501.176 151.535C502.403 152.762 501.809 153.452 502.403 155.196V157.113C503.016 158.34 503.016 157.726 503.016 159.03C506.064 161.464 513.999 162.077 517.641 160.257C519.809 159.811 521.881 158.98 523.756 157.803C524.964 157.19 525.577 156.596 526.171 157.19L526.804 156.596C527.417 155.963 530.465 155.369 531.078 154.679C531.691 153.989 532.286 152.762 532.899 152.226C533.65 151.701 534.478 151.294 535.352 151.018L538.419 147.338C539.013 146.13 539.607 145.536 539.607 144.309L541.524 141.875C539.607 140.649 541.524 140.649 539.09 138.214C537.511 136.945 536.077 135.505 534.816 133.921L532.899 132.694C531.078 130.892 528.031 131.487 526.804 129.666L522.51 128.439V127.826L523.143 128.439L523.756 127.826C524.964 128.439 526.171 127.826 528.031 127.232L526.804 124.778L527.417 124.165C528.625 124.778 528.625 123.571 530.465 123.571C531.766 123.577 532.955 122.83 533.512 121.654L534.126 120.446C533.512 119.22 535.352 119.852 531.691 116.191C531.078 114.965 528.031 112.53 529.238 111.304L530.465 109.387C531.078 108.793 531.691 108.793 532.899 108.793C533.499 109.538 534.396 109.98 535.352 110L540.777 114.715H542.022L542.617 115.329L548.099 119.603L548.712 120.811L551.759 122.037C553.005 120.811 553.677 120.121 554.195 120.121C555.421 118.894 554.194 117.073 554.808 115.865L552.373 113.949C552.373 112.147 550.456 110.92 548.099 109.08H548.712L544.438 104.825L545.683 102.908C545.051 102.314 544.438 102.314 545.051 101.701L548.099 98.04C548.614 97.5614 549.319 97.3429 550.015 97.4458L553.082 93.7849C554.27 93.1715 554.27 92.5582 554.884 91.3315C555.601 90.1249 555.341 88.5777 554.271 87.6705L553.082 87.0572C551.34 84.982 548.244 84.7125 546.168 86.4553C545.758 86.8007 545.406 87.2111 545.128 87.6705L545.108 87.8622ZM525.577 134.841C527.494 136.048 528.625 136.048 529.238 136.758C529.851 137.467 529.238 137.352 529.832 137.984C529.238 139.192 525.577 145.306 523.756 144.674L523.143 145.306C521.916 146.514 519.481 147.108 517.047 149.561V148.967L514.593 150.175L512.792 150.788L511.546 150.175L510.932 147.108H511.546C510.932 146.514 511.546 144.674 511.546 143.447L510.932 142.853L512.159 141.645H514.076C515.264 140.419 515.993 142.853 517.718 142.239L518.331 142.853C518.925 143.447 519.558 142.853 519.558 142.239H520.19L520.784 140.323L519.558 138.406C520.785 137.812 520.785 137.179 519.558 135.953C521.38 133.518 518.331 133.518 519.558 132.292C520.19 131.697 523.833 134.745 524.446 135.358L525.577 134.841Z" fill="#593D2C"/>
    <path fill-rule="evenodd" clip-rule="evenodd" d="M707.402 309.339L705.619 306.291H704.392L703.779 304.374C703.779 303.167 703.779 302.458 704.392 301.94C703.779 298.893 705.619 296.439 705.619 295.845L704.987 293.928L702.591 292.702V292.107L699.524 292.702V293.928C698.93 294.542 698.297 296.362 697.607 296.362L695.211 296.976L692.145 297.589C692.145 299.506 690.228 300.023 690.918 302.477L692.145 307.345L690.228 306.751C689.109 305.214 687.644 303.96 685.954 303.09L684.152 300.656L682.887 298.739H682.293L675.564 293.257L674.97 291.341L674.357 290.114H673.168V288.887C673.168 288.293 671.903 288.293 671.251 286.453C671.215 284.948 670.799 283.478 670.044 282.179C668.817 279.745 667.59 278.518 664.524 279.745H663.93C660.882 280.358 660.882 281.565 658.467 282.179L656.014 283.405C655.4 284.632 653.56 285.84 653.56 287.066V288.293H652.947L653.56 290.21L654.173 289.616L654.806 291.437C655.45 291.49 655.96 292 656.014 292.644C657.834 294.561 657.221 293.277 658.467 293.871C659.061 294.484 658.467 294.484 660.269 295.097C661.495 295.097 661.495 294.484 662.185 296.305C664.581 295.711 664.581 297.532 666.44 298.222L667.035 299.448H667.648L668.242 300.675C668.242 301.269 671.903 303.703 673.168 304.317L680.49 312.885H681.084V314.092C681.084 314.686 681.678 314.686 682.293 314.686C682.887 317.14 684.209 317.753 684.209 319.574L685.417 323.867H683.5L681.582 323.235L679.762 321.318C679.762 320.111 679.762 319.401 678.535 319.401L677.922 318.175C676.944 318.127 676.158 317.351 676.101 316.373C674.874 316.373 670.6 312.08 670.006 310.853C668.779 310.853 668.089 309.645 667.552 307.805L666.345 307.192L663.891 299.87L662.09 298.663C658.429 299.276 651.107 299.276 652.314 303.531L654.135 308.419H654.768C655.362 310.335 656.569 312.08 657.183 313.92V314.514C657.183 315.108 657.183 315.74 656.569 315.74H655.975C654.768 316.373 654.768 313.92 652.314 314.514L650.398 315.108C649.783 313.92 647.368 313.306 646.736 311.447C644.915 309.032 645.509 308.419 643.707 306.598L641.254 300.503C641.304 298.245 641.099 295.987 640.641 293.775C640.641 291.858 637.593 291.341 637.593 289.52C636.385 289.52 634.526 291.954 633.932 292.548C632.705 293.775 630.865 294.465 630.865 296.209L630.271 296.822V298.739L629.658 299.353C630.271 302.4 628.431 304.221 629.044 306.061C629.044 309.109 630.271 310.93 629.044 313.383L629.658 315.817L629.044 316.45V319.478C629.658 321.395 630.865 328.027 632.092 328.64L632.705 329.847C632.705 330.461 636.98 332.301 636.98 332.301C637.593 332.301 639.414 331.074 641.848 330.384L642.461 329.157C644.915 328.563 644.915 327.356 646.122 329.771C646.736 332.224 646.122 333.432 648.039 334.045C648.511 336.316 649.118 338.557 649.86 340.754C650.154 341.815 650.572 342.839 651.107 343.801C651.701 346.255 652.314 345.718 652.908 346.255H655.362C655.362 344.338 655.975 345.028 655.975 343.801L655.362 342.594H656.569L655.975 338.319V337.706C655.611 336.259 655.824 334.726 656.569 333.432L655.362 328.563C655.975 328.563 655.975 328.563 657.183 327.95C659.099 327.95 660.23 330.384 662.684 329.867L665.75 328.659C666.939 326.206 668.779 327.452 667.552 321.931L668.146 320.13L668.779 319.497L669.411 320.13H670.006L671.213 321.337L672.44 323.254L673.072 324.481C674.261 325.094 674.261 325.094 674.874 326.915H676.101V328.142C676.101 329.349 677.327 331.189 678.535 330.576L679.129 331.803C679.129 333.01 679.129 332.416 679.762 332.416V333.01L681.582 334.237V336.154C682.79 336.154 683.5 337.974 684.056 339.201C685.264 341.635 686.452 340.409 687.084 342.249L690.745 341.635H690.285L692.202 339.201V334.313L692.815 333.7L692.202 330.039C693.41 326.992 690.975 320.896 690.285 317.236C688.526 315.453 687.081 313.387 686.011 311.121V309.914L689.078 311.715V311.121C689.162 312.44 690.213 313.49 691.531 313.575C691.531 315.376 693.946 318.443 694.56 320.302C695.192 320.896 696.476 320.896 696.994 322.717C697.682 323.865 698.52 324.916 699.486 325.842V326.455H700.099L701.287 329.502C702.552 330.116 702.552 331.419 703.204 333.163C703.204 333.163 704.412 334.39 704.412 335.08H706.865C709.299 334.467 709.299 333.163 709.913 330.806C709.913 328.985 710.526 328.985 710.526 327.777C709.913 327.145 709.299 325.324 708.609 324.711L709.242 323.484L708.609 320.456L709.242 318.539C710.468 317.945 709.855 316.737 711.063 314.878C710.468 313.076 709.242 309.396 707.402 309.396V309.339ZM691.57 275.777L695.231 275.164C695.825 275.777 697.032 277.08 697.032 277.617L697.626 279.438C697.626 280.051 697.032 280.051 697.032 281.355L693.371 284.402V286.223C693.371 286.836 693.985 286.223 693.985 287.45V288.063C694.598 288.063 695.231 288.063 695.231 288.676V289.903H690.285C689.672 289.903 689.078 289.271 688.465 289.271L687.238 289.903C684.804 290.497 686.011 291.724 682.349 292.932C681.736 292.932 680.548 292.337 680.548 291.724L678.075 279.515C679.283 278.901 678.688 278.288 680.548 277.694L682.944 277.08C684.209 277.08 683.577 278.288 684.861 277.694L690.956 276.467L691.589 275.854L691.57 275.777ZM637.248 311.16C638.36 313.281 639.178 315.545 639.682 317.887C638.455 318.481 639.682 318.481 638.455 319.095H637.248C636.654 317.274 636.021 319.095 635.331 316.047L634.124 310.565C633.51 309.339 634.718 308.649 635.945 308.649V309.262L637.171 308.649V311.083L637.248 311.16ZM693.371 308.112C693.985 308.112 695.288 308.725 696.438 308.112H700.099C702.144 308.557 703.628 310.333 703.702 312.425L704.316 313.651C703.108 314.859 704.91 315.453 701.249 317.312C700.061 316.718 700.061 315.395 698.853 314.859C697.588 313.651 698.221 314.859 696.936 313.057C695.729 312.425 692.681 310.604 692.681 309.377V308.15L693.371 308.112Z" fill="#593D2C"/>
    <path fill-rule="evenodd" clip-rule="evenodd" d="M632.974 156.806L625.652 164.128L625.115 164.837L617.18 172.754H616.567C614.132 175.207 611.084 178.868 608.65 179.462L605.583 181.915C603.762 184.35 603.129 184.35 600.714 182.529L599.468 181.915H597.667L597.053 181.321C595.137 179.405 594.006 179.405 592.147 181.321L590.345 185.576L590.939 187.493C592.49 188.3 594.123 188.943 595.807 189.41C596.292 189.884 596.526 190.558 596.44 191.231L595.807 191.844C595.213 192.457 591.552 194.892 590.345 194.278L589.732 195.505C588.698 196.325 587.315 196.557 586.071 196.118L585.457 196.732C584.231 196.732 581.164 194.815 579.956 194.815C578.748 195.428 576.294 195.428 575.087 196.732C575.204 198.61 575.61 200.46 576.294 202.213L578.212 203.44L577.579 207.101C579.496 208.328 580.033 215.65 580.646 216.244H581.03V216.589L582.946 219.042L584.154 219.636C584.748 220.269 589.041 219.042 589.655 219.042C591.476 216.589 593.316 216.589 593.929 215.381L595.731 213.465L598.28 209.88L598.893 210.494C600.12 211.107 598.893 212.41 598.893 213.541C598.893 214.155 599.488 215.975 599.488 216.589C599.488 217.815 598.893 218.506 598.28 219.636C597.686 222.09 599.488 220.863 597.686 223.297C598.893 223.93 598.893 226.364 598.893 226.958V231.232L600.81 233.149C602.631 234.357 606.292 236.81 607.519 237.423C609.771 237.326 612.027 237.525 614.228 238.018L615.455 239.244H617.276C619.729 236.197 617.276 234.357 616.068 232.536C615.455 230.102 616.662 228.262 614.151 226.441L613.538 224.524L609.78 221.476C609.167 219.56 607.959 219.042 607.346 217.202C607.049 216.631 606.842 216.016 606.733 215.381C606.119 214.155 606.119 214.768 605.506 213.465C604.893 212.161 606.119 213.465 604.912 211.548C604.299 210.934 604.299 210.321 603.685 209.631C601.769 207.714 603.053 207.197 601.769 205.357L606.656 198.648C607.27 198.648 612.158 194.987 612.752 194.987C613.979 194.374 617.027 195.601 618.867 196.904C621.573 197.251 624.235 197.893 626.802 198.821C628.009 199.434 634.124 203.095 634.718 202.482C635.205 201.769 635.421 200.906 635.331 200.048C633.51 198.821 632.897 196.387 631.67 195.16C631.019 194.384 630.411 193.571 629.849 192.726C629.236 191.499 629.236 190.272 628.623 189.678L626.802 187.761C626.188 187.761 626.188 187.761 625.575 188.375L624.962 188.988C623.735 190.809 624.348 191.422 623.735 192.036L623.141 192.649C621.259 191.948 619.421 191.127 617.64 190.196L616.49 189.755L623.198 181.82C623.793 180.593 622.585 180.593 623.793 179.903L625.019 177.986L627.454 174.939L629.907 171.278L636.002 165.163L637.229 165.796C638.436 163.879 640.295 163.879 640.295 161.522C640.295 160.295 640.295 157.861 639.05 157.247V156.634C638.005 156.181 636.79 156.426 636.002 157.247C635.408 157.42 633.587 156.806 632.974 156.806Z" fill="#593D2C"/>
    <path fill-rule="evenodd" clip-rule="evenodd" d="M76.4962 432.583V436.244L46.0003 439.292V436.244L60.0503 434.404L58.191 417.326L43.5469 419.147V415.486L74.0619 411.825V415.486L61.2578 416.713L63.0788 434.404L76.4962 432.583Z" fill="#593D2C"/>
    <path fill-rule="evenodd" clip-rule="evenodd" d="M51.4823 452.096L55.1433 471.627H52.7282L48.4346 449.067L78.3554 443.566L82.6106 464.918L79.563 465.513L75.9019 447.208L66.1264 449.661L69.1741 466.739L66.1264 467.353L63.0787 450.275L51.4823 452.096Z" fill="#593D2C"/>
    <path fill-rule="evenodd" clip-rule="evenodd" d="M63.7112 502.735L92.9995 493.592L92.3669 489.932L71.0333 497.253C69.1165 497.848 67.9664 498.461 66.1264 499.17V498.538C66.7397 498.538 67.3723 497.924 68.0431 496.621L86.9617 474.061L85.7541 470.4L56.3892 479.562L57.5967 483.223L78.9495 475.901C80.6124 475.368 82.2387 474.728 83.8182 473.984C82.6106 474.598 82.0164 475.901 81.3839 476.419L62.4653 499.017L63.7112 502.735Z" fill="#593D2C"/>
    <path fill-rule="evenodd" clip-rule="evenodd" d="M80.7516 513.124L85.0068 523.474L95.4342 513.68L96.6609 512.453H94.744L80.7325 513.085L80.7516 513.124ZM75.9022 533.23L83.2243 525.927L77.7231 513.124L67.3342 513.68L66.0884 510.019L99.0569 509.425L100.283 512.453L77.7231 536.91L75.9022 533.23Z" fill="#593D2C"/>
    <path fill-rule="evenodd" clip-rule="evenodd" d="M93.5939 563.15L119.835 546.666L117.918 544.213L99.095 555.847C97.8683 556.442 96.6607 557.668 95.434 558.282H94.8015C95.5821 557.592 96.2315 556.767 96.7182 555.847L109.503 529.569L107.069 525.927L80.7515 542.43L82.5724 544.884L102.085 533.268C103.618 532.412 105.057 531.396 106.379 530.24C105.152 531.448 104.462 532.061 104.462 533.268L91.6579 559.527L93.5939 563.15Z" fill="#593D2C"/>
    <path fill-rule="evenodd" clip-rule="evenodd" d="M143.008 577.794L128.978 588.776C122.882 593.032 118.627 593.032 114.966 588.144C111.304 583.889 112.512 579.02 118.627 574.727L132.639 564.358L130.204 561.31L116.174 572.293C108.851 577.161 107.644 583.276 112.512 589.984C117.995 596.693 123.496 596.693 130.818 591.805L144.848 580.765L143.008 577.794Z" fill="#593D2C"/>
    <path fill-rule="evenodd" clip-rule="evenodd" d="M144.848 624.849L166.815 603.42L164.361 600.967L147.839 616.837C146.991 618.194 145.959 619.427 144.771 620.498V619.885C145.386 619.271 145.386 618.658 145.98 617.431L152.094 588.776L149.756 585.71L127.751 607.599L130.204 610.033L146.057 594.182C147.973 592.265 148.51 591.134 149.717 589.907V590.521C148.968 591.362 148.54 592.441 148.51 593.568L141.8 622.319L144.848 624.849Z" fill="#593D2C"/>
    <path fill-rule="evenodd" clip-rule="evenodd" d="M151.577 631.481L154.011 633.915L174.731 610.742L172.296 608.902L151.577 631.481Z" fill="#593D2C"/>
    <path fill-rule="evenodd" clip-rule="evenodd" d="M200.971 632.075L197.924 629.641L175.344 643.058V643.69C174.183 644.012 173.13 644.641 172.296 645.511C172.91 644.285 173.542 643.058 174.213 641.85L181.535 616.837L179.082 614.403L169.249 646.125L172.296 648.578L200.971 632.075Z" fill="#593D2C"/>
    <path fill-rule="evenodd" clip-rule="evenodd" d="M192.442 658.928L209.539 668.684L208.293 671.138L188.187 659.542L202.811 632.708L222.325 643.69L220.522 646.125L204.632 636.963L199.17 646.125L215.002 654.673L213.2 657.702L197.943 649.172L192.442 658.928Z" fill="#593D2C"/>
    <path fill-rule="evenodd" clip-rule="evenodd" d="M230.26 652.239L225.986 661.995L235.167 666.25C239.422 668.167 242.488 667.477 244.29 663.816C245.517 661.362 243.696 658.334 239.422 656.494L230.26 652.239ZM240.629 686.989L235.761 685.072L232.1 668.013L224.778 664.947L218.76 677.827L215.711 676.006L228.535 647.945L241.338 654.041C247.453 657.107 249.274 660.768 247.453 665.656C245.632 670.544 241.338 671.751 235.262 669.911L240.629 686.989Z" fill="#593D2C"/>
    <path fill-rule="evenodd" clip-rule="evenodd" d="M269.323 677.827H272.984C273.579 672.345 271.068 668.09 265.049 665.656C258.341 663.739 254.066 665.023 251.632 669.911C249.83 673.572 252.246 677.827 259.567 682.121C264.474 685.149 266.889 688.216 265.068 690.65C263.842 694.311 260.813 694.924 255.906 693.698C250.425 691.877 248.585 688.216 249.83 683.328L245.537 682.715C244.924 689.442 247.971 693.698 255.293 696.132C262.021 698.585 266.276 696.764 268.71 691.877C270.531 687.602 268.116 683.328 260.794 679.073C255.887 676.006 254.066 673.572 255.274 671.138C256.501 668.09 259.548 667.477 263.822 668.684C268.116 670.524 269.323 672.978 269.323 677.827Z" fill="#593D2C"/>
    <path fill-rule="evenodd" clip-rule="evenodd" d="M274.805 702.859L278.466 703.454L286.422 674.185L282.76 672.978L274.805 702.859Z" fill="#593D2C"/>
    <path fill-rule="evenodd" clip-rule="evenodd" d="M313.257 680.3L312.643 683.328L302.273 681.507L296.772 708.341L293.743 707.747L299.206 680.3L288.837 678.46L289.45 675.412L313.257 680.3Z" fill="#593D2C"/>
    <path fill-rule="evenodd" clip-rule="evenodd" d="M343.139 686.989L327.9 702.859L325.984 715.663L322.323 715.069L324.239 702.859L315.077 682.715L318.738 683.328L325.447 697.358C325.939 697.866 326.168 698.576 326.06 699.275L326.693 699.869C327.011 699.881 327.275 699.632 327.287 699.313C327.287 699.302 327.287 699.289 327.287 699.275L328.494 698.048L338.883 686.548L343.139 686.989Z" fill="#593D2C"/>
    <path fill-rule="evenodd" clip-rule="evenodd" d="M371.219 690.65C364.511 691.263 360.85 695.538 359.719 703.454C360.313 711.408 363.974 715.663 370.682 716.871C378.004 716.257 381.665 711.983 382.278 704.048C381.665 696.113 378.004 691.244 371.296 690.631L371.219 690.65ZM370.606 719.401C361.444 718.806 356.575 713.919 356.575 704.067C357.189 693.698 362.057 688.216 371.813 687.602C380.975 688.81 385.231 693.698 385.864 704.067C385.25 713.842 380.362 719.401 370.529 719.401H370.606ZM413.924 690.017L396.847 690.631V701L412.18 700.387V703.434L397.537 704.048V718.768H394.489L393.186 687.602L413.924 686.989V690.017Z" fill="#593D2C"/>
    <path fill-rule="evenodd" clip-rule="evenodd" d="M454.216 699.198H457.877C457.608 705.489 453.07 710.779 446.894 712.002C438.325 713.229 432.843 709.549 430.39 699.793C428.569 689.442 432.307 683.328 440.779 680.894C446.261 679.667 451.149 682.121 454.81 686.989L451.149 688.81C449.357 685.172 445.357 683.179 441.373 683.941C435.278 685.781 432.838 690.663 434.051 698.585C435.968 706.52 440.165 710.085 446.261 708.955C451.149 707.747 453.583 704.68 454.216 699.198Z" fill="#593D2C"/>
    <path fill-rule="evenodd" clip-rule="evenodd" d="M481.05 673.572L484.097 672.345L491.42 702.246L488.373 703.454L484.712 689.442L468.227 693.717L471.888 707.747L468.227 708.341L460.905 678.46L463.953 677.827L467.594 690.65L484.097 686.395L481.05 673.572Z" fill="#593D2C"/>
    <path fill-rule="evenodd" clip-rule="evenodd" d="M502.403 697.358L505.47 696.132L493.854 668.09L490.826 669.298L502.403 697.358Z" fill="#593D2C"/>
    <path fill-rule="evenodd" clip-rule="evenodd" d="M535.352 683.941L523.143 655.191L520.114 656.417L528.625 677.156C529.299 678.653 530.12 680.079 531.078 681.411C530.465 681.411 529.832 680.817 528.625 679.59L504.837 663.183L500.525 665.1L512.753 693.18L515.858 691.934L507.31 671.195C506.102 669.374 505.508 667.534 504.876 666.921C505.79 667.375 506.616 667.992 507.31 668.742L531.73 685.206L535.352 683.941Z" fill="#593D2C"/>
    <path fill-rule="evenodd" clip-rule="evenodd" d="M547.544 673.572L563.414 662.589L565.235 665.023L545.723 677.827L528.644 652.239L546.93 640.029L548.77 642.464L533.512 652.833L539.013 661.362L553.658 651.606L555.479 654.041L540.834 663.816L547.544 673.572Z" fill="#593D2C"/>
    <path fill-rule="evenodd" clip-rule="evenodd" d="M573.17 632.708L575.087 629.641C570.813 625.98 565.925 625.98 560.443 630.254C555.556 635.142 554.329 639.397 557.396 643.671C559.83 647.332 564.717 647.332 571.426 643.671C577.502 640.604 580.569 640.01 582.41 643.039C584.25 646.067 583.616 649.153 579.955 652.22C575.7 655.862 571.426 655.862 567.765 652.22L565.312 655.248C570.813 659.522 575.7 659.522 581.795 654.654C586.684 649.766 587.891 644.898 585.457 640.604C582.409 636.349 577.502 636.944 569.586 640.604C564.717 643.039 561.651 643.671 560.443 641.237C557.99 638.784 559.197 635.717 562.858 632.688C565.875 630.277 570.161 630.287 573.17 632.708Z" fill="#593D2C"/>
    <path fill-rule="evenodd" clip-rule="evenodd" d="M598.184 636.369L612.234 622.319L614.055 624.753L597.59 640.624L576.218 619.271L591.476 603.42L593.929 605.241L580.492 618.658L587.815 625.98L600.638 613.771L602.459 615.611L590.268 628.414L598.184 636.369Z" fill="#593D2C"/>
    <path fill-rule="evenodd" clip-rule="evenodd" d="M645.778 591.805L648.232 589.371L623.812 569.839L621.378 573.5L632.974 594.872C633.597 596.026 634.421 597.057 635.408 597.919V598.533C634.204 597.484 632.717 596.817 631.134 596.616L607.959 589.294L605.506 592.955L629.313 612.486L631.134 610.033L614.669 596.098C612.748 595.013 610.909 593.791 609.167 592.437C610.463 592.554 611.716 592.968 612.829 593.645L637.861 601.58L639.069 600.353L626.265 577.161C626.265 576.567 625.038 575.359 623.812 574.133H624.425L625.652 575.359C627.568 577.161 628.699 577.794 628.699 578.388L645.778 591.805Z" fill="#593D2C"/>
    <path fill-rule="evenodd" clip-rule="evenodd" d="M653.1 576.567L664.083 560.697L666.536 561.923L653.714 581.455L628.086 563.744L640.315 545.44L642.73 547.28L632.36 562.518L640.909 568.632L650.666 553.988L653.714 555.828L643.976 570.472L653.1 576.567Z" fill="#593D2C"/>
    <path fill-rule="evenodd" clip-rule="evenodd" d="M651.297 532.023L647.636 538.731L670.197 550.327L673.264 544.213C676.925 537.524 675.066 532.023 667.744 528.362C660.422 524.701 654.959 525.927 651.297 532.023ZM675.66 545.44L670.791 554.602L643.343 539.958L648.231 530.796C653.1 522.247 659.828 520.426 668.971 524.701C678.113 529.569 680.586 536.297 675.66 545.44Z" fill="#593D2C"/>
    <path fill-rule="evenodd" clip-rule="evenodd" d="M686.643 524.087L687.908 521.04L659.828 508.85L658.62 511.897L686.643 524.087Z" fill="#593D2C"/>
    <path fill-rule="evenodd" clip-rule="evenodd" d="M689.71 488.762L692.164 485.101C697.626 489.989 698.891 495.49 696.438 501.566C692.777 509.52 686.049 511.955 676.925 508.294C667.744 504.019 664.083 497.311 667.131 488.762C669.687 483.742 674.918 480.657 680.548 480.846L679.915 485.101C675.027 485.101 671.961 487.018 670.159 490.602C668.242 496.678 670.753 501.566 678.075 505.227C685.417 507.661 690.899 506.454 693.946 500.972C696.045 496.425 694.174 491.032 689.71 488.762Z" fill="#593D2C"/>
    <path fill-rule="evenodd" clip-rule="evenodd" d="M703.147 482.015L704.354 478.949L675.066 469.173L673.858 472.24L703.147 482.015Z" fill="#593D2C"/>
    <path fill-rule="evenodd" clip-rule="evenodd" d="M712.903 446L682.982 438.679L682.388 442.339L704.354 447.208C706.271 447.84 707.402 447.84 709.242 448.435C708.184 448.391 707.13 448.607 706.175 449.067L678.784 458.823L677.577 462.484L707.459 469.806L708.667 466.145L686.106 461.257C684.529 460.786 682.884 460.579 681.238 460.644V460.012C682.491 460.109 683.75 459.893 684.898 459.379L712.328 449.623L712.903 446Z" fill="#593D2C"/>
    <path fill-rule="evenodd" clip-rule="evenodd" d="M714.724 431.357L715.931 411.825H718.385L717.159 435.018L686.644 433.197L687.909 410.599L690.937 411.231L689.71 429.536L700.099 430.13L701.307 413.052H704.354L703.147 430.763L714.724 431.357Z" fill="#593D2C"/>
    <path fill-rule="evenodd" clip-rule="evenodd" d="M343.139 664.429L346.206 665.023L350.461 637.576H348.659C346.288 640.348 343.078 642.272 339.516 643.058L338.921 646.125C341.691 645.477 344.356 644.446 346.838 643.058L343.139 664.429Z" fill="#D9B766"/>
    <path fill-rule="evenodd" clip-rule="evenodd" d="M375.474 652.239C376.087 646.719 374.267 643.69 369.992 643.058C366.331 643.058 364.511 644.975 363.303 649.172C363.303 653.447 364.511 655.881 368.152 656.494C371.326 657.188 374.506 655.34 375.474 652.239ZM359.642 661.362L362.67 660.768C362.306 663.421 364.162 665.869 366.814 666.233C366.864 666.239 366.914 666.244 366.964 666.25C371.219 666.25 373.672 663.203 374.88 655.881C373.31 658.321 370.395 659.534 367.558 658.928C362.67 657.702 360.236 654.673 360.85 649.172C362.057 643.058 365.105 640.624 370.606 640.624C376.701 641.85 379.135 646.125 377.928 655.267C376.72 664.41 373.04 669.317 366.427 668.09C362.874 667.703 360.058 664.912 359.642 661.362Z" fill="#D9B766"/>
    <path fill-rule="evenodd" clip-rule="evenodd" d="M389.525 652.833V644.285H401.025V641.256L387.608 641.85L386.381 655.881L388.298 656.494C389.471 654.595 391.547 653.441 393.78 653.447C398.054 653.447 399.894 655.267 400.507 659.542C399.894 663.816 398.054 666.25 394.393 666.25C390.732 666.25 388.911 664.333 388.298 660.768L385.25 661.995C386.458 666.864 389.525 668.684 394.393 668.684C400.507 668.684 402.942 665.023 402.942 658.928C402.328 653.447 399.894 650.38 394.393 650.38C392.453 650.292 390.608 651.221 389.525 652.833Z" fill="#D9B766"/>
    <path fill-rule="evenodd" clip-rule="evenodd" d="M419.407 652.239C416.237 653.044 414.32 656.266 415.125 659.438C415.133 659.473 415.143 659.507 415.152 659.542C416.36 662.589 418.813 663.203 422.474 662.589C426.135 661.362 427.342 659.542 427.342 656.494C426.616 653.284 423.425 651.269 420.212 651.996C419.938 652.057 419.67 652.139 419.407 652.239ZM416.36 640.624C413.925 641.256 412.699 643.058 413.312 646.125C413.925 649.191 415.746 650.38 419.407 649.786C421.861 649.172 423.068 646.719 422.474 643.69C421.533 641.243 418.884 639.914 416.36 640.624ZM415.746 652.239C413.097 651.873 410.932 649.941 410.264 647.351C409.037 642.464 410.877 639.397 415.746 638.189C420.615 636.982 423.682 638.803 425.522 643.058C426.371 645.598 425.353 648.388 423.068 649.786C426.344 650.096 429.169 652.212 430.39 655.267C431.003 660.155 428.569 663.203 423.068 665.023C417.586 666.25 413.925 664.429 412.699 660.155C411.378 657.127 412.735 653.6 415.746 652.239Z" fill="#D9B766"/>
    </svg>
    