<svg xmlns="http://www.w3.org/2000/svg" viewBox="0 0 299.82 299.82"><defs><style>.cls-1{fill:#0054a6;}.cls-1,.cls-2,.cls-3,.cls-4{fill-rule:evenodd;}.cls-2{fill:#0056a7;}.cls-3{fill:#0053a5;}.cls-4{fill:#0058a8;}</style></defs><g id="Layer_2" data-name="Layer 2"><g id="圖層_1" data-name="圖層 1"><path class="cls-1" d="M299.82,149.91A149.91,149.91,0,1,1,149.91,0,149.91,149.91,0,0,1,299.82,149.91Zm-6,0A143.92,143.92,0,1,0,149.9,293.83,143.93,143.93,0,0,0,293.82,149.91Z"/><path class="cls-2" d="M261,149.91a111.1,111.1,0,1,1-111.1-111.1A111.1,111.1,0,0,1,261,149.91ZM116,189.59a29.28,29.28,0,0,1-3.94-1.6q-3.33-1.63-4.3-2A42.76,42.76,0,0,0,99,183.86c-.64-.09-.76.13-.37.65q8.42,11.09,20.93,7.54a3.08,3.08,0,0,1,3.12.77,17,17,0,0,0,2.25,1.91,21.09,21.09,0,0,0,7.76,1.93c.36,0,.39-.07.1-.28a72,72,0,0,1-21.66-23.62,93.37,93.37,0,0,1-9.32-22.71,191.41,191.41,0,0,1-5.67-39.69.65.65,0,0,1,.46-.64,39.73,39.73,0,0,0,11.4-5.23,30.17,30.17,0,0,0,10.72-14.36.48.48,0,0,1,.65-.26,5.47,5.47,0,0,1,2.76,2.46,1.18,1.18,0,0,1,0,.94,31.24,31.24,0,0,1-20.53,19.44.67.67,0,0,0-.46.65,169.68,169.68,0,0,0,4.36,32q8.59,37.9,43.83,54a1.14,1.14,0,0,0,.94,0q29.73-13.09,41-43.42,6.93-18.69,7.24-42.63a.66.66,0,0,0-.46-.65,32.49,32.49,0,0,1-20.3-18.66c-.71-1.63.22-3,2.77-4.1a.5.5,0,0,1,.67.27q6,15.15,21.55,19.12a1.17,1.17,0,0,1,.88,1.18,196.32,196.32,0,0,1-3.88,32.36,111.07,111.07,0,0,1-7.87,24,73.52,73.52,0,0,1-24.64,29.49q-2.07,1.47.34.68a37.07,37.07,0,0,1,4.2-1,10.09,10.09,0,0,0,5.74-3.32,1.22,1.22,0,0,1,.83-.42,23,23,0,0,1,5,.25,17.18,17.18,0,0,0,4.94.29,17.58,17.58,0,0,0,12.78-8.39c.34-.54.2-.75-.43-.63a63.38,63.38,0,0,0-17,5.86c-.15.07-.3.07-.36,0s0-.19.21-.3a14.12,14.12,0,0,0,7.27-10,13.21,13.21,0,0,1,1.27-3.06.62.62,0,0,0-.18-.71c-.41-.38-.42-.94,0-1.67a105.17,105.17,0,0,0,8.82-23.09A199.7,199.7,0,0,0,207,107.61a.63.63,0,0,0-.47-.63,45.64,45.64,0,0,1-11.89-5A25.55,25.55,0,0,1,183,85.23a.87.87,0,0,0-.59-.64L150.54,74.7a1.62,1.62,0,0,0-.95,0l-32,10a.93.93,0,0,0-.61.64q-5.13,17.28-23.18,21.26a1.17,1.17,0,0,0-.92,1.17,188.21,188.21,0,0,0,7.17,46.2,105.42,105.42,0,0,0,8.07,20.26c.35.67.26,1.1-.26,1.28a.43.43,0,0,0-.29.55q.73,1.69,2,5.42a15.52,15.52,0,0,0,6.45,8c.28.18.26.22,0,.12ZM206.68,85.65a99.56,99.56,0,0,1,7.92,15.67q1.22,3.06,1-.73c0-.37-.07-.72-.13-1.06a23.52,23.52,0,0,0-8.35-14.27q-1.45-1.22-.45.39ZM91,87q-6.45,6.82-6.9,14.84c-.08,1.47.2,1.54.84.19l6.92-14.39c1-2.11.73-2.32-.86-.64ZM81.19,113.5a35.4,35.4,0,0,0-.7-10.93c-.23-1.11-.62-1.17-1.16-.17q-3.7,6.82-.09,12.77c.72,1.19,1.44,2.38,2.15,3.58.47.77.89.75,1.26-.07A31.8,31.8,0,0,1,85.32,114a16.65,16.65,0,0,0,2.9-8.13c0-.34-.1-.41-.37-.22a19.39,19.39,0,0,0-6.51,7.89q-.2.43-.15,0Zm136.87.5a10.19,10.19,0,0,0-4.39-6.92,4.48,4.48,0,0,1-.91-.86,4.21,4.21,0,0,0-.94-.85c-.3-.2-.43-.12-.39.25a16.67,16.67,0,0,0,3.12,8.18,18.43,18.43,0,0,1,2.34,4.46c.38,1,.92,1.13,1.63.28q6.53-7.82,1.77-16.47c-.37-.67-.64-.64-.83.11a35.62,35.62,0,0,0-.89,11.37,1.64,1.64,0,0,1-.06.67c-.19.48-.34.41-.45-.22ZM80.58,130A50.83,50.83,0,0,0,78,118.82c-.39-1.11-.79-1.11-1.2,0q-3.29,8.72,4.95,16.06a.51.51,0,0,0,.83-.24A45.48,45.48,0,0,1,85,128.17a12.29,12.29,0,0,0,1.15-7.12c-.05-.35-.2-.4-.45-.17a15.63,15.63,0,0,0-5,9.12c0,.31-.1.31-.13,0Zm138.8,0a23.6,23.6,0,0,0-4.85-8.92c-.68-.79-1-.67-1,.38a18.47,18.47,0,0,0,1.52,7.48q1.37,2.9,2.16,5.13a.8.8,0,0,0,1.3.32q7.69-7.12,4.17-15.83c-.13-.31-.27-.32-.42,0A24.25,24.25,0,0,0,219.5,130q0,.47-.12,0Zm-4.19,17.4a12.59,12.59,0,0,0-2.55-11.73c-.21-.26-.36-.23-.45.1a22.4,22.4,0,0,0-.27,10.55,22.56,22.56,0,0,1,.37,5.34.44.44,0,0,0,.62.41Q224.22,147,223,135.19c-.07-.74-.33-.81-.77-.22a47.12,47.12,0,0,0-6.72,12.69c-.13.36-.24.41-.35.15a.6.6,0,0,1,0-.4ZM84,147.45a43.72,43.72,0,0,0-6.29-12.1q-.59-.79-.75.18A13.9,13.9,0,0,0,79.81,147a13.35,13.35,0,0,0,3,2.57c1.07.72,2.16,1.47,3.25,2.25s1.6.5,1.54-.84a20,20,0,0,1,.41-5.17,21.31,21.31,0,0,0-.27-10c-.09-.33-.25-.37-.47-.12a12.54,12.54,0,0,0-2.7,11.64c.06.27,0,.43-.11.47s-.32-.11-.39-.33Zm6.25,16.35c-.11,0-.18-.05-.21-.17l0-.16a39,39,0,0,0-8.71-11.42c-.36-.33-.53-.25-.5.23q.66,12.1,12.73,15.4a.68.68,0,0,0,.84-.81,25.09,25.09,0,0,1-.7-6.32,21.51,21.51,0,0,0-1.94-9.45c-.35-.77-.64-.75-.86.07a57.72,57.72,0,0,0-1.35,6.35,7.05,7.05,0,0,0,.21,3c.27,1,.5,2,.71,3a.23.23,0,0,1-.17.29Zm119-.62a28.74,28.74,0,0,0,1-3.4,7.78,7.78,0,0,0,0-3.46q-.6-2.7-1.37-5.2-.32-1-.75-.06A20.39,20.39,0,0,0,206,159.8a51.57,51.57,0,0,1-.58,7.44.35.35,0,0,0,.41.4q12-2.58,13.2-15.11c.05-.57-.14-.67-.58-.3a37.17,37.17,0,0,0-8.74,11,.56.56,0,0,1-.28.27c-.26.09-.33,0-.22-.32ZM101,178.36a1.66,1.66,0,0,1-.65-.37,37.58,37.58,0,0,0-12.58-8.7c-.46-.19-.6-.06-.42.41q4.71,12.62,18.45,11.4a.36.36,0,0,0,.29-.5c-1.51-3.45-2.43-5.65-2.74-6.61a24.7,24.7,0,0,0-5.46-9.58c-.23-.25-.37-.2-.42.14a17,17,0,0,0,3.69,13.56c.23.28.18.36-.16.25Zm97.91-.51a16.56,16.56,0,0,0,3.22-13.3c-.06-.34-.2-.38-.42-.13a25.42,25.42,0,0,0-5.29,9.47c-.47,1.5-.83,2.54-1.09,3.13a24.15,24.15,0,0,1-1.52,2.95q-.83,1.31.72,1.32,13,.09,17.64-10.83c.59-1.37.22-1.7-1.09-1a70.17,70.17,0,0,0-12.1,8.42c-.23.2-.26.18-.07-.06Zm-121.42,14-9.76.73c-.69,0-.8.31-.31.78a98.12,98.12,0,0,0,34.46,21.49.46.46,0,0,1,.27.62,69.44,69.44,0,0,1-3.83,7.3,4.09,4.09,0,0,0-.36.8c-.25.89.08,1.08,1,.58a1.75,1.75,0,0,0,.65-.67q8-13.84,16-27.68a3.16,3.16,0,0,1,.41-.52c.51-.55.37-.81-.42-.76a1.18,1.18,0,0,0-.86.41l-2.08,2.7a1.18,1.18,0,0,1-1.3.46A106.55,106.55,0,0,1,79,179.19c-.25-.21-.39-.15-.4.18L78,191.23a.59.59,0,0,1-.52.59Zm120.34,22.63A94.27,94.27,0,0,0,232,193.6c.69-.64.56-1-.38-1l-9.28-.51a.77.77,0,0,1-.73-.76l-.25-12.07c0-.49-.2-.57-.56-.25A91.79,91.79,0,0,1,188,197.65a.59.59,0,0,1-.69-.29,5.48,5.48,0,0,0-4-3c-.32-.06-.36,0-.11.24a8.16,8.16,0,0,1,1.68,2.13q7.05,12.1,14,24.27s.26.59.71,1.64a3,3,0,0,0,2.28,1.81c.53.1.67-.09.41-.58l-4.69-8.82a.44.44,0,0,1,.28-.61Zm-55.34,3.91q.21,3.07,3.1,2.84l1.91-.15c2.51,0,5,.07,7.53.16,1.66.06,2.34-.67,2.05-2.19a.76.76,0,0,1,.55-.87,61.39,61.39,0,0,1,35.44,1.33c.49.16.6,0,.33-.41L180,197.29a.86.86,0,0,0-.77-.42,58.33,58.33,0,0,0-28.77,8.18.86.86,0,0,1-.85,0,61.42,61.42,0,0,0-28.11-8.24,2.66,2.66,0,0,0-2.39,1.29L106.5,219q-.44.74.36.45a57.48,57.48,0,0,1,20.4-3.34A113.52,113.52,0,0,1,142,217.78a.63.63,0,0,1,.52.58Zm-1.41,6.19a4.51,4.51,0,0,0,.92,1.59,1.15,1.15,0,0,0,.85.36h14.38a.88.88,0,0,0,.8-.41l1.17-2.25a1.1,1.1,0,0,1,.63-.6,74.42,74.42,0,0,1,38.46.3,1.2,1.2,0,0,0,.68.05c.39-.15.3-.31-.28-.48a73.67,73.67,0,0,0-39.53-.85,1.37,1.37,0,0,0-1,1.72.92.92,0,0,1-.4,1.09,1.84,1.84,0,0,1-1,.23q-7.08,0-14.16-.12a.78.78,0,0,1-.85-.63,1.72,1.72,0,0,0-1.46-2.25,68.48,68.48,0,0,0-35.3-.05,2.79,2.79,0,0,1-.43.06q-3,.19-.21.47a1.14,1.14,0,0,0,.37,0,71.66,71.66,0,0,1,35.07.54A1.49,1.49,0,0,1,141.11,224.55Z"/><path class="cls-1" d="M176.33,86.41c1.07.36,1.13.81.16,1.34a2.91,2.91,0,0,0-.82.65,3.91,3.91,0,0,1-4.35,1.4q-9.19-2.72-18.29-5.75a9.31,9.31,0,0,0-6.71.25q-3.25,1.36-18.77,5.62a1.44,1.44,0,0,1-.94,0,8,8,0,0,1-3.56-2.73.37.37,0,0,1,.18-.58l25.21-8.07a5.13,5.13,0,0,1,3.1,0Q163.63,82.2,176.33,86.41Z"/><path class="cls-2" d="M135.64,139.74l28.31.06a.78.78,0,0,0,.77-.63l1.35-7.89a2.63,2.63,0,0,1,1.78-2.05l5.19-1.7a.36.36,0,0,1,.47.32,50.65,50.65,0,0,1-.44,5.45,107.39,107.39,0,0,0,2.11,37.87.5.5,0,0,1-.49.62l-8.06,0a.56.56,0,0,1-.55-.52l-1.29-10.91a.59.59,0,0,0-.59-.52l-28.56.06a.58.58,0,0,0-.59.49L133.76,171a.87.87,0,0,1-.85.78h-7.68a.51.51,0,0,1-.49-.62,114.76,114.76,0,0,0,1.34-43.08c-.11-.66.15-.87.76-.63l6.08,2.33a.91.91,0,0,1,.56.68l1.58,8.77A.59.59,0,0,0,135.64,139.74Z"/><path class="cls-3" d="M80,193.24l.34-10.1c0-.51.23-.61.62-.29a102.78,102.78,0,0,0,29.54,16.84.81.81,0,0,1,.57.67.92.92,0,0,1-.5.95,1.23,1.23,0,0,1-1,0,86.3,86.3,0,0,1-26.08-14.18c-.64-.51-1-.34-1,.53l-.44,7.56a.58.58,0,0,1-.59.52l-2.86.05c-1.45,0-1.63.5-.53,1.42a75.29,75.29,0,0,0,25.8,13.93.66.66,0,0,1,.42.85c-.39,1.1-1,1.46-1.73,1.07l-.74-.36a97.41,97.41,0,0,1-29.74-17.49c-.88-.75-.75-1.14.39-1.19l7-.3A.54.54,0,0,0,80,193.24Z"/><path class="cls-3" d="M133.1,210.14a1.42,1.42,0,1,1-1.47-1.07A1.3,1.3,0,0,1,133.1,210.14Z"/><path class="cls-4" d="M169.77,210.35a1.24,1.24,0,1,1-1.24-1.24A1.25,1.25,0,0,1,169.77,210.35Z"/><path class="cls-2" d="M18.15,180.4l-1.5-8,.82-.15c0,.17.11.42.2.75a2.22,2.22,0,0,0,.26.67,1,1,0,0,0,.51.46,1.27,1.27,0,0,0,.68,0l5.13-1-1.18-6.36-5,.93a1.3,1.3,0,0,0-.62.27,1,1,0,0,0-.34.6,3.89,3.89,0,0,0-.05.72,6.29,6.29,0,0,0,0,.81l-.82.15-1.49-8,.81-.15c0,.17.11.42.21.76a3.57,3.57,0,0,0,.29.71.86.86,0,0,0,.5.45,1.57,1.57,0,0,0,.69,0l10.51-2a1.43,1.43,0,0,0,.6-.25,1.1,1.1,0,0,0,.34-.62,4.49,4.49,0,0,0,.09-.84,4.38,4.38,0,0,0,0-.74l.82-.16,1.49,8.05-.81.15c-.06-.22-.14-.47-.25-.76a7.24,7.24,0,0,0-.29-.67.87.87,0,0,0-.53-.46,1.63,1.63,0,0,0-.66,0l-4.44.83L25.33,173l4.33-.8a1.39,1.39,0,0,0,.59-.25,1.25,1.25,0,0,0,.34-.63,4.53,4.53,0,0,0,.1-.78,4.62,4.62,0,0,0,0-.75l.82-.15,1.5,8-.82.15c-.06-.22-.13-.47-.23-.74a6.41,6.41,0,0,0-.31-.73.85.85,0,0,0-.53-.45,1.51,1.51,0,0,0-.67,0l-10.52,2a1.4,1.4,0,0,0-.62.25,1.09,1.09,0,0,0-.34.62,4.91,4.91,0,0,0,0,.77c0,.33,0,.59,0,.8l-.81.15Zm15.67,12.71,3.64-1.28L33,179.18l-.78.28a7.25,7.25,0,0,1,.12.76,3.43,3.43,0,0,1,0,.81,1.12,1.12,0,0,1-.23.69,1.61,1.61,0,0,1-.57.32l-10,3.55a1.56,1.56,0,0,1-.67.1,1,1,0,0,1-.59-.38,3.24,3.24,0,0,1-.39-.63c-.15-.31-.27-.56-.35-.74l-.78.28,4.73,13.38L28,196.3l-.26-.74a11.16,11.16,0,0,1-1.8-.26,8.8,8.8,0,0,1-1.89-.55,1.22,1.22,0,0,1-.48-.44,5.31,5.31,0,0,1-.43-.74,6.77,6.77,0,0,1-.37-.84c-.12-.33-.23-.61-.31-.84a9.07,9.07,0,0,1-.36-1.22,1.46,1.46,0,0,1,0-.78,1,1,0,0,1,.45-.56,4.7,4.7,0,0,1,1-.45l4.11-1.46.52,1.47a3.68,3.68,0,0,1,.23,1.09,1.7,1.7,0,0,1-.22,1,2.74,2.74,0,0,1-.71.78,5.62,5.62,0,0,1-.95.68l.27.78,5.95-2.1-.28-.78a5.39,5.39,0,0,1-1.12.06,2.72,2.72,0,0,1-1-.18,2.11,2.11,0,0,1-.79-.65,3.93,3.93,0,0,1-.49-1l-.52-1.47,5.52-1.94.73,2.06.3.89a6.16,6.16,0,0,1,.21.87,2.93,2.93,0,0,1-.49,1.77,5.68,5.68,0,0,1-1.29,1.58l.27.78Zm11.29,17.45c-.11-.17-.27-.41-.49-.71a2.13,2.13,0,0,0-.81-.71,1.65,1.65,0,0,0-1.14-.06,9.38,9.38,0,0,0-1.91.77l-9.68,4.82L30.22,213l6.29-13.58-6.35,3.16a8.52,8.52,0,0,0-1.72,1.05,1.85,1.85,0,0,0-.64,1,2.46,2.46,0,0,0,0,1c.08.43.16.77.23,1l-.74.37-2.91-5.84.74-.37a5.43,5.43,0,0,0,.57.78,2.39,2.39,0,0,0,.73.64,1.61,1.61,0,0,0,1.1.09,9.78,9.78,0,0,0,1.94-.8l6.42-3.19a3,3,0,0,0,.83-.6,2.11,2.11,0,0,0,.5-.82,2.65,2.65,0,0,0,.13-1,4.85,4.85,0,0,0-.19-1.13l.74-.37,2.54,5.11L35,211.3l5.14-2.55a8.89,8.89,0,0,0,1.74-1.07,1.83,1.83,0,0,0,.63-1,3,3,0,0,0,0-1,8.57,8.57,0,0,0-.23-1l.73-.36,2.9,5.84-.72.36Zm-1.74,22.7-4.8-6.68.67-.48a9.78,9.78,0,0,0,1,1c.39.36.66.49.79.39l.15-.12a1.47,1.47,0,0,0,.18-.24l1.8-2.9L40.07,220l-1.06.28-1.08.31a5.64,5.64,0,0,0-.84.31l-.33.19c-.18.13-.24.39-.17.76a5.83,5.83,0,0,0,.73,1.61l-.68.48-3.61-5,.67-.48a7,7,0,0,0,.55.58,2.39,2.39,0,0,0,.61.42,2.87,2.87,0,0,0,1,.23,3.29,3.29,0,0,0,1-.11l6.31-1.5,7-1.64,1.25,1.72q-3,4.69-4.69,7.4c-1.15,1.8-2.1,3.3-2.84,4.52a2.29,2.29,0,0,0-.12,2.11,5.37,5.37,0,0,0,.33.64l-.67.49Zm.34-10,3.2-5-5.76,1.46,2.56,3.56ZM67,238.08l.58-.56-4.52-4.7-.58.55c.14.22.31.51.51.88a2.88,2.88,0,0,1,.33,1,1.85,1.85,0,0,1-.32,1.1,8.12,8.12,0,0,1-1.34,1.54l-4.14,4,1.71-13-3.95-4.11-.59.58a4.57,4.57,0,0,1,.51,1,2.51,2.51,0,0,1,.18,1,2.06,2.06,0,0,1-.23.93,3,3,0,0,1-.62.82l-5.17,5a10,10,0,0,1-1.62,1.35,1.58,1.58,0,0,1-1.07.23,2.42,2.42,0,0,1-.89-.38,8.51,8.51,0,0,1-.77-.58l-.6.57L49,239.92l.59-.58a9.2,9.2,0,0,1-.51-.89,3,3,0,0,1-.34-.95,1.94,1.94,0,0,1,.34-1.11,8.88,8.88,0,0,1,1.32-1.51L55.48,230,53.53,244.8l1.33,1.39,7.8-7.49a10.27,10.27,0,0,1,1.6-1.31,1.69,1.69,0,0,1,1.1-.28,2.22,2.22,0,0,1,1,.44c.3.22.52.4.68.53ZM108.26,267a4.42,4.42,0,0,1-1.38,1.8,4.29,4.29,0,0,1-1.94.77,7,7,0,0,1-2.36-.1,13.38,13.38,0,0,1-2.63-.89l-1.13-.5-1.73,3.87a1.4,1.4,0,0,0-.14.67,1.05,1.05,0,0,0,.32.64,4.69,4.69,0,0,0,.57.45,7.78,7.78,0,0,0,.7.45l-.34.76-7.51-3.36.34-.76.79.26a2.93,2.93,0,0,0,.71.16,1,1,0,0,0,.67-.16,1.33,1.33,0,0,0,.4-.56L98,260.71a1.43,1.43,0,0,0,.14-.64,1,1,0,0,0-.32-.64,4.13,4.13,0,0,0-.63-.53l-.63-.43.34-.76,7.62,3.41a8.29,8.29,0,0,1,3.62,2.64,3.15,3.15,0,0,1,.16,3.19Zm-4-1.2a3.88,3.88,0,0,0,.4-2.59,3.05,3.05,0,0,0-1.91-1.76l-.81-.36-2.71,6.07.41.18a3.87,3.87,0,0,0,2.77.35,3.16,3.16,0,0,0,1.85-1.89Zm19.83,3.35a7.92,7.92,0,0,0-2.07-2.18,9,9,0,0,0-2.9-1.39,9.06,9.06,0,0,0-3.25-.31,7.44,7.44,0,0,0-2.94.86,7.6,7.6,0,0,0-2.37,2,8.7,8.7,0,0,0-1.52,3.06,7.94,7.94,0,0,0-.24,3.29,7.39,7.39,0,0,0,1,2.84,7.8,7.8,0,0,0,2.07,2.22,8.94,8.94,0,0,0,2.85,1.36,9.28,9.28,0,0,0,3.56.35,7.93,7.93,0,0,0,3-1,7.09,7.09,0,0,0,2.23-2,9.13,9.13,0,0,0,1.38-2.88,8,8,0,0,0,.26-3.36,7.57,7.57,0,0,0-1-2.85Zm-5.55,9.69a3.77,3.77,0,0,1-1.55,1.08,3,3,0,0,1-1.89,0,3,3,0,0,1-1.6-1,3.84,3.84,0,0,1-.77-1.75,7.54,7.54,0,0,1-.07-2.3,14.6,14.6,0,0,1,.51-2.64,11,11,0,0,1,2.35-4.72,3.19,3.19,0,0,1,3.32-1,3,3,0,0,1,1.66,1.07,4.18,4.18,0,0,1,.75,1.83,8,8,0,0,1,0,2.3,16.08,16.08,0,0,1-.51,2.52,16.33,16.33,0,0,1-1,2.61,7.83,7.83,0,0,1-1.26,1.94Zm22.82,1.36-.87,4.78-13.84-1.67.09-.82h.89a3.07,3.07,0,0,0,.67-.05,1,1,0,0,0,.58-.35,1.32,1.32,0,0,0,.23-.65l1.27-10.59a1.5,1.5,0,0,0,0-.65,1.12,1.12,0,0,0-.51-.51,3.38,3.38,0,0,0-.76-.34l-.72-.22.1-.82,8.23,1-.1.82h-.81a6,6,0,0,0-.81.07.86.86,0,0,0-.6.36,1.67,1.67,0,0,0-.22.65L133,281a4.87,4.87,0,0,0,0,1.11.92.92,0,0,0,.3.63,1.6,1.6,0,0,0,.74.36,14.12,14.12,0,0,0,3,.31,2,2,0,0,0,1.2-.3,7,7,0,0,0,1.29-1.38,14.85,14.85,0,0,0,1.12-1.69l.78.09Zm10.83,5.07-8.35-.27,0-.83.85,0a2.44,2.44,0,0,0,.77-.1,1,1,0,0,0,.55-.4,1.29,1.29,0,0,0,.16-.66l.35-10.71a1.35,1.35,0,0,0-.12-.65,1,1,0,0,0-.52-.46,4.16,4.16,0,0,0-.75-.24,8.61,8.61,0,0,0-.85-.19l0-.83,8.34.27,0,.83-.8.07a4.91,4.91,0,0,0-.81.13.92.92,0,0,0-.57.42,1.53,1.53,0,0,0-.15.66l-.35,10.7a1.35,1.35,0,0,0,.12.66,1,1,0,0,0,.53.46,3.55,3.55,0,0,0,.73.21,8.32,8.32,0,0,0,.86.14l0,.83Zm11.73-.43a8.6,8.6,0,0,1-3.14-.3,7.32,7.32,0,0,1-2.63-1.36,7.24,7.24,0,0,1-1.85-2.35,8.65,8.65,0,0,1-.85-3.19,8.38,8.38,0,0,1,.37-3.3,7.67,7.67,0,0,1,1.52-2.72,7.56,7.56,0,0,1,2.47-1.86,9.07,9.07,0,0,1,3.21-.84,7.86,7.86,0,0,1,2.31.14,9.91,9.91,0,0,1,1.8.55l.61-.63.92-.07.5,5.5-.93.07a9.57,9.57,0,0,0-2.2-3.57,3.55,3.55,0,0,0-2.8-1,3.32,3.32,0,0,0-2.9,2,9.76,9.76,0,0,0-.66,5,11.62,11.62,0,0,0,.59,3.05,6.33,6.33,0,0,0,1.08,2,3.81,3.81,0,0,0,1.54,1.08,4.69,4.69,0,0,0,1.89.23,4.46,4.46,0,0,0,2.58-1,7.59,7.59,0,0,0,1.93-2.61l.95.48a8.74,8.74,0,0,1-.91,1.75,6.33,6.33,0,0,1-1.25,1.38,7,7,0,0,1-1.78,1,7.84,7.84,0,0,1-2.37.51Zm20.47-15.68-.81.19a5.64,5.64,0,0,0-1.43-1.47,2.86,2.86,0,0,0-1.7-.68,5.17,5.17,0,0,0-.89.11l-.92.2-2.13.49,1.31,5.7,1.52-.35a4,4,0,0,0,1-.38,2.06,2.06,0,0,0,.73-.71,2.81,2.81,0,0,0,.29-1,5.11,5.11,0,0,0,.07-1.12l.81-.19,1.42,6.14-.81.19a5.55,5.55,0,0,0-.57-1,3.13,3.13,0,0,0-.69-.8,1.79,1.79,0,0,0-.93-.32,3.73,3.73,0,0,0-1.12.1l-1.51.35,1,4.25a4.35,4.35,0,0,0,.34,1,1.14,1.14,0,0,0,.51.51,1.53,1.53,0,0,0,.77.09,8.51,8.51,0,0,0,1.25-.22l.87-.21a6,6,0,0,0,.87-.27,5.21,5.21,0,0,0,.79-.34,1.24,1.24,0,0,0,.49-.43,9,9,0,0,0,.76-1.82,11,11,0,0,0,.46-1.76l.77-.17.78,4.65-13.83,3.19-.19-.8.78-.27a3.34,3.34,0,0,0,.67-.31,1,1,0,0,0,.43-.54,1.43,1.43,0,0,0,0-.68l-2.4-10.39a1.51,1.51,0,0,0-.26-.6,1.12,1.12,0,0,0-.65-.31,3.7,3.7,0,0,0-.81-.05c-.35,0-.6,0-.78,0l-.18-.8,13.07-3,.87,3.76Zm43.6-8.37a8.73,8.73,0,0,1-2.84,1.36,7,7,0,0,1-5.75-.87,9,9,0,0,1-3.76-5.32,7.77,7.77,0,0,1-.1-3.11,7.49,7.49,0,0,1,1.17-2.87,8.85,8.85,0,0,1,2.32-2.37,7.76,7.76,0,0,1,2-1.08,8.89,8.89,0,0,1,1.83-.44l.2-.86.75-.53,3.26,4.45-.76.54a9.9,9.9,0,0,0-3.72-1.93,3.62,3.62,0,0,0-2.91.61,3.34,3.34,0,0,0-1.46,3.2,9.92,9.92,0,0,0,2,4.65,11.75,11.75,0,0,0,2.08,2.31,6.27,6.27,0,0,0,1.95,1.14,3.75,3.75,0,0,0,1.87.12,4.39,4.39,0,0,0,1.74-.76,4.55,4.55,0,0,0,1.69-2.2,7.46,7.46,0,0,0,.31-3.23l1.07-.08a9.56,9.56,0,0,1,.12,2,5.9,5.9,0,0,1-.37,1.82,6.84,6.84,0,0,1-1,1.82,7.31,7.31,0,0,1-1.77,1.66Zm8.85-25.6a7.91,7.91,0,0,0-2.93.65,9.38,9.38,0,0,0-4.63,4.39,7.62,7.62,0,0,0-.78,3,7.81,7.81,0,0,0,.51,3.07,8.68,8.68,0,0,0,1.84,2.88,8,8,0,0,0,2.69,1.9,7.25,7.25,0,0,0,3,.58,7.85,7.85,0,0,0,3-.62,9.06,9.06,0,0,0,2.64-1.75,9.24,9.24,0,0,0,2.14-2.87,8,8,0,0,0,.67-3,7.39,7.39,0,0,0-.6-3,9.06,9.06,0,0,0-1.76-2.66,7.8,7.8,0,0,0-2.74-2,7.44,7.44,0,0,0-3-.59Zm5.44,9.75a7.9,7.9,0,0,0-1-2.07,15.86,15.86,0,0,0-1.75-2.17,17,17,0,0,0-1.89-1.73,7.9,7.9,0,0,0-2-1.17,4,4,0,0,0-2-.3,3,3,0,0,0-1.78.86,3.19,3.19,0,0,0-.87,3.35,10.9,10.9,0,0,0,2.82,4.44,16.41,16.41,0,0,0,2,1.8,8.05,8.05,0,0,0,2,1.13,4,4,0,0,0,1.9.24,3,3,0,0,0,1.68-.86,3,3,0,0,0,.95-1.63,3.74,3.74,0,0,0-.13-1.89Zm13.16-18.56,3.68,3.17-8.43,11.1-.66-.5c.13-.21.28-.46.44-.76a3.14,3.14,0,0,0,.3-.61,1,1,0,0,0,0-.68,1.43,1.43,0,0,0-.45-.53l-8.49-6.45a1.65,1.65,0,0,0-.58-.29,1.11,1.11,0,0,0-.7.18,3.82,3.82,0,0,0-.68.49l-.55.51-.66-.5,5-6.6.66.5c-.12.19-.26.43-.41.69a5.31,5.31,0,0,0-.35.74.88.88,0,0,0,0,.7,1.62,1.62,0,0,0,.44.51l7.93,6a5.41,5.41,0,0,0,.94.6,1,1,0,0,0,.7.06,1.65,1.65,0,0,0,.67-.46,10,10,0,0,0,.88-1.06,11.82,11.82,0,0,0,.92-1.38,2,2,0,0,0,.35-1.19,7.56,7.56,0,0,0-.54-1.81A15.52,15.52,0,0,0,255,227l.47-.63Zm9.35-14.16-.43.66a17.39,17.39,0,0,1,1,1.75,7.38,7.38,0,0,1,.67,1.77,2,2,0,0,1-.25,1.21A14.06,14.06,0,0,1,265,219a11.5,11.5,0,0,1-.8,1.11,1.53,1.53,0,0,1-.64.51.94.94,0,0,1-.7,0,5.66,5.66,0,0,1-1-.52l-8.35-5.42a1.47,1.47,0,0,1-.48-.48.86.86,0,0,1-.06-.7,5,5,0,0,1,.29-.76c.14-.27.26-.52.36-.72l-.69-.45-4.51,7,.69.45.52-.54a3.64,3.64,0,0,1,.63-.54,1.06,1.06,0,0,1,.69-.23,1.45,1.45,0,0,1,.6.24l8.94,5.81a1.29,1.29,0,0,1,.49.5.93.93,0,0,1,.06.67,3.8,3.8,0,0,1-.25.63c-.14.31-.27.57-.39.79l.69.45,7.6-11.69-3.9-2.89Zm.53-17-.33.75a5.81,5.81,0,0,0-2,.26,2.93,2.93,0,0,0-1.57.94,5.87,5.87,0,0,0-.45.78c-.16.34-.29.63-.4.85l-.89,2L265,203.1l.63-1.42a4,4,0,0,0,.31-1,2,2,0,0,0-.13-1,2.71,2.71,0,0,0-.59-.81,5.65,5.65,0,0,0-.85-.73l.34-.76,5.75,2.57-.34.76a5.19,5.19,0,0,0-1.15-.16,3.11,3.11,0,0,0-1.06.07,1.78,1.78,0,0,0-.82.55,3.58,3.58,0,0,0-.58.95l-.64,1.42,4,1.78a4.46,4.46,0,0,0,1,.35,1,1,0,0,0,.71-.1,1.42,1.42,0,0,0,.54-.55,9.46,9.46,0,0,0,.58-1.13c.1-.23.22-.5.35-.82a8,8,0,0,0,.32-.87,5.2,5.2,0,0,0,.19-.83,1.24,1.24,0,0,0,0-.65,8.59,8.59,0,0,0-1-1.71,11.66,11.66,0,0,0-1.13-1.42l.32-.72,4.19,2.19-5.79,13-.76-.33c.07-.19.15-.45.25-.78a2.94,2.94,0,0,0,.16-.73,1,1,0,0,0-.17-.67,1.43,1.43,0,0,0-.55-.4l-9.73-4.35a1.68,1.68,0,0,0-.63-.15,1.06,1.06,0,0,0-.65.33,4.13,4.13,0,0,0-.53.62c-.2.28-.35.49-.44.64l-.75-.34,5.47-12.25,3.52,1.58ZM276,177.5l-.8-.22-2.11,7.56.8.23c.08-.2.2-.45.35-.74a3,3,0,0,1,.45-.7,1.1,1.1,0,0,1,.58-.41,1.38,1.38,0,0,1,.66,0l3,.82a3.73,3.73,0,0,1,.32,1.27,4.56,4.56,0,0,1-.18,1.68,3.41,3.41,0,0,1-2.65,2.47,10.48,10.48,0,0,1-5.32-.36,9.36,9.36,0,0,1-4.45-2.39,3.51,3.51,0,0,1-.87-3.52,3.7,3.7,0,0,1,1.93-2.42,9.83,9.83,0,0,1,4.08-.87l.25-.9-5.33-1.4-.25.88.39.79a11.3,11.3,0,0,0-1.15,1.56,9,9,0,0,0-.95,2.21,9.69,9.69,0,0,0-.36,3.49,7.4,7.4,0,0,0,.89,3,7.28,7.28,0,0,0,2,2.32,9,9,0,0,0,3,1.45,8.7,8.7,0,0,0,3.41.31,7,7,0,0,0,2.83-1,7.06,7.06,0,0,0,2.13-2,9.42,9.42,0,0,0,1.31-2.83,14.79,14.79,0,0,0,.48-3.83,13,13,0,0,0-.31-3.36l-.79-.18-.82-.22-1.7-.48a1.61,1.61,0,0,1-.61-.31.9.9,0,0,1-.29-.68,3.34,3.34,0,0,1,0-.66,5.12,5.12,0,0,1,.08-.59Zm-2.84-16.07-.1.83a5.65,5.65,0,0,0-1.86.85,2.84,2.84,0,0,0-1.22,1.36,4.85,4.85,0,0,0-.19.87c-.06.38-.1.69-.13.94l-.26,2.17,5.8.7.19-1.55a4.22,4.22,0,0,0,0-1.07,2.08,2.08,0,0,0-.43-.93,2.45,2.45,0,0,0-.8-.6,5.67,5.67,0,0,0-1-.45l.1-.82,6.26.75-.1.82a5.62,5.62,0,0,0-1.16.19,3.24,3.24,0,0,0-1,.38,1.82,1.82,0,0,0-.62.76,3.7,3.7,0,0,0-.28,1.09l-.18,1.54,4.33.52a4,4,0,0,0,1.08,0,1,1,0,0,0,.66-.3,1.58,1.58,0,0,0,.35-.7,10.39,10.39,0,0,0,.22-1.24c0-.25.06-.55.09-.89a8,8,0,0,0,.05-.92,5.77,5.77,0,0,0-.06-.85,1.18,1.18,0,0,0-.24-.61,9,9,0,0,0-1.45-1.34,11.74,11.74,0,0,0-1.5-1l.1-.78,4.64.85-1.69,14.09L282,176c0-.2,0-.47,0-.81a3,3,0,0,0-.07-.74,1,1,0,0,0-.36-.6,1.38,1.38,0,0,0-.64-.21l-10.59-1.27a1.44,1.44,0,0,0-.64,0,1.06,1.06,0,0,0-.52.5,3.93,3.93,0,0,0-.33.75c-.11.33-.18.57-.23.74l-.82-.1,1.6-13.32Z"/><polygon class="cls-2" points="149.91 92.28 151.76 98 157.77 97.99 152.9 101.51 154.77 107.23 149.91 103.69 145.06 107.23 146.93 101.51 142.06 97.99 148.07 98 149.91 92.28"/><polygon class="cls-2" points="132.82 105.41 133.65 107.98 136.35 107.97 134.16 109.55 135 112.12 132.82 110.53 130.64 112.12 131.48 109.55 129.29 107.97 131.99 107.98 132.82 105.41"/><polygon class="cls-2" points="143.68 112.7 144.5 115.27 147.21 115.27 145.02 116.85 145.86 119.42 143.68 117.83 141.49 119.42 142.33 116.85 140.15 115.27 142.85 115.27 143.68 112.7"/><polygon class="cls-2" points="156.1 112.7 156.93 115.27 159.63 115.27 157.44 116.85 158.28 119.42 156.1 117.83 153.91 119.42 154.75 116.85 152.57 115.27 155.27 115.27 156.1 112.7"/><polygon class="cls-2" points="166.53 105.41 167.36 107.98 170.06 107.97 167.87 109.55 168.71 112.12 166.53 110.53 164.35 112.12 165.19 109.55 163 107.97 165.7 107.98 166.53 105.41"/><path class="cls-2" d="M141.65,206.43v6.43a4.22,4.22,0,0,0,.06.93.55.55,0,0,0,.27.33,1.19,1.19,0,0,0,.65.13h.18v.21h-4.14v-.21h.21a1.71,1.71,0,0,0,.71-.11.66.66,0,0,0,.3-.32,3.77,3.77,0,0,0,.07-1v-4.08a3,3,0,0,0-.05-.69.49.49,0,0,0-.2-.23.58.58,0,0,0-.32-.1,2,2,0,0,0-.73.19l-.1-.2,2.89-1.32Zm3,8.19v-.16a5.06,5.06,0,0,0,1.63-.66,3.25,3.25,0,0,0,1.06-1.06,4.18,4.18,0,0,0,.55-1.46,3.93,3.93,0,0,1-.61.26,2.33,2.33,0,0,1-.53.07,2,2,0,0,1-1.49-.64,2.48,2.48,0,0,1-.59-1.76,3.06,3.06,0,0,1,.32-1.42,2.33,2.33,0,0,1,.91-1,2.34,2.34,0,0,1,2.54,0,2.78,2.78,0,0,1,1,1.15,3.86,3.86,0,0,1,.36,1.7,5.14,5.14,0,0,1-.59,2.38,4.55,4.55,0,0,1-1.76,1.83,6,6,0,0,1-2.78.74ZM148,210.8c0-.43.05-.81.05-1.14a7.76,7.76,0,0,0-.25-2,1.5,1.5,0,0,0-.41-.74.51.51,0,0,0-.37-.13.53.53,0,0,0-.45.25,2.62,2.62,0,0,0-.22,1.31,4.42,4.42,0,0,0,.38,2.21.76.76,0,0,0,.67.4,1.39,1.39,0,0,0,.6-.19Zm3.13.7,3.72-5.07h.71v5.07h.72v1.2h-.72v1.76H154V212.7h-2.84v-1.2Zm.54,0H154v-3.13l-2.3,3.13Zm6.06,3.12v-.16a5.06,5.06,0,0,0,1.63-.66,3.25,3.25,0,0,0,1.06-1.06,4.39,4.39,0,0,0,.55-1.46,3.93,3.93,0,0,1-.61.26,2.33,2.33,0,0,1-.53.07,2,2,0,0,1-1.49-.64,2.49,2.49,0,0,1-.6-1.76,3.18,3.18,0,0,1,.32-1.42,2.41,2.41,0,0,1,.92-1,2.34,2.34,0,0,1,2.54,0,2.86,2.86,0,0,1,1,1.15,3.86,3.86,0,0,1,.36,1.7,5.14,5.14,0,0,1-.59,2.38,4.51,4.51,0,0,1-1.77,1.83,5.89,5.89,0,0,1-2.77.74Zm3.33-3.82c0-.43,0-.81,0-1.14a7.76,7.76,0,0,0-.24-2,1.5,1.5,0,0,0-.41-.74.51.51,0,0,0-.37-.13.53.53,0,0,0-.45.25,2.62,2.62,0,0,0-.22,1.31,4.42,4.42,0,0,0,.38,2.21.75.75,0,0,0,.67.4A1.39,1.39,0,0,0,161.06,210.8Z"/><path class="cls-3" d="M220,193.24l-.34-10.1c0-.51-.23-.61-.62-.29a102.78,102.78,0,0,1-29.54,16.84.81.81,0,0,0-.57.67.92.92,0,0,0,.5.95,1.23,1.23,0,0,0,1,0,86.3,86.3,0,0,0,26.08-14.18c.64-.51,1-.34,1,.53l.44,7.56a.58.58,0,0,0,.59.52l2.86.05c1.45,0,1.63.5.53,1.42a75.29,75.29,0,0,1-25.8,13.93.66.66,0,0,0-.42.85c.39,1.1,1,1.46,1.73,1.07l.74-.36a97.41,97.41,0,0,0,29.74-17.49c.88-.75.75-1.14-.39-1.19l-7-.3A.54.54,0,0,1,220,193.24Z"/><path class="cls-2" d="M237.55,41.38a.74.74,0,0,1,.49,0,.67.67,0,0,1,.31.33.73.73,0,0,1-.1.86c-.22.27-.33.41-.34.41-.09.25,0,.49.4.73a.22.22,0,0,1,0,.37c-.16.17-.4.18-.71,0a.26.26,0,0,0-.39.13,3.7,3.7,0,0,1-.31.46,5.16,5.16,0,0,0-.31.45,1.49,1.49,0,0,1-.4.43.12.12,0,0,1-.11,0l-.48-.07a.18.18,0,0,1-.09-.07c-.07-.11-.14-.21-.2-.32s-.07-.09-.19-.25a.63.63,0,0,1-.11-.46,3.58,3.58,0,0,1,.54-1.6,2.39,2.39,0,0,1,.42-.46l.35-.33a2,2,0,0,0,.23-.23A1.64,1.64,0,0,1,237.55,41.38Z"/><path class="cls-2" d="M234.73,52.75a5.25,5.25,0,0,0,.6.06c.18,0,.22,0,.09-.09l-.07,0-.68,0a.15.15,0,0,0-.14.07s-.05.08-.07.08a.09.09,0,0,1-.11,0,.23.23,0,0,0-.08-.07,4.31,4.31,0,0,0-.62-.15c-.07,0-.09,0-.06-.06a.08.08,0,0,1,.07,0,3.25,3.25,0,0,0,.54,0,12.85,12.85,0,0,1,2.4.08l.44,0,.44,0c.1,0,.11-.05,0-.12a11.12,11.12,0,0,0-2-1.65,10.52,10.52,0,0,0-2.07-1,14.28,14.28,0,0,0-2.23-.66,3,3,0,0,0-1.94.15A10.17,10.17,0,0,0,228,50a6.8,6.8,0,0,0-.9.66,2.54,2.54,0,0,1-.6.42,2,2,0,0,1-.8.16,2.13,2.13,0,0,0-.39,0,1.08,1.08,0,0,1-.4,0,.13.13,0,0,1-.1-.14c0-.26.06-.49.09-.71s0-.37-.26-.18c0,0,0,0,0,0,.15-.31.29-.61.41-.93a1.37,1.37,0,0,1,.26-.42,1.82,1.82,0,0,0,.3-.42,4.93,4.93,0,0,1,1.88-2.07,2.81,2.81,0,0,1,.85-.3c.45-.1.74-.16.87-.2l2.24-.68a3,3,0,0,1,.72-.12,1.1,1.1,0,0,1,.68.18,1.69,1.69,0,0,1,.67.82.9.9,0,0,0,.25.3,1,1,0,0,0,.34.16q1,.27,2,.45a24.34,24.34,0,0,1,2.63.6,3.68,3.68,0,0,0,.75.12s.06,0,.05-.05c-.07-.47-.13-.91-.19-1.31a2.61,2.61,0,0,1,.14-1.3.52.52,0,0,1,.74-.37,1.19,1.19,0,0,1,.42.25,1.51,1.51,0,0,1,.31.38,7.24,7.24,0,0,1,.54,1.09A1.24,1.24,0,0,0,242,47c.47.26.95.5,1.44.73a1.09,1.09,0,0,0,.4.13,1.56,1.56,0,0,0,.43,0,.47.47,0,0,1,.39.11s.1.11.25.28a1.25,1.25,0,0,1,.32.64,1.79,1.79,0,0,0,.13.46l.17.44a2.72,2.72,0,0,1,0,.64c0,.34,0,.55,0,.63-.06.42-.35.65-.85.68a.73.73,0,0,1-.66-.27,1,1,0,0,1-.16-.37,3.31,3.31,0,0,1-.08-.39,1.43,1.43,0,0,0-.35-.71.9.9,0,0,0-.58-.35.21.21,0,0,1-.11,0,2.13,2.13,0,0,0-.59-.29,9.65,9.65,0,0,0-1.66-.38,1.88,1.88,0,0,1-1-.43,1.71,1.71,0,0,0-.64-.17,7.37,7.37,0,0,1-1.93-.6,2.65,2.65,0,0,0-.68-.24c-1-.21-2-.46-3-.76a1.08,1.08,0,0,0-.71,0,1.51,1.51,0,0,0-.52.39l-.46.47a.1.1,0,0,0,0,.16c.58.27,1.16.51,1.72.71s1,.39,1.55.63a11.16,11.16,0,0,1,1.45.81q1.13.73,2.19,1.59a4.07,4.07,0,0,0,.38.28l.42.23a1.08,1.08,0,0,0,.44.14l.41.06s.06,0,.08.06a1.57,1.57,0,0,0,.43.55,1,1,0,0,1,.4.53,2.35,2.35,0,0,0,.42.87,2,2,0,0,1,.38.62,1,1,0,0,1,0,.42,1,1,0,0,0,.17.6.2.2,0,0,1,0,.11,3.08,3.08,0,0,1-.14.92.49.49,0,0,1-.59.33,4.47,4.47,0,0,1-.57-.1l-.16,0c-.11,0-.12-.11,0-.2a.08.08,0,0,0,0-.12.92.92,0,0,1-.44-.5.3.3,0,0,0-.26-.21.18.18,0,0,1-.14-.23.3.3,0,0,0-.08-.34,1.18,1.18,0,0,0-.24-.12,1.18,1.18,0,0,1-.19-.11.06.06,0,0,1,0-.08c.1-.15.07-.26-.11-.34a.12.12,0,0,0-.1,0c-.14.06-.24,0-.29-.2a.24.24,0,0,0-.11-.13.76.76,0,0,1-.35-.26s-.05-.06-.08-.06q-.39-.11-.75-.24a2,2,0,0,1-.37-.23,1.44,1.44,0,0,0-.39-.2c-.44-.14-1.08-.36-1.91-.67-.09,0-.11-.08-.05-.13Zm6.86-4.86c-.14,0-.17.07-.11.17s0,0,.08.07a5.61,5.61,0,0,0,1.4.28s0,0,0,0a3.17,3.17,0,0,0-1.26-.51h0Z"/><path class="cls-2" d="M222.87,62.07a2.13,2.13,0,0,0-.55-.44.66.66,0,0,1-.25-.4l0-.09c-.12-.17-.08-.2.09-.09a.12.12,0,0,0,.1,0c.12,0,.13-.09,0-.17l-.13-.06a.28.28,0,0,1-.21-.18.14.14,0,0,1,0-.11c0-.12,0-.18-.15-.17a.06.06,0,0,1,0-.06.4.4,0,0,1,.09-.2.14.14,0,0,0,0-.11,2,2,0,0,1-.06-.35,1.49,1.49,0,0,0,0-.36,6.63,6.63,0,0,0-.44-1.12.33.33,0,0,1,0-.17c.06-.4.11-.76.14-1.09a1.71,1.71,0,0,1,.26-.78l.25-.4a.68.68,0,0,1,.4-.31,4.24,4.24,0,0,1,1.86-.14,19.33,19.33,0,0,1,4.73,1.26,2.64,2.64,0,0,0,.38.11,1.68,1.68,0,0,1,.38.12.17.17,0,0,0,.21-.05l1.4-1.87a.13.13,0,0,0,0-.17l-.73-.72a.12.12,0,0,1,0-.17,1.18,1.18,0,0,0,.25-.31.62.62,0,0,0,.09-.37l0-.47a.8.8,0,0,1,0-.26c0-.21.15-.23.33-.07a.06.06,0,0,0,.08,0,.23.23,0,0,0,.08-.12c0-.1.09-.11.16,0a.22.22,0,0,0,.29.09l.13-.06c.29-.09.48,0,.59.34a.93.93,0,0,0,.22.26.17.17,0,0,1,0,.1,1.07,1.07,0,0,0,.18.92,3,3,0,0,1,.3.45,11.12,11.12,0,0,1,.66,1.89.08.08,0,0,1-.08.11.6.6,0,0,0-.55.23.1.1,0,0,1-.09,0l-.41-.12a.7.7,0,0,0-.42,0,.47.47,0,0,0-.3.27l-.11.23a2.2,2.2,0,0,1-.37.47.13.13,0,0,0,0,.18,2.44,2.44,0,0,0,.9.47,1.64,1.64,0,0,1,.89.53,20.36,20.36,0,0,1,1.31,1.88.12.12,0,0,1,0,.11.33.33,0,0,1-.08.19.88.88,0,0,0-.1.18c-.08.3,0,.39.31.29a.11.11,0,0,1,.1,0c.09.09.07.18,0,.28a1,1,0,0,0-.16.34.31.31,0,0,1-.13.19.36.36,0,0,1-.18.07l-.1,0a.31.31,0,0,1-.34,0c-.21-.15-.63-.41-1.29-.78l-.65-.35a7.38,7.38,0,0,1-1.15-.76s-.08-.09-.23-.26a.7.7,0,0,0-.36-.19.09.09,0,0,0-.09,0c-.88,1.09-1.8,2.16-2.74,3.21l-.31.3a2.34,2.34,0,0,0-.25.3.22.22,0,0,1-.09.07,1.88,1.88,0,0,0-.9.7.05.05,0,0,1-.08,0,.25.25,0,0,0-.29,0l-.17.12a2.93,2.93,0,0,1-1,.28s-.05,0,0-.05a.55.55,0,0,0,0-.44,3.73,3.73,0,0,0-.46-.55.09.09,0,0,0-.09,0c-.11.06-.16,0-.14-.07a.08.08,0,0,1,.07-.08c.14,0,.15-.12,0-.2l-.14-.11a2.41,2.41,0,0,1-.68-1.2Zm6.28-5a17.85,17.85,0,0,0-4.3-1.14c-.18,0-.17,0,0,.07h.06c1,.25,2.06.51,3.08.8a4,4,0,0,1,.62.24l.6.29a.1.1,0,0,0,.09,0c.07-.09,0-.18-.16-.25Zm-5.7,3.17c.06.26.12.27.16,0a.54.54,0,0,1,.22.34.07.07,0,0,1-.07.09h-.29s-.05,0,0,0a4,4,0,0,0,1.22.82c.05,0,.07,0,.06,0a.33.33,0,0,0-.1-.14c-.27-.27-.29-.32,0-.15l.08,0a1.43,1.43,0,0,1,.57.19.26.26,0,0,0,.13.08c.1.1.15.08.14-.06l0-.1a.65.65,0,0,0,.35-.06,2,2,0,0,1,.49-.33.25.25,0,0,1,.16,0,.29.29,0,0,1,.15.12,0,0,0,0,0,.06,0A6.71,6.71,0,0,0,227.79,60a.18.18,0,0,0,.1-.16.35.35,0,0,0,.4-.24c.06-.17.15-.37.26-.61a.06.06,0,0,0,0-.08l-1.35-.36a.12.12,0,0,1-.07-.07l0-.15s0,0-.08,0a1.43,1.43,0,0,1-.89-.1.2.2,0,0,1-.08-.08.83.83,0,0,0-.12-.21c-.09-.1-.13-.08-.11.08a.08.08,0,0,1-.1.09l-.85-.16a6.87,6.87,0,0,0-1.92-.11h-.15c-.13,0-.18.08-.17.25a.75.75,0,0,0,.1.36,5.33,5.33,0,0,1,.42,1,3.5,3.5,0,0,0,.22.43,1.11,1.11,0,0,1,.13.48Zm2.73-3a.41.41,0,0,1-.22,0,.13.13,0,0,0-.1,0q-.15,0,0,.09a.62.62,0,0,0,.73-.06s0,0,0-.07a.28.28,0,0,0-.34.05.16.16,0,0,1-.1,0Zm-3-.23c0-.05-.06-.08-.1-.07l-.36.1a.08.08,0,0,0,0,.14c.09.09.15.11.18,0a.15.15,0,0,1,.16-.08C223.21,57.24,223.26,57.2,223.23,57.09Z"/><path class="cls-2" d="M182.79,14.69l-1-.58a.9.9,0,0,1-.41-.38c-.11-.27,0-.47.33-.62a1.67,1.67,0,0,1,1.07,0,9.43,9.43,0,0,0,1.38.23,2,2,0,0,1,.82.25l.47.27a6.72,6.72,0,0,1,2.23,1.8c.13.15.08.26-.12.31,0,0-.07.06,0,.1a.52.52,0,0,1,0,.27.07.07,0,0,1-.07.07,2.7,2.7,0,0,1-1.42-.22c-.45-.19-1.46-.54-3-1a.17.17,0,0,0-.12,0l-.58.15c-.05,0-.09,0-.08,0s0,0,.06-.05a1.87,1.87,0,0,0,.51-.39A.06.06,0,0,0,182.79,14.69Z"/><path class="cls-2" d="M171.53,25.61a.23.23,0,0,0,0,.16,5.39,5.39,0,0,0,0,1.16c0,.14.06.12.08-.05s.06-.45.11-.67c.16.09.25,0,.25-.17a4.9,4.9,0,0,1,.14-1,.33.33,0,0,1,.14-.23,2.61,2.61,0,0,0,.72-.9.52.52,0,0,0,.34-.25s0,0,0-.05,0,0,0,0a.62.62,0,0,0-.54.07.81.81,0,0,0-.28.35l-.22.41c-.06.11-.08.1,0,0a1.46,1.46,0,0,1,.22-.56,1.31,1.31,0,0,1,.44-.37,8.94,8.94,0,0,0,1-.69.32.32,0,0,1,.25-.07,2.63,2.63,0,0,1,1.75,1.08.38.38,0,0,1,.08.17c.05.34.24.47.59.37a2,2,0,0,0,1.09-.72.41.41,0,0,0,.06-.11c0-.07,0-.11-.06-.12a.08.08,0,0,0-.09,0q-.24.23-.3.21c-.05,0-.05,0,0-.09l.93-.69a.7.7,0,0,0,.27-.29.33.33,0,0,0-.09-.33,1,1,0,0,1-.2-.24.62.62,0,0,1,.14-.78,3.07,3.07,0,0,1,.52-.37,1.39,1.39,0,0,1,.63-.21,2.37,2.37,0,0,0,.34-.08,1,1,0,0,1,.37-.07,2.36,2.36,0,0,0,.78-.07c1.15-.32,2.32-.6,3.5-.84.07,0,.07,0,0,0a14.27,14.27,0,0,0-4.87-.42.22.22,0,0,0-.11.05q-.24.21-.48.39a1.7,1.7,0,0,1-.49.25,1.86,1.86,0,0,0-.92.8,5,5,0,0,1-1,1.1.9.9,0,0,1-.24.16c-.18.07-.28,0-.31-.15a.25.25,0,0,0-.12-.2c-.19-.13-.27-.26-.25-.39l0-.15a2.69,2.69,0,0,0-.06-.63c0-.14-.1-.22-.2-.25a.28.28,0,0,1-.18-.26,6,6,0,0,1,.27-1.5,2.38,2.38,0,0,1,.57-.92,5.32,5.32,0,0,1,.86-.71.24.24,0,0,0,.08-.09,5.13,5.13,0,0,1,.65-1,.66.66,0,0,1,.4-.25.68.68,0,0,1,.34.06.75.75,0,0,1,.25.23,4.82,4.82,0,0,1,.83,1.74.44.44,0,0,0,.44.37,30.9,30.9,0,0,1,5.27.8,3.7,3.7,0,0,0,1.1.1.22.22,0,0,0,.11-.05,1.06,1.06,0,0,1,.66-.25l.12,0c.11,0,.25,0,.4.18a.21.21,0,0,0,.12.05.57.57,0,0,1,.55.39.93.93,0,0,0,.39.44,5.11,5.11,0,0,1,1.47,1.43.11.11,0,0,1,0,.11.77.77,0,0,0,0,.72.13.13,0,0,1,0,.12.15.15,0,0,1-.23,0,.13.13,0,0,0-.11,0,1.47,1.47,0,0,1-.59,0,.21.21,0,0,1-.1-.06,1.41,1.41,0,0,0-.54-.4l-.51-.23a2.45,2.45,0,0,0-.54-.18.14.14,0,0,1-.1-.07.41.41,0,0,0-.07-.11.18.18,0,0,0-.11-.08,1.28,1.28,0,0,0-.88-.07.26.26,0,0,1-.23,0s0,0,0-.05c.32,0,.31-.11,0-.21a.5.5,0,0,0-.17,0c-.39,0-.79.05-1.18.05a.15.15,0,0,1-.11,0,.26.26,0,0,0-.22-.09,17.87,17.87,0,0,0-3.82.78c-.23.08-.34.21-.31.39a.61.61,0,0,0,.22.35q.41.41.81.84a.44.44,0,0,0,.2.13l.18.05s.05,0,.05.07.06.17.22.1a2.32,2.32,0,0,1,.68-.16c.15,0,.15,0,0-.09a.55.55,0,0,0-.42,0l-.08,0c-.19.05-.22,0-.09-.08a.21.21,0,0,1,.12,0,.23.23,0,0,0,.24-.19.11.11,0,0,1,.08-.08,7.54,7.54,0,0,0,1.2-.44.75.75,0,0,1,.57,0,1.1,1.1,0,0,1,.43.33l.4.49a.86.86,0,0,0,.14.13.8.8,0,0,1,.33.58.36.36,0,0,0,0,.11,1.34,1.34,0,0,1,.26.64.26.26,0,0,1,0,.11.94.94,0,0,0-.06.48c0,.26-.08.4-.35.45a1.3,1.3,0,0,1-.9-.18,1.29,1.29,0,0,0-.47-.15.09.09,0,0,1-.07-.12l.11-.43s0-.08-.07-.1l-.45-.11a.17.17,0,0,0-.12,0,.46.46,0,0,1-.53,0c-.18-.12-.3-.17-.38-.14a1.34,1.34,0,0,1-.44.1c-.32,0-.46.08-.42.23s.06.11.17.28a7.78,7.78,0,0,0,1.69,1.89.28.28,0,0,0,.18,0,10.4,10.4,0,0,0,1.78-.51.46.46,0,0,0,.29-.3L186,25s0-.05.09-.06a1.13,1.13,0,0,1,.58.14,1,1,0,0,1,.36.44q.13.29.39.87a.74.74,0,0,1,0,.58.24.24,0,0,0,0,.12l.1.52a.12.12,0,0,1,0,.09,1.87,1.87,0,0,0-.35.26.65.65,0,0,1-.37.19.61.61,0,0,1-.43-.24.54.54,0,0,0-.65-.19l-.08,0c-.09,0-.08,0,0-.12a1,1,0,0,0,.23-.41.06.06,0,0,0-.06-.08,5,5,0,0,0-1.59.07c-.06,0-.07,0,0,.08.48.51,1,1,1.45,1.46a14.39,14.39,0,0,1,3.16,4.49.31.31,0,0,1,0,.19l-.22.59a.07.07,0,0,1-.08,0,11.35,11.35,0,0,1-1-.65,5.88,5.88,0,0,1-.89-.81,12,12,0,0,1-1.39-1.74,16.92,16.92,0,0,0-2.65-3.25,1,1,0,0,0-.45-.22,7.13,7.13,0,0,0-1.44-.08c-.24,0-.27.08-.07.23a5.5,5.5,0,0,0,.89.54,4.12,4.12,0,0,1,.68.42l.66.46a.1.1,0,0,1,.06.09v.36a.21.21,0,0,0,0,.12.45.45,0,0,1,0,.66.15.15,0,0,1-.1,0,11.13,11.13,0,0,1-1.91-.44c-.63-.31-1.26-.6-1.89-.88a1.89,1.89,0,0,0-.95-.16c-.12,0-.15,0-.1-.15s0-.23-.14-.31a1.39,1.39,0,0,1-.49-.48.26.26,0,0,1,0-.3,2.15,2.15,0,0,1,.61-.55.11.11,0,0,1,.11,0l.22.12a.27.27,0,0,0,.12,0l3.6-.31s.05,0,0-.06c-.25-.36-.51-.7-.77-1a3.17,3.17,0,0,1-.44-.68,2.4,2.4,0,0,1-.11-.82.14.14,0,0,0-.1-.13,1.15,1.15,0,0,0-.94.19c-.43.29-.85.59-1.25.92q-3.42,2.81-6.71,5.75a2.91,2.91,0,0,1-.55.36.08.08,0,0,1-.1,0l-.16-.26a.11.11,0,0,1,0-.12.34.34,0,0,0-.07-.46.44.44,0,0,1-.18-.4,4.67,4.67,0,0,1,.65-2.09.41.41,0,0,0,0-.19,9.26,9.26,0,0,1,.1-1.84.49.49,0,0,1,.11-.23Zm12.13-5.68s-.17,0-.37,0-.37.09-.36.12a.79.79,0,0,0,.37,0c.21,0,.37-.08.36-.11Zm-2,3.31c0,.07,0,.12.06.17a.16.16,0,0,0,.12,0,2.63,2.63,0,0,0,1.2-.51c.06,0,.05-.07,0-.07a1.8,1.8,0,0,0-1.26.28.21.21,0,0,0-.1.11Zm-8.74.94a1.3,1.3,0,0,0-.48.65,6,6,0,0,0-.11,3.08.08.08,0,0,0,.14.05l2.75-2.29a.06.06,0,0,0,0-.09,3.25,3.25,0,0,1-.81-1s0-.13-.11-.35a.46.46,0,0,0-.26-.3.79.79,0,0,0-.51,0,1.84,1.84,0,0,0-.61.27Zm6.16,3.1c-.05,0-.06,0,0,0a.68.68,0,0,0,.46.08c.19,0,.22-.06.1-.1A1.82,1.82,0,0,0,179.05,27.28Z"/><path class="cls-2" d="M181.59,38.17a.92.92,0,0,1-.66-.27,3.17,3.17,0,0,1-.46-.92,1.88,1.88,0,0,0-.63-.87.11.11,0,0,0-.11,0l-.6.15c-.21.05-.25,0-.13-.16l.26-.33a.09.09,0,0,0,0-.1,1,1,0,0,0-.71-.42.14.14,0,0,0-.12.07c-.18.56-.37,1.11-.56,1.67a7.6,7.6,0,0,1-.56,1.23,6.17,6.17,0,0,1-.51.83,1.47,1.47,0,0,1-.92.45.39.39,0,0,1-.37-.15,3.17,3.17,0,0,1-.47-.84,1.28,1.28,0,0,0-.11-.2,8.09,8.09,0,0,0-.87-1.05,1.16,1.16,0,0,0-.43-.25,2,2,0,0,1-.61-.38c-.21-.2-.38-.37-.49-.5a1.73,1.73,0,0,1-.41-1.11.24.24,0,0,1,.07-.18,3.28,3.28,0,0,1,.92-.59,7.57,7.57,0,0,1,2.84-.55,12.39,12.39,0,0,0,1.34-.13.2.2,0,0,0,.16-.12,7.7,7.7,0,0,0,.63-2.05.06.06,0,0,0-.05-.08,15.23,15.23,0,0,1-2.57-1,.29.29,0,0,1-.17-.34,1.53,1.53,0,0,1,.66-1.13.86.86,0,0,1,.66-.13s0,0,0,0a.31.31,0,0,0-.09.36.49.49,0,0,1,0,.12.28.28,0,0,0,.17.33l.17.07a4.1,4.1,0,0,0,2.18.61.72.72,0,0,0,.5-.2c.21-.19.39-.2.56,0a1.83,1.83,0,0,0,.16.16,2.44,2.44,0,0,0,.94.5.23.23,0,0,1,.1.07,1.65,1.65,0,0,0,.6.41.47.47,0,0,1,.34.44,2.6,2.6,0,0,1,0,.4.34.34,0,0,1-.32.32,2.26,2.26,0,0,1-.88-.12c-.69-.19-1.39-.39-2.09-.62a.11.11,0,0,0-.14.11l0,2a.3.3,0,0,0,.21.28c.39.14.8.28,1.23.41a2.23,2.23,0,0,1,1.24.93c.4.64.66,1,.76,1.25a2.4,2.4,0,0,1,.23,1.14.87.87,0,0,1-.13.49.7.7,0,0,1-.52.25c-.15,0-.22-.05-.24-.15a.06.06,0,0,0-.06-.06Zm-8-2.14a7.8,7.8,0,0,0,.94.69,1,1,0,0,0,.54.15l.43,0a.66.66,0,0,0,.68-.46c.2-.43.43-.89.69-1.39.11-.2,0-.32-.17-.35a4.42,4.42,0,0,0-2.92.64.81.81,0,0,0-.28.27.36.36,0,0,0,.09.43Zm0-.86c-.12.15-.1.16.07,0a.11.11,0,0,0,0-.1S173.7,35.09,173.64,35.17Z"/><path class="cls-2" d="M129.6,23.31a.31.31,0,0,0,.17.42.68.68,0,0,0,.23.32c.15.09.16.18,0,.28a.08.08,0,0,0,0,.11c.12.32,0,.44-.31.35a17.41,17.41,0,0,1-3.8-1.48.87.87,0,0,0-.69,0,.19.19,0,0,0-.13.1c-.06.08,0,.15.12.18s.15.07.11.14a.09.09,0,0,1-.09.05.52.52,0,0,0-.53.33.31.31,0,0,1-.08.1l-.48.4a.1.1,0,0,1-.1,0,.49.49,0,0,0-.36,0c-.19.05-.23,0-.13-.25s0-.22-.16-.31a.14.14,0,0,1-.06-.12c0-.28-.16-.46-.56-.53a2,2,0,0,1-.66-.25,1.3,1.3,0,0,0-.47-.07s0,0,0,0a1.65,1.65,0,0,1,.58-.39q.31-.12-.06-.33c-.2-.11-.19-.15,0-.13l.09,0a1.13,1.13,0,0,0,.61.14c.44-.09.5-.18.16-.27L122.8,22a4.64,4.64,0,0,0-1-.32,4.1,4.1,0,0,1-1.08-.4.13.13,0,0,1,0-.2,1.87,1.87,0,0,1,1.19-.43,7.62,7.62,0,0,1,.83.09.17.17,0,0,0,.12,0,.27.27,0,0,1,.27,0l.16.06.56.15c.18.05.27,0,.26-.21a1.08,1.08,0,0,1,.11-.61l.12-.22a6.31,6.31,0,0,0,.44-1.31.15.15,0,0,0-.06-.17,4.37,4.37,0,0,0-.42-.28,3,3,0,0,0-.49-.12,1,1,0,0,1-.51-.27,1.19,1.19,0,0,1-.28-.48,3.82,3.82,0,0,1-.19-1.54c0-.35,0-.71.08-1.06a.17.17,0,0,0-.23-.18,3.17,3.17,0,0,0-1.67,1.2l-.7,1a1.63,1.63,0,0,0-.29.68.13.13,0,0,0,.06.14.49.49,0,0,1,.24.69,2,2,0,0,0,0,.44.12.12,0,0,1,0,.1,5.21,5.21,0,0,1-1.15.46.37.37,0,0,0-.28.26c-.1.33-.19.66-.29,1a1.54,1.54,0,0,1-.09.22.43.43,0,0,0,.12.52l.14.11a4,4,0,0,1,.76,1.22,2.05,2.05,0,0,0,.38.56.21.21,0,0,1,.06.1l.25,1a.09.09,0,0,0,.08.06,8,8,0,0,1,1.07.1,5,5,0,0,0,1.26.06.6.6,0,0,1,.62.36.24.24,0,0,0,.09.08l.39.23a.17.17,0,0,1,.06.1c0,.22,0,.37-.17.44a.68.68,0,0,1-.43,0,2.83,2.83,0,0,0-.5,0,.27.27,0,0,1-.12,0,1,1,0,0,0-.49-.15,6.09,6.09,0,0,1-1.28-.19.17.17,0,0,1-.1-.07l-.3-.42c-.12-.18-.18-.16-.16.06a12.17,12.17,0,0,1,0,2.26.15.15,0,0,0,.18.16q2.7-.64,5.36-1.11a8.75,8.75,0,0,0,1.21-.28,3,3,0,0,1,.77-.13,10.69,10.69,0,0,1,1.53.06.22.22,0,0,1,.2.22.09.09,0,0,0,.06.07l.9.2a.06.06,0,0,1,.05.08.72.72,0,0,1-.46.62,4.47,4.47,0,0,1-1.92.13,6.18,6.18,0,0,0-2,0,7.81,7.81,0,0,1-1.45.2.82.82,0,0,0-.25.06.84.84,0,0,1-.24.06,5.32,5.32,0,0,0-.89.14l-.74.18c-.87.18-1.74.38-2.6.61a.3.3,0,0,0-.11.06,1.09,1.09,0,0,1-.68.23,6.85,6.85,0,0,0-1.2.21c-1.55.36-3.1.75-4.64,1.16q-.93.24-1.89.39a.11.11,0,0,1-.11,0,1.62,1.62,0,0,1-.55-.81.3.3,0,0,1,.17-.35.14.14,0,0,1,.11,0,1.77,1.77,0,0,0,.31.15.68.68,0,0,0,.32,0c.5-.07,1.27-.24,2.3-.49,1.41-.34,2.57-.64,3.49-.91.07,0,.08,0,.05-.07a.07.07,0,0,0-.06,0c-.75-.11-1.5-.26-2.23-.44,0,0,0,0,0,0s.15-.18,0-.22a.11.11,0,0,0-.12,0c-.15-.17-.28-.18-.4,0a.22.22,0,0,1-.09.08.64.64,0,0,1-.87-.28c-.14-.22-.28-.44-.41-.66a1.84,1.84,0,0,1-.31-.92c0-.08,0-.09,0,0s-.06.13-.1.14-.08,0-.11-.08a1.52,1.52,0,0,1-.14-.49.12.12,0,0,1,.11-.13l.93,0a.16.16,0,0,1,.1,0l.42.45a.26.26,0,0,0,.38,0,3.08,3.08,0,0,0,1.11-1.37s0-.07,0-.07a.46.46,0,0,1-.33-.26.14.14,0,0,1,0-.11.31.31,0,0,0-.14-.36.38.38,0,0,1-.22-.29.17.17,0,0,0-.07-.1.77.77,0,0,1-.39-.57,1.1,1.1,0,0,1,.21-.58,22.1,22.1,0,0,0,1.15-2.17c0-.06,0-.07,0-.05l-.8.29-.82.2a3.94,3.94,0,0,0-.88.31,1.84,1.84,0,0,1-.72.22.12.12,0,0,1-.11,0,.56.56,0,0,1-.07-.73.69.69,0,0,0,0-.67q-.15-.33.21-.33a2.62,2.62,0,0,0,2.07-.83l.6-.66a1.79,1.79,0,0,0,.43-1.49c0-.27-.18-.36-.44-.29a.52.52,0,0,1-.66-.27.69.69,0,0,0-.16-.22.29.29,0,0,1,0-.4,6.81,6.81,0,0,1,.41-.63s.11-.15.31-.45a1.89,1.89,0,0,1,1-.73l.33-.14a.46.46,0,0,1,.57.16,1.62,1.62,0,0,0,.91.49c.36.07.73.14,1.1.19a.13.13,0,0,1,.09.07c0,.09.09.19.14.29a1.22,1.22,0,0,0,.18.26,1.15,1.15,0,0,1,.32.59.76.76,0,0,1-.22.75.82.82,0,0,1-.42.19l-.46.11s-.09,0-.1.07l-.35.65a.21.21,0,0,0,.1.28,1.73,1.73,0,0,0,1.09.21.11.11,0,0,0,.1-.06,10.66,10.66,0,0,0,.69-1.11,5.41,5.41,0,0,1,1.09-1.45,4.84,4.84,0,0,1,.45-.35,2.31,2.31,0,0,0,.44-.37,5.22,5.22,0,0,1,.88-.94.18.18,0,0,1,.12,0,10.49,10.49,0,0,1,2.28.49.62.62,0,0,1,.36.35c.05.12.1.27.16.45a.72.72,0,0,1-.22.79,1.24,1.24,0,0,1-.46.21.91.91,0,0,0-.66.8.11.11,0,0,1-.17.08.16.16,0,0,0-.25.05.52.52,0,0,1-.36.29.25.25,0,0,0-.25.34c.08.44.4.51.94.21a.53.53,0,0,1,.49,0l.2-.05a.23.23,0,0,1,.12,0,7.31,7.31,0,0,0,.93.43,7.61,7.61,0,0,1,1.69.72.18.18,0,0,1,.08.2.54.54,0,0,0,.08.42.75.75,0,0,1,.12.68,1.22,1.22,0,0,1-.41.48,5.35,5.35,0,0,1-.64.41c-.22.12-.28.23-.17.35a.28.28,0,0,1,.08.22c0,.09-.05.14-.12.12s-.1-.08-.13-.22a.07.07,0,0,0-.1,0,.26.26,0,0,0-.15.31.11.11,0,0,0,.08.08c.25.08.27.22.08.42a.17.17,0,0,0-.06.1,1.85,1.85,0,0,1-.31.59s0,.09,0,.11a12.39,12.39,0,0,1,3,1.26.56.56,0,0,1,.24.24Zm-13.35-6.15c0-.05-.23,0-.43.14s-.35.27-.31.33.22,0,.42-.14.35-.28.32-.33Zm7.61.19c0-.05-.07-.16-.22-.25s-.3-.12-.32-.07.07.16.22.25.29.12.32.07Zm-.12.27-.41-.26s-.08,0-.1,0a.06.06,0,0,0,0,.09.8.8,0,0,0,.49.25c.08,0,.09,0,0-.07Zm-6.42,2.56-.08.1c-.09.1,0,.18.17.24a.23.23,0,0,0,.25-.12c.17-.37.31-.7.42-1a.15.15,0,0,0,0-.09c0-.12,0-.12-.14,0a9.31,9.31,0,0,0-.64.89Zm7.08.79s.18-.13.3-.35.18-.42.14-.45-.18.14-.3.36-.18.42-.14.44Zm-7.51.61s0,0,0,0l-.07,0s0,0,0,0l-.7,1.33a0,0,0,0,0,0,.05l.06,0s0,0,.06,0l.69-1.33Zm8.18-.83A2.76,2.76,0,0,1,125,21c-.09.26-.06.33.08.2a.16.16,0,0,0,.05-.11l.08-.35s0-.08,0-.08a.08.08,0,0,0-.09.07Zm-7.87,1.68a17,17,0,0,0-1,2.05,6.2,6.2,0,0,1-.49,1c-.2.3-.41.6-.63.89a.06.06,0,0,0,0,.1l.67.27a2.29,2.29,0,0,0,.69.14q.67,0,1.44,0a.54.54,0,0,0,.48-.29,1.86,1.86,0,0,0,.2-.68c0-.15,0-.38,0-.71a6.41,6.41,0,0,0-.57-2.55,1.12,1.12,0,0,0-.18-.28,2.73,2.73,0,0,0-.23-.25.12.12,0,0,0-.17,0,2,2,0,0,0-.24.33Zm9.22-1.53a1.33,1.33,0,0,1-.21.33.36.36,0,0,0,0,.09q0,.2.15,0a.56.56,0,0,0,.18-.44c0-.09,0-.1-.08,0Zm-2.94,5.72a.05.05,0,0,0,0,0l-2.82.67s0,0,0,0v.05s0,0,0,0l2.82-.67s0,0,0,0v0Zm2.34.06a5.48,5.48,0,0,0-1.53.25,2.21,2.21,0,0,0,.78-.06,2.19,2.19,0,0,0,.75-.19Zm-2.95.56-.25,0a12.33,12.33,0,0,0-2.33.51c-.22.07-.21.08,0,.05a20.86,20.86,0,0,0,2.33-.51.63.63,0,0,0,.3-.07c.3-.06.59-.11.89-.15l.06,0c.13-.05.11-.08-.07-.07A2.75,2.75,0,0,0,122.87,27.24Z"/><path class="cls-2" d="M129.6,23.31a.1.1,0,0,0,.09.06.29.29,0,0,0,.14.29.11.11,0,0,1-.06.07A.31.31,0,0,1,129.6,23.31Z"/><path class="cls-2" d="M129.69,23.37c.15,0,.24.09.25.21s0,.11-.11.08A.29.29,0,0,1,129.69,23.37Z"/><path class="cls-2" d="M115,27a.11.11,0,0,1,.12,0,.18.18,0,0,0,0,.22s0,0,0,0A.29.29,0,0,1,115,27Z"/><path class="cls-2" d="M125,29.29a.07.07,0,0,1,0,.05,3.19,3.19,0,0,1-.91.22,15.43,15.43,0,0,0-2,.32,7,7,0,0,1-.76.15q-.36,0-.78.06a.47.47,0,0,1-.33-.14l-.5-.53a.1.1,0,0,1,0-.15,1.64,1.64,0,0,1,.4-.19,2.7,2.7,0,0,1,.44-.07,10,10,0,0,0,2.24-.43,1.07,1.07,0,0,0,.29-.2.16.16,0,0,1,.11-.05,4.79,4.79,0,0,1,1.07,0,.51.51,0,0,0,.19,0,.18.18,0,0,1,.19.16.1.1,0,0,0,.06.09l.26.11a.11.11,0,0,1,.09.07A.78.78,0,0,1,125,29.29Z"/><path class="cls-2" d="M122.1,35.2c.07.31.13.63.18.94a2.83,2.83,0,0,0,.42,1,.9.9,0,0,1,.09.85.16.16,0,0,1-.17.11,1.19,1.19,0,0,1-.75-.28,10.17,10.17,0,0,1-1-1A3.86,3.86,0,0,1,120,35c-.07-.39-.14-.77-.22-1.15a1.84,1.84,0,0,1,0-.7c0-.31.11-.61.18-.92a.33.33,0,0,1,.14-.22c.18-.13.16-.25,0-.38s-.28-.35,0-.56a.84.84,0,0,1,.6-.16,1.45,1.45,0,0,0,1.33-.59.79.79,0,0,1,.34-.3.47.47,0,0,1,.45.14.16.16,0,0,0,.1.05l1,.08a.12.12,0,0,1,.1,0,.64.64,0,0,0,.5.23.84.84,0,0,1,.34,0c.15.1.17.24,0,.43a.09.09,0,0,0,0,.1.11.11,0,0,1-.06.17l-.12.05a1.74,1.74,0,0,1-.57.24q-1.64.24-2.43.39a.84.84,0,0,0-.4.17,1.61,1.61,0,0,0-.32.29.48.48,0,0,0,0,.56l.56,1a.11.11,0,0,0,.15,0,3.78,3.78,0,0,1,1-.39,1.17,1.17,0,0,0,.48-.21c.23-.17.46-.33.7-.48a.73.73,0,0,1,.74,0,2.3,2.3,0,0,0,.49.15,2.3,2.3,0,0,1,.49.14c.6.26,1,.41,1.12.45a.7.7,0,0,1,.49.47,2.72,2.72,0,0,0,.27.54.09.09,0,0,1,0,.1,2.08,2.08,0,0,1-.93.71.1.1,0,0,0,0,.15.26.26,0,0,1,0,.29c0,.09-.08.13-.08.14l-.24.58a.09.09,0,0,0,0,.12,4.57,4.57,0,0,0,.67.28l.15,0a.38.38,0,0,1,.3.39.12.12,0,0,1,0,.1,2.78,2.78,0,0,1-1.1.45c-.17,0-.69,0-1.55,0l-.28,0A.43.43,0,0,1,124,38a.27.27,0,0,0-.1-.06A1.15,1.15,0,0,1,123,36.7a1.06,1.06,0,0,1,.46-.91,1,1,0,0,0,.45-.9.11.11,0,0,0-.06-.09,1,1,0,0,0-.7,0,9.84,9.84,0,0,0-1,.33.07.07,0,0,0,0,.08Zm-1.26-3.09c0-.06-.08-.06-.13,0a.09.09,0,0,0,0,.11c0,.08.09.08.14,0a.11.11,0,0,0,0-.11ZM125.93,36a.57.57,0,0,0-.13.27s0,.05,0,0A.31.31,0,0,0,126,36a.63.63,0,0,1,.09-.33l0-.08c0-.13,0-.15-.11,0l0,.08C126,35.72,126,35.84,125.93,36Z"/><path class="cls-2" d="M274.27,95.91a8.75,8.75,0,0,1,.88.23,2.61,2.61,0,0,1,.74.34c.29.19.6.4.91.63a.43.43,0,0,0,.33.07c.23-.05.26-.15.08-.31a5,5,0,0,0-1.93-1c-.41-.1-.68-.18-.81-.22-.38-.14-.64-.24-.78-.31a.92.92,0,0,0-.7-.08.22.22,0,0,0-.17.07l-.14.2a.05.05,0,0,0,0,.08c.26.08.39.23.38.45a2.17,2.17,0,0,0,.05.59.41.41,0,0,1-.1.35,1.29,1.29,0,0,0-.34.87.11.11,0,0,0,0,.09,6.2,6.2,0,0,0,1.1,1,13.07,13.07,0,0,1,1.3,1.27,2,2,0,0,0,.29.24c.2.15.31.22.31.23a.56.56,0,0,0,.46,0q.12,0,.06.06a.13.13,0,0,0,0,.19l.07,0,.63.48a.17.17,0,0,1,.06.18,1.14,1.14,0,0,0,.14.83.63.63,0,0,1,.09.38c0,.37,0,.76-.08,1.18v.16a.8.8,0,0,1-.21.51.07.07,0,0,1-.09,0,12.46,12.46,0,0,0-3.41-1.31c-.07,0-.08,0,0-.08a.22.22,0,0,1,.16,0,2.66,2.66,0,0,0,1.41.07q.24-.06-.09-.09a.38.38,0,0,1-.19-.06l-1.1-.54a.21.21,0,0,1-.14-.24.2.2,0,0,0-.18-.23.19.19,0,0,1-.09,0l-.41-.43-.08,0a1,1,0,0,1-.42-.16l-.34-.22a5,5,0,0,1-.81-.63c-.56-.55-.62-.45-.16.27a1.49,1.49,0,0,1,.26.67,7.53,7.53,0,0,1,0,1.5,1,1,0,0,1-.09.34c-.1.17-.25.16-.45,0a.14.14,0,0,0-.16,0,.34.34,0,0,1-.21.06.28.28,0,0,1-.17-.1,2.13,2.13,0,0,1-.59-1.2,1,1,0,0,0-.12-.4.08.08,0,0,1,0-.08.15.15,0,0,0,0-.2l-.1-.07a7.3,7.3,0,0,0-.88-.7.13.13,0,0,1-.06-.07.38.38,0,0,0-.21-.25l-.23-.1a10.51,10.51,0,0,0-2.1-1,.63.63,0,0,0-.27,0h-.28s-.05,0,0,.07a5.93,5.93,0,0,0,.44.71c.52.73,1.06,1.47,1.6,2.2l.24.35a3,3,0,0,0,.4.47,1.09,1.09,0,0,0,.41.24,3.76,3.76,0,0,1,.79.36.87.87,0,0,1,.31.32l.23.41a.11.11,0,0,1,0,.1,3.72,3.72,0,0,0-.19,1.25c0,.22,0,.33,0,.34a1.83,1.83,0,0,1-.92,1.62.77.77,0,0,1-.56.13,2.19,2.19,0,0,1-.51-.21,1.93,1.93,0,0,1-.54-.41,3.08,3.08,0,0,1-.27-.42,1.13,1.13,0,0,0-.5-.47c-.54-.25-1-.49-1.38-.71a4.57,4.57,0,0,0-.46-.25,3,3,0,0,1-.47-.25.13.13,0,0,1-.06-.07s0,0,.11,0a.24.24,0,0,1,.09.06,1.69,1.69,0,0,0,.58.3,2.64,2.64,0,0,1,.5.18c.31.16.63.32.94.46.12.06.13,0,0,0a1.32,1.32,0,0,0-.29-.19q-.89-.37-1.74-.81a15.79,15.79,0,0,0-1.9-.79,1.07,1.07,0,0,0-.4-.11.67.67,0,0,0-.38-.15.2.2,0,0,0-.13-.11h0c-.06,0,0-.06.05,0,.37.08.73.18,1.09.29q.31.11,1,.42c.36.15.73.3,1.11.43a1.36,1.36,0,0,1,.32.16l.28.15s0,0,0,0a.88.88,0,0,0-.41-.4,10.62,10.62,0,0,0-1.27-.55.08.08,0,0,0-.08,0c-.07,0-.11,0-.13,0a.11.11,0,0,0-.06-.07,7.21,7.21,0,0,0-1.49-.55l-.3-.06a2.47,2.47,0,0,1-.67-.24c-.12-.06-.13-.11,0-.16l.12,0a.13.13,0,0,0,.11-.08s0,0,0-.06l-.38-.16a.17.17,0,0,0-.1,0l-.27,0a.07.07,0,0,0,0,.06c0,.16,0,.2-.08.11a.94.94,0,0,0-.61-.27.93.93,0,0,1-.51-.14.08.08,0,0,1,0-.07l0-.19a.12.12,0,0,0-.06-.08l-.38-.15a.11.11,0,0,1,0-.18.55.55,0,0,1,.71,0,.14.14,0,0,0,.09,0l1.83.12a14,14,0,0,1,3.49.74c.51.18,1,.33,1.56.46.15,0,.19,0,.11-.14a13.46,13.46,0,0,0-.79-1.22c-.31-.41-.56-.77-.77-1.09s-.55-.79-.86-1.17l-.27-.28a.77.77,0,0,1-.23-.66.22.22,0,0,1,.24-.22,2.76,2.76,0,0,0,.49-.07,3.36,3.36,0,0,1,.5-.06,1.64,1.64,0,0,1,.68.21l.22.17a.46.46,0,0,0,.26.1,1.47,1.47,0,0,1,.26,0,26.49,26.49,0,0,1,3.52,1.7c.1.06.15,0,.14-.08l0-.46s0-.11,0-.31a.65.65,0,0,1,.07-.44.55.55,0,0,0,.06-.51q-.06-.21.09-.06a3.22,3.22,0,0,0,.25.23c.05,0,.1,0,.13,0s.06-.06.09,0a1,1,0,0,0,.11.24l.11.25a1.11,1.11,0,0,0,.53.54l.43.21a3,3,0,0,0,1.22.4.83.83,0,0,1,.21.06,5.52,5.52,0,0,0,1.75.46c.11,0,.13,0,.07-.12a3.86,3.86,0,0,0-.56-.69c-.44-.42-1-.94-1.8-1.57a.37.37,0,0,0-.31-.09.1.1,0,0,1-.09,0,.36.36,0,0,1-.1-.14,1.13,1.13,0,0,0-.06-.16,3.07,3.07,0,0,0-.29-.34s-.1-.12-.28-.35a1,1,0,0,0-.67-.37.14.14,0,0,1-.08-.05,3.1,3.1,0,0,0-.89-.88c-.14-.08-.2-.18-.18-.29s.07-.15.18-.23a1.67,1.67,0,0,1,.68-.3,1.6,1.6,0,0,1,.51,0,4.36,4.36,0,0,0,.51,0l.32,0a1.06,1.06,0,0,0,.58-.14c.09-.05.08-.09,0-.11a.67.67,0,0,0-.37,0,.62.62,0,0,1-.59,0c-.07,0-.06-.09,0-.11s.09,0,.07-.09a.17.17,0,0,0-.06-.06.33.33,0,0,1-.17-.16.13.13,0,0,0-.13-.09,4.27,4.27,0,0,1-1-.09l-.46-.1a25.7,25.7,0,0,0-3.39-.4s0,0-.06,0,0,0,.07-.06a2.49,2.49,0,0,1,.86,0c.32.06,1.17.16,2.55.31a.31.31,0,0,0,.23,0,.44.44,0,0,0,.15-.21.14.14,0,0,0-.11-.18l-1-.14a5.58,5.58,0,0,1-.71-.13,3.73,3.73,0,0,0-.67-.09s0,0,0,0a5.62,5.62,0,0,1,1.56.12.44.44,0,0,0,.34,0h.08a.33.33,0,0,0,.19.06.22.22,0,0,0,.16,0,.31.31,0,0,0,.18-.16.22.22,0,0,1,.06-.07c.13-.1.12-.15,0-.16l-.12,0a6.53,6.53,0,0,0-.87-.13l-.88-.09a8.93,8.93,0,0,0-1.16-.05,1.08,1.08,0,0,0-.41.09,1.49,1.49,0,0,0-.35.27.33.33,0,0,1-.29.12,1.7,1.7,0,0,0-1,.24.68.68,0,0,1-.3.11l-.32.06c-.48.14-1,.28-1.43.4s-1.08.29-1.43.41c-.78.27-1.55.55-2.31.86a18.86,18.86,0,0,0-2.81,1.4,3.44,3.44,0,0,0-.53.42,2.74,2.74,0,0,1-.43.34l-.31.2a1.37,1.37,0,0,0-.3.21,5.46,5.46,0,0,1-1.26.79.07.07,0,0,1-.07,0,.18.18,0,0,0-.3-.06.12.12,0,0,1-.08,0H252c-.15,0-.19-.07-.11-.21a1.47,1.47,0,0,0,.16-.76,1,1,0,0,1,.05-.38,3.28,3.28,0,0,1,.72-1c.2-.21.41-.42.62-.62l.53-.51a6.54,6.54,0,0,0,.64-.72.63.63,0,0,1,.28-.21,4.32,4.32,0,0,0,.64-.34,8.53,8.53,0,0,1,1.81-.91q.38-.14,1.92-.6c.73-.22,1.58-.44,2.57-.68.8-.2,1.44-.33,1.92-.41l.62-.11c1.71-.32,3.11-.63,4.22-.94a4.52,4.52,0,0,1,1-.19.09.09,0,0,1,.08,0,.41.41,0,0,0,.23.13l.08.05a1.06,1.06,0,0,1,.15.56.2.2,0,0,0,.11.17,2.73,2.73,0,0,1,.38.23L271,92a1.63,1.63,0,0,0,.57.17,1.48,1.48,0,0,0,.58,0,4.79,4.79,0,0,0,.9-.31.19.19,0,0,0,.1-.29,11.06,11.06,0,0,0-1.09-1.83,4.55,4.55,0,0,1-.58-.93,2.34,2.34,0,0,1-.06-1.34.3.3,0,0,1,.33-.25,1.28,1.28,0,0,1,.76.31A2.19,2.19,0,0,1,273,88c.17.23.31.4.4.5.27.28.55.55.84.82a.35.35,0,0,0,.26.09,1.3,1.3,0,0,1,.94.34.69.69,0,0,0,.38.13.15.15,0,0,1,.09,0,1.91,1.91,0,0,1,.49.61,1.8,1.8,0,0,1,.13.69c0,.2,0,.4,0,.6a3.25,3.25,0,0,0,.09.59l.15.65a1.93,1.93,0,0,1,.07.61,1.1,1.1,0,0,1-.27.59.3.3,0,0,0-.09.32.42.42,0,0,0,.21.21c.53.31,1.05.64,1.57,1a3,3,0,0,1,.3.33q.13.17.27.36c.41.61.78,1.21,1.11,1.81a.38.38,0,0,1,0,.36.43.43,0,0,0,0,.41.22.22,0,0,1,0,.09l-.05.46a.2.2,0,0,1,0,.09.37.37,0,0,0,0,.31,1.87,1.87,0,0,1-.06,1.23.11.11,0,0,1-.07.06.3.3,0,0,1-.29-.08,4.29,4.29,0,0,1-.51-.81.39.39,0,0,0-.14-.17l-.12-.09a.4.4,0,0,1-.12-.1l-.49-.7a.41.41,0,0,1,0-.26.11.11,0,0,0,0-.08,5.1,5.1,0,0,1-.66-1,1.93,1.93,0,0,0-.73-.78,21.08,21.08,0,0,0-2.35-1.24Zm2.65.2a.59.59,0,0,1,.33.1c.19.14.21.1.07-.11,0,0,0,0,0,0a2,2,0,0,0,.95.1.16.16,0,0,1,.15.06c.1.1.15.15.17.12s0,0,0-.1a4.21,4.21,0,0,0-1.1-.88,10.5,10.5,0,0,0-1-.53.09.09,0,0,0-.09,0,.77.77,0,0,0-.28.34.08.08,0,0,0,0,.08c.33.19.65.4,1,.61.05,0,.05,0,0,0a1.69,1.69,0,0,1-.67-.27.75.75,0,0,0-.56-.13c-.14,0-.15.06,0,.11a1.12,1.12,0,0,1,.47.3,5.22,5.22,0,0,0,.88.63c.07.05.08,0,0-.07a3,3,0,0,0-.27-.35s0,0,0,0Zm-6.74-3.26.17-.11a.09.09,0,0,0,0-.11,1.71,1.71,0,0,0-.28-.52,1.57,1.57,0,0,0-.24-.23c-.13-.08-.25,0-.38.08a.52.52,0,0,1-.41.16.85.85,0,0,0-.68.25,2,2,0,0,1-.5.36l-.21.08a4.24,4.24,0,0,1-.77.3s0,0,0,0v0s0,0,.05,0c1,.08,1.95.18,2.93.29.16,0,.23-.1.22-.35a.32.32,0,0,1,.08-.27Zm-5.61,11.5a.51.51,0,0,0,.24.22.08.08,0,0,0,.08,0c.11-.09.19-.08.24,0l.08.16a.64.64,0,0,0,.45.25s.06,0,0,0a.14.14,0,0,0,0-.1.14.14,0,0,1-.05-.08.26.26,0,0,0-.27-.24.11.11,0,0,1-.08,0,2.14,2.14,0,0,0-.89-.53.07.07,0,0,0-.1.07.81.81,0,0,0,.08.27.07.07,0,0,0,.08,0h.07a.06.06,0,0,1,.07,0Zm-2.26-.92a1,1,0,0,0,.38.14c.11,0,.18,0,.2.13a.19.19,0,0,0,.14.16l1.05.37a0,0,0,0,0,.06,0,.32.32,0,0,0-.2-.41,6.26,6.26,0,0,0-1.2-.39,3.31,3.31,0,0,0-.83-.11s-.06,0-.05,0,0,0,.08,0h.28l.09,0Zm-1-1s0,0,0,0v0a0,0,0,0,0,0,0l-1.34-.16a0,0,0,0,0,0,0v0s0,0,0,0l1.35.15Zm.35.92s0-.13-.11-.2-.18-.09-.22,0,0,.13.11.2.19.09.22,0Zm-1.36-.55c-.07,0-.1,0-.09,0s0,0,.06,0S260.41,102.9,260.32,102.85Z"/><path class="cls-2" d="M274.13,95.86a7,7,0,0,0-1-.28.29.29,0,0,1-.31-.23.22.22,0,0,1,.17-.07.55.55,0,0,0,.48.08.1.1,0,0,1,.13.09.22.22,0,0,0,.19.21A.41.41,0,0,1,274.13,95.86Z"/><path class="cls-2" d="M272.78,101.9c0,.11,0,.12-.07,0a.11.11,0,0,1,0-.08s0,0,.06,0Z"/><path class="cls-2" d="M266.28,93.77s.13,0,.29,0,.29,0,.29.07-.14,0-.3,0S266.28,93.8,266.28,93.77Z"/><path class="cls-2" d="M264.61,110.68a.11.11,0,0,0-.08,0c-.06-.07-.13-.07-.22,0s-.11.07-.1,0a.1.1,0,0,1,.05-.07.53.53,0,0,0,.19-.17.1.1,0,0,1,.07,0s0,0,0,.08A.46.46,0,0,0,264.61,110.68Z"/><path class="cls-2" d="M264.61,110.68c0,.22-.1.32-.32.31a0,0,0,0,1,0,0,1,1,0,0,1,.27-.26A.11.11,0,0,1,264.61,110.68Z"/><path class="cls-2" d="M263.1,112.32s0,0,0,.06a.65.65,0,0,0-.39.29,2,2,0,0,1-.51.5.07.07,0,0,0,0,.06s0,0,.06,0l.05,0a2.23,2.23,0,0,0,.66-.55.08.08,0,0,1,.11,0c.16.09.28.1.37,0a.09.09,0,0,0,0-.11l.28,0a.39.39,0,0,1-.51.29s0,0,0,0c.31.16.53.06.67-.27a1.67,1.67,0,0,0,.32-.33,2.13,2.13,0,0,1,.27-.3l.3-.29c.06,0,.09-.06.09,0a.11.11,0,0,1,0,.08c-.2.21-.38.41-.56.63l-.41.38a1.92,1.92,0,0,0-.35.46,2.62,2.62,0,0,1-.8.83.08.08,0,0,0-.05.07.38.38,0,0,1-.24.28l-.26.1-1.22.67a.7.7,0,0,1-.39.09,3.15,3.15,0,0,1-.81-.16.53.53,0,0,1-.29-.19l-.14-.2a.81.81,0,0,0-.14-.19A.54.54,0,0,1,259,114a.69.69,0,0,0,0-.18l-.13-.56,0-.09a3.42,3.42,0,0,1-.27-.5,7.77,7.77,0,0,0-.33-.92,4.06,4.06,0,0,1-.27-.82,13.55,13.55,0,0,1-.17-1.49,1.44,1.44,0,0,1,0-.42l.08-.34c.07-.41.16-.92.3-1.54a3.85,3.85,0,0,1,.65-1.47.72.72,0,0,1,.33-.25c.24-.11.49-.23.72-.36a.35.35,0,0,1,.32,0,0,0,0,0,0,.06,0s.08-.05.1,0a.07.07,0,0,1,0,.09c-.12.33-.26.65-.41,1a7.61,7.61,0,0,0-.39,1,7.11,7.11,0,0,0-.23,2.26,8.94,8.94,0,0,0,.1,1,8.26,8.26,0,0,0,.22,1,2.42,2.42,0,0,0,1.09,1.43.73.73,0,0,0,.36.12.82.82,0,0,0,.35-.11c.32-.15.65-.32,1-.5a.06.06,0,0,1,.08,0,.21.21,0,0,0,.29-.06,7.4,7.4,0,0,1,.57-.55.27.27,0,0,1,.1-.06c.09,0,.12,0,.1.08a.19.19,0,0,1-.06.07,1.92,1.92,0,0,0-.42.37.12.12,0,0,0,0,.14Zm-.31.6s.07,0,.13-.06.08-.1.07-.12-.07,0-.12.06S262.78,112.9,262.79,112.92Z"/><path class="cls-2" d="M257.05,93c.09-.07.13-.07.11,0s0,0-.06.07C256.61,93.38,256.59,93.36,257.05,93Z"/><path class="cls-2" d="M263.83,112.51c-.14.33-.36.43-.67.27,0,0,0,0,0,0a.39.39,0,0,0,.51-.29Z"/><path class="cls-2" d="M62.58,51.2a18.52,18.52,0,0,0-1.85,2.1.15.15,0,0,0,0,.1.83.83,0,0,1-.18.44.74.74,0,0,1-.38.24A1.12,1.12,0,0,1,59,53.8a.94.94,0,0,1-.33-.73.84.84,0,0,1,.59-.71.17.17,0,0,1,.12,0,1,1,0,0,0,.81-.24,8.82,8.82,0,0,0,1.87-2,.14.14,0,0,0,0-.16,13.89,13.89,0,0,0-1-1.77,2.46,2.46,0,0,0-.55-.57c-.83-.63-1.52-1.19-2.06-1.67a2,2,0,0,1-.58-1,5.45,5.45,0,0,1-.16-1,.75.75,0,0,1,.14-.51,1,1,0,0,1,.57-.35,2.63,2.63,0,0,0,.85-.39A4.22,4.22,0,0,1,60.47,42a2.47,2.47,0,0,1,.86,0,.18.18,0,0,0,.2-.11c.06-.16.12-.15.19,0a.12.12,0,0,0,.07.07,2.37,2.37,0,0,1,.61.42,1,1,0,0,1,.28.51,3.7,3.7,0,0,1,.07.66c0,.33-.09.34-.3,0-.05-.06-.09-.06-.11,0a1.46,1.46,0,0,0,.2,1.3s0,0,0,0a.59.59,0,0,1-.27-.14c-.07,0-.11,0-.11,0a.14.14,0,0,0,0,.06,2.18,2.18,0,0,1,.19.54,3.35,3.35,0,0,0,.7,1.29.08.08,0,0,0,.09,0,4.86,4.86,0,0,1,.91-.23,1.84,1.84,0,0,0,.62-.17,6.46,6.46,0,0,0,1.88-1.52,3.42,3.42,0,0,1,.82-.68A1.43,1.43,0,0,1,68,43.9a1.54,1.54,0,0,1,.74.17.59.59,0,0,1,.35.58.8.8,0,0,1-.37.69,23.24,23.24,0,0,0-2,1.34c-.23.18-.89.84-2,2a1.15,1.15,0,0,0-.28.39,2.39,2.39,0,0,0-.14.47.35.35,0,0,0,.07.34.31.31,0,0,1,.05.1l.11.59a.07.07,0,0,1,0,.08.52.52,0,0,0-.2.19l-.07.09a.13.13,0,0,0,0,.21.14.14,0,0,1,0,.1.5.5,0,0,1-.1.28.06.06,0,0,0,0,.08.35.35,0,0,1,.06.52.1.1,0,0,0,0,.1c.11.45.19.91.26,1.37a4.11,4.11,0,0,0,.2.76,6.84,6.84,0,0,1,.25,1.1.38.38,0,0,1,0,.19l-.2.4s0,.07-.07.07a.53.53,0,0,1-.39-.07,0,0,0,0,1,0-.07.63.63,0,0,0,.14-.79c-.61-1.31-1.21-2.62-1.8-3.95A0,0,0,0,0,62.58,51.2Z"/><path class="cls-2" d="M62.62,45.51c0,.08,0,.09-.07,0a.14.14,0,0,1,0-.09c0-.16,0-.16.09,0A.09.09,0,0,1,62.62,45.51Z"/><path class="cls-2" d="M76.27,59.24c-.07-.12-.14-.13-.24-.06s-.16.07-.14.17,0,0,0,0a.22.22,0,0,1-.07-.09c0-.14-.12-.2-.24-.19a.09.09,0,0,0-.06.07c0,.13-.13.14-.3,0a.19.19,0,0,0-.25,0,.34.34,0,0,1-.53.08.32.32,0,0,0-.16,0,2.4,2.4,0,0,1-.89,0,.31.31,0,0,0-.13,0c-.09,0-.09.07,0,.19l.29.28c.07.06.07.11,0,.14s-.07,0-.08.07l-.22.38a.12.12,0,0,1-.18,0c-.21-.18-.33-.14-.36.1a.05.05,0,0,1-.06.05,2.34,2.34,0,0,1-1.12-.62c-.06-.06-.25-.27-.57-.65a4.48,4.48,0,0,1-.5-.7,1.75,1.75,0,0,0-.57-.65.06.06,0,0,0-.09,0c-.25.25-.49.52-.72.79a1.33,1.33,0,0,1-.68.44.39.39,0,0,1-.26,0c-.19-.09-.25-.21-.17-.34a.26.26,0,0,0,0-.11l0-.29a.13.13,0,0,1,0-.1l.86-.93a.25.25,0,0,0,0-.38,3.8,3.8,0,0,0-.89-.76.68.68,0,0,0-.78,0,1.82,1.82,0,0,0-.35.41q-.14.19-.3.39a.13.13,0,0,1-.09.05c-.43,0-.62.23-.58.67a1.09,1.09,0,0,0,.44.65,1.89,1.89,0,0,1,.4.6,1.72,1.72,0,0,0,.24.34c.07.07.13.14.2.2a1.34,1.34,0,0,1,.16.23,4.72,4.72,0,0,0,.46.72q1,1.32,2.34,2.7a.44.44,0,0,1,.14.28.66.66,0,0,1-.13.32.07.07,0,0,0,0,.09.78.78,0,0,1,.21.5c0,.15-.1.22-.34.23a.51.51,0,0,0-.29.1.19.19,0,0,1-.18,0l-.16-.06a12.54,12.54,0,0,1-3.08-1.44,2.75,2.75,0,0,1-.7-.66,14.76,14.76,0,0,1-1.75-3c-.37-.85-.7-1.53-1-2.05-.19-.35-.13-.61.17-.77a1.66,1.66,0,0,1,.4-.17.79.79,0,0,1,.46.08,3.59,3.59,0,0,1,.89.49,1.17,1.17,0,0,0,.65.29.09.09,0,0,0,.09-.08,2.28,2.28,0,0,1,.17-.8,13.41,13.41,0,0,1,.68-1.37.29.29,0,0,0,0-.18l-.16-.72s0,0,0,0a.37.37,0,0,0,.36.15q.27-.06.09-.27c-.12-.16-.17-.28-.12-.36a.4.4,0,0,0,.06-.26c0-.52-.2-.84-.5-1a.15.15,0,0,1-.09-.06c-.13-.13-.18-.09-.18.11v.84s0,0,0,0a.82.82,0,0,1-.22-.93,6.12,6.12,0,0,1,.26-.7.47.47,0,0,1,.23-.23l.15-.1c.09-.06.16,0,.21,0a.2.2,0,0,0,.3.08,2.23,2.23,0,0,0,.41-.26l.33-.23a1.09,1.09,0,0,0,.39-.53c.09-.26.24-.3.46-.14s.33.06.56-.12c.08-.06.12,0,.12,0a.54.54,0,0,0,.11.37.15.15,0,0,1,0,.22.24.24,0,0,0-.06.09.73.73,0,0,0,.09.54.17.17,0,0,1,0,.1c0,.14.06.14.18,0,.8-.8,1.69-1.64,2.68-2.52a1.33,1.33,0,0,1,.56-.3,3.72,3.72,0,0,0,.5-.14,9.9,9.9,0,0,1,1.62-.53,1.14,1.14,0,0,1,.61,0,2.53,2.53,0,0,1,.88.45,7,7,0,0,0,1.5,1,.88.88,0,0,1,.38.29,3.16,3.16,0,0,1,.41.77.17.17,0,0,0,.09.11l.09,0a.23.23,0,0,1,.1,0c.22.24.43.48.64.73a.73.73,0,0,1,.17.34.15.15,0,0,0,0,.1l.79,1.22a2.74,2.74,0,0,1,.19.34c.27.59.52,1.23.77,1.93a1.8,1.8,0,0,1,.09.65,13.35,13.35,0,0,1-.24,1.78l-.21,1a2.48,2.48,0,0,1-.49.9.25.25,0,0,0,0,.28s0,0,0,.06l-.26.12-.1,0c-.19,0-.18-.08,0-.21a.1.1,0,0,0,.06,0c.12-.18.08-.2-.1,0a.46.46,0,0,0-.07.07,1.81,1.81,0,0,1-.74.67.21.21,0,0,1-.2,0c-.08-.07-.15-.08-.2,0s-.08.07-.09.07c-.34.17-.67.35-1,.54a.15.15,0,0,1-.11,0s0,0,0-.07a7.65,7.65,0,0,0,.79-.82l.09-.11c.09-.09.08-.14,0-.15a.11.11,0,0,0-.1,0,4.44,4.44,0,0,1-.8.63.14.14,0,0,1-.11,0c-.46-.22-.47-.26,0-.13h.09c.09,0,.11,0,.08-.08a.13.13,0,0,0-.1,0,1,1,0,0,1-.38-.13.71.71,0,0,0-.62,0h-.11a1,1,0,0,0-.69,0,.14.14,0,0,1-.11,0c-.09,0-.06-.08.09-.11l.61-.14c.11,0,.15-.08.12-.17a.1.1,0,0,0-.08-.06l-.25,0c-.05,0-.08,0-.08-.06s.05-.06.15-.07a.09.09,0,0,0,.07-.09c0-.14.06-.18.21-.13s.16,0,.09-.09a.55.55,0,0,0-.32-.22ZM67,53.93a1.34,1.34,0,0,0-.11.25c0,.15,0,.16.17,0s.45-.5.69-.74a.17.17,0,0,0,0-.11s0-.06-.07-.05a.15.15,0,0,0-.08.08c-.07.13-.15.14-.22,0a.38.38,0,0,1-.05-.14c0-.12-.09-.15-.16-.08a.32.32,0,0,0-.08.12,1,1,0,0,0-.12.51.11.11,0,0,1,0,.1Zm1.25-1.49c.12.05.16,0,.1-.11a.08.08,0,0,0-.09,0,.13.13,0,0,0-.06.07.08.08,0,0,0,0,.09Zm7.88,5.62a.33.33,0,0,0,.2.2.11.11,0,0,0,.1,0s0-.08-.06-.13-.11-.07-.11-.09a1.07,1.07,0,0,0,.45-.28,1.69,1.69,0,0,1,.32-.27,1.25,1.25,0,0,0,.31-.28,2.07,2.07,0,0,0,.4-1.48,5.86,5.86,0,0,0-2.16-3.93,4.53,4.53,0,0,0-.77-.55,1.27,1.27,0,0,0-1,0,20.14,20.14,0,0,0-2.28,1.15,4.28,4.28,0,0,0-.91.74,12,12,0,0,0-1.15,1.4,1.51,1.51,0,0,0-.18.36,1,1,0,0,0,0,.4,1.21,1.21,0,0,1,0,.38s0,0,0,0a2.2,2.2,0,0,1-.21-.81s-.05-.06-.09,0a3,3,0,0,0-.69.56.15.15,0,0,1-.09.06c-.1,0-.14.09-.12.17s0,.1.11.16a4.87,4.87,0,0,0,1.06.7.09.09,0,0,0,.12,0l.68-1a.16.16,0,0,0,0-.12.58.58,0,0,1,.21-.57,2.48,2.48,0,0,0,.5-.62,5.81,5.81,0,0,1,1-1.09.09.09,0,0,1,.09,0,.38.38,0,0,0,.36,0,0,0,0,0,1,.05,0l0,.16a.06.06,0,0,0,.06.06.71.71,0,0,0,.44-.17s0,0,0,0a.13.13,0,0,1-.09.1.23.23,0,0,0-.2.19c-.08.42-.17.79-.26,1.11a1.79,1.79,0,0,1-.37.66l-.26.31a9.38,9.38,0,0,1-1.11,1.18s0,0,0,.05a2.74,2.74,0,0,1,1.3.8,7.51,7.51,0,0,0,.62.5,1.13,1.13,0,0,0,.6.25.1.1,0,0,0,.09,0,.22.22,0,0,1,.34,0,.54.54,0,0,0,.77-.09.11.11,0,0,1,.1,0s0,.07,0,.17,0,.08.06.05a1.64,1.64,0,0,1,.73-.13,3.17,3.17,0,0,0,1-.16Zm1.32,1.34c-.34.2-.35.26,0,.15.08,0,.11-.07.09-.13a.8.8,0,0,0-.24-.39.14.14,0,0,0-.1,0c-.09,0-.1,0,0,.13l.29.28Zm.18-.31s0,0,.08,0,0,0,0-.09,0-.09-.11,0S77.59,59.07,77.61,59.09Z"/><path class="cls-2" d="M66.18,53.6s-.08-.08-.1-.19,0-.2,0-.21.07.08.09.19S66.21,53.59,66.18,53.6Z"/><path class="cls-2" d="M68.34,55.5s0,0,0,0,.3.24.42.32l.06.06c0,.06,0,.09,0,.1l-.08,0A1,1,0,0,1,68.34,55.5Z"/><path class="cls-2" d="M76.11,58.06l.13,0s0,0,.11.09.1.1.06.13a.11.11,0,0,1-.1,0A.33.33,0,0,1,76.11,58.06Z"/><path class="cls-2" d="M76,59.18c.1-.07.17-.06.24.06Q76,59.45,76,59.18Z"/><path class="cls-2" d="M77.49,59.42s0,0-.06,0l-.29-.28c-.09-.09-.08-.13,0-.13a.14.14,0,0,1,.1,0A.8.8,0,0,1,77.49,59.42Z"/><path class="cls-2" d="M77.63,59c.08-.06.12,0,.11,0s0,.08,0,.09-.06,0-.08,0S77.6,59,77.63,59Z"/><path class="cls-2" d="M77.43,59.4s0,0,.06,0,0,.11-.09.13C77.08,59.66,77.09,59.6,77.43,59.4Z"/><path class="cls-2" d="M22.28,94.82a1.08,1.08,0,0,1,.26-.31c.1-.09.18-.07.23,0l.15.37q.06.15.12,0c.13-.31.23-.32.29,0a.1.1,0,0,0,.06,0c.09,0,.14,0,.13.13a2.17,2.17,0,0,1-.22.78,26.9,26.9,0,0,0-1.12,2.86c0,.07-.1.29-.25.69-.08.23-.15.46-.21.7a.78.78,0,0,0,0,.43,2.54,2.54,0,0,0,.52.82c.28.3.57.6.86.89.05,0,.05.07,0,.06h0c-.65-.43-1.3-.85-1.95-1.29a.14.14,0,0,0-.09,0,1.15,1.15,0,0,0-.4.26,4.6,4.6,0,0,1-.92.74.37.37,0,0,1-.34,0,1.51,1.51,0,0,1-.59-.42.1.1,0,0,1,0-.09,8.2,8.2,0,0,1,0-2.1,1.45,1.45,0,0,0,0-.4,1.06,1.06,0,0,1,0-.47,1.5,1.5,0,0,1,.22-.4,8.81,8.81,0,0,0,.47-.77c.41-.78.83-1.55,1.27-2.31a.46.46,0,0,1,.13-.16c.07-.05.15,0,.23.07a.16.16,0,0,0,.26,0,2.42,2.42,0,0,0,.33-.31,1.67,1.67,0,0,0,.13-.25.91.91,0,0,1,.17-.23c.09-.08.14-.07.16.05l.08.53Q22.19,95,22.28,94.82Z"/><path class="cls-2" d="M28,99.23l.08.19c0,.06.05.1.13.13a.2.2,0,0,1,.13.16,4.59,4.59,0,0,0,.33,1.44s0,0,0,0,0,0,0,0a7.89,7.89,0,0,1-.08-.85.15.15,0,0,1,0-.09.7.7,0,0,0,.06-.35c0-.09,0-.11,0,0a2.26,2.26,0,0,1,.16,1,.16.16,0,0,0,0,.09,2.42,2.42,0,0,1,.32.69.28.28,0,0,0,0,.11c0,.09.1.09.13,0a.17.17,0,0,0,0-.1,13.72,13.72,0,0,1-.39-2v-.34A.93.93,0,0,0,29,99a1.47,1.47,0,0,1-.09-.29,20.11,20.11,0,0,1-.05-4,.34.34,0,0,0,0-.1.49.49,0,0,1-.05-.25,1.14,1.14,0,0,0-.05-.55q-.09-.27-.15.24a.17.17,0,0,1-.06.1.11.11,0,0,0,0,.18s0,.06,0,.09a.22.22,0,0,1-.17.19c-.15,0-.19,0-.11-.13a.68.68,0,0,0,.07-.57s0,0,0,0l-.06.21c0,.11-.07.14-.11.09a.15.15,0,0,1,0-.1,5.3,5.3,0,0,1,.1-1.12.16.16,0,0,0,0-.09,5.36,5.36,0,0,0-.4-.43.38.38,0,0,1-.1-.33.29.29,0,0,0,0-.09.26.26,0,0,1,0-.34.14.14,0,0,0,0-.09.57.57,0,0,1,.17-.31.12.12,0,0,0,0-.14.64.64,0,0,1,.08-.81.11.11,0,0,1,.08,0,.65.65,0,0,0,.49-.21,3.68,3.68,0,0,0,.65-.91.08.08,0,0,1,.13,0c.12.14.22.12.28,0s0-.12.05-.12a5.26,5.26,0,0,1,.46-.84c.08-.11.16-.13.27-.05a.65.65,0,0,1,.28.42s0,0,.06,0a.27.27,0,0,0,.25-.32.09.09,0,0,1,0-.08l.18-.12a0,0,0,0,1,.07,0,.37.37,0,0,1,0,.39.32.32,0,0,0,0,.09,5,5,0,0,1-.2,1.31q-.4,1.23-.72,2.49c0,.12-.05.23-.07.35a1.47,1.47,0,0,1-.08.35,2.65,2.65,0,0,0-.16.91,2.14,2.14,0,0,1-.23,1,.24.24,0,0,0,0,.09.46.46,0,0,1-.27.47.21.21,0,0,0-.1.14.6.6,0,0,1-.13.35.41.41,0,0,0-.05.09,2,2,0,0,0,0,.71s0,0,0,0a.27.27,0,0,0-.13.28c.06.5.12,1,.19,1.52l.1.39a1.41,1.41,0,0,1,0,.28,1.14,1.14,0,0,0,0,.28c.06.27.12.55.16.82a2.15,2.15,0,0,0,.14.57,3.71,3.71,0,0,0,.26.53c.09.15.12.13.09,0l-.21-1.43a.36.36,0,0,0,0-.09.26.26,0,0,1,0-.31,0,0,0,0,0,0,0c-.17,0-.19-.17,0-.41a0,0,0,0,1,.05,0,.8.8,0,0,1,.15.46.78.78,0,0,0,.06.34,1.57,1.57,0,0,1,.08.33,4.8,4.8,0,0,0,.51,1.62.6.6,0,0,0,.25.25l.29.16a1.62,1.62,0,0,1,.51.55,5.16,5.16,0,0,0,1,1.37A11.89,11.89,0,0,0,36,106.43a6,6,0,0,1,.54.26,1,1,0,0,0,.43.11l.14,0a.23.23,0,0,1,.19.06.13.13,0,0,0,.08,0l.11,0,.09,0a2.66,2.66,0,0,0,.77.29.13.13,0,0,1,.09,0l.83.73a.16.16,0,0,0,.09,0,.89.89,0,0,1,.28.07l.22.1q.69.25,1.38.54l.67.2a2.75,2.75,0,0,1,.45.17,2.14,2.14,0,0,0,.44.16,4.39,4.39,0,0,1,.87.27c.21.09.23.22.08.37a.62.62,0,0,1-.41.17.33.33,0,0,0-.13,0s0,.08,0,.13l.1,0c.17.07.23.17.17.31a1.09,1.09,0,0,1-.18.23,1,1,0,0,0-.2.36.06.06,0,0,1-.07,0,.4.4,0,0,0-.31.15.64.64,0,0,1-.5.26l-.42,0a2.88,2.88,0,0,1-.41,0A16,16,0,0,1,39,111a1.87,1.87,0,0,0-.45,0,1.66,1.66,0,0,1-.62-.11l-.58-.2a9,9,0,0,1-1.59-.6l-1.17-.56A29.87,29.87,0,0,1,31.67,108a2.83,2.83,0,0,1-.45-.33,5.07,5.07,0,0,0-.45-.33c-.69-.44-1.37-.88-2-1.33a14.45,14.45,0,0,0-1.64-1,11.45,11.45,0,0,0-1.8-.68,2.42,2.42,0,0,1-1.65-1.57,0,0,0,0,1,0,0,1.55,1.55,0,0,1,.48,0,1,1,0,0,0,.42,0,2.44,2.44,0,0,0,.46-.14,2,2,0,0,1,.46-.13c.65-.09,1.3-.2,1.94-.32l.32,0a.83.83,0,0,0,.32-.08.3.3,0,0,0,.15-.38,15,15,0,0,1-.7-5,.09.09,0,0,1,.05-.08c.13-.06.21,0,.22.15a6.82,6.82,0,0,1,0,1,.1.1,0,0,0,0,.09.79.79,0,0,1,.05.25A4.82,4.82,0,0,0,28,99.23Z"/><path class="cls-2" d="M28.63,89.52c-.14.07-.16.06-.06,0a.1.1,0,0,1,.07,0C28.7,89.46,28.69,89.49,28.63,89.52Z"/><path class="cls-2" d="M28.56,89.7s0,0,0,.07a.05.05,0,0,1-.07,0s0,0,0-.07A.1.1,0,0,1,28.56,89.7Z"/><path class="cls-2" d="M28,93.14a1.65,1.65,0,0,1,0,.76,1.72,1.72,0,0,1-.16.75,1.73,1.73,0,0,1,0-.76A2,2,0,0,1,28,93.14Z"/><path class="cls-2" d="M28,95.15h.09a.9.9,0,0,0,.38.25.06.06,0,0,1,.05.06c0,.18-.12.26-.31.23-.29-.3-.36-.29-.2,0l0,0a.58.58,0,0,0-.2.41.12.12,0,0,1,0,.08c-.11.1-.15.05-.12-.14s.09-.63.12-.95.07-.22.15,0S28,95.21,28,95.15Z"/><path class="cls-2" d="M30.94,88.13a.11.11,0,0,1-.1.13c-.07,0-.14,0-.15-.06s0-.12.1-.14S30.93,88.08,30.94,88.13Z"/><path class="cls-2" d="M28.09,95.14H28l.06-.27a.41.41,0,0,0,0-.1q-.06-.25.09-.21c.15.07.15.2,0,.4A.22.22,0,0,0,28.09,95.14Z"/><path class="cls-2" d="M28.21,95.68l0,0-.18,0C27.85,95.39,27.92,95.38,28.21,95.68Z"/><path class="cls-2" d="M28.17,96.64a.08.08,0,0,1-.08.06s-.08,0-.07-.06,0-.06.07-.06S28.17,96.61,28.17,96.64Z"/><path class="cls-2" d="M28,96.75s.09,0,.12.14,0,.16,0,.17S28,97,28,96.93,28,96.77,28,96.75Z"/><path class="cls-2" d="M28.09,97.62a.09.09,0,0,1-.1-.05s0-.09,0-.1a.09.09,0,0,1,.1,0A.08.08,0,0,1,28.09,97.62Z"/><path class="cls-2" d="M28.07,99.42,28,99.23a.21.21,0,0,0,.07-.12V99c0-.11.08-.13.14-.06a.12.12,0,0,1,0,.1A.54.54,0,0,1,28.07,99.42Z"/><path class="cls-2" d="M29.49,96.55l-.23-.19a.08.08,0,0,1,0-.1,3.49,3.49,0,0,0,.26-.35c.17-.29.27-.26.29.09a.14.14,0,0,1-.11.15c-.24.07-.24.14,0,.23a.06.06,0,0,1,0,.06l0,.29a.09.09,0,0,1,0,.08l-.18.09c-.08,0-.09,0-.05-.06a.58.58,0,0,0,.08-.22A.13.13,0,0,0,29.49,96.55Z"/><path class="cls-2" d="M43,93.8a.76.76,0,0,0,.09.18.06.06,0,0,1,0,.08c-.11.2-.27.23-.5.09a.87.87,0,0,1-.25-.36s0-.07-.06-.07-.06,0-.07.07a.65.65,0,0,0,0,.24.34.34,0,0,1,0,.1.5.5,0,0,0,.14.45,0,0,0,0,1,0,.06l-.32.19-.16.14a.5.5,0,0,1-.25.09.11.11,0,0,0-.08,0,.2.2,0,0,1-.21,0s-.06,0-.08-.06-.21-.14-.29,0l-.07.06-.29.15a.1.1,0,0,1-.09,0L40,95.18a.1.1,0,0,0-.09,0,1,1,0,0,1-.69,0,1.63,1.63,0,0,0-.42-.1,2.88,2.88,0,0,0-1,.18.6.6,0,0,0-.39.33,4.36,4.36,0,0,0-.28,1.58.07.07,0,0,0,.08.07,14.57,14.57,0,0,1,1.6-.31,5.39,5.39,0,0,1,1.39,0,6.36,6.36,0,0,1,1.33.38l2,.75a2.2,2.2,0,0,1,.87.57.11.11,0,0,1,0,.08,1.85,1.85,0,0,0,.1.67.29.29,0,0,1,0,.25l-.36.57a.11.11,0,0,0,0,.15c.09.09.09.14,0,.15a.15.15,0,0,0-.1,0c-.15.12-.15.23,0,.35a.09.09,0,0,1,0,.08.75.75,0,0,1-.22.36.1.1,0,0,1-.09,0,.27.27,0,0,0-.15,0,.13.13,0,0,0-.07.06.67.67,0,0,0-.05.42.14.14,0,0,1,0,.09c-.22.75-.45,1.49-.69,2.23-.07.24-.15.28-.22.11a.13.13,0,0,0-.06-.08q-.09,0-.15.09c-.18.34-.12.43.16.26,0,0,.05,0,.05,0a.22.22,0,0,1-.22.22.13.13,0,0,1-.1,0c-.09,0-.15,0-.17.15a.19.19,0,0,1-.07.11,7,7,0,0,0-.93,1,.24.24,0,0,0,0,.23c.08.18,0,.26-.22.24a.72.72,0,0,0-.33,0,.44.44,0,0,0-.23.22c-.11.19-.21.37-.31.57a.09.09,0,0,1-.08,0,1.24,1.24,0,0,1-.65-.12l-.23-.1a.45.45,0,0,1-.27-.4s0-.17-.1-.36c0,0,0-.16-.09-.37a1.09,1.09,0,0,0-.29-.55.56.56,0,0,1-.05-.08.53.53,0,0,0-.23-.27,1.16,1.16,0,0,1-.34-.38c-.12-.18-.21-.32-.28-.41a13.4,13.4,0,0,1-.93-1.18,3.12,3.12,0,0,1-.35-.68,1.44,1.44,0,0,0-.19-.37.29.29,0,0,1,0-.33c.06-.09,0-.16-.07-.22a.12.12,0,0,1-.08-.06,1.88,1.88,0,0,1-.27-.67,4.51,4.51,0,0,0-.36-1,.63.63,0,0,0-.28-.3.86.86,0,0,0-.46-.12,1.87,1.87,0,0,1-1.7-.72.06.06,0,0,1,0-.08,2.45,2.45,0,0,1,.43-.51,3.54,3.54,0,0,1,1.35-.55.08.08,0,0,0,.07,0,2.67,2.67,0,0,0,.2-.46,1.07,1.07,0,0,0,0-.49,6,6,0,0,1,0-1.4,3.66,3.66,0,0,1,.48-1.37,4.61,4.61,0,0,1,.92-1.15,1.61,1.61,0,0,1,.48-.3.13.13,0,0,0,.07-.06.92.92,0,0,1,.5-.39,1.19,1.19,0,0,0,.59-.44.11.11,0,0,1,.11,0,1.61,1.61,0,0,0,.87,0,.64.64,0,0,1,.49,0,.06.06,0,0,0,.07,0l.17-.3a0,0,0,0,0,0-.06l-.11,0a0,0,0,0,1,0-.06.28.28,0,0,1,.3-.08,1.83,1.83,0,0,1,.53.28.13.13,0,0,1,.06.07c.06.1,0,.11-.16,0s-.19,0-.11.08a.54.54,0,0,1,.09.24.06.06,0,0,0,.06,0l.31,0a.15.15,0,0,1,.09,0l1.12.78a.74.74,0,0,1,.24.33.18.18,0,0,0,.1.09,1.3,1.3,0,0,1,.43.27c.29.29.57.58.84.88.06.05,0,.09,0,.09A.29.29,0,0,1,43,93.8s0,0,0,0Zm-3.06-2a.43.43,0,0,1-.2-.11.16.16,0,0,0-.08-.06c-.2-.05-.24,0-.13.18a.06.06,0,0,1,0,0v0s0,0-.06,0c-.25-.11-.24,0,0,.19a.14.14,0,0,0,.14,0,.45.45,0,0,1,.31-.09S40,92,40,92l.17-.13a.06.06,0,0,0,0-.08c-.07-.1-.13-.1-.2,0a.06.06,0,0,1-.07,0Zm-2.21,11,0-.39a1.17,1.17,0,0,1-.69-.63c0-.07-.1-.19-.19-.33a1,1,0,0,1-.16-.47.56.56,0,0,0,0-.12.74.74,0,0,1-.15-.53.22.22,0,0,0,0-.09.13.13,0,0,0-.1-.07.08.08,0,0,1-.08-.1c0-.14-.05-.19-.16-.15s-.16.15,0,.27a.26.26,0,0,1,.1.28.77.77,0,0,0,0,.4,9.14,9.14,0,0,0,1.22,2.33.23.23,0,0,1,0,.14.26.26,0,0,0,.06.21l.1.11a4.79,4.79,0,0,0,1.57,1.4.06.06,0,0,0,.07,0,.15.15,0,0,0,0-.22,8.11,8.11,0,0,1-.79-.83,2,2,0,0,1-.2-.51.11.11,0,0,0-.06-.07,1.09,1.09,0,0,1-.49-.62Zm-1.54-.93a.06.06,0,0,0,0-.09.06.06,0,0,0-.09,0s0,.06,0,.08a.06.06,0,0,0,.09,0Zm3.61,2.41a2.64,2.64,0,0,0,1-1.36,9,9,0,0,0,.22-1c0-.35.1-.62.13-.78a4.5,4.5,0,0,0,.07-1.5A.34.34,0,0,0,41,99.4a6.94,6.94,0,0,0-2.89-.66,2.05,2.05,0,0,0-.49.06.5.5,0,0,0-.38.35,2.25,2.25,0,0,0,0,.46,3.55,3.55,0,0,0,.18,1.09c.12.34.24.65.37.93a5.48,5.48,0,0,0,.5.86c.24.35.49.69.74,1a4.5,4.5,0,0,0,.74.77.07.07,0,0,0,.09,0Zm-3.33-1.93a1,1,0,0,0-.21-.3s0,0,0,0a5.11,5.11,0,0,0,1.1,1.77s0,0,0,0l0,0a9.34,9.34,0,0,1-.76-1.1l-.14-.33ZM42.24,93c0-.11-.1-.16-.17-.16a0,0,0,0,0,0,.06.22.22,0,0,0,.19.12s0,0,0,0Zm-.53,1.72s0-.06,0-.11-.05,0-.06,0a.08.08,0,0,0,0,.08.05.05,0,0,0,.08,0Zm2,6.05s-.07,0-.11.09,0,.12,0,.14.07,0,.11-.09S43.77,100.77,43.75,100.76Z"/><path class="cls-2" d="M39.2,91.16c0,.1-.11.11-.25,0a.1.1,0,0,0-.09,0,.56.56,0,0,1-.42-.07.07.07,0,0,1,0-.07c.27-.44.51-.46.73-.06A.25.25,0,0,1,39.2,91.16Z"/><path class="cls-2" d="M40.16,90.49c-.09-.14,0-.14.13,0l.06.08c0,.08,0,.08-.14,0Z"/><path class="cls-2" d="M43.9,101.58s.05.12,0,.23-.11.18-.15.17-.06-.12,0-.23S43.85,101.56,43.9,101.58Z"/><path class="cls-2" d="M43.72,102.42c-.12,0-.13,0,0-.19a.06.06,0,0,1,.07,0c.06,0,.07.07.05.13A.18.18,0,0,1,43.72,102.42Z"/></g></g></svg>