<?xml version="1.0" encoding="UTF-8"?><svg id="b" xmlns="http://www.w3.org/2000/svg" viewBox="0 0 192.7558 192.7559"><g id="c"><path d="M95.8525,23.0826c20.4453,0,38.9561,8.2876,52.3545,21.686,13.3984,13.3979,21.6855,31.9092,21.6855,52.3545s-8.2871,38.956-21.6855,52.3535c-13.3984,13.3984-31.9092,21.6865-52.3545,21.6865s-38.9561-8.2881-52.3545-21.6855c-13.3984-13.3985-21.6855-31.9097-21.6855-52.3545s8.2871-38.9566,21.6855-52.3545c13.3984-13.3984,31.9092-21.686,52.3545-21.686h0ZM147.0722,45.9034c-13.1084-13.1084-31.2178-21.2159-51.2197-21.2159s-38.1113,8.1075-51.2197,21.2159c-13.1084,13.1079-21.2159,31.2168-21.2159,51.2197s8.1075,38.1113,21.2159,51.2197c13.1084,13.1074,31.2177,21.2158,51.2197,21.2158s38.1113-8.1084,51.2197-21.2168c13.1074-13.1074,21.2158-31.2168,21.2158-51.2187s-8.1084-38.1118-21.2158-51.2197h0ZM96.3779,0c-26.6133,0-50.708,10.7876-68.1485,28.2286C10.788,45.6695,0,69.7642,0,96.3775s10.788,50.7085,28.2294,68.1489c17.4405,17.4414,41.5352,28.2295,68.1485,28.2295s50.709-10.7881,68.1494-28.2295c17.4414-17.4404,28.2285-41.5351,28.2285-68.1489s-10.7871-50.708-28.2285-68.1489C147.0869,10.7876,122.9921,0,96.3779,0h0ZM162.4853,30.2706C145.5673,13.3526,122.1943,2.8882,96.3779,2.8882S47.1884,13.3526,30.2705,30.2706C13.3535,47.188,2.8886,70.5611,2.8886,96.3775s10.4649,49.1899,27.3819,66.1079c16.9179,16.917,40.291,27.3818,66.1074,27.3818s49.1894-10.4648,66.1074-27.3818c16.918-16.918,27.3818-40.291,27.3818-66.1079s-10.4638-49.1895-27.3818-66.1069h0ZM22.1884,45.9463l-2.2939,3.648c-.3418.3286-.6065.6396-.791.9326-.1446.4521-.1963.9629-.1485,1.5366.1114.4737.3086.8023.6016.9863.3535.0874.5732-.0483.6592-.3984.1103-.6123.3301-1.2871.6631-2.0298l2.7529-4.3799c.3418-.3291.8545-.2807,1.5371.1485,1.5215.8218,2.9824,1.7407,4.3799,2.7534,1.3642.8579,1.8359,1.8364,1.418,2.9297-.6133.9756-1.4493,1.8755-2.5118,2.7026-.1484.4497.5059.3833,1.959-.1987.8789-.5342,1.6514-1.3345,2.3252-2.4063.5166-1.0356.5352-2.0405.0625-3.0166-.3027-.5981-.8242-1.061-1.5664-1.393-1.7764-.8472-3.8047-2.0523-6.0801-3.6177.2813-.2319.6719-.5298,1.1739-.8921.5947-.3042.8056-.8535.6259-1.645-.3769-.9151-.7168-1.1284-1.0224-.6426-.9912,1.1416-2.2403,2.8032-3.7442,4.9824h0ZM18.5839,54.2725c.3799-.1694.7549-.3384,1.1358-.5073.3164-.0747.4814.0986.4902.5127-.3662.5825-.7998,1.0571-1.3017,1.4199-.5606.4644-1.1407.8477-1.7393,1.1494-.3145.0718-.623.0166-.9131-.1655-.4258-.4072-.5166-.8028-.2715-1.1924.1211-.1929.3741-.373.751-.5444.5381-.2056,1.1533-.4312,1.8486-.6724h0ZM21.2294,56.5489c-.7197.4946-1.4882.9633-2.3066,1.4008-.3799.1695-.709.3667-.9892.5992-.1485.4502-.1543.7856-.0215,1.0083.1689.375.4306.6089.7851.6938.2549.0244.4619.0205.6192-.0156.5029-.3657.9238-.71,1.2656-1.0386.2803-.2319.5937-.5093.9346-.8379.5253-.6216.9433-1.1753,1.249-1.6621.0224-.2554-.0586-.4448-.2549-.5683-.1934-.1216-.623.0166-1.2813.4204h0ZM24.4296,56.3179c-.2841,1.3164-.4902,2.6123-.6123,3.8916-.0517.5112-.0888.8955-.1162,1.1528.1104.4737.4688.7681,1.0762.8809.7695.0752,1.2393-.2427,1.4121-.9463.0147-.6733-.0195-1.3725-.1035-2.1035-.083-.7305-.2461-1.4463-.4883-2.1411-.1348-.2202-.3174-.4692-.5478-.7529-.2891-.1822-.4981-.1744-.6202.0185h0ZM22.5947,52.1089c-.3799.169-.6592.3985-.8428.6909-.0879.3541.0342.6998.3604,1.044.2929.1841.6328.3979,1.0224.6426.6475.2685,1.3213.4912,2.0293.6635.3535.0874.6387.0621.8584-.0727.3789-.167.4483-.6016.207-1.2964.5499-.8755,1.0264-1.5283,1.4307-1.9517.4746-.1108.7266-.2905.7481-.5468-.0694-.3179-.2705-.648-.5987-.9893-.3291-.3413-.6377-.6045-.9297-.7891-.2929-.184-.5361-.3369-.7295-.458-.1357-.2202-.3466-.4228-.6396-.6069-.4521-.145-.8779-.0078-1.2822.4204-.0606.0962-.1211.1929-.1817.2896-.0263.2568-.0517.5112-.0752.7695-.5283.6201-.9863,1.3486-1.3769,2.1904h0ZM23.5625,52.5127c.1093.4766.4375.8184.9834,1.0269.2539.0249.4931-.0293.7128-.1646.5284-.6196.9258-1.2524,1.1934-1.8974-.0371-.1572-.1201-.3491-.2529-.5669-.6211-.5254-1.1524-.6553-1.5908-.3872-.5498.875-.8975,1.539-1.0459,1.9892h0ZM42.8867,26.7383c.8886,1.0615,1.1601,1.6446.8125,1.751-1.4102.9951-2.3994,1.4819-2.9746,1.4648-.376.2652-.5684.8916-.5733,1.8814.21.6987.5645.7998,1.0615.3096,1.0206-1.1441,2.21-2.0562,3.5645-2.7281.6895.7788,1.2539,1.5782,1.6914,2.396.1719.4414-.8994,1.6162-3.21,3.5308-.7783.6899-.9033,1.4126-.372,2.1641.4619.6557.9717.58,1.5234-.233,1.1172-1.2124,2.1338-2.5605,3.0518-4.0551l.9951,1.4096c.5176.3374.9814.294,1.3848-.1308.497-.4951.5117-1.0684.0488-1.7237-1.8184-2.3779-3.541-4.8188-5.1729-7.3286-.7656-1.2885-1.5127-1.7475-2.2373-1.3759-.792.2753-.6552,1.165.4063,2.6679h0ZM45.2177,22.5621c.0381.2519.4209.8964,1.1504,1.9306,1.3535,1.7197,2.5469,3.4092,3.5801,5.0708.957,1.1582,2.0361,1.5894,3.2422,1.3013,1.9023-.4961,3.3057-.9961,4.2158-1.499,1.5713-.9649,2.1553-2.4351,1.752-4.4029-.1719-.4414-.4131-.4834-.7207-.1215-2.4053,1.977-4.2227,3.1928-5.4532,3.6376-.6992.2095-1.2793-.0112-1.7441-.6699l-1.0947-1.5512c1.7373-1.9288,2.8916-3.586,3.458-4.9722.1484-.3887.0107-.7822-.4131-1.1856-.6817-.3657-1.1572-.2417-1.4268.3721-.6494,1.8682-1.3554,3.5601-2.1142,5.082l-1.4922-2.1128c-.9649-1.5712-1.7188-2.2373-2.2529-1.999-.6309.3057-.8594.6782-.6866,1.1197h0ZM77.3935,11.5538c-1.2392.2612-2.4082.5644-3.5068.9165-.2276.0478-.3731.1953-.4375.4419-.1045.6123-.0899,1.2524.0537,1.9292.1182.562.001.8237-.3623.7797-.4971-.1284-.8067-.4731-.9258-1.0385-.3252-.9878-.457-1.8999-.4004-2.7359.2197-.6328.5108-.9277.8692-.8867.3623.0405.7363.1382,1.122.29,1.3506-.2846,2.6309-.6113,3.8457-.9843.1729-.8599.3223-1.5381.4512-2.0357.29-.2978.6826-.3808,1.1807-.2495.497.1289.7265.377.6855.7359-.0635.2504-.1621.6245-.2939,1.122,2.2744-.3628,3.9863-.6074,5.1367-.7339.2881-.2934.5908-.5341.9053-.7177.6728-.1416,1.1064.2368,1.2968,1.1372.0948.4502.1319.9121.1153,1.3857-.0332.9473-.1289,1.6143-.2823,1.9966-.29.2978-.541.2339-.747-.1924-.166-.7881-.3868-1.5654-.668-2.3296-.2939-.2876-2.2998-.0415-6.0117.7417-.2363,1.1065-.5205,1.9898-.8516,2.647.5615-.1187,1.4756.042,2.7442.4775.3252-1.2417.666-2.1372,1.0214-2.6821.2872-.2978.7852-.1655,1.4922.3882.1836.3144-.0146.77-.5957,1.3628-.4922.4536-.9394.8413-1.3418,1.1631l2.9131.4419c2.8027.4653,4.7793.6386,5.9268.5136.0947.4497-.1221,1.0821-.6563,1.9019-.3545.5449-.8027.9331-1.3418,1.1631-.4258.2065-1.0234.1557-1.7949-.1514l-3.9785-2.1538c-1.8145-.7944-3.2617-1.2524-4.3447-1.3774.2617,1.2382.3759,2.331.3388,3.2788.0547.812.4532,1.0219,1.1895.6289.8291-.5279,1.6797-1.2344,2.5488-2.1245.5215.2436.3369,1.0454-.5488,2.4101-1.4278,1.5908-2.4785,2.459-3.1514,2.6011-.7881.1665-1.3789-.1187-1.7685-.8604-.0948-.4497-.0782-.9238.0498-1.4204.1259-1.083.0908-2.3696-.1055-3.855-.7988,1.2251-1.79,2.3746-2.9736,3.4478-.4942.4575-1.0537.8691-1.6797,1.2344-1.1914.4883-2.0049.2466-2.4424-.7183-.1611-.1992.2861-.5864,1.3389-1.1626,1.1435-.7109,2.2636-1.5342,3.3593-2.4722,1.4229-1.5937,2.3008-3.0126,2.626-4.2543h0ZM112.5,8.5381c.6738.1377.8398.7574.499,1.8594l-1.5186,7.4375,1.6914.3452,1.7246-8.4502c.2725-.7671.8389-.9443,1.6934-.5337.5176.3389.626.9468.3301,1.8252-.2725.7666-.8487,3.2891-1.7227,7.5723,3.3594.8022,6.0401,1.4658,8.043,1.9951-1.1074,1.415-2.2051,2.19-3.29,2.3179-.4737.0229-1.0245-.1494-1.6534-.5103-1.6406-1.1577-3.9179-2.0918-6.8222-2.8012-3.4707-.8287-6.3125-.9956-8.5235-.5079-.5849-.0029-.832-.2299-.7392-.6806.3877-1.3291,1.2685-1.9116,2.6435-1.7476l4.5987.7622,1.4843-7.268c.0215-.6978.1836-1.1939.4756-1.4878.2959-.2886.6582-.335,1.086-.1275h0ZM106.9785,9.6978c.4736-.0195.79.1616.9472.5469.2832,2.0522.7745,3.9702,1.4659,5.7558-.1817.3164-.4317.3814-.7471.2007-1.7734-1.6538-2.6445-3.417-2.6162-5.2881.0263-.7011.3428-1.1064.9502-1.2153h0ZM120.5644,13.001c.7637.8579.7832,1.6245.0596,2.2993-1.2881,1.1455-2.793,1.8931-4.5069,2.2495-.25.0655-.4082-.0268-.4746-.2729,1.6748-1.3037,3.0215-2.73,4.044-4.2827.1572-.2002.4512-.2007.8779.0068h0ZM149.6826,30.3799c.6523.4732,1.1504.7657,1.498.8736.5069.0854.7676-.0801.7862-.4937-.1211-.2285-1.4024-1.2998-3.8477-3.2192l-1.2529-.9097c.4961-.4902.9472-1.0176,1.3515-1.5747.7022-.7671.6348-1.4575-.205-2.0669-.4649-.3369-.9473-.2603-1.4444.2295-.2695.3726-.5596.8716-.873,1.4985-.3379.4644-.5987.6299-.7862.4937-1.1865-.7154-2.2675-1.5733-3.249-2.5713-.3974-.4292-1.0644-.4868-2.0029-.1719-.6836.3545-.7129.6885-.0889,1,1.0664.4917,2.377,1.229,3.9356,2.2144.5566.4038.6904.7148.3916.9258-.9278.8901-1.9551,1.4223-3.0811,1.6015-2.1113.1724-4.3291-.5869-6.6582-2.2768-.5078-.0826-.5078.6997.002,2.3471.7285.9561,1.7754,1.5699,3.1367,1.8487,1.3584.2768,2.9131.1953,4.6523-.2471,1.2344-.523,2.1817-1.0449,2.8399-1.563.0586.897.2138,2.6426.4619,5.2402.1621,1.5362.4238,2.9356.79,4.1929.6182,1.3027,2.1602,1.4263,4.6279.3755-1.0751-1.062-1.9794-2.3589-2.7148-3.8887-.5029-1.0742-.9111-2.0791-1.2227-3.0151-.5869-2.1299-.7753-3.336-.5722-3.6152,1.209.8769,2.3838,1.8017,3.5254,2.7719h0ZM165.957,54.2129c-1.4424-2.0791-2.8516-4.3188-4.2246-6.7153-.0264-.2573-.0977-.481-.2217-.6777-.4014-.4253-.9395-.6309-1.6094-.6172-1.1572.3227-1.3437.7798-.5615,1.374,1.5508,1.6025,3.418,4.0317,5.5947,7.2788-1.3994,1.0151-2.7392.502-4.0244-1.541-.2724-.6465-.5234-1.3711-.7558-2.1763-.0606-.0967-.1416-.1152-.2383-.0547-.2266,1.3682-.044,2.7437.5605,4.1333,1.6514,2.626,3.5362,3.1402,5.6514,1.5352,1.1035,1.7539,1.7793,3.3677,2.0283,4.8408.3066,1.5723,1.3926,2.1104,3.2549,1.6172-.8799-1.6201-2.3623-4.082-4.4434-7.3901.3262-.3443.4795-.6407.4551-.8994.499.3647.9649.8891,1.3936,1.5712.4892.7789.9345.8374,1.3359.1763.3379-.7558.417-1.2793.2334-1.5718-.1846-.2929-.4189-.5542-.6973-.7837-.3593-.9995-.6396-1.7705-.8476-2.3222-.4658-.52-.9492-.9634-1.4483-1.3277-.1748-.707-.5781-1.1318-1.2119-1.2768-.3164-.0747-.7304-.0835-1.2431-.0347-.3897.2446-.3311.5513.1679.9155.7549.3379,1.4453.7857,2.0674,1.3472.7832.5938,1.2432,1.3257,1.3779,2.189.1748.707-.2099.7446-1.1494.1142-.0146-.6728-.2041-1.2973-.5722-1.8828-.4629-.522-.751-.5449-.8614-.0713.2969.9004.291,1.6519-.0107,2.25h0ZM169.9716,45.3711c-.7187-.5-1.2138-.5273-1.4795-.0859-.207.5342-.3857,1.3286-.5439,2.3765-.5508-.8755-.9102-1.667-1.085-2.3741-.0879-.3535-.4443-.6025-1.0781-.7475-.3183-.0698-.8359.1865-1.5537.7724-.3281.3418-.7051.7178-1.1299,1.1197-.4013.6611-.1191.8882.8438.6914,1.1289-.5757,1.959-.5547,2.4843.0669.7706,1.0107,1.7686,2.4868,2.9932,4.4336,1.1641,1.8501,2.2783,3.7314,3.3447,5.6425.1827.2896.1778.4971-.0175.6202-.5831.3662-1.087.7529-1.5127,1.1552-.2657.441.0127.67.8427.6914,1.1211-.1616,1.9912-.5048,2.6133-1.0302.3281-.3418.2764-.8526-.1533-1.5347-.3408-.3286-.6514-.6074-.9346-.8374-.4648-.5249-.9736-1.2227-1.5234-2.0977.916.3716,1.8349.5406,2.7617.501.6699-.0127.9385-.4512.8018-1.3169-.0118-.6699-.3272-.9507-.9346-.8374-.999.3545-2.0117.5825-3.0352.6831-1.3213-1.8862-2.3613-3.54-3.1211-4.9619.6553-.686,1.1661-1.2768,1.5313-1.7803.2685-.4379.2305-.8232-.1143-1.1499h0ZM172.8535,48.6529c.622.561.5771,1.1328-.1407,1.7187-.4892.3081-.9746.6138-1.4609.919-.1572-.0357-.2881-.023-.3848.0376-.1972-.9624.0489-1.8648.7432-2.7095.4854-.3062.9014-.294,1.2432.0342Z" fill="#231916" fill-rule="evenodd" stroke-width="0"/><path d="M8.1796,107.0098l.6475-.1133c.1553.6939.2705,1.083.3457,1.1641.0791.084.2158.124.4111.123.2989-.0073,1.0342-.1137,2.21-.3188l4.3408-.7671c1.4649-.2617,2.2598-.4287,2.3838-.4976.0742-.0405.1279-.0971.1582-.1665.0508-.1176.0342-.5346-.0469-1.25l.6485-.1132c.1523,1.062.2822,1.9018.3896,2.517.1719.9781.3428,1.8663.5166,2.668l-.6484.1138c-.1563-.6406-.2695-1.0166-.3438-1.1231-.0439-.0649-.0986-.1049-.1689-.1264-.1094-.0342-.4209-.0181-.9375.0498-.7656.1118-1.54.2358-2.3232.3725l-.6583.1153c.0743.5517.2139,1.4204.4219,2.6118.1846,1.0556.335,1.8335.4492,2.3286,1.7159-.2944,2.8526-.5098,3.4102-.646.2988-.0742.4736-.1606.5283-.2617.0781-.1392.0723-.5586-.0185-1.2632l.6484-.1133c.1963,1.3125.335,2.2007.416,2.6631.1387.794.3008,1.6284.4873,2.5059l-.6484.1128c-.1602-.6675-.2783-1.0533-.3565-1.1534-.0439-.0566-.0986-.0971-.1689-.1186-.1182-.0264-.5566.0141-1.3115.1264-1.1582.1666-2.0957.3135-2.8086.438l-3.5967.6787c-.8135.1534-1.2764.2593-1.3926.316-.1142.0586-.1904.1338-.2275.2256-.0332.0952-.0137.4926.0596,1.2001l-.6475.1133-.1318-.8784c-.0957-.6597-.1778-1.1767-.2432-1.5493-.1358-.7778-.3115-1.6904-.5283-2.7407l.6474-.1133c.1553.6938.2813,1.0835.3819,1.1636.0976.083.3271.1035.6816.0644.6113-.0708,1.9014-.271,3.8711-.6045-.1025-.5884-.2168-1.2446-.3428-1.9653-.1982-1.1323-.3818-2.1211-.5527-2.9707l-.5244.0913c-1.3877.2432-2.4268.4438-3.1143.6001-.4629.1084-.7217.2178-.7832.3315-.0576.1133-.0508.524.0235,1.2315l-.6485.1133-.1416-.938c-.084-.5947-.168-1.1231-.249-1.5874l-.5147-2.6597h0ZM14.6757,126.8863l-.1504.2939-.8417-.0957c-.3516-.2895-.6524-.6245-.9083-1.0044-.2548-.3804-.4619-.8056-.621-1.2778-.3721-1.1069-.3438-2.0859.0839-2.9385.4278-.8525,1.2217-1.4756,2.3858-1.8677.7353-.2475,1.375-.3589,1.9209-.3339.4414.0219.8496.1616,1.2275.4223.377.2612.7559.5786,1.1426.9551.3867.3755.6719.8354.8545,1.3779.2803.8345.2783,1.5991-.0039,2.2989-.2822.6992-.9395,1.2241-1.9707,1.5712-.128.043-.3233.0972-.5899.1636l-.6455-1.1704c-.1552-.376-.3564-.9277-.6015-1.6577l-.5557-1.6494c-.8477.3686-1.416.8525-1.708,1.4482-.292.5928-.3213,1.2363-.0889,1.9273.0977.2885.2354.56.4141.8178.1816.2544.3984.4942.6562.7193h0ZM16.1972,121.6534c.1123.4716.2451.936.3994,1.393.1348.3999.2979.814.4873,1.2417l.3614-.1133c.6211-.2089,1.0371-.476,1.248-.8017.209-.3252.2481-.6826.1172-1.0718-.0928-.2754-.2402-.4892-.4414-.6411-.1992-.1528-.4385-.2373-.7129-.252-.2764-.0146-.7637.0689-1.459.2452h0ZM14.4111,130.8775c.4375.1758.7246.3047.8633.3799-.0557.456-.0616.8432-.0166,1.1631.0468.3222.1416.6459.29.9731.1504.3325.3164.5942.4981.7886.1806.1953.4755.4018.8808.6255.3418.1845.7354.4223,1.1758.7109.3603.2251.7285.3745,1.0996.4502.3711.0762.8106.0825,1.3145.02.5019-.061.9619-.1875,1.3769-.375.8447-.3818,1.4151-.937,1.7119-1.6704.2989-.7305.2647-1.5059-.1074-2.3281-.1406-.312-.3018-.5615-.4785-.749-.1787-.1871-.4492-.3658-.8067-.5381l-1.1406-.5533c2.5098-1.1035,3.9024-1.7114,4.169-1.8198l.7773-.3242c.1172-.0532.1533-.1265.1113-.2187l-.2666-.2647c-.2558-.2393-.5683-.6245-.9482-1.1602-.377-.5336-.627-.9345-.7481-1.2021l-.5244.2373c.211.521.3203.8179.3321.8877.0136.0986-.003.1816-.0498.2422-.0704.0918-.252.2036-.5391.3335l-1.8613.8926c-.5059.2465-1.2295.5825-2.1739,1.0087-2.083.9415-3.7353,1.6334-4.958,2.0777l.0186.4126h0ZM20.3037,130.1231c.3515.0937.6494.2329.8886.4224.2413.1889.4258.4243.5538.7065.2412.5347.2304,1.0566-.0274,1.5703-.2588.5142-.7861.9507-1.5859,1.312-.8487.3838-1.5567.5083-2.1201.3745-.5625-.1338-.961-.4619-1.1963-.9843-.1455-.3223-.208-.6397-.1856-.9571.0215-.3164.126-.6255.3125-.9262l3.3604-1.5181h0ZM23.3359,144.1846l-.0889.3174-.8447.0703c-.4023-.2148-.7627-.4853-1.0869-.8076-.3242-.3233-.6104-.6992-.8584-1.1318-.582-1.0127-.7442-1.9786-.4922-2.898.2529-.9199.9102-1.686,1.9746-2.2974.6729-.3867,1.2783-.6201,1.8193-.7031.4366-.0649.8643-.0073,1.2852.1748.4209.1822.8545.4199,1.3076.7134.4531.293.8223.688,1.1074,1.1846.4385.7632.585,1.5136.4444,2.2553-.1397.7408-.6817,1.3838-1.625,1.9258-.1162.0674-.2979.1582-.5459.2754l-.8623-1.022c-.2266-.3383-.5303-.8398-.9141-1.5083l-.8672-1.5092c-.7588.5278-1.2226,1.1132-1.3916,1.7539-.1709.6391-.0742,1.2758.2891,1.9077.1523.2637.3398.5039.5664.7217.2275.2138.4863.4072.7832.5771h0ZM23.8066,138.7554c.2021.44.4228.8696.6631,1.2881.2099.3657.4512.7402.7207,1.1226l.333-.1817c.5674-.3262.9238-.6699,1.0664-1.0303.1426-.3598.1104-.7172-.0937-1.0742-.1456-.2519-.3311-.4326-.5586-.5425-.2256-.1108-.4766-.1464-.7481-.1074-.2744.0396-.7353.2168-1.3828.5254h0ZM34.1836,141.8506c.1982.2798.2685.5889.2109.9297-.0586.3399-.2305.6094-.5156.8096-.2813.2002-.5909.2705-.9317.2119-.3398-.0586-.6084-.2305-.8095-.5146-.2002-.2823-.2706-.5918-.212-.9317.0586-.3398.2286-.6074.5108-.8066.2842-.2012.5947-.2735.9355-.2149.3399.0581.6094.2305.8116.5166h0ZM23.3662,146.751c.7422.9922,1.1933,1.6035,1.3564,1.834.3057.4316.7246,1.0527,1.2539,1.8594l.5381-.3799c-.3213-.5391-.4853-.8516-.4863-.9385s.0576-.1885.1767-.3066c.1719-.1641.7207-.5762,1.6446-1.2295,1.5986-1.1299,2.8388-1.959,3.7197-2.4883l.0166-.2568c-.7773-.4737-1.5781-1.208-2.4033-2.2051l-.5108.3613.3291.5088c.1621.2481.2334.419.2139.5166-.0225.0967-.1572.2324-.4121.4131l-.752.5615c-.3369.2578-.708.5313-1.1142.8174-.9404.6641-1.5615,1.0772-1.8623,1.2354-.2158.122-.3711.1591-.4717.1123-.0986-.045-.3301-.3106-.6992-.795l-.5371.3799h0ZM35.3134,159.8643c.3975.3066.6641.4727.8037.4922.0938.0117.3223-.0596.6836-.2129.7022-.3135,1.6504-.7734,2.8428-1.377l6.7012-3.4111.8955.7744-2.9014,8.8965c-.3554,1.1318-.5244,1.7715-.5097,1.9229.0156.1504.2236.4248.6289.8222l-.4727.5479c-.6406-.5967-1.2529-1.1485-1.8408-1.6563-.7002-.6064-1.3789-1.1709-2.0332-1.6933l.4736-.5469c.501.3965.8008.6123.9053.6406.1035.0322.1924.0049.2685-.082.0665-.0772.2032-.4082.4131-.9951l.4805-1.3643c-.4941-.4424-1.0488-.9287-1.666-1.4629-.5381-.4648-1.0313-.8838-1.4776-1.2549l-.8593.4522c-.2334.124-.5635.3252-.9864.6045-.0966.0615-.1728.126-.2324.1933-.0791.0918-.0947.1905-.0488.2959.0469.1055.2969.3907.7519.8526l-.4736.5478c-.375-.3672-.8574-.8066-1.4482-1.3183-.5616-.4854-1.0186-.8584-1.3721-1.1211l.4736-.5469h0ZM44.3837,157.4141l-3.9863,2.0195c.3594.3389.7608.7002,1.211,1.0889.4687.4063.9228.7852,1.3671,1.1397l1.4082-4.2481h0ZM55.5429,168.1836c.3799-.2099.6856-.3564.9151-.4482l-.0254-.2139c-.3242-.1611-.9854-.5625-1.9785-1.2021-.1485-.3535-.3311-.6494-.5498-.8926-.2999-.3242-.6866-.6357-1.1612-.9375-.957-.6104-1.8447-.8633-2.6572-.7568-.8145.1054-1.4414.5019-1.8799,1.1914-.3037.4765-.4414.9472-.4131,1.4082.0293.4638.2451.9521.6455,1.4668-.3525.0488-.7129.0732-1.0771.0781l-.3145-.002c-.3974.2373-.6728.4756-.8261.7159-.1407.2216-.1905.4316-.1436.6289.0459.1992.2285.4482.5479.7529l-.6641-.0293c-.5811-.0264-.9375-.0127-1.0752.0391-.2959.1172-.5469.3379-.7539.664-.3613.5664-.4024,1.1934-.124,1.8838.2773.6875.9355,1.3633,1.9736,2.0254,1.2227.7783,2.3906,1.0899,3.499.9307,1.1123-.1592,1.9561-.6944,2.5352-1.6026.2519-.3955.3877-.7607.4043-1.0986.0195-.3379-.0479-.625-.2012-.8584-.1504-.2334-.5078-.5283-1.0684-.8848-1.664-1.0605-2.5732-1.6591-2.7226-1.7929-.2744-.2373-.3408-.4649-.2022-.6827.0577-.0898.1368-.1533.2373-.1894.1055-.0371.2989-.0498.5831-.042.2304.1738.4101.3008.5371.3818.791.5039,1.6123.7403,2.4609.7129.8516-.0302,1.542-.4609,2.0713-1.291.1211-.1904.2178-.414.2969-.6758l1.1308.7207h0ZM50.2275,165.6075c.2549-.4004.5557-.6475.8984-.7412.3438-.0967.6875-.0332,1.0274.1826.3535.2256.5459.5302.5771.9111.0332.3809-.1308.8525-.4883,1.415-.3271.5127-.6621.8291-1.0039.9522-.3427.1201-.6836.0723-1.0254-.1455-.372-.2373-.5693-.5547-.5957-.958-.0234-.4014.1807-.9414.6104-1.6162h0ZM47.3212,170.5323l1.1866.7558c.8291.5293,1.3183.8692,1.4668,1.0196.1465.1513.2256.3281.2353.5332.0069.29-.0859.583-.2734.8789-.2051.3213-.4737.5595-.8086.7168-.336.1562-.7178.2031-1.1455.1416-.4317-.0635-.8809-.2461-1.3545-.5479-.6592-.4199-1.0733-.8721-1.2393-1.3574-.167-.4863-.1123-.9453.1651-1.3809.1533-.2402.3476-.4179.581-.5293.2315-.1132.627-.1894,1.1865-.2304h0ZM53.3339,173.9844l.3018-.5849c.4932.2236.7822.3388.8701.3418.0713-.001.1406-.0206.2041-.0674.1133-.0869.2715-.3233.4824-.7071.3799-.6875.7149-1.3134,1.0108-1.8857.5674-1.0977.8896-1.7588.9648-1.9756.0498-.126.0498-.2344.0059-.3213-.0459-.0849-.333-.2773-.8584-.5732l.2871-.5547c1.0078.4023,1.7519.6455,2.2353.7256l.875.1025c.0655.0342.0762.0987.0293.1885l-.0566.0977c-.1709.29-.4014.7177-.6914,1.2802.3613-.1094.7793-.2666,1.2568-.4736.3535-.1543.6338-.2315.836-.2285.2021.0029.4384.0722.706.2109.1514.0772.291.1836.4199.3154-.29.4551-.6533,1.087-1.0917,1.9004l-.375-.0507c-.0137-.2422-.0665-.4327-.1583-.5723-.0898-.1426-.2392-.2656-.4462-.3731-.2823-.1455-.5635-.1982-.8428-.1543-.2793.044-.4971.1446-.6524.3086-.1103.1221-.3808.5987-.8086,1.4268-.623,1.208-.9697,1.9209-1.0419,2.1367-.0498.1445-.0528.2578-.0059.3399.0693.1289.3984.3593.9824.6982l-.3017.585-.7862-.4336c-.499-.2754-.9336-.5098-1.3037-.7012-.3486-.1797-.7617-.3828-1.2314-.6074l-.8155-.3936h0ZM66.2734,167.3477c.3193.124.5488.3428.6875.6592s.1435.6357.0166.9599c-.125.3223-.3447.5518-.6602.6895-.3164.1387-.6357.1435-.9599.0176-.3223-.126-.5518-.3448-.6895-.6602-.1386-.3164-.1445-.6338-.0195-.9551.1269-.3252.3467-.5566.6631-.6953.3154-.1386.6357-.1435.9619-.0156h0ZM59.9453,177.3965c1.167.4199,1.8799.6807,2.1435.7832.4922.1924,1.1846.4805,2.0703.8614l.2393-.6123c-.5645-.2735-.874-.4444-.9219-.5166-.0488-.0723-.0566-.1895-.0215-.3526.0528-.2324.2832-.8779.6953-1.9336.711-1.8222,1.2891-3.1982,1.7334-4.126l-.1279-.2226c-.9101.0332-1.9824-.1387-3.2217-.5156l-.2265.582.5556.2432c.2715.1181.4248.2216.4629.3134.0342.0928-.0039.2813-.1172.5723l-.3183.8818c-.1387.4024-.2988.835-.4785,1.2969-.419,1.0723-.71,1.7588-.8741,2.0576-.1123.2207-.2216.3369-.332.3526-.1064.0175-.4463-.0772-1.0215-.2774l-.2392.6123h0ZM72.7763,176.8526l-.624-.209c.168-.624.2441-.9883.2227-1.0967-.0176-.165-.1211-.3476-.3135-.542-.1924-.1943-.4639-.3515-.8145-.4687-.5381-.1797-.9814-.1582-1.332.0664-.3506.2265-.6572.7363-.9238,1.5351-.3389,1.0108-.3682,1.8682-.0928,2.5733.2783.706.7793,1.1806,1.5049,1.4228.2617.0879.5117.1455.747.1748.2364.0274.462.0303.6729.003l.0713.2119c-.1934.2041-.377.417-.5557.6318-.3916.0537-.7744.0684-1.1504.0342-.374-.0322-.7412-.1094-1.0947-.2275-1.1074-.3702-1.8652-.9659-2.2773-1.7823-.4102-.8203-.4297-1.792-.0518-2.9199.1397-.416.3066-.7793.501-1.0898.1933-.3116.3984-.5606.6181-.751.2188-.1885.4375-.3301.6524-.4199.1299-.0498.6601-.1836,1.5937-.4092.545-.1328.9307-.1973,1.1612-.1953.2275.0039.5117.0615.8574.1767.3037.1026.5918.2246.8652.3682.2764.1416.5342.3057.7764.4883l.084.1806c-.4688.795-.834,1.542-1.0977,2.2442h0ZM74.5927,175.7422l.1397-.6084c.8486.1133,1.6582.1416,2.4297.0879l.8349-.0976c.0938.0215.126.0908.0987.2109l-.1358.4551c-.3633,1.1797-.6728,2.3291-.9287,3.4463-.165.7187-.2373,1.206-.2197,1.4599.0205.2549.1084.4698.2705.6446.1601.1738.4023.2968.7226.3711.3721.0849.7207.0586,1.0479-.0801.3271-.1387.5527-.3233.6728-.5547.1231-.2275.3155-.9199.5791-2.0693.212-.9219.3194-1.4649.3233-1.6299.001-.0879-.0244-.1524-.0674-.1953-.0703-.0625-.415-.1778-1.0381-.3545l.1397-.6094c1.0957.125,1.914.1641,2.4541.1191l.8965-.1093c.0878.0205.1211.0869.0957.1962l-.0645.2071c-.2939.8896-.7148,2.5283-1.2637,4.917-.167.7295-.2509,1.1943-.2548,1.3925.0068.0948.0351.1661.083.2159.0712.0674.3906.1855.9521.3593l-.1465.6416c-.5918-.1699-1.1836-.3222-1.7715-.458-.4814-.1093-.9306-.1963-1.3496-.2588l-.0371-.1572c.083-.2539.1992-.6601.3457-1.2138-.5732.2793-1.1416.6005-1.7031.9638-.4063.0791-.791.0752-1.1484-.0068-.4815-.1104-.876-.3027-1.1875-.5772-.3086-.2724-.5127-.5839-.6123-.9326-.0977-.3486-.0821-.8066.0459-1.3681l.2119-.8487c.1367-.5224.2431-.9482.3193-1.2763.2119-.9278.3203-1.4854.3242-1.6758.002-.126-.0322-.2237-.1064-.292-.0713-.0694-.3887-.1729-.9522-.3145h0ZM85.205,173.5098l.0596-.457c.7725-.001,1.3867-.0264,1.8379-.0772.4521-.0498.9453-.1396,1.4785-.2685l.1865.2041c-.3242,1.8877-.7089,4.5322-1.1543,7.9355-.0898.6856-.1689,1.3799-.2392,2.0869-.0479.4473-.0567.709-.0254.7871.0283.0762.084.1416.165.1963.0811.0518.3926.126.9307.2178l-.085.6524-.8369-.1338c-.5195-.085-.959-.1504-1.3154-.1973l-2.3984-.2637.0849-.6523.5977.0449c.2675.0234.4453-.0029.5351-.0791.0879-.0771.1778-.4053.2696-.9824.1328-.8008.2949-1.9404.4882-3.4199l.4375-3.4073c.1309-1.039.1768-1.6269.1426-1.7675-.0127-.0674-.0478-.1192-.1006-.1592-.0898-.0723-.4414-.1573-1.0586-.2598h0ZM89.8242,178.4932l1.084-.6777c.0097-.9463,0-1.7774-.0284-2.4883.7315-.209,1.4248-.4678,2.0791-.7744l.2373.1885c-.1376.7734-.2421,1.8134-.3144,3.1162.2451.0488.4893.0771.7275.082.5459.0117,1.0371-.0166,1.4717-.083l.0703.0498-.0771.2861c-.0889.3008-.1524.5752-.1963.8272-.624-.0576-1.084-.0889-1.377-.0957-.2197-.0049-.4336.0019-.6425.0195-.0225.54-.0381,1.0156-.0469,1.4297-.0391,1.7978-.0069,2.8213.0947,3.0703.1016.249.3516.3779.751.3867.1181.003.2441-.0078.3828-.0332.1367-.0215.2832-.0566.4375-.1025l.1299.3095c-.3272.3497-.6455.7159-.958,1.0958-.1983.0283-.3789.0468-.544.0595-.165.0127-.3183.0176-.456.0147-.4463-.0098-.8203-.0948-1.1182-.2569-.2978-.1631-.5107-.3672-.6416-.6172-.1299-.25-.1904-.6152-.1797-1.1035.0059-.2578.0332-.9316.085-2.0244.0478-.956.0781-1.7148.0898-2.2715l-.4101-.0254c-.1709-.0039-.3897.0079-.6592.0352l.0088-.417h0ZM95.8544,178.6026l-.0136-.626c.8506-.0977,1.6426-.2676,2.3779-.5088l.7852-.2988c.0966-.002.1445.0566.1474.1807l-.0205.4746c-.0635,1.2324-.082,2.4228-.0576,3.5683.0156.7373.0654,1.2276.1445,1.4697.0811.2422.2198.4288.42.5586.1972.1299.4619.1905.791.1827.3808-.0079.7129-.1192.9961-.333.2841-.2149.457-.4493.5166-.7022.0634-.252.081-.9697.0566-2.1484-.0205-.9463-.0488-1.4991-.0859-1.6602-.0205-.085-.0606-.1416-.1133-.1728-.083-.043-.4453-.0704-1.0928-.0889l-.0137-.625c1.0938-.1475,1.8965-.3096,2.4082-.4854l.8428-.3252c.0908-.0019.1387.0547.1406.167l-.0117.2168c-.0674.9336-.0752,2.626-.0224,5.0762.0156.7481.0478,1.2197.0927,1.4131.0303.0898.0752.1523.1338.1894.086.0469.4239.084,1.0117.1153l.0137.6572c-.6142-.0195-1.2256-.0225-1.8291-.0098-.4932.0108-.9502.0371-1.3721.0791l-.0742-.1435c.0186-.2666.0313-.6895.0391-1.2627-.4883.4111-.961.8623-1.417,1.3525-.375.1748-.7481.2657-1.1152.2735-.4932.0107-.9229-.0791-1.292-.2686-.3662-.1894-.6397-.4414-.8223-.7558-.1797-.3145-.2773-.7618-.2891-1.337l-.0029-.875c.0049-.541.0039-.9795-.0029-1.3164-.0205-.9511-.0518-1.5175-.0947-1.7031-.0293-.123-.087-.21-.1758-.2568-.086-.0498-.418-.0733-.9991-.0713h0ZM106.5742,184.5059l-.085-.6523c.5313-.0977.835-.168.9092-.2159.0576-.041.1035-.0966.1289-.1718.043-.1358.0391-.42-.0068-.8565-.0791-.7803-.1602-1.4853-.2442-2.124-.1601-1.2266-.2724-1.9531-.334-2.1738-.0312-.1319-.0927-.2207-.1787-.2676-.0859-.044-.4306-.0371-1.0312.0195l-.0811-.6201c1.0567-.2432,1.8076-.4687,2.25-.6787l.7774-.4141c.0742-.0088.1191.0371.1318.1377l.0088.1123c.0254.3369.0801.8184.1621,1.4473.2354-.2969.4883-.6641.7617-1.1065.2041-.3281.3897-.5517.5576-.664.168-.1133.4004-.1914.6993-.2305.1699-.0215.3447-.0137.5253.0205.0215.5391.0831,1.2657.1866,2.1846l-.3369.1709c-.1495-.1904-.3018-.3174-.4561-.3799-.1553-.0654-.3477-.082-.5791-.0517-.3154.0419-.5762.1591-.7803.3535-.2041.1963-.3261.4023-.3603.6259-.0205.1622.0283.709.1494,1.6329.1767,1.3486.2978,2.1318.3623,2.3496.042.1465.1035.2412.1894.2822.1299.0664.5313.0693,1.2041.0146l.086.6514-.8926.0928c-.5674.0576-1.0576.1133-1.4707.167-.3896.0508-.8447.1191-1.3594.2031l-.8935.1416h0ZM120.955,181.0899l.1485.6406-.6123.1162c-.3243.0586-.6436.1231-.9649.1973-.4931.1142-.957.2383-1.3906.3721l-.0967-.0674-.1699-1.0987-1.3467,1.6006c-.2754.1338-.5263.2285-.751.2803-.5507.127-1.0156.0596-1.3935-.1992-.3779-.2588-.6377-.7022-.7842-1.335-.1797-.7773-.1006-1.373.2383-1.7861.4326-.5391,1.5185-1.1826,3.2588-1.9307-.1524-.6123-.3614-1.0332-.626-1.2627-.374-.3154-.8584-.4033-1.4541-.2666-.1416.0332-.2793.0821-.4209.1514-.1387.0684-.2764.1533-.4092.2627l-.1582.9121-.5752-.0078-.0654-.3535-.0869-.3438-.0801-.3095c.6836-.6788,1.1865-1.1241,1.5078-1.3282.2324-.1523.5762-.2822,1.0303-.3867.6172-.1426,1.1377-.1641,1.5683-.0693.4278.0976.7696.2842,1.0196.5644.2519.2754.4472.7207.5888,1.3321.0586.2558.1543.7158.2842,1.3808.1358.6826.251,1.2334.3467,1.6445.1504.6543.2617,1.0479.332,1.1807.0371.0781.1036.1309.1963.1602.0918.0293.3799.0107.8662-.0508h0ZM117.247,178.5528c-.874.4092-1.4248.7646-1.6455,1.0605-.2246.2969-.291.6416-.2012,1.0342.0743.3203.2208.5518.4415.6914.2187.1436.4668.1826.7363.1201.414-.0957.7851-.4267,1.1103-.9912l-.4414-1.915h0ZM119.0673,170.9913c.5987-.1797.9522-.2588,1.0645-.2334.0654.0127.1191.0439.1611.0986.0928.1113.3106.6592.6514,1.6504l1.1094,3.25c.4785,1.4131.8359,2.5078,1.0693,3.2851.1719.5586.2363.8926.1914,1-.0469.1084-.1943.211-.4453.3077l-.5557.2226.211.6231,2.2695-.8204c.3398-.1152.7637-.25,1.2666-.4033l.8106-.249-.211-.623c-.5244.1542-.8359.2255-.9316.2148-.0977-.0137-.1758-.0479-.2344-.1025-.0635-.0577-.1699-.2959-.3252-.7188-.248-.665-.4834-1.3242-.7041-1.9785-1.1016-3.25-1.9229-5.794-2.4648-7.6309l-.2569-.1015c-.4219.3515-.8242.6504-1.208.8935-.3828.2451-.9238.5381-1.6152.8789l.1474.4366h0ZM133.705,165.2373l-.3564-.5537c.9355-.5625,1.751-1.0683,2.4453-1.5146.4395-.2842,1.0527-.6983,1.8428-1.2451l.3554.5527c-.415.2676-.6835.4922-.8085.6738-.045.0616-.0674.128-.0684.2071-.0088.0937.0254.2216.1035.3838.1367.2675.582,1.0107,1.335,2.2207.5283.8408,1.0693,1.6914,1.625,2.5537.456.708.872,1.1767,1.247,1.4052.375.2276.7686.3233,1.1836.2842.5957-.0576,1.1612-.2588,1.6885-.5986.7236-.4658,1.1983-.9404,1.4238-1.4248.2295-.4844.2735-.9785.1319-1.4815-.1387-.5039-.666-1.4648-1.5772-2.8798l-1.6181-2.4991c-.3692-.5615-.6143-.8828-.7354-.9648-.0674-.044-.1455-.0625-.2334-.0479-.1504.0049-.5088.167-1.083.4844l-.3564-.5527c.6005-.3477,1.1494-.6817,1.6406-.9971.4258-.2744.9375-.624,1.54-1.0508l.3565.5528c-.4473.288-.6944.5185-.7403.6894-.0468.1699.0508.4688.295.8985.5996,1.0429,1.3076,2.2031,2.125,3.4833.5253.8155.8603,1.3565,1.0058,1.6221.3516.6533.541,1.2813.5733,1.8838.0302.6035-.1543,1.2334-.5567,1.8945-.4033.6602-1.04,1.2725-1.9082,1.8311-.9033.582-1.7432.9297-2.5156,1.0469-.7744.1133-1.4209.0468-1.9375-.2041-.5166-.251-1.0322-.7735-1.5479-1.5733l-1.9326-3.0625c-.1562-.2422-.5644-.8564-1.2256-1.8418-.209-.3056-.3808-.4951-.5107-.5713-.0772-.038-.1631-.0546-.2608-.04-.0976.0098-.4111.1563-.9453.4355h0ZM150.7246,166.6875c.7373-.6855,1.249-1.1533,1.5361-1.4043.4834-.4209,1.0879-.9257,1.8125-1.5136l-.4326-.4961c-.4951.3877-.8037.584-.9317.5869-.0976.0019-.2461-.0977-.4443-.2998-.1973-.2031-.9355-1.0361-2.21-2.499-.3007-.3457-.4648-.5625-.4921-.6524-.0772-.209-.0762-.4717.0039-.7881.08-.3134.2558-.5908.5312-.83.4277-.3731.8545-.4766,1.2842-.3086.333.1279.9463.706,1.8398,1.7314.7041.8076,1.3389,1.6445,1.8985,2.5049l.1347.0205,1.2188-1.126.4892-.4062.7676-.626-.4316-.4951c-.417.2978-.6631.4619-.7451.4892-.0791.0254-.166.0176-.2618-.0263-.1357-.0674-.3222-.2354-.5595-.5088-.416-.4776-.8994-1.0528-1.4502-1.7256-.2647-.3291-.5039-.6152-.7158-.8594-.4795-.5498-.8965-.8994-1.25-1.0498-.3545-.1523-.7315-.1806-1.1319-.0928-.4004.0909-.8144.3213-1.2422.6934-.2519.2197-.4482.4336-.582.6348-.0937.1465-.1543.3193-.1836.5234l-.25,1.6035c-.4082-.4697-.6543-.7646-.7412-.8887l-.043-.0615c-.081-.0927-.1494-.1133-.205-.0644l-.1143.1982c-.208.3955-.5029.8418-.8809,1.3389-.3808.4941-.6796.8388-.8974,1.0283l.4111.4717c.4346-.3574.6826-.5479.7402-.5694.0547-.0214.1094-.0263.1563-.0087.0596.0175.1904.1386.3955.3574.3369.3525.7275.7842,1.1699,1.2929.8975,1.0293,1.5117,1.7588,1.8418,2.1875.128.1719.1846.3047.1709.4004-.0166.0938-.2275.3409-.6387.7422l.4327.4951Z" fill="#231916" fill-rule="evenodd" stroke-width="0"/><path d="M151.8457,149.8555c.2363-.248.5254-.3779.8711-.3867s.6425.1074.8955.3476c.25.2383.3798.5274.3877.8721.0097.3447-.1075.6426-.3467.8955-.2383.25-.5283.3799-.8731.3887-.3447.0088-.6406-.1064-.8906-.3438-.2529-.2402-.3838-.5312-.3926-.8759-.0088-.3448.1074-.6436.3487-.8975h0ZM158.7548,159.5147c.8301-.9199,1.3409-1.4824,1.5362-1.6865.3642-.3838.8916-.9151,1.5801-1.5918l-.4766-.4541c-.4668.4199-.7422.6416-.8272.6591-.0849.0186-.1962-.0195-.3339-.1132-.1963-.1368-.7061-.5948-1.5264-1.375-1.419-1.3487-2.4736-2.4034-3.1641-3.1651l-.2549.0332c-.3144.8555-.8779,1.7832-1.6962,2.7871l.4531.4307.4355-.4219c.2119-.207.3662-.3095.4649-.3105.0996.0029.2588.1094.4863.3252l.6963.6269c.3193.2813.6592.5928,1.0185.9346.834.793,1.3594,1.3232,1.5743,1.5869.1611.1885.2275.333.2011.4404-.0244.1055-.2402.3848-.6435.8409l.4765.4531h0ZM157.3086,151.1016l-.5157-.4082,1.3242-1.5918c.4317-.5459.8829-1.1406,1.3506-1.7842l.5157.4082c-.2969.4014-.4581.6524-.4834.751-.0254.1025.0019.1826.082.2461.0508.041.165.0957.3476.1709l1.3477.4521,2.8301.8819-1.2705-2.3428c-.5918-1.0889-.9678-1.6973-1.127-1.8232-.0869-.0694-.1748-.083-.2597-.0381-.086.0439-.3018.2676-.6475.6689l-.5166-.4092c.46-.5273.8271-.9638,1.0996-1.3076.2959-.374.5996-.7832.9131-1.2324l.5156.4092c-.2529.3457-.3769.5898-.3701.7314s.2842.7539.8281,1.8379c.5449,1.083,1.4063,2.6885,2.5879,4.8164l-.8789,1.1094c-.9775-.3242-2.3848-.7598-4.2168-1.3086-1.1973-.3545-1.9873-.581-2.3691-.6777-.2471-.0586-.4258-.0713-.5352-.0352-.1113.0342-.293.1944-.5517.4756h0ZM171.4033,140.837c-.0127.3427-.0635.6611-.1475.9619-.0879.3017-.2129.5791-.3769.8359-.3916.6152-.9112.9961-1.5557,1.1416-.6465.1475-1.3799.0078-2.1992-.4199l.9346-1.4678c.414-.6499.7177-1.1518.9121-1.5093l.5058-1.2378c-.2187-.1655-.3847-.2841-.498-.3564-.917-.5845-1.7383-.7661-2.46-.5464s-1.3183.6978-1.791,1.44c-.3076.4834-.4873.9936-.5361,1.5307-.0498.5371-.0596,1.0313-.0254,1.4888.0342.457.1816.8633.4414,1.2207.3242.4404.8125.8682,1.4658,1.2851,1.0361.6602,2.0195.8858,2.9521.6836.9317-.2031,1.712-.7949,2.3389-1.7802.2686-.42.4688-.8477.6045-1.2852s.208-.8823.2119-1.3379l-.4541-.7153-.3232.0679h0ZM166.375,142.9385c-.5733-.4306-.9434-.7568-1.1065-.9809-.1611-.2227-.2451-.462-.2519-.7129-.0079-.252.0664-.501.2216-.7461.2207-.3467.5235-.541.9073-.5825.3867-.0401.8564.1157,1.4091.4677l.3145.2105c-.2139.4165-.4336.8032-.6602,1.1592-.2597.4067-.5371.8022-.8339,1.185h0ZM173.7109,140.0264l-.585-.3022c.2237-.4922.3389-.7813.3409-.8697,0-.0713-.0196-.1401-.0665-.2041-.0878-.1128-.3232-.2715-.708-.4824-.6865-.3799-1.3125-.7153-1.8847-1.0107-1.0987-.5674-1.7588-.8897-1.9766-.9649-.125-.0493-.2334-.0498-.3213-.0053-.0849.0454-.2763.332-.5722.8579l-.5557-.2871c.4033-1.0074.6465-1.752.7256-2.2354l.1035-.875c.0342-.0659.0977-.0762.1885-.0298l.0976.0567c.2901.1718.7178.4018,1.2803.6919-.1094-.3619-.2666-.7789-.4736-1.2564-.1543-.354-.2315-.6348-.2285-.8369.0029-.2022.0722-.438.2099-.7061.0781-.1508.1846-.2905.3164-.4199.4551.2905,1.0869.6543,1.9004,1.0928l-.0508.3745c-.2422.0142-.4326.0669-.5732.1582-.1416.0903-.2656.2393-.3721.4468-.1455.2822-.1982.5635-.1543.8423.044.2788.1446.4975.3076.6528.1221.1089.5996.3804,1.4278.8076,1.208.624,1.9209.9707,2.1367,1.0425.1445.0498.2568.0527.3398.0059.1289-.0699.3604-.398.6983-.982l.584.3018-.4327.7856c-.2763.4986-.5097.9336-.7011,1.3037-.1797.3487-.3838.7613-.6084,1.2315l-.3926.8154h0ZM175.1015,131.5884l-.251.6436c.9288.3799,1.5997.6831,2.0137.9096l.1699-.0634c.2989-.375.5557-.731.7657-1.0669.2109-.3355.3759-.6533.4912-.9502.3515-.9014.4297-1.7652.2373-2.5908-.1953-.8272-.7149-1.4034-1.5576-1.732-.4395-.1719-.8379-.2207-1.1944-.1513-.3574.0698-.6767.248-.9638.5395-.1661.1763-.4043.5156-.7149,1.0181-.4531.73-.7969,1.167-1.04,1.3135-.2344.1494-.4854.1728-.7481.0698-.2832-.1104-.4736-.3174-.5703-.6197-.0957-.3051-.0644-.6635.0977-1.08.1279-.3296.3144-.6104.5615-.8433.1816-.1704.3584-.2632.5322-.2837.1143-.0176.4473.0654.9981.2451l.2334-.5976c-.8457-.3594-1.459-.6514-1.8389-.876-.4863.5371-.873,1.1743-1.1602,1.9097-.2753.7075-.3955,1.3144-.3623,1.8247.0352.5078.1846.9458.4502,1.3144.2666.3657.628.6397,1.0869.8184.3887.1518.753.2056,1.0948.1592.3379-.0445.6308-.169.876-.3736.2421-.208.6279-.705,1.1572-1.4961.3457-.5244.6367-.8403.8711-.9492.2314-.1098.4892-.1089.7754.0025.33.1289.5459.3515.6533.6704.1064.3178.0644.7192-.125,1.2041-.1553.3984-.3672.7158-.6397.9541-.2734.2402-.5322.375-.7812.4018-.0899.0117-.4619-.0981-1.1182-.3247h0ZM169.7021,120.1446c.1084-.3252.3164-.565.625-.7188.3086-.1543.6279-.1743.958-.0644.3272.1098.5674.3178.7217.6264.1533.3091.1738.6275.0635.9576-.1094.3281-.3174.5678-.626.7216s-.625.1753-.9522.0655c-.331-.1104-.5732-.3184-.7265-.6275-.1543-.3086-.1748-.6279-.0635-.9604h0ZM180.0488,125.9722l-.6231-.2085c.1719-.584.25-.9282.2276-1.0337-.0215-.1089-.1426-.2129-.3692-.3149-.3056-.1485-1.0058-.4063-2.0976-.7715-.4707-.1572-.9102-.2954-1.3184-.415l-.8965-.274c-.2968-.0991-.4863-.1284-.5781-.0893-.0889.0425-.1855.2011-.29.478l-.2149.5669-.5937-.1987c.3164-1.2554.4355-2.3345.3574-3.2422l.2168-.1387c.9473.3984,2.3496.9082,4.2061,1.5293,1.0742.3594,1.7294.5586,1.9648.5996.165.0264.2822.0132.3506-.0386.0703-.0522.2256-.3696.4707-.9467l.624.2085c-.3379.9047-.5908,1.6093-.7588,2.1108-.0898.2681-.3154.9937-.6777,2.1787h0ZM175.6367,118.9624l-.4453-1.1992c-.9239-.2007-1.7403-.3593-2.4414-.4756-.0567-.7583-.17-1.4897-.3379-2.1923l.2324-.1939c.7295.2905,1.7266.604,2.9883.9385.0976-.2305.1738-.4639.2275-.6963.1221-.5313.1943-1.0181.2158-1.4575l.0645-.0586.2646.1338c.2754.1474.5323.2651.7696.3598-.1827.5992-.3067,1.0435-.3721,1.3286-.0488.2139-.0859.4249-.1113.6329.5244.1318.9873.2436,1.3906.3359,1.7529.4019,2.7617.5771,3.0264.5283.2646-.0493.4414-.2671.5302-.6572.0264-.1148.042-.2412.045-.3804.0068-.1396.0019-.29-.0118-.4502l.3301-.0649c.2764.3921.5703.7778.8789,1.1606-.0127.1997-.0312.3809-.0527.545-.0205.1635-.0469.3149-.0772.4487-.0996.436-.2588.7847-.4785,1.0434-.2197.2593-.4629.4258-.7344.5039-.2705.0762-.6416.0611-1.1162-.0478-.2519-.0576-.9062-.2217-1.9658-.4932-.9267-.2407-1.6641-.4238-2.206-.5483l-.1084.3975c-.0381.1655-.0713.3828-.0987.6518l-.4062-.0933h0ZM176.4179,113.3301c.1094-.4316.2012-.6914.2783-.7783.0791-.0889.2217-.1558.4307-.2056l2.5742-.5551,4.7803-.9815c1.002.6675,1.5967,1.1358,1.7842,1.4024.1865.2661.25.5722.1894.9209-.0722.4101-.3076.7392-.707.9892l.0322.2261c.4873.1435.9785.3237,1.4776.542.249-.3687.4033-.731.4668-1.0904.0615-.3564.0566-.6914-.0176-1.0019-.0733-.3135-.2158-.6138-.4297-.9014-.2109-.29-.6104-.6469-1.1934-1.0688l-2.875-1.9107-3.1103-2.06c-1.2383-.815-1.9063-1.2744-2.0088-1.378-.0684-.0673-.1143-.1372-.1396-.2143-.0508-.1753-.0538-.3931-.0088-.6524l-.6485-.1132c-.1074.8076-.1777,1.3051-.2109,1.4965-.0303.1729-.1006.525-.2119,1.0542l-.1094.4952.6484.1137c.1045-.4712.1866-.7495.2491-.833.0586-.0844.1455-.1167.2558-.0971.2373.041,1.0684.5258,2.4981,1.455l1.5947,1.0352-2.3301.4809c-1.3916.2916-2.1689.4224-2.3262.3951-.1162-.0205-.1914-.0835-.2236-.1841-.0351-.1006-.0195-.3985.044-.8906l-.6475-.1138c-.1162.8594-.2168,1.5234-.2988,1.9932-.0586.3378-.21,1.1103-.4541,2.3173l.6474.1133Z" fill="#231916" fill-rule="evenodd" stroke-width="0"/><circle cx="95.8527" cy="97.1228" r="73.2362" transform="translate(-40.6016 96.2247) rotate(-45)" fill="#008283" stroke-width="0"/><path d="M57.5595,59.3902c2.0752,0,3.7569,1.269,3.7569,2.834s-1.6817,2.8339-3.7569,2.8339-3.7568-1.2685-3.7568-2.8339,1.6816-2.834,3.7568-2.834h0ZM165.5498,74.9175h-24.2364v-.7842h.001v-.8652l1.6221-2.3169h.5976v-1.2842h-.3408l.0029-.0019-1.6328-2.332v-9.8897h-.2275l1.5742-2.248h.624v-1.2837h-.8281l-7.0635-5.7198v-1.8667c.458-.2822.7637-.788.7637-1.3657,0-.8291-.6289-1.5107-1.4355-1.5937-.4307-1.461-.7784-4.4488-.7403-5.1294h-.5302c.039.6806-.3086,3.6689-.7393,5.1294-.8066.083-1.4365.7646-1.4365,1.5937,0,.5318.2597,1.0025.6582,1.2944v1.9439l-7.0567,5.7139h-1.4209v1.2837h.8135l1.5742,2.248h-.0224v9.5962l-1.6817,2.4023-.0058-.0083c-.1455-2.2353-1.4688-3.0542-3.8213-2.8554.0547-.8565-.041-2.0303-1.1045-2.6851,3.0752.1235,4.4531-3.7085,1.4014-5.0317-2.6153-1.1338-6.3252,1.3799-3.9483,4.0761-1.5-.0991-2.6182.523-3.206.9126.08-1.8925-.6914-3.2924-3.2471-3.4599-5.0567-.3306-4.6465,1.3525-5.1807,1.2734-.6181-.0908.2188-1.2456-.8984-2.7182-1.3037-1.7193-2.4063-.9146-2.3711-1.6123.0225-.42,3.8848-.4595,2.7764-4.4039-1.0254-3.6489-4.7354-2.4624-5.1954-2.6015,1.0518-1.0108.6114-3.2573-1.7197-3.0781,1.1963-1.2881-.0918-3.1485-1.3799-2.9507l-.166-.0113v-10.9111h-1.2051v10.9111l-.165.0113c-1.2881-.1978-2.5771,1.6626-1.3809,2.9507-2.331-.1792-2.7705,2.0673-1.7187,3.0781-.46.1391-4.1709-1.0474-5.1953,2.6015-1.1094,3.9444,2.7539,3.9839,2.7754,4.4039.0361.6977-1.0664-.107-2.3701,1.6123-1.1182,1.4726-.2813,2.6274-.8995,2.7182-.5332.0791-.124-1.604-5.1796-1.2734-2.5567.1675-3.3282,1.5674-3.2481,3.4599-.5869-.3896-1.7051-1.0117-3.2051-.9126,2.377-2.6962-1.333-5.2099-3.9482-4.0761-3.0518,1.3232-1.6738,5.1552,1.4004,5.0317-1.0635.6548-1.1592,1.8286-1.1035,2.6851-2.3526-.1988-3.6768.6201-3.8213,2.8554l-1.6885-2.394v-9.5962l1.5527-2.248h.8135v-1.2837h-1.4219l-7.0556-5.7139v-1.9439c.3984-.2919.6572-.7626.6572-1.2944,0-.8291-.6289-1.5107-1.4356-1.5937-.4306-1.4605-.7783-4.4488-.7402-5.1294h-.5303c.0391.6806-.3086,3.6684-.7392,5.1294-.8067.083-1.4365.7646-1.4365,1.5937,0,.5777.3056,1.0835.7646,1.3657v1.8667l-7.0635,5.7198h-.8291v1.2837h.6241l1.3466,1.9238v10.2139l-1.6318,2.332-.3389.0019v1.2842h.5977l1.6221,2.3169v.8652h.0009v.7842h-23.9707c-.1357.4258-.2666.8545-.3945,1.2837h24.3652v5.2129h-25.7099c-.0938.4268-.1856.854-.2715,1.2837h25.9814v1.4756h-26.2646c-.0762.4263-.1436.8555-.2129,1.2837h26.4775v38.6264h-22.2754c.1709.4302.3457.8579.5245,1.2837h21.7509v9.6831h-16.8164c.2617.4312.5303.8584.8018,1.2842l31.1523.001v-.9082l7.6123-8.3076h45.6875l7.6123,8.3076v.9082h1.6045v-.0015h29.8135c.2715-.4258.5391-.8525.8018-1.2837h-17.0821v-9.6831h22.0166c.1778-.4258.3536-.8535.5244-1.2837h-22.541v-38.6264h26.7422c-.0674-.4287-.1357-.8574-.2119-1.2837h-26.5303v-1.4756h26.2471c-.0879-.4292-.1777-.8569-.2715-1.2837h-25.9756v-5.2129h24.6309c-.1279-.4297-.2588-.8579-.3945-1.2837h0ZM168.5175,88.8443c.0479.4267.0928.8545.1338,1.2832h-22.0019v28.9975h18.9658c-.1348.4297-.2734.858-.416,1.2842h-20.1543v-31.5649h23.4726ZM26.5058,120.4092c-.1435-.4262-.2812-.8545-.417-1.2842h18.7012v-28.9975h-21.7363c.04-.4292.0859-.8565.1338-1.2832h23.207v31.5649h-19.8887ZM110.5478,147.252h-2.9424v-.043c0-1.0976.4864-1.9599,1.4639-2.5888.9766-.626,2.3184-.9405,4.0293-.9405,1.7226,0,3.0879.2784,4.0869.833,1.0039.5557,1.5059,1.3037,1.5059,2.2442,0,.6689-.2618,1.2529-.7901,1.75-.5293.498-1.5176,1.0459-2.9736,1.6465-.2969.1259-.707.2929-1.2285.5019-1.4405.5713-2.2471,1.0098-2.4141,1.3125h7.251v1.7012h-11.2051c.0313-.9082.3389-1.668.9248-2.2774.5879-.6123,1.6416-1.2412,3.1621-1.8818.2403-.1025.5821-.2432,1.0274-.4189,1.9883-.7911,2.9843-1.5606,2.9843-2.3077,0-.4384-.2128-.7861-.6425-1.0439-.4258-.2598-1.0039-.3877-1.7305-.3877-.7939,0-1.4141.1572-1.8506.4736-.4375.3174-.6582.7647-.6582,1.3438v.083h0ZM95.0166,148.6807c0-1.6357.4765-2.8789,1.4345-3.7295.9561-.8476,2.3594-1.2715,4.2139-1.2715,1.8799,0,3.292.4287,4.2256,1.2832.9385.8555,1.4082,2.1436,1.4082,3.8633,0,1.7217-.4658,3.0039-1.3965,3.8467-.9307.8457-2.3418,1.2666-4.2373,1.2666-1.9141,0-3.332-.4307-4.2588-1.29-.9277-.8604-1.3896-2.1827-1.3896-3.9688h0ZM100.6425,145.3516c-.8154,0-1.414.2715-1.8017.8164-.3916.543-.585,1.3867-.585,2.5274,0,1.2744.1865,2.1914.5625,2.748.3721.5596.9785.8389,1.8242.8389.834,0,1.4444-.2764,1.8321-.8311.3906-.5527.584-1.4336.584-2.6387,0-1.208-.1934-2.0888-.584-2.6367-.3877-.5508-.9981-.8242-1.8321-.8242h0ZM82.6689,151.4112l3.208-.0078c.0596.3125.2481.5527.5723.7236.3271.1699.7529.2549,1.2832.2549.8398,0,1.4726-.2119,1.8974-.6377.4297-.4238.6748-1.0889.7422-1.9912-.3613.2285-.7939.4023-1.3017.5215-.5088.1191-1.0742.1787-1.6983.1787-1.5556,0-2.7988-.295-3.7314-.8858-.9346-.5908-1.4014-1.3818-1.4014-2.372,0-1.0508.5078-1.8985,1.5215-2.5469,1.0166-.6446,2.3564-.9688,4.0176-.9688,1.9199,0,3.3808.4219,4.3867,1.2617,1.0049.8438,1.5059,2.0655,1.5059,3.6709,0,1.7286-.5342,3.0557-1.6045,3.9747-1.0723.9218-2.6162,1.3818-4.6309,1.3818-1.3896,0-2.5156-.2334-3.3769-.6982-.8594-.4668-1.3223-1.086-1.3897-1.8594h0ZM87.9101,148.8389c.7559,0,1.3516-.1484,1.7774-.4463.4248-.2969.6396-.7119.6396-1.2431,0-.5713-.2256-1.0235-.6777-1.3575-.4561-.331-1.0694-.498-1.8487-.498-.7226,0-1.2949.1621-1.7168.4863-.4257.3213-.6367.7598-.6367,1.3145,0,.5478.2149.9765.6485,1.2841.4287.3067,1.0351.46,1.8144.46h0ZM76.6289,146.8379h-3.9903v-1.4004h.1631c1.5332,0,2.624-.1308,3.2735-.3906.6494-.2597,1.04-.7168,1.1699-1.3672h2.6806v9.9893h-3.2968v-6.8311h0ZM133.8603,59.3902c2.0752,0,3.7568,1.269,3.7568,2.834s-1.6816,2.8339-3.7568,2.8339-3.7578-1.2685-3.7578-2.8339,1.6816-2.834,3.7578-2.834h0ZM95.7197,65.315c12.7822-.1426,22.2295,3.1162,30.456,13.7129v54.5078l-6.998-7.6377v-38.5825c1.7607,2.2002,2.9844,4.4516,3.7773,6.2519.4786,1.0835,1.6182,1.0376,2.6016.9986.1699-.0069.335-.0137.457-.0122l.0186-1.5982c-.1836-.0024-.3574.0049-.5381.0122-.4785.0191-1.0332.041-1.0723-.0464-1.0117-2.2968-2.6924-5.2934-5.2441-8.0595l-.377-.4004c-1.917-1.9917-4.3007-3.8389-7.2314-5.1846-2.1143-.9712-3.8018-1.6948-5.4844-2.2231-1.709-.5362-3.4053-.8721-5.5137-1.0591-.2802-.0249-.5673-.0249-.8486-.0083-.7969-1.356-2.2695-2.2661-3.956-2.2661l-.0469.0004-.0469-.0004c-1.6855,0-3.1592.9101-3.956,2.2661-.2813-.0166-.5684-.0166-.8477.0083-2.1094.187-3.8047.5229-5.5137,1.0591-1.6826.5283-3.3701,1.2519-5.4853,2.2231-2.9297,1.3457-5.3145,3.1929-7.2305,5.1846l-.3769.4004c-2.5528,2.7661-4.2325,5.7627-5.2442,8.0595-.0527.1177-1.2861.0327-1.5517.0337h-.2032v-13.9272c8.2266-10.5967,17.6739-13.8555,30.4561-13.7129h0ZM95.7197,82.8897l.0469.0005c2.082,0,3.8398-1.3882,4.3994-3.2886.0322-.0278.0664-.0547.1025-.081.2695-.3213.6738-.5259,1.126-.5259.3642,0,.6973.1328.9541.352.0664.0493.1299.106.1875.1724,1.0547,1.2046,4.5058,1.1191,5.3232,1.0815.0821.5274.5391.9317,1.0899.9317.6094,0,1.1035-.4947,1.1035-1.1035,0-.0293-.001-.0586-.0029-.087.2773.125.5615.2549.8554.3897.5742.2637,1.127.5488,1.6573.8516v1.8872h-33.6856v-1.8872c.5313-.3028,1.083-.5879,1.6582-.8516.293-.1348.5781-.2647.8555-.3897-.0508.6407.4551,1.1905,1.0996,1.1905.5508,0,1.0078-.4043,1.0908-.9317.8164.0376,4.2676.1231,5.3233-1.0815.0576-.0664.1201-.1231.1865-.1724.2568-.2192.5898-.352.9541-.352.4531,0,.8574.2046,1.1269.5259.0362.0263.0703.0532.1016.081.5596,1.9004,2.3174,3.2886,4.3994,3.2886l.0469-.0005h0ZM95.7197,84.7539h16.8428v41.0821h-3.417v-1.521l.0029-.0029-.0029-.0025v-17.6533h-.0225c-.1865-2.9253-1.7207-5.5459-4.0996-7.4502-2.4053-1.9268-5.6846-3.125-9.2969-3.1553h-.0254c-3.6074.0327-6.8818,1.231-9.2851,3.1553-2.3789,1.9043-3.9131,4.5249-4.0987,7.4502-.0078,6.3931-.0224,12.79-.0224,19.1797h-3.418v-41.0821h16.8428ZM95.7197,97.649c3.2383.0283,6.164,1.0932,8.3008,2.8037,2.0996,1.6811,3.4287,3.9844,3.5175,6.5254h.003v15.8608l-4.5449-4.1636v-16.227h-14.5528v16.227l-4.5439,4.1636.0019-15.8608c.0889-2.541,1.419-4.8443,3.5186-6.5254,2.1357-1.7105,5.0625-2.7754,8.2998-2.8037h0ZM95.7197,103.7315h5.9931v14.2129h-11.9853v-14.2129h5.9922ZM95.7197,119.2286h5.9883l4.3515,3.9863h-20.6787l4.3506-3.9863h5.9883ZM95.7197,124.4991h11.7412l.0801.0732v1.2637h-23.6416v-1.2637l.08-.0732h11.7403ZM117.5732,85.4942v40.3418h-3.4063v-43.2407c1.2764.8842,2.4063,1.8696,3.4063,2.8989h0ZM96.0722,67.3404c1.3242,0,2.4072,1.083,2.4072,2.4067v.7051c0,1.3237-1.083,2.4072-2.4072,2.4072h-.7051c-1.3232,0-2.4062-1.0835-2.4062-2.4072v-.7051c0-1.3237,1.083-2.4067,2.4062-2.4067h.7051ZM105.7168,68.7188c1.3242,0,2.4072,1.083,2.4072,2.4072v.7051c0,1.3237-1.083,2.4067-2.4072,2.4067h-.7051c-1.3242,0-2.4073-1.083-2.4073-2.4067v-.7051c0-1.3242,1.0831-2.4072,2.4073-2.4072h.7051ZM114.081,72.0728c1.3242,0,2.4072,1.083,2.4072,2.4067v.7056c0,1.3237-1.083,2.4067-2.4072,2.4067h-.7051c-1.3242,0-2.4072-1.083-2.4072-2.4067v-.7056c0-1.3237,1.083-2.4067,2.4072-2.4067h.7051ZM121.3252,77.5713c1.3242,0,2.4072,1.083,2.4072,2.4068v.7055c0,1.3238-1.083,2.4068-2.4072,2.4068h-.7051c-1.3242,0-2.4073-1.083-2.4073-2.4068v-.7055c0-1.3238,1.0831-2.4068,2.4073-2.4068h.7051ZM95.7197,93.9527h-14.0742v-6.9844c4.6914,0,9.3828.0005,14.0742.0005h12.4697v-.0005h1.6055v6.9844h-14.0752ZM95.7197,88.2525h12.4697v4.4165h-24.9394v-4.4165h12.4697ZM129.7841,92.8042v-.1274l3.917-1.9951,3.916,1.9951v14.1377l-3.916,1.9951-3.917-1.9951v-14.0103h0ZM137.331,113.2579v7.2602h-7.2607v-7.2602h7.2607ZM137.331,79.1231v7.2602h-7.2607v-7.2602h7.2607ZM141.247,69.667h-15.0654l1.4795-2.1128h12.1064l1.4795,2.1128h0ZM139.6572,72.8492h-11.8858l-1.3291-1.898h14.544l-1.3291,1.898h0ZM140.9599,55.1954l-1.2793,1.8266h-11.9326l-1.2793-1.8266h14.4912ZM133.916,48.8526l6.248,5.0591h-12.4961l6.2481-5.0591h0ZM127.6748,58.3052h12.2841v7.9654h-12.2841v-7.9654h0ZM139.7089,74.1333v60.917h-11.9287v-60.917h11.9287ZM133.8593,60.8345c1.2774,0,2.3135.6221,2.3135,1.3897s-1.0361,1.3901-2.3135,1.3901-2.3125-.6226-2.3125-1.3901,1.0352-1.3897,2.3125-1.3897h0ZM65.2636,94.5533h.1631v.0005c1.1026-.0142,2.4971.2846,3.0576-.9864.793-1.8003,2.0166-4.0517,3.7784-6.2519v38.5825l-6.9991,7.6377v-38.9824h0ZM73.8671,85.4942c.9991-1.0293,2.1299-2.0147,3.4053-2.8989v43.2407h-3.4053v-40.3418h0ZM85.7226,68.7188h.7061c1.3232,0,2.4062,1.083,2.4062,2.4072v.7051c0,1.3237-1.083,2.4067-2.4062,2.4067h-.7061c-1.3232,0-2.4062-1.083-2.4062-2.4067v-.7051c0-1.3242,1.083-2.4072,2.4062-2.4072h0ZM77.3584,72.0728h.706c1.3242,0,2.4072,1.083,2.4072,2.4067v.7056c0,1.3237-1.083,2.4067-2.4072,2.4067h-.706c-1.3233,0-2.4063-1.083-2.4063-2.4067v-.7056c0-1.3237,1.083-2.4067,2.4063-2.4067h0ZM70.1142,77.5713h.7061c1.3232,0,2.4072,1.083,2.4072,2.4068v.7055c0,1.3238-1.084,2.4068-2.4072,2.4068h-.7061c-1.3232,0-2.4062-1.083-2.4062-2.4068v-.7055c0-1.3238,1.083-2.4068,2.4062-2.4068h0ZM61.6552,106.8145l-3.916,1.9951-3.917-1.9951v-14.1377l3.917-1.9951,3.916,1.9951v14.1377h0ZM54.1084,113.2579h7.2607v7.2602h-7.2607v-7.2602h0ZM54.1084,79.1231h7.2607v7.2602h-7.2607v-7.2602h0ZM50.1933,69.667l1.4795-2.1128h12.1065l1.4785,2.1128h-15.0645ZM51.7832,72.8492l-1.3291-1.898h14.5429l-1.3281,1.898h-11.8857ZM50.4804,55.1954h14.4903l-1.2784,1.8266h-11.9336l-1.2783-1.8266h0ZM57.5234,48.8526l6.248,5.0591h-12.4951l6.2471-5.0591h0ZM63.7646,58.3052h-12.2832v7.9654h12.2832v-7.9654h0ZM51.7304,74.1333h11.9287v60.917h-11.9287v-60.917h0ZM57.5595,60.8345c-1.2773,0-2.3134.6221-2.3134,1.3897s1.0361,1.3901,2.3134,1.3901,2.3125-.6226,2.3125-1.3901-1.0351-1.3897-2.3125-1.3897Z" fill="#fff" fill-rule="evenodd" stroke-width="0"/></g></svg>