<svg xmlns="http://www.w3.org/2000/svg" xmlns:xlink="http://www.w3.org/1999/xlink" width="499.43260192871094" height="499.6824035644531" viewBox="0 0 499.43260192871094 499.6824035644531" fill="none">
<g  clip-path="url(#clip-path-VFT1ZhdJnO2ziEbnWyxEq)">
<path d="M222.241 1.4967C263.371 -3.0233 305.631 2.7167 343.931 18.4167C399.431 40.8967 446.111 84.1267 472.881 137.677C495.081 181.517 503.611 232.017 497.521 280.757C493.011 317.717 480.001 353.597 459.821 384.887C439.231 416.907 411.241 444.147 378.651 463.827C346.881 483.067 310.731 495.057 273.751 498.527C224.871 503.267 174.631 493.367 131.441 469.927C76.8013 440.647 33.8413 390.337 13.7113 331.687C-1.14871 288.927 -3.95871 242.117 5.42129 197.847C15.4613 149.967 40.1413 105.357 75.1513 71.2167C114.581 32.4367 167.221 7.3567 222.241 1.4967ZM223.331 10.6467C202.961 12.8967 182.871 17.7067 163.741 25.0567C117.871 42.5567 77.7213 74.5567 50.3113 115.277C24.1613 153.817 9.70129 200.127 9.23129 246.697C8.6713 284.757 17.3013 322.937 34.3213 356.997C50.0713 388.687 72.9613 416.767 100.711 438.717C140.051 469.977 189.431 488.357 239.661 490.257C278.851 491.927 318.431 483.897 353.751 466.827C388.501 450.177 419.051 424.967 442.161 394.157C463.721 365.477 478.751 331.897 485.661 296.677C495.101 248.997 489.831 198.477 470.341 153.917C446.421 98.5067 400.811 52.9067 345.381 29.0167C307.221 12.3567 264.681 6.10673 223.331 10.6467Z"   fill="#005CA1" >
</path>
<path d="M205.981 24.0967C208.761 24.0367 211.371 24.9767 213.021 27.2967C211.191 29.6567 211.081 32.6067 211.051 35.4567C212.561 33.0667 214.501 30.1467 217.711 30.3367C220.101 30.6767 221.751 32.4267 222.451 34.6667C218.891 37.5967 213.881 37.0667 210.381 40.0067C211.781 40.4967 213.241 40.3567 214.601 39.8367C218.681 38.5567 222.871 37.5667 226.801 35.8267C228.831 36.6567 232.251 38.0467 230.711 40.8867C228.231 41.4467 225.651 40.6767 223.161 41.2367C219.151 42.1067 215.281 43.4967 211.231 44.1867C210.831 44.9667 210.421 45.7367 210.011 46.5067C212.381 45.7867 215.001 44.3967 217.441 45.6567C218.631 46.8067 217.291 48.4367 216.311 49.1467C214.251 50.3767 212.141 51.5767 210.391 53.2467C213.591 51.8667 216.931 50.5667 220.501 51.1867C217.951 55.3667 211.681 54.9167 209.591 59.3667C212.521 57.9167 215.741 57.2667 219.001 57.7867C217.151 60.5967 213.501 61.6767 212.061 64.7767C216.231 63.2367 220.391 61.0867 224.991 61.9267C222.811 66.7167 216.951 65.9167 213.081 68.3567C212.881 71.0267 213.181 73.6967 213.661 76.3267C215.631 75.5367 217.591 74.7367 219.551 73.9067C218.671 72.9367 217.921 71.8767 217.291 70.7367C218.681 68.6167 221.461 69.4267 223.581 69.4467C226.641 69.8867 230.481 70.5667 231.811 73.7867C229.971 76.0267 226.811 75.7567 224.491 74.5067C221.091 74.8467 217.681 75.2267 214.471 76.4567C214.211 78.4867 214.261 80.6067 213.491 82.5267C212.791 84.6067 210.251 83.7967 208.601 84.2067C208.451 83.4967 208.161 82.0867 208.011 81.3767C204.321 79.7467 200.761 76.5067 196.471 77.6167C197.821 80.7467 200.831 84.2567 197.891 87.4567C193.981 85.8567 192.431 80.9267 188.181 80.2267C188.821 78.8867 189.251 77.4067 190.191 76.2267C192.931 74.6567 195.781 73.1567 197.811 70.6467C198.821 70.0167 199.841 69.3967 200.811 68.6967C198.111 69.8467 195.781 71.6467 193.581 73.5567C192.061 73.9367 190.551 74.3367 189.041 74.7167C190.931 68.7867 197.491 66.4167 201.621 62.2567C202.101 62.6767 202.591 63.0967 203.071 63.5267C203.431 63.1667 204.151 62.4567 204.511 62.0967C203.951 61.4867 203.411 60.8567 202.871 60.2467C197.941 62.4167 194.081 66.6367 188.681 67.7067C188.861 65.8567 189.291 63.9067 191.071 62.9567C195.181 60.0967 199.091 56.9767 203.101 53.9767C203.201 53.7767 203.391 53.3567 203.491 53.1467C200.801 54.5867 197.811 55.5467 195.491 57.5767C194.361 58.3167 193.121 59.9067 191.621 58.9767C190.861 56.6567 192.281 54.3267 194.151 53.0367C197.541 50.5167 201.271 48.4867 204.611 45.8967C201.531 47.2667 198.571 48.8767 195.571 50.3867C195.531 49.9667 195.461 49.1367 195.421 48.7167C195.551 50.9767 193.431 51.8967 191.821 52.8967C186.411 56.0467 180.851 59.1667 176.551 63.8067C173.711 65.6767 172.321 61.7267 171.171 59.8467C171.621 59.4267 172.501 58.5767 172.951 58.1567C178.091 56.9067 182.401 53.6667 186.971 51.1467C185.741 50.0667 184.331 49.1267 183.431 47.7267C182.771 45.1567 185.021 42.7367 187.631 42.8267C187.411 43.6367 186.981 45.2767 186.771 46.0867C188.921 45.3467 191.931 45.2067 192.961 42.8067C193.401 40.6367 192.541 38.6667 190.921 37.2567C191.061 36.7667 191.361 35.7867 191.501 35.2967C194.331 34.8067 197.021 35.4167 199.241 37.2367C199.151 38.0367 198.961 39.6167 198.871 40.4067C200.171 39.7367 202.761 38.3867 204.051 37.7167L200.721 42.1467C202.571 42.0467 203.871 41.1767 204.601 39.5367C204.771 39.5567 205.111 39.6067 205.281 39.6267C205.001 36.0167 205.261 32.3967 205.331 28.7867C204.321 29.6367 202.321 31.3167 201.321 32.1567C202.711 29.3767 204.281 26.6967 205.981 24.0967ZM193.031 46.5567C192.131 47.0967 190.561 47.9367 190.881 49.1967C192.471 50.3867 195.951 46.3167 193.031 46.5567ZM200.371 76.4367C203.081 77.2767 205.801 78.1267 208.601 78.6467C208.401 76.2467 208.081 73.8567 207.761 71.4767C205.151 72.9067 202.671 74.5567 200.371 76.4367Z"   fill="#005CA1" >
</path>
<path d="M283.531 26.0767C286.941 25.8767 291.601 25.8867 293.191 29.5967C293.001 34.2967 291.031 38.6666 289.651 43.0966C291.181 43.4366 292.761 43.6366 294.231 44.2466C295.071 45.1666 293.251 45.8967 293.001 46.7466C293.321 47.3266 293.971 48.4666 294.301 49.0366C292.361 50.2766 290.131 50.9266 288.171 52.0966C287.091 53.1266 286.281 54.5166 284.691 54.8366C285.371 54.8866 286.061 54.9566 286.741 55.0266C286.871 55.6166 287.121 56.7766 287.241 57.3566C285.921 59.8967 284.621 62.6067 285.041 65.5667C284.441 65.5566 283.251 65.5466 282.651 65.5466C283.451 65.7666 284.271 65.9866 285.081 66.2066C284.091 68.1066 283.201 70.1266 283.871 72.2966C289.401 73.6066 295.571 73.5566 300.591 70.6066C299.031 69.2266 297.471 67.7366 295.481 67.0366C293.351 66.5166 290.921 67.7366 289.041 66.2866C288.731 64.3366 288.111 61.3866 290.511 60.5066C293.611 59.1467 296.781 57.9166 300.011 56.9066C298.771 58.0367 297.411 58.9866 295.911 59.7566C297.481 59.6266 299.051 59.4967 300.631 59.3766C300.421 58.8866 300.011 57.9066 299.811 57.4166C299.991 57.0066 300.361 56.1766 300.541 55.7666C296.971 54.9166 293.301 54.2166 289.641 54.9366C290.641 54.5966 291.641 54.2566 292.641 53.9066C294.791 49.3566 300.121 49.6467 304.151 47.9566C305.941 44.8766 306.491 41.1166 307.591 37.7166C308.591 35.4867 306.531 33.8767 305.051 32.6267C305.421 31.9467 306.161 30.5867 306.521 29.9067C309.281 31.0167 314.131 31.9067 313.901 35.7567C313.031 39.0366 311.521 42.1166 310.681 45.4166C311.451 45.4166 313.001 45.4266 313.781 45.4366C314.871 46.3666 315.981 47.3066 317.081 48.2366C317.181 49.1966 317.291 50.1566 317.411 51.1266C313.311 51.7966 308.791 53.1966 306.831 57.2166C309.951 57.6266 314.461 56.4566 316.311 59.7167C315.271 63.4066 312.061 65.8866 310.161 69.1066C309.001 70.7466 310.441 72.6266 311.721 73.6866C315.031 76.0966 318.521 78.2566 322.111 80.2266C323.911 81.2966 326.401 80.9366 327.731 82.7966C329.321 83.2766 330.911 83.7466 332.521 84.1966C332.411 84.7066 332.191 85.7266 332.081 86.2466C331.741 86.5866 331.061 87.2866 330.721 87.6266C327.191 86.3167 323.501 86.2966 319.811 86.3866C314.481 84.2266 310.871 79.3766 306.471 75.8466C304.911 74.2866 302.641 75.7066 300.801 75.8466C294.931 76.8966 288.151 77.5566 283.121 73.6966C282.751 76.6666 282.401 79.6466 281.941 82.6166C280.411 82.4266 278.891 82.2966 277.361 82.1466C275.801 80.2766 274.161 78.4666 272.771 76.4766C272.491 75.5566 271.941 73.7266 271.671 72.8066L273.751 73.4966C274.351 73.6966 275.541 74.0966 276.131 74.3066C276.941 70.9566 277.631 67.5766 278.531 64.2566C276.801 64.3866 274.311 63.5266 273.941 66.1066C272.001 67.1666 270.011 68.1366 268.041 69.1466C268.981 70.0266 269.921 70.9266 270.921 71.7566C270.351 72.2266 269.221 73.1766 268.661 73.6466C267.381 72.5466 266.091 71.4566 264.861 70.3066C263.701 68.3666 265.741 66.1166 266.321 64.2166C267.441 64.1966 268.571 64.1666 269.701 64.1366C271.661 61.4267 275.001 60.4967 278.051 59.5866C277.101 60.5966 276.121 61.5667 275.201 62.5966C276.371 62.0466 277.521 61.4667 278.681 60.8866C279.501 58.4267 280.341 55.9666 280.741 53.3866C278.621 54.4866 276.711 55.9166 274.661 57.1266C270.321 56.6666 267.631 52.8766 265.261 49.6467C264.731 45.8166 269.771 48.1166 271.731 48.9366C275.251 47.4366 279.581 47.1666 282.411 44.4466C284.051 40.3266 285.421 36.0366 286.101 31.6567C286.621 29.3667 284.611 27.8167 283.531 26.0767ZM300.561 64.5066C301.641 65.6366 302.961 66.7666 304.651 66.6166C305.801 65.4766 306.711 64.1066 307.671 62.8066C305.291 63.3066 302.921 63.8866 300.561 64.5066Z"   fill="#005CA1" >
</path>
<path d="M120.001 69.1967C123.111 66.7367 127.251 63.7467 131.341 65.2267C133.071 67.6167 130.871 71.0167 130.981 73.7967C130.521 72.6367 130.061 71.4767 129.621 70.3167C126.421 69.5867 122.231 72.3667 120.001 69.1967Z"   fill="#005CA1" >
</path>
<path d="M104.251 71.8167C102.921 68.1067 107.481 65.2367 110.741 65.2367C110.971 67.6767 111.621 70.1167 113.401 71.8967C116.961 75.7867 120.951 79.2667 124.521 83.1567C125.511 80.1367 127.811 77.4367 131.261 77.5867C131.341 78.4767 131.501 80.2667 131.581 81.1567C134.071 80.0867 136.641 79.1767 139.351 78.8867C142.411 84.5467 144.391 90.7167 145.661 97.0167C149.161 99.7567 153.761 99.7067 157.961 100.127C158.811 98.2967 159.931 96.3767 159.251 94.2867C158.681 94.3267 157.561 94.3967 157.001 94.4267C157.141 93.7567 157.431 92.4167 157.571 91.7467C155.221 90.0767 152.921 88.3667 150.561 86.7267C153.731 87.2167 157.021 88.0967 158.861 90.9867C160.481 91.7167 164.141 93.0367 160.891 94.7567C163.511 96.7767 164.201 100.037 165.161 103.007C158.721 105.617 151.711 103.977 145.161 102.747C145.781 107.737 144.781 112.987 141.571 116.967C140.841 118.077 140.141 119.197 139.421 120.317C137.461 120.107 135.501 119.897 133.561 119.617C136.261 119.527 138.741 118.707 139.981 116.127C140.111 114.727 140.261 113.337 140.451 111.957C141.021 112.067 142.181 112.277 142.761 112.387L141.211 111.487C141.431 108.257 142.571 104.947 141.691 101.727C139.341 99.2267 135.811 98.3167 133.151 96.1967C130.531 94.0667 127.971 91.8667 125.361 89.7367C123.851 92.1367 122.831 94.7867 121.861 97.4467C123.311 96.2867 124.961 95.3167 126.851 95.1067C131.501 97.6367 133.711 102.587 136.821 106.607C138.381 108.227 137.291 110.607 135.881 111.917C134.081 113.587 132.271 115.707 129.671 115.967C125.621 116.577 122.021 113.937 119.321 111.227C117.951 108.507 119.331 105.337 119.381 102.457C118.151 105.627 117.231 108.947 115.321 111.817C119.821 116.367 124.671 120.537 129.271 124.977C129.261 126.617 129.281 128.247 129.321 129.887C126.621 128.747 123.911 127.567 121.531 125.817C119.511 121.567 114.981 119.297 111.801 116.007C111.391 121.327 108.971 126.307 109.081 131.677C109.301 135.007 105.141 136.047 102.521 136.117C98.2813 134.317 100.801 128.747 100.001 125.257C100.391 124.607 100.781 123.957 101.161 123.297C97.0313 118.267 93.1013 113.097 89.6513 107.587C87.6113 107.607 85.3713 107.827 84.0113 105.967C88.4613 100.537 89.5013 93.2167 93.6813 87.6267C95.6113 86.1067 97.9413 84.9767 100.451 84.9867C99.8213 83.2567 99.2213 81.5267 98.6613 79.7867C101.851 76.5467 106.411 75.7167 110.671 74.7767C109.061 72.7867 106.871 71.5467 104.251 71.8167ZM114.351 78.6767C114.471 82.8267 112.821 86.7667 113.051 90.9167C113.641 89.2967 114.091 87.6167 114.791 86.0267C115.981 85.0567 117.601 84.9667 119.011 84.5067C119.161 87.6767 118.891 90.8467 118.931 94.0167C120.231 91.7167 121.261 89.2767 122.231 86.8167C119.631 84.0767 116.991 81.3767 114.351 78.6767ZM102.621 82.5867C101.191 84.2067 102.961 87.3767 100.751 88.5267C98.1213 89.5467 97.8413 92.5367 96.9913 94.8367C98.4613 95.1667 100.131 95.0167 101.471 95.8267C105.211 99.6267 107.441 105.277 112.301 107.757C113.181 105.987 113.401 104.027 113.651 102.097C111.241 102.157 109.081 101.147 107.071 99.9367C107.221 98.0467 108.281 95.9767 107.681 94.1467C105.611 93.5767 103.381 93.1367 102.261 91.0767C103.961 87.6967 105.451 84.2167 106.691 80.6467C105.311 81.2367 103.881 81.7467 102.621 82.5867ZM127.771 86.2267C131.821 89.6367 135.671 93.5567 140.801 95.3267C139.541 91.7267 138.871 87.7967 136.651 84.6267C134.871 83.5267 132.501 83.5067 131.101 81.7567C129.321 82.6767 128.421 84.4167 127.771 86.2267ZM95.1813 98.6967C94.8013 100.547 94.5813 102.417 94.6413 104.307C97.2013 104.437 101.811 103.967 101.731 107.687C100.481 109.187 98.5913 109.927 97.2913 111.367C100.501 111.237 103.711 110.857 106.921 110.737C102.951 106.807 100.311 101.267 95.1813 98.6967ZM122.891 107.667C123.231 108.477 123.771 109.797 124.851 109.157C125.721 106.447 125.301 103.597 125.021 100.827C123.961 102.977 122.711 105.187 122.891 107.667ZM129.751 106.447C129.381 107.827 129.011 109.197 128.681 110.587C130.041 110.947 131.381 111.327 132.751 111.627C132.021 109.757 130.971 108.037 129.751 106.447ZM100.981 114.657C100.721 118.067 104.821 118.877 106.721 120.997C107.241 118.867 107.811 116.747 108.371 114.627C106.601 115.047 104.741 115.457 103.651 117.087C102.781 116.247 101.891 115.427 100.981 114.657ZM100.381 126.897C100.471 128.727 100.631 130.557 100.821 132.377C103.471 130.937 104.401 128.067 105.261 125.377C104.451 125.007 102.831 124.257 102.021 123.887C101.511 124.907 100.961 125.907 100.381 126.897Z"   fill="#005CA1" >
</path>
<path d="M375.841 72.9967C383.391 71.0567 391.251 73.5567 398.771 71.6367C400.581 75.0267 399.991 79.2667 396.941 81.7367C394.691 79.2867 391.491 78.6767 388.301 78.7267C390.651 80.3567 393.601 81.8767 393.601 85.1767C387.321 86.5667 380.531 85.6567 374.611 88.5167C372.271 89.5167 370.151 90.9367 368.031 92.3367C368.161 93.0667 368.301 93.7967 368.441 94.5267C364.811 96.7467 361.701 99.6467 359.151 103.047C356.781 101.477 357.191 98.7767 358.661 96.6667C362.491 92.2367 367.341 88.8667 372.361 85.9367C372.331 85.7467 372.271 85.3667 372.241 85.1867C370.771 85.8467 369.281 86.5967 367.621 86.3667C363.841 86.2067 360.251 87.5767 356.541 88.0367C356.171 86.5467 355.941 85.0367 355.651 83.5367C356.591 82.7767 357.531 81.9967 358.561 81.3567C360.831 81.6667 363.881 83.1667 365.711 81.0067C367.831 81.2967 369.941 81.6767 372.051 82.0967L371.901 80.9067C377.331 81.0267 382.731 81.8367 388.161 81.4467C387.891 80.8667 387.331 79.6967 387.061 79.1067C383.101 78.9767 379.071 78.9067 375.221 79.9967C374.091 77.6267 373.721 74.9367 375.841 72.9967Z"   fill="#005CA1" >
</path>
<path d="M405.781 77.5467C409.791 77.7867 411.291 82.7467 409.981 85.9667C406.471 88.3267 402.741 90.4267 399.871 93.6167L401.641 96.4967C400.491 98.1167 399.441 99.9467 397.561 100.807C396.021 100.987 394.921 99.5267 393.651 98.9167C392.571 101.437 389.831 101.897 387.541 102.727C391.251 104.167 393.761 107.587 397.641 108.717C404.191 112.017 412.501 113.917 415.751 121.297C415.161 121.177 413.991 120.947 413.401 120.827L412.481 123.547C408.871 119.987 404.111 118.197 399.661 115.977C400.661 121.067 395.941 123.807 392.981 127.017C390.121 129.597 388.061 133.067 384.721 135.077C380.711 135.237 376.781 133.607 372.761 133.237C372.951 132.647 373.321 131.487 373.511 130.897C373.021 131.057 372.051 131.367 371.561 131.527C368.841 127.357 361.881 126.347 361.971 120.527C361.661 119.747 361.361 118.977 361.061 118.207C361.211 118.177 361.531 118.117 361.681 118.087C362.111 120.857 365.171 122.187 365.491 125.057C367.051 125.527 368.671 125.857 370.281 126.207L370.181 127.637C370.821 127.367 372.101 126.807 372.741 126.527C372.501 127.237 372.021 128.637 371.781 129.347C374.261 128.287 376.901 128.537 379.471 129.067C381.781 129.607 383.701 127.697 385.281 126.297C388.961 122.627 393.731 119.407 394.921 114.007C391.701 112.877 388.471 111.847 385.251 110.737C385.111 108.917 385.041 107.087 385.031 105.257C382.531 107.437 380.411 109.997 378.331 112.567C377.341 114.137 375.371 113.127 373.931 113.127C373.571 109.177 376.221 106.027 379.401 104.087C379.401 103.537 379.391 102.427 379.381 101.867C380.001 101.807 381.231 101.677 381.851 101.607C380.241 101.387 378.671 101.057 377.061 100.957C377.551 101.437 378.021 101.957 378.461 102.517C376.851 103.007 375.201 103.287 373.581 103.667C372.841 101.667 372.151 99.6567 371.341 97.6967C374.741 95.1367 379.171 96.1867 383.121 95.8967C381.661 93.2867 381.531 90.2467 382.711 87.5067C386.211 88.4767 388.641 92.5067 392.651 91.3667C398.641 88.8467 404.741 84.4467 405.781 77.5467Z"   fill="#005CA1" >
</path>
<path d="M335.481 84.6667C335.771 86.2967 335.991 87.9367 336.191 89.5767C335.001 89.0967 333.831 88.5467 332.791 87.7967C333.641 86.7167 334.571 85.6967 335.481 84.6667Z"   fill="#005CA1" >
</path>
<path d="M228.151 90.4767C257.421 86.6267 287.732 90.7667 314.811 102.567C348.151 116.957 376.371 142.817 393.691 174.727C407.011 199.097 414.001 226.917 413.581 254.697C413.511 287.327 403.131 319.777 384.531 346.557C360.831 380.997 323.571 405.827 282.542 414.017C247.881 421.137 210.921 416.747 179.011 401.397C148.711 386.987 123.091 363.007 106.651 333.767C91.1013 306.307 83.7813 274.257 85.9113 242.787C87.7913 210.537 99.6813 178.997 119.361 153.417C145.421 119.157 185.411 95.8567 228.151 90.4767ZM241.701 130.967C241.281 133.917 240.951 136.867 240.681 139.837C237.001 140.287 233.351 140.957 229.721 141.707C228.341 139.117 226.981 136.527 225.601 133.947C220.821 135.737 215.991 137.387 211.271 139.337C211.731 142.057 213.261 144.897 212.781 147.637C209.251 149.737 205.581 151.587 202.081 153.737C199.981 151.747 197.851 149.787 195.701 147.847C191.851 151.157 187.961 154.417 184.091 157.707C185.611 160.047 187.281 162.317 188.561 164.797C186.031 168.157 182.991 171.087 180.521 174.497C177.821 173.397 175.131 172.287 172.451 171.157C169.881 175.547 167.381 179.987 164.871 184.417C167.151 186.137 169.421 187.867 171.681 189.617C169.921 193.437 168.481 197.387 167.241 201.407L158.481 201.107C157.641 206.097 156.811 211.087 155.911 216.067C158.611 216.937 161.321 217.777 164.041 218.597C163.871 222.757 163.801 226.927 164.081 231.087C161.351 232.147 158.571 233.057 155.761 233.907C156.481 238.947 157.541 243.937 158.441 248.957C161.261 248.827 164.071 248.647 166.891 248.487C167.871 252.617 170.111 256.477 170.811 260.597C168.791 262.507 166.481 264.067 164.301 265.787C165.631 268.057 166.961 270.327 168.251 272.617C152.761 274.167 137.101 273.797 121.661 271.867C112.401 270.937 103.351 268.717 94.1813 267.267C102.221 275.237 111.001 282.447 119.321 290.137C121.791 292.227 123.941 294.747 126.751 296.397C135.411 296.927 144.161 296.457 152.791 295.517C179.401 292.417 206.671 283.427 225.881 263.977C239.131 250.877 246.691 232.977 249.201 214.687C250.431 216.487 250.811 218.637 251.191 220.737C253.691 235.077 259.941 248.797 269.491 259.817C281.971 274.437 299.431 284.047 317.641 289.587C334.811 294.757 352.821 297.017 370.732 296.577C372.901 296.877 374.331 295.107 375.802 293.847C385.672 284.737 395.891 275.997 405.701 266.817C381.511 272.557 356.401 275.057 331.602 272.717C332.841 270.467 334.121 268.247 335.461 266.047C333.261 264.157 330.941 262.397 328.591 260.697C330.241 256.847 331.681 252.907 332.891 248.897C335.831 248.937 338.781 249.007 341.732 249.057C342.461 244.107 343.211 239.157 344.191 234.247C341.471 233.247 338.711 232.387 335.921 231.587C336.091 227.367 336.051 223.147 335.901 218.937C338.711 218.037 341.501 217.107 344.271 216.097C343.091 211.347 342.591 206.457 341.321 201.737C338.721 200.767 335.542 201.777 332.732 201.667C331.491 197.647 330.011 193.717 328.461 189.817C330.831 188.047 333.141 186.207 335.321 184.207C332.571 180.027 330.061 175.697 327.531 171.387C324.871 172.487 322.232 173.637 319.591 174.787C317.201 171.507 314.381 168.597 311.831 165.457C312.352 162.577 314.691 160.257 316.051 157.677C312.181 154.427 308.181 151.337 304.341 148.057C302.102 149.867 300.341 152.437 297.721 153.657C294.141 151.757 290.761 149.477 287.071 147.757C287.651 144.847 288.221 141.937 288.671 138.997C283.911 137.427 279.171 135.817 274.461 134.117C273.151 136.657 271.881 139.207 270.621 141.757C266.451 140.917 262.261 140.237 258.061 139.597C257.602 136.767 257.581 133.797 256.551 131.087C251.611 130.847 246.651 131.127 241.701 130.967ZM245.561 246.677C236.341 265.487 220.031 280.037 201.671 289.697C171.371 305.487 136.591 310.887 102.711 310.127C117.891 319.527 133.291 328.577 148.521 337.917C149.571 338.367 150.621 339.467 151.851 339.037C163.521 335.707 174.461 330.217 184.781 323.897C200.261 314.187 214.501 302.327 226.131 288.177C237.491 274.527 246.111 258.327 249.271 240.747C251.451 244.857 251.681 249.647 253.361 253.957C261.431 277.367 278.352 296.657 297.421 311.947C311.901 323.297 328.001 332.897 345.571 338.597C348.141 339.977 350.511 337.917 352.661 336.707C363.631 329.987 374.681 323.397 385.691 316.737C389.141 314.587 392.821 312.787 395.982 310.197C377.751 310.497 359.441 309.217 341.621 305.237C315.551 299.657 289.591 289.067 270.461 269.967C261.292 260.907 254.281 249.787 249.721 237.757C248.131 240.637 246.931 243.697 245.561 246.677ZM249.371 247.547C246.421 269.667 235.211 289.967 220.021 306.057C197.781 329.527 168.611 345.847 137.731 354.957C136.581 355.347 135.451 355.797 134.321 356.257C148.051 362.617 161.741 369.067 175.561 375.227C196.171 362.857 213.091 344.957 225.811 324.667C238.531 304.157 247.701 280.927 249.391 256.697C249.701 258.007 249.991 259.317 250.171 260.667C251.591 275.947 256.361 290.747 262.621 304.697C275.761 333.277 296.561 358.867 323.641 375.247C337.461 368.937 351.381 362.797 364.961 355.997C340.501 349.227 317.201 337.997 297.151 322.377C277.571 307.167 260.861 287.127 253.311 263.207C251.531 258.097 251.161 252.637 249.371 247.547ZM283.031 370.887C281.211 375.057 279.241 379.177 277.381 383.337C276.331 385.027 277.281 386.957 277.542 388.747C280.941 387.777 284.311 386.737 287.701 385.717C288.131 387.057 288.511 388.417 288.961 389.767C290.701 389.237 292.441 388.697 294.171 388.137C293.701 386.807 293.251 385.497 292.792 384.177C294.011 383.777 295.232 383.377 296.451 382.987C296.201 382.317 295.701 380.977 295.451 380.297C294.201 380.367 292.982 380.537 291.771 380.807C290.651 376.867 289.482 372.937 288.141 369.067C286.431 369.667 284.732 370.267 283.031 370.887ZM209.521 371.847C209.191 373.057 208.871 374.277 208.561 375.507C210.721 375.327 212.891 375.127 215.051 374.937C213.471 379.867 211.981 384.827 210.461 389.787C212.281 390.317 214.091 390.857 215.911 391.397C217.831 385.067 219.681 378.707 221.761 372.427C217.881 370.437 213.621 371.187 209.521 371.847ZM252.831 375.467C252.721 379.417 252.831 383.377 252.941 387.327C254.611 387.207 256.292 387.077 257.961 386.957C259.251 385.817 260.631 383.697 262.651 384.547C266.251 385.367 266.191 391.167 262.751 392.197C260.691 392.907 259.261 391.207 257.841 390.057C256.121 390.307 254.401 390.577 252.701 390.897C255.401 396.267 262.792 395.817 267.381 393.347C271.292 391.427 271.991 385.557 268.511 382.877C265.341 380.447 261.091 381.327 257.771 382.937C257.781 381.277 257.741 379.617 257.751 377.967C261.292 377.597 264.841 377.297 268.401 377.087C268.361 376.117 268.331 375.157 268.301 374.197C263.141 374.627 258.001 375.207 252.831 375.467ZM232.141 375.317C228.991 376.427 227.051 380.457 228.971 383.427C231.331 387.497 236.701 387.387 240.791 386.857C240.061 388.997 239.611 392.447 236.591 392.277C234.421 392.587 233.821 389.427 231.711 389.437C230.721 389.307 228.721 389.067 227.721 388.947C227.831 394.387 234.441 395.297 238.661 394.977C242.751 394.797 245.531 391.077 246.021 387.267C246.471 383.867 247.021 379.717 244.371 377.027C241.161 374.027 236.101 373.817 232.141 375.317Z"   fill="#005CA1" >
</path>
<path d="M406.151 90.8467C409.891 92.9567 412.211 97.4067 412.541 101.607C412.611 104.207 409.831 102.637 408.771 101.767C406.881 99.3567 405.521 96.4367 402.641 95.0067C403.491 95.0267 405.181 95.0767 406.031 95.0967C406.051 93.6767 406.091 92.2567 406.151 90.8467Z"   fill="#005CA1" >
</path>
<path d="M398.131 101.507C400.541 98.5365 403.541 102.357 405.871 103.467C409.641 104.917 413.411 106.797 415.331 110.577C414.671 111.597 414.031 112.617 413.391 113.647C409.941 112.357 406.301 111.757 402.771 110.757C401.171 108.377 399.101 106.387 396.621 104.957C397.571 104.907 399.461 104.817 400.411 104.777C399.271 103.827 398.511 102.737 398.131 101.507Z"   fill="#005CA1" >
</path>
<path d="M68.0413 145.947C70.1313 143.757 73.2413 142.087 76.2713 143.427C83.9313 148.657 91.4713 154.357 97.2113 161.767C97.8313 164.317 96.4613 166.937 94.6913 168.717C92.3713 171.177 90.3613 173.897 88.3413 176.607C89.8013 177.807 91.1913 179.107 92.4713 180.517C91.9113 181.587 91.2913 182.627 90.6113 183.627C87.6713 183.777 84.8613 182.867 82.0613 182.117C81.7813 185.737 82.8013 189.927 80.7913 193.127C78.2713 193.057 75.4213 190.147 75.0513 187.727C75.2713 187.527 75.7213 187.147 75.9413 186.947C74.4913 185.767 76.0113 183.837 76.9013 182.797C76.9113 181.917 76.9313 181.047 76.9413 180.177C75.7913 180.187 74.6413 180.197 73.4913 180.227C74.3413 180.297 76.0313 180.437 76.8713 180.507C75.2113 181.767 74.1213 183.547 72.9313 185.207C73.4513 185.957 74.5113 187.467 75.0413 188.217L72.9113 188.237C73.8313 188.947 74.7513 189.637 75.6413 190.387C75.1413 191.187 74.1513 192.807 73.6513 193.617C71.6213 192.227 70.3713 190.137 69.2813 188.007C69.4813 187.087 69.8813 185.257 70.0813 184.347C69.2913 184.547 67.7113 184.957 66.9313 185.167C67.0613 188.057 67.6513 190.887 68.6213 193.617C68.3513 194.257 67.8213 195.547 67.5513 196.197C69.0813 195.937 70.4013 195.197 71.5513 194.197C74.4813 194.467 77.4313 194.137 80.3513 194.467C80.0113 195.837 79.6313 197.197 79.2913 198.567C73.3513 201.957 66.7013 199.267 60.3913 199.617C58.1613 195.797 58.7313 190.907 59.9413 186.817C60.7313 189.947 60.5213 193.717 63.2413 195.957C62.3813 192.347 62.2813 188.567 61.2713 184.997C59.9313 184.247 58.4813 183.717 57.0513 183.167C56.6213 182.107 56.1813 181.067 55.8613 179.987C57.6913 179.427 59.6113 179.347 61.5013 179.127C60.8513 177.057 58.9113 176.257 57.0513 175.537C56.1313 177.327 55.1813 179.277 53.3013 180.237C51.3913 181.547 48.9913 180.797 46.8513 180.807C47.2613 177.477 48.3013 174.097 47.5913 170.737C42.5113 167.237 36.9313 163.757 30.6613 163.107C31.7113 159.027 35.1913 154.567 39.5413 153.987C41.7213 155.777 43.9813 157.497 46.6313 158.567C47.1013 155.817 49.3413 154.077 51.0113 152.057C52.7613 151.687 54.5213 151.367 56.2913 151.157C56.1613 155.037 55.5813 158.897 55.5713 162.777C55.6913 166.137 59.4513 167.197 61.5213 169.217C62.1013 168.997 62.6913 168.777 63.2713 168.557C62.9213 167.427 62.5613 166.297 62.2013 165.177C60.9213 164.977 59.6513 164.777 58.3813 164.557C59.1713 162.057 61.7113 161.047 63.4813 159.397C66.0713 155.247 63.8513 149.207 68.0413 145.947ZM67.9913 157.657L69.9413 157.007C69.5113 157.757 68.6613 159.247 68.2313 159.987C69.0413 162.507 70.0613 164.957 70.7013 167.527C71.5413 165.537 72.5013 163.587 73.5613 161.707C74.5313 162.457 75.5213 163.187 76.5213 163.907C76.2913 166.547 75.8313 169.167 75.7213 171.817C76.0013 171.967 76.5513 172.277 76.8313 172.427C78.1413 169.317 79.3713 166.127 81.5013 163.467C82.0913 164.887 82.9813 166.227 83.2813 167.747C82.9013 170.137 82.3413 172.507 82.2013 174.937C82.8613 175.037 84.1613 175.227 84.8113 175.317C87.5313 172.427 90.1413 168.817 90.1713 164.677C85.1113 158.927 79.0313 153.447 71.5713 151.127C70.7613 153.507 70.3913 156.307 67.9913 157.657ZM67.0613 172.527C66.9213 174.757 66.9113 177.007 66.9813 179.247C67.5913 179.297 68.8213 179.397 69.4413 179.447C69.0613 177.017 68.6313 174.507 67.0613 172.527Z"   fill="#005CA1" >
</path>
<path d="M419.741 149.447C421.551 147.397 423.731 145.437 426.681 145.567C430.221 145.667 434.531 145.497 437.011 148.517C437.951 150.787 438.251 153.267 438.911 155.637C438.351 155.497 437.221 155.227 436.661 155.097C438.901 157.607 441.051 160.207 442.961 162.987C448.771 159.577 455.751 160.207 462.151 158.917C462.411 160.217 462.671 161.527 462.951 162.827C462.661 163.317 462.081 164.277 461.791 164.767C462.741 166.077 463.711 167.377 464.691 168.667C465.641 168.287 466.581 167.907 467.541 167.527C468.531 168.667 471.461 170.017 469.871 171.757C467.441 172.547 464.921 173.257 462.861 174.817C462.941 175.587 463.111 177.107 463.201 177.877C462.051 177.587 460.921 177.367 459.761 177.197C458.181 175.977 456.531 174.867 454.821 173.847C455.871 175.747 457.021 177.677 457.071 179.927C455.361 179.227 453.691 178.457 452.011 177.717C454.151 181.407 457.001 185.237 456.531 189.757C456.441 192.007 455.411 194.047 454.481 196.047C449.691 193.537 450.561 186.157 446.011 183.387C444.081 183.417 442.311 182.777 440.731 181.717C438.401 180.927 436.071 180.147 433.651 179.717C435.931 185.587 440.741 190.557 440.671 197.247C439.851 197.497 438.211 198.017 437.391 198.267C433.641 194.447 433.921 188.177 429.651 184.727C424.651 185.797 419.791 189.747 414.631 187.047C413.041 185.937 411.451 184.827 410.051 183.487C408.711 182.337 407.381 181.167 406.081 179.967C406.151 178.467 406.211 176.957 406.251 175.447C409.431 172.317 411.411 168.287 413.761 164.547C414.761 161.827 414.971 158.837 416.371 156.257C419.641 154.717 420.281 158.837 420.431 161.167C422.321 166.007 425.871 170.017 429.151 173.977C428.261 169.437 427.871 164.807 426.931 160.277C429.251 157.507 432.721 159.827 434.381 162.087C439.111 168.257 444.261 174.077 449.401 179.907C445.311 171.437 439.211 164.177 433.551 156.737C431.731 154.077 428.571 152.697 426.961 149.917C424.251 149.157 425.241 151.107 426.441 152.347C425.441 152.627 423.441 153.177 422.451 153.447C421.201 152.367 420.461 150.887 419.741 149.447ZM452.781 164.147C454.961 165.167 457.091 166.297 459.241 167.407C459.781 166.257 460.331 165.107 460.881 163.957C458.191 164.217 455.481 164.457 452.781 164.147ZM445.751 166.677C447.121 168.907 448.481 171.137 449.761 173.427C450.281 172.437 450.831 171.477 451.411 170.517C450.081 169.007 448.921 167.347 448.761 165.287C447.761 165.777 446.751 166.237 445.751 166.677ZM411.091 174.997C410.341 177.037 411.451 179.597 413.501 180.387C417.511 182.687 422.021 179.787 425.891 178.507C423.451 173.207 419.351 168.887 415.251 164.827C413.061 167.857 412.111 171.467 411.091 174.997ZM432.571 169.607C433.281 171.597 434.861 172.977 436.711 173.907C436.411 171.627 434.461 170.497 432.571 169.607Z"   fill="#005CA1" >
</path>
<path d="M439.721 157.667C442.281 152.567 448.061 150.777 451.901 146.897C455.381 149.287 454.721 154.367 451.761 156.837C449.041 158.247 446.211 159.427 443.471 160.807C442.121 159.897 440.951 158.727 439.721 157.667Z"   fill="#005CA1" >
</path>
<path d="M211.121 176.067C224.101 165.757 241.311 160.947 257.751 163.107C271.511 164.767 284.621 171.217 294.381 181.047C304.451 191.017 310.951 204.517 312.431 218.627C314.381 235.167 309.261 252.337 298.731 265.217C283.741 259.497 270.061 249.687 261.051 236.287C255.521 228.227 252.011 218.977 249.701 209.517C247.431 216.457 245.701 223.637 242.071 230.037C233.631 246.547 218.191 258.677 201.001 265.097C191.741 253.457 186.571 238.607 187.111 223.697C187.511 205.307 196.591 187.347 211.121 176.067Z"   fill="#005CA1" >
</path>
<path d="M24.1913 221.727C25.2713 219.247 26.0113 216.337 28.6213 214.997C29.8013 216.757 32.0013 218.257 31.6913 220.637C31.6613 223.947 31.8813 227.247 32.2913 230.527C40.7113 230.967 49.1513 228.977 57.5513 230.377C61.9113 231.247 66.3513 231.007 70.7613 230.827C74.0613 230.487 75.9313 233.917 76.5513 236.667C77.3113 242.297 78.9213 248.007 77.8713 253.707C77.7013 256.017 75.1413 256.577 73.5613 257.717C72.4713 257.097 71.3813 256.487 70.2913 255.867C71.3713 255.107 73.6013 255.547 73.9513 253.927C73.8613 249.527 73.1813 245.027 71.3613 240.997C70.6413 239.167 68.4613 239.387 66.8813 239.127C60.4313 238.527 54.1013 236.757 47.5913 237.087C51.3113 240.657 51.7313 245.957 54.0713 250.297C54.7813 252.017 56.5413 252.287 58.1913 251.907C57.7913 253.767 57.7313 255.957 56.1013 257.247C52.5513 260.207 48.2213 262.017 44.4513 264.657C43.7313 263.017 43.0313 261.387 42.3313 259.757C41.8013 261.027 41.2613 262.297 40.7313 263.577C47.0313 266.127 50.5913 273.107 57.5613 274.297C62.7413 276.037 68.0313 273.507 73.3113 274.517C71.9713 278.137 68.1013 279.687 64.5513 280.097C58.5213 280.777 52.4513 279.597 46.7413 277.677C43.3713 276.447 39.5213 276.787 36.3613 274.997C33.6213 272.787 31.7113 269.737 29.4513 267.077C27.7413 271.497 25.3913 275.857 21.5313 278.757C20.0013 273.567 19.1113 268.147 19.2513 262.737C19.2713 260.317 19.9513 257.877 21.5113 255.997C23.5313 256.637 25.5413 257.327 27.5313 258.067C28.8513 260.557 28.3213 263.787 29.9113 266.237C31.3013 268.377 33.1413 270.167 34.8113 272.087C36.7513 271.497 38.5813 270.317 40.6313 270.247C45.1613 272.857 50.3113 273.907 55.3013 275.247C55.3413 275.027 55.4113 274.567 55.4413 274.347C51.3713 272.867 47.6713 270.627 44.0513 268.277C42.1313 266.567 39.1913 268.997 37.4713 266.877C35.7813 264.027 35.3813 260.637 33.9813 257.657C29.3413 247.057 27.6213 235.537 26.0813 224.157L24.1913 221.727ZM42.6313 237.217C43.6213 238.727 44.6013 240.227 45.5813 241.747C46.0113 240.187 46.4413 238.617 46.8713 237.057C45.4513 237.117 44.0413 237.167 42.6313 237.217ZM34.8213 238.467C34.6713 243.857 36.4113 249.047 38.4113 253.977C39.0413 255.597 39.9413 257.137 41.3813 258.157C40.2213 253.207 38.4213 248.427 37.1013 243.527C37.2413 241.497 38.0313 239.587 38.5113 237.627C37.2813 237.897 36.0513 238.177 34.8213 238.467ZM45.7313 252.917C46.4913 254.757 47.3713 256.597 48.8213 258.017C49.2513 255.677 47.0513 254.397 45.7313 252.917Z"   fill="#005CA1" >
</path>
<path d="M462.691 222.587C464.151 220.887 465.811 219.317 467.961 218.547C468.481 220.147 468.121 222.527 469.891 223.407C471.181 223.547 472.471 223.677 473.781 223.777C474.841 224.967 475.471 226.437 476.281 227.807C475.561 228.837 474.841 229.867 474.111 230.897C476.611 232.997 476.471 236.167 475.981 239.127C474.601 239.567 473.211 239.967 471.851 240.427C471.351 237.167 467.971 236.217 465.391 235.107C463.511 234.137 462.661 236.627 461.481 237.577C462.701 238.107 463.961 238.577 465.131 239.237C466.321 240.297 465.871 242.047 466.081 243.447C466.081 245.487 467.421 247.177 468.471 248.827C468.811 249.857 469.111 250.907 469.371 251.957C470.061 252.757 470.761 253.567 471.461 254.377C471.061 250.767 472.441 247.417 473.981 244.247C478.641 249.177 478.101 260.197 470.161 261.177C472.471 266.237 470.051 272.557 464.521 273.997C464.051 271.897 464.081 269.737 464.701 267.677C463.971 263.717 464.101 259.597 462.671 255.787C461.271 257.657 461.541 260.087 460.941 262.227C460.701 263.837 458.171 264.257 457.471 262.747C456.601 260.777 456.421 258.607 455.771 256.577C454.801 254.457 453.221 252.697 451.861 250.827C453.301 255.907 456.531 262.157 452.611 266.907C450.361 264.677 449.431 261.687 448.801 258.677C448.381 258.817 447.541 259.107 447.121 259.247C443.041 255.817 437.161 255.267 432.101 256.217C428.571 258.287 427.931 262.967 427.921 266.697C428.221 270.497 428.431 274.577 430.401 277.957C434.541 279.917 439.561 280.937 443.981 279.237C442.001 280.837 439.681 281.887 437.151 282.237C437.171 282.627 437.221 283.417 437.251 283.807C435.461 283.687 433.671 283.567 431.891 283.507C430.591 284.357 429.291 285.177 427.961 285.967C426.221 282.497 425.941 278.587 425.111 274.857C424.041 269.737 423.391 264.407 424.331 259.207C425.051 255.887 426.961 252.097 430.681 251.527C435.831 250.527 440.901 252.477 445.841 253.667C442.651 247.677 437.601 243.037 432.281 238.957C432.661 237.237 433.031 235.527 433.411 233.817C439.041 235.527 441.721 241.387 446.181 244.797C444.091 241.747 442.081 237.977 443.501 234.207C445.721 234.277 448.361 234.737 449.301 237.077C450.681 240.737 452.001 244.497 454.511 247.567C453.831 245.927 453.041 244.337 452.201 242.767C452.591 240.427 454.081 238.757 456.131 237.677C454.161 234.397 452.451 230.967 451.171 227.357C452.511 227.357 453.721 226.997 454.811 226.267L455.371 225.917C449.861 224.837 444.271 224.147 438.671 223.807C439.571 224.367 440.481 224.927 441.391 225.487C440.691 225.727 439.291 226.227 438.591 226.467C434.261 227.747 429.821 225.367 425.831 223.827C428.511 220.067 433.431 219.377 437.721 219.567C446.091 220.137 454.371 221.577 462.691 222.587ZM457.601 228.757C458.301 229.997 459.031 231.227 459.761 232.467C461.611 230.967 463.761 229.937 466.121 229.547C463.821 227.127 460.271 226.677 457.601 228.757ZM457.811 240.987C458.951 245.127 460.871 248.977 462.851 252.777C462.191 252.217 460.881 251.097 460.231 250.547C460.281 251.767 460.381 254.197 460.431 255.417C460.811 255.617 461.571 255.997 461.951 256.187C462.231 255.567 462.791 254.337 463.071 253.717C464.021 255.657 464.821 257.657 465.841 259.567C465.921 254.037 462.741 249.217 461.721 243.877C461.981 242.977 462.241 242.087 462.501 241.197C460.931 241.107 459.361 241.037 457.811 240.987Z"   fill="#005CA1" >
</path>
<path d="M68.6113 366.257C76.0613 361.567 83.1013 356.237 90.6213 351.677C91.8113 353.077 92.7613 354.657 93.7213 356.227C90.7713 358.117 87.8413 360.057 85.0313 362.157C86.9713 364.857 88.8313 367.607 90.6613 370.387C93.5513 368.377 96.4513 366.407 99.4313 364.557C100.471 366.087 101.531 367.607 102.591 369.127C95.3613 374.297 87.8613 379.067 80.5713 384.157C79.5013 382.627 78.4313 381.097 77.3613 379.577C80.4313 377.217 83.9513 375.467 86.8113 372.847C85.2013 369.967 83.1913 367.337 81.4013 364.577C78.0913 366.547 75.0813 369.007 71.6813 370.837C70.4313 369.467 69.5313 367.847 68.6113 366.257Z"   fill="#005CA1" >
</path>
<path d="M409.631 352.577C412.451 351.117 415.681 352.067 418.391 353.327C417.231 354.927 416.081 356.537 414.921 358.137C411.621 356.197 406.351 358.527 407.181 362.727C408.861 367.237 413.251 370.137 417.531 371.887C419.781 372.887 422.971 372.677 424.081 370.127C425.481 367.837 424.131 365.367 422.661 363.547C423.741 361.927 424.831 360.307 425.941 358.707C427.831 360.577 429.821 362.837 429.561 365.717C429.251 370.357 426.411 374.977 422.181 377.017C417.921 378.927 413.231 376.927 409.631 374.527C406.021 371.957 402.391 368.327 402.271 363.617C402.321 358.927 405.571 354.697 409.631 352.577Z"   fill="#005CA1" >
</path>
<path d="M392.751 373.427C393.981 371.907 395.231 370.407 396.491 368.927C403.211 374.707 410.001 380.407 416.851 386.027C415.611 387.547 414.331 389.047 413.051 390.527C406.371 384.717 399.541 379.097 392.751 373.427Z"   fill="#005CA1" >
</path>
<path d="M84.9213 388.977C91.5013 383.027 97.8513 376.817 104.461 370.887C108.401 375.337 112.541 379.597 116.591 383.937C115.441 384.927 114.271 385.927 113.101 386.907C110.511 383.977 107.801 381.137 105.231 378.187C103.641 379.497 102.071 380.837 100.491 382.177C102.951 385.077 105.641 387.767 108.141 390.637C107.021 391.617 105.901 392.597 104.791 393.587C102.311 390.777 99.8013 387.987 97.0713 385.417C95.4113 387.057 93.7413 388.677 92.1113 390.327C95.0313 393.267 97.8213 396.327 100.591 399.407C99.5313 400.407 98.4713 401.397 97.4213 402.407C93.1513 398.027 89.0513 393.487 84.9213 388.977Z"   fill="#005CA1" >
</path>
<path d="M280.831 384.417C282.051 381.717 282.921 378.807 284.721 376.417C285.591 378.407 286.161 380.517 286.691 382.627C284.741 383.207 282.781 383.817 280.831 384.417Z"   fill="#005CA1" >
</path>
<path d="M386.961 380.037C388.221 378.877 389.481 377.707 390.741 376.527C396.941 382.887 403.121 389.257 409.281 395.657C407.141 397.417 405.471 400.047 402.901 401.097C395.401 398.457 388.091 395.307 380.601 392.667C385.381 398.217 390.941 403.077 395.631 408.707C394.501 409.997 393.221 411.147 391.981 412.337C385.881 405.937 379.731 399.577 373.511 393.297C375.461 391.197 377.511 389.197 379.611 387.247C386.931 390.037 394.291 392.697 401.591 395.507C396.841 390.237 391.691 385.327 386.961 380.037Z"   fill="#005CA1" >
</path>
<path d="M235.031 378.197C237.461 375.827 241.891 378.437 240.861 381.737C240.361 384.837 236.111 385.127 234.361 382.967C233.691 381.457 233.751 379.357 235.031 378.197Z"   fill="#005CA1" >
</path>
<path d="M101.931 406.757C107.961 400.237 113.861 393.597 119.771 386.977C121.871 388.887 123.961 390.797 126.091 392.677C123.971 400.097 121.561 407.437 119.651 414.927C124.491 409.957 128.921 404.597 133.661 399.537C134.971 400.687 136.291 401.837 137.611 402.997C131.681 409.567 125.941 416.357 119.741 422.677C117.621 421.057 115.731 419.187 113.731 417.437C115.961 409.697 118.531 402.057 120.681 394.307C115.431 399.367 110.861 405.087 105.871 410.407C104.561 409.177 103.241 407.967 101.931 406.757Z"   fill="#005CA1" >
</path>
<path d="M366.371 398.617C367.961 397.527 369.551 396.437 371.161 395.377C376.151 402.617 381.591 409.557 386.551 416.817C385.221 418.147 383.581 419.117 382.011 420.137C379.851 416.907 377.611 413.737 375.141 410.737C372.491 412.807 369.781 414.777 367.041 416.717C369.341 419.867 371.681 422.987 373.851 426.237C372.371 427.307 370.901 428.387 369.441 429.477C364.141 422.307 358.951 415.067 353.701 407.867C355.251 406.777 356.791 405.707 358.351 404.647C360.331 407.507 362.381 410.327 364.501 413.097C367.151 411.117 369.821 409.177 372.551 407.297C370.551 404.367 368.441 401.507 366.371 398.617Z"   fill="#005CA1" >
</path>
<path d="M124.171 425.397C131.581 419.537 139.241 413.987 146.701 408.197C148.571 409.407 150.451 410.607 152.341 411.777C150.081 420.967 148.221 430.277 145.451 439.327C143.901 438.207 142.351 437.107 140.821 435.987C141.331 434.147 141.831 432.307 142.331 430.467C139.441 428.637 136.711 426.527 133.681 424.927C131.761 425.497 130.351 427.167 128.731 428.297C127.211 427.317 125.691 426.357 124.171 425.397ZM137.451 421.687C139.271 423.347 141.431 424.547 143.551 425.777C144.541 421.977 145.651 418.217 146.631 414.427C143.451 416.687 140.231 418.937 137.451 421.687Z"   fill="#005CA1" >
</path>
<path d="M336.251 420.757C337.761 415.497 343.481 412.387 348.711 412.447C351.681 412.527 353.831 414.767 355.751 416.757C354.081 417.727 352.461 418.817 350.671 419.547C348.761 418.627 346.961 416.527 344.651 417.567C341.941 418.137 340.831 421.297 341.711 423.737C342.901 428.177 345.391 432.627 349.431 435.047C353.451 436.877 357.431 431.667 355.121 428.027C356.891 426.857 358.751 425.847 360.691 424.987C361.151 427.747 362.001 430.877 360.291 433.407C358.011 437.007 353.951 439.547 349.691 439.937C345.151 440.087 341.541 436.647 339.251 433.067C337.011 429.447 335.221 425.057 336.251 420.757Z"   fill="#005CA1" >
</path>
<path d="M150.011 441.087C153.991 433.167 157.481 425.007 161.381 417.047C163.901 418.287 166.441 419.487 168.991 420.667C169.131 428.427 169.021 436.197 169.311 443.967C172.451 437.667 175.221 431.187 178.341 424.877C179.921 425.717 181.501 426.557 183.071 427.407C179.171 435.317 175.551 443.367 171.821 451.367C169.321 450.217 166.821 449.047 164.341 447.847C164.371 439.737 164.391 431.617 164.341 423.507C160.891 430.037 158.081 436.887 154.841 443.537C153.231 442.717 151.621 441.907 150.011 441.087Z"   fill="#005CA1" >
</path>
<path d="M313.081 428.217C318.401 425.697 323.941 423.657 329.261 421.117C329.981 422.427 330.681 423.727 331.411 425.057C327.741 426.817 323.981 428.377 320.191 429.857C320.951 431.797 321.731 433.727 322.521 435.667C325.971 434.217 329.431 432.767 332.851 431.247C333.431 432.637 334.021 434.037 334.601 435.437C331.131 436.877 327.601 438.207 324.301 440.027C325.251 442.047 326.131 444.107 326.951 446.187C330.871 444.737 334.661 442.967 338.561 441.467C339.161 442.727 339.771 443.987 340.391 445.247C334.921 448.037 329.131 450.137 323.511 452.617C320.031 444.487 316.701 436.287 313.081 428.217Z"   fill="#005CA1" >
</path>
<path d="M290.741 435.107C297.531 432.587 304.531 430.667 311.481 428.657C311.891 430.037 312.301 431.427 312.711 432.817C310.171 433.587 307.641 434.377 305.131 435.237C307.401 442.237 309.521 449.287 311.621 456.337C309.851 456.917 308.091 457.497 306.331 458.097C303.841 451.087 301.961 443.887 299.651 436.817C297.191 437.567 294.741 438.347 292.301 439.177C291.781 437.817 291.251 436.457 290.741 435.107Z"   fill="#005CA1" >
</path>
<path d="M201.411 432.927C206.091 434.007 211.141 434.417 215.301 437.017C220.661 440.327 218.621 449.677 212.671 451.027C209.511 451.777 206.321 450.757 203.221 450.187C202.521 453.497 201.761 456.807 200.911 460.097C199.121 459.647 197.321 459.217 195.531 458.797C197.471 450.167 199.601 441.577 201.411 432.927ZM205.941 438.517C205.371 440.977 204.821 443.447 204.271 445.917C206.491 446.237 209.051 447.627 211.101 446.077C212.391 444.737 212.931 442.347 211.721 440.797C210.241 439.177 207.921 439.037 205.941 438.517Z"   fill="#005CA1" >
</path>
<path d="M284.631 435.587C286.511 435.327 288.381 435.077 290.271 434.837C288.401 440.847 286.251 446.767 284.391 452.777C283.501 455.957 285.491 459.277 284.851 462.407C283.111 462.767 281.361 462.987 279.611 463.227C278.961 459.617 279.381 455.477 276.971 452.437C273.651 447.637 270.221 442.917 267.051 438.017C269.271 437.727 271.491 437.437 273.721 437.167C275.921 440.577 277.871 444.147 280.201 447.477C280.421 447.497 280.851 447.547 281.061 447.577C282.371 443.607 283.391 439.567 284.631 435.587Z"   fill="#005CA1" >
</path>
<path d="M228.041 438.207C233.861 436.267 241.651 438.297 244.121 444.357C246.001 449.147 245.661 454.777 243.301 459.337C238.601 468.347 222.381 466.297 220.331 456.217C218.951 449.597 220.771 440.517 228.041 438.207ZM230.091 442.227C225.461 445.097 225.611 451.607 226.181 456.377C226.971 461.537 234.921 462.937 237.451 458.427C239.541 454.637 239.831 449.897 238.771 445.757C237.791 442.077 233.301 440.937 230.091 442.227Z"   fill="#005CA1" >
</path>
<path d="M249.971 438.567C251.791 438.507 253.611 438.457 255.431 438.397C255.751 445.787 255.901 453.177 255.931 460.567C259.801 460.537 263.661 460.477 267.521 460.507C267.471 461.997 267.451 463.497 267.401 464.997C261.721 464.947 256.051 465.197 250.371 465.167C250.331 456.297 250.081 447.427 249.971 438.567Z"   fill="#005CA1" >
</path>
<path d="M223.331 10.6467C264.681 6.1067 307.221 12.3567 345.381 29.0166C400.811 52.9067 446.421 98.5067 470.341 153.917C489.831 198.477 495.101 248.997 485.661 296.677C478.751 331.897 463.721 365.477 442.161 394.157C419.051 424.967 388.501 450.177 353.751 466.827C318.431 483.897 278.851 491.927 239.661 490.257C189.431 488.357 140.051 469.977 100.711 438.717C72.9613 416.767 50.0713 388.687 34.3213 356.997C17.3013 322.937 8.67129 284.757 9.23129 246.697C9.70129 200.127 24.1613 153.817 50.3113 115.277C77.7213 74.5566 117.871 42.5566 163.741 25.0566C182.871 17.7067 202.961 12.8967 223.331 10.6467ZM205.981 24.0966C204.281 26.6966 202.711 29.3766 201.321 32.1566C202.321 31.3166 204.321 29.6367 205.331 28.7866C205.261 32.3966 205.001 36.0166 205.281 39.6266C205.111 39.6067 204.771 39.5566 204.601 39.5367C203.871 41.1767 202.571 42.0466 200.721 42.1466L204.051 37.7167C202.761 38.3867 200.171 39.7366 198.871 40.4066C198.961 39.6166 199.151 38.0367 199.241 37.2366C197.021 35.4166 194.331 34.8066 191.501 35.2966C191.361 35.7867 191.061 36.7666 190.921 37.2566C192.541 38.6666 193.401 40.6367 192.961 42.8066C191.931 45.2066 188.921 45.3466 186.771 46.0867C186.981 45.2766 187.411 43.6367 187.631 42.8266C185.021 42.7366 182.771 45.1567 183.431 47.7267C184.331 49.1266 185.741 50.0667 186.971 51.1466C182.401 53.6666 178.091 56.9067 172.951 58.1567C172.501 58.5766 171.621 59.4267 171.171 59.8466C172.321 61.7267 173.711 65.6767 176.551 63.8066C180.851 59.1666 186.411 56.0466 191.821 52.8966C193.431 51.8966 195.551 50.9767 195.421 48.7166C195.461 49.1367 195.531 49.9666 195.571 50.3867C198.571 48.8766 201.531 47.2666 204.611 45.8966C201.271 48.4866 197.541 50.5166 194.151 53.0366C192.281 54.3266 190.861 56.6567 191.621 58.9767C193.121 59.9067 194.361 58.3167 195.491 57.5766C197.811 55.5466 200.801 54.5867 203.491 53.1466C203.391 53.3566 203.201 53.7766 203.101 53.9767C199.091 56.9767 195.181 60.0966 191.071 62.9566C189.291 63.9067 188.861 65.8566 188.681 67.7067C194.081 66.6367 197.941 62.4166 202.871 60.2467C203.411 60.8566 203.951 61.4866 204.511 62.0966C204.151 62.4566 203.431 63.1666 203.071 63.5266C202.591 63.0966 202.101 62.6767 201.621 62.2566C197.491 66.4166 190.931 68.7867 189.041 74.7167C190.551 74.3366 192.061 73.9366 193.581 73.5566C195.781 71.6467 198.111 69.8466 200.811 68.6966C199.841 69.3967 198.821 70.0166 197.811 70.6467C195.781 73.1566 192.931 74.6566 190.191 76.2266C189.251 77.4066 188.821 78.8867 188.181 80.2266C192.431 80.9267 193.981 85.8567 197.891 87.4566C200.831 84.2567 197.821 80.7467 196.471 77.6166C200.761 76.5067 204.321 79.7467 208.011 81.3766C208.161 82.0866 208.451 83.4967 208.601 84.2066C210.251 83.7966 212.791 84.6067 213.491 82.5266C214.261 80.6067 214.211 78.4866 214.471 76.4566C217.681 75.2266 221.091 74.8466 224.491 74.5067C226.811 75.7567 229.971 76.0266 231.811 73.7867C230.481 70.5667 226.641 69.8867 223.581 69.4466C221.461 69.4267 218.681 68.6167 217.291 70.7366C217.921 71.8766 218.671 72.9366 219.551 73.9066C217.591 74.7366 215.631 75.5367 213.661 76.3267C213.181 73.6966 212.881 71.0266 213.081 68.3566C216.951 65.9166 222.811 66.7166 224.991 61.9267C220.391 61.0867 216.231 63.2366 212.061 64.7766C213.501 61.6767 217.151 60.5966 219.001 57.7866C215.741 57.2666 212.521 57.9166 209.591 59.3666C211.681 54.9166 217.951 55.3666 220.501 51.1866C216.931 50.5667 213.591 51.8666 210.391 53.2467C212.141 51.5766 214.251 50.3766 216.311 49.1466C217.291 48.4366 218.631 46.8066 217.441 45.6567C215.001 44.3966 212.381 45.7866 210.011 46.5066C210.421 45.7366 210.831 44.9666 211.231 44.1866C215.281 43.4967 219.151 42.1066 223.161 41.2366C225.651 40.6767 228.231 41.4466 230.711 40.8867C232.251 38.0466 228.831 36.6566 226.801 35.8266C222.871 37.5667 218.681 38.5566 214.601 39.8366C213.241 40.3567 211.781 40.4967 210.381 40.0066C213.881 37.0667 218.891 37.5966 222.451 34.6666C221.751 32.4267 220.101 30.6766 217.711 30.3366C214.501 30.1466 212.561 33.0667 211.051 35.4566C211.081 32.6067 211.191 29.6566 213.021 27.2966C211.371 24.9767 208.761 24.0366 205.981 24.0966ZM283.531 26.0766C284.611 27.8166 286.621 29.3666 286.101 31.6566C285.421 36.0367 284.051 40.3266 282.411 44.4466C279.581 47.1666 275.251 47.4366 271.731 48.9366C269.771 48.1166 264.731 45.8167 265.261 49.6466C267.631 52.8766 270.321 56.6666 274.661 57.1266C276.711 55.9166 278.621 54.4866 280.741 53.3867C280.341 55.9666 279.501 58.4267 278.681 60.8867C277.521 61.4666 276.371 62.0466 275.201 62.5966C276.121 61.5667 277.101 60.5966 278.051 59.5867C275.001 60.4967 271.661 61.4267 269.701 64.1367C268.571 64.1666 267.441 64.1966 266.321 64.2166C265.741 66.1167 263.701 68.3667 264.861 70.3066C265.531 74.1566 269.771 75.0367 272.771 76.4766C274.161 78.4667 275.801 80.2766 277.361 82.1467C278.891 82.2966 280.411 82.4267 281.941 82.6166C282.401 79.6467 282.751 76.6666 283.121 73.6966C288.151 77.5566 294.931 76.8967 300.801 75.8466C302.641 75.7066 304.911 74.2867 306.471 75.8466C310.871 79.3766 314.481 84.2266 319.811 86.3867C323.501 86.2966 327.191 86.3167 330.721 87.6266C331.061 87.2867 331.741 86.5866 332.081 86.2467C332.191 85.7266 332.411 84.7066 332.521 84.1966C330.911 83.7467 329.321 83.2766 327.731 82.7966C326.401 80.9366 323.911 81.2966 322.111 80.2266C318.521 78.2567 315.031 76.0966 311.721 73.6866C310.441 72.6266 309.001 70.7467 310.161 69.1066C312.061 65.8867 315.271 63.4067 316.311 59.7166C314.461 56.4566 309.951 57.6266 306.831 57.2166C308.791 53.1966 313.311 51.7966 317.411 51.1266C317.291 50.1567 317.181 49.1966 317.081 48.2366C315.981 47.3066 314.871 46.3666 313.781 45.4366C313.001 45.4267 311.451 45.4166 310.681 45.4166C311.521 42.1166 313.031 39.0367 313.901 35.7566C314.131 31.9066 309.281 31.0166 306.521 29.9066C306.161 30.5866 305.421 31.9466 305.051 32.6266C306.531 33.8766 308.591 35.4866 307.591 37.7167C306.491 41.1166 305.941 44.8766 304.151 47.9566C300.121 49.6466 294.791 49.3566 292.641 53.9067C291.641 54.2566 290.641 54.5966 289.641 54.9366C293.301 54.2166 296.971 54.9166 300.541 55.7666C300.361 56.1767 299.991 57.0066 299.811 57.4166C300.011 57.9067 300.421 58.8867 300.631 59.3766C299.051 59.4967 297.481 59.6266 295.911 59.7566C297.411 58.9866 298.771 58.0366 300.011 56.9067C296.781 57.9166 293.611 59.1466 290.511 60.5066C288.111 61.3867 288.731 64.3367 289.041 66.2867C290.921 67.7366 293.351 66.5166 295.481 67.0367C297.471 67.7366 299.031 69.2267 300.591 70.6066C295.571 73.5566 289.401 73.6067 283.871 72.2966C283.201 70.1266 284.091 68.1066 285.081 66.2067C284.271 65.9866 283.451 65.7666 282.651 65.5466C283.251 65.5466 284.441 65.5566 285.041 65.5667C284.621 62.6066 285.921 59.8966 287.241 57.3566C287.121 56.7766 286.871 55.6166 286.741 55.0266C286.061 54.9566 285.371 54.8867 284.691 54.8367C286.281 54.5166 287.091 53.1266 288.171 52.0966C290.131 50.9267 292.361 50.2766 294.301 49.0366C293.971 48.4666 293.321 47.3266 293.001 46.7467C293.251 45.8966 295.071 45.1666 294.231 44.2467C292.761 43.6367 291.181 43.4366 289.651 43.0966C291.031 38.6666 293.001 34.2966 293.191 29.5966C291.601 25.8867 286.941 25.8766 283.531 26.0766ZM120.001 69.1966C122.231 72.3667 126.421 69.5867 129.621 70.3167C130.061 71.4767 130.521 72.6367 130.981 73.7966C130.871 71.0166 133.071 67.6167 131.341 65.2267C127.251 63.7467 123.111 66.7366 120.001 69.1966ZM104.251 71.8167C106.871 71.5466 109.061 72.7867 110.671 74.7766C106.411 75.7167 101.851 76.5466 98.6613 79.7867C99.2213 81.5266 99.8213 83.2567 100.451 84.9866C97.9413 84.9766 95.6113 86.1067 93.6813 87.6266C89.5013 93.2167 88.4613 100.537 84.0113 105.967C85.3713 107.827 87.6113 107.607 89.6513 107.587C93.1013 113.097 97.0313 118.267 101.161 123.297C100.781 123.957 100.391 124.607 100.001 125.257C100.801 128.747 98.2813 134.317 102.521 136.117C105.141 136.047 109.301 135.007 109.081 131.677C108.971 126.307 111.391 121.327 111.801 116.007C114.981 119.297 119.511 121.567 121.531 125.817C123.911 127.567 126.621 128.747 129.321 129.887C129.281 128.247 129.261 126.617 129.271 124.977C124.671 120.537 119.821 116.367 115.321 111.817C117.231 108.947 118.151 105.627 119.381 102.457C119.331 105.337 117.951 108.507 119.321 111.227C122.021 113.937 125.621 116.577 129.671 115.967C132.271 115.707 134.081 113.587 135.881 111.917C137.291 110.607 138.381 108.227 136.821 106.607C133.711 102.587 131.501 97.6367 126.851 95.1067C124.961 95.3167 123.311 96.2867 121.861 97.4466C122.831 94.7867 123.851 92.1367 125.361 89.7366C127.971 91.8666 130.531 94.0667 133.151 96.1966C135.811 98.3167 139.341 99.2266 141.691 101.727C142.571 104.947 141.431 108.257 141.211 111.487L142.761 112.387C142.181 112.277 141.021 112.067 140.451 111.957C140.261 113.337 140.111 114.727 139.981 116.127C138.741 118.707 136.261 119.527 133.561 119.617C135.501 119.897 137.461 120.107 139.421 120.317C140.141 119.197 140.841 118.077 141.571 116.967C144.781 112.987 145.781 107.737 145.161 102.747C151.711 103.977 158.721 105.617 165.161 103.007C164.201 100.037 163.511 96.7766 160.891 94.7567C164.141 93.0367 160.481 91.7167 158.861 90.9866C157.021 88.0966 153.731 87.2167 150.561 86.7266C152.921 88.3666 155.221 90.0767 157.571 91.7467C157.431 92.4166 157.141 93.7567 157.001 94.4267C157.561 94.3967 158.681 94.3267 159.251 94.2867C159.931 96.3766 158.811 98.2966 157.961 100.127C153.761 99.7066 149.161 99.7567 145.661 97.0166C144.391 90.7167 142.411 84.5466 139.351 78.8867C136.641 79.1767 134.071 80.0866 131.581 81.1566C131.501 80.2666 131.341 78.4766 131.261 77.5866C127.811 77.4366 125.511 80.1367 124.521 83.1566C120.951 79.2666 116.961 75.7867 113.401 71.8967C111.621 70.1167 110.971 67.6767 110.741 65.2366C107.481 65.2366 102.921 68.1066 104.251 71.8167ZM375.841 72.9967C373.721 74.9366 374.091 77.6266 375.221 79.9967C379.071 78.9066 383.101 78.9766 387.061 79.1067C387.331 79.6966 387.891 80.8666 388.161 81.4466C382.731 81.8366 377.331 81.0266 371.901 80.9066L372.051 82.0966C369.941 81.6767 367.831 81.2966 365.711 81.0067C363.881 83.1666 360.831 81.6666 358.561 81.3567C357.531 81.9967 356.591 82.7766 355.651 83.5367C355.941 85.0367 356.171 86.5466 356.541 88.0367C360.251 87.5767 363.841 86.2066 367.621 86.3666C369.281 86.5966 370.771 85.8466 372.241 85.1866C372.271 85.3666 372.331 85.7467 372.361 85.9366C367.341 88.8666 362.491 92.2366 358.661 96.6666C357.191 98.7766 356.781 101.477 359.151 103.047C361.701 99.6467 364.811 96.7467 368.441 94.5266C368.301 93.7966 368.161 93.0667 368.031 92.3366C370.151 90.9366 372.271 89.5166 374.611 88.5166C380.531 85.6566 387.321 86.5667 393.601 85.1767C393.601 81.8766 390.651 80.3567 388.301 78.7266C391.491 78.6767 394.691 79.2867 396.941 81.7366C399.991 79.2666 400.581 75.0266 398.771 71.6367C391.251 73.5566 383.391 71.0566 375.841 72.9967ZM405.781 77.5466C404.741 84.4466 398.641 88.8466 392.651 91.3666C388.641 92.5067 386.211 88.4766 382.711 87.5067C381.531 90.2467 381.661 93.2867 383.121 95.8967C379.171 96.1866 374.741 95.1367 371.341 97.6966C372.151 99.6566 372.841 101.667 373.581 103.667C375.201 103.287 376.851 103.007 378.461 102.517C378.021 101.957 377.551 101.437 377.061 100.957C378.671 101.057 380.241 101.387 381.851 101.607C381.231 101.677 380.001 101.807 379.381 101.867C379.391 102.427 379.401 103.537 379.401 104.087C376.221 106.027 373.571 109.177 373.931 113.127C375.371 113.127 377.341 114.137 378.331 112.567C380.411 109.997 382.531 107.437 385.031 105.257C385.041 107.087 385.111 108.917 385.251 110.737C388.471 111.847 391.701 112.877 394.921 114.007C393.731 119.407 388.961 122.627 385.281 126.297C383.701 127.697 381.781 129.607 379.471 129.067C376.901 128.537 374.261 128.287 371.781 129.347C372.021 128.637 372.501 127.237 372.741 126.527C372.101 126.807 370.821 127.367 370.181 127.637L370.281 126.207C368.671 125.857 367.051 125.527 365.491 125.057C365.171 122.187 362.111 120.857 361.681 118.087C361.531 118.117 361.211 118.177 361.061 118.207C361.361 118.977 361.661 119.747 361.971 120.527C361.881 126.347 368.841 127.357 371.561 131.527C372.051 131.367 373.021 131.057 373.511 130.897C373.321 131.487 372.951 132.647 372.761 133.237C376.781 133.607 380.711 135.237 384.721 135.077C388.061 133.067 390.121 129.597 392.981 127.017C395.941 123.807 400.661 121.067 399.661 115.977C404.111 118.197 408.871 119.987 412.481 123.547L413.401 120.827C413.991 120.947 415.161 121.177 415.751 121.297C412.501 113.917 404.191 112.017 397.641 108.717C393.761 107.587 391.251 104.167 387.541 102.727C389.831 101.897 392.571 101.437 393.651 98.9166C394.921 99.5266 396.021 100.987 397.561 100.807C399.441 99.9466 400.491 98.1166 401.641 96.4967L399.871 93.6166C402.741 90.4267 406.471 88.3267 409.981 85.9667C411.291 82.7467 409.791 77.7867 405.781 77.5466ZM335.481 84.6666C334.571 85.6966 333.641 86.7167 332.791 87.7966C333.831 88.5466 335.001 89.0966 336.191 89.5767C335.991 87.9366 335.771 86.2966 335.481 84.6666ZM228.151 90.4766C185.411 95.8567 145.421 119.157 119.361 153.417C99.6813 178.997 87.7913 210.537 85.9113 242.787C83.7813 274.257 91.1013 306.307 106.651 333.767C123.091 363.007 148.711 386.987 179.011 401.397C210.921 416.747 247.881 421.137 282.541 414.017C323.571 405.827 360.831 380.997 384.531 346.557C403.131 319.777 413.511 287.327 413.581 254.697C414.001 226.917 407.011 199.097 393.691 174.727C376.371 142.817 348.151 116.957 314.811 102.567C287.731 90.7666 257.421 86.6266 228.151 90.4766ZM406.151 90.8466C406.091 92.2567 406.051 93.6767 406.031 95.0966C405.181 95.0767 403.491 95.0266 402.641 95.0067C405.521 96.4366 406.881 99.3567 408.771 101.767C409.831 102.637 412.611 104.207 412.541 101.607C412.211 97.4066 409.891 92.9566 406.151 90.8466ZM398.131 101.507C398.511 102.737 399.271 103.827 400.411 104.777C399.461 104.817 397.571 104.907 396.621 104.957C399.101 106.387 401.171 108.377 402.771 110.757C406.301 111.757 409.941 112.357 413.391 113.647C414.031 112.617 414.671 111.597 415.331 110.577C413.411 106.797 409.641 104.917 405.871 103.467C403.541 102.357 400.541 98.5367 398.131 101.507ZM68.0413 145.947C63.8513 149.207 66.0713 155.247 63.4813 159.397C61.7113 161.047 59.1713 162.057 58.3813 164.557C59.6513 164.777 60.9213 164.977 62.2013 165.177C62.5613 166.297 62.9213 167.427 63.2713 168.557C62.6913 168.777 62.1013 168.997 61.5213 169.217C59.4513 167.197 55.6913 166.137 55.5713 162.777C55.5813 158.897 56.1613 155.037 56.2913 151.157C54.5213 151.367 52.7613 151.687 51.0113 152.057C49.3413 154.077 47.1013 155.817 46.6313 158.567C43.9813 157.497 41.7213 155.777 39.5413 153.987C35.1913 154.567 31.7113 159.027 30.6613 163.107C36.9313 163.757 42.5113 167.237 47.5913 170.737C48.3013 174.097 47.2613 177.477 46.8513 180.807C48.9913 180.797 51.3913 181.547 53.3013 180.237C55.1813 179.277 56.1313 177.327 57.0513 175.537C58.9113 176.257 60.8513 177.057 61.5013 179.127C59.6113 179.347 57.6913 179.427 55.8613 179.987C56.1813 181.067 56.6213 182.107 57.0513 183.167C58.4813 183.717 59.9313 184.247 61.2713 184.997C62.2813 188.567 62.3813 192.347 63.2413 195.957C60.5213 193.717 60.7313 189.947 59.9413 186.817C58.7313 190.907 58.1613 195.797 60.3913 199.617C66.7013 199.267 73.3513 201.957 79.2913 198.567C79.6313 197.197 80.0113 195.837 80.3513 194.467C77.4313 194.137 74.4813 194.467 71.5513 194.197C70.4013 195.197 69.0813 195.937 67.5513 196.197C67.8213 195.547 68.3513 194.257 68.6213 193.617C67.6513 190.887 67.0613 188.057 66.9313 185.167C67.7113 184.957 69.2913 184.547 70.0813 184.347C69.8813 185.257 69.4813 187.087 69.2813 188.007C70.3713 190.137 71.6213 192.227 73.6513 193.617C74.1513 192.807 75.1413 191.187 75.6413 190.387C74.7513 189.637 73.8313 188.947 72.9113 188.237L75.0413 188.217C74.5113 187.467 73.4513 185.957 72.9313 185.207C74.1213 183.547 75.2113 181.767 76.8713 180.507C76.0313 180.437 74.3413 180.297 73.4913 180.227C74.6413 180.197 75.7913 180.187 76.9413 180.177C76.9313 181.047 76.9113 181.917 76.9013 182.797C76.0113 183.837 74.4913 185.767 75.9413 186.947C75.7213 187.147 75.2713 187.527 75.0513 187.727C75.4213 190.147 78.2713 193.057 80.7913 193.127C82.8013 189.927 81.7813 185.737 82.0613 182.117C84.8613 182.867 87.6713 183.777 90.6113 183.627C91.2913 182.627 91.9113 181.587 92.4713 180.517C91.1913 179.107 89.8013 177.807 88.3413 176.607C90.3613 173.897 92.3713 171.177 94.6913 168.717C96.4613 166.937 97.8313 164.317 97.2113 161.767C91.4713 154.357 83.9313 148.657 76.2713 143.427C73.2413 142.087 70.1313 143.757 68.0413 145.947ZM419.741 149.447C420.461 150.887 421.201 152.367 422.451 153.447C423.441 153.177 425.441 152.627 426.441 152.347C425.241 151.107 424.251 149.157 426.961 149.917C428.571 152.697 431.731 154.077 433.551 156.737C439.211 164.177 445.311 171.437 449.401 179.907C444.261 174.077 439.111 168.257 434.381 162.087C432.721 159.827 429.251 157.507 426.931 160.277C427.871 164.807 428.261 169.437 429.151 173.977C425.871 170.017 422.321 166.007 420.431 161.167C420.281 158.837 419.641 154.717 416.371 156.257C414.971 158.837 414.761 161.827 413.761 164.547C411.411 168.287 409.431 172.317 406.251 175.447C406.211 176.957 406.151 178.467 406.081 179.967C407.381 181.167 408.711 182.337 410.051 183.487C411.451 184.827 413.041 185.937 414.631 187.047C419.791 189.747 424.651 185.797 429.651 184.727C433.921 188.177 433.641 194.447 437.391 198.267C438.211 198.017 439.851 197.497 440.671 197.247C440.741 190.557 435.931 185.587 433.651 179.717C436.071 180.147 438.401 180.927 440.731 181.717C442.311 182.777 444.081 183.417 446.011 183.387C450.561 186.157 449.691 193.537 454.481 196.047C455.411 194.047 456.441 192.007 456.531 189.757C457.001 185.237 454.151 181.407 452.011 177.717C453.691 178.457 455.361 179.227 457.071 179.927C457.021 177.677 455.871 175.747 454.821 173.847C456.531 174.867 458.181 175.977 459.761 177.197C460.921 177.367 462.051 177.587 463.201 177.877C463.111 177.107 462.941 175.587 462.861 174.817C464.921 173.257 467.441 172.547 469.871 171.757C471.461 170.017 468.531 168.667 467.541 167.527C466.581 167.907 465.641 168.287 464.691 168.667C463.711 167.377 462.741 166.077 461.791 164.767C462.081 164.277 462.661 163.317 462.951 162.827C462.671 161.527 462.411 160.217 462.151 158.917C455.751 160.207 448.771 159.577 442.961 162.987C441.051 160.207 438.901 157.607 436.661 155.097C437.221 155.227 438.351 155.497 438.911 155.637C438.251 153.267 437.951 150.787 437.011 148.517C434.531 145.497 430.221 145.667 426.681 145.567C423.731 145.437 421.551 147.397 419.741 149.447ZM439.721 157.667C440.951 158.727 442.121 159.897 443.471 160.807C446.211 159.427 449.041 158.247 451.761 156.837C454.721 154.367 455.381 149.287 451.901 146.897C448.061 150.777 442.281 152.567 439.721 157.667ZM24.1913 221.727L26.0813 224.157C27.6213 235.537 29.3413 247.057 33.9813 257.657C35.3813 260.637 35.7813 264.027 37.4713 266.877C39.1913 268.997 42.1313 266.567 44.0513 268.277C47.6713 270.627 51.3713 272.867 55.4413 274.347C55.4113 274.567 55.3413 275.027 55.3013 275.247C50.3113 273.907 45.1613 272.857 40.6313 270.247C38.5813 270.317 36.7513 271.497 34.8113 272.087C33.1413 270.167 31.3013 268.377 29.9113 266.237C28.3213 263.787 28.8513 260.557 27.5313 258.067C25.5413 257.327 23.5313 256.637 21.5113 255.997C19.9513 257.877 19.2713 260.317 19.2513 262.737C19.1113 268.147 20.0013 273.567 21.5313 278.757C25.3913 275.857 27.7413 271.497 29.4513 267.077C31.7113 269.737 33.6213 272.787 36.3613 274.997C39.5213 276.787 43.3713 276.447 46.7413 277.677C52.4513 279.597 58.5213 280.777 64.5513 280.097C68.1013 279.687 71.9713 278.137 73.3113 274.517C68.0313 273.507 62.7413 276.037 57.5613 274.297C50.5913 273.107 47.0313 266.127 40.7313 263.577C41.2613 262.297 41.8013 261.027 42.3313 259.757C43.0313 261.387 43.7313 263.017 44.4513 264.657C48.2213 262.017 52.5513 260.207 56.1013 257.247C57.7313 255.957 57.7913 253.767 58.1913 251.907C56.5413 252.287 54.7813 252.017 54.0713 250.297C51.7313 245.957 51.3113 240.657 47.5913 237.087C54.1013 236.757 60.4313 238.527 66.8813 239.127C68.4613 239.387 70.6413 239.167 71.3613 240.997C73.1813 245.027 73.8613 249.527 73.9513 253.927C73.6013 255.547 71.3713 255.107 70.2913 255.867C71.3813 256.487 72.4713 257.097 73.5613 257.717C75.1413 256.577 77.7013 256.017 77.8713 253.707C78.9213 248.007 77.3113 242.297 76.5513 236.667C75.9313 233.917 74.0613 230.487 70.7613 230.827C66.3513 231.007 61.9113 231.247 57.5513 230.377C49.1513 228.977 40.7113 230.967 32.2913 230.527C31.8813 227.247 31.6613 223.947 31.6913 220.637C32.0013 218.257 29.8013 216.757 28.6213 214.997C26.0113 216.337 25.2713 219.247 24.1913 221.727ZM462.691 222.587C454.371 221.577 446.091 220.137 437.721 219.567C433.431 219.377 428.511 220.067 425.831 223.827C429.821 225.367 434.261 227.747 438.591 226.467C442.021 226.677 445.481 227.147 448.921 226.837C450.811 226.107 452.801 225.877 454.811 226.267C453.721 226.997 452.511 227.357 451.171 227.357C452.451 230.967 454.161 234.397 456.131 237.677C454.081 238.757 452.591 240.427 452.201 242.767C453.041 244.337 453.831 245.927 454.511 247.567C452.001 244.497 450.681 240.737 449.301 237.077C448.361 234.737 445.721 234.277 443.501 234.207C442.081 237.977 444.091 241.747 446.181 244.797C441.721 241.387 439.041 235.527 433.411 233.817C433.031 235.527 432.661 237.237 432.281 238.957C437.601 243.037 442.651 247.677 445.841 253.667C440.901 252.477 435.831 250.527 430.681 251.527C426.961 252.097 425.051 255.887 424.331 259.207C423.391 264.407 424.041 269.737 425.111 274.857C425.941 278.587 426.221 282.497 427.961 285.967C429.291 285.177 430.591 284.357 431.891 283.507C433.671 283.567 435.461 283.687 437.251 283.807C437.221 283.417 437.171 282.627 437.151 282.237C439.681 281.887 442.001 280.837 443.981 279.237C439.561 280.937 434.541 279.917 430.401 277.957C428.431 274.577 428.221 270.497 427.921 266.697C427.931 262.967 428.571 258.287 432.101 256.217C437.161 255.267 443.041 255.817 447.121 259.247C447.541 259.107 448.381 258.817 448.801 258.677C449.431 261.687 450.361 264.677 452.611 266.907C456.531 262.157 453.301 255.907 451.861 250.827C453.221 252.697 454.801 254.457 455.771 256.577C456.421 258.607 456.601 260.777 457.471 262.747C458.171 264.257 460.701 263.837 460.941 262.227C461.541 260.087 461.271 257.657 462.671 255.787C464.101 259.597 463.971 263.717 464.701 267.677C464.081 269.737 464.051 271.897 464.521 273.997C470.051 272.557 472.471 266.237 470.161 261.177C478.101 260.197 478.641 249.177 473.981 244.247C472.441 247.417 471.061 250.767 471.461 254.377C470.761 253.567 470.061 252.757 469.371 251.957C469.111 250.907 468.811 249.857 468.471 248.827C467.421 247.177 466.081 245.487 466.081 243.447C465.871 242.047 466.321 240.297 465.131 239.237C463.961 238.577 462.701 238.107 461.481 237.577C462.661 236.627 463.511 234.137 465.391 235.107C467.971 236.217 471.351 237.167 471.851 240.427C473.211 239.967 474.601 239.567 475.981 239.127C476.471 236.167 476.611 232.997 474.111 230.897C474.841 229.867 475.561 228.837 476.281 227.807C475.471 226.437 474.841 224.967 473.781 223.777C472.471 223.677 471.181 223.547 469.891 223.407C468.121 222.527 468.481 220.147 467.961 218.547C465.811 219.317 464.151 220.887 462.691 222.587ZM68.6113 366.257C69.5313 367.847 70.4313 369.467 71.6813 370.837C75.0813 369.007 78.0913 366.547 81.4013 364.577C83.1913 367.337 85.2013 369.967 86.8113 372.847C83.9513 375.467 80.4313 377.217 77.3613 379.577C78.4313 381.097 79.5013 382.627 80.5713 384.157C87.8613 379.067 95.3613 374.297 102.591 369.127C101.531 367.607 100.471 366.087 99.4313 364.557C96.4513 366.407 93.5513 368.377 90.6613 370.387C88.8313 367.607 86.9713 364.857 85.0313 362.157C87.8413 360.057 90.7713 358.117 93.7213 356.227C92.7613 354.657 91.8113 353.077 90.6213 351.677C83.1013 356.237 76.0613 361.567 68.6113 366.257ZM409.631 352.577C405.571 354.697 402.321 358.927 402.271 363.617C402.391 368.327 406.021 371.957 409.631 374.527C413.231 376.927 417.921 378.927 422.181 377.017C426.411 374.977 429.251 370.357 429.561 365.717C429.821 362.837 427.831 360.577 425.941 358.707C424.831 360.307 423.741 361.927 422.661 363.547C424.131 365.367 425.481 367.837 424.081 370.127C422.971 372.677 419.781 372.887 417.531 371.887C413.251 370.137 408.861 367.237 407.181 362.727C406.351 358.527 411.621 356.197 414.921 358.137C416.081 356.537 417.231 354.927 418.391 353.327C415.681 352.067 412.451 351.117 409.631 352.577ZM392.751 373.427C399.541 379.097 406.371 384.717 413.051 390.527C414.331 389.047 415.611 387.547 416.851 386.027C410.001 380.407 403.211 374.707 396.491 368.927C395.231 370.407 393.981 371.907 392.751 373.427ZM84.9213 388.977C89.0513 393.487 93.1513 398.027 97.4213 402.407C98.4713 401.397 99.5313 400.407 100.591 399.407C97.8213 396.327 95.0313 393.267 92.1113 390.327C93.7413 388.677 95.4113 387.057 97.0713 385.417C99.8013 387.987 102.311 390.777 104.791 393.587C105.901 392.597 107.021 391.617 108.141 390.637C105.641 387.767 102.951 385.077 100.491 382.177C102.071 380.837 103.641 379.497 105.231 378.187C107.801 381.137 110.511 383.977 113.101 386.907C114.271 385.927 115.441 384.927 116.591 383.937C112.541 379.597 108.401 375.337 104.461 370.887C97.8513 376.817 91.5013 383.027 84.9213 388.977ZM386.961 380.037C391.691 385.327 396.841 390.237 401.591 395.507C394.291 392.697 386.931 390.037 379.611 387.247C377.511 389.197 375.461 391.197 373.511 393.297C379.731 399.577 385.881 405.937 391.981 412.337C393.221 411.147 394.501 409.997 395.631 408.707C390.941 403.077 385.381 398.217 380.601 392.667C388.091 395.307 395.401 398.457 402.901 401.097C405.471 400.047 407.141 397.417 409.281 395.657C403.121 389.257 396.941 382.887 390.741 376.527C389.481 377.707 388.221 378.877 386.961 380.037ZM101.931 406.757C103.241 407.967 104.561 409.177 105.871 410.407C110.861 405.087 115.431 399.367 120.681 394.307C118.531 402.057 115.961 409.697 113.731 417.437C115.731 419.187 117.621 421.057 119.741 422.677C125.941 416.357 131.681 409.567 137.611 402.997C136.291 401.837 134.971 400.687 133.661 399.537C128.921 404.597 124.491 409.957 119.651 414.927C121.561 407.437 123.971 400.097 126.091 392.677C123.961 390.797 121.871 388.887 119.771 386.977C113.861 393.597 107.961 400.237 101.931 406.757ZM366.371 398.617C368.441 401.507 370.551 404.367 372.551 407.297C369.821 409.177 367.151 411.117 364.501 413.097C362.381 410.327 360.331 407.507 358.351 404.647C356.791 405.707 355.251 406.777 353.701 407.867C358.951 415.067 364.141 422.307 369.441 429.477C370.901 428.387 372.371 427.307 373.851 426.237C371.681 422.987 369.341 419.867 367.041 416.717C369.781 414.777 372.491 412.807 375.141 410.737C377.611 413.737 379.851 416.907 382.011 420.137C383.581 419.117 385.221 418.147 386.551 416.817C381.591 409.557 376.151 402.617 371.161 395.377C369.551 396.437 367.961 397.527 366.371 398.617ZM124.171 425.397C125.691 426.357 127.211 427.317 128.731 428.297C130.351 427.167 131.761 425.497 133.681 424.927C136.711 426.527 139.441 428.637 142.331 430.467C141.831 432.307 141.331 434.147 140.821 435.987C142.351 437.107 143.901 438.207 145.451 439.327C148.221 430.277 150.081 420.967 152.341 411.777C150.451 410.607 148.571 409.407 146.701 408.197C139.241 413.987 131.581 419.537 124.171 425.397ZM336.251 420.757C335.221 425.057 337.011 429.447 339.251 433.067C341.541 436.647 345.151 440.087 349.691 439.937C353.951 439.547 358.011 437.007 360.291 433.407C362.001 430.877 361.151 427.747 360.691 424.987C358.751 425.847 356.891 426.857 355.121 428.027C357.431 431.667 353.451 436.877 349.431 435.047C345.391 432.627 342.901 428.177 341.711 423.737C340.831 421.297 341.941 418.137 344.651 417.567C346.961 416.527 348.761 418.627 350.671 419.547C352.461 418.817 354.081 417.727 355.751 416.757C353.831 414.767 351.681 412.527 348.711 412.447C343.481 412.387 337.761 415.497 336.251 420.757ZM150.011 441.087C151.621 441.907 153.231 442.717 154.841 443.537C158.081 436.887 160.891 430.037 164.341 423.507C164.391 431.617 164.371 439.737 164.341 447.847C166.821 449.047 169.321 450.217 171.821 451.367C175.551 443.367 179.171 435.317 183.071 427.407C181.501 426.557 179.921 425.717 178.341 424.877C175.221 431.187 172.451 437.667 169.311 443.967C169.021 436.197 169.131 428.427 168.991 420.667C166.441 419.487 163.901 418.287 161.381 417.047C157.481 425.007 153.991 433.167 150.011 441.087ZM313.081 428.217C316.701 436.287 320.031 444.487 323.511 452.617C329.131 450.137 334.921 448.037 340.391 445.247C339.771 443.987 339.161 442.727 338.561 441.467C334.661 442.967 330.871 444.737 326.951 446.187C326.131 444.107 325.251 442.047 324.301 440.027C327.601 438.207 331.131 436.877 334.601 435.437C334.021 434.037 333.431 432.637 332.851 431.247C329.431 432.767 325.971 434.217 322.521 435.667C321.731 433.727 320.951 431.797 320.191 429.857C323.981 428.377 327.741 426.817 331.411 425.057C330.681 423.727 329.981 422.427 329.261 421.117C323.941 423.657 318.401 425.697 313.081 428.217ZM290.741 435.107C291.251 436.457 291.781 437.817 292.301 439.177C294.741 438.347 297.191 437.567 299.651 436.817C301.961 443.887 303.841 451.087 306.331 458.097C308.091 457.497 309.851 456.917 311.621 456.337C309.521 449.287 307.401 442.237 305.131 435.237C307.641 434.377 310.171 433.587 312.711 432.817C312.301 431.427 311.891 430.037 311.481 428.657C304.531 430.667 297.531 432.587 290.741 435.107ZM201.411 432.927C199.601 441.577 197.471 450.167 195.531 458.797C197.321 459.217 199.121 459.647 200.911 460.097C201.761 456.807 202.521 453.497 203.221 450.187C206.321 450.757 209.511 451.777 212.671 451.027C218.621 449.677 220.661 440.327 215.301 437.017C211.141 434.417 206.091 434.007 201.411 432.927ZM284.631 435.587C283.391 439.567 282.371 443.607 281.061 447.577C280.851 447.547 280.421 447.497 280.201 447.477C277.871 444.147 275.921 440.577 273.721 437.167C271.491 437.437 269.271 437.727 267.051 438.017C270.221 442.917 273.651 447.637 276.971 452.437C279.381 455.477 278.961 459.617 279.611 463.227C281.361 462.987 283.111 462.767 284.851 462.407C285.491 459.277 283.501 455.957 284.391 452.777C286.251 446.767 288.401 440.847 290.271 434.837C288.381 435.077 286.511 435.327 284.631 435.587ZM228.041 438.207C220.771 440.517 218.951 449.597 220.331 456.217C222.381 466.297 238.601 468.347 243.301 459.337C245.661 454.777 246.001 449.147 244.121 444.357C241.651 438.297 233.861 436.267 228.041 438.207ZM249.971 438.567C250.081 447.427 250.331 456.297 250.371 465.167C256.051 465.197 261.721 464.947 267.401 464.997C267.451 463.497 267.471 461.997 267.521 460.507C263.661 460.477 259.801 460.537 255.931 460.567C255.901 453.177 255.751 445.787 255.431 438.397C253.611 438.457 251.791 438.507 249.971 438.567Z"   fill="#FFFFFF" >
</path>
<path d="M193.031 46.5567C195.951 46.3167 192.471 50.3867 190.881 49.1967C190.561 47.9367 192.131 47.0967 193.031 46.5567Z"   fill="#FFFFFF" >
</path>
<path d="M300.561 64.5067C302.921 63.8867 305.291 63.3067 307.671 62.8067C306.711 64.1067 305.801 65.4767 304.651 66.6167C302.961 66.7667 301.641 65.6367 300.561 64.5067Z"   fill="#FFFFFF" >
</path>
<path d="M273.941 66.1067C274.311 63.5267 276.801 64.3867 278.531 64.2567C277.631 67.5767 276.941 70.9567 276.131 74.3067C275.541 74.0967 274.351 73.6967 273.751 73.4967C272.781 72.9567 271.831 72.3767 270.921 71.7567C269.921 70.9267 268.981 70.0267 268.041 69.1467C270.011 68.1367 272.001 67.1667 273.941 66.1067Z"   fill="#FFFFFF" >
</path>
<path d="M200.371 76.4367C202.671 74.5567 205.151 72.9067 207.761 71.4767C208.081 73.8567 208.401 76.2467 208.601 78.6467C205.801 78.1267 203.081 77.2767 200.371 76.4367Z"   fill="#FFFFFF" >
</path>
<path d="M114.351 78.6767C116.991 81.3767 119.631 84.0767 122.231 86.8167C121.261 89.2767 120.231 91.7167 118.931 94.0167C118.891 90.8467 119.161 87.6767 119.011 84.5067C117.601 84.9667 115.981 85.0567 114.791 86.0267C114.091 87.6167 113.641 89.2967 113.051 90.9167C112.821 86.7667 114.471 82.8267 114.351 78.6767Z"   fill="#FFFFFF" >
</path>
<path d="M102.621 82.5867C103.881 81.7467 105.311 81.2367 106.691 80.6467C105.451 84.2167 103.961 87.6967 102.261 91.0767C103.381 93.1367 105.611 93.5767 107.681 94.1467C108.281 95.9767 107.221 98.0467 107.071 99.9367C109.081 101.147 111.241 102.157 113.651 102.097C113.401 104.027 113.181 105.987 112.301 107.757C107.441 105.277 105.211 99.6267 101.471 95.8267C100.131 95.0167 98.4613 95.1667 96.9913 94.8367C97.8413 92.5367 98.1213 89.5467 100.751 88.5267C102.961 87.3767 101.191 84.2067 102.621 82.5867Z"   fill="#FFFFFF" >
</path>
<path d="M127.771 86.2267C128.421 84.4167 129.321 82.6767 131.101 81.7567C132.501 83.5067 134.871 83.5267 136.651 84.6267C138.871 87.7967 139.541 91.7267 140.801 95.3267C135.671 93.5567 131.821 89.6367 127.771 86.2267Z"   fill="#FFFFFF" >
</path>
<path d="M95.1813 98.6967C100.311 101.267 102.951 106.807 106.921 110.737C103.711 110.857 100.501 111.237 97.2913 111.367C98.5913 109.927 100.481 109.187 101.731 107.687C101.811 103.967 97.2013 104.437 94.6413 104.307C94.5813 102.417 94.8013 100.547 95.1813 98.6967Z"   fill="#FFFFFF" >
</path>
<path d="M122.891 107.667C122.711 105.187 123.961 102.977 125.021 100.827C125.301 103.597 125.721 106.447 124.851 109.157C123.771 109.797 123.231 108.477 122.891 107.667Z"   fill="#FFFFFF" >
</path>
<path d="M129.751 106.447C130.971 108.037 132.021 109.757 132.751 111.627C131.381 111.327 130.041 110.947 128.681 110.587C129.011 109.197 129.381 107.827 129.751 106.447Z"   fill="#FFFFFF" >
</path>
<path d="M100.981 114.657C101.891 115.427 102.781 116.247 103.651 117.087C104.741 115.457 106.601 115.047 108.371 114.627C107.811 116.747 107.241 118.867 106.721 120.997C104.821 118.877 100.721 118.067 100.981 114.657Z"   fill="#FFFFFF" >
</path>
<path d="M100.381 126.897C100.961 125.907 101.511 124.907 102.021 123.887C102.831 124.257 104.451 125.007 105.261 125.377C104.401 128.067 103.471 130.937 100.821 132.377C100.631 130.557 100.471 128.727 100.381 126.897Z"   fill="#FFFFFF" >
</path>
<path d="M67.9913 157.657C70.3913 156.307 70.7613 153.507 71.5713 151.127C79.0313 153.447 85.1113 158.927 90.1713 164.677C90.1413 168.817 87.5313 172.427 84.8113 175.317C84.1613 175.227 82.8613 175.037 82.2013 174.937C82.3413 172.507 82.9013 170.137 83.2813 167.747C82.9813 166.227 82.0913 164.887 81.5013 163.467C79.3713 166.127 78.1413 169.317 76.8313 172.427C76.5513 172.277 76.0013 171.967 75.7213 171.817C75.8313 169.167 76.2913 166.547 76.5213 163.907C75.5213 163.187 74.5313 162.457 73.5613 161.707C72.5013 163.587 71.5413 165.537 70.7013 167.527C70.0613 164.957 69.0413 162.507 68.2313 159.987C68.6613 159.247 69.5113 157.757 69.9413 157.007L67.9913 157.657Z"   fill="#FFFFFF" >
</path>
<path d="M452.781 164.147C455.481 164.457 458.191 164.217 460.881 163.957C460.331 165.107 459.781 166.257 459.241 167.407C457.091 166.297 454.961 165.167 452.781 164.147Z"   fill="#FFFFFF" >
</path>
<path d="M445.751 166.677C446.751 166.237 447.761 165.777 448.761 165.287C448.921 167.347 450.081 169.007 451.411 170.517C450.831 171.477 450.281 172.437 449.761 173.427C448.481 171.137 447.121 168.907 445.751 166.677Z"   fill="#FFFFFF" >
</path>
<path d="M411.091 174.997C412.111 171.467 413.061 167.857 415.251 164.827C419.351 168.887 423.451 173.207 425.891 178.507C422.021 179.787 417.511 182.687 413.501 180.387C411.451 179.597 410.341 177.037 411.091 174.997Z"   fill="#FFFFFF" >
</path>
<path d="M432.571 169.607C434.461 170.497 436.411 171.627 436.711 173.907C434.861 172.977 433.281 171.597 432.571 169.607Z"   fill="#FFFFFF" >
</path>
<path d="M67.0613 172.527C68.6313 174.507 69.0613 177.017 69.4413 179.447C68.8213 179.397 67.5913 179.297 66.9813 179.247C66.9113 177.007 66.9213 174.757 67.0613 172.527Z"   fill="#FFFFFF" >
</path>
<path d="M457.601 228.757C460.271 226.677 463.821 227.127 466.121 229.547C463.761 229.937 461.611 230.967 459.761 232.467C459.031 231.227 458.301 229.997 457.601 228.757Z"   fill="#FFFFFF" >
</path>
<path d="M42.6313 237.217C44.0413 237.167 45.4513 237.117 46.8713 237.057C46.4413 238.617 46.0113 240.187 45.5813 241.747C44.6013 240.227 43.6213 238.727 42.6313 237.217Z"   fill="#FFFFFF" >
</path>
<path d="M34.8213 238.467C36.0513 238.177 37.2813 237.897 38.5113 237.627C38.0313 239.587 37.2413 241.497 37.1013 243.527C38.4213 248.427 40.2213 253.207 41.3813 258.157C39.9413 257.137 39.0413 255.597 38.4113 253.977C36.4113 249.047 34.6713 243.857 34.8213 238.467Z"   fill="#FFFFFF" >
</path>
<path d="M457.811 240.987C459.361 241.037 460.931 241.107 462.501 241.197C462.241 242.087 461.981 242.977 461.721 243.877C462.741 249.217 465.921 254.037 465.841 259.567C464.821 257.657 464.021 255.657 463.071 253.717C462.791 254.337 462.231 255.567 461.951 256.187C461.571 255.997 460.811 255.617 460.431 255.417C460.381 254.197 460.281 251.767 460.231 250.547C460.881 251.097 462.191 252.217 462.851 252.777C460.871 248.977 458.951 245.127 457.811 240.987Z"   fill="#FFFFFF" >
</path>
<path d="M45.7313 252.917C47.0513 254.397 49.2513 255.677 48.8213 258.017C47.3713 256.597 46.4913 254.757 45.7313 252.917Z"   fill="#FFFFFF" >
</path>
<path d="M283.031 370.887C284.731 370.267 286.431 369.667 288.141 369.067C289.481 372.937 290.651 376.867 291.771 380.807C292.981 380.537 294.201 380.367 295.451 380.297C295.701 380.977 296.201 382.317 296.451 382.987C295.231 383.377 294.011 383.777 292.791 384.177C293.251 385.497 293.701 386.807 294.171 388.137C292.441 388.697 290.701 389.237 288.961 389.767C288.511 388.417 288.131 387.057 287.701 385.717C284.311 386.737 280.941 387.777 277.541 388.747C277.281 386.957 276.331 385.027 277.381 383.337C279.241 379.177 281.211 375.057 283.031 370.887ZM280.831 384.417C282.781 383.817 284.741 383.207 286.691 382.627C286.161 380.517 285.591 378.407 284.721 376.417C282.921 378.807 282.051 381.717 280.831 384.417Z"   fill="#FFFFFF" >
</path>
<path d="M209.521 371.847C213.621 371.187 217.881 370.437 221.761 372.427C219.681 378.707 217.831 385.067 215.911 391.397C214.091 390.857 212.281 390.317 210.461 389.787C211.981 384.827 213.471 379.867 215.051 374.937C212.891 375.127 210.721 375.327 208.561 375.507C208.871 374.277 209.191 373.057 209.521 371.847Z"   fill="#FFFFFF" >
</path>
<path d="M252.831 375.467C258.001 375.207 263.141 374.627 268.301 374.197C268.331 375.157 268.361 376.117 268.401 377.087C264.841 377.297 261.291 377.597 257.751 377.967C257.741 379.617 257.781 381.277 257.771 382.937C261.091 381.327 265.341 380.447 268.511 382.877C271.991 385.557 271.291 391.427 267.381 393.347C262.791 395.817 255.401 396.267 252.701 390.897C254.401 390.577 256.121 390.307 257.841 390.057C259.261 391.207 260.691 392.907 262.751 392.197C266.191 391.167 266.251 385.367 262.651 384.547C260.631 383.697 259.251 385.817 257.961 386.957C256.291 387.077 254.611 387.207 252.941 387.327C252.831 383.377 252.721 379.417 252.831 375.467Z"   fill="#FFFFFF" >
</path>
<path d="M232.141 375.317C236.101 373.817 241.161 374.027 244.371 377.027C247.021 379.717 246.471 383.867 246.021 387.267C245.531 391.077 242.751 394.797 238.661 394.977C234.441 395.297 227.831 394.387 227.721 388.947C228.721 389.067 230.721 389.307 231.711 389.437C233.821 389.427 234.421 392.587 236.591 392.277C239.611 392.447 240.061 388.997 240.791 386.857C236.701 387.387 231.331 387.497 228.971 383.427C227.051 380.457 228.991 376.427 232.141 375.317ZM235.031 378.197C233.751 379.357 233.691 381.457 234.361 382.967C236.111 385.127 240.361 384.837 240.861 381.737C241.891 378.437 237.461 375.827 235.031 378.197Z"   fill="#FFFFFF" >
</path>
<path d="M137.451 421.687C140.231 418.937 143.451 416.687 146.631 414.427C145.651 418.217 144.541 421.977 143.551 425.777C141.431 424.547 139.271 423.347 137.451 421.687Z"   fill="#FFFFFF" >
</path>
<path d="M205.941 438.517C207.921 439.037 210.241 439.177 211.721 440.797C212.931 442.347 212.391 444.737 211.101 446.077C209.051 447.627 206.491 446.237 204.271 445.917C204.821 443.447 205.371 440.977 205.941 438.517Z"   fill="#FFFFFF" >
</path>
<path d="M230.091 442.227C233.301 440.937 237.791 442.077 238.771 445.757C239.831 449.897 239.541 454.637 237.451 458.427C234.921 462.937 226.971 461.537 226.181 456.377C225.611 451.607 225.461 445.097 230.091 442.227Z"   fill="#FFFFFF" >
</path>
<path d="M264.861 70.3067C266.091 71.4567 267.381 72.5467 268.661 73.6467C269.221 73.1767 270.351 72.2267 270.921 71.7567C271.831 72.3767 272.781 72.9567 273.751 73.4967L271.671 72.8067C271.941 73.7267 272.491 75.5567 272.771 76.4767C269.771 75.0367 265.531 74.1567 264.861 70.3067Z"   fill="#91B7D7" >
</path>
<path d="M438.671 223.807C444.271 224.147 449.861 224.837 455.371 225.917L454.811 226.267C452.801 225.877 450.811 226.107 448.921 226.837C445.481 227.147 442.021 226.677 438.591 226.467C439.291 226.227 440.691 225.727 441.391 225.487C440.481 224.927 439.571 224.367 438.671 223.807Z"   fill="#91B7D7" >
</path>
<path d="M241.701 130.967C246.651 131.127 251.611 130.847 256.551 131.087C257.581 133.797 257.601 136.767 258.061 139.597C262.261 140.237 266.451 140.917 270.621 141.757C271.881 139.207 273.151 136.657 274.461 134.117C279.171 135.817 283.911 137.427 288.671 138.997C288.221 141.937 287.651 144.847 287.071 147.757C290.761 149.477 294.141 151.757 297.721 153.657C300.341 152.437 302.101 149.867 304.341 148.057C308.181 151.337 312.181 154.427 316.051 157.677C314.691 160.257 312.351 162.577 311.831 165.457C314.381 168.597 317.201 171.507 319.591 174.787C322.231 173.637 324.871 172.487 327.531 171.387C330.061 175.697 332.571 180.027 335.321 184.207C333.141 186.207 330.831 188.047 328.461 189.817C330.011 193.717 331.491 197.647 332.731 201.667C335.541 201.777 338.721 200.767 341.321 201.737C342.591 206.457 343.091 211.347 344.271 216.097C341.501 217.107 338.711 218.037 335.901 218.937C336.051 223.147 336.091 227.367 335.921 231.587C338.711 232.387 341.471 233.247 344.191 234.247C343.211 239.157 342.461 244.107 341.731 249.057C338.781 249.007 335.831 248.937 332.891 248.897C331.681 252.907 330.241 256.847 328.591 260.697C330.941 262.397 333.261 264.157 335.461 266.047C334.121 268.247 332.841 270.467 331.601 272.717C320.401 271.557 309.241 269.297 298.731 265.217C309.261 252.337 314.381 235.167 312.431 218.627C310.951 204.517 304.451 191.017 294.381 181.047C284.621 171.217 271.511 164.767 257.751 163.107C241.311 160.947 224.101 165.757 211.121 176.067C196.591 187.347 187.511 205.307 187.111 223.697C186.571 238.607 191.741 253.457 201.001 265.097C190.501 269.117 179.421 271.467 168.251 272.617C166.961 270.327 165.631 268.057 164.301 265.787C166.481 264.067 168.791 262.507 170.811 260.597C170.111 256.477 167.871 252.617 166.891 248.487C164.071 248.647 161.261 248.827 158.441 248.957C157.541 243.937 156.481 238.947 155.761 233.907C158.571 233.057 161.351 232.147 164.081 231.087C163.801 226.927 163.871 222.757 164.041 218.597C161.321 217.777 158.611 216.937 155.911 216.067C156.811 211.087 157.641 206.097 158.481 201.107L167.241 201.407C168.481 197.387 169.921 193.437 171.681 189.617C169.421 187.867 167.151 186.137 164.871 184.417C167.381 179.987 169.881 175.547 172.451 171.157C175.131 172.287 177.821 173.397 180.521 174.497C182.991 171.087 186.031 168.157 188.561 164.797C187.281 162.317 185.611 160.047 184.091 157.707C187.961 154.417 191.851 151.157 195.701 147.847C197.851 149.787 199.981 151.747 202.081 153.737C205.581 151.587 209.251 149.737 212.781 147.637C213.261 144.897 211.731 142.057 211.271 139.337C215.991 137.387 220.821 135.737 225.601 133.947C226.981 136.527 228.341 139.117 229.721 141.707C233.351 140.957 237.001 140.287 240.681 139.837C240.951 136.867 241.281 133.917 241.701 130.967Z"   fill="#E77817" >
</path>
<path d="M242.071 230.037C245.701 223.637 247.431 216.457 249.701 209.517C252.011 218.977 255.521 228.227 261.051 236.287C270.061 249.687 283.741 259.497 298.731 265.217C309.241 269.297 320.401 271.557 331.601 272.717C356.401 275.057 381.511 272.557 405.701 266.817C395.891 275.997 385.671 284.737 375.801 293.847C374.331 295.107 372.901 296.877 370.731 296.577C352.821 297.017 334.811 294.757 317.641 289.587C299.431 284.047 281.971 274.437 269.491 259.817C259.941 248.797 253.691 235.077 251.191 220.737C250.811 218.637 250.431 216.487 249.201 214.687C246.691 232.977 239.131 250.877 225.881 263.977C206.671 283.427 179.401 292.417 152.791 295.517C144.161 296.457 135.411 296.927 126.751 296.397C123.941 294.747 121.791 292.227 119.321 290.137C111.001 282.447 102.221 275.237 94.1813 267.267C103.351 268.717 112.401 270.937 121.661 271.867C137.101 273.797 152.761 274.167 168.251 272.617C179.421 271.467 190.501 269.117 201.001 265.097C218.191 258.677 233.631 246.547 242.071 230.037Z"   fill="#62BA80" >
</path>
<path d="M245.561 246.677C246.931 243.697 248.131 240.637 249.721 237.757C254.281 249.787 261.291 260.907 270.461 269.967C289.591 289.067 315.551 299.657 341.621 305.237C359.441 309.217 377.751 310.497 395.981 310.197C392.821 312.787 389.141 314.587 385.691 316.737C374.681 323.397 363.631 329.987 352.661 336.707C350.511 337.917 348.141 339.977 345.571 338.597C328.001 332.897 311.901 323.297 297.421 311.947C278.351 296.657 261.431 277.367 253.361 253.957C251.681 249.647 251.451 244.857 249.271 240.747C246.111 258.327 237.491 274.527 226.131 288.177C214.501 302.327 200.261 314.187 184.781 323.897C174.461 330.217 163.521 335.707 151.851 339.037C150.621 339.467 149.571 338.367 148.521 337.917C133.291 328.577 117.891 319.527 102.711 310.127C136.591 310.887 171.371 305.487 201.671 289.697C220.031 280.037 236.341 265.487 245.561 246.677Z"   fill="#62BA80" >
</path>
<path d="M249.371 247.547C251.161 252.637 251.531 258.097 253.311 263.207C260.861 287.127 277.571 307.167 297.151 322.377C317.201 337.997 340.501 349.227 364.961 355.997C351.381 362.797 337.461 368.937 323.641 375.247C296.561 358.867 275.761 333.277 262.621 304.697C256.361 290.747 251.591 275.947 250.171 260.667C249.991 259.317 249.701 258.007 249.391 256.697C247.701 280.927 238.531 304.157 225.811 324.667C213.091 344.957 196.171 362.857 175.561 375.227C161.741 369.067 148.051 362.617 134.321 356.257C135.451 355.797 136.581 355.347 137.731 354.957C168.611 345.847 197.781 329.527 220.021 306.057C235.211 289.967 246.421 269.667 249.371 247.547Z"   fill="#62BA80" >
</path>
</g>
<defs>
<clipPath id="clip-path-VFT1ZhdJnO2ziEbnWyxEq">
<path d="M-6.66504e-06 499.682L499.433 499.682L499.433 -1.34766e-05L-6.66504e-06 -1.34766e-05L-6.66504e-06 499.682Z" fill="white"/>
</clipPath>
</defs>
</svg>
