<svg width="890" height="889" viewBox="0 0 890 889" fill="none" xmlns="http://www.w3.org/2000/svg">
<path fill-rule="evenodd" clip-rule="evenodd" d="M180.04 291.951C179.043 292.474 178.184 293.228 177.534 294.15C176.061 293.798 174.983 296.348 173.51 295.227C172.455 296.326 169.553 296.326 168.102 296.678C167.728 297.403 167.728 297.403 162.298 300.305C161.572 300.657 161.221 301.382 160.495 301.734C159.662 301.84 158.963 302.411 158.692 303.207C158.498 302.994 158.231 302.862 157.944 302.833L157.592 303.207C157.592 302.833 157.24 302.833 156.867 302.833C156.493 303.238 156.241 303.741 156.141 304.284V306.483C156.141 306.689 156.309 306.856 156.515 306.856C156.141 307.208 156.141 307.208 156.141 307.56C155.79 307.56 155.79 307.56 155.79 307.934C155.79 308.307 156.141 308.307 156.141 308.659V309.758C156.186 310.152 156.058 310.545 155.79 310.836C156.141 311.187 156.141 311.187 156.141 311.935V312.638C156.141 312.845 156.309 313.012 156.515 313.012C156.3 313.194 156.166 313.456 156.141 313.738C155.79 313.738 155.79 314.067 155.416 314.067C156.515 314.815 156.515 314.815 156.515 315.188C156.141 315.188 156.141 315.188 156.141 315.54V315.914C156.141 316.266 156.141 316.266 155.79 316.617C155.591 316.415 155.325 316.29 155.042 316.266C154.69 317.343 153.613 318.09 153.239 319.146L152.888 318.794L152.514 319.146H152.14C152.14 319.146 151.415 319.519 151.415 319.871C150.923 319.416 150.282 319.159 149.612 319.146C149.986 318.345 150.474 317.605 151.063 316.947C150.262 316.774 149.588 316.237 149.238 315.496C148.886 314.771 149.612 312.968 149.986 311.891H149.612V311.143C149.238 311.143 149.612 310.066 149.612 309.714C149.612 309.363 149.612 309.341 149.238 308.989C149.238 308.615 149.612 308.263 149.612 307.89C148.535 307.164 148.535 307.164 148.161 306.439L148.535 306.087C148.161 305.713 148.161 305.713 147.809 305.713C148.077 305.423 148.206 305.03 148.161 304.636C148.161 304.262 147.809 304.262 147.436 303.911L147.809 303.537C146.157 301.846 144.81 299.883 143.83 297.733H144.182C143.238 296.999 142.388 296.148 141.653 295.205C139.887 295.038 138.113 295.42 136.574 296.304H136.31C136.31 296.656 136.31 296.656 135.607 297.381C135.255 297.029 135.255 297.733 134.881 297.733H133.782V298.129C133.508 297.83 133.107 297.682 132.705 297.733L132.353 298.129C131.98 297.733 130.902 297.029 130.529 296.304H130.155C129.803 295.93 129.451 295.205 129.078 294.831V294.128C128.352 293.776 129.078 292.677 128.352 291.929C128.374 290.764 128.758 289.634 129.451 288.697L129.078 288.324H129.451L129.078 287.972C129.486 285.587 130.458 283.333 131.914 281.399C133.171 280.548 134.503 279.811 135.893 279.2H137.717V278.848C139.146 279.2 139.916 279.552 140.971 279.904C140.971 280.299 140.971 280.299 140.597 280.299C142.049 281.377 143.127 282.498 144.226 283.179C144.951 284.279 144.951 285.708 146.029 285.708C145.822 285.708 145.655 285.875 145.655 286.081C147.744 287.458 149.688 289.04 151.459 290.808C152.334 292.197 153.07 293.67 153.657 295.205V295.93C154.039 296.601 154.521 297.208 155.086 297.733C155.086 298.129 155.086 298.129 154.734 298.48C155.086 298.832 155.086 302.46 156.185 302.46C156.559 302.064 156.911 301.712 157.284 301.712H157.636C158.472 300.666 159.608 299.898 160.891 299.514C163.078 297.594 165.135 295.53 167.046 293.336C167.088 292.943 166.96 292.551 166.695 292.259C160.891 287.554 153.657 284.301 147.128 280.321C147.128 279.222 141.345 275.243 139.894 274.518C137.366 273.77 136.245 275.969 134.09 277.771H133.672C132.797 279.049 131.204 279.622 129.715 279.2C129.715 279.904 126.813 278.848 126.088 278.848L125.736 279.2C125.362 278.848 124.262 278.475 123.91 278.123C123.559 278.475 123.559 278.475 123.185 278.475C121.756 277.749 119.206 278.475 117.777 277.419C115.775 276.749 113.687 276.373 111.577 276.298C108.727 274.553 105.973 272.651 103.332 270.604C102.629 268.076 106.256 263.35 105.157 261.811C104.805 259.282 103.332 256.381 104.08 253.852C103.332 253.105 103.332 252.401 102.98 252.05C103.01 251.768 103.134 251.504 103.332 251.302C102.255 250.95 102.629 249.851 102.98 249.104C101.551 247.301 102.255 242.948 101.903 240.31C101.868 239.453 101.987 238.597 102.255 237.782H101.793C101.745 237.382 101.873 236.979 102.145 236.683C101.793 236.683 101.793 236.309 101.793 236.309C102.519 235.232 102.87 234.11 103.618 233.055C105.421 234.154 106.872 235.254 108.322 236.309C108.407 237.538 108.92 238.696 109.774 239.585C109.423 240.31 111.555 243.212 112.303 243.564C111.951 243.564 111.951 243.937 111.951 243.937C112.228 245.47 113 246.868 114.149 247.917V248.422C115.043 249.412 115.44 250.755 115.227 252.072C115.227 252.423 115.6 252.423 115.6 252.423C115.227 253.127 115.952 253.501 115.952 253.874C115.952 254.248 116.326 254.6 116.326 255.325C116.218 256.224 116.48 257.128 117.051 257.832C116.857 257.832 116.699 257.988 116.699 258.183C116.699 258.19 116.699 258.199 116.7 258.205C117.051 259.304 117.425 260.404 117.799 261.833C119.228 262.558 122.503 265.108 123.932 265.108C124.132 264.917 124.257 264.66 124.284 264.383C123.207 261.459 122.855 260.382 119.601 260.755L117.799 258.931C117.799 257.832 117.799 257.832 119.228 255.325C119.275 252.384 120.599 249.607 122.855 247.719L123.207 248.07V247.719H125.758C126.11 248.422 126.835 248.422 127.561 249.148C127.366 249.148 127.209 249.306 127.209 249.499C127.197 249.693 127.344 249.86 127.538 249.873C127.546 249.873 127.553 249.873 127.561 249.873L127.209 250.247C128.286 251.324 127.934 253.127 127.561 254.952C126.11 257.832 124.658 261.833 127.209 263.745C127.209 263.394 127.561 263.394 127.934 262.668C127.891 262.393 127.76 262.138 127.561 261.943C128.621 260.243 129.47 258.418 130.089 256.512C130.169 255.532 130.049 254.545 129.737 253.611C129.737 253.237 129.737 253.237 130.089 252.885C129.385 252.533 129.737 250.687 129.385 249.983C129.737 249.983 129.737 249.983 129.737 249.609C128.286 248.532 128.286 246.729 128.286 244.905C127.209 244.201 127.209 241.651 127.209 240.508C126.33 239.448 125.351 238.477 124.284 237.606C123.932 237.98 122.503 237.606 122.086 237.606C121.528 237.909 120.893 238.039 120.261 237.98L119.909 238.331H119.184C118.458 239.409 116.282 238.705 115.183 239.782C114.847 239.598 114.483 239.47 114.105 239.409C114.479 239.409 114.479 239.057 114.831 238.705L114.479 238.331C115.065 236.647 116.063 235.135 117.381 233.935C117.381 234.128 117.538 234.286 117.732 234.286C117.74 234.286 117.747 234.286 117.755 234.286C118.515 233.139 119.494 232.154 120.635 231.384C122.086 231.033 122.086 230.659 123.537 231.384C123.888 231.033 123.888 231.033 123.888 230.659C125.623 232.108 127.594 233.247 129.715 234.023C129.715 234.374 129.715 234.374 130.441 235.1C130.441 235.803 130.814 236.529 130.814 237.298C130.814 238.068 131.166 238.749 131.166 239.497C131.54 239.87 131.892 240.222 132.265 240.222V240.596C134.006 242.48 135.033 244.916 135.167 247.477V250.005C135.519 250.005 135.167 251.456 135.167 251.808C135.167 252.555 135.519 252.907 135.871 253.633C136.97 254.006 138.069 255.083 139.124 255.457C139.872 255.809 140.224 256.534 140.949 256.908C140.949 257.26 140.949 257.26 140.575 257.612C141.676 259.436 140.224 262.009 142.379 263.416C143.105 264.866 143.105 264.866 143.478 265.614C144.578 265.284 144.578 263.811 144.929 263.108C144.476 262.461 144.224 261.699 144.204 260.909C144.204 260.703 144.371 260.536 144.578 260.536H144.204C144.203 260.342 144.361 260.184 144.555 260.184C144.562 260.184 144.57 260.184 144.578 260.184C143.655 258.915 143.261 257.339 143.478 255.787L142.379 253.589C142.379 253.215 142.379 253.215 142.753 252.863C141.676 252.511 141.676 249.961 141.676 249.236V248.862C141.723 248.475 141.593 248.088 141.323 247.807V247.433C140.575 246.707 140.575 245.982 139.872 245.982C140.138 245.166 140.257 244.311 140.224 243.454C140.619 242.779 141.107 242.166 141.676 241.629C141.95 241.658 142.202 241.792 142.379 242.003C142.651 241.453 143.024 240.963 143.478 240.552C143.678 240.741 143.931 240.864 144.204 240.904C144.204 242.355 143.852 243.806 143.852 245.3C144.324 246.316 144.447 247.459 144.204 248.554L144.578 248.906C144.578 249.28 144.578 249.28 144.204 249.631C144.41 249.631 144.578 249.798 144.578 250.005C144.598 250.388 144.898 250.698 145.281 250.731C144.852 252.454 145.41 254.272 146.732 255.457C146.007 256.183 147.106 257.656 147.106 258.337C147.106 258.689 147.458 259.063 147.831 259.436L147.458 259.788C148.266 261.035 149.398 262.037 150.733 262.69C151.085 261.965 152.536 261.965 153.635 260.887C153.831 261.083 154.086 261.206 154.361 261.239C155.064 259.788 156.559 260.162 157.614 259.436H159.066C160.808 258.007 162.992 257.231 165.244 257.238C166.321 256.161 167.75 255.435 168.475 253.984L168.849 254.336C169.575 253.611 169.926 252.885 171.048 252.885C172.031 251.342 173.126 249.871 174.323 248.488C174.518 248.488 174.675 248.646 174.675 248.84C176.549 246.624 178.608 244.571 180.832 242.706C181.579 242.333 183.03 241.981 183.03 241.607C184.129 241.607 184.833 241.981 185.932 241.981C186.306 242.333 186.657 243.058 187.009 243.432C186.294 244.188 185.688 245.039 185.206 245.96H184.679C183.975 246.334 183.228 246.334 182.876 247.411C182.502 247.411 182.502 247.059 182.151 247.059C181.799 247.411 181.799 247.411 181.447 247.411C180.7 248.136 179.622 249.214 179.622 249.939C178.897 251.742 178.897 253.193 177.424 254.666C177.776 255.391 177.776 255.391 177.424 256.469C178.853 257.194 175.951 260.865 175.951 261.899C175.599 261.899 175.599 261.525 175.599 261.525C174.873 262.272 174.147 263.35 173.4 264.075C173.4 263.701 173.4 263.701 173.07 263.701C172.345 264.449 171.971 264.449 171.619 264.449C171.414 264.64 171.282 264.897 171.245 265.174C170.168 264.801 168.717 265.9 167.618 265.504L167.266 265.9C165.666 265.788 164.06 266.027 162.562 266.603C161.462 266.251 159.66 267.329 158.934 267.329C158.583 267.329 158.583 267.329 158.583 267.702L158.296 267.329C158.089 267.329 157.922 267.496 157.922 267.702C156.119 268.076 155.394 268.802 153.525 268.406C153.151 268.406 152.426 268.802 152.052 268.406C151.7 268.406 151.7 268.802 151.7 268.802C151.327 268.802 151.327 268.802 151.327 268.406C150.931 269.204 150.692 270.068 150.623 270.956C152.995 272.814 155.201 274.874 157.219 277.112C157.57 277.112 157.57 276.738 157.57 276.738C158.324 277.569 159.173 278.305 160.099 278.936C160.378 279.677 160.886 280.308 161.55 280.739C163.82 282.225 166.254 283.443 168.805 284.367C169.012 284.367 169.179 284.199 169.179 283.993C169.531 284.367 169.531 284.367 169.882 284.367L169.531 284.718C169.531 284.912 169.688 285.07 169.882 285.07C170.256 285.07 170.256 284.718 170.608 284.367C173.002 285.096 175.316 286.068 177.512 287.268C177.864 286.895 177.864 286.895 177.864 286.543C179.211 287.541 180.217 288.93 180.744 290.522C180.392 291.248 180.018 291.248 180.018 291.951H180.04ZM75.3666 418.756C73.7812 418.662 72.1903 418.787 70.6397 419.13C69.3448 419.488 68.2024 420.262 67.3858 421.329C66.6447 422.513 66.2628 423.887 66.2866 425.286C66.0931 428.067 66.728 430.846 68.1114 433.266L65.1873 435.091C62.9887 430.386 61.9334 426.759 62.3071 423.483C62.6297 420.245 64.2082 417.261 66.7043 415.173C69.3114 412.983 72.8064 412.165 76.1141 412.975C76.9124 407.259 80.0601 402.134 84.7984 398.839C89.5049 395.719 95.1385 394.308 100.76 394.837C113.195 395.354 122.856 405.854 122.34 418.288C122.308 419.049 122.238 419.805 122.13 420.559C121.676 426.512 118.789 432.015 114.149 435.772C109.371 439.663 103.239 441.49 97.1103 440.851C91.3996 440.395 86.0266 437.962 81.9183 433.969C77.7985 429.968 75.4275 424.499 75.3226 418.756H75.3666ZM97.8139 433.969C102.82 434.427 107.851 433.426 112.303 431.09C115.967 428.594 118.246 424.525 118.458 420.097C118.972 415.43 117.357 410.778 114.061 407.434C110.144 403.97 105.169 401.932 99.9465 401.653C94.768 401.044 89.5348 402.189 85.0842 404.906C81.3065 407.456 78.8825 411.576 78.4885 416.118C78.1504 420.616 79.8732 425.024 83.1715 428.1C87.2759 431.512 92.3557 433.536 97.682 433.882L97.8139 433.969ZM119.557 446.654L120.635 464.066H118.107L117.755 462.945C117.755 461.142 117.381 459.691 116.656 459.339C115.522 458.81 114.278 458.559 113.028 458.614L92.7353 460.043C89.8204 460.087 86.9602 460.843 84.4027 462.241C82.6016 463.492 81.2157 465.253 80.4233 467.298C79.7167 469.274 79.3524 471.356 79.346 473.453C79.2706 475.843 80.0502 478.182 81.5446 480.049C82.6094 481.974 84.2562 483.513 86.2495 484.445C89.0016 485.694 92.0686 486.079 95.0437 485.545L114.611 484.094C115.916 484.243 117.226 483.854 118.238 483.016C118.964 482.665 119.316 481.192 119.316 479.389L118.964 478.29L121.866 477.938L122.943 493.173L120.041 493.525V492.448C120.195 491.142 119.805 489.832 118.964 488.82C117.7 488.284 116.335 488.029 114.963 488.073L94.3182 489.546C88.8877 489.897 84.1829 488.82 80.929 485.545C77.6134 482.276 75.6708 477.863 75.4985 473.211C75.0973 468.742 76.246 464.27 78.7524 460.548C80.951 456.943 84.8864 454.767 90.6905 454.393L112.676 452.876C114.479 452.524 115.556 452.524 116.282 451.777C116.781 450.774 117.029 449.664 117.007 448.545L116.656 446.72L119.557 446.654ZM128.968 512.607L130.045 517.664L93.8345 539.758C92.7047 540.411 91.7118 541.277 90.9104 542.308C90.2069 543.011 90.2069 544.111 90.2069 545.562L90.5586 546.265H87.9424L84.3148 531.074L87.2168 530.349C87.427 531.591 87.7889 532.8 88.2941 533.954C88.6679 534.306 89.0196 534.657 89.7232 534.306C90.8886 534.02 91.9965 533.536 92.9991 532.877L101.134 528.172L97.4401 512.233L87.3047 510.805C86.2055 510.805 85.5019 510.431 85.1062 510.805C84.3807 510.805 83.6551 511.156 83.6551 511.882C83.6413 513.102 83.7666 514.318 84.0289 515.509L81.4786 516.213L78.5985 502.824L81.1269 502.472C81.4261 503.699 82.0484 504.823 82.9297 505.726C84.3499 506.256 85.8247 506.623 87.3267 506.825L128.99 512.629L128.968 512.607ZM101.068 512.607L103.97 526.347L123.537 514.762L101.068 512.563V512.607ZM133.672 539.406L131.144 540.109L131.518 541.209C132.034 542.213 132.284 543.335 132.243 544.462C132.142 545.1 131.729 545.643 131.144 545.913C130.792 546.265 129.693 546.265 127.89 546.991L100.716 555.784C99.1998 556.288 97.6081 556.525 96.0111 556.488C95.2635 556.136 94.56 555.081 93.8125 552.882L93.4387 552.157L90.8885 552.882L95.6153 567.392L98.1657 566.667C97.5126 565.055 97.3818 563.279 97.7919 561.588C98.9243 560.548 100.289 559.794 101.771 559.39L132.551 549.607L101.441 585.397L102.87 589.398L138.047 577.791C139.419 577.133 140.985 577.008 142.445 577.439C143.617 578.151 144.42 579.34 144.644 580.693L144.995 581.418L147.523 580.693L142.819 566.205L140.29 567.304L140.641 568.008C141.035 569.184 141.035 570.459 140.641 571.635C139.743 572.844 138.479 573.73 137.036 574.163L112.391 582.165L138.113 552.069L133.716 539.406H133.672ZM152.14 587.2L166.299 615.12L163.749 616.197L115.908 607.865L120.635 617.274C123.163 621.979 125.714 625.255 128.594 626.706C131.926 628.04 135.534 628.539 139.102 628.157L139.85 631.41L124.988 633.235L109.027 602.061L111.555 600.984L159.418 609.668L155.02 600.984C153.217 597.005 151.041 594.081 148.425 593.004C145.549 591.403 142.281 590.64 138.993 590.805L138.641 587.53L152.03 587.156L152.14 587.2ZM169.289 618.352L167.09 619.825L168.19 621.253C168.915 622.726 169.289 623.452 168.915 624.155C168.915 624.881 168.19 625.98 166.387 627.057L140.927 644.821C140.016 645.621 138.88 646.12 137.673 646.25C136.564 645.561 135.684 644.559 135.145 643.37L134.398 642.644L132.199 644.095L141.961 658.583L144.16 656.758C143.082 655.654 142.323 654.278 141.961 652.779C141.961 652.053 142.687 650.976 144.863 649.525L156.471 641.545L169.86 660.759L158.296 668.717C157.529 669.322 156.677 669.812 155.768 670.168C155.218 670.549 154.492 670.549 153.943 670.168C153.198 669.434 152.581 668.579 152.118 667.64L151.393 666.915L148.864 668.344L159.022 682.48L161.221 681.051C160.587 679.897 159.851 678.799 159.022 677.775C159.022 677.05 159.022 676.324 159.396 675.972C159.939 675.071 160.694 674.317 161.594 673.774L186.877 656.033C187.923 655.215 189.183 654.718 190.505 654.604C191.421 655.127 192.18 655.885 192.704 656.802L193.803 658.253L196.002 656.472L185.844 642.314L183.646 644.139L184.723 645.59C185.822 647.041 186.196 648.118 185.822 648.844C185.048 649.987 184.063 650.972 182.92 651.746L172.784 658.627L159.396 639.412L169.531 632.158C171.333 631.102 172.784 630.377 173.488 630.729C174.235 630.729 174.961 631.454 176.039 633.279L176.765 633.982L178.963 632.531L169.289 618.352ZM183.294 674.917C187.943 670.692 194.078 668.478 200.355 668.762C206.674 668.979 212.602 671.881 216.646 676.742C220.81 681.099 222.92 687.024 222.45 693.032C221.993 699.194 219.124 704.928 214.47 708.993C205.705 717.725 191.519 717.701 182.786 708.936C182.335 708.483 181.902 708.01 181.491 707.52C177.211 703.072 174.979 697.04 175.336 690.878C175.784 684.718 178.643 678.982 183.294 674.917ZM209.677 703.914C205.969 707.61 201.116 709.936 195.914 710.51C191.335 710.881 186.866 708.984 183.953 705.431C180.895 702.255 179.426 697.871 179.952 693.494C180.893 688.299 183.739 683.643 187.933 680.435C191.711 676.594 196.694 674.165 202.047 673.554C206.725 673.594 211.145 675.702 214.118 679.314C217.281 682.387 218.621 686.883 217.657 691.185C216.932 695.582 214.404 699.517 209.699 703.87L209.677 703.914ZM234.652 694.857L232.849 697.055L234.322 698.132C235.349 698.761 236.017 699.836 236.125 701.034C236.477 701.76 235.751 702.859 234.652 704.288L220.537 721.678C217.284 726.074 215.833 730.361 216.91 734.736C218.114 738.836 220.509 742.486 223.791 745.223C228.189 748.498 232.146 750.279 236.851 749.949C241.79 749.351 246.256 746.711 249.163 742.673L262.2 726.756C262.957 725.692 263.95 724.819 265.102 724.206C266.327 724.281 267.483 724.795 268.356 725.657L269.433 726.382L270.906 724.184L259.43 714.709L257.605 716.907L258.683 717.633C259.813 718.325 260.497 719.561 260.486 720.886C260.422 722.109 259.914 723.267 259.057 724.14L246.744 739.353C244.964 741.833 242.589 743.829 239.84 745.157C237.712 745.852 235.439 745.981 233.245 745.531C230.981 745.084 228.866 744.08 227.09 742.607C225.419 741.305 224.158 739.551 223.461 737.55C222.395 735.688 222.021 733.507 222.406 731.395C223.29 728.651 224.635 726.079 226.386 723.788L239.401 708.201C240.168 707.146 241.17 706.282 242.326 705.673C243.605 705.823 244.775 706.471 245.579 707.476L246.678 707.85L248.481 706.025L234.696 694.813L234.652 694.857ZM302.06 740.122L315.076 745.201L321.253 784.333L331.037 760.414C331.769 759.073 332.026 757.523 331.763 756.017C331.239 754.834 330.142 754.003 328.861 753.819L327.783 753.093L328.861 750.895L342.646 756.325L341.898 758.853L340.82 758.501C339.719 757.87 338.4 757.736 337.193 758.128C335.988 759.04 335.102 760.308 334.665 761.755L320.989 796.226L317.34 794.797L309.382 747.707L297.421 777.781C296.806 779.173 296.441 780.661 296.344 782.178C296.718 783.256 298.147 783.981 300.741 785.08L299.642 787.608L285.505 781.827L286.23 779.276L286.978 779.65C289.176 780.354 290.583 780.727 291.375 780.002C292.079 779.65 292.848 778.551 293.926 776.374L304.434 749.576C305.021 748.573 305.388 747.456 305.511 746.3C305.885 745.596 305.511 745.223 305.16 744.497C304.315 743.803 303.322 743.315 302.258 743.068L301.159 742.673L302.258 740.144L302.06 740.122ZM340.446 780.332C338.672 786.226 339.607 792.605 342.998 797.743C346.095 803.173 351.382 807.003 357.507 808.252C363.565 809.678 369.943 808.634 375.228 805.35C380.45 801.784 384.084 796.33 385.363 790.137C386.757 784.229 385.854 778.012 382.835 772.747C379.676 767.614 374.592 763.956 368.72 762.59C362.536 761.142 356.028 762.184 350.604 765.492C345.258 768.763 341.561 774.163 340.446 780.332ZM378.504 788.686C377.484 793.854 374.814 798.552 370.897 802.074C367.357 804.996 362.646 806.073 358.189 804.976C353.728 804.103 349.96 801.144 348.054 797.018C345.856 793.039 345.856 787.96 346.977 782.156C348.428 776.001 350.956 771.274 354.583 768.768C358.435 765.93 363.369 764.991 367.995 766.218C372.301 766.989 375.958 769.823 377.779 773.802C379.678 778.542 379.935 783.783 378.504 788.686ZM394.422 769.845L417.638 772.044C428.851 773.121 434.281 777.1 433.556 784.707C433.567 788.242 431.799 791.548 428.851 793.5C425.068 795.496 420.756 796.266 416.517 795.699L427.4 811.263C428.189 812.598 429.168 813.811 430.302 814.869C431.357 815.627 432.63 816.021 433.93 815.99L434.633 816.342V818.87L424.497 818.145L409.658 794.973L403.875 794.599L402.776 808.384C402.4 809.707 402.525 811.125 403.128 812.363C403.501 813.088 404.579 813.44 406.733 813.814H407.854L407.48 816.716L390.442 814.869V812.363H392.245C393.347 812.651 394.514 812.517 395.521 811.989C396.447 810.593 396.943 808.957 396.95 807.284L399.5 777.584C399.5 776.133 399.5 775.055 398.797 774.308C398.093 773.56 397.324 773.231 395.895 772.879H394.07L394.422 769.977V769.845ZM405.678 774.55L404.227 791.214L413.637 792.291C416.814 792.786 420.063 792.412 423.046 791.214C425.214 789.695 426.56 787.261 426.697 784.619C427.172 782.255 426.494 779.806 424.871 778.023C422.734 776.254 420.015 775.343 417.242 775.473L405.678 774.396V774.55ZM438.282 775.275L452.397 774.176L468.711 808.581L478.846 772.022L492.61 770.549V773.451H491.509C490.08 773.451 488.629 773.802 488.256 774.55C487.53 775.275 487.178 776.353 487.53 778.529L490.278 807.834C490.338 809.358 490.705 810.852 491.355 812.231C492.082 812.956 493.181 813.308 495.358 812.956H496.435V815.484L479.396 816.935L479.044 814.385H480.495C481.632 814.212 482.733 813.847 483.749 813.308C484.452 812.583 484.452 811.505 484.452 809.329L481.572 776.353L470.359 818.013H467.106L448.99 779.628L451.518 811.505C451.593 813.073 452.087 814.59 452.947 815.902C454.218 816.412 455.609 816.535 456.948 816.254H458.047L458.399 819.156L442.46 820.233L442.087 817.705H443.186C445.384 817.331 446.813 816.979 447.165 816.254C447.891 815.528 447.891 814.056 447.891 811.857L444.989 782.508C444.989 779.98 444.637 778.903 443.889 778.111C442.722 777.757 441.497 777.636 440.283 777.759L438.832 778.111L438.48 775.209L438.282 775.275ZM512.264 764.349L517.343 763.272L540.889 798.447C541.546 799.662 542.403 800.762 543.418 801.7C544.443 802.173 545.592 802.296 546.694 802.052L547.397 801.7L548.145 804.229L532.579 808.23L531.831 805.68C532.992 805.563 534.111 805.189 535.107 804.58C535.481 803.877 535.833 803.503 535.481 802.778C535.164 801.621 534.667 800.524 534.008 799.524L528.93 791.917L513.012 795.831L511.891 805.965C511.801 806.827 511.928 807.695 512.264 808.494C512.188 809.021 512.555 809.514 513.082 809.591C513.168 809.602 513.256 809.604 513.342 809.593C514.089 809.966 515.166 809.593 516.969 809.241L517.695 811.769L504.679 815.045L503.953 812.495C505.178 812.193 506.301 811.571 507.207 810.692C507.755 809.278 508.115 807.801 508.284 806.295L512.264 764.349ZM513.342 792.643L527.127 788.993L514.815 769.801L513.342 792.643ZM541.241 759.293L542.341 762.195L543.418 761.469C544.715 761.078 546.1 761.078 547.397 761.469C548.206 762.428 548.824 763.533 549.222 764.723L558.632 793.632C559.872 795.142 559.655 797.374 558.143 798.614C557.464 799.17 556.604 799.456 555.729 799.414L554.652 799.766L555.378 802.316L585.08 792.555L585.454 777.694H582.618C582.477 781.415 581.354 785.032 579.364 788.18C577.278 790.721 574.509 792.612 571.383 793.632L568.855 794.336C567.404 794.709 566.327 795.061 565.953 794.709C565.228 794.709 564.854 793.632 564.502 791.807L554.718 762.107C553.993 760.282 553.993 759.205 554.718 758.479C555.47 757.84 556.334 757.347 557.268 757.028L559.05 756.677L557.972 754.126L541.307 759.205L541.241 759.293ZM606.098 732.912L620.961 723.502L622.412 725.701L621.312 726.426C619.862 727.525 618.806 728.625 618.806 729.328C618.971 730.638 619.461 731.885 620.235 732.956L631.096 749.993C632.556 752.557 634.684 754.676 637.252 756.127C639.092 757.255 641.291 757.648 643.409 757.226C645.469 756.881 647.441 756.134 649.213 755.028C651.301 753.909 652.963 752.13 653.939 749.971C655.021 748.092 655.647 745.983 655.764 743.816C655.056 740.835 653.82 738.005 652.114 735.462L641.605 719.171C640.941 718.028 639.921 717.133 638.703 716.621C637.445 716.395 636.148 716.654 635.076 717.347L633.998 718.072L632.547 715.874L645.233 707.542L646.684 709.74L645.937 710.444C644.805 711.116 643.919 712.132 643.409 713.346C643.549 714.557 644.064 715.693 644.882 716.599L656.116 734.363C658.948 738.351 659.992 743.337 658.996 748.125C657.696 752.671 654.717 756.551 650.664 758.985C646.979 761.254 642.661 762.272 638.351 761.887C633.583 761.658 629.298 758.901 627.117 754.654L615.157 736.165C614.502 734.934 613.49 733.929 612.255 733.285C611.114 733.384 610.006 733.723 609.001 734.275L607.549 735.352L606.098 732.824V732.912ZM647.036 706.53L649.234 708.333L649.938 707.608C650.672 706.847 651.545 706.236 652.51 705.805C653.123 705.519 653.851 705.66 654.313 706.157C655.328 706.805 656.193 707.669 656.841 708.685L676.035 729.724C677.036 730.948 677.893 732.283 678.585 733.703C678.585 734.802 677.86 735.901 676.035 737.33L675.684 738.056L677.486 739.859L688.72 729.724L686.918 727.525C685.821 728.888 684.251 729.792 682.521 730.054C681.039 729.486 679.77 728.473 678.893 727.152L657.171 703.255L702.813 717.017L705.693 714.115L681.07 686.591C679.619 685.14 678.871 684.041 678.871 682.963C679.052 681.594 679.867 680.389 681.07 679.71L681.795 678.984L679.597 677.159L668.362 686.833L670.56 689.031L671.308 688.305C672.139 687.384 673.321 686.857 674.561 686.854C675.64 686.854 676.761 687.58 678.19 689.383L695.558 708.575L657.544 696.901L647.036 706.311V706.53ZM683.62 672.455L695.207 660.166L697.053 661.968L696.306 662.694C695.207 664.145 694.503 665.222 694.877 665.969C694.877 667.047 695.58 668.168 697.383 669.949L718.775 689.866C719.683 690.744 720.804 691.366 722.028 691.669C723.106 692.043 724.227 691.317 725.283 689.866L726.36 689.141L728.207 690.966L716.598 703.277L714.4 701.452L715.455 700.749C716.269 699.836 716.776 698.689 716.906 697.473C716.906 696.747 716.203 695.67 714.708 694.219L692.986 673.906C691.534 672.455 690.457 671.707 689.358 671.707C688.632 671.334 687.555 672.081 686.456 673.51L685.379 674.631L683.554 672.433L683.62 672.455ZM696.68 660.891L698.878 662.32C699.603 661.243 700.681 660.122 701.384 660.122C702.712 659.708 704.15 659.836 705.385 660.473L745.971 670.256L748.873 666.277L725.679 631.498C724.939 630.37 724.332 629.161 723.875 627.893C723.879 626.651 724.396 625.466 725.304 624.617L723.106 622.814L715.147 634.4L717.346 635.851L718.071 634.752C718.594 634.07 719.208 633.464 719.896 632.949C720.448 632.575 721.169 632.575 721.721 632.949C722.365 633.558 722.855 634.312 723.15 635.148L742.344 663.397L709.365 654.714C708.495 654.412 707.65 654.045 706.836 653.614C706.478 653.355 706.227 652.97 706.133 652.537C706.535 651.649 707.014 650.796 707.562 649.987L708.287 648.91L706.089 647.459L696.658 660.869L696.68 660.891ZM724.93 619.583L743.113 587.925L755.425 590.124L755.073 593.026C752.142 592.272 749.045 592.527 746.279 593.751C743.177 595.69 740.672 598.454 739.045 601.731L733.615 611.163L748.104 619.495L750.654 614.79C751.883 613.267 752.41 611.295 752.105 609.36C751.487 607.239 749.829 605.581 747.708 604.963L746.983 604.611L748.807 601.709L765.824 611.844L764.395 614.372L762.922 613.647C761.399 612.418 759.427 611.89 757.491 612.196C755.818 613.135 754.44 614.52 753.512 616.197L750.61 620.902L763.648 628.53C764.529 629.082 765.518 629.443 766.55 629.586C767.299 628.856 767.917 628 768.374 627.057L771.98 621.253C774.007 617.848 775.129 613.981 775.233 610.02C774.644 606.324 773.132 602.839 770.836 599.885L773.035 597.686L782.819 609.294L763.604 642.27L761.405 640.819L762.131 639.742C762.856 637.918 763.208 636.84 762.856 636.115C762.856 635.389 761.757 634.664 760.306 633.587L733.505 618C732.637 617.705 731.79 617.345 730.977 616.923C730.335 617.065 729.717 617.312 729.152 617.648C728.513 618.793 727.778 619.882 726.954 620.902L724.754 619.451L724.93 619.583ZM746.675 580.011L749.225 581.11L749.95 579.286C750.126 578.085 750.984 577.098 752.149 576.757C752.874 576.406 753.952 576.757 755.402 577.109L782.951 587.969C784.666 588.275 786.22 589.17 787.348 590.497C787.761 591.583 787.631 592.801 786.996 593.773L786.27 595.224L788.799 596.301L795.395 580.011L792.845 578.934L792.118 580.363C791.393 582.209 790.689 583.265 789.92 583.265C789.216 583.638 788.117 583.265 785.941 582.561L773.277 577.483L775.079 572.031L801.177 564.424L804.76 554.663L802.276 553.916V554.663C801.601 555.771 800.737 556.754 799.726 557.565C798.525 558.519 797.173 559.262 795.725 559.763L777.631 565.567C779.35 561.698 779.728 557.365 778.708 553.256C777.771 550.016 775.308 547.437 772.112 546.353C764.879 544.155 759.075 547.804 755.095 558.312L746.763 580.055L746.675 580.011ZM754.259 570.228L758.261 559.368C759.141 556.87 760.787 554.716 762.966 553.212C765.114 552.157 767.598 552.021 769.847 552.838C772.749 554.311 774.574 555.74 774.926 558.269C775.211 561.485 774.706 564.723 773.453 567.7L770.221 576.494L754.259 570.316V570.228ZM768.77 509.002L769.122 506.803L783.61 506.056V509.332C779.871 510.207 776.391 511.954 773.453 514.432C771.019 516.611 769.375 519.532 768.77 522.742C768.161 525.14 768.284 527.669 769.122 529.997C770.027 531.758 771.617 533.07 773.519 533.624C775.238 534.053 777.052 533.505 778.246 532.195C780.251 530.496 781.865 528.379 782.973 525.996L787.37 518.411C788.785 515.096 791.063 512.218 793.966 510.079C796.389 508.36 799.46 507.828 802.32 508.628C805.943 509.45 808.994 511.877 810.609 515.223C812.476 519.178 812.865 523.67 811.708 527.886C811.335 530.309 810.435 532.62 809.07 534.657C807.669 536.625 805.952 538.349 803.991 539.758L807.992 542.308L807.266 544.506L790.953 544.155V540.813C795.162 540.288 799.156 538.665 802.54 536.108C805.358 533.754 807.392 530.593 808.366 527.051C808.744 524.34 808.363 521.579 807.266 519.071C806.354 516.837 804.505 515.116 802.21 514.366C800.269 513.966 798.253 514.493 796.758 515.795C794.784 517.679 793.181 519.917 792.03 522.39L788.051 529.623C786.653 532.949 784.373 535.831 781.456 537.955C776.723 541.099 770.335 539.808 767.191 535.075C766.807 534.495 766.481 533.875 766.22 533.228C764.758 529.55 764.384 525.527 765.143 521.643C765.901 517.527 768.08 513.808 771.298 511.134L768.77 508.936V509.002ZM770.968 495.987L773.167 478.949L775.695 479.301V480.752C775.403 481.842 775.528 483.003 776.048 484.006C777.455 484.942 779.106 485.446 780.796 485.457L809.752 489.084C810.965 489.398 812.249 489.275 813.379 488.732C814.434 488.359 814.83 487.281 815.182 485.457V484.006L817.71 484.357L815.907 501.395L813.005 501.043L813.379 499.944C813.379 498.164 813.379 497.064 812.654 496.339C812.302 495.613 810.851 495.24 809.025 494.888L779.301 491.26C777.965 491.148 776.619 491.267 775.322 491.612C774.618 492.008 774.244 493.085 773.87 494.888L773.497 496.339L770.968 495.987ZM772.419 471.694V469.496L773.87 469.122L774.618 443.423L773.167 443.049V440.851L786.204 436.124L787.282 439.048C784.63 440.088 782.177 441.576 780.027 443.445C778.2 445.245 777.279 447.771 777.521 450.326C777.521 451.755 777.521 452.524 777.872 452.854C778.589 453.432 779.51 453.694 780.423 453.579L811.554 453.931C814.083 453.931 815.556 453.579 815.951 452.854C816.609 451.37 816.973 449.772 817.028 448.149L819.579 448.523L819.205 465.891H816.677C816.798 464.561 816.672 463.217 816.303 461.933C816.035 461.276 815.523 460.749 814.874 460.461C814.478 460.087 813.423 460.087 811.994 460.087L779.719 459.383C779.112 459.465 778.51 459.581 777.916 459.735C777.565 460.087 777.565 460.834 777.565 461.933C777.057 464.666 777.872 467.48 779.763 469.518C781.856 471.464 784.325 472.959 787.018 473.915L785.567 476.817L772.507 471.738L772.419 471.694ZM774.97 435.816L773.497 418.8H776.092L776.465 420.603C776.465 422.428 777.191 423.153 777.916 423.153C778.642 423.153 779.345 422.779 780.467 421.702L796.032 411.919L778.29 403.543C777.659 403.062 776.885 402.807 776.092 402.818C775.74 402.818 775.366 403.191 775.014 403.543V405.742L775.365 407.544H772.463L771.386 393.782L773.892 393.518C774.266 395.321 774.266 396.42 774.64 396.772C775.526 397.761 776.646 398.518 777.894 398.971L799.264 409.479L810.477 408.402C812.676 408.402 814.105 407.654 814.456 406.929C814.874 405.502 815.008 404.009 814.852 402.532L817.38 402.158L818.831 419.548L816.281 419.9L815.929 418.471C815.929 416.668 815.577 415.569 814.852 415.217C814.105 414.491 813.027 414.491 811.225 414.491L801.089 415.569L780.818 429.331C778.972 430.43 777.894 431.529 777.894 432.211C777.534 433.273 777.534 434.425 777.894 435.486L774.991 435.838L774.97 435.816ZM363.84 559.72V608.964H347.175V576.713C344.273 578.142 341.744 579.615 339.215 580.693C336.017 581.855 332.75 582.825 329.432 583.594V572.734C334.174 571.683 338.705 569.848 342.844 567.304C345.695 565.218 348.144 562.632 350.077 559.676L363.84 559.72ZM444.879 164.464C290.209 164.464 164.892 290.192 164.892 444.852C165.025 599.37 290.35 724.551 444.879 724.514C599.569 724.514 724.93 599.203 724.93 444.852C724.93 290.17 599.613 164.464 444.879 164.464ZM444.879 170.62C295.979 170.535 174.305 289.447 170.982 438.3H256.132V400.641H264.926V459.339H276.513V400.641H284.845L285.197 469.826H172.081C172.455 473.827 172.806 478.158 173.51 482.159H716.247C716.95 478.158 717.302 474.201 717.676 470.2H603.922L604.647 401.015H612.98V459.691H624.214V401.015H632.899V438.674H718.775C715.477 289.75 593.849 170.715 444.879 170.62ZM714.532 493.745C713.784 497.746 713.052 501.732 712.333 505.704H177.534C176.787 501.718 176.054 497.73 175.336 493.745H714.532ZM709.08 517.29C668.678 663.243 517.6 748.813 371.635 708.412C278.769 682.711 206.207 610.151 180.502 517.29H709.08ZM219.856 344.142V333.985H667.329V344.142H219.856ZM445.934 354.255C502.81 354.255 592.292 355.002 633.581 352.474V352.826C602.405 392.683 516.661 403.895 445.604 403.895C374.964 403.895 289.814 392.683 258.727 352.826V352.474C300.037 355.002 389.518 354.255 446.044 354.255H445.934ZM416.561 383.604V372.392H477.088V383.604H416.561ZM404.974 470.2V446.281H491.928V470.178L404.974 470.2ZM593.018 470.2H539.79V459.691C539.79 459.691 570.57 410.446 576.397 401.015L593.413 400.641L593.062 470.2H593.018ZM295.948 469.826L296.3 400.641H312.965L349.571 459.339V469.826H295.948ZM445.56 395.211C374.92 395.211 305.731 380.372 281.46 361.883C281.46 361.883 281.086 361.509 281.46 361.509C302.829 363.708 395.939 362.609 445.934 363.334C496.281 362.609 589.038 363.686 610.826 361.509C611.2 361.509 610.826 361.883 610.474 361.883C586.18 380.372 516.661 395.211 445.582 395.211H445.56ZM524.532 582.869C522.313 582.023 520.333 580.66 518.75 578.89C517.152 577.056 516.244 574.726 516.178 572.294C516.178 568.337 518.75 565.062 523.454 562.534C527.995 560.456 532.955 559.462 537.943 559.632C545.902 559.632 552.08 560.731 555.685 563.259C560.791 565.699 562.952 571.815 560.512 576.92C560.187 577.604 559.784 578.25 559.314 578.846C557.684 580.402 555.857 581.739 553.883 582.825C556.736 583.779 559.257 585.533 561.138 587.881C563.902 591.885 564.047 597.141 561.512 601.292C560.191 603.319 558.46 605.049 556.433 606.37C553.986 607.487 551.429 608.34 548.804 608.92C545.685 609.342 542.543 609.578 539.394 609.624C534.5 609.789 529.611 609.18 524.905 607.821C521.7 606.983 518.882 605.064 516.925 602.391C515.34 600.034 514.461 597.273 514.397 594.433C514.463 591.803 515.347 589.26 516.925 587.156C519.033 585.052 521.656 583.537 524.532 582.759V582.869ZM532.139 573.438C531.897 571.866 532.616 570.301 533.964 569.459C535.25 568.287 536.93 567.643 538.669 567.656C540.52 567.645 542.319 568.282 543.748 569.459C544.9 570.459 545.559 571.912 545.551 573.438C545.667 574.99 544.988 576.498 543.748 577.439C542.418 578.498 540.737 579.015 539.042 578.89C537.226 579.074 535.408 578.556 533.964 577.439C532.726 576.494 532.04 574.992 532.139 573.438ZM531.062 594.081C531.011 592.052 531.807 590.091 533.26 588.673C534.87 587.58 536.747 586.949 538.691 586.848C540.825 586.863 542.886 587.644 544.495 589.047C547.294 591.707 547.406 596.132 544.746 598.931C544.665 599.016 544.581 599.1 544.495 599.181C542.998 600.527 541.076 601.303 539.064 601.38C537.02 601.441 535.043 600.643 533.612 599.181C531.893 598.089 530.921 596.134 531.084 594.103L531.062 594.081ZM457.3 560.423H497.138V571.283H470.25L468.799 578.516C470.549 577.749 472.367 577.144 474.229 576.713C476.024 576.421 477.842 576.302 479.66 576.362C484.855 576.151 489.966 577.7 494.17 580.758C497.611 583.311 499.62 587.356 499.579 591.641C499.673 594.899 498.657 598.093 496.699 600.698C494.738 603.697 491.971 606.082 488.717 607.579C484.314 609.188 479.64 609.934 474.954 609.778C471.538 609.817 468.13 609.455 464.797 608.7C462.368 608.3 460.04 607.434 457.937 606.15C456.018 605.132 454.292 603.785 452.837 602.171C451.674 600.34 450.702 598.396 449.935 596.367L466.622 594.938C467.002 596.895 468.014 598.671 469.502 599.995C471.111 601.063 473.026 601.573 474.954 601.446C477.099 601.507 479.176 600.718 480.737 599.247C482.39 597.651 483.204 595.374 482.935 593.092C483.14 590.684 482.344 588.299 480.737 586.496C478.934 585.243 476.775 584.604 474.58 584.672C472.991 584.742 471.413 584.986 469.876 585.397C468.799 586.123 467.677 586.848 466.27 587.925L452.134 586.496L457.3 560.423ZM388.463 598.082L404.754 596.257C405.262 597.702 406.005 599.054 406.953 600.259C408.158 600.991 409.546 601.364 410.955 601.336C413.439 601.399 415.781 600.168 417.133 598.082C418.21 596.653 418.935 593.004 419.661 587.925C417.774 589.414 415.697 590.64 413.483 591.575C411.142 592.305 408.702 592.667 406.249 592.652C401.23 592.819 396.326 591.137 392.465 587.925C388.934 585.144 386.926 580.855 387.056 576.362C387.036 573.191 388.054 570.103 389.958 567.568C391.883 564.866 394.505 562.74 397.544 561.412C401.657 560.144 405.946 559.528 410.251 559.588C415.088 559.357 419.916 560.227 424.365 562.138C428.091 563.754 431.181 566.55 433.16 570.096C435.497 574.429 436.614 579.314 436.392 584.232C436.392 592.916 434.193 599.445 429.797 603.424C425.091 607.425 418.935 609.58 410.603 609.58C406.795 609.76 402.985 609.27 399.346 608.129C396.767 607.381 394.409 606.023 392.465 604.172C390.547 602.562 389.167 600.408 388.507 597.994L388.463 598.082ZM418.891 576.362C419.087 578.531 418.278 580.671 416.693 582.165C415.125 583.623 413.05 584.412 410.911 584.364C408.753 584.474 406.649 583.676 405.106 582.165C403.536 580.508 402.738 578.265 402.908 575.988C402.727 573.82 403.536 571.688 405.106 570.184C406.542 568.731 408.516 567.935 410.559 567.986C412.705 567.937 414.787 568.724 416.363 570.184C418.126 571.734 419.063 574.02 418.891 576.362ZM444.967 152.065C283.352 151.956 152.249 282.874 152.14 444.478C152.14 444.603 152.14 444.726 152.14 444.852C152.14 605.689 283.306 736.847 444.879 736.847C606.098 736.847 737.286 605.689 737.286 444.852C737.383 283.283 606.479 152.228 444.901 152.131C444.894 152.131 444.885 152.131 444.879 152.131L444.967 152.065ZM444.967 888.934V874.424C207.302 874.424 14.9282 681.688 14.9282 444.786C14.9282 207.136 207.302 14.4217 444.967 14.4217V0C199.233 0 0 198.87 0 444.852C0 689.734 199.233 888.934 444.879 888.934H444.967ZM444.879 0V14.4876C682.169 14.4876 875.026 207.202 875.026 444.852C875.026 681.754 682.279 874.49 444.989 874.49V889C690.633 889 889.866 689.734 889.866 444.918C889.756 198.87 690.523 0 444.879 0ZM30.0543 443.753C30.0543 671.993 215.921 858.2 444.527 858.2C673.132 858.2 859.329 671.993 859.329 443.753C859.329 215.116 673.11 29.349 444.527 29.349C215.943 29.349 30.0543 215.16 30.0543 443.753ZM26.0749 443.753C26.0749 674.148 213.722 862.157 444.527 862.157C675.332 862.157 862.957 674.148 862.957 443.753C862.957 212.918 675.287 25.3259 444.527 25.3259C213.766 25.3259 26.0749 212.984 26.0749 443.753ZM241.621 200.057C241.269 199.705 240.566 200.057 239.818 200.431C239.818 200.057 237.312 200.057 237.312 200.782C235.501 200.971 233.672 200.971 231.86 200.782C230.6 201.355 229.257 201.719 227.881 201.86V201.508C226.056 202.607 222.802 203.311 222.45 200.782C221.373 200.431 220.999 199.705 220.251 199.705C220.625 199.331 220.625 198.98 220.999 198.98C221.373 199.705 223.505 198.254 224.253 198.254H224.604C225.353 197.529 226.43 198.254 227.133 196.803C226.819 195.992 226.7 195.119 226.782 194.253C226.452 193.971 226.089 193.727 225.705 193.528C224.978 193.923 224.604 192.802 223.879 192.45C223.844 191.578 224.259 190.748 224.978 190.252C224.978 187.68 221.702 186.251 221.373 183.657C221.025 184.121 220.48 184.397 219.9 184.404C219.705 184.404 219.548 184.247 219.548 184.052L218.822 184.756H216.624C215.151 184.052 213.348 184.756 211.546 184.756C210.095 183.657 209.017 182.953 207.895 182.228V179.655C206.84 178.226 205.697 176.776 206.488 175.698C206.488 175.303 206.115 175.303 206.488 175.303C207.084 174.047 207.947 172.937 209.017 172.049L209.391 172.423V172.049C210.82 173.5 212.271 176.05 214.821 174.577C214.821 174.225 214.821 173.148 214.448 172.796C215.151 172.049 212.249 166.993 211.919 166.201H211.546C209.743 162.222 205.389 158.946 203.586 154.967C203.781 154.967 203.938 154.81 203.938 154.615C202.509 152.791 201.036 150.219 202.509 147.734C203.586 148.086 203.235 149.537 203.235 150.262C203.586 150.614 203.938 150.988 203.938 151.34C206.84 155.737 207.895 157.144 212.997 159.298L213.348 158.946C214.821 160.045 215.899 161.474 217.349 162.574C218.075 162.574 218.8 162.222 219.548 162.574C219.548 162.379 219.705 162.222 219.9 162.222C221.373 162.925 224.604 161.848 226.056 162.222H226.782C227.426 161.924 227.947 161.411 228.255 160.771C227.833 159.535 227.34 158.324 226.782 157.144C227.07 156.853 227.476 156.714 227.881 156.77C229.281 158.576 231.152 159.961 233.289 160.771C233.577 160.747 233.845 160.614 234.037 160.397C234.74 158.199 232.564 155.693 231.838 153.802C228.936 150.9 225.683 148.35 223.857 144.371C222.428 142.92 220.977 141.095 219.46 139.666C219.086 140.018 218.734 140.392 218.734 140.743C218.248 139.496 218.531 138.08 219.46 137.116H221.285C221.988 137.468 223.065 137.863 223.791 138.215H226.452C227.529 139.292 228.277 140.743 229.706 140.743H230.057C230.783 141.095 230.783 142.194 231.53 142.546C231.882 142.546 231.882 142.546 232.586 143.645C230.783 144.744 230.783 144.744 230.783 145.448V146.173L231.882 148.372C231.882 148.02 232.256 148.02 232.256 148.02C233.579 151.589 235.861 154.723 238.851 157.078C239.555 158.529 239.928 160.331 241.379 161.057V160.705C243.908 163.585 246.459 164.684 248.987 167.3C248.987 166.949 249.361 166.949 249.361 166.949C250.849 167.827 252.199 168.924 253.362 170.202C252.614 172.005 250.812 172.752 249.361 173.808C249.361 173.456 248.987 173.456 248.635 173.104C248.36 173.137 248.105 173.26 247.91 173.456C247.91 173.104 247.536 173.104 247.184 172.752C246.832 173.456 245.733 172.752 245.359 172.752C243.579 173.456 242.48 173.808 241.731 171.653C242.128 171.653 242.128 171.653 242.128 171.279C240.676 169.477 238.126 167.3 237.422 164.684C237.048 163.959 236.675 163.585 235.949 163.585C234.85 164.332 231.245 166.135 229.794 165.41C229.587 165.41 229.42 165.577 229.42 165.783C228.206 165.863 226.986 165.737 225.814 165.41C224.294 164.859 222.628 164.859 221.109 165.41C220.01 168.312 222.56 170.114 223.989 172.005C223.615 172.379 223.615 172.379 223.263 172.379C226.01 175.667 229.048 178.698 232.344 181.436C234.146 182.513 235.224 185.064 236.741 186.866C238.192 190.494 242.194 193.022 243.645 196.649L243.249 197.001C243.645 197.749 242.194 199.551 241.798 199.903L241.621 200.057ZM286.186 175.874C285.285 176.076 284.427 176.441 283.658 176.951C282.062 178.469 280.048 179.472 277.876 179.831C277.502 179.831 277.129 179.831 277.129 180.205L276.777 179.831C276.425 179.831 276.051 180.205 275.7 180.557C274.47 179.936 273.089 179.684 271.72 179.831C270.994 179.106 270.62 178.402 270.247 178.029C270.548 177.384 271.071 176.869 271.72 176.578C271.72 176.578 271.72 176.951 272.071 176.951C274.27 174.753 274.27 172.972 275.7 170.796C275.326 170.422 275.326 170.422 275.7 170.07C274.828 167.901 273.731 165.83 272.423 163.893C268.444 159.496 262.64 156.308 260.112 150.504C259.408 149.405 258.286 148.68 257.912 147.229C255.714 145.03 254.307 143.25 252.109 141.073C250.68 142.876 246.7 147.668 244.15 146.503H243.777C242.348 145.426 241.247 144.305 242.699 142.876V142.524C242.95 141.768 243.464 141.127 244.15 140.721C243.559 139.09 242.825 137.516 241.952 136.017H242.304C242.271 135.742 242.148 135.487 241.952 135.291C242.304 134.917 242.655 134.544 243.007 134.544C243.733 134.544 243.733 134.544 244.832 135.643H245.184C245.384 135.847 245.647 135.978 245.931 136.017C249.91 136.017 245.557 129.861 245.184 129.114C244.81 128.366 241.952 125.86 240.786 124.717C241.137 124.343 241.137 124.343 238.587 121.441C238.587 120.364 237.158 118.561 237.158 117.462C237.18 116.833 237.053 116.207 236.785 115.637C235.826 114.39 234.571 113.4 233.135 112.757C232.282 113.027 231.522 113.53 230.937 114.208C230.937 114.56 231.31 114.56 231.31 114.56C230.563 114.912 230.563 115.637 230.211 116.033C229.486 115.286 229.112 113.483 230.211 112.757C230.211 112.406 230.211 112.406 229.838 112.406C230.563 112.032 230.563 110.955 231.31 110.603C231.104 110.603 230.937 110.436 230.937 110.229C231.449 109.427 232.054 108.689 232.739 108.031H234.212C234.454 108.992 234.949 109.872 235.641 110.581C238.543 112.01 240.038 112.384 240.368 115.615C240.449 116.166 240.693 116.679 241.072 117.088C239.994 118.165 243.271 121.485 243.601 122.123C243.601 122.123 243.601 122.518 243.271 122.518C244.087 123.163 244.825 123.901 245.469 124.717C245.676 124.717 245.843 124.549 245.843 124.343C247.646 126.168 249.097 127.97 250.548 129.421C250.548 129.795 250.196 129.795 250.196 130.147C251.251 131.598 252.394 132.675 253.45 134.126C254.175 136.676 256.703 138.831 257.429 141.007C258.795 142.984 260.371 144.805 262.134 146.437C262.486 148.636 266.839 154.418 268.73 154.791C269.433 155.868 270.532 155.868 275.964 162.024C277.415 163.475 278.865 164.574 279.965 165.651C280.316 165.651 280.316 165.278 280.668 165.278C281.042 165.651 281.042 166.025 281.767 166.377C281.767 166.183 281.926 166.025 282.119 166.025C282.493 166.025 282.493 166.377 282.845 166.377C283.944 165.651 285.373 166.377 286.472 166.729C286.472 166.377 286.472 166.377 286.846 166.377C287.571 167.454 288.648 168.158 289.044 168.905V169.631C289.027 170.14 289.156 170.644 289.418 171.082C289.141 171.627 288.767 172.118 288.319 172.533C288.319 172.906 288.319 172.906 288.692 172.906C287.736 173.774 286.881 174.748 286.142 175.808L286.186 175.874ZM358.739 123.683L358.365 123.112C357.046 122.929 355.704 122.929 354.385 123.112C354.346 122.839 354.223 122.586 354.034 122.386H353.308V121.991C352.956 121.991 352.956 121.991 352.583 122.386C351.506 120.935 349.703 120.584 348.604 119.858C348.1 118.186 347.359 116.594 346.405 115.132C346.779 115.132 347.131 115.132 347.131 114.758L346.779 114.406C347.131 114.406 347.131 114.054 347.504 114.054C346.157 112.541 345.053 110.828 344.229 108.976L344.58 108.624C344.229 107.547 342.382 103.194 343.151 102.447C342.411 100.287 341.798 98.0848 341.326 95.8514C341.526 95.6613 341.779 95.5384 342.052 95.4997C341.066 93.1652 340.33 90.7335 339.853 88.2449C338.754 85.7167 337.654 83.1665 336.577 80.2646C336.929 78.4619 335.852 77.0109 335.478 75.5599C336.577 74.8345 336.225 73.0098 336.225 71.9325H336.929C338.754 70.8553 341.326 70.1298 342.756 71.9325C344.954 71.9325 344.537 78.5278 344.185 79.9128C344.631 80.4699 345 81.0835 345.284 81.7375C344.91 84.9692 346.735 88.3328 347.482 91.4985C347.109 91.4985 347.109 91.4985 347.482 91.8723V91.4985C348.324 93.0662 348.812 94.7999 348.911 96.5769C349.307 98.3796 350.011 100.204 350.362 102.007C350.736 104.909 353.264 107.459 353.264 110.361H353.968C355.093 111.557 356.067 112.886 356.87 114.318V114.098C357.325 114.5 357.698 114.985 357.969 115.527H358.365C358.455 116.084 358.717 116.599 359.113 117H359.465V117.352C359.839 117.726 360.564 118.078 360.564 118.451H360.916C360.903 119.307 361.021 120.16 361.268 120.979H360.564C360.916 122.43 359.465 122.804 358.739 123.508V123.683ZM340.996 124.783H338.798C338.05 124.057 336.973 124.409 335.522 124.409C335.17 123.683 334.445 123.683 333.741 123.683C332.994 123.332 332.994 122.606 332.29 122.211L331.917 122.606C331.631 121.958 331.114 121.441 330.466 121.155C330.378 120.62 330.134 120.122 329.762 119.726C330.138 118.468 329.857 117.106 329.015 116.099C329.388 113.197 327.564 110.669 327.564 108.119C326.486 105.217 325.034 102.667 323.957 100.138H323.583C321.781 96.8847 317.406 93.5431 317.406 89.6299C318.505 88.2009 319.231 86.7279 321.407 87.4314C321.781 87.4314 321.781 87.4314 321.781 87.0797C323.419 87.2984 325.009 87.7889 326.486 88.5307H326.838C327.564 88.8824 328.289 88.8824 328.663 89.2561H329.015C329.749 90.5809 331.127 91.4176 332.642 91.4546C332.642 91.8283 332.642 92.202 332.994 92.202C333.741 93.2793 335.192 94.4005 335.896 95.4557H336.269C336.973 96.1812 336.973 96.1812 337.347 98.7094H337.72C338.798 100.908 338.446 104.161 339.919 106.69H339.545C340.545 109.222 341.038 111.926 340.996 114.648C340.996 115 340.622 115.373 340.996 115.725C338.072 116.824 344.251 122.628 340.996 124.805V124.783ZM507.669 129.18C506.833 127.509 505.668 127.509 505.668 125.31H505.316V124.937C504.923 124.559 504.424 124.307 503.887 124.211V123.486H503.47V122.782C503.276 122.783 503.118 122.625 503.118 122.431C503.118 122.424 503.118 122.416 503.118 122.408H502.766V116.627C503.235 114.665 504.094 112.818 505.294 111.196H505.668C505.668 110.493 506.042 110.119 506.042 109.767H506.767C506.46 108.153 506.726 106.482 507.515 105.041H508.218V103.59C508.768 103.319 509.261 102.946 509.67 102.491H510.066C510.418 101.413 510.77 100.688 511.143 99.5887C511.495 99.9625 511.495 99.9625 511.847 99.9625C511.847 98.5115 512.221 97.4563 512.221 96.3571C511.671 95.2027 511.671 93.8621 512.221 92.7077C514.419 92.7077 514.045 93.0814 514.771 94.5324H517.651C517.712 96.0068 517.596 97.4833 517.299 98.9292C517.651 98.9292 517.651 99.281 518.398 99.281C519.445 98.0527 520.337 96.7018 521.058 95.2578C520.706 94.5324 520.706 94.5324 520.706 94.1806C520.438 93.5928 519.893 93.1795 519.255 93.0814V92.3339H518.178V92.6857C517.804 92.6857 517.804 92.6857 517.453 92.3339V93.0594H515.628C515.628 92.3339 515.276 91.9822 515.276 91.6084C515.29 91.4146 515.142 91.2475 514.947 91.2354C514.94 91.2349 514.931 91.2347 514.925 91.2347C514.962 90.968 515.085 90.7209 515.276 90.5312H516.002C516.002 90.1795 516.332 89.8057 517.079 89.8057C517.286 89.8057 517.453 89.973 517.453 90.1795C518.178 89.432 518.904 89.8057 519.651 89.8057C520.003 89.8057 520.003 89.432 520.003 89.432C520.728 89.8057 521.806 89.8057 522.905 90.1795V90.5312C525.434 91.2347 526.16 93.7849 527.61 95.6096C527.61 96.6868 527.962 98.1378 527.962 99.5668H528.336C527.61 101.765 527.61 101.765 526.885 102.469C525.808 102.469 525.433 103.216 525.081 103.942C524.334 103.568 523.63 104.293 522.883 104.645C521.784 105.019 519.255 105.744 517.804 106.118V106.47H517.453C516.549 106.988 515.571 107.359 514.551 107.569C514.551 107.921 512.748 108.646 512.352 108.998C512.172 109.343 512.047 109.714 511.979 110.097H511.275C511.275 110.471 510.901 110.471 510.901 110.823H510.55C509.066 113.868 508.311 117.218 508.35 120.606H508.702V120.913C509.055 121.265 509.055 121.265 509.45 121.265C508.702 123.815 519.585 125.266 520.289 124.893C520.662 124.893 520.662 125.266 521.014 125.266V124.893C522.069 125.2 523.171 125.326 524.268 125.266C526.329 126.22 528.646 126.475 530.864 125.992C532.711 125.266 532.711 125.266 533.063 125.266C533.351 124.728 533.722 124.238 534.162 123.815C534.887 121.265 536.36 118.759 537.042 116.209H537.415C537.741 115.904 537.989 115.528 538.141 115.11H538.647C538.647 115.857 540.12 116.209 541.175 116.561C540.823 117.66 540.471 118.385 540.12 119.836H540.845V120.913H541.549C541.087 124.066 541.342 127.283 542.296 130.323H542.649C542.297 131.796 541.944 133.225 540.141 133.225C540.144 133.419 539.988 133.578 539.792 133.579C539.777 133.579 539.761 133.578 539.746 133.576C539.066 133.919 538.301 134.049 537.547 133.95C532.513 133.136 527.551 131.923 522.707 130.323H522.355C520.531 129.971 518.728 129.619 517.277 129.246L517.629 128.872C516.252 128.216 514.755 127.849 513.232 127.795C513.049 127.793 512.9 127.939 512.9 128.121C512.9 128.137 512.9 128.153 512.902 128.168L512.528 127.795C512.528 128.168 512.155 128.168 512.155 128.52H511.077L510.704 128.872L510.352 128.52V128.872L507.669 129.18ZM361.18 68.1512C360.828 68.481 360.828 68.481 359.751 68.8547L360.124 69.2065H359.377C359.377 69.5802 359.025 69.9539 359.025 70.3057H358.651C358.277 72.1084 358.277 73.1856 354.671 73.1856H353.968C353.691 72.6532 353.326 72.1704 352.891 71.7567C353.39 70.438 354.269 69.2977 355.419 68.481V68.1512C355.81 67.9507 356.171 67.6995 356.496 67.4038L356.144 67.052L357.617 66.3265C357.617 65.2273 359.399 64.1281 361.202 63.4246V68.1512H361.18ZM361.18 104.359C360.793 104.312 360.406 104.441 360.124 104.711L358.651 103.282C358.457 103.27 358.29 103.417 358.277 103.611C358.277 103.619 358.277 103.626 358.277 103.634C356.848 101.831 355.023 100.006 355.023 97.852C355.023 97.852 355.397 97.852 355.397 97.5002C355.278 96.62 355.032 95.7615 354.671 94.9501H355.023C354.297 92.0481 355.77 88.7725 356.122 85.8925C356.122 85.5188 356.474 85.5188 356.848 85.5188C356.641 85.5188 356.474 85.3515 356.474 85.1451H356.848C356.907 83.6754 357.439 82.2643 358.365 81.122C358.34 80.5066 358.469 79.8946 358.739 79.3412C359.465 78.9455 360.212 74.6146 360.564 73.8891H360.916C360.916 73.1417 361.268 73.1417 360.916 72.4382L361.268 72.7899V85.8486C361.232 85.5687 361.109 85.3071 360.916 85.1011C360.727 84.9101 360.478 84.7865 360.212 84.7494V85.1011H359.839C359.28 88.2829 359.654 91.5583 360.916 94.5324L361.268 94.1806V104.315L361.18 104.359ZM380.769 120.672C380.054 119.568 379.562 118.336 379.318 117.044C379.041 117.068 378.781 117.193 378.592 117.396C377.493 114.494 376.394 111.966 375.316 109.064C376.042 107.987 374.964 106.536 374.26 105.81C373.48 105.35 372.594 105.1 371.688 105.085C371.02 104.509 370.281 104.022 369.49 103.634C368.786 102.908 368.412 102.183 367.291 101.106V101.457C366.917 101.106 366.917 101.106 366.544 101.106H365.467C365.818 101.106 365.818 101.106 365.818 101.457C365.467 101.457 365.467 101.457 365.115 101.831C365.315 102.014 365.44 102.265 365.467 102.535H364.763C364.763 104.359 362.938 104.359 361.114 104.359V94.1806L362.213 93.8069L361.861 93.4331C362.213 93.0814 362.213 93.0814 362.938 93.0814C363.664 90.883 362.213 88.025 361.114 85.8486V72.7899H361.509C362.938 70.9872 362.938 70.9872 363.29 70.5915C364.016 69.5143 364.763 69.1405 364.763 68.0853C365.818 67.7115 366.214 66.6123 367.291 65.8869C367.291 65.4911 366.917 65.1394 366.917 64.7876C365.818 65.1394 365.115 65.1394 363.664 65.4911V65.9528C362.938 66.3046 362.213 67.03 361.465 67.3818V68.1512H361.07V63.3806C361.474 63.2035 361.846 62.9581 362.169 62.6552V62.3034C362.894 61.9297 363.246 61.2042 364.367 61.2042L363.994 60.8525C364.741 60.127 365.445 60.127 366.192 59.7313V59.3575C368.72 58.654 370.589 59.3575 372.787 59.0058C372.787 60.105 373.864 59.7093 374.238 60.105C374.265 60.3809 374.39 60.6381 374.59 60.8305C374.397 60.8305 374.238 60.9879 374.238 61.1822V61.556L373.864 61.9297V62.3034C371.666 63.0289 371.314 64.5018 370.237 65.1834V65.9528H369.863V66.3046C368.753 66.9931 367.874 67.9954 367.335 69.1845V68.8108C366.961 69.1625 366.588 69.5362 366.961 70.2617C365.862 70.6135 366.258 71.3609 366.588 72.0644C366.961 72.0644 366.961 71.7127 367.335 71.7127C367.335 72.0644 369.534 72.0644 370.237 72.4382C370.589 73.5154 371.314 77.8463 372.787 78.5938C373.139 78.5938 373.139 78.5938 374.986 77.4946V77.1428H375.69V76.7911C377.163 76.0656 378.24 75.6918 380.087 74.9664C380.087 75.3181 380.439 75.3181 380.813 75.3181V78.242C380.087 78.5938 379.691 78.242 378.614 78.242C377.5 78.3588 376.402 78.5946 375.338 78.9455V79.3412C374.786 79.5789 374.298 79.9399 373.908 80.3965C373.535 82.5949 375.338 85.1011 375.338 87.2775C376.789 89.8277 376.064 93.0814 376.438 96.0713H376.789V96.445C377.515 96.445 377.889 96.0713 378.24 96.0713V95.6316C378.614 95.2578 379.34 94.9061 379.669 94.5324C379.34 94.5324 379.34 94.5324 379.34 94.1806C379.669 94.1806 380.065 94.1806 380.065 93.8069V93.4331H380.791V120.628L380.769 120.672ZM380.769 121.375V120.913V121.265V121.375ZM391.343 140.545C390.47 139.27 389.507 138.057 388.463 136.918H388.067C388.067 136.193 387.738 136.566 387.738 135.841C385.539 131.114 382.285 126.41 380.856 121.331V120.913V93.4331V93.0814C380.856 92.7077 380.856 92.7077 381.208 92.7077V92.3339C381.934 91.6084 382.659 89.8057 384.11 89.432C383.917 89.4441 383.75 89.2968 383.736 89.1029C383.736 89.0954 383.736 89.0877 383.736 89.0803C384.11 89.0803 384.462 88.7065 384.836 88.7065V87.9371C385.187 87.9371 385.539 87.1896 385.539 86.4641H386.287V86.1124L387.012 85.3869V84.6614C387.206 84.6614 387.364 84.504 387.364 84.3097C387.364 82.8367 387.738 79.2533 384.11 79.605C384.11 79.605 383.736 79.2533 383.385 78.8576L383.011 79.2533C382.659 78.8576 382.285 78.5058 381.934 78.5058H381.56C381.208 78.5058 381.208 78.5058 380.856 78.1541V75.3181H382.285C382.659 75.3181 382.659 75.3181 383.011 75.6918C383.218 75.6918 383.385 75.5245 383.385 75.3181C383.736 76.0656 384.11 76.0656 384.836 75.6918C384.836 76.0656 385.539 76.4173 386.287 76.7911C387.364 76.0656 389.189 77.1428 389.914 78.242C390.108 78.2436 390.268 78.0872 390.268 77.8931C390.268 77.8775 390.268 77.8617 390.266 77.8463C390.807 78.6624 391.292 79.5142 391.717 80.3965C392.069 80.0447 392.069 80.0447 392.421 80.0447C392.795 80.3965 392.795 81.122 393.169 81.4957L393.52 81.122C393.169 81.8694 394.246 82.5949 394.598 82.5949C395.345 84.7933 395.345 89.1902 392.795 90.2015C392.988 90.1894 393.156 90.3367 393.169 90.5306C393.169 90.538 393.169 90.5457 393.169 90.5532C392.795 90.5532 392.421 90.905 392.069 90.905C392.069 92.0042 390.266 92.7077 389.87 93.1034V93.8289C389.496 93.8289 389.496 93.8289 389.145 93.4551C388.771 94.2026 388.419 94.5543 388.023 94.5543C387.694 94.9281 388.023 94.9281 388.023 95.2798C387.32 95.2798 386.968 95.6536 386.243 96.0053C385.807 96.4241 385.319 96.7862 384.792 97.0825H385.143C384.871 97.7394 384.35 98.2613 383.692 98.5335C383.341 98.5335 383.341 98.1817 383.341 97.83C382.811 98.3084 382.191 98.6746 381.516 98.9072C381.516 99.259 381.516 99.259 381.89 99.259C381.699 99.4588 381.441 99.5835 381.164 99.6107C381.516 101.084 381.516 101.084 382.615 105.063C382.615 105.063 382.242 105.063 382.242 105.415C382.242 105.766 382.242 106.514 382.615 106.514C382.615 106.866 382.242 106.866 382.242 106.866C382.615 109.064 382.615 109.064 382.242 109.789C383.341 112.669 384.44 115.549 385.495 118.583C385.143 120.034 386.243 121.837 386.594 124.013H387.32C387.698 125.376 388.182 126.707 388.771 127.992C390.222 130.191 390.222 133.071 391.299 135.247C391.673 135.973 392.751 139.644 393.125 139.952C392.478 140.087 391.862 140.333 391.299 140.677L391.343 140.545ZM477.088 134.368C477.439 134.016 476.362 133.642 475.988 133.291C475.481 131.723 474.739 130.241 473.789 128.894C474.029 127.581 474.154 126.249 474.163 124.915H474.888C475.499 123.669 476.362 122.561 477.417 121.661C477.769 119.463 477.769 115.066 479.22 113.329C480.319 113.329 480.319 115.132 480.319 115.879C481.045 116.231 480.671 116.956 480.671 117.682C481.045 117.682 481.045 117.682 481.045 118.034C482.144 118.034 482.848 118.407 483.925 118.407C483.951 120.625 484.202 122.835 484.672 125.003C484.325 125.928 484.189 126.92 484.277 127.904C483.111 130.192 481.79 132.396 480.319 134.5C479.732 134.32 479.104 134.32 478.517 134.5L477.088 134.368ZM482.87 108.295C482.87 107.591 482.87 107.591 484.299 104.667C484.299 104.667 484.694 104.667 484.694 104.315L485.046 103.964C485.793 103.964 486.497 100.688 486.497 99.9625C485.793 96.9097 486.176 93.7077 487.574 90.905C487.97 90.905 487.97 90.905 488.3 90.5532C488.673 90.2015 488.673 89.8277 488.673 89.1022C489.399 89.454 490.872 87.6733 490.872 86.9038C489.773 85.8266 487.596 86.5301 485.815 85.8266V86.5301C484.32 86.5301 481.814 86.5301 481.089 85.0791C479.979 85.2106 478.974 84.4181 478.842 83.3087C478.813 83.0625 478.829 82.8132 478.89 82.5729H478.165V81.4737H477.791C477.846 80.9639 477.723 80.4506 477.439 80.0227C477.791 78.5718 477.439 78.22 477.791 77.1208C478.89 76.7691 479.99 76.7691 481.067 76.3953C481.419 76.3953 481.792 76.7691 482.166 76.7691V76.3953C482.518 76.3953 482.518 76.3953 482.518 76.7691C482.87 76.0436 483.243 76.3953 483.595 76.0436C485.233 77.0623 487.271 77.1945 489.025 76.3953C489.449 76.686 489.964 76.8183 490.476 76.7691C490.683 76.7691 490.85 76.6018 490.85 76.3953C491.202 76.3953 491.553 76.0436 491.928 76.0436C492.302 76.0436 492.302 76.0436 492.302 76.3953C493.379 75.6699 493.379 75.6699 494.83 76.0436C495.661 75.3146 496.901 75.3146 497.732 76.0436C498.438 75.4608 499.35 75.1908 500.26 75.2961C500.26 75.1018 500.416 74.9442 500.612 74.9437C500.618 74.9437 500.627 74.9439 500.634 74.9444H500.986C502.533 74.5917 504.142 74.5917 505.69 74.9444C506.064 74.5926 506.064 73.8671 506.064 72.7459C505.69 72.7459 505.338 72.3942 504.987 72.3942C504.492 71.268 503.738 70.2738 502.788 69.4923V68.8108C502.063 68.8108 501.711 66.6123 501.711 66.2826C501.74 65.0424 501.977 63.8159 502.415 62.6552H502.788C502.788 61.9297 503.14 61.2042 503.14 60.4567C503.492 60.4567 503.492 60.4567 503.887 60.105C504.336 59.3276 504.584 58.4516 504.613 57.5548C505.004 57.5067 505.396 57.645 505.668 57.9286C506.767 55.7301 509.67 59.0058 510.748 59.7093C510.396 60.105 510.044 61.1822 509.67 61.534C509.67 62.6332 510.044 63.0069 510.044 64.0841H510.748C510.396 64.0841 510.396 64.0841 510.396 64.4359C510.396 64.4359 510.396 64.8096 510.748 64.8096C510.394 66.358 510.394 67.9659 510.748 69.5143V70.5915C508.923 70.5915 508.218 72.4162 507.867 73.4934C508.571 73.8671 509.319 73.8671 510.066 74.2189C510.066 73.8671 510.066 73.8671 510.418 73.8671C510.921 73.8836 511.416 73.7539 511.847 73.4934C512.221 73.4934 512.221 73.4934 512.221 73.1197V73.4934C512.221 73.287 512.388 73.1197 512.594 73.1197H514.463C514.837 72.7679 514.837 72.7679 514.837 72.4162H515.914C517.365 72.0424 520.97 71.6907 521.696 70.5915H522.443V70.3497C522.637 70.3497 522.795 70.5071 522.795 70.7014C522.795 70.3497 522.795 69.9979 523.169 69.9979H523.52C523.872 69.6242 523.872 69.6242 523.872 69.2505C524.224 69.2505 524.224 69.2505 524.224 69.6242C525.88 67.9692 527.709 66.4952 529.677 65.2273V64.5018H530.402C530.402 64.3075 530.561 64.1501 530.754 64.1501C530.754 64.1501 531.853 62.6991 532.205 62.6991C532.781 61.9125 533.267 61.0646 533.656 60.1709C534.382 60.5227 535.129 59.4235 535.503 59.0717C536.91 59.7752 538.735 60.1709 538.735 61.5999C538.941 61.5999 539.108 61.7672 539.108 61.9737C539.398 62.9122 539.517 63.8951 539.46 64.8756C539.893 67.2708 539.372 69.7405 538.009 71.7567C538.009 72.1084 537.635 73.1856 537.635 73.5594C538.266 73.4996 538.902 73.6297 539.46 73.9331V74.6586H540.559C540.559 75.3621 542.011 76.1095 542.759 76.1095C542.407 76.4613 542.407 76.4613 542.407 76.835H542.759V77.1868C543.11 77.1868 543.484 77.5385 543.858 77.5385C544.232 78.9895 545.309 79.7369 545.661 80.4404C546.76 80.8142 546.012 84.4416 545.661 85.1451C545.309 85.5188 545.309 85.8925 544.935 86.2443H544.232C542.758 87.3215 539.504 85.1451 537.635 85.1451H535.129C535.129 84.7933 535.503 84.7933 535.503 84.4416C533.656 84.0678 533.656 84.0678 533.304 82.6389L532.931 82.9686C532.205 82.6389 531.853 82.2651 531.128 81.9134C530.464 81.497 529.71 81.2411 528.93 81.1659C527.452 80.4637 525.839 80.0959 524.202 80.0887H523.498V80.8142C521.935 80.9907 520.357 80.9907 518.794 80.8142L518.442 81.1659C515.892 80.4404 513.737 82.6389 512.264 84.0678H510.814V84.4416H509.736V85.1451C507.537 85.5188 506.833 87.7172 504.305 88.069V88.7725C503.45 88.506 502.52 88.6437 501.777 89.1462C500.051 88.814 498.264 89.0695 496.699 89.8717C496.492 89.8717 496.325 89.7044 496.325 89.498C494.874 92.0481 494.522 93.1254 493.797 94.2246C493.634 94.8171 493.509 95.4192 493.423 96.0273H493.797C493.937 97.9907 493.691 99.9627 493.071 101.831C493.423 101.831 493.797 101.831 493.797 102.183V106.844H493.423C493.423 107.591 492.697 107.591 492.346 107.943C491.246 107.943 490.52 108.295 489.443 108.295V108.668C488.405 108.252 487.306 108.007 486.189 107.943C485.837 106.844 484.738 107.943 484.342 108.295H482.87ZM619.818 194.517C619.818 194.143 619.466 193.813 619.818 193.066C618.197 190.854 616.379 188.794 614.387 186.91C614.491 186.005 614.229 185.095 613.662 184.382C613.708 184.101 613.838 183.84 614.036 183.635C613.519 182.83 612.908 182.092 612.211 181.436V181.084C611.837 180.711 611.485 180.711 611.134 180.337C611.327 180.337 611.485 180.18 611.485 179.985C611.134 179.985 611.134 179.611 611.134 179.611C611.485 179.26 611.837 178.534 612.563 178.534C615.113 179.985 617.289 181.81 619.818 183.239C619.818 183.045 619.974 182.887 620.169 182.886C620.176 182.886 620.185 182.887 620.191 182.887L625.996 184.69L626.348 184.338C626.348 184.69 626.7 184.69 627.073 184.69C627.583 184.675 628.085 184.805 628.524 185.064C628.707 184.849 628.968 184.714 629.25 184.69C629.443 184.689 629.602 184.847 629.602 185.041C629.602 185.048 629.602 185.056 629.602 185.064C629.953 184.69 629.953 184.69 630.349 184.69C631.628 184.312 632.758 183.543 633.581 182.491C633.581 182.865 633.954 182.865 634.328 182.865C634.854 181.738 635.449 180.644 636.109 179.59C635.757 179.59 635.757 179.238 635.757 178.864C632.503 177.061 629.602 175.632 626.7 173.786V173.082C625.316 172.066 624.1 170.843 623.093 169.455C623.093 168.729 623.445 168.729 623.797 168.378C624.225 168.66 624.738 168.785 625.248 168.729C626.152 168.719 627.034 168.46 627.799 167.982C628.749 168.274 629.621 168.778 630.349 169.455V170.18C631.818 170.936 633.161 171.915 634.328 173.082C635.592 173.224 636.819 173.589 637.956 174.159C639.385 173.434 639.758 171.961 641.209 170.554C642.266 169.828 642.265 169.828 642.265 169.103C642.888 169.059 643.501 168.934 644.09 168.729H645.189V167.982L645.541 168.378C645.893 167.63 646.267 167.278 646.267 166.553C644.284 164.702 642.067 163.12 639.67 161.848C638.945 160.045 640.396 159.65 641.869 159.298C642.221 159.298 642.221 159.672 642.221 159.672C642.427 159.672 642.595 159.504 642.595 159.298C643.321 159.672 643.694 159.672 644.42 160.045C644.42 159.839 644.587 159.672 644.794 159.672C647.073 161.132 649.274 162.71 651.389 164.398C653.04 164.835 654.381 166.037 654.994 167.63C655.496 169.701 655.247 171.882 654.291 173.786C654.291 174.159 653.565 174.511 653.214 175.237C652.69 175.188 652.169 175.329 651.741 175.632C650.312 175.632 648.487 174.511 646.684 174.511V174.885C646.478 174.885 646.311 174.718 646.311 174.511C645.233 175.237 645.585 175.632 645.585 176.71L648.487 178.161C649.213 178.161 649.586 178.512 650.312 179.238V178.864H650.773C653.324 177.413 657.369 181.788 656.929 183.569C657.303 183.964 657.303 184.316 657.654 184.316C657.654 184.668 657.654 184.668 657.303 184.668C658.028 185.042 658.028 186.471 657.654 187.196C657.037 187.656 656.441 188.148 655.874 188.669C654.753 188.295 654.049 187.944 652.95 187.548C652.224 187.196 651.851 186.471 650.751 186.119C649.342 184.004 647.326 182.364 644.969 181.414C640.572 184.668 638.791 190.472 634.812 194.077C633.818 194.489 632.855 194.974 631.932 195.528C630.69 195.582 629.465 195.834 628.304 196.276L627.931 195.88C627.724 195.879 627.557 196.046 627.557 196.253C627.557 196.26 627.557 196.268 627.557 196.276C627.205 195.88 627.205 195.88 626.831 195.88C626.856 196.073 626.719 196.249 626.526 196.273C626.511 196.275 626.495 196.276 626.48 196.276V195.88L626.128 196.276C625.754 196.276 625.754 196.276 625.381 195.88V196.627C624.676 195.88 623.929 195.88 622.851 195.528H622.5C622.5 195.528 622.126 195.528 622.126 195.88C621.312 195.541 620.567 195.056 619.927 194.451L619.818 194.517ZM666.559 172.533C666.41 172.118 666.17 171.743 665.856 171.433C666.135 170.667 666.487 169.931 666.911 169.235C667.285 169.235 667.636 169.235 667.636 169.587C669.454 168.901 671.492 169.174 673.066 170.312C673.44 169.96 673.44 169.96 673.792 169.96C674.144 169.96 674.166 170.312 674.539 170.312C676.22 169.869 677.22 168.15 676.778 166.471C676.765 166.424 676.752 166.378 676.739 166.333H676.365V165.542C675.791 164.853 675.025 164.348 674.166 164.091C674.539 163.717 674.891 163.717 674.891 163.365L677.091 164.464V164.091C677.464 164.091 677.464 164.464 677.838 164.464V164.091C678.212 164.464 678.915 164.464 679.641 164.816V165.542C679.992 165.915 680.366 165.915 681.092 166.267V165.542C681.443 165.542 681.443 165.542 681.817 165.915C681.624 165.903 681.457 166.05 681.443 166.244C681.443 166.252 681.443 166.26 681.443 166.267H681.817C681.443 166.993 681.443 167.696 681.817 167.696C681.804 168.27 681.538 168.808 681.092 169.169C681.443 169.521 681.443 169.521 681.817 169.521C681.092 170.62 681.817 172.049 681.817 173.5C681.371 174.187 681.01 174.925 680.74 175.698C680.014 174.847 678.766 174.677 677.838 175.303C677.091 175.303 676.013 174.951 675.64 175.303C674.146 174.709 672.537 174.461 670.934 174.577C669.542 173.706 668.069 172.97 666.537 172.379L666.559 172.533ZM661.481 138.479C661.404 137.824 661.153 137.202 660.755 136.676C660.755 136.302 660.404 134.126 661.129 133.752C660.052 132.323 663.657 129.795 664.383 129.048C664.981 128.543 665.48 127.932 665.856 127.245C666.003 127.259 666.126 127.365 666.163 127.509C666.867 126.432 667.592 125.706 669.065 126.432C669.769 125.354 671.593 127.509 671.945 127.882C671.945 128.256 671.593 128.608 671.593 128.96H671.945C671.752 128.959 671.593 129.116 671.593 129.311C671.593 129.318 671.593 129.326 671.593 129.333C671.945 129.333 672.319 129.707 673.022 130.411C674.847 130.411 674.847 130.411 675.574 131.136C675.574 131.505 675.315 131.824 674.957 131.906C673.132 131.906 673.132 131.906 673.132 132.257L672.759 131.906C671.763 132.983 671.246 134.42 671.33 135.885C669.131 138.413 669.131 138.765 669.131 139.49C667.658 139.864 666.229 140.941 665.13 140.941C663.679 139.864 662.602 139.138 661.503 138.413L661.481 138.479ZM612.563 150.438C611.562 149.128 610.36 147.986 609.001 147.053L609.353 146.701L609.001 146.327C609.834 144.782 610.797 143.311 611.881 141.93C612.495 141.764 613.02 141.371 613.354 140.831H614.08C614.431 140.106 615.882 140.479 616.608 140.831L616.96 140.479C617.333 140.479 617.685 140.831 618.037 140.831H619.862C620.235 140.479 621.312 139.754 621.664 139.38C622.038 139.38 622.412 139.38 622.412 139.754C622.763 138.655 623.489 138.303 623.841 137.204C623.841 137.398 623.997 137.556 624.192 137.556C624.199 137.556 624.208 137.556 624.214 137.556C625.308 136.751 626.537 136.148 627.843 135.775H628.217C629.412 134.692 631.006 134.158 632.613 134.302C632.785 134.189 632.981 134.121 633.185 134.104C633.185 134.456 637.164 133.73 637.582 133.73C637.788 133.928 638.048 134.058 638.329 134.104C638.329 133.73 638.329 133.73 639.406 133.379C639.78 133.73 639.78 133.73 639.78 134.104C639.78 133.73 639.78 133.73 640.132 133.379C641.251 133.782 642.338 134.267 643.387 134.83C643.76 134.456 645.915 135.555 646.289 135.929C646.838 135.657 647.328 135.284 647.74 134.83C647.388 134.456 647.388 134.456 647.014 134.456C647.74 133.73 647.014 132.257 646.289 131.95V130.125C645.211 126.497 649.19 124.321 651.367 122.518C651.75 122.479 652.053 122.176 652.092 121.793C652.466 121.793 652.818 121.793 652.818 122.123C653.192 121.419 653.917 121.419 654.269 121.067C654.269 121.262 654.427 121.419 654.621 121.419C654.621 121.067 654.972 121.067 655.346 121.067C655.742 121.419 658.226 121.419 657.544 123.266C657.795 123.491 658.03 123.733 658.248 123.991C657.918 123.991 658.249 124.343 657.918 125.442L658.248 125.794C658.283 127.201 657.918 128.589 657.193 129.795C657.386 129.795 657.544 129.953 657.544 130.147C657.193 130.499 657.193 130.872 652.84 137.38C653.214 139.93 657.544 139.93 659.722 141.007C660.447 141.007 661.173 141.359 661.525 141.007C662.624 141.755 665.152 141.007 666.955 141.755H667.329C667.68 141.755 667.68 141.755 667.68 142.106V141.755C668.757 142.458 670.582 141.359 671.33 142.458C671.681 141.755 673.836 142.81 674.583 142.458C677.091 143.535 681.443 142.458 682.169 140.26H682.543C684.178 138.975 685.656 137.499 686.94 135.863C686.779 135.262 686.656 134.653 686.566 134.038C687.291 133.664 687.665 134.038 688.039 134.39C688.39 134.39 688.39 134.038 688.742 134.038C689.116 134.39 689.116 134.39 689.468 134.764C689.455 134.57 689.602 134.403 689.797 134.391C689.804 134.39 689.813 134.39 689.819 134.39C691.446 135.396 692.929 136.625 694.217 138.039V138.391C694.727 138.843 694.879 139.576 694.591 140.194C694.965 140.194 694.965 140.194 695.295 140.567C694.965 140.567 694.965 140.567 694.965 140.919C696.394 141.667 694.591 145.624 694.217 146.723C693.492 147.075 692.766 147.822 692.018 148.174C691.666 147.822 689.138 148.526 688.764 148.526C687.265 147.545 685.453 147.16 683.686 147.449C681.487 147.075 681.487 147.075 681.158 147.449C679.707 146.349 679.707 146.349 678.63 146.349H678.278C677.097 145.448 675.457 145.448 674.276 146.349C673.55 145.976 673.176 145.624 672.473 145.624C672.099 145.976 671.747 145.976 671.747 145.624C671.396 146.349 669.923 145.976 669.219 145.976C669.219 145.976 664.119 144.92 663.415 144.92C662.712 144.92 662.69 145.272 662.316 145.272V144.92L661.942 145.272C661.676 145.235 661.428 145.111 661.239 144.92L660.865 145.272C660.865 144.92 660.865 144.92 660.513 144.92H659.414C658.689 145.624 654.709 144.195 654.005 143.821C653.798 143.821 653.631 143.988 653.631 144.195C653.28 143.821 651.807 143.447 650.729 142.722H650.378C649.652 142.37 649.278 142.018 648.553 141.667L648.179 142.018C647.071 140.94 645.864 139.968 644.574 139.116V138.721C642.78 136.894 640.128 136.201 637.67 136.918C637.476 136.918 637.318 136.761 637.318 136.566C635.15 137.067 633.633 139.024 633.691 141.249C634.438 142.348 635.142 142.348 636.219 142.7C636.614 143.074 636.614 143.425 636.944 143.799C638.769 143.799 640.22 144.898 641.671 143.799C642.375 144.173 642.748 144.525 643.475 144.898C644.2 143.799 646.377 144.898 647.476 145.954L647.828 146.327C649.278 145.25 649.652 146.327 650.729 145.954C650.729 146.327 650.729 146.327 651.081 146.327C651.455 145.954 651.807 146.327 652.554 146.327C655.434 147.8 658.314 147.8 661.349 149.955V150.328C661.767 150.766 662.127 151.253 662.426 151.779C662.714 151.492 663.121 151.354 663.525 151.406C664.229 152.131 665.328 153.23 666.427 154.308C666.779 155.759 664.954 155.759 665.702 157.935C665.702 157.935 665.328 157.935 665.328 158.287C665.328 157.935 665.328 157.935 664.954 157.561C663.877 157.935 662.052 157.935 660.975 158.287C658.776 157.21 658.776 157.21 658.424 156.836C656.621 155.759 655.94 155.759 654.467 156.484C654.071 156.304 653.706 156.058 653.39 155.759V155.385C653.101 154.81 652.552 154.409 651.917 154.308H651.565C651.191 154.308 650.488 153.956 650.488 153.582L649.762 154.308C648.81 153.228 647.663 152.34 646.377 151.691V152.043C645.651 151.691 645.299 151.691 644.574 151.318C644.574 151.691 644.574 151.691 644.2 151.691C643.475 151.318 640.594 150.966 639.802 151.691H635.076C633.998 152.395 632.547 151.691 631.096 151.691H626.04C625.292 151.691 624.94 151.318 624.214 151.318H623.841V150.966C622.627 150.867 621.407 150.986 620.235 151.318C619.026 152.625 617.076 152.925 615.531 152.043C614.592 151.385 613.616 150.783 612.607 150.24L612.563 150.438ZM693.008 258.007V257.216C693.459 256.312 693.705 255.323 693.734 254.314C694.085 253.215 694.459 252.116 694.833 250.687C698.065 248.488 702.439 248.488 706.067 247.081V247.433C706.77 247.081 707.144 247.081 707.496 246.707V247.081C709.5 245.854 711.755 245.103 714.092 244.883C719.896 241.277 727.503 238.749 731.505 233.671C732.885 232.686 734.356 231.84 735.901 231.143C737.027 230.732 738.122 230.239 739.177 229.67C739.687 229.725 740.199 229.602 740.628 229.318V239.101C739.65 239.349 739.021 240.301 739.177 241.299C738.265 241.829 737.508 242.585 736.979 243.498H737.352C736.979 244.575 736.979 244.927 736.627 246.026V248.224C738.093 247.998 739.469 247.374 740.606 246.422V256.205C739.859 255.831 739.859 255.479 739.507 254.38C738.43 254.028 738.43 254.028 738.056 254.38C736.979 252.929 735.858 251.478 734.099 251.83C733.633 251.441 733.257 250.953 733 250.401C730.801 250.753 730.801 250.753 730.098 251.478C730.098 251.126 729.724 251.126 729.724 250.753C727.921 251.478 727.525 251.478 726.448 250.027C726.822 248.928 727.196 247.829 726.448 247.147C725.848 247.231 725.254 247.347 724.666 247.499C722.468 248.576 721.017 248.576 718.863 249.697L718.489 249.346C716.29 250.071 713.433 250.445 711.608 252.621C711.256 252.973 710.509 253.325 710.157 254.072V254.424C708.136 255.081 706.364 256.339 705.078 258.029C702.991 258.858 700.999 259.911 699.142 261.173C698.366 261.446 697.627 261.815 696.943 262.272C695.097 261.525 694.019 259.37 692.942 257.875L693.008 258.007ZM741.595 261.613C741.283 260.905 741.041 260.168 740.87 259.414C741.948 259.041 742.3 257.941 743.069 257.59V257.216C743.421 256.49 743.421 255.765 744.147 255.413L745.246 254.314C746.323 255.413 749.247 253.215 749.972 252.511C750.166 252.511 750.324 252.67 750.324 252.863C752.144 252.003 754.116 251.511 756.128 251.412H757.557C757.909 251.412 757.909 251.412 758.282 251.06C758.282 251.254 758.439 251.412 758.634 251.412C758.641 251.412 758.651 251.412 758.657 251.412C759.743 251.179 760.878 251.302 761.889 251.764C762.834 251.474 763.826 251.355 764.813 251.412C764.813 251.764 764.813 251.764 765.165 252.16C765.165 251.764 765.516 251.764 765.89 251.764C765.89 252.511 766.242 252.511 766.616 252.16L767.341 252.863L767.693 252.511C768.44 253.589 769.144 254.314 769.891 254.314C769.891 254.688 770.265 255.413 770.617 255.413C769.742 255.983 768.75 256.35 767.715 256.49C767.363 256.49 767.363 256.49 767.363 256.139C766.321 256.616 765.231 256.979 764.109 257.216C764.109 257.919 765.538 258.645 765.912 258.645C765.912 259.019 765.912 259.392 766.264 259.392C767.715 259.744 768.814 261.591 770.265 261.921C773.87 265.922 777.521 261.921 780.796 260.47C780.796 260.843 781.5 260.47 781.852 260.47C782.225 261.547 782.951 262.294 783.303 263.372C781.016 264.462 779.121 266.225 777.872 268.428C778.299 269.193 778.776 269.927 779.301 270.626C780.027 271.33 780.796 271.726 780.796 272.429H781.5C781.852 272.429 781.852 272.781 781.852 273.506H782.225C783.096 274.348 783.498 275.564 783.303 276.76C783.654 277.134 784.006 277.859 784.402 278.233C783.654 278.233 784.402 280.431 784.754 281.113C784.402 281.86 784.006 282.564 783.654 283.311C782.951 284.037 782.577 284.037 781.456 285.114C781.456 284.921 781.3 284.762 781.104 284.762C781.098 284.762 781.089 284.762 781.082 284.762C779.257 285.839 774.926 284.41 772.749 282.564H772.375C772.024 282.212 771.672 281.86 771.298 281.86C771.298 281.487 771.298 281.86 770.924 281.86C770.542 280.926 770.063 280.036 769.495 279.2C767.297 277.419 767.297 275.221 766.22 273.396C768.77 272.671 770.617 276.298 772.815 277.793C773.189 278.167 773.189 278.167 776.817 281.047C777.169 281.047 777.169 281.421 777.543 281.421C779.323 280.695 780.818 280.343 781.94 278.519C781.94 278.167 781.94 278.167 782.313 277.793C781.94 276.342 782.665 275.595 781.588 274.54H781.214C780.884 273.792 779.763 273.44 779.389 272.341H779.038C777.235 270.143 777.609 269.791 775.409 269.791C773.958 270.165 772.881 270.89 771.804 271.242C771.804 271.048 771.648 270.89 771.452 270.89C771.445 270.89 771.437 270.89 771.43 270.89C771.056 269.791 770.705 269.439 770.705 268.692C771.43 267.966 770.705 266.867 770.353 265.79C770.705 265.79 770.705 265.394 771.056 265.394C769.979 263.965 769.254 263.196 767.803 263.196C767.15 262.78 766.545 262.294 766 261.745C765.112 261.334 764.259 260.848 763.45 260.294C763.098 260.294 762.746 260.294 762.746 260.667C761.295 259.217 760.922 258.843 759.493 259.217V258.843C758.767 259.217 758.392 259.217 758.019 259.568V259.414H757.293C757.1 259.414 756.941 259.258 756.941 259.063C756.941 259.056 756.941 259.047 756.941 259.041C755.49 259.414 754.04 259.041 752.962 260.14C750.082 259.414 746.807 261.217 743.905 261.943C743.566 262.448 743.199 262.932 742.805 263.394C742.46 262.831 742.215 262.215 742.079 261.569L741.595 261.613ZM736.891 312.704V310.902C736.748 309.389 736.379 307.907 735.792 306.505C734.789 306.039 734.112 305.076 734.011 303.977C733.263 302.13 732.164 300.701 731.461 299.272C730.383 298.546 730.383 298.546 730.01 297.799H729.636C729.262 297.799 728.911 297.095 728.559 296.722C727.952 295.671 727.213 294.704 726.36 293.842C726.36 291.643 726.009 289.819 727.108 288.39C727.108 282.96 735.792 282.234 739.419 281.135C739.608 280.944 739.856 280.82 740.122 280.783C739.771 280.431 739.419 280.431 739.419 280.036C739.135 280.069 738.874 280.209 738.693 280.431L738.342 280.036C736.671 280.363 734.965 280.497 733.263 280.431C731.065 281.135 728.867 280.431 726.668 281.135C725.943 280.431 723.787 280.431 723.413 280.431C722.866 279.774 722.07 279.374 721.215 279.332H720.841C720.116 278.255 718.643 278.255 717.939 277.134C717.588 276.76 716.862 276.76 716.862 276.408C715.829 275.219 714.982 273.876 714.356 272.429C714.945 271.697 715.31 270.813 715.411 269.879C717.214 268.824 719.061 267.351 720.841 269.175C721.589 268.428 721.94 269.879 721.94 270.253C722.666 272.077 724.842 274.232 726.338 274.232C726.545 274.232 726.712 274.399 726.712 274.606C727.086 274.606 727.086 274.232 727.437 274.232V274.957C728.185 274.606 728.537 274.232 728.888 274.232V274.606C729.614 274.232 730.361 274.957 731.439 274.957C733.47 275.318 735.534 275.443 737.594 275.331L738.672 274.232C737.946 272.429 737.594 271.33 736.869 269.835C737.594 269.131 736.517 266.955 737.946 266.229C739.045 266.955 740.848 265.878 741.925 265.878C742.548 266.509 743.041 267.256 743.377 268.076V268.406C744.417 268.887 745.393 269.501 746.279 270.231C747.484 270.409 748.475 271.264 748.829 272.429C749.577 272.429 749.928 272.781 750.28 273.506L750.632 273.155C752.107 274.588 753.679 275.918 755.337 277.134H755.71C756.436 277.859 757.139 278.233 757.909 278.958C757.909 279.662 758.657 282.212 758.282 282.938C759.009 284.389 759.383 284.74 758.282 285.817C757.183 286.565 756.48 287.29 755.381 288.016H754.281C753.567 287.007 752.562 286.24 751.401 285.817C751.028 285.092 751.028 285.092 750.324 284.74C749.122 284.916 747.899 284.916 746.697 284.74C746.503 284.753 746.336 284.606 746.323 284.41C746.323 284.404 746.323 284.395 746.323 284.389C745.323 284.312 744.34 284.065 743.421 283.663C741.969 284.389 740.892 285.861 739.023 286.191V285.796C736.719 286.871 734.631 288.361 732.868 290.192V291.27C733.967 293.094 734.67 294.875 735.748 296.348C736.847 297.425 737.572 298.546 738.65 299.602C739.023 300.327 739.375 300.679 739.375 301.404C739.375 301.211 739.533 301.053 739.727 301.053C741.028 302.44 742.24 303.908 743.355 305.449C744.63 306.012 746.081 306.012 747.356 305.449V305.823C748.807 305.098 749.906 304.02 751.335 305.823H750.61C750.962 305.823 750.962 306.197 750.962 306.197C749.906 306.922 749.906 306.922 749.906 306.549C748.807 307.626 747.356 308.747 746.257 309.824C746.451 309.811 746.618 309.958 746.631 310.154C746.631 310.161 746.631 310.169 746.631 310.176C746.433 310.924 746.191 311.658 745.905 312.374C745.905 313.452 744.454 313.825 744.806 315.276C743.621 315.18 742.447 315.569 741.551 316.354C741.347 316.162 741.215 315.905 741.178 315.628C740.826 315.628 740.826 315.628 740.826 316.002C740.474 315.276 740.078 315.628 739.727 315.628L736.847 312.726L736.891 312.704ZM756.106 272.143C755.891 271.952 755.756 271.684 755.732 271.396C755.732 271.044 755.732 271.044 756.106 271.044C756.106 270.692 755.732 270.692 755.732 270.319C756.458 268.494 757.535 268.494 758.986 267.417C759.638 267.924 760.385 268.292 761.185 268.494H761.889C762.636 269.593 763.34 270.319 764.087 271.396H763.34C763.146 271.394 762.986 271.55 762.986 271.745C762.986 271.761 762.986 271.776 762.988 271.792C763.47 272.827 764.083 273.794 764.813 274.671C764.461 275.023 764.461 275.397 764.087 275.771C764.087 275.771 764.461 275.771 764.461 276.122C764.087 277.2 761.185 277.925 760.812 276.122C759.734 275.771 759.383 275.023 759.009 273.924L758.657 274.298L756.831 272.495C756.48 272.495 756.48 272.495 756.128 272.143H756.106ZM740.518 229.384L740.87 229.032V229.736C742.344 228.786 744.27 228.94 745.576 230.109H747.51C748.961 229.736 751.489 227.559 754.105 227.207V233.033C753.767 232.86 753.404 232.741 753.028 232.682C752.654 232.682 751.929 232.308 751.577 232.682C751.538 232.398 751.408 232.134 751.204 231.934C750.586 232.123 749.99 232.374 749.423 232.682V233.385C747.95 234.132 746.147 236.265 746.873 238.112C748.302 238.112 751.929 237.012 754.105 237.738V240.64C751.938 239.705 749.539 239.453 747.224 239.914C747.238 239.721 747.09 239.554 746.895 239.541C746.888 239.541 746.879 239.541 746.873 239.541C745.773 240.266 745.422 240.64 746.147 242.091H745.312C745.936 243.256 745.789 244.685 744.938 245.696C745.312 246.07 745.312 246.07 745.663 246.07C745.312 246.07 745.312 246.444 744.938 246.444C745.202 247.653 745.079 248.915 744.586 250.049H744.938C744.951 250.243 744.802 250.41 744.608 250.423C744.602 250.423 744.593 250.423 744.586 250.423C744.938 251.5 742.762 254.05 742.388 254.05C742.388 254.402 742.387 254.402 742.762 254.776H742.388V255.501C742.036 255.501 741.683 255.853 740.958 256.578L740.606 256.227V246.444C741.167 245.905 741.648 245.292 742.036 244.619C740.958 241.717 743.135 239.541 744.938 238.024V237.65C743.349 237.617 741.798 238.129 740.54 239.101V229.296L740.518 229.384ZM753.908 227.185C755.484 226.906 757.069 227.634 757.887 229.01C758.261 229.01 758.261 229.01 758.634 229.362C758.828 229.362 758.986 229.204 758.986 229.01C759.361 229.714 759.712 229.362 760.416 230.087H760.702C762.9 232.286 768.33 237.342 765.78 239.87C766.132 240.596 765.78 240.948 765.406 241.673C765.613 241.673 765.78 241.84 765.78 242.047H765.099C765.45 242.772 765.45 243.124 765.824 243.498C765.45 243.498 765.45 243.85 765.45 244.575C763.648 245.3 763.648 245.3 762.922 245.652C762.57 245.3 761.823 244.575 761.471 244.575H760.702C759.829 243.63 758.857 242.781 757.799 242.047H757.447C756.453 241.139 755.165 240.622 753.82 240.596V237.694C754.567 238.068 755.271 238.068 755.271 238.419C756.746 238.364 758.224 238.49 759.668 238.793V239.145C760.295 238.976 760.902 238.732 761.471 238.419C761.025 237.863 760.656 237.25 760.372 236.595C759.297 236.201 758.315 235.588 757.491 234.792C756.315 234.126 755.104 233.524 753.864 232.989L753.908 227.185Z" fill="#D80C18"/>
</svg>
