<svg xmlns="http://www.w3.org/2000/svg" xmlns:xlink="http://www.w3.org/1999/xlink" width="258.470703125" height="258.47119140625" viewBox="0 0 258.470703125 258.47119140625" fill="none">
<g  clip-path="url(#clip-path-g38GQ0Za0hDC4uJ6jZ3eZ)">
<ellipse cx="75.7036139991832" cy="258.46899485855823" transform="rotate(-45 -53.5308837890625 129.2344970703125)" rx="129.2344977882457" ry="129.23449778824573"   fill="#EFEFEF" >
</ellipse>
<circle cx="114.38506946744155" cy="146.9853502291603" transform="rotate(-10.169299617520917 22.06536865234375 54.6656494140625)" r="92.3197008150978" stroke="rgba(220, 221, 221, 1.00)" stroke-width="0.216"      fill="#FFFFFF" >
</circle>
<path d="M129.229 0.00220381C200.419 0.00220381 258.471 58.0535 258.471 129.244C258.471 164.834 243.958 197.142 220.546 220.551C197.135 243.959 164.825 258.471 129.229 258.471C58.053 258.471 0.00170898 200.42 0.00170898 129.244C0.00170898 93.6482 14.5137 61.338 37.9219 37.9273C61.3313 14.5154 93.6388 0.00220381 129.229 0.00220381ZM129.229 4.24511C94.8101 4.24511 63.5635 18.2826 40.9215 40.9269C18.2806 63.5703 4.24461 94.8192 4.24461 129.244C4.24461 198.083 60.3899 254.228 129.229 254.228C163.654 254.228 194.903 240.192 217.546 217.551C240.191 194.909 254.228 163.663 254.228 129.244C254.228 60.3904 198.083 4.24513 129.229 4.24513L129.229 4.24511Z" fill-rule="evenodd"  fill="#004098" >
</path>
<path d="M59.1667 189.703C59.29 189.854 59.4272 190.005 59.5508 190.156C59.3997 190.718 59.6741 191.349 59.3861 191.857C59.1803 192.584 58.1241 193.311 57.3282 193.956C56.0387 195.026 54.5981 196.219 53.926 197.427C54.269 198.51 54.955 197.962 55.8193 197.825C57.0541 197.619 58.9198 197.166 60.0171 198.14C60.0171 198.319 60.0857 198.469 60.1818 198.662C60.0585 198.936 59.976 199.21 59.9624 199.498C58.9884 199.951 55.3391 200.459 54.4473 200.267C53.4047 200.034 52.3622 199.471 51.3057 199.471C50.1534 199.471 48.8636 200.322 47.6289 201.337L47.6289 194.532C48.9733 194.532 50.4414 195.918 51.9917 195.246C52.458 194.862 52.9245 194.477 53.3908 194.079C55.298 192.502 57.2871 190.06 59.1667 189.703ZM47.6289 203.024L47.6289 205.041C48.2876 204.533 49.0283 203.971 49.0283 203.971C49.3988 203.765 49.481 203.875 49.824 203.834C49.9062 203.943 49.9887 204.039 50.0848 204.149C49.8376 204.958 48.5892 206.646 47.6289 206.893L47.6289 210.378C49.2205 209.376 50.9627 207.593 52.2936 206.495C52.7737 206.097 53.2675 205.686 53.7613 205.274C55.2294 204.657 56.1209 205.631 57.6576 204.149C57.5615 203.71 57.4518 203.271 57.3557 202.832C56.1759 201.762 54.7767 202.585 53.5694 202.036C52.8423 201.721 52.5405 200.857 51.7723 200.651C51.4429 200.582 51.1685 200.719 50.8391 200.637C50.0848 201.268 49.4124 201.639 48.7814 201.954C48.3973 202.311 48.0132 202.667 47.6289 203.024ZM47.6289 192.845L47.7799 192.845C49.5635 191.39 50.2356 188.482 48.8636 186.726C48.3562 186.795 47.9446 186.959 47.6289 187.179L47.6289 192.845ZM47.6289 201.337L47.6289 194.532C47.4233 194.532 47.2312 194.56 47.039 194.628C46.1475 194.683 45.3515 196.178 45.5437 196.919C45.7084 197.125 45.8867 197.331 46.0514 197.536C46.12 197.729 46.0789 198.058 46.1336 198.264C46.0375 198.428 46.065 198.346 46.0375 198.469C45.3243 198.95 44.3228 199.169 43.6093 199.169C43.431 199.101 43.2388 199.046 43.0605 198.977C42.5393 199.059 42.2099 199.361 41.73 199.416C41.62 199.43 41.4828 199.443 41.332 199.43L41.332 206.042C41.3456 206.07 41.3595 206.083 41.387 206.111C41.4692 206.413 41.3731 207.044 41.332 207.4L41.332 207.469C41.4828 207.593 41.4692 207.606 41.5928 207.634C42.3471 208.073 43.1016 207.373 43.9112 207.277C44.2267 207.332 44.5286 207.387 44.8302 207.442C45.3104 208.306 44.5011 209.157 44.3089 209.966C44.2542 210.172 44.3775 210.391 44.3228 210.611C45.1596 211.502 46.3533 211.187 47.6289 210.377L47.6289 206.893C47.5878 206.893 47.5603 206.907 47.533 206.907C47.0254 207.291 46.9432 207.14 46.5041 207.099C46.3394 206.797 46.3944 206.783 46.2847 206.509C46.4355 206.289 46.4491 206.042 46.5588 205.891C46.5727 205.864 47.0804 205.466 47.6289 205.041L47.6289 203.024C47.5603 203.079 47.5056 203.134 47.4506 203.175C47.3409 203.23 46.9568 203.23 46.8746 203.271C45.8317 203.71 45.2418 205.11 44.405 205.178C44.0484 205.301 43.8837 205.137 43.5543 205.096C43.3899 204.821 43.431 204.821 43.3899 204.588C43.6368 204.272 45.6809 202.407 46.2572 202.215C46.2983 202.187 46.6138 202.283 46.6824 202.256C46.8882 202.146 47.3134 201.597 47.6289 201.337ZM47.6289 187.179C46.6002 187.892 46.3805 189.182 46.1061 190.183C45.9689 190.691 45.5987 191.349 45.6534 191.857C45.7084 192.2 45.8731 192.2 45.8181 192.515C46.4355 193.188 46.9843 192.872 47.6289 192.845L47.6289 187.179ZM41.332 196.178L41.332 190.389C41.6475 190.581 42.0866 190.609 42.4157 190.622C43.2527 191.816 43.1016 194.999 41.9083 196C41.7025 196.028 41.5103 196.11 41.332 196.178ZM41.332 207.469L41.332 207.4L41.332 207.469ZM41.332 206.042C40.989 205.576 40.646 205.11 40.303 204.657C40.0697 203.985 40.3169 203.093 40.1522 202.421L39.7406 201.597C39.6856 201.186 39.8778 199.8 40.4952 199.526C40.7146 199.43 41.044 199.43 41.332 199.43L41.332 206.042ZM41.332 190.389L41.332 196.178C41.0165 196.302 40.7421 196.412 40.3855 196.22C40.0425 196.178 39.7406 196 39.4387 195.698C39.2604 193.668 38.6019 191.692 41.2909 190.375C41.3045 190.375 41.3184 190.389 41.332 190.389ZM37.0653 197.262C38.0531 198.497 37.2164 201.419 36.3521 202.558C35.9405 203.107 35.3367 203.23 34.9115 203.504C34.0747 203.285 33.4162 203.545 32.6205 202.64C32.8399 200.802 32.7164 200.5 34.0747 198.703C34.3352 198.346 35.0212 197.358 35.6386 197.276C36.201 197.029 36.544 197.166 37.0653 197.262Z" fill-rule="evenodd"  fill="#007F41" >
</path>
<path d="M218.499 186.808C219.239 187.302 219.541 188.455 219.665 188.894C220.186 190.595 219.5 192.31 218.499 193.997L218.499 186.808ZM218.499 196.316C218.828 196.082 219.185 195.698 219.5 195.396C220.172 195.506 220.968 195.342 221.627 195.822C221.777 195.863 221.709 195.89 221.915 196.123C221.846 196.576 222.216 197.276 221.956 197.688C221.517 198.373 219.733 198.003 220.419 199.567C220.639 200.486 222.669 200.637 222.944 201.926C223.287 202.709 222.806 203.587 222.656 204.369C222.546 204.986 222.724 205.727 222.381 206.358C221.86 207.345 220.46 207.702 219.829 207.922C219.431 208.155 219.02 208.388 218.622 208.621C218.581 208.635 218.54 208.649 218.499 208.649L218.499 206.275C219.143 205.905 219.747 205.398 220.501 204.684C220.406 203.559 220.982 202.901 219.843 201.693C219.377 201.652 218.951 201.323 218.499 201.323L218.499 196.316ZM214.561 188.317L214.561 191.253C214.602 191.034 214.63 190.814 214.657 190.609C215.151 190.197 215.741 189.977 216.235 189.977C218.101 190.224 217.223 191.802 216.825 192.735C216.756 192.886 216.797 193.339 216.66 193.476C216.098 193.983 215.343 194.024 214.863 194.313C214.753 194.381 214.657 194.45 214.561 194.546L214.561 201.186C214.657 201.337 214.726 201.474 214.74 201.639C215 202.462 214.822 203.148 214.561 203.792L214.561 207.593C214.74 207.84 214.959 208.1 215.22 208.388C216.317 208.388 217.387 208.855 218.499 208.649L218.499 206.275C218.032 206.536 217.538 206.728 216.962 206.879C216.797 206.701 216.633 206.523 216.468 206.344C216.454 205.933 216.441 205.507 216.427 205.082C216.715 203.861 217.73 202.859 217.771 201.639C217.977 201.474 218.06 201.392 218.224 201.364C218.32 201.323 218.403 201.323 218.498 201.323L218.498 196.316C218.32 196.439 218.142 196.521 217.977 196.535C217.689 196.659 217.826 196.672 217.538 196.535C217.305 196.439 217.346 196.288 217.181 196C217.634 195.342 218.087 194.669 218.498 193.997L218.498 186.808C218.375 186.726 218.238 186.657 218.101 186.63C217.964 186.589 215.467 187.151 215.343 187.22C214.904 187.467 214.959 187.974 214.561 188.317ZM209.773 184.6C209.801 184.6 209.828 184.613 209.856 184.627C211.392 184.778 211.735 188.235 213.011 188.853C213.409 188.715 214.013 188.619 214.355 188.455C214.438 188.413 214.506 188.359 214.561 188.317L214.561 191.253C214.397 192.118 214.081 193.009 213.244 193.819C212.723 193.586 212.476 193.393 211.914 193.942C211.9 194.134 211.873 194.176 211.749 194.381C211.845 194.93 211.79 195.342 212.229 195.945C212.545 195.959 212.627 196.096 212.97 195.959C213.656 195.904 214.04 195.053 214.561 194.546L214.561 201.186C214.465 201.049 214.328 200.898 214.163 200.733C213.697 200.733 212.668 200.843 212.243 200.678C212.105 200.527 211.955 200.377 211.818 200.226C211.282 199.951 210.487 200.088 209.965 200.404C209.897 200.445 209.828 200.486 209.773 200.527L209.773 197.866C209.938 198.017 210.171 198.126 210.391 198.264C210.432 198.223 210.487 198.168 210.542 198.126C210.747 198.085 210.981 197.852 211.214 197.619C211.145 197.098 211.104 196.261 210.295 196.343C210.089 196.357 209.952 196.425 209.773 196.563L209.773 194.985C210.075 194.916 210.199 194.93 210.555 194.642C210.583 194.491 210.624 194.464 210.789 194.272C210.692 193.764 210.665 193.517 210.158 193.147C210.034 193.215 209.897 193.27 209.773 193.325L209.773 191.733C209.815 191.761 209.856 191.788 209.897 191.816C210.281 191.733 210.418 191.747 210.871 191.322C210.542 189.895 211.187 188.221 209.952 186.85C209.897 186.877 209.828 186.904 209.773 186.932L209.773 184.6ZM214.561 207.593C213.436 205.96 214.108 204.917 214.561 203.792L214.561 207.593ZM209.773 207.359C210.638 208.457 212.037 209.486 212.737 210.021C212.75 210.556 212.984 210.638 212.407 211.201C212.27 211.214 212.366 211.187 212.188 211.269C211.516 211.022 210.885 211.269 210.487 211.146C210.391 211.118 210.102 210.94 209.773 210.748L209.773 207.359ZM207.208 189.209L207.208 192.378C208.196 193.325 208.36 194.532 208.539 195.547C208.319 195.726 208.251 195.767 208.086 195.835C207.812 195.657 207.482 195.424 207.208 195.136L207.208 196.521C207.565 196.988 207.743 197.523 207.88 197.907C207.565 198.14 207.537 198.113 207.276 198.181C207.249 198.168 207.235 198.154 207.208 198.126L207.208 200.226C207.208 200.226 207.222 200.239 207.222 200.253C207.331 200.431 207.386 200.692 207.578 200.925C207.318 201.639 207.235 204.437 207.318 205.219C207.276 205.247 207.235 205.288 207.208 205.315L207.208 207.277C207.619 207.702 207.99 208.141 208.264 208.649C208.484 209.061 208.292 209.719 208.744 210.062C208.827 210.131 209.321 210.46 209.773 210.748L209.773 207.359C209.54 207.058 209.334 206.756 209.211 206.454C208.964 205.905 209.101 205.398 209.019 204.89C208.936 204.328 208.511 203.806 208.621 203.257C208.731 202.75 209.046 202.434 209.252 201.94C209.403 201.57 209.321 200.939 209.773 200.527L209.773 197.866C209.636 197.742 209.54 197.592 209.526 197.358C209.471 197.303 209.43 197.249 209.375 197.207C209.499 197.015 209.595 196.878 209.609 196.686C209.677 196.645 209.732 196.59 209.773 196.563L209.773 194.985L209.732 194.985C209.403 194.628 209.348 194.464 209.238 194.162C209.334 193.942 209.513 193.654 209.554 193.435C209.622 193.393 209.705 193.366 209.773 193.325L209.773 191.733C209.471 191.555 209.225 191.418 208.882 191.047C208.813 190.622 208.744 190.197 208.689 189.786C208.799 188.99 209.142 188.304 208.964 187.494C209.197 187.261 209.444 187.028 209.65 186.987C209.691 186.973 209.732 186.959 209.773 186.932L209.773 184.6C209.334 184.449 208.895 184.668 208.456 184.668C207.894 185.45 208.374 185.985 208.251 186.74C208.127 187.481 207.908 188.194 207.894 188.948C207.702 189.1 207.66 189.127 207.524 189.154C207.373 189.209 207.29 189.209 207.208 189.209ZM203.6 186.246C203.792 186.068 203.888 185.985 204.053 185.958C204.492 185.752 204.766 185.971 205.164 185.917C205.52 185.862 206.179 185.327 206.508 185.505C206.796 185.656 206.563 186.41 206.549 186.616C206.522 187.577 206.111 188.194 207.002 189.223C207.085 189.209 207.153 189.209 207.208 189.209L207.208 192.378C207.071 192.255 206.933 192.131 206.783 192.021C206.577 192.076 206.563 192.049 206.33 192.159C206.165 192.186 206.083 192.269 205.877 192.447C205.877 193.174 205.932 193.448 206.714 194.244C206.769 194.573 206.961 194.875 207.208 195.136L207.208 196.521C207.043 196.316 206.851 196.11 206.604 195.945C206.481 195.863 206.111 195.671 205.946 195.41C205.754 195.095 205.095 194.121 204.807 193.901C204.423 193.599 204.053 193.572 203.71 193.05C204.039 191.816 204.409 191.816 205.191 190.65C205.027 190.046 204.835 189.319 204.492 188.702C204.327 188.523 204.162 188.359 203.998 188.18C203.751 187.659 203.71 186.795 203.6 186.246ZM207.208 207.277C206.824 206.893 206.412 206.523 206.028 206.138C206.111 205.987 206.152 205.905 206.344 205.713C206.673 205.713 206.879 205.603 207.208 205.315L207.208 207.277ZM207.208 200.225C206.289 198.648 203.422 197.605 204.67 196.041C204.697 196.069 204.725 196.096 204.738 196.11C204.766 196.096 204.793 196.069 204.821 196.041C205.644 196.947 206.412 197.591 207.208 198.126L207.208 200.226L207.208 200.225Z" fill-rule="evenodd"  fill="#007F41" >
</path>
<path d="M175.558 211.516C175.709 211.42 175.874 211.338 176.038 211.242C176.244 211.324 176.34 211.324 176.574 211.31C176.917 211.749 177.616 212.147 177.822 212.627C178.014 213.053 177.891 213.835 178 214.288C178.206 215.056 178.81 215.275 178.919 215.906C179.18 217.374 178.851 218.966 180.14 220.502C180.497 220.502 180.73 220.434 181.21 220.159C181.348 219.693 183.556 217.347 184.187 216.963C184.667 217.072 185.148 217.168 185.628 217.278C185.861 217.415 185.848 217.58 186.081 217.649C186.575 219.432 184.983 221.284 183.68 222.532C182.651 223.52 181.169 223.987 181.773 225.386C183.488 225.99 186.41 227.074 188.235 227.019C188.564 227.005 190.1 226.497 190.416 226.415C190.951 226.1 191.5 225.798 192.035 225.496C192.529 225.372 193.118 225.605 193.558 225.51C193.914 225.318 194.257 225.112 194.614 224.92C195.368 224.686 196.041 224.59 196.699 224.618C196.727 224.728 196.754 224.837 196.768 224.961C196.082 225.784 195.903 226.758 195.327 227.54C194.408 228.775 191.705 230.297 190.004 230.805C189.442 230.97 188.907 231.587 188.427 231.573C187.919 231.656 187.699 231.395 187.274 231.34C186.698 231.258 185.751 231.464 185.216 231.244C184.722 231.052 184.421 230.586 183.94 230.325C183.419 230.064 182.747 229.859 182.184 229.68C182.157 229.708 182.116 229.721 182.089 229.735C182.102 229.762 182.13 229.804 182.143 229.831C181.622 230.503 182.253 231.944 182.294 232.767C182.308 233.179 182.02 233.508 181.91 233.865C181.649 234.77 181.746 235.758 181.169 236.567C180.813 237.047 180.319 237.198 179.893 237.651C179.605 237.98 179.386 238.392 179.002 238.542C177.945 238.94 177.41 239.489 176.67 238.858C176.327 238.68 176.093 237.994 175.737 237.87C175.16 237.692 174.9 238.076 174.392 237.5C174.447 237.459 174.515 237.431 174.57 237.39C174.982 236.622 177.52 235.675 178.467 234.688C179.564 233.535 180.017 228.994 179.07 227.293C177.602 227.266 177.904 228.02 176.518 228.349C175.942 228.5 175.311 228.322 174.79 228.199C174.762 227.993 174.762 228.089 174.776 227.951C174.735 226.374 178.549 224.687 178.302 222.807C178.412 221.682 176.505 218.815 176.244 217.415C176.23 217.333 176.381 217.031 176.381 216.976C176.052 216.181 175.737 215.399 175.421 214.617C175.256 213.602 175.435 212.463 175.558 211.516Z" fill-rule="evenodd"  fill="#007F41" >
</path>
<path d="M120.902 225.866C122.205 226.196 122.493 227.087 123.22 227.759C122.905 230.16 121.588 230.284 120.49 231.505C118.94 233.233 119.064 236.608 116.786 236.814L116.786 233.275C117.5 232.808 118.57 232.026 117.719 231.381C117.554 231.203 117.143 231.093 116.786 231.011L116.786 229.694C116.882 229.749 117.006 229.79 117.184 229.831C118.021 229.365 118.913 229.159 119.557 228.336C120.051 227.718 120.216 227.115 120.175 226.387C120.422 226.223 120.655 226.044 120.902 225.866ZM116.786 244.881C117.116 245.251 117.431 245.622 117.678 246.019C117.568 246.184 117.637 246.115 117.513 246.211C117.349 246.5 117.102 246.788 116.786 246.966L116.786 244.881ZM116.786 225.907L116.786 228.185C117.225 227.897 117.609 227.65 118.241 227.526C118.35 227.32 118.474 227.06 118.625 226.923C118.707 226.47 118.625 226.47 118.611 226.1C117.925 225.798 117.335 225.811 116.786 225.907ZM116.786 236.814L116.786 233.275C116.58 233.412 116.416 233.521 116.32 233.59C114.715 233.137 115.991 231.56 116.649 230.983C116.69 230.997 116.731 231.011 116.786 231.011L116.786 229.694C116.43 229.529 116.43 229.351 116.224 228.994C116.265 228.816 116.32 228.637 116.361 228.446C116.512 228.363 116.649 228.281 116.786 228.185L116.786 225.907C116.32 225.99 115.881 226.141 115.414 226.209C114.262 226.401 113.192 226.511 111.944 226.374L111.944 228.596C112.232 228.665 112.492 228.734 112.616 228.884C113.027 229.159 113.247 230.243 112.739 230.682C112.533 231.258 112.3 231.244 111.944 231.436L111.944 242.082C112.657 240.422 114.577 240.546 116.018 240.203C116.059 239.668 115.703 239.201 115.291 238.954C115.071 238.721 114.852 238.748 114.605 238.886C113.672 238.707 113.151 237.829 113.96 237.322C114.331 236.8 115.017 236.938 115.524 236.677C116.018 236.814 116.43 236.855 116.786 236.814ZM111.944 242.782L111.944 245.951C113.535 246.239 114.852 247.377 115.991 247.103C116.293 247.158 116.553 247.089 116.786 246.966L116.786 244.881C116.334 244.387 115.881 243.907 115.551 243.358C115.044 243.234 113.617 243.207 113.219 243.344C112.561 243.18 112.232 243.042 111.944 242.782ZM111.944 242.082C111.875 242.247 111.806 242.425 111.765 242.617C111.82 242.672 111.875 242.727 111.944 242.782L111.944 245.951C111.724 245.91 111.505 245.882 111.271 245.882L110.791 245.882L110.791 234.509C110.832 234.523 110.873 234.537 110.928 234.537C111.244 234.249 111.505 234.18 111.724 233.7C111.834 233.576 111.779 233.329 111.793 233.014C111.587 232.877 111.381 232.753 111.189 232.616C111.065 232.671 110.942 232.698 110.791 232.698L110.791 226.182C111.203 226.264 111.573 226.332 111.944 226.374L111.944 228.596C111.916 228.596 111.903 228.583 111.875 228.583C111.655 228.733 111.628 228.665 111.436 228.939C111.011 229.255 110.86 230.202 110.846 230.778C111.161 231.134 111.12 231.299 111.82 231.491C111.861 231.477 111.902 231.45 111.944 231.436L111.944 242.082ZM110.791 245.882L110.791 234.509C110.215 234.345 110.091 234.207 109.803 233.906C109.995 233.123 110.188 233.055 110.585 232.698L110.791 232.698L110.791 226.182C110.572 226.127 110.325 226.072 110.078 226.003C109.515 226.634 108.76 227.197 108.281 228.006C107.828 228.733 107.828 229.488 107.485 230.147C106.813 231.491 108.075 233.535 107.211 234.399C106.936 234.783 106.552 234.838 106.044 234.811C105.962 234.976 105.88 235.154 105.797 235.332C106.127 235.826 106.511 236.457 106.634 237.061C107.718 237.445 108.459 237.39 109.255 236.924C109.941 237.102 110.064 237.239 110.379 237.568C109.707 240.202 107.183 239.887 105.125 240.189C104.96 240.957 105.468 241.506 105.989 241.821C106.497 242.151 107.595 241.272 108.226 242.274C108.308 242.466 108.308 242.644 108.294 242.891C108.047 243.029 107.773 243.344 107.471 243.372C107.211 243.303 106.95 243.248 106.703 243.18C106.442 243.193 106.099 243.522 105.893 243.55C105.537 243.495 105.166 243.44 104.796 243.385L104.796 246.17C105.208 246.019 105.592 245.855 106.017 245.814C106.703 245.868 107.389 245.937 108.075 245.992C108.857 245.964 109.913 245.896 110.791 245.882ZM104.796 237.116L104.796 236.43C104.892 236.416 104.974 236.416 105.043 236.416C105.057 236.608 105.07 236.622 105.043 236.882C104.947 236.951 104.878 237.033 104.796 237.116ZM104.796 229.598L104.796 224.385C105.358 224.261 105.907 224.014 106.332 223.754C106.552 223.85 106.538 223.836 106.634 223.945C106.716 224.124 106.634 224.343 106.703 224.549C107.032 225.468 107.691 225.249 107.293 226.813C106.799 227.142 105.482 228.404 104.796 229.598ZM104.796 246.17C104.343 246.335 103.863 246.486 103.287 246.39C102.944 245.663 102.135 244.785 102.176 243.879C102.669 243.728 103.246 243.317 103.753 243.234C104.096 243.289 104.453 243.344 104.796 243.385L104.796 246.17ZM104.796 224.385L104.796 229.598C104.549 230.05 104.384 230.476 104.37 230.86C104.37 231.409 104.714 232.287 104.275 233.055C103.479 234.482 101.723 236.224 101.215 237.651C101.352 237.898 101.297 238.008 101.544 238.213C101.64 238.323 101.627 238.296 101.833 238.405C102.45 237.898 103.849 236.581 104.796 236.43L104.796 237.116C104.467 237.514 104.288 238.09 103.932 238.474C103.012 239.434 101.833 240.436 100.927 241.451C100.817 241.739 100.708 242.013 100.598 242.301C99.9394 243.399 99.4317 243.66 98.3755 244.071C97.5935 244.373 97.278 245.114 96.1804 244.908C95.961 244.291 95.6866 243.399 95.7002 242.672C95.7002 241.177 98.1011 239.53 98.5674 237.911C98.3069 237.472 98.3069 236.992 98.1147 236.498C97.8679 236.251 97.621 235.991 97.3741 235.73C97.4288 235.538 97.4699 235.36 97.5113 235.181C97.1683 234.345 98.2656 232.712 98.7457 232.218C99.0065 231.957 99.5278 232.053 99.8844 231.93C100.214 231.697 100.543 231.463 100.872 231.244C102.409 230.64 102.395 230.407 102.875 228.487C101.942 227.65 101.009 226.936 101.339 225.386C101.915 225.084 102.615 224.508 103.246 224.357C103.547 224.398 103.849 224.44 104.151 224.467C104.37 224.467 104.59 224.426 104.796 224.385Z" fill-rule="evenodd"  fill="#007F41" >
</path>
<path d="M74.23 211.283C76.1783 212.367 75.8764 213.986 76.3016 215.481C75.9997 215.948 75.6981 216.4 75.4098 216.853C74.3125 216.825 73.6401 217.525 72.3368 216.88C72.0899 216.606 71.8294 216.345 71.5822 216.071C70.9923 214.891 71.9802 212.01 73.5029 211.406C73.7909 211.351 73.9556 211.42 74.23 211.283ZM68.4955 227.389L68.4955 224.673C68.6463 224.632 68.7699 224.59 68.8935 224.549C69.6892 224.206 71.5411 223.095 72.4193 223.438C72.4054 223.959 71.9391 224.865 71.8705 225.4C72.1174 225.811 72.3093 226.127 72.8719 226.484C73.9695 226.141 76.1508 225.894 76.631 223.781C76.8504 222.793 76.233 222.217 76.8504 220.968C77.8107 220.859 78.8944 220.543 79.937 220.694C80.1842 220.79 80.4447 220.886 80.7055 220.982C80.9799 221.01 81.3229 220.777 81.5973 220.804C82.8456 220.955 83.9979 221.449 85.1641 221.325C85.9734 221.778 85.9598 222.217 86.3439 222.78C86.1931 222.93 86.2753 222.875 86.1381 222.93C85.3974 223.507 84.2312 223.301 83.4491 223.699C82.5302 224.151 82.0772 224.988 81.3229 226.113C81.0896 226.442 80.5544 226.964 80.5819 227.43C80.4311 228.418 81.1032 228.404 81.5973 229.186C81.7892 229.488 81.8442 230.105 81.9675 230.462C81.6109 230.778 81.2954 230.64 80.966 230.832C80.6369 231.024 80.5408 231.381 80.2114 231.477C79.018 231.793 77.4542 230.531 76.0958 230.256C74.6552 229.982 72.8445 229.804 71.5 229.447C70.7318 229.241 69.3598 227.869 68.4955 227.389ZM68.4955 221.86C69.2362 221.901 69.9772 221.696 70.7318 221.449C71.1981 220.516 69.3873 217.127 68.5505 216.51C68.5366 216.523 68.5091 216.523 68.4955 216.537L68.4955 221.86ZM68.4955 216.537C68.0976 216.661 67.7821 216.716 67.4255 217.086C66.1632 217.772 66.2182 220.063 66.1771 220.79C67.0003 221.531 67.7548 221.819 68.4955 221.86L68.4955 216.537ZM68.4955 224.673C67.7273 224.892 66.5748 225.057 65.8888 225.153L64.7365 225.564C64.4074 225.523 64.078 225.468 63.7486 225.427C63.1176 225.482 62.4317 225.853 61.7457 225.907C60.8953 227.183 61.6635 228.583 61.5263 229.913C63.1587 231.176 64.8601 228.596 66.2457 227.869C66.8903 227.54 67.7548 227.622 68.3994 227.334C68.4405 227.348 68.468 227.361 68.4955 227.389L68.4955 224.673Z" fill-rule="evenodd"  fill="#007F41" >
</path>
<path d="M151.866 228.048C152.181 228.02 152.497 228.006 152.826 227.979C153.045 228.308 153.155 228.363 153.238 228.912C152.963 229.255 152.908 229.831 152.607 230.16C152.456 230.202 152.291 230.256 152.14 230.311C151.413 230.901 150.892 231.999 150.261 232.712C150.261 233.549 150.206 234.208 150.521 234.852C151.194 235.085 152.73 235.387 153.663 235.126C154.294 234.948 155.556 234.303 156.146 234.605C156.969 234.783 157.998 235.579 158.08 236.636C157.326 237.459 156.75 238.872 155.625 239.311C155.295 239.434 154.801 239.283 154.651 239.256C152.908 239.379 151.152 239.489 149.396 239.613C148.436 239.901 146.94 239.914 145.966 240.326C144.759 240.82 143.593 241.588 142.372 242.233C141.041 242.96 139.272 244.922 137.502 244.73C136.981 243.879 136.391 242.946 135.664 242.329C135.595 241.506 135.787 241.163 135.897 240.518C136.363 240.216 137.269 239.736 137.749 239.544C138.709 239.173 140.013 239.393 140.959 238.968C141.604 238.694 142.249 237.966 142.907 237.651C144.265 236.979 145.514 236.924 145.623 235.181C145.335 234.852 145.322 234.262 145.061 233.906C144.43 233.082 143.607 232.959 143.456 231.491C144.224 230.983 144.91 229.886 145.72 229.529C146.666 229.118 147.544 229.419 148.573 229.104C149.081 228.953 149.698 228.555 150.082 228.404C150.713 228.157 151.413 228.39 151.866 228.047L151.866 228.048Z" fill-rule="evenodd"  fill="#007F41" >
</path>
<path d="M224.686 91.2971L224.686 89.445L233.727 85.7956L232.231 82.1191L233.644 81.5564L237.266 90.4875L235.853 91.0638L234.358 87.387L224.686 91.2971ZM224.686 82.9559L232.273 78.9225L231.477 77.4272L224.686 81.0215L224.686 82.9559ZM224.686 69.7583L224.686 68.2492C225.015 68.2628 225.358 68.3314 225.687 68.455C226.689 68.8255 227.526 69.5937 228.198 70.7734C228.898 71.9807 229.131 73.1058 228.911 74.1484C228.692 75.1909 228.047 76.0277 226.977 76.6587L226.154 75.2595C226.854 74.793 227.265 74.217 227.402 73.5446C227.539 72.8725 227.375 72.159 226.936 71.3769C226.511 70.6637 226.017 70.1697 225.454 69.9228C225.193 69.8131 224.933 69.7583 224.686 69.7583ZM227.347 101.161L226.867 99.5148L231.71 98.1289L237.664 91.5851L238.254 93.6431L233.466 98.4994L240.092 100.077L240.641 101.998L232.286 99.7478L227.347 101.161ZM224.686 68.2492L224.686 69.7583C224.384 69.7583 224.096 69.8405 223.808 70.0052C222.971 70.499 222.861 71.7474 223.479 73.7779C223.575 74.0798 223.63 74.3131 223.684 74.4775C223.698 74.505 223.712 74.5736 223.739 74.6558C224.137 75.9866 224.274 76.947 224.178 77.5094C224.096 77.9485 223.931 78.3462 223.671 78.6892C223.396 79.0461 223.053 79.3477 222.614 79.6085C221.572 80.212 220.515 80.3219 219.459 79.924C219.308 79.869 219.143 79.8004 218.993 79.7182L218.993 77.866C219.226 78.0718 219.473 78.2229 219.733 78.3326C220.365 78.6206 220.996 78.5795 221.599 78.2365C222.436 77.7563 222.532 76.4804 221.915 74.4089C221.887 74.2856 221.846 74.1895 221.832 74.1209C221.325 72.4334 221.16 71.2397 221.311 70.5126C221.462 69.7856 221.942 69.1957 222.738 68.743C223.383 68.3725 224.027 68.2081 224.686 68.2492ZM224.686 81.0215L220.378 83.3125L221.187 84.8217L224.686 82.9559L224.686 81.0215ZM224.686 89.445L223.492 89.9251L224.137 91.5165L224.686 91.2971L224.686 89.445ZM218.992 72.3373L219.006 72.3373L218.992 72.3373ZM218.992 66.5067L218.992 64.7782C219.184 64.6823 219.377 64.5588 219.568 64.3941C220.145 63.9278 220.419 63.4337 220.406 62.9263C220.378 62.4186 220.021 61.7326 219.335 60.8683L218.992 60.4567L218.992 58.1108L220.652 60.1687C221.16 60.7722 221.489 61.2524 221.682 61.5818C221.86 61.9109 221.983 62.2539 222.038 62.5694C222.148 63.1732 222.093 63.7356 221.86 64.2708C221.626 64.8193 221.242 65.2994 220.707 65.7385C220.172 66.1776 219.637 66.4245 219.075 66.5067L218.992 66.5067ZM218.992 58.1108L217.593 56.3822L214.849 58.6046L214.849 60.7586L217.497 58.6046L218.992 60.4567L218.992 58.1108ZM218.992 64.7782C218.595 64.984 218.197 65.0525 217.826 64.9565C217.291 64.8331 216.688 64.3666 216.029 63.5573L214.849 62.0892L214.849 64.3941C215.59 65.3133 215.947 65.9579 215.947 66.3423C215.933 66.74 215.631 67.2202 215.014 67.7965L214.849 67.9473L214.849 70.3068C214.877 70.2657 214.918 70.2382 214.959 70.1971L216.468 68.7841C217.044 68.2628 217.387 67.8101 217.511 67.4535C217.621 67.083 217.579 66.6714 217.387 66.2051C217.936 66.4656 218.471 66.5617 218.992 66.5067L218.992 64.7782ZM218.992 72.3373L218.183 70.9106C216.962 71.6788 216.235 72.6256 215.988 73.7504C215.755 74.8754 216.016 76.0963 216.77 77.4133C217.401 78.4973 218.142 79.2655 218.992 79.7182L218.992 77.866C218.663 77.5644 218.348 77.1528 218.046 76.6587C217.566 75.8083 217.401 74.9851 217.579 74.2031C217.744 73.4349 218.224 72.8039 218.992 72.3373ZM214.849 54.3518L214.849 53.0348L215.508 53.7072L214.849 54.3518ZM214.849 53.0348L214.849 54.3518L214.383 54.7908L209.334 49.5777L206.632 52.1841L211.296 56.9996L210.24 58.0286L205.589 53.1995L203.888 54.832L203.888 52.486L209.279 47.2728L214.849 53.0348ZM214.849 58.6046L214.849 60.7586L214.191 61.2799L214.849 62.0892L214.849 64.3941C214.835 64.3805 214.822 64.3666 214.808 64.353L213.079 62.2128L208.895 65.6013L207.839 64.2844L214.849 58.6046ZM214.849 67.9473L214.849 70.3068C214.575 70.554 214.397 70.787 214.287 70.9656C214.177 71.1714 214.136 71.3769 214.177 71.5691L213.903 71.7885L212.668 70.2521C212.778 69.9641 213.134 69.5251 213.766 68.9352C213.779 68.9213 213.793 68.9077 213.807 68.9077L214.849 67.9473ZM203.888 59.7571L206.577 62.5422L207.702 61.4582L203.888 57.4934L203.888 59.7571ZM203.888 47.4239L207.51 45.2837L206.152 44.1312L203.888 45.5306L203.888 47.4239ZM203.888 45.5306L196.699 49.9342L200.691 39.5628L199.347 38.4242L195.958 47.5197L195.958 51.9783L196.054 52.0608L203.888 47.4239L203.888 45.5306ZM203.888 52.486L200.252 55.9981L203.888 59.7571L203.888 57.4934L202.557 56.1214L203.888 54.832L203.888 52.486ZM195.958 38.8905L195.958 36.2015L197.221 37.0797L195.958 38.8905ZM195.958 36.2015L195.958 38.8905L190.91 46.093L190.91 43.1297L195.821 36.1057L195.958 36.2015ZM195.958 47.5197L195.958 51.9783L194.696 50.9082L195.958 47.5197ZM190.91 37.7657L193.187 34.1028L191.815 33.2385L190.91 34.6926L190.91 37.7657ZM190.91 34.6926L186.41 41.8813C186.451 41.7166 186.465 41.5383 186.479 41.3325C186.492 41.1403 186.492 40.9209 186.492 40.674L186.355 29.836L184.764 28.8482L179.509 37.258L179.509 40.3174L184.887 31.7154C184.846 31.894 184.819 32.0723 184.805 32.2506C184.791 32.4153 184.791 32.5936 184.791 32.7583L184.969 43.7746L186.533 44.7622L190.91 37.7657L190.91 34.6926ZM190.91 43.1297L188.619 46.3949L190.018 47.3689L190.91 46.093L190.91 43.1297ZM179.509 29.9046L179.509 26.1456L180.908 26.763L179.509 29.9046ZM179.509 26.1456L179.509 29.9046L177.74 33.8831C177.054 35.4333 176.134 36.4073 174.996 36.8464C173.857 37.2855 172.513 37.1619 170.976 36.4759C169.536 35.8449 168.644 34.967 168.273 33.8695C167.903 32.7719 168.068 31.441 168.754 29.891L171.923 22.7707L173.487 23.4706L170.304 30.6042C169.824 31.6743 169.714 32.5797 169.961 33.3071C170.208 34.0203 170.825 34.6102 171.827 35.0492C172.814 35.4883 173.665 35.5569 174.378 35.255C175.105 34.9531 175.695 34.2672 176.162 33.211L179.345 26.077L179.509 26.1456ZM179.509 37.258L179.509 40.3174L179.482 40.3585L178.11 39.4942L179.509 37.258ZM114.715 24.1291L114.715 23.7036L114.783 24.1291L114.715 24.1291ZM114.715 16.3091L114.742 16.7757L118.693 16.4874L119.462 27.5037L121.176 27.3804L120.408 16.3777L124.359 16.1033L124.249 14.5805L114.715 15.239L114.715 16.3091ZM126.678 27.106L126.897 14.5531L135.842 14.7177L135.814 16.268L128.557 16.1444L128.489 19.8898L135.197 20.0131L135.17 21.4812L128.461 21.3576L128.393 25.5693L135.801 25.7065L135.773 27.2707L126.678 27.106ZM147.105 23.8683L148.751 24.0741C148.491 25.5693 147.819 26.7219 146.749 27.5037C145.678 28.2858 144.375 28.5877 142.852 28.3955C141.11 28.1761 139.807 27.4079 138.956 26.0906C138.105 24.7737 137.804 23.059 138.064 20.946C138.311 18.9981 139.025 17.5028 140.204 16.4874C141.384 15.4723 142.866 15.0607 144.636 15.2801C146.049 15.4584 147.16 15.9661 147.969 16.8029C148.779 17.64 149.177 18.6962 149.163 19.972L147.517 19.7662C147.448 18.9295 147.16 18.2435 146.611 17.7222C146.076 17.2145 145.335 16.899 144.389 16.7757C143.127 16.6246 142.098 16.9401 141.288 17.7497C140.479 18.5454 139.985 19.7526 139.779 21.3715C139.587 22.8943 139.807 24.1563 140.424 25.1577C141.028 26.1731 141.933 26.7494 143.127 26.9002C144.156 27.0238 145.034 26.8041 145.761 26.2553C146.488 25.7065 146.94 24.8972 147.105 23.8683ZM150.233 29.1776L153.484 17.0501L155.131 17.4889L153.8 22.4827L160.097 24.1702L161.428 19.1764L163.088 19.6291L159.836 31.7568L158.176 31.3041L159.699 25.6243L153.402 23.9369L151.879 29.6302L150.233 29.1776ZM114.715 15.239L114.715 16.3091L114.632 15.2526L114.715 15.239ZM114.715 23.7036L114.55 22.7571L110.393 23.4978L110.627 24.8561L114.715 24.1291L114.715 23.7036ZM65.9302 49.1386L65.9302 46.2302L67.3844 47.9588L65.9713 49.1525L65.9302 49.1386ZM65.9302 41.5519L65.9302 33.6087C66.3279 33.1699 66.822 32.7855 67.3844 32.4289C68.6052 31.6607 69.785 31.3588 70.9376 31.4824C72.0899 31.6196 73.0777 32.1956 73.9281 33.1971L72.5151 34.0753C71.9391 33.4443 71.2667 33.0874 70.5121 33.0188C69.7578 32.9502 68.9757 33.1699 68.1662 33.6637C67.0003 34.3908 66.3418 35.3372 66.1632 36.4898C65.9988 37.6421 66.3418 38.9044 67.2061 40.276C68.0565 41.6344 69.0304 42.4987 70.1419 42.8692C71.2531 43.2533 72.3643 43.0886 73.4754 42.389C74.4769 41.7716 75.0807 40.962 75.3001 39.9744C75.5195 38.9866 75.3001 37.9851 74.6552 36.9425L74.573 36.8053L71.2392 38.8905L70.4849 37.6832L75.1629 34.7748L78.7436 40.5232L77.7969 41.1131L76.6035 39.8783C76.521 40.729 76.2741 41.4833 75.8625 42.1418C75.4373 42.8006 74.8474 43.363 74.0928 43.8432C72.6523 44.7349 71.157 44.9543 69.6206 44.4878C68.1662 44.0351 66.9453 43.0611 65.9302 41.5519ZM82.9004 33.6498L84.4095 32.9777C84.7936 33.8009 85.3699 34.3497 86.1245 34.5965C86.8791 34.8571 87.702 34.7748 88.6076 34.3771C89.4991 33.9792 90.1165 33.4854 90.4595 32.8816C90.8025 32.2781 90.83 31.6607 90.542 31.0158C90.1579 30.1379 88.8956 29.891 86.7691 30.2887C86.6458 30.3162 86.5497 30.3437 86.4811 30.3573C84.7525 30.6728 83.5452 30.7278 82.8456 30.4945C82.1322 30.2612 81.5973 29.7263 81.2268 28.8896C80.7741 27.8742 80.7877 26.8866 81.2543 25.9262C81.7206 24.9794 82.5849 24.2249 83.8196 23.6625C85.0955 23.1001 86.2342 22.9904 87.2493 23.3195C88.2646 23.6489 89.0328 24.376 89.5541 25.5007L88.0588 26.1731C87.6609 25.4321 87.1396 24.952 86.4947 24.76C85.8362 24.5542 85.1091 24.6365 84.2859 24.9933C83.5316 25.3363 82.9965 25.7751 82.681 26.3103C82.3791 26.8452 82.3516 27.394 82.5987 27.9567C82.9965 28.8482 84.2312 29.0815 86.3164 28.6838C86.6183 28.6288 86.8652 28.5738 87.0299 28.5466C87.0574 28.5327 87.126 28.5327 87.2082 28.5191C88.5801 28.2583 89.5405 28.2172 90.1029 28.3819C90.5281 28.5052 90.8986 28.711 91.2141 29.0129C91.5435 29.3148 91.8179 29.6852 92.0098 30.1515C92.5039 31.2491 92.5039 32.3056 92.0098 33.3207C91.5024 34.3222 90.5831 35.1314 89.225 35.7213C87.8392 36.3526 86.5908 36.4759 85.5071 36.1193C84.4095 35.7627 83.5452 34.9395 82.9004 33.6498ZM102.875 25.8987L104.467 25.4735C104.796 26.9688 104.604 28.2722 103.904 29.4108C103.205 30.5356 102.107 31.2902 100.625 31.6882C98.9243 32.1409 97.4288 31.9212 96.1529 31.0158C94.8634 30.1104 93.9441 28.6288 93.3953 26.5708C92.8879 24.6778 92.9976 23.0315 93.7108 21.6459C94.4243 20.2464 95.6455 19.3274 97.3741 18.8609C98.7457 18.4904 99.9669 18.5454 101.023 19.0256C102.093 19.4919 102.862 20.3289 103.328 21.5087L101.709 21.9475C101.339 21.1793 100.804 20.6716 100.118 20.3836C99.4317 20.1092 98.6224 20.0956 97.7032 20.3425C96.4684 20.6716 95.6316 21.3576 95.1789 22.4005C94.7398 23.4431 94.7262 24.76 95.1378 26.3239C95.5355 27.8056 96.2079 28.9032 97.1544 29.6028C98.1011 30.3162 99.1573 30.5081 100.324 30.2065C101.311 29.9321 102.052 29.4108 102.519 28.6152C102.985 27.8331 103.095 26.9277 102.875 25.8987ZM107.567 29.397L109.227 29.0129L106.401 16.7757L104.741 17.1598L107.567 29.397ZM65.9302 33.6087C65.2031 34.3771 64.7501 35.2686 64.5582 36.284C64.2702 37.8615 64.6543 39.5354 65.7519 41.2639C65.8066 41.36 65.8616 41.4561 65.9302 41.5519L65.9302 33.6087ZM65.9302 46.2302L59.3175 38.3417L58.0691 39.3845L64.6132 47.1906C64.4621 47.1081 64.2974 47.0259 64.1191 46.9573C63.9272 46.8887 63.7214 46.8201 63.4881 46.7379L53.1303 43.5277L52.1425 44.3645L52.1425 45.2423L59.7702 54.3518L61.0186 53.3092L54.4748 45.5031C54.6395 45.5992 54.7903 45.6678 54.955 45.7364C55.1058 45.805 55.2705 45.8736 55.4352 45.9147L65.9302 49.1386L65.9302 46.2302ZM52.1425 62.1853L52.1425 61.6504L52.3072 62.007L52.1425 62.1853ZM52.1425 56.7802L52.1425 54.6673L52.5679 54.2146L52.1425 54.0227L52.1425 52.2527L58.8784 55.2024L57.6026 56.533L53.9807 54.8731L52.1425 56.7802ZM52.1425 44.3645L52.1425 45.2423L51.7037 44.7211L52.1425 44.3645ZM52.1425 52.2527L52.1425 54.0227L48.7814 52.4724L48.7814 50.7849L52.1425 52.2527ZM52.1425 54.6673L49.8515 57.0407L48.7814 54.8731L48.7814 58.4674L51.0863 63.2693L52.1425 62.1853L52.1425 61.6504L50.5375 58.4402L52.1425 56.7802L52.1425 54.6673ZM48.7814 65.4505L48.7814 63.2554L50.3317 64.5038L49.2477 65.8346L48.7814 65.4505ZM48.7814 50.7849L46.6002 49.8382L46.0103 50.4555L46.0103 52.6918L48.7814 58.4674L48.7814 54.8731L47.2312 51.7728L48.7814 52.4724L48.7814 50.7849ZM48.7814 63.2554L48.7814 65.4505L46.0103 63.2007L46.0103 61.0055L48.7814 63.2554ZM46.0103 70.8009L46.0103 66.9047C46.3805 67.3438 46.6002 67.8101 46.696 68.2767C46.8332 69.0585 46.6002 69.8955 46.0103 70.8009ZM46.0103 50.4555L46.0103 52.6918L45.2968 51.1965L46.0103 50.4555ZM46.0103 61.0055L46.0103 63.2007L39.7131 58.0972L39.7131 57.6581L40.5638 56.6016L46.0103 61.0055ZM46.0103 66.9047C45.722 66.5481 45.3515 66.2051 44.8852 65.8757L39.7131 62.1167L39.7131 64.2294L43.3213 66.8497C43.8426 67.2338 44.2131 67.5221 44.4186 67.714C44.6244 67.8926 44.7616 68.0709 44.8441 68.2217C45.0088 68.5372 45.0774 68.8666 45.0224 69.1821C44.9813 69.4976 44.8441 69.8405 44.5833 70.1835C44.1717 70.7459 43.7329 71.0478 43.2388 71.0753C42.7587 71.1164 42.1827 70.8831 41.5103 70.4029C41.4006 70.3068 41.3045 70.2521 41.2498 70.211C41.1948 70.156 41.1398 70.1149 41.0987 70.0738L40.1383 71.4044C40.1797 71.4455 40.2344 71.4869 40.303 71.5416C40.358 71.5827 40.4541 71.6513 40.5638 71.7338C41.6064 72.4884 42.5667 72.8175 43.4446 72.6942C44.3228 72.5842 45.1185 72.0357 45.8317 71.0478C45.9003 70.9656 45.9553 70.8831 46.0103 70.8009L46.0103 66.9047ZM39.7131 80.1161L39.7131 76.9881L41.5242 73.8329L42.8822 74.6147L39.7131 80.1161ZM32.3873 95.4674L32.7439 95.5635L32.3873 96.8533L32.3873 95.4674ZM39.7131 57.6581L39.4937 57.9189L39.7131 58.0972L39.7131 57.6581ZM39.7131 62.1167L37.5455 60.5389L36.5304 61.9248L39.7131 64.2294L39.7131 62.1167ZM39.7131 76.9881L39.7131 80.1161L38.3275 82.5032L32.3873 79.0597L32.3873 77.1117L32.9085 77.4133L36.256 71.5966L37.5319 72.3373L34.1708 78.1543L37.8199 80.2533L39.7131 76.9881ZM32.3873 93.6292L32.3873 91.7498L33.8278 92.4219L33.1143 93.9722L32.3873 93.6292ZM32.3873 84.5609L32.3873 82.6679L37.3125 84.9725L36.5854 86.5227L32.3873 84.5609ZM32.3873 70.8145L32.3873 68.7294L33.279 69.2507L32.3873 70.8145ZM30.0824 104.851L32.3873 96.8533L32.3873 95.4674L31.2761 95.152L29.2045 102.382L27.2427 99.6245L27.2427 102.382L28.7243 104.467L30.0824 104.851ZM32.3873 68.7294L31.9346 68.4686L27.4621 76.2199L32.3873 79.0597L32.3873 77.1117L29.6572 75.5339L32.3873 70.8145L32.3873 68.7294ZM32.3873 82.6679L27.2427 80.2669L27.2427 82.1602L29.8766 83.395L27.2427 89.0609L27.2427 91.2285L32.3873 93.6292L32.3873 91.7498L28.5046 89.9388L31.2486 84.0396L32.3873 84.5609L32.3873 82.6679ZM27.2427 102.382L21.5629 94.4249L19.5874 101.312L18.1607 100.9L20.6711 92.1064L22.1942 92.5455L27.2427 99.6245L27.2427 102.382ZM27.2427 80.2669L27.2427 82.1602L25.1986 81.2134L25.9257 79.6634L27.2427 80.2669ZM27.2427 89.0609L27.2427 91.2285L21.7276 88.6629L22.4547 87.1126L27.133 89.2942L27.2427 89.0609Z" fill-rule="evenodd"  fill="#007F41" >
</path>
<path d="M137.612 211.846L137.612 209.678C138.517 209.609 139.217 209.184 139.724 208.43C140.259 207.593 140.575 206.303 140.657 204.588C140.204 205.068 139.697 205.439 139.121 205.686C138.668 205.878 138.16 206.001 137.612 206.042L137.612 203.875L137.639 203.875C138.503 203.875 139.203 203.587 139.738 203.038C140.259 202.475 140.52 201.748 140.52 200.829C140.52 199.786 140.259 198.977 139.738 198.373C139.217 197.77 138.503 197.482 137.612 197.468L137.612 195.3C139.505 195.314 140.932 195.973 141.919 197.29C142.921 198.593 143.415 200.514 143.415 203.024C143.415 205.878 142.88 208.059 141.81 209.582C140.822 210.981 139.423 211.736 137.612 211.845L137.612 211.846ZM145.061 195.767L156.215 195.767L156.215 197.907C154.39 199.896 152.977 202.009 151.975 204.218C150.96 206.44 150.329 208.827 150.068 211.393L147.283 211.393C147.53 208.992 148.148 206.701 149.163 204.506C150.178 202.325 151.605 200.198 153.429 198.14L145.061 198.14L145.061 195.767ZM137.612 195.3L137.57 195.3C135.91 195.3 134.566 195.822 133.551 196.837C132.536 197.852 132.028 199.197 132.028 200.857C132.028 202.393 132.508 203.642 133.455 204.602C134.415 205.576 135.65 206.056 137.159 206.056C137.31 206.056 137.474 206.056 137.612 206.042L137.612 203.875C136.72 203.861 136.02 203.587 135.499 203.038C134.978 202.475 134.717 201.721 134.717 200.747C134.717 199.732 134.978 198.95 135.499 198.36C136.007 197.77 136.72 197.468 137.598 197.468L137.612 197.468L137.612 195.3ZM137.612 209.678C137.529 209.678 137.433 209.691 137.337 209.691C136.624 209.691 136.048 209.5 135.622 209.115C135.183 208.745 134.95 208.237 134.895 207.579L132.302 207.579C132.33 208.869 132.782 209.911 133.674 210.679C134.552 211.461 135.732 211.859 137.186 211.859C137.324 211.859 137.474 211.846 137.612 211.846L137.612 209.678ZM124.976 211.846L124.976 209.596C125.896 209.582 126.609 209.335 127.144 208.841C127.665 208.333 127.94 207.634 127.94 206.742C127.94 205.905 127.665 205.233 127.131 204.753C126.595 204.259 125.882 204.012 124.976 204.012L124.976 201.981C125.758 201.981 126.376 201.776 126.842 201.364C127.309 200.952 127.542 200.404 127.542 199.704C127.542 199.005 127.309 198.469 126.856 198.072C126.39 197.674 125.772 197.468 124.976 197.468L124.976 195.3L125.031 195.3C126.554 195.3 127.789 195.698 128.708 196.48C129.627 197.262 130.094 198.291 130.094 199.581C130.094 200.335 129.929 200.994 129.586 201.515C129.257 202.064 128.749 202.489 128.063 202.832C128.873 203.148 129.49 203.655 129.929 204.341C130.368 205.027 130.601 205.85 130.601 206.783C130.601 208.347 130.094 209.582 129.065 210.487C128.063 211.379 126.705 211.832 124.976 211.845L124.976 211.846ZM112.108 195.3L114.111 195.3L114.111 211.393L111.546 211.393L111.546 200.171L107.773 200.171L107.773 198.305C109.2 198.305 110.242 198.072 110.915 197.619C111.573 197.152 111.971 196.384 112.108 195.3ZM124.976 195.3C123.399 195.314 122.164 195.698 121.245 196.466C120.326 197.235 119.859 198.277 119.859 199.608C119.859 200.363 120.024 201.007 120.353 201.529C120.683 202.064 121.19 202.489 121.876 202.832C121.053 203.175 120.422 203.697 119.996 204.369C119.557 205.041 119.352 205.85 119.352 206.783C119.352 208.347 119.846 209.582 120.833 210.487C121.835 211.393 123.179 211.859 124.894 211.859C124.922 211.859 124.949 211.859 124.976 211.846L124.976 209.596L124.935 209.596C124.043 209.596 123.33 209.349 122.809 208.841C122.274 208.333 122.013 207.661 122.013 206.811C122.013 205.933 122.274 205.26 122.795 204.753C123.316 204.259 124.043 204.012 124.949 204.012L124.976 204.012L124.976 201.982L124.949 201.982C124.167 201.982 123.536 201.776 123.083 201.378C122.63 200.966 122.411 200.404 122.411 199.691C122.411 199.005 122.63 198.469 123.097 198.072C123.55 197.674 124.181 197.468 124.949 197.468L124.976 197.468L124.976 195.3Z" fill-rule="evenodd"  fill="#B5B6B6" >
</path>
<path d="M173.651 102.451L148.765 102.451L79.7587 178.769C79.7587 178.769 70.7593 186.918 84.9033 189.484C99.0476 192.063 160.783 192.063 192.076 156.901C223.369 121.753 212.229 92.6003 189.085 78.8815C165.927 65.1622 119.626 60.4431 75.9039 87.8811C75.9039 87.8811 78.8944 92.1615 85.754 91.3108C92.6136 90.4464 112.341 73.7368 153.073 78.4424C193.791 83.1618 201.514 110.6 193.365 127.323C185.216 144.047 165.502 167.615 112.767 171.91L173.651 102.451Z" fill-rule="evenodd"  fill="#007F41" >
</path>
<path d="M142.784 100.941L128.626 115.936C128.626 115.936 72.474 115.936 57.4654 92.3671C57.4654 92.3671 54.9825 88.0318 57.4654 86.3579C59.3175 85.0273 62.61 88.9372 65.1892 90.213C86.6733 100.969 119.489 102.917 142.784 100.941Z" fill-rule="evenodd"  fill="#004098" >
</path>
<path d="M124.771 121.04L114.303 132.152C114.303 132.152 75.5195 132.152 60.5248 108.569C60.5248 108.569 58.371 104.302 60.0446 103.04C61.293 102.011 64.8187 105.812 67.2197 107.389C90.7203 122.933 125.415 120.354 124.771 121.04Z" fill-rule="evenodd"  fill="#004098" >
</path>
<path d="M108.925 138.024L101.284 146.118C101.284 146.118 76.8092 141.92 64.9973 125.265C64.9973 125.265 61.6085 120.889 63.2687 119.901C64.3113 119.284 65.6147 121.095 67.2747 122.617C77.3306 131.754 94.2596 136.323 108.925 138.024Z" fill-rule="evenodd"  fill="#004098" >
</path>
<path d="M59.9074 113.851C59.4683 114.07 50.853 123.564 53.5008 135.705C56.1484 147.847 59.4683 155.145 81.9814 167.067C81.9814 167.067 68.2897 167.067 57.6987 155.364C47.094 143.662 44.0073 127.323 55.2705 109.653C55.5449 109.804 61.3616 113.124 59.9074 113.851Z" fill-rule="evenodd"  fill="#007F41" >
</path>
</g>
<defs>
<clipPath id="clip-path-g38GQ0Za0hDC4uJ6jZ3eZ">
<path d="M0 258.471L258.471 258.471L258.471 0L0 0L0 258.471Z" fill="white"/>
</clipPath>
</defs>
</svg>
