<?xml version="1.0" encoding="UTF-8"?><svg id="b" xmlns="http://www.w3.org/2000/svg" viewBox="0 0 208.9888 208.9887"><g id="c"><path d="M176.0635,93.248c-14.5332,16.4429-28.6811,33.2896-42.9907,49.938-2.2427,2.6084-3.6519,4.1436-5.8936,6.7529-7.0625,8.2227-23.2602,10.4141-32.9839,8.7227-5.1484-.8945-10.3071-1.7412-15.435-2.7441-4.0073-.7842-7.9668-1.8086-11.9605-2.6631-6.1884-1.3233-12.4487-1.3985-18.6562-.3994-6.0552.9736-11.937,2.6933-17.4512,5.4853-.7646.3877-1.7978.875-3.2969,1.2666,2.6333-3.8008,7.771-7.5684,10.8721-9.4687,10.5283-6.4541,22.1172-7.5616,34.105-5.9913,6.7319.8829,13.061,2.5645,19.6787,3.7618,6.6953,1.2109,13.3774,3.0752,20.2549,2.0322,6.2851-.9541,11.707-3.6387,15.7383-8.8418,9.9184-12.7979,21.2299-24.8174,32.2343-36.8955,5.3047-5.8228,10.5703-11.6685,15.5166-17.8008,1.8072-2.2407,3.5938-1.2226,6.2505.1094-1.9858,2.2519-3.9936,4.4863-5.9824,6.7358" fill="#b11116" fill-rule="evenodd" stroke-width="0"/><path d="M175.4834,59.6889c-2.0327,2.3819-5.5068,6.711-7.5249,9.1055-14.1362,16.7725-28.4717,33.3662-42.7051,50.0566-3.2392,3.7979-5.434,7.2676-10.2426,9.2559-7.6558,3.1641-15.6001,2.749-23.4707,1.1445-7.2144-1.4707-14.3135-3.5-21.5025-5.1064-9.1968-2.0557-18.4145-2.6729-27.7217-.3643-6.2426,1.5479-11.8012,4.4756-17.289,7.6407-.7622.4394-1.4761.8027-3.4785,1.7627.9057-1.1846,2.0195-2.4532,3.1328-3.6358,3.8471-4.0889,8.2251-7.6787,12.7568-10.9795,13.2554-9.6572,27.7715-16.8584,42.7993-23.3554,13.6372-5.896,28.1685-10.7217,42.3404-15.2076,2.4746-.7832,4.9926-1.4272,7.4873-2.146.2964-.0859,1.6821-.2856,1.9902-.8525-2.1401-.3911-5.3789-.8945-7.5366-1.1191-10.4551-1.0865-20.9317-1.2007-31.3423.2944-5.3828.7729-10.7979,1.7959-15.9668,3.4355-4.7456,1.5064-9.4653,3.4883-13.3618,7.5098,5.8115-1.874,11.3677-2.8867,17.1465-1.7173-9.4507,2.4268-19.8785,7.1572-28.4932,11.5576-.0513-.0542.6392-.8877,1.481-1.8647,2.4936-2.8941,4.9882-5.7842,7.4672-8.6914,1.7359-2.0357,3.4761-4.0679,5.2207-6.0967,2.8257-3.2871,5.5992-6.6245,8.4776-9.8623,1.0576-1.1899,2.1294-2.3667,3.2236-3.5225,2.0396-2.1547,7.8667-3.7885,10.7041-4.7065,9.9351-3.2148,21.6934-3.9863,31.8584-1.1738,9.4234,2.6064,18.8789,4.9135,28.6934,5.2715,3.1221.1132,6.2202.0429,9.2876-.336,4.7163-.583,8.8711-1.8955,13.0346-4.1401,1.8208-.982,3.459-2.2359,3.5342-2.1568" fill="#b11116" fill-rule="evenodd" stroke-width="0"/><path d="M104.4951,2.1264v.0044h-.0024v-.0044c-28.2588.0005-53.8496,11.462-72.377,29.9893C13.5879,50.643,2.1265,76.2348,2.126,104.4941h.0044v.0025h-.0044c.0005,28.2587,11.4619,53.8496,29.9893,72.3769,18.5278,18.5274,44.1191,29.9893,72.3779,29.9893v-.0039h.0029v.0039c28.2583,0,53.8491-11.4619,72.377-29.9893,18.5278-18.5273,29.9892-44.1191,29.9892-72.3779h-.0039v-.0025h.0039c-.0005-28.2587-11.4614-53.8496-29.9887-72.3769C158.3457,13.5884,132.7544,2.1264,104.4951,2.1264M104.4942,0h.0009v.0044C133.3477.0044,159.4712,11.7016,178.3794,30.6098s30.605,45.0308,30.605,73.8833h.0044v.0025h-.0044c0,28.8525-11.6968,54.9756-30.605,73.8838s-45.0312,30.6054-73.8833,30.6054v.0039h-.0029v-.0039c-28.8525,0-54.9761-11.6972-73.8843-30.6054S.0044,133.3491.0039,104.4966h-.0039v-.0025h.0039C.0039,75.6411,11.7012,49.5176,30.6094,30.6094,49.5176,11.7016,75.6402.0049,104.4927.0044v-.0044h.0015Z" fill="#231f20" stroke-width="0"/><path d="M177.7075,93.0595c.5777,3.7266.878,7.5455.878,11.4336h.0024v.0025h-.0024c0,20.458-8.2945,38.9814-21.7022,52.3887-13.4067,13.4072-31.9297,21.7011-52.3872,21.7011v.003h-.0029v-.003c-20.458,0-38.9815-8.2939-52.3887-21.7011-.9321-.9327-1.8388-1.8887-2.7202-2.8702.5591-.08,1.1187-.1513,1.6782-.2138.6597.7148,1.3335,1.417,2.021,2.1045,13.1602,13.1601,31.3374,21.3007,51.4097,21.3017v-.0029h.0029v.0029c20.0718-.001,38.2486-8.1416,51.4082-21.3008,13.1602-13.1601,21.3013-31.3379,21.3018-51.4101h-.0029v-.0025h.0029c-.0005-3.4213-.2373-6.788-.6953-10.0839.3984-.4502.7973-.9004,1.1967-1.3497M104.4942,30.4009h.0009v.0029c20.4585,0,38.9815,8.2939,52.3892,21.7016,3.5376,3.5376,6.7183,7.4322,9.4854,11.6246-.4537.1547-.9107.3002-1.3702.4365-2.665-3.9903-5.7138-7.7012-9.0947-11.0821-13.1597-13.1601-31.3374-21.3012-51.4097-21.3012v.0024h-.0024v-.0024c-20.0723,0-38.249,8.1411-51.4087,21.3008-13.1601,13.1601-21.3013,31.3374-21.3013,51.4101h.0025v.0025h-.0025c0,5.6318.6421,11.1132,1.856,16.3789-.4004.3154-.7988.6338-1.1943.955-1.334-5.5605-2.0411-11.3652-2.0415-17.3339h-.0025v-.0025h.0025c.0004-20.4585,8.2944-38.9819,21.7021-52.3891,13.4067-13.4073,31.9297-21.7012,52.3877-21.7012v-.0029h.0015Z" fill="#231f20" stroke-width="0"/><path d="M195.8169,98.9609l.2456,2.8086c-.7612.2524-1.4702.5674-2.1259.9458-.6241.2402-1.0655.7149-1.3243,1.4297-.4902-2.4429-.1757-3.8281.9473-4.1563.4829-.2719,1.2334-.6142,2.2573-1.0278M196.9849,103.624l-.8633-9.8643.6841-.06.2695,3.0805,2.3296-.2036.2754,3.1504-2.3296.2041.3179,3.6328-.6836.0601ZM192.0078,100.3989l.252,2.8789c-1.3638-.8467-2.8667-1.7285-4.5103-2.6421-.1338.0557-.3081.1861-.5195.3902-.2163.1572-.5771.5097-1.0796,1.0605-1.063,1.0117-1.8735,1.981-2.438,2.9048-.226-1.544-.2524-2.6226-.0771-3.2388.1728-.6567.7075-1.3725,1.6064-2.1401.1294-.1055.2354-.2061.3213-.3047-.2988-.251-.6191-.4761-.958-.6768-1.3916-.6582-2.0107-2.2148-1.8569-4.667.7676.899,1.5937,1.6539,2.4746,2.2662.0947.0385.2422.1406.4419.3061.7363.5361,1.3471.9185,1.8271,1.1533.7652-.7119,1.5581-1.3789,2.378-2.0044.6831-.6103,1.2187-1.0493,1.6108-1.3134l.2519,2.8759c-.7299.6177-1.4375,1.21-2.1245,1.7735.2427.1172.4849.2578.7286.4194.7246.3989,1.2822.7183,1.6713.9585ZM194.3369,89.1509l-.7539.0654c.3228.019.5464.185.6651.4956l1.7124-.1499-.1973-2.2593.6162-.0537.1978,2.2593,2.1924-.1919.1855,2.125-2.1919.1919.1558,1.7798-.6167.0542-.1558-1.7803-1.5757.1377.0064.0674c.1504,1.1826-.3257,1.8012-1.4258,1.8506l-1.2334.1079c.708.7216,1.8999,1.2148,3.5811,1.4799l.2402,2.7417c-.334-.1088-.6392-.1972-.9219-.2636-.7505-.167-1.2671-.2813-1.5469-.3482-1.0214-.0957-1.5649-1.291-1.6269-3.5854l-5.5474.4853c-.3657.0313-.8139.1621-1.3471.3946-.0137-1.1978.5341-1.7725,1.642-1.7315l7.126-.6235c.3184-.0279.5117-.2066.5747-.5332l-11.4394,1.001-.1861-2.125,11.3692-.9947c-.1143-.2666-.335-.4302-.6646-.4956l-6.7109.5874c-1.4531.2212-2.2134-.2895-2.2744-1.5239.436.2358,1.0649.3188,1.8862.2471l8.1514-.7129.1137,1.3008ZM188.2173,58.7309l1.1914,2.5562c-1.2427,1.2363-1.8887,2.2949-1.9311,3.1758-1.2139-2.166-1.4107-3.5669-.5928-4.2007.5967-.7832,1.0386-1.293,1.3325-1.5313ZM192.9536,68.8886l1.1914,2.5557c-.3906.0298-1.0654.0405-2.0288.0366-1.0512.1338-1.9775-.8745-2.7783-3.0293-1.1943-2.1235-1.3725-3.4843-.5347-4.0756.169-.2833.4786-.6543.9219-1.1128.1685-.1797.3067-.3213.4102-.4185l1.1914,2.5557c-1.2422,1.2363-1.8858,2.2451-1.9282,3.0224.5844.3848,1.7705.5406,3.5551.4658ZM182.147,63.6108l-1.1333-2.4302,3.7412-1.7446,1.1333,2.4307-1.061.4946c.6831-.1665,1.4194.6001,2.2143,2.3052l3.2837,7.041c.6782,1.4541.5293,2.3848-.4453,2.7876l-.936.4365c-.5157.1919-.9917.2612-1.4209.209l-.9878-2.1191c-.3906.0297-.7759-.0948-1.1582-.3731l-2.6533-1.9477c-.0655.082-.108.1503-.1304.2128-.0625.0811-.0952.1705-.0991.273l2.7031,5.7964-.6226.29-2.5576-5.4853c-.5088.5415-1.1362.9863-1.8833,1.3344-1.8071.7906-3.1255.3438-3.9619-1.3383-.8687-1.9737-.9277-3.6138-.1738-4.9268-.0039.8599.2964,1.9336.8979,3.2232.4468.854,1.0957,1.1079,1.9463.7597.7901-.3686,1.4404-.9238,1.9541-1.6689l-3.0796-6.605.6221-.29,2.8769,6.1689c.46-1.0757.7574-2.603.8931-4.5894l1.6265,3.4888c-.0708.3892-.1431.7754-.2139,1.1651l1.4439,1.1455c.2602.2319.4746.31.6391.2329.107-.0982.1035-.3267-.0112-.6778l-2.6152-5.6079.625-.291,3.6328,7.791c.1894.5171.1655,1.0069-.0728,1.4746.1856-.0385.3921-.0825.6192-.1367l.872-.4067c.6836-.27.8208-.7876.4126-1.5586l-2.9643-6.3579c-.5235-1.1221-1.0948-1.6392-1.7115-1.5523l-2.2441,1.0464ZM173.5586,40.1435l1.5752,1.6314c-.1328.1284-.2807.271-.4453.4302-.7295.8959-1.1782,1.5209-1.3462,1.875-.5962.7675-.8188,1.4921-.6689,2.1752-1.6924-1.5546-2.0596-2.7583-1.1045-3.6191.2998-.4165.665-.8955,1.0957-1.4375.3955-.4477.6924-.7993.894-1.0552ZM169.0718,43.6152l1.5757,1.6314c-.1973.2558-.4644.5752-.7949.9594-.4981.6075-.8135,1.0708-.9478,1.3921-.5644.7373-.8052,1.4468-.7173,2.1289-1.6606-1.521-2.0132-2.7099-1.0561-3.5688.1972-.2554.3652-.479.497-.6719.6622-.8306,1.1436-1.4551,1.4434-1.8711ZM166.9195,55.4419l-1.814-1.8784,2.1758-2.1011-3.3042-3.0249.4453-.4297,3.3042,3.0249,9.1509-8.8374,1.8139,1.8784-9.0517,8.7412,1.0532.9937-.3945.3813-1.104-.9448-2.2749,2.1968ZM158.6743,43.0434l5.1939-5.0156,1.1943,1.2368-.5444.5259c.3257-.123.6182-.1196.8755.0156l1.5322-1.48-1.8628-1.9292.4448-.4296,1.8633,1.9287,1.6333-1.5772-1.8159-1.8808.4453-.4297,2.1992,2.2773c.6651.7564,1.2632.9453,1.7871.5664l2.2925,2.374c-1.105.3047-2.1059-.0053-2.9966-.9277l-.2407-.249-1.6333,1.5776,1.8159,1.8804-.4453.4302-1.8159-1.8809-1.4331,1.3838.145.1499c1.0191,1.0552,1.0982,1.9658.2427,2.7266l-3.8579,3.7256c-.5581.478-.9268,1.0214-1.0991,1.6367-.9844-1.1543-1.066-2.0625-.2452-2.7285l4.2061-4.0616c.3608-.3491.417-.6884.1631-1.0185l-6.6773,6.4487-1.6713-1.7309,6.6777-6.4483c-.1929-.1323-.4492-.1699-.7764-.1113l-4.2041,4.06c-.9595,1.1182-1.9492,1.1197-2.9673-.0019.5562-.2183,1.0786-.564,1.5747-1.0435ZM153.793,26.5244l-6.6191-3.3731-1.8267,1.9244,8.4541,4.3076-.313.6142-8.6396-4.4018c-1.0528,1.0571-1.1397,1.8359-.2618,2.3364l4.2271,2.1533c.9995.5586,1.5391,1.2188,1.6157,1.9795-.0478.7984-.5644,1.2564-1.5483,1.3711l-4.188.4902c.4263.5796.8115,1.1348,1.1582,1.67.4438.7436.7695,1.268.9717,1.5757-2.8208-1.23-4.4947-2.3399-5.0186-3.3277-.0395-.1221-.1211-.2661-.2431-.4336-1.5787-2.7568-2.5088-4.5185-2.7891-5.2803l3.6157,1.8423c.3423.6387.686,1.2251,1.0322,1.7608l4.1558-.5825c.3892-.0591.5947-.1582.6152-.3023-.0185-.1645-.2016-.3599-.5464-.5879l-5.0874-2.5923c-1.6552-.7905-1.7866-1.9409-.4038-3.4463l-3.3701-1.7168.313-.6142,3.5527,1.81,1.8296-1.9228-3.3071-1.6846.3115-.6118,3.4903,1.7783,1.8608-1.9858,2.6978,1.3745-1.8609,1.9854,6.4331,3.2783-.3115.6118ZM112.4248,20.9101l3.2505.5733c.6592,1.2807,1.6118,2.2143,2.857,2.8061-3.2745-.437-4.9634-1.0117-5.0694-1.7304-.4175-.5386-.7646-1.0884-1.0381-1.649ZM121.6895,10.7431l2.7099.4781c-.1836.2475-.3828.5844-.5981,1.0117-.0703.1274-.1064.2134-.1147.2598l4.3344.7641-.1074.6094-4.5395-.8003c-.1294.21-.2315.4004-.3096.5742l2.6406.4653c.2524,1.2061.7075,2.0557,1.3662,2.544-1.5889-.2324-2.56-.52-2.9194-.8633-.4185-.2617-.7813-.9751-1.0874-2.146-.1914.291-.3164.4776-.3794.5615-.0156.0899-.0239.1358-.0239.1358-.3619,1.0058-1.6607,1.2417-3.8931.708-2.082-.0869-3.1323-.9932-3.1524-2.7188-.1293.2095-.2304.3765-.3007.5044-.5215,1.1172-1.899,1.4107-4.1314.877.8101-.3696,1.8501-1.792,3.1236-4.2666l2.7768.4897c-.1221.166-.251.376-.3882.6284-.1484.3018-.2549.5152-.3247.6431l4.1983.7402-.1075.6099-4.4668-.7881c-.0625.0816-.1245.1631-.184.2481-.0694.1245-.1089.2129-.1167.2558l2.4389.4307c.0957,1.0415.3614,1.7856.7915,2.2339.6768-.3906,1.5967-1.7891,2.7647-4.19ZM120.7876,23.7817l.2866-1.6265-10.7685-1.8989.1196-.6762,10.7681,1.8989.2632-1.4912-11.0376-1.9458.1196-.6763,6.6338,1.1699.2983-1.6933-5.8217-1.0264.1313-.7456,5.8223,1.0268.167-.9477,2.9126.5132-.1675.9482,5.8916,1.0386-.1314.7451-5.8916-1.0386-.2988,1.6934,6.7065,1.1821-.1191.6763-2.3027-.4063-.2632,1.4913,2.0312.3579-.1191.6762-2.0313-.3579-.4057,2.3023c-.2754,1.8139-1.6309,2.5073-4.0694,2.0771-2.9868-.4819-5.2641-1.5566-6.831-3.2305,1.6606.6177,3.1904,1.0513,4.5889,1.2979,2.3247.5498,3.497.1045,3.518-1.334ZM89.3003,22.1235l.2031,1.1499c.2593.4219.6167.5913,1.0674.5117l1.4214-.2505c.687-.0766.9585-.3774.8164-.9121l-.167-.9482c-.0796-.4507-.438-.6436-1.0796-.5781l-1.352.2382c-.4966.0879-.8023.3501-.9097.7891ZM86.3491,16.0805l.1075.6099c.2392.5625.5781.7588,1.0132.5898l4.7382-.8354c.6402-.0684.9146-.373.8194-.9126l-.084-.4741c-.0957-.543-.4805-.7315-1.148-.5659l-4.6059.812c-.4971.0874-.7759.3452-.8404.7763ZM96.7544,11.7314l-14.8974,2.627-.1075-.6099,6.0269-1.0625-.3223-1.8291,3.0484-.5371.3222,1.8286,5.8218-1.0264.1079.6094ZM89.7661,24.7641l-2.2334.3941-.7041-3.9961,2.2334-.3936.167.9473c.0323-.6104.4776-.9898,1.3355-1.1411l2.436-.4292c1.2925-.3237,1.9541-.02,1.9776.9082l.2744,1.5576c.1787.7578-.3677,1.2266-1.6377,1.4058l-2.5054.4419c-.7681.1352-1.2793-.126-1.5342-.7784l.1909,1.0835ZM86.7193,18.1782l-2.6411.4658-.6089-3.4526,2.6411-.4658.167.9477c.0327-.6103.4741-1.0132,1.3242-1.2104l5.6885-1.0035c1.4809-.3056,2.2509-.0244,2.313.8497l.1909,1.0835c.2329.7963-.4688,1.2924-2.1118,1.4897l-5.689,1.0029c-.8394.2403-1.3213.0244-1.4409-.6543l.167.9473ZM87.0406,27.1308l-2.6407.4659-1.3496-7.6543,2.6406-.4659.2271,1.2891c.1206-.9058.9487-1.4961,2.4829-1.7666l5.958-1.0503c2.5669-.4976,3.9566.1182,4.1665,1.8511l.4297,2.436c.3887,1.9331-.2598,3.0039-1.9463,3.2056-1.77.2676-3.1357.041-4.0986-.6714.7978.0439,1.4922.0142,2.0786-.0894,1.0459-.1367,1.4507-.7446,1.2134-1.8198l-.418-2.3691c-.1924-1.3633-1.0962-1.8775-2.7153-1.5469l-5.0796.8955c-.9986.1314-1.6694.5508-2.0117,1.2632l1.063,6.0273ZM54.7837,27.6255l2.5122-1.2798c1.2198,1.2817,2.2505,1.8891,3.0884,1.8213-2.2642,1.3081-3.6572,1.5537-4.1748.7373-.1465-.0801-.3828-.292-.7148-.6397-.3287-.2446-.565-.4565-.711-.6391ZM56.1324,31.0283l2.3891-1.2178c1.1777,1.0962,2.3394,1.6631,3.4888,1.6963-2.3277,1.3901-3.8111,1.606-4.4551.6465-.2686-.1196-.6909-.4448-1.2695-.9731-.0591-.0191-.1118-.0708-.1533-.1519ZM62.3902,37.0991l-2.5127,1.2798c-.2134-1.2276-.335-2.1704-.3599-2.8262-.0869-.7788.0606-1.3935.4482-1.8481.3038-.4117,1.0909-.941,2.356-1.586-.3613.9058-.458,1.7251-.2891,2.4624.044.2871.1617,1.126.3575,2.5181ZM60.2998,24.8154l-2.6352,1.3423-.8125-1.5947-3.2466,1.6543-.3438-.6744,3.2466-1.6543-.811-1.5922,2.6352-1.3428.8111,1.5923,3.1841-1.6221-.8111-1.5923,2.6348-1.3423.8115,1.5918,3.0034-1.5302.3438.6743-3.0039,1.5302.8125,1.5948-2.6348,1.3427-.8125-1.5947-3.1841,1.6221.8125,1.5952ZM71.273,32.5732l-3.9214,1.9976c-1.856,1.1006-3.1607.7114-3.9126-1.1704l-3.8384-7.5342,2.5723-1.3106.6235,1.2232c-.2339-.8589.1206-1.5269,1.0615-2.0064l2.3267-1.1855c1.6553-.9976,2.8037-.7075,3.4512.8662l1.4985,2.9409c.6445,1.2652.1626,2.2842-1.4531,3.0552-1.6939.8105-3.2222.9468-4.5791.4033.4707-.0849.8384-.1704,1.1059-.2534.3286-.0659.6241-.1899.8877-.377,1.2476-.583,1.6426-1.2749,1.1851-2.0693l-1.3106-2.5723c-.3574-.9013-1.0146-1.08-1.9736-.5385l-1.1006.561c-.6748.291-.9687.8257-.8813,1.6045l3.0288,5.9448c.4595,1.2046,1.3232,1.4331,2.5889.6861l2.2666-1.1548c1.5312-.6255,2.1269-1.8804,1.7861-3.7647,1.3486,2.2466.8774,3.7969-1.4121,4.6543ZM47.5142,43.6421l-4.2041-4.0596c-.7925-.8311-1.4419-.9482-1.9502-.354l6.479,6.2568.2876-.2973c.3833-.2666.1792-.7813-.6123-1.5459ZM40.5635,52.2251l-1.4326,1.4834-8.2095-7.9278,1.4326-1.4838,8.2095,7.9282ZM39.2075,49.769l-7.3193-7.0679,1.6734-1.7329,7.5659,7.3067c.957.9897,1.7231,2.0801,2.2939,3.2676.8701,1.4765.3765,2.9126-1.479,4.3061.0542-.584-.041-1.2793-.2812-2.0864-.5127-1.4497-1.3291-2.7803-2.4537-3.9932ZM41.7095,34.3091l-2.627,2.7202,1.733,1.6733.9067-.939c.9853-1.0878,2.0249-1.0751,3.1133.0411l4.5503,4.394c1.1518.9863,1.2983,1.8906.437,2.7148-.4458.462-.9907.7642-1.6377.9063l1.7305,1.6709-1.7666,1.8301-8.5562-8.2627c-.187.4555-.1958.896-.0269,1.3115l6.5298,6.3062-1.6709,1.7304-7.6674-7.4043,1.6708-1.7304.8907.8603c-.399-.5122-.4722-1.0273-.2222-1.5527l-1.7812-1.7202-2.4356,2.5224-.4936-.477,6.8295-7.0723.4937.4771ZM23.6988,67.896l1.5581.7265.5532-1.186-1.5581-.7266-.5532,1.1861ZM25.3853,64.2793l1.5581.727.5517-1.1836-1.5581-.7265-.5517,1.1831ZM21.7661,66.9946l1.3716.6397.5532-1.1861-1.8081-.8432-.1464.3139c-.1739.3721-.1636.7329.0297,1.0757ZM23.1314,62.9272l-.1153.2476,1.8081.8428.5518-1.1832-.936-.4365c-.6026-.3325-1.0415-.1552-1.3086.5293ZM28.2149,72.1997l1.3364-2.8662c1.0459-.0694,1.938-.4629,2.6772-1.1802-.6967,1.5981-1.2114,2.5981-1.5498,2.9976-.2744.477-.6255.7436-1.0542.7963-.1836.0669-.4096.1138-.6748.1421-.2846.0679-.5288.106-.7348.1104ZM20.209,69.6802l-.4365.936,11.0937,5.1733-1.1333,2.4302-11.0937-5.1728-.4932,1.0581-.4975-.232.4931-1.0581-3.2412-1.5117,1.1338-2.4302,3.2407,1.5113.4366-.9356.4975.2315ZM32.4141,62.5493l-.5532,1.1855,1.8696.8721c1.2866.5996,1.6016,1.6045.9419,3.0191-.7349,1.5771-1.7588,2.7441-3.0718,3.498-.2837.1719-.4458.2485-.4858.23-.065-.0825.0327-.2373.2944-.4717.4346-.6064.8731-1.3857,1.3193-2.3433.3912-.7275.1412-1.2744-.7509-1.6386l-1.3081-.6099-3.3999,7.291-.5611-.2617,3.3999-7.291-.936-.4365.3784-.8111-1.4336-.6684-.5517,1.1836,1.8081.8432-1.1333,2.4302-1.8081-.8433-.5528,1.1861,1.8081.8427-1.1035,2.3672-6.855-3.1967,1.1035-2.3667.6832.3188c-.3565-.3188-.4004-.8213-.1304-1.5044l-.875-.4082-1.8599,3.9883-.561-.2617,1.8603-3.9883-1.6196-.7549,1.1333-2.4307,1.6191.7554.6387-1.3696c-.3144.4585-.874.5766-1.6792.353l.8999-1.9302c.8008.0176,1.3511-.0791,1.6509-.292l.4082-.875.561.2618-1.9179,4.1132.8745.4082.7265-1.5581c.6158-1.4316,1.4756-1.8667,2.5782-1.3003l5.2353,2.4415-.3198.6855.561.2617.5533-1.1855.561.2617ZM18.4492,96.4131l2.3965.2099.126-1.438-3.0806-.2695-.0122.1372c-.06.6841.1299,1.1392.5703,1.3604ZM18.1245,92.2441l-.018.2046,3.081.2695.1319-1.5083-1.8472-.1616c-.7817-.021-1.2319.3779-1.3477,1.1958ZM24.9717,96.018l.042-.4795-3.4253-.2993-.126,1.438,2.6714.2334c.5225-.1841.8018-.4804.8379-.8926ZM24.2657,91.4677l-2.3296-.2036-.1324,1.5078,3.4258.2999.0298-.3418c.02-.7344-.311-1.1553-.9936-1.2623ZM9.3086,103.0678l.2271-2.6015c.7866-.0694,1.5527-.1406,2.2954-.2139.8364-.0659,1.4844-.4004,1.9521-1.0019-.0278,2.4365-.7334,3.6377-2.1098,3.6118-.605.0854-1.3941.1518-2.3648.2055ZM13.6626,103.7934l.2276-2.6015c.2788-.0225.6958-.0772,1.2573-.1665.5586-.0899.9575-.1695,1.1933-.2403.8838-.1084,1.5347-.4404,1.9522-1.0044-.023,2.3453-.728,3.5733-2.1157,3.6817-.0977.039-.3081.0879-.6348.1509-.8843.1079-1.5107.1679-1.8799.1801ZM25.3418,102.0552l-.2339,2.6718c-.4516-.0869-1.0185-.2041-1.6948-.3545-.9023-.2177-1.6001-.3935-2.0947-.5278-1.9961-.313-2.7988-1.6733-2.4028-4.0771.4428.728,1.2768,1.1923,2.5024,1.3906.1772.063.4243.1318.7388.2036,1.2607.3398,2.3208.5708,3.185.6934ZM9.5132,97.5635l.2334-2.6714c.3491.2158.7832.5073,1.3047.874,1.1777.748,1.7891,1.0991,1.8398,1.0596.7305.0634,1.9136-.5694,3.5494-1.8985.0136,1.9331-.3379,3.0537-1.0533,3.3594-1.2651.7612-2.1728,1.1675-2.7299,1.21-.0909-.0079-.7496-.3892-1.9707-1.1382-.4791-.3189-.8711-.583-1.1734-.7949ZM10.1602,90.166l.2397-2.7388c.1763.107.3921.2642.648.4693,1.6084,1.1069,2.4355,1.6176,2.4902,1.5283.6401.0561,1.8233-.5767,3.5503-1.898.0171,1.8892-.334,3.0098-1.0537,3.3594-1.3565.7559-2.2642,1.1357-2.7241,1.1431-.0987.0825-1.149-.5366-3.1504-1.8633ZM9.8365,93.8662l.2397-2.7417c.1763.1069.3921.2641.6479.4722,1.6084,1.1064,2.4356,1.6147,2.4903,1.5283.6401.0561,1.8237-.5767,3.5498-1.898.0176,1.8892-.3335,3.0074-1.0532,3.3594-1.3565.7559-2.2642,1.1357-2.7242,1.1426-.0986.083-1.1489-.5391-3.1503-1.8628ZM25.6416,97.0425l-.2397,2.7417-8.7007-.7613.2397-2.7417,1.0962.0962c-.6255-.1933-.9052-.7007-.833-1.522l.3716-4.2465c.1436-1.6455.9697-2.4009,2.478-2.2691l4.2466.3716c1.4224.0332,2.0181.8657,1.7837,2.5034l-.4136,4.7261c-.0986.5889-.4052.9307-.9199,1.0239l.8911.0777Z" fill="#231f20" stroke-width="0"/><path d="M171.9375,171.1098l-6.3711-6.0546,4.4043-4.8135,1.0782,1.0254-3.2051,3.5019,1.4126,1.3418,2.9819-3.2588,1.0728,1.0196-2.9825,3.2587,1.7344,1.6485,3.3184-3.627,1.0737,1.0205-4.5176,4.9375ZM165.3726,172.8257l-.9634-1.1289,2.8608-2.5352,2.2769,2.6689c-.0444.5215-.2407,1.1202-.5903,1.7969-.3511.6758-.7964,1.2529-1.3369,1.7315-.6871.6093-1.4126.9941-2.1739,1.1543-.7627.1572-1.5049.0781-2.229-.2413-.7246-.3193-1.3598-.7998-1.9082-1.4423-.5947-.6983-.9804-1.4463-1.1572-2.2422-.1738-.7969-.1099-1.585.1982-2.3643.2305-.5957.6612-1.1719,1.2886-1.7275.8159-.7227,1.6035-1.1133,2.3579-1.1709.7573-.0576,1.4639.1631,2.1211.6621l-1.1035,1.4189c-.3745-.2461-.771-.3525-1.189-.3164-.4179.0362-.8173.2227-1.2002.5625-.58.5137-.8813,1.1084-.9047,1.7871-.0225.6797.2812,1.3848.9111,2.1231.6772.7939,1.3598,1.2383,2.0464,1.3281.6855.0918,1.3091-.1133,1.8706-.6103.2788-.2471.5097-.5498.6953-.9092.1836-.3574.3086-.7061.3745-1.041l-.7251-.8506-1.52,1.3467ZM157.3741,183.393l-5.1207-7.1826,5.2247-3.8681.8667,1.2158-3.8023,2.8144,1.1353,1.5918,3.538-2.6191.8614,1.209-3.5376,2.6191,1.3935,1.9551,3.937-2.9141.8628,1.21-5.3588,3.9687ZM150.5718,187.6645l-4.3203-7.625,1.5229-.8965,3.586,6.3301,3.7871-2.2285.7344,1.2959-5.3101,3.124ZM143.3296,191.5385l-4.0566-7.7744,1.5527-.8418,3.3672,6.4532,3.8608-2.0918.6895,1.3213-5.4136,2.9335ZM133.5083,190.5669c.3697.9316.8623,1.5517,1.4746,1.8593.6138.3067,1.2447.3252,1.8951.0577.6489-.2676,1.0888-.7246,1.3164-1.376.226-.6485.1518-1.4492-.2266-2.4033-.374-.9434-.856-1.5625-1.4448-1.8623-.5899-.2959-1.2217-.3057-1.8931-.0293-.6733.2773-1.1216.7353-1.3472,1.375-.2236.6377-.1499,1.4306.2256,2.3789ZM131.8511,191.3139c-.333-.8388-.4893-1.5927-.4687-2.2636.019-.4932.1191-.9737.3046-1.4385.1866-.4619.4366-.8525.7505-1.169.4175-.4257.9541-.7724,1.6123-1.0429,1.1905-.4903,2.291-.5069,3.3042-.0479,1.0127.4571,1.7847,1.3565,2.3155,2.6963.5278,1.3301.5839,2.5147.1728,3.5576-.4121,1.042-1.2109,1.8076-2.3955,2.295-1.2017.4951-2.3052.5146-3.3101.0615-1.0048-.4561-1.7666-1.3389-2.2856-2.6485ZM129.2442,193.0542l1.7832.1133c-.0235,1.0048-.274,1.8095-.7525,2.4169-.477.6045-1.1709,1.0245-2.0781,1.2549-1.1216.2842-2.1401.128-3.0537-.4687-.9136-.5987-1.5371-1.5752-1.8687-2.9287-.351-1.4346-.2587-2.6397.273-3.6182.5327-.9775,1.3896-1.6172,2.5747-1.918,1.0332-.2627,1.9497-.165,2.7476.295.4755.2685.892.7255,1.2544,1.3662l-1.5899.8408c-.2085-.4219-.5029-.7227-.8852-.9004-.3799-.1777-.7974-.208-1.25-.0938-.626.1592-1.0796.5176-1.357,1.0762-.2778.5567-.291,1.3477-.0395,2.374.2661,1.0889.6469,1.8174,1.1455,2.1807.497.3652,1.0532.4688,1.6675.3125.4545-.1152.8086-.3603,1.0629-.7383.2549-.3759.376-.8984.3658-1.5644ZM110.6055,199.5903l-.7529-8.7715,1.7519-.1562.625,7.2812,4.3565-.3886.1279,1.4912-6.1084.5439ZM105.8311,196.2358l-1.0874-3.3359-1.2886,3.251,2.376.0849ZM108.9478,199.8608l-1.9131-.0683-.6914-2.043-3.48-.124-.7871,1.9902-1.8647-.0664,3.6953-8.751,1.8589.0664,3.1821,8.9961ZM90.3731,198.5561l1.2124-8.792,2.6074.3741.7373,6.2207,2.3735-5.7754,2.6133.374-1.2124,8.791-1.6167-.2314.9541-6.92-2.6675,6.6748-1.6772-.2402-.7529-7.165-.9546,6.9199-1.6167-.2305ZM84.0869,192.1303l1.2613.3213c.8188.208,1.3388.3037,1.5605.2852.2197-.0186.4097-.1006.5679-.2432.1562-.1435.2676-.3427.331-.6015.0708-.2911.0513-.543-.0566-.7608-.1079-.2168-.2949-.3828-.5605-.5019-.1333-.0528-.5459-.169-1.2388-.3448l-1.3306-.3378-.5342,2.1835ZM81.1621,196.6684l2.1075-8.6132,3.5937.913c.9033.2295,1.5396.4737,1.9111.7325.3716.2587.6329.6162.7823,1.0742.1489.4599.1606.9414.0356,1.4511-.1577.6456-.4756,1.1338-.9507,1.461-.4746.3242-1.0986.4482-1.8672.3691.316.3145.5621.6319.7378.9561.1763.3232.3848.8711.6285,1.6445l.622,1.9434-2.041-.5186-.7754-2.1894c-.2749-.7813-.4707-1.2784-.5893-1.4942-.1187-.2148-.2613-.3769-.4258-.4892-.1655-.1104-.4429-.2149-.8364-.3145l-.3448-.0879-.8794,3.5967-1.7085-.4346ZM74.1538,189.9233c-.3208.9502-.3476,1.7471-.0839,2.3887.2656.6416.7299,1.0771,1.3935,1.3105.6616.2325,1.2876.1807,1.8789-.1582.5879-.3379,1.0474-.9922,1.376-1.9658.3252-.9609.3603-1.751.1084-2.3701-.2544-.6191-.7251-1.0488-1.4097-1.2891-.6865-.2402-1.3198-.1943-1.9018.1377-.5801.3321-1.0347.9795-1.3614,1.9463ZM72.4224,189.3794c.2891-.8565.6562-1.5303,1.1035-2.0225.3315-.3594.7168-.6553,1.1558-.8818.4384-.2237.8784-.3516,1.3193-.3809.5894-.042,1.2173.0557,1.8882.291,1.2139.4268,2.0552,1.1494,2.5239,2.1739.4702,1.0214.4741,2.2168.0122,3.582-.458,1.3564-1.1787,2.2891-2.1606,2.8017-.981.5098-2.0772.5538-3.2852.1299-1.2251-.4297-2.0708-1.1533-2.5371-2.167-.4653-1.0156-.4712-2.1914-.02-3.5263ZM62.7261,189.769l3.6816-8.0459,1.5518.7373.7729,6.9082,2.4585-5.372,1.4815.7041-3.6817,8.0449-1.601-.7608-.7808-6.7588-2.4009,5.2471-1.4819-.7041ZM52.4517,178.271c-.5366.8427-.752,1.6093-.6485,2.2968.105.6885.4522,1.2256,1.0406,1.6153.5869.3887,1.207.4931,1.8608.3096.6509-.1827,1.252-.7042,1.8023-1.5674.5434-.8526.7651-1.6114.6679-2.2744-.1001-.6622-.455-1.1954-1.062-1.5967-.6094-.4033-1.2348-.5147-1.8779-.336-.6416.1787-1.2363.6953-1.7832,1.5528ZM50.9009,177.3159c.4834-.7588.9995-1.3223,1.5503-1.6895.4077-.2675.8516-.4589,1.3311-.5703.4785-.1103.936-.125,1.3706-.0449.5815.1045,1.1674.3535,1.7631.7481,1.0767.7128,1.7212,1.622,1.9331,2.7314.2134,1.1064-.0664,2.2676-.8388,3.4785-.7666,1.2031-1.687,1.9307-2.7608,2.1856-1.0737.2529-2.1474.0254-3.2187-.6836-1.0874-.7198-1.7363-1.6289-1.9478-2.7285-.2104-1.0997.063-2.2422.8179-3.4268ZM45.4532,173.226l-1.5279,1.7911,1.2276,1.0879c.4795.4238.7929.6806.9453.7656.228.1396.4658.1914.7099.1611.2451-.0322.4702-.167.6724-.4043.1719-.2012.2676-.415.2925-.6387.0234-.2265-.0264-.4511-.1524-.6748-.1264-.2246-.4931-.6045-1.0962-1.1386l-1.0712-.9493ZM47.7261,170.562l-1.3218,1.5488.8692.7705c.5175.458.8457.7354.9848.8311.2491.1738.4961.2529.7393.2353.2431-.0166.4565-.1347.6416-.3515.1767-.208.2656-.4248.2641-.6534-.0029-.2294-.103-.455-.3007-.6777-.1187-.1318-.4898-.4746-1.1143-1.0273l-.7622-.6758ZM47.3482,168.27l2.6284,2.3281c.5205.461.8911.8272,1.1079,1.0987.2183.2705.3677.5644.4502.8837.0825.3194.0908.6534.0259,1.0059-.0635.3525-.2198.6738-.4658.9619-.2676.3145-.5962.5293-.9854.6455-.3906.1143-.7832.1114-1.1782-.0088.2983.4727.435.9493.4057,1.4239-.0288.4785-.2094.9101-.5395,1.2978-.2593.3037-.5811.5391-.9668.7041-.3838.1641-.7705.2266-1.1572.1856-.3868-.0411-.7744-.1983-1.1626-.4707-.2403-.1719-.7876-.6299-1.6397-1.3741l-2.2378-1.9824,5.7149-6.6992ZM38.5972,172.1108l6.0513-6.3857,1.2651,1.2441-6.0518,6.3858-1.2646-1.2442ZM32.5332,165.6655l1.1602-1.1016,7.2534-.5175-2.7681-3.0245,1.0782-1.0244,4.3496,4.752-1,.9502-7.5523.5273,3.3809,3.6944-1.0742,1.0205-4.8277-5.2764Z" fill="#231f20" stroke-width="0"/></g></svg>