<?xml version="1.0" encoding="UTF-8"?><svg id="b" xmlns="http://www.w3.org/2000/svg" viewBox="0 0 312.8414 312.8414"><g id="c"><path d="M128.4508,40.261c.1057.0151.1383.0842.0992.2073-.1015.108-.1599.1967-.1749.2658-.0584.2657-.0108.3045.1383.1165.0216-.028.0366-.0646.0474-.1122.0261-.1103.0757-.1987.1513-.2701.1188.0561.1361.1663.0542.3327-.1602.3218-.1103.4989.1511.5293.1145.013.2463-.0216.3997-.1038.6633-.3586,1.3631-.7084,2.1021-1.0522.0627-.0278.1015-.0907.1015-.1596,0-.8277-.1318-1.6052-.3932-2.3357-.0496-.1361-.2225-.1772-.3262-.0754-.2138.2137-.447.4623-.6979.7494-.0669.0757-.1208.0953-.1599.0542-.0323-.0346-.0215-.1057.0238-.1684l.7282-.9745c.0669-.0885.0454-.1146-.0606-.0777-.8124.2829-1.5772.6653-2.2921,1.1472-.1018.0691-.2313.0884-.3481.0496-.555-.1814-1.0089-.4689-1.3609-.8643-.0434-.0473-.0714-.1123-.0865-.1857-.0779-.3954-.2701-.8447-.5768-1.3524-1.4023-2.3227-2.3658-4.8158-2.8908-7.484-.0303-.1556-.0822-.1687-.1579-.0391l-.2721.4668c-.0258.0474-.0323.1211-.0193.2075.0581.3476-.0541.6395-.335.8771-.7368.6222-1.5534,1.2444-2.45,1.8666-.0476.0346-.0584.1015-.0238.1491.1383.1879.2009.3977.1879.6245-.0193.3478-.03.5272-.03.5357.028.3801.0711.7583.1272,1.1364.0108.0627.0692.1015.1211.0799l1.2486-.4969c.1449-.0584.2982-.0757.4626-.0518l1.143.1598c.0734.0088.1338.0434.1618.0907.3198.5188.7606.6441,1.3201.3739.0757-.0368.1579-.0195.1579.0304,0,.0688-.0564.1791-.1667.3305-.0776.1057-.1726.1964-.2829.2679-.2829.1836-.3889.3585-.3174.5249.0365.0865.0538.1534.0496.1987-.0431.4386-.1341.8663-.2744,1.279-.1145.3436-.3305.6568-.6438.9443-.5941.5422-1.2078,1.0652-1.845,1.5729-.0973.0777-.1319.2117-.0845.3263.4561,1.1145.7044,2.2813.7475,3.4976,0,.0519.0541.0865.1037.0669.8039-.3217,1.571-.7149,2.3012-1.1817.0108-.0066.0777-.0408.2007-.1035.1686-.0845.2766-.2378.3263-.4626.0303-.1403.1686-.231.3089-.2007.2398.0496.3566-.0388.3501-.2682-.0023-.0688.0346-.1272.0907-.1423.2356-.0626.3305.0712.2852.4017-.08.5834-.1599.9615-.2376,1.1322-.1641.3608-.1924.7475-.0822,1.1644.0304.1123.0173.2313-.0323.3351-.2052.4343-.3804.8425-.5272,1.2271-.1426.3694-.3283.6633-.5573.8793-.2744.2591-.5684.4969-.8773.7152-.4862.3436-.7929.5638-.9205.6653-1.2421.9896-2.4953,1.9684-3.7547,2.9361-.3651.2832-.8232.7044-1.372,1.2682-.5553.5704-1.0738.9766-1.5579,1.2209-1.6095.8056-2.9597.5789-4.0507-.6851-.106-.1208-.214-.2872-.3263-.5012-.093-.1794-.1925-.3543-.2982-.5272-.1448-.2398-.1925-.4363-.1426-.5919.0734-.2202.2614-.3651.5638-.4365.3782-.0885.819-.2764,1.3224-.5596.3067-.1749.6979-.445,1.171-.8144,1.1256-.875,2.2793-1.724,3.4631-2.5472.2701-.1879.3869-.4473.3501-.7778-.1211-1.078-.404-2.2037-.847-3.3727-.0301-.0819-.1338-.11-.203-.0561-.9008.6979-1.8558,1.3416-2.867,1.9315-.3866.2268-.7908.2594-1.2098.093-1.4023-.5511-2.1994-1.573-2.3961-3.066-.0085-.0626.0281-.123.0864-.1488,1.7998-.7432,3.5023-1.7198,5.1033-2.9276.3044-.229.4558-.5338.4558-.9139.002-.8405-.1015-1.7155-.3113-2.6294-.0972-.4212-.3325-.525-.7086-.3132-.6069.3435-1.2575.4257-1.9551.2505-.0692-.0172-.1383-.0172-.2098-.0019-1.3546.3089-2.4369-.0995-3.2451-1.2252-.2979-.4147-.4407-.8946-.4297-1.4411.0062-.2656.1296-.4581.3694-.5746.2613-.1275.5465-.2225.8577-.2852.5358-.106.8297-.1686.8816-.1836.849-.2464,1.5489-.5488,2.1042-.9074,1.0111-.6548,2.0029-1.3374,2.9729-2.0503.9312-.6829,1.6353-1.1302,2.1172-1.3397.3867-.1664.832-.2117,1.3397-.1318.1253.0196.3413.0304.6503.0369.231.0042.4473.0626.648.1726.0283.0153.1491.0692.3673.1621.1514.065.2506.1837.296.3544.0195.0734.0626.1318.1187.1533.2574.0995.5035.0822.7433-.0538.0519-.0304.0734-.0973.0519-.1599-.1384-.4107-.0647-.7693.2182-1.0783.0496-.0516.08-.1142.0887-.1814.0927-.739.4839-1.266,1.173-1.5792,1.4497-.6633,2.8066-1.1041,4.0683-1.3266,1.0607-.186,2.0049-.4796,2.8324-.8793.4904-.2356.7367-.3543.741-.3566,1.5383-.6849,3.1178-1.2532,4.7381-1.7068.2463-.0691.6137-.2551,1.0998-.5553.1772-.108.3801-.151.6114-.1275.2526.0238.4516.0368.5962.0346.5595-.0063,1.0026.2335,1.3331.7151.2636.3847.5791.5857.9462.6007.3198.013.5015.1772.5445.4949.1577,1.186.2464,2.3655.2637,3.5388.0065.4947-.0649,1.0327-.2183,1.616-.3801,1.467-.6633,2.9535-.847,4.4595-.03.2483-.123.553-.2809.9139-.2441.5573-.3175,1.1514-.2245,1.7844.0108.0714,0,.1426-.0303.2052-.2356.4992-.3629,1.0242-.3824,1.5752-.0023.0735-.0324.1404-.0842.1834-.3524.294-.754.4431-1.2079.4451-.4946.0022-.7494.0022-.769.0045-.5165.0519-1.0327.1123-1.5469.1792-.0626.0088-.121.0476-.1579.108l-.4816.8146c-.0391.065-.0584.0584-.0606-.0195-.0043-.3521-.1103-.6999-.3155-1.0457-.0366-.0604-.0496-.1296-.0366-.1987.0411-.2203.0216-.43-.0626-.6287-.0261-.0604-.093-.0908-.1491-.0647-.1534.0689-.1902.2203-.1126.4536.3047.9311.538,1.8473.6979,2.7482.0261.1513.1925.2332.3308.1663.9201-.4515,1.8601-.7886,2.8216-1.0133.0669-.0151.0754-.0474.0216-.0927-.2895-.2486-.2118-.3762.231-.3782.0626,0,.121-.0388.1491-.0995.0972-.2094.2486-.2678.4538-.1729.1922.0887.324.1406.3932.1514.9246.1706,1.8581.2679,2.8.2959.3544.0108.4148.0715.1815.186-.0411.0193-.0907.0346-.1534.0473-.6633.1449-.7194.4085-.1706.7909.0365.0238.0323.0799-.0088.1037-.1772.0992-.2809.2526-.3133.4581-.0107.0777-.043.1426-.0884.1792l-.4927.3931c-.0453.0369-.0626.0995-.0411.1556.065.1687.0216.3113-.1318.4258-.0365.0281-.0842.0777-.1425.1534l-.2464.3174c-.0346.0454-.1057.0715-.1879.0735-1.1276.0087-1.8581.0714-2.1886.1879-1.1039.3889-2.2145.7648-3.3271,1.1279-.0757.0258-.1168.0972-.0822.1383.0323.0366.0973.0389.1967.0043.3606-.1253.5769-.0995.648.0799.2767.6891.4408,1.3805.495,2.0764.015.203.2072.3478.4059.3044,1.4238-.3044,2.8023-.6718,4.1355-1.0975.5249-.1684,1.2962-.2591,2.3116-.2699.2702-.0023.5942.0454.9723.1446.2137.0561.432.1017.6525.136.2311.0369.4451.0953.6373.1752.3305.1361.6675.2614,1.0068.3716.3045.1015.6307.2418.9766.4213.6414.335,1.3178.5768,2.033.7282.0711.015.1295.0581.1598.1165.1231.2441.0669.3478-.1729.3155-.1445-.0196-.244-.0216-.3002-.0023-.0995.0304-.1879.0845-.2658.1599-.0497.0499-.11.0822-.1772.0952-.2614.0519-.2829.1945-.0692.4298.0995.108.0238.2962-.1488.3651l-.8212.3262c-.0538.0219-.0757.0888-.0473.1472.2506.5034.2936,1.0284.1315,1.5706-.017.0604-.0754.1015-.1403.0973-.8362-.0542-2.0741-.2291-3.714-.5208-.7648-.136-1.6095-.1729-2.5364-.106-.6718.0499-1.4973.2118-2.4758.4884-3.3792.9528-5.3949,1.5684-6.0474,1.8451-2.3658,1.0046-4.7962,1.804-7.2938,2.3981-.4258.1015-.7886.0953-1.0934-.0173-.5422-.2009-.9873-.553-1.3351-1.0522-.2982-.4277-.3155-.8013-.0519-1.1211.0649-.0779.188-.0672.2376.0215.1145.2095.2248.324.3308.3479.0538.0107.1015-.0477.0949-.1168-.0368-.4731.0258-.9224.188-1.3482.0108-.0258.0108-.0519.0022-.0777-.1836-.5833-.1255-.7367.1749-.46.0584.0538.1211.0862.1837.0949.3198.0454.5896-.0453.8079-.2766.013-.0128.0714-.0519.1752-.1188l.4147-.2636c.0499-.0323.1103-.0303.1468.0045.1364.1273.309.1554.523.0819.5227-.1794.9397-.3543,1.2509-.5249.4646-.2549.9616-.4085,1.4908-.4601.2183-.0238.7713-.2767,1.6636-.7605.2787-.1514.4882-.3459.6242-.5857.0975-.1706.186-.3455.2637-.5269.0756-.1752.106-.3631.0929-.5684-.0346-.5683-.1037-1.1644-.2075-1.7847-.0192-.1165-.1468-.1791-.2525-.1253-1.1172.5899-2.219,1.1364-3.31,1.6399-.4082.1879-.7541.2421-1.035.1621-.4385-.1253-.6999-.4365-.7821-.9312-.0388-.229-.0042-.4946.1061-.7973.0927-.2591.1941-.5162.3001-.7691.1319-.3175.3371-.6503.6157-1.0003.2441-.3133.4777-.633.7002-.9613h0ZM133.9384,26.2069c-.0088.1511-.0476.2936-.1145.4277-.0993.1945-.0411.2721.1729.2353.4688-.0819.9397-.1511,1.413-.2072.0735-.0088.1446.0042.203.0388.2721.1622.4969.3736.6764.6395.1295.1922.2137.1749.2505-.0538.2053-1.3051.2614-2.6317.1664-3.9799-.0088-.1361-.1383-.229-.2616-.1879l-2.5838.8597c-.1944.0649-.2939.2875-.2225.495.2268.659.3263,1.2378.3002,1.7328h0ZM128.9151,26.0317c-1.3697.2701-2.7329.4235-4.0876.4558-.0756.0023-.1275.0757-.0994.1448l1.3504,3.5c.028.0692.1057.1018.1749.0714l3.2646-1.4173c.0604-.0258.093-.0884.08-.1514l-.5468-2.5169c-.0128-.0603-.0734-.0995-.1361-.0864h0ZM122.7492,28.0539c.2698.095.3263-.0411.1706-.4082-.0606-.1406-.2313-.1944-.3608-.1145-.6222.3889-.6287.5531-.0173.4947.0649-.0066.1341.0022.2075.028h0ZM135.6193,29.0478l-1.3958.5422c-.0626.0261-.0949.093-.0691.1514l.119.2744c.0278.0649.0258.1318-.0045.1814-.2937.4754-.2894.9507.0153,1.4281.0366.0584.1015.0865.1641.0757l1.3028-.2571c.0627-.0131.1165-.0607.1404-.1276.2766-.7886.4084-1.601.3954-2.4392-.0065-.417-.1361-.4946-.3912-.229-.0711.0757-.123.1621-.1533.2613-.0193.0649-.0647.1145-.1231.1384h0ZM129.9393,31.5519l-2.6575,1.3566c-.1338.0692-.1576.2529-.0474.3651.3759.3805.6653.834.8706,1.3635.1425.3674.3631.4473.6633.2421l1.3892-.9508c.1296-.0887.1707-.3197.1211-.6891l-.2163-1.6225c-.0085-.0584-.0712-.0907-.123-.0649Z" fill="#073a7a" fill-rule="evenodd" stroke-width="0"/><path d="M195.472,45.0768c-1.0176-.6525-2.1345-1.0176-3.3488-1.0976-.1857.0497-.2226.1599-.108.3326.2182.1014.4212.0779.6091-.0755.0564-.0453.0692-.0368.0369.0281-.1361.2829-.3521.2982-.646.0474l-.6395-.4862c-.6503-.0711-1.0803-.1488-1.2921-.229-.1468-.0581-.1338-.1576.0411-.3022-1.385-.2701-2.772-.5165-4.1655-.739-.1102-.0196-.214-.0281-.3109-.0303-.8513-.0108-.8535.136-.0065.445.2613.2356.566.3782.9096.4235.2571.1707.5658.2982.9266.3782,2.0611.46,3.7897.8231,5.1855,1.0887.1057-.0864.1145-.1814.0215-.2871-.0388-.0434-.0541-.0972-.0411-.1406.0411-.1273.0907-.0972.1491.0864l1.8147.5942c.0757-.0131.1318.0088.1707.0626l.6395.2248c.0734-.0303.1125-.0864.1168-.1706-.0411-.0434-.0627-.0953-.0627-.1534h0ZM177.4508,41.1143c-.004.0711-.2285.121-.5006.108-.2724-.0128-.4907-.082-.4879-.1557.0037-.0711.2285-.1207.5003-.108.2724.0131.4907.0823.4882.1557h0ZM196.6149,45.5c.3782.0153.6288.1925.7475.5315.0973.0477.1664.1191.2033.214.0258.0692.0711.1231.1253.1449l2.5427,1.065c.0626.0261.134.0323.2055.0173.4039-.0888.7863-.0431,1.1472.136.0583.0304.0949.0907.0992.1599l.0561,1.2013c.0045.08-.0281.1469-.0777.1707l-.7821.3458c-.0691.0323-.1187.0799-.136.1295-.106.3371-.2486.6568-.4323.9616-.0108.0192-.0516.1057-.123.259-.093.2053-.2421.2033-.4473-.0042-.0496-.0519-.1165-.0777-.1815-.0712-.5507.0516-.9657.3283-1.2421.8317-.1687.3047-.4192.404-.7498.296-.2094-.0669-.443-.1188-.7001-.1534-.2636-.0368-.4927-.093-.6891-.1729-.8059-.322-1.6183-.618-2.4392-.8924-.0108-.0019-.62-.229-1.8255-.676-.7413-.2744-1.571-.4949-2.4934-.6591-1.4196-.2528-2.2663-.3954-2.5387-.4235-.6503-.0711-1.2918-.1856-1.925-.3413-.9743-.2378-1.6073-.3866-1.8947-.445-.6568-.1318-1.3116-.2786-1.9618-.4385-.0692-.0173-.1404-.0131-.2073.0127-.5813.2141-1.0502.3286-1.411.3393-.3824.0131-.6911.1038-.929.2722-.0473.0346-.0907.0952-.121.1686-.1273.322-.3543.5423-.6826.6611-.0649.0215-.136.0195-.2029-.0065-.8493-.3391-1.4154-.955-1.6983-1.8429-.0368-.1167-.136-.2032-.2551-.2247-.6415-.1188-1.2898-.1664-1.9443-.1426-1.2424.0453-2.4845.093-3.727.1426-.6718.026-1.5015.1814-2.4888.4688-.8773.2551-1.5018.3631-1.8711.3263-.7929-.0777-1.4627-.4538-2.0135-1.1279-.0411-.0519-.106-.0862-.1772-.0973-.322-.0453-.4904-.2225-.5099-.5315-.0043-.0581.0215-.123.0734-.1814.1449-.1598.216-.3435.214-.553-.0022-.231-.0045-.3521-.0022-.3586.028-.322.0518-.646.0691-.968.0669-1.2725.6871-2.1045,1.8624-2.4931.0714-.0238.1165-.0822.1103-.1406-.0046-.0539-.0219-.1037-.0542-.1511-.0388-.0541-.0473-.121-.0215-.1752.0929-.1987.0776-.3909-.0411-.5745-.0431-.0692-.0604-.1384-.0477-.1922.0411-.1491.1426-.2271.3005-.2336.0777-.002.1857.0281.324.093.631.2959,1.2986.4169,2.005.3631.0649-.0045.1252.0323.1491.0907l.0345.0842c.0216.0519.0692.0884.1253.093.5142.0388,1.0262.0303,1.5361-.0281.7756-.0865,1.169-.1298,1.1798-.1318.6307-.0411,1.0262-.0454,1.1883-.0088.5768.1276,1.1557.1514,1.7413.0672.5726-.08.9139-.0346,1.0262.136.0626.0927.0671.1684.013.2268-.0346.0369-.093.0561-.1772.0584-.2701.002-.538-.013-.8036-.0453-.0995-.0131-.3651-.0304-.7974-.0499-.3155-.0151-.6179-.095-.9051-.2353-.0737-.0346-.1448-.0519-.2075-.0476l-2.2124.1967c-.0777.0062-.1446.0408-.1837.095-.0712.0994.0065.1491.2378.1468.309-.0023.6157-.0323.9182-.0927.0776-.0153.1491-.0088.2075.0193.2202.106.151.1879-.2053.2463-.5034.0799-.5014.1511.002.2117.9292.1123,1.8539.1166,2.7743.0108.633-.0734,1.1687-.0907,1.6072-.0519,1.0177.0885,2.0503.1903,3.1026.3048.1556.0173.2982-.0845.3305-.2356.0606-.2852.2097-.5012.445-.6503.0542-.0345.0822-.0995.0714-.1621-.0365-.2137-.0258-.4062.0369-.5811.4277-1.2033.877-2.5387,1.3482-4.0034.1057-.3328-.0131-.4668-.3566-.3997-.0842.0173-.2356.0712-.4581.1599-.0108.0043-.1188.0584-.324.1641-.201.1015-.4085.1384-.6245.1146-.3651-.0411-.5681-.0627-.6092-.0607-.5207.0153-1.0437.0111-1.5687-.0173-.8424-.0431-1.508-.4235-1.9984-1.1426-.1576-.2336-.2829-.4281-.3716-.5834-.0065-.013-.1015-.1514-.2852-.4127-.1491-.2095-.1814-.4558-.0992-.7368.0301-.106-.0088-.2182-.0995-.2809-.4039-.2829-.5077-.6395-.309-1.0695.0346-.0757.1061-.1684.216-.2809.1146-.1188.1795-.2202.1925-.3087.1726-1.2143.4017-2.4177.6891-3.6082.015-.0604.0669-.106.1338-.121.2055-.0454.3393-.1664.4062-.3651.0196-.0604.078-.0973.1364-.0908,2.2855.3068,4.5802.5012,6.8833.5811,1.1211.0389,2.2468.0888,3.3724.1469,1.1257.0584,2.2513.091,3.3769.0952.0108,0,.4085-.0303,1.1906-.0907.5508-.0434,1.0757.0366,1.5772.2376.4212.1686.8447.4665,1.2682.8966.6999.7109,1.2294,1.506,1.5857,2.3853.0887.216.0496.4235-.1165.6245-.0411.0496-.0541.1165-.0346.1769l.3932,1.1236c.0496.1446-.0757.2917-.2291.2656-.3651-.0626-.5791.0627-.646.3759-.013.0692-.0519.1276-.108.1644-.201.1318-.3673.3002-.4992.5012-.0303.0453-.0907.0776-.1664.0884l-.352.0499c-.0539.0085-.108.0604-.1406.1361-.0734.1706-.2007.2721-.3801.3047-.2399.0453-.3651.0689-.3782.0734-.0992.0346-.1987.0712-.2979.108-.1018.0388-.2055.0561-.309.0519-1.182-.0476-2.3615-.0561-3.541-.0238-.0627.0022-.1126.0496-.1191.1122-.1037.9919-.2721,1.6832-.5034,2.0784-.7668,1.3073-1.3847,2.757-1.8559,4.3472-.0323.1145.0434.2288.1599.2441,2.4999.3109,5.0018.7886,7.5059,1.4346,1.281.3305,2.3244.6999,3.1303,1.1041.2052.1034.3739.1684.5014.1922.0865.015.1511.0411.1945.0734.2483.1856.1641.2333-.2509.1445-.0626.0066-.1165.0304-.1618.0715l.6567.2613ZM196.6149,45.5l-.1031.0638c.047.002.0813-.0181.1031-.0638h0ZM200.2399,50.0545c.0629-.0562.0502-.1749-.0289-.2637-.0788-.0884-.1953-.1145-.26-.0561-.0629.0561-.0498.1749.029.2636.0788.0885.1955.1146.2599.0562Z" fill="#073a7a" fill-rule="evenodd" stroke-width="0"/><path d="M128.658,40.4144c-.0323.03-.0689.0473-.108.0539.0391-.1231.0065-.1922-.0992-.2073.2483-.458.3175-.4064.2072.1534Z" fill="#809fc7" fill-rule="evenodd" stroke-width="0"/><path d="M85.5062,54.7991c-.1814-.106-.3781-.1406-.5876-.1018-.0692.0131-.1384-.002-.186-.0453-1.199-1.065-2.2943-2.2232-3.2904-3.4719-.6242-.7821-1.2076-1.4649-1.7544-2.046-.8014-.8533-1.5707-1.7349-2.3051-2.6487-.3739-.4624-.6806-.8037-.9204-1.0242-.3632-.3328-.7302-.6114-1.1019-.8382-.5575-.3413-.9181-.2333-1.0803.3263-.0172.0603-.0756.0972-.134.0864-.6546-.1253-.9635-.4754-.9289-1.0479.0323-.5358.0476-.8275.0476-.8728.0085-.5381.1856-1.0523.5292-1.5449.3566-.5077.7929-.849,1.3136-1.0196.337-.1103.8577-.1945,1.5641-.2529,1.4412-.1188,2.6056.4428,3.498,1.681.3608.5034.7152,1.0111,1.0587,1.5273.6288.9442,1.3244,1.83,2.0914,2.6555.4558.4904,1.2422,1.2917,2.3636,2.4066.7886.7843,1.6959,1.6205,2.7221,2.5083,3.1867,2.759,6.084,5.639,8.6961,8.642,1.184,1.3635,2.3247,2.5798,3.42,3.6536.3739.3651.6137.7172.7174,1.0522.1319.4213.1772.8598.1404,1.3156-.0063.0649-.0431.1256-.1038.1621-.3305.2053-.4513.495-.3671.8686.0173.0734-.0045.1448-.0541.1749l-.1837.1145c-.0516.0326-.0734.093-.0516.1426.0884.2182.0627.4277-.0779.6332-.2203.3175-.4882.5876-.8017.8122-.2137.1536-.2894.3285-.2245.5252.0411.1273,0,.1684-.1253.1188-.6894-.2679-1.3396-.3025-1.9533-.1038-.188.0604-.4125.1857-.6761.3739-.2117.1511-.4258.3002-.6418.447-.2182.1492-.4169.1426-.6006-.0172-.0474-.0411-.1123-.0647-.1837-.0647h-.1661c-.0692,0-.0822-.0326-.0391-.0972l.5921-.9011c.1469-.2226.0907-.2895-.1706-.203-.7824.2571-1.5038.633-2.1629,1.1234-.0518.0388-.0992.0669-.1448.0844-.1964.0754-.2353.0193-.1165-.1663.0261-.0411.0626-.0823.1103-.1191.4838-.3694.4127-.5054-.216-.4124-.0499.0065-.091-.0411-.0757-.0888.0711-.2398.1791-.4189.3217-.5422.5661-.4862,1.1625-.9397,1.7912-1.357.3348-.2222.3436-.4558.0258-.7021-.3175-.2441-.5746-.5077-.7733-.7906-.2571-.3609-.5488-.6891-.875-.9853-.1795-.1642-.309-.3371-.3889-.5162-.0735-.1687-.1404-.3416-.203-.5165-.0238-.0669-.0649-.1253-.1191-.1684-.5853-.4668-.998-.8492-1.2401-1.1494-1.8924-2.3312-3.8758-4.5825-5.9499-6.7538-.0346-.0369-.0477-.1038-.0324-.1772l.095-.525c.0108-.0606-.0258-.1275-.0907-.1641h0ZM95.7631,69.5163c.0337.0346.1287-.0085.214-.0927.0853-.0865.1284-.1814.095-.214-.0335-.0346-.1285.0088-.2138.093-.0853.0864-.1287.1814-.0952.2137Z" fill="#073a7a" fill-rule="evenodd" stroke-width="0"/><path d="M128.658,40.4144c.0303.0062.0476.0235.0541.0539-.0756.0714-.1252.1598-.1513.2701-.0108.0476-.0258.0842-.0474.1122-.1491.188-.1967.1492-.1383-.1165.015-.0691.0734-.1578.1749-.2658.0391-.0066.0757-.0239.108-.0539Z" fill="#809fc7" fill-rule="evenodd" stroke-width="0"/><path d="M237.6646,74.9373c-.0842.0518-.1381.123-.1619.216-.1406.2202-.3328.2505-.5768.0884-.3005-.201-.3912-.1857-.2702.0411.0196.0369.0519.0842.0973.1383.3651.4428.3024.6806-.1902.713-.0669.0065-.1361-.0173-.1922-.0627-1.8905-1.5231-3.8523-2.9642-5.8876-4.3276-.1706-.1143-.4039-.0735-.525.0929-1.0476,1.4239-2.1367,2.7808-3.2666,4.0663-.5553.633-.8858.9893-.9916,1.0693-.4104.3047-.9031.4407-1.4799.4084-.108-.0065-.3521.0454-.7325.1511-.3002.0845-.5465.1191-.7367.0995-.5077-.0496-1.035-.2594-1.5815-.6287-.7109-.4774-1.6291-1.2164-2.7547-2.2144-.3455-.3048-.5984-.5899-.7563-.8513-.1122-.1837-.1706-.2789-.1749-.2851-.7843-1.1668-1.5361-2.3551-2.2555-3.5629-.3132-.525-.4538-1.0111-.417-1.4584.0043-.0582.0604-.0993.1188-.0842.4516.119.631.4212.5338.9073-.0392.1902.0538.3824.2267.4689.296.1491.3436.2939.1426.4343-.0496.0368-.0649.1017-.0323.1448.1684.2268.4297.4212.7841.5834.0779.0346.1102.0085.0995-.0757-.1211-.8858-.3674-1.6333-.7368-2.2448-.026-.043-.0346-.1122-.0215-.1944l.0907-.6418c.0108-.0754.0454-.136.0907-.1533.1707-.0627.3067-.0238.4127.1168.0346.0453.0539.1165.0539.2009.0023.6718.3263,1.1968.9723,1.5707.1729.0992.2248.0519.1533-.1426l-.2701-.7432c-.0258-.0692-.0043-.1449.0519-.1752.0929-.0496.1686.013.2313.1902.1598.4623.5099.9031,1.0479,1.3224,1.2853,1.0003,2.6552,1.8708,4.1091,2.6121.0627.0323.1361.0408.1987.0215.3416-.1017.631-.2917.8666-.5706.5681-.6718,1.1752-1.3609,1.8213-2.0653.0476-.0519.0756-.121.0734-.1922-.0108-.3436.1168-.6072.3804-.7886.1207-.0842.1295-.2571.0193-.3543-.3867-.3305-.8102-.6157-1.2748-.8578-1.3547-.7021-2.7371-1.3481-4.1437-1.938-.4776-.1987-.8166-.432-1.0221-.6979-.3002-.3909-.4882-.8447-.5658-1.3632-.0627-.4105-.1883-.7974-.3782-1.1625-.0238-.0453,0-.1015.0519-.1165l.2526-.0734c.0626-.0196.1037-.08.1017-.1471-.0153-.3391-.136-.6438-.3588-.9139-.1058-.1273-.0669-.1945.1167-.1987.0627-.0023.1188-.0389.1449-.0973.093-.2072.2483-.3412.4666-.4016.0757-.0219.1383-.0607.1771-.106.2484-.2917.3824-.6288.3977-1.0112.002-.0669.0451-.123.1058-.1403.5445-.1536.6287.0604.2548.646-.0408.0627-.013.1446.0542.1661l.9116.2767c.0541.015.0952.0669.1015.1296l.0303.2766c.0065.0584.0541.1165.1233.1534,2.1994,1.1732,4.3835,2.4587,6.5526,3.8565.2659.1707.4972.1123.6936-.1749l.51-.7478c.1275-.1879.2052-.1618.2332.078.08.6956.2333.739.4601.1273.0845-.2268.1536-.4102.2098-.5508.0992-.2483.2137-.2571.3455-.0216.3912.7022.8924.7929,1.5018.2764.0366-.0323.0278-.0927-.0195-.1122-.8578-.3544-1.7306-.6699-2.6164-.9443-.5511-.1706-1.0262-.3412-1.4304-.5076-.4666-.1922-.9332-.3867-1.4-.5834-.6891-.2872-1.2983-.8294-1.8255-1.6291-.0757-.1188-.106-.2613-.0822-.3997.1922-1.106.8382-1.6333,1.9338-1.5791.0756.0042.1879-.0108.3347-.0434.188-.0408.296.0391.3198.2401.0173.1488.0411.2353.0734.2591.0757.0541.1879-.0131.3416-.201.11-.1361.2591-.2075.3931-.1879l.8059.121c.0669.0088.1296-.013.1642-.0604.2009-.2701.4104-.2336.6287.1057.1576.2484.3736.4301.6437.5488.8686.3759,1.6787.7952,2.4327,1.2575.0196.0108.3824.216,1.0911.6179.3781.2138.7282.4666,1.0545.7541.123.1099.3651.2894.7259.54.2398.1663.4623.3781.6653.6394.1902.2441.309.2118.3566-.0926.0884-.5707-.0023-1.0134-.2724-1.3289-.0862-.1015-.4297-.3263-1.0327-.6741-1.7283-.9981-3.4976-1.9185-5.3061-2.759-.5338-.2483-1.1472-.5918-1.8451-1.0306-.726-.4578-1.48-.8621-2.2643-1.2141-.862-.3867-1.4173-.6526-1.6634-.7974-.5034-.2979-1.0111-.646-1.5233-1.0412-.1318-.1017-.3067-.1295-.4646-.0734-1.2552.447-2.5818.8252-3.9773,1.1364-.186.0408-.3651.0992-.5403.1749-.0604.0261-.1318.0303-.2007.0131l-1.4519-.389c-.0737-.0195-.1298-.0669-.1514-.1233l-.2245-.6049c-.1686-.4578-.227-.7775-.1752-.9592.2895-1.0004.8255-1.8363,1.6053-2.5104.0496-.0411.1188-.0649.1922-.0626.2355.0062.4561-.0369.6656-.1276.2982-.1275.5034-.2052.6156-.2313.3328-.0777.6611-.1726.9831-.2871.3175-.1126.646-.186.9853-.2226,1.05-.1102,2.0503-.4019,2.9988-.8708.0519-.0258.1145-.0042.1361.0496.4147,1.061.5422,2.1541.3824,3.2797-.0088.0627.0238.1253.0799.1537l2.4953,1.2682c.0542.0258.1188.002.1426-.0519.1253-.2962.1579-.6483.0953-1.0567-.0131-.082.015-.1662.0754-.2268.8231-.7971,1.5491-1.6203,2.1821-2.4715,1.0391-1.3936,2.0137-2.8324,2.9276-4.3147.525-.8535.7843-1.7824.7755-2.7912-.0019-.186.0389-.3632.1211-.5296.1253-.2571.3024-.3001.5292-.1295.2271.1707.4581.337.6894.5034.2744.1965.4689.3955.5854.6007.4257.7517.3285,1.4519-.2917,2.1022-.7064.741-1.2141,1.3739-1.5188,1.8989-.4386.752-.8555,1.5146-1.2552,2.2904-.7671,1.4885-1.616,2.9534-2.5472,4.39-.0411.0627-.0261.0865.0473.0712.4431-.097.7931-.3175,1.0502-.6631.2679-.3588.5315-.7217.7886-1.0868.2353-.335.5097-.6891.821-1.063,1.0737-1.2897,2.0026-2.679,2.7827-4.1677.002-.0085.188-.417.5551-1.2272.2616-.5788.5921-1.1168.9895-1.616.2313-.2894.3889-.5618.4711-.8189.0973-.3067.1792-.6177.2418-.9354.1038-.5162.3609-.8578.7694-1.0219.337-.1361.7044-.093,1.1041.1318.9439.5337,1.4193,1.4,1.4235,2.6033.0023.1253.0088.2506.0196.3782.0042.0541-.015.1233-.0539.1967l-.6267,1.1622c-.0258.0476.0108.1037.0691.108,1.5534.1037,2.4823-.5789,2.7893-2.0461.0281-.1338.0885-.244.1707-.3087l1.3504-1.0848c.0454-.0365.1145-.0173.1511.0391.7259,1.1211,1.1256,1.8601,1.1968,2.2167.091.4516.0045.8728-.2591,1.2595-.1318.1967-.0842.2959.1468.2982l.6526.0107c.0757.0023.1448.0196.2029.0542.279.1661.5641.3197.8558.46.3997.1922.6676.3632.8059.5143.3651.3996.5012.8988.4082,1.4972-.0085.0627-.0411.1253-.095.1794-.2874.3002-.244.5897.1318.8706.7733.5768,1.5361,1.0111,2.2879,1.2985.0691.0258.1406.0303.2052.0085.1729-.0581.3285-.1491.4669-.2721.0496-.0431.1187-.0519.1706-.0215.309.1879.5811.4127.8167.6783.2245.2528.3716.5618.4385.9246.3178,1.7178-.3478,2.9838-1.9964,3.7982-.5962.2939-1.4432.8881-2.5385,1.7824-1.8992,1.5469-3.8653,3.0983-5.9003,4.6539-.0887.0669-.0952.1987-.013.2744.8662.8014,1.722,1.5554,2.5668,2.2621.6933.5811,1.1687,1.0692,1.4258,1.4646.3824.5879.6483,1.2294.7971,1.925.093.4388.0519.8297-.123,1.1691-.2656.5119-.6699.8793-1.2121,1.1018-.3456.1403-.726.1468-1.1407.0215-.6676-.201-1.2444-.4992-1.7348-.8943-.631-.5122-1.1237-.8858-1.4757-1.1237-1.0653-.7149-2.0653-1.4927-2.9988-2.3289-.1533-.1383-.3932-.1168-.5184.0476-.1234.1576-.281.2656-.4712.324-1.385.4235-2.2881.6438-2.7048.6633-.659.0301-1.3785.1296-2.1586.3002-.1491.0326-.1598.0887-.03.1729,1.5707,1.0177,3.0333,2.1045,4.3923,3.2647.0107.0108.2506.2007.7171.5723.5811.4669,1.1192,1.0587,1.6141,1.7762.0626.0884.0388.1273-.0692.1122l-1.0176-.1406c-.1276-.0192-.1426.0173-.0411.1103l.3608.3263c.0627.0561.0562.1576-.015.216-.2701.2225-.5511.3739-.8385.4496-.0626.017-.0992.0776-.0754.1272.0193.0411.0496.08.0862.1126h0ZM236.8805,51.971c.0692-.3651.0757-.6483.0193-.8535-.1338-.4882.0088-.8383.4277-1.0477.0627-.0326.1168-.0757.1622-.1341l1.5534-1.9057c.0541-.0669.0303-.1642-.0474-.1922-.7951-.2875-1.5083-.1426-2.137.43-.8059.7344-1.6699,1.9012-2.5926,3.4999-.028.0496-.0085.1145.0434.1384.9354.443,1.9205.6114,2.9554.5057.0564-.0046.0887-.0627.0626-.1103-.0754-.1296-.1964-.2033-.3585-.2206-.0584-.0065-.0973-.0581-.0885-.1099h0ZM246.067,49.9249c-.3651-.1406-.7174-.2917-1.061-.4515-.0062-.0023-.138-.078-.3974-.2226-.3608-.2052-.7129-.2097-1.0522-.0107-.4601.2698-.9139.5768-1.3612.9204-.0473.0365-.0539.108-.015.1533.4819.5508.877,1.1322,1.1905,1.7479.1707.3347.3283.5746.4709.7194.2052.2052.4342.3824.6913.5292.5295.3048,1.0761.6849,1.6399,1.141.0714.0581.1729.0581.2398.002l1.2943-1.0542c.0927-.0757.0949-.2183.0065-.3048-.8665-.8362-1.3224-1.7628-1.37-2.7847-.0085-.1729-.1165-.322-.2764-.3847h0ZM232.7453,55.2807c.3068.1534.5077.417.6004.7931.093.3759.2962.4816.6095.3152l.9657-.5076c.0777-.0411.0712-.0647-.0195-.0692-.8966-.0539-1.6464-.4039-2.249-1.05-.0434-.0453-.1146-.0476-.1491-.0022l-.8147,1.0695c-.0604.0799-.0343.1967.0564.2421l1.093.5507c.2271.1146.2637.0692.108-.1403-.2591-.3478-.3651-.7279-.3155-1.1406.0066-.0542.065-.0865.1148-.0607h0ZM242.2278,54.9524l-1.048,1.0457c-.0603.0604-.0473.1642.0281.2095.4603.2787.9162.5661,1.3677.8598.0108.0065.0669.0499.1707.1298.2009.1534.3889.1361.568-.0561.0457-.0499.1018-.093.1687-.1253.1706-.0845.2851-.2098.3435-.3804.0193-.0539-.0153-.1145-.0756-.1384-.633-.231-1.035-.7149-1.2079-1.4519-.0516-.2202-.1576-.2505-.3152-.0927h0ZM237.2003,59.1934l1.8255,1.1559c.0604.0389.1341.0389.1814.0023l1.4088-1.0933c.08-.0627.093-.1814.0281-.2744-.1814-.2614-.415-.4796-.7002-.6545-.123-.0757-.216-.1599-.2806-.2552-.0737-.1057-.1449-.216-.2118-.3262-.0433-.0712-.1383-.0907-.2117-.0454l-2.0375,1.2986c-.0712.0453-.0712.1468-.002.1922h0ZM219.6396,62.2528c.1038-.0887.1231-.216.0604-.3824-.0215-.0607-.0864-.093-.1491-.0757-.2656.0757-.2917.2248-.0799.4431.0476.0496.121.0561.1686.015h0ZM238.5915,65.2666c.832.3674,1.7328.6395,2.7029.8166.4039.0737.4623-.0345.1706-.3259-.6588-.6591-1.3482-1.3485-2.0676-2.0679-.3348-.3348-.7843-.5443-1.3501-.633-.0715-.0108-.1364-.0411-.1883-.0884-.3693-.322-.4362-.2679-.1964.1641.0323.0584.0539.1168.0669.1794.0777.3629.1729.7821.2852,1.2595.0779.3262.2701.5595.5768.6956h0ZM238.7622,66.4937c.1706.0995.3954.1687.674.2098.1426.0192.1687-.0261.078-.1361-.2832-.3478-.6202-.6094-1.0157-.7886-.1145-.0519-.1553-.0173-.123.1057.08.3048.2095.5077.3867.6092Z" fill="#073a7a" fill-rule="evenodd" stroke-width="0"/><path d="M190.1247,43.2944c-.1749.1446-.1879.2441-.0411.3022.2118.0802.6418.1579,1.2921.229l.6395.4862c.2939.2508.5099.2355.646-.0474.0323-.0649.0195-.0734-.0369-.0281-.1879.1534-.3909.1769-.6091.0755-.1146-.1727-.0777-.2829.108-.3326,1.2143.08,2.3312.4451,3.3488,1.0976,0,.0581.0216.11.0627.1534-.0043.0842-.0434.1403-.1168.1706l-.6395-.2248c-.0389-.0538-.095-.0757-.1707-.0626l-1.8147-.5942c-.0584-.1836-.108-.2137-.1491-.0864-.013.0434.0023.0972.0411.1406.093.1057.0842.2007-.0215.2871-1.3958-.2656-3.1244-.6287-5.1855-1.0887-.3608-.08-.6695-.2075-.9266-.3782-.214-.3628-.5165-.5034-.9096-.4235-.847-.309-.8448-.4558.0065-.445.0969.0022.2007.0107.3109.0303,1.3935.2225,2.7805.4689,4.1655.739Z" fill="#fff" fill-rule="evenodd" stroke-width="0"/><path d="M70.5662,71.2188c-.1945-.3283-.2506-.3067-.1687.0672.3654,1.6656-.0453,3.0787-1.2333,4.2409-.1622.1579-.3546.2486-.5791.2701-.4516.0431-.9119-.0496-1.3805-.2767-.4669-.2267-.9269-.4665-1.3785-.7194-.0108-.0062-.1579-.0754-.4431-.2072-.3736-.1729-.5941-.4581-.661-.8535-.0822-.4927-.1318-.769-.1514-.8274-.3217-.9788-.5938-2.0158-.8144-3.1111-.013-.0649.0173-.1318.0757-.1621.7367-.402,1.359-.862,1.8644-1.3827.227-.2333.3478-.497.3654-.7929.015-.2398.0019-.4776-.0369-.7152-.0346-.2117-.1253-.4257-.2744-.6417-.551-.8014-1.1602-1.5577-1.8278-2.2686-.5811-.6157-.998-1.1322-1.2551-1.5534-.1146-.1899-.0953-.3801.0626-.5703.0473-.0584.0734-.1253.0711-.188-.0065-.1686-.0323-.3347-.0734-.5011-.0541-.214-.0799-.3782-.0799-.4927,0-.309.0346-.6137.1057-.9139.0715-.309.2248-.5618.4581-.7582.5661-.4797,1.2444-.7217,2.0353-.724.6114-.002,1.1732.2659,1.6874.7994.2614.2701.4666.5164.6135.7389.2744.4128.458.6676.551.7694.6503.6998,1.3006,1.4624,1.9531,2.2878.1922.2421.3846.2421.5791.0023.4516-.5599,1.0023-.9465,1.6484-1.1602.3823-.1276.5465-.389.4949-.7867-.1537-1.1429-.4884-2.3289-1.0049-3.554-.1188-.2764-.553-.8014-1.3071-1.5727-.1771-.1817-.4558-.3804-.8359-.5964-.3608-.2052-.6806-.4689-.9592-.7863-.0326-.0369-.0434-.1038-.0238-.1795l.151-.5918c.0131-.0519-.013-.1233-.0691-.188-.2203-.2616-.2829-.5272-.1857-.7974.0884-.244.2072-.4773.3543-.6998.1146-.1707.2764-.2875.4862-.3478.2679-.0757.447-.1361.54-.1772.322-.1449.6568-.2313,1.0088-.2551.4992-.0346.8428-.0562,1.0265-.0647.646-.0326,1.214.1815,1.7047.6395.2418.2268.4989.5638.769,1.0089.7756,1.2682,1.7025,2.4588,2.7848,3.5736.0952.097.2551.0819.3285-.0326.5919-.9289,1.2552-1.6398,1.9877-2.1345.2829-.1902.4082-.4558.3759-.7951-.1772-1.8451-.7886-3.433-1.8321-4.7639-.0088-.0108-.0153-.0238-.0173-.0346-.0172-.0711,0-.0799.0497-.0258.8058.8513,1.4949,1.7844,2.0675,2.7998.2464.4343.4992.8017.7563,1.1064.2764.3262.5661.6675.8663,1.0241.0519.0627.121.108.1987.1338.4949.1642.8039.4105.9249.741.1316.3609.2699.7217.4148,1.0783.0042.0108.0626.1295.1749.3521.1513.3004.1383.5768-.0409.8317-.2009.2854-.3027.4322-.307.4388-.1145.2398-.2009.4816-.2548.7236-.0669.296-.2421.4904-.5295.5857-.7475.244-1.4907.324-2.2275.2353-.3067-.0366-.3413.0411-.1015.2378.4862.3951.9658.8079,1.4435,1.2379.4081.3673.8554.8166,1.3416,1.3481,1.7606,1.9273,3.1759,3.3942,4.2474,4.4011,1.495,1.402,1.5795,2.8993.2551,4.4915-.5122.6137-1.1344.847-1.8646.6979-.4062-.08-.7217-.1641-.9462-.2529-.3005-.1142-.5726-.3109-.8189-.5896-1.4562-1.6398-3.5995-3.9625-6.4276-6.9636-.0388-.0408-.0799-.0734-.1253-.0969-.2225-.1145-.2528-.0542-.0864.1857.026.0388.0626.0799.1122.1253.2444.2225.3977.4838.4604.7886.0453.2182.0065.5011-.1211.8535-.1987.555-.3866,1.1145-.5638,1.6786-.0434.1361-.2701.417-.6806.8405-.0499.0496-.1145.0799-.1837.0865-.5941.0453-1.1256-.0649-1.5945-.3328-.4427-.2529-.8058-.4451-1.091-.5769-.0649-.0303-.0757-.0153-.0323.0431.4926.6633.9677,1.3417,1.4258,2.031.6503.9788,1.1018,1.6722,1.3547,2.0761,1.4842,2.3593,2.5625,4.9045,3.2363,7.6332.2313.9377.3197,1.8861.2659,2.8454-.0238.4192-.1168.7259-.2787.9204-.1967.2333-.4841.4192-.8642.5553-.1296.0476-.2248.1556-.2549.2894-.093.3997-.309.7152-.6483.9508-.0584.0411-.1037.0949-.1253.1556-.1187.3217-.244.6395-.3758.9547-.0369.0864-.0842.1426-.1449.1687-.121.0518-.1964-.0131-.2268-.1968-.7647-4.4764-2.4695-8.5535-5.1139-12.2329-.4082-.568-.7606-1.1018-1.0565-1.5987Z" fill="#073a7a" fill-rule="evenodd" stroke-width="0"/><path d="M200.2399,50.0545c-.0644.0584-.1811.0323-.2599-.0562-.0788-.0887-.0919-.2075-.029-.2636.0647-.0584.1812-.0323.26.0561.0791.0888.0918.2075.0289.2637Z" fill="#cad4e2" fill-rule="evenodd" stroke-width="0"/><path d="M253.8901,156.3216c0,53.758-43.5796,97.3375-97.3375,97.3375s-97.3377-43.5795-97.3377-97.3375,43.5798-97.3377,97.3377-97.3377,97.3375,43.5798,97.3375,97.3377h0ZM249.8048,156.3216c0-51.5024-41.7498-93.2521-93.2522-93.2521s-93.2522,41.7497-93.2522,93.2521,41.7498,93.2522,93.2522,93.2522,93.2522-41.7498,93.2522-93.2522Z" fill="#073a7a" fill-rule="evenodd" stroke-width="0"/><path d="M65.7958,96.9744c-.2982.2656-.2659.4493.0995.5488-.0153.1187.0173.1836.0949.1987.0454.0087.1123-.0258.1707-.0907.0887-.1015.2009-.1341.3347-.0993.0627.0151.1168.0689.1406.1381.1404.3824.1231.7217-.0518,1.0199-1.0608,1.8147-2.4565,3.9127-4.1871,6.2915-.1664.2287-.1944.5097-.0887.8447.0195.0604.0672.1145.1318.1511.3977.216.3589.4127-.1188.5899-.309.1145-.3501.2571-.1187.4235.1275.093.1187.2852-.0151.3651-.4104.2483-.8277.4192-1.2509.5142-.1556.0346-.2874.1426-.3543.2894-.3609.8039-.6852,1.493-.9766,2.0699-.2117.4189-.3481.862-.4084,1.3286-.0131.0995-.0692.2333-.1687.3997-.0884.1471-.1511.2743-.1922.3804-.5768,1.4842-1.48,3.9299-2.7048,7.3349-.1406.3954-.2378.7605-.2917,1.0995-.093.6007-.1664.9658-.2205,1.0956-.3498.8317-.9785,1.3394-1.8859,1.5231-.2098.0411-.5057.1276-.8881.2571-.4385.1491-.8793.1403-1.3266-.0303-.1707-.0647-.2722-.1511-.3025-.2591-.0368-.1361.0173-.2875.1641-.4538.0757-.0842.0542-.1338-.0646-.1491l-1.2382-.1619c-.0603-.0088-.1014-.0692-.0972-.1406l.0261-.3651c.0042-.0627-.0261-.1253-.0799-.1687-.188-.1533-.1426-.2678.1383-.339.0581-.015.0992-.0346.1273-.0604.0887-.0799.0626-.1383-.082-.1729-.7132-.1706-.7585-.3413-.134-.5122.0756-.0193.1275-.0754.1253-.1338l-.0066-.1276c-.0042-.0884.0043-.1618.0261-.1987.3067-.5726.5638-1.2313.7713-1.9726.0173-.0626-.0108-.1295-.0669-.1619-1.2943-.7174-2.6294-1.2121-4.0102-1.4842-.5096-.1017-.8078.11-.8923.635-.0085.0672.0065.136.0476.1944.3133.4516.6526.8859,1.0154,1.2986.5814.659.9377,1.0738,1.0695,1.2444.754.9615,1.4043,1.8343,1.9468,2.6229.3521.5142.7518.9485,1.1991,1.3005.2894.2291.5012.4388.6352.631.1143.1664.2268.3348.3325.51.0842.136.2075.2936.3697.4751.4039.4495.6415,1.0026.7171,1.6616.1599,1.389-.2959,2.465-1.3697,3.2321-.0496.0366-.1187.0584-.1967.0646l-3.9472.2682c-.3305.0235-.4536-.1191-.3694-.428.0627-.2268-.0561-.4298-.352-.6135-.0369-.0215-.065-.0496-.0888-.0842-.6482-1.0026-1.2078-1.7024-1.6809-2.1021-1.9273-1.6271-4.0034-3.0118-6.2308-4.159-.0692-.0369-.1534-.0153-.1968.0496-.244.3693-.4989.7087-.7648,1.0219-.3047.3586-.6352.6114-.9915.7563-.9615.3909-1.9123.2871-2.8542-.309-.0389-.0238-.1058-.0434-.1987-.0561l-.7886-.1061c-.0539-.0085-.1058-.0603-.1338-.136l-.4258-1.1364c-.0238-.0627-.0195-.1341.0088-.1945.1426-.3005.1553-.6179.0388-.9507-.0844-.2376.0712-.201.4666.108.1383.108.2183.0757.2398-.0973.078-.6006.2506-1.1406.5185-1.618.2463-.4388.5598-.8988.9377-1.3785.646-.8144,1.493-1.2835,2.541-1.4065.6069-.0712,1.1341.0411,1.5857.3413.9246.6114,1.1602,1.5644.7064,2.8627-.1469.415-.2656.7951-.3564,1.1429-.0671.2571.0066.4646.2226.618,2.033,1.4584,4.1782,2.7071,6.4318,3.7443.2029.0949.2786.0323.2267-.186-.2786-1.1752-.7106-2.2878-1.2962-3.3358-1.0435-1.8709-2.4177-4.5371-4.1179-7.9982-.6979-1.4174-1.6895-2.7156-2.9795-3.8977-.0128-.0127-.0216-.028-.0258-.0431-.0173-.0603.0042-.0691.0669-.026.2636.1836.5422.3242.8382.4215.3435.1145.6245.2418.8385.3801.3954.2571.8078.4776,1.2421.6656.0561.0238.1103.0669.1644.1272.1361.1557.309.2141.5185.173.0842-.0173.1576-.0085.2007.0238l1.1148.7993c.1276.093.1945.0627.1968-.0864.0238-1.0823-.0822-2.1756-.3221-3.2797-.0257-.1273-.1641-.1987-.2829-.1468-.2701.1145-.5445.1598-.8231.136-.188-.015-.4366-.1102-.7498-.2829-.5768-.3155-1.173-.5833-1.7909-.8039-.8924-.3175-1.5015-.5488-1.8278-.6956-2.2448-1.0111-4.5113-1.9746-6.7992-2.8908-.0626-.0238-.1341-.0303-.2052-.0192-.4734.0711-.7455-.0542-.8167-.3805-.013-.0584.0258-.2874.1188-.6891.093-.4062-.1276-.646-.6568-.7194-.0779-.013-.1406-.0519-.1621-.106l-.4516-1.1018c-.1057-.2571-.0173-.4927.2659-.7064.6979-.5273,1.5619-.8839,2.5926-1.0695.244-.0431.4212-.1772.5272-.402.1772-.3736.324-.7951.4428-1.2682.136-.5465.2075-.8274.2117-.8405.6718-2.4392,1.1149-4.1587,1.3286-5.159.0888-.4085.0973-.9054.0261-1.4865-.0411-.3371-.0196-.6268.0692-.8708.0776-.2183.1856-.4989.324-.8425.1771-.443.4019-.7801.674-1.0069.3221-.2678.6418-.538.9635-.8081.3351-.2829.6679-.4558.9984-.5185,1.0219-.1922,1.9639.0411,2.8281.6979.1707.1296.3802.1967.5942.1902.4385-.0153.663.201.6718.648.0108.5122.1857.9442.5295,1.2963.2333.2398.354.3651.3651.3759.2095.2421.4232.4799.6415.7152.1491.1621.2313.3523.2421.5683.0019.0822.0192.1511.0496.2052.8447,1.5923,1.8603,3.0592,3.0464,4.4054.4731.538.8535.9938,1.1386,1.3674.3586.4711.7237.94,1.0931,1.4088.1621.203.1987.4278.1125.6718-.1879.5293-.1794,1.0868.0301,1.6722.0238.0714.0606.0779.1102.0218.2225-.2616.3328-.5726.3328-.9334-.0023-.7368.1772-1.4259.5423-2.0634.1706-.2959.2594-.6069.2701-.9312.015-.4773.0216-.7582.0193-.8424-.0085-.2617-.093-.5057-.2529-.7348-.043-.0603-.0603-.1295-.0518-.1921.0972-.7022.3566-1.3094.7778-1.8256.3912-.4818.8728-.9031,1.4411-1.2662.8663-.553,1.8278-.6891,2.8843-.4082.3932.1057.6956.1619.9054.1726.0669.0046.1253.0434.1491.1018.0473.1165.0907.2353.1318.3543.0408.1208.0992.2291.1791.324.3005.3564.5661.7368.7929,1.1407.2486.4408.4992.8254.752,1.156.2937.3824.6415.8793,1.0457,1.4907.339.5119.8686,1.1214,1.5837,1.8278.0451.0453.1165.0519.1684.015.2421-.1706.4601-.4255.6525-.7625.8317-1.4584,1.8601-2.6748,3.0853-3.6513.1491-.1211.3413-.1749.5315-.1514.8101.0972,1.0153.3674.6179.8082-.0518.0561-.0757.123-.0649.1837.0366.2182.1641.3608.3824.4235.0604.0172.1188.0518.1772.1037l.6395.5681h0ZM43.804,111.2791c.0927.1922.11.3912.0539.5942l.2659,1.2055c.0173.0757.0992.1168.1598.078.2571-.1664.4816-.3328.6719-.5034.1814-.1645.3478-.3847.4991-.6633.5769-1.0565.9939-2.1779,1.251-3.3619.0626-.2872-.0735-.6265-.4128-1.0154-.106-.1188-.1448-.3305-.1187-.633l.1057-1.277c.0065-.0646.0519-.1165.108-.123.4365-.0454.6007.0431.4949.2679-.0303.0626-.0218.1318.0193.1706.186.1749.3285.1253.4258-.1468.1318-.3674.2548-.7368.3716-1.1084.015-.0499-.0218-.0972-.0737-.0952-.2656.0153-.432-.0454-.4969-.1814-.1143-.2421-.3022-.3348-.5638-.2787-.6849.1449-1.1472.0216-1.387-.3693-.0627-.1018-.108-.0953-.1361.0192-.2744,1.0653-.5403,2.0872-.7994,3.0657-.0799.3027-.1533.7325-.2247,1.292-.0542.4366-.1446.8666-.2679,1.2901-.106.3608-.0865.9504.0541,1.7736h0ZM43.469,111.655c.2613-.0473.322-.1707.1814-.3671-.216-.1533-.3541-.1363-.4125.0561-.0238.0754-.026.1815-.0087.3218.0929.7585.2009,1.5125.3197,2.2665.0519.3263.1125.3671.1837.1231.0108-.0411.013-.0865.0065-.1338-.1103-.7498-.1987-1.5061-.2701-2.2666h0ZM35.3089,102.8228c.3909.294.7302.4581,1.0196.4904.3977.0456.633-.1273.7064-.5204.2809-1.5061.6505-2.9535,1.1106-4.3473.0777-.2332.2959-.4858.6568-.7582.0496-.0366.0561-.1058.0173-.1491l-2.02-2.2513c-.0864-.095-.2443-.0626-.2897.0607-.7755,2.0848-1.4323,4.2497-1.9704,6.4902-.0172.0691-.0042.1403.0326.1964.1988.307.4451.5706.7368.7886h0ZM39.5759,104.8581l1.3827.6763c.11.0539.2441-.028.2548-.1621.0885-1.065.281-2.1195.5769-3.1629.0884-.3113.2701-.5488.5465-.7152.0519-.0303.0627-.1037.0218-.1491l-1.3223-1.4669c-.0584-.0649-.1642-.0434-.1922.0388-.2702.7778-.5077,1.5469-.7109,2.3097-.0043.015-.0647.2982-.1815.8447-.0952.4535-.2571.9204-.4884,1.402-.0711.1491-.0192.3201.1126.3847h0ZM56.1035,103.6806l.0953-.2829c.0196-.0607.0042-.1318-.0434-.1837-.46-.5012-.784-.7756-.9677-.8255-.5077-.1318-.927-.4016-1.2575-.8059-.0388-.0473-.0949-.0884-.1664-.1207l-.5899-.2636c-.0518-.0238-.1037-.0757-.1468-.1471-.1902-.3153-.4538-.54-.7909-.6761-.0581-.0238-.123.0042-.1423.0604l-.536,1.5125c-.0215.0604-.0042.1318.0434.1815.3305.3435.6891.6545,1.078.9311.4839.3436.86.7756,1.1299,1.3006.1944.3781.6525.968,1.372,1.7694.0388.0433.1057.0433.1448.0022.445-.4926.8232-1.0803,1.1341-1.7651.0261-.0584.0023-.1253-.0538-.1534-.1426-.0714-.2444-.1814-.307-.3305-.0215-.0541-.0215-.1275.0042-.2032h0ZM49.9807,107.7035l2.9427,2.2578c.2678.2052.5357.203.8016-.0088.1383-.11.1706-.2959.0972-.5573-.0411-.1448-.1295-.3002-.2659-.4646-.8574-1.0239-1.8362-2.0007-2.9381-2.9316-.0887-.0757-.2267-.0368-.2659.0734l-.4558,1.3567c-.0346.0995,0,.2075.0842.2744h0ZM46.6948,106.7465c-.0303-.0476-.0714-.0779-.1233-.0887-.0561-.013-.1057.0434-.0907.106.028.1145.0799.1576.1598.1338.0627-.0193.0885-.093.0542-.1511h0ZM47.842,113.3532c1.3135.2852,2.6529.7064,4.0164,1.264.0777.03.1641-.0065.1922-.0842l.4926-1.3051c.0281-.0776-.0022-.1641-.0734-.2075l-3.4591-2.0976c-.0842-.0499-.1922-.0176-.2333.0712l-.9981,2.2339c-.0238.0519.0065.1123.0627.1253h0ZM40.0702,112.8319c.0306-.0382-.0947-.1916-.2783-.3424-.186-.1516-.3586-.2423-.3907-.2049-.0306.0382.0947.1916.2784.3421.1857.1519.3586.2427.3906.2052Z" fill="#073a7a" fill-rule="evenodd" stroke-width="0"/><path d="M268.2229,103.2421c-1.372.5745-2.7394.9334-4.1006,1.078-.3736.0391-.7605.0107-1.1645-.082-.5726-.136-.8793-.2097-.9204-.2247-.3047-.1168-.551-.3413-.739-.6764-.0365-.0646-.1099-.1015-.1834-.0927-.3047.0389-.4365-.1145-.3934-.4603.0261-.203-.0799-.3997-.2614-.4904-.1964-.0973-.3327-.3113-.4081-.6373-.0131-.0564-.0562-.1125-.1188-.1513-.1083-.0669-.1168-.1556-.0238-.2636.6114-.7152.9723-1.5642,1.0822-2.5515.0066-.0499-.0431-.0887-.0884-.0714-.5814.2117-1.1149.5034-1.6033.873-.3262.2461-.6349.4213-.9289.5227-.4258.1449-.849.2895-1.2747.4343-.0085.0023-.1622.0411-.4601.1145-.3047.0757-.5511.2486-.7347.5185-.0389.0584-.0992.0972-.1642.106-.5638.0754-.968.2072-1.2163.3909-.7367.5511-1.493.9831-2.2686,1.2963-.335.136-.6375.2809-.9116.4385-.3285.1879-.616.2982-.86.3351-.3113.0453-.6245.0669-.942.0649-.309-.0023-.5964.0754-.8663.231-.1318.0757-.2982-.0043-.3197-.1556-.0952-.6503-.445-1.173-1.0502-1.5665-.4516-.2936-.5358-.6695-.2549-1.1256.4904-.8013,1.2705-1.3978,2.342-1.7867.5423-.1964.9312-.3651,1.1668-.5054.6026-.3651,1.2313-.6763,1.8839-.9377.7064-.2829,1.063-.4258,1.0715-.43,2.785-1.1795,5.9241-2.3786,9.422-3.5952,1.1299-.3932,1.9922-.6718,2.5861-.8359.5425-.1514,1.9899-.6784,4.3407-1.5815.3563-.1363.6307-.3177.8209-.5403.2959-.3478.4646-.5357.5057-.566.4686-.3609.9765-.6588,1.5188-.8986.0281-.0131.1964-.1103.5097-.2917.3608-.2117.6482-.0672.8577.4343.1579.3758.4343.7475.8297,1.1148,1.6141,1.5035,3.3639,2.8324,5.2478,3.9881.1772.1103.3609.3005.5533.5706.1857.2633.2917.5012.3152.7149.0369.3263-.0518.6483-.2613.97-.1837.2832-.3716.6914-.5618,1.2252-.2679.7628-.8317,1.3654-1.6937,1.8127-.5553.2874-1.0761.4363-1.5642.4451-.5034.0065-.7648.0107-.7866.013-.6395.0453-1.3913.015-2.2533-.093-1.0845-.136-2.1736-.2982-3.2689-.4904-.2786-.0499-.4535.0627-.525.3371-.1856.7194-.4665,1.4346-.8404,2.1495-.0323.0649-.0151.0952.0561.091,1.385-.0888,2.7697-.1537,4.157-.1902.0128-.0023.1488.0042.4059.0192.3113.0173.6095-.0776.8924-.2829.199-.1448.2355-.3024.1102-.4731-.0388-.0518-.0365-.1187.0043-.1579.2183-.2072.536-.3067.9527-.2959.0714.0023.1253.0627.1168.1341-.0411.3413.0238.6264.1945.8555.7625,1.0261,1.3396,2.1475,1.7328,3.3661.2701.8317.6783,1.6183,1.2294,2.3593.0496.0669.136.0884.2094.0519l2.9535-1.4627c.0626-.0303.1122-.0842.1425-.1491.2722-.6395.4428-1.3547.512-2.1433.0065-.0842.0779-.1491.1621-.1513.754-.0108,1.2855.2313,1.5903.7259.0411.0629.0907.1125.1488.1491.32.1945.5403.4473.6633.7563.2874.7282.4496,1.523.4907,2.3808,0,.0153.0388.322.1187.9204.0692.5295-.0864,1.0004-.4688,1.4154-.0476.0538-.0822.1142-.1015.1814-.1471.4904-.3762.8121-.6871.9635-.6721.3262-1.3504.5099-2.0395.553-.2053.013-.3694-.0604-.4927-.2202-.0519-.065-.1123-.1061-.1664-.1103-.1188-.0065-.1253.0604-.0193.2052.2744.3804.5227.7778.741,1.1948.4127.7821,1.0434,1.4304,1.8947,1.9423.4019.2421.5661.6072.4926,1.0953-.0107.0692,0,.1384.0304.201.1618.3348.2202.6783.1791,1.0327-.0496.4215-.0734.644-.0757.6675-.0431.6806-.231,1.3116-.5615,1.897-.1491.2636-.3759.4646-.6806.6029-.3263.1491-.661.2809-1.0004.3997-.46.1599-.9031.0757-1.3266-.2529-.2267-.1749-.5615-.3347-1.0046-.4796-.0626-.0215-.123-.0626-.1706-.1188-.2529-.3004-.5769-.4796-.9723-.5357-.0669-.0111-.1318-.0411-.1879-.0887l-2.1691-1.8451c-.0476-.0388-.1168-.0669-.1945-.0777-.35-.0541-.5748-.1471-.6763-.2832-.1556-.2117-.337-.3951-.5423-.5487-.2571-.1922-.4427-.3629-.5573-.512-.4603-.5919-.9204-1.186-1.3762-1.7801-.0045-.0046-.4062-.4907-1.2036-1.4585-1.0023-1.2143-1.6894-2.5126-2.0588-3.8976-.1817-.6783-.1102-1.3978.216-2.1583.0065-.013.0584-.108.1576-.2874.1341-.2376.0369-.3478-.2917-.3306-.1491.0088-.2744-.0019-.3758-.0303-.6761-.1857-1.3482-.3778-2.02-.5788-.0757-.0216-.1276-.0757-.1361-.1341l-.0541-.4105c-.0108-.0884-.0323-.1533-.0627-.1921-.432-.5704-.3996-1.0934.0973-1.5707.0476-.0454.0411-.0561-.0196-.0303h0ZM264.8571,99.2322c.1834.0065.3801-.0196.5853-.0822l2.048-.62c.2571-.0799.3697-.2636.3374-.551-.0803-.6979.0258-1.4324.3217-2.2014.1687-.4388.4819-.7067.942-.8059.7886-.1707,1.5794-.3243,2.3723-.4623.0453-.0066.121-.0108.229-.0108.1729,0,.229-.0672.1664-.201-.0261-.0561-.0887-.093-.1621-.0972-.8014-.0411-1.4582.0323-1.9704.2225-2.0568.7625-4.0465,1.6722-5.9718,2.7286-.1899.1038-.2959.2917-.2633.4624l.2852,1.4584c.013.0734.0734.1273.1426.1295l.9377.0304h0ZM261.4629,98.4198c-.0672.0734-.0672.1576-.0023.2528.0303.0476.0995.0584.1599.0281.0841-.0454.1771-.0692.2744-.0715.0649-.002.121-.0408.136-.0969.188-.7024-.002-.739-.568-.1125h0ZM271.8722,106.9214c.2376.1469.4666.3736.6891.6806.7541,1.0392,1.7717,2.1648,3.053,3.3747.3498.3305.8512.9334,1.5015,1.8062.0365.0476.0561.1145.0561.1922-.0023.1018.0238.1925.0757.2701.03.0454.0949.0822.1771.095.4082.0737.605.3566.5919.8512-.0085.3697.1449.5661.4581.5857.3436.0215.5227.0346.538.0365.5443.1146,1.1364.2291,1.7779.3436.2356.0434.294-.0408.1794-.2506-.6329-1.1537-1.2897-2.264-1.9703-3.3293-.2075-.324-.4601-.6072-.7606-.849-.5207-.4215-.9311-.9226-1.2359-1.5017-.2007-.3824-.4016-.7495-.5984-1.0976-.2094-.3671-.3693-.756-.4816-1.1665-.0153-.0606-.011-.1318.0108-.2052.123-.4085.0323-.8731-.2701-1.3958-.0411-.0714-.1384-.0907-.2033-.0368-.9635.7996-2.0783,1.1256-3.3423.9788-.6372-.0734-.8382.0431-.6004.35.0519.0669.1707.1557.3543.2679Z" fill="#073a7a" fill-rule="evenodd" stroke-width="0"/><path d="M59.4742,94.7146c.0647.1207.0301.1618-.106.123-.0711-.0215-.1188-.0822-.1103-.1448.0066-.0539.0326-.0777.0822-.0754.0497.0019.1015.0388.1341.0972Z" fill="#cad4e2" fill-rule="evenodd" stroke-width="0"/><path d="M98.884,115.7298c-.4212-.2959-.7475-.6676-.9742-1.1169-.1664-.3305-.281-.7951-.3416-1.398-.108-1.0911-.1511-2.4177-.1296-3.9796.0562-4.2304.0735-8.5016.0542-12.812-.0023-.0927.0388-.1142.1187-.0689,8.7262,5.0556,17.4592,10.1197,26.1984,15.1906,1.1818.6849,2.5407,1.6095,4.0768,2.7763,1.7286,1.309,3.3058,2.7717,4.7296,4.388,1.0111,1.1472,1.8666,2.3029,2.5665,3.4676,1.4584,2.4304,2.461,5.0599,3.0076,7.8922.1468.7563.2809,1.5146.3996,2.2771.1123.7197.203,1.4845.2744,2.2901.2917,3.3727.4343,6.7519.4255,10.1395-.0281,10.7745-.0431,21.549-.0453,32.3235,0,1.4582.1017,2.5472.3024,3.2709.4215,1.4973,1.2056,2.7893,2.3573,3.8761,1.588,1.4973,3.4892,2.6033,5.6993,3.3228,3.7789,1.2271,7.6244,1.6571,11.5351,1.292,1.5814-.1491,3.001-.3824,4.2604-.6956,1.9511-.4884,3.8004-1.2532,5.5506-2.2966,1.5553-.927,2.7589-2.0634,3.6079-3.405.8317-1.3159,1.2487-2.8412,1.2487-4.5783,0-10.4978-.0346-20.9936-.1015-31.4895-.0065-.9442.0476-3.4999.1621-7.6697.0669-2.4264.322-5.006.7691-7.7411.6114-3.7466,1.9749-7.1427,4.094-10.1869.7498-1.076,1.681-2.1693,2.7981-3.2819,2.6487-2.6402,5.6086-4.8827,8.8818-6.7255,1.1733-.6633,1.7632-.9961,1.7694-.9984,7.7088-4.4679,15.4327-8.9421,23.1695-13.4231.1446-.0823.216-.0412.216.1252,0,5.5049.0023,11.0121.0043,16.5215,0,.5122-.093.9961-.2767,1.4496-.1661.4128-.4623.7844-.8835,1.1191-.4473.3501-.9785.7002-1.5988,1.0503-1.2206.6891-4.8699,2.7998-10.9516,6.3323-1.9423,1.1299-3.3812,1.9899-4.3166,2.5841-1.2164.7713-2.3508,1.6398-3.4073,2.6056-1.2163,1.1126-2.1152,2.2079-2.694,3.2862-.8643,1.6049-1.2986,3.3724-1.3028,5.2974-.0346,14.1471-.0757,28.2943-.1211,42.4411-.0022.7671-.2117,1.9338-.6264,3.5022-1.2682,4.7855-3.7616,8.8019-7.4755,12.0515-2.5818,2.2575-5.4984,3.93-8.7523,5.0188-1.5599.523-3.1456.9462-4.7574,1.2682-7.8168,1.5707-15.8085,1.5641-23.9751-.0196-5.3258-1.0326-9.9125-3.2428-13.7605-6.6305-1.1126-.9788-2.0957-2.0245-2.9512-3.1413-3.2085-4.1829-4.8115-9.0094-4.805-14.4797.0131-12.0623.0196-24.1265.0196-36.1888,0-1.7478-.0065-3.0441-.0219-3.8888-.0584-3.377-1.307-6.1359-3.7462-8.2769-1.6895-1.4845-3.6275-2.8585-5.8139-4.1244-1.0868-.6288-1.6356-.9465-1.6486-.953-4.1825-2.4781-6.8358-4.0184-7.9571-4.6191-1.7564-.9397-3.377-1.9293-4.8612-2.9707Z" fill="#073a7a" fill-rule="evenodd" stroke-width="0"/><path d="M65.7958,96.9744c.2786.1664.3132.35.0995.5488-.3654-.0995-.3977-.2832-.0995-.5488Z" fill="#809fc7" fill-rule="evenodd" stroke-width="0"/><path d="M148.2497,111.0308c-2.9231-.013-5.8442-.0173-8.7673-.0153-1.2424.0023-1.9035-.0065-1.9834-.0238-.7994-.1707-1.1798-.7625-1.1407-1.7759.015-.3955.0235-.5984.0235-.6115v-6.2285c0-.8102.0995-1.5103.2963-2.0979.3067-.9139.9592-1.4627,1.9596-1.6421.7214-.1319,1.3198-.1945,1.7951-.1922,8.612.0476,17.2236.0626,25.8378.043.0085,0,.1035-.0062.2829-.0192.3674-.0281.6764.1445.927.5184,1.292,1.925,3.0376,3.4073,5.2392,4.4484.4731.2226,1.0781.4516,1.8148.6829.9442.2982,1.5664.4731,1.8711.527.326.0584.5939.1686.8014.335.1837.1491.2851.3932.3005.7325.0538,1.2098.0581,2.4196.0085,3.6275-.0216.5661-.1449.9658-.3694,1.199-.309.3198-.754.4797-1.3354.4797h-11.0186c-.0603,0-.108.0476-.108.108.0066,21.3913.0023,42.7824-.013,64.1738,0,.7452-.0927,1.3266-.2786,1.7478-.3521.7971-.927,1.4519-1.7198,1.9596-.7713.4927-1.5534.849-2.3463,1.0673-2.8216.7843-5.6151.7021-8.3806-.2464-1.4369-.4926-2.5149-1.3416-3.2366-2.5494-.1879-.3175-.3002-.6826-.3348-1.0976-.0022-.0193-.0022-.3974-.0022-1.1299.0065-21.3049.0022-42.6095-.0128-63.9145,0-.0584-.0499-.1057-.1102-.1057Z" fill="#073a7a" fill-rule="evenodd" stroke-width="0"/><path d="M270.496,126.7441c.6458-.1253.7475-.0281.3045.2917-.1792.1295-.1404.2117.1145.244.0604.0066.1037.0607.093.1146-.0584.2701-.2464.3954-.5661.3761,0,.0581.0215.11.0626.1531.3566-.0431.3716.0629.0454.3155-.0757-.0108-.1318.0088-.1707.0626.0649.2141.2118.2875.4408.2163.4601-.1406.8124-.2659,1.0522-.3739.0865-.0388.1707-.0368.1857.0043.0216.0564-.1015.1514-.3674.2874-.1145.0584-.2333.0995-.3585.123-.7844.1491-1.4194.4043-1.9012.7628-.2529.188-.3847.2852-.3932.2917-.7778.5208-1.5472.9528-2.3097,1.294-.4365.1968-.8101.3977-1.1214.5987-.5595.3629-1.1622.6265-1.8082.7929-.1233.0323-.3759-.0108-.7628-.1299-.0561-.0172-.123,0-.1726.0477-.0757.0691-.1622.1102-.2594.1233-.0799.0107-.1641-.0173-.2571-.08-.5553-.3869-1.1018-.7823-1.6398-1.1905-.6157-.4646-1.0284-.8924-1.2402-1.2833-.4343-.8039-.741-1.6551-.9204-2.5517-.0454-.2203-.1468-.4969-.309-.8274-.1426-.2875-.2548-.5553-.3347-.8037-.2875-.8793-.6245-1.6744-1.0112-2.3853-.0822-.1491-.1122-.3198-.0864-.4862.0757-.4989.1426-.9396.201-1.322.0258-.1707.134-.5704.322-1.1971.1576-.525.1944-1.0715.1142-1.6353-.0108-.0757.0153-.1449.0692-.1752l.8404-.4708c.4754-.3371.4366-.3586-.1165-.0627-.3523-.0065-.4019-.1253-.1491-.3566.3155-.2874.741-.417,1.2748-.3909l.0173.0539c-.0326.2183.0538.2721.2613.1621.3393-.1794.8578-.3824,1.5534-.6072.0822-.028.1837-.108.3067-.244.0499-.0542.1103-.0887.1752-.1038l2.8086-.5811c.1556-.0326.1576-.0737.0042-.1275l-2.4262-.834c-.0238-.0088-.0779-.0519-.1598-.1318-.0281-.0281-.0649-.0476-.106-.0607-.404-.1272-.8102-.2525-1.2184-.3713-.3305-.0972-.7432-.1944-1.2424-.2874-.4516-.0842-.8989-.1814-1.3416-.296-.2398-.0606-.6137-.108-1.1257-.1448-.5465-.0388-1.0888-.201-1.6268-.4839-.0649-.0368-.1341-.0541-.2097-.0519-.3368.0066-.6112-.0411-.821-.1448-.0646-.0323-.1337-.0476-.2009-.0411-.5811.0499-1.0024-.1772-1.2637-.6783-.0627-.1188-.078-.2291-.0476-.3283.0496-.1664.1683-.2271.3566-.1837.0842.0193.1598.0065.1922-.0303.0453-.0519.0172-.1038-.0885-.1556-.3631-.1792-.3501-.3802.0408-.6072.2271-.1315.3178-.3694.2724-.7129-.013-.095.0627-.1792.1576-.1792.4128.0043.525-.1817.3371-.5576-.0649-.1295-.0346-.2871.0757-.3846.2333-.205.5034-.2483.8124-.1273.1468.0561.2548.0757.324.0604.1684-.0366.2137-.1707.1383-.4017-.0218-.0649-.0822-.106-.1471-.0972l-.6069.0907c-.3543.0539-.4408-.0499-.2571-.3112l.5162-.7302c.1102-.1557.1686-.1384.1752.0541.0042.1145.0584.1899.1641.2268.1015.0323.1599.0518.1729.0584.3436.1683.7021.2829,1.0757.3435.4777.0777.7779.1381.9054.1792.296.0972.5854.2094.8686.3413.229.106.3563.2854.3801.536.0173.1661.0952.2829.2313.3455.218.1015.3305.1557.337.1622.1469.1187.2699.2591.3674.4235.1035.1749.1965.2806.2764.3217.0887.0454.1879.0692.2959.0714.1233.0023.2183.0151.2875.0411.7755.2872,1.5814.5423,2.4134.7603.3282.0845.3844-.002.1706-.2633-.5576-.6787-1.061-1.3547-1.5125-2.0311-.2699-.4039-.4255-.8512-.4644-1.3374-.0433-.5119.1253-.9311.5035-1.2529.2095-.1771.432-.3308.6675-.4623.2376-.1298.4924-.214.7648-.2529.9051-.1275,1.7498.0584,2.5322.5554.0581.0365.1273.0561.1987.0561l.9051.0108c.0434,0,.0672.0496.0454.0907l-.4278.7517c-.0776.1361-.1641.2356-.2591.2962-.3889.2506-.4861.5465-.2916.8878.2052.3609.46.6806.7647.9593.9032.832,1.8017,1.815,2.6964,2.9534.0603.0757.1275.1298.2009.1579l3.0053,1.2206c.0366.015.0862.0584.1469.1295.121.1449.4773.3113,1.0715.5012.0756.0238.1298.0887.1383.1687.0108.0995-.0692.0822-.2441-.0496-.2117-.1622-.4084-.1752-.5921-.0434-.0454.0326-.0496.1037-.0063.1491.309.3393.19.4473-.3523.324-.0757-.017-.1426-.017-.203,0-.214.0606-.2225.1426-.0261.2443.0454.0236.108.0431.1837.0539.5465.0799.8147.3912.8017.9334-.0023.08.0107.1469.0411.2053.2375.445.5746.8339,1.0111,1.1644.121.093.1899.2248.1879.3544l-.0518,2.5083c-.0023.1534-.065.1772-.1837.0692-.1664-.1491-.2614-.1318-.2809.0561-.0346.309-.1922.3586-.4709.1491-.0691-.0518-.1706-.0368-.229.0346l-.4731.5984c-.1256.1576-.2075.1341-.2464-.0734-.0476-.2506-.1663-.4212-.3585-.5119-.0715-.0346-.2594-.0454-.5619-.0346-.4235.0173-.7475-.1622-.97-.536-.5856-.9786-1.2747-1.7995-2.0656-2.4585-.0388-.0324-.0995-.0108-.1165.0388-.322.9485-.9592,1.6053-1.9077,1.9704-.8189.3155-1.6529.5941-2.4976.8382-.4235.121-.832.2962-1.2251.5272-.1404.0842-.2226.2398-.2095.402.028.3716.0949.6979.2052.9807.1276.3286.2117.6092.2548.8448.1126.6222.3824,1.1602.8105,1.6118.2698.2874.4685.5445.5918.7755.3048.5726.62,1.0783.9462,1.5211.1449.1987.3393.2701.5811.216l4.3623-.9851c.0173.2441.0711.3671.1621.3694h0ZM256.1414,108.4706c-.0842-.0389-.1814.0257-.1749.1187.0173.2787.1576.3889.4235.3348.0646-.0128.1057-.0754.0884-.1338-.0388-.1276-.1511-.2356-.337-.3197h0ZM271.1894,114.5826c.0453.0692.1015.1165.1729.1403.0626.0219.1361,0,.1857-.0538.1363-.1534.0368-.2333-.296-.2398-.1922-.0238-.324-.1103-.3909-.2594-.0691-.1511-.106-.2313-.1125-.2398-.0865-.1188-.1749-.1922-.2679-.216-.216-.0584-.2528,0-.11.1706.2441.2917.5162.525.8187.6979Z" fill="#073a7a" fill-rule="evenodd" stroke-width="0"/><path d="M26.1158,115.4597c-.0499-.0066-.0842-.0539-.0734-.1035.0842-.3393.0992-.6851.0496-1.0349-.093-.6721-.1403-1.0069-.1403-1.0069-.0196-1.2813.3586-2.4523,1.1341-3.511.6764-.9204,1.5857-1.4712,2.7287-1.6506.6287-.0972,1.2336-.015,1.815.2509.7625.3478,1.186.9484,1.2682,1.8039.1619,1.6722-.3934,3.0269-1.6659,4.0638-.0692.0584-.2356.2163-.4989.4734-.2917.2871-.5987.5595-.9162.8166-.1641.1338-.324.1426-.4776.0258-.0604-.0453-.1253-.0714-.1857-.0714-.3305-.002-.6264-.0474-.8923-.1361-.3932-.1318-.7778-.1749-1.1537-.1273-.0346.0043-.1945.0539-.4819.1511-.1619.0542-.3305.0715-.5097.0562Z" fill="#073a7a" fill-rule="evenodd" stroke-width="0"/><path d="M43.6504,111.2879c.1406.1964.0799.3198-.1814.3671.0714.7605.1598,1.5168.2701,2.2666.0065.0473.0043.0927-.0065.1338-.0712.244-.1318.2032-.1837-.1231-.1188-.754-.2268-1.508-.3197-2.2665-.0173-.1403-.0151-.2464.0087-.3218.0584-.1924.1965-.2094.4125-.0561Z" fill="#fff" fill-rule="evenodd" stroke-width="0"/><path d="M259.378,117.1752l-.0173-.0539c.11-.1298.2353-.1882.3759-.1729.0864.0108.1037.0496.0538.1188-.0864.1188-.2245.1533-.4124.108Z" fill="#809fc7" fill-rule="evenodd" stroke-width="0"/><path d="M258.3515,117.9315c-.0172-.0454-.0561-.0672-.1165-.0627.5531-.2959.5919-.2744.1165.0627Z" fill="#809fc7" fill-rule="evenodd" stroke-width="0"/><path d="M108.7424,208.3878c-5.0965-4.9325-8.4691-10.7983-10.1155-17.5932-.8597-3.5518-1.2659-7.257-1.2186-11.1135.0196-1.5945.0303-2.3961.0303-2.4026.0066-17.0961.0023-34.229-.013-51.3987,0-.0581.0626-.0927.1125-.0646,4.3016,2.4304,8.5405,4.9107,12.7145,7.4429,1.9035,1.156,2.9988,2.7978,3.282,4.928.0366.2832.0777.9788.123,2.0872.0258.6437.0389,1.3394.0389,2.0891v34.011c0,3.2105.2701,6.3972.8101,9.5601.4323,2.5299,1.3181,4.9737,2.6555,7.3349.6891,1.2209,1.5145,2.3984,2.4738,3.5348,1.6203,1.9205,3.4804,3.6403,5.5783,5.1594,1.5491,1.1191,2.9577,2.0675,4.2239,2.8474,1.9811,1.2186,4.0595,2.2144,6.2374,2.9902,1.6874.6004,3.0679,1.0069,4.1417,1.2164,1.7263.3413,3.4979.3889,5.3149.1426,1.3244-.1795,2.4866-.389,3.4914-.631,1.7845-.4278,3.9343-.8836,6.4469-1.3675.8144-.1579,1.5684-.1794,2.262-.0649,2.2017.3609,4.3903.7994,6.5637,1.3159,1.6378.3889,3.1067.6567,4.4075.8013.9247.1038,1.8882.1276,2.8885.0734.8771-.0473,1.8236-.2007,2.8367-.46,2.7116-.6957,5.2285-1.6506,7.5489-2.867,2.2967-1.2033,4.5391-2.666,6.7281-4.3838,1.3328-1.0477,2.4281-1.9834,3.2816-2.8063,3.204-3.0963,5.3646-6.7453,6.4772-10.9454.8447-3.191,1.2662-6.7904,1.2617-10.8025-.0128-11.8287-.0193-23.6577-.0193-35.4864,0-1.2813.0842-2.4868.2529-3.621.123-.8362.3109-1.5015.5592-1.9919.3201-.6287.7586-1.182,1.3139-1.6594.6588-.5638,1.3609-1.0652,2.1064-1.508,3.9388-2.3378,7.9075-4.6667,11.9067-6.9849.0711-.0411.1057-.0195.1057.0604.0153,16.111.0196,32.2024.013,48.2746-.0022,3.9861-.0433,6.9026-.1275,8.75-.4646,10.2299-4.2647,18.8008-11.3967,25.7167-.9658.9397-2.0526,1.8839-3.2601,2.8347-4.7101,3.7094-9.8694,6.5936-15.4758,8.6505-2.232.8189-4.589,1.3461-7.067,1.5859-5.207.5012-9.8629-.8231-13.9678-3.9753-2.6682-2.0505-4.6947-3.4591-6.0797-4.2281-1.1906-.6613-2.3743-.646-3.5498.0453-1.0304.605-2.02,1.2702-2.9685,1.9962-.8815.6721-1.7674,1.3351-2.6594,1.9922-1.154.8467-2.0699,1.4646-2.7505,1.8516-3.3985,1.9312-7.052,2.7371-10.9604,2.4196-3.2471-.2659-6.5138-1.0953-9.8042-2.4888-3.0011-1.2727-6.0021-2.8692-9.0051-4.79-2.8908-1.8473-5.4749-3.8738-7.7499-6.0775Z" fill="#073a7a" fill-rule="evenodd" stroke-width="0"/><path d="M30.5838,153.3963l11.6515,2.1713c.0888.0173.1534.0907.1556.1792l.0258,2.7093c0,.0607-.0473.1145-.1099.1253-1.3074.2356-2.2666.4235-2.8781.5618-2.9123.6588-5.7792,1.2121-8.6008,1.6572-.2767.0453-.2767.0864.0022.123,3.8585.5292,7.7216,1.1645,11.5866,1.9057.0627.0128.1061.0692.1061.1338l.0019,2.7482c0,.0669-.0581.1168-.1207.1015l-15.1433-3.3185c-.0754-.0173-.1272-.08-.1295-.1511l-.0626-2.973c-.0023-.0604.0453-.1145.1102-.1275,2.4304-.5035,4.8569-1.0239,7.2808-1.5577.9788-.216,2.1994-.4104,3.6578-.5853.0519-.0066.0973-.0196.1338-.0346.1622-.0757.106-.1298-.1706-.1599-1.0823-.119-2.156-.2874-3.2233-.508-2.5971-.5334-5.1939-1.0737-7.7887-1.6202-.0607-.0131-.1038-.0669-.1038-.1319l-.013-2.9554c0-.0649.0453-.1233.1102-.1363l15.0826-3.4719c.0561-.013.1103.0281.1123.0842l.0326,2.8389c0,.0649-.0477.1211-.1126.1341l-11.5931,2.219c-.0672.0127-.0672.0257,0,.0388Z" fill="#063a7c" fill-rule="evenodd" stroke-width="0"/><path d="M277.4182,154.0185c-.5465-.1168-1.091-.2767-1.6333-.4819-1.6767-.633-3.3792-1.2702-5.1055-1.9142-.0754-.0304-.1273-.1015-.1253-.1772l.0499-3.0419c0-.0391.0408-.0626.0754-.0453,2.8542,1.402,5.7039,2.7828,8.547,4.1417.3005.1446.618.2137.9485.2117,1.8604-.0173,3.7616-.0345,5.7039-.0518.0626,0,.1145.0496.1168.1099l.0927,2.5538c.0065.1644-.1276.3024-.2937.3047-1.9749.0173-3.7984.0541-5.4706.108-.3478.0108-.6806.095-.9961.2506-2.8236,1.385-5.6432,2.7743-8.456,4.1635-.0692.0343-.1491-.013-.1514-.0864l-.0519-3.0702c-.0019-.0627.0389-.1211.1015-.1469l6.6566-2.7136c.1188-.0496.1168-.0864-.0085-.1145Z" fill="#063a7c" fill-rule="evenodd" stroke-width="0"/><path d="M272.7623,172.2144c-1.3958-1.1818-2.2189-2.6252-2.4695-4.3339-.231-1.5772-.1426-3.1351.2659-4.6735.108-.4039.2806-.7756.5204-1.1149.0391-.0516.106-.0734.1664-.0516l2.126.728c.0757.0261.1103.1102.0757.1817-.3348.6868-.5488,1.3955-.6395,2.1237-.0995.8059-.0888,1.5338.0346,2.1821.1318.7021.4254,1.3243.8815,1.8689.3909.4688.9312.862,1.6203,1.1752,1.2898.5899,2.6272.7779,4.0099.5638,2.9772-.458,4.2993-2.2274,3.9688-5.3084-.0065-.0646-.0584-.1165-.1188-.121l-3.541-.3067c-.0604-.0043-.1123.0411-.1168.1037l-.1707,1.9185c-.0065.0669-.0583.1168-.1145.1103l-2.0891-.203c-.0607-.0065-.1057-.0649-.1015-.1318l.3348-4.7143c.0065-.093.0887-.1622.1814-.1534l7.6785.5984c.0757.0043.1383.0584.1556.1296.5488,2.0936.5791,4.1201.0907,6.0797-.3002,1.2121-.7605,2.1864-1.3762,2.9276-.741.8878-1.6852,1.495-2.8366,1.8255-1.601.4604-3.2604.5358-4.9822.2291-1.3677-.2441-2.5537-.7886-3.5541-1.6333Z" fill="#063a7c" fill-rule="evenodd" stroke-width="0"/><path d="M40.6063,170.568l-3.4243.4192c-.0607.0063-.1037.0627-.0952.1231l.6525,4.7163c.0173.119-.0669.229-.1857.2443l-2.0806.2506c-.0607.0065-.1168-.0369-.1253-.0972l-.6656-4.6647c-.0107-.0777-.0799-.1296-.1576-.1208l-3.9214.4796c-.0992.0108-.1684.1035-.1534.2053l.7152,5.345c.0085.0584-.0346.1145-.093.121l-2.249.2614c-.0649.0065-.1253-.0389-.1341-.1058l-1.1233-8.2641c-.0151-.0972.0541-.1879.1513-.203l15.0177-2.0503c.0476-.0065.0907.0258.0972.0735l1.0523,8.0458c.0085.0669-.0392.1296-.1061.1381l-2.262.3004c-.0431.0066-.0842-.026-.0907-.0714l-.6979-5.0556c-.0085-.0584-.0627-.0972-.121-.0907Z" fill="#063a7c" fill-rule="evenodd" stroke-width="0"/><path d="M281.4258,187.3077c-.8923.6934-1.8688,1.1387-2.9338,1.3309-.8839.1599-1.9293.1729-3.1394.0388-2.0069-.2202-3.7851-.9765-5.33-2.2705-1.2982-1.0891-2.0265-2.4092-2.1821-3.9603-.1468-1.4669.1729-2.8304.9593-4.0944,1.0048-1.6137,2.5948-2.5256,4.7749-2.7351,1.4063-.1361,2.8452.0261,4.3209.4861,1.2036.3739,2.247.8816,3.1306,1.5211.983.7086,1.6852,1.588,2.1087,2.6402.6698,1.6571.5876,3.3919-.2484,5.2001-.337.7325-.8231,1.3482-1.4607,1.8431h0ZM271.5633,183.8401c1.5403,1.1903,3.3811,1.8017,5.5221,1.8298.8232.011,1.5599-.1188,2.2145-.3844,1.1644-.4731,1.7501-1.2748,1.7608-2.4027.0066-.5723-.151-1.1018-.4708-1.5857-.3155-.4796-.7325-.875-1.2489-1.1863-1.6353-.9827-3.4135-1.4731-5.3343-1.4669-.7279.0023-1.4023.1491-2.0245.4408-.6242.2917-1.0865.7432-1.3912,1.3504-.6395,1.2767-.3155,2.4112.9723,3.405Z" fill="#063a7c" fill-rule="evenodd" stroke-width="0"/><path d="M40.8979,181.6427c-.0711-.0281-.1683-.0235-.2936.0108-3.4484.9442-6.9636,1.8042-10.5477,2.5817-.0692.0154-.1361-.03-.1534-.1014l-.5511-2.329c-.0215-.0884.0304-.1749.1146-.1944l14.8104-3.4181c.0604-.0127.1188.0239.1318.0823l.6546,2.895c.015.0649-.0086.1318-.0584.1752-1.897,1.5987-3.7851,3.2082-5.6628,4.8308-1.3394,1.1559-2.5926,2.1152-3.7613,2.8777-.0842.0541-.093.0907-.0261.1122.0238.0066.0476.0066.0757-.0042,1.7824-.5811,3.5887-1.0823,5.4187-1.5038,1.6829-.3866,3.3681-.7971,5.0533-1.2291.0607-.0153.1233.0216.1361.0819l.5576,2.435c.0127.0584-.0261.1168-.0865.1318l-14.6483,3.4223c-.1037.0238-.2075-.0411-.2333-.1469l-.5984-2.4868c-.028-.1122.0085-.231.095-.3047,1.9573-1.6895,3.8803-3.3163,5.7685-4.8827,1.4799-1.2271,2.7459-2.1971,3.8004-2.9123.0799-.0542.0799-.095.0042-.1233Z" fill="#063a7c" fill-rule="evenodd" stroke-width="0"/><path d="M36.6655,198.8512l1.9727,6.0994c.0192.0626-.0088.1272-.065.1445l-2.1863.7044c-.0561.0173-.1188-.0173-.1383-.0776l-3.0938-9.7872c-.0173-.0584.0128-.1191.0692-.1406.3263-.1188.6588-.2203.9981-.3002.3174-.0757.6545-.0734,1.0111.0108,4.0294.9396,8.0283,1.8796,11.9951,2.8151.1406.0323.1879-.0193.1448-.1557l-1.7413-5.5264c-.0196-.0584.0108-.1188.0692-.1383l2.1172-.7152c.0561-.0196.1187.013.1383.0734l2.9319,9.193c.017.0562-.0131.1168-.0692.1361-.4215.1491-.847.2809-1.277.3997-.2894.0799-.5854.0822-.8901.0065-3.958-.9981-7.9291-1.938-11.9151-2.8216-.0692-.015-.093.0108-.0715.0799Z" fill="#063a7c" fill-rule="evenodd" stroke-width="0"/><path d="M263.7334,196.1031c-.0604-.0193-.0907-.0842-.0711-.1404l.8685-2.569c.0193-.0561.0819-.0862.1403-.0689l11.9843,3.8435c.0887.0281.186-.0195.214-.108l1.5988-4.9606c.0195-.0627.0842-.0972.1403-.0777l2.1044.726c.0584.0192.0865.0861.0669.1511l-2.4715,7.8944c-.013.0389-.0519.0607-.0907.0477l-14.4842-4.7381Z" fill="#063a7c" fill-rule="evenodd" stroke-width="0"/><path d="M260.4645,209.2541c-.9873-1.6872-1.0953-3.4611-.324-5.3212.538-1.2943,1.3224-2.2686,2.355-2.9253,1.1257-.7152,2.4242-1.0046,3.8954-.8686,2.1886.2053,4.1201.9462,5.7966,2.2275,1.305.9961,2.1928,2.1041,2.6662,3.3228.6242,1.6052.4989,3.2604-.3739,4.9691-1.199,2.3465-3.2125,3.4311-6.0363,3.2539-1.8105-.1145-3.4657-.6548-4.9627-1.6203-1.3266-.8558-2.3312-1.8689-3.0163-3.0379h0ZM264.3944,209.1311c1.4284,1.0304,3.066,1.616,4.9133,1.7563.9009.0692,1.6699-.1383,2.3074-.6199.4774-.3651.7906-.8124.9375-1.3416.1556-.5641.1037-1.143-.1534-1.7394-.2764-.6395-.6848-1.1817-1.2229-1.6248-1.2809-1.0542-2.7243-1.7994-4.3273-2.2382-1.1645-.3175-2.1952-.2764-3.0918.1233-.875.3931-1.385,1.0003-1.5253,1.8235-.1491.8748.0173,1.6549.5012,2.3355.3177.4473.8708.955,1.6613,1.5253Z" fill="#073a7a" fill-rule="evenodd" stroke-width="0"/><path d="M47.4834,207.4847l2.3159,4.3881c.0281.0538.095.0756.1514.0476l5.25-2.6986c.0561-.0281.123-.0088.1511.0431l1.3028,2.3766c.0281.0518.0043.1167-.0496.1471l-13.3693,7.1297c-.0562.028-.1231.0085-.1534-.0454l-1.2835-2.3615c-.0278-.0542-.0085-.1233.0476-.1534l5.5287-3.0464c.0672-.0368.091-.1187.0564-.1856l-2.3097-4.358c-.0323-.0627-.108-.0842-.1706-.0519l-5.6282,3.0248c-.0541.0304-.121.0108-.1491-.0411l-1.3136-2.4369c-.028-.0541-.0065-.121.0477-.1491l13.3801-7.1512c.0646-.0346.1423-.0111.1791.0538l1.3224,2.355c.0518.093.0173.2118-.0757.2594l-5.1809,2.7091c-.0541.028-.078.093-.0496.1448Z" fill="#063a7c" fill-rule="evenodd" stroke-width="0"/><path d="M255.7482,220.625l9.4609,5.9888c.0519.0326.0669.1017.0346.1513l-1.2943,2.0503c-.0431.0669-.1338.0842-.203.0411l-12.734-8.1861c-.0519-.0323-.0692-.1015-.0369-.1534l1.6356-2.5191c.0369-.0542.1015-.0845.1687-.08,4.0617.2979,8.1082.7345,12.1399,1.3113.0712.0108.0754,0,.0128-.0346-3.1867-1.737-6.272-3.6382-9.2554-5.7058-.0542-.0369-.0692-.108-.0369-.1576l1.3071-2.0549c.0323-.0518.1037-.0646.1576-.0303l12.7471,8.1842c.0519.0323.0672.1015.0346.1511l-1.4497,2.2751c-.0368.0561-.0995.0887-.1686.0842-4.1936-.2398-8.3611-.6914-12.5071-1.3544-.0668-.0108-.0714.002-.013.0388Z" fill="#063a7c" fill-rule="evenodd" stroke-width="0"/><path d="M60.4527,218.0044c1.1537.9893,1.8366,2.2056,2.0461,3.649.1556,1.063.0238,2.1107-.3974,3.1414-.4085,1.0023-1.0307,1.8989-1.8647,2.6878-1.3481,1.2767-2.8777,2.1949-4.5909,2.7544-1.3612.4451-2.651.5188-3.8696.2183-1.0953-.2702-2.0611-.8405-2.8931-1.7155-.8447-.8836-1.3847-1.9208-1.6225-3.1068-.3198-1.5922.0368-3.1306,1.0695-4.6106,1.4888-2.1345,3.4892-3.5583,5.9998-4.2692,2.3397-.6631,4.3793-.2461,6.1228,1.2512h0ZM55.9698,226.6722c.9938-.5724,1.7866-1.1472,2.3808-1.7241.7713-.7517,1.2532-1.5145,1.4411-2.2858.2744-1.1214-.0023-2.007-.8339-2.6618-.3997-.3155-.8536-.5164-1.3655-.6026-.5054-.0865-1.0196-.0672-1.5426.0604-1.6852.4062-3.1609,1.199-4.4269,2.3788-.6871.6415-1.1817,1.3178-1.4865,2.0265-.4991,1.171-.3673,2.1563.3975,2.9534.3631.3782.8104.6372,1.3396.7756.525.136,1.0587.1533,1.5987.0518.402-.0734.832-.1987,1.2878-.3781.3694-.1446.7713-.3413,1.2099-.5941Z" fill="#063a7c" fill-rule="evenodd" stroke-width="0"/><path d="M254.2033,231.0579l-2.9143,3.8458c-.0691.091-.0541.2205.0346.2897l4.8827,3.8758c.0496.0388.0604.1103.0215.1579l-1.7025,2.154c-.0365.0454-.108.0496-.1576.0108l-11.9131-9.3314c-.0496-.0388-.0584-.108-.0196-.1556l1.7371-2.1691c.028-.0345.0799-.0411.1168-.013l4.6451,3.6145c.0646.0518.1599.0391.2095-.0258l3.0333-3.9212c.0369-.0476.0261-.1148-.0215-.1514l-4.6236-3.662c-.0473-.0369-.0561-.1038-.0193-.1491l1.7153-2.1649c.0388-.0476.108-.0561.1579-.0173l11.9216,9.3507c.0649.0499.0757.1426.0238.2075l-1.6874,2.0891c-.0584.0734-.1664.0842-.2441.0261l-4.9734-3.8934c-.0672-.0538-.1686-.0388-.2228.0323Z" fill="#063a7c" fill-rule="evenodd" stroke-width="0"/><path d="M68.2545,238.5831c-.2809.2486-.566.4904-.8555.7282-.2247.1837-.5057.432-.8407.741-1.1427,1.0607-2.3763,1.7954-3.7009,2.2036-1.3179.4062-2.5926.2118-3.824-.5853-1.0349-.6699-1.8192-1.5276-2.3507-2.5733-.4624-.9051-.6353-1.8125-.5185-2.7179.121-.957.5162-1.8428,1.184-2.6575.5681-.6956,1.1149-1.2659,1.6376-1.7132,2.2598-1.9335,4.5306-3.8716,6.81-5.8139.0476-.0411.1187-.0368.1598.0108l1.802,2.0741c.0408.0476.0346.1188-.013.1576-2.2924,1.9488-4.561,3.8803-6.8057,5.7968-.7194.6157-1.2552,1.2445-1.6095,1.8905-.6418,1.1729-.4624,2.1863.538,3.0418.6503.5576,1.3847.6721,2.1994.3459.7733-.3113,1.4757-.7413,2.1087-1.2878,2.2858-1.9812,4.5779-3.9623,6.8791-5.948.0473-.0411.1188-.0365.1576.0108l1.7609,2.0937c.0388.0476.0346.1168-.013.1576-1.1495,1.0134-2.2924,1.9942-3.4311,2.9406-.2741.2268-.6976.5962-1.2745,1.1039Z" fill="#063a7c" fill-rule="evenodd" stroke-width="0"/><path d="M248.8563,247.4759c-2.4522,1.9639-5.0558,2.1387-7.8083.527-.97-.5681-1.819-1.2595-2.5495-2.0761-.7582-.849-1.3308-1.7652-1.7175-2.7525-.8966-2.2989-.6006-4.5414.8881-6.7257.7713-1.1299,1.8513-2.0373,3.2386-2.7202.0604-.0303.1295-.015.1664.0369l1.279,1.819c.0323.0476.015.1168-.0391.1448-.6803.3566-1.2853.7994-1.8148,1.3329-.566.5683-.955,1.1928-1.1667,1.8692-.4428,1.4127-.1596,2.7824.8493,4.1071.8036,1.0564,1.739,1.8601,2.8065,2.4111,1.9639,1.0111,3.6837.7475,5.1591-.7908.5425-.5639,1.0111-1.251,1.4111-2.0634.0278-.0538.0949-.0734.1426-.0431l1.7801,1.16c.0907.0606.1211.1817.0734.2854-.659,1.4063-1.5599,2.5645-2.6983,3.4784Z" fill="#063a7c" fill-rule="evenodd" stroke-width="0"/><path d="M73.8589,256.4549c-2.1951-1.722-2.7201-3.8911-1.5772-6.5032.2398-.5465.6849-1.2011,1.3329-1.9616,2.0137-2.3615,4.0209-4.697,6.0236-7.0089.0604-.0712.1641-.0797.2313-.0216l2.0438,1.7739c.0453.0389.0496.108.0085.1557-1.9704,2.2728-3.9192,4.5629-5.8462,6.8726-.8405,1.0065-1.3331,1.7671-1.478,2.2813-.3197,1.1344.1471,2.0698,1.3981,2.8108.3651.216.8274.2486,1.3912.0953.7498-.2053,1.4908-.726,2.219-1.5665,2.061-2.37,4.1156-4.7466,6.1639-7.1297.0388-.0453.108-.0518.1534-.013l2.0914,1.804c.0453.0388.0496.108.0107.1556-1.9292,2.2447-3.863,4.4853-5.803,6.7258-.5185.5984-1.0954,1.1321-1.7306,1.6052-2.2405,1.6614-4.4507,1.6356-6.6328-.0757Z" fill="#063a7c" fill-rule="evenodd" stroke-width="0"/><path d="M236.2668,255.1672c.0411.0518.1168.0626.1707.0238l4.3169-3.2429c.0496-.0368.1187-.0303.1553.0173l1.3827,1.7782c.0346.0453.0261.1122-.0235.1488l-6.7127,5.1336c-.0369.028-.0887.0215-.1168-.0151l-9.2123-12.0622c-.0369-.0496-.0281-.1188.0193-.1576l6.3691-4.9284c.0519-.0411.1233-.0323.1599.0154l1.4065,1.8493c.0369.0496.0258.121-.0258.1598l-3.9798,3.0419c-.0777.0607-.093.1729-.0323.2506l2.0438,2.6359c.0476.0627.136.0734.1987.0261l3.7939-2.9038c.0496-.0388.1187-.0303.1556.0173l1.3158,1.7586c.0366.0476.0238.1188-.028.1599l-3.7701,2.9449c-.0476.0366-.0564.1057-.0196.1511l2.4327,3.1975Z" fill="#063a7c" fill-rule="evenodd" stroke-width="0"/><path d="M222.9689,252.6222l6.8704,10.4978c.0326.0499.0173.1168-.0324.1491l-2.3745,1.5188c-.0519.0326-.1188.0173-.1534-.0345l-6.7601-10.4287c-.0734-.1145-.227-.1468-.3435-.0734l-2.8562,1.8082c-.0561.0346-.1276.0196-.1641-.0346l-1.249-1.8754c-.0323-.0496-.0192-.1188.0304-.1511l8.6116-5.6758c.0519-.0343.1211-.0193.1537.0326l1.2336,1.9746c.0323.0499.015.1188-.0369.1557l-2.9015,1.9853c-.0476.0346-.0607.1018-.0281.1514Z" fill="#063a7c" fill-rule="evenodd" stroke-width="0"/><path d="M89.9353,254.3247c.0519-.3047.002-.322-.1513-.0541-1.8213,3.2085-3.7333,6.3606-5.7362,9.4589-.0323.0519-.1015.0691-.1511.0366l-2.1283-1.3547c-.0496-.0323-.0626-.1015-.0303-.1534l8.0178-12.7817c.0541-.0862.1706-.1142.2571-.0604l2.5126,1.5577c.0562.0346.0888.0995.0842.1664-.2786,4.0206-.6695,8.0543-1.1752,12.1011-.0151.1275.0065.136.0669.0215,1.7263-3.2082,3.5821-6.3,5.5655-9.2772.0346-.0519.1038-.0646.1534-.0323l2.0202,1.3243c.0496.0346.0646.1015.0323.1534l-8.0155,12.8355c-.0453.0737-.1426.093-.216.0454l-2.2881-1.4927c-.0474-.0304-.0734-.0822-.0692-.1361.1341-1.6206.2551-3.2236.3654-4.8095.1791-2.6034.4731-5.1183.8858-7.5487Z" fill="#063a7c" fill-rule="evenodd" stroke-width="0"/><path d="M97.8644,271.7807c-.0261.0508-.0887.07-.14.0434l-2.4616-1.2977c-.0516-.0258-.0712-.0887-.0431-.1403l7.0733-13.4161c.0263-.0505.089-.07.14-.0434l2.4619,1.2977c.0516.0261.0711.0887.0431.14l-7.0736,13.4164Z" fill="#063a7c" fill-rule="evenodd" stroke-width="0"/><path d="M207.3052,265.9785l4.2086-1.8646c.1015-.0454.2183,0,.2637.0995l.8881,1.9119c.0258.0562.0019.1211-.0519.1471l-4.2973,1.927c-.0542.0261-.08.0907-.0542.1449l2.5064,5.6367c.0258.0584.002.1253-.0519.1513l-2.4825,1.1342c-.0627.0281-.1361,0-.1642-.0649l-6.1835-13.7191c-.0496-.1103,0-.2376.108-.2875l7.2335-3.2751c.0431-.0196.0949,0,.1145.0431l1.0026,2.1583c.0258.0561,0,.121-.0564.1448l-4.5952,2.0288c-.093.0411-.1341.1491-.0907.2398l1.5576,3.3896c.0258.0542.0907.0803.1448.0542Z" fill="#063a7c" fill-rule="evenodd" stroke-width="0"/><path d="M107.5498,272.8964c.4042-.7194.8643-1.4431,1.3828-2.1736,1.8904-2.6637,3.7788-5.3146,5.6605-7.9526.0476-.0671.1363-.0929.2117-.0626l2.7893,1.0692c.0584.0218.0777.0953.0388.1426l-9.6854,12.4231c-.0626.08-.1664.1103-.2571.0777l-2.8842-1.0412c-.093-.0326-.1514-.1275-.1426-.2293l1.3025-15.6268c.0065-.0734.078-.1211.1448-.095l2.774,1.0673c.0584.0238.0953.0841.0888.151-.404,4.0726-.9054,8.1474-1.5081,12.2222-.0238.1621.0043.1729.0842.028Z" fill="#063a7c" fill-rule="evenodd" stroke-width="0"/><path d="M192.9248,278.1961c-1.0088-.8274-1.7955-1.8278-2.3593-3.0053-.5077-1.0565-.8447-2.154-1.0153-3.2924-.1795-1.2099-.1384-2.34.123-3.3923.646-2.5883,2.4349-4.1502,5.3668-4.6859.4298-.0799.9267-.0757,1.4885.0127.4946.0757.9658.2163,1.4131.4216,1.3178.6026,2.372,1.5684,3.1606,2.9015,1.0003,1.6875,1.5664,3.4569,1.694,5.3084.2029,2.9101-.7886,4.9799-2.975,6.2113-1.1299.6353-2.2708.9312-3.4265.8858-1.2597-.0473-2.4157-.5034-3.4699-1.3654h0ZM197.8809,276.893c1.7717-.5851,2.4307-3.4067,1.4735-6.2991-.957-2.8934-3.1672-4.7645-4.9386-4.1786-1.7719.5851-2.431,3.4067-1.4734,6.2992.9567,2.8933,3.1668,4.7644,4.9385,4.1785Z" fill="#063a7c" fill-rule="evenodd" stroke-width="0"/><path d="M118.7824,277.721l5.1182,1.5469c.0822.0258.1276.108.1038.1879l-.631,2.1303c-.0258.0841-.1123.1295-.1965.1037l-8.009-2.4673c-.0584-.0173-.0907-.0799-.0734-.1383l4.4807-14.4884c.0281-.0908.1233-.1426.214-.1146l7.6851,2.3981c.0581.0173.0907.08.0711.1406l-.6936,2.1606c-.0258.0754-.1058.1188-.1814.095l-4.807-1.5254c-.0672-.0215-.1406.0131-.1599.08l-.9984,3.327c-.0173.0584.0153.121.0737.1383l4.4765,1.3828c.095.0303.1491.1253.123.216l-.6264,2.1044c-.0173.0584-.08.093-.1384.0734l-4.4807-1.3612c-.106-.0323-.2183.0261-.2528.1299l-1.171,3.744c-.0173.0564.015.119.0734.1363Z" fill="#063a7c" fill-rule="evenodd" stroke-width="0"/><path d="M130.8685,277.2802l-.955,5.8896c-.0153.0884-.0995.1491-.188.1338l-2.6402-.4578c-.0841-.0153-.1425-.0975-.1275-.1837l2.4933-14.631c.0108-.0627.0627-.1103.1253-.1146,1.8839-.1318,3.7029.0862,5.4596.6568,1.2271.3997,2.1106.9009,2.6509,1.5038.7518.8402,1.0369,1.9055.8555,3.1952-.2571,1.8213-1.3028,2.9838-3.1348,3.4829-.0692.0193-.078.0516-.0261.1015.7974.7368,1.2382,1.7025,1.3246,2.8973.11,1.5146.2571,3.0526.4405,4.6106.0066.0581-.0408.1057-.0969.0972l-2.7958-.43c-.0649-.0088-.1168-.0627-.1253-.1296-.1925-1.3181-.3067-2.6101-.3393-3.8783-.002-.1361-.0604-.5443-.1749-1.2291-.0887-.5315-.4278-.9508-1.0134-1.2555-.2203-.1145-.7563-.231-1.6095-.3498-.0584-.0088-.1145.0323-.123.0907h0ZM131.4258,274.9878c.4688.093.8966.1599,1.2812.201.9354.0973,1.6571-.1406,2.1648-.7109.4601-.5185.6718-1.1622.635-1.9315-.0496-1.0585-.6999-1.7241-1.9508-1.9985-.3867-.0841-.8362-.1318-1.3504-.1425-.082-.0023-.1511.0584-.1642.1383l-.7086,4.3101c-.0108.0606.0303.121.093.134Z" fill="#063a7c" fill-rule="evenodd" stroke-width="0"/><path d="M176.2024,275.5386l1.3805-6.7926c.013-.0669.0649-.1165.1298-.1273l3.0549-.5292c.0388-.0066.0734.0323.0604.0711l-2.8885,9.3334c-.0669.2162-.0823.4407-.0434.6763l.9249,5.7447c.0085.0607-.0303.1191-.091.1276l-2.7113.4235c-.0712.013-.1383-.0389-.1511-.1123-.3024-1.8646-.6007-3.7012-.8946-5.5072-.0539-.3308-.1749-.6332-.3674-.9076-1.8105-2.5818-3.6079-5.1528-5.3926-7.7131-.0496-.0711-.0085-.1684.0757-.1834l2.9341-.4776c.0842-.015.1707.0261.2138.1015l3.5583,5.9113c.0995.1642.1686.1511.2075-.0391Z" fill="#063a7c" fill-rule="evenodd" stroke-width="0"/><path d="M142.3559,277.3449c-1.0222-.9182-1.5061-1.9769-1.45-3.178.0499-1.1191.4797-2.0871,1.2878-2.906.8275-.836,1.9143-1.2875,3.2624-1.3502,1.4627-.0692,2.8562.2333,4.1805.9074.08.0411.1188.1318.0908.2137l-.7172,2.1067c-.0196.0581-.0907.0842-.1449.0516-.7259-.4189-1.4972-.6653-2.3159-.741-.6029-.0561-1.1236.0023-1.5599.173-.3262.1295-.5876.3285-.7801.5941-.2182.3024-.3109.6352-.2763,1.0003.0388.4062.259.7952.661,1.1645.3521.324.7475.5942,1.186.8082.1449.0711.3824.2117.7132.4232.015.011.2376.1448.6653.4019.9354.5641,1.616,1.3136,2.0373,2.2536.4235.9397.5272,1.8924.3089,2.8627-.259,1.1645-.9462,2.0783-2.0633,2.7417-.8186.4861-1.7498.7409-2.7933.769-1.6055.0411-3.1178-.3067-4.5394-1.0457-.1295-.0669-.1922-.2137-.1491-.3501l.6438-2.033c.0326-.1037.1533-.1468.2463-.0907,1.1299.6936,2.355,1.0111,3.6709.9507.6091-.028,1.091-.1814,1.4474-.4603.5079-.3952.7066-.9204.5964-1.5707-.0865-.5054-.3632-.97-.8317-1.3912-.4042-.3631-.8686-.6741-1.3981-.9355-.676-.335-1.3351-.7908-1.9788-1.3699Z" fill="#063a7c" fill-rule="evenodd" stroke-width="0"/><path d="M161.8611,273.132l-3.4807.229c-.0626.0043-.1188-.0411-.1233-.1017l-.1468-2.2944c-.0043-.0604.043-.1145.1057-.1188l10.2322-.8362c.0799-.0065.1491.0519.1534.1276l.1729,2.3116c.0042.0607-.0431.1126-.1038.1168l-3.6037.2829c-.0649.0046-.1145.0627-.1099.1276l.9935,12.5634c.0045.0692-.0473.1296-.1165.1338l-2.6617.1967c-.0995.0066-.186-.0691-.1945-.1729l-.9981-12.4639c-.0045-.0604-.0584-.106-.1187-.1015Z" fill="#063a7c" fill-rule="evenodd" stroke-width="0"/><path d="M155.952,285.8298c0,.0709-.0584.127-.1293.1256l-2.696-.0377c-.0698-.002-.1262-.0581-.1259-.1293l.2115-15.1523c0-.0709.0584-.127.1292-.1256l2.6961.0377c.07.002.1261.0581.1258.1293l-.2114,15.1523Z" fill="#063a7c" fill-rule="evenodd" stroke-width="0"/><path d="M146.2362,238.5941v1.9667h-7.4486c.0802-.7484.3229-1.4556.7254-2.124.4025-.6687,1.2002-1.5565,2.3873-2.6637.9576-.8929,1.5435-1.4996,1.7601-1.817.2917-.4386.4388-.8723.4388-1.3034,0-.4748-.1265-.8388-.3819-1.0942-.2531-.2554-.604-.3818-1.0505-.3818-.4439,0-.7948.1341-1.0582.4025-.2607.2659-.4104.7098-.4515,1.3317l-2.1217-.2117c.1267-1.1716.5215-2.0129,1.1874-2.524.6658-.5085,1.497-.7639,2.4956-.7639,1.0945,0,1.9537.2968,2.581.8878.6244.591.9368,1.3266.9368,2.2065,0,.5009-.0904.9757-.2684,1.4301-.178.4515-.4621.9238-.8516,1.4193-.2556.3305-.7228.8027-1.3938,1.4196-.6735.6168-1.0995,1.0247-1.2775,1.2285-.1806.2012-.3252.4-.4363.591h4.2276ZM152.1243,229.4113c1.0735,0,1.9123.3844,2.5189,1.1537.7203.9085,1.0814,2.4182,1.0814,4.5244,0,2.1033-.364,3.6158-1.0891,4.5345-.6015.7589-1.4377,1.1382-2.5112,1.1382-1.0788,0-1.9485-.4156-2.6093-1.2467-.6607-.8309-.9909-2.3151-.9909-4.4467,0-2.0931.3636-3.6006,1.089-4.5193.6013-.7588,1.4375-1.1381,2.5112-1.1381h0ZM152.1243,231.1767c-.2531,0-.4802.0825-.6763.2477-.1987.1625-.3535.4567-.4621.8825-.1442.5499-.2165,1.4791-.2165,2.7825,0,1.3059.0643,2.2013.1936,2.6892.129.4878.2914.813.4875.9754.1962.1627.4207.2426.6738.2426.2529,0,.4799-.0825.6789-.2477.1959-.1624.351-.4567.4592-.8827.1446-.5446.2169-1.4709.2169-2.7768,0-1.3034-.0646-2.1992-.1936-2.687-.129-.4876-.2917-.8155-.4879-.978-.1961-.1652-.4206-.2477-.6735-.2477h0ZM161.5972,229.4113c1.0737,0,1.9125.3844,2.5191,1.1537.72.9085,1.0811,2.4182,1.0811,4.5244,0,2.1033-.3636,3.6158-1.089,4.5345-.6013.7589-1.4375,1.1382-2.5112,1.1382-1.0789,0-1.9486-.4156-2.6093-1.2467-.6608-.8309-.991-2.3151-.991-4.4467,0-2.0931.3639-3.6006,1.089-4.5193.6016-.7588,1.4378-1.1381,2.5113-1.1381h0ZM161.5972,231.1767c-.2529,0-.48.0825-.6761.2477-.1987.1625-.3538.4567-.4621.8825-.1445.5499-.2168,1.4791-.2168,2.7825,0,1.3059.0646,2.2013.1936,2.6892.129.4878.2917.813.4878.9754.1962.1627.4207.2426.6736.2426s.4801-.0825.6789-.2477c.1961-.1624.3509-.4567.4594-.8827.1443-.5446.2166-1.4709.2166-2.7768,0-1.3034-.0643-2.1992-.1936-2.687-.129-.4876-.2914-.8155-.4876-.978-.1961-.1652-.4209-.2477-.6737-.2477h0ZM171.0703,229.4113c1.0734,0,1.9122.3844,2.5188,1.1537.72.9085,1.0814,2.4182,1.0814,4.5244,0,2.1033-.3639,3.6158-1.089,4.5345-.6015.7589-1.4378,1.1382-2.5112,1.1382-1.0789,0-1.9489-.4156-2.6093-1.2467-.6608-.8309-.9913-2.3151-.9913-4.4467,0-2.0931.364-3.6006,1.0893-4.5193.6013-.7588,1.4375-1.1381,2.5113-1.1381h0ZM171.0703,231.1767c-.2532,0-.4802.0825-.6764.2477-.1987.1625-.3535.4567-.462.8825-.1446.5499-.2166,1.4791-.2166,2.7825,0,1.3059.0643,2.2013.1933,2.6892.1293.4878.2917.813.4879.9754.1961.1627.4206.2426.6738.2426.2528,0,.4799-.0825.6786-.2477.1961-.1624.3512-.4567.4595-.8827.1445-.5446.2168-1.4709.2168-2.7768,0-1.3034-.0646-2.1992-.1936-2.687-.129-.4876-.2917-.8155-.4878-.978-.1962-.1652-.4207-.2477-.6735-.2477Z" fill="#073a7a" fill-rule="evenodd" stroke-width="0"/><circle cx="156.4208" cy="156.4209" r="148.7497" fill="none" stroke="#231916" stroke-miterlimit="22.9256" stroke-width=".5669"/><path d="M156.4208,0C70.0313,0,0,70.0313,0,156.4209s70.0313,156.4205,156.4208,156.4205,156.4206-70.0313,156.4206-156.4205S242.81,0,156.4208,0h0ZM156.4208,7.6711c82.1529,0,148.7497,66.5969,148.7497,148.7498s-66.5968,148.7497-148.7497,148.7497S7.6711,238.5737,7.6711,156.4209,74.268,7.6711,156.4208,7.6711Z" fill="#073a7a" fill-rule="evenodd" stroke-width="0"/></g></svg>