<?xml version="1.0" encoding="UTF-8"?><svg id="b" xmlns="http://www.w3.org/2000/svg" viewBox="0 0 237.2771 237.231"><g id="c"><path d="M65.9867,71.2018h0c-.887.3912-20.6895,18.0701-21.1842,18.8771,5.4094.0082,4.4481-.737,4.4464,4.0861-.0005,1.7935,0,3.587,0,5.3805,0,8.3982-.4422,25.4531.0326,31.9705,16.0033-.0836,32.0449.0859,47.9804-.1641-.1191.7571-3.5272,6.0653-4.0476,7.122,16.5906.3345,35.0614-.341,51.5092.0462-.6321-1.8632-3.7655-5.8495-3.8906-7.1427,7.7208-.1077,46.9639.3076,47.8749-.0431.599-1.6656.1302-35.8115.1602-40.7931l3.4758-.0071c-.3625-.6633-3.871-3.6955-5.2174-5.0352-.8592-.8546-1.6798-1.6262-2.581-2.5435l-2.7226-2.4012c-.9034-.9068-1.73-1.7354-2.5821-2.5418-.612-.5786-.8413-.6143-1.4403-1.1237-1.652-1.4046-4.3344-4.7398-6.5146-6.188-2.4505,1.6427-2.0661,2.3788-3.907,2.3788h-39.1348c-1.3416,0-3.422-2.5211-4.8716-4.0144-1.0613-1.0933-3.5334-3.9271-4.608-4.4175-1.5971,1.582-2.9095,3.0291-4.4484,4.5725-1.6172,1.6217-3.2908,3.8594-4.775,3.8594h-40.4799c-1.8388,0-1.7869-.913-3.0744-1.8777M96.8718,88.3719h0l3.0941.0297.159-2.6912c1.1747-.6437.47-.0272,1.313-.9303l17.5827-17.5584c2.9242,2.7,6.2456,6.3304,9.199,9.2877.9615.963,1.4618,1.461,2.3105,2.3029l2.1496,2.4627c1.5151,1.5778,3.0877,3.4597,5.017,4.4354l.0822,2.6697,3.3471-.0023-10.9145-11.2966c-3.8035-3.7931-7.5172-7.5762-11.2283-11.2635-2.5418,1.7456-10.8683,11.1464-13.909,14.1452-1.0109.9966-1.8204,1.8119-2.8222,2.8142-.8433.8439-4.9672,4.7483-5.3802,5.5948ZM70.4804,75.0777h0l.3121-.7336,1.948.0014c.2358.9246.0281,1.4995.1613,2.1359.2154,1.0312-.1004.3002.3838.8864l.0207-2.9662,1.9227-.038c.2302,1.6467-.303,4.176.328,5.328l.2044-5.3356,1.8422-.0088c.2892,1.1744.114,3.9994.1106,5.4788-.0031,1.2886-.0689,1.2659.3951,1.9066l.0437-7.3375,2.241-.0295c-.0232,1.6631-.0788,3.2819-.0788,4.9396,0,1.5605-.2729,3.8909.4017,4.7379-.0184-2.1612-.2971-7.9685-.0493-9.6055l2.0001-.072c.3918,1.7291-.0564,8.367.0845,10.5945l.4221-10.6237,1.8592.0221.1454,14.0905c1.3363.3118,8.8362.2817,10.2504.0482.2086-3.0127-.4725-12.0085.1567-14.1449l1.8998.0314c.5823,2.592-.3614,9.7328.2702,11.5121.5462-.7328.134-9.5888.2642-11.4582l1.8824-.0899c.3666,1.2555.1489,3.0972.1489,4.445-.0003.8765-.2024,3.6752.2664,4.3322l.1301-8.848,2.0064.0116.0527,6.6302c.608-.6647.3532-5.3455.3504-6.5681l2.1214-.0488-.0691,3.2066c.1309.8274-.4655-.2106.2758.7755l.0793-4.0002,1.9704.015c.1148.2426.0961.0428.2058.6602.049.2775.0655.7214.0859,1.0173.6327-.8297.2287-.5337.4439-1.5596.0689-.0102.7843-.1034.8022-.11l-39.5478-.5241c.0567.0833.1652.061.2018.1732.1689.5148.7432-.0833,1.0533,1.122ZM130.0485,75.5241h0c-.0496-.0578-.0808-.1553-.106-.2024-1.0848-2.012-.663-.2883-1.6753-1.5069l39.2624-.009c-.2848.3279-.2401.4909-1.3631.5856-.1959.0167-1.1024-.0513-1.3953-.0547-.2443,1.0281.1344,1.3416-.5031,2.4743l-.1208-2.4508-1.9442.0652.011,4.7316c-.9326-1.0993-.0383-2.8797-.5553-4.8081l-1.7504-.0088c-.3141,1.311-.0728,3.7182-.1037,5.2316l-.5188-5.2138-2.1339.0811c.066,3.0376.2296,6.2374-.1278,9.239-.3501-3.0802-.2625-6.1934-.1123-9.2869l-2.0597.0128-.1006,9.0011c.002.1482-.0513,2.9798-.2704,2.4823-.0162-.0369-.0683.1497-.1111.2154l-.1401-11.7655-1.7472.0244c-.3538,1.3108-.1409,5.3697-.1409,6.9934,0,7.7264,2.103,7.5109-8.4869,7.2734-1.0576-.0238-.8567.1358-1.5503-.3467-.9873-1.9324.4606-11.0554-.3728-13.9246-.8679-.0238-1.6642.085-2.1937.0924l-2.1234-.0859c-.4224,1.4009-.127,6.8735-.1684,8.7761-.667-.79-.3458-3.1955-.3458-4.347,0-1.3113.1768-3.1861-.1069-4.4231l-1.9188.0674-.1698,6.2516c-.7242-.9539.0377-4.8274-.405-6.3443l-1.8474.0933c-.1159.9159.3376,2.8823-.392,3.558l.0008-3.7099c-2.031.0198-2.2047-.5502-2.213,1.2384ZM100.9928,86.3746h0c1.1464-.6934,3.7786-3.4997,4.7427-4.47.8515-.8572,1.2787-1.5931,2.1438-2.4675l11.077-11.0444,14.1806,14.2186c3.0931,3.5067,3.7766,3.3094,3.6388,5.9312l-35.7656-.0014-.0173-2.1665ZM46.5166,89.5519h0c.4201-.7764.1942-.8152,1.3272-1.5528,1.8343-1.1942,7.5393-6.7652,9.5326-8.3608l2.3953-2.1943c.5494-.5122.6449-.4892,1.1628-.9176,1.7322-1.4326,3.2788-3.5988,5.307-4.1371.4541.678,1.7564,1.5542,2.4633,2.1248l12.8415,11.5172c2.8534,2.5529.9797.739,2.5311,1.7634.8079.5335.72.7112.8682,1.7572h-38.429ZM87.2513,89.483h0c-.4841.4723-.1712.0358-.2763.3711-.4357,1.3881.4254-.472.0201.3912l-3.6014.0022.0051,16.5181c2.2252.015,12.3964.2798,14.1684-.2282.2415-1.5196-.3759-2.8494-.7821-4.2979l1.3445-.0224.0011-12.7343-10.8794.0002ZM142.3339,104.9477h0c-.6871-.485-.4405.3821-.523-2.3266-.7194.7985-1.1931,2.7164-1.1818,4.1422l13.4816-.0113.0241-16.037-4.0088-.0187c-.0408-.7966.472-.7115.5443-1.0497.0201-.0941.1018-.0947.1471-.1899l-10.8371.0621c.072,2.2113.0246,4.4784.0246,6.696,0,6.783-.572,6.1571,1.9231,5.8691.6159.5734-.1072-.7467.3072.5505.1228.3838.0888.3214.1197.718.0306.3954-.021,1.1545-.021,1.5953ZM155.9141,86.0908h0l11.0846-10.5647c.7977-.8028,1.1378-1.0947,1.9125-1.7079.4286-.3393.5208-.5023.8799-.8541,1.7881-1.7498,2.1354-.3736,3.4733.7441l7.835,7.289c.0586.0468.3671.2688.4444.3283l4.358,4.2403c1.0837,1.2365,3.4676,2.7511,4.2248,4.1933l-38.0262-.0005,3.8137-3.6678ZM99.0409,90.5784h0l-.0198,11.5806,2.4383.0584c-.0657-5.6066-.8756-8.8146,5.264-8.8146,5.544,0,4.7058,4.0569,4.6009,8.78l1.8255.0326c-.0527-6.6852-1.4703-11.2325,6.1271-11.2325,7.5002,0,5.8705,5.019,5.8555,11.2322l1.6282-.0272c.2413-5.0292-1.324-8.7851,4.8141-8.7851,5.9839,0,5.209,3.5651,5.0607,8.7919l2.4678.0207-.0008-12.7258-38.3363-.0049c-1.4293,0-1.7252-.538-1.7252,1.0937ZM114.0597,95.9585h0v5.1242c0,1.8028-.1893.7829.6055,1.1361.6812-1.1415.0479-4.7681.3308-6.7184.3146-2.1719,1.9477-2.9956,4.2809-2.9956,6.6416,0,3.0781,7.2062,4.3554,9.6794,1.1225-.248.3909-2.7289.6659-5.5734.4898-5.0639-4.4272-5.1299-7.4696-4.4278-2.3.5307-2.7689,1.2683-2.7689,3.7755ZM102.8799,102.2185h0c1.199-.5751.2001-2.0046.6244-4.615.2503-1.5398,1.1254-2.3554,2.7159-2.431,3.2066-.1531,3.1819,2.5852,3.1394,4.6329-.0062.2937-.0462,1.061-.0264,1.3014.1182,1.4536-.1814.6721.4641,1.1081.655-.2886.6497-.0205.6046-2.4098-.0559-2.9795.7897-5.4059-3.9348-5.4816-4.7874-.0766-4.0541,2.476-4.083,5.2237-.004.3571-.0544,1.2758-.0275,1.5613.1508,1.6038-.2316.6641.5233,1.11ZM128.244,102.2166h0c1.0959-.6021.1797-2.183.5652-4.6636.2421-1.5576,1.0403-2.353,2.7683-2.3715,4.7067-.0501,2.3769,5.4683,3.3276,7.007,1.2714-.0445.8887-.718.8649-2.1206-.0542-3.2051.7257-5.5023-3.6743-5.7319-1.7963-.0939-3.9821.1094-4.3257,1.9306l-.1,4.5907c.0635,1.5917-.1789.9865.574,1.3593ZM115.8898,96.4707h0c0-2.5058,1.182-3.1901,3.6306-3.0554,3.9512.2171,2.9531,3.5589,3.0379,8.7828l-6.6807.0088.0122-5.7362ZM129.6891,102.2194h0c.0266-2.717-.8325-6.2632,2.0727-6.1509,2.6855.104,1.9791,3.0674,2.0287,6.1441l-4.1014.0068ZM104.5441,102.1953h0c-.4193-1.0579-.2753-2.7493-.1945-3.9509.2132-3.1723,3.9819-2.8897,4.0839.0139.0391,1.1131.1052,2.8763-.1165,3.9336l-3.7729.0034ZM97.9671,103.1863h0l42.3933-.0343-.519,2.0185-41.0607.08-.8136-2.0642ZM51.6771,90.2481h0l30.8089-.0008.0034,16.5259-30.7925-.0946-.0198-16.4305ZM155.1867,90.732h0l31.0862-.0199-.0133,16.066-31.0768-.0083.0039-16.0378ZM113.1217,129.8232h0c.3365-11.5214-2.4806-19.8936,7.5938-18.332,5.0156.7779,4.4127,3.4158,4.4189,8.038.0028,2.1367.0127,4.2777.0059,6.4139-.007,2.2229-1.161,4.665,1.6166,3.9036.5605-1.4939.2121-8.159.1766-10.3348-.0436-2.6799.0845-5.292,4.6466-5.3187,4.0688-.0238,4.9822,1.7274,4.9601,5.5916-.0105,1.8097-.3161,9.0462-.0176,10.1719l2.4049-.0352c.4124-1.4706.1307-14.9442.1738-18.5935l-.3008-2.3967c-1.7493-.434-26.2735-.1642-30.2842-.1642-10.3641,0-9.5443-.7605-9.489,2.0367.1233,6.2499-.1587,12.6369.0318,18.9958l2.6455.04c.1514-3.2902.0794-6.9979.0326-10.3136-.0399-2.7975.1922-5.4266,4.7155-5.3311,6.8473.1446,4.2655,6.2011,4.6068,15.6169l2.0622.0114ZM114.6652,129.832h0c.5678-.8944.2925-4.0227.2925-5.1787,0-5.9499-1.0355-11.5979,4.29-11.4644,3.8188.0961,4.2301,2.6308,4.2219,6.3403-.0034,1.6061-.3713,9.458.1627,10.2857.5604-.3248.3538.2509.5573-1.0383l.0187-4.3795c0-1.8717-.0981-4.0246.019-5.8618.2611-4.0963-.4379-6.237-4.9484-6.3065-1.6858-.0261-3.8444.5675-4.5692,1.4641-1.1004,1.3615-.6063,11.1906-.6559,13.7837-.0437,2.2797-.0445,2.0784.6114,2.3554ZM103.1361,129.8288h0c.5125-.7664.3019-2.9168.3016-4.1507-.0005-4.3382-.8217-9.6109,3.0192-9.5057,3.7624.1029,2.9075,5.5068,2.9038,10.0182-.0017,2.224-.3727,3.1374.4366,3.6422.4385-.6613.3242-1.4794.3104-2.3604l.1496-6.6626c.004-3.469.2254-5.5924-3.7885-5.684-5.0267-.1145-3.9543,3.5093-3.9563,10.5523-.0006,2.0143-.3631,3.7048.6236,4.1507ZM128.5,129.6658h0c1.6378-2.34-2.1963-13.3423,3.0764-13.488,3.0776-.0851,3.1436,2.6492,3.1317,5.4008l.197,8.1215c1.1223-.712.6727-3.1209.6716-4.278-.0074-6.7558,1.0199-10.349-4.0026-10.2986-4.9753.0502-3.8616,3.6848-3.8684,10.8108-.0011,1.3601-.5054,3.566.7943,3.7315ZM133.3679,129.3529h0l-3.6697.0471c-.008-2.4296-.0009-4.8694-.0026-7.3089-.0017-2.0996-.5621-5.43,2.3757-4.968,2.433.3827,1.7167,5.4054,1.7008,9.0774-.0042,1.0355.017,2.3244-.4042,3.1524ZM122.2737,129.6673h0l-6.2657.0085c-.3833-1.9202-.118-7.115-.1182-9.3782-.0006-3.3877-.5729-6.2643,3.3893-6.1914,3.682.068,3.2644,3.0453,3.2639,6.1914-.0006,2.4781.3648,7.3143-.2693,9.3697ZM108.3947,129.155h0c-1.1668.4612-2.751.239-4.0153.1579-.1261-2.3425-.0354-4.8588-.0397-7.2218-.0037-2.2898-.5029-4.9983,2.1325-4.9901,2.4409.0076,1.9508,2.7728,1.9497,4.9898-.0011,2.31.0836,4.7744-.0272,7.0642ZM50.0225,90.5197h0c1.26.2735.7489.6746.7489,4.4141-.0003,5.8036.2393,34.5696-.157,35.6088-.3767-.1386-.633.1335-.6151-1.7702l.0232-38.2527ZM51.8452,107.7685h0l30.6085-.0754.03,22.8844-30.6102.0073-.0283-22.8163ZM83.4064,107.7013h0l.0184,22.8867,14.5185-.0959c.4173-1.599.1727-14.4453.1752-17.8806.0009-1.042.3543-4.6576-1.1313-4.9176l-13.5808.0074ZM140.7981,107.735h0l-.4604,1.0616c-.2457.5114-.0507-.1579-.2497.5525-.3671,1.3104-.0692,20.681-.004,21.2261l14.0261-.0079-.0671-22.8606-13.2449.0283ZM155.189,107.7294h0c3.2108-.1695,29.7669-.2804,31.0561.14l.0111,22.5465c-1.4219.4425-27.7668.3053-31.0547.1341l-.0125-22.8206ZM187.6828,90.7116h0v39.8656c-.7302-.4561-.4972-.7019-.487-1.8057l.0074-37.1817c.1352-.7784-.11-.5157.4796-.8782ZM98.7229,130.7801h0c7.1189-.1683,14.4184-.0294,21.5787-.0294,3.4974,0,7.3012-.1435,10.7603.0039,1.8593.0794,3.4744.1766,5.3813.1698,2.3477-.0079,3.0138-.5618,3.7386,1.5716l-42.2407.049.7818-1.7649ZM95.9361,135.3794l46.1883-.0715,1.1347,2.3893-48.5087.0196c.3407-1.0791.7798-1.4355,1.1857-2.3374Z" fill="#a82226" fill-rule="evenodd" stroke-width="0"/><path d="M74.267,8.8433h0c-.377.3524-7.1578,3.2911-8.4566,3.9203-2.7315,1.3238-5.7575,3.0062-8.261,4.5502-11.7842,7.2669-16.9983,12.2686-26.076,21.3296-.6766.6755-.8464,1.0927-1.5216,1.8091l-5.6835,6.8697C-2.8672,82.4313-7.6138,133.1474,14.3649,174.4708c3.0019,5.6441,8.5167,14.1089,12.6426,18.8824,1.0176,1.1773,2.044,2.2522,2.9874,3.4195,1.9131,2.3669,4.1057,4.4736,6.2356,6.5704,15.2224,14.9865,39.9124,29.7788,69.0041,32.6908,36.1896,3.6227,63.5343-6.9567,87.4619-25.4094l3.4582-2.9438c1.0582-.9459,2.2995-2.033,3.3537-3.0512,2.0866-2.016,4.3141-4.0351,6.2853-6.2674.5641-.6387.7545-1.054,1.3714-1.7039,4.6998-4.9502,11.2957-14.5917,14.5794-20.5317,1.8352-3.319,6.7666-13.1984,8.1541-17.2133,2.2879-6.6215,4.0216-12.8424,5.2714-20.0761.6176-3.5768,1.07-7.4985,1.3345-11.1342.5545-7.6241.2883-16.6258-.7554-24.012-1.1929-8.4394-3.2423-17.4133-6.3661-25.3375-.667-1.692-.8342-3.0889-1.5803-4.83-2.5568-5.9675-5.3311-11.6507-8.5663-16.8021-3.7023-5.8952-8.7548-12.9889-13.6423-17.8735l-3.0563-3.3475c-2.2312-2.2053-4.1-3.8755-6.6172-6.1945l-14.5293-10.9103c-1.7722-.724-3.8749-2.2201-5.5105-3.1206-5.9168-3.2576-10.5928-5.3578-17.0734-7.7826C135.7394-1.1383,110.5572-1.4827,86.7527,4.7671c-3.359.8816-11.6314,3.9081-12.4857,4.0762M52.7075,23.5872c.6803-.9074,1.1716-1.0409,2.1821-1.7544l7.1595-4.377C87.9455,2.8398,121.2892-1.4172,149.7496,7.0612c10.1203,3.0149,17.979,6.1435,26.8067,11.3802.8818.523,1.5828.857,2.4528,1.3788.7852.4711,1.4187,1.0023,2.3026,1.5517,2.7405,1.7045,8.5958,5.8691,11.0027,7.954l6.1307,5.3986c2.6122,2.5475,4.809,4.9876,7.3627,7.755,2.6462,2.8678,11.5039,14.6568,12.7358,17.7849,2.1504,3.3208,5.4865,10.5168,7.1464,14.3603,1.7272,3.9988,4.2571,12.0152,5.1863,16.0781,3.1258,13.6675,4.0691,23.9938,2.9537,38.8207-1.7745,23.5954-12.8273,46.3099-24.4888,60.8548-3.8568,4.8104-5.6922,6.844-10.1823,11.3386l-8.5839,7.5495c-9.5975,7.1801-17.7738,12.6876-30.3012,17.3812-45.6095,17.0884-93.5762,5.4-126.0743-28.7025C10.7091,173.2953-1.2508,137.2879,3.8456,102.5017c2.9409-20.0752,10.2897-37.3858,21.8344-53.0002,2.6555-3.5915,4.7324-5.7597,7.1359-8.7506l7.8908-7.986c.9134-.7965,1.9211-1.6294,2.9515-2.4293l5.9391-4.8231c1.4145-1.0936,2.24-1.9041,3.1102-1.9253Z" fill="#a82226" fill-rule="evenodd" stroke-width="0"/><path d="M68.3564,11.0716h0c-1.2472.5582-2.3266,1.0409-2.7592,1.2504-1.3476.6531-2.7607,1.3898-4.1434,2.1512-1.4389.7926-2.8636,1.6231-4.1618,2.4239-5.912,3.6457-10.1795,6.7264-14.1103,10.0344-3.9342,3.3106-7.5116,6.8306-12.0538,11.3644-.3762.3756-.6046.6766-.8408.9873-.189.2489-.3843.506-.6922.8331-1.5831,1.7149-4.3852,5.0346-5.7146,6.9063C10.1442,64.7953,2.1201,86.5478.3663,109.0651c-1.7254,22.1561,2.619,45.0564,13.5647,65.6362,1.5709,2.9537,3.8341,6.6861,6.2305,10.2651,2.1901,3.2712,4.4912,6.412,6.4752,8.7074.3631.4199.7636.8666,1.1591,1.308.6191.6902,1.2285,1.3702,1.817,2.0982,1.7617,2.1798,3.7502,4.1329,5.7109,6.059l.5633.5536c8.2658,8.1374,19.3104,16.2184,32.328,22.3855,11.0599,5.2393,23.5482,9.0998,36.9714,10.4434,18.165,1.8184,34.113.072,48.5235-4.4456,14.4096-4.5167,27.2781-11.8029,39.2862-21.0634.7367-.6531,2.7794-2.5333,3.4849-2.965l.5888-.525c.9096-.8096,1.8978-1.6892,2.7785-2.5398.4564-.4408.9297-.8915,1.4051-1.3442,1.6608-1.5812,3.3543-3.1935,4.9068-4.9519.2766-.3129.4589-.5612.6386-.8059.2047-.278.4062-.5519.7217-.8844,2.2283-2.3471,4.8765-5.7364,7.3985-9.288,2.8335-3.9906,5.5111-8.1893,7.2558-11.3454,1.0579-1.9142,3.1456-6.0083,4.9927-9.9082,1.3626-2.8763,2.5965-5.6534,3.1938-7.382,1.15-3.3281,2.1597-6.5511,3.0364-9.843.8799-3.3032,1.6294-6.6812,2.2558-10.3102.3028-1.7535.5664-3.5886.7872-5.4309.2313-1.9318.4173-3.8777.5536-5.7509.279-3.8423.3504-8.0405.2194-12.2111-.1295-4.1255-.458-8.2168-.9788-11.9029-.6284-4.4473-1.4938-9.0411-2.6263-13.5496-1.0272-4.0887-2.2759-8.1125-3.7686-11.8993-.3025-.7671-.5001-1.4726-.6974-2.1799-.2378-.8498-.4762-1.7002-.8889-2.6637-1.2818-2.9922-2.6195-5.915-4.0419-8.7355-1.423-2.8213-2.933-5.5437-4.561-8.1354-2.0256-3.2261-4.454-6.8088-7.0373-10.1931-2.1551-2.8236-4.4212-5.5131-6.6566-7.7497l-3.0755-3.3667c-1.753-1.7325-3.2999-3.1507-5.1203-4.8194-4.892-4.4972-10.7898-8.3472-16.1254-12.3648l-.0598-.0243c-1.1098-.4533-2.3828-1.2382-3.5774-1.9747-.6689-.4124-1.3149-.811-1.8816-1.123-2.9681-1.6339-5.6273-2.979-8.3599-4.2205-2.7193-1.236-5.5196-2.3712-8.7786-3.5907C147.629,2.7871,135.7705.5378,123.8163.0857c-12.4472-.4708-24.999,1.0066-37.1883,4.2075-2.0364.5349-5.7779,1.8198-8.6581,2.8094-1.9398.6664-3.4864,1.1976-3.7971,1.2586l-.1346.0263-.1054.0987c-.1871.1749-3.1955,1.5207-5.5764,2.5854M74.4518,9.3042h0c-.7127.4332-3.4713,1.6671-5.6957,2.6621-1.2251.5479-2.285,1.0224-2.7326,1.239-1.3215.6403-2.7195,1.3697-4.0975,2.1285-1.4485.7977-2.8578,1.6186-4.1193,2.3964-5.8719,3.6213-10.1041,6.6753-13.9952,9.9499-3.8883,3.272-7.4571,6.7842-11.9922,11.3111-.3379.337-.542.6058-.7526.8836-.207.2721-.4207.5536-.7393.894l-5.6809,6.8664C11.0357,65.2505,3.0842,86.8134,1.3454,109.1385c-1.7115,21.9767,2.5974,44.6904,13.4535,65.1019,1.5642,2.9409,3.8078,6.6427,6.1767,10.1806,2.1685,3.2394,4.4445,6.3462,6.4024,8.6114.4064.47.7786.8852,1.1474,1.2965.6381.7118,1.2668,1.4128,1.8516,2.1365,1.7272,2.137,3.6944,4.0694,5.6341,5.9746l.5633.5539c8.1944,8.0674,19.1469,16.0798,32.0593,22.197,10.9681,5.1961,23.3481,9.024,36.6488,10.3555,18.0241,1.8042,33.8443.0723,48.1354-4.4076,14.2917-4.4799,27.0604-11.7105,38.9792-20.9024l3.4322-2.9211.5879-.5261c.9125-.8127,1.9046-1.6954,2.7513-2.5132.4703-.4541.9383-.9,1.4089-1.3482,1.652-1.5726,3.336-3.1762,4.8495-4.89.2333-.2639.4084-.5023.5808-.737.2225-.3028.4419-.601.8022-.9805,2.1963-2.3131,4.8135-5.6642,7.3103-9.18,2.8088-3.9555,5.4632-8.1187,7.194-11.2496,1.0539-1.9063,3.1306-5.9791,4.9663-9.8544,1.3535-2.8579,2.575-5.6026,3.1552-7.2825,1.1379-3.293,2.1394-6.4919,3.0136-9.7738.8713-3.2706,1.614-6.6209,2.2365-10.2257.2996-1.7342.5607-3.5527.7795-5.381.2308-1.9233.415-3.8532.5497-5.7047.2778-3.8223.3492-7.9861.2194-12.1114-.1282-4.0833-.4542-8.1385-.9712-11.7989-.623-4.4093-1.4819-8.9674-2.607-13.4464-1.0179-4.0513-2.2538-8.0348-3.7301-11.7799-.3155-.8-.5216-1.5361-.7274-2.2723-.2302-.8192-.4598-1.6398-.8476-2.5441-1.2738-2.9744-2.603-5.8779-4.0149-8.6785-1.412-2.7995-2.9075-5.4956-4.5145-8.0547-2.0098-3.2003-4.4206-6.7572-6.9874-10.12-2.1373-2.8-4.3807-5.4626-6.586-7.6671l-3.0731-3.3644c-1.7634-1.7419-3.2847-3.1369-5.0748-4.7776l-1.5004-1.3762-14.4539-10.8533c-1.1738-.4884-2.457-1.2798-3.6623-2.0228-.6401-.3948-1.2583-.7761-1.8391-1.0958-2.9486-1.6234-5.5863-2.9577-8.2908-4.1865-2.7176-1.2348-5.4964-2.3624-8.7174-3.5674-11.2484-4.2086-23.0037-6.4381-34.8551-6.8865-12.3488-.4669-24.8046.9998-36.904,4.1765-1.9655.5154-5.7081,1.8012-8.5886,2.7905-1.8437.6335-3.3381,1.1469-3.837,1.2724ZM54.4208,22.7317h0c-.5194.3313-.8822.5632-1.3218,1.1491l-.1423.19-.2379.0059c-.5425.0131-1.1712.5145-2.09,1.2473-.2111.1681-.4362.3478-.7282.5734l-5.9431,4.826c-.5063.3932-1.0023.79-1.4794,1.1829-.4927.4056-.974.8138-1.4338,1.2143l-7.8607,7.9555c-.8926,1.1103-1.7365,2.103-2.581,3.0965-1.434,1.6878-2.8723,3.3801-4.5289,5.6206-5.7475,7.7734-10.451,15.9707-14.0842,24.7238-3.6317,8.7505-6.1934,18.0584-7.6581,28.0559-2.5169,17.1808-.856,34.6606,4.3115,50.9096,5.2509,16.5113,14.1234,31.7543,25.9118,44.1247,16.2967,17.1009,36.4978,28.5423,58.3359,33.514,21.5331,4.9023,44.6615,3.5167,67.2123-4.9326,6.2299-2.334,11.3816-4.8727,16.1705-7.7215,4.7871-2.8477,9.2075-6.0021,13.9779-9.5698l8.5816-7.5478c2.2232-2.2258,3.7939-3.8472,5.29-5.5117,1.499-1.6679,2.9172-3.3726,4.8362-5.7668,6.2087-7.7442,12.2454-17.8169,16.7888-29.1073,3.9503-9.8163,6.7711-20.5526,7.5926-31.4764.5556-7.3871.5986-13.6523.1136-19.7706-.4853-6.1197-1.4986-12.096-3.0557-18.9042-.4782-2.0911-1.3825-5.2339-2.3817-8.331-.9312-2.8874-1.9471-5.7391-2.7779-7.6629-.9533-2.2074-2.4614-5.5236-3.9779-8.5714-1.1151-2.2414-2.2317-4.3317-3.128-5.7161l-.0287-.0442-.0175-.044c-.5225-1.3266-2.5044-4.3222-4.7886-7.5118-2.946-4.1145-6.3777-8.5226-7.8514-10.1196l-1.1239-1.2209c-2.088-2.27-4.0026-4.3518-6.202-6.4979l-6.131-5.398c-1.1288-.9788-3.0229-2.4185-4.9935-3.8429-2.1994-1.59-4.5006-3.1655-5.9437-4.0632-.4354-.2704-.8167-.5414-1.1843-.8022-.3697-.2619-.7254-.5145-1.1106-.7455-.4428-.2659-.8394-.4811-1.2376-.6974-.3966-.2154-.7966-.4328-1.2136-.68-4.3934-2.6059-8.5453-4.6876-12.8568-6.4922-4.3149-1.8054-8.795-3.3364-13.8404-4.8393-14.0718-4.1921-29.3465-5.256-44.318-3.4818-15.1665,1.7978-30.0169,6.5064-42.9871,13.8237l-7.1411,4.3665c-.2644.1863-.5167.3473-.7423.4913ZM52.4518,23.1183c.483-.5998.8861-.8575,1.4428-1.2124.2002-.1278.4238-.2704.7127-.4745,2.0072-1.2892,5.1565-3.3789,7.2017-4.4016,13.0915-7.3888,28.0735-12.1419,43.3672-13.9547,15.1002-1.7895,30.511-.7152,44.7137,3.5158,5.0746,1.5117,9.5848,3.0532,13.936,4.8742,4.3546,1.8224,8.5462,3.9237,12.9801,6.5537.44.2608.8127.4637,1.1823.6644.4119.2234.821.4456,1.2722.7163.4204.252.7912.5154,1.1758.7881.3479.2469.709.5031,1.1345.7676,1.4462.8994,3.7681,2.4902,5.9978,4.1017,1.9984,1.4451,3.9203,2.9055,5.0664,3.8982.3631.1914,5.5774,4.8436,6.1517,5.4179,2.2365,2.1813,4.1601,4.2727,6.2581,6.5534l1.1239,1.2209c1.5001,1.6257,4.9654,6.0746,7.9279,10.2115,2.2984,3.2091,4.3047,6.2487,4.8861,7.6819.9215,1.4309,2.0441,3.5317,3.1575,5.7688,1.5256,3.0657,3.0424,6.4015,4.0011,8.6213.8371,1.938,1.8647,4.8234,2.8086,7.751,1.0091,3.1281,1.9222,6.3017,2.4046,8.4116,1.569,6.8587,2.5897,12.8798,3.0787,19.0468.4893,6.1682.4459,12.4807-.1134,19.9202-.8294,11.0273-3.6756,21.8628-7.6617,31.7682-4.5811,11.3839-10.6705,21.5435-16.9348,29.357-1.9372,2.4162-3.3661,4.1343-4.871,5.8087-1.5032,1.6727-3.0903,3.3106-5.3456,5.5681l-8.6071,7.5725-.0309.0229c-4.8155,3.6029-9.2741,6.7856-14.0959,9.6537-4.8296,2.8732-10.0306,5.4354-16.3281,7.795-22.735,8.5181-46.0553,9.9145-67.7693,4.9711-22.0269-5.0147-42.3995-16.5518-58.8313-33.7946-11.8894-12.4759-20.8378-27.8504-26.1343-44.5048-5.2127-16.3905-6.8885-34.0209-4.3501-51.3473,1.4763-10.0775,4.0598-19.4636,7.7236-28.2904,3.6623-8.8239,8.4058-17.0901,14.203-24.9307,1.6829-2.2759,3.1274-3.9756,4.5677-5.6707.8473-.9969,1.694-1.9933,2.5798-3.0957,1.6589-2.0622,5.8978-6.1305,7.9504-8.047.4665-.4068.9606-.8257,1.472-1.2467.4932-.4059.9958-.8087,1.4981-1.1988l5.9437-4.8262c.227-.1755.4833-.3801.7203-.5689.9686-.7725,1.6608-1.3247,2.4335-1.4375Z" fill="#a82226" fill-rule="evenodd" stroke-width="0"/><path d="M46.5166,89.5519h38.429c-.1482-1.046-.0603-1.2237-.8682-1.7572-1.5514-1.0244.3223.7895-2.5311-1.7634l-12.8415-11.5172c-.7069-.5706-2.0092-1.4468-2.4633-2.1248-2.0282.5383-3.5748,2.7045-5.307,4.1371-.5179.4284-.6134.4054-1.1628.9176l-2.3953,2.1943c-1.9933,1.5956-7.6983,7.1666-9.5326,8.3608-1.133.7376-.9071.7764-1.3272,1.5528M65.4056,73.9035h0c.9445.4964,3.6853,2.7698,4.3225,3.481l-7.9084.0686c1.336-1.3039,2.4979-2.2555,3.5859-3.5496ZM73.7029,80.864h0l-15.6615.0522c.2053-1.8292,5.8938-1.1203,7.689-1.1203,1.8754,0,7.7162-.7582,7.9725,1.0681ZM77.755,84.4385h0l-23.8105-.019c1.054-1.4023,2.7556-1.108,5.1245-1.1075h13.3228c2.2884-.0003,4.5315-.4289,5.3632,1.1265ZM81.4474,87.7794c-10.0576-.1859-21.0583.0258-31.2715-.0258,1.2719-1.5392,3.3857-.981,7.0999-.981l20.755-.0032c1.8094-.0116,2.7666-.2338,3.4166,1.01Z" fill="#a82226" fill-rule="evenodd" stroke-width="0"/><path d="M155.9141,86.0908h0c-.7393,1.8366-2.0494,1.4721-2.5954,2.9356l35.7404-.0071c-.4831-1.2317-.7748-.6871-2.293-2.3885l-.4949-.5644c-.038-.0473-.0896-.1156-.1239-.1601-.0354-.0454-.0944-.1301-.123-.1681-.0289-.0383-.0868-.1117-.1225-.1724l-4.358-4.2403c-.0773-.0595-.3858-.2815-.4444-.3283l-7.835-7.289c-1.3379-1.1177-1.6852-2.4939-3.4733-.7441-.3591.3518-.4513.5148-.8799.8541-.7747.6132-1.1148.9051-1.9125,1.7079l-11.0846,10.5647ZM167.5843,77.3179h0c.5171-.9686.0732-.4.9715-1.0126,1.1687-.7973,2.3536-1.9987,3.024-2.0684,1.0981-.1148,3.0413,2.022,3.664,3.0787l-7.6595.0023ZM163.2176,80.9672h0c.498-1.1041.8535-1.3388,2.1917-1.3388h11.257c1.5392,0,1.8657.2659,2.4684,1.3292l-15.9171.0096ZM159.2043,84.7373h0c1.3187-2.0444,2.5376-1.459,5.4204-1.459h13.3225c2.9013-.0003,3.9518-.5916,5.2546,1.4754l-23.9975-.0164ZM155.5056,88.1802c.6001-1.2432,1.1761-1.1471,2.9617-1.1287l21.2734.0059c4.1522,0,6.2476-.6346,7.0844,1.1223l-31.3195.0005Z" fill="#a82226" fill-rule="evenodd" stroke-width="0"/><path d="M186.4359,38.5459h0c.621-.5003,1.6631-.7047,2.5693-.9689.9184-.2682,1.6926-.8663,2.3162-1.1863-.006-3.2029-1.7351-.7432-3.1368.1171-1.3675.8396-3.0062,1.218-3.3152,2.8689,1.3632.0706,2.8174-.483,4.0284-.7041-.7322,3.0095.7061.5088-1.7272,3.7018l-1.8672-.0735,1.7819-.5677c-1.3286-.1948-4.3634-.5613-4.7894.9351,1.4037.6007,3.5061-.2313,4.57.2563-.9819.9867-2.8347.2296-5.6137,1.4932-.9978.4539-.9831.3612-1.1387,1.325l1.4374.0524c.9553.0564.2087-.4708.9281.4601-1.1135.8336-11.0687,1.6409-9.5893,3.2394.6148.5357.3384.3467,1.4088.2633.5216-.0408.8957-.1377,1.4612-.1862l-1.6234-.4983.6001-.3972c1.4278-.646,5.921-1.0766,7.4458-1.2413-.0428.0652-.1037.1423-.1397.1874l-.277.3515c-.7206.8359-1.0973.9227-1.7016,1.4499-.0403.0352-.0981.0845-.1364.1214l-.5635.6927c-1.9539,2.4384-3.9095,2.7698-3.8154,4.7878,2.0361-.3649,1.6599-1.2728,2.872-2.6575,2.9489-3.3687,1.9086-2.7139,6.7173-2.4965-.6097,1.2662-1.4029,1.0539-1.9108,2.5322.2803,1.8853,1.5956,2.0647,3.2567,2.9934,4.4705,2.4993,5.5318,2.3805,4.4864-3.5331-.5585.902-.47,2.3822-1.0233,3.5461l-4.9068-2.7502,3.287-3.7363.0655.942c1.7901.0167,1.4111.2579,2.8772.6224l.1431-.7242c.114-.5786-.2829.2353.1129-.5182,1.4354-.1202,2.4125.2492,3.187-.9411-.3949-.593-.144-.4657-1.7422-.9337-.9312-.2727-1.2402-.3855-2.2193-.4448.7283,1.2062.9335.5687,1.4973,1.2532-4.7809.224-1.6897-.9487-6.1688.9819.2591-2.1534-.0516-1.7844,1.2836-2.9803.7151-.6409.9229-1.0616.4512-1.8201l-.3597-.4116c.671-.7801.2968-.3149.7396-1.2484l.5828-.4694c.5372-.216.9896-.4241,1.2322-.8377.2942-.502.1502-.1576.1692-1.0366.0006-.0326-.0014-.089-.0011-.1686.0011-.6784,2.2105-.6582,3.2292-1.6895l-3.4055.8626c.6848-1.6662,2.1521-.6971,3.7108-1.8173-.6704-.5542-5.4136.9805-7.2762,1.0015M186.6122,45.9491h0c.1295-1.0202.0034-.9215.5584-1.5123.237.1749.69.0678.3711.8844-.2126.544-.3855.4916-.9295.6279ZM184.0908,45.7428h0c-.8079.8209-.8204.6641-1.2623-.042.2041-.1842.3155-.2373.7398-.2219.6656.0238.277.0737.5225.2639ZM181.3284,49.3394c.2625-.586,1.0074-1.4191,1.5114-1.7896.7983-.587,1.4497-.3869,2.6178-.5062l-.5743,2.5687-3.5549-.2729Z" fill="#a82226" fill-rule="evenodd" stroke-width="0"/><path d="M86.9951,28.0974c3.8245.2063.1718-2.9645,8.0028-6.374,2.8428-1.2376,2.5613-1.0273,5.8447-1.3059,1.7833-.1517,2.4435-.2475,3.5158-3.6255-1.4439-2.0067-3.0475-1.2286-6.8975.2024-3.9595,1.4714-3.3854,1.3266-6.9596,3.039-4.417,2.1163-3.731-.1948-5.4777.1355-2.4319.46-.4901,3.1158-.0023,4.7222.5128,1.6886.65,2.5501,1.9738,3.2063" fill="#a82226" fill-rule="evenodd" stroke-width="0"/><path d="M132.223,212.128l-.5295,7.2294c-.7257-.9467-1.9744-5.362-2.4367-6.7989-3.8083-.079-2.8188.2135-2.0166,6.3428,1.0191,7.7874.156,7.0895,2.899,6.7978l-.7166-6.0307c1.0917,1.4536,1.2623,3.8545,2.1521,5.673l1.5154.0082.6242-7.0467.8889,6.717,1.791-.1301c.2528-1.3323-1.1157-11.5996-1.5446-13.0575l-2.6266.2957Z" fill="#a82226" fill-rule="evenodd" stroke-width="0"/><path d="M90.0877,222.2678c.5417.2769,1.3308.4666,2.0775.5417.5048-1.3717,1.5219-5.5687,1.7164-7.2817.3166.3365.153.0729.3798.5443l.8924,4.4132c.5479,2.9044-.1418,3.4529,2.9568,3.6686l2.6305-11.2544c.4638-1.8093.1293-2.0086-1.982-1.94l-1.6659,7.2374c-.932-1.5397-1.1423-5.2954-1.5811-7.2476-.2416-1.0738-.0199-.7665-.7113-1.1092-1.3549-.6718-1.8127-.3543-2.1078.7169-.5865,2.1297-2.5305,9.8785-2.6053,11.7108" fill="#a82226" fill-rule="evenodd" stroke-width="0"/><path d="M183.0961,188.7039c.5074,1.235,4.43,4.8276,4.8642,5.9272-6.1511-2.0781-7.2019-5.0678-9.3421-2.084.3745,1.1112,1.4125,1.9998,2.0529,2.6575,1.5312,1.5735,5.0232,6.1917,6.4995,7.2598.5692-.4162,1.0222-.7385,1.3881-1.463-.86-1.3975-1.4714-1.8853-2.4621-3.0277-.7376-.8504-1.9857-2.152-2.4109-2.855l7.8004,3.5393c1.0848-.6763,1.0882-.6185,1.6211-1.4995-.3019-.798-5.1831-6.2371-6.3383-7.5456-.9411-1.0658-1.3172-1.5806-2.1602-2.3357-.7651.3379-1.1421.6018-1.5126,1.4267" fill="#a82226" fill-rule="evenodd" stroke-width="0"/><path d="M11.195,130.5644c-.0735,3.4983.8566,1.6674,7.9971.9513-.8377,1.1078-5.1758,3.2236-7.0529,4.9227l.2653,2.1248,11.3817-1.7453c1.9876-.3106,1.919-.5519,1.1999-2.4122l-7.7919,1.1848,7.2405-4.8863-.2687-2.13c-1.2713-.1956-11.3085,1.5832-12.971,1.9902" fill="#a82226" fill-rule="evenodd" stroke-width="0"/><path d="M205.8268,157.061h0c1.1526.5488,11.3913,4.6363,12.2664,4.657.2931-.5984.5652-1.2223.6639-2.0928-1.3105-.4328-3.7497-1.3073-4.8527-1.9638.5511-1.5486.5667-1.3008,2.5042-1.4071,2.1271-.1165,3.9532.3078,4.4762-1.2731.5198-1.5715.0272-.9859-.1217-1.2109l-5.6622.3818c-.841-1.3881-.1553-1.9412-1.8813-3.0235-4.3691-2.7402-6.8219,2.5135-7.3928,5.9324M208.4996,155.5935c.8924-2.3091,1.8233-4.2894,4.1956-1.7331.2137,1.4159-.286,1.8873-.6698,3.1399l-3.5258-1.4068Z" fill="#a82226" fill-rule="evenodd" stroke-width="0"/><path d="M115.2548,214.5805h0l.2018,11.6923c3.689.5077,1.658-.9292,2.3363-5.4691,2.8715.0289,1.6546,2.5373,4.0961,5.4782l1.8544-.0374c.438-1.425-1.849-4.1672-2.2459-5.7713.8572-.6747,1.2419-.6767,1.7303-1.6997,1.1115-2.327.5324-5.798-4.9759-5.798-2.2366,0-2.9971-.4025-2.9971,1.605M121.3096,216.9018c.0672,2.0696-1.8428,1.8689-3.6689,1.8657l-.0779-3.6623c1.7399-.2058,3.6836-.1432,3.7468,1.7966Z" fill="#a82226" fill-rule="evenodd" stroke-width="0"/><path d="M45.9403,198.2478h0c.4967.3592.8961.6305,1.5999.8632,1.4162-.9658,2.1875-2.6445,3.5867-3.7789.4615.2948.5726.4411,1.025.7387l-1.5701,6.0384c.7475.5264.7722.7563,1.8261,1.1574.767-.8343,1.4074-4.5899,1.7158-5.906,1.686.1287,2.7456.1142,3.782-.8547,2.1781-2.0367,1.5757-4.4223-.724-6.1696-.949-.7211-1.4057-1.4042-2.7241-2.2325-1.2101.5649-6.1333,6.976-7.6584,8.568-.7197.7514-.7313.6318-.8589,1.576M52.4342,193.8363c.3408-.8071,1.6166-2.1977,2.2797-2.8449,3.7822,1.4222,1.9675,7.2998-2.2797,2.8449Z" fill="#a82226" fill-rule="evenodd" stroke-width="0"/><path d="M17.4465,155.6536c.127.7447.3518,1.2305.6829,1.7008l7.622-3.0575c-.6185,1.1265-5.2531,5.4746-6.1214,6.7371l.673,1.8868c1.1466-.224,11.336-4.4839,12.0424-5.0247l-.6466-1.7212-7.6442,3.0367c.3682-.8566,5.5568-6.1129,6.0996-6.5619l-.8317-2.0503-11.3618,4.7038c-.3042.1741-.3226.1908-.5142.3504" fill="#a82226" fill-rule="evenodd" stroke-width="0"/><path d="M16.7537,107.76l-.1542,3.3982-5.8856-.317-.2146,2.0223c1.1467.5975,11.3877,1.3484,13.0754,1.1449l.2154-2.13-5.0847-.4609.1332-3.5427c5.2736.125,5.7523,1.4292,5.3268-1.8703-.7633-.1851-12.321-1.4644-12.9517-.7824-.0029.0029-.8717,1.4088.2202,1.9939.1817.0972,4.6171.4504,5.3198.544" fill="#a82226" fill-rule="evenodd" stroke-width="0"/><path d="M167.0282,94.6775h0c.8073,1.8482.5961,1.8882.5936,4.3552-.0017,1.6509-.1749,3.7326.1167,5.3138l6.3017-.0142c.2861-1.5253.1098-3.4673.1083-5.0434-.0039-4.4549.0769-1.9837.4601-4.949-2.0863-1.641-5.7685-2.0775-7.5804.3376M167.9863,94.9338c.5216-.9108,2.0682-1.2025,3.0268-1.1957.5689.0043,1.1815.1432,1.6478.2994,1.2597.422,1.1693.1978.8717,1.3127-1.0494-.2633-1.5441-.9672-2.9441-.8274-1.5157.1513-1.7824,1.2877-2.6022.411Z" fill="#a82226" fill-rule="evenodd" stroke-width="0"/><path d="M53.6993,94.6775h0c.6645,2.1277.5738,2.0055.5718,4.6117-.0011,1.6852-.0105,3.3744.0054,5.0604l6.4346-.0819c.4723-3.6366-.4178-6.2328.6171-9.8535-2.1152-1.8014-5.7126-2.113-7.6289.2633M54.5971,94.5491c1.0326-.3968,1.9593-.8813,3.4582-.771.8884.0652,2.0248.2928,2.2505.9462.3126.9048-.0675.392-.1449.557-.8098.0663-1.4666-.9745-3.0702-.7614-1.7257.2293-1.8278,1.6487-2.4936.0292Z" fill="#a82226" fill-rule="evenodd" stroke-width="0"/><path d="M79.4059,104.2629h0c.3699-3.4305-.4541-6.5744.5695-9.7923-1.8885-1.8096-4.9938-2.0013-6.9435-.4385-.4513.3614-.3294.2554-.6593.6454,1.1874,3.0334.1791,6.2714.6474,9.6619l6.3859-.0765ZM73.3791,95.2705c.1174-.771-.079-.5459.4683-.9388.2359-.1698.4706-.1882.7353-.2721,2.3494-.7455,4.8513-.0201,4.2194,1.1568-.6075.174-1.351-.6976-2.573-.7183-1.2881-.0221-1.5375.6454-2.85.7724Z" fill="#a82226" fill-rule="evenodd" stroke-width="0"/><path d="M70.1944,104.2904h0c-.0042-1.6674-.0008-3.3341-.002-5.0012-.0028-4.2939.0491-1.9933.4241-4.9547-3.4852-2.728-5.847-.7441-7.5163-.0068.1567,2.1039.5853-.3534.5802,4.9612-.0014,1.5577-.1621,3.5226.0961,5.0429l6.4179-.0414ZM64.2241,95.1671c-.0488-.0887-.5967-.0788.0292-.6772.7772-.7438,5.9153-1.512,5.3149.9677-.9958-.377-1.5222-1.0102-2.7867-.9462-1.0579.0536-2.1248.8399-2.5574.6557Z" fill="#a82226" fill-rule="evenodd" stroke-width="0"/><path d="M176.4488,94.3983h0c.1798,1.9066.5967-.2562.5857,4.6344-.004,1.5967-.1128,3.6876.0567,5.2211l6.3813.0825c.224-1.5117.0845-3.5093.0837-5.0471-.0015-2.9129.3007-4.1077.3078-4.8679-2.3998-2.0792-4.9762-1.8457-7.4152-.023M177.5524,95.3204c-.2211-.8705-.0683-.8864.845-1.2373.4266-.1638,1.3581-.3387,1.8655-.3427.5425-.0045,1.3515.1862,1.8487.3455,1.637.525.7574,1.1396.7475,1.1608-.6794.1534-1.3257-.7075-2.613-.7322-1.1024-.0212-1.8759.6395-2.6937.8059Z" fill="#a82226" fill-rule="evenodd" stroke-width="0"/><path d="M157.787,94.4712h0c.1051.9762.4167.8385.5567,1.989.0847.6934.0207,1.8341.019,2.5728-.0037,1.6339-.0967,3.6136.0416,5.2021l6.452.1247c.0998-3.7624-.258-6.3799.4473-9.8852-2.499-1.8998-5.3481-2.1629-7.5166-.0034M158.8602,95.3233c-.1902-.9372-.1191-.8859.8654-1.2232,1.3643-.4674,2.2989-.4671,3.6842.002,1.0383.3515.9776.3064.8832,1.332-.8917-.3149-1.6905-.9224-2.7405-.9264-1.0678-.0042-1.855.6483-2.6923.8156Z" fill="#a82226" fill-rule="evenodd" stroke-width="0"/><path d="M106.5694,212.5231h0c-2.9899.9921-3.564,4.7611-3.607,7.6995-.0477,3.253,2.0242,6.7473,5.6185,5.4099,4.6639-1.7354,5.2827-15.5299-2.0115-13.1094M109.3582,220.2169c-.2832,1.6319-.7546,4.4555-2.9203,3.3763-1.4811-.7378-1.1089-3.9775-.8028-5.8013.9117-5.4329,4.976-4.7872,3.7231,2.425Z" fill="#a82226" fill-rule="evenodd" stroke-width="0"/><path d="M167.0959,111.843h0c.8371,3.1995.4961,6.044.5335,9.8014l6.5191-.017-.0005-7.731c.0629-.9927.3988-1.2659.3974-2.2158-1.0786-.9108-1.9701-1.3136-3.7678-1.2971-2.0163.0184-2.4937.5944-3.6817,1.4595M168.0359,112.0993c1.0763-.995,5.6701-1.692,5.6846.4322-1.6807.315-2.0307-1.7124-5.4556.2413l-.229-.6735Z" fill="#a82226" fill-rule="evenodd" stroke-width="0"/><path d="M143.3773,19.1107h0c2.4443-.9941,11.3757-3.7412,13.5459-1.5503-.6451.4595-3.2794.8861-3.8296.8572-.9175-.0476-.7849-.3172-1.3943-.536-1.999-.7175-2.3494,1.3958-4.233,2.247-2.2623,1.0222-7.4656,3.4617-7.0141,5.7305,1.8837.5984,4.9992-2.3958,6.8922-2.9568-.6457,3.3801-1.5942,4.2463-2.6711,6.7238-.6959,1.6016-2.6628,5.0029-2.0029,6.5296,1.3603.1159,1.4295-.7736,1.7492-1.9159.4085-1.4596.7061-1.6464,1.1532-2.9492l2.751-5.4275c1.9774-.0847,5.4453-.5527,4.9926-3.416-.8546-.4646-1.9522-.5942-3.2136-.6021.8827-2.1257,1.4797-2.6291,2.8868-2.8851,2.3726-.4317,4.1335-.1531,4.6882-1.474-1.3666-1.4069-5.2684-1.287-7.6609-.9661-2.8573.3836-5.2234.7492-6.6396,2.5909M143.2237,23.2992h0c1.44-1.1875,3.1989-1.9347,4.7432-2.596-.1607,1.7481-.5873,1.637-2.156,2.1317-1.2538.3948-2.1087.9187-3.2664,1.2418l.6792-.7775ZM148.6194,24.9084c.2308-.6953.6772-2.1611,1.2348-2.4636,2.3879-1.2951,5.5225,2.0529-1.2348,2.4636Z" fill="#a82226" fill-rule="evenodd" stroke-width="0"/><path d="M157.7399,111.8152h0c.8575,2.8812.7809,6.4506.5769,9.8224l6.4924-.0145c.18-3.7925-.2863-6.732.5463-9.8388-3.941-3.1595-6.833-.3398-7.6156.0309M158.7629,112.6923c-.0388-1.0403-.5017-.6937.8861-1.2101,1.19-.4428,2.6289-.4737,3.8135-.0128.8779.3419.949.3027.8169,1.3263-.8141-.2503-1.4142-.8118-2.4896-.8753-1.3661-.0805-1.9279.4944-3.0269.7719Z" fill="#a82226" fill-rule="evenodd" stroke-width="0"/><path d="M70.1862,113.8956h0c.0604-1.0443.2954-1.1325.409-2.0526-3.1915-2.8443-5.464-1.1492-7.5509-.1134.3115,1.1554.5451,1.0897.6361,2.1648l.0011,7.7383,6.5005.0117.0042-7.7488ZM64.0747,112.495c-.015-.8155-.0791-.6177.8212-.9695.6472-.2531,1.0945-.3654,1.8564-.3792,1.9573-.0352,3.0827.229,2.7422,1.6168-3.1257-1.9312-3.9254.0182-5.4198-.2681Z" fill="#a82226" fill-rule="evenodd" stroke-width="0"/><path d="M176.4463,112.0993h0c.9933,2.5951.5834,6.4848.5893,9.4646l6.5234.0635c-.0119-3.231-.3328-7.0195.4479-9.7529-1.8275-1.9695-6.0806-2.1875-7.5606.2248M177.3517,112.3555c.3251-.8518-.381-.18.6123-.7523.8691-.5006,5.3951-1.0531,4.9614,1.1302-1.0063-.095-1.131-.8394-2.6688-.8246-1.9043.0181-1.8592.9878-2.9049.4467Z" fill="#a82226" fill-rule="evenodd" stroke-width="0"/><path d="M72.448,111.843h0c.7954,1.961.4858,7.088.4946,9.8119l6.5231-.1367c-.0255-3.6674-.2305-6.3391.4825-9.6752-.2447-.2738-.1222-.1618-.436-.4266-1.7768-1.4975-5.1253-1.4443-7.0642.4266M73.4443,112.6996c.0193-1.0717.3742-1.5369,2.7902-1.5522,1.8266-.0113,2.668.2732,2.764,1.5043-1.0814-.0569-1.5502-.7273-2.7632-.7409-1.4453-.0162-1.567.46-2.791.7888Z" fill="#a82226" fill-rule="evenodd" stroke-width="0"/><path d="M53.7223,111.8572h0c1.0859,2.3301.5479,6.7881.5482,9.7461l6.5798.1474c-.2803-3.1533-.3977-7.1501.4422-9.9077-.9938-.9391-1.9253-1.4595-3.7607-1.4621-2.2096-.0028-2.6039.5956-3.8095,1.4763M54.7507,112.6194c.021-.9785.4623-1.3867,2.5271-1.4678.7832-.0306,1.9791.095,2.5492.4482.9808.6075.2988-.0709.5434.7557-1.188.796-.4127-.3331-2.5948-.4394-1.6317-.0796-1.7811.5664-3.0249.7033Z" fill="#a82226" fill-rule="evenodd" stroke-width="0"/><path d="M12.5068,120.8356c1.8822-2.0565,10.2186-.3597,10.9738-1.5318.2123-.3291.2151-1.2713.0181-1.6353-.3155-.5822-.7897-.3682-1.5687-.3192-6.1517.3872-12.5342-1.0718-11.4987,5.4601.4496,2.8381,2.2859,3.119,5.349,3.0881,1.262-.0128,7.3868.0283,7.9347-.5037.0304-.0295,1.2935-2.1771-1.514-2.1011-5.9592.1616-10.4689,1.6897-9.6942-2.4571" fill="#a82226" fill-rule="evenodd" stroke-width="0"/><path d="M218.1173,148.8377c6.9488,2.6597,7.8429-9.2636,1.3581-8.0736-2.9393.5394-3.6315,4.1125-5.4236,4.21-1.6024.0867-2.412-2.6456.0686-3.0861.4281-.076,1.9778-.0964,1.3777-2.219-3.0796-.4609-5.1259,1.0882-4.9785,4.1791.1383,2.9041,3.2624,4.6012,5.7353,2.7145.9454-.7214,1.1648-1.4681,2.1529-2.4545,3.3707-3.365,4.7328,2.054,2.1804,2.6963-1.9383.4878-2.0327-1.0293-2.4709,2.0333" fill="#a82226" fill-rule="evenodd" stroke-width="0"/><path d="M141.8523,125.1613l4.6627.1534c.0258-2.6995.0079-5.3983.0079-8.0912.0003-2.477.5808-5.7476-2.3901-5.6628-2.9413.0845-2.3057,3.9328-2.3052,5.6628.0003,2.6197-.068,5.3294.0247,7.9378" fill="#a82226" fill-rule="evenodd" stroke-width="0"/><path d="M200.7463,166.6095c.7021.7934,10.5131,6.0885,11.5322,6.2841l3.8622-6.8901c-.6452-.4057-1.0074-.6965-1.7875-.8071l-2.6303,4.7807c-.9077-.1506-2.7051-1.1424-3.435-1.7694l2.211-4.3146c-.6225-.4352-1.0108-.686-1.8692-.8258l-2.1815,4.148c-.7546-.2724-2.3542-1.0764-2.8228-1.5699.4652-1.4159,2.1875-3.5005,2.2247-4.8773l-1.4774-.6395-3.6264,6.4809Z" fill="#a82226" fill-rule="evenodd" stroke-width="0"/><path d="M59.611,203.3074c-.6219-.6676-.9094-.8719-1.789-1.2073-3.1546,4.4277,2.1606,8.4478,5.501,6.4877,1.4706-.8629,2.3431-2.9784,1.3138-5.1942-.9261-1.9942-2.7771-3.0498-1.2197-4.9011,1.0664-.26,1.864-.0414,2.3139.7596.5703,1.016-.0539,1.1571-.1902,2.208.5797.3475.9377.6891,1.7269.9034,1.3053-1.3281,1.4153-4.4419-1.5072-5.7433-2.6079-1.1611-5.3643.5062-5.2728,3.1014.0817,2.3136,2.9271,4.2321,2.2204,6.1939-.4158,1.154-2.0097,1.3746-2.9679.5599-1.1446-.9737-.5374-1.9845-.1292-3.168" fill="#a82226" fill-rule="evenodd" stroke-width="0"/><path d="M149.2394,111.7875c-1.98,1.1171-1.3522,4.1904-1.3522,7.9979.0003,4.2781-.6412,5.396.8394,5.5335.559.0522,1.9908.0201,2.6093.0071,1.5398-.032,1.099.1862,1.0956-2.9761-.0017-1.4352.136-8.352-.1075-9.1769-.3092-1.0457-1.7124-2.1597-3.0846-1.3855" fill="#a82226" fill-rule="evenodd" stroke-width="0"/><path d="M85.6744,113.8927c0,2.7655-.1508,8.6982.1307,11.1107l4.3758-.0139c.3399-2.7779.0343-7.3414.065-10.3402.0175-1.7011-.3192-2.9613-1.7703-3.2927-1.7028-.3884-2.8012.9266-2.8012,2.5361" fill="#a82226" fill-rule="evenodd" stroke-width="0"/><path d="M118.759,162.0588h0c.3937,8.3335,7.6618,7.7711,7.5308-.2206-.144-8.805-7.8826-7.221-7.5308.2206M121.4995,161.034c0-1.4306.0638-2.2209,1.1081-2.66,1.2265.737,1.012,2.1229,1.0094,3.6882-.0023,1.6001.1871,2.9355-1.2659,3.3842-1.124-.9657-.8516-2.4916-.8516-4.4124Z" fill="#a82226" fill-rule="evenodd" stroke-width="0"/><path d="M141.928,102.0839c.6159.5734-.1072-.7467.3072.5505.1228.3838.0888.3214.1197.718.0306.3954-.021,1.1545-.021,1.5953l4.1763.0258c.0414-2.3918.0119-4.816.0119-7.2215,0-1.9554.502-5.1874-1.1013-6.1719-1.2203-.7495-3.6207-.4252-3.6023,3.0844.0114,2.262-.2216,5.2846.1095,7.4194" fill="#a82226" fill-rule="evenodd" stroke-width="0"/><path d="M91.5813,114.1487l.0002,10.8048,4.5196-.189c.1236-.8037.4448-11.3834-.3214-12.4872-.2642-.3807-.9377-.885-1.6368-.9547-1.8689-.1868-2.5616,1.2407-2.5616,2.8261" fill="#a82226" fill-rule="evenodd" stroke-width="0"/><path d="M85.6756,94.165l-.0409,11.1527,4.6086-.0944c-.0258-3.4784-.034-6.9035-.0003-10.3009.0176-1.7812-.2409-2.9588-1.7784-3.291-1.6847-.3642-2.789.9916-2.789,2.5336" fill="#a82226" fill-rule="evenodd" stroke-width="0"/><path d="M147.8884,94.4213l-.0947,10.4184,4.621.1474.0162-11.0783c0-1.4667-1.0086-2.6357-2.4018-2.6158-2.4163.0343-2.1407,2.3958-2.1407,3.1283" fill="#a82226" fill-rule="evenodd" stroke-width="0"/><path d="M91.5711,105.2349l4.5739-.0508-.0107-11.0191c.0002-3.4574-3.1431-2.8409-4.1216-1.6438-.5397.6602-.4485,1.0349-.4439,2.1433.015,3.5223.0439,7.0478.0023,10.5704" fill="#a82226" fill-rule="evenodd" stroke-width="0"/><path d="M140.9392,210.3299h0c-.1604,2.2819-.72,12.0629-.3577,13.6832.8187.0116,1.2178-.1622,2.0636-.3941l.0372-4.0073,2.8961-.7288,1.817,3.4367,2.0963-.4867c-.2869-1.0292-6.2496-11.2756-6.9004-11.8723l-1.6521.3693ZM142.7157,217.5489l.0054-3.145c.7948.5454,1.4655,1.8621,1.713,2.8037l-1.7184.3413Z" fill="#a82226" fill-rule="evenodd" stroke-width="0"/><path d="M95.9693,154.7054c-6.6393.0907-40.1196-.271-42.1277.0989l.0199.936c1.5361.5667,34.6921.0621,42.3691.2169,2.0849.0419,2.2329.034,2.0472-.8158-.4308-.7129-1.2651-.4505-2.3085-.436" fill="#a82226" fill-rule="evenodd" stroke-width="0"/><path d="M183.2435,154.9347c-.7957-.3861-43.4251-.5193-44.43-.0499l-.0224,1.0599,44.3044-.0232.148-.9868Z" fill="#a82226" fill-rule="evenodd" stroke-width="0"/><path d="M13.7855,144.8136h0l4.0349-.0003.9482,2.9594-3.5459,1.9049.525,1.9355c.9864-.1596,11.2158-6.522,11.7728-7.2323l-.4631-1.658-13.7047-.0003.4328,2.0911ZM19.9855,144.7255l3.3641.0286c-.8617.6114-1.868,1.4783-3.0163,1.6515l-.3478-1.6801Z" fill="#a82226" fill-rule="evenodd" stroke-width="0"/><path d="M113.9273,167.6351h0c8.4195-12.1326-3.3273-14.813-4.3356-8.6261-.4739,2.908.5457,4.7556,3.6071,4.8554l-2.0659,3.8671,2.7944-.0964ZM112.5335,158.6461c1.7487-1.2098,3.1332,1.8499,1.3003,2.8562-1.7039.936-2.5135-2.0168-1.3003-2.8562Z" fill="#a82226" fill-rule="evenodd" stroke-width="0"/><path d="M174.4731,195.4713c1.338,3.6686,7.3525,8.1609,4.7631,10.4003-2.0733,1.7932-3.3115-.8342-4.6438-2.7952-1.2478-1.836-2.5767-3.46-3.4857-5.1775-.9791.2718-1.0293.4238-1.6628,1.0531,1.0752,1.902,2.8046,4.2137,4.1388,6.152,1.5186,2.2053,3.1465,4.5876,6.4387,2.3241,3.0344-2.0866,1.8737-4.405.1505-6.851-1.1279-1.6008-3.2264-4.9082-4.2741-6.0268-.6744.2588-.9814.5057-1.4247.921" fill="#a82226" fill-rule="evenodd" stroke-width="0"/><path d="M198.0361,171.0259c.9434,1.3243,5.1114,6.0313,5.5548,6.9894l-8.4371-2.9872c-.6579.8-.9561,1.0588-1.0706,1.8904l12.7749,4.5508,1.0995-1.4463-6.3453-8.0685c-.8065-.9924-1.3757-1.7858-2.1405-2.6733-.8127.4274-1.078.9637-1.4357,1.7447" fill="#a82226" fill-rule="evenodd" stroke-width="0"/><path d="M130.5497,159.4206c.7251-.8694.2934-1.2195,1.8034-1.16.9663,1.5823.3572,1.7776-.9984,2.518l-.1116,1.5364.9671.4127c1.6742.9307.489,3.5368-.9816,2.5481-.7404-.498-.2429-.7778-.6789-1.5976l-2.2844-.0247c-.4624,3.0563,2.402,5.3748,5.3265,3.9955,1.4001-.6602,3.3696-3.6003.5026-6.3587.4879-.8289,1.3726-1.5659.9689-3.2318-.8039-3.3194-6.9667-2.9047-6.7053,1.336l2.1917.0261Z" fill="#a82226" fill-rule="evenodd" stroke-width="0"/><path d="M178.0513,160.4155c-2.6059-.4402-38.5767-.2302-39.2295.1066l-.1061,1.0324,39.3795-.1199-.0439-1.0191Z" fill="#a82226" fill-rule="evenodd" stroke-width="0"/><path d="M63.1685,160.3254c-3.6556-.0003-3.9371-.4896-4.2112.7086.959.868,2.3358.5191,4.7237.5191h30.488c2.5166.0002,4.3965.4853,4.1559-.7192-.178-.8915-2.8171-.5085-4.6684-.5085h-30.488Z" fill="#a82226" fill-rule="evenodd" stroke-width="0"/><path d="M29.1014,178.3636c.3526.9457.5749.8.9275,1.6997,1.495-.6695,3.208-2.2062,4.701-3.2287.267.2132.1553.1032.4297.4037l.9825,1.3445c.4816.6755.9051,1.2605,1.406,1.7268l1.2566-.7792c-.5604-1.4732-2.0146-2.4234-2.4551-3.8928.8586-.593,2.0367-1.6983,2.992-2.0356,1.3334,1.5588,2.1892,3.4353,3.5866,4.6369.5446-.2985.6248-.3914,1.1081-.8079-.4195-1.5417-3.477-4.7987-4.3393-6.4853-1.6602.5459-8.3933,6.3034-10.5956,7.4179" fill="#a82226" fill-rule="evenodd" stroke-width="0"/><path d="M213.4911,104.5996c-.7287,2.0141,1.0313,2.312,1.6991,2.5481,1.175.4156,2.5589.6914,3.4328,1.3649l-4.5683,2.8131.5332,1.9335c.0371-.0026.1389.0099.1837.0031l4.9271-2.9565c2.0166-1.3062,4.4136-1.2081,7.2468-1.4769l-.0995-2.0103c-3.1895-1.1069-2.0333,1.9029-10.4199-1.41-.4997-.1975-.9292-.3713-1.4881-.5927-.4533-.1797-.9695-.3926-1.4469-.2163" fill="#a82226" fill-rule="evenodd" stroke-width="0"/><path d="M138.6775,16.6086h0c2.4565.1621,2.6149-1.8343,5.7954-1.7093-.8801,1.0992-2.8879.8676-5.7172,2.8743l-.7928-1.4321c-.8337.4215-4.9629,7.113-4.1429,9.2143,1.5149-.1292,1.8128-1.3461,2.0078-3.0061,2.1906-.3699,4.244-1.2912,4.6191-1.1461-1.1906,1.1804-5.3363,2.8202-4.5173,4.5828.0544.0326.1485.0009.1769.0703.0283.0692.1406.0539.1802.0601.4332.0666-.1856.1086.5743.0505.3892-.0295.8433-.205,1.1308-.3768,1.5256-.9107.8782-2.0369,2.4843-3.1651.7781-.5468,1.2438-.6605,1.5514-1.484-1.2036-1.0876-2.6759-.0836-4.2106.2183,1.8663-2.3034,4.9541-2.1033,6.3802-3.543-.2514-.5533-.4306-.5715-.9533-.9261-.034-.023-.1162-.0578-.1658-.0986.862-.5536,1.7668-.9893,2.3014-1.4746-1.0213-1.6538-6.042.0059-6.7019,1.2912M136.1572,21.9796h0c.2358-1.3997.932-3.0149,2.3681-3.1997,1.169-.1502,3.2779-1.3482,4.2596-.9632-.9749,1.0828-3.441,1.6478-5.1673,2.9659-.6488.4958-.7804.767-1.4604,1.197ZM137.0651,24.8035c.7214-.9419,1.0562-1.1803,2.2074-1.6353-.4179,1.1424-.8547,1.1818-2.2074,1.6353Z" fill="#a82226" fill-rule="evenodd" stroke-width="0"/><path d="M214.0357,120.5539l.0813,3.7403c2.5563.3246,1.9301-.3694,1.8964-2.7918,1.952.0051,3.7973.0294,5.7444.1065.8788.0349,4.7135.2203,5.5086-.1905,1.118-3.5988-3.9589-1.5669-10.9976-2.3054l-.1267-2.8604c-1.5976-.1641-1.8575-.4283-1.9823.9547-.0827.9198-.1241,2.3907-.1241,3.3466" fill="#a82226" fill-rule="evenodd" stroke-width="0"/><path d="M168.9932,166.3748c-6.507.0178-27.3164-.2662-30.1989.095l.0269.9694c.7271.3665,31.0825.3915,31.9558.0006l-.7798-1.035c-.2035-.0314-.775-.0303-1.004-.03" fill="#a82226" fill-rule="evenodd" stroke-width="0"/><path d="M71.5962,202.8167l2.4032,1.1492-4.9899,10.1049,1.9562.9576,5.0644-9.9006c1.192.2313,1.508.8887,2.7666.951l.7512-1.4292c-.9587-.7384-6.224-3.5433-7.3103-3.5345-.5731.7469-.5683.7248-.6414,1.7016" fill="#a82226" fill-rule="evenodd" stroke-width="0"/><path d="M96.4858,166.3782c-9.9581.0626-20.4965-.1602-30.2449.0283l.0553,1.0327c.7812.3798,31.0349.4102,31.9972-.0006l-.3543-.9331c-1.4899-.406,1.2498.1468-.4428-.1035-.1746-.0261-.8047-.0252-1.0105-.0238" fill="#a82226" fill-rule="evenodd" stroke-width="0"/><path d="M48.6741,38.6658c2.6424.1409,1.9927-.1531,1.3223-2.5693-.53.2568-.1148.6908-.8807.9017.0116-4.1364,1.2705-5.0332.6724-6.3179-.9286.0272-1.0707.2353-1.3442,1.0996-.5494,1.7348-.7619,5.3883-1.8025,6.6951.1434-7.1515.4538-4.1791.8787-7.376.2313-1.7402-.775-2.2658-1.5367-1.285-.6803.8762-2.3343,14.3978,1.421,11.7162.8981-.6415,1.0216-1.8524,1.2697-2.8644" fill="#a82226" fill-rule="evenodd" stroke-width="0"/><path d="M149.016,208.3292c.269,1.3995,3.911,10.812,4.6035,12.0935l7.4613-2.7074-.407-1.4995c-1.421-.2908-4.2095,1.4397-5.8541,1.7779-.3569-1.2623-3.3651-9.5071-4.0298-10.279l-1.7739.6145Z" fill="#a82226" fill-rule="evenodd" stroke-width="0"/><polygon points="100.8412 158.7655 102.8005 158.8769 102.8739 167.7774 105.4044 167.5985 105.4146 156.1077 101.9186 156.1939 100.8412 158.7655" fill="#a82226" fill-rule="evenodd" stroke-width="0"/><path d="M85.6693,74.4095c-.3472,1.1877-.3308,12.6851.0451,13.7376l2.1708-.0434-.1202-13.7392-2.0957.045Z" fill="#a82226" fill-rule="evenodd" stroke-width="0"/><polygon points="147.2849 88.0745 149.5602 88.123 149.628 74.3287 147.3008 74.4056 147.2849 88.0745" fill="#a82226" fill-rule="evenodd" stroke-width="0"/><path d="M88.1048,74.4376c-.4614,1.3382-.1479,11.2969-.2216,13.7404l2.3482-.2214-.1293-13.6038-1.9973.0848Z" fill="#a82226" fill-rule="evenodd" stroke-width="0"/><path d="M213.037,132.4948c1.0075.4402,11.6669,1.9624,13.032,1.8301.6727-2.6056,1.0897-1.9976-4.9731-2.8763-1.9698-.2855-6.0301-1.0954-7.8264-.9366l-.2325,1.9828Z" fill="#a82226" fill-rule="evenodd" stroke-width="0"/><path d="M142.4016,88.1587l2.1476.0298c.0391-1.2912.4824-12.7897-.4207-13.9819l-1.7595-.0131.0326,13.9652Z" fill="#a82226" fill-rule="evenodd" stroke-width="0"/><path d="M93.4002,74.1972c-.3806.4949-.1635-.2208-.4427.993-.0034.0147-.0564.733-.0573.7787-.0136.5374.032,1.2333.034,1.7994l.019,10.4066,2.1722-.0009c.0519-2.3482.0179-4.7236.0179-7.0753,0-1.9598.3648-5.832-.4621-6.8907l-1.281-.0108Z" fill="#a82226" fill-rule="evenodd" stroke-width="0"/><path d="M149.6629,74.3594c.2968,4.564.3084,9.1635-.0202,13.7554l2.3741.0269-.0026-13.9425-2.3513.1602Z" fill="#a82226" fill-rule="evenodd" stroke-width="0"/><path d="M90.7173,74.3361c-.4136,1.4193-.1908,11.5761-.1438,13.809l2.1337-.0907c-.1667-2.6739.2795-12.0671-.2313-13.7007l-1.7586-.0176Z" fill="#a82226" fill-rule="evenodd" stroke-width="0"/><path d="M145.039,74.3684c-.4184,1.3408-.1871,11.5016-.148,13.7157l2.0529.0258c.0303-2.298.2792-12.2811-.1426-13.7755l-1.7623.034Z" fill="#a82226" fill-rule="evenodd" stroke-width="0"/><path d="M39.0615,190.7536c.3855.7489.8153,1.1684,1.561,1.4553l9.417-8.5907c-.3087-.7778-.6001-1.1832-1.4746-1.5817-.3395.1718-2.048,1.6098-2.4227,1.9375l-7.0807,6.7796Z" fill="#a82226" fill-rule="evenodd" stroke-width="0"/><path d="M189.0208,182.8112c.3005.8467,9.1698,8.6839,9.6364,8.8736,2.37-1.9761.3801-2.3205-1.0112-3.7194-.9405-.9459-1.5015-1.4482-2.4066-2.2082-1.5216-1.2775-3.6592-3.7374-4.9946-4.3146-.8116.5196-.7713.5202-1.224,1.3686" fill="#a82226" fill-rule="evenodd" stroke-width="0"/><path d="M157.9386,125.3972c-1.3413.1516-.678-.1497-.9618.5371.9369.7294.4978.4354,3.2922.4298l21.5237.0014c1.2688.0099,2.5453.4532,2.6635-.6874-.8558-.6602-11.937-.2588-13.9388-.2588l-12.5788-.0221Z" fill="#a82226" fill-rule="evenodd" stroke-width="0"/><path d="M56.5071,125.4187c-.5619-.002-1.2688-.042-1.8083-.0193l-1.3422.2787c.279,1.1131,1.6481.6962,2.8928.6871l22.824.0221c1.2469-.11.6389.1672,1.0003-.453-.3223-.733.1316-.4875-1.2452-.5474-5.1568-.2236-16.3775.0525-22.3214.0318" fill="#a82226" fill-rule="evenodd" stroke-width="0"/><path d="M195.7488,39.7061c1.8162-.3957,4.1199-.5658,4.8733-1.9055-.7432-.4512-.665.0349-1.7912.3734-3.2992.9915-5.4161-.4306-5.7741,2.1897,1.1117.1962,2.4703-.0396,3.2261.1684.8943.2463.9459,1.0653,2.0888.3628-.644-1.0459-1.1786-.8713-2.6229-1.1888" fill="#a82226" fill-rule="evenodd" stroke-width="0"/><path d="M148.2132,8.5933c-1.9692,1.7433-10.2484,5.1106-10.9941,6.9103l6.0341-3.1793c.936-.5185,1.9465-1.1543,2.8933-1.7161.9079-.5386,2.3587-1.1013,2.9905-2.0149-.2769-1.1571-.4056-1.2722-1.6565-1.2708.0725,1.0789.0388.5579.7327,1.2708" fill="#a82226" fill-rule="evenodd" stroke-width="0"/><path d="M191.3435,41.7499c.3773.2103,1.0463.432,1.4471.6896.8813.5664.1664.5451,1.8564.569l.5111-1.7915-3.8146.5329Z" fill="#a82226" fill-rule="evenodd" stroke-width="0"/><path d="M111.6545,84.7736c.0233.0881.0885.1587.1347.2361.0275.0465.0442.0697.0725.1125l.0763.1092c.0587.0683.1193.1216.1834.187.1091.1117.0782.0893.2316.1251.0096-.0142.0099-.0168.0241-.0332.0017-.0023.0048-.0054.0068-.0074l.0141-.0144c.0332-.0394.0185.0073.0261-.0593.0139-.119.0278-.1086.0275-.1562-.0003-.064-.0425-.0686-.0581-.1264-.0113-.0417-.0088-.0972-.0159-.1551-.0266-.2134-.0226-.4169-.0127-.5496.0062-.0859-.025-.254-.0218-.3163l.0269-.2135-.051-.2866c-.027-.0966-.0097-.2225.034-.3053.235,0,.4067-.0351.585-.1417.1758-.1049.389-.3027.4845-.485.0609-.1168.0995-.237.0589-.3594-.0844-.2554-.5601-.0148-.7029.0431l-.243.1275c-.0402.0196-.0365.0145-.0745.0397-.0425.0281-.0961.0726-.1508.0771.0136-.0575.0051-.1828.0329-.2378l.0694-.0732c.0595-.0527.0961-.1219.14-.159.0284-.0241.0581-.0357.0689-.0757.0261-.0961-.0519-.1465-.1258-.1525.0039-.1752.1272-.14,0-.3277l.064-.0785c.0601-.045.0241-.03.0573-.0853l.235-.1925c.032-.0246.0442-.0371.0754-.0672.1718-.1652-.1117-.2111-.2413-.1697l-.2072.0779c-.0637.0289-.1202.0678-.1871.0981-.064.0289-.0408.0139-.1125.0142l-.0754.0051c-.0071-.0196-.0414.0181.0026-.0329.0311-.0363.0691-.0488.108-.0783.0487-.0365.1031-.0691.1559-.1006.0283-.0167.0575-.0306.0833-.0451.1519-.0844.1369-.0898.2554.0136.186-.043.2163-.1941.121-.3347-.0583-.0859-.0793-.07-.1666-.1185-.0581-.032-.1168-.0734-.182-.0887.0071-.0851.1474-.1871.2194-.222l.4272-.2426c.049-.0326.0901-.0358.1397-.074.1182-.0904.1423-.0754.1732-.112.0337-.0405.038-.0584.038-.119-.0615-.0324-.0978-.0729-.1701-.0865-.1046-.0198-.1176-.0085-.2117.0181-.273.0774-.4451.1778-.6701.3277-.1032.0689-.1883.1437-.2878.2112.0111-.0411.0292-.0547.0601-.0825l.074-.0541c.002-.002.0051-.0051.0071-.0071.0388-.0371.0972-.0981.1315-.1395.044-.053.0924-.0932.144-.1409l.1763-.1386s.0244-.038.027-.0422l.0295-.0425c.0005-.0006.0204-.021.0209-.0219l.4159-.3106c.0572-.0355.1068-.0873.1122-.161.0034-.0443-.0076-.0788-.0297-.1134-.034-.0522-.1293-.087-.1968-.0397-.0025.0014-.0303.0326-.034.0371-.03.0352.0017.0074-.0348.0366-.04.0317-.0556.0218-.082.0607-.0547.0805.0134.0785-.0907.18l-.2089.2046c-.0853.0887-.0794.0459-.1463.0947-.0019.0014-.0056.004-.0073.0054-.0332.0269-.0258.0357-.0431.0723-.0267.0555-.087.0958-.129.1431-.0153.0173-.0176.0224-.0317.0394-.0128.0148-.0122.0133-.0204.0224-.002.002-.0049.0051-.0068.0074l-.2047.2231c-.0145.015-.021.0221-.0357.0365-.0471.0471-.0227.0508-.078.1055-.051.0502-.0785.0983-.1179.1533-.1454.2027-.2523.1608-.239.3093.0066.0743-.0028.0419-.0039.1188-.002.1187.1664.2066.2032.0779.0099-.0351-.0034-.0451.0233-.0938.0578-.1046.1973-.1894.2834-.2733.197-.1916.7095-.5465.9442-.566-.0394.0578-.0637.0637-.1221.1054l-.2396.1879c-.0442.0363-.07.0649-.1128.1009-.0737.0624-.1822.1321-.1822.2467-.0003.117.1043.1814.115.3138-.0141.0544-.3234.2562-.3909.307-.0901.068-.1595.142-.2548.2012l-.3268.2435c-.0281.0241-.0292.0272-.0615.0524l-.1267.1012c-.0023.002-.0054.0046-.0077.0066l-.0153.013c-.0031.0028-.0125.0105-.0156.013l-.3419.2852c-.0637.051-.2015.2254-.2542.2509-.0391.0193.0071-.0202-.0252.0156l-.0397.07c-.0227.0691.0079.14.0079.2075.0646,0,.0808-.0105.1165-.0403l.0913-.0655c.0374-.0255.0462-.0459.083-.0737l.3527-.2602c.036-.0269.0411-.0329.0881-.0544.1058-.0482.1877-.1233.2781-.1919.1063-.0808.133-.1409.2279-.2282.0363-.0334.0768-.106.1335-.076l.0111.0068c-.0136.0516-.0726.0743-.0916.1245-.0173.0459-.0125.0422.0085.0711l.0547.0465c-.0357.0131-.0348.023-.0629.051-.0023.002-.0051.0051-.0071.0074-.0272.0264-.0329.0269-.0615.0525-.1862.1646-.392.3821-.5587.5672l-.1123.1014c-.0575.0445-.0938.1168-.0955.19.1069-.0026.1457-.0729.2177-.1248l.4048-.2508c.0553-.0278.165-.1126.2044-.1233l.0008.0272c-.009.0762-.0294.0745-.0294.2148l-.1886.1392c-.0572.0474-.125.0873-.1751.1384l-.0902.0807c-.0034.0032-.0164.0151-.0224.0207l-.214.2135c-.0842.1094-.1998.2168-.2905.3506-.1078.1591-.2098.2506-.1024.4539.0956,0,.1279-.0338.163-.108.0298-.063.074-.097.1225-.1341.0368-.0284.0329-.0301.0655-.0629.1442-.146.5887-.5287.7891-.6356,0,.1236.0063.1667.057.2421l-.0428.057c.0309.0765-.0388-.0621.0201.0232.0193.0287-.0246.0601-.0737.1083-.1329.1313-.2245.2968-.3379.4467-.0405.0536-.0839.0899-.1238.1457-.1041.1469-.2019.3212-.3169.4663-.0491.0616-.0678.1024-.1089.1625l-.6324.8209c-.0547.0649-.1159.1729-.1936.1919.0031.0507.0133.0493.0125.0995-.0006.0553-.0111.036-.0125.1003l.0726.0417c.0515.0218.0513.0094.0841.0581.0341-.0468.0335-.0297.1001-.0283l.0689-.1171c.0337-.0609.0346-.0564.0813-.1026l.1627-.1942c.1018-.1193.207-.2713.3048-.4079l.5006-.7551c.0737-.0933-.0165.026.0927-.048,0,.0641.0249.1389.0411.1871.0127.0389.0569.1256.0601.1571,0,.0014-.0006.0056-.0006.0068l-.0006.0156c.0068.0204.1216.1539.1282.2318-.0964-.0082-.0358-.0649-.0854-.1133l-.0127-.0063c-.0202-.0062-.0236.0085-.0247.004-.0006-.0017-.0037.0023-.0054.0017-.0139-.0303-.0088-.0057-.0031-.0352l.0176-.0362c-.0547.0116-.017.0116-.0714,0l.028-.1015-.0564.0161c.0434-.0813.0142-.0397.0142-.1425-.0459.0096-.0224.0141-.0573,0,.0068.0819.0876.117-.0142.1281.0213.0323.0536.0612.0635.1003.0068.0258.0332.0465.0219.0992-.0281-.0311-.0272-.036-.0712-.0141M112.4148,81.2203h0c.0581-.0249.104-.0516.1644-.081.2747-.1341.2418-.0386.085.1116-.0178.0173-.0057.0043-.0229.0199-.0037.0031-.0111.0357-.0842.0635-.0074-.0836-.0601-.114-.1423-.114ZM111.8065,82.1325h0c.0995-.0859.0374-.0442.098-.1015l.0465-.0476c.0125.0553,0,.0309,0,.108l-.2364.1426.0919-.1015ZM112.3294,83.0583h0c0-.2313-.0331-.299.0448-.3421.2325-.1279.4916-.2404.7438-.3243.0434-.0145.1092-.0502.1472-.0502.134,0,.0683.2033.0371.2619-.0763.1443-.1769.1866-.1939.2175-.0096.0175.0116-.0111-.0105.0209l-.1567.1389c-.1197.0848-.4088.2685-.5364.131-.0382-.0414-.0048-.036-.0754-.0536ZM111.0181,83.5717h0c.0227-.0278.0624-.099.0856-.1338.131-.195.2311-.339.4284-.4819l.3466-.2387c.0023-.0017.0054-.0048.0077-.0065.0023-.0017.0057-.0045.0076-.006l.0406-.0212c.0068.0754.0286.0896.0286.1896-.0547.015-.0879.0522-.1295.0834l-.6982.5419c-.0295.0221-.0839.0601-.1174.0732ZM112.1628,85.0823c-.2583-.3161-.2016-.2022-.3867-.5996-.0561-.121-.036-.1108-.0632-.2214-.0224-.0912-.0014-.1009.0513-.2069l.0907-.1219c.0017-.0025.0037-.0062.0054-.0085l.2169-.2713.0036.3198c.0066.0363.0309.0768.0343.1636l.0043.3815c.0003.038.0034.0601.0065.0944.0048.051-.0071.1361.0122.2874.0051.0406.0233.1378.0247.1829Z" fill="#a82226" fill-rule="evenodd" stroke-width="0"/><path d="M123.4268,80.3699h0l-.1848.4995c-.0309.0689-.0757.1797-.0649.2611.0056.0431-.0046.2211.1068.2228.0791-.0184.0434-.0224.0899-.0811.0269-.034.0422-.0473.0709-.0859l.1434-.1842c.0221-.0329.0071-.0179.0346-.0511.0175-.0209.0221-.0201.0397-.0459l.144-.1837c.0173-.0255.0036-.0059.0158-.0266.0117-.0196-.0059-.0009.0156-.0272.0255-.0312.006-.0156.0445-.0315-.0402.0998.07.286.163.3263.0136.0059.017.0062.0306.0119l.0193.0085c-.0241.0921-.0374.1701-.0411.2846-.013.4277.0442.2622-.0876.3838-.002.002-.0048.0051-.0071.0071l-.2622.2081c.0128-.0559.0417-.0797.0746-.1251.0037-.0048.0238-.032.0241-.0326.0017-.0025.0042-.0062.0056-.0087l.0479-.0664c.0454-.0567.1557-.1723.1517-.201l-.2375.1721c-.0108.0082-.0233.0187-.0239.0193l-.1179.0941c-.0232.0167-.0022.0051-.0246.0128l-.3141.3342c-.0017.0019-.0046.0051-.0063.0068-.1003.1017-.0155.176-.0073.2505.0278-.0187.0292-.0258.0581-.0419.0278-.0153.0374-.0147.0675-.0323.1094-.063.2154-.1338.3075-.2197l.1888-.1962c.0405-.0442.0822-.0595.1196-.1082.021-.0273.1004-.1217.1046-.0321.004.0802-.0312.1168-.0785.1724l-.112.1159c-.0499.0417-.1536.1366-.1848.186-.0388.0612-.0913.1031-.1392.1598l-.3047.4493c-.0371.0681-.0405.18-.0159.2424.0102.0261.0057-.0063.0131.0388.0042.0264.0042.0363.0045.0641.0709.0057.0731.0385.1327-.0094.0555-.0448.0966-.1068.1366-.1632l.087-.1268.0936.0219c.0615.0116.0433.0209.1202.0209l-.9539,1.198c-.0113.017-.0119.0147-.0261.0311l-.254.3586c-.0394.0794-.1048.1021-.089.218.0102.0737.0187.0941.0547.1466.1089.0005.1809-.0474.2432-.127l.203-.2248c.0011-.0011.021-.0199.0218-.021l.1395-.1454c.1602-.14.4932-.4326.6608-.5221,0,.1017-.0205.153-.0244.2279l-.0896.8124c-.0062.0584-.0113.0558-.0176.1094-.0056.0507.0077.0283.0006.0881-.0074.063-.0267.0355-.0156.0919.0085.0436.0221.1227.0558.1587.048.051.0409.008.0338.0936.0289-.0023.0691-.0108.089-.0238.0074-.0049.072-.0675.0881-.1126.008-.0224.0159-.064.0199-.0802.0229-.0952.0315-.1843.0091-.2724-.0199-.0774-.025-.0142-.0335-.0527-.013-.059.0669-1.0032.0697-1.1826l.203-.1251c.0383-.0311.0592-.0419.1003-.0705l.1951-.133c.0757-.0425.2043-.1786.2681-.1981-.0178.064-.0448.0374-.0533.1267-.0164.1732.0148.3016.0063.4901-.0031.0745.0873.1604.1411.2032.167.1321.737.0139.9264-.0314.0794-.019.4272-.1148.5032-.1097.0377.0022-.0066.0025.0328.0187.0227-.0618.08-.0408.1202-.042l.1953-.1559c.0068-.0127.0389-.1233.0425-.1445.0091-.0556.0069-.0409-.0036-.0703l-.0712-.1273c-.1069-.1457-.0964-.2685-.1842-.2299.0198-.0757.0215-.0337-.0182-.0797-.0017-.0019-.0051-.0048-.0071-.007l-.0564-.0874c-.002-.0022-.0054-.0048-.0073-.0068l-.021-.0221c-.0247-.0297-.017-.0317-.0459-.0606l-.0287.0501c.0502.0613.0193-.0272.0556.0803-.0896-.046-.0658-.0457-.1236-.1123-.038-.0439-.0879-.0833-.1029-.1392-.0714.0063-.013.0176-.0573.0284-.0241-.0363-.0224-.0581-.0711-.0712.0113.0431.034.0601.0578.099l.1712.2993c.0559.1063.1642.2486.1715.3719l-.0014.0136c-.0323.0326-.129.0221-.1664.0306l-1.0709.2095c-.055-.0187-.0176-.0714-.0165-.1542.0015-.1205.0179-.2013.044-.3127.0073-.0309.0119-.0416.017-.0745.0153-.0967.0315-.2937.0142-.362-.0173-.0677-.0604-.2251.0099-.2769.0008.0365.0113.1187.0258.1451.0788.1437.21-.0621.2778-.0984.0725-.0388.1692-.0524.2525-.0751.0885-.0244.171-.0564.171-.1573l-.2282-.0712c.0156-.0578.0626-.0873.1043-.1236l.2747-.2525c.1-.0842.1199-.1809.1199-.3079-.027-.013-.093-.0431-.1264-.0396l-.0876.0266c-.0029.0006-.0068.0023-.0097.0031-.0227.0071-.0487.0153-.0646.0207l-.6097.3172c.1221.0284.1119.0391.2508.0085.0882-.0198.1372-.0527.2152-.0609-.0204.0263-.0363.0436-.0607.0725l-.1848.1718c-.0533.0536-.0825.0819-.1539.1168-.1633.0805-.186.1168-.2948.2324-.1024.1092-.1976.3365-.2237.4825l-.0042.0306c-.044-.0323-.0601-.1049-.0916-.1505l-.1789-.2923c-.0326-.087.0754-.178.0522-.4524-.0074-.087-.0488-.1621-.1406-.1868-.0677-.0181-.0539-.0085-.1006.0085l-.0675.019c0-.0998.0065-.1224-.0145-.2134.055-.0292.0998-.0865.1443-.1267l.1248-.1318c.1034-.1154.1082-.0641.244-.2691-.1258-.0297-.1871.0474-.2715.099l-.1157.0697c-.0445.0315-.0728.0734-.1259.0879.0074-.0318.0137-.0593.0267-.0873.0298-.0632.0765-.1528.0831-.2231.0053-.0542.0036-.114-.021-.163-.0289-.0573-.063-.0683-.1457-.0683l-.0428-.0712.0286-.0425c.0017-.0028.0037-.0062.0054-.0091.013-.0229.0144-.0326.0289-.0567.0065-.0104.0102-.0158.0181-.0255.0017-.0022.0051-.0051.0068-.0073.002-.0023.0051-.0051.0071-.0071.0335-.0389.0261-.061.0491-.1058l.0955-.1621c.0213-.0357.042-.0669.0666-.1043l.1712-.3348c-.0714.0153-.1292.1213-.1613.1882-.0785.1639-.2194.3657-.3333.5074-.0357.0445-.0312.0465-.0822.074-.008-.0921-.0411-.0527-.0414-.1267-.0009-.157.1329-.248.2069-.3486.0031-.0043.0179-.0236.0184-.0244.0842-.1069.1979-.2342.2291-.3697-.0981,0-.0672-.0107-.1273.0295-.0621.0417-.1105.0995-.1502.1636l-.0916.1363c-.0658.097-.0626.0641-.1514.2191-.0498.0873-.3988.474-.483.5573l-.0947.1049c-.0286.0298-.019.0301-.0561.0434.0354-.1415.2339-.432.3226-.5599.0394-.0572.0669-.1298.1477-.138-.0278-.0468-.0218-.0363,0-.0981.0278-.0779.0391-.2041.0541-.2809.008-.0402.0037.0048.0173-.0488-.0343-.0229-.0652-.0674-.0828-.1026-.0909-.1848-.2145-.1414-.2908.0281-.0255.057-.0524.0731-.07.1173-.0292.072.0105.0647.017.1435.0051.0635-.0428.2248-.072.2698M124.3126,81.4672h0c.0587-.0694.2208-.1933.3065-.2256l-.3028.3192-.0037-.0936ZM123.6958,82.4304h0c.0836-.1136.2038-.2483.3161-.3478.0442-.0394.0572.0037.0657-.157-.0124.0145-.0323.0329-.0442.0499-.1165.1706-.3104.341-.3376.4549ZM124.4322,81.9092h0c.101-.0437.1307.2137.0528.2948-.0281-.0341-.0488-.0814-.0695-.1262-.0173-.038-.0405-.0802-.0535-.1168.0127-.0119.0175-.0119.026-.0178l.0442-.034ZM123.9047,82.4222h0c.0454-.0827.0669-.1712.15-.2174-.015.0505-.0108.1137-.0227.1545-.0085.0286.0187.0493-.1273.0629ZM124.2301,82.1844h0c.0471.0805-.0093.0094.065.1352.0297.0505.0215.0774.0646.1315l-.0683.0822c-.004-.0209.0139-.072-.0794-.108l.0111-.2505c.0022.0031.0053.0073.007.0096ZM123.8475,82.7564h0c-.025-.068-.0097-.098.0331-.1505.0292-.0357.0766-.0731.125-.0791.0085.1216-.0173.2764-.1581.2296ZM124.0535,83.5518h0c-.0011-.1556-.0005-.504.0522-.593.0873-.1465.0714-.1284.1565-.1856l.1366-.1197c.013-.0156.0193-.0249.0303-.0405.0145.0442.0545.0728.1188.2392l.0887.1687c.0014.0028.0034.0065.0048.0096l.0346.0593c-.0467.0643-.5522.4192-.6225.462ZM122.7485,84.5394l.4065-.5505c.0567-.0589.1408-.1851.1817-.2165.0425-.0326.0121.0073.0425-.0434l.5641-.5837c.0003.0267-.0567.51-.072.5335l-.7319.5939c-.0357.032-.044.0476-.0814.0762-.0292.0224-.0635.0474-.0966.0729-.0182.0139-.0128.0093-.0244.0176-.0023.0017-.006.0039-.0082.0056l-.1803.0944Z" fill="#a82226" fill-rule="evenodd" stroke-width="0"/><path d="M120.4192,81.0752h0c-.047.0241-.1046.0556-.1459.0893l-.0964.0745c-.0023.002-.0054.0046-.0077.0066-.0022.0019-.0054.0048-.0076.0068-.0034.0025-.0125.0102-.0156.0127l-.0624.0516c-.144.1066-.1976.169-.309.3183l-.0688.1021c-.0324.0564-.1253.2458-.1415.3146.0391.0032.0309.0015.057.0142-.0153-.0658-.0193-.0337.0147-.0839.1191-.1755.0587-.0814.1744-.1973.043-.0434.0867-.0788.125-.1173.2426-.2444.1913-.1046.35-.2767.0491-.053.0477-.0289.0865-.0848l.2186-.2094c.0235-.0187.0518-.0377.0734-.0545.0819-.0649.2012-.1621.2919-.2066l.1639-.0788c.1437-.0658.1137-.0405.1754-.0666.0372-.0159.0389-.023.0879-.0406.1474-.0521.3748-.1576.5256-.1287l.0008.0851-.6692.4708c-.0437.0318-.048.0505-.0942.0629.0023-.0921.0335-.0535-.017-.0827l-.0479-.023c-.032-.0184.0301.0006-.0348-.0224l-.0958.0335c-.108.0309-.2821.0703-.3175.1922-.0309.1068-.0457.1329-.059.2469-.017.1448.0278.1559-.0527.2562l-.2339.2506c-.0337.0388-.0303.0547-.064.093-.0335.0382-.0496.0431-.0811.0898-.0266.0394-.1593.2563-.1933.2699-.0012.002-.0168.038-.017.0388l-.1673.2829c-.0796.1539-.0765.1911-.1105.2733l-.059.1417c-.0578.125-.0091.2622.1114.3251.1647-.1105.2991-.2344.4108-.4016.0413-.0624.0773-.0913.117-.1539l.4213-.6344c.0065.0683.0277.1201.0331.1788.019.2121-.0173.1676.0666.3334.0349.0694-.0141.8042-.0249.9195-.036.3819.0263.381.0374.5256l.0167.1508c.0221.125-.0037.0802.0088.1749.0057.0439.0114.125.0196.182.0227.1593-.1063.074.0382.2729.044.0604.0964.1265.1707.095l.1006-.0703c.0372-.0539.0431-.1655.0182-.2412-.0182-.055-.0307-.1058-.0511-.165-.0243-.0706-.011-.0547-.0122-.1202-.0008-.0374.004.0187-.0031-.0332-.0003-.0022-.0008-.0065-.0011-.0085l-.0079-.0711c-.0102-.0964.0039-.108.0093-.1789.0105-.1329-.0116-.2656-.0136-.369l.0011-.7705c.0029-.0697-.0045-.1276.0043-.1947l.0051-.114c.004-.0556.2106-.0924.3339-.1729.1352-.0879.2137-.1698.2855-.3135l.062-.1616c.0063-.0468-.011-.0128.0074-.0819.0255-.0964.0743-.2863-.0513-.3294l-.0785-.0139c-.1177-.013-.2713.0394-.375.0802l-.2092.1188c0-.0961.0226-.1828.0411-.2871.013-.0726.0076-.0831.0099-.1364.002-.0482.0133-.0975.0201-.1465.0139-.0987.0927-.1242.1636-.1789.1295-.0998.3566-.2353.519-.3501l.1919-.1499c.0797-.0548.1372-.1336.0646-.2175-.0292-.034-.0663-.043-.1264-.0516-.0887.0006-.1482.0213-.2268.0369l-.2114.0598c-.1851.0646-.4034.1494-.574.2381l-.2622.1508c-.0553.0281-.2033.1225-.2365.1701M121.0607,82.5727h0c-.0176-.0518.0046-.1012.0102-.1525l.0023-.0195c.0017-.0508-.0122-.0479-.0181-.091-.0088-.0649-.0341-.2548.0294-.2914.0352-.0204.025-.0006.07-.0306.1276-.0848.0193-.0029.1469-.0777.2338-.1372.4445-.0757.3294.1695-.1077.2299-.4048.4538-.5701.4932ZM119.9062,82.9475c-.0097-.0173-.0082.0057-.0048-.0326.0056-.0598.1009-.2044.1281-.2554.1409-.2653.1482-.2974.358-.5258.0351-.0383.0689-.0922.1035-.1248.0422-.0397.0802-.0618.0944-.1108-.0188.3657.1797.2132-.1401.4799l-.5391.5695Z" fill="#a82226" fill-rule="evenodd" stroke-width="0"/><path d="M114.6618,81.9885c-.2324,0-.2279.2464-.1741.4023.0006.0019.002.0059.0029.0082.0329.0819.0436.1525.0513.2381.0068.0748-.0388.1049-.0091.2081l.0428.1043c.0131.0198.0252.0348.0386.047l.0946.063c.2149.1638.4944.1386.5792-.0919.0144-.0394-.0074-.057.0586-.0879.3045-.1425.2197-.028.4079-.1199.046-.0226.0448-.0436.1044-.081.0819-.0516.0725-.0627.1139-.0865.1128-.0655.3929-.1494.3932-.1497l.0337-.0226c.0153-.0083.0286-.0142.0499-.0168.0266-.0028.0187-.0054.0553.0117l.1556.0751s.0261.017.0264.0173l.0377.0212c.1386.0695.1678.0683.2551-.0133.0025-.0026.0099-.0099.0125-.0116l.0294-.004c.0015,0,.006.0011.0077.0011.0646-.0014.0584-.0283.0825-.0513.002-.0019.0051-.0048.0073-.0068l.0712-.0581c.0278-.0269.0553-.0578.0808-.0879.0649-.0759.0765-.0136.1253-.1045.0646-.1211.0759-.3053.0124-.4346-.0198-.0405-.0093-.0218-.0334-.0541-.0862-.1168-.0363-.0953-.1244-.1157-.1795-.0419-.349.0403-.5182.0845-.3439.0898-.6744.1786-1.0157.2803l-.3736.1177c-.1411.0201-.1604.1193-.2755.0167-.0122-.0111-.0306-.0281-.0374-.0335-.0919-.0725-.2458-.0649-.3688-.0649" fill="#a82226" fill-rule="evenodd" stroke-width="0"/><path d="M119.4504,82.4435h0c-.1259.0368-.1114.0116-.2112.0811-.1089.0756-.3694.2831-.4445.3965-.0377-.064.1125-.3061.1417-.3571.0669-.1174.0346-.0593.1129-.1579.0408-.0513.0768-.0998.1201-.1506.0241-.0286.0437-.049.0672-.0756.0289-.0332.0332-.0278.0666-.0613l.2645-.2772c.0765-.0686.0819-.0422.0819-.1888-.0657-.0348-.1216-.0555-.2114-.0263l-.1718.0924c.0113-.0162.0218-.025.0295-.0346.0195-.0247.0102-.0125.0235-.0337l.0958-.1469c.0235-.0357.019-.0351.0459-.068l.1885-.296c-.0232-.0272-.0368-.0467-.0711-.0643-.0686-.0133-.1675.0077-.2154.034l-.5259.3864c-.0022.002-.0054.0045-.0079.0065l-.0153.013c-.0023.0017-.0057.0046-.008.0063-.1238.1091-.2829.2568-.2962.4303l.0936-.0343c.0691-.0213.1224-.0111.161-.0814.0439-.0794.0944-.1318.1394-.2168.0224-.0426.0151-.036.0448-.07.0845-.0973.1545-.2172.2571-.298.04-.0317.3444-.2106.254-.0484-.0527.0944-.1709.1712-.2415.2463-.0241.0255-.0332.0436-.0598.0683-.0284.0261-.0303.0241-.0595.0547l-.021.0216c-.0748.0717-.2342.2809-.2897.3659l-.112.1304c-.04.0397-.0445.1043-.0811.1468-.0025-.1165-.0555-.1746-.1354-.235-.127-.0958-.137.044-.1585.1698-.0502.2923-.0799.9953-.059,1.2875.0165.2271-.0124.3362.0536.4737.0377.0099.0369.0054.0641.0096.07.0114.0303.0335.1641.0332.1108-.1641.0601-.0459.0975-.2313.0065-.0315.0037-.036.0068-.0663.0082-.0797.0156-.0868.0003-.148-.0054-.0218-.0068-.0445-.0096-.0663-.0136-.1029-.0491-.2106-.0825-.311-.0241-.0723-.0207-.1525-.0309-.2279-.0298-.2205.0558-.3787.0881-.527l.0037-.0158c.0006-.002.0014-.0063.002-.0082l.0023-.0173c.0003-.004.0008-.0156.0014-.0199.0017-.0176.0003-.0167.0062-.0465.002.0034.0034.0085.0043.0111.0609.1584.0969.0896.172.0122.0593-.061.0984-.1202.1684-.1735.0026-.002.0233-.0179.0244-.0187l.2421-.2137c.0521-.0482.1111-.1197.1868-.127-.0105.1272-.1514.2715-.2279.371-.0417.0542-.0859.1111-.1327.1664l-.1681.2169c-.0173.0255-.0085.0198-.0258.0453l-.254.4666c-.0246.066-.0309.0972-.0059.161.0147.038.0201.0516.049.0394.0394-.0167.2089-.1823.2384-.212l.2027-.2106c.0402-.0505.0547-.0896.1083-.1338.0453-.0372.0422-.0496.102-.0547-.002.0839-.0397.108-.0796.1624l-.1423.2282c-.0848.1275-.1395.2574-.1996.3991l-.0862.2557c-.0181.0343,0-.0202-.0215.0363-.0179.0467.0159.1805.1054.1989l.0865-.007c.0454-.0187.1205-.0859.1616-.1242.2151-.2007.1312-.2418.1805-.3603.0256-.0609.0318-.1457.0117-.2205-.0159-.0593-.0148-.1571.0085-.2174.0158-.0414.0385-.0443.0623-.0788l.1024-.1826c.019-.0408.0195-.0618.0411-.1015.0178-.0326.0357-.0598.0544-.0881l-.019-.0238c-.034-.038-.0794-.0403-.1091-.0689M118.9705,83.5436c.0269-.1468.1201-.2818.2174-.3875.0141-.0156.0187-.0246.0314-.0428-.0303.1457-.0575.2007-.1221.2829l-.1267.1474Z" fill="#a82226" fill-rule="evenodd" stroke-width="0"/><path d="M110.8852,80.4269c0-.0689-.032.0114-.0011-.0717l.1987-.3008.1678-.1604c.0153-.0184.0071-.0037.0181-.0249.0235-.046.0014-.0434.021-.0678l.013-.011c.0573-.0471.0735-.0828.108-.1489.0941-.1808.0278-.1683.0134-.1811l-.0309-.0261c-.0428-.049-.0224-.0751-.1545-.0516-.1012.0182-.1293.0873-.1812.1625-.0484.0703-.0589.0309-.098.1298-.0621.1584-.1429.2412-.2268.3716l-.0111.0173c-.0017.0028-.0039.0062-.0056.0088l-.1968.345c-.0017.0025-.0036.0059-.0053.0088l-.2614.4662c-.0394.0791-.0536.1761-.0788.2628l-.0632.277c-.0068.0518-.0238.0666-.0238.0918,0,.1094.053.2568.1856.2568.19,0,.0857-.0326.2708-.0286.0056-.0683.0056-.034.0425-.0717l.2919-.3206c.0202-.0272.0224-.0377.036-.0638.093.0629.095.1712.256.1712.0567,0,.1576-.0023.1576-.0856,0-.1188-.0473-.0873-.0023-.2154.019-.0542.0746-.1398.0307-.2053-.0428.0043-.0153-.0243-.0462.0465-.0261.0604-.0502.1401-.1248.1602-.0124-.0468-.0507-.0765-.053-.1162-.0034-.0598.0363-.0493.053-.1117-.0688.0144-.0201.011-.0428,0,.034-.0644.0785-.0989.1137-.1571.0218-.036.0252-.0649.0428-.0997.032-.0635.1477-.1732.1885-.2455.0014-.0028.0048-.0105.0065-.0133l.0596-.0706c.011-.0136.0127-.0167.0246-.0326l.2302-.2551c.0178-.0295.0275-.0491.0212-.0839l-.0065-.027c-.0008-.0037-.0014-.0147-.0025-.0184-.0179-.0743-.1452-.0816-.1922-.0629-.0238.0093-.0255-.0009-.0301.0399-.0824.0091-.0087.0341-.1139.0428-.0079.0936-.0201.065-.0346.0774-.0232.0202.0062-.0283-.0122.0119-.0139.0307.0196.0264-.0417.0925-.0184.0198-.024.0246-.0411.0447-.0839.0981-.168.1956-.2313.3104-.0603.11-.1284.1712-.2032.2673-.0315.0409-.0425.0477-.0731.0834l-.2773.3501c-.047.0578-.0827.1343-.14.1732.0045-.0545.0116-.0468.0281-.0859.0773-.1863.0127-.1888.1-.1704l-.0107-.0184c-.0009-.0023-.0034-.0065-.0043-.0091l.0014-.0422c.0009-.0026.0031-.0066.0046-.0091l.0351-.0507c.0082-.0136.0043-.0032.0099-.0222.034-.1136.0471-.1029.1041-.1788l.0975-.1732c.0201-.0371.0904-.1466.0904-.1806" fill="#a82226" fill-rule="evenodd" stroke-width="0"/><path d="M125.5213,78.9875c.0938-.0216.0184-.0337.0998-.0425-.0062.0734.0037.0127-.0207.0646l-.0465.0819c-.0212.0312-.0048.0077-.0181.0244-.002.0023-.0048.0054-.0065.0076l-.1953.2467c-.0522.0646-.1063.1323-.1653.1907-.1043.1029-.0941.118-.1888.1817-.0536-.0141-.0394-.0411-.0794-.0215-.0652.0323.061.0788-.0501.1346l-.0539.0332c-.123.1174-.0706.2203-.0697.2747.0003.0249-.006.0621-.004.0915.006.0913.036.1202.1664.0961.1284-.0238.0989-.0895.1726-.1559l.2682-.2304.2197-.108c-.0318.047-.0383.0201-.057.0711.0839.04.2248-.049.2653-.1338l.0201-.0941c-.053-.0045-.0408-.0133-.0958-.0181-.047-.004-.1967.034-.2616.0742l-.1446.0837c-.045.0289-.1097.0654-.1559.0881.0176-.0521.057-.0765.0873-.1142.0287-.0352.0193-.0201.0505-.0493l.4212-.6047c.0051-.0085.0048-.0062.0162-.0269.045-.0828.1462-.3288-.0567-.2426-.0491.0209-.1043.0473-.1174.0972" fill="#a82226" fill-rule="evenodd" stroke-width="0"/><path d="M119.322,79.5434c0,.0637.0096.0586.0609.0836.0561.0269.0281.0119.0743.0519.0413.036.0535.009.047.0731-.0048.047-.2542.4436-.299.5017-.0196.0252-.0324.0335-.0587.0689-.0482.0649-.0678.104-.1128.1579l-.5531.7583c-.0343.0558-.0606.1128-.0983.1734-.0301.0485-.2401.3697-.222.4213.0173.0496.0655.0371.095.0082l.0346-.0669c.0195-.0437.0331-.0507.0566-.0859l.2237-.3042c.0425-.0595.0731-.0912.1106-.1451l.5402-.7843c.0706-.0888.1415-.2172.2104-.3175.055-.08.1522-.2466.2163-.3121.0379-.0388.0745-.11.0909-.1664.0094-.0315.0139-.0587-.0068-.0972l-.0717-.072c-.0538-.0462-.3381-.133-.3381.0533" fill="#a82226" fill-rule="evenodd" stroke-width="0"/><path d="M124.6522,80.883c.051.0216.1576-.0728.2534-.0816.0411-.0037.0896-.0026.1324-.0057.0893-.0065.0391-.0074.0882-.0258.0283-.0105.0759-.0054.0955-.0088.0417-.0076.0326-.0204.0771-.0365.0547-.0202.021.0218.0374-.0553.0916.0306-.0487-.002.0425.0283.0159-.0581.0604-.0907.0224-.1777l-.0309-.0842c-.0399-.1565-.0493-.2645-.1156-.1925-.0355.0386-.0267.0479-.1097.135l-.1667.2041c-.002.0019-.0048.0051-.0071.007l-.0139.0148c-.002.002-.0048.0051-.0068.0074-.0153.0172-.0144.0189-.032.0391l-.1913.1791c-.0457.0312-.0417.0077-.0749.0533" fill="#a82226" fill-rule="evenodd" stroke-width="0"/><path d="M37.0727,93.1346h0c-8.1898,24.9781-3.1198,55.2739,12.7066,76.0346,2.3737,3.1138,4.8461,6.0103,7.4633,8.6771,7.7678,7.9149,17.9085,15.711,28.6645,19.7589,8.4201,3.1689,16.3673,5.6033,26.2761,6.2544,14.2869.9385,28.3334-1.3227,40.8586-7.0455,1.9043-.87,3.5563-1.5928,5.3866-2.5623,15.0154-7.9529,28.5446-21.401,36.1313-36.6392,12.556-25.2207,12.7854-52.6796.106-77.7265-1.8995-3.7528-3.7843-6.8871-6.0537-10.0973l-7.1178-9.1505c-1.201-.6211-1.8584-1.7011-2.8579-2.6465-.9294-.8787-1.8127-1.5412-2.6407-2.4902-3.2224-3.6933-13.8776-10.571-18.2543-12.7497-22.7557-11.3267-44.2528-12.3599-68.1681-4.4543-24.8505,8.2148-44.4501,30.2853-52.5005,54.837M34.7877,120.5967v-4.0992c0-11.0823,3.7999-24.5316,8.0031-33.2612,8.9169-18.5201,23.1797-32.6928,41.5494-40.9603,22.5773-10.1619,45.7659-9.8133,68.3435-.0958,6.8772,2.9599,16.6474,9.1125,21.8467,14.2801l2.8284,2.5509c6.8105,6.8249,12.831,15.1435,17.1558,24.3575,10.4148,22.1893,10.6832,48.3596-.0221,70.6003-9.1071,18.9209-22.8662,32.3912-41.8598,41.1542-23.7628,10.9636-52.4256,9.4819-74.728-3.3449l-6.5078-4.0011c-7.7723-5.6687-15.558-12.5127-20.9035-20.607-2.6726-4.0465-5.4536-8.0515-7.7157-13.0283-4.2148-9.2733-7.99-21.9501-7.99-33.5452Z" fill="#a82226" fill-rule="evenodd" stroke-width="0"/><path d="M33.9351,132.8081h0c2.2339,13.3698,7.4911,26.2122,15.4544,36.6587,1.1917,1.5636,2.4095,3.0736,3.6576,4.5275,1.2475,1.4533,2.5282,2.8528,3.8463,4.1959,4.1635,4.2426,9.008,8.4526,14.2634,12.0753,4.6026,3.1725,9.5218,5.896,14.5774,7.7986,4.2271,1.5911,8.337,2.998,12.6338,4.0887,4.3027,1.0925,8.7956,1.8686,13.7846,2.1963,7.2637.4771,14.4669.1315,21.4409-1.0709,6.8176-1.1758,13.4198-3.1711,19.6518-6.0168l.9144-.417c1.5395-.6987,2.9518-1.3397,4.4972-2.1586,7.6204-4.0362,14.8601-9.4793,21.1425-15.8499,6.1705-6.2569,11.4191-13.4101,15.1999-21.0044,6.3346-12.7245,9.5485-26.0212,9.5667-39.2973.0178-13.1749-3.1122-26.3245-9.4623-38.869-.9536-1.8839-1.9058-3.6161-2.9056-5.2829-1.002-1.6699-2.0469-3.2661-3.1847-4.8759-2.1339-3.0438-4.8815-6.2761-7.1966-9.2537l-.0978-.0504c-.731-.3782-1.2634-.9709-1.8178-1.5908-.2835-.3158-.5732-.6384-.929-.9749-.3696-.3497-.6647-.6091-.9547-.8648-.5785-.5094-1.1369-1.0012-1.6531-1.5928-1.4508-1.6625-4.3563-3.9424-7.5271-6.1571-3.9952-2.7902-8.4212-5.487-10.8771-6.7096-11.4367-5.6926-22.5627-8.7991-33.8392-9.4893-11.2731-.6897-22.6865,1.0364-34.7014,5.008-12.2106,4.0362-23.1597,11.3947-32.1095,20.7428-9.3767,9.794-16.5614,21.7752-20.704,34.4092-4.119,12.5626-4.9045,26.4603-2.671,39.8251M37.5393,93.286h0c-4.0694,12.4118-4.8447,26.1473-2.6365,39.361,2.2088,13.2169,7.4015,25.9076,15.2663,36.2245,1.1814,1.5503,2.3879,3.0464,3.6232,4.4853,1.2356,1.4394,2.5007,2.8225,3.7999,4.146,4.1241,4.2023,8.9206,8.3712,14.1213,11.9562,4.5394,3.1292,9.3878,5.8139,14.3666,7.6876,4.1921,1.5775,8.2672,2.9727,12.5257,4.0538,4.2525,1.0797,8.6885,1.8465,13.608,2.1696,7.1872.4723,14.3141.1301,21.2145-1.0596,6.7399-1.1622,13.2616-3.1325,19.4099-5.9419l.9148-.4179c1.5298-.6936,2.931-1.3297,4.4467-2.1328,7.5322-3.9894,14.6894-9.3704,20.901-15.6693,6.097-6.1829,11.2835-13.2508,15.0193-20.7547,6.2686-12.5918,9.4488-25.7403,9.4666-38.8596.0179-13.0201-3.0781-26.0201-9.3586-38.4273-.9456-1.8686-1.8864-3.5805-2.8709-5.2214-.9788-1.6308-2.0069-3.2012-3.1331-4.7954l-7.0546-9.0692c-.8314-.4555-1.4026-1.0916-1.9967-1.7535-.2858-.3163-.5766-.6403-.8725-.9204-.2702-.2551-.6052-.5502-.9315-.8379-.5967-.5253-1.1724-1.0321-1.7416-1.6849-1.3958-1.5996-4.2375-3.8254-7.3505-5.9996-3.9478-2.7569-8.3237-5.4232-10.7541-6.633-11.3188-5.6336-22.3197-8.7078-33.459-9.3895-11.1433-.6815-22.4368,1.0284-34.3367,4.962-12.054,3.9847-22.8673,11.2533-31.71,20.4897-9.2741,9.6868-16.3803,21.5368-20.4775,34.0322ZM35.2792,116.4975h0v4.0992c0,5.3062.7977,10.8445,2.0679,16.1767,1.4865,6.2419,3.619,12.1972,5.8782,17.1672,2.0081,4.4184,4.4382,8.0785,6.8338,11.6864l.8433,1.2725c2.6538,4.0187,5.9125,7.7258,9.4705,11.1305,3.5578,3.4041,7.42,6.5115,11.2811,9.3291l6.5078,4.0008c11.1245,6.397,23.8442,9.953,36.7418,10.5302,12.7947.5723,25.7638-1.7867,37.5239-7.2125,9.4459-4.358,17.5884-9.8847,24.4987-16.6717,6.9114-6.7878,12.5958-14.8405,17.1247-24.2501,5.2854-10.9806,7.88-22.9252,7.8834-34.8687.0034-12.1039-2.6524-24.209-7.8633-35.3109-2.1062-4.4875-4.6205-8.7656-7.4359-12.7627-2.9205-4.1465-6.1628-7.9863-9.6074-11.4401l-2.8429-2.5653c-2.4814-2.4664-6.0267-5.1673-9.8005-7.634-4.0518-2.6481-8.3602-5.0213-11.8944-6.5426-11.3375-4.8799-22.826-7.3846-34.3069-7.3687-11.2606.0156-22.5241,2.4568-33.6413,7.4605-9.1057,4.098-17.1961,9.6551-24.1175,16.4784-6.9621,6.8638-12.7451,15.0117-17.1918,24.2478-2.2113,4.5927-4.3106,10.5001-5.7966,16.6762-1.3203,5.4873-2.1566,11.1898-2.1566,16.3718ZM34.2962,120.5967v-4.0992c0-5.2515.8484-11.0327,2.1872-16.5986,1.5038-6.2503,3.6283-12.2286,5.8657-16.8757,4.4952-9.3368,10.3442-17.5765,17.3877-24.5203,7.005-6.9057,15.1909-12.5288,24.4018-16.6742,11.2434-5.0607,22.6415-7.5294,34.0444-7.5453,11.6206-.0159,23.2387,2.5149,34.6946,7.4455,3.5842,1.5429,7.9464,3.945,12.0442,6.6234,3.812,2.4917,7.4038,5.2294,9.9371,7.7434l2.8477,2.5696c3.4908,3.4986,6.7754,7.3866,9.731,11.5835,2.8429,4.0363,5.3859,8.3642,7.5206,12.9124,5.2719,11.232,7.9592,23.4794,7.9552,35.7259-.0037,12.0901-2.6294,24.1807-7.9793,35.295-4.5779,9.5111-10.3271,17.6545-17.3205,24.5225-6.9936,6.869-15.228,12.4595-24.7754,16.8642-11.9035,5.4918-25.0288,7.8798-37.9766,7.3004-13.0555-.5843-25.9341-4.1868-37.201-10.6665l-.0136-.0057-6.5075-4.0011-.0306-.023c-3.9008-2.8445-7.8069-5.9867-11.4117-9.4362-3.6136-3.4577-6.9214-7.2199-9.6129-11.2958l-.8433-1.2722c-2.4171-3.6408-4.8693-7.3341-6.9103-11.825-2.2842-5.0247-4.439-11.0418-5.94-17.3438-1.2866-5.4011-2.0945-11.0163-2.0945-16.4032Z" fill="#a82226" fill-rule="evenodd" stroke-width="0"/><path d="M64.0662,53.6846h0l-4.2987-8.4915c.4702-.5182,5.2137-3.909,2.5704-6.9304-2.1688-.0516-3.3273,3.0631-4.2332,3.4866-.3462-1.4119.2446-1.6033.2871-2.8879-.8821-.5142-1.5395-.2067-1.2591-2.1002.1136-.7682.6545-1.4613.943-2.3284-.2871-.4317-.1666-.1307-.4541-.4224-.8484-.8606.6526.8292-.2732-.282-1.6883-2.0256.6675-.7223-2.3372-1.6781-.051-.0162-.1652-.0003-.2018-.0859-.0366-.0856-.1395-.0505-.1982-.0938.6333-1.34,2.8253-3.6323,2.7553-4.7628-1.8785-.538-3.5113,1.8581-4.1836,3.1289.2282-2.0738,2.6161-4.6264,1.9482-6.2583-.9286-.1063-.8705.0079-1.3572.4396-.1485,1.921-1.5789,5.2875-2.3956,8.2973-.3773,1.3907-.911,2.177.4553,2.874.9195-.6721.1295-.7752,1.4978-3.4973.5842-1.1628,1.2455-2.3605,2.1019-3.0093-.3045.9641-.879,1.5831-1.1412,2.4681-.4887,1.6504.2497,1.1237.9422,2.3695-1.4777,2.9101-5.3702,8.729-4.4668,11.0191,1.1727-.5099,1.5001-2.1829,2.0636-3.0965l1.821-3.409c.0425.0644.0887.0921.0989.2095.1633,1.8876.3841.0938-.6579,3.1717-.3444,1.017-1.143,2.3352-.7223,3.1243.0516-.0334.1227-.1593.1414-.1173.0185.0416.1117-.0944.1367-.1219.911-1.0097,1.2603-2.4333,2.2031-3.0453.4688,2.0594-3.9138,7.0739-1.4562,8.7611.7044-.5959,1.7745-5.493,3.3267-6.2496.6875,1.5662-.5981,5.7271-.928,7.7967-.3022,1.893-1.7416,7.2133-1.4494,7.5776.368.2764-.5017.4325.8303.2922.5264-.0552.362-.0399.5845-.4096.0564-.0938.3756-1.4686.4394-1.7402.7313-3.1237,1.2492-9.0997,2.0642-10.4065.7988,1.0672,2.2294,4.0669,2.7666,5.2741-1.3907-.4949-1.3105-.2534-1.311-.2534-.0241-.0008-.0942-.0028-.1194-.0048l-.5989-.0853c-.0448.0008-.1285.0014-.1727.0059-.6573.0678-.2154-.055-.5057.1537,1.1999,1.0267,3.0614.945,4.7438,1.3178M53.9774,37.4551h0c.3844-.5258.8345-.8532,1.258-1.4193l1.4086-1.9692c-1.1044.1919-1.2467.4495-1.7912,1.3521-.3337.5528-.6217,1.4-.8754,2.0364ZM55.9455,35.9026h0c.1732-.7949.4825-1.0987,1.2059-1.3692-.0088,1.1424-.0063,1.4678-1.2059,1.3692ZM62.2523,39.1219h0c.4357,2.1382-1.775,6.0817-3.3063,4.5904-1.1554-1.1251.1253-2.0971.7208-2.7283.8226-.8717,1.211-2.1748,2.5855-1.8621ZM54.6521,48.4547c-.0868-.1525-.1426.013-.1565-.4133l1.669-4.3971c.3674-.531.2044-.2835.5369-.5412.7954.8703.0913,1.3428-.5618,2.5552-.5108.9485-.8853,2.0304-1.4876,2.7964Z" fill="#a82226" fill-rule="evenodd" stroke-width="0"/></g></svg>