<svg width="215" height="215" viewBox="0 0 215 215" fill="none" xmlns="http://www.w3.org/2000/svg">
    <g clip-path="url(#clip0_43_1182)">
    <path fill-rule="evenodd" clip-rule="evenodd" d="M107.246 0C166.477 0 214.492 48.0161 214.492 107.247C214.492 166.478 166.477 214.492 107.246 214.492C48.0156 214.492 0 166.476 0 107.247C0 48.0181 48.0156 0 107.246 0ZM105.965 4.44C49.1851 5.147 3.7319 51.7485 4.439 108.527C5.146 165.305 51.748 210.759 108.527 210.052C165.306 209.345 210.76 162.744 210.053 105.965C209.346 49.187 162.744 3.7329 105.965 4.44Z" fill="#003686"/>
    <path fill-rule="evenodd" clip-rule="evenodd" d="M107.246 34.5312C147.407 34.5312 179.965 67.089 179.965 107.249C179.965 147.408 147.407 179.968 107.246 179.968C67.085 179.968 34.5269 147.41 34.5269 107.249C34.5269 67.087 67.085 34.5312 107.246 34.5312ZM106.359 36.0566C67.04 36.5459 35.562 68.8174 36.0527 108.137C36.543 147.455 68.8145 178.932 108.133 178.442C147.453 177.953 178.93 145.682 178.441 106.364C177.949 67.0439 145.679 35.5674 106.359 36.0566Z" fill="#003686"/>
    <path fill-rule="evenodd" clip-rule="evenodd" d="M107.246 39.6328C144.587 39.6328 174.857 69.9024 174.857 107.244C174.857 144.585 144.587 174.853 107.246 174.853C69.9053 174.853 39.6357 144.583 39.6357 107.244C39.6357 69.9044 69.9053 39.6328 107.246 39.6328ZM155.362 71.0303C155.362 67.0327 152.121 63.7935 148.125 63.7935H110.619C106.622 63.7935 103.382 67.0327 103.382 71.0303V103.627C103.401 107.596 106.649 110.846 110.619 110.863H125.769V114.282C113.121 116.045 103.382 126.905 103.382 140.037H110.619C110.619 130.911 117.135 123.305 125.769 121.619V140.318C125.769 142.051 124.365 143.455 122.633 143.455H103.382V150.692H155.362V143.455H136.141C134.41 143.455 133.005 142.051 133.005 140.318V121.619C141.638 123.305 148.155 130.911 148.155 140.037H155.392C155.392 126.905 145.653 116.045 133.005 114.282V110.863H148.125C152.096 110.846 155.343 107.596 155.362 103.627V71.0303ZM122.637 71.0303H113.754C112.025 71.0303 110.621 72.3809 110.619 74.1094V80.5083C110.621 82.2368 112.025 83.709 113.754 83.709L122.637 83.6939C124.312 83.6939 125.68 82.3824 125.769 80.7305V73.9981C125.68 72.3467 124.312 71.0303 122.637 71.0303ZM110.619 94.0782V100.494C110.621 102.225 112.025 103.627 113.754 103.627H122.637C124.312 103.627 125.68 102.291 125.769 100.64V93.8877C125.68 92.2383 124.315 90.9263 122.642 90.9243L113.75 90.9478C112.023 90.9478 110.621 92.3496 110.619 94.0782ZM136.135 71.0303C134.461 71.0303 133.094 72.3467 133.005 73.9981V80.7305C133.094 82.3824 134.461 83.6939 136.135 83.6939L144.991 83.709C146.719 83.709 148.123 82.2368 148.125 80.5083V74.1094C148.123 72.3809 146.719 71.0303 144.991 71.0303H136.135ZM148.125 94.0782C148.123 92.3496 146.721 90.9478 144.994 90.9478L136.132 90.9243C134.46 90.9263 133.094 92.2383 133.005 93.8877V100.64C133.094 102.291 134.461 103.627 136.135 103.627H144.991C146.719 103.627 148.123 102.225 148.125 100.494V94.0782ZM59.1001 71.0303H72.7788C74.5098 71.0303 75.9136 72.4341 75.9136 74.1646V123.23C70.3862 121.657 66.3369 116.57 66.3369 110.539V74.4488H59.1025L59.1001 110.539C59.1001 120.585 66.3574 128.941 75.9136 130.65V140.316C75.9136 142.047 74.5098 143.455 72.7788 143.455H59.1001V150.692H99.9634V143.455H86.2856C84.5552 143.455 83.1514 142.047 83.1514 140.316V130.65C92.7085 128.941 99.9634 120.585 99.9634 110.539V74.4488H92.7256V110.539C92.7256 116.57 88.6787 121.657 83.1514 123.23V74.1646C83.1514 72.4341 84.5552 71.0303 86.2856 71.0303H99.9634V63.7935H59.1001V71.0303Z" fill="#003686"/>
    <path fill-rule="evenodd" clip-rule="evenodd" d="M16.5753 75.9925C16.5753 75.9925 15.9757 79.3641 21.1817 79.0691C21.1817 79.0691 25.0274 82.4407 26.9806 81.3768C26.9806 81.3768 27.8082 81.0794 28.2228 81.6136C28.2228 81.6136 27.5123 78.8919 24.6129 79.0091C21.7135 79.1287 22.0108 79.0691 22.0108 79.0691C22.0108 79.0691 20.4723 74.6312 18.1061 75.1058C15.7384 75.5779 16.3902 76.6438 16.5753 75.9925Z" fill="#003686"/>
    <path fill-rule="evenodd" clip-rule="evenodd" d="M28.1045 79.7734C28.1045 79.7734 29.584 81.9038 30.4717 82.6133C31.3584 83.3247 31.3584 84.9805 32.0688 85.5723C32.7783 86.1641 33.6069 86.3418 33.6069 85.3354C33.6069 84.331 31.2397 80.0107 30.1758 79.9512C29.1094 79.8911 28.1045 79.7734 28.1045 79.7734Z" fill="#003686"/>
    <path fill-rule="evenodd" clip-rule="evenodd" d="M21.8922 71.849C21.8922 71.849 19.4073 72.1439 18.5782 71.6122C17.7501 71.0799 18.2833 69.1849 18.401 68.8299C18.5196 68.4754 19.8219 70.5457 20.7672 70.5457C21.7135 70.5457 21.9508 69.8363 21.9508 69.8363V68.2982C21.9508 68.2982 23.7262 67.057 24.2584 68.7127C24.7916 70.3685 24.9088 71.849 24.9088 71.849C24.9088 71.849 26.9806 72.3812 27.3951 73.3275C27.8082 74.2743 27.8082 74.9237 27.8082 74.9237C27.8082 74.9237 25.5597 73.2679 25.0274 73.2679C24.4957 73.2679 24.4957 77.3509 24.4957 77.3509C24.4957 77.3509 23.1935 78.18 22.7789 77.1737C22.3653 76.1673 22.0108 71.4925 21.8922 71.849Z" fill="#003686"/>
    <path fill-rule="evenodd" clip-rule="evenodd" d="M28.4005 75.6924C28.4005 75.6924 28.4591 71.4922 28.8736 71.6119C29.2872 71.729 31.5958 73.1499 31.9503 72.9727C32.3048 72.7954 34.0216 73.3853 34.0216 73.3853C34.0216 73.3853 34.4938 77.4683 33.7257 77.8828C32.9566 78.2969 32.6007 78.5918 32.6007 78.5918V79.3614C32.6007 79.3614 27.0392 79.0664 27.3351 76.2842C27.3351 76.2842 27.2179 74.7461 28.4005 75.6924ZM30.8854 73.919C30.8854 73.919 30.2345 74.9234 30.7667 75.9297C31.2999 76.9361 31.9503 77.4107 32.3048 77.5879C32.6598 77.7652 32.837 76.3443 32.837 75.7525C32.837 75.1607 32.837 74.0367 32.2452 74.0367C31.6544 74.0367 30.8854 73.919 30.8854 73.919Z" fill="#003686"/>
    <path fill-rule="evenodd" clip-rule="evenodd" d="M24.9689 66.405C24.9689 66.405 26.0338 66.5823 25.0865 63.9797C24.1397 61.3752 25.5597 62.0847 25.5597 62.0847L27.1578 62.5593C27.1578 62.5593 26.3287 63.7429 26.2115 64.6296C26.0929 65.5183 25.3233 66.1677 27.8673 67.3513C30.4117 68.5354 31.9503 70.2507 32.9566 70.6653C33.962 71.0798 37.9264 74.9836 38.6954 74.6287C39.464 74.2742 36.8014 72.2615 36.2096 71.7292C35.6178 71.1975 29.0509 66.8772 28.4591 66.6423C27.8673 66.405 29.9986 65.5183 29.9986 64.0378C29.9986 64.0378 30.5304 64.7493 31.8316 64.8069C31.8316 64.8069 30.5304 66.7595 31.6544 67.7659C32.7784 68.7703 34.1993 66.0505 34.1993 66.0505C34.1993 66.0505 36.151 65.6955 36.7428 66.2278C37.3346 66.7595 40.2926 67.2341 40.2926 67.2341C40.2926 67.2341 39.464 68.8899 36.6241 69.3621C36.6241 69.3621 38.5772 69.5417 39.9967 68.9495C41.4166 68.3577 42.1856 68.7126 42.1856 68.7126C42.1856 68.7126 43.3697 67.3513 42.2447 66.6423C41.1217 65.9329 36.8014 64.2746 35.796 64.3923C34.7897 64.512 36.5646 62.9734 36.5646 62.4993C36.5646 62.0271 35.5001 61.0207 34.4352 61.6726C33.3702 62.322 32.4825 62.6189 32.7784 63.4455C33.0743 64.2746 29.0509 62.322 28.2818 61.4353C27.5123 60.5466 24.6129 58.8904 23.9039 60.134C23.1935 61.3752 22.9571 64.2151 23.608 65.4582C24.2584 66.6999 24.9689 66.405 24.9689 66.405Z" fill="#003686"/>
    <path fill-rule="evenodd" clip-rule="evenodd" d="M48.4579 34.0809C48.4579 34.0809 47.8529 33.2943 50.2719 31.9056C52.6894 30.5145 52.6894 32.9309 52.4477 33.6575C52.2055 34.3821 49.4853 35.7728 49.4853 36.3778C49.4853 36.9823 50.3314 40.9115 50.997 40.6083C51.6615 40.307 52.9916 37.9481 52.9916 37.9481C56.3163 31.4828 61.0917 36.9222 61.5756 37.3431C62.0585 37.7665 64.6576 40.3666 64.598 42.4818C64.537 44.597 62.663 45.4432 62.663 45.4432C60.3051 45.4432 61.1527 44.2362 61.1527 44.2362C61.1527 44.2362 63.2069 43.2679 62.9047 41.9989C62.602 40.7298 58.7948 37.5868 57.4647 37.1639C56.1347 36.7406 54.2011 38.8558 54.14 39.6424C54.079 40.4266 55.0458 40.6083 55.0458 40.6083C55.0458 40.6083 55.2274 43.7508 54.5033 43.2679C53.7768 42.785 53.1122 40.5482 53.1122 40.5482C53.1122 40.5482 51.9042 43.5096 51.6615 44.2362C51.4203 44.9603 53.6562 43.328 54.0194 44.597C54.3827 45.8685 52.5687 45.5648 52.1454 45.5052C51.7226 45.4432 51.1776 44.9602 51.1776 44.9602C51.1776 44.9602 50.9359 46.7743 50.6947 47.5584C50.452 48.347 53.0517 49.7357 53.0517 49.7357C53.0517 49.7357 53.2938 51.5497 52.81 51.4281C52.327 51.308 49.4257 49.494 48.5785 47.5584C47.7323 45.6249 49.7279 45.9881 49.7279 45.9881C50.3314 43.0267 49.9086 41.8172 49.9086 41.8172L48.7001 37.5248C48.7001 37.5248 48.8207 39.2191 47.37 40.5482C45.9193 41.8773 45.7377 42.9647 45.7377 42.9647C45.1937 46.7743 44.0453 46.6527 43.5019 46.6527C42.9569 46.6527 43.9247 43.5692 44.1664 41.7577C44.4076 39.9437 45.6781 38.3114 46.5839 36.619C47.4906 34.9266 47.6723 34.322 46.9472 33.6575C46.2216 32.9929 45.0731 31.4828 46.8861 30.9378C48.7001 30.3929 48.4579 34.0809 48.4579 34.0809Z" fill="#003686"/>
    <path fill-rule="evenodd" clip-rule="evenodd" d="M52.7505 46.7743C52.7505 46.7743 53.7173 47.1356 54.7446 44.1742C55.7725 41.2127 56.437 40.4886 56.7393 40.7894C57.0415 41.0931 58.25 40.9115 58.0693 42.3001C57.8877 43.6913 57.4038 43.9925 57.4038 43.9925L57.8877 44.597C57.8877 44.597 58.9155 43.4496 59.3994 43.6913C59.8823 43.9325 59.0972 45.3236 59.0972 45.3236C59.0972 45.3236 61.5757 46.471 60.7896 48.285C60.0029 50.099 59.2178 46.5926 58.0693 46.411C58.0693 46.411 56.437 48.4066 55.8325 48.5882C55.8325 48.5882 53.7173 49.3124 54.9863 47.6205C56.2554 45.9281 57.1016 45.6249 57.1016 45.6249L56.9819 44.7787C56.9819 44.7787 55.1069 47.0755 54.2012 47.2572C53.2939 47.4388 53.0518 47.9217 52.7505 46.7743Z" fill="#003686"/>
    <path fill-rule="evenodd" clip-rule="evenodd" d="M81.7467 19.6727C81.7467 19.6727 79.3492 20.7665 78.8194 18.8607C78.2906 16.9525 79.691 17.5165 80.7809 17.1405C81.8717 16.767 83.4591 16.2968 83.6461 16.9525C83.8331 17.6107 83.8331 23.4242 84.0509 23.9862C84.2687 24.5507 84.6119 24.8304 85.0167 25.1122C85.4215 25.3944 85.2965 27.3002 84.7667 28.1444C84.2379 28.9882 85.3277 28.9262 85.3277 28.9262C85.3277 28.9262 86.5113 27.6141 86.8531 28.2382C87.1959 28.8641 87.5392 29.6141 86.8531 30.1141C86.1686 30.6141 84.7667 31.3641 84.6739 32.3021C84.5797 33.2401 81.6847 31.3021 82.6183 30.9262C83.5519 30.5521 83.2721 30.5819 83.6769 30.6464C84.0821 30.7079 83.8648 29.9262 83.5841 29.4882C83.3033 29.0521 82.961 27.8944 83.0543 27.2679C83.148 26.6444 80.1578 27.0824 80.065 24.3007C79.9713 21.5184 80.2828 24.8002 82.7745 24.4862C82.7745 24.4862 81.6524 20.6722 81.7467 19.6727Z" fill="#003686"/>
    <path fill-rule="evenodd" clip-rule="evenodd" d="M86.4791 20.3298C86.4791 20.3298 84.1437 19.2361 85.2965 17.2341C85.2965 17.2341 85.2965 16.2962 87.6012 18.8601C87.6012 18.8601 89.3453 19.3279 90.0304 17.9841C90.7149 16.6399 90.1554 16.4519 89.6564 15.7341C89.1588 15.0139 89.3766 14.7322 89.5626 14.4202C89.7506 14.1082 88.7848 13.888 88.0987 14.5759C87.4142 15.2639 86.5421 16.3899 85.7013 16.2019C84.8609 16.0139 84.6739 14.8284 86.4791 14.0759C88.2867 13.3264 91.65 10.8884 96.0099 11.4505C96.0099 11.4505 98.0328 11.7942 96.5694 17.4841C96.5694 17.4841 95.5426 19.5481 95.6666 20.4539C95.7916 21.3596 93.2374 21.7039 93.2374 21.7039C93.2374 21.7039 92.8956 24.8938 93.3004 25.3616C93.7052 25.8318 94.857 25.4876 94.857 25.4876C94.857 25.4876 96.1964 25.9876 93.985 28.0198C93.985 28.0198 93.3316 29.8958 95.294 29.4876C97.2545 29.0813 94.6393 28.3318 98.0021 28.8933C101.366 29.4578 96.9742 31.7395 96.9742 31.7395C96.9742 31.7395 93.985 29.8015 90.0611 33.0833C90.0611 33.0833 85.4835 34.7092 87.5069 32.2717C89.5314 29.8313 92.1168 30.2693 92.2418 29.8635C92.3658 29.4578 92.5216 28.6756 92.3966 28.3616C92.2726 28.0496 90.0304 29.7698 89.3146 29.8313C88.5978 29.8958 89.1588 28.5496 91.6178 26.7058C91.6178 26.7058 92.1485 23.4236 91.3697 22.6121C90.5899 21.7981 89.2203 24.4236 88.5357 23.9236C87.8512 23.4236 87.8819 23.1419 88.318 22.4856C88.7535 21.8298 86.4791 20.3298 86.4791 20.3298ZM92.3038 16.9221C92.3038 16.9221 94.5143 16.2341 94.235 17.4519C93.9542 18.6721 92.6144 18.4221 92.5523 18.7981C92.4908 19.1721 92.1476 20.1419 92.6144 20.4241C93.0816 20.7039 94.3902 19.5159 94.733 19.0159C95.0748 18.5159 95.9776 16.9519 95.6046 14.8904C95.2311 12.8264 93.1754 12.3884 92.4908 12.9524C91.8048 13.5144 92.3038 16.9221 92.3038 16.9221ZM88.3487 20.0159C89.8595 20.6887 89.0953 22.7678 89.4693 22.0798C89.8443 21.3919 91.3697 21.3596 90.902 20.7981C90.4352 20.2361 90.4972 19.4539 90.2174 19.3601C89.9371 19.2659 88.3487 20.0159 88.3487 20.0159Z" fill="#003686"/>
    <path fill-rule="evenodd" clip-rule="evenodd" d="M134.138 23.5179C134.138 23.5179 133.108 22.0267 130.907 22.2787C128.706 22.5306 128.392 20.9217 128.392 20.9217C128.392 20.9217 129.367 20.6078 133.234 20.2274C137.1 19.8495 140.527 19.4711 139.836 22.7528C139.836 22.7528 139.521 23.4794 136.692 23.8578C136.692 23.8578 134.837 25.847 133.077 29.2548C133.077 29.2548 138.83 32.0941 138.83 32.3143C138.83 32.5365 140.998 33.451 138.893 34.8397C138.893 34.8397 138.232 35.7865 134.176 33.2308C130.121 30.6732 123.803 30.2631 123.016 29.9813C122.23 29.6971 121.224 29.0648 121.255 26.4452C121.255 26.4452 122.513 27.9598 124.588 28.1503C126.663 28.3382 129.995 28.0218 130.278 29.0326C130.561 30.0433 134.138 23.5179 134.138 23.5179Z" fill="#003686"/>
    <path fill-rule="evenodd" clip-rule="evenodd" d="M166.993 36.8507C166.993 36.8507 166.247 36.2223 167.438 35.2057C168.63 34.1886 169.881 33.4108 170.239 33.6202C170.596 33.8297 171.521 34.4874 169.465 36.1925C167.409 37.8976 167.26 37.09 166.993 36.8507Z" fill="#003686"/>
    <path fill-rule="evenodd" clip-rule="evenodd" d="M171.074 39.2749C171.074 39.2749 170.418 36.3154 172.742 35.9268C175.067 35.5376 172.653 39.2749 172.265 39.3667C171.879 39.4541 171.074 39.2749 171.074 39.2749Z" fill="#003686"/>
    <path fill-rule="evenodd" clip-rule="evenodd" d="M172.296 41.042C172.296 41.042 176.973 41.4287 177.361 39.3672C177.361 39.3672 178.373 41.9697 176.497 42.9248C176.497 42.9248 173.755 43.9717 172.296 41.042Z" fill="#003686"/>
    <path fill-rule="evenodd" clip-rule="evenodd" d="M160.288 41.0357C160.288 41.0357 159.275 40.7349 159.811 39.69C160.347 38.6407 162.404 38.9717 162.91 38.4634C163.417 37.9551 165.234 37.2969 166.753 38.5831C168.273 39.8692 169.017 39.8692 169.703 40.1387C170.388 40.4058 177.152 44.9224 175.721 47.3751C174.291 49.8282 171.788 45.3712 171.788 45.3712C171.788 45.3712 173.636 46.1788 173.815 46.149C173.993 46.1187 169.524 40.9742 165.8 40.4058C162.076 39.8394 160.288 41.0357 160.288 41.0357Z" fill="#003686"/>
    <path fill-rule="evenodd" clip-rule="evenodd" d="M165.084 45.4354C165.263 45.4354 169.555 45.7645 168.482 44.3588C167.409 42.955 163.833 44.3588 163.535 43.8802C163.237 43.4037 162.582 42.4764 162.791 42.2372C162.999 41.9955 169.405 40.8612 170.835 44.5385C170.835 44.5385 171.313 46.0638 166.813 47.0511C166.813 47.0511 166.277 49.4139 165.234 49.9823C165.234 49.9823 166.247 51.3583 166.515 51.5677C166.784 51.7772 166.455 52.495 165.83 52.5551C165.204 52.6146 164.758 52.8241 164.758 52.8241C164.758 52.8241 163.804 51.8968 163.714 51.5677C163.625 51.2386 161.152 53.7811 159.543 52.2557C157.935 50.7303 157.517 50.5209 158.024 48.7557C158.024 48.7557 160.884 52.7343 162.523 50.4911C162.523 50.4911 160.169 48.2176 159.871 47.2303C159.573 46.243 159.573 44.5082 159.811 44.1493C160.05 43.7904 162.552 48.3671 163.477 48.6361C164.4 48.9056 165.026 47.7987 165.084 45.4354Z" fill="#003686"/>
    <path fill-rule="evenodd" clip-rule="evenodd" d="M188.875 65.2254C188.875 65.2254 190.451 64.9222 188.39 63.9525C186.328 62.9823 186.45 62.557 186.631 61.8304C186.813 61.1043 189.603 62.679 190.512 62.9222C191.421 63.1639 194.027 64.3153 194.148 65.2254C194.27 66.1336 193.663 67.8324 192.149 66.7406C190.633 65.6488 189.42 66.8622 189.42 66.8622C189.42 66.8622 188.632 69.5907 185.359 69.4691C182.085 69.347 184.813 67.2874 184.813 67.2874C184.813 67.2874 184.753 68.1956 185.843 67.7704C186.935 67.3475 186.874 67.7704 187.602 66.5589C188.329 65.3475 188.875 65.2254 188.875 65.2254Z" fill="#003686"/>
    <path fill-rule="evenodd" clip-rule="evenodd" d="M177.054 68.0731C177.054 68.0731 182.268 66.4368 183.419 65.7699C184.571 65.1034 185.359 64.2552 185.359 64.2552C185.359 64.2552 187.359 63.6483 188.086 64.1331C188.814 64.6185 188.45 65.1634 185.662 66.4984C182.873 67.8319 181.358 68.5584 180.752 69.1053C180.146 69.6502 177.478 70.3763 177.115 69.4686C176.751 68.5584 177.054 68.0731 177.054 68.0731Z" fill="#003686"/>
    <path fill-rule="evenodd" clip-rule="evenodd" d="M194.392 72.1339C194.392 72.1339 196.573 71.7105 196.573 71.2257C196.573 70.7409 197.907 70.2555 198.513 71.1041C199.12 71.9522 198.817 73.7105 197.604 73.7706C196.392 73.8321 194.27 72.1339 194.392 72.1339Z" fill="#003686"/>
    <path fill-rule="evenodd" clip-rule="evenodd" d="M187.541 70.7396C187.541 70.7396 192.208 69.6478 192.452 69.1625C192.693 68.6776 193.724 69.8915 192.633 71.5277C192.633 71.5277 197.24 74.1942 196.816 75.891C196.392 77.5892 196.27 78.3158 194.27 78.3158C192.269 78.3158 192.998 76.5594 192.998 76.5594C192.998 76.5594 194.512 77.4081 194.573 76.4379C194.633 75.4676 194.027 73.5277 190.693 72.9208C187.359 72.3143 188.39 73.2841 187.541 70.7396Z" fill="#003686"/>
    <path fill-rule="evenodd" clip-rule="evenodd" d="M186.328 74.4364C186.328 74.4364 185.48 71.8915 188.268 73.4686C188.268 73.4686 189.905 76.1351 190.512 76.4384C191.117 76.7416 190.815 77.7714 190.087 77.4086C189.36 77.0453 189.845 77.4086 186.328 74.4364Z" fill="#003686"/>
    <path fill-rule="evenodd" clip-rule="evenodd" d="M184.874 76.0181C184.874 76.0181 181.418 73.1079 181.298 72.2002C181.176 71.29 181.661 71.23 182.57 71.7148C183.48 72.2002 186.511 75.1099 187.663 76.5029C188.814 77.8984 189.845 78.1997 189.845 78.1997C189.845 78.1997 190.088 79.3535 189.118 79.3535C188.148 79.3535 186.874 78.9878 185.48 78.0181C184.086 77.0503 177.054 75.2915 176.084 75.9585C176.084 75.9585 175.781 74.6851 176.872 74.6851C177.964 74.6851 181.115 74.5034 184.874 76.0181Z" fill="#003686"/>
    <path fill-rule="evenodd" clip-rule="evenodd" d="M184.328 78.4406C184.328 78.4406 180.327 77.1071 179.479 80.5621C178.63 84.0167 181.964 88.2003 182.812 88.1408C183.662 88.0787 184.874 89.2301 187.723 86.3204C187.723 86.3204 183.297 86.5636 183.055 85.1085C182.812 83.6539 180.934 82.1388 182.752 80.2584C184.571 78.3805 184.328 78.4406 184.328 78.4406Z" fill="#003686"/>
    <path fill-rule="evenodd" clip-rule="evenodd" d="M19.2275 109.139L17.1401 109.218C16.7939 109.231 16.5791 109.259 16.4937 109.299C16.4097 109.34 16.3359 109.417 16.2759 109.528C16.2139 109.641 16.1885 109.791 16.1948 109.977L16.2031 110.197L16.0313 110.203L15.8989 106.708L16.0708 106.701L16.0791 106.923C16.0869 107.118 16.1284 107.271 16.2021 107.389C16.2524 107.473 16.3345 107.537 16.4487 107.577C16.5303 107.609 16.7397 107.62 17.0791 107.607L21.5073 107.44C21.8535 107.425 22.0693 107.4 22.1538 107.361C22.2393 107.321 22.312 107.246 22.3716 107.133C22.4336 107.021 22.4604 106.87 22.4526 106.682L22.4443 106.46L22.6172 106.453L22.749 109.951L22.5767 109.958L22.5684 109.735C22.5605 109.543 22.52 109.389 22.4453 109.273C22.395 109.19 22.314 109.126 22.1987 109.082C22.1187 109.049 21.9082 109.039 21.5684 109.051L19.6636 109.122L19.7534 111.504L21.6592 111.432C22.0044 111.419 22.2202 111.393 22.3042 111.353C22.3896 111.314 22.4634 111.237 22.5225 111.122C22.5845 111.009 22.6108 110.859 22.6035 110.671L22.5947 110.453L22.7681 110.447L22.8994 113.942L22.7275 113.949L22.7188 113.73C22.7124 113.534 22.6709 113.378 22.5972 113.267C22.5459 113.184 22.4648 113.117 22.3501 113.073C22.269 113.041 22.0586 113.03 21.7202 113.042L17.2905 113.211C16.9458 113.224 16.73 113.25 16.6455 113.288C16.5601 113.329 16.4873 113.404 16.4263 113.521C16.3657 113.634 16.3389 113.784 16.3462 113.972L16.354 114.19L16.1816 114.196L16.0493 110.701L16.2227 110.694L16.23 110.913C16.2373 111.107 16.2793 111.263 16.353 111.376C16.4028 111.459 16.4854 111.523 16.5996 111.568C16.6807 111.603 16.8911 111.611 17.231 111.598L19.3174 111.521L19.2275 109.139ZM22.8462 114.194L22.6753 114.218C22.7188 114.498 22.7178 114.694 22.6782 114.808C22.6357 114.921 22.5703 115.004 22.4829 115.062C22.395 115.115 22.1592 115.171 21.7715 115.226L18.5127 115.681C17.9604 115.758 17.5332 115.908 17.231 116.13C16.9277 116.35 16.7031 116.692 16.5527 117.149C16.4424 117.482 16.4277 117.937 16.5078 118.512C16.604 119.203 16.8262 119.724 17.1733 120.085C17.5205 120.442 17.873 120.647 18.2354 120.702C18.5952 120.756 19.1665 120.728 19.9487 120.619L22.4766 120.267C22.751 120.228 22.9434 120.224 23.0542 120.249C23.2144 120.284 23.3408 120.358 23.4336 120.472C23.5264 120.585 23.5854 120.734 23.6118 120.92L23.6313 121.057L23.8022 121.034L23.4805 118.732L23.3096 118.758C23.3472 119.027 23.3384 119.241 23.2827 119.397C23.2466 119.499 23.1685 119.591 23.0479 119.67C22.9292 119.751 22.7178 119.812 22.4185 119.854L19.7051 120.234C18.999 120.333 18.4946 120.337 18.1934 120.251C17.8911 120.166 17.6421 120.008 17.4448 119.777C17.2471 119.549 17.124 119.254 17.0728 118.893C17.0303 118.581 17.0566 118.31 17.1553 118.087C17.2544 117.863 17.3936 117.694 17.5762 117.577C17.7554 117.459 18.1421 117.361 18.7383 117.277L21.9946 116.822C22.3794 116.769 22.6206 116.754 22.7222 116.784C22.8228 116.81 22.9067 116.869 22.9751 116.957C23.0435 117.047 23.0947 117.22 23.1313 117.48L23.1558 117.651L23.3257 117.628L22.8462 114.194ZM24.3354 123.856L20.8677 127.89L23.7026 127.347C24.1035 127.27 24.3608 127.164 24.4795 127.022C24.6406 126.828 24.6812 126.548 24.6045 126.183L24.7744 126.151L25.1919 128.332L25.0234 128.364C24.9326 128.093 24.8501 127.914 24.7754 127.828C24.6997 127.745 24.5918 127.689 24.4517 127.657C24.3115 127.629 24.0854 127.646 23.771 127.706L18.2734 128.757L18.2427 128.593L22.8931 123.083L18.6841 123.888C18.3022 123.963 18.0591 124.098 17.9585 124.298C17.8569 124.499 17.8301 124.713 17.873 124.935L17.9019 125.093L17.7329 125.125L17.2832 122.775L17.4531 122.741C17.5259 123.106 17.6484 123.343 17.8237 123.461C17.998 123.576 18.2617 123.6 18.6143 123.531L23.2842 122.636L23.4292 122.467C23.5811 122.292 23.6763 122.146 23.7114 122.029C23.7476 121.912 23.75 121.751 23.7178 121.548L23.8877 121.517L24.3354 123.856ZM21.9038 133.793L21.2329 131.541L20.5205 131.45C20.2842 131.422 20.0952 131.428 19.9575 131.471C19.7744 131.524 19.6626 131.638 19.6177 131.809C19.5928 131.909 19.6167 132.131 19.6904 132.475L19.5259 132.522L18.8892 130.383L19.0537 130.334C19.1582 130.554 19.312 130.717 19.5127 130.817C19.7158 130.917 20.0981 131.005 20.6582 131.076L26.4761 131.849L26.5029 131.939L21.9189 135.83C21.4785 136.201 21.2134 136.479 21.124 136.661C21.0566 136.797 21.0449 136.966 21.0874 137.169L20.9219 137.218L19.9956 134.103L20.1611 134.056L20.1987 134.185C20.2734 134.432 20.3613 134.599 20.4624 134.678C20.5342 134.731 20.6187 134.744 20.7139 134.716C20.7725 134.697 20.8291 134.674 20.8857 134.635C20.9111 134.62 21.019 134.537 21.2041 134.385L21.9038 133.793ZM22.207 133.537L24.1172 131.924L21.6304 131.595L22.207 133.537ZM28.2954 137.599L27.395 135.396L27.2349 135.46C27.3062 135.652 27.3359 135.811 27.3232 135.932C27.3115 136.056 27.2485 136.216 27.1333 136.417L27.0254 136.614L22.625 138.411C22.2915 138.547 22.0288 138.575 21.8354 138.498C21.6401 138.419 21.4731 138.21 21.3291 137.868L21.1689 137.934L22.0747 140.147L22.2339 140.083L22.1738 139.936C22.0874 139.725 22.0728 139.509 22.1323 139.293C22.1924 139.077 22.4028 138.895 22.7627 138.748L26.7305 137.128L23.2593 143.449L23.3223 143.603L28.5039 141.485C28.7998 141.366 29.0186 141.304 29.1621 141.304C29.3052 141.306 29.4214 141.34 29.5122 141.406C29.603 141.477 29.7183 141.635 29.8604 141.885L30.021 141.818L29.1802 139.763L29.021 139.829C29.1685 140.171 29.1831 140.453 29.0625 140.675C28.9751 140.835 28.7432 140.994 28.3662 141.147L25.6943 142.239L28.2954 137.599ZM28.0166 152.326L27.8647 152.408L26.2314 149.313L26.3833 149.232L26.4868 149.429C26.5776 149.602 26.6821 149.722 26.7988 149.796C26.8809 149.85 26.9814 149.871 27.103 149.858C27.1909 149.852 27.3843 149.771 27.6846 149.613L31.603 147.544C31.9087 147.382 32.0913 147.265 32.1519 147.194C32.2109 147.119 32.2441 147.021 32.2495 146.893C32.2559 146.765 32.2153 146.62 32.1265 146.451L32.0239 146.256L32.1768 146.175L33.8091 149.269L33.6572 149.348L33.5537 149.153C33.4639 148.982 33.3604 148.861 33.2427 148.79C33.1616 148.737 33.0601 148.713 32.9375 148.724C32.8506 148.729 32.6563 148.812 32.356 148.97L28.4375 151.038C28.1309 151.2 27.9482 151.318 27.8896 151.391C27.8306 151.465 27.7979 151.565 27.7925 151.692C27.7861 151.82 27.8267 151.965 27.9131 152.132L28.0166 152.326ZM35.1582 151.517L33.8486 149.529L33.7056 149.624C33.812 149.799 33.8711 149.946 33.8828 150.07C33.8955 150.192 33.8647 150.363 33.79 150.581L33.7217 150.794L29.7515 153.41C29.4512 153.608 29.1992 153.687 28.9941 153.649C28.7871 153.608 28.583 153.435 28.3755 153.127L28.2314 153.222L29.5474 155.219L29.6919 155.125L29.6055 154.993C29.479 154.8 29.4238 154.595 29.4395 154.371C29.4565 154.146 29.6274 153.929 29.9526 153.715L33.5313 151.356L31.3477 158.23L31.4395 158.369L36.1143 155.29C36.3804 155.115 36.5845 155.012 36.7246 154.984C36.8657 154.958 36.9863 154.969 37.0889 155.019C37.1904 155.067 37.3354 155.202 37.5225 155.418L37.6655 155.324L36.4448 153.469L36.3013 153.563C36.5107 153.871 36.5801 154.146 36.5063 154.386C36.4512 154.561 36.2534 154.76 35.9136 154.984L33.5024 156.572L35.1582 151.517ZM40.8491 159.431L39.0693 160.794L38.9497 160.629C39.3452 160.221 39.5718 159.766 39.626 159.26C39.6792 158.755 39.5781 158.328 39.3203 157.976C39.1216 157.702 38.8911 157.538 38.6304 157.486C38.3687 157.433 38.1431 157.476 37.9541 157.614C37.8345 157.702 37.749 157.809 37.6958 157.933C37.6274 158.1 37.5933 158.315 37.5962 158.576C37.6006 158.766 37.6563 159.17 37.7627 159.785C37.9155 160.65 37.9341 161.293 37.8184 161.717C37.7021 162.14 37.4648 162.479 37.1069 162.74C36.6538 163.071 36.1357 163.178 35.5503 163.063C34.9673 162.947 34.4756 162.618 34.0771 162.074C33.9531 161.902 33.8521 161.728 33.7759 161.552C33.6978 161.373 33.624 161.133 33.5537 160.834C33.5122 160.667 33.4629 160.544 33.4019 160.46C33.3506 160.39 33.2705 160.338 33.1606 160.298C33.0493 160.262 32.9214 160.257 32.7769 160.291L32.6743 160.15L34.7227 158.657L34.8237 158.796C34.3335 159.332 34.0601 159.879 34.0024 160.435C33.9458 160.99 34.0581 161.462 34.3413 161.849C34.5591 162.148 34.8154 162.328 35.1069 162.385C35.3989 162.445 35.6519 162.396 35.8696 162.238C35.9971 162.146 36.0962 162.02 36.167 161.864C36.2363 161.708 36.2749 161.524 36.2822 161.304C36.2886 161.086 36.25 160.738 36.167 160.26C36.0474 159.589 35.9946 159.082 36.0088 158.743C36.0225 158.403 36.0933 158.1 36.2183 157.83C36.3452 157.559 36.5356 157.333 36.7876 157.148C37.2212 156.833 37.7041 156.721 38.2417 156.817C38.7769 156.912 39.2212 157.2 39.5737 157.683C39.7017 157.86 39.8057 158.046 39.8833 158.24C39.9434 158.392 39.9956 158.586 40.0415 158.83C40.0874 159.074 40.1367 159.229 40.189 159.302C40.2402 159.371 40.3013 159.411 40.3716 159.42C40.4434 159.428 40.5728 159.392 40.7583 159.309L40.8491 159.431ZM45.3926 164.917L41.3857 160.409L40.0288 161.612L40.1567 161.757C40.5767 161.486 40.9805 161.366 41.3706 161.403C41.6494 161.43 41.937 161.608 42.2358 161.945L42.5596 162.309L38.6782 165.757C38.4243 165.983 38.2554 166.107 38.1719 166.135C38.0547 166.174 37.9507 166.176 37.8589 166.144C37.73 166.101 37.5996 166.009 37.4712 165.864L37.3237 165.699L37.1958 165.812L39.519 168.428L39.6475 168.314L39.502 168.15C39.376 168.007 39.3013 167.876 39.2778 167.749C39.2544 167.626 39.2617 167.52 39.3013 167.434C39.3408 167.351 39.4902 167.193 39.749 166.962L43.6299 163.514L43.9668 163.892C44.1758 164.129 44.2988 164.312 44.3384 164.445C44.4058 164.685 44.4155 164.915 44.3628 165.133C44.3115 165.349 44.1641 165.637 43.9219 165.994L44.0361 166.124L45.3926 164.917ZM43.6836 172.537L43.5605 172.656L41.1152 170.156L41.2383 170.035L41.3931 170.192C41.5298 170.332 41.6646 170.419 41.7969 170.456C41.8911 170.485 41.9937 170.477 42.1064 170.43C42.189 170.4 42.3511 170.268 42.5938 170.028L45.7622 166.932C46.0103 166.688 46.1523 166.524 46.1885 166.438C46.2241 166.351 46.228 166.246 46.1973 166.124C46.1675 166 46.0859 165.87 45.9546 165.736L45.7998 165.578L45.9238 165.456L48.3682 167.958L48.2451 168.08L48.0894 167.921C47.9556 167.783 47.8223 167.695 47.6895 167.661C47.5957 167.633 47.4922 167.639 47.3765 167.684C47.2954 167.714 47.1318 167.847 46.8896 168.084L43.7207 171.182C43.4731 171.423 43.332 171.588 43.2959 171.675C43.2603 171.763 43.2573 171.868 43.2891 171.992C43.3179 172.118 43.3994 172.246 43.5298 172.378L43.6836 172.537ZM53.3765 172.601L48.959 168.492L47.7227 169.821L47.8638 169.951C48.2568 169.642 48.647 169.485 49.0381 169.485C49.3169 169.483 49.6221 169.635 49.9512 169.94L50.3081 170.271L46.772 174.075C46.541 174.323 46.3843 174.464 46.3042 174.498C46.1909 174.547 46.0884 174.56 45.9941 174.536C45.8599 174.506 45.7217 174.427 45.5806 174.297L45.4194 174.145L45.3008 174.271L47.8638 176.654L47.9814 176.528L47.8198 176.378C47.6812 176.25 47.5947 176.124 47.5581 176C47.5229 175.88 47.521 175.773 47.5518 175.686C47.583 175.596 47.7163 175.427 47.9536 175.173L51.4888 171.37L51.8604 171.716C52.0898 171.93 52.23 172.101 52.2813 172.231C52.3721 172.462 52.4028 172.69 52.3711 172.913C52.3423 173.133 52.2227 173.432 52.0142 173.812L52.1411 173.93L53.3765 172.601ZM53.8081 172.814L56.562 174.921L56.4561 175.058L56.3184 174.953C56.1104 174.793 55.9521 174.705 55.8398 174.69C55.7285 174.675 55.6284 174.692 55.5366 174.744C55.4458 174.795 55.2822 174.975 55.0459 175.282L53.0474 177.893C52.6821 178.372 52.4771 178.713 52.4297 178.923C52.3828 179.134 52.4028 179.35 52.4888 179.581C52.5762 179.81 52.7461 180.021 52.9971 180.213C53.2866 180.434 53.5815 180.557 53.8828 180.583C54.1851 180.606 54.4736 180.544 54.749 180.393C55.0234 180.243 55.3794 179.884 55.813 179.318L57.4785 177.143C57.6611 176.904 57.769 176.711 57.7979 176.57C57.8267 176.429 57.8184 176.31 57.7734 176.211C57.7007 176.06 57.5576 175.902 57.3418 175.737L57.4478 175.601L59.2905 177.011L59.186 177.149L59.0757 177.064C58.9263 176.951 58.7798 176.887 58.6348 176.872C58.4883 176.854 58.3462 176.891 58.2085 176.979C58.1099 177.038 57.9766 177.177 57.8076 177.397L56.2563 179.423C55.7769 180.049 55.3892 180.47 55.0952 180.684C54.7983 180.899 54.4028 181.002 53.9053 180.991C53.4053 180.978 52.8804 180.762 52.3281 180.339C51.8667 179.985 51.5581 179.651 51.4019 179.335C51.1875 178.906 51.1084 178.504 51.1694 178.134C51.229 177.765 51.4277 177.356 51.7661 176.915L53.7671 174.301C54.0044 173.992 54.1338 173.787 54.1572 173.686C54.1797 173.583 54.1689 173.479 54.1187 173.37C54.0684 173.259 53.9307 173.12 53.7031 172.951L53.8081 172.814ZM64.7739 180.408L59.6548 177.216L58.6943 178.756L58.8579 178.856C59.1846 178.479 59.5386 178.25 59.9219 178.175C60.1953 178.122 60.5244 178.211 60.9058 178.448L61.3184 178.707L58.5703 183.113C58.3911 183.399 58.2651 183.568 58.1924 183.617C58.0908 183.687 57.9912 183.72 57.894 183.715C57.7573 183.709 57.6069 183.658 57.4434 183.555L57.2554 183.439L57.1646 183.585L60.1323 185.437L60.2241 185.29L60.0371 185.174C59.876 185.074 59.7671 184.967 59.7095 184.854C59.6514 184.743 59.6279 184.638 59.6431 184.544C59.6558 184.452 59.7554 184.26 59.939 183.965L62.6865 179.56L63.1162 179.829C63.3833 179.996 63.5532 180.136 63.6279 180.254C63.7612 180.463 63.835 180.681 63.8467 180.906C63.8584 181.128 63.7988 181.444 63.6675 181.856L63.814 181.948L64.7739 180.408ZM67.2046 182.207L65.9868 184.66L66.1074 184.717C66.4897 184.907 66.8262 184.927 67.1172 184.773C67.4067 184.619 67.6929 184.32 67.9717 183.877L68.1436 183.963L66.5786 187.115L66.4053 187.029C66.5425 186.668 66.6064 186.35 66.6011 186.074C66.5947 185.798 66.5356 185.587 66.4224 185.435C66.3081 185.284 66.1074 185.138 65.8198 184.995L64.9805 186.687C64.8149 187.019 64.7295 187.228 64.7207 187.315C64.7109 187.403 64.7334 187.491 64.7881 187.574C64.8423 187.659 64.9536 187.747 65.1255 187.83L65.4858 188.01C66.0464 188.29 66.5625 188.381 67.0303 188.292C67.4985 188.202 67.9375 187.929 68.3486 187.467L68.5142 187.548L67.2944 189.326L62.0981 186.747L62.1738 186.591L62.3726 186.689C62.5469 186.777 62.7026 186.815 62.8394 186.805C62.938 186.8 63.0317 186.76 63.1235 186.679C63.1909 186.623 63.3008 186.444 63.4517 186.14L65.4229 182.17C65.5581 181.897 65.6343 181.726 65.6504 181.653C65.6738 181.536 65.6597 181.427 65.6074 181.333C65.5356 181.194 65.4043 181.074 65.209 180.978L65.0112 180.88L65.0874 180.724L70.1191 183.224L69.2344 185.003L69.0625 184.918C69.1938 184.439 69.228 184.068 69.167 183.801C69.1074 183.536 68.9575 183.288 68.7192 183.059C68.5806 182.922 68.2847 182.743 67.8315 182.519L67.2046 182.207ZM78.6729 186.766C79.6855 187.11 80.3896 187.711 80.7798 188.567C81.1694 189.426 81.188 190.319 80.833 191.251C80.5317 192.046 80.0317 192.657 79.3354 193.084C78.4146 193.65 77.3901 193.721 76.2617 193.291C75.1304 192.862 74.4019 192.148 74.0747 191.148C73.8164 190.358 73.8442 189.55 74.1592 188.721C74.5142 187.788 75.125 187.134 75.9966 186.753C76.8677 186.373 77.7593 186.377 78.6729 186.766ZM78.6152 187.083C78.0396 186.862 77.4902 186.988 76.9668 187.461C76.5386 187.848 76.1548 188.491 75.813 189.392C75.4063 190.463 75.2959 191.326 75.4785 191.979C75.6069 192.437 75.9072 192.755 76.3813 192.937C76.6997 193.057 76.9956 193.082 77.2681 193.009C77.6143 192.916 77.9478 192.681 78.2637 192.304C78.5801 191.931 78.8706 191.392 79.1343 190.698C79.4497 189.869 79.6089 189.219 79.6099 188.749C79.6118 188.277 79.5254 187.912 79.3491 187.651C79.1729 187.39 78.9292 187.2 78.6152 187.083ZM84.8447 189.189L85.4419 189.35C85.96 189.49 86.3071 189.61 86.4854 189.71C86.8101 189.89 87.0356 190.112 87.1616 190.371C87.2891 190.631 87.3154 190.986 87.2407 191.435L87.4375 191.486L87.9404 189.627L82.4795 188.148L82.4336 188.317L82.647 188.373C82.8306 188.422 82.9653 188.493 83.0542 188.587C83.144 188.676 83.1938 188.769 83.208 188.862C83.2188 188.954 83.1802 189.168 83.0894 189.501L81.9321 193.779C81.8438 194.108 81.771 194.304 81.7163 194.373C81.6431 194.469 81.5586 194.529 81.4624 194.552C81.3311 194.588 81.1685 194.582 80.9814 194.531L80.7681 194.473L80.7231 194.64L84.1001 195.552L84.146 195.385L83.9312 195.328C83.7515 195.281 83.6162 195.21 83.5273 195.118C83.4385 195.028 83.3887 194.935 83.3735 194.84C83.3599 194.749 83.3979 194.535 83.4888 194.2L84.0264 192.212L84.2124 192.264C84.5527 192.355 84.833 192.537 85.0488 192.807C85.2646 193.074 85.3188 193.522 85.2144 194.152L85.3799 194.197L86.2593 190.948L86.0933 190.903C85.9619 191.24 85.8042 191.495 85.6235 191.664C85.4438 191.832 85.2495 191.935 85.0464 191.973C84.8403 192.01 84.5947 191.988 84.3081 191.911L84.1216 191.86L84.8447 189.189ZM97.2817 191.148L96.9658 193.368L96.7646 193.334C96.7617 192.766 96.6035 192.283 96.2905 191.883C95.9731 191.486 95.6016 191.251 95.1709 191.181C94.8374 191.125 94.5601 191.17 94.3364 191.315C94.1123 191.46 93.9819 191.648 93.9434 191.879C93.9189 192.027 93.9326 192.164 93.9819 192.287C94.0503 192.456 94.1772 192.633 94.3623 192.817C94.498 192.95 94.8193 193.2 95.3281 193.565C96.0415 194.073 96.5054 194.52 96.7202 194.902C96.9316 195.287 97.001 195.695 96.9292 196.133C96.8374 196.687 96.5415 197.124 96.0439 197.454C95.5459 197.78 94.9648 197.887 94.2993 197.778C94.0908 197.744 93.8965 197.688 93.7183 197.616C93.5376 197.543 93.3184 197.426 93.0576 197.261C92.9116 197.169 92.7886 197.116 92.687 197.099C92.6016 197.086 92.5078 197.103 92.4019 197.154C92.2959 197.204 92.2021 197.291 92.1221 197.417L91.9521 197.39L92.3657 194.888L92.5366 194.917C92.563 195.642 92.751 196.225 93.0981 196.661C93.4478 197.097 93.8569 197.355 94.3311 197.435C94.6953 197.494 95.0044 197.443 95.2534 197.281C95.5034 197.118 95.6494 196.907 95.6934 196.642C95.7188 196.486 95.7031 196.328 95.644 196.167C95.5845 196.005 95.4829 195.847 95.3345 195.685C95.186 195.524 94.9146 195.304 94.519 195.02C93.9648 194.625 93.5737 194.3 93.3442 194.048C93.1177 193.796 92.9541 193.531 92.856 193.249C92.7563 192.967 92.7329 192.672 92.7842 192.364C92.8721 191.836 93.1392 191.417 93.5898 191.11C94.0386 190.802 94.5576 190.698 95.1475 190.796C95.3633 190.832 95.5674 190.892 95.7607 190.976C95.9067 191.041 96.0811 191.144 96.2842 191.285C96.4858 191.428 96.6313 191.505 96.7202 191.52C96.8057 191.533 96.876 191.52 96.9326 191.476C96.9902 191.433 97.0576 191.315 97.1313 191.125L97.2817 191.148ZM104.721 191.646L104.572 193.975L104.381 193.962C104.274 193.343 104.036 192.858 103.662 192.507C103.288 192.157 102.851 191.967 102.352 191.933C101.936 191.907 101.544 192.003 101.18 192.221C100.817 192.441 100.543 192.74 100.356 193.119C100.117 193.605 99.9785 194.155 99.9399 194.764C99.9023 195.364 99.9429 195.917 100.062 196.422C100.181 196.924 100.395 197.312 100.701 197.586C101.006 197.857 101.418 198.011 101.93 198.043C102.351 198.071 102.742 198.003 103.104 197.84C103.465 197.678 103.856 197.383 104.272 196.956L104.234 197.533C103.835 197.902 103.426 198.163 103.008 198.314C102.591 198.466 102.111 198.522 101.568 198.488C100.852 198.443 100.229 198.259 99.6929 197.937C99.1567 197.616 98.7539 197.174 98.4878 196.62C98.2197 196.062 98.1064 195.481 98.145 194.874C98.1855 194.234 98.3906 193.638 98.7617 193.086C99.1323 192.533 99.6108 192.116 100.2 191.836C100.786 191.557 101.398 191.437 102.037 191.476C102.507 191.507 102.997 191.64 103.507 191.879C103.803 192.018 103.992 192.088 104.071 192.095C104.179 192.102 104.272 192.067 104.354 191.995C104.438 191.922 104.494 191.802 104.528 191.636L104.721 191.646ZM109.055 198.368L109.053 198.539L105.555 198.494L105.557 198.323L105.778 198.325C105.973 198.328 106.131 198.293 106.25 198.227C106.336 198.18 106.403 198.101 106.45 197.99C106.488 197.911 106.508 197.702 106.512 197.362L106.569 192.931C106.573 192.584 106.558 192.369 106.524 192.281C106.488 192.193 106.415 192.116 106.307 192.052C106.198 191.984 106.049 191.95 105.86 191.948L105.638 191.945L105.642 191.772L109.138 191.817L109.137 191.99L108.916 191.988C108.723 191.986 108.566 192.018 108.448 192.086C108.362 192.131 108.294 192.21 108.244 192.324C108.208 192.403 108.186 192.612 108.181 192.95L108.124 197.381C108.12 197.729 108.136 197.945 108.171 198.03C108.21 198.118 108.281 198.195 108.39 198.261C108.499 198.328 108.648 198.362 108.834 198.364L109.055 198.368ZM112.002 192.086L112.243 194.813L112.376 194.802C112.802 194.764 113.1 194.604 113.267 194.321C113.434 194.037 113.523 193.636 113.529 193.112L113.721 193.095L114.031 196.599L113.839 196.616C113.766 196.238 113.655 195.932 113.506 195.702C113.357 195.469 113.195 195.317 113.021 195.249C112.844 195.178 112.597 195.159 112.277 195.187L112.443 197.069C112.477 197.438 112.511 197.661 112.55 197.74C112.589 197.821 112.653 197.883 112.744 197.926C112.834 197.971 112.975 197.986 113.165 197.969L113.565 197.935C114.19 197.879 114.678 197.688 115.03 197.368C115.382 197.045 115.614 196.584 115.724 195.975L115.908 195.96L115.795 198.112L110.016 198.624L110.002 198.451L110.221 198.432C110.415 198.415 110.568 198.366 110.681 198.287C110.762 198.233 110.821 198.148 110.856 198.03C110.885 197.947 110.884 197.738 110.854 197.4L110.463 192.986C110.437 192.681 110.412 192.495 110.388 192.426C110.346 192.313 110.278 192.229 110.183 192.174C110.05 192.093 109.877 192.061 109.66 192.08L109.439 192.099L109.423 191.928L115.019 191.433L115.194 193.411L115.002 193.428C114.865 192.952 114.7 192.619 114.508 192.422C114.318 192.228 114.062 192.095 113.739 192.022C113.55 191.979 113.204 191.979 112.699 192.024L112.002 192.086ZM118.625 191.027L122.479 194.693L122.08 191.834C122.024 191.431 121.929 191.168 121.794 191.041C121.609 190.871 121.332 190.817 120.963 190.875L120.94 190.704L123.139 190.396L123.163 190.567C122.886 190.644 122.704 190.717 122.615 190.788C122.527 190.858 122.465 190.962 122.429 191.102C122.394 191.24 122.398 191.467 122.442 191.783L123.215 197.328L123.051 197.351L117.782 192.428L118.375 196.674C118.428 197.059 118.552 197.306 118.747 197.417C118.941 197.528 119.153 197.567 119.379 197.535L119.536 197.514L119.561 197.685L117.19 198.016L117.167 197.845C117.534 197.791 117.777 197.68 117.902 197.509C118.026 197.34 118.063 197.08 118.013 196.723L117.355 192.014L117.192 191.862C117.025 191.702 116.887 191.599 116.769 191.557C116.654 191.516 116.495 191.505 116.291 191.529L116.267 191.358L118.625 191.027ZM129.755 188.64L130.308 190.905L130.121 190.95C129.835 190.39 129.462 189.997 129.002 189.774C128.54 189.55 128.065 189.499 127.581 189.619C127.174 189.717 126.83 189.924 126.547 190.243C126.266 190.561 126.093 190.928 126.028 191.345C125.945 191.879 125.977 192.445 126.122 193.04C126.264 193.625 126.468 194.14 126.732 194.584C126.996 195.028 127.315 195.336 127.689 195.505C128.062 195.674 128.5 195.697 128.999 195.576C129.409 195.475 129.761 195.293 130.06 195.033C130.355 194.768 130.639 194.373 130.91 193.841L131.047 194.402C130.776 194.873 130.461 195.244 130.108 195.514C129.755 195.783 129.315 195.979 128.786 196.107C128.09 196.278 127.439 196.289 126.832 196.142C126.224 195.994 125.708 195.695 125.289 195.244C124.868 194.791 124.585 194.27 124.44 193.68C124.289 193.057 124.307 192.426 124.496 191.79C124.685 191.15 125.019 190.61 125.495 190.166C125.972 189.726 126.521 189.429 127.144 189.277C127.601 189.164 128.108 189.146 128.666 189.221C128.99 189.266 129.19 189.277 129.27 189.258C129.374 189.232 129.453 189.174 129.51 189.08C129.567 188.986 129.585 188.854 129.568 188.685L129.755 188.64ZM132.948 188.26L133.608 188.027C134.086 187.858 134.421 187.772 134.615 187.769C134.946 187.758 135.228 187.822 135.46 187.965C135.693 188.108 135.936 188.39 136.187 188.817L136.368 188.753L135.708 186.879L130.41 188.745L130.468 188.907L130.676 188.834C130.881 188.762 131.059 188.749 131.208 188.796C131.312 188.826 131.399 188.89 131.469 188.988C131.509 189.05 131.578 189.226 131.681 189.514L133.153 193.693C133.265 194.014 133.317 194.217 133.311 194.302C133.306 194.426 133.269 194.522 133.204 194.595C133.115 194.7 132.979 194.785 132.796 194.851L132.586 194.924L132.644 195.086L138.116 193.159L137.692 191.046L137.518 191.108C137.562 191.721 137.452 192.228 137.191 192.627C136.929 193.024 136.503 193.33 135.911 193.537L135.532 193.672C135.351 193.736 135.212 193.755 135.113 193.736C135.015 193.714 134.937 193.67 134.88 193.602C134.823 193.535 134.733 193.328 134.61 192.979L133.982 191.195C134.286 191.089 134.531 191.048 134.719 191.072C134.905 191.095 135.099 191.202 135.301 191.39C135.502 191.576 135.686 191.845 135.85 192.193L136.032 192.129L134.862 188.811L134.68 188.875C134.804 189.384 134.819 189.796 134.728 190.112C134.634 190.426 134.388 190.655 133.984 190.798L133.858 190.843L132.948 188.26ZM146.548 187.527L144.418 188.522L144.431 189.24C144.44 189.478 144.476 189.664 144.537 189.794C144.618 189.967 144.746 190.061 144.92 190.08C145.024 190.089 145.241 190.033 145.569 189.909L145.641 190.065L143.619 191.01L143.546 190.856C143.748 190.719 143.885 190.544 143.956 190.33C144.026 190.114 144.056 189.723 144.042 189.159L143.95 183.29L144.036 183.251L148.559 187.213C148.993 187.593 149.305 187.813 149.497 187.875C149.644 187.922 149.812 187.909 150.005 187.837L150.079 187.993L147.136 189.369L147.063 189.21L147.184 189.155C147.42 189.044 147.571 188.933 147.635 188.822C147.678 188.745 147.678 188.659 147.635 188.567C147.609 188.514 147.576 188.46 147.529 188.409C147.511 188.388 147.414 188.292 147.235 188.132L146.548 187.527ZM146.251 187.264L144.372 185.612L144.412 188.121L146.251 187.264ZM149.351 180.583L147.301 181.796L147.39 181.944C147.568 181.846 147.72 181.794 147.843 181.788C147.966 181.782 148.135 181.822 148.352 181.908L148.559 181.984L150.981 186.076C151.164 186.386 151.231 186.64 151.183 186.843C151.132 187.048 150.95 187.245 150.631 187.437L150.719 187.587L152.779 186.367L152.691 186.219L152.554 186.3C152.358 186.416 152.148 186.461 151.925 186.435C151.703 186.407 151.493 186.224 151.295 185.89L149.112 182.203L155.872 184.713L156.015 184.627L153.165 179.812C153.002 179.536 152.91 179.329 152.89 179.187C152.871 179.044 152.888 178.925 152.94 178.825C152.996 178.726 153.136 178.587 153.361 178.412L153.273 178.263L151.362 179.395L151.45 179.542C151.768 179.346 152.046 179.291 152.281 179.376C152.454 179.44 152.643 179.647 152.85 179.998L154.32 182.482L149.351 180.583ZM157.46 183.596L157.36 183.455L157.537 183.324C157.694 183.211 157.798 183.096 157.845 182.984C157.892 182.875 157.904 182.762 157.882 182.647C157.865 182.574 157.753 182.395 157.546 182.113L154.934 178.534C154.73 178.254 154.587 178.092 154.507 178.042C154.427 177.993 154.324 177.976 154.196 177.989C154.069 178 153.93 178.062 153.776 178.175L153.598 178.303L153.497 178.164L155.924 176.393C156.571 175.921 157.158 175.628 157.681 175.515C158.32 175.38 158.925 175.44 159.494 175.694C160.064 175.951 160.55 176.357 160.954 176.908C161.231 177.288 161.427 177.686 161.539 178.098C161.65 178.508 161.687 178.891 161.646 179.241C161.603 179.594 161.502 179.925 161.339 180.239C161.177 180.551 160.938 180.875 160.621 181.213C160.481 181.365 160.237 181.568 159.888 181.822L157.46 183.596ZM155.782 176.961C156.226 176.632 156.575 176.438 156.828 176.382C157.187 176.299 157.571 176.359 157.983 176.558C158.507 176.814 159.022 177.288 159.53 177.987C160.162 178.85 160.466 179.606 160.445 180.252C160.433 180.728 160.204 181.128 159.757 181.455C159.62 181.555 159.501 181.608 159.4 181.621C159.33 181.632 159.265 181.621 159.208 181.585C159.149 181.551 159.037 181.42 158.874 181.196L155.782 176.961ZM167.135 166.93L168.403 168.229L168.28 168.349C167.912 168.122 167.618 167.99 167.398 167.949C167.177 167.906 166.949 167.926 166.713 168.007C166.582 168.052 166.403 168.184 166.179 168.402L165.815 168.757L169.445 172.47C169.687 172.718 169.852 172.859 169.939 172.895C170.024 172.932 170.131 172.934 170.253 172.904C170.378 172.874 170.506 172.793 170.643 172.66L170.799 172.506L170.921 172.63L168.419 175.075L168.297 174.953L168.456 174.797C168.594 174.663 168.681 174.53 168.717 174.397C168.744 174.304 168.737 174.199 168.692 174.085C168.663 174.002 168.529 173.84 168.292 173.596L164.664 169.885L164.315 170.225C163.994 170.539 163.828 170.836 163.815 171.116C163.797 171.507 163.935 171.904 164.226 172.31L164.089 172.445L162.82 171.145L167.135 166.93ZM169.701 164.8L170.177 164.287C170.523 163.915 170.78 163.683 170.949 163.588C171.237 163.426 171.517 163.354 171.789 163.371C172.06 163.388 172.407 163.526 172.829 163.787L172.959 163.648L171.504 162.293L167.68 166.409L167.806 166.524L167.956 166.364C168.104 166.204 168.255 166.112 168.408 166.082C168.515 166.058 168.622 166.075 168.73 166.131C168.793 166.167 168.936 166.289 169.16 166.499L172.405 169.515C172.654 169.746 172.796 169.902 172.829 169.983C172.881 170.092 172.894 170.197 172.871 170.291C172.839 170.423 172.758 170.564 172.627 170.706L172.476 170.868L172.603 170.985L176.553 166.735L175.195 165.061L175.07 165.197C175.394 165.723 175.533 166.221 175.486 166.695C175.44 167.169 175.204 167.637 174.776 168.097L174.502 168.392C174.373 168.53 174.258 168.614 174.162 168.642C174.064 168.669 173.975 168.665 173.893 168.631C173.811 168.599 173.635 168.458 173.364 168.206L171.981 166.917C172.2 166.685 172.398 166.533 172.574 166.466C172.751 166.4 172.971 166.404 173.239 166.477C173.502 166.55 173.791 166.701 174.098 166.934L174.23 166.793L171.653 164.398L171.521 164.539C171.866 164.932 172.07 165.291 172.137 165.612C172.201 165.935 172.087 166.253 171.797 166.564L171.706 166.663L169.701 164.8Z" fill="#003686"/>
    <path fill-rule="evenodd" clip-rule="evenodd" d="M176.036 156.227L177.888 157.646L177.771 157.8C177.196 157.541 176.661 157.471 176.161 157.586C175.662 157.701 175.26 157.958 174.956 158.355C174.703 158.687 174.564 159.064 174.542 159.488C174.523 159.913 174.619 160.306 174.831 160.673C175.101 161.141 175.48 161.562 175.965 161.934C176.444 162.299 176.926 162.573 177.411 162.754C177.895 162.934 178.337 162.975 178.732 162.872C179.13 162.77 179.485 162.513 179.798 162.105C180.055 161.77 180.215 161.408 180.284 161.018C180.348 160.626 180.322 160.139 180.197 159.556L180.656 159.906C180.741 160.443 180.729 160.928 180.622 161.359C180.517 161.791 180.296 162.22 179.966 162.654C179.53 163.222 179.03 163.639 178.464 163.906C177.898 164.171 177.31 164.261 176.699 164.173C176.087 164.085 175.541 163.857 175.057 163.487C174.549 163.096 174.167 162.594 173.915 161.979C173.663 161.363 173.583 160.735 173.677 160.088C173.771 159.447 174.011 158.87 174.401 158.361C174.688 157.988 175.071 157.656 175.553 157.364C175.833 157.197 175.998 157.08 176.046 157.016C176.112 156.93 176.136 156.834 176.122 156.725C176.107 156.616 176.039 156.503 175.918 156.381L176.036 156.227ZM180.901 155.522L182.162 153.498L183.934 154.605C184.223 154.785 184.39 154.911 184.439 154.983C184.51 155.086 184.541 155.185 184.536 155.283C184.533 155.418 184.48 155.569 184.376 155.736L184.262 155.919L184.407 156.011L186.259 153.043L186.112 152.952L185.997 153.138C185.897 153.295 185.792 153.405 185.676 153.464C185.562 153.526 185.459 153.548 185.367 153.535C185.275 153.518 185.081 153.419 184.788 153.238L181.027 150.892C180.739 150.712 180.571 150.584 180.523 150.514C180.452 150.411 180.42 150.313 180.427 150.215C180.428 150.08 180.481 149.928 180.586 149.762L180.701 149.578L180.554 149.486L178.703 152.454L178.849 152.546L178.965 152.36C179.063 152.202 179.169 152.091 179.285 152.031C179.399 151.971 179.501 151.947 179.596 151.962C179.687 151.978 179.881 152.076 180.175 152.259L181.792 153.268L180.531 155.291L178.913 154.283C178.625 154.101 178.456 153.975 178.409 153.905C178.338 153.802 178.307 153.702 178.311 153.605C178.314 153.469 178.368 153.319 178.47 153.155L178.587 152.967L178.441 152.875L176.589 155.845L176.736 155.935L176.853 155.747C176.953 155.586 177.058 155.477 177.173 155.419C177.285 155.36 177.388 155.338 177.481 155.353C177.573 155.368 177.767 155.466 178.06 155.65L181.821 157.994C182.108 158.173 182.276 158.302 182.325 158.375C182.396 158.473 182.43 158.571 182.424 158.667C182.42 158.806 182.367 158.958 182.264 159.122L182.146 159.31L182.294 159.402L184.144 156.432L183.998 156.342L183.882 156.53C183.782 156.687 183.677 156.795 183.562 156.855C183.45 156.915 183.348 156.934 183.253 156.921C183.161 156.909 182.967 156.81 182.674 156.626L180.901 155.522ZM181.796 147.249L186.998 146.136L184.413 144.852C184.047 144.67 183.777 144.6 183.596 144.64C183.352 144.696 183.15 144.895 182.99 145.232L182.836 145.155L183.823 143.166L183.978 143.243C183.885 143.514 183.842 143.707 183.85 143.82C183.859 143.931 183.912 144.042 184.004 144.151C184.099 144.258 184.289 144.382 184.575 144.525L189.587 147.014L189.514 147.164L182.477 148.736L186.315 150.642C186.664 150.815 186.938 150.854 187.14 150.755C187.342 150.657 187.493 150.503 187.594 150.3L187.665 150.157L187.819 150.234L186.755 152.377L186.601 152.3C186.763 151.967 186.809 151.702 186.739 151.503C186.67 151.307 186.476 151.129 186.153 150.969L181.894 148.854L181.677 148.903C181.45 148.95 181.287 149.007 181.186 149.08C181.087 149.151 180.989 149.279 180.892 149.459L180.736 149.381L181.796 147.249ZM185.496 139.166C185.063 140.059 185.013 140.95 185.352 141.839C185.688 142.728 186.312 143.371 187.227 143.771C188.039 144.126 188.845 144.191 189.647 143.974C190.661 143.696 191.41 143.003 191.895 141.895C192.378 140.788 192.359 139.762 191.838 138.814C191.445 138.098 190.859 137.568 190.081 137.229C189.166 136.829 188.273 136.803 187.397 137.149C186.522 137.498 185.889 138.17 185.496 139.166ZM185.808 139.239C185.941 138.931 186.143 138.698 186.412 138.534C186.681 138.372 187.05 138.303 187.521 138.327C187.989 138.352 188.631 138.543 189.444 138.897C190.126 139.194 190.648 139.512 191.007 139.846C191.366 140.181 191.584 140.525 191.661 140.875C191.721 141.151 191.683 141.444 191.544 141.758C191.342 142.222 191.009 142.506 190.547 142.613C189.882 142.762 189.025 142.61 187.977 142.151C187.095 141.764 186.47 141.35 186.105 140.905C185.659 140.358 185.561 139.803 185.808 139.239ZM193.078 130.885L195.237 131.853L193.4 137.515L193.236 137.461L193.304 137.25C193.365 137.066 193.379 136.906 193.35 136.771C193.332 136.675 193.276 136.587 193.184 136.51C193.118 136.451 192.925 136.37 192.601 136.265L188.387 134.895C188.057 134.79 187.846 134.741 187.752 134.748C187.659 134.756 187.565 134.801 187.469 134.887C187.373 134.97 187.297 135.103 187.238 135.282L187.17 135.494L187.005 135.44L188.11 132.034L188.274 132.088L188.184 132.368C188.124 132.553 188.109 132.714 188.138 132.848C188.156 132.947 188.21 133.034 188.302 133.118C188.368 133.175 188.561 133.258 188.883 133.363L192.963 134.686C193.29 134.792 193.505 134.842 193.607 134.833C193.709 134.825 193.8 134.773 193.879 134.679C193.932 134.609 194.008 134.423 194.105 134.124L194.277 133.594C194.387 133.256 194.419 132.955 194.373 132.692C194.328 132.427 194.203 132.171 193.998 131.923C193.794 131.675 193.465 131.397 193.011 131.09L193.078 130.885ZM189.728 125.507C189.918 124.456 190.408 123.669 191.197 123.157C191.989 122.644 192.87 122.494 193.844 122.706C194.675 122.887 195.353 123.289 195.88 123.915C196.575 124.744 196.796 125.746 196.539 126.926C196.282 128.107 195.685 128.934 194.744 129.404C193.999 129.778 193.196 129.87 192.33 129.682C191.355 129.47 190.617 128.962 190.112 128.156C189.607 127.351 189.48 126.468 189.728 125.507ZM190.049 125.518C189.917 126.12 190.124 126.644 190.667 127.092C191.114 127.458 191.809 127.742 192.748 127.947C193.867 128.19 194.737 128.171 195.358 127.894C195.791 127.699 196.061 127.355 196.169 126.859C196.242 126.526 196.223 126.231 196.111 125.973C195.966 125.644 195.685 125.349 195.267 125.092C194.849 124.834 194.274 124.626 193.548 124.469C192.681 124.278 192.015 124.219 191.55 124.287C191.083 124.355 190.735 124.494 190.504 124.708C190.272 124.921 190.121 125.191 190.049 125.518ZM191.326 114.841L193.673 115.11L193.653 115.281C192.99 115.429 192.468 115.704 192.084 116.106C191.702 116.507 191.479 116.971 191.419 117.493C191.363 117.993 191.455 118.422 191.697 118.787C191.94 119.15 192.303 119.433 192.788 119.627C193.274 119.821 193.781 119.95 194.309 120.009C194.947 120.082 195.516 120.074 196.015 119.978C196.513 119.881 196.894 119.678 197.159 119.369C197.424 119.059 197.581 118.674 197.635 118.21C197.653 118.05 197.655 117.883 197.639 117.712C197.625 117.538 197.595 117.36 197.55 117.176L196.169 117.018C195.902 116.988 195.727 116.986 195.645 117.012C195.563 117.04 195.482 117.106 195.407 117.212C195.331 117.317 195.283 117.45 195.265 117.608L195.245 117.781L195.073 117.76L195.445 114.516L195.617 114.536C195.605 114.786 195.619 114.96 195.66 115.065C195.702 115.166 195.778 115.251 195.894 115.317C195.952 115.354 196.105 115.388 196.353 115.418L197.732 115.574C197.873 116.022 197.966 116.482 198.01 116.952C198.054 117.424 198.047 117.909 197.99 118.405C197.918 119.035 197.772 119.55 197.552 119.95C197.333 120.347 197.063 120.691 196.746 120.978C196.43 121.266 196.086 121.48 195.714 121.618C195.237 121.798 194.716 121.854 194.158 121.789C193.152 121.674 192.347 121.225 191.736 120.441C191.125 119.655 190.881 118.725 191.003 117.657C191.041 117.324 191.101 117.031 191.184 116.771C191.227 116.627 191.328 116.403 191.487 116.093C191.646 115.785 191.728 115.6 191.736 115.542C191.747 115.448 191.722 115.36 191.665 115.272C191.606 115.185 191.487 115.1 191.307 115.012L191.326 114.841ZM191.797 106.938L191.969 106.94C191.997 107.16 192.059 107.331 192.157 107.453C192.293 107.617 192.669 107.882 193.285 108.248L195.71 109.739L197.338 109.76C197.687 109.764 197.904 109.75 197.99 109.713C198.076 109.679 198.151 109.606 198.216 109.501C198.285 109.395 198.318 109.254 198.32 109.074L198.325 108.696L198.497 108.7L198.449 112.461L198.277 112.459L198.281 112.108C198.284 111.914 198.25 111.756 198.183 111.64C198.136 111.553 198.058 111.486 197.945 111.433C197.866 111.399 197.658 111.376 197.317 111.371L195.966 111.354L193.058 112.899C192.481 113.207 192.145 113.422 192.041 113.55C191.939 113.677 191.884 113.85 191.878 114.063L191.706 114.061L191.747 110.841L191.919 110.846L191.917 110.989C191.915 111.183 191.942 111.32 191.998 111.399C192.053 111.476 192.113 111.517 192.178 111.517C192.298 111.519 192.603 111.39 193.092 111.132L195.324 109.942L193.322 108.705C192.825 108.399 192.493 108.243 192.33 108.241C192.238 108.241 192.163 108.282 192.101 108.367C192.017 108.478 191.963 108.683 191.942 108.984L191.77 108.982L191.797 106.938Z" fill="#003686"/>
    </g>
    <defs>
    <clipPath id="clip0_43_1182">
    <rect width="214.492" height="214.492" fill="white"/>
    </clipPath>
    </defs>
    </svg>
    