<svg width="890" height="890" viewBox="0 0 890 890" fill="none" xmlns="http://www.w3.org/2000/svg">
    <path d="M445.415 0.5C690.901 0.5 889.907 199.46 889.907 444.89C889.907 690.32 690.901 889.28 445.415 889.28C199.928 889.28 0.9227 690.32 0.9227 444.89H0.8125C0.8125 199.46 199.818 0.5 445.305 0.5L445.415 0.5ZM445.415 16.8249C208.923 16.8959 17.2223 208.544 17.1412 444.982C17.1919 681.428 208.895 873.096 445.397 873.157C681.901 873.116 873.618 681.45 873.67 445C873.629 208.557 681.93 16.8857 445.433 16.8249H445.415Z" fill="#005BAB"/>
    <path d="M445.418 160.262C602.608 160.323 730.003 287.738 730.003 444.892C729.957 565.254 654.219 672.585 540.819 712.995V705.649C650.228 665.524 722.967 561.403 722.987 444.892C722.956 291.64 598.705 167.409 445.418 167.369C292.131 167.409 167.88 291.64 167.849 444.892C167.877 561.406 240.623 665.526 350.036 705.649V712.995C236.639 672.579 160.903 565.252 160.852 444.892C160.852 287.695 288.314 160.262 445.547 160.262H445.418Z" fill="#005BAB"/>
    <path d="M384.346 691.432V735.339H371.636V710.144H361.57V701.275C369.088 701.275 373.485 697.993 374.758 691.432H384.346ZM420.107 712.311C424.112 711.999 426.113 709.906 426.113 706.086C426.043 702.974 423.463 700.507 420.35 700.577C420.348 700.577 420.348 700.577 420.346 700.577C416.838 700.724 414.983 702.726 414.836 706.564C415.001 710.236 416.673 712.164 420.126 712.33L420.107 712.311ZM403.062 724.78L414.818 724.064C415.578 726.284 417.774 727.679 420.107 727.424C424.576 727.424 426.811 724.143 426.811 717.582C423.853 719.803 420.203 720.909 416.507 720.703C407.544 720.213 402.646 715.574 401.814 706.784C402.131 696.868 407.972 691.75 419.336 691.432C432.805 691.432 439.54 698.948 439.54 713.982C439.062 728.232 432.744 735.51 420.585 735.816C410.355 735.816 404.495 732.144 403.062 724.798V724.78ZM447.456 720.207H459.45C459.39 721.967 459.994 723.684 461.14 725.019C462.431 726.065 464.033 726.653 465.695 726.69C469.203 726.561 471.206 724.853 471.463 721.677C471.61 718.132 468.891 716.553 463.308 716.865V709.19C468.414 709.52 470.985 708.069 470.985 704.874C470.985 702.322 469.295 701.036 465.934 701.036C462.573 701.036 460.736 702.56 460.424 705.59H448.98C449.606 696.629 455.446 691.928 466.485 691.432C477.052 691.739 482.562 695.735 483.015 703.424C483.309 707.08 481.293 710.532 477.965 712.073C481.82 713.452 484.346 717.163 484.209 721.254C484.038 730.864 477.64 735.761 465.016 735.945C453.493 735.627 447.653 730.423 447.493 720.336L447.456 720.207ZM512.238 726.947C514.704 726.888 516.652 724.842 516.593 722.378C516.588 722.216 516.577 722.057 516.555 721.897C516.408 718.39 514.479 716.553 510.806 716.388C506.82 716.388 504.799 718.224 504.799 721.897C505.111 725.9 507.61 727.589 512.238 726.947ZM510.549 709.428C514.075 709.281 515.93 707.757 516.059 704.874C515.912 701.844 514.222 700.228 510.788 700.063C507.114 700.228 505.185 701.899 505.02 704.874C505.185 707.757 507.004 709.281 510.531 709.428H510.549ZM499.032 712.789C495.322 711.305 492.997 707.592 493.283 703.607C493.779 695.913 499.675 691.855 511.045 691.359C521.587 691.849 527.183 695.845 527.833 703.35C528.189 707.287 525.806 710.958 522.065 712.238C526.877 714.313 529.265 717.747 529.265 722.319C528.788 730.889 522.665 735.363 510.898 735.743C498.568 735.425 492.241 730.95 491.924 722.319C491.685 717.912 494.073 714.699 499.032 712.789Z" fill="#005BAB"/>
    <path fill-rule="evenodd" clip-rule="evenodd" d="M454.907 404.49C435.052 400.174 429.873 418.299 414.333 415.71C434.189 428.564 441.884 401.9 454.907 404.49ZM436.778 483.029C456.634 488.208 461.813 470.083 477.353 471.809C456.634 459.726 448.864 486.5 436.778 483.029ZM626.698 546.033V469.165H563.679V520.178H594.757V502.917H577.547V488.226H611.159V534.832H548.159V454.493H643.119V545.978V563.241C642.26 587.407 631.038 607.257 609.451 622.793C587.006 638.328 557.655 646.095 522.261 646.095C498.089 646.095 477.371 642.642 460.106 634.012C463.539 630.559 467.874 627.107 471.327 623.655C484.545 609.309 493.771 591.752 498.089 572.733C505.276 578.25 514.063 581.278 523.124 581.364C543.842 581.364 561.108 565.829 561.108 546.841V545.978L626.698 546.033ZM264.988 344.038V418.262H327.143V367.323H296.929V384.566L314.176 385.447V400.138H280.508V353.513H343.546V432.916H248.586V344.02V327.603V325.877C249.449 301.711 260.672 281.805 282.254 267.206C304.698 250.79 334.05 243.022 369.444 243.022C390.77 242.772 411.921 246.884 431.599 255.105C427.435 258.403 423.668 262.175 420.376 266.343C407.071 280.742 397.597 298.251 392.825 317.264C386.041 311.623 377.48 308.56 368.654 308.615C347.935 308.615 330.67 324.169 330.67 342.275V344.02L264.988 344.038ZM405.701 342.294V339.704C407.089 315.731 416.51 292.924 432.444 274.956C436.358 270.776 440.698 267.015 445.393 263.736C466.111 249.945 491.146 243.022 522.224 243.022C557.618 243.022 586.969 250.79 609.414 267.206C631.859 282.723 643.082 302.592 643.082 327.603V344.02V432.916H548.159V353.513H611.159V400.119H577.547V385.429L594.812 384.547V367.304H563.679V418.225H626.698V344.02H561.016V342.275C561.016 324.169 543.751 308.615 523.032 308.615C502.313 308.615 485.912 324.169 485.912 342.275V379.406C479.005 428.601 434.116 444.136 359.874 419.107C400.448 422.559 404.764 408.75 405.627 386.31V342.238L405.701 342.294ZM436.778 482.992C448.864 486.445 456.634 459.69 477.353 471.773C461.813 470.046 456.634 488.171 436.778 482.992ZM485.985 546.861V550.312C484.363 573.971 474.953 596.428 459.223 614.179C455.123 618.162 450.8 621.909 446.274 625.4V626.262H445.411C425.556 639.208 399.658 646.113 369.444 646.113C334.05 646.113 304.698 638.345 282.254 622.81C259.809 607.275 248.586 586.562 248.586 561.533V545.997V454.493H343.546V534.758H280.508V488.153H314.176V502.843H296.929V520.178H327.143V469.165H264.988V545.978H330.597V546.841C330.597 565.829 347.862 581.364 368.581 581.364C388.435 581.364 405.701 565.829 405.701 546.841V508.866C411.743 458.808 457.497 444.136 531.738 469.165C491.165 464.85 486.848 479.522 485.985 501.962V546.841V546.861ZM436.778 482.992C448.864 486.445 456.634 459.69 477.353 471.773C461.813 470.046 456.634 488.171 436.778 482.992ZM397.931 432.934C430.736 450.196 475.625 420.851 502.387 455.374C466.993 437.231 424.692 468.302 397.931 432.916V432.934Z" fill="#005BAB"/>
    <path fill-rule="evenodd" clip-rule="evenodd" d="M790.923 323.436C791.579 324.457 792.657 325.131 793.862 325.273L795.313 330.157C796.452 330.157 800.125 330.819 800.621 331.902L802.09 335.189C802.421 335.942 800.254 337.191 799.409 337.576L798.912 337.797C797.076 338.66 793.256 335.832 791.86 334.528C790.894 333.599 789.861 332.739 788.774 331.957C787.678 331.188 786.53 330.495 785.339 329.882L785.1 329.203C784.953 328.872 784.384 328.743 783.943 327.954L782.952 328.395C784.237 331.259 785.431 331.204 787.011 332.728C788.219 334.133 789.848 335.112 791.658 335.519C794.229 341.23 794.247 340.257 798.251 341.781C799.639 342.075 800.932 342.707 802.017 343.618C803.174 344.536 804.699 344.793 805.507 346.593C805.984 346.593 806.388 346.978 806.792 346.813L807.435 346.501C807.95 346.28 808.648 342.828 809.584 342.02L808.611 339.89C808.249 339.251 807.844 338.638 807.398 338.054L806.737 336.585L805.268 333.298L807.895 332.122L808.042 332.453H808.244L808.024 331.884L808.63 332.086L808.483 331.755L808.813 331.608C814.488 331.994 834.271 337.98 839.083 335.024L840.644 334.106C840.827 333.132 841.69 331.608 841.121 330.433L840.919 329.955C840.368 328.743 831.919 323.492 831.276 322.059L830.322 319.929C829.642 318.405 829.973 317.358 829.66 316.679L829.513 316.348C829.369 315.99 828.963 315.816 828.605 315.959C828.589 315.966 828.572 315.974 828.558 315.981L827.897 316.275C827.07 316.642 824.37 319.378 824.682 320.076L824.976 320.737C826.042 321.955 827.202 323.084 828.447 324.116L829.789 326.65C828.815 327.201 828.062 328.009 827.052 328.486L826.244 328.854C825.877 329.019 819.19 329.019 818.291 328.982C817.007 328.991 815.722 328.905 814.452 328.725C813.256 328.387 812.019 328.215 810.778 328.211C807.453 328.339 798.655 326.503 796.286 324.942L794.559 322.169C794.559 322.169 791.823 318.864 791.584 318.607C790.593 317.597 789.508 316.771 788.498 315.595C786.554 313.526 784.384 311.679 782.034 310.086C779.719 308.562 777.717 306.414 775.494 304.743C773.221 302.736 771.22 300.438 769.544 297.912L768.956 296.608C768.312 295.175 768.037 292.256 767.119 290.823C766.201 289.391 764.787 287.647 762.821 288.546L761.499 289.116C760.599 289.52 760.617 292.384 760.635 293.284C760.635 293.706 761.021 297.728 761.039 297.801L761.499 298.775C761.737 299.344 763.61 300.886 763.794 301.29L764.014 301.786C764.989 301.786 770.554 307.883 773.051 307.001L773.566 308.158C773.989 309.113 775.403 310.619 775.99 311.831C776.422 313.157 776.578 314.556 776.449 315.944C774.613 316.752 772.776 318.699 770.737 319.911C768.75 321.268 766.676 322.494 764.529 323.583L762.692 324.373C761.517 324.395 760.366 324.042 759.404 323.363C758.497 322.474 757.689 321.49 756.999 320.425C755.749 318.157 754.048 316.17 752.003 314.585C750.165 313.245 748.329 311.684 746.363 310.454C745.335 309.793 744.527 309.168 743.425 308.617C742.984 308.324 740.945 306.597 740.596 306.781L739.935 307.075C739.562 307.273 739.208 307.501 738.87 307.754L741.845 314.494L741.937 314.641C742.396 315.65 742.084 316.293 742.617 317.487L743.499 319.47C743.994 320.535 745.721 320.388 746.786 320.498C747.898 320.621 748.985 320.899 750.019 321.325C752.405 322.05 754.394 323.714 755.528 325.934L756.044 327.091C756.189 327.487 756.312 327.891 756.411 328.303L753.876 329.203C748.256 331.7 739.862 330.341 735.674 328.725C732.794 327.473 730.419 325.286 728.933 322.518C727.463 320.572 724.745 314.457 722.504 315.467H722.339C720.869 316.157 720.237 317.907 720.929 319.375C720.962 319.444 720.997 319.514 721.035 319.58L721.696 321.068C723.863 323.863 726.215 326.514 728.731 329.001C729.208 329.405 735.747 336.603 735.747 336.64L737.069 339.578C737.988 341.616 737.786 342.883 740.284 341.892C741.834 341.462 743.41 341.137 745.004 340.918C746.73 340.441 748.256 339.816 749.945 339.394C751.599 339.187 753.22 338.781 754.776 338.182L755.382 338.329C756.87 337.631 758.376 337.154 760.066 336.401C762.306 335.391 762.362 335.024 764.253 335.428C765.525 335.56 766.66 336.28 767.321 337.374C767.615 337.741 769.819 340.588 769.856 340.68L771.564 343.471C771.99 344.44 772.754 345.223 773.713 345.674C774.595 346.133 775.66 346.446 776.266 346.042C776.872 345.638 778.103 344.921 778.378 344.205C778.83 342.969 778.784 341.607 778.25 340.404L777.736 339.266C776.614 336.75 769.158 333.757 768.901 333.169L768.606 332.508C769.397 331.865 769.176 330.672 770.811 329.955L771.784 329.515C772.5 329.184 773.125 329.056 773.621 329.515L774.613 329.056C775.173 329.109 775.735 328.995 776.229 328.725L779.902 327.036C780.288 326.87 780.343 326.705 780.178 326.32L779.884 325.567L780.674 324.722L780.251 324.3L781.629 323.106L781.868 323.216L779.792 318.423C780.013 317.964 780.215 316.844 780.747 316.587C782.933 315.614 785.064 317.064 786.534 318.24C787.406 318.927 788.146 319.768 788.719 320.719C789.766 323.051 789.894 322.078 790.85 323.308L790.923 323.436ZM810.576 321.141C811.933 321.576 813.387 321.615 814.764 321.251C816.196 321.508 818.952 320.168 820.788 319.415C821.156 319.415 821.597 319.415 821.817 319.948L821.964 320.26C821.909 321.791 821.303 323.253 820.255 324.373L818.952 324.961C817.483 325.622 806.443 322.684 805.158 321.876C803.817 322.096 802.917 321.104 800.731 322.096C800.382 321.876 800.272 321.949 800.089 321.582L799.666 320.59C799.226 319.635 801.503 316.734 802.255 316.275L801.962 315.632L800.897 313.796C799.428 312.841 794.008 311.537 793.274 309.903L792.907 309.095L793.402 308.874C795.24 308.066 799.685 310.601 802.476 309.334C803.83 308.5 805.136 307.593 806.388 306.616C806.957 306.01 808.097 303.292 808.372 303.164H808.538C809.346 302.796 813.203 305.643 815.076 304.559L817.281 303.347C818.228 301.577 819.471 299.981 820.953 298.628L822.442 297.948C823.139 297.655 824.535 298.701 824.866 299.436L825.159 300.078C826.17 302.337 823.801 306.763 824.186 307.607C824.829 309.058 827.125 307.864 828.594 307.497C830.059 307.146 831.554 306.932 833.058 306.855C837.962 306.689 837.117 306.359 842.241 304.045L843.399 303.531C844.227 303.101 845.246 303.422 845.678 304.251C845.684 304.262 845.689 304.273 845.695 304.284L847.091 307.405C844.574 309.242 844.115 313.649 839.083 315.908L837.613 316.569C837.245 316.734 832.103 313.08 831.203 312.676C829.771 312.015 825.693 310.454 824.003 311.225L822.534 311.886C820.973 312.584 820.696 315.669 820.017 315.963H819.851C817.391 317.064 812.597 316.55 809.897 317.064C808.407 317.105 806.934 317.371 805.525 317.854C804.901 318.13 803.799 319.231 804.074 319.874L804.368 320.535L805.635 320.737L810.613 321.27L810.576 321.141ZM801.246 279.622C801.859 279.328 802.593 279.585 802.887 280.197C802.924 280.272 802.951 280.349 802.972 280.43C803.799 282.266 801.539 287.353 800.86 289.005C800.07 290.97 797.664 295.029 795.075 296.167L794.412 296.479C792.503 297.17 790.425 297.26 788.462 296.736C787.544 296.571 783.778 295.616 783.466 294.9C782.676 293.156 786.11 292.311 787.415 291.356C788.719 290.401 790.482 288.987 791.676 288.106C793.513 286.802 798.086 281.054 798.637 280.76L801.246 279.585V279.622ZM819.998 283.295C820.733 283.405 821.964 283.699 822.368 284.598L822.882 285.755C823.543 287.224 820.641 291.797 819.631 292.678C817.563 294.878 815.135 296.711 812.45 298.095L811.788 298.389C809.64 299.344 807.527 299.105 806.278 299.674L805.47 300.042L798.435 304.522H798.196C796.007 305.294 793.667 305.545 791.364 305.257C789.297 305.011 787.219 304.869 785.137 304.835L784.77 304.008C784.072 302.447 790.703 300.574 792.025 299.987C793.347 299.399 795.093 298.738 796.305 298.15C797.517 297.563 798.6 296.534 799.685 296.039C804.772 293.762 806.59 293.523 810.98 290.291C812.667 289.261 814.268 288.1 815.774 286.82C817.74 284.415 816.62 284.984 820.017 283.405L819.998 283.295ZM805.948 310.839C806.48 308.963 807.829 307.424 809.621 306.653L810.448 306.285C811.972 305.606 816.435 306.763 817.115 308.03C815.921 308.948 815.719 310.252 813.791 311.096L812.781 311.537C810.815 312.4 807.141 312.29 805.948 310.839Z" fill="#005BAB"/>
    <path fill-rule="evenodd" clip-rule="evenodd" d="M533.47 110.421C534.458 109.312 535.218 108.021 535.711 106.62L535.968 105.72C536.244 104.692 536.171 102.874 534.939 102.525L533.856 102.213C533.545 102.16 533.23 102.16 532.919 102.213C531.955 102.533 530.933 102.64 529.925 102.525L529.025 102.268C528.047 102.006 527.465 100.998 527.727 100.019C527.731 100.004 527.736 99.9883 527.74 99.9728C528.438 97.5305 531.781 97.9896 532.075 96.9429C532.104 95.9344 532.196 94.9286 532.35 93.9313L533.011 91.5992L535.307 84.8415C536.826 83.4704 538.249 81.9978 539.568 80.4344L539.825 79.5529C539.891 79.0672 539.63 78.5957 539.182 78.3961L537.75 77.9921C536.813 77.735 534.278 79.7182 533.599 80.3058C531.762 81.9402 531.578 81.5362 529.209 82.1422C526.141 82.9501 522.853 83.7765 519.805 84.7314C516.388 85.7964 514.092 87.0635 510.952 88.404C508.711 89.3222 504.89 92.5174 502.117 91.7461C501.315 91.6321 500.754 90.8884 500.868 90.085C500.877 90.026 500.89 89.9675 500.904 89.9098C501.915 86.2371 507.15 86.935 509.464 84.9701L510.695 82.234C511.191 82.032 511.962 81.3525 512.66 80.9853C513.405 80.6795 514.173 80.4279 514.956 80.2324C516.444 79.7366 518.206 79.3142 519.603 78.8C520.999 78.2859 522.688 77.9553 524.25 77.4412C525.734 76.9755 527.181 76.4048 528.585 75.7334C531.541 74.4112 534.223 73.0156 537.181 71.6751C540.854 70.0224 542.103 69.5266 543.645 64.0911L545.483 57.6273C546.493 54.1199 545.483 51.2369 541.974 50.282C539.09 49.474 536.244 49.9882 535.472 52.7059L535.105 53.9546L534.242 59.4636L533.323 62.3099C532.782 63.531 532.117 64.694 531.339 65.7805C530.568 67.1761 529.797 66.8823 528.199 67.1945C525.976 67.6662 523.848 68.5042 521.898 69.6735C517.788 71.5859 513.885 73.918 510.254 76.6332C508.252 78.3593 506.58 79.0939 504.615 80.5813C502.861 82.0033 501.02 83.3157 499.105 84.511C496.956 85.7046 489.095 90.5709 488.36 93.1234L487.918 94.7393C487.65 96.0712 487.483 97.4218 487.423 98.7792C487.7 99.8406 488.415 100.734 489.389 101.24L490.105 101.442C493.15 101.874 496.243 101.874 499.288 101.442C501.963 100.867 504.571 100.024 507.076 98.9261C510.144 97.806 511.319 96.19 513.927 94.7393C515.489 93.8579 519.346 90.8096 521.274 91.3238L522.706 91.7461C523.332 91.9298 523.222 93.3253 523.038 93.9681C522.266 96.6858 517.527 98.2467 516.407 102.341C515.434 102.341 507.462 110.678 505.993 112.037C504.523 113.396 502.558 115.545 500.904 117.234C499.152 118.732 497.312 120.124 495.394 121.402C491.721 124.23 488.232 127.297 484.466 130.18C482.622 131.528 480.559 132.547 478.368 133.192C476.531 133.669 473.096 134.422 472.454 136.662L472.27 137.378C472.086 138.003 472.858 138.333 473.482 138.499C476.99 139.49 486.486 136.662 488.452 134.477C490.931 131.704 491.996 132.255 495.119 131.061C497.419 130.102 499.52 128.719 501.309 126.985C503.274 125.295 505.239 123.918 507.223 122.21C509.206 120.503 510.75 118.868 512.733 117.014C514.717 115.159 516.407 112.735 518.151 111.321C519.217 110.421 522.394 105.812 523.662 106.106C524.861 106.451 525.554 107.702 525.208 108.901C525.177 109.006 525.141 109.109 525.095 109.209L524.801 110.293C523.828 113.727 519.787 117.638 517.876 120.062C516.701 121.494 515.323 122.725 514 124.175C513.192 125.057 510.879 127.848 509.666 127.481C508.454 127.113 508.454 126.36 507.535 126.103H507.352C505.055 125.461 504.578 130.437 503.898 132.879C503.219 135.322 501.805 139.637 504.119 140.225H504.302C507.737 141.198 517.656 130.327 520.136 127.554C522.615 124.781 524.709 122.247 527.115 119.493C529.521 116.738 529.668 112.845 533.47 110.311V110.421ZM548.054 131.392L548.604 129.409C548.972 128.123 551.048 126.232 552.131 126.544C553.969 127.077 553.73 129.996 553.969 131.521C554.391 133.687 555.805 134.202 556.797 136.148C557.593 137.824 558.121 139.615 558.358 141.455C558.579 143.512 558.579 145.587 558.358 147.643C557.66 150.178 554.813 147.845 552.847 147.882C551.878 147.893 550.908 147.96 549.946 148.084C549.487 148.084 547.227 148.727 547.135 148.69C546.07 148.415 544.71 146.982 545.06 145.789L545.244 145.073C546.327 145.073 550.332 142.869 550.754 141.216C551.837 137.544 547.191 134.679 548.127 131.392H548.054ZM556.154 84.3457C553.924 84.993 551.751 85.8157 549.652 86.8064C548.017 87.7429 545.373 89.2304 542.929 88.6427L542.213 88.4407C540.302 87.8335 539.232 85.8067 539.807 83.8867L540.027 83.1705C540.505 81.4627 549.946 73.7318 551.654 72.428C552.78 71.6579 554.095 71.2072 555.456 71.1242C557.843 70.8671 557.292 70.8488 558.854 69.3981C559.809 68.4983 560.801 67.9841 561.884 66.9558C563.464 65.4684 563.226 65.5234 563.868 63.2831L564.933 59.6105C565.594 57.2784 567.928 55.038 569.929 55.6073L570.664 55.8093C573.107 56.5071 575.072 57.9945 574.337 60.3634L573.97 61.6121C573.18 63.4199 571.912 64.9764 570.296 66.1111C569.819 66.5885 566.514 70.0592 566.366 70.151C564.805 71.1059 558.762 75.6599 558.23 77.4963V77.6799C558.046 78.341 558.322 79.2591 558.909 79.4244C559.497 79.5897 561.921 78.0655 562.785 77.735C564.081 77.2059 565.429 76.8122 566.807 76.5597C570.609 75.8619 572.648 78.3042 575.587 75.2376L578.323 75.7885L578.672 75.9354C580.153 76.3625 581.014 77.9028 580.601 79.3877L579.738 82.4176C578.856 85.5761 573.107 85.9066 571.987 86.9166C570.867 87.9266 570.737 89.2854 568.883 90.5892C567.575 91.525 565.954 91.9138 564.364 91.6727H564.181C563.666 91.5258 563.611 91.0667 563.483 90.6994L563.648 90.1669C564.957 88.5689 565.936 86.7278 566.531 84.7497C566.697 84.1254 566.844 83.299 566.219 83.1154H566.035C562.702 82.481 559.255 82.9248 556.191 84.3825L556.154 84.3457ZM541.46 114.057L544.655 110.384C545.07 109.856 545.74 109.596 546.401 109.705C547.227 109.944 547.76 111.725 547.521 112.551L547.209 113.616C546.632 114.545 545.955 115.408 545.189 116.187C544.387 117.01 543.17 117.27 542.103 116.848L540.652 116.426C539.605 116.132 541.13 114.461 541.497 114.149L541.46 114.057ZM551.452 110.899C552.098 109.778 553.099 108.906 554.299 108.42L556.374 109.246C556.657 110.684 556.504 112.174 555.933 113.525V113.708C555.731 114.388 554.226 114.388 553.473 114.167H553.306C552.377 113.387 551.733 112.322 551.47 111.137V110.954L551.452 110.899ZM547.631 101.882C548.458 98.9812 552.076 93.4539 554.464 94.1517C556.007 94.574 556.852 97.9712 556.301 99.6607L556.135 100.193C555.401 102.837 549.56 104.71 547.668 104.178L547.117 104.031C547.064 103.715 547.064 103.392 547.117 103.076L547.484 101.827L547.631 101.882ZM537.732 106.051C537.678 105.735 537.678 105.412 537.732 105.096C540.343 102.328 543.115 99.7161 546.034 97.2734C548.035 95.5657 552.297 89.4874 554.74 90.1669L555.272 90.3321C557.109 90.8647 558.083 97.5122 559.515 97.9162L560.599 98.2283C561.701 98.5405 562.877 98.5956 563.409 97.8611C564.575 98.0192 565.392 99.0923 565.235 100.258C565.214 100.398 565.181 100.536 565.135 100.67C564.493 102.929 559.625 104.857 559.148 106.712L558.854 107.795C558.731 108.171 558.937 108.576 559.313 108.698C559.332 108.704 559.35 108.709 559.368 108.713H559.552C561.903 109.393 562.363 107.777 563.942 108.236L564.291 108.328C565.227 108.585 568.368 111.101 568.075 112.111V112.276C567.854 113.066 555.658 117.362 553.987 118.115C551.56 119.141 549.522 120.909 548.164 123.165C547.264 124.414 546.695 125.589 545.832 126.838C544.969 128.087 544.178 128.931 543.278 130.125C541.725 132.223 539.867 134.08 537.768 135.634C536.674 136.437 535.753 137.455 535.068 138.627C533.746 140.463 534.462 140.776 532.497 141.859C530.261 143.124 527.898 144.145 525.443 144.907C522.675 145.507 519.834 145.686 517.013 145.44L515.397 144.999C515.103 144.999 514.883 144.742 514.956 144.485C515.654 142.061 519.511 141.712 521.311 140.812C524.672 138.976 524.397 138.48 526.931 135.781C528.768 133.944 536.832 126.158 537.419 124.047C537.603 123.422 536.318 123.551 535.692 123.367L535.325 123.257C534.355 122.999 533.456 122.521 532.699 121.861C532.376 121.036 532.209 120.158 532.203 119.272C533.048 116.242 534.462 115.6 535.527 113.653C537.401 112.242 538.916 110.412 539.953 108.309V108.144C540.064 107.74 539.953 107.703 539.733 107.428L537.732 106.051Z" fill="#005BAB"/>
    <path fill-rule="evenodd" clip-rule="evenodd" d="M209.649 124.965L208.584 125.589C208.122 126.016 208.094 126.737 208.521 127.198C208.541 127.22 208.562 127.24 208.584 127.26L209.135 127.848L211.357 125.865C213.471 124.681 216.108 125.017 217.859 126.691L218.685 127.554C220.074 128.929 220.909 130.765 221.036 132.714L219.585 134.091L221.146 136.295C221.232 138.803 220.244 141.228 218.428 142.961L216.481 144.797C216.018 144.584 215.596 144.292 215.232 143.934L214.828 143.493C211.026 139.472 210.347 134.881 208.602 132.971C206.251 130.382 200.924 123.79 198.242 126.379L197.342 127.205C194.385 130.015 198.077 134.238 199.841 137.397C201.255 139.968 204.029 145.991 205.828 147.901C207.15 149.296 209.998 148.415 212.68 151.243L213.286 151.885C214.736 153.428 217.327 161.82 219.475 164.079L225.628 170.579C229.173 174.252 234.647 178.971 238.21 180.422C241.387 181.707 247.982 183.488 251.067 180.587C254.447 177.392 261.408 159.855 259.112 157.413L257.276 155.466C256.118 154.254 252.592 153.318 251.177 154.658L249.23 156.494C245.667 159.855 245.777 163.454 243.058 166.007L241.975 167.035C241.553 167.502 240.833 167.538 240.366 167.116C240.339 167.091 240.311 167.063 240.286 167.035L238.246 164.868C235.62 162.095 234.574 156.293 233.25 153.134C232.375 151.278 231.912 149.255 231.892 147.203C232.128 144.917 231.196 142.666 229.412 141.216C231.372 138.652 231.961 135.296 230.992 132.218C230.643 130.584 228.42 124.12 227.19 122.816C225.959 121.513 220.081 121.99 218.575 122.063C217.069 122.214 215.579 122.509 214.13 122.945C212.495 123.496 210.806 124.781 209.63 125.057L209.649 124.965ZM190.362 196.086C189.609 195.259 187.002 195.902 185.165 194.047L188.838 190.558C191.796 187.767 199.289 183.378 201.824 186.078L203.458 187.804C203.936 188.318 203.936 188.612 203.458 189.071L203.238 189.291C199.307 192.964 200.649 191.899 199.564 196.636C199.239 199.415 198.073 202.03 196.222 204.129L193.412 206.791L192.806 206.149C190.638 203.853 194.22 200.272 191.153 196.967L190.326 196.104L190.362 196.086ZM213.873 222.694L213.231 223.741L212.44 223.19L210.787 224.659L209.998 225.522L209.373 224.879L206.967 222.694L207.132 222.125L199.786 219.939L199.914 219.627L206.434 214.394L206.783 213.898C210.622 210.225 211.816 193.276 211.081 188.942L189.114 160.791C185.418 156.611 179.085 156.084 174.751 159.598L173.667 160.626L170.93 159.947C170.049 158.386 168.799 155.797 170.251 154.438C171.334 153.409 183.934 152.179 186.358 151.518C187.096 150.025 187.911 148.572 188.801 147.166L190.105 145.936C190.821 146.413 190.656 146.101 191.135 146.597C191.612 147.093 195.561 157.945 197.489 161.104C200.592 166.254 204.19 171.088 208.234 175.537L212.937 180.459C215.102 182.743 217.525 184.77 220.155 186.5C222.837 187.694 225.077 187.216 227.502 189.714L228.714 191.017C229.18 191.44 229.217 192.16 228.795 192.626C228.769 192.654 228.743 192.681 228.714 192.707L227.63 193.717C226.584 194.708 225.794 194.139 224.857 195.131L224.636 195.333C220.926 198.822 220.448 216.45 213.873 222.694Z" fill="#005BAB"/>
    <path fill-rule="evenodd" clip-rule="evenodd" d="M154.878 271.173L154.419 272.366C153.279 272.366 153.151 272.073 152.71 273.248C151.112 273.56 150.543 272.972 148.871 273.872C148.081 274.331 146.594 275.084 145.786 275.451C144.206 276.131 140.735 276.314 138.549 277.049C136.364 277.784 134.545 279.583 132.323 280.446C129.365 281.585 128.41 281.53 126.169 283.954L120.512 283.293H120.255C114.543 281.768 113.11 265.425 110.594 264.746H110.337C108.683 264.287 104.954 266.913 103.742 267.867C101.796 269.373 102.843 268.822 100.4 269.336C99.1147 269.658 97.7935 269.812 96.469 269.796C95.1833 269.447 91.4914 263.405 90.9588 262.101C89.9669 259.99 88.2037 255.252 88.9935 252.35L89.5812 250.11C89.8356 249.478 90.4862 249.1 91.1609 249.192C91.4914 249.192 97.2221 253.911 98.1405 254.609C99.8487 255.913 104.073 258.006 106.204 259.2C112.601 262.283 119.314 264.667 126.224 266.307L128.704 266.986C133.773 268.326 137.594 266.839 141.286 267.684C143.434 268.18 154.143 270.677 154.951 271.356L154.878 271.173ZM126.114 334.71C127.234 335.683 135.444 339.814 137.3 340.843C139.467 342.055 145.878 346.352 145.272 348.61L144.941 349.859C144.665 350.869 143.104 350.979 142.057 350.685H141.8C139.21 350.006 136.694 347.399 135.077 345.966C134.143 345.07 133.136 344.253 132.066 343.524C130.081 342.294 129.916 343.524 130.504 340.218C128.667 339.209 124.737 336.013 123.727 335.738L120.732 334.948C118.27 334.361 115.701 334.397 113.257 335.058L109.858 333.883C108.151 332.69 106.531 331.377 105.01 329.953C103.394 328.76 100.877 327.419 101.337 325.197C99.2425 324.683 98.471 325.767 97.7915 325.565L97.0384 325.381C93.6771 324.481 89.4527 309.24 86.6608 308.505C83.869 307.771 71.673 311.774 71.1771 313.647V313.904C70.6076 315.832 79.2587 318.183 81.6281 319.101C85.2729 320.551 88.747 322.399 91.9874 324.61C97.9384 329.096 104.226 333.117 110.796 336.638C114.587 338.461 118.517 339.978 122.55 341.173C126.277 342.402 129.763 344.266 132.855 346.682C135.738 348.519 138.751 350.832 141.708 352.926C142.718 353.624 150.194 359.426 150.359 359.463L151.608 359.794C152.434 360.014 156.714 358.545 157.118 357.021V356.764C157.54 355.24 149.368 347.123 147.824 345.746C143.754 342.31 139.341 339.3 134.655 336.766C130.595 334.342 107.343 322.076 108.132 319.138L108.389 318.146C109.421 316.199 111.373 314.912 113.569 314.73L114.065 314.859C115.663 315.3 123.359 323.692 125.086 325.271C126.812 326.85 135.775 334.269 137.943 334.856L138.934 335.114C141.102 335.701 145.4 334.875 145.951 332.745L146.227 331.735C147.035 328.741 140.882 326.832 137.649 325.987C134.416 325.142 128.355 322.92 129.163 319.982L129.622 318.256C130.087 317.02 131.413 316.337 132.69 316.677L134.526 317.154C136.364 317.65 136.253 320.001 137.41 320.313L137.906 320.441C139.742 320.919 145.125 316.493 145.988 314.106C140.238 311.039 136.804 311.131 131.864 306.944C129.822 305.433 127.667 304.081 125.416 302.904C124.239 302.245 123.009 301.68 121.742 301.215C120.439 300.682 120.218 298.956 119.208 298.681L117.481 298.222C116.508 297.965 115.351 299.195 115.076 300.242C113.826 304.888 129.108 316.365 127.749 321.451L127.419 322.7L126.665 322.498C124.573 321.809 122.819 320.353 121.761 318.421C120.053 316.236 118.896 315.906 117.279 314.069C114.47 310.929 112.669 307.459 110.061 304.171C108.518 302.207 95.3669 285.147 95.6425 284.394C95.918 283.641 98.2139 282.944 99.1507 283.201L100.638 283.605C103.877 285.121 106.839 287.169 109.399 289.665C122.624 293.209 132.176 299.783 141.671 305.659C146.594 308.689 155.594 309.332 159.929 312.343C162.276 313.695 164.452 315.322 166.412 317.191C167.845 318.825 169.314 322.223 171.813 322.902L172.272 321.157C172.694 319.615 170.875 317.485 170.177 316.291C169.479 315.098 169.81 312.398 169.424 310.635C168.102 304.759 164.08 305.604 162.077 302.684C160.975 301.05 161.93 300.058 159.488 298.093C157.945 296.863 155.649 296.624 153.721 295.339C152.949 294.825 152.306 293.943 151.626 293.613C150.58 293.08 149.515 292.841 148.412 292.309C146.575 291.501 142.902 290.877 143.361 288.948L146.006 279.014C147.016 275.341 158.863 278.463 163.4 279.693C168.69 281.107 175.284 278.041 176.661 272.862C177.12 271.191 172.694 267.555 170.783 267.041L169.314 266.527L157.044 264.691L147.751 262.322C141.653 260.687 136.731 258.814 130.504 257.162C124.72 255.839 119.052 254.058 113.55 251.836C111.251 250.856 109.099 249.557 107.159 247.98C105.104 246.533 102.936 245.255 100.675 244.16C98.4679 243.218 96.53 241.742 95.0364 239.864C94.3751 239.019 91.473 234.74 90.7935 234.557L90.2976 234.41C87.8679 234.689 85.4618 235.142 83.0975 235.769C80.4686 236.06 78.3613 238.077 77.9546 240.69C80.8653 241.972 83.1548 244.346 84.3281 247.301C85.1999 250.369 85.6992 253.533 85.8159 256.721C86.2238 259.76 87.0909 262.72 88.3873 265.499C90.8302 269.52 95.8997 268.088 94.8159 272.073C93.8976 271.907 93.2547 272.073 92.9792 272.917C92.4466 274.937 95.6058 277.012 94.9812 279.308L94.522 281.052C94.2833 281.915 93.1628 281.75 92.2812 281.493L90.2976 280.979C87.0465 280.097 85.9078 276.884 82.5832 275.984L81.5914 275.709C79.3873 275.121 79.6077 282.099 71.6546 279.969L69.9464 279.528L67.375 283.072C68.6424 283.752 70.0566 284.908 71.6913 285.827C73.3261 286.745 75.2546 287.516 76.8526 288.306C78.4505 289.095 80.0852 289.683 82.0873 290.528C83.5383 291.152 85.5037 292.566 86.7894 293.282C92.9792 296.734 95.7159 302.464 99.6466 307.293C101.521 309.761 103.127 312.42 104.44 315.226C105.376 318.192 106.666 321.033 108.279 323.692C110.631 326.85 112.908 327.364 116.728 329.513C118.381 330.449 119.998 331.092 121.559 331.973C123.121 332.855 124.535 333.957 126.114 334.801V334.71ZM144.72 302.996C141.8 302.207 137.025 298.938 137.741 296.33L138.2 294.494C139.871 294.806 140.403 293.227 142.149 293.704L143.618 294.09C146.263 294.806 152.802 299.232 152.434 300.976C151.81 303.29 148.32 303.859 145.712 303.162L144.72 302.996Z" fill="#005BAB"/>
    <path fill-rule="evenodd" clip-rule="evenodd" d="M720.559 153.355L717.767 155.632C714.847 158.001 714.241 161.968 711.816 163.933L703 171.113C699.234 173.936 695.059 176.165 690.62 177.723C686.834 179.196 682.604 178.996 678.975 177.172C675.137 175.226 659.304 165.806 656.291 168.248L655.373 169.001C654.014 170.103 655.061 173.849 656.401 175.483L659.23 178.954C660.369 180.349 667.202 179.284 669.92 182.626L670.673 183.563C660.736 191.643 638.163 177.613 635.315 179.89C633.846 181.065 634.764 183.563 636.051 185.05L642.112 192.396C645.638 196.729 657.191 195.462 661.857 194.709C665.952 194.067 679.324 190.633 682.061 191.826C685.33 198.529 665.052 215.937 674.364 227.396L678.571 232.611C682.391 237.294 687.902 238.855 691.52 243.298L693.137 241.976C694.973 240.434 689.316 231.234 688.122 228.7C686.142 224.636 685.148 220.163 685.22 215.643C685.073 212.852 689.463 192.432 691.409 190.559C694.092 192.616 716.61 198.584 718.612 196.95L720.926 195.113C721.771 194.416 721.532 194.158 722.175 193.277L721.055 191.9C717.84 187.97 715.104 187.915 712.991 185.326L709.998 187.805C709.299 188.374 701.806 184.665 700.813 183.673L702.449 182.296L717.142 172.38L723.645 167.073C726.895 164.428 729.761 158.956 727.319 156.055L725.481 153.741C724.038 152.713 722.144 152.564 720.559 153.355Z" fill="#005BAB"/>
    <path fill-rule="evenodd" clip-rule="evenodd" d="M356.425 109.432L360.282 105.282C360.907 106.512 365.939 112.223 367.134 113.655C369.723 116.759 371.799 118.852 374.48 121.57C376.722 123.81 389.175 133.616 392.076 132.9L393.601 132.533C394.259 132.404 394.687 131.767 394.558 131.11C394.553 131.082 394.545 131.054 394.538 131.027L394.318 130.109C393.656 127.336 390.864 125.15 389.818 120.927L387.393 110.68L384.417 93.951L383.462 89.9662C383.223 88.9011 381.13 85.0265 380.082 85.2836L379.476 85.4305C378.405 85.5296 377.618 86.4779 377.717 87.5483C377.733 87.7286 377.776 87.9058 377.842 88.0748L378.209 89.6173C378.613 91.2516 379.476 90.8476 379.715 91.8392L381.313 98.5785C382.415 103.096 383.15 114.922 379.935 115.712C377.034 116.391 374.425 109.799 372.974 107.485C372.001 105.924 366.857 98.8907 366.6 97.8807V97.5869C365.682 93.7857 375.325 86.2568 373.434 77.5159L368.217 78.7463C365.884 79.3155 361.09 80.0133 360.613 77.9934L360.319 76.763C359.915 75.0369 362.983 72.9986 362.449 70.7583L362.302 70.1523C362.088 69.3511 361.575 68.6617 360.87 68.2241L357.196 69.1056L355.36 66.9571C354.185 62.0357 362.854 56.3615 361.77 51.8441L361.623 51.2198C360.813 48.4394 358.021 46.7302 355.176 47.2717L354.277 47.4921C347.591 49.0897 345.901 55.7739 342.797 59.4832C340.133 62.6417 328.985 67.4345 329.701 70.5012C330.086 72.1171 333.962 74.0085 335.615 73.6229L336.551 73.3842C339.692 72.6313 340.482 65.6533 343.898 64.8453L345.11 64.5515C345.809 64.3862 346.085 64.5515 346.25 65.2493L347.627 71.0704C348.16 73.2189 341.071 78.7646 341.511 80.6193L341.879 82.1435C342.356 84.1083 346.158 88.24 347.48 87.9095L349.905 87.3402C350.768 89.9478 354.552 94.5019 355.415 97.9909C356.278 101.48 346.085 110.35 347.297 115.455C347.425 115.951 348.123 116.869 348.582 116.759C349.96 116.428 352.384 113.618 353.431 112.7L354.662 112.406L354.809 113.012L354.185 113.159L354.387 114.408L354.919 116.244C354.919 118.191 352.439 127.519 350.603 127.96L348.16 128.529C345.552 129.154 341.915 125.499 341.566 122.671L337.893 91.2149L337.25 88.4604C336.423 84.9898 333.852 78.9299 330.619 79.7011L329.407 79.995C325.164 81.0049 331.537 104.051 332.272 109.67C333.411 118.448 329.903 128.034 332.272 137.839L333.944 144.873C334.458 147.076 336.588 149.096 338.719 148.545L340.555 148.105C347.903 146.378 362.174 120.854 360.374 113.306L360.227 112.7C360.095 112.172 359.864 111.674 359.548 111.231L357.105 111.8L358.28 111.194L356.425 109.432Z" fill="#005BAB"/>
    <path d="M106.591 609.734L147.55 591.5L143.601 582.649L127.585 589.792L118.934 570.382L134.968 563.257L131.037 554.406L90.0781 572.641L94.0088 581.492L111.201 573.834L119.834 593.244L102.642 600.883L106.591 609.734Z" fill="#005BAB"/>
    <path d="M148.579 646.243C146.49 647.551 144.161 648.425 141.728 648.814C139.336 649.194 136.89 649.077 134.547 648.465C132.073 647.784 129.757 646.624 127.732 645.05C125.468 643.313 123.539 641.177 122.038 638.751C120.488 636.335 119.404 633.652 118.842 630.837C118.355 628.337 118.355 625.77 118.842 623.271C119.319 620.893 120.288 618.642 121.689 616.66C123.09 614.644 124.89 612.938 126.979 611.647L150.415 596.957L155.65 605.33L131.938 620.149C130.836 620.843 129.88 621.749 129.127 622.812C128.367 623.881 127.812 625.084 127.493 626.356C127.198 627.669 127.142 629.026 127.328 630.359C127.561 631.806 128.092 633.187 128.889 634.418C129.635 635.707 130.643 636.827 131.846 637.705C134.044 639.251 136.764 639.864 139.414 639.412C140.717 639.221 141.967 638.764 143.086 638.072L166.799 623.234L172.034 631.626L148.616 646.317L148.579 646.243Z" fill="#005BAB"/>
    <path d="M175.083 687.413C177.191 685.92 178.702 683.727 179.344 681.224C179.862 678.977 179.576 676.619 178.536 674.559C180.239 675.774 182.267 676.452 184.359 676.505C186.698 676.479 188.952 675.62 190.713 674.081C191.952 673.126 192.989 671.933 193.763 670.574C194.515 669.222 194.973 667.726 195.103 666.185C195.243 664.534 195.05 662.874 194.534 661.3C193.948 659.49 193.034 657.802 191.834 656.324L177.47 637.961L142.242 665.542L157.175 684.658C158.313 686.12 159.707 687.365 161.289 688.331C162.709 689.198 164.289 689.767 165.936 690.002C167.529 690.206 169.146 690.086 170.693 689.653C172.323 689.181 173.845 688.395 175.175 687.339L175.083 687.413ZM183.624 667.085C182.504 668.043 181.022 668.467 179.565 668.242C178.176 668.029 176.929 667.276 176.093 666.148L168.93 656.967L177.452 650.301L184.616 659.482C185.504 660.569 185.932 661.96 185.809 663.357C185.659 664.843 184.858 666.187 183.624 667.03V667.085ZM169.794 678.984C168.538 680.051 166.888 680.532 165.256 680.306C163.847 680.106 162.571 679.37 161.693 678.25L154.016 668.535L163.199 661.337L170.822 671.088C171.7 672.203 172.138 673.602 172.052 675.018C171.96 676.61 171.123 678.066 169.794 678.947V678.984Z" fill="#005BAB"/>
    <path d="M196.555 725.791L173.43 703.461L204.582 671.215L227.687 693.527L222.177 699.238L206.032 683.647L198.888 691.048L214.702 706.307L209.43 711.78L193.597 696.502L185.939 704.434L202.101 720.025L196.555 725.791Z" fill="#005BAB"/>
    <path d="M212.735 738.664L240.322 703.351L232.7 697.383L205.094 732.714L212.735 738.664Z" fill="#005BAB"/>
    <path d="M285.676 785.401L308.084 746.581L296.512 739.879L272.966 758.738L277.704 729.026L266.059 722.305L243.633 761.125L252.008 765.973L268.024 738.263L262.955 772.29L266.28 774.199L293.335 752.88L277.337 780.59L285.676 785.401Z" fill="#005BAB"/>
    <path d="M306.834 793.13L297.852 789.512L314.657 747.938L323.62 751.555L306.834 793.13Z" fill="#005BAB"/>
    <path d="M357.251 809.636L369.63 766.538L360.318 763.875L352.273 791.916L340.407 758.183L330.783 755.41L318.422 798.508L327.679 801.153L336.073 771.808L348.471 807.121L357.251 809.636Z" fill="#005BAB"/>
    <path d="M404.054 818.103L369.211 811.327L370.79 803.284L398.636 779.448L376.264 775.114L377.77 767.328L412.154 774.013L410.629 781.799L382.215 805.781L405.578 810.317L404.054 818.103Z" fill="#005BAB"/>
    <path d="M456.824 803.229L457.797 775.684L447.915 775.335L446.941 803.284C446.89 804.586 446.583 805.864 446.041 807.048C444.914 809.494 442.878 811.404 440.366 812.373C438.983 812.893 437.508 813.124 436.031 813.053C434.563 813.02 433.118 812.682 431.788 812.061C430.58 811.485 429.494 810.68 428.592 809.692C427.705 808.727 427.013 807.597 426.554 806.369C426.08 805.153 425.861 803.853 425.91 802.549L426.884 774.6L417.002 774.27L416.047 801.815C415.943 804.272 416.348 806.721 417.241 809.013C418.094 811.283 419.414 813.347 421.116 815.073C422.93 816.86 425.06 818.292 427.399 819.296C430.045 820.426 432.879 821.048 435.756 821.133C438.628 821.28 441.503 820.876 444.223 819.939C446.649 819.137 448.892 817.857 450.817 816.175C452.643 814.575 454.114 812.61 455.133 810.409C456.167 808.177 456.743 805.761 456.824 803.302V803.229Z" fill="#005BAB"/>
    <path d="M530.93 794.067L525.658 766.945L515.96 768.781L521.305 796.234C521.562 797.512 521.562 798.831 521.305 800.109C521.046 801.416 520.541 802.663 519.817 803.781C519.057 804.92 518.077 805.893 516.933 806.646C514.462 808.277 511.444 808.864 508.539 808.28C507.221 808.011 505.97 807.472 504.867 806.701C503.782 805.957 502.853 805.008 502.13 803.91C501.406 802.825 500.901 801.609 500.642 800.329L495.315 772.784L485.617 774.621L490.888 801.743C491.345 804.154 492.289 806.448 493.662 808.482C495.014 810.499 496.772 812.214 498.823 813.514C500.976 814.864 503.373 815.782 505.877 816.213C508.707 816.704 511.605 816.654 514.418 816.066C517.246 815.545 519.955 814.506 522.408 813C524.56 811.659 526.432 809.913 527.918 807.858C529.324 805.884 530.307 803.638 530.802 801.266C531.303 798.844 531.303 796.343 530.802 793.92L530.93 794.067Z" fill="#005BAB"/>
    <path d="M585.171 795.61L570.587 753.246L561.439 756.386L570.918 783.968L541.86 763.125L532.383 766.376L546.985 808.776L556.076 805.636L546.14 776.787L576.538 798.603L585.171 795.61Z" fill="#005BAB"/>
    <path d="M605.6 786.795L596.838 790.891L577.883 750.253L586.645 746.176L605.6 786.795Z" fill="#005BAB"/>
    <path d="M632.007 721.973L622.382 727.758L629.435 763.254L601.332 740.373L591.781 746.121L630.096 775.41L639.831 769.552L632.007 721.973Z" fill="#005BAB"/>
    <path d="M688.285 737.029L662.276 755.925L635.938 719.658L661.927 700.762L666.574 707.189L648.408 720.374L654.47 728.711L672.25 715.783L676.713 721.935L658.933 734.844L665.398 743.768L683.582 730.565L688.285 737.029Z" fill="#005BAB"/>
    <path d="M715.453 712.44L723.589 704.58L703.624 699.071C703.918 698.521 704.304 697.694 704.763 696.574C705.251 695.285 705.536 693.928 705.607 692.552C705.701 690.889 705.497 689.221 705.001 687.631C704.346 685.65 703.226 683.856 701.732 682.398C700.428 681.035 698.86 679.955 697.121 679.221C695.454 678.529 693.654 678.209 691.85 678.284C689.95 678.356 688.081 678.786 686.34 679.551C684.45 680.402 682.725 681.582 681.253 683.04L666.117 697.731L697.25 729.958L704.23 723.256L692.438 711.063L696.993 706.674L715.453 712.44ZM696.222 696.464C695.944 697.16 695.518 697.786 694.973 698.3C694.973 698.484 694.587 698.961 693.816 699.751C693.044 700.54 692.181 701.348 691.208 702.23L688.562 704.562C687.791 705.278 687.387 705.609 687.387 705.609L678.369 696.464L685.955 689.119C686.52 688.593 687.189 688.193 687.919 687.943C688.683 687.688 689.485 687.563 690.289 687.576C691.112 687.591 691.926 687.771 692.677 688.109C693.477 688.434 694.2 688.928 694.789 689.559C695.425 690.198 695.926 690.96 696.258 691.8C696.576 692.567 696.719 693.394 696.681 694.224C696.657 694.991 696.501 695.748 696.222 696.464Z" fill="#005BAB"/>
    <path d="M744.453 661.576C746.173 662.977 747.481 664.817 748.237 666.901C748.933 668.853 749.159 670.941 748.898 672.998C748.619 675.212 747.96 677.361 746.952 679.351C745.845 681.548 744.47 683.595 742.856 685.448C741.435 687.117 739.819 688.608 738.044 689.892C736.57 690.968 734.982 691.873 733.305 692.591C731.886 693.193 730.41 693.642 728.897 693.932C727.649 694.137 726.393 694.279 725.131 694.354L723.974 685.76C724.828 685.861 725.691 685.861 726.545 685.76C727.711 685.633 728.864 685.387 729.98 685.026C731.26 684.623 732.49 684.082 733.654 683.41C734.886 682.723 735.988 681.821 736.904 680.747C737.673 679.873 738.343 678.918 738.907 677.901C739.401 677.005 739.761 676.039 739.972 675.036C740.144 674.156 740.1 673.249 739.843 672.392C739.572 671.523 739.056 670.752 738.356 670.17C737.06 669.099 735.285 668.824 733.727 669.454C731.187 670.427 728.851 671.865 726.839 673.695C724.819 675.453 722.569 676.929 720.154 678.084C718.386 678.935 716.484 679.461 714.533 679.645C712.935 679.783 711.325 679.552 709.831 678.966C708.406 678.371 707.086 677.554 705.918 676.542C704.554 675.346 703.496 673.842 702.833 672.153C702.125 670.374 701.795 668.466 701.859 666.552C701.956 664.433 702.416 662.345 703.219 660.382C704.124 658.16 705.397 656.105 706.984 654.304C708.356 652.703 709.88 651.237 711.54 649.933C712.904 648.867 714.38 647.956 715.948 647.216C717.27 646.604 718.656 646.136 720.081 645.82C721.287 645.539 722.515 645.372 723.753 645.324L724.489 653.367C723.527 653.38 722.572 653.503 721.641 653.735C720.6 653.994 719.584 654.35 718.61 654.8C717.602 655.277 716.636 655.843 715.727 656.489C714.828 657.119 714.009 657.852 713.284 658.674C712.651 659.402 712.107 660.204 711.668 661.062C711.247 661.848 710.962 662.698 710.822 663.577C710.692 664.382 710.749 665.204 710.988 665.983C711.263 666.828 711.782 667.575 712.476 668.131C713.565 669.088 715.106 669.338 716.444 668.774C718.62 667.847 720.631 666.569 722.394 664.991C724.264 663.449 726.246 662.048 728.327 660.804C730.067 659.738 731.973 658.968 733.966 658.527C735.744 658.144 737.585 658.175 739.348 658.619C741.292 659.165 743.076 660.173 744.545 661.557L744.453 661.576Z" fill="#005BAB"/>
    <path d="M766.313 652.268L729.597 626.559L724.031 634.492L760.766 660.2L766.313 652.268Z" fill="#005BAB"/>
    <path d="M756.154 596.881L750.313 607.403L782.585 625.307L777.901 633.754L745.611 615.869L739.825 626.336L732.883 622.498L749.212 593.043L756.154 596.881Z" fill="#005BAB"/>
    <path d="M768.61 550.902L763.963 561.332L775.645 578.391L755.165 581.054L750.5 591.539L781.651 586.361L798.549 593.872L802.462 585.094L785.582 577.583L768.61 550.902Z" fill="#005BAB"/>
    </svg>
    