<svg width="692" height="692" viewBox="0 0 692 692" fill="none" xmlns="http://www.w3.org/2000/svg">
    <path fill-rule="evenodd" clip-rule="evenodd" d="M345.657 0.503906C536.526 0.503906 691.316 155.221 691.316 345.999C691.316 536.778 536.526 691.495 345.657 691.495C154.79 691.495 0 536.778 0 345.999C0 155.221 154.79 0.503906 345.657 0.503906ZM345.657 21.0428C166.136 21.0428 20.5486 166.562 20.5486 345.999C20.5486 525.437 166.136 670.956 345.657 670.956C525.18 670.956 670.767 525.442 670.767 345.999C670.767 166.557 525.185 21.0428 345.657 21.0428Z" fill="#004C8C"/>
    <path fill-rule="evenodd" clip-rule="evenodd" d="M345.661 102.016C480.458 102.016 589.761 211.273 589.761 345.998C589.761 480.722 480.453 589.985 345.661 589.985C210.871 589.985 101.562 480.725 101.562 345.998C101.562 211.271 210.874 102.016 345.661 102.016ZM345.661 106.506C213.344 106.506 106.057 213.745 106.057 345.998C106.057 478.251 213.344 585.492 345.664 585.492C477.984 585.492 585.269 478.243 585.269 345.998C585.269 213.753 477.971 106.506 345.664 106.506H345.661Z" fill="#004C8C"/>
    <path fill-rule="evenodd" clip-rule="evenodd" d="M600.395 441.417L598.241 447.052C595.949 446.252 593.881 445.98 592.035 446.241C590.189 446.503 588.359 447.41 586.547 448.962C584.641 450.633 583.105 452.683 582.034 454.981C581.036 456.934 580.411 459.059 580.185 461.241C580.027 463.233 580.304 464.912 581.039 466.28C581.723 467.599 582.814 468.661 584.149 469.314C585.427 469.967 586.894 470.159 588.296 469.856C589.699 469.566 591.179 468.674 592.742 467.205C593.779 466.254 595.715 464.036 598.614 460.52C601.511 457.004 603.761 454.659 605.384 453.478C607.458 451.923 609.571 451.05 611.671 450.812C613.778 450.586 615.906 450.97 617.801 451.923C619.984 452.98 621.801 454.659 623.022 456.753C624.318 458.919 624.883 461.435 624.715 464.295C624.492 467.311 623.681 470.255 622.322 472.957C620.766 476.173 618.869 478.745 616.632 480.702C614.395 482.658 611.966 483.795 609.322 484.14C606.642 484.472 603.922 484.06 601.46 482.948L603.717 477.248C606.598 478.284 609.161 478.284 611.383 477.248C613.605 476.211 615.531 474.053 617.151 470.726C618.838 467.26 619.43 464.43 618.934 462.217C618.439 460.005 617.288 458.476 615.502 457.608C614.053 456.851 612.339 456.784 610.836 457.424C609.281 458.043 606.862 460.414 603.546 464.562C600.232 468.711 597.747 471.457 596.118 472.807C593.722 474.758 591.342 475.903 588.981 476.245C586.567 476.569 584.115 476.149 581.946 475.043C579.626 473.913 577.694 472.125 576.39 469.9C574.996 467.589 574.332 464.922 574.397 461.899C574.462 458.875 575.25 455.823 576.759 452.737C578.658 448.817 580.828 445.811 583.265 443.72C585.562 441.686 588.413 440.386 591.456 439.987C594.51 439.601 597.61 440.09 600.397 441.401L600.395 441.417ZM593.619 408.236L591.97 414.387L633.02 425.379L628.896 440.766L634.387 442.238L644.267 405.376L638.775 403.904L634.669 419.227L593.619 408.236ZM628.787 355.867L627.695 369.524C627.467 372.418 627.586 374.722 628.062 376.403C628.458 377.976 629.37 379.37 630.654 380.365C631.864 381.305 633.326 381.868 634.856 381.982C636.994 382.212 639.122 381.469 640.655 379.958C642.248 378.432 643.187 375.885 643.47 372.322L644.679 357.134L628.792 355.867H628.787ZM602.471 347.384L650.492 351.211L648.796 372.488C648.451 376.769 647.76 379.987 646.722 382.142C645.686 384.298 644.024 385.956 641.735 387.12C639.446 388.27 636.883 388.76 634.332 388.532C630.92 388.273 628.147 386.936 625.985 384.536C623.823 382.137 622.615 378.624 622.338 373.968C621.4 375.59 620.505 376.802 619.642 377.611C617.581 379.476 615.295 381.077 612.835 382.376L599.096 389.682L599.733 381.691L610.234 376.142C613.257 374.514 615.593 373.159 617.211 372.074C618.827 370.988 619.997 370.001 620.676 369.112C621.332 368.27 621.845 367.327 622.192 366.319C622.467 365.161 622.636 363.982 622.698 362.795L623.286 355.429L601.962 353.729L602.481 347.384H602.471ZM619.507 308.291L620.932 324.562L633.777 318.388C637.678 316.515 640.898 315.092 643.436 314.121C640.26 313.768 637.119 313.172 634.036 312.333L619.507 308.291ZM598.585 296.178L648.19 310.408L648.788 317.243L602.515 341.08L601.882 333.843L615.93 326.975L614.175 306.918L599.176 302.927L598.585 296.191V296.178ZM581.088 239.795L626.711 224.298L637.919 257.258L632.536 259.072L623.377 232.144L609.413 236.888L617.988 262.109L612.637 263.922L604.059 238.702L588.535 243.977L598.054 271.96L592.667 273.789L581.101 239.769L581.088 239.795ZM556.549 196.126L559.661 201.365L592.172 181.979L572.624 223.086L575.991 228.698L617.363 204.029L614.229 198.782L581.743 218.15L601.26 177.061L597.912 171.447L556.549 196.126ZM544.911 182.324L582.238 151.9L586.264 156.823L548.936 187.249L544.911 182.326V182.324ZM516.629 151.729L521.036 156.328L536.818 141.176L552.474 157.468L556.575 153.53L540.919 137.238L551.676 126.91L569.77 145.739L573.871 141.803L551.365 118.37L516.629 151.729ZM466.962 117.033L492.496 76.2011L520.059 93.4235L517.047 98.2428L494.893 84.4042L486.987 97.0458L506.151 109.022L503.15 113.841L483.967 101.865L472.37 120.414L466.957 117.033H466.962ZM429.935 75.5119C427.618 80.8372 427.223 85.6505 428.753 89.9516C430.282 94.2526 433.209 97.343 437.532 99.2222C441.937 101.135 446.232 101.162 450.413 99.3051C454.594 97.4481 457.929 93.6774 460.412 87.9928C461.967 84.4042 462.721 80.9971 462.675 77.7894C462.675 74.7429 461.765 71.7661 460.062 69.2391C458.346 66.7359 455.945 64.7794 453.145 63.6036C448.998 61.8003 444.817 61.6733 440.602 63.2227C436.387 64.7722 432.83 68.8667 429.935 75.5067V75.5119ZM423.95 72.7939C422.272 76.6076 421.497 80.7558 421.684 84.9173C421.824 89.0315 423.169 93.0139 425.552 96.3721C427.944 99.8096 431.228 102.429 435.402 104.231C439.145 105.886 443.251 106.555 447.326 106.171C451.427 105.79 455.152 104.226 458.501 101.482C461.851 98.7369 464.495 95.1225 466.436 90.6382C468.355 86.2335 469.223 81.8987 469.028 77.6832C468.868 73.5782 467.496 69.6122 465.088 66.2827C462.669 62.9162 459.416 60.3449 455.334 58.5693C449.1 55.8609 443.111 55.7236 437.372 58.1573C431.632 60.5911 427.158 65.4699 423.95 72.7939ZM353.345 86.7854L357.254 38.7947L391.967 41.6189L391.506 47.2829L363.141 44.9769L361.946 59.6705L388.508 61.8314L388.055 67.4564L361.492 65.2955L360.163 81.6189L389.642 84.0182L389.179 89.6847L353.345 86.7854ZM323.509 87.7052L320.54 45.3292L304.707 46.4356L304.311 40.7665L342.397 38.1055L342.795 43.7746L326.894 44.8862L329.86 87.2517L323.509 87.7052ZM281.929 45.0054L288.119 43.4508L294.932 70.4309C296.114 75.1155 296.521 78.9743 296.155 82.0075C295.79 85.0408 294.437 87.7674 292.101 90.1874C289.768 92.6281 286.351 94.4115 281.851 95.5378C277.478 96.6416 273.709 96.7911 270.544 95.986C267.485 95.2574 264.787 93.4658 262.928 90.931C261.01 88.3744 259.432 84.6252 258.19 79.6834L251.377 52.7136L257.552 51.159L264.359 78.1055C265.383 82.1596 266.513 85.0502 267.752 86.7776C268.96 88.4864 270.733 89.714 272.758 90.2444C274.86 90.8247 277.24 90.7789 279.897 90.107C284.441 88.9618 287.42 87.1118 288.834 84.5571C290.25 82.0024 290.216 77.8023 288.731 71.957L281.924 45.0105L281.929 45.0054ZM235.269 111.659L217.383 73.1359L202.985 79.8104L200.593 74.6543L235.227 58.59L237.62 63.7461L223.168 70.462L241.055 108.988L235.269 111.659ZM208.932 126.247L214.331 122.865L188.759 82.0516L183.357 85.4199L208.932 126.247ZM184.275 143.788L157.433 110.882L145.13 120.901L141.537 116.497L171.135 92.3871L174.728 96.7918L162.373 106.858L189.213 139.769L184.288 143.793L184.275 143.788ZM130.341 175.714C132.668 177.729 135.521 179.039 138.566 179.492C141.603 179.93 144.702 179.449 147.463 178.111C150.371 176.763 153.273 174.456 156.167 171.188C158.445 168.624 160.029 165.897 160.919 163.005C161.809 160.114 161.89 157.367 161.162 154.766C160.512 152.271 159.134 150.025 157.206 148.312C155.418 146.661 153.168 145.594 150.757 145.254C148.395 144.942 145.796 145.402 142.96 146.635C141.023 147.499 137.894 149.475 133.576 152.563C129.262 155.673 126.284 157.289 124.625 157.468C123.005 157.674 121.379 157.146 120.187 156.03C118.704 154.711 118.017 152.921 118.131 150.664C118.245 148.408 119.586 145.837 122.147 142.953C124.608 140.19 127.047 138.617 129.464 138.235C131.881 137.847 134.346 138.551 136.842 140.308L140.56 135.437C138.488 133.699 135.976 132.567 133.301 132.164C130.657 131.778 128.001 132.222 125.333 133.499C122.652 134.776 120.148 136.743 117.761 139.417C115.724 141.652 114.145 144.265 113.113 147.107C112.177 149.814 112.034 152.387 112.704 154.825C113.316 157.172 114.613 159.283 116.431 160.888C117.997 162.317 119.942 163.264 122.033 163.617C124.12 163.954 126.383 163.669 128.806 162.749C130.688 162.049 133.498 160.391 137.231 157.797C140.964 155.204 143.452 153.584 144.692 152.95C146.592 151.955 148.257 151.504 149.687 151.597C151.117 151.685 152.473 152.265 153.526 153.237C154.637 154.226 155.401 155.546 155.703 157.002C156.039 158.513 155.858 160.207 155.162 162.083C154.356 164.128 153.18 166.007 151.691 167.625C150.04 169.545 148.01 171.103 145.728 172.201C143.565 173.203 141.558 173.581 139.709 173.336C137.858 173.076 135.945 172.271 133.955 170.879L130.354 175.722L130.341 175.714ZM116.13 225.998L75.2691 200.482L78.7349 194.939L124.218 193.535L92.1445 173.491L95.3821 168.309L136.236 193.825L132.772 199.367L87.2607 200.767L119.363 220.816L116.125 225.998H116.13ZM109.235 242.966L111.827 237.147L67.8113 217.577L65.2191 223.394L109.235 242.966ZM97.1034 277.883L50.5704 265.417L52.2191 259.266L98.7624 271.729L97.1138 277.883H97.1034ZM89.2126 322.85L41.4535 316.548L46.0106 282.036L51.6461 282.78L47.9237 310.98L62.5464 312.908L66.0329 286.5L71.64 287.239L68.1508 313.649L84.4093 315.792L88.2795 286.482L93.9175 287.229L89.2126 322.85ZM83.5927 363.505L83.2427 351.527C83.1857 349.454 83.0639 348.021 82.8929 347.197C82.6497 345.91 82.1652 344.679 81.4645 343.57C80.774 342.56 79.8301 341.746 78.7271 341.215C77.4551 340.601 76.0501 340.316 74.6392 340.38C72.9711 340.391 71.3475 340.919 69.9939 341.894C68.6887 342.863 67.7455 344.241 67.3135 345.809C66.834 347.449 66.6318 349.809 66.72 352.869L67.0439 363.998L83.5927 363.516V363.505ZM61.3592 364.15L61.0585 353.74C60.9756 350.928 60.7267 348.905 60.3198 347.682C59.8013 346.083 58.9588 344.884 57.8156 344.099C56.6724 343.313 55.2571 342.94 53.5747 342.987C52.0884 343 50.637 343.44 49.3935 344.254C48.2076 345.047 47.3521 346.244 46.9879 347.622C46.5801 349.058 46.4261 351.506 46.5265 354.97L46.8064 364.586L61.3592 364.163V364.15ZM89.4615 369.724L41.3083 371.12L40.7899 353.056C40.6836 349.379 41.0931 346.418 41.9926 344.171C42.8513 341.977 44.3737 340.106 46.3476 338.818C48.2083 337.543 50.3943 336.823 52.6494 336.745C54.7047 336.686 56.7352 337.209 58.5051 338.256C60.3534 339.313 61.8751 340.963 63.0571 343.179C63.8348 340.241 65.2191 337.968 67.2254 336.338C69.2317 334.709 71.6529 333.856 74.4551 333.773C76.6336 333.696 78.8007 334.123 80.7854 335.025C82.7554 335.921 84.2796 337.056 85.3735 338.427C86.4675 339.797 87.3047 341.536 87.9036 343.624C88.5024 345.713 88.8472 348.288 88.9405 351.366L89.4745 369.724H89.4615ZM45.0671 397.033L43.7269 390.794L70.9453 384.951C75.6717 383.938 79.5455 383.668 82.5662 384.143C85.5869 384.617 88.2657 386.065 90.6021 388.485C92.9558 390.903 94.6167 394.38 95.5843 398.917C96.5331 403.321 96.5539 407.102 95.6284 410.224C94.7958 413.253 92.9123 415.888 90.3144 417.657C87.691 419.481 83.889 420.925 78.9086 421.987L51.6902 427.83L50.3526 421.611L77.5398 415.776C81.6304 414.898 84.5603 413.869 86.3301 412.695C88.0793 411.545 89.3672 409.817 89.967 407.811C90.6202 405.739 90.6599 403.36 90.0862 400.676C89.1012 396.095 87.3574 393.053 84.8552 391.55C82.3528 390.047 78.1516 389.933 72.2518 391.206L45.0671 397.033ZM117.792 463.93L73.7838 483.516L71.1915 477.688L89.2671 469.656L79.0849 446.798L61.0093 454.83L58.4171 449.003L102.426 429.418L105.018 435.245L84.2796 444.474L94.4619 467.335L115.2 458.105L117.792 463.93Z" fill="#004C8C"/>
    <path fill-rule="evenodd" clip-rule="evenodd" d="M496.479 615.758C494.861 613.024 485.002 598.279 479.868 605.174C473.802 613.32 502.957 626.705 496.479 615.758ZM480.023 599.953C484.803 596.046 482.475 579.209 473.162 583.974C465.268 588.016 473.939 588.2 474.976 590.452C475.158 590.848 477.232 602.238 480.023 599.958V599.953ZM479.961 564.308C482.721 562.311 484.769 555.895 479.079 556.136C472.098 556.442 477.625 565.995 479.961 564.308ZM498.347 580.855C497.155 586.215 506.204 574.95 508.765 582.619C509.676 585.347 503.871 590.949 506.52 594.185C511.426 600.173 523.474 592.343 524.335 586.622C524.695 584.231 517.663 572.483 527.354 579.248C530.551 581.476 530.572 586.622 529.495 589.838C526.644 598.328 519.83 598.598 512.646 599.424C511.415 599.567 506.944 600.165 506.147 599.984C498.869 598.313 505.173 599.878 500.79 596.802C504.656 599.512 496.149 588.187 498.028 592.752C498.524 593.955 491.807 585.327 497.399 587.031C488.66 584.373 496.88 583.145 493.393 579.059C486.027 570.395 492.023 581.039 485.052 581.171C477.149 581.318 481.941 571.203 483.73 569.192C483.831 569.081 494.358 561.564 494.682 561.502C498.337 560.81 499.027 561.544 499.781 565.285C500.59 569.293 495.664 570.902 495.511 574.597C495.377 577.973 499.073 577.582 498.347 580.86V580.855Z" fill="#004C8C"/>
    <path fill-rule="evenodd" clip-rule="evenodd" d="M454.003 637.51C456.411 634.919 457.419 632.094 459.086 629.236C459.687 628.2 458.262 626.104 459.309 624.637C460.605 622.824 464.735 622.909 465.431 621.155C469.289 611.434 453.847 623.114 451.952 614.836C451.371 612.312 458.847 606.736 457.898 604.938C455.881 601.124 444.906 607.845 442.257 609.446C427.554 618.331 436.471 611.26 428.259 602.59C418.668 592.473 426.201 612.545 427.064 615.59C428.454 620.497 423.745 625.72 425.125 628.599C428.301 635.224 437.739 617.813 441.257 615.685C446.233 612.677 446.41 611.107 448.465 616.411C450.871 622.629 446.311 622.313 444.248 626.715C437.767 640.515 450.425 623.64 451.506 631.897C451.766 633.854 446.132 638.149 446.695 639.336C448.452 643.075 452.574 639.046 454.003 637.51ZM442.565 602.137C440.751 600.945 447.26 596.53 446.591 594.95C444.302 589.537 438.348 600.969 437.469 601.505C434.431 603.355 431.906 605.495 429.156 601.3C423.619 592.856 435.118 594.372 437.969 592.462C447.182 586.293 445.077 573.991 452.077 588.348C454.531 593.382 458.21 590.379 453.696 596.81C451.924 599.349 445.534 604.078 442.565 602.137Z" fill="#004C8C"/>
    <path fill-rule="evenodd" clip-rule="evenodd" d="M369.391 649.787C369.391 644.957 370.568 642.682 375.4 642.034C378.879 641.568 381.621 645.307 384.604 643.092C386.862 641.407 384.182 632.157 385.359 630.375C386.396 628.802 396.902 624.364 398.092 624.983C401.254 626.631 401.293 650.32 406.934 644.965C410.601 641.485 405.664 631.911 404.601 628.483C403.792 625.864 402.512 622.423 402.807 619.721C403.155 616.539 406.662 613.243 406.283 610.313C405.047 600.703 394.313 621.109 391.632 618.288C388.951 615.466 402.613 605.662 393.413 605.68C390.821 605.68 384.179 611.582 383.736 614.458C382.699 621.091 386.945 619.677 390.751 620.418C389.019 620.07 385.675 628.271 384.299 628.579C379.633 629.631 381.854 610.751 381.447 609.621C380.226 606.31 375.56 603.594 372.037 605.734C368.344 607.994 370.374 610.434 370.653 613.709C371.247 620.602 372.888 628.996 368.922 635.329C367.268 637.974 366.907 640.63 364.139 636.969C363.984 636.764 361.129 625.39 361.15 626.19C361.114 624.752 369.987 606.517 359.136 612.417C358.312 612.865 353.931 624.716 353.755 625.701C352.559 632.303 356.002 628.577 357.718 633.313C358.755 636.137 355.759 641.293 357.026 643.115C358.599 645.374 362.301 642.221 362.957 643.146C364.44 645.219 362.086 649.665 364.704 651.292C365.761 651.968 369.391 652.023 369.391 649.787Z" fill="#004C8C"/>
    <path fill-rule="evenodd" clip-rule="evenodd" d="M302.363 642.297C299.532 640.667 289.905 641.486 291.688 646.701C293.697 652.557 307.062 644.989 302.363 642.297ZM335.88 653.697C337.674 655.534 341.36 657.565 337.995 659.962C335.032 662.074 333.749 657.589 332.01 656.457C327.196 653.324 327.521 653.64 322.299 653.384C314.644 653.005 319.474 655.682 316.635 651.697C315.814 650.541 321.973 646.58 314.118 647.735C306.798 648.808 305.105 655.27 295.535 652.762C289.345 651.137 284.217 647.225 289.868 642.006C293.658 638.509 300.084 639.006 304.818 638.255C306.009 638.066 310.092 639.467 310.78 637.876C312.732 633.378 305.595 636.094 304.533 634.143C302.122 629.717 312.244 627.689 312.244 627.689C306.34 620.517 311.446 625.929 314.382 619.029C314.953 617.716 305.631 619.822 311.391 612.811C313.522 610.22 317.716 610.22 319.764 608.147C327.637 600.138 311.863 610.412 308.215 606.318C300.116 597.229 323.116 600.802 326.102 600.96C339.304 601.672 337.028 608.191 326.54 611.534C332.192 609.746 324.298 622.255 324.498 623.432C325.449 629.031 325.535 624.318 330.004 625.23C333.676 625.976 336.743 625.37 330.729 630.671C327.658 633.384 321.494 631.495 319.399 635.809C317.341 640.048 320.068 644.465 324.749 644.442C327.837 644.429 329.885 637.26 333.277 642.584C336.145 647.113 330.766 648.487 335.88 653.697Z" fill="#004C8C"/>
    <path fill-rule="evenodd" clip-rule="evenodd" d="M286.849 624.763C293.163 624.123 289.597 618.327 284.816 617.972C277.248 617.407 283.98 625.055 286.849 624.763ZM273.849 619.322C271.306 621.654 266.568 627.595 269.885 631.24C273.204 634.886 275.868 629.605 278.478 630.862C281.162 632.157 281.354 633.253 279.42 635.997C276.171 640.612 271.643 637.736 267.754 635.383C260.284 630.844 263.78 625.359 255.955 624.164C248.676 623.053 237.464 628.354 231.735 622.542C230.466 621.247 227.241 616.725 230.572 615.103C232.954 613.943 236.252 619.011 238.536 619.451C250.239 621.713 243.551 610.999 244.912 606.672C245.532 604.701 249.415 603.675 250.615 601.519C252.243 598.607 249.578 593.831 254.464 593.427C261.879 592.816 261.326 605.952 259.081 610.455C256.872 614.881 250.897 618 256.359 620.35C257.656 620.91 263.69 620.008 265.279 619.246C268.39 617.754 273.357 609.559 276.657 610.359C282.885 611.852 275.77 617.542 273.849 619.311V619.322Z" fill="#004C8C"/>
    <path fill-rule="evenodd" clip-rule="evenodd" d="M176.419 583.79C179.588 580.308 177.217 580.365 177.52 578.349C177.03 581.621 175.83 571.423 176.743 574.188C176.242 572.662 180.229 571.428 177.401 569.265C174.355 566.933 170.956 574.333 169.661 575.774C167.304 578.39 157.578 584.78 161.785 589.135C164.867 592.325 174.262 586.176 176.419 583.79ZM202.478 583.412C211.1 583.562 201.825 588.161 198.639 590.345C191.171 595.47 190.816 596.079 184.166 593.545C179.441 591.732 176.02 592.509 177.714 586.187C178.137 584.617 181.276 584.324 181.706 583.287C181.507 583.769 184.789 574.605 183.06 576.447C183.689 575.776 203.598 561.818 204.49 562.642C209.373 567.156 199.139 571.345 199.464 573.799C199.969 577.655 204.472 573.815 205.342 575.47C207.475 579.525 209.464 576.587 203.956 580.041C201.848 581.362 198.965 580.538 196.78 581.427C196.026 581.735 184.584 584.956 193.475 587.446C195.332 587.967 200 583.37 202.478 583.412ZM203.58 601.471C206.558 598.411 213.067 602.878 216.071 598.634C218.553 595.131 214.563 590.667 215.317 586.848C215.952 583.624 223.524 580.507 218.496 576.574C215.304 574.076 211.188 577.947 209.399 579.943C208.104 581.393 208.122 585.301 207.04 587.319C204.396 592.242 199.756 595.823 195.93 599.704C185.483 610.304 195.782 609.49 203.58 601.471ZM185.136 562.422C186.482 561.479 195.881 557.274 188.74 555.001C180.805 552.475 183.92 563.272 185.136 562.422ZM222.965 602.826C226.676 597.092 240.851 581.02 228.221 576.763C222.166 574.724 225.767 584.956 222.947 590.361C221.072 593.955 218.259 598.134 215.791 601.336C214.099 603.541 212.591 606.223 210.348 607.886C209.075 608.827 202.11 610.952 201.851 611.335C199.446 614.898 202.336 618.072 207.325 617.782C212.578 617.481 220.245 607.037 222.965 602.826Z" fill="#004C8C"/>
    <path fill-rule="evenodd" clip-rule="evenodd" d="M418.363 249.5H272.773V282.735H418.363V249.5ZM400.679 256.705C400.705 256.615 400.752 256.529 400.778 256.446C400.783 256.348 400.801 256.25 400.829 256.156C400.866 256.09 400.93 256.042 401.003 256.024C401.164 255.999 401.327 255.984 401.49 255.98C401.635 255.935 401.78 255.902 401.931 255.882C402.05 255.907 402.166 255.946 402.278 255.996C402.397 256.006 402.514 256.026 402.628 256.055C402.703 256.092 402.768 256.149 402.815 256.221C402.841 256.255 402.815 256.304 402.841 256.34C402.903 256.48 403.004 256.599 403.056 256.747C403.087 256.846 403.1 256.951 403.092 257.055C403.087 257.18 403.064 257.304 403.017 257.421C402.999 257.459 402.929 257.449 402.908 257.483C402.859 257.56 402.854 257.659 402.81 257.742C402.766 257.847 402.7 257.941 402.615 258.017C402.482 258.077 402.345 258.126 402.203 258.162C402.094 258.211 402.003 258.294 401.894 258.34C401.835 258.371 401.765 258.384 401.697 258.377C401.526 258.335 401.399 258.247 401.226 258.211C401.122 258.188 400.987 258.211 400.881 258.211C400.806 258.195 400.739 258.148 400.697 258.081C400.661 258.017 400.697 257.931 400.697 257.858C400.679 257.737 400.645 257.617 400.631 257.496C400.611 257.355 400.606 257.213 400.611 257.071C400.621 256.945 400.645 256.821 400.679 256.7V256.705ZM376.41 261.032C376.488 260.804 376.604 260.589 376.752 260.398C376.884 260.253 377.045 260.139 377.225 260.058C377.365 259.991 377.517 259.955 377.673 259.949C377.932 259.949 378.02 260.118 378.17 260.268C378.463 260.574 378.875 260.737 379.297 260.714C379.76 260.68 379.788 260.509 380.117 260.346C380.249 260.278 380.431 260.273 380.565 260.214C380.708 260.157 380.845 260.089 380.975 260.009C381.125 259.911 381.27 259.797 381.402 259.675C381.561 259.517 381.686 259.325 381.836 259.157C382.017 258.929 382.22 258.717 382.437 258.524C382.642 258.364 382.911 258.296 383.126 258.149C383.266 258.05 383.347 257.89 383.492 257.796C383.621 257.728 383.767 257.694 383.915 257.698C384.039 257.698 384.633 257.698 384.638 257.897C384.628 258.115 384.604 258.331 384.563 258.545C384.55 258.75 384.519 258.954 384.475 259.154C384.444 259.271 384.319 259.356 384.304 259.475C384.291 259.698 384.34 259.918 384.444 260.115C384.482 260.315 384.394 260.273 384.506 260.444C384.633 260.6 384.78 260.74 384.941 260.861C385.068 260.95 385.185 261.048 385.296 261.154C385.415 261.31 385.519 261.478 385.604 261.657C385.7 261.799 385.771 261.96 385.813 262.128C385.813 262.25 385.77 262.367 385.69 262.457C385.56 262.608 385.423 262.75 385.278 262.882C385.19 263.004 385.094 263.121 384.988 263.23C384.892 263.297 384.783 263.344 384.669 263.37C384.459 263.429 384.231 263.434 384.021 263.499C383.822 263.572 383.626 263.657 383.44 263.758C383.189 263.968 382.865 264.072 382.538 264.054C382.261 264.111 381.989 264.193 381.712 264.261C381.49 264.333 381.265 264.385 381.034 264.419C380.941 264.416 380.85 264.383 380.775 264.326C380.69 264.261 380.612 264.188 380.54 264.111C380.472 264.059 380.41 263.999 380.356 263.934C380.314 263.893 380.288 263.839 380.28 263.781C380.275 263.727 380.296 263.673 380.335 263.636C380.428 263.572 380.527 263.512 380.63 263.463C380.793 263.367 380.949 263.261 381.097 263.144C381.193 263.061 381.239 262.926 381.343 262.859C381.541 262.732 381.776 262.683 381.981 262.574C382.077 262.527 382.165 262.463 382.24 262.385C382.302 262.312 382.341 262.222 382.344 262.126C382.334 262.017 382.295 261.911 382.233 261.82C382.108 261.605 381.714 261.561 381.499 261.517C381.402 261.486 381.301 261.486 381.205 261.517C381.076 261.574 380.985 261.701 380.861 261.776C380.705 261.833 380.555 261.898 380.407 261.973C380.2 262.121 380.112 262.349 379.907 262.491C379.778 262.59 379.545 262.61 379.412 262.701C379.207 262.846 379.051 263.053 378.844 263.196C378.67 263.318 378.481 263.414 378.282 263.484C378.067 263.556 377.844 263.603 377.618 263.623C377.52 263.634 377.422 263.618 377.331 263.579C377.245 263.53 377.169 263.465 377.104 263.39C377.05 263.338 377.006 263.276 376.952 263.224C376.845 263.144 376.742 263.059 376.646 262.965C376.568 262.849 376.501 262.727 376.444 262.6C376.382 262.499 376.332 262.393 376.299 262.279C376.262 262.084 376.252 261.887 376.27 261.691C376.288 261.465 376.335 261.242 376.41 261.027V261.032ZM286.398 262.001C286.382 261.805 286.401 261.605 286.455 261.416C286.553 261.219 286.781 261.118 286.921 260.947C287.02 260.833 287.051 260.662 287.18 260.566C287.297 260.468 287.442 260.411 287.592 260.405C287.74 260.405 287.852 260.535 288.008 260.563C288.104 260.579 288.202 260.525 288.298 260.538C288.345 260.553 288.384 260.582 288.41 260.623C288.542 260.747 288.653 260.893 288.741 261.051C288.806 261.209 288.827 261.382 288.806 261.553C288.78 261.812 288.661 262.071 288.617 262.315C288.594 262.442 288.617 262.574 288.617 262.701C288.617 262.742 288.594 262.8 288.552 262.812C288.511 262.825 288.402 262.776 288.327 262.787C288.272 262.794 288.22 262.818 288.179 262.854C288.083 262.929 287.995 263.017 287.92 263.113C287.881 263.183 287.85 263.258 287.832 263.336C287.832 263.364 287.832 263.401 287.805 263.419C287.774 263.455 287.73 263.476 287.683 263.476C287.541 263.452 287.403 263.414 287.268 263.359C287.154 263.336 287.043 263.294 286.942 263.235C286.895 263.201 286.916 263.121 286.885 263.072C286.844 263.004 286.789 262.942 286.727 262.893C286.636 262.815 286.512 262.781 286.432 262.693C286.39 262.641 286.369 262.577 286.375 262.512C286.375 262.341 286.382 262.167 286.398 261.996V262.001ZM289.508 271.244C289.506 271.337 289.495 271.428 289.472 271.518C289.41 271.674 289.28 271.801 289.213 271.961C289.145 272.122 289.195 272.277 289.143 272.425C289.021 272.777 288.871 273.117 288.692 273.443C288.599 273.573 288.495 273.695 288.378 273.804C288.262 273.915 288.158 274.039 288.07 274.174C287.954 274.399 287.935 274.666 287.81 274.887C287.719 275.042 287.598 275.174 287.452 275.28C287.25 275.446 287.025 275.576 286.781 275.672C286.489 275.734 286.185 275.685 285.926 275.534C285.867 275.493 285.887 275.392 285.838 275.34C285.789 275.288 285.74 275.311 285.7 275.28C285.625 275.239 285.565 275.174 285.524 275.099C285.428 274.855 285.366 274.602 285.34 274.342C285.298 273.925 285.293 273.506 285.322 273.086C285.34 272.79 285.449 272.505 285.482 272.21C285.472 271.99 285.477 271.767 285.495 271.547C285.57 271.262 285.784 271.029 285.869 270.744C285.96 270.427 286.017 270.104 286.033 269.775C286.066 269.321 286.033 268.865 286.033 268.409C286.033 268.083 286.059 267.756 286.11 267.432C286.134 267.277 286.201 267.129 286.302 267.007C286.406 266.922 286.53 266.87 286.662 266.854C286.82 266.836 286.978 266.836 287.134 266.854C287.219 266.854 287.323 266.823 287.393 266.878C287.512 266.981 287.6 267.114 287.652 267.261C287.725 267.445 287.761 267.639 287.766 267.836C287.761 268.033 287.735 268.228 287.683 268.417C287.652 268.567 287.546 268.704 287.546 268.86C287.556 269.021 287.603 269.176 287.683 269.313C287.727 269.399 287.798 269.469 287.886 269.51C288.005 269.549 288.132 269.562 288.259 269.549C288.42 269.549 288.575 269.479 288.733 269.464C288.93 269.438 289.127 269.432 289.324 269.448C289.399 269.451 289.467 269.49 289.503 269.554C289.537 269.705 289.55 269.86 289.537 270.013C289.537 270.272 289.573 270.508 289.565 270.754C289.555 270.917 289.537 271.078 289.511 271.238L289.508 271.244ZM297.459 268.456C297.415 268.572 297.293 268.64 297.231 268.746C297.189 268.813 297.194 268.901 297.156 268.971C297.042 269.119 296.938 269.272 296.847 269.435C296.754 269.72 296.689 270.015 296.658 270.313C296.632 270.516 296.715 270.731 296.658 270.922C296.601 271.114 296.399 271.223 296.292 271.386C296.11 271.645 295.965 271.951 295.789 272.226C295.719 272.353 295.631 272.467 295.53 272.57C295.413 272.671 295.279 272.752 295.136 272.806C295.074 272.829 295.001 272.806 294.937 272.806C294.872 272.806 294.745 272.891 294.641 272.907C294.543 272.93 294.444 272.93 294.346 272.907C294.24 272.855 294.138 272.793 294.044 272.723C293.936 272.645 293.814 272.586 293.687 272.542C293.537 272.508 293.379 272.508 293.228 272.542C293.127 272.562 293.062 272.669 292.969 272.702C292.915 272.72 292.85 272.676 292.796 272.702C292.676 272.741 292.562 272.801 292.459 272.873C292.355 272.948 292.295 273.081 292.2 273.148C292.064 273.228 291.916 273.283 291.763 273.311C291.675 273.324 291.585 273.311 291.504 273.275C291.465 273.259 291.46 273.2 291.426 273.174C291.369 273.135 291.31 273.099 291.248 273.068C291.11 272.998 290.981 272.917 290.856 272.827C290.706 272.702 290.571 272.56 290.457 272.404C290.4 272.321 290.367 272.226 290.356 272.127C290.354 271.987 290.364 271.847 290.385 271.707C290.385 271.656 290.406 271.599 290.385 271.555C290.364 271.51 290.289 271.521 290.255 271.482C290.229 271.456 290.222 271.42 290.232 271.386C290.284 271.29 290.39 271.233 290.437 271.127C290.486 270.997 290.522 270.863 290.551 270.728C290.587 270.562 290.644 270.402 290.719 270.251C290.774 270.166 290.898 270.145 290.978 270.07C291.069 269.979 291.141 269.87 291.188 269.751C291.24 269.588 291.263 269.42 291.258 269.249C291.253 269.085 291.224 268.925 291.173 268.772C291.139 268.673 291.09 268.58 291.025 268.497C290.96 268.404 290.882 268.324 290.792 268.256C290.605 268.129 290.393 268.041 290.196 267.93C290.064 267.883 289.942 267.813 289.837 267.72C289.749 267.608 289.705 267.466 289.713 267.323C289.739 267.207 289.806 267.103 289.902 267.033C290.188 266.774 290.52 266.58 290.818 266.339C290.976 266.227 291.118 266.098 291.245 265.953C291.323 265.849 291.372 265.727 291.39 265.6C291.437 265.308 291.406 265.004 291.437 264.712C291.45 264.535 291.486 264.362 291.543 264.193C291.636 263.955 291.828 263.758 291.908 263.517C291.973 263.263 292.012 263.002 292.02 262.74C292.06 262.341 292.02 261.929 292.104 261.535C292.171 261.19 292.29 260.856 292.454 260.545C292.591 260.304 292.764 260.089 292.972 259.905C293.104 259.758 293.28 259.651 293.472 259.602C293.627 259.602 293.778 259.662 293.892 259.771C294.096 259.931 294.273 260.126 294.411 260.346C294.488 260.496 294.53 260.665 294.533 260.836C294.564 261.258 294.574 261.68 294.558 262.103C294.561 262.393 294.535 262.683 294.486 262.971C294.426 263.263 294.273 263.53 294.227 263.823C294.205 263.919 294.227 264.02 294.279 264.103C294.338 264.175 294.421 264.222 294.514 264.235C294.605 264.243 294.693 264.225 294.773 264.183C294.875 264.131 294.937 264.017 295.033 263.965C295.217 263.875 295.437 263.864 295.613 263.756C295.727 263.688 295.781 263.548 295.872 263.455C295.973 263.331 296.095 263.227 296.232 263.144C296.371 263.1 296.513 263.085 296.656 263.095C296.79 263.095 296.915 263.129 297.065 263.123C297.194 263.095 297.329 263.077 297.461 263.072C297.505 263.072 297.526 263.147 297.524 263.191C297.511 263.452 297.482 263.712 297.435 263.968C297.428 264.061 297.394 264.152 297.337 264.227C297.163 264.416 296.907 264.525 296.736 264.717C296.671 264.792 296.718 264.929 296.653 265.004C296.536 265.131 296.352 265.178 296.224 265.295C296.048 265.468 295.885 265.652 295.732 265.847C295.665 265.927 295.631 266.038 295.551 266.106C295.47 266.173 295.393 266.145 295.328 266.191C295.185 266.29 295.069 266.435 294.937 266.538C294.636 266.761 294.289 266.922 294.008 267.173C293.829 267.344 293.682 267.544 293.573 267.764C293.508 267.88 293.482 268.015 293.503 268.147C293.544 268.261 293.614 268.36 293.71 268.435C293.853 268.588 294.013 268.725 294.19 268.842C294.349 268.951 294.53 269.023 294.722 269.052C294.88 269.059 295.038 269.018 295.172 268.932C295.286 268.862 295.377 268.759 295.432 268.637C295.504 268.417 295.566 268.194 295.613 267.966C295.66 267.772 295.73 267.585 295.82 267.409C295.926 267.261 296.048 267.126 296.188 267.01C296.258 266.94 296.365 266.901 296.415 266.816C296.539 266.606 296.57 266.347 296.707 266.147C296.767 266.059 296.894 266.043 296.982 265.984C297.062 265.932 297.14 265.875 297.215 265.813C297.28 265.758 297.342 265.699 297.399 265.634C297.472 265.554 297.508 265.437 297.601 265.375C297.645 265.346 297.702 265.409 297.757 265.414C297.842 265.427 297.93 265.432 298.016 265.427C298.117 265.427 298.215 265.341 298.316 265.367C298.373 265.383 298.399 265.463 298.41 265.525C298.454 265.753 298.478 265.984 298.475 266.214C298.481 266.357 298.452 266.497 298.389 266.626C298.327 266.746 298.187 266.805 298.101 266.906C297.977 267.044 297.863 267.191 297.767 267.349C297.695 267.476 297.64 267.611 297.604 267.754C297.536 267.984 297.542 268.23 297.461 268.451L297.459 268.456ZM301.202 270.256C301.135 270.313 301.086 270.389 301.06 270.474C300.972 270.637 300.904 270.811 300.86 270.992C300.821 271.215 300.876 271.443 300.86 271.666C300.837 271.86 300.801 272.052 300.746 272.241C300.674 272.516 300.577 272.785 300.486 273.057C300.395 273.329 300.315 273.614 300.211 273.886C300.126 274.171 300.009 274.444 299.862 274.703C299.753 274.835 299.615 274.941 299.463 275.016C299.255 275.135 299.038 275.239 298.812 275.319C298.732 275.356 298.641 275.366 298.553 275.345C298.412 275.27 298.278 275.185 298.153 275.086C298.042 275.024 297.92 274.99 297.814 274.923C297.749 274.884 297.656 274.845 297.645 274.77C297.653 274.56 297.682 274.353 297.731 274.151C297.731 273.941 297.746 273.734 297.783 273.526C297.853 273.267 298.042 273.075 298.109 272.835C298.197 272.56 298.265 272.277 298.306 271.99C298.353 271.731 298.345 271.438 298.397 271.166C298.43 270.992 298.527 270.837 298.564 270.666C298.6 270.495 298.564 270.308 298.605 270.148C298.646 269.987 298.823 269.821 298.864 269.629C298.906 269.373 298.921 269.111 298.913 268.852C298.926 268.593 298.913 268.334 298.95 268.075C298.986 267.678 299.074 267.285 299.097 266.888C299.118 266.663 299.108 266.437 299.064 266.214C299.045 266.126 298.908 266.085 298.9 265.994C298.921 265.782 298.955 265.569 299.001 265.362C299.014 265.181 299.004 264.999 298.968 264.823C298.944 264.709 298.89 264.603 298.81 264.517C298.719 264.429 298.571 264.424 298.468 264.349C298.412 264.307 298.373 264.25 298.355 264.186C298.309 263.999 298.322 263.805 298.288 263.616C298.262 263.478 298.151 263.344 298.182 263.206C298.228 262.991 298.417 262.831 298.504 262.626C298.623 262.338 298.641 262.009 298.789 261.735C298.916 261.525 299.082 261.343 299.279 261.198C299.354 261.139 299.468 261.159 299.556 261.118C299.685 261.056 299.789 260.944 299.921 260.893C300.027 260.869 300.139 260.851 300.248 260.843C300.341 260.82 300.426 260.706 300.507 260.742C300.65 260.797 300.712 260.97 300.826 261.071C300.94 261.172 301.137 261.31 301.28 261.442C301.365 261.522 301.479 261.59 301.511 261.701C301.578 262.02 301.617 262.343 301.624 262.667C301.661 262.875 301.671 263.087 301.656 263.3C301.632 263.445 301.5 263.598 301.464 263.74C301.396 263.968 301.358 264.204 301.355 264.442C301.355 264.626 301.389 264.805 301.456 264.976C301.518 265.139 301.617 265.287 301.739 265.411C301.902 265.562 302.083 265.688 302.28 265.79C302.49 265.904 302.742 265.932 302.944 266.049C303.162 266.189 303.356 266.365 303.517 266.567C303.646 266.743 303.742 266.94 303.805 267.147C303.872 267.326 303.908 267.515 303.908 267.704C303.9 267.891 303.854 268.075 303.768 268.241C303.662 268.412 303.535 268.567 303.387 268.702C303.144 268.969 302.885 269.22 302.609 269.453C302.472 269.57 302.29 269.627 302.145 269.733C302 269.839 301.943 269.969 301.811 270.041C301.635 270.135 301.394 270.14 301.215 270.251L301.202 270.256ZM306.819 266.401C306.819 266.569 306.746 266.733 306.733 266.901C306.72 267.116 306.72 267.329 306.733 267.544C306.733 267.728 306.762 267.912 306.764 268.098C306.767 268.23 306.762 268.365 306.744 268.497C306.697 268.813 306.625 269.127 306.56 269.44C306.487 269.803 306.378 270.158 306.327 270.523C306.29 270.782 306.327 271.054 306.298 271.319C306.259 271.635 306.158 271.943 306.114 272.259C306.07 272.575 306.091 272.847 306.047 273.138C306.023 273.405 305.959 273.666 305.86 273.915C305.775 274.094 305.56 274.19 305.461 274.363C305.383 274.493 305.428 274.674 305.347 274.801C305.267 274.928 305.104 274.995 304.995 275.109C304.886 275.223 304.87 275.332 304.771 275.407C304.631 275.519 304.47 275.602 304.299 275.651C304.134 275.672 303.963 275.672 303.797 275.651C303.628 275.653 303.463 275.641 303.297 275.617C303.185 275.599 303.079 275.558 302.986 275.495C302.841 275.389 302.747 275.236 302.599 275.117C302.451 274.998 302.213 274.933 302.034 274.817C301.998 274.793 301.954 274.747 301.964 274.705C301.998 274.599 302.052 274.5 302.122 274.415C302.231 274.236 302.358 274.07 302.5 273.915C302.689 273.728 302.926 273.596 303.131 273.43C303.263 273.353 303.377 273.249 303.473 273.13C303.551 272.933 303.613 272.728 303.659 272.521C303.748 272.262 303.862 272.034 303.96 271.793C304.064 271.596 304.149 271.391 304.219 271.179C304.266 270.953 304.219 270.718 304.253 270.487C304.268 270.342 304.338 270.207 304.346 270.062C304.354 269.917 304.294 269.728 304.297 269.559C304.297 269.3 304.364 269.015 304.38 268.743C304.393 268.593 304.388 268.44 304.364 268.29C304.32 268.114 304.266 267.94 304.196 267.772C304.139 267.652 304.092 267.528 304.053 267.401C304.046 267.339 304.051 267.274 304.074 267.215C304.154 266.93 304.284 266.66 304.351 266.375C304.388 266.163 304.408 265.945 304.413 265.73C304.437 265.587 304.442 265.442 304.429 265.297C304.413 265.22 304.292 265.188 304.289 265.111C304.289 264.852 304.385 264.605 304.395 264.349C304.4 264.23 304.38 264.108 304.336 263.997C304.31 263.934 304.222 263.911 304.201 263.849C304.167 263.743 304.154 263.629 304.167 263.517C304.18 263.279 304.253 263.046 304.263 262.81C304.281 262.61 304.268 262.408 304.227 262.211C304.209 262.139 304.115 262.11 304.077 262.048C304.056 262.001 304.043 261.952 304.035 261.9C304.022 261.81 303.994 261.722 303.95 261.641C303.88 261.543 303.755 261.494 303.67 261.406C303.631 261.356 303.595 261.305 303.564 261.25C303.535 261.211 303.52 261.159 303.478 261.136C303.374 261.076 303.245 261.076 303.144 261.017C303.043 260.957 303.035 260.903 302.975 260.851C302.903 260.779 302.823 260.716 302.737 260.659C302.547 260.551 302.324 260.525 302.132 260.421C301.974 260.325 301.824 260.216 301.684 260.094C301.498 259.952 301.757 259.817 301.86 259.719C301.951 259.62 302.052 259.534 302.163 259.46C302.275 259.398 302.423 259.418 302.529 259.359C302.635 259.299 302.733 259.164 302.851 259.084C302.931 259.031 303.017 258.992 303.11 258.967C303.338 258.893 303.571 258.835 303.81 258.796C304.03 258.763 304.253 258.754 304.473 258.771C304.623 258.779 304.771 258.819 304.904 258.89C305.039 258.998 305.166 259.118 305.28 259.247C305.404 259.353 305.539 259.444 305.661 259.55C305.754 259.631 305.839 259.716 305.92 259.809C305.987 259.874 306.039 259.952 306.075 260.037C306.135 260.196 306.132 260.374 306.189 260.535C306.218 260.61 306.301 260.659 306.327 260.734C306.352 260.833 306.363 260.934 306.358 261.035C306.373 261.271 306.358 261.512 306.391 261.748C306.402 261.856 306.43 261.963 306.477 262.064C306.542 262.209 306.674 262.323 306.736 262.47C306.772 262.616 306.783 262.763 306.772 262.911C306.772 263.289 306.739 263.665 306.728 264.041C306.728 264.333 306.695 264.626 306.728 264.916C306.744 265.116 306.834 265.305 306.85 265.505C306.86 265.802 306.853 266.1 306.821 266.396L306.819 266.401ZM326.694 270.834C326.552 271.039 326.383 271.223 326.194 271.386C326.1 271.516 325.994 271.635 325.882 271.749C325.786 271.832 325.672 271.891 325.551 271.92C325.359 271.938 325.167 271.938 324.975 271.92C324.791 271.92 324.607 271.92 324.423 271.902C324.141 271.902 323.858 271.865 323.575 271.863C323.244 271.863 322.912 271.863 322.58 271.881C322.339 271.899 322.096 271.907 321.854 271.899C321.621 271.873 321.393 271.824 321.17 271.754C321.061 271.731 320.957 271.684 320.867 271.617C320.758 271.518 320.664 271.404 320.587 271.28C320.512 271.174 320.465 271.052 320.39 270.948C320.286 270.798 320.146 270.674 320.053 270.518C319.988 270.409 319.98 270.259 319.916 270.158C319.851 270.057 319.745 269.992 319.679 269.899C319.65 269.855 319.679 269.79 319.643 269.749C319.591 269.676 319.518 269.619 319.435 269.588C319.267 269.536 319.091 269.521 318.917 269.539C318.782 269.562 318.655 269.614 318.544 269.694C318.399 269.793 318.306 269.953 318.158 270.047C317.948 270.174 317.694 270.215 317.481 270.337C317.198 270.503 316.962 270.759 316.683 270.912C316.496 271.013 316.266 271.005 316.071 271.091C315.913 271.155 315.768 271.244 315.633 271.35C315.49 271.466 315.402 271.648 315.246 271.749C315.091 271.85 314.953 271.803 314.821 271.871C314.637 271.966 314.495 272.13 314.303 272.226C314.021 272.35 313.733 272.456 313.44 272.547C313.214 272.604 312.994 272.679 312.781 272.772C312.644 272.845 312.574 273.013 312.437 273.091C312.232 273.202 312.014 273.285 311.786 273.335C311.54 273.392 311.281 273.363 311.031 273.412C310.925 273.436 310.84 273.544 310.731 273.547C310.622 273.55 310.588 273.464 310.518 273.425C310.42 273.353 310.311 273.293 310.197 273.249C310.052 273.213 309.886 273.301 309.754 273.249C309.622 273.197 309.51 272.974 309.373 272.853C309.236 272.731 309.096 272.682 308.976 272.57C308.888 272.49 308.815 272.391 308.766 272.283C308.693 272.119 308.647 271.943 308.631 271.764C308.631 271.606 308.657 271.451 308.704 271.301C308.722 271.213 308.722 271.104 308.792 271.042C308.862 270.979 308.944 271.023 309.02 271.023C309.096 271.023 309.233 271.057 309.339 271.049C309.487 271.036 309.627 270.977 309.775 270.969C309.863 270.966 309.951 270.982 310.034 271.016C310.22 271.075 310.394 271.174 310.583 271.223C310.824 271.293 311.073 271.339 311.325 271.363C311.493 271.373 311.662 271.36 311.828 271.324C311.916 271.303 311.986 271.228 312.087 271.202C312.188 271.176 312.32 271.202 312.429 271.155C312.579 271.099 312.722 271.026 312.856 270.938C313.136 270.788 313.349 270.536 313.453 270.236C313.526 270.07 313.583 269.896 313.622 269.718C313.666 269.521 313.686 269.321 313.686 269.119C313.674 268.987 313.645 268.857 313.606 268.73C313.585 268.601 313.554 268.474 313.515 268.349C313.451 268.178 313.37 268.015 313.276 267.86C313.18 267.681 313.064 267.515 312.931 267.362C312.786 267.22 312.626 267.093 312.455 266.984C312.317 266.883 312.154 266.823 312.027 266.709C311.957 266.652 311.911 266.572 311.9 266.481C311.911 266.378 311.942 266.277 311.994 266.186C312.035 266.069 312.084 265.958 312.144 265.849C312.203 265.748 312.276 265.652 312.356 265.567C312.442 265.479 312.566 265.427 312.636 265.326C312.711 265.212 312.763 265.085 312.792 264.95C312.799 264.836 312.799 264.725 312.792 264.611C312.828 264.432 312.851 264.253 312.867 264.072C312.862 263.896 312.833 263.722 312.781 263.553C312.719 263.341 312.636 263.134 312.538 262.937C312.481 262.818 312.377 262.722 312.323 262.603C312.258 262.478 312.222 262.341 312.211 262.201C312.206 261.968 312.237 261.737 312.304 261.514C312.372 261.299 312.543 261.133 312.76 261.071C312.817 261.045 312.893 261.056 312.939 261.014C312.986 260.973 312.989 260.846 313.053 260.799C313.134 260.74 313.232 260.714 313.33 260.724C313.562 260.758 313.785 260.825 313.995 260.926C314.228 261.027 314.443 261.162 314.637 261.325C314.839 261.52 315.031 261.722 315.213 261.937C315.365 262.121 315.532 262.292 315.706 262.455C315.83 262.556 315.999 262.592 316.126 262.691C316.229 262.758 316.317 262.846 316.385 262.95C316.442 263.053 316.473 263.167 316.475 263.284C316.475 263.53 316.426 263.774 316.429 264.017C316.426 264.149 316.447 264.282 316.486 264.406C316.519 264.507 316.621 264.58 316.644 264.686C316.703 264.945 316.677 265.204 316.729 265.448C316.745 265.523 316.838 265.567 316.846 265.642C316.849 265.769 316.83 265.893 316.789 266.012C316.677 266.455 316.501 266.886 316.424 267.336C316.377 267.722 316.356 268.108 316.364 268.497C316.351 268.66 316.359 268.824 316.382 268.984C316.395 269.039 316.434 269.083 316.483 269.109C316.582 269.163 316.688 269.194 316.799 269.199C316.906 269.192 317.009 269.163 317.105 269.116C317.317 269.023 317.525 268.919 317.725 268.805C317.94 268.681 318.137 268.518 318.357 268.399C318.448 268.349 318.572 268.365 318.658 268.3C318.744 268.235 318.839 268.041 318.959 267.956C319.016 267.909 319.104 267.925 319.168 267.888C319.233 267.852 319.293 267.782 319.363 267.741C319.433 267.699 319.448 267.725 319.487 267.707C319.588 267.66 319.684 267.603 319.771 267.533C319.921 267.401 320.056 267.253 320.172 267.09C320.273 266.935 320.361 266.772 320.431 266.601C320.55 266.334 320.654 266.062 320.745 265.784C320.804 265.6 320.807 265.403 320.864 265.217C320.939 264.986 321.025 264.761 321.123 264.541C321.198 264.357 321.299 264.183 321.382 263.994C321.45 263.714 321.535 263.437 321.641 263.17C321.711 263.046 321.823 262.955 321.958 262.911C322.085 262.898 322.212 262.903 322.337 262.932C322.51 262.921 322.681 262.921 322.855 262.932C322.956 262.939 323.052 262.981 323.13 263.048C323.233 263.16 323.306 263.297 323.339 263.447C323.355 263.585 323.347 263.727 323.316 263.862C323.298 264.048 323.275 264.238 323.249 264.421C323.238 264.598 323.21 264.771 323.161 264.94C323.072 265.111 322.974 265.274 322.868 265.435C322.767 265.644 322.684 265.859 322.609 266.075C322.539 266.243 322.477 266.417 322.425 266.593C322.344 266.867 322.277 267.145 322.23 267.427C322.184 267.722 322.155 268.02 322.142 268.321C322.122 268.484 322.124 268.65 322.155 268.813C322.228 269.072 322.326 269.321 322.453 269.557C322.536 269.736 322.645 269.904 322.775 270.052C322.883 270.158 323.01 270.241 323.153 270.295C323.295 270.363 323.451 270.402 323.609 270.409C323.785 270.394 323.959 270.357 324.128 270.3C324.276 270.275 324.421 270.233 324.558 270.171C324.67 270.104 324.765 270.015 324.843 269.912C324.973 269.756 325.069 269.575 325.183 269.394C325.24 269.287 325.31 269.189 325.39 269.098C325.488 269.015 325.6 268.953 325.719 268.909C325.768 268.891 325.825 268.909 325.877 268.909C325.929 268.909 326.032 268.785 326.136 268.777C326.251 268.782 326.362 268.813 326.464 268.868C326.554 268.907 326.673 268.932 326.723 269.021C326.78 269.217 326.813 269.417 326.826 269.622C326.852 269.738 326.938 269.844 326.93 269.964C326.922 270.083 326.808 270.223 326.782 270.342C326.756 270.461 326.772 270.687 326.697 270.829L326.694 270.834ZM328.086 265.095C328 265.175 327.878 265.209 327.795 265.289C327.712 265.37 327.648 265.507 327.565 265.608C327.5 265.696 327.422 265.774 327.332 265.839C327.238 265.893 327.137 265.927 327.031 265.937C326.935 265.942 326.839 265.929 326.749 265.901C326.622 265.87 326.5 265.826 326.381 265.771C326.303 265.738 326.248 265.663 326.171 265.637C325.911 265.543 325.633 265.507 325.374 265.411C325.193 265.346 325.017 265.258 324.856 265.152C324.776 265.098 324.714 265.025 324.672 264.94C324.662 264.898 324.677 264.854 324.711 264.826C324.817 264.727 324.97 264.67 325.069 264.567C325.167 264.463 325.312 264.307 325.46 264.191C325.608 264.085 325.771 263.999 325.944 263.945C326.071 263.924 326.202 263.914 326.331 263.914C326.453 263.893 326.567 263.836 326.689 263.823C326.878 263.797 327.07 263.792 327.262 263.807C327.383 263.805 327.503 263.844 327.598 263.916C327.751 264.098 327.876 264.3 327.971 264.517C328.052 264.655 328.109 264.805 328.143 264.96C328.145 265.01 328.124 265.059 328.088 265.09L328.086 265.095ZM346.942 276.441C346.859 276.566 346.745 276.664 346.61 276.726C346.452 276.796 346.281 276.827 346.107 276.822C346.001 276.822 345.913 276.739 345.812 276.705C345.713 276.692 345.615 276.667 345.524 276.625C345.345 276.475 345.179 276.312 345.023 276.135C344.87 275.964 344.707 275.804 344.536 275.651C344.331 275.503 344.121 275.368 343.901 275.244C343.676 275.086 343.44 274.944 343.199 274.811C343.043 274.736 342.877 274.682 342.706 274.651C342.527 274.615 342.343 274.602 342.162 274.62C341.921 274.646 341.688 274.705 341.465 274.798C341.156 274.931 340.891 275.153 340.588 275.296C340.241 275.457 339.883 275.599 339.52 275.721C339.409 275.757 339.277 275.832 339.173 275.778C339.07 275.723 339.018 275.563 338.976 275.438C338.916 275.273 338.885 275.096 338.882 274.92C338.89 274.845 338.926 274.773 338.984 274.723C339.075 274.64 339.207 274.617 339.298 274.537C339.373 274.462 339.432 274.374 339.474 274.278C339.523 274.2 339.549 274.109 339.546 274.019C339.546 273.923 339.44 273.853 339.422 273.759C339.404 273.666 339.453 273.653 339.461 273.596C339.474 273.557 339.474 273.513 339.461 273.474C339.414 273.384 339.344 273.303 339.259 273.246C339.106 273.169 338.943 273.12 338.771 273.101C338.613 273.081 338.452 273.094 338.299 273.145C338.18 273.189 338.105 273.311 338.004 273.405C337.957 273.446 337.905 273.485 337.853 273.518C337.734 273.586 337.594 273.63 337.483 273.692C337.416 273.713 337.353 273.752 337.304 273.801C337.198 273.946 337.18 274.148 337.045 274.283C336.78 274.552 336.497 274.801 336.197 275.026C336.111 275.109 336.015 275.182 335.912 275.244C335.795 275.288 335.676 275.327 335.554 275.356C335.357 275.423 335.158 275.488 334.966 275.568C334.644 275.705 334.343 275.897 334.009 276.006C333.781 276.065 333.548 276.097 333.312 276.099C332.928 276.133 332.542 276.146 332.155 276.135C331.857 276.133 331.562 276.099 331.274 276.029C331.062 275.949 330.857 275.845 330.668 275.721C330.549 275.643 330.427 275.573 330.299 275.511C330.113 275.462 329.924 275.42 329.732 275.389C329.47 275.345 329.216 275.273 328.97 275.174C328.846 275.094 328.742 274.985 328.667 274.855C328.566 274.721 328.483 274.573 328.423 274.415C328.351 274.26 328.317 274.089 328.322 273.918C328.353 273.695 328.434 273.482 328.558 273.296C328.698 273.125 328.853 272.969 329.027 272.832C329.105 272.767 329.175 272.7 329.242 272.625C329.322 272.524 329.338 272.366 329.442 272.296C329.659 272.179 329.887 272.081 330.123 272.003C330.234 271.948 330.341 271.886 330.443 271.814C330.583 271.697 330.728 271.591 330.878 271.49C330.989 271.451 331.103 271.42 331.22 271.399C331.318 271.36 331.399 271.277 331.5 271.249C331.671 271.205 331.844 271.179 332.018 271.166C332.324 271.135 332.636 271.124 332.944 271.106C333.074 271.114 333.203 271.109 333.33 271.088C333.483 271.026 333.628 270.948 333.765 270.86C333.918 270.767 334.076 270.684 334.242 270.617C334.403 270.575 334.566 270.554 334.733 270.549C334.899 270.549 335.067 270.549 335.233 270.549C335.399 270.549 335.565 270.549 335.73 270.521C335.829 270.516 335.925 270.492 336.015 270.453C336.127 270.391 336.223 270.303 336.29 270.194C336.334 270.096 336.35 269.987 336.337 269.881C336.35 269.775 336.334 269.663 336.293 269.565C336.236 269.458 336.145 269.375 336.034 269.329C335.878 269.285 335.715 269.269 335.554 269.277C335.238 269.264 334.917 269.277 334.6 269.277C334.382 269.28 334.164 269.254 333.955 269.199C333.869 269.155 333.799 269.085 333.76 268.997C333.68 268.857 333.625 268.704 333.594 268.546C333.584 268.458 333.597 268.37 333.631 268.287C333.651 268.235 333.685 268.191 333.729 268.158C333.828 268.083 333.944 268.036 334.048 267.971C334.242 267.852 334.442 267.741 334.626 267.608C334.761 267.476 334.904 267.352 335.054 267.238C335.191 267.186 335.337 267.15 335.484 267.134C335.66 267.095 335.834 267.046 336.002 266.987C336.124 266.943 336.236 266.875 336.329 266.784C336.471 266.634 336.23 266.525 336.129 266.484C335.927 266.401 335.715 266.354 335.515 266.274C335.344 266.22 335.181 266.139 335.033 266.038C334.953 265.963 334.896 265.867 334.873 265.761C334.829 265.642 334.821 265.51 334.844 265.385C334.894 265.232 334.984 265.095 335.103 264.986C335.248 264.857 335.409 264.745 335.58 264.655C335.689 264.587 335.821 264.561 335.922 264.484C336.044 264.388 336.153 264.276 336.243 264.152C336.35 264.015 336.427 263.854 336.521 263.706C336.567 263.636 336.642 263.577 336.663 263.494C336.663 263.463 336.629 263.429 336.601 263.424C336.458 263.403 336.313 263.395 336.168 263.401C335.808 263.388 335.445 263.421 335.088 263.375C334.945 263.354 334.808 263.294 334.694 263.206C334.613 263.144 334.553 263.059 334.525 262.963C334.47 262.818 334.457 262.662 334.486 262.512C334.556 262.307 334.665 262.115 334.811 261.955C334.971 261.784 335.145 261.628 335.329 261.483C335.448 261.377 335.572 261.279 335.686 261.167C335.818 261.014 335.958 260.869 336.103 260.732C336.293 260.584 336.536 260.514 336.72 260.359C336.846 260.253 336.89 260.076 337.011 259.962C337.066 259.913 337.156 259.923 337.221 259.89C337.374 259.812 337.514 259.711 337.664 259.631C337.783 259.587 337.897 259.533 338.009 259.47C338.113 259.392 338.164 259.258 338.268 259.18C338.359 259.13 338.455 259.091 338.553 259.063C338.672 259.018 338.789 258.961 338.898 258.895C338.987 258.83 339.062 258.749 339.121 258.656C339.147 258.613 339.147 258.56 339.121 258.517C339.049 258.425 338.953 258.354 338.843 258.312C338.708 258.271 338.566 258.256 338.426 258.268C338.193 258.268 337.962 258.291 337.734 258.335C337.506 258.381 337.283 258.458 337.076 258.563C336.936 258.638 336.848 258.786 336.72 258.879C336.544 259.011 336.339 259.105 336.166 259.239C335.992 259.374 335.868 259.592 335.666 259.69C335.466 259.773 335.248 259.807 335.033 259.789C334.8 259.776 334.569 259.729 334.348 259.649C334.188 259.591 334.04 259.502 333.913 259.39C333.822 259.309 333.799 259.172 333.716 259.084C333.633 258.996 333.496 258.952 333.423 258.851C333.366 258.762 333.335 258.659 333.333 258.553C333.294 258.306 333.299 258.054 333.353 257.809C333.436 257.601 333.566 257.416 333.734 257.268C333.916 257.085 334.123 256.929 334.348 256.807C334.499 256.732 334.662 256.686 334.831 256.672C334.95 256.661 335.07 256.675 335.181 256.713C335.44 256.799 335.655 256.944 335.901 257.037C336.075 257.119 336.256 257.177 336.446 257.208C336.604 257.21 336.762 257.188 336.915 257.143C337.175 257.097 337.4 257.009 337.649 256.978C337.866 256.966 338.084 256.966 338.302 256.978C338.514 256.985 338.729 256.978 338.943 256.957C339.254 256.9 339.544 256.757 339.852 256.698C340.098 256.657 340.347 256.635 340.598 256.633C341.089 256.633 341.576 256.633 342.066 256.633C342.369 256.618 342.672 256.632 342.973 256.677C343.092 256.707 343.196 256.785 343.256 256.892C343.326 257.059 343.375 257.232 343.406 257.41C343.456 257.513 343.494 257.618 343.528 257.726C343.541 257.792 343.528 257.859 343.492 257.915C343.43 258.011 343.305 258.058 343.233 258.156C343.128 258.309 343.102 258.509 342.988 258.656C342.905 258.734 342.807 258.792 342.701 258.827C342.568 258.89 342.416 258.91 342.289 258.986C342.04 259.129 341.804 259.295 341.586 259.48C341.439 259.607 341.343 259.786 341.208 259.921C341.118 260.022 341.01 260.107 340.896 260.18C340.772 260.25 340.624 260.268 340.495 260.33C340.495 260.33 340.508 260.359 340.523 260.359C340.694 260.359 340.868 260.338 341.041 260.359C341.102 260.367 341.156 260.392 341.2 260.431C341.317 260.535 341.421 260.652 341.509 260.779C341.568 260.846 341.607 260.931 341.62 261.02C341.625 261.17 341.594 261.32 341.529 261.455C341.418 261.67 341.278 261.869 341.11 262.046C340.964 262.201 340.764 262.305 340.591 262.445C340.518 262.491 340.458 262.556 340.417 262.634C340.407 262.688 340.422 262.742 340.458 262.784C340.567 262.919 340.718 263.009 340.831 263.149C340.899 263.23 340.938 263.331 340.948 263.434C340.948 263.572 340.917 263.706 340.852 263.826C340.694 264.077 340.521 264.32 340.334 264.551C340.225 264.683 340.127 264.823 340.044 264.971C340.008 265.051 339.997 265.142 340.018 265.23C340.033 265.323 340.085 265.406 340.16 265.46C340.329 265.554 340.513 265.611 340.705 265.631C340.974 265.673 341.247 265.673 341.517 265.631C341.688 265.585 341.843 265.497 341.97 265.372C342.099 265.222 342.219 265.064 342.328 264.901C342.429 264.766 342.55 264.652 342.693 264.561C342.812 264.507 342.947 264.491 343.076 264.52C343.241 264.567 343.396 264.634 343.539 264.725C343.645 264.766 343.741 264.826 343.824 264.903C343.868 264.955 343.881 265.025 343.86 265.087C343.715 265.38 343.551 265.665 343.37 265.937C343.199 266.214 343.032 266.494 342.851 266.756C342.773 266.857 342.68 266.945 342.574 267.015C342.473 267.067 342.366 267.108 342.258 267.137C342.014 267.225 341.763 267.295 341.529 267.396C341.296 267.497 341.12 267.655 340.899 267.759C340.567 267.914 340.202 267.992 339.878 268.165C339.723 268.256 339.588 268.375 339.482 268.52C339.347 268.681 339.241 268.865 339.168 269.065C339.098 269.308 339.064 269.559 339.07 269.811C339.077 270.114 339.114 270.414 339.184 270.707C339.207 270.811 339.259 270.909 339.331 270.987C339.479 271.15 339.645 271.295 339.824 271.422C340.028 271.57 340.251 271.694 340.484 271.788C340.671 271.85 340.865 271.878 341.063 271.876C341.19 271.876 341.314 271.85 341.431 271.803C341.581 271.751 341.721 271.671 341.843 271.567C341.944 271.456 342.032 271.332 342.102 271.197C342.185 271.036 342.278 270.883 342.382 270.736C342.491 270.596 342.625 270.479 342.781 270.394C342.944 270.319 343.12 270.28 343.3 270.28C343.487 270.259 343.678 270.282 343.855 270.347C344.033 270.443 344.186 270.583 344.298 270.754C344.375 270.907 344.427 271.073 344.453 271.244C344.495 271.355 344.518 271.472 344.523 271.591C344.495 271.832 344.453 272.073 344.399 272.309C344.355 272.586 344.29 272.86 344.269 273.14C344.256 273.213 344.274 273.288 344.318 273.345C344.466 273.487 344.624 273.62 344.795 273.734C345.103 273.993 345.415 274.231 345.729 274.475C345.858 274.576 345.988 274.669 346.128 274.767C346.351 274.933 346.581 275.091 346.802 275.262C346.916 275.332 347.019 275.418 347.105 275.521C347.162 275.607 347.182 275.711 347.164 275.812C347.136 276.037 347.061 276.252 346.944 276.446L346.942 276.441ZM369.442 264.331C369.341 264.486 369.222 264.629 369.082 264.751C368.911 264.937 368.733 265.118 368.542 265.287C368.345 265.458 368.097 265.572 367.91 265.758C367.791 265.888 367.693 266.038 367.623 266.199C367.519 266.398 367.431 266.608 367.363 266.823C367.322 266.963 367.363 267.119 367.309 267.256C367.283 267.339 367.169 267.38 367.161 267.466C367.135 267.779 367.242 268.093 367.213 268.406C367.213 268.528 367.084 268.619 367.053 268.736C367.009 268.914 366.985 269.098 366.985 269.282C366.985 269.502 367.003 269.72 367.045 269.935C367.081 270.114 367.192 270.272 367.218 270.453C367.242 270.733 367.249 271.013 367.242 271.293C367.27 271.617 367.278 271.943 367.27 272.27C367.27 272.378 367.169 272.461 367.143 272.565C367.117 272.669 367.143 272.754 367.123 272.847C367.102 272.941 367.076 273.073 367.053 273.184C367.003 273.443 366.97 273.69 366.91 273.936C366.863 274.125 366.78 274.306 366.734 274.495C366.713 274.687 366.679 274.876 366.63 275.063C366.586 275.172 366.453 275.223 366.386 275.322C366.347 275.381 366.362 275.472 366.316 275.529C366.269 275.586 366.165 275.625 366.095 275.682C365.969 275.817 365.829 275.941 365.678 276.053C365.598 276.099 365.5 276.099 365.419 276.053C365.305 275.998 365.215 275.907 365.16 275.793C365.082 275.552 365.036 275.304 365.02 275.05C364.986 274.78 364.968 274.508 364.963 274.236C364.953 273.876 364.961 273.516 364.992 273.158C365.012 272.933 365.106 272.72 365.129 272.498C365.129 272.423 365.075 272.35 365.082 272.275C365.113 271.954 365.204 271.64 365.243 271.319C365.3 270.868 365.349 270.414 365.37 269.961C365.388 269.546 365.383 269.132 365.354 268.72C365.344 268.505 365.3 268.295 365.23 268.093C365.163 267.901 365.054 267.725 364.917 267.575C364.828 267.489 364.712 267.44 364.59 267.437C364.458 267.456 364.333 267.502 364.224 267.577C364.032 267.684 363.874 267.836 363.674 267.937C363.475 268.039 363.195 268.007 362.983 268.114C362.84 268.186 362.783 268.373 362.646 268.458C362.509 268.544 362.387 268.505 362.256 268.557C362.176 268.59 362.129 268.684 362.046 268.71C361.888 268.743 361.73 268.759 361.57 268.756C361.435 268.764 361.298 268.764 361.163 268.756C360.981 268.759 360.803 268.738 360.626 268.699C360.544 268.676 360.489 268.593 360.417 268.546C360.344 268.5 360.326 268.476 360.274 268.479C360.149 268.489 360.027 268.526 359.915 268.58C359.82 268.614 359.734 268.676 359.675 268.759C359.618 268.873 359.594 269.002 359.605 269.129C359.605 269.365 359.69 269.593 359.713 269.829C359.747 270.085 359.757 270.347 359.742 270.606C359.742 270.663 359.654 270.679 359.63 270.728C359.607 270.777 359.63 270.837 359.597 270.886C359.514 271.057 359.402 271.218 359.314 271.386C359.213 271.542 359.128 271.705 359.055 271.876C359.003 272.039 359.024 272.218 358.978 272.394C358.952 272.518 358.897 272.635 358.819 272.733C358.731 272.816 358.625 272.876 358.506 272.904C358.413 272.93 358.317 272.93 358.224 272.904C358.115 272.853 358.01 272.796 357.909 272.731C357.857 272.718 357.803 272.708 357.748 272.702C357.71 272.702 357.658 272.702 357.632 272.674C357.551 272.575 357.484 272.464 357.435 272.345C357.36 272.166 357.336 271.966 357.259 271.788C357.194 271.635 357.106 271.49 357 271.363C356.937 271.303 356.86 271.259 356.774 271.236C356.715 271.213 356.65 271.202 356.588 271.21C356.479 271.236 356.373 271.267 356.269 271.306C356.132 271.358 355.992 271.394 355.846 271.417C355.747 271.42 355.649 271.402 355.558 271.363C355.374 271.293 355.213 271.168 355.024 271.104C354.892 271.073 354.757 271.062 354.623 271.08C354.478 271.073 354.332 271.101 354.203 271.168C354.068 271.29 353.965 271.446 353.902 271.617C353.869 271.687 353.92 271.775 353.887 271.845C353.853 271.915 353.707 271.995 353.679 272.104C353.65 272.213 353.73 272.342 353.723 272.459C353.725 272.557 353.694 272.653 353.637 272.733C353.531 272.835 353.412 272.92 353.282 272.993C353.21 273.034 353.142 273.088 353.088 273.153C353.059 273.226 353.039 273.298 353.028 273.376C353.02 273.43 353.002 273.482 352.971 273.526C352.909 273.576 352.839 273.612 352.764 273.635C352.616 273.69 352.463 273.736 352.31 273.775C352.233 273.804 352.152 273.814 352.07 273.809C351.997 273.809 351.948 273.721 351.878 273.702C351.808 273.684 351.659 273.702 351.558 273.671C351.475 273.656 351.395 273.617 351.333 273.56C351.294 273.521 351.317 273.449 351.304 273.397C351.242 273.252 351.193 273.104 351.154 272.951C351.138 272.746 351.149 272.539 351.185 272.337C351.226 272.137 351.286 271.941 351.364 271.751C351.418 271.63 351.48 271.51 351.55 271.394C351.623 271.29 351.683 271.181 351.735 271.065C351.761 270.972 351.761 270.876 351.735 270.782C351.709 270.671 351.651 270.57 351.566 270.495C351.462 270.42 351.335 270.376 351.206 270.376C351.055 270.399 350.908 270.435 350.763 270.479C350.646 270.497 350.529 270.497 350.413 270.479C350.33 270.456 350.25 270.427 350.174 270.389C350.071 270.36 349.967 270.324 349.869 270.28C349.781 270.231 349.703 270.161 349.643 270.078C349.602 270.015 349.581 269.938 349.589 269.863C349.62 269.64 349.682 269.422 349.77 269.215C349.83 269.109 349.908 269.01 349.998 268.927C350.099 268.821 350.234 268.743 350.325 268.627C350.462 268.44 350.579 268.241 350.672 268.031C350.742 267.857 350.796 267.678 350.84 267.494C350.897 267.347 350.934 267.191 350.949 267.033C350.954 266.904 350.918 266.774 350.846 266.665C350.708 266.474 350.55 266.3 350.371 266.147C350.226 266.043 350.086 265.929 349.957 265.808C349.809 265.611 349.687 265.396 349.597 265.165C349.546 265.072 349.536 264.966 349.562 264.865C349.599 264.766 349.718 264.725 349.791 264.647C349.874 264.577 349.946 264.494 350.006 264.403C350.11 264.212 350.149 263.991 350.244 263.794C350.281 263.719 350.333 263.655 350.397 263.6C350.607 263.442 350.856 263.341 351.061 263.175C351.294 262.983 351.511 262.774 351.709 262.546C351.935 262.294 352.142 262.027 352.329 261.745C352.45 261.545 352.551 261.333 352.632 261.113C352.712 260.911 352.741 260.69 352.836 260.496C352.914 260.335 353.018 260.188 353.145 260.061C353.248 259.96 353.373 259.882 353.508 259.828C353.725 259.732 353.957 259.664 354.193 259.626C354.291 259.62 354.387 259.646 354.47 259.701C354.638 259.797 354.791 259.918 354.921 260.063C355.066 260.237 355.18 260.437 355.255 260.652C355.322 260.859 355.353 261.074 355.343 261.292C355.343 261.491 355.299 261.685 355.211 261.864C355.092 262.02 354.952 262.16 354.794 262.276C354.674 262.369 354.566 262.473 354.465 262.587C354.384 262.698 354.408 262.88 354.299 262.965C354.19 263.051 353.926 263.051 353.759 263.142C353.508 263.292 353.274 263.465 353.057 263.66C352.862 263.81 352.689 263.984 352.538 264.178C352.502 264.245 352.502 264.328 352.538 264.396C352.588 264.494 352.655 264.582 352.738 264.655C352.87 264.761 352.989 264.883 353.098 265.012C353.197 265.175 353.261 265.357 353.29 265.546C353.318 265.709 353.318 265.878 353.29 266.041C353.223 266.347 353.137 266.647 353.031 266.94C352.971 267.126 352.86 267.295 352.816 267.484C352.772 267.673 352.782 267.943 352.741 268.165C352.715 268.303 352.629 268.425 352.614 268.567C352.598 268.85 352.691 269.127 352.873 269.344C352.961 269.43 353.075 269.482 353.197 269.492C353.321 269.5 353.443 269.474 353.554 269.42C353.689 269.363 353.805 269.274 353.9 269.16C353.967 269.072 353.923 268.93 353.99 268.842C354.092 268.704 354.283 268.653 354.382 268.515C354.436 268.435 354.382 268.311 354.426 268.228C354.47 268.145 354.579 268.168 354.625 268.106C354.672 268.044 354.625 267.94 354.672 267.878C354.747 267.774 354.884 267.73 354.967 267.637C355.063 267.523 355.146 267.396 355.211 267.261C355.343 267.002 355.41 266.694 355.563 266.435C355.612 266.352 355.732 266.336 355.799 266.266C355.936 266.134 356.062 265.986 356.168 265.828C356.342 265.549 356.502 265.261 356.647 264.963C356.753 264.776 356.847 264.58 356.924 264.377C356.994 264.168 357.038 263.947 357.059 263.727C357.075 263.499 357.075 263.271 357.059 263.043C357.041 262.73 356.966 262.419 356.974 262.105C356.989 261.976 357.028 261.851 357.088 261.737C357.124 261.647 357.212 261.577 357.228 261.478C357.259 261.237 357.199 260.988 357.228 260.747C357.228 260.688 357.316 260.654 357.321 260.592C357.347 260.385 357.287 260.17 357.321 259.962C357.344 259.856 357.391 259.755 357.458 259.67C357.551 259.53 357.655 259.399 357.772 259.278C357.842 259.193 357.93 259.124 358.031 259.076C358.198 259.013 358.374 258.974 358.55 258.96C358.687 258.936 358.827 258.936 358.965 258.96C359.317 259.047 359.664 259.161 360.001 259.299C360.11 259.364 360.217 259.435 360.316 259.514C360.417 259.576 360.533 259.613 360.632 259.683C360.722 259.742 360.8 259.817 360.862 259.905C360.961 260.053 361.038 260.214 361.093 260.382C361.186 260.659 361.248 260.944 361.274 261.235C361.29 261.483 361.264 261.735 361.194 261.973C361.101 262.209 360.987 262.437 360.852 262.652C360.805 262.784 360.74 262.906 360.658 263.017C360.541 263.142 360.362 263.188 360.235 263.302C360.131 263.39 360.045 263.496 359.975 263.613C359.923 263.706 359.892 263.81 359.879 263.916C359.84 264.186 359.82 264.458 359.82 264.73C359.809 264.87 359.83 265.01 359.877 265.142C359.991 265.339 360.115 265.528 360.251 265.709C360.308 265.777 360.341 265.859 360.349 265.948C360.313 266.124 360.264 266.297 360.196 266.466C360.141 266.676 360.089 266.891 360.045 267.106C360.014 267.202 359.998 267.3 359.998 267.401C360.009 267.525 360.045 267.647 360.105 267.759C360.136 267.808 360.188 267.842 360.246 267.849C360.3 267.849 360.349 267.823 360.383 267.782C360.484 267.647 360.536 267.479 360.642 267.339C360.676 267.285 360.725 267.24 360.782 267.209C360.994 267.124 361.209 267.049 361.43 266.987C361.611 266.948 361.79 266.896 361.963 266.829C362.054 266.774 362.129 266.696 362.184 266.603C362.272 266.468 362.311 266.3 362.402 266.165C362.441 266.113 362.493 266.072 362.553 266.049C362.695 265.989 362.853 265.963 363.001 265.911C363.091 265.88 363.351 265.847 363.26 265.8C363.133 265.73 362.967 265.826 362.822 265.818C362.612 265.805 362.405 265.779 362.199 265.738C362.098 265.727 362 265.694 361.914 265.639C361.785 265.528 361.676 265.396 361.593 265.248C361.487 265.051 361.401 264.846 361.334 264.634C361.264 264.458 361.217 264.271 361.194 264.082C361.196 263.96 361.222 263.839 361.272 263.724C361.336 263.496 361.427 263.276 361.546 263.072C361.665 262.929 361.805 262.807 361.961 262.706C362.101 262.595 362.256 262.502 362.394 262.39C362.488 262.318 362.553 262.204 362.654 262.149C362.882 262.027 363.146 261.986 363.377 261.867C363.493 261.807 363.56 261.665 363.685 261.608C364.009 261.512 364.338 261.431 364.67 261.372C364.942 261.305 365.209 261.209 365.487 261.154C365.621 261.123 365.761 261.115 365.899 261.133C366.08 261.157 366.256 261.214 366.417 261.307C366.528 261.372 366.612 261.475 366.648 261.597C366.677 261.74 366.654 261.887 366.586 262.017C366.476 262.191 366.349 262.354 366.204 262.499C366.093 262.634 365.979 262.758 365.86 262.898C365.803 262.963 365.738 263.02 365.668 263.069C365.523 263.165 365.354 263.219 365.215 263.328C365.163 263.37 365.126 263.421 365.103 263.484C365.072 263.541 365.103 263.621 365.046 263.662C364.872 263.813 364.642 263.88 364.468 264.03C364.39 264.108 364.33 264.206 364.299 264.313C364.263 264.421 364.299 264.554 364.25 264.655C364.2 264.756 364.107 264.753 364.04 264.808C363.954 264.865 363.877 264.935 363.809 265.012C363.776 265.059 363.768 265.118 363.786 265.173C363.817 265.222 363.871 265.253 363.928 265.258C364.143 265.3 364.366 265.305 364.585 265.279C364.717 265.23 364.839 265.16 364.95 265.072C365.106 264.984 365.269 264.909 365.422 264.813C365.507 264.761 365.575 264.681 365.663 264.634C365.818 264.548 365.992 264.499 366.147 264.414C366.303 264.328 366.432 264.219 366.58 264.134C366.819 263.999 367.066 263.875 367.312 263.753C367.752 263.538 368.193 263.323 368.638 263.129C368.769 263.046 368.914 262.996 369.067 262.983C369.227 262.996 369.375 263.077 369.471 263.204C369.562 263.372 369.601 263.566 369.582 263.758C369.58 263.955 369.531 264.149 369.445 264.326L369.442 264.331ZM385.877 272.233C385.802 272.36 385.692 272.464 385.56 272.531C385.369 272.612 385.164 272.661 384.957 272.676C384.736 272.692 384.519 272.692 384.299 272.676C384.039 272.653 383.78 272.643 383.52 272.645C383.354 272.666 383.191 272.718 383.041 272.793C382.901 272.858 382.774 272.943 382.663 273.052C382.556 273.176 382.468 273.319 382.403 273.469C382.346 273.599 382.305 273.734 382.279 273.871C382.24 274.047 382.23 274.226 382.196 274.389C382.194 274.431 382.181 274.472 382.157 274.506C382.074 274.576 381.989 274.638 381.898 274.697C381.771 274.788 381.652 274.887 381.538 274.993C381.389 275.138 381.278 275.332 381.128 275.467C380.954 275.599 380.768 275.713 380.573 275.812C380.381 275.923 380.182 276.021 379.99 276.133C379.799 276.244 379.679 276.338 379.511 276.418C379.343 276.498 379.158 276.54 378.992 276.612C378.826 276.685 378.707 276.757 378.559 276.817C378.476 276.848 378.388 276.874 378.3 276.889C378.142 276.923 377.981 276.952 377.821 276.972C377.784 276.985 377.748 276.985 377.712 276.972C377.626 276.91 377.551 276.835 377.486 276.752C377.422 276.672 377.388 276.563 377.318 276.493C377.208 276.369 377.058 276.293 376.952 276.156C376.923 276.097 376.931 276.024 376.972 275.972C377.053 275.887 377.149 275.819 377.255 275.773C377.453 275.672 377.668 275.609 377.867 275.514C377.961 275.477 378.049 275.426 378.126 275.358C378.181 275.311 378.176 275.216 378.233 275.169C378.29 275.122 378.367 275.13 378.432 275.104C378.541 275.07 378.647 275.024 378.746 274.964C378.945 274.822 379.129 274.661 379.295 274.485C379.41 274.35 379.511 274.205 379.596 274.05C379.656 273.962 379.7 273.866 379.731 273.765C379.765 273.671 379.765 273.57 379.731 273.477C379.656 273.379 379.56 273.301 379.449 273.252C379.308 273.169 379.155 273.112 378.997 273.083C378.805 273.07 378.613 273.088 378.427 273.14C378.209 273.189 378.015 273.316 377.797 273.363C377.58 273.41 377.39 273.363 377.187 273.402C377.128 273.402 377.081 273.474 377.022 273.482C376.933 273.495 376.845 273.49 376.762 273.461C376.638 273.42 376.524 273.348 376.436 273.252C376.314 273.091 376.221 272.91 376.159 272.718C376.143 272.679 376.154 272.635 376.179 272.601C376.278 272.529 376.382 272.461 376.488 272.402C376.617 272.301 376.747 272.184 376.866 272.078C376.996 271.946 377.138 271.829 377.297 271.731C377.471 271.679 377.65 271.64 377.831 271.617C378.09 271.549 378.328 271.461 378.577 271.378C378.826 271.295 379.095 271.205 379.355 271.096C379.511 271.036 379.656 270.953 379.788 270.855C379.884 270.772 379.964 270.671 380.021 270.557C380.096 270.414 380.161 270.269 380.213 270.116C380.265 269.984 380.306 269.85 380.337 269.712C380.402 269.414 380.426 269.109 380.493 268.813C380.547 268.572 380.641 268.339 380.7 268.096C380.731 268.005 380.744 267.909 380.736 267.813C380.713 267.673 380.659 267.538 380.576 267.422C380.503 267.334 380.405 267.269 380.296 267.233C380.148 267.178 379.99 267.16 379.832 267.173C379.563 267.22 379.295 267.287 379.036 267.38C378.784 267.448 378.538 267.528 378.297 267.624C378.08 267.717 377.878 267.849 377.665 267.958C377.541 268.033 377.409 268.098 377.274 268.155C377.06 268.23 376.827 268.235 376.623 268.329C376.363 268.448 376.128 268.642 375.871 268.782C375.69 268.881 375.49 268.94 375.306 269.041C375.067 269.166 374.836 269.306 374.616 269.461C374.528 269.526 374.489 269.642 374.404 269.72C374.23 269.844 374.043 269.953 373.852 270.049C373.593 270.192 373.292 270.308 373.02 270.446C372.853 270.534 372.726 270.705 372.54 270.744C372.353 270.782 372.281 270.596 372.12 270.567C371.959 270.539 371.861 270.614 371.739 270.588C371.659 270.575 371.589 270.523 371.55 270.451C371.501 270.293 371.48 270.129 371.488 269.964C371.488 269.803 371.527 269.642 371.527 269.484C371.527 269.373 371.48 269.267 371.48 269.158C371.477 269.114 371.496 269.075 371.529 269.046C371.617 269.005 371.721 269.028 371.809 268.995C371.9 268.961 371.98 268.907 372.05 268.839C372.164 268.725 372.218 268.557 372.343 268.456C372.457 268.393 372.579 268.344 372.703 268.308C372.835 268.251 372.962 268.184 373.082 268.101C373.163 268.018 373.235 267.932 373.305 267.842C373.362 267.798 373.419 267.756 373.479 267.717C373.559 267.658 373.634 267.593 373.707 267.523C373.761 267.474 373.805 267.417 373.839 267.352C373.893 267.243 373.927 267.126 373.945 267.007C373.958 266.823 373.95 266.639 373.927 266.455C373.901 266.212 373.852 265.971 373.805 265.733C373.74 265.414 373.67 265.095 373.59 264.782C373.536 264.58 373.45 264.383 373.409 264.178C373.357 263.945 373.326 263.709 373.318 263.471C373.344 262.968 373.416 262.47 373.536 261.981C373.644 261.662 373.844 261.382 373.976 261.074C374.033 260.937 374.041 260.779 374.108 260.649C374.145 260.587 374.202 260.538 374.269 260.512C374.471 260.424 374.689 260.377 374.896 260.307C375 260.258 375.112 260.219 375.223 260.19C375.293 260.183 375.366 260.201 375.426 260.24C375.472 260.284 375.506 260.338 375.524 260.4C375.596 260.6 375.638 260.815 375.711 261.017C375.78 261.139 375.837 261.268 375.884 261.4C375.889 261.569 375.879 261.735 375.848 261.9C375.832 262.16 375.814 262.419 375.804 262.66C375.814 262.857 375.809 263.056 375.788 263.253C375.77 263.351 375.677 263.421 375.638 263.512C375.609 263.59 375.591 263.67 375.589 263.753C375.576 264.105 375.589 264.458 375.589 264.81C375.589 265.163 375.589 265.525 375.604 265.883C375.607 265.992 375.633 266.1 375.677 266.199C375.729 266.287 375.799 266.36 375.882 266.417C375.975 266.489 376.081 266.538 376.198 266.559C376.353 266.572 376.509 266.556 376.659 266.512C376.869 266.455 377.073 266.383 377.276 266.303C377.58 266.189 377.865 266.028 378.173 265.945C378.414 265.883 378.67 265.911 378.914 265.87C379.088 265.841 379.251 265.764 379.433 265.735C379.69 265.694 379.949 265.665 380.211 265.65C380.612 265.624 381.016 265.621 381.418 265.6C381.821 265.58 382.274 265.556 382.714 265.536C383.098 265.486 383.487 265.473 383.874 265.492C384.138 265.541 384.392 265.642 384.617 265.787C384.77 265.872 384.9 265.994 385.001 266.137C385.034 266.196 385.034 266.271 385.001 266.331C384.92 266.453 384.817 266.556 384.692 266.634C384.506 266.761 384.273 266.813 384.091 266.948C383.949 267.054 383.887 267.256 383.736 267.349C383.585 267.443 383.349 267.422 383.181 267.515C383.025 267.621 382.88 267.748 382.753 267.888C382.494 268.114 382.258 268.342 382.015 268.575C381.942 268.629 381.88 268.697 381.831 268.774C381.81 268.85 381.802 268.927 381.81 269.005C381.782 269.202 381.782 269.399 381.81 269.596C381.872 269.73 381.96 269.852 382.069 269.956C382.15 270.075 382.243 270.186 382.346 270.288C382.461 270.391 382.593 270.477 382.735 270.534C382.901 270.593 383.077 270.632 383.253 270.645C383.383 270.645 383.512 270.614 383.64 270.614C383.879 270.604 384.117 270.609 384.353 270.635C384.617 270.681 384.876 270.744 385.13 270.826C385.314 270.85 385.49 270.912 385.648 271.008C385.771 271.15 385.862 271.319 385.909 271.5C385.96 271.617 385.991 271.741 385.994 271.868C385.989 271.995 385.947 272.119 385.88 272.228L385.877 272.233ZM392.674 271.236C392.661 271.466 392.638 271.7 392.602 271.928C392.532 272.109 392.443 272.28 392.342 272.446C392.239 272.658 392.124 272.868 392.036 273.091C391.929 273.35 391.854 273.63 391.777 273.902C391.745 274.057 391.704 274.208 391.65 274.355C391.608 274.431 391.546 274.49 391.468 274.526C391.336 274.596 391.178 274.607 391.041 274.672C390.849 274.76 390.701 274.962 390.489 274.985C390.349 274.998 390.23 274.858 390.126 274.765C389.887 274.565 389.674 274.335 389.49 274.083C389.436 273.972 389.418 273.845 389.436 273.723C389.436 273.348 389.493 272.972 389.516 272.596C389.55 272.078 389.584 271.542 389.612 271.013C389.633 270.619 389.654 270.236 389.659 269.831C389.664 269.427 389.609 269.07 389.641 268.691C389.669 268.513 389.723 268.336 389.804 268.173C389.884 268.002 389.978 267.836 390.085 267.678C390.139 267.567 390.214 267.466 390.302 267.38C390.364 267.336 390.44 267.318 390.515 267.331C390.624 267.362 390.73 267.401 390.833 267.448C390.981 267.469 391.126 267.502 391.269 267.549C391.352 267.598 391.419 267.673 391.46 267.761C391.517 267.87 391.517 268.005 391.569 268.119C391.621 268.233 391.712 268.318 391.764 268.427C391.815 268.536 391.841 268.686 391.893 268.808C391.971 269.028 392.064 269.243 392.174 269.451C392.254 269.549 392.34 269.645 392.433 269.733C392.511 269.819 392.573 269.92 392.612 270.028C392.659 270.205 392.612 270.396 392.653 270.575C392.703 270.71 392.744 270.847 392.78 270.987C392.778 271.062 392.692 271.14 392.677 271.231L392.674 271.236ZM395.784 263.38C395.756 263.517 395.699 263.647 395.616 263.761C395.476 263.908 395.256 263.96 395.098 264.103C394.94 264.245 395.03 264.3 394.932 264.421C394.87 264.471 394.805 264.515 394.738 264.556C394.668 264.637 394.592 264.712 394.515 264.784C394.401 264.865 394.255 264.885 394.138 264.968C394.021 265.051 393.913 265.227 393.783 265.333C393.679 265.414 393.568 265.481 393.449 265.536C393.174 265.676 392.876 265.774 392.612 265.935C392.482 266.015 392.418 266.181 392.283 266.248C392.187 266.277 392.085 266.277 391.989 266.248C391.94 266.248 391.893 266.227 391.859 266.194C391.823 266.129 391.802 266.056 391.8 265.984C391.782 265.865 391.8 265.745 391.777 265.626C391.753 265.507 391.727 265.354 391.709 265.214C391.694 265.16 391.694 265.106 391.709 265.051C391.779 264.927 391.867 264.813 391.968 264.712C392.138 264.533 392.35 264.393 392.511 264.206C392.71 263.937 392.884 263.649 393.029 263.346C393.127 263.196 393.19 263.025 393.216 262.846C393.252 262.61 393.042 262.507 392.933 262.328C392.866 262.224 392.814 262.11 392.778 261.991C392.731 261.833 392.7 261.672 392.687 261.509C392.664 261.354 392.671 261.198 392.703 261.045C392.728 260.95 392.793 260.869 392.879 260.823C393.003 260.776 393.133 260.758 393.265 260.768C393.495 260.758 393.729 260.768 393.959 260.794C394.122 260.807 394.282 260.854 394.427 260.931C394.595 261.032 394.686 261.222 394.854 261.341C395.152 261.569 395.354 261.507 395.569 261.859C395.647 262.033 395.714 262.214 395.766 262.398C395.818 262.525 395.927 262.641 395.927 262.781C395.911 262.986 395.865 263.186 395.787 263.375L395.784 263.38ZM407.771 273.614C407.737 273.778 407.722 273.943 407.699 274.107C407.704 274.215 407.691 274.322 407.66 274.425C407.634 274.482 407.525 274.462 407.499 274.516C407.473 274.57 407.515 274.7 407.499 274.775C407.452 274.91 407.38 275.032 407.284 275.138C407.186 275.223 407.077 275.293 406.959 275.348C406.905 275.376 406.827 275.366 406.791 275.413C406.713 275.514 406.713 275.672 406.635 275.765C406.563 275.866 406.467 275.949 406.355 276.006C406.249 276.06 406.117 276.047 406.006 276.094C405.894 276.141 405.801 276.236 405.69 276.281C405.472 276.366 405.239 276.407 405.018 276.488C404.883 276.566 404.74 276.63 404.595 276.685C404.375 276.705 404.155 276.7 403.937 276.667C403.546 276.628 403.16 276.573 402.773 276.506C402.415 276.449 402.063 276.374 401.716 276.278C401.545 276.231 401.381 276.156 401.231 276.06C401.06 275.928 400.897 275.786 400.744 275.633C400.582 275.498 400.432 275.353 400.287 275.203C400.194 275.099 400.157 274.944 400.064 274.848C399.971 274.752 399.896 274.757 399.833 274.687C399.732 274.57 399.688 274.428 399.59 274.298C399.543 274.247 399.455 274.244 399.411 274.19C399.331 274.086 399.315 273.93 399.23 273.84C399.144 273.749 398.94 273.643 398.833 273.508C398.727 273.373 398.683 273.182 398.574 273.037C398.538 272.982 398.483 272.941 398.423 272.915C398.249 272.845 398.055 272.832 397.887 272.752C397.646 272.632 397.415 272.487 397.203 272.324C397.037 272.207 396.894 272.062 396.775 271.899C396.739 271.816 396.739 271.723 396.775 271.64C396.806 271.544 396.858 271.456 396.925 271.381C397.039 271.246 397.184 271.148 397.304 271.01C397.381 270.915 397.389 270.767 397.485 270.689C397.581 270.611 397.7 270.668 397.796 270.622C397.946 270.544 398.089 270.453 398.223 270.347C398.327 270.288 398.42 270.21 398.498 270.119C398.556 270.041 398.577 269.943 398.559 269.847C398.532 269.754 398.426 269.702 398.361 269.629C398.185 269.461 398.024 269.28 397.874 269.088C397.762 268.917 397.677 268.73 397.615 268.536C397.583 268.466 397.57 268.388 397.581 268.311C397.596 268.259 397.633 268.215 397.679 268.191C397.887 268.07 398.104 267.966 398.33 267.878C398.551 267.795 398.784 267.754 399.012 267.689C399.056 267.689 399.168 267.689 399.147 267.642C399.103 267.546 398.968 267.523 398.888 267.443C398.846 267.393 398.818 267.336 398.8 267.274C398.732 267.054 398.696 266.823 398.629 266.603C398.561 266.448 398.501 266.287 398.451 266.124C398.428 266.018 398.436 265.906 398.475 265.802C398.52 265.707 398.592 265.626 398.683 265.572C398.924 265.429 399.201 265.341 399.46 265.222C399.727 265.113 399.986 264.989 400.238 264.846C400.427 264.738 400.59 264.59 400.721 264.414C400.788 264.269 400.824 264.108 400.827 263.947C400.863 263.655 400.86 263.442 400.871 263.149C400.886 262.724 400.726 262.657 400.284 262.753C399.963 262.825 399.647 262.916 399.336 263.028C399.022 263.136 398.717 263.263 398.402 263.37C398.299 263.406 398.192 263.484 398.083 263.46C397.975 263.437 397.928 263.3 397.824 263.245C397.684 263.167 397.516 263.147 397.376 263.072C397.327 263.046 397.288 263.002 397.27 262.947C397.226 262.815 397.21 262.675 397.218 262.535C397.234 262.406 397.327 262.299 397.353 262.172C397.379 262.046 397.33 261.97 397.353 261.875C397.384 261.797 397.433 261.727 397.495 261.67C397.573 261.592 397.682 261.548 397.754 261.465C397.796 261.398 397.832 261.328 397.863 261.253C397.907 261.152 397.964 261.056 398.034 260.97C398.218 260.781 398.444 260.633 398.639 260.452C398.745 260.32 398.862 260.196 398.986 260.082C399.188 259.952 399.406 259.848 399.634 259.768C399.789 259.701 399.953 259.651 400.121 259.628C400.175 259.628 400.23 259.657 400.258 259.703C400.357 259.869 400.442 260.043 400.517 260.221C400.572 260.38 400.651 260.53 400.749 260.667C400.86 260.779 400.998 260.861 401.151 260.905C401.293 260.95 401.451 260.905 401.599 260.926C401.747 260.947 401.881 261.076 402.039 261.1C402.267 261.118 402.495 261.11 402.721 261.079C402.981 261.058 403.214 260.986 403.463 260.968C403.75 260.926 404.043 260.918 404.333 260.95C404.533 261.014 404.725 261.102 404.903 261.209C405.065 261.276 405.241 261.312 405.397 261.39C405.49 261.431 405.57 261.496 405.635 261.574C405.69 261.644 405.723 261.729 405.728 261.818C405.728 262.058 405.674 262.299 405.653 262.54C405.653 262.673 405.645 262.805 405.625 262.937C405.601 263.012 405.557 263.077 405.495 263.123C405.371 263.201 405.241 263.271 405.109 263.331C404.946 263.419 404.784 263.52 404.634 263.629C404.533 263.706 404.473 263.831 404.375 263.903C404.32 263.929 404.261 263.942 404.201 263.94C403.989 263.96 403.779 263.976 403.566 263.989C403.395 263.989 403.224 263.989 403.048 264.007C402.857 264.025 402.666 264.059 402.48 264.105C402.327 264.157 402.177 264.217 402.029 264.284C401.959 264.313 401.892 264.341 401.822 264.364C401.752 264.388 401.69 264.364 401.646 264.416C401.563 264.497 401.5 264.592 401.462 264.701C401.399 264.867 401.363 265.043 401.353 265.22C401.353 265.378 401.371 265.533 401.402 265.688C401.433 265.836 401.459 265.989 401.475 266.139C401.48 266.186 401.459 266.233 401.42 266.259C401.324 266.31 401.202 266.29 401.101 266.334C401 266.378 400.972 266.448 400.899 266.489C400.741 266.577 400.561 266.629 400.406 266.725C400.359 266.753 400.326 266.8 400.313 266.854C400.302 266.917 400.318 266.979 400.357 267.028C400.463 267.129 400.582 267.217 400.713 267.287C400.837 267.375 400.969 267.45 401.107 267.515C401.314 267.606 401.529 267.676 401.749 267.72C402.029 267.774 402.324 267.738 402.607 267.8C402.779 267.842 402.939 267.914 403.085 268.01C403.193 268.072 403.281 268.16 403.344 268.269C403.398 268.365 403.414 268.479 403.388 268.585C403.315 268.795 403.214 268.992 403.085 269.171C403.025 269.298 402.934 269.407 402.825 269.495C402.718 269.557 402.565 269.495 402.459 269.534C402.34 269.554 402.226 269.593 402.12 269.648C402.058 269.684 402.039 269.775 401.977 269.806C401.915 269.837 401.778 269.806 401.703 269.86C401.581 269.948 401.539 270.119 401.418 270.205C401.247 270.293 401.065 270.36 400.879 270.409C400.721 270.466 400.556 270.513 400.403 270.578C400.271 270.619 400.15 270.684 400.038 270.767C399.927 270.865 399.893 271.026 399.779 271.14C399.732 271.187 399.639 271.163 399.595 271.213C399.504 271.301 399.445 271.417 399.424 271.544C399.427 271.707 399.468 271.871 399.548 272.013C399.637 272.202 399.753 272.376 399.89 272.531C400.056 272.72 400.297 272.837 400.448 273.05C400.567 273.21 400.549 273.449 400.674 273.601C400.798 273.754 400.993 273.772 401.133 273.886C401.329 274.047 401.464 274.278 401.674 274.423C401.788 274.5 401.933 274.477 402.073 274.532C402.257 274.646 402.449 274.749 402.648 274.837C402.877 274.887 403.113 274.9 403.346 274.879C403.67 274.866 403.991 274.832 404.31 274.778C404.489 274.752 404.662 274.697 404.828 274.622C405.005 274.529 405.171 274.418 405.324 274.288C405.399 274.234 405.464 274.169 405.521 274.096C405.596 273.998 405.656 273.889 405.702 273.775C405.752 273.62 405.791 273.461 405.816 273.301C405.889 272.967 405.923 272.622 406.019 272.293C406.044 272.189 406.104 272.099 406.19 272.034C406.368 271.943 406.557 271.873 406.754 271.827C406.858 271.783 406.969 271.751 407.082 271.738C407.144 271.738 407.201 271.77 407.237 271.819C407.364 271.995 407.434 272.205 407.546 272.394C407.657 272.583 407.779 272.713 407.862 272.889C407.901 272.969 407.919 273.06 407.911 273.148C407.885 273.288 407.807 273.446 407.774 273.609L407.771 273.614Z" fill="#004C8C"/>
    <path fill-rule="evenodd" clip-rule="evenodd" d="M336.328 492.469C335.118 492.469 334.146 493.013 333.412 494.104C332.679 495.195 332.306 496.822 332.298 498.988C332.28 500.695 332.635 502.387 333.335 503.947C334.027 505.466 335.282 506.225 337.101 506.225C338.008 506.207 338.898 505.968 339.693 505.528C340.582 505.061 341.088 504.67 341.21 504.351C341.298 503.901 341.342 503.442 341.34 502.983C341.376 502.206 341.397 501.553 341.397 501.063C341.397 498.519 340.964 496.446 340.1 494.845C339.237 493.244 337.98 492.451 336.328 492.469Z" fill="#004C8C"/>
    <path fill-rule="evenodd" clip-rule="evenodd" d="M345.657 122.305C222.394 122.305 121.859 222.792 121.859 345.997C121.859 469.202 222.394 569.689 345.657 569.689C468.919 569.689 569.454 469.202 569.454 345.997C569.454 222.792 468.929 122.305 345.657 122.305ZM248.484 402.468H231.117C233.836 404.763 239.396 408.124 245.526 408.769V415.843H242.128V419.309H239.863V430.969H242.281V434.596H239.863V446.277H242.253V450.122H239.863V461.846H242.315V465.942H239.863V477.687H242.346V480.877H233.556V485.162H219.34V331.816H248.484V402.468ZM280.853 403.582V485.16H266.736V480.877H258.143V477.685H260.317V465.94H258.052V461.843H260.317V450.119H258.114V446.274H260.317V434.594H258.049V430.966H260.317V419.307H258.114V415.843H254.968V408.769C260.382 407.992 266.692 404.945 269.085 402.452L251.631 402.468V331.816H280.853V403.582ZM321.81 516.747H311.441V516.197C312.922 516.122 313.892 515.923 314.343 515.591C314.793 515.26 315.024 514.555 315.024 513.443V496.436C315.047 495.977 314.972 495.521 314.801 495.096C314.656 494.791 314.337 494.638 313.848 494.638C313.422 494.658 313.005 494.744 312.608 494.897C312.09 495.076 311.624 495.262 311.182 495.459V494.941L317.922 491.508H318.143C318.179 491.547 318.208 491.593 318.226 491.645C318.231 491.715 318.231 491.785 318.226 491.855V513.967C318.226 514.91 318.477 515.513 318.982 515.78C319.488 516.047 320.429 516.2 321.808 516.239L321.81 516.747ZM343.977 507.51C343.297 509.404 342.261 511.148 340.925 512.653C339.316 514.428 337.281 515.76 335.011 516.527C333.37 517.073 331.677 517.444 329.958 517.63L329.774 516.895C330.858 516.659 331.92 516.345 332.958 515.957C334.308 515.462 335.552 514.715 336.62 513.754C337.885 512.56 338.937 511.158 339.731 509.609C340.511 508.082 340.998 506.805 341.195 505.779L340.55 506.251C339.093 507.261 337.375 507.823 335.601 507.873C333.515 507.873 331.861 507.137 330.642 505.662C329.419 504.18 328.769 502.307 328.813 500.387C328.813 497.783 329.538 495.635 330.99 493.948C332.363 492.295 334.416 491.363 336.565 491.417C339.259 491.417 341.34 492.492 342.813 494.64C344.272 496.752 345.042 499.263 345.016 501.83C345.008 503.768 344.658 505.691 343.985 507.51H343.977ZM364.196 516.747H349.513V516.324C354.006 511.676 357.052 508.264 358.647 506.085C360.24 503.906 361.044 501.784 361.055 499.719C361.055 497.908 360.565 496.527 359.584 495.573C358.654 494.645 357.389 494.132 356.074 494.151C354.504 494.101 353 494.778 351.995 495.985C351.419 496.659 350.867 497.695 350.341 499.094L349.563 498.931C350.172 496.115 351.209 494.158 352.674 493.065C354.019 492.013 355.678 491.435 357.386 491.422C359.46 491.422 361.135 492.073 362.412 493.376C363.675 494.643 364.367 496.369 364.331 498.156C364.331 500.164 363.639 502.097 362.257 503.955C360.876 505.813 357.866 509.121 353.231 513.884H361.669C362.846 513.884 363.672 513.744 364.149 513.461C364.626 513.179 365.166 512.495 365.767 511.407L366.246 511.624L364.196 516.747ZM385.312 511.018C383.878 515.07 381.398 517.097 377.87 517.097C375.452 517.097 373.464 516.001 371.908 513.809C370.244 511.471 369.412 508.295 369.412 504.279C369.412 501.12 369.969 498.402 371.083 496.125C372.59 493.026 374.904 491.477 378.028 491.477C380.843 491.477 383.031 492.954 384.589 495.905C385.825 498.291 386.443 501.035 386.445 504.131C386.464 506.473 386.083 508.803 385.315 511.018H385.312ZM439.459 402.429H422.09C424.81 404.725 430.37 408.085 436.501 408.73V415.791H433.103V419.258H430.837V430.917H433.258V434.544H430.837V446.225H433.23V450.07H430.837V461.794H433.292V465.891H430.837V477.636H433.321V480.83H424.541V485.116H410.317V331.777H439.462L439.459 402.429ZM471.828 403.543V485.124H457.71V480.838H449.117V477.643H451.302V465.898H449.037V461.802H451.302V450.078H449.099V446.233H451.302V434.552H449.034V430.925H451.302V419.265H449.099V415.791H445.953V408.73C451.367 407.953 457.679 404.906 460.072 402.413L442.616 402.429V331.777H471.841L471.828 403.543ZM477.79 327.209H410.605C389.462 317.734 368.16 313.962 347.551 313.635C324.559 313.311 301.765 317.941 280.724 327.209H213.398V227.15H477.783L477.79 327.209ZM483.446 220.374H207.825V210.163H483.446V220.374Z" fill="#004C8C"/>
    <path fill-rule="evenodd" clip-rule="evenodd" d="M377.944 492.469C375.86 492.469 374.431 494.169 373.662 497.571C373.257 499.382 373.055 501.766 373.055 504.727C373.055 507.505 373.263 509.725 373.68 511.389C374.465 514.498 375.932 516.052 378.086 516.052C379.888 516.052 381.128 515.068 381.799 513.099C382.47 511.129 382.807 508.279 382.807 504.548C382.807 501.576 382.605 499.203 382.203 497.431C381.449 494.125 380.031 492.472 377.944 492.469Z" fill="#004C8C"/>
    <path fill-rule="evenodd" clip-rule="evenodd" d="M333.599 272.141C333.438 272.087 333.273 272.045 333.104 272.022C332.907 271.973 332.705 271.942 332.503 271.926C332.337 271.923 332.171 271.944 332.011 271.98C331.853 272.014 331.699 272.066 331.554 272.133C331.442 272.18 331.352 272.265 331.245 272.32C331.069 272.39 330.896 272.47 330.727 272.558C330.636 272.618 330.561 272.698 330.504 272.789C330.38 272.988 330.269 273.196 330.173 273.411C330.103 273.571 330.043 273.737 329.996 273.908C329.981 273.955 329.981 274.004 329.996 274.048C330.056 274.144 330.129 274.232 330.214 274.307C330.323 274.419 330.45 274.514 330.587 274.59C330.738 274.667 330.903 274.711 331.072 274.724C331.227 274.73 331.38 274.706 331.528 274.657C331.824 274.577 332.112 274.468 332.399 274.362C332.568 274.307 332.728 274.237 332.881 274.149C333.109 273.994 333.322 273.82 333.521 273.631C333.708 273.478 333.876 273.304 334.022 273.113C334.072 273.027 334.087 272.926 334.072 272.828C334.069 272.67 334.028 272.514 333.949 272.377C333.856 272.268 333.736 272.185 333.599 272.141Z" fill="#004C8C"/>
    </svg>
    