<svg xmlns="http://www.w3.org/2000/svg" xmlns:xlink="http://www.w3.org/1999/xlink" width="314.277587890625" height="314.9073791503906" viewBox="0 0 314.277587890625 314.9073791503906" fill="none">
<path d="M267.54 269.83C244.189 292.811 216.485 307.075 184.824 312.623C172.951 314.604 160.682 315.396 147.622 314.604C141.685 314.207 135.749 313.415 129.812 312.623C93.0056 305.887 62.5314 288.849 38.3895 260.717C34.4319 256.358 30.8699 251.604 27.308 246.453C9.10268 219.906 0 189.792 0 156.509C0 130.755 5.93653 106.189 17.8096 83.6038C30.4742 59.8302 47.888 40.4151 70.051 25.7547C92.2141 11.0943 117.147 2.37736 144.456 0.396226C147.226 0 152.371 0 159.495 0C165.035 0 170.18 0.396226 174.138 0.792453C211.34 4.75472 243.398 20.6038 269.914 47.5472C286.932 64.9811 299.201 85.1887 306.721 108.17C311.866 124.415 314.636 142.245 314.24 160.868C313.844 172.358 313.053 182.66 310.678 191.774C303.95 222.283 289.703 248.038 267.54 269.83ZM311.074 157.302C311.074 72.1132 242.21 3.16981 157.12 3.16981C72.0299 3.16981 3.16615 72.1132 3.16615 157.302C3.16615 242.491 72.0299 311.434 157.12 311.434C242.21 311.83 311.074 242.491 311.074 157.302Z" fill-rule="evenodd"  fill="#004898" >
</path>
<path d="M308.304 157.302C308.304 240.906 240.627 308.66 157.12 308.66C73.6129 308.66 5.93652 240.906 5.93652 157.302C5.93652 73.6981 73.6129 5.94339 157.12 5.94339C240.627 5.94339 308.304 73.6981 308.304 157.302ZM265.561 157.302C265.561 97.0755 216.881 48.3396 156.724 48.3396C96.5675 48.3396 47.888 97.0755 47.888 157.302C47.888 217.528 96.5675 266.264 156.724 266.264C216.881 265.868 265.561 217.132 265.561 157.302Z" fill-rule="evenodd"  fill="#004898" >
</path>
<path d="M159.495 19.8113C160.682 19.8113 162.265 19.8113 163.452 19.8113C164.244 19.8113 165.035 19.8113 165.431 20.2075C166.619 21 166.223 22.1887 164.64 22.9811C162.265 24.566 162.265 25.3585 164.244 26.1509C165.035 26.5471 165.431 26.5471 165.827 26.9434C166.223 27.7358 166.223 28.1321 165.035 28.9245C164.64 28.9245 164.244 29.3207 163.452 29.3207C161.869 29.717 160.682 30.1132 159.495 30.9056C159.099 30.9056 159.099 31.3019 159.099 31.6981C158.307 33.283 157.12 34.4717 155.141 35.6604C153.954 36.4528 153.558 36.4528 153.954 34.8679L155.537 31.3019C155.537 30.9056 155.537 30.9056 155.141 30.9056C152.767 30.1132 151.975 29.3207 153.162 28.1321C154.35 27.7358 154.745 27.3396 155.141 27.3396C157.12 26.5471 157.912 25.7547 157.912 24.566C157.912 24.1698 157.912 24.1698 157.516 24.1698C156.329 24.1698 155.537 24.566 154.745 25.3585C154.745 25.7547 154.35 26.1509 154.35 26.1509C153.558 27.3396 152.767 28.5283 151.975 29.717C151.975 30.1132 151.579 30.1132 151.184 30.1132C149.6 29.717 149.205 28.9245 149.996 27.3396C150.392 26.9434 150.392 26.5471 150.788 26.5471C152.371 24.1698 153.954 21.3962 155.537 19.0188C156.329 17.8302 156.329 17.4339 154.745 17.8302C152.767 18.6226 151.579 18.2264 150.788 17.4339C149.996 16.6415 149.996 15.4528 150.788 14.6604C151.579 13.8679 152.767 13.4717 153.954 13.4717C156.329 13.4717 159.099 13.4717 162.265 12.6792C163.452 12.6792 164.64 12.283 165.035 12.6792C166.223 13.0755 167.014 13.8679 166.619 15.4528C166.619 15.8491 166.223 16.6415 165.431 16.6415C162.661 16.6415 160.286 17.8302 159.099 19.8113C159.099 19.8113 159.099 19.8113 159.495 19.8113ZM151.579 28.1321C151.579 28.1321 152.371 27.7358 152.767 26.5471C153.162 25.7547 153.558 24.9622 153.558 24.9622C153.558 24.9622 152.767 25.3585 152.371 26.5471C151.579 27.3396 151.184 28.1321 151.579 28.1321Z" fill-rule="evenodd"  fill="#FFFFFF" >
</path>
<path d="M147.226 36.849C147.622 37.2453 148.017 37.6415 148.809 37.6415C154.746 37.6415 161.078 37.6415 167.806 37.2453C168.597 37.2453 168.993 37.6415 168.993 38.0377C169.389 39.2264 168.993 40.0188 168.202 40.4151C167.806 40.8113 167.014 41.2075 165.827 41.2075C162.661 41.6038 159.099 42 155.933 42.3962C153.954 42.3962 152.371 42.3962 150.392 42.3962C148.413 42 146.434 41.6038 145.643 40.4151C144.456 39.2264 143.664 38.0377 143.664 36.0566C143.664 34.0755 143.664 33.283 143.664 33.283C143.268 29.3207 143.664 25.7547 145.247 22.1887C145.247 21.7924 145.643 21.7924 146.039 21.7924C147.622 21.3962 148.017 22.1887 147.622 23.7736C146.83 27.3396 146.434 30.9056 146.434 34.4717C146.434 34.8679 146.434 35.2641 146.434 35.6604C146.83 36.0566 147.226 36.4528 147.226 36.849Z" fill-rule="evenodd"  fill="#FFFFFF" >
</path>
<path d="M151.579 28.1321C151.579 28.1321 151.579 27.3396 152.371 26.5472C152.767 25.7547 153.558 24.9623 153.558 24.9623C153.558 24.9623 153.558 25.7547 152.767 26.5472C151.975 27.7359 151.579 28.5283 151.579 28.1321Z" fill-rule="evenodd"  fill="#030000" >
</path>
<path d="M100.921 37.6415C99.3379 38.434 98.5464 39.6226 98.9422 41.6038C99.3379 44.3773 99.7337 46.3585 99.7337 47.5472C99.7337 47.9434 99.7337 47.9434 99.3379 48.3396C98.5464 48.7358 98.1506 49.1321 97.3591 49.1321C96.1718 49.1321 95.776 49.1321 95.3802 49.1321C93.7972 49.5283 92.6099 49.9245 91.4226 50.3207C91.0268 50.3207 91.0268 50.717 91.0268 51.1132C91.8183 53.0943 92.6099 54.283 93.0056 55.0755C94.5887 57.0566 94.5887 59.434 93.4014 61.4151C93.0056 62.2075 92.2141 62.6038 91.4226 63C90.2352 63.3962 89.4437 63 88.6522 61.8113C88.2564 61.4151 88.2564 60.6226 88.2564 59.434C88.2564 58.6415 87.8606 57.849 87.4649 57.0566C87.4649 57.0566 87.0691 56.6604 87.0691 57.0566C85.8818 58.2453 84.6945 58.6415 83.903 57.849C83.5072 57.4528 83.1114 56.6604 82.3199 55.8679C81.5284 54.6792 81.9241 53.4906 83.1114 52.3019C83.5072 51.9056 84.2987 51.9056 84.6945 52.6981C85.486 54.283 86.2776 54.283 87.0691 52.3019C87.4649 51.5094 87.0691 50.717 86.6733 49.9245C83.903 46.7547 82.7157 42.7924 83.1114 38.0377C83.5072 35.2641 84.6945 34.8679 86.6733 37.2453C87.4649 38.434 87.8606 39.2264 87.0691 40.4151C85.8818 42.7924 86.2776 44.7736 87.8606 47.1509C87.8606 47.5472 88.2564 47.1509 88.2564 47.1509L89.4437 42.3962C89.4437 42 89.4437 41.6038 89.4437 41.6038C89.0479 40.4151 89.4437 39.2264 90.2352 38.8302C92.2141 37.6415 93.4014 38.434 93.7972 41.2075C93.7972 41.2075 93.7972 41.2075 94.1929 41.2075C94.9845 40.8113 95.776 40.0189 96.1718 39.2264C96.1718 38.8302 96.5675 38.8302 96.1718 38.434L93.0056 26.9434C93.0056 26.5472 93.0056 26.5472 93.4014 26.1509C94.5887 25.3585 95.776 25.7547 96.5675 26.9434C98.5464 29.3208 100.129 31.3019 100.921 32.4906C100.921 32.8868 101.317 32.8868 101.713 32.8868C102.504 32.8868 103.296 33.283 103.691 33.6792C104.879 34.0755 104.879 34.8679 104.483 35.2641C104.087 35.6604 104.087 36.4528 104.483 37.2453C107.253 40.8113 109.232 44.7736 110.815 48.7358C111.211 49.9245 111.211 50.717 110.815 51.5094C110.815 52.3019 110.419 52.3019 110.024 51.5094L102.504 40.0189C102.108 39.6226 101.317 39.2264 100.921 39.6226C99.7337 40.4151 99.3379 40.0189 99.3379 39.6226C99.3379 39.6226 99.3379 39.2264 99.7337 38.8302C99.7337 38.434 100.129 38.434 100.129 38.0377C101.317 37.6415 100.921 37.6415 100.921 37.6415ZM96.9633 33.283C96.9633 34.0755 96.9633 35.2641 97.3591 36.4528C97.7549 37.6415 98.1506 38.0377 98.5464 37.2453C98.9422 36.4528 98.9422 36.0566 98.9422 35.6604C98.9422 34.4717 98.5464 33.6792 97.3591 32.8868C96.9633 32.4906 96.9633 32.8868 96.9633 33.283ZM96.9633 45.9623C97.7549 46.3585 97.7549 45.9623 97.7549 45.1698L97.7549 43.1887C97.7549 42.7924 97.3591 42.7924 97.3591 42.7924C95.3802 43.9811 95.3802 45.1698 96.9633 45.9623ZM90.631 45.566C89.8395 47.1509 90.2352 47.5472 91.4226 45.9623C91.4226 45.566 91.8183 45.566 91.4226 45.1698C91.4226 44.3773 91.0268 44.3773 90.631 45.566ZM89.0479 53.4906C88.6522 55.4717 89.4437 57.4528 90.631 59.0377C91.0268 59.434 91.4226 59.434 91.4226 59.0377C91.4226 59.0377 91.8183 58.6415 91.8183 58.2453C91.8183 56.2641 91.0268 54.6792 89.0479 53.4906C89.4437 53.0943 89.4437 53.0943 89.0479 53.4906Z" fill-rule="evenodd"  fill="#FFFFFF" >
</path>
<path d="M220.839 34.8679C222.818 36.0566 225.192 37.2453 227.171 38.8302C229.15 40.0189 230.337 40.8113 230.733 41.2075C233.108 43.5849 232.712 45.1698 228.754 46.3585C227.963 46.7547 227.567 46.7547 227.171 46.3585C226.38 45.9623 225.984 45.1698 226.775 44.3774C226.775 43.9811 227.171 43.9811 227.567 43.9811C227.963 43.9811 227.963 43.9811 228.358 43.5849C228.358 43.5849 228.358 43.1887 228.358 42.7924C223.213 38.8302 217.673 36.0566 211.736 34.4717C211.34 34.4717 211.34 34.4717 211.34 34.8679C210.945 36.0566 210.153 36.8491 208.966 36.4528C208.57 36.4528 208.57 36.0566 208.57 36.0566C208.174 34.0755 208.57 32.8868 209.757 31.6981C209.757 31.6981 210.945 31.3019 212.528 30.9057C213.715 30.5094 214.507 30.1132 214.902 28.9245C215.694 27.7358 216.09 26.9434 216.485 26.9434C217.277 26.5472 218.068 26.5472 218.86 26.9434C219.256 26.9434 219.256 27.3396 219.652 27.3396C220.443 28.5283 221.63 28.9245 222.818 29.3208C224.401 29.717 225.588 30.1132 225.984 30.1132C229.15 31.6981 230.733 32.4906 231.525 32.8868C233.108 34.0755 233.899 35.2641 234.691 37.2453C235.087 38.0377 234.295 38.8302 233.503 39.2264C232.316 39.2264 231.525 39.2264 230.337 38.434C226.775 36.8491 224.005 35.6604 220.839 34.8679C220.443 34.8679 220.443 34.8679 220.839 34.8679ZM220.047 30.9057C219.256 30.9057 218.86 31.3019 218.86 32.0943C218.86 32.4906 219.256 32.4906 219.256 32.8868C221.235 33.6792 221.63 33.283 220.443 31.6981C220.443 31.3019 220.047 30.9057 220.047 30.9057ZM229.942 36.0566C229.942 35.6604 229.942 35.2641 229.546 34.8679L226.775 33.6792C226.38 33.6792 225.984 33.6792 225.588 34.0755C225.588 34.4717 225.588 34.8679 225.984 35.2641L228.754 36.4528C229.15 36.8491 229.942 36.4528 229.942 36.0566Z" fill-rule="evenodd"  fill="#FFFFFF" >
</path>
<path d="M220.443 31.3019C221.63 32.8868 221.235 33.283 219.256 32.4906C218.86 32.4906 218.86 32.0943 218.86 31.6981C218.86 30.9057 219.256 30.5094 220.047 30.5094C220.047 30.9057 220.443 31.3019 220.443 31.3019Z" fill-rule="evenodd"  fill="#030000" >
</path>
<path d="M160.682 32.4906C160.682 32.4906 160.682 32.0943 160.682 32.4906C160.682 32.0943 160.682 32.0943 160.682 32.0943C161.474 31.6981 162.661 31.3019 163.848 31.3019C164.244 31.3019 164.244 31.3019 164.64 31.6981C166.619 33.6792 165.827 34.8679 163.057 35.6604C162.661 35.6604 162.661 35.6604 162.265 35.2642L160.682 32.4906C161.078 32.4906 161.078 32.4906 160.682 32.4906Z" fill-rule="evenodd"  fill="#FFFFFF" >
</path>
<path d="M96.9633 33.283C96.9633 32.8868 96.9633 32.8868 97.359 32.8868C98.5463 33.6792 98.9421 34.8679 98.9421 35.6604C98.9421 36.0566 98.9421 36.4528 98.5463 36.4528C98.1506 37.2453 97.7548 37.2453 97.359 35.6604C96.9633 35.2641 96.9633 34.0755 96.9633 33.283Z" fill-rule="evenodd"  fill="#030000" >
</path>
<path d="M229.942 36.0566C229.942 36.4528 229.15 36.8491 228.754 36.4528L226.38 35.6604C225.984 35.6604 225.588 34.8679 225.984 34.4717C225.984 34.0755 226.775 33.6792 227.171 34.0755L229.546 34.8679C229.942 35.2642 230.337 35.6604 229.942 36.0566Z" fill-rule="evenodd"  fill="#030000" >
</path>
<path d="M220.047 46.7547C219.652 47.1509 219.256 47.5472 219.652 48.3396C220.443 49.5283 220.047 50.3207 218.464 50.3207C218.068 50.3207 217.277 50.717 216.485 51.1132L212.923 53.0943C212.528 53.4906 212.132 53.4906 212.132 53.4906C210.549 54.6792 209.362 55.0755 207.383 54.283C206.987 54.283 206.987 53.8868 206.987 53.4906C206.591 52.3019 206.591 51.1132 207.778 51.1132C208.174 51.1132 208.57 51.1132 210.153 51.5094C211.34 51.5094 212.528 51.1132 213.319 49.9245C214.111 48.7358 214.111 48.3396 212.528 48.3396C209.757 48.3396 207.383 47.1509 205.404 45.1698C204.612 44.3773 204.612 43.5849 205.8 43.1887C206.987 42.7924 208.174 42.7924 208.966 43.1887C209.362 43.5849 211.34 44.3773 213.715 45.1698C214.111 45.1698 214.111 45.1698 214.507 45.1698C214.902 45.1698 214.902 44.7736 214.507 44.3773C214.111 43.5849 213.319 43.1887 212.132 42.7924C210.945 42.3962 210.945 41.6038 211.34 40.8113C212.528 38.8302 214.111 38.0377 216.09 39.2264C217.277 40.0189 218.068 40.4151 218.068 40.4151C219.256 40.8113 220.443 41.6038 221.235 42.3962C223.213 43.5849 222.818 44.7736 220.839 46.3585L220.047 46.7547Z" fill-rule="evenodd"  fill="#FFFFFF" >
</path>
<path d="M96.9633 45.9623C95.3802 45.1698 95.3802 43.9811 97.359 43.1887C97.7548 43.1887 97.7548 43.1887 97.7548 43.5849L97.7548 45.566C97.7548 45.9623 97.7548 46.3585 96.9633 45.9623Z" fill-rule="evenodd"  fill="#030000" >
</path>
<path d="M90.631 45.566C91.0268 44.3774 91.4225 44.3774 91.8183 45.1698C91.8183 45.566 91.8183 45.566 91.8183 45.9623C90.2352 47.5472 89.8395 47.1509 90.631 45.566Z" fill-rule="evenodd"  fill="#030000" >
</path>
<path d="M89.4437 53.4906C90.631 54.6792 91.4225 56.2641 91.8183 58.2453C91.8183 58.6415 91.8183 59.0377 91.4225 59.0377C91.0268 59.434 90.631 59.434 90.631 59.0377C89.4437 57.4528 89.0479 55.4717 89.4437 53.4906C89.4437 53.0943 89.4437 53.0943 89.4437 53.4906Z" fill-rule="evenodd"  fill="#030000" >
</path>
<path d="M263.582 68.1509L259.624 65.3774C259.229 65.3774 259.229 64.9811 259.229 64.5849C259.229 63.7925 259.624 63 260.416 63C260.812 63 261.207 63.3962 261.999 63.7925C264.374 65.7736 266.352 67.7547 267.935 69.7358C269.123 70.9245 268.727 71.717 267.144 71.3208C265.165 70.9245 263.582 71.3208 262.395 72.5094C260.812 73.6981 260.02 74.4906 259.624 74.4906C258.041 74.8868 256.854 74.8868 255.271 73.6981C254.875 73.6981 254.875 73.3019 254.875 72.9057L254.875 71.3208C254.875 70.9245 254.875 70.9245 254.479 70.9245C251.709 71.717 249.73 73.3019 248.147 75.6792C247.751 76.0755 247.751 76.4717 247.355 76.8679C245.772 78.4528 245.377 78.0566 245.772 76.0755C245.772 75.6792 246.168 75.283 246.168 74.8868C246.96 73.6981 248.147 72.5094 249.334 71.3208C250.917 70.1321 251.709 69.3396 252.5 68.9434C253.688 68.1509 254.875 67.7547 256.458 68.1509C256.854 68.1509 257.25 68.9434 257.25 69.3396C256.854 71.717 256.854 72.9057 258.041 72.5094C258.437 72.5094 258.833 72.1132 259.624 71.3208C260.416 70.1321 261.999 69.3396 263.582 68.9434C263.978 68.5472 263.978 68.5472 263.582 68.1509Z" fill-rule="evenodd"  fill="#FFFFFF" >
</path>
<path d="M48.2837 68.9434L52.2414 64.5849C53.0329 63.7925 53.8245 63.3962 54.616 64.1887C55.8033 64.9811 56.5949 66.1698 56.1991 67.7547C56.1991 68.5472 55.8033 68.9434 55.0118 69.3396C54.2203 70.1321 53.4287 69.7359 52.6372 68.5472C52.2414 68.1509 52.2414 68.1509 51.8456 68.5472C51.4499 69.3396 50.6583 70.1321 50.2626 71.3208C49.8668 72.1132 49.471 72.9057 48.6795 73.6981C47.888 74.4906 47.4922 75.6793 47.4922 76.8679C47.4922 77.2642 47.0964 77.6604 47.0964 78.4528C45.9091 80.434 45.5134 82.0189 47.0964 83.6038C47.0964 84 47.4922 84 47.4922 84.3962C47.4922 85.1887 46.7007 85.5849 45.9091 85.9811C45.5134 85.9811 45.1176 85.9811 45.1176 85.9811L42.743 83.6038C42.3472 83.2076 41.9514 82.0189 42.3472 81.2264C43.1388 79.6415 43.5345 78.4528 44.3261 76.8679C44.7218 76.0755 45.1176 75.283 45.1176 74.8868C45.1176 73.6981 44.3261 73.3019 43.1388 73.6981C42.743 73.6981 42.743 73.6981 42.3472 73.3019C41.1599 71.717 41.5557 70.1321 43.1388 68.1509C43.9303 67.3585 44.7218 66.9623 45.5134 67.7547C46.3049 68.1509 47.0964 68.9434 47.4922 70.1321C47.888 68.9434 48.2837 69.3396 48.2837 68.9434Z" fill-rule="evenodd"  fill="#FFFFFF" >
</path>
<path d="M59.3653 76.0755C59.7611 76.4717 60.1568 76.4717 60.5526 76.0755C60.9484 76.0755 60.9484 75.6792 60.9484 75.283C62.1357 72.5094 63.323 72.5094 64.5103 75.283C64.5103 75.6792 64.5103 75.6792 64.5103 76.0755C62.9272 78.0566 61.7399 80.434 60.1568 82.4151C59.7611 83.2075 58.9695 84.3962 58.5738 86.3774C58.178 87.566 57.3865 89.1509 56.5949 90.3396C55.8034 91.9245 55.0118 91.5283 55.0118 89.9434L54.6161 85.9811C54.6161 85.5849 54.6161 85.5849 54.2203 85.1887C53.4288 84.7924 52.6372 84 52.2415 82.8113C51.8457 81.6226 50.6584 80.8302 49.4711 79.6415C49.0753 79.2453 49.0753 78.8491 49.0753 78.8491C49.4711 76.0755 50.6584 73.3019 52.2415 71.3207C53.4288 70.1321 54.2203 70.1321 55.0118 71.3207C55.4076 72.1132 55.4076 72.9057 54.6161 73.6981C53.8245 74.8868 53.033 75.6792 52.6372 77.2642C52.6372 77.6604 52.6372 78.0566 52.6372 78.0566C52.6372 78.0566 53.033 78.0566 53.4288 77.6604L57.3865 72.5094C57.3865 72.1132 57.7822 72.1132 58.178 72.5094C58.9695 73.3019 58.9695 74.0943 58.9695 74.8868C58.9695 75.6792 58.9695 76.0755 59.3653 76.0755ZM57.3865 79.2453C55.8034 80.0377 55.4076 81.2264 55.8034 82.4151C55.8034 82.8113 56.5949 82.8113 56.5949 82.8113C58.178 81.2264 58.5738 80.434 57.7822 79.2453L57.3865 79.2453Z" fill-rule="evenodd"  fill="#FFFFFF" >
</path>
<path d="M270.31 84.3962C271.101 84.3962 271.101 84 270.706 83.6038L264.373 76.8679C263.978 76.4717 263.582 76.4717 263.186 76.8679C261.999 77.2642 261.207 77.6604 260.811 77.2642C260.416 77.2642 260.416 76.8679 260.416 76.4717C260.811 74.8868 261.999 73.6981 263.186 73.3019C264.373 72.9056 265.561 72.9056 267.144 73.6981C268.727 74.4906 270.706 75.283 272.289 76.0755C272.684 76.0755 272.684 76.0755 273.08 76.0755C274.268 75.283 275.455 75.6792 276.246 76.8679C277.434 78.4528 277.038 80.0377 275.059 80.8302C274.663 80.8302 274.663 80.8302 274.268 80.8302C273.476 80.8302 273.08 81.2264 273.08 82.0189C273.08 82.4151 273.476 82.8113 273.476 83.2076C274.663 84.7924 274.268 85.9811 272.684 87.566C271.893 88.3585 270.706 88.3585 268.727 88.3585C268.331 88.3585 268.331 88.3585 267.935 87.9623C267.935 85.9811 268.331 84.7924 270.31 84.3962ZM270.31 76.0755C270.31 78.0566 270.706 78.0566 270.31 76.0755C270.31 76.0755 270.31 75.6792 270.31 76.0755C270.31 75.6792 269.914 76.0755 270.31 76.0755Z" fill-rule="evenodd"  fill="#FFFFFF" >
</path>
<path d="M270.135 76.0755C270.132 76.0755 270.135 75.6792 270.135 76.0755C270.135 75.6792 270.135 76.0755 270.135 76.0755C270.139 78.0566 270.135 78.0566 270.135 76.0755Z" fill-rule="evenodd"  fill="#030000" >
</path>
<path d="M142.477 89.1509L168.597 89.1509C168.993 89.1509 168.993 88.7547 168.993 88.7547L169.389 81.6226C169.389 81.2264 169.785 81.2264 169.785 81.2264L207.383 77.2642C207.778 77.2642 207.778 77.2642 207.778 77.6604L211.34 88.3585C211.34 89.1509 212.132 89.5472 212.923 89.5472L218.464 89.5472C218.86 89.5472 218.86 89.9434 218.86 89.9434L219.256 147.792C219.256 148.189 219.256 148.189 218.86 148.189L170.18 148.189C169.785 148.189 169.785 147.792 169.785 147.792L169.785 131.547C169.785 131.151 169.389 130.755 168.993 131.151L155.933 142.641C155.537 143.038 155.141 143.038 154.745 142.641L142.477 132.34C142.081 131.943 141.685 131.943 141.685 132.736L141.685 148.189C141.685 148.585 141.289 148.585 141.289 148.585L92.214 148.585C91.8182 148.585 91.8182 148.189 91.8182 148.189L92.214 89.9434C92.214 89.5472 92.6098 89.5472 92.6098 89.5472L98.9421 89.5472C99.3378 89.5472 99.7336 89.1509 99.7336 88.7547L103.296 77.6604C103.296 77.2642 103.691 77.2642 103.691 77.2642L141.289 81.6226C141.685 81.6226 141.685 82.0189 141.685 82.4151L141.685 89.1509C142.081 89.1509 142.477 89.1509 142.477 89.1509Z" fill-rule="evenodd"  fill="#004898" >
</path>
<path d="M260.811 82.8113C261.207 83.6038 261.999 84.7924 262.79 85.5849C263.978 86.7736 263.582 87.1698 261.603 86.7736C255.271 85.1887 248.938 83.2075 243.002 80.8302C241.419 80.434 241.419 80.0377 243.002 80.0377L254.083 81.2264C254.479 81.2264 254.479 81.2264 254.479 80.8302L253.688 79.2453C253.688 78.8491 253.292 78.4528 253.292 78.4528C253.292 77.2641 254.083 76.8679 255.271 77.6604C255.666 78.0566 256.458 78.4528 256.854 78.8491C258.041 80.0377 259.228 80.0377 260.416 78.8491C260.416 78.4528 260.811 78.4528 261.207 78.4528C263.978 78.8491 265.956 80.0377 266.748 82.4151C267.144 83.6038 266.748 84.3962 265.561 84C265.165 84 264.373 83.6038 263.978 83.2075C262.79 83.6038 261.999 82.8113 260.811 82.8113C260.811 82.4151 260.811 82.4151 260.811 82.8113Z" fill-rule="evenodd"  fill="#FFFFFF" >
</path>
<path d="M68.8637 79.6415C69.6553 80.8302 69.2595 82.0189 67.6764 83.2075C66.8849 83.6038 66.0933 83.2075 65.6976 82.4151C64.906 80.0377 65.3018 78.4528 66.4891 78.4528C67.2806 78.4528 68.0722 78.849 68.8637 79.6415Z" fill-rule="evenodd"  fill="#FFFFFF" >
</path>
<path d="M57.3865 79.2453L57.7822 79.2453C58.5738 80.0378 58.178 81.2264 56.5949 82.8113C56.1992 83.2076 55.8034 82.8113 55.8034 82.4151C55.4076 81.2264 55.8034 80.0378 57.3865 79.2453Z" fill-rule="evenodd"  fill="#030000" >
</path>
<path d="M41.9515 83.2075C42.3473 83.6038 42.3473 84 42.3473 84.7924C41.5557 87.1698 40.3684 87.9623 37.9938 87.1698C37.2023 86.7736 36.4107 86.3773 36.015 85.5849C35.6192 84 35.6192 83.2075 36.015 82.4151C36.8065 81.2264 37.598 80.8302 38.7854 80.8302C39.9727 80.8302 41.16 81.6226 41.9515 83.2075Z" fill-rule="evenodd"  fill="#FFFFFF" >
</path>
<path d="M59.761 91.5283C58.5737 90.3396 58.9695 88.7547 60.9483 87.1698C61.3441 87.1698 61.3441 87.1698 61.7398 87.1698L64.1144 89.5472C64.1144 89.5472 64.1144 89.9434 64.1144 90.3396C63.7187 91.5283 62.9271 92.3208 62.1356 92.3208C61.3441 92.3208 60.5525 91.9245 59.761 91.5283Z" fill-rule="evenodd"  fill="#FFFFFF" >
</path>
<path d="M256.854 91.5283C258.041 95.4906 260.416 96.283 263.582 93.9057C263.978 93.5094 264.769 93.5094 265.165 93.5094C265.956 93.5094 266.352 94.3019 265.956 95.0943C265.561 96.283 264.769 96.6792 263.582 97.0754C262.79 97.0754 261.999 97.0754 260.811 97.0754C256.854 97.0754 254.479 95.0943 252.896 91.5283C252.896 91.1321 252.896 91.1321 252.896 90.7358C253.688 87.9623 255.666 86.7736 258.833 87.566C259.624 87.566 260.02 87.9623 260.02 88.3585C260.416 89.1509 260.416 89.5472 259.624 90.3396C259.624 90.3396 259.228 90.3396 258.833 90.3396L257.25 90.3396C256.854 90.7358 256.854 91.1321 256.854 91.5283Z" fill-rule="evenodd"  fill="#FFFFFF" >
</path>
<path d="M43.9304 88.7547C45.1176 89.1509 45.5135 89.9434 44.7219 91.1321C44.3261 91.9245 43.5346 92.3208 42.3473 91.9245C41.5557 91.5283 41.16 91.1321 41.16 90.3396C40.3684 88.7547 41.5557 87.9623 43.9304 88.7547Z" fill-rule="evenodd"  fill="#FFFFFF" >
</path>
<path d="M55.8034 93.9057C56.1992 93.9057 56.595 94.3019 56.595 94.6981C56.9907 97.8679 55.4076 98.6604 52.6373 97.8679C49.4711 96.6792 48.2838 94.3019 49.0753 90.7358C49.0753 90.3396 49.4711 90.3396 49.4711 90.7358C51.0542 92.3207 53.4288 93.1132 55.8034 93.9057Z" fill-rule="evenodd"  fill="#FFFFFF" >
</path>
<path d="M193.531 152.151L201.05 152.151C201.446 152.151 201.446 152.151 201.446 152.547C201.446 156.906 201.446 160.868 201.446 165.226C201.05 171.566 201.05 175.925 200.655 177.906C199.863 187.415 196.697 196.132 191.948 204.453C189.177 209.208 185.615 213.17 181.262 215.943C171.763 223.075 160.286 225.453 147.622 223.075C133.374 220.698 123.084 212.774 116.752 199.698C112.398 190.981 110.419 181.472 110.024 171.566C110.024 165.226 109.628 158.887 109.232 152.547C109.232 152.151 109.232 152.151 109.628 152.151L117.939 152.151C118.335 152.151 118.335 152.547 118.335 152.547C117.939 162.057 118.335 169.981 118.73 176.717C119.126 181.868 120.314 186.623 122.292 191.377C124.271 196.528 127.042 200.887 130.208 204.057C134.561 208.415 139.706 211.585 146.039 212.774C151.579 213.962 157.516 213.962 163.452 212.774C170.576 211.585 176.908 208.019 181.658 202.472C185.22 198.509 187.99 193.358 189.969 187.019C191.948 181.075 192.739 175.132 192.739 168.792C193.135 164.038 193.135 158.094 193.531 152.151C193.135 152.547 193.135 152.151 193.531 152.151Z" fill-rule="evenodd"  fill="#004898" >
</path>
<path d="M187.594 152.151C188.782 152.151 189.573 152.547 189.177 154.132C189.177 154.925 189.177 155.717 189.177 155.717C189.177 159.283 189.177 162.453 189.177 166.019C189.177 175.528 187.594 184.642 183.241 193.359C179.679 200.887 174.138 206.038 165.827 208.415C157.912 210.792 150.392 210.792 143.268 208.019C136.54 205.642 131.395 200.887 128.229 194.151C124.667 187.019 122.688 179.491 122.292 171.566C121.897 166.019 121.897 159.679 121.897 153.34C121.897 152.943 122.292 152.547 122.688 152.547L129.416 152.547C129.812 152.547 129.812 152.547 129.812 152.943C129.812 158.491 129.812 163.642 129.812 169.189C129.812 174.736 130.999 179.887 132.978 185.038C135.353 190.585 138.519 194.547 142.872 197.321C148.413 200.887 154.746 202.075 161.869 200.094C167.806 198.509 172.555 194.547 176.117 188.604C179.283 182.66 180.866 176.321 180.866 169.585C180.866 164.038 180.866 158.491 180.866 153.34C180.866 152.943 180.866 152.943 181.262 152.943C182.449 152.943 184.032 152.943 185.22 152.943C186.011 152.547 186.407 152.151 187.594 152.151Z" fill-rule="evenodd"  fill="#004898" >
</path>
<path d="M173.347 152.151C174.138 152.547 174.93 152.547 175.721 152.547C177.304 152.151 178.096 152.547 178.096 153.736C178.096 154.132 178.096 154.528 178.096 154.528C178.096 158.491 178.096 162.453 178.096 166.019C178.096 171.566 176.908 177.113 174.93 182.66C171.763 190.189 166.618 194.547 159.495 196.132C155.933 196.925 152.371 196.528 149.205 194.943C143.268 192.566 139.31 187.811 137.332 181.472C136.54 178.698 135.749 175.925 135.353 173.151C134.957 171.17 134.957 168.396 134.957 164.83C134.957 161.264 134.957 157.302 134.957 153.34C134.957 152.943 135.353 152.943 135.353 152.943L142.081 152.943C142.477 152.943 142.477 153.34 142.477 153.34C142.872 158.094 142.872 163.245 142.872 168C142.872 173.943 144.455 178.698 147.226 183.057C149.205 185.83 151.975 187.019 155.933 187.415C160.286 187.811 163.848 186.226 166.223 183.057C167.41 181.472 168.202 179.887 168.993 178.302C169.389 177.113 169.785 175.132 170.18 173.151C170.972 167.604 171.368 161.66 170.972 156.113C170.972 156.113 170.972 155.717 170.972 154.528C170.972 153.34 171.368 152.943 172.159 152.943C172.555 152.943 172.555 152.943 172.951 152.943C172.555 152.151 172.951 152.151 173.347 152.151Z" fill-rule="evenodd"  fill="#004898" >
</path>
<path d="M132.582 223.075C137.727 225.849 143.268 227.434 149.601 227.83C153.558 228.226 157.912 228.226 161.869 227.83C172.951 227.038 182.054 222.679 189.573 214.755C194.718 209.208 198.676 202.868 201.446 195.736C203.821 189 205.404 181.075 205.8 171.566C206.195 165.623 206.195 159.283 206.591 152.547C206.591 152.151 206.987 151.755 207.383 151.755L220.047 151.755C220.443 151.755 220.443 151.755 220.443 152.151C220.443 160.472 220.443 168.792 220.047 177.113C220.047 182.264 218.86 188.604 217.277 195.34C215.298 202.472 212.132 209.208 207.778 214.358C204.217 218.717 200.259 223.075 195.114 227.434C184.032 237.736 171.368 246.057 157.12 251.604C156.724 251.604 156.724 251.604 156.329 251.604C152.767 250.415 149.205 248.83 145.643 246.849C131.395 239.321 119.126 229.415 108.836 217.528C104.483 212.377 100.921 207.623 98.9422 202.868C95.3802 195.34 93.7972 187.019 93.4014 177.906C93.0056 166.415 93.0056 157.302 92.6099 151.358C92.6099 150.962 92.6099 150.962 93.0056 150.962L105.67 150.962C106.066 150.962 106.066 151.358 106.066 151.358C106.462 158.887 106.858 166.019 107.253 173.547C107.649 181.075 109.232 188.208 112.003 195.34C114.377 200.887 117.148 206.038 120.709 210.396C123.084 216.736 127.437 220.302 132.582 223.075Z" fill-rule="evenodd"  fill="#004898" >
</path>
<path d="M35.2234 150.17L35.2234 156.906C35.2234 158.887 35.2234 160.075 34.8276 160.868C34.4319 161.66 34.0361 162.453 33.2446 162.849C32.453 163.245 31.2657 163.641 30.4742 163.641C29.2869 163.641 28.4953 163.641 27.7038 163.245C26.9123 162.849 26.1207 162.453 25.7249 161.66C25.3292 162.849 24.9334 163.641 24.1419 164.038C23.3503 164.434 22.163 164.83 20.9757 164.83C19.3927 164.83 18.2053 164.434 17.018 164.038C15.8307 163.245 15.435 162.453 15.0392 161.264C15.0392 160.472 14.6434 158.887 14.6434 156.509L14.6434 150.566L35.2234 150.17ZM32.0572 153.736L27.308 153.736L27.308 156.113C27.308 157.302 27.308 158.491 27.308 158.491C27.308 158.887 27.7038 159.679 28.0996 159.679C28.4953 160.075 28.8911 160.075 29.6826 160.075C30.4742 160.075 30.8699 160.075 31.2657 159.679C31.6615 159.679 31.6615 159.283 32.0572 158.887C32.0572 158.491 32.0572 157.302 32.0572 155.717L32.0572 153.736ZM23.7461 153.736L18.2053 153.736L18.2053 156.906C18.2053 158.491 18.2053 159.283 18.6011 159.679C18.6011 160.075 18.9969 160.472 19.3927 160.472C19.7884 160.868 20.1842 160.868 20.9757 160.868C21.7673 160.868 22.163 160.868 22.5588 160.472C22.9546 160.075 23.3503 159.679 23.3503 159.283C23.3503 158.887 23.7461 157.698 23.3503 156.509L23.7461 153.736ZM15.0392 169.585L35.6192 167.208L36.0149 170.774L15.435 173.151L15.0392 169.585ZM16.2265 178.302L36.4107 173.943L37.2022 177.113L24.9334 187.019L38.3895 184.245L39.1811 187.415L18.9969 191.774L18.2053 188.208L30.0784 178.698L16.6223 181.472L16.2265 178.302ZM19.7884 195.736L24.1419 208.811L27.7038 207.623L24.5376 198.509L40.7642 202.868L43.9303 201.679L39.9726 189.792L36.8065 190.981L39.5768 198.509L23.7461 194.547L19.7884 195.736ZM25.3292 212.774L43.9303 203.264L45.5134 206.434L38.3895 210L41.5557 215.943L48.6795 212.377L50.2626 215.547L31.6615 225.057L30.0784 221.887L37.9938 217.528L34.8276 211.585L26.9123 215.943L25.3292 212.774ZM42.743 223.868C39.9726 225.849 37.9938 227.83 37.2022 230.208C36.4107 232.189 36.8065 234.566 37.9938 236.547C39.1811 238.528 41.1599 239.717 43.1388 240.113C45.5134 240.509 48.2838 239.717 51.4499 237.736C54.2203 235.755 56.1991 233.774 56.9907 231.396C57.7822 229.019 57.3864 227.038 56.1991 224.66C55.4076 223.075 54.2203 222.283 53.033 221.491C51.8457 221.094 50.2626 220.698 48.2838 221.094C46.7007 221.491 45.1176 222.283 42.743 223.868ZM44.7218 226.641C42.743 227.83 41.5557 229.415 40.7642 230.604C40.3684 232.189 40.3684 233.377 41.1599 234.566C41.9515 235.755 43.1388 236.547 44.3261 236.547C45.9091 236.547 47.4922 236.151 49.4711 234.962C51.4499 233.774 52.6372 232.189 53.4287 231C53.8245 229.811 53.8245 228.226 53.033 227.038C52.2414 225.849 51.0541 225.057 49.8668 225.057C48.6795 224.66 47.0964 225.453 44.7218 226.641ZM61.7399 232.981L64.1145 235.755L55.4076 242.887C54.2203 244.075 53.4287 244.868 53.033 245.264C52.6372 246.057 52.2414 246.849 52.2414 247.641C52.2414 248.434 52.6372 249.226 53.033 250.019C53.4287 250.811 54.2203 250.811 54.616 251.208C55.4076 251.208 55.8034 251.208 56.5949 251.208C57.3864 250.811 58.178 250.019 59.761 248.83L68.4679 241.302L70.8426 244.075L62.5314 251.208C60.5526 253.189 58.9695 254.377 57.7822 254.774C56.5949 255.17 55.4076 255.566 54.2203 255.17C53.033 254.774 51.8457 253.981 50.6584 252.792C49.4711 251.604 48.6795 250.019 48.6795 248.83C48.6795 247.641 48.6795 246.453 49.4711 245.264C49.8668 244.075 51.4499 242.491 53.8245 240.509L61.7399 232.981ZM78.7579 276.566L89.0479 258.34L93.4014 260.717L89.0479 274.585L98.5463 263.887L102.9 266.264L92.6098 284.491L89.8394 282.906L98.1506 268.641L87.4648 281.321L84.6945 279.736L89.8394 263.887L81.9241 278.151L78.7579 276.566ZM97.7548 286.868L109.628 291.623L110.815 288.453L102.108 284.887L104.087 279.736L112.002 282.906L113.19 279.736L105.274 276.566L106.857 272.208L115.564 275.774L116.752 272.604L104.879 267.849L97.7548 286.868ZM119.126 273.396L125.063 274.981C126.646 275.377 127.833 275.774 128.625 276.17C129.416 276.566 129.812 277.358 130.208 278.547C130.604 279.34 130.999 280.528 130.999 282.113C130.999 283.698 130.999 285.283 130.604 287.264C130.208 288.849 129.812 290.434 129.021 291.623C128.229 292.811 127.437 293.604 126.646 294.396C125.854 295.189 125.063 295.585 123.876 295.585C123.084 295.585 121.897 295.585 120.314 295.189L113.981 293.604L119.126 273.396ZM121.897 277.358L118.731 290.83L121.105 291.226C122.292 291.623 123.084 291.623 123.48 291.623C123.876 291.623 124.667 291.226 125.063 290.83C125.459 290.434 125.854 290.038 126.25 289.245C126.646 288.453 127.042 287.264 127.437 285.679C127.833 284.094 127.833 282.906 127.833 282.113C127.833 281.321 127.833 280.528 127.437 279.736C127.042 278.943 126.646 278.547 126.25 278.547C125.854 278.151 125.063 278.151 123.48 277.755L121.897 277.358ZM132.978 297.962L135.353 277.358L138.915 277.755L136.54 298.358L132.978 297.962ZM153.162 292.019L156.329 293.604C155.537 295.981 154.745 297.566 153.162 298.358C151.975 299.151 150.392 299.943 148.413 299.547C146.039 299.547 144.455 298.358 143.268 296.377C141.685 294.396 141.289 291.623 141.685 288.057C142.081 284.491 142.872 281.717 144.851 280.132C146.434 278.547 148.413 277.755 150.788 278.151C152.767 278.151 154.35 278.943 155.537 280.528C156.329 281.717 157.12 282.906 157.12 284.887L153.558 285.679C153.558 284.491 153.162 283.698 152.371 282.906C151.579 282.113 151.184 281.717 149.996 281.717C148.809 281.717 147.622 282.113 146.83 283.302C146.039 284.491 145.247 286.075 145.247 288.453C144.851 291.226 145.247 292.811 146.039 294C146.83 295.189 147.622 295.981 148.809 295.981C149.6 295.981 150.392 295.585 151.184 295.189C152.371 294.792 152.767 293.604 153.162 292.019ZM176.117 298.755L172.555 299.151L170.576 294.396L163.848 294.792L162.661 299.547L159.099 299.943L164.244 278.547L167.806 278.151L176.117 298.755ZM169.389 290.83L166.619 283.302L165.035 291.226L169.389 290.83ZM180.075 297.962L191.948 295.585L191.156 292.019L182.845 294L179.283 277.358L176.117 278.151L180.075 297.962ZM214.111 264.679L216.881 262.698L222.818 272.208C223.609 273.792 224.401 274.585 224.796 274.981C225.588 275.774 225.984 276.17 226.775 276.17C227.567 276.17 228.358 276.17 229.15 275.774C229.941 275.377 230.337 274.981 230.337 274.189C230.733 273.792 230.733 273 230.337 272.208C230.337 271.415 229.546 270.226 228.358 268.641L222.422 258.736L225.588 257.547L231.525 266.66C233.108 269.038 233.899 271.019 234.295 272.208C234.691 273.396 234.691 274.585 234.295 275.774C233.899 276.962 232.712 278.151 231.525 278.943C229.941 279.736 228.754 280.528 227.567 280.528C226.38 280.528 225.192 280.132 224.401 279.34C223.213 278.547 222.026 276.962 220.443 274.189L214.111 264.679ZM241.419 272.208L243.793 270.226L235.482 259.528L249.334 265.868L252.105 263.887L239.044 247.641L236.67 249.623L245.376 260.321L230.733 253.585L227.963 255.566L241.419 272.208ZM255.666 259.924L241.419 244.472L243.793 242.094L258.041 257.151L255.666 259.924ZM264.769 250.415L244.981 241.698L247.355 238.924L261.999 245.66L252.896 232.585L255.271 229.811L267.144 248.038L264.769 250.415ZM273.08 239.717L280.204 228.623L277.038 227.038L271.893 234.962L267.144 231.792L271.893 224.66L269.123 222.679L264.373 229.811L260.416 227.434L265.561 219.509L262.394 217.925L255.666 228.623L273.08 239.717ZM282.579 224.66L263.582 215.943L266.748 209.208C267.539 207.623 268.331 206.434 268.727 205.641C269.518 205.245 270.31 204.849 271.497 204.849C272.684 204.849 273.476 204.849 274.663 205.641C276.246 206.434 277.038 207.226 277.829 208.415C278.225 209.604 278.621 210.792 278.225 212.377C279.017 211.981 279.808 211.585 280.6 211.585C281.391 211.585 282.579 211.189 284.558 211.189L289.307 210.792L287.724 214.358L282.579 214.755C280.6 214.755 279.413 215.151 279.017 215.151C278.621 215.151 278.225 215.547 277.829 215.547C277.434 215.943 277.038 216.34 277.038 217.132L276.246 217.925L284.162 221.491L282.579 224.66ZM273.08 216.34L274.268 213.962C275.059 212.377 275.455 211.585 275.455 211.189C275.455 210.792 275.455 210.396 275.059 210C274.663 209.604 274.268 209.208 273.872 208.811C273.08 208.415 272.684 208.415 272.289 208.415C271.893 208.415 271.497 208.811 271.101 209.208C270.706 209.604 270.31 210.396 269.914 211.585L268.727 213.962L273.08 216.34ZM283.766 205.641C288.515 206.83 291.286 205.245 292.869 201.283C293.66 198.906 293.66 197.321 292.869 195.736C292.077 194.151 290.89 193.358 288.911 192.566C287.724 192.17 286.536 192.17 285.745 192.17C284.953 192.17 283.766 192.566 282.974 193.358C282.183 193.755 281.391 194.943 280.204 196.528C279.413 198.113 278.621 198.906 277.829 199.302C277.434 199.698 276.642 199.698 276.246 199.698C275.851 199.698 275.455 199.302 275.059 198.509C274.663 197.717 275.059 197.321 275.059 196.132C275.455 195.34 275.851 194.547 276.246 194.151C276.642 193.755 277.829 193.755 278.621 193.755L279.413 190.585C277.434 190.189 275.851 190.189 274.268 190.981C273.08 191.774 271.893 192.962 271.101 194.943C270.706 196.132 270.706 197.321 270.706 198.509C270.706 199.698 271.497 200.491 271.893 201.283C272.684 202.075 273.476 202.472 274.663 202.868C275.455 203.264 276.642 203.264 277.434 203.264C278.225 203.264 279.017 202.868 279.808 202.472C280.6 202.075 281.391 201.283 282.183 199.698C282.974 198.113 283.766 197.321 284.162 196.925C284.558 196.528 284.953 196.528 285.349 196.132C285.745 196.132 286.141 196.132 286.536 196.132C287.328 196.528 287.724 196.925 288.119 197.717C288.515 198.509 288.515 199.302 288.119 200.491C287.328 202.472 285.745 203.264 283.37 202.868L283.766 205.641ZM295.639 189.792L275.455 185.038L276.246 181.868L296.431 186.623L295.639 189.792ZM298.014 177.509L280.996 175.528L280.204 180.679L276.642 180.283L278.225 166.811L281.787 167.208L280.996 171.962L298.014 173.943L298.014 177.509ZM299.201 160.472L290.494 160.075L278.225 166.019L278.225 162.057L286.536 158.491L278.621 154.132L278.621 150.17L290.494 156.906L299.201 157.302L299.201 160.472Z" fill-rule="evenodd"  fill="#FFFFFF" >
</path>
</svg>
