<svg width="889" height="889" viewBox="0 0 889 889" fill="none" xmlns="http://www.w3.org/2000/svg">
<path fill-rule="evenodd" clip-rule="evenodd" d="M361.427 47.065C369.106 43.728 377.06 41.121 385.154 39C379.723 50.575 376.3 62.95 375.262 75.708C377.406 75.116 381.66 73.865 383.805 73.274C382.836 76.507 380.899 83.007 379.966 86.275C385.119 84.293 390.307 82.347 395.495 80.4C395.875 79.149 396.602 76.576 396.948 75.29C385.084 72.44 383.32 59.196 383.874 48.907C389.857 54.504 392.417 62.464 396.187 69.52C397.12 67.4 398.919 63.124 399.818 60.969C397.916 60.447 394.146 59.37 392.244 58.814C396.705 56.033 401.098 53.217 405.56 50.402C405.352 56.207 405.11 62.047 404.868 67.886C408.741 60.864 412.269 53.669 415.451 46.335C406.597 45.883 397.743 46.752 388.924 47.273C397.57 42.337 409.572 35.941 418.46 43.867C422.991 46.404 420.328 52.939 419.083 56.798C415.278 64.966 408.292 70.91 401.928 76.994C407.496 78.523 413.065 80.122 418.599 81.825C413.514 85.614 408.43 89.368 403.346 93.157C405.871 95.417 408.43 97.711 410.99 100.005C409.883 101.987 407.635 106.019 406.528 108C403.623 106.088 400.787 104.107 398.02 102.056C391.794 98.719 397.224 91.176 398.193 86.448C391.759 88.534 385.015 89.334 378.305 88.117C375.227 94.687 372.218 101.257 369.14 107.861C357.381 100.596 364.851 87.352 365.716 76.576C362.742 72.753 359.836 68.929 357 65.036C361.116 66.774 365.232 68.582 369.347 70.389C371.042 63.889 372.875 57.458 374.812 50.992C370.316 49.776 365.854 48.455 361.427 47.065Z" fill="white"/>
<path fill-rule="evenodd" clip-rule="evenodd" d="M495.055 52.556C501.872 50.773 508.76 48.989 515.54 47C519.02 49.264 522.46 51.63 525.9 53.997C519.33 62.537 513.23 71.351 507.28 80.302C513.89 80.92 521.32 80.2 526.69 85.001C527.72 89.254 527.66 93.644 528 98C517.88 95.119 507.45 95.256 497.121 96.8C490.064 98.995 488.239 90.489 487 85.653C494.057 79.582 499.255 71.831 504.488 64.217C501.287 60.342 498.12 56.466 495.055 52.556Z" fill="white"/>
<path fill-rule="evenodd" clip-rule="evenodd" d="M242.453 77.5709C248.216 71.4799 256.014 74.5079 262.674 76.9509C264.434 80.6669 266.262 84.3839 268.264 87.9969C276.338 82.8009 289.037 75.7809 296.559 85.7599C284.447 93.7429 263.399 94.9819 260.293 111.533C269.472 105.374 277.856 95.2569 290.14 97.7349C287.76 105.408 285.724 113.219 285.379 121.305C292.487 120.135 300.182 117.245 306.98 121.339C307.359 126.54 302.424 128.29 298.871 130.7C296.214 129.36 290.865 126.74 288.208 125.43C290.416 134.52 294.73 142.91 299.388 151C297.249 150.69 293.005 150.14 290.865 149.86C288.036 143.81 285.31 137.65 282.756 131.52C280.03 136.38 277.58 141.43 274.337 146.01C270.714 145.08 267.298 143.57 263.847 142.26C264.054 137.31 264.33 132.35 264.744 127.43C268.298 131.01 271.852 134.69 275.407 138.34C277.615 133.28 279.823 128.22 281.997 123.13C278.374 124.81 274.785 126.54 271.197 128.29C268.505 117.038 279.996 110.328 284.137 101.072C276.614 106.337 264.572 111.292 267.953 122.853C264.503 118.277 261.017 113.701 257.567 109.124C253.53 113.529 249.631 118.105 245.11 122.062C242.591 121.064 237.519 119.103 235 118.105C244.489 109.193 253.116 99.1799 264.227 92.1599C260.811 90.1299 257.326 88.2369 253.806 86.4479C249.976 83.5579 246.18 80.5639 242.453 77.5709Z" fill="white"/>
<path fill-rule="evenodd" clip-rule="evenodd" d="M609.24 85.648C611.06 80.707 613 75.836 615 71C615.86 72.892 617.62 76.747 618.49 78.639C625.11 77.834 631.77 76.992 638.23 75.135C649.17 79.516 641.2 88.767 636.71 95.005C643.79 100.087 649.41 106.85 651 115.786C641.51 117.258 638.09 110.95 636.33 102.855C627.43 95.671 615.14 93.673 604.16 96.126C597.67 101.208 593.53 108.637 587.39 114.104C585.56 113.228 581.83 111.511 580 110.67C585.04 100.332 594.98 93.989 603.09 86.384C604.13 87.821 606.23 90.695 607.27 92.132C618.07 90.625 629.5 89.994 638.85 83.616C628.94 83.651 619.07 84.632 609.24 85.648Z" fill="white"/>
<path fill-rule="evenodd" clip-rule="evenodd" d="M599.51 102.073C610.35 100.526 622.52 99.5071 631.34 107.45C630.08 109.207 627.57 112.792 626.32 114.584C629 119.118 631.09 123.97 632 129.2C627.99 127.41 624.02 125.58 620.04 123.76C614.39 133.14 608.85 142.77 601.53 150.99C592.08 151.28 595.26 140.59 594.91 134.51C594.87 129.1 598.85 124.99 601.22 120.559C601.53 124.28 602.12 131.74 602.44 135.46C607.14 130.36 611.78 125.2 616.35 119.962C608.54 117.888 595.01 123.62 594 111.456C601.84 111.351 609.72 111.808 617.57 112.265C618.96 111.211 621.79 109.031 623.22 107.977C615.2 106.641 605.85 108.364 599.51 102.073Z" fill="white"/>
<path fill-rule="evenodd" clip-rule="evenodd" d="M248.148 199.328C302.551 155.678 372.053 130.358 442.006 131.088C515.01 129.248 587.59 156.228 643.69 202.468C697.99 247.298 736.91 310.688 751.15 379.688C765.21 444.468 757.42 513.638 729.78 573.858C724.34 585.788 717.38 596.998 712.6 609.238C711.39 610.208 708.93 612.148 707.72 613.078C670.53 673.258 610.93 718.948 544.03 741.598C479.649 763.558 408.034 763.388 343.657 741.528C277.583 719.048 218.193 674.258 181.52 614.668C216.461 616.428 251.438 613.178 286.379 613.908C294.136 613.938 301.408 617.058 308.404 620.098C345.423 636.908 382.823 652.918 420.051 669.348C420.051 682.038 419.912 694.768 419.566 707.498C433.383 707.498 447.2 707.498 461.052 707.598C461.156 695.008 461.156 682.418 461.329 669.838C499.214 653.028 537.2 636.488 574.95 619.368C590.71 611.728 608.68 614.388 625.61 613.598C653.21 612.728 680.92 613.248 708.45 610.998C663.12 595.818 616.75 583.538 571.07 569.328C562.62 565.768 554.38 570.878 546.69 573.928C511.89 589.528 476.601 604.048 441.729 619.478C408.519 605.438 375.239 591.528 342.237 577.008C334.099 573.578 325.234 568.598 316.334 572.678C270.761 586.658 225.154 600.628 179.546 614.568C171.235 598.758 161.885 583.438 154.993 566.908C129.367 506.998 123.238 439.178 137.575 375.648C153.019 306.648 192.67 243.288 248.148 199.328ZM436.119 148.658C432.794 158.758 429.262 168.788 425.453 178.708C374.859 313.768 324.541 448.928 273.981 583.988C281.358 580.358 288.561 576.378 295.417 571.848C342.237 541.238 389.334 511.048 436.153 480.508C439.893 477.228 444.673 477.118 448.551 480.408C503.058 513.888 557.46 547.638 612.32 580.598C608.37 567.458 603.1 554.768 597.94 542.068C550.26 423.578 502.712 305.018 455.096 186.488C450.144 174.668 445.157 162.768 441.867 150.348C440.413 149.938 437.539 149.068 436.119 148.658ZM380.85 541.558C386.875 539.718 394.251 532.178 400.173 538.298C406.026 553.068 388.78 562.648 381.092 572.888C390.788 571.988 402.355 575.658 410.216 568.148C402.493 568.598 394.805 569.158 387.117 569.808C393.974 560.368 408.796 551.618 405.125 537.958C399.48 527.168 386.044 533.908 380.85 541.558ZM418.388 535.428C413.263 543.388 412.328 553.588 414.787 562.618C416.241 567.288 418.631 573.578 424.795 572.158C434.491 575.168 438.924 564.798 438.093 556.878C439.409 556.118 442.041 554.558 443.356 553.758C444.707 563.788 449.694 577.138 462.611 572.268C473.415 562.958 472.757 544.118 463.546 533.838C450.04 527.508 445.33 543.728 438.924 551.858C438.37 544.558 435.842 537.788 432.275 531.528C427.669 532.838 422.578 532.978 418.388 535.428ZM480.584 532.628C479.718 538.338 478.921 544.048 478.125 549.788C486.713 549.058 498.799 551.648 495.925 563.098C492.981 573.758 481.449 568.188 473.658 568.598C483.458 580.048 504.755 568.008 499.422 553.758C497.137 545.528 487.371 546.808 480.826 546.638C481.172 544.248 481.865 539.448 482.211 537.018C488.514 536.438 494.886 535.918 501.05 534.258C494.228 533.318 487.406 532.938 480.584 532.628Z" fill="white"/>
<path fill-rule="evenodd" clip-rule="evenodd" d="M144.338 144C152.934 144.76 154.73 153.42 158.044 159.78C162.325 157.49 166.641 155.26 171.025 153.14C168.747 158.5 165.812 163.5 162.291 168.09C163.948 174.63 165.778 181.13 167.607 187.66C166.399 187.97 163.913 188.6 162.705 188.91C164.051 191.83 165.432 194.75 166.813 197.67C169.299 189.75 173.96 183.18 182.073 180.5C179.139 177.02 176.204 173.51 173.269 170.07C176.929 169.24 184.214 167.53 187.839 166.7C186.492 174 188.253 179.98 196.125 181.61C195.952 184.53 195.676 190.37 195.503 193.33C190.187 191.66 185.802 188.29 181.831 184.5C181.763 186.93 181.625 191.87 181.555 194.34C188.288 198.68 195.814 201.32 203.341 203.93C204.756 207.58 205.999 211.33 207 215.16C195.02 210.57 185.318 201.74 172.51 199.06C173.131 206.15 173.718 213.25 174.305 220.34C173.269 224.4 172.476 228.51 171.958 232.64C175.755 236.75 179.173 241.2 182.453 245.71C180.14 246.06 175.514 246.69 173.2 247C168.091 238.97 166.952 229.24 162.567 221.03C159.701 220.23 154.005 218.67 151.139 217.87C153.176 215.58 155.213 213.32 157.25 211.06C152.969 207.37 148.722 203.72 144.614 199.86C154.764 200.87 161.842 208.21 169.334 214.32C167.815 206.68 162.567 200.91 158.044 194.93C153.418 193.95 148.791 192.91 144.234 191.8C142.473 195.62 140.782 199.41 139.055 203.23C136.88 203.06 132.496 202.68 130.286 202.5C133.807 196.59 137.295 190.69 140.643 184.71C134.429 183.94 128.215 183.45 122 182.9C127.8 175.67 136.328 175.77 144.614 177.68C147.272 173.62 149.931 169.52 152.624 165.45C149.689 158.36 146.754 151.27 144.338 144ZM149.24 182.62C151.07 184.32 154.695 187.77 156.525 189.5C157.043 184.29 157.423 179.08 157.664 173.86C154.661 176.54 151.415 179.14 149.24 182.62Z" fill="white"/>
<path fill-rule="evenodd" clip-rule="evenodd" d="M719.46 149.11C727.9 148.76 738.63 148.63 741 158.76C727.48 160.8 718.42 170.31 712.18 181.62C711.97 178.86 711.52 173.31 711.27 170.52C701.62 180.55 689.98 189.1 676 192C678.86 180.48 690.85 176.62 699.7 170.73C709.35 164.35 720.79 161.87 731.31 157.31C727.27 154.59 723.36 151.9 719.46 149.11Z" fill="white"/>
<path fill-rule="evenodd" clip-rule="evenodd" d="M751.08 180.35C751.95 174.56 753.92 169 756.97 164C757.18 170.2 756.87 176.41 756.28 182.58C759.22 188.64 762.17 194.81 763 201.6C757.84 203.45 754.2 198.65 750.11 196.53C751.56 194.88 754.51 191.63 755.97 189.98C751.36 186.52 746.71 183.19 742 179.94C740.86 185.18 743.25 190.15 744.22 195.26C736.77 193.51 729.35 191.9 721.79 190.8C728.9 195.5 736.45 199.68 742.48 205.81C736.07 205.3 729.73 204.55 723.42 203.69C718.61 209.41 713.86 215.21 709.42 221.2C724.88 226.96 741.72 224.97 756.03 217.19C753.68 222.37 751.84 227.89 748.38 232.48C734.13 235.15 718.16 234.81 705.37 227.27C697.5 217.74 711.02 209.34 716.53 202.63C708.83 200.91 698.09 203.72 694 194.92C702.87 195.05 711.67 196.12 720.44 197.42C717.01 195.29 710.22 191.01 706.82 188.88C713.86 184.36 722.21 185.83 730.08 185.87C731.53 182.23 733.02 178.6 734.55 175C731.05 175.1 724.05 175.28 720.58 175.38C726.13 164.75 738.95 169.93 748.44 169.83C746.09 170.72 741.38 172.5 738.98 173.39C743.04 175.65 747.06 177.98 751.08 180.35Z" fill="white"/>
<path fill-rule="evenodd" clip-rule="evenodd" d="M203.039 185C208.705 185.41 214.335 186.13 220 186.96C219.792 189.23 219.375 193.73 219.201 196C211.937 195.18 202.309 194.9 203.039 185Z" fill="white"/>
<path fill-rule="evenodd" clip-rule="evenodd" d="M177 212C185.282 214.25 191.198 220.58 196 227.47C184.69 230.37 180.445 220.79 177 212Z" fill="white"/>
<path fill-rule="evenodd" clip-rule="evenodd" d="M786 384C787.25 385.61 789.76 388.88 790.97 390.49C804.23 395.55 825.62 407.41 834.32 390.11C835.09 396.85 835.99 403.55 837 410.29C835.54 408.05 832.58 403.55 831.12 401.31C815.01 403.31 802.63 414.29 791.22 425C790.52 420.3 789.79 415.63 789.1 410.96C790.35 411.87 792.82 413.63 794.07 414.5C800.16 409.98 806.28 405.52 812.44 401.06C805.76 398.43 799.12 395.86 792.47 393.3C791.08 394.11 788.26 395.79 786.87 396.64C786.66 393.48 786.21 387.16 786 384Z" fill="white"/>
<path fill-rule="evenodd" clip-rule="evenodd" d="M58.817 425.84C74.988 427.71 89.738 420.02 103 412C102.412 417.51 101.927 423.02 101.511 428.56C100.68 426.69 99.018 422.95 98.152 421.08C91.296 424.24 84.371 427.37 77.55 430.67C83.021 434.27 88.457 437.94 93.859 441.72C95.14 441.28 97.668 440.39 98.949 439.95C99.33 442.7 100.161 448.21 100.542 451C89.358 439.54 75.576 428.66 58.436 429.48C57.086 431.14 54.385 434.48 53 436.14C54.073 429.55 55.216 422.98 56.359 416.42C56.982 418.77 58.229 423.49 58.817 425.84Z" fill="white"/>
<path fill-rule="evenodd" clip-rule="evenodd" d="M817.59 424C818.57 425.91 820.53 429.65 821.54 431.52C826.29 431.25 831.03 430.97 835.82 430.73C838.92 439.08 842.28 448.89 837.91 457.42C828.94 473.99 799.79 472.43 792.7 454.96C789.49 447.99 791.62 440.33 792.67 433.19C795.11 432.67 800 431.66 802.48 431.14C798.01 436.48 789.98 441.37 793.37 449.41C799.09 466.05 824.79 466.4 834.94 453.85C839.45 448.93 836.45 442.3 835.64 436.69C832.05 436.62 824.82 436.45 821.22 436.38C820.32 438.46 818.54 442.62 817.66 444.7C817.66 437.8 817.66 430.9 817.59 424Z" fill="white"/>
<path fill-rule="evenodd" clip-rule="evenodd" d="M52 450C53.066 451.83 55.233 455.5 56.299 457.34C72.291 461.28 88.18 465.67 104 470.42C87.286 477.47 68.955 480.52 53.272 490C53.066 485.19 52.86 480.38 52.619 475.61C53.685 477.16 55.783 480.24 56.849 481.8C68.646 477.13 80.717 473.25 92.789 469.48C80.27 466.12 67.683 463.05 55.198 459.55C54.579 461.66 53.341 465.81 52.688 467.89C52.481 461.94 52.241 455.95 52 450Z" fill="white"/>
<path fill-rule="evenodd" clip-rule="evenodd" d="M807.186 476.248C817.066 475.038 828.436 478.218 834.326 486.778C836.356 493.718 836.906 502.068 833.846 508.808C823.616 522.718 799.476 520.128 790.796 505.798C785.526 493.028 792.106 476.898 807.186 476.248ZM792.416 486.048C791.656 492.648 791.756 499.308 792.966 505.868C804.366 510.528 818.276 516.128 829.646 508.248C837.396 503.208 833.606 493.408 831.506 486.398C818.826 481.388 804.946 479.728 792.416 486.048Z" fill="white"/>
<path fill-rule="evenodd" clip-rule="evenodd" d="M100.608 491C100.848 493.8 101.123 496.56 101.398 499.35C90.922 510.61 80.137 521.55 69.421 532.6C80.069 531.55 90.716 530.43 101.398 529.76C102.737 526.13 104.042 522.53 105.382 518.93C105.519 522 105.863 528.09 106 531.13C89.823 532.53 73.646 534.24 57.64 537C68.872 524.87 80.721 513.34 91.403 500.72C80.549 501.77 69.799 503.44 59.049 505.23C58.362 507.74 57.022 512.71 56.37 515.22C55.649 509.21 54.927 503.3 54 497.36C57.229 499.84 60.113 504.18 64.853 502.12C76.84 499.18 92.399 502.36 100.608 491Z" fill="white"/>
<path fill-rule="evenodd" clip-rule="evenodd" d="M820.07 524C823.75 525.63 827.39 527.36 831 529.19C830.55 540.06 826.35 550.38 824.44 561C823.4 558.11 822.4 555.23 821.36 552.38C809.04 550 796.97 546.37 784.56 544.43C782.93 545.59 779.63 547.83 778 548.98C779.73 542.87 780.91 536.59 781.64 530.31C782.72 532.38 784.9 536.46 785.98 538.53C799.33 543.18 813.45 545.32 827.32 548C828.75 539.07 826.49 530.52 820.07 524Z" fill="white"/>
<path fill-rule="evenodd" clip-rule="evenodd" d="M420.048 537.02C424.122 536 428.229 534.98 432.37 534C434.61 545.64 436.952 558.23 432.37 569.63C429.417 569.98 423.511 570.65 420.557 571C418.521 559.78 418.623 548.31 420.048 537.02Z" fill="white"/>
<path fill-rule="evenodd" clip-rule="evenodd" d="M453.907 536.507C459.292 531.467 466.993 540.177 465.596 546.307C465.8 554.687 468.56 570.757 456.258 570.997C449.886 569.297 449.715 561.567 449 556.317C449.068 549.677 448.352 541.207 453.907 536.507Z" fill="white"/>
<path fill-rule="evenodd" clip-rule="evenodd" d="M68.6376 556.069C75.1116 542.869 92.5566 540.549 104.994 545.199C113.717 549.299 114.943 559.609 116 568.149C112.899 569.539 109.833 570.899 106.766 572.319C109.254 567.419 114.194 562.629 112.354 556.619C107.482 546.619 94.9086 547.179 85.9126 549.819C78.2466 552.209 67.9226 557.249 69.4896 567.109C69.1826 575.309 78.0076 577.319 83.3576 580.999C80.3926 580.899 74.4296 580.649 71.4316 580.549C68.8766 572.809 64.6516 564.049 68.6376 556.069Z" fill="white"/>
<path fill-rule="evenodd" clip-rule="evenodd" d="M782.98 558.17C800.48 552.43 823.82 568.66 816.68 588.33C809.29 607.15 779.95 603.53 771.66 587.13C765.31 576.68 770.82 561.02 782.98 558.17ZM778.59 563.98C769.6 567.14 768.9 580.34 776.01 585.93C786.26 596.39 801.9 597.86 814.76 591.71C821.84 570.8 795.28 557.54 778.59 563.98Z" fill="white"/>
<path fill-rule="evenodd" clip-rule="evenodd" d="M115.069 579.5C115.931 578.13 117.655 575.38 118.517 574C120.379 578.19 122.276 582.42 124.311 586.62C116.449 581.98 108.69 587.89 101.31 590.36C104.034 596.9 106.793 603.39 109.552 609.92C114.862 607.69 120.207 605.49 125.552 603.32C126.276 602.09 127.793 599.61 128.552 598.37C129.655 600.37 131.897 604.35 133 606.35C119.483 611.64 105.241 615.84 92.862 623.61C92.138 625.19 90.655 628.42 89.897 630C88.552 625.81 87.104 621.65 85.552 617.52C93 616.49 100.173 614.08 107.207 611.47C104.552 604.84 101.827 598.24 99.172 591.6C93.103 594.11 87.034 596.62 80.965 599.16C80.793 600.81 80.379 604.11 80.173 605.73C78.448 601.47 76.759 597.2 75 593.01C89.414 592.53 101.759 584.07 115.069 579.5Z" fill="white"/>
<path fill-rule="evenodd" clip-rule="evenodd" d="M539.16 594.65C546.84 591.4 554.25 587.01 562.53 585.42C570.59 586.7 578.21 589.71 586 592.09C538.64 616.1 489.298 636.1 441.379 659C393.149 638.1 344.953 617.14 297 595.66C304.825 592.13 312.615 588.56 320.44 585C361.018 602.75 401.839 619.98 442.418 637.79C474.652 623.4 506.92 609.08 539.16 594.65Z" fill="white"/>
<path fill-rule="evenodd" clip-rule="evenodd" d="M760.82 595C773.15 607.05 790.43 611.77 805 620.58C783.95 624.1 763.15 629.14 742 632C743.22 630.21 745.69 626.55 746.91 624.75C762.35 622.13 777.89 619.92 793.29 617.09C783.43 611.81 773.47 606.7 763.53 601.59C761.97 602.49 758.76 604.32 757.16 605.22C758.41 601.8 759.6 598.42 760.82 595Z" fill="white"/>
<path fill-rule="evenodd" clip-rule="evenodd" d="M136.386 611C139.093 617.84 142.495 624.26 146 630.76L138.711 625.65C126.598 630.48 115.63 637.7 103.968 643.43C104.037 645.82 104.246 650.62 104.35 653C100.636 646.33 96.853 639.67 93 633.11C95.534 635.21 98.067 637.32 100.602 639.43C112.194 633.14 124.168 627.54 135.379 620.64C135.622 618.22 136.143 613.42 136.386 611Z" fill="white"/>
<path fill-rule="evenodd" clip-rule="evenodd" d="M112.984 658.28C126.442 651.1 139.377 642.43 149.557 631C147.884 649.08 139.377 665.43 133.938 682.53C143.525 676.23 153.113 669.85 162.736 663.58C162.98 661.73 163.433 658 163.677 656.12C165.107 658.98 166.536 661.8 168 664.69C152.416 671.07 139.69 682.46 125.291 691C130.312 674.87 136.378 659.12 141.329 642.99C131.532 649.19 121.909 655.67 112.391 662.29C113.228 664.59 114.901 669.15 115.773 671.42C112.217 666.78 108.695 662.18 105 657.72C107.022 657.86 110.997 658.14 112.984 658.28Z" fill="white"/>
<path fill-rule="evenodd" clip-rule="evenodd" d="M734 644.35C736.36 640.58 738.69 636.81 740.99 633C739.72 641.8 748.63 644.92 754 649.44C762.19 654.33 769.55 663 780 661.6C777.64 665 775.38 668.47 773.25 672C768.77 665.27 762.02 660.69 755.58 656.03C754.21 659.12 751.43 665.27 750.06 668.37C748.69 666.77 747.32 665.17 745.99 663.61C747.84 661.57 751.47 657.53 753.32 655.49C747.91 650.19 741.19 646.52 734 644.35Z" fill="white"/>
<path fill-rule="evenodd" clip-rule="evenodd" d="M702.591 698.13C698.131 678.59 720.181 669.78 726.751 654C724.501 665.36 736.891 668.28 744.681 672.32C748.631 676.95 753.301 680.86 758.081 684.62C759.811 684.06 763.271 682.94 765.001 682.39C761.821 687.23 758.631 692.07 755.521 696.98C755.621 694.86 755.761 690.64 755.831 688.52C744.961 681.17 734.371 673.33 723.151 666.54C721.041 669.36 719.001 672.18 716.961 675.04C718.721 675.63 722.291 676.85 724.051 677.48C716.331 677.51 705.571 677.51 704.701 687.75C706.091 702.73 721.111 717.6 736.511 714.95C745.861 711.3 744.341 701.48 743.161 693.5C745.061 697.09 747.141 700.6 748.731 704.4C744.891 711.65 738.621 719.41 729.591 718.82C717.061 720.53 705.431 709.76 702.591 698.13Z" fill="white"/>
<path fill-rule="evenodd" clip-rule="evenodd" d="M144.571 708.239C139.655 687.689 167.636 668.879 184.101 682.789C192.523 688.109 194.585 698.889 188.466 706.809C187.057 700.209 191.216 690.439 184.548 686.019C167.533 671.839 138.728 700.419 152.924 717.389C158.733 725.939 165.608 715.679 171.486 712.589C170.18 710.469 167.567 706.259 166.261 704.139C170.798 708.169 175.198 712.339 179.804 716.309C173.652 718.879 167.877 722.249 161.792 724.999C153.542 723.639 147.252 715.889 144.571 708.239Z" fill="white"/>
<path fill-rule="evenodd" clip-rule="evenodd" d="M634 742.19C654.03 731.63 670.26 715.39 687.57 701C690.12 703.41 692.7 705.8 695.29 708.24C692.6 707.69 687.22 706.55 684.53 706C680.74 709.45 676.95 712.94 673.16 716.46C677.05 720.8 680.77 725.42 685.22 729.36C692.46 728.98 698.25 721.15 695.7 713.94C698.77 717.73 702.01 721.46 705.39 725.05C698.01 723.04 692.67 728.15 687.36 732.36C692.36 737.78 697.39 743.23 702.46 748.61C706.59 744.43 711.11 740.57 714.66 735.84C714.55 731.26 713.76 726.74 713.18 722.22C715.73 726.18 718.35 730.15 721 734.08C712.38 741.85 703.7 749.57 695.84 758.13C695.87 756.3 695.94 752.64 696.01 750.82C688.63 740.78 679.91 731.74 671.23 722.87C670.3 722.98 668.47 723.18 667.54 723.29C666.78 726.8 667.23 730.32 668.85 733.77C666.13 731.57 663.37 729.39 660.61 727.29C658.61 728.91 654.65 732.19 652.65 733.81C660.54 744.43 667.23 756.06 676.53 765.55C678.67 765.65 682.91 765.93 685.05 766.06C678.74 769.79 672.67 773.9 666.57 778C667.92 776.07 670.57 772.27 671.92 770.34C663.82 758.65 655.68 746.92 646.48 736.08C642.41 741.19 640.34 747.23 639.76 753.68C637.89 749.82 635.93 745.99 634 742.19Z" fill="white"/>
<path fill-rule="evenodd" clip-rule="evenodd" d="M221.329 721C229.594 727.25 237.65 733.84 245.88 740.19C247.171 755.5 247.798 770.83 248.81 786.17C255.715 777.19 262.829 768.16 267.467 757.79C266.282 755.95 263.98 752.27 262.829 750.43C266.805 752.86 270.85 755.18 275 757.4C260.702 766.77 255.924 784.68 244.66 797C242.881 780.41 242.253 763.72 240.37 747.17C234.233 756.85 227.99 766.5 221.573 776.07C223.805 778.64 226.072 781.21 228.304 783.81C223.108 781.25 217.842 778.75 212.576 776.39C214.319 776.11 217.772 775.59 219.516 775.35C226.526 764.38 234.302 753.9 240.336 742.38C240.579 736.89 234.686 734.19 231.687 730.51C222.375 743.07 210.1 753.93 204.659 768.93C200.614 765.35 196.394 761.98 192 758.86C194.267 759.03 198.766 759.42 201.033 759.59C210.484 750.26 217.598 738.91 226.247 728.84C225.026 726.86 222.55 722.94 221.329 721Z" fill="white"/>
<path fill-rule="evenodd" clip-rule="evenodd" d="M275.621 766.759C281.884 759.359 291.506 764.259 297 769.699C295.671 773.059 294.376 776.439 293.081 779.829C291.577 773.709 292.661 763.259 282.864 765.559C271.352 769.079 281.499 780.589 283.948 787.229C289.127 794.139 285.278 803.149 278.56 807.499C271.422 808.869 263.409 807.629 259 801.439C259.84 796.639 261.274 792.019 262.639 787.369C263.619 792.809 263.514 798.659 265.718 803.869C271.247 807.429 279.96 805.719 280.939 798.529C278.735 788.189 266.278 776.649 275.621 766.759Z" fill="white"/>
<path fill-rule="evenodd" clip-rule="evenodd" d="M581 771.28C590.01 767.84 598.77 763.85 607.61 760C609.1 763.78 610.59 767.56 612.11 771.41C610.27 769.56 606.64 765.84 604.84 763.99C599.85 766.12 594.93 768.32 589.97 770.48C592.61 776.4 595.24 782.31 597.91 788.22C604.59 785.16 612.21 782.14 609.79 773.17C612.25 779.25 615.06 785.2 618 791.08C616.23 789.36 612.66 785.89 610.9 784.13C606.81 786.16 602.69 788.22 598.63 790.32C603.35 797.02 604.73 809.43 615.47 808.2C609.48 810.6 603.59 813.28 597.73 816C599.02 814.45 601.54 811.39 602.79 809.85C595.55 796.99 591.67 781.97 581 771.28Z" fill="white"/>
<path fill-rule="evenodd" clip-rule="evenodd" d="M296.937 781.68C299.232 778.12 301.526 774.56 303.786 771C317.45 778.85 333.095 781.47 347.698 787C362.822 789.94 377.285 796.61 393 795.92C391.609 800.59 390.288 805.26 389.002 809.96C388.515 807.4 387.611 802.21 387.159 799.66C384.447 798.93 379.023 797.51 376.311 796.79C375.269 811.68 364.282 828.1 372.835 842C366.785 840.48 360.666 839.1 354.547 837.82C357.433 836.71 360.284 835.61 363.169 834.53C365.429 821.4 368.315 808.4 371.2 795.4C364.143 793.09 358.302 796.65 353.295 801.21C354.616 798.34 355.312 795.37 355.347 792.36C354.13 791.67 351.696 790.25 350.444 789.56C341.3 800.83 340.814 816.66 335.807 829.97C337.754 831.25 341.578 833.74 343.491 834.98C337.024 833.29 330.557 831.49 324.055 829.97C325.724 829.11 329.027 827.38 330.696 826.48C335.807 814.38 338.484 801.38 342.9 789.01C341.822 788.66 339.631 787.97 338.554 787.63C334.069 787.76 332.643 791.71 331.148 795.16C331.496 787.87 328.714 782.41 321.066 781.02C317.102 795.75 305.281 809.85 309.384 825.72C303.682 822.95 297.841 820.43 292 817.98C294.26 817.8 298.814 817.42 301.074 817.25C305.629 804.05 313.521 791.53 314.077 777.29C307.819 775.84 302.36 779.23 296.937 781.68Z" fill="white"/>
<path fill-rule="evenodd" clip-rule="evenodd" d="M557.892 779.543C578.292 774.783 592.842 802.413 582.682 818.783C576.452 830.253 558.202 831.123 550.422 820.803C538.972 809.303 540.252 783.823 557.892 779.543ZM551.772 782.573C544.582 797.033 548.622 816.593 563.002 824.943C568.952 826.223 577.772 825.673 579.462 818.443C585.792 801.933 571.992 775.303 551.772 782.573Z" fill="white"/>
<path fill-rule="evenodd" clip-rule="evenodd" d="M434.505 799.86C456.982 802.33 479.493 798.75 501.799 796C502.142 800.14 502.485 804.31 502.862 808.52C501.147 805.22 499.397 801.91 497.681 798.68C492.087 799.3 486.494 799.97 480.9 800.66C481.655 807.23 482.41 813.81 483.131 820.42C486.391 820.42 492.876 820.42 496.137 820.38C497.2 816.59 498.264 812.8 499.328 809.01C500.151 815.79 501.044 822.68 502.279 829.43C499.534 820.56 491.298 821.7 483.92 822.16C484.572 829.22 485.293 836.28 486.116 843.34C492.327 842.68 498.539 841.98 504.75 841.29C506.47 836.87 508.18 832.49 509.93 828.1C509.93 832.97 509.97 837.88 510 842.78C497.784 844.38 485.499 845.74 473.248 846.96C475.238 845.77 479.219 843.48 481.209 842.33C477.949 828.9 479.322 814.26 473.488 801.63C469.439 803.55 467.792 807.13 468.581 812.35C466.419 805.5 461.546 801.88 454.237 802.33C454.168 815.58 454.58 828.83 454.717 842.09C456.605 844.03 458.492 845.98 460.448 847.97C454.134 847.97 447.854 847.97 441.574 848C444.182 846.68 446.79 845.36 449.433 844.1C449.227 830.02 449.227 815.9 448.06 801.88C441.334 803.27 436.29 807.62 432 812.8C432.858 808.45 433.682 804.14 434.505 799.86Z" fill="white"/>
<path fill-rule="evenodd" clip-rule="evenodd" d="M395.873 797C399.614 797.8 403.354 798.63 407.13 799.4C403.115 801.48 401.021 804.74 400.849 809.12C399.408 819.92 398.996 830.86 398.996 841.77C405.517 843.09 413.822 846.56 418.901 840.14C421.818 828.33 422.47 816.14 423.877 804.12C422.196 803.01 418.798 800.75 417.117 799.64C419.587 799.78 424.529 800.02 427 800.16C424.392 812.59 423.808 825.38 421.681 837.88C419.107 852.08 391.686 848.99 394.157 833.5C394.294 821.31 396.045 809.19 395.873 797Z" fill="white"/>
<path fill-rule="evenodd" clip-rule="evenodd" d="M402.763 1.89411C482.746 -5.47089 564.74 8.67212 637.07 43.8051C730.97 88.8981 808.11 167.91 850.47 263.08C885.64 340.23 896.37 427.65 884.15 511.33C871.79 594.46 834.76 673.61 779.32 736.76C726.81 797.24 657.35 842.85 581.18 867.47C507.8 891.26 428.236 895.48 352.821 879.4C249.407 857.96 154.611 797.86 90.9639 713.69C30.7429 635.68 -1.82406 536.85 0.0789388 438.33C0.666939 342.58 34.3769 247.72 93.1789 172.27C167.244 76.2071 281.767 12.6491 402.763 1.89411ZM381.893 18.7001C317.208 28.0371 254.876 52.7962 201.092 89.8662C122.978 143.53 63.2069 223.38 34.3769 313.7C15.3069 371.56 10.8769 433.39 16.7609 493.8C28.1129 591.56 74.0399 684.96 145.094 753.22C218.812 825.28 319.111 868.89 422.04 874.28C494.721 878.26 568.44 862.66 633.82 830.75C698.61 798.86 755.3 750.59 796.73 691.39C847.71 619.05 876.4 530.56 874.49 441.86C875.25 381.07 861.03 320.31 835.56 265.19C794.54 174.69 720.65 99.7911 631.05 56.8421C554.39 19.2531 466.272 6.52814 381.893 18.7001Z" fill="#F29901"/>
<path fill-rule="evenodd" clip-rule="evenodd" d="M422.461 120.796C487.129 116.194 553.22 131.63 608.99 164.78C672.48 202.26 722.99 261.67 748.5 330.95C771.25 391.34 775.13 458.58 759.82 521.28C742.27 593.68 698.93 659.74 638.97 704.07C583.06 746.53 512.85 769.58 442.678 768.99C381.16 769.02 319.885 750.44 268.372 716.91C198.406 672.13 147.066 599.28 128.441 518.34C110.889 443.49 120.894 362.51 156.725 294.45C207.511 195.96 311.472 126.92 422.461 120.796ZM248.777 199.39C193.318 243.37 153.678 306.77 138.238 375.8C123.906 439.37 130.034 507.23 155.652 567.17C162.541 583.71 171.888 599.04 180.197 614.86C180.682 614.89 181.685 614.93 182.17 614.96C218.832 674.59 278.203 719.4 344.257 741.89C408.614 763.76 480.206 763.94 544.56 741.96C611.45 719.3 671.03 673.58 708.21 613.37C709.42 612.43 711.88 610.5 713.09 609.53C717.87 597.28 724.82 586.07 730.26 574.13C757.89 513.88 765.67 444.67 751.62 379.85C737.39 310.81 698.48 247.38 644.2 202.53C588.11 156.27 515.55 129.27 442.575 131.11C372.644 130.38 303.164 155.71 248.777 199.39Z" fill="#F29901"/>
<path fill-rule="evenodd" clip-rule="evenodd" d="M435.977 149C437.396 149.41 440.267 150.28 441.72 150.69C445.007 163.1 449.988 174.99 454.936 186.81C502.505 305.24 550 423.71 597.64 542.11C602.8 554.8 608.06 567.48 612 580.61C557.2 547.68 502.851 513.95 448.397 480.49C444.522 477.21 439.748 477.32 436.012 480.6C389.238 511.11 342.188 541.28 295.415 571.87C288.565 576.4 281.369 580.37 274 584C324.51 449.05 374.777 313.99 425.322 179.03C429.127 169.11 432.656 159.09 435.977 149Z" fill="#F29901"/>
<path fill-rule="evenodd" clip-rule="evenodd" d="M381.452 18.4653C465.807 6.28833 553.9 19.0193 630.54 56.6233C720.12 99.5893 793.99 174.52 834.99 265.05C860.45 320.19 874.67 380.98 873.91 441.79C875.81 530.53 847.13 619.05 796.17 691.42C754.75 750.65 698.08 798.94 633.3 830.84C567.95 862.77 494.248 878.37 421.588 874.39C318.688 868.99 218.418 825.37 144.721 753.28C73.6873 684.99 27.7733 591.55 16.4243 493.75C10.5423 433.32 14.9713 371.46 34.0363 313.59C62.8583 223.23 122.611 143.35 200.703 89.6603C254.471 52.5753 316.785 27.8063 381.452 18.4653ZM361.558 46.7983C365.986 48.1823 370.45 49.4963 374.947 50.7073C373.01 57.1423 371.176 63.5423 369.481 70.0103C365.363 68.2113 361.246 66.4133 357.129 64.6833C359.966 68.5573 362.872 72.3633 365.848 76.1683C364.983 86.8923 357.51 100.073 369.273 107.303C372.353 100.73 375.363 94.1923 378.442 87.6533C385.154 88.8643 391.902 88.0683 398.337 85.9933C397.368 90.6983 391.936 98.2053 398.164 101.526C400.932 103.567 403.769 105.538 406.676 107.441C407.783 105.469 410.032 101.457 411.139 99.4853C408.578 97.2023 406.018 94.9183 403.493 92.6703C408.578 88.8993 413.665 85.1633 418.751 81.3923C413.215 79.6973 407.645 78.1063 402.074 76.5833C408.44 70.5293 415.429 64.6143 419.236 56.4843C420.481 52.6443 423.145 46.1413 418.613 43.6153C409.721 35.7283 397.714 42.0933 389.065 47.0053C397.887 46.4873 406.745 45.6223 415.602 46.0723C412.419 53.3713 408.89 60.5323 405.015 67.5203C405.257 61.7083 405.499 55.8963 405.707 50.1193C401.243 52.9213 396.849 55.7233 392.386 58.4913C394.289 59.0443 398.06 60.1173 399.963 60.6363C399.064 62.7803 397.265 67.0353 396.33 69.1463C392.559 62.1233 389.998 54.2013 384.013 48.6313C383.459 58.8713 385.224 72.0513 397.092 74.8883C396.745 76.1683 396.019 78.7283 395.638 79.9743C390.448 81.9113 385.258 83.8483 380.103 85.8203C381.037 82.5683 382.975 76.0993 383.943 72.8823C381.798 73.4703 377.543 74.7153 375.398 75.3033C376.435 62.6083 379.861 50.2923 385.293 38.7723C377.197 40.8823 369.239 43.4773 361.558 46.7983ZM495.147 51.9523C498.227 55.8963 501.41 59.8053 504.628 63.7153C499.369 71.3943 494.144 79.2133 487.051 85.3363C488.296 90.2133 490.13 98.7933 497.223 96.5793C507.6 95.0223 518.09 94.8843 528.26 97.7903C527.91 93.3963 527.98 88.9683 526.94 84.6783C521.55 79.8353 514.07 80.5623 507.43 79.9393C513.42 70.9103 519.54 62.0193 526.15 53.4053C522.69 51.0183 519.23 48.6313 515.73 46.3483C508.92 48.3553 501.998 50.1533 495.147 51.9523ZM242.5 77.1023C246.237 80.1123 250.042 83.1223 253.883 86.0273C257.412 87.8263 260.906 89.7293 264.332 91.7703C253.191 98.8283 244.541 108.894 235.026 117.854C237.552 118.857 242.638 120.829 245.164 121.832C249.697 117.854 253.606 113.253 257.654 108.825C261.114 113.426 264.609 118.027 268.069 122.628C264.678 111.004 276.753 106.023 284.296 100.73C280.144 110.036 268.622 116.782 271.321 128.09C274.92 126.33 278.518 124.6 282.151 122.905C279.971 128.02 277.757 133.11 275.542 138.2C271.978 134.53 268.415 130.83 264.851 127.23C264.436 132.18 264.159 137.16 263.951 142.14C267.411 143.45 270.837 144.98 274.47 145.91C277.722 141.31 280.179 136.22 282.912 131.35C285.473 137.5 288.206 143.7 291.043 149.78C293.188 150.06 297.444 150.61 299.589 150.93C294.918 142.8 290.593 134.36 288.379 125.22C291.043 126.54 296.406 129.17 299.07 130.52C302.634 128.09 307.582 126.33 307.201 121.106C300.385 116.989 292.669 119.895 285.542 121.071C285.888 112.942 287.929 105.089 290.317 97.3743C277.999 94.8843 269.591 105.054 260.388 111.247C263.502 94.6073 284.608 93.3613 296.752 85.3363C289.209 75.3033 276.477 82.3613 268.38 87.5843C266.373 83.9523 264.54 80.2163 262.775 76.4803C256.097 74.0233 248.278 70.9793 242.5 77.1023ZM609.33 85.2323C619.19 84.2293 629.08 83.2603 639.01 83.2263C629.64 89.5213 618.18 90.1443 607.35 91.6323C606.32 90.2133 604.21 87.3773 603.17 85.9583C595.04 93.4653 585.07 99.7273 580.02 109.932C581.85 110.762 585.59 112.457 587.43 113.322C593.58 107.925 597.74 100.592 604.24 95.5763C615.24 93.1543 627.56 95.1263 636.49 102.218C638.25 110.209 641.68 116.436 651.19 114.983C649.6 106.161 643.96 99.4853 636.87 94.4683C641.37 88.3113 649.36 79.1783 638.39 74.8543C631.92 76.6873 625.24 77.5173 618.6 78.3133C617.73 76.4453 615.97 72.6403 615.1 70.7713C613.1 75.5463 611.16 80.3543 609.33 85.2323ZM599.64 102.01C605.94 108.202 615.21 106.507 623.17 107.822C621.75 108.86 618.95 111.004 617.56 112.042C609.78 111.592 601.96 111.143 594.17 111.247C595.18 123.22 608.6 117.577 616.35 119.618C611.82 124.77 607.22 129.86 602.55 134.87C602.23 131.21 601.65 123.87 601.33 120.206C598.98 124.57 595.04 128.61 595.07 133.94C595.42 139.92 592.27 150.44 601.65 150.16C608.91 142.07 614.41 132.59 620.02 123.35C623.96 125.15 627.91 126.95 631.89 128.72C630.99 123.56 628.91 118.788 626.25 114.326C627.49 112.561 629.98 109.033 631.23 107.303C622.47 99.4853 610.4 100.488 599.64 102.01ZM422.038 120.794C311.111 126.92 207.208 195.93 156.45 294.39C120.639 362.43 110.64 443.38 128.182 518.21C146.797 599.13 198.108 671.95 268.034 716.71C319.519 750.23 380.761 768.81 442.244 768.78C512.38 769.36 582.55 746.32 638.43 703.88C698.35 659.56 741.67 593.52 759.21 521.15C774.51 458.47 770.63 391.25 747.9 330.88C722.4 261.63 671.92 202.23 608.46 164.76C552.72 131.62 486.671 116.194 422.038 120.794ZM144.409 143.8C146.831 151.03 149.772 158.09 152.713 165.14C150.014 169.19 147.35 173.27 144.686 177.32C136.382 175.42 127.836 175.31 122.023 182.51C128.251 183.06 134.479 183.55 140.707 184.31C137.351 190.26 133.856 196.14 130.327 202.02C132.541 202.19 136.936 202.57 139.115 202.75C140.845 198.94 142.541 195.17 144.305 191.37C148.872 192.47 153.509 193.51 158.145 194.48C162.678 200.43 167.937 206.17 169.459 213.78C161.951 207.69 154.858 200.4 144.686 199.39C148.803 203.23 153.059 206.86 157.349 210.53C155.308 212.78 153.267 215.03 151.225 217.31C154.097 218.11 159.806 219.66 162.678 220.46C167.072 228.62 168.214 238.31 173.335 246.3C175.653 245.99 180.289 245.37 182.607 245.02C179.32 240.52 175.895 236.1 172.089 232.01C172.608 227.9 173.404 223.82 174.442 219.77C173.853 212.71 173.265 205.65 172.643 198.6C185.479 201.26 195.202 210.05 207.208 214.61C206.204 210.81 204.959 207.07 203.54 203.44C195.997 200.85 188.455 198.22 181.708 193.89C181.777 191.44 181.915 186.52 181.984 184.1C185.964 187.87 190.358 191.23 195.686 192.89C195.859 189.95 196.136 184.14 196.309 181.23C188.42 179.6 186.656 173.65 188.005 166.39C184.372 167.22 177.071 168.91 173.404 169.75C176.345 173.17 179.286 176.66 182.227 180.12C174.096 182.79 169.425 189.33 166.933 197.21C165.549 194.31 164.165 191.4 162.816 188.5C164.027 188.18 166.518 187.56 167.729 187.25C165.896 180.75 164.062 174.28 162.401 167.77C165.93 163.21 168.871 158.23 171.155 152.9C166.76 155.01 162.436 157.22 158.145 159.51C154.824 153.17 153.024 144.56 144.409 143.8ZM719.11 148.33C722.99 151.13 726.86 153.83 730.88 156.56C720.43 161.13 709.08 163.62 699.49 170.02C690.71 175.94 678.8 179.81 675.97 191.37C689.84 188.46 701.4 179.88 710.98 169.81C711.22 172.62 711.67 178.19 711.88 180.95C718.07 169.61 727.07 160.06 740.49 158.02C738.14 147.85 727.49 147.99 719.11 148.33ZM750.67 179.98C746.65 177.6 742.64 175.25 738.59 172.96C740.98 172.06 745.68 170.26 748.04 169.36C738.56 169.47 725.76 164.24 720.22 174.97C723.68 174.86 730.67 174.69 734.16 174.59C732.64 178.22 731.15 181.89 729.7 185.55C721.85 185.52 713.51 184.03 706.48 188.6C709.87 190.74 716.66 195.07 720.08 197.21C711.33 195.9 702.54 194.83 693.68 194.69C697.76 203.58 708.49 200.74 716.17 202.47C710.67 209.25 697.18 217.73 705.03 227.34C717.8 234.95 733.75 235.3 747.97 232.6C751.43 227.97 753.26 222.4 755.61 217.17C741.33 225.03 724.51 227.03 709.08 221.22C713.51 215.17 718.25 209.32 723.06 203.54C729.35 204.41 735.69 205.17 742.09 205.69C736.07 199.5 728.52 195.28 721.43 190.54C728.97 191.64 736.38 193.27 743.82 195.03C742.85 189.88 740.46 184.86 741.6 179.57C746.31 182.86 750.94 186.21 755.55 189.71C754.09 191.37 751.15 194.65 749.7 196.31C753.78 198.46 757.41 203.3 762.57 201.43C761.74 194.58 758.8 188.36 755.86 182.23C756.45 176.01 756.76 169.75 756.55 163.48C753.5 168.53 751.53 174.14 750.67 179.98ZM202.952 185.04C202.225 195 211.81 195.28 219.041 196.11C219.214 193.82 219.629 189.29 219.837 187.01C214.197 186.18 208.592 185.45 202.952 185.04ZM177.071 212.16C180.497 220.67 184.718 229.94 195.963 227.14C191.188 220.46 185.306 214.34 177.071 212.16ZM785.75 383.99C785.96 387.1 786.41 393.33 786.62 396.44C788 395.61 790.8 393.95 792.19 393.15C798.8 395.68 805.4 398.2 812.05 400.8C805.92 405.19 799.83 409.59 793.78 414.05C792.53 413.18 790.08 411.45 788.83 410.55C789.52 415.15 790.25 419.76 790.94 424.39C802.29 413.84 814.61 403.01 830.63 401.04C832.08 403.25 835.02 407.68 836.47 409.9C835.47 403.25 834.57 396.65 833.81 390.01C825.16 407.06 803.88 395.37 790.7 390.39C789.49 388.79 787 385.58 785.75 383.99ZM58.7403 425.46C58.1523 423.08 56.9063 418.27 56.2833 415.88C55.1423 422.56 54.0003 429.23 52.9273 435.95C54.3113 434.25 57.0103 430.86 58.3593 429.17C75.4863 428.34 89.2572 439.41 100.433 451.06C100.052 448.23 99.2223 442.62 98.8413 439.82C97.5613 440.27 95.0353 441.17 93.7553 441.62C88.3583 437.78 82.9253 434.04 77.4583 430.38C84.2753 427.02 91.1953 423.84 98.0452 420.62C98.9102 422.52 100.571 426.33 101.402 428.23C101.817 422.59 102.301 416.99 102.889 411.38C89.6382 419.55 74.8983 427.37 58.7403 425.46ZM817.38 423.63C817.44 430.51 817.44 437.4 817.44 444.28C818.31 442.21 820.07 438.06 820.97 435.98C824.54 436.05 831.7 436.22 835.26 436.29C836.06 441.9 839.03 448.5 834.57 453.42C824.5 465.94 799.04 465.59 793.36 448.99C790.01 440.96 797.96 436.08 802.39 430.76C799.94 431.28 795.09 432.28 792.67 432.8C791.63 439.92 789.52 447.57 792.71 454.52C799.73 471.96 828.62 473.52 837.51 456.98C841.84 448.47 838.52 438.68 835.44 430.34C830.7 430.58 825.99 430.86 821.28 431.14C820.28 429.27 818.34 425.53 817.38 423.63ZM52.0972 449.85C52.3392 455.8 52.5813 461.79 52.7893 467.74C53.4463 465.66 54.6923 461.51 55.3153 459.4C67.8743 462.89 80.5383 465.97 93.1323 469.33C80.9873 473.1 68.8432 476.97 56.9752 481.64C55.9032 480.09 53.7922 477.01 52.7202 475.45C52.9622 480.23 53.1693 485.03 53.3773 489.84C69.1553 480.36 87.5963 477.32 104.412 470.26C88.4963 465.52 72.5113 461.13 56.4223 457.19C55.3493 455.35 53.1692 451.69 52.0972 449.85ZM807.2 475.66C792.05 476.32 785.44 492.47 790.73 505.27C799.45 519.63 823.71 522.22 833.98 508.28C837.06 501.54 836.51 493.16 834.47 486.21C828.55 477.63 817.13 474.45 807.2 475.66ZM100.71 490.95C92.4403 502.19 76.7662 499.05 64.6912 501.95C59.9162 503.99 57.0103 499.7 53.7583 497.25C54.6923 503.13 55.4193 508.97 56.1453 514.92C56.8023 512.43 58.1523 507.52 58.8443 505.03C69.6743 503.27 80.5033 501.61 91.4373 500.57C80.6763 513.06 68.7393 524.47 57.4253 536.48C73.5493 533.74 89.8453 532.05 106.142 530.66C106.003 527.65 105.657 521.64 105.519 518.59C104.17 522.15 102.855 525.72 101.505 529.32C90.7453 529.97 80.0193 531.08 69.2933 532.12C80.0883 521.19 90.9523 510.36 101.505 499.22C101.229 496.45 100.952 493.72 100.71 490.95ZM819.97 523.26C826.37 529.9 828.62 538.62 827.2 547.72C813.36 544.99 799.28 542.81 785.96 538.07C784.89 535.96 782.71 531.81 781.63 529.7C780.91 536.1 779.73 542.5 778 548.72C779.63 547.55 782.91 545.26 784.54 544.09C796.93 546.06 808.97 549.76 821.25 552.18C822.29 555.09 823.29 558.03 824.33 560.97C826.23 550.14 830.42 539.62 830.87 528.55C827.27 526.69 823.64 524.92 819.97 523.26ZM68.2902 555.43C64.2412 563.39 68.5323 572.11 71.1273 579.82C74.1713 579.93 80.2273 580.17 83.2373 580.27C77.8043 576.61 68.8433 574.6 69.1553 566.43C67.5633 556.61 78.0473 551.59 85.8313 549.21C94.9663 546.58 107.733 546.02 112.681 555.99C114.549 561.97 109.533 566.75 107.007 571.62C110.121 570.21 113.234 568.86 116.383 567.47C115.31 558.96 114.065 548.69 105.207 544.61C92.5782 539.97 74.8632 542.29 68.2902 555.43ZM782.84 558.3C770.77 561.11 765.3 576.5 771.6 586.78C779.83 602.9 808.97 606.46 816.3 587.95C823.4 568.61 800.21 552.67 782.84 558.3ZM115.484 579.03C102.128 583.63 89.7423 592.14 75.2793 592.62C77.0433 596.84 78.7393 601.13 80.4693 605.42C80.6763 603.8 81.0912 600.48 81.2642 598.81C87.3542 596.25 93.4433 593.73 99.5333 591.2C102.197 597.88 104.931 604.52 107.595 611.2C100.537 613.83 93.3403 616.25 85.8663 617.29C87.4233 621.44 88.8763 625.62 90.2263 629.85C90.9873 628.25 92.4753 625 93.2013 623.41C105.623 615.59 119.913 611.37 133.476 606.04C132.368 604.04 130.119 600.03 129.012 598.02C128.251 599.26 126.729 601.76 126.002 603C120.639 605.18 115.276 607.39 109.948 609.64C107.18 603.07 104.412 596.53 101.678 589.96C109.083 587.47 116.868 581.52 124.757 586.19C122.715 581.97 120.812 577.71 118.944 573.49C118.078 574.88 116.349 577.64 115.484 579.03ZM760.49 594.46C759.28 597.88 758.11 601.27 756.86 604.7C758.45 603.8 761.63 601.96 763.19 601.06C773.05 606.18 782.95 611.3 792.74 616.6C777.45 619.43 762.02 621.65 746.69 624.28C745.48 626.07 743.02 629.74 741.81 631.54C762.81 628.67 783.47 623.62 804.37 620.09C789.9 611.27 772.74 606.53 760.49 594.46ZM136.209 610.75C135.967 613.17 135.448 617.98 135.206 620.4C124.03 627.32 112.093 632.92 100.537 639.22C98.0113 637.11 95.4853 635 92.9593 632.89C96.8003 639.46 100.571 646.14 104.273 652.82C104.17 650.43 103.962 645.62 103.893 643.23C115.518 637.49 126.452 630.26 138.527 625.42L145.793 630.54C142.298 624.03 138.908 617.6 136.209 610.75ZM113.234 657.97C111.262 657.83 107.318 657.56 105.311 657.42C108.979 661.84 112.474 666.41 116.003 671.01C115.138 668.76 113.477 664.23 112.646 661.95C122.092 655.38 131.642 648.94 141.364 642.78C136.451 658.8 130.431 674.44 125.449 690.45C139.738 681.98 152.367 670.67 167.833 664.34C166.38 661.46 164.961 658.66 163.543 655.83C163.301 657.69 162.851 661.4 162.609 663.23C153.059 669.46 143.544 675.79 134.029 682.05C139.427 665.06 147.869 648.84 149.53 630.88C139.427 642.23 126.59 650.84 113.234 657.97ZM733.71 643.82C740.98 646.04 747.76 649.77 753.23 655.17C751.36 657.24 747.69 661.36 745.82 663.44C747.17 665.03 748.56 666.65 749.94 668.28C751.32 665.13 754.13 658.87 755.51 655.72C762.02 660.46 768.83 665.13 773.36 671.98C775.51 668.38 777.79 664.85 780.18 661.4C769.63 662.81 762.19 653.99 753.92 649.01C748.49 644.41 739.49 641.23 740.77 632.27C738.45 636.14 736.1 639.98 733.71 643.82ZM702.43 697.72C705.27 709.27 716.9 719.96 729.42 718.27C738.45 718.86 744.72 711.14 748.56 703.95C746.96 700.18 744.89 696.68 742.99 693.12C744.16 701.04 745.68 710.8 736.34 714.43C720.95 717.06 705.93 702.29 704.55 687.41C705.41 677.24 716.17 677.24 723.89 677.2C722.12 676.58 718.56 675.37 716.79 674.78C718.83 671.95 720.88 669.14 722.99 666.34C734.2 673.09 744.79 680.87 755.65 688.17C755.58 690.28 755.44 694.47 755.34 696.58C758.45 691.7 761.63 686.89 764.82 682.08C763.09 682.64 759.63 683.74 757.9 684.3C753.12 680.56 748.45 676.69 744.51 672.08C736.72 668.07 724.34 665.17 726.59 653.89C720.01 669.56 697.97 678.31 702.43 697.72ZM144.201 708.34C146.9 715.95 153.232 723.66 161.536 725.01C167.66 722.28 173.473 718.93 179.666 716.36C175.03 712.42 170.601 708.27 166.034 704.26C167.349 706.37 169.978 710.55 171.293 712.66C165.377 715.74 158.457 725.95 152.609 717.44C138.32 700.56 167.314 672.12 184.441 686.23C191.153 690.63 186.967 700.35 188.385 706.92C194.544 699.03 192.468 688.31 183.991 683.02C167.418 669.18 139.254 687.89 144.201 708.34ZM634.03 741.72C635.97 745.53 637.94 749.37 639.81 753.24C640.4 746.77 642.47 740.72 646.56 735.6C655.79 746.46 663.96 758.22 672.09 769.95C670.74 771.89 668.08 775.69 666.73 777.63C672.85 773.51 678.94 769.4 685.27 765.66C683.13 765.52 678.87 765.25 676.73 765.14C667.39 755.63 660.67 743.97 652.75 733.32C654.76 731.69 658.74 728.4 660.74 726.78C663.51 728.89 666.28 731.07 669.01 733.28C667.39 729.82 666.94 726.29 667.7 722.76C668.63 722.66 670.46 722.45 671.4 722.35C680.12 731.24 688.87 740.3 696.28 750.37C696.21 752.2 696.14 755.87 696.1 757.7C703.99 749.13 712.71 741.38 721.36 733.59C718.7 729.65 716.07 725.67 713.51 721.69C714.09 726.22 714.89 730.76 714.99 735.36C711.43 740.1 706.9 743.97 702.75 748.16C697.66 742.76 692.61 737.29 687.59 731.86C692.92 727.64 698.28 722.52 705.69 724.53C702.3 720.93 699.04 717.2 695.96 713.39C698.53 720.62 692.71 728.47 685.45 728.85C680.98 724.91 677.25 720.27 673.34 715.92C677.14 712.39 680.95 708.89 684.75 705.43C687.45 705.99 692.85 707.13 695.55 707.68C692.95 705.23 690.36 702.84 687.8 700.42C670.43 714.84 654.13 731.14 634.03 741.72ZM221.394 720.55C222.605 722.49 225.061 726.4 226.272 728.37C217.691 738.4 210.633 749.71 201.257 759.02C199.008 758.85 194.544 758.47 192.295 758.29C196.655 761.41 200.841 764.76 204.855 768.33C210.252 753.38 222.432 742.55 231.67 730.03C234.646 733.7 240.493 736.4 240.25 741.86C234.265 753.35 226.549 763.79 219.594 774.72C217.864 774.97 214.439 775.49 212.709 775.76C217.934 778.12 223.158 780.61 228.314 783.17C226.099 780.57 223.85 778.01 221.636 775.45C228.002 765.9 234.195 756.29 240.285 746.63C242.154 763.14 242.777 779.78 244.541 796.31C255.717 784.03 260.457 766.18 274.643 756.84C270.525 754.63 266.512 752.31 262.568 749.89C263.709 751.72 265.993 755.39 267.169 757.22C262.568 767.56 255.509 776.56 248.658 785.52C247.655 770.23 247.032 754.94 245.752 739.68C237.586 733.35 229.594 726.78 221.394 720.55ZM275.577 766.42C266.339 776.42 278.656 788.08 280.836 798.53C279.868 805.79 271.252 807.52 265.785 803.92C263.605 798.66 263.709 792.75 262.741 787.25C261.391 791.95 259.973 796.62 259.142 801.47C263.502 807.73 271.425 808.97 278.483 807.59C285.126 803.2 288.932 794.1 283.812 787.11C281.39 780.4 271.356 768.78 282.739 765.21C292.427 762.89 291.354 773.45 292.842 779.64C294.122 776.21 295.403 772.79 296.717 769.4C291.285 763.9 281.77 758.95 275.577 766.42ZM581.34 771.02C591.99 781.78 595.87 796.9 603.1 809.84C601.85 811.39 599.33 814.47 598.05 816.03C603.89 813.3 609.78 810.6 615.76 808.18C605.04 809.42 603.65 796.93 598.95 790.19C602.99 788.08 607.11 786 611.19 783.96C612.96 785.73 616.52 789.22 618.29 790.95C615.35 785.03 612.54 779.05 610.09 772.93C612.51 781.96 604.9 785 598.22 788.08C595.56 782.13 592.93 776.18 590.3 770.23C595.24 768.05 600.16 765.83 605.14 763.69C606.94 765.56 610.57 769.29 612.41 771.16C610.88 767.29 609.4 763.48 607.91 759.68C599.09 763.55 590.33 767.56 581.34 771.02ZM296.891 781.26C302.288 778.81 307.72 775.42 313.948 776.87C313.395 791.12 305.54 803.65 301.008 816.86C298.759 817.03 294.226 817.41 291.977 817.59C297.79 820.04 303.603 822.57 309.277 825.34C305.194 809.46 316.958 795.34 320.903 780.61C328.515 781.99 331.283 787.46 330.937 794.75C332.424 791.3 333.843 787.35 338.307 787.21C339.379 787.56 341.559 788.25 342.631 788.6C338.237 800.98 335.573 813.99 330.487 826.1C328.826 827 325.539 828.73 323.878 829.59C330.348 831.11 336.784 832.91 343.219 834.61C341.316 833.36 337.511 830.87 335.573 829.59C340.555 816.27 341.04 800.43 350.139 789.15C351.385 789.84 353.807 791.26 355.018 791.95C354.983 794.96 354.291 797.94 352.977 800.81C357.959 796.24 363.772 792.68 370.796 795C367.924 808 365.052 821.01 362.803 834.16C359.931 835.23 357.094 836.34 354.222 837.44C360.312 838.72 366.402 840.11 372.422 841.63C363.91 827.72 374.844 811.29 375.882 796.38C378.581 797.11 383.978 798.53 386.677 799.25C387.127 801.81 388.026 807 388.511 809.56C389.791 804.86 391.106 800.19 392.49 795.52C376.851 796.21 362.457 789.53 347.406 786.59C332.874 781.06 317.304 778.43 303.707 770.57C301.457 774.14 299.174 777.7 296.891 781.26ZM558.19 779.67C540.54 783.93 539.26 809.28 550.71 820.74C558.5 831.01 576.77 830.14 583 818.73C593.17 802.43 578.6 774.93 558.19 779.67ZM434.009 799.49C433.179 803.75 432.349 808.04 431.484 812.36C435.809 807.21 440.895 802.88 447.676 801.5C448.853 815.44 448.853 829.49 449.06 843.5C446.396 844.74 443.767 846.06 441.137 847.37C447.469 847.34 453.801 847.34 460.167 847.34C458.195 845.37 456.292 843.43 454.389 841.49C454.251 828.31 453.835 815.13 453.904 801.95C461.274 801.5 466.187 805.1 468.367 811.91C467.571 806.72 469.232 803.16 473.315 801.26C479.197 813.82 477.813 828.38 481.1 841.73C479.093 842.88 475.079 845.16 473.073 846.33C485.425 845.12 497.811 843.77 510.13 842.18C510.09 837.31 510.06 832.43 510.06 827.58C508.3 831.94 506.57 836.3 504.835 840.7C498.573 841.39 492.31 842.08 486.047 842.74C485.217 835.71 484.491 828.69 483.833 821.67C491.272 821.22 499.576 820.08 502.344 828.9C501.099 822.19 500.199 815.34 499.369 808.59C498.296 812.36 497.223 816.13 496.151 819.91C492.864 819.94 486.324 819.94 483.038 819.94C482.311 813.37 481.55 806.83 480.788 800.29C486.428 799.6 492.068 798.94 497.708 798.32C499.438 801.54 501.202 804.82 502.932 808.11C502.552 803.92 502.206 799.77 501.86 795.65C479.37 798.39 456.672 801.95 434.009 799.49ZM395.777 796.97C395.95 809.11 394.185 821.19 394.047 833.33C391.556 848.76 419.201 851.84 421.796 837.69C423.941 825.23 424.529 812.5 427.159 800.12C424.668 799.98 419.685 799.74 417.194 799.6C418.889 800.71 422.315 802.95 424.01 804.06C422.592 816.03 421.934 828.17 418.993 839.93C413.872 846.33 405.499 842.88 398.925 841.56C398.925 830.7 399.341 819.8 400.794 809.04C400.967 804.68 403.077 801.43 407.125 799.36C403.319 798.6 399.548 797.76 395.777 796.97Z" fill="#980165"/>
<path fill-rule="evenodd" clip-rule="evenodd" d="M149 182.4C151.324 179.07 154.791 176.57 158 174C157.742 179 157.336 184 156.783 189C154.828 187.33 150.955 184.03 149 182.4Z" fill="#980165"/>
<path fill-rule="evenodd" clip-rule="evenodd" d="M792.491 486.069C805.211 479.809 819.301 481.449 832.161 486.419C834.291 493.369 838.141 503.089 830.271 508.089C818.741 515.899 804.621 510.349 793.051 505.729C791.821 499.219 791.721 492.609 792.491 486.069Z" fill="#980165"/>
<path fill-rule="evenodd" clip-rule="evenodd" d="M381 542.06C386.13 534.55 399.399 527.91 404.973 538.53C408.598 551.96 393.961 560.56 387.19 569.85C394.782 569.2 402.374 568.66 410 568.22C402.237 575.6 390.815 571.99 381.239 572.88C388.831 562.81 405.862 553.39 400.083 538.87C394.235 532.85 386.95 540.26 381 542.06Z" fill="#980165"/>
<path fill-rule="evenodd" clip-rule="evenodd" d="M418.893 535.93C423.076 533.46 428.158 533.32 432.756 532C436.317 538.29 438.841 545.11 439.394 552.44C445.789 544.27 450.491 527.97 463.973 534.33C473.169 544.66 473.826 563.6 463.04 572.96C450.145 577.86 445.167 564.44 443.819 554.36C442.505 555.16 439.877 556.72 438.564 557.49C439.394 565.45 434.969 575.88 425.289 572.85C419.135 574.28 416.75 567.95 415.298 563.26C412.844 554.18 413.777 543.93 418.893 535.93ZM420.103 537.32C418.651 548.51 418.548 559.88 420.622 571.01C423.63 570.66 429.645 570 432.652 569.65C437.319 558.35 434.934 545.87 432.652 534.33C428.435 535.3 424.252 536.31 420.103 537.32ZM454.017 536.49C448.382 541.28 449.108 549.94 449.039 556.72C449.765 562.07 449.938 569.97 456.402 571.71C468.882 571.46 466.082 555.05 465.874 546.5C467.292 540.24 459.479 531.34 454.017 536.49Z" fill="#980165"/>
<path fill-rule="evenodd" clip-rule="evenodd" d="M480.827 533C487.551 533.32 494.276 533.7 501 534.64C494.924 536.32 488.643 536.85 482.431 537.44C482.09 539.89 481.407 544.76 481.066 547.17C487.517 547.35 497.143 546.05 499.396 554.38C504.653 568.79 483.66 580.97 474 569.39C481.68 568.97 493.047 574.6 495.948 563.82C498.782 552.24 486.869 549.62 478.403 550.35C479.188 544.55 479.974 538.77 480.827 533Z" fill="#980165"/>
<path fill-rule="evenodd" clip-rule="evenodd" d="M778.429 564.589C795.219 558.339 821.939 571.199 814.819 591.469C801.879 597.439 786.149 596.009 775.839 585.869C768.689 580.449 769.389 567.659 778.429 564.589Z" fill="#980165"/>
<path fill-rule="evenodd" clip-rule="evenodd" d="M546.52 573.83C554.19 570.78 562.42 565.64 570.86 569.22C616.46 583.49 662.75 595.81 708 611.05C680.52 613.3 652.86 612.78 625.31 613.65C608.4 614.45 590.46 611.78 574.73 619.45C537.05 636.63 499.123 653.22 461.303 670.09C461.13 682.73 461.13 695.36 461.026 708C447.198 707.9 433.404 707.9 419.611 707.9C419.956 695.12 420.094 682.35 420.094 669.61C382.931 653.12 345.594 637.05 308.638 620.18C301.655 617.12 294.395 614 286.651 613.96C251.769 613.23 216.853 616.5 181.971 614.73C181.487 614.69 180.484 614.66 180 614.62C225.53 600.63 271.06 586.61 316.555 572.59C325.44 568.49 334.29 573.49 342.414 576.92C375.36 591.5 408.582 605.46 441.736 619.55C476.549 604.07 511.78 589.49 546.52 573.83ZM539.16 594.25C506.97 608.72 474.751 623.09 442.566 637.53C402.049 619.66 361.289 602.37 320.772 584.56C312.96 588.14 305.181 591.71 297.368 595.25C345.249 616.81 393.371 637.85 441.528 658.81C489.374 635.83 538.64 615.77 585.93 591.68C578.15 589.28 570.55 586.26 562.49 584.98C554.23 586.57 546.83 590.98 539.16 594.25Z" fill="#980165"/>
<path fill-rule="evenodd" clip-rule="evenodd" d="M552.402 783.217C572.182 775.977 585.672 802.517 579.482 818.977C577.832 826.177 569.212 826.737 563.392 825.457C549.332 817.137 545.372 797.637 552.402 783.217Z" fill="#980165"/>
</svg>
