<svg xmlns="http://www.w3.org/2000/svg" xmlns:xlink="http://www.w3.org/1999/xlink" width="78.60000228881836" height="78.5999984741211" viewBox="0 0 78.60000228881836 78.5999984741211" fill="none">
<path d="M39.3 0C61 0 78.6 17.6 78.6 39.3C78.6 61 61 78.6 39.3 78.6C17.6 78.6 3.8147e-06 61 3.8147e-06 39.3C3.8147e-06 17.6 17.6 0 39.3 0ZM39.3 11.8C24.1 11.8 11.8 24.1 11.8 39.3C11.8 54.5 24.1 66.8 39.3 66.8C54.5 66.8 66.8 54.5 66.8 39.3C66.8 24.1 54.5 11.8 39.3 11.8Z" fill-rule="evenodd"  fill="#AB1F24" >
</path>
<circle cx="28.62045537433147" cy="65.08144246539592" transform="rotate(-45 2.8207054138183594 39.28169250488281)" r="25.79974996051311"   fill="#AB1F24" >
</circle>
<path d="M39.3 2.39999C59.7 2.39999 76.2 18.9 76.2 39.3C76.2 59.7 59.7 76.2 39.3 76.2C18.9 76.2 2.4 59.7 2.4 39.3C2.40001 18.9 18.9 2.39999 39.3 2.39999ZM39.3 13.4C25 13.4 13.5 25 13.5 39.2C13.5 53.5 25.1 65 39.3 65C53.5 65 65.1 53.4 65.1 39.2C65.1 25 53.6 13.4 39.3 13.4Z" fill-rule="evenodd"  fill="#FFFFFF" >
</path>
<path d="M39.5 23.9C39.5 23.9 38.9 21.3 36.8 20.8C37.6 19.2 38.8 16.7 39.1 16.4C39.4 16.1 39.7 16.2 40 16.7C40.3 17.3 41.7 20.2 42 20.8C41.5 20.8 40 21.5 39.5 23.9Z" fill-rule="evenodd"  fill="#FFFFFF" >
</path>
<path d="M48.5 25.4L40.9 25.4C40.7 25.4 39.3 26 39.4 27.9C39.5 29.8 40.8 30.1 41.2 30C41.6 30 47.5 30 48.5 30C47.1 28.9 46.4 27.2 48.5 25.4Z" fill-rule="evenodd"  fill="#FFFFFF" >
</path>
<path d="M49.8 30.7L40.9 30.7C40.7 30.7 39.3 31.3 39.4 33.2C39.5 35.1 40.8 35.4 41.2 35.3C41.6 35.3 48.8 35.3 49.8 35.3C48.4 34.1 47.8 32.4 49.8 30.7Z" fill-rule="evenodd"  fill="#FFFFFF" >
</path>
<path d="M51.3 35.8L41 35.8C40.8 35.8 39.4 36.4 39.5 38.3C39.6 40.2 40.9 40.5 41.3 40.4C41.7 40.3 50.3 40.4 51.3 40.4C49.9 39.3 49.2 37.6 51.3 35.8Z" fill-rule="evenodd"  fill="#FFFFFF" >
</path>
<path d="M52.7 41.2L40.9 41.2C40.7 41.2 39.3 41.8 39.4 43.7C39.5 45.6 40.8 45.9 41.2 45.8C41.6 45.8 51.7 45.8 52.7 45.8C51.3 44.6 50.6 42.9 52.7 41.2Z" fill-rule="evenodd"  fill="#FFFFFF" >
</path>
<path d="M54.1 46.3L40.9 46.3C40.7 46.3 39.3 46.9 39.4 48.8C39.5 50.7 40.8 51 41.2 50.9C41.6 50.9 53.1 50.9 54.1 50.9C52.7 49.8 52 48.1 54.1 46.3Z" fill-rule="evenodd"  fill="#FFFFFF" >
</path>
<path d="M55.6 51.5L41 51.5C40.8 51.5 39.4 52.1 39.5 54C39.6 55.9 40.9 56.2 41.3 56.1C41.7 56.1 54.6 56.1 55.6 56.1C54.2 55 53.5 53.3 55.6 51.5Z" fill-rule="evenodd"  fill="#FFFFFF" >
</path>
<path d="M30.3 25.4L37.9 25.4C38.1 25.4 39.5 26 39.4 27.9C39.3 29.8 38 30.1 37.6 30C37.2 30 31.3 30 30.3 30C31.7 28.9 32.4 27.2 30.3 25.4Z" fill-rule="evenodd"  fill="#FFFFFF" >
</path>
<path d="M29 30.7L37.9 30.7C38.1 30.7 39.5 31.3 39.4 33.2C39.3 35.1 38 35.4 37.6 35.3C37.2 35.3 30 35.3 29 35.3C30.4 34.1 31.1 32.4 29 30.7Z" fill-rule="evenodd"  fill="#FFFFFF" >
</path>
<path d="M27.6 35.8L37.9 35.8C38.1 35.8 39.5 36.4 39.4 38.3C39.3 40.2 38 40.5 37.6 40.4C37.2 40.4 28.6 40.4 27.6 40.4C29 39.3 29.6 37.6 27.6 35.8Z" fill-rule="evenodd"  fill="#FFFFFF" >
</path>
<path d="M26.1 41.2L37.9 41.2C38.1 41.2 39.5 41.8 39.4 43.7C39.3 45.6 38 45.9 37.6 45.8C37.2 45.8 27.1 45.8 26.1 45.8C27.5 44.6 28.2 42.9 26.1 41.2Z" fill-rule="evenodd"  fill="#FFFFFF" >
</path>
<path d="M24.7 46.3L37.9 46.3C38.1 46.3 39.5 46.9 39.4 48.8C39.3 50.7 38 51 37.6 50.9C37.2 50.9 25.7 50.9 24.7 50.9C26.1 49.8 26.8 48.1 24.7 46.3Z" fill-rule="evenodd"  fill="#FFFFFF" >
</path>
<path d="M23.3 51.5L37.9 51.5C38.1 51.5 39.5 52.1 39.4 54C39.3 55.9 38 56.2 37.6 56.1C37.2 56.1 24.3 56.1 23.3 56.1C24.7 55 25.3 53.3 23.3 51.5Z" fill-rule="evenodd"  fill="#FFFFFF" >
</path>
<path d="M36.9 61.9L36.5 61.9L36.5 60.3C36.3 60.4 36.2 60.5 36 60.6L36 60.2C36.1 60.2 36.2 60.1 36.4 60C36.5 59.9 36.6 59.8 36.7 59.7L37 59.7L37 61.9L36.9 61.9ZM37.8 61.4L38.2 61.4C38.2 61.5 38.2 61.5 38.3 61.6C38.3 61.6 38.4 61.7 38.5 61.7C38.6 61.7 38.7 61.7 38.7 61.6C38.8 61.5 38.8 61.4 38.8 61.1C38.7 61.2 38.6 61.3 38.4 61.3C38.2 61.3 38.1 61.2 38 61.1C37.9 61 37.8 60.8 37.8 60.6C37.8 60.4 37.9 60.2 38 60.1C38.1 60 38.3 59.9 38.5 59.9C38.7 59.9 38.9 60 39 60.2C39.1 60.4 39.2 60.6 39.2 61C39.2 61.4 39.1 61.7 39 61.9C38.9 62.1 38.7 62.2 38.4 62.2C38.2 62.2 38.1 62.2 38 62.1C37.9 61.7 37.8 61.5 37.8 61.4ZM38.7 60.5C38.7 60.4 38.7 60.3 38.6 60.2C38.5 60.1 38.5 60.1 38.4 60.1C38.3 60.1 38.3 60.1 38.2 60.2C38.1 60.3 38.1 60.4 38.1 60.5C38.1 60.6 38.1 60.7 38.2 60.8C38.3 60.9 38.3 60.9 38.4 60.9C38.5 60.9 38.5 60.9 38.6 60.8C38.7 60.7 38.7 60.6 38.7 60.5ZM39.7 60.1L39.7 59.7L41.1 59.7L41.1 60C41 60.1 40.9 60.3 40.7 60.5C40.6 60.7 40.5 60.9 40.4 61.2C40.3 61.4 40.3 61.7 40.3 61.8L40 61.8C40 61.5 40.1 61.2 40.2 60.9C40.3 60.6 40.5 60.3 40.7 60.1L39.7 60.1ZM42 60.7C41.9 60.7 41.8 60.6 41.8 60.5C41.8 60.4 41.7 60.3 41.7 60.2C41.7 60 41.8 59.9 41.9 59.8C42 59.7 42.2 59.6 42.4 59.6C42.6 59.6 42.8 59.7 42.9 59.8C43 59.9 43.1 60 43.1 60.2C43.1 60.3 43.1 60.4 43 60.5C42.9 60.6 42.9 60.6 42.8 60.7C42.9 60.7 43 60.8 43.1 60.9C43 61 43 61.1 43 61.2C43 61.4 42.9 61.6 42.8 61.7C42.7 61.8 42.5 61.9 42.3 61.9C42.1 61.9 41.9 61.8 41.8 61.7C41.6 61.6 41.6 61.4 41.6 61.2C41.6 61.1 41.6 61 41.7 60.9C41.8 60.8 41.9 60.7 42 60.7ZM42.1 60.3C42.1 60.4 42.1 60.4 42.2 60.5C42.2 60.5 42.3 60.6 42.4 60.6C42.5 60.6 42.5 60.6 42.6 60.5C42.6 60.5 42.7 60.4 42.7 60.3C42.7 60.2 42.7 60.2 42.6 60.1C42.6 60.1 42.5 60 42.4 60C42.3 60 42.3 60 42.2 60.1C42.1 60.1 42.1 60.2 42.1 60.3ZM42 61.2C42 61.3 42 61.4 42.1 61.5C42.2 61.6 42.2 61.6 42.3 61.6C42.4 61.6 42.5 61.6 42.5 61.5C42.6 61.4 42.6 61.4 42.6 61.2C42.6 61.1 42.6 61 42.5 61C42.4 60.9 42.4 60.9 42.3 60.9C42.2 60.9 42.1 60.9 42.1 61C42.1 61 42 61.1 42 61.2Z" fill-rule="evenodd"  fill="#FFFFFF" >
</path>
<path d="M10.4 40.8L6.90001 39.8L4.90001 39.8L4.90001 38.6L6.90001 38.6L10.4 37.7L10.4 39C9.3 39.2 8.60001 39.3 8.20001 39.3C8.8 39.4 9.50001 39.5 10.4 39.7L10.4 40.8ZM10.8 45.8L7.10001 46.2C6.70001 46.2 6.40001 46.3 6.20001 46.3C6.00001 46.3 5.80001 46.2 5.70001 46.1C5.50001 46 5.40001 45.9 5.20001 45.7C5.10001 45.5 5.00001 45.3 5.00001 45C5.00001 44.7 5.00001 44.4 5.10001 44.2C5.20001 44 5.30001 43.8 5.50001 43.6C5.70001 43.5 5.80001 43.4 6.00001 43.3C6.20001 43.3 6.60001 43.2 7.20001 43.1L10.5 42.8L10.6 44.1L6.50001 44.5C6.30001 44.5 6.10001 44.6 6.00001 44.6C6.00001 44.7 6.00001 44.8 6.00001 44.8C6.00001 44.9 6.00001 45 6.10001 45C6.20001 45 6.40001 45 6.60001 45L10.7 44.6L10.8 45.8ZM12.2 49.8L9.70001 50.2L7.00001 51.9L6.60001 50.8C7.10001 50.5 7.70001 50.1 8.40001 49.8C8.10001 49.9 7.70001 50 7.30001 50L6.40001 50.2L6.00001 48.9L9.10001 48.3L11.3 47.1L11.7 48.3C11.6 48.4 11.3 48.5 11 48.7C10.8 48.8 10.5 49 10.3 49.1L11.8 48.9L12.2 49.8ZM13.6 53L13 51.8L8.00001 54.1L8.60001 55.3L13.6 53ZM17.9 58.7L13.8 62.5L13 61.7L14.4 59.5L12.6 61.2L11.9 60.4L16 56.6L16.7 57.4L15.4 59.6L17.2 57.9L17.9 58.7ZM19.6 64.5L20.2 63.7C20.5 63.2 20.8 62.9 20.9 62.7C21 62.5 21.1 62.3 21.1 62.1C21.1 61.9 21.1 61.6 20.9 61.4C20.8 61.2 20.6 61 20.4 60.9C20.2 60.7 19.9 60.6 19.7 60.6C19.5 60.6 19.2 60.6 19 60.7C18.8 60.8 18.6 60.9 18.4 61.1C18.2 61.3 18 61.6 17.7 62L17.1 62.8C16.8 63.3 16.5 63.6 16.4 63.8C16.3 64 16.2 64.2 16.2 64.5C16.2 64.8 16.2 65 16.4 65.2C16.5 65.4 16.7 65.6 16.9 65.7C17.1 65.9 17.4 66 17.6 66C17.8 66 18.1 66 18.3 65.9C18.5 65.8 18.7 65.7 18.9 65.5C19 65.3 19.3 65 19.6 64.5ZM19.6 62.3C19.8 62.1 19.8 61.9 19.9 61.9C19.9 61.8 19.9 61.8 19.8 61.7C19.7 61.7 19.7 61.7 19.6 61.7C19.5 61.7 19.4 61.9 19.3 62.1L17.8 64.2C17.6 64.5 17.5 64.6 17.5 64.7C17.5 64.8 17.5 64.8 17.6 64.9C17.7 65 17.7 65 17.8 64.9C17.9 64.8 18 64.7 18.2 64.4L19.6 62.3ZM23.5 63.2L24.3 63.7C24.8 64 25.2 64.3 25.3 64.4C25.5 64.6 25.5 64.8 25.5 65C25.5 65.3 25.4 65.6 25.1 66C24.9 66.4 24.7 66.6 24.5 66.7C24.3 66.8 24.1 66.8 23.9 66.6C24.1 66.8 24.2 67 24.2 67.1C24.2 67.2 24.2 67.4 24.2 67.5C24.2 67.6 24 67.8 23.8 68.2L23 69.5L22 68.9L23 67.3C23.2 67 23.2 66.9 23.2 66.8C23.2 66.7 23.1 66.6 23 66.5L21.7 68.6L20.6 68L23.5 63.2ZM24.1 64.7L23.5 65.8C23.6 65.9 23.7 65.9 23.8 65.9C23.9 65.9 24 65.8 24.1 65.6L24.3 65.3C24.4 65.1 24.4 65 24.4 65C24.3 64.9 24.2 64.8 24.1 64.7ZM31.5 66.8L29.5 72L28.4 71.6L29.7 68.1L28 71.4L27.2 71.1L28.1 67.5L26.8 71L25.7 70.6L27.7 65.4L29.3 66C29.2 66.3 29.1 66.7 29 67.2L28.7 68.6L29.9 66.3L31.5 66.8ZM35.6 67.6L35.3 73.2L34 72.9L34.1 71.9L33.6 71.8L33.3 72.8L32 72.5L33.7 67.2L35.6 67.6ZM34.3 71C34.4 70.4 34.4 69.6 34.5 68.7C34.2 69.7 33.9 70.5 33.8 70.9L34.3 71ZM39.3 67.8L39.2 72.2L40 72.2L40 73.3L37.9 73.3L38 67.7L39.3 67.8ZM46.8 67.2L47.3 70.9C47.4 71.3 47.4 71.6 47.4 71.8C47.4 72 47.4 72.2 47.3 72.4C47.2 72.6 47.1 72.8 46.9 72.9C46.7 73 46.5 73.1 46.2 73.1C45.9 73.1 45.6 73.1 45.4 73C45.2 72.9 45 72.8 44.8 72.6C44.7 72.4 44.6 72.3 44.5 72.1C44.5 71.9 44.4 71.5 44.3 70.9L43.8 67.6L45.1 67.4L45.7 71.5C45.7 71.7 45.8 71.9 45.8 72C45.8 72.1 45.9 72.1 46 72.1C46.1 72.1 46.1 72 46.1 72C46.1 71.9 46.1 71.7 46.1 71.5L45.5 67.4L46.8 67.2ZM51.2 65.7L53 71L52 71.4L50.5 69.2L51.3 71.6L50.3 72L48.5 66.7L49.5 66.3L51 68.4L50.2 66L51.2 65.7ZM54.5 64.1L56.8 69.1L55.6 69.7L53.3 64.7L54.5 64.1ZM58.4 61.3L57.3 62.1L57.8 63C58.2 63.7 58.8 64.5 59.3 65.4C58.6 64.6 57.7 63.6 56.7 62.5L55.6 63.3L59.5 67.3L61.1 66.1L58.4 61.3ZM59.3 60.4L60.7 58.7L61.6 59.4L61 60.1L61.8 60.8L62.3 60.2L63.1 60.9L62.6 61.5L63.5 62.3L64.1 61.6L65 62.3L63.5 64L59.3 60.4ZM62.1 57L66.7 60.1L67.4 59L65.3 57.6C65.4 57.5 65.5 57.4 65.6 57.4C65.7 57.4 65.8 57.5 66.1 57.7L67.6 58.7L68.3 57.7L67.1 56.9C66.7 56.6 66.5 56.5 66.4 56.5C66.3 56.5 66.2 56.4 66 56.5C65.9 56.5 65.7 56.6 65.5 56.8C65.6 56.5 65.7 56.3 65.6 56.2C65.5 56 65.3 55.8 65 55.6C64.6 55.3 64.3 55.2 64 55.2C63.7 55.2 63.5 55.3 63.4 55.4C63.2 55.6 63 55.9 62.6 56.4L62.1 57ZM63.6 56.4C63.7 56.3 63.8 56.2 63.8 56.2C63.9 56.2 64 56.2 64.1 56.3L64.4 56.5C64.6 56.6 64.7 56.7 64.7 56.8C64.7 56.9 64.7 57 64.6 57.1L63.6 56.4ZM67.3 51.1L66.8 52.2L66.4 52C66.3 52 66.2 52 66.1 52C66 52 66 52 66 52.1C66 52.2 66 52.2 66 52.3C66.1 52.4 66.1 52.4 66.3 52.5C66.5 52.6 66.6 52.6 66.7 52.6C66.8 52.6 67 52.5 67.2 52.4C67.8 52 68.2 51.8 68.5 51.7C68.8 51.6 69.2 51.7 69.7 51.9C70.1 52 70.3 52.2 70.5 52.3C70.6 52.4 70.7 52.7 70.8 52.9C70.8 53.2 70.8 53.5 70.7 53.7C70.6 54 70.4 54.3 70.2 54.4C70 54.6 69.7 54.7 69.5 54.6C69.3 54.6 68.9 54.5 68.6 54.3L68 54.4L68.5 53.3L69.1 53.6C69.3 53.7 69.4 53.7 69.5 53.7C69.6 53.7 69.6 53.6 69.7 53.6C69.8 53.6 69.7 53.4 69.7 53.4C69.6 53.3 69.5 53.3 69.4 53.2C69 53 68.8 53 68.6 53C68.5 53 68.2 53.2 67.9 53.4C67.6 53.6 67.3 53.7 67.2 53.8C67.1 53.9 66.9 53.9 66.7 53.9C66.5 53.9 66.3 53.8 66 53.7C65.6 53.5 65.3 53.4 65.2 53.2C65 53 65 52.8 64.9 52.6C64.9 52.4 64.9 52.1 65 51.8C65.1 51.5 65.3 51.2 65.5 51.1C65.7 50.9 65.9 50.8 66.1 50.8C66.3 50.8 66.6 50.9 67 51L67.3 51.1ZM66.9 47.1L72.2 48.6L71.8 49.9L66.5 48.4L66.9 47.1ZM68.1 42.3L69.2 42.5L69 43.2L73.4 44L73.2 45.3L68.8 44.5L68.7 45.3L67.6 45.1L68.1 42.3ZM68.7 37.1L72.1 38.4L74.1 38.6L74 39.9L72 39.7L68.4 40.2L68.5 39C69.6 38.9 70.3 38.9 70.7 38.9C70.1 38.8 69.4 38.6 68.6 38.3L68.7 37.1Z" fill-rule="evenodd"  fill="#AB1F24" >
</path>
<path d="M72.5 26.1C72.1 26.2 71.5 26.4 71.3 26.2C71.3 25.9 71.2 25.6 71 25.4C71 25 71.3 25.2 71.6 25.1C71.4 24.8 71.9 24.5 72.2 24.5C72.7 24.7 72.5 25.6 72.5 26.1Z" fill-rule="evenodd"  fill="#AB1F24" >
</path>
<path d="M71.3 28.7C71 28.5 70.9 28.1 70.6 27.9C70.4 27.7 70 27.7 69.8 27.5C69.7 27.4 69.6 27.3 69.5 27.3C69.5 27.2 69.3 27.1 69.3 27.2C69.5 27.5 69.3 27.8 68.9 27.8C68.6 27.2 68.1 26.9 67.5 26.8C67.4 26.9 67.6 27 67.7 27.2C67.9 27.2 68 27.3 68.2 27.3C68.4 27.5 68.4 27.8 68.3 28C68.1 28.1 68 28.2 67.8 28.2C67.7 28.2 67.6 28.1 67.5 28C67.4 27.9 66.8 27.6 66.6 27.7C66.4 27.7 66.4 28 66.3 28.1C66.2 28.2 66.1 28.2 66.1 28.3C66.1 28.3 66.1 28.4 66.1 28.5C66.1 28.6 66 28.6 66 28.7C66 28.8 66 29.2 66.1 29.3C66.1 29.4 66.5 29.5 66.5 29.5C66.7 29.5 66.8 29.5 67 29.5C67.2 29.5 67.3 29.6 67.5 29.6C67.7 29.8 67.5 30.1 67.3 30.2C67.1 30.1 66.9 30.3 66.7 30.3C66.6 30.3 66.5 30.2 66.4 30.2C66.3 30.2 66.2 30.3 66.1 30.4C66 30.4 66 30.4 65.9 30.4C65.7 30.4 65.6 30.5 65.5 30.4C65.3 30.2 65.1 29.9 65.1 29.6C65.1 29.5 65.1 29.2 65.1 29C65.1 28.7 65.1 28.4 65.3 28.2C65.4 28.1 65.6 28 65.7 27.9C65.8 27.7 65.9 27.6 65.9 27.4C65.6 27.2 65.3 27.1 65 26.9C64.8 27 64.7 27 64.6 26.9C64.5 26.7 64.3 26.7 64.3 26.4C64.5 26.3 64.6 26.1 64.9 26.1C65.1 26.1 65.2 26.2 65.4 26.2C65.4 26.3 65.5 26.2 65.6 26.4C65.9 26.5 66.2 26.7 66.4 26.8C66.7 27 66.9 27.2 67.2 27.3C67.1 26.9 66.7 26.8 66.4 26.7C66.3 26.3 66.4 25.9 66.9 25.9C67.1 25.9 67.4 26.1 67.6 26.2C67.8 26.3 68 26.4 68.1 26.5C68.3 26.5 68.3 26.2 68.4 26.1C68.5 26.1 68.8 26 68.9 26.1C69.1 26.2 69.1 26.5 69.3 26.7C69.4 26.8 69.6 26.8 69.8 26.9C70.1 27 70.3 27.2 70.6 27.3C70.8 27.1 70.4 27 70.3 26.9C70.1 26.7 70 26.5 69.7 26.3C69.6 26.3 69.5 26.2 69.5 26.2C69.3 26.1 69.2 25.9 69 25.7C68.8 25.6 68.5 25.5 68.4 25.4C68.4 25.4 68.4 25.3 68.3 25.2C68.2 25.1 68.1 25.1 68.1 25C68 24.7 68.1 24.3 68.3 23.9C68.5 23.8 69 23.8 69.1 23.9C69.3 24.1 69.3 24.4 69.3 24.7C69.5 24.8 69.6 25.1 69.8 25.2C70 25.4 70.4 25.6 70.5 25.9C70.7 26.1 70.9 26.2 71.1 26.4C71.3 26.8 71.7 27 71.9 27.3C72 27.4 72 27.5 72.1 27.6C72.3 27.8 72.5 27.8 72.6 28C72.6 28.2 72.5 28.3 72.5 28.5C71.9 28.5 71.6 28.6 71.3 28.7Z" fill-rule="evenodd"  fill="#AB1F24" >
</path>
<path d="M67.3 22.2C67.2 21.9 67 22 66.8 21.9C66.7 21.7 66.6 21.6 66.5 21.3C66.4 21 66.6 20.6 67 20.6C67 20.6 67.1 20.6 67.2 20.7C67.3 20.8 67.5 20.8 67.6 20.8C67.8 20.9 67.8 21.2 68.1 21.2C68.3 21.4 68.3 21.6 68.5 21.8C68.8 22.1 69.1 22.1 69.4 22.4C69.4 22.5 69.4 22.6 69.4 22.6C69.2 22.8 69.1 23.3 68.7 23.3C68.5 23.3 68.3 23.1 68.2 23.1C68 23.1 67.9 23.3 67.7 23.4C67.5 23.5 67.3 23.5 67 23.5C66.9 23.5 66.8 23.5 66.7 23.5C66.6 23.5 66.5 23.5 66.4 23.5C66.3 23.5 66.2 23.4 66.1 23.4C65.9 23.4 65.8 23.5 65.7 23.6C65.2 23.7 64.7 23.4 64.1 23.7C63.8 23.8 63.7 24.1 63.4 24C63.3 24 63.3 23.9 63.2 23.9C63.1 23.9 63 23.9 62.9 23.9C62.8 23.9 62.7 23.7 62.7 23.6C62.7 23.4 62.8 23.3 62.9 23.1C63 23 63 22.9 63.1 22.8C63.2 22.7 63.2 22.6 63.4 22.6C63.5 22.6 63.7 22.7 63.8 22.7C64.1 22.7 64.3 22.5 64.6 22.5C65.3 22.4 66.2 22.4 66.9 22.3C67 22.5 67.2 22.3 67.3 22.2Z" fill-rule="evenodd"  fill="#AB1F24" >
</path>
<path d="M48.7 5.7C48.7 5.5 48.9 5.4 49 5.4C49.1 5.3 49.1 5.2 49.3 5.2C49.2 5.1 49 5.2 48.9 5.1C48.9 5 48.9 4.9 49 4.8C49.5 4.8 49.8 4.5 50.3 4.6C50.5 4.8 50.7 4.9 50.7 5.2C50.7 5.3 50.5 5.5 50.4 5.5C50.2 5.6 49.7 5.7 49.4 5.7C49.2 5.8 48.9 5.8 48.7 5.7Z" fill-rule="evenodd"  fill="#AB1F24" >
</path>
<path d="M45.6 5.3C45.5 5.5 45.3 5.6 45.3 5.9C45.4 5.9 45.5 5.8 45.6 5.9C45.6 6 45.5 6.1 45.5 6.2C45.3 6.4 45.1 6.8 44.9 7C44.6 7 44.4 6.7 44.2 6.6C44.4 6.4 44.3 6 44.5 5.8C44.5 5.7 44.6 5.7 44.7 5.6C44.9 5.3 45 5.1 45.3 5C45.5 5 45.5 5.2 45.6 5.3Z" fill-rule="evenodd"  fill="#AB1F24" >
</path>
<path d="M47.9 5.50001C47.9 5.60001 47.8 5.70001 47.7 5.80001C47.7 5.90001 47.7 6.00001 47.6 6.10001C47.5 6.3 47.1 6.6 46.8 6.4C46.8 6.4 46.7 6.3 46.7 6.2C46.6 6.10001 46.5 6.10001 46.5 6.10001C46.3 5.90001 46.2 5.60001 45.9 5.60001C45.8 5.70001 45.7 5.70001 45.6 5.70001C45.7 5.60001 45.8 5.40001 46 5.20001C46.3 5.10001 46.6 5.20001 47 5.30001C47.1 5.30001 47.2 5.30001 47.3 5.30001C47.4 5.50001 47.7 5.30001 47.9 5.50001Z" fill-rule="evenodd"  fill="#AB1F24" >
</path>
<path d="M48.5 9.8C48.4 9.7 48.4 9.6 48.2 9.6C48.1 9.7 48.2 9.8 48.2 9.9C48.2 10.2 48.1 10.5 48 10.7C47.9 10.9 47.7 11.2 47.8 11.5C48 11.5 48.2 11.6 48.4 11.7C48.9 11.7 49.5 11.9 49.9 11.9C50 11.8 49.9 11.6 49.9 11.4C49.9 11.3 50 11.1 50 11L50 10.9C50 10.8 50 10.7 50 10.6C50 10.4 49.9 10.2 50.1 10.1C50.2 10.1 50.3 10.1 50.3 10.1C50.5 10.5 50.7 10.8 50.7 11.3C50.8 11.4 50.8 11.6 50.8 11.7C50.8 11.8 50.8 11.8 50.8 11.9C50.8 12 50.9 12.1 50.8 12.3C50.7 12.4 50.6 12.4 50.4 12.5C50.2 12.5 50 12.6 49.8 12.6C49.4 12.5 48.7 12.3 48.3 12.3C48.2 12.3 48.1 12.4 48 12.4C47.9 12.4 47.9 12.4 47.8 12.4C47.5 12.4 47.5 12.4 47.2 12.3C47.1 12.2 46.8 12.1 46.8 12C46.8 11.9 46.9 11.8 46.9 11.7C47 11.2 47 10.7 47.1 10.3C47.1 10.2 47.2 10.1 47.3 10C47.5 9.6 47.6 9.1 47.8 8.7C47.9 8.6 48 8.5 48.1 8.5C48.2 8.5 48.2 8.6 48.2 8.6C48.4 8.6 48.5 8.4 48.7 8.2C48.8 8.1 49 8 49 7.9C49 7.8 48.9 7.7 48.9 7.6C48.9 7.5 49.3 7.3 49.4 7.3C49.4 7.1 49.5 7 49.6 7C49.7 7 49.8 7 50 7C50.2 7.2 50.4 7.4 50.3 7.7C50.3 7.8 50.1 7.9 50.1 7.9C50 8 50 8.1 49.9 8.2C49.8 8.3 49.7 8.3 49.6 8.4C49.4 8.5 49.3 8.7 49.1 8.8C49 8.8 49 8.9 49 8.9C49 9 49.2 9.1 49.1 9.3C49.1 9.4 49 9.4 49 9.5C49 9.6 49 9.6 49 9.7C48.8 9.8 48.6 9.8 48.5 9.8Z" fill-rule="evenodd"  fill="#AB1F24" >
</path>
<path d="M44.2 10.4C44.4 10.4 44.7 10.3 44.8 10.1C44.6 10.1 44.3 10.2 44.2 10.4ZM46.3 8C46.3 8.2 46.3 8.3 46.3 8.4C46.5 8.4 46.5 8.2 46.6 8C46.5 8 46.4 7.9 46.3 8ZM46.4 7C46.4 7.3 46.5 7.4 46.3 7.7C46.4 7.7 46.5 7.6 46.7 7.7L46.8 7.8C47 7.9 47.1 7.8 47.1 8C47.1 8.2 46.7 8.6 46.6 8.7C46.5 8.8 46.4 8.9 46.4 9C46.5 9.1 46.8 9.1 46.8 9.2C46.7 9.4 46.6 9.4 46.5 9.6C46.5 9.8 46.5 9.9 46.6 10.1C46.5 10.2 46.4 10.3 46.3 10.4C45.8 10.4 45.5 11 45.3 11.7C45.2 11.9 45.2 12.2 45.2 12.4C45.2 12.5 45.2 12.6 45.2 12.7C45.2 13 44.9 13.3 44.7 13.3C44.6 13.3 44.4 13.2 44.4 13.1C44.3 13 44.4 12.8 44.5 12.6C44.4 12.3 44.1 12.3 44.1 11.9C44.3 11.9 44.4 11.8 44.5 11.7C44.5 11.4 44.8 11.1 44.7 10.8C44.5 10.8 44.4 11 44.2 11C44 11.1 43.8 11.4 43.6 11.6C43.2 11.6 43.1 11.1 43.3 10.7C43.3 10.6 43.4 10.5 43.5 10.5C43.5 10.3 43.8 10.3 43.8 10.1C43.9 10.1 43.8 10.1 43.9 10.1C44.2 9.9 44.5 9.8 44.7 9.5C44.9 9.5 45 9.4 45 9.1C44.7 9 44.6 9.4 44.3 9.4C44.2 9.4 44.2 9.3 44.1 9.3C44 9.3 43.9 9.3 43.9 9.2C44 8.8 44.3 8.6 44.5 8.3C44.7 8.3 44.7 8.4 44.8 8.5C44.9 8.5 45 8.4 45.2 8.3C45.2 8.2 45.2 8.2 45.2 8.1C45.3 8.1 45.5 8 45.5 7.8C45.4 7.8 45.3 7.7 45.2 7.6C45.2 7.4 45.4 7.4 45.5 7.4C45.6 7.2 45.7 7 45.7 6.7C46 6.6 46.2 6.9 46.4 7Z" fill-rule="evenodd"  fill="#AB1F24" >
</path>
<path d="M28.3 9.1C28.2 9 28.1 8.8 28.2 8.6C28.3 8.6 28.3 8.5 28.4 8.5C28.6 8.1 28.9 7.7 29.1 7.2C29.2 7 29.4 6.8 29.6 6.5C29.7 6.3 29.8 6.1 29.9 5.9C30.2 5.7 30.2 5.2 30.1 4.80001C30 4.7 29.9 4.7 29.8 4.6C29.8 4.5 29.8 4.5 29.8 4.4C29.9 4.3 30.1 4.4 30.3 4.4C30.5 4.4 30.6 4.4 30.8 4.4L30.9 4.5C31.2 4.6 31.3 4.5 31.4 4.80001C31.4 5 31.5 5.1 31.4 5.30001C31.3 5.4 31.2 5.6 31.1 5.8C31 6 30.9 6.1 30.8 6.3C30.6 6.6 30.4 7 30.1 7.3C29.9 7.5 29.7 7.7 29.5 8C29.4 8.2 29.3 8.6 29.2 8.8C29.1 8.9 28.9 9 28.8 9.1C28.5 9 28.5 9.2 28.3 9.1Z" fill-rule="evenodd"  fill="#AB1F24" >
</path>
<path d="M34.7 5.9C34.5 6.4 33.8 6.8 33.4 7.2C33.3 7.3 33.3 7.4 33.2 7.4C32.7 7.7 32.3 7.2 31.9 7.4C31.9 7.4 31.9 7.3 31.8 7.3C31.9 6.9 32.2 6.8 32.4 6.6C32.4 6.5 32.5 6.5 32.5 6.4C33.1 6.4 33.4 5.9 33.9 5.7C34.3 5.6 34.5 5.7 34.7 5.9Z" fill-rule="evenodd"  fill="#AB1F24" >
</path>
<path d="M30.9 8.4C30.9 8.5 31 8.5 31 8.6C31 8.9 30.8 8.9 30.6 9.1C30.6 9.2 30.7 9.1 30.8 9.1C30.9 9.1 31 9.2 31.1 9.3C31.1 9.5 30.7 9.8 31.2 9.7C31.3 10.2 30.9 10.4 31 10.9C30.9 11.1 30.7 11 30.5 11C30.4 10.9 30.3 10.8 30.3 10.6C30.2 10.4 30.4 10.2 30.4 10C30.2 9.9 30 10 30 9.8C30 9.7 30.4 9.4 30.5 9.3C30.5 9 30 9.2 30 9C30 8.9 30.1 8.9 30.1 8.8C29.8 8.8 29.7 9.2 29.3 9.1C29.4 8.6 29.8 8.5 29.9 8.1C30 8 29.9 7.9 30 7.9C30 7.7 30.1 7.7 30.3 7.6C30.5 7.4 30.4 6.9 30.8 7C30.9 7.2 31.2 7.3 31.3 7.5C31.5 7.9 31.1 8.1 30.9 8.4Z" fill-rule="evenodd"  fill="#AB1F24" >
</path>
<path d="M34 7.9C34 8.2 33.9 8.4 33.9 8.6C34.1 8.5 34 8.4 34.1 8.2C34.2 8.1 34.3 7.9 34.3 7.7C34.2 7.8 34.2 7.9 34 7.9ZM33.4 12.9C33.3 12.8 33.3 12.8 33.3 12.7C33.2 12.5 33 12.3 33 12.1C33 11.9 33.1 11.7 33.1 11.4C33.1 11 33.1 10.6 33.1 10.3C33.1 10.1 33 9.9 32.9 9.8C32.9 9.6 32.9 9.4 32.8 9.3C32.6 9.3 32.5 9.6 32.4 9.7C32.1 9.9 31.8 9.7 31.6 9.6C31.6 9.5 31.6 9.5 31.6 9.4C31.9 9.2 32.2 9.4 32.4 9.3C32.6 9.2 32.6 9 32.8 9C32.9 8.6 32.5 8.3 32.7 7.9C32.9 7.8 33.1 7.9 33.3 7.8C33.4 7.8 33.5 7.7 33.6 7.7C33.7 7.7 33.8 7.7 33.8 7.7C34 7.6 34.1 7.4 34.3 7.3C34.4 7.3 34.8 7.3 34.9 7.4C34.9 7.3 35 7.5 35 7.6C35 7.7 34.9 8 34.8 8.2C34.8 8.3 34.7 8.4 34.7 8.5C34.7 8.6 34.7 8.7 34.6 8.8C34.5 9 34.3 9.2 34.1 9.4C34 9.7 33.9 9.9 33.9 10.3C33.9 10.5 33.9 10.7 33.9 10.9C33.9 11.4 34.1 11.9 34.1 12.4C34.1 12.6 34 12.7 34 12.8C33.7 12.7 33.7 13 33.4 12.9Z" fill-rule="evenodd"  fill="#AB1F24" >
</path>
<path d="M29.8 12C29.6 11.9 29.3 11.9 29.2 11.7C29.2 11.6 29.1 11.4 29.1 11.3C29.1 11.1 29.1 10.8 29 10.6C29 10.5 28.7 10.1 28.7 9.9C28.8 9.7 29.1 9.7 29.2 9.8C29.4 10.1 29.8 10.2 30 10.6C30.1 10.8 30.1 11 30.1 11.1C30.4 11.5 30 11.7 29.8 12Z" fill-rule="evenodd"  fill="#AB1F24" >
</path>
<path d="M59.8 14.1C59.1 14.1 58.4 14.1 57.7 14.1C58.5 14.4 59.3 14.3 60.1 14.6C60.2 14.5 60.4 14.8 60.5 14.6C60.4 14.4 60 14.3 59.8 14.1ZM60.1 12.6C60 12.7 59.9 12.8 59.9 13C60.1 13 60.4 12.9 60.4 12.7C60.3 12.6 60.2 12.7 60.1 12.6ZM62 14.4C62.3 14.4 62.4 14 62.2 13.9C62 14 61.8 14.2 62 14.4ZM61 12.8C61 12.9 61 13 60.9 13.1C61 13.2 61.2 13 61.3 12.9C61.3 12.8 61.1 12.9 61 12.8ZM64.3 14.1C64.1 14.1 64 13.9 63.9 13.9C63.8 13.9 63.7 13.9 63.6 13.9C63.4 13.9 63.2 13.7 63.1 13.9C63.3 14.2 62.9 14.5 62.7 14.8C62.8 14.8 62.9 14.7 63 14.7C63.2 14.6 63.3 14.7 63.5 14.7C63.8 14.5 64 14.2 64.3 14.1C64.3 14.2 64.4 14.1 64.3 14.1ZM60.6 13.4C60.3 13.3 59.9 13.2 59.6 13.5C59.4 13.5 59.2 13.5 59.1 13.4C58.9 13.3 58.8 12.9 58.8 12.8C58.8 12.4 59.5 12.1 59.5 11.7C59.6 11.6 59.6 11.6 59.6 11.5C60 11.5 60.2 12 60.2 12.3C60.3 12.4 60.5 12.4 60.6 12.4C60.7 12.3 60.7 12.2 60.7 12.1C60.8 11.9 61 11.8 61 11.5C61 11.1 60.9 10.7 60.9 10.4C61 10.3 61 10.3 61.1 10.3C61.3 10.5 61.5 10.6 61.6 10.8C61.8 11.1 61.7 11.4 61.8 11.6C62.1 11.9 62.1 12.2 62.1 12.5C62.4 12.7 62.7 12.4 62.9 12.5C63.1 12.3 63.3 12.2 63.6 12.1C63.9 12.3 63.7 12.6 64 12.8C64.1 13 64 13.3 63.7 13.5C63.8 13.6 63.9 13.6 64 13.6C64.3 13.7 64.5 13.9 64.8 14C64.9 14 65 14 65.1 14.1C65.2 14.2 65.2 14.3 65.2 14.4C65.4 14.6 65.4 14.8 65.2 15C64.8 15 64.4 14.9 64 15.1C63.9 15.1 63.8 15.1 63.7 15.1C63.4 15.3 63.1 15.3 62.8 15.5C63.2 15.7 63.6 16.1 63.3 16.5C63.2 16.7 62.9 16.7 62.7 16.8C62.2 16.7 61.8 16.8 61.3 16.6L61.2 16.5C61.1 16.5 61 16.5 60.9 16.5C60.9 17.2 59.6 16.3 59.6 17C59.8 17.1 59.9 17.2 60.1 17.3C60.3 17.4 60.5 17.5 60.6 17.8C60.7 18.1 60.4 18.5 60.4 18.8C60.3 18.9 60.3 18.9 60.2 19C60.1 19 60 19 60 19C59.6 18.7 59.6 18.3 59.2 18C59.1 17.9 58.8 17.8 58.7 17.7C58.1 17.6 57.8 18.6 57.3 19.1C57.2 19.2 57.1 19.2 57 19.3C56.9 19.4 56.9 19.5 56.8 19.5C56.7 19.6 56.4 19.4 56.2 19.3C56.1 19.2 56.2 19.1 56.1 19C56.1 18.9 56 18.9 56 18.8C55.7 18.3 55.9 17.6 55.8 17C55.6 16.9 55.7 16.4 55.9 16.6C56 16.7 56 16.8 56 16.9L56.1 17C56.2 17.3 56.2 17.7 56.5 17.9C56.7 17.9 56.8 17.7 57 17.6C57.2 17.4 57.5 17.2 57.6 17C57.5 16.8 57.3 16.6 57.1 16.5C57 16.4 56.8 16.4 56.6 16.3C56.3 16.2 55.9 15.9 55.8 16.3C55.6 16.4 55.4 16.3 55.3 16.1C55.3 16.1 55.3 16 55.3 15.9C55.3 15.9 55.2 15.9 55.2 15.8C55.2 15.8 55.1 15.4 55.1 15.3C55.2 14.9 55.6 15.1 55.8 15.1C56 15.3 56.3 15.4 56.6 15.5C57 15.6 57.4 15.8 57.8 16C58 16.1 58.2 16.1 58.4 16.2C58.6 16.3 58.7 16.4 58.8 16.3C58.9 16.1 59.1 16.1 59.2 16C59.2 15.9 59.1 15.9 59 15.9C58.9 15.8 58.9 15.6 58.8 15.5C59 15.5 59.3 15.3 59.5 15.3C59.7 15.4 59.9 15.5 60.1 15.6C60.2 15.6 60.2 15.6 60.3 15.6C60.4 15.7 60.5 15.7 60.7 15.8C60.8 15.8 60.9 15.8 61 15.8C61.1 15.8 61.2 15.9 61.3 15.9C61.4 15.9 61.6 15.9 61.7 16C62 16.1 62.3 16.1 62.6 16C62.3 15.8 61.9 15.7 61.6 15.8C61.3 15.8 61.1 15.5 60.9 15.4C60.6 15.2 60.1 15.3 59.9 15.2C59.7 14.9 59.4 15 59.1 15C58.9 15 58.6 15 58.5 15C58.3 15 58 15 57.8 15C57.4 15 57.1 15 56.8 14.8C56.7 14.8 56.5 14.8 56.3 14.5C56.2 14.4 56.2 14.1 56.2 14.1C56.2 13.9 56.5 13.9 56.5 13.7C56.6 13.6 56.7 13.8 56.8 13.8C57.1 13.8 57.4 13.7 57.7 13.7C57.9 13.7 58 13.8 58.2 13.8C58.8 13.8 59.4 13.9 60 13.9C60.2 14.1 60.5 14.1 60.7 14.3C60.8 14.4 60.8 14.5 60.9 14.5C61 14.5 61 14.4 61.1 14.3C60.9 14.1 60.7 14.1 60.5 14.1C60.3 14 60.2 14 60 13.9C60.1 13.5 60.4 13.6 60.6 13.4Z" fill-rule="evenodd"  fill="#AB1F24" >
</path>
<path d="M14.2 23.9C14.1 24 14 24.2 14 24.4C13.8 24.6 13.7 24.9 13.5 25C13.4 24.9 13.1 24.8 13 24.6C13.1 24.5 13 24.3 12.9 24.2C12.7 24.1 12.4 24.2 12.2 24.1C12 24 11.9 23.9 11.7 24C11.4 23.8 11 23.7 11 23.4C11.1 23.3 11.3 23.1 11.5 23.1C11.7 23.1 11.9 23 12.1 23C12.3 23 12.5 23.2 12.7 23.1C12.9 23.3 13.4 23.2 13.6 23.3C14.1 23.4 14.1 23.6 14.2 23.9Z" fill-rule="evenodd"  fill="#AB1F24" >
</path>
<path d="M9.9 26.3C10 26.6 9.8 26.8 10 27.1C10.2 27.1 10.3 27.2 10.5 27.1C10.5 26.8 10.2 26.5 9.9 26.3C10 26.3 10 26.3 9.9 26.3ZM12.4 28.4C12.6 28.2 12.6 27.8 12.7 27.5C12.7 27.2 12.8 26.8 12.7 26.6C12.7 26.5 12.5 26.5 12.5 26.4C12.4 26.3 12.4 26.2 12.3 26.2C12.2 26.1 12 26.1 11.9 26C11.8 25.8 12.2 25.6 12.3 25.6C12.6 25.8 13 25.8 13.3 26C13.6 26.2 13.5 26.4 13.6 26.6C13.6 26.7 13.6 26.7 13.5 26.8C13.6 27.1 13.5 27.4 13.5 27.8C13.5 27.9 13.5 28 13.5 28.1C13.5 28.2 13.5 28.3 13.5 28.4C13.5 28.7 13.3 29 13.2 29.3C13 29.6 13 29.7 13 29.8C12.7 30.1 12.5 30.3 12.2 30.1C12 29.9 11.7 29.8 11.5 29.6C11.4 29 11.3 28.5 11 28C10.8 27.9 10.6 28 10.4 28C10.3 28 10 27.9 10 27.9C9.9 27.8 9.9 27.7 9.8 27.6C9.7 27.4 9.6 27.4 9.6 27.2C9.5 26.8 9.5 26.4 9.6 25.9C9.6 25.7 9.7 25.5 9.6 25.3C9.5 25.1 9.3 25 9.2 24.9C8.8 24.4 8.7 24 8.4 23.5C8.2 23.7 8.4 24 8.4 24.2C8.5 24.3 8.5 24.4 8.6 24.5C8.6 25.1 8.7 25.7 8.7 26.3C8.4 26.5 8.4 27 8.2 27.1C8.1 27.1 8 27.1 7.9 27.1C7.8 27.1 7.7 27.3 7.5 27.3C7.3 27.3 7.2 27 7 26.9C7.1 26.5 7.2 26.2 7.3 25.9C7.4 25.5 7.4 25 7.4 24.5C7.4 24.4 7.4 24.3 7.4 24.2C7.4 23.8 7.5 23.4 7.5 22.9C7.5 22.6 7.5 22.4 7.7 22.1C7.6 21.6 8.5 21.6 8.7 21.8C9 22.1 9.3 22.7 9.4 23.1C9.6 23.3 9.7 23.5 9.8 23.8C9.9 24.1 10.2 24.3 10.3 24.5C10.4 24.6 10.3 24.8 10.4 24.9C10.5 25 10.8 25 11 25.2C11.2 25.4 11.2 25.6 11.4 25.8C11.5 26 11.5 26.3 11.7 26.5C11.9 27 12 27.5 12.3 28C12.2 28.1 12.2 28.3 12.4 28.4Z" fill-rule="evenodd"  fill="#AB1F24" >
</path>
<path d="M17.3 12.3C17.2 12.1 17.3 11.8 17.2 11.5C17.2 11.3 17.2 11.1 17.1 10.9C17 10.7 17 10.5 17 10.3C17.2 10.1 17.4 10.2 17.6 10.1C17.8 10.1 17.9 10 18 10C18.2 10 18.7 10.3 18.6 10.5C18.5 10.7 18.1 10.8 17.9 11C17.6 11.3 17.8 11.7 17.4 12C17.4 12.1 17.4 12.2 17.3 12.3Z" fill-rule="evenodd"  fill="#AB1F24" >
</path>
<path d="M18.9 11.9C19.1 12.2 19.3 12.5 19.3 12.8C19.3 13 19 13.4 19.4 13.5C19.7 13.4 20.2 13.1 20.4 13.2C20.7 13.4 20.4 13.9 20.6 14.2C20.9 14.2 21.2 14.4 21.2 14.8C21.2 15.2 20.9 15.9 21.5 15.9C21.8 15.7 22.1 15.4 22.4 15.2C22.6 15.1 22.8 15.1 23 15.1C23.2 15.2 23.5 15.4 23.5 15.6C23.5 15.7 23.4 15.9 23.3 16C23 16.4 22.9 16.9 22.7 17.3C22.3 17.9 21.9 18.5 21.6 19C21.5 19.1 21.5 19.1 21.4 19.2L21.4 19.2C21.4 19 21.5 18.8 21.6 18.6C21.7 18.2 21.9 17.8 22 17.4C22.1 17.2 22.2 17 22.3 16.8C22.3 16.7 22.3 16.4 22.2 16.4C22 16.2 21.4 16.5 21.1 16.4C20.5 16 20.7 15 20 15.2C19.8 15 19.8 14.5 19.6 14.2C19.4 14.3 19.1 14.4 18.9 14.3C18.6 13.9 18.6 13.5 18.4 13.2C18.3 13 18.2 13 18.1 12.9C18.1 12.8 18 12.7 18.1 12.6C18.2 12.4 18.5 12.3 18.6 12.2C18.6 12.1 18.7 11.9 18.7 11.8C18.7 11.7 18.7 11.5 18.6 11.4C18.5 11.3 18.3 11.4 18.2 11.4C18.3 11.1 18.7 10.6 19 10.6C19.3 10.6 19.6 10.8 19.6 11.2C19.6 11.4 19.1 11.7 18.9 11.9Z" fill-rule="evenodd"  fill="#AB1F24" >
</path>
<path d="M18 11.8C18 12.1 18 12.3 17.9 12.6C18 12.8 17.9 13.1 17.8 13.4C17.8 13.5 17.8 13.6 17.8 13.7C17.8 13.8 17.7 14.2 17.6 14.3C17.4 14.5 17.2 14.3 17 14.4C16.8 14.3 16.8 14.2 16.6 14L16.6 13.9C17.1 13.7 17.1 13.2 17.4 12.9C17.7 12.6 17.9 12.2 18 11.8L18 11.8Z" fill-rule="evenodd"  fill="#AB1F24" >
</path>
<path d="M15.8 15.3C15.7 15.3 15.7 15.2 15.7 15.2C15.4 15.1 15.1 15.1 14.9 15C15 14.7 15.6 14.5 15.9 14.4C16.2 14.4 16.3 15.2 15.8 15.3Z" fill-rule="evenodd"  fill="#AB1F24" >
</path>
<path d="M16.9 15.8C17.7 16.3 17 17.1 17.7 17.8C17.8 17.7 17.7 17.6 17.7 17.5C17.7 17.2 17.7 16.9 17.8 16.7C17.8 17 18 17.3 18.1 17.6C18.2 17.8 18.3 18.1 18.4 18.3C18.5 18.5 18.7 18.7 18.7 18.9C18.2 19.2 17.5 19.2 17.3 18.5C17.1 18.2 17 17.9 16.9 17.7C16.8 17.5 16.8 17.2 16.5 16.9C16.4 16.8 16.2 16.7 16 16.7C15.9 16.7 15.8 16.7 15.7 16.6C15.6 16.5 15.6 16.3 15.7 16.2C16.2 15.8 16.7 16 16.9 15.8Z" fill-rule="evenodd"  fill="#AB1F24" >
</path>
</svg>
