<svg xmlns="http://www.w3.org/2000/svg" version="1.1" viewBox="0.00 0.00 150.00 150.00" width="150.00" height="150.00">
<g stroke-width="2.00" fill="none" stroke-linecap="butt">
<path stroke="#80aed1" d="&#10;  M 150.00 74.10&#10;  C 147.79 20.58 91.39 -14.11 42.80 10.11&#10;  C 11.73 25.60 -4.76 60.05 3.50 94.00&#10;  C 10.69 123.53 35.51 145.82 65.75 150.00"/>
<path stroke="#80aed1" d="&#10;  M 150.00 79.16&#10;  C 148.84 115.01 121.68 144.46 86.47 150.00"/>
<path stroke="#80aed1" d="&#10;  M 61.94 26.26&#10;  L 59.93 17.95&#10;  A 1.41 1.29 42.5 0 1 59.89 17.49&#10;  L 59.97 16.26&#10;  A 0.96 0.94 21.3 0 0 59.61 15.46&#10;  Q 56.88 13.31 55.47 10.60&#10;  A 0.82 0.81 76.0 0 0 54.75 10.16&#10;  L 54.28 10.16&#10;  A 0.53 0.52 74.8 0 0 53.83 10.95&#10;  L 55.02 13.02&#10;  A 0.99 0.99 0.0 0 1 54.44 14.46&#10;  Q 53.04 14.86 53.04 16.20&#10;  C 53.05 18.12 55.36 18.04 54.54 20.84&#10;  A 0.90 0.90 0.0 0 0 55.62 21.96&#10;  L 57.64 21.47&#10;  A 0.69 0.68 -21.3 0 1 58.38 21.79&#10;  L 61.14 26.58&#10;  A 0.44 0.44 0.0 0 0 61.94 26.26"/>
<path stroke="#80aed1" d="&#10;  M 90.50 15.60&#10;  Q 91.08 16.90 91.13 17.09&#10;  C 91.69 19.12 88.46 20.94 86.99 21.11&#10;  A 1.15 1.15 0.0 0 0 86.83 23.36&#10;  L 90.31 24.26&#10;  A 0.81 0.79 -13.1 0 1 90.74 24.52&#10;  Q 92.50 26.55 95.72 26.79&#10;  A 1.00 0.97 76.0 0 1 96.51 27.28&#10;  L 97.55 29.08&#10;  A 1.31 1.28 84.5 0 0 98.24 29.66&#10;  L 102.71 31.22&#10;  A 0.37 0.37 0.0 0 0 103.12 30.64&#10;  L 99.96 26.66&#10;  A 1.80 1.79 45.3 0 1 99.97 24.41&#10;  Q 100.88 23.30 101.58 20.80&#10;  A 0.77 0.77 0.0 0 0 101.12 19.88&#10;  Q 100.62 19.69 99.93 19.71&#10;  A 0.33 0.32 0.8 0 1 99.59 19.37&#10;  L 99.60 19.19&#10;  A 0.34 0.33 -85.2 0 1 99.97 18.87&#10;  Q 103.28 19.20 104.32 16.57&#10;  A 0.57 0.57 0.0 0 0 103.50 15.87&#10;  L 101.94 16.77&#10;  A 0.74 0.74 0.0 0 1 100.95 15.73&#10;  Q 101.88 14.30 101.82 13.50&#10;  A 0.65 0.65 0.0 0 0 100.61 13.22&#10;  L 98.86 16.25&#10;  A 1.17 1.17 0.0 0 1 97.67 16.82&#10;  Q 95.68 16.53 93.89 17.95&#10;  A 0.16 0.15 -37.3 0 1 93.67 17.93&#10;  L 93.48 17.69&#10;  A 0.35 0.34 51.6 0 1 93.53 17.21&#10;  C 94.83 16.17 96.67 14.70 96.25 13.19&#10;  A 1.24 1.11 -44.5 0 0 94.02 13.29&#10;  Q 93.03 15.82 90.88 15.17&#10;  A 0.32 0.31 86.8 0 0 90.50 15.60"/>
<path stroke="#80aed1" d="&#10;  M 49.07 23.15&#10;  L 49.07 26.79&#10;  A 0.96 0.95 60.0 0 0 50.85 27.27&#10;  L 51.70 25.79&#10;  A 0.48 0.48 0.0 0 1 52.47 25.71&#10;  Q 53.00 26.29 52.84 27.36&#10;  A 0.72 0.72 0.0 0 0 53.55 28.18&#10;  L 54.12 28.18&#10;  A 0.69 0.69 0.0 0 0 54.81 27.54&#10;  C 54.94 25.94 53.05 23.85 52.93 23.01&#10;  A 3.69 3.06 47.8 0 1 52.90 22.32&#10;  L 53.19 18.34&#10;  A 0.33 0.32 -19.5 0 0 52.64 18.08&#10;  Q 52.18 18.53 51.83 20.62&#10;  A 0.46 0.46 0.0 0 1 50.99 20.80&#10;  Q 48.92 17.54 49.70 13.99&#10;  A 0.88 0.88 0.0 0 0 48.12 13.28&#10;  C 47.26 14.46 47.93 17.15 48.52 18.65&#10;  A 0.91 0.91 0.0 0 1 48.46 19.42&#10;  L 46.42 22.94&#10;  A 0.61 0.61 0.0 0 0 47.25 23.77&#10;  L 48.69 22.93&#10;  A 0.26 0.25 -14.6 0 1 49.07 23.15"/>
<path stroke="#80aed1" d="&#10;  M 126.02 76.51&#10;  A 50.30 50.30 0.0 0 0 75.72 26.21&#10;  A 50.30 50.30 0.0 0 0 25.42 76.51&#10;  A 50.30 50.30 0.0 0 0 75.72 126.81&#10;  A 50.30 50.30 0.0 0 0 126.02 76.51"/>
<path stroke="#80aed1" d="&#10;  M 30.97 38.53&#10;  A 0.59 0.59 0.0 0 0 30.08 37.85&#10;  Q 28.11 39.20 26.48 41.63&#10;  A 0.68 0.68 0.0 0 1 25.40 41.68&#10;  Q 23.40 39.30 21.85 37.83&#10;  A 2.47 2.46 53.6 0 0 19.06 37.40&#10;  Q 17.77 38.04 17.81 39.77&#10;  A 0.91 0.90 76.7 0 0 19.10 40.57&#10;  Q 19.52 40.37 20.24 40.21&#10;  A 1.07 1.04 58.7 0 1 21.17 40.45&#10;  L 25.57 44.38&#10;  A 0.83 0.83 0.0 0 1 25.74 45.42&#10;  L 24.53 47.51&#10;  A 0.76 0.75 13.7 0 0 25.22 48.64&#10;  Q 27.80 48.53 30.11 49.62&#10;  A 1.04 1.03 35.0 0 0 31.28 49.42&#10;  Q 33.47 47.29 34.12 44.79&#10;  A 1.09 1.05 33.6 0 0 33.91 43.84&#10;  Q 32.43 42.04 30.75 41.06&#10;  A 0.77 0.77 0.0 0 1 30.41 40.14&#10;  L 30.97 38.53"/>
<path stroke="#80aed1" d="&#10;  M 129.71 42.99&#10;  L 132.61 40.68&#10;  A 2.05 2.03 -28.2 0 0 133.29 38.46&#10;  L 133.17 38.10&#10;  A 1.44 1.44 0.0 0 0 130.91 37.41&#10;  L 127.20 40.36&#10;  A 2.24 2.24 0.0 0 1 124.32 40.28&#10;  L 122.71 38.83&#10;  A 1.31 1.31 0.0 0 0 120.70 40.47&#10;  L 121.64 42.10&#10;  A 0.72 0.72 0.0 0 1 120.77 43.14&#10;  Q 118.92 42.48 118.11 44.00&#10;  A 0.72 0.71 34.5 0 0 118.28 44.89&#10;  Q 122.60 48.57 126.59 45.41&#10;  A 1.59 1.59 0.0 0 1 128.36 45.28&#10;  L 132.29 47.55&#10;  A 0.73 0.73 0.0 0 0 133.32 46.60&#10;  Q 132.29 44.43 129.88 43.79&#10;  A 0.46 0.45 33.4 0 1 129.71 42.99"/>
<path stroke="#80aed1" d="&#10;  M 126.00 53.44&#10;  A 2.23 2.22 58.2 0 0 126.54 51.11&#10;  Q 125.61 48.46 124.28 47.68&#10;  A 0.61 0.61 0.0 0 0 123.36 48.21&#10;  Q 123.36 51.34 124.22 53.24&#10;  A 1.03 1.03 0.0 0 0 125.89 53.55&#10;  L 126.00 53.44"/>
<path stroke="#80aed1" d="&#10;  M 139.07 76.40&#10;  A 0.43 0.43 0.0 0 1 138.52 76.23&#10;  Q 137.20 74.04 135.02 73.75&#10;  A 0.67 0.67 0.0 0 0 134.60 75.00&#10;  L 136.27 75.97&#10;  A 0.60 0.60 0.0 0 1 136.02 77.09&#10;  C 134.60 77.20 132.32 75.81 132.31 73.97&#10;  Q 132.30 72.84 132.20 72.46&#10;  A 0.49 0.49 0.0 0 0 131.36 72.25&#10;  L 128.30 75.68&#10;  A 1.44 1.43 65.8 0 0 127.93 76.67&#10;  Q 127.96 78.20 129.07 79.61&#10;  A 1.07 1.04 70.6 0 0 129.90 80.02&#10;  L 131.87 80.02&#10;  A 0.79 0.79 0.0 0 1 132.59 80.48&#10;  L 133.35 82.14&#10;  A 0.83 0.82 -35.9 0 0 134.71 82.35&#10;  Q 135.88 81.07 134.44 79.44&#10;  A 0.45 0.45 0.0 0 1 134.73 78.70&#10;  Q 138.10 78.31 140.44 79.30&#10;  A 0.70 0.69 21.5 0 0 141.37 78.90&#10;  C 142.59 75.45 140.57 73.00 138.47 70.24&#10;  Q 137.34 68.77 134.74 69.86&#10;  A 0.72 0.72 0.0 0 0 134.64 71.15&#10;  Q 137.62 72.92 139.43 76.01&#10;  A 0.20 0.19 -27.2 0 1 139.34 76.28&#10;  L 139.07 76.40"/>
<path stroke="#80aed1" d="&#10;  M 144.6717 69.6907&#10;  A 2.12 1.15 -33.8 0 0 142.2703 69.9144&#10;  A 2.12 1.15 -33.8 0 0 141.1483 72.0493&#10;  A 2.12 1.15 -33.8 0 0 143.5497 71.8256&#10;  A 2.12 1.15 -33.8 0 0 144.6717 69.6907"/>
<path stroke="#80aed1" d="&#10;  M 13.08 81.94&#10;  L 16.33 83.07&#10;  A 0.81 0.81 0.0 0 0 17.38 82.54&#10;  C 18.26 79.59 21.19 81.21 22.60 80.07&#10;  Q 24.39 78.63 24.12 74.24&#10;  A 0.83 0.82 -82.2 0 0 23.57 73.50&#10;  L 23.18 73.37&#10;  A 0.89 0.89 0.0 0 0 22.00 74.13&#10;  Q 21.76 77.03 21.52 78.04&#10;  A 0.88 0.88 0.0 0 1 19.78 77.82&#10;  Q 19.81 76.39 19.38 75.51&#10;  A 1.01 1.00 81.3 0 0 18.63 74.95&#10;  Q 15.49 74.50 14.17 71.54&#10;  A 0.96 0.96 0.0 0 0 12.81 71.09&#10;  L 9.20 73.17&#10;  A 0.98 0.95 36.4 0 1 8.47 73.27&#10;  Q 6.23 72.72 4.38 73.74&#10;  A 0.53 0.53 0.0 0 0 4.67 74.74&#10;  C 7.12 74.60 9.04 77.37 10.83 79.25&#10;  A 1.24 1.23 -30.7 0 0 12.09 79.57&#10;  Q 13.25 79.21 14.18 79.34&#10;  A 0.93 0.93 0.0 0 1 14.28 81.16&#10;  L 13.10 81.45&#10;  A 0.26 0.25 47.7 0 0 13.08 81.94"/>
<path stroke="#80aed1" d="&#10;  M 145.2412 73.3373&#10;  A 1.13 0.96 -28.7 0 0 143.7890 73.0379&#10;  A 1.13 0.96 -28.7 0 0 143.2588 74.4227&#10;  A 1.13 0.96 -28.7 0 0 144.7110 74.7221&#10;  A 1.13 0.96 -28.7 0 0 145.2412 73.3373"/>
<path stroke="#80aed1" d="&#10;  M 143.59 76.46&#10;  Q 143.58 76.48 143.57 76.51&#10;  A 0.15 0.02 -73.7 0 0 143.55 76.63&#10;  L 145.36 79.96&#10;  A 0.90 0.90 0.0 0 0 146.24 80.42&#10;  Q 147.13 80.32 147.67 79.63&#10;  Q 148.21 78.93 148.09 78.04&#10;  A 0.90 0.90 0.0 0 0 147.42 77.30&#10;  L 143.75 76.37&#10;  A 0.15 0.02 -30.7 0 0 143.64 76.42&#10;  Q 143.61 76.44 143.59 76.46"/>
<path stroke="#80aed1" d="&#10;  M 112.4013 117.2107&#10;  A 1.11 0.84 -92.0 0 0 111.6005 118.3493&#10;  A 1.11 0.84 -92.0 0 0 112.4787 119.4293&#10;  A 1.11 0.84 -92.0 0 0 113.2795 118.2907&#10;  A 1.11 0.84 -92.0 0 0 112.4013 117.2107"/>
<path stroke="#80aed1" d="&#10;  M 113.51 124.84&#10;  Q 113.66 122.68 114.78 121.19&#10;  A 1.30 1.28 -71.2 0 1 115.81 120.67&#10;  L 116.49 120.67&#10;  A 0.66 0.66 0.0 0 0 117.01 119.61&#10;  Q 116.16 118.52 115.20 118.73&#10;  A 0.55 0.52 -75.5 0 0 114.90 118.92&#10;  L 112.48 121.88&#10;  A 1.08 1.07 67.7 0 0 112.23 122.48&#10;  Q 112.13 123.75 112.76 124.99&#10;  A 0.40 0.40 0.0 0 0 113.51 124.84"/>
<path stroke="#80aed1" d="&#10;  M 32.70 132.07&#10;  Q 34.91 130.41 35.88 128.91&#10;  A 0.92 0.92 0.0 0 1 36.87 128.53&#10;  Q 39.14 129.11 42.50 127.33&#10;  A 1.18 1.15 -7.8 0 0 43.09 126.57&#10;  C 43.55 124.66 42.47 124.16 41.23 123.24&#10;  A 0.60 0.60 0.0 0 1 41.14 122.36&#10;  L 42.56 120.77&#10;  A 0.47 0.47 0.0 0 0 42.44 120.05&#10;  L 42.13 119.87&#10;  A 0.64 0.63 36.0 0 0 41.35 119.99&#10;  L 39.68 121.87&#10;  A 0.88 0.88 0.0 0 1 38.82 122.14&#10;  Q 36.62 121.60 35.73 120.34&#10;  A 0.73 0.72 -36.3 0 0 34.70 120.19&#10;  Q 32.72 121.74 32.11 123.82&#10;  A 0.67 0.67 0.0 0 0 32.31 124.51&#10;  L 32.57 124.74&#10;  A 0.42 0.41 -53.7 0 0 33.21 124.64&#10;  L 34.64 122.16&#10;  A 0.36 0.36 0.0 0 1 35.13 122.03&#10;  L 37.10 123.17&#10;  A 1.10 1.10 0.0 0 1 36.55 125.23&#10;  L 34.35 125.23&#10;  A 0.79 0.78 65.9 0 0 33.83 126.60&#10;  L 34.51 127.21&#10;  A 0.58 0.58 0.0 0 1 34.63 127.93&#10;  L 32.39 131.80&#10;  A 0.21 0.21 0.0 0 0 32.70 132.07"/>
<path stroke="#80aed1" d="&#10;  M 113.39 129.47&#10;  Q 114.09 126.20 111.52 124.88&#10;  A 1.03 1.03 0.0 0 1 110.97 124.06&#10;  Q 110.93 123.64 110.98 122.98&#10;  A 1.44 1.41 81.6 0 0 109.05 121.51&#10;  Q 107.28 122.23 107.41 124.44&#10;  A 0.63 0.63 0.0 0 0 108.59 124.72&#10;  Q 109.17 123.71 109.62 123.56&#10;  A 0.50 0.50 0.0 0 1 110.13 124.38&#10;  C 107.19 127.41 111.79 132.84 114.34 134.44&#10;  A 0.39 0.39 0.0 0 0 114.87 134.33&#10;  L 114.90 134.28&#10;  A 0.34 0.34 0.0 0 0 114.82 133.82&#10;  C 113.38 132.76 109.99 129.20 110.33 127.08&#10;  A 1.10 0.99 46.6 0 1 112.38 127.25&#10;  Q 112.56 128.15 112.10 129.42&#10;  A 0.37 0.36 -80.3 0 0 112.44 129.91&#10;  L 112.85 129.91&#10;  A 0.57 0.55 -83.4 0 0 113.39 129.47"/>
<path stroke="#80aed1" d="&#10;  M 116.1930 122.3619&#10;  A 1.16 0.78 -72.8 0 0 115.1049 123.2393&#10;  A 1.16 0.78 -72.8 0 0 115.5070 124.5781&#10;  A 1.16 0.78 -72.8 0 0 116.5951 123.7007&#10;  A 1.16 0.78 -72.8 0 0 116.1930 122.3619"/>
<path stroke="#80aed1" d="&#10;  M 117.84 126.78&#10;  Q 118.28 128.06 117.33 130.27&#10;  A 0.68 0.68 0.0 0 0 118.48 130.97&#10;  Q 118.51 130.94 118.93 129.97&#10;  A 1.31 1.28 8.6 0 1 120.01 129.19&#10;  Q 123.92 128.86 123.28 124.67&#10;  Q 123.18 124.03 121.83 124.09&#10;  A 0.36 0.35 69.7 0 0 121.57 124.66&#10;  Q 123.00 126.57 121.34 127.47&#10;  A 1.85 1.81 -18.0 0 1 118.64 126.13&#10;  Q 118.63 126.05 118.58 124.09&#10;  A 0.57 0.57 0.0 0 0 117.58 123.73&#10;  Q 115.63 125.93 115.35 128.83&#10;  A 0.35 0.35 0.0 0 0 115.97 129.08&#10;  Q 116.98 127.85 117.30 126.79&#10;  A 0.28 0.28 0.0 0 1 117.84 126.78"/>
<path stroke="#80aed1" d="&#10;  M 89.69 130.97&#10;  Q 88.88 130.18 87.46 129.92&#10;  A 0.98 0.97 -63.6 0 0 86.58 130.22&#10;  Q 86.29 130.52 86.07 132.04&#10;  A 0.30 0.30 0.0 0 0 86.52 132.34&#10;  Q 87.99 131.43 90.27 131.24&#10;  A 1.34 1.30 20.2 0 0 91.06 130.89&#10;  Q 92.28 129.73 92.22 128.87&#10;  A 0.66 0.65 81.6 0 0 91.43 128.28&#10;  L 91.21 128.35&#10;  A 0.47 0.46 -3.2 0 0 90.88 128.71&#10;  L 90.47 130.73&#10;  A 0.46 0.46 0.0 0 1 89.69 130.97"/>
<path stroke="#80aed1" d="&#10;  M 63.03 140.84&#10;  C 63.76 139.98 64.60 139.75 65.03 138.49&#10;  Q 66.19 135.08 65.29 132.07&#10;  A 1.23 1.12 -33.2 0 0 63.28 131.75&#10;  Q 62.74 132.33 63.08 132.76&#10;  Q 65.00 135.25 63.38 138.98&#10;  A 1.18 1.17 -57.4 0 1 61.52 139.39&#10;  L 59.90 137.94&#10;  A 1.38 1.27 68.4 0 0 59.22 137.61&#10;  C 56.20 137.13 54.78 142.14 57.51 143.01&#10;  Q 59.16 143.53 62.14 143.56&#10;  C 63.88 143.58 64.90 143.81 66.51 144.33&#10;  A 1.08 1.08 0.0 0 0 67.65 144.03&#10;  Q 70.35 141.14 68.50 137.86&#10;  A 0.47 0.47 0.0 0 0 67.63 138.20&#10;  L 68.11 140.18&#10;  A 1.22 1.22 0.0 0 1 66.92 141.69&#10;  L 63.43 141.69&#10;  A 0.52 0.52 0.0 0 1 63.03 140.84"/>
<path stroke="#80aed1" d="&#10;  M 93.13 133.91&#10;  A 0.70 0.70 0.0 0 0 94.49 133.64&#10;  Q 94.30 131.19 93.26 131.58&#10;  C 91.13 132.37 88.83 133.89 86.72 134.23&#10;  Q 85.73 134.39 85.37 135.61&#10;  Q 84.88 137.28 84.88 137.66&#10;  A 0.84 0.84 0.0 0 0 85.55 138.51&#10;  L 85.73 138.54&#10;  A 0.57 0.56 3.6 0 0 86.41 137.95&#10;  Q 86.34 137.13 86.65 136.59&#10;  A 1.81 1.72 1.5 0 1 87.46 135.86&#10;  L 92.35 133.62&#10;  A 0.61 0.61 0.0 0 1 93.10 133.82&#10;  Q 93.11 133.85 93.13 133.91"/>
<path stroke="#80aed1" d="&#10;  M 88.69 138.76&#10;  L 91.10 136.85&#10;  A 0.48 0.48 0.0 0 1 91.86 137.38&#10;  Q 91.02 139.77 88.89 140.88&#10;  A 0.74 0.74 0.0 0 0 89.41 142.26&#10;  L 92.40 141.53&#10;  A 0.61 0.61 0.0 0 1 93.08 142.42&#10;  Q 92.47 143.54 90.67 144.28&#10;  A 0.56 0.56 0.0 0 0 90.38 145.06&#10;  L 90.41 145.13&#10;  A 0.62 0.62 0.0 0 0 91.21 145.41&#10;  C 93.81 144.32 93.86 141.00 95.15 139.37&#10;  A 0.59 0.58 -52.2 0 0 95.05 138.54&#10;  Q 94.57 138.17 93.54 138.38&#10;  A 0.38 0.38 0.0 0 1 93.09 138.01&#10;  L 93.09 135.64&#10;  A 0.64 0.63 86.1 0 0 92.37 135.01&#10;  Q 89.44 135.44 87.84 138.00&#10;  A 0.58 0.58 0.0 0 0 88.69 138.76"/>
<path stroke="#80aed1" d="&#10;  M 54.80 16.68&#10;  Q 54.86 16.87 55.20 16.85&#10;  Q 55.77 16.82 55.88 16.24&#10;  Q 55.92 16.02 55.61 15.95&#10;  A 0.66 0.60 -0.0 0 0 54.80 16.68"/>
<path stroke="#80aed1" d="&#10;  M 57.12 19.07&#10;  A 0.62 0.62 0.0 0 0 56.50 18.45&#10;  A 0.62 0.62 0.0 0 0 55.88 19.07&#10;  A 0.62 0.62 0.0 0 0 56.50 19.69&#10;  A 0.62 0.62 0.0 0 0 57.12 19.07"/>
<path stroke="#80aed1" d="&#10;  M 95.23 18.44&#10;  Q 95.04 19.17 95.26 19.64&#10;  A 0.73 0.67 -37.1 0 0 96.41 19.75&#10;  Q 96.74 19.38 96.50 18.86&#10;  A 0.86 0.54 50.3 0 0 95.23 18.44"/>
<path stroke="#80aed1" d="&#10;  M 91.14 23.12&#10;  Q 91.23 23.09 92.12 21.68&#10;  A 0.60 0.60 0.0 0 1 93.21 22.11&#10;  Q 92.88 23.81 94.56 24.45&#10;  A 0.42 0.42 0.0 0 0 95.09 23.88&#10;  Q 94.55 22.77 93.54 21.91&#10;  A 0.55 0.55 0.0 0 1 93.45 21.17&#10;  Q 93.77 20.73 93.77 20.63&#10;  A 0.42 0.41 -16.2 0 0 93.13 20.28&#10;  Q 91.76 21.16 90.85 22.76&#10;  A 0.25 0.25 0.0 0 0 91.14 23.12"/>
<path stroke="#80aed1" d="&#10;  M 98.6143 22.1846&#10;  A 0.80 0.58 -48.1 0 0 97.6483 22.3927&#10;  A 0.80 0.58 -48.1 0 0 97.5457 23.3754&#10;  A 0.80 0.58 -48.1 0 0 98.5117 23.1673&#10;  A 0.80 0.58 -48.1 0 0 98.6143 22.1846"/>
<path stroke="#889bba" d="&#10;  M 74.61 55.15&#10;  L 64.67 64.12&#10;  A 0.54 0.54 0.0 0 0 64.76 64.98&#10;  L 67.37 66.48&#10;  A 1.09 1.09 0.0 0 0 68.69 66.30&#10;  C 75.70 59.21 82.79 53.76 91.78 49.52&#10;  Q 94.77 48.11 97.62 47.63&#10;  C 110.75 45.44 106.62 59.65 103.16 65.45&#10;  A 0.80 0.79 -74.6 0 0 103.84 66.65&#10;  L 105.80 66.65&#10;  A 1.51 1.50 -80.5 0 0 107.22 65.63&#10;  C 109.92 57.67 110.70 45.64 98.75 45.42&#10;  Q 95.60 45.36 93.66 45.84&#10;  Q 85.36 47.88 77.80 52.91"/>
<path stroke="#e8be95" d="&#10;  M 77.80 52.91&#10;  Q 73.93 49.63 68.23 47.27&#10;  Q 63.47 45.29 59.02 45.14&#10;  C 45.40 44.67 45.20 57.53 49.48 66.60&#10;  Q 51.07 69.99 51.37 70.91&#10;  A 1.92 1.91 44.7 0 1 51.38 72.01&#10;  Q 48.54 81.83 57.48 86.36&#10;  C 59.11 87.19 61.28 86.81 62.84 87.17&#10;  A 1.77 1.74 76.1 0 1 63.79 87.75&#10;  Q 68.59 93.36 73.23 96.64&#10;  A 1.82 1.80 38.3 0 0 75.63 96.37&#10;  L 76.17 95.77&#10;  A 1.20 1.19 -48.2 0 0 76.08 94.09&#10;  L 67.34 86.29&#10;  A 0.91 0.91 0.0 0 1 67.42 84.87&#10;  Q 71.90 81.67 71.88 76.06&#10;  Q 71.86 71.82 69.06 69.19&#10;  C 64.67 65.05 59.02 64.47 54.18 68.21&#10;  Q 53.84 68.47 53.88 68.71&#10;  Q 53.96 69.20 53.91 69.27&#10;  A 0.49 0.48 -41.8 0 1 53.09 69.23&#10;  Q 49.30 62.61 50.01 56.26&#10;  C 51.12 46.46 59.29 47.08 65.99 50.52&#10;  Q 70.27 52.71 74.61 55.15"/>
<path stroke="#715a50" d="&#10;  M 77.80 52.91&#10;  L 74.61 55.15"/>
<path stroke="#e8be95" d="&#10;  M 91.98 66.51&#10;  A 0.73 0.72 -19.3 0 0 92.55 65.33&#10;  Q 88.89 60.75 83.73 56.97&#10;  A 2.64 2.63 46.8 0 0 80.75 56.87&#10;  L 80.01 57.34&#10;  A 1.35 1.34 -40.4 0 0 79.83 59.48&#10;  L 86.99 65.87&#10;  A 2.54 2.52 65.7 0 0 88.67 66.51&#10;  L 91.98 66.51"/>
<path stroke="#889bba" d="&#10;  M 93.77 83.15&#10;  Q 94.69 83.15 95.03 83.13&#10;  A 0.70 0.69 -1.8 0 0 95.69 82.44&#10;  L 95.69 73.94&#10;  A 0.72 0.71 -90.0 0 1 96.40 73.22&#10;  L 99.41 73.22&#10;  A 1.05 1.04 -0.0 0 0 100.46 72.18&#10;  L 100.46 70.51&#10;  A 0.91 0.90 -0.2 0 0 99.55 69.61&#10;  Q 96.94 69.63 93.75 69.60&#10;  Q 90.56 69.64 87.95 69.62&#10;  A 0.91 0.90 0.1 0 0 87.04 70.53&#10;  L 87.05 72.20&#10;  A 1.05 1.04 -0.1 0 0 88.10 73.23&#10;  L 91.11 73.23&#10;  A 0.72 0.71 89.9 0 1 91.82 73.94&#10;  L 91.84 82.44&#10;  A 0.70 0.69 1.7 0 0 92.50 83.13&#10;  Q 92.84 83.15 93.77 83.15"/>
<path stroke="#889bba" d="&#10;  M 41.77 83.12&#10;  C 45.46 83.14 48.95 81.53 48.83 77.29&#10;  Q 48.79 75.96 48.87 70.70&#10;  A 0.83 0.82 0.7 0 0 48.04 69.86&#10;  L 45.17 69.86&#10;  A 0.73 0.72 -0.0 0 0 44.44 70.58&#10;  L 44.41 78.88&#10;  A 0.59 0.52 60.4 0 1 44.36 79.10&#10;  Q 43.93 80.15 41.79 80.14&#10;  Q 39.65 80.13 39.22 79.08&#10;  A 0.59 0.52 -59.8 0 1 39.17 78.85&#10;  L 39.23 70.55&#10;  A 0.73 0.72 0.6 0 0 38.51 69.83&#10;  L 35.64 69.80&#10;  A 0.83 0.82 -0.1 0 0 34.80 70.63&#10;  Q 34.82 75.89 34.77 77.22&#10;  C 34.61 81.45 38.08 83.10 41.77 83.12"/>
<path stroke="#889bba" d="&#10;  M 80.92 79.90&#10;  Q 79.29 80.16 78.37 79.42&#10;  C 76.86 78.21 76.07 77.90 74.45 78.16&#10;  A 1.06 1.06 0.0 0 0 73.68 79.70&#10;  Q 75.64 83.37 79.84 83.10&#10;  Q 83.14 82.89 84.56 81.51&#10;  C 87.42 78.74 85.46 75.74 82.19 74.96&#10;  Q 80.27 74.50 78.54 74.12&#10;  A 0.71 0.71 0.0 0 1 78.23 72.89&#10;  C 78.98 72.24 80.17 72.41 81.08 72.96&#10;  Q 82.89 74.06 85.05 74.06&#10;  A 0.55 0.54 -4.5 0 0 85.59 73.43&#10;  C 84.99 69.66 79.63 69.16 76.74 70.10&#10;  C 74.32 70.89 72.58 73.90 74.94 75.93&#10;  Q 77.45 78.08 80.36 78.03&#10;  A 1.11 1.08 0.5 0 1 81.49 79.15&#10;  Q 81.48 79.51 81.21 79.76&#10;  A 0.56 0.48 -66.2 0 1 80.92 79.90"/>
<path stroke="#889bba" d="&#10;  M 100.91 76.84&#10;  C 100.98 79.88 102.95 82.64 105.95 83.33&#10;  Q 111.61 84.64 114.58 79.57&#10;  A 0.84 0.84 0.0 0 0 113.88 78.31&#10;  Q 112.07 78.25 110.86 79.05&#10;  C 108.19 80.81 105.41 80.75 104.44 77.37&#10;  Q 104.36 77.08 104.35 76.76&#10;  Q 104.34 76.45 104.41 76.15&#10;  C 105.22 72.73 107.99 72.54 110.74 74.17&#10;  Q 111.99 74.91 113.80 74.76&#10;  A 0.84 0.84 0.0 0 0 114.43 73.47&#10;  Q 111.23 68.55 105.64 70.12&#10;  C 102.67 70.96 100.84 73.81 100.91 76.84"/>
<path stroke="#e8be95" d="&#10;  M 78.19 100.08&#10;  Q 83.53 104.82 90.67 106.88&#10;  Q 95.11 108.16 98.95 107.84&#10;  C 110.94 106.83 109.99 95.08 106.61 86.81&#10;  A 2.57 2.57 0.0 0 0 105.08 85.36&#10;  L 103.42 84.78&#10;  A 1.03 1.03 0.0 0 0 102.21 86.29&#10;  C 105.07 90.92 108.70 100.19 105.00 104.47&#10;  C 102.60 107.24 95.55 105.51 92.62 104.15&#10;  Q 86.69 101.41 81.05 98.08"/>
<path stroke="#889bba" d="&#10;  M 81.05 98.08&#10;  Q 88.59 92.70 94.55 85.74&#10;  A 0.44 0.44 0.0 0 0 94.21 85.01&#10;  L 89.97 85.01&#10;  A 2.58 2.58 0.0 0 0 88.12 85.79&#10;  Q 81.03 93.06 77.16 95.91&#10;  C 71.45 100.14 62.97 105.65 55.59 105.68&#10;  C 44.09 105.72 50.53 90.78 53.83 85.89&#10;  A 0.18 0.18 0.0 0 0 53.82 85.68&#10;  L 51.63 82.91&#10;  A 0.20 0.20 0.0 0 0 51.30 82.95&#10;  C 46.94 91.45 42.60 107.94 58.00 107.68&#10;  Q 62.14 107.61 66.28 106.04&#10;  Q 73.05 103.47 78.19 100.08"/>
<path stroke="#715a50" d="&#10;  M 81.05 98.08&#10;  Q 79.82 98.53 78.19 100.08"/>
<path stroke="#80aed1" d="&#10;  M 28.17 47.41&#10;  L 30.67 47.33&#10;  A 0.66 0.66 0.0 0 0 31.31 46.64&#10;  L 31.30 46.52&#10;  A 2.78 1.84 88.0 0 0 29.37 43.81&#10;  L 29.23 43.81&#10;  A 2.78 1.84 88.0 0 0 27.49 46.66&#10;  L 27.49 46.78&#10;  A 0.66 0.66 0.0 0 0 28.17 47.41"/>
<path stroke="#e8be95" d="&#10;  M 57.56 76.52&#10;  L 66.56 76.52&#10;  A 0.72 0.71 -87.4 0 0 67.27 75.87&#10;  C 67.98 67.01 54.93 67.88 54.70 75.73&#10;  C 54.50 82.35 60.52 85.62 65.61 81.36&#10;  A 0.89 0.88 -55.1 0 0 65.35 79.85&#10;  C 63.64 79.25 61.92 81.98 59.51 80.97&#10;  Q 57.21 80.01 56.97 77.17&#10;  A 0.60 0.59 87.4 0 1 57.56 76.52"/>
<path stroke="#e8be95" d="&#10;  M 57.49 74.87&#10;  L 65.03 75.03&#10;  A 0.11 0.11 0.0 0 0 65.14 74.92&#10;  L 65.14 74.88&#10;  A 3.74 3.45 1.2 0 0 61.48 71.35&#10;  L 61.20 71.35&#10;  A 3.74 3.45 1.2 0 0 57.39 74.72&#10;  L 57.39 74.76&#10;  A 0.11 0.11 0.0 0 0 57.49 74.87"/>
<path stroke="#80aed1" d="&#10;  M 130.2816 75.9711&#10;  A 1.06 0.77 -119.9 0 0 130.1425 77.2738&#10;  A 1.06 0.77 -119.9 0 0 131.3384 77.8089&#10;  A 1.06 0.77 -119.9 0 0 131.4775 76.5062&#10;  A 1.06 0.77 -119.9 0 0 130.2816 75.9711"/>
<path stroke="#80aed1" d="&#10;  M 10.10 74.56&#10;  L 13.96 75.99&#10;  A 0.20 0.20 0.0 0 0 14.22 75.87&#10;  L 14.24 75.80&#10;  A 2.06 1.87 20.2 0 0 12.96 73.33&#10;  L 12.58 73.20&#10;  A 2.06 1.87 20.2 0 0 10.00 74.24&#10;  L 9.98 74.31&#10;  A 0.20 0.20 0.0 0 0 10.10 74.56"/>
<path stroke="#80aed1" d="&#10;  M 38.5238 125.5155&#10;  A 1.27 1.01 -168.9 0 0 39.5756 126.7511&#10;  A 1.27 1.01 -168.9 0 0 41.0162 126.0045&#10;  A 1.27 1.01 -168.9 0 0 39.9644 124.7689&#10;  A 1.27 1.01 -168.9 0 0 38.5238 125.5155"/>
<path stroke="#80aed1" d="&#10;  M 57.92 141.29&#10;  L 60.15 141.48&#10;  A 0.42 0.42 0.0 0 0 60.61 141.10&#10;  L 60.62 140.97&#10;  A 2.03 1.40 -85.0 0 0 59.40 138.83&#10;  L 59.12 138.80&#10;  A 2.03 1.40 -85.0 0 0 57.55 140.70&#10;  L 57.54 140.83&#10;  A 0.42 0.42 0.0 0 0 57.92 141.29"/>
</g>
<path fill="#ffffff" d="&#10;  M 150.00 0.00&#10;  L 150.00 74.10&#10;  C 147.79 20.58 91.39 -14.11 42.80 10.11&#10;  C 11.73 25.60 -4.76 60.05 3.50 94.00&#10;  C 10.69 123.53 35.51 145.82 65.75 150.00&#10;  L 0.00 150.00&#10;  L 0.00 0.00&#10;  L 150.00 0.00&#10;  Z"/>
<path fill="#005ca2" d="&#10;  M 150.00 74.10&#10;  L 150.00 79.16&#10;  C 148.84 115.01 121.68 144.46 86.47 150.00&#10;  L 65.75 150.00&#10;  C 35.51 145.82 10.69 123.53 3.50 94.00&#10;  C -4.76 60.05 11.73 25.60 42.80 10.11&#10;  C 91.39 -14.11 147.79 20.58 150.00 74.10&#10;  Z&#10;  M 61.94 26.26&#10;  L 59.93 17.95&#10;  A 1.41 1.29 42.5 0 1 59.89 17.49&#10;  L 59.97 16.26&#10;  A 0.96 0.94 21.3 0 0 59.61 15.46&#10;  Q 56.88 13.31 55.47 10.60&#10;  A 0.82 0.81 76.0 0 0 54.75 10.16&#10;  L 54.28 10.16&#10;  A 0.53 0.52 74.8 0 0 53.83 10.95&#10;  L 55.02 13.02&#10;  A 0.99 0.99 0.0 0 1 54.44 14.46&#10;  Q 53.04 14.86 53.04 16.20&#10;  C 53.05 18.12 55.36 18.04 54.54 20.84&#10;  A 0.90 0.90 0.0 0 0 55.62 21.96&#10;  L 57.64 21.47&#10;  A 0.69 0.68 -21.3 0 1 58.38 21.79&#10;  L 61.14 26.58&#10;  A 0.44 0.44 0.0 0 0 61.94 26.26&#10;  Z&#10;  M 90.50 15.60&#10;  Q 91.08 16.90 91.13 17.09&#10;  C 91.69 19.12 88.46 20.94 86.99 21.11&#10;  A 1.15 1.15 0.0 0 0 86.83 23.36&#10;  L 90.31 24.26&#10;  A 0.81 0.79 -13.1 0 1 90.74 24.52&#10;  Q 92.50 26.55 95.72 26.79&#10;  A 1.00 0.97 76.0 0 1 96.51 27.28&#10;  L 97.55 29.08&#10;  A 1.31 1.28 84.5 0 0 98.24 29.66&#10;  L 102.71 31.22&#10;  A 0.37 0.37 0.0 0 0 103.12 30.64&#10;  L 99.96 26.66&#10;  A 1.80 1.79 45.3 0 1 99.97 24.41&#10;  Q 100.88 23.30 101.58 20.80&#10;  A 0.77 0.77 0.0 0 0 101.12 19.88&#10;  Q 100.62 19.69 99.93 19.71&#10;  A 0.33 0.32 0.8 0 1 99.59 19.37&#10;  L 99.60 19.19&#10;  A 0.34 0.33 -85.2 0 1 99.97 18.87&#10;  Q 103.28 19.20 104.32 16.57&#10;  A 0.57 0.57 0.0 0 0 103.50 15.87&#10;  L 101.94 16.77&#10;  A 0.74 0.74 0.0 0 1 100.95 15.73&#10;  Q 101.88 14.30 101.82 13.50&#10;  A 0.65 0.65 0.0 0 0 100.61 13.22&#10;  L 98.86 16.25&#10;  A 1.17 1.17 0.0 0 1 97.67 16.82&#10;  Q 95.68 16.53 93.89 17.95&#10;  A 0.16 0.15 -37.3 0 1 93.67 17.93&#10;  L 93.48 17.69&#10;  A 0.35 0.34 51.6 0 1 93.53 17.21&#10;  C 94.83 16.17 96.67 14.70 96.25 13.19&#10;  A 1.24 1.11 -44.5 0 0 94.02 13.29&#10;  Q 93.03 15.82 90.88 15.17&#10;  A 0.32 0.31 86.8 0 0 90.50 15.60&#10;  Z&#10;  M 49.07 23.15&#10;  L 49.07 26.79&#10;  A 0.96 0.95 60.0 0 0 50.85 27.27&#10;  L 51.70 25.79&#10;  A 0.48 0.48 0.0 0 1 52.47 25.71&#10;  Q 53.00 26.29 52.84 27.36&#10;  A 0.72 0.72 0.0 0 0 53.55 28.18&#10;  L 54.12 28.18&#10;  A 0.69 0.69 0.0 0 0 54.81 27.54&#10;  C 54.94 25.94 53.05 23.85 52.93 23.01&#10;  A 3.69 3.06 47.8 0 1 52.90 22.32&#10;  L 53.19 18.34&#10;  A 0.33 0.32 -19.5 0 0 52.64 18.08&#10;  Q 52.18 18.53 51.83 20.62&#10;  A 0.46 0.46 0.0 0 1 50.99 20.80&#10;  Q 48.92 17.54 49.70 13.99&#10;  A 0.88 0.88 0.0 0 0 48.12 13.28&#10;  C 47.26 14.46 47.93 17.15 48.52 18.65&#10;  A 0.91 0.91 0.0 0 1 48.46 19.42&#10;  L 46.42 22.94&#10;  A 0.61 0.61 0.0 0 0 47.25 23.77&#10;  L 48.69 22.93&#10;  A 0.26 0.25 -14.6 0 1 49.07 23.15&#10;  Z&#10;  M 126.02 76.51&#10;  A 50.30 50.30 0.0 0 0 75.72 26.21&#10;  A 50.30 50.30 0.0 0 0 25.42 76.51&#10;  A 50.30 50.30 0.0 0 0 75.72 126.81&#10;  A 50.30 50.30 0.0 0 0 126.02 76.51&#10;  Z&#10;  M 30.97 38.53&#10;  A 0.59 0.59 0.0 0 0 30.08 37.85&#10;  Q 28.11 39.20 26.48 41.63&#10;  A 0.68 0.68 0.0 0 1 25.40 41.68&#10;  Q 23.40 39.30 21.85 37.83&#10;  A 2.47 2.46 53.6 0 0 19.06 37.40&#10;  Q 17.77 38.04 17.81 39.77&#10;  A 0.91 0.90 76.7 0 0 19.10 40.57&#10;  Q 19.52 40.37 20.24 40.21&#10;  A 1.07 1.04 58.7 0 1 21.17 40.45&#10;  L 25.57 44.38&#10;  A 0.83 0.83 0.0 0 1 25.74 45.42&#10;  L 24.53 47.51&#10;  A 0.76 0.75 13.7 0 0 25.22 48.64&#10;  Q 27.80 48.53 30.11 49.62&#10;  A 1.04 1.03 35.0 0 0 31.28 49.42&#10;  Q 33.47 47.29 34.12 44.79&#10;  A 1.09 1.05 33.6 0 0 33.91 43.84&#10;  Q 32.43 42.04 30.75 41.06&#10;  A 0.77 0.77 0.0 0 1 30.41 40.14&#10;  L 30.97 38.53&#10;  Z&#10;  M 129.71 42.99&#10;  L 132.61 40.68&#10;  A 2.05 2.03 -28.2 0 0 133.29 38.46&#10;  L 133.17 38.10&#10;  A 1.44 1.44 0.0 0 0 130.91 37.41&#10;  L 127.20 40.36&#10;  A 2.24 2.24 0.0 0 1 124.32 40.28&#10;  L 122.71 38.83&#10;  A 1.31 1.31 0.0 0 0 120.70 40.47&#10;  L 121.64 42.10&#10;  A 0.72 0.72 0.0 0 1 120.77 43.14&#10;  Q 118.92 42.48 118.11 44.00&#10;  A 0.72 0.71 34.5 0 0 118.28 44.89&#10;  Q 122.60 48.57 126.59 45.41&#10;  A 1.59 1.59 0.0 0 1 128.36 45.28&#10;  L 132.29 47.55&#10;  A 0.73 0.73 0.0 0 0 133.32 46.60&#10;  Q 132.29 44.43 129.88 43.79&#10;  A 0.46 0.45 33.4 0 1 129.71 42.99&#10;  Z&#10;  M 126.00 53.44&#10;  A 2.23 2.22 58.2 0 0 126.54 51.11&#10;  Q 125.61 48.46 124.28 47.68&#10;  A 0.61 0.61 0.0 0 0 123.36 48.21&#10;  Q 123.36 51.34 124.22 53.24&#10;  A 1.03 1.03 0.0 0 0 125.89 53.55&#10;  L 126.00 53.44&#10;  Z&#10;  M 139.07 76.40&#10;  A 0.43 0.43 0.0 0 1 138.52 76.23&#10;  Q 137.20 74.04 135.02 73.75&#10;  A 0.67 0.67 0.0 0 0 134.60 75.00&#10;  L 136.27 75.97&#10;  A 0.60 0.60 0.0 0 1 136.02 77.09&#10;  C 134.60 77.20 132.32 75.81 132.31 73.97&#10;  Q 132.30 72.84 132.20 72.46&#10;  A 0.49 0.49 0.0 0 0 131.36 72.25&#10;  L 128.30 75.68&#10;  A 1.44 1.43 65.8 0 0 127.93 76.67&#10;  Q 127.96 78.20 129.07 79.61&#10;  A 1.07 1.04 70.6 0 0 129.90 80.02&#10;  L 131.87 80.02&#10;  A 0.79 0.79 0.0 0 1 132.59 80.48&#10;  L 133.35 82.14&#10;  A 0.83 0.82 -35.9 0 0 134.71 82.35&#10;  Q 135.88 81.07 134.44 79.44&#10;  A 0.45 0.45 0.0 0 1 134.73 78.70&#10;  Q 138.10 78.31 140.44 79.30&#10;  A 0.70 0.69 21.5 0 0 141.37 78.90&#10;  C 142.59 75.45 140.57 73.00 138.47 70.24&#10;  Q 137.34 68.77 134.74 69.86&#10;  A 0.72 0.72 0.0 0 0 134.64 71.15&#10;  Q 137.62 72.92 139.43 76.01&#10;  A 0.20 0.19 -27.2 0 1 139.34 76.28&#10;  L 139.07 76.40&#10;  Z&#10;  M 144.6717 69.6907&#10;  A 2.12 1.15 -33.8 0 0 142.2703 69.9144&#10;  A 2.12 1.15 -33.8 0 0 141.1483 72.0493&#10;  A 2.12 1.15 -33.8 0 0 143.5497 71.8256&#10;  A 2.12 1.15 -33.8 0 0 144.6717 69.6907&#10;  Z&#10;  M 13.08 81.94&#10;  L 16.33 83.07&#10;  A 0.81 0.81 0.0 0 0 17.38 82.54&#10;  C 18.26 79.59 21.19 81.21 22.60 80.07&#10;  Q 24.39 78.63 24.12 74.24&#10;  A 0.83 0.82 -82.2 0 0 23.57 73.50&#10;  L 23.18 73.37&#10;  A 0.89 0.89 0.0 0 0 22.00 74.13&#10;  Q 21.76 77.03 21.52 78.04&#10;  A 0.88 0.88 0.0 0 1 19.78 77.82&#10;  Q 19.81 76.39 19.38 75.51&#10;  A 1.01 1.00 81.3 0 0 18.63 74.95&#10;  Q 15.49 74.50 14.17 71.54&#10;  A 0.96 0.96 0.0 0 0 12.81 71.09&#10;  L 9.20 73.17&#10;  A 0.98 0.95 36.4 0 1 8.47 73.27&#10;  Q 6.23 72.72 4.38 73.74&#10;  A 0.53 0.53 0.0 0 0 4.67 74.74&#10;  C 7.12 74.60 9.04 77.37 10.83 79.25&#10;  A 1.24 1.23 -30.7 0 0 12.09 79.57&#10;  Q 13.25 79.21 14.18 79.34&#10;  A 0.93 0.93 0.0 0 1 14.28 81.16&#10;  L 13.10 81.45&#10;  A 0.26 0.25 47.7 0 0 13.08 81.94&#10;  Z&#10;  M 145.2412 73.3373&#10;  A 1.13 0.96 -28.7 0 0 143.7890 73.0379&#10;  A 1.13 0.96 -28.7 0 0 143.2588 74.4227&#10;  A 1.13 0.96 -28.7 0 0 144.7110 74.7221&#10;  A 1.13 0.96 -28.7 0 0 145.2412 73.3373&#10;  Z&#10;  M 143.59 76.46&#10;  Q 143.58 76.48 143.57 76.51&#10;  A 0.15 0.02 -73.7 0 0 143.55 76.63&#10;  L 145.36 79.96&#10;  A 0.90 0.90 0.0 0 0 146.24 80.42&#10;  Q 147.13 80.32 147.67 79.63&#10;  Q 148.21 78.93 148.09 78.04&#10;  A 0.90 0.90 0.0 0 0 147.42 77.30&#10;  L 143.75 76.37&#10;  A 0.15 0.02 -30.7 0 0 143.64 76.42&#10;  Q 143.61 76.44 143.59 76.46&#10;  Z&#10;  M 112.4013 117.2107&#10;  A 1.11 0.84 -92.0 0 0 111.6005 118.3493&#10;  A 1.11 0.84 -92.0 0 0 112.4787 119.4293&#10;  A 1.11 0.84 -92.0 0 0 113.2795 118.2907&#10;  A 1.11 0.84 -92.0 0 0 112.4013 117.2107&#10;  Z&#10;  M 113.51 124.84&#10;  Q 113.66 122.68 114.78 121.19&#10;  A 1.30 1.28 -71.2 0 1 115.81 120.67&#10;  L 116.49 120.67&#10;  A 0.66 0.66 0.0 0 0 117.01 119.61&#10;  Q 116.16 118.52 115.20 118.73&#10;  A 0.55 0.52 -75.5 0 0 114.90 118.92&#10;  L 112.48 121.88&#10;  A 1.08 1.07 67.7 0 0 112.23 122.48&#10;  Q 112.13 123.75 112.76 124.99&#10;  A 0.40 0.40 0.0 0 0 113.51 124.84&#10;  Z&#10;  M 32.70 132.07&#10;  Q 34.91 130.41 35.88 128.91&#10;  A 0.92 0.92 0.0 0 1 36.87 128.53&#10;  Q 39.14 129.11 42.50 127.33&#10;  A 1.18 1.15 -7.8 0 0 43.09 126.57&#10;  C 43.55 124.66 42.47 124.16 41.23 123.24&#10;  A 0.60 0.60 0.0 0 1 41.14 122.36&#10;  L 42.56 120.77&#10;  A 0.47 0.47 0.0 0 0 42.44 120.05&#10;  L 42.13 119.87&#10;  A 0.64 0.63 36.0 0 0 41.35 119.99&#10;  L 39.68 121.87&#10;  A 0.88 0.88 0.0 0 1 38.82 122.14&#10;  Q 36.62 121.60 35.73 120.34&#10;  A 0.73 0.72 -36.3 0 0 34.70 120.19&#10;  Q 32.72 121.74 32.11 123.82&#10;  A 0.67 0.67 0.0 0 0 32.31 124.51&#10;  L 32.57 124.74&#10;  A 0.42 0.41 -53.7 0 0 33.21 124.64&#10;  L 34.64 122.16&#10;  A 0.36 0.36 0.0 0 1 35.13 122.03&#10;  L 37.10 123.17&#10;  A 1.10 1.10 0.0 0 1 36.55 125.23&#10;  L 34.35 125.23&#10;  A 0.79 0.78 65.9 0 0 33.83 126.60&#10;  L 34.51 127.21&#10;  A 0.58 0.58 0.0 0 1 34.63 127.93&#10;  L 32.39 131.80&#10;  A 0.21 0.21 0.0 0 0 32.70 132.07&#10;  Z&#10;  M 113.39 129.47&#10;  Q 114.09 126.20 111.52 124.88&#10;  A 1.03 1.03 0.0 0 1 110.97 124.06&#10;  Q 110.93 123.64 110.98 122.98&#10;  A 1.44 1.41 81.6 0 0 109.05 121.51&#10;  Q 107.28 122.23 107.41 124.44&#10;  A 0.63 0.63 0.0 0 0 108.59 124.72&#10;  Q 109.17 123.71 109.62 123.56&#10;  A 0.50 0.50 0.0 0 1 110.13 124.38&#10;  C 107.19 127.41 111.79 132.84 114.34 134.44&#10;  A 0.39 0.39 0.0 0 0 114.87 134.33&#10;  L 114.90 134.28&#10;  A 0.34 0.34 0.0 0 0 114.82 133.82&#10;  C 113.38 132.76 109.99 129.20 110.33 127.08&#10;  A 1.10 0.99 46.6 0 1 112.38 127.25&#10;  Q 112.56 128.15 112.10 129.42&#10;  A 0.37 0.36 -80.3 0 0 112.44 129.91&#10;  L 112.85 129.91&#10;  A 0.57 0.55 -83.4 0 0 113.39 129.47&#10;  Z&#10;  M 116.1930 122.3619&#10;  A 1.16 0.78 -72.8 0 0 115.1049 123.2393&#10;  A 1.16 0.78 -72.8 0 0 115.5070 124.5781&#10;  A 1.16 0.78 -72.8 0 0 116.5951 123.7007&#10;  A 1.16 0.78 -72.8 0 0 116.1930 122.3619&#10;  Z&#10;  M 117.84 126.78&#10;  Q 118.28 128.06 117.33 130.27&#10;  A 0.68 0.68 0.0 0 0 118.48 130.97&#10;  Q 118.51 130.94 118.93 129.97&#10;  A 1.31 1.28 8.6 0 1 120.01 129.19&#10;  Q 123.92 128.86 123.28 124.67&#10;  Q 123.18 124.03 121.83 124.09&#10;  A 0.36 0.35 69.7 0 0 121.57 124.66&#10;  Q 123.00 126.57 121.34 127.47&#10;  A 1.85 1.81 -18.0 0 1 118.64 126.13&#10;  Q 118.63 126.05 118.58 124.09&#10;  A 0.57 0.57 0.0 0 0 117.58 123.73&#10;  Q 115.63 125.93 115.35 128.83&#10;  A 0.35 0.35 0.0 0 0 115.97 129.08&#10;  Q 116.98 127.85 117.30 126.79&#10;  A 0.28 0.28 0.0 0 1 117.84 126.78&#10;  Z&#10;  M 89.69 130.97&#10;  Q 88.88 130.18 87.46 129.92&#10;  A 0.98 0.97 -63.6 0 0 86.58 130.22&#10;  Q 86.29 130.52 86.07 132.04&#10;  A 0.30 0.30 0.0 0 0 86.52 132.34&#10;  Q 87.99 131.43 90.27 131.24&#10;  A 1.34 1.30 20.2 0 0 91.06 130.89&#10;  Q 92.28 129.73 92.22 128.87&#10;  A 0.66 0.65 81.6 0 0 91.43 128.28&#10;  L 91.21 128.35&#10;  A 0.47 0.46 -3.2 0 0 90.88 128.71&#10;  L 90.47 130.73&#10;  A 0.46 0.46 0.0 0 1 89.69 130.97&#10;  Z&#10;  M 63.03 140.84&#10;  C 63.76 139.98 64.60 139.75 65.03 138.49&#10;  Q 66.19 135.08 65.29 132.07&#10;  A 1.23 1.12 -33.2 0 0 63.28 131.75&#10;  Q 62.74 132.33 63.08 132.76&#10;  Q 65.00 135.25 63.38 138.98&#10;  A 1.18 1.17 -57.4 0 1 61.52 139.39&#10;  L 59.90 137.94&#10;  A 1.38 1.27 68.4 0 0 59.22 137.61&#10;  C 56.20 137.13 54.78 142.14 57.51 143.01&#10;  Q 59.16 143.53 62.14 143.56&#10;  C 63.88 143.58 64.90 143.81 66.51 144.33&#10;  A 1.08 1.08 0.0 0 0 67.65 144.03&#10;  Q 70.35 141.14 68.50 137.86&#10;  A 0.47 0.47 0.0 0 0 67.63 138.20&#10;  L 68.11 140.18&#10;  A 1.22 1.22 0.0 0 1 66.92 141.69&#10;  L 63.43 141.69&#10;  A 0.52 0.52 0.0 0 1 63.03 140.84&#10;  Z&#10;  M 93.13 133.91&#10;  A 0.70 0.70 0.0 0 0 94.49 133.64&#10;  Q 94.30 131.19 93.26 131.58&#10;  C 91.13 132.37 88.83 133.89 86.72 134.23&#10;  Q 85.73 134.39 85.37 135.61&#10;  Q 84.88 137.28 84.88 137.66&#10;  A 0.84 0.84 0.0 0 0 85.55 138.51&#10;  L 85.73 138.54&#10;  A 0.57 0.56 3.6 0 0 86.41 137.95&#10;  Q 86.34 137.13 86.65 136.59&#10;  A 1.81 1.72 1.5 0 1 87.46 135.86&#10;  L 92.35 133.62&#10;  A 0.61 0.61 0.0 0 1 93.10 133.82&#10;  Q 93.11 133.85 93.13 133.91&#10;  Z&#10;  M 88.69 138.76&#10;  L 91.10 136.85&#10;  A 0.48 0.48 0.0 0 1 91.86 137.38&#10;  Q 91.02 139.77 88.89 140.88&#10;  A 0.74 0.74 0.0 0 0 89.41 142.26&#10;  L 92.40 141.53&#10;  A 0.61 0.61 0.0 0 1 93.08 142.42&#10;  Q 92.47 143.54 90.67 144.28&#10;  A 0.56 0.56 0.0 0 0 90.38 145.06&#10;  L 90.41 145.13&#10;  A 0.62 0.62 0.0 0 0 91.21 145.41&#10;  C 93.81 144.32 93.86 141.00 95.15 139.37&#10;  A 0.59 0.58 -52.2 0 0 95.05 138.54&#10;  Q 94.57 138.17 93.54 138.38&#10;  A 0.38 0.38 0.0 0 1 93.09 138.01&#10;  L 93.09 135.64&#10;  A 0.64 0.63 86.1 0 0 92.37 135.01&#10;  Q 89.44 135.44 87.84 138.00&#10;  A 0.58 0.58 0.0 0 0 88.69 138.76&#10;  Z"/>
<path fill="#ffffff" d="&#10;  M 61.94 26.26&#10;  A 0.44 0.44 0.0 0 1 61.14 26.58&#10;  L 58.38 21.79&#10;  A 0.69 0.68 -21.3 0 0 57.64 21.47&#10;  L 55.62 21.96&#10;  A 0.90 0.90 0.0 0 1 54.54 20.84&#10;  C 55.36 18.04 53.05 18.12 53.04 16.20&#10;  Q 53.04 14.86 54.44 14.46&#10;  A 0.99 0.99 0.0 0 0 55.02 13.02&#10;  L 53.83 10.95&#10;  A 0.53 0.52 74.8 0 1 54.28 10.16&#10;  L 54.75 10.16&#10;  A 0.82 0.81 76.0 0 1 55.47 10.60&#10;  Q 56.88 13.31 59.61 15.46&#10;  A 0.96 0.94 21.3 0 1 59.97 16.26&#10;  L 59.89 17.49&#10;  A 1.41 1.29 42.5 0 0 59.93 17.95&#10;  L 61.94 26.26&#10;  Z&#10;  M 54.80 16.68&#10;  Q 54.86 16.87 55.20 16.85&#10;  Q 55.77 16.82 55.88 16.24&#10;  Q 55.92 16.02 55.61 15.95&#10;  A 0.66 0.60 -0.0 0 0 54.80 16.68&#10;  Z&#10;  M 57.12 19.07&#10;  A 0.62 0.62 0.0 0 0 56.50 18.45&#10;  A 0.62 0.62 0.0 0 0 55.88 19.07&#10;  A 0.62 0.62 0.0 0 0 56.50 19.69&#10;  A 0.62 0.62 0.0 0 0 57.12 19.07&#10;  Z"/>
<path fill="#ffffff" d="&#10;  M 90.88 15.17&#10;  Q 93.03 15.82 94.02 13.29&#10;  A 1.24 1.11 -44.5 0 1 96.25 13.19&#10;  C 96.67 14.70 94.83 16.17 93.53 17.21&#10;  A 0.35 0.34 51.6 0 0 93.48 17.69&#10;  L 93.67 17.93&#10;  A 0.16 0.15 -37.3 0 0 93.89 17.95&#10;  Q 95.68 16.53 97.67 16.82&#10;  A 1.17 1.17 0.0 0 0 98.86 16.25&#10;  L 100.61 13.22&#10;  A 0.65 0.65 0.0 0 1 101.82 13.50&#10;  Q 101.88 14.30 100.95 15.73&#10;  A 0.74 0.74 0.0 0 0 101.94 16.77&#10;  L 103.50 15.87&#10;  A 0.57 0.57 0.0 0 1 104.32 16.57&#10;  Q 103.28 19.20 99.97 18.87&#10;  A 0.34 0.33 -85.2 0 0 99.60 19.19&#10;  L 99.59 19.37&#10;  A 0.33 0.32 0.8 0 0 99.93 19.71&#10;  Q 100.62 19.69 101.12 19.88&#10;  A 0.77 0.77 0.0 0 1 101.58 20.80&#10;  Q 100.88 23.30 99.97 24.41&#10;  A 1.80 1.79 45.3 0 0 99.96 26.66&#10;  L 103.12 30.64&#10;  A 0.37 0.37 0.0 0 1 102.71 31.22&#10;  L 98.24 29.66&#10;  A 1.31 1.28 84.5 0 1 97.55 29.08&#10;  L 96.51 27.28&#10;  A 1.00 0.97 76.0 0 0 95.72 26.79&#10;  Q 92.50 26.55 90.74 24.52&#10;  A 0.81 0.79 -13.1 0 0 90.31 24.26&#10;  L 86.83 23.36&#10;  A 1.15 1.15 0.0 0 1 86.99 21.11&#10;  C 88.46 20.94 91.69 19.12 91.13 17.09&#10;  Q 91.08 16.90 90.50 15.60&#10;  A 0.32 0.31 86.8 0 1 90.88 15.17&#10;  Z&#10;  M 95.23 18.44&#10;  Q 95.04 19.17 95.26 19.64&#10;  A 0.73 0.67 -37.1 0 0 96.41 19.75&#10;  Q 96.74 19.38 96.50 18.86&#10;  A 0.86 0.54 50.3 0 0 95.23 18.44&#10;  Z&#10;  M 91.14 23.12&#10;  Q 91.23 23.09 92.12 21.68&#10;  A 0.60 0.60 0.0 0 1 93.21 22.11&#10;  Q 92.88 23.81 94.56 24.45&#10;  A 0.42 0.42 0.0 0 0 95.09 23.88&#10;  Q 94.55 22.77 93.54 21.91&#10;  A 0.55 0.55 0.0 0 1 93.45 21.17&#10;  Q 93.77 20.73 93.77 20.63&#10;  A 0.42 0.41 -16.2 0 0 93.13 20.28&#10;  Q 91.76 21.16 90.85 22.76&#10;  A 0.25 0.25 0.0 0 0 91.14 23.12&#10;  Z&#10;  M 98.6143 22.1846&#10;  A 0.80 0.58 -48.1 0 0 97.6483 22.3927&#10;  A 0.80 0.58 -48.1 0 0 97.5457 23.3754&#10;  A 0.80 0.58 -48.1 0 0 98.5117 23.1673&#10;  A 0.80 0.58 -48.1 0 0 98.6143 22.1846&#10;  Z"/>
<path fill="#ffffff" d="&#10;  M 48.69 22.93&#10;  L 47.25 23.77&#10;  A 0.61 0.61 0.0 0 1 46.42 22.94&#10;  L 48.46 19.42&#10;  A 0.91 0.91 0.0 0 0 48.52 18.65&#10;  C 47.93 17.15 47.26 14.46 48.12 13.28&#10;  A 0.88 0.88 0.0 0 1 49.70 13.99&#10;  Q 48.92 17.54 50.99 20.80&#10;  A 0.46 0.46 0.0 0 0 51.83 20.62&#10;  Q 52.18 18.53 52.64 18.08&#10;  A 0.33 0.32 -19.5 0 1 53.19 18.34&#10;  L 52.90 22.32&#10;  A 3.69 3.06 47.8 0 0 52.93 23.01&#10;  C 53.05 23.85 54.94 25.94 54.81 27.54&#10;  A 0.69 0.69 0.0 0 1 54.12 28.18&#10;  L 53.55 28.18&#10;  A 0.72 0.72 0.0 0 1 52.84 27.36&#10;  Q 53.00 26.29 52.47 25.71&#10;  A 0.48 0.48 0.0 0 0 51.70 25.79&#10;  L 50.85 27.27&#10;  A 0.96 0.95 60.0 0 1 49.07 26.79&#10;  L 49.07 23.15&#10;  A 0.26 0.25 -14.6 0 0 48.69 22.93&#10;  Z"/>
<path fill="#005ca2" d="&#10;  M 54.80 16.68&#10;  A 0.66 0.60 -0.0 0 1 55.61 15.95&#10;  Q 55.92 16.02 55.88 16.24&#10;  Q 55.77 16.82 55.20 16.85&#10;  Q 54.86 16.87 54.80 16.68&#10;  Z"/>
<path fill="#005ca2" d="&#10;  M 95.23 18.44&#10;  A 0.86 0.54 50.3 0 1 96.50 18.86&#10;  Q 96.74 19.38 96.41 19.75&#10;  A 0.73 0.67 -37.1 0 1 95.26 19.64&#10;  Q 95.04 19.17 95.23 18.44&#10;  Z"/>
<circle fill="#005ca2" cx="56.50" cy="19.07" r="0.62"/>
<path fill="#005ca2" d="&#10;  M 90.85 22.76&#10;  Q 91.76 21.16 93.13 20.28&#10;  A 0.42 0.41 -16.2 0 1 93.77 20.63&#10;  Q 93.77 20.73 93.45 21.17&#10;  A 0.55 0.55 0.0 0 0 93.54 21.91&#10;  Q 94.55 22.77 95.09 23.88&#10;  A 0.42 0.42 0.0 0 1 94.56 24.45&#10;  Q 92.88 23.81 93.21 22.11&#10;  A 0.60 0.60 0.0 0 0 92.12 21.68&#10;  Q 91.23 23.09 91.14 23.12&#10;  A 0.25 0.25 0.0 0 1 90.85 22.76&#10;  Z"/>
<ellipse fill="#005ca2" cx="0.00" cy="0.00" transform="translate(98.08,22.78) rotate(-48.1)" rx="0.80" ry="0.58"/>
<path fill="#ffffff" d="&#10;  M 126.02 76.51&#10;  A 50.30 50.30 0.0 0 1 75.72 126.81&#10;  A 50.30 50.30 0.0 0 1 25.42 76.51&#10;  A 50.30 50.30 0.0 0 1 75.72 26.21&#10;  A 50.30 50.30 0.0 0 1 126.02 76.51&#10;  Z&#10;  M 74.61 55.15&#10;  L 64.67 64.12&#10;  A 0.54 0.54 0.0 0 0 64.76 64.98&#10;  L 67.37 66.48&#10;  A 1.09 1.09 0.0 0 0 68.69 66.30&#10;  C 75.70 59.21 82.79 53.76 91.78 49.52&#10;  Q 94.77 48.11 97.62 47.63&#10;  C 110.75 45.44 106.62 59.65 103.16 65.45&#10;  A 0.80 0.79 -74.6 0 0 103.84 66.65&#10;  L 105.80 66.65&#10;  A 1.51 1.50 -80.5 0 0 107.22 65.63&#10;  C 109.92 57.67 110.70 45.64 98.75 45.42&#10;  Q 95.60 45.36 93.66 45.84&#10;  Q 85.36 47.88 77.80 52.91&#10;  Q 73.93 49.63 68.23 47.27&#10;  Q 63.47 45.29 59.02 45.14&#10;  C 45.40 44.67 45.20 57.53 49.48 66.60&#10;  Q 51.07 69.99 51.37 70.91&#10;  A 1.92 1.91 44.7 0 1 51.38 72.01&#10;  Q 48.54 81.83 57.48 86.36&#10;  C 59.11 87.19 61.28 86.81 62.84 87.17&#10;  A 1.77 1.74 76.1 0 1 63.79 87.75&#10;  Q 68.59 93.36 73.23 96.64&#10;  A 1.82 1.80 38.3 0 0 75.63 96.37&#10;  L 76.17 95.77&#10;  A 1.20 1.19 -48.2 0 0 76.08 94.09&#10;  L 67.34 86.29&#10;  A 0.91 0.91 0.0 0 1 67.42 84.87&#10;  Q 71.90 81.67 71.88 76.06&#10;  Q 71.86 71.82 69.06 69.19&#10;  C 64.67 65.05 59.02 64.47 54.18 68.21&#10;  Q 53.84 68.47 53.88 68.71&#10;  Q 53.96 69.20 53.91 69.27&#10;  A 0.49 0.48 -41.8 0 1 53.09 69.23&#10;  Q 49.30 62.61 50.01 56.26&#10;  C 51.12 46.46 59.29 47.08 65.99 50.52&#10;  Q 70.27 52.71 74.61 55.15&#10;  Z&#10;  M 91.98 66.51&#10;  A 0.73 0.72 -19.3 0 0 92.55 65.33&#10;  Q 88.89 60.75 83.73 56.97&#10;  A 2.64 2.63 46.8 0 0 80.75 56.87&#10;  L 80.01 57.34&#10;  A 1.35 1.34 -40.4 0 0 79.83 59.48&#10;  L 86.99 65.87&#10;  A 2.54 2.52 65.7 0 0 88.67 66.51&#10;  L 91.98 66.51&#10;  Z&#10;  M 93.77 83.15&#10;  Q 94.69 83.15 95.03 83.13&#10;  A 0.70 0.69 -1.8 0 0 95.69 82.44&#10;  L 95.69 73.94&#10;  A 0.72 0.71 -90.0 0 1 96.40 73.22&#10;  L 99.41 73.22&#10;  A 1.05 1.04 -0.0 0 0 100.46 72.18&#10;  L 100.46 70.51&#10;  A 0.91 0.90 -0.2 0 0 99.55 69.61&#10;  Q 96.94 69.63 93.75 69.60&#10;  Q 90.56 69.64 87.95 69.62&#10;  A 0.91 0.90 0.1 0 0 87.04 70.53&#10;  L 87.05 72.20&#10;  A 1.05 1.04 -0.1 0 0 88.10 73.23&#10;  L 91.11 73.23&#10;  A 0.72 0.71 89.9 0 1 91.82 73.94&#10;  L 91.84 82.44&#10;  A 0.70 0.69 1.7 0 0 92.50 83.13&#10;  Q 92.84 83.15 93.77 83.15&#10;  Z&#10;  M 41.77 83.12&#10;  C 45.46 83.14 48.95 81.53 48.83 77.29&#10;  Q 48.79 75.96 48.87 70.70&#10;  A 0.83 0.82 0.7 0 0 48.04 69.86&#10;  L 45.17 69.86&#10;  A 0.73 0.72 -0.0 0 0 44.44 70.58&#10;  L 44.41 78.88&#10;  A 0.59 0.52 60.4 0 1 44.36 79.10&#10;  Q 43.93 80.15 41.79 80.14&#10;  Q 39.65 80.13 39.22 79.08&#10;  A 0.59 0.52 -59.8 0 1 39.17 78.85&#10;  L 39.23 70.55&#10;  A 0.73 0.72 0.6 0 0 38.51 69.83&#10;  L 35.64 69.80&#10;  A 0.83 0.82 -0.1 0 0 34.80 70.63&#10;  Q 34.82 75.89 34.77 77.22&#10;  C 34.61 81.45 38.08 83.10 41.77 83.12&#10;  Z&#10;  M 80.92 79.90&#10;  Q 79.29 80.16 78.37 79.42&#10;  C 76.86 78.21 76.07 77.90 74.45 78.16&#10;  A 1.06 1.06 0.0 0 0 73.68 79.70&#10;  Q 75.64 83.37 79.84 83.10&#10;  Q 83.14 82.89 84.56 81.51&#10;  C 87.42 78.74 85.46 75.74 82.19 74.96&#10;  Q 80.27 74.50 78.54 74.12&#10;  A 0.71 0.71 0.0 0 1 78.23 72.89&#10;  C 78.98 72.24 80.17 72.41 81.08 72.96&#10;  Q 82.89 74.06 85.05 74.06&#10;  A 0.55 0.54 -4.5 0 0 85.59 73.43&#10;  C 84.99 69.66 79.63 69.16 76.74 70.10&#10;  C 74.32 70.89 72.58 73.90 74.94 75.93&#10;  Q 77.45 78.08 80.36 78.03&#10;  A 1.11 1.08 0.5 0 1 81.49 79.15&#10;  Q 81.48 79.51 81.21 79.76&#10;  A 0.56 0.48 -66.2 0 1 80.92 79.90&#10;  Z&#10;  M 100.91 76.84&#10;  C 100.98 79.88 102.95 82.64 105.95 83.33&#10;  Q 111.61 84.64 114.58 79.57&#10;  A 0.84 0.84 0.0 0 0 113.88 78.31&#10;  Q 112.07 78.25 110.86 79.05&#10;  C 108.19 80.81 105.41 80.75 104.44 77.37&#10;  Q 104.36 77.08 104.35 76.76&#10;  Q 104.34 76.45 104.41 76.15&#10;  C 105.22 72.73 107.99 72.54 110.74 74.17&#10;  Q 111.99 74.91 113.80 74.76&#10;  A 0.84 0.84 0.0 0 0 114.43 73.47&#10;  Q 111.23 68.55 105.64 70.12&#10;  C 102.67 70.96 100.84 73.81 100.91 76.84&#10;  Z&#10;  M 78.19 100.08&#10;  Q 83.53 104.82 90.67 106.88&#10;  Q 95.11 108.16 98.95 107.84&#10;  C 110.94 106.83 109.99 95.08 106.61 86.81&#10;  A 2.57 2.57 0.0 0 0 105.08 85.36&#10;  L 103.42 84.78&#10;  A 1.03 1.03 0.0 0 0 102.21 86.29&#10;  C 105.07 90.92 108.70 100.19 105.00 104.47&#10;  C 102.60 107.24 95.55 105.51 92.62 104.15&#10;  Q 86.69 101.41 81.05 98.08&#10;  Q 88.59 92.70 94.55 85.74&#10;  A 0.44 0.44 0.0 0 0 94.21 85.01&#10;  L 89.97 85.01&#10;  A 2.58 2.58 0.0 0 0 88.12 85.79&#10;  Q 81.03 93.06 77.16 95.91&#10;  C 71.45 100.14 62.97 105.65 55.59 105.68&#10;  C 44.09 105.72 50.53 90.78 53.83 85.89&#10;  A 0.18 0.18 0.0 0 0 53.82 85.68&#10;  L 51.63 82.91&#10;  A 0.20 0.20 0.0 0 0 51.30 82.95&#10;  C 46.94 91.45 42.60 107.94 58.00 107.68&#10;  Q 62.14 107.61 66.28 106.04&#10;  Q 73.05 103.47 78.19 100.08&#10;  Z"/>
<path fill="#ffffff" d="&#10;  M 30.97 38.53&#10;  L 30.41 40.14&#10;  A 0.77 0.77 0.0 0 0 30.75 41.06&#10;  Q 32.43 42.04 33.91 43.84&#10;  A 1.09 1.05 33.6 0 1 34.12 44.79&#10;  Q 33.47 47.29 31.28 49.42&#10;  A 1.04 1.03 35.0 0 1 30.11 49.62&#10;  Q 27.80 48.53 25.22 48.64&#10;  A 0.76 0.75 13.7 0 1 24.53 47.51&#10;  L 25.74 45.42&#10;  A 0.83 0.83 0.0 0 0 25.57 44.38&#10;  L 21.17 40.45&#10;  A 1.07 1.04 58.7 0 0 20.24 40.21&#10;  Q 19.52 40.37 19.10 40.57&#10;  A 0.91 0.90 76.7 0 1 17.81 39.77&#10;  Q 17.77 38.04 19.06 37.40&#10;  A 2.47 2.46 53.6 0 1 21.85 37.83&#10;  Q 23.40 39.30 25.40 41.68&#10;  A 0.68 0.68 0.0 0 0 26.48 41.63&#10;  Q 28.11 39.20 30.08 37.85&#10;  A 0.59 0.59 0.0 0 1 30.97 38.53&#10;  Z&#10;  M 28.17 47.41&#10;  L 30.67 47.33&#10;  A 0.66 0.66 0.0 0 0 31.31 46.64&#10;  L 31.30 46.52&#10;  A 2.78 1.84 88.0 0 0 29.37 43.81&#10;  L 29.23 43.81&#10;  A 2.78 1.84 88.0 0 0 27.49 46.66&#10;  L 27.49 46.78&#10;  A 0.66 0.66 0.0 0 0 28.17 47.41&#10;  Z"/>
<path fill="#ffffff" d="&#10;  M 129.71 42.99&#10;  A 0.46 0.45 33.4 0 0 129.88 43.79&#10;  Q 132.29 44.43 133.32 46.60&#10;  A 0.73 0.73 0.0 0 1 132.29 47.55&#10;  L 128.36 45.28&#10;  A 1.59 1.59 0.0 0 0 126.59 45.41&#10;  Q 122.60 48.57 118.28 44.89&#10;  A 0.72 0.71 34.5 0 1 118.11 44.00&#10;  Q 118.92 42.48 120.77 43.14&#10;  A 0.72 0.72 0.0 0 0 121.64 42.10&#10;  L 120.70 40.47&#10;  A 1.31 1.31 0.0 0 1 122.71 38.83&#10;  L 124.32 40.28&#10;  A 2.24 2.24 0.0 0 0 127.20 40.36&#10;  L 130.91 37.41&#10;  A 1.44 1.44 0.0 0 1 133.17 38.10&#10;  L 133.29 38.46&#10;  A 2.05 2.03 -28.2 0 1 132.61 40.68&#10;  L 129.71 42.99&#10;  Z"/>
<path fill="#005ca2" d="&#10;  M 28.17 47.41&#10;  A 0.66 0.66 0.0 0 1 27.49 46.78&#10;  L 27.49 46.66&#10;  A 2.78 1.84 88.0 0 1 29.23 43.81&#10;  L 29.37 43.81&#10;  A 2.78 1.84 88.0 0 1 31.30 46.52&#10;  L 31.31 46.64&#10;  A 0.66 0.66 0.0 0 1 30.67 47.33&#10;  L 28.17 47.41&#10;  Z"/>
<path fill="#d17d2b" d="&#10;  M 77.80 52.91&#10;  L 74.61 55.15&#10;  Q 70.27 52.71 65.99 50.52&#10;  C 59.29 47.08 51.12 46.46 50.01 56.26&#10;  Q 49.30 62.61 53.09 69.23&#10;  A 0.49 0.48 -41.8 0 0 53.91 69.27&#10;  Q 53.96 69.20 53.88 68.71&#10;  Q 53.84 68.47 54.18 68.21&#10;  C 59.02 64.47 64.67 65.05 69.06 69.19&#10;  Q 71.86 71.82 71.88 76.06&#10;  Q 71.90 81.67 67.42 84.87&#10;  A 0.91 0.91 0.0 0 0 67.34 86.29&#10;  L 76.08 94.09&#10;  A 1.20 1.19 -48.2 0 1 76.17 95.77&#10;  L 75.63 96.37&#10;  A 1.82 1.80 38.3 0 1 73.23 96.64&#10;  Q 68.59 93.36 63.79 87.75&#10;  A 1.77 1.74 76.1 0 0 62.84 87.17&#10;  C 61.28 86.81 59.11 87.19 57.48 86.36&#10;  Q 48.54 81.83 51.38 72.01&#10;  A 1.92 1.91 44.7 0 0 51.37 70.91&#10;  Q 51.07 69.99 49.48 66.60&#10;  C 45.20 57.53 45.40 44.67 59.02 45.14&#10;  Q 63.47 45.29 68.23 47.27&#10;  Q 73.93 49.63 77.80 52.91&#10;  Z&#10;  M 57.56 76.52&#10;  L 66.56 76.52&#10;  A 0.72 0.71 -87.4 0 0 67.27 75.87&#10;  C 67.98 67.01 54.93 67.88 54.70 75.73&#10;  C 54.50 82.35 60.52 85.62 65.61 81.36&#10;  A 0.89 0.88 -55.1 0 0 65.35 79.85&#10;  C 63.64 79.25 61.92 81.98 59.51 80.97&#10;  Q 57.21 80.01 56.97 77.17&#10;  A 0.60 0.59 87.4 0 1 57.56 76.52&#10;  Z"/>
<path fill="#103774" d="&#10;  M 74.61 55.15&#10;  L 77.80 52.91&#10;  Q 85.36 47.88 93.66 45.84&#10;  Q 95.60 45.36 98.75 45.42&#10;  C 110.70 45.64 109.92 57.67 107.22 65.63&#10;  A 1.51 1.50 -80.5 0 1 105.80 66.65&#10;  L 103.84 66.65&#10;  A 0.80 0.79 -74.6 0 1 103.16 65.45&#10;  C 106.62 59.65 110.75 45.44 97.62 47.63&#10;  Q 94.77 48.11 91.78 49.52&#10;  C 82.79 53.76 75.70 59.21 68.69 66.30&#10;  A 1.09 1.09 0.0 0 1 67.37 66.48&#10;  L 64.76 64.98&#10;  A 0.54 0.54 0.0 0 1 64.67 64.12&#10;  L 74.61 55.15&#10;  Z"/>
<path fill="#ffffff" d="&#10;  M 126.00 53.44&#10;  L 125.89 53.55&#10;  A 1.03 1.03 0.0 0 1 124.22 53.24&#10;  Q 123.36 51.34 123.36 48.21&#10;  A 0.61 0.61 0.0 0 1 124.28 47.68&#10;  Q 125.61 48.46 126.54 51.11&#10;  A 2.23 2.22 58.2 0 1 126.00 53.44&#10;  Z"/>
<path fill="#d17d2b" d="&#10;  M 91.98 66.51&#10;  L 88.67 66.51&#10;  A 2.54 2.52 65.7 0 1 86.99 65.87&#10;  L 79.83 59.48&#10;  A 1.35 1.34 -40.4 0 1 80.01 57.34&#10;  L 80.75 56.87&#10;  A 2.64 2.63 46.8 0 1 83.73 56.97&#10;  Q 88.89 60.75 92.55 65.33&#10;  A 0.73 0.72 -19.3 0 1 91.98 66.51&#10;  Z"/>
<path fill="#ffffff" d="&#10;  M 57.56 76.52&#10;  A 0.60 0.59 87.4 0 0 56.97 77.17&#10;  Q 57.21 80.01 59.51 80.97&#10;  C 61.92 81.98 63.64 79.25 65.35 79.85&#10;  A 0.89 0.88 -55.1 0 1 65.61 81.36&#10;  C 60.52 85.62 54.50 82.35 54.70 75.73&#10;  C 54.93 67.88 67.98 67.01 67.27 75.87&#10;  A 0.72 0.71 -87.4 0 1 66.56 76.52&#10;  L 57.56 76.52&#10;  Z&#10;  M 57.49 74.87&#10;  L 65.03 75.03&#10;  A 0.11 0.11 0.0 0 0 65.14 74.92&#10;  L 65.14 74.88&#10;  A 3.74 3.45 1.2 0 0 61.48 71.35&#10;  L 61.20 71.35&#10;  A 3.74 3.45 1.2 0 0 57.39 74.72&#10;  L 57.39 74.76&#10;  A 0.11 0.11 0.0 0 0 57.49 74.87&#10;  Z"/>
<path fill="#103774" d="&#10;  M 93.75 69.60&#10;  Q 96.94 69.63 99.55 69.61&#10;  A 0.91 0.90 -0.2 0 1 100.46 70.51&#10;  L 100.46 72.18&#10;  A 1.05 1.04 -0.0 0 1 99.41 73.22&#10;  L 96.40 73.22&#10;  A 0.72 0.71 -90.0 0 0 95.69 73.94&#10;  L 95.69 82.44&#10;  A 0.70 0.69 -1.8 0 1 95.03 83.13&#10;  Q 94.69 83.15 93.77 83.15&#10;  Q 92.84 83.15 92.50 83.13&#10;  A 0.70 0.69 1.7 0 1 91.84 82.44&#10;  L 91.82 73.94&#10;  A 0.72 0.71 89.9 0 0 91.11 73.23&#10;  L 88.10 73.23&#10;  A 1.05 1.04 -0.1 0 1 87.05 72.20&#10;  L 87.04 70.53&#10;  A 0.91 0.90 0.1 0 1 87.95 69.62&#10;  Q 90.56 69.64 93.75 69.60&#10;  Z"/>
<path fill="#ffffff" d="&#10;  M 139.43 76.01&#10;  Q 137.62 72.92 134.64 71.15&#10;  A 0.72 0.72 0.0 0 1 134.74 69.86&#10;  Q 137.34 68.77 138.47 70.24&#10;  C 140.57 73.00 142.59 75.45 141.37 78.90&#10;  A 0.70 0.69 21.5 0 1 140.44 79.30&#10;  Q 138.10 78.31 134.73 78.70&#10;  A 0.45 0.45 0.0 0 0 134.44 79.44&#10;  Q 135.88 81.07 134.71 82.35&#10;  A 0.83 0.82 -35.9 0 1 133.35 82.14&#10;  L 132.59 80.48&#10;  A 0.79 0.79 0.0 0 0 131.87 80.02&#10;  L 129.90 80.02&#10;  A 1.07 1.04 70.6 0 1 129.07 79.61&#10;  Q 127.96 78.20 127.93 76.67&#10;  A 1.44 1.43 65.8 0 1 128.30 75.68&#10;  L 131.36 72.25&#10;  A 0.49 0.49 0.0 0 1 132.20 72.46&#10;  Q 132.30 72.84 132.31 73.97&#10;  C 132.32 75.81 134.60 77.20 136.02 77.09&#10;  A 0.60 0.60 0.0 0 0 136.27 75.97&#10;  L 134.60 75.00&#10;  A 0.67 0.67 0.0 0 1 135.02 73.75&#10;  Q 137.20 74.04 138.52 76.23&#10;  A 0.43 0.43 0.0 0 0 139.07 76.40&#10;  L 139.34 76.28&#10;  A 0.20 0.19 -27.2 0 0 139.43 76.01&#10;  Z&#10;  M 130.2816 75.9711&#10;  A 1.06 0.77 -119.9 0 0 130.1425 77.2738&#10;  A 1.06 0.77 -119.9 0 0 131.3384 77.8089&#10;  A 1.06 0.77 -119.9 0 0 131.4775 76.5062&#10;  A 1.06 0.77 -119.9 0 0 130.2816 75.9711&#10;  Z"/>
<ellipse fill="#ffffff" cx="0.00" cy="0.00" transform="translate(142.91,70.87) rotate(-33.8)" rx="2.12" ry="1.15"/>
<path fill="#103774" d="&#10;  M 41.79 80.14&#10;  Q 43.93 80.15 44.36 79.10&#10;  A 0.59 0.52 60.4 0 0 44.41 78.88&#10;  L 44.44 70.58&#10;  A 0.73 0.72 -0.0 0 1 45.17 69.86&#10;  L 48.04 69.86&#10;  A 0.83 0.82 0.7 0 1 48.87 70.70&#10;  Q 48.79 75.96 48.83 77.29&#10;  C 48.95 81.53 45.46 83.14 41.77 83.12&#10;  C 38.08 83.10 34.61 81.45 34.77 77.22&#10;  Q 34.82 75.89 34.80 70.63&#10;  A 0.83 0.82 -0.1 0 1 35.64 69.80&#10;  L 38.51 69.83&#10;  A 0.73 0.72 0.6 0 1 39.23 70.55&#10;  L 39.17 78.85&#10;  A 0.59 0.52 -59.8 0 0 39.22 79.08&#10;  Q 39.65 80.13 41.79 80.14&#10;  Z"/>
<path fill="#103774" d="&#10;  M 81.21 79.76&#10;  Q 81.48 79.51 81.49 79.15&#10;  A 1.11 1.08 0.5 0 0 80.36 78.03&#10;  Q 77.45 78.08 74.94 75.93&#10;  C 72.58 73.90 74.32 70.89 76.74 70.10&#10;  C 79.63 69.16 84.99 69.66 85.59 73.43&#10;  A 0.55 0.54 -4.5 0 1 85.05 74.06&#10;  Q 82.89 74.06 81.08 72.96&#10;  C 80.17 72.41 78.98 72.24 78.23 72.89&#10;  A 0.71 0.71 0.0 0 0 78.54 74.12&#10;  Q 80.27 74.50 82.19 74.96&#10;  C 85.46 75.74 87.42 78.74 84.56 81.51&#10;  Q 83.14 82.89 79.84 83.10&#10;  Q 75.64 83.37 73.68 79.70&#10;  A 1.06 1.06 0.0 0 1 74.45 78.16&#10;  C 76.07 77.90 76.86 78.21 78.37 79.42&#10;  Q 79.29 80.16 80.92 79.90&#10;  A 0.56 0.48 -66.2 0 0 81.21 79.76&#10;  Z"/>
<path fill="#103774" d="&#10;  M 104.35 76.76&#10;  Q 104.36 77.08 104.44 77.37&#10;  C 105.41 80.75 108.19 80.81 110.86 79.05&#10;  Q 112.07 78.25 113.88 78.31&#10;  A 0.84 0.84 0.0 0 1 114.58 79.57&#10;  Q 111.61 84.64 105.95 83.33&#10;  C 102.95 82.64 100.98 79.88 100.91 76.84&#10;  C 100.84 73.81 102.67 70.96 105.64 70.12&#10;  Q 111.23 68.55 114.43 73.47&#10;  A 0.84 0.84 0.0 0 1 113.80 74.76&#10;  Q 111.99 74.91 110.74 74.17&#10;  C 107.99 72.54 105.22 72.73 104.41 76.15&#10;  Q 104.34 76.45 104.35 76.76&#10;  Z"/>
<path fill="#ffffff" d="&#10;  M 13.10 81.45&#10;  L 14.28 81.16&#10;  A 0.93 0.93 0.0 0 0 14.18 79.34&#10;  Q 13.25 79.21 12.09 79.57&#10;  A 1.24 1.23 -30.7 0 1 10.83 79.25&#10;  C 9.04 77.37 7.12 74.60 4.67 74.74&#10;  A 0.53 0.53 0.0 0 1 4.38 73.74&#10;  Q 6.23 72.72 8.47 73.27&#10;  A 0.98 0.95 36.4 0 0 9.20 73.17&#10;  L 12.81 71.09&#10;  A 0.96 0.96 0.0 0 1 14.17 71.54&#10;  Q 15.49 74.50 18.63 74.95&#10;  A 1.01 1.00 81.3 0 1 19.38 75.51&#10;  Q 19.81 76.39 19.78 77.82&#10;  A 0.88 0.88 0.0 0 0 21.52 78.04&#10;  Q 21.76 77.03 22.00 74.13&#10;  A 0.89 0.89 0.0 0 1 23.18 73.37&#10;  L 23.57 73.50&#10;  A 0.83 0.82 -82.2 0 1 24.12 74.24&#10;  Q 24.39 78.63 22.60 80.07&#10;  C 21.19 81.21 18.26 79.59 17.38 82.54&#10;  A 0.81 0.81 0.0 0 1 16.33 83.07&#10;  L 13.08 81.94&#10;  A 0.26 0.25 47.7 0 1 13.10 81.45&#10;  Z&#10;  M 10.10 74.56&#10;  L 13.96 75.99&#10;  A 0.20 0.20 0.0 0 0 14.22 75.87&#10;  L 14.24 75.80&#10;  A 2.06 1.87 20.2 0 0 12.96 73.33&#10;  L 12.58 73.20&#10;  A 2.06 1.87 20.2 0 0 10.00 74.24&#10;  L 9.98 74.31&#10;  A 0.20 0.20 0.0 0 0 10.10 74.56&#10;  Z"/>
<path fill="#d17d2b" d="&#10;  M 57.49 74.87&#10;  A 0.11 0.11 0.0 0 1 57.39 74.76&#10;  L 57.39 74.72&#10;  A 3.74 3.45 1.2 0 1 61.20 71.35&#10;  L 61.48 71.35&#10;  A 3.74 3.45 1.2 0 1 65.14 74.88&#10;  L 65.14 74.92&#10;  A 0.11 0.11 0.0 0 1 65.03 75.03&#10;  L 57.49 74.87&#10;  Z"/>
<ellipse fill="#ffffff" cx="0.00" cy="0.00" transform="translate(144.25,73.88) rotate(-28.7)" rx="1.13" ry="0.96"/>
<path fill="#005ca2" d="&#10;  M 10.10 74.56&#10;  A 0.20 0.20 0.0 0 1 9.98 74.31&#10;  L 10.00 74.24&#10;  A 2.06 1.87 20.2 0 1 12.58 73.20&#10;  L 12.96 73.33&#10;  A 2.06 1.87 20.2 0 1 14.24 75.80&#10;  L 14.22 75.87&#10;  A 0.20 0.20 0.0 0 1 13.96 75.99&#10;  L 10.10 74.56&#10;  Z"/>
<ellipse fill="#005ca2" cx="0.00" cy="0.00" transform="translate(130.81,76.89) rotate(-119.9)" rx="1.06" ry="0.77"/>
<path fill="#ffffff" d="&#10;  M 147.67 79.63&#10;  Q 147.13 80.32 146.24 80.42&#10;  A 0.90 0.90 0.0 0 1 145.36 79.96&#10;  L 143.55 76.63&#10;  A 0.15 0.02 -73.7 0 1 143.57 76.51&#10;  Q 143.58 76.48 143.59 76.46&#10;  Q 143.61 76.44 143.64 76.42&#10;  A 0.15 0.02 -30.7 0 1 143.75 76.37&#10;  L 147.42 77.30&#10;  A 0.90 0.90 0.0 0 1 148.09 78.04&#10;  Q 148.21 78.93 147.67 79.63&#10;  Z"/>
<path fill="#ffffff" d="&#10;  M 150.00 79.16&#10;  L 150.00 150.00&#10;  L 86.47 150.00&#10;  C 121.68 144.46 148.84 115.01 150.00 79.16&#10;  Z"/>
<path fill="#103774" d="&#10;  M 81.05 98.08&#10;  Q 79.82 98.53 78.19 100.08&#10;  Q 73.05 103.47 66.28 106.04&#10;  Q 62.14 107.61 58.00 107.68&#10;  C 42.60 107.94 46.94 91.45 51.30 82.95&#10;  A 0.20 0.20 0.0 0 1 51.63 82.91&#10;  L 53.82 85.68&#10;  A 0.18 0.18 0.0 0 1 53.83 85.89&#10;  C 50.53 90.78 44.09 105.72 55.59 105.68&#10;  C 62.97 105.65 71.45 100.14 77.16 95.91&#10;  Q 81.03 93.06 88.12 85.79&#10;  A 2.58 2.58 0.0 0 1 89.97 85.01&#10;  L 94.21 85.01&#10;  A 0.44 0.44 0.0 0 1 94.55 85.74&#10;  Q 88.59 92.70 81.05 98.08&#10;  Z"/>
<path fill="#d17d2b" d="&#10;  M 78.19 100.08&#10;  Q 79.82 98.53 81.05 98.08&#10;  Q 86.69 101.41 92.62 104.15&#10;  C 95.55 105.51 102.60 107.24 105.00 104.47&#10;  C 108.70 100.19 105.07 90.92 102.21 86.29&#10;  A 1.03 1.03 0.0 0 1 103.42 84.78&#10;  L 105.08 85.36&#10;  A 2.57 2.57 0.0 0 1 106.61 86.81&#10;  C 109.99 95.08 110.94 106.83 98.95 107.84&#10;  Q 95.11 108.16 90.67 106.88&#10;  Q 83.53 104.82 78.19 100.08&#10;  Z"/>
<ellipse fill="#ffffff" cx="0.00" cy="0.00" transform="translate(112.44,118.32) rotate(-92.0)" rx="1.11" ry="0.84"/>
<path fill="#ffffff" d="&#10;  M 113.51 124.84&#10;  A 0.40 0.40 0.0 0 1 112.76 124.99&#10;  Q 112.13 123.75 112.23 122.48&#10;  A 1.08 1.07 67.7 0 1 112.48 121.88&#10;  L 114.90 118.92&#10;  A 0.55 0.52 -75.5 0 1 115.20 118.73&#10;  Q 116.16 118.52 117.01 119.61&#10;  A 0.66 0.66 0.0 0 1 116.49 120.67&#10;  L 115.81 120.67&#10;  A 1.30 1.28 -71.2 0 0 114.78 121.19&#10;  Q 113.66 122.68 113.51 124.84&#10;  Z"/>
<path fill="#ffffff" d="&#10;  M 32.70 132.07&#10;  A 0.21 0.21 0.0 0 1 32.39 131.80&#10;  L 34.63 127.93&#10;  A 0.58 0.58 0.0 0 0 34.51 127.21&#10;  L 33.83 126.60&#10;  A 0.79 0.78 65.9 0 1 34.35 125.23&#10;  L 36.55 125.23&#10;  A 1.10 1.10 0.0 0 0 37.10 123.17&#10;  L 35.13 122.03&#10;  A 0.36 0.36 0.0 0 0 34.64 122.16&#10;  L 33.21 124.64&#10;  A 0.42 0.41 -53.7 0 1 32.57 124.74&#10;  L 32.31 124.51&#10;  A 0.67 0.67 0.0 0 1 32.11 123.82&#10;  Q 32.72 121.74 34.70 120.19&#10;  A 0.73 0.72 -36.3 0 1 35.73 120.34&#10;  Q 36.62 121.60 38.82 122.14&#10;  A 0.88 0.88 0.0 0 0 39.68 121.87&#10;  L 41.35 119.99&#10;  A 0.64 0.63 36.0 0 1 42.13 119.87&#10;  L 42.44 120.05&#10;  A 0.47 0.47 0.0 0 1 42.56 120.77&#10;  L 41.14 122.36&#10;  A 0.60 0.60 0.0 0 0 41.23 123.24&#10;  C 42.47 124.16 43.55 124.66 43.09 126.57&#10;  A 1.18 1.15 -7.8 0 1 42.50 127.33&#10;  Q 39.14 129.11 36.87 128.53&#10;  A 0.92 0.92 0.0 0 0 35.88 128.91&#10;  Q 34.91 130.41 32.70 132.07&#10;  Z&#10;  M 38.5238 125.5155&#10;  A 1.27 1.01 -168.9 0 0 39.5756 126.7511&#10;  A 1.27 1.01 -168.9 0 0 41.0162 126.0045&#10;  A 1.27 1.01 -168.9 0 0 39.9644 124.7689&#10;  A 1.27 1.01 -168.9 0 0 38.5238 125.5155&#10;  Z"/>
<path fill="#ffffff" d="&#10;  M 113.39 129.47&#10;  A 0.57 0.55 -83.4 0 1 112.85 129.91&#10;  L 112.44 129.91&#10;  A 0.37 0.36 -80.3 0 1 112.10 129.42&#10;  Q 112.56 128.15 112.38 127.25&#10;  A 1.10 0.99 46.6 0 0 110.33 127.08&#10;  C 109.99 129.20 113.38 132.76 114.82 133.82&#10;  A 0.34 0.34 0.0 0 1 114.90 134.28&#10;  L 114.87 134.33&#10;  A 0.39 0.39 0.0 0 1 114.34 134.44&#10;  C 111.79 132.84 107.19 127.41 110.13 124.38&#10;  A 0.50 0.50 0.0 0 0 109.62 123.56&#10;  Q 109.17 123.71 108.59 124.72&#10;  A 0.63 0.63 0.0 0 1 107.41 124.44&#10;  Q 107.28 122.23 109.05 121.51&#10;  A 1.44 1.41 81.6 0 1 110.98 122.98&#10;  Q 110.93 123.64 110.97 124.06&#10;  A 1.03 1.03 0.0 0 0 111.52 124.88&#10;  Q 114.09 126.20 113.39 129.47&#10;  Z"/>
<ellipse fill="#ffffff" cx="0.00" cy="0.00" transform="translate(115.85,123.47) rotate(-72.8)" rx="1.16" ry="0.78"/>
<path fill="#ffffff" d="&#10;  M 117.84 126.78&#10;  A 0.28 0.28 0.0 0 0 117.30 126.79&#10;  Q 116.98 127.85 115.97 129.08&#10;  A 0.35 0.35 0.0 0 1 115.35 128.83&#10;  Q 115.63 125.93 117.58 123.73&#10;  A 0.57 0.57 0.0 0 1 118.58 124.09&#10;  Q 118.63 126.05 118.64 126.13&#10;  A 1.85 1.81 -18.0 0 0 121.34 127.47&#10;  Q 123.00 126.57 121.57 124.66&#10;  A 0.36 0.35 69.7 0 1 121.83 124.09&#10;  Q 123.18 124.03 123.28 124.67&#10;  Q 123.92 128.86 120.01 129.19&#10;  A 1.31 1.28 8.6 0 0 118.93 129.97&#10;  Q 118.51 130.94 118.48 130.97&#10;  A 0.68 0.68 0.0 0 1 117.33 130.27&#10;  Q 118.28 128.06 117.84 126.78&#10;  Z"/>
<ellipse fill="#005ca2" cx="0.00" cy="0.00" transform="translate(39.77,125.76) rotate(-168.9)" rx="1.27" ry="1.01"/>
<path fill="#ffffff" d="&#10;  M 90.47 130.73&#10;  L 90.88 128.71&#10;  A 0.47 0.46 -3.2 0 1 91.21 128.35&#10;  L 91.43 128.28&#10;  A 0.66 0.65 81.6 0 1 92.22 128.87&#10;  Q 92.28 129.73 91.06 130.89&#10;  A 1.34 1.30 20.2 0 1 90.27 131.24&#10;  Q 87.99 131.43 86.52 132.34&#10;  A 0.30 0.30 0.0 0 1 86.07 132.04&#10;  Q 86.29 130.52 86.58 130.22&#10;  A 0.98 0.97 -63.6 0 1 87.46 129.92&#10;  Q 88.88 130.18 89.69 130.97&#10;  A 0.46 0.46 0.0 0 0 90.47 130.73&#10;  Z"/>
<path fill="#ffffff" d="&#10;  M 63.43 141.69&#10;  L 66.92 141.69&#10;  A 1.22 1.22 0.0 0 0 68.11 140.18&#10;  L 67.63 138.20&#10;  A 0.47 0.47 0.0 0 1 68.50 137.86&#10;  Q 70.35 141.14 67.65 144.03&#10;  A 1.08 1.08 0.0 0 1 66.51 144.33&#10;  C 64.90 143.81 63.88 143.58 62.14 143.56&#10;  Q 59.16 143.53 57.51 143.01&#10;  C 54.78 142.14 56.20 137.13 59.22 137.61&#10;  A 1.38 1.27 68.4 0 1 59.90 137.94&#10;  L 61.52 139.39&#10;  A 1.18 1.17 -57.4 0 0 63.38 138.98&#10;  Q 65.00 135.25 63.08 132.76&#10;  Q 62.74 132.33 63.28 131.75&#10;  A 1.23 1.12 -33.2 0 1 65.29 132.07&#10;  Q 66.19 135.08 65.03 138.49&#10;  C 64.60 139.75 63.76 139.98 63.03 140.84&#10;  A 0.52 0.52 0.0 0 0 63.43 141.69&#10;  Z&#10;  M 57.92 141.29&#10;  L 60.15 141.48&#10;  A 0.42 0.42 0.0 0 0 60.61 141.10&#10;  L 60.62 140.97&#10;  A 2.03 1.40 -85.0 0 0 59.40 138.83&#10;  L 59.12 138.80&#10;  A 2.03 1.40 -85.0 0 0 57.55 140.70&#10;  L 57.54 140.83&#10;  A 0.42 0.42 0.0 0 0 57.92 141.29&#10;  Z"/>
<path fill="#ffffff" d="&#10;  M 93.13 133.91&#10;  Q 93.11 133.85 93.10 133.82&#10;  A 0.61 0.61 0.0 0 0 92.35 133.62&#10;  L 87.46 135.86&#10;  A 1.81 1.72 1.5 0 0 86.65 136.59&#10;  Q 86.34 137.13 86.41 137.95&#10;  A 0.57 0.56 3.6 0 1 85.73 138.54&#10;  L 85.55 138.51&#10;  A 0.84 0.84 0.0 0 1 84.88 137.66&#10;  Q 84.88 137.28 85.37 135.61&#10;  Q 85.73 134.39 86.72 134.23&#10;  C 88.83 133.89 91.13 132.37 93.26 131.58&#10;  Q 94.30 131.19 94.49 133.64&#10;  A 0.70 0.70 0.0 0 1 93.13 133.91&#10;  Z"/>
<path fill="#ffffff" d="&#10;  M 88.69 138.76&#10;  A 0.58 0.58 0.0 0 1 87.84 138.00&#10;  Q 89.44 135.44 92.37 135.01&#10;  A 0.64 0.63 86.1 0 1 93.09 135.64&#10;  L 93.09 138.01&#10;  A 0.38 0.38 0.0 0 0 93.54 138.38&#10;  Q 94.57 138.17 95.05 138.54&#10;  A 0.59 0.58 -52.2 0 1 95.15 139.37&#10;  C 93.86 141.00 93.81 144.32 91.21 145.41&#10;  A 0.62 0.62 0.0 0 1 90.41 145.13&#10;  L 90.38 145.06&#10;  A 0.56 0.56 0.0 0 1 90.67 144.28&#10;  Q 92.47 143.54 93.08 142.42&#10;  A 0.61 0.61 0.0 0 0 92.40 141.53&#10;  L 89.41 142.26&#10;  A 0.74 0.74 0.0 0 1 88.89 140.88&#10;  Q 91.02 139.77 91.86 137.38&#10;  A 0.48 0.48 0.0 0 0 91.10 136.85&#10;  L 88.69 138.76&#10;  Z"/>
<path fill="#005ca2" d="&#10;  M 57.92 141.29&#10;  A 0.42 0.42 0.0 0 1 57.54 140.83&#10;  L 57.55 140.70&#10;  A 2.03 1.40 -85.0 0 1 59.12 138.80&#10;  L 59.40 138.83&#10;  A 2.03 1.40 -85.0 0 1 60.62 140.97&#10;  L 60.61 141.10&#10;  A 0.42 0.42 0.0 0 1 60.15 141.48&#10;  L 57.92 141.29&#10;  Z"/>
</svg>