<?xml version="1.0" encoding="UTF-8"?><svg id="b" xmlns="http://www.w3.org/2000/svg" viewBox="0 0 885.8879 1159.4881"><g id="c"><path d="M875.5198,652.4642c-2.9517,2.9516-1.0079,25.8476-1.0079,30.9599-3.0957,3.0957-1.7998,23.9038-1.9438,29.0161-1.0083,1.0078-3.0239,23.9756-4.0322,24.9839-2.5918,14.9038-5.1841,29.8081-7.7759,44.7119-8.856,29.0161-18.5039,54.9361-31.2481,82.2959-20.9521,36-22.9677,38.0161-24.9838,41.9761-10.6563,13.6802-21.3121,27.3599-31.9683,41.04-19.0078,20.0161-20.3037,20.5201-36,37.0079-67.752,56.9521-139.752,98.9282-217.5117,140.976-63,29.0161-65.0161,29.0161-66.0239,30.024-3.0962,0-7.7764,2.3759-10.44,4.0322-32.2563-14.3999-63.5762-28.8721-95.5444-44.5679-53.064-28.0801-104.9038-58.1763-153.5037-93.456-12.8882-10.7281-25.7761-21.3843-38.592-32.0401-52.416-51.7681-88.9202-100.4399-117.9361-167.9761-10.872-34.2002-18.072-67.4638-22.7519-103.3198-3.8882-48.312-4.3201-96.8403-5.2561-145.2241-.1441-7.8482-.2881-15.6963-.4319-23.4722-.2161-15.768-.3601-31.6079-.5042-47.4477-.216-8.856-.3598-17.7119-.5039-26.4961q-3.0239-111.96-6.0481-275.9761c-.2158-8.4961-.3598-16.9919-.5039-25.488v-43.4881c-.3601-15.8398-.7199-31.6799-1.008-47.52C.072,55.2959.144,27.648.216,0c22.5359,10.0081,133.1304,66.3235,241.5601,66.7439,68.5254-5.3357,123.1924-22.248,134.2798-27.2158,13.6401-4.8633,61.2363-29.4534,67.9683-34.488,18,15.48,36.7919,21.8879,58.0317,32.4719,41.1167,16.23,88.4502,26.23,135.7202,28.728,11.3037.1441,22.6079.2881,33.9839.5039,74.4272-3.2629,122.0024-27.4072,141.2642-34.1999,14.4819-4.802,62.4213-26.1355,72.8637-31.6799" fill="#3a637b" fill-rule="evenodd" stroke-width="0"/><path d="M19.4377,538.4881c-.216-7.3443-.3601-14.688-.5041-21.96-2.376-124.7041-4.68-249.4082-6.9839-374.04v-37.9441c-.1441-29.2319-.2161-58.3919-.2881-87.552,32.832,15.552,103.511,47.0827,175.8442,57.4162,19.8374,2.2139,51.9637,3.8558,51.9637,3.5677,27.2881-1.6558,76.9282-6.9012,114.9843-18.4319,27.2198-5.8025,48.816-16.992,68.4717-26.064,6.2642-3.24,14.9043-5.4053,22.0322-9.936,18.0718,9.4319,62.8814,34.8645,120.5484,45.8645,14.5771,4.206,74.6665,11.6667,109.7075,8.3516,43.2925-1.6849,87.959-13.0181,103.2481-18.2161,33.3774-9.802,84.3774-33.4688,96.9838-42.0481-.2158,12.9602-.3598,25.9922-.5039,39.0242v29.0158q-3.7441,252.7202-6.4799,369.5039h-1.0079v38.9522h1.0079q-3.816,158.688-5.7603,200.664c-2.8076,27-7.0557,53.2798-12.0239,79.9922-17.3521,62.7837-44.9278,112.896-85.752,163.7998-10.5117,10.9439-20.9516,21.96-31.3921,32.9761-27.2158,22.896-54.792,44.5679-83.3759,65.7359-49.0318,32.6879-100.44,61.4882-153.7198,86.7602-16.7758,7.272-35.7119,17.5679-54,21.0239-15.624-3.9599-29.5918-13.6801-45-17.4961-50.7602-24.1919-99.936-50.976-147.456-81-39.5281-28.08-75.168-55.5839-110.52-88.4882-48.816-52.9917-81.4318-108.2876-102.312-177.336-2.664-13.3198-5.3278-26.6396-7.9919-39.9599-9-66.6719-8.6399-135-9.72-202.1758Z" fill="#fff" fill-rule="evenodd" stroke-width="0"/><path d="M575.0378,84.7801c1.0078,1.008,7.0557,1.008,8.064,2.0161,14.9756,1.008,15.9839,2.0161,57.6719,4.6799,75.6718,0,149.6157-9.6479,214.3437-51.6238q.648,19.6558-1.7998,235.6558-4.0322,164.0161-4.7519,223.272c-.2163,11.4482-.3599,22.9682-.5039,34.4883-1.8721,83.0878-.5762,165.1679-21.2403,246.1679-20.3042,58.896-48.3838,107.208-89.2798,154.2959-83.0879,83.0879-189.2881,136.2241-294.4799,185.9761-100.2242-44.208-195.7681-96.8403-279.5042-167.9761-28.8721-28.8721-52.1999-59.9038-73.0081-95.04-5.3278-10.3682-10.656-20.6641-15.9838-30.96-10.584-24.4082-18.792-48.9599-24.7681-74.8081-2.6641-18-5.3279-36-7.992-54-1.8-32.04-3.312-63.936-4.248-96.1919-.3601-.3598-.72-.7202-1.0081-1.0078-.5039-39.5283-1.008-78.9844-1.5119-118.4404-.1441-11.5196-.2881-23.0401-.4319-34.4878q-2.8081-113.7603-7.0562-407.0161,15.0481,9,31.032,16.9922c89.0911,36.9201,137.8081,33.624,154.512,34.9919h27c144.5791-6.7385,200.9521-50.9761,202.9683-50.9761,25.2719,13.7522,57.1679,29.2322,86.04,33.9842" fill="#3a637b" fill-rule="evenodd" stroke-width="0"/><path d="M424.5456,1059.9119c-.2158-7.1997-.3598-14.3281-.5039-21.456v-28.0079c2.5918-.144,5.1841-1.2241,7.272.5039-.0723,6.1202-.144,12.3121-.2163,18.504h24.9844q.7197-12.3121,0-19.0079c2.0879-.0722,4.248-.144,6.4077-.144q.792,12.8159,0,49.1758h-5.9761c-.3599-7.7759-.7197-15.48-1.0078-23.1836-8.7119-.5762-15.1919.2876-23.9038.6479-.3604,7.6319-.7202,15.2637-1.0083,22.9678h-6.0479Z" fill="#fff" fill-rule="evenodd" stroke-width="0"/><path d="M430.5935,1059.9119c.2881-7.7041.6479-15.3359,1.0083-22.9678.0718,7.1997.144,14.4717.2158,21.7437-.4321.3603-.8638.792-1.2241,1.2241Z" fill="#ced6de" fill-rule="evenodd" stroke-width="0"/><path d="M502.0896,1050.408q-20.52-40.9678-21.0239-43.9922c10.3676-5.2558,20.8081-11.9516,32.04-14.9756,0,2.0157.936,3.024.2158,5.1836-7.7759,3.8882-15.5517,7.8482-23.2558,11.8081,1.728,5.1123,2.9521,8.9282,6.1919,13.2481q21.312-10.7281,23.3281-11.0161,2.0879,4.3203,1.872,5.3281c-7.4882,3.8159-14.976,7.6318-22.392,11.4482q0,2.0157,6.3359,12.7437c6.9839,1.0801,19.6558-7.8477,27.144-10.728.3599,1.8002.7198,3.6,1.0801,5.4003q-17.0639,9.0718-31.5361,15.5518Z" fill="#fff" fill-rule="evenodd" stroke-width="0"/><path d="M383.0735,1045.4402c-22.4639-10.2241-23.3277-27.4321-7.4878-46.5122,12.3838-6.6958,21.0239-5.4721,32.4717,3.5279,2.3042,5.2563,2.3042,9.6479,2.5922,15.4082q-2.0878.0717-6.1919-2.0162-.144-4.1757-1.3681-8.4238c-19.1519-15.9121-29.376.5039-30.8159,21.2398,4.3198,8.9282,10.4399,12.0962,20.3037,9.288,1.8003-2.0161,3.6001-4.0317,5.4721-6.0478,3.168.144,4.4639.2158,7.0562,2.0161-6.1919,8.6397-11.6641,10.7998-22.0322,11.52Z" fill="#fff" fill-rule="evenodd" stroke-width="0"/><path d="M347.0735,1026.9358c-1.7998-1.0078-3.6001-2.0156-5.3999-2.9516.2158-5.1123.4321-10.1524.7202-15.1924-4.9683-2.8076-9.9361-5.6157-14.832-8.3516-3.024,1.5117-9.2881,7.1997-10.0083,9-3.3838-1.2241-5.1841-1.2964-6.7681-4.5361,12.2402-10.8721,24.5522-21.7441,36.8642-32.6162,2.1602.8642,4.3921,1.728,6.6241,2.664-1.8721,16.6319-2.1602,36.0723-7.2002,51.9839Z" fill="#fff" fill-rule="evenodd" stroke-width="0"/><path d="M555.0818,1022.9041c-10.0801-9.2881-17.9283-28.4399-24.9844-40.4639v-2.0161c15.3359-8.7842,28.3682-23.1841,40.9683-5.9761v11.5201c9.5039,1.7998,10.2241,11.0878,18,15.9838-1.0801,2.7359-5.2559,3.96-7.9922,3.96-12.0957-18-12.7437-15.7681-31.0318-3.96,2.8077,4.608,10.0078,13.1763,10.0078,18.504-1.6557.7919-3.312,1.5839-4.9677,2.4482Z" fill="#fff" fill-rule="evenodd" stroke-width="0"/><path d="M342.5378,1001.448c-3.312-1.7998-6.624-3.6001-9.8642-5.3999,0-3.2402,11.1601-14.1123,14.2558-13.7519-1.0078,6.3359-1.9438,12.7436-2.8799,19.1518h-1.5117Z" fill="#3a6384" fill-rule="evenodd" stroke-width="0"/><path d="M297.1057,996.9119q-28.5122-19.728-29.0161-20.9521,26.7119-39.024,28.0078-39.5279c9.0723,6.4082,18.2163,12.8882,27.3603,19.3682q.3599,1.8721-1.3681,4.6079c-9.7202,0-15.2642-13.6802-24.5518-14.4722q-6.9121,9.8643-7.1284,11.9522c6.5523,4.4639,13.104,9,19.6563,13.5361v3.0239c-.7203.648-1.3682,1.2959-2.0162,2.0162-7.9199-1.7281-15.4799-9.2881-21.9599-14.0401q-7.9922,11.52-8.2798,13.5357c7.272,5.1123,14.6157,10.2963,21.96,15.4804-.9361,1.7998-1.8003,3.5996-2.6641,5.4717Z" fill="#fff" fill-rule="evenodd" stroke-width="0"/><path d="M546.5857,996.408q-6.7681-11.7358-7.4883-14.9761c7.2002-3.8877,12.6724-8.4961,20.9521-8.4961,12.168,12.168-3.6001,17.208-13.4638,23.4722Z" fill="#3a637b" fill-rule="evenodd" stroke-width="0"/><path d="M607.0657,987.9119c-5.8321-1.7998-11.0879-1.8721-11.5201-8.4961q3.024-2.4477,4.5362-2.4477c10.6557,10.2959,28.6557-2.8799,19.4399-15.6963-11.0884.3604-19.0801,6.9844-30.456,6.6963-24.1202-24.1202,23.2558-40.6802,23.2558-23.3282-2.8799,2.1602-11.2319-.7197-15.2641-.7197-5.1119,3.7437-13.608,11.1597-4.9678,16.9917,14.5439,0,29.4482-17.1357,37.5122,3.5283,0,12.168-9.8643,22.3916-22.5361,23.4717Z" fill="#fff" fill-rule="evenodd" stroke-width="0"/><path d="M239.5774,957.4559q-2.52-2.0156-3.8159-4.8237c8.0639-11.2319,16.2002-22.4643,24.3359-33.6963-3.8877-3.0239-7.7759-6.0478-11.6636-9.0717.2876-1.3682.648-2.6641,1.0078-3.96,9.7198,0,23.9761,15.2637,31.8238,21.2397v3.5284c-5.9038,4.4638-9.8638-6.5523-16.1997-6.5523q-19.6563,26.9282-25.4883,33.336Z" fill="#fff" fill-rule="evenodd" stroke-width="0"/><path d="M712.5456,301.032v349.9199c-.2158,7.7759-.3598,15.6241-.5039,23.4722-4.248,53.1358-24.8403,98.1358-55.9443,141.0479-27.648,30.6718-55.9439,55.7998-90,78.9839q-30.312,18.2163-47.52,27.5039c-45,20.9521-50.0396,22.4643-52.9917,24.4804-8.1363,2.0157-17.064,9.2159-24.9839,7.9917-57.2402-23.688-108.3604-49.8237-157.5361-86.976-11.6641-10.7281-23.3282-21.3838-34.9922-32.0401-8.1358-9.792-16.272-19.584-24.4077-29.376-13.4642-19.872-23.4002-40.104-33.5523-61.7758q-9.072-28.7998-10.0078-29.8081c-3.6001-17.856-5.1121-32.544-5.5442-50.544v-126.936c-.2158-78.1919-.3599-156.312-.5039-234.4319.144-.5039.2881-1.0081.5039-1.512" fill="#fff" fill-rule="evenodd" stroke-width="0"/><path d="M720.5378,881.4241c-12.0244-4.3203-23.2563-13.1763-33.9843-20.0161.936-1.728,1.872-3.4561,2.8798-5.1118,9,5.04,25.0562,17.7119,37.2242,17.208,23.9043-17.856-9.1441-29.5923-23.2559-38.6641q.2158-3.0239,1.8721-5.688c7.7041,0,23.832,13.0318,30.8159,17.2798,10.9438,14.688,2.8799,33.5523-15.5518,34.9922Z" fill="#fff" fill-rule="evenodd" stroke-width="0"/><path d="M496.5456,843.9119c12.96.2881,25.9922.648,39.024,1.0083v1.0078h-40.0318q0-2.0161,1.0078-2.0161Z" fill="#adbdce" fill-rule="evenodd" stroke-width="0"/><path d="M322.0896,648.4319c.144-73.6557.2881-147.2397.5039-220.896q29.0161-19.1518,29.9521-19.0078c.1441,82.2959.2881,164.52.5039,246.8877.1441.8643.3599,1.728.5762,2.5923,29.52,32.1841,59.0401,64.3677,88.6319,96.624.7202.0718,1.5122.1441,2.3042.2881,30.0239-32.7602,60.1196-65.4482,90.2158-98.1362v-248.544c9.936,6.4082,19.872,12.8159,29.8081,19.2959.144,73.6563.2881,147.2403.5039,220.896-.2158,8.1363-.4321,16.3443-.648,24.5523-60.4082,64.4399-61.3442,66.456-159.624,171.6479-.792.2158-1.5122.5039-2.2319.792h-39.0239c-.5044-.2163-1.0083-.3599-1.5123-.5039,19.6563-21.5283,39.3121-43.0561,59.0401-64.5122-17.2505-17.6782-64.4746-68.1514-98.7842-108.7202-.0718-7.7759-.144-15.5518-.2158-23.2559Z" fill="#3a637b" fill-rule="evenodd" stroke-width="0"/><path d="M580.0657,681.408c.144-80.7119.288-161.2798.5039-241.9199,9.6479,6.624,19.2959,13.3198,29.0161,20.0161.144,77.6157.2881,155.2319.5039,232.9199-.2158,1.1519-.4321,2.376-.648,3.6001q-127.3681,134.9277-141.8398,149.3999h-36c-.2163-.5039-.3604-1.0083-.5044-1.5122q128.9521-139.4639,148.9683-162.5039Z" fill="#3a637b" fill-rule="evenodd" stroke-width="0"/><path d="M496.5456,843.9119c43.0562-45.4321,86.9038-90.3599,129.8877-135.8638.2163-1.2241.4322-2.4482.6485-3.6001v-27c.144-68.5439.2876-137.0161.5039-205.416,10.2959,7.272,20.5918,14.6162,30.9599,21.96v225.936c-41.04,41.6162-82.0078,83.3042-122.976,124.9922-13.0318-.3603-26.064-.7202-39.024-1.0083Z" fill="#3a637b" fill-rule="evenodd" stroke-width="0"/><path d="M259.5935,472.032c.2881,67.896.6479,135.8638,1.0083,203.9038.144,10.6563.2876,21.312.4316,31.9683,36.2881,38.0161,72.648,76.0317,109.0083,114.0478-5.1391,7.2002-15.0483,18.2159-19.0083,22.4639q-16.2719-15.48-121.9677-123.48v-227.4477c10.1518-7.2002,20.3037-14.3281,30.5278-21.4561Z" fill="#3a637b" fill-rule="evenodd" stroke-width="0"/><path d="M131.5776,838.4402c-1.584-2.4482-1.0801-4.8242.5039-6.9843-.936-1.6558-5.5439-3.5279-11.0158-8.4961-14.0401-19.5118-.2161-32.2559,18.2158-40.3199,15.624.5762,20.0161,4.8243,26.352,18.1441,0,8.352.5762,12.8159-5.832,18.3598-4.2478-5.832-3.6719-5.4716.2881-11.7358-4.3201-24.4082-21.7439-19.4399-36-6.48-7.992,14.3281,5.2561,27.9361,19.9441,21.5279.6479-5.4717-5.4722-8.5679-5.9761-14.0401q2.52-1.5117,5.04-1.5117c3.312,5.1841,10.0081,12.312,10.0081,18.5039-7.2002,4.3198-14.4001,8.6401-21.5281,13.0322Z" fill="#fff" fill-rule="evenodd" stroke-width="0"/><path d="M757.5456,832.4642c-13.7519-6.9122-27.4321-13.752-41.1123-20.5923-.2876-3.3838.9366-4.5357,2.6641-7.5601,11.5923-2.3037,34.1279-1.4399,43.3442-6.0478-11.0161-5.3282-21.9599-10.584-32.9038-15.8399,1.0078-2.0879,2.0157-4.104,3.0957-6.1201q30.96,14.6162,43.272,21.2402c-.936,1.9439-1.8721,3.96-2.8081,5.9756q-6.3359,1.6563-44.4238,5.9761,30.8882,15.9121,32.9038,16.1279.3603,1.6563-1.7998,6.0484c-.792.2158-1.5122.5039-2.232.792Z" fill="#fff" fill-rule="evenodd" stroke-width="0"/><path d="M277.0896,683.4241c.144-74.664.2881-149.2563.5039-223.9199,9.6479-7.0562,19.2959-14.04,28.9443-21.0239.1436,80.6396.2876,161.2798.5039,241.9917,41.5786,50.1274,65.1309,73.5913,95.3999,105.3359-7.9716,11.0713-14.2558,18.0723-18.3598,22.6079-51.0484-54-52.272-54.5039-52.9922-55.9438-1.2959-.5039-50.0401-52.0562-53.4238-56.4478-.2164-4.248-.4322-8.4243-.5762-12.6001Z" fill="#3a637b" fill-rule="evenodd" stroke-width="0"/><path d="M96.5857,772.4158c-.3601-2.5918-.6482-5.1118-.9361-7.6318,10.0801-10.1519,20.16-20.3042,30.3121-30.4561-12.24.2163-23.9761,5.7603-36,6.48-.5042-2.1597-.9361-4.248-1.3682-6.3359,15.8401-2.6641,31.104-7.4161,46.9441-9.792q1.0801,3.0962.864,8.352c-9.936,10.0801-19.8721,20.232-29.8081,30.3838,10.656,0,22.896-5.3276,33.696-7.1279.072,2.1601.2161,4.3203.3601,6.5522-14.184,2.5918-29.736,9.5757-44.0639,9.5757Z" fill="#fff" fill-rule="evenodd" stroke-width="0"/><path d="M786.5618,772.4158c-14.8321-4.104-29.4483-9.0718-44.2803-12.7436q-.2158-3.2403,1.3681-6.4082c10.2959.3598,19.9439,7.2002,29.9522,7.2002,2.5918,2.7358,12.4556,3.6,16.4878,5.4716-.8643,2.8804-1.2241,4.6802-3.5278,6.48Z" fill="#fff" fill-rule="evenodd" stroke-width="0"/><path d="M751.5696,739.4402q-.5039-3.0244.8637-7.56c13.7525-1.5122,27.1441-3.3843,41.1123-4.4644-2.0161-4.0317-26.208-19.7998-34.9921-21.9599.288-2.6641.6479-5.3277,1.0083-7.9917h2.0156q41.4721,27.5039,41.9761,28.9438c-.504,1.6562-1.0079,3.3838-1.44,5.1118-12.168,9.9361-36.4321.8643-50.5439,7.9204Z" fill="#fff" fill-rule="evenodd" stroke-width="0"/><path d="M658.5456,719.928v-225.936h1.0079v225.936h-1.0079Z" fill="#ced6de" fill-rule="evenodd" stroke-width="0"/><path d="M79.5935,708.9119c-.2158-9.5039-.3599-19.0078-.5039-28.4399.144-2.4478.2881-4.8238.4321-7.1997,16.344,0,32.688.0717,49.032.1435v34.9922h-4.968c-.3601-9-.72-18-1.0081-27-4.6799-.2158-9.3601-.3599-14.04-.5039-.3599,8.4961-.648,16.9917-.9361,25.5601h-6.0478v-25.9922c-5.04-.0718-10.0801-.1441-15.0481-.1441-.3601,9.648-.6479,19.3682-.936,29.0879-2.0159-.2158-4.032-.3599-5.9761-.5039Z" fill="#fff" fill-rule="evenodd" stroke-width="0"/><path d="M128.5537,708.408v-34.9922h1.0078v34.9922h-1.0078Z" fill="#ced6de" fill-rule="evenodd" stroke-width="0"/><path d="M404.6018,678.9598c-.2163-41.8316-.3604-83.6636-.5044-125.4956-.648-4.608-.5039-5.9761-5.5439-7.0562-6.1197,4.9678-1.9439,12.96-4.752,19.728-1.4399.2158-2.8799.5039-4.248.792-1.2237-13.5361-.8638-30.5278,12.0239-37.4399,27.2163-.1441,54.4321-.2158,81.7202-.2881,5.688,2.8081,8.8559,4.3198,11.52,10.0078.792,7.7764,3.7442,18.7202,2.5918,26.7842-1.3677.144-2.6636.2881-3.96.5039-4.392-7.1997,2.0162-20.7358-8.4238-19.728-.6479.8642-1.2959,1.728-1.9438,2.664-.3604,43.3443-.7202,86.688-1.0083,130.0323-2.4478,3.7436-5.3277,7.9917-10.5117,7.9917h-57.024c-5.2563-2.6641-7.0561-3.5279-9.936-8.4961Z" fill="#3a637b" fill-rule="evenodd" stroke-width="0"/><path d="M758.0495,677.448c.1441-11.1601.2881-22.3198.504-33.4799,1.6562-.1441,3.312-.2164,5.04-.2881.144.5761.2881,1.1518.5039,1.728.144,8.7842.2881,17.6401.5044,26.4961h14.9756v-23.9761h-1.0078c.2158-.6479.4321-1.2241.7202-1.7998,1.3677-.2881,2.8076-.5044,4.248-.7202,3.024,2.376,1.44,22.4639,1.5117,27,5.1841-.2158,10.3682-.3599,15.6241-.5039-.0718-9.5039-.0718-19.0083-.0718-28.4399h5.9756v35.4956c-15.6958.144-31.3916.288-47.0156.5044-.5044-.7203-1.0083-1.3682-1.5123-2.0162Z" fill="#fff" fill-rule="evenodd" stroke-width="0"/><path d="M778.5696,671.9041v-23.9761h1.0078v23.9761h-1.0078Z" fill="#dedee6" fill-rule="evenodd" stroke-width="0"/><path d="M173.5537,598.9681h1.0078v64.9438c-.3599-21.6719-.72-43.3437-1.0078-64.9438Z" fill="#6b849c" fill-rule="evenodd" stroke-width="0"/><path d="M101.5537,621.9358c-6.9841-.3598-13.968-.7197-20.9522-1.0078-.3598-.144-.7199-.2881-1.0798-.4321,0-1.9439.0718-3.8159.1438-5.688,16.272-.2158,32.5442-.3599,48.8162-.5039,0,2.1602.072,4.3198.144,6.5522-6.3362.1436-12.6721.2876-19.008.4317-.3601.5039-.72,1.0801-1.0801,1.6562.2881,7.6319.6479,15.2637,1.008,22.9678,6.336.2881,12.6719.5762,19.0801.936-.072,2.0162-.072,4.0323-.072,6.1202-15.9841.144-31.968.288-47.9522.5039-.4318-.2159-.7919-.4322-1.1518-.5762v-6.0479c7.344-.3598,14.76-.7197,22.176-1.0078-.072-7.9922-.072-15.9839-.072-23.9043Z" fill="#fff" fill-rule="evenodd" stroke-width="0"/><path d="M758.0495,624.4559c.1441-7.8477.2881-15.6958.504-23.544,2.0878-15.4077,13.7519-14.7598,24.4799-7.1279,6.7681-6.48,14.3999-4.9678,23.3999-6.9839,0,2.8799.0723,5.7598.1441,8.6401-22.8238,1.2237-20.376,1.7998-20.1597,24.4077,6.6958.2881,13.4639.648,20.2319,1.0083,0,2.6636.5757,4.3916-1.08,6.5518h-46.0078q-1.1524-.5039-1.5123-2.9521Z" fill="#fff" fill-rule="evenodd" stroke-width="0"/><path d="M764.6018,620.4241c-.0723-8.352-3.6724-32.2563,12.6719-23.4722,3.6001,6.9122,2.52,15.6963,2.8081,23.4722h-15.48Z" fill="#3a637b" fill-rule="evenodd" stroke-width="0"/><path d="M95.5776,602.4241c-1.008-1.0083-3.0239-1.0083-9.5039-4.9682-22.8242-34.272,26.4959-54.1441,42.1919-23.8321,4.49,8.7842.2881,26.9282-13.6079,27.8643-.2161-2.0161-.4321-4.0322-.5762-6.0479,9.9361-4.9682,13.1741-15.6963,3.2984-25.5781-10.44-5.1836-18.5623-5.5981-28.2823,1.6021-7.1279,10.5117-2.52,21.312,9.5039,23.976" fill="#fff" fill-rule="evenodd" stroke-width="0"/><path d="M173.5537,598.9681v-26.064h1.0078v26.064h-1.0078Z" fill="#849cb5" fill-rule="evenodd" stroke-width="0"/><path d="M791.6018,574.4158c-.0723-2.2319-.1441-4.3916-.1441-6.5517,2.5201-1.1519,5.0401-2.3042,7.6319-3.4561,3.5278-7.7041,4.6802-28.8721-9.792-21.2402-5.7598,13.248-5.7598,39.456-27.5039,25.7763-6.5523-10.6562-6.9844-33.8403,10.8721-31.9682-.0723,1.6562-.1441,3.312-.2164,5.04q-1.872,1.44-4.5356,2.0161c-6.9844,8.2798-7.416,21.3838,5.688,21.3838,10.9438-12.5996,2.8076-39.3838,29.4477-26.9277,7.4883,15.3359,7.5601,33.0478-11.4477,35.9277Z" fill="#fff" fill-rule="evenodd" stroke-width="0"/><path d="M173.5537,572.9041v-35.9282h1.0078v35.9282h-1.0078Z" fill="#7b9cad" fill-rule="evenodd" stroke-width="0"/><path d="M128.5537,536.0398c0,1.9444,0,3.8164.072,5.8321-3.0242.144-6.0481.3603-9.072.5761h-38.9522c-.4318-.2158-.7919-.4321-1.1518-.5761.072-2.376.1438-4.6797.2158-6.9839,12.4561-7.8482,24.9121-15.624,37.3682-23.3999.072-.4322.144-.8643.2878-1.2959q-36.5039-.4321-37.8718-1.2241c0-1.6563.072-3.3121.1438-4.9683h48.9602c.072,2.4482.1438,4.9683.2158,7.4883-12.168,7.7041-25.3459,16.644-37.5139,24.4199" fill="#fff" fill-rule="evenodd" stroke-width="0"/><path d="M173.5537,536.9759c.1438-78.1919.2878-156.312.5039-234.4319.144,78.1199.2881,156.24.5039,234.4319h-1.0078Z" fill="#63849c" fill-rule="evenodd" stroke-width="0"/><path d="M805.5696,519.4803h-46.0078c-.0723-2.3765-.1441-4.7525-.1441-7.1285,15.8399,0,31.752.0723,47.6641.1441q-.6485,6.624-1.5122,6.9844Z" fill="#fff" fill-rule="evenodd" stroke-width="0"/><path d="M421.0896,493.4881c-13.6079-21.6719-19.6563-36.9361-9-61.4883,11.8799-18.792,21.6001-35.4238,28.2241-56.8076q1.9439-10.9444,3.4561-34.2002c1.4399,1.1518,43.0698,51.083,20.6635,130.104-4.9277,14.6157-16.8476,25.416-17.3515,25.416,1.6557-20.9521-5.6162-40.3198-1.2964-60.7681,1.584-3.6001,3.1684-7.2002,4.7524-10.728-4.6084.5039-8.7842,7.0562-11.4482,10.5122-12.8159,24.2637-6.4082,56.232,3.9599,80.4961-.5039.1436-13.9677-13.0322-21.9599-22.5361Z" fill="#3a637b" fill-rule="evenodd" stroke-width="0"/><path d="M128.5537,503.9998h-48.9602v-1.0078" fill="#e6efef" fill-rule="evenodd" stroke-width="0"/><path d="M765.5378,475.4881c13.6797.144,27.3599.2881,41.0396.5039v6.0478c-13.3916.1441-26.7119.2881-40.0318.5044h-1.9438c-.1441,4.9678-.2881,10.0078-.4321,15.0479-1.8721.2881-3.7442.5757-5.6162.936.288-13.104.5761-26.1362.8642-39.168,1.5117-.2163,3.0239-.3603,4.6079-.5039.5039,5.544,1.0078,11.0879,1.5122,16.6319Z" fill="#fff" fill-rule="evenodd" stroke-width="0"/><path d="M868.5696,455.0398v38.9522h-1.0078v-38.9522h1.0078Z" fill="#dedee6" fill-rule="evenodd" stroke-width="0"/><path d="M79.4497,492.4803c-.0049-2.5723-.072-4.5362,0-7.5601,0,0,6.3059-1.0122,14.1118-4.3921-.1438-6.5522-.2158-13.0322-.2878-19.5122-2.7361-1.5117-4.6802-1.5117-13.4641-5.04-.0721-2.0879-.1441-4.104-.1441-6.1197,17.3401,5.5518,45.936,15.6241,49.104,17.6397-.1438,2.52-.2878,5.04-.3598,7.56-8.856,4.4004-43.272,15.9839-48.96,17.4244Z" fill="#fff" fill-rule="evenodd" stroke-width="0"/><path d="M100.5456,477.5042c0-4.5361,0-9.0723.0721-13.6084,3.9599.6484,12.6379,5.2622,18.936,7.6323-5.2981,2.1299-13.2481,4.5361-19.0081,5.9761Z" fill="#3a637b" fill-rule="evenodd" stroke-width="0"/><path d="M758.5535,449.4959c.4321-12.0239,12.2402-14.544,21.7441-20.3037-7.2002-4.752-14.3999-9.5039-21.5278-14.1841-.0723-2.52-.1441-5.04-.2163-7.4883,12.7841,8.1157,22.7519,13.2481,28.872,17.064,6.336.2163,12.6719.5044,19.0801.792v6.1924c-6.4082.2158-12.7441.5039-19.0801.7919-6.0478,3.816-22.3921,17.1358-28.872,17.1358Z" fill="#fff" fill-rule="evenodd" stroke-width="0"/><path d="M128.0495,446.9759c-9.5039-5.9038-18.936-11.8081-28.3679-17.6397-6.768-.4321-13.3923.4317-20.0881.0718.072-1.8003-.072-6.0225,0-7.75,6.624-.4321,13.3921.334,20.0881-.0981,25.5301-15.483,26.5679-16.3438,29.376-17.064-.2161,2.52-.4319,5.04-.6479,7.56-7.1282,4.1041-15.5982,9.0743-22.6541,13.25,0,.648,15.7419,9.8619,23.0139,14.1822-.2878,2.4477-.5039,4.9678-.72,7.4878Z" fill="#fff" fill-rule="evenodd" stroke-width="0"/><path d="M314.6018,300.024c76.3198-.3599,152.6396-.72,228.96-1.0081v1.0081h-228.96Z" fill="#6b849c" fill-rule="evenodd" stroke-width="0"/><path d="M543.5618,300.024v-1.0081c9.2876.2881,18.6479.6482,28.0078,1.0081h-28.0078Z" fill="#5a7b94" fill-rule="evenodd" stroke-width="0"/><path d="M467.0974,264.024c-1.2236-.2879-2.376-.576-3.5278-.792-7.128-12.168,9.0717-29.8079,2.4482-40.3919-9.8643-2.4482-2.52-11.2321.5757-17.352q-2.0161,0-9,4.032c-5.3281.216-8.208.792-12.96-1.4402-.0717-1.5117-.0717-3.024-.0717-4.5359,8.208-1.3679,15.8398-6.1919,23.2558-9.792.2881-3.5281-1.9438-4.032-.5039-7.5601,6.48-1.8718,18.936,1.2962,19.7998,8.4241q-2.0161,3.96-7.7041,10.9441c3.6724,0,7.2002,1.0081,10.1524,2.9519,9.4316-4.176,10.8715-7.344,21.2397-4.3201,4.1763,8.4241-4.9678,15.3362-10.5117,20.0161,3.8159,20.5201,17.4238,1.2959,27.2876-1.728.5044.2881,1.0083.648,1.5122,1.0081.7202,9.144-12.6001,16.7759-18.5039,21.0239-19.2959-.792-13.9683-8.4961-22.8242-24.2639-.7198-.072-1.44-.1441-2.1597-.2161-11.0884,13.3921-13.3203,25.128-15.3364,41.9761-1.0796.6479-2.1597,1.2959-3.168,2.0159Z" fill="#fff" fill-rule="evenodd" stroke-width="0"/><path d="M163.5456,263.5201c-.5041-.3601-1.008-.72-1.5119-1.0081-.072-2.1599-.1441-4.3201-.2161-6.48,5.0401-3.384,11.0159-8.4961,14.1121-13.6799-3.5281-3.5281-7.7041-1.0081-11.6641-.1441-.5759,2.232-2.8801,4.4642-3.384,6.7679h-3.312c-3.3973-1.2346-3.024-4.3199-4.4639-6.48q2.1599-9.2879,6.9839-22.4639c3.456-4.3921,13.3201-13.824,13.3201-19.1518-.5762-.2161-1.1521-.4322-1.6561-.6482-5.76,7.1281-18.6479,23.688-26.8559,9.3601.1438-5.1121,1.1519-6.0481,1.656-26.064-4.176-.7202-6.0481-1.584-9.5041-4.0322-.072-1.584-.072-3.096-.072-4.6079,1.2962-.2881,2.6641-.5759,4.032-.792.144-.5759.3601-1.0801.5762-1.584q2.0159,0,4.6799-1.512c.3601-8.0639-1.0801-16.2719,4.176-22.6081,8.6399,0,10.7307,13.8242,16.992,16.4883,1.6352,12.0957-11.7957,14.5473-7.128,25.8479,1.0799.216,2.16.5039,3.24.792,9.2161-6.1202,15.1919-34.1282,18.2161-44.784,0-14.5442-.7202-16.2002-.7202-20.2322,6.4082-4.2478,9.3601-2.8078,15.9841-.6479,6.408,14.4001-2.9519,26.4961-8.4241,40.6799,22.3921.7202,10.9441,19.5122-4.176,20.0161-.6479-1.4399,7.0803-9.5761-1.7998-4.176-2.3042,2.6641-2.664,3.6721-3.0242,7.1279,5.7601,0,18,.9361,13.4642,10.0081-11.5201,4.4639-18.2161,10.3682-24.9842,20.0161q.5762,2.0879,1.584,2.0879c7.488-9.5039,22.5361-14.3281,30.0962-2.376-.2881,13.032-5.688,17.208-15.1201,25.6319v4.248c7.8642,2.9548,9.5039-2.4477,15.9841-1.1518.648,6.9838-2.9521,11.664-10.2241,11.9519-.4319-1.2239,1.1309-2.6214.7707-3.8453-9.1438,1.7278-18.4826,6.3653-27.6267,7.4454Z" fill="#fff" fill-rule="evenodd" stroke-width="0"/><path d="M396.5378,260.4959c-2.8081-16.6318-2.52-34.416-3.0962-51.624q-1.872.6482-10.0078-.9358c-1.872-12.9602,6.5518-19.0081,9.648-31.3921-5.0401,0-9.2881,1.9441-14.544,1.9441-4.896,7.344-6.6718,5.3034-7.0322,7.1753,3.96,6.8401,6.0962,13.9206,2.7842,21.1926,7.5596,7.5601,1.0078,17.208-4.6084,24.696q-3.8877.1441-5.2559-.5761c-.2158-6.2639,6.4136-8.1739,6.4136-12.7097-5.2739-.254-6.9546-2.74-6.6665-7.636,6-3.8824,4.4321-9.1553,4-14.5555-7.3438-3.8159-5.1152-12.5466-5.1152-18.5947-8.4239,12.5999-4.4639,36.2881-3.96,51.0481-1.6558,3.312-2.8799,2.8799-6.1196,2.52-4.104-8.7841-13.104-82.4401,7.7758-68.5442q1.0079,2.7361.792,7.992c7.92-3.096,11.376-5.4719,18,.5041,4.3921.576,15.5518-4.6081,16.9922-8.4961,7.1997-.864,13.0318-2.0878,15.7676,5.688-.1328,12.312-10.9971,15.1045-11.4663,22.2163,13.333,1.4034,17.3335-4.8642,15.2104,14.0718-2.664,3.6721-5.3281,7.344-7.9921,11.0159-1.584.144-3.0957.2881-4.608.4321-.144,6.8401-.2875,13.68-.3598,20.5921,2.7358,2.736.5762,18.864-1.2959,23.1838-1.8003.2161-3.5283.5041-5.2559.792Z" fill="#fff" fill-rule="evenodd" stroke-width="0"/><path d="M661.5696,205.992v1.008c-.792,14.1839-5.2559,31.0745-6.9121,47.9519h-4.2481c-2.52-21.5278,3.6724-41.1838,3.6724-62.4238,1.5117.4319,3.0239.9361,4.5356,1.44.9361,3.9599,1.9444,7.9919,2.9522,12.0239Z" fill="#fff" fill-rule="evenodd" stroke-width="0"/><path d="M590.5774,253.512c-4.2476-2.0879-6.2637-3.312-11.0156-3.312-2.7364-9.792,6.2636-14.1121,11.3759-19.8001q-.792-2.8078-.3603-9.864c-6.1919,0-10.728.2161-10.1519-7.56,5.9043-1.3679,11.7359-4.896,17.6402-2.5918,1.9438,4.6079,0,8.928.3598,13.5359,4.104.5759,7.0562-.2879,11.6641.5759,0,2.0161,4.416,2.9121,0,6.0481-3.168.2881-6.336.5759-9.5039.936,1.6557,7.5601,2.664,12.3841.2158,20.0159q-3.2397,1.5122-10.2241,2.0161Z" fill="#fff" fill-rule="evenodd" stroke-width="0"/><path d="M720.5378,253.512c-16.8481-11.0161-20.0322-19.104-36-5.9761-18.5761-2.3039-.4321-10.9438,6.7676-17.4958q3.7441-5.5442,5.9761-10.8001c-2.7359-2.7361-7.9199-1.3681-11.7359-1.2241q-1.2959-1.2959-1.9438-4.5359c1.9438,0,2.9517-.936,4.9678-.936,7.2719-4.032,15.9292-7.386,20.2319-3.312,1.8721,1.7622-1.0078,13.968-5.688,23.3281,14.6162,8.28,24.9839,16.5598,31.9683-3.0242h2.9516c5.0401,9.792-1.2241,18.648-8.4956,23.9761h-9Z" fill="#fff" fill-rule="evenodd" stroke-width="0"/><path d="M590.5774,246.5281c-.7197-.3601-1.3677-.7202-2.0156-1.008q.5039-3.0242,2.7358-6.264h2.52q.936,1.9439.936,5.2559c-1.4399.648-2.8081,1.2959-4.1762,2.0161Z" fill="#3a637b" fill-rule="evenodd" stroke-width="0"/><path d="M272.0495,212.544c.504-2.2319,1.0079-4.3919,1.5123-6.552,3.0239-4.5359,10.9438-12.6719,10.08-18.072-2.5923.3601-2.5923.2878-5.1123.7199-1.6904-1.0654-2.52-1.9438-2.4477-3.0959,7.3437-7.9199-2.5923-15.48-2.3042-25.5598,1.2241-.5042,2.52-1.0083,3.8159-1.4402,6.8403,4.4641,6.5522,9.144,8.4961,16.9919.3598.2161.792.4322,1.2241.7202,3.96-2.0881,6.7681-1.728,11.2319-1.728,1.3682,6.6958-.499,9.9241-7.4111,13.3799,4.752,13.896,5.6831,15.4919,8.4912,21.1799,3.5278-1.3679,1.3677-5.76,1.6558-8.8559,10.728-1.2959,7.7759,5.4719,6.768,14.2561-7.4877,7.4878,12.168,17.28,10.7281,28.2239-.8638.5041-1.7281,1.008-2.52,1.5119-7.4878-5.3279-10.8721-14.1118-16.2002-21.7439-5.3277,3.168-9,6.624-14.9756,4.5359-2.4483,2.9522-3.5283,2.9522-7.272,3.7442-4.9683-3.3121,4.0659-13.199,5.3623-17.5188-2.8804-1.0081-9.6826,1.8947-11.1226-.6973Z" fill="#fff" fill-rule="evenodd" stroke-width="0"/><path d="M268.5935,185.544c-4.104,6.552-10.3677,7.9919-16.3438,11.664,0,10.512.792,20.304,2.1597,30.7439.792-.0717,1.584-.144,2.376-.2158,6.7681-14.688,10.728-25.9201,12.312-42.1921,7.0561,1.2241,4.248,15.624,3.96,15.9841.144,1.44.288,2.9519.5044,4.4639-.5044,2.1601-1.0083,4.3201-1.5123,6.552,0,9-.2153,6.6294,1.3687,24.0535-4.5361,5.2558-4.3208,4.8906-5.3286,2.4426,0-4.176-.792-9.072-1.6558-13.176-3.312,5.6879-5.832,11.448-10.872,15.624-13.2481-1.44-10.44-29.8801-10.5123-39.96-6.4077.9361-11.0161,4.896-17.6401,3.3838-.8638-9.936,11.52-8.1357,16.8482-14.688-.3599-6.5517-1.44-12.3838.288-18.72,1.2959.0721,2.5918.2161,3.8882.3602,3.0957,6.9121,14.0396,6.4799,19.6558,9.6479.144,1.2959.2881,2.6641.5039,4.032Z" fill="#fff" fill-rule="evenodd" stroke-width="0"/><path d="M178.5935,233.4959c-1.2959-3.7439-6.4212-1.7546-4.032-9,3.168-2.0881,9.5042-2.8079,13.032-2.0159,6.2642,7.7761-3.0239,9.5039-9,11.0159Z" fill="#3a5a7b" fill-rule="evenodd" stroke-width="0"/><path d="M268.5935,185.544h.5039c-1.584,16.272-5.5439,27.5041-12.312,42.1921-.792.0718-1.584.1441-2.376.2158-1.3677-10.4399-2.1597-20.2319-2.1597-30.7439,5.9761-3.6721,12.2398-5.112,16.3438-11.664Z" fill="#3a637b" fill-rule="evenodd" stroke-width="0"/><path d="M286.1721,226.0745c5.667-14.3332-4.1665-22.5305,2.5-27,2.8081,2.8079,7.4253,14.4775,7.4253,18.4375-3.0239,2.0161-4.7412,5.1067-9.9253,8.5625Z" fill="#3a6384" fill-rule="evenodd" stroke-width="0"/><path d="M586.5456,194.9759c-8.1362,9.7922-16.416,20.3762-27.792,26.2802-.8642-.5041-1.6562-1.008-2.4482-1.5122-.5757-17.4958,21.0244-33.552,32.2564-45.2158,7.7758-6.768,16.1997-12.8882,22.392-21.168-5.3281-.4321-10.08,6.408-15.4082,7.6319-2.3759,4.176-4.6801,8.352-6.9838,12.5281-10.7281-.792-15.7681-12.6722-16.1285-22.6082,6.9121.2881,8.4244,2.376,12.9605,7.8482q3.5278-7.7042,5.1836-8.7842c7.9282,5.8808,28.2964-10.1519,37.0801-2.0159-.8638,12.8162-19.2959,15.7681-24.5518,25.0559.792.1441,1.584.2881,2.4478.5042,5.4003-3.4561,15.5522-4.3201,21.2402-1.2962.936,8.4241-6.7681,14.6162-12.2402,20.3042h-2.9517c-.7202-5.5439,1.2959-7.7041,1.9438-13.0322-6.4799,0-13.3198,4.0322-19.0078,6.9841" fill="#fff" fill-rule="evenodd" stroke-width="0"/><path d="M661.5696,207v-1.008c12.5278-15.1555-2.397-22.8882,2.52-34.4881-.1441-1.2238-.2881-2.3759-.4321-3.528-2.4478-.4319-4.896-.8638-7.3438-1.2239v-4.5359c5.688-3.6001,16.4878-8.352,17.7837,2.304-4.896,4.896-5.832,27.144-1.0078,31.968-2.0879,5.6159-3.8882,11.3039-10.5122,11.7358-.3599-.4319-.7197-.8638-1.0078-1.2239Z" fill="#fff" fill-rule="evenodd" stroke-width="0"/><path d="M699.5857,203.544c-1.3682-4.824-3.96-7.6321-4.1763-12.5999,6.8403-.3601,9.1441.0718,15.2642,3.024-.0718,1.656-.1441,3.384-.2159,5.1118-3.6723,1.4402-7.2719,2.9521-10.872,4.4641Z" fill="#fff" fill-rule="evenodd" stroke-width="0"/><path d="M701.6018,180.5039c-3.1685,6.3362-10.9443,12.5281-18,14.0401-12.1685-8.6399.6479-22.2481,3.6719-34.344,1.08-.072,2.1596-.1441,3.312-.2158,8.208,8.2077-3.3042,15.0942-2.0801,23.4463,3.0957-2.0879,6.9038-6.1665,10.5762-9.3018,14.688-8.2798,18.5039-9.1047,20.52-11.1206,3.4556.0718,6.9839.2158,10.5117.3599.1441,3.384,1.7256,5.5664-.8779,10.5429-5.8321,1.2959-5.8179,6.521-11.6499,8.6092-4.1763-3.24,2.0161-7.1282,2.9521-11.0162-7.0561.72-10.4404,3.3121-16.4883,6.9842" fill="#fff" fill-rule="evenodd" stroke-width="0"/><path d="M457.5935,180.5039c-5.9761-7.7038,8.8559-23.112,11.8081-32.5439,1.2959-.2878,2.5918-.5039,3.8882-.72,5.688,6.336,3.2397,8.856,12.312,9.792,2.7358,2.7361,2.8076,3.096,2.8076,7.0559-2.376,2.3763-3.5996,3.1682-4.3198,6.408,2.9521-.5039,5.9038-1.0078,8.9282-1.44q3.7437-6.3359,11.6636-26.208c2.1601-1.5839,3.168-1.3679,5.9043-1.3679,4.3198,4.824,3.312,7.4881,2.9521,14.0401,2.6636,0,3.8159-.2161,5.9038,1.3679v6.1919q-1.6562,1.6562-4.896,2.664c-.144.5762-.2158,1.2242-.288,1.8721q2.3042,2.376,4.3198,2.8799c-.1441,1.8-.2158,3.6721-.2876,5.5442-11.0161,6.9839-27.8643-1.728-37.2241,4.4638-4.0323-2.0158-8.064-4.0319-12.024-5.9758-1.728,6.2639-4.896,5.3999-11.4482,5.9758Z" fill="#fff" fill-rule="evenodd" stroke-width="0"/><path d="M307.0417,176.9759c-4.6801-2.376-12.1679-5.9759-14.2563-10.7278.792-1.3679,0-2.8401,2.52-4.032,3.3843.2158,6.8403.5039,10.2964.792,4.104,5.2559,4.1758,6.3359,3.6719,13.032-.792.2878-1.5122.5759-2.232.9358Z" fill="#fff" fill-rule="evenodd" stroke-width="0"/><path d="M591.9758,171.6184c-2.0561-2.7785-3.414,2.1895-3.414,1.9017,2.3037-4.1761.7202-7.6856,3.0961-11.8616,5.3282-1.2239,17.5196-8.75,22.8477-8.3179-6.1924,8.2798-14.7539,11.5098-22.5298,18.2778Z" fill="#3a6384" fill-rule="evenodd" stroke-width="0"/><path d="M699.0818,166.5359c.8637-8.4958,2.7358-12.0239.7197-20.52,5.7603-3.0239,11.2319,2.8801,15.8398,5.9041-.2158,2.52-.4316,5.04-.5756,7.56-5.6163,3.888-6.9268,7.0559-15.9839,7.0559Z" fill="#fff" fill-rule="evenodd" stroke-width="0"/><path d="M216.5378,77.9759h23.0396v1.0083h-23.0396v-1.0083Z" fill="#d6dee6" fill-rule="evenodd" stroke-width="0"/><path d="M404.5666,207.18c-.7197-.3601-1.3676-.7202-2.0156-1.0081q.5039-3.0242,2.7359-6.2639h2.52c.936,1.9438-1.8721,6.5518-3.2403,7.272Z" fill="#3a637b" fill-rule="evenodd" stroke-width="0"/><path d="M499.9294,217.5459c-.7197-.3601-2.7358,0-3.3838-.2878q.5039-3.0242,2.7359-6.2639h2.52q.936,1.9438.936,5.2558c-1.4399.648-1.4399.5757-2.8081,1.2959Z" fill="#3a637b" fill-rule="evenodd" stroke-width="0"/><path d="M252.2497,188.8116c6.5772-1.9754,6.8438-5.9451,0-5.9451" fill="#3a637b" fill-rule="evenodd" stroke-width="0"/><path d="M474.4265,220.5459c-.7197-.3601-2.2319-3.0241-2.8799-3.312.5039-3.0241,0,0,2.2319-3.2397h2.5201c.936,1.9438.9199-.0362.9199,3.2759-1.44.6479-1.4238,2.5556-2.792,3.2758Z" fill="#3a637b" fill-rule="evenodd" stroke-width="0"/><path d="M475.6706,168.2102c-.7197-.3601-2.7358,0-3.3837-.2878q.5039-3.0242,2.7358-6.2639h2.52q.936,1.9438.936,5.2558c-1.4399.648-1.4399.5757-2.8081,1.2959Z" fill="#3a637b" fill-rule="evenodd" stroke-width="0"/><path d="M506.487,168.9344c-.7197-.3601-2.7358,0-3.3837-.2879q.5039-3.0241,2.7358-6.2639h2.52q.9361,1.9439.9361,5.2559c-1.44.6479-1.44.5757-2.8082,1.2959Z" fill="#3a637b" fill-rule="evenodd" stroke-width="0"/><path d="M569.7556,205.158c.5039-3.0242,2.5854-7.2529,4.8174-10.4927,4.5049-5.5073,14.7998-10.0073,13.9888-10.0073" fill="#3a637b" fill-rule="evenodd" stroke-width="0"/></g></svg>