<svg width="894" height="896" viewBox="0 0 894 896" fill="none" xmlns="http://www.w3.org/2000/svg">
<path fill-rule="evenodd" clip-rule="evenodd" d="M446.817 891.96C691.204 891.96 890.551 692.526 890.551 448C890.551 203.472 691.204 4.03906 446.817 4.03906C202.429 4.03906 3.10938 203.472 3.10938 448C3.10938 692.526 202.429 891.96 446.817 891.96Z" stroke="#09348B" stroke-width="6.21616" stroke-miterlimit="22.93"/>
<path fill-rule="evenodd" clip-rule="evenodd" d="M446.812 760.354C618.761 760.354 759.017 620.045 759.017 447.998C759.017 275.95 618.734 135.641 446.812 135.641C274.889 135.641 134.633 275.95 134.633 447.998C134.633 620.045 274.862 760.354 446.812 760.354Z" fill="#09348B"/>
<path fill-rule="evenodd" clip-rule="evenodd" d="M149.711 178.764C147.009 182.116 152.007 185.901 152.413 188.847C152.764 192.497 161.086 196.201 164.112 199.12L172.056 206.771C173.325 207.987 175.055 209.231 176.406 210.367L178.027 211.719C178.404 212.142 178.723 212.615 178.972 213.124C176.027 213.611 165.868 210.691 173.352 216.881C173.731 217.18 178.189 216.881 177.703 218.991C177.216 221.099 182.269 220.045 184.268 221.694C185.847 223.444 187.093 225.469 187.943 227.669C188.787 229.51 190.001 231.158 191.509 232.508C195.994 236.211 191.509 222.478 189.591 220.829C192.509 220.099 194.184 217.315 196.994 216.476C208.153 213.097 217.096 203.284 225.148 193.551C228.265 189.742 230.507 185.293 231.714 180.521C232.362 177.331 239.387 172.059 235.28 168.544C232.578 168.544 229.525 174.492 227.985 176.384C226.445 178.276 216.664 192.416 211.774 195.308C211.116 195.765 210.243 195.765 209.585 195.308C207.829 193.848 205.64 191.199 207.072 189.442C207.234 187.982 209.774 184.035 207.072 181.331L204.37 178.628C204.208 178.466 202.371 180.683 202.074 181.034C200.885 182.467 197.345 183.738 197.075 181.034C197.075 180.197 197.075 175.627 194.995 176.465C189.591 178.845 192.077 171.654 190.023 169.95C187.321 167.652 186.835 171.816 183.998 169.436C181.161 167.057 189.402 161.326 185.241 157.92C179.837 153.513 180.161 163.732 177.135 161.164C177.54 155.216 173.407 147.89 167.678 154.811C166.097 154.699 164.696 153.75 164.004 152.324C163.842 150.54 161.032 150.459 160.329 149.863C159.6 151.647 162.842 157.974 164.355 159.353C164.085 162.407 159.789 167.057 157.276 169.031C154.142 171.356 158.87 172.896 160.221 173.249C165.328 174.492 164.841 166.003 166.382 164.137C169.678 160.163 171.515 163.759 175.082 166.706C173.001 169.923 165.247 177.709 169.246 181.007C174.649 185.603 176.595 170.653 180.702 174.059C181.503 176.648 181.706 179.383 181.296 182.062C180.35 186.063 185.079 180.791 185.43 180.548C188.294 178.412 190.834 181.927 188.672 184.441C187.592 185.766 189.213 187.631 190.672 187.144L195.454 186.333C199.885 190.929 194.427 194.227 196.535 198.985C198.345 202.933 199.723 200.121 202.209 197.093C202.668 196.525 203.56 193.956 204.614 194.849C204.614 194.849 207.91 195.524 207.505 195.985C208.711 196.769 209.091 198.362 208.369 199.607C206.814 201.535 204.86 203.103 202.641 204.203C201.479 204.771 199.291 207.609 198.237 207.69C195.51 208.363 192.964 209.627 190.78 211.394C189.591 212.178 185.376 214.368 184.052 213.232C182.728 212.097 181.35 207.231 179.405 205.555L170.867 198.769C168.651 196.984 166.922 195.227 164.652 193.362C162.853 191.921 160.634 191.105 158.33 191.037C155.898 189.01 154.169 187.442 154.736 184.089C155.142 181.683 150.765 179.709 149.711 178.764Z" fill="#09348B"/>
<path fill-rule="evenodd" clip-rule="evenodd" d="M69.3827 329.075C69.0555 327.147 68.3384 325.309 67.2752 323.668C65.9513 322.478 70.8418 315.395 71.3551 315.017C72.7871 313.773 75.0027 320.424 75.435 321.343C76.9662 324.82 79.0664 328.018 81.6494 330.805C83.0282 332.016 84.7258 332.803 86.5398 333.077C87.7287 333.428 92.3219 334.184 92.5111 333.59C93.1866 334.4 94.7537 337.672 95.9965 337.51C99.3739 336.915 102.833 340.214 106.561 341.483C108.993 342.241 115.37 345.566 116.342 342.43C116.558 341.754 113.451 340.7 112.749 340.484L106.102 338.456C103.049 337.51 99.6981 336.158 100.698 332.832C101.698 329.507 104.616 330.129 105.967 332.832C107.318 335.536 109.966 330.319 111.371 329.21C114.073 327.02 114.64 331.183 114.073 333.32C113.289 336.023 113.64 337.267 116.18 338.05C120.206 339.267 121.935 329.94 121.233 327.236L119.72 321.83C119.395 320.451 117.693 318.639 117.477 316.963C116.991 313.936 114.775 311.556 114.181 308.853C114.019 307.637 107.75 307.123 106.48 306.717L102.671 305.258C100.145 305.471 97.809 306.687 96.1857 308.637C95.8344 309.718 95.0779 311.529 95.5642 312.422C96.9962 315.125 99.2658 320.532 98.2661 323.668C97.1854 327.209 92.8623 325.236 92.43 322.424C92.0788 320.397 91.8896 317.856 89.4309 317.017C86.9721 316.18 87.1613 316.747 85.4861 317.613C83.8109 318.477 79.7851 315.666 80.3795 319.613C80.5956 321.073 82.0006 321.37 81.4603 323.155C81.1901 324.019 78.7584 323.506 78.3531 322.749C75.7862 320.992 75.6512 318.207 74.7865 315.53L72.3818 309.124C73.0573 307.015 76.4347 298.31 72.652 297.309C70.4905 296.634 67.7346 303.366 67.6535 305.42L67.3293 312.611L64.9246 320.721C64.087 323.425 62.4388 324.669 64.1951 327.994C64.8165 329.156 68.4911 331.454 69.3827 329.237V329.075ZM72.5169 392.308C69.3557 391.579 68.0858 386.118 67.9507 381.738C68.0175 374.096 69.2941 366.515 71.7334 359.272C69.5989 357.245 69.8961 352.487 68.5721 350.027C67.2482 347.567 66.1134 342.241 70.3284 343.538C71.7066 344.674 72.3845 346.45 72.1117 348.215L73.3816 353.109C74.5164 357.488 77.7857 353.838 79.9202 350.216C81.4062 347.675 81.3522 348.107 84.4864 349.432C87.6206 350.757 87.1883 352.324 85.9184 358.786C85.5942 359.84 89.647 361.49 90.8629 361.49C93.0801 361.681 95.2473 362.257 97.2664 363.193C99.8062 363.949 108.074 366.68 109.506 364.977C111.749 362.543 113.694 369.356 113.154 369.302C104.238 369.464 90.5657 367.464 82.8382 360.867C83.2976 359.353 76.3807 356.245 77.0561 360.192C77.2993 361.598 80.1093 366.518 81.7304 367.032C83.6175 368.153 85.2913 369.599 86.6749 371.303C88.1256 373.663 89.9507 375.775 92.0788 377.548C94.4024 379.683 95.9425 384.793 96.9422 387.74C99.4896 389.489 101.546 391.863 102.914 394.634C103.265 396.743 108.615 400.905 108.318 402.23C107.91 403.447 106.593 404.104 105.376 403.696C104.873 403.528 104.442 403.19 104.157 402.744C102.851 400.538 101.221 398.543 99.3199 396.824C96.9776 394.284 95.143 391.322 93.9161 388.091C92.7813 387.74 90.3495 382.874 89.7011 381.684C88.6473 379.683 86.8641 378.981 85.9184 377.17C85.2159 375.845 84.0811 374.817 83.4327 373.601C82.487 371.871 79.8121 370.06 79.4879 367.815C78.376 365.218 76.6292 362.939 74.4083 361.192C73.6517 360.975 73.1654 365.517 73.2194 365.869C73.7398 367.834 73.9676 369.864 73.8949 371.898C72.652 375.98 74.4353 378.71 73.1384 382.928C73.1384 383.144 74.2462 384.901 74.3542 385.631C74.5974 387.01 75.7592 392.227 72.8142 392.281L72.5169 392.308ZM52.82 348.81C53.0246 350.289 54.3885 351.322 55.8667 351.116C56.7386 350.997 57.4973 350.459 57.8996 349.675C58.3319 348.242 61.8174 344.079 60.0882 342.484C59.5748 341.998 59.3316 340.781 58.9534 340.133C57.9807 338.293 53.7927 335.401 51.8744 337.429C50.7125 338.7 49.7398 340.133 50.6045 341.646C52.9011 345.945 53.7117 342.7 52.82 348.783V348.81ZM101.455 318.883C101.455 318.099 100.104 315.909 101.455 314.584C102.517 313.378 103.802 312.387 105.237 311.664C106.777 310.827 112.911 310.449 113.343 313.395C113.721 315.666 116.693 315.72 116.045 317.964C115.045 321.208 118.99 323.371 114.667 325.695C113.64 326.237 112.343 327.994 111.073 326.858C109.804 325.722 109.182 323.263 107.696 322.803C106.21 322.343 105.859 323.965 104.778 323.641C102.735 322.982 101.393 321.027 101.509 318.883H101.455ZM83.865 324.885C86.0713 324.127 88.3969 323.779 90.7278 323.857C91.5114 324.1 95.4291 327.777 95.186 328.561C94.4294 330.994 93.6189 330.859 92.6462 331.941C90.2685 334.455 88.9986 330.94 87.8368 329.832C86.6749 328.723 81.5143 328.318 83.946 324.885H83.865Z" fill="#09348B"/>
<path fill-rule="evenodd" clip-rule="evenodd" d="M363.788 93.3614C364.599 95.8215 367.787 97.9032 365.409 100.769L360.546 106.663C357.617 110.413 354.402 113.929 350.927 117.179C348.955 118.137 346.901 118.924 344.794 119.531C343.421 121.029 342.413 122.824 341.849 124.775C343.254 129.073 349.954 125.154 352.953 125.127C355.953 125.1 361.789 120.314 364.545 119.396C369.462 117.801 373.191 116.692 376.622 113.421C377.487 112.583 384.16 109.826 380.648 108.014C379.702 107.527 379.297 105.959 378.351 105.473C376.865 104.716 372.461 105.824 372.245 107.257C371.678 111.393 362.275 113.448 359.546 112.069C358.06 111.312 362.923 106.148 364.031 105.284C367.787 102.31 372.137 100.093 374.596 95.389C375.595 93.5236 370.408 91.5501 369.732 91.1986C369.057 90.8472 363.383 92.253 363.788 93.4695V93.3614ZM343.632 60.92C345.01 60.7307 345.928 65.7862 343.632 66.3269C341.589 66.6832 340.222 68.6297 340.576 70.6743C340.641 71.0431 340.76 71.4002 340.93 71.7338C341.93 73.0926 343.84 73.3831 345.199 72.3829C345.447 72.2004 345.666 71.9817 345.847 71.7338C347.925 68.0044 351.257 65.1314 355.25 63.6235C357.357 62.9206 361.654 62.2717 362.302 64.2452C362.95 66.2188 362.653 73.1666 361.248 74.1129C359.843 75.059 356.898 77.2488 357.547 79.2224C358.384 81.7636 362.14 79.8171 364.112 79.2224C365.652 78.7087 369.651 73.8155 370.678 74.248C374.785 76.3567 373.164 76.2756 372.596 80.493C372.056 84.0615 365.652 84.2237 363.491 87.3597C361.87 89.7117 358.925 90.5498 357.006 91.7934C354.683 92.5504 354.304 98.4979 352.845 99.9038C350.63 102.093 350.008 106.202 348.738 108.69C348.225 109.717 347.09 114.097 346.037 114.475C344.388 115.016 346.037 108.366 346.199 108.204C346.82 105.689 347.252 101.012 347.928 97.8491C345.637 99.5495 342.837 100.426 339.984 100.336C338.849 100.201 332.635 99.2008 334.58 97.3625C338.066 93.902 340.417 88.0086 345.928 86.2243C349.684 84.9806 351.008 81.1418 353.386 78.7628C354.034 76.2486 352.44 72.4907 348.576 75.2213C346.172 76.9245 345.172 80.1145 342.092 81.1147C340.66 81.6014 337.309 82.9261 336.364 81.5203C331.473 74.8158 335.85 63.4883 343.794 60.8929L343.632 60.92ZM316.261 67.3272C313.073 64.6238 320.341 57.6759 323.313 56.7026C328.987 54.9326 334.429 52.4912 339.525 49.4304C341.254 48.376 347.631 45.8347 347.631 44.1856C348.063 41.347 357.79 44.6453 358.438 46.3214C359.465 49.4033 353.034 52.9448 350.522 53.7829L338.12 58.0814C335.688 58.8654 335.418 62.1365 333.202 63.2179L324.664 67.7057C325.745 71.0309 321.963 72.8422 321.449 75.816C322.908 80.2497 320.53 83.4398 321.908 87.6571C323.286 91.8745 322.773 95.9027 323.908 100.174L326.177 109.69C327.582 114.016 329.528 113.231 331.581 111.096C332.068 115.206 335.796 121.909 335.391 125.884C327.555 128.587 323.286 112.367 321.125 105.797C320.585 104.202 317.612 100.39 318.423 97.3085C318.423 97.3085 318.126 95.9297 318.045 95.6863L317.72 93.4695C317.477 92.334 318.261 90.9824 318.423 89.8469C318.801 87.1435 316.802 84.44 317.18 81.7366C317.748 77.7354 322.584 72.8963 321.341 69.2196C320.936 68.0571 316.91 68.1383 316.261 67.4082V67.3272Z" fill="#09348B"/>
<path fill-rule="evenodd" clip-rule="evenodd" d="M548.62 71.5964C548.62 73.4077 551.322 74.489 552.835 75.949C553.699 76.7871 550.997 79.4635 550.133 79.2472C549.268 79.0309 545.837 84.654 545.134 85.4651C542.729 88.1685 548.566 89.8987 548.16 91.4938C547.593 93.6566 541.541 96.9007 539.514 96.333C536.812 95.6571 533.759 100.821 533.192 102.983C531.165 102.983 530.166 105.12 527.788 104.524C527.004 107.552 532.597 109.634 534.759 108.336C535.677 107.822 540.676 110.364 541.838 110.039L546.107 108.39C548.62 107.525 552.078 110.12 554.213 107.471C556.347 104.821 559.752 107.471 561.481 107.822C559.4 109.904 560.346 113.852 558.617 115.933C557.779 116.906 556.59 122.638 554.591 127.206C552.348 132.424 549.592 135.965 550.97 136.885C552.348 137.804 556.104 132.586 556.374 131.667C557.239 128.288 562.48 124.53 564.02 118.717C565.155 114.5 567.182 111.472 568.181 107.66C571.478 107.444 578.449 106.038 579.394 102.416C580.934 96.5222 572.45 100.145 569.722 99.4148C569.235 96.7114 571.099 94.2513 571.748 91.7912C572.64 87.4927 581.34 54.4025 578.368 51.7801C576.476 50.2121 576.882 49.2389 574.45 52.1586C573.558 53.1589 570.397 54.1592 570.046 55.4568C572.748 56.1867 571.721 61.9721 570.829 64.1349C567.803 71.6504 569.127 77.6522 567.614 83.4646L563.345 99.6852L551.808 102.2C548.366 103.166 544.85 103.845 541.297 104.227C540.028 103.876 532.867 103.091 537.812 101.145C539.568 100.361 542.378 98.4417 544.053 98.4417C547.242 98.4417 555.32 94.008 556.239 90.5476C557.428 85.9247 551.916 84.1945 551.268 80.7881C550.619 77.3818 555.942 78.7606 557.401 77.9225C560.292 76.1922 563.75 72.3533 559.022 71.1098C556.86 70.5421 549.538 69.8392 548.485 71.5694L548.62 71.5964ZM513.657 66.6221C512.301 68.731 511.117 70.9459 510.117 73.2455C509.685 74.8946 506.416 79.112 509.658 79.9771C512.9 80.8422 523.168 79.139 525.599 76.3004C527.248 74.408 529.706 68.0549 532.462 67.325C536.839 66.1355 538.136 73.8943 537.028 78.1387C535.083 85.6273 525.518 83.8431 522.276 90.1151C520.979 95.0354 529.301 94.4405 531.895 92.8185C533.705 95.9004 529.49 97.5765 527.788 98.5768C524.843 100.28 522.384 97.874 519.223 97.3603C519.682 99.523 517.575 103.606 518.115 106.065C518.656 108.985 517.034 112.932 516.197 116.203C512.927 115.338 513.036 109.85 513.738 107.255C513.954 106.444 514.305 98.3876 513.522 98.0362C512.738 97.6847 508.604 101.848 506.767 102.227C503.849 102.794 504.227 105.795 500.282 104.74C498.256 104.227 497.175 101.605 499.229 102.037C504.93 103.524 511.063 92.3318 515.44 89.3851C516.386 85.7084 511.982 87.1683 509.82 88.0604C507.118 89.1148 504.254 89.9529 501.985 88.0604C499.715 86.168 505.902 76.4626 507.578 74.408C508.875 72.867 511.171 67.4601 513.765 66.5951L513.657 66.6221ZM546.08 46.9139C548.485 47.6709 549.754 53.6185 548.647 55.4298C547.89 56.6734 539.649 55.2946 538.109 55.1324C531.03 54.4295 526.194 58.4306 520.385 61.8369C517.115 63.7293 526.005 55.7001 527.356 54.6457C533.408 49.8336 542.811 46.6166 546.08 46.8869V46.9139Z" fill="#09348B"/>
<path fill-rule="evenodd" clip-rule="evenodd" d="M700.226 193.764C699.223 195.577 698.953 197.706 699.469 199.712C699.712 200.388 699.604 203.929 699.793 205.119C700.153 207.94 700.985 210.682 702.252 213.229C704.657 217.744 706.413 223.286 709.088 227.585C712.249 232.641 718.41 231.478 722.463 235.695C723.003 234.019 720.004 231.64 719.139 230.288L712.222 220.177C708.575 215.041 704.116 207.687 704.116 201.253V194.927C704.116 194.143 702.901 190.467 700.388 193.656L700.226 193.764ZM696.578 162.945C697.416 161.62 699.793 162.486 701.063 162.432C703.355 162.927 705.513 163.914 707.386 165.324C709.493 166.568 712.519 169.001 714.762 170.191C716.14 170.893 716.87 171.299 717.95 170.353L725.327 163.945C728.066 160.66 731.392 157.91 735.134 155.835C736.134 155.43 740.538 154.051 741.457 154.97C744.483 157.674 747.455 155.646 746.023 160.377C745.375 162.351 743.672 162.378 742.7 163.432C741.727 164.486 738.35 164.541 737.107 165.216C735.107 166.298 734.243 168.568 732.108 169.407C729.974 170.245 727.623 173.435 726.029 175.138C726.488 175.57 725.786 177.138 726.623 177.841C727.461 178.544 728.569 178.923 729.325 179.517C731.217 181.274 733.135 181.085 734.729 182.68C735.378 183.275 735.324 185.195 735.351 185.952C735.378 186.708 736.566 190.304 735.837 191.088C734.675 192.332 731.082 191.088 729.65 190.602C725.737 188.89 722.095 186.612 718.842 183.843C716.14 181.382 713.438 183.843 710.736 184.654L701.036 188.033C693.093 190.737 685.041 187.736 676.53 188.033C675.044 188.033 670.072 189.682 668.911 188.601C666.482 187.77 663.939 187.314 661.372 187.25C659.13 188.087 655.05 184.546 656.293 184.897C659.278 184.584 662.296 184.794 665.209 185.519C667.587 186.276 671.991 185.086 674.639 184.978C675.53 185.817 680.178 184.113 681.393 183.816C683.555 183.248 685.662 183.816 687.716 183.113C691.445 181.654 696.47 181.951 700.199 180.41C701.942 179.658 703.614 178.754 705.197 177.706C707.143 176.463 706.656 176.192 705.332 175.003C701.442 172.272 693.336 166.433 696.578 162.945Z" fill="#09348B"/>
<path fill-rule="evenodd" clip-rule="evenodd" d="M803.789 330.074C800.876 330.377 798.653 332.822 798.628 335.751C798.169 340.159 800.357 338.239 802.168 337.752C805.383 336.86 808.544 345.052 809.274 347.674C810.844 349.915 812.589 352.032 814.489 354C811.787 358.893 808.004 356.703 804.843 353.162C804.464 352.756 801.546 348.864 801.141 349.134C799.582 350.456 797.729 351.383 795.737 351.837C794.254 348.136 792.368 344.611 790.117 341.32C789.007 339.198 787.656 337.211 786.091 335.4C780.985 330.507 782.957 336.698 782.876 340.807C782.876 343.511 785.578 348.918 785.578 351.053C786.102 354.425 787.01 357.726 788.28 360.894C785.2 362.895 782.363 362.002 779.526 361.489C776.689 360.975 770.826 354.189 771.582 350.378C772.933 343.538 769.691 347.674 766.178 348.729C762.666 349.782 764.854 353.351 767.286 354.757C769.718 356.163 770.447 358.677 773.203 360.164C778.094 362.868 784.011 366.868 790.063 365.219C791.449 370.31 796.645 373.36 801.762 372.086C805.14 371.139 801.762 366.922 801.006 365.571C799.96 363.681 799.463 361.537 799.574 359.38C800.168 359.218 804.194 358.352 804.005 357.65C808.841 361.597 811.706 363.057 818.19 361.354C817.542 358.947 819.298 353.243 818.19 352.567C815.731 351.161 813.111 342.591 812.381 339.942C811.535 337.876 810.157 336.076 808.382 334.725C807.464 334.183 804.789 329.642 803.735 330.047L803.789 330.074ZM821.568 318.612C821.735 320.983 820.246 323.159 817.974 323.857C818.595 326.128 821.27 325.532 822 328.182C822.594 330.345 824.404 331.778 825.134 334.427C826.582 339.485 828.455 344.416 830.727 349.161L835.374 359.11C836.914 362.326 839.859 368.355 835.644 369.491C830.727 370.869 825.837 370.923 824.323 365.381C822.972 360.461 825.891 365.381 828.403 364.787C836.941 362.434 825.269 349.998 823.459 347.161C820.541 342.645 819.379 336.509 817.353 331.507L814.002 323.397C811.192 322.556 808.577 321.167 806.302 319.315C802.681 320.288 800.601 319.72 799.493 315.746C798.844 313.34 803.222 309.961 805.653 311.339C811.327 314.556 818.298 311.339 821.568 318.476V318.612ZM854.423 350.405C851.721 347.025 847.83 349.053 844.534 347.188C843.399 346.538 841.345 346.43 840.373 345.268C840.049 344.862 836.617 342.078 835.996 342.24C836.509 344.781 839.859 347.215 841.886 348.376C843.75 349.928 845.371 351.75 846.695 353.784C847.56 355.162 852.099 360.083 853.666 357.217C854.315 356.082 856.368 356.973 855.747 354.649L854.423 350.513V350.405ZM844.939 320.071C840.292 320.559 835.888 315.665 830.538 317.125C829.646 317.368 831.267 322.289 832.618 321.91C833.321 321.721 834.456 323.721 836.131 323.235C840.157 322.127 839.859 327.019 838.833 328.831C837.806 330.642 835.671 333.643 837.482 335.724C838.744 336.663 840.113 337.441 841.562 338.05C844.75 339.861 844.426 334.482 843.939 332.642C843.696 331.751 841.643 325.316 842.264 325.154C844.885 324.1 845.966 323.505 844.939 320.071Z" fill="#09348B"/>
<path fill-rule="evenodd" clip-rule="evenodd" d="M76.5747 577.6L69.4688 556.973L71.6032 556.243C72.8191 560.136 74.6563 561.65 77.007 560.352L103.189 551.323C105.891 550.728 106.458 548.619 104.999 544.699L107.134 543.969L118.887 577.897L105.513 582.98L104.702 580.628C111.322 576.086 113.483 570.544 111.214 563.948C110.376 560.568 108.728 559.46 106.242 560.622L95.434 564.326C96.0163 568.511 99.8792 571.43 104.062 570.85C104.314 570.814 104.563 570.766 104.81 570.706L105.567 572.842L90.3274 578.114L89.5709 575.951C93.4235 574.221 95.1447 569.692 93.4152 565.837C93.3076 565.599 93.188 565.364 93.0564 565.137L80.1954 569.571C77.4935 570.166 76.9801 572.599 78.6012 576.843L76.4666 577.6H76.5747ZM119.076 579.385L117.023 580.357C118.833 583.845 118.428 586.035 115.834 586.927L95.0558 596.606C88.5171 599.815 87.2653 605.913 91.3001 614.908C95.3349 623.902 101.316 626.703 109.241 623.316L127.965 614.61C130.181 613.258 132.315 614.259 134.396 617.638L136.449 616.665L130.208 603.31L128.155 604.256C129.722 608.69 129.262 611.258 126.723 611.933L107.593 620.856C101.568 623.559 97.1362 622.072 94.3262 616.043C92.3071 612.213 93.7729 607.471 97.6004 605.451C97.7496 605.373 97.9011 605.297 98.0549 605.23L119.671 595.146C121.994 593.74 123.994 594.984 125.669 598.876L127.722 597.903L119.076 579.466V579.385ZM145.906 643.456L127.425 654.27C120.004 658.92 113.88 656.776 109.052 647.836C105.54 641.455 106.062 636.609 110.619 633.292C114.24 631.372 116.969 631.886 118.725 634.833C120.335 637.003 119.883 640.067 117.714 641.677C117.529 641.815 117.334 641.94 117.131 642.051C115.231 643.369 112.622 642.899 111.302 640.999C111.211 640.869 111.127 640.731 111.051 640.591C110.559 639.698 110.256 638.715 110.16 637.698C108.635 640.009 108.635 643.01 110.16 645.321C112.393 648.926 115.194 649.828 118.563 648.025L140.989 635.076C143.474 633.967 143.691 631.561 141.259 627.831L143.231 626.695L153.904 645.186L151.931 646.322C150.094 642.834 148.068 641.916 145.852 643.619L145.906 643.456ZM134.801 685.955L136.639 684.63C134.126 681.385 133.937 679.223 136.422 677.763L158.821 661.543C160.848 659.704 163.009 660.461 165.306 663.867L167.143 662.542L154.714 645.457L152.904 646.781C155.417 649.998 155.606 652.188 153.093 653.648L130.694 669.868C128.668 671.735 126.506 670.95 124.237 667.571L122.399 668.896L134.801 685.982V685.955ZM148.311 702.662L137.8 690.658L139.503 689.171C141.934 691.253 145.42 691.443 149.932 689.739L181.571 679.223L183.517 681.467L167.305 715.422C165.97 717.528 166.249 720.277 167.981 722.072L166.251 723.559L152.553 707.798L154.282 706.311L155.768 708.014C157.227 709.934 158.47 710.367 159.524 709.258C159.97 708.829 160.386 708.368 160.767 707.879C160.388 708.393 160.469 708.23 160.956 707.42L163.982 700.877L155.633 691.253L151.013 692.876C149.795 693.197 148.661 693.778 147.689 694.579C146.527 695.673 146.473 697.503 147.568 698.669C147.656 698.761 147.751 698.85 147.851 698.931L149.797 701.174L148.095 702.662H148.311ZM165.711 697.768L159.01 690.037L171.52 685.766L165.711 697.768ZM192.73 697.255C196.045 699.851 196.72 702.094 194.757 703.986L176.951 725.208C175.438 727.506 173.168 727.263 170.142 724.533L168.683 726.263L180.491 736.265L181.95 734.508C178.032 731.427 177.113 728.966 179.248 727.182L195.162 708.258L195.351 708.42L192.649 746.403L196.81 749.891L218.128 724.479C219.56 722.315 221.857 722.288 225.045 724.479L226.504 722.749L215.372 713.394L213.913 715.124C216.993 718.288 217.588 720.774 215.696 722.559L202.565 738.212L202.376 738.077L205.078 704.635L194.27 695.579L192.811 697.336L192.73 697.255ZM241.365 782.684L228.26 775.412L229.368 773.437C231.66 775.081 234.851 774.557 236.494 772.262C236.685 771.995 236.851 771.71 236.987 771.41L249.849 748.161C251.145 746.133 250.2 744.295 246.93 742.754L248.038 740.781L262.737 748.89L256.684 776.412H256.873L277.111 756.731L292.025 765.004L290.918 766.977C287.405 764.868 285.135 765.085 284.082 767.625L270.572 791.957C268.978 794.2 270.005 796.228 273.652 798.093L272.572 800.094L254.982 790.334L256.063 788.361C259.17 790.226 261.467 789.956 262.493 787.495L276.814 761.678L249.794 787.468L245.444 785.036L253.388 748.674L239.878 773.005C238.122 776.195 238.933 778.736 242.391 780.63L241.283 782.63L241.365 782.684ZM325.34 778.818L291.809 766.003L290.999 768.139C294.862 769.464 296.159 771.356 294.916 773.79L285 799.661C284.298 802.365 282.055 802.824 278.3 801.229L277.489 803.338L311.83 816.531L317.693 802.5L315.37 801.581C310.452 808.447 304.562 810.611 297.321 808.042C294.16 806.988 293.133 805.339 294.187 802.932L298.996 790.443C303.141 791.162 305.919 795.109 305.2 799.258C305.154 799.521 305.094 799.783 305.022 800.04L307.129 800.851L312.911 785.82L310.723 784.928C308.831 788.704 304.235 790.232 300.461 788.339C300.274 788.245 300.093 788.145 299.915 788.037L303.968 777.439C304.67 774.735 306.67 774.222 309.723 775.763C316.234 778.25 319.071 783.495 318.288 791.443L320.612 792.362L325.313 778.845L325.34 778.818ZM329.528 781.521L346.847 786.172C360.916 790.407 366.579 798.823 363.842 811.421C359.7 823.317 351.17 827.932 338.255 825.263L319.071 820.072L319.666 817.883C323.592 819.072 325.753 818.315 326.15 815.611L333.31 788.847C334.31 786.28 332.824 784.549 328.825 783.63L329.42 781.44L329.528 781.521ZM342.254 791.984L335.31 817.369C334.418 820.072 335.742 821.857 339.309 822.776C345.758 824.343 350.46 819.648 353.413 808.691C356.366 797.734 354.637 791.308 348.225 789.416C344.767 788.334 342.74 789.234 342.146 792.119L342.254 791.984ZM386.295 836.05L386.673 833.806C382.62 833.239 380.999 831.644 381.756 829.021L386.376 801.634C386.565 798.931 388.646 797.958 392.644 798.796L393.05 796.58L372.326 793.038L371.948 795.282C375.974 795.822 377.622 797.444 376.838 800.067L372.029 827.345C371.867 830.067 369.786 831.013 365.787 830.184L365.382 832.4L386.187 836.077L386.295 836.05ZM433.281 800.905L432.281 815.179L430.012 815.017C427.58 806.204 423.492 801.698 417.745 801.499C410.936 801.04 407.127 806.744 406.289 818.693C405.451 830.643 408.991 836.726 416.827 837.429C424.662 838.131 429.012 833.563 430.336 824.696L433.038 824.885C432.011 835.285 426.129 840.186 415.395 839.591C402.29 838.239 395.725 830.994 395.725 817.964C397.975 805.528 405.254 799.14 417.556 798.796C421.539 799.258 425.343 800.697 428.634 802.986L431.093 800.635L433.362 800.797L433.281 800.905ZM453.302 840.484L437.415 840.754V838.51C440.603 837.969 442.981 835.455 444.548 830.859L456.95 799.742H459.922L475.485 833.995C476.228 836.328 478.446 837.869 480.889 837.753V840.024L460.003 840.403V838.131H462.273C464.677 838.131 465.812 837.537 465.623 836.023C465.582 835.415 465.501 834.808 465.38 834.211C465.542 834.833 465.38 834.671 465.137 833.752L462.029 827.074L449.33 827.291L447.601 831.86C447.053 833 446.758 834.244 446.737 835.509C446.926 837.321 448.088 838.212 450.195 838.212H453.167V840.484H453.302ZM460.733 823.992L455.329 811.827L450.546 824.181L460.76 823.992H460.733ZM517.878 834.806L516.446 819.424L513.987 819.721C512.69 827.959 509.224 832.662 503.585 833.833C500.883 834.455 499.478 833.401 499.316 830.697L495.965 803.393C495.344 800.689 497.046 799.229 501.126 798.877L500.856 796.634L479.889 799.202L480.159 801.445C484.212 800.797 486.239 801.852 486.266 804.609L489.643 832.103C490.291 834.806 488.562 836.266 484.482 836.617L484.753 838.889L517.878 834.806ZM540.25 788.631L559.568 782.224L560.271 784.387C556.191 785.549 554.732 787.387 555.867 789.794L563.216 812.476C564.51 816.623 568.922 818.934 573.067 817.637C573.197 817.597 573.326 817.553 573.456 817.505C579.779 815.449 581.913 811.251 579.86 804.906L573.348 784.928C572.97 782.333 570.484 781.548 565.891 782.576L565.188 780.412L579.211 775.844L579.914 778.007C576.32 779.656 575.05 781.656 576.158 784.008L582.535 803.69C585.164 811.746 581.651 817.341 571.997 820.478C562.343 823.614 556.442 821.632 554.3 814.531L547.221 792.713C546.68 790.01 544.519 789.362 540.844 790.713L540.142 788.55L540.25 788.631ZM580.319 776.817C584.121 775.014 586.444 775.393 587.29 777.953L598.557 803.257C599.935 805.636 598.719 807.583 594.936 809.097L595.855 811.178L610.175 804.798L609.256 802.716C604.744 804.879 602.15 804.636 601.448 801.96L591.397 779.332H591.586L624.495 798.445L629.467 796.228L616.038 766.003C614.714 763.787 615.687 761.678 618.956 759.732L618.038 757.676L604.744 763.571L605.69 765.652C609.878 764.273 612.364 764.841 613.12 767.301L621.442 785.982H621.226L592.315 769.031L579.454 774.762L580.373 776.844L580.319 776.817ZM657.594 779.521L639.113 789.767L638.032 787.794C641.652 785.928 642.706 783.873 641.112 781.656L627.602 757.325C626.549 754.811 624.279 754.622 620.767 756.704L619.686 754.703L638.14 744.484L639.221 746.457C635.573 748.323 634.546 750.35 636.14 752.595L649.65 776.925C650.704 779.467 652.973 779.629 656.486 777.574L657.594 779.548V779.521ZM639.734 745.917C641.542 744.268 644.346 744.395 645.994 746.206C646.054 746.268 646.111 746.336 646.165 746.403L674.345 767.706L678.263 765.004L669.104 730.129C668.342 727.847 669.177 725.333 671.157 723.965L669.86 722.099L659.053 729.67L660.377 731.508C663.079 729.697 664.889 729.67 666.105 731.508C666.105 729.525 667.977 736.157 671.725 751.405C672.184 753.135 672.535 754.433 672.832 755.352L672.616 755.487C658.547 744.835 651.866 739.637 652.568 739.888C651.352 738.672 652.352 737.185 655.54 735.022L654.243 733.157L638.437 744.241L639.734 746.079V745.917ZM695.907 698.418L705.444 709.096L703.553 710.718C696.96 706.141 690.997 706.095 685.666 710.583C682.802 712.583 682.37 714.53 684.343 716.449L691.638 725.127C695.358 723.132 696.761 718.493 694.764 714.77C694.634 714.53 694.494 714.295 694.34 714.071L696.069 712.611L706.444 724.965L704.688 726.425C701.686 723.451 696.844 723.478 693.875 726.479C693.697 726.66 693.526 726.849 693.367 727.047L701.959 737.32C703.499 739.374 705.498 739.293 707.957 737.05C713.65 732.04 714.685 725.73 711.064 718.125L712.983 716.503L722.385 728.453L694.232 752.107L692.772 750.377C695.988 747.863 696.609 745.647 694.637 743.782L676.831 722.532C675.318 720.261 673.049 720.477 669.995 723.235L668.536 721.505L695.907 698.418ZM745.352 688.928C747.513 691.01 748.053 692.469 747.243 693.281C747.243 694.47 744.892 693.929 740.218 691.686C735.881 689.16 730.372 690.018 727.006 693.74H726.844C732.788 686.657 733.463 681.026 728.87 676.843C723.466 672.391 717.557 673.77 711.146 680.98L697.636 696.417L699.338 697.903C701.905 694.714 704.12 694.146 705.985 696.146L726.898 714.341C729.132 715.89 728.862 718.161 726.087 721.154L727.789 722.641L741.299 707.042L739.57 705.555C737.03 708.934 734.598 709.339 732.247 706.689L723.169 698.796C726.33 694.714 730.302 695.092 735.165 699.905C740.056 704.176 744.352 704.095 748 699.633C751.647 695.173 751.242 691.308 746.676 687.333L745.189 689.063L745.352 688.928ZM712.199 688.928C710.47 687.441 710.47 685.739 712.199 683.764C715.117 680.899 718.514 681.042 722.385 684.197C726.681 687.55 726.465 691.848 721.683 697.12L712.253 689.009L712.199 688.928ZM758.132 687.008L745.73 678.033L747.189 676.006C755.727 679.196 761.806 678.384 765.508 673.6C768.21 669.571 767.913 666.273 764.562 663.651C762.509 662.137 758.726 663.327 753.268 667.22C745.757 672.437 740.029 673.6 736.111 670.761C729.662 665.481 728.762 659.225 733.409 651.999C735.095 649.628 737.392 647.757 740.056 646.592C740.656 646.341 741.204 645.984 741.677 645.538C742.028 645.051 741.974 644.24 741.461 643.132C741.329 642.896 741.237 642.64 741.191 642.375L742.515 640.537L753.728 648.646L752.377 650.485C744.9 647.655 739.497 648.403 736.165 652.729C733.698 656.333 733.896 659.279 736.76 661.57C738.948 663.165 742.677 662.056 747.918 658.163C755.484 652.756 761.428 651.512 766.075 654.811C772.055 659.731 772.722 666.038 768.075 673.735C766.146 676.368 763.746 678.625 760.996 680.385C760.304 680.761 759.675 681.245 759.131 681.818C758.672 682.44 758.78 683.44 759.456 684.873C759.461 684.973 759.461 685.07 759.456 685.17L758.132 687.008ZM790.852 637.049L788.879 635.913C786.961 639.536 784.908 640.537 782.692 638.915L758.699 625.046C756.213 623.964 755.997 621.666 758.186 618.206L756.24 617.07L745.73 635.346L747.702 636.508C749.621 632.885 751.674 631.886 753.89 633.508L777.856 647.377C780.368 648.457 780.558 650.756 778.369 654.216L780.341 655.351L790.906 637.049H790.852ZM757.753 615.151L773.587 581.196L786.448 586.927L785.286 589.415C777.667 587.846 772.641 589.65 770.209 594.821L798.39 607.96C800.741 609.393 802.794 607.96 804.577 603.851L806.631 604.796L797.066 625.424L795.013 624.451C797.201 620.125 796.958 617.584 794.283 616.854L766.075 603.797C763.644 609.014 765.481 614.016 771.479 618.881L770.344 621.342L757.672 615.178L757.753 615.151ZM775.91 581.277C776.424 578.871 779.152 577.492 784.016 577.114L800.227 574.761L810.305 578.249C813.007 578.682 813.521 581.196 811.819 585.738L813.953 586.467L821.194 565.408L819.06 564.678C817.709 569.003 815.817 570.598 813.332 569.435L803.497 565.948L790.122 552.431C787.99 550.631 787.269 547.657 788.339 545.077L786.259 544.321L781.449 558.298L783.611 559.027C784.691 555.892 786.015 554.567 787.61 555.134C788.623 555.586 789.541 556.23 790.311 557.027L798.822 565.732L785.88 567.759C785.651 567.703 785.407 567.703 785.178 567.759C784.286 567.935 783.368 567.935 782.476 567.759C781.314 567.381 781.233 565.732 782.233 562.867L780.071 562.136L773.803 580.385L775.91 581.277Z" fill="#09348B"/>
<path fill-rule="evenodd" clip-rule="evenodd" d="M365.917 697.148V665.598H355.109L361.08 656.245H378.616V697.148H365.917ZM420.306 676.25C422.319 676.35 424.305 675.747 425.926 674.547C428.485 672.192 428.652 668.208 426.299 665.647C426.18 665.517 426.056 665.393 425.926 665.274C422.532 663.001 418.107 663.001 414.713 665.274C412.154 667.607 411.971 671.574 414.3 674.133C414.432 674.279 414.57 674.417 414.713 674.547C416.334 675.747 418.32 676.35 420.333 676.25H420.306ZM420.927 682.847C420.144 683.036 419.306 683.171 418.415 683.306C417.518 683.411 416.615 683.468 415.713 683.468C411.822 683.612 408.018 682.301 405.04 679.791C402.273 677.483 400.712 674.039 400.798 670.438C400.671 666.148 402.635 662.062 406.067 659.489C414.664 654.012 425.65 654.012 434.248 659.489C437.639 662.033 439.581 666.064 439.462 670.303C439.398 673.003 438.703 675.65 437.436 678.034C435.464 681.727 433.091 685.19 430.357 688.361L423.332 697.094H409.201L421.035 682.793L420.927 682.847ZM449.487 683.468H462.348V684.144C462.237 685.68 462.81 687.183 463.915 688.253C465.236 689.259 466.879 689.748 468.535 689.632C470.267 689.751 471.991 689.284 473.425 688.307C474.587 687.362 475.22 685.91 475.128 684.415C475.252 682.803 474.574 681.235 473.317 680.225C471.588 679.208 469.589 678.746 467.589 678.9H466.049V672.276H466.779C468.662 672.381 470.534 671.952 472.183 671.032C473.401 670.241 474.109 668.862 474.047 667.41C474.071 666.186 473.482 665.031 472.48 664.328C469.989 662.814 466.865 662.814 464.374 664.328C463.391 665.126 462.831 666.334 462.861 667.599H450.567C450.559 663.947 452.44 660.551 455.539 658.623C459.638 656.272 464.328 655.152 469.048 655.406C473.309 655.187 477.543 656.18 481.261 658.272C484.052 659.865 485.768 662.841 485.746 666.059C485.8 668.062 485.063 670.005 483.693 671.465C482.042 673.066 479.972 674.163 477.722 674.628C480.486 674.907 483.082 676.093 485.098 678.007C486.9 679.808 487.878 682.274 487.8 684.82C487.832 688.762 485.843 692.447 482.531 694.58C473.955 699.665 463.28 699.614 454.755 694.445C451.375 692.03 449.427 688.08 449.568 683.928V683.55L449.487 683.468ZM502.201 697.148L521.276 665.49H499.85V656.245H538.65V658.218L516.548 697.148H502.201Z" fill="white"/>
<path fill-rule="evenodd" clip-rule="evenodd" d="M446.818 296.281C473.885 296.281 495.83 274.324 495.83 247.24C495.83 220.156 473.885 198.199 446.818 198.199C419.75 198.199 397.805 220.156 397.805 247.24C397.805 247.249 397.805 247.258 397.805 247.267C397.865 274.324 419.777 296.235 446.818 296.281Z" fill="white"/>
<path fill-rule="evenodd" clip-rule="evenodd" d="M226.281 585.144V279.654C319.956 270.191 457.591 298.578 516.709 376.815C557.103 430.263 548.646 506.959 455.133 532.318C398.176 547.755 399.716 589.604 436.219 607.203C372.211 588.658 372.481 531.507 440.515 505.716C492.338 486.17 505.712 447.456 474.127 413.15C434.868 370.517 352.541 342.86 294.18 346.645V585.468C316.903 593.28 338.221 602.039 358.701 617.341C318.713 599.742 270.349 591.929 226.308 585.063L226.281 585.144ZM303.231 286.548C299.213 299.51 301.94 313.625 310.499 324.152C325.441 326.369 341.842 328.748 357.242 333.939C362.133 335.588 361.106 339.508 357.053 338.318C343.038 334.128 328.667 331.249 314.12 329.721C321.658 340.075 331.736 341.319 344.111 343.698C391.232 352.16 464.238 378.411 488.798 422.774C502.713 447.917 497.147 474.14 472.884 492.82C450.404 510.15 416.009 515.529 398.771 538.996C385.612 556.866 390.395 583.116 418.684 598.12C403.499 583.629 401.013 565.328 413.631 550.296C429.573 531.372 455.754 526.695 478.477 517.125C522.518 498.525 544.431 455.351 527.787 410.014C499.39 332.749 379.02 290.819 303.339 286.548H303.231ZM346.894 301.362C341.571 301.557 337.413 306.031 337.605 311.36C337.799 316.686 342.274 320.846 347.597 320.651C352.782 320.462 356.888 316.205 356.891 311.014C356.789 305.588 352.317 301.273 346.894 301.362Z" fill="white"/>
<path fill-rule="evenodd" clip-rule="evenodd" d="M667.371 585.144V279.654C643.388 277.435 619.252 277.497 595.284 279.843C600.417 300.741 592.582 329.559 568.265 347.43C578.675 346.326 589.156 346.072 599.607 346.672V585.684C577.021 594.903 555.439 606.409 535.193 620.018C560.186 607.582 631.057 589.794 667.371 585.198V585.144ZM537.841 301.606C543.269 301.801 547.511 306.361 547.319 311.792C547.125 317.223 542.567 321.468 537.139 321.274C531.848 321.085 527.658 316.742 527.655 311.446C527.774 305.923 532.321 301.53 537.841 301.606ZM587.07 280.763C590.961 294.739 587.934 310.852 580.261 324.017C564.995 326.289 548.27 328.721 532.545 334.02C527.574 335.696 528.627 339.697 532.734 338.481C547.041 334.204 561.712 331.262 576.559 329.695C569.191 340.406 558.041 347.921 545.352 350.727C496.988 360.028 445.598 383.304 418.065 414.853C389.236 447.89 401.692 484.603 449.597 504.229L420.875 516.935L412.472 523.1C343.655 492.388 336.819 428.803 371.728 381.141C414.769 322.395 504.986 289.684 587.07 280.628V280.763ZM444.301 534.13C495.313 550.755 492.638 590.307 457.54 607.285C511.741 591.605 519.873 548.16 479.831 519.612L455.271 529.506L444.301 534.13Z" fill="white"/>
<path fill-rule="evenodd" clip-rule="evenodd" d="M455.701 628.131L457.781 528.482L455.269 529.509L435.869 537.62L437.868 628.185C438.193 644.947 454.539 645.46 455.701 628.185V628.131ZM458.403 500.474L463.401 262.787L429.844 262.301L435.248 510.693L458.403 500.474Z" fill="white"/>
</svg>
