<?xml version="1.0" encoding="UTF-8"?>
<svg id="Layer_2" data-name="Layer 2" xmlns="http://www.w3.org/2000/svg" viewBox="0 0 801.83 801.82">
  <defs>
    <style>
      .cls-1 {
        fill: #005398;
      }

      .cls-1, .cls-2 {
        fill-rule: evenodd;
      }

      .cls-2 {
        fill: #fff;
      }
    </style>
  </defs>
  <g id="_图层_1" data-name="图层 1">
    <g>
      <path class="cls-2" d="M400.92,0c220.82,0,400.91,180.1,400.91,400.91s-180.1,400.91-400.91,400.91S0,621.72,0,400.91,180.1,0,400.92,0Z"/>
      <path class="cls-1" d="M636.26,176.92l-.5-.07h-.36s-.39,0-.39,0l-.39.1-.36.21-.27.3-.08.24-.06.27-.15.94-.03.39-.02.36.09.42.16.48.69,1.35.79,1.49.46,1.05.52,1.23.14.38.02.14-.05.15-.26.2-.52.29-2.32,1.26-1.34.8-1.04.67-1.34,1-1.11.68-.49.2-.43.12-.38.07-.28.04-.39.2-.44.31-.41.36-.31.33-.6.52-.34.22-.31.05-.25-.12-.13-.21v-.17s.07-.21.07-.21l.16-.2.26-.28,2.95-2.56.94-.87.83-.84.71-.75.48-.56,1.27-2.01.85-1.46.13-.29.06-.37.03-.48-.06-.48-.18-.46-.27-.42-.2-.17-.24-.15-.29-.1-.33-.08-.76-.06-.77.07-.83.15-.85.21-.82.32-.79.32-.74.38-.66.4-5.27,3.62-3.04,2.14-1.78,1.31-1.8,1.47-1.69,1.44-.78.66-.88.66-1.31.88-.39.29-.19.26-.07.11-.12.06-.17-.09-.14-.04-.15.05-.17.11-.2.2-.13.18-.15.15-.4.2-.48.17-.12.06-.09.07-.17.2-.11.23-.1.1-.15.05h-.2l-.27.04-.23.18-.17.21-.07.23-.12.23-.15.15-.45.18-.22.06-.23.02-.23.02-.23.09-2.54,1.64-1.68,1.12-.9.62-1.01.88-2.14,1.81-1.31,1.17-.6.62-.1.3-.1.1-.15.08-.4.23-.31.32-.27.23-.47.34-.44.41-.27.34-.2.2-.27.11-.41.16-.32.28-.21.42-.14.22-.24.25-.17.21-.05.15.07.26-.03.09-.11.03-.36.11-.09.07-.08.14-.12.32-.16.77v.33s.06.26.06.26l.1.2.1.2.06.38.03.37.02.14.11.07.43.08.16.02.14.08.33.28.25.32.16.29.15.24.17.16.61.24,1.42.42.36.09h.32s.36-.1.36-.1l.56-.3.38-.27.51-.35,1.16-.93,1.1-.94.73-.71.9-1.05.44-.51.41-.33.75-.67,1.53-1.36,1.04-.87,1.28-.98,1.52-1.03,1.71-1.1.33-.22.17-.21.13-.18.16-.18.31-.25.57-.33,3.46-2.16,3.39-2.22,1.5-.97.83-.51.29-.2.19-.07.36-.21.33-.32.28-.23.31-.16.35.02.14.07.1.17.22.51.34.54.64.91.15.22.05.14.04.45.07.19.13.18.45.39.67.33.35.12.4.07.65.02.42-.09.35-.08h.36s.46-.02.46-.02l.43-.02.39-.1.31-.16.51-.26.47-.14.27-.14.3-.2.32-.16.34-.05.33.08.31.24.27.35.12.24.09.23.3.66.45.78.29.39.29.3.29.2.31.07.58-.07.34-.05.34.05h.32s.28-.06.28-.06l.51-.16h.2s.14.05.14.05l.41.24.38.13.59.1.85.09,1.08-.03,1.58-.06.87.03.4-.03.34-.05.37-.14.23-.12.28-.14.73-.42.47-.23.53-.22.58-.17.61-.06.63.05.35.05.35.12.67.33.68.39,1.36.89,1.1.8.67.42.34.15.21.14.14.18.12.2.11.17.18.13.58.2.35.21.29.3.41.51.47.35.7.34.39.2.33.28.51.5.18.13.27.09.44.15.15.12.12.14.09.12-.03.09.14.17.46.39.57.42.27.16.2.07.52.11.41.24.21.14.21.04.12-.05.05-.05v-.07s-.03-.04-.03-.04l.08-.04h.2l.1.07.11.07.04.11v.14s-.2.45-.2.45l-.04.12v.17s.01.1.01.1h.03s.1-.02.1-.02l.19.03.39.29.49.46.53.45.2.17.2.26.17.16h.13s0-.12,0-.12l-.12-.21-.1-.19.04-.12h.17s.23.1.23.1l.2.2.06.19.17.55.18.52-.02.16-.05.15v.13s-.02.1-.02.1l.12.24.24.24.32.21.24.15.13.11.07.19v.27s.13.5.13.5l.26.39.21.24.17.25.07.16-.05.05h-.1s-.21-.04-.21-.04l-.14.02-.06.08.06.09v.13s-.12.13-.12.13l-.29.1-.37.04-.83-.15-1.33-.31-1.33-.39-1.03-.35-.56-.25-.35-.22-.4-.37-.17-.16-.24-.05h-1.17l-.24-.05-.48-.3-.44-.31-.75-.09-.89-.07-.22-.11-.23-.2-.24-.24-.26-.19-.75-.28-.42-.11-.24-.15-.15-.14-.14-.15-.23-.18-.36-.09h-.26s-.05.06-.05.06l.04.08.07.19-.12.06-.17-.06-.28-.15-.28-.13-.24-.05h-.22s-.98-.77-.98-.77l-.34-.25-.28-.13-.63-.24-1.16-.62-1.42-.71-.57-.23-.51-.23-.48-.33-.47-.42-.5-.47-.52-.47-1.09-.93-.58-.5-.53-.34-.47-.23-.21-.07h-.17s-.21.04-.21.04l-.14.05-.14.02-.28-.03-.34-.05-.12.06-.13.09-.12.35v.69s.41,4.53.41,4.53l-.05.42-.04.14-.14.12-.15.08-.22.06h-.49l-.94-.09-1.44-.09-1.53-.09-1.24-.09-.76-.06-.41.06-.27.04h-.32s-1.81-.43-1.81-.43l-1.26-.23-1.13-.12-1.05-.06-.94-.12-.37-.06-.24-.08-.08-.06.1-.1.21-.13-.08-.06-.28.04-.26.11-.36.28-.06.15.07.19.03.11-.06.08-.23.12-.64.15-.2.13-.28.24-.67.73-.34.41-.32.45-.21.42-.09.36.04.74.14.45.17.45.32.5.41.53.52.57.64.61.66.55.55.41.82.47.6.24.5.17.43.24.12.14.06.09v.1l-.12.06h-.17s-.3.01-.3.01l-4.58-.3-5.74-.43-5.14-.39-2.65-.34-.59-.1-.52-.11-.84-.29-1.09-.44-.75-.19-.51-.04-.34.05h-.49l-.24-.08-.31-.14-.5-.27-.18-.03-.3.03h-.2l-.27-.06-.6-.27-.62-.38-.54-.32-.8-.43-.29-.1-.38-.03h-.49l-.55.08-.44.15-.14.12-.07.11v.2s-.07.11-.07.11l-.15.05-.09.07v.13s.23.34.23.34l.11.17v.13s-.03.06-.03.06l-.08.04-.05.05.07.09.24.35.1.17v.17s0,.2,0,.2v.3s.16.48.16.48l.36.59.47.52.26.19.29.1.43.08.35.02h.29s.24.07.24.07l.23.11h.29l.24-.02.2.07.34.24.21.14.29.13.79.24.96.25.43.08.34-.05.29-.09.32.11.19.03.07-.04.23-.19.31-.06.15.05.15.11.14.08h.13s.45-.07.45-.07l.44.05.56.09.55.19.43.18.39.2.46.09.41.04h.36s.29-.11.29-.11l.09.03.11.07.11.07h.07s.09-.18.09-.18l.19-.07.14.05.21.14.25.15.21.07h.46s.39-.1.39-.1l.11.04.09.13.18.26.15.05h.29s1.27.1,1.27.1l.73.05.33-.02.24-.02.69-.13.25.02.22.04,1.1.21,1.47.17h.42s.23-.07.23-.07l.14-.12.17-.04.37-.04.55.12.52.11.51-.06.6-.06.28.03.38.13.28.23.12.24-.05.15h-.1l-.11-.04-.29-.1-.27-.06-.27.04-.27.11-.32.29-.07.04-.19-.03-.28-.03-.04.09.02.14v.29s-.11.03-.11.03l-.17-.09-.17-.09-.12-.04-.24.05-.21-.04-.21-.14-.15-.05-.1.03v.1l.14.17.34.35.1.1.05.15-.08.14-.1.03-.18-.06-.11-.14-.09-.13-.12-.04-.1.1-.11.23-.19.47-.14.12-.2.13-.67.24-.58.36-.37.31-.16.11-.09.17-.08.14-.14.12-.41.16-.49.2-.15.15-.1.2-.11.23-.34.12-.26.11-.21.16-.41.45-.2.2-.14.12-.31.06-.2.03-.14.12-.06.18-.04.21-.03.19-.04.12-.17.21-.06.08-.02.06v.13s-.26.25-.26.25l-.31.16-.27.11-.13.09-.08.14-.15.38-.15.15-.17.11-.16.08-.15.15-.06.18.02.24.02.43-.12.25v.13s.07.16.07.16l.18.33.06.12-.03.09-.21.13-.07.11v.2l.07.19.09.23.1.27.07.38.25,1.27.32,1.17.56,1.71.77,1.97.47,1.02.54,1.01,1.19,1.99,1.23,1.83,1.19,1.66,1.06,1.38.75.85,1.35,1.21.83.61.87.59.87.49.46.19.46.16,1.43.42.79.17h.46s.29-.11.29-.11l.69-.4.7-.32.44-.15-.05-.05.12-.25.51-.45.68-.47.31-.26.19-.26.18-.24.28-.07.31-.13.03-.09v-.17s0-.2,0-.2l.09-.17.18-.07h.26s.48.02.48.02l.15-.15.13-.29.13-.29.17-.14.19-.07.21-.03.14-.02.06-.08.08-.23.06-.09h.07s.1,0,.1,0l.22-.06.16-.08.09-.1.14-.22-.04-.17-.21-.14-.24-.04h-.17s-.09.07-.09.07l-.08.14-.11.22-.17-.09-.05-.05v-.07s.11-.16.11-.16l.09-.17v-.07s-.05-.08-.05-.08l-.21-.04-.28.07-.34.15-.09-.03-.22-.11-.17-.09-.04.02.23.47.14.54-.06.28-.09.17-.3-.37-.12-.11-.12-.04-.06.08.02.2.08.26.09.13v.07s.02.07.02.07l-.19.17-.44.35h-.13s-.01-.08-.01-.08l.1-.19.15-.25v-.2s-.09-.13-.09-.13h-.17s-.19.11-.19.11l-.14.02-.11-.07-.1-.2-.14-.17-.19-.1-.54-.22-.31-.04-.15.05-.12.06-.09.27.07.19.11.24.25.42.08.33-.02.06-.08.03-.32-.11-.57-.42-.25-.12h-.13s-.15.04-.15.04l-.29.1-.25.15-.43.31-.4.23h-.17s-.22-.03-.22-.03l-.39-.1-.14.02v.03s0,.07,0,.07l.04.15-.13.12-.15.04-.16-.09-.13-.11h-.1l-.16.28-.14.12-.18.07h-.29s-.45-.12-.45-.12l-.28-.13-.4-.17-.99-.53-.57-.35-.62-.48-.67-.52-.64-.61-.74-.81-.85-1.05-1.79-2.39-1.5-2.12-.49-.76-.22-.41-.62-1.43-.34-1.01-.2-.96v-.73s.03-.41.03-.41l.14-.31.27-.41.36-.67.24-.42.31-.52.45-.57.59-.69.78-.76,1.06-.9,5.38-3.98,1.2-.85,2.22-1.46,1.19-.75,1.09-.62.87-.46.51-.16.73.05.84.12.83.12.36.02.27-.04.96-.14.43-.02.31.04h.23s.14-.04.14-.04l.13-.09.18-.07h.32s.29.21.29.21l.17.06.14-.02.49-.1.85.09,1.52.21,2.93.5,1.17.2.39.1.2-.03.33-.09.38-.07.38.1h.33s.4-.12.4-.12l.76-.4.32-.19.35.02.2-.03.19-.07.34-.25.34-.41.22-.45.11-.52.09-.46.04-.71-.04-.18-.12-.14-.45-.29-.87-.5-.97-.59-.74-.59-.2-.1-.04.12v.22s-.11.1-.11.1h-.23s-.29-.11-.29-.11l-.78-.4-.83-.45-.33-.18-.27-.09h-.17s-.16.09-.16.09l-.16.08-.15-.02-.17-.09-.15-.15-.1-.1h-.12s-.28.13-.28.13l-.15-.02-.21-.07-.5-.27-.94-.32-1.1-.31-.46-.18-.41-.24-.67-.42-.59-.37-.8-.33-.67-.23-.16-.02-.14.02-.16-.02-.2-.07-.21-.14-.24-.25-.39-.46-.21-.14-.19-.1h-.17s-.04.13-.04.13l.08.26v.03s-.05.02-.05.02l-.16-.02-.22-.11-.21-.17-.22-.21-.31-.14-.33-.08h-.29s-.26.01-.26.01l-.25-.12-.23-.18-.22-.21-.23-.21-.08-.13-.03-.11.03-.09.17-.11.79-.13,1.08-.1,1.03-.05,1,.04,1.06.23.93.22.65.09,1.09.07.64.12.61.3.57.36.51.5.44.45.52.4.51.31.62.28.76.36.21.14.19.2.47.26.76.26.79.17.63.05.55-.08.74.02h.58l.5-.03.85-.2.31-.13.24-.15.18-.23.13-.29.13-.29.16-.27.26-.21.41-.16.72-.31.62-.39.3-.13.31-.03.27.06.3.07.28.03.12-.06-.03-.11-.25-.12-.31-.14-.3-.27-.62-.77-.3-.36-.15-.22.02-.05h.13s.58.24.58.24l.7.33.48.32.41.34.03.11-.08.04h-.17s-.3-.06-.3-.06l-.25-.02-.04.02v.03s.14.15.14.15l.24.15.28.13.13.11v.1l-.07.11v.13s.06.09.06.09l.3.17.17.09.11.17.18.52.07.39-.09.07h-.23s-.26,0-.26,0l-.19.1-.03.16.1.2.17.16h.12s.1-.09.1-.09l.02-.16.04-.12h.07s.39.38.39.38l.26.19.22.11.21.07.17.09.33.28.27.26.31.17.52.11.32.11.21.14.4.34.45.22.46.18.27.16.29.2.22.21.04.08-.03.09-.11.13-.02.16.12.11.3.17.82.28.44.25.5.44,1.95,1.94.59.46.34.15.31.14.7.14.66-.04.77-.26.91-.39.42-.28.37-.31.28-.34.14-.42.08-.43.11-.43.28-.92.23-.88.07-.41v-.37s-.06-.81-.06-.81l-.14-1.04-.39-1.35-.31-.83-.4-.93-.51-1-.38-.59-.51-.5-.29-.2-.2-.2-.06-.12v-.1s-.12-.31-.12-.31l-.3-.46-.42-.47-.87-.82-.99-.93-1.02-.94-.37-.26-.19-.2v-.1l.06-.08.14-.12.21-.13.32-.19.42-.29.93-.74.8-.72.37-.43.08-.24.13-.19.29-.47.27-.5.46-.87.42-.95.13-.39.08-.33.09-.46.14-.32.29-.46.14-.32.04-.32.16-.57.24-.71.15-.84.06-.47v-.57s-.1-.79-.1-.79l-.18-1.11-.31-1.2-.23-.57-.32-.5-.61-.77-.58-.5-.55-.28-.49-.2-.24-.05h-.2l-.33.12-.29.26-.2.39-.41.85-.26.38-.28.26-.27.24-.16.28-.05.34.05.51-.02.62-.09.66-.2.59-.24.45-.64.81-.27.43-.15.45-.14.41-.14.32-.19.27-.23.28-.17.21-.14.05-.44-.34-.98-.66-1.72-1.08-1.92-1.15-.8-.44-.65-.29-.88-.27-.62-.11h-.42s-.43,0-.43,0l-.62-.08-.9-.14-1.84-.33-1.53-.19-1.37-.1-.65-.09-.86-.16-.93-.15-.45-.02h-.46s-1.44.11-1.44.11l-.61.06-.6.13-.87.23-.23.02-.18-.06v-.07s-.01-.07-.01-.07l.19-.2.56-.4.38-.27.25-.24.27-.21.34-.15.45-.18.51-.26,1.08-.59.43-.22.45-.17.52-.09.7-.03.69-.03.53-.02.42-.09.39-.1.6-.12h.42s.57-.13.57-.13l.92-.31,1.75-.76.58-.36.29-.27.26-.31.28-.34.24-.41.19-.47.18-.53.27-1.1.18-1.02.09-.93.03-.75-.18-.72-.18-.43-.23-.47-.28-.42-.33-.47-.75-.78-.93-.71-1.09-.63-1.15-.55-.97-.4-.77-.23-.58-.1-.91-.11-3.15-.6-2.99-.59h0ZM481.51,79.16l-.32-.03-.61.06-.29.13-.09.06v.1l.03.23.13.32.06.62-.06.91-.19,1.05-.26,1.08-.78,2.36-.65,1.8-.39.92-.45,1.47-.16.56-.07.59-.06.49.03.39.06.59-.06.13-.16-.03-.45-.36-.68-.69-.71-.76-.29-.36-.19-.26-.42-.52-.55-.56-.64-.55-.62-.39-.52-.23-.36-.03-.74.1-.42.04-.39.06-.35.07-.32.13-.13.07-.1.13-.13.29-.04.39-.03.43-.16,2.16-.29,2.78-.26,1.38-.39,1.83-.42,1.77-.32,1.14-.16.66-.13.62.07.52.1.23.16.16.58.36.1.1.03.1-.03.13-.07.1-.23.06-.38.06-3.33.17-.48.03-.39-.03-.16-.04-.16-.13-.29-.36-.62-.91-.29-.36-.19-.16-.2-.16-.26-.1-.29-.06-.68-.07-.36.03-.42.1-.84.33-2.29,1.35-1.2.72-.84.55-.45.39-.32.36-.45.65-.52.59-.42.39-.16.17-.16.26-.13.36-.13.49-.32,1.44-.07.79.07.36.13.32.16.27.16.23.36.29.32.17.29.13.26.13.26.23.55.49.55.46.48.36.65.3.32.03.13-.1.1-.13.1-.26.16-.23.29-.17.42-.26,1-.62.71-.62.32-.32.29-.2.23-.17.09-.23.13-.49.13-.2.1-.13.16-.1.22-.06.23-.1.13-.16.29-.59.26-.32.22-.27.36-.23.55-.23.71-.29.9-.3,1.23-.32,1.62-.26,3.23-.46,1.36-.1h2.26l.65-.06.84-.26.55-.03.81.06,1.74.2.91.06,1.06-.03,1.55-.1h.61l.68.1.36.03.09-.06-.09-.1-.29-.13-.71-.23-.45-.07h-.61l-1.13.03-.71-.03-.2-.07.1-.07.39-.07.62-.03,1.97.17,1.04.1.74.13.55.2.94.2,2.62.49,1.32.19.45.07h.26l.45-.1.13.03.16.13.29.26.39.13.23.06.06.07.03.06v.07l-.06.1-.36.13-.52.04h-.52l-.62-.04h-.68l-.9.1-1.1.2-1.84.33-.87.2-.68.32-.39.23-.32.1h-.32l-.42-.07h-.61l-.84.13-2.2.36-4.75.66-.55.07-.42-.07-.42-.16-.42-.26-.2-.17-.16-.2-.33-.36-.16-.16-.16-.16-.19-.1-.23-.07-.45-.03-.42.13-.39.13-.42.13-.35.06-.16.1v.13l.13.1.13.06v.1l-.1.06-.2.1-.32.16-.39.33-.39.39-.19.23-.16.23-.1.3-.1.32v.72l.07.43.09.42.16.39.2.42.78,1.15.45.49.03.13v.13l.07.1.23.13.52.2.52.26.52.17.78.1h.38l.42-.07.42-.1.36-.17.52-.36.35-.36.48-.72.48-.66.33-.26.39-.17.71-.26,1.77-.69,2.78-1.04.97-.43.58-.29.55-.33.77-.26,1.74-.49,1.04-.23.84-.1,1.07.03.1.03-.03.06-.39.27-1.36.69-.61.33-.58.39-.81.55-.23.2-.16.2-.16.16-.16.1-.36.13-.74.36-.78.56-.26.2-.23.1h-.19l-.16-.03-.39-.2-.58-.23-.23-.03-.19.07-.07.23-.03.43v1.54l-.13,1.18-.26,1.44-.13.59v.43l.06.26.16.1.13.03.06.03-.03.13-.09.16-.23.29v.13l.07.13.06.13-.06.07-.61.1-1.04.04-1.58-.1-1.61-.13-.71.03-.94.04h-1.68l-1.49-.1-1.39-.03-2.39.06-4.23.17-3.56.26-1.68.1-1.2.03h-1l-.61.06-.65.13-.87.33-.26.1-.29-.03h-.39l-.32.07-.45.1-.1.03v.13l.16.16.35.29.55.33.64.29,1.32.56,2.01.88,1.78.82.26.06.35.07.87.03.94-.07.91-.1,3.46-.66,2.07-.39.81-.13.55-.07,1.1-.13h1l.39-.06,1.03-.2,1.68-.13.97-.03h.84l1.91.1.97.1.65.16.58.29.06.13-.06.1-.23.49-.16.72-2.58,10.64-2.75,10.83-.26.56-.36.56-.19.23-.26.19-.26.17-.32.1-.81.23-1.06.23-1.2.1-.55-.04-.55-.1-.94-.3-.84-.23-.68-.13-.48-.03h-.13l-.06.03.09.13.33.13.35.1.52.17.07.06-.1.07-.13.1h-1.45l-.26.07.29.13.65.13.61.13.52.13.45.2.29.23.1.13-.03.1-.23.06-.09.03v.04l.22.16.39.16.42.1.42.1.39.17.26.16.03.07v.03l-.06.13.06.1.16.06.23-.03h.22l.23.03.58.2.68.1,1.16.1,1.23.03h.55l.42-.03.78-.17.42-.17.38-.26.45-.33.42-.52.45-.65.45-.88.45-1.11.42-1.28.39-1.37.39-1.34.91-3.9.29-1.37.09-.52v-.76l.04-.33.09-.33.16-.33.26-.79.29-1.4.29-1.64.23-1.31.97-6.87.03-.36.1-.23.16-.13.32-.1.48-.07.9.03,2.56.1,2.58.2,1,.13.58.1,1.17.29,1.71.42,1.84.43,1.49.39,1.39.42,1.58.43.78.13.71.07.58-.07.23-.1.23-.1.29-.29.26-.33.16-.3.06-.32-.03-.33-.1-.29-.22-.29-.36-.26-.52-.26-.71-.26-1.97-.53-2.39-.52-2.59-.46-2.55-.42-2.42-.3-3.59-.46-1.91-.23-.45-.13-.35-.13-.23-.2-.07-.13v-.16l.1-1.71.1-.82-.03-.52-.13-.56-.16-.59-.06-.59.06-.3.16-.26.23-.2.36-.2.45-.1.45-.07h.9l.81.07.55.1.26.03.06-.03v-.03l-.13-.2.03-.06.16-.03.62.06h.45l.45-.1.81-.33.19-.06.26-.03.55-.07.71-.03.71-.1,1.68-.33.87-.29.42-.2.42-.2,1.23-.88.29-.16.29-.13.36-.03h.42l1.49.17.26.07.16.1.1.13v.59l.07.23.13.1.13-.1.16-.16.2-.03.16.1.06.1v.1l-.03.13.03.1.13.1.19.03.19-.06.17-.04h.19l.65.07.74.2.78.33.84.36,1,.23.49.07h.52l.48-.03.45-.1.68-.23.48-.26.16-.16.16-.23.13-.29.1-.39.13-.72.03-.56-.07-.39-.07-.16-.1-.13-.39-.49-.23-.3-.39-.33-1.1-.75-.55-.39-.45-.39-.42-.39-.65-.42-1.04-.46-1.52-.49-1.55-.46-1-.29-.32-.13-.22-.13-.17-.13-.03-.17v-.26l.03-.1.07-.06.39-.26.36-.33.03-.2-.07-.26v-.23l.07-.1.35-.42.52-.79.2-.36.03-.33.03-.26.13-.26.19-.26.26-.23.23-.23.16-.23.23-.52.06-.23.06-.13.39-.23.29-.26.26-.39.48-1.28.39-.78.23-.4.26-.36,1.04-1.31.55-.72.61-.78,1.17-1.31.29-.42.13-.43-.06-.42-.13-.39-.26-.55-.39-.53-.32-.46-.52-.62-.74-.52-.42-.23-.48-.1-2.04-.2-1.04-.03-1.06.07-.94.06-.71.1-.61.03-.74-.06-.81-.13-.42-.03h-.33l-.29.03-.16.1-.07.17.1.29.42.52.49.42.48.29.42.2.32.07.39-.03.45-.13.45-.23.55-.23.68-.23.77-.13h.74l.61.03.36.07.1.06.07.13-.1.49-.32.92-.48,1.14-.52,1.08-.42.75-.74.82-.32.43-.23.42-.13.39-.07.26-.06.06-.1.03-.36-.13-1.71-.75-1.13-.43-.55-.16-.55-.06h-.45l-.36.06-.26.13-.16.2-.1.2-.03.23.06.23.1.26.29.39.22.36.16.26.03.1v.13l-.1.23-.23.26-.74.52-1.39.79-1.2.76-.09.1-.03.13.1.32.29.66.07.32.13.33.1.17.16.16.48.36.74.46.74.56.64.56.39.43.13.16.03.16v.26l-.1.26-.2.26-.26.26-.29.13-.36.03-.52-.03-2.94-.49-.32-.06-.26-.1-.23-.2-.26-.33-1.1-1.87-.71-1.08-.58-.75-.36-.39-.13-.33.1-.23.29-.23.55-.33.06-.07v-.07l-.09-.1-.07-.07.04-.09.13-.17.2-.07.06.03.03.07.07.16h.16l.65-.33.74-.53.19-.23v-.17l-.07-.16.07-.16.19-.17.32-.06.29-.07.16-.03.19-.26.32-.17.39-.13.29-.13.29-.26.26-.33.16-.36.1-.39.16-.33.13-.16.19-.1.61-.17,1.13-.1.35-.06.29-.13.2-.16.06-.2-.06-.2-.2-.2-.16-.2-.06-.26-.1-.23-.2-.26-.39-.33-.61-.39-1.26-.72-.58-.29-.62-.43-.52-.42-.16-.23-.1-.2-.07-.16v-.16l.13-.2.26-.2.45-.26,1.13-.69,1.81-1.18.94-.66.81-.65.36-.3.29-.29.32-.46.19-.75v-.33l-.03-.3-.16-.46-.23-.33-.29-.2-.42-.1-.29.03-.29.13-.36.23-.39.33-5.43,5.14-.48.43-.1.1-.06.13-.13.1h-.26l-.36-.1-.45-.2-2.98-1.61-.29-.23-.16-.33-.03-.3.09-.26.1-.2.03-.2-.19-.32-.06-.23.03-.33.16-.72.03-.26-.06-.17-.16-.06v-.2l.03-.46v-.17l-.03-.2-.2-.52-.32-.49-.16-.23-.16-.2-.35-.23-.35-.13-.39-.07-.45-.03h0ZM475.92,98.86l-.07.78-.03.36-.1.3-.13.23-.16.2-.17.13-.09.2v.65l.06.72-.03.26-.13.19-.13.17v.07l.26.13.06.16-.06.16-.19.13-.29.03-.81-.13-.32-.13-.13-.1-.03-.1v-.2l.1-.1.26-.16.19-.46.03-.69.03-.2.03-.26.19-.66.29-.72.22-.33.23-.29.42-.39.29-.16.16.03.03.17h0ZM480.89,96.18l.65.46.97.65.26.26.07.13v.1l-.19.2-.36.16-.94.29-.87.36-.35.16h-.26l-.13-.19v-.43l.16-.62.23-.72.39-.95.1-.04.13.04.16.13h0ZM482.51,93.53l.58-.23,1.26-.59,1.94-1.08,1.91-1.08.52-.3.36-.1.22.03.2.13.45.29.74.59.19.2.1.23-.03.26-.16.26-.61.66-1.01.75-1.19.92-1.17.91-1.1.79-.48.29-.48.2-.74.2-.26.03-.23-.06-.19-.07-.13-.1-.13-.16-.13-.16-.29-.33-.42-.29-1.07-.52-.22-.13-.16-.16-.07-.2v-.2l.07-.16.1-.17.16-.13.2-.1,1.29-.43h0ZM484.38,87.11l2.23,1.37.26.2.03.1v.1l-.16.2-.42.26-.77.43-1.03.52-1.71.82-.39.16-.19.03-.06-.1v-.13l.16-.49.61-1.54.52-1.41.16-.46.13-.23.13-.03h.13l.39.2h0ZM485.13,100.69l.61.85.55.82.52.82.16.33.03.23-.1.16-.19.1-.65.03-.91-.03-2.84-.17-2.68-.19-.36-.07-.23-.1-.13-.13-.03-.17.03-.16.1-.13.29-.23.81-.33.81-.29.68-.29.26-.16.13-.16.1-.13.16-.1h.13l.13.1.16.07h.13l.1-.07.26-.13.19-.2.26-.33.19-.1.26.03.58-.1h.32l.13.06.04.1v.06h0ZM482.44,104.95l.97.03.65.13.16.1v.03l-.07.06-.26.03h-.48l-.62-.1-.45-.13-.16-.1.06-.03.19-.03h0ZM498.12,107.5l.64.04.58.13.94.36.26.2v.13h-.36l-.78-.16-1.49-.46-.16-.1-.03-.06.1-.03.29-.04h0ZM497.05,108.35l.78.13,1.1.26,1.26.36,1.23.46.97.46.32.2.19.16.07.13-.03.13-.17.07-.26.1-.55.1-.39.13-.78.43-.58.23-.58.13-.61.03-.68-.03-.74-.07-.81-.13-.39-.13-.39-.16-.39-.2-.32-.26-.45-.49-.19-.36-.07-.23-.16-.1-.1-.1.13-.2.36-.23.55-.3.91-.43.32-.07.45-.03h0ZM498.05,98.5l-.67.49-.26.26-.09.29v.59l-.04.1-.09.07h-.16l-.26-.07-.45-.16-.26-.13-.62-.33-.58-.17-.55-.23-.16-.13v-.16l.16-.2.17-.1.19-.13.81-.39.52-.17h.45l.58.1,1.16.2.26.13v.07l-.1.06h0ZM484.84,109.43l.48-.2h.32l.1.03-.03.13-.13.13-.26.1-.52.03-.13-.1.06-.07.1-.07h0ZM486.55,109.14l.39-.13.55-.1.26.03.1.07-.1.1-.29.1-.42.06-.36-.03-.16-.03-.03-.03.07-.04h0ZM488.42,108.81l.32-.13.22-.03h.32l.35.07.1.06-.13.1-.42.1-.49.03-.29-.07-.1-.06.1-.07h0ZM483.58,110.58l1-.29.58-.1.71-.16,1.58-.36.65-.1.48-.03.32.03.16.1-.03.03-.07.03-.42.1-1.94.3-1.13.2-.91.2-1.1.23-.16-.03.26-.13h0ZM481.8,111.2l.45-.13.26-.07.2.03.06.13-.1.13-.13.07-.16.03-.39.03-.32-.03-.06-.03-.03-.04.23-.13h0ZM267.95,95.24l-.36.17-.2.13-.29.26-.06.1.06.23.32.2.61.2,1.71.13.81.07.77.13.65.2.49.16.29.26.03.13-.03.16-.26.43-.32.49-.32.56-.23.49-.09.36.03.23v.17l-.03.2-.07.23v.2h.13l.26-.2.29-.36.19-.33.13-.36.16-.3.35-.29.65-.32,1.55-.72.77-.36.65-.39.26-.23.19-.23.1-.23-.03-.29-.09-.29-.26-.33-.32-.33-.42-.29-.48-.26-.58-.2-.65-.1-.71-.03-1.17.03-.68-.03h-.58l-.78.03-.87.13-.74.13-.55.16-.29.13h0ZM283.01,96.85h.35l.36.1.32.2.23.26.13.33.06.39v.92l-.03.29-.1.2-.16.23-.29.29-.39.36-.22.23-.23.29-.39.62-.36.72-.29.75-.26.79-.19.72-.2,1.14-.29,2.88-.2,1.64-.06.62-.1.42-.13.59-.03.49.07.23.06.19.39.36.55.39.58.52.52.59.45.59.36.43.32.16h.23l.26-.16,1.23-.99.78-.65.55-.49.22-.33v-.26l-.16-.3-.33-.43-.58-.75-.81-.92-.87-.88-.68-.55-.36-.33-.1-.13-.03-.13.03-.1.07-.13.29-.2.38-.26.48-.23.32-.1.36-.03h.45l.48.06.55.16.48.2.42.3.39.33.61.65.42.65.55.75.19.13h.26l.52-.2.48-.36.65-.59.55-.36.68-.33,1.36-.65.48-.2.36-.1.52-.07.74-.17.84-.13,1.2-.03,1.33.03,1.13.13.42.13.32.16.13.1.1.1.16.26.03.16.03.16.04.36-.07.39-.1.46-.26.88-.32.69-.32.49-.29.32-.39.52-.23.59-.13.33-.13.17h-.16l-.13-.13-.07-.07h-.1l-.22.2-.35.32-.55.39-.39.29-.07.13.03.13.23.13.13.03.16-.03h.22l.1.07-.03.1-.16.13-.26.1-.16.16-.13.23-.06.26v.23l-.03.16-.39.56-.45.59-.58.62-.58.56-.48.39-.68.46-.65.55-1.52,1.8-1.26,1.44-1.45,1.47-.39.33-.42.33-.84.49-.84.39-.84.29-.81.2-.71.13-1,.1-.97.03-.35.06-.39.13-.23.03-.19-.03-.32-.17-.07-.13-.03-.13.07-.16.09-.13,3.85-3.17.13-.17.06-.13v-.16l-.1-.13-.36-.29-.55-.33-.52-.39-.39-.42-.19-.46-.1-.43-.03-.33-.1-.13-.19.06-.32.26-.26.26-.32.39-.74.98-1.32,2-.35.75-.16.72-.03.62.06.56.2.78.03.36-.06.39-.13.56-.06.69v1.77l.03,1.99-.1,2.19v.46l.03.29.06.17.13.03.22-.1.19-.2.39-.33.78-.65.39-.39.64-.62,1.75-1.74,3.17-3.11,1.49-1.44.55-.49.48-.33.42-.23.42-.26.39-.29.29-.3.45-.46.67-.59.78-.55.65-.43.71-.46.26-.27.03-.1.39-.39,1-.79.87-.59,1.29-.75,1.94-1.01,2.45-1.15,2.52-1.01,1.13-.39,1-.26.84-.13.68-.06h.58l.52.1.42.1.38.16.65.33.26.2.13.2v.23l-.1.23-.19.2-.26.23-.71.43-.84.36-.9.36-.84.26-.61.06-.26.06-.26.1-.55.39-1.06,1.05-.49.36-.39.17-.13-.04-.06-.03-.03-.07.06-.13.26-.26.26-.23.52-.46.36-.39.45-.39.55-.39.71-.75.19-.26.1-.2-.03-.13-.13-.07-.29.03-.42.06-1.2.3-.87.33-1.1.49-2.49,1.31-2.32,1.34-1.42.92-.94.72-1.17.98-2.45,1.96-1.33,1.05-1.52,1.31-3.1,2.75-1.13,1.08-.87.98-1.65,1.93-.48.46-.45.33-.42.23-.39.13-.71.1-.65.07-.52.1-.32.13-.1.1-.06.16v1.31l-.03,1.28-.23,2.62-.36,1.93-.22.72-.2.36-.13.09-.04.1v.3l-.06.2-.1.13-.36.39-.16.33-.1.26.07.19.06.07h.23l.06.1-.06.16-.13.2-.19.26-.17.43-.32,1.31-.26.89-.36.88-.39.75-.16.26-.13.1-.19.1-.06.1-.04.1.04.06v.13l-.2.23-.29.23-.42.29-.29.3-.06.13-.04.13.04.1.09.03h.19l.42-.13.1.04.03.06-.1.13-.16.06-.23.13-.26.16-.19.23-.03.23.06.13.1.07.36-.1.19-.13.13-.26.1-.13.13.03.03.16-.03.23-.2.2-.06.1-.03.17.13.42v.16l-.13.1-.16.07-.13.13-.1.17-.07.29-.16.33-.29.3-.97.56-.29.26v.1l.03.07.26.06.29-.03.23-.03.13.03.03.1-.06.07-.68.39-.13.16-.03.13.1.09.19.03h.13l.09.1.07.23-.07.29-.13.17-.2.13-.06.32-.1.13-.16.16-.58.33-.71.26-.71.2-.29.03h-.23l-.13-.06-.06-.06v-.1l.06-.13.32-.26.2-.13.16-.17.26-.39.29-.85.19-.32.26-.26.58-.36.13-.1.03-.1-.07-.13-.16-.06-.26.03-.19.06-.04-.03-.03-.03.23-.49.68-1.38.48-1.28.03-.42-.03-.16v-.27l.13-.72.22-1.01.26-1.05.29-.75.26-.52.13-.2.16-.16.1-.1-.06-.1-.13-.13-.1-.2-.03-.56.1-.23.13-.13.29-.1.07-.07v-.1l-.1-.33v-.56l.23-.65.13-.33.1-.46.26-1.57.26-.88.13-.39.13-.26.32-.23.06-.07.03-.13v-.33l-.07-.52.07-.59.32-2.39.42-2.58.29-1.77.13-1.57.03-.59.1-.69.23-1.11.07-.33v-.26l-.07-.69.03-.75.1-1.21.1-1.21v-.85l-.03-.23-.07-.16-.1-.06-.13-.07-.16.03-.16.03-.42.16-.36.1h-.29l-.13-.1v-.13l.1-.1.13-.1.2-.1.2-.17.26-.39.16-.26.36-.39.42-.39.22-.32.1-.33v-.36l.06-.98.03-.69.03-1.02-.06-.98-.1-.75-.1-.69.03-.88.52-5.89.45-3.11.48-2.49.07-.33-.03-.16-.1-.07-.13.07-.58.59-1.32,1.61-1.55,1.9-.65.72-.58.56-.94.98-.52.66-.58.88-.68,1.02-.36.46-.39.46-.48.43-.58.46-.68.42-.8.46-.88.39-.81.3-1.49.29-.65.07h-.58l-1-.07-.71-.13-.39-.2-.1-.1-.03-.1.07-.16.32-.23.48-.46.29-.23.32-.13.42-.07.61-.16,1-.39,1.32-.59.65-.36.61-.33.55-.36.38-.36.94-.98,1.26-1.34,2.07-2.26,2.52-2.98,1.58-2,1.13-1.51.78-1.18.71-1.31.65-1.18.52-.85.45-.49.29-.13.26-.1.49-.1.38-.03h0ZM281.26,115.47l-.1-.2-.16-.1-.19.1-.19.36-.16.75-.16,1.08-.1,1.15v.53l.06.42.2.52.1.13.13.03.13-.03.1-.1.09-.16.1-.2.13-.36.19-.26.23-.23.23-.2.19-.1.07-.16-.16-.69-.71-2.29h0ZM285.07,116.19l-.16.1-.03.1.06.03.29-.1.26-.2.42-.42.26-.2.07-.26-.03-.1h-.13l-.32.3-.68.75h0ZM286.66,114.72l-.06.13.03.06.16-.03.29-.2.26-.26.1-.23.03-.09h-.1l-.19.06-.26.16-.26.39h0ZM288.76,114.78v-.16l-.16-.07-.29.07-.35.2-.45.39-.55.62-.61.72-.61.75-.23.36-.13.26-.03.23.03.23.26.42.36.65.42.79.45.69.45.46.19.1h.19l.42-.2.42-.29.2-.16.16-.16.26-.43.26-.49-.03-.2-.13-.29-.19-.42-.1-.49-.19-1.15-.1-.66-.03-.72.03-.62.1-.43h0ZM290.05,111.45l-.06.33.03.13.1.03.19-.06.29-.23.87-.75,1.29-.92,1.2-.82.29-.26v-.07h-.06l-.36.1-.61.26-.87.52-1.04.72-1.26,1.01h0ZM290.96,112.07l-.06.16.03.23.03.26.09.26.23.56.23.39.39.62.13.36v.26l-.19.36v.13l.09.1.1.06.1.1.1.36v.49l-.03.29-.13.33-.19.56-.07.36.04.1.09.03.33-.06.48-.2.58-.33.58-.39.52-.42.39-.33.36-.16.39-.06.42-.1.71-.23.23-.2.13-.36.16-.88.13-.39.16-.26.39-.33.19-.23.17-.33.13-.39v-.33l-.03-.26-.13-.29-.1-.29v-.36l.1-.69.13-.46.1-.46.06-.59-.06-.23-.19-.16-.45-.03h-.39l-.42.06-1.1.26-1.32.46-.68.36-.65.36-1.1.79-.45.36-.32.36-.39.43h0ZM285.72,132.17v.07l.13-.07.48-.26.16-.16.04-.13-.1-.03-.22.07-.33.26-.16.26h0ZM296.94,122.67l-.03.1h.13l.29-.13.32-.23.29-.26.13-.2v-.06h-.03l-.29.06-.33.2-.19.2-.29.33h0ZM286.53,136.88l-.26.2v.23l.26.2.55.16.58.2.42.26.39.33.48.56.32.29.36.3.78.42.81.3.81.06.71-.03.45-.07.29-.13.13-.17.19-.33.16-.2.26-.23.1-.13.04-.16-.2-.36-.19-.16-.22-.16-.48-.16-.49-.13-.39-.2-.58-.39-.19-.13-.16-.1-.22-.03h-.52l-.26-.07-.65-.26-.65-.3-.61-.2-.29-.07-.29.03-.55.13-.87.49h0ZM292.77,131.94h-.29l-.32.1-.16.07-.1.1-.06.13.03.17.23.36.29.39.78.92.65.65.19.26.23.33.2.42.22.36.39.26.29.07.39.03.84-.07.74-.1.61-.2.45-.17.29-.06.13.1v.26l-.07.39-.13.43-.2.36-.61.69-.26.36-.13.32v.17l.03.13.16.2.2.17.13.13.07.2-.1.36-.39,1.57-.2.95-.19.72-.22.46-.1.16-.16.13-.94.53-.97.62-1.42.98-1.42,1.02-.97.76-.78.72-.36.33-.06.06-.03.06.06.13.13.13.09.2.1.2.19.23.29.13h.19l.2-.06.39-.1.36-.03.55.1.39.1.2-.13.32-.39.42-.56.45-.49.52-.43.55-.33.42-.16h.13l.06.03-.03.23-.16.36-1.81,3.83-.1.26v.32l-.03.17-.13.2-.2.16-.16.16-.1.2-.23.82-.06.23-.1.2-.16.16-.16.2-.36.39-.13.2-.13.23-.13.26-.2.2-.26.16-.32.2-.36.26-.19.23-.23.62v.2l.07.2.13.16.16.1.26.1h.29l.32-.03.42-.16.68-.29.52-.36.26-.23.26-.3.61-.91.71-1.28.71-1.38.87-1.87.13-.16.1-.13.26-.16.29-.03.35.1.71.2h.36l.42-.1.84-.13,1.07-.13.42-.1.55-.17,1.26-.62.68-.43.64-.52.32-.3.26-.33.52-.69.77-1.44.52-1.24.61-1.7.19-.46.26-.36.2-.16.26-.17.75-.32,3.65-1.11,3.36-1.01,2.65-.79,1.58-.36.58-.1.42.04.74.23.23.07.32-.07.65-.23h.22l.13.06.1.1.19.1.32.1.91.06h1l.84-.1,1.07-.13.32.03.29.13.19.16.23.1h.84l.77-.07.87.04.81.13.55.16.26.1.17-.03.03-.2-.03-.26-.1-.59-.03-.29.09-.33v-.36l-.03-.2-.13-.23-.13-.2-.23-.13-.26-.13-.29-.06-2.39-.07h-1.39l-1.03-.06-1.17-.1h-1.55l-3.29.36-2.26.36-2,.39-3.53.88-2.74.76-.91.23-.77.1-.45-.03-.06-.1.1-.16.23-.39.06-.2v-.16l-.03-.13-.1-.1-.09-.07-.16.03-.26.04-.03-.04-.03-.07.1-.2.26-.19.13-.1.06-.1-.03-.13-.1-.13v-.1l.07-.1-.03-.13-.13-.07-.16-.03h-.13l-.03-.13.03-.16.13-.17.06-.16-.03-.16-.1-.1-.1-.03-.03-.1.07-.23.16-.36.26-.36.26-.42.23-.53.13-.59.1-.49.1-.72.16-.52v-.17l-.03-.2-.1-.2-.19-.16-.26-.13-.32-.1-.42-.03-.55.1-.55.16-.58.26-1.1.63-1.07.75-1,.78-1.36,1.18-.87.82-.39.26-.16.07h-.1l-.03-.1-.04-.13.1-.49.16-.88.16-1.18.13-1.18.13-.95.06-.49.06-.69.13-1.6.04-1.67-.07-1.24-.06-.39-.13-.32-.13-.26-.13-.23-.16-.16-.16-.1-.32-.13-.29-.1-.32.04-.13.06-.06.13v.46l.13.72.06.92-.03,1.18-.1,1.5-.09.95-.2.85-.16,1.14.07.26.06.13v.1l-.03.1-.16.17-.1.2-.03.36.03.82.07.29-.03.26-.07.1-.13.07h-.19l-.32-.07-.94-.33-1.29-.62-2.14-1.08-.77-.39-.42-.16h0ZM300.17,138.68h-.29l-.45.03-.29.07-.16.1-.06.17-.1.23-.03.49-.03.82-.03,1.83v.36l.07.26.06.13.13.06h.35l.45-.1.87-.26,1.32-.43,1.36-.46.94-.36.48-.26.23-.13.16-.2.22-.46.07-.33.03-.43.1-1.14.2-1.41.39-2.23v-.42l-.06-.1-.07-.06h-.13l-.13.06-.29.16-1.62,1.38-2.04,1.9-.33.29-.29.23-.49.2-.32.03-.23-.03h0ZM302.27,144.51l-.45.2-.68.29-1.71.69-1.13.53-.26.2-.16.2-.2.52-.29.92-.55,1.77-.2.69.03.1.07.07.23.13.32.06h.29l.81-.23.84-.23.26-.1.19-.1.32-.16h.45l.16-.04.61-.32.26-.17.29-.26.65-.59.29-.33.23-.29.32-.49.16-.43.23-.29.16-.3-.03-.07h-.29l-.03-.1.1-.16.32-.43.16-.36.09-.26.07-.07.09-.06.2-.13.2-.16.09-.13v-.03h-.03l-.19-.07v-.07l.06-.13.1-.2v-.23l-.03-.1-.07-.03-.26-.03-1.04.36-1.07.43h0ZM125.67,204.62l.91-1.34.32-.52.32-.59.48-1.18,1.13-3.4.68-1.83.58-1.28.29-.42.39-.43.42-.39.45-.33.52-.29.52-.2.55-.06h.29l.26.06.87.26.49.29.26.3.23.29.45.56.09.13.13.06.1.06.13-.03.13.03.13.07.23.26.36.98.13.42.13.66.26,1.77.26,2,.09.91.03.79.09.82.13,1.05.45,2.39.48,2.26.39,1.57.48,1.77.22.65.23.43.26.16.13-.03.1-.1.22-.43.23-.69.32-1.11.52-1.41.48-1.27.22-.46.2-.26.45-.39.06-.2v-.56l.16-.16.1-.16.03-.13.06-.39.07-.23.19-.26.45-.65.91-1.51.97-1.83.32-.59.36-.39.26-.26.19-.13.35-.36.36-.42.42-.29.58-.16.45-.07.36-.16.48-.2.87-.29.48-.13.52-.06.48.03.45.1.39.2.39.26.64.69.29.36.23.36.16.36.1.32.13.56.13.39.1.1h.09l.1-.06.16-.2.42-.66.68-.88.48-.46.55-.46.32-.2.35-.2.81-.32.55-.16h.48l.48.06.22.1.2.1.39.33.36.42.35.52.29.66.07.23.03.23.03.56-.09.55-.1.59-.29.98-.22.59-1.04,2.29-1.23,2.75-.58,1.22-.23.52-.1.56-.06.56-.1.3-.16.29-.48.69-.74.75-.68.69-.39.39-.2.29-.19.33-.26.49-.39.39-.23.2-.1.07.03-.42.03-.43.1-.42.26-.75.29-.66.2-.29.19-.23.16-.13.06-.13v-.13l-.06-.16-.07-.2v-.17l.1-.29-.03-.16-.16-.13-.29-.03-.39.23-.29.16-.32.2-.42.16-.42.13-.45.1-.49.03-.45-.03-.42-.13-.45-.23-.42-.32-.45-.39-.39-.46-.32-.49-.26-.49-.16-.49-.06-.42-.04-.98-.13-1.15-.29-1.28-.23-.69-.13-.33-.17-.33-.55-1.15-.45-.75-.19-.2-.16-.06-.16.03-.1.1-.1.1-.58.95-.91,1.63-.97,1.93-.45.98-.35.95-.61,1.87-.55,1.93-.45,1.84-.39,1.57-.29,1.41-.19,1.24-.13,1.05-.03.66.03.2.06.1.1.06h.09l.26-.19.32-.43.65-.85.55-.56.65-.65,1.52-1.25.84-.55.81-.46.81-.36.74-.23.68-.13.61-.03.55.06.52.1.48.2.42.23.39.29.32.3.29.36.23.36.32.79.1.43.03.39v1.15l.03.16.07.1.16.03.26-.03.42-.1.65-.26,1.65-.79,2.78-1.41,1.39-.69,2.36-1.02,2.39-.98.97-.32.68-.16,1.1-.03,1.33.1.61.1.55.16.23.13.23.1.26.33.26.56.07.23v.2l-.03.33-.1.39-.16.69-.03.3v.43l-.1.26-.52.62-.61.52-.23.26-.19.36-.19.36-.19.16-.48.29-.32.23-.33.3-.26.32-.16.46-.16,1.15-.1.59-.16.49-.13.2-.09.13-.23.16-.39.1-.2.1-.19.26-.16.33-.06.33.03.2.06.07.07-.07.13-.1.06-.06.03.1-.09.66-.16,1.08-.2.91-.1.26-.13.2-.16.2-.1.23v.29l.16.29.48.56.1.13.13.06.26.04.26-.1.13-.06.1-.1.23-.2.23-.16.32-.1.42-.03,1.91.03,1.68.03.13.06.1.07.13.2.06.26v.23l.03.1.03.1.16.13.48.16.26.1.19.17.13.33v.23l-.03.29-.19,1.93-.16,1.74-.03.26.03.16.09.13.13.07.13.03.2-.03.42-.23,1.04-.91.32-.23.36-.2.42-.13.45-.07,1.04.04,1.13.1,1,.16.39.1.29.13.19.16.16.2.1.26.1.26.06.59v.56l-.03.23-.07.26-.29.49-.36.46-.39.32-.78.49-.35.26-.32.26-.29.36-.32.39-.26.39-.16.39v.2l.09.23.36.52.97,1.08,3.78,4.65.58.72.48.79.32.75.06.36-.03.36-.1.33-.23.33-.26.33-.36.29-.35.29-.39.26-.71.39-.94.46-1.33.52-1.42.49-1.23.32-.94.1-.81.07-.35.03-.32.04-.26.1-.19.13-.35.26-.16.06h-.1l-.09-.03-.04-.09v-.13l.07-.2.13-.36v-.1l-.03-.1-.23-.04-.48.07-1.26.33-.55.13-.35.03-.1-.03-.03-.03.1-.13.23-.13.32-.1,1.62-.39,1.65-.52.35-.07.26.04.1.1-.04.13-.03.1v.1l.13.13.07.07h.06l.06-.03.03-.1.1-.26.07-.13.13-.13.29-.23.42-.13.52-.13.61-.26.74-.46.97-.66.94-.72.32-.33.23-.29.09-.33v-.29l-.13-.3-.26-.33-1-1.05-1.35-1.5-2.07-2.39-.29-.39-.23-.2h-.1l-.16.07-.49.39-.39.29-.52.39-1.26.82-.68.33-.64.29-.58.17h-.48l-.74-.23-.29-.2-.23-.2-.16-.23-.09-.26v-.59l.06-1.18.03-1.93v-3.11l-.06-.56-.1-.39-.06-.1-.1-.03-.13.1-.13.16-.35.79-.45,1.11-.64,1.9-.1.43-.13.29-.29.42-.2.26-.09.39-.23,1.08-.68,2.82-.45,1.9-.32,1.51-.23,1.14-.13.95-.1,1.28.03.39.04.03.03.04.03.1-.06.1-.16.13-.39.1-.42.06-.33.1-.58.33-.26.06-.06-.03-.07-.06v-.3l.03-.46.07-.53v-.59l-.07-1.5.07-1.7.1-1.31.16-1.47.36-2.94.23-1.28.23-.98,1.32-4.71.71-2.29.42-1.27.1-.23.06-.2v-.33l-.13-.23-.23-.26-.26-.26-.29-.1-.23.1-.13.17-.06.23-.45,1.44-.29.76-.26.49-.52.52-.19.29-.06.39-.04.43-.13.49-.52,1.28-.87,1.74-.39.62-.16.13-.1-.03-.19-.16h-.16l-.16.1-.19.2-.16.1-.23.06-.68.03-.87-.03-.93-.03-.81-.03-.55-.16-.23-.13-.22-.2-.39-.46-.29-.49-.04-.16v-.17l.07-.33.1-.36.13-1.34.13-1.05.13-.39.03-.26v-.29l-.06-.65.03-.62-.1-.88-.09-.43-.1-.13-.06-.07-.13-.03-.07-.06.1-.23.13-.13.09-.2.04-.2-.1-.23-.1-.26-.03-.29.07-.3.1-.33.39-.43.13-.16.03-.13-.07-.1-.13-.07-.13.03-.16.1-.1.03-.06-.07-.07-.46-.03-.42.03-.1.07-.07.06-.03-.06-.1-.1-.13-.16-.07-.13-.07-.06-.13.03-.16.1-.17.13-.23-.03-.09-.06-.04-.1-.06v-.1l.16-.23.1-.16.03-.13-.06-.1-.13-.1-.1-.13-.06-.13.03-.16.13-.13.16-.26.1-.46.1-.33.1-.26.06-.07h.03v.2l.03.52.07.36.06.1.13-.06.1-.2.03-.29v-.26l.06-.17.1.03.03.26.13,1.21.06.65v.49l-.06.29-.07.09-.23.04h-.16l-.06.07.03.29.03.13.13.03.19-.17.1-.06.06.03.03.39.1.82.03.49v.49l-.03.75.06.32.07.43.23,1.37.13,1.34.1.49.16.42.1.16.13.07h.13l.16-.13.58-.85.16-.46.03-.2v-.49l.1-.36.22-.72.16-.36.16-.39.45-.75.29-.43.03-.39.35-1.08.45-1.21.16-.3.07-.23v-.1l-.07-.13-.26-.36-.81-.75-1.36-1.11-1.36-1.05-.84-.56-.29-.1-.16.03-.1.33-.06.13-.1-.07-.09-.2-.07-.33-.03-.56-.1-.2-.23-.13-.23-.1-.13-.1-.03-.07.06-.03.03-.07-.09-.06-.39-.1-.35-.2-.13-.13-.13-.13-.2-.1-.23.03-.23.13-.23.2-.13.26-.03.13.16.13.07.03-.03.13-.13.46-.97,4.19-.1.2-.03-.03-.16-.26-.13-.03-.22.06-.2.17-.19.26-.26.49-.06.2.03.23.07.2.06.06h.06l.16-.1.13-.13.13-.2.45-.69.1-.03v.23l-.1.36-.1.23-.26.56-.52,1.31-.23.75-.13.62-.06.36-.13.2-.13.03-.13-.07-.13-.07-.19.1-.58.56-.65.65-.26.36-.23.39-.19.39-.16.26-.32.39-.13.3-.16.49-.32,1.21-.19.52-.16.29-.2.23-.52.49-.32.23-.42.2-.68.26-.39.1-.39.1-.16.07-.19-.03-.19-.1-.17-.16-.13-.13-.16-.07-.26.07h-.1v-.29l-.06-.13-.16-.03-.19.13-.23.23-.16.36-.06.46-.07.49-.06.42-.13.79-.09.75-.23,1.21-.13.62-.16.39-.16.16-.03.16.03.36-.13.39-.13.3-.23.33-.26.29-.29.33-.36.26-.39.2-.39.09-.32.07-.52-.07-.39-.09h-.32l-.39.13-.39.26-.23.1-.13-.03-.09-.1-.1-.17-.07-.23v-.65l.23-1.34.35-1.5.16-1.05.1-1.05.03-1.47.03-.26.07-.2.16-.36.1-.49.03-.29v-.33l.2-1.7.19-2.06.06-.95v-.36l-.06-.26-.03-.2.03-.13.19-.2.07-.16-.04-.23-.06-.23-.13-.1-.06-.26-.03-.59v-1.61l-.07-1.21-.16-1.9-.26-2.23-.36-2.22-.58-3.11-.45-1.8-.39-1.28-.48-1.83-.42-1.74-.16-.65-.06-.39.03-.36.06-.2.04-.16-.16-.2-.23-.23-.13-.16-.06-.2v-.53l-.06-.23-.36-.43-.22-.2-.26-.06-.61.06h-.94l-1.61-.06-1.65-.13-1.1-.17-.29-.16-.32-.23-.33-.33-.29-.33-.26-.36-.16-.39-.04-.36.07-.33.26-.52.26-.36.55-.59.64-.62h0ZM156.02,216.8v-.07l-.06-.03-.1.03-.06.1-.1.39.03.1.1-.03.16-.3.03-.2h0ZM155.67,217.75l-.03-.1-.1.07-.1.17-.03.2.03.07.1-.03.1-.17.03-.2h0ZM147.17,218.57l-.26.17-1.01.72-.84.79-.94,1.05-.94,1.15-.39.59-.32.56-.13.33-.13.39-.2.95-.16,1.11-.1,1.24-.06,1.31.03,1.24.06,1.12.13.95.19.79.23.72.26.62.26.49.29.43.29.26.32.16.32.07.29-.1.26-.13.23-.2.19-.26.26-.59.16-.62.52-2.39.26-.95.19-.59.26-.43.16-.29.1-.39.87-4.35.55-2.91.29-1.8v-.66l-.03-.2-.06-.16-.2-.23-.19-.23-.13-.07-.16-.03-.36.13-.39.26h0ZM158.22,220.99l-.36.26-.13.13-.06.13v.2l.1.19.48.59.78.76,1.3,1.27.78.69.39.3.36.13.26-.04.19-.16.16-.36.2-.59.39-1.34.29-1.08.06-.59v-.62l.07-.49.16-.53.22-.52.29-.52.19-.46.07-.2-.03-.2-.07-.1-.13-.1h-.19l-.26.1-.9.43-1.29.68-2.23,1.31-.81.59-.26.13h0ZM688.05,311.36c0,5.63-4.53,10.21-10.09,10.21s-10.11-4.58-10.11-10.21,4.53-10.21,10.11-10.21,10.09,4.58,10.09,10.21h0ZM133.98,311.36c0,5.63-4.52,10.21-10.09,10.21s-10.11-4.58-10.11-10.21,4.53-10.21,10.11-10.21,10.09,4.58,10.09,10.21h0ZM282.98,317.9h-70.33v-7.79h-4.43v-7.56h-18.19v7.56h-4.46v7.79h-2.33v12.9h2.33v122.45h-3.52v8.19h-16.52c-4.99-19.36-7.65-39.64-7.65-60.52,0-133.87,109.18-243.03,243.05-243.03s243.05,109.16,243.05,243.03c0,20.88-2.66,41.16-7.65,60.52h-19.3v-8.19h-3.56v-122.45h2.33v-12.9h-2.33v-7.79h-4.43v-7.56h-18.19v7.56h-4.46v7.79h-70.33v-44.58h-3.23v-9.82h-28.31v9.82h-3.23v18.4h-28.05v-22.48h-10.08v3.66h-87.23v-3.66h-10.12v22.48h-28.02v-18.4h-3.23v-9.82h-28.31v9.82h-3.23v44.58h0ZM526.12,344.28l-.65.07-.61.2-.29.13-.26.17-.26.19-.23.2-.39.49-.29.56-.13.29-.07.33-.06.66v2.23l.06.69.2.59.13.3.16.26.2.26.19.23.48.39.55.29.29.13.32.06.65.07h49.64l.68-.07.58-.2.29-.13.26-.17.26-.19.23-.2.39-.49.32-.56.1-.29.06-.29.07-.69v-2.23l-.07-.66-.16-.62-.16-.29-.16-.27-.16-.26-.23-.23-.48-.39-.55-.29-.29-.13-.29-.06-.68-.07h-49.64ZM518.95,332.93l-.33.03-.32.1-.26.16-.23.2-.22.23-.13.3-.1.29-.03.33v1.64l.03.33.1.3.13.29.22.23.23.2.26.16.32.1.33.04h11.5l.32-.04.29-.1.29-.16.23-.2.2-.23.16-.29.1-.3.04-.33v-1.64l-.04-.33-.1-.29-.16-.3-.2-.23-.23-.2-.29-.16-.29-.1-.32-.03h-11.5ZM571.44,332.93l-.33.03-.29.1-.29.16-.23.2-.19.23-.16.3-.1.29-.03.33v1.64l.03.33.1.3.16.29.19.23.23.2.29.16.29.1.33.04h11.5l.33-.04.32-.1.26-.16.26-.2.19-.23.13-.29.1-.3.04-.33v-1.64l-.04-.33-.1-.29-.13-.3-.19-.23-.26-.2-.26-.16-.32-.1-.33-.03h-11.5ZM571.15,357.97h-40.37v4.32h-8.47v2.58h-4.46l-.39.33-.61.62-.64.79-.16.25v84.35h7.27v10.22h59.54v-8.19h3.52v-85.58l-.06-.14-.29-.46-.32-.46-.65-.79-.61-.62-.39-.33h-4.43v-2.58h-8.47v-4.32h0ZM317.76,451.22h7.27v10.22h148.97v-10.22h7.27v-96.49h-16.13v-3.67h-19.39v-4.51h-92.44v4.51h-19.39v3.67h-16.16v96.49h0ZM453.21,339.18h28.05v-13.91h-28.05v13.91h0ZM317.76,325.27v13.91h28.02v-13.91h-28.02ZM227.87,357.97v4.32h-8.44v2.58h-4.49l-.39.33-.61.62-.65.79-.29.46-.29.46-.06.14v85.58h3.55v8.19h59.54v-10.22h7.24v-84.33l-.19-.27-.61-.79-.65-.62-.37-.33h-4.45v-2.58h-8.47v-4.32h-40.37ZM272.89,344.28h-49.68l-.64.07-.33.06-.29.13-.55.29-.48.39-.2.23-.2.26-.16.27-.13.29-.19.62-.06.66v2.23l.06.69.07.29.13.29.29.56.39.49.22.2.26.19.26.17.29.13.61.2.64.07h49.68l.65-.07.29-.06.32-.13.55-.29.45-.39.23-.23.2-.26.16-.26.13-.3.2-.59.06-.69v-2.23l-.06-.66-.1-.33-.1-.29-.29-.56-.42-.49-.23-.2-.23-.19-.29-.17-.26-.13-.61-.2-.65-.07h0ZM280.04,332.93h-11.51l-.32.03-.29.1-.29.16-.23.2-.19.23-.16.3-.1.29-.03.33v1.64l.03.33.1.3.16.29.19.23.23.2.29.16.29.1.32.04h11.51l.36-.04.29-.1.26-.16.26-.2.2-.23.16-.29.06-.3.03-.33v-1.64l-.03-.33-.06-.29-.16-.3-.2-.23-.26-.2-.26-.16-.29-.1-.36-.03h0ZM227.55,332.93h-11.5l-.33.03-.29.1-.29.16-.23.2-.19.23-.16.3-.1.29-.03.33v1.64l.03.33.1.3.16.29.19.23.23.2.29.16.29.1.33.04h11.5l.33-.04.32-.1.26-.16.26-.2.2-.23.13-.29.09-.3.03-.33v-1.64l-.03-.33-.09-.29-.13-.3-.2-.23-.26-.2-.26-.16-.32-.1-.33-.03h0ZM257.99,332.93h-19.88l-.55.03-.55.1-.45.16-.42.2-.36.23-.26.3-.16.29-.03.33v1.64l.03.33.16.3.26.29.36.23.42.2.45.16.55.1.55.04h19.88l.55-.04.52-.1.48-.16.42-.2.32-.23.26-.29.16-.3.07-.33v-1.64l-.07-.33-.16-.29-.26-.3-.32-.23-.42-.2-.48-.16-.52-.1-.55-.03h0ZM355.47,279.45v27h88.04v-27h-88.04ZM387.79,324.45v13.09h23.43v-13.09h-23.43ZM380.33,313.39v5.34h38.36v-5.34h-38.36ZM431.2,313.39v5.73h14.93v-5.73h-14.93ZM352.85,313.39v5.34h16.97v-5.34h-16.97ZM431.59,337.55l10.34-6.55-10.15-6.54-.19,13.09h0ZM367.43,337.55l-.23-13.09-10.15,6.54,10.38,6.55h0ZM373.67,324.45v13.09h7.47v-13.09h-7.47ZM417.88,324.45v13.09h7.46v-13.09h-7.46ZM339.54,299.51v13.88h5.23v-13.88h-5.23ZM330.84,299.51v13.88h5.27v-13.88h-5.27ZM322.15,299.51v13.88h5.27v-13.88h-5.27ZM471.57,299.51v13.88h5.27v-13.88h-5.27ZM462.91,299.51v13.88h5.23v-13.88h-5.23ZM454.21,299.51v13.88h5.27v-13.88h-5.27ZM541.02,332.93l-.58.03-.52.1-.45.16-.42.2-.35.23-.26.3-.16.29-.06.33v1.64l.06.33.16.3.26.29.35.23.42.2.45.16.52.1.58.04h19.84l.58-.04.52-.1.48-.16.39-.2.36-.23.26-.29.16-.3.07-.33v-1.64l-.07-.33-.16-.29-.26-.3-.36-.23-.39-.2-.48-.16-.52-.1-.58-.03h-19.84ZM625.29,494.2c-3.04,7.26-6.42,14.35-10.13,21.24H186.67c-3.71-6.89-7.09-13.98-10.13-21.24h448.75ZM602.84,535.89c-4.75,7.08-9.86,13.9-15.32,20.43H214.31c-5.45-6.53-10.57-13.34-15.31-20.43h403.84ZM577.3,567.81c-44.34,46.84-107.05,76.13-176.39,76.13s-132.04-29.29-176.38-76.13h352.77ZM462.87,614.33c0-6.8-1.57-10.25-4.71-10.35-3.27.1-4.85,3.55-4.71,10.35-.14,6.71,1.43,10.11,4.71,10.21,3.14-.1,4.71-3.5,4.71-10.21h0ZM407.85,600.58v4.48h16.18l-11.67,22.88h7.77l11.26-22.26v-5.1h-23.54ZM377.6,608.92c0,3.1,1.71,4.64,5.12,4.64,2.87,0,4.43-1.54,4.71-4.64-.28-3.19-1.84-4.84-4.71-4.95-3.41.1-5.12,1.75-5.12,4.95h0ZM370.03,621.14c0,4.73,4.02,7.11,12.08,7.11,9.42.1,13.86-5.26,13.32-16.08,0-8.14-4.37-12.21-13.11-12.21-8.2.51-12.49,3.61-12.91,9.27.68,5.15,4.3,7.93,10.85,8.35,2.74.1,5.12-.47,7.17-1.7.41,5.78-1.43,8.65-5.53,8.65-2.05,0-3.34-1.13-3.89-3.39h-7.99ZM335.68,610.01c3-.92,5.86-2.11,8.6-3.55v21.49h7.98v-27.36h-7.37c-2.87,1.65-5.93,2.99-9.21,4.02v5.41h0ZM471.06,614.33c-.28-9.37-4.64-14.17-13.1-14.37-8.2.2-12.35,5-12.49,14.37.14,9.07,4.3,13.72,12.49,13.92,8.46-.2,12.83-4.85,13.1-13.92h0ZM370.64,292.56l-.02.51v.56s.02.02.02.02l.03.04h.01s.03.03.03.03h.09l.04-.03.04-.04.07-.02.04-.06.06-.04.08-.05.09-.05.11-.04.22-.11.21-.08.1-.04.08-.06.08-.07.03-.03.03-.04.02-.04v-.08s-.04-.02-.04-.02l-.04-.02h-.04s-.2-.04-.2-.04l-.19-.04-.17-.05-.16-.04-.09-.02h-.1s-.09-.02-.09-.02l-.09-.02h-.23ZM367.02,292.64l.16-.14.36-.29.1-.08.12-.07.12-.06.14-.07.28-.11.21-.08.11-.06.1-.07.12-.08.15-.1.26-.23.26-.21.06-.05.04-.04.06-.09.02-.04v-.08l-.02-.03-.02-.04h-.03s-.04-.05-.04-.05h-.05s-.06-.04-.06-.04h-.06s-.14-.05-.14-.05l-.16-.03h-.33l-.16.03h-.15s-.13.04-.13.04l-.15.02-.12.04-.06.03-.08.03-.15.09-.14.11-.17.12-.16.12-.13.13-.12.09-.06.08-.16.17-.14.18-.1.16-.08.16-.08.15-.04.12-.03.09v.07s0,.07,0,.07v.07s.03.01.03.01v.03s.04.01.04.01v.02s.04,0,.04,0h.02l.06.02h.17l.07-.02.09-.04.11-.03h0ZM369.65,284.72l-.28.17-.08.04-.08.04-.17.06-.17.04-.09.02h-.08l-.16.02h-.27l-.1-.02h-.14l-.04.02h-.04s-.02.02-.02.02l-.07.04-.07.07-.04.05v.07s-.04.04-.04.04h0s-.01.17-.01.17v.07s.01.05.01.05l.03.12.03.12.04.09.05.09.05.08.07.08.06.05.06.06.12.09.18.09.04.03.03.03h0s.04.05.04.05l.03.04v.05s.01.04.01.04v.12s0,.05,0,.05l-.03.06-.04.13-.04.05-.02.07-.08.12-.24.41-.35.56-.51.84-.16.28-.18.25-.08.12-.1.12-.17.24-.38.43-.18.2-.18.2-.33.3-.3.27-.22.18-.14.13-.27.2-.23.19-.19.17-.13.14-.15.12-.17.14-.36.29-.08.06-.06.06-.06.07-.02.05-.04.06-.02.06v.04l.02.04.04.07.05.06.05.06.04.02.04.03.08.03.07.02.07.03h.06s.06,0,.06,0l.05.02h.06l.05-.02h.12s.09-.04.09-.04l.08-.02.08-.04.17-.11.27-.2.25-.19.11-.08.08-.08.02-.03.04-.03.05-.02.04-.02h.04l.02.02.03.02.02.03v.03l.02.04v.02s.05.06.05.06l.06.06.04.04.11.08.09.08.08.04.08.04.08.03h.12s.04,0,.04,0l.16-.07.15-.04.09-.06.1-.04.1-.1.07-.04.05-.02.07-.03.05-.02.08-.02h.12s.12,0,.12,0h.1s.1.03.1.03h.17l.06-.02.11-.04.09-.04.11-.05.14-.12.1-.08.49-.33.38-.25.27-.16.13-.1.05-.05.06-.02.04-.02h.08l.03.02h.03s0,.04,0,.04l.04.05.02.06.02.07.02.68.02.55v.41l-.02.07v.1s-.02.04-.02.04l-.02.04-.02.03-.04.04h-.03s-.02.03-.02.03h-.06s-.05.02-.05.02l-.07.03-.14.05-.06.05-.08.04-.19.12-.24.19-.13.09-.09.06-.08.04-.07.02h-.11l-.14-.03h-.04s-.03-.03-.03-.03h0s-.01-.01-.01-.01l-.02-.03h0v-.07l.03-.04.03-.04.02-.04h.03s.24-.25.24-.25l.16-.17.14-.19.07-.08.08-.09.17-.2.08-.09.07-.1.07-.1.06-.1v-.04s0-.03,0-.03h0s-.02-.03-.02-.03h-.02l-.02.02-.07.04-.07.05-.08.07-.09.1-.15.16-.12.15-.28.27-.26.28-.27.24-.22.2-.2.17-.26.21-.04.05-.03.03-.04.08-.04.09v.08s-.04.08-.04.08v.07l.02.06.02.07.06.08.06.08.04.08.06.06.06.07.06.05.1.08.12.06.09.04.09.03.08.02h.09l.1-.02.09-.03.09-.02.1-.04.08-.04.08-.06.09-.05.12-.07.29-.17.51-.24.06-.02h.04l.06-.02.04.02h.04l.02.02.02.03.02.04-.02.04v.02l-.02.04-.03.04-.04.04-.09.07-.06.04-.32.17-.31.17-.57.35-.5.35-.45.31-.37.29-.29.25-.22.18-.15.12-.12.12-.12.1-.12.13-.08.12-.04.04-.02.07-.04.04v.05s-.03.04-.03.04v.04l.03.04v.03s.08.1.08.1l.04.03.04.03.04.02.04.03h.1l.04-.03.09-.02.03-.02h.03s.05-.08.05-.08l.15-.13.06-.07.1-.09.22-.2.31-.26.21-.17.24-.16.28-.18.26-.17.55-.31.4-.25.06-.04.06-.03.06-.02h.04l.03.02.02.03v.02s.02.04.02.04v.14l-.02.08-.34.33-.28.26-.15.12-.1.08-.08.07-.07.06-.04.07v.05s-.03.07-.03.07v.07l.03.05.03.07v.02s.05.03.05.03l.07.07.08.05.1.05.12.07.15.04h.14s.08.04.08.04h.08s.14.02.14.02l.1.03.06.03h.03s.03.04.03.04h.01v.17s-.03.08-.03.08l-.02.12-.02.13-.02.15-.02.18-.02.34-.02.29v.11s-.04.09-.04.09l-.02.04-.02.04-.03.03-.03.04h-.05s-.04.02-.04.02l-.04.02h-.2l-.14-.04-.27-.08-.22-.07-.19-.08-.17-.09-.13-.08-.12-.06-.15-.15-.06-.05-.08-.04-.05-.03h-.06s-.05-.01-.05-.01h0s-.02.01-.02.01l-.02.02v.02s0,.08,0,.08v.04s.02.04.02.04l.02.06.02.04.08.09.08.12.11.09.14.12.14.09.14.1.16.1.2.07.2.09.21.08.24.06.21.06.21.04h.09s.1.03.1.03h.09l.03-.02h.04l.06-.04.06-.04.04-.06.04-.07v-.04s.02-.04.02-.04l.02-.08.02-.08.02-.1v-.18s.02-.37.02-.37l.02-.16v-.19s.04-.38.04-.38l.06-.62.02-.09v-.04s.02-.03.02-.03l.03-.03h.03s.02-.05.02-.05h.03s.08-.04.08-.04h.09s.11,0,.11,0h.1s.12.04.12.04h.11s.12.01.12.01h.09s.11-.02.11-.02l.09-.03.09-.04.08-.04.03-.04h.04s.05-.1.05-.1v-.06s.04-.05.04-.05l.02-.05v-.07l.02-.05-.02-.07v-.07l-.02-.05v-.07s-.03-.06-.03-.06l-.02-.07-.04-.05-.04-.08-.04-.05-.05-.04-.04-.06-.12-.09-.05-.02-.05-.03-.12-.04-.13-.04h-.12s-.12,0-.12,0h-.08l-.02-.02h-.01v-.02s-.03-.04-.03-.04l.02-.04v-.04s.02-.04.02-.04l.06-.09.08-.08.08-.08.04-.03.04-.03.08-.06.08-.07.06-.08.07-.08.03-.05.02-.05.04-.12v-.07s.02-.06.02-.06v-.19l-.02-.02v-.08s-.05-.04-.05-.04l-.04-.07-.04-.05-.06-.05-.07-.04-.08-.04-.06-.04-.07-.04-.14-.05-.24-.11h-.04s-.04-.04-.04-.04h-.03s0-.05,0-.05l-.03-.03v-.04s0-.05,0-.05l.03-.07v-.07s.09-.12.09-.12l.07-.05.08-.07.09-.06.12-.08.13-.08.17-.07.32-.13.12-.05.12-.04.22-.07.2-.04.2-.02.19-.03h.16s.16-.03.16-.03h.14s.08-.02.08-.02l.08-.03.07-.03.07-.04h.06s.06-.06.06-.06l.04-.07.04-.04.04-.05.03-.05.02-.06v-.06s.02-.07.02-.07v-.14s-.02-.06-.02-.06l-.03-.08-.04-.07-.04-.07-.05-.07-.12-.1-.05-.06-.07-.05-.08-.04-.08-.04-.13-.08-.11-.04-.05-.02h-.05l-.15-.02-.08-.03h-.09s-.08-.04-.08-.04l-.09-.04-.12-.05-.13-.09-.08-.04-.08-.04-.19-.08-.22-.08-.21-.08-.4-.12-.26-.07-.07-.02-.05-.04-.03-.06v-.14s.03-.04.03-.04v-.04s.08-.09.08-.09l.06-.12.05-.15.03-.04v-.05s.03-.12.03-.12v-.09s0-.11,0-.11v-.14s-.04-.07-.04-.07l-.03-.07-.02-.05-.04-.05-.06-.04-.05-.04-.05-.04-.14-.06-.14-.05-.08-.03-.1-.02-.09-.03h-.11s-.23-.02-.23-.02l-.24-.02h-.43l-.28.03h-.07s-.04-.01-.04-.01v-.02s-.01,0-.01,0v-.03h0v-.04l.04-.04.04-.05.05-.07.07-.03.14-.1.15-.11.15-.12.14-.09.27-.16.24-.17.24-.14.23-.1.2-.1.18-.1.19-.06.17-.06.15-.05.14-.04.26-.06.2-.05h.08s.08,0,.08,0h.06s.04.02.04.02l.04.02.02.02.02.03v.12l-.02.05v.06s-.02.01-.02.01l-.14.15-.14.16-.15.18-.26.39-.05.09-.06.09-.03.08-.03.08-.04.12v.12s0,.12,0,.12v.05s0,.05,0,.05l.03.09.03.08.04.07.06.06.05.07.06.04.06.02.06.04.14.03.1.05.04.03h.04s.03.04.03.04h0v.04h0s0,.04,0,.04h-.02s-.01.01-.01.01l-.05.04-.08.04-.08.04-.07.04-.09.04-.09.07-.23.16-.18.12-.08.06.33-.06.32-.08.28-.07.28-.06.27-.08.22-.07.23-.08.2-.09.18-.07.16-.06.27-.12.18-.08.09-.07.17-.09.15-.09.13-.09.12-.1.08-.06.09-.09.07-.07.04-.07.04-.05.02-.08.03-.03v-.05s0-.08,0-.08v-.09s-.01-.05-.01-.05l-.04-.1-.04-.06-.03-.03-.03-.04-.05-.05-.07-.04-.08-.03-.06-.02-.17-.04-.15-.02h-.35s-.04,0-.04,0l-.02-.04h-.01s-.02-.04-.02-.04v-.05s0-.08,0-.08v-.04l.03-.12v-.1s.01-.1.01-.1v-.17s-.04-.07-.04-.07l-.04-.07-.02-.06-.04-.06-.04-.05-.04-.04-.1-.08-.04-.03-.05-.03-.08-.02-.14-.06-.16-.02-.15-.04-.13-.03h-.13s-.12-.01-.12-.01h-.24s-.11.01-.11.01l-.09.02-.16.02-.2.06-.22.05-.25.1-.27.1-.28.11-.25.12-.25.12-.23.1-.16.09-.12.08h-.04s-.02,0-.02,0h-.05v-.09s.05-.07.05-.07l.04-.09.09-.18.17-.27.17-.28.12-.17.45-.61.32-.41.2-.28.12-.16.09-.16.09-.17.07-.14.05-.15.06-.14.04-.12.02-.12.02-.11v-.12s.01-.09.01-.09v-.16l-.03-.1-.02-.07-.04-.06-.04-.06-.1-.06-.04-.03-.05-.04-.05-.02-.04-.02h-.11s-.09-.03-.09-.03h-.06l-.05.02h-.09s-.19.04-.19.04l-.13.06-.13.06-.74.41h0ZM411.12,288.61h.1l.05-.03h.04s.04-.05.04-.05l.04-.03v-.02s.03-.04.03-.04l.02-.04v-.07l-.02-.07-.02-.02v-.03s-.05-.03-.05-.03l-.05-.02-.06-.03h-.05l-.07.03-.05.02-.05.04-.06.04-.04.06-.04.05v.04s-.01.03-.01.03v.02s.04.04.04.04l.08.07h.08s.04.04.04.04h.01ZM408.21,289.87h.97s.05,0,.05,0h.05s.07,0,.07,0h.06s.04-.03.04-.03h.03s.03-.04.03-.04v-.02s.02-.04.02-.04l.02-.04v-.09l-.02-.04-.02-.08-.03-.04-.03-.03-.06-.08-.12-.12-.02-.03-.03-.03h-.07s-.09-.01-.09-.01h-.06s-.11.04-.11.04l-.09.05-.21.12-.12.06-.04.04-.04.04-.06.08-.07.08-.07.12v.06h-.01ZM407.42,289.22l-.02-.04v-.04s-.04-.02-.04-.02h-.02s-.03-.01-.03-.01h-.02l-.04.04-.06.08-.03.05-.04.76h.25v-.08s.04-.23.04-.23v-.52h0ZM408.22,288.36v.55h.06s.1-.06.1-.06l.06-.03.02-.03.03-.02.03-.03v-.04s.02-.04.02-.04v-.17s-.04-.05-.04-.05l-.02-.03-.03-.02-.03-.02h-.2ZM409.3,286.93l-.12.07-.12.12-.13.12-.14.13-.22.23-.11.08-.05.04-.04.03-.03.03v.04s-.02.04-.02.04v.04s.04.04.04.04v.05s.06.05.06.05l.07.07.07.04.08.05.09.04.05.02h.09l.06-.02h.04s.05-.04.05-.04l.04-.04.04-.05.2-.22.2-.27.16-.21.08-.08.05-.04.04-.06v-.02s.01-.03.01-.03l.03-.02v-.03l-.03-.08v-.08s-.04-.06-.04-.06l-.06-.14-.03-.02v-.02s-.04,0-.04,0l-.02-.02h-.02l-.02.02-.05.03-.13.06-.13.12h0ZM408.45,286.2l-.11.91.19-.13.16-.14.06-.07.07-.07.08-.1.03-.04v-.04s0-.03,0-.03l-.03-.04-.04-.04-.05-.04-.07-.04-.06-.04-.12-.04-.08-.02-.03-.02h0ZM407.38,287.8l-.1-.13-.1-.15-.12-.16-.16-.17-.08-.08-.08-.08-.08-.06-.08-.06-.08-.04h-.04s-.04-.01-.04-.01l-.13-.03h-.13s-.11,0-.11,0h-.15s-.02.03-.02.03l-.04.02-.04.03v.03s-.03.02-.03.02v.04s-.01.04-.01.04v.33s.04.49.04.49v.28s0,.25,0,.25v.77s0,.33,0,.33v.53s0,.09,0,.09v.1s.04.1.04.1v.09l-.03.08v.02s-.04.04-.04.04l-.02.02-.04.02h-.04s-.06.02-.06.02l-.1.04-.1.02-.1.02-.09.02h-.07s-.07,0-.07,0h-.04l-.03-.02-.04-.04-.03-.04-.04-.04-.08-.06-.1-.05-.11-.05-.05-.04h-.07s-.12,0-.12,0h-.09s-.05.04-.05.04l-.03.04-.07.08-.06.05-.11.12-.11.08-.05.06-.04.05-.17.18-.11.12-.09.16-.13.17-.12.16-.04.09-.04.08-.04.08-.02.09-.03.15v.22s.03.11.03.11l.04.09.04.07.06.06.05.07.08.07.1.09.27.22.33.27.03-.03.07-.08.05-.06.04-.08.05-.11.04-.09.08-.13.03-.08.05-.08.09-.19.12-.17.12-.18.15-.19.06-.06.08-.08.06-.06.07-.05.14-.12.18-.1.09-.07.12-.08.13-.06.16-.07.2-.07.21-.07.25-.08.28-.09.32-.08.37-.08.38-.08.45-.1.28-.02.51-.04.56-.04h.27s.21,0,.21,0h.07l.08.02.06.02.04.02.03.02v.02s.02.02.02.02h0s-.01.04-.01.04l-.03.03-.04.02-.09.02-.2.07-.25.08-.61.23-.58.23-.25.1-.2.06-.15.04-.13.04-.24.08-.21.08h-.04s-.06.03-.06.03l-.06.02h-.17s-.04-.02-.04-.02l-.04-.03-.04-.03-.06-.05-.08-.05-.04-.02h-.06s-.05-.02-.05-.02h-.09l-.05.02-.04.03h-.07s-.05.06-.05.06l-.04.06-.05.06-.07.08-.07.19-.04.09v.07s-.02.05-.02.05l-.03.12v.13l.03.07v.04s.04.08.04.08l.02.05.07.12.12.1.11.11.1.12.08.04.04.04.15.06.06.03h.07s.07,0,.07,0h.07s.12-.04.12-.04l.12-.04.09-.05.06-.05.06-.07v-.04s.04-.04.04-.04v-.06s.04-.08.04-.08l.03-.08.02-.07.03-.09.04-.05.05-.07.07-.08.09-.07.09-.09.65-.41.17-.12.17-.12.16-.09.12-.08.08-.02.09-.03.09-.02h.11l.04.02h.02l.03.03v.02l-.03.03v.04s-.05.04-.05.04l-.29.32-.12.13-.09.09-.08.07-.04.04-.04.02-.04.03h-.05s-.06.04-.06.04h-.05s-.07,0-.07,0h-.05s-.04.03-.04.03l-.04.02v.04s-.04.04-.04.04v.15l.09.41.03.21v.11s0,.1,0,.1v.33s-.02.04-.02.04l-.02.05v.03s-.04.04-.04.04l-.02.04-.04.02-.06.03h-.05s-.08.02-.08.02l-.53.07-.44.07-.5.09-.54.1-.57.12-.28.07-.26.08-.28.07-.25.08-.08.05-.08.05-.06.03-.1.02-.13.06-.19.04-.26.08-.29.09-.39.14.03.02.04.04.05.06.08.06.1.05.05.03.08.03.14.05.36.11.2.04.18.04.11.02h.09s.21,0,.21,0h.11s.1-.02.1-.02l.1-.03.1-.04.1-.04.12-.06.29-.17.36-.16.17-.09.17-.07.43-.14.24-.06.26-.08.24-.04.25-.06.2-.02.17-.02h.13l.1.02h.02s.03.02.03.02l.03.03h0s0,.03,0,.03l.02.02v.18s0,.2,0,.2v.42s.01,1.26.01,1.26v.73s-.02.68-.02.68l-.02.62v.24s-.04.2-.04.2v.28s-.01.2-.01.2l-.03.09v.1s-.02.1-.02.1l-.03.09-.04.08-.04.07v.04s-.04.03-.04.03l-.03.02-.02.02-.04.02-.03.02h-.04s-.04.01-.04.01h-.17s-.18.03-.18.03h-.34s-.18.01-.18.01h-.14s-.13-.04-.13-.04h-.04s-.04-.02-.04-.02l-.04-.02h-.03s-.02,0-.02,0h-.02s0,.03,0,.03h-.01v.09s.04.05.04.05l.05.06.05.05.04.03.04.04.09.06.06.06.06.04.07.04.09.05.1.04.11.04.13.04h.15s.17.04.17.04h.2s.21.01.21.01h.25s.04-.01.04-.01h.04s.04-.03.04-.03h.04s.11-.08.11-.08l.04-.04.05-.05.04-.07.05-.06.06-.08.06-.11.04-.12.04-.12.04-.13.04-.16v-.14s.02-.28.02-.28v-.44l.02-.57v-.74l-.02-.91v-1.07s-.06-1.24-.06-1.24v-.2l.04-.06v-.03s.02-.03.02-.03l.03-.02.03-.02.03-.02.04-.02.11-.02.2-.02h.26s.35-.02.35-.02l.38-.02h.75l.31.02h.12s.09.02.09.02l.17.03.15.04.14.04.16.03h.13s.14.01.14.01h.14s.07-.04.07-.04l.08-.03.02-.02.04-.04.04-.03.03-.02.02-.08.02-.03v-.04s.01-.04.01-.04v-.04s-.01-.04-.01-.04l-.02-.04-.04-.07-.04-.04-.04-.02-.05-.03h-.06s-.12-.05-.12-.05l-.06-.02h-.08s-.15-.04-.15-.04l-.28-.02-.18-.03h-2.37s-.12,0-.12,0h-.34s-.03-.03-.03-.03l-.03-.02-.02-.03-.02-.04-.02-.04v-.36l-.03-.09-.02-.09-.04-.08-.02-.09-.06-.11-.04-.12-.02-.04-.02-.05.02-.04h0s.01-.04.01-.04l.05-.03h.04s.04,0,.04,0l.22-.04.24-.04.12-.04.12-.04.12-.05.11-.07.21-.12.2-.13.21-.12.09-.05.08-.04.23-.09.1-.05.11-.06.04-.02.04-.04.03-.04.02-.04v-.02s0-.02,0-.02v-.1s-.04-.05-.04-.05l-.06-.11-.07-.08-.09-.13-.02-.03v-.02s-.02-.03-.02-.03v-.04l.02-.04v-.02s.05-.06.05-.06l.07-.08.05-.04.05-.02.06-.02h.26l.21.02.22.02.2.02.07.02h.07s.04.05.04.05l.02.04.02.06-.02.06v.06s-.04.05-.04.05h-.02s-.03.04-.03.04h-.04s-.04,0-.04,0l-.09.03-.11.03-.13.02-.09.04-.08.04-.04.03-.02.02v.02l.02.03v.03s.05.02.05.02l.12.08.12.07.13.06.15.06.16.05.16.04.16.03h.18s.17,0,.17,0l.16-.02.15-.02.06-.03h.06s.06-.04.06-.04l.04-.03.05-.04.03-.05.02-.04.03-.06v-.07s.03-.08.03-.08v-.06l-.02-.07-.02-.15-.04-.07-.03-.07v-.07s-.06-.04-.06-.04l-.06-.08-.04-.05-.06-.06-.06-.05-.06-.04-.06-.04-.08-.04-.07-.02-.29-.1-.13-.04-.14-.04-.25-.06-.24-.04-.11-.02h-.36s-.02.02-.02.02l-.02-.02h-.02s-.02-.05-.02-.05v-.15l.02-.12.04-.17.06-.27.1-.35.24-.89.13-.42.12-.38.09-.28.04-.09.03-.06.03-.02.02-.04.07-.07.07-.07.05-.03v-.04s.05-.04.05-.04v-.04s.03-.06.03-.06v-.09l-.03-.06-.02-.07-.04-.07-.11-.13-.08-.08-.1-.11-.07-.04h0s-.06-.02-.06-.02l-.05-.04-.08-.03-.11-.02-.12-.03h-.22l-.08.03-.18.02-.15.03-.14.05-.12.04-.11.04-.09.02-.07.03h-.07l-.09.02-.09.02h-.11s-.04.03-.04.03h-.04l-.03.02v.02s-.04.03-.04.03v.07l.03.04.04.04.04.08.07.05.02.03.04.03.07.02.08.03h.04l.04-.02h.04l.04-.02.09-.05.2-.12.15-.08.06-.03.08-.03h.06s.07,0,.07,0h.07s.05.04.05.04l.03.03h0s.03.06.03.06v.22l-.03.09-.03.12-.02.12-.1.27-.08.25-.05.18v.06s-.03.02-.03.02l-.02.02-.02.02h-.03s-.05,0-.05,0h-.15s-.16-.05-.16-.05l-.17-.04h-.23s-.04,0-.04,0v.03s-.05.05-.05.05v.06s-.03.06-.03.06v.07l.02.05v.15s0,.07,0,.07l-.02.06v.07s-.04.08-.04.08l-.04.06-.05.06-.05.05-.07.11-.05.08-.03.09-.05.11v.18s.05.04.05.04l.03.04.06.07.09.05.08.04.07.04.15.04.05.03.05.03.06.03.05.04.04.05.04.04v.03s0,.03,0,.03l.02.05v.03l-.02.02v.03s-.03.03-.03.03l-.06.08-.03.04h-.04s-.04.02-.04.02l-.05.02h-.09s-.11.02-.11.02h-.38s-.1-.04-.1-.04h-.02l-.04-.09-.11-.17-.05-.09-.07-.12-.06-.08-.08-.07-.13-.13-.14-.1-.14-.12v-.02s-.03-.02-.03-.02l-.02-.04v-.07l.03-.05.04-.09.08-.11.82-.82.03-.06.03-.17.05-.13v-.02s.03.04.03.04v.04l.02.05.03.02h0s.04.02.04.02h.04s.01-.01.01-.01l.02-.03v-.02s.05-.03.05-.03v-.04s.04-.13.04-.13l-.02-.12v-.08s-.04-.02-.04-.02l-.02-.04-.06-.06-.06-.04-.08-.04-.16-.08-.08-.04-.08-.05-.12-.08-.08-.06-.03-.03v-.04s-.03-.04-.03-.04v-.04s-.02-.06-.02-.06v-.07s.04-.09.04-.09v-.06s.04-.05.04-.05l.08-.11.08-.1.09-.11.11-.09.14-.17.07-.08.03-.02.04-.04.04-.05v-.07s.06-.08.06-.08l.02-.09v-.04s0-.05,0-.05v-.11s-.04-.08-.04-.08l-.04-.08-.04-.07-.04-.02-.03-.02h-.02s-.03-.02-.03-.02h-.09l-.03.02-.04.03-.04.04-.05.09-.04.11-.03.05-.04.07-.12.25-.07.09-.04.04-.02.04-.12.12-.12.16-.12.17-.05.08-.04.08-.03.05-.02.05-.06.04-.03.02h-.04s-.04.04-.04.04h-.24l-.08-.03-.06-.03-.07-.02-.05-.04-.11-.07-.04-.03-.04-.02h-.02s-.03-.04-.03-.04l-.04-.04-.03-.04v-.07s-.05-.09-.05-.09v-.11s-.04-.1-.04-.1v-.24s-.05-.12-.05-.12l-.07-.11-.05-.09-.05-.08-.07-.07-.05-.06-.07-.04-.08-.04-.08-.03h-.19s-.02.04-.02.04l-.03.03v.02s-.03.03-.03.03l-.02.05v.56s0,.96,0,.96v1.33l-.05.33h0ZM427.3,288.69l.04-.03.1-.05.07-.03.08-.04h.08s.08-.01.08-.01l.08-.03.09-.02.08-.04.07-.05.03-.02h.03v-.09s0-.01,0-.01v-.03s-.04,0-.04,0l-.04-.03-.09-.03h-.09s-.11-.04-.11-.04h-.21l-.11.03-.09.04h-.04s-.04.04-.04.04l-.04.02-.03.03-.06.08-.07.06-.04.08v.07s-.01.01-.01.01v.07h0s0,.01,0,.01l.04.03h.23ZM421.27,292.38l.02.29v1.79l-.02.21v.2s-.02.23-.02.23l-.03.58v1.65l.03.41.02.45.04.45.04.43.04.19.04.18.04.17.04.14.04.13.05.08.06.08.04.04.02.02.08.05.08.04.06.04h.08s.08.05.08.05h.18l.08-.02.08-.02.06-.04.09-.02.07-.06.07-.04.05-.07.09-.14.03-.05.04-.07.03-.07v-.06s.04-.14.04-.14v-.16l-.03-.17-.03-.19-.05-.22-.03-.12-.02-.13-.07-.32-.04-.33v-.19s-.02-.17-.02-.17l-.03-.37v-.34s0-.31,0-.31v-.24s.04-.57.04-.57l.02-.37.02-.37v-1.03l-.02-.13v-.11s-.04-.16-.04-.16v-.16l.02-.13v-.05s.02-.07.02-.07l.03-.04h.03s.02-.06.02-.06l.03-.02h.04s.03-.02.03-.02h.05s.04.02.04.02l.12.03.12.04h.16s.06,0,.06,0h.16s.04-.03.04-.03h.04l.08-.02.08-.04.06-.07.07-.05.03-.03.02-.04.07-.09.12-.32.1-.21.04-.12.02-.05v-.04s.04-.04.04-.04l.04-.04.04-.04h.04s.04-.02.04-.02l.04-.02h.04s.05,0,.05,0h.04s.15,0,.15,0h.2s.06-.02.06-.02l.07-.02.07-.04.08-.02.06-.04.07-.06.07-.06.06-.07.08-.1.12-.21.06-.06.06-.09.2-.28.11-.17.11-.19.04-.1.06-.09.04-.12.03-.09.04-.12.02-.11.03-.09v-.04s.04-.04.04-.04v-.04s.04-.04.04-.04l.02-.03.04-.04.08-.05.07-.03h.07s.62-.25.62-.25l.32-.12h.13s.12-.05.12-.05l.58-.09.33-.07.15-.04h.12s.25-.12.25-.12l.33-.12.19-.05.18-.04.17-.04.16-.04h.14s.18-.03.18-.03h.16l.17.03h.08s.07.02.07.02l.08.02h.05s.05.01.05.01l.07.04h.01s.03.03.03.03h0s.03.06.03.06v.07s.01.06.01.06l-.03.07-.04.05-.05.07-.07.06-.09.07-.56.4-.28.2-.13.09-.09.08-.06.04-.06.06-.2.11-.21.14-.26.15-.49.28-.2.09-.16.06-.25.1-.32.1-.17.04-.18.05-.18.03-.17.02-.16.02-.16.04-.13.06-.07.02-.05.03-.1.08-.04.04-.02.04-.04.07-.03.06v.04s-.01.07-.01.07v.1s.04.07.04.07v.04s.05.06.05.06l.07.04.07.04.06.04.15.06.17.08.1.05.09.07.04.02.03.04.02.04.02.04v.07l-.02.05v.04s-.05.05-.05.05l-.24.31-.32.42-.17.21-.15.2-.15.16-.05.04-.05.04-.23.16-.12.06-.1.08-.1.1-.04.05-.03.05-.04.06v.06s-.04.07-.04.07v.45s.03.08.03.08v.08s.05.08.05.08l.03.08.04.07.04.06.06.07.05.04.07.05.08.04.09.04.14.04.07.02h.2l.12-.02.12-.03.09-.05.23-.08.18-.08.07-.04h.05s.03,0,.03,0h.01s.02.03.02.03v.02s.01.02.01.02v.04s-.04.09-.04.09l-.03.05-.05.07-.07.09-.08.1-.18.22-.23.27-.54.55-.53.58-.25.23-.42.4-.43.39-.17.15-.12.08-.33.24-.15.09-.08.04-.06.03-.1.02-.08.04-.1.06-.09.06-.04.02-.02.04-.03.03v.06s-.01.04-.01.04v.1s.05.08.05.08l.04.05.04.06.06.04.06.04.08.04.07.02.08.02.08.02h.16s.08,0,.08,0h.08s.08-.04.08-.04l.07-.02.08-.03.07-.04.06-.08.11-.08.24-.23.32-.29.33-.31.59-.64.24-.23.13-.17.12-.14.16-.17.37-.41.33-.37.12-.13.05-.07v-.02s.03-.02.03-.02v-.04s.06-.02.06-.02l.04-.02h0l.04.02.02.04v.08s0,.05,0,.05l-.02.07v.1s-.02.12-.02.12l-.02.3v.39s-.01.39-.01.39v.4s.04.37.04.37l.02.16.03.14.02.11.04.08.04.08.04.08.05.07.06.06.06.08.08.08.1.08.11.08.12.09.16.08.14.08.19.09.2.08.21.08.25.11.27.09.1.03.24.02.29.04.38.03h.22s.22,0,.22,0h.78s.28-.04.28-.04l.28-.04.29-.04.18-.04.11-.02.09-.04.1-.04.09-.06.04-.04.04-.02.07-.07.05-.1.04-.1.03-.1.02-.13.03-.14v-.41s-.04-.15-.04-.15v-.15s-.03-.18-.03-.18v-.5s0-.22,0-.22v-.1l-.03-.1-.02-.11-.03-.11-.04-.09-.03-.08-.02-.07-.07.35-.05.31-.05.35-.07.33-.04.2-.04.17-.05.18-.07.14v.08s-.05.06-.05.06l-.08.1-.07.1-.09.08-.09.09-.06.04-.06.04-.15.06-.08.03-.08.03-.2.04h-.12s-.12.02-.12.02h-.31s-.25.01-.25.01h-.31s-.3-.02-.3-.02h-.32s-.15-.03-.15-.03h-.14s-.12-.04-.12-.04h-.1s-.11-.04-.11-.04h-.08s-.1-.02-.1-.02l-.11-.03-.1-.04-.07-.04-.05-.04-.11-.07-.05-.04-.07-.06-.12-.13-.05-.06-.04-.07-.05-.08-.04-.1-.06-.1-.04-.09-.02-.12-.04-.11-.06-.28v-.14s-.02-.16-.02-.16v-1.44s.04-1.3.04-1.3l-.02-.05v-.04l.02-.07v-.08s.04-.08.04-.08l.04-.12.09-.09.5-.68.28-.34.15-.15.12-.14.22-.21.22-.2.2-.16.07-.08.07-.06.05-.07.04-.05.04-.08.04-.08v-.08s.02-.07.02-.07v-.29s-.02-.13-.02-.13l-.02-.08v-.05s-.04-.05-.04-.05v-.04s-.04-.04-.04-.04l-.02-.04-.05-.03h-.04s-.03-.04-.03-.04h-.1l-.06.03-.07.02-.06.04-.4.24-.5.32-.49.29-.33.2-.12.05-.12.05-.24.12-.12.07-.13.05-.11.07-.12.08-.2.17-.13.14-.08.04-.03.02v.03s-.07,0-.07,0h-.1s-.03-.04-.03-.04l-.04-.04v-.04s0-.04,0-.04v-.03l.03-.08.04-.09.08-.12.09-.11.12-.12.12-.1.12-.13.18-.19.08-.06.07-.04.05-.04.05-.04.09-.05.08-.04.09-.04h.1s.12-.03.12-.03l.17-.05.09-.03.12-.04.1-.04.12-.05.11-.05.12-.07.1-.08.1-.08.1-.09.08-.11.08-.1.08-.12.03-.08.02-.11v-.12l.02-.12v-.73s.01-.09.01-.09l.02-.07.04-.06v-.04s.04-.03.04-.03l.05-.02.07-.04.06-.03h.07s.05-.01.05-.01h.04s.02.01.02.01l.02.02h0s0,.04,0,.04l-.04.02-.06.07-.02.04-.04.02v.03h0s.02.03.02.03h.05s.05.02.05.02h.08s.23-.06.23-.06l.29-.08.28-.07.12-.04.09-.02.33-.14.11-.02.1-.04.12-.03h.14s.14-.04.14-.04h.15s.16-.04.16-.04h.08s.08-.04.08-.04l.08-.04.07-.03.07-.05.06-.05.07-.07.05-.08.04-.09v-.06s.03-.05.03-.05v-.08s0-.09,0-.09v-.07l-.03-.05v-.08s-.05-.07-.05-.07l-.03-.09-.03-.05-.12-.17-.06-.08-.08-.08-.09-.08-.1-.08-.05-.04-.06-.04-.06-.04-.09-.03-.06-.02-.09-.04-.18-.04-.23-.06-.25-.02-.15-.03h-.14s-.33-.04-.33-.04h-.2s-.12.04-.12.04h-.11s-.2.07-.2.07h-.06s-.08,0-.08,0h-.05s-.07.03-.07.03h-.06s-.08.02-.08.02h-.07s-.04-.02-.04-.02l-.03-.02-.02-.02-.02-.03v-.04s0-.05,0-.05v-.28s-.04-.07-.04-.07v-.08s-.05-.17-.05-.17l-.04-.1-.04-.1-.04-.09-.05-.09-.11-.2-.06-.1-.08-.11-.16-.22-.24-.34-.16-.2-.15-.17-.08-.09-.08-.07-.08-.06-.07-.07-.11-.05-.12-.04-.1-.03h-.11s-.21-.02-.21-.02h-.16s-.07.02-.07.02l-.02.02h-.04s-.03.04-.03.04l-.03.04-.04.04v.04s-.02.04-.02.04l-.02.08.02.1v.05s.04.04.04.04l.12.23.17.25.26.41.09.16.08.12.05.1.02.06v.06s.01.06.01.06v.06s-.03.02-.03.02l-.02.04-.03.03h-.01s-.07.04-.07.04l-.12.04-.2.08-.25.13-.32.17-.32.17-.34.21-.17.12-.15.12-.15.12-.16.15-.12.13-.18.22-.23.28-.12.13-.09.16-.05.09-.07.12-.1.2-.1.21h-.02s-.04,0-.04,0h-.08s-.03-.03-.03-.03v-.02s-.02-.03-.02-.03l-.02-.04v-.05l.02-.07.05-.46.03-.2v-.04s.05-.12.05-.12l.07-.15.04-.09.05-.05.13-.2.07-.13.08-.16.07-.19.02-.1.03-.11v-.12s.01-.07.01-.07v-.05l.03-.14-.03-.14v-.09s-.04-.14-.04-.14l-.02-.07-.03-.08-.04-.08-.04-.08-.05-.09-.07-.08-.08-.08-.08-.08-.09-.07-.11-.07-.11-.06-.13-.06h-.04s-.04-.02-.04-.02h-.43s-.11.04-.11.04l-.12.03-.12.04-.14.04-.15.08-.14.06-.15.09-.14.1-.15.11-.07.06-.1.1-.26.27-.34.37-.07.08-.06.09-.08.09-.04.07-.02.05-.03.07v.05s-.01.05-.01.05v.06s.01.02.01.02v.03s.05.04.05.04l.1.08.08.07.1.05.09.03h.09s.09.05.09.05l.2.03.27.02.05.02h.07s.12.05.12.05l.05.04h.06s.05.06.05.06l.04.03.04.04v.07s.04.05.04.05v.07s0,.17,0,.17l-.02.21-.04.48-.03.47v.19s0,.16,0,.16v.6l-.03.32-.04.06-.04.07-.05.05-.03.03h-.02s-.03.03-.03.03l-.03-.02h-.01s-.02-.04-.02-.04v-.05s-.01-.07-.01-.07l-.03-.43v-.26s-.01-.29-.01-.29l-.04-.29-.04-.25-.05-.23-.03-.09-.04-.08-.1-.29-.07-.14-.04-.12-.08-.11-.04-.05-.03-.04-.04-.03-.04-.04h-.02s-.06-.01-.06-.01h-.18s-.03.05-.03.05l-.06.03-.06.04-.05.05-.05.04-.04.05-.04.07-.04.05-.04.07-.03.08-.04.09v.08s-.02.12-.02.12l-.02.12v.29s-.02.33-.02.33v.97s.01.33.01.33v.18s0,.25,0,.25v.29h0ZM389.21,297.94h.33s.31.04.31.04l.29.03h.11l.1-.02h.08s.06-.04.06-.04l.05-.02.03-.03h.02s.2-.25.2-.25l.17-.2.07-.08.06-.07.07-.07.04-.03v-.02s.04-.06.04-.06v-.04s0-.06,0-.06v-.02s-.03,0-.03,0v-.04s-.08-.02-.08-.02h-.02s-.04-.01-.04-.01h-.05s-.07.04-.07.04l-.08.03-.16.06-.16.09-.17.06-.08.02h-.06s-.07.01-.07.01h-.07l-.06-.03-.07-.02-.02-.02-.03-.02-.04-.02h-.03v.02s-.05.02-.05.02l-.04.04-.03.02-.54.71h0ZM388.46,298.68l-.14.2-.12.14-.04.06-.04.02v.03s-.02,0-.02,0h0v.07s.04.04.04.04l.06.04h.04s.08.05.08.05h.1s.1.03.1.03h.11l.23-.02h.29s.04-.04.04-.04l.12-.06.15-.12.08-.07.04-.04.02-.04.07-.05.07-.07.12-.11.08-.06.02-.03h.02v-.03h0s-.03-.04-.03-.04h-.05s-.09-.04-.09-.04h-.11s-.16-.02-.16-.02h-.66s-.16.04-.16.04h-.05l-.06.02-.06.02-.02.02-.06.06h0s-.02.01-.02.01h0ZM390.98,295.01l-.07.12-.18.29-.09.17-.1.15-.1.12-.05.06-.11.07h-.05s-.04.04-.04.04l-.05-.03h-.03s-.03-.02-.03-.02v-.03s-.04-.04-.04-.04l-.04-.08-.12-.25-.12-.25-.12-.21-.05-.08-.03-.04-.03-.04h-.02s-.03-.01-.03-.01v-.02s-.04-.01-.04-.01h-.04s-.01.01-.01.01l-.04.02h-.03s-.01.01-.01.01l-.03.04-.04.08v.08s0,.1,0,.1l.03.4v.14s0,.13,0,.13v.14s.04.05.04.05v.08s.04.05.04.05l.04.06.04.04.04.02.15.04.05.03.07.02v.03s.02.03.02.03l.02.02v.04l-.02.03v.04s-.04.04-.04.04l-.04.06-.21.23-.28.28-.24.25-.18.16-.11.09-.04.04-.06.04-.05.03-.05.03h-.06s-.09.01-.09.01h-.26s-.2.04-.2.04h-.11s-.12.04-.12.04l-.13.03-.15.04-.13.04-.16.05-.14.07-.16.08-.16.08-.16.1.08.04.08.04.12.05.12.04.13.04.07.03h.05s.07.01.07.01h.16s.12-.04.12-.04l.25-.07.18-.06.08-.03-.12.15-.16.17-.2.21-.26.22-.15.13-.16.12-.17.15-.17.12-.2.13-.21.09-.1.07-.06.02-.06.03-.04.04-.03.04v.03h0s0,.04,0,.04l.02.02.06.07h.03s.04.04.04.04h.04s.04.02.04.02l.08.03h.09s.06,0,.06,0l.06-.03h.04s.05-.04.05-.04h.05s.04-.05.04-.05l.12-.08.14-.11.29-.21.25-.17.16-.12.05-.04h.04s.04-.04.04-.04h.04l.07.02h.05s.15.06.15.06l.12.04.18.04.21.04h.25s.25,0,.25,0h.27s.12-.04.12-.04h.13s.07-.05.07-.05h.05s.12-.07.12-.07l.07-.02.08-.07.17-.16.23-.18.23-.23.07-.04.06-.05.1-.05.09-.06.12-.02.05-.03h.07s.05,0,.05,0h.13s.08,0,.08,0l.74.17.69.15.14.04.23.07.28.1.33.15.17.07.17.09.36.2.16.1.17.12.16.12.15.12.07.05.09.07.09.05.1.07h.05s.05.03.05.03h.15l.04-.03.04-.03.04-.04.05-.08.03-.09v-.08s.01-.09.01-.09v-.04s-.01-.04-.01-.04l-.03-.04-.02-.04-.08-.1-.12-.09-.15-.09-.18-.12-.24-.13-.25-.13-.26-.15-.28-.12-.25-.1-.12-.07-.12-.04-.49-.13-.28-.07-.27-.06-.5-.11-.37-.08-.16-.03-.12-.02-.1-.03-.07-.04h-.04s0-.05,0-.05l-.02-.03v-.04l.02-.04v-.05s.06-.06.06-.06l.04-.06.81-1.03.04-.08.04-.1.03-.04v-.12s0-.04,0-.04v-.05l-.03-.04-.02-.04-.06-.04-.05-.03-.08-.03h-.08s-.09-.02-.09-.02h-.21s-.08,0-.08,0h-.08s-.13.05-.13.05l-.11.04-.09.06-.11.04-.08.04h-.04s-.04.02-.04.02l-.18.04-.1.03h-.1s-.04,0-.04,0h-.02s-.03,0-.03,0l-.03-.04v-.04l.02-.04.03-.06.12-.18.16-.24.4-.58.38-.53.12-.2.03-.05v-.04s.03-.07.03-.07v-.14l-.02-.07v-.09s-.02-.01-.02-.01l-.03-.04-.04-.03v-.02s-.09-.03-.09-.03h-.08s-.04,0-.04,0h0l-.04.03h0s-.03.05-.03.05v.05s-.02.07-.02.07l-.02.06v.03h0s-.09.17-.09.17l-.15.25-.17.34h0ZM387.86,295.33h-.09l-.03.02v.02s-.02.03-.02.03v.12s.02.07.02.07l.05.06.04.04.04.03v.03s.04.05.04.05l.05.16.04.18.04.07v.03s.03.02.03.02l.06.07.06.08.12.13.1.08.11.06.09.04.06.02.04.02h.07l.05-.02.07-.03.04-.04.04-.04v-.07s0-.05,0-.05v-.08l-.03-.07-.02-.06-.08-.14-.07-.12-.12-.17-.14-.18-.14-.15-.06-.04-.04-.04-.1-.05-.1-.03h-.06s-.08-.02-.08-.02l-.07-.02h0ZM391.55,290.94l-.03.08v.08s-.04.21-.04.21v.1s-.04.1-.04.1l-.04.09v.04s-.04.02-.04.02l-.08.06-.05.08-.07.08-.04.06v.07s-.01.03-.01.03h0v.02l.04.03.02.02h.08l.27-.05h.26s.28-.04.28-.04h.05s.03-.02.03-.02l.04-.03.05-.02.06-.04.14-.11.08-.08.1-.09.1-.13.12-.15.12-.16.13-.18.04-.07.02-.04.02-.05-.02-.04v-.04l-.02-.03h-.03s-.01-.02-.01-.02l-.05-.04-.07-.02h-.09s-.12,0-.12,0h-.62s-.15.03-.15.03l-.12.02-.14.04-.04.02h-.04s-.03.04-.03.04h0s-.04.12-.04.12h0ZM390.2,291.32l-.13.11-.12.08-.04.05h0v.09s-.03.05-.03.05l-.02.12-.03.16v.24l.03.09v.04s.02.01.02.01l.02.03h.09s.07-.05.07-.05l.08-.06.06-.06.03-.04.04-.04.07-.08.06-.09.06-.12.06-.13.06-.15.06-.12.02-.1.02-.04v-.15h-.02s-.02-.02-.02-.02h-.06s-.03.02-.03.02l-.16.07-.1.05-.1.04h0ZM389.38,290.58l-.07.07-.13.16-.09.09-.07.08-.05.08-.03.07v.18l.02.07.02.04h.03s.01.04.01.04h.03l.04-.03.04-.02.04-.04.08-.08.05-.08.04-.11.03-.08.03-.13v-.04s-.03-.29-.03-.29h0ZM389.3,288.29l-.08.05-.09.04-.12.06-.21.09-.34.16-.37.17-.3.15-.13.04-.14.04h-.16s-.13.03-.13.03h-.15l-.13-.02-.12-.02-.1-.03-.14-.07-.09-.02-.07-.03h-.21s-.03.04-.03.04h-.03s-.04.08-.04.08l-.02.03v.02s-.02.03-.02.03v.03l-.02.06.02.05.02.06.03.05.02.04.08.08.08.07.1.05.07.04.09.03h.09s.11.02.11.02l.1.02h.11s.12.01.12.01h.22s.2-.04.2-.04l.2-.04h.09s.08-.04.08-.04l.07-.03h.04s.41-.22.41-.22l.36-.18.5-.26.2-.09.16-.1.12-.08.12-.08.09-.05.04-.04h.04s.03,0,.03,0h.06s.03.04.03.04v.03s0,.02,0,.02l-.12.21-.12.15-.05.08-.06.05-.13.16-.13.16-.15.17-.13.2-.25.41-.24.4-.23.38-.18.33-.18.36-.04.06-.07.08-.09.07-.1.08-.1.07-.13.06-.11.05-.05.03h-.06s-.04.03-.04.03h-.04s-.02.02-.02.02l-.03.02v.02s-.01.02-.01.02l-.02.02v.02l.03.04.03.02.02.02h.11s.03.02.03.02v.04s.02.02.02.02h0v.11s-.04.06-.04.06l-.22.39-.16.23-.12.21-.11.17-.08.12-.1.14-.24.35-.29.37-.28.4-.26.33-.31.38-.89,1.07-.38.45-.18.24-.06.1-.08.09-.1.12-.11.11-.24.23-.24.24-.25.21-.21.2-.17.13-.12.08-.15.11-.05.04h-.05s-.03.05-.03.05v.04s0,.02,0,.02v.03s.06.03.06.03h.03s.04,0,.04,0h.05s.08,0,.08,0h.18s.09-.01.09-.01l.07-.03.05-.03.04-.02.07-.04.05-.06.16-.12.14-.14.29-.28.11-.12.09-.06.08-.07.09-.08.2-.2.16-.2.08-.08.05-.05.24-.22.21-.2.21-.23.2-.19.17-.21.16-.18.15-.19.12-.17.22-.29.18-.23.12-.18.08-.11.06-.05.04-.05.05-.12.04-.04.04-.03h.04s.06-.05.06-.05h.08l.06.03h.06s.04.04.04.04l.06.02.04.04.06.04.04.03h.07s.04.01.04.01h.04l.09-.04.08-.04.19-.12.06-.04.04-.02.03-.03.44-.18.42-.16.39-.16.35-.12.54-.17.29-.11.38-.09.35-.08.32-.08.29-.06.25-.04.24-.04.2-.02.2-.02h.17l.15-.02.25.02h.32s.08.01.08.01h.07s.04,0,.04,0l.04.04h.01v.06s-.04.02-.04.02l-.03.03-.06.03-.08.04h-.08s-.07.01-.07.01l-.06.04h-.05s-.03.03-.03.03l-.05.04-.04.04h-.02s-.01.02-.01.02v.04h0v.03h.03s.02.02.02.02l.04.03h.12s.18.04.18.04h.18s.2.01.2.01h.41s.04-.04.04-.04h.1s.08-.06.08-.06l.05-.04.04-.04v-.03s.03-.03.03-.03v-.05s.01-.05.01-.05v-.04s-.04-.06-.04-.06v-.05s-.08-.08-.08-.08l-.06-.08-.06-.04-.05-.06-.11-.04-.08-.06-.09-.02-.08-.04-.11-.03-.18-.05-.2-.03-.23-.03h-.2s-.2,0-.2,0h-.2s-.19.02-.19.02l-.33.02-.25.04-.15.03-.52.13-.48.13-.47.12-.42.12-.41.12-.37.12-.34.12-.31.11-.53.22-.4.16-.28.12-.15.05-.06.02h-.07v-.02s0-.01,0-.01h0v-.08s.06-.12.06-.12l.12-.2.2-.3.29-.48.24-.37.12-.2.12-.19.12-.18.07-.09.06-.07.12-.13.08-.05.05-.04.1-.08.1-.05.16-.08.12-.06.1-.04h.07s.04-.01.04-.01h.04s.01.14.01.14l.02.15v.18s0,.08,0,.08v.04l-.02.04-.02.07-.04.05-.07.07-.03.03-.22.04-.43.09-.08.02-.07.02-.03.02v.02s-.02.02-.02.02v.02l-.02.04.02.04.02.04.04.04.04.03.02.03.08.05.1.05.12.07.24.09.09.04h.08s.11.03.11.03h.12l.09-.02.12-.02.12-.03.12-.04.09-.05.12-.04.21-.09.17-.08.24-.12.2-.12.2-.09.18-.07.16-.06.16-.04h.12s.11-.02.11-.02h.2l.05-.02h.04s.08-.06.08-.06l.07-.06.06-.06.07-.07.05-.06.05-.06.07-.06.09-.07.2-.1.19-.11.18-.09.13-.08.13-.1.15-.1.12-.08.18-.17.08-.07.04-.05.03-.04v-.04s.02-.06.02-.06l.03-.04v-.04s0-.04,0-.04v-.04s0-.04,0-.04h-.03s0-.06,0-.06l-.04-.07-.04-.05-.05-.07-.07-.05-.07-.04-.12-.07-.1-.05-.08-.03-.16-.02-.12-.03h-.27s-.12,0-.12,0h-.35s-.09.01-.09.01l-.11.03-.16.04-.13.04-.11.02-.05.03h-.04v-.03h-.04s-.01-.05-.01-.05l-.03-.05v-.56s-.03-.09-.03-.09v-.03s-.01-.03-.01-.03l-.04-.06-.04-.07-.05-.04-.04-.06-.04-.03-.05-.04-.1-.03-.08-.03h-.14l-.05.02h-.04s-.04.03-.04.03h-.02s-.04.04-.04.04l-.04.05v.03s-.02.02-.02.02v.06l.02.06v.06s.04.05.04.05l.02.07.02.06v.07s.02.08.02.08v.2l.02.08v.17l-.02.07v.05s-.04.04-.04.04l-.02.04-.04.03h-.09s-.06.02-.06.02l-.18.06-.34.13h-.04s-.03,0-.03,0v-.03s-.05-.01-.05-.01v-.04s-.01-.04-.01-.04l-.02-.09v-.07s0-.06,0-.06v-.61s.04-.09.04-.09l.03-.08.04-.07.04-.07.09-.12.37-.49.41-.5.12-.15.14-.12.15-.1.12-.1.21-.14.13-.08.1-.05.09-.06.07-.06.06-.07.07-.05.04-.05.03-.08v-.04s.01-.08.01-.08v-.07l-.03-.1v-.05s-.04-.04-.04-.04v-.03s-.05,0-.05,0l-.03-.04h-.04s-.04,0-.04,0l-.02-.02h-.23l-.06.04-.07.04-.08.06-.12.13-.09.05-.07.05-.17.13-.26.18-.14.08-.14.08-.12.05-.06.03h-.06s-.12.06-.12.06l-.15.06-.15.06-.17.08-.25.14-.11.05h0ZM389.57,286.77l.22-.08.2-.07.11-.02.08-.02h.14s.12,0,.12,0h.24s.06,0,.06,0h.14s.05-.02.05-.02l.07-.04.02-.03.03-.04h.03s0-.06,0-.06l.04-.06v-.04s.02-.05.02-.05v-.15l-.02-.08-.04-.09-.03-.05-.02-.04-.04-.04-.04-.04-.06-.04-.05-.04-.07-.03-.09-.04-.29-.09-.34-.09-.4-.1h-.13l-.08.02h-.08s-.07.04-.07.04h-.01s-.03.02-.03.02v.03h0s.04.04.04.04l.04.02.21.12.23.12.09.07.09.06.08.07v.03s.04.01.04.01v.07s.03.04.03.04v.05s0,.05,0,.05l-.03.07-.04.05-.05.07-.04.02-.04.04-.04.03-.05.04-.08.08-.08.09-.08.12h0ZM33.79,400.91l.13-9.46.36-9.43.58-9.36.84-9.3,1.04-9.2,1.29-9.16,1.49-9.06,1.74-9,1.94-8.94,2.17-8.84,2.36-8.74,2.58-8.68,2.78-8.58,2.97-8.48,3.2-8.41,3.39-8.28,3.56-8.18,3.78-8.09,3.98-7.95,4.13-7.86,4.33-7.76,4.49-7.63,4.69-7.5,4.88-7.39,5.04-7.27,5.2-7.14,5.36-7,5.53-6.84,5.69-6.74,5.85-6.58,6.01-6.45,6.14-6.32,6.3-6.15,6.43-5.99,6.59-5.86,6.76-5.7,6.85-5.53,7.01-5.37,7.11-5.2,7.27-5.01,7.4-4.88,7.5-4.68,7.63-4.52,7.76-4.32,7.85-4.16,7.95-3.96,8.08-3.76,8.18-3.6,8.31-3.37,8.37-3.18,8.5-3.01,8.57-2.78,8.66-2.58,8.76-2.36,8.85-2.16,8.92-1.93,8.98-1.73,9.08-1.5,9.14-1.28,9.25-1.05,9.28-.82,9.34-.59,9.44-.36,9.47-.13,9.47.13,9.41.36,9.37.59,9.27.82,9.24,1.05,9.15,1.28,9.08,1.5,8.98,1.73,8.92,1.93,8.85,2.16,8.76,2.36,8.66,2.58,8.57,2.78,8.5,3.01,8.37,3.18,8.27,3.37,8.21,3.6,8.08,3.76,7.95,3.96,7.85,4.16,7.76,4.32,7.63,4.52,7.49,4.68,7.4,4.88,7.24,5.01,7.14,5.2,7.01,5.37,6.85,5.53,6.76,5.7,6.56,5.86,6.46,5.99,6.3,6.15,6.14,6.32,6.01,6.45,5.85,6.58,5.69,6.74,5.53,6.84,5.36,7,5.2,7.14,5.04,7.27,4.85,7.39,4.69,7.5,4.52,7.63,4.33,7.76,4.14,7.86,3.98,7.95,3.75,8.09,3.59,8.18,3.39,8.28,3.2,8.41,2.97,8.48,2.78,8.58,2.59,8.68,2.36,8.74,2.17,8.84,1.94,8.94,1.71,9,1.52,9.06,1.29,9.16,1.04,9.2.84,9.3.58,9.36.36,9.43.13,9.46-.13,9.49-.36,9.39-.58,9.36-.84,9.3-1.04,9.23-1.29,9.13-1.52,9.1-1.71,9-1.94,8.9-2.17,8.84-2.36,8.77-2.59,8.67-2.78,8.57-2.97,8.48-3.2,8.38-3.39,8.28-3.59,8.18-3.75,8.09-3.98,7.95-4.14,7.89-4.33,7.73-4.52,7.62-4.69,7.53-4.85,7.36-5.04,7.27-5.2,7.13-5.36,7.01-5.53,6.87-5.69,6.71-5.85,6.61-6.01,6.45-6.14,6.28-6.3,6.15-6.46,6.02-6.56,5.83-6.76,5.69-6.85,5.53-7.01,5.36-7.14,5.21-7.24,5.04-7.4,4.85-7.49,4.71-7.63,4.48-7.76,4.35-7.85,4.12-7.95,3.96-8.08,3.79-8.21,3.57-8.27,3.37-8.37,3.21-8.5,2.98-8.57,2.78-8.66,2.59-8.76,2.36-8.85,2.16-8.92,1.96-8.98,1.7-9.08,1.51-9.15,1.27-9.24,1.05-9.27.85-9.37.59-9.41.36-9.47.1-9.47-.1-9.44-.36-9.34-.59-9.28-.85-9.25-1.05-9.14-1.27-9.08-1.51-8.98-1.7-8.92-1.96-8.85-2.16-8.76-2.36-8.66-2.59-8.57-2.78-8.5-2.98-8.37-3.21-8.31-3.37-8.18-3.57-8.08-3.79-7.95-3.96-7.85-4.12-7.76-4.35-7.63-4.48-7.5-4.71-7.4-4.85-7.27-5.04-7.11-5.21-7.01-5.36-6.85-5.53-6.76-5.69-6.59-5.83-6.43-6.02-6.3-6.15-6.14-6.28-6.01-6.45-5.85-6.61-5.69-6.71-5.53-6.87-5.36-7.01-5.2-7.13-5.04-7.27-4.88-7.36-4.69-7.53-4.49-7.62-4.33-7.73-4.13-7.89-3.98-7.95-3.78-8.09-3.56-8.18-3.39-8.28-3.2-8.38-2.97-8.48-2.78-8.57-2.58-8.67-2.36-8.77-2.17-8.84-1.94-8.9-1.74-9-1.49-9.1-1.29-9.13-1.04-9.23-.84-9.3-.58-9.36-.36-9.39-.13-9.49h0ZM14.85,400.91l.13-9.95.39-9.92.61-9.82.87-9.79,1.1-9.69,1.36-9.62,1.58-9.56,1.81-9.46,2.03-9.39,2.26-9.3,2.49-9.2,2.72-9.1,2.94-9.03,3.13-8.9,3.36-8.84,3.55-8.71,3.75-8.61,3.98-8.48,4.17-8.38,4.36-8.28,4.56-8.15,4.72-8.02,4.95-7.89,5.11-7.76,5.3-7.66,5.46-7.49,5.66-7.36,5.82-7.2,5.98-7.1,6.14-6.91,6.31-6.8,6.49-6.61,6.63-6.48,6.76-6.32,6.95-6.12,7.07-5.99,7.21-5.82,7.37-5.63,7.5-5.5,7.63-5.27,7.79-5.1,7.89-4.95,8.02-4.75,8.14-4.55,8.28-4.36,8.37-4.19,8.5-3.96,8.6-3.76,8.73-3.57,8.82-3.34,8.92-3.14,9.02-2.91,9.11-2.72,9.21-2.49,9.28-2.29,9.4-2.03,9.44-1.8,9.57-1.61,9.63-1.34,9.7-1.11,9.76-.85,9.82-.62,9.92-.39,9.95-.13,9.96.13,9.92.39,9.82.62,9.76.85,9.7,1.11,9.63,1.34,9.53,1.61,9.47,1.8,9.41,2.03,9.27,2.29,9.21,2.49,9.12,2.72,9.01,2.91,8.92,3.14,8.82,3.34,8.7,3.57,8.63,3.76,8.5,3.96,8.37,4.19,8.27,4.36,8.14,4.55,8.01,4.75,7.89,4.95,7.76,5.1,7.66,5.27,7.5,5.5,7.37,5.63,7.21,5.82,7.07,5.99,6.92,6.12,6.79,6.32,6.62,6.48,6.47,6.61,6.33,6.8,6.14,6.91,5.98,7.1,5.82,7.2,5.65,7.36,5.46,7.49,5.3,7.66,5.11,7.76,4.95,7.89,4.72,8.02,4.56,8.15,4.36,8.28,4.17,8.38,3.97,8.48,3.75,8.61,3.55,8.71,3.36,8.84,3.14,8.9,2.94,9.03,2.72,9.1,2.49,9.2,2.26,9.3,2.04,9.39,1.81,9.46,1.58,9.56,1.35,9.62,1.1,9.69.87,9.79.62,9.82.39,9.92.13,9.95-.13,9.98-.39,9.89-.62,9.85-.87,9.75-1.1,9.69-1.35,9.62-1.58,9.56-1.81,9.46-2.04,9.39-2.26,9.3-2.49,9.2-2.72,9.13-2.94,9-3.14,8.94-3.36,8.8-3.55,8.71-3.75,8.61-3.97,8.51-4.17,8.38-4.36,8.25-4.56,8.15-4.72,8.02-4.95,7.92-5.11,7.76-5.3,7.63-5.46,7.5-5.65,7.36-5.82,7.23-5.98,7.07-6.14,6.94-6.33,6.77-6.47,6.61-6.62,6.48-6.79,6.32-6.92,6.15-7.07,5.99-7.21,5.79-7.37,5.66-7.5,5.47-7.66,5.3-7.76,5.11-7.89,4.91-8.01,4.74-8.14,4.55-8.27,4.38-8.37,4.16-8.5,3.96-8.63,3.76-8.7,3.57-8.82,3.34-8.92,3.14-9.01,2.94-9.12,2.72-9.21,2.49-9.27,2.26-9.41,2.03-9.47,1.83-9.53,1.57-9.63,1.34-9.7,1.11-9.76.88-9.82.62-9.92.36-9.96.13-9.95-.13-9.92-.36-9.82-.62-9.76-.88-9.7-1.11-9.63-1.34-9.57-1.57-9.44-1.83-9.4-2.03-9.28-2.26-9.21-2.49-9.11-2.72-9.02-2.94-8.92-3.14-8.82-3.34-8.73-3.57-8.6-3.76-8.5-3.96-8.37-4.16-8.28-4.38-8.14-4.55-8.02-4.74-7.89-4.91-7.79-5.11-7.63-5.3-7.5-5.47-7.37-5.66-7.21-5.79-7.07-5.99-6.95-6.15-6.76-6.32-6.63-6.48-6.49-6.61-6.31-6.77-6.14-6.94-5.98-7.07-5.82-7.23-5.66-7.36-5.46-7.5-5.3-7.63-5.11-7.76-4.95-7.92-4.72-8.02-4.56-8.15-4.36-8.25-4.17-8.38-3.98-8.51-3.75-8.61-3.55-8.71-3.36-8.8-3.13-8.94-2.94-9-2.72-9.13-2.49-9.2-2.26-9.3-2.03-9.39-1.81-9.46-1.58-9.56-1.36-9.62-1.1-9.69-.87-9.75-.61-9.85-.39-9.89-.13-9.98h0ZM48.27,400.91l.13-9.1.32-9.03.58-9,.77-8.9,1.04-8.87,1.23-8.8,1.42-8.71,1.68-8.64,1.84-8.57,2.07-8.48,2.29-8.41,2.49-8.35,2.65-8.21,2.88-8.15,3.07-8.05,3.23-7.99,3.46-7.86,3.62-7.76,3.81-7.66,3.98-7.53,4.17-7.46,4.33-7.3,4.49-7.24,4.65-7.1,4.85-6.97,5.01-6.84,5.14-6.71,5.3-6.61,5.49-6.48,5.59-6.32,5.79-6.19,5.92-6.05,6.04-5.92,6.21-5.76,6.3-5.6,6.5-5.47,6.59-5.34,6.72-5.14,6.85-5.01,6.95-4.84,7.11-4.65,7.21-4.52,7.34-4.32,7.44-4.16,7.56-3.99,7.66-3.79,7.76-3.63,7.85-3.44,7.95-3.24,8.05-3.08,8.14-2.88,8.24-2.65,8.34-2.49,8.4-2.26,8.5-2.09,8.57-1.87,8.63-1.64,8.73-1.44,8.79-1.24,8.86-1.02,8.92-.79,8.99-.58,9.05-.33,9.11-.13,9.11.13,9.02.33,8.98.58,8.92.79,8.89,1.02,8.79,1.24,8.69,1.44,8.66,1.64,8.57,1.87,8.5,2.09,8.4,2.26,8.31,2.49,8.24,2.65,8.14,2.88,8.08,3.08,7.95,3.24,7.85,3.44,7.75,3.63,7.66,3.79,7.56,3.99,7.44,4.16,7.34,4.32,7.21,4.52,7.08,4.65,6.98,4.84,6.85,5.01,6.72,5.14,6.59,5.34,6.46,5.47,6.33,5.6,6.2,5.76,6.05,5.92,5.92,6.05,5.75,6.19,5.63,6.32,5.46,6.48,5.33,6.61,5.14,6.71,5.01,6.84,4.82,6.97,4.69,7.1,4.49,7.24,4.33,7.3,4.17,7.46,3.97,7.53,3.82,7.66,3.62,7.76,3.43,7.86,3.26,7.99,3.07,8.05,2.88,8.15,2.65,8.21,2.49,8.35,2.26,8.41,2.07,8.48,1.88,8.57,1.65,8.64,1.45,8.71,1.23,8.8,1,8.87.81,8.9.58,9,.33,9.03.13,9.1-.13,9.1-.33,9.07-.58,8.97-.81,8.94-1,8.84-1.23,8.8-1.45,8.71-1.65,8.67-1.88,8.54-2.07,8.51-2.26,8.41-2.49,8.31-2.65,8.25-2.88,8.15-3.07,8.05-3.26,7.95-3.43,7.86-3.62,7.76-3.82,7.66-3.97,7.56-4.17,7.43-4.33,7.33-4.49,7.2-4.69,7.1-4.82,6.97-5.01,6.84-5.14,6.74-5.33,6.58-5.46,6.48-5.63,6.32-5.75,6.22-5.92,6.02-6.05,5.92-6.2,5.76-6.33,5.63-6.46,5.47-6.59,5.31-6.72,5.17-6.85,4.97-6.98,4.84-7.08,4.68-7.21,4.48-7.34,4.36-7.44,4.15-7.56,3.96-7.66,3.83-7.75,3.6-7.85,3.43-7.95,3.27-8.08,3.04-8.14,2.88-8.24,2.69-8.31,2.45-8.4,2.29-8.5,2.06-8.57,1.86-8.66,1.67-8.69,1.44-8.79,1.21-8.89,1.02-8.92.82-8.98.56-9.02.33-9.11.13-9.11-.13-9.05-.33-8.99-.56-8.92-.82-8.86-1.02-8.79-1.21-8.73-1.44-8.63-1.67-8.57-1.86-8.5-2.06-8.4-2.29-8.34-2.45-8.24-2.69-8.14-2.88-8.05-3.04-7.95-3.27-7.85-3.43-7.76-3.6-7.66-3.83-7.56-3.96-7.44-4.15-7.34-4.36-7.21-4.48-7.11-4.68-6.95-4.84-6.85-4.97-6.72-5.17-6.59-5.31-6.5-5.47-6.3-5.63-6.21-5.76-6.04-5.92-5.92-6.02-5.79-6.22-5.59-6.32-5.49-6.48-5.3-6.58-5.14-6.74-5.01-6.84-4.85-6.97-4.65-7.1-4.49-7.2-4.33-7.33-4.17-7.43-3.98-7.56-3.81-7.66-3.62-7.76-3.46-7.86-3.23-7.95-3.07-8.05-2.88-8.15-2.65-8.25-2.49-8.31-2.29-8.41-2.07-8.51-1.84-8.54-1.68-8.67-1.42-8.71-1.23-8.8-1.04-8.84-.77-8.94-.58-8.97-.32-9.07-.13-9.1h0ZM51.79,400.91l.13-9,.32-8.97.58-8.87.77-8.84,1.01-8.77,1.23-8.71,1.42-8.64,1.64-8.54,1.84-8.51,2.04-8.38,2.26-8.34,2.46-8.25,2.65-8.15,2.85-8.05,3.01-7.99,3.23-7.89,3.39-7.76,3.59-7.69,3.78-7.59,3.94-7.46,4.1-7.36,4.3-7.27,4.46-7.14,4.62-7.01,4.78-6.9,4.95-6.78,5.11-6.68,5.27-6.51,5.4-6.42,5.56-6.25,5.72-6.15,5.85-5.99,5.98-5.86,6.14-5.7,6.27-5.57,6.4-5.4,6.53-5.27,6.66-5.11,6.79-4.94,6.92-4.78,7.01-4.61,7.14-4.49,7.24-4.29,7.37-4.09,7.46-3.96,7.6-3.76,7.69-3.6,7.76-3.4,7.88-3.21,7.98-3.04,8.05-2.81,8.18-2.65,8.24-2.46,8.3-2.26,8.41-2.06,8.5-1.83,8.56-1.64,8.63-1.44,8.7-1.21,8.76-1.01,8.86-.79,8.89-.55,8.95-.33,9.02-.13,9.02.13,8.95.33,8.89.55,8.82.79,8.79,1.01,8.69,1.21,8.63,1.44,8.56,1.64,8.47,1.83,8.4,2.06,8.34,2.26,8.24,2.46,8.15,2.65,8.08,2.81,7.98,3.04,7.85,3.21,7.79,3.4,7.69,3.6,7.56,3.76,7.5,3.96,7.37,4.09,7.24,4.29,7.14,4.49,7.01,4.61,6.92,4.78,6.79,4.94,6.66,5.11,6.53,5.27,6.39,5.4,6.27,5.57,6.11,5.7,6.01,5.86,5.85,5.99,5.72,6.15,5.56,6.25,5.4,6.42,5.27,6.51,5.11,6.68,4.94,6.78,4.78,6.9,4.62,7.01,4.46,7.14,4.3,7.27,4.11,7.36,3.94,7.46,3.75,7.59,3.59,7.69,3.43,7.76,3.2,7.89,3.04,7.99,2.84,8.05,2.65,8.15,2.46,8.25,2.26,8.34,2.04,8.38,1.84,8.51,1.65,8.54,1.42,8.64,1.23,8.71,1,8.77.77,8.84.58,8.87.32,8.97.13,9-.13,9-.32,8.97-.58,8.9-.77,8.83-1,8.77-1.23,8.71-1.42,8.6-1.65,8.58-1.84,8.47-2.04,8.41-2.26,8.31-2.46,8.25-2.65,8.15-2.84,8.08-3.04,7.96-3.2,7.89-3.43,7.79-3.59,7.66-3.75,7.6-3.94,7.46-4.11,7.36-4.3,7.27-4.46,7.14-4.62,7.04-4.78,6.91-4.94,6.77-5.11,6.64-5.27,6.55-5.4,6.38-5.56,6.29-5.72,6.12-5.85,5.99-6.01,5.86-6.11,5.69-6.27,5.57-6.39,5.44-6.53,5.24-6.66,5.1-6.79,4.94-6.92,4.81-7.01,4.62-7.14,4.45-7.24,4.29-7.37,4.12-7.5,3.93-7.56,3.76-7.69,3.6-7.79,3.4-7.85,3.21-7.98,3.05-8.08,2.85-8.15,2.65-8.24,2.45-8.34,2.22-8.4,2.07-8.47,1.83-8.56,1.67-8.63,1.41-8.69,1.21-8.79,1.01-8.82.79-8.89.56-8.95.36-9.02.09-9.02-.09-8.95-.36-8.89-.56-8.86-.79-8.76-1.01-8.7-1.21-8.63-1.41-8.56-1.67-8.5-1.83-8.41-2.07-8.3-2.22-8.24-2.45-8.18-2.65-8.05-2.85-7.98-3.05-7.88-3.21-7.76-3.4-7.69-3.6-7.6-3.76-7.46-3.93-7.37-4.12-7.24-4.29-7.14-4.45-7.01-4.62-6.92-4.81-6.79-4.94-6.66-5.1-6.53-5.24-6.4-5.44-6.27-5.57-6.14-5.69-5.98-5.86-5.85-5.99-5.72-6.12-5.56-6.29-5.4-6.38-5.27-6.55-5.11-6.64-4.95-6.77-4.78-6.91-4.62-7.04-4.46-7.14-4.3-7.27-4.1-7.36-3.94-7.46-3.78-7.6-3.59-7.66-3.39-7.79-3.23-7.89-3.01-7.96-2.85-8.08-2.65-8.15-2.46-8.25-2.26-8.31-2.04-8.41-1.84-8.47-1.64-8.58-1.42-8.6-1.23-8.71-1.01-8.77-.77-8.83-.58-8.9-.32-8.97-.13-9h0ZM714.91,468.81c2.8.33,4.46-.88,4.95-3.67.52-2.93-.61-4.72-3.36-5.36l-29.88-5.27,1.15-6.49c.28-2.5-.88-4.06-3.48-4.67-2.5-.29-4.04.79-4.64,3.24l-3.88,22c-.23,2.19.89,3.58,3.33,4.17,2.81.34,4.4-.57,4.78-2.73l1.14-6.48,29.88,5.27h0ZM702.36,512.02c2.73.72,4.54-.26,5.42-2.95.87-2.68-.02-4.53-2.65-5.55l-32.66-10.61c-2.88-.77-4.83.16-5.86,2.79-.72,2.74.31,4.64,3.1,5.71l32.66,10.62h0ZM649.81,532.37c-3.64,8.53-1.83,14.99,5.43,19.39,6.87,2.09,12.17.13,15.93-5.87,3.67-3.76,6.35-5.21,8.02-4.36,2.87,1.64,3.47,4.24,1.84,7.8-.64,1.25-1.95,2.78-3.93,4.59-1.48,1.54-2.4,2.65-2.75,3.35-1.01,2.3-.35,4.13,1.95,5.49,3.71,1.71,7.8-1.66,12.27-10.11,4.01-8.87,2.37-15.52-4.9-19.92-8.11-2.38-14.12-.42-18.02,5.87-3.18,3.48-5.54,4.82-7.08,4.04-2.02-1.2-2.39-3.24-1.11-6.11.57-1.12,1.56-2.37,2.98-3.77,1.13-1.18,1.83-2.05,2.12-2.61,1-2.3.27-4.17-2.17-5.59-3.22-1.29-6.74,1.32-10.58,7.81h0ZM571.51,673.53c1.77,1.28,3.58,1.32,5.41.14,1.8-.98,2.49-2.65,2.08-5.01l-7.27-35.37c-.17-.83-.42-1.51-.76-2.03-1.71-2.07-3.84-2.46-6.38-1.19-1.45.94-2.07,2.56-1.89,4.87l5.89,25.91-21.47-15.79c-1.9-1.2-3.58-1.33-5.03-.39-2.28,1.67-2.71,3.73-1.31,6.19.34.52.8,1.07,1.35,1.65l29.36,21.03h0ZM527.97,695.23c1.34,2.49,3.28,3.14,5.84,1.95,2.56-1.2,3.31-3.1,2.26-5.73l-14.51-31.12c-1.41-2.64-3.42-3.42-6.04-2.38-2.5,1.34-3.18,3.39-2.07,6.15l14.51,31.12h0ZM466.74,716.01c.93,2.67,2.75,3.62,5.47,2.84,2.71-.78,3.75-2.55,3.13-5.3l-6.23-21.7.22-.06,25.26,18.94c1.21.79,2.56.98,4.07.55,2.71-.77,3.76-2.55,3.13-5.3l-9.47-33.01c-.97-2.82-2.84-3.91-5.59-3.29-2.67.93-3.67,2.85-3,5.76l6.29,21.94-.23.07-25.31-19.18c-1.25-.95-2.65-1.28-4.2-1-2.67.93-3.67,2.85-3,5.75l9.46,33.01h0ZM401.35,710.27c1.87,10.54,8.47,15.71,19.78,15.51,11.02-1.75,16.53-7.98,16.54-18.69l-1.89-21.55c-.41-2.96-2.04-4.38-4.86-4.3-2.8.4-4.15,2.09-4.04,5.07l1.85,21.1c.06,6.13-2.7,9.67-8.28,10.64-5.82.2-9.22-2.81-10.24-9.01l-1.85-21.1c-.42-2.96-2.04-4.38-4.86-4.3-2.81.41-4.15,2.1-4.05,5.08l1.88,21.55h0ZM342.61,695.12c-2.62-.5-4.31.45-5.08,2.85-.49,2.63.55,4.33,3.09,5.13l5.94,1.48c-1.75,5.71-5.87,7.99-12.38,6.85-6.73-2.16-9.26-7.56-7.6-16.2,2.58-8.41,7.35-11.98,14.31-10.74,3.05.76,5.71,2.4,7.99,4.91,1.25,1.44,2.41,2.3,3.48,2.57,2.33.41,3.88-.66,4.67-3.2,0-5.17-4.71-9.25-14.15-12.26-12.7-2.19-21.18,3.29-25.43,16.45-2.39,13.47,2.56,22.14,14.84,26,12.14,2.55,20.12-2.25,23.95-14.38,1.1-3.77-.17-6.1-3.83-7.01l-9.81-2.45h0ZM254.94,686.57c-1.05,2.62-.3,4.53,2.27,5.73,2.55,1.19,4.5.54,5.84-1.95l9.54-20.46.21.1,6.63,30.87c.39,1.39,1.3,2.42,2.72,3.08,2.55,1.19,4.51.54,5.84-1.95l14.51-31.12c1.12-2.76.43-4.81-2.06-6.15-2.63-1.05-4.64-.26-6.04,2.38l-9.64,20.68-.22-.1-6.52-31.08c-.32-1.53-1.17-2.7-2.52-3.51-2.63-1.05-4.64-.26-6.04,2.38l-14.51,31.12h0ZM222.77,667.53c-1.41,2.45-.93,4.45,1.45,5.99,2.36,1.54,4.38,1.16,6.05-1.12l18.7-28.8c1.49-2.58,1.1-4.71-1.18-6.38-2.46-1.41-4.56-.9-6.32,1.51l-18.7,28.8h0ZM192.47,651.37c.15,2.1.67,3.48,1.57,4.12,2.02,1.52,3.8,1.72,5.33.58.87-.9,1.18-2.24.92-4.01l-.41-4.66c4.42-.74,8.6-3.14,12.52-7.2,8.79-10.7,8.95-20.78.46-30.29-9.91-8.25-19.98-7.74-30.24,1.53-8.8,10.47-8.85,20.45-.15,29.94,3.05,2.94,6.08,4.89,9.09,5.83l.9,4.15h0ZM137.31,591.06c7.89,10.19,17.75,11.69,29.6,4.55,10.67-8.82,12.75-18.69,6.23-29.64-8.15-9.99-18.13-11.41-29.98-4.27-10.64,8.6-12.58,18.38-5.85,29.36h0ZM103.12,516.45s-.15.07-.43.19c-.64.11-1.17.26-1.6.45-2.23,1.17-2.8,2.97-1.71,5.4.89,2.01,2.36,2.99,4.39,2.94l5.92-.58,6.79,15.25-4.49,3.8c-1.4,1.48-1.65,3.23-.75,5.23,1.08,2.43,2.73,3.25,4.95,2.42.57-.26,1.22-.71,1.96-1.38l25.08-24.04c2.43-2.63,3.04-5.31,1.83-8.03-1.36-2.65-3.72-3.91-7.09-3.78l-34.84,2.12h0ZM84.15,456.38c-2.71.79-3.76,2.56-3.12,5.31.63,2.75,2.34,3.88,5.13,3.4l12.83-2.96,4.23,18.33-12.83,2.96c-2.71.79-3.74,2.64-3.07,5.54.63,2.75,2.35,3.88,5.13,3.4l33.46-7.73c2.87-.82,4.06-2.63,3.58-5.41-.83-2.87-2.7-4.04-5.65-3.52l-12.38,2.85-4.23-18.33,12.38-2.86c2.87-.83,4.06-2.63,3.58-5.41-.79-2.72-2.65-3.82-5.59-3.3l-33.46,7.72h0ZM84.09,407.54l26.9,18.58c1.27.93,2.61,1.37,4.03,1.35,2.65-.36,4.04-2.04,4.15-5.01l-.38-22.11c-.21-2.66-1.57-4.05-4.08-4.16-2.5.2-3.82,1.63-3.92,4.3l.28,15.76-27.39-18.81c-.95-.77-2.13-1.14-3.55-1.11-2.66.2-4.04,1.87-4.15,5.01l.42,23.75c.36,2.66,1.72,4.04,4.07,4.17,2.5-.21,3.82-1.63,3.93-4.3l-.31-17.4h0ZM645.7,608.12c2.32,1.61,4.35,1.31,6.09-.92,1.74-2.22,1.54-4.26-.59-6.13l-10.38-8.11h0l21.04-.57c1.1-.14,2.13-.82,3.09-2.05,1.52-2.2,1.32-4.23-.58-6.13-.65-.7-1.57-.92-2.76-.67l-14.94,1.17c3.32-6.55,2.63-11.78-2.09-15.66-7.17-5.6-13.84-4.45-20.02,3.46l-6.51,8.34c-1.84,2.35-1.51,4.5.95,6.43l26.69,20.85h0ZM609.53,644.5c2.07,1.92,4.17,1.96,6.32.1l11.16-10.78c1.81-1.97,1.85-3.96.1-5.99-1.96-1.82-3.9-1.79-5.82.07l-7.95,7.68-6.37-6.6,7.1-6.86c1.81-1.97,1.9-4.02.28-6.15-2.09-1.7-4.14-1.68-6.16.06l-7.1,6.86-6.04-6.26,7.62-7.35c1.8-1.96,1.83-3.96.1-5.98-1.85-1.7-3.8-1.68-5.82.05l-10.83,10.46c-2.14,2.07-2.02,4.35.38,6.83l23.04,23.86h0ZM721.7,415.3c2.66-.12,4.02-1.66,4.08-4.64.05-2.82-1.26-4.34-3.91-4.55l-16.24-.28-15.79-11.57c-.78-.64-1.63-.96-2.57-.98-2.68.26-4.19,1.73-4.55,4.39-.03,1.42.59,2.68,1.82,3.8l12.32,8.68-12.61,8.48c-1.27.92-1.93,2.17-1.95,3.73.12,2.51,1.59,3.87,4.4,4.07.47.01,1.17-.05,2.12-.19.15-.16.31-.22.47-.22l16.18-11.01,16.23.28h0ZM198.83,634.62l.4,3.66c2.42-.94,4.62-2.42,6.58-4.44,5.76-6.64,6.21-12.65,1.35-17.99-5.4-4.56-11.32-3.85-17.76,2.14-5.76,6.65-6.27,12.59-1.52,17.83,1.02.98,2.09,1.79,3.21,2.44l-.05-2.99c-.02-1.11.24-1.94.79-2.51,2.18-1.81,4.18-1.96,5.98-.45.67.66,1.02,1.43,1.03,2.31h0ZM143.66,586.61c4.4,5.73,10.39,6.23,17.98,1.49,6.92-5.43,8.51-11.22,4.76-17.41-4.43-5.51-10.38-5.94-17.85-1.29-6.92,5.42-8.55,11.16-4.89,17.21h0ZM136.45,521.94l-18.19,1.93,4.59,10.31,13.6-12.24h0ZM627.3,582.4l8.33,6.51,3.76-4.82c2.11-2.94,1.9-5.48-.59-7.63-2.82-2-5.4-1.63-7.74,1.12l-3.76,4.82Z"/>
    </g>
  </g>
</svg>