<svg xmlns="http://www.w3.org/2000/svg" xmlns:xlink="http://www.w3.org/1999/xlink" width="68.63949584960938" height="68.6395034790039" viewBox="0 0 68.63949584960938 68.6395034790039" fill="none">
<path d="M34.3183 68.6395C15.395 68.6395 0 53.2431 0 34.3177C0 15.3923 15.395 0 34.3183 0C53.2416 0 68.6395 15.395 68.6395 34.3177C68.6395 53.2404 53.2433 68.6395 34.3183 68.6395ZM34.3183 1.0703C15.9856 1.0703 1.0708 15.9859 1.0708 34.3177C1.0708 52.6495 15.9856 67.569 34.3183 67.569C52.651 67.569 67.5683 52.6528 67.5683 34.3177C67.5683 15.9826 52.6533 1.0703 34.3183 1.0703Z"   fill="#274B8F" >
</path>
<path d="M34.3183 1.66991C16.2882 1.66991 1.66959 16.2888 1.66959 34.3177C1.66959 52.3466 16.2882 66.9697 34.3183 66.9697C52.3484 66.9697 66.9699 52.3508 66.9699 34.3177C66.9699 16.2846 52.3507 1.66991 34.3183 1.66991ZM34.3183 56.6354C21.9955 56.6354 12.0044 46.644 12.0044 34.3189C12.0044 21.9938 21.9955 12.0045 34.3183 12.0045C46.6411 12.0045 56.6353 21.9959 56.6353 34.3189C56.6353 46.6419 46.6434 56.6354 34.3183 56.6354Z"   fill="#274B8F" >
</path>
<path d="M59.3002 17.9742C59.4781 18.0727 59.7111 17.7237 59.7682 17.5968C59.7757 17.5778 59.7853 17.558 59.7874 17.5359C59.7979 17.3877 59.7743 17.3131 59.6622 17.2351C59.5448 17.1535 59.5495 17.367 59.0075 16.8314C59.0288 16.7545 59.2151 16.6765 59.2326 16.6564C59.3176 16.5582 59.4248 16.5355 59.3619 16.412C59.3561 16.4018 59.3502 16.3914 59.3415 16.382C59.3156 16.3468 59.1548 16.2108 59.1222 16.1825C59.0081 16.085 58.886 16.1936 58.745 16.2221C58.6044 16.2498 58.4532 16.2757 58.3126 16.2446C58.2284 16.2268 58.0245 16.3153 57.9421 16.3418C57.8306 16.3774 57.7097 16.4362 57.6585 16.5454C57.6122 16.6421 57.7164 16.6931 57.5644 16.7102C57.5012 16.7161 57.3736 16.7752 57.3163 16.8031C57.1133 16.8923 56.7996 17.0259 56.6138 17.1279C56.3051 17.2997 56.0057 17.473 55.6827 17.6224C55.3481 17.775 55.0103 17.9183 54.6695 18.0572C54.5519 18.105 54.415 18.1714 54.2868 18.1775C54.1511 18.183 54.2041 18.082 54.2572 18.0039C54.2729 17.9803 54.1948 18.0202 54.1663 18.0226C54.1412 18.0243 54.1278 18.0549 54.1057 18.0697C53.9202 18.188 53.97 18.1414 53.8037 18.2858C53.7192 18.3601 53.532 18.5648 53.5812 18.677C53.6863 18.9161 53.8954 18.9376 54.0935 18.7731C54.5679 18.3805 55.0382 18.1953 55.6679 17.925C55.9731 17.7933 56.2445 17.6806 56.4801 17.5895C56.5506 17.5621 56.6735 17.5184 56.7326 17.4943C56.7172 17.708 56.7585 17.9564 56.6715 18.1568C56.6578 18.188 56.6435 18.22 56.6473 18.2523C56.6502 18.2736 56.6613 18.2928 56.6715 18.3114C56.7495 18.4384 56.8619 18.5343 56.9918 18.6042C57.1194 18.6749 57.2688 18.6985 57.4075 18.7387C57.5341 18.7748 57.5968 18.7189 57.7048 18.6752C57.9727 18.5672 58.0822 18.3522 58.1911 18.105C58.2526 17.9678 58.314 17.8304 58.3737 17.6932C58.4265 17.5729 58.7614 17.7406 58.8397 17.7613C59.0153 17.8065 59.147 17.8898 59.3002 17.9742ZM57.1424 18.056C57.0943 18.0089 57.0617 17.9495 57.0332 17.8892C56.972 17.7613 56.9371 17.6888 56.908 17.5516C56.8998 17.5193 56.9106 17.4791 56.903 17.4462C56.8951 17.4113 57.3757 17.2155 57.489 17.1745C57.6535 17.1148 57.8353 17.0388 58.0811 16.9529C58.6676 16.7143 58.7177 16.9505 58.9413 17.0839C59.1709 17.2717 59.1845 17.3382 59.2105 17.4022C59.0264 17.4185 58.8362 17.3918 58.6545 17.3606C58.5584 17.3431 58.4631 17.323 58.3691 17.2988C58.2648 17.2697 58.1661 17.1908 58.0723 17.2866C57.9698 17.3915 57.9421 17.558 57.8868 17.6876C57.7846 17.9314 57.4153 18.3176 57.1424 18.056Z"   fill="#FFFFFF" >
</path>
<path d="M57.6448 18.8759C57.6323 18.8916 57.6177 18.9091 57.6186 18.9283C57.6186 18.944 57.6302 18.9574 57.6419 18.9682C57.7793 19.1097 57.9966 19.1726 58.2133 19.1721C58.616 19.1709 58.9061 19.0136 59.2314 19.4208C59.4359 19.6765 59.5177 19.7141 59.686 19.8993C59.8057 20.0321 59.9327 20.166 60.0646 20.2886C60.1864 20.3982 60.2708 20.4579 60.3623 20.5942C60.4013 20.6539 60.4322 20.7188 60.4686 20.7794C60.4945 20.821 60.5233 20.8633 60.5195 20.9122C60.44 20.8872 60.3605 20.8612 60.2828 20.8356C60.2359 20.8196 60.169 20.7803 60.1168 20.7878C59.9033 20.8181 59.9787 20.9099 60.0466 21.0228C60.127 21.1551 60.2085 21.2876 60.2781 21.4268C60.3725 21.6141 60.4546 21.808 60.5309 22.0029C60.533 22.0072 60.5335 22.013 60.5379 22.0133C60.5385 22.0136 60.5385 22.0139 60.5385 22.0139C60.5431 22.0145 60.5473 22.0139 60.551 22.013C60.6346 21.988 60.7205 21.9656 60.8029 21.9382C60.9174 21.898 61.0295 21.7611 61.1108 21.6796C61.3793 21.4079 61.1416 21.0599 60.994 20.8204C60.9421 20.7369 60.8856 20.6527 60.8064 20.588C60.7147 20.5115 60.6113 20.4453 60.5292 20.3609C60.4447 20.2753 60.3664 20.1384 60.5111 20.0504C60.5962 19.9986 60.71 20.0262 60.7998 19.9846C60.9884 19.8943 60.927 19.6922 60.952 19.5405C60.9797 19.3742 61.0199 19.207 61.0933 19.0474C61.0199 18.877 60.9998 18.8998 60.8504 19.0326C60.7566 19.117 60.6678 19.2038 60.5912 19.3019C60.5644 19.3378 60.5379 19.3756 60.526 19.4158C60.5213 19.4333 60.5195 19.4499 60.5111 19.4642C60.4887 19.5 60.4369 19.509 60.3952 19.5087C60.3684 19.5079 60.3405 19.5043 60.3233 19.4869C60.3102 19.4735 60.3052 19.4534 60.3032 19.4339C60.2944 19.3925 60.2869 19.3497 60.2802 19.3081C60.1931 19.3497 60.1424 19.4266 60.1034 19.5052C60.0908 19.5282 60.0029 19.7126 60.0064 19.7167C59.7924 19.5108 59.6083 19.2818 59.3575 19.1124C59.2504 19.0398 59.149 18.9321 59.2728 18.8144C59.375 18.7157 59.5777 18.6828 59.4248 18.5584C59.3415 18.4915 59.1537 18.4769 59.0447 18.4702C58.8464 18.4565 58.6437 18.476 58.4497 18.4463C58.4017 18.4387 58.3525 18.4291 58.3041 18.4349C58.2628 18.4396 58.2235 18.4553 58.185 18.4725C57.9768 18.5666 57.7901 18.707 57.6448 18.8759Z"   fill="#FFFFFF" >
</path>
<path d="M56.6782 19.2632C56.6951 19.2789 56.7996 19.3276 56.8255 19.3506C56.8512 19.3742 56.9272 19.4962 56.9644 19.5594C57.0006 19.6247 57.2426 20.0397 57.2426 20.0397L57.2793 20.1037L57.2991 20.1527C57.2991 20.1527 57.1852 20.0239 57.3157 20.1961C57.4459 20.3699 57.7694 20.6355 57.8009 20.6731C57.8335 20.7107 58.0018 20.7975 58.0018 20.7975C58.0018 20.7975 58.0333 20.8787 58.0723 20.9037C58.109 20.9285 58.4841 21.0502 58.5048 21.0642C58.5269 21.0788 58.6522 21.1347 58.6705 21.1731C58.6927 21.2098 58.7261 21.4262 58.7261 21.4262L58.7177 21.5468C58.7177 21.5468 58.7401 21.6898 58.7229 21.7186C58.7078 21.748 58.5269 21.8025 58.5269 21.8025L58.277 21.654C58.277 21.654 58.0677 21.4775 57.5268 21.3319C56.9863 21.1851 55.6504 20.8132 55.6504 20.8132L54.897 20.6276L54.2874 20.3909C54.2874 20.3909 54.083 20.2575 54.0745 20.233C54.0643 20.208 54.0658 20.0117 54.0658 20.0117L54.1742 19.9459L54.3419 19.9022L54.4348 19.9389C54.4348 19.9389 54.5519 19.9782 54.5883 20.0143C54.6247 20.0496 54.7546 20.1791 54.7546 20.1791C54.7546 20.1791 54.9439 20.3335 55.9469 20.5845C55.9469 20.5845 56.4379 20.6774 56.5162 20.6914C56.5958 20.706 56.8684 20.7602 56.8684 20.7602L57.198 20.8213L57.3702 20.8318L57.3873 20.7634C57.3873 20.7634 57.2435 20.6853 57.1843 20.6472C57.124 20.6096 56.6971 20.3792 56.6802 20.3798C56.6636 20.381 56.4434 20.2773 56.4187 20.2418C56.393 20.2063 56.2634 19.9764 56.262 19.9441C56.2599 19.9104 56.1822 19.7839 56.2302 19.6651C56.2783 19.5434 56.4003 19.3838 56.4003 19.3838L56.5593 19.276L56.6782 19.2632Z"   fill="#FFFFFF" >
</path>
<path d="M57.4776 21.3493C57.4878 21.3677 57.5431 21.5305 57.5431 21.5305C57.5431 21.5305 57.4965 21.6988 57.4878 21.7204C57.4788 21.7402 57.3804 21.8284 57.3297 21.8278C57.2784 21.8273 57.1767 21.7908 56.9505 21.8477C56.7262 21.9036 56.4271 21.9641 56.4271 21.9641C56.4271 21.9641 56.133 22.0043 56.0529 22.1919L56.0246 22.3232L56.0529 22.5501L56.4053 23.3591L56.6983 23.8309C56.6983 23.8309 56.8264 24.0261 56.8602 24.0631C56.8934 24.0998 57.1817 24.3237 57.1817 24.3237L57.6468 24.4536C57.6468 24.4536 57.8906 24.451 57.9104 24.4481C57.9331 24.444 57.991 24.3968 58.0056 24.3901C58.021 24.3837 58.0839 24.3345 58.0773 24.3823C58.0688 24.4312 57.9814 24.5206 57.9739 24.5398C57.9646 24.5611 57.8009 24.6534 57.7619 24.6828C57.722 24.7099 57.3317 24.9001 57.2379 24.9056C57.1441 24.912 56.9155 24.8561 56.8037 24.8194C56.6904 24.7833 56.6243 24.7597 56.5969 24.7489C56.569 24.7376 56.3901 24.5593 56.3517 24.4958C56.3135 24.4326 56.0328 23.8309 55.9912 23.7698C55.9469 23.7089 55.6312 22.987 55.6283 22.9642C55.6253 22.9438 55.5997 22.7778 55.5997 22.7778C55.5997 22.7778 55.556 22.4907 55.5758 22.454C55.5939 22.4179 55.6819 22.2539 55.7049 22.2277C55.7279 22.2006 55.722 22.0672 55.8388 21.9714C55.9565 21.8741 56.2672 21.748 56.329 21.7329C56.3901 21.718 57.0629 21.4985 57.0868 21.4996C57.1098 21.5014 57.3058 21.4402 57.3203 21.4338C57.334 21.4274 57.4543 21.308 57.4776 21.3493Z"   fill="#FFFFFF" >
</path>
<path d="M59.3089 20.9072C59.3671 20.856 59.4286 20.7902 59.4315 20.7852C59.4411 20.7666 59.4371 20.5944 59.4132 20.5542C59.3881 20.5123 59.2655 20.323 59.2105 20.2622C59.1548 20.2007 58.9891 20.0193 58.9548 19.9954C58.9192 19.9727 58.42 19.7251 58.42 19.7251C58.42 19.7251 58.1809 19.608 58.1434 19.5868L58.1836 19.6782L58.2756 19.8457C58.2756 19.8457 58.3519 20.063 58.3816 20.1311C58.4122 20.1989 58.4497 20.3169 58.4521 20.3626C58.4556 20.4078 58.5686 20.591 58.6085 20.6425C58.6495 20.6935 58.7311 20.7602 58.7864 20.7977C58.8141 20.817 58.8397 20.8382 58.8581 20.856L58.7197 20.8432L58.8024 20.888C58.8024 20.888 59.0153 20.9972 59.0381 21.0033C59.0409 21.0036 59.0447 21.0036 59.0468 21.0051C59.0829 21.0179 59.1234 21.0272 59.1685 21.0246C59.2 21.0228 59.2498 20.9597 59.3089 20.9072Z"   fill="#FFFFFF" >
</path>
<path d="M48.472 7.3983C48.7306 6.9521 48.6174 7.0113 48.4805 6.7794C48.1176 6.4524 48.201 6.6496 47.9481 6.5727C47.9154 6.5532 47.7382 6.4433 47.641 6.4298C47.5596 6.682 47.6892 6.9349 47.7999 7.1194C47.6438 7.309 47.503 7.5445 47.2429 7.8544C47.1706 7.9862 47.0801 8.0842 47.0075 8.2164C46.9745 8.1978 46.9013 8.3014 46.8683 8.2834C46.8874 8.1941 46.9984 8.1521 46.9773 8.0392C46.9125 7.6896 47.0503 7.5746 47.2272 7.5425C47.3993 7.3518 47.3931 7.2972 47.3393 7.12C47.2418 7.0228 47.143 6.9901 47.0401 6.9724C47.0342 7.0065 47.0049 6.9983 47.0038 7.0352C47.0001 7.1101 47.0337 7.2625 46.9607 7.3248C46.7522 7.4989 46.7348 7.669 46.6669 8.0316C46.6494 8.0648 46.4297 8.2724 46.4119 8.3057C46.5274 8.3693 46.5626 8.429 46.7385 8.4721C46.6846 8.5721 46.6108 8.7364 46.557 8.8361C46.0037 8.6634 45.8812 8.613 44.8733 8.4023C44.5057 8.3147 44.7307 8.3657 44.7307 8.2933C45.004 7.8358 45.2753 7.3794 45.5469 6.9228C45.5787 6.8 45.5238 6.5963 45.6933 6.4191C45.7722 6.33801 45.8711 6.30901 45.9846 6.12501C46.0981 6.27321 46.2153 6.4138 46.3283 6.5628C46.1525 6.7096 46.0099 6.802 45.799 6.8622C45.7294 6.8921 45.684 6.8884 45.6297 6.9234C45.9342 7.0377 46.3218 7.0045 46.5539 6.8757C46.5877 6.8943 46.5914 6.9301 46.6246 6.9481C46.3469 7.2541 46.1685 7.467 45.9778 7.662C45.9528 7.6211 45.8728 7.4932 45.7914 7.4084C45.6916 7.3023 45.6987 7.3273 45.5313 7.1868C45.5578 7.4606 45.6575 7.7755 45.5852 7.9186C45.4629 8.0375 45.4359 7.9651 45.3144 8.1223C45.2998 8.0713 45.3102 7.9397 45.2956 7.8893C45.2407 7.9082 45.1122 8.0735 45.0567 8.0938C45.0054 8.2149 44.9925 8.2268 45 8.3071C44.9908 8.3245 45.0178 8.3628 45.0074 8.3795C45.288 8.4234 45.3849 8.2454 45.6271 8.1986C45.6973 8.169 45.7249 8.2668 45.7435 8.315C45.7806 8.4105 45.9156 8.5104 46.0088 8.4476C46.1133 8.3789 46.1671 8.2363 46.1685 8.1178C46.1685 7.9989 46.0804 7.8251 46.0849 7.8172C46.1063 7.7769 46.2136 7.6961 46.2984 7.5659C46.388 7.4282 46.4565 7.2411 46.5401 7.1459C46.5914 7.0879 46.6663 6.9907 46.7641 7.0479C46.8393 7.0915 46.9069 7.0425 46.9311 7.0203C47.0663 6.8918 46.9598 6.7577 46.9711 6.7541C47.0393 6.7253 47.0911 6.6715 47.1542 6.6343C47.2038 6.6045 47.2624 6.5898 47.3128 6.5636C47.4114 6.5143 47.4289 6.4211 47.4596 6.32481C47.4771 6.26871 47.4911 6.21211 47.4953 6.15381C47.503 6.06791 47.4855 5.98781 47.4494 5.91061C47.4283 5.86391 47.4021 5.81991 47.3779 5.77521C47.3644 5.75071 47.352 5.72591 47.3393 5.70021C47.3339 5.68751 47.2968 5.62561 47.3032 5.61461C47.3123 5.59851 47.21 5.45261 47.2207 5.43571C47.0832 5.55741 47.1841 5.95881 46.7072 6.32141C46.6745 6.34841 46.6294 6.36841 46.5931 6.3912C46.446 6.31381 46.3378 6.25691 46.2897 6.16191C46.0432 5.99211 46.0393 5.79431 46.0322 5.56581C45.895 5.49321 45.7897 5.36561 45.6925 5.37511C45.6544 5.39651 45.544 5.65991 45.4359 5.82441C45.3722 5.93991 45.3085 6.05661 45.2454 6.17291C45.2778 6.19151 45.3406 6.09321 45.3747 6.11041C45.4584 6.01881 45.5091 5.94331 45.5601 5.96951C45.5694 5.95291 45.5998 5.99991 45.6082 5.98361C45.6246 5.99211 45.5573 6.07061 45.5739 6.07941C45.5491 6.12191 45.5891 6.36501 45.4705 6.4656C45.3556 6.562 45.4314 6.6462 45.3423 6.8234C45.1254 7.2583 44.7071 7.7842 44.357 8.2682C44.3355 8.2417 44.2707 8.2797 44.306 8.2228C44.3384 8.171 44.4494 7.9685 44.451 7.9042C44.4519 7.8313 44.3372 7.8293 44.3505 7.7389C44.3947 7.4606 44.5448 7.4417 44.6753 7.0935C44.7294 6.9481 44.5818 6.6532 44.5482 6.5101C44.5076 6.33661 44.6116 6.30701 44.6789 6.14021C44.6815 6.13601 44.6837 6.13151 44.6815 6.12701C44.6809 6.12141 44.6744 6.11741 44.6696 6.11261C44.6584 6.10021 44.6584 6.08191 44.6567 6.06611C44.6448 5.98811 44.5468 6.07881 44.5085 6.09381C44.0913 6.26931 44.1761 6.8104 44.082 7.1355C43.9809 7.3186 43.8846 7.4502 43.7837 7.6341C43.7614 7.7741 43.8152 8.0916 43.9206 8.2059C43.6189 8.1873 43.5369 8.1583 43.1079 8.1211C43.0341 8.1147 42.8961 8.0997 42.8969 8.0702C42.8989 8.0155 42.9028 7.9082 42.9053 7.8544C42.9073 7.8116 42.8989 7.7586 42.9053 7.7166C42.9118 7.6811 42.9239 7.6471 42.9248 7.6115C42.9248 7.5989 42.9276 7.5817 42.9164 7.5727C42.9 7.5606 42.8738 7.5882 42.8777 7.5425C42.8318 7.5485 42.8065 7.627 42.7907 7.6611C42.7515 7.7448 42.7211 7.8544 42.6775 7.9349C42.6099 8.0611 42.4859 8.1107 42.3608 8.1701C42.2817 8.2085 42.2003 8.2431 42.1202 8.2811C42.0758 8.3028 42.0295 8.3254 41.9853 8.3499C41.9414 8.3727 41.9008 8.4062 41.8622 8.4378C41.7583 8.5166 41.7456 8.6186 41.7177 8.7183C41.6986 8.7891 41.7033 8.9705 41.7836 8.995C41.8146 9.0045 41.8388 9.0299 41.8667 9.0499C41.9467 9.1003 42.0789 9.1082 42.1676 9.0744C42.233 9.0502 42.2915 9.0079 42.3453 8.9614C42.4696 8.8539 42.5693 8.7183 42.6611 8.5837C42.7248 8.4885 42.7921 8.3479 42.8544 8.2538C42.9544 8.1941 43.3885 8.4076 43.7837 8.5626C43.9586 8.6313 44.1502 8.5476 44.3384 8.5648C45.1313 8.6372 46.6114 8.9062 47.2413 9.3637C47.2325 9.3809 47.2562 9.4553 47.0742 9.4561C46.9142 9.4694 46.9356 9.4989 46.7218 9.5139C46.6435 9.5829 46.679 9.5125 46.6108 9.5415C46.6021 9.5581 46.5336 9.5668 46.5235 9.5829C47.1418 9.7218 47.7108 10.3311 47.9339 10.1601C48.1546 9.8792 48.2103 9.657 48.0489 9.4601C47.9723 9.3668 47.9317 9.3446 47.8675 9.2392C47.7762 9.0862 47.6365 9.0392 47.4816 9.0502C47.4255 9.055 47.2917 9.0775 47.2348 9.0848C47.1734 9.0913 47.0928 9.0468 46.8798 8.9547C47.2207 8.5319 48.1593 7.5403 48.472 7.3983Z" fill-rule="evenodd"  fill="#FFFFFF" >
</path>
<path d="M46.1902 11.2953C46.1838 11.2694 46.1914 11.1869 46.1564 11.1548C46.0905 11.0962 46.0418 11.1004 46.0241 11.0212C45.8021 10.7925 45.6722 10.8905 45.4956 10.8818C45.3471 10.8762 45.2908 10.8736 45.1099 10.8215C45.2353 10.5846 45.2037 10.4066 45.086 10.2145C45.4294 10.1663 45.759 10.1914 46.0849 10.1914C46.2173 10.0595 46.2598 10.0423 46.2505 9.9542C46.27 9.8088 46.2534 9.7578 46.1339 9.6727C46.0708 9.6271 46.1238 9.53331 45.9497 9.4268C45.799 9.4522 45.6739 9.4243 45.4544 9.4333C45.4406 9.433 45.433 9.4316 45.426 9.4316C44.4074 9.31691 44.2336 9.4834 44.1477 9.3868C44.1068 9.3105 44.1307 9.28541 44.2212 9.1375C44.1685 9.1313 44.1623 9.1795 44.1141 9.1502C43.9468 9.19051 43.8403 9.2437 43.7116 9.30651C43.693 9.33951 43.6744 9.3716 43.6544 9.40481C43.5941 9.54031 43.6015 9.64571 43.7107 9.7651C43.8125 9.8029 43.9476 9.8792 44.0476 9.8654C44.2567 9.8372 44.4674 9.7505 44.6837 9.6896C44.8798 9.6339 45.0908 9.5739 45.2899 9.5519C45.2891 9.5524 45.2891 9.55441 45.288 9.5553C45.2981 9.5524 45.3102 9.55081 45.3221 9.5494C45.3465 9.5477 45.3702 9.5449 45.3933 9.5449C45.4928 9.5432 45.6071 9.5688 45.5953 9.675C45.5981 9.7711 45.4609 9.8108 45.3221 9.8547C45.1891 9.89561 44.966 9.9806 44.8296 9.9959C44.753 10.0026 44.6862 9.9829 44.6116 9.9719C44.5893 9.9685 44.5676 9.964 44.5468 9.9719C44.5226 9.979 44.5017 9.9894 44.4798 10.0012C44.4355 10.0274 44.4029 10.0575 44.393 10.11C44.3662 10.2437 44.4696 10.2533 44.5603 10.3159C44.6051 10.3474 44.6333 10.408 44.6502 10.4609C44.6648 10.5122 44.6705 10.5373 44.6584 10.5919C44.6485 10.6333 44.6409 10.6581 44.6164 10.704C44.3133 10.6559 42.7673 10.4483 42.6693 10.277C42.6194 10.2499 42.589 10.186 42.5397 10.1587C42.46 10.2271 42.4696 10.3373 42.4008 10.366C42.4696 10.5604 42.5157 10.6049 42.6065 10.7314C43.0144 11.0057 43.1515 10.8874 43.3902 10.9148C43.8865 10.9691 44.1381 10.9159 44.4854 11.0212C44.2152 11.6728 43.7597 12.0928 43.3229 12.1238C43.0025 12.1463 42.7228 12.0322 42.3163 11.7824C42.3518 11.9607 42.3676 11.9894 42.4605 12.1184C42.6442 12.3368 42.9899 12.5407 43.2239 12.603C44.0023 12.8089 44.44 12.1444 44.9846 11.1114C45.4127 11.2252 45.6018 11.3562 45.9268 11.5134C45.9891 11.5024 46.0821 11.495 46.1145 11.4494C46.1497 11.4018 46.2167 11.3362 46.1902 11.2953Z" fill-rule="evenodd"  fill="#FFFFFF" >
</path>
<path d="M21.0528 8.48079C21.093 8.5091 21.1335 8.53699 21.1751 8.5641C21.222 8.5947 21.2156 8.9089 21.2817 8.8818C21.407 8.83 21.494 8.7487 21.6318 8.7843C21.8625 8.8457 22.0046 8.6637 22.0046 8.4566C22.0046 8.28339 21.8077 8.1118 21.759 8.08759C21.471 7.9443 21.2613 7.9415 20.9503 7.9915C20.9503 7.9915 20.6652 8.0909 20.5886 8.1188C20.4965 8.15349 20.7523 8.2464 20.7523 8.2464C20.8527 8.323 20.9494 8.40569 21.0528 8.48079Z"   fill="#FFFFFF" >
</path>
<path d="M21.9515 11.1611C21.9789 11.2216 21.9955 11.3503 22.0028 11.3565C22.0308 11.38 22.0663 11.4036 22.073 11.4202C22.0826 11.4433 22.0951 11.4138 22.082 11.3471C21.9955 10.9406 22.4662 10.659 22.3934 10.3345C22.3832 10.29 22.2897 10.1764 22.2545 10.1566C22.2204 10.1371 21.9886 10.0931 21.9437 10.103C21.8289 10.1283 21.6863 10.1813 21.5715 10.1283C21.5159 10.103 21.4882 10.0348 21.4308 10.0156C21.3866 10.0002 21.2974 10.02 21.2974 10.02L21.4722 10.3898C21.4722 10.3898 21.6396 10.4778 21.7177 10.5369C21.796 10.5958 21.8077 10.8139 21.8077 10.8139L21.9515 11.1611Z"   fill="#FFFFFF" >
</path>
<path d="M24.8637 10.412C24.8721 10.3677 24.8805 10.3345 24.8852 10.2923C24.8922 10.2291 24.9035 10.1726 24.8872 10.1097C24.875 10.0599 24.8193 9.9903 24.7757 9.9661C24.7402 9.9451 24.7029 9.97721 24.6766 9.9446C24.6193 9.87381 24.5992 9.8054 24.5706 9.7515C24.5162 9.65131 24.5293 9.57411 24.5593 9.47421C24.5829 9.3877 24.5901 9.3041 24.5179 9.23861C24.4603 9.1839 24.3744 9.16061 24.2977 9.1545C24.2558 9.15091 24.0692 9.16461 24.0692 9.16461C24.0692 9.16461 23.8903 9.27731 23.8601 9.29311C23.8242 9.3117 23.846 9.36851 23.8527 9.39531C23.8819 9.4999 23.8166 9.60911 23.7639 9.69611C23.7447 9.72871 23.6757 9.81841 23.6291 9.79461C23.5991 9.77831 23.5906 9.6988 23.5726 9.672C23.5417 9.62971 23.5295 9.4754 23.5295 9.4754C23.5295 9.4754 23.4674 9.2066 23.4616 9.1783C23.4549 9.14951 23.3407 8.8428 23.3407 8.8428L23.3766 8.68791C23.5889 8.28951 23.7715 7.7213 23.8108 7.5716C23.8259 7.5101 23.8446 7.3995 23.7715 7.3735C23.715 7.3534 23.6713 7.3584 23.6168 7.3581C23.5123 7.3566 22.9132 7.2337 22.9132 7.2337C22.9132 7.2337 22.8995 7.1717 22.8908 7.128C22.8823 7.0905 22.8823 6.916 22.8788 6.8441C22.8727 6.7171 22.691 6.642 22.5894 6.6166C22.4729 6.5892 22.3159 6.5823 22.2 6.6114C22.1082 6.6367 22.1187 6.6635 22.0558 6.7497C22.0354 6.775 22.0066 6.8141 21.9947 6.8697C21.981 6.9241 22.082 6.9469 22.082 6.9469C22.082 6.9469 22.1881 6.9489 22.276 7.043C22.3628 7.1362 22.9211 8.4881 22.9082 8.51081C22.8949 8.53351 22.8483 8.6159 22.8259 8.6518C22.8032 8.6876 22.6089 8.8952 22.5046 8.9797C22.4012 9.0638 22.2317 9.15791 22.0989 9.21651C21.9638 9.2744 22.1417 9.3175 22.1417 9.3175C22.1417 9.3175 22.2335 9.3292 22.2702 9.32691C22.3112 9.326 22.3689 9.3385 22.4117 9.34431C22.447 9.34781 22.622 9.3574 22.622 9.3574C23 9.3863 23.1311 9.1664 23.1311 9.1664L23.5155 10.2341C23.5216 10.253 23.4957 10.3089 23.4893 10.3281C23.4799 10.3564 23.4625 10.3811 23.45 10.4099C23.424 10.4644 23.4098 10.4883 23.3684 10.5311C23.362 10.5375 23.3399 10.5867 23.3372 10.5984C23.314 10.6814 23.3888 10.7061 23.4491 10.7723C23.625 10.9645 23.8044 11.051 23.8557 11.0728C23.9066 11.0955 23.9896 11.136 24.0225 11.136C24.054 11.136 24.1198 11.134 24.1236 11.157C24.1303 11.2015 24.1964 11.2446 24.2337 11.2554C24.3764 11.0842 24.554 11.0247 24.2747 10.8314C24.2034 10.7836 24.0854 10.6933 24.0165 10.6444C23.9457 10.5934 23.9119 10.5093 23.8446 10.456C23.7508 10.3811 23.8114 10.2783 23.8213 10.2006C23.8318 10.1242 23.9244 9.842 23.9369 9.8033C23.9494 9.76431 23.985 9.69501 24.0272 9.6825C24.0692 9.66881 24.0846 9.71651 24.0846 9.71651L24.1481 9.9277C24.1679 10.0034 24.2133 10.0788 24.2133 10.1624C24.2147 10.2221 24.2241 10.2597 24.2479 10.3136C24.2605 10.3418 24.2578 10.3607 24.273 10.3872C24.2899 10.4164 24.3036 10.4429 24.3208 10.4708C24.3659 10.5427 24.4317 10.5591 24.5063 10.5838C24.554 10.5958 24.6059 10.6167 24.6536 10.6036C24.7119 10.5861 24.7762 10.5681 24.8167 10.5203C24.8424 10.4898 24.8557 10.4516 24.8637 10.412ZM23.1713 8.09C23.1447 8.02211 23.0527 7.76091 23.0527 7.76091C23.0527 7.76091 22.9284 7.3869 22.9263 7.3444L23.0498 7.393C23.0498 7.393 23.1311 7.4397 23.1579 7.4551C23.187 7.4708 23.3006 7.543 23.3352 7.5794C23.3675 7.6167 23.4709 7.70531 23.4584 7.7332C23.4424 7.7655 23.424 7.7944 23.4057 7.8302C23.383 7.88231 23.288 8.0338 23.288 8.0338C23.288 8.0338 23.2242 8.1371 23.2068 8.1418C23.1896 8.1447 23.187 8.12671 23.1713 8.09Z"   fill="#FFFFFF" >
</path>
<path d="M26.2516 8.8641C26.3591 8.8364 26.365 8.6442 26.365 8.576C26.365 8.4773 26.256 8.3352 26.2147 8.2999C26.1748 8.2641 26.0353 8.2108 25.9994 8.2062C25.9648 8.2018 25.772 8.1307 25.74 8.1118C25.7085 8.0949 25.6322 8.0699 25.627 7.9947C25.6223 7.9179 25.7563 7.7053 25.7886 7.5853C25.8087 7.5095 25.788 7.4341 25.7697 7.3974C25.7516 7.3619 25.735 7.3202 25.6537 7.2943C25.5734 7.2672 25.4388 7.2425 25.3858 7.2492C25.2049 7.2742 25.0011 7.3762 25.0011 7.3762C25.0011 7.3762 24.9094 7.4647 24.8622 7.4114C24.8386 7.3849 24.7908 7.3581 24.7381 7.3401C24.6836 7.3223 24.54 7.3269 24.5011 7.3366C24.4597 7.3453 24.3875 7.3366 24.3391 7.3048C24.2893 7.2742 24.25 7.2608 24.1734 7.2882C24.1734 7.2882 24.2549 7.4545 24.273 7.5116C24.2928 7.5794 24.3601 7.6156 24.4044 7.6563C24.4623 7.7119 24.4766 7.7577 24.5246 7.82C24.6032 7.9202 24.6903 7.9959 24.7649 8.108C24.9915 8.4467 25.2519 8.9465 25.3628 9.3443C25.3765 9.3918 25.5792 10.1304 25.5792 10.1304C25.7009 11.0204 25.5239 11.4622 25.4691 11.512C25.4167 11.5618 25.3724 11.6063 25.3724 11.6063C25.3724 11.6063 25.3896 11.8262 25.4126 11.8489C25.5734 12.01 25.804 11.7325 25.8629 11.6253C25.9665 11.4307 25.9677 11.1479 25.9776 10.9342C26.0263 9.9192 25.6526 8.9494 25.1907 8.0643C25.1907 8.0643 24.9102 7.52 24.9341 7.4862C24.9819 7.4178 25.0893 7.5101 25.1342 7.5326C25.179 7.5544 25.294 7.6362 25.3159 7.6805C25.3392 7.7259 25.3287 7.9347 25.32 7.9845C25.3107 8.0338 25.3287 8.1241 25.4519 8.2842C25.4874 8.3299 25.6701 8.5155 25.7056 8.5641C25.7411 8.613 25.9581 8.7814 25.9843 8.7991C26.0163 8.8224 26.1331 8.8935 26.2516 8.8641Z"   fill="#FFFFFF" >
</path>
<path d="M28.1103 9.8671C28.0474 9.7861 27.85 9.6393 27.85 9.6393C27.5602 9.3825 27.1507 8.602 27.1507 8.602C26.3341 7.2434 26.0647 6.50561 25.9828 6.23281C25.9019 5.96021 25.8445 5.77641 25.7947 5.70131C25.7443 5.62531 25.6695 5.60781 25.4452 5.54141C25.3392 5.50871 25.2265 5.51201 25.119 5.53211C25.0777 5.54141 24.9169 5.56181 24.9134 5.61651C24.912 5.63401 24.9035 5.65001 24.9035 5.66781C24.9026 5.69081 24.8884 5.71141 24.8779 5.73301C24.8511 5.79681 24.8234 5.84341 24.7841 5.91071C24.7603 5.95201 24.7288 6.01671 24.6962 6.07081C24.6032 6.22201 24.5945 6.23691 24.4597 6.47071C24.4233 6.5353 24.3324 6.6719 24.3065 6.7506L24.3106 6.8551L24.3592 6.8543C24.4492 6.7582 24.4664 6.7296 24.5226 6.66C24.5782 6.5919 24.67 6.49021 24.7276 6.42671C24.8261 6.31781 24.8435 6.30151 24.9169 6.21761C24.9897 6.13701 25.1336 5.96341 25.2049 6.10931C25.2087 6.11771 25.424 6.5246 25.424 6.5246C25.5591 6.8158 26.9066 8.9474 26.923 8.9736C26.987 9.0775 27.1481 9.3647 27.34 9.66C27.4859 9.8825 27.6234 10.1397 27.2681 10.1976C27.0802 10.2282 26.9136 10.1799 26.6876 10.1397C26.683 10.1391 26.6474 10.186 26.6474 10.186C26.6742 10.2125 26.715 10.2288 26.7465 10.2471C26.8012 10.278 26.8539 10.3106 26.9066 10.3441C27.0118 10.4108 27.1315 10.4516 27.245 10.4991C27.5363 10.6211 27.8474 10.6817 28.1584 10.7353C28.1852 10.7393 28.2128 10.7434 28.2399 10.7364C28.5172 10.6622 28.4091 10.3441 28.3477 10.1831C28.2856 10.0156 28.1723 9.9466 28.1103 9.8671Z"   fill="#FFFFFF" >
</path>
<path d="M22.1857 11.6075C22.1857 11.6075 22.6566 12.3234 22.8585 12.2773L22.9161 12.2372C22.9161 12.2372 22.8981 12.0898 22.8806 12.0543C22.862 12.0185 22.8788 11.987 22.8981 11.9553C22.915 11.9235 22.9601 11.4418 22.9601 11.4418C22.9601 11.4418 22.9945 10.9892 22.9945 10.8995L22.9945 10.6758C22.9945 10.6758 23.0786 10.7117 23.0842 10.7423C23.0883 10.7743 23.1515 11.0111 23.1648 11.1045C23.1782 11.1995 23.3489 11.874 23.3489 11.874C23.3489 11.874 23.6099 12.527 23.6328 12.5942C23.655 12.6609 23.7095 12.8799 23.7095 12.9248C23.7095 12.9696 23.7409 13.1435 23.5172 13.2335C23.5172 13.2335 23.3245 13.2515 23.2845 13.2384C23.2441 13.2259 23.0836 13.1048 23.0836 13.1048C23.0836 13.1048 22.8908 13.0331 22.8634 12.9807C22.8375 12.9262 22.7379 12.6621 22.7152 12.6178C22.6933 12.5729 22.5093 12.3184 22.4959 12.291C22.4825 12.2648 22.2431 11.8588 22.1857 11.6075Z"   fill="#FFFFFF" >
</path>
<path d="M13.0333 18.6073C12.9456 18.6582 12.9723 18.731 12.9574 18.7537C12.9435 18.7763 12.8299 18.8277 12.8299 18.8277C12.8299 18.8277 12.7452 18.976 12.7345 19.0186C12.7244 19.0602 12.7025 19.2892 12.7025 19.2892L12.6364 19.4976C12.6364 19.4976 12.541 19.6488 12.5071 19.6272C12.4719 19.604 12.4389 19.5683 12.4389 19.5683L12.2523 19.1434C12.2523 19.1434 11.971 18.5364 11.9665 18.5065C11.9492 18.3837 11.8289 18.2794 11.8228 18.2272C11.8116 18.1363 11.4702 18.1509 11.383 18.1848C11.3331 18.2045 11.202 18.2634 11.202 18.2634C11.202 18.2634 11.0362 18.3762 10.9863 18.4058C10.9445 18.4308 10.8184 18.5217 10.7501 18.5684C10.6973 18.6041 10.636 18.6678 10.636 18.6678L10.6387 18.7158L10.7077 18.7097L10.989 18.6891C11.3534 18.6934 11.5067 18.9416 11.5067 18.9416L12.0198 19.6685C12.0198 19.6685 12.4018 20.1915 12.4077 20.2592C12.413 20.3272 12.3509 20.4421 12.3416 20.4677C12.3328 20.4949 12.2389 20.7593 12.2389 20.7593L11.4237 20.1915C11.4237 20.1915 11.4299 20.0396 11.4424 19.9988C11.4672 19.9282 11.5277 19.8034 11.5416 19.7719C11.5589 19.7344 11.6469 19.4835 11.5208 19.371C11.4646 19.3217 11.3936 19.3398 11.3579 19.3577C11.3219 19.3753 11.3174 19.3892 11.2833 19.4163C11.2502 19.4446 11.2441 19.4483 11.2033 19.4622C11.1625 19.476 11.1415 19.5158 11.1372 19.5371C11.1311 19.5584 11.1569 19.6629 11.167 19.7101C11.1764 19.7626 11.1633 19.8071 11.1612 19.8615C11.159 19.9159 11.1281 19.9807 11.1281 19.9807C11.1281 19.9807 11.0044 19.9204 10.813 19.7754C10.6206 19.6296 10.4532 19.8085 10.4532 19.8085C10.4644 19.7951 10.4399 19.6949 10.438 19.6789C10.4292 19.6067 10.4177 19.5331 10.4108 19.4614C10.3945 19.2951 10.3881 19.1287 10.3932 18.9613C10.3977 18.811 10.3146 18.7134 10.2266 18.5985C10.1917 18.5511 10.0747 18.5191 9.9168 18.5652C9.758 18.611 9.6513 18.7539 9.606 18.7894C9.5594 18.8256 9.5295 18.8965 9.5228 18.9469C9.5151 18.9989 9.51 19.2231 9.51 19.3129C9.5122 19.4028 9.534 19.5859 9.5306 19.6411C9.5295 19.6962 9.4981 19.7973 9.4981 19.7973C9.4981 19.7973 9.5295 19.9783 9.4868 20.0966C9.4445 20.2166 9.4314 20.1598 9.4314 20.1598C9.152 19.4345 8.806 18.7483 8.806 18.7483C8.806 18.7483 8.9668 18.341 8.9745 18.2882C8.983 18.2368 9.0355 18.1651 9.0838 18.1141C9.1312 18.0646 9.124 18.0758 9.124 18.0758C9.124 18.0758 9.1934 18.0307 9.2147 18.0099C9.2344 17.9913 9.3016 17.8718 9.3053 17.8265C9.3109 17.7809 9.2603 17.5389 9.2389 17.5082C9.2158 17.4792 9.1214 17.5157 9.0585 17.5495C8.9972 17.5837 8.8788 17.6556 8.8028 17.7274C8.7245 17.8004 8.6837 17.9036 8.6957 17.9358C8.7071 17.967 8.6957 17.9358 8.7151 17.9555C8.7346 17.9761 8.6949 18.1045 8.6861 18.1563C8.6783 18.2075 8.6698 18.2991 8.6698 18.2991L8.6176 18.3557C8.3718 17.9499 8.3358 17.621 8.3358 17.621C8.3025 17.3901 8.0396 17.3206 8.0396 17.3206C7.9493 17.3003 7.8925 17.2846 7.8533 17.3536C7.8149 17.4195 7.7075 17.4357 7.7075 17.4357C7.5657 17.5775 7.6595 17.6271 7.6105 17.6908C7.5499 17.7687 7.615 18.0019 7.6718 18.0635C7.6937 18.0867 7.7448 18.0734 7.7448 18.0734C7.7515 17.9771 7.8205 17.9729 7.8205 17.9729C7.9242 17.9451 8.54 18.929 8.54 18.929C8.54 18.929 8.3777 19.6248 8.3729 19.6451C8.3681 19.6664 8.343 19.6312 8.3137 19.6093C8.2817 19.5827 8.23 19.555 8.2089 19.5262C8.1748 19.4777 8.1119 19.4385 8.0668 19.3993L8.0738 19.4718C8.0738 19.4718 8.0668 19.5145 8.0282 19.532C7.989 19.5494 7.8997 19.528 7.8048 19.5249C7.7104 19.5208 7.5281 19.656 7.5281 19.656C7.5281 19.656 7.3625 19.7637 7.298 19.7693C7.141 19.7853 7.1077 19.9239 7.1077 19.9239L7.148 20.0412L7.2293 20.1414C7.2293 20.1414 7.3082 20.2027 7.3724 20.2155C7.4055 20.223 7.4825 20.2142 7.4825 20.2142C7.4825 20.2142 7.5457 20.2027 7.6667 20.191C7.7726 20.1801 7.9285 20.2254 7.9285 20.2254C7.9285 20.2254 8.1876 20.3 8.1991 20.3232C8.2089 20.3451 8.0063 21.0507 7.9733 21.1179C7.9391 21.1853 7.877 21.3487 7.8512 21.389C7.8261 21.4289 7.651 21.5545 7.651 21.5545C7.651 21.5545 7.5249 21.6777 7.5086 21.6913C7.4913 21.7043 7.5012 21.7915 7.5012 21.7915L7.615 21.8552L7.7899 21.8843C8.1319 21.9456 8.3297 21.787 8.3665 21.7536C8.4032 21.7198 8.5056 21.5822 8.5688 21.4036C8.6328 21.2261 8.5152 20.7567 8.503 20.6999C8.4899 20.6426 8.448 20.4384 8.463 20.4157C8.4776 20.3923 8.7151 20.472 8.8412 20.4773C8.947 20.4832 9.0417 20.4378 9.0785 20.4042C9.1155 20.3712 9.1091 20.2926 9.0945 20.2611C9.0793 20.2294 9.0275 20.1539 9.0275 20.1539L8.9279 20.0609L8.5787 19.833C8.5787 19.833 8.609 19.7122 8.6197 19.6653C8.6304 19.6144 8.6573 19.4057 8.6714 19.3342C8.6869 19.2561 8.693 19.205 8.693 19.205C9.3424 20.3083 9.4229 20.7279 9.4229 20.7279C9.4229 20.7279 9.429 21.128 9.4309 21.177C9.4314 21.2266 9.5127 21.4711 9.5127 21.4711L9.6855 21.6203L9.8294 21.6625L10.0448 21.5881C10.0448 21.5881 10.128 21.47 10.1479 21.425C10.1674 21.382 10.1295 21.2616 10.1349 21.24C10.1402 21.2192 10.0893 21.0174 10.0893 21.0174C9.9664 20.6735 9.8547 19.9241 9.8547 19.9241C9.8547 19.9241 9.8374 19.5859 9.8265 19.5142C9.8145 19.4417 9.8265 19.3393 9.8265 19.3393C9.9734 19.375 10.2716 20.1862 10.2716 20.1862L10.3468 20.3872L10.4598 20.6348L10.466 20.5301L10.4676 20.4042C10.4676 20.4042 10.4521 20.1518 10.458 20.0697C10.4633 20.01 10.482 20.0199 10.482 20.0199L11.0994 20.3992C11.0812 20.5975 10.9863 21.0683 10.9863 21.0683L10.6019 20.8329C10.6019 20.8329 10.5145 20.7937 10.4686 20.7247C10.422 20.6548 10.2589 20.6956 10.2589 20.6956L10.1517 20.8121L10.9506 21.2919C10.9717 21.3367 10.8629 21.8432 10.8629 21.8432C10.8629 21.8432 10.7429 21.7507 10.6809 21.6963C10.6187 21.6401 10.535 21.7094 10.5092 21.7248C10.4825 21.7414 10.2962 21.7595 10.2962 21.7595L10.1354 21.7659L10.1768 21.8768L10.2319 21.9919C10.2319 21.9919 10.3279 22.0818 10.3375 22.1039C10.3468 22.1268 10.425 22.17 10.4425 22.1818C10.4598 22.1927 10.5342 22.21 10.5817 22.1761C10.6281 22.1404 10.7429 22.2276 10.7429 22.2276C10.7429 22.2276 10.6622 22.3619 10.6387 22.3878C10.6142 22.4131 10.6459 22.5307 10.6459 22.5307C10.6459 22.5307 10.7256 22.6387 10.7507 22.6624C10.7763 22.6872 10.9063 22.7272 10.9269 22.7325C10.9477 22.7365 11.0657 22.6661 11.0657 22.6397C11.0653 22.6155 11.0615 22.4926 11.0583 22.4587C11.0556 22.4246 11.0959 22.4251 11.0959 22.4251L11.942 22.8927C11.8561 23.3235 11.7983 24.0973 11.7879 24.1386C11.7764 24.181 11.7125 24.2351 11.6704 24.2253C11.6283 24.2146 11.5445 24.1938 11.5445 24.1938C11.5445 24.1938 11.6133 24.3271 11.624 24.3495C11.6338 24.3716 11.6296 24.458 11.7082 24.5886C11.7879 24.7195 11.8809 24.7126 11.8991 24.7232C11.9159 24.7344 12.1406 24.6979 12.18 24.699C12.2205 24.6998 12.401 24.554 12.4306 24.5337C12.4597 24.5113 12.578 24.2866 12.5895 24.2687C12.5991 24.2503 12.541 24.0613 12.5148 24.0126C12.4895 23.9635 12.3954 23.4714 12.3954 23.4714C12.301 22.0383 12.5841 20.7503 12.5841 20.7503C12.6303 20.5613 12.7252 20.7572 12.7252 20.7572C12.8462 21.0027 13.3481 22.3769 13.346 22.4329C13.3444 22.4878 13.3145 22.6877 13.2812 22.7797C13.2468 22.8722 13.2117 23.0193 13.2015 23.0612C13.1941 23.0966 13.2343 23.1353 13.2524 23.1603C13.2788 23.1958 13.2911 23.2592 13.3375 23.2766C13.3663 23.2864 13.3956 23.2904 13.4252 23.3016C13.4521 23.3134 13.4747 23.3333 13.5017 23.3467C13.5241 23.3578 13.5529 23.3605 13.5766 23.3637C13.6267 23.3712 13.6787 23.3712 13.7261 23.3829C13.7472 23.3888 13.9706 23.0598 13.9698 23.0359C13.9692 23.0102 13.9154 22.9927 13.9154 22.9927C13.9866 22.455 14.2427 21.7763 14.2545 21.7587C14.2662 21.7414 14.3139 21.8427 14.3254 21.8747C14.3382 21.9058 14.3411 21.9474 14.356 21.9632C14.3694 21.9807 14.4078 21.8387 14.4182 21.7968C14.4277 21.7544 14.5018 21.6041 14.5224 21.4993C14.5376 21.4263 14.5997 21.3367 14.6216 21.3031C14.6423 21.2687 14.7546 21.1037 14.7546 21.1037C14.879 20.7777 14.7599 20.7351 14.697 20.6548C14.6346 20.5754 14.5952 20.5341 14.4611 20.4909C14.3264 20.4469 14.1372 20.5946 14.0338 20.6426C13.9314 20.6906 13.8 20.9249 13.7885 20.9574C13.7755 20.9897 13.776 21.1434 13.776 21.1685C13.7773 21.193 13.7069 21.4074 13.6981 21.434C13.6896 21.4604 13.5816 21.8773 13.5601 21.937C13.5387 21.9965 13.5267 22.0287 13.4574 22.0503C13.3873 22.0714 13.3514 21.8704 13.3514 21.8704C13.2253 21.4036 12.859 20.3006 12.8214 20.2454C12.7841 20.1891 12.7857 20.1329 12.7857 20.1329C12.7857 20.1329 13.0648 19.5736 13.08 19.5504C13.0935 19.527 13.4132 18.992 13.4539 18.929C13.4939 18.8648 13.4118 18.611 13.3561 18.5692C13.3026 18.5263 13.121 18.5585 13.0333 18.6073ZM11.4323 21.6233C11.4763 21.7019 11.85 21.8898 11.85 21.8898L12.0403 22.0085C12.0403 22.0085 12.0827 22.0647 11.9908 22.5411L11.9857 22.5952C11.9857 22.5952 11.1063 22.0858 11.0772 21.9954C11.0681 21.965 11.1092 21.6945 11.1092 21.6371C11.1092 21.5804 11.1028 21.4769 11.1084 21.4591C11.1132 21.4396 11.1564 21.4393 11.19 21.4532C11.2246 21.4673 11.2558 21.4916 11.2558 21.4916C11.2558 21.4916 11.2502 21.5593 11.278 21.5857C11.307 21.6108 11.3446 21.4673 11.4323 21.6233ZM12.1696 21.1248L12.1718 21.1656C12.1718 21.1656 12.1512 21.2858 12.147 21.305C12.1419 21.3229 12.1504 21.4569 12.1462 21.4764C12.1406 21.4945 12.1152 21.7275 12.1152 21.7275L11.4008 21.3135L11.2385 21.2136L11.1239 21.1509C11.1239 21.1285 11.1633 20.9027 11.1633 20.9027L11.2033 20.8278C11.2033 20.8278 11.2369 20.8121 11.2526 20.843C11.2686 20.8748 11.2913 21.1946 11.2913 21.1946L11.3289 20.9747L11.3481 20.854L11.3646 20.7919L11.3646 20.5749L11.4549 20.6367C11.4549 20.6367 11.6082 20.7319 11.7508 20.854C11.8183 20.9118 11.9081 20.9875 11.9401 21.0064C12.0446 21.0659 12.1558 21.1179 12.1696 21.1248Z"   fill="#FFFFFF" >
</path>
<path d="M8.46631 42.6059C8.80881 42.3434 9.02301 42.1597 9.1093 42.0551C9.1956 41.9506 9.2293 41.8541 9.21011 41.7661L9.18991 41.6863C9.1879 41.6763 9.18471 41.6634 9.18041 41.6476C9.1682 41.6024 9.197 41.5643 9.26701 41.5331C9.31981 41.5134 9.35471 41.5071 9.3719 41.5142C9.38901 41.521 9.40651 41.5459 9.42421 41.5888C9.4274 41.5961 9.43571 41.619 9.44931 41.6568C9.53301 41.8949 9.62511 42.1348 9.72571 42.3765C9.81931 42.6014 9.91861 42.8218 10.0237 43.0378C10.0418 43.0762 10.0521 43.098 10.0544 43.1038C10.0722 43.1463 10.0775 43.1763 10.0705 43.1936C10.0634 43.2107 10.0342 43.2309 9.98301 43.2546C9.90971 43.2827 9.8593 43.2719 9.83211 43.2222C9.82641 43.2138 9.82231 43.2067 9.82011 43.2012L9.77171 43.1166C9.72991 43.0423 9.68111 42.9945 9.62521 42.9729C9.56941 42.9514 9.50421 42.9561 9.42991 42.9871C9.40201 42.9987 9.35971 43.0228 9.30301 43.0596C9.2462 43.0961 9.18121 43.1419 9.1079 43.1962L7.16481 44.6458L10.151 44.2646C10.2067 44.2567 10.2747 44.2446 10.3554 44.2286C10.4698 44.2049 10.5376 44.2183 10.5585 44.2685C10.5593 44.2703 10.5627 44.2787 10.5689 44.2935C10.5953 44.3675 10.6225 44.4382 10.6503 44.5052C10.679 44.5738 10.7106 44.6447 10.7453 44.7175C10.7507 44.7307 10.7542 44.7391 10.7557 44.7427C10.7789 44.7984 10.7303 44.8678 10.6099 44.9506C10.5046 45.0228 10.4137 45.0901 10.3371 45.1524L8.08001 46.9487L10.4426 46.5549C10.5367 46.5399 10.6138 46.5247 10.6741 46.5094C10.7343 46.4942 10.7858 46.4776 10.8286 46.46C10.9178 46.4227 10.9778 46.3744 11.0087 46.3147C11.0395 46.2548 11.0421 46.1813 11.0166 46.0938L10.9851 46.0021L10.9839 45.9994C10.9665 45.9367 10.9941 45.8904 11.0668 45.8602C11.1188 45.8386 11.1536 45.8318 11.1711 45.8397C11.1886 45.8476 11.2077 45.8767 11.2286 45.9269C11.2318 45.9343 11.2395 45.9585 11.2521 45.9992C11.3059 46.16 11.3626 46.3119 11.4221 46.4553C11.4826 46.6003 11.55 46.7467 11.6246 46.8946C11.6438 46.9303 11.6549 46.9519 11.6581 46.9593C11.6796 47.0113 11.687 47.046 11.6799 47.063C11.6728 47.0801 11.6432 47.0996 11.5912 47.1211C11.5187 47.1513 11.4692 47.1424 11.4428 47.0946C11.4378 47.088 11.4349 47.0835 11.4341 47.0817L11.4089 47.0368C11.3629 46.9577 11.2821 46.9088 11.1664 46.8904C11.0507 46.872 10.7934 46.887 10.3945 46.9351L7.84861 47.2577C7.74101 47.2719 7.61181 47.2916 7.46111 47.3174C7.26821 47.3518 7.16081 47.3429 7.13921 47.2908C7.13851 47.289 7.13501 47.2806 7.12881 47.2659C7.10241 47.1918 7.07521 47.1211 7.04731 47.0541C7.01871 46.9853 6.98741 46.9154 6.95351 46.8444C6.94741 46.8297 6.94351 46.8203 6.94201 46.8166C6.91871 46.7609 6.99711 46.6715 7.17741 46.5486C7.38601 46.4051 7.57241 46.2685 7.73681 46.1392L9.63091 44.6348L6.86471 44.9866C6.76721 44.9989 6.64991 45.0181 6.51261 45.0449C6.32231 45.0804 6.21511 45.0693 6.19121 45.0115C6.19041 45.0097 6.18701 45.0013 6.18071 44.9866C6.15581 44.9162 6.13021 44.8492 6.10391 44.7861C6.07611 44.7191 6.04561 44.651 6.01251 44.5819C6.00621 44.567 6.00241 44.5578 6.00081 44.5541C5.99001 44.5281 5.98531 44.5076 5.98691 44.4929C5.98831 44.4779 5.99821 44.4635 6.01631 44.4495L8.46631 42.6059Z"   fill="#FFFFFF" >
</path>
<path d="M10.0778 49.6495L11.7736 48.4367C11.9457 48.3137 12.0443 48.2238 12.0695 48.1673C12.0948 48.1109 12.0854 48.0452 12.0417 47.97L11.9548 47.8279L11.953 47.8253C11.9141 47.764 11.9282 47.7094 11.9954 47.6613C12.0397 47.6295 12.0716 47.6153 12.0913 47.6187C12.1109 47.6219 12.1343 47.6424 12.1612 47.6802C12.166 47.6868 12.1809 47.7094 12.2063 47.7483C12.3424 47.9629 12.4838 48.1726 12.6302 48.3775C12.7767 48.5822 12.929 48.783 13.0869 48.9795C13.1155 49.016 13.1321 49.0376 13.1368 49.0441C13.1661 49.0851 13.1787 49.1156 13.1746 49.1358C13.1706 49.156 13.1472 49.1815 13.1046 49.212C13.0363 49.2585 12.9782 49.2517 12.9304 49.1918L12.8239 49.0636C12.768 48.9995 12.7109 48.9698 12.6524 48.9745C12.5938 48.9792 12.4761 49.0449 12.2992 49.1716L10.5224 50.4424C10.1913 50.6792 10.0011 50.9143 9.9514 51.1479C9.9019 51.3815 9.9849 51.649 10.2005 51.9506C10.3084 52.1011 10.4233 52.2196 10.5455 52.3056C10.6677 52.3915 10.8007 52.4485 10.9447 52.4769C11.0844 52.5058 11.2416 52.485 11.4165 52.4143C11.5913 52.3439 11.8442 52.1902 12.1753 51.9535C12.5062 51.7167 12.8059 51.496 13.0745 51.2916C13.3431 51.0872 13.5048 50.959 13.5596 50.9075C13.6851 50.8029 13.7646 50.7112 13.7979 50.6332C13.8311 50.5549 13.8251 50.4774 13.7801 50.4007L13.7038 50.2732C13.7014 50.2698 13.6988 50.2643 13.6958 50.2567C13.666 50.2012 13.6821 50.1511 13.7445 50.1067C13.7914 50.0754 13.8241 50.0615 13.8424 50.0644C13.8607 50.0675 13.8833 50.0877 13.9103 50.1256C13.9185 50.1369 13.9576 50.1986 14.0279 50.3105C14.098 50.4227 14.1678 50.527 14.2369 50.6237C14.3353 50.7614 14.4468 50.907 14.5715 51.0604C14.6088 51.1056 14.631 51.1332 14.638 51.1429C14.6673 51.1839 14.6799 51.2144 14.6758 51.2346C14.6717 51.2548 14.6484 51.2803 14.6058 51.3108C14.5451 51.3542 14.4964 51.3568 14.4593 51.319C14.4506 51.3103 14.4425 51.3024 14.4351 51.2956L14.3517 51.2102C14.2142 51.0733 13.7686 51.2656 13.0149 51.7874C12.8618 51.892 12.7445 51.9721 12.6632 52.0278C12.6172 52.0607 12.5479 52.109 12.455 52.1731C11.8965 52.5628 11.4887 52.7701 11.2319 52.7953C10.9811 52.8187 10.749 52.7648 10.5354 52.6342C10.3216 52.5034 10.1 52.2774 9.8704 51.9564C9.486 51.4188 9.3089 50.9826 9.3392 50.6476C9.3696 50.3126 9.6158 49.98 10.0778 49.6495Z"   fill="#FFFFFF" >
</path>
<path d="M13.1402 54.6655L15.0179 52.6526C15.1664 52.4937 15.2466 52.3854 15.2588 52.3279C15.2712 52.2703 15.2491 52.2099 15.1928 52.1463L15.0795 52.0242C15.0262 51.9661 15.027 51.9078 15.0819 51.8486C15.1176 51.8105 15.1459 51.7906 15.1665 51.789C15.187 51.7877 15.2158 51.8042 15.2525 51.8384C15.2585 51.8439 15.2776 51.8634 15.3102 51.8965C15.4876 52.0812 15.6677 52.2588 15.8503 52.4293C16.0345 52.6009 16.2234 52.7675 16.4172 52.929C16.4524 52.9593 16.473 52.9769 16.4789 52.9824C16.5157 53.0168 16.5341 53.0444 16.5341 53.0649C16.5341 53.0856 16.5162 53.1151 16.4805 53.1534C16.4256 53.2123 16.3672 53.2173 16.3058 53.1681L16.176 53.0636C16.1086 53.0118 16.0467 52.9939 15.9902 53.01C15.9337 53.0263 15.8314 53.114 15.6829 53.273L14.9327 54.0772L16.1457 55.2089L16.8959 54.4046C17.0403 54.2499 17.1191 54.1424 17.1327 54.0822C17.1463 54.0218 17.1242 53.959 17.0664 53.8941L16.9575 53.7761C16.9041 53.7181 16.9049 53.6595 16.96 53.6006C16.9957 53.5623 17.0238 53.5426 17.0445 53.541C17.0651 53.5397 17.0937 53.5562 17.1306 53.5904C17.1365 53.5959 17.1556 53.6153 17.1882 53.6484C17.3612 53.8289 17.5397 54.0052 17.7239 54.1771C17.9081 54.3487 18.0969 54.5155 18.2906 54.6768C18.326 54.707 18.3465 54.7246 18.3524 54.7302C18.3892 54.7646 18.4077 54.7922 18.4077 54.8129C18.4077 54.8334 18.3898 54.8628 18.3541 54.9012C18.2991 54.9601 18.2409 54.965 18.1792 54.9159L18.0539 54.8155C17.9851 54.7622 17.9211 54.7446 17.8618 54.7622C17.8026 54.7801 17.7008 54.8663 17.5565 55.0207L15.6788 57.0336C15.5305 57.1928 15.4505 57.3022 15.4391 57.3615C15.4275 57.4212 15.4507 57.4819 15.5085 57.5441L15.6174 57.6621C15.6203 57.665 15.6239 57.6697 15.6285 57.6768C15.6716 57.7281 15.667 57.7817 15.6149 57.8376C15.5791 57.876 15.5509 57.8957 15.5304 57.8973C15.5098 57.8986 15.481 57.882 15.4442 57.8479C15.4367 57.8408 15.4177 57.8216 15.3865 57.7898C15.2121 57.6077 15.0328 57.4309 14.8487 57.2591C14.6645 57.0875 14.4763 56.9214 14.2841 56.7614C14.2503 56.7325 14.2297 56.7149 14.2223 56.7081C14.1855 56.6737 14.1671 56.6461 14.1671 56.6253C14.1671 56.6048 14.185 56.5754 14.2207 56.537C14.2729 56.4811 14.3261 56.4727 14.3802 56.5121C14.3875 56.5163 14.3926 56.5197 14.3955 56.5223L14.5208 56.6227C14.5896 56.676 14.6527 56.6947 14.7098 56.6792C14.767 56.6637 14.8699 56.5765 15.0183 56.4175L15.9416 55.4275L14.7286 54.2961L13.7703 55.3234C13.6425 55.4603 13.5731 55.5567 13.5622 55.6127C13.5513 55.6687 13.574 55.7286 13.6305 55.7922L13.7437 55.9143C13.7466 55.917 13.7503 55.922 13.7549 55.9288C13.798 55.9803 13.7935 56.0339 13.7412 56.0899C13.7055 56.1279 13.6774 56.1479 13.6568 56.1492C13.6361 56.1508 13.6074 56.1343 13.5706 56.0998C13.5632 56.093 13.5441 56.0738 13.513 56.042C13.3385 55.86 13.1591 55.6831 12.9751 55.5113C12.7925 55.341 12.6028 55.1737 12.4061 55.0095C12.3723 54.9805 12.3517 54.9629 12.3444 54.9561C12.3076 54.9217 12.2891 54.8941 12.2891 54.8733C12.2891 54.8529 12.3069 54.8234 12.3427 54.7851C12.3949 54.7291 12.448 54.7207 12.5021 54.7604C12.5094 54.7643 12.5145 54.7677 12.5175 54.7704L12.6473 54.8749C12.7146 54.9267 12.7758 54.9453 12.831 54.9306C12.886 54.9159 12.9774 54.84 13.1051 54.7031L13.1402 54.6655Z"   fill="#FFFFFF" >
</path>
<path d="M17.9689 57.9417L19.0607 56.1658C19.1715 55.9855 19.2276 55.8644 19.2289 55.8027C19.2302 55.7409 19.1962 55.6839 19.1266 55.6316L18.9914 55.5341L18.9888 55.5326C18.9291 55.4913 18.9208 55.4354 18.9642 55.3649C18.9927 55.3187 19.0166 55.2932 19.0359 55.2885C19.0554 55.284 19.0848 55.2937 19.1243 55.3182C19.1312 55.3224 19.1538 55.3374 19.1923 55.3634C19.401 55.5084 19.6126 55.6466 19.8272 55.7785C20.0417 55.9104 20.2599 56.0363 20.4818 56.1561C20.5223 56.1787 20.546 56.1921 20.5529 56.1963C20.5958 56.2225 20.6192 56.2459 20.6234 56.2662C20.6275 56.2864 20.6158 56.319 20.5883 56.3636C20.5434 56.4327 20.4873 56.4493 20.4199 56.4125L20.2721 56.3358C20.1958 56.2982 20.1316 56.2932 20.0794 56.3203C20.0274 56.3473 19.9444 56.4535 19.8303 56.6387L18.6863 58.5C18.4733 58.8466 18.3892 59.1372 18.4341 59.3718C18.479 59.6061 18.6594 59.8205 18.9752 60.0147C19.1331 60.1117 19.285 60.176 19.431 60.2078C19.5769 60.2396 19.7218 60.2407 19.8655 60.2107C20.0053 60.1831 20.1422 60.103 20.2759 59.97C20.4097 59.8371 20.5831 59.5975 20.7962 59.2507C21.0093 58.9041 21.1999 58.5843 21.368 58.2916C21.5361 57.9989 21.6354 57.8182 21.6658 57.7493C21.741 57.604 21.7787 57.489 21.779 57.4041C21.7792 57.319 21.7436 57.2499 21.6724 57.1965L21.5526 57.1088C21.5491 57.1067 21.5445 57.1027 21.5387 57.0967C21.4897 57.057 21.4852 57.0047 21.5254 56.9396C21.5565 56.8925 21.5812 56.8668 21.5992 56.8626C21.6172 56.8584 21.646 56.8684 21.6854 56.8925C21.6975 56.8999 21.7575 56.9417 21.8658 57.0176C21.9739 57.0935 22.0786 57.1626 22.1799 57.2249C22.324 57.3134 22.4834 57.4044 22.6578 57.4974C22.7097 57.5247 22.7409 57.5412 22.7511 57.5476C22.7941 57.5741 22.8176 57.5972 22.8217 57.6177C22.8257 57.6379 22.814 57.6703 22.7867 57.7149C22.7476 57.7785 22.7037 57.7998 22.6548 57.7793C22.6435 57.7746 22.633 57.7706 22.6234 57.7669L22.5135 57.7207C22.3335 57.6479 21.9976 57.9984 21.5056 58.7717C21.4051 58.9275 21.3281 59.047 21.2748 59.1301C21.2452 59.1779 21.2 59.2496 21.1393 59.3445C20.7758 59.9204 20.4806 60.2698 20.2537 60.3928C20.0317 60.5116 19.7968 60.5523 19.5492 60.5147C19.3016 60.4771 19.0095 60.355 18.6732 60.1482C18.1104 59.8022 17.7779 59.469 17.6758 59.1484C17.5736 58.8279 17.6714 58.4256 17.9689 57.9417Z"   fill="#FFFFFF" >
</path>
<path d="M25.3851 61.671L25.921 59.6563C25.9754 59.4519 25.9943 59.3198 25.9779 59.2601C25.9614 59.2007 25.9123 59.1558 25.8307 59.1259L25.6732 59.0712L25.6703 59.0707C25.6014 59.0481 25.5774 58.9968 25.5986 58.917C25.6127 58.8644 25.6282 58.8332 25.6455 58.8232C25.6627 58.8132 25.6937 58.8142 25.7385 58.8261C25.7463 58.8282 25.7723 58.836 25.8165 58.85C26.0583 58.9288 26.3006 59.0005 26.5441 59.0654C26.7874 59.1301 27.0325 59.1879 27.2795 59.2391C27.3248 59.2491 27.3514 59.2551 27.3591 59.2572C27.4077 59.2701 27.437 59.2856 27.4467 59.304C27.4565 59.3221 27.4546 59.3565 27.4412 59.4073C27.418 59.4863 27.3688 59.5181 27.2938 59.5024L27.1301 59.4714C27.0463 59.4574 26.9834 59.4708 26.9412 59.5118C26.899 59.5528 26.85 59.6781 26.7941 59.8886L26.2325 61.9997C26.1279 62.3928 26.1308 62.6955 26.2413 62.9073C26.3516 63.119 26.586 63.2725 26.9442 63.3676C27.1233 63.4154 27.2872 63.4335 27.4362 63.422C27.5852 63.4107 27.7242 63.3699 27.8533 63.3001C27.9793 63.2336 28.0873 63.1175 28.1773 62.9517C28.2673 62.7859 28.3645 62.5063 28.4692 62.113C28.5738 61.7199 28.6645 61.3589 28.7415 61.0302C28.8185 60.7015 28.8617 60.5 28.8712 60.4254C28.9014 60.2646 28.9044 60.1435 28.8803 60.062C28.8561 59.9806 28.8022 59.9246 28.7187 59.8939L28.5786 59.8442C28.5748 59.8431 28.5692 59.8405 28.5619 59.8366C28.5036 59.8127 28.4843 59.7638 28.504 59.69C28.5204 59.6358 28.5367 59.6043 28.5528 59.5949C28.5688 59.5857 28.5991 59.587 28.6439 59.5988C28.6576 59.6025 28.7271 59.6253 28.8525 59.6668C28.9779 59.7086 29.0981 59.7446 29.2129 59.7754C29.3765 59.8187 29.5551 59.86 29.749 59.8991C29.8066 59.9101 29.8411 59.9172 29.8528 59.9204C29.9014 59.9335 29.9307 59.949 29.9404 59.9672C29.9502 59.9855 29.9483 60.02 29.9349 60.0704C29.9157 60.1424 29.8797 60.1758 29.8271 60.17C29.8148 60.1689 29.8037 60.1679 29.7934 60.1674L29.6749 60.1545C29.4816 60.1364 29.2605 60.5686 29.0112 61.4506C28.9596 61.6287 28.9202 61.7651 28.8929 61.86C28.8784 61.9146 28.8557 61.9961 28.8247 62.1046C28.642 62.7604 28.4595 63.1797 28.2774 63.3629C28.0989 63.5405 27.8855 63.6469 27.6376 63.6818C27.3896 63.717 27.0747 63.6839 26.6932 63.5822C26.0547 63.4125 25.6405 63.1887 25.4508 62.9109C25.2608 62.6335 25.239 62.2199 25.3851 61.671Z"   fill="#FFFFFF" >
</path>
<path d="M31.016 62.7126L31.1395 60.7131C31.1451 60.6185 31.1276 60.5357 31.0874 60.4648C31.0472 60.3939 30.9952 60.3523 30.9314 60.3405L30.7661 60.3187C30.6881 60.3082 30.6514 60.2627 30.6561 60.1821C30.6592 60.1298 30.6682 60.0967 30.6832 60.0825C30.6981 60.0681 30.7308 60.0625 30.7811 60.0654C30.7831 60.0654 30.8477 60.0723 30.975 60.0859C31.1024 60.0993 31.2295 60.1098 31.3561 60.1174C31.4406 60.1224 31.5332 60.1248 31.6341 60.1245C31.735 60.1245 31.7945 60.1251 31.8126 60.1261C31.8589 60.1287 31.8895 60.1322 31.9043 60.1358C31.9193 60.1398 31.9295 60.145 31.9352 60.1513C31.9408 60.1597 31.9546 60.1818 31.9767 60.2173C32.0777 60.3868 32.1829 60.5533 32.2925 60.7173L34.1517 63.4869C34.1547 63.4004 34.16 63.2754 34.1676 63.1125C34.2184 62.0744 34.2446 61.4422 34.2456 61.2162C34.2511 60.9503 34.235 60.7717 34.1969 60.6808C34.1588 60.5896 34.0919 60.5363 33.996 60.5205L33.8428 60.4995C33.8388 60.4992 33.8328 60.4979 33.825 60.4953C33.7631 60.4837 33.7343 60.4396 33.7388 60.3631C33.7419 60.3108 33.7509 60.2777 33.7658 60.2635C33.7808 60.2491 33.8134 60.2436 33.8637 60.2465C33.8778 60.2472 33.9504 60.2557 34.0817 60.2714C34.2129 60.2872 34.3378 60.2985 34.4566 60.3056C34.5752 60.3124 34.6996 60.3158 34.8298 60.3153C34.9599 60.315 35.0311 60.315 35.0432 60.3158C35.0934 60.3187 35.1252 60.3282 35.1383 60.3439C35.1514 60.36 35.1565 60.3941 35.1535 60.4464C35.1492 60.5208 35.1216 60.5604 35.0709 60.5654C35.0566 60.5667 35.0445 60.5681 35.0342 60.5694L34.9156 60.5807C34.8444 60.5885 34.7867 60.619 34.7422 60.6718C34.6978 60.7246 34.6643 60.805 34.6418 60.9125C34.6238 61.0126 34.5989 61.2496 34.5668 61.624C34.5346 61.9984 34.5052 62.4149 34.4783 62.8734C34.4503 63.35 34.432 63.815 34.4236 64.2685C34.4214 64.3392 34.4199 64.3815 34.4192 64.3954C34.4159 64.4517 34.4069 64.4911 34.3925 64.5134C34.378 64.5357 34.3537 64.546 34.3196 64.5439C34.3096 64.5434 34.2786 64.5386 34.2267 64.5294C34.1747 64.5202 34.1276 64.5145 34.0855 64.5121C34.0834 64.5118 34.0782 64.5126 34.0701 64.5142C34.062 64.5158 34.0538 64.5163 34.0458 64.5158C34.0116 64.5137 33.9668 64.5131 33.9113 64.5139C33.8557 64.5147 33.8189 64.5145 33.8008 64.5134C33.7304 64.5095 33.633 64.3978 33.5088 64.1787C33.4009 63.9866 33.3035 63.8245 33.2164 63.6923L31.4236 60.9779C31.4121 61.2094 31.3973 61.5273 31.3797 61.9317C31.3461 62.7107 31.3269 63.207 31.3225 63.4207C31.3169 63.6866 31.3332 63.8652 31.3713 63.9561C31.4093 64.0473 31.4763 64.1006 31.5722 64.1164L31.7193 64.1372C31.7233 64.1372 31.7293 64.1387 31.7372 64.1411C31.7991 64.1529 31.8279 64.1968 31.8233 64.2733C31.8201 64.3276 31.8116 64.3615 31.7976 64.3747C31.7837 64.3881 31.7527 64.3933 31.7045 64.3904C31.6924 64.3897 31.6207 64.3815 31.4894 64.3657C31.3582 64.35 31.2333 64.3384 31.1146 64.3316C30.996 64.3245 30.8705 64.3213 30.7384 64.3216C30.6062 64.3219 30.5331 64.3216 30.519 64.3208C30.4728 64.3182 30.4435 64.3098 30.4312 64.2959C30.4189 64.2822 30.4134 64.247 30.4147 64.1905C30.419 64.1161 30.4456 64.0765 30.4943 64.0712C30.5085 64.0699 30.5197 64.0686 30.5279 64.067L30.6526 64.0562C30.8394 64.0371 30.9571 63.6464 31.006 62.8844C31.0103 62.81 31.0136 62.7528 31.016 62.7126Z"   fill="#FFFFFF" >
</path>
<path d="M36.8512 63.6503L36.5859 60.9104C36.5649 60.6939 36.537 60.562 36.5021 60.515C36.4671 60.4677 36.4072 60.444 36.3222 60.4443L36.1556 60.4482C36.0789 60.4517 36.0357 60.4122 36.0257 60.3303C36.0207 60.2782 36.025 60.2438 36.0386 60.2273C36.0521 60.2107 36.083 60.2002 36.1311 60.1955C36.1391 60.1947 36.1673 60.1931 36.2157 60.1905C36.4757 60.1795 36.7339 60.1616 36.9906 60.1366C37.2412 60.1125 37.4901 60.0812 37.7373 60.0431C37.7833 60.0365 37.8103 60.0331 37.8183 60.0323C37.8685 60.0273 37.9012 60.0318 37.9168 60.0455C37.9322 60.0591 37.9425 60.092 37.9475 60.1442C37.9556 60.2265 37.9215 60.2733 37.8457 60.2846L37.8428 60.2848L37.6815 60.3127C37.5981 60.3287 37.5433 60.3634 37.517 60.4164C37.4908 60.4698 37.4883 60.6046 37.5092 60.8211L37.7795 63.6119C37.7975 63.7985 37.8244 63.9144 37.8602 63.9593C37.8959 64.0045 37.9552 64.0271 38.0382 64.0271L38.2048 64.0231C38.2088 64.0229 38.2159 64.0231 38.2262 64.0242C38.2911 64.026 38.3272 64.0649 38.3346 64.1411C38.3397 64.1931 38.3359 64.2275 38.3233 64.2438C38.3108 64.2604 38.2794 64.2709 38.2293 64.2759C38.2192 64.2767 38.192 64.2783 38.1478 64.2806C37.8978 64.2906 37.6475 64.3079 37.3968 64.3321C37.1403 64.3568 36.8833 64.3889 36.6259 64.428C36.5801 64.4343 36.5521 64.4383 36.5421 64.4391C36.4939 64.4438 36.4616 64.4393 36.4452 64.4257C36.4286 64.4123 36.4178 64.3794 36.4129 64.3271C36.4055 64.2509 36.4344 64.2057 36.4998 64.1913C36.5077 64.1887 36.5136 64.1868 36.5176 64.1866L36.6819 64.1584C36.7653 64.1424 36.8197 64.1088 36.8451 64.0575C36.8706 64.0066 36.8742 63.8878 36.8561 63.7015L36.8512 63.6503Z"   fill="#FFFFFF" >
</path>
<path d="M41.2879 63.6067L39.5344 60.8581C39.3463 60.5665 39.2115 60.3812 39.1299 60.3027C39.0483 60.2244 38.969 60.1884 38.8917 60.195L38.8126 60.2021C38.8004 60.2028 38.7862 60.2044 38.7701 60.2063C38.7232 60.2094 38.6907 60.175 38.673 60.1025C38.66 60.0497 38.6577 60.0155 38.6663 60C38.6749 59.9842 38.7035 59.9695 38.7519 59.9556C38.7577 59.954 38.7815 59.9493 38.823 59.9411C39.0689 59.8952 39.3189 59.8408 39.5733 59.7782C39.8275 59.7154 40.0752 59.6471 40.3163 59.5733C40.3549 59.5617 40.3782 59.5549 40.3861 59.5531C40.431 59.542 40.4615 59.5413 40.4772 59.5507C40.4931 59.5604 40.5088 59.5922 40.5243 59.6466C40.5411 59.7233 40.5228 59.7714 40.4695 59.7909C40.4602 59.7951 40.4525 59.798 40.4468 59.7995L40.3528 59.835C40.2751 59.8647 40.2212 59.9054 40.1915 59.9572C40.1618 60.0092 40.156 60.0723 40.1744 60.1466C40.1849 60.1897 40.2049 60.2412 40.2343 60.3014C40.2636 60.3618 40.3007 60.4277 40.3453 60.4997L41.7739 62.762L41.9699 60.1463C41.975 60.0746 41.975 60.0029 41.9699 59.9317C41.9648 59.8602 41.9549 59.7953 41.9405 59.7365C41.9198 59.6524 41.8825 59.592 41.8289 59.5554C41.7753 59.5189 41.7053 59.506 41.6189 59.5171L41.5206 59.5349C41.456 59.5426 41.4143 59.5081 41.3955 59.4319C41.3821 59.3773 41.3802 59.3418 41.3897 59.3261C41.3993 59.3103 41.4305 59.2958 41.4833 59.2827C41.493 59.2803 41.519 59.2761 41.5611 59.2698C41.7242 59.242 41.8812 59.2097 42.0319 59.1726C42.1844 59.135 42.3394 59.0906 42.4969 59.0394C42.535 59.0257 42.558 59.0181 42.5659 59.016C42.6227 59.0021 42.6595 59.0003 42.6765 59.0108C42.6936 59.021 42.7087 59.0525 42.7217 59.1054C42.74 59.1797 42.7237 59.2273 42.6729 59.248C42.6655 59.252 42.6598 59.2543 42.6559 59.2554L42.6105 59.2727C42.5287 59.3032 42.4657 59.382 42.4213 59.5092C42.3769 59.6364 42.3384 59.8781 42.3059 60.2346L41.9921 63.433C41.9916 63.4396 41.9906 63.448 41.9891 63.4588C41.9814 63.5457 41.9561 63.5946 41.9131 63.6051C41.9092 63.6062 41.8993 63.6085 41.8837 63.6122C41.8124 63.6256 41.7454 63.64 41.6828 63.6556C41.6162 63.6718 41.5473 63.691 41.4759 63.7128C41.4623 63.7162 41.4535 63.7183 41.4495 63.7191C41.3987 63.7317 41.3465 63.6968 41.2931 63.6146L41.2879 63.6067Z"   fill="#FFFFFF" >
</path>
<path d="M45.1353 61.7672L44.0268 59.2478C43.9391 59.0486 43.8714 58.9322 43.8234 58.8983C43.7755 58.8644 43.7111 58.8607 43.6304 58.8873L43.4734 58.9432C43.3991 58.9693 43.3457 58.9456 43.3133 58.8718C43.2921 58.824 43.285 58.7901 43.2919 58.7706C43.2987 58.7512 43.3251 58.7312 43.3712 58.711C43.3786 58.7076 43.4039 58.6976 43.4472 58.6808C43.7515 58.5623 44.0659 58.4317 44.3904 58.2888C44.9306 58.0512 45.4469 57.814 45.9393 57.5775C46.0105 57.5441 46.0524 57.5247 46.0653 57.5189L46.215 57.4464C46.2555 57.4285 46.2873 57.4246 46.3103 57.4343C46.3333 57.444 46.3542 57.47 46.3728 57.5123C46.3744 57.516 46.3799 57.5313 46.3895 57.5578C46.4415 57.6913 46.498 57.8268 46.5588 57.9653C46.5938 58.0447 46.6313 58.1227 46.6718 58.1994C46.6817 58.217 46.6876 58.2278 46.6891 58.2315C46.7006 58.2572 46.7004 58.2809 46.6891 58.3024C46.6777 58.324 46.6554 58.3421 46.6223 58.3565L46.4536 58.4309C46.3716 58.4648 46.3025 58.4401 46.2461 58.3571C46.2276 58.33 46.2128 58.309 46.2019 58.294C46.0704 58.1253 45.9532 58.0315 45.8503 58.0129C45.7476 57.9945 45.5845 58.0342 45.3615 58.1324L44.6923 58.4267C44.7258 58.5331 44.7593 58.6316 44.7926 58.7225C44.8261 58.8135 44.859 58.896 44.8914 58.9698L45.2894 59.8741C45.316 59.8644 45.3448 59.8537 45.3755 59.841C45.4064 59.8287 45.4486 59.8106 45.502 59.7872C45.6531 59.7204 45.7548 59.654 45.8068 59.587C45.8587 59.52 45.8795 59.4296 45.8688 59.3153C45.8633 59.2627 45.8479 59.2002 45.8226 59.1277C45.79 59.0386 45.8097 58.9782 45.8816 58.9467L46.0227 58.8847C46.0595 58.8684 46.0866 58.8613 46.1041 58.8636C46.1216 58.8657 46.1341 58.8752 46.1413 58.8917C46.143 58.8954 46.1456 58.9041 46.1496 58.9178C46.1699 58.9792 46.1928 59.0386 46.2179 59.0956L46.404 59.5189L46.5464 59.8426C46.5886 59.9383 46.6329 60.0289 46.6793 60.1143C46.6849 60.1272 46.6886 60.1353 46.6902 60.139C46.6974 60.1555 46.6956 60.1713 46.6845 60.186C46.6734 60.201 46.6502 60.216 46.6153 60.2315L46.4742 60.2935C46.4042 60.3242 46.3464 60.2982 46.3009 60.2147C46.2645 60.1471 46.2284 60.0925 46.1925 60.051C46.1163 59.9679 46.0358 59.9225 45.9509 59.9146C45.8662 59.907 45.7481 59.9362 45.5969 60.0029C45.5434 60.0263 45.5022 60.0452 45.4731 60.0589C45.444 60.0728 45.4164 60.0878 45.3904 60.1035L45.8699 61.1931C45.9031 61.2688 45.97 61.4133 46.0705 61.6266C46.1071 61.7049 46.1349 61.7654 46.1535 61.8079C46.1899 61.8006 46.2264 61.7911 46.2632 61.7796C46.2997 61.7677 46.3384 61.753 46.3789 61.7352L46.8271 61.5378C47.063 61.4341 47.209 61.3358 47.2649 61.2428C47.321 61.15 47.3208 60.9719 47.2643 60.7084C47.2564 60.6658 47.244 60.6127 47.2273 60.5497C47.1961 60.4335 47.2164 60.3597 47.2883 60.3282L47.4792 60.2441C47.5105 60.2304 47.538 60.2304 47.5617 60.2441C47.5853 60.258 47.6073 60.288 47.6276 60.3339L47.9865 61.1498C48.0182 61.2218 48.0312 61.2701 48.0254 61.2945C48.0198 61.319 47.9967 61.3403 47.9561 61.3581L47.8592 61.4007C47.8482 61.4054 47.8118 61.4204 47.7502 61.4454C47.2527 61.64 46.7273 61.8592 46.1743 62.1025C45.8221 62.2575 45.4873 62.4146 45.1702 62.5741C45.1249 62.5962 45.0975 62.6093 45.0884 62.6132C45.0422 62.6335 45.0098 62.6395 44.9907 62.6314C44.9718 62.6232 44.9517 62.5954 44.9307 62.5473C44.8998 62.4774 44.9132 62.4251 44.9708 62.391C44.9773 62.386 44.9825 62.3826 44.9861 62.381L45.1334 62.3029C45.2076 62.2614 45.2488 62.2126 45.257 62.1561C45.2652 62.0998 45.2315 61.9858 45.1561 61.8142L45.1354 61.7672L45.1353 61.7672Z"   fill="#FFFFFF" >
</path>
<path d="M49.5167 59.6324L47.9883 57.3431C47.8674 57.1621 47.7806 57.0591 47.7274 57.0342C47.6743 57.0089 47.6105 57.0165 47.5356 57.0567L47.3907 57.139C47.322 57.1776 47.2652 57.1634 47.2204 57.0964C47.1914 57.0528 47.1788 57.0194 47.1827 56.9963C47.1867 56.9732 47.2095 56.9474 47.2514 56.9196C47.2614 56.9128 47.291 56.8954 47.3401 56.8676C47.5351 56.7567 47.7171 56.645 47.8863 56.532C48.0102 56.4493 48.2069 56.3119 48.4761 56.1201C48.7451 55.9283 48.9543 55.7827 49.1034 55.6831C49.4251 55.4682 49.6997 55.3728 49.9275 55.3962C50.1551 55.4199 50.3573 55.5641 50.534 55.8287C50.7175 56.1035 50.786 56.3594 50.7395 56.5962C50.693 56.8332 50.5228 57.0872 50.2292 57.3584L51.7799 57.9942C52.0169 58.0951 52.1934 58.1571 52.3092 58.1802C52.4252 58.2034 52.5198 58.1989 52.593 58.1671L52.665 58.1335C52.7036 58.1151 52.7298 58.109 52.7438 58.1153C52.7577 58.1219 52.7798 58.1477 52.81 58.1929C52.8392 58.2365 52.8523 58.2683 52.85 58.288C52.8473 58.3079 52.8243 58.3324 52.7809 58.3613C52.7725 58.367 52.7526 58.3789 52.7213 58.3975C52.5762 58.4774 52.4407 58.5594 52.315 58.6432C52.1743 58.7373 52.0386 58.8387 51.908 58.9477C51.884 58.9661 51.8694 58.9771 51.8644 58.9806C51.8292 59.0039 51.7432 58.9766 51.6063 58.8986C51.4424 58.8022 51.2914 58.7225 51.1528 58.66L49.4929 57.9154L49.4728 57.9288L50.3016 59.17C50.4057 59.3258 50.4837 59.4154 50.5356 59.439C50.5876 59.4624 50.6511 59.454 50.7258 59.4136L50.8707 59.3313C50.8741 59.3292 50.8796 59.3269 50.8875 59.324C50.9473 59.2937 50.9984 59.3103 51.041 59.3741C51.07 59.4178 51.0829 59.4496 51.0796 59.47C51.0762 59.4903 51.0536 59.5147 51.0117 59.5426C51.0033 59.5481 50.9801 59.5623 50.9422 59.5854C50.7249 59.7133 50.5115 59.8473 50.3021 59.9871C50.0944 60.1259 49.8881 60.2722 49.6832 60.4259C49.6474 60.4522 49.6254 60.4682 49.617 60.4737C49.5751 60.5016 49.5441 60.5134 49.524 60.5084C49.5039 60.5037 49.4794 60.4798 49.4502 60.4362C49.4078 60.3726 49.4118 60.3187 49.4627 60.2751C49.4683 60.2691 49.4727 60.2648 49.4761 60.2625L49.6076 60.1603C49.6735 60.1067 49.7056 60.0512 49.7039 59.9942C49.7022 59.9372 49.6492 59.8308 49.5453 59.675L49.5167 59.6324ZM49.4007 57.8205L49.4409 57.7937C49.7408 57.5935 49.9212 57.3878 49.9822 57.1763C50.0432 56.9648 49.9888 56.7317 49.8188 56.4769C49.6667 56.2491 49.4988 56.1203 49.3153 56.0901C49.1317 56.0602 48.9185 56.1261 48.6756 56.2885C48.6404 56.3119 48.5859 56.3518 48.5122 56.4083C48.5017 56.4178 48.493 56.4248 48.4863 56.4293C48.5086 56.47 48.533 56.5121 48.5592 56.5549C48.5855 56.598 48.6211 56.6529 48.6658 56.7199L49.4007 57.8205Z"   fill="#FFFFFF" >
</path>
<path d="M53.1988 56.5485L53.3236 56.4297C53.3877 56.3685 53.4772 56.3834 53.5918 56.4746C53.6253 56.5012 53.6511 56.5209 53.6694 56.5343C53.8822 56.6877 54.0789 56.761 54.2593 56.7547C54.4396 56.7487 54.6166 56.6627 54.7901 56.4975C55.0031 56.2946 55.1198 56.0834 55.1401 55.8637C55.1605 55.6441 55.0823 55.4415 54.9059 55.2563C54.8323 55.179 54.756 55.1218 54.6772 55.0842C54.5982 55.0466 54.5182 55.029 54.4369 55.0311C54.2687 55.0329 54.0043 55.1304 53.6433 55.3238C53.5466 55.3771 53.4714 55.4166 53.4182 55.4423C53.0806 55.611 52.7853 55.6864 52.5321 55.6688C52.279 55.6512 52.0537 55.5387 51.8565 55.3317C51.5828 55.0442 51.4718 54.714 51.5237 54.3404C51.5755 53.967 51.7838 53.6065 52.1484 53.2592C52.2929 53.1217 52.4458 52.9948 52.6077 52.8782C52.7692 52.7618 52.9374 52.658 53.1121 52.5668C53.1569 52.5408 53.1917 52.5293 53.2166 52.5319C53.2415 52.5348 53.2693 52.5521 53.2997 52.5842C53.3206 52.606 53.3705 52.663 53.4495 52.7544C53.5284 52.8461 53.5993 52.925 53.6617 52.9906C53.6798 53.0096 53.7079 53.0361 53.7463 53.0705C53.7846 53.1049 53.8122 53.1309 53.8289 53.1485C53.8524 53.1732 53.8623 53.1966 53.8581 53.2187C53.854 53.2408 53.8338 53.2691 53.7972 53.3038L53.6682 53.4268C53.6083 53.4835 53.5288 53.4733 53.4295 53.3953C53.4184 53.3863 53.4114 53.3806 53.4086 53.3777C53.2157 53.2276 53.0332 53.158 52.8612 53.1688C52.6894 53.1796 52.5115 53.2723 52.3277 53.4476C52.1569 53.6099 52.0633 53.787 52.0464 53.978C52.0298 54.1693 52.0922 54.3393 52.2339 54.488C52.2937 54.5508 52.3654 54.6007 52.4494 54.6375C52.5332 54.6746 52.6186 54.6935 52.7055 54.694C52.8721 54.6966 53.1108 54.6099 53.4214 54.4336C53.4936 54.3926 53.5492 54.3619 53.5882 54.3417C54.0112 54.1112 54.3481 54.0025 54.5985 54.0156C54.8489 54.029 55.093 54.1604 55.3305 54.4097C55.6402 54.735 55.7661 55.095 55.708 55.4896C55.6501 55.8842 55.4124 56.2805 54.9952 56.6777C54.8348 56.8304 54.6668 56.9696 54.4914 57.095C54.3159 57.2203 54.1417 57.3264 53.9685 57.4134L53.9663 57.4155C53.9057 57.4455 53.843 57.426 53.7775 57.3574C53.7623 57.3414 53.7333 57.3073 53.6903 57.255C53.6475 57.2027 53.6107 57.1604 53.5801 57.1283C53.4662 57.0088 53.3429 56.8895 53.2105 56.771C53.1785 56.7431 53.1597 56.7263 53.154 56.7203C53.1291 56.6914 53.1195 56.6664 53.1249 56.6459C53.1304 56.6254 53.1551 56.5929 53.1988 56.5485Z"   fill="#FFFFFF" >
</path>
<path d="M57.158 53.3623L55.0042 51.6482C54.8341 51.5126 54.7198 51.4411 54.6616 51.4332C54.6034 51.4256 54.5448 51.4524 54.4858 51.5136L54.3728 51.6361C54.322 51.6933 54.2637 51.6973 54.1978 51.6474C54.1568 51.6148 54.135 51.5877 54.1327 51.5664C54.1303 51.5454 54.1441 51.5157 54.1742 51.4779C54.1792 51.4716 54.1976 51.4503 54.2292 51.4135C54.4021 51.2191 54.5688 51.021 54.7294 50.8192C54.8862 50.6221 55.0368 50.4217 55.1813 50.2173C55.2086 50.1799 55.2248 50.1579 55.2298 50.1516C55.2612 50.1122 55.2872 50.0917 55.3077 50.0901C55.3283 50.0885 55.3592 50.104 55.4001 50.1366C55.4648 50.1881 55.4748 50.2448 55.4302 50.3074L55.4284 50.3097L55.3362 50.4448C55.2899 50.516 55.2767 50.5796 55.2966 50.6353C55.3166 50.6912 55.4117 50.7869 55.5818 50.9222L57.7759 52.6684C57.9225 52.785 58.0243 52.8463 58.0816 52.8518C58.1389 52.8576 58.1964 52.8308 58.2541 52.7711L58.367 52.6484C58.3695 52.6453 58.3748 52.6405 58.3826 52.634C58.4291 52.5885 58.4823 52.5896 58.5422 52.6371C58.5832 52.67 58.6051 52.6965 58.6081 52.7167C58.6111 52.7372 58.5969 52.7672 58.5657 52.8066C58.5594 52.8145 58.5416 52.835 58.5125 52.8686C58.3459 53.0551 58.1842 53.2469 58.0275 53.444C57.8669 53.6458 57.7112 53.8528 57.5604 54.0649C57.5331 54.1022 57.5164 54.125 57.5101 54.1329C57.48 54.1708 57.4543 54.1907 57.4331 54.1934C57.4118 54.1957 57.3808 54.1805 57.3399 54.1479C57.2799 54.1003 57.2675 54.0481 57.3025 53.9908C57.3061 53.9834 57.309 53.9779 57.3115 53.9747L57.4055 53.8373C57.4519 53.7661 57.4656 53.7036 57.4467 53.6497C57.4276 53.5961 57.3448 53.5107 57.1982 53.3941L57.158 53.3623Z"   fill="#FFFFFF" >
</path>
<path d="M59.46 49.7776L57.3437 48.5422C57.2445 48.4841 57.1384 48.4234 57.0251 48.3596C56.9119 48.2957 56.7917 48.229 56.6644 48.1594L56.477 48.4804C56.3815 48.6439 56.3425 48.7726 56.3599 48.8669C56.3772 48.961 56.4743 49.0924 56.6511 49.2608C56.6791 49.2889 56.7155 49.3207 56.7601 49.3559C56.8424 49.4226 56.8668 49.4846 56.8333 49.5422L56.7282 49.7222C56.7089 49.7553 56.6891 49.7752 56.6688 49.7821C56.6485 49.7889 56.6252 49.7844 56.5992 49.7692C56.5975 49.7684 56.5911 49.7634 56.5799 49.7545C56.5687 49.7458 56.5578 49.7382 56.5475 49.7321C56.4883 49.6975 56.3911 49.6431 56.2561 49.569C56.1209 49.4949 56.0168 49.4363 55.9438 49.3937C55.8811 49.3572 55.8193 49.3233 55.758 49.2923C55.7494 49.2871 55.7443 49.2842 55.7424 49.2831C55.7285 49.275 55.7217 49.2629 55.7218 49.2466C55.7219 49.2303 55.7297 49.209 55.7449 49.183C55.7469 49.1796 55.7538 49.1696 55.7658 49.1533C55.8198 49.0729 55.8721 48.9891 55.9229 48.9021C55.9523 48.8517 56.0188 48.7419 56.1223 48.5724C56.2259 48.4032 56.3127 48.2584 56.3827 48.1383L56.9876 47.1026C57.0444 47.0051 57.1271 46.8598 57.2353 46.6664C57.3436 46.4731 57.425 46.3293 57.4799 46.2353C57.5113 46.1814 57.5413 46.1241 57.5695 46.0637C57.576 46.0487 57.5802 46.0395 57.5823 46.0361C57.5975 46.0101 57.6126 45.9922 57.6277 45.9823C57.6428 45.9723 57.6573 45.9715 57.6712 45.9796C57.6834 45.9867 57.6977 45.998 57.7143 46.0135C57.731 46.029 57.7428 46.039 57.7496 46.043C57.7532 46.0451 57.7615 46.0487 57.7747 46.054C57.8185 46.075 57.8578 46.0955 57.8926 46.116C57.9517 46.1504 58.0439 46.2072 58.1692 46.2863C58.2946 46.3651 58.3903 46.4239 58.4564 46.4626L58.5112 46.4946C58.5391 46.5109 58.5551 46.5282 58.5593 46.5472C58.5635 46.5658 58.5564 46.591 58.5381 46.6223L58.4315 46.8049C58.3952 46.863 58.3256 46.8724 58.2224 46.8333C58.1713 46.8128 58.129 46.7976 58.0954 46.787C57.8617 46.7161 57.6993 46.6964 57.6084 46.7285C57.5174 46.7605 57.4241 46.8583 57.3287 47.0217L57.1443 47.3375C57.1949 47.3669 57.2968 47.43 57.4502 47.5267C57.6038 47.6234 57.7232 47.6964 57.8084 47.7463L59.9246 48.9817C60.1125 49.0916 60.236 49.1454 60.2952 49.1439C60.3545 49.1423 60.4094 49.1063 60.46 49.0353L60.6089 48.8286C60.6147 48.8225 60.6206 48.8144 60.6267 48.8039C60.6673 48.7505 60.7205 48.7432 60.7866 48.7818C60.8319 48.8081 60.8576 48.8309 60.8641 48.8498C60.8705 48.8688 60.8605 48.9008 60.8341 48.946C60.8291 48.9547 60.8144 48.9778 60.7904 49.0149C60.6381 49.2479 60.4887 49.4896 60.3425 49.74C60.1922 49.9975 60.051 50.2534 59.919 50.5075C59.8973 50.5485 59.884 50.5734 59.8789 50.5821C59.8515 50.6291 59.8273 50.6546 59.8063 50.6586C59.7852 50.6628 59.7529 50.652 59.7094 50.6265C59.6426 50.5853 59.6234 50.5343 59.6516 50.4739C59.6568 50.4652 59.6604 50.4568 59.6628 50.4489L59.7729 50.2122C59.8086 50.1352 59.8132 50.0713 59.7867 50.0209C59.7602 49.9704 59.6661 49.8979 59.5042 49.8036L59.46 49.7776Z"   fill="#FFFFFF" >
</path>
<path d="M61.7219 45.0298L60.8602 44.7206C60.7008 44.6633 60.5431 44.656 60.3866 44.6983C60.3654 44.7035 60.3491 44.7072 60.3376 44.7096L58.8145 45.0711C58.594 45.1247 58.4386 45.1717 58.3481 45.2119C58.2577 45.2524 58.1982 45.2973 58.1697 45.347L58.1296 45.4224L58.1236 45.4395L58.1123 45.4707C58.1035 45.4954 58.0882 45.5099 58.0664 45.5138C58.0446 45.5177 58.011 45.5114 57.9655 45.4952C57.9181 45.4781 57.8896 45.4594 57.8799 45.4387C57.8702 45.4182 57.8738 45.384 57.8908 45.3367C57.8935 45.3291 57.9037 45.3039 57.9213 45.261C58.0244 45.0154 58.1221 44.7637 58.2148 44.5059C58.3066 44.25 58.3909 43.9946 58.4675 43.7395C58.482 43.6933 58.4905 43.6665 58.4931 43.6588C58.5095 43.6134 58.5274 43.5861 58.5467 43.5769C58.566 43.5679 58.6003 43.5721 58.6496 43.5897C58.7229 43.6184 58.7518 43.6628 58.7364 43.7237C58.7335 43.7377 58.7314 43.7466 58.73 43.7503L58.7142 43.812C58.6968 43.8785 58.6995 43.9352 58.7224 43.982C58.7452 44.0285 58.7888 44.0635 58.8532 44.0866C58.8836 44.0976 58.9314 44.1002 58.9964 44.0947C59.0616 44.0892 59.1539 44.0748 59.2736 44.0514L60.5014 43.8149L59.8393 43.0572C59.7133 42.9134 59.6129 42.8083 59.5383 42.7419C59.4637 42.6757 59.4008 42.6331 59.3497 42.6147C59.2908 42.5937 59.2419 42.5926 59.2029 42.6118C59.1639 42.631 59.13 42.672 59.1012 42.7342L59.0558 42.843C59.039 42.8777 59.0243 42.8982 59.0113 42.9042C58.9984 42.9103 58.9739 42.9069 58.938 42.894L58.9038 42.8816C58.8469 42.8611 58.8154 42.8435 58.8089 42.8283C58.8026 42.8133 58.8074 42.7839 58.823 42.7403C58.825 42.7345 58.8321 42.718 58.8442 42.6901C58.9181 42.5262 58.987 42.3551 59.0509 42.177C59.1149 41.9986 59.1706 41.8228 59.2179 41.6494C59.2262 41.6202 59.2314 41.6029 59.2334 41.5971C59.2505 41.5498 59.2665 41.5227 59.2816 41.5164C59.2967 41.5101 59.3318 41.517 59.3867 41.5367C59.4456 41.5577 59.4782 41.5742 59.4846 41.5861C59.491 41.5981 59.4889 41.6247 59.4784 41.6657L59.4566 41.7445C59.4356 41.827 59.472 41.9507 59.5655 42.116C59.6593 42.2813 59.9035 42.6221 60.2982 43.1383C60.3304 43.1799 60.3741 43.2395 60.4297 43.3173C60.6187 43.5777 60.7977 43.7382 60.9663 43.7986L62.027 44.1796C62.2318 44.2532 62.3632 44.2836 62.4211 44.2713C62.4791 44.2589 62.5265 44.2132 62.5633 44.1344L62.6702 43.8903C62.6715 43.8866 62.6732 43.8819 62.6753 43.8761C62.705 43.8054 62.7588 43.7842 62.8364 43.812C62.885 43.8317 62.9139 43.8512 62.923 43.8703C62.9322 43.8898 62.9281 43.9232 62.9112 43.9705C62.9077 43.9799 62.8976 44.0051 62.8808 44.0461C62.7715 44.3089 62.6675 44.5777 62.5688 44.8525C62.4695 45.1292 62.3791 45.4019 62.2978 45.6701C62.2846 45.7124 62.2765 45.7385 62.2731 45.7479C62.256 45.7952 62.2379 45.8236 62.2186 45.8325C62.1993 45.8417 62.1646 45.8386 62.1145 45.8225C62.0369 45.7947 62.009 45.744 62.0311 45.6707C62.0332 45.6649 62.0348 45.6602 62.0362 45.6565L62.1101 45.3971C62.1304 45.3168 62.1228 45.2542 62.0876 45.2093C62.0523 45.1646 61.9465 45.1105 61.7702 45.0472L61.7219 45.0298Z"   fill="#FFFFFF" >
</path>
<path d="M30.6679 25.8107C30.6513 26.1136 30.6131 26.3031 30.5537 26.3792C30.4942 26.4554 30.3577 26.4935 30.144 26.4935L28.9678 26.4935L28.9678 26.4433L29.4472 26.0727C29.6683 25.9017 29.8606 25.7475 30.0242 25.61C30.1876 25.4725 30.313 25.3601 30.4004 25.2728C30.5639 25.113 30.6791 24.962 30.746 24.8199C30.813 24.6777 30.8464 24.5165 30.8464 24.3363C30.8464 24.0595 30.7521 23.8569 30.5634 23.7287C30.3748 23.6005 30.0734 23.5364 29.6591 23.5364C29.2651 23.5364 28.9725 23.607 28.7811 23.7483C28.5897 23.8895 28.494 24.105 28.494 24.3948C28.494 24.4859 28.5192 24.5495 28.5693 24.5857C28.6195 24.622 28.7123 24.6401 28.848 24.6401C28.9669 24.6401 29.0519 24.6229 29.103 24.5885C29.1541 24.5542 29.1796 24.4971 29.1796 24.4171C29.1796 24.1515 29.2084 23.9726 29.2661 23.8806C29.3236 23.7886 29.4239 23.7426 29.5671 23.7426C29.7232 23.7426 29.8365 23.7914 29.907 23.8889C29.9777 23.9865 30.0131 24.1431 30.0131 24.3586C30.0131 24.602 29.9368 24.8473 29.7844 25.0944C29.6321 25.3416 29.3143 25.702 28.8313 26.1758C28.7644 26.239 28.6826 26.3133 28.586 26.3988C28.4634 26.5047 28.402 26.5817 28.402 26.6301L28.402 27.076C28.402 27.1095 28.4071 27.135 28.4175 27.1527C28.4275 27.1703 28.442 27.1791 28.4606 27.1791C28.5684 27.1754 28.6483 27.1736 28.7002 27.1736L30.1217 27.1736C30.3224 27.1736 30.5248 27.1773 30.7293 27.1847L30.7878 27.1847C30.8269 27.1847 30.8519 27.1777 30.863 27.1638C30.8742 27.1499 30.8798 27.1039 30.8798 27.0258L30.8742 25.8107L30.6679 25.8107Z"   fill="#274B8F" >
</path>
<path d="M32.8892 23.5364C32.3912 23.5364 32.0355 23.6776 31.8219 23.9601C31.6082 24.2425 31.5014 24.72 31.5014 25.3926C31.5014 26.0856 31.5965 26.5674 31.787 26.8377C31.9774 27.1081 32.3068 27.2432 32.775 27.2432C33.0593 27.2432 33.3012 27.1935 33.5011 27.0941C33.7007 26.9948 33.8527 26.8484 33.9567 26.6552C34.0292 26.5158 34.0812 26.3514 34.1129 26.1619C34.1444 25.9723 34.1602 25.6852 34.1602 25.3007C34.1602 24.6615 34.0626 24.2077 33.8675 23.9391C33.6724 23.6707 33.3464 23.5364 32.8892 23.5364ZM33.2099 26.7457C33.1429 26.9213 33.0166 27.0091 32.8308 27.0091C32.6468 27.0091 32.521 26.9111 32.4531 26.7151C32.3853 26.5191 32.3514 26.0745 32.3514 25.3814C32.3514 24.668 32.3853 24.2202 32.4531 24.0381C32.521 23.856 32.6468 23.765 32.8308 23.765C33.0166 23.765 33.1429 23.8565 33.2099 24.0395C33.2767 24.2225 33.3102 24.6698 33.3102 25.3814C33.3102 26.1154 33.2767 26.5702 33.2099 26.7457Z"   fill="#274B8F" >
</path>
<path d="M35.9076 27.2432C36.1919 27.2432 36.4339 27.1935 36.6338 27.0941C36.8333 26.9948 36.9853 26.8484 37.0894 26.6552C37.1619 26.5158 37.2138 26.3514 37.2455 26.1619C37.277 25.9723 37.2928 25.6852 37.2928 25.3007C37.2928 24.6615 37.1953 24.2077 37.0002 23.9391C36.8051 23.6707 36.479 23.5364 36.0219 23.5364C35.5239 23.5364 35.1682 23.6776 34.9545 23.9601C34.7408 24.2425 34.634 24.72 34.634 25.3926C34.634 26.0856 34.7291 26.5674 34.9196 26.8377C35.11 27.1081 35.4395 27.2432 35.9076 27.2432ZM35.5858 24.0381C35.6536 23.856 35.7795 23.765 35.9634 23.765C36.1492 23.765 36.2755 23.8565 36.3425 24.0395C36.4093 24.2225 36.4428 24.6698 36.4428 25.3814C36.4428 26.1154 36.4093 26.5702 36.3425 26.7457C36.2755 26.9213 36.1492 27.0091 35.9634 27.0091C35.7795 27.0091 35.6536 26.9111 35.5858 26.7151C35.5179 26.5191 35.484 26.0745 35.484 25.3814C35.484 24.668 35.5179 24.2202 35.5858 24.0381Z"   fill="#274B8F" >
</path>
<path d="M37.7555 26.2371C37.7592 26.2371 37.7685 26.2361 37.7834 26.2343C37.8447 26.2287 37.9041 26.2259 37.9617 26.2259L39.2047 26.2259L39.2047 26.4879C39.2047 26.6868 39.1862 26.8089 39.1491 26.8545C39.1118 26.9 39.0339 26.9283 38.915 26.9394L38.7644 26.9506C38.7607 26.9506 38.7551 26.9516 38.7477 26.9534C38.6864 26.9608 38.6557 26.9999 38.6557 27.0704C38.6557 27.1187 38.6627 27.1499 38.6766 27.1638C38.6905 27.1777 38.7199 27.1847 38.7644 27.1847C38.7756 27.1847 38.8043 27.1838 38.8509 27.1819C39.0719 27.1689 39.2893 27.1624 39.503 27.1624C39.7502 27.1624 39.9944 27.1689 40.236 27.1819C40.2769 27.1838 40.3019 27.1847 40.3113 27.1847C40.3577 27.1847 40.3874 27.1777 40.4004 27.1638C40.4134 27.1499 40.42 27.1187 40.42 27.0704C40.42 26.9999 40.3902 26.9608 40.3308 26.9534C40.3197 26.9516 40.3113 26.9506 40.3056 26.9506L40.1524 26.9394C40.0669 26.9321 40.0093 26.9051 39.9796 26.8586C39.9499 26.8122 39.9351 26.6886 39.9351 26.4879L39.9351 26.2204L40.3364 26.2204C40.3679 26.2204 40.3897 26.2148 40.4018 26.2037C40.4138 26.1925 40.42 26.1711 40.42 26.1395L40.42 25.8023C40.42 25.7652 40.4124 25.742 40.3976 25.7326C40.3828 25.7233 40.354 25.7187 40.3113 25.7187L39.9351 25.7187L39.9351 23.8848C39.9351 23.8216 39.9397 23.7557 39.949 23.6869C39.9508 23.6683 39.9517 23.6563 39.9517 23.6507C39.9517 23.6284 39.9434 23.6126 39.9267 23.6033C39.91 23.5941 39.8802 23.5893 39.8375 23.5893L39.1713 23.5893C39.1118 23.5893 39.017 23.699 38.887 23.9182C38.7663 24.1189 38.6576 24.2927 38.561 24.4394C38.4178 24.655 38.2405 24.9132 38.0287 25.2142C37.8038 25.5338 37.6914 25.7168 37.6914 25.7633L37.6914 26.1061C37.6914 26.1117 37.6904 26.12 37.6886 26.1312C37.6867 26.1423 37.6858 26.1507 37.6858 26.1563C37.6858 26.1841 37.6918 26.2046 37.7039 26.2176C37.7159 26.2306 37.7333 26.2371 37.7555 26.2371ZM38.469 25.0414C38.8574 24.4599 39.0988 24.0845 39.1936 23.9155L39.2327 23.9155L39.216 25.7243L38.012 25.7243C38.1235 25.5571 38.2757 25.3295 38.469 25.0414Z"   fill="#274B8F" >
</path>
<path d="M51.1069 26.6098L51.1069 25.011L34.3189 15.3184L17.5326 25.01L17.5326 26.6108L29.9392 33.7761L29.9392 46.6123L27.2761 45.0604L27.2757 33.8639L23.9845 31.9637L23.9845 43.1725L21.2344 41.5847L21.2344 30.376L17.9427 28.4757L17.9427 43.8663L34.3189 53.3211L44.5293 47.4262L44.5293 41.3277L47.4035 39.6554L47.4035 45.7667L50.6952 43.8663L50.6952 28.4757L47.4035 30.3759L47.4035 35.8989L44.5293 37.5712L44.5293 32.0354L41.2636 33.9208L41.2636 45.1296L38.6987 46.6085L38.6987 33.7761L51.1069 26.6098ZM35.4069 32.1939L35.4069 48.0017C35.4069 48.5545 34.8064 49.0204 34.3189 49.0204C33.8157 49.0204 33.2309 48.5545 33.2309 48.0017C33.2309 47.9876 33.2309 47.6296 33.2309 44.4701L33.2309 32.193L22.1757 25.8104L34.3189 18.8108L46.4423 25.8104L35.4068 32.1939L35.4069 32.1939Z"   fill="#274B8F" >
</path>
</svg>
