<?xml version="1.0" encoding="UTF-8"?><svg id="b" xmlns="http://www.w3.org/2000/svg" viewBox="0 0 48.1697 48"><g id="c"><path d="M24.0878,47.9988C6.9157,48.1678-4.9106,30.0636,2.0101,14.4108c8.3791-19.1167,35.479-19.2397,44.0502-.2149,7.1294,15.6609-4.7167,33.9588-21.9725,33.8029ZM46.8273,23.9905C46.9932,7.647,29.4352-3.6918,14.5935,3.3281-2.4192,11.0995-3.1616,35.1882,13.3306,43.9999c14.9746,8.1619,33.5772-2.9799,33.4967-20.0094Z" fill="#005c9c" stroke-width="0"/><path d="M24.0811,38.3831c-10.9591.1395-18.1689-12.3742-12.3978-21.7471,6.1094-10.433,21.9167-8.9151,25.9634,2.4597,3.4505,9.1875-3.7642,19.4154-13.5656,19.2874ZM24.0844,10.0198c-9.89-.2117-16.9405,10.5708-12.8134,19.563,4.4967,10.4199,19.312,11.2453,24.919,1.3735,5.4492-9.0333-1.5208-21.1515-12.1056-20.9365Z" fill="#005c9c" stroke-width="0"/><path d="M7.9027,16.938c.0296.0853.0542.1723.0887.2543.023.0525.0213.1067-.0181.1329-.0312.0213-.0887.0115-.133.0066-.0575-.0066-.1215-.0115-.1708-.0377-.1692-.0919-.317-.2018-.3712-.4037-.0328-.1231-.0903-.2396-.1363-.3594-.0197-.0492-.0378-.1001-.0575-.1493-.0115-.0295-.0214-.0624-.0394-.0886-.0854-.1346-.1741-.2675-.2693-.4135-.0181.0377-.0427.0722-.0493.1099-.0312.1641-.0558.1756-.1807.0738-.0164-.0131-.0345-.0295-.0542-.0312-.1856-.0262-.2447-.192-.3235-.3167-.0657-.105-.0788-.2412-.1215-.361-.092-.2609-.1839-.5202-.2808-.7794-.0641-.169-.1068-.3495-.2234-.4923-.1281-.1575-.0788-.32-.0476-.4873.0049-.0295.0197-.0706.0066-.0903-.1182-.1871-.0312-.3922-.0509-.5874-.0033-.0345.0394-.0738.069-.1247.1626.0427.3285.0164.4894-.0099.1527.1789.3203.3151.5223.4201.1889.0984.3597.2347.5387.3528.0443.0295.0953.0509.1396.0804.1084.0689.2135.1444.3235.2117.0903.0558.1856.1034.289.1608.0017-.0443.0049-.0804.0066-.1165-.7752-.361-1.3582-.9534-1.91-1.5359.0066-.1756.0131-.3265.0181-.4759.0049-.1805.0476-.2314.2266-.279.046-.0115.0903-.0345.133-.0558.1445-.0689.2381-.0656.3334.0459.2004.233.473.3676.7243.5284.0263.018.064.0246.0821.0476.0755.0935.1807.1345.2858.1756.0181-.0541.0263-.1149.0558-.1625.0542-.0886.0427-.1854.0558-.2822.0345-.2839.1084-.5563.2726-.7958.0427-.0624.1002-.0837.1675-.0394.0427.0279.0805.064.115.0919-.0936.2232-.1806.4299-.2661.6367-.0099.0246-.0148.0509-.0181.0788-.0213.2035-.0427.4069-.0657.6252.0378.0345.092.0788.1396.128.0246.0263.0624.0771.0526.0935-.0526.1001-.0181.21-.0427.3101-.0115.0443-.046.087-.0821.1198-.0723.0673-.1182.1346-.0952.2429.0115.0541-.0148.1149-.0246.1739.0838.0082.1609.0164.2381.0213.0575.0033.0953-.0213.0985-.082.0016-.0213-.0016-.0443.0033-.0656.0378-.2068.1232-.2511.3301-.1641.0016-.1313.0246-.256-.0263-.3856-.0296-.0755-.0279-.1821.0016-.2576.0411-.1083.0312-.215.0312-.3216,0-.2232.0723-.4348.1084-.6531.0099-.0591.0805-.1067.1281-.1641.0805.0525.1462.0952.2135.1378.046.1395-.023.2642-.0509.3938-.0049.0246-.0279.0591-.0181.0722.0903.1198.0838.2625.0821.4119.1544-.0049.2529.0886.3597.1707.1412.11.2858.2166.4336.3183.1051.0722.2217.1296.3268.2018.1018.0705.1905.1625.2923.2314.0788.0525.1757.0804.2595.1296.1363.0788.2825.128.4286.1789.046.0164.0772.0738.1166.1116.0558.0558.0985.1181.1807.1575.0575.0279.1018.128.11.2002.0066.0525.0213.1214.0033.1657-.0411.1083.0427.2281-.0427.3331-.0246.0312-.0115.0935-.0148.1444-.2201.0607-.3991-.0098-.565-.1411-.2053-.1592-.4139-.3118-.6208-.4677-.0345-.0263-.064-.0558-.0936-.087-.1248-.1313-.271-.233-.4303-.3167-.0197-.0098-.0427-.0131-.0591-.0262-.161-.1362-.3186-.2757-.4796-.4119-.0673-.0574-.115-.1444-.2201-.1575.0411.2593-.1117.3758-.4336.3298-.0082-.0377-.0181-.0771-.0263-.1165-.1018.1575.0017.3151-.0115.4709q.1609.0328.225-.0837c.0657-.1181.1757-.1263.2578-.018.0197.0262.0345.0541.046.0738-.0164.0509-.0312.0968-.046.1411-.0197.0673.023.1001.069.1329.0525.0377.0887.0099.1297-.0213.1363-.1001.2234-.0935.3252.0197.046.0509.0772.0985.0361.1739-.0263.0492-.023.1132-.0394.1985.0673-.0164.1199-.0197.1642-.0394.1166-.0509.1987-.041.2956.0492.0821.0771.092.1608.0591.2724-.0378.1264-.0526.2625-.0608.3938-.0082.1575-.0115.3085-.0756.4611-.0509.1247-.0476.274-.0575.4135-.0049.0886-.0641.1345-.115.1871-.0164.0164-.0591.0312-.0756.023-.133-.0804-.3038-.0394-.4336-.1542-.1609-.1411-.3498-.2511-.5206-.3807-.0821-.0624-.156-.1362-.2234-.2117-.1199-.1329-.2266-.2773-.3876-.3791-.0033.0213-.0131.0427-.0066.0509.1051.1313.2102.2625.3203.3905.0723.0853.1265.1739.0936.297-.1117.0443-.1905-.0131-.2595-.0837-.1889-.1903-.335-.4069-.3958-.6728-.023-.0985-.0345-.2002-.069-.2937-.046-.1296-.11-.2543-.1675-.3873-.087.0164-.1199.0607-.1166.146.0049.1428.0049.2839,0,.4266-.0017.0525-.0148.1083-.0345.1559-.0312.0771-.1117.1034-.1757.0886-.0509-.0115-.115-.0755-.1265-.1263-.023-.0952-.0772-.1346-.1593-.1575-.0345-.0098-.0706-.0246-.1018-.0443-.1248-.0755-.2496-.1493-.3679-.2346-.087-.0624-.1626-.1428-.2463-.21-.0624-.0509-.1314-.0919-.1954-.1395-.0772-.0591-.1527-.1214-.2283-.1838-.0542-.0443-.1068-.0886-.1642-.1362-.0509.2232.1002.3774.1609.5579.0476.1395.1215.2609.2496.3594.0279-.0673.0526-.1264.0772-.1838.1544-.0492.2562.041.3088.151.0821.1739.2086.3101.3268.4545.0755.0919.1462.1887.2135.2855.0542.0771.1068.1362.2151.1526.0953.0148.2086.0673.2661.1411.1051.1346.2644.1346.3892.2117.2201.1362.473.2232.6192.466.0591.1001.156.1772.2348.2658.0312.0345.0575.0722.1018.1263-.1544.0591-.2825.1083-.4122.1559-.0131.0049-.0329.0016-.0476-.0049-.1839-.0771-.3662-.1542-.5485-.233-.023-.0099-.0394-.0345-.0575-.0509-.0099.0033-.0181.0099-.0263.0181ZM6.6053,12.6683c.1084-.2018.0953-.2494-.0821-.3544-.0328-.0197-.0624-.0443-.0936-.064-.0427-.0279-.0772-.0771-.1412-.0574-.0131.0706-.0246.1378-.0394.2199.1117.0804.2283.1641.3564.256ZM7.9126,14.1288c.023.1608.0427.3019.0624.4414.0558.0115.11.0148.1593.0345.046.018.0838.0542.1347.0903.0312-.2182.0115-.2478-.3564-.5661ZM6.9502,12.9686c.0526.0591.0887.1067.133.1477.0394.0377.0838.0312.1051-.0197.0854-.2018-.0115-.3561-.2381-.3741v.2461ZM6.7039,14.027q-.1478-.1214-.2529-.1017c.0214.1444.0197.297.1971.3561.0838-.0771.0427-.1723.0558-.2543ZM7.6777,13.4166c-.2053-.0541-.2217-.0821-.1971-.3397.2316.018.2808.1067.1971.3397ZM5.7776,13.3953c-.0164.0558-.0296.0984-.0411.1362q.2529.1625.3744.3446c.0049-.0427.0082-.0722.0115-.1017.0115-.1116-.0049-.1986-.1347-.2379-.069-.0197-.1248-.0804-.2102-.1411ZM7.2163,14.6818c.0279-.0459.0558-.0821.069-.1214.0181-.0476.0148-.0968-.0394-.1263-.0788-.0427-.1577-.087-.2365-.1313-.0394.1378.0591.32.2069.3791ZM8.7633,15.2068c.0164-.0049.0329-.0082.0493-.0131v-.3068c0-.0213-.0033-.0558-.0148-.0607-.046-.0197-.1018-.0492-.1429-.0377-.0575.0164-.0263.0771-.0016.105.046.0542.046.1149.0542.1805.0066.0459.0378.0886.0558.1329ZM9.0984,15.0871c.0575.1067.0213.21.0016.3216h.1478q.0312-.233-.1495-.3216ZM9.5566,15.6318c.0509.0246.0985.0295.1002-.0558.0016-.0853,0-.1723,0-.2625h-.0591c-.0131.105-.0263.2018-.0411.3183Z" fill="#005c9c" stroke-width="0"/><path d="M29.7161,6.805c.138-.0148.2743.0099.3827-.1067-.023-.0066-.046-.0197-.0558-.0148-.11.0706-.2332.0459-.3498.0459-.161,0-.2332-.0574-.3038-.2379.0838-.0591.1675-.128.2611-.1756.0394-.0197.1117-.0099.1544.0131.1429.0771.2858.0279.427.0131.069-.0066.1363-.0246.2036-.0377.0575-.0115.1133-.0295.1708-.0361.0854-.0082.1905-.041.2562-.0066.1609.0853.3022.0263.4483-.018.1051-.0312.2053-.082.3203-.128-.1642-.0591-.3038-.1132-.4467-.1575-.064-.0197-.1478-.0443-.1987-.0197-.0755.0394-.1462.0361-.2201.0361-.3728.0016-.744,0-1.1168.0016-.0378,0-.0788-.0082-.115.0016-.1068.0312-.2349.0279-.2496.1936-.0115.1329-.0903.2379-.1938.3249-.0361.0312-.0575.0771-.0887.1149-.0657.082-.11.1821-.2349.2035-.0476.0082-.087.0591-.1412.0985-.0821-.0443-.1692-.0903-.2562-.1378l.0099-.0148c-.0558-.0082-.1199-.0033-.1675-.0279-.1659-.0837-.1741-.1428-.1084-.3216.046-.1263.1182-.2264.2119-.3216.087-.0886.1544-.1953.2332-.2937.0575-.0722.1215-.1378.1757-.2117.0345-.0459.0641-.1001.0805-.1543.0131-.0443.0033-.0968.0033-.1592.0509-.0066.0985-.0295.1314-.0148.1314.0558.2825.0509.3958.1657.0427.0427.1527.0574.2102.0345.1445-.0574.289-.0295.4352-.041.046-.0033.092-.0082.1396-.0427-.0263-.0082-.0525-.0181-.0805-.023-.0953-.018-.1774-.0624-.2168-.1526-.0411-.0952-.0985-.1887-.0755-.3019.0082-.0345.0049-.0804-.0115-.1116-.0673-.1198-.0525-.2379-.0131-.3594.0049-.0164.0016-.0377-.0016-.0558-.0016-.0098-.0131-.0181-.0164-.0279-.0329-.1165-.0033-.2494.0624-.2822.0558-.0279.2135.0197.2776.0935.0525.0591.0903.1329.1478.1887.0443.0427.1068.0656.1806.1067,0,.2461.0049.507-.0049.7679-.0016.0443-.0624.0853-.092.1231.2529.0394.4615-.1345.7029-.1854-.1298-.0755-.2168-.1723-.2398-.3348-.0148-.1067-.0575-.2035,0-.3118.0115-.023-.0197-.0689-.0296-.105-.0246-.087,0-.1723.0558-.2068.0608-.0377.1429-.0164.2135.0558.046.0459.0903.0968.1429.1346.0542.0394.1068.0771.1921.0689.0788-.0082.1626.0377.2447.0558.0575.0131.1166.0328.1741.0279.2266-.0148.4024.0919.5781.2133.1264.0886.1347.2297.1708.3561.0213.0755-.1462.2593-.2398.2839-.0263.0066-.0608,0-.0788.0148-.1741.1378-.3761.1165-.5781.1181-.1445.0016-.2825.0377-.4139.1067.179.018.3597.0213.5338.0607.1921.0427.3958.0394.5797.1296.1347.0673.2464.1674.3235.2888.0443.0689.0328.1772.0328.2675,0,.0213-.0509.0525-.0821.0624-.0411.0115-.087-.0016-.1297.0049-.0739.0099-.1445.0312-.2184.0427-.1018.0148-.2053.0345-.3071.0377-.1347.0049-.2677-.018-.3991.0394-.0378.0164-.0953-.0016-.1396-.0164-.087-.0295-.1429-.0099-.2168.0542-.1363.1198-.2923.2166-.4434.3183-.0756.0509-.1577.0903-.2348.1346.0443.0788.0755.1444.1182.2018.0608.0853.1577.0903.2513.1099.2348.0492.473.0919.6832.2215.0953.0591.0969.1608.1314.2461.0246.0607-.0296.1017-.087.1149-.041.0098-.0887.0131-.1297.0033-.1774-.0377-.358-.0689-.5305-.1231-.1494-.0459-.2546.0016-.271.1526-.0082.082-.0509.1674-.1018.2347-.064.0837-.0903.169-.0788.2691.0115.105-.0378.1723-.1183.233-.1232.0952-.2529.1871-.358.3003-.1478.1592-.3285.1395-.5009.1001-.1987-.0459-.3728-.146-.4943-.3298-.0739-.1116-.1839-.1986-.2743-.3019-.0838-.0968-.1675-.1953-.2398-.3019-.0246-.0377-.0115-.1001-.0181-.1756.0591.0197.0969.0246.1248.0427.2677.1723.5814.215.8721.3233.0443.0164.115.0066.156-.0197.1839-.1181.2595-.3069.3268-.5333-.1363-.0115-.2529-.0312-.3695-.0295-.2053.0016-.4122.0213-.5994-.0935-.0131-.0082-.0328-.0082-.0476-.0066-.115.018-.202-.0262-.2677-.1149-.069-.0935-.1232-.1936-.0854-.3282.0558-.0246.115-.0279.1774.0099.087.0541.1839.0591.2841.0574.2119-.0033.4254-.0016.6421-.0016-.0148-.0984-.0443-.1838-.0361-.2658.0066-.0755.0542-.1542.087-.2445ZM31.3387,4.9032c-.087.082-.1511.1428-.2381.2232.2102-.0066.3482-.1214.5108-.1674-.0016-.0131-.0016-.0263-.0033-.0394-.0936-.0049-.1889-.0115-.2693-.0164Z" fill="#005c9c" stroke-width="0"/><path d="M41.1872,14.8785c.0214.1395-.0887.2166-.1675.2921-.0509.0492-.1478.0574-.2266.0656-.1774.0164-.3629-.0263-.5272.0673-.1314.0755-.2595.1559-.3843.2412-.0936.064-.1872.1313-.2693.2084-.0772.0722-.138.1625-.1987.2363.0936.3479.3744.5005.6192.681.1199.087.2743.064.4122.0312.1774-.041.3482-.1067.5239-.1543.0755-.0197.156-.023.2644-.0377-.0082-.0049.0148.0082.0361.0246.069.0542.0739.1116.0049.1493-.2414.1296-.4516.2987-.6586.4742-.1183.1001-.2513.1871-.3646.2921-.0624.0574-.1265.0656-.1954.0509-.1347-.0295-.271-.064-.4007-.1099-.0575-.0197-.1199-.0607-.1511-.1099-.0608-.0952-.133-.1625-.2348-.215-.1527-.0755-.3022-.1641-.4369-.2691-.1002-.0788-.1724-.1805-.1839-.3282-.0148-.2232.0772-.4053.1724-.5907.0181-.0328.0427-.064.0558-.0985.0706-.192.1971-.3298.3761-.4283.0558-.0312.1018-.0788.1659-.1313-.1068-.041-.2004-.0377-.2923-.0115-.1511.046-.2973.0312-.4483.0016-.2365-.0443-.4631-.1526-.7128-.1165-.092.0131-.1462-.0394-.1741-.1165-.0345-.0935-.0558-.1953.0164-.2773.0706-.0804.1609-.151.2743-.1592.1248-.0099.2496-.0082.3744-.0066.1248.0016.2513.0099.3761.0181.179.0098.358.0197.5354.0345.0411.0033.0788.0361.1199.0443.0361.0066.0739-.0033.1117-.0049.0148-.0788-.0246-.0935-.087-.1116-.156-.0459-.1971-.1329-.133-.2658.0181-.0394.0624-.0837.1018-.0919.1166-.0246.2365-.0476.3531-.041.0657.0033.138.0591.1905.1083.1347.1231.1675.1477.3794.1953.0887-.151.1035-.3134.0788-.4939.0378-.0476.0756-.0656.1577-.0443.1527.0394.2874.1017.3958.21.0509.0492.092.1214.1084.1903.0296.1247.1018.2166.2266.2363.1724.0246.3449.0443.5173.0673.0361.0049.0739.0115.1068.0279.0985.0492.1741.023.2381-.064-.0591-.1296-.1757-.1903-.2858-.2593-.2841-.1789-.5633-.3659-.854-.5333-.1084-.0624-.2135-.1198-.2841-.2264-.0772-.1165-.0493-.2954.0608-.3758.069-.0492.1281-.0459.1889.018.0755.0788.1495.1575.2217.2396.133.146.2907.2593.4631.3528.0361.0197.0772.0263.1199.0394.0542-.1346.0493-.2445-.0509-.3298.0164-.0541.0296-.1001.0443-.1542.0296-.0049.0624-.0181.092-.0131.1363.0246.2546-.0033.3662-.0886.0591-.0459.115-.0263.1412.0492.0821.2248.1609.4513.2299.681.0296.0968-.1199.2675-.2595.3167.0657.0952.1248.1953.2004.2822.0624.0738.0821.1493.0755.2412-.0033.0591.0017.1198-.0016.1805-.0049.1264-.1002.2248-.2283.2232-.0673,0-.1363-.0213-.2036-.0345-.1002-.0197-.1987-.0525-.2989-.0574-.271-.0115-.5173-.0968-.7555-.2166-.0082-.0049-.0214-.0016-.0312-.0016q-.1215-.146-.1856-.1116c.0066.0082.0099.0197.0181.0246.0575.0279.1133.0542.1708.0837Z" fill="#005c9c" stroke-width="0"/><path d="M39.5456,13.188c-.0739-.0279-.1494-.0558-.2381-.0886.023-.1181.0427-.2215.064-.3249l-.0296-.0148c-.0361.0279-.0723.0574-.1117.0804-.1856.1099-.3794.2084-.5551.3298-.2447.169-.4796.3528-.7177.5317-.2201.1657-.4352.3429-.6947.448-.1084.0443-.2217.0886-.335.1001-.0805.0082-.1642-.0066-.2496.0016-.092.0082-.1741-.1592-.1297-.2511.0427-.087.0673-.1657.0394-.2691-.0328-.1263.0016-.2412.1265-.3233.0985-.0656.1774-.1575.271-.2297.0591-.0459.1265-.0886.1954-.1083.1084-.0295.225-.0263.3318-.0607.1117-.0361.2102-.1083.3186-.1542.4057-.1723.7686-.4201,1.1529-.6285.0558-.0295.11-.0738.1494-.1231.1511-.1887.3449-.1789.5485-.1313.1182.0279.2184.0853.266.21.0263.0689.087.0886.1577.0459.0444-.0279.0903-.0525.156-.0886-.0427-.0377-.0673-.0624-.0969-.082-.0493-.0328-.1035-.0574-.1511-.0903-.0608-.0427-.1462-.0804-.1691-.1395-.0345-.087-.0263-.192-.0279-.2888,0-.0246.0361-.0492.0526-.0689.1445.0624.2808.1214.4172.1789.0246.0115.0509.0295.0756.0279.2184-.0115.3695.1428.5452.2281.202.0985.2546.3347.1347.5251-.0378.0591-.0854.1116-.1314.1657-.0443.0525-.0985.0821-.1724.0771-.0706-.0049-.1412.0033-.2119,0-.2464-.0115-.3679.0739-.4516.3233.092.0574.1659-.0213.2398-.0427.133-.0377.2562-.105.3843-.1559.0706-.0279.1642-.0033.1971.0706.023.0525.0328.1428.0033.1822-.1002.1345-.2151.2576-.3334.3758-.0558.0558-.1297.1034-.2053.1264-.1593.0492-.2858.151-.4286.2281-.1708.0903-.3465.1723-.5288.2379-.1593.0574-.3055-.0361-.3531-.2002-.0049-.0148-.0082-.0312-.0082-.0476-.0049-.128.202-.4201.3268-.4677.0624-.023.1232-.0525.1839-.0788.0016-.0148-.0016-.0246-.0066-.0361Z" fill="#005c9c" stroke-width="0"/><path d="M18.4316,3.9291c.0526-.0985.1067-.1953.1544-.2937.0312-.064.0821-.0853.1445-.0853.1035.0016.2069.0098.3104.0082.0805-.0016.1412.041.1757.0985.0542.0886.1478.1641.1248.2888-.0033.0197-.0033.0492.0082.064.133.1625.0624.3692.1199.5481.0197.0607.0279.1296.0657.1772.0953.1247.1626.2625.202.4135.0115.041.0345.0804.0591.1149.087.1198.1297.2527.11.3987-.0099.0656.0148.1116.0427.1657.138.2658.2858.5267.3235.8319.0066.0525.0427.1001.0558.151.0279.1132.0821.2215.0657.3462-.0049.0377.0197.0853.0443.1181.0838.1116.1084.2412.1281.3741.0099.0656.0394.1296.0509.1953.0099.0509-.0099.0903-.0591.1214-.138.0886-.2332.2018-.2266.384.0049.1182-.1002.1789-.2217.1231-.0805-.0361-.1577-.0985-.2102-.169-.1544-.2051-.2414-.4398-.294-.6908-.0164-.0771-.0706-.146-.0969-.2215-.0821-.2363-.1577-.4759-.2365-.7138-.0148-.0443-.0345-.087-.0476-.1329-.0197-.0722-.0427-.146-.0493-.2199-.0164-.1789-.0526-.2297-.225-.279-.1117-.0328-.2053-.0952-.2841-.1805-.0641-.0689-.0788-.2576-.0131-.3512.0608-.087.138-.1641.2266-.2658.0049-.0738-.0016-.1739-.0509-.2773-.0378-.0804-.0312-.1805-.0542-.2675-.0378-.1395-.0854-.2773-.1281-.4152.0033.0016-.2053-.343-.2151-.3594Z" fill="#005c9c" stroke-width="0"/><path d="M10.4631,35.0465c.0411-.0295.0706-.0443.0936-.0656.0821-.0804.1018-.082.1823,0,.1593.1625.317.3282.4763.4923.1215.1247.2447.2461.3728.3758-.0263.0771-.0706.1378-.1626.1526-.0115-.0033-.0246-.0049-.0312-.0115-.1609-.1657-.2578-.1723-.4237-.0164-.1347.1264-.2628.2593-.404.4004.3071.2921.606.576.9066.8648.1265-.1231.2759-.2642.4221-.4102.0805-.0804.0854-.2117.0214-.297q-.1068-.1428.0591-.2724c.3367.3003.6356.6416.9739.9599-.0443.041-.0739.0706-.1051.0985-.0558.0476-.1002.0394-.156-.0115-.1511-.1411-.2316-.1411-.3744-.0016-.2135.2084-.4221.4217-.6356.6318-.1626.1608-.3186.3282-.4943.4759-.1429.1214-.1248.2412-.0197.3643.0164.0197.0394.0345.0608.0542-.0164.1001-.0558.1674-.1314.1707-.3301-.3167-.6438-.617-.9706-.9304.0378-.0443.0673-.0804.0969-.1149.0476-.0591.0969-.0656.1478-.0033.0066.0082.0148.0164.023.023.1281.1099.202.1132.3268.0049.0903-.0788.1774-.1608.2628-.2445.0805-.0804.156-.1641.2414-.256-.2956-.2987-.588-.5956-.8803-.891-.1642.1592-.3235.3069-.4763.4611-.1495.1493-.1495.21-.0213.3774.0263.0328.046.0706.0772.1214-.0608.041-.115.0804-.1741.1214-.3186-.3282-.629-.6465-.9345-.9599.0493-.0574.0936-.1099.1429-.1674.0296.0246.0558.041.0772.064.11.1067.2496.1181.3613.0148.1478-.1362.2874-.2822.4303-.4217.133-.1296.2677-.256.4007-.384.1084-.1067.2184-.2133.3219-.3249.1297-.1362.1265-.2297-.0066-.361-.0099-.023-.0296-.041-.0772-.0837Z" fill="#005c9c" stroke-width="0"/><path d="M4.283,29.3745c-.069,0-.1199.0098-.1659-.0033-.0378-.0115-.0887-.0427-.0985-.0755-.0641-.215-.092-.4348-.0526-.658.0575-.3265.1774-.6268.3531-.9123.1232-.2002.1987-.4201.2316-.6629.0755-.5448.404-.8976.9148-1.0863.0099-.0033.0214-.0098.0312-.0082.2381.0033.4828-.0361.7144.0345.3104.0952.5469.2888.7341.5579.1347.1953.2102.4102.2808.6301.0164.0509.0049.1083.0115.1624.0099.0689.0279.1362.0378.2035.0049.041.0033.0837-.0033.1247-.0082.0525-.0329.1034-.0345.1559-.0033.2855-.1215.5185-.3055.7319-.1938.2248-.4484.3479-.7226.402-.225.0443-.4598.023-.6898-.0574-.3498-.1214-.5748-.3741-.7817-.6843-.0328.0607-.0641.1116-.092.1657-.1084.21-.2184.4201-.3235.6318-.023.0459-.0361.0984-.0411.1493-.0033.0591.0016.1198.0016.1986ZM6.1405,26.5915c-.3761,0-.7095.1034-1.01.3331-.294.2248-.3383.5874-.2841.8779.0263.1378.0953.2675.2217.3659.2545.1953.5403.1985.8326.1641.2266-.0263.4287-.1329.6323-.2314.2316-.1132.3712-.3101.4221-.5464.0345-.1608.0296-.3364-.0411-.5054-.0821-.1953-.2004-.3462-.4057-.4037-.1182-.0328-.2447-.0361-.3679-.0542Z" fill="#005c9c" stroke-width="0"/><path d="M38.5924,37.216c.0411.0427.0838.0886.1297.1362-.1823.1559-.3531.3036-.5255.4496-.2217.1871-.4697.2494-.7505.1493-.0739-.0263-.1544-.0361-.2332-.0492-.1166-.0213-.2332-.0427-.3498-.0574-.179-.0213-.3482-.0082-.4582.1887.1363.1395.2792.2937.4303.4381.1117.1067.1642.1034.2825.0098.0082-.0066.0148-.0164.023-.023q.1544-.1362.3055.0443c-.0805.0771-.1609.1543-.2431.2314-.2266.2117-.4533.4217-.6799.635-.1478.1395-.1544.1411-.2973-.0328.0328-.0361.0706-.0722.1035-.1132.1068-.128.0953-.2494-.0197-.3741-.3367-.361-.6701-.7269-1.0051-1.0896-.0263-.0279-.0558-.0525-.0821-.0804-.092-.1034-.179-.0837-.294-.0279-.0148.0066-.0263.0197-.0394.0295-.1314.1017-.1609.0935-.271-.0738.1314-.1378.2644-.2806.4007-.4201.2513-.256.496-.5185.7834-.7384.179-.1362.3761-.2363.5912-.2822.0985-.0197.2135.0131.3137.0459.2381.0771.4401.3594.4369.6137,0,.0935-.0378.1887-.0608.2822-.0115.0459-.0312.0902-.0542.1526.2332.0312.4566.0591.6783.0919.0838.0115.1675.0427.2513.0492.2119.0148.4089-.0279.5764-.1674.0115-.0099.0296-.0099.0575-.0181ZM36.2505,37.8593c.11-.1345.2201-.2511.3104-.3823.1067-.1543.1035-.3298.0164-.489-.0854-.1575-.225-.2625-.4139-.274-.2792-.018-.4779.1329-.6701.3347.2463.2642.4894.5235.7571.8106Z" fill="#005c9c" stroke-width="0"/><path d="M24.899,41.8462c0,.1214-.0049.2117.0016.3019.0082.1083.023.215.0378.3216.0082.064.023.1264.0345.1887.0066.0312.0164.064.0197.0952.0164.1821.0296.3659.046.5481.0115.1264.069.1805.1987.1821.0443.0016.087-.0033.1314.0016.0673.0066.1166.064.1183.1313.0016.0689-.0427.0788-.1002.1017-.1363.0542-.2759.041-.4155.0476-.1412.0066-.2808.0213-.4221.0312-.0378.0016-.0755-.0049-.1232-.0082v-.2297c.0476-.0049.0854-.0049.1215-.0115.1199-.023.1823-.1263.1527-.2428-.0164-.0624-.0263-.1247-.0345-.1887-.0131-.1132-.023-.2264-.0345-.338-.0181-.1838-.0378-.3659-.0542-.5497-.0197-.2264-.0378-.4513-.0591-.704-.0969-.0246-.2069-.0542-.3268-.0853v-.1854c.1626-.023.3268-.0459.4911-.0689.0953-.0131.1905-.0279.2874-.0312.0378-.0016.087.0131.115.0377.34.2888.675.5825,1.0149.8713.2102.1789.427.3512.6504.5349.0444-.0886.0279-.1723.0148-.2543-.0049-.0263-.0312-.0509-.0279-.0738.0197-.2084-.0345-.4102-.0575-.6137-.0115-.0968-.0131-.1936-.0279-.2888-.0049-.0295-.0394-.0689-.0673-.0771-.0575-.0164-.1182-.0197-.179-.0181-.1954.0066-.202.0016-.1872-.2199.0657-.0131.1363-.0361.2086-.0427.2299-.0213.4615-.0377.6914-.0525.0591-.0033.1199-.0935.1757-.0148.0345.0492.0411.1198.0591.1821.0049.0148,0,.0312,0,.0509-.1281.0361-.2989-.0443-.3744.1313.0099.0624.023.1247.0279.1871.0115.128-.0279.2625.0526.3807.0033.0033.0016.0098.0016.0164.0148.1986.0279.3987.046.5973.0082.0968.0312.192.0394.2872.023.2429.0411.4857.0608.7269-.0542.023-.0953.0361-.133.0574-.0673.0378-.1215.0246-.1774-.0246-.3744-.3233-.7473-.6482-1.125-.9681-.2808-.2347-.5666-.466-.8721-.7204Z" fill="#005c9c" stroke-width="0"/><path d="M14.0253,40.8015c-.3613.0049-.6799-.1214-.9673-.3249-.2956-.21-.5502-.4611-.6717-.8123-.0657-.1903-.1462-.3873-.0427-.5924.0706-.5399.4336-.8434.8918-1.042.2102-.0919.4451-.0853.6832-.0263.2217.0558.4303.1411.6257.2478.2726.1493.4681.3856.6372.6416.0838.128.1084.274.1412.4234.0542.256-.0066.4923-.1002.7122-.115.2675-.3317.4627-.5797.6154-.1593.0952-.3892.1575-.6175.1575ZM13.9481,38.3401c-.1987-.0394-.3646.0755-.5337.2018-.1708.1263-.2562.3069-.3416.4841-.0805.1657-.1527.3462-.179.5267-.0378.2642.0755.4906.248.6941.2365.2757.7423.2888,1.0051.0624.2644-.2297.4434-.5103.5485-.8451.0673-.2133.0854-.4201-.0016-.6317-.1347-.3282-.3646-.489-.7456-.4923Z" fill="#005c9c" stroke-width="0"/><path d="M15.8466,6.9299c.0164.0099.0345.0213.0526.0312.1642.0968.3252.0263.3301-.1657.0082-.2855.1314-.5382.1971-.8073.0148-.0624.0361-.1247.0361-.1871,0-.1821-.0246-.361-.0854-.5366-.0148-.041-.0049-.1001.0131-.1411.0361-.0853.0427-.1575-.0049-.2445-.0296-.0541-.0246-.1329-.0197-.2002.0082-.1099.0657-.2002.1741-.2232.1133-.0246.2053.0377.2792.1247.069.0804.0985.1772.1248.2757.0427.1592.0854.3183.1248.4775.0099.041.0312.0935.0148.1264-.0476.0984-.0345.2018-.0394.3036-.0016.0361-.0181.0722-.0263.1083-.0049.023-.0197.0574-.0099.0706.0755.1067.0378.2035-.0148.297.0033.0148.0016.0312.0082.0361.1297.0985.1675.2314.1445.3889-.0016.0164.0016.0328,0,.0492-.0328.2347.0444.448.1281.658.0558.1378.0427.2691.0082.4086-.0312.1231-.0476.2527-.0575.3807-.0066.0788-.0115.1493-.0887.1953-.0591.0361-.0772.0952-.0953.1624-.046.1641-.1002.1854-.2743.151-.046-.0099-.0953,0-.1429.0049-.0739.0066-.1478.0181-.2004.0246-.0788-.0919-.1396-.1657-.2036-.2379-.0345-.0394-.0345-.0755,0-.1149.0953-.1099.1051-.2675.2135-.3758.0345-.0345.0328-.1264.0131-.1805-.0099-.0279-.1002-.0509-.1429-.0394-.1182.0345-.179-.0213-.2431-.1067-.0854-.1116-.1905-.2068-.2759-.3167-.0411-.0525-.064-.1231-.0805-.1887-.0246-.0952-.0016-.1231.1429-.2084ZM16.5397,6.8741c.0033-.0246.0016-.0098,0,.0049.0016-.0148.0033-.0295,0-.0049Z" fill="#005c9c" stroke-width="0"/><path d="M10.3284,34.5132c-.1511.1231-.3005.1542-.4664.0804-.023-.0098-.0526-.0082-.0805-.0115-.1495-.0115-.3071.0016-.4484-.0394-.2513-.0722-.514-.0492-.7653-.1165-.1593-.0427-.3367-.0197-.4943-.0656-.1659-.0492-.3465-.0049-.5042-.0903-.0115-.0066-.0312.0016-.069.0033.1314.2051.2562.4004.3827.594.0821.1263.1659.2527.2496.3791.1166.1739.2447.2117.4483.1428.0936-.0328.1905-.0574.2808-.0837.0443.0624.0739.105.1051.1477.0099.0099.0197.0213.0296.0312-.0328.018-.0673.0345-.1002.0542-.1807.1083-.3597.2166-.5403.3233-.1182.0706-.1396.0607-.2151-.0558-.1905-.2954-.3843-.5891-.5781-.8828-.1839-.2806-.3679-.5596-.5518-.8385-.0739-.1116-.1445-.2248-.2168-.338.156-.2035.3564-.1624.5535-.1362.0575.0082.115.023.1741.0328.179.0295.3597.0574.5387.087.1232.0197.2447.0427.3679.0574.1396.0164.2808.0279.4221.0377.069.0049.1347.0213.2004.0328.1807.0345.3662.0345.5814.0525-.1412-.2166-.2628-.4053-.3843-.5924-.0411-.064-.0854-.1247-.1248-.1887-.115-.1821-.2677-.2297-.4713-.1428-.0443.0181-.087.0377-.1445.064-.0329-.0722-.0624-.1362-.0985-.2117.2414-.1017.4188-.2904.652-.3495.248.3741.4828.7286.7177,1.0847.1774.2691.3515.5399.5239.8123.0181.0377.0164.0902.0263.1264Z" fill="#005c9c" stroke-width="0"/><path d="M33.9027,39.7855c.156.2363.3055.4611.4681.7056.1954-.128.3761-.2445.5551-.3626.0312-.0197.0624-.041.0936-.0607.2004-.1214.2546-.2806.1692-.5087-.0049-.0148-.0115-.0295-.0246-.0656.064-.0377.1297-.0771.2102-.1247.087.2314.2513.4086.3088.6317-.3547.233-.6931.4562-1.033.6744-.3186.2051-.6389.4069-.9608.6071-.0312.0197-.0903.0328-.1166.0164-.0624-.0394-.0969-.1034-.0706-.1756.0673-.0443.133-.0804.1889-.128.1199-.1017.1281-.1575.0476-.2954-.0526-.0886-.1068-.1756-.1626-.2609-.2365-.3643-.4746-.7269-.7128-1.0896-.0985-.1493-.2135-.1772-.3695-.082-.0542.0328-.0887.0542-.1396.0016-.0838-.0853-.0788-.1329.0279-.2035.2907-.1887.5814-.3758.8721-.5645l.8573-.5563c.0821-.0525.092-.0476.1511.0328.0805.1083.1659.2133.2447.3233.0279.0394.0411.0919.0608.1346q-.1626.1001-.2792,0c-.0296-.0246-.0558-.0591-.0903-.0673-.0542-.0148-.1265-.0361-.1659-.0131-.2316.1411-.4549.2937-.6816.443-.0131.0082-.0214.0246-.0427.0509.1347.2182.2743.4398.4204.6777.1577-.1034.3038-.1985.45-.2954.023-.0148.0427-.0328.0657-.0476.1675-.1132.1839-.1756.092-.3594-.0049-.0082-.0016-.0213-.0033-.0476.064-.0246.1314-.0509.2069-.0804.1281.2068.2546.3987.3712.5973.0788.1362.069.1493-.0903.2232-.0099-.0033-.023-.0033-.0296-.0098-.1494-.146-.1872-.1592-.3662-.0542-.1757.0952-.3383.2117-.5223.3331Z" fill="#005c9c" stroke-width="0"/><path d="M22.8281,41.141c.1462.0082.2891-.0328.4237.041.0131.0066.0329.0033.0493.0049.1987.0148.3974.0312.606.0476v.2215c-.064.0033-.1265.0082-.1905.0115-.1626.0082-.2283.0788-.2381.2445-.0049.0738-.0279.146-.0411.2199-.0049.0263-.0164.0558-.0099.0804.0378.1838-.0033.3659-.0148.5481-.0131.2133-.0493.425-.1527.617-.1511.2806-.3892.4316-.7013.4939-.1068.0213-.2119.0525-.317.0394-.3416-.0427-.6799-.1034-.9673-.3134-.1429-.105-.2217-.2609-.2776-.4283-.0493-.151-.0739-.3019-.0049-.4545.0148-.0328.0016-.0755.0049-.1132.0082-.1165-.0312-.2396.0493-.3479.0049-.0082.0033-.0213.0033-.0328.0115-.2232.0263-.4447.0328-.6679.0033-.1395-.0197-.1542-.1577-.169-.0558-.0066-.1084-.0295-.1659-.0476.0164-.082.0296-.1444.0443-.2215.0361,0,.0772-.0115.1084.0016.1199.0525.2463.0295.3695.0394.1002.0082.1987.0361.2989.0492.1018.0131.2053.0148.3088.0246.069.0066.1379.0164.2151.0263v.215c-.064.0049-.1215.0082-.179.0115-.1298.0082-.1922.0607-.2037.1871-.0181.2215-.0279.443-.0476.6629-.0082.0952-.0345.1887-.0443.2822-.0099.1001-.0328.2084-.0099.3019.0263.1083-.0082.2232.0526.3249.11.1838.2726.2839.4828.3036.1035.0099.2086.0017.312.0017.2217,0,.4089-.1329.4993-.3413.0427-.1017.0624-.2035.0706-.3134.0164-.2084.0575-.4152.0854-.6219.0066-.0541.0082-.1083.0066-.1625-.0016-.1034-.0082-.2068-.0082-.3101,0-.1411-.041-.2002-.1741-.2297-.0049-.0016-.0115,0-.0164-.0016-.1839-.0295-.1905-.0427-.1018-.2248Z" fill="#005c9c" stroke-width="0"/><path d="M7.318,29.1905c.0427-.0295.0756-.0607.1133-.0771.069-.0312.1281-.0066.1593.0656.0936.2232.1806.448.2726.6711.0394.0935.0854.1838.1232.279.023.0591.0328.1231.0509.1903-.0723.0295-.1314.0525-.1987.0788-.023-.0443-.0443-.0853-.069-.1263-.0788-.1346-.1166-.1378-.2693-.0935-.4007.1149-.7653.32-1.1546.4644-.2299.0853-.3334.2543-.335.5005-.0033.2593.1002.4726.2578.6646.1314.1575.4089.2199.6142.1411.2562-.0968.5091-.2002.762-.3019.1248-.0509.2496-.1017.3695-.1624.133-.0673.1675-.151.1396-.2921-.0099-.0525-.0214-.1034-.0328-.1592.064-.0279.1182-.0525.1724-.0755.0082-.0033.0213.0033.0443.0066.115.3397.2743.6711.3876,1.0239-.069.0295-.1182.0509-.1823.0788-.0263-.0427-.0509-.087-.0805-.1296-.0279-.041-.0575-.0788-.087-.1198-.1429-.0263-.271.0066-.404.0656-.3334.146-.6717.2789-1.0133.4037-.2858.105-.7308-.0328-.9443-.2921-.2234-.2708-.3892-.5694-.4155-.9304-.0049-.0624-.0394-.1247-.0394-.1871.0016-.2937.1133-.5333.3564-.7072.1544-.1099.3252-.1821.5009-.2478.2414-.0903.4779-.1969.7161-.2954.0493-.0197.1002-.0394.1494-.0591.1232-.0509.1527-.1214.1018-.2461-.0214-.0394-.0411-.0771-.0657-.1313Z" fill="#005c9c" stroke-width="0"/><path d="M19.0393,40.5035c-.0263.0755-.0526.1477-.0772.2199-.0903-.0148-.1626-.0295-.2365-.041-.115-.0164-.1872.041-.2283.1411-.1347.3315-.2644.6646-.4007.996-.1051.2527-.2726.4513-.5223.5776-.1839.0919-.381.0853-.5715.0607-.1675-.0213-.3334-.0706-.4894-.151-.2184-.1116-.4303-.2396-.583-.4299-.1248-.1559-.202-.3528-.1823-.5563.0131-.1395.0706-.2773.1232-.4102.1412-.3528.2907-.7023.4352-1.0551.0443-.1067.0066-.1887-.1002-.2412-.1708-.0837-.1724-.0853-.0706-.274.1626.0624.3285.1231.4911.1871.2184.087.4352.1772.652.2642.069.0279.0903.0722.0575.1411-.0164.0328-.0328.0673-.0476.1001-.0673-.0098-.1297-.0246-.1938-.0279-.1429-.0082-.1807.018-.2332.151-.0575.151-.1084.3036-.1692.4529-.0985.2412-.2184.4759-.2989.7236-.0591.1789-.0394.3709.1035.5202.1757.1838.3958.2839.6487.3019.3022.023.496-.1378.6027-.3807.1478-.3331.2841-.6711.4237-1.0075.0936-.2248.0279-.3643-.2135-.4381-.0181-.0591-.0296-.1214.0279-.1739.0575-.0492.1133-.0345.1806-.0066.2759.1214.5568.2297.8721.3561Z" fill="#005c9c" stroke-width="0"/><path d="M43.2555,28.5825c-.0427.0016-.0739.0066-.1067.0049-.1232-.0049-.1347-.0279-.1051-.1477.0591-.2379.0017-.2757-.2201-.3413-.1379-.041-.2808-.0689-.4221-.0919-.0427-.0066-.0953.0098-.1363.0295-.2135.0985-.4254.2035-.6389.3052-.1938.0919-.3876.1854-.583.274-.1133.0509-.2135.1001-.2184.2494-.0016.041-.046.0804-.0706.1214-.0706-.0279-.1297-.0509-.1872-.0722.087-.448.1724-.8877.2562-1.3242q.0936-.023.2201.0394c.0033.0706.0066.146.0115.2461.0624-.0131.1199-.0164.1692-.0394.271-.1214.5387-.2478.808-.3741.0082-.0033.0115-.0181.023-.0345-.0263-.0295-.0509-.064-.0821-.0935-.1724-.1641-.3432-.3331-.5223-.4906-.133-.1198-.179-.1017-.2266.0689-.0181.0624-.0509.0935-.115.0902-.0476-.0033-.0953-.0066-.1527-.0098.0673-.3364.1314-.658.2004-1.001.0279-.0049.0739-.0197.1215-.0213.0772-.0033.1199.0427.133.1149.0033.0164.0049.0328.0016.0492-.0378.1657.046.2724.1593.3791.2496.2347.4878.4824.7358.7187.0805.0771.1577.1575.2907.1608.0969.0016.1905.064.289.0788.1018.0148.2069.0033.3268.0033.0263-.0656.0624-.1313.0788-.2035.0296-.1181.0246-.1198.1462-.105.0213.0033.0427.0066.0723.0115.0148.0968.0246.1887-.0131.2855-.0246.064-.0263.1362-.0394.2051-.0361.1936-.0706.3872-.1117.5792-.0263.1067-.0591.2133-.092.3347Z" fill="#005c9c" stroke-width="0"/><path d="M30.6242,39.9185c.023.0689.0443.1313.0608.1821-.0936.0509-.1708.0853-.2414.1313-.0838.0542-.0969.1345-.0312.1985.1363.1313.2775.2576.4172.3873.1232.1149.2463.2314.3712.3446.0838.0755.1708.146.2496.215.023-.0099.0279-.0115.0328-.0148.0033-.0033.0066-.0082.0066-.0131v-1.4785c-.1215-.064-.2381.0098-.363.0328-.0312-.0591-.0575-.1099-.0805-.1559.0443-.1099.1412-.1264.2233-.1608.2283-.0952.4599-.1854.6898-.2757.0328-.0131.0706-.0148.11-.0213.0312.0722.0575.1329.087.2018-.1971.0525-.2677.1756-.3005.361-.0361.2068-.0312.4119-.0329.617-.0033.5136-.0016,1.0272-.0016,1.5408v.1542c-.1724.1723-.2989.1395-.4533-.0197-.271-.2806-.5699-.5333-.8589-.7959-.1692-.1526-.34-.3036-.5124-.4529-.0985-.0853-.1938-.1739-.3005-.2478-.0608-.0427-.1297-.1034-.2184-.0263-.0296.0263-.0936.0148-.1462.0213-.0214-.0312-.0493-.0607-.0624-.0935-.023-.064-.0099-.1149.0624-.1444.3925-.1625.7834-.3265,1.1775-.4874.0263-.0098.064,0,.115,0Z" fill="#005c9c" stroke-width="0"/><path d="M38.573,36.2802c-.0345-.0722.0115-.1313.0575-.1838.0197-.0213.069-.0328.1002-.0279.1035.0213.2036.0722.3055.0755.0903.0033.1872-.0312.271-.0738.0854-.0427.1675-.1017.2283-.1739.0509-.0574.087-.1411.0985-.2166.0394-.2855-.2349-.4873-.5108-.3758-.2283.0935-.4516.1969-.6734.3036-.2874.1378-.5567.0738-.8113-.0755-.1889-.1116-.289-.4381-.2349-.6547.0805-.32.2677-.5612.5255-.7565.0821-.0624.1954-.1099.1659-.2412.1412-.0607.2217.0361.3137.082.0854.0443.1626.105.2464.1559.0493.0295.1248.041.0985.1231-.0246.0755-.1478.1493-.2069.1132-.0788-.0476-.1577-.041-.2365-.0377-.2332.0082-.4089.105-.514.3249-.0509.105-.0739.192-.0033.2986.0345.0525.069.0738.1281.0788.1807.0164.3383-.0541.4894-.1346.2283-.1231.473-.21.7226-.2609.2808-.0558.5469.0082.7374.2543.2168.279.2365.5743.0706.8812-.1314.2445-.3268.4266-.5403.5957-.0493.0394-.0838.0673-.0854.1395-.0033.105-.0903.1444-.1856.0935-.1856-.0968-.3679-.2018-.5567-.3068Z" fill="#005c9c" stroke-width="0"/><path d="M40.2051,31.8277c-.0246.0706-.0427.1214-.0673.1887-.0345-.0033-.0805.0049-.115-.0115-.1889-.0919-.3761-.1887-.5617-.2888-.0788-.0427-.1018-.1444-.0296-.1887.1675-.1034.1905-.279.2562-.4348.1199-.2904.2414-.5792.3597-.8697.0838-.2068.1692-.4152.2447-.6252.0213-.0574.023-.1264.0148-.1871-.0181-.1444.0493-.2018.1889-.1542.1527.0509.3038.1017.4582.146.2234.064.2349.087.1182.2708h-.4713c-.0871.1903-.1757.3889-.2759.6088.1297.0476.2546.0903.3761.1395.2283.0935.4533.1904.6799.2855.2283.0952.4566.192.6848.2839.0756.0312.1544.023.2036-.0525.0493-.0755.0887-.1559.1412-.2511.0099,0,.0427-.0049.0723,0,.1215.0197.1462.0624.1035.1789-.046.1198-.1002.2363-.1478.3544-.0772.192-.1511.3873-.2299.5792-.0493.1165-.1051.2297-.1593.3446-.0739-.018-.1314-.0328-.2119-.0509.0115-.0459.0181-.0903.0329-.1313.0148-.0394.0476-.0722.0608-.1132.0443-.1395-.0033-.2445-.1445-.3003-.3991-.1608-.7998-.315-1.1989-.4742-.1445-.0574-.2858-.1198-.4286-.1789-.0148-.0066-.0312-.0049-.0673-.0099-.0739.1854-.1511.3708-.2201.5612-.023.0656.0066.128.0657.1723.0887.0706.1774.1395.2677.2084Z" fill="#005c9c" stroke-width="0"/><path d="M29.1607,42.7638h.3514c.0214.0706.0427.1346.0641.2068-.4451.1181-.8753.233-1.3171.3512-.0115-.0738-.023-.1411-.0378-.2232.0427-.0181.0854-.0394.1281-.0558.1265-.0476.1708-.1575.1281-.2806-.0361-.105-.0575-.2166-.087-.3249-.0657-.2478-.1363-.4939-.1987-.7417-.0345-.1346-.0509-.274-.0854-.4102-.023-.087-.0657-.1674-.1018-.2593h-.317c-.0263-.0722-.0476-.1362-.0755-.215.2759-.0673.5387-.128.8015-.1969.138-.0361.2743-.0804.4089-.1263.0985-.0328.1117-.0279.1412.0788.0099.0361.0246.0706.0411.1214-.0427.0181-.0854.0394-.1297.0525-.1593.0476-.2349.1772-.1905.3298.0591.2051.1183.4086.1774.6137.0624.2199.1281.4381.1889.658.0213.0771.0328.1575.0525.2363.0164.0624.0378.1214.0575.1854Z" fill="#005c9c" stroke-width="0"/><path d="M41.445,33.3829c-.2381.4037-.4615.786-.6914,1.1749-.0755-.0459-.1363-.0837-.2069-.1263.0246-.0443.0411-.0755.0591-.1067.0838-.1428.0723-.2067-.0723-.2921-.2283-.1362-.4598-.2642-.6898-.4004-.1757-.105-.3482-.2166-.5255-.32-.0838-.0492-.1741-.0886-.2611-.128-.1199-.0542-.1807-.0377-.2611.0656-.0263.0328-.0493.0689-.0838.1165-.0706-.0459-.1347-.0886-.1921-.128.1938-.3331.3777-.6482.5633-.9632.0246-.041.0476-.0853.0772-.1231.046-.0591.1002-.0476.1609-.0164.0657.0345.0526.0886.0476.1411-.0016.0082-.0148.0164-.0197.0246-.0723.1559-.0427.2675.0985.3528.3942.2363.7883.4709,1.1841.704.0838.0492.1692.0952.2562.1378.0657.0328.133.0394.1921-.023.023-.023.0476-.0443.0723-.0673.0328-.0328.0641-.0935.0953-.0919.0558.0016.1133.0377.1971.0689Z" fill="#005c9c" stroke-width="0"/><path d="M18.7256,6.6356c-.0361.0607-.0673.1099-.0969.1575.0016.0148.0016.0263.0066.0345.0985.1723.0854.1641-.0263.3315-.064.0968-.1642.1608-.2053.2822-.0394.1132-.1938.1411-.3104.0722-.0673-.041-.1265-.1001-.1774-.1624-.0427-.0509-.0788-.0886-.1495-.1083-.1544-.0443-.2628-.1624-.3613-.2822-.0394-.0476-.0115-.1067.0131-.1657.1478-.3479.1642-.7105.1084-1.0797-.0164-.1116.1018-.2757.2217-.2986.2299-.0443.5453.1444.6241.3692.0723.2068.1412.4152.2217.6203.0279.0788.0821.1477.1314.2297Z" fill="#005c9c" stroke-width="0"/><path d="M34.9698,16.9378c-.1643.0246-.2924.0476-.4221.0607-.156.0164-.3153.0197-.4714.0361-.1494.0164-.2972.0427-.4467.064-.0328.0049-.064.0099-.0969.0148-.202.0312-.404.064-.606.0919-.1593.023-.3268.0197-.4795.0624-.1725.0492-.3531.0148-.5239.082-.092.0361-.2021.0312-.3039.041-.1658.0148-.3317.023-.4976.0377-.1232.0115-.2496.0197-.3695.0476-.2135.0492-.4287.0673-.6455.0853-.1593.0131-.3136.064-.4729.0886-.1544.0246-.3104.0345-.4648.0542-.1495.0181-.2989.0394-.4484.0607-.1543.023-.3104.0443-.4647.0705-.1676.0279-.3351.0574-.5009.0919-.3466.0706-.6898.151-1.0265.2593-.2546.0804-.5173.1329-.7752.2051-.1593.0443-.3169.0985-.4713.1542-.3006.1099-.6011.2215-.9.3397-.1495.0591-.2923.1362-.4402.2002-.0344.0148-.0854.0197-.1166.0049-.4335-.2183-.8901-.3791-1.3434-.5432-.2759-.1001-.5584-.1838-.8409-.2625-.3071-.087-.6208-.1543-.9279-.2396-.2086-.0574-.4172-.0984-.6323-.1296-.2956-.0427-.5863-.1083-.8803-.1559-.1692-.0279-.3432-.0328-.5124-.0574-.1478-.0213-.2923-.0574-.4385-.087-.0164-.0033-.0312-.0082-.0476-.0099-.2644-.0279-.5288-.0509-.7932-.082-.1659-.0197-.3301-.0574-.4943-.082-.1281-.0197-.2562-.0345-.3843-.0459-.1462-.0148-.2923-.0164-.4385-.0361-.1593-.0213-.3153-.0574-.473-.087-.0099-.0016-.0213-.0049-.0312-.0066-.1659-.0181-.3318-.0312-.496-.0558-.1527-.023-.3038-.0624-.4566-.087-.1117-.0181-.2266-.0279-.3383-.0394-.1708-.0181-.3432-.0312-.514-.0509-.1445-.0164-.289-.0394-.4336-.0558-.1232-.0148-.2463-.023-.3777-.0345-.0049-.087.023-.1444.0657-.2018.1495-.1985.2907-.4037.4434-.6006.1478-.1887.3038-.3708.4598-.553.34-.3971.7078-.7696,1.0921-1.1224.3728-.3413.762-.6629,1.1792-.9517.3383-.2347.6783-.4677,1.033-.6761.5157-.3036,1.0527-.5678,1.6078-.7975.4549-.1887.9246-.3331,1.3894-.4906.2201-.0755.4483-.1017.6701-.1608.2283-.0607.4598-.0985.6931-.1362.2004-.0328.4007-.0656.6011-.1001.1347-.023.271-.0148.3974-.0476.2381-.0607.4795-.0131.7144-.0459.2726-.0394.5452-.0263.8162-.0263.2661,0,.5354,0,.7982.0394.1511.0213.3022.0246.4516.0427.1478.018.2907.082.4369.0886.1872.0082.3613.0607.5419.0919.1856.0312.3695.0706.5518.1099.1364.0295.271.064.4057.1001.133.0345.2677.0689.3974.1132.2037.0673.4008.1542.6077.2133.3515.1017.6766.2642,1.01.4102.4402.192.859.4283,1.2712.6728.2742.1624.5419.338.7998.5235.3334.2412.6635.4906.9788.7548.2447.2051.4664.4365.6996.6564.4533.425.8524.8976,1.2285,1.3899.1347.1772.2611.3594.3892.5431.0263.0394.0394.0903.0674.1559ZM21.5881,14.7816c.0115.1411.0033.3069.0378.4759.0854.4184.2775.7745.5337,1.1076.1987.2593.4648.4398.7358.6071.2381.1493.5141.2379.7867.2609.317.0279.6389.0361.9624-.0295.3564-.0738.6701-.2215.9591-.4316.3022-.2199.5321-.5005.7111-.8352.2004-.3725.3121-.7565.2989-1.1765-.0032-.1198.0197-.2445-.0065-.3594-.0526-.2346-.1084-.466-.2135-.6908-.2217-.4709-.5371-.8467-.9854-1.1142-.2365-.1411-.4845-.2511-.7522-.3167-.2332-.0558-.473-.0738-.7128-.0558-.1445.0115-.2874.0345-.4303.064-.2332.0492-.4434.1559-.6536.2625-.312.1592-.565.3905-.7702.6646-.1626.2183-.3104.4529-.3859.722-.0526.1821-.0969.3659-.1133.5546-.0082.0903-.0016.1789-.0016.2904Z" fill="#005c9c" stroke-width="0"/><path d="M11.2202,21.47c.271.0197.5223.0197.767.0624.2299.0394.4598.0525.6914.0738.1609.0148.3203.0476.4812.0722.0164.0033.0312.0066.0476.0082.1938.0164.3892.0263.5814.0509.1577.0197.3137.0591.4697.0903.0115.0016.0213.0033.0328.0049.2973.0279.5929.0541.8901.087.1708.0197.3416.0492.5124.0738.0115.0016.0213.0033.0328.0033.3005.0279.606.0361.9.0952.1626.0328.3383-.0066.4911.0853.0082.0049.0213.0016.0328.0033.1774.0164.3564.0263.5321.0492.1642.023.3268.0624.4911.0903.1068.018.2151.023.3219.0361.2414.0279.4845.0558.7259.0886.1659.023.3317.0476.4943.0853.1314.0312.1363.0935.0558.2166-.115.1756-.2233.3544-.3202.5399-.1248.2379-.2447.4808-.3515.7269-.092.21-.1659.4283-.2447.6432-.046.1247-.0903.2527-.1297.3791-.046.1477-.0936.2937-.1281.443-.069.2921-.1281.5875-.1741.8844-.0361.233-.0558.471-.1018.7007-.0443.2232-.0115.4463-.0493.6629-.0788.4677-.0345.9353-.0361,1.403-.0066,2.1759-.0033,4.3517-.0033,6.526v.228c-.8885-.4479-1.6932-.9632-2.4388-1.572-.7473-.6104-1.4206-1.293-2.0217-2.0478-.6027-.7565-1.1069-1.5753-1.5356-2.4384-.4188-.8484-.7358-1.7394-.946-2.6599-.2135-.932-.34-1.8821-.3498-2.8437-.0148-.9567.0903-1.9051.2792-2.8519Z" fill="#005c9c" stroke-width="0"/><path d="M36.8963,21.46c.0591.2593.1478.4956.1248.7515-.0033.0361.0099.0738.0164.1116.0115.0689.0279.1378.0361.2068.0279.2461.0542.4939.0805.7417.0082.0706.0164.1411.0181.2117.0016.4381.0016.8746,0,1.3127,0,.0591-.0131.1181-.0181.1772-.0131.151-.0197.3036-.0378.4529-.023.1871-.0591.3725-.0838.5596-.0131.105-.0131.2133-.0263.3183-.0164.128-.0361.2544-.064.3791-.0509.2232-.1084.4447-.1642.6662-.0312.1198-.064.2379-.0985.3561-.0542.1854-.1002.3741-.1642.5563-.1478.4119-.2808.832-.4681,1.2258-.2184.4611-.4483.9173-.7128,1.3554-.3071.512-.6487,1.0009-1.0199,1.467-.271.3396-.5469.676-.8688.9714-.2874.2642-.5567.5513-.8524.8073-.4467.3889-.9164.7499-1.4239,1.0584-.4139.2527-.8359.4939-1.2564.7368-.069.0394-.1462.0705-.2217.0952-.0427.0147-.0985.0279-.1314-.0525.0542-.0296.1051-.0706.1626-.0854.1626-.0426.1938-.146.1938-.3036-.0066-1.0173-.0033-2.033-.0033-3.0504,0-1.5523,0-3.1046-.0016-4.657,0-.0722-.0263-.146-.041-.2182-.0033-.0213-.0115-.0427-.0115-.064.0049-.2281,0-.4578-.046-.6826-.0328-.1624-.0181-.3282-.0706-.4923-.0263-.0837-.0246-.1854-.0427-.279-.0575-.3167-.1199-.6301-.2299-.9337-.0854-.2346-.138-.4808-.2266-.7122-.1084-.2806-.2299-.5563-.3662-.8254-.1429-.2839-.3104-.5563-.4648-.8352-.0312-.0558-.0558-.1149-.0821-.1723.0558-.0738.1215-.0919.202-.1017.1823-.023.3613-.064.542-.0919.1757-.0263.3531-.0459.5288-.0706.1544-.023.3088-.0492.4631-.0738.0115-.0016.0214-.0033.0329-.0049.1823-.0181.3744-.0066.5436-.0607.1577-.0509.3285.0098.473-.0837.0082-.0049.0213-.0049.0328-.0049.1774-.0164.358-.0164.5305-.0525.1642-.0345.3383.0115.4927-.0722.0181-.0098.0427-.0049.0641-.0066.1724-.0115.3465-.018.519-.0345.156-.0164.3104-.0443.4664-.0673.0164-.0016.0312-.0082.0476-.0098.1872-.018.3761-.0295.5633-.0558.1642-.023.3252-.0591.4878-.0902.0115-.0016.0213-.0033.0328-.0049.1823-.0164.3662-.0295.5469-.0509.156-.0181.3104-.0427.4664-.0656.0427-.0066.0854-.0148.1281-.0164.1724-.0115.3498-.0033.5157-.0377.2447-.0509.4894-.0591.7358-.0771.0493.0016.0903-.0098.1511-.0213Z" fill="#005c9c" stroke-width="0"/><path d="M22.9562,33.0986c0-1.2898-.0033-2.5795.0033-3.8709.0016-.2412.0197-.4841.0673-.7253.0476-.2412.0575-.4906.0985-.7335.0263-.151.092-.297.1199-.448.0361-.2068.1199-.3987.1823-.5973.1314-.4151.317-.8057.5436-1.1765.0131-.023.0263-.0459.0427-.0673.0542-.0673.1051-.0689.1495.0098.115.2068.2266.4168.3334.6285.0542.105.1018.2117.1445.3216.0591.1575.115.3183.1626.4792.0509.169.0887.3397.1363.5103.0476.1739.1035.3446.1445.5185.0246.105.0361.2133.046.3216.0131.151.0082.3019.0279.4513.0903.6843.0279,1.3702.0394,2.0544.0115.6892.0033,1.3767.0033,2.0659v4.1646c0,.215-.0099.2166-.2201.2166-.3005,0-.5994.0181-.9.0181-.2398,0-.4779-.0148-.7177-.0197-.092-.0017-.1856.0098-.2776.0147-.092.005-.1182-.0147-.1265-.105-.0049-.0426-.0016-.0869-.0016-.1313-.0016-1.2979-.0016-2.5992-.0016-3.9004Z" fill="#005c9c" stroke-width="0"/><path d="M25.1471,24.1298c.4746-.4168.9772-.7286,1.5159-.9829.0312-.0148.0739-.0016.1183-.0016.1462.2232.3104.4398.4401.6744.179.3233.3514.6531.496.9944.1232.2904.2053.5989.3022.8992.0525.1657.1002.3331.1462.5021.023.082.0411.1674.0509.2511.0263.2543.0214.5136.0739.7597.0575.2708.0099.5464.0558.8106.0591.3495.0328.6958.0328,1.042.0049,2.399.0033,4.7981.0033,7.1971v.1477c0,.0706-.0427.1116-.1035.1313-.312.105-.6241.2133-.9509.2691-.1577.0279-.3104.0804-.4664.1198-.0197.0049-.0411,0-.0821,0-.0016-.0739-.0049-.1428-.0049-.2117,0-2.4204.0033-4.8424-.0033-7.2627-.0016-.3134-.0493-.6252-.0772-.9386-.0148-.1674-.0329-.3348-.0493-.5005-.0115-.1017-.0197-.2035-.0361-.3036-.0214-.1329-.0427-.2658-.0755-.3971-.0394-.1592-.092-.3151-.1396-.4726-.0624-.2084-.1166-.4201-.1872-.6252-.0641-.1871-.1412-.3708-.2168-.5546-.0608-.1477-.1182-.3003-.1971-.4398-.1889-.3331-.3892-.6596-.583-.9895-.0246-.0394-.0443-.0821-.0624-.1182Z" fill="#005c9c" stroke-width="0"/><path d="M21.3582,36.9711c-.5288-.1411-1.0478-.2182-1.5438-.4398v-.1805c0-2.8962-.0016-5.7924.0033-8.6903,0-.2248.0115-.4529.0739-.6761.0345-.128.0279-.2675.0575-.3987.0673-.2987.0887-.6055.202-.8943.0739-.1887.1215-.3873.1889-.5776.11-.3134.2201-.6268.3909-.914.1954-.3282.3958-.6531.5978-.9763.0558-.0903.1248-.105.2234-.0558.3088.1559.6159.3118.8934.5235.1806.1378.3679.2691.5666.4135-.0197.0492-.0312.1001-.0575.1428-.1133.1789-.2381.3495-.3449.5317-.092.1575-.156.3315-.2464.489-.202.3544-.3317.7384-.4549,1.1257-.0739.233-.1511.466-.2119.7023-.0476.1821-.0706.3709-.1068.5563-.023.1214-.0525.2412-.0706.3626-.0246.1805-.0345.3643-.0624.5448-.0394.2691-.0066.5464-.0542.809-.0542.3003-.0394.5973-.0394.8943-.0049,2.1644-.0033,4.3288-.0033,6.4931-.0016.064-.0016.128-.0016.215Z" fill="#005c9c" stroke-width="0"/><path d="M11.6488,19.9216c.0443-.1395.0788-.274.1297-.402.115-.2888.2381-.5743.358-.8598.0263-.064.0509-.1313.0903-.1887.0246-.0361.0723-.0706.115-.0771.0805-.0115.1741-.0263.2431.0033.1018.0427.202.0361.3038.0459.161.0164.3219.0427.4828.0624.2135.0263.4286.041.6389.0935.156.0377.3203.0328.4812.0558.1593.023.3153.0607.4746.087.1018.0164.2036.023.3055.0361.1708.0197.3432.0361.514.0607.1708.0246.34.0558.5091.0853.0263.0049.0542.0098.0805.0115.1347.0066.271.0016.404.018.1593.0197.3153.0574.473.087.0099.0016.0213.0066.0312.0066.1659.0181.3317.0345.496.0542.133.0164.2661.0361.3991.0542.1872.0263.3745.0492.5617.0771.1593.0246.317.0574.4746.0837.064.0098.1314.0049.1954.0164.1954.0377.3958.0492.5896.1034.2891.0788.5912.1083.8753.1953.3367.1017.6881.151,1.0166.2872.1281.0525.2661.0837.4024.1247.0148.0624-.0066.0952-.0624.1395-.2858.2248-.5929.4234-.8442.6908-.1232.1296-.2661.2396-.3991.361-.0394.0361-.0706.0509-.1281.0312-.2578-.0919-.5222-.1559-.7867-.2232-.2611-.0673-.5305-.082-.7899-.1493-.1494-.0394-.3104-.0312-.4631-.0541-.1642-.0246-.3252-.0607-.4878-.0919-.0115-.0016-.0213-.0016-.0328-.0033-.2907-.0279-.5814-.0525-.8704-.087-.1642-.0197-.3268-.0607-.4894-.0903-.0312-.0066-.0657-.0049-.0985-.0066-.092-.0016-.1856.0115-.271-.041-.0197-.0131-.0542-.0066-.0805-.0066-.2069.0066-.4106-.0049-.6109-.0624-.0049-.0016-.0115-.0016-.0164-.0016-.1807-.018-.3679-.0164-.542-.0591-.1675-.041-.3449-.0066-.5042-.0853-.0279-.0131-.064-.0066-.0969-.0082-.2053-.0115-.4122-.0131-.6109-.0755-.0148-.0049-.0328-.0033-.0493-.0049-.1938-.0181-.3925-.0148-.5814-.0574-.2923-.0673-.5929-.0443-.8852-.1017-.1905-.0377-.3876-.0345-.5814-.0591-.11-.0164-.2184-.046-.363-.0755Z" fill="#005c9c" stroke-width="0"/><path d="M36.4544,19.9365c-.2414.0377-.4631.0804-.6865.1067-.2644.0312-.5321.0443-.7965.0755-.2086.023-.4188.0246-.6208.0903-.0148.0049-.0328.0033-.0493.0049-.3022.0263-.6044.0492-.9066.0837-.1593.0181-.3153.0591-.473.0903-.0115.0016-.0213.0033-.0328.0049-.1872.0181-.3761.0345-.5633.0542-.1347.0148-.2677.0345-.4007.0492-.069.0082-.138.0099-.2069.018-.0591.0066-.1182.0148-.1774.023-.0213.0033-.0411.0164-.0624.0197-.1823.0181-.3662.0328-.5485.0542-.1609.0197-.3202.0476-.4795.0706-.0164.0016-.0328.0049-.0493.0066-.1774.018-.3646.0066-.5288.0607-.1527.0509-.3186-.0115-.4566.0837-.0082.0049-.0214.0049-.0328.0049-.2726,0-.5338.0738-.8015.1083-.4369.0574-.8622.1641-1.2761.3118-.0657.023-.0936.0115-.138-.0312-.2677-.2625-.5436-.5169-.8474-.7384-.1232-.0886-.2398-.1871-.3597-.279-.0328-.0263-.069-.0476-.1068-.0738-.0066-.0558-.0049-.0985.0706-.1181.1495-.0377.2956-.0886.4434-.1313.1856-.0541.3712-.1083.5567-.1608.2217-.0607.4434-.1231.6684-.1772.1823-.0427.3662-.0738.5502-.1083.1806-.0345.3597-.0689.5403-.1001.2234-.0377.4467-.0788.6701-.1067.2743-.0345.5485-.0542.8228-.0886.1527-.0197.3038-.0591.4549-.0886.0099-.0016.0213-.0049.0328-.0066.1659-.0164.3334-.0295.4976-.0492.1379-.0164.2759-.0459.4139-.064.1757-.0213.3547-.0295.5305-.0542.1692-.023.3383-.0607.5075-.087.1018-.0164.2053-.0197.3071-.0312.1609-.0181.3219-.0345.4812-.0591.1692-.0246.3367-.0591.5042-.0886.0099-.0016.0213-.0049.0312-.0066.1659-.0181.3317-.0345.4976-.0542.1232-.0148.2464-.0345.3712-.0476.2036-.023.4073-.041.6109-.0656.0953-.0115.1889-.0361.2841-.0492.0969-.0131.1511.0246.1987.1214.179.3676.3334.7466.4681,1.1322.0377.0935.0985.1772.087.2904Z" fill="#005c9c" stroke-width="0"/><path d="M24.0746,20.8401c.542.32,1.0675.6498,1.5405,1.0781-.2266.1395-.4385.2675-.6454.3987-.1462.0935-.289.1903-.4286.2937-.1297.0968-.2496.2051-.3761.3069-.0657.0525-.115.0427-.202-.0295-.1396-.1116-.2743-.2314-.4204-.3315-.2628-.1805-.5338-.3495-.8015-.5251-.0312-.0213-.064-.041-.0936-.064-.0657-.0492-.0706-.0903-.0099-.1378.363-.2822.721-.5727,1.1283-.7926.1018-.0525.1971-.1247.3088-.1969Z" fill="#005c9c" stroke-width="0"/></g></svg>