<?xml version="1.0" encoding="UTF-8"?><svg id="b" xmlns="http://www.w3.org/2000/svg" viewBox="0 0 109.5912 109.5878"><g id="c"><g id="d"><g id="e"><path d="M54.792,15.5688c-21.6269,0-39.223,17.5958-39.223,39.2251s17.5961,39.2277,39.223,39.2277,39.2273-17.5989,39.2273-39.2277S76.4222,15.5688,54.792,15.5688ZM54.792,95.0727c-22.2078,0-40.2789-18.068-40.2789-40.279S32.5844,14.5165,54.792,14.5165s40.28,18.068,40.28,40.2772-18.0689,40.279-40.28,40.279Z" fill="#38a94b" stroke-width="0"/><path d="M54.792,2.8541C26.151,2.8541,2.8531,26.1549,2.8531,54.793s23.2979,51.9409,51.9389,51.9409,51.94-23.2999,51.94-51.9409S83.4341,2.8541,54.792,2.8541ZM54.792,107.397c-29.005,0-52.6008-23.5991-52.6008-52.6039S25.7871,2.194,54.792,2.194s52.6043,23.5962,52.6043,52.5991-23.6001,52.6039-52.6043,52.6039Z" fill="#38a94b" stroke-width="0"/><path d="M54.796,1.0621h-.004C25.166,1.0621,1.0602,25.1659,1.0602,54.793s24.1058,53.7329,53.7318,53.7329,53.7349-24.1042,53.7349-53.7329c0-14.3511-5.5879-27.8442-15.741-37.9931C82.6421,6.651,69.1501,1.0619,54.796,1.0619v.0002ZM54.792,109.5878C24.5801,109.5878,0,85.0081,0,54.793S24.58,0,54.792,0h.004c14.6342,0,28.3921,5.7021,38.744,16.0472,10.3501,10.3518,16.0512,24.1118,16.0512,38.7458,0,30.2151-24.584,54.7948-54.7991,54.7948Z" fill="#38a94b" stroke-width="0"/><path d="M9.296,64.2953l.817-.9171c.2262-.254.3631-.4349.411-.5428.051-.1081.0621-.2321.0371-.3743l.0819-.0199.332,1.3498-.0819.021c-.0249-.089-.0491-.1539-.0799-.1931-.0221-.029-.046-.0507-.0791-.0638-.034-.0162-.0641-.019-.095-.0122-.032.0091-.066.0252-.097.0469-.0241.0171-.078.076-.1701.1772l-.654.7259.9819.4569c.1072.0478.1772.076.2061.083.0349.006.0689.006.0989-.0031.0482-.01.0822-.0419.1041-.0899.0241-.0509.0202-.1353-.0029-.2531l.0839-.021.2729,1.1159-.0839.021c-.028-.076-.0581-.142-.0981-.1931-.0629-.0859-.1361-.1639-.2251-.235-.087-.07-.212-.142-.3798-.2228l-1.0942-.5171-.7339.836c-.2001.2279-.3231.4099-.3671.547-.046.1338-.0518.279-.019.4341l-.0839.021-.356-1.455.085-.0221c.0329.1231.0729.2029.119.2401.0479.0381.091.0509.1318.0388.055-.012.1281-.0698.216-.169l.5871-.6568-.8269-.3891c-.0972-.0452-.163-.072-.197-.0788-.034-.0062-.0672-.0062-.0972.0009-.0349.008-.0578.0241-.0788.0478-.0241.0321-.04.066-.0431.1052-.006.0388.006.1141.03.2239l-.0819.0221-.2742-1.1159.083-.021c.0258.0879.057.1559.095.2057.053.0751.121.1411.1959.1962.0771.0538.2081.1269.3991.2128l.9309.436.0004.0007Z" fill="#38a94b" stroke-width="0"/><path d="M10.3177,60.9947l.085-.0171.2489,1.3668-.0839.0151-.0202-.1127c-.0238-.132-.0808-.2203-.167-.2662-.053-.0281-.1761-.0261-.3609.008l-2.0072.3703c-.159.029-.2608.0578-.3078.087-.0351.0239-.0629.0618-.0811.1147-.0261.076-.0289.1519-.0151.227l.0209.1121-.0859.0171-.2491-1.3668.085-.0151.0221.1147c.0198.1302.076.2184.163.2642.0558.0301.1768.0281.362-.006l2.0081-.3703c.157-.0277.2619-.0589.3069-.0879.036-.0221.0629-.0609.083-.116.0229-.074.0258-.1499.0138-.225l-.0209-.1141v.0002Z" fill="#38a94b" stroke-width="0"/><path d="M7.2403,61.4186l-.1069-.873,2.1038-2.2589-1.8068.2259c-.193.023-.3082.06-.3521.1112-.0581.066-.078.163-.0641.2888l.0151.1112-.085.01-.1401-1.1188.085-.0102.0158.1152c.0151.1349.066.227.155.2742.0561.027.167.031.3441.01l2.643-.3291.012.085-2.2621,2.4329,1.9301-.239c.1959-.0241.3098-.0609.3529-.1092.057-.0689.0791-.165.0629-.2899l-.0138-.1141.085-.01.1389,1.119-.085.01-.0151-.1112c-.0147-.1369-.0669-.2299-.1559-.2757-.053-.0292-.167-.0332-.3418-.0111l-2.181.2719c-.0972.1072-.157.186-.1851.2381-.0269.0518-.0491.1278-.068.2239-.0091.0489-.006.1191.0031.2113l-.0842.012.0002-.0004Z" fill="#38a94b" stroke-width="0"/><path d="M6.5773,54.7126l.993-.1282.0042.0839c-.2471.0961-.4292.2133-.5482.3521-.173.2011-.252.4529-.2359.7552.0171.413.1879.7188.5159.9179.2769.169.6029.2449.9731.2279.3018-.0128.5718-.0848.815-.2159.244-.1309.417-.2959.527-.493.106-.1991.1539-.3988.1448-.6041-.0049-.1198-.0238-.2339-.0598-.3439-.0332-.1101-.0822-.2153-.1432-.316l-.912.0399c-.159.0071-.2611.0241-.3102.0509-.0491.027-.0819.0671-.1069.1191-.0241.0529-.0332.1459-.0269.2762l-.0901.004-.053-1.2532.0881-.004.0029.0589c.006.1249.0491.2082.131.25.0609.0301.1732.0403.343.0332l.968-.0432c.1032.1781.182.3561.2342.5322.055.1761.085.3738.0938.592.0272.625-.1459,1.1093-.5239,1.451-.2831.2571-.6131.3931-.997.4101-.28.0128-.5482-.0443-.809-.1701-.3102-.1479-.5531-.3601-.727-.6369-.1452-.2301-.2279-.508-.239-.8311-.0071-.1172-.0031-.2239.0111-.322.0158-.097.0487-.235.1069-.415.0269-.0899.0431-.1499.04-.1809,0-.0301-.0158-.0549-.046-.0762-.0269-.0199-.0791-.031-.1581-.0317l-.006-.089h.0001Z" fill="#38a94b" stroke-width="0"/><path d="M6.8022,49.9905l2.8468,2.2881.0731-1.327c.012-.2029-.0241-.3612-.1041-.475-.0819-.1141-.2531-.2199-.5139-.32l.0171-.078.828.1991-.1432,2.6331-.0839-.0042-2.768-2.2329-.0581,1.036c-.0087.1719.004.2968.034.3758.034.0799.0819.14.1479.184.068.0452.1962.0901.3801.1329l-.0031.091-.7869-.1101.1341-2.3931v.0002Z" fill="#38a94b" stroke-width="0"/><path d="M8.3938,48.8835l.193-1.4942-.896-.1147c-.161-.0221-.269-.0241-.322-.0102-.0409.0111-.078.0392-.1128.0861-.0471.0629-.074.1329-.083.2088l-.0151.1132-.085-.0102.1768-1.3748.0842.0109-.0122.1132c-.012.0771-.0029.151.0241.2239.0202.054.053.093.1009.1172.0462.0241.1452.0469.3011.0669l2.0231.2591c.1579.0221.2639.0241.318.01.04-.0109.076-.0388.1139-.0839.0451-.064.072-.1349.0811-.2108l.0151-.1141.0847.012-.175,1.3739-.0859-.01.012-.1152c.0182-.1309-.006-.231-.0751-.301-.0429-.0458-.1588-.0811-.3478-.105l-.955-.1231-.191,1.4931.9538.1238c.159.0202.2662.023.3172.0091.042-.0111.0788-.0412.1128-.087.0462-.0629.0731-.1309.085-.2088l.0151-.116.085.0109-.1788,1.3781-.085-.0122.0151-.1127c.0178-.1329-.0102-.235-.076-.3049-.0462-.0432-.161-.078-.3501-.1012l-2.0231-.2609c-.1559-.0221-.2639-.025-.3169-.0111-.0411.012-.0799.0388-.1139.0859-.0462.0651-.0731.134-.083.2099l-.0142.1141-.0847-.0111.1757-1.3759.0842.0091-.0142.1172c-.0087.076,0,.1499.0272.2219.0198.0529.0491.0919.0978.1172.0491.0257.1479.0467.3022.068l.8969.116v-.0002Z" fill="#38a94b" stroke-width="0"/><path d="M10.6037,45.1949l.0842.0159-.2582,1.364-.0819-.0162.0221-.1121c.0229-.1318.0029-.233-.0621-.3078-.0391-.0469-.155-.0881-.3398-.1231l-2.0072-.3782c-.1579-.029-.2619-.0381-.3158-.0277-.0431.01-.0802.0348-.1183.078-.0491.0629-.0799.1309-.0958.2062l-.019.1127-.087-.0159.258-1.364.0859.0151-.0238.1147c-.0241.1302-.0031.233.0598.3061.0411.0478.155.0899.341.1249l2.0081.3769c.155.0301.26.0388.316.0281.042-.0082.0788-.0361.1148-.0802.0522-.0589.083-.1278.0981-.2029l.0209-.1147v.0002Z" fill="#38a94b" stroke-width="0"/><path d="M8.5814,40.3483l1.0559.2128-.019.0709c-.3379.0102-.5962.085-.7821.2241-.1848.1377-.3129.332-.3798.58-.0581.2068-.0581.4079,0,.603.055.1958.1839.3729.383.5308.1979.159.4628.2832.7979.3749.2749.0751.525.0961.7528.06.229-.0341.4201-.1282.5791-.2801.157-.1519.2659-.3461.334-.5791.0541-.2017.0601-.3937.0182-.5709-.04-.1789-.161-.396-.3631-.6509l.0649-.0594c.2282.231.377.4671.443.712.07.244.0641.5091-.0151.7959-.1421.5182-.4399.8679-.8929,1.049-.3351.1349-.6939.151-1.071.0458-.3031-.083-.5621-.229-.7821-.4391-.216-.2097-.358-.4558-.432-.741-.072-.2828-.0689-.5709.01-.8597.0641-.2261.1792-.4343.3461-.6243.0518-.0558.0791-.097.089-.1238.0111-.0412.006-.0822-.0131-.1211-.03-.0509-.0791-.0941-.1448-.1309l.0209-.0799v.0009Z" fill="#38a94b" stroke-width="0"/><path d="M9.4573,38.3149c-.0992.2731-.0802.5271.0598.7631.1701.2939.493.5257.9672.6958.4879.1761.898.2029,1.2347.0839.2591-.0919.4352-.2719.532-.5399.1032-.2861.0791-.5618-.0729-.8269-.1492-.2642-.4592-.481-.9272-.6511-.5108-.1829-.9238-.2159-1.2498-.101-.2591.0939-.4399.2848-.544.576h.0001ZM9.3114,38.2148c.1428-.396.4139-.6861.811-.871.396-.184.815-.1971,1.2538-.0399.4521.163.7741.4451.966.8431.195.4.2171.8081.068,1.2231-.1519.4199-.4269.7188-.8189.9009-.396.1812-.8209.188-1.283.0221-.4711-.1701-.7999-.4739-.9791-.9122-.1539-.3778-.161-.768-.0178-1.166v-.0002Z" fill="#38a94b" stroke-width="0"/><path d="M13.2492,34.8657l.0479-.066.669.601-1.0188,2.293-.0791-.0348.0491-.1112c.0589-.1249.0589-.233,0-.322-.0312-.0509-.127-.1127-.2911-.186l-1.8641-.828c-.18-.0811-.3007-.1121-.366-.0899-.0879.029-.1579.099-.2061.2108l-.0487.1112-.0802-.0341.5962-1.3411.0799.0348c-.074.157-.1069.2742-.1069.3501.0029.076.0209.1369.055.1812.0369.0427.1401.1021.3109.1781l1.8151.807c.119.0529.2039.078.258.074.036-.0042.07-.021.1009-.0529.03-.0292.087-.1391.1732-.3302l.097-.2159c.1001-.2268.155-.3929.1639-.4998.006-.1061-.012-.2153-.0638-.3282-.0482-.1121-.1452-.2469-.2911-.4008h-.0003Z" fill="#38a94b" stroke-width="0"/><path d="M14.6263,32.235l.051-.0631.6298.646-1.1738,2.219-.0751-.0399.057-.109c.0641-.1211.07-.227.0209-.3211-.028-.0529-.121-.1207-.282-.2048l-1.8-.9518c-.1768-.0921-.2948-.1302-.3629-.1132-.0881.0221-.161.0881-.2191.1971l-.057.1061-.076-.0399.6868-1.298.0763.0407c-.0822.151-.1241.2662-.127.3422-.0062.076.008.1389.0429.184.0292.0452.1301.1121.296.2011l1.756.9261c.1131.06.197.0919.252.0919.04-.002.0731-.0171.1072-.0447.03-.0281.0958-.1353.1939-.32l.1092-.2088c.1168-.219.1828-.3833.1979-.4872.0162-.1056,0-.2168-.0389-.332-.0422-.1147-.1312-.256-.2651-.4199v-.0009Z" fill="#38a94b" stroke-width="0"/><path d="M13.4249,30.1314l1.0641.656.3739-.6061c.0981-.157.1369-.277.125-.3588-.0178-.1072-.1001-.2119-.2489-.316l.0447-.0751.938.5771-.0467.0751c-.1432-.06-.237-.0952-.2851-.0981-.0649-.004-.125.0131-.1859.0529-.057.0381-.125.116-.1979.2319l-.3702.6061.8842.5459c.119.074.1939.1132.229.1172.032.006.0629,0,.0958-.0171.0312-.0179.0712-.066.119-.1408l.286-.469c.097-.1559.155-.275.18-.3581.0209-.0839.0209-.1769,0-.2801-.03-.1358-.1021-.2968-.214-.4879l.053-.0811.525.654-1.3059,2.126-.078-.0447.0618-.0981c.0391-.0649.0632-.1369.0692-.2139.0029-.0569-.0091-.1041-.0411-.147-.032-.0407-.1139-.103-.248-.184l-1.745-1.0761c-.1697-.1061-.2849-.1519-.3498-.1428-.0822.0171-.159.0819-.2271.1958l-.0621.097-.072-.0447,1.311-2.126.608.3328-.053.0791c-.157-.058-.2729-.0859-.3481-.085-.0749.002-.1468.0292-.2168.0799-.051.0423-.1221.1302-.2041.2671l-.468.7572v-.0002Z" fill="#38a94b" stroke-width="0"/><path d="M16.0609,25.7895l.8578.516-.0479.066c-.25-.076-.4648-.097-.6489-.0609-.2582.0489-.4751.1971-.6531.4438-.2429.3342-.2951.6812-.1641,1.0431.115.3018.3231.5618.6242.7789.2429.1769.502.2888.7719.3359.2742.0489.5099.0281.718-.0609.207-.089.3699-.2159.4881-.382.072-.097.129-.1998.1679-.3069.0431-.107.068-.2208.0822-.3388l-.7421-.5333c-.1281-.093-.218-.1439-.2729-.1508-.055-.0091-.106,0-.159.027-.051.027-.1119.0939-.1879.1991l-.0731-.0523.733-1.0167.072.0518-.036.0478c-.072.1001-.0879.1931-.051.2781.0312.0589.1119.138.2491.237l.785.566c-.0309.2048-.076.3929-.1452.5641-.0678.171-.1659.345-.2928.5218-.366.508-.8042.7802-1.311.815-.3801.0261-.727-.072-1.0369-.297-.2251-.163-.4023-.3738-.5293-.6338-.1519-.308-.2097-.6269-.1761-.9523.03-.2711.1372-.5379.3282-.7999.0678-.0959.1358-.1769.2109-.2449.0689-.0669.1808-.1539.3359-.2611.0802-.0518.127-.091.1472-.1172.019-.0239.0209-.0538.012-.0859-.01-.0328-.046-.0751-.1069-.1262l.051-.0709-.0002.0004Z" fill="#38a94b" stroke-width="0"/><path d="M17.3031,24.6333l.957.801.459-.547c.1199-.142.1768-.254.1741-.3359,0-.1092-.0692-.227-.2021-.3501l.0581-.068.8419.7049-.055.068c-.131-.0808-.2211-.1269-.269-.1369-.0609-.0131-.125-.0051-.1891.025-.0669.0301-.1428.0981-.231.2022l-.453.5468.7971.6661c.1088.091.1788.14.2089.151.03.0089.0652.0069.0981-.0062.036-.014.0791-.0527.1369-.1218l.3532-.423c.1168-.14.1939-.25.2268-.33.034-.0791.0462-.1721.0403-.2773-.0102-.1369-.0572-.3089-.1392-.512l.0601-.0729.4289.7219-1.5999,1.9172-.066-.056.072-.0879c.053-.058.083-.1249.1021-.2022.0111-.054.0049-.105-.0221-.1499-.0249-.0469-.0989-.1191-.2168-.217l-1.5752-1.3159c-.1548-.1282-.2619-.1922-.3249-.1902-.0861.0042-.1701.058-.256.1601l-.072.089-.068-.0549,1.5999-1.9172.557.415-.0609.072c-.1492-.0799-.2591-.1258-.3351-.134-.072-.0089-.1479.0071-.2239.0469-.0581.0341-.1401.1121-.2449.235l-.5669.6841h-.0003Z" fill="#38a94b" stroke-width="0"/><path d="M20.6624,20.8382c-.2072.2029-.2982.4411-.276.714.0269.3391.218.6881.5709,1.0459.362.3678.7212.5711,1.0792.6112.2718.0277.508-.0569.7129-.2582.216-.2137.3121-.4719.29-.7758-.0209-.3049-.205-.634-.5559-.989-.3801-.3849-.7381-.5962-1.082-.6309-.271-.029-.519.066-.739.2828ZM20.5773,20.6863c.2991-.295.665-.4411,1.105-.436.4399.006.8201.1761,1.1489.5071.3362.3419.504.7328.5082,1.179,0,.4431-.1562.8201-.4723,1.1299-.3149.3129-.6919.4651-1.1248.46-.432-.008-.8201-.1871-1.1682-.5368-.3521-.3581-.5139-.7722-.4859-1.2441.0238-.409.1839-.762.489-1.059Z" fill="#38a94b" stroke-width="0"/><path d="M22.8255,18.9303l.811.9407.447-.3838c.1029-.089.159-.1752.1679-.2611.0122-.085-.0329-.2002-.131-.3441l.0692-.0569.6979.8101-.068.0578c-.0819-.0919-.1519-.1499-.2129-.173-.0601-.0241-.121-.027-.1831-.014-.0601.014-.133.0569-.2109.1258l-.451.386.648.753c.106.1203.182.1942.2299.2199.038.0182.085.023.1439.0091.0751-.0171.1432-.0498.199-.099l.0921-.078.0558.0658-1.053.9071-.0578-.0649.089-.0751c.1001-.087.1488-.1789.1459-.277-.0031-.062-.068-.1661-.193-.3089l-1.3308-1.548c-.1041-.1198-.1823-.1951-.231-.219-.036-.019-.0822-.023-.1412-.0128-.074.0171-.1421.0507-.199.101l-.089.0749-.055-.0649,1.8261-1.573.4759.506-.0629.0549c-.127-.085-.235-.1349-.32-.1519-.0879-.0171-.173-.01-.2531.0179-.0819.0292-.1848.0992-.3118.2093l-.544.4659v.0002Z" fill="#38a94b" stroke-width="0"/><path d="M27.51,16.8238l1.1529.421c.3211.1172.538.1781.6571.184s.2409-.029.362-.1061l.0482.07-1.135.8059-.0471-.07c.072-.0558.1239-.103.1508-.142.019-.0297.0272-.0629.0312-.0999,0-.0361-.008-.066-.0249-.089-.0202-.0301-.0482-.0549-.0783-.0771-.0278-.0131-.0998-.0438-.2279-.089l-.9178-.3439-.0621,1.086c-.006.1141-.006.1869,0,.2208.006.0332.0198.062.0369.089.0272.0412.07.062.125.0631.0541.002.131-.0292.2302-.0961l.053.07-.9371.6659-.0518-.07c.0641-.0549.11-.107.1428-.1619.057-.091.1032-.1891.1372-.297.0338-.107.0538-.252.0669-.4329l.0799-1.2089-1.051-.3749c-.2829-.1012-.4977-.147-.6409-.1391-.1428.008-.28.0549-.411.1431l-.051-.0711,1.2211-.8679.0499.07c-.1001.0771-.1619.1451-.1768.2011-.0171.056-.0151.1032.0087.138.0332.0469.1131.093.2413.1389l.8237.303.0572-.914c.006-.1072.006-.1772,0-.2108-.0031-.0352-.0171-.0651-.0351-.0901-.0178-.029-.044-.0458-.074-.0549-.0391-.0131-.0751-.014-.1119-.004-.0391.01-.1041.0489-.1981.1141l-.0507-.0709.936-.665.0518.0689c-.0731.0569-.1239.1121-.157.165-.0499.078-.087.1641-.1108.2531-.0202.0919-.0391.2409-.051.4498l-.0621,1.0262-.0003-.0002Z" fill="#38a94b" stroke-width="0"/><path d="M30.9581,16.5484l.0462.072-1.1729.741-.0462-.074.095-.06c.1143-.0709.1761-.1559.1851-.252.0091-.0629-.04-.1738-.1428-.334l-1.0891-1.7269c-.085-.136-.1479-.2199-.1942-.252-.0338-.023-.0788-.0352-.1369-.0321-.0791.006-.1488.029-.216.07l-.0961.0609-.046-.0731,1.1749-.741.0471.0731-.1001.062c-.1128.0709-.1737.1539-.1839.252-.0087.0638.0411.1758.1401.334l1.0899,1.7289c.085.134.151.2179.1942.2511.036.0241.0819.0348.1389.031.0771-.0049.1499-.0281.2132-.0689l.0998-.062Z" fill="#38a94b" stroke-width="0"/><path d="M30.506,14.563l-.055-.095c.0952-.165.1459-.2968.155-.3969.006-.072-.012-.1439-.0538-.2153-.0241-.0407-.0491-.068-.076-.0799-.028-.01-.0522-.0091-.0712.002-.0151.008-.0329.025-.051.0489-.0309.0328-.055.056-.0788.07-.055.0321-.1163.0399-.1823.0241-.0649-.0142-.1159-.0523-.1519-.1132-.04-.0669-.0491-.132-.028-.194.028-.0861.0811-.151.161-.1971.0941-.0529.199-.0651.316-.0312.119.0321.2101.1072.278.2179.0899.1581.1119.3391.066.5399-.0312.134-.1072.2731-.2282.419l.0002.0007Z" fill="#38a94b" stroke-width="0"/><path d="M33.7142,13.7161l-1.0701-.8849.083,1.3932.987-.5082ZM33.854,13.8404l-1.116.57.03.5459c.0091.134.0272.227.0541.2808.0229.0419.0621.07.119.0819.0618.0091.1619-.0148.3051-.0768l.0389.078-.9091.4648-.036-.0768c.108-.083.1732-.149.1902-.2022.04-.1021.0491-.2781.0349-.5271l-.1741-2.834.0771-.0368,2.2011,1.8239c.1768.147.3138.231.4068.2551.0952.021.2033.0051.326-.0478l.0403.0768-1.1401.582-.0411-.076c.1119-.0638.1831-.1231.2072-.1761.0238-.0518.0238-.101,0-.1448-.0292-.062-.1092-.1439-.2322-.2469l-.3821-.314Z" fill="#38a94b" stroke-width="0"/><path d="M34.1153,11.3452l.8101-.341,2.7451,1.418-.7081-1.6802c-.074-.1778-.1412-.2808-.201-.3089-.0799-.0368-.18-.0297-.2951.0182l-.1029.0438-.034-.0791,1.0401-.438.0329.0811-.106.0432c-.1279.0549-.2019.1289-.2219.2248-.0131.06.0151.1712.0819.3342l1.031,2.456-.0799.0328-2.952-1.5187.7541,1.7949c.0731.1789.1401.2821.1981.31.0808.0361.1788.031.2968-.019l.1052-.0432.032.078-1.0392.438-.0329-.0799.1049-.0432c.1281-.0538.201-.1289.2242-.2268.0107-.058-.0171-.1701-.083-.3342l-.8529-2.025c-.1272-.0629-.2211-.0999-.2793-.1141-.057-.0109-.1369-.0131-.235-.0029-.046.0029-.1148.0239-.199.0598l-.034-.0788v.0004Z" fill="#38a94b" stroke-width="0"/><path d="M40.9729,8.8882l-.0241-.083,1.0942-.3351.028.0822-.119.0361c-.1221.0368-.1981.1147-.235.2359-.0171.0549,0,.167.0499.3351l.377,1.2251c.0921.3038.1341.5479.121.7339-.0091.1871-.0881.3672-.2299.5408-.1439.1752-.3722.31-.682.4062-.341.1021-.614.1238-.824.0638-.2112-.0618-.3801-.1778-.5142-.349-.0879-.1178-.1879-.357-.3007-.7208l-.3592-1.1812c-.057-.186-.1219-.2999-.191-.343-.0709-.0407-.165-.0427-.284-.008l-.1148.0361-.0241-.0819,1.3379-.4099.028.0828-.1219.0361c-.1281.0392-.2072.1052-.2381.2011-.0202.066-.0051.1843.0451.3521l.4028,1.3181c.036.1172.0881.248.1581.392.066.1448.1421.2509.2279.3189.0811.066.1879.1112.3129.132.127.0219.2671.008.4252-.0392.205-.0629.3707-.1619.506-.2959.133-.1349.2101-.2801.2268-.4321.0193-.1519-.0238-.3889-.1208-.7089l-.3742-1.2251c-.0578-.1869-.1159-.299-.173-.334-.0799-.0458-.1781-.0523-.2951-.0162l-.1159.0352h.0001Z" fill="#38a94b" stroke-width="0"/><path d="M42.1651,8.4331l.8569-.1927,2.4542,1.878-.4011-1.7781c-.0431-.1887-.0921-.303-.1439-.341-.072-.0487-.1701-.0618-.294-.0341l-.1112.0252-.0171-.083,1.097-.248.0221.0839-.1119.0252c-.1341.029-.2191.0899-.2591.182-.0241.0549-.0151.1699.0241.343l.5848,2.5979-.0859.0199-2.6419-2.0139.4281,1.8981c.0429.19.091.303.1428.341.0731.0509.171.062.2951.0341l.1088-.025.0221.0839-1.1001.248-.0178-.0839.108-.025c.1341-.0301.2231-.0912.258-.1823.0241-.0569.0158-.1719-.0241-.3439l-.4788-2.1441c-.117-.0839-.2021-.1369-.2562-.161-.0558-.0219-.131-.0368-.2308-.0447-.0462-.0031-.1201.004-.2101.025l-.0182-.0842v-.0004Z" fill="#38a94b" stroke-width="0"/><path d="M47.7543,10.433l.0147.085-1.368.2299-.0147-.0839.1108-.019c.135-.0221.2219-.076.2722-.1601.03-.0569.0269-.1778-.0031-.3647l-.3398-2.0119c-.0272-.157-.055-.26-.083-.308-.0261-.0361-.0609-.0629-.115-.0828-.074-.0233-.1499-.0292-.2251-.0171l-.1128.0179-.0162-.0839,1.3692-.231.0158.085-.1159.019c-.1321.023-.2188.0749-.2651.161-.034.0549-.034.1761,0,.3641l.341,2.0128c.0241.157.053.26.0819.3069.0202.0361.0601.062.115.0822.0731.025.1499.0317.2259.0199l.1123-.021v-.0002Z" fill="#38a94b" stroke-width="0"/><path d="M50.8919,6.9546l.01.0859c-.1139.0321-.1959.078-.2469.136-.0763.085-.1372.2088-.1871.3718l-.8201,2.8001-.085.01-1.514-2.5711c-.076-.1318-.131-.2108-.159-.2398-.0447-.0432-.0989-.074-.161-.0961-.0598-.019-.1401-.0281-.239-.0241l-.01-.0859,1.3159-.1499.0102.0859c-.1459.031-.2401.0669-.2793.1081-.0429.0399-.0578.0881-.0518.1439.0091.076.057.1931.1492.349l1.027,1.7482.5531-1.9052c.0558-.188.0808-.3158.0709-.3849-.006-.0447-.0329-.085-.0819-.1211-.051-.0348-.1301-.0558-.244-.0609-.0091,0-.0209-.002-.0411-.002l-.01-.0859.9941-.1121v.0002Z" fill="#38a94b" stroke-width="0"/><path d="M52.0998,7.0747l.0541,1.247.7121-.0317c.1859-.0082.3058-.0412.368-.0981.078-.0751.119-.2029.1219-.3829l.087-.0051.0499,1.1002-.089.004c-.0298-.153-.0538-.2511-.078-.2932-.036-.0538-.0819-.0939-.1468-.1218-.066-.0272-.1712-.0392-.3051-.0332l-.7112.0321.0462,1.04c.006.1411.0178.225.0309.254.0142.0312.0391.0529.0692.0691.0338.0179.095.0239.1828.0199l.5491-.0261c.1839-.0069.318-.025.4-.0538.0791-.029.1579-.0811.229-.157.0961-.1021.1899-.25.284-.4498l.0978-.0042-.2458.803-2.493.1132-.004-.0861.1128-.004c.0771-.0029.1492-.0257.216-.0638.0482-.0281.0811-.066.0992-.1172.0151-.0503.0178-.1519.012-.3069l-.0901-2.0511c-.0087-.1991-.038-.322-.0788-.3667-.0609-.058-.1581-.0861-.2891-.0802l-.1148.0051-.0051-.0859,2.4939-.1112.068.6881-.095.006c-.0391-.165-.083-.277-.1239-.3379-.0462-.06-.106-.105-.1882-.134-.066-.0199-.1781-.0257-.3391-.0199l-.8869.0407v-.0004Z" fill="#38a94b" stroke-width="0"/><path d="M55.138,8.3638c.03.0009.055.002.0791.002.0209.002.0389.0029.0538.0029.3069.0051.5411-.0558.7021-.182.1579-.1278.2398-.2919.2429-.4938.0071-.1971-.0541-.3581-.1781-.485-.125-.1249-.29-.1922-.5-.1951-.0899-.0031-.218.01-.3759.0368l-.0241,1.3141.0002.0002ZM57.406,10.0318l-.868-.0159-1.0661-1.4993c-.0788.002-.1459.002-.197,0-.0218,0-.044,0-.0689-.002-.0229-.0009-.0471-.0029-.0712-.0049l-.0178.9179c-.004.2002.0138.324.057.3723.0601.0709.1519.1056.271.1081l.1281.0029-.0031.0861-1.3881-.0281.0042-.085.1208.002c.1372.002.2342-.0399.2962-.1242.0329-.0478.055-.1619.0558-.3419l.0411-2.0401c.002-.1998-.0162-.3249-.0609-.3718-.0592-.0709-.151-.107-.2729-.1092l-.123-.004.0029-.085,1.18.0241c.345.0071.5969.0361.7572.089.1639.0509.3007.1439.4107.277.1131.1353.1661.2912.1601.473-.002.194-.068.3621-.2021.502-.1338.14-.3359.2381-.6089.2908l.6509.9193c.1483.2108.276.3517.3872.423.108.0709.2489.1172.4249.1389v.085Z" fill="#38a94b" stroke-width="0"/><path d="M59.7657,6.9987l-.089,1.088-.0879-.006c-.0122-.2133-.0491-.3833-.1131-.5142-.0641-.1298-.1599-.2359-.2909-.32-.1312-.0839-.271-.1318-.4172-.1439-.1639-.014-.3038.0252-.419.1152-.1148.0881-.1808.1962-.1919.322-.006.0961.0209.186.083.2711.0879.1242.3089.297.6658.5222.288.182.483.3198.5862.413.1029.095.1788.1998.2308.3189.0491.1211.07.2429.0592.3678-.019.239-.1312.436-.3362.5931-.2019.1581-.4519.2239-.7528.2002-.0921-.0082-.18-.0221-.2631-.0432-.0479-.012-.1479-.0489-.2971-.1101-.1519-.062-.25-.095-.2889-.097-.04-.004-.0731.0049-.0981.027-.0229.021-.044.068-.0641.1408l-.0879-.008.0879-1.08.089.0071c.0241.229.0672.4031.127.52.0621.1191.1581.221.2951.3069.1401.0861.2931.136.4661.1501.1979.0159.3589-.0213.483-.1143.1219-.093.1879-.2088.201-.349.006-.0768-.01-.1579-.046-.2401-.036-.0819-.1001-.1619-.1862-.2359-.057-.0523-.218-.1641-.4828-.3379-.2631-.1741-.4501-.3111-.5582-.4101-.11-.1001-.1899-.2062-.2409-.3189-.0522-.1132-.074-.235-.0609-.3652.0178-.2259.121-.4139.3129-.5629.191-.1479.4261-.2119.6999-.1891.1701.0142.3492.07.5352.1681.0859.0458.1448.07.1808.074.0431.002.0771-.0071.1041-.0281.0309-.023.0561-.0689.076-.14l.089.0082.0002.0002Z" fill="#38a94b" stroke-width="0"/><path d="M61.4104,10.3677l-.0131.0859-1.3759-.1761.012-.0859.1119.0151c.1341.0159.2342-.008.3042-.076.046-.0452.0788-.161.1041-.349l.258-2.025c.0209-.159.0249-.2651.0091-.318-.0091-.0419-.038-.078-.085-.1121-.0632-.0458-.1341-.074-.2112-.083l-.1108-.0151.0091-.0859,1.3768.1761-.012.0859-.115-.0151c-.131-.0159-.231.008-.3018.0771-.044.0452-.078.161-.1041.3481l-.2571,2.0248c-.0218.159-.0249.2651-.012.3191.012.0399.0431.0768.0879.1107.0632.0469.1341.074.2112.0842l.1139.014v.0002Z" fill="#38a94b" stroke-width="0"/><path d="M64.7745,7.8227l-.095.7361-.089-.0151c.0031-.1333-.0031-.229-.0241-.2892-.0289-.0981-.085-.1741-.1579-.231-.072-.0558-.1761-.097-.3069-.1191l-.4501-.0799-.4218,2.3771c-.034.1911-.034.3138,0,.3687.0491.0751.1369.1231.258.1462l.1108.019-.0138.0848-1.353-.2398.0158-.085.1123.0199c.1338.0241.2378.0011.3069-.0678.044-.0432.0819-.151.1119-.3262l.4198-2.3769-.383-.068c-.1488-.027-.256-.0361-.322-.0241-.085.0142-.1679.0569-.2378.1289-.074.072-.127.1792-.1641.318l-.0899-.0159.167-.7231,2.6059.462v.0004Z" fill="#38a94b" stroke-width="0"/><path d="M67.2923,8.4253l1.0979.2731-.0218.0839-.0612-.0151c-.038-.0089-.1041-.0069-.1888.0091-.085.0151-.1701.0469-.248.0961-.0802.0498-.1831.136-.314.2591l-1.0459.9749-.195.7691c-.0451.188-.0538.3109-.0209.3678.0431.0791.127.134.2551.165l.0998.0261-.0198.083-1.3352-.3331.0209-.0839.1131.027c.131.0348.233.0202.3089-.0458.046-.0399.0921-.1451.1341-.3171l.1828-.7268-.544-1.499c-.0649-.1761-.1108-.2879-.1369-.3342-.0269-.0467-.091-.1101-.191-.1907-.0289-.0241-.072-.0423-.1281-.056l.0182-.085,1.3459.3351-.0209.0839-.0689-.0171c-.074-.0179-.1432-.0179-.214,0-.0689.0182-.1119.06-.1281.1269-.0138.0529.0102.1641.068.328l.411,1.152.8509-.7908c.127-.1191.201-.2128.2191-.2828.0091-.0423.0091-.0822-.0071-.1211-.0138-.0381-.0389-.0731-.076-.1021-.036-.029-.097-.054-.1808-.076l.0209-.083v-.0004Z" fill="#38a94b" stroke-width="0"/><path d="M71.3821,9.7992c-.271-.099-.5261-.078-.7611.0589-.2951.1712-.525.4961-.6959.968-.1772.4861-.2041.898-.085,1.2359.0918.2582.271.4343.5408.5322.286.1012.5602.078.8271-.072.2659-.1508.481-.4609.6509-.9301.1831-.51.2151-.9257.1001-1.2499-.0941-.258-.286-.4391-.5769-.543h.0001ZM71.483,9.6544c.3949.1408.686.4119.8711.809.1828.3988.1979.815.0409,1.255-.161.4509-.4459.7731-.843.9669-.4008.1922-.809.2159-1.222.0651-.421-.1501-.7208-.4221-.9-.8161-.1828-.394-.1888-.822-.0249-1.2829.1701-.473.4739-.799.9131-.9791.3759-.1559.765-.161,1.1651-.0179h-.0002Z" fill="#38a94b" stroke-width="0"/><path d="M74.0578,10.93l-.495,1.139.5408.2361c.121.0549.2251.0669.3069.0392.0791-.0272.1641-.1172.2511-.2671l.083.0348-.4292.9799-.0808-.0348c.0479-.1132.0689-.2011.0629-.2682-.006-.0638-.0269-.1207-.0672-.1699-.0389-.0469-.1069-.093-.2058-.136l-.542-.2381-.3991.9102c-.0621.1479-.097.248-.097.3018,0,.0432.0158.0859.053.1329.0471.062.1088.1101.1781.14l.1069.0458-.0329.0782-1.2739-.557.0329-.0791.1069.0469c.121.0538.2242.0578.3133.0131.0538-.0321.1179-.1333.1939-.3069l.8181-1.8711c.0638-.147.097-.246.097-.3018.0029-.0419-.0138-.085-.0471-.1309-.0471-.0611-.1069-.1081-.1808-.1391l-.1041-.0458.0349-.0791,2.2079.966-.2489.6491-.078-.0341c.0209-.1521.0209-.2711-.002-.3561-.0221-.085-.0641-.159-.125-.219-.0601-.06-.1701-.1249-.322-.192l-.6571-.2872.0003.0002Z" fill="#38a94b" stroke-width="0"/><path d="M77.6759,12.6627l-.5898,1.0922.521.2808c.1179.0649.218.085.3038.0649.0811-.0219.1721-.103.2742-.2469l.078.0427-.5111.9423-.076-.0423c.0581-.109.085-.1958.085-.2609,0-.066-.0178-.1249-.051-.1761-.0369-.0509-.0998-.1021-.195-.1539l-.5199-.2801-.4699.873c-.078.1397-.1199.239-.125.2939-.004.0407.008.0859.0391.1338.0447.0671.0989.1191.167.155l.1029.0549-.04.0771-1.2251-.6619.0442-.0762.0989.0549c.1179.0631.2219.0762.3109.0372.057-.025.131-.1211.2219-.2872l.97-1.7969c.0751-.1408.1179-.2381.1241-.2932.004-.0419-.0091-.0868-.0391-.1349-.0431-.0649-.0981-.1172-.1681-.1539l-.0998-.054.0409-.076,2.122,1.1471-.3051.625-.072-.0383c.0332-.1508.042-.27.0269-.357-.0158-.087-.053-.163-.106-.2279-.055-.066-.1588-.1391-.3069-.2199l-.631-.3382v.0009Z" fill="#38a94b" stroke-width="0"/><path d="M79.0295,16.7827l-.0451.0731-1.1889-.7151.0451-.074.097.0589c.1159.068.22.0861.3102.0529.0589-.0239.1338-.1172.235-.279l1.0519-1.7491c.0819-.1369.1279-.2321.1369-.2872.0051-.0407-.006-.0879-.034-.1369-.04-.068-.0938-.1218-.1579-.1619l-.1001-.058.046-.0751,1.1891.7171-.0471.0729-.0981-.0589c-.1148-.068-.214-.0859-.3058-.0529-.0601.0241-.1392.1152-.2381.277l-1.0499,1.7502c-.083.1369-.1281.233-.1381.2879-.006.0412.0071.087.0332.136.0389.0689.0918.1211.1579.161l.1009.0609v.0002Z" fill="#38a94b" stroke-width="0"/><path d="M80.7452,14.1947l.7259.4941.3082,3.0729,1.025-1.5068c.108-.161.157-.2742.1492-.3382-.0131-.0859-.0712-.1659-.1781-.2378l-.091-.0631.046-.0698.9329.6318-.0479.0731-.095-.066c-.1119-.0771-.214-.0981-.3089-.0629-.0561.021-.1341.105-.235.252l-1.4962,2.2028-.0689-.0489-.3382-3.305-1.095,1.61c-.1088.1599-.159.2731-.1488.3379.0131.087.0689.1661.1741.237l.097.064-.0491.072-.934-.634.0491-.0709.095.062c.1119.078.2148.0999.3102.0658.057-.023.133-.1056.2339-.252l1.234-1.8179c-.0178-.142-.036-.2401-.0578-.297-.0209-.0538-.0601-.1211-.121-.1978-.0332-.0381-.085-.0822-.1641-.136l.0491-.0711-.0003-.0002Z" fill="#38a94b" stroke-width="0"/><path d="M84.3294,19.1644l.368-1.342-1.2359.6471.868.6947v.0002ZM84.2752,19.3405l-.9799-.7817-.483.252c-.119.0629-.1979.1178-.2339.1659-.03.0372-.0403.0842-.0241.142.012.0589.0791.14.191.246l-.0522.068-.7959-.6369.0522-.0671c.1208.0671.2058.0972.2619.093.1119-.008.276-.0709.495-.186l2.5109-1.325.0652.0518-.7552,2.7594c-.0589.2228-.0819.3798-.0629.4759.0178.0939.0791.186.1761.2757l-.055.0671-.997-.797.051-.0669c.1069.0749.1859.1127.2438.1127.0561.0011.1032-.019.1361-.0578.042-.054.085-.159.125-.3149l.131-.4761Z" fill="#38a94b" stroke-width="0"/><path d="M86.6496,18.5432l.6452.5993-.1641,3.0849,1.241-1.3341c.133-.1431.2001-.246.2001-.3131,0-.0879-.0462-.175-.1401-.262l-.0811-.076.057-.062.826.7671-.057.0629-.0859-.078c-.0992-.093-.1962-.1298-.2942-.1101-.0598.0131-.1479.0842-.271.2133l-1.8151,1.9499-.0609-.0569.1681-3.3192-1.3261,1.4251c-.131.142-.197.2449-.197.31,0,.0899.044.1769.1361.2629l.085.0782-.0609.0629-.824-.7691.0578-.062.0822.076c.1018.0952.1999.132.298.1132.0609-.014.1479-.0839.2698-.2148l1.4982-1.61c.002-.1411,0-.2421-.012-.2999-.0131-.058-.0442-.1293-.093-.2153-.0233-.0419-.072-.0961-.1401-.159l.0578-.064v-.0002Z" fill="#38a94b" stroke-width="0"/><path d="M91.4311,23.2027l-.7361.784-.053-.054c.1721-.2908.244-.551.2231-.7817-.0209-.2301-.1199-.4391-.2911-.6281-.1468-.157-.3209-.2631-.5139-.318-.199-.0558-.415-.0388-.6511.0463-.2409.0848-.487.2458-.741.4799-.2077.1958-.3609.3988-.4479.6101-.0921.2119-.1119.425-.0641.6389.0451.2139.1479.411.316.5871.1439.155.3011.262.4739.32.173.0578.4221.0689.745.0328l.0151.0861c-.316.072-.5949.0729-.8379.0029-.244-.0709-.4661-.2148-.669-.4329-.366-.3931-.506-.8311-.423-1.3101.0629-.357.2359-.6699.525-.9368.2319-.2139.4919-.3572.7837-.4321.2931-.0731.5782-.066.8591.0219.2789.0881.5199.2421.7259.4633.1579.1719.2742.3789.3469.6219.0209.072.0431.1178.0601.1389.032.0321.068.0489.11.0523.057.0029.123-.0151.1879-.054l.0561.062.0002-.0004Z" fill="#38a94b" stroke-width="0"/><path d="M92.1779,24.4798l-.9731.7848.447.5541c.119.1439.216.2228.2991.237.1049.019.2342-.023.3801-.1302l.055.0691-.8553.6918-.055-.0691c.1032-.1141.1672-.194.1851-.239.0289-.0549.032-.1191.012-.1887-.0151-.0711-.0658-.1581-.1508-.2642l-.4481-.5539-.811.6548c-.1088.089-.171.1451-.1871.1752-.0138.0301-.0198.062-.0138.0981.006.0348.036.0868.095.1579l.345.427c.1131.1431.2081.2381.28.2872.0712.0489.159.0788.2651.0939.1369.0162.314.0031.5301-.0381l.0598.0731-.7928.2821-1.569-1.942.066-.0549.0729.0899c.046.0589.1072.1052.1772.1349.0507.0241.1029.0272.1519.0111.051-.0171.1369-.0729.256-.1699l1.595-1.2911c.1548-.1258.2409-.2199.2509-.2821.012-.0828-.0241-.1769-.1069-.2817l-.074-.0881.0678-.0538,1.5681,1.9408-.5139.4628-.0601-.072c.1092-.1309.1772-.231.197-.303.0221-.0698.0221-.1448-.0031-.2279-.0198-.0649-.0808-.1599-.1848-.2841l-.557-.6918-.0003-.0002Z" fill="#38a94b" stroke-width="0"/><path d="M93.9513,29.8794l.767-1.162-1.3779.231.6109.931ZM93.8445,30.0293l-.6899-1.0479-.538.0901c-.131.023-.2219.0498-.2729.083-.04.027-.0641.07-.068.1289-.006.0589.03.157.1069.2928l-.0709.0483-.5621-.8522.074-.0489c.093.101.167.1581.218.1721.1092.0261.282.0171.5281-.0261l2.8021-.4759.046.07-1.5789,2.3871c-.1281.1911-.1942.3371-.2061.431-.012.0981.0151.2029.0819.318l-.0729.0478-.703-1.069.074-.0469c.0749.1041.1389.1661.1939.184.0561.0182.1032.0142.1459-.0148.057-.0381.131-.1242.218-.2582l.2742-.413h-.0002Z" fill="#38a94b" stroke-width="0"/><path d="M96.3479,30.0123l.4218.7698-1.1188,2.8781,1.597-.877c.1697-.0939.2651-.1721.286-.235.0269-.0839.012-.1809-.0482-.2919l-.0558-.099.076-.0412.5408.9881-.072.0407-.0589-.0999c-.0629-.1203-.1448-.1851-.246-.1962-.0598-.008-.167.0321-.3229.1172l-2.332,1.2838-.042-.076,1.198-3.098-1.703.9392c-.1697.0941-.2667.171-.288.231-.0269.085-.0127.182.0471.2928l.0581.1001-.0751.0419-.544-.9879.076-.0419.051.0981c.068.1218.153.1887.25.1998.0601.0071.167-.0328.3211-.1178l1.9279-1.061c.046-.1329.0771-.2301.083-.2879.006-.06,0-.1373-.0209-.2341-.01-.0478-.038-.1127-.0819-.194l.076-.0419h-.0002Z" fill="#38a94b" stroke-width="0"/><path d="M95.8888,35.4185c.0442.2017.0941.3658.151.4899.153.3382.3932.5649.7239.6832.332.1178.693.0879,1.0891-.091.3991-.18.6639-.4332.7908-.758.1312-.326.115-.663-.0429-1.0121-.057-.1293-.1472-.2691-.2619-.4172l-2.4503,1.1053h.0001ZM95.302,34.6693l.078-.0348.0499.1101c.0581.1249.1372.1958.237.2128.0609.0122.1732-.019.3371-.0939l1.8589-.8402c.1812-.0808.2851-.1519.3089-.2119.036-.0839.03-.184-.0178-.2948l-.0522-.1121.0791-.0352.5411,1.2021c.2019.4407.3051.7999.3109,1.0738.006.2733-.0731.5333-.237.7751-.1681.244-.398.4332-.697.568-.4011.18-.794.2062-1.1742.078-.4261-.1439-.7679-.5029-1.027-1.0769l-.5958-1.3201h.0001Z" fill="#38a94b" stroke-width="0"/><path d="M100.2454,38.809l-1.182.396.2251.6761c.0609.175.1239.2828.197.326.095.0549.229.0589.4019.0111l.028.083-1.0439.351-.0272-.085c.1361-.07.2251-.1218.2571-.1559.044-.0452.072-.1041.078-.1761.008-.0711-.006-.171-.053-.299l-.2239-.6761-.989.3322c-.131.0427-.2089.0768-.233.0999-.0249.0202-.0431.0503-.0491.085-.006.0372.0031.0961.0332.1812l.173.5211c.0581.1738.1131.2959.1641.3658.0487.0709.1227.1318.2129.18.125.0629.296.1127.5099.1488l.0309.0901-.8388-.012-.7931-2.3672.078-.0277.0371.109c.0249.072.0669.1349.1219.1891.0391.0412.085.06.1401.062.0522.0029.1519-.021.298-.07l1.9459-.652c.1891-.0651.3022-.1242.3322-.1781.038-.074.038-.1741-.0031-.301l-.038-.1092.083-.0281.794,2.368-.646.2531-.03-.087c.1459-.0842.244-.1561.2891-.2153.046-.0578.074-.1298.0788-.2168,0-.068-.0229-.1781-.076-.3291l-.2829-.8431-.0002-.0002Z" fill="#38a94b" stroke-width="0"/><path d="M101.886,43.5758l-1.0221.341-.019-.072c.286-.1761.4751-.3712.5653-.582.0918-.2139.1069-.4451.044-.6932-.055-.2082-.1559-.382-.3011-.5242-.1472-.1408-.3481-.231-.5969-.27-.248-.0372-.544-.0131-.8791.072-.2769.0729-.504.18-.6852.324-.1777.1428-.2999.32-.36.5308-.0618.2099-.0618.4332,0,.667.0522.2042.1401.3729.2682.508.123.1329.3371.2611.6361.3809l-.0261.0842c-.3121-.0861-.559-.219-.7381-.3971-.1839-.1761-.3109-.409-.383-.6971-.1338-.52-.053-.9709.252-1.3538.2239-.2852.525-.4761.9051-.574.3051-.0802.6029-.0822.8949-.0082.292.0751.5411.217.745.4272.2033.2099.3441.46.4201.751.057.227.0601.4651.0091.7129-.0151.0731-.0182.1249-.012.1521.01.0407.0329.074.0689.0979.0518.0292.115.0432.193.0423l.0209.0799v.0002Z" fill="#38a94b" stroke-width="0"/><path d="M102.138,45.7758c-.0502-.2848-.195-.4961-.4332-.6318-.2951-.1701-.6891-.2099-1.186-.1222-.5071.0901-.8779.2722-1.1129.5412-.1752.2088-.2401.4529-.191.733.0518.2999.2101.5271.4751.6821.2608.1548.6378.1887,1.1299.103.5329-.095.9111-.2742,1.131-.5348.1808-.2082.2409-.4651.1871-.7702v-.0002ZM102.3149,45.7908c.072.415-.019.799-.2722,1.158-.2529.3572-.6078.578-1.067.6591-.4708.0839-.892,0-1.2589-.25-.3651-.25-.5882-.5939-.663-1.0278-.0791-.4391.01-.8351.2591-1.1879.252-.3521.6207-.572,1.1019-.6571.4941-.0881.93.014,1.2991.303.326.252.5278.586.6009,1.003v-.0002Z" fill="#38a94b" stroke-width="0"/><path d="M102.5607,47.5981l.085.875-2.1711,2.1969,1.8151-.173c.191-.0182.3102-.0523.356-.101.0581-.066.0811-.161.0692-.2879l-.0111-.1121.085-.0082.1088,1.123-.085.008-.0127-.1141c-.0111-.1369-.0632-.229-.1483-.2781-.0518-.031-.1679-.0368-.3438-.021l-2.6521.2551-.006-.0861,2.3301-2.3689-1.9381.186c-.195.019-.3129.0509-.3549.0992-.0621.0669-.0861.1619-.0731.2868l.0111.1141-.085.0091-.1092-1.123.087-.008.0111.1121c.0111.138.0629.2301.1479.2801.0522.031.1681.0368.3441.021l2.1861-.2108c.1009-.1041.1619-.182.1928-.233.03-.0523.0541-.1262.0743-.2223.01-.0478.01-.1167,0-.2108l.0867-.008h-.0001Z" fill="#38a94b" stroke-width="0"/><path d="M102.843,53.0619c-.0031-.2899-.1119-.5211-.3251-.6918-.2648-.2139-.648-.3169-1.154-.3089-.5148.0091-.908.1289-1.1849.3588-.207.1772-.3109.409-.3038.6943.0029.3038.1239.553.3589.7481.235.1947.602.2868,1.099.279.5431-.01.9451-.1249,1.2062-.3481.2058-.1781.3098-.4221.3038-.731v-.0002ZM103.0131,53.1051c.01.421-.1432.7868-.4461,1.1011-.3069.312-.6939.4739-1.16.4819-.4799.0082-.881-.1417-1.2031-.4458-.3229-.3058-.487-.679-.4969-1.1199-.006-.4471.1439-.824.4479-1.133.3042-.3089.703-.4659,1.192-.475.502-.008.9131.1601,1.2371.506.28.299.4232.661.4292,1.0851v-.0004Z" fill="#38a94b" stroke-width="0"/><path d="M99.6897,56.7855l2.74-1.059-2.1042-.1499c-.1959-.014-.3178-.002-.368.0381-.0709.054-.1069.1451-.1168.2722l-.0082.1141-.085-.006.0791-1.125.085.006-.006.1141c-.0131.138.0218.2372.0989.3003.0471.0388.159.064.3359.076l2.0591.149c.1401.0089.2429,0,.3069-.0281.0451-.0171.085-.056.121-.1132.034-.0578.0538-.1519.0641-.2848l.085.006-.0632.9159-2.5508.9961,2.3831,1.3301-.0641.9159-.0881-.0069.0082-.1121c.0087-.138-.0202-.2401-.0992-.301-.0447-.0392-.1588-.0651-.3347-.0771l-2.0591-.1479c-.193-.014-.3149,0-.3671.0399-.07.0549-.11.1459-.119.2731l-.006.1132-.0879-.008.0989-1.373.0859.008-.0087.1132c-.0091.1389.0238.239.1001.299.0487.0388.1579.0649.3367.078l2.1062.1508-2.5639-1.4357.006-.0802v-.0009Z" fill="#38a94b" stroke-width="0"/><path d="M99.3646,60.5279l-.0861-.0131.1922-1.3739.0847.0111-.0151.1141c-.0178.1329.0062.2339.0731.3049.042.0452.161.0799.3469.105l2.0211.2841c.159.021.2659.025.3209.0111.038-.0091.0791-.0381.1119-.083.0451-.064.0751-.1338.085-.2099l.0151-.1127.085.012-.191,1.375-.0859-.0122.0151-.1147c.019-.1329-.006-.233-.072-.303-.0442-.0469-.159-.083-.3469-.1092l-2.0231-.2808c-.157-.0241-.2631-.027-.3149-.014-.0442.01-.0791.0388-.1131.0859-.0479.062-.076.1329-.0879.2068l-.0151.1172v-.0007Z" fill="#38a94b" stroke-width="0"/><path d="M101.9036,64.0621l-1.0672-.134.0142-.072c.3351-.0348.5871-.1289.7639-.2808.173-.1539.2829-.3561.334-.6081.04-.2108.0272-.4119-.0447-.6021-.07-.1911-.2101-.3581-.4201-.4989-.2101-.1431-.4861-.248-.824-.316-.28-.0538-.532-.0549-.7568-.0051-.2262.0529-.4101.161-.557.3251-.1452.1641-.2401.3652-.2891.6021-.04.2057-.034.398.0249.5709.053.175.191.382.411.6219l-.0621.064c-.2429-.2148-.4099-.4391-.495-.6781-.089-.2359-.1009-.502-.046-.7948.1029-.5251.373-.8971.8119-1.1113.3251-.1599.6812-.2017,1.0681-.1278.3062.0609.5771.1891.8082.3809.2339.192.396.429.489.7058.0958.2773.11.5641.053.8581-.0462.231-.1439.4471-.2991.648-.0451.0589-.0712.1032-.074.1309-.0102.0432-.004.0822.019.1191.034.0489.085.089.1559.1203l-.0178.0819h-.0002Z" fill="#38a94b" stroke-width="0"/><path d="M101.2306,66.6461l-1.0579-.2821.0249-.0861c.2089.0272.3841.0202.523-.0199.1401-.0392.2611-.1152.3671-.2279.1069-.1132.18-.2412.216-.3833.0429-.1599.0298-.3058-.036-.436-.0672-.1289-.161-.2108-.2831-.2438-.0938-.0241-.1899-.0142-.282.0317-.1369.064-.3469.2511-.6318.5601-.233.252-.4031.4201-.5119.5049-.1092.085-.2271.142-.3552.1701-.125.0281-.2489.025-.3707-.0069-.2322-.062-.409-.2073-.5273-.4352-.1188-.229-.1369-.4881-.0598-.7769.0229-.091.0538-.1752.0879-.2511.0209-.0458.0771-.1377.1621-.275.087-.1369.1358-.2259.1479-.266.0091-.0381.006-.0711-.0102-.099-.0178-.0301-.0598-.058-.127-.0881l.0252-.085,1.0459.2801-.0221.0839c-.231-.0179-.4099-.008-.5389.0301-.125.0399-.2421.1191-.3512.239-.1108.1203-.1868.2631-.233.4292-.0499.1931-.0409.3588.028.495.0712.1389.171.227.3082.262.072.0202.155.0202.2418-.0029.089-.021.1772-.068.2682-.14.0609-.0478.201-.186.417-.4161.22-.227.3869-.3858.506-.4759.115-.0899.235-.151.354-.182.121-.029.2429-.027.3711.006.2188.0589.3838.1951.4957.409.1131.2159.1341.4562.0652.7231-.0471.165-.1321.3309-.2631.495-.0601.0771-.097.1329-.106.1681-.0091.0399-.006.076.0091.107.0178.0321.0578.0649.1239.1001l-.0209.085v.0002Z" fill="#38a94b" stroke-width="0"/><path d="M47.7355,100.3141c.654-.0341.7959.0179.9881-.665.256-.9341.7799-2.7842.8249-2.9241.0581-.1741.5621-.1198.7232.0691.1579.1911-.6622,2.7578-.5222,2.999.0122.0219,2.304-.7242,2.0971-1.21-.2531-.582-.538-.881-.4699-.929.087-.064.6278.2797,1.1999.8838.332.351.574.6641.2072.815-.3702.1499-3.2241,1.5562-3.5651,1.7601-.6701.4011.074.9569.8291,1.4871.5159.3621.936.758,1.3249.906.1741.0691,2.0639.1211,1.7158.576-.1279.165-1.7798.9711-2.0619.9031-.2869-.07-2.336-2.869-2.442-2.8792-.1069-.008-.0768.1052-.3739.469-.1492.1849-.688.6998-1.2379,1.175-.5352.46-1.0902.879-1.2311.9799-.29.2022-.4901.4679-.767.4659-.276-.002-.667-.0348-.292-.2219.97-.489,3.1-2.277,3.227-3.427.0209-.1991.0751-.01-.4359-.2179-.5099-.2082-1.0361-.661-1.0459-.813-.0229-.341.701-.1681,1.3079-.2017v-.0002Z" fill="#38a94b" fill-rule="evenodd" stroke-width="0"/><path d="M56.219,99.5432c.0649.1112.2239.3391.286.477.068.136.1768.062.2259,0,.0479-.064.106.0372.051.3632-.051.328-.1029.504-.2239.6739-.1221.1712-.246.2432-.246.2432,0,0-.2682.0979-.3509-.132-.0822-.2319,0-.316.03-.4569.0318-.1411-.0241-.817.006-1.0411.032-.2259.2219-.1269.2219-.1269v-.0004Z" fill="#38a94b" fill-rule="evenodd" stroke-width="0"/><path d="M56.3712,97.4839c.1041.0071.3861.103.5942.2401.2097.1358,1.0041.8588,1.0848,1.1629.085.3049.18.3351.0799.6203-.0989.2848-.3069.5698-.4688.65-.1641.0788-.2251-.0569-.2769-.301-.055-.244-.078-.4941-.2611-.8632-.1831-.3667-.648-.9301-.7639-1.1208-.119-.1902.012-.388.012-.388v-.0002Z" fill="#38a94b" fill-rule="evenodd" stroke-width="0"/><path d="M60.261,97.7906c-.161.1218.012.3588-.197.582-.1139.1178-.2109.32-.173.4538.0589.2281.3391.25.65.239.3129-.0109.2829-.1178.28-.3557-.0031-.2401-.1981-.1581-.292-.2602-.07-.0768.5559-.4628.7688-.1249.0522.085-.0209.502.0371.464.0601-.0381.1788-.1141.324-.2999.1492-.1871.2591-.7029.1069-.791-.1499-.0899-1.361-.0171-1.5049.0932v-.0002ZM59.452,100.1837c-.1939.1147-.441.2777-.4739.3399-.03.0589.091.0489.4921-.0941.326-.1178.5879-.2919.7188-.415.1281-.1231-.0309-.1187-.153-.1318-.1179-.0131-.3878.1849-.584.301ZM58.863,98.9847c.1052-.1282.1421-.0523-.032-.2421-.175-.19-.2749-.3209-.1219-.3729.1559-.0518.485.1061.65.0711.167-.0352.233-.163.292-.3251.053-.1639-.22-.3379-.3418-.586-.121-.2471-.246-.3461-.051-.398.1899-.054.508-.1172.6358-.0981.1241.021.1092.1112.2211.1389.1131.0292.0581-.0368.165-.1488.1052-.1092.334-.4431.4561-.5459.121-.1021.2951.029.32.2268.0198.1982-.0221.3853-.129.4679-.106.0842-.216.1561-.1432.1982.0731.0412.477-.054.8311-.1559.3818-.1123,1.1909-.4042,1.2351.2757.0209.3891-.4661,1.119-.792,1.362-.324.2429-.5542.4719-.6191.638-.074.184.644.105.6369.4458-.002.2153-.0309.4059-.5159.7552-.4901.3499-1.5271,1.1841-1.889,1.1569-.3651-.0281-.362.0111-.1661-.1639.191-.1752,1.0389-1.0222,1.2359-1.1742.411-.3169.1439-.4241-.1479-.2168-.2219.1559-.6058.5357-.9918.7479-.3861.2133-1.311.636-1.846.9292-.5352.2919-.276.3758-.8022.3829-.5199.0069-.976-.072-.8249-.277.153-.2053.3929-.2731.7219-.4613.3249-.186,1.961-1.3028,2.2648-1.482.3031-.1789.568-.3641.667-.506.0921-.14.0589-.33-.193-.3789-.2489-.0489-.4139.0151-.5989.1211-.1848.1061-.218.1681-.3098.1141-.282-.165.0638-.3541.1828-.4989v.0002Z" fill="#38a94b" fill-rule="evenodd" stroke-width="0"/><path d="M55.0284,103.8851c.106-.105.9241-.2808,1.645-.5468.72-.2662,1.3461-.4181,1.7141-.5621.095-.0372.2231-.0478.2651-.1041.125-.1741.0269-.3712.0978-.5029.1882-.3441.3501.2139.5653.2671.4957.1167,1.484-.223,1.4989.0507.0151.2733-.0202.4022-.1741.5231-.151.1231-.9989.062-1.0859.2682-.233.57.576,2.5049-.4759,2.5009-.7702-.0031-1.5542-.221-1.8131-.388-.258-.1681-.1479-.2188-.085-.252.0669-.0321,1.381.0489,1.4329-.0899.3149-.8382.161-1.4373.0451-1.5072-.1891-.1121-1.1829.314-1.7739.6243-.5281.2817-.3671.3747-.741.3269-.377-.0458-1.0523-.3089-1.0882-.3809-.034-.0729-.0269-.227-.0269-.227v-.0002Z" fill="#38a94b" fill-rule="evenodd" stroke-width="0"/><path d="M15.4535,73.4528s3.445,5.72,3.3658,6.0108c-.0791.2919-.252.8451-.489.9381-.2401.0941-.3018.2471-.447-.1951-.2531-.7857-.6049-1.501-1.0131-2.1829-.2849-.4739-.6169-.9199-.8688-1.4191-.2432-.4788-.5352-.9919-.6452-1.3799-.1128-.39-.2789-1.6279-.182-1.7531.0992-.1249.2793-.019.2793-.019v.0002Z" fill="#38a94b" fill-rule="evenodd" stroke-width="0"/><path d="M12.8685,74.1791c-.1112.087-.6361.3371-1.1191.5561-.4799.2199-.7599.1991-.83.425-.07.227.0669.275.207.3712.1432.0939.3711.252-.2219.165-.5931-.0901-1.0919-.0122-1.099-.2722-.0091-.256.2651-.9179.5369-1.1048.2662-.186,1.061-.2429,1.5812-.3541.519-.1107.7299.0131.8411.0819.1159.072.1041.132.1041.132h-.0002Z" fill="#38a94b" fill-rule="evenodd" stroke-width="0"/><path d="M13.5267,77.7661c-.32-.2119-.843-.574-1.2022-.6409-.22-.0412-.3189.0151-.2429.4008.055.2919.1389.7762-.0641.881-.2619.1309-.6509.2781-.3351.4941.203.1349.2773.029.775.1439.5.1172,1.2291.3849,1.8221.553.5969.1701,1.4009.429,1.5349.3379.1281-.0939.1159-.1781-.0709-.5328-.1902-.355-.7401-.813-1.0752-1.063-.3371-.25-.8209-.3632-1.1418-.574h.0001ZM12.4195,75.9262s-.2749-.1891-.3699-.3481c-.0961-.1559-.1641-.353-.068-.5578.0961-.2073.1112-.2793.2421-.2682.131.0122.5811.625.7991.6491.2168.021.4328-.0091.7579-.1211.328-.1141.6999-.2301.8249-.188.121.0478.276.1207.1579.27-.1219.147-.9609.5282-.989.7171-.0298.188.0881.324.322.5931.235.27.7341.7751.8951.8748.161.1012,1.323.407,1.4531.407.362,0,.4258.068.362.3109-.0332.1203-.3031.409-.532.3641-.2271-.0458-.4039-.1389-.5281-.1278-.1219.0111-.2081.0518.0031.252.4359.419,1.1749,1.5318.288,1.8171-.3952.1258-.3469.1231-1.0761-.0791-.7279-.2029-1.2018-.3149-1.9219-.394-.5422-.0609-2.3822-.151-2.5072-.5499-.0479-.151.2342-.714.4201-1.0101.1831-.2959.3379-.3331.332-.4529-.006-.1191.0482.0589-.258-.46-.18-.3049-.9918-1.3312-.4348-1.5278.377-.1353.3249-.1692.7779-.0469.4501.1231,1.1251.588,1.3621.6978.2409.1152.5051.173.6449.188.432.0399-.343-.4239-.419-.431-.131-.0091-.815-.093-.6599-.3889.0391-.0811.1219-.1891.1219-.1891v-.0002Z" fill="#38a94b" fill-rule="evenodd" stroke-width="0"/><path d="M23.5851,83.7562s-.1088-.0489-.2429.0202c-.1341.0669-1.1702.6068-1.2231.6927-.0491.0881,0,.1041.1523.0981.1519-.004.557-.262.8388-.405.284-.1408.3691-.2868.4751-.4059h-.0001ZM19.6892,86.0313c0-.0981-.0731-.2113-.167-.2241-.123-.0257-.2591.0822-.2101.1823.046.0828.125.1207.2651.1349.1389.0171.1088-.0469.1119-.093ZM22.159,85.428s-.1369.0321-.26.254c-.121.2203-.169.3111-.2109.6391-.044.33.2168.508.4708.7129.2542.2048.6752.14,1.0792.2429.405.1041.7869.0569,1.097-.0799.3089-.138.366-.099.398-.347.0349-.2489-.2089-.3971-.4501-.547-.2429-.1488-2.092-.8838-2.124-.875h.0001ZM18.5922,85.5341c.1298-.239.4031-.1389.4249-.2939-.1159-.3698-1.0479-1.0127-1.393-1.1048-.6591-.1769-.8989.5689-.7381,1.057.0992.3038.2951.568.5082.8779.2671.386,1.3099.6511,1.7388.6801.3089.021.4661-.014.7212-.099.2509-.0901.087-.1218.0329-.1519-.0558-.0292-.699-.2073-.7869-.2042-.0859.004-.578-.1499-.6389-.295-.0609-.1448.0151-.2569.131-.4659v-.0002ZM21.5991,84.2091c.3798.1041,2.0951-.898,2.6521-.9589.5598-.058.5289.357.3648.5288-.1659.171-1.6419.879-1.7818,1.073-.0589.0811.7239.4161,1.3957.9.7521.543,1.277,1.1923.9182,1.5681-.3501.3658-2.1889.4079-2.7471.2259-.83-.2691-1.4111-.9819-.919-1.8578.233-.413-.0261-.6121-.4269-.6243-.1732-.0049-1.1471.405-1.2469.5871-.1001.1851.2129.4699.332.582.1479.138,1.0119.054.966.741-.0122.2392-.4252.1032-.4731.3131-.0499.2108.1021.9979-.2931,1.331-.3949.3311-.8509.4759-1.4658.4471-.6171-.0281-1.563-.4478-2.0591-.7149-.493-.2671-.5219-.2582-.532-.3871-.0091-.1309,1.186.2773,1.6401.4281.4558.1499,1.6109.1962,1.9179-.142.3069-.3371.4039-.6289.3529-.8059-.051-.1792-.4641.116-1.1299-.0011-.6639-.1187-1.446-.52-1.8202-.8949-.377-.3718-.8878-1.042-.8629-1.637.0209-.592.3739-1.2441.7611-1.2969.3918-.0523,1.0479.2797,1.3088.5408.2591.26.8331.877.9261.956.085.0819.9142-.2491,1.061-.3723.1479-.1231-.2469-.4779-.2259-.7239.0981-1.1159,1.0029.0901,1.387.1951v-.0002Z" fill="#38a94b" fill-rule="evenodd" stroke-width="0"/><path d="M26.845,90.9653c-.0071.0669.042.398-.4101.8869-.457.4859-.508.5641-.8609.7802-.3532.2137-.3892.2797-.5332.182-.1448-.0992-.2239-.1851-.1148-.3652.1088-.1781,1.1619-1.2371,1.4139-1.406.252-.1721.3801-.18.4339-.1681.055.0122.0712.0901.0712.0901Z" fill="#38a94b" fill-rule="evenodd" stroke-width="0"/><path d="M27.7337,91.8988c-.1523.1001-.2891.006-.506-.021-.2132-.0261-.3011.019-.1372-.1971.167-.2159.1981-.5629.2191-.661.0669-.2968.6939.7049.4241.879v.0002Z" fill="#38a94b" fill-rule="evenodd" stroke-width="0"/><path d="M28.1135,91.3374c-.0791-.1309-.2682-.4059-.296-.5337-.0272-.1302-.0751-.2062.1679-.1882.246.0162,1.0641.1812,1.2682.237.1999.054.4139.1652.455.3652.0429.1991.0768.2591-.121.477-.201.2208-1.1951,1.0459-1.764,1.6979-.5711.6531-.6282.799-.8141.8542-.1828.0569-.4621-.087-.542-.1891-.0799-.105-.8391.002-.8549.099-.0151.116.2259.3971.4359.4462.2089.0478.407-.0202.5751-.0241.1448-.002.4859-.068.3089.161-.1361.18-.417.3058-.6661.4079-.252.1072-.781.2219-.93-.1309-.093-.2188.0609-.555-.0788-.7481-.1072-.1061-.2342-.19-.4121-.2259-.1871-.0381-1.5191-.2099-1.421-.4509.1301-.3271.4731-.4.6899-.1499.1341.1579.2242.2042.477.159.2511-.0452,1.5619-.1052,1.6679-.2239.108-.1183-.0289-.2631.0131-.413.0431-.1521.121-.2682.1681-.2412.0431.0261.115.0452.1428-.0899.03-.136-.0618-.303-.0558-.4292.0029-.1269.0768-.2398.1381-.2319.057.008.1879.097.2188.2939.0332.1971-.0369.2429-.046.5171-.0091.275-.0241.4281.106.4841.131.0569.161.0498.3438-.151.18-.2011.4481-.295.769-.5851.3231-.2879,1.1072-.749,1.2711-.9368.165-.1931.1459-.244-.032-.2671-.18-.0233-.9918.019-1.0781.0419-.0839.0239-.1049-.0312-.1049-.0312l.0002-.0002Z" fill="#38a94b" fill-rule="evenodd" stroke-width="0"/><path d="M33.5258,93.6255c.0808-.105.1119-.8329.0578-.8849-.055-.0498-.354.1132-.6868.3151-.1459.0879-.3042.1769-.4261.2939-.362.3439-.1392.264.417.3371.5559.0698.5471.0618.6381-.0611ZM30.8196,93.2685c.5111.097.7283.26.8791.1599.1452-.1019,1.6721-1.329,1.9792-1.1469.3069.182.4989,1.5159.32,1.8569-.1772.3371-.1871.4039-.5731.4281-.3849.0241-1.6279-.4699-1.7779-.3991-.1492.0711-1.897,1.9313-2.1469,2.3621-.133.229-.3869.5412-.62.815-.2132.244-.4062.462-.5751.487-.1279.021-.2698.0691-.366-.0199-.1641-.1621-.1962-.502-.212-.8081-.0241-.464.0541-.5089.019-.6599-.028-.1172-.1641-.0142-.432-.149-.3651-.1829-.6151-.2999-.4079-.4301.207-.1329.5349-.1958.7599-.235.1119-.0199.1389,0,.1828-.0361.0751-.066.1183-.2199.2092-.421.068-.1539.1148-.2421.171-.167.055.0749-.0309.483-.0158.5479.0158.0649.1369.006.2948-.0328.1562-.0372.2381-.0122.326-.147.0822-.132.0791-.2011-.0087-.3929-.087-.1922-.0952-.186-.1341-.2432-.0431-.0589.1459-.1991.2948-.0709.1492.1289.3121.3058.322.5191.0062.2139.0332.3581-.0658.5519-.0992.1951-.2231.3971-.3832.4341-.1588.0381-.2928-.0009-.4297.0609-.1332.0611-.2182-.0549-.2222.1081.004.1621.019.2912.091.3643.0712.0689.1072.1499.2322.0029.121-.1439.7019-.7169.8371-.9239.1369-.2082,1.5038-1.4581,1.51-1.606.0029-.1439-.989-.4352-1.182-.5439-.195-.1112-.4932-.2671-.64-.405-.483-.46,1.603.1081,1.7649.14l-.0003-.0002Z" fill="#38a94b" fill-rule="evenodd" stroke-width="0"/><path d="M39.1233,94.5923c-.173.275.0158.1289-.5499.3909-.568.2611-1.307.2159-1.5052.254-.1979.0372-.2308.0381-.1548.2301.072.1931.2058.4569.131.6199-.076.161-.205.316-.5602.413-.2239.062-.805.1369-.6271.5171.0861.1809.072.186.108.4341.0351.248.0111.3501.1452.2861.1341-.0629.5539-.345.7419-.4332.1922-.089.3663-.1789.447-.1448.085.0368.1421.0419.03.2398-.1108.1991-.2489.4141-.629.714-.383.299-1.171.8061-1.4301,1.034-.26.2239-1.6679.9241-2.1327.9372-.4699.014-.6369-.6269-.3022-1.0123.3351-.3858.525-.5388,1.1132-.8079.5871-.2691,1.0979-.3399,1.2129-.6721.1159-.334.0431-.32-.0249-.625-.0629-.3069-.0351-.3379.0978-.5129.1341-.1761.6622-.2861.8521-.481.1871-.1951.3371-.3601.3011-.543-.034-.184-.083-.5308-.0091-.712.076-.1789.324-.2409.6329-.3818.3062-.14,1.851-.394,2.0151-.4019.4499-.0221.2749.39.097.6579v-.0002Z" fill="#38a94b" fill-rule="evenodd" stroke-width="0"/><path d="M40.1342,96.946c-.18-.0822-.9641-.3521-1.0312-.4901-.0638-.1408-.0638-.266.106-.2711.3441-.0091,1.4391-.0791,2.463-.076.934.0051,1.8131.06,2.0072.4099.1338.2361.216.3021.076.3291-.1401.0301-1.5171-.1459-1.8921-.0751-.3699.074-.7592-.0419-.815.1242-.055.163.1069.157.3929.266.2831.1072.608.1329.663.4121.051.279.1432.5718-.1459.4879-.286-.0859-1.0639-.425-1.129-.477-.0629-.0538-1.1208,1.7251-1.1449,1.9962-.0229.2731.1492.3521.0241.5609-.1281.2082-.538.227-.7979.471-.2602.2418-.411.2088-.1781.4341.2268.2228,1.006.266,1.0888.4679.0783.2037-.1808.559-.622.51-.4399-.0509-1.1749-.3251-1.359-.553-.1851-.2259-.2151-.4332-.0031-.667.2171-.235.7552-.4992.813-.6983.057-.1991-.2188-.4259-.2319-.6777-.012-.252.1579-.297.3739-.2912.2132.008.2891.1172.3691,0,.0811-.1152.3889-.632.483-.9328.0918-.3003.2191-.3441.076-.3683-.1428-.029-.443.2711-.7149.3231-.2702.0518-.4802.0388-.6781-.083-.2999-.1851-.612-.8588-.0601-.751.282.0518.9221.1781,1.2391.1479s.4269.008.6009-.2048c.2551-.312.2911-.2002.0272-.324v-.0002Z" fill="#38a94b" fill-rule="evenodd" stroke-width="0"/><path d="M90.9925,88.8542c.0819-.0921.106-.3351.2429-.4881.0431-.0469.1781.0392.235.0921.0269.025.057.0498.085.078.1939.173.028.7109-.1009.8511-.0193.023-.0391.0452-.0581.0669-.1579.1752-.559.477-.705.345-.03-.0257-.0581-.0498-.085-.078.1041-.244.207-.487.3102-.729-.0091-.0089-.0131-.021-.0221-.0297.0349-.0361.068-.0711.0981-.1081v-.0002ZM87.0974,84.5553c-.1361-.0412-.0431-.066-.0241-.2321.0122-.1152.0031-.1539.0151-.27.0091-.1269-.028-.1581.0151-.2912.038-.1152.091-.1789.0332-.2711.0638-.0709.127-.1448.1948-.2168.1741.1559.4532,1.0258.3901,1.0971-.0709.078-.4899.105-.5519.173-.044.0498-.0601.097-.117.1318-.0198.0111-.0558-.021-.044-.0388.0241-.0432.046-.0509.089-.0819h-.0002ZM85.8414,86.4131c.0269-.1761-.201-.621-.1199-.6978.0499.01.078.0768.1259.1231.0641.0598.1432.1081.1519.1781.0241.0569.0062.0709.0553.116.0507.0458.1009.091.1519.138.1639.1459.58.248.703.355.133.1222.1049.165.1369.2841-.0499.07-.1009.1428-.1539.2159-.1721.0412-.5891-.0348-.79-.0518-.057-.0051-.133-.0151-.201-.0463-.091-.0447-.1459-.1519-.2361-.227-.1119-.0888-.2398-.1141-.3078-.239-.0151-.0348.019-.07.0518-.105.0451-.0529.3461-.0221.432-.0432v-.0002ZM86.6005,83.5611c-.0171.0221-.0391.0432-.0561.064-.0261.0261-.4301.2148-.502.2948-.046.0509-.0409.161.0091.2062.008.0071.0151.0131.0241.019.1009.0921.4759-.1191.578-.029.125.1132.133,1.073.121,1.152-.1432.136-.1432-.023-.3192-.1408-.1519-.1021-.1939-.0771-.3589-.1601-.1221-.062-.5751-.1112-.6871-.0839-.0209.0368-.03.0609-.0518.1001-.0071.0388.0131.1227.1338.1227.0621,0,.1183.074.1831.1249.066.0529.1281.1249.2061.1843.1069.078.237.1377.3469.2219.091.0709.1579.163.246.229.0447.0361.11.0518.1519.0879.1219.093.2109.1971.29.2571.0751.0589.1049.1218.121.1269.1001.0388.2259.0341.3289.0509.085-.0972.1542-.18.2393-.2753-.0241-.0879-.0062-.1599-.0431-.2068-.0881-.1152-.292-.163-.4249-.4719-.03-.066-.0451-.1539-.0822-.2168-.04-.0751-.1029-.1431-.1239-.2119-.032-.087-.006-.1721.0641-.2671.2608.2259.7508.1639.7959.2068.131.1191-.0941.873.055,1.0309.2219-.2449.3309-.9729.3691-1.2379.0349-.0432.0709-.0861.1088-.1309.002-.0252.002-.0549.002-.0822-.019-.0171-.0131-.0348-.0269-.0518-.04-.0399-.1159-.0751-.1401-.1132-.0609-.0919-.0329-.155-.04-.237-.0151-.18-.0692-.425-.0791-.514-.012-.1041.0819-.0202.095-.0202.066-.004.0111-.0518.1041.0412.1241.1269-.038.51.0712.6068.193-.184.1999-.5689.2188-.5911.019-.0219.0371-.0427.0589-.0638.0731.031.1341.2097.1792.3889.0451.167.0791.3291.0451.3641-.0122.014-.0233.0301-.0351.0432-.0771.0839-.1492.014-.2319-.0091-.0091.0549-.0209.1121-.0312.167.042.0392.0861.0791.1321.1178-.1219.4801-.6089,1.371-.8359,1.9021-.1131.2702-.6551,1.8341-.7061,1.9012-.0709-.0791-.1421-.161-.216-.2401-.1159-.103-.2319-.2088-.3458-.3109-.0171.014,0,.0538-.0031.1127,0,.0332-.0202.07-.0202.1121,0,.0529.0411.1123.0431.1792.006.0879-.0138.186-.008.2888.0471.551.175,1.2461.2999,1.3573.108.0939.4779.0788.5771-.0312.2019-.2208.199-.9467.26-1.2109.097-.425.1851-.799.282-1.214.034-.1459.1459-.4578.2129-.6108.0791-.184.1681-.431.2132-.6088.0828-.3231.3509-.9162.5309-1.2572.0689-.0151.1369-.0281.2089-.0432.2571-.4739.1641-.2398.1361-.6901-.0151-.2418.195-.4719.3699-.6599.068.258-.3249,1.662-.3549,2.0848-.0269.3481-.091.6932-.1601,1.0431-.0409.2088-.1038.341-.1439.5251-.0249.116-.0629.4799-.091.543.1781.1559.4641.1349.6352-.0554.1468-.1588.2857-.7239.4289-.912.2021.2133.1701.978.392,1.1801.0589.0498.0589.0432.1069.0538.0071.0281.036.0261.0332.0631-.0202.1931-.1942.5559-.324.6971-.028.2011-.28.6608-.457.8787-.0403.0822-.0783.163-.1221.244.0791.0881.1581.1732.237.26.3722.4221,1.7651-.2108,2.177-.6699.074-.0799.1432-.1581.2171-.2381.1519-.1679.258-.5297.2639-.6958.0031-.1249-.1859-.57-.296-.6681-.2231-.2037-.6681-.3667-.68-.3778-.0091-.006-.0158-.0131-.0249-.019-.0989-.093.0899-.5811.1369-.7089.0491-.1302-.0538-.63-.155-.7231-.1128.1891-.2279.3738-.3398.5609-.0031.0352-.006.0691-.0091.1041-.2231.246-.1831.4628-.3418.638-.0062.0069-.0111.0151-.0162.0219-.046.0489-.074.0509-.1259.0051-.11-.1001-.1372-1.538-.2742-1.6592-.0329-.027-.0689-.0529-.106-.0808-.0538-.002-.1088-.0071-.1639-.0102-.0221.0233-.0391.0443-.0601.066-.019.021-.2259.1012-.29.1761-.0921.136-.1851.275-.276.4121-.0431-.161.1119-.6741.1581-.875.0847-.396.1757-.51.3609-.9091.193-.4099.7639-1.4982.4301-1.8-.01-.006-.0158-.014-.0249-.019-.159-.1451-.566.0171-.7121.1809-.0581.056-.1131.1112-.167.1661-.1241.1891-.2491.3763-.373.5649-.4819-.4329-.5791-2.4061-.7572-2.566-.171-.1559-.457.159-.6207.3422-.0221.0219-.04.0438-.0621.0649-.0538.064-.1452.3359-.167.3601-.0241.029-.0522.0578-.0791.087.1092.078.1831-.021.3291-.058.028-.0301.053-.0589.078-.087.0621-.0151.0791.0011.1219-.0469.0391-.0438.0791-.087.1201-.1298.0808.0919.163.5388.1839.6719.0249.1373.214.6309.1519.6952-.0178.021-.0369.0432-.0561.0651-.0867-.0312-.2268.0749-.3018.1599-.0209.0221-.04.0432-.0589.0649-.0819-.1198-.078-.188-.2239-.318-.0151-.0128-.03-.0257-.042-.0399-.0861-.0749-.3382-.0578-.4383.0782-.089.1309-.1737.262-.258.3918-.1369-.142-.1069-.5288-.2219-.6278-.0221-.0221-.044-.0399-.066-.06-.0709-.0629-.2849.0131-.328.0589-.0111.0142-.0261.0292-.0389.0412-.0403.0432.1588.667.203.735l-.0003-.0002Z" fill="#38a94b" fill-rule="evenodd" stroke-width="0"/><path d="M94.1429,76.2956c.195-.3322.2429-1.0411.3798-1.2612.034-.0558.07-.1121.1032-.169.0709-.1152.1619-.1001.2458-.1792.3469.2551.4031.8849.4731,1.2461.0499.2828.057,1.0931.1492,1.3011.0429-.0842.0499-.547.0938-1.0242.0209-.2279.0811-.4668.1032-.654.0178-.2099-.053-.2781.0309-.4119.053-.0881.1088-.1772.163-.2651.036-.0609.1159-.054.1859-.0842.5511.8601.7081,1.8332,1.0681,2.7509.1001.2631.1848.4161.252.6989.0629.2872.0791.4281.125.7109.0609.3712-.0589,1.133-.3391,1.5801-.0142-.01-.0289-.0199-.044-.029-.0151.023-.0312.0489-.0462.0711-.0518-.0443-.0998-.089-.1499-.132-.03-.673-.193-1.3699-.271-2.05-.0389-.3461-.1361-.6591-.2168-.9981-.019-.0729-.0561-.266-.119-.4438-.038-.1061-.095-.1911-.1281-.2872-.0447-.1147-.07-.2128-.1041-.25-.127.807-.006,1.2833-.0609,1.9831-.0451.0629-.1041.1309-.1639.1812-.0541.0447-.151.0427-.1721.1141-.0751-.0281-.1472-.1411-.25-.223-.083-.0649-.1859-.0981-.2611-.153-.1499-.083.0142-.5678.006-.7089-.012-.2099-.068-.4569-.108-.6741-.032-.1971-.237-1.226-.3249-1.3219-.042.1329-.036.2228-.1369.3818-.1483.2432-.288.2471-.483.3003l-.0002.0002ZM98.3209,78.3164c.1279.0791.256.157.383.237.2611.161.6999.002.8668-.266.0612-.101.244-.471.292-.582.106-.2421.1281-.4549.2671-.7009.1183-.2048.1562-.5182.2682-.6989-.01-.153.1741-.6389.214-.8331.0409-.1891.0409-.6378-.1341-.7481-.034-.023-.068-.0427-.1021-.0658-.171.0839-.343.1679-.5159.252-.0221.0388-.0491.0799-.0731.1187-.0447-.004-.5958.1661-.6928.1982-.2413.0729-.568-.054-.729.1681.4561.1539.912.3078,1.3668.4609-.0029.01-.006.021-.0087.0328-.0272.4081-.2922,1.4373-.5771,1.8961-.129-.0609-.256-.1218-.3869-.1831-.3042-.2248-.608-.4518-.908-.677-.1381-.083-.2742-.165-.411-.2469-.0822-.021-.3382-.0162-.3901.0839.083.004.068.0452.1041.1249.0938.2128.324.555.423.677.1361.1721.542.6243.7441.7521l-.0002.0002ZM93.6228,74.1464c.0451-.2731.1879-.5231.3109-.7687.0502-.1032.1241-.1922.1902-.2852.1499-.2401.4597-.4491.7149-.2908.0249.0148.046.029.0709.0447.157.095.3042.322.3422.4542.0799.2509.044.3089.093.5131.0289.1459.2251.9257.1599,1.0309-.004.008-.0087.0159-.0147.023-.0482.078-.03.006-.1221.0919-.212-.1588-.4159-1.323-.703-1.501-.008-.0049-.0158-.0089-.0229-.0151-.1459-.0879-.271-.099-.362.0432-.0249.0399-.0479.0799-.0731.1211-.182.297-.3498.9171-.3438,1.17.006.4062.0609.6661.095,1.0459.036.3794.008.7009.1259,1.061.1021.2963.25.7113.233,1.0152-.1768.0799-.298.2139-.5168.0819-.0901-.0549-.1681-.1269-.2571-.1809-.155-.095-.3739-.9432-.629-1.4891-.087-.194-.1851-.3461-.286-.411.0431-.0478.095-.076.18-.107.0518,0,.066-.0051.1519.0467.119.0742.2282.1712.3469.2471.0652.0368.1432.083.2101.1198.042-.1408-.0369-.3692-.0309-.518.004-.0881.0218-.4542.0158-.5182-.038-.3698.0751-.7459.121-1.0249h-.0001ZM92.0997,74.6984c.0811-.1112.3711-.188.5012-.1081.0158.01.0618.0381.076.0478.4301.2651.4961.489.6231.7042.1528-.153.0278-.5942.0429-.7802.0292-.1141.0561-.227.0822-.3399-.0451-.0912-.1341-.153-.2342-.2002-.1369-.068-.298-.0961-.4519-.0202-.1542.0711-.5241.2381-.6271.4062-.0182.0328-.0391.0649-.0589.0939-.0422.0691.0171.1309.0467.1962v.0002ZM91.4469,80.8153c-.0221.0321-.0411.064-.0621.097.1871.1081.343-.0151.4499-.188.3402-.5499.2251-.9341.0981-1.3799-.095-.326-.451-.9489-.3529-1.2749.1479.0981.161.2017.3391.312.0158.0089.0329.019.0499.029.3861.239.5982.0729.7572.171.0087.004.019.01.0269.0151.195.1211.536.634.5898.892.0102.0381.0261.089-.0087.1001-.04-.0213-.083-.0443-.125-.066-.1732-.1309-.343-.2662-.517-.398-.169-.132-.616-.258-.7631-.2722-.0209.031-.04.064-.0601.095.1131.0691.2251.138.3371.2073.165.1036.4261.3718.5332.4938.072.0811.1539.169.2117.258.0612.0972.1741.1521.2611.246.0881.0921.2381.1991.383.343.2432.2409.508.5333.7061.654.0371.085.629.646.749.7301.0842.0618.1752.0979.218.1369.085.07.091.1238.201.2159.0451.0381.1523.0791.2101.1329.1001.093.1581.2011.197.225.055.0348.11.07.1661.103.0229.0131.3509-.002.5281.0469.3699.1061.2188-.101.5128-.002.0229-.0469.0431-.093.0672-.138-.0292-.1041-.0612-.2068-.091-.3098-.072-.0452-.1459-.089-.2151-.134-.1828-.396-1.107-.9819-1.6481-1.319-.3538-.219-.6089-.407-.9499-.6179-.2342-.149-.6278-.384-.7959-.551-.04-.0392-.0312-.0981-.028-.1439.0249-.0569.0921-.0122.1041-.0589.0151-.0569-.006-.1152-.0091-.18-.0029-.0452.019-.074.0151-.1203-.002-.068-.0269-.1508-.0241-.2139.0062-.1907.028-.4679-.1737-.5951-.2891-.1781-.8702.0292-.9522-.0219-.0138-.0122-.0329-.0202-.0479-.0301-.1492-.093-.314-.5359-.432-.7219-.0839-.1302-.1281-.2279-.203-.3632-.032-.0529-.1472-.3969-.1472-.3988-.237-.142-.423-.023-.5871.14.0102.2188.131.2691.193.4478.0391.1141.032.3481.0391.485.008.3399.0238.6369.0138.9819-.006.2731.0371.6932.078.9691.0171.1249.1871.9219.1581.9709Z" fill="#38a94b" fill-rule="evenodd" stroke-width="0"/><path d="M80.6994,92.5111c.2432.0031.4861.0051.727.0071.1721-.171.3461-.343.5199-.514.0142.1978.0241.3969.0351.5951-.0111,0-.0229.0009-.038.002.085.116.1659.231.2548.3479.0541.0771.0763.083.1312.1313.0087.1809-.0403.1459-.0791.2948-.0491.182.066.1882-.0162.3049-.1697-.2359-.6509-.7129-.8379-.8158-.5539-.3041-.4479-.1661-.951-.2841.1261.2899.4822.9709.7219,1.2929.2322.235.8391.7702,1.1001.58.0091-.004.0151-.01.0249-.0171.0859-.0609-.0031-.1081.1681-.237-.0312-.1479-.0632-.297-.0921-.4451-.012.0031-.0241.0062-.036.0062.0241-.0611.2041-.3402.2619-.3729.121-.076.2432-.1521.3643-.229.207-.0071.5547-.2133.785-.3789.106-.076.0538-.343-.036-.4679-.0111-.0162-.0229-.0332-.038-.0489-.1241-.1741-.6681.072-.7219-.006-.0561-.0751.0409-.9301.0471-1.0922.004-.1459-.0031-.4219-.036-.5539-.0151-.0609-.1372-.557-.1463-.5729-.1389-.1911-.6349-.0352-.8569.1269-.068.002-.083-.019-.1369.0219-.1321.095-.0241.1242-.119.303-.167.322-.4561.7959-.4799.8542-.085.2017-.1499.3581-.2651.5729-.0731.1353-.1119.4341-.2551.5951v-.0002ZM76.5566,92.7722c.1021.1329.22.248.318.3809.1548-.06.2758.064.4249-.0432.0641-.0447.125-.3849.1128-.4648-.0298-.1559-.0819-.355.0791-.471.0229-.0171.0479-.0348.0751-.0538.0649-.0469.3589-.0281.411.0438.006.008.012.0162.0178.0261.0981.1191.0712.5049.0332.8909-.03.322-.0581.642-.117.7999-.0229.0529.0261.1032.0389.1231.0272-.0159.051-.0348.0763-.0529.1468-.105.3458-.9799.4099-1.1848.032-.0941.1341-.3849.235-.6511.0899-.2418.1879-.464.155-.5089-.006-.006-.0411-.0529-.0471-.0589-.1401-.1931-.432-.4181-.6389-.2711-.1421.101-.3512.2279-.489.3388-.1372.1123-.2671.2281-.394.3512-.125-.1249-.252-.25-.381-.3729-.106-.0392-.1891-.099-.3082-.1439-.214-.0799-.1899.1001-.3169-.0458-.053-.0261-.0961.019-.0771.0538.2639.3601.085.9051.3821,1.315v-.0004ZM77.4646,97.5092c.1919.1021.288.169.4859.411.1452.1369.377.254.5531.1269.0731-.0529.1981-.303.2531-.398.1148-.2022.051-.2742.119-.4201.0808-.19.269-.6679.1568-.8537.0233-.0171.0491-.0372.0731-.054.0641-.0452.161-1.5278.383-1.7189-.0601-.1411-.006-.1579.1401-.262.1041.1468.161,1.3518.199,1.6109.0329.248.0391,1.5121.117,1.625-.0332.0239-.0672.0467-.0989.072.0467.1278-.0122.6108-.0712.9658-.0131.0822.006.132-.01.1971-.019.0802-.0751.1391-.093.1772.0491.0419.093.085.1389.1258-.0178.0392-.072.1072-.046.1459.0649.0901.1199.0292.2081-.0381.0369.0011.0729.0011.1088.0011.3351-.3849.508-1.0451.578-1.4891.04-.2631.034-.512-.0209-.7939-.0241-.1289-.1401-.739-.1131-.809.2373.1278.1372.2421.5751.4039.2188.0819.4139.0771.629.0961.012-.0352.0209-.0691.0329-.1041.0672-.0031.0802.0171.1372-.023.0258-.0171.0499-.0352.0729-.054.108-.0768-.002-.3169-.085-.4321-.28-.3838-1.395-.1958-1.457-.2757-.125-.1721-.294-1.9741-.445-2.1813-.019-.0239-.038-.0487-.057-.074-.1049-.1459-.449.07-.5519.1752-.11.1101-.11.1468-.1559.2611-.0601.1397-.1421.1958-.1781.2797-.055.1203,0,.078-.1201.2662-.106.1619-.0658.1679-.1259.2861-.0819.167-.2231.3898-.2871.5479-.0538.1107-.0788.2159-.1338.328-.0241.0469-.0692.1021-.091.1479-.1001.2133-.1942.4321-.271.6511-.0992.256-.2971.8878-.5491,1.0789v.0002Z" fill="#38a94b" fill-rule="evenodd" stroke-width="0"/><path d="M69.7335,95.1256c-.0127-.029.0272-.1282.1131-.227.0601-.0689.155-.1081.246-.1931.3529-.334.845-.7751,1.0041-.844.1369-.058.2019-.027.3458-.0859.04.0549.0561.0507.085.1238l.0692.163c.0329.0751-.4011.7461-.4561.8829-.0941.239-.2631.6701-.3909.8829-.153.264-.5442,1.625-.413,1.94.0269.062.051.074.1148.0458.1341-.0558,1.0942-1.3321,1.2521-1.5349.29-.3698.8611-1.2481,1.3661-1.4649l.0269-.012c.1341-.0574.4081-.0202.4692.1198l.0218.0549c.0431.1081-.3229.5408-.396.654-.0799.1218-.3289.568-.4107.6289l.0298-.33-.2789.328.0202.0689c-.1891.1391-.6531.7981-.83,1.0249-.2202.2812-.538.824-.9209.9881-.1732.0749-.2922.105-.413.025-.0861-.058-.3002-.1269-.3282-.1871l-.0799-.192c-.237-.5601.7481-2.3379.688-2.7791-.0819.0443-.085.068-.18.1092l-.0819.0361c-.0791.0348-.6298-.1262-.6721-.227l-.0002.0007ZM73.0755,100.4536l.0142.0589.1018.2139.1183.303.0879.188-.332.2068c-.0609-.0109-.0689-.0328-.1301-.008l-.8189.3481-.2299.163.396.0301-.004.0328.0819-.0348c.0609-.025.0669-.0031.131.0009l.2531-.0438.5479.1152.6469-.056.483-.2299c.0669-.1061.1851-.3149.1221-.4699l-.028-.0523-.6231-1.1841c-.296-.239-1.0919-2.0549-1.307-2.562l-.125-.299-.028.0213-.1479-.2062-.0518.025c.0578.182-.0111.52.0389.8079.0462.295.0652.559.161.8781.18.6159.4541,1.313.642,1.7531h-.0001ZM67.0606,98.3775c.046.1032.161.0842.286.1882.1428.1227.161.078.3189.0979.193.0281.4688.1262.572.3658.354.8431-.131,1.711-.578,2.3302-.2982.4181-.5942.7171-.5531.8411l.117-.091.0467.1101c.322-.171.8362-.8119.9241-.8511l.0861-.0352c.0589-.0257.0879-.0171.1119.0469l.0127.0272c.0091.0219.1123.5187.1183.5698.0429.2682.03.2662.197.5439.1128.1862.5618.795.745.716.1891-.0808.3469-.3328.377-.483.0389-.1971-.0881-.4407-.1159-.6797-.0471-.3931.0068-.9412-.1701-1.358l-.0329-.0171-.2452.4921c-.1199-.1041-.044-.1313-.22-.2412-.07-.0458-.201-.1439-.2401-.2378l-.0218-.054c-.055-.1211.3798-1.0701.153-1.6129-.1281-.301-.57-.5348-.7971-.644-.341-.159-.8671-.0381-1.0041-.1282.0491-.262.2619-.489.4751-.6887.175-.165.4459-.4801.5578-.6821.2891-.5211.7061-.892.3849-1.658-.2648.239-.6398.65-.9429,1.158-.32.5342-.5751,1.133-.5902,1.5938-.0029.1373-.019.275.0272.3809h.0002Z" fill="#38a94b" fill-rule="evenodd" stroke-width="0"/><path d="M54.77,18.0846c10.2716,0,19.5579,4.223,26.2216,11.025-4.5102,4.7064-18.0283,10.08-31.449,14.547l.0918-.2234c7.4738-15.9179,13.288-17.207,13.288-17.207h-9.817l-.3127.2285c-5.7631,4.0265-11.7431,19.8954-11.7547,19.9265-.8889.2746-1.7682.5435-2.6351.8061l.0493-.151c5.6976-15.7121,11.573-20.8061,11.573-20.8061h-5.1251l-.4873.5463c-7.2607,7.287-11.7474,22.0679-11.7623,22.1173-7.0835,2.0589-12.6269,3.517-14.5421,4.013.9825-19.3938,17.0237-34.8225,36.6613-34.8225l.0003.0002ZM83.3087,31.7095c5.1086,6.3064,8.1705,14.338,8.1705,23.0842,0,20.2704-16.439,36.7093-36.7092,36.7093-18.1007,0-33.145-13.1089-36.1585-30.3482,4.4158-1.6078,8.5317-3.1385,12.3687-4.595-1.7731,14.1914,8.6777,12.325,8.6777,12.325-9.0513-2.7445-3.6867-14.2379-3.6867-14.2379.8422-.326,1.6693-.648,2.482-.966l-.1437.4062c-4.2681,10.2322.5822,13.019.5822,13.019,6.3751,3.4634,9.2591-3.9251,9.2591-3.9251,3.0135-6.9584,8.8708-9.9111,8.8708-9.9111,13.0748-7.4522,9.7986,1.7147,9.7986,1.7147-2.0106,6.2424-13.7146,23.9904-13.7146,23.9904,8.2659-2.7868,18.1298-16.309,18.1298-16.309,10.1435-12.6587,3.8588-17.0413,3.8588-17.0413-7.5478-3.773-27.1715,9.9762-27.1715,9.9762-3.6456,2.4123-1.178-5.14-1.178-5.14l.0445-.1081c31.5522-12.8673,36.0998-18.0842,36.5195-18.6436v.0002Z" fill="#38a94b" fill-rule="evenodd" stroke-width="0"/></g></g></g></svg>