<svg width="890" height="889" viewBox="0 0 890 889" fill="none" xmlns="http://www.w3.org/2000/svg">
<path fill-rule="evenodd" clip-rule="evenodd" d="M445.394 205.297C577.679 205.297 684.914 312.53 684.914 444.809C684.914 577.09 577.679 684.322 445.394 684.322C313.111 684.322 205.875 577.09 205.875 444.809C205.893 312.538 313.119 205.315 445.394 205.297ZM445.394 215.177C318.513 215.159 215.641 317.998 215.623 444.875C215.605 571.751 318.447 674.62 445.329 674.64C572.209 674.66 675.08 571.817 675.1 444.941C675.1 444.931 675.1 444.918 675.1 444.908C675.136 318.013 572.294 215.114 445.394 215.078V215.177Z" fill="#004D65"/>
<path fill-rule="evenodd" clip-rule="evenodd" d="M445.395 34.3516C672.093 34.3516 855.868 218.121 855.868 444.812C855.868 671.504 672.093 855.273 445.395 855.273C218.697 855.273 34.9219 671.504 34.9219 444.812C34.9584 218.136 218.712 34.3881 445.395 34.3516ZM445.065 44.0664C223.897 44.0664 44.6041 223.354 44.6041 444.516C44.6041 665.679 223.897 844.966 445.065 844.966C666.235 844.966 845.528 665.679 845.528 444.516C845.528 444.506 845.528 444.493 845.528 444.483C845.491 223.341 666.215 44.0845 445.065 44.0664Z" fill="#004D65"/>
<path fill-rule="evenodd" clip-rule="evenodd" d="M445.393 254.602C543.082 254.638 624.949 328.484 635.02 425.649H462.98V386.559H585.127C552.833 309.38 464.083 272.993 386.901 305.287C350.185 320.649 320.99 349.844 305.627 386.559H427.775V425.649H255.734C265.807 328.471 347.692 254.621 445.393 254.602ZM305.627 503.862H427.775V464.772H255.734C265.116 555.301 337.151 626.589 427.775 635.029V595.708C373.485 589.333 326.825 554.244 305.627 503.862ZM462.98 503.862H585.127C563.929 554.244 517.269 589.333 462.98 595.708V635.029C553.603 626.589 625.637 555.301 635.02 464.772H462.98V503.862Z" fill="#004D65"/>
<path fill-rule="evenodd" clip-rule="evenodd" d="M427.778 327.906V562.478H402.288V562.511H369.125V547.857V542.95H388.687V533.169H369.125V518.515V513.641H388.687V376.777H369.125V371.903V357.215H388.687V347.467H369.125V342.561V327.906H388.687H402.288H427.778Z" fill="#004D65"/>
<path fill-rule="evenodd" clip-rule="evenodd" d="M462.977 327.906V562.478H482.538V562.511H521.629V547.857V542.95H502.068V533.169H521.629V518.515V513.641H502.068V376.777H521.629V371.903V357.215H502.068V347.467H521.629V342.561V327.906H502.068H482.538H462.977Z" fill="#004D65"/>
<path fill-rule="evenodd" clip-rule="evenodd" d="M260.905 167.689C260.312 167.953 259.95 168.381 259.16 168.414C257.052 168.216 254.187 165.977 252.936 168.414C252.522 169.194 252.439 170.107 252.705 170.949C253.483 172.469 253.964 174.123 254.121 175.823C254.121 176.91 254.121 178.063 254.121 179.116C254.121 180.17 253.891 180.598 254.813 181.488C256.591 183.167 256.887 182.673 259.127 180.104C260.609 178.178 262.192 176.331 263.869 174.572C263.869 174.275 266.339 171.674 270.786 166.405C273.288 163.902 274.342 160.312 277.108 158.106C278.757 157.021 280.603 156.271 282.542 155.9C284.32 155.9 287.087 155.439 287.778 157.48C287.96 157.971 288.24 158.42 288.602 158.798C289.458 161.597 277.932 173.617 275.725 173.782C274.314 173.437 272.823 173.662 271.576 174.407C270.292 175.79 269.007 177.009 267.689 178.655C266.108 181.949 261.86 183.99 261.399 188.14C259.95 189.951 262.486 190.017 263.836 190.149L264.692 190.544C266.552 190.813 268.275 191.68 269.6 193.014C271.773 196.998 270.621 200.621 271.938 204.803C271.938 204.803 271.938 204.803 272.531 205.363C275.824 206.219 276.285 206.219 277.8 206.614C278.524 207.108 280.566 207.635 281.324 209.71C281.324 212.312 280.467 213.003 278.426 214.288C277.043 215.078 273.749 216.296 273.091 217.317C272.63 219.425 272.267 221.5 271.181 226.406C270.357 230.128 269.402 237.043 267.491 243.432C266.56 246.89 264.985 250.142 262.848 253.015C260.47 256.321 257.643 259.28 254.45 261.808C250.169 264.377 251.157 263.52 249.445 264.508C246.909 266.023 242.496 267.044 240.553 264.179C238.05 260.425 242.694 257.593 246.679 257.362C255.504 256.605 259.028 247.483 260.74 240.896C261.564 237.142 262.914 230.259 263.507 225.254C263.545 224.036 263.688 222.824 263.935 221.631C264.495 219.161 261.63 219.655 259.719 219.787C257.615 219.361 255.733 218.192 254.417 216.494C253.591 215.383 252.843 214.217 252.178 213.003C251.207 210.725 250.725 208.268 250.762 205.791C250.762 204.77 250.762 203.749 250.762 202.696C250.762 201.642 250.235 200.654 249.247 201.214C247.712 202.226 246.419 203.564 245.46 205.132C243.377 208.459 240.996 211.589 238.347 214.485C235.899 217.654 233.622 220.952 231.529 224.365C229.794 226.882 228.667 229.768 228.236 232.795C227.647 233.968 226.418 234.68 225.107 234.606C221.891 234.113 218.803 232.994 216.018 231.313C215.067 230.358 214.89 228.876 215.59 227.724C218.509 226.194 220.974 223.922 222.736 221.137C225.937 217.497 228.875 213.634 231.529 209.578C233.604 207.01 236.075 204.441 238.116 201.773C238.849 201.096 239.511 200.346 240.092 199.534C242.672 197.179 245.061 194.625 247.238 191.894C247.794 190.678 248.128 189.374 248.226 188.041C248.193 184.983 247.728 181.945 246.843 179.018C246.646 177.437 245.954 169.764 244.011 169.138C243.172 169.276 242.463 169.836 242.134 170.62C240.68 173.589 239.575 176.716 238.841 179.94C238.511 181.422 238.841 182.805 238.347 184.847C238.018 185.67 238.347 189.753 236.569 190.478C235.912 190.639 235.235 190.705 234.559 190.675C233.638 190.642 232.801 190.13 232.352 189.325C231.397 187.646 229.454 186.526 229.059 184.451C229.323 182.904 228.368 181.982 228.269 181.422C227.82 180 227.543 178.53 227.445 177.042C227.309 176.19 226.982 175.38 226.49 174.671C226.293 174.177 225.239 172.3 225.041 172.003C223.951 170.087 223.079 168.054 222.44 165.944C222.012 163.935 224.811 164.626 225.733 165.252C227.877 166.873 229.823 168.741 231.529 170.818C232.583 172.003 233.702 172.794 235.383 171.773C235.898 171.268 236.234 170.609 236.338 169.896C236.973 167.673 238.189 165.661 239.862 164.067C240.967 162.428 241.51 160.475 241.409 158.501C241.638 156.929 241.638 155.332 241.409 153.759C241.409 152.145 239.895 150.104 239.598 148.029C238.998 145.488 237.876 143.1 236.305 141.014C234.493 139.763 231.858 138.479 233.208 136.766C236.503 134.626 249.148 130.806 249.313 138.051C249.051 140.588 248.985 143.143 249.115 145.691C249.115 146.448 249.115 146.975 249.807 147.403C250.499 147.831 252.013 146.745 253.1 145.724C254.028 144.595 254.814 143.356 255.438 142.035C256.097 140.817 256.558 139.598 257.941 139.5C259.324 139.401 266.964 142.035 267.524 144.637C267.503 145.695 267.302 146.742 266.932 147.733C266.897 148.608 266.787 149.478 266.602 150.334C266.377 152.013 265.923 153.653 265.252 155.208C264.495 156.723 265.252 158.106 263.77 161.103C262.288 164.1 262.683 166.537 260.905 167.689ZM253.561 163.968C254.813 164.626 255.34 163.968 255.965 162.815C256.856 160.58 257.151 158.151 256.822 155.768C257.217 154.286 256.822 152.475 257.052 150.828C257.052 150.137 255.702 149.149 254.879 149.544C254.448 149.772 254.128 150.164 253.989 150.631C253.43 152.211 253.034 153.924 252.54 155.307C252.079 156.295 252.112 157.316 251.651 157.908C250.597 159.753 251.223 159.489 251.915 161.202C252.54 162.42 252.573 163.342 253.561 163.869V163.968ZM261.794 211.192C264.264 209.216 263.474 201.905 263.079 199.6C262.749 198.908 261.432 195.681 260.971 195.582C259.094 192.981 259.39 192.289 256.789 193.903C254.879 196.01 255.471 196.175 256.789 198.579C257.283 201.477 257.546 204.606 258.04 207.569C258.534 210.533 258.567 211.39 261.794 211.192Z" fill="#004D65"/>
<path fill-rule="evenodd" clip-rule="evenodd" d="M185.62 330.081C183.216 330.806 180.68 331.366 178.474 331.794C177.67 332.601 177.021 333.549 176.563 334.593C177.058 336.338 180.153 342.694 182.656 340.85C184.797 337.82 187.464 331.234 192.239 330.971C194.775 331.53 194.973 333.572 195.533 335.976C195.632 337.886 195.632 339.796 195.533 341.706C195.279 342.269 195.112 342.869 195.039 343.485C195.434 344.776 195.645 346.119 195.664 347.469C194.907 347.865 194.676 346.712 194.545 346.383C194.104 345.543 193.598 344.739 193.03 343.979C193.157 343.07 192.523 342.23 191.614 342.101C190.704 341.973 189.864 342.609 189.737 343.518C189.458 346.257 188.521 348.892 187.003 351.191C183.71 353.035 182.558 350.631 179.791 349.017C177.455 347.12 175.254 345.062 173.204 342.859C171.589 343.936 169.825 344.766 167.968 345.329C162.336 345.559 165.3 350.137 164.872 353.726C165.234 356.723 165.169 360.84 168.89 361.432H170.602C172.813 361.172 175.054 361.363 177.189 361.992C179.227 362.845 180.952 364.304 182.129 366.175L183.447 367.525C184.366 368.829 184.587 370.505 184.039 372.003C182.775 372.702 181.465 373.317 180.121 373.848C177.856 373.874 175.59 373.775 173.336 373.551C171.906 373.235 170.552 372.642 169.351 371.806C167.087 369.767 164.652 367.93 162.073 366.306C160.393 364.232 158.121 363.54 156.409 361.729C155.421 361.004 154.005 359.885 156.145 359.522C157.59 359.684 159.048 359.684 160.492 359.522C160.953 359.292 161.316 358.304 161.513 357.579C161.777 352.399 160.97 347.219 159.142 342.365C157.563 341.397 155.804 340.758 153.972 340.488C150.799 339.223 147.935 337.293 145.574 334.824C145.179 333.342 145.574 333.473 147.188 332.683C149.574 332.317 151.997 332.252 154.4 332.485L156.442 331.958C157.145 330.901 157.783 329.801 158.352 328.665C160.13 322.573 152.424 315.493 145.904 314.373C143.487 313.687 140.911 313.838 138.592 314.801C137.262 314.933 136.057 315.644 135.299 316.744C132.697 318.786 134.475 322.606 133.356 325.109C132.796 326.36 131.841 325.932 131.116 326.492C128.931 327.669 126.406 328.053 123.97 327.579C121.961 326.92 122.686 325.24 123.41 323.791C125.623 318.206 126.741 312.247 126.703 306.239C127.625 301.991 128.218 297.38 129.404 293.066C129.865 286.677 131.874 279.893 130.688 273.603C131.215 269.948 128.745 264.745 131.972 262.604C134 261.123 136.215 259.916 138.559 259.015C139.15 258.774 139.826 258.889 140.304 259.311C141.457 260.233 141.029 260.628 141.424 262.604C141.393 264.376 141.492 266.149 141.72 267.906C142.543 270.936 141.226 272.912 141.49 275.711C141.49 277.226 140.107 282.495 141.029 285.13C141.258 286.746 141.258 288.387 141.029 290.004C141.029 292.078 141.819 294.779 141.687 297.216C141.984 298.665 142.346 300.509 140.601 300.838C139.283 300.048 139.184 296.359 137.307 295.371C136.865 295.543 136.398 295.643 135.924 295.668C134.64 297.874 135.331 300.97 135.068 303.308C135.496 305.547 134.673 308.445 138.361 307.754C139.403 307.343 140.388 306.8 141.292 306.14C142.645 304.363 144.725 303.287 146.957 303.209C147.911 303.013 148.901 303.282 149.625 303.934C150.786 304.729 151.887 305.609 152.918 306.568C154.005 307.424 154.367 308.412 155.783 308.643C158.747 307.852 157.463 298.763 156.969 296.722C156.969 294.647 156.738 293.922 158.451 292.44C167.638 286.513 169.845 291.42 174.422 298.072C177.156 304.032 182.195 309.137 184.665 315.295C186.431 318.062 188.402 320.693 190.56 323.166C191.548 324.318 190.132 328.105 189.012 328.83C187.993 329.466 186.882 329.943 185.719 330.246L185.62 330.081ZM166.618 335.219C167.905 333.236 167.34 330.585 165.357 329.297C165.263 329.236 165.168 329.179 165.07 329.126C164.181 328.698 163.785 328.501 163.291 329.522C162.891 331.59 163.291 333.73 164.411 335.515C164.938 336.404 165.63 336.24 166.618 335.219ZM171.854 327.546C174.192 329.752 175.773 330.411 177.815 328.04C178.836 326.854 179.264 326.459 178.54 324.746C177.618 322.639 176.267 319.774 175.246 317.93C174.225 316.085 169.878 310.915 168.659 308.61C168.33 307.984 163.555 298.73 162.468 303.637C162.233 307.167 162.612 310.71 163.588 314.109C165.942 318.823 168.708 323.319 171.854 327.546Z" fill="#004D65"/>
<path fill-rule="evenodd" clip-rule="evenodd" d="M605.777 226.643C604.664 225.63 603.89 224.295 603.57 222.823C603.57 221.67 605.711 221.802 606.864 221.934C608.016 222.065 608.115 222.625 610.486 223.58C613.935 224.553 617.508 225.018 621.091 224.963C621.924 225 622.754 224.911 623.561 224.7C628.204 224.14 631.399 223.449 636.306 222.691C638.479 222.362 649.809 222.098 650.632 218.97C651.093 217.29 645.692 214.755 644.044 213.668C642.398 212.581 639.895 211.198 637.985 210.111C636.075 209.024 630.905 203.327 633.21 202.208C635.515 201.088 635.416 202.899 636.701 203.92C638.137 204.852 639.632 205.688 641.179 206.423C642.892 207.477 645.824 209.387 648.162 210.605C650.5 211.824 654.748 214.195 655.934 214.623C659.227 215.97 662.807 216.457 666.34 216.039C676.216 213.582 685.547 209.292 693.839 203.393C696.592 201.551 698.855 199.064 700.426 196.148C702.072 192.855 704.608 185.972 707.407 184.161C710.207 182.35 710.7 184.556 711.26 186.302C711.762 190.991 711.574 195.729 710.7 200.363C709.745 205.929 701.282 213.207 696.21 215.644C692.456 217.488 689.624 218.542 687.714 219.266C684.421 220.485 681.424 221.571 678.131 222.559C676.384 223.086 676.384 223.251 676.944 224.469C677.504 225.688 678.394 225.721 679.58 225.885C680.765 226.05 682.05 226.182 683.268 226.248C684.635 226.453 686.021 226.07 687.088 225.194C688.932 223.975 690.744 224.008 691.863 226.182C692.983 228.355 692.522 233.295 689.887 233.723C687.253 234.151 685.903 233.13 683.301 232.735C680.39 232.239 677.535 231.467 674.771 230.43C672.466 229.541 671.28 230.035 668.58 229.146C665.306 228.638 661.974 228.638 658.7 229.146C657.584 229.037 656.457 229.184 655.407 229.574C653.658 230.123 651.86 230.498 650.039 230.693C645.564 231.431 641.038 231.828 636.503 231.879C635.67 231.798 634.833 231.798 634 231.879C632.979 231.879 631.959 232.142 630.444 232.11L624.483 231.813C623.363 231.813 621.519 231.352 619.51 231.352C616.319 231.032 613.187 230.29 610.191 229.146C608.55 228.649 607.045 227.795 605.777 226.643Z" fill="#004D65"/>
<path fill-rule="evenodd" clip-rule="evenodd" d="M654.254 252.987C656.658 252.131 656.757 246.862 657.086 245.314C657.416 243.766 657.086 242.021 658.437 242.844C659.787 243.668 660.116 243.733 660.874 246.533C661.671 250.063 661.934 253.692 661.664 257.301C661.433 259.574 660.511 260.331 659.26 260.594C657.976 260.962 656.635 261.085 655.308 260.957C652.618 260.016 650.76 257.546 650.599 254.7C650.434 250.945 651.85 254.008 654.254 252.987Z" fill="#004D65"/>
<path fill-rule="evenodd" clip-rule="evenodd" d="M358.025 189.201C356.411 189.695 337.706 193.251 340.34 188.344C341.73 186.696 343.554 185.475 345.609 184.821C355.489 180.441 356.148 177.642 376.994 164.699C378.387 163.921 379.718 163.041 380.979 162.065L389.212 156.862C391.945 155.116 395.798 152.58 397.807 150.967C399.816 149.353 401.101 148.332 402.583 146.982C404.306 145.743 406.123 144.642 408.017 143.689C409.95 142.651 411.952 141.749 414.011 140.989C415.601 140.608 417.261 140.608 418.851 140.989C419.708 141.68 420.399 142.075 420.399 143.623C419.569 146.129 418.134 148.392 416.217 150.209C413.549 152.383 412.66 155.215 410.322 157.356C408.61 158.936 407.523 160.188 406.107 161.242C404.691 162.295 401.958 165.621 400.705 165.391C399.948 164.205 401.925 162.625 402.484 161.67C403.439 159.167 404.987 158.376 405.778 156.401C406.545 155.53 407.22 154.581 407.786 153.568C408.906 151.461 407.457 152.054 406.074 152.811C404.526 153.738 403.031 154.75 401.595 155.841C398.762 157.915 392.604 161.768 387.104 165.984C382.823 169.277 377.422 173.262 373.701 176.423C369.98 179.584 367.642 182.812 364.578 185.874C362.754 187.582 360.481 188.736 358.025 189.201Z" fill="#004D65"/>
<path fill-rule="evenodd" clip-rule="evenodd" d="M374.822 156.102C374.492 156.102 374.196 156.102 374.328 155.839C374.855 154.06 377.028 149.944 377.127 149.45C377.358 148.623 377.631 147.81 377.95 147.013C378.405 145.743 378.955 144.51 379.597 143.325C379.959 142.897 380.552 140.723 381.276 139.175C382.001 137.627 383.088 134.73 383.911 132.589C385.722 129.954 386.282 126.365 387.896 123.533C388.719 121.195 389.707 119.021 390.563 116.716C390.761 115.728 393.165 108.318 389.641 109.537C388.768 110.645 387.747 111.631 386.611 112.468C385.656 113.225 384.8 112.962 383.516 114.213C381.714 116.03 379.663 117.582 377.423 118.823C375.191 119.704 372.835 120.237 370.441 120.404C368.238 121.037 365.877 120.79 363.855 119.713C361.121 118.165 360.331 118.033 360.561 114.213C360.561 113.06 361.813 111.611 363.064 112.04C365.564 112.809 368.271 112.474 370.507 111.117C371.626 110.426 372.549 109.833 373.8 109.24C375.052 108.648 376.897 107.627 378.543 106.869C379.225 106.475 379.867 106.011 380.453 105.486C383.743 103.895 387.339 103.041 390.991 102.983C393.695 102.663 396.412 103.473 398.5 105.223C399.152 105.429 399.781 105.705 400.377 106.046C405.185 110.195 403.407 114.378 401.76 119.219C400.173 123.54 397.535 127.398 394.087 130.448C391.393 133.687 388.989 137.159 386.908 140.822C385.222 142.867 383.417 144.813 381.507 146.651C381.033 147.148 380.595 147.676 380.19 148.232C379.515 149.409 378.942 150.643 378.477 151.92C377.934 153.785 376.597 155.315 374.822 156.102Z" fill="#004D65"/>
<path fill-rule="evenodd" clip-rule="evenodd" d="M734.114 336.076C734.542 336.471 735.76 337.262 736.485 338.019C737.209 338.776 738.923 341.049 739.548 341.576C741.241 342.965 742.756 344.559 744.06 346.318C745.061 347.507 746.164 348.61 747.353 349.611C748.196 350.559 748.914 351.61 749.494 352.739C751.223 355.143 751.69 358.232 750.745 361.038C749.889 362.388 749.889 363.541 748.144 362.816C747.287 362.454 746.431 362.092 745.575 361.796C743.843 360.847 742.199 359.747 740.668 358.502C739.486 357.126 738.174 355.871 736.748 354.748C736.017 354.518 735.388 354.04 734.97 353.398C733.027 351.751 731.677 349.578 729.536 348.557C728.219 347.372 728.647 347.536 730.129 347.141C731.611 346.746 732.895 346.351 731.677 345.363C729.803 343.877 727.728 342.656 725.519 341.74C722.976 341.72 720.5 342.567 718.504 344.144C716.255 345.056 714.055 346.09 711.918 347.24C709.151 348.294 705.858 349.874 703.783 350.533C702.403 350.882 701.046 351.333 699.732 351.883C697.868 352.851 695.757 353.23 693.673 352.97C692.487 352.509 692.652 353.497 691.466 352.311C689.997 350.576 689.602 348.168 690.445 346.054C691.334 343.947 691.993 341.18 692.751 339.468C693.139 337.877 693.393 336.26 693.508 334.627C693.837 331.334 694.265 327.316 694.661 324.253C695.056 321.191 695.648 320.005 696.538 321.487C697.384 323.231 697.812 325.148 697.789 327.086C697.987 328.864 698.283 330.675 698.283 332.058C698.283 334.825 698.579 339.666 702.037 341.213C704.64 341.608 707.044 339.83 709.645 340.061C711.885 339.666 713.894 339.04 716.034 338.743L717.944 338.184C720.381 337.986 720.151 336.076 720.052 334.462C719.196 332.552 719.196 332.552 719.064 332.486C717.681 330.29 716.66 327.89 716.034 325.373C715.54 323.451 715.991 321.407 717.253 319.874C718.175 318.951 718.735 319.874 719.69 320.532C720.753 321.408 721.725 322.39 722.588 323.463C724.649 326.077 726.918 328.522 729.372 330.774C730.689 331.927 731.117 332.552 731.743 332.98C732.961 334.1 733.159 335.121 734.114 336.076Z" fill="#004D65"/>
<path fill-rule="evenodd" clip-rule="evenodd" d="M705.064 295.333C705.064 293.127 704.603 289.966 706.315 288.747C708.654 287.166 710.465 288.945 711.914 290.624C713.397 293.094 715.208 295.729 716.92 298.133C719.39 300.965 721.827 303.863 724.528 306.761C727.228 309.659 730.159 312.129 733.09 314.796C738.622 318.715 742.607 324.05 748.635 327.969C750.808 330.208 756.242 334.16 757.493 336.762C758.804 338.892 759.772 341.214 760.358 343.644C760.556 345.752 759.733 346.937 757.823 346.937C755.912 346.937 755.682 346.378 754.529 346.114C753.377 345.851 754.101 345.126 753.278 345.06C752.455 344.994 751.631 345.554 751.006 344.764C750.38 343.974 748.536 343.677 748.042 342.689C747.581 341.141 746.889 341.701 745.901 340.68C744.515 339.63 743.282 338.388 742.245 336.992C741.454 336.136 741.323 336.268 741.026 335.708C741.454 334.753 741.883 335.049 742.64 335.181C743.99 335.774 746.56 337.058 746.889 337.157C747.795 337.542 748.73 337.852 749.688 338.079C750.317 338.53 751.098 338.721 751.862 338.606C754.134 336.762 751.862 335.741 750.512 334.456C749.162 333.172 748.404 332.678 745.704 331.163C743.002 329.648 735.823 322.864 732.892 320.987C730.903 319.695 729.039 318.217 727.327 316.574C725.614 315.817 724.593 314.236 722.651 313.643C719.904 312.083 717.283 310.311 714.813 308.341C713.594 307.683 712.969 306.662 711.52 306.036C708.196 303.321 705.914 299.539 705.064 295.333Z" fill="#004D65"/>
<path fill-rule="evenodd" clip-rule="evenodd" d="M740.469 303.401C740.617 302.405 741.21 301.532 742.082 301.03C745.145 299.745 747.615 297.177 750.547 296.057C751.963 295.662 753.017 297.407 752.984 298.724C752.674 300.135 752.104 301.476 751.304 302.676C750.481 304.257 749.69 304.652 751.304 306.233C752.229 307.33 753.471 308.113 754.861 308.472C756.705 308.867 757.66 307.748 758.615 306.035C759.043 305.311 759.208 304.751 760.031 304.323C760.854 303.895 763.324 300.437 765.564 300.766C768.857 302.808 766.156 308.077 764.839 310.481C764.345 311.189 763.894 311.926 763.489 312.687C762.402 314.894 762.896 315.454 764.971 316.771C767.045 318.088 770.141 319.504 772.71 320.822C772.996 321.055 773.368 321.152 773.731 321.085C774.784 320.887 774.06 319.241 773.039 318.483C772.1 317.439 770.987 316.569 769.746 315.915C768 315.026 770.734 313.61 770.734 313.61C773.731 312.654 772.282 311.502 773.763 309.592C774.356 308.834 774.751 308.9 775.608 309.592C776.55 310.843 777.294 312.231 777.814 313.708C778.407 314.597 778.637 315.487 779.428 316.639C781.624 318.419 784.227 319.629 787.003 320.163C787.184 320.19 787.342 320.3 787.431 320.459C790.165 320.723 795.763 323.489 797.903 322.995C802.086 322.238 803.074 324.279 802.942 327.112C802.81 329.944 797.903 328.989 796.356 328.89C794.363 328.512 792.414 327.95 790.527 327.21C788.607 326.376 786.638 325.662 784.632 325.07C782.887 325.333 782.82 327.77 783.117 328.956C783.255 329.736 783.558 330.477 784.006 331.129C784.899 332.157 785.867 333.115 786.904 333.994C787.589 334.436 788.238 334.933 788.847 335.476C790.803 337.617 792.486 339.998 793.853 342.557C794.778 344.223 794.439 346.311 793.03 347.595C792.457 348.112 791.749 348.455 790.988 348.583C789.091 348.879 787.158 348.879 785.258 348.583C783.875 348.385 784.303 348.254 783.15 347.859C781.996 347.463 779.856 347.2 778.11 346.541C776.365 345.883 773.072 344.73 771.195 343.874C769.084 342.876 767.121 341.592 765.366 340.054C764.365 339.273 763.864 338.015 764.049 336.761C764.543 335.838 765.037 335.838 765.728 335.575C767.493 335.509 769.239 335.98 770.734 336.925C771.518 337.159 772.354 337.159 773.138 336.925C774.36 336.728 775.598 337.162 776.431 338.078C777.225 339.27 778.381 340.182 779.724 340.679C782.014 342.039 784.579 342.863 787.234 343.083C787.925 343.083 788.222 343.347 788.748 343.083C792.667 341.667 784.764 335.377 783.545 334.093C782.327 332.809 778.736 330.8 777.155 329.483C775.575 328.165 767.605 323.917 766.057 325.893C765.399 326.124 765.037 326.749 764.147 326.815C763.028 327.606 764.839 329.713 762.04 331.294C760.291 331.465 758.598 330.639 757.66 329.153C757.446 327.443 757.722 325.709 758.45 324.148C758.78 323.357 758.845 323.193 758.154 322.83C757.357 322.45 756.596 321.998 755.882 321.48C754.861 320.295 752.588 319.768 751.502 318.78C748.801 317.825 748.209 315.487 751.502 316.54C752.934 317.342 754.512 317.846 756.145 318.022C756.649 318.409 757.373 318.313 757.762 317.808C757.811 317.741 757.854 317.67 757.89 317.594C757.89 314.597 756.639 314.729 754.433 312.885C751.923 311.365 749.315 310.012 746.627 308.834C744.618 308.038 742.751 306.926 741.094 305.541C740.521 304.99 740.281 304.175 740.469 303.401Z" fill="#004D65"/>
<path fill-rule="evenodd" clip-rule="evenodd" d="M477.469 173.058C478.918 167.46 477.667 166.472 480.433 164.364C482.129 163.334 483.956 162.536 485.867 161.993C488.929 161.104 490.806 158.436 494.626 157.547C496.833 157.02 499.072 155.505 501.213 155.769C502.037 155.999 503.223 156.625 504.013 155.999C505.561 152.278 507.767 149.084 509.381 145.395C511.571 141.701 513.57 137.898 515.374 134.001C515.374 133.54 515.374 133.54 515.012 133.375C513.181 133.015 511.311 132.893 509.447 133.013C508.343 132.866 507.224 132.944 506.153 133.244C504.704 133.046 504.672 133.836 503.288 133.244C499.665 133.244 499.336 130.938 499.731 128.172C500.126 125.406 500.389 126.032 502.037 125.077C505.129 123.402 508.129 121.566 511.027 119.577C512.246 118.962 513.402 118.234 514.485 117.403C517.548 115.526 520.808 113.616 523.97 112.068C526.301 110.553 528.718 109.179 531.215 107.952C538.098 103.934 540.832 101.036 546.792 97.3805C549.328 96.162 550.645 95.1082 553.379 97.578C554.669 98.9121 555.509 100.617 555.783 102.452C556.079 104.461 554.893 105.449 553.115 106.273C552.061 106.719 550.955 107.029 549.822 107.195C548.475 107.162 547.135 107.328 545.837 107.689C542.837 108.661 539.765 109.399 536.649 109.895C534.61 110.24 532.621 110.826 530.721 111.64C526.406 113.55 518.404 118.227 514.617 120.236C513.003 121.652 510.698 122.87 509.15 124.451C508.525 126.657 513.958 126.163 515.078 125.867C516.692 125.867 521.269 125.636 522.422 124.056C524.628 122.607 525.88 120.565 528.284 119.478C529.831 118.951 530.786 117.634 531.774 117.634C533.082 116.943 534.649 116.943 535.958 117.634C537.561 118.823 538.381 120.796 538.098 122.771C537.736 124.319 535.694 125.867 534.31 126.921C532.927 127.975 531.017 129.028 529.337 129.983L526.867 130.971C524.957 131.131 523.126 131.802 521.566 132.914C520.136 136.517 518.961 140.214 518.042 143.979C516.537 146.643 515.605 149.594 515.308 152.64C515.308 153.595 515.308 153.76 516.264 153.299C518.032 152.208 519.86 151.207 521.73 150.302C523.956 149.167 526.103 147.88 528.152 146.449C529.765 145.494 532.4 143.881 533.651 142.925C534.904 141.97 535.497 142.069 536.946 140.983C538.981 139.647 540.937 138.196 542.807 136.636C545.672 134.758 548.011 132.124 550.843 130.444C551.567 129.885 552.95 130.016 552.127 131.103C551.966 131.252 551.824 131.418 551.699 131.597C551.238 132.321 551.337 132.223 550.612 132.519C548.999 133.244 547.319 135.351 545.837 136.339C544.375 137.318 542.995 138.419 541.721 139.632C540.601 140.653 541.721 140.192 539.086 142.069C536.452 143.946 529.206 148.656 526.176 150.862C523.146 153.068 522.158 154.155 519.919 155.868C517.68 157.58 515.308 159.161 513.333 161.071C511.357 162.981 511.686 162.685 510.731 165.253L509.875 166.274C508.426 168.513 507.701 170.819 505.001 172.103C504.457 172.919 504.023 173.806 503.716 174.738C502.63 176.483 502.893 176.713 501.081 176.055C500.281 174.359 499.81 172.526 499.698 170.654C499.401 169.567 499.698 169.04 498.578 169.106C497.314 169.559 496.125 170.203 495.054 171.016C491.761 172.006 488.606 173.411 485.669 175.199C483.133 176.483 477.831 176.944 477.469 173.058Z" fill="#004D65"/>
<path fill-rule="evenodd" clip-rule="evenodd" d="M532.997 189.726C531.811 189.035 531.482 186.697 532.009 184.82C532.638 182.782 533.909 181.003 535.631 179.748C537.113 178.628 539.155 177.476 540.736 176.159C543.502 173.853 541.691 172.865 542.613 171.285C542.81 170.988 543.074 171.285 543.239 171.285C543.387 171.427 543.509 171.594 543.601 171.779C544.424 173.03 546.433 172.635 547.487 171.779C548.425 171.051 549.097 170.032 549.397 168.881C550.781 165.917 551.142 165.159 550.187 164.929C549.186 164.949 548.211 164.597 547.454 163.941C548.047 162.788 548.606 162.755 549.594 162.228C550.77 162.002 551.891 161.543 552.889 160.878C553.998 157.892 555.421 155.033 557.137 152.349C558.602 150.429 559.85 148.353 560.858 146.158C559.155 146.162 557.476 146.556 555.951 147.31C553.122 148.348 550.243 149.239 547.322 149.978C545.873 150.34 544.358 150.604 542.909 151.065C541.46 151.526 540.406 150.867 540.275 150.768C539.32 149.286 538.957 147.475 540.275 147.475C542.511 147.38 544.724 146.992 546.861 146.322C550.619 145.866 554.305 144.937 557.828 143.556C560.693 142.568 562.735 142.437 564.876 141.679C569.091 141.416 568.169 148.694 567.807 150.9C566.878 153.894 565.304 156.649 563.196 158.968C562.57 160.088 561.154 160.417 560.66 161.57C561.51 162.739 562.544 163.762 563.723 164.6C565.172 166.938 564.316 168.42 562.439 170.396C557.229 174.353 551.486 177.557 545.379 179.913C544.147 180.507 542.959 181.189 541.823 181.955C540.11 182.844 539.287 183.14 541.823 184.194C543.716 184.932 545.666 185.515 547.651 185.939C549.232 186.104 550.549 186.499 552.691 186.697C555.53 186.822 558.349 187.263 561.089 188.014C562.356 188.452 563.562 189.05 564.678 189.792C565.857 190.436 566.707 191.549 567.016 192.855C567.444 194.172 565.897 194.93 564.81 194.963C563.516 195.046 562.231 195.278 560.99 195.654C559.195 195.814 557.397 195.399 555.852 194.469C550.786 192.196 545.33 190.922 539.781 190.714C537.805 191.014 535.783 190.668 534.018 189.726C532.536 188.738 534.149 190.385 532.997 189.726Z" fill="#004D65"/>
<path fill-rule="evenodd" clip-rule="evenodd" d="M489.492 164.759C489.69 164.265 489.854 164.199 490.249 163.936C491.514 162.435 493.259 161.423 495.189 161.072C497.201 159.904 499.454 159.216 501.777 159.062C502.04 159.326 502.271 159.424 501.777 160.149C500.15 160.634 498.571 161.273 497.066 162.059C494.629 162.882 493.773 163.278 489.657 164.826L489.492 164.759Z" fill="#004D65"/>
<path fill-rule="evenodd" clip-rule="evenodd" d="M527.922 123.729C527.922 123.729 527.922 123.729 527.922 123.532C528.68 122.577 531.216 121.227 532.335 121.885C531.808 123.137 529.24 123.499 527.922 123.729Z" fill="#004D65"/>
<path fill-rule="evenodd" clip-rule="evenodd" d="M563.193 132.751C562.205 131.96 561.58 130.775 560.657 130.248C559.192 128.951 558.602 126.926 559.143 125.045C559.409 124.215 559.617 123.367 559.768 122.509C560.065 121.06 559.768 120.237 561.481 119.644L562.93 119.183C565.037 118.063 566.552 117.339 567.244 119.183C567.557 120.851 567.962 122.5 568.462 124.122C568.824 124.913 569.121 125.308 570.043 125.078C571.001 124.645 571.937 124.162 572.842 123.629C574.061 123.036 575.577 122.904 577.124 122.18C578.672 121.455 581.274 120.401 582.723 119.808C584.317 119.076 585.868 118.251 587.366 117.339L590.956 115.132C591.417 114.836 591.614 114.737 591.384 114.144C591.209 113.725 590.926 113.36 590.56 113.09C589.935 112.531 589.474 112.629 589.902 111.806C590.33 110.983 591.812 110.818 593.393 110.555C596.521 111.03 599.515 112.151 602.185 113.848C603.7 115.461 602.482 116.581 600.769 117.503C599.607 117.456 598.451 117.313 597.311 117.075C595.171 117.997 592.8 118.952 590.725 119.611C588.65 120.269 587.794 120.731 584.995 121.85C581.425 123.43 577.763 124.794 574.029 125.934C573.106 126.263 573.468 126.823 573.797 126.889C574.483 127.149 575.208 127.304 575.939 127.35C577.388 127.91 581.866 128.832 581.669 131.302C581.646 131.917 581.277 132.467 580.714 132.718C578.089 133.984 575.198 134.605 572.282 134.529C570.738 134.699 569.17 134.519 567.705 134.002C565.926 133.245 564.346 133.673 563.193 132.751Z" fill="#004D65"/>
<path fill-rule="evenodd" clip-rule="evenodd" d="M675.066 646.582C675.066 646.582 674.506 647.801 674.408 648.327C674.226 649.062 674.226 649.832 674.408 650.567C674.632 651.407 674.908 652.23 675.231 653.037C676.614 656.175 678.811 661.006 681.817 667.527C684.824 674.047 687.952 680.831 691.203 687.878L689.556 689.525L668.183 679.283L654.285 672.697C653.712 672.427 653.103 672.249 652.474 672.17C651.819 672.058 651.153 672.058 650.498 672.17C649.839 672.21 649.194 672.368 648.588 672.631C648.028 672.927 648.391 672.631 647.995 672.993L646.645 671.413L657.48 660.611L658.995 662.126C658.184 663.008 657.447 663.957 656.788 664.958C656.261 665.781 656.195 666.407 656.591 666.802C656.772 666.99 656.982 667.145 657.216 667.263L657.875 667.625L667.031 672.005L685.11 680.666C683.497 677.044 681.587 672.796 679.314 667.922C677.042 663.048 675.494 659.722 674.605 658.042C674.072 656.896 673.443 655.793 672.728 654.749C672.382 654.288 672.007 653.847 671.608 653.432C671.296 653.103 670.838 652.954 670.39 653.037C669.817 653.109 669.26 653.274 668.743 653.531C668.151 653.86 667.624 654.189 667.097 654.551L665.548 655.77L664.033 654.255L673.156 645.133L673.42 644.87L675.033 646.747L675.066 646.582ZM717.187 636.307L715.968 637.921C716.857 639.205 717.641 640.559 718.307 641.972C719.136 643.477 719.765 645.08 720.184 646.747C720.246 647.366 720.144 647.991 719.887 648.558C719.604 649.259 719.275 649.941 718.899 650.6C718.461 651.331 717.977 652.036 717.45 652.707L716.001 654.65C715.046 655.902 714.289 656.824 713.696 657.449C713.212 657.98 712.599 658.375 711.918 658.602C711.262 658.767 710.571 658.684 709.975 658.372C709.063 657.927 708.203 657.387 707.406 656.758L697.196 649.184L699.898 645.594C700.458 644.774 701.149 644.053 701.939 643.453C702.661 642.979 703.514 642.745 704.376 642.795C705.223 642.854 706.056 643.042 706.846 643.355C707.824 643.704 708.763 644.158 709.645 644.705L710.897 643.025L697.723 633.146L696.472 634.858C697.15 635.501 697.769 636.205 698.317 636.966C698.841 637.641 699.251 638.398 699.534 639.205C699.73 639.95 699.73 640.733 699.534 641.478C699.195 642.499 698.672 643.447 697.987 644.277L695.286 647.866L681.784 637.69L685.538 632.685C686.164 631.862 686.724 631.137 687.251 630.511C687.778 629.886 688.239 629.392 688.634 628.964C689.892 628.035 691.46 627.62 693.014 627.811C694.838 627.781 696.65 628.104 698.349 628.766L699.633 627.086L691.433 620.928L673.815 644.343L675.395 646.088C675.395 646.286 675.824 645.693 676.087 645.495C676.617 645.018 677.203 644.609 677.832 644.277C678.382 643.964 679.025 643.859 679.644 643.98C680.217 644.135 680.757 644.405 681.224 644.771L705.661 663.147C706.171 663.512 706.599 663.983 706.912 664.53C707.097 665.086 707.097 665.686 706.912 666.242C706.711 666.835 706.458 667.408 706.155 667.955C705.694 668.778 705.298 669.404 705.002 669.898L706.682 671.182L726.605 644.672L717.055 636.538L717.187 636.307ZM751.173 605.384L745.641 614.605C740.997 614.605 736.947 614.605 733.456 614.836C729.964 615.066 726.375 615.264 722.555 615.593L720.48 619.117L732.105 626.131C732.639 626.467 733.232 626.704 733.851 626.823C734.441 626.816 735.001 626.566 735.399 626.131C735.88 625.756 736.301 625.315 736.65 624.814C737.177 624.156 737.605 623.596 737.935 623.102L739.746 624.188L731.084 638.678L729.24 637.592L730.063 635.813C730.346 635.263 730.547 634.677 730.656 634.068C730.725 633.495 730.6 632.912 730.294 632.421C729.922 631.881 729.424 631.443 728.845 631.137L702.499 615.33C701.969 614.977 701.376 614.734 700.754 614.605C700.138 614.49 699.503 614.671 699.042 615.099C698.55 615.494 698.099 615.936 697.69 616.417C697.239 616.891 696.821 617.398 696.439 617.931L694.628 616.812L704.113 601.005C704.917 599.625 705.888 598.354 707.011 597.217C708.042 596.16 709.26 595.301 710.6 594.682C711.888 594.089 713.301 593.819 714.717 593.891C716.337 593.997 717.901 594.517 719.262 595.406C720.529 596.134 721.646 597.096 722.555 598.238C723.358 599.203 723.954 600.326 724.3 601.531C724.61 602.756 724.722 604.024 724.629 605.286C724.577 606.698 724.366 608.101 724.004 609.468L732.566 608.875L740.965 608.315C742.081 608.253 743.184 608.065 744.258 607.756C745.022 607.492 745.759 607.159 746.464 606.768C747.014 606.422 747.511 606 747.946 605.516C748.407 604.956 748.802 604.462 749.066 604.067L750.91 605.154L751.173 605.384ZM716.331 601.795C714.48 600.534 712.214 600.04 710.008 600.412C707.88 600.939 706.082 602.355 705.068 604.298L702.598 608.414L718.241 617.8L720.151 614.507C721.448 612.461 721.83 609.965 721.205 607.624C720.444 605.072 718.688 602.934 716.331 601.696V601.795ZM744.422 571.465C743.253 571.827 742.144 572.361 741.129 573.046C740.141 573.77 739.153 574.527 738.231 575.351C737.309 576.174 736.222 577.228 735.234 578.249C734.194 579.319 733.094 580.33 731.94 581.278C730.774 582.319 729.355 583.037 727.824 583.353C726.233 583.59 724.61 583.36 723.147 582.695C721.613 582.039 720.417 580.775 719.854 579.204C719.199 577.633 719.199 575.868 719.854 574.297C720.394 572.914 721.293 571.699 722.456 570.773C723.559 569.957 724.83 569.393 726.177 569.127C727.649 568.827 729.157 568.728 730.656 568.83C732.205 568.83 733.95 569.094 735.498 569.357L736.387 567.249L723.213 561.947L722.324 564.055L723.773 565.899C722.518 566.726 721.349 567.674 720.282 568.731C719.097 569.947 718.158 571.376 717.516 572.947C716.897 574.406 716.561 575.97 716.528 577.557C716.475 580.682 717.661 583.699 719.821 585.955C720.895 587.091 722.199 587.99 723.641 588.589C725.822 589.63 728.275 589.966 730.656 589.544C732.89 588.965 734.938 587.832 736.618 586.251C737.573 585.395 738.659 584.374 739.911 583.189L743.204 579.895C744.465 578.631 746.089 577.791 747.847 577.491C749.507 577.221 751.206 577.425 752.754 578.084C753.722 578.476 754.625 579.023 755.422 579.698C756.106 580.287 756.656 581.018 757.035 581.838C757.411 582.711 757.582 583.656 757.529 584.605C757.437 585.741 757.157 586.854 756.706 587.898C756.12 589.366 755.181 590.667 753.973 591.685C752.803 592.6 751.476 593.295 750.054 593.727C748.526 594.181 746.938 594.415 745.344 594.418C743.625 594.435 741.906 594.316 740.207 594.056L739.318 596.164L752.886 601.466L753.775 599.391L752.227 597.415C753.607 596.473 754.868 595.367 755.981 594.122C757.193 592.755 758.171 591.197 758.879 589.511C760.378 586.254 760.533 582.54 759.307 579.171C758.102 575.858 755.537 573.22 752.26 571.926C750.973 571.369 749.606 571.014 748.21 570.872C746.942 570.783 745.664 570.938 744.455 571.333L744.422 571.465ZM771.855 555.262L765.729 572.189L763.72 571.465C763.72 570.971 764.05 570.246 764.28 569.324C764.504 568.666 764.626 567.977 764.642 567.283C764.639 566.703 764.455 566.14 764.116 565.669C763.684 565.185 763.124 564.832 762.502 564.648L733.522 554.143C732.972 553.906 732.376 553.794 731.776 553.813C731.13 553.919 730.551 554.274 730.162 554.801C729.661 555.341 729.21 555.928 728.812 556.547C728.41 557.136 728.044 557.752 727.725 558.391L725.749 557.666L731.875 540.772L733.884 541.497C733.66 542.165 733.486 542.847 733.357 543.539C733.226 544.243 733.147 544.961 733.127 545.679C733.051 546.321 733.268 546.964 733.72 547.425C734.171 547.856 734.711 548.182 735.3 548.38L764.214 558.885C764.791 559.109 765.417 559.178 766.027 559.083C766.649 558.98 767.219 558.664 767.64 558.193C768.065 557.673 768.45 557.123 768.793 556.547C769.201 555.908 769.554 555.236 769.847 554.538L771.855 555.262ZM752.853 508.763L741.689 505.799L732.732 539.422L743.895 542.386L744.389 540.476C743.632 540.022 742.904 539.514 742.216 538.961C741.353 538.306 740.55 537.578 739.812 536.788C739.127 536.04 738.511 535.237 737.968 534.384C737.497 533.761 737.263 532.991 737.309 532.21C737.309 531.42 737.573 530.597 737.77 529.773L738.264 527.666L738.692 526.085L771.822 534.911C772.488 535.075 773.11 535.388 773.634 535.833C774.036 536.284 774.289 536.847 774.358 537.446C774.46 538.2 774.46 538.965 774.358 539.719C774.358 540.805 774.062 541.596 773.963 542.123L776.005 542.682L780.879 524.438L778.804 523.911C778.531 524.708 778.188 525.479 777.783 526.217C777.484 526.885 777.118 527.527 776.696 528.127C776.311 528.647 775.748 529.009 775.116 529.148C774.497 529.279 773.858 529.279 773.239 529.148L740.306 520.388L740.734 518.807C740.932 518.083 741.162 517.292 741.426 516.469C741.689 515.646 741.952 514.921 742.15 514.394C742.525 513.713 743.098 513.159 743.797 512.813C744.699 512.359 745.634 511.974 746.596 511.661C747.61 511.361 748.644 511.131 749.691 510.969C750.597 510.824 751.509 510.745 752.425 510.739L752.919 508.862L752.853 508.763ZM748.572 466.413C748.578 466.936 748.654 467.457 748.802 467.96C748.901 468.504 749.092 469.027 749.362 469.508C749.642 470.068 749.961 470.605 750.317 471.122C750.897 471.741 751.526 472.311 752.194 472.834C754.236 474.524 756.311 476.104 758.418 477.576L766.488 483.076C767.403 483.735 768.388 484.298 769.419 484.756C770.486 485.118 771.589 485.348 772.712 485.447L780.78 486.27C781.422 486.379 782.084 486.31 782.69 486.073C783.283 485.829 783.77 485.385 784.073 484.821C784.416 484.169 784.692 483.488 784.896 482.78C785.17 481.996 785.377 481.192 785.522 480.376L787.63 480.606L785.687 499.18L783.579 498.982C783.579 498.455 783.579 497.665 783.579 496.578C783.609 495.837 783.543 495.096 783.382 494.372C783.214 493.753 782.828 493.216 782.295 492.857C781.715 492.534 781.076 492.33 780.418 492.264L770.143 491.21C769.524 491.237 768.915 491.358 768.332 491.572L765.4 492.593C762.963 493.45 760.328 494.438 757.529 495.524L750.251 498.356C749.296 498.729 748.384 499.193 747.518 499.74C746.899 500.161 746.336 500.658 745.838 501.221C745.463 501.683 745.173 502.206 744.982 502.769C744.765 503.299 744.61 503.849 744.521 504.416L742.381 504.185L744.159 487.258L746.267 487.489C746.095 488.833 746.095 490.196 746.267 491.54C746.441 492.373 746.737 492.801 747.156 492.824C747.373 492.873 747.597 492.873 747.814 492.824L748.967 492.495L750.844 491.803L752.886 491.046L758.451 488.905L765.697 486.04C760.954 482.582 757.266 479.948 754.631 478.103C753.153 476.944 751.526 475.992 749.79 475.271C749.372 475.238 748.96 475.367 748.638 475.634C748.308 475.973 748.048 476.378 747.88 476.819C747.643 477.379 747.475 477.965 747.386 478.564C747.386 479.19 747.156 479.783 747.024 480.31L744.916 480.079L746.332 466.281L748.473 466.511L748.572 466.413ZM596.883 710.898C596.208 711.293 595.569 711.744 594.973 712.248C594.242 712.768 593.636 713.443 593.195 714.224C592.793 715.228 592.793 716.348 593.195 717.352C593.732 719.038 594.404 720.682 595.204 722.259L603.339 738.725C604.31 740.619 604.808 742.723 604.788 744.85C604.739 746.754 604.268 748.621 603.405 750.317C602.565 751.888 601.449 753.291 600.112 754.466C598.942 755.553 597.621 756.462 596.192 757.167C594.252 758.151 592.158 758.797 590.001 759.077C588.183 759.314 586.335 759.189 584.567 758.714C582.989 758.286 581.524 757.509 580.286 756.442C579.074 755.415 578.086 754.147 577.388 752.721L566.356 730.163C566.112 729.609 565.752 729.115 565.301 728.714C564.787 728.355 564.181 728.147 563.555 728.121C562.903 728.098 562.248 728.164 561.612 728.319C561.02 728.447 560.44 728.612 559.867 728.812L558.945 726.902L573.864 719.592L574.819 721.502C574.236 721.841 573.676 722.213 573.14 722.621C572.659 722.99 572.194 723.385 571.756 723.807C571.325 724.242 571.098 724.841 571.131 725.453C571.2 726.073 571.378 726.675 571.658 727.232L581.998 748.341C582.535 749.415 583.161 750.439 583.875 751.404C584.626 752.411 585.565 753.261 586.642 753.906C587.821 754.601 589.158 754.987 590.527 755.026C592.312 755.01 594.064 754.559 595.632 753.709C597.262 752.938 598.705 751.812 599.848 750.416C600.747 749.263 601.347 747.906 601.594 746.464C601.808 745.222 601.808 743.951 601.594 742.71C601.356 741.567 600.968 740.457 600.441 739.416L592.767 723.741C592.003 722.078 591.064 720.497 589.968 719.032C589.395 718.152 588.552 717.481 587.564 717.122C586.586 716.987 585.591 717.043 584.633 717.286C583.77 717.444 582.92 717.675 582.097 717.978L581.142 716.068L595.829 708.889L596.752 710.799L596.883 710.898ZM633.11 685.902L631.924 684.124L618.455 693.213L619.64 694.992C620.473 694.557 621.343 694.205 622.242 693.938C623.134 693.641 624.066 693.477 625.008 693.444C625.989 693.632 626.882 694.142 627.544 694.893C628.884 696.263 630.086 697.764 631.133 699.372L642.463 716.134L605.644 701.874L596.225 708.263L597.41 710.008C598.266 709.554 599.19 709.231 600.145 709.053C601.235 708.853 602.351 708.853 603.438 709.053C604.245 709.231 604.999 709.59 605.644 710.107C606.379 710.687 607.024 711.375 607.554 712.149L619.278 729.504C620.43 731.101 621.432 732.797 622.275 734.576C622.709 735.478 622.825 736.499 622.604 737.473C622.291 738.234 621.833 738.929 621.254 739.515C620.724 740.207 620.127 740.846 619.475 741.425L620.661 743.204L634.23 734.016L633.044 732.27C632.218 732.669 631.357 733.001 630.475 733.258C629.556 733.627 628.568 733.795 627.577 733.752C626.546 733.495 625.614 732.932 624.909 732.139C623.572 730.785 622.38 729.297 621.353 727.693L609.069 709.547L648.588 724.795L650.597 723.412L633.308 697.527C632.269 696.045 631.357 694.481 630.573 692.851C630.027 691.906 629.852 690.79 630.079 689.723C630.442 688.962 630.919 688.264 631.497 687.648C632.007 686.999 632.593 686.413 633.242 685.902H633.11ZM673.156 704.608L671.806 702.961C671.207 703.429 670.555 703.827 669.863 704.147C669.273 704.473 668.654 704.749 668.019 704.97C667.419 705.171 666.774 705.171 666.175 704.97C665.618 704.716 665.133 704.334 664.758 703.85L645.361 679.975C644.975 679.484 644.682 678.928 644.505 678.328C644.389 677.696 644.531 677.044 644.9 676.517C645.292 675.911 645.733 675.338 646.217 674.804C646.589 674.376 646.984 673.968 647.403 673.586L646.052 671.939L632.386 683.005L633.736 684.651C634.322 684.259 634.938 683.917 635.58 683.63C636.255 683.314 636.947 683.041 637.655 682.807C638.271 682.57 638.949 682.57 639.565 682.807C640.082 683.093 640.53 683.485 640.882 683.96L660.312 707.901C660.746 708.385 661.043 708.974 661.168 709.613C661.221 710.203 661.082 710.789 660.773 711.293C660.411 711.869 659.966 712.389 659.456 712.841L657.842 714.388L659.192 716.035L673.156 704.608Z" fill="#004D65"/>
<path fill-rule="evenodd" clip-rule="evenodd" d="M189.867 607.96C189.432 607.262 188.924 606.61 188.352 606.017C187.814 605.365 187.182 604.799 186.475 604.338C185.425 603.883 184.233 603.883 183.182 604.338C181.463 604.888 179.799 605.592 178.21 606.445L150.414 620.474L149.294 618.301L169.45 581.022L149.69 590.902C147.988 591.725 146.368 592.706 144.849 593.832C143.971 594.438 143.304 595.301 142.939 596.302C142.719 597.267 142.719 598.268 142.939 599.233C143.084 600.139 143.304 601.031 143.597 601.901L141.72 602.856L134.311 588.267L136.221 587.279C136.721 588.007 137.283 588.689 137.9 589.321C138.424 589.946 139.047 590.48 139.744 590.902C140.684 591.218 141.702 591.218 142.642 590.902C144.521 590.289 146.34 589.505 148.076 588.563L166.749 579.112C167.594 578.697 168.363 578.137 169.022 577.465C169.634 576.906 170.097 576.204 170.372 575.424C170.697 574.357 170.798 573.237 170.668 572.13C170.596 571.166 170.397 570.211 170.075 569.298L171.952 568.31L177.123 578.486L158.286 613.163L176.365 604.041C178.085 603.218 179.718 602.227 181.239 601.077C182.079 600.508 182.704 599.671 183.018 598.706C183.113 597.771 183.058 596.826 182.853 595.907C182.732 594.982 182.5 594.076 182.161 593.207L184.071 592.252L191.383 606.742L189.505 607.73L189.867 607.96ZM156.671 538.145C155.503 538.049 154.374 537.677 153.378 537.058C152.438 536.505 151.585 535.817 150.842 535.016C150.151 534.229 149.534 533.38 148.998 532.481C148.563 531.766 148.168 531.032 147.813 530.274L149.591 529.55C149.986 530.307 150.381 531.065 150.776 531.756C151.114 532.362 151.535 532.915 152.028 533.403C153.089 534.552 154.525 535.29 156.078 535.477V534.193C156.107 533.238 156.523 532.332 157.231 531.69C157.956 531.088 158.903 530.824 159.834 530.966C160.647 531.055 161.398 531.44 161.941 532.053C162.594 532.668 162.902 533.567 162.765 534.457C162.765 535.757 162.041 536.949 160.887 537.552C159.543 538.142 158.061 538.346 156.605 538.145H156.671ZM108.853 508.506L107.306 489.867L109.413 489.669C109.524 490.924 109.778 492.162 110.171 493.358C110.533 494.28 110.994 494.708 111.554 494.675C112.182 494.5 112.782 494.234 113.332 493.885C114.366 493.292 115.367 492.643 116.329 491.942L120.61 488.912C122.257 487.726 123.903 486.574 125.287 485.421C122.849 484.005 119.918 482.359 116.461 480.547C114.614 479.352 112.591 478.453 110.467 477.88C109.844 477.886 109.291 478.282 109.084 478.868C108.769 480.116 108.68 481.41 108.82 482.688H106.713L105.461 467.836L107.569 467.638C107.569 468.132 107.767 468.758 107.964 469.482C108.091 470.131 108.325 470.753 108.656 471.327C109.212 472.146 109.89 472.881 110.665 473.5C111.442 474.08 112.256 474.606 113.102 475.081C114.946 476.134 117.284 477.485 120.05 479.131C122.816 480.778 125.353 482.227 127.625 483.478L133.718 478.802L141.588 472.71C142.461 472.054 143.297 471.35 144.091 470.602C144.62 470.045 145.024 469.383 145.277 468.659C145.507 468.05 145.63 467.401 145.639 466.749C145.639 465.926 145.639 465.3 145.639 464.839L147.747 464.641L149.327 483.083L147.187 483.248C147.047 482.131 146.815 481.031 146.495 479.955C146.133 478.802 145.705 478.242 145.178 478.275C144.49 478.446 143.841 478.746 143.268 479.164C142.346 479.691 141.391 480.35 140.37 481.074C139.349 481.799 138.131 482.655 136.846 483.544C135.562 484.433 134.08 485.586 132.401 486.837C135.694 488.681 138.526 490.295 141.094 491.612C142.613 492.564 144.302 493.213 146.067 493.522C146.72 493.463 147.256 492.979 147.384 492.337C147.678 491.165 147.767 489.949 147.648 488.747L149.788 488.55L151.04 503.402L148.899 503.567C148.83 502.954 148.709 502.348 148.537 501.755C148.176 500.211 147.292 498.838 146.034 497.869L143.367 496.157L137.241 492.502L130.26 488.517L123.047 494.412L115.209 500.372C114.364 501.047 113.571 501.785 112.838 502.579C112.257 503.175 111.748 503.837 111.323 504.555C111.064 505.134 110.94 505.763 110.961 506.399C110.926 507.048 110.926 507.693 110.961 508.342L108.82 508.539L108.853 508.506ZM114.518 530.637L116.592 530.241C116.521 529.487 116.521 528.723 116.592 527.969C116.542 527.301 116.542 526.629 116.592 525.96C116.72 525.341 117.057 524.781 117.547 524.379C118.009 523.994 118.567 523.744 119.161 523.655L149.426 517.859C150.025 517.744 150.639 517.744 151.237 517.859C151.864 518.02 152.385 518.455 152.654 519.045C153.014 519.674 153.311 520.335 153.543 521.02C153.794 521.676 154.003 522.348 154.168 523.029L156.243 522.634L152.95 504.95L150.842 505.345C150.894 506.056 150.894 506.774 150.842 507.485C150.822 508.226 150.733 508.967 150.579 509.692C150.508 510.344 150.19 510.947 149.69 511.371C149.188 511.688 148.628 511.902 148.043 511.997L117.778 517.793C117.142 517.964 116.471 517.964 115.835 517.793C115.297 517.553 114.848 517.148 114.551 516.641C114.208 516.048 113.964 515.402 113.826 514.73L113.233 512.623L111.126 513.018L114.419 530.669L114.518 530.637ZM132.73 586.983L134.739 586.291C134.596 585.718 134.508 585.135 134.475 584.546C134.384 583.946 134.384 583.334 134.475 582.734C134.668 582.069 134.956 581.437 135.331 580.857C135.746 580.281 136.246 579.771 136.813 579.342L167.243 554.907L166.519 552.767L147.615 552.371C140.546 552.24 134.157 552.075 128.449 551.877C127.538 551.877 126.632 551.765 125.748 551.548C124.971 551.288 124.238 550.909 123.574 550.428C123.055 550.023 122.609 549.536 122.257 548.979C121.917 548.459 121.609 547.922 121.334 547.366L119.326 548.024L124.168 562.251L126.209 561.559C125.809 560.259 125.62 558.902 125.65 557.542C125.65 556.29 126.045 555.533 126.835 555.269L128.119 554.973C128.646 554.973 129.371 554.973 130.293 554.775H133.29H137.34L141.852 567.948L133.915 574.172L133.323 574.567L132.73 574.831C132.302 574.831 131.808 574.633 131.215 573.81C130.497 572.789 129.911 571.683 129.47 570.517L127.428 571.208L132.73 586.983ZM143.992 566.137L140.139 554.775L157.66 555.105L143.992 566.137Z" fill="#004D65"/>
<path fill-rule="evenodd" clip-rule="evenodd" d="M212.983 653.926C211.388 655.194 209.533 656.093 207.55 656.56C205.764 656.988 203.902 656.988 202.116 656.56C200.388 656.119 198.757 655.362 197.308 654.321C195.814 653.257 194.492 651.966 193.389 650.501L190.656 646.944L180.446 654.815C179.934 655.19 179.499 655.661 179.162 656.198C178.922 656.778 178.922 657.43 179.162 658.009C179.372 658.582 179.636 659.132 179.952 659.656C180.336 660.334 180.753 660.993 181.203 661.632L179.524 662.949L168.953 649.184L170.632 647.899L171.982 649.315C172.39 649.783 172.868 650.181 173.398 650.501C173.893 650.797 174.483 650.893 175.045 650.764C175.688 650.626 176.287 650.33 176.79 649.908L201.095 631.17C201.608 630.785 202.053 630.317 202.412 629.787C202.749 629.244 202.822 628.578 202.61 627.976C202.425 627.34 202.183 626.724 201.885 626.131C201.556 625.506 201.227 624.979 200.963 624.551L202.643 623.266L213.774 637.723C215.899 640.2 217.067 643.355 217.068 646.615C216.988 649.562 215.539 652.302 213.148 654.025L212.983 653.926ZM201.885 651.588C203.026 651.528 204.145 651.248 205.179 650.764C206.015 650.359 206.809 649.875 207.55 649.315C208.473 648.601 209.323 647.797 210.085 646.911C210.813 646.045 211.372 645.051 211.732 643.98C212.05 642.913 212.107 641.784 211.897 640.687C211.553 639.35 210.924 638.102 210.052 637.032L207.648 633.903L192.763 645.364L194.509 647.636C195.495 649.029 196.806 650.158 198.329 650.929C199.482 651.502 200.765 651.762 202.05 651.686L201.885 651.588ZM241.8 673.784C242.058 668.61 240.064 663.578 236.333 659.985C234.53 658.217 232.376 656.85 230.01 655.968C227.601 655.075 225.031 654.706 222.469 654.881C219.726 655.065 217.044 655.77 214.564 656.955C211.726 658.342 209.161 660.226 206.99 662.521C204.89 664.665 203.164 667.148 201.885 669.865C200.694 672.321 199.979 674.979 199.778 677.702C199.323 685.744 204.195 693.131 211.765 695.881C214.148 696.737 216.68 697.106 219.208 696.968C221.97 696.816 224.672 696.098 227.145 694.86C229.966 693.49 232.52 691.629 234.686 689.36C236.899 687.151 238.714 684.579 240.054 681.753C241.225 679.25 241.907 676.543 242.063 673.784H241.8ZM217.694 692.39C219.822 691.794 221.836 690.846 223.654 689.591C225.794 688.139 227.77 686.462 229.549 684.585C231.533 682.692 233.301 680.581 234.818 678.295C236.057 676.431 236.97 674.373 237.519 672.203C237.98 670.375 237.98 668.465 237.519 666.637C237.045 664.82 236.062 663.173 234.686 661.895C233.284 660.42 231.451 659.429 229.45 659.063C227.49 658.731 225.479 658.879 223.588 659.491C221.523 660.193 219.57 661.191 217.792 662.455C215.742 663.868 213.833 665.478 212.094 667.263C210.25 669.124 208.595 671.166 207.154 673.356C205.929 675.196 205.026 677.235 204.487 679.382C204.045 681.233 204.045 683.163 204.487 685.013C205.545 688.791 208.55 691.708 212.358 692.653C214.258 693.075 216.236 692.983 218.089 692.39H217.694ZM255.994 717.747L247.332 726.968L223.193 707.209L224.543 705.563L226.19 706.649C226.698 706.999 227.252 707.275 227.837 707.473C228.367 707.674 228.952 707.674 229.483 707.473C230.085 707.19 230.606 706.758 230.998 706.221L250.33 682.708C250.732 682.234 251.034 681.687 251.219 681.094C251.378 680.498 251.307 679.863 251.022 679.316C250.769 678.71 250.449 678.137 250.066 677.604C249.714 677.057 249.306 676.55 248.848 676.089L250.198 674.442L263.371 685.145L262.021 686.792C261.483 686.373 260.897 686.018 260.275 685.738C259.724 685.435 259.152 685.168 258.563 684.947C258 684.681 257.347 684.681 256.785 684.947C256.231 685.26 255.74 685.675 255.336 686.166L237.189 708.263C236.522 709.037 235.916 709.864 235.378 710.733C235.037 711.283 234.897 711.935 234.983 712.577C235.143 713.256 235.498 713.875 236.004 714.355C236.848 715.205 237.739 716.009 238.671 716.76L240.384 718.077C240.962 718.511 241.566 718.907 242.195 719.262C242.742 719.572 243.315 719.839 243.907 720.053C244.382 720.178 244.881 720.178 245.356 720.053C248.582 719.289 251.686 718.08 254.578 716.463L256.126 717.747H255.994ZM299.004 712.643L300.091 710.832L288.169 703.719L287.083 705.53L288.532 706.584C289.025 706.926 289.479 707.325 289.882 707.769C290.215 708.118 290.473 708.533 290.639 708.988C290.817 709.363 290.817 709.798 290.639 710.173C289.296 711.504 287.752 712.617 286.062 713.466C283.274 715.113 279.321 717.309 274.205 720.053C274.205 716.76 274.535 714.257 274.634 712.281C274.732 710.305 274.897 708.296 275.062 706.32C275.062 705.629 275.062 704.904 275.226 704.18C275.391 703.455 275.226 702.764 275.226 702.171C275.226 701.578 275.226 701.282 275.226 700.952C275.262 700.735 275.328 700.524 275.424 700.327C275.621 699.964 276.148 699.866 276.939 700.063C278.336 700.501 279.674 701.11 280.923 701.874L282.044 700.063L267.389 691.336L266.302 693.147C266.774 693.493 267.215 693.879 267.619 694.3C268.05 694.708 268.406 695.186 268.673 695.716C268.962 696.404 269.171 697.122 269.299 697.857C269.374 698.878 269.374 699.898 269.299 700.919C269.299 703.093 269.002 705.694 268.805 708.724C268.607 711.754 268.377 714.52 268.179 717.089C268.179 718.241 267.948 719.262 267.85 720.184C267.805 720.797 267.66 721.396 267.422 721.963L262.12 730.854C261.795 731.431 261.345 731.925 260.802 732.303C260.262 732.639 259.615 732.758 258.991 732.633C258.256 732.498 257.546 732.254 256.883 731.908L254.71 730.887L253.623 732.698L269.694 742.282L270.781 740.437C270.094 739.973 269.455 739.443 268.87 738.857C268.309 738.386 267.802 737.856 267.356 737.276C266.969 736.765 266.771 736.137 266.796 735.498C266.854 734.852 267.069 734.23 267.422 733.686L271.571 726.705C272.116 725.7 272.804 724.778 273.613 723.972C274.467 723.221 275.393 722.559 276.379 721.996L284.778 716.99C286.984 715.706 289.289 714.454 291.66 713.335C292.421 712.946 293.214 712.627 294.031 712.38C294.64 712.264 295.257 712.198 295.876 712.182C296.421 712.096 296.977 712.096 297.522 712.182C298.045 712.251 298.555 712.393 299.037 712.61L299.004 712.643ZM328.644 736.881L326.898 736.057C327.086 735.168 327.174 734.263 327.162 733.357C327.252 732.26 327.252 731.161 327.162 730.064C327.065 729.046 326.855 728.039 326.536 727.067C326.332 726.333 325.907 725.677 325.317 725.19C324.823 724.861 324.198 724.498 323.407 724.07L321.201 722.984L319.752 722.292L305.162 753.017C304.877 753.577 304.73 754.2 304.734 754.829C304.751 755.474 304.996 756.093 305.426 756.574C305.951 757.084 306.512 757.559 307.105 757.99C307.765 758.523 308.471 758.998 309.213 759.406L308.291 761.349L291.265 753.248L292.187 751.338L294.459 752.161C295.169 752.431 295.91 752.609 296.666 752.688C297.269 752.744 297.872 752.592 298.378 752.26C298.932 751.858 299.365 751.311 299.63 750.679L314.318 719.723L312.835 718.999L310.859 718.11C310.069 717.78 309.312 717.484 308.554 717.253C307.804 717.066 307.011 717.148 306.315 717.484C305.373 717.859 304.469 718.324 303.614 718.867C302.697 719.447 301.828 720.096 301.013 720.81C300.338 721.383 299.71 722.012 299.136 722.687L297.39 721.963L302.33 711.556L333.781 726.474L328.808 736.881H328.644ZM357.361 765.63L355.451 764.939C354.443 766.121 353.34 767.224 352.158 768.232C350.989 769.51 349.648 770.619 348.172 771.525C347.606 771.782 346.977 771.874 346.361 771.788C345.607 771.736 344.859 771.624 344.121 771.459C343.292 771.278 342.478 771.034 341.684 770.735L339.346 769.911C338.217 769.539 337.117 769.088 336.053 768.561C335.395 768.265 334.825 767.797 334.407 767.211C334.061 766.638 333.932 765.959 334.044 765.301C334.176 764.296 334.43 763.312 334.802 762.37L339.05 750.317L343.298 751.799C344.237 752.108 345.123 752.553 345.933 753.116C346.598 753.663 347.079 754.397 347.316 755.224C347.504 756.054 347.569 756.91 347.513 757.759C347.471 758.794 347.316 759.821 347.052 760.822L349.062 761.547L354.595 745.838L352.586 745.147C352.174 745.99 351.69 746.793 351.137 747.551C350.646 748.249 350.047 748.858 349.359 749.362C348.736 749.83 347.992 750.103 347.217 750.152C346.087 750.182 344.964 749.968 343.924 749.527L339.676 748.045L345.307 732.073L351.236 734.147L353.804 735.135L355.714 735.992C356.982 736.917 357.845 738.297 358.118 739.845C358.711 741.57 358.945 743.395 358.81 745.213L360.819 745.904L364.112 736.222L334.966 725.98L334.275 727.989C334.891 728.272 335.487 728.602 336.053 728.977C336.676 729.356 337.252 729.81 337.766 730.327C338.223 730.752 338.513 731.322 338.589 731.941C338.579 732.534 338.48 733.123 338.293 733.686L328.117 762.535C327.948 763.131 327.631 763.674 327.195 764.115C326.758 764.514 326.202 764.754 325.614 764.807C324.992 764.81 324.372 764.734 323.77 764.576C322.848 764.576 322.09 764.214 321.563 764.082L320.839 766.091L352.125 777.09L356.999 765.531L357.361 765.63ZM376.297 783.808C373.929 783.38 371.683 782.448 369.71 781.075C367.708 779.676 366.025 777.868 364.771 775.773C363.417 773.468 362.502 770.935 362.07 768.298C361.596 765.215 361.665 762.07 362.268 759.011C362.808 755.919 363.852 752.938 365.363 750.185C366.723 747.775 368.522 745.644 370.665 743.895C372.664 742.321 374.976 741.198 377.449 740.602C379.936 739.963 382.535 739.884 385.058 740.372C386.852 740.661 388.585 741.241 390.195 742.084C391.674 742.914 393.043 743.922 394.278 745.081L395.76 743.27L398 743.665L395.497 758.649L393.225 758.221C393.188 756.554 393.034 754.891 392.764 753.248C392.553 751.628 392.121 750.04 391.479 748.539C390.893 747.132 390.017 745.865 388.911 744.817C387.788 743.826 386.404 743.174 384.926 742.94C383.18 742.604 381.379 742.716 379.689 743.27C377.91 743.892 376.307 744.929 375.012 746.299C373.491 747.942 372.266 749.836 371.39 751.898C370.257 754.479 369.44 757.19 368.953 759.966C368.469 762.439 368.337 764.965 368.558 767.474C368.755 769.681 369.309 771.838 370.204 773.863C371.024 775.661 372.213 777.265 373.695 778.572C375.167 779.811 376.939 780.64 378.832 780.976C380.249 781.24 381.699 781.24 383.115 780.976C384.389 780.716 385.614 780.249 386.737 779.593C387.821 778.879 388.815 778.039 389.701 777.09C390.63 776.093 391.436 774.986 392.105 773.797L393.982 775.246C392.171 778.572 389.391 781.273 386.013 782.985C382.894 784.299 379.445 784.632 376.132 783.94L376.297 783.808ZM439.067 790.395L439.264 788.254C438.629 788.142 438.003 787.987 437.387 787.793C436.807 787.632 436.251 787.388 435.74 787.069C435.21 786.769 434.802 786.288 434.588 785.718C434.394 785.136 434.338 784.516 434.423 783.907L437.321 753.38C437.348 752.757 437.519 752.148 437.815 751.601C438.098 751.058 438.602 750.663 439.198 750.515C439.761 750.38 440.334 750.291 440.911 750.251H441.734V748.11L426.487 746.53L426.289 748.67C426.918 748.792 427.534 748.967 428.133 749.197C428.749 749.431 429.345 749.718 429.912 750.053C430.422 750.37 430.817 750.844 431.031 751.404C431.229 751.973 431.298 752.583 431.229 753.182L430.043 766.025L411.337 764.247L412.588 751.074C412.648 750.445 412.816 749.833 413.082 749.263C413.359 748.72 413.871 748.331 414.467 748.209C415.04 748.061 415.622 747.962 416.212 747.913C416.857 747.87 417.509 747.87 418.155 747.913L418.353 745.805L401.886 744.257L401.688 746.365C402.304 746.49 402.91 746.668 403.499 746.892C404.115 747.126 404.711 747.412 405.278 747.748C405.808 748.064 406.213 748.552 406.43 749.131C406.631 749.701 406.7 750.31 406.628 750.91L403.73 781.437C403.697 782.099 403.506 782.745 403.17 783.314C402.851 783.785 402.37 784.125 401.82 784.27C401.244 784.434 400.641 784.5 400.041 784.467H398.066L397.868 786.575L414.334 788.155L414.565 786.015C413.916 785.923 413.273 785.768 412.654 785.554C412.081 785.386 411.528 785.155 411.008 784.862C410.491 784.533 410.086 784.049 409.855 783.479C409.677 782.903 409.621 782.3 409.69 781.701L411.107 766.947L429.78 768.726L428.364 783.775C428.331 784.428 428.14 785.06 427.804 785.62C427.494 786.107 427.01 786.459 426.454 786.608C425.877 786.772 425.275 786.838 424.675 786.805H422.7L422.502 788.913L438.968 790.494L439.067 790.395ZM485.107 747.024C484.297 747.162 483.503 747.383 482.736 747.682C481.936 747.939 481.181 748.315 480.496 748.802C479.751 749.622 479.353 750.692 479.376 751.799C479.231 753.597 479.231 755.402 479.376 757.2L481.88 788.221L479.442 788.419L452.537 755.685L454.282 777.551C454.387 779.442 454.687 781.319 455.171 783.15C455.405 784.184 455.945 785.126 456.719 785.85C457.542 786.417 458.491 786.769 459.485 786.871C460.381 787.085 461.296 787.217 462.219 787.266V789.374L445.752 790.691V788.584C446.601 788.373 447.439 788.109 448.256 787.793C449.036 787.54 449.77 787.161 450.429 786.674C451.084 785.933 451.48 784.994 451.549 784.006C451.74 782.047 451.74 780.071 451.549 778.111L449.869 757.233C449.793 756.294 449.573 755.369 449.211 754.499C448.901 753.739 448.43 753.05 447.826 752.49C446.977 751.815 446.002 751.311 444.961 751.008L443.447 750.613V748.242L453.327 747.452L478.322 777.98L476.676 757.792C476.57 755.879 476.271 753.982 475.786 752.128C475.572 751.14 475.039 750.251 474.272 749.592C473.442 749.164 472.556 748.865 471.637 748.703C470.731 748.473 469.803 748.351 468.871 748.341V746.2L485.041 744.916V747.024H485.107ZM511.255 783.446L493.505 786.443L493.142 784.368L495.283 783.808C495.961 783.67 496.613 783.44 497.226 783.117C497.733 782.82 498.138 782.369 498.379 781.833C498.553 781.207 498.553 780.548 498.379 779.922L493.241 749.559C493.162 748.963 492.958 748.394 492.648 747.88C492.234 747.379 491.647 747.05 491.002 746.958C490.274 746.793 489.54 746.684 488.795 746.629C488.084 746.563 487.366 746.563 486.655 746.629L486.293 744.521L504.043 741.524L504.405 743.632C503.72 743.763 503.048 743.951 502.396 744.192C501.711 744.425 501.039 744.699 500.387 745.015C499.801 745.295 499.357 745.809 499.169 746.431C499.037 747.027 499.037 747.646 499.169 748.242L504.306 778.605C504.382 779.208 504.619 779.778 504.998 780.252C505.406 780.743 505.959 781.088 506.579 781.24C507.231 781.365 507.893 781.431 508.554 781.437C509.322 781.49 510.092 781.49 510.86 781.437L511.222 783.512L511.255 783.446ZM535.889 778.441C539.149 777.578 542.06 775.727 544.22 773.139C546.46 770.086 547.702 766.417 547.778 762.633L545.472 762.205C545.409 763.565 545.185 764.912 544.813 766.223C544.471 767.471 543.964 768.67 543.298 769.78C541.836 772.124 539.561 773.847 536.91 774.62C535.059 775.177 533.096 775.246 531.213 774.818C529.309 774.318 527.527 773.432 525.976 772.216C524.28 770.807 522.815 769.137 521.629 767.277C520.289 765.126 519.258 762.798 518.567 760.361C517.727 757.677 517.22 754.901 517.052 752.095C516.923 749.876 517.157 747.653 517.743 745.509C518.297 743.708 519.268 742.058 520.576 740.701C521.814 739.44 523.355 738.521 525.054 738.033C526.497 737.622 528.025 737.622 529.467 738.033C530.929 738.461 532.286 739.193 533.452 740.174C534.703 741.231 535.81 742.45 536.745 743.796C537.736 745.14 538.639 746.549 539.445 748.012L541.652 747.353L537.074 732.896L534.901 733.522L534.374 735.827C532.76 735.336 531.087 735.073 529.401 735.037C527.583 734.997 525.769 735.251 524.033 735.794C521.606 736.551 519.36 737.806 517.447 739.482C515.537 741.182 514.008 743.27 512.967 745.608C511.848 748.134 511.222 750.85 511.123 753.61C511.024 756.755 511.449 759.89 512.375 762.897C513.211 765.907 514.585 768.739 516.426 771.261C517.994 773.425 519.96 775.269 522.222 776.695C524.287 777.983 526.595 778.826 529.006 779.165C531.305 779.406 533.626 779.158 535.823 778.441H535.889Z" fill="#004D65"/>
<path fill-rule="evenodd" clip-rule="evenodd" d="M445.066 19.8265C679.695 19.8265 869.898 210.025 869.898 444.646C869.898 679.268 679.695 869.465 445.066 869.465C210.438 869.465 20.2344 679.268 20.2344 444.646C20.2344 210.025 210.438 19.8265 445.066 19.8265ZM445.066 0.429688C199.798 0.429688 0.968749 199.253 0.96875 444.514C0.968751 689.776 199.798 888.598 445.066 888.598C690.335 888.598 889.163 689.776 889.163 444.514C889.163 444.504 889.163 444.491 889.163 444.481C889.143 199.233 690.322 0.429687 445.066 0.429688Z" fill="#004D65"/>
</svg>
