<svg xmlns="http://www.w3.org/2000/svg" xmlns:xlink="http://www.w3.org/1999/xlink" width="130.73519897460938" height="130.732177734375" viewBox="0 0 130.73519897460938 130.732177734375" fill="none">
<path d="M65.261 7.62939e-05C29.1581 0.0600763 -0.0579376 29.3751 7.6294e-05 65.4741C0.0620727 101.576 29.382 130.792 65.478 130.732C101.577 130.669 130.794 101.359 130.735 65.2551C130.67 29.1572 101.356 -0.0588237 65.261 7.62939e-05ZM65.4731 128.255C30.742 128.316 2.53706 100.204 2.48007 65.4712C2.42107 30.7342 30.534 2.53318 65.262 2.47418C99.994 2.41518 128.201 30.5262 128.259 65.2592C128.322 99.9942 100.207 128.195 65.4731 128.255Z"   fill="#009444" >
</path>
<path d="M11.9993 64.3909L12.1483 65.2029C11.8224 65.2719 11.5643 65.3849 11.3694 65.5469C11.1704 65.7079 11.0233 65.9409 10.9193 66.2509C10.8203 66.5619 10.7883 66.9009 10.8203 67.2739C10.8503 67.6029 10.9283 67.8929 11.0464 68.1379C11.1743 68.3799 11.3214 68.5549 11.5013 68.6639C11.6844 68.7689 11.8763 68.8139 12.0783 68.7969C12.2874 68.7759 12.4594 68.7009 12.6033 68.5689C12.7413 68.4339 12.8573 68.2229 12.9344 67.9419C12.9843 67.7609 13.0563 67.3599 13.1454 66.7479C13.2293 66.1339 13.3323 65.6989 13.4323 65.4499C13.5653 65.1199 13.7503 64.8669 13.9793 64.6909C14.2083 64.5149 14.4724 64.4149 14.7704 64.3859C15.1003 64.3559 15.4204 64.4219 15.7243 64.5799C16.0313 64.7439 16.2744 64.9949 16.4563 65.3399C16.6414 65.6849 16.7463 66.0809 16.7903 66.5219C16.8394 67.0069 16.7983 67.4399 16.6723 67.8259C16.5523 68.2129 16.3493 68.5149 16.0623 68.7489C15.7834 68.9719 15.4474 69.1109 15.0623 69.1639L14.9214 68.3389C15.3354 68.2519 15.6274 68.0759 15.8214 67.7959C16.0103 67.5209 16.0753 67.1309 16.0273 66.6249C15.9833 66.1039 15.8513 65.7319 15.6383 65.5099C15.4223 65.2879 15.1783 65.1889 14.9084 65.2159C14.6723 65.2369 14.4883 65.3399 14.3533 65.5229C14.2163 65.7059 14.1003 66.1529 14.0114 66.8739C13.9103 67.5909 13.8214 68.0869 13.7234 68.3589C13.5833 68.7579 13.3864 69.0599 13.1364 69.2669C12.8864 69.4709 12.5863 69.5919 12.2333 69.6249C11.8833 69.6599 11.5443 69.5859 11.2193 69.4149C10.8954 69.2449 10.6263 68.9809 10.4214 68.6249C10.2163 68.2689 10.0934 67.8539 10.0464 67.3859C9.99335 66.7959 10.0303 66.2919 10.1683 65.8739C10.3053 65.4579 10.5294 65.1239 10.8614 64.8599C11.1783 64.6019 11.5623 64.4429 11.9993 64.3909Z"   fill="#009444" >
</path>
<path d="M13.6582 70.333C14.7312 70.133 15.6172 70.266 16.3382 70.731C17.0471 71.196 17.4842 71.882 17.6582 72.792C17.7642 73.39 17.7232 73.953 17.5251 74.489C17.3271 75.02 16.9982 75.454 16.5332 75.801C16.0722 76.148 15.5142 76.38 14.8672 76.5C14.2172 76.622 13.6082 76.595 13.0402 76.427C12.4781 76.26 12.0102 75.955 11.6582 75.52C11.3032 75.086 11.0692 74.586 10.9682 74.025C10.8522 73.417 10.9082 72.844 11.1082 72.315C11.3132 71.78 11.6461 71.341 12.1102 71.003C12.5742 70.659 13.0882 70.439 13.6582 70.333ZM13.8042 71.219C13.0292 71.359 12.4532 71.683 12.0782 72.186C11.7122 72.685 11.5822 73.253 11.6982 73.886C11.8202 74.531 12.1352 75.018 12.6712 75.348C13.2021 75.679 13.8831 75.77 14.7122 75.615C15.2402 75.521 15.6782 75.343 16.0381 75.094C16.4001 74.845 16.6582 74.53 16.8051 74.15C16.9632 73.763 17.0012 73.363 16.9242 72.937C16.8082 72.329 16.5041 71.847 16.0081 71.489C15.5102 71.127 14.7792 71.037 13.8042 71.219Z"   fill="#009444" >
</path>
<path d="M19.5014 80.6418L19.7414 81.4798L16.1024 82.5488C15.4664 82.7348 14.9414 82.8128 14.5274 82.7778C14.1104 82.7469 13.7344 82.5738 13.3904 82.2708C13.0384 81.9668 12.7794 81.5068 12.6044 80.9028C12.4364 80.3088 12.3934 79.7948 12.4834 79.3598C12.5724 78.9238 12.7944 78.5678 13.1314 78.2938C13.4704 78.0239 13.9734 77.7879 14.6424 77.5908L18.2844 76.5208L18.5314 77.3558L14.8904 78.4248C14.3434 78.5848 13.9564 78.7538 13.7274 78.9338C13.4904 79.1098 13.3454 79.3439 13.2794 79.6328C13.2094 79.9208 13.2304 80.2458 13.3364 80.6038C13.5174 81.2178 13.7814 81.6208 14.1394 81.7948C14.4964 81.9748 15.0684 81.9458 15.8584 81.7148L19.5014 80.6418Z"   fill="#009444" >
</path>
<path d="M14.6245 86.4172L19.9934 84.2292L19.1815 82.2192L19.8984 81.9272L21.8655 86.7522L21.1435 87.0492L20.3195 85.0352L14.9504 87.2252L14.6245 86.4172Z"   fill="#009444" >
</path>
<path d="M16.2416 90.2317L22.0276 87.1067L22.4397 87.8747L20.0647 89.1517L21.6887 92.1607L24.0666 90.8767L24.4716 91.6447L18.6956 94.7677L18.2766 94.0037L21.0077 92.5267L19.3867 89.5257L16.6617 90.9957L16.2416 90.2317Z"   fill="#009444" >
</path>
<path d="M20.1978 97.1194L24.4288 91.8004L24.9658 92.5154L22.1008 95.8884C21.8038 96.2434 21.4987 96.5864 21.1868 96.9124C21.8468 96.6294 22.2348 96.4674 22.3378 96.4244L26.6498 94.7834L27.2738 95.6254L25.1668 98.3644C24.6458 99.0474 24.1248 99.6474 23.6058 100.163C23.9848 99.9814 24.4297 99.7854 24.9458 99.5714L28.9518 97.8814L29.4698 98.5844L23.1178 101.057L22.6198 100.383L25.8168 96.2864C26.0808 95.9384 26.2498 95.7314 26.3168 95.6614C26.0268 95.7844 25.7868 95.8844 25.5738 95.9644L20.7218 97.8334L20.1978 97.1194Z"   fill="#009444" >
</path>
<path d="M24.9691 103.192L29.6191 98.5536L32.9741 101.921L32.4261 102.466L29.6851 99.7147L28.2611 101.138L30.8252 103.713L30.2812 104.256L27.7122 101.682L26.1302 103.259L28.9792 106.12L28.4301 106.667L24.9691 103.192Z"   fill="#009444" >
</path>
<path d="M30.5405 105.731L31.2335 106.181C31.0605 106.462 30.9665 106.731 30.9465 106.984C30.9285 107.237 30.9955 107.511 31.1525 107.794C31.3115 108.082 31.5315 108.34 31.8305 108.57C32.0865 108.774 32.3525 108.917 32.6045 108.999C32.8725 109.074 33.1035 109.085 33.3075 109.025C33.5085 108.967 33.6725 108.858 33.7995 108.697C33.9325 108.538 33.9875 108.359 33.9915 108.166C33.9935 107.967 33.9125 107.74 33.7675 107.49C33.6675 107.328 33.4285 107.002 33.0395 106.518C32.6555 106.032 32.4095 105.665 32.2955 105.414C32.1535 105.09 32.0945 104.783 32.1185 104.498C32.1515 104.208 32.2565 103.944 32.4455 103.71C32.6465 103.45 32.9125 103.266 33.2395 103.153C33.5665 103.043 33.9185 103.041 34.2925 103.146C34.6715 103.252 35.0335 103.441 35.3855 103.715C35.7675 104.012 36.0565 104.339 36.2525 104.692C36.4475 105.047 36.5335 105.405 36.4985 105.768C36.4735 106.13 36.3395 106.471 36.1135 106.78L35.4175 106.318C35.6435 105.963 35.7205 105.623 35.6445 105.295C35.5715 104.971 35.3365 104.648 34.9395 104.338C34.5245 104.015 34.1635 103.854 33.8535 103.857C33.5455 103.859 33.3095 103.968 33.1375 104.184C32.9975 104.366 32.9385 104.573 32.9805 104.797C33.0195 105.022 33.2685 105.418 33.7275 105.976C34.1845 106.542 34.4795 106.949 34.6085 107.207C34.8065 107.58 34.8885 107.929 34.8615 108.252C34.8455 108.578 34.7215 108.882 34.5045 109.16C34.2875 109.432 34.0065 109.631 33.6575 109.752C33.3115 109.872 32.9325 109.884 32.5295 109.789C32.1315 109.691 31.7465 109.502 31.3745 109.209C30.9075 108.84 30.5705 108.468 30.3605 108.085C30.1535 107.697 30.0645 107.296 30.1015 106.881C30.1315 106.467 30.2795 106.084 30.5405 105.731Z"   fill="#009444" >
</path>
<path d="M35.938 112.255L38.9569 107.308L37.11 106.18L37.5129 105.517L41.959 108.23L41.559 108.893L39.6999 107.758L36.684 112.71L35.938 112.255Z"   fill="#009444" >
</path>
<path d="M42.1616 115.606L44.6166 109.509L48.7285 111.16L48.4385 111.881L45.1375 110.548L44.3766 112.438L47.2356 113.588L46.9506 114.308L44.0866 113.158L42.9735 115.929L42.1616 115.606Z"   fill="#009444" >
</path>
<path d="M48.2625 114.595C48.5395 113.54 49.0375 112.79 49.7615 112.342C50.4855 111.889 51.2945 111.789 52.1925 112.021C52.7795 112.177 53.2705 112.457 53.6715 112.858C54.0665 113.265 54.3215 113.752 54.4375 114.317C54.5545 114.883 54.5275 115.484 54.3615 116.125C54.1935 116.766 53.9095 117.308 53.5145 117.747C53.1225 118.19 52.6505 118.478 52.1055 118.611C51.5585 118.751 51.0075 118.743 50.4555 118.6C49.8585 118.443 49.3625 118.155 48.9635 117.743C48.5665 117.332 48.3145 116.845 48.2095 116.28C48.0935 115.714 48.1135 115.15 48.2625 114.595ZM49.1265 114.835C48.9255 115.603 48.9715 116.261 49.2695 116.809C49.5595 117.356 50.0225 117.717 50.6485 117.881C51.2735 118.044 51.8545 117.96 52.3795 117.622C52.9025 117.288 53.2775 116.709 53.4975 115.89C53.6285 115.371 53.6595 114.897 53.5875 114.464C53.5105 114.03 53.3355 113.666 53.0575 113.366C52.7735 113.063 52.4215 112.856 52.0055 112.748C51.4125 112.587 50.8465 112.664 50.3105 112.955C49.7735 113.252 49.3735 113.879 49.1265 114.835Z"   fill="#009444" >
</path>
<path d="M55.0203 119.543L55.8473 113.019L58.7363 113.384C59.3203 113.46 59.7542 113.573 60.0432 113.729C60.3232 113.883 60.5403 114.12 60.6823 114.443C60.8263 114.759 60.8783 115.096 60.8312 115.458C60.7773 115.921 60.5713 116.291 60.2372 116.572C59.8972 116.849 59.4073 116.994 58.7743 116.999C58.9872 117.137 59.1483 117.266 59.2542 117.388C59.4773 117.654 59.6793 117.969 59.8553 118.349L60.7703 120.269L59.6873 120.128L58.9933 118.661C58.7833 118.243 58.6183 117.915 58.4832 117.689C58.3473 117.459 58.2143 117.295 58.0983 117.195C57.9803 117.096 57.8542 117.025 57.7273 116.973C57.6323 116.941 57.4733 116.908 57.2483 116.88L56.2452 116.755L55.8823 119.651L55.0203 119.543ZM56.3423 116.005L58.1982 116.24C58.5942 116.291 58.9052 116.29 59.1382 116.235C59.3672 116.18 59.5633 116.073 59.6953 115.908C59.8383 115.744 59.9153 115.554 59.9432 115.346C59.9803 115.038 59.9063 114.769 59.7062 114.538C59.5042 114.316 59.1642 114.171 58.6802 114.109L56.6133 113.85L56.3423 116.005Z"   fill="#009444" >
</path>
<path d="M61.9721 120.297L62.0092 113.722L66.7621 113.746L66.7602 114.525L62.8722 114.503L62.8632 116.516L66.4991 116.533L66.4951 117.307L62.8632 117.287L62.8462 119.523L66.8852 119.549L66.8792 120.32L61.9721 120.297Z"   fill="#009444" >
</path>
<path d="M67.9234 118.159L68.7354 117.998C68.8124 118.323 68.9254 118.582 69.0844 118.771C69.2564 118.97 69.4944 119.113 69.8044 119.208C70.1144 119.309 70.4594 119.334 70.8274 119.291C71.1564 119.256 71.4444 119.176 71.6914 119.051C71.9264 118.928 72.0964 118.766 72.2044 118.587C72.3084 118.4 72.3524 118.208 72.3224 118.006C72.3124 117.801 72.2304 117.629 72.0884 117.491C71.9584 117.349 71.7434 117.242 71.4584 117.168C71.2774 117.117 70.8794 117.053 70.2664 116.98C69.6504 116.899 69.2134 116.807 68.9534 116.707C68.6244 116.578 68.3734 116.403 68.1904 116.175C68.0124 115.951 67.9054 115.69 67.8774 115.389C67.8354 115.057 67.8994 114.741 68.0504 114.434C68.2124 114.125 68.4574 113.877 68.8044 113.689C69.1474 113.502 69.5344 113.388 69.9724 113.334C70.4594 113.285 70.8974 113.313 71.2794 113.43C71.6674 113.547 71.9814 113.741 72.2114 114.023C72.4444 114.305 72.5864 114.637 72.6484 115.013L71.8194 115.172C71.7354 114.763 71.5484 114.471 71.2704 114.287C70.9864 114.103 70.5964 114.038 70.0914 114.096C69.5734 114.151 69.2004 114.289 68.9854 114.51C68.7644 114.726 68.6754 114.969 68.7024 115.239C68.7254 115.474 68.8364 115.655 69.0184 115.789C69.2034 115.923 69.6514 116.032 70.3744 116.112C71.0944 116.196 71.5894 116.281 71.8644 116.371C72.2604 116.503 72.5704 116.696 72.7774 116.944C72.9884 117.194 73.1154 117.492 73.1544 117.844C73.1894 118.188 73.1284 118.528 72.9684 118.855C72.7984 119.185 72.5374 119.457 72.1854 119.668C71.8274 119.884 71.4174 120.014 70.9494 120.063C70.3594 120.13 69.8554 120.099 69.4444 119.968C69.0234 119.841 68.6804 119.617 68.4114 119.295C68.1524 118.973 67.9864 118.596 67.9234 118.159Z"   fill="#009444" >
</path>
<path d="M76.3481 119.079L75.1031 113.418L72.9872 113.886L72.8232 113.124L77.9062 112.006L78.0721 112.767L75.9471 113.229L77.1952 118.89L76.3481 119.079Z"   fill="#009444" >
</path>
<path d="M80.3624 118.13L78.2404 111.907L80.9985 110.966C81.5504 110.777 81.9894 110.688 82.3204 110.702C82.6474 110.714 82.9434 110.834 83.2164 111.058C83.4824 111.28 83.6784 111.561 83.7934 111.905C83.9404 112.35 83.9295 112.768 83.7464 113.17C83.5614 113.57 83.1884 113.912 82.6174 114.197C82.8764 114.227 83.0744 114.276 83.2204 114.339C83.5404 114.475 83.8594 114.673 84.1854 114.933L85.8474 116.259L84.8124 116.608L83.5484 115.599C83.1834 115.306 82.8814 115.087 82.6584 114.943C82.4394 114.799 82.2485 114.705 82.1004 114.67C81.9524 114.634 81.8094 114.621 81.6694 114.635C81.5694 114.643 81.4104 114.685 81.1984 114.758L80.2414 115.089L81.1874 117.847L80.3624 118.13ZM79.9985 114.371L81.7694 113.767C82.1444 113.641 82.4304 113.501 82.6144 113.35C82.8034 113.198 82.9184 113.018 82.9724 112.81C83.0194 112.603 83.0154 112.398 82.9434 112.196C82.8404 111.902 82.6554 111.695 82.3774 111.582C82.0974 111.465 81.7264 111.487 81.2694 111.642L79.3024 112.313L79.9985 114.371Z"   fill="#009444" >
</path>
<path d="M88.2895 115.096L87.0865 112.58L83.1725 110.248L84.1306 109.798L86.1486 111.029C86.5255 111.257 86.8896 111.497 87.2306 111.745C87.2635 111.349 87.3105 110.899 87.3816 110.385L87.6996 108.095L88.6176 107.659L87.8766 112.206L89.0716 114.724L88.2895 115.096Z"   fill="#009444" >
</path>
<path d="M94.3657 103.829L95.0736 103.328L97.2667 106.43C97.6466 106.968 97.8886 107.44 97.9926 107.846C98.0937 108.246 98.0566 108.659 97.8796 109.085C97.7026 109.505 97.3506 109.903 96.8297 110.27C96.3366 110.623 95.8596 110.825 95.4196 110.878C94.9746 110.931 94.5707 110.843 94.1986 110.609C93.8336 110.38 93.4486 109.982 93.0457 109.408L90.8586 106.31L91.5616 105.809L93.7567 108.902C94.0816 109.371 94.3687 109.685 94.6157 109.841C94.8527 110.003 95.1216 110.066 95.4236 110.039C95.7147 110.008 96.0136 109.888 96.3186 109.674C96.8466 109.3 97.1327 108.918 97.1856 108.527C97.2466 108.136 97.0316 107.6 96.5577 106.927L94.3657 103.829Z"   fill="#009444" >
</path>
<path d="M100.143 107.671L95.7111 102.819L96.368 102.219L102.397 103.698L98.9171 99.8891L99.536 99.3271L103.963 104.178L103.309 104.779L97.2781 103.297L100.761 107.109L100.143 107.671Z"   fill="#009444" >
</path>
<path d="M105.173 102.838L100.333 98.3922L100.918 97.7532L105.758 102.203L105.173 102.838Z"   fill="#009444" >
</path>
<path d="M108.074 99.464L101.322 97.439L101.898 96.695L106.72 98.279C107.098 98.409 107.457 98.537 107.776 98.668C107.555 98.37 107.35 98.053 107.15 97.73L104.464 93.399L105.016 92.694L108.619 98.763L108.074 99.464Z"   fill="#009444" >
</path>
<path d="M110.742 95.8831L105.138 92.4501L107.615 88.3981L108.277 88.8031L106.253 92.1161L107.968 93.1701L109.864 90.0661L110.525 90.4691L108.628 93.5701L110.531 94.7391L112.641 91.2961L113.301 91.7001L110.742 95.8831Z"   fill="#009444" >
</path>
<path d="M113.961 90.4781L108.008 87.6851L109.248 85.0461C109.495 84.5171 109.739 84.1381 109.98 83.9131C110.212 83.6831 110.505 83.5581 110.854 83.5151C111.201 83.4781 111.537 83.5351 111.863 83.6881C112.294 83.8871 112.577 84.1931 112.741 84.6001C112.905 85.0081 112.89 85.5191 112.696 86.1261C112.897 85.9621 113.07 85.8511 113.223 85.7911C113.533 85.6601 113.899 85.5671 114.316 85.5111L116.422 85.2361L115.955 86.2241L114.35 86.4291C113.885 86.4931 113.52 86.5512 113.26 86.6131C113.005 86.6741 112.809 86.7431 112.676 86.8261C112.546 86.9081 112.437 87.0031 112.349 87.1121C112.284 87.1921 112.215 87.3341 112.117 87.5331L111.688 88.4481L114.33 89.6911L113.961 90.4781ZM111.003 88.1291L111.8 86.4381C111.97 86.0761 112.063 85.7781 112.084 85.5411C112.101 85.3002 112.059 85.0891 111.94 84.9101C111.835 84.7281 111.681 84.5901 111.487 84.4991C111.199 84.3691 110.925 84.3611 110.652 84.4831C110.369 84.6031 110.126 84.8811 109.921 85.3221L109.035 87.2061L111.003 88.1291Z"   fill="#009444" >
</path>
<path d="M114.668 83.8587L114.877 83.0597C115.196 83.1297 115.479 83.1367 115.726 83.0676C115.968 83.0047 116.203 82.8537 116.425 82.6096C116.648 82.3717 116.815 82.0787 116.939 81.7227C117.049 81.4106 117.103 81.1167 117.088 80.8447C117.078 80.5757 117.012 80.3537 116.896 80.1797C116.771 80.0047 116.615 79.8857 116.421 79.8157C116.227 79.7517 116.035 79.7497 115.855 79.8117C115.672 79.8707 115.479 80.0147 115.293 80.2436C115.171 80.3867 114.939 80.7206 114.606 81.2407C114.272 81.7637 113.997 82.1186 113.8 82.3047C113.546 82.5467 113.275 82.7007 112.992 82.7637C112.712 82.8337 112.429 82.8167 112.147 82.7127C111.834 82.6057 111.568 82.4157 111.357 82.1427C111.148 81.8707 111.032 81.5377 111.015 81.1466C110.984 80.7587 111.048 80.3537 111.195 79.9337C111.357 79.4757 111.573 79.0967 111.84 78.7967C112.112 78.4937 112.419 78.3007 112.774 78.2137C113.132 78.1247 113.491 78.1347 113.858 78.2517L113.645 79.0557C113.24 78.9627 112.894 79.0057 112.606 79.1757C112.319 79.3507 112.101 79.6746 111.934 80.1517C111.761 80.6507 111.721 81.0457 111.828 81.3337C111.931 81.6247 112.107 81.8117 112.365 81.9037C112.594 81.9787 112.803 81.9656 112.998 81.8546C113.197 81.7467 113.493 81.3847 113.873 80.7697C114.257 80.1537 114.549 79.7407 114.745 79.5327C115.037 79.2287 115.345 79.0367 115.657 78.9547C115.974 78.8727 116.297 78.8867 116.631 79.0017C116.958 79.1177 117.238 79.3207 117.463 79.6117C117.689 79.9007 117.819 80.2537 117.86 80.6677C117.898 81.0757 117.843 81.5037 117.688 81.9417C117.491 82.5047 117.251 82.9477 116.952 83.2677C116.658 83.5927 116.309 83.8027 115.904 83.9027C115.505 84.0066 115.093 83.9907 114.668 83.8587Z"   fill="#009444" >
</path>
<path d="M118.766 78.1349L112.423 76.3929L112.649 75.5569L118.998 77.2939L118.766 78.1349Z"   fill="#009444" >
</path>
<path d="M119.788 74.006L114.113 72.813L113.668 74.9331L112.909 74.773L113.98 69.675L114.743 69.836L114.295 71.964L119.97 73.153L119.788 74.006Z"   fill="#009444" >
</path>
<path d="M120.818 68.1253L118.054 67.7713L113.977 69.7963L114.112 68.7503L116.241 67.7163C116.635 67.5273 117.035 67.3543 117.428 67.1973C117.112 66.9593 116.758 66.6733 116.366 66.3353L114.618 64.8303L114.741 63.8263L118.167 66.9033L120.924 67.2633L120.818 68.1253Z"   fill="#009444" >
</path>
<path d="M65.4468 23.8714C42.4067 23.9114 23.7507 42.6224 23.7878 65.6704C23.8307 88.7164 42.5447 107.368 65.5877 107.328C88.6358 107.292 107.29 88.5764 107.247 65.5304C107.212 42.4814 88.4978 23.8324 65.4468 23.8714Z"   fill="#009444" >
</path>
<path d="M50.9683 17.5519C51.8013 16.4209 52.5783 15.4599 53.2323 14.4209C53.4203 14.1179 53.3253 13.5729 53.2363 13.1689C52.8123 11.2839 52.3243 9.41295 51.9083 7.52795C51.8063 7.06194 51.4913 6.43894 52.1773 6.14594C52.4473 6.02994 52.9363 6.02894 53.1263 6.19794C53.5203 6.54894 54.1023 6.86395 53.8953 7.59795C53.8113 7.89395 53.7793 8.23695 53.8383 8.53395C53.9903 9.28095 54.2053 10.0169 54.4063 10.7549C54.4643 10.9719 54.5573 11.1809 54.6353 11.3939C54.7243 11.4049 54.8133 11.4149 54.9043 11.4269C55.1493 10.6999 55.3933 9.97595 55.6303 9.27495C56.0993 9.55895 56.3793 10.3739 56.1303 11.1359C55.9604 11.6549 55.7633 12.1779 55.4863 12.6439C54.6113 14.1099 54.9943 15.4399 55.6873 16.8579C56.1633 17.8319 56.6633 18.0819 57.6684 17.6979C58.0243 17.5629 58.5673 17.7529 58.9553 17.9359C59.1923 18.0469 59.2983 18.4299 59.4633 18.6919C59.1853 18.8289 58.9083 19.0749 58.6273 19.0809C58.1343 19.0929 57.6393 18.9449 57.1423 18.8829C56.3113 18.7779 56.2203 18.8889 56.4213 19.7279C56.5673 20.3309 56.7393 20.9309 56.8413 21.5409C56.8703 21.7149 56.7383 22.0539 56.6163 22.0849C56.3603 22.1549 55.9203 22.1779 55.8093 22.0299C55.5473 21.6829 55.4183 21.2299 55.2663 20.8079C55.0883 20.3129 54.8903 19.9599 54.3003 20.3829C54.1143 20.5159 53.8643 20.5879 53.6343 20.6309C53.3673 20.6809 53.0883 20.6679 52.8163 20.6829C52.8353 20.3639 52.7623 19.9949 52.8963 19.7339C53.1873 19.1639 53.5803 18.6489 53.9373 18.1139C54.3603 17.4809 54.2183 16.8229 53.9693 16.1969C53.7663 15.6869 53.3743 15.8389 53.1283 16.1429C52.7743 16.5849 52.4853 17.0839 52.1883 17.5729C51.9673 17.9409 51.8433 18.3839 51.5673 18.6959C50.9423 19.3969 51.1243 20.0819 51.4473 20.8159C51.5993 21.1589 51.7803 21.5319 51.7783 21.8909C51.7763 22.1549 51.5463 22.5489 51.3223 22.6369C51.1333 22.7119 50.7873 22.4479 50.5443 22.2889C50.4033 22.1959 50.3223 22.0069 50.1383 21.7579C49.9333 22.1909 49.7973 22.5389 49.6093 22.8579C49.3933 23.2169 49.1763 23.5949 48.8783 23.8779C48.4333 24.2999 47.9513 24.1809 47.6553 23.6139C47.3293 22.9919 47.2643 22.3639 47.6223 21.7029C48.0763 20.8649 48.4893 20.0059 48.8923 19.1419C49.3633 18.1349 49.2983 17.6239 48.6513 16.9739C48.3723 17.1719 48.1093 17.4159 47.7983 17.5699C47.3153 17.8069 46.8093 18.0159 46.2913 18.1599C46.1133 18.2119 45.7813 18.0969 45.6813 17.9479C45.5993 17.8259 45.6953 17.4869 45.8223 17.3429C46.1823 16.9379 46.5723 16.5469 47.0013 16.2189C47.9373 15.5029 48.3503 14.6819 47.8633 13.4989C47.5443 12.7309 47.3753 11.9019 47.0993 11.1149C46.9133 10.5869 47.0763 10.2959 47.5853 10.1349C48.8443 9.73695 49.5793 10.1789 49.7593 11.4709C49.8293 11.9709 49.9593 12.2399 50.4573 11.7939C50.8363 11.4559 51.0013 11.7279 51.1183 12.0579C51.4063 12.8689 51.1243 13.6229 50.7943 14.3319C50.3183 15.3629 50.3793 16.3349 50.9683 17.5519Z"   fill="#009444" >
</path>
<path d="M101.146 29.0042C100.679 29.1032 100.361 29.1142 100.088 29.2342C98.688 29.8572 97.343 29.5332 96.0749 28.9142C95.4399 28.6072 94.9179 28.0492 94.381 27.5672C94.256 27.4522 94.278 27.1772 94.231 26.9782C94.4309 26.9622 94.6559 26.8822 94.8279 26.9452C95.6519 27.2442 96.446 27.6342 97.2819 27.8872C97.785 28.0392 98.3449 27.9992 98.878 28.0462C98.891 27.9632 98.904 27.8812 98.917 27.7992C98.2019 27.5112 97.369 27.3652 96.8069 26.8962C96.214 26.4002 96.222 25.5252 96.226 24.5562C96.9909 25.0192 97.58 25.4302 98.214 25.7472C98.9319 26.1072 99.67 26.4542 100.441 26.6562C100.824 26.7562 101.413 26.6572 101.705 26.4092C102.741 25.5282 103.685 24.5412 104.672 23.6052C104.821 23.4642 105.071 23.2572 105.187 23.3022C105.371 23.3732 105.549 23.6112 105.613 23.8172C106.041 25.2162 105.812 25.9042 104.654 26.7852C104.381 26.9912 104.077 27.1522 103.792 27.3442C103.363 27.6362 103.445 27.8922 103.876 28.0762C104.123 28.1802 104.419 28.1822 104.64 28.3182C104.978 28.5282 105.344 28.7642 105.551 29.0842C105.681 29.2832 105.539 29.6582 105.518 29.9552C105.245 29.9102 104.948 29.9182 104.702 29.8122C103.881 29.4552 103.087 29.0372 102.268 28.6832C101.83 28.4942 101.531 28.6742 101.563 29.1812C101.639 30.3732 101.718 31.5672 101.839 32.7542C101.927 33.5942 102.542 34.1202 103.108 34.6632C103.303 34.8502 103.475 35.0632 103.606 35.3292C102.288 35.2062 101.202 34.5732 100.186 33.8582C99.9259 33.6732 99.792 33.0772 99.86 32.7182C99.9779 32.0822 100.303 31.4862 100.524 30.8672C100.725 30.3032 100.905 29.7332 101.146 29.0042Z"   fill="#009444" >
</path>
<path d="M16.9087 49.7249C17.1597 50.4419 17.4347 51.0779 17.5927 51.7399C17.6747 52.0849 17.5837 52.4909 17.4957 52.8499C17.4567 53.0049 17.2367 53.2039 17.0837 53.2199C16.9507 53.2329 16.6927 53.0339 16.6667 52.8939C16.4137 51.5859 15.5307 51.1219 14.3187 51.0309C14.1927 51.0219 14.0807 50.8249 13.9617 50.7139C14.0947 50.5829 14.2247 50.4529 14.3607 50.3229C14.3737 50.3109 14.4057 50.3239 14.4277 50.3189C14.8877 50.2039 15.7467 50.0789 15.7437 49.9749C15.7237 49.2919 15.6717 48.5289 15.3397 47.9599C14.9687 47.3289 14.2867 46.8799 13.7477 46.3449C13.5677 46.1649 13.4147 45.9609 13.2487 45.7689C13.5387 45.5649 13.8047 45.2969 14.1257 45.1769C14.3797 45.0799 14.7007 45.1639 15.0667 45.1699C16.0547 46.3159 17.1077 47.5419 18.1777 48.7529C18.2617 48.8499 18.4667 48.8369 18.5937 48.8709C18.8137 48.5299 18.9487 48.1139 19.2307 47.9419C19.5057 47.7749 19.9307 47.8569 20.3427 47.7129C18.1907 46.3889 17.0367 43.9839 14.7637 42.7249C14.7987 42.1909 15.0177 41.9769 15.5727 42.2519C16.7357 42.8329 17.8787 43.4619 18.9837 44.1469C19.9767 44.7629 20.9307 45.4499 21.8587 46.1629C22.1437 46.3829 22.4357 46.7919 22.4417 47.1209C22.4457 47.3969 22.0957 47.7879 21.8047 47.9419C20.1967 48.7949 20.1847 48.7769 20.3077 50.5659C20.3197 50.7239 20.3097 50.8869 20.3497 51.0369C20.4747 51.5139 20.4817 51.9569 19.9587 52.1879C19.5767 52.3549 18.8737 51.9539 18.5837 51.5499C18.1507 50.9539 17.6607 50.3959 17.1837 49.8289C17.1377 49.7719 17.0267 49.7669 16.9087 49.7249Z"   fill="#009444" >
</path>
<path d="M11.3306 51.0872C11.2186 50.7452 11.0596 50.4112 10.9976 50.0612C10.7635 48.7092 10.4726 47.3582 10.3676 45.9912C10.2656 44.6332 10.3076 43.2562 10.3946 41.8942C10.4355 41.2662 11.3046 40.7152 11.9356 40.7552C12.4616 40.7882 12.3546 41.2272 12.3496 41.5302C12.3346 42.1572 12.1846 42.7882 12.2266 43.4072C12.3046 44.4802 12.5036 45.5422 12.6146 46.6112C12.7606 47.9902 12.8006 49.3592 11.8376 50.5252C11.7676 50.6092 11.7436 50.7322 11.6895 50.8312C11.6486 50.9062 11.5966 50.9772 11.5466 51.0492C11.4756 51.0622 11.4026 51.0732 11.3306 51.0872Z"   fill="#009444" >
</path>
<path d="M17.1469 55.5471C18.515 55.2921 19.714 55.8451 21.183 55.5661C20.886 55.3271 20.5899 55.0881 20.2929 54.8501C20.4299 54.7451 20.566 54.6401 20.704 54.5351C21.191 54.9171 21.6929 55.2851 22.154 55.6991C22.213 55.7521 22.119 56.1411 22.0039 56.1971C21.5379 56.4321 21.0089 56.8051 20.5519 56.7471C19.541 56.6181 18.554 56.2671 17.5649 55.9851C17.4429 55.9501 17.361 55.7781 17.1469 55.5471Z"   fill="#009444" >
</path>
<path d="M26.9736 22.8862C27.0976 22.5602 27.1606 22.3672 27.2446 22.1862C27.3446 21.9692 27.4126 21.6902 27.5866 21.5632C27.8016 21.4052 28.1746 21.2312 28.3666 21.3172C28.8396 21.5292 28.7036 21.9752 28.6076 22.4012C28.3796 23.4332 28.1626 24.4702 28.0156 25.5152C27.9726 25.8252 28.1816 26.1722 28.2756 26.5022L28.5156 26.4962C28.7026 25.7862 28.8766 25.0732 29.0746 24.3682C29.3886 23.2482 29.5826 22.0922 30.3606 21.1332C30.8206 20.5662 31.2506 20.5322 31.6956 20.9922C32.5766 21.9022 33.4116 22.8582 34.2506 23.8102C35.2036 24.8882 36.1276 25.9912 37.0856 27.0652C37.8036 27.8712 37.7336 28.7632 36.8256 29.3392C35.8106 29.9822 34.7476 30.5222 33.5156 30.6252C33.4206 30.6332 33.3096 30.6382 33.2316 30.6862C33.0576 30.7902 32.9016 30.9202 32.7376 31.0402C32.8836 31.2042 32.9986 31.4492 33.1796 31.5172C33.7136 31.7152 34.0276 32.0322 33.8866 32.6122C33.7576 33.1402 33.0196 33.4962 32.4736 33.3552C32.2416 33.2962 31.9776 33.2972 31.7746 33.1862C31.6096 33.0972 31.4956 32.8922 31.3886 32.7192C31.3236 32.6092 31.3156 32.4672 31.2826 32.3392C31.1606 32.3872 31.0366 32.4282 30.9196 32.4832C30.7416 32.5682 30.5686 32.6642 30.3916 32.7542C30.3526 32.5302 30.3006 32.3092 30.2766 32.0842C30.1766 31.1222 30.0946 30.1572 29.9806 29.1972C29.9616 29.0292 29.8206 28.8762 29.7106 28.6662C29.2576 29.0272 29.2076 29.3712 29.4216 29.8072C29.8886 30.7652 29.7626 31.0142 28.7726 31.3382C28.5446 31.4132 28.3476 31.6252 28.1686 31.8052C27.9766 31.9962 27.8236 32.2242 27.6536 32.4362C27.5926 32.4052 27.5316 32.3762 27.4716 32.3462C27.6116 31.6732 27.7766 31.0052 27.8876 30.3282C27.9956 29.6672 28.1306 28.9792 27.6096 28.5472C27.0546 29.4192 26.5286 30.3012 25.9336 31.1342C25.7846 31.3452 25.4236 31.4752 25.1436 31.5022C24.9206 31.5242 24.5606 31.3962 24.4716 31.2262C24.3866 31.0642 24.5026 30.6922 24.6536 30.5282C25.6386 29.4662 25.9436 28.1752 26.1286 26.7842C26.2616 25.7732 25.6916 25.1862 25.1386 24.5532C24.7406 24.0952 24.2646 23.7042 23.8366 23.2702C23.5376 22.9712 23.5936 22.6862 23.8696 22.3772C24.7086 21.4362 25.7866 21.4472 26.5476 22.4212C26.6356 22.5332 26.7406 22.6332 26.9736 22.8862ZM29.3676 26.9152C29.7176 26.8052 29.9286 26.6772 30.1276 26.6932C30.3236 26.7112 30.6306 26.8372 30.6736 26.9792C30.8046 27.4162 30.9026 27.8862 30.8846 28.3382C30.8566 29.0192 31.1676 29.8182 31.7836 29.9402C32.6096 30.1042 33.5156 30.3892 34.2236 29.5682C34.3346 29.4412 34.4756 29.3352 34.6216 29.2502C35.7046 28.6182 35.6606 28.3652 34.8316 27.4202C33.6626 26.0852 32.4436 24.7942 31.2576 23.4752C30.7356 22.8942 30.4686 22.9072 30.1936 23.6552C29.8836 24.5002 29.6476 25.3732 29.3976 26.2372C29.3476 26.4072 29.3786 26.6032 29.3676 26.9152Z"   fill="#009444" >
</path>
<path d="M27.5337 34.2991C28.4507 34.3611 29.3496 34.3481 30.2206 34.5071C30.7846 34.6111 30.9047 35.1461 30.7567 35.6851C30.5656 36.3821 30.0656 36.7661 29.5176 36.6531C28.9996 36.5431 27.6386 35.0251 27.5337 34.2991Z"   fill="#009444" >
</path>
<path d="M116.673 50.0266C116.142 49.4776 115.623 48.9156 115.073 48.3846C114.363 47.7006 113.638 47.0306 112.895 46.3786C112.765 46.2626 112.514 46.2986 112.343 46.2116C112.065 46.0726 111.81 45.8906 111.546 45.7266C111.688 45.4976 111.782 45.2056 111.982 45.0486C112.766 44.4326 113.401 44.5036 113.832 45.3126C114.13 45.8756 114.526 45.9116 115.014 45.7606C115.584 45.5866 116.14 45.3576 116.702 45.1566C116.832 45.1116 116.971 45.0866 117.108 45.0496C117.38 45.6336 116.877 45.7826 116.625 46.0116C116.391 46.2246 116.116 46.3136 116.306 46.7436C116.361 46.8726 116.037 47.1676 115.88 47.3956C116.26 47.8216 116.315 47.8136 117.101 47.2466C117.409 47.5786 117.669 47.9456 118.013 48.1986C118.203 48.3416 118.532 48.2946 118.866 48.2356C118.273 47.6366 117.677 47.0936 117.697 46.0756C117.874 45.8376 118.212 45.3686 118.655 45.6366C118.841 45.7506 118.667 46.4586 118.651 47.0586C119.06 47.4666 119.15 47.4446 120.17 46.4796C120.229 46.5606 120.32 46.6326 120.34 46.7166C120.547 47.6796 120.935 48.0136 121.924 48.0606C122.172 48.0726 122.419 48.0746 122.668 48.0726C122.891 48.0706 123.112 48.0566 123.341 48.0506C123.495 48.5616 123.525 49.0616 123.055 49.2946C122.762 49.4376 122.318 49.3826 121.975 49.2926C121.583 49.1916 121.228 48.9536 120.857 48.7776C120.353 48.5386 120.095 48.7006 120.103 49.2716C119.872 49.3546 119.633 49.4406 119.394 49.5256C119.927 49.6126 120.443 50.1116 120.963 49.5086C121.036 49.4236 121.491 49.6656 121.771 49.7586C121.63 49.9196 121.508 50.1956 121.346 50.2206C120.948 50.2856 120.532 50.2146 120.125 50.2346C119.614 50.2596 119.107 50.3226 118.599 50.3696C118.595 50.4386 118.591 50.5086 118.587 50.5786C118.672 50.6516 118.745 50.7586 118.844 50.7916C120.001 51.1616 121.163 51.5216 122.327 51.8826C122.465 51.9236 122.612 51.9816 122.749 51.9676C122.969 51.9476 123.258 51.9376 123.371 51.8006C123.456 51.7006 123.335 51.3926 123.254 51.1996C123.137 50.9146 122.961 50.6526 122.836 50.3696C122.795 50.2786 122.833 50.1516 122.836 50.0406C122.941 50.0656 123.101 50.0536 123.143 50.1206C123.547 50.7326 123.997 51.3256 124.297 51.9876C124.536 52.5176 124.319 52.7946 123.743 52.7816C123.133 52.7686 122.512 52.7026 121.918 52.5586C121.06 52.3526 120.224 52.0506 119.374 51.8036C119.254 51.7696 119.109 51.8166 118.976 51.8246C118.997 51.9586 118.982 52.1116 119.043 52.2216C119.21 52.5296 119.388 52.8336 119.598 53.1126C119.909 53.5286 119.906 54.0916 119.56 54.3746C119.121 54.7326 118.377 54.6736 118.06 54.2416C117.065 52.8846 116.077 51.5246 115.082 50.1696C115.041 50.1136 114.951 50.0916 114.754 49.9836C114.806 50.2986 114.871 50.5006 114.863 50.6996C114.851 50.9996 114.787 51.2986 114.745 51.5956C114.474 51.5026 114.184 51.4386 113.934 51.3036C113.678 51.1666 113.459 50.9566 113.225 50.7786C113.157 50.8226 113.09 50.8676 113.022 50.9126C113.229 51.3796 113.41 51.8606 113.652 52.3076C113.927 52.8156 114.265 53.2876 114.557 53.7846C114.637 53.9216 114.727 54.1266 114.682 54.2476C114.6 54.4576 114.437 54.6626 114.254 54.7906C114.2 54.8276 113.901 54.6306 113.813 54.4816C113.274 53.5796 112.75 52.6686 112.253 51.7426C112.095 51.4466 111.922 51.3506 111.614 51.4636C110.994 51.6876 110.382 51.9436 109.747 52.1206C109.218 52.2676 108.662 52.3416 108.113 52.4046C108.023 52.4146 107.825 52.2106 107.819 52.0966C107.803 51.7546 107.811 51.3966 107.887 51.0616C108.06 50.2836 108.275 49.5116 108.481 48.7406C108.521 48.5896 108.598 48.4466 108.656 48.3006C108.729 48.2896 108.805 48.2796 108.877 48.2686C108.934 48.4906 109.032 48.7096 109.04 48.9306C109.057 49.3836 109.015 49.8376 109.014 50.2896C109.013 50.7026 109.204 50.8936 109.642 50.8236C110.087 50.7516 110.538 50.7166 110.986 50.6546C111.56 50.5726 111.683 50.2686 111.348 49.8016C110.856 49.1186 110.378 48.4266 109.893 47.7426C109.833 47.6596 109.765 47.5806 109.685 47.5156C108.968 46.9326 108.892 46.5126 109.288 45.7116C109.504 45.2726 109.773 45.2376 110.019 45.5936C110.541 46.3506 111.029 47.1336 111.481 47.9326C111.814 48.5226 112.034 49.1756 112.375 49.7596C112.487 49.9506 112.822 50.0096 113.056 50.1306C113.106 49.9046 113.172 49.6796 113.207 49.4526C113.25 49.1686 113.269 48.8796 113.3 48.5916C113.621 48.6626 113.99 48.6556 114.253 48.8186C114.809 49.1646 115.298 49.6176 115.844 49.9866C116.038 50.1196 116.313 50.1356 116.553 50.2066C116.594 50.1456 116.632 50.0866 116.673 50.0266ZM116.192 50.7646C116.976 51.6686 117.569 52.5486 118.685 52.8366C118.871 52.0016 117.543 50.8546 116.192 50.7646ZM117.33 48.9876C117.273 49.1116 117.218 49.2346 117.16 49.3566C117.448 49.5256 117.723 49.7496 118.032 49.8416C118.194 49.8866 118.426 49.7006 118.624 49.6196C118.617 49.5446 118.611 49.4676 118.603 49.3926C118.18 49.2586 117.754 49.1226 117.33 48.9876Z"   fill="#009444" >
</path>
<path d="M118.314 44.6663C119.706 44.7713 120.926 44.8493 122.142 44.9793C122.267 44.9933 122.463 45.3423 122.442 45.5123C122.389 45.9353 121.686 46.3953 121.299 46.2383C120.387 45.8743 119.501 45.4453 118.606 45.0333C118.527 44.9983 118.484 44.8853 118.314 44.6663Z"   fill="#009444" >
</path>
<path d="M79.4633 20.3517C80.4143 20.6227 81.1404 20.6757 81.3413 21.6497C81.3943 21.9047 81.4413 21.9107 81.3503 22.1487C81.2713 22.3557 81.0284 22.8277 80.8264 22.9027C80.7344 22.9377 80.5383 22.8287 80.4393 22.6517C80.1393 22.1197 79.8734 21.5667 79.6114 21.0127C79.5393 20.8557 79.5303 20.6677 79.4633 20.3517Z"   fill="#009444" >
</path>
<path d="M84.7045 12.3181C83.9975 12.1241 82.8105 11.8771 82.0285 11.6341C82.7405 11.2021 83.9195 10.9411 84.7075 11.0441C85.1645 11.1071 85.5385 11.0081 85.6585 10.5271C85.7745 10.0621 85.5445 9.73614 85.0865 9.61014C84.6695 9.49614 84.2145 9.34414 84.3345 8.92614C84.3925 8.72914 84.7195 8.42414 84.6855 8.21914C84.6335 7.91114 84.6905 7.78114 84.4485 7.30614C84.0455 7.16214 83.9825 7.75614 83.8375 8.02814C83.4325 8.78314 82.9495 9.44214 82.0595 9.63314C81.8515 9.67814 81.2515 9.62714 81.0305 9.60914C81.0505 9.36714 81.2265 8.97614 81.3115 8.76114C81.6985 7.80214 81.6225 7.41114 80.6035 7.21814C80.4325 7.18514 80.1095 7.34114 80.0385 7.49414C79.8255 7.95414 79.7025 8.45514 79.5435 8.94214C79.3955 9.39114 79.1325 9.67014 78.6075 9.62814C77.8535 9.56714 77.1865 9.63014 76.4285 9.59814C76.2535 9.59114 75.8965 9.50014 75.8295 9.60714C75.7345 9.75214 75.6975 10.0721 75.7925 10.1771C76.0505 10.4631 76.3865 10.8641 76.6985 10.8731C77.2315 10.8871 77.7985 10.6961 78.2975 10.4721C78.5735 10.3481 78.7535 10.2211 78.9135 10.5271C79.0955 10.8751 78.4315 11.9661 78.0395 12.0341C76.7055 12.2661 75.3825 12.3861 74.1075 11.7601C74.0155 11.7141 73.9045 11.6941 73.7995 11.6801C73.3375 11.6171 73.0675 11.8731 73.2305 12.2781C73.5985 13.1881 74.1925 13.6671 74.9765 13.5391C75.7685 13.4091 76.7915 13.1671 77.5945 13.1081C78.0895 13.0721 77.9665 13.4861 77.7715 13.9511C77.6445 14.2541 77.5425 14.6721 77.6535 14.9501C77.9225 15.6221 77.9665 15.5761 77.2445 15.8321C77.0465 15.9021 76.8605 16.1501 76.7815 16.3581C76.7465 16.4521 76.9415 16.7041 77.1055 16.7991C77.4515 17.0011 77.5695 16.8451 77.6335 17.1951C76.0295 17.3482 76.0135 17.5282 75.9085 17.5602C75.7355 17.6132 75.5655 17.8582 75.5635 17.9762C75.5615 18.1982 75.6675 18.4802 75.8275 18.6322C75.9975 18.7952 76.3315 18.7542 76.5775 18.8072C76.7715 18.8492 77.0615 18.5592 77.3295 19.0062C76.5075 19.7032 75.8535 19.9422 75.1405 20.0922C74.4555 20.2352 73.8405 20.3052 73.1755 20.5042C72.9425 20.5732 72.7465 21.0142 72.6865 21.2992C72.6555 21.4472 72.8905 21.5482 73.0895 21.6712C73.6075 21.9902 74.1355 21.6462 74.6025 21.3862C75.0405 21.1442 75.3305 20.9092 75.8165 20.7532C76.2545 21.2022 76.5765 21.0412 76.3985 22.3372C76.3175 22.7932 76.4255 23.0922 76.9625 23.2072C77.4005 23.3002 77.9005 23.0482 78.0405 22.5702C78.2605 21.8222 78.3245 21.6032 78.4615 20.6072C78.8155 18.0132 78.8205 18.4262 80.6105 18.5692C80.7955 18.5842 81.0835 18.4252 81.1665 18.2652C81.2505 18.1052 80.9445 17.6402 80.8435 17.4672C80.7155 17.2512 79.9255 17.3232 79.6975 17.1111C79.9475 16.9961 80.9345 16.8581 81.0795 16.7031C81.2795 16.4921 81.6175 16.2161 81.5895 15.9831C81.5285 15.4791 81.8065 15.3351 82.1515 15.2011C82.8685 14.9281 83.1775 14.4871 83.0955 13.7591C83.0795 13.6281 82.9445 13.4371 82.8275 13.4041C82.2325 13.2391 81.6395 13.0971 81.0285 13.4271C80.7185 13.5961 80.3535 13.6921 79.9995 13.7471C79.8315 13.7751 79.6385 13.6331 79.4555 13.5681C79.2385 13.2011 79.3255 12.9891 79.5085 12.9261C79.7985 12.8271 80.1395 12.8571 80.4575 12.8591C81.3955 12.8731 82.4835 12.4001 83.5985 13.4041C83.9245 13.6991 84.2705 13.9751 84.6115 14.2511C85.0725 14.6211 85.4235 14.3621 85.5365 13.8331C85.7125 13.0141 85.4995 12.5361 84.7045 12.3181ZM80.6455 14.3871C81.0495 14.9001 78.7285 16.0121 78.8585 15.2041C78.8255 14.6351 80.6245 14.0901 80.6455 14.3871ZM81.3325 10.5041C80.8325 10.7671 80.7135 11.1501 80.3325 11.0301C80.3325 11.0301 80.0685 10.5291 80.5685 10.2671C81.0695 10.0041 81.8325 10.2411 81.3325 10.5041Z"   fill="#009444" >
</path>
<path d="M95.2066 77.8177C90.8186 76.0997 74.8116 70.4447 68.3146 76.5357C76.1466 72.2587 86.6476 75.4837 94.8406 78.5177L97.7316 81.3977C90.7286 78.7877 69.0816 71.0717 67.3296 82.6337L63.4606 82.6377C61.6706 71.0887 40.0476 78.8757 33.0606 81.5057L35.9376 78.6157C44.1196 75.5577 54.6076 72.2927 62.4516 76.5467C55.9406 70.4747 39.9476 76.1887 35.5606 77.9207L29.7376 83.7647C39.2216 79.5697 61.8386 71.8517 62.5886 83.5537L65.3986 83.5477L68.2016 83.5467C68.9156 71.8387 91.5556 79.4817 101.057 83.6437L95.2066 77.8177Z"   fill="#FFFFFF" >
</path>
<path d="M91.771 71.0149C87.379 69.2979 73.818 64.0549 68.148 69.7399C74.142 65.9009 82.988 68.4579 91.174 71.4899L93.48 73.7899C86.482 71.1799 68.493 65.0799 67.198 75.0309L63.566 75.0359C62.236 65.0929 44.267 71.2479 37.279 73.8819L39.578 71.5769C47.751 68.5169 56.597 65.9299 62.596 69.7499C56.909 64.0809 43.359 69.3709 38.979 71.1029L34.171 75.9219C43.657 71.7299 62.497 66.1759 62.861 75.7239L65.377 75.7169L67.908 75.7179C68.238 66.1669 87.096 71.6559 96.593 75.8179L91.771 71.0149Z"   fill="#FFFFFF" >
</path>
<path d="M88.9458 64.9007C84.6588 63.0897 72.0478 58.7077 67.8058 63.7637C72.5578 60.2927 80.2558 62.2387 88.4488 65.2707L90.5578 67.3787C83.5548 64.7647 67.9138 59.9007 66.9018 68.4426L63.8408 68.4477C62.7948 59.9067 47.1728 64.8257 40.1768 67.4627L42.2837 65.3487C50.4668 62.2877 58.1558 60.3157 62.9228 63.7737C58.6608 58.7317 46.0708 63.1557 41.7858 64.9797L37.6408 69.1387C47.2178 65.0387 62.9408 60.8387 63.1778 69.1337L65.3688 69.1297L67.5648 69.1297C67.7698 60.8337 83.5088 64.9817 93.1038 69.0467L88.9458 64.9007Z"   fill="#FFFFFF" >
</path>
<path d="M83.0031 53.6782C79.5151 52.2072 69.7911 48.8112 65.3431 53.8102C60.8901 48.8242 51.1681 52.2562 47.6871 53.7362L44.0761 57.3512C53.6591 53.2533 63.4651 51.3812 63.6971 57.0612L65.3531 57.0552L67.0051 57.0552C67.2171 51.3732 77.0281 53.2162 86.6201 57.2782L83.0031 53.6782ZM66.3881 56.4982L64.3101 56.5013C63.5891 50.3542 53.2271 53.3003 46.2281 55.9352L47.9941 54.1632C54.3671 51.5362 62.0741 50.3732 65.3481 54.5562C68.6041 50.3622 76.3141 51.4982 82.6941 54.1053L84.4661 55.8722C77.4691 53.2593 67.0861 50.3512 66.3881 56.4982Z"   fill="#FFFFFF" >
</path>
<path d="M86.1724 59.1731C81.8774 57.3581 71.1274 53.9381 67.4664 58.2561C71.4684 55.6021 77.6074 56.5171 85.8004 59.5481L87.8184 61.5651C80.8174 58.9511 67.6414 54.8141 66.7814 62.4621L63.9364 62.4651C63.0524 54.8191 49.8904 59.0061 42.8964 61.6401L44.9114 59.6171C53.0974 56.5571 59.2304 55.6201 63.2364 58.2651C59.5624 53.9591 48.8274 57.4151 44.5364 59.2421L40.7784 63.0211C50.3504 58.9231 63.0904 55.8961 63.3254 63.0251L65.3614 63.0191L67.3974 63.0191C67.6094 55.8921 80.3574 58.8701 89.9514 62.9381L86.1724 59.1731Z"   fill="#FFFFFF" >
</path>
<path d="M73.182 41.5608C73.024 39.5328 70.638 37.4698 68.559 38.2898C67.715 36.2268 66.491 35.3458 65.316 35.3298C64.138 35.3498 62.915 36.2338 62.08 38.3018C59.996 37.4878 57.62 39.5588 57.466 41.5898C54.073 41.8018 49.803 44.7948 48.467 49.9568C51.32 48.6038 58.913 45.9878 63.996 49.0388C61.654 46.2988 53.939 47.0538 49.617 48.7648C50.4681 45.5078 54.045 42.4898 57.659 41.9748C58.619 39.7068 60.148 38.1558 62.243 38.8988C63.179 36.9918 64.266 36.1618 65.323 36.1648C66.371 36.1578 67.455 36.9828 68.399 38.8898C70.497 38.1378 72.034 39.6808 72.996 41.9488C76.609 42.4498 80.201 45.4578 81.054 48.7138C76.733 47.0168 69.019 46.2878 66.687 49.0308C71.746 45.9648 79.359 48.5558 82.212 49.9018C80.865 44.7438 76.576 41.7628 73.182 41.5608Z"   fill="#FFFFFF" >
</path>
<path d="M58.7866 97.1799L54.3996 97.1799L54.3996 96.344L56.1146 96.344L56.1146 90.5359L54.3556 91.045L54.3556 90.158L57.0775 89.368L57.0775 96.344L58.7866 96.344L58.7866 97.1799Z"   fill="#FFFFFF" >
</path>
<path d="M60.3126 96.1417C60.7325 96.3857 61.1886 96.5078 61.6746 96.5078C62.3606 96.5078 62.8925 96.2368 63.2686 95.6987C63.6456 95.1568 63.8336 94.3888 63.8336 93.3958C63.8275 93.4038 63.8195 93.4038 63.8136 93.3958C63.4776 94.0358 62.9135 94.3528 62.1196 94.3528C61.4785 94.3528 60.9456 94.1328 60.5236 93.6918C60.1035 93.2518 59.8925 92.6777 59.8925 91.9728C59.8925 91.2228 60.1226 90.6068 60.5836 90.1238C61.0435 89.6408 61.6425 89.3997 62.3745 89.3997C63.1375 89.3997 63.7306 89.6978 64.1595 90.2968C64.5876 90.8938 64.8026 91.7628 64.8026 92.9068C64.8026 94.3188 64.5236 95.4057 63.9726 96.1658C63.4176 96.9277 62.6526 97.3068 61.6746 97.3068C61.1385 97.3068 60.6836 97.2198 60.3126 97.0447L60.3126 96.1417ZM60.8716 91.8518C60.8716 92.3647 61.0005 92.7728 61.2656 93.0727C61.5296 93.3728 61.8925 93.5247 62.3566 93.5247C62.7606 93.5247 63.0976 93.3878 63.3696 93.1128C63.6425 92.8367 63.7805 92.5027 63.7805 92.1108C63.7805 91.5608 63.6425 91.1077 63.3705 90.7478C63.1006 90.3848 62.7415 90.2058 62.2956 90.2058C61.8866 90.2058 61.5446 90.3618 61.2755 90.6738C61.0045 90.9878 60.8716 91.3798 60.8716 91.8518Z"   fill="#FFFFFF" >
</path>
<path d="M66.0346 95.8997C66.5597 96.3047 67.1506 96.5077 67.8076 96.5077C68.3347 96.5077 68.7516 96.3787 69.0616 96.1207C69.3686 95.8617 69.5226 95.5147 69.5226 95.0797C69.5226 94.1127 68.8286 93.6287 67.4446 93.6287L66.8056 93.6287L66.8056 92.8277L67.4136 92.8277C68.6426 92.8277 69.2567 92.3737 69.2567 91.4637C69.2567 90.6267 68.7866 90.2057 67.8487 90.2057C67.3106 90.2057 66.8056 90.3857 66.3316 90.7497L66.3316 89.8357C66.8316 89.5457 67.4167 89.3997 68.0847 89.3997C68.7376 89.3997 69.2636 89.5707 69.6556 89.9117C70.0516 90.2537 70.2477 90.6937 70.2477 91.2377C70.2477 92.2387 69.7397 92.8827 68.7187 93.1697L68.7187 93.1897C69.2716 93.2477 69.7066 93.4427 70.0287 93.7737C70.3496 94.1037 70.5117 94.5177 70.5117 95.0117C70.5117 95.6997 70.2636 96.2537 69.7667 96.6757C69.2726 97.0947 68.6117 97.3067 67.7896 97.3067C67.0637 97.3067 66.4807 97.1717 66.0346 96.9017L66.0346 95.8997Z"   fill="#FFFFFF" >
</path>
<path d="M73.4094 93.154C72.5094 92.728 72.0584 92.113 72.0584 91.306C72.0584 90.743 72.2714 90.284 72.6924 89.93C73.1144 89.576 73.6554 89.4 74.3124 89.4C74.9144 89.4 75.4104 89.564 75.8004 89.899C76.1904 90.231 76.3854 90.662 76.3854 91.188C76.3854 92.038 75.9154 92.69 74.9764 93.15L74.9764 93.169C76.0784 93.57 76.6294 94.256 76.6294 95.225C76.6294 95.86 76.4014 96.364 75.9484 96.742C75.4954 97.12 74.8604 97.308 74.0484 97.308C73.3824 97.308 72.8394 97.122 72.4194 96.749C72.0004 96.376 71.7904 95.896 71.7904 95.303C71.7904 94.327 72.3304 93.618 73.4094 93.172L73.4094 93.154ZM74.1504 93.615C73.2184 93.9939 72.7514 94.543 72.7514 95.254C72.7514 95.621 72.8884 95.923 73.1604 96.1609C73.4344 96.397 73.7904 96.517 74.2294 96.517C74.6554 96.517 75.0024 96.401 75.2684 96.163C75.5344 95.927 75.6684 95.636 75.6684 95.281C75.6684 94.543 75.1634 93.985 74.1504 93.615ZM75.4204 91.302C75.4204 90.959 75.3144 90.689 75.1034 90.492C74.8914 90.293 74.6054 90.196 74.2444 90.196C73.9044 90.196 73.6184 90.296 73.3804 90.504C73.1444 90.709 73.0244 90.971 73.0244 91.292C73.0244 91.93 73.4194 92.416 74.2104 92.749C75.0174 92.409 75.4204 91.925 75.4204 91.302Z"   fill="#FFFFFF" >
</path>
</svg>
