<svg width="1006" height="1006" viewBox="0 0 1006 1006" fill="none" xmlns="http://www.w3.org/2000/svg">
<path d="M737.41 340.519C827.7 470.558 795.464 649.159 665.408 739.438C535.353 829.715 356.728 797.483 266.437 667.445C176.148 537.407 208.384 358.805 338.439 268.528C468.495 178.25 647.12 210.481 737.41 340.519Z" fill="white" stroke="#8A1A1F" stroke-width="7.63816" stroke-miterlimit="22.93"/>
<path d="M737.41 340.519C827.7 470.558 795.464 649.159 665.408 739.438C535.353 829.715 356.728 797.483 266.437 667.445C176.148 537.407 208.384 358.805 338.439 268.528C468.495 178.25 647.12 210.481 737.41 340.519Z" fill="white" stroke="#891B20" stroke-width="7.63816" stroke-miterlimit="22.93"/>
<path d="M573.039 70.1516C811.93 108.755 974.291 333.683 935.682 572.542C897.074 811.402 672.115 973.741 433.224 935.138C194.332 896.535 31.9705 671.606 70.5794 432.746C109.188 193.887 334.147 31.5481 573.039 70.1516Z" fill="white" stroke="#8A1A1F" stroke-width="15.2662" stroke-miterlimit="22.93"/>
<path fill-rule="evenodd" clip-rule="evenodd" d="M160.366 639.276L171.932 664.932C174.266 663.41 177.101 662.851 179.84 663.372C181.088 663.561 182.357 663.561 183.605 663.372C184.805 662.323 185.871 661.129 186.78 659.822L187.963 662.081L194.257 659.984C192.589 657.23 191.063 654.395 189.684 651.485C186.096 644.407 185.685 636.134 188.555 628.733C188.909 627.943 189.021 627.06 188.877 626.205L160.366 639.06V639.276ZM185.649 658.263C184.85 659.58 183.932 660.823 182.906 661.974C181.979 662.108 181.034 661.995 180.163 661.651C179.314 661.404 178.451 661.21 177.58 661.059L169.188 642.503C172.357 637.651 176.658 633.644 181.723 630.831C178.826 638.194 179.399 646.472 183.283 653.368C183.897 655.078 184.69 656.719 185.649 658.263ZM166.122 654.336L166.875 655.95C164.597 656.81 163.449 659.36 164.311 661.635C164.369 661.786 164.434 661.936 164.509 662.081L167.844 669.343L161.549 671.494L158.752 665.201C157.052 662.135 158.16 658.273 161.226 656.574C161.35 656.504 161.475 656.439 161.603 656.38C158.306 656.95 155.032 655.256 153.588 652.238L150.414 645.246C149.553 643.471 148.531 642.718 147.24 642.933L143.044 643.632C142.91 643.46 142.91 643.213 143.044 643.041C143.896 642.288 144.835 641.637 145.842 641.104C151.221 638.684 154.825 639.544 157.192 643.686L161.065 652.292C162.249 654.928 164.025 655.627 166.445 654.336H166.122ZM171.502 591.781C174.87 590.21 178.338 588.863 181.884 587.747C186.241 586.295 190.491 584.95 194.526 583.713C194.849 584.036 194.741 584.466 194.203 585.004C189.308 586.887 185.219 588.5 181.884 589.899C178.72 591.156 175.707 592.761 172.901 594.686C171.014 596.308 169.982 598.709 170.103 601.194C170.155 603.765 170.572 606.32 171.341 608.778L173.223 614.856C174.261 618.089 175.465 621.268 176.827 624.376L170.372 626.313L169.457 623.946C168.584 625.006 167.592 625.963 166.499 626.797C165.148 627.028 163.759 626.84 162.518 626.259C161.537 625.861 160.504 625.608 159.452 625.506C158.026 625.554 156.622 625.861 155.309 626.42L147.025 599.527L153.481 597.536L161.603 624L163.702 624.807C164.419 625.156 165.219 625.307 166.015 625.237C167.076 624.344 168.048 623.354 168.919 622.279C168.059 619.858 167.144 617.276 166.23 614.587L165.262 611.36C164.052 608.154 163.538 604.722 163.756 601.302C164.025 597.859 166.606 594.74 171.502 591.835V591.781ZM145.304 591.781L152.028 590.921C152.553 588.575 154.117 586.596 156.278 585.542L155.847 583.659L144.12 586.349L145.304 591.727V591.781ZM141.592 575.322C144.106 574.762 146.737 575.42 148.693 577.097C149.624 577.903 150.872 578.24 152.082 578.012C154.563 577.073 156.523 575.114 157.462 572.633L152.082 570.589C151.167 571.934 150.522 572.794 150.199 573.171C149.602 573.745 148.82 574.088 147.993 574.139C147.527 574.471 146.9 574.471 146.433 574.139L144.712 563.381C145.914 562.081 147.434 561.117 149.123 560.584L149.822 564.995L155.202 564.134L154.018 556.873C153.306 553.22 153.836 549.433 155.525 546.116C156.224 545.255 156.224 544.717 155.525 544.502L136.697 547.568L138.041 554.345C139.035 554.147 140.042 554.021 141.054 553.969C142.162 553.922 143.206 553.438 143.959 552.624C145.771 550.459 147.957 548.637 150.414 547.245C148.866 550.779 148.434 554.701 149.177 558.487L139.064 560.154L141.538 575.484L141.592 575.322ZM155.417 547.622L160.796 546.707L163.971 566.34H167.521L164.24 546.223L168.973 545.47L172.309 566.017C173.543 566.147 174.786 566.147 176.02 566.017L173.761 552.086C172.678 546.603 175.973 541.204 181.346 539.661C181.992 539.661 181.884 540.199 181.346 541.167C178.844 544.149 177.905 548.141 178.818 551.925L180.647 563.059C180.876 564.603 181.273 566.118 181.83 567.577C175.966 568.168 170.156 568.491 164.509 568.545L164.778 570.32L159.398 571.181L155.632 548.106L155.417 547.622ZM139.117 563.543L139.386 565.264C136.91 565.571 135.151 567.827 135.458 570.304C135.472 570.417 135.491 570.53 135.513 570.643L136.804 578.549L130.187 578.98L129.112 572.203C128.28 568.767 130.392 565.308 133.828 564.476C133.941 564.449 134.054 564.424 134.168 564.403C130.744 564.167 127.912 561.646 127.283 558.272L126.045 550.688C125.722 548.823 124.916 547.801 123.625 547.622L119.321 547.191C119.164 547.025 119.164 546.766 119.321 546.6C120.322 546.067 121.389 545.669 122.495 545.416C128.197 544.448 131.64 546.241 132.823 550.795L134.33 560.1C134.76 562.951 136.266 564.081 138.956 563.435L139.117 563.543ZM142.022 507.227H135.244V533.045C136.95 532.769 138.699 533.092 140.193 533.96C141.862 534.93 143.68 535.621 145.573 536.004C146.927 535.632 148.229 535.09 149.446 534.39L149.769 537.079L156.977 538.263C156.227 535.38 155.811 532.42 155.74 529.441V518.684C156.015 512.789 158.699 507.267 163.163 503.408C163.809 502.601 163.971 502.064 163.648 501.902C159.759 503.774 156.326 506.473 153.588 509.809C150.795 513.282 149.293 517.616 149.338 522.073V532.83C148.23 533.603 146.991 534.168 145.68 534.497C144.349 534.201 143.122 533.55 142.13 532.615V507.442L142.022 507.227ZM170.318 466.564C170.496 466.407 170.513 466.135 170.356 465.957C170.344 465.943 170.331 465.93 170.318 465.918L137.235 463.444L136.804 469.468L143.529 470.006C144.992 468.554 146.873 467.595 148.908 467.263C151.06 466.94 153.319 466.725 155.686 466.564C150.897 469.984 146.544 473.976 142.722 478.451L143.044 474.148L136.266 473.664L134.76 493.995L141.431 494.533V492.113L143.69 493.942C144.412 494.582 145.229 495.108 146.111 495.502C147.319 495.33 148.496 494.986 149.607 494.48V497.061L156.708 498.729C156.506 497.067 156.506 495.388 156.708 493.727C156.96 488.318 160.788 483.741 166.069 482.539C166.553 482.055 166.391 481.624 165.531 481.355C155.901 480.71 150.791 484.529 150.253 492.705C149.14 493.217 147.964 493.579 146.756 493.78C145.908 493.254 145.131 492.622 144.443 491.898L141.807 489.8L142.291 483.561L146.272 485.981C148.966 481.363 152.38 477.205 156.385 473.664C160.391 470.211 165.17 467.775 170.318 466.564ZM138.041 456.29L144.658 457.904C145.989 455.961 148.121 454.717 150.468 454.515L150.737 452.633L138.848 450.912L138.041 456.29ZM176.397 419.231C176.397 419.231 176.397 418.801 176.397 418.639L146.38 411.862L144.766 418.854L151.383 420.36C153.27 418.467 155.811 417.369 158.484 417.294C161.387 417.198 164.29 417.542 167.091 418.316C161.592 421.154 156.95 425.406 153.642 430.634C152.161 430.44 150.67 430.332 149.177 430.311L150.468 424.394L143.905 422.888L139.548 442.252L146.164 443.704L148.37 433.7L152.996 432.14C151.825 435.171 151.545 438.475 152.189 441.66C152.843 444.736 155.246 447.138 158.322 447.792C162.592 449.26 167.245 446.989 168.713 442.719C168.885 442.217 169.009 441.701 169.081 441.176C170.318 434.829 167.628 431.279 161.012 430.419C165.24 425.49 170.564 421.621 176.558 419.123L176.397 419.231ZM157.085 439.025L157.838 435.744C157.998 434.946 158.25 434.169 158.591 433.431C158.968 432.516 159.505 432.086 160.151 432.14C163.487 433.538 164.563 436.55 163.324 441.284C163.324 444.726 161.711 446.34 159.129 446.071C156.816 444.995 156.116 442.628 157.085 439.025ZM126.476 427.03C127.562 423.745 129.405 420.76 131.855 418.316C134.706 415.358 137.235 412.938 139.494 410.248L143.636 414.39C141.108 417.51 138.257 420.576 135.352 423.749C132.409 426.769 130.248 430.462 129.058 434.507C129.058 435.797 129.596 436.443 130.618 436.389C132.221 435.062 133.477 433.363 134.276 431.441L139.064 435.044C138.587 436.827 137.662 438.457 136.374 439.778C135.315 441.206 133.564 441.947 131.801 441.714C129.615 440.532 128.06 438.446 127.552 436.013C126.45 433.248 126.062 430.252 126.422 427.299L126.476 427.03ZM148.8 404.063L155.094 406.698C156.686 404.962 158.985 404.05 161.334 404.224L161.872 402.395L150.36 398.899L148.8 404.278V404.063ZM152.835 390.508L163.594 361.84L169.887 364.206L164.939 376.846L171.717 379.428C173.173 374.674 177.504 371.382 182.476 371.252C187.498 370.952 192.526 371.741 197.216 373.565C197.646 374.103 197.7 374.48 197.216 374.695C193.475 373.684 189.549 373.573 185.757 374.372C182.027 375.465 179.072 378.32 177.849 382.01L171.395 399.114L165.746 395.564L171.126 381.203C168.674 380.401 166.05 380.289 163.541 380.88L158.86 392.983L152.566 390.616L152.835 390.508ZM141.753 373.996C141.02 376.872 141.02 379.886 141.753 382.763C141.924 385.303 143.253 387.624 145.358 389.056C147.069 389.503 148.89 389.011 150.145 387.765C151.608 386.653 152.742 385.167 153.427 383.462L148.8 379.267C147.74 381.046 146.263 382.541 144.497 383.624C143.475 383.624 143.044 382.87 143.206 381.526C144.973 377.799 147.59 374.539 150.845 372.005C154.251 369.316 157.426 366.627 160.366 363.937L156.87 359.258C154.287 361.355 151.49 363.668 148.209 366.143C145.354 368.181 143.03 370.874 141.431 373.996H141.753ZM169.834 347.855C171.903 348.523 173.6 350.024 174.514 351.996C175.018 353.49 175.954 354.8 177.204 355.762C178.679 356.133 180.204 356.279 181.723 356.192L180.324 358.881L185.38 362.27L187.963 357.321C190.105 353.244 193.814 350.215 198.237 348.931C198.811 348.873 199.326 348.556 199.636 348.07L192.858 344.574C188.931 342.691 185.165 341.078 181.508 339.625L184.789 333.44C185.542 332.31 187.479 332.149 190.652 332.902C194.468 333.875 198.192 335.171 201.787 336.775C206.091 338.603 210.234 340.54 214.268 342.584L224.112 347.478C224.579 347.263 224.579 346.833 224.112 346.187L182.045 323.919L169.403 347.801L169.834 347.855ZM177.473 353.933C176.808 352.597 176.475 351.121 176.504 349.63L179.087 344.789C183.376 343.819 187.873 344.45 191.728 346.564C187.772 347.975 184.501 350.841 182.583 354.578H179.41C178.333 354.578 177.688 354.363 177.473 353.933ZM231.859 306.923C226.766 305.711 221.459 305.711 216.366 306.923C211.246 308.074 206.33 309.996 201.787 312.624L199.421 308.644L196.032 314.022C196.032 314.507 196.57 315.529 197.054 317.035C197.302 317.997 197.682 318.92 198.184 319.778C199.337 320.218 200.554 320.472 201.787 320.531C206.127 313.574 212.403 312.678 220.616 317.841C221.262 318.487 221.208 318.917 220.616 319.078C215.403 317.642 209.87 319.838 207.06 324.457C206.145 325.861 205.422 327.381 204.908 328.975L199.528 324.135L200.927 321.983C199.713 321.904 198.518 321.651 197.377 321.23C196.782 320.445 196.311 319.575 195.978 318.648C195.387 317.304 195.01 316.389 194.849 315.959L193.557 318.003L187.855 314.345L198.883 297.241L204.532 300.845L202.219 304.502C207.715 302.407 213.438 300.962 219.271 300.199C217.119 299.231 215.021 298.37 212.977 297.617C210.994 296.887 208.83 296.793 206.791 297.348L201.142 293.745L204.424 288.635L232.343 306.546C232.354 306.79 232.199 307.011 231.966 307.084L231.859 306.923ZM209.965 281.105L214.645 285.999C216.789 284.982 219.278 284.982 221.423 285.999L222.66 284.547L213.354 277.124L209.858 281.266L209.965 281.105ZM269.676 275.726C270.16 275.726 270.376 275.349 270.268 274.973L237.991 248.079L234.549 252.274C236.06 253.904 237.891 255.204 239.928 256.093C242.696 255.759 245.474 256.62 247.567 258.46C244.501 259.428 241.865 260.127 239.713 260.665C237.412 261.242 235.148 261.96 232.935 262.817L236.109 258.944L231.966 255.448L218.465 271.584L222.606 275.027L223.467 274.058C223.755 275.296 224.245 276.477 224.92 277.555C225.485 277.695 226.076 277.695 226.641 277.555L225.619 278.738L228.524 282.826L233.904 276.156C235.247 274.465 237.158 273.319 239.282 272.929C239.82 272.66 239.874 272.391 239.282 272.122C234.991 270.749 230.309 272.397 227.825 276.156C227.264 276.327 226.664 276.327 226.103 276.156C225.42 275.065 224.928 273.864 224.65 272.606L229.331 267.227L229.492 269.271C235.845 266.803 242.328 264.684 248.912 262.924L247.405 264.753L251.602 268.249C255.411 267.326 259.433 268.331 262.36 270.939C258.845 272.045 255.6 273.878 252.839 276.317L244.07 269.271L233.312 282.234C235.126 283.308 236.353 285.149 236.647 287.236C236.687 289.343 237.675 291.319 239.336 292.615C242.111 294.64 245.671 295.257 248.966 294.282L246.652 288.473C245.345 288.395 244.033 288.395 242.726 288.473C241.631 288.664 240.505 288.454 239.551 287.882C238.244 286.429 238.244 284.224 239.551 282.772L244.07 277.393C246.258 275.538 249.468 275.538 251.655 277.393L247.298 282.772L250.795 287.129L255.098 281.75C256.725 279.669 258.779 277.963 261.123 276.748C263.697 275.383 266.673 274.982 269.515 275.618L269.676 275.726ZM226.641 260.343L225.512 261.687C223.718 260.038 220.928 260.155 219.279 261.948C219.181 262.054 219.089 262.164 219.002 262.279L213.623 268.464L208.996 263.893L213.354 258.514C215.387 255.622 219.381 254.927 222.273 256.96C222.368 257.028 222.461 257.097 222.552 257.169C220.545 254.492 220.545 250.81 222.552 248.133L227.448 242.216C228.685 240.71 228.9 239.473 228.147 238.397C227.394 237.322 226.587 236.192 225.673 234.901C225.642 234.665 225.808 234.449 226.043 234.418C226.045 234.418 226.047 234.418 226.05 234.417C227.115 234.831 228.126 235.373 229.062 236.031C233.527 239.688 234.441 243.453 231.697 247.434L225.673 254.695C224.299 255.966 224.217 258.11 225.49 259.484C225.702 259.713 225.945 259.911 226.211 260.074L226.641 260.343ZM268.977 220.163L290.119 243.131C289.36 243.537 288.503 243.723 287.644 243.668C279.623 243.194 271.784 246.192 266.126 251.898C263.652 254.265 261.446 256.631 259.509 258.89L255.582 253.512L257.304 251.683C255.783 251.206 254.32 250.556 252.946 249.746C252.425 248.608 252.098 247.389 251.978 246.143C251.606 243.385 250.179 240.878 247.998 239.15L268.708 220.056L268.977 220.163ZM258.918 250.177C257.409 249.797 255.934 249.294 254.506 248.671C254.139 247.841 253.955 246.942 253.968 246.035C254.03 245.14 254.03 244.241 253.968 243.346L268.923 229.576C274.293 231.176 279.213 234.013 283.287 237.859C275.368 237.413 267.673 240.577 262.36 246.465C260.952 247.614 259.656 248.893 258.487 250.284L258.918 250.177ZM275.056 215.161L278.552 220.863C280.871 220.407 283.273 220.998 285.115 222.476L286.622 221.293L279.199 211.826L274.948 215.161H275.056ZM340.847 231.997L312.927 188.967L289.742 204.296C291.442 206.123 292.284 208.588 292.055 211.073C291.785 212.315 291.898 213.608 292.378 214.785C293.378 215.741 294.57 216.474 295.875 216.936L293.346 218.603L296.466 224.359L301.576 220.863C305.116 218.968 309.026 217.867 313.035 217.635C313.683 217.696 314.331 217.524 314.864 217.151C311.572 212.116 307.709 207.477 303.352 203.328L310.184 199.348C314.035 200.731 317.477 203.062 320.19 206.125C322.933 209.244 325.57 212.472 328.205 215.86C322.744 216.194 317.487 218.059 313.035 221.239L308.193 224.413C305.563 226.174 303.032 228.077 300.608 230.114L303.783 235.869C306.149 233.987 308.623 232.158 311.314 230.49L316.693 226.994C320.344 224.281 324.651 222.591 329.173 222.1L325.731 236.73C330.068 233.411 335.534 231.924 340.955 232.588L340.847 231.997ZM329.765 229.253L331.701 221.347H332.078L336.705 228.447C334.442 227.989 332.09 228.312 330.034 229.361L329.765 229.253ZM297.488 216.022C296.329 215.516 295.229 214.885 294.207 214.139C293.99 213.383 293.99 212.582 294.207 211.826C294.207 210.804 294.207 210.051 294.207 209.621L299.048 206.447C299.495 206.585 299.927 206.765 300.339 206.985C303.508 208.056 306.407 209.799 308.839 212.095C304.785 212.259 300.871 213.626 297.596 216.022H297.488ZM319.598 185.417L324.331 182.781L330.195 193.27L328.528 194.238C326.953 192.461 324.658 191.492 322.287 191.602L319.598 185.417ZM360.374 164.977L363.117 171.163L348.809 177.833L352.735 184.126C353.628 181.492 355.578 179.348 358.115 178.209C362.13 176.277 366.952 177.965 368.885 181.98C369.076 182.377 369.234 182.788 369.358 183.211C371.528 186.689 370.467 191.268 366.988 193.438C366.663 193.641 366.322 193.818 365.969 193.969C362.505 195.475 358.543 195.317 355.209 193.538C355.043 196.923 352.952 199.912 349.831 201.23C345.723 203.107 340.872 201.3 338.994 197.194C338.882 196.949 338.782 196.698 338.695 196.443C336.436 192.533 337.774 187.533 341.684 185.273C341.936 185.128 342.195 184.996 342.461 184.879C345.107 183.391 348.271 183.135 351.122 184.179C348.862 182.082 346.979 180.361 345.419 178.801L335.467 183.265L332.67 177.133L360.159 164.708L360.374 164.977ZM353.219 190.042C353.423 190.137 353.534 190.36 353.488 190.58C352.616 193.189 350.653 195.289 348.109 196.335C346.854 196.848 345.531 197.175 344.182 197.304C342.461 197.304 341.277 197.304 340.686 196.282C340.378 195.001 340.84 193.659 341.869 192.839C342.945 191.674 344.22 190.708 345.634 189.988C347.956 188.836 350.683 188.836 353.004 189.988L353.219 190.042ZM355.102 190.042C357.485 191.175 360.251 191.175 362.633 190.042C364.106 189.317 365.436 188.333 366.561 187.138C367.852 185.847 368.336 184.771 368.12 183.857C367.238 182.746 365.772 182.278 364.409 182.673C363.046 182.796 361.707 183.104 360.428 183.588C357.787 184.58 355.786 186.782 355.048 189.504C354.922 189.661 354.922 189.885 355.048 190.042H355.102ZM332.185 159.545L329.765 165.892C338.137 164.88 346.608 165.025 354.94 166.322L357.308 159.975C348.985 158.786 340.545 158.642 332.185 159.545ZM371.779 159.545L373.769 165.999L386.949 161.965C388.118 162.884 389.215 163.891 390.23 164.977C388.775 165.058 387.341 165.366 385.98 165.892C382.733 167.026 379.776 168.863 377.319 171.27C375.015 173.013 373.891 175.906 374.415 178.747C375.065 181.146 376.765 183.124 379.041 184.126C381.196 185.091 383.636 185.206 385.872 184.448C388.587 183.694 390.878 181.869 392.22 179.392C393.591 176.96 394.104 174.137 393.673 171.378C399.696 172.027 404.848 175.995 407.014 181.651C409.434 187.514 411.748 193.323 414.061 199.025C414.545 199.025 414.868 199.025 415.029 198.003C412.77 191.548 410.457 184.879 408.143 178.048C406.231 171.547 400.971 166.575 394.373 165.031C393.695 165.147 393.004 165.147 392.328 165.031C391.79 163.633 391.198 162.342 390.607 161.051L401.958 157.555L399.967 150.939L371.779 159.599V159.545ZM387.917 171.701C389.211 171.31 390.547 171.076 391.898 171.002C391.243 174.727 388.313 177.636 384.581 178.263C383.1 178.843 381.57 179.293 380.009 179.608C378.233 179.984 377.104 179.608 376.512 178.263C375.921 176.918 376.943 176.273 378.395 175.358C379.785 174.465 381.286 173.76 382.86 173.261L387.917 171.701ZM405.723 149.11L411.103 147.604L414.545 159.169L412.663 159.706C411.53 157.674 409.564 156.24 407.283 155.78L406.046 149.11H405.723ZM455.806 170.625C456.129 170.625 456.29 170.625 456.398 170.625L451.341 140.182L444.24 141.311L445.316 147.981C447.704 149.059 449.617 150.971 450.695 153.36C451.9 156.003 452.698 158.814 453.062 161.696C448.353 157.658 442.653 154.947 436.547 153.844C436.184 152.384 435.736 150.947 435.202 149.541L441.174 148.573L440.097 141.903L420.516 145.076L421.592 151.746L431.705 150.132C432.674 151.154 433.696 152.391 434.88 153.79C431.641 153.817 428.482 154.789 425.789 156.587C423.137 158.326 421.782 161.481 422.345 164.601C422.763 169.157 426.795 172.511 431.351 172.093C431.724 172.06 432.094 172 432.458 171.916C436.905 171.622 440.272 167.78 439.978 163.334C439.915 162.378 439.682 161.441 439.29 160.567C445.385 162.659 450.91 166.14 455.43 170.733L455.806 170.625ZM430.253 160.136L433.535 159.599C434.359 159.535 435.186 159.535 436.009 159.599C436.977 159.599 437.569 159.921 437.784 160.567C437.784 164.224 435.31 166.322 430.468 166.967C427.187 167.989 425.089 167.29 424.497 164.816C423.905 162.342 426.542 160.782 430.253 160.298V160.136ZM435.633 141.742H433.858C433.594 139.32 431.415 137.571 428.994 137.835C428.821 137.854 428.648 137.883 428.478 137.923L420.57 139.214L420.14 132.598L426.972 131.468C430.45 130.689 433.903 132.877 434.682 136.356C434.718 136.518 434.748 136.682 434.772 136.847C435.059 133.506 437.55 130.772 440.851 130.177L448.436 128.94C450.301 128.546 451.323 127.739 451.502 126.52C451.502 125.229 451.502 123.777 451.879 122.217C452.075 122.089 452.328 122.089 452.524 122.217C453.024 123.251 453.42 124.332 453.707 125.444C454.676 131.145 452.847 134.534 448.329 135.717L439.29 137.223C436.44 137.654 435.364 139.214 436.009 141.849L435.633 141.742ZM471.568 186.707C471.881 187.015 472.384 187.015 472.697 186.707L465.812 138.299L459.302 139.214L458.603 145.56C462.583 147.981 465.327 153.575 466.941 162.288C468.555 171.002 469.953 179.07 471.568 186.707Z" fill="#8A1A1F"/>
<path fill-rule="evenodd" clip-rule="evenodd" d="M550.273 184.825L560.495 139.375L576.149 142.871L578.139 133.835L555.599 128.779L557.643 120.334L626.285 135.771L624.402 144.216L601.539 138.837L599.495 147.873L616.064 151.584L605.897 196.766L595.676 194.453L596.429 191.172L560.387 183.211L559.58 186.815L550.273 184.717V184.825ZM586.907 135.825L584.863 144.861L590.243 146.044L592.287 137.008L586.907 135.825ZM562.162 175.52L597.989 183.534L599.495 176.918L589.92 174.767C585.831 174.229 584.541 171.324 585.885 165.945L588.521 154.22L583.142 152.983C580.713 161.441 575.525 168.845 568.402 174.014C567.721 172.364 566.537 169.675 564.851 165.945C569.151 161.859 572.241 156.667 573.781 150.939L567.757 149.594L561.947 175.52H562.162ZM597.505 156.318L595.299 165.569C594.869 167.344 595.299 168.473 597.075 168.796L601.002 169.711L603.745 157.662L597.505 156.318ZM693.905 176.757L676.852 165.999L680.778 159.706L697.832 170.464L700.575 165.999C706.708 169.818 709.559 171.808 709.182 172.077C708.881 172.504 708.521 172.885 708.106 173.207C707.52 173.797 706.998 174.446 706.547 175.143L706.17 175.681L714.078 180.576L716.821 176.111C719.726 177.9 722.513 179.877 725.159 182.028C724.82 182.479 724.352 182.816 723.814 182.996C723.282 183.495 722.814 184.054 722.416 184.664L721.932 185.47L739.2 196.228L735.165 202.413L729.786 199.132C730.539 201.822 731.023 203.543 731.238 204.511C728.764 204.511 727.042 204.834 726.181 204.995L731.184 208.115L727.741 213.494L715.692 206.017L713.917 208.868C711.683 212.58 709.795 216.486 708.268 220.54C710.366 218.711 713.056 216.129 716.337 212.848C717.359 211.557 718.058 210.858 718.327 210.804C720.41 213.616 722.212 216.625 723.707 219.787C723.384 220.245 722.938 220.6 722.416 220.809C720.086 222.137 717.886 223.686 715.853 225.434C712.443 228.366 708.849 231.079 705.094 233.556C704.448 236.568 704.394 238.021 705.094 237.859C705.794 237.698 706.6 236.837 708.537 234.148C709.462 237.076 711 239.772 713.056 242.055C707.676 249.531 703.641 252.49 700.306 250.876C696.971 249.262 695.411 245.497 694.927 238.612C692.022 239.419 688.901 240.172 685.566 240.764C684.787 240.92 684.028 241.173 683.307 241.517C682.237 238.413 680.789 235.451 679.003 232.696C679.003 232.696 679.38 232.427 679.864 232.696C680.886 232.751 681.909 232.751 682.931 232.696L674 227.317L672.387 229.953L666.092 226.026L687.126 192.194L706.278 204.135L707.73 201.768L687.019 188.859L673.84 210.105C669.939 216.894 663.737 222.064 656.356 224.681C655.14 222.025 653.446 219.618 651.354 217.581C658.238 215.599 664.048 210.953 667.492 204.672L668.783 202.575L666.954 201.391C663.435 208.422 657.437 213.901 650.116 216.775C649.422 213.962 648.056 211.359 646.135 209.191C652.08 206.937 657.044 202.674 660.176 197.142L657.001 195.206L660.767 189.182L672.548 196.551L674.539 193.377L665.232 186.869L675.346 170.733C680.402 173.852 682.77 175.735 682.447 176.111C682.318 176.436 682.033 176.677 681.693 176.757C680.918 177.598 680.235 178.517 679.649 179.5L675.991 185.255L678.358 186.707L683.738 178.317L711.549 195.636L712.679 193.754L707.676 190.688L710.15 186.761L702.027 181.705L699.231 186.17L691.108 181.114L693.905 176.649V176.757ZM690.624 201.23L688.363 204.941L691.215 206.716L693.528 203.059L690.624 201.23ZM703.48 209.244L699.822 206.985L697.509 210.643L701.221 212.902L693.205 225.757L689.548 223.498L687.234 227.156L691.161 229.576L690.355 230.921C692.501 230.705 694.566 229.986 696.379 228.823C697.902 222.021 700.29 215.441 703.48 209.244ZM685.244 209.89L683.307 213.063L689.602 216.99L691.538 213.816L685.244 209.89ZM679.864 217.581L677.605 221.293L680.509 223.068L682.77 219.41L679.864 217.581ZM719.349 200.369L724.729 203.651C724.223 202.922 723.879 202.098 723.707 201.23C723.384 199.778 723.169 198.81 723.008 198.218L727.526 197.411L718.112 191.548L716.821 193.646C718.709 194.818 720.506 196.13 722.201 197.573C721.98 197.824 721.727 198.041 721.448 198.218C720.856 198.801 720.329 199.451 719.887 200.154L719.349 200.369ZM747.753 271.799C745.752 273.385 743.18 274.068 740.652 273.682H740.544C738.656 276.97 737.123 280.45 735.972 284.063C737.102 284.547 739.307 285.73 742.534 287.613C747.914 290.248 753.294 293.476 759.05 297.187C760.642 294.743 762.444 292.44 764.429 290.302C759.905 287.589 755.526 284.644 751.304 281.481L762.923 272.714L772.821 285.408C762.493 299.392 760.949 313.072 768.195 326.447C771.207 329.352 777.125 327.953 786.001 322.306C784.527 319.093 783.516 315.689 782.989 312.194C777.609 315.313 775.081 316.228 774.651 314.991C771.853 308.859 773.359 301.795 779.169 293.798L793.855 313.269L800.525 308.267L784.871 287.559C786.684 285.56 788.706 283.757 790.896 282.18L803.538 298.908L823.012 284.224L789.767 240.118L748.129 271.53L747.753 271.799ZM782.72 258.191L788.852 253.565L809.509 280.889L803.322 285.569L782.72 258.191ZM775.834 262.978L784.387 274.327C782.784 275.251 781.299 276.371 779.976 277.662C779.282 278.12 778.679 278.704 778.201 279.383L769.432 267.819L775.834 262.978ZM860.937 351.028C863.519 355.17 865.347 358.128 866.316 359.957C863.771 361.66 861.087 363.154 858.3 364.421C855.342 359.043 853.782 356.138 853.567 355.546C855.783 353.708 858.246 352.187 860.883 351.028H860.937ZM828.66 399.168C820.876 398.872 813.641 395.077 808.971 388.841L843.992 378.083L840.172 365.712L847.219 363.507L850.715 374.695L847.058 373.243C846.574 377.277 846.143 380.342 845.713 382.386C849.865 383.792 854.159 384.73 858.515 385.183L867.446 413.745L875.085 411.378L867.285 386.313C868.339 386.451 869.382 386.666 870.404 386.958C871.803 387.389 872.717 387.442 873.04 386.958C872.938 383.592 872.647 380.235 872.179 376.9C871.179 376.64 870.146 376.513 869.113 376.524C864.401 376.883 859.667 376.63 855.019 375.771L859.108 374.48L849.962 344.574L842.001 347.048L844.261 354.417L829.521 359.043C819.31 362.568 808.326 363.201 797.782 360.871C797.54 361.507 797.433 362.183 797.46 362.862C797.06 365.393 796.41 367.88 795.522 370.284C808.019 372.352 820.828 371.449 832.909 367.649L834.093 371.521L811.983 378.406C809.939 379.482 808.218 377.33 806.604 371.952C804.253 373.833 801.73 375.49 799.073 376.9C801.655 383.839 804.452 387.658 807.25 388.572C806.389 391.752 805.045 394.781 803.269 397.554C809.224 402.573 816.411 405.915 824.087 407.236C818.912 412.892 815.039 419.611 812.737 426.922C816.432 427.23 820.063 428.101 823.496 429.504C824.313 422.358 827.471 415.682 832.479 410.517L836.622 423.749L843.992 421.49L839.365 406.752L847.918 404.063L851.308 414.82L858.677 412.507L852.975 394.273L853.782 394.65C855.772 395.564 856.955 395.618 857.386 394.65C857.429 391.391 857.068 388.139 856.31 384.968C849.258 385.119 842.264 383.647 835.869 380.665C835.503 381.776 835.319 382.939 835.33 384.108C835.33 386.743 834.846 388.518 834.738 389.486C837.886 390.756 841.124 391.799 844.422 392.606L845.067 394.704L836.514 397.339L832.372 384.108L825.002 386.367L828.875 398.738L828.66 399.168ZM863.572 466.456H872.825V494.802H892.622V501.902C892.622 506.044 892.622 507.873 892.03 507.281C891.497 507.257 890.97 507.149 890.47 506.958C888.931 506.872 887.382 506.872 885.843 506.958H872.879L873.148 534.444H864.272V507.55C848.241 509.522 837.735 519.706 832.748 538.101C829.973 534.5 826.244 531.743 821.99 530.141C825.986 517.162 835.578 506.648 848.133 501.472C837.375 497.223 828.23 487.649 820.699 472.642C824.41 470.788 827.578 468.01 829.897 464.574C836.853 483.22 848.257 493.01 864.11 493.942V466.456H863.572ZM860.399 621.687C863.626 621.687 867.93 621.687 873.255 622.225C873.029 622.919 872.9 623.645 872.879 624.376C872.126 628.249 871.534 631.315 870.942 633.52C870.27 633.257 869.565 633.112 868.845 633.09C864.594 632.714 861.152 632.283 858.462 631.799C858.887 628.389 859.533 625.011 860.399 621.687ZM861.636 609.692C861.555 610.139 861.555 610.591 861.636 611.037C862.282 614.318 862.712 616.416 863.035 617.384C867.441 616.437 871.787 615.233 876.053 613.78C875.73 609.746 875.3 605.981 874.762 602.539C869.705 604.475 865.616 605.874 862.497 606.734L867.5 592.48L852.061 587.102L848.779 596.461L856.364 599.096L840.979 643.094L833.394 640.459L829.951 650.356L845.659 655.734L850.661 641.481L854.212 647.29C855.041 648.495 855.799 649.753 856.471 651.055L857.44 652.991C857.977 654.497 858.462 655.304 858.839 655.466C859.753 654.659 862.497 651.485 867.07 645.891C862.265 641.314 857.902 636.29 854.051 630.885L861.475 609.639L861.636 609.692ZM834.738 619.643L842.807 596.622L850.661 599.365L836.676 639.276C831.253 634.693 827.789 628.206 826.992 621.149H826.4L817.309 647.021L809.186 644.17L818.331 617.976L809.025 614.695C803 614.695 802.317 608.563 806.981 596.299C810.38 596.979 813.867 597.106 817.309 596.676L816.879 597.859C815.695 603.238 815.911 605.981 817.471 606.519L821.828 608.079L831.995 579.356L840.118 582.207L830.113 610.768L832.479 611.575C833.248 611.839 833.781 612.538 833.824 613.35C833.867 615.501 834.286 617.631 835.061 619.643H834.738Z" fill="#8A1A1F"/>
<path fill-rule="evenodd" clip-rule="evenodd" d="M226.371 735.071L208.942 738.083L202.594 731.252L227.178 727.864L232.558 705.488L239.551 713.287L234.925 728.294L250.686 725.712L256.658 732.382L233.795 735.34L227.824 759.383L220.83 751.584L226.21 735.071H226.371ZM253.268 745.829L233.042 764.547L238.743 770.678L258.917 751.907L253.161 745.829H253.268ZM261.768 737.545L256.389 742.332L262.306 748.733L267.685 743.946L261.768 737.545ZM262.36 791.924L265.964 787.675L254.129 777.509L276.4 774.928L280.004 770.732L262.844 755.941L259.24 760.19L270.429 769.818L248.158 772.346L244.554 776.541L262.36 791.924ZM288.665 796.389C284.092 792.785 280.865 792.247 279.036 794.775C277.816 796.346 278.1 798.61 279.673 799.831C279.828 799.955 279.993 800.063 280.166 800.154C282.64 802.09 285.546 800.799 288.665 796.281V796.389ZM286.514 786.492L280.058 781.92C281.655 779.607 284.358 778.322 287.159 778.531C289.921 779.064 292.529 780.204 294.798 781.866C300.877 786.331 302.007 791.333 298.24 796.873L289.633 809.083L288.988 809.943C288.807 810.578 288.554 811.191 288.235 811.772L282.317 807.577C282.771 806.442 283.348 805.361 284.039 804.349C280.875 805.554 277.306 804.936 274.732 802.736C270.107 799.148 269.191 795.275 271.989 791.118C274.271 788.009 278.181 786.551 281.941 787.406C285.405 788.466 288.649 790.144 291.516 792.355L292.968 790.257C293.935 788.547 293.446 786.384 291.839 785.255C290.035 784.104 287.641 784.636 286.492 786.444C286.481 786.46 286.471 786.476 286.46 786.492H286.514ZM317.822 798.218L310.936 793.861L296.25 817.151L303.082 821.508L311.689 807.146C314.056 803.919 316.585 803.005 319.274 804.349C321.964 805.694 322.071 808.814 319.974 812.418L311.205 826.295L318.252 830.759L327.828 815.591C328.312 814.569 328.903 813.224 329.603 811.611C330.165 807.754 328.446 803.914 325.192 801.768C322.54 799.772 319.003 799.396 315.992 800.799V800.477L317.715 797.787L317.822 798.218ZM340.739 826.51C338.263 831.351 338.586 834.578 341.707 836.192C344.773 837.805 347.571 836.192 350.206 831.458C352.842 826.725 352.519 822.96 349.561 821.239C346.601 819.518 343.374 821.239 340.739 826.617V826.51ZM363.816 823.39L352.25 845.551C348.377 853.366 342.388 855.162 334.283 850.929C326.859 847.057 324.439 842.431 327.075 837.052L333.907 840.602C333.046 842.539 333.907 844.314 336.488 845.981C340.523 848.079 343.589 846.25 345.687 840.602C342.808 841.737 339.547 841.285 337.08 839.419C331.055 835.815 329.818 830.006 333.369 822.046C337.887 814.623 343.428 812.31 349.991 815.053C352.806 816.22 354.708 818.894 354.887 821.938L356.339 819.087L363.709 822.96L363.816 823.39ZM415.781 834.148L395.663 863.731L388.884 861.741L388.239 826.187L378.825 858.46L371.24 856.254L381.999 818.28L395.34 822.153V852.167L411.962 826.94L424.712 830.651L413.683 868.625L406.098 866.313L415.512 834.04L415.781 834.148ZM428.423 843.883L423.797 871.046L432.028 872.444L436.654 845.551L428.423 844.152V843.883ZM430.198 832.05L438.859 833.502L437.676 840.441L429.015 838.989L430.198 832.05ZM453.706 848.186L453.276 851.36C455.457 848.837 458.847 847.724 462.098 848.455C466.833 849.8 469.522 852.22 470.168 855.609C470.168 857.33 470.168 858.782 470.168 859.912L467.747 877.716L459.463 876.586L461.668 860.45C462.098 856.308 460.754 853.995 457.688 853.404C454.621 852.812 452.738 855.232 451.931 859.105L449.726 875.241L441.657 874.166L445.368 846.842L453.437 847.971L453.706 848.186ZM499.862 879.06L476.354 878.63V873.251L491.793 857.115L476.946 856.093V850.714L499.593 851.091V856.469L484.154 872.606H499.754V877.984L499.862 879.06ZM526.76 878.361L526.061 874.972C524.33 877.737 521.305 879.421 518.045 879.437C514.078 880.098 510.159 878.028 508.469 874.381C507.902 873.042 507.644 871.589 507.716 870.132L506.371 852.274L514.44 851.629L515.731 868.249C516.162 872.498 517.991 874.435 521.111 874.058C524.232 873.681 525.523 871.369 525.523 867.55L523.909 850.176L532.193 849.531L533.915 872.122C533.762 872.955 533.762 873.816 533.915 874.65C534.099 875.43 534.243 876.22 534.345 877.016L526.222 877.608L526.76 878.361ZM576.25 831.835L584.696 830.383L588.839 854.802C590.022 864.591 585.288 870.508 574.475 872.659C563.663 874.811 556.831 870.239 554.895 860.557L550.752 836.138L559.198 834.686L562.802 856.201C563.717 865.022 567.267 868.679 573.561 866.958C579.694 866.366 581.791 861.579 579.909 853.081L576.304 831.835H576.25ZM600.888 837.214L601.911 840.226C602.449 837.321 604.708 835.223 608.581 833.771C612.325 832.674 616.365 833.825 618.964 836.729C619.77 838.289 620.362 839.58 620.846 840.656L626.226 857.707L618.318 860.288L613.261 844.583C611.916 840.71 609.657 839.204 606.644 840.011C603.632 840.817 602.987 843.722 603.901 847.595L608.958 863.247L601.212 865.775L592.819 839.419L600.511 836.945L600.888 837.214ZM625.527 828.984L635.909 854.533L643.601 851.413L632.95 825.595L625.204 828.715L625.527 828.984ZM620.846 818.227L628.969 814.946L631.605 821.454L623.482 824.735L620.846 818.227ZM659.524 844.69L638.329 823.283L646.291 819.625L659.847 834.04L657.965 814.246L664.958 811.073L667.378 840.226L659.202 843.937L659.524 844.69ZM699.009 810.32L683.194 819.249C685.345 823.39 687.874 824.627 690.618 822.852C692.742 821.986 693.926 819.711 693.414 817.474L699.924 813.816C701.915 819.195 699.924 823.605 693.146 827.424C685.438 831.797 679.337 829.845 674.856 821.561C670.375 813.278 671.79 806.931 679.106 802.521C683.14 799.804 688.412 799.804 692.446 802.521C693.84 803.548 695.104 804.742 696.212 806.071C696.535 806.716 696.912 807.361 697.342 808.115C697.977 808.9 698.536 809.75 699.009 810.643V810.32ZM680.451 814.408L688.843 809.674C686.96 806.286 684.539 805.425 681.688 807.039C678.837 808.652 678.676 810.965 680.451 814.408ZM694.868 793.215C695.486 794.35 696.229 795.41 697.073 796.389C697.519 796.765 697.918 797.201 698.256 797.68L710.898 815.699L717.515 811.019L709.661 799.831C709.527 799.584 709.36 799.347 709.177 799.132C708.423 797.938 707.928 796.604 707.724 795.206C708.041 793.705 708.81 792.333 709.93 791.279L712.942 789.181L708.746 783.265C705.11 785.023 703.19 789.074 704.12 793L701.162 788.805L695.029 793.054L694.868 793.215ZM735.106 772.453L729.242 777.079C728.059 775.788 726.553 775.842 724.67 777.079C722.786 778.316 722.571 779.822 723.701 781.059C724.831 782.297 726.445 781.759 729.726 780.414C736.397 777.563 740.97 777.778 743.498 781.006C746.295 785.524 744.842 790.311 739.032 795.421C733.223 800.531 727.79 800.315 724.294 796.335L729.78 791.01C731.286 792.516 733.169 792.462 735.16 791.01C737.15 789.558 737.472 787.944 736.343 786.277C735.213 784.609 733.116 785.362 729.887 786.976C723.647 790.418 719.129 790.096 716.44 786.115C713.749 782.135 715.094 777.617 720.689 772.507C726.284 768.312 730.856 768.15 734.407 772.023L735.106 772.453ZM735.106 761.696L754.041 781.705L760.12 776.003L740.539 755.672L734.46 761.373L735.106 761.696ZM726.714 753.144L733.116 747.12L737.957 752.229L731.555 758.254L726.714 753.144ZM744.896 752.767L748.716 748.733L744.842 745.076L748.393 736.954L753.987 742.601L758.13 738.245L762.164 742.063L758.022 746.42L767.436 754.972C769.641 757.608 771.471 757.877 772.816 755.726C773.558 755.145 774.161 754.413 774.591 753.574L778.141 756.963L773.892 762.341C770.287 766.375 766.36 766.16 762.11 761.75L752.32 752.498L748.501 756.532L744.466 752.713L744.896 752.767ZM785.188 736.631L766.844 728.778L761.142 735.394L788.847 745.506L794.226 754.65L799.605 748.464L780.186 713.395L774.806 719.526L785.188 736.631Z" fill="#8A1A1F"/>
<path fill-rule="evenodd" clip-rule="evenodd" d="M460.814 716.03V751.691H450.701V728.348C449.257 729.477 447.708 730.472 446.075 731.306C444.338 732.14 442.54 732.844 440.695 733.404V725.497C443.473 724.685 446.08 723.372 448.387 721.624C450.212 720.183 451.684 718.343 452.691 716.245L460.814 716.03ZM475.07 743.839L484.753 742.655C484.901 743.693 485.35 744.667 486.044 745.452C486.657 746.022 487.467 746.329 488.303 746.313C489.881 746.307 491.309 745.382 491.961 743.946C492.867 741.59 493.359 739.1 493.414 736.577C492.372 737.653 491.153 738.546 489.81 739.213C485.6 740.896 480.793 739.901 477.598 736.685C475.431 734.42 474.269 731.376 474.371 728.24C474.342 726.003 474.898 723.797 475.984 721.839C477.047 719.984 478.638 718.483 480.556 717.536C482.828 716.477 485.314 715.96 487.819 716.03C490.744 715.917 493.648 716.547 496.265 717.859C498.513 719.198 500.281 721.215 501.321 723.614C502.746 726.885 503.408 730.435 503.258 733.995C503.673 738.96 502.236 743.903 499.224 747.873C496.352 750.89 492.303 752.504 488.141 752.283C485.913 752.364 483.689 752.036 481.579 751.315C480.024 750.702 478.64 749.723 477.544 748.464C476.405 747.114 475.562 745.538 475.07 743.839ZM493.037 728.186C493.131 726.567 492.612 724.975 491.585 723.722C490.728 722.678 489.44 722.081 488.088 722.108C486.849 722.087 485.664 722.619 484.86 723.561C483.181 726.282 483.181 729.714 484.86 732.435C485.667 733.447 486.901 734.028 488.195 733.995C489.509 734.022 490.768 733.474 491.639 732.489C492.598 731.268 493.077 729.735 492.983 728.186H493.037ZM514.555 716.622H537.687V724.421H521.71L520.903 729.8C521.914 729.289 522.978 728.891 524.076 728.617C525.119 728.385 526.182 728.262 527.251 728.24C530.395 728.116 533.457 729.257 535.75 731.414C537.918 733.506 539.109 736.416 539.031 739.428C539.008 741.698 538.436 743.935 537.364 745.936C536.29 747.98 534.62 749.648 532.576 750.723C530.118 751.923 527.402 752.498 524.668 752.391C522.659 752.423 520.653 752.208 518.697 751.745C517.187 751.347 515.765 750.669 514.501 749.755C513.383 748.964 512.432 747.959 511.704 746.797C510.885 745.538 510.267 744.156 509.875 742.709L519.72 741.633C519.883 742.978 520.466 744.242 521.387 745.237C522.249 746.038 523.384 746.479 524.561 746.474C525.853 746.496 527.084 745.92 527.896 744.914C528.896 743.591 529.374 741.945 529.241 740.289C529.381 738.648 528.902 737.018 527.896 735.717C526.983 734.738 525.684 734.205 524.345 734.264C523.385 734.248 522.438 734.49 521.602 734.964C520.777 735.431 520.047 736.055 519.451 736.792L511.165 735.609L514.232 716.73L514.555 716.622ZM552.211 732.758C550.909 732.102 549.769 731.166 548.875 730.015C547.907 728.627 547.399 726.971 547.423 725.282C547.454 722.323 549.023 719.591 551.566 718.074C554.148 716.541 557.119 715.794 560.119 715.923C563.782 715.643 567.435 716.59 570.501 718.612C572.65 720.177 573.913 722.678 573.891 725.336C573.884 726.906 573.417 728.439 572.545 729.746C571.69 730.946 570.613 731.968 569.371 732.758C571.109 733.522 572.586 734.77 573.622 736.362C574.552 737.841 575.037 739.562 575.02 741.31C575.026 743.021 574.601 744.704 573.783 746.205C573.108 747.62 572.091 748.835 570.824 749.755C569.502 750.637 568.023 751.261 566.467 751.584C564.697 751.96 562.896 752.159 561.087 752.176C558.191 752.326 555.295 751.869 552.588 750.831C550.718 750.062 549.15 748.701 548.122 746.958C547.08 745.242 546.54 743.263 546.563 741.257C546.384 737.502 548.708 734.081 552.265 732.866L552.211 732.758ZM556.622 725.873C556.581 726.955 556.99 728.009 557.752 728.778C558.56 729.552 559.648 729.956 560.765 729.907C561.813 729.94 562.827 729.526 563.561 728.778C564.281 728.03 564.668 727.019 564.637 725.981C564.686 724.884 564.277 723.808 563.508 723.023C561.854 721.544 559.353 721.544 557.699 723.023C556.977 723.813 556.591 724.857 556.622 725.927V725.873ZM556.084 740.934C556.01 742.327 556.516 743.693 557.482 744.699C558.282 745.656 559.464 746.205 560.711 746.205C561.921 746.184 563.061 745.635 563.83 744.699C565.687 742.51 565.687 739.304 563.83 737.115C563.018 736.174 561.845 735.63 560.603 735.609C559.382 735.593 558.217 736.125 557.429 737.061C556.401 738.126 555.856 739.562 555.923 741.042L556.084 740.934Z" fill="white"/>
<path d="M737.41 340.519C827.7 470.558 795.464 649.159 665.408 739.438C535.353 829.715 356.728 797.483 266.437 667.445C176.148 537.407 208.384 358.805 338.439 268.528C468.495 178.25 647.12 210.481 737.41 340.519Z" fill="white" stroke="#8A1A1F" stroke-width="7.63816" stroke-miterlimit="22.93"/>
<path d="M737.41 340.519C827.7 470.558 795.464 649.159 665.408 739.438C535.353 829.715 356.728 797.483 266.437 667.445C176.148 537.407 208.384 358.805 338.439 268.528C468.495 178.25 647.12 210.481 737.41 340.519Z" fill="white" stroke="#891B20" stroke-width="7.63816" stroke-miterlimit="22.93"/>
<path d="M754.327 403.175C810.607 543.581 742.393 703.021 601.968 759.293C461.543 815.565 302.082 747.361 245.802 606.955C189.522 466.548 257.735 307.109 398.161 250.837C538.586 194.564 698.047 262.768 754.327 403.175Z" fill="#8A1A1F" stroke="#8A1A1F" stroke-width="7.63796" stroke-miterlimit="22.93"/>
<path fill-rule="evenodd" clip-rule="evenodd" d="M501.153 710.329C474.256 688.061 374.306 652.991 334.391 656.541V500.558H345.902V646.483C382.752 647.397 464.735 673.969 501.26 697.205C537.787 673.969 617.618 647.397 654.521 646.483V500.558H666.034V656.541C626.011 652.83 528.373 687.899 501.26 710.329H501.153ZM500.185 635.026C527.083 612.758 563.017 606.734 599.221 606.788V456.613H587.709V596.461C570.052 596.668 552.516 599.403 535.636 604.583C522.907 608.601 510.903 614.63 500.077 622.44C489.258 614.619 477.252 608.59 464.52 604.583C447.623 599.387 430.068 596.653 412.393 596.461V456.613H400.988V606.788C437.192 606.788 472.912 612.758 500.023 635.026H500.185ZM500.185 671.925C527.083 649.657 596.37 628.895 636.339 632.283V482.108H624.826V621.956C587.978 622.87 536.765 635.457 500.185 658.693C463.658 635.457 412.446 622.87 375.597 621.956V482.108H363.977V632.283C403.947 628.626 472.965 649.657 500.077 671.925H500.185Z" fill="white"/>
<path fill-rule="evenodd" clip-rule="evenodd" d="M401.101 352.213C404.562 340.1 414.664 331.045 427.084 328.923C429.235 328.6 434.4 328.439 436.659 328.008C437.134 327.161 437.673 326.352 438.272 325.588C444.943 317.036 455.487 315.314 465.547 314.454C467.698 314.454 472.002 314.131 474.53 313.647L475.337 311.98C476.376 309.569 477.58 307.233 478.942 304.987C484.711 296.169 494.659 290.993 505.193 291.325H506.215C515.364 291.012 524.064 295.291 529.4 302.728C530.733 304.758 531.852 306.921 532.736 309.183C532.736 309.183 533.059 309.936 533.274 310.312C535.258 311.435 537.305 312.441 539.406 313.324C544.737 315.686 549.602 318.983 553.769 323.06C555.276 324.023 556.73 325.064 558.127 326.179C560.527 328.281 562.375 330.941 563.507 333.925C566.23 334.962 568.758 336.453 570.984 338.335C574.805 341.549 577.81 345.623 579.753 350.222C583.169 350.05 586.594 350.23 589.973 350.76C600.463 352.32 612.083 355.87 614.288 368.08C615.902 377.224 610.577 383.248 605.143 389.595C603.831 390.982 602.712 392.538 601.808 394.221C603.105 399.753 604.907 405.154 607.187 410.357C608.155 412.993 609.124 415.736 609.931 418.479C615.988 416.364 622.438 415.629 628.813 416.327C640.702 404.225 661.627 399.922 677.227 401.213C718.004 404.548 727.311 430.312 731.022 462.423L708.967 459.411C704.706 459.242 700.467 460.014 696.54 461.67C689.934 464.561 685.292 470.666 684.275 477.806C679.627 488.527 672.198 497.811 662.758 504.7C672.881 509.747 680.612 518.578 684.275 529.281C689.116 545.417 680.994 559.994 669.481 570.805L655.442 583.929C651.998 569.729 648.61 566.717 643.929 564.189C637.683 564.928 631.572 566.502 625.747 568.869C607.456 575.807 581.958 576.722 562.7 574.678C540.805 572.365 516.167 564.942 501.428 548.967C485.881 564.404 460.974 570.482 440.21 572.257C419.421 574.42 398.41 572.427 378.4 566.394C372.402 564.079 366.126 562.561 359.733 561.876C352.793 566.717 352.148 574.355 348.382 580.379C333.159 566.879 312.878 552.087 319.387 528.689C322.317 519.341 328.627 511.42 337.085 506.475C327.667 499.563 320.244 490.286 315.567 479.581C314.55 472.442 309.911 466.336 303.302 463.445C293.135 459.035 279.633 462.746 268.82 464.198C276.351 430.635 282.538 406.269 322.614 403.042C338.322 401.751 359.248 406 371.03 418.102C376.446 417.569 381.914 418.025 387.168 419.447C388.083 416.274 389.158 413.154 390.288 410.142C392.525 405.032 394.325 399.742 395.668 394.328C394.841 392.506 393.693 390.849 392.278 389.434C386.899 383.14 381.52 377.17 383.187 367.919C384.854 358.667 392.923 354.364 401.101 352.213Z" fill="white"/>
<path fill-rule="evenodd" clip-rule="evenodd" d="M407.018 358.826C410.3 347.585 416.056 338.764 428.536 336.774C429.905 336.53 431.29 336.368 432.678 336.289C436.981 335.967 440.694 336.289 443.437 332.524C447.849 324.349 458.123 323.058 466.515 322.359C470.653 322.256 474.765 321.696 478.78 320.691C480.076 319.874 481.104 318.696 481.739 317.303C483.191 314.667 484.159 311.924 485.828 309.342C490.194 302.675 497.771 298.825 505.731 299.23H506.215C512.716 298.896 518.967 301.77 522.945 306.922C524.775 309.611 525.528 312.784 527.249 315.205C529.268 316.917 531.56 318.28 534.027 319.239C539.264 321.387 544.046 324.508 548.121 328.437C549.52 329.889 551.402 330.642 553.016 332.04C555.202 334.075 556.641 336.783 557.105 339.732L558.719 340.324C560.887 341.121 562.948 342.187 564.851 343.497C569.758 347.243 573.155 352.625 574.427 358.665C579.205 357.94 584.065 357.94 588.844 358.665C595.622 359.687 604.982 361.57 606.649 369.692C607.779 375.931 602.884 380.449 599.226 384.806C596.574 387.28 594.702 390.478 593.847 394.004C594.952 400.64 596.945 407.098 599.763 413.206C601.991 418.678 603.524 424.405 604.336 430.256C612.303 424.652 622.276 422.696 631.772 424.878C641.078 412.237 662.381 408.096 676.528 409.279C696.702 410.893 713.754 422.027 718.381 442.681L720.801 453.439L709.935 452.148C704.421 451.786 698.896 452.706 693.797 454.837C684.985 458.442 678.616 466.289 676.905 475.653C670.542 489.929 658.513 500.905 643.714 505.935C657.109 509.432 672.279 517.769 676.528 531.807C680.456 544.931 673.14 556.765 663.833 565.478L656.84 572.04L651.891 563.811C650.815 561.982 649.739 558.432 647.749 557.464C642.369 554.936 627.791 559.992 622.68 561.928C605.573 568.436 581.205 569.189 563.184 567.307C540.59 564.886 513.155 556.549 501.374 536.756C480.179 569.028 410.838 570.265 380.713 559.4C375.333 557.518 361.077 552.73 355.376 555.205C353.385 556.065 352.363 559.346 351.287 561.121L346.391 568.813L339.775 562.681C330.737 554.721 323.26 543.587 326.757 531C329.93 519.436 341.174 511.422 354.138 507.119C340.623 501.574 329.705 491.121 323.583 477.858L323.26 477.159V476.46C321.374 467.391 315.104 459.851 306.53 456.343C301.417 454.264 295.901 453.363 290.391 453.708L279.633 455.16L282.053 444.402C284.225 434.19 290.257 425.21 298.891 419.337C306.383 414.474 314.993 411.604 323.906 411C338.053 409.871 359.356 414.012 368.662 426.653C377.275 424.778 386.276 426.198 393.893 430.633C394.671 424.613 396.226 418.719 398.518 413.098C401.334 406.992 403.306 400.532 404.382 393.896C403.554 390.359 401.68 387.154 399.002 384.698C395.291 380.449 390.449 375.877 391.579 369.638C392.709 362.161 400.617 359.956 407.018 358.826Z" fill="#8A1A1F"/>
<path fill-rule="evenodd" clip-rule="evenodd" d="M441.767 719.741L429.986 754.272L420.195 750.937L431.976 716.406L441.767 719.741ZM480.767 764.546L471.569 760.458L480.122 741.148C480.351 740.653 480.496 740.126 480.552 739.588C480.617 738.663 480.307 737.754 479.692 737.06C479.068 736.329 478.175 735.882 477.218 735.823C475.229 735.716 473.529 737.232 473.419 739.223C473.368 740.137 473.668 741.041 474.258 741.74C474.869 742.455 475.74 742.902 476.68 742.977H477.702L472.322 753.143C469.281 751.707 466.638 749.544 464.629 746.85C463.076 744.461 462.41 741.611 462.747 738.781C463.225 731.133 469.815 725.318 477.465 725.797C477.562 725.803 477.659 725.813 477.755 725.819C481.4 726.104 484.776 727.852 487.115 730.66C489.574 733.301 490.804 736.856 490.504 740.449C490.069 743.149 489.217 745.758 487.976 748.194L480.606 764.599L480.767 764.546ZM531.012 725.496L532.41 735.877L523.481 737.06V738.781C526.28 739.067 528.944 740.132 531.173 741.847C533.616 743.94 535.173 746.882 535.53 750.077C536.063 753.439 535.078 756.87 532.841 759.436C530.431 762.184 527.065 763.916 523.427 764.277C520.654 764.599 517.844 764.234 515.25 763.201L514.067 754.326C515.89 754.988 517.836 755.246 519.768 755.079C521.15 754.966 522.457 754.401 523.481 753.465C524.309 752.61 524.671 751.405 524.449 750.238C524.209 748.743 523.211 747.484 521.813 746.903C520.138 746.107 518.261 745.849 516.434 746.15C515.348 746.322 514.283 746.608 513.259 747.011L514.659 727.701L531.442 725.496H531.012ZM577.867 729.691C579.487 730.477 580.961 731.531 582.224 732.811C585.448 736.797 586.076 742.288 583.838 746.903C582.292 750.018 579.527 752.352 576.2 753.358C572.946 754.536 569.355 754.342 566.247 752.82C563.195 751.303 560.901 748.603 559.899 745.344C559.33 743.794 559.109 742.143 559.253 740.503C559.425 738.625 559.954 736.802 560.814 735.124C559.075 733.951 557.786 732.23 557.156 730.229C556.16 727.551 556.355 724.576 557.694 722.054C559.027 719.461 561.358 717.519 564.149 716.675C566.904 715.685 569.939 715.82 572.595 717.051C575.203 718.283 577.162 720.574 577.974 723.344C578.647 725.335 578.647 727.486 577.974 729.476L577.867 729.691ZM566.57 724.313C565.814 724.528 565.188 725.055 564.848 725.765C564.531 726.486 564.531 727.303 564.848 728.024C565.243 729.578 566.824 730.52 568.379 730.122C568.496 730.095 568.61 730.057 568.722 730.014C569.479 729.794 570.093 729.24 570.389 728.508C571.133 727.007 570.535 725.184 569.045 724.42C568.303 724.124 567.473 724.124 566.731 724.42L566.57 724.313ZM570.874 737.168C569.741 737.507 568.803 738.308 568.292 739.373C567.81 740.433 567.81 741.648 568.292 742.708C568.627 743.87 569.425 744.843 570.497 745.397C571.575 745.881 572.808 745.881 573.886 745.397C575.039 745.075 575.999 744.268 576.522 743.192C577.01 742.079 577.01 740.809 576.522 739.696C576.165 738.588 575.366 737.673 574.316 737.168C573.206 736.732 571.969 736.748 570.874 737.222V737.168Z" fill="white"/>
<path fill-rule="evenodd" clip-rule="evenodd" d="M488.188 513.305C479.47 508.342 474.933 498.336 476.946 488.509C479.475 478.45 488.688 471.525 499.055 471.889C509.578 470.789 519.543 476.838 523.424 486.68C526.591 496.02 523.271 506.332 515.247 512.068C558.766 491.575 540.477 447.039 498.033 447.523C460.807 447.792 437.676 497.115 488.403 513.52L488.188 513.305ZM522.671 376.846C527.35 375.018 538.486 371.468 543.381 382.225C539.021 389.202 539.021 398.054 543.381 405.031C535.167 404.976 527.241 408.053 521.219 413.637C511.642 408.258 486.467 406.967 476.999 413.637C473.306 410.199 468.87 407.659 464.035 406.214C465.394 404.228 466.496 402.077 467.317 399.814C470.114 392.983 475.924 383.677 500.077 385.13C490.072 383.301 471.566 377.922 463.335 398.361C461.991 401.642 460.807 404.386 458.601 405.246C457.276 405.164 455.946 405.164 454.621 405.246C460.485 395.457 456.934 385.183 450.586 376.577C441.241 366.623 428.251 360.896 414.598 360.71C422.721 332.794 439.935 351.943 449.779 336.129C454.19 327.523 474.794 331.342 482.056 327.2C492.815 321.338 487.435 307.245 505.457 306.707C518.206 307.191 516.215 313.592 520.735 319.67C525.253 325.748 535.635 326.77 542.252 333.816C546.125 337.904 548.438 336.559 549.299 341.562C550.159 350.867 563.501 342.691 567.321 363.507C558.878 366.275 551.409 371.409 545.803 378.299L545.372 377.922C539.785 371.642 530.882 369.497 523.047 372.543C520.053 369.342 516.674 366.524 512.988 364.152C514.225 355.815 520.142 351.459 533.376 353.395C511.105 347.586 510.728 360.602 509.652 362.431C503.251 357.248 495.111 354.708 486.897 355.331C486.897 349.953 486.897 344.036 494.052 343.122C501.207 342.207 500.776 342.745 503.627 341.454C502.336 334.247 511.965 329.029 518.636 331.934C510.782 327.469 499.808 331.019 500.185 339.948C489.425 340.862 482.433 340.97 483.186 355.493C475.655 355.493 474.148 351.459 470.974 348.823C466.833 345.434 462.313 343.444 452.631 345.918C462.421 344.197 464.626 349.684 469.307 353.341C472.426 355.762 474.687 359.527 480.549 359.957C487.112 359.532 493.702 360.02 500.131 361.409C508.629 364.945 516.303 370.201 522.671 376.846ZM595.293 463.229C602.502 478.29 622.191 481.624 629.883 472.158C636.124 466.08 634.455 456.506 623.912 453.278C620.307 452.203 620.038 456.022 623.213 456.237C625.257 456.237 634.294 460.701 627.032 470.383C619.769 480.065 601.049 474.471 599.436 456.344C597.499 451.557 606.16 424.072 636.069 433.646C643.062 412.938 702.506 405.515 711.382 444.403C705.518 443.597 677.222 444.403 669.96 472.965C659.702 495.414 634.359 506.748 610.786 499.428C603.47 491.252 591.259 487.272 574.798 490.661C584.128 483.681 591.246 474.155 595.293 463.229ZM405.238 465.058C398.029 480.065 378.34 483.453 370.647 473.933C364.407 467.909 366.074 458.281 376.619 455.107C380.223 453.978 380.492 457.85 377.318 458.065C375.274 458.065 366.236 462.53 373.498 472.212C380.76 481.893 399.482 476.299 401.095 458.173C402.978 453.386 394.371 425.901 364.461 435.475C357.468 414.713 298.025 407.344 289.148 446.232C295.012 445.425 323.255 446.232 330.571 474.793C341.265 497.43 366.853 508.91 390.875 501.848C399.948 492.581 413.312 488.922 425.84 492.274C416.434 485.386 409.207 475.938 405.022 465.058H405.238ZM556.615 503.946C549.137 517.339 556.615 533.314 571.677 533.368C582.007 534.282 590.829 526.698 587.17 516.371C585.879 512.875 581.79 515.188 583.674 517.823C584.857 519.491 586.363 529.334 571.57 530.033C556.776 530.732 550.052 509.325 567.751 496.255C571.408 491.629 605.407 483.668 615.413 513.09C641.395 505.022 693.038 527.774 658.932 559.724C655.866 554.668 654.682 541.544 620.307 554.345C589.429 566.071 506.102 562.951 503.735 516.694C519.066 518.146 545.803 512.606 556.615 503.892V503.946ZM446.874 506.367C458.709 514.435 484.907 518.307 500.185 517.124C497.872 561.176 414.598 563.328 383.72 552.194C349.345 539.822 348.161 552.194 345.095 557.088C310.989 526.752 362.632 505.183 388.614 512.821C398.729 484.959 432.511 495.448 436.17 499.858C453.814 512.229 446.928 529.495 432.404 528.904C417.879 528.312 419.17 518.899 420.353 517.339C422.237 514.865 418.094 512.66 416.857 515.995C413.199 525.73 422.237 532.938 432.35 532.131C447.358 532.131 454.352 519.276 446.874 506.582V506.367ZM500.669 474.094C528.427 473.556 529.772 513.467 502.014 513.52C474.471 515.941 468.123 474.202 500.669 474.094ZM558.39 414.498C560.004 411.163 533.537 402.772 551.182 378.836C560.652 369.082 574.174 364.376 587.654 366.143C613.315 370.015 587.654 377.169 586.363 393.036C585.449 402.987 597.122 420.36 597.122 433.377C600.673 475.009 557.637 506.958 522.241 512.176C553.603 493.404 541.875 466.887 535.742 458.98C548.546 460.109 563.286 455.161 563.393 442.037C563.393 423.749 540.746 427.622 540.1 435.044C541.391 438.487 549.729 427.084 557.368 435.367C561.188 439.509 559.198 447.2 555.055 451.503C546.986 459.518 526.167 455.86 520.411 447.2C505.618 423.48 536.011 398.792 558.39 414.928V414.498ZM439.666 414.498C462.044 398.361 492.438 423.157 477.645 446.77C472.265 456.344 451.016 459.087 443.001 451.073C438.859 446.931 436.869 439.24 440.634 434.937C448.273 426.6 456.772 438.003 457.902 434.614C457.31 427.191 434.878 423.319 434.663 441.606C435.469 456.129 450.478 462.046 465.648 458.173C455.266 465.542 444.777 495.233 475.816 511.961C440.526 506.582 397.545 474.793 401.041 433.485C401.041 420.468 412.553 403.095 411.8 393.144C410.401 377.008 384.903 370.015 410.455 366.25C423.963 364.479 437.511 369.208 446.982 378.998C464.626 402.879 438.106 411.27 439.773 414.605L439.666 414.498ZM479.043 417.832C485.499 412.185 510.728 412.454 519.281 417.832C511.946 426.157 511.002 438.33 516.968 447.684C505.479 442.578 492.363 442.578 480.872 447.684C486.743 438.375 486.007 426.356 479.043 417.832Z" fill="white"/>
</svg>
