<svg width="889" height="889" viewBox="0 0 889 889" fill="none" xmlns="http://www.w3.org/2000/svg">
    <path d="M444.434 3.94098C687.878 3.94098 885.228 201.244 885.228 444.63C885.228 688.016 687.878 885.319 444.434 885.319C200.989 885.319 3.63867 688.016 3.63867 444.63C3.63867 201.244 200.989 3.94098 444.434 3.94098Z" stroke="#231815" stroke-width="7.02744" stroke-miterlimit="22.93"/>
    <path d="M447.472 105.752C635.71 106.409 787.774 259.501 787.117 447.693C786.46 635.884 633.331 787.911 445.093 787.254C256.856 786.597 104.791 633.505 105.448 445.314C106.105 257.122 259.235 105.095 447.472 105.752Z" fill="#005B36"/>
    <path fill-rule="evenodd" clip-rule="evenodd" d="M379.342 310.176C344.2 277.402 301.311 248.104 226.682 237.105C288.471 299.599 260.805 418.356 273.868 489.963C295.424 608.496 358.306 685.218 445.998 716.105C310.673 595.933 303.868 485.99 314.374 355.638C315.218 328.177 306.004 300.468 286.757 280.952L379.342 310.176Z" fill="white"/>
    <path fill-rule="evenodd" clip-rule="evenodd" d="M503.044 309.63C480.023 267.421 448.581 226.056 381.229 192.114C420.12 270.897 356.394 374.856 346.138 446.909C329.151 566.212 364.59 658.824 438.027 715.807C347.553 559.086 375.816 452.62 426.975 332.274C436.462 306.477 436.487 277.278 424.491 252.672L503.044 309.63Z" fill="white"/>
    <path fill-rule="evenodd" clip-rule="evenodd" d="M651.806 365.346C656.077 329.766 654.886 291.083 628.659 241.375C618.204 305.93 534.56 341.585 497.184 380.914C435.295 446.015 416.767 517.473 436.735 583.915C449.575 449.665 512.754 397.226 595.877 346.253C612.79 334.682 625.407 316.979 628.709 296.793L651.806 365.346Z" fill="white"/>
    <path d="M92.3991 268.563C93.8148 266.08 94.1624 264.292 93.4919 263.324C92.8213 262.356 91.4058 262.455 89.2452 263.671C86.0067 266.149 82.539 268.31 78.889 270.127C76.5649 271.11 75.4787 273.792 76.4623 276.116C76.5264 276.267 76.5986 276.414 76.6786 276.558C77.9582 278.827 80.8357 279.632 83.1062 278.35C83.2442 278.273 83.3786 278.189 83.5083 278.097C87.2623 275.761 90.3299 272.471 92.3991 268.563Z" fill="#231815"/>
    <path d="M99.0301 262.306C97.9244 258.249 95.7652 254.557 92.7717 251.605C92.4163 251.369 92.1192 251.053 91.9024 250.686C89.1706 248.575 88.3758 246.49 89.4189 244.404C90.9338 241.648 92.8461 240.903 95.1557 242.194C96.5277 242.994 97.6268 244.188 98.3098 245.621C98.6575 246.093 99.0051 246.291 99.3528 246.192L99.7254 245.497L110.454 226.155C111.348 224.5 112.49 224.078 113.881 224.889C115.818 226.279 115.917 228.265 114.13 230.922L111.075 236.434C110.61 237.062 110.741 237.948 111.37 238.414C111.47 238.488 111.579 238.549 111.696 238.594L117.21 241.648C117.816 242.12 118.689 242.011 119.161 241.405C119.25 241.291 119.32 241.163 119.37 241.027C124.601 231.592 128.939 223.763 132.383 217.539C133.029 216.397 133.65 215.851 134.221 215.876C134.792 215.901 135.09 216.199 135.761 217.167C141.026 223.391 141.108 228.357 136.009 232.064C131.719 235.209 128.216 239.305 125.778 244.032C125.317 244.646 125.441 245.518 126.055 245.978C126.16 246.057 126.276 246.121 126.398 246.167C134.677 250.753 141.597 254.279 147.16 256.744C150.102 258.276 151.459 261.742 150.339 264.863C149.345 268.819 147.127 269.837 143.683 267.917C139.445 265.268 131.994 261.015 121.332 255.155C120.742 254.683 119.883 254.78 119.412 255.369C119.32 255.483 119.247 255.612 119.196 255.751C116.642 260.332 114.848 265.295 113.881 270.45C113.534 272.684 112.615 273.827 111.075 273.876C109.535 273.926 108.443 272.411 107.349 270.028C106.024 266.939 106.45 263.379 108.468 260.692C110.451 258.241 112.22 255.624 113.757 252.871C114.214 252.253 114.084 251.384 113.467 250.927C113.359 250.845 113.239 250.78 113.112 250.736L106.903 247.284C105.984 246.763 105.14 247.284 104.42 248.575C103.432 249.948 102.99 251.637 103.177 253.318C103.959 255.317 104.462 257.415 104.668 259.55C104.668 262.033 104.195 263.647 102.854 264.516C101.514 265.385 100.048 264.516 99.0797 262.405L99.0301 262.306Z" fill="#231815"/>
    <path d="M87.308 296.471C88.5497 298.035 89.7915 298.68 90.76 298.382C91.7285 298.084 92.9455 297.166 93.3925 295.304C94.0593 290.782 95.685 286.457 98.1608 282.616C98.4341 281.548 99.2535 281.424 100.644 282.194C110.264 286.581 115.835 291.463 117.359 296.843C118.723 299.736 121.781 301.434 124.958 301.064C126.87 300.319 127.987 297.762 128.285 293.441C128.425 285.856 126.484 278.375 122.673 271.815C121.431 270.226 120.189 269.581 119.196 269.879C118.203 270.177 117.781 271.368 118.178 273.38C118.454 276.143 118.57 278.921 118.525 281.697C118.352 283.113 117.557 283.435 116.191 282.666C108.02 277.7 103.525 274.298 102.656 272.014C97.9869 268.521 94.8908 269.506 93.3677 274.969C93.0049 279.46 90.9977 283.659 87.7302 286.762C84.5679 288.632 84.4271 291.87 87.308 296.471Z" fill="#231815"/>
    <path d="M337.072 72.3147C335.6 68.2884 334.51 64.1318 333.82 59.9002C333.661 56.4256 330.817 53.6793 327.337 53.6433C323.962 53.257 320.825 55.4362 320.011 58.7332C309.869 61.6856 300.051 65.6536 290.706 70.5766C286.757 69.9063 283.976 70.7505 282.361 73.0595C280.747 75.3686 281.641 78.3233 284.026 81.3524C286.464 84.8374 288.538 88.565 290.209 92.4758C292.693 97.9878 296.691 97.963 302.08 92.4758C302.361 92.3534 302.577 92.1193 302.676 91.8302C303.424 91.2284 304.261 90.7504 305.16 90.415L325.674 82.1469C327.124 81.4058 328.738 81.0388 330.368 81.0793C336.874 80.9634 339.109 78.042 337.072 72.3147ZM293.984 77.2805C293.555 75.8722 294.193 74.3583 295.499 73.6803C303.61 69.5624 312.061 66.1482 320.756 63.4756C322.122 63.0778 323.595 63.4699 324.58 64.4936C325.244 65.2061 325.205 66.3215 324.491 66.9851C324.253 67.2074 323.957 67.3593 323.637 67.4234C316.169 70.7338 307.189 74.5078 296.691 78.7454C295.226 79.4158 294.307 78.944 293.984 77.3798V77.2805ZM326.444 76.5108C319.82 79.1757 311.624 82.7677 301.857 87.2865C300.633 87.9286 299.127 87.6749 298.181 86.6658C297.114 85.3747 297.238 84.3319 298.603 83.4877C307.32 78.7856 316.3 74.5907 325.5 70.9243C327.233 71.6483 328.052 73.6405 327.327 75.3741C327.129 75.8476 326.828 76.2699 326.444 76.6101V76.5108Z" fill="#231815"/>
    <path d="M353.315 81.9483C349.142 75.0955 344.771 74.8969 340.276 81.2531C331.999 84.0339 320.277 88.7681 305.111 95.4553C301.01 97.4272 296.6 98.6706 292.072 99.13C284.795 100.098 283.106 104.096 287.104 110.973C289.506 114.945 291.597 119.095 293.363 123.388C296.858 129.91 300.995 130.357 305.781 124.729C307.658 122.308 310.273 120.565 313.232 119.763C320.309 116.883 328.653 113.68 338.29 110.055L347.081 106.504C348.199 105.784 349.564 106.057 351.254 107.373C356.685 108.863 359.392 106.777 359.375 101.116C356.767 93.32 354.805 87.0134 353.315 81.9483ZM297.014 105.958C296.766 104.642 297.61 103.475 299.497 102.805L341.245 85.9458C344.101 86.7651 344.796 88.4287 343.306 91.0605C329.15 96.7712 314.888 102.25 300.516 107.497C299.289 108.112 297.796 107.616 297.183 106.391C297.114 106.252 297.056 106.107 297.014 105.958ZM346.858 100.744C337.189 104.915 323.495 110.708 305.781 118.124C302.254 117.851 301.112 116.063 302.304 112.711C309.836 108.838 321.949 103.665 338.638 97.1933L344.498 94.7104C346.61 95.1573 347.379 97.1188 346.858 100.744Z" fill="#231815"/>
    <path d="M589.396 71.0732C588.03 73.0392 586.927 75.1762 586.117 77.4294L589.818 78.8447C592.302 79.7882 595.455 77.3301 599.379 71.5201C601.912 67.1336 604.744 66.3805 607.872 69.2607C610.878 72.414 609.934 75.2693 604.967 77.8764C602.238 78.6515 599.699 79.9876 597.517 81.7993C602.114 84.7376 607.259 86.714 612.642 87.6093C619.843 87.2617 622.774 89.8191 621.557 95.2566C619.843 99.6762 618.527 103.127 617.583 105.585C616.908 107.288 615.475 108.575 613.709 109.062C610.282 109.062 608.891 108.342 609.562 106.579L613.237 97.0195C613.995 95.6827 613.523 93.9861 612.186 93.2298C612.179 93.2269 612.174 93.2236 612.169 93.2207C603.079 88.741 593.685 84.9077 584.056 81.7497C573.856 77.7728 563.453 74.3415 552.888 71.4705C547.921 70.1794 544.966 71.4705 543.699 75.5424L541.439 81.4517C541.094 82.9584 539.594 83.9021 538.087 83.5622C536.691 82.7049 535.971 81.0748 536.274 79.4654C538.243 72.8443 539.9 67.8373 541.24 64.4439C543.923 60.3719 547.251 59.8257 551.175 62.7555C552.116 64.1517 553.539 65.1508 555.173 65.5612L564.734 69.3352C563.92 67.228 562.828 65.2404 561.481 63.4259C559.718 58.4601 561.68 55.9772 567.343 55.9772C569.773 56.8865 571.401 59.1921 571.44 61.7872C571.329 65.0254 570.809 68.2365 569.9 71.3463L582.442 76.1632C582.178 73.3121 581.543 70.5076 580.555 67.8206C580.555 63.0038 582.864 61.092 587.807 62.1596C590.918 63.6327 591.449 66.6537 589.396 71.2222V71.0732Z" fill="#231815"/>
    <path d="M572.731 80.3344C570.496 78.0502 566.771 77.8515 561.506 79.8378C559.937 80.285 559.028 81.9198 559.475 83.489C559.552 83.7603 559.666 84.0191 559.817 84.2574C561.287 85.9321 563.488 86.777 565.703 86.5168C571.304 86.0781 576.933 86.7967 582.243 88.6273C584.213 89.3722 585.132 90.2908 585 91.3833C585 92.2027 583.932 92.6744 581.92 92.7489C580.902 93.1958 579.437 92.7489 577.5 91.0357C574.792 89.9929 573.402 90.7378 573.302 93.2207C573.506 93.9179 573.506 94.6588 573.302 95.356C572.813 95.7622 572.126 95.8307 571.564 95.5298C565.817 93.9678 560.287 91.6994 555.099 88.7763C552.593 86.8101 549.053 86.862 546.605 88.9004C544.717 90.1419 543.898 91.5323 544.121 93.0469C544.933 94.5642 546.417 95.6057 548.12 95.8525C555.33 96.3417 562.422 97.924 569.155 100.545C571.465 101.141 571.639 102.656 569.95 105.064C566.026 110.907 558.973 110.179 548.79 102.879C547.4 102.06 546.432 102.109 545.785 103.003C545.139 103.897 545.115 104.419 546.059 105.486C550.634 112.411 558.128 116.858 566.398 117.553C573.973 117.553 578.815 113.903 581.299 106.33C581.299 105.263 581.647 104.642 581.995 104.493C582.342 104.344 582.839 104.493 583.484 105.064C591.762 109.368 597.559 111.577 600.87 111.693C604.421 110.526 605.241 109.211 603.352 107.572C594.511 104.162 587.973 101.365 583.734 99.1796C582.668 98.5629 582.116 97.3316 582.367 96.1257C585.497 95.9422 588.628 96.4246 591.556 97.5409C595.281 98.112 597.244 96.3491 597.417 92.1779C596.747 88.8011 594.338 87.0383 590.165 86.8645C583.84 86.4141 577.79 84.0983 572.781 80.2103L572.731 80.3344Z" fill="#231815"/>
    <path d="M794.234 242.914C794.42 244.528 795.001 246.071 795.922 247.409C797.339 249.345 798.555 249.891 799.573 248.973L803.671 246.614C805.484 245.546 807.074 246.167 808.389 248.427C811.271 253.392 811.37 256.769 808.639 258.358C805.907 259.947 805.236 260.841 805.981 261.71C807.818 264.888 809.16 267.172 809.93 268.538C810.93 269.841 812.08 271.026 813.357 272.064C816.088 274.713 815.56 277.742 811.767 281.151C811.285 281.424 810.883 281.819 810.6 282.293C807.744 284.23 805.633 285.67 803.944 286.589C802.514 287.629 800.51 287.311 799.469 285.879C799.409 285.797 799.352 285.71 799.3 285.62C798.506 284.255 799.052 282.864 800.989 281.474C803.323 280.446 805.172 278.561 806.155 276.21C806.552 274.745 805.559 271.989 803.174 267.892C798.208 259.235 793.904 252.3 790.26 247.086C787.776 243.908 784.35 243.957 779.805 247.086C777.768 248.278 776.229 248.253 775.21 247.086C774.639 245.596 775.334 244.131 777.247 242.716C779.382 240.93 781.658 239.319 784.052 237.899C787.478 235.938 790.211 235.714 792.322 237.204C793.998 238.597 794.738 240.82 794.234 242.939V242.914Z" fill="#231815"/>
    <path d="M796.445 273.578C796.693 274.025 797.314 274 798.208 273.578C799.573 272.784 799.325 270.773 797.488 267.594C795.21 263.721 792.724 259.974 790.037 256.372C789.982 256.25 789.915 256.133 789.838 256.024C789.838 253.541 788.249 251.629 784.722 250.314C782.959 250.314 782.462 251.629 783.182 253.939C787.123 260.856 791.539 267.493 796.395 273.802L796.445 273.578Z" fill="#231815"/>
    <path d="M771.088 254.932C774.738 258.606 775.608 260.667 773.77 261.139C765.358 266.569 756.443 263.505 747.023 251.952C746.489 251.597 745.793 251.597 745.259 251.952C743.273 254.435 743.571 257.489 746.179 261.437C754.871 272.841 765.574 274.266 778.29 265.707C780.501 265.36 781.27 266.13 780.55 268.19C778.528 269.439 776.4 270.512 774.192 271.393C769.449 272.508 765.758 276.228 764.68 280.977C764.286 288.937 765.607 296.888 768.555 304.292C772.355 308.761 778.488 310.772 786.609 310.275C790.707 309.456 791.925 308.413 790.335 307.221C782.596 303.346 776.892 296.341 774.664 287.979C773.78 284.967 774.234 281.722 775.906 279.065C780.352 274.671 783.58 273.429 785.567 275.291C786.883 277.601 788.348 280.083 789.913 282.74C792.397 282.74 793.762 281.913 794.01 280.257C790.61 272.23 786.24 264.652 780.997 257.688C780.63 257.112 780.406 256.456 780.352 255.776C779.989 253.631 778.436 251.88 776.353 251.257C774.636 250.532 772.68 250.651 771.064 251.58C769.821 252.573 769.846 253.641 771.064 254.758L771.088 254.932Z" fill="#231815"/>
    <path d="M788.026 227.372C784.241 223.553 781.613 218.741 780.451 213.492C779.579 210.587 777.098 208.454 774.093 208.03C770.094 208.03 768.455 209.321 769.126 212.226L771.088 215.652C771.486 216.323 771.237 216.919 770.318 217.465L733.389 238.768C731.327 239.96 731.203 241.574 732.966 243.585C734.38 245.486 736.853 246.267 739.101 245.522L748.662 239.985C749.58 239.463 750.45 239.985 751.146 241.251C755.815 248.269 761.246 250.305 767.437 247.359C770.838 245.625 772.807 241.965 772.379 238.172C771.635 235.267 771.957 234.001 773.397 234.398C776.653 235.328 779.974 236.017 783.331 236.459C789.069 234.994 790.633 231.94 788.026 227.372ZM760.93 242.095C757.93 241.387 755.288 239.625 753.48 237.129C753.231 236.682 753.48 236.161 754.449 235.664L761.899 231.295C763.265 230.5 764.581 231.295 765.922 233.554C767.586 238.867 765.847 241.673 760.93 242.095ZM778.613 230.053C775.007 231.252 771.036 230.407 768.232 227.843L775.683 223.523C779.987 224.069 780.965 226.246 778.613 230.053Z" fill="#231815"/>
    <path d="M70.6934 502.476L81.4717 508.113C83.2157 509.029 84.8774 510.091 86.4387 511.291C87.6231 512.165 88.6622 513.222 89.5183 514.419C90.2479 515.509 90.7543 516.733 91.0083 518.019L92.5481 517.821L90.6358 502.377L89.1209 502.576C89.213 503.509 89.213 504.448 89.1209 505.381C89.0782 505.943 88.8708 506.476 88.5248 506.921C88.1968 507.259 87.7538 507.462 87.2831 507.492C86.8055 507.561 86.3202 507.561 85.8427 507.492C85.1942 507.35 84.5555 507.169 83.9304 506.946C83.2025 506.668 82.4897 506.352 81.7946 506.002L72.3574 501.235L80.8509 494.357C82.2739 492.989 83.9651 491.934 85.8179 491.254C86.4412 491.167 87.0509 491.485 87.3328 492.048C87.8275 493.044 88.1387 494.122 88.2517 495.226L89.7914 495.053L87.457 476.207L85.942 476.381C85.9713 477.148 85.9045 477.916 85.7434 478.665C85.5784 479.378 85.2929 480.058 84.899 480.677C84.3808 481.434 83.7814 482.134 83.1108 482.762C82.341 483.507 81.3475 484.376 80.1554 485.245L66.9185 496.145L54.1533 489.392C51.8902 488.274 49.806 486.827 47.9694 485.096C46.6351 483.837 45.702 482.214 45.2873 480.428L43.7475 480.627L45.6598 496.12L47.1747 495.946C47.0781 494.956 47.0781 493.958 47.1747 492.967C47.2325 492.361 47.4752 491.79 47.8701 491.328C48.2257 490.946 48.7147 490.715 49.236 490.683C50.0181 490.626 50.8038 490.725 51.5457 490.981C52.6431 491.331 53.707 491.78 54.7245 492.321L65.0558 497.585L55.3951 505.506C54.5048 506.233 53.5764 506.913 52.6135 507.542C52.0565 507.914 51.445 508.2 50.8006 508.386H50.6267C50.2314 508.47 49.8192 508.388 49.4844 508.162C49.1131 507.842 48.8453 507.417 48.7145 506.946C48.445 506.139 48.2538 505.307 48.1433 504.463L46.6283 504.661L48.9379 523.556L50.4529 523.382C50.4609 522.546 50.5694 521.711 50.7758 520.9C50.9863 520.155 51.3042 519.442 51.7195 518.789C52.2452 518.007 52.853 517.282 53.5324 516.629C54.3023 515.884 55.2461 515.04 56.3884 514.146L70.7182 502.402L70.6934 502.476ZM98.0118 538.28L96.5714 538.752C96.848 539.643 97.0475 540.557 97.1674 541.483C97.2396 542.081 97.1272 542.687 96.8445 543.221C96.4504 543.752 95.9177 544.164 95.3048 544.413C94.3384 544.855 93.3428 545.227 92.3246 545.53L73.2514 551.737C71.8357 552.184 70.594 552.656 69.5261 553.103C68.5842 553.492 67.6714 553.949 66.7943 554.468C66.0398 554.925 65.34 555.466 64.7081 556.082C64.1044 556.678 63.5559 557.326 63.069 558.019C61.7215 560.07 60.9496 562.446 60.8339 564.896C60.7167 567.839 61.1461 570.776 62.1005 573.562C62.9158 576.325 64.3416 578.87 66.2728 581.011C68.0618 582.835 70.3522 584.089 72.854 584.611C73.987 584.861 75.1465 584.968 76.3061 584.933C77.6849 584.866 79.0558 584.685 80.4038 584.387C82.1743 583.987 83.9231 583.498 85.644 582.922L98.7568 578.677C100.328 578.125 101.939 577.693 103.574 577.385C104.632 577.164 105.722 577.164 106.778 577.385C107.596 577.547 108.332 577.986 108.865 578.627C109.503 579.431 109.999 580.338 110.33 581.308L111.845 580.812L107.349 567.032L105.835 567.528C106.149 568.524 106.308 569.562 106.307 570.607C106.273 571.444 105.948 572.243 105.388 572.867C104.634 573.626 103.739 574.232 102.755 574.654C101.216 575.357 99.6313 575.953 98.0118 576.442L84.9486 580.688C82.9909 581.336 80.9911 581.85 78.9634 582.227C77.4766 582.525 75.9576 582.634 74.4435 582.55C73.0052 582.421 71.6053 582.018 70.3209 581.358C69.0655 580.673 67.966 579.734 67.0923 578.602C66.133 577.39 65.4088 576.007 64.9565 574.53C64.3227 572.723 64.1521 570.786 64.4598 568.894C64.7712 567.134 65.5617 565.492 66.7446 564.152C67.4378 563.365 68.231 562.672 69.104 562.091C70.15 561.398 71.2554 560.8 72.407 560.303C73.6984 559.732 75.2133 559.186 76.9518 558.615L94.6839 552.854C95.688 552.497 96.7174 552.214 97.7635 552.01C98.3962 551.829 99.0678 551.829 99.7005 552.01C100.247 552.249 100.7 552.658 100.992 553.177C101.429 553.972 101.795 554.801 102.085 555.66L103.55 555.188L98.0118 538.181V538.28ZM125.852 640.401L138.443 633.424C137.947 633.002 137.574 632.655 137.3 632.382C137.072 632.171 136.864 631.937 136.679 631.686C136.502 631.483 136.352 631.257 136.233 631.016C136.014 630.659 135.839 630.274 135.711 629.874C135.557 629.487 135.433 629.089 135.339 628.682C135.016 627.341 134.718 626.199 134.47 625.281C134.221 624.362 133.998 623.592 133.774 622.947C133.565 622.328 133.315 621.723 133.029 621.134C132.748 620.503 132.433 619.89 132.085 619.297C130.695 616.707 128.783 614.433 126.473 612.618C124.338 610.934 121.851 609.755 119.196 609.167C116.393 608.593 113.505 608.593 110.702 609.167C107.485 609.805 104.392 610.952 101.538 612.568C99.5655 613.656 97.7167 614.954 96.025 616.441C94.4875 617.77 93.1342 619.299 92.0018 620.985C90.9172 622.554 90.0797 624.277 89.5183 626.1C89.0742 627.716 88.8569 629.387 88.8725 631.066C88.8991 632.836 89.1495 634.596 89.6176 636.305C90.1058 638.087 90.8062 639.803 91.7037 641.419C93.4541 644.883 96.2525 647.706 99.7005 649.489C103.289 651.098 107.283 651.574 111.149 650.854V648.893C110.38 648.893 109.684 649.067 109.064 649.091C108.485 649.129 107.903 649.129 107.325 649.091C106.778 649.091 106.207 649.091 105.661 648.943C104.117 648.736 102.613 648.309 101.191 647.676C99.8325 647.051 98.583 646.214 97.4903 645.193C96.4067 644.208 95.4923 643.048 94.7832 641.767C93.7774 639.994 93.239 637.995 93.2187 635.957C93.2654 633.891 93.8015 631.865 94.7832 630.048C95.9485 627.92 97.4687 626.003 99.2783 624.387C101.487 622.403 103.921 620.687 106.53 619.272C109.059 617.844 111.73 616.687 114.502 615.821C116.809 615.103 119.215 614.758 121.63 614.803C122.872 614.847 124.097 615.098 125.256 615.548C126.367 616.012 127.398 616.647 128.31 617.435C129.244 618.242 130.026 619.21 130.62 620.29C131.231 621.405 131.651 622.611 131.862 623.865C132.062 625.141 132.062 626.438 131.862 627.714C131.646 629.067 131.227 630.383 130.62 631.612C129.798 633.318 128.679 634.865 127.317 636.18C126.572 636.9 125.703 637.645 124.833 638.465L125.852 640.302V640.401ZM143.981 678.489L155.977 693.784L144.329 702.896C143.497 703.579 142.617 704.199 141.696 704.758C141.145 705.128 140.497 705.327 139.834 705.329C139.207 705.272 138.62 704.999 138.17 704.559C137.449 703.914 136.785 703.206 136.183 702.449L134.966 703.392L146.266 717.843L147.483 716.899C146.886 716.122 146.363 715.29 145.919 714.417C145.619 713.88 145.505 713.262 145.595 712.654C145.754 712.013 146.101 711.435 146.589 710.99C147.371 710.235 148.2 709.53 149.072 708.88L171.797 691.127C172.578 690.461 173.408 689.856 174.28 689.314C174.818 688.952 175.446 688.746 176.093 688.719C176.695 688.776 177.262 689.029 177.707 689.439C178.412 690.049 179.06 690.722 179.645 691.45L180.836 690.506L169.809 676.378L168.593 677.322C169.169 678.055 169.669 678.844 170.082 679.681C170.364 680.205 170.469 680.806 170.38 681.394C170.2 682.025 169.848 682.591 169.362 683.033C168.589 683.782 167.759 684.47 166.879 685.094L157.342 692.542L145.297 677.123L154.81 669.675C155.595 669.007 156.425 668.393 157.293 667.837C157.84 667.48 158.477 667.284 159.131 667.266C159.73 667.318 160.296 667.562 160.745 667.962C161.447 668.567 162.088 669.24 162.658 669.973L163.874 669.029L152.872 654.951L151.655 655.895C152.224 656.62 152.716 657.402 153.12 658.229C153.402 658.752 153.506 659.353 153.418 659.942C153.236 660.565 152.883 661.124 152.4 661.556C151.621 662.305 150.791 663.003 149.916 663.641L127.193 681.369C126.358 682.054 125.479 682.685 124.56 683.256C124.012 683.614 123.376 683.81 122.723 683.827C122.104 683.758 121.523 683.497 121.059 683.082C120.353 682.429 119.697 681.724 119.097 680.972L117.88 681.915L129.179 696.366L130.397 695.422C129.799 694.64 129.268 693.808 128.807 692.939C128.502 692.388 128.38 691.753 128.459 691.127C128.634 690.486 128.987 689.91 129.478 689.463C130.254 688.709 131.084 688.011 131.961 687.378L143.634 678.266L143.981 678.489ZM186.647 736.018L198.196 746.247L195.538 752.579C195.242 753.266 194.91 753.937 194.545 754.59C194.257 755.101 193.934 755.59 193.577 756.055V756.179C193.228 756.628 192.722 756.929 192.161 757.023C191.537 757.095 190.907 756.953 190.373 756.626C189.488 756.142 188.656 755.568 187.89 754.913L186.871 756.055L201.151 768.916L202.194 767.774L201.176 766.582C200.977 766.346 200.795 766.098 200.63 765.837C200.503 765.634 200.395 765.415 200.307 765.192C200.041 764.283 200.041 763.32 200.307 762.411C200.631 760.896 201.096 759.417 201.698 757.991L216.35 722.511L212.774 720.028L181.184 736.341C179.404 737.291 177.542 738.081 175.621 738.699C174.342 739.124 172.983 739.253 171.648 739.072C170.493 738.853 169.425 738.312 168.568 737.507L167.525 738.65L178.799 748.78L179.818 747.638C178.708 746.699 177.854 745.495 177.334 744.137C177.052 743.144 177.338 742.076 178.079 741.356C178.621 740.758 179.24 740.231 179.918 739.792C180.797 739.188 181.718 738.65 182.674 738.178L186.896 735.968L186.647 736.018ZM199.065 744.162L188.808 734.751L206.987 725.316L199.139 744.062L199.065 744.162ZM251.467 756.576L255.441 802.311L259.216 804.496L275.706 775.943C276.429 774.587 277.26 773.293 278.189 772.069C278.795 771.242 279.563 770.55 280.449 770.033C280.929 769.75 281.46 769.572 282.014 769.512C282.59 769.45 283.173 769.509 283.728 769.686C284.488 769.909 285.22 770.217 285.913 770.604L286.707 769.214L273.793 761.765L272.999 763.131C273.694 763.58 274.349 764.087 274.96 764.646C275.403 765.04 275.758 765.522 276.004 766.061C276.232 766.557 276.337 767.104 276.302 767.65C276.307 768.256 276.225 768.856 276.054 769.438C275.803 770.294 275.47 771.126 275.059 771.92C274.637 772.839 274.041 773.932 273.297 775.198L262.22 794.391L258.37 752.951L247.866 746.595L247.096 747.936C247.918 748.457 248.669 749.083 249.331 749.798C249.831 750.304 250.162 750.957 250.275 751.66C250.348 752.454 250.229 753.254 249.927 753.994C249.49 755.069 248.966 756.107 248.362 757.097L236.665 777.358C235.862 778.808 234.949 780.193 233.934 781.504C233.275 782.406 232.427 783.151 231.45 783.689C230.693 784.104 229.821 784.26 228.966 784.136C227.918 783.957 226.909 783.597 225.986 783.069L225.192 784.459L238.007 791.908L238.801 790.517C237.874 789.981 237.035 789.301 236.317 788.506C235.801 787.873 235.505 787.088 235.473 786.271C235.465 785.244 235.686 784.226 236.119 783.292C236.74 781.83 237.462 780.409 238.28 779.046L251.318 756.452L251.467 756.576ZM322.371 808.841L321.874 810.281C322.788 810.609 323.677 811.009 324.531 811.473C325.088 811.753 325.545 812.195 325.848 812.739C326.084 813.295 326.136 813.914 325.997 814.502C325.808 815.448 325.542 816.379 325.202 817.283L321.924 826.817C321.626 826.954 321.318 827.07 321.005 827.165L320.16 827.363H319.142C318.109 827.45 317.071 827.45 316.037 827.363C315.099 827.257 314.175 827.048 313.281 826.743C311.942 826.283 310.696 825.583 309.606 824.682C308.573 823.8 307.727 822.718 307.122 821.504C306.382 819.823 305.952 818.023 305.855 816.19C305.714 813.961 305.813 811.721 306.153 809.511C306.558 806.976 307.191 804.484 308.04 802.063C308.883 799.565 309.966 797.154 311.269 794.862C312.384 792.874 313.753 791.036 315.342 789.4C316.843 787.806 318.762 786.671 320.88 786.123C322.974 785.628 325.167 785.758 327.188 786.495C330.834 787.707 333.631 790.661 334.639 794.366C334.897 795.173 335.071 796.005 335.161 796.849C335.238 797.765 335.238 798.688 335.161 799.605C335.091 800.687 334.959 801.765 334.763 802.832L336.849 803.503L341.319 790.567H339.929L338.811 790.443L337.769 790.145C336.894 789.852 336.059 789.45 335.285 788.953C334.292 788.307 333.421 787.761 332.801 787.339C332.18 786.917 331.435 786.52 330.864 786.222C330.3 785.926 329.72 785.661 329.125 785.427L327.238 784.707C324.426 783.714 321.447 783.292 318.471 783.466C315.722 783.655 313.05 784.452 310.648 785.8C308.137 787.232 305.947 789.169 304.217 791.486C302.209 794.145 300.648 797.114 299.596 800.275C298.166 804.143 297.632 808.287 298.032 812.392C298.427 815.905 299.882 819.212 302.205 821.876C304.81 824.699 308.105 826.795 311.766 827.959C312.71 828.294 313.671 828.575 314.647 828.804C315.59 829.002 316.608 829.176 317.702 829.3C318.794 829.424 320.185 829.548 321.502 829.623L323.463 829.772L325.103 829.946L326.692 830.244L328.504 830.666C328.504 830.219 328.728 829.797 328.852 829.424C328.976 829.052 329.051 828.655 329.201 828.257C329.35 827.86 329.449 827.388 329.623 826.892L330.243 825.029L331.882 820.287C332.255 819.22 332.577 818.351 332.85 817.804C333.047 817.295 333.307 816.811 333.621 816.364C333.835 816.094 334.105 815.873 334.416 815.719C334.706 815.59 335.017 815.513 335.334 815.495C335.739 815.438 336.146 815.438 336.551 815.495C337.122 815.614 337.687 815.763 338.24 815.942L338.737 814.502L322.371 808.841ZM417.265 805.315V806.855C418.201 806.897 419.132 807.021 420.046 807.227C420.629 807.349 421.157 807.664 421.537 808.121C421.909 808.665 422.123 809.3 422.157 809.958C422.222 811.026 422.222 812.094 422.157 813.161L421.462 833.198C421.462 834.688 421.462 836.004 421.462 837.146C421.502 838.172 421.619 839.192 421.81 840.2C421.981 841.054 422.247 841.888 422.604 842.683C422.94 843.465 423.364 844.207 423.871 844.893C425.327 846.872 427.291 848.416 429.558 849.362C432.29 850.472 435.203 851.07 438.151 851.125C441.039 851.326 443.935 850.869 446.62 849.784C448.946 848.719 450.906 846.991 452.257 844.818C452.875 843.83 453.374 842.77 453.747 841.665C454.159 840.354 454.45 839.008 454.617 837.643C454.865 835.848 455.007 834.04 455.039 832.23L455.536 818.425C455.558 816.761 455.697 815.103 455.958 813.459C456.102 812.387 456.447 811.351 456.976 810.405C457.42 809.7 458.083 809.159 458.864 808.866C459.839 808.543 460.865 808.392 461.893 808.419V806.83L447.39 806.333V807.922C448.435 807.965 449.465 808.173 450.445 808.543C451.214 808.848 451.85 809.422 452.232 810.157C452.702 811.118 452.972 812.166 453.027 813.236C453.134 814.932 453.134 816.63 453.027 818.326L452.53 832.056C452.481 834.112 452.282 836.163 451.934 838.189C451.708 839.684 451.291 841.144 450.693 842.534C450.113 843.852 449.269 845.037 448.209 846.01C447.139 846.953 445.889 847.671 444.533 848.12C443.056 848.58 441.511 848.781 439.964 848.716C438.052 848.699 436.174 848.202 434.5 847.276C432.94 846.392 431.666 845.084 430.825 843.502C430.321 842.579 429.938 841.593 429.683 840.572C429.392 839.348 429.207 838.102 429.135 836.848C429.135 835.458 429.135 833.844 429.135 832.006L429.782 813.385C429.794 812.312 429.876 811.242 430.03 810.182C430.105 809.529 430.363 808.908 430.775 808.394C431.19 807.97 431.728 807.691 432.314 807.6C433.226 807.466 434.15 807.406 435.071 807.426V805.886L417.191 805.266L417.265 805.315ZM491.049 810.281L523.533 842.782L527.83 842.013L522.093 809.561C521.805 808.029 521.631 806.477 521.572 804.918C521.517 803.898 521.661 802.88 521.994 801.914C522.187 801.39 522.483 800.908 522.863 800.499C523.278 800.086 523.767 799.759 524.303 799.53C525.028 799.215 525.786 798.981 526.563 798.835L526.265 797.271L511.588 799.754L511.861 801.318C512.688 801.248 513.518 801.248 514.344 801.318C514.935 801.333 515.519 801.467 516.058 801.715C516.537 801.966 516.96 802.313 517.3 802.733C517.695 803.192 518.013 803.711 518.244 804.273C518.571 805.079 518.837 805.909 519.038 806.755C519.286 807.749 519.535 808.965 519.783 810.405L523.633 832.23L493.98 802.957L481.86 805.092L482.109 806.606C483.079 806.47 484.069 806.47 485.039 806.606C485.749 806.681 486.417 806.976 486.951 807.451C487.525 807.997 487.953 808.682 488.194 809.437C488.571 810.562 488.854 811.716 489.038 812.888L493.111 835.929C493.414 837.571 493.605 839.229 493.682 840.895C493.761 841.98 493.617 843.07 493.26 844.098C492.952 844.893 492.396 845.563 491.67 846.01C490.753 846.546 489.755 846.924 488.715 847.127L488.988 848.692L503.566 846.209L503.293 844.644C502.25 844.821 501.182 844.821 500.139 844.644C499.329 844.51 498.592 844.098 498.053 843.477C497.385 842.693 496.901 841.767 496.637 840.771C496.166 839.252 495.81 837.7 495.569 836.128L491.024 810.48L491.049 810.281ZM562.847 833.397L580.704 827.239L580.207 825.799C579.243 826.12 578.254 826.36 577.251 826.519C576.628 826.641 575.983 826.554 575.414 826.271C574.839 825.931 574.387 825.417 574.122 824.806C573.643 823.845 573.235 822.85 572.905 821.827L563.543 794.515C563.165 793.512 562.867 792.484 562.648 791.436C562.469 790.803 562.469 790.132 562.648 789.499C562.914 788.928 563.359 788.456 563.915 788.159C564.769 787.694 565.658 787.297 566.572 786.967L566.075 785.527L548.691 791.51L549.188 792.951C550.111 792.648 551.058 792.422 552.019 792.28C552.637 792.166 553.275 792.263 553.832 792.553C554.381 792.928 554.818 793.442 555.099 794.043C555.546 795.004 555.936 795.99 556.266 796.998L565.628 824.31C566.008 825.32 566.316 826.358 566.547 827.413C566.743 828.044 566.743 828.719 566.547 829.35C566.259 829.923 565.8 830.393 565.231 830.691C564.337 831.19 563.396 831.607 562.424 831.932L562.922 833.397H562.847ZM626.474 808.394L630.647 806.184L625.68 770.902C625.436 769.259 625.322 767.598 625.332 765.937C625.325 764.775 625.459 763.615 625.729 762.485C625.891 761.952 626.107 761.435 626.375 760.946C626.663 760.484 627.006 760.06 627.393 759.68C627.885 759.253 628.406 758.86 628.957 758.513L628.237 757.147L614.702 764.546L615.422 765.912C616.142 765.589 616.738 765.316 617.236 765.142C617.683 764.981 618.137 764.847 618.601 764.745C619.262 764.586 619.957 764.638 620.588 764.894C621.165 765.164 621.637 765.619 621.93 766.185C622.285 766.917 622.568 767.682 622.774 768.469C623.064 769.512 623.278 770.575 623.419 771.647L627.418 799.307L606.407 779.766C605.608 779.026 604.846 778.249 604.122 777.432C603.623 776.894 603.181 776.303 602.806 775.67C602.675 775.396 602.59 775.101 602.558 774.801C602.493 774.522 602.493 774.234 602.558 773.956C602.687 773.495 602.935 773.075 603.278 772.74C603.837 772.241 604.444 771.801 605.092 771.424C605.201 771.315 605.325 771.22 605.464 771.151L605.961 770.803L605.241 769.462L588.278 778.475L588.998 779.841C589.738 779.503 590.525 779.277 591.332 779.17C592.026 779.076 592.731 779.143 593.394 779.369C594.204 779.674 594.963 780.092 595.654 780.611C596.474 781.231 597.467 782.051 598.609 783.093L626.375 808.469L626.474 808.394ZM673.884 780.114L700.656 760.673L693.578 748.829L691.864 749.773C692.771 751.576 693.471 753.475 693.951 755.434C694.333 756.909 694.4 758.448 694.149 759.953C693.881 761.358 693.275 762.679 692.386 763.801C691.293 765.152 690.014 766.339 688.587 767.327L683.346 771.151L671.277 754.615L674.703 752.132C675.757 751.34 676.879 750.642 678.056 750.046C678.826 749.654 679.676 749.44 680.54 749.425C681.431 749.487 682.288 749.788 683.023 750.294C683.995 751.019 684.876 751.851 685.656 752.777L687.195 751.66L678.131 739.245L676.616 740.338C677.219 741.334 677.694 742.401 678.031 743.516C678.26 744.328 678.26 745.187 678.031 745.999C677.766 746.87 677.279 747.658 676.616 748.283C675.692 749.199 674.686 750.031 673.611 750.766L670.183 753.249L659.281 738.352L663.975 734.95C665.4 733.87 666.95 732.971 668.594 732.268C669.868 731.72 671.259 731.489 672.642 731.598C674.023 731.727 675.352 732.187 676.517 732.939C678.021 733.895 679.408 735.027 680.639 736.316L682.278 735.049L674.033 725.515L647.832 744.559L648.726 745.8C649.503 745.222 650.336 744.723 651.21 744.311C651.764 744.037 652.387 743.943 652.998 744.037C653.641 744.234 654.217 744.601 654.662 745.105C655.4 745.882 656.08 746.711 656.698 747.588L673.635 770.878C674.298 771.729 674.887 772.635 675.399 773.584C675.739 774.152 675.911 774.808 675.896 775.471C675.816 776.082 675.536 776.648 675.101 777.085C674.428 777.76 673.705 778.381 672.94 778.947L673.834 780.188L673.884 780.114ZM718.587 715.559L728.247 724.572C729.017 725.324 729.85 726.014 730.731 726.632C731.235 727.054 731.861 727.305 732.519 727.352C733.132 727.347 733.727 727.136 734.208 726.756C734.978 726.178 735.701 725.537 736.369 724.845L737.486 725.887L725.068 739.245L723.951 738.203C724.599 737.495 725.18 736.73 725.69 735.918C726.045 735.419 726.219 734.816 726.187 734.205C726.09 733.552 725.794 732.946 725.342 732.467C724.656 731.648 723.911 730.886 723.107 730.183L702.022 710.518C701.245 709.774 700.416 709.083 699.538 708.458C699.034 708.045 698.423 707.785 697.775 707.713C697.174 707.705 696.591 707.896 696.112 708.259C695.371 708.8 694.673 709.399 694.025 710.047L692.908 709.004L705.325 695.82C706.368 694.672 707.47 693.578 708.628 692.542C709.612 691.651 710.647 690.822 711.732 690.059C712.566 689.463 713.466 688.962 714.415 688.57C716.103 687.84 717.969 687.624 719.779 687.949C721.659 688.401 723.377 689.364 724.745 690.73C727.162 692.689 728.523 695.666 728.421 698.774C727.974 702.486 726.365 705.962 723.827 708.706L724.174 709.029C724.889 708.403 725.663 707.844 726.485 707.365C727.227 706.926 728.019 706.576 728.843 706.322C729.696 706.066 730.567 705.893 731.451 705.801C732.079 705.739 732.71 705.739 733.338 705.801C734.077 705.846 734.809 705.962 735.524 706.149C736.344 706.347 737.337 706.62 738.505 707.017C739.672 707.415 740.988 707.886 742.751 708.507C744.514 709.128 745.234 709.376 746.204 709.625C747.013 709.848 747.847 709.982 748.687 710.022C749.275 710.037 749.859 709.927 750.401 709.699C750.962 709.428 751.473 709.068 751.915 708.631L752.958 709.6L745.036 718.116C743.074 717.197 741.286 716.403 739.721 715.633C738.157 714.863 736.741 714.342 735.499 713.845C734.258 713.349 733.016 712.902 732.072 712.554C731.129 712.207 730.086 711.884 729.216 711.636C728.096 711.296 726.934 711.112 725.764 711.089C724.815 711.082 723.876 711.303 723.032 711.735C722.096 712.269 721.255 712.956 720.548 713.771L718.935 715.484L718.587 715.559ZM717.345 714.417L719.506 712.083C721.627 710.081 722.906 707.345 723.082 704.435C722.938 701.64 721.622 699.035 719.456 697.26C717.621 695.268 715.038 694.134 712.328 694.131C709.53 694.533 706.994 696.001 705.251 698.228L702.767 700.86L717.321 714.417H717.345ZM772.156 685.168C772.429 684.522 772.677 684.001 772.876 683.579C773.075 683.157 773.248 682.809 773.422 682.511L773.944 681.692C774.167 681.369 774.391 681.071 774.639 680.773L775.385 679.954C776.154 679.209 776.8 678.588 777.321 678.042C777.811 677.58 778.275 677.091 778.712 676.577C779.109 676.18 779.457 675.758 779.805 675.336L780.774 673.995C781.953 672.351 782.867 670.534 783.481 668.607C784.057 666.881 784.3 665.062 784.201 663.244C784.112 661.533 783.583 659.872 782.661 658.427C780.781 655.502 777.905 653.357 774.564 652.394C773.176 652.051 771.731 651.992 770.318 652.22C769.349 652.396 768.393 652.645 767.462 652.965C766.314 653.382 765.194 653.874 764.109 654.43C762.868 655.026 761.427 655.82 759.788 656.789L756.882 658.402L754.772 659.445C754.239 659.696 753.693 659.912 753.132 660.091L751.667 660.463C750.783 660.649 749.868 660.649 748.985 660.463C748.093 660.227 747.252 659.832 746.502 659.296C745.349 658.509 744.418 657.441 743.794 656.193C743.231 655.038 742.997 653.747 743.124 652.468C743.295 651.078 743.817 649.754 744.639 648.62C745.555 647.249 746.824 646.152 748.314 645.442C749.811 644.749 751.466 644.468 753.107 644.622C753.879 644.662 754.645 644.779 755.392 644.97C756.177 645.178 756.939 645.452 757.677 645.789C758.471 646.162 759.341 646.633 760.31 647.204L761.65 645.268L751.096 637.323C750.947 637.918 750.798 638.415 750.649 638.837C750.537 639.195 750.396 639.545 750.226 639.88C750.099 640.161 749.94 640.429 749.754 640.674C749.57 640.935 749.372 641.183 749.158 641.419C748.92 641.717 748.654 641.99 748.364 642.239L746.378 644.151L745.11 645.466L744.216 646.485L743.422 647.552C742.608 648.709 741.884 649.931 741.261 651.202C740.764 652.26 740.404 653.379 740.193 654.529C739.895 656.036 739.895 657.59 740.193 659.098C741.191 663.373 744.328 666.829 748.488 668.235C749.59 668.605 750.753 668.763 751.915 668.706C753.187 668.637 754.441 668.386 755.641 667.962L756.857 667.515L758.347 666.819C758.919 666.546 759.614 666.174 760.434 665.727L763.489 664.039C765.018 663.175 766.592 662.395 768.207 661.705C769.367 661.193 770.583 660.826 771.833 660.612C773.733 660.225 775.708 660.677 777.247 661.854C778.535 662.708 779.594 663.867 780.327 665.23C780.947 666.447 781.173 667.827 780.972 669.178C780.729 670.7 780.133 672.145 779.233 673.399C777.699 675.879 775.106 677.511 772.206 677.819C768.674 677.861 765.214 676.84 762.271 674.889L760.93 676.826L772.206 685.292L772.156 685.168ZM804.442 633.474L813.01 616.665L811.643 615.97C811.171 616.839 810.632 617.668 810.029 618.453C809.669 618.979 809.145 619.374 808.538 619.57C807.883 619.711 807.203 619.659 806.577 619.421C805.571 619.048 804.593 618.609 803.646 618.105L777.992 605.045C777.033 604.573 776.105 604.042 775.211 603.456C774.649 603.103 774.194 602.607 773.894 602.016C773.693 601.42 773.693 600.774 773.894 600.178C774.177 599.25 774.535 598.344 774.962 597.472L773.596 596.777L765.251 613.164L766.617 613.859C767.058 612.983 767.582 612.151 768.182 611.376C768.545 610.872 769.059 610.5 769.647 610.309C770.31 610.197 770.988 610.274 771.61 610.532C772.61 610.9 773.581 611.339 774.515 611.848L800.144 624.908C801.119 625.365 802.057 625.896 802.951 626.497C803.515 626.85 803.961 627.359 804.242 627.962C804.428 628.578 804.428 629.233 804.242 629.849C803.932 630.82 803.552 631.766 803.1 632.68L804.442 633.474Z" fill="#231815"/>
    <path d="M791.229 553.748C791.69 552.42 792.248 551.124 792.893 549.875C793.372 548.912 793.993 548.025 794.731 547.243C796.057 545.85 797.8 544.927 799.697 544.611C800.912 544.422 802.144 544.355 803.373 544.413C804.764 544.413 806.428 544.661 808.34 544.934L808.887 542.898L794.234 539.323L782.76 574.605L796.668 580.29L797.438 578.304C795.874 577.485 794.532 576.715 793.415 576.02C792.429 575.399 791.497 574.692 790.633 573.909C789.955 573.294 789.369 572.584 788.895 571.799C788.358 570.932 787.986 569.971 787.802 568.968C787.626 567.841 787.626 566.694 787.802 565.567C788.021 564.08 788.353 562.61 788.795 561.172L822 571.948C823.04 572.253 824.053 572.646 825.029 573.115C825.651 573.39 826.164 573.862 826.495 574.456C826.78 575.076 826.867 575.769 826.743 576.442C826.562 577.52 826.306 578.58 825.973 579.62L827.413 580.092L833.598 561.073L832.132 560.601C831.804 561.651 831.387 562.672 830.891 563.655C830.607 564.291 830.128 564.822 829.525 565.17C828.903 565.458 828.205 565.537 827.538 565.393C826.477 565.182 825.432 564.899 824.408 564.549L791.204 553.748H791.229ZM826.247 496.22L813.283 485.593C812.04 484.575 810.997 483.631 810.128 482.787C809.381 482.025 808.708 481.193 808.116 480.304C807.635 479.537 807.275 478.7 807.049 477.821C806.84 476.942 806.748 476.041 806.776 475.14L805.261 474.966L803.348 490.41L804.889 490.608C804.889 490.037 805.087 489.565 805.187 489.168C805.254 488.83 805.345 488.498 805.46 488.175C805.566 487.862 805.691 487.554 805.832 487.256C806.07 486.74 806.45 486.303 806.925 485.99C807.354 485.697 807.873 485.565 808.39 485.618C809.038 485.732 809.659 485.958 810.228 486.288C811.037 486.73 811.809 487.236 812.538 487.803L824.21 497.262L810.054 503.544C809.185 503.941 808.49 504.239 807.943 504.438C807.503 504.622 807.044 504.763 806.577 504.86C806.239 504.91 805.897 504.91 805.559 504.86C804.819 504.803 804.19 504.301 803.969 503.594C803.641 502.467 803.549 501.282 803.696 500.118L802.181 499.919L799.921 518.367L801.436 518.541C801.59 517.93 801.816 517.337 802.107 516.778C802.415 516.237 802.809 515.753 803.274 515.338C803.852 514.831 804.486 514.389 805.162 514.022C806.105 513.493 807.074 513.011 808.067 512.582L827.115 503.991L838.242 505.357C839.314 505.461 840.377 505.652 841.42 505.928C842.076 506.067 842.667 506.417 843.109 506.921C843.509 507.47 843.728 508.13 843.73 508.808C843.767 509.903 843.725 510.998 843.606 512.085L845.12 512.259L847.604 492.719L846.09 492.545C845.966 493.62 845.75 494.683 845.443 495.723C845.277 496.386 844.902 496.977 844.376 497.411C843.829 497.809 843.164 498.01 842.489 497.982C841.415 497.99 840.345 497.915 839.285 497.759L826.247 496.22Z" fill="#231815"/>
    </svg>
    