<svg xmlns="http://www.w3.org/2000/svg" viewBox="0 0 102 102"><defs><style>.cls-1,.cls-2{fill:#6a1a0b;}.cls-2{fill-rule:evenodd;}</style></defs><g id="Layer_2" data-name="Layer 2"><g id="图层_1" data-name="图层 1"><path class="cls-1" d="M13.36,55.59h-.17c0-.43-.22-.6-.66-.53l-.91.06a4.07,4.07,0,0,1-.49-1.73,2.26,2.26,0,0,1,2.28-2.51,2.38,2.38,0,0,1,2.67,2.16,2.58,2.58,0,0,1-.19,1,1.45,1.45,0,0,0-.09.31c0,.11.12.2.34.26v.18l-1.65.09v-.15c.9-.44,1.35-1,1.35-1.61-.05-.8-.83-1.15-2.33-1.06s-2.21.55-2.18,1.4c0,.48.19.69.53.63l.75,0q.56,0,.45-.69h.17Z"/><path class="cls-1" d="M17.05,60.17l-.17,0a.49.49,0,0,0-.69-.39L14,60.27a2.23,2.23,0,0,1-1.39-.08A1.83,1.83,0,0,1,11.87,59,2,2,0,0,1,12,57.66,1.5,1.5,0,0,1,13.17,57l2.29-.46c.46-.06.64-.27.55-.65l.16,0L16.6,58l-.16,0c0-.48-.3-.64-.77-.5l-2.3.47c-.9.16-1.29.56-1.16,1.19s.72,1.06,1.71.83L16,59.57c.47-.06.66-.31.57-.76l.17,0Z"/><path class="cls-1" d="M13.52,64.18l-.15,0-.7-2.18.16,0q.22.61.69.42l3.23-1c.33-.09.44-.34.31-.74l.16-.06.69,2.19-.16.05s0,0,0-.05c-.13-.39-.35-.52-.68-.4l-3.23,1C13.49,63.5,13.39,63.76,13.52,64.18Z"/><path class="cls-1" d="M16.81,68.09l-1.63.54-1.51-3.48.1,0,5,.53-.43-.9a1.89,1.89,0,0,0-.2-.27,1.56,1.56,0,0,0-1.27-.28h-.06L16.78,64l1.39-.47,1.37,3.16-.1,0-5-.5a3.28,3.28,0,0,0,.91,1.52,1.76,1.76,0,0,0,1.43.18Z"/><path class="cls-1" d="M18.4,73.82l-.14.08L17.1,72l.14-.09c.24.35.49.43.75.22l1.37-.83L18.54,70l-1.36.83c-.3.14-.35.4-.14.77l-.14.09L15.74,69.8l.14-.09c.23.34.48.41.74.21l2.89-1.77c.31-.17.36-.42.16-.75l.14-.09L21,69.2l-.14.09c-.21-.35-.46-.43-.75-.23l-1.24.76.81,1.33,1.24-.77c.31-.17.36-.42.14-.77l.14-.09,1.16,1.89-.14.09c-.2-.33-.45-.4-.74-.2l-2.89,1.77Q18.1,73.28,18.4,73.82Z"/><path class="cls-1" d="M24.17,73.5a2.3,2.3,0,0,1-.44,3.36,2.31,2.31,0,1,1-3-3.53A2.32,2.32,0,0,1,24.17,73.5Zm-.18.15c-.51-.54-1.34-.36-2.49.56S20,76,20.52,76.56s1.33.38,2.47-.58S24.42,74.24,24,73.65Z"/><path class="cls-1" d="M29.21,78.63l-.11.13a.48.48,0,0,0-.78.11l-1.51,1.68a2.21,2.21,0,0,1-1.17.77,1.82,1.82,0,0,1-1.26-.5,2.06,2.06,0,0,1-.73-1.17,1.53,1.53,0,0,1,.53-1.27l1.56-1.75c.33-.32.35-.6.05-.85l.11-.12,1.65,1.48-.11.12c-.32-.36-.63-.33-.92.07L25,79.07c-.63.67-.7,1.23-.22,1.66s1.21.41,1.86-.37L28,78.76a.58.58,0,0,0,0-1l.11-.12Z"/><path class="cls-1" d="M33.84,87l-.09.15L31.88,86l.08-.14c.37.21.63.15.78-.19l1.77-3.08,0,0L31,85.49l-.16-.09L31.45,81l-1.63,2.84a.57.57,0,0,0,.19.94l-.08.15-1.3-.75.08-.14c.38.21.65.14.8-.22l1.66-2.89c.19-.27.11-.52-.25-.74L31,80l1.44.83-.54,3.53,2.79-2.24,1.43.82-.08.15c-.35-.25-.63-.15-.83.28l-1.55,2.7A.51.51,0,0,0,33.84,87Z"/><path class="cls-1" d="M36.4,83.21l.07-.16L40,84.41l-.51,1.31-.16-.07c.25-.78-.07-1.32-1-1.61-.32-.16-.51-.11-.57.14l-.59,1.51c.6.29,1.06.1,1.37-.59l.15.06-.86,2.21-.14-.06c.23-.73,0-1.2-.61-1.38l-.61,1.59c-.14.24,0,.43.38.56a1.69,1.69,0,0,0,2-.54l.16.06-.76,1.27L34.75,87.5l.06-.16c.4.14.64,0,.73-.27l1.22-3.16C36.9,83.59,36.78,83.35,36.4,83.21Z"/><path class="cls-1" d="M39.54,89.29l0-.16q.53.14.63-.33L41,85.4c.08-.28-.06-.48-.41-.58l0-.16,1.94.46a2.19,2.19,0,0,1,1.81,2.82,2.27,2.27,0,0,1-2.87,1.83Zm2.52-3.7L41.23,89c-.08.28,0,.44.28.49.85.22,1.44-.37,1.76-1.79s0-2.15-.74-2.36C42.23,85.29,42.07,85.37,42.06,85.59Z"/><path class="cls-1" d="M47.14,90.57l0,.17-2.28-.29,0-.17c.44,0,.67-.11.67-.44L46,86.48c.06-.35-.12-.54-.54-.6l0-.16,2.28.29,0,.16h0c-.4,0-.62.1-.64.45L46.57,90Q46.48,90.49,47.14,90.57Z"/><path class="cls-1" d="M52.22,89.86l.2.17a2.21,2.21,0,0,1-1.85,1,2.24,2.24,0,0,1-2.27-2.47c.13-1.58.9-2.41,2.33-2.49a2.56,2.56,0,0,1,1,.26,1.54,1.54,0,0,0,.3.12c.12,0,.21-.11.28-.33h.18l0,1.66h-.15c-.37-.92-.87-1.41-1.5-1.45-.8,0-1.21.73-1.24,2.23a3.28,3.28,0,0,0,.26,1.55,1.18,1.18,0,0,0,1,.65A1.89,1.89,0,0,0,52.22,89.86Z"/><path class="cls-1" d="M57.82,90.21l0,.17-2.1.24,0-.17h.07c.34-.06.48-.17.43-.33a4.23,4.23,0,0,0-.41-.9l-1.45.17a3.24,3.24,0,0,0-.2.94q0,.21.54.24h0l0,.16-1.32.15,0-.16q.41,0,.54-.9l1-4,.18,0L57,89.31C57.35,90,57.62,90.33,57.82,90.21Zm-3.41-1.1L55.67,89l-.85-1.65Z"/><path class="cls-1" d="M62.44,87.61l.15,1.62-3.66.93,0-.16c.39-.12.53-.34.42-.65l-.84-3.28c-.07-.34-.3-.47-.67-.37l0-.16L60,85l0,.16c-.49.07-.65.34-.48.8l.83,3.23c0,.3.26.37.66.23q1.17-.24,1.26-1.74Z"/><path class="cls-1" d="M67.91,81.88,68,82a.49.49,0,0,0-.2.77l1,2A2.2,2.2,0,0,1,69,86.22a1.79,1.79,0,0,1-1,1,2,2,0,0,1-1.36.22,1.52,1.52,0,0,1-1-1l-1-2.12c-.16-.43-.41-.56-.76-.38l-.07-.15,2-.94L66,83q-.69.24-.3.87l1,2.12c.38.84.86,1.13,1.44.85s.86-.95.4-1.86L67.57,83c-.17-.45-.46-.58-.88-.38l-.07-.15Z"/><path class="cls-1" d="M70.83,85.7l-.09-.13q.53-.37.18-.81L69.1,82c-.44-.14-.69-.19-.75-.13l-.09-.14L69.41,81,73,82.23l-1.16-1.78a.58.58,0,0,0-.9-.27L70.8,80,72,79.28l.09.14a.48.48,0,0,0-.11.76l2.24,3.44-.15.1-4.49-1.58,1.53,2.35q.35.63.9.27l.09.14Z"/><path class="cls-1" d="M77,81.08l.11.13-1.78,1.45-.1-.13c.33-.29.37-.56.14-.79l-2.14-2.62c-.21-.29-.48-.29-.81,0L72.3,79l1.77-1.45.11.13,0,0c-.32.26-.36.52-.13.77l2.15,2.63C76.37,81.36,76.64,81.36,77,81.08Z"/><path class="cls-1" d="M77.54,74.12l.12.11c-.19.19-.19.47,0,.82L79.54,79l-.12.13-4.14-1.77a.63.63,0,0,0-.75.05l-.12-.11L76,75.73l.12.12c-.3.3-.36.5-.18.61a2.07,2.07,0,0,0,.57.28l2.18,1-1.06-2.23-.06-.09a1.54,1.54,0,0,0-.2-.35c-.13-.18-.34-.12-.63.17l-.12-.12Z"/><path class="cls-1" d="M77.91,73.92l-.13-.1,2.27-3,1.12.85-.11.14c-.69-.46-1.29-.29-1.81.48-.25.27-.26.46,0,.59l1.3,1c.44-.5.38-1-.19-1.49l.09-.12,1.89,1.43-.09.12q-1-.63-1.5.21l1.36,1c.2.19.41.12.65-.22a1.69,1.69,0,0,0,0-2.11l.11-.14,1,1.08-2.3,3-.13-.1c.24-.35.22-.61-.07-.78l-2.7-2C78.41,73.55,78.15,73.6,77.91,73.92Z"/><path class="cls-1" d="M86.71,68.54l.15.08-.65,1.15-2.59.09-.08.16,1.2.67a.5.5,0,0,0,.85-.16l.14.08-1.08,1.91-.14-.08q.33-.54-.3-.81L81.5,70.09c-.4-.26-.69-.21-.85.17l-.15-.09,1-1.81q.91-1.56,2-1a1.21,1.21,0,0,1,.56,1.48l2.4-.16A.36.36,0,0,0,86.71,68.54ZM81.76,69l1.58.9c.48-.73.36-1.25-.34-1.57s-1-.28-1.28.18C81.54,68.77,81.55,68.93,81.76,69Z"/><path class="cls-1" d="M85.27,63.7l-.07.16c-.87-.08-1.43.14-1.68.69a.66.66,0,0,0,.34.91c.29.17.64.07,1-.31l.82-.68a1.42,1.42,0,0,1,1.47-.17,1.45,1.45,0,0,1,.71,2,3.08,3.08,0,0,1-.45.73,1.15,1.15,0,0,0-.15.23.21.21,0,0,0,.1.27l-.07.16-1.56-.64.07-.17c1,.18,1.63,0,1.89-.67a.75.75,0,0,0-.4-1c-.33-.16-.69,0-1.07.35l-.39.31a1.66,1.66,0,0,1-1.81.47,1.32,1.32,0,0,1-.74-1.88,2.11,2.11,0,0,1,.43-.62.89.89,0,0,0,.19-.23c0-.11,0-.2-.16-.28l.08-.19Z"/><path class="cls-1" d="M89.31,61.57l.15,0-.67,2.19-.16-.05c.12-.43,0-.67-.32-.74l-3.24-1c-.33-.12-.55,0-.68.43l-.16-.05.68-2.19.15,0v.05q-.18.59.33.72l3.24,1Q89.12,62.2,89.31,61.57Z"/><path class="cls-1" d="M90.19,57.53l.17,0-.45,2.27-.16,0c.13-.46,0-.71-.53-.75l-3.65-.72a1.15,1.15,0,0,0,.92,1.48l0,.17-1.37-.29.75-3.83,1.38.25,0,.2a1.12,1.12,0,0,0-1.4,1l3.65.71C89.88,58.17,90.14,58,90.19,57.53Z"/><path class="cls-1" d="M86.17,51h.17v0a.53.53,0,0,0,.25.42l2.12,1.38,1.29.07c.46.08.69-.1.7-.54h.16l-.13,2.26h-.17c0-.46-.16-.67-.62-.65l-1-.06L86.49,55a.62.62,0,0,0-.42.49H85.9L86,53.24h.16c0,.41,0,.59.22.55a.93.93,0,0,0,.3-.08.21.21,0,0,1,.09,0l1.7-.69-1.28-.79a1.43,1.43,0,0,0-.62-.29q-.3,0-.36.51h-.16Z"/><path class="cls-1" d="M51,0A50.8,50.8,0,0,0,15.06,15a51,51,0,0,0,36.15,87A50.92,50.92,0,0,0,102,51,50.92,50.92,0,0,0,51,0ZM98.83,51A47.71,47.71,0,0,1,51.21,98.83a48.07,48.07,0,0,1-48-47.63A47.05,47.05,0,0,1,17.3,17.44a47.74,47.74,0,0,1,67.49-.14A47.82,47.82,0,0,1,98.83,51Z"/><path class="cls-1" d="M18.31,31.54a2.35,2.35,0,0,0-.31-.38c-.07-.07-.13-.13-.13-.17s0-.19,0-.38,0-.64.06-1.05a3.74,3.74,0,0,1,0-.44,3.29,3.29,0,0,1,.12.64c0,.19,0,.21.09.23h.05l0-.05v0a3.7,3.7,0,0,0,.07-.7,1.57,1.57,0,0,1,.06-.57l0-.09a1.52,1.52,0,0,0,0-.74.83.83,0,0,0-.11-.66.32.32,0,0,0-.22-.1.42.42,0,0,0-.25.16.58.58,0,0,1-.19.16.29.29,0,0,0-.12.1.83.83,0,0,0,0,.64.61.61,0,0,0,.05.11l0,.14a2,2,0,0,0-.06.49v.26c0,.22,0,.34,0,.62v.68a1,1,0,0,0,0,.17v.17s0,0,0,0-.21-.23-.3-.32a1.75,1.75,0,0,1-.19-.2l-.06-.07c-.07-.09-.1-.11,0-.37a1.77,1.77,0,0,0,.05-.74.53.53,0,0,1,0-.13c0-.29,0-.43-.22-.52a1,1,0,0,0-.18,0h0v-.08a.32.32,0,0,1,0-.1V28a4.12,4.12,0,0,0-.06-.6q0-.26-.06-.6a2.78,2.78,0,0,1,0-.42c0-.12,0-.17-.13-.2h0a.5.5,0,0,0-.36.07l-.12.05a.28.28,0,0,0-.13.11.91.91,0,0,0,0,.65.56.56,0,0,1,0,.32c0,.06-.05.14-.08.25a1.85,1.85,0,0,0-.08.46,1.2,1.2,0,0,1,0,.31s0,.06,0,.06a.85.85,0,0,1-.2-.17,2.39,2.39,0,0,0-.23-.22L15,28a7.88,7.88,0,0,1-1-.9c-.51-.55-.68-.59-.91-.61a1.19,1.19,0,0,0-.42.11,1.5,1.5,0,0,1-.34.11.39.39,0,0,0-.3.17.15.15,0,0,0,0,.23l.12.08c.21.12.59.36.88.56a7.4,7.4,0,0,1,.63.51l.45.39a11.61,11.61,0,0,1,1.16,1.09c.07.09.07.09,0,.17a2.34,2.34,0,0,0-.11.28v.11a.14.14,0,0,0,.1.11h0a.12.12,0,0,0,.15,0l0-.09s0-.07,0-.1,0-.06,0-.13,0-.05,0-.06.16.14.25.24l.08.09.12.12,0,0h0a.29.29,0,0,0,0,.12.87.87,0,0,0,0,.32,4.32,4.32,0,0,1,.06.6.84.84,0,0,0,.08.37,1.49,1.49,0,0,0-.57-.2l-.12,0a1.77,1.77,0,0,0-1,.18,1.11,1.11,0,0,1-.29.1s-.06,0-.09.06l0,.05v0c0,.11.3.23,1.09.57l1,.42h.05a1.63,1.63,0,0,0,.19-.08.18.18,0,0,0,.08-.07.92.92,0,0,0,0-.74.89.89,0,0,0-.14-.24s.11,0,.18-.1a.37.37,0,0,0,.05-.11,1,1,0,0,0,0-.2c0-.09,0-.22.05-.44s0-.13,0-.15.24.19.43.38l.21.22c.41.41.4.42.38.53a.63.63,0,0,0,0,.16,4.18,4.18,0,0,0,0,.59c0,.2,0,.46,0,.81a6,6,0,0,1,0,.79c0,.14,0,.32-.05.67a14.52,14.52,0,0,0,.05,2v.08c.07,1,0,1-.12,1.16l0,.05,0,0c-.05.08,0,.13.06.24l0,.07c.06.1.11.14.17.15s.13,0,.18-.06l.09-.07.08,0a.2.2,0,0,0,.15-.08,1.65,1.65,0,0,0,.1-.39A2.88,2.88,0,0,0,18.31,37l0-.09a5.38,5.38,0,0,1-.16-.91,5.32,5.32,0,0,1,0-1,7.71,7.71,0,0,0,0-.82c0-.81-.12-1.74-.15-2a1.58,1.58,0,0,1,0-.19l.18.25c.16.25.25.3.32.3s.14-.14.16-.32,0-.33-.21-.6Z"/><path class="cls-1" d="M23.05,37.34a.68.68,0,0,0-.08-.46l-.09-.2a.63.63,0,0,1-.08-.31,1,1,0,0,0,0-.29,3.3,3.3,0,0,1-.16-.86c0-.15,0-.26,0-.36a1.88,1.88,0,0,0-.09-.67,2,2,0,0,0-.33-.67,1.45,1.45,0,0,1-.12-.19c-.13-.27-.47-.13-.67,0l-.06,0a.82.82,0,0,0-.22.12L21,33.5a.27.27,0,0,0-.08.07c-.06.09,0,.2,0,.32l.06.17a.64.64,0,0,0,0,.09c0,.07,0,.12.06.15l-.34-.17L20.56,34l-.36-.19-.65-.33c-.23-.11-.38-.16-.44-.07s-.09.15.48.64a4.3,4.3,0,0,0,.59.42l.15.09a2,2,0,0,1,.28.23,4.67,4.67,0,0,0,.58.47l0,0h0a.86.86,0,0,0,.48-.1.08.08,0,0,0,0,0,.29.29,0,0,0,0-.24l0,.05a4.56,4.56,0,0,1,.4.92,2.88,2.88,0,0,0,.2.46,5.23,5.23,0,0,1,.22.55,1.24,1.24,0,0,1,.08.45,3.88,3.88,0,0,0,0,.41.27.27,0,0,0,.11.14.21.21,0,0,0,.24-.05.44.44,0,0,0,0-.24A2.07,2.07,0,0,1,23.05,37.34Zm-1.64-2.83a3.45,3.45,0,0,0-.32-.21.17.17,0,0,0,.14,0h0c.09,0,.09,0,.16.11l.11.17.08.14A1.21,1.21,0,0,0,21.41,34.51Z"/><path class="cls-1" d="M19,32.44a4.36,4.36,0,0,0,.14-.55,2.77,2.77,0,0,0,.06-.66v-.37a1.39,1.39,0,0,1,0-.15v0l.09.09a1.81,1.81,0,0,1,.24.24l.21.22a6.22,6.22,0,0,0,.78.67l.58.45a11,11,0,0,0,1.46,1l.21.13,0,.06s0,.1.1.1a.11.11,0,0,0,.11-.06.61.61,0,0,0,.08-.49s0-.09,0-.15a.21.21,0,0,1,.05-.12.3.3,0,0,0,0-.31c0-.09-.16-.14-.26-.19l-.08,0-.28-.16a4.25,4.25,0,0,1-.46-.29,2.11,2.11,0,0,1-.35-.32,2.38,2.38,0,0,0-.29-.27c-.17-.11-.78-.59-1.1-.84l-.16-.12L20,30.1c-.1-.09-.2-.18-.32-.27a.93.93,0,0,1-.14-.14l-.1-.09a.36.36,0,0,1-.08-.12.37.37,0,0,0-.17-.16.12.12,0,0,0-.1,0h0l0,0a.61.61,0,0,1-.1.23s-.11.05-.17.06-.16,0-.2.1,0,0,0,.05a1,1,0,0,0,0,.31,4.27,4.27,0,0,1,.08.63,7.7,7.7,0,0,1,0,.8,9.43,9.43,0,0,0,0,1c0,.12.07.15.1.16s.22-.1.28-.28Z"/><path class="cls-1" d="M19.57,32.68v0s0,0,0,0l0,.06.06,0a.14.14,0,0,0,.18,0,.16.16,0,0,0,0-.12.25.25,0,0,1,0-.17l0-.1a.3.3,0,0,0,0-.27.2.2,0,0,0-.13-.09c-.14,0-.32.18-.38.29a.53.53,0,0,0-.06.1.77.77,0,0,1-.11.19,1.35,1.35,0,0,0-.15.26c-.06.12,0,.17,0,.18S19.47,32.83,19.57,32.68Z"/><path class="cls-1" d="M20.86,33l0-.05c.09-.13.09-.24-.12-.43a.37.37,0,0,0-.28-.09.53.53,0,0,0-.37.29.46.46,0,0,1-.17.22l-.1.09v0a.2.2,0,0,0,.15.19.4.4,0,0,0,.2,0h.06c.16,0,.19,0,.24.13s.1.16.16.16a.12.12,0,0,0,.1,0,.14.14,0,0,0,0-.12v-.09a.24.24,0,0,0,0-.15,0,0,0,0,1,0,0A.68.68,0,0,0,20.86,33Z"/><path class="cls-1" d="M25.17,33.27V33.2a.4.4,0,0,0-.07-.15l0-.06a.71.71,0,0,0-.37-.23c-.14,0-.18,0-.29.07l-.06.05A.71.71,0,0,1,24,33l-.14,0a.64.64,0,0,0-.27.21l-.12.13a1.19,1.19,0,0,1-.32.25l-.31.22a.54.54,0,0,0-.19.17.16.16,0,0,0,0,.16c0,.08.16.08.2.08h0l.79-.29a5.26,5.26,0,0,1,.71-.25c.11,0,.6,0,.75-.28a.28.28,0,0,0,0-.2Z"/><path class="cls-1" d="M27.77,23.13,27.69,23a1.74,1.74,0,0,1-.32-.46,1.74,1.74,0,0,0-.12-.23,1.83,1.83,0,0,1-.16-.45,6.44,6.44,0,0,0-.34-1c-.19-.43-.24-.47-.3-.48H26.4l0,0c-.05,0-.09.07.05.74A12.63,12.63,0,0,1,26.7,23c0,.07,0,.09,0,.09s-.4,0-.75-.07l-.25,0h-.06l0,.05a.29.29,0,0,0,0,.34,1.91,1.91,0,0,0,.3.21l.36.25.17.13a1.69,1.69,0,0,0,.58.32h0l.17,0a.83.83,0,0,0,.63-.11L28,24C28.26,23.65,28,23.42,27.77,23.13Z"/><path class="cls-1" d="M28.73,21.84l.06,0a.08.08,0,0,1,.07,0,.54.54,0,0,0,.35-.1.46.46,0,0,0,.07-.07.3.3,0,0,0,.09-.27c0-.1-.13-.18-.32-.23s-.12-.08-.23-.3-.15-.29-.28-.51-.27-.39-.34-.4a.12.12,0,0,0-.1,0s-.08.09,0,.32a2.3,2.3,0,0,0,.1.41c0,.1.06.22.1.39s.06.2.08.25l0,0a.44.44,0,0,0-.1.19c-.19-.36-.38-.7-.54-1a1.2,1.2,0,0,1-.17-.48.77.77,0,0,0-.11-.31c-.13-.19-.34-.16-.52-.14l-.18,0c-.1,0-.16,0-.2,0a.17.17,0,0,0-.06.11.26.26,0,0,1,0,.1c-.09.17.09.29.21.37l.12.09a1.5,1.5,0,0,0,.23.3s.1.16.14.24l.13.24c.09.15.17.3.32.61l.09.2c.17.37.31.65.61,1.38a5.09,5.09,0,0,1,.47,1.84c.06.64-.09.74-.44,1l0,0c-.09.07-.18.16-.16.25s.13.12.22.14a.45.45,0,0,1,.11,0,.19.19,0,0,0,.24,0,1.44,1.44,0,0,0,.16-.17l.06-.05a.16.16,0,0,0,.1,0s.06-.07.15-.29l0-.07a.91.91,0,0,0,.11-.55v-.39a1.92,1.92,0,0,1,0-.46c0-.07,0-.08,0-.34a3.19,3.19,0,0,1-.07-.41,2,2,0,0,0,0-.26,6.86,6.86,0,0,0-.63-1.45l0,0-.12-.22A.41.41,0,0,0,28.73,21.84Z"/><path class="cls-1" d="M30.45,20.88l-.14-.12a6.42,6.42,0,0,1-.87-1.13l0,0,.13,0c.17,0,.2,0,.45-.11l.2-.12.09-.06c.13-.1.13-.19.11-.25s-.49-.28-.55-.28,0,0-.14-.14a2.09,2.09,0,0,0-.18-.25c-.1-.13-.2-.17-.27-.11s0,.53,0,.61l0,.09a.37.37,0,0,0-.1.11l-.05.06-.11-.12,0,0c-.14-.16-.17-.16-.47-.15h-.1c-.27,0-.39.08-.39.2a.32.32,0,0,0,.18.22,1.3,1.3,0,0,1,.25.29l.23.3a.83.83,0,0,1,.18.27,3.42,3.42,0,0,0,.32.52,3.26,3.26,0,0,0,.31.45c.16.21.23.32.32.46a1.88,1.88,0,0,0,.17.27l0,.06h0V22a.32.32,0,0,0,.06.28.68.68,0,0,0,.51.17.54.54,0,0,1,.19,0,.33.33,0,0,0,.35-.05c.29-.23.09-.63-.09-.91A2,2,0,0,0,30.45,20.88Z"/><path class="cls-1" d="M33.82,22l-.18-.15c-.15-.13-.15-.16-.15-.25a.56.56,0,0,0,0-.2.75.75,0,0,0-.14-.31L33.23,21a2.82,2.82,0,0,0-.26-.33c-.14-.16-.33-.38-.59-.71l-.64-.86c-.26-.36-.51-.7-.73-1s-.32-.45-.5-.73a4.43,4.43,0,0,0-.94-1.21.84.84,0,0,0-1,0l-.07.05a.33.33,0,0,0-.07.37.34.34,0,0,0,.34.2c.09,0,.12,0,.25.21a1.63,1.63,0,0,1,.11.17,4,4,0,0,0,.34.48,1.26,1.26,0,0,1,.2.28,3.38,3.38,0,0,0,.23.34c.17.24.35.48.59.77s.29.37.47.61c0,0,.25.26.64.75.18.22.31.4.44.57s.3.41.51.66l.15.17a2.72,2.72,0,0,0,.68.64c.25.16.43.2.55.11a.32.32,0,0,0,.1-.2C34.06,22.2,34,22.14,33.82,22Z"/><path class="cls-1" d="M79,31.38c.11.13.31.14.59.07a.85.85,0,0,0,.55-.69,2.11,2.11,0,0,0,0-.21,1.59,1.59,0,0,1,.24-.68c.18-.33.23-.53.14-.62a.16.16,0,0,0-.21,0,1.19,1.19,0,0,0-.16.16,1.23,1.23,0,0,1-.38.34,1.66,1.66,0,0,0-.33.17.76.76,0,0,1-.15.1.79.79,0,0,0-.36.54,1.24,1.24,0,0,0-.06.2,1.2,1.2,0,0,0,0,.45A.35.35,0,0,0,79,31.38Z"/><path class="cls-1" d="M83.89,35.65a.43.43,0,0,1,0-.27.54.54,0,0,0,0-.22.25.25,0,0,0-.19-.17,1.52,1.52,0,0,1-.2-.11l-.12-.09a.75.75,0,0,0-.37-.2.36.36,0,0,0-.26,0,.21.21,0,0,1-.12,0l0,0a.45.45,0,0,0-.23-.18l-.1,0s0,0,0,0a.14.14,0,0,1,0-.06,1.93,1.93,0,0,1,.22-.38l.06-.08-.08,0-.2-.13,0,0v-.22l-.17.25a1.08,1.08,0,0,0-.15.28,1.12,1.12,0,0,1-.13.24,4.76,4.76,0,0,0-.66-.53L81,33.56a1.62,1.62,0,0,0-.44-.31,2.76,2.76,0,0,1-.52-.33,5.6,5.6,0,0,0-1-.62L78.41,32a3,3,0,0,0-.81-.37,4.19,4.19,0,0,1-.62-.24h0a1,1,0,0,1-.33-.12.21.21,0,0,0-.24,0c-.11.08-.13.28-.07.61v0a1.12,1.12,0,0,0,.59.9,1.49,1.49,0,0,0,.78.34c.12,0,.26,0,.46.09a2.62,2.62,0,0,1,.78.27,3.68,3.68,0,0,0,.42.19l.21.08a4.2,4.2,0,0,1,1.09.65,3.05,3.05,0,0,1,.49.39c.11.11.11.16.11.16s0,0,0,.05l0,0a1.58,1.58,0,0,0-.2.22,2.61,2.61,0,0,1-.22.27c-.09.1-.14.17-.21.26l-.3.35-.17.2a6.7,6.7,0,0,1-.56.63,2.7,2.7,0,0,1-.22.21.19.19,0,0,1,0-.08,2.16,2.16,0,0,0-.08-.23,1.88,1.88,0,0,0-.26-.42,2.05,2.05,0,0,1-.28-.46c-.1-.21-.17-.36-.25-.51s-.15-.29-.24-.5a4.57,4.57,0,0,1-.24-.6,1.7,1.7,0,0,0-.09-.24c0-.1-.12-.14-.2-.09a.68.68,0,0,0-.16.61c0,.09.05.16.09.26a6.34,6.34,0,0,1,.27.74,3.26,3.26,0,0,0,.19.52,1.76,1.76,0,0,1,.14.51,3.07,3.07,0,0,0,.14.53,1.55,1.55,0,0,1,.1.38c0,.16,0,.19,0,.21s0,.14.07.34a.49.49,0,0,0,.1.16c.17.18.37.05.54-.06l.2-.12c.2-.1.32-.18.47-.27l.38-.24a4,4,0,0,0,1-.93,3.3,3.3,0,0,0,.59-1l.09-.22,0,0,.1.05a.5.5,0,0,1,.17.12,2,2,0,0,0,.35.23.78.78,0,0,1,.19.12s0,0,0,.06a1,1,0,0,0,0,.17l.11.15a.88.88,0,0,0,.64.27.56.56,0,0,0,.49-.55.37.37,0,0,0-.08-.25A1.44,1.44,0,0,1,83.89,35.65Z"/><path class="cls-1" d="M90.82,30a1.4,1.4,0,0,0-.36-.27c-.38-.23-.52-.33-.59-.38a.53.53,0,0,0-.2-.09c-.2-.06-.27,0-.3.05s-.05.17.18.35a2.59,2.59,0,0,1,.26.23L90,30a.87.87,0,0,0,.11.09,4.25,4.25,0,0,0-.72.24,6.36,6.36,0,0,1-.61.23,2.54,2.54,0,0,0-.53.2c-.16.09-.33.16-.46.22a1.52,1.52,0,0,0-.28.13l0,0a.72.72,0,0,1,0-.14,1.44,1.44,0,0,1,0-.52v-.08a.77.77,0,0,0,.09.13.56.56,0,0,0,.61,0,.36.36,0,0,0,.15-.45,1,1,0,0,1-.09-.4.45.45,0,0,0,0-.18.56.56,0,0,0-.33-.33,1.74,1.74,0,0,0,.59,0,1,1,0,0,0,.75-.26.44.44,0,0,0,0-.41l0-.1c-.11-.37-.15-.52-.2-.75a.87.87,0,0,0-.15-.41.18.18,0,0,0-.23,0,.31.31,0,0,0-.11.3.43.43,0,0,1,0,.16.44.44,0,0,0,0,.1c0,.1,0,.13-.19.21l-.25.13a1.45,1.45,0,0,1-.33.16l-.32.1-.14.05s0,0,0-.07-.14-.19-.25-.16a.35.35,0,0,0-.21.28.22.22,0,0,0,0,.14h0a1,1,0,0,0-.18,0,.53.53,0,0,1-.16,0H86a1.71,1.71,0,0,1,.07-.21l0-.08a2.88,2.88,0,0,0,.19-.83c0-.12,0-.2,0-.27a2.37,2.37,0,0,0,0-.39c0-.22,0-.32-.09-.37a.12.12,0,0,0-.11,0c-.08,0-.15.09-.23.29a7.28,7.28,0,0,1-.59,1.08l-.15.23a.64.64,0,0,1-.16.23.53.53,0,0,0-.14.17.13.13,0,0,1-.07.08l-.12,0c-.1,0-.21.07-.24.17a.2.2,0,0,0,.08.19l.14.14a1.24,1.24,0,0,0,.21.18,1,1,0,0,0,.15.1.19.19,0,0,1,.08,0s0,0,0,.11,0,.12,0,.16a.76.76,0,0,1,0,.21v.09h0l-.17,0a1.15,1.15,0,0,0-.33.06.49.49,0,0,1-.27,0,.79.79,0,0,0-.22,0,.24.24,0,0,1-.2-.08.42.42,0,0,0-.49-.07.21.21,0,0,0,0,.25.64.64,0,0,0,.58.36l.2,0a1.82,1.82,0,0,0,.36,0l.4,0h.17a.54.54,0,0,1,0,.2,1.17,1.17,0,0,1,0,.43v0l0,0s0,0,0,.12-.07,0-.38-.16a1.83,1.83,0,0,0-.53-.24c-.13,0-.28-.1-.49-.2a1.87,1.87,0,0,0-.53-.18.6.6,0,0,1-.21-.08.73.73,0,0,0-.23-.12.38.38,0,0,1-.22-.15h0a1,1,0,0,0,.28-.11,1.19,1.19,0,0,0,.48-.53l.17-.28A4,4,0,0,0,84,28.14c.1-.28.08-.37,0-.42a.12.12,0,0,0-.1,0c-.12,0-.27.22-.28.25l0,.06a3.56,3.56,0,0,1-.61.76l-.24.2a1.43,1.43,0,0,0-.49.64.61.61,0,0,0,0,.22l-.08,0a.21.21,0,0,0-.2.09c0,.08-.08.23.08.49a2.34,2.34,0,0,0,.29.37,2.37,2.37,0,0,0,.71.52,2.38,2.38,0,0,1,.36.18l.36.18c.34.15.6.27.93.4a2,2,0,0,0,.27.08l.17.06-.16.22-.06.08c0,.06-.2,0-.5-.13a5.4,5.4,0,0,0-.82-.2c-.17,0-.64,0-.76.22a.23.23,0,0,0,0,.23,2.19,2.19,0,0,0,.2.25,1.66,1.66,0,0,0,.57.37l.3.13a4.68,4.68,0,0,1,.49.22.64.64,0,0,1,.16.1h-.39a3.3,3.3,0,0,1-.68-.06,2.1,2.1,0,0,0-.26,0,.67.67,0,0,1-.3-.09c-.2-.12-.44-.14-.52-.06a.12.12,0,0,0,0,.14l.13.16a.72.72,0,0,0,.45.21,2.37,2.37,0,0,1,.46.13,1.37,1.37,0,0,1,.39.23.55.55,0,0,0,.46.15,1.05,1.05,0,0,0,.84-.49.35.35,0,0,0,0-.39,1.23,1.23,0,0,0-.55-.45l-.32-.17-.28-.16a1.6,1.6,0,0,1-.38-.25l0,0,.27.08a5.94,5.94,0,0,1,.92.42l.36.19a7.21,7.21,0,0,0,1.17.42h0a2.76,2.76,0,0,0,.53.11c.13,0,.31.05.67.13l.51.11a1.33,1.33,0,0,0,.65.05A.41.41,0,0,0,89,33.7c0-.08,0-.25-.16-.46a1.63,1.63,0,0,0-.37-.28l-.06,0-.76-.42-.17-.09c-.38-.2-.45-.25-.45-.25l0,0h0a.94.94,0,0,1,.35-.08,10.31,10.31,0,0,1,1.16-.38l.46-.13c.36-.1.62-.15.83-.2a1.27,1.27,0,0,0,.87-.39l0,0C90.91,30.64,91.18,30.33,90.82,30Zm-5.3,2.84-.06,0h0l.34-.12a1.48,1.48,0,0,0,.24-.11.12.12,0,0,1,.09,0,2.56,2.56,0,0,1,.57.14,2.72,2.72,0,0,1,.35.18l.16.11.22.14.09.06H87.4a2.32,2.32,0,0,0-.31,0l-.22,0a.4.4,0,0,1-.19,0l-.11,0L86.31,33l-.13,0-.26-.07h-.06l-.23-.08Zm1.68-2.6c-.06,0-.15,0-.36.31l-.12.15h0l-.08,0c-.11,0-.21,0-.24.07s0,.15.13.26a.58.58,0,0,0,.09.48.15.15,0,0,0,.06,0l0,0s0,0,0,0l-.13.07c-.15.08-.27.15-.35.18s-.18,0-.32-.14a5,5,0,0,1,0-.57,1.52,1.52,0,0,0,0-.23,1.92,1.92,0,0,0,0-.24.69.69,0,0,1,0-.22s0,0,.1,0a1.45,1.45,0,0,0,.44.09h.12a.34.34,0,0,0,.33-.12A.38.38,0,0,0,87,30a1.49,1.49,0,0,1,0-.18.66.66,0,0,0-.09-.22.16.16,0,0,0-.11-.05h0l0,0a1,1,0,0,1-.17.18,1,1,0,0,1-.36.13l-.16,0-.16,0h0a.49.49,0,0,1-.07-.21,1.94,1.94,0,0,0-.07-.22c0-.12-.07-.17,0-.26l.06-.06c0-.07,0-.07.13-.07h.35a1,1,0,0,0,.25,0h.13c.17,0,.23,0,.26.16a1.48,1.48,0,0,0,.35.79l.08.12Z"/><path class="cls-1" d="M76.75,21.25a1,1,0,0,0-.49-.18L76.1,21,76,21l-.47-.18-.06,0-.13.2A2.8,2.8,0,0,0,75,21h-.15l-.92-.23.22-.17c.33-.28.63-.56,1-.85l.54-.49.2-.16a1.61,1.61,0,0,0,.44-.42,1.5,1.5,0,0,0-.07-1.21,1.23,1.23,0,0,0-.27-.29l0-.05-.06,0a3.38,3.38,0,0,0-.71.87,4.18,4.18,0,0,1-.25.38A9.44,9.44,0,0,1,73.17,20l-.13.1a.85.85,0,0,1-.35.24.75.75,0,0,1-.41-.05l-.11,0c-.52-.13-1.07-.27-1.61-.45l-.83-.26a.1.1,0,0,0,0,0c-.13-.13-.34-.34-.52-.25a.38.38,0,0,0-.19.22,1,1,0,0,0,0,.68.89.89,0,0,0,.3.31,1.78,1.78,0,0,0,.69.15h.14l.6,0a5.15,5.15,0,0,1,1.33.17l-.39.2a7.09,7.09,0,0,1-3.16.83,3.32,3.32,0,0,1-.69-.11l-.28-.09-.1,0-.18-.1a1.26,1.26,0,0,0-.53-.31.11.11,0,0,0-.08,0c-.06,0-.11.07-.16.18s-.09.35.21.6a4.84,4.84,0,0,0,1.55.75,6.47,6.47,0,0,0,3.06-.23,8.57,8.57,0,0,0,.94-.5l.07,0c-.11.55-.18,1.1-.25,1.64,0,.2-.06.4-.08.59s-.07.41-.1.62l-.06.33a.89.89,0,0,0,.07.34.68.68,0,0,0,.17.21,1.74,1.74,0,0,0,.54.28l.2.08a1,1,0,0,1,.23.17.9.9,0,0,0,.42.24.31.31,0,0,0,.23-.12l0-.06,0-.08v-.06a1,1,0,0,0-.14-.38l0-.08-.42-.94a1.71,1.71,0,0,1,0-.6c0-.11,0-.23,0-.34s0-.28,0-.48a6,6,0,0,1,0-1.91.86.86,0,0,1,.31-.27l.82.19a4.55,4.55,0,0,0,.53,0,2.56,2.56,0,0,1,.79.11,2.6,2.6,0,0,1,.29.17c.25.17.5.33.7.27a.61.61,0,0,0,.28-.27A.36.36,0,0,0,76.75,21.25Z"/><path class="cls-1" d="M39,13.56a.11.11,0,0,0-.12,0l0,0,0,0c-.05.1,0,.34.43,1.23.14.32.3.68.43,1v0l0,0a.79.79,0,0,0,.19.08H40a.91.91,0,0,0,.43-.61c.12-.4,0-.58-.27-1l-.07-.1a1.64,1.64,0,0,0-.84-.6A1.29,1.29,0,0,1,39,13.56Z"/><path class="cls-1" d="M46.8,18.75a.31.31,0,0,0,.2-.19.35.35,0,0,0-.06-.24h0a5.71,5.71,0,0,1-.24-.54.93.93,0,0,0,0-.13,1.32,1.32,0,0,1,0-.34,1.06,1.06,0,0,0,0-.31c0-.13-.16-.69-.23-1l0-.16c0-.06,0-.14,0-.22s0-.2,0-.3a.76.76,0,0,1,0-.15.34.34,0,0,1,0-.1s0-.06,0-.09,0-.15,0-.2a.11.11,0,0,0-.09,0h0l-.05,0,0,0v0l0-.08-.08,0c-.06,0-.6.09-.76.34-.05.05-.14.12-.19.1s0-.06-.06-.09v0l0,0a1,1,0,0,0-.7-.07,1,1,0,0,0-.55.52s-.27.6-.65.73a.41.41,0,0,1-.29,0c0-.07.1-.21.39-.41l.9-1.2a10.58,10.58,0,0,1,.91-1h0l-.32.48-.13.17.22,0a2.28,2.28,0,0,0,1-.82c.17-.22.68-1,.5-1.23a.26.26,0,0,0-.3-.09,2.85,2.85,0,0,0-1.28.81,10.8,10.8,0,0,0-1,1v0a7.81,7.81,0,0,1-.9,1.42,11,11,0,0,1-.8.88,6.75,6.75,0,0,0-.84,1l-1.69,1.51a3.73,3.73,0,0,1-.66.43l-.07,0,.05.29a.21.21,0,0,0,.09.17.4.4,0,0,0,.36,0l.19-.05a.13.13,0,0,0,.14,0h0a4.77,4.77,0,0,0,1.59-1.44s.79-1.18,1.1-1.54l.46.28a.62.62,0,0,0,.84-.19,3.55,3.55,0,0,1,.52-.84s0,.1-.2.53a1.08,1.08,0,0,0-.07.67,1.43,1.43,0,0,0,0,.89c0,.11.16.64.54.72a.55.55,0,0,1-.09.49l0,0a.65.65,0,0,0,0,.55.57.57,0,0,0,.35.19.46.46,0,0,1-.07.07,5,5,0,0,1-.4.35c-.19.15-.3.26-.23.36s.19.06.26,0l0,0,.16-.09.35-.21,1.21-.51a2.16,2.16,0,0,0,.57-.36l.1-.08c.2-.17.31-.26.25-.42l0-.05a.24.24,0,0,0-.09-.16s0,0,0,0A.12.12,0,0,1,46.8,18.75Zm-2.16-2.26.15-.11a2.36,2.36,0,0,0,.39-.37,2.08,2.08,0,0,1,.21-.22l0,0v0a1,1,0,0,1,0,.25c0,.06,0,.13,0,.24a3.55,3.55,0,0,0,.13.75l.12.54a6.1,6.1,0,0,0,.23.82l.09.39a.06.06,0,0,1,0,0,.19.19,0,0,1-.13,0,.51.51,0,0,0-.43-.13c-.11,0-.13,0-.14,0a.61.61,0,0,1,.15-.27v0a.63.63,0,0,0,0-.58.38.38,0,0,0-.31-.12c-.45,0-.62-.05-.67-.11a.19.19,0,0,1,0-.14v0A1.28,1.28,0,0,1,44.64,16.49Z"/><path class="cls-1" d="M38.77,11.38a4.3,4.3,0,0,0,1.16-.83,1.59,1.59,0,0,0,.13-.13c0,.06,0,.08,0,.11l0,0,.06,0a3.83,3.83,0,0,0,.38-.48,1.46,1.46,0,0,1,.28-.27l0,0a1,1,0,0,0,.37-.39.58.58,0,0,0,.25-.43.21.21,0,0,0-.08-.17.31.31,0,0,0-.23,0,.38.38,0,0,1-.15,0c-.16,0-.31.09-.42.38a.22.22,0,0,1,0,.08s0,0,0,.07a1.58,1.58,0,0,0-.26.25h0l-.08,0,0,0-.08.09-.1.06a1.14,1.14,0,0,0-.28.23,4.55,4.55,0,0,1-.37.35l-.1.08,0,0a2.06,2.06,0,0,1-.77.41c-.26.1-.36.14-.39.21a.36.36,0,0,0,0,.16.23.23,0,0,0,.1.15.85.85,0,0,0,.57.05Z"/><path class="cls-1" d="M39.9,12.21a.75.75,0,0,0,.36-.38l1.07-1.29.2-.46v0a.19.19,0,0,0-.09-.15.27.27,0,0,0-.25,0,1.09,1.09,0,0,0-.36.2l-.47.64a3.62,3.62,0,0,1-.4.71c-.18.22-.34.55-.29.69v0h0A.28.28,0,0,0,39.9,12.21Z"/><path class="cls-1" d="M41.09,11.55l-.18.37-.74.91q-.35.28-.33.51a.28.28,0,0,0,.12.19l.21,0,.55-.19.14,0,0,0,.09.42.26.05.19-.15.21-.28.08-.06H42c.46-.11.73-.25.8-.44a.22.22,0,0,0,0-.18c-.07-.27-.52-.16-.57-.14l-.07,0a1.11,1.11,0,0,1-.3.07v0l0,0a.18.18,0,0,1-.09-.13c0-.27.3-.76.45-.95a1,1,0,0,0,0-.87.24.24,0,0,0-.28-.11c-.24.08-.46.53-.51.63Z"/><path class="cls-1" d="M42.54,13.49l0,.09,0,0h0l-.05-.07c-1.19.94-1.8,1.51-1.82,1.69v0l.06.06h.05a.31.31,0,0,0,.13,0,5.84,5.84,0,0,0,1.2-.7l.44-.32a.61.61,0,0,0,.33-.42v0a.38.38,0,0,0,0-.14A.41.41,0,0,0,42.54,13.49Z"/><path class="cls-1" d="M42.91,18.66l-.2-.77-.31.36a1.24,1.24,0,0,0-.23.76.67.67,0,0,0,0,.2,1,1,0,0,1,0,.42.51.51,0,0,0,.07.3.54.54,0,0,1,.07.29,1.22,1.22,0,0,0,.4.8.53.53,0,0,0,.46,0h0c.06,0,.32-.14.16-.74C43.3,20.16,43,18.82,42.91,18.66Z"/><path class="cls-1" d="M42.85,9.3s.19.12.76-.07l.26-.1,0,0,0,.17,0,.16-.12.21,0,.26,0,.17.07.31.17.17.17.25h0a.58.58,0,0,1,.16.1h0v0a.25.25,0,0,0,0,.13.12.12,0,0,1,0,.09l0,0s0,0-.11.07l-.15,0-.15,0-.3.11-.18.07-.17.08a.27.27,0,0,0-.19.15.19.19,0,0,0,0,.18l0,0a.65.65,0,0,0,.32.08,1,1,0,0,0,.24-.08H44l0,.14a1.57,1.57,0,0,1-.28.22.68.68,0,0,0-.25.21l-.09.09a.23.23,0,0,0,0,.33l0,0,.27.08,0,0c.07-.06.31-.24.34-.39s.12-.18.19-.24l0,0,.14-.09,0,0,.2-.07a.72.72,0,0,0,.21-.09l.1-.05a.44.44,0,0,0,.23-.19l0,0a.35.35,0,0,0,.06-.09l.1-.13a.18.18,0,0,0,.06-.18.18.18,0,0,0-.08-.12l-.15-.15v-.09l.16-.24v0a.56.56,0,0,0-.21-.46.71.71,0,0,0-.52-.08c-.53,0-.6-.61-.6-.62,0-.47.75-1,.75-1l0,0a.46.46,0,0,0,.05-.46C44.76,8,44.43,8,44.39,8h0a4,4,0,0,0-1.61,1.1l0,0v.05A.21.21,0,0,0,42.85,9.3Z"/><path class="cls-1" d="M55.27,15a.68.68,0,0,0-.21.11c-.08.07-.23.19-.36.14s-.13-.29-.12-.38a1.44,1.44,0,0,1,.11-.35.45.45,0,0,0,0-.19.41.41,0,0,1,.1-.39,2.48,2.48,0,0,1,.59-.43,3,3,0,0,1,.53-.22c.1,0,.14,0,.13.05a.75.75,0,0,0,.12.44.17.17,0,0,0,.18,0,.41.41,0,0,0,.27-.25L57.28,12s.1-.21-.1-.28a1.44,1.44,0,0,0-.58.09c-.18.05-.54.19-.71.26a.82.82,0,0,0-.32.23.55.55,0,0,1-.43.24,2.55,2.55,0,0,1-.73-.34c-.14-.08-.35-.29-.33-.43s.07-.23.25-.22a1.6,1.6,0,0,0,.55-.06,3.23,3.23,0,0,1,.49-.18c.16,0,.42-.05.57-.06a6.37,6.37,0,0,0,.7-.17c.2-.07.54-.12.7-.18a3.11,3.11,0,0,0,.69-.37,1.36,1.36,0,0,0,.27-.39.32.32,0,0,1,.36-.17.68.68,0,0,1,.36.44c0,.14,0,.24,0,.34a.51.51,0,0,1,.08.46c0,.14-.07.15-.29.28a2.58,2.58,0,0,0-.39.33c-.06.07-.11.19-.19.29a3.79,3.79,0,0,0-.43.61c0,.09,0,.25.07.32s.28-.05.45-.12a12.9,12.9,0,0,0,1.21-.65,2,2,0,0,0,.62-.52c0-.09.08-.15,0-.39a2.77,2.77,0,0,1-.19-.55,1.65,1.65,0,0,1,0-.55s-.21-.22,0-.48.27-.13.39,0a1.14,1.14,0,0,1,.36.41,1.47,1.47,0,0,1,.16.46,2.55,2.55,0,0,1,.11.51c0,.12,0,.11-.15.46a4.23,4.23,0,0,1-.33.56,2.31,2.31,0,0,0-.21.19.46.46,0,0,0,0,.36,2,2,0,0,1,.15.66,1.31,1.31,0,0,1-.18.46c0,.07-.17.27-.07.35s.36.2.69-.15a1.3,1.3,0,0,0,.19-.38l1.18-3,.51-1.35a.51.51,0,0,0,0-.16s-.07-.36,0-.45.14-.1.32.05a2.24,2.24,0,0,1,.62.92,1,1,0,0,1-.15.59c-.13.26-.84,1.73-.92,1.92s-.51,1.27-.53,1.35.06.24.18.22.26-.16.35-.2.28-.06.38-.2.19-.39.25-.46.1,0,.15,0a3.47,3.47,0,0,1,.17.45,1.15,1.15,0,0,1,0,.5.42.42,0,0,1-.32.3l-.77.23a2.62,2.62,0,0,1-.41.09c-.08,0-.31,0-.4.19S61,16.54,61,16.54s-.33.86-.46,1.16L60,19.1a2.38,2.38,0,0,1-.17.31,2.51,2.51,0,0,1-.3.34c-.07,0-.24.14-.29.13s-.14-.06-.12-.21a4.61,4.61,0,0,1,.2-.91L60,16.83l.64-1.68s0-.21-.14-.18a6.21,6.21,0,0,0-.94.45c-.12.08-.41.24-.57.18a.51.51,0,0,1-.26-.4.27.27,0,0,0,0-.16.33.33,0,0,1,.06-.26c.08-.13.58-.72.7-.94a1.13,1.13,0,0,0,.13-.47c0-.07.09-.29.1-.34s0-.29-.12-.3a1.34,1.34,0,0,0-.55.22c-.16.11-1,.74-1.08.8a5.52,5.52,0,0,1-.49.34c-.08,0-.39.18-.45.35s-.17.79-.21.93-.1.37-.31.43a.46.46,0,0,1-.48-.11c-.1-.12-.21-.3-.11-.42a.38.38,0,0,0,.11-.33.2.2,0,0,0-.26-.17,1.43,1.43,0,0,0-.31.16A1.42,1.42,0,0,1,55.27,15Z"/><path class="cls-1" d="M56.77,9.31a.26.26,0,0,1-.13,0c-.06,0-.18-.09-.19-.12s0,0,.07-.07.42-.16.54-.22l.49-.18.79-.28a3.33,3.33,0,0,1,.52-.19c.12,0,.38-.06.46-.06a2.07,2.07,0,0,0,.46-.09c.1-.06.13-.15.17-.17a1.72,1.72,0,0,1,.3-.2.24.24,0,0,1,.23.06,1.09,1.09,0,0,1,.19.45,1.25,1.25,0,0,1-.07.47,1.43,1.43,0,0,1-.15.34,2.08,2.08,0,0,1-.33.22.79.79,0,0,1-.38,0l-.36-.13-.75,0-.65,0c-.07,0-.27.05-.34.06s-.28,0-.36,0a.94.94,0,0,0-.2,0A1,1,0,0,1,56.77,9.31Z"/><path class="cls-1" d="M39.11,40.63a.29.29,0,0,1-.12,0,.09.09,0,0,1,0-.08c0-.05.08-.08.25-.1l.19,0h.07a.58.58,0,0,0,.6-.63V37.39c0-.29,0-.46-.08-.52a.67.67,0,0,0-.39-.09h-.23c-.23,0-.35,0-.35-.11a.06.06,0,0,1,0-.06.15.15,0,0,1,.08,0,6.22,6.22,0,0,0,.91-.06,4.26,4.26,0,0,0,.8-.2,3.32,3.32,0,0,0,.64-.29,2.33,2.33,0,0,1,.34-.18,0,0,0,0,1,0,0,.13.13,0,0,1,0,.08v0a.76.76,0,0,0,0,.15v3.64a.91.91,0,0,0,.07.47c0,.07.18.12.42.17l.27,0c.2,0,.3.05.3.11a.08.08,0,0,1,0,.06l-.1,0Z"/><path class="cls-1" d="M48.07,38.38a.91.91,0,0,1-.39.34,1.35,1.35,0,0,1-.59.11A1.72,1.72,0,0,1,46,38.45a1.25,1.25,0,0,1-.45-1,1.4,1.4,0,0,1,.56-1.15,2.36,2.36,0,0,1,1.47-.44,2.29,2.29,0,0,1,1.7.65,2.38,2.38,0,0,1,.63,1.72A2.42,2.42,0,0,1,49.18,40a2.37,2.37,0,0,1-1.77.69,2.45,2.45,0,0,1-1.28-.3.87.87,0,0,1-.5-.74.48.48,0,0,1,.2-.42.87.87,0,0,1,.54-.16.9.9,0,0,1,.53.16.51.51,0,0,1,.21.41A.72.72,0,0,1,47,40a1.27,1.27,0,0,0-.11.22.28.28,0,0,0,.11.22.5.5,0,0,0,.29.08.59.59,0,0,0,.6-.4A5.94,5.94,0,0,0,48.07,38.38Zm-.41-2.31a.34.34,0,0,0-.32.25,2.78,2.78,0,0,0-.09.84,3.91,3.91,0,0,0,.09,1,.33.33,0,0,0,.32.27.33.33,0,0,0,.32-.26,5,5,0,0,0,0-1.89A.32.32,0,0,0,47.66,36.07Z"/><path class="cls-1" d="M54.54,38.05a3.63,3.63,0,0,1,1.62.26.94.94,0,0,1,.46.89A1.28,1.28,0,0,1,56,40.32a3.27,3.27,0,0,1-1.76.41,2.31,2.31,0,0,1-1.35-.38,1.15,1.15,0,0,1-.54-1,1,1,0,0,1,1-1,.78.78,0,0,1,.59.24.87.87,0,0,1,.22.62.62.62,0,0,1,0,.19.86.86,0,0,1-.07.21.48.48,0,0,0-.13-.17.2.2,0,0,0-.15-.06.3.3,0,0,0-.25.12.45.45,0,0,0-.11.31.63.63,0,0,0,.18.46.6.6,0,0,0,.44.18.69.69,0,0,0,.61-.29,1.68,1.68,0,0,0,.2-.91,1.53,1.53,0,0,0-.16-.74.69.69,0,0,0-.46-.36l-.13,0h-.17c-.06,0-.09,0-.1,0s0,0,0-.07.05-.06.14-.08a1,1,0,0,0,.22-.07.73.73,0,0,0,.39-.34,1.27,1.27,0,0,0,0-1.23.59.59,0,0,0-.81-.15.31.31,0,0,0-.14.23.17.17,0,0,0,0,.12s0,0,.06,0a.49.49,0,0,1,.3.16.53.53,0,0,1,.15.36.5.5,0,0,1-.19.42.91.91,0,0,1-1.06,0,.53.53,0,0,1-.2-.45,1,1,0,0,1,.51-.86,2.35,2.35,0,0,1,1.33-.34,2.66,2.66,0,0,1,1.38.32,1,1,0,0,1,.53.86.77.77,0,0,1-.41.72A3.52,3.52,0,0,1,54.54,38.05Z"/><path class="cls-1" d="M60,38.44a1.55,1.55,0,0,1-.53-.47,1.06,1.06,0,0,1-.17-.61,1.24,1.24,0,0,1,.58-1.07,2.51,2.51,0,0,1,1.52-.41,2.45,2.45,0,0,1,1.26.29.84.84,0,0,1,.49.74.64.64,0,0,1-.22.48,1,1,0,0,1-.57.28,2.32,2.32,0,0,1,.85.6,1.3,1.3,0,0,1,.24.81,1.4,1.4,0,0,1-.63,1.2,2.86,2.86,0,0,1-1.7.45,3,3,0,0,1-1.53-.35,1,1,0,0,1-.57-.92.86.86,0,0,1,.26-.64A1.38,1.38,0,0,1,60,38.44Zm.15.09a2.07,2.07,0,0,0-.11.36,1.32,1.32,0,0,0,0,.34,1.41,1.41,0,0,0,.32.94,1.07,1.07,0,0,0,.82.37.84.84,0,0,0,.56-.18.59.59,0,0,0,.21-.47.52.52,0,0,0-.12-.34,1.88,1.88,0,0,0-.46-.33Zm2-1a2.5,2.5,0,0,0,.07-.26,2.28,2.28,0,0,0,0-.26,1,1,0,0,0-.24-.72.74.74,0,0,0-.6-.27.68.68,0,0,0-.44.14.47.47,0,0,0-.17.38.5.5,0,0,0,.15.34,2.35,2.35,0,0,0,.52.33Z"/><path class="cls-2" d="M48.94,53.71c-.37-.36-.37-.18-.56.39s-1.12,2.63-2.24,2.81c-1.12,0-.38-.93-.19-1.31.37-.37.37-.75,0-.56-.19.18-.37,1.69-1.12,1.5-.56-.18-.56-.37-.38-.93a6.79,6.79,0,0,0,.93-2.07c-.18-.57-.56,0-.93.57-.37.37-1.5,2.44-1.87,2.43-.56.19-1.12-.18-.93-.55.37-.38,2.05-2.45,2.05-2.45s0-.75-.56-.56S42,54.67,41.45,54.67s-.74-.37-.19-.56c.38-.37,1.13-1.13,1.12-1.5-.18-.19-.37-.75-.75-.38-.55.19-1.3.94-1.49.94-.19-.19-.37-.56,0-.75s1.69-.94,1.69-.94.18-.56-.76-.37c-.74.19-3,.19-3.56-1.5A2.35,2.35,0,0,1,37.69,47a4.06,4.06,0,0,0,.76,1.88,3.42,3.42,0,0,0,3.37.19,12.92,12.92,0,0,0,3.74-2.64s.94-.19,2.62,1.11c1.69,0,1.5.38,1.5.76,0,.56-.38.74-.75,1.31a1.19,1.19,0,0,0,.38,1.5c.38.19.19,1.13.38,1.69s.94,1.31,1.31,1.12c.19-.18,0-.75,0-1.12.19,0,.38-1,.18-1.69a7.06,7.06,0,0,1,0-2.07s-.19-.37-.37-.75A1.09,1.09,0,0,1,51.36,47c.57-.19.75-.37.94-.38.19-.18.75-.75.94-.19a7.9,7.9,0,0,1,0,3,10.89,10.89,0,0,1-.56,1.32l.2,3s1.3-.38,1.68-1.12c.56-.76,0-.94.37-1.7s-.38-.56,0-1.13,0-.93,0-1.5c-.18-.55.75-1.5,1.68-2.06a4.82,4.82,0,0,1,4.12.55,7.9,7.9,0,0,0,3.94,1.49c.93-.18,1.87-1.87,1.87-2.25s.94,1.13,0,2.63-3.37,1.31-4.3.94c-.76-.37-.94.58.18.75s1.7.38,1.51.75c0,.19-.94.57-1.31.38-.57-.18-1.31-.74-1.69-.56-.37,0-.56.19.56.75,1.13.37,1.69.93,1.13,1.12a1.47,1.47,0,0,1-1.5-.18A5.73,5.73,0,0,0,60,52c-.38,0,0,.37.37.56s1.88.94,1.69,1.31c-.37.38-.57.94-.93.75a2.62,2.62,0,0,1-1.32-1.12c0-.38-.56-.75-.93-.75-.19,0-.19.57,0,.94.18.18,1.31,1.12.93,1.31a1.42,1.42,0,0,1-.93,0,2.06,2.06,0,0,0-.94-.93c-.56-.19-.93.19-.75.56.37.38,1.31.56,1.31.94s.19.75-.37.75S55.49,55.39,55.5,55c0-.56.18-1.13-.19-1.31a6.8,6.8,0,0,0-2.43,1.69c-.38.38-.19.75-.18,1.31,0,0,0,2.07-.18,4.51-.19,0-.94.19-1.31.19C51,58.4,51,56,51,56s-1.69-1.88-2.07-2.26Zm3.57,8.07c0,.75,0,1.69,0,2.44-.18,0-.94-.19-1.12-.19L51.21,62a10.29,10.29,0,0,0,1.3-.19Zm-.36,9.57s-.55.37-.55,0-.19-3.37-.2-6.75H52c.37.19.36.76.37,1.7C52.34,68,52.16,70.41,52.15,71.35Z"/><path class="cls-2" d="M51.37,46.77c.18-.18,1.49-.94,1.67-1.32.19-.18.56-.75.19-.93a1.16,1.16,0,0,0-1.5-.19c-.37.19-1.49,1.13-1.12,1.69C50.8,46.58,51.18,46.77,51.37,46.77Z"/><path class="cls-2" d="M50.82,57.09a4.09,4.09,0,0,1,3-.38,4,4,0,0,1,2.07,2.44c0,.56-.18,2.25-1.49,2.63a11.91,11.91,0,0,0-1.69.37s-1.12.2-1.87.38v-.38c.75-.18,1.68-.37,2.81-.56a2.2,2.2,0,0,0,1.68-2.25A4.16,4.16,0,0,0,54.76,58a3.92,3.92,0,0,0-1.88-1.12,6,6,0,0,0-2.06.56v-.37Zm0,6.76c.75,0,1.69,0,2.06.37a1.19,1.19,0,0,1-.18,1.69c-.37.38-2.24.94-1.12,1.69.94.75,1.31.37,1.31.37s-.18.75-1.68-.18h-.37v-.37c.18.2.56.19.37,0-.37-.18-.38-.75.74-1.31.93-.57,1.12-1.32.75-1.7A4.86,4.86,0,0,0,50.83,64v-.18Zm0,2.25v.37c.19,0,.19,0,.18-.18.95-.75,1.13-.94,1.13-1.13C52,65,52,64.78,51.4,64.6h-.56V65c.37-.19.75-.19.93.19.2.19-.56.94-.93.94Zm0-4.88v.37c.38-.18.75-.18,1.13-.37a3.59,3.59,0,0,0,1.86-.57c.19-.37.57-1.31,0-1.87A1.26,1.26,0,0,0,52.51,58a2,2,0,0,0-1.69.37V59a3.08,3.08,0,0,1,2.05-.38c.38.18.95.38.76,1.5-.38.94-1.87.94-2.44.94A.56.56,0,0,0,50.83,61.22Zm-3,0c-.37,0-1.31.19-1.49-.18-.38-.38-.19-1.13.18-1.7A2.25,2.25,0,0,1,48,58.59c.75-.18.38,0,.94-.18.38-.19.75-.94,1.69-1.32h.18v.37h0a6.84,6.84,0,0,0-1.68,1.13c-.37.38-1.5.2-2.06.76a1.51,1.51,0,0,0-.56,1.13s0-.38.19.19a1.57,1.57,0,0,0,1.49-.38c.38-.19.94-.75,1.69-1.13a4.21,4.21,0,0,1,.93-.76V59a.2.2,0,0,1-.19.19c-.75.38-2.43,1.88-2.81,2.07Zm3,1.3a.62.62,0,0,1-.37.19c-.38.38-.75.75-.19.94a.72.72,0,0,0,.56.19V64c-.37,0-.75,0-.93,0-.38-.18-.38-.74,0-1.3a4.31,4.31,0,0,1,.93-.58v.38Zm0,5.25c-1.13-.92,0-1.49,0-1.49v.18c-.56.76,0,.94,0,.94h0v.37Zm0-2.81v-.38h-.38c-1.31-.19-2.05,0-2.06-1.12,0-.94,1.49-1.51,1.86-1.69.19,0,.38-.2.57-.2v-.37a2.75,2.75,0,0,0-1.68.76,1.9,1.9,0,0,0-.93,2.24c.18,1,1.87.75,2.25.75Z"/><path class="cls-2" d="M29.05,62.39c-.19.75-1.7-1.31-2.25-2.06-.75-.56-4.69-4.12-4.7-7.69.19,0,.76,1,1.69,1.88A29.24,29.24,0,0,1,27,59.21c.38.56.56-.76.56-.76s.18-4.5.74-5.06c.75-.57.77,5.81.58,6.75C28.49,61.08,29.24,61.83,29.05,62.39Z"/><path class="cls-2" d="M27,57c-.19.18-.56.37-.57.18a30.37,30.37,0,0,1-3-6.75c-.38-2.43-.2-4.12.73-4.69a22.94,22.94,0,0,0,1.33,5.06c.19.94.38,2.06.57,2.07s.92-2.45,1.67-3.2c.56-.75.75-1.12,1.12-1.13a7.71,7.71,0,0,1-.37,2.63,12.49,12.49,0,0,1-1.3,3.95A8.33,8.33,0,0,0,27,57Z"/><path class="cls-2" d="M26,49.82c-.19,0-1.32-.74-.76-3.93.75-3.38,1.31-2.82,1.31-2.82s.56-.19.38,2.25C26.77,48,26.21,49.82,26,49.82Z"/><path class="cls-2" d="M56,80.16c.19,0,.56-.19.75-.19a10.34,10.34,0,0,0-7.87-4.29c-2.43-.19-5.43.94-6.74,1.13a42.37,42.37,0,0,1-4.67.39c-1.13-.19,1.31,1.13,3.93,1.67S46.49,77,48,76.8c1.31,0,2.25-.38,3.74.18C53.23,77.35,56,79.6,56,80.16Z"/><path class="cls-2" d="M45.17,74.74a9.23,9.23,0,0,1-3.74,1.51c-1.31,0-4.49,0-6.74-1.68-2.06-1.87-1.51-2-1.51-2a6,6,0,0,0,3,1.12c1.5-.2,3.19.55,4.5.74,1.12,0,2.06-.2,1.5-.38-.57,0-2.63-1.69-3-2.25-.19-.56-2.26-3.56-2.25-3.93,0-.57,1.12.75,2,1.12a35.22,35.22,0,0,1,4.51,4.68C44.24,74.56,44.42,74.94,45.17,74.74Z"/><path class="cls-2" d="M38.62,72.88a.67.67,0,0,1-.94-.19c-.38-.37-1.87.57-3.37-.37s-4.5-1.3-6.57-6.55c1.5,1.13,3.2,2.62,4.88,3.18A18.14,18.14,0,0,1,36,71c.38.18-1.51-2.25-1.88-3.57-.37-1.49-1.32-3.18-1.32-3.93.19-.75,3.57,4.12,4.32,5.43.57,1.13.38,1.5.75,2.07C38.06,71.38,38.62,72.88,38.62,72.88Z"/><path class="cls-2" d="M33,68.2c.18,0-4.88-2.8-6.38-4.68C25.3,61.83,24.17,60,24.17,59.4s1.5,1.3,1.88,1.49c.37.37,4.5,4.13,4.88,4.31s.18-.18,0-.75c-.2-.37-1.89-4.31-1.33-6.56,1.12-.57,2.64,6.56,2.83,7.5a7.62,7.62,0,0,0,.74,2.43C33.37,68.2,33,68.2,33,68.2Z"/><path class="cls-2" d="M46.87,80.18c-.37,0-.56-.19-.94-.19a10.46,10.46,0,0,1,7.86-4.33c2.43-.19,5.43.93,6.74,1.12s3.74.36,4.68.37c1.13-.2-1.31,1.12-3.92,1.69-2.44.57-5.07-1.87-6.57-2-1.3,0-2.24-.38-3.74.19C49.49,77.36,46.87,79.62,46.87,80.18Z"/><path class="cls-2" d="M57.72,74.72c-.75-.19,2.25,1.49,3.56,1.49s4.49,0,6.74-1.7c2-1.88,1.49-2.07,1.49-2.07a5.92,5.92,0,0,1-3,1.14c-1.49-.19-3.17.57-4.3.75-1.31,0-2.24-.18-1.68-.37.56,0,2.61-1.69,3-2.26a30,30,0,0,0,2.24-3.94c0-.56-1.12.76-2.07,1.13a26,26,0,0,0-4.29,4.7C58.47,74.53,58.28,74.91,57.72,74.72Z"/><path class="cls-2" d="M64.08,72.83a.67.67,0,0,0,.94-.19c.37-.38,2.06.56,3.37-.38,1.5-.94,4.49-1.33,6.54-6.58-1.51,1.13-3.18,2.63-4.87,3.2-1.49.56-2.8,1.88-3.36,2.07-.37.19,1.49-2.26,1.86-3.57.38-1.5,1.49-3.2,1.31-3.94s-3.55,4.13-4.12,5.45A4.64,4.64,0,0,0,65,71C64.83,71.33,64.08,72.83,64.08,72.83Z"/><path class="cls-2" d="M69.69,68.13s5-2.83,6.36-4.71a9.88,9.88,0,0,0,2.42-4.13c0-.56-1.49,1.32-1.87,1.5-.37.38-4.48,4.14-4.86,4.33-.18.19-.18-.18,0-.75.19-.38,2.05-4.32,1.3-6.57-.94-.56-2.61,6.57-2.61,7.51a6.5,6.5,0,0,1-.93,2.44C69.32,68.13,69.69,68.13,69.69,68.13Z"/><path class="cls-2" d="M73.61,62.3c.19.75,1.68-1.31,2.43-2.06.56-.57,4.48-4.14,4.47-7.7-.18,0-.74.93-1.68,1.87a29.32,29.32,0,0,0-3.17,4.7c-.37.57-.37-.75-.37-.75s-.2-4.51-1-5.07c-.56-.56-.55,5.82-.36,6.76S73.61,61.74,73.61,62.3Z"/><path class="cls-2" d="M75.66,56.86c.19.18.56.37.75.18,0-.18,2.23-4.31,2.79-6.76.37-2.44.18-4.13-.75-4.68a39.92,39.92,0,0,1-1.12,5.06c-.37.94-.56,2.06-.74,2.06s-1-2.43-1.69-3.18c-.57-.76-.76-1.12-.94-1.12-.38,0,0,2.06.19,2.62.19.75.94,3,1.32,3.94A8.53,8.53,0,0,1,75.66,56.86Z"/><path class="cls-2" d="M76.58,49.72c.19,0,1.49-.75.75-3.94C76.76,42.4,76,43,76,43s-.56-.18-.37,2.26C75.83,47.85,76.4,49.72,76.58,49.72Z"/></g></g></svg>