<?xml version="1.0" encoding="UTF-8"?><svg id="b" xmlns="http://www.w3.org/2000/svg" viewBox="0 0 133.9855 133.9855"><g id="c"><path d="M66.177,0h1.73c11.4806.2049,22.1809,3.1011,32.101,8.6882.6565.3705,1.3079.7551,1.9536,1.1537,9.707,6.0006,17.422,13.9376,23.1452,23.811.3812.6573.7472,1.3184,1.0981,1.9831,5.0185,9.5185,7.6119,19.6988,7.7806,30.5411v1.7583c-.1506,9.2585-2.0722,18.0178-5.7646,26.2786-2.4837,5.5562-5.6035,10.6143-9.3597,15.1741-8.5873,10.4256-19.3507,17.6545-32.2903,21.6873-.7322.2276-1.4587.4371-2.1793.6285-5.3617,1.4235-10.8232,2.1841-16.3845,2.2816h-1.957c-3.6063-.0667-6.9889-.3691-10.1472-.9077-12.4084-2.1146-23.3856-7.3239-32.9312-15.628-5.194-4.5181-9.5517-9.6519-13.0731-15.4009C3.4931,91.5897.1936,80.1572,0,67.7517v-1.2195c.0317-2.5897.1641-4.8943.3971-6.9137,1.4332-12.4282,5.9074-23.5536,13.4223-33.3762,4.6387-6.0628,10.2008-11.2096,16.6865-15.4406.6321-.4122,1.2739-.8136,1.9253-1.2039C42.7666,3.4027,54.015.2035,66.177,0h0ZM132.5934,66.9926C132.5934,30.7686,103.2168,1.3921,66.9926,1.3921S1.3921,30.7686,1.3921,66.9926s29.3765,65.6008,65.6005,65.6008,65.6008-29.3766,65.6008-65.6008Z" fill="#bc1c22" fill-rule="evenodd" stroke-width="0"/><path d="M129.4055,66.9926c0,34.4639-27.949,62.4126-62.4129,62.4126S4.5802,101.4565,4.5802,66.9926,32.529,4.5799,66.9926,4.5799s62.4129,27.9491,62.4129,62.4127h0ZM126.5907,66.9926c0-32.9094-26.6885-59.5979-59.5981-59.5979S7.3947,34.0832,7.3947,66.9926s26.6885,59.5981,59.5979,59.5981,59.5981-26.6885,59.5981-59.5981Z" fill="#bd1b21" fill-rule="evenodd" stroke-width="0"/><path d="M83.7459,13.0002c.0363-.055.0669-.0521.0921.0091.1316.3215.1644.6559.0987,1.0029-.0097.0434-.006.0828.0096.1057l.2716.398c.0728.1046.0927.2257.051.3135-.1542.3107-.3611.4286-.6205.3538-.1709-.0499-.292-.1681-.3631-.3541-.0686-.1777-.0885-.3591-.059-.5445.0221-.1369.089-.3574.201-.6613.0779-.2126.184-.4204.3186-.6231Z" fill="#b61d23" fill-rule="evenodd" stroke-width="0"/><path d="M48.1235,16.253c-.0703-.0037-.1222.0076-.1554.034-.2534.205-.6227.5392-1.1083,1.0029-.2784.267-.4263.4133-.4436.4391-.1143.1732-.1571.3898-.1282.65.1134,1.0346.2481,2.0664.404,3.0951.1389.9159.0981,1.8224-.1228,2.7193-.0535.2177-.1499.4144-.2891.5899-.0916.1151-.1998.1335-.3246.0555-.17-.1065-.3013-.2434-.3937-.4107-.034-.0612-.1018-.2327-.203-.515-.3639-1.0103-.4702-2.0705-.3189-3.18.127-.9311.2946-1.7963.5026-2.5956.0431-.1659.0471-.3269.0114-.4833-.1202-.5236-.2665-1.0392-.4391-1.5475-.0082-.0244-.0105-.0459-.0068-.0649.0113-.0567.0428-.0502.0941.0196.1664.2267.2965.4728.3903.7384.0766.2177.1741.4258.2928.6239.0029.0048.0054.0082.0083.0113.026.029.0705.0312.0995.0054.0031-.0031.0059-.0062.0087-.0096.1582-.1959.3283-.383.5097-.5607.2693-.2625.453-.4368.5513-.523.2883-.254.6189-.4612.9916-.6216.1361-.0584.2186-.1429.2475-.2543l.136-.5185c.0604-.2335.1531-.3996.2781-.498.3827-.3016.7929-.5253,1.2308-.6704.0644-.0213.2659-.112.6046-.2724.5372-.2531.9086-.108,1.1143.4357.1662.4402.3476.8739.5434,1.3014.2019.4407.3617.8966.48,1.3671.0816.3274.1607.6557.2369.9848.0871.3736.1369.7069.1497,1.0006.0204.4371.0079.8742-.0374,1.3113-.0003.004-.0009.0074-.0014.0111-.0153.0875-.0987.1459-.1854.1306-.0037-.0005-.0074-.0014-.0111-.0022-.2233-.0528-.3963-.2418-.5179-.5672-.0365-.0976-.1063-.1812-.197-.235-.6902-.4045-.9147-1.0137-.6743-1.8275.0416-.1415.0371-.2812-.0136-.4198-.1877-.5128-.2628-1.0188-.2257-1.518.0301-.409-.0949-.7699-.3756-1.0823-.102-.1134-.2282-.155-.3778-.1247-.1746.0349-.3544.0825-.5389.1429-.2018.0666-.3682.1477-.4992.2429-.2783.2018-.4844.4606-.6182.7758-.036.0857.0014.1829.0845.222.4631.2234.7693.5811.9184,1.0726.1233.4068.1882.7472.195,1.0211.0091.369-.0008.737-.0295,1.1038-.0439.5627-.0762.9054-.0975,1.0278-.0606.3441-.1803.6718-.3597.9825-.0907.1573-.1766.1548-.2574-.0079-.3744-.7487-.688-1.5305-.9405-2.3448-.1687-.5449-.2642-.9032-.286-1.0758-.0477-.3781-.0037-.7543.1315-1.1287.0008-.002.0014-.004.0017-.006.0051-.0238-.0096-.0473-.0329-.0522-.002-.0005-.004-.0008-.0059-.0008h-.0003ZM48.8361,18.631h.0003c.182-.0159.2852-.5406.2299-1.1713-.0553-.631-.2478-1.1299-.43-1.1137h0c-.1823.0158-.2852.5405-.2302,1.1712.0553.631.248,1.1299.43,1.1138h0ZM45.7081,18.6378c-.4643.934-.6265,1.9264-.4865,2.9769.0499.3745.243.6744.5797.8997.0051.0034.0117.0071.0185.01.0507.0204.1082-.0043.1287-.0547.0025-.0069.0045-.0139.0059-.0213.1006-.6284.1539-1.2759.1599-1.942.0062-.6256-.0822-1.2444-.2653-1.8562-.0363-.1233-.0834-.1275-.1409-.0124Z" fill="#ba1c22" fill-rule="evenodd" stroke-width="0"/><path d="M55.4955,15.0117c-.2911-.1701-.498-.3027-.6205-.398-.4357-.3373-.9345-.515-1.4964-.5332-.1655-.0054-.1924-.049-.0805-.1307.025-.0187.0567-.0365.0953-.0533.4493-.195.9167-.3296,1.4023-.4039.5468-.0839,1.0678-.0074,1.5633.2293.443.2118.6721.5471.6862,1.0063.0054.1605-.0374.2948-.1281.404-.0853.1012-.1913.1811-.3178.2392-.0331.0159-.0612.0386-.0839.068-.1692.2186-.3999.3289-.6919.3303-.0076,0-.0145-.0006-.0213-.0017-.0725-.0114-.1218-.08-.1102-.1531.0011-.0065.0028-.0133.0048-.0198.0397-.1256.0445-.2415.0145-.3473-.025-.0878-.097-.1664-.2158-.2361Z" fill="#bc1c22" fill-rule="evenodd" stroke-width="0"/><path d="M85.636,17.924c.1877.3141.1908.6327.0091.9564-.2055.3654-.4983.635-.8782.809-.0595.0272-.0978.057-.1145.0896-.0363.0697.0057.1208.1259.1531.519.1431,1.0258.3192,1.5202.5286.1573.0675.2852.165.3835.2929.0984.1292.1233.2568.0751.3824-.047.1201-.1431.1862-.2882.1984-.0811.0068-.1849-.0159-.3121-.0681-.6361-.2639-1.0301-.4039-1.1821-.4198-.4895-.0507-.8371-.0578-1.0426-.0215-.1528.0272-.1941.1015-.1238.2225.047.0794.0708.1415.0717.186.0028.1414-.0476.2605-.1522.3574-.1075.0989-.1645.1519-.1713.1588-.295.3177-.6505.517-1.0663.5978-.0848.0167-.2917.0621-.6206.1363-.3123.0709-.6389.0547-.979-.049-.389-.1179-.6248-.3538-.7081-.7078-.0241-.1052-.0258-.2379-.0046-.3983.0176-.1324.0374-.2647.0601-.3971.0788-.4697.3742-.7793.8861-.9292.4757-.1384.8895-.1973,1.2413-.1769.4961.0289.8813.0289,1.156,0,.0343-.004.0683-.0213.0941-.0488.2412-.2639.47-.538.6866-.8226.2457-.3214.1692-.4697-.2294-.4447-.0343.002-.0643-.0185-.0725-.0491-.0477-.1774.0054-.3441.1587-.5.2248-.2276.4581-.4037.7002-.5287.1624-.083.3807-.127.6545-.1315.5159-.0091,1.1114-.0465,1.7869-.1122,1.5866-.1551,3.1757-.2886,4.7671-.4006.1355-.0099.2514-.0479.3483-.1145.1316-.0901.1304-.1777-.0034-.2633-.1173-.0749-.2386-.1259-.3642-.1531-1.086-.2322-1.7328-.3473-1.94-.345-.2435.0031-.4848-.0139-.7237-.051-.2186-.0332-.4371-.0462-.656-.0386-.2213.0083-.443.0003-.6647-.0238-.1732-.0195-.2477-.1156-.2234-.2883.0454-.3342.1687-.6678.3697-1.0006.002-.0028.0037-.0057.0059-.0082.0219-.0272.0604-.0326.0856-.0122.0023.002.0046.004.0063.006l.3435.3798c.0341.0363.0723.0592.1089.0658.9303.1749,1.8051.3849,2.6243.631.4847.1451.7719.2392.8612.2823.303.146.5289.3617.6772.6466.102.1953.0825.3469-.059.4549-.0697.053-.193.0956-.3699.1273-.7821.1406-1.7192.2418-2.8114.3039-1.0415.0589-2.382.2191-4.0218.4799-.0026.0006-.0048.0011-.0071.002-.0193.0073-.0286.0295-.021.0493.0009.0025.002.0045.0034.0068l-.0003-.0003h0ZM81.2001,21.3264c.0176.2095.1695.3178.4561.3246.7458.0173,1.2651-.2599,1.5576-.8317.1211-.2353.0496-.3441-.2143-.3268-.4062.0266-.7761.0711-1.1094.1341-.1908.0362-.3629.1323-.5162.288-.1287.1301-.1866.2676-.1738.4118Z" fill="#ba1c22" fill-rule="evenodd" stroke-width="0"/><path d="M43.6717,18.0864c.0425-.1513.0813-.1502.117.0034.0627.2776.1043.5596.1248.8462.0235.3458-.0111.6247-.1032.8373-.1477.3405-.4017.5434-.7625.6092-.2906.053-.6154-.0048-.9746-.1735-.2883-.1355-.5783-.3124-.8702-.5309-.205-.1536-.1792-.2288.0771-.2259.1893.0022.4501.0201.7829.0535.7155.0709,1.1937-.2211,1.434-.8759.065-.1777.1234-.3588.1747-.5434Z" fill="#b61d23" fill-rule="evenodd" stroke-width="0"/><path d="M30.9016,87.8462c-.053-.0005-.1004-.0278-.1267-.072-3.0549-5.0043-5.0151-10.3683-5.8805-16.0914-.112-.7399-.2032-1.4899-.2744-2.251-.6293-6.7079.2424-13.163,2.615-19.3649,2.1101-5.5151,5.2645-10.4105,9.4629-14.686.5295-.5394,1.074-1.0638,1.6339-1.5738,5.0023-4.5607,10.7365-7.7559,17.2023-9.5854,5.2628-1.4893,10.6892-1.9298,16.2791-1.3217,5.6347.6134,10.9281,2.2875,15.8797,5.0227,6.1801,3.4132,11.1996,8.0246,15.0584,13.8342,3.3792,5.0893,5.5659,10.6786,6.5597,16.7677.1202.7362.2186,1.486.2951,2.2499.9694,9.6729-1.0522,18.6503-6.0653,26.932-.0649.1074-.1599.1613-.2846.1613l-72.3546-.0216Z" fill="#bd1b21" fill-rule="evenodd" stroke-width="0"/><path d="M76.9663,30.4004c.0382.0139.0643.0525.0669.0978l1.3535,21.5983c.0046.0737-.0368.1426-.1043.1752l-1.4193.6962c-.0043.002-.0079.0031-.0119.0042-.0326.0083-.0658-.0113-.074-.0436-.0008-.004-.0014-.008-.0017-.0119l-1.1786-22.9587c0-.0034,0-.0059.0005-.0085.0034-.0224.0233-.0377.0445-.0343.0026.0003.0051.0012.0077.002l1.3167.4833Z" fill="#fff" fill-rule="evenodd" stroke-width="0"/><path d="M70.9682,56.0684c-.0029.0014-.0057.0026-.0085.0034-.0199.0048-.0403-.0068-.0451-.0263-.0006-.0029-.0011-.0057-.0009-.0088l-.007-24.4395c-.0009-.0524.0317-.1006.081-.1185l4.1701-1.4754c.0017-.0006.0034-.0011.0051-.0014.0235-.0046.0462.0113.0507.0351.0006.002.0009.004.0009.006.068,1.1117.1922,3.4353.3722,6.9704.2729,5.3699.547,10.743.8226,16.1192.002.0354-.0173.0689-.0494.0864l-5.3917,2.8494Z" fill="#fff" fill-rule="evenodd" stroke-width="0"/><path d="M65.7663,49.1593c-1.4862-.0468-2.9347.1355-4.3452.5468-.0054.0019-.0122.0031-.019.0034-.0456.0022-.0845-.0326-.087-.0786-.0003-.0068.0002-.0136.0017-.0204.3546-1.7696.6522-3.5302.8929-5.2818.4575-3.3301.7767-6.6741.9575-10.0315.0014-.0332.0233-.0632.0556-.0754l6.7651-2.4228c.0015-.0005.0032-.0008.0051-.0014.0159-.0028.0312.008.0341.0241.0002.002.0005.004.0005.0057v19.4423c0,.1156-.0314.1247-.0944.0272-.1873-.2929-.4124-.5624-.6749-.809-.2381-.2231-.5227-.4235-.8532-.6013-.8462-.4561-1.7258-.6984-2.6388-.7273Z" fill="#fff" fill-rule="evenodd" stroke-width="0"/><path d="M20.6821,36.3974c-.0014.1573.0128.3523.0431.5854.0286.2267-.0042.4337-.0986.6205-.0462.0901-.0791.0856-.099-.0136-.102-.516-.2202-1.0276-.3549-1.535-.0448-.1673-.053-.324-.0249-.4708.0377-.199.0839-.3535.1383-.4641.0584-.1179.1361-.1562.2339-.1145.0504.0213.1003.0717.1496.1519.2617.4275.5503.8363.8657,1.2266.0681.0839.1194.0743.1543-.0284.0603-.1771.1451-.3401.2539-.4889.1015-.1386.1953-.1659.2815-.082.0445.0448.0672.1151.068.2112.0023.254.0111.508.0261.7611.0168.2784-.049.5344-.1973.7682-.0586.0938-.1729.1398-.2817.1128-.1874-.0487-.3249-.1525-.4128-.3112-.0725-.1318-.1105-.2001-.1145-.2055-.1686-.2517-.3339-.506-.4958-.7623-.0884-.1391-.1335-.1264-.1349.0386Z" fill="#b61d23" fill-rule="evenodd" stroke-width="0"/><path d="M25.0126,41.3518c-.0235-.0598-.0244-.1162-.0023-.1692.0006-.0017.0017-.0037.0029-.0057.0119-.0198.0394-.0252.0615-.0122.002.0014.004.0026.0057.0043.358.295.7599.5102,1.2061.6457.2353.0703.2718.1976.11.3821-.0831.0961-.2086.1573-.3765.184-.1196.0181-.2531.0048-.4005-.0397-.3229-.0992-.6233-.241-.9008-.4255-.2186-.1454-.4845-.3382-.7977-.5785-.4584-.351-.8311-.783-1.1186-1.2958,0-.0002-.0005-.0011-.0011-.0019-.0162-.0304-.0085-.0661.017-.0797.0006-.0003.0011-.0006.002-.0009.0607-.0283.1329-.0102.2171.0542.2109.1604.4227.3192.6353.4765.028.0198.0652.0162.0856-.0085.0827-.0919.1389-.1987.1684-.3206.0076-.034-.006-.0689-.0346-.0902-.1812-.138-.2863-.242-.3158-.3126-.2747-.6557-.5162-1.3238-.7251-2.0047-.1111-.3614-.1828-.7234-.2154-1.0856-.0176-.1891.0666-.2628.2517-.2211.2701.0598.5034.1862.7001.3801.4635.4558.9553.8799,1.4749,1.2716.7033.5304,1.4805.9119,2.3312,1.1446.2256.0621.4448.142.6582.2396.0612.0277.0902.0986.0658.1607-.0621.1607-.1882.2483-.379.2636-.0893.0068-.2478.0751-.4754.2052-.1437.0825-.1845.025-.1224-.1723.0005-.0014.0005-.002.0008-.0023.0085-.0297-.0091-.0606-.0394-.0691-.0003,0-.0006-.0003-.0008-.0003-.5176-.1406-.9752-.3376-1.3731-.5911-.9122-.5822-1.7487-1.25-2.5096-2.0035-.1649-.1641-.2114-.1352-.1394.0865.1715.5269.3328,1.0567.4833,1.5894.074.263.1667.4643.2778.6035.1641.2035.377.2647.6389.1836.0017-.0005.0057-.0017.0096-.0025.0715-.0164.1426.0281.1591.0995.0011.004.0017.0082.0022.0122.0258.2222.0718.4473.1375.6749.0176.0581.0235.1089.0182.1519-.0142.112-.0598.1443-.1361.0967-.0264-.0167-.0536-.049-.0816-.0967-.1559-.2639-.3473-.2548-.5741.0273-.0252.0311-.0215.0768.0085.1029.2963.2528.6166.4461.9616.5802.0317.0119.0411.0017.0283-.0306Z" fill="#b61d23" fill-rule="evenodd" stroke-width="0"/><path d="M113.2784,40.7948c.2639.1641.5363.3112.8169.4411.4249.1961.7022.3313.8314.4062.8722.5059,1.6784,1.1024,2.4188,1.7892.2974.2752.4638.4374.4992.4867.1341.1845.2123.4124.235.684.0003.0065.0003.0116,0,.0167-.0048.0544-.0522.0944-.106.0899-.0048-.0006-.0099-.0014-.0148-.0026-.4314-.1017-.8325-.2574-1.2033-.4668-.0022-.0009-.3588-.2353-1.0698-.7036-.3849-.254-.767-.5131-1.1457-.777-.0258-.0184-.0448-.0368-.0567-.0558-.0326-.0513-.0139-.0751.0567-.0714.0226.0017.0465.009.0714.0226.5967.3164,1.1874.6438,1.7719.9825.4352.252.7243.3793.868.3824.1976.0037.2152-.0615.0533-.1961-.4856-.404-.9989-.7685-1.5406-1.0937-.9309-.5598-1.87-1.1057-2.8171-1.6384-.3923-.2208-.7812-.3124-1.1662-.2744-.1672.0165-.2829.0151-.3472-.0045-.2169-.0661-.2211-.2214-.0125-.4663.093-.1091.1128-.2302.059-.3631-.1693-.423-.3685-.8374-.5979-1.2436-.0257-.0453-.0405-.0867-.0442-.1247-.0105-.1089.0281-.1398.1157-.093.0295.015.0578.0411.085.0783.2308.3183.4853.5193.7637.6023.1247.038.2364.0145.3347-.0703.618-.5301,1.2374-.7526,1.8584-.667.0295.0037.1163.0309.2608.0817.0916.0317.1846.0416.2792.0294.0839-.0099.089-.0362.0159-.0793-.6891-.4008-1.1767-.9732-1.4624-1.7167-.0266-.0686-.0215-.11.0148-.1236.0255-.0105.0635.0051.0924.0383.2333.2769.3773.4379.4317.4824.506.4122,1.0111.8252,1.5157,1.2391.1672.1369.3591.2466.5763.3288.1.0374.1743.1193.1961.2174l.1341.5939c.0507.2247-.0281.2829-.2361.1746-.6738-.3524-1.3825-.5893-2.126-.7112-.2679-.044-.4967-.023-.6866.0623-.369.1664-.6378.4573-.8064.8725-.0017.0037-.0034.0091-.0048.0148-.0154.0609.0218.1224.0824.1377.0057.0012.0114.0023.017.0029,1.048.0725,2.0889.2214,3.1227.4459.1165.0258.1182.0575.0045.0952-.39.1287-.7894.176-1.1979.1417-.3101-.0255-.6205-.0354-.9315-.0294-.0377.0008-.0408.0116-.009.032Z" fill="#b61d23" fill-rule="evenodd" stroke-width="0"/><path d="M105.0327,40.5507c-.1497-.0295-.2191-.1202-.2087-.2721.0151-.2126.0763-.3878.1837-.5255.0774-.0998.2248-.1931.4425-.2801,1.9213-.7708,3.8361-1.2317,5.7453-1.383.3736-.0295.3863.0249.0385.1632-1.866.7399-3.7307,1.4806-5.5941,2.2227-.2194.0876-.4218.1128-.6072.0748Z" fill="#ba1c22" fill-rule="evenodd" stroke-width="0"/><path d="M18.8237,39.2459c-.0082-.3024.0136-.4983.0658-.5876.2157-.3668.4963-.4283.8419-.1848.0816.0581.1502.1293.2052.2132.4306.6672.8683,1.2322,1.3139,1.6951.2086.2163.7526.5799,1.6313,1.0913.1006.059.2248.1622.3722.3096.1423.1417.2242.2599.2463.3551.0414.1778-.0618.3192-.3098.4244-.1196.0507-.2109.1326-.2747.2463-.0802.1437-.2401.2736-.4799.3901-.002.0011-.0042.0025-.0062.0042-.0167.0131-.0199.0372-.0065.0542.0014.0017.0031.0036.0048.0051.4107.3517.7957.7225,1.1551,1.112.1171.127.1984.233.2438.3175.1338.2534.0606.3948-.22.4243-.1582.0167-.2988-.0229-.4221-.119-.0975-.0766-.1797-.1667-.2463-.2713-.0952-.1505-.1644-.2492-.2075-.2959-1.3757-1.5302-2.238-2.539-2.5866-3.0269-.2594-.364-.5672-.6811-.9235-.9519-.093-.0711-.1202-.0515-.0817.059.0794.2245.199.4547.3583.6897.2906.4274.5298.8793.7183,1.3558.1483.3727.2274.7149.237,1.0256.0122.3577-.0366.7126-.1463,1.0641-.0762.2474-.1329.2429-.17-.0136-.0539-.3682-.1415-.7319-.2634-1.0914-.3033-.8932-.61-1.7852-.9201-2.6761-.0332-.0961-.0641-.2812-.093-.5548-.0034-.0354-.0195-.0692-.0448-.093-.2273-.2026-.466-.2012-.7163.0043-.2656.218-.5502.4062-.8544.5649-.0462.0244-.0583.0131-.0362-.034.1678-.3515.3622-.6874.583-1.0074.2345-.3419.5605-.4913.978-.4479.0014,0,.0028,0,.004.0003.0269.0008.0496-.0201.0504-.0471v-.0034h0ZM19.1029,39.4163c.4811.3781.872.7872,1.173,1.2274.5908.8654,1.2504,1.6741,1.9786,2.4267.0011.0012.0025.0026.004.0037.0192.0162.0479.0136.0637-.0054.0015-.0017.0026-.0031.0037-.0048.1868-.2877.2526-.6006.1976-.9397-.0065-.0371-.0244-.0705-.051-.0978-.7512-.7803-1.5007-1.563-2.2487-2.3482-.2217-.2321-.453-.4549-.6942-.6681-.2416-.2126-.4128-.1809-.514.0952-.0462.1248-.017.2285.0873.311Z" fill="#b61d23" fill-rule="evenodd" stroke-width="0"/><path d="M21.1246,38.8536c-.1477.0264-.1721-.0167-.0737-.1295.0958-.1097.2086-.1857.3379-.2279.1043-.0332.2344-.0349.3903-.0046.2276.044.4354.112.6228.2041.2443.1197.252.2523.0227.3983-.2503.1596-.4601.1678-.6296.0249-.1528-.1278-.231-.1927-.2347-.195-.1423-.0734-.2874-.0969-.4357-.0703Z" fill="#b61d23" fill-rule="evenodd" stroke-width="0"/><path d="M29.6368,40.089c-.1256-.0462-.2784-.0338-.4584.0374-.326.1278-.6293.2985-.9099.5116-.1284.0984-.161.0726-.0975-.0771.174-.4053.4527-.7475.8362-1.0267.1709-.1247.3197-.1905.447-.1973.2118-.0107.3572.1134.4365.3719.057.1877.0542.3892-.0079.6049-.015.0528-.0366.057-.0646.0125l-.1055-.1635c-.0252-.0389-.0533-.0658-.0762-.0737h.0003Z" fill="#b61d23" fill-rule="evenodd" stroke-width="0"/><path d="M26.7437,41.3439c-.1043.151-.2279.2222-.371.2131-.2186-.0144-.3878-.1125-.5083-.2951-.1769-.269-.4085-.3424-.6942-.2199-.102.0445-.1199.0184-.0533-.0783.1256-.1808.2662-.3529.4221-.5162.0017-.0017.0034-.0036.0051-.0051.072-.0697.1865-.068.256.0037.0017.0017.0037.004.0054.006.0802.0898.1474.174.2021.2517.1973.2846.3773.275.54-.0284.1769-.331.373-.3395.5887-.0249.1854.2716.3816.5343.5888.7886.3078.3773.498.6429.5706.7963.1681.3526.2486.7333.2418,1.1426-.0017.0998-.0244.1806-.068.2426-.0902.1279-.1806.1219-.2713-.0181-.0309-.0476-.059-.1188-.0839-.2132-.1174-.447-.2636-.8022-.4391-1.0652-.1551-.2308-.4422-.5599-.8612-.987-.0008-.0012-.002-.0023-.0031-.0032-.019-.0161-.0482-.013-.0646.0066-.0009.0011-.0017.0022-.0026.0034h0Z" fill="#b61d23" fill-rule="evenodd" stroke-width="0"/><path d="M117.9618,42.9537c-.1545-.1044-.2115-.2345-.1715-.3904.0008-.0037.0351-.0615.1032-.1735.0734-.1196.0484-.2888-.0749-.5082-.0408-.0692-.0561-.1565-.0408-.241.0136-.0669.0669-.062.1599.0151.1967.1641.4215.2239.6741.1794.0011-.0003.0022-.0006.0036-.0006.0156-.0011.0292.0111.0304.0275v.0034c-.0363.476-.2242.838-.5638,1.086-.0369.0261-.0851.0266-.1211.0017l.0009.0006Z" fill="#b61d23" fill-rule="evenodd" stroke-width="0"/><path d="M113.1196,43.7476c-.5848-.3379-1.0956-.7625-1.5327-1.2739-.0226-.0263-.0292-.0635-.0161-.0955.1159-.2738.3285-.3523.6378-.2358.3396.1278.6942.2724,1.0641.4334.0011.0006.0026.0011.004.0014.0246.0077.0507-.0062.0581-.0309.0005-.0017.0011-.0034.0014-.0051.0235-.1335.0556-.2523.0964-.3569.019-.0459.045-.0774.0785-.0941.0649-.0317.1088-.0034.1315.0851.0233.0938.0746.1794.1469.2446.3937.3535.6128.7841.6573,1.2917.0003.0015.0003.0023.0003.0034,0,.0281-.023.0511-.051.0511-.0014,0-.0029,0-.004-.0003-.1208-.0082-.2106-.0536-.2696-.1361-.4841-.6837-1.1335-1.1307-1.9479-1.3408-.1528-.0394-.1789-.0039-.0783.1066.5074.5559,1.0834,1.0281,1.7277,1.417.3473.2095.5227.5006.5264.8734.0023.159-.0654.1987-.2029.1193-.2112-.1227-.4085-.2494-.5922-.3801-.1409-.1006-.2931-.165-.4572-.193-.3118-.0522-.4708-.0794-.4776-.0817-1.171-.331-2.0192-.5264-2.5447-.5853-.4918-.0553-.8847-.1222-1.1789-.2007-.1647-.0439-.2866-.1108-.3654-.201-.1284-.1474-.108-.2832.0615-.407.0893-.0652.2015-.1007.3367-.1069.2733-.0119.5205.0306.7422.1281.2851.1264.5025.2112.6522.2543.919.2633,1.838.5272,2.757.792.034.0091.057.0068.0691-.0068.0012-.0014.0017-.0026.0023-.0034.0114-.0179-.002-.0468-.0295-.0638-.0014-.0008-.0025-.0017-.0039-.0023h.0005Z" fill="#b61d23" fill-rule="evenodd" stroke-width="0"/><path d="M109.9122,47.1285c-.5558-.4566-.9683-.9853-1.2376-1.586-.0901-.1995-.0465-.3645.1304-.4946.3541-.2594.7356-.4626,1.1446-.6092.0825-.0295.0942-.0116.0352.0533-.1415.1559-.2778.3138-.4093.4742-.1786.2178-.2177.4576-.1171.7192.068.1763.254.4255.557.7478.3033.3228.6732.4164,1.1098.28.1465-.0459.434-.1763.8623-.3911.0431-.0221.0805-.0341.1122-.0363.078-.0068.1069.0232.0873.0907-.0085.0258-.026.0533-.0533.0828-.3305.3554-.7217.6721-1.1732.9496-.0953.0578-.2055.0793-.3132.062-.2608-.0399-.5057-.1539-.7351-.3424Z" fill="#b61d23" fill-rule="evenodd" stroke-width="0"/><path d="M69.6827,57.4152c-.019.0793.007.0992.0782.0589,4.3824-2.4783,8.8614-4.7372,13.4371-6.7762,5.1015-2.2728,10.3456-4.1494,15.7322-5.6296.2725-.0748.2838-.0465.0341.085-8.3342,4.4096-16.3891,9.2903-24.1651,14.6421-4.5675,3.1442-9.6747,6.8729-15.3216,11.1861-.0181.0139-.0345.0221-.0498.0252-.0477.0091-.0477-.0215,0-.0921,1.6299-2.3771,2.988-4.9003,4.0739-7.5694.3867-.9498.6593-1.8824.8181-2.7978.0811-.4688.1128-.9532.0952-1.453-.0204-.5562-.1043-1.0304-.2517-1.4227-.3481-.9298-1.0216-1.5854-2.0205-1.9672-.1891-.0729-.4334-.1421-.7331-.2078-.242-.0536-.4926-.0893-.752-.1066-1.1194-.0757-2.2034-.0088-3.2516.2007-1.8726.3736-3.7409.9468-5.6044,1.7189-3.3092,1.3697-6.4925,2.9883-9.5502,4.8558-.1998.1216-.2115.1054-.0354-.0488,2.9832-2.6042,6.184-5.0063,9.6026-7.2065,1.3924-.8963,2.9489-1.7711,4.6695-2.624,1.6793-.8329,3.4214-1.5018,5.2268-2.007,1.2615-.3526,2.5671-.5105,3.9164-.4742.7268.0195,1.4079.1658,2.0432.4391.5913.2548,1.0706.5967,1.4374,1.0256.3949.4611.6662,1.0045.8144,1.6302.199.8365.2518,1.6106.1579,2.3224-.1006.7608-.2344,1.4919-.4016,2.1929Z" fill="#fff" fill-rule="evenodd" stroke-width="0"/><path d="M57.253,73.1667c-.102.1551-.0768.18.076.0749,1.4785-1.0202,2.9058-2.0535,4.2817-3.0994,2.7553-2.0951,5.5432-4.1437,8.3634-6.1456.0311-.0221.0467-.0144.0467.0227l-.0215,21.7656c-.0003.0499-.0403.0907-.0899.0907-5.5961.0073-11.2104.0051-16.8429-.0068-2.7326-.0063-5.4842-.0017-8.2545.0136-.091.0005-.1091-.0352-.0544-.1077,2.4874-3.3387,4.8028-6.8038,6.9455-10.3958.4195-.7033.7974-1.3587,1.1333-1.9658,3.0268-5.4737,5.3606-11.2601,7.001-17.3594.0093-.0346.0413-.0584.0771-.0578.4575.0039.9201.0606,1.3875.1703,1.7561.4099,2.5943,1.5228,2.5141,3.3387-.0386.8668-.2208,1.7691-.5468,2.7071-.3056.8773-.6614,1.7339-1.0676,2.5696-.7815,1.6035-1.6418,3.1634-2.5809,4.6797-.8025,1.2948-1.5919,2.5302-2.3678,3.7054Z" fill="#fff" fill-rule="evenodd" stroke-width="0"/><path d="M80.4968,85.862c-.6587-.0023-1.1987.0034-1.62.017-.0048.0005-.0615.0068-.1703.0181-.1746.0187-.2571-.0564-.2472-.2259.0096-.1664.0142-.2534.0136-.2608-.4493-8.7213-.9125-17.4807-1.3898-26.2774-.0043-.0675.028-.1341.0853-.1735l1.4587-.9828c.0788-.0527.121-.032.127.0624l1.813,27.748c0,.0006,0,.0017.0003.0031.0011.0383-.0286.0703-.0669.0715h-.0034l-.0003.0003Z" fill="#fff" fill-rule="evenodd" stroke-width="0"/><path d="M70.9829,85.8608c-.0422,0-.0762-.0343-.0762-.0762l.0068-22.3623c.0002-.066.0317-.1286.085-.1669l5.6455-3.9422c.0493-.034.0751-.0212.0782.0386l1.408,26.4331v.0025c.0017.0471-.0349.0865-.0819.0879h-.0029l-7.0625-.0145Z" fill="#fff" fill-rule="evenodd" stroke-width="0"/><path d="M115.687,78.6588c.0042-.0014.0085-.0031.0127-.0053.0318-.0176.0434-.0573.0261-.0885-.0023-.0042-.0051-.0082-.0082-.0116l-2.7457-3.0801c-.0538-.061-.072-.1477-.0484-.2302l.2177-.7625c.009-.034.0249-.038.0476-.0114l3.2913,3.8175c.07.0816.1604.1386.2602.1649l4.1403,1.0968h.0006c.0314.0085.0501.0408.0416.0722,0,0-.0002.0003-.0002.0006l-.3856,1.478c0-.0006,0-.0003,0-.0003-.0085.0346-.0436.0556-.0785.0471,0,0-.0003,0-.0005-.0003l-3.9688-1.0675c-.0737-.0196-.1488-.0173-.2183.0053l-4.9212,1.6022c-.1126.0363-.1531-.0031-.1213-.1179l.4356-1.5872c.0219-.079.0814-.1411.1576-.1635l3.8654-1.1583Z" fill="#bc1c22" fill-rule="evenodd" stroke-width="0"/><path d="M17.551,78.0259l1.0131,3.3933v.0003c.0096.0329.0442.0522.0771.0428,0-.0003.0003-.0003.0003-.0003l3.7184-1.1012c.0301-.0097.0633.0062.0757.0365.1902.4703.3351.9539.4349,1.4505.0068.0318-.0122.0635-.0437.0726l-8.3438,2.4792h.0003c-.0306.009-.0632-.0085-.0726-.0397h-.0002l-.4414-1.4397c-.0093-.0301.0071-.0624.0374-.0723.0003-.0003.0006-.0003.0006-.0003l3.8976-1.1665h.0006c.0312-.0096.0488-.0425.0394-.0737l-.0003-.0002-1.004-3.3557c-.0199-.0652-.0876-.102-.1517-.0825l-3.7862,1.1262-.0003.0003c-.0519.0147-.1054-.0136-.1199-.0638h0l-.4107-1.4181v-.0006c-.0125-.0431.0136-.0887.0581-.1015h.0003l8.3222-2.4778c-.0006.0003-.0003,0,0,0,.0394-.0121.0816.0108.0938.0508,0,.0003.0003.0006.0003.0006l.4391,1.4371s.0003.0003.0003.0006c.0116.0377-.0091.0777-.0462.089h-.0006l-3.7358,1.1154h-.0005c-.0414.0128-.0644.057-.0516.099h0v-.0003Z" fill="#bc1c22" fill-rule="evenodd" stroke-width="0"/><path d="M109.4573,86.3271l-.8643,1.9457h-.0003c-.0196.0445-.0748.0632-.1236.042l-.4493-.1987c-.0334-.0145-.0502-.0527-.0365-.0856l2.4429-5.597c.0008-.0017.0008-.002.0011-.0023.0221-.0476.076-.0695.1205-.049.0002.0002.0008.0005.0011.0008l.4694.2171c.032.0153.0451.0533.0303.0859l-.8492,1.9528c.0003-.0006.0003-.0003,0-.0003-.0221.0499.0003.1083.0502.1304h0l7.3207,3.2156c.0425.0188.0618.0684.0439.1115l-.5533,1.3158c-.0005.0014-.0008.0014-.0008.0017-.0247.0556-.0885.0811-.1423.0573-.0003-.0003-.0009-.0006-.0012-.0006l-7.3162-3.1989h-.0003c-.0544-.0241-.1182.0008-.1428.0555h0v.0003Z" fill="#bc1c22" fill-rule="evenodd" stroke-width="0"/><path d="M20.3621,87.7269l-3.1448,1.4556s-.0003.0003-.0005.0003c-.0284.0133-.0403.0473-.027.0765.0003,0,.0003.0003.0003.0006l1.569,3.3681c.0003.0005.0003.0008.0006.0008.0124.0272-.0009.0604-.0304.0743l-.5034.237c-.0295.0136-.0635.0031-.0757-.0236-.0003,0-.0003-.0002-.0003-.0002l-2.2646-4.8739c-.0158-.0352-.0008-.0768.0343-.093l7.8744-3.6553c.049-.0227.106-.0017.1284.0465,0,.0003.0003.0003.0003.0006l2.2323,4.8084c.0147.03.0056.0663-.0216.0862-.155.1136-.3268.1902-.515.2304-.0321.0074-.0652-.0091-.0791-.0394l-1.5477-3.3233c-.0003-.0009-.0006-.0009-.0006-.0009-.0139-.0286-.0479-.0408-.0763-.0272l-2.7992,1.3c-.0362.0167-.0516.0609-.034.0983v.0003l1.4035,3.0405v.0003c.0289.0617-.0012.1369-.0669.1675h0l-.3972.1874c-.0482.0218-.1037.0036-.125-.0412l-1.4567-3.0733c-.0147-.0295-.0493-.0416-.078-.0278l.0009-.0005Z" fill="#bc1c22" fill-rule="evenodd" stroke-width="0"/><path d="M107.3554,89.5198l7.4001,4.642c.0286.0182.0374.0559.0193.0845l-.8028,1.2801c-.0181.0286-.0558.0374-.0845.0196l-7.4004-4.6423c-.0286-.0179-.0371-.0559-.0192-.0845l.803-1.2801c.0179-.0287.0558-.0374.0845-.0193Z" fill="#bc1c22" fill-rule="evenodd" stroke-width="0"/><path d="M21.2902,96.6622c-.0876.0069-.1058.046-.0545.1171l2.7374,3.7868-.0002-.0005c.0269.0371.0212.087-.0128.1116-.0003.0003-.0006.0006-.0008.0006l-.434.3036c-.0292.021-.072.013-.0947-.0181t-.0003-.0006l-4.0802-5.6435c-.0348-.0476-.0227-.0737.0363-.0782l9.4051-.7365c.0385-.0031.0465-.0204.0238-.0521l-2.5492-3.5363c-.0252-.0348-.0179-.0836.0167-.1085,0,0,0-.0003.0003-.0003l.4357-.311c.0269-.019.0635-.0133.083.0128l3.8356,5.3093c.0468.0643.0306.0995-.0488.1054l-9.2984.7384Z" fill="#bc1c22" fill-rule="evenodd" stroke-width="0"/><path d="M56.9171,94.71l-20.732-.0068c-.0468-.0005-.0904-.0198-.1211-.0533-1.0046-1.0757-1.9587-2.1943-2.8627-3.3559-.0258-.034-.0173-.051.025-.051,3.0353-.0335,6.0749-.0491,9.1193-.0468,19.4468.0122,38.8942.0181,58.3421.0181.059,0,.1072.004.1452.0114.0445.0093.0813.0127.1099.0102.1469-.0142.1701.0312.0703.1363-.0362.0386-.0623.0678-.0782.0873-.8419,1.09-1.7459,2.1473-2.7125,3.172-.0439.0462-.1034.072-.1658.0714l-20.7048.0071c-.0318-.0003-.0578.0253-.0578.0564l.0136,3.0067c.0003.0309.0263.0565.0584.0567,4.1042.0233,8.2085.0309,12.3122.0227.2299,0,.6492.0077,1.2572.0227.419.0105.8379.0105,1.2572,0,.5301-.0128.9558-.0167,1.2773-.0113.4076.0076.8339.0133,1.2787.017.0459.0008.0513.0158.0159.0453-1.4477,1.2147-2.9418,2.3196-4.4825,3.3151-.1023.0658-.214.0987-.3359.0987h-45.6162c-.1182,0-.2268-.0318-.3257-.0953-1.5883-1.0165-3.0731-2.1189-4.4541-3.3071-.0612-.0522-.0513-.0786.0295-.0794.6619-.0054,1.3334-.0037,2.0148.0045.8246.0099,1.4956.0133,2.0138.0102,4.4314-.0303,8.8631-.0351,13.2953-.0147.0315,0,.0567-.0255.0567-.0567l.0147-3.0336c0-.0321-.0258-.0582-.0578-.0582v.0003Z" fill="#bd1b21" fill-rule="evenodd" stroke-width="0"/><path d="M60.12,93.8012l-.5514-.0113c-.0371-.0008-.0688-.0221-.0793-.0533-.0304-.0802-.0258-.1579.0133-.2327.0161-.0309.0493-.0516.0873-.0544l1.5024-.1214s.0014-.0002.0025-.0002c.0437-.0023.0811.0317.0834.0762.0002.0014.0002.0026.0002.004v5.9899c-.0008.0527-.0419.0946-.0912.0938h-.0006l-.7954-.0113c-.032-.0009-.057-.029-.0567-.063l-.0193-5.5187c-.0005-.0542-.0433-.0973-.0964-.0978l.0012.0002Z" fill="#fff" fill-rule="evenodd" stroke-width="0"/><path d="M64.3504,96.8587c-.5907.2217-1.1163.1814-1.5769-.1202-.4901-.3223-.697-.8206-.6205-1.4953.0771-.6786.3983-1.2044.9632-1.5783.4734-.3138.9575-.4241,1.4522-.3311.4924.093.8762.3402,1.1514.7418.2943.4289.3694.9426.2257,1.5407-.0573.2406-.1381.4731-.2416.6979-.4742,1.0352-.9507,2.0718-1.4295,3.1096-.0212.0447-.0654.0728-.1139.0725h-.8243c-.0083,0-.0156-.0008-.0227-.0025-.053-.0122-.0862-.0658-.0737-.1194.0017-.0073.004-.0141.0074-.0209l1.1338-2.4631c.0167-.0357.0065-.0462-.0306-.0317h0ZM64.0148,96.5693c.5165.045.9901-.5721,1.0604-1.3777h0c.0706-.8056-.2888-1.4955-.8025-1.5403h0c-.5136-.0451-.9873.572-1.0576,1.3776h0c-.0706.8059.2889,1.4956.8025,1.5404h-.0028Z" fill="#fff" fill-rule="evenodd" stroke-width="0"/><path d="M69.1427,97.4611l-2.6901-.0069c-.1012,0-.123-.0408-.0658-.1224l2.7071-3.8529c.021-.0294.0544-.0467.0901-.0464l.8901-.0034c.0533,0,.0964.0442.0964.0986l.0193,3.4228c-.0003.0323.0252.0593.0575.0601l.8796.025c.0352.0008.0635.0258.0635.0558l-.0102.2857c-.0009.0332-.0309.0604-.0677.0613l-.8456.0102c-.0536.0003-.0973.0419-.0975.0935v1.8975c0,.0312-.0255.0567-.0567.0567h-.8215c-.0482,0-.0873-.0391-.0873-.0873l-.0057-1.8913c0-.0314-.0249-.0566-.0555-.0566h0ZM67.2514,96.9993l1.8754.0113c.0317.0003.0581-.0263.0589-.0598l.0125-2.6821c.0009-.0834-.0229-.0907-.0714-.0227l-1.9083,2.6841c-.0332.0462-.0224.0692.0329.0692Z" fill="#fff" fill-rule="evenodd" stroke-width="0"/><path d="M73.2529,93.8874l-1.7776-.0068c-.036-.0003-.0663-.0232-.074-.0553-.0286-.1128-.0272-.225.0045-.3362.0088-.032.0392-.0549.074-.0555l3.1867-.0068c.0771,0,.0919.0309.0442.093l-1.5145,1.9831c-.0831.1097-.0556.1565.0828.1406.2746-.0318.534-.0153.7784.0487.2194.0584.379.1588.4787.3008.1188.1704.1568.3736.1146.6103-.0499.2755-.1588.5252-.3269.75-.5133.686-1.0304,1.3695-1.5508,2.0501-.0465.0572-.1106.0887-.1755.087l-1.0882-.0111c-.0386-.0005-.0459-.017-.0215-.0487l1.9706-2.6127c.0748-.0992.1244-.2152.1485-.3484.0499-.2724-.0847-.4227-.4039-.4516-.4144-.0377-.847-.0501-1.298-.0374-.102.0031-.1205-.0348-.0555-.1134.5031-.6074.9796-1.2515,1.4295-1.9321.0212-.0317.0124-.0476-.0261-.0476Z" fill="#fff" fill-rule="evenodd" stroke-width="0"/><path d="M103.7724,98.7942c-.5051-.4547-.8045-.9734-.8975-1.5565-.0876-.5477.0114-1.0999.2974-1.6566.2798-.5445.6973-.9813,1.2523-1.3102.5477-.3254,1.1441-.4195,1.7893-.2826.0385.0085.0663.0366.0669.0675l.0113.5598c0,.0032-.0003.0068-.0008.0105-.0057.0357-.0423.0598-.082.0536-.0037-.0006-.0073-.0014-.011-.0026-.4819-.1536-.9457-.1238-1.3913.0896-.3676.1761-.6281.4473-.7818.8133-.1369.3277-.1598.6548-.0691.9813.0998.3578.3172.6344.6525.8295.4408.2562.9136.2704,1.4179.0419.6134-.2775,1.0298-.4754,1.2492-.5933.4139-.2239.8482-.3949,1.3037-.5128.468-.121.9595-.0306,1.4748.271.3215.1885.5956.4232.8224.7047.2194.2707.3736.5876.4629.9508.2421.9802.0076,1.8839-.7033,2.7113-.6832.7948-1.5384,1.1647-2.5662,1.1095-.0386-.0017-.0695-.0275-.0683-.0579v-.0002l.0272-.6667c.0003-.0006.0003-.0015.0003-.002.0028-.042.0442-.0732.0924-.0698.0008,0,.0017,0,.0025.0003.9253.0989,1.5846-.1814,1.9789-.8419.2041-.3432.273-.7018.2064-1.0754-.0757-.4289-.2985-.7572-.6682-.9848-.28-.1723-.6108-.2392-.9927-.201-.4977.0494-.979.2135-1.4442.4927-.3025.1806-.7024.3625-1.1993.5457-.8371.3078-1.5815.1681-2.2326-.4187Z" fill="#bc1c22" fill-rule="evenodd" stroke-width="0"/><path d="M67.2514,96.9993c-.0553,0-.0661-.023-.0329-.0692l1.9083-2.6841c.0485-.068.0723-.0607.0714.0227l-.0125,2.6818c-.0008.0338-.0272.0604-.0595.0601l-1.8748-.0113Z" fill="#ba1c22" fill-rule="evenodd" stroke-width="0"/><path d="M29.8012,101.7144c-.0451-.0464-.1185-.0484-.1644-.0045l-2.8851,2.7862s.0002,0,0,0c-.0278.0269-.0723.0261-.0992-.0017l-.0003-.0003-1.044-1.1041c-.01-.0099-.0153-.0235-.0153-.0374,0-.0148.0059-.0286.0164-.0386l6.2853-6.0865c.0184-.0173.0453-.0187.0652-.0046.0022.002.0045.004.0068.006l1.0204,1.065-.0008-.0009c.0346.0343.0346.0902.0005.1247l-2.7668,2.7122s.0002-.0002.0002,0c-.0229.0221-.0243.0581-.0031.08,0,.0003.0003.0003.0003.0003l2.4905,2.5599c.0255.0258.0666.0287.0953.0063.0019-.0017.0039-.0034.0059-.0051l2.7896-2.7037c.0221-.0216.0584-.0216.0813.0008l1.052,1.0817c.0108.0108.0164.0255.0164.0408,0,.0156-.0062.0309-.0173.042l-6.2898,6.0899-.0005.0006c-.0216.0201-.055.0193-.0746-.002,0,0-.0003,0-.0003-.0003l-1.0309-1.0907c-.0272-.0289-.0261-.0746.0022-.1021l2.8613-2.774c.0012-.0011.0015-.0011.0015-.0011.0422-.0425.0416-.112-.0012-.1553l-2.3975-2.4835Z" fill="#bc1c22" fill-rule="evenodd" stroke-width="0"/><path d="M98.2927,101.702l5.3572,6.1307v.0003c.0241.0278.0221.0692-.0045.0927l-1.1427.9995c-.0235.0213-.0603.019-.0822-.0051t-.0005-.0006l-5.7337-6.529c-.0158-.0179-.0246-.0408-.0246-.0646,0-.0284.0122-.0553.0337-.0737.8099-.7217,1.6186-1.425,2.4256-2.1101.3062-.2611.6979-.4941,1.1753-.6991.5958-.2571,1.178-.2656,1.7458-.0249.4675.1981.8581.5272,1.1721.987.2625.3835.3754.7931.3391,1.2288-.0227.2722-.1168.5562-.2824.8518-.1445.2594-.3231.5055-.5354.7376-.0017.0017-.0034.0037-.0046.006-.011.0181-.0051.0419.0131.053.0022.0014.0045.0025.0071.0034l4.316,1.5032c.0062.0023.0116.0051.0164.0085.0318.0224.0397.0663.0173.0981-.0034.0048-.0073.0093-.0119.013l-1.2359,1.0715c-.0425.0371-.1046.0482-.161.0278l-4.521-1.7181c-.0051-.0017-.011-.0048-.0167-.0082-.0436-.0272-.057-.0848-.0298-.1284.0037-.0057.0077-.0108.0125-.0156.2911-.2874.5366-.5922.7362-.9142.2253-.3645.3313-.6984.3177-1.0017-.0158-.3677-.1649-.711-.447-1.0302-.7268-.8251-1.5494-.9436-2.4675-.3551-.3019.1936-.6288.4552-.9803.7852-.0229.0207-.0241.0564-.0031.0805h-.0003Z" fill="#bc1c22" fill-rule="evenodd" stroke-width="0"/><path d="M48.2644,103.6726c-.1242-.0612-.1171-.0921.0215-.0921l37.6872.0068c.161,0,.1695.0354.0249.1057-5.6052,2.7221-11.5146,4.1723-17.7278,4.3506-.7577.0221-1.5146.0224-2.2703.0015-6.2206-.1749-12.1326-1.6322-17.7355-4.3725Z" fill="#bd1b21" fill-rule="evenodd" stroke-width="0"/><path d="M93.8579,109.1148c.0312.048.0964.0613.1452.0295h0l2.8408-1.8448c.029-.0187.0661-.0116.084.0159l.0002.0003.2835.4252s.0003.0003.0003.0006c.0263.0402.0125.0958-.0306.1238,0,0-.0003.0003-.0006.0003l-2.8338,1.8539c-.0368.0238-.0473.0725-.0238.1088h0l1.8754,2.8908q.0006.0009.0006.0011c.028.0414.0844.0525.1261.0244h0l3.0657-1.9859c.0303-.019.0683-.0165.0935.0059.1372.1202.237.2668.2991.4399.011.0335-.0017.0692-.0306.0879l-4.445,2.9095c-.0176.0113-.04.0156-.0613.0111-.0207-.0043-.0388-.0168-.0507-.0343l-4.7608-7.2899c-.0187-.0298-.0102-.0692.0193-.0884l4.4268-2.8908c.0431-.0286.101-.021.1361.0181.14.1551.231.2977.2735.4278.0097.0334-.0042.0689-.0337.0879l-3.0192,1.9836c-.0518.0338-.0672.1024-.034.1531l1.654,2.5347Z" fill="#bc1c22" fill-rule="evenodd" stroke-width="0"/><path d="M36.5907,112.9524l.055.0346c-2.1231-1.3264-2.7448-4.1627-1.3884-6.3335h0c1.3561-2.1707,4.178-2.8556,6.3009-1.5293h0c2.1231,1.3266,2.745,4.1627,1.3886,6.3338h0c-1.3563,2.1707-4.1779,2.8556-6.3011,1.529l-.055-.0346h0ZM36.7546,112.3186c.6332.5014,1.341.6307,2.124.388.7078-.2202,1.33-.6383,1.866-1.2549.5907-.6775,1.0403-1.4386,1.349-2.2824.2126-.5831.2872-1.1699.2237-1.7598-.1092-1.0083-.6438-1.6778-1.6044-2.0092-.419-.1437-.8201-.1641-1.2036-.0612-.7762.2081-1.44.6313-1.9922,1.2696-.6217.7178-1.0775,1.4545-1.3672,2.2099-.2072.5378-.2976,1.1174-.271,1.7394.0309.7364.3229,1.3235.8757,1.7606Z" fill="#bc1c22" fill-rule="evenodd" stroke-width="0"/><path d="M88.715,114.0828c.053.0514.0769.0403.0717-.0328l-.4821-6.2082c-.0031-.0351.0124-.0697.0414-.0904.1712-.1196.3951-.2217.6721-.3056.0019-.0006.0036-.0011.0056-.0014.0247-.0043.0482.0127.0528.038.0002.0017.0005.0037.0005.0054l.6228,9.4994c.0048.0658-.0173.0763-.0658.0318l-7.0112-6.5418c-.0034-.0031-.0059-.0063-.0082-.0094-.0196-.0278-.0122-.0663.0159-.0861.0031-.0023.0065-.004.0102-.0057l1.3844-.6475c.0652-.0303.14-.0175.1896.0307l4.5003,4.3236Z" fill="#bc1c22" fill-rule="evenodd" stroke-width="0"/><path d="M45.2783,117.4977c-.7905-.6128-1.1534-1.3943-1.0893-2.3451.0249-.3713.1403-.828.3461-1.3694.667-1.7555,1.3343-3.4968,2.0013-5.2245.0175-.0479.0731-.0731.1235-.0547l1.3559.5111q-.0006-.0006-.0003-.0003c.0433.0159.0663.0629.0507.1054v.0006c-.5661,1.5177-1.1316,2.9931-1.6965,4.4266-.3064.7758-.4944,1.4434-.5638,2.0024-.0743.5981.0983,1.0686.5173,1.4113.2806.2282.6466.3935,1.0981.4958.652.1466,1.175-.0422,1.569-.5663.2784-.3705.5003-.7725.6659-1.2059.6604-1.7328,1.3249-3.4639,1.9933-5.1939.0125-.0329.0465-.0502.0768-.0394l.5916.2063c.0014.0003.0017.0006.002.0006.0473.0184.0703.0734.0513.123,0,.0003-.0003.0006-.0003.0009-.7155,1.9295-1.4406,3.8191-2.1756,5.6684-.1414.3555-.3784.7144-.7103,1.0766-.5726.627-1.2884.8935-2.1476.7997-.7662-.0831-1.4524-.3597-2.0591-.8292Z" fill="#bc1c22" fill-rule="evenodd" stroke-width="0"/><path d="M79.7782,111.1728l1.4023-.4181c.044-.013.0902.0119.1032.0555l2.4835,8.3305c.013.0437-.0119.0899-.0559.1029l-1.4026.4181c-.0436.0131-.0898-.0119-.1029-.0558l-2.4834-8.3302c-.013-.0437.0119-.0899.0558-.1029Z" fill="#bc1c22" fill-rule="evenodd" stroke-width="0"/><path d="M73.5106,114.2518c1.2092,1.2291,2.4284,2.4582,3.6575,3.6873.0652.0658.0913.0524.0782-.04l-.811-5.7982c-.0002-.0012-.0002-.0017-.0002-.002-.0077-.061.0362-.1165.0978-.1239.0005,0,.0011-.0003.0017-.0003l.6052-.0691c.032-.0032.0603.0187.0649.0493l1.2432,8.623v.0005c.0049.0341-.0158.0652-.0464.0695-.0003,0-.0006,0-.0009.0003l-.6868.0918c-.0369.0057-.0811-.011-.1165-.0456l-6.0699-6.0568c-.062-.0612-.087-.0488-.0748.0374l.9629,6.7856c.0003.0011.0003.0017.0006.0022.0031.0315-.0196.0599-.051.0635l-.6426.0805c-.0494.0052-.0933-.0289-.1001-.0768l-1.2161-8.5785c-.0065-.0413.0213-.0807.0621-.0873l1.2915-.1939c.0669-.011.1403.0117.1961.0624.5582.5264,1.0764,1.0327,1.5546,1.5191Z" fill="#bc1c22" fill-rule="evenodd" stroke-width="0"/><path d="M62.8789,121.2777c-.568-.422-.9031-.9861-1.0051-1.6925-.0485-.3359-.0601-.6721-.0352-1.0086.0204-.2852.0306-.4314.0306-.4391.0871-1.7781.1979-3.5552.3325-5.3311.0026-.0329.0298-.0575.0616-.0556l1.4779.0862c.0015,0,.0017.0003.002.0003.0482.0031.0842.0459.0808.0952v.0009c-.1165,1.857-.2268,3.674-.3314,5.4513-.034.5862.017,1.116.1534,1.5897.1307.4535.4326.7631.9054.9278.5899.2052,1.1106.2267,1.5622.0649.4538-.1627.7562-.4748.9073-.936.1242-.379.2007-.7674.2293-1.1654.1401-1.9105.2682-3.8216.3847-5.7336v-.0008c.0026-.0349.0292-.0616.0598-.0596.0003,0,.0006,0,.0006.0003l.6599.0544c.0312.0029.0541.0335.0521.0695-.1255,2.4026-.24,4.3384-.3435,5.8073-.0349.4879-.1653.976-.3915,1.4647-.2965.6398-.7378,1.0749-1.324,1.3056-.5089.2004-1.0883.2659-1.738.1965-.6233-.0675-1.2004-.2982-1.7314-.6923Z" fill="#bc1c22" fill-rule="evenodd" stroke-width="0"/></g></svg>