<svg width="762" height="846" viewBox="0 0 762 846" fill="none" xmlns="http://www.w3.org/2000/svg">
<path d="M492.487 688.943C492.487 685.161 489.427 682.094 485.647 682.094C481.867 682.094 478.797 685.161 478.797 688.943C478.797 692.725 481.867 695.792 485.647 695.792H485.657C489.437 695.792 492.487 692.733 492.487 688.958C492.487 688.954 492.487 688.948 492.487 688.943Z" fill="#21357F"/>
<path d="M280.109 688.942C280.142 685.16 277.103 682.066 273.322 682.032C269.541 681.999 266.448 685.038 266.414 688.821C266.381 692.605 269.42 695.698 273.201 695.731C273.242 695.731 273.281 695.731 273.322 695.731C277.059 695.707 280.085 692.68 280.109 688.942Z" fill="#21357F"/>
<path d="M103.831 468.572C160.811 484.593 218.093 482.512 275.601 471.513C313.458 464.257 349.504 450.739 386.666 440.918C454.913 422.813 523.913 413.097 594.653 421.561C610.213 423.184 625.613 426.156 640.663 430.448C643.233 431.217 646.333 433.555 648.203 428.938C646.593 426.147 645.193 423.463 643.533 420.867C560.073 284.079 476.666 147.293 393.302 10.5054C385.007 -3.07269 377.632 -3.19339 369.412 10.1735C278.637 157.652 187.899 305.132 97.195 452.61C89.985 464.347 90.0759 464.709 103.831 468.572ZM565.043 365.332C567.633 369.527 573.563 374.218 571.343 378.231C568.993 382.471 562.023 378.911 557.083 379.348C552.703 379.756 548.253 379.439 543.853 379.439C543.853 379.243 543.853 379.062 543.853 378.866C527.583 379.861 511.293 380.66 495.043 381.974C489.453 382.426 487.803 381.022 488.623 375.351C489.433 369.678 490.133 363.628 489.093 358.106C486.783 346.384 491.853 342.34 502.663 339.896C543.443 330.633 543.413 330.196 565.043 365.332ZM499.213 258.02L524.203 298.754C524.653 299.608 525.053 300.489 525.393 301.395C525.393 303.868 523.593 304.201 522.013 304.412C508.943 306.359 496.063 309.387 483.493 313.464C479.572 314.747 477.461 312.619 476.556 309.511C473.871 300.082 459.347 293.956 464.294 284.15C470.071 272.7 482.093 264.929 492.563 256.813C495.353 254.625 497.413 255.017 499.213 257.944V258.02ZM445.441 170.516C455.848 187.614 466.406 204.658 477.114 221.646C479.633 225.643 479.105 228.042 475.349 230.909C462.913 240.399 451.657 251.344 441.822 263.512C439.228 266.74 436.739 267.313 433.149 265.02C426.144 260.837 418.633 257.566 410.798 255.289C407.434 254.233 405.232 252.649 406.273 249.677C411.612 220.303 420.767 193.539 437.614 169.717C441.068 164.843 442.908 166.337 445.441 170.501V170.516ZM340.078 132.799C352.143 112.673 364.752 92.955 376.818 72.8743C380.513 66.7189 382.504 68.0315 385.626 73.1912C396.857 91.8083 408.259 110.314 419.832 128.711C422.622 133.147 422.381 136.254 419.183 140.448C396.259 170.199 383.167 204.115 378.16 241.138C377.225 248.032 375.46 252.03 367.904 251.306C367.568 251.315 367.235 251.36 366.909 251.442C344.587 254.64 344.557 254.64 337.227 233.263C331.466 216.486 327.424 199.347 327.228 181.485C326.926 164.355 331.374 147.478 340.078 132.723V132.799ZM399.924 292.72C430.797 302.36 451.097 330.105 450.946 364.518C450.946 365.514 450.75 368.561 450.479 371.608C449.499 382.501 445.441 388.476 432.772 390.376C401.552 395.069 370.936 403.457 341.073 413.474C332.295 416.401 327.951 413.112 323.186 407.168C303.422 382.495 301.944 347.848 319.536 321.581C336.909 295.116 369.669 283.311 399.924 292.614V292.72ZM257.548 264.929C271.122 243.461 284.455 221.857 297.878 200.297C301.754 223.259 307.259 244.789 317.062 265.171C319.008 269.2 315.961 270.527 313.744 272.534C307.968 277.753 301.995 282.823 296.596 288.435C293.579 291.634 291.046 292.78 287.019 290.245C277.834 284.482 268.483 278.976 259.162 273.393C255.467 271.009 255.225 268.505 257.548 264.824V264.929ZM207.204 346.022C216.555 331.467 225.684 316.763 234.593 301.908C237.263 297.471 239.555 297.88 243.507 300.398C252.405 305.981 261.605 311.231 270.866 316.059C275.255 318.337 276.763 320.45 275.058 325.473C272.629 332.168 270.964 339.117 270.096 346.188C269.433 353.218 266.356 355.42 259.795 355.405C253.763 355.405 247.624 356.235 240.189 356.809C231.305 355.889 221.185 354.892 211.065 353.791C205.967 353.263 203.675 351.513 207.204 346.022ZM153.662 432.197C163.33 416.974 172.801 401.632 182.243 386.258C184.219 383.029 186.225 381.309 190.448 382.26C215.08 387.79 240.502 388.859 265.511 385.413C270.685 384.72 271.982 387.63 272.977 391.584C275.423 401.877 279.738 411.634 285.706 420.37C290.08 426.615 287.637 428.094 281.71 429.527C250.107 437.197 217.704 441.086 185.184 441.114C179.558 440.691 168.382 439.786 157.191 439.061C151.943 438.715 150.555 437.086 153.662 432.197Z" fill="#21357F"/>
<path d="M758.451 610.413C751.141 598.133 743.491 586.033 736.581 573.541C732.331 565.832 726.451 561.547 718.021 559.073C650.981 539.324 582.641 537.121 513.701 543.669C443.66 550.322 375.639 566.646 308.207 586.229C221.666 611.349 134.642 613.914 47.4069 588.899C37.8439 586.153 27.3019 577.268 18.8409 582.533C11.0739 587.361 7.72488 599.128 2.05488 607.607C-1.74612 613.31 0.108874 616.086 5.94587 618.002C13.3809 620.431 20.6358 623.418 28.1008 625.697C123.27 654.633 218.83 653.607 313.998 626.873C390.465 605.389 467.128 585.988 546.871 581.869C606.831 578.852 665.911 582.955 722.781 604.032C733.931 608.15 744.671 613.371 755.601 618.062C757.991 619.089 760.641 621.08 761.941 616.554C760.791 614.547 759.661 612.451 758.451 610.413Z" fill="#21357F"/>
<path d="M658.582 623.553C648.812 622.346 639.082 620.792 629.402 618.891C623.362 617.714 619.942 619.993 616.742 624.805C589.592 665.887 553.592 697.66 511.172 722.16C469.376 746.299 427.131 769.684 385.233 793.657C380.587 796.297 377.299 795.452 373.167 793.068C351.328 780.607 329.308 768.432 307.409 756.046C268.376 733.958 228.227 713.591 194.021 683.886C192.237 682.325 189.991 681.393 187.626 681.23C169.392 681.019 151.158 681.109 131.008 681.109C148.367 701.929 165.802 719.521 186.193 733.913C245.753 776.156 311.707 807.371 374.358 844.273C378.491 846.702 381.899 846.084 385.745 843.866C439.951 812.652 495.562 783.881 548.632 750.704C595.692 721.522 635.012 681.407 663.252 633.767C667.302 626.963 666.332 624.503 658.582 623.553Z" fill="#21357F"/>
<path d="M51.993 544.771C63.486 547.864 74.768 551.772 86.366 554.381C157.252 570.313 227.836 565.742 297.757 548.951C354.933 535.221 411.069 517.268 469.422 508.306C526.163 499.676 582.933 495.181 640.163 503.223C659.983 506.013 679.243 511.143 701.073 517.63C691.503 501.849 683.193 488.422 675.203 474.799C671.613 468.689 666.603 465.973 659.673 464.797C593.763 453.587 528.133 457.795 462.605 468.101C407.042 476.85 353.124 492.45 298.828 506.678C230.506 524.57 161.49 530.258 91.841 513.829C62.219 506.828 62.3399 506.874 47.8609 534.376C44.8289 540.125 45.689 543.082 51.993 544.771Z" fill="#21357F"/>
<path d="M50.827 460.06C54.537 458.914 55.518 455.368 57.207 452.637C67.221 436.434 76.904 420.02 87.13 403.937C91.125 397.634 93.143 390.276 92.921 382.815C92.74 299.43 92.921 216.046 92.575 132.661C92.575 122.583 94.671 119.219 105.379 119.4C144.502 120.079 183.806 117.363 222.703 120.41C252.475 122.749 271.268 113.637 281.524 86.0575C282.655 83.0402 286.893 80.4905 284.631 77.096C282.896 74.4859 278.915 75.7834 275.928 75.7834C204.801 75.7834 133.684 75.7834 62.576 75.7834C49.213 75.7834 49.168 75.8891 49.168 89.6331C49.168 209.433 49.168 329.238 49.168 449.047C49.183 452.607 47.916 456.499 50.827 460.06Z" fill="#21357F"/>
<path d="M492.12 109.68C496.14 117.224 501.45 119.925 510.07 119.849C558.06 119.456 606.05 119.985 654.02 119.411C664.45 119.29 667.13 122.262 667.09 132.568C666.66 216.299 666.84 300.03 666.86 383.793C666.86 388.183 665.92 392.845 668.37 396.828C681.1 418.055 694.01 439.162 706.92 460.313L709.53 459.499C709.71 456.225 710.02 452.951 710.02 449.677C710.02 329.506 710.02 209.339 710.02 89.1774C710.02 75.7955 710.02 75.7501 696.28 75.7501C632.94 75.7501 569.64 75.7501 506.4 75.7501C497.55 75.7501 488.69 75.9011 479.856 75.6747C473.823 75.5088 472.39 77.2589 475.784 82.6147C481.45 91.5159 487.13 100.402 492.12 109.68Z" fill="#21357F"/>
<path d="M308.643 700.892L304.315 705.78C303.396 706.719 302.906 707.996 302.957 709.31C302.957 712.327 304.662 713.927 308.1 713.927H331.448C333.837 714.224 336.014 712.526 336.31 710.138C336.345 709.863 336.352 709.586 336.334 709.31C336.153 706.413 334.343 704.875 330.905 704.694H318.417C319.141 703.789 320.589 702.069 322.76 699.534C330.905 690.3 334.977 683.154 334.977 678.096C334.434 669.225 329.276 664.427 319.503 663.703C309.548 664.97 304.123 670.22 303.229 679.453C303.229 682.697 304.933 684.327 308.372 684.327C310.382 684.508 311.921 682.883 312.987 679.453C314.254 675.29 316.335 673.207 319.231 673.207C322.127 673.569 323.756 675.38 324.118 678.639C324.042 681.016 323.183 683.302 321.674 685.141C317.78 690.747 313.421 696.017 308.643 700.892Z" fill="#21357F"/>
<path d="M377.587 689.215C376.843 672.75 370.69 664.246 359.126 663.703C347.543 664.246 341.48 672.75 340.938 689.215C341.492 705.689 347.554 714.018 359.126 714.199C370.709 714.018 376.863 705.689 377.587 689.215ZM351.797 689.215C351.616 678.553 354.059 673.127 359.126 672.936C364.153 673.117 366.667 678.544 366.667 689.215C366.667 699.885 364.153 705.226 359.126 705.237C354.059 705.237 351.6 699.896 351.751 689.215H351.797Z" fill="#21357F"/>
<path d="M398.744 714.199C410.327 714.018 416.481 705.689 417.205 689.215C416.461 672.75 410.308 664.246 398.744 663.703C387.161 664.246 381.098 672.75 380.555 689.215C381.118 705.689 387.181 714.018 398.744 714.199ZM398.744 672.936C403.771 673.117 406.285 678.544 406.285 689.215C406.285 699.885 403.771 705.226 398.744 705.237C393.717 705.237 391.274 699.896 391.414 689.215C391.233 678.553 393.677 673.127 398.744 672.936Z" fill="#21357F"/>
<path d="M446.512 671.593C447.221 670.724 447.689 669.682 447.87 668.575C447.389 666.102 445.455 664.169 442.983 663.688C442.25 663.689 441.522 663.78 440.811 663.959C440.054 664.553 439.329 665.188 438.639 665.859C427.418 677.447 421.541 688.033 421.008 697.617C421.722 708.298 427.509 713.831 438.368 714.213C449.046 713.67 454.928 708.137 456.014 697.617C455.109 688.022 450.222 682.771 441.354 681.867C439.869 681.874 438.397 682.149 437.011 682.681C437.915 681.425 439.926 679.075 443.043 675.636L446.512 671.593ZM438.368 690.316C442.531 690.677 444.793 693.122 445.155 697.647C444.793 702.173 442.531 704.527 438.368 704.708C434.205 704.527 432.033 702.173 431.852 697.647C432.033 693.111 434.205 690.662 438.368 690.3V690.316Z" fill="#21357F"/>
</svg>
