<?xml version="1.0" encoding="UTF-8"?><svg id="b" xmlns="http://www.w3.org/2000/svg" viewBox="0 0 47.925 48"><g id="c"><path d="M23.9625,0c13.2419,0,23.9625,10.7374,23.9625,24s-10.7307,24-23.9625,24S0,37.2525,0,24,10.7307,0,23.9625,0ZM23.9625,1.4444c12.435,0,22.5102,10.091,22.5102,22.5455s-10.0752,22.5455-22.5102,22.5455S1.4523,36.4444,1.4523,23.9899,11.5375,1.4444,23.9625,1.4444h0Z" fill="#006eaf" fill-rule="evenodd" stroke-width="0"/><path d="M23.9625,2.12c12.0619,0,21.8446,9.798,21.8446,21.8788s-9.7827,21.8788-21.8446,21.8788S2.1179,36.0796,2.1179,23.9988,11.9006,2.12,23.9625,2.12ZM23.9625,2.3826c11.9106,0,21.5723,9.6768,21.5723,21.6061s-9.6617,21.606-21.5723,21.606S2.3902,35.918,2.3902,23.9887,12.0518,2.3826,23.9625,2.3826Z" fill="#006eaf" fill-rule="evenodd" stroke-width="0"/><path d="M13.4234,30.1499c.3928.9657.9998,1.8292,1.775,2.5252.2522.2253.5183.4345.7967.6263.2755-.2346.5689-.4474.8774-.6364.9688-.5744,2.0824-.8569,3.2074-.8139,1.125.043,2.2138.4097,3.1362,1.0564.2757.1902.5323.4067.7664.6465.9157-.9077,2.1046-1.4877,3.3827-1.6502,1.2781-.1625,2.574.1015,3.6871.7512h0c.3106.182.6042.3916.8774.6263.2784-.1918.5445-.401.7967-.6263.757-.6914,1.3498-1.544,1.7347-2.4949h-1.0892c-.3515.713-.8418,1.3484-1.4422,1.8687-1.1691-.7904-2.5537-1.1991-3.9639-1.1702-1.4102.0289-2.7769.4941-3.9127,1.3318h-.0101c-.0201.0202-.0403.0303-.0605.0505l-.0302-.0202c-1.1433-.8551-2.5246-1.3313-3.9512-1.3621-1.4265-.0308-2.8271.3854-4.0061,1.1904-.6184-.5225-1.1201-1.1695-1.4724-1.899h-1.0993Z" fill="#006eaf" fill-rule="evenodd" stroke-width="0"/><path d="M18.4055,23.9399v.2121h12.3746v-.2121h-12.3746Z" fill="#006eaf" stroke-width="0"/><path d="M16.9835,22.8854H4.135c-.0101.2424-.0202.4747-.0303.7172h6.8176v1h-6.8075c-.0017.0776.0017.1552.0101.2323h9.0364v.9696H4.1854l.0303.3031h8.9456v1.1717H4.377c.0202.101.0303.202.0504.303h8.7338v1.798H4.8409c.0706.2626.1513.5253.232.7778h37.7691c.0807-.2626.1614-.5152.232-.7778h-8.5019v-1.798h8.9154c.0202-.101.0403-.202.0504-.303h-8.9758v-1.1717h9.1271l.0302-.3031h-9.1573v-.9696h9.2179c0-.0808.01-.1515.01-.2323h-6.8075v-1h6.8176c0-.2424-.0101-.4748-.0302-.7172h-11.7392v-7.5455h-.5144v1.3636h-.3933v-1.3636h-2.0977v1.3636h-.4942v1.798h.4942v4.3838h-12.0418ZM29.5598,22.8854v-4.3838h1.069v4.3838h-1.069ZM31.1432,22.8854v-4.3838h.3933v4.3838h-.3933ZM30.6288,16.7036h-1.069v-.7071h1.069v.7071ZM20.3722,23.6026h1.2707v1h-1.2707v-1ZM22.1572,24.6026v-1h1.2708v1h-1.2708ZM23.9524,24.6026v-1h1.2203v1h-1.2203ZM25.6871,24.6026v-1h1.3514v1h-1.3514ZM27.5528,24.6026v-1h1.4926v1h-1.4926ZM29.5598,24.6026v-1h1.069v1h-1.069ZM31.1432,24.6026v-1h.4135v1h-.4135ZM18.577,23.6026h1.2707v1h-1.2707v-1ZM27.5528,24.8248h1.4926v.9697h-1.4926v-.9697ZM29.5598,25.7945v-.9697h1.069v.9697h-1.069ZM31.1432,25.7945v-.9697h.4135v.9697h-.4135ZM23.9524,25.7945v-.9697h1.2203v.9697h-1.2203ZM25.6871,25.7945v-.9697h1.3514v.9697h-1.3514ZM31.1432,27.2693v-1.1717h.4135v1.1717h-.4135ZM16.9835,23.6026h1.0892v1h-1.0892v-1ZM20.3722,24.8248h1.2707v.9697h-1.2707v-.9697ZM22.1572,25.7945v-.9697h1.2708v.9697h-1.2708ZM23.9524,26.0976h1.2203v1.1717h-1.2203v-1.1717ZM25.6871,27.2693v-1.1717h1.3514v1.1717h-1.3514ZM27.5528,27.2693v-1.1717h1.4926v1.1717h-1.4926ZM29.5598,29.3703v-1.798h1.069v1.798h-1.069ZM31.1432,29.3703v-1.798h.4135v1.798h-.4135ZM22.1572,26.0976h1.2708v1.1717h-1.2708v-1.1717ZM25.6871,27.5723h1.3514v1.798h-1.3514v-1.798ZM27.5528,29.3703v-1.798h1.4926v1.798h-1.4926ZM18.577,24.8248h1.2707v.9697h-1.2707v-.9697ZM20.3722,26.0976h1.2707v1.1717h-1.2707v-1.1717ZM23.9524,29.3703v-1.798h1.2203v1.798h-1.2203ZM22.1572,29.3703v-1.798h1.2708v1.798h-1.2708ZM18.577,26.0976h1.2707v1.1717h-1.2707v-1.1717ZM20.3722,27.5723h1.2707v1.798h-1.2707v-1.798ZM16.9835,24.8248h1.0892v.9697h-1.0892v-.9697ZM18.577,27.5723h1.2707v1.798h-1.2707v-1.798ZM16.9835,26.0976h1.0892v1.1717h-1.0892v-1.1717ZM16.9835,27.5723h1.0892v1.798h-1.0892v-1.798ZM16.4591,27.5723v1.798h-1.3918v-1.798h1.3918ZM16.4591,26.0976v1.1717h-1.3918v-1.1717h1.3918ZM16.4591,24.8248v.9697h-1.3918v-.9697h1.3918ZM16.4591,23.6026v1h-1.3918v-1h1.3918Z" fill="#006eaf" fill-rule="evenodd" stroke-width="0"/><path d="M23.9624,39.0388c-2.8986.0012-5.7357-.8374-8.1694-2.4146-2.4336-1.5771-4.3598-3.8256-5.5465-6.4743h-.6051c1.2042,2.8038,3.2025,5.1927,5.7477,6.8712,2.5452,1.6785,5.5259,2.5731,8.5733,2.5731s6.0281-.8946,8.5733-2.5731c2.5453-1.6785,4.5435-4.0674,5.7477-6.8712h-.6051c-1.1867,2.6487-3.1129,4.8972-5.5465,6.4743s-5.2707,2.4157-8.1694,2.4146Z" fill="#006eaf" fill-rule="evenodd" stroke-width="0"/><path d="M7.7959,32.7902l-1.3918-.1717.353.6869-.1412.0707-.4639-.9192.0504-.0303,1.3817.1717-.3328-.6364.1412-.0707.4438.8788-.0403.0202ZM7.1706,34.3256l-.0807-.1515.4841-.2828c.1715-.101.2219-.2121.1513-.3333-.0191-.0306-.0441-.0571-.0735-.0779-.0294-.0208-.0627-.0355-.0979-.0433-.0764-.0113-.1544.0029-.2219.0404l-.474.2727-.0908-.1515,1.2506-.7172.0908.1515-.5446.3131c.0642-.0039.1281.0113.1837.0437.0556.0323.1005.0804.1289.1382.1109.1919.0504.3535-.1815.4848l-.5244.3131ZM8.159,35.0326l-.3631-.5758c-.0783.0434-.1363.116-.1614.202-.0088.0401-.0088.0816-.0001.1217.0087.0401.026.0778.0506.1106.0573.0931.1472.1615.2521.1919l-.1311.0808c-.1102-.0519-.2018-.1365-.2622-.2424-.0383-.0494-.0639-.1075-.0744-.1692-.0106-.0617-.0058-.125.0139-.1844.0429-.1292.133-.2375.2521-.303.1115-.0782.2486-.1107.3832-.0909.0606.006.1188.0265.1698.06.0509.0334.093.0787.1227.132.0331.0442.0557.0954.0661.1496.0105.0542.0086.1101-.0056.1635-.0435.1151-.1255.2115-.232.2727l-.0807.0808h0ZM8.1791,34.8104c.0628-.0377.1122-.0942.1412-.1616.0097-.0305.012-.0629.0068-.0946-.0053-.0316-.018-.0615-.037-.0872-.0375-.0564-.0953-.0962-.1614-.1111-.0753-.0144-.1532-.0037-.2219.0303l.2723.4242ZM8.4514,36.164l-.1109-.1313.4337-.3434c.1614-.1212.1916-.2424.1009-.3636-.0212-.0281-.0487-.0509-.0802-.0667-.0315-.0158-.0662-.0241-.1014-.0242-.0763.0001-.1506.0249-.2118.0707l-.4337.3434-.1109-.1313.7665-.6061.1109.1313-.1311.101c.0646-.0106.1309-.003.1915.022.0606.025.113.0663.1514.1194.0317.033.0547.0733.067.1174s.0135.0905.0035.1352c-.0295.1027-.0937.1919-.1815.2525l-.4639.3737h0ZM9.2885,37.0124c-.2723.2323-.5244.2222-.7564-.0404-.0752-.0787-.1275-.1765-.1513-.2828l.121-.1111c.0199.1086.0687.2098.1412.2929.1513.1818.3227.1919.5143.0202l.0807-.0707c-.0652.0125-.1326.0069-.1948-.0163-.0622-.0231-.1169-.0629-.1582-.1151-.0382-.0396-.0664-.0877-.0822-.1405-.0158-.0527-.0187-.1085-.0086-.1626.0266-.1231.0942-.2335.1916-.3131.1016-.0975.233-.158.3731-.1717.0617-.0007.1228.0126.1786.0388.0559.0262.1051.0647.1441.1127.04.0423.0678.0948.0802.1518s.0091.1163-.0096.1715h0l.1009-.0909.1109.1313-.6757.596h0ZM9.5507,36.5579c.0559-.0452.0921-.1104.1008-.1818.0056-.0345.0031-.0698-.0074-.1032-.0105-.0333-.0287-.0637-.0531-.0887-.0266-.0329-.0605-.0592-.099-.0768-.0385-.0175-.0806-.0258-.1228-.0243-.0993.0142-.1913.0603-.2622.1313-.0697.0569-.1193.1348-.1412.2222-.0106.0375-.0105.0772.0002.1147.0107.0375.0316.0712.0603.0975.0246.0294.0555.0528.0905.0686s.0729.0234.1112.0223c.0858-.0012.1681-.0335.232-.0909l.0908-.0909h0ZM9.944,37.8407l-.5547-.5859.0403-.0404.948-.1212-.353-.3737.1009-.101.5244.5555-.0403.0404-.948.1313.3832.404-.1008.0909h0ZM10.7105,38.5983l-.121-.1212.3832-.404c.1311-.1414.1513-.2626.0403-.3636-.0257-.0238-.0559-.0424-.0888-.0545-.0329-.0121-.0678-.0177-.1028-.0162-.0765.0104-.1474.046-.2017.101l-.3832.404-.121-.1212.9984-1.0404.121.1212-.4337.4545c.0612-.0214.1274-.0242.1902-.008.0628.0162.1194.0506.1628.0989.1614.1515.1513.3232-.0403.5152l-.4034.4343h0ZM11.245,38.4266c.042-.0559.095-.1027.1557-.1374.0607-.0347.1278-.0567.1973-.0646.0664-.0053.1331.0037.1957.0263.0626.0227.1197.0584.1674.105.0512.0373.0933.0858.123.1418.0297.056.0463.1181.0484.1814-.0056.1354-.0593.2643-.1513.3636-.0405.0543-.0919.0995-.151.1326-.0591.0331-.1245.0533-.1919.0593-.0664.0053-.1331-.0037-.1957-.0263-.0626-.0227-.1197-.0585-.1673-.105-.0523-.0385-.095-.0887-.1248-.1465-.0297-.0578-.0457-.1218-.0466-.1868.0037-.1279.0539-.25.1412-.3434h0ZM11.3862,38.5377c-.0654.0685-.1047.1579-.1109.2525.0003.0431.0105.0855.0297.124.0192.0385.047.0721.0812.0982.0309.029.0675.0511.1074.065.04.0139.0824.0193.1245.0158.0928-.0215.1749-.0752.232-.1515.0702-.0663.1133-.1562.121-.2525-.0002-.0431-.0104-.0855-.0296-.1241-.0192-.0385-.0471-.0721-.0813-.0982-.0316-.0306-.0701-.053-.1123-.0654-.0422-.0123-.0867-.0142-.1298-.0054-.0919.0174-.1743.0677-.232.1414h0ZM12.546,40.0831l-.1412-.101.0908-.1212c-.0535.0304-.1149.0439-.1762.0385-.0613-.0054-.1194-.0294-.1667-.0688-.1916-.1313-.2017-.3131-.0403-.5354l.3328-.4747.1412.101-.3227.4545c-.1109.1616-.1109.2828.0101.3737.0286.0212.0615.0358.0963.0428.0349.007.0709.0062.1054-.0024.0741-.021.1384-.0675.1815-.1313l.3227-.4545.1412.101-.5749.7778h0ZM14.3715,40.6084c-.2118.3232-.4639.3939-.7564.202s-.3227-.4242-.121-.7475l.4437-.697.1513.0909-.4437.697c-.1513.2323-.121.404.0706.5354.1916.1313.353.0707.4942-.1515l.4538-.7071.1513.0909-.4438.6869h0ZM15.1279,41.6387l-.1513-.0808.2521-.495c.0908-.1818.0706-.303-.0605-.3636-.0308-.0165-.0648-.026-.0997-.0278-.0349-.0017-.0697.0043-.102.0177-.0721.0317-.1297.0894-.1614.1616l-.2521.495-.1513-.0808.4438-.8687.1513.0808-.0706.1414c.0542-.0378.1178-.0597.1837-.0633.0659-.0036.1315.0113.1894.0431.0409.02.0773.0483.1068.0831.0295.0348.0515.0752.0647.1189.0176.105-.0039.2129-.0605.303l-.2824.5353h0ZM15.9649,40.5882c.0043-.0143.0121-.0273.0227-.0379.0106-.0106.0236-.0184.0378-.0227.0259-.0101.0547-.0101.0807,0,.0143.0043.0273.0121.0378.0227.0105.0106.0183.0236.0226.0379.0101.026.0101.0548,0,.0808-.0043.0143-.0121.0273-.0226.0379-.0106.0106-.0236.0184-.0378.0227-.0259.0101-.0547.0101-.0807,0-.0143-.0043-.0273-.0121-.0378-.0227-.0106-.0106-.0183-.0236-.0227-.0379-.0101-.026-.0101-.0548,0-.0808h0ZM15.4405,41.8003l.4034-.8889.1614.0707-.4034.8889-.1614-.0707ZM17.044,41.4468l-.7564.7272-.1613-.0707.0706-1.0404.1714.0808-.0706.7374c-.0019.0485-.0121.0964-.0302.1414.0244-.0387.0514-.0758.0807-.1111l.5143-.5353.1815.0707h0ZM17.75,42.2852l-.6354-.2526c-.0188.0392-.0295.0818-.0312.1252-.0017.0435.0055.0868.0211.1274.0169.0384.0419.0727.0732.1006.0313.0279.0683.0487.1084.061.1035.0387.2169.0422.3227.0101l-.0605.1414c-.1191.0202-.2415.0062-.353-.0404-.0588-.0186-.1128-.05-.1581-.0919-.0453-.0419-.0809-.0933-.1041-.1505-.0392-.1306-.0284-.271.0303-.394.02-.0633.0527-.122.0961-.1723.0433-.0503.0964-.0914.156-.1206.0541-.0281.1135-.0444.1743-.0479.0609-.0035.1217.0059.1787.0276.0522.0183.0999.0477.1399.086.0401.0383.0714.0847.092.1362.0195.0596.0268.1224.0216.1849-.0052.0624-.0228.1232-.0518.1787l-.0202.091h0ZM17.6491,42.0932c.0308-.0663.0379-.1411.0202-.2121-.0104-.0304-.0276-.0581-.0503-.0809-.0228-.0227-.0504-.04-.0808-.0504-.0627-.0219-.1315-.0183-.1916.0101-.0675.0336-.1236.0863-.1614.1515l.4639.1818h0ZM18.6173,42.1639c-.0254-.0335-.0607-.0582-.1008-.0707-.0328-.0101-.0675-.0117-.1011-.0046-.0335.007-.0647.0226-.0905.045-.0682.0542-.1175.1284-.1412.2122l-.1614.4646-.1614-.0505.3127-.9192.1613.0505-.0605.1919c.0297-.0537.0772-.0953.1344-.1174.0571-.0222.1202-.0235.1783-.0038.0288.0093.056.0229.0807.0404l-.0505.1616h0ZM18.5972,42.77c.0639.0778.1475.1371.242.1717.1311.0404.2017.0101.232-.0707.0045-.0173.0051-.0353.0016-.0528s-.011-.034-.0218-.0482c-.0416-.0531-.0929-.0976-.1513-.1313-.0705-.0464-.1292-.1087-.1714-.1818-.0203-.052-.0203-.1097,0-.1617.0107-.0396.0311-.0761.0592-.106.0282-.03.0632-.0525.1021-.0657.0917-.0303.1907-.0303.2824,0,.0759.0213.1475.0555.2118.101l-.0504.1617c-.0596-.0645-.1368-.1101-.2219-.1314-.0458-.0151-.0953-.0151-.1412,0-.0403.0102-.0605.0405-.0807.0809-.006.0165-.0083.0341-.0065.0516.0017.0175.0074.0344.0166.0494.0383.0496.0863.0909.1412.1212.0704.0498.1318.1112.1815.1818.0237.0542.0273.1151.0101.1717-.0091.0405-.0289.0777-.0573.1079s-.0643.0522-.104.0638c-.0952.0305-.1974.0305-.2925,0-.0904-.0228-.1736-.0679-.2421-.1313l.0606-.1818h0ZM19.7469,41.9215c.0071-.0292.0252-.0545.0504-.0707.0113-.0089.0247-.0145.0389-.0163.0143-.0018.0287.0004.0418.0062.0291.0072.0544.0252.0706.0505.0092.0111.015.0246.0168.0389.0018.0144-.0006.0289-.0067.0419-.0072.0292-.0252.0545-.0505.0707-.0247.0132-.0534.0168-.0806.0101-.0292-.0071-.0544-.0252-.0706-.0505-.0092-.0111-.0151-.0246-.0168-.0389-.0018-.0143.0005-.0289.0067-.0419ZM19.4645,43.2144l.2219-.9495.1714.0405-.2219.9494-.1714-.0404ZM20.4528,43.4064c-.0499.0102-.1013.0102-.1512,0-.1715-.0303-.2421-.1415-.2118-.3334l.1008-.5555-.1613-.0303.0201-.1414.1614.0303.0403-.2324.1816-.0202-.0505.2829.2421.0404-.0202.1414-.242-.0404-.0908.5252c-.0132.0469-.0096.0969.0101.1414.0117.0166.0266.0306.044.041.0174.0105.0367.0171.0568.0196.0339.0073.0692.0038.1009-.01l-.0303.1414ZM21.6126,42.5983l-.5849,1.0606c-.1109.1919-.232.2828-.3832.2626-.0384-.004-.0759-.0142-.111-.0303l.0202-.1515c.0265.019.0582.0296.0908.0303.0395.0036.0791-.0051.1134-.025.0343-.0199.0616-.05.0782-.0861l.1008-.1616-.2521-1.0101.1916.0202.1614.7576.0101.0808c.0119-.0228.022-.0464.0302-.0708l.353-.6969.1815.0202h0ZM22.1068,42.972c.0059-.1937.0853-.3779.2219-.5151.0665-.06.1449-.1054.23-.1332.0851-.0279.1751-.0375.2642-.0285.0855.0029.1695.0243.2461.0626.0766.0384.144.0928.1976.1597.109.1481.156.3329.1311.5151-.0059.1937-.0852.3779-.2219.5152-.065.0592-.1416.1041-.225.132-.0833.0278-.1716.0379-.259.0296-.0871-.0028-.1725-.0241-.2507-.0624-.0783-.0383-.1475-.0928-.2032-.1598-.1018-.1514-.1481-.3335-.1311-.5152h0ZM22.2984,42.972c-.0176.1426.0184.2866.1009.4041.0367.0494.0836.0904.1376.12.0539.0296.1136.0473.175.0517.0642.0072.1291.0001.1901-.0209.0611-.0209.1167-.0552.1629-.1003.0976-.1079.1516-.2484.1513-.394.0168-.1443-.0151-.2901-.0908-.4141-.037-.0515-.0854-.0937-.1414-.1235-.0559-.0298-.118-.0463-.1813-.0482-.0641-.0064-.1288.0011-.1897.022s-.1166.0547-.1633.0992c-.0928.1147-.1458.2565-.1513.404h0ZM24.1844,42.4367c-.0302-.0192-.0651-.0297-.1009-.0303-.1109,0-.1613.0606-.1714.202v.1414l.2319.0101v.1414l-.2319-.0101-.0202.8283h-.1714l.0201-.8283h-.1714v-.1414h.1714v-.1515c-.0024-.0454.0054-.0908.0229-.1327.0174-.042.0441-.0795.078-.1097.0298-.0305.0663-.0537.1065-.0677.0402-.014.0832-.0185.1254-.0131.0412,0,.0821.0068.1211.0201l-.0101.1415h0ZM24.6987,43.4771c.052.0368.11.0641.1715.0808.0659.0162.1338.023.2017.0202.1916-.0101.2824-.0909.2723-.2222-.0027-.0371-.0168-.0724-.0404-.1011-.0234-.0312-.0548-.0556-.0907-.0707-.0404-.0202-.111-.0505-.2118-.0909-.1056-.0357-.202-.0943-.2824-.1717-.0469-.0535-.0752-.1209-.0807-.1919-.0047-.0525.0028-.1055.0221-.1546.0193-.049.0497-.093.0888-.1282.0932-.0786.2111-.1216.3329-.1212.1018-.0135.2054-.0032.3025.0303l.0101.1919c-.0956-.0518-.2047-.073-.3126-.0606-.0724.005-.1421.0294-.2017.0707-.0231.0177-.0415.0408-.0538.0671-.0123.0264-.018.0553-.0168.0844.0033.0497.0248.0965.0605.1313.0762.0488.1573.0894.242.1212.1091.0347.209.0934.2925.1717.057.057.0927.1319.1008.2122.0067.0526,0,.1061-.0194.1555-.0194.0495-.0509.0932-.0915.1273-.1014.0776-.2253.1202-.353.1212-.064.0012-.128-.0022-.1916-.0101-.0558-.0036-.1105-.0173-.1614-.0404l.0101-.2222h0ZM26.5241,43.5175c-.0763.0575-.1671.0924-.2622.101-.0619.0122-.1257.0104-.1868-.0053-.0611-.0157-.1179-.045-.1662-.0856-.049-.0416-.0894-.0924-.1189-.1496-.0294-.0572-.0472-.1196-.0525-.1838-.0121-.07-.0104-.1417.0052-.211.0156-.0694.0447-.1349.0856-.193.0413-.0558.0943-.1019.1553-.1351.0609-.0331.1284-.0525.1976-.0568.0778-.0144.1579-.0074.232.0202l.0202.1717c-.0699-.0415-.1512-.0593-.232-.0505-.0443.0042-.0872.0181-.1256.0408-.0383.0227-.0712.0536-.0963.0905-.0516.0847-.073.1844-.0605.2828.0021.0481.0139.0953.0347.1387.0208.0434.0502.0822.0864.1139.0322.0292.0712.05.1134.0606.0422.0105.0864.0105.1286,0,.0841-.0118.162-.0509.2219-.1111l.0201.1616h0ZM26.6351,42.2144c-.0042-.0285.003-.0576.0202-.0808.0083-.0112.0188-.0207.031-.0276.0122-.007.0256-.0113.0395-.0128.0285-.0042.0576.0031.0807.0202.0113.0084.0207.019.0276.0311.007.0122.0113.0257.0128.0396.0042.0286-.0031.0576-.0202.0808-.0083.0113-.0189.0207-.0311.0277-.0121.0069-.0256.0113-.0395.0128-.0285.0042-.0575-.0031-.0807-.0202-.0192-.0198-.0331-.0441-.0403-.0708h0ZM26.8267,43.5175l-.121-.9697.1714-.0202.121.9697-.1714.0202ZM28.047,42.8609l-.6757.1212c.006.0439.0207.0862.0432.1244.0225.0381.0524.0714.0879.0978.0345.0251.0743.0417.1163.0487.042.0071.085.0042.1258-.0083.1077-.0193.2065-.0724.2823-.1515l.0303.1515c-.0912.08-.2031.1325-.3227.1516-.0606.0124-.123.0125-.1837.0004-.0606-.0122-.1182-.0363-.1693-.0711-.0992-.0894-.1635-.2111-.1815-.3435-.0164-.0647-.0195-.1321-.0091-.1981.0104-.066.0341-.1292.0696-.1857.0301-.0538.0721-.1.1228-.135.0507-.035.1087-.058.1696-.067.0541-.0125.1103-.0127.1644-.0004.0541.0122.1048.0365.1483.0711.0925.0835.1502.1989.1613.3232l.0202.0707h0ZM27.8554,42.7599c-.0101-.0739-.0458-.1418-.1009-.1919-.0256-.0193-.0551-.0329-.0864-.0399s-.0637-.0071-.0951-.0005c-.0334.0054-.0652.0182-.0931.0374s-.0512.0444-.0683.0737c-.041.063-.0621.1369-.0605.2121l.5043-.0909h0ZM29.2068,43.0326l-.1714.0404-.1211-.5454c-.0403-.1919-.1412-.2728-.2823-.2424-.0339.0078-.0657.0227-.0935.0435-.0278.0209-.0509.0473-.0679.0777-.032.0695-.0391.148-.0202.2222l.121.5454-.1714.0404-.2219-.9495.1715-.0404.0403.1617c.0171-.0635.0517-.1209.0999-.1656.0481-.0446.1079-.0748.1724-.087.0441-.0118.0902-.0144.1354-.0074.0451.0069.0883.0232.1268.0478.0818.0696.1355.1665.1513.2728l.1311.5858h0ZM30.175,42.669c-.0603.0728-.1412.1256-.232.1515-.0586.022-.1211.0316-.1836.0281s-.1236-.0199-.1794-.0483c-.057-.0299-.1071-.0714-.147-.1218-.04-.0505-.0689-.1088-.085-.1711-.0261-.0662-.0386-.137-.0369-.2081.0017-.0712.0177-.1412.047-.2061.0307-.0615.0732-.1164.1252-.1615.0519-.045.1121-.0794.1773-.1011.0737-.0292.1534-.0396.232-.0303l.0504.1616c-.0778-.0303-.1642-.0303-.242,0-.0426.0128-.0818.0348-.1149.0645-.0332.0297-.0593.0663-.0767.1072-.0201.0462-.0305.0961-.0305.1465s.0104.1003.0305.1465c.0123.0466.0338.0903.0633.1284.0294.0382.0662.0701.1081.0938.0383.0215.081.0337.1249.0354.0438.0018.0874-.0069.1272-.0253.0794-.0318.149-.0841.2018-.1515l.0403.1616h0ZM31.0322,41.9417l-.6353.2525c.0316.083.0926.1513.1714.192.0778.0304.1642.0304.2421,0,.1021-.0415.1874-.1162.242-.2122l.0605.1415c-.0692.0989-.1681.1732-.2824.2121-.0554.025-.1156.038-.1765.038-.0608,0-.121-.013-.1765-.038-.0594-.0305-.1117-.0733-.1535-.1255-.0417-.0523-.0719-.1128-.0885-.1776-.0534-.1252-.0571-.2661-.0101-.3939.0203-.0568.0523-.1087.094-.1522.0418-.0435.0922-.0777.1481-.1003.0509-.0223.1058-.0337.1613-.0337.0556,0,.1105.0115.1614.0337.0539.03.1013.0705.1394.119.0381.0486.0661.1043.0825.1638l.0201.0808h0ZM30.8204,41.8811c-.0238-.07-.0698-.1303-.1311-.1717-.0297-.0149-.0625-.0227-.0958-.0227-.0332,0-.066.0078-.0958.0227-.0631.0278-.1134.0782-.1412.1414-.0286.0707-.0322.1492-.0101.2222l.474-.1919ZM32.8577,41.6286l-.1816.0808-.2824-.2828-.5143.2323.0303.3939-.1816.0808-.0908-1.4545.1715-.0808,1.0489,1.0303h0ZM32.2828,41.3155l-.4236-.4344c-.0101-.0101-.0302-.0404-.0605-.0808.0095.0296.0162.0601.0202.0909l.0504.6061.4135-.1818h0ZM33.7855,41.1033l-.1513.0808-.2723-.4848c-.1008-.1717-.2118-.2222-.3429-.1515-.0305.0167-.0571.0398-.078.0676-.0209.0279-.0356.0599-.043.094-.0113.0765.0028.1546.0403.2222l.2723.4849-.1512.0909-.4841-.8485.1513-.0909.0806.1414c-.0026-.0654.013-.1303.0451-.1874.032-.0571.0793-.1041.1365-.1359.0387-.0242.0823-.0395.1277-.0448.0453-.0052.0913-.0003.1345.0145.0974.0462.1758.1247.2219.2222l.3126.5253h0ZM34.8041,40.4872l-.1412.0909-.0908-.1414c.006.0673-.0081.1349-.0404.1942-.0323.0593-.0814.1077-.1411.1392-.0463.0326-.0995.0541-.1555.0628-.0559.0088-.1131.0045-.1672-.0123-.1221-.0409-.2234-.1279-.2824-.2424-.0418-.0558-.0722-.1193-.0896-.1869-.0173-.0676-.0211-.1379-.0113-.207.0086-.0599.0302-.1172.0633-.1678s.077-.0933.1284-.1251c.046-.0339.1003-.0546.1571-.06.0569-.0053.1141.0049.1656.0297h0l-.3227-.5051.1412-.0909.7866,1.2222h0ZM34.3402,40.0932c-.0171-.0323-.0415-.0601-.0713-.0811s-.0641-.0348-.1002-.0401c-.0345-.0086-.0705-.0094-.1053-.0024-.0349.007-.0678.0216-.0964.0428-.036.0211-.0666.0504-.0894.0855-.0228.0351-.037.075-.0417.1165-.0053.1006.0231.2002.0807.2828.0455.0788.1167.1395.2017.1717.0363.0152.0761.0204.1151.0151s.0759-.021.1068-.0454c.0339-.0201.0625-.048.0836-.0814.021-.0334.0338-.0712.0374-.1105.009-.0854-.0125-.1713-.0605-.2424l-.0605-.1111h0ZM35.4496,38.5579l-.3228.2323.6959.9899-.1412.101-.6959-.9899-.3227.2323-.0908-.1313.7867-.5556.0908.1212ZM36.5085,38.6488l-.5345.4242c.0549.0672.1287.1165.2118.1414.0414.0049.0834.0011.1233-.0111.04-.0122.0769-.0325.1086-.0596.0863-.0689.1468-.165.1715-.2727l.0908.1212c-.0406.1135-.1144.2121-.2118.2828-.0458.0417-.1005.0725-.1599.09-.0594.0175-.122.0213-.183.0111-.1327-.0283-.2488-.1083-.3228-.2222-.086-.1048-.1293-.2383-.121-.3737.0025-.0608.0182-.1204.0461-.1745.0278-.0541.0672-.1014.1153-.1387.0418-.0379.0917-.0658.1459-.0815.0541-.0157.1111-.019.1667-.0094.1188.0296.2227.1014.2925.202l.0605.0707h0ZM36.2866,38.6488c-.0388-.0616-.1005-.1052-.1714-.1212-.0321-.0061-.0652-.0047-.0967.004-.0314.0088-.0605.0247-.0848.0465-.0512.0434-.0837.1049-.0908.1717-.0076.0744.0102.1491.0504.2121l.3933-.3131ZM37.4565,38.3054c-.0256.0911-.0784.1721-.1513.2323-.0441.0463-.0974.0828-.1564.1071-.0591.0244-.1226.036-.1865.0343-.1327-.0152-.2556-.0775-.3463-.1758-.0907-.0983-.1431-.2258-.1478-.3596.0026-.0691.0192-.1369.0486-.1993.0295-.0625.0713-.1184.1228-.1643.0559-.0569.1253-.0986.2017-.1212l.121.1212c-.0831.008-.1612.0436-.2218.101-.0326.0313-.0584.069-.0757.1107-.0174.0417-.0259.0866-.0252.1318.0017.0497.0133.0985.0341.1435.0207.0451.0503.0856.0869.1191.0635.0701.1489.1164.2421.1313.0429.0026.0859-.0042.126-.0199.04-.0157.0762-.0399.1059-.071.0621-.0586.1014-.1374.111-.2222l.1109.101h0ZM38.2734,37.5579l-.121.1212-.4034-.3838c-.1412-.1313-.2622-.1515-.3631-.0404-.0238.0258-.0423.056-.0544.0889-.0121.0329-.0176.0679-.0162.103.0105.0766.0459.1477.1009.202l.4034.3838-.121.1212-1.0388-1,.121-.1212.4538.4343c-.0213-.0613-.0241-.1276-.008-.1905.0162-.0629.0506-.1196.0988-.163.1513-.1616.3227-.1515.5144.0404l.4336.404ZM39.0399,36.6892l-.1109.1313-.4236-.3636c-.1513-.1313-.2723-.1414-.3732-.0303-.0237.0254-.0415.0559-.052.0891-.0104.0332-.0133.0684-.0085.1028.0125.0753.0519.1436.111.1919l.4235.3636-.1109.1313-.7362-.6364.1109-.1313.121.101c-.0212-.0615-.0258-.1275-.0134-.1913.0124-.0638.0414-.1233.084-.1723.0289-.0369.0656-.0669.1074-.0879.0419-.021.0879-.0323.1347-.0333.1061.0109.2055.0571.2824.1313l.4538.404h0ZM38.8584,36.1842c-.0583-.0383-.1074-.0888-.144-.1482-.0366-.0593-.0598-.126-.0678-.1953-.0074-.1322.0336-.2626.1153-.3667.0817-.1041.1984-.1749.3284-.199.1354.0008.2665.047.3726.1312.106.0842.1808.2016.2124.3334.0091.065.0038.1313-.0153.1941-.0192.0628-.0518.1207-.0957.1695-.0381.0521-.0863.096-.1417.129-.0555.033-.1171.0544-.181.0629-.0681.0092-.1373.004-.2033-.0151-.066-.0191-.1273-.0518-.1799-.096h0ZM38.9592,36.0427c.0728.0636.1657.0994.2622.101.0442-.0001.0876-.0113.1263-.0324.0388-.0212.0716-.0517.0956-.0888.028-.031.0482-.0683.0587-.1087.0105-.0404.0112-.0828.0018-.1236-.0284-.0923-.0848-.1735-.1613-.2323-.0731-.0645-.1651-.1035-.2623-.1111-.0424.0014-.0839.0132-.1208.0343-.037.0211-.0682.0509-.0909.0869-.0282.0329-.0483.072-.0588.1141-.0105.0421-.0111.086-.0018.1284.0087.0468.0265.0914.0525.1313.0259.0399.0595.0742.0988.101h0ZM39.998,35.467l-1.18-.8384.1009-.1414,1.1799.8384-.1008.1414ZM39.877,34.8104c-.1222-.0715-.2124-.1872-.2522-.3232-.0218-.1306.0052-.2646.0759-.3765.0707-.1118.1802-.1936.3074-.2296.1345-.0166.2704.0157.3832.0909.1189.0682.206.1808.2421.3131.0154.0637.0171.13.0049.1945-.0122.0645-.0379.1256-.0755.1793-.0686.1103-.177.1899-.3026.2222-.0653.0155-.1331.0171-.199.005-.066-.0122-.1287-.038-.1842-.0757h0ZM39.9677,34.6589c.0794.0555.176.0806.2723.0707.0421-.0068.0822-.023.1171-.0475.0349-.0245.0639-.0566.0846-.0939.0256-.0342.0426-.0741.0496-.1163.0071-.0422.0039-.0854-.0092-.1261-.0374-.0908-.1051-.1658-.1916-.2121-.0794-.0563-.1752-.0847-.2723-.0808-.0428.0048-.0836.0203-.1189.045-.0352.0247-.0637.0579-.0828.0965-.0233.0353-.0389.0752-.0458.1169-.007.0418-.0051.0845.0054.1255.046.0878.1116.1638.1916.2222h0ZM41.3091,33.2145c.3126.1818.3832.4242.2118.7273-.0542.0938-.1262.1762-.2118.2424l-.1412-.0808c.0955-.0522.1756-.1289.2319-.2222.1211-.202.0706-.3737-.1512-.4949l-.0908-.0505c.0354.0582.0533.1253.0515.1934-.0018.0681-.0232.1342-.0616.1904-.0256.0503-.0627.0939-.1083.1273-.0455.0333-.0982.0555-.1539.0647-.1235.0162-.2487-.0125-.353-.0808-.1281-.0628-.2287-.1707-.2824-.303-.0206-.0581-.0277-.1202-.0208-.1815.007-.0613.0279-.1201.0612-.1721.0262-.0523.0666-.0961.1166-.1264.0499-.0304.1073-.0461.1658-.0453l-.111-.0707.0908-.1515.7564.4344h0ZM40.7947,33.1235c-.0293-.0197-.0625-.0326-.0974-.0379s-.0705-.0027-.1043.0076c-.0338.0079-.0656.0227-.0934.0436-.0278.0209-.0509.0473-.0679.0776-.0229.0357-.0367.0764-.0402.1187-.0035.0423.0033.0847.02.1237.0428.0939.118.1692.2118.2121.0751.0474.1637.0687.2521.0606.0392-.0038.0766-.018.1085-.041.0319-.0231.0571-.0542.073-.0903.0205-.0329.0329-.0701.0364-.1087.0035-.0386-.002-.0775-.0162-.1135-.0136-.0395-.0349-.0758-.0626-.107-.0277-.0312-.0612-.0566-.0987-.0748l-.1211-.0707ZM41.0267,31.77l.7967.9091c.1513.1717.1916.3232.121.4545-.0153.0333-.0357.0639-.0605.0909l-.1311-.0707c.0285-.0196.0498-.0479.0605-.0808.0178-.0365.0235-.0778.0162-.1177-.0073-.04-.0271-.0766-.0565-.1045l-.121-.1515-1.0388-.101.0908-.1717.7664.1111.0807.0202c-.0184-.0189-.0386-.0358-.0605-.0505l-.5345-.5758.0706-.1616h0Z" fill="#006eaf" stroke-width="0"/><path d="M20.5234,36.5405h-.2521v-1.596c-.0736.0666-.1549.1243-.242.1717-.0832.0518-.1709.0958-.2622.1313v-.2424c.1354-.0567.2587-.139.3631-.2424.0915-.075.167-.1678.2219-.2727h.1614l.0101,2.0505h0Z" fill="#006eaf" stroke-width="0"/><path d="M22.0362,36.0659l.242-.0202c.0105.0926.0534.1784.121.2424.0616.0533.1405.082.2219.0808.0704,0,.1397-.0173.2017-.0505.0588-.0337.1076-.0825.1412-.1414.0456-.0742.0764-.1565.0908-.2424.0233-.0995.0368-.201.0403-.303v-.0505c-.0516.0786-.1206.1443-.2017.1919-.0863.0481-.1837.0725-.2824.0707-.0795.0022-.1586-.0129-.2317-.0443-.0731-.0314-.1386-.0783-.1918-.1375-.06-.0649-.1062-.1413-.1357-.2247-.0295-.0834-.0416-.1719-.0358-.2601-.0081-.1857.0571-.3671.1815-.5051.0587-.0611.1292-.1097.2072-.1427.078-.033.1619-.0497.2466-.0492.1292.0011.2553.0397.3631.1111.112.074.1997.1794.2521.303.0654.1845.0928.3803.0807.5758.0049.2116-.0223.4228-.0807.6263-.0489.1394-.1363.262-.2521.3535-.1146.082-.2526.1245-.3933.1212-.143.008-.2837-.039-.3933-.1313-.0552-.0463-.1006-.1033-.1336-.1675-.0329-.0642-.0527-.1343-.0581-.2063h0ZM23.0548,35.1669c.0052-.1241-.0341-.2459-.1109-.3434-.0337-.0398-.0753-.0721-.1222-.0947-.0469-.0226-.0981-.0351-.1501-.0366-.0554-.001-.1103.0103-.1609.033-.0505.0227-.0955.0563-.1316.0983-.0828.0987-.126.2247-.121.3535-.0025.0577.0069.1154.0278.1693.0208.0539.0526.1029.0933.1439.0375.0396.083.0709.1333.0918.0504.0209.1046.0309.1591.0294.053.0015.1057-.0086.1545-.0295.0488-.0209.0924-.0522.1279-.0917.0706-.0925.1063-.207.1009-.3232Z" fill="#006eaf" stroke-width="0"/><path d="M24.7995,35.4301c-.0911-.0306-.1716-.0867-.232-.1616-.0503-.0743-.0751-.1629-.0706-.2525-.0024-.0704.0108-.1404.0387-.205.0279-.0646.0698-.1223.1226-.1687.1165-.1031.2682-.1574.4236-.1515.1587-.0076.3141.0467.4337.1515.0521.0471.0934.1048.1213.1693.0278.0645.0415.1342.0401.2045.0045.0865-.0204.1719-.0706.2424-.0563.0747-.1336.1309-.2219.1616.1137.0344.213.1054.2824.202.0648.0954.0999.2079.1009.3232.0016.0826-.0137.1646-.0449.241-.0312.0764-.0777.1457-.1366.2034-.1341.1172-.3061.1818-.4841.1818s-.35-.0646-.4841-.1818c-.0589-.0578-.1054-.127-.1366-.2034-.0312-.0764-.0465-.1584-.0449-.241-.0054-.1194.0302-.237.1009-.3333.0263-.0489.0637-.0909.1093-.1225.0456-.0316.098-.0519.1529-.0594h0ZM24.7491,35.0058c-.0022.043.0048.0859.0204.1259.0157.0401.0396.0763.0704.1064.0321.0308.07.0548.1117.0705.0416.0156.086.0226.1304.0205.0894.0024.1762-.0302.242-.0909.0297-.0287.0532-.0632.0688-.1015.0156-.0383.0231-.0794.022-.1207.0012-.0428-.0063-.0855-.0219-.1254-.0156-.0399-.039-.0763-.0689-.1069-.0321-.0308-.07-.0548-.1117-.0704-.0416-.0156-.086-.0226-.1304-.0205-.0894-.0024-.1762.0302-.242.0909-.0297.0287-.0532.0632-.0688.1015-.0156.0383-.0231.0794-.022.1207h0ZM24.6684,35.9452c.0023.0734.0195.1456.0504.2121.014.034.0346.0649.0605.0909.026.026.0568.0466.0908.0606.0648.0357.1379.0531.2118.0505.0537.0019.1072-.0069.1574-.026.0502-.0191.0961-.048.135-.0851.0382-.0382.0678-.084.0869-.1345.0191-.0505.0273-.1045.024-.1584.0014-.0561-.0086-.1119-.0294-.164-.0208-.0521-.052-.0994-.0916-.1391-.0396-.0397-.0869-.0709-.1389-.0917-.052-.0208-.1077-.0309-.1637-.0295-.0545-.0015-.1087.0085-.1591.0294-.0504.0209-.0958.0522-.1333.0918-.0687.0818-.1046.1861-.1009.2929h0Z" fill="#006eaf" stroke-width="0"/><path d="M27.2099,35.4301c-.0911-.0306-.1716-.0867-.232-.1616-.0503-.0743-.0751-.1629-.0706-.2525-.0024-.0704.0108-.1404.0387-.205.0279-.0646.0698-.1223.1226-.1687.1165-.1031.2682-.1574.4236-.1515.1587-.0076.3141.0467.4337.1515.0521.0471.0934.1048.1213.1693.0278.0645.0415.1342.0401.2045.0045.0865-.0204.1719-.0706.2424-.0563.0747-.1336.1309-.2219.1616.1137.0344.213.1054.2824.202.0648.0954.0999.2079.1008.3232.0016.0826-.0137.1646-.0449.241-.0312.0764-.0777.1457-.1366.2034-.1341.1172-.3061.1818-.4841.1818s-.35-.0646-.4841-.1818c-.0589-.0578-.1054-.127-.1366-.2034-.0312-.0764-.0465-.1584-.0449-.241-.0054-.1194.0302-.237.1009-.3333.0274-.048.0652-.0892.1106-.1206.0454-.0315.0972-.0524.1517-.0612h0ZM27.1595,35.0058c-.0022.043.0048.0859.0204.1259.0157.0401.0396.0763.0704.1064.0321.0308.07.0548.1117.0705.0416.0156.086.0226.1304.0205.0894.0024.1762-.0302.242-.0909.0297-.0287.0532-.0632.0688-.1015.0156-.0383.0231-.0794.022-.1207.0012-.0428-.0063-.0855-.0219-.1254-.0156-.0399-.039-.0763-.0689-.1069-.0321-.0308-.07-.0548-.1117-.0704-.0416-.0156-.086-.0226-.1304-.0205-.0894-.0024-.1762.0302-.242.0909-.0297.0287-.0532.0632-.0688.1015-.0156.0383-.0231.0794-.022.1207ZM27.0788,35.9452c.0023.0734.0195.1456.0504.2121.014.034.0346.0649.0605.0909.026.026.0568.0466.0908.0606.0648.0357.1379.0531.2118.0505.0537.0019.1072-.0069.1574-.026.0502-.0191.0961-.048.135-.0851.0382-.0382.0678-.084.0869-.1345.0191-.0505.0273-.1045.024-.1584.0014-.0561-.0086-.1119-.0294-.164-.0208-.0521-.0519-.0994-.0916-.1391-.0396-.0397-.0869-.0709-.1389-.0917-.052-.0208-.1077-.0309-.1637-.0295-.0539-.0019-.1076.0077-.1575.0281-.0499.0204-.095.0512-.1322.0904-.0372.0391-.0656.0857-.0835.1367-.0179.051-.0247.1052-.0201.159h0Z" fill="#006eaf" stroke-width="0"/><path d="M11.9611,9.9299s-.0202.2323-.121.202c-.1009-.0303-.3933-.0303-.2824.0909.1109.1212.6858.4848.9278.3333.242-.1515-.3126-.5253-.5244-.6263Z" fill="#006eaf" fill-rule="evenodd" stroke-width="0"/><path d="M12.2939,10.8104c.0029.0475.0162.0938.0388.1357.0227.0419.0541.0783.0923.1067-.0807.2727-.0403.5556.4236.6869.4639.1313.6959-.0808.5143-.7778-.1815-.697-.6354-1.0101-.5748-1.1818.0605-.1717.6656.2626.8673.5454.2118.0101.4841.0606.4438-.0505-.0403-.1111-.5547-.8485-.6959-1.0303-.1412-.1818.1916-.5051.5143-.1414.3227.3636,1.3615,1.596,1.5027,1.7374.1412.1414.595-.0303.3227-.3636-.2723-.3333-.9379-1.3737-1.3817-1.8586s-.6253-.6061-.6555-.7778c-.0303-.1717-.0202-.2727-.1412-.4242-.121-.1515-.4135-.6061-.7362-.4242-.3227.1818-.1311.6061.1109.7677.242.1616.4942.4747.474.5556-.0746.1522-.1623.2975-.2622.4343-.242-.3434-.5244-.6768-.6455-.7273-.121-.0505-.5749-.0404-.3126.2525.2622.2929.6152.6364.5345.7879-.0807.1515-.1614.3434-.2925.1919-.1311-.1515-.474-.6061-.8068-.6364-.3328-.0303-.7866.1616-.2521.3434.5345.1818.948.8182,1.18,1.0606.232.2424.4538.8687.4437,1.0202-.0101.1515-.2017.2828-.2824.0707-.0605-.1313-.3328-.4949-.4236-.303h0Z" fill="#006eaf" fill-rule="evenodd" stroke-width="0"/><path d="M21.4513,8.9102s.1311-.7677.0403-1.1919c-.0908-.4242-.3429-1.101-.232-1.4141.1109-.3131.1311-.3333.2824-.3232.1513.0101.0605-.3939-.121-.505-.0787-.0177-.1612-.0059-.2318.0332-.0706.0391-.1245.1028-.1514.179-.1513-.4646-.4841-1.1919-.5043-1.4343-.0202-.2424,0-.4848-.2723-.4242-.2723.0606-.5345.1515-.4437.4141.0908.2626.1614.0808.3126.0808.121.3737.5446,1.4444.5143,1.6162-.0303.1717-.2017.5354-.3328.3434-.0101-.2828-.0303-.3636-.1009-.4141-.0706-.0505-.2723-.0707-.1513-.3535.121-.2828.1714-.5758-.0807-.6162-.2521-.0404-.4034.1919-.4236.404-.0202.2121,0,.1717-.0605.202-.0605.0303-.0807.2626-.0807.3535-.121-.0202-.1109-.2626-.2824-.2626s-.1715-.0303-.1311-.1515c.1715-.0404.353-.2727.242-.4646-.1109-.1919-.353-.3535-.5547-.2929-.2017.0606-.4236.6667-.1009.7273.1916.0303.3328.0404.2219.1212-.0807.0707-.5849.101-.3429.1919.242.0909.2925.3838.0202.6768-.2723.2929-.8875.6061-.7866.8586.0807.2424.1513.4849.4437.2626.2925-.2222.5547-.4646.6253-.5354.0706-.0707.232.0505.1916.1919-.0122.0625-.0373.1218-.0738.174-.0365.0522-.0835.0962-.138.129-.1109.0606-.2017.0606-.1715.2929.0303.2323-.0504.6061.232.3737.2824-.2323.4538-.2121.4639.0303.0101.2424.0202.4344.3126.2929.2925-.1414.3933-.2727.242-.3737-.2017-.3535-.2622-1.202-.2118-1.6364.0504-.4343.4437-.3232.353.0808-.0908.404-.3026.6566-.1412.8788.1614.2222.5648.2424.5849-.1919.1715-.4242.4135-.5252.4438-.2626.0706.3434.232.6061.242.8485.0101.2424.0504.8687.353,1.0909h0Z" fill="#006eaf" fill-rule="evenodd" stroke-width="0"/><path d="M25.4651,7.3253c-.0605.0606-.0605.3535.2622.3232.3227-.0303.4538-.0606.4942.0505s.0706.5354.1109.6768c.0403.1414.1614.2121.2118.101.0504-.1111.4034-.5151.4538-.9091.0504-.3939.0807-.7879.4034-.6566s.7866.4545.6858.6566c-.1008.202-.3227.1313-.5043.1111-.1815-.0202-.7362-.0707-.4639.1212.2622.0505.2219.3131.3631.303.1412-.0101.2925.0909.5648.0101s.7161-.101.6959.1313c-.0518.0749-.1091.1458-.1714.2121,0,0,.1513-.0606.3832.1313.232.1919.474.3636.5043.4343.1412-.1717.121-.5252-.0706-.7172-.1916-.1919-.4438-.3939-.4236-.5354.0202-.1414.3731-.3939.4034-.7879.0302-.3939-.0303-.8687-.4841-.8788.1614-.2626.242-.3737.4841-.404.242-.0303.5749-.1717.5043-.4546-.0706-.2828-.1815-.1818-.3227-.0606-.0202-.303.0202-.4444-.0605-.5051-.0807-.0606-.2521-.2626-.3731-.0505-.121.2121-.1715.2727-.1109.4949-.1614.2323-.3026.2929-.595.3232-.2925.0303-.4538.2121-.2925.2121s.4337.0303.3026.3232c-.1311.2929-.6959.6263-.2723.6768.2118,0,.1412-.0808.3631-.0909.2219-.0101.3933-.0202.2925.2929-.1009.3131-.1412.5859-.353.3636-.2118-.2222-.474-.6263-1.0388-.5657.1353-.2688.3409-.4958.595-.6566.2219-.1616.2118-.3535-.1009-.2828-.1916,0-.3026-.101-.1311-.4242.1715-.3232.2622-.5556.353-.5758-.121-.3434-.2824-.6263-.6455-.5455-.0605.1919.0706.4848,0,.5657-.0706.0808-.2824.1414-.2723.5252-.0403.2323-.0706.4243-.2925.4949-.2219.0707-.7362.1212-.6354.3636.1412.1818.7261.0606.6354.2323-.0908.1717-.1109.1515-.2723.2929-.1614.1414-.1715.2727-.3832.3636-.1815.101-.7967.3131-.7967.3131h0ZM26.2921,7.5678s.2118-.3636.3429-.2424c.1311.1212-.0706.3333-.1513.3737-.021.0124-.0451.0186-.0694.0178-.0244-.0008-.048-.0086-.0681-.0223-.0201-.0138-.0359-.033-.0455-.0555-.0096-.0225-.0125-.0472-.0086-.0713Z" fill="#006eaf" fill-rule="evenodd" stroke-width="0"/><path d="M35.1572,7.11s-.2219.5354-.4034.6768-.4337.4747-.6455.5354c-.2118.0606-.2118.2929,0,.4646.2118.1717.4841.2323.5749.0404.0404.1515-.2723.3434-.0302.4242-.0202.202.0807.404-.1715.3535-.2521-.0505-.948-.3333-1.0589-.2222,0,.1717.0807.2323,0,.2828-.0807.0505-.2723.1313-.1815.4747-.121.3939-.1109,1.0202.3933,1.303.2017.0101.595.0505.7665-.1313.1715-.1818.2723-.3131.5143-.303.2421.0101.4538.1717.4942.0909.0807-.3535.0605-.6667-.0403-.7071-.0179-.0073-.0338-.0189-.0462-.0337-.0124-.0149-.021-.0326-.025-.0515-.004-.019-.0033-.0386.0021-.0572.0054-.0186.0152-.0356.0287-.0495.0403-.0505.0504-.2727.0403-.3535.353-.0202.5749-.0909.595-.2222s-.1916-.404.0605-.4141c.2521-.0101.5143.0303.5648.202.1447-.0562.303-.0668.4538-.0303.2118.0303.1412-.2828.1008-.4444-.0403-.1616-.1513-.1616-.1714-.2525s.0403-.2222-.2824-.2222c-.3328-.0606-.4034-.0808-.5648-.3939-.1614-.3131-.2925-.6364-.4236-.5455-.1311.0909-.1513.2121-.121.4848.0303.2727-.0605.2727-.2017.4141-.0403.1818.121.5252-.0403.4545-.1614-.0707-.4639-.1515-.4034-.2929.0605-.1414.3026-.1818.3126-.4344.0101-.2525.1311-1.0404-.0908-1.0404h0ZM33.7049,10.2716s-.1513.1818.0303.202c-.0504.2424-.1109.3737.0605.3131.1714-.0606.2118-.0909.2521-.0404.0403.0505-.0706-.2222.121-.1515-.0403-.1111.0605-.1111.1412-.1111-.1412-.1111-.1815-.0404-.1815-.0404,0,0,0-.1414-.0605-.1111-.0605.0303-.1009-.0909-.1513-.0909-.0675.0257-.1398.0361-.2118.0303h0ZM36.085,8.8373s-.353.0404-.2219.0606c.1908.0253.3841.0253.5749,0,.1311-.0303.1109-.0909.0908-.1414-.0202-.0505-.0706-.1717-.1714-.1616-.1009.0101-.2622-.0303-.2925.0606-.0162.061-.009.1259.0202.1818h0Z" fill="#006eaf" fill-rule="evenodd" stroke-width="0"/><path d="M39.282,16.4064c.0807.1111-.6051.3535-.6253.5152.1311.2323.3126.3939.5144.2727.2017-.1212.9984-.5354,1.2203-.697.2219-.1616.1916.2424-.0706.3939-.3361.2121-.6563.4484-.9581.7071-.1109.1111-.1815.2929-.5143.1111-.3328-.1818-.8774-.5556-.7463-.7576.1513-.2222.8068-.8081,1.18-.5455h0Z" fill="#006eaf" fill-rule="evenodd" stroke-width="0"/><path d="M38.0817,15.6009s-.5143-.0909-.4236.1414c.1916.202.4942.2626.6152.2222.0117.0201.0274.0376.046.0516.0186.014.0398.0241.0623.0297.0225.0057.046.0067.069.0032.023-.0036.045-.0117.0648-.0239.0605.1111.2219.1111.3126.101.0908-.0101.0807.1414.2824.0505.0807.0909.1916.0909.3429.101.1513.0101.6959.1111.827.0606.1311-.0505.0807-.2222-.1714-.3838-.2521-.1616-.3933-.2525-.4135-.3131.1715-.0606.4135.1212.5547.1111.1412-.0101.4135-.1212.4942.0505.0118.0252.0289.0477.0501.0658.0212.0181.046.0314.0728.0391.0268.0077.0549.0095.0824.0053.0275-.0041.0538-.0142.0772-.0293.0101.2323.0605.2828.1513.2424,0,.101.4034.1313.3631-.2121-.0403-.3434-.0807-.5758-.1412-.6162.1916.0303.3832.0404.3429-.4242-.2017,0-.2521-.0404-.3025-.0808-.0755-.061-.1608-.1088-.2521-.1414.0807.1414.2017.3737-.0101.3939-.2118.0202-.3631-.1414-.5043-.1818-.1412-.0404-.353-.1717-.7261.0505-.0504-.0505-.0908-.1313.0403-.1919.1311-.0606.1614-.2929.3328-.2626.1714.0303.1916-.0404.1513-.1818.0908-.0303.0605-.2828-.1614-.3131-.2219-.0303-.4437-.0808-.3933.0808-.0101.202-.0504.2323-.1412.2929-.0908.0606-.1311.2121-.2824.1313-.0504-.1616.1513-.2323.2017-.3232.0219-.0557.0279-.1164.0172-.1753-.0107-.0589-.0376-.1136-.0777-.158-.0605-.2222-.3933-.2424-.3933.0101s-.3328.3838-.5547.5152c-.2219.1313-.8774.4545-1.0791.4747-.2017.0202-.4942,0-.4236.1919.012.0249.018.0522.0175.0798-.0004.0276-.0073.0548-.02.0793-.0127.0245-.031.0457-.0533.0619-.0223.0162-.0481.027-.0753.0315,0,.1414.1009.2525.353.1313.2795-.1238.5657-.2317.8572-.3232.1614-.0606.7261-.4949.8774-.4545.0302.101.0403.2424-.0908.2424s-.2118.202.0403.2121c.2521.0101.4538-.0101.5143.0606.0605.0707.1614.1414.474.0808-.0403.1313.0202.3434-.242.2424-.2622-.101-.6555-.2525-.8169-.2121-.0444.0113-.0836.0373-.1112.0738-.0276.0365-.0421.0814-.0409.1272.0012.0458.0179.0899.0473.1249.0295.0351.07.059.1148.068.2622.0707.5144.2727.3832.2424-.1736-.0162-.3457-.0466-.5144-.0909-.269-.0746-.5417-.1353-.8169-.1818h0ZM40.4215,15.4393s.0605-.1515-.0202-.1818c-.0807-.0303.2118-.0808.3933.0808.1815.1616.2017.2323.1916.3434-.1008-.1111-.0908-.1111-.1714-.101-.0807.0101.0101-.0808-.2723-.0606-.0504-.0707-.1614.0202-.121-.0808h0Z" fill="#006eaf" fill-rule="evenodd" stroke-width="0"/><path d="M8.9053,15.3455s1.8355.9899,1.9868,1.0404c.1513.0505.4841.0202.2118-.2525-.2723-.2727-.9984-.7071-1.301-.8384-.1679-.0709-.3298-.1554-.4841-.2525,0,0,.2118-.0303.2219-.1414-.016-.1306-.0652-.2549-.1429-.3611-.0777-.1061-.1813-.1905-.3009-.245-.3429-.1515-.5043-.4141-.8572-.3333-.2521.0101-.3328.0606-.3832-.1111-.0504-.1717-.1614-.404-.3026-.3535-.1412.0505-.1714.1717-.1513.4141-.0101.2626-.0101.3737-.1513.404-.1412.0303.0202.5354.2723.4545.2622,0,.2824.1919.2622.3232s-.1109.3131-.2824.0808c-.1715-.2323-.353-.3131-.5144-.202l-.1714.1111s.0706-.2929-.121-.4445c-.1916-.1515-.4538-.1818-.6051.1414-.1513.3232-.1714.4242.0403.596.2118.1717-.2017.1616.1109.2424-.0303.4646-.0504.6162-.1412.697-.0908.0808-.2622.4344.232.2121.4942-.2222.4841-.5859.4135-.6768-.0706-.0909-.1714-.1313-.1513-.2525.0202-.1212-.0504-.2424.1311-.2222s.1815.0606.2017.2727c.0706.1111-.0202.202.0706.3636.0908.1616.1109.3838.2118.697.1008.3131.1513.4848.121.6667-.0303.1818-.0504.2323-.1311.2525-.0403.1212.1614.202.3328.1313.1715-.0707.3631-.3434.232-.8081-.1412-.3636-.0303-.3535.0605-.202.0908.1515.232.6061.353.5151.121-.0909.3026-.4444.4538-.2727.1513.1717.2622.6263.6253.6263s.4942-.1818.1714-.4344c-.3227-.2525-.353-.5152-.232-.6566.121-.1414.3933-.2929.1614-.3939-.232-.101-.716-.5152-.8472-.6566.0706-.1313.1916-.1717.3933-.1313h0ZM8.3707,14.5273s.0101.202.1614.2121c.1513.0101.1109.1515.3227.1414.2118-.0101.121-.1818.0605-.2222-.087-.0788-.1856-.1435-.2925-.1919-.1009-.0202-.2118-.0303-.2521.0606h0ZM8.169,15.1132s.1109.2626.2118.2121c.1008-.0505.0908,0,.0706-.101-.0202-.1414-.2622-.1414-.2824-.1111h0ZM7.8261,15.497s.2118.6869.4438.8182c.0706-.0606.0706-.1717-.0807-.3232-.1001-.0992-.1761-.2201-.2219-.3535-.0403-.0909-.0605-.2121-.1513-.1818l.0101.0404Z" fill="#006eaf" fill-rule="evenodd" stroke-width="0"/><path d="M12.3745,22.892c.0523-.5652.1467-1.1257.2824-1.6767l-.6656-.1213-1.2909-.2424c.2443-1.0314.6064-2.0313,1.0791-2.9798l.1815.101.9682.5354.595.3333c.4618-.9372,1.0488-1.8071,1.7447-2.5858l-.5143-.4444-.9884-.8687c.6786-.7689,1.4434-1.457,2.2792-2.0505l.1614.2424.5648.8586.3731.5657c.8711-.6324,1.8246-1.1422,2.834-1.5151l-.2623-.6263-.5143-1.2121c.9719-.3683,1.9842-.6193,3.0155-.7475l.0504.3636.121.9394.0908.6768c.4984-.0641,1.0002-.0979,1.5027-.101.5397.0011,1.0788.0382,1.6136.1111l.0605-.6768.1211-1.3131c1.0226.1391,2.027.3897,2.9953.7475l-.3732.9495-.1109.2727-.2522.6364c1.0031.3731,1.9499.8829,2.8138,1.5152l.3732-.5657.7261-1.0909c.8217.596,1.5758,1.2802,2.249,2.0404l-.121.101-.8875.7374-.5244.4344c.7051.7907,1.2989,1.6743,1.7649,2.6263l.5849-.3434,1.1296-.6667c.4785.9389.8409,1.9328,1.0791,2.9596l-.9581.2121-.3227.0707-.6657.1415c.1317.5485.226,1.1053.2824,1.6666h.6858c-.0302-.3636-.0807-.7171-.1412-1.0707l.8371-.1818.4538-.101.7161-.1515c-.2903-1.5838-.8461-3.107-1.6439-4.5051l-.6354.3737-1.1295.6667c-.3107-.5493-.6649-1.0729-1.059-1.5656l.0908-.0707.9178-.7677.5647-.4646c-.9795-1.2344-2.1549-2.2991-3.4794-3.1515l-.4034.6061-.7261,1.0909c-.5326-.345-1.0925-.6457-1.6742-.899l.1816-.4646.2924-.7576h.0101l.2723-.6768c-1.4311-.6206-2.9539-1.0027-4.5081-1.1313l-.0706.7273-.121,1.3131c-.3328-.0303-.6757-.0404-1.0186-.0404-.3026,0-.6051.0101-.9077.0303l-.1714-1.303-.0908-.7273c-1.5685.1271-3.1053.5128-4.5484,1.1414l.2824.6768.5143,1.2121c-.5849.2533-1.1482.554-1.6842.899l-.7161-1.101-.4034-.6162c-1.3212.8445-2.4963,1.8987-3.4794,3.1212l.5547.4848.9884.8687c-.3941.4928-.7482,1.0163-1.059,1.5656l-1.1497-.6364-.6354-.3535c-.779,1.375-1.3243,2.8701-1.6136,4.4243l.7161.1515,1.2909.2424c-.0706.3838-.121.7677-.1614,1.1616l.6757-.0303Z" fill="#006eaf" fill-rule="evenodd" stroke-width="0"/></g></svg>