<?xml version="1.0" encoding="UTF-8"?><svg id="b" xmlns="http://www.w3.org/2000/svg" viewBox="0 0 69.0832 69.0831"><g id="c"><g id="d"><g id="e"><g id="f"><path id="g" d="M34.5415,10.7167c6.5789,0,12.5352,2.667,16.8466,6.9782,4.3115,4.3116,6.9782,10.2679,6.9782,16.8466s-2.6667,12.535-6.9782,16.8465c-4.3116,4.3115-10.2677,6.9782-16.8466,6.9782s-12.535-2.6667-16.8465-6.9782c-4.3113-4.3114-6.9783-10.2676-6.9783-16.8465s2.667-12.5352,6.9783-16.8466c4.3114-4.3112,10.2677-6.9782,16.8465-6.9782ZM50.3921,18.6909c-4.0563-4.0563-9.6605-6.5654-15.8506-6.5654s-11.7942,2.5091-15.8506,6.5654c-4.0562,4.0563-6.5653,9.6605-6.5653,15.8506s2.5091,11.7942,6.5653,15.8506c4.0564,4.0563,9.6605,6.5653,15.8506,6.5653s11.7943-2.509,15.8506-6.5653c4.0564-4.0564,6.5654-9.6605,6.5654-15.8506s-2.509-11.7943-6.5654-15.8506Z" fill="#005795" fill-rule="evenodd" stroke-width="0"/><path id="h" d="M34.5413,0c19.0739,0,34.5419,15.468,34.5419,34.5416s-15.468,34.5415-34.5419,34.5415S0,53.6154,0,34.5416,15.4677,0,34.5413,0ZM34.5413,9.3002c13.9381,0,25.2417,11.3037,25.2417,25.2414s-11.3036,25.2414-25.2417,25.2414-25.2411-11.3034-25.2411-25.2414,11.3031-25.2414,25.2411-25.2414ZM64.6992,42.6387l-.1032.3843-2.6312.8841,2.2339.5988-.0955.3557-2.83-.7584.1024-.3831,2.6313-.884-2.234-.5983.0957-.3575,2.8306.7584ZM63.1209,46.455c.105-.2738.0942-.5353-.033-.7844-.1269-.2497-.3648-.441-.7124-.5744-.3487-.1339-.6533-.151-.9143-.0515-.2613.0998-.4432.2844-.5468.5546-.1056.2752-.0955.5374.0314.7879.1264.2511.3642.443.7125.5769.3463.1329.6516.1495.9129.0485.2624-.1009.4457-.2863.5497-.5576ZM60.6033,45.4842c.1472-.3827.3969-.6474.7485-.7913.3524-.1447.7423-.1353,1.1677.0281.4248.163.7204.4168.8853.76.1654.3425.174.7061.0271,1.0889-.1478.3848-.3978.6497-.7515.795-.3534.1455-.7418.1371-1.1663-.0256-.4252-.1632-.7206-.418-.8855-.7617-.1644-.3445-.1731-.7086-.0253-1.0934ZM62.5979,48.2967l-.171.3501-2.6336-1.2845.1711-.3502,2.6335,1.2846ZM60.0132,47.7346l-.4845.8396,2.2361,1.2913-.1947.337-2.2364-1.291-.4807.8326-.3012-.174,1.16-2.0095.3014.174ZM61.0829,51.0837l-.2512.3588-.9251-.2331-.7041,1.0052.5449.7763-.2351.3358-1.7547-2.6027.2394-.342,3.0859.7017ZM59.589,51.1262l-1.409-.357.8314,1.1819.5776-.8249ZM58.7148,54.4161c-.2661.317-.5829.4831-.9509.497-.3677.0147-.7298-.1281-1.0855-.4266-.3567-.299-.5597-.6307-.6091-.9956-.0497-.364.0582-.7053.3245-1.0225.2046-.2442.4452-.3969.7206-.4577.2758-.0608.5298-.0115.7629.1476l-.2569.3063c-.1521-.1075-.3163-.14-.4935-.0996-.1759.0399-.3355.145-.4766.3133-.1908.2273-.2634.4734-.2183.7378.0457.2643.2137.5183.5048.7627.2894.243.5682.3646.836.3649.268.0005.4964-.1128.6853-.338.1476-.1754.2237-.3535.2288-.5336.0051-.18-.0666-.3442-.2137-.4917l.2572-.3066c.2209.2222.3269.4705.3178.7469-.0092.2757-.12.5406-.3334.7954ZM56.7198,56.6163c-.2318.2486-.4534.39-.6649.4228-.2113.0334-.3977.0053-.5581-.0839-.1615-.0889-.3283-.2139-.5009-.3747l-1.2396-1.1559.2647-.2839,1.2354,1.1519c.2815.2627.5105.3879.6874.3764.1768-.0116.3505-.1089.5205-.2911.1699-.1822.2548-.3622.254-.5391-.0004-.1779-.1418-.3974-.4232-.6596l-1.2356-1.1523.2662-.2853,1.2395,1.1559c.2591.2418.4213.4509.4868.6273.0643.1768.0694.3558.0139.5373-.0555.1814-.1709.3661-.3461.5542ZM53.7409,58.7727l.4027-.3505c.3208-.2788.4747-.5435.4612-.794-.0128-.2511-.1378-.5124-.3735-.7835-.2301-.2647-.4653-.4189-.7076-.4622-.2426-.0442-.5241.0741-.8459.3538l-.4026.3499,1.4657,1.6865ZM51.7541,57.0783l.7016-.61c.7513-.6531,1.4434-.6149,2.0772.1142.6478.7451.5966,1.4441-.1548,2.0971l-.7019.6101-1.9221-2.2114ZM53.2364,59.5421l-1.7679,1.2842-1.7222-2.3704,1.7126-1.2445.2046.2818-1.399,1.016.5264.7243,1.3081-.9505.2043.2815-1.3078.9504.5824.8018,1.4539-1.0561.2046.2815ZM48.7714,59.4731l-1.4158.7213.412.8086,1.2268-.6249.158.3098-1.2266.6252.6023,1.1823-.3458.1759-1.3305-2.6108,1.7617-.8972.1579.3098ZM46.3781,63.149c.2718-.1096.4555-.2959.5509-.5587.0961-.2631.0738-.5677-.0659-.9133-.1396-.3459-.3351-.5805-.5857-.7033-.2514-.1231-.5104-.1303-.7786-.0219-.273.1103-.4581.297-.555.5606-.0973.2636-.0754.5684.0644.9142.139.3443.3351.5784.587.7012.2526.1231.5132.1303.7829.0212ZM45.371,60.6458c.38-.1536.7439-.1512,1.0891.0082.3463.1586.6052.45.7758.8727.1704.4219.1866.8112.0481,1.1658-.138.3545-.3978.6091-.778.7625-.3822.1545-.7464.1523-1.0944-.0075-.3466-.1591-.6057-.449-.7762-.8704-.1707-.4225-.186-.8121-.0469-1.167.1398-.3552.4003-.6097.7825-.7643ZM43.2882,61.4438l-.6416,1.9412.3421,1.1932-.3724.1067-.3422-1.1929-1.5725-1.3061.4539-.1303,1.2133,1.0559.4656-1.5374.4538-.1303ZM40.6041,62.5269l-.9514.1851.4925,2.5346-.3824.0745-.4925-2.5348-.9438.1831-.0665-.3411,2.2777-.4427.0664.3413ZM38.4078,65.5103l-.3865.0476-.3574-2.9084.387-.0476.3569,2.9084ZM36.4453,65.774c-.4118.0361-.7279-.0289-.9471-.1959-.2201-.1664-.3483-.3942-.3836-.6829l.3716-.0327c.0394.2161.144.3692.3139.4596.1711.0899.3699.1252.5986.1053.2168-.019.3867-.0791.5107-.1796.1248-.1007.1803-.2269.1668-.3798-.014-.1605-.093-.2713-.236-.3327-.143-.0605-.3844-.1121-.7249-.1535-.3399-.0423-.5875-.1199-.7445-.2334-.1565-.1132-.2437-.2747-.262-.4846-.0207-.2358.057-.4384.2325-.6062.1762-.1678.4207-.2653.7338-.2928.3298-.0288.6016.0241.8165.1594.2153.1346.3411.3413.3776.619l-.3767.0329c-.0689-.35-.3261-.505-.7708-.4658-.2153.0185-.3783.0732-.4896.1647-.1105.091-.16.2042-.1483.3382.0108.1222.0656.2093.1661.2622.1004.0528.283.0963.5471.1307.2646.0344.4754.0729.6331.1152s.2959.117.4149.2254c.119.1077.1872.261.2043.4586.0221.251-.0597.4682-.2447.6516-.1849.1832-.4385.2889-.7593.3171ZM32.8826,64.1101l.8644.0304c.2415.0083.417-.0228.5282-.0957.1118-.0719.1702-.2007.1767-.3877.0116-.3326-.1913-.5064-.6098-.5209l-.9247-.0322-.0348,1.0061ZM34.8803,65.7821l-.4202-.0146-.248-.791c-.0445-.1399-.1221-.256-.2337-.3481-.1116-.0913-.2423-.1402-.3908-.1452l-.7173-.0254-.0437,1.2524-.388-.0134.1022-2.9283,1.297.0452c.2262.0079.4101.0362.5526.0858.1423.0483.2562.1451.342.2897.0858.1441.1253.3047.1193.4818-.0072.2027-.0717.3697-.1938.5012-.1219.1324-.2853.2146-.4908.249l-.0002.0082c.2018.0719.3509.2538.4472.5456l.2662.8071ZM31.9295,65.6641l-2.169-.2663.3569-2.9081,2.1013.2579-.0423.3451-1.716-.2103-.1091.8881,1.6049.1971-.0423.3452-1.6049-.1968-.1209.9838,1.7837.2189-.0423.3454ZM29.9809,62.4911l-1.7198,2.6479-.3879-.0966-.2998-3.095.4021.1004.1928,2.6376,1.4112-2.2945.4014.1002ZM26.4944,64.7092l-.3745-.1072.8076-2.8166.3745.1075-.8076,2.8163ZM25.5061,64.4537l-.3762-.1294-.6983-2.6867-.7531,2.1868-.3485-.1197.9543-2.7707.3747.1288.6985,2.6866.7531-2.1866.3494.1205-.9539,2.7704ZM21.6821,63.08c-.3082-.1436-.511-.3103-.6077-.5014-.0973-.1907-.1279-.3767-.0927-.5569.0348-.1808.1019-.3784.2016-.5923l.7161-1.5357.3518.1639-.7136,1.5311c-.1627.3486-.2108.6053-.1456.77.0655.1646.212.2997.4374.4049.226.1051.4235.1303.5915.0748.169-.0553.3341-.2577.4966-.6064l.7142-1.5309.3536.1649-.7164,1.5357c-.1499.3218-.2987.5406-.446.6571-.1484.1161-.3171.176-.5067.1794-.1902.0031-.401-.0494-.6341-.1582ZM17.8783,61.0184c-.349-.2354-.555-.5406-.6179-.9153-.0628-.3755.034-.7531.2901-1.1326.2572-.3815.5701-.6136.9384-.697.3685-.0837.7261-.0077,1.0739.2268.2925.1971.4889.4317.5872.7029.0991.2715.0805.534-.056.7859l-.3329-.2247c.0925-.1654.1048-.3363.0365-.512-.0678-.1749-.2069-.3336-.417-.4749-.2509-.1695-.5108-.2198-.7787-.1522-.2688.0683-.508.2581-.7183.57-.2092.3098-.2945.6035-.2558.8789.039.2767.1832.499.433.6675.3499.2361.6881.2961,1.0134.1799l.2497-.37-.6409-.4321.1952-.2894.9524.6422-.8358,1.2392-.2267-.153.0873-.3123c-.2981.0863-.6237.0107-.9771-.2278ZM16.3561,59.9358l-.3134-.245.2141-2.7675-1.4236,1.8227-.2907-.2269,1.804-2.3089.3124.2439-.2141,2.7673,1.4239-1.8224.2913.2278-1.8039,2.309ZM14.0572,58.1337l-.2893-.2607,1.9606-2.1773.2894.2604-1.9607,2.1776ZM13.3287,56.6569c.2786-.0134.5492-.1429.8121-.3881.2729-.2548.4219-.5209.4472-.7992.0248-.2789-.0615-.5228-.2587-.7343-.2009-.2159-.4416-.3216-.722-.3176-.2815.0036-.5579.1332-.8312.3875-.2711.2531-.4194.5202-.4438.7992-.0242.2803.0624.5262.2607.7387.1055.1135.2295.1981.3728.2557l-.0306-.3697.3569-.0185.0366.4463ZM13.4073,57.5706l-.3574.0189-.0505-.6145c-.245-.0683-.4603-.2034-.6463-.4027-.281-.3014-.4096-.6422-.3851-1.0241.0242-.3812.2019-.7271.5343-1.0367.3334-.3108.6916-.4649,1.0728-.4623.3817.0031.7127.1553.9939.4567.2795.3.4078.6401.3829,1.0196-.0243.3801-.2036.7265-.5367,1.037-.3236.3016-.6752.4565-1.0557.4646l.0478.5435ZM10.2681,54.2533c-.2591-.3315-.3605-.6852-.3048-1.0614.0567-.3764.2649-.7055.626-.9877.3625-.2829.7318-.4071,1.1075-.3727.3765.034.6933.217.9519.5475.217.2778.3312.5619.3411.8502.0103.2889-.0887.5323-.2964.7301l-.2471-.3167c.1389-.1286.2036-.2875.1931-.4755-.0109-.1872-.0938-.3812-.2498-.5806-.1866-.2388-.418-.3669-.6937-.3852-.2766-.0185-.5629.0883-.8593.32-.2944.2297-.4665.4828-.5148.7569-.0483.2752.0199.5307.2055.7684.2601.3329.5629.4944.9083.4844l.3514-.2748-.4759-.609.2755-.2149.7071.9049-1.1777.9206-.1688-.2158.1795-.27c-.3096-.0101-.596-.1827-.8586-.5187ZM9.118,52.7691l-.2108-.337,1.1477-2.5274-1.9611,1.2256-.1952-.3124,2.4849-1.5528.2101.3363-1.1477,2.5269,1.961-1.2254.1962.3137-2.4851,1.5525ZM7.1845,49.0646c.1286.2639.3272.4343.5961.511.2693.0777.5716.0342.9062-.1291.3353-.1639.5557-.3752.6612-.6336.1048-.2593.094-.5181-.0326-.7783-.1293-.2649-.3284-.4362-.598-.5144-.2698-.0788-.5724-.036-.9079.1277-.3332.1627-.5533.3747-.6582.6345-.1052.2608-.0942.5212.0332.7822ZM9.6115,47.8859c.1798.3685.2026.7314.068,1.0871-.1344.3562-.4069.6348-.8165.8346-.4089.1992-.7964.2427-1.1598.1291-.3632-.1128-.6353-.3541-.8151-.7226-.1804-.3706-.2038-.7341-.0687-1.0925.1349-.3569.4055-.6358.8141-.8349.4095-.1998.7973-.2421,1.1612-.1281.3639.1143.636.3568.8168.7273ZM6.0743,47.5501l-.1397-.3647,1.2869-.4942-.5456-1.4212-1.2872.4941-.1389-.3624,2.7354-1.0499.1389.3622-1.1232.4312.5456,1.4216,1.1237-.4313.1397.3644-2.7356,1.0502ZM4.6724,43.827c-.1071-.3999-.0615-.7547.1383-1.0638.1987-.3093.5232-.5247.972-.6446.4492-.1205.8379-.0966,1.1648.0719.3269.1682.5444.4525.6516.8525.0825.3079.0698.5923-.0384.8528-.1082.2608-.2942.4406-.5588.5401l-.1034-.386c.1752-.063.2961-.1789.3646-.3469.0683-.1675.0736-.3581.0168-.5701-.0768-.287-.2365-.4877-.4792-.6021-.2426-.1144-.5469-.1226-.9142-.0241-.3648.0976-.6249.2563-.7785.4754-.1541.2193-.1923.4712-.1163.7553.0593.2214.1615.386.3059.4935.1448.1077.3202.1432.5255.1072l.1033.3863c-.3081.0538-.5725-.002-.7937-.168-.2206-.1652-.3742-.4085-.4603-.7294ZM5.7154,26.5153c-.1317-.0607-.5779-.6783-.4398-.8881.1071.0137.3896.1307.3752.2737.0074.0032.0146.0068.0218.0102-.0632.2352.0597.4206.0428.6042ZM6.6682,25.1496c-.0695.0089-.4973-.199-.5129-.3063.036-.0784.0572-.1045.1226-.1511.0865.0401.247.155.2591.2605.0507.0416.1305.1332.1312.1969ZM6.8706,27.0282c-.2205-.0706-.3589-.1475-.5728-.2425-.2108-.2427-.3329-.4218-.2932-.7706.2211.0745.0695.5062.3831.6809.0685-.1857.0158-.3824.2834-.3941.0502.0236.106.0449.1618.0664-.0126.1117-.0294.1946-.0671.2949-.0906.035-.0108.1358-.0173.187.0832.0566.0656.093.1221.178ZM40.9413,4.4036c.024-.0982.293-.5899.4269-.5486.0038-.0125.0067-.0209.0093-.0293.0304.0096.0652.0206.1.0317.0822.5814-.2519.4719-.3908.5415-.0476-.0017-.0964.0013-.1454.0047ZM41.7306,4.9806c.108-.1769.0856-.4908.3409-.4742.0053-.0168.0094-.0294.0134-.0418.0495.0108.0974.026.1452.0411-.019.1855-.0483.3661-.1245.6068-.4216.1455-.236.2712-.375-.1319ZM38.7619,4.8785c.0488-.1092.0976-.2185.1497-.3219.095.0159.1895.0366.288.0585-.0305.0502-.0565.1021-.0839.1581-.124-.013-.2312.1197-.3538.1053ZM38.4959,3.9636c.0084.0029.017.0055.0261.0082.0149-.3067.0207-.756.0671-1.0309.2804-.0024.5292.3072.5533.5667.0175.0056.0349.0109.055.0222.1735-.0702.3928-.2581.4524-.4019-.1329-.0419-.5721-.144-.4832-.3048.0535-.0017.1109-.0021.1685-.0021.1337-.18.6758-.182.8933-.1012.0019.0096.0021.024.0026.0379.0827.026.0885.1294.0818.1964.0086.0024.0155.0098.0275.0178-.0696.2214-.452.3557-.4723.511.388.0596.1724.518.0633.4817-.0099.0154-.0193.0308-.0291.0459-.1974-.0113-.4476-.0672-.6475-.1166-.0551.038-.1008.0467-.1666.0582q-.0635.2615-.0558.2825c.188-.0116.2593-.045.3838-.1697.2082.0381.3943.1153.5661.2391-.0016.036-.0038.0724-.0028.1142.0088.0029.0175.0057.0261.0081-.0079.0253-.0173.0548-.0266.0839-.1888-.0358-.2478.1919-.3865.2842.0656.0662.1035.1343.1714.1555-.015.1081-.2572.2978-.2755.3564-.3055-.0961-.706.0263-.9115-.0385-.1668.1399-.2517.3791-.4934.2132-.014-.534.2452-.9919.4125-1.5174ZM41.2728,4.7941c-.1582.0438-.5505.1096-.6942.3485-.4396-.0002-.3483-.1168-.5748-.2555.0337-.1367.0647-.2653.1214-.3997.2079.0226.6416-.6091.7337-.7929.0088.0024.0175.0055.0302.0093q.0274-.07.0207-.0949c-.1868.001-.3439-.1687-.4897-.2378.0058-.049-.005-.0752-.0348-.1173.0154-.0641.031-.1286.0496-.1872.0867.0137.1721.0311.2619.0505.0433-.0464.799-.1819.8296-.1721.1271-.185.8948.0163.8948.2273.0101-.0014.0202-.0028.0291-.0002-.0798.2507-.058.244-.1796.4464-.1831-.021-.5057.0182-.6979.0289-.0138.0278-.0275.0557-.0366.0853.2214.1196.2894.1019.625.2942-.0051.0307-.0056.0629-.006.0952.0129.004.029.0134.0449.0232.2386-.1184.4233.2017.5422.3145-.1057.3322-.2699,1.2547-.7056,1.3556-.183-.0574-.3767-.1558-.5471-.2374q-.0284.0283-.2442.6523c-.2342.7418-.4799,1.4039-.7933,2.1173-.0822.0085-.069.0849-.21.0906.2511-1.2261.6479-2.4331,1.0307-3.6441ZM59.6635,14.4928c-.1245.0415-.2492.0834-.3716.129-.0308-.0062-.336-.2963-.3651-.3698.0673-.0791.1182-.1195.2129-.152.0724.1043.38.2385.5007.1738.2584.0519.2695.2382.0231.219ZM59.3108,15.1581c.0095-.0557.015-.1091.0232-.1589.0776-.0644.2363-.0798.3427-.087-.0165.0991-.2261.2488-.298.3144-.0214-.0238-.0428-.0473-.0679-.0685ZM59.144,15.8328c-.0557-.4449.6531-.3721.8161-.7473q.0529.0075.1351.0503c.0055.0233.011.0471.0168.0704q-.1956.1399-.3754.3016c-.0909-.0086-.4315.2745-.5346.3402-.0212-.0078-.0394-.0116-.058-.0152ZM58.4499,14.838c.0228-.0212.0447-.1096.0896-.113.1678.1483.3067.1021.3418.3327-.0872.1038-.1274.0603-.2567.0884-.068-.099-.1122-.1998-.1747-.3081ZM58.5665,15.5321q.0201-.0634.0464-.087c.0935.0514.18.0466.2658.0865.0353.2046-.2509.1019-.3122.0005ZM58.0064,15.0716c.0075-.1589.2894-.1497.3495-.0156-.0106.1129-.2692.1136-.3495.0156ZM58.7239,16.0612c-.0464.279-.3199-.1649-.3533-.2132.0413-.0558.0872-.1202.0985-.1885.0955-.0382.113.1034.1486.1779.1317.0527.1372.0377.2533-.0092.0127.0186.0255.0373.0349.0584M57.6365,15.2651c.1241-.1685.3796.1153.5682.0875.0569.1257.0115.272-.0748.3533-.1257-.1831-.3463-.2723-.4934-.4408ZM58.639,14.2188c-.2641.1709-.528.3413-.7933.5182-.0423.0233-.0844.0471-.1265.0702-.2002-.0214-.3942.282-.547.1291.0019-.0125.0038-.0251.005-.0311.5136-.2906.9439-.7765,1.2756-1.1347.0647.1255.136.275.2223.3855q-.005.0308-.0361.0628ZM57.1772,15.3828q-.0461-.029-.0457-.0507c-.0123-.0029-.0221-.0017-.0317-.0005-.3092-.7727-.8214.0777-1.51-.1544-.1159-.0684-.3545-.1847-.2122-.3479-.0053-.0077-.0103-.0154-.0156-.0228.079-.0541.1583-.1087.2374-.163.4036.1733.7521-.7839,1.3501-.3014.0241.0273.0445.0574.065.0873q-.0332.0281-.1063.0456c-.0113-.0089-.0223-.0175-.0312-.0226-.2152.118-.1806.5577.4559-.0606q.0832-.0408.6784-.4773c-.0016-.0099-.003-.0197-.0056-.0236.3394-.3473.3868-.1627.5553-.5411.3336.1351.7945.5445,1.1958.8157.347-.0777.4153.159.5264.434-.0551.082-.1161.1401-.1873.2058.0361.0524.0729.137.1484.1233.1345.1272.2502.218.3167.392-.3103.3344-1.4044.7788-1.7626,1.0571.0399.0659.0551.1269.0683.2.1642.2392.2728.2961.2132.5567.0154.0611.0332.1257.0509.1902-.2261.1259-.4876.1153-.542-.2039-.2141-.2707-1.3234-.9268-1.3169-.2048.1565.1889.3413.3423.381.6004-.4928.3601-.8277-.1862-.9488-.062-.074-.0149-.511.2738-.5877.3163-.5122.1563-.9388-.5261-1.0922-.9579.0344-.0732.046-.1415.0955-.2083.1086.1507.2584.2838.3901.4293.3298.1606.7278.5012,1.036.0354-.0469-.0834-.1496-.2323-.256-.2029-.2969-.3839-.2096-.8043-.271-1.2033.0111-.0075.0215-.0149.0349-.0187.5129.5784.5843,1.1066,1.0442.5016-.1087-.157-.2779-.2019-.3291-.4165.1007-.0982.2197-.1436.3533-.2263.0289.0188.0628.0066.1051.0378.2084.303,1.2607,1.1956,1.3931.9867-.1418-.4142-.9574-1.3206-1.4431-1.1447ZM17.8142,7.8688c-.1272.0024-.2246-.0088-.319-.0447-.0839-.3066.3675-.6124.5958-.7119.1544.2454-.1038.6218-.2768.7566ZM18.6442,9.2264c-.0217-.0308-.1703-.2519-.1854-.2807.043-.0644.1849-.2609.2622-.3015,0,.0315-.0749.2457-.1007.2592.007.0333.0315.0761.0404.1141-.0195.015-.0017.1962-.0165.2089ZM18.1172,10.8972c-.1764-.1959-.5996-.5846-.5456-.886-.1754-.3358-.2067-.699-.32-1.0516.0839-.0805.1676-.1298.2318-.2267q.0017-.0908.0334-.2285c.0214-.0113.0431-.0226.0646-.0337.0669.0757.1315.1053.2222.2161-.1539.1149-.1328.6466-.32.748.0395.1394.032.2286.107.3714.1289-.0253.3627-.1848.4788-.2558-.0146-.0812-.0026-.2274.0921-.2432q.0779.1704.13.3538c-.3661.3055-.3016,1.0548.3399.5663.0086.0165.0197.0373.0303.0581-.0536.0544-.0707.095-.094.1652-.1825.1113-.2767.3293-.4505.4466ZM19.3213,10.4682c-.0411-.0786-.0825-.1575-.1195-.2383.081-.243.5129-.4528.7251-.58.218.5122-.2793.6358-.6056.8183ZM19.7668,12.4196c-.004-.2031-.2196-1.091-.4643-1.1078-.044.1358-.1952.4171-.2952.5132-.0644.2601-.2312.4259-.3399.679-.1021.1195-.3466.4663-.3466.6245-.0533.0225-.1072.0452-.1567.066-.0108-.0105-.017-.0227-.0216-.0309.105-.1663.1843-.5093.3077-.6254.0834-.3406.8821-1.4528.5686-1.7167-.3722.1933-.5098.8182-1.1186.7172-.5072.2649-.661-.615-.7846-.9037.0253-.0767-.1673-.4455-.2043-.5159.0065-.0089.0128-.0175.0214-.0218-.0995-.1907.0447-.7832.089-1.0225-.0236-.0145-.0433-.0306-.0601-.0423-.052.0266-.0604.0418-.0836.0911-.3705.3196-.4512.2141-.8448.3624-.011-.0206-.0194-.0373-.0283-.0538.3736-.3005.8007-.6142,1.1291-.9598-.3948-.0892-.5442.0009-.581-.5457q.0384-.0413.1117-.0689c.043.0199.0861.0392.1313.0632.1735-.1238.3504-.4298.5057-.6233.2572-.1671.7747-.897,1.0646-.8838.1501-.0783.3896-.0295.5422.0012.0281.0539.0584.1118.089.1702-.0144.0974-.2051.4238.0076.3598q.0822.1365.0952.1931c-.544.3985-.5483.5987-.6733,1.2544.0085.0061.0196.0161.0301.0264.232-.1845.6298-.2925.8776-.1108.0089-.0046.0173-.0091.0303-.0156.0521.131-.0397.3322.0531.4471-.0976.0517-.2452.38-.1788.4523.1482-.0201.4023-.0598.4737.1321-.0604.0528-.1204.1052-.1759.1552-.0022.0171-.0041.0341-.006.0509.0447-.0077.2058-.1182.6764-.3698.2646-.0566.6566-.0811.8119.1718-.0127.0065-.026.0132-.0322.0218.3365.6539-.5382,1.0968-.9427,1.232-.0906.2266-.2803.1107-.4725.2576.049.4658.2091.6862.5222.9984.0995.2012.2036.4003.3096.6034-.0849.4429-.4511.0531-.637-.0258ZM10.7941,15.7499c-.2282.0002-.2945-.164-.1416-.2608.0697.0714.123.152.1639.239-.0096.0098-.0161.0155-.0223.0218ZM10.5121,16.459c-.1396-.1183-.2906-.2735-.1599-.4611.1099-.0095.1025.0342.2203-.0507.1576.1613-.0296.1945.062.3923-.0635.0377-.0796.0533-.1224.1195ZM10.7895,16.8407c-.0219.0031-.0406.0093-.0563.0122-.1711-.1762.0075-.2353-.03-.4233.0387-.0435.0777-.0877.1229-.1315.0057.006.0153.0092.0242.0126q-.0079.0622.0123.1088c-.0597.127-.026.2993-.0731.4212ZM11.8115,16.2818c-.0435.0005-.0591-.0028-.0891-.0466.0331-.05.0189-.1029.0055-.1555.0163-.0282.0122-.1241.0353-.1522.0214.0094.1444.0389.169.0448-.0435.0435-.0827.2245-.1207.3095ZM11.7916,17.2851c-.0914-.0683-.1601-.1582-.2447-.2389.0769-.0753.1463-.0942.2507-.1346.0892.13.1202.2916-.006.3735ZM12.1024,17.1157c-.0154-.183.0435-.2892.1855-.4279.1642.0339.2296.1272.3216.2671-.0452.1049-.4283.2406-.5071.1608ZM14.494,17.0003c-.2485.18-1.103.4352-1.4381.3233-.0356.0406-.0358.0531-.0157.0937-.0093.0094-.0191.019-.0225.0279.0624.344-.0272,1.0095-.3267,1.2415-.0091-.0094-.0151-.0156-.0214-.022-.0788.0282-.1408.0162-.1819-.0521.2132-.1949.1199-.8129.2327-1.1259-.1209-.1237-.4125-.0696-.5731-.016-.0978.1545.038.5223-.0545.7227.0384.0654-.027.2558-.094.3031-.0609-.044-.1219-.0873-.1767-.1305q-.0329-.1308-.0447-.2519c.03-.1562.0745-.3805-.0115-.5139-.0414.0154-.082.0313-.1202.05-.0613-.0307-.1.0005-.1628.0255-.0242-.025-.0483-.0497-.066-.0743.0062-.0127.0168-.0281.029-.0406-.1122-.1327-.3836-.6492-.1492-.7785.0639.0468.0923.1336.1793.1458.0982-.0595.5499-.3295.3197-.4379-.1267.0507-.2277.0947-.3428.1762q-.0452-.0404-.1043-.1458c.0033-.0095.01-.0222.0197-.0316-.0089-.0091-.0147-.0154-.0209-.0219.0231-.0464.0466-.0932.0697-.1398-.0169-.05.163-.412.2055-.4716.0281-.1279.3273-.662.1688-.7796-.1006.0421-.1508.1769-.2361.2596-.0272-.0278-.0543-.0557-.075-.0841.019-.0375.0279-.0486-.0603-.068.1026.4723-.3097,1.142-.3675,1.6186-.0318.031-.0608.0592-.0868.0904.1406.3144.0552.5485.4113.8739-.0662.1128.2232.5258.2901.6656-.0404.2356.0249.3973-.1013.636-.2016.1955-.1876.2464-.4999.3351-.1002-.1019-.1014-.1553-.044-.2832-.0091-.0093-.0153-.0156-.0213-.0216.5038-1.0124-1.3086-2.5498-1.163-3.5658-.0324-.0591-.0475-.0745-.0332-.137-.0117-.0122-.0239-.0248-.0328-.0339-.0996.0844-.2438.2127-.2486.3559-.206.2003-.4182-.0701-.5389-.2001.2113-.3039.5346-.487.6697-.8562.1224-.1192.1557-.1877.1704-.3529-.0096.0029-.019.006-.0284.0094-.0091-.0094-.0151-.0154-.0211-.0218-.0563.103-.1276.1905-.2296.2536-.1971-.2022-.1011-.3361-.4398-.1888q-.0423-.037-.0688-.0896c.1759-.2363.1829-.4413.4803-.5753.1264.034.4841.0664.5098.2284.0646.0216.1767-.1598.2831-.1723.0394.0342.0786.068.1243.1021-.0486.1104-.2087.3808-.1774.4806-.3028.3509-.0968.7357-.1666,1.1035.012.0127.0241.0249.0392.0401.0442-.0301.1943-.0541.2414-.0289.2432-.1161.1687-.309.0052-.4579-.2442-.0641-.2336-.1047-.1454-.3234.2064-.201.3759.0136.5125.1537.0182-.0002.0373-.0002.0591-.0033.0635-.1344.2493-.2844.399-.2849.1678.1145.1115.2048.0914.3642.1634.0459.1281.0741.211.2108.1031-.1002.1632-.2313.2237-.3625.2044-.1355.5784-.474.7825-.1026-.01.0156-.0164.0279-.0203.0435.0409.0873-.1482.2593-.2127.3153.0019.0068-.13.6519-.175.6957.0072.0654-.0002.1028.0258.162-.0207.0624-.0661.2091.0271.2271.0786-.1122.1298-.1623.2265-.2502.0805.0123.1754-.0317.1786-.1253q.0867-.0841.2076-.1658c.087.0183.193.0181.208.13-.1546.1503-.3243.388-.3902.5904.0341.2024.188.4571.3197.6187.099.0245.2846-.0294.3735-.0794.0414.0426,1.359-.5504,1.7852-.8357.0121.0123.0272.0217.0428.0308-.0704.3398-.3882.7336-.6122.9997ZM63.9367,24.846c.8778-.3762.7537-.1464.6634.4615-.2288-.0443-.3492-.4197-.6413-.3755-.0079-.0307-.0158-.061-.0221-.086ZM63.3666,25.0722c.392-.2654.8114.0689.9412.4716.0138-.0034.0284-.0019.0389.0012-.0026.0277-.004.06-.0098.0942-.1144-.1217-.3601-.1896-.5187-.348-.018.0045-.0363.0091-.0546.0139.0346.1151.1015.3028.1974.3757.011-.0135.022-.0269.0344-.0356.1601.042.1434.2055.1506.3065-.0689-.0041-.0918-.0195-.1516.012-.074-.2966-.5084-.5265-.6278-.8915ZM62.9339,25.1387c.0716-.0232.144-.0418.2123-.0591.0002.1349.0423.318-.1364.2613-.0617-.1031-.067-.087-.0759-.2022ZM63.3466,26.0726c-.4149.0837-.6879-.5995-.9064-.8237.0053-.0178.0106-.0354.0125-.0464.1091.0334,1.2855.7485.8939.8701ZM62.8183,25.1578c-.0046-.1185-.1259-.1733-.2533-.1405-.0104-.0406-.021-.0809-.0308-.1217.1476-.1023.3511-.251.5243-.2736.0586-.3351-.4178-.4305-.0549-.7089-.0022-.0264-.0043-.0528-.0094-.0731-.3093-.1692-1.2241.1688-1.5398.2308-.1879.0586-.591.1452-.9275.2469-.1616.0308-.4257.0928-.4221-.1779.157-.1803.0918-.417.341-.4807.6539.1336,2.5619-.4358,3.1039-.4933.1928-.0201.2765-.2305.3021-.3966.026-.0117.0471-.0226.0688-.0336.0908.3503,1.2729.848.6101,1.3708q-.3298.0139-.4445,0c-.0918-.3608-.5281.1291-.6156.2003.0062.0254.0085.0516.0116.0831.3579-.0613.605.013.9609-.0774.07.1231.3493.2865.462.4485.2846-.0716.1988.1658.3334-.2091.3802-.0971.5439.5983.2317.8146-.0568.2137-.2351.2538-.4285.3086q.0012.0433.0684.1553c.2055.1764.3437.9405-.0579.9857-.2096-.1408-.6216-.543-.7196-.7391-.0829-.0219-.1472.0106-.2277.0362.0022.0404.0421.2982.0556.3313-.2339.0382-.3704-.0366-.4301-.0464-.1129-.0187.0385.0375.2169.4404-.032.0082-.0313.0297-.0418.0648q-.1279.0863-.2142.184c-.4223-.1123-.5007-.6032-.9619-.5152q-.045-.0428-.0669-.0911c-.4776.1419-.8169.4032-1.2708.5567-.0269.6142.3832,1.2182.404,1.2346.1318.1023.2048-.059.731-.1063.0144.0558-.0062.0877.0041.1283-.4108.1493-.6094.7433-1.0256.8466-.8486-1.4092-1.0102-1.9606-.3983-2.4233.3553-.2688.8898-.314,1.291-.4983-.3596-.4161-1.162-.5891-1.7354-.968-.1462-.0963-.4103-.2271-.4832-.3646-.0105-.0029-.098.0197-.1118.0231-.0057-.0231.0428-.1399.0664-.1627.5764.1396,1.1651.7819,1.8496.7746-.1089-.2439-.0705-.3375-.0726-.5694.156-.0288.3293-.03.4858-.0269.0351.1315.2773.2695.4216.2325ZM48.5387,7.8098c-.0015-.0229-.0065-.0433-.0082-.0597.1039-.082.3774.075.4257.2242-.1149.0936-.3303-.0855-.4175-.1645ZM49.78,9.7608c-.0592-.3361.185-.349.3585-.5204.2388-.0397.5746.0048.5633-.3324-.0346-.0501-.0695-.0998-.1015-.1462.0243-.0197.0483-.033.0719-.0464.0495.032.099.064.1446.0985.1695-.0836.4974.2621.5642.394-.1517.2986-.8165.2462-1.1232.3502-.1428.1161-.2776.3702-.4778.2027ZM48.17,8.1758q.0283-.1433.0735-.2517c.0979-.0079.1584.3154-.0735.2517ZM52.4701,8.2546c-.2158.1757-.4822-.0939-.6244-.2545-.0801-.0555-.1738-.0925-.2359-.1685.0114-.1353.2738-.0488.3515-.0457.1182-.0963.0973-.2713.0031-.3869-.3668-.0447-.6716.0636-1.0405.1023-.2354-.0966-.5541.0243-.5488.3152.0209.0545.0459.1126.0697.1711q-.0221.0363-.0907.0738c-.1725-.1058-.3482-.1433-.5287-.1945-.0315.026-.0635.0574-.0952.0897.061.1245.1219.2492.1827.3742-.0017.0615-.0043.1296-.0065.1976-.2411.2021-.3764.2283-.6873.1449-.2854.0767-.5074-.2598-.7388.0253.0459.1062.125.1683.2252.2127.0604.0594.1709.1671.1832.2536-.1746.1841-.4337.029-.6086-.0575-.0682.0019-.1399.0063-.2087.014-.1927.0911-.4059.355-.6155.2971-.0491-.1524.0426-.2748.0288-.4197-.1269-.1558-.3798-.1957-.5382-.319-.1576-.0516-.415-.1965-.4994-.3502.018-.216.2639-.1522.4341-.1075.2194.2058.5064.3087.7934.3695.2377.1783.3764.0356.5581-.1543q-.0127-.0438-.0949-.1454c-.013-.001-.0255-.0027-.0387-.0043-.026.0394-.0519.0788-.075.1216-.1546.0235-.3219-.0325-.3721-.2079.1032-.2173.3933-1.0987.6055-1.0281.0443.0544.0885.1084.1325.1625.049.3447.3773.264.6319.399q.1384.1695.1812.2008c.1029-.0299.1432-.1585.1663-.2435-.0769-.088-.2887-.2337-.3992-.1919-.1127-.0882-.1856-.1492-.2695-.267.0222-.1144.0709-.1899.1428-.2729.3373.1376.6624.195,1.0218.3941.2367-.001.2372-.1573.2961-.3198.0522-.0425.1353-.0683.1702-.0966.0683-.1937-.0433-.2949-.2358-.3183-.1091-.0554-.3538-.1206-.361-.2653.2543-.2069.3175-.186.6595-.0081.1029.0122.2949.006.3534.1209-.357.3444.0519.6186.3901.7278q.0882-.0058.2122.0255c1.2239-.2459,1.236.545,1.1201,1.0342ZM49.5487,9.0358c.0513-.0293.1024-.0594.1536-.0889.0844.0393.2801-.0479.3848-.0611.0236.0291.0469.0574.0705.0865-.1433.1231-.3164.2519-.4742.3568-.1221.1351-.244.2766-.3666.4185q-.238.1697-.5382.4268c.2887.8435.1709.4401.6538.9809.1949.076.6415-.1797.6571-.3668.0306-.0127.0607-.0254.0911-.038.088.1085.0291.1565-.0411.2555-.0168.1993-.1494.457-.2478.6347.0111.0211.0188.0447.0296.072-.0758.1279-.1623.1921-.2837.2853-.5047-.061-1.0485-.9306-1.1736-1.4056.0055-.1428-.0195-.3084-.0147-.3665.2569-.6274.5315-.8495,1.0994-1.1901ZM27.9628,5.0955c.0188-.1341.175-.1757.2079-.2805.0127-.007.0265-.0091.0447-.0122-.0031-.0178-.0062-.0354-.0093-.0529-.3935-.0169-.7199-.0132-1.086-.0294-.0459-.0459-.032-.0755-.0082-.1247.8836-.1546,1.69-.629,2.6032-.7622.0113.0387.0351.0659.0755.0817-.0702.4983-1.4526.9867-1.8278,1.1802ZM28.0178,6.7598c-.3636.0058-.9484.0324-1.2044-.2243.0029-.0098.0106-.0204.018-.0307.8144-.0169,2.7957-1.2009,3.9881-1.1877.1109.0442.2388.107.2815.2168-.6319.3764-.2911.6961-1.7814.8833-.3129.2251-.9271.2669-1.3018.3426ZM4.1499,24.5789c.056-.0831.0947-.1106.1781-.1574.1329.0616.3781.1163.5298.0822.0865-.2904.1483-.5834.2548-.8691-.0108-.0051-.0217-.0102-.0308-.0188.0175-.1413.1993-.6826.3702-.7122.1115-.1654.2375-.2476.354-.0665-.0139.125-.1221.3011-.1901.41-.0428.1481-.0834.292-.124.4363.042.0696-.0055.1062-.0152.1836-.0689.1488-.1877.6016-.08.7557.1262.0584.257.1147.3882.1711.0033-.0074.0067-.0146.012-.0259.0108.0048.0231.0063.0394.0094.0834-.1792.1666-.3397.2858-.493.0087-.0005.023-.0029.0373-.0053.1199-.2206.3408-.1408.5134-.0517.0672.081.1365.1586.2086.2377.1178.232.7461,1.1973.8134,1.1569.0752-.1147.15-.1343.2629-.0683.0772.1267-.035.2555.0856.3341-.007.0151-.0084.0279-.0101.0409.0089-.0005.0181-.001.0267-.0015-.0033.0077-.0033.0168-.0031.026.0755.0352.0964.1308.1934.1574.0946-.1189.134-.3636.3123-.3715.4396.2391.4164.4472.4635.9223.0471.04.0958.0758.1444.1124-.0123.026-.0242.0521-.0307.076-.5341.0243-.1361.7062-.2753.9691-.0605.0173-.1209.0342-.1814.0517-.1224-.0565-.2159-.1091-.3188-.1978-.1504-.0243-.2815-.0628-.2944-.232-.013-.0103-.0252-.0206-.0349-.0293.0764-.1642.0507-.2488-.0305-.4131-.0911-.1058-.1313-.1789-.137-.3174-.0106-.005-.018-.0086-.025-.012-.0245.0343-.049.068-.0702.1036.027.1212.0447.2339.0805.3546-.0437.0841-.0851.1735-.1519.2422-.0433-.0201-.0865-.0401-.1279-.0639-.0096-.0444-.1518-.7459-.3542-.6675-.0743.1161-.1162.2701-.1991.4103.0822.0293.145.0267.233.0447.2713.149.2918.3308.0268.5341-.0086.0004-.0163-.0032-.0228-.0065-.0055.0111-.0086.0188-.0125.0262-.0197-.0045-.0396-.0093-.0558-.0122-.2382.1769-2.1615-.688-2.0432-1.2841-.0107-.0048-.0215-.01-.0306-.0187-.1885-.7805-.1906.1719-.1921.3098.032.0918-.0519.1976-.011.3164-.0363.0872-.0476.1773-.0175.2636-.0279.2377-.0112.5046-.0789.7252-.0055.0877-.0798.4067-.0755.4449.0161.0123.0361.0259.0572.036-.0168.0556-.0213.1029-.0507.1575-.1286.0038-.3088-.0981-.1711-.2336.2009-.8909-.0985-2.1698.1754-3.118-.2744-.1692-.4139-.4765-.8272-.411-.0607.1302-.0528.3016-.0578.4441-.0291.1003-.0579.1998-.0848.2959-.2426.2726-.2022-.7677-.3769-.8454.0139-.0297.0016-.1262.0117-.1757.3346-.0072.2628-.7949.8776-.5533-.0072.0149-.0139.0296-.0206.0447.0091.0084.0216.019.0344.0296-.0315.1041-.2854.4558-.1568.5165Z" fill="#005795" fill-rule="evenodd" stroke-width="0"/><g id="i"><path id="j" d="M29.4105,53.14v-1.1436c0-.2824-.0928-.4666-.277-.5532-.0984-.037-.148-.0985-.148-.1842,0-.074.0677-.1291.2031-.1661.0739-.0244.1353-.0432.1849-.0551.0615-.0252.141-.0676.2393-.1291.1236-.0866.2219-.1298.2952-.1298.1967,0,.2951.111.2951.3321v2.029c-.0371.3448.0496.5596.2581.6462.1724.1102.2464.203.222.2761,0,.0741-.0434.1111-.1291.1111-.0614,0-.1849-.0064-.3691-.0181-.1842-.0126-.314-.0189-.3873-.0189-.1109,0-.2644.0063-.4612.0189-.1597.0117-.2708.0181-.3321.0181-.0858,0-.1291-.037-.1291-.1111,0-.0731.0741-.1533.2212-.2392.2464-.0983.3502-.3257.314-.6831ZM31.5465,51.9414c.0741-.6517.3755-1.0389.9043-1.1625.0732,0,.1102.037.1102.111,0,.0126-.0244.0677-.074.166-.1102.1968-.166.3935-.166.5903,0,.3935.1605.6823.4801.8674.1228.0731.1841.1346.1841.1842,0,.1353-.1598.2029-.4793.2029-.6147-.0614-.9349-.3816-.9594-.9593ZM31.8606,54.1734c-.1354,0-.2032-.0307-.2032-.0921,0-.0496.1103-.111.3323-.1849.8483-.2952,1.2726-.8359,1.2726-1.6229,0-.4306-.148-.8484-.4431-1.2546-.0615-.0739-.0921-.1228-.0921-.1472,0-.0739.0432-.1047.1291-.0928.787.148,1.1994.6462,1.2356,1.4946-.0858,1.1435-.8295,1.7771-2.2312,1.8999ZM34.8819,52.0893l.5352-1.2545h.4424c.1723.0739.3565.1102.5532.1102.1354,0,.2464-.0181.3321-.0551.0252,0,.056-.0126.0921-.037.0622-.0118.1047-.0181.1299-.0181.0732,0,.1102.0425.1102.129-.1471.3439-.566.5407-1.2545.5903-.1102,0-.2023-.0062-.2763-.0188-.0126-.0119-.0306-.0181-.0551-.0181l-.351.7563c-.0118.037-.0551.055-.1291.055-.0983-.0117-.1472-.055-.1472-.1291,0-.0243.0055-.0432.0181-.055v-.0551ZM35.5832,52.2735c-.148,0-.2157-.0371-.2031-.111.0244-.1598.2456-.2455.6643-.2581.6634.037,1.0208.3691,1.0695.9963-.0983.8485-.6705,1.2727-1.7156,1.2727-.529,0-.7926-.074-.7926-.2212.0118-.0866.0552-.1291.129-.1291.0245,0,.0615.0056.1102.0182.0244,0,.0614.0062.111.0188.0985.0118.1904.0182.2763.0182.6524-.037,1.0027-.3629,1.0514-.9776-.0118-.4061-.2454-.6147-.7004-.6272ZM39.7481,50.9269v3.1725c0,.0496-.0243.074-.0731.074h-.6832c-.0118,0-.0118-.0126,0-.037v-2.7672h-.0181l-.9964,1.4395h.7753v.5532h-1.1067c-.0864.0119-.1298-.0306-.1298-.1291v-.351c0-.0487.0126-.0921.037-.129l1.3286-1.8811c.0613-.0739.1164-.1047.166-.0928h.5903c.0984-.0119.1354.037.1101.148ZM39.9332,52.8087h.2762c.0613-.0126.0929.018.0929.092v.3873c0,.0369-.0316.0613-.0929.0739h-.2762v-.5532Z" fill="#005795" fill-rule="evenodd" stroke-width="0"/><path id="k" d="M41.4761,52.3053h2.7242v.5726h-2.7242v-.5726ZM24.8828,52.3053h2.7242v.5726h-2.7242v-.5726Z" fill="#005795" fill-rule="evenodd" stroke-width="0"/></g><path id="l" d="M52.0377,47.5232h-13.906l-3.5903,2.7202-3.59-2.7202h-13.906c-.2247-.3023-.4417-.6107-.6508-.9248h14.7926l3.3542,2.4842,3.3544-2.4842h14.7927c-.2091.3141-.426.6225-.6508.9248ZM54.2169,43.9055c-.3416.7163-.721,1.4112-1.1359,2.0818h-15.1852l-3.3544,2.4841-3.3542-2.4841h-15.1851c-.4149-.6706-.7944-1.3655-1.136-2.0818h16.5897l3.0856,2.2461,3.0857-2.2461h16.5898Z" fill="#005795" fill-rule="evenodd" stroke-width="0"/><g id="m"><path id="n" d="M34.5809,16.7401c.849,0,1.5373.6882,1.5373,1.5372s-.6883,1.5373-1.5373,1.5373-1.5373-.6883-1.5373-1.5373.6883-1.5372,1.5373-1.5372Z" fill="#005795" fill-rule="evenodd" stroke-width="0"/><path id="o" d="M43.9684,17.0899c.6558,0,1.1874.5317,1.1874,1.1874s-.5316,1.1874-1.1874,1.1874-1.1874-.5316-1.1874-1.1874.5316-1.1874,1.1874-1.1874Z" fill="#005795" fill-rule="evenodd" stroke-width="0"/><path id="p" d="M39.3082,15.5441c.6557,0,1.1874.5316,1.1874,1.1874s-.5317,1.1873-1.1874,1.1873-1.1873-.5316-1.1873-1.1873.5315-1.1874,1.1873-1.1874Z" fill="#005795" fill-rule="evenodd" stroke-width="0"/><path id="q" d="M29.8086,15.5441c.6558,0,1.1874.5316,1.1874,1.1874s-.5316,1.1873-1.1874,1.1873-1.1873-.5316-1.1873-1.1873.5316-1.1874,1.1873-1.1874Z" fill="#005795" fill-rule="evenodd" stroke-width="0"/><path id="r" d="M25.1149,17.0899c.6557,0,1.1874.5317,1.1874,1.1874s-.5317,1.1874-1.1874,1.1874-1.1873-.5316-1.1873-1.1874.5315-1.1874,1.1873-1.1874Z" fill="#005795" fill-rule="evenodd" stroke-width="0"/><path id="s" d="M34.5415,38.7855l.0002-.0002,3.9443,3.8238v-2.7214c0-.4656-.1964-1.037-.4364-1.2697l-3.5079-3.4009-.0002.0002-.0002-.0002-3.5078,3.4009c-.2401.2327-.4364.8041-.4364,1.2697v2.7214l3.9442-3.8238.0002.0002ZM21.2067,23.685v10.0903c0,2.3017,2.5298,4.3553,4.7626,6.1674,1.0787.8753,2.0976,1.702,2.792,2.5058l.1657.1914-.0006-.2409-.0012-2.2203-.0012-1.1663v-.0153l-.0063-.0155c-.2031-.4488-.9243-1.1514-1.4998-1.5854l-.1931-.1442c-1.0792-.8014-3.0872-2.2912-3.0872-4.939v-11.9347l-.1625.171c-.1221.1276-.3556.3246-.6253.5523-.8539.7201-2.1431,1.8077-2.1431,2.5834ZM25.8828,20.5901v12.5543c0,1.0831,1.3078,2.1735,2.9632,3.5526l.1558.1293s0-.1887,0-.1887l-.0193-7.9201-.0131-5.0325c0-1.0386-2.8163-3.0713-2.936-3.1577l-.1506-.1078v.1706ZM30.532,23.685l-.0124,5.0325-.0193,7.9201-.0006.1892s.1556-.1298.1556-.1298c1.6554-1.3797,2.9634-2.469,2.9634-3.5526v-12.7249l-.1508.1073c-.1195.0863-2.9359,2.1196-2.9359,3.1582ZM47.8764,23.685v10.0903c0,2.3017-2.5299,4.3553-4.7627,6.1674-1.0787.8753-2.0976,1.702-2.792,2.5058l-.1657.1914.0006-.2409.0013-2.2203.0012-1.1663v-.0153l.0063-.0155c.203-.4488.9242-1.1514,1.4997-1.5854l.1931-.1442c1.0793-.8014,3.0872-2.2912,3.0872-4.939v-11.9347l.1625.171c.1221.1276.3557.3246.6253.5523.8539.7201,2.1432,1.8077,2.1432,2.5834ZM43.2003,20.5901v12.5543c0,1.0831-1.3079,2.1735-2.9633,3.5526l-.1557.1293s0-.1887,0-.1887l.0193-7.9201.0131-5.0325c0-1.0386,2.8163-3.0713,2.9359-3.1577l.1507-.1078v.1706ZM38.5511,23.685l.0124,5.0325.0193,7.9201.0006.1892s-.1557-.1298-.1557-.1298c-1.6554-1.3797-2.9633-2.469-2.9633-3.5526v-12.7249l.1507.1073c.1196.0863,2.936,2.1196,2.936,3.1582Z" fill="#005795" fill-rule="evenodd" stroke-width="0"/></g></g></g></g></g></svg>