<svg width="515" height="515" viewBox="0 0 515 515" fill="none" xmlns="http://www.w3.org/2000/svg">
<path fill-rule="evenodd" clip-rule="evenodd" d="M257.88 16.3876C391.4 16.3876 500.46 125.449 500.46 258.97C500.46 392.49 391.4 501.55 257.88 501.55C124.36 501.55 15.3002 392.49 15.3002 258.97C15.3002 125.449 124.36 16.3876 257.88 16.3876ZM257.88 103.58C343.34 103.58 413.27 173.505 413.27 258.97C413.27 344.44 343.34 414.36 257.88 414.36C172.41 414.36 102.49 344.44 102.49 258.97C102.49 173.505 172.41 103.58 257.88 103.58ZM257.88 203.145L242.05 219.835L257.88 237.101L273.7 219.835L257.88 203.145ZM248.67 151.06C248.67 147.607 248.67 145.017 248.67 141.564C250.4 138.111 254.42 136.097 257.88 135.809C261.04 135.809 265.07 137.823 266.8 141.564C266.8 145.017 266.8 147.607 266.8 151.06C289.24 173.505 310.83 197.102 332.98 219.547C332.98 219.547 346.22 219.259 349.67 219.835C359.17 220.986 357.16 234.511 348.81 233.935C346.8 233.647 341.62 234.799 334.13 233.935C328.38 233.072 324.35 231.345 322.05 229.043C303.63 210.339 284.93 191.634 266.51 173.218C266.51 179.548 266.51 185.591 266.51 191.922C288.96 214.08 312.26 236.237 334.71 258.68C340.75 258.68 345.36 258.97 351.4 258.97C358.31 261.85 358.02 268.18 353.41 272.21C347.08 272.5 339.89 272.78 333.56 272.21C329.24 272.21 324.06 268.47 320.61 265.01C307.95 253.22 297.01 241.705 284.35 229.907C282.62 232.209 280.61 234.511 278.88 236.813C296.15 256.38 314.57 275.95 334.42 295.23C340.75 296.38 345.93 295.52 351.11 296.09C360.9 297.24 358.59 309.33 352.55 310.48C348.81 311.06 340.75 310.77 334.42 310.48C329.53 309.62 327.52 308.47 325.5 306.45C303.63 288.32 285.5 267.32 267.09 247.46C267.09 253.22 267.09 257.82 267.09 263.57C286.94 284.58 309.1 308.18 327.52 326.02C330.97 330.05 334.13 333.21 337.88 334.08C343.34 335.51 348.52 333.5 352.55 334.36C359.46 336.38 360.03 345.01 353.13 347.89C351.4 348.75 349.96 348.75 334.13 348.75C331.83 348.75 324.93 343.86 323.77 343C321.76 341.56 260.18 277.1 258.45 275.95C256.73 277.1 195.15 341.56 193.13 343C191.98 343.86 185.07 348.75 182.77 348.75C166.95 348.75 165.51 348.75 163.78 347.89C156.87 345.01 157.45 336.38 164.36 334.36C168.38 333.21 173.56 335.51 179.03 334.08C182.48 333.21 185.65 330.05 189.39 326.02C207.52 308.18 229.39 284.58 249.53 263.57C249.53 257.82 249.53 253.5 249.53 247.46C231.12 267.32 213.27 288.32 191.41 306.45C189.39 308.47 187.38 309.62 182.48 310.48C175.87 310.77 167.81 311.06 164.36 310.48C158.31 309.62 156.01 297.53 165.79 296.09C170.69 295.52 176.15 296.38 182.48 295.23C202.34 275.66 220.47 256.09 238.02 236.813C236.3 234.511 234.28 232.209 232.55 229.907C219.89 241.705 208.96 253.22 196.3 265.01C192.84 268.47 187.66 272.21 183.35 272.21C177.02 272.5 169.82 272.5 163.49 272.21C158.89 268.18 158.6 261.85 165.51 258.97C171.55 258.97 176.15 258.68 182.2 258.68C204.64 236.525 227.66 214.367 250.11 191.922C250.11 185.591 250.11 179.548 250.11 173.218C231.69 191.922 213.27 210.627 194.86 229.043C192.56 231.633 188.53 233.072 182.77 233.935C175.29 234.799 170.11 233.647 168.1 233.935C160.04 234.511 157.74 220.986 167.23 219.835C170.97 219.259 183.92 219.547 183.92 219.547C206.37 197.102 227.66 173.505 249.82 151.06H248.67ZM294.42 349.9H291.26V336.09C290.39 336.67 289.53 336.95 288.09 337.53C286.94 338.1 285.79 338.39 284.64 338.68V336.67C286.37 336.09 288.09 335.51 289.24 334.65C290.68 333.79 291.55 332.92 292.12 332.35H294.14V350.19L294.42 349.9ZM260.18 345.3L263.63 345.01C263.92 346.16 264.5 347.03 265.36 347.6C266.22 348.18 267.37 348.46 268.52 348.46C269.96 348.46 271.4 348.18 272.55 347.31C273.7 346.45 274.28 345.59 274.28 344.15C274.28 343 273.7 341.85 272.84 341.27C271.69 340.41 270.54 340.12 268.81 340.12C267.66 340.12 266.8 340.41 265.94 340.69C265.07 340.98 264.5 341.56 263.92 341.85L261.04 341.56L263.63 332.35H276.58V334.36H266.22L264.78 339.26C266.22 338.39 267.95 338.1 269.68 338.1C271.98 338.1 273.99 338.68 275.43 339.83C276.87 340.98 277.73 342.42 277.73 343.86C277.73 345.59 277.16 346.74 275.72 348.18C273.99 349.61 271.69 350.48 268.81 350.48C266.51 350.48 264.5 349.9 263.06 349.04C261.62 348.18 260.76 347.03 260.47 345.3H260.18ZM251.55 338.1C251.55 336.95 250.97 335.8 250.11 335.23C249.24 334.36 248.09 334.08 246.66 334.08C245.22 334.08 244.07 334.36 242.91 335.23C241.76 336.09 241.19 336.95 241.19 338.39C241.19 339.54 241.76 340.41 242.63 341.27C243.49 341.85 244.93 342.42 246.37 342.42C247.81 342.42 248.96 342.13 250.11 341.27C250.97 340.69 251.55 339.54 251.55 338.39V338.1ZM238.31 345.87L241.48 345.59C241.76 346.45 242.34 347.31 242.91 347.6C243.78 348.18 244.64 348.18 245.79 348.18C246.66 348.18 247.52 347.89 248.38 347.6C249.24 347.31 249.82 346.74 250.11 346.45C250.68 345.87 250.97 345.3 251.26 344.44C251.55 343.57 251.83 342.71 251.83 341.85C251.83 341.85 251.83 341.56 251.83 341.27C251.26 341.85 250.4 342.42 249.24 343C248.09 343.57 246.94 343.57 245.5 343.57C243.2 343.57 241.48 343 240.04 341.85C238.6 340.69 237.73 339.26 237.73 337.53C237.73 335.8 238.6 334.36 240.04 333.21C241.48 332.06 243.49 331.49 245.79 331.49C247.52 331.49 248.96 331.77 250.4 332.35C251.83 332.92 252.99 333.79 253.56 334.94C254.42 336.09 254.71 337.82 254.71 339.83C254.71 342.13 254.42 343.86 253.56 345.3C252.7 346.74 251.83 347.6 250.4 348.46C248.96 349.04 247.23 349.61 245.5 349.61C243.49 349.61 241.76 349.33 240.61 348.46C239.46 347.6 238.6 346.74 238.31 345.3V345.87ZM227.66 349.9H224.5V336.09C223.63 336.67 222.77 336.95 221.33 337.53C220.18 338.1 219.03 338.39 217.88 338.68V336.67C219.61 336.09 221.33 335.51 222.48 334.65C223.92 333.79 224.79 332.92 225.36 332.35H227.38V350.19L227.66 349.9ZM257.88 117.968C335.57 117.968 398.88 181.275 398.88 258.97C398.88 336.67 335.57 399.97 257.88 399.97C180.18 399.97 116.88 336.67 116.88 258.97C116.88 181.275 180.18 117.968 257.88 117.968ZM257.88 111.925C338.74 111.925 404.92 177.822 404.92 258.97C404.92 339.83 339.03 405.73 257.88 405.73C177.02 405.73 111.12 339.83 111.12 258.97C111.12 178.11 177.02 111.925 257.88 111.925ZM77.7401 185.591C78.3101 179.548 78.0301 173.505 78.8901 167.175C79.1801 164.585 80.0401 161.132 80.6201 157.391C80.9001 155.664 81.4801 154.513 81.7701 153.362C82.0601 152.211 81.1902 151.06 80.0402 150.197C78.6002 149.334 78.8902 147.319 79.1802 146.456C79.7502 145.017 79.4701 143.578 79.7501 141.564C80.0401 140.125 80.6201 140.125 81.1901 140.125C81.7701 140.125 82.3402 140.125 82.9202 140.701C83.4902 141.852 84.0701 141.852 85.2201 141.276C88.1001 139.262 89.8301 140.413 90.1101 142.14C90.4001 144.154 88.9601 146.168 88.9601 148.47C88.9601 150.485 90.1101 151.348 90.9801 151.348C91.5501 151.348 92.1301 151.06 92.1301 150.485C92.7001 145.017 95.0102 143.291 97.3102 143.578C98.4602 143.578 98.4601 144.729 98.7501 146.456C99.3201 148.182 100.47 150.197 101.05 152.211C101.62 154.513 100.18 155.952 99.0302 157.679C97.8802 159.405 99.3202 160.844 100.18 161.995C102.77 165.448 103.64 165.16 104.21 164.873C106.23 164.009 108.24 163.146 109.39 166.887C109.97 168.614 111.12 169.477 111.7 172.067C111.98 173.218 112.27 173.218 112.56 173.218C114 172.93 114 171.779 113.71 170.628C113.71 168.326 113.13 165.736 114 163.722C114.57 161.707 116.3 162.283 116.88 164.009C117.74 166.599 118.6 168.326 119.46 169.765C120.33 171.203 117.16 177.534 115.44 181.851C113.71 186.167 111.12 183.865 110.83 183.289C109.97 181.851 108.24 180.699 107.95 178.685C107.67 176.095 107.09 175.232 105.65 174.081C104.79 173.505 104.21 172.642 103.93 173.218C103.06 174.081 101.91 175.232 100.76 174.081C99.9001 173.218 100.47 172.354 100.76 171.491C101.34 170.052 99.9001 169.765 99.3201 168.901C97.8801 166.599 96.7301 165.448 95.5801 164.585C94.1401 163.722 94.1401 164.873 94.7201 166.599C95.2901 168.038 95.8701 169.477 95.8701 171.203C95.8701 172.354 95.5801 172.93 95.0101 173.793C93.5701 177.246 92.1301 176.959 91.2601 175.232C89.5401 170.916 89.2502 166.599 87.8102 162.571C86.3702 158.542 84.9302 159.693 84.9302 161.132C84.0702 167.463 85.2201 172.642 86.3701 177.822C86.9501 180.412 86.6602 182.426 84.9302 184.728C83.4902 186.455 82.6301 188.181 81.1901 189.908C80.0401 191.347 79.1802 191.634 78.0302 190.483C77.4502 189.908 78.0302 188.181 78.3102 186.742L77.7401 185.591ZM72.2701 167.463C72.5601 165.448 72.2701 163.434 71.7001 161.42C70.8301 158.83 69.6801 155.952 69.1101 152.787C68.5301 150.197 69.1101 147.895 68.8201 145.017C68.8201 144.154 68.8202 143.291 67.6702 141.852C66.5202 140.701 65.6501 139.55 65.3701 138.399C64.7901 136.097 64.7901 134.082 65.0801 132.068C65.3701 130.917 65.9401 130.054 67.0901 129.766C68.2401 129.766 70.8301 129.478 72.8501 130.054C75.4401 130.629 75.1501 132.068 75.4401 133.219C76.0101 136.672 75.7301 139.55 75.4401 142.427C75.1501 144.729 74.8601 147.031 75.1501 149.334C75.1501 151.06 75.4401 152.787 75.1501 154.513C74.8601 157.679 74.8601 160.844 74.5701 163.722C74.0001 169.189 71.9801 168.038 72.2701 167.463ZM211.26 71.0626C211.55 69.6236 212.41 68.7606 213.27 68.7606C215.58 68.4726 217.3 69.3356 218.74 70.4866C221.04 72.7886 219.32 73.9396 219.03 75.3786C218.17 77.6806 219.32 78.5436 220.18 79.1196C223.92 81.4216 227.66 84.8745 230.83 85.7375C232.27 86.0255 233.71 87.1766 235.14 87.4646C236.87 87.7526 238.31 86.8886 239.75 87.4646C242.05 88.0406 242.63 89.1916 242.05 89.7666C242.05 89.7666 240.9 91.4936 239.17 91.7806C238.89 91.7806 236.87 92.0686 235.43 93.7956C234.28 95.2346 232.55 94.3705 230.83 94.3705C227.66 94.3705 227.38 94.0825 226.22 93.2195C223.35 90.9175 220.47 88.0406 217.59 85.1626C216.44 84.2996 215.86 85.1626 215.29 86.0256C214.71 87.1766 215 89.1916 213.85 91.2056C212.99 92.9316 211.55 94.3706 210.68 96.0976C210.11 97.5366 208.67 99.2626 206.94 100.702C206.37 101.278 205.79 101.278 205.22 101.565C204.35 102.141 204.07 103.292 203.2 103.292C202.05 103.58 201.48 102.429 201.76 100.99C202.34 99.5506 203.2 98.1116 204.07 96.9606C204.93 95.5216 205.79 93.7956 206.66 91.4936C208.09 88.3276 209.25 83.7236 209.82 79.6946C209.82 79.1196 210.4 78.2566 208.96 77.6806C206.94 76.5296 205.51 75.6666 204.07 74.5156C202.63 73.0766 204.35 72.7886 205.22 72.7886C206.37 72.5006 207.81 72.7886 209.25 73.3646C210.4 73.9396 210.97 73.6515 210.97 72.5005C210.97 72.2135 210.68 71.6375 210.68 71.3495L211.26 71.0626ZM208.09 60.4156C209.25 59.2636 210.11 58.1125 211.55 56.9615C214.43 54.9475 215.29 54.9476 216.15 54.9476C220.18 54.9476 220.18 56.0986 220.18 57.5376C220.47 58.6886 219.61 60.1276 218.17 60.9906C216.15 61.8536 214.71 62.4296 213.56 61.8536C212.99 61.5666 212.12 60.4156 211.55 61.2786C210.4 62.7176 210.11 65.0196 208.67 66.1706C207.52 67.0336 206.66 67.8966 205.51 68.4726C202.92 69.9116 202.92 71.3496 202.63 72.2136C200.04 74.5156 198.6 71.9256 198.89 71.0626C198.89 68.7606 200.61 65.5946 202.92 63.0046C203.49 62.1416 204.35 62.1416 204.93 62.1416C206.08 62.1416 207.23 61.5666 208.09 60.7026V60.4156ZM200.61 45.7396C200.04 44.8756 200.04 44.5886 200.33 44.0126C200.61 43.4376 200.9 43.1496 202.63 43.1496C203.78 43.1496 204.35 42.8616 205.22 42.8616C206.08 43.1496 206.66 43.1496 207.52 43.1496C208.67 43.1496 209.25 43.7245 210.11 44.8755C210.97 46.0265 212.41 46.3146 213.27 45.1636C214.71 44.0126 216.15 42.5736 217.59 41.7106C219.32 40.8476 219.89 41.4226 220.47 41.9986C221.33 42.5736 221.33 43.1495 221.33 43.7245C221.33 45.1635 218.17 46.3146 216.44 48.0416C215.58 48.6166 215 49.4806 214.43 50.0556C213.56 50.6316 212.99 50.9186 212.41 51.4946C211.55 52.3576 210.68 52.3576 209.53 51.7826C208.67 51.4946 207.52 52.0696 206.66 52.6456C205.22 54.0846 204.07 55.2356 203.2 56.3866C201.19 58.9766 199.75 59.8396 198.02 60.4156C196.58 60.7026 196.01 60.1276 195.43 60.1276C194.57 59.5516 194.57 58.4006 195.43 57.8256C196.58 56.9616 198.02 56.9616 199.17 56.0986C201.19 54.3716 202.92 52.6455 202.92 51.2065C203.2 48.3295 202.63 48.3296 201.76 46.8906C201.48 46.3146 200.9 46.0266 200.33 45.7396H200.61ZM437.73 146.168C437.73 147.895 437.15 149.909 435.71 152.499C433.7 155.089 432.55 154.513 431.4 154.226C429.96 153.65 429.67 152.211 430.82 149.909C431.69 148.182 432.84 147.031 434.56 145.88C436.86 144.729 437.44 145.305 437.73 145.88V146.168ZM410.68 165.736C413.56 168.614 416.43 171.491 420.75 173.793C423.05 176.095 425.35 178.11 427.66 180.412C429.38 181.275 430.82 182.426 431.11 185.591C431.69 188.757 429.67 191.634 426.51 186.742C424.78 186.167 423.34 185.016 422.48 182.138C421.61 181.275 420.75 179.836 419.02 181.563C417.87 182.714 416.43 184.153 415.28 185.304C412.12 186.742 408.95 188.469 405.79 189.908C404.35 190.196 403.2 189.62 402.91 187.893C401.18 185.016 400.03 181.851 400.03 177.534C399.74 175.232 399.74 172.93 399.46 170.628C399.74 168.326 400.61 168.326 402.05 170.34C402.91 173.505 403.77 176.671 404.64 179.548C405.79 181.275 406.94 182.714 408.38 181.563C411.25 180.412 414.13 178.973 416.72 177.822C418.16 177.246 419.02 176.383 416.43 174.081C413.84 173.218 410.97 172.642 409.53 169.477C408.95 166.024 408.66 163.146 410.97 165.736H410.68ZM423.63 166.024C424.2 167.463 424.78 168.614 425.64 169.189C426.51 169.765 427.08 170.916 427.66 171.491C428.52 172.067 429.67 172.354 430.25 173.505C431.4 175.52 430.25 177.246 428.81 176.959C427.66 176.671 427.08 175.232 425.35 174.944C423.63 174.656 422.48 174.369 422.76 172.067C422.76 171.203 422.76 170.052 422.48 169.477C421.33 167.463 421.33 166.311 421.61 165.736C421.9 165.16 423.34 164.585 423.92 166.024H423.63ZM454.99 155.089C456.72 155.664 459.02 155.089 459.89 154.801C461.32 154.226 462.76 155.664 465.35 154.801C467.08 154.226 467.94 155.089 468.23 156.815C468.81 160.268 467.66 163.434 464.49 163.146C462.19 163.146 460.17 161.995 458.16 160.844C457.3 160.556 457.3 159.405 456.43 159.117C455.86 158.83 454.13 159.117 454.42 159.693C456.14 161.995 459.02 163.146 461.04 164.873C461.9 165.448 462.48 166.311 463.34 166.887C465.35 168.326 467.66 169.477 469.09 171.203C470.82 173.505 471.11 175.808 467.66 176.671C465.93 177.246 463.63 177.534 459.6 176.383C456.72 175.52 454.13 174.369 449.53 174.081C445.21 173.793 444.35 174.944 445.5 176.383C447.22 178.397 449.53 180.124 450.97 182.426C452.4 185.016 452.98 187.893 447.22 187.318C446.65 187.318 444.63 185.016 442.33 185.016C441.47 185.016 441.18 185.304 438.88 181.275C438.02 179.836 437.15 178.397 435.43 177.246C433.41 175.52 430.25 172.354 429.96 171.491C429.38 170.628 429.96 168.038 431.69 169.765C433.41 171.491 436 173.793 437.44 175.232C439.17 176.671 440.89 177.822 442.04 178.11C443.2 178.397 443.48 177.822 442.33 176.383C441.18 174.944 439.74 173.505 438.02 172.642C436 171.779 434.56 171.203 434.56 169.189C434.56 168.038 433.12 167.75 432.55 167.175C428.52 164.297 425.35 161.995 416.15 160.556C412.98 159.981 410.1 159.117 409.24 157.966C407.51 156.24 407.8 153.074 412.41 153.362C415.86 153.65 419.31 153.65 423.63 153.938C426.79 153.938 425.64 156.528 424.49 156.815C421.61 157.679 417.3 155.377 415.57 156.528C413.27 157.966 420.46 158.254 423.92 159.405C427.66 160.556 430.82 163.722 435.71 166.599C436.58 167.175 439.45 165.736 438.59 164.873C437.44 163.146 438.3 163.434 438.3 161.995C438.3 160.556 434.85 160.268 431.69 159.405C429.38 158.542 429.67 157.103 432.26 156.815C434.27 156.528 435.71 157.679 437.44 157.679C438.02 157.679 439.17 156.528 438.59 156.24C437.15 155.089 436.86 154.226 437.73 152.787C440.03 150.197 442.33 147.895 444.63 145.017C445.79 143.578 447.51 144.729 447.22 147.031C446.94 148.758 446.36 151.06 444.06 153.362C442.33 155.089 440.61 156.24 441.47 156.815C442.62 157.679 444.06 157.103 446.07 157.103C448.09 157.103 447.8 154.801 449.24 153.362C450.1 152.499 452.69 154.513 454.71 155.089H454.99ZM453.27 162.571C453.55 164.009 452.98 165.448 449.53 166.311C447.22 166.887 445.79 166.311 444.92 165.448C444.63 164.873 444.06 164.297 444.35 163.722C444.92 162.858 446.07 162.283 447.51 162.283C448.38 162.283 449.24 162.858 450.97 162.858C451.83 162.858 452.98 161.995 453.27 162.571ZM446.36 168.614C447.22 169.477 446.65 169.477 445.79 169.477C444.35 169.477 441.76 169.765 439.45 168.901C438.59 168.614 439.17 166.599 441.18 165.736C442.62 165.16 444.92 166.887 446.65 168.614H446.36ZM458.16 164.873C456.72 163.722 455.57 164.009 454.99 165.448C454.71 166.599 453.84 167.175 453.27 168.326C452.98 168.901 451.83 169.477 452.12 170.052C452.4 170.916 453.55 170.628 454.13 171.203C454.42 171.491 455.86 171.203 459.02 170.916C460.75 170.916 462.19 171.491 463.91 171.203C466.22 170.916 462.48 167.175 458.16 164.297V164.873ZM397.73 88.6156C401.47 86.6016 402.33 89.4786 402.05 91.7806C402.05 93.5076 398.88 95.8096 395.14 97.5366C392.84 98.6876 393.99 99.2625 395.43 100.126C399.74 103.004 398.59 104.443 397.15 105.306C396.58 105.594 391.97 104.731 387.08 103.867C385.07 103.58 384.2 103.58 382.77 104.155C381.33 104.731 378.74 104.731 377.87 106.457C376.44 108.759 379.89 112.788 381.04 116.817C381.33 117.392 383.05 119.694 386.51 123.147C389.1 125.737 387.08 126.313 384.49 126.025C382.77 125.737 381.61 126.025 380.46 126.313C377.59 127.176 377.01 125.162 375.86 122.86C375 120.557 375 118.831 375.28 116.529C375.57 114.227 375.86 111.925 375.86 109.623C375.86 108.184 375.28 108.184 374.13 108.472C370.39 109.623 366.65 110.774 363.49 111.349C361.18 111.925 356.87 111.637 352.84 111.349C349.39 111.061 346.22 111.061 343.34 109.91C341.62 109.047 341.9 106.457 343.63 106.457C349.1 106.169 353.13 106.457 356.87 105.594C359.46 105.018 361.76 104.155 364.35 103.58C367.23 103.004 369.82 101.853 372.41 100.702C373.85 100.126 375.28 99.8386 377.01 99.2626C378.74 98.6876 378.45 97.2486 377.59 96.0976C377.3 95.2346 377.01 94.3706 376.72 93.5076C376.15 92.3566 377.01 91.2055 379.02 92.0685C379.6 92.3565 381.04 93.7956 382.48 94.6586C384.78 96.0976 385.64 95.5216 386.22 95.2346C390.82 92.9316 394.56 90.9176 398.59 88.9036L397.73 88.6156ZM143.06 114.515C143.35 113.939 143.35 112.212 144.21 111.061C145.08 109.91 146.23 109.91 147.09 111.061C147.67 111.925 148.53 112.5 148.82 113.363C149.1 114.227 148.82 115.378 147.09 117.68C146.51 118.255 145.65 118.543 145.36 119.119C144.5 120.27 143.64 120.557 142.77 119.119C142.2 118.255 142.49 116.817 143.06 114.802V114.515ZM144.79 94.9466C144.79 95.5216 145.08 95.8096 145.36 96.3856C145.65 96.9606 146.51 97.2486 145.36 98.6876C144.21 100.702 143.64 102.141 143.35 103.004C143.35 103.867 143.92 104.155 144.21 103.867C144.5 103.867 147.09 101.853 147.38 101.278C148.53 99.8386 147.38 98.1116 146.51 97.2486C146.23 96.9606 146.23 96.3856 146.51 96.0976C147.95 94.6586 147.67 93.7956 146.51 91.7806C145.94 90.9176 145.36 91.2056 144.79 92.3566C144.5 93.2196 144.5 93.7956 144.5 94.6586L144.79 94.9466ZM155.43 104.731C155.43 104.443 155.72 104.155 156.01 103.867C156.3 103.58 156.59 103.292 156.87 103.58C157.16 103.58 157.45 104.155 157.16 104.443C157.16 104.731 157.45 105.306 156.87 105.594C156.59 105.594 156.59 105.882 156.3 105.882C156.3 105.882 156.01 105.594 155.43 105.594C155.43 105.306 155.15 105.018 155.43 104.731ZM122.34 96.6725C123.21 96.0975 123.49 95.2346 123.78 94.6586C124.64 93.2196 125.51 92.3566 126.37 90.9176C127.52 89.1916 127.52 88.6156 126.95 87.7526C126.08 86.6016 125.51 85.7376 123.49 86.0256C122.63 86.3136 121.48 87.1766 119.75 88.0406C118.6 88.6156 118.03 87.7526 118.6 86.3136C118.89 84.8746 120.62 83.4355 122.92 82.2845C124.64 81.4215 126.08 81.4215 128.39 79.9825C129.54 79.4075 130.11 77.9686 130.69 77.1056C131.26 76.2416 132.99 76.8176 134.72 76.8176C136.15 76.8176 136.73 75.9546 137.59 74.2276C138.46 72.5006 140.18 71.6376 141.62 71.6376C145.94 71.6376 144.21 73.9396 143.92 75.3786C143.64 77.3926 140.47 81.1336 139.03 84.8746C138.17 87.7526 138.46 90.3426 138.46 92.9316C138.46 95.5216 139.61 94.9466 140.18 94.6586C141.91 94.0826 141.33 92.3566 141.05 91.2056C140.76 90.0546 139.9 89.1916 140.47 88.3276C141.62 86.3136 141.62 85.4506 142.2 84.2996C142.49 83.1486 143.35 82.5726 144.21 82.5726C145.36 82.5726 145.08 83.7235 145.36 84.5865C145.65 86.0255 146.23 85.4505 147.09 84.5865C148.24 83.4355 149.39 82.5725 150.54 82.2845C152.84 81.7095 153.13 82.8606 152.56 84.2996C151.41 86.8886 149.39 89.4786 149.68 92.9316C149.68 94.9466 151.12 95.2346 152.56 94.0826C153.42 93.2196 153.71 91.7806 154.57 90.3426C156.87 87.4646 157.74 88.3276 158.31 88.6156C159.46 89.1916 159.18 90.9176 158.31 92.3566C157.16 94.3706 155.43 95.8096 155.43 97.5366C155.43 98.9746 156.01 99.2625 156.87 98.9745C158.31 98.3995 158.89 98.3995 158.89 100.126C158.89 101.565 159.75 101.278 160.61 100.99C162.05 100.702 163.2 100.414 164.07 101.278C164.36 101.565 163.78 103.58 164.36 107.32C164.64 109.91 166.37 109.335 167.81 108.472C168.38 108.184 169.54 108.759 170.97 108.184C171.55 107.896 172.12 107.033 172.7 106.745C174.71 105.306 175.58 106.457 174.71 107.896C173.28 110.774 170.97 113.076 169.54 113.363C166.95 113.651 166.08 113.939 165.79 115.378C165.22 118.543 164.07 120.845 162.92 122.86C162.34 124.011 160.9 123.435 160.9 122.284C160.9 120.27 162.34 118.255 162.92 115.953C163.2 114.802 162.34 113.651 161.19 113.076C160.04 112.788 159.75 112.212 160.33 111.349C161.19 109.91 161.19 109.335 160.9 108.759C159.75 106.457 159.18 107.896 158.31 109.335C156.59 111.925 156.01 113.939 156.3 115.953C156.59 118.255 155.72 120.27 156.01 122.284C156.59 126.313 156.3 127.752 154.86 128.903C154.28 129.478 154 130.341 153.71 130.917C153.13 131.78 152.56 131.78 151.98 131.492C151.12 130.917 150.26 130.054 150.54 128.327C150.83 126.313 151.98 124.011 152.27 120.845C152.56 117.392 153.13 114.227 152.56 111.637C151.98 109.623 151.12 109.335 150.26 109.047C148.53 108.472 148.82 107.608 149.39 106.457C149.97 105.594 150.83 105.594 151.98 105.018C153.13 104.731 153.13 103.867 152.84 103.004C152.56 102.141 153.13 101.278 152.84 100.414C152.27 98.6876 151.12 100.126 150.83 100.99C150.26 102.429 148.53 104.155 147.95 104.731C146.51 106.169 145.65 107.033 143.92 106.169C143.06 105.594 142.49 105.882 141.33 105.306C140.76 105.018 140.76 104.155 140.47 103.58C139.61 102.141 139.03 103.292 138.74 104.155C138.46 105.882 139.03 107.608 138.74 109.335C138.46 113.363 138.46 116.817 139.32 120.27C140.18 124.011 140.76 127.176 139.61 131.492C139.03 133.507 139.32 135.521 139.03 136.96C138.46 140.701 137.02 141.852 136.15 142.715C135 143.866 135 142.715 135 141.564C135.29 138.399 135.87 135.233 135.58 131.492C135.29 130.054 135.29 128.903 135.58 128.039C135.87 126.025 135.58 124.874 135.58 121.709C135.58 117.68 135.29 112.5 135 108.184C135 106.169 135 104.443 135.29 102.716C135.87 100.126 136.15 97.5366 136.15 95.2346V94.9466C136.15 93.7956 136.15 92.6446 136.44 91.2056C136.73 90.3426 136.73 89.4786 136.44 88.6156C136.15 87.4646 135.58 86.8886 135 86.0256C134.14 84.8746 132.99 86.3136 132.13 87.7526C129.82 90.9176 127.23 93.5076 125.8 96.9606C123.78 101.853 123.21 101.853 122.05 102.141C121.48 102.141 120.62 101.853 120.04 102.141C118.6 103.004 118.03 103.58 117.74 103.292C116.88 102.716 117.16 101.853 117.74 100.99C118.89 98.9746 120.62 97.5366 122.34 96.3856V96.6725ZM282.05 77.6806C280.9 77.1056 280.04 77.9686 280.32 79.4076C281.19 80.8456 282.34 83.4355 279.75 83.4355C278.02 83.4355 276.29 82.2846 274.57 81.7096C273.13 81.1336 271.69 82.8606 273.42 84.2996C273.99 85.1626 274.86 86.3136 282.34 89.1916C286.08 90.9176 289.24 93.2196 292.41 94.9466C295.86 96.9606 299.03 101.278 302.48 100.414C303.34 100.126 304.21 99.8386 304.78 99.2626C305.65 98.6876 306.51 98.3995 306.51 97.8235C306.8 96.9605 307.37 96.0976 309.1 96.0976C310.54 96.6726 312.26 96.3856 312.55 95.8096C313.42 95.5216 315.14 93.7956 311.69 92.6446C305.93 93.7956 297.3 90.9176 290.39 87.1766C289.24 86.3136 287.8 86.0256 285.79 86.0256C284.93 85.7376 283.49 85.1626 284.35 84.2996C284.93 83.4356 285.79 82.8605 285.21 81.1335C284.64 80.2705 283.78 78.8316 282.34 77.6806H282.05ZM285.5 51.7826C284.93 52.6456 284.93 53.2206 285.79 53.7966C288.09 54.3716 290.68 54.3716 293.56 54.0846C295 53.7966 296.44 53.5086 297.01 52.6456C299.32 50.3436 301.62 48.0416 303.92 46.6026C304.49 46.0266 305.07 46.8906 305.65 47.1786C305.36 47.7536 305.07 48.3296 304.78 48.6166C304.49 49.4806 304.21 50.6316 304.21 51.4946C303.92 53.7966 303.06 54.0845 302.19 54.6595C299.89 55.8105 301.33 56.9615 302.48 56.9615C303.06 56.9615 303.34 56.6746 303.92 56.0986C304.49 56.3866 305.07 56.9616 304.21 57.5376C301.33 58.6886 299.6 59.8396 297.88 61.5666C296.15 62.4296 295.57 63.5806 294.42 64.7316C293.56 65.3066 292.7 65.3066 291.83 65.0196C290.68 65.0196 290.11 65.5946 289.82 66.4576C289.24 68.4726 288.96 69.9116 288.38 70.7746C287.23 72.5006 286.94 74.2276 287.23 75.9546C287.23 78.8316 287.52 79.6945 287.8 79.9825C290.68 82.5725 291.26 80.2706 292.12 78.5436C291.83 77.6806 291.83 76.5296 291.83 75.0906C292.41 73.9396 292.98 74.2276 293.85 74.8036C293.85 75.0906 294.14 75.9546 294.71 76.2416C295.29 76.5296 295.57 77.1056 295.86 77.9686C295.86 79.4076 295.57 80.8455 295.57 82.2845C295.29 84.8745 295.86 85.1625 297.01 84.5865C298.45 84.0115 299.03 84.2996 299.6 84.8746C301.04 87.1766 302.77 87.4646 303.92 86.3136C306.51 83.7236 306.22 79.9826 307.08 76.5296C307.37 73.0766 308.24 67.6086 309.39 67.0336C310.54 65.3066 310.83 62.7176 311.4 60.4156C311.4 59.2636 311.69 56.9616 308.52 56.3866C306.8 56.0986 305.36 56.0986 305.65 55.2356C306.22 54.9476 307.08 54.3716 307.66 54.0846C309.1 53.7966 309.96 53.2206 308.52 51.4946C307.66 50.9186 307.37 49.4806 309.67 46.8906C311.69 45.4516 313.7 44.3005 315.14 42.5735C316.58 39.4085 314.85 38.8326 312.84 38.8326C309.96 39.1206 306.8 39.9836 303.06 42.2866C301.04 43.7246 299.03 44.8756 297.01 45.4516C295.29 46.0266 293.85 46.8906 292.12 47.7536C291.26 48.6166 289.82 49.1926 288.67 49.7676C288.67 50.0556 286.37 50.3436 285.79 50.9186L285.5 51.7826ZM304.78 59.8396C306.8 58.9766 307.08 59.8396 306.8 60.9906C306.51 63.5806 305.07 66.1706 305.07 68.7606C303.34 72.7886 300.47 68.7606 300.18 65.8826C299.89 64.7316 298.74 64.1556 301.04 62.1416C301.91 61.2786 303.06 60.4156 304.78 59.8396ZM300.18 74.8036C300.47 74.5156 301.04 73.9396 301.33 73.6516C302.48 74.2276 303.34 73.3646 303.34 75.6666C302.77 77.6806 302.19 79.4076 301.62 81.4216C301.33 82.2846 300.75 82.8606 300.18 82.5726C299.6 82.5726 299.32 82.2845 298.74 81.1335C299.03 80.2705 299.32 79.4076 299.6 78.5436C299.32 77.1056 299.6 75.6666 300.18 75.0906V74.8036ZM292.12 73.0766C292.7 73.6516 292.98 74.2276 293.85 73.6516C294.42 72.5006 295.29 71.6376 295.86 70.4866C296.73 68.4726 295.29 68.1846 294.14 68.4726C293.56 68.7606 292.98 70.1986 292.12 73.0766ZM447.51 262.42H446.07L445.79 250.913H447.22C447.22 252.64 447.8 253.5 448.38 253.5C448.66 253.5 449.24 253.22 449.81 252.927C450.1 252.927 450.1 252.64 450.1 252.64L457.01 248.611L450.1 245.446C449.24 245.158 448.66 244.87 448.09 244.87C446.94 244.87 446.65 246.021 446.65 248.036H445.21L444.92 239.115H446.36C446.65 241.129 447.51 242.568 448.95 242.856L459.6 247.46L465.93 247.172C467.66 247.172 468.23 246.021 468.23 243.144H469.67L470.25 256.38H468.81C468.81 253.5 467.94 252.064 466.22 252.64L459.6 252.927L450.68 257.82C447.8 258.97 446.65 260.41 446.94 261.85L447.51 262.42ZM444.63 285.16L446.36 262.71L454.99 263.29V265.01C450.39 265.88 447.8 267.89 447.51 271.34L466.79 272.78C468.52 273.07 469.38 271.92 469.38 269.04H470.82L469.96 282.57H468.52C468.81 279.69 468.23 278.25 466.5 278.54L447.22 277.1C446.94 280.55 449.24 282.85 453.84 284.29V286.02L445.21 285.16H444.63ZM468.52 290.62L466.5 303.29L465.07 303C465.64 300.7 465.07 299.26 463.34 299.26L446.36 296.67C444.63 296.09 443.77 297.24 443.48 299.54L442.04 299.26L444.06 286.6L445.5 286.88C444.92 289.19 445.5 290.62 447.22 290.62L464.2 293.21C465.93 293.79 466.79 292.64 467.08 290.34L468.52 290.62ZM460.75 325.44L451.54 323.14L451.83 321.7C457.58 321.7 460.75 319.98 461.9 316.52C462.48 313.65 461.61 311.92 459.31 311.06C457.87 310.77 455.86 312.21 453.55 315.37C450.39 319.98 447.22 321.7 444.35 321.13C439.45 319.69 437.44 316.23 438.59 311.06C439.17 309.33 440.03 307.89 441.18 306.74C441.47 306.16 441.76 305.88 441.76 305.88C441.76 305.59 441.76 305.01 441.18 304.44C440.89 304.44 440.89 304.15 440.89 304.15L441.18 302.71L449.53 304.72L449.24 306.16C444.35 306.16 441.47 307.89 440.32 311.06C439.74 313.65 440.61 315.37 442.62 315.95C444.35 316.23 446.07 314.8 448.38 311.63C451.54 307.03 454.71 305.01 458.16 305.88C462.76 307.31 464.49 310.77 463.63 315.95C463.05 317.67 462.19 319.69 461.04 321.13C460.46 321.7 460.46 321.99 460.17 322.28C460.17 322.85 460.46 323.14 461.04 324V324.29L460.75 325.73V325.44ZM422.19 398.53L414.13 408.61L412.98 407.74C414.71 405.73 414.71 404.58 413.27 403.71L399.74 393.35C398.59 392.2 397.15 392.49 395.72 394.51L394.56 393.64L402.62 383.57L403.77 384.43C402.05 386.45 402.05 387.6 403.48 388.46L417.01 398.82C418.16 399.97 419.6 399.69 421.04 397.67L422.19 398.53ZM377.01 412.35L376.15 411.2L381.33 406.3L401.76 409.18L392.55 400.55C391.4 399.4 389.96 399.69 387.95 401.41L387.08 400.55L393.41 394.22L394.56 395.08C393.13 396.81 393.13 398.25 394.28 399.11L408.95 412.92L406.65 415.22L383.34 412.06L394.28 422.42C395.43 423.86 396.87 423.28 398.88 420.98L400.03 421.84L393.41 428.75L392.55 427.89C394.28 426.16 394.56 424.72 393.41 423.86L381.04 412.35C379.89 411.2 379.02 410.33 377.3 412.35H377.01ZM355.72 426.73L365.79 419.25L366.65 420.4C364.64 421.84 364.06 423.28 365.21 424.43L374.42 435.66C376.44 437.96 378.74 437.96 381.33 436.52C384.49 433.93 385.07 431.34 382.48 428.17L374.42 418.1C373.56 416.66 372.12 416.66 369.53 418.39L368.67 417.24L375.57 412.06L376.44 413.21C374.71 414.94 374.71 416.09 375.86 417.24L383.63 427.02C386.79 431.05 385.93 434.79 381.04 438.53C376.15 441.99 372.41 442.27 369.53 438.82L360.9 427.89C360.03 426.45 358.59 426.45 356.87 428.17L356 427.02L355.72 426.73ZM344.21 448.32L343.34 446.88L355.72 440.84L356.58 442.27C353.99 443.43 353.41 444.58 354.57 446.01L358.02 452.63L356.87 453.21L354.85 452.35C353.41 454.36 351.69 455.8 349.1 456.95C342.48 459.25 337.01 457.53 333.27 451.77C330.11 444.29 332.12 438.53 338.74 434.5C340.18 433.93 341.9 433.64 343.92 433.64C344.49 433.64 345.07 433.64 345.36 433.35C345.64 433.35 345.64 433.07 345.93 432.49C345.93 432.2 346.22 432.2 346.22 431.91L347.37 431.34L351.11 438.82L349.96 439.4C346.22 435.66 343.05 434.5 340.18 435.94C336.44 437.67 336.15 441.99 339.31 448.32C342.48 454.36 345.64 456.95 349.1 455.8C351.69 454.65 352.26 452.63 350.54 449.76C349.39 447.17 347.66 446.59 344.78 448.32H344.21ZM301.62 451.19L301.04 450.04L309.1 446.88L326.36 458.1L321.76 446.59C321.47 445.15 319.75 444.58 317.16 445.44L316.58 444.29L324.93 441.12L325.5 442.27C323.49 443.43 322.62 444.58 323.49 446.01L330.97 464.72L327.8 465.87L308.24 453.21L313.7 467.02C313.99 468.75 315.72 468.75 318.6 467.6L319.17 468.75L310.25 472.2L309.67 471.05C311.98 470.19 312.84 469.04 311.98 467.6L305.93 452.06C305.65 450.33 304.21 450.04 301.62 451.19ZM252.7 454.36L275.72 453.5L276.29 461.84H274.57C273.42 457.24 270.83 455.22 267.37 455.22L267.95 473.93C267.95 475.65 269.1 476.23 271.98 476.23V477.67L257.88 478.24V476.81C260.76 476.81 262.19 475.94 261.91 474.22L261.33 455.51C257.88 455.51 255.58 458.1 254.42 462.71H252.7L252.41 454.36H252.7ZM192.56 467.6L180.18 463.28L180.76 462.13C183.06 462.99 184.5 462.71 184.79 460.98L190.54 445.44C191.41 444 190.54 442.85 187.95 441.99L188.53 440.84L200.9 445.15L200.33 446.3C198.02 445.44 196.58 445.73 196.3 447.45L190.54 462.99C189.68 464.43 190.54 465.58 193.13 466.45L192.56 467.6ZM183.35 442.27L177.59 453.78C175.29 458.68 171.55 459.54 166.08 456.66C162.05 454.65 160.61 452.06 161.77 448.89C162.92 446.59 164.64 446.01 166.66 446.88C168.67 447.74 169.25 449.18 168.38 450.91C167.52 452.35 166.37 452.92 164.64 452.35C164.07 452.06 163.78 451.77 163.2 451.19C163.2 452.63 164.07 454.07 165.79 454.94C168.1 456.09 169.82 455.51 170.97 453.5L177.88 439.4C178.74 437.96 177.88 436.81 175.58 435.66L176.15 434.5L187.95 440.26L187.38 441.41C185.36 440.26 183.92 440.55 183.35 441.99V442.27ZM417.87 364.58C417.58 365.73 417.87 366.59 418.45 367.46L431.4 385.01L429.67 387.31L408.66 381.56C406.94 380.98 405.5 381.27 404.92 382.71L403.77 381.84L410.39 372.35L411.54 373.21C410.1 374.94 409.82 376.09 410.97 376.66C410.39 376.66 415.57 378.1 425.93 380.98C425.64 380.41 425.07 379.83 424.49 378.97C419.02 371.2 416.43 368.03 416.72 368.9C415.57 368.32 414.42 368.61 413.56 370.33L412.41 369.47L417.01 362.85L418.16 363.43C417.87 363.72 417.58 364.29 417.58 364.58H417.87ZM417.87 361.99L427.37 344.72L435.43 348.46L434.56 349.9C429.67 348.75 426.22 350.19 424.2 353.93C423.05 355.66 423.34 356.81 424.78 357.38L431.11 360.55C432.84 357.96 432.55 355.66 429.96 353.93L430.53 352.78L439.45 357.38L438.88 358.54C435.71 357.67 433.7 358.54 432.55 361.41L439.74 365.15C441.18 366.02 442.33 365.44 443.2 363.72C445.21 359.69 444.35 355.95 440.61 352.49L441.47 351.05L449.53 355.66L438.88 375.23L437.73 374.65C438.88 372.64 438.88 371.2 437.15 370.62L421.9 362.85C421.04 362.28 420.17 362.28 419.31 363.14L417.87 362.28V361.99ZM225.65 463.57C227.09 456.09 231.69 452.35 239.46 452.35C246.94 453.78 250.68 458.39 250.68 465.87C249.24 473.35 244.64 476.81 237.16 476.81C229.68 475.65 225.65 471.05 225.65 463.57ZM232.27 464.14C231.69 471.34 233.13 475.08 237.16 475.37C240.9 475.65 243.2 472.49 243.78 465.01C244.35 457.81 242.91 454.07 238.89 453.78C234.86 453.5 232.55 456.95 231.98 464.14H232.27ZM205.22 471.05L195.72 468.46L196.01 467.02C198.02 467.31 199.75 466.16 201.48 463.86L214.14 448.03L215.86 448.6L219.32 471.05C219.32 472.78 220.47 473.64 221.91 474.22L221.62 475.65L209.25 472.49L209.53 471.05L210.97 471.34C212.41 471.91 213.27 471.63 213.27 470.76C213.27 470.47 213.27 470.19 213.56 469.61C213.56 469.9 213.56 469.9 213.56 469.32L212.99 465.01L205.51 462.99L203.78 465.29C203.49 465.58 202.92 466.45 202.63 467.31C202.34 468.46 202.92 469.04 204.35 469.32L206.08 469.9L205.79 471.34L205.22 471.05ZM212.41 462.71L211.26 454.65L206.37 460.98L212.41 462.71ZM278.88 464.72C278.31 457.24 281.47 452.35 288.96 450.33C296.44 449.76 301.33 452.92 303.63 460.12C304.49 467.6 301.04 472.2 293.85 474.22C286.08 475.08 281.19 471.91 279.17 464.72H278.88ZM285.5 463.57C286.94 470.76 289.53 473.93 293.27 473.06C297.01 472.49 298.16 468.46 296.73 461.27C295.29 454.07 292.7 450.91 288.96 451.77C285.21 452.63 283.78 456.37 285.21 463.57H285.5ZM454.71 328.32L455.28 327.17C458.73 328.32 459.89 330.62 458.73 333.79C457.58 336.95 455.28 338.1 451.25 336.67C447.51 334.94 444.92 335.8 444.06 338.68L450.97 341.27C452.98 342.13 454.13 341.56 454.99 338.97L456.43 339.54L452.12 351.34L450.68 350.77C451.54 348.46 451.25 347.03 449.53 346.74L433.41 340.98C431.97 340.12 430.82 340.98 429.96 343.28L428.52 342.71L432.84 331.2C434.85 325.73 438.02 323.72 442.04 325.16C445.5 326.59 446.36 329.76 444.63 334.94C446.07 332.06 448.38 330.62 451.83 330.91C454.99 331.2 456.43 330.91 456.14 330.34C456.43 329.76 455.86 328.9 454.13 328.32H454.71ZM435.71 335.51L442.91 338.1C444.63 334.08 443.77 331.77 440.32 330.62C437.44 329.76 435.43 330.34 434.27 332.64C433.7 334.08 433.99 334.94 435.43 335.51H435.71ZM143.92 431.63L144.79 430.19L156.3 437.67L155.43 439.11C153.13 437.38 151.69 437.38 150.83 439.4L146.51 445.44L145.36 444.58L145.08 442.27C142.77 442.27 140.47 441.41 138.17 439.97C132.7 435.37 131.55 430.19 135 424.15C140.18 417.81 146.23 416.66 153.13 420.12C154.28 420.98 155.43 422.13 156.59 423.86C156.87 424.43 157.16 424.72 157.45 425.01C157.74 425.01 158.02 425.01 158.6 425.01C158.89 425.01 159.18 425.01 159.18 425.01L160.33 425.87L155.43 432.78L154.28 431.91C156.01 427.02 155.43 423.57 152.56 421.84C149.1 419.54 145.36 421.27 141.05 427.31C137.31 433.07 136.73 437.09 139.32 439.11C141.62 440.84 143.64 439.97 145.65 437.38C147.38 435.08 147.09 433.35 144.21 431.91L143.92 431.63ZM104.21 410.33L95.5801 400.84L96.7301 399.97C98.4601 401.99 99.6101 402.28 100.76 400.84L113.42 389.61C114.86 388.75 114.57 387.31 112.85 385.59L114 384.72L122.63 394.22L121.48 395.08C119.75 393.07 118.6 392.78 117.45 394.22L104.79 405.44C103.35 406.3 103.64 407.74 105.36 409.47L104.21 410.33ZM78.8901 357.67L80.3301 357.1L86.0801 369.47L84.6501 370.05C83.4901 367.46 82.3401 366.88 80.6201 368.03L73.7101 371.2L73.1401 370.05L74.0001 368.03C71.9801 366.59 70.5501 364.87 69.3901 362.56C67.0901 355.95 69.1101 351.05 75.1501 347.31C82.9201 344.44 88.6701 346.45 92.7001 352.78C93.2801 354.22 93.5701 355.66 93.5701 357.67C93.5701 358.25 93.5701 358.82 93.8501 358.82C93.8501 359.11 94.1401 359.11 94.7201 359.4C95.0101 359.4 95.2902 359.69 95.2902 359.69L95.8701 360.84L88.1001 364.29L87.5201 363.14C91.5501 359.69 92.7001 356.52 91.2601 353.64C89.5401 349.9 85.2201 349.61 78.6001 352.49C72.2701 355.37 69.6801 358.54 70.8301 361.99C71.9801 364.58 74.0002 364.87 77.1602 363.43C80.0402 362.56 80.3301 360.55 78.8901 357.96V357.67ZM75.4401 316.52L76.8801 315.95L79.7501 324L67.9601 340.69L79.7501 336.38C81.1901 336.09 81.7701 334.65 81.1901 332.06L82.6301 331.49L85.8002 339.83L84.3601 340.41C83.2101 338.39 82.0601 337.82 80.6201 338.39L61.3401 345.3L60.1901 342.13L73.4202 323.14L59.0302 328.32C57.3102 328.61 57.0202 330.05 58.1702 332.92L56.7301 333.5L53.2802 324.58L54.7201 324C55.5801 326.31 56.7302 327.17 58.1702 326.31L74.2902 320.55C76.0102 320.26 76.3001 318.82 75.1501 316.52H75.4401ZM58.7501 275.09L59.3201 282.85L66.5201 282.28C68.2401 282.28 68.8201 281.13 68.8201 279.11H70.2601L71.1201 291.49H69.6802C69.6802 288.9 68.8201 288.03 67.0901 288.32L50.1101 289.47C48.3901 289.47 47.8101 290.62 48.1001 292.93H46.6602L45.8002 280.55H47.2401C47.2401 282.57 48.1001 283.72 49.8301 283.43L58.1702 282.85L57.6001 275.09L49.2501 275.66C47.5201 275.66 46.9501 276.81 46.9501 278.83H45.5101L44.6501 266.74H46.0901C46.0901 269.04 46.9502 270.19 48.6802 269.91L65.6501 268.75C67.3801 268.75 67.9602 267.6 67.6702 265.3H69.1101L69.9701 277.39H68.5302C68.5302 275.37 67.6701 274.22 65.9401 274.51L58.7501 275.09ZM68.5302 262.42L59.6101 262.14V260.7C65.0801 258.97 67.6702 256.38 67.6702 252.927C67.9602 248.899 64.2101 246.597 56.7301 246.309C49.5401 246.021 45.8001 248.323 45.5101 252.927C45.5101 257.53 48.1001 260.12 53.5701 260.7V262.42C47.2401 262.14 44.0701 258.68 44.0701 252.064C44.6501 244.295 48.9601 239.978 57.0201 239.69C64.7901 240.841 68.8201 244.87 69.3901 252.352C69.3901 254.37 68.5301 256.67 67.0901 258.97L68.5302 260.41V261.85V262.42ZM59.3201 294.08C67.0901 293.21 71.9801 296.38 74.5701 303.57C75.4401 310.77 71.9802 315.66 64.7902 317.96C57.0202 318.82 52.1301 315.66 50.1101 308.47C49.2501 300.98 52.4201 296.09 59.6101 293.79L59.3201 294.08ZM60.7601 300.41C53.5701 301.85 50.4001 304.44 51.2701 308.18C51.8401 311.92 55.8701 312.78 63.3501 311.34C70.5501 309.9 74.0001 307.31 73.1401 303.57C72.2701 299.83 68.2402 298.68 61.0502 300.12L60.7601 300.41ZM92.9901 395.37L93.8501 396.52C90.1101 398.82 87.2402 398.25 84.9302 395.37C82.9202 392.78 83.4901 390.19 86.0801 388.46C85.8001 388.18 85.5101 387.89 85.5101 387.6C81.7701 380.98 82.9202 375.51 88.6702 370.62C95.5802 367.17 101.34 368.03 106.23 373.79C109.68 380.41 108.53 385.87 102.49 390.76C98.1701 393.35 93.5701 393.64 89.2501 391.34C88.3901 392.78 88.3901 393.93 89.2501 394.79C90.1101 395.94 91.2601 396.23 92.9901 395.37ZM90.4001 383.86C89.8301 383 88.6701 383 87.5201 383.57C86.3701 384.43 86.0802 385.59 86.6602 386.74C86.9502 387.02 86.9501 387.31 87.5201 387.6C87.5201 387.6 87.8101 387.31 88.3901 387.31C88.9601 387.02 89.5402 386.74 89.5402 386.74C90.6902 385.87 90.9801 385.01 90.4001 384.15V383.86ZM86.0801 382.42L86.3701 382.13C88.6701 380.69 90.6901 380.98 91.8401 383C92.9901 384.72 92.9901 386.45 91.8401 388.46C93.8501 388.18 96.1601 387.02 98.7501 385.3C105.08 381.27 106.8 377.53 104.79 374.65C102.49 371.48 98.4602 371.77 92.4202 375.8C88.9602 378.1 86.6602 380.41 85.8002 382.13L86.0801 382.42ZM122.34 396.52L123.21 395.66L129.54 401.41L126.95 421.27L135.58 412.35C136.73 411.2 136.44 409.76 134.72 407.74L135.58 406.88L142.2 412.92L141.33 413.79C139.32 412.35 137.88 412.35 137.02 413.5L122.92 428.17L120.33 425.87L123.21 403.14L112.85 414.07C111.41 415.22 111.98 416.66 114.29 418.68L113.42 419.54L106.23 413.21L107.09 412.35C108.82 414.07 110.26 414.36 111.41 412.92L123.21 400.84C124.36 399.69 124.07 398.53 122.05 396.81L122.34 396.52ZM257.88 0.560547C399.46 0.560547 514.85 115.953 514.85 257.53C514.85 399.11 399.46 514.5 257.88 514.5C116.3 514.5 0.910156 399.11 0.910156 257.53C0.910156 115.953 116.3 0.560547 257.88 0.560547ZM281.19 64.7316C281.76 65.3066 284.64 67.6086 285.21 68.7606C285.79 70.1986 285.5 71.3495 284.35 72.5005C283.49 73.3645 281.47 72.5005 280.61 71.3495C279.46 69.9115 279.46 67.0336 279.17 66.1706C278.88 65.3066 280.61 64.1556 281.19 64.7316Z" fill="#0061AE"/>
</svg>
