<?xml version="1.0" encoding="UTF-8"?><svg id="b" xmlns="http://www.w3.org/2000/svg" viewBox="0 0 228.3637 228.3638"><g id="c"><circle cx="114.182" cy="114.182" r="114.1817" transform="translate(-21.9233 27.289) rotate(-12.4448)" fill="#fff" stroke-width="0"/><path d="M114.1806,43.1353c39.1314,0,71.0479,31.9165,71.0479,71.0454,0,5.1557-.5606,10.185-1.6128,15.0346H44.8496s-.041-.0361-.1226-.1005c-1.0371-4.8194-1.5913-9.8135-1.5913-14.9341,0-39.1289,31.916-71.0454,71.0449-71.0454Z" fill="#6dcff6" fill-rule="evenodd" stroke-width="0"/><path d="M114.1821,4.9644c60.1548,0,109.2168,49.063,109.2168,109.2177s-49.062,109.2159-109.2168,109.2159S4.9648,174.3374,4.9648,114.1821,54.0273,4.9644,114.1821,4.9644Z" fill="none" fill-rule="evenodd" stroke="#2e3192" stroke-miterlimit="22.9256" stroke-width="2.357"/><circle cx="113.3957" cy="114.1822" r="104.1678" transform="translate(-29.2637 188.6434) rotate(-72.7604)" fill="none" stroke="#2e3192" stroke-miterlimit="22.9256" stroke-width="1.0205"/><polygon points="201.7544 108.0591 197.2461 108.4536 196.8916 104.4092 201.333 104.021 208.6963 98.8335 209.0839 103.2764 205.1572 105.7583 209.4555 107.519 209.8383 111.8945 201.7544 108.0591" fill="#2e3192" fill-rule="evenodd" stroke-width="0"/><polygon points="201.4492 83.562 204.5029 82.6284 207.7905 93.3794 204.7358 94.313 203.6865 90.8784 195.0307 93.5249 193.8442 89.6426 202.4995 86.9966 201.4492 83.562" fill="#2e3192" fill-rule="evenodd" stroke-width="0"/><rect x="189.6696" y="75.7856" width="12.2441" height="4.0594" transform="translate(-14.5422 90.0324) rotate(-24.9991)" fill="#2e3192" stroke-width="0"/><path d="M194.7065,69.7461l-2.0659-3.1816c.3115-.2564.4263-.5674.3447-.9385.0278-.2813-.0791-.6079-.3222-.981-.483-.7436-.9288-.9824-1.335-.7182-.375.2431-.292,1.1416.2407,2.6967,1.0606,3.0152.8257,5.0196-.6982,6.0093-2.3169,1.3999-4.5103.5498-6.5762-2.5527-1.6514-2.7876-1.5283-5.0376.3765-6.7481l2.1015,3.2359c-.2988.3525-.457.7192-.4765,1.1011.0224.3569.1533.7192.396,1.0927.6279.9668,1.1821,1.2945,1.6655.98.4097-.2651.3423-1.145-.2061-2.6411-1.0859-3.0532-.8257-5.0967.7749-6.1362,2.169-1.3042,4.2183-.5454,6.1548,2.2685,1.6533,2.6289,1.5288,4.7993-.3745,6.5132Z" fill="#2e3192" fill-rule="evenodd" stroke-width="0"/><polygon points="167.8354 50.8364 159.7587 44.5269 167.2978 34.8779 175.2153 41.0635 173.4526 43.3179 168.7348 39.6323 167.6684 40.9961 171.6528 44.1094 169.893 46.3613 165.9087 43.2495 164.7192 44.7705 169.5971 48.5806 167.8354 50.8364" fill="#2e3192" fill-rule="evenodd" stroke-width="0"/><polygon points="149.2651 38.915 151.0903 26.103 154.7055 27.9443 152.916 36.1455 158.5605 29.9097 162.1748 31.7505 152.8222 40.7275 149.2651 38.915" fill="#2e3192" fill-rule="evenodd" stroke-width="0"/><rect x="135.1826" y="27.1208" width="12.2445" height="4.06" transform="translate(69.9215 154.5352) rotate(-72.0029)" fill="#2e3192" stroke-width="0"/><polygon points="126.4116 19.708 130.0683 26.7935 130.2339 24.0015 130.646 20.1626 134.4848 20.5737 133.1772 32.749 129.4062 32.3447 125.75 25.2588 125.6494 28.061 125.2368 31.8965 121.4008 31.4854 122.7075 19.3101 126.4116 19.708" fill="#2e3192" fill-rule="evenodd" stroke-width="0"/><path d="M104.2671,25.9072v-6.9214h3.9907v7.3213c-.042,1.5503.5991,2.3062,1.9311,2.2603,1.2862,0,1.9077-.7525,1.8618-2.2603v-7.3213h3.9917v6.9214c.0909,3.7701-1.8618,5.6123-5.8535,5.522-4.0371.0903-6.0107-1.7519-5.9218-5.522Z" fill="#2e3192" fill-rule="evenodd" stroke-width="0"/><polygon points="89.7885 34.5942 80.2856 38.4336 75.6987 27.0806 85.0146 23.3174 86.0874 25.9702 80.5356 28.2139 81.1836 29.8193 85.872 27.9253 86.9428 30.5757 82.2544 32.4702 82.978 34.2593 88.7168 31.9414 89.7885 34.5942" fill="#2e3192" fill-rule="evenodd" stroke-width="0"/><polygon points="76.0918 40.5708 66.4297 45.9258 65.0112 43.3657 67.0605 34.8482 62.1142 37.5903 60.727 35.0869 69.979 29.9585 71.3344 32.4043 69.291 41.0679 74.7036 38.0679 76.0918 40.5708" fill="#2e3192" fill-rule="evenodd" stroke-width="0"/><polygon points="49.561 48.6401 47.4653 46.2305 55.9502 38.8545 58.0459 41.2642 55.3349 43.6211 61.2734 50.4522 58.2089 53.1152 52.2719 46.2842 49.561 48.6401" fill="#2e3192" fill-rule="evenodd" stroke-width="0"/><polygon points="27.9975 73.6621 35.9355 72.9087 33.4062 71.7153 29.997 69.9019 31.81 66.4927 42.6211 72.2412 40.8408 75.5903 32.9028 76.3447 35.4648 77.4819 38.872 79.294 37.0605 82.6997 26.2495 76.9507 27.9975 73.6621" fill="#2e3192" fill-rule="evenodd" stroke-width="0"/><path d="M33.2216,95.1538l-.9067,3.9971-10.667-8.023,1.187-3.8823,12.9937-1.104-.8037,3.8569-2.19-.0185-1.208,4.3818,1.5947.792h0ZM30.1186,89.9761l-4.8276.2348,3.9883,2.732.8393-2.9668Z" fill="#2e3192" fill-rule="evenodd" stroke-width="0"/><polygon points="27.2558 104.0435 31.7627 104.4375 31.4096 108.4829 26.9687 108.0933 18.8173 111.9229 19.2065 107.4795 23.5034 105.7183 19.5766 103.2378 19.9599 98.8623 27.2558 104.0435" fill="#2e3192" fill-rule="evenodd" stroke-width="0"/><path d="M171.497,53.9595l8.937-8.5786,4.2832,4.748c.7935.8794,1.3287,1.6235,1.5997,2.229.2739.606.3422,1.2412.2026,1.9082-.1382.6655-.4927,1.2705-1.0606,1.8159-.4975.4766-1.0224.7769-1.5786.9053-.5571.127-1.1201.1055-1.687-.0596-.3623-.1079-.7802-.3261-1.2539-.6616.1958.4453.3076.7974.3394,1.0606.02.1723.0014.4741-.0581.9043-.0611.4306-.1245.7402-.1958.9326l-1.3472,3.8638-2.9043-3.2198,1.3589-4.1435c.1772-.5313.2534-.9243.2217-1.1778-.0459-.3364-.1885-.6367-.4219-.8964l-.2266-.251-3.6279,3.4809-2.5806-2.8603h0ZM179.3945,51.7173l1.084,1.2017c.1162.1289.3823.3422.8017.6381.2071.1524.4395.2168.6988.1939.2553-.0259.4824-.1314.6782-.3194.29-.2773.4248-.5839.4082-.9204-.0142-.3393-.2564-.7666-.7261-1.2861l-1.1279-1.251-1.8169,1.7432Z" fill="#2e3192" fill-rule="evenodd" stroke-width="0"/><path d="M45.3891,60.314l-2.0473-1.563,3.7392-4.5957,4.1978,3.2051c-.1021,1.3466-.3169,2.4443-.6475,3.289-.3286.8477-.8716,1.7334-1.6265,2.6621-.9301,1.1441-1.8872,1.9219-2.872,2.3369-.9839.419-2.0313.5249-3.1416.3169-1.1109-.2055-2.1773-.6948-3.1973-1.4746-1.0752-.8203-1.8325-1.7519-2.2764-2.7915-.4399-1.0405-.5273-2.1362-.2592-3.2876.2124-.896.7705-1.896,1.6679-2.9985.8638-1.0625,1.6104-1.7837,2.2383-2.1626.6265-.3765,1.2866-.5796,1.9854-.6138.6972-.0327,1.4345.1055,2.2143.417l-1.812,3.2695c-.4687-.165-.9175-.1796-1.3447-.0468-.4248.1299-.8169.4145-1.1734.8525-.5302.6519-.7221,1.3491-.5747,2.0908.1499.7427.7217,1.4966,1.7266,2.2637,1.0654.813,1.9878,1.1978,2.7632,1.1528.7734-.0429,1.4482-.414,2.0195-1.1157.27-.332.4785-.689.6245-1.064.147-.3784.2632-.853.3423-1.4228l-.9292-.7085-1.6172,1.9888Z" fill="#2e3192" fill-rule="evenodd" stroke-width="0"/><path d="M63.7016,171.9292c.5493.3184,1.4068,1.9248,1.8433,2.4209.436.4961.6694.7695.897,1.1016.227.332-.3257,1.0996-.792,1.4863-.4668.3877-1.1387.457-1.5235.2744-.3852-.1846-.5566-.9473-.8467-1.1328-.29-.1836-.5795-.3691-.499.2432.0801.6113.2705,1.542-.0141,1.8896-.2847.3486-1.1197.625-1.6182.2754-.4985-.3486-1.124-1.0908-1.4233-1.0635-.2994.0274-.7149-.207-.7779-.4033-.0634-.1943.2495-.5879.5938-.5869.3437.001.5449-.4609.6416-.71.0967-.25.4971-1.2705.9585-1.2558.4614.0127.978.1865,1.1269.0019.1494-.1855.4825-.6582.3687-.8232-.1138-.166-.002-1.0293.0825-1.1621.085-.1319.4331-.876.9824-.5557h0ZM51.3969,180.0015s-7.2617-.8213-7.6811-.8662c-.4194-.045-1.0503.663-1.2774,1.2295-.2275.5664.7559,1.9052,1.0391,1.9521.2832.0479,3.4331-.2549,4.1924-.3916.7602-.1387,4.5361-.9316,5.354-.8086.8179.1221-1.4229.8262-1.4229.8262,0,0-.8335-.374-3.3715.6504-.7637.3086-1.3326.4492-1.8833.7295-1.5865.8066-2.8165,1.6513-2.8165,1.6513,0,0-.1733.2012-.7885.253-.6153.0507-.6206.2705-.8023.5546-.1811.2842.1817,1.0498.8418,1.5606.6602.5107,2.7954.1816,3.1914.123.3955-.0576,3.9248-1.0966,4.2837-.956.3589.1396.1275,1.414.1372,1.8222.0098.4063.3926,1.1377.4864,1.5528.0932.416.3945.7861.9477,1.1836.5527.3965,1.1138-.6231,1.4717-.9727.3574-.3506.9595-.0986,1.3603-.3779.4014-.2774,1.503-.1074,1.9273-.2813.4243-.1738.5049-.2998.3511-.6211-.1538-.3203-1.1734-.1259-1.5928-.1709-.4194-.0458-.9658-.1718-1.6377-.7333-.6714-.5616-.3438-1.2872-.3228-2.1631.021-.876.7652-.3555,1.1441-.2481.3789.1094.521.377.9053.2666.3837-.1113.644-.167.854-.5664.2104-.3994-.6773-1.6777-.8594-1.8818-.1826-.2071-.8609.2949-1.6646.3603-.8032.0655-.9336-.1513-1.1631-.5644-.229-.4131.066-.3135.3399-.6719s2.8291-.1523,3.4043-.1406,1.4634.4453,1.938.6142c.4741.169.3735.0869.8091-.082.436-.1709.3813-.8555-.0137-1.3926-.395-.5371-1.2866-.6181-1.4722-.7754-.185-.1601.6358-.6123.8867-.9394.25-.3291.0591-.7354-.3808-1.1377-.44-.4033-1.3262-.6856-1.8447-.7715-.5186-.0869-.9615.6084-.9615.6084,0,0,.0518.5615.002.8955-.0493.334,1.1899.9619,1.4516,1.1289.2622.167-.3056.4151-.8667.1387-.561-.2764-1.2641-.0742-1.979-.3672-.7143-.293-.6694-.4277-.5249-.7822.1446-.3565,1.2842-1.5,1.5611-1.9336.2763-.4336,1.4956-1.4453,2.145-1.8848.6499-.4404.897-.8926.936-1.2744.0391-.3818-.0835-.7031-.206-1.0273-.1221-.3213-.3658-.5176-.6314-.8086-.2651-.2911-.8686-.7569-1.4902-.7481-.6216.0108-1.2456,1.1172-1.4902,1.6943-.2447.5752-1.9761,2.9688-1.9761,2.9688,0,0-.8018.8721-1.3535,1.415-.5513.543-.1114.9454-.1714,1.2315-.0606.2881.685.9297.685.9297h0ZM45.913,185.5425c-.0058-.4238.4947-1.0967,2.7002-1.8955,2.2051-.7979,1.732-.6104,1.732-.6104,0,0,.9814-.3183.9585.4375-.023.7559-.3189,1.4414-1.5396,1.7481-1.2202.3056-3.8457.7461-3.8511.3203Z" fill="#2e3192" fill-rule="evenodd" stroke-width="0"/><path d="M88.2705,191.5288c1.7397.0342,3.2954.9043,2.9717,2.8477-.0948.5664-.2012,1.1133-.8326,1.2627-.6313.1484-1.2524.1816-1.5136.4775-.2618.2988-.4805.7754-.2994,1.0537.1817.2774.4747,1.752-.3906,2.1358-.8657.3847-3.1675,1.8046-3.3364,2.0556-.169.253-.6904,1.5479-.1934,1.7031.4976.1573,1.7066-1.0283,2.3482-1.6503.6416-.6221.7251-.8155,1.187-1.0664.4624-.2491,1.0547-1.1426,1.1289-1.4258.0737-.2852-.0342-.9961,1.0029-1.3897,1.0371-.3926.7715-.707,1.8477-.709,1.0762-.0019,1.3716-.0244,1.3716-.0244,0,0,1.3823-1.2842,2.0097-1.5459.6275-.2617,1.2071-.3857,2.0918.4668.8848.8526,1.3687,1.7149,1.0049,2.2119-.3638.4952-1.9795,2.3848-2.9585,3.003-.9785.6191-.8852.7881-.8672.9511.0181.1651-.0058.4385.5913.3291.5977-.1103,1.6612-.3232,1.7017.3272.0405.6543.0679,1.1435-.2095,1.374-.2768.2295-.6577.7568-1.2944.9805-.6362.2246-.5923.3037-1.1577.3037-.5655.0019-2.645-.3096-3.8418.1455s-2.0899.9619-2.6651.7842c-.5752-.1787-1.6303-1.6221-1.7265-1.9854-.0962-.3662-.1182-.6992.2036-.8476.3213-.1514,1.1221-.4873,2.1421-.3975,1.02.0899,1.7178.0508,1.9761-.2588.2583-.3086,1.0185-1.6416,1.1875-2.3896.1689-.7491.1635-.9785-.4927-1.1133-.6563-.1348-.8682.2285-1.2876.9053-.4195.6748-1.2495,1.3398-1.5777,1.5664-.3286.2256-2.1821,1.4521-2.5117,1.9853-.3301.5322-1.4761,1.8555-1.6025,2.1455-.1265.2901-.7554,1.6983-1.2686,1.793-.5132.0957-1.1245.1992-1.6455-.2246-.521-.4229-1.3594-1.2969-1.5356-1.5791-.1763-.2813-.2954-.957.268-1.2637.563-.3047,1.8204-.6367,2.0249-.9306.2046-.292.9473-1.1143,1.023-1.4639.0747-.3486.3872-1.1807,1.0605-1.6377.6734-.457,1.0337-1.1641,1.23-1.7002.1963-.5361.0489-1.3975.7627-1.8887.9385-.6435,2.1621-1.9375,1.6987-3.207-.2124-.582-1.0385-2.1367.3741-2.1094Z" fill="#2e3192" fill-rule="evenodd" stroke-width="0"/><path d="M130.083,196.3091c.08-.0527.0014-1.0713-.292-1.4033-.293-.3321-.9932-1.0049-.5635-1.501.4292-.4961,1.0093-.9707,1.9526-.6895.9434.2793.9258.4815,1.2154.5674.29.0869.4897.3418.5644.7959.0742.4551-.123.7988-.2182,1.2451-.0962.4444-.0357,1.0049.0991,1.7139.1352.708.2837,1.7783.4258,2.0488.1416.2715.4365.6475.8838.2832.4477-.3652.8808-1.1601.8559-1.4267-.0249-.2656-.4067-.4971.0479-.8408.4546-.3448.8877-.75,1.5913-.586.7031.1641,1.3955.4903,1.1069,1.3028-.2891.8134-1.1811,1.8369-1.9087,2.3847-.728.5449-2.0552,1.6836-2.0913,1.9629-.0356.2803.2642,1.5977.1118,1.9131-.1528.3154-.4199,1.5244-.4199,1.5244,0,0-.1738.8809-.269,1.0156-.0953.1348-1.2798,1.6856-1.584,2.0362-.3047.3496-.7881.8847-.9449.9599-.1567.0762-.8256.4326-1.0937.7715-.2681.3379-.5034.4199-.8467.6026-.3437.1826-1.9057.8964-2.2251.6875-.3188-.212-.4951-.5948.0215-.9786.5161-.3847,2.1904-1.7041,2.6172-1.9961.4268-.2939,1.1113-1.1826,1.2563-1.6377.1446-.455.4356-.8876.5137-1.29.0772-.4014.0801-.793-.1484-.7275-.2281.0654-1.9278.9004-2.2798,1.416-.3521.5146-.8174.7099-1.1441.7637-.3266.0527-1.9047-.2325-2.0981-.6006-.1934-.3682-.1147-.7237.3149-1.0635.4297-.3408,1.2735-.5752,1.5464-.7822.2725-.2051,2.6934-1.7012,3.2178-2.3369.5244-.6387.7944-1.9942.4478-3.0665-.3472-1.0722-.7432-3.0156-.6631-3.0683h0ZM135.6425,204.7778c.1231.2178,1.1338,1.6182,1.3189,1.669.185.0508.1919.4941.3823.8906.19.3965,1.3277.8779,2.1348.6065.8071-.2706,1.2593-1.1426,1.4922-1.5235.2329-.3799,1.3398-1.0117,1.3813-1.2246.041-.2129.5269-.6201.707-.8662.1802-.2451.1348-.2871.022-.5117-.1128-.2256-.4629-.1895-.9526-.0156-.4903.1728-.8018.4042-1.1851.5654-.3833.1611-1.7886-.2197-2.1401-.2686-.3511-.0488-.5088.0723-1.6519-.4668-1.143-.54-1.9892-.8349-2.3271-.5341-.6245.5546.6157,1.3232.8183,1.6796Z" fill="#2e3192" fill-rule="evenodd" stroke-width="0"/><path d="M166.7998,186.3999c-.3628-.0146-1.1885-.4267-1.3594-.4199-.1709.0078-.8101-.1768-.9805-.4424-.1699-.2656-.5259-.7568-.7207-.7519-.1948.0039-.9546.2011-1.0957-.1153-.1411-.3164-.2183-1.3047.5073-1.791.7261-.4873,1.0752-.3398,1.3735-.4131.2988-.0742.4951-.2285.148-.6787-.3477-.4502-1.544-1.8887-1.9224-1.8994-.3779-.0088-.6733-.0322-.8633-.1924-.1904-.1611-.6577-.6523-.1973-1.1953.46-.544,1.0469-.6826,1.7178-.7295.6704-.0478,1.6035.0625,1.686.2803.0825.2148-.0854.7021.1167.9551.2022.2529.4214.3251.5435.1093.1225-.2148.2881-.6777.0932-1.2295-.1953-.5517.0523-1.2353.211-1.4004.1587-.165.0888-.5185.0513-.7753-.0381-.2569-.0704-.9581-.2867-1.2813-.2163-.3242-1.063-1.7158-1.1308-1.834-.0679-.1191-.2256-.4355.1714-.7763.3969-.3409,1.0185-.5459,1.6054-.5987.5874-.0547.6748.0664.8321.2842.1572.2168.1235.4668.186.751.062.2842.2212.6826.6006.4472.3784-.2373.3047-.8886.4629-1.4765.1587-.586.6977-1.6504,1.3525-2.252.6543-.6006,1.3892-.5,1.6572-.1289.2686.3711.4536.5488.481.876.0273.3291.0698,1.7324.1728,1.874.1026.1416.2398.6953.2398.6953,0,0-.062.3506.1157.7774.1777.4267.3179,2.1826.3618,2.6426.044.4609-.2099.6914-.2182.9345-.0083.2432.1064,1.9639-.4014,2.4239-.5073.4628-1.0776.5107-1.5977.4824-.52-.0274-1.0532-.2188-1.2109.0713-.1582.292-.3931,1.0927-.8032,1.289-.4102.1973-.731.3701-.7583.043-.0274-.3291.1411-.4229.0283-.6152-.1123-.1924-.104-.4336-.2402-.2227-.1358.2129-.5801.8594-.4224,1.2178.1577.3574.4365,1.1074.3223,1.3701-.1138.2637-.8999,1.001-.8306,1.3477.0684.3476.2607,1.0625.4028,1.3427.1426.2813-.0385,1.0176-.4013,1.0049h0ZM169.1723,192.6509c.3501-.3154.7779-2.5713.7715-2.9307-.0063-.3574.5025-1.9531.5615-2.3711.0591-.417.2325-.7783.437-1.0449.2046-.2666,1.0425-1.7568,1.1539-2.3037.1108-.5449.7446-1.9619,1.0229-2.3633.2783-.4023.3833.1621.5093.3887.126.2246.063.7939-.3467,2.1689-.4102,1.3741.6484,2.3809.6484,2.3809,0,0-1.1689,2.5635-1.6401,3.2568-.4717.6944-1.6475,2.5567-1.9912,3.2823-.3433.7236.5693.8945,1.2959.8818.727-.0137,1.4394-.5664,1.6582-.8926.2187-.3262.4795-1.7705.5532-2.0615.0742-.2881.1944-.3985.3345-.5567.1406-.1601.3017-.8789.437-1.3193s.6016-.8965.793-1.1025c.1914-.2051.3198-.0684.768.0009.4478.0704.8677,1.2764.8662,1.628-.0019.3515-.2421,1.0791-.4609,1.4053-.2187.3251-1.4058,1.1191-1.854,1.5576-.4487.4394-.227.747.0498.9716.2764.2256.7573-.0527,1.0288-.1084.2715-.0566,1.3701-.7373,1.5928-.9384.2226-.2041,1.2231-.5088,1.5591-.751.3359-.2432.4756-.5596.665-1.2402.189-.6807-.5522-2.1358-1.1533-3.084-.6006-.9473-1.4194-1.4102-1.731-1.7637-.312-.3525.8023-1.207,1.1856-1.6191.3838-.4121.5542-.7256.3779-1.5196-.1767-.7929-.7178-.873-1.1919-.664-.4736.209-.6738.8349-.9741,1.3623-.2998.5263-.6489.9082-1.1523,1.4297-.5035.5195-.711-.2754-.6236-.7051.0874-.4287.3052-.4238.812-1.5733.5064-1.1494-.0664-2.4902-.1899-2.6601-.124-.1709-.1094-.751-.3281-1.4024-.2183-.6513-.8609-.3906-1.3453.0899-.4838.4814-.1533.7881-.4824,1.5322-.3291.7442-.7002,1.0811-.9917,1.4268-.292.3467-.4966.6142-.7031,1.3281-.2065.7129-.8193,2.5654-.9434,3.043-.1245.4765-.8369,1.6914-1.1572,1.6992-.3198.0068.2359-1.0235.3384-1.4805.103-.458-.1216-.6191-.6816-.3926-.5601.2256-.6192.6436-.6045.9141.0146.2695-.1958,1.0273-.5249,1.7725-.3296.7441-.9463,1.791-1.209,2.6767-.2622.8867.3076,1.957.958,2.1963.6499.2393,1.5517-.2295,1.9023-.5449h0ZM170.9658,178.1099c.2295-.209.3745-.3409.3052-.5489-.0694-.206-.2276-.5341-.4698-.4267-.2426.1084-1.081.5556-.7954.7012.2852.1445.7305.4824.96.2744h0ZM171.5551,176.3823c.0918-.1484.0728-.4472.0879-.7793.0147-.331-.0727-1.5859-.2822-2.0312-.209-.4453-.2012-.8653-.2412-1.1153-.0391-.25-.0532-.7773-.4468-1.0859-.394-.3096-.6709-.1846-1.0102.4424-.3394.625-.7642,1.8369-.9644,2.1465-.2007.3095-.751.6826-.7148.9678.0361.2851.1972.7412.541.746.3437.0069.5439.2061.6518.3926.1075.1885.2901.2451.5303.1856.2402-.0586.6333-.2588,1.0122-.126s.7451.4023.8364.2568Z" fill="#2e3192" fill-rule="evenodd" stroke-width="0"/><circle cx="114.182" cy="114.1821" r="71.0469" transform="translate(-17.8884 207.0933) rotate(-80.1263)" fill="none" stroke="#2e3192" stroke-miterlimit="22.9256" stroke-width="1.533"/><circle cx="114.182" cy="114.1819" r="75.0719" transform="translate(-15.8547 18.4453) rotate(-8.6384)" fill="none" stroke="#2e3192" stroke-miterlimit="22.9256" stroke-width=".7356"/><polygon points="94.413 84.3232 95.705 84.3232 95.705 83.6465 99.3183 83.6465 99.3183 84.3306 100.9321 84.3306 100.9321 78.9946 127.7988 78.9946 127.7988 84.354 129.415 84.354 129.415 83.5855 133.0283 83.5855 133.0283 84.3506 134.3164 84.3506 134.3164 125.9155 139.3715 125.9155 139.3715 124.5142 182.7929 124.5142 182.7929 128.5064 198.0869 128.5064 198.0869 150.3364 30.6587 150.3364 30.6587 128.4761 46.0014 128.4761 46.0014 124.5103 89.3471 124.5103 89.3471 126.0396 94.3755 126.0396 94.413 84.3232" fill="#2e3192" fill-rule="evenodd" stroke-width="0"/><rect x="101.5307" y="79.6631" width="25.5357" height="4.9741" fill="#fff" stroke-width="0"/><polygon points="95.9511 84.9922 96.4443 84.9922 96.4443 84.3247 98.7378 84.3247 98.7378 84.9922 130.0229 84.9922 130.0229 84.2398 132.3442 84.2398 132.3442 85.0166 132.7382 85.0166 132.7382 130.1265 133.9292 130.1265 133.9292 149.8472 94.8022 149.8472 94.8022 130.0259 96.0913 130.0259 95.9511 84.9922" fill="#fff" fill-rule="evenodd" stroke-width="0"/><rect x="104.415" y="75.1011" width=".2124" height="3.9814" fill="#2e3192" stroke-width="0"/><rect x="105.646" y="75.1011" width=".2124" height="3.9814" fill="#2e3192" stroke-width="0"/><rect x="106.7392" y="75.1011" width=".2124" height="3.9814" fill="#2e3192" stroke-width="0"/><rect x="107.9336" y="75.1011" width=".2114" height="3.9814" fill="#2e3192" stroke-width="0"/><rect x="109.0634" y="75.1011" width=".212" height="3.9814" fill="#2e3192" stroke-width="0"/><rect x="110.2133" y="75.1011" width=".2124" height="3.9814" fill="#2e3192" stroke-width="0"/><rect x="111.3779" y="75.1011" width=".2124" height="3.9814" fill="#2e3192" stroke-width="0"/><rect x="112.4575" y="75.1011" width=".2114" height="3.9814" fill="#2e3192" stroke-width="0"/><rect x="115.9809" y="75.1011" width=".2124" height="3.9814" fill="#2e3192" stroke-width="0"/><rect x="117.1684" y="75.1011" width=".2124" height="3.9814" fill="#2e3192" stroke-width="0"/><rect x="118.2768" y="75.1011" width=".2119" height="3.9814" fill="#2e3192" stroke-width="0"/><rect x="119.4648" y="75.1011" width=".2129" height="3.9814" fill="#2e3192" stroke-width="0"/><rect x="120.5791" y="75.1011" width=".2114" height="3.9814" fill="#2e3192" stroke-width="0"/><rect x="121.7627" y="75.1011" width=".2124" height="3.9814" fill="#2e3192" stroke-width="0"/><rect x="122.8457" y="75.1011" width=".2129" height="3.9814" fill="#2e3192" stroke-width="0"/><rect x="124.0151" y="75.1011" width=".2129" height="3.9814" fill="#2e3192" stroke-width="0"/><rect x="104.415" y="75.1011" width="19.813" height=".2866" fill="#2e3192" stroke-width="0"/><rect x="113.4472" y="67.6743" width="1.8804" height="1.1607" fill="#2e3192" stroke-width="0"/><rect x="112.8706" y="71.9878" width="3.0327" height="1.1602" fill="#2e3192" stroke-width="0"/><rect x="113.9467" y="65.9219" width=".8824" height=".3091" fill="#2e3192" stroke="#231f20" stroke-miterlimit="22.9256" stroke-width=".0037"/><polygon points="112.6201 79.0132 113.3144 79.0132 114.1582 66.1816 113.9443 65.9165 112.6201 79.0132" fill="#2e3192" fill-rule="evenodd" stroke-width="0"/><polygon points="115.9668 79.0132 115.4599 79.0132 114.6157 66.1816 114.83 65.9165 115.9668 79.0132" fill="#2e3192" fill-rule="evenodd" stroke-width="0"/><polygon points="114.2236 68.6973 114.5034 68.6973 114.5786 79.0132 114.0239 79.0132 114.2236 68.6973" fill="#2e3192" fill-rule="evenodd" stroke-width="0"/><polyline points="114.4555 70.5503 113.5879 73.3867 115.5464 79.0366" fill="none" fill-rule="evenodd" stroke="#2e3192" stroke-miterlimit="22.9256" stroke-width=".085"/><path d="M175.9326,150.0015c-12.249,21.0088-35.3565,35.2275-61.752,35.2275s-49.5014-14.2187-61.7495-35.2275h123.5015Z" fill="#00652e" fill-rule="evenodd" stroke="#2e3192" stroke-miterlimit="22.9256" stroke-width=".216"/><rect x="104.4389" y="81.3379" width="1.5635" height="2.354" fill="#2e3192" stroke-width="0"/><rect x="106.2705" y="81.3379" width="3.0283" height="2.354" fill="#2e3192" stroke-width="0"/><rect x="109.5669" y="81.3379" width="3.0283" height="2.354" fill="#2e3192" stroke-width="0"/><rect x="112.8642" y="81.3379" width="3.0283" height="2.354" fill="#2e3192" stroke-width="0"/><rect x="116.1606" y="81.3379" width="3.0283" height="2.354" fill="#2e3192" stroke-width="0"/><rect x="119.458" y="81.3379" width="3.0283" height="2.354" fill="#2e3192" stroke-width="0"/><rect x="122.7553" y="81.3379" width="1.564" height="2.354" fill="#2e3192" stroke-width="0"/><rect x="99.0732" y="86.9439" width="2.0303" height="1.7827" fill="#2e3192" stroke-width="0"/><rect x="101.5293" y="86.9439" width="5.9853" height="1.7827" fill="#2e3192" stroke-width="0"/><rect x="107.9404" y="86.9439" width="6.1323" height="1.7827" fill="#2e3192" stroke-width="0"/><rect x="114.4995" y="86.9439" width="6.1323" height="1.7827" fill="#2e3192" stroke-width="0"/><rect x="121.0576" y="86.9439" width="6.1318" height="1.7827" fill="#2e3192" stroke-width="0"/><rect x="127.6167" y="86.9439" width="2.0293" height="1.7827" fill="#2e3192" stroke-width="0"/><rect x="99.0732" y="90.7607" width="2.0303" height="1.7837" fill="#2e3192" stroke-width="0"/><rect x="101.5293" y="90.7607" width="5.9853" height="1.7837" fill="#2e3192" stroke-width="0"/><rect x="107.9404" y="90.7607" width="6.1323" height="1.7837" fill="#2e3192" stroke-width="0"/><rect x="114.4995" y="90.7607" width="6.1323" height="1.7837" fill="#2e3192" stroke-width="0"/><rect x="121.0576" y="90.7607" width="6.1318" height="1.7837" fill="#2e3192" stroke-width="0"/><rect x="127.6167" y="90.7607" width="2.0293" height="1.7837" fill="#2e3192" stroke-width="0"/><rect x="99.0732" y="94.6055" width="2.0303" height="1.7827" fill="#2e3192" stroke-width="0"/><rect x="101.5293" y="94.6055" width="5.9853" height="1.7827" fill="#2e3192" stroke-width="0"/><rect x="107.9404" y="94.6055" width="6.1323" height="1.7827" fill="#2e3192" stroke-width="0"/><rect x="114.4995" y="94.6055" width="6.1323" height="1.7827" fill="#2e3192" stroke-width="0"/><rect x="121.0576" y="94.6055" width="6.1318" height="1.7827" fill="#2e3192" stroke-width="0"/><rect x="127.6167" y="94.6055" width="2.0293" height="1.7827" fill="#2e3192" stroke-width="0"/><rect x="99.0732" y="98.4229" width="2.0303" height="1.7822" fill="#2e3192" stroke-width="0"/><rect x="101.5293" y="98.4229" width="5.9853" height="1.7822" fill="#2e3192" stroke-width="0"/><rect x="107.9404" y="98.4229" width="6.1323" height="1.7822" fill="#2e3192" stroke-width="0"/><rect x="114.4995" y="98.4229" width="6.1323" height="1.7822" fill="#2e3192" stroke-width="0"/><rect x="121.0576" y="98.4229" width="6.1318" height="1.7822" fill="#2e3192" stroke-width="0"/><rect x="127.6167" y="98.4229" width="2.0293" height="1.7822" fill="#2e3192" stroke-width="0"/><rect x="99.0732" y="101.9356" width="2.0303" height="1.7832" fill="#2e3192" stroke-width="0"/><rect x="101.5293" y="101.9356" width="5.9853" height="1.7832" fill="#2e3192" stroke-width="0"/><rect x="107.9404" y="101.9356" width="6.1323" height="1.7832" fill="#2e3192" stroke-width="0"/><rect x="114.4995" y="101.9356" width="6.1323" height="1.7832" fill="#2e3192" stroke-width="0"/><rect x="121.0576" y="101.9356" width="6.1318" height="1.7832" fill="#2e3192" stroke-width="0"/><rect x="127.6167" y="101.9356" width="2.0293" height="1.7832" fill="#2e3192" stroke-width="0"/><rect x="99.0732" y="105.7529" width="2.0303" height="1.7837" fill="#2e3192" stroke-width="0"/><rect x="101.5293" y="105.7529" width="5.9853" height="1.7837" fill="#2e3192" stroke-width="0"/><rect x="107.9404" y="105.7529" width="6.1323" height="1.7837" fill="#2e3192" stroke-width="0"/><rect x="114.4995" y="105.7529" width="6.1323" height="1.7837" fill="#2e3192" stroke-width="0"/><rect x="121.0576" y="105.7529" width="6.1318" height="1.7837" fill="#2e3192" stroke-width="0"/><rect x="127.6167" y="105.7529" width="2.0293" height="1.7837" fill="#2e3192" stroke-width="0"/><rect x="99.0732" y="109.5972" width="2.0303" height="1.7827" fill="#2e3192" stroke-width="0"/><rect x="101.5293" y="109.5972" width="5.9853" height="1.7827" fill="#2e3192" stroke-width="0"/><rect x="107.9404" y="109.5972" width="6.1323" height="1.7827" fill="#2e3192" stroke-width="0"/><rect x="114.4995" y="109.5972" width="6.1323" height="1.7827" fill="#2e3192" stroke-width="0"/><rect x="121.0576" y="109.5972" width="6.1318" height="1.7827" fill="#2e3192" stroke-width="0"/><rect x="127.6167" y="109.5972" width="2.0293" height="1.7827" fill="#2e3192" stroke-width="0"/><rect x="99.0732" y="113.4141" width="2.0303" height="1.7837" fill="#2e3192" stroke-width="0"/><rect x="101.5293" y="113.4141" width="5.9853" height="1.7837" fill="#2e3192" stroke-width="0"/><rect x="107.9404" y="113.4141" width="6.1323" height="1.7837" fill="#2e3192" stroke-width="0"/><rect x="114.4995" y="113.4141" width="6.1323" height="1.7837" fill="#2e3192" stroke-width="0"/><rect x="121.0576" y="113.4141" width="6.1318" height="1.7837" fill="#2e3192" stroke-width="0"/><rect x="127.6167" y="113.4141" width="2.0293" height="1.7837" fill="#2e3192" stroke-width="0"/><rect x="99.0732" y="117.1069" width="2.0303" height="1.7832" fill="#2e3192" stroke-width="0"/><rect x="101.5293" y="117.1069" width="5.9853" height="1.7832" fill="#2e3192" stroke-width="0"/><rect x="107.9404" y="117.1069" width="6.1323" height="1.7832" fill="#2e3192" stroke-width="0"/><rect x="114.4995" y="117.1069" width="6.1323" height="1.7832" fill="#2e3192" stroke-width="0"/><rect x="121.0576" y="117.1069" width="6.1318" height="1.7832" fill="#2e3192" stroke-width="0"/><rect x="127.6167" y="117.1069" width="2.0293" height="1.7832" fill="#2e3192" stroke-width="0"/><rect x="99.0732" y="120.9243" width="2.0303" height="1.7832" fill="#2e3192" stroke-width="0"/><rect x="101.5293" y="120.9243" width="5.9853" height="1.7832" fill="#2e3192" stroke-width="0"/><rect x="107.9404" y="120.9243" width="6.1323" height="1.7832" fill="#2e3192" stroke-width="0"/><rect x="114.4995" y="120.9243" width="6.1323" height="1.7832" fill="#2e3192" stroke-width="0"/><rect x="121.0576" y="120.9243" width="6.1318" height="1.7832" fill="#2e3192" stroke-width="0"/><rect x="127.6167" y="120.9243" width="2.0293" height="1.7832" fill="#2e3192" stroke-width="0"/><rect x="99.0732" y="124.769" width="2.0303" height="1.7823" fill="#2e3192" stroke-width="0"/><rect x="101.5293" y="124.769" width="5.9853" height="1.7823" fill="#2e3192" stroke-width="0"/><rect x="107.9404" y="124.769" width="6.1323" height="1.7823" fill="#2e3192" stroke-width="0"/><rect x="114.4995" y="124.769" width="6.1323" height="1.7823" fill="#2e3192" stroke-width="0"/><rect x="121.0576" y="124.769" width="6.1318" height="1.7823" fill="#2e3192" stroke-width="0"/><rect x="127.6167" y="124.769" width="2.0293" height="1.7823" fill="#2e3192" stroke-width="0"/><rect x="99.0732" y="128.5855" width="2.0303" height="1.4951" fill="#2e3192" stroke-width="0"/><rect x="101.5293" y="128.5855" width="5.9853" height="1.4951" fill="#2e3192" stroke-width="0"/><rect x="107.9404" y="128.5855" width="6.1323" height="1.4951" fill="#2e3192" stroke-width="0"/><rect x="114.4995" y="128.5855" width="6.1323" height="1.4951" fill="#2e3192" stroke-width="0"/><rect x="121.0576" y="128.5855" width="6.1318" height="1.4951" fill="#2e3192" stroke-width="0"/><rect x="127.6167" y="128.5855" width="2.0293" height="1.4951" fill="#2e3192" stroke-width="0"/><rect x="95.7104" y="131.7983" width="5.1709" height="2.2149" fill="#2e3192" stroke-width="0"/><rect x="101.77" y="131.7983" width="5.1709" height="2.2149" fill="#2e3192" stroke-width="0"/><rect x="95.7104" y="135.8648" width="5.1709" height="2.2148" fill="#2e3192" stroke-width="0"/><rect x="101.77" y="135.8648" width="5.1709" height="2.2148" fill="#2e3192" stroke-width="0"/><rect x="95.7104" y="140.0288" width="5.1709" height="2.2139" fill="#2e3192" stroke-width="0"/><rect x="101.77" y="140.0288" width="5.1709" height="2.2139" fill="#2e3192" stroke-width="0"/><rect x="95.7104" y="144.064" width="5.1709" height="2.2129" fill="#2e3192" stroke-width="0"/><rect x="101.77" y="144.064" width="5.1709" height="2.2129" fill="#2e3192" stroke-width="0"/><rect x="121.8418" y="131.7983" width="5.1713" height="2.2149" fill="#2e3192" stroke-width="0"/><rect x="127.9018" y="131.7983" width="5.1709" height="2.2149" fill="#2e3192" stroke-width="0"/><rect x="121.8418" y="135.8648" width="5.1713" height="2.2148" fill="#2e3192" stroke-width="0"/><rect x="127.9018" y="135.8648" width="5.1709" height="2.2148" fill="#2e3192" stroke-width="0"/><rect x="121.8418" y="140.0288" width="5.1713" height="2.2139" fill="#2e3192" stroke-width="0"/><rect x="127.9018" y="140.0288" width="5.1709" height="2.2139" fill="#2e3192" stroke-width="0"/><rect x="121.8418" y="144.064" width="5.1713" height="2.2129" fill="#2e3192" stroke-width="0"/><rect x="127.9018" y="144.064" width="5.1709" height="2.2129" fill="#2e3192" stroke-width="0"/><rect x="107.9526" y="131.7983" width="1.3799" height="6.3946" fill="#2e3192" stroke-width="0"/><rect x="110.247" y="131.7983" width="1.3799" height="6.3946" fill="#2e3192" stroke-width="0"/><rect x="112.5429" y="131.7983" width="1.3799" height="6.3946" fill="#2e3192" stroke-width="0"/><rect x="114.8383" y="131.7983" width="1.3799" height="6.3946" fill="#2e3192" stroke-width="0"/><rect x="117.1338" y="131.7983" width="1.3803" height="6.3946" fill="#2e3192" stroke-width="0"/><rect x="119.4292" y="131.7983" width="1.3803" height="6.3946" fill="#2e3192" stroke-width="0"/><rect x="107.9448" y="141.0552" width="2.5835" height="7.2256" fill="#2e3192" stroke-width="0"/><rect x="111.082" y="141.0552" width="6.5708" height="7.2256" fill="#2e3192" stroke-width="0"/><rect x="118.1328" y="141.0552" width="2.5835" height="7.2256" fill="#2e3192" stroke-width="0"/><rect x="104.9111" y="149.2573" width="18.833" height=".6367" fill="none" stroke="#2e3192" stroke-miterlimit="22.9256" stroke-width=".0567"/><rect x="105.7226" y="148.8149" width="17.2105" height=".4424" fill="none" stroke="#2e3192" stroke-miterlimit="22.9256" stroke-width=".0567"/><rect x="106.4482" y="148.0855" width="15.7593" height=".7294" fill="none" stroke="#2e3192" stroke-miterlimit="22.9256" stroke-width=".0567"/><polyline points="106.0053 140.0347 106.8271 141.0591 107.5913 140.0064 108.2719 140.8882 108.895 140.0064 109.688 140.9458 110.3115 139.978 111.019 140.9165 111.6137 139.9497 112.3784 140.9165 113.0581 139.9204 113.6533 140.9165 114.3901 139.978 114.8994 140.9741 115.8628 140.0347 116.3437 140.8882 117.1367 140.0064 117.7031 141.0015 118.4961 139.978 119.0913 140.8882 119.8842 140.0923 120.4223 140.8882 121.0459 140.0923 121.8393 140.9741 122.5761 140.1196" fill="none" fill-rule="evenodd" stroke="#2e3192" stroke-miterlimit="22.9256" stroke-width=".085"/><rect x="104.7207" y="139.2925" width="19.2143" height=".6387" fill="#fff" stroke="#2e3192" stroke-miterlimit="22.9256" stroke-width=".0567"/><rect x="134.3027" y="126.6519" width="5.0088" height="22.7851" fill="#fff" stroke-width="0"/><polygon points="139.644 126.6401 140.0688 126.6401 140.0688 125.2427 182.1367 125.2427 182.1367 129.1694 197.4223 129.1694 197.4223 149.5103 139.6655 149.5103 139.644 126.6401" fill="#fff" fill-rule="evenodd" stroke="#231f20" stroke-miterlimit="22.9256" stroke-width=".0037"/><polygon points="89.0107 126.6401 88.5859 126.6401 88.5859 125.2427 46.518 125.2427 46.518 129.1694 31.2324 129.1694 31.2324 149.5103 88.9892 149.5103 89.0107 126.6401" fill="#fff" fill-rule="evenodd" stroke-width="0"/><rect x="137.4052" y="129.4536" width=".584" height=".584" fill="#2e3192" stroke-width="0"/><rect x="136.499" y="129.4536" width=".584" height=".584" fill="#2e3192" stroke-width="0"/><rect x="135.5932" y="129.4536" width=".584" height=".584" fill="#2e3192" stroke-width="0"/><rect x="137.4052" y="130.5181" width=".584" height=".5849" fill="#2e3192" stroke-width="0"/><rect x="136.499" y="130.5181" width=".584" height=".5849" fill="#2e3192" stroke-width="0"/><rect x="135.5932" y="130.5181" width=".584" height=".5849" fill="#2e3192" stroke-width="0"/><rect x="137.4052" y="131.5864" width=".584" height=".5821" fill="#2e3192" stroke-width="0"/><rect x="136.499" y="131.5864" width=".584" height=".5821" fill="#2e3192" stroke-width="0"/><rect x="135.5932" y="131.5864" width=".584" height=".5821" fill="#2e3192" stroke-width="0"/><rect x="137.4052" y="133.8091" width=".584" height=".584" fill="#2e3192" stroke-width="0"/><rect x="136.499" y="133.8091" width=".584" height=".584" fill="#2e3192" stroke-width="0"/><rect x="135.5932" y="133.8091" width=".584" height=".584" fill="#2e3192" stroke-width="0"/><rect x="137.4052" y="134.8745" width=".584" height=".584" fill="#2e3192" stroke-width="0"/><rect x="136.499" y="134.8745" width=".584" height=".584" fill="#2e3192" stroke-width="0"/><rect x="135.5932" y="134.8745" width=".584" height=".584" fill="#2e3192" stroke-width="0"/><rect x="137.4052" y="135.939" width=".584" height=".5849" fill="#2e3192" stroke-width="0"/><rect x="136.499" y="135.939" width=".584" height=".5849" fill="#2e3192" stroke-width="0"/><rect x="135.5932" y="135.939" width=".584" height=".5849" fill="#2e3192" stroke-width="0"/><rect x="137.4052" y="138.2065" width=".584" height=".5831" fill="#2e3192" stroke-width="0"/><rect x="136.499" y="138.2065" width=".584" height=".5831" fill="#2e3192" stroke-width="0"/><rect x="135.5932" y="138.2065" width=".584" height=".5831" fill="#2e3192" stroke-width="0"/><rect x="137.4052" y="139.273" width=".584" height=".5839" fill="#2e3192" stroke-width="0"/><rect x="136.499" y="139.273" width=".584" height=".5839" fill="#2e3192" stroke-width="0"/><rect x="135.5932" y="139.273" width=".584" height=".5839" fill="#2e3192" stroke-width="0"/><rect x="137.4052" y="140.3384" width=".584" height=".584" fill="#2e3192" stroke-width="0"/><rect x="136.499" y="140.3384" width=".584" height=".584" fill="#2e3192" stroke-width="0"/><rect x="135.5932" y="140.3384" width=".584" height=".584" fill="#2e3192" stroke-width="0"/><rect x="137.4052" y="142.563" width=".584" height=".584" fill="#2e3192" stroke-width="0"/><rect x="136.499" y="142.563" width=".584" height=".584" fill="#2e3192" stroke-width="0"/><rect x="135.5932" y="142.563" width=".584" height=".584" fill="#2e3192" stroke-width="0"/><rect x="137.4052" y="143.6284" width=".584" height=".584" fill="#2e3192" stroke-width="0"/><rect x="136.499" y="143.6284" width=".584" height=".584" fill="#2e3192" stroke-width="0"/><rect x="135.5932" y="143.6284" width=".584" height=".584" fill="#2e3192" stroke-width="0"/><rect x="137.4052" y="144.6939" width=".584" height=".5839" fill="#2e3192" stroke-width="0"/><rect x="136.499" y="144.6939" width=".584" height=".5839" fill="#2e3192" stroke-width="0"/><rect x="135.5932" y="144.6939" width=".584" height=".5839" fill="#2e3192" stroke-width="0"/><rect x="145.2602" y="127.0601" width="4.0293" height="2.6015" fill="#2e3192" stroke-width="0"/><rect x="140.2153" y="127.0601" width="4.0303" height="2.6015" fill="#2e3192" stroke-width="0"/><rect x="145.2602" y="131.4634" width="4.0293" height="2.6025" fill="#2e3192" stroke-width="0"/><rect x="140.2153" y="131.4634" width="4.0303" height="2.6025" fill="#2e3192" stroke-width="0"/><rect x="145.2602" y="135.8667" width="4.0293" height="2.6016" fill="#2e3192" stroke-width="0"/><rect x="140.2153" y="135.8667" width="4.0303" height="2.6016" fill="#2e3192" stroke-width="0"/><rect x="145.2602" y="140.27" width="4.0293" height="2.6006" fill="#2e3192" stroke-width="0"/><rect x="140.2153" y="140.27" width="4.0303" height="2.6006" fill="#2e3192" stroke-width="0"/><rect x="145.2602" y="144.6724" width="4.0293" height="2.6015" fill="#2e3192" stroke-width="0"/><rect x="140.2153" y="144.6724" width="4.0303" height="2.6015" fill="#2e3192" stroke-width="0"/><rect x="156.5898" y="127.0601" width="4.0293" height="2.6015" fill="#2e3192" stroke-width="0"/><rect x="156.5898" y="131.4634" width="4.0293" height="2.6025" fill="#2e3192" stroke-width="0"/><rect x="156.5898" y="135.8667" width="4.0293" height="2.6016" fill="#2e3192" stroke-width="0"/><rect x="156.5898" y="140.27" width="4.0293" height="2.6006" fill="#2e3192" stroke-width="0"/><rect x="156.5898" y="144.6724" width="4.0293" height="2.6015" fill="#2e3192" stroke-width="0"/><path d="M152.1313,127.0386h-1.3525v2.623h1.3525v-.4043h1.5576v.4043h1.352v-2.623h-1.352v.333h-1.5576v-.333h0ZM152.1313,129.0923v-.6934h1.5576v.6934h-1.5576ZM152.1313,128.2319v-.6943h1.5576v.6943h-1.5576Z" fill="#2e3192" fill-rule="evenodd" stroke-width="0"/><path d="M152.1313,131.4419h-1.3525v2.623h1.3525v-.4033h1.5576v.4033h1.352v-2.623h-1.352v.334h-1.5576v-.334h0ZM152.1313,133.4946v-.6933h1.5576v.6933h-1.5576ZM152.1313,132.6353v-.6944h1.5576v.6944h-1.5576Z" fill="#2e3192" fill-rule="evenodd" stroke-width="0"/><path d="M152.1313,135.8442h-1.3525v2.6241h1.3525v-.4043h1.5576v.4043h1.352v-2.6241h-1.352v.335h-1.5576v-.335h0ZM152.1313,137.898v-.6934h1.5576v.6934h-1.5576ZM152.1313,137.0396v-.6954h1.5576v.6954h-1.5576Z" fill="#2e3192" fill-rule="evenodd" stroke-width="0"/><path d="M152.1313,140.2485h-1.3525v2.6221h1.3525v-.4033h1.5576v.4033h1.352v-2.6221h-1.352v.333h-1.5576v-.333h0ZM152.1313,142.3023v-.6944h1.5576v.6944h-1.5576ZM152.1313,141.4429v-.6953h1.5576v.6953h-1.5576Z" fill="#2e3192" fill-rule="evenodd" stroke-width="0"/><path d="M152.1313,144.6499h-1.3525v2.624h1.3525v-.4043h1.5576v.4043h1.352v-2.624h-1.352v.333h-1.5576v-.333h0ZM152.1313,146.7056v-.6953h1.5576v.6953h-1.5576ZM152.1313,145.8442v-.6953h1.5576v.6953h-1.5576Z" fill="#2e3192" fill-rule="evenodd" stroke-width="0"/><path d="M163.2905,127.0386h-1.3525v2.623h1.3525v-.4043h1.5576v.4043h1.3525v-2.623h-1.3525v.333h-1.5576v-.333h0ZM163.2905,129.0923v-.6934h1.5576v.6934h-1.5576ZM163.2905,128.2319v-.6943h1.5576v.6943h-1.5576Z" fill="#2e3192" fill-rule="evenodd" stroke-width="0"/><path d="M163.2905,131.4419h-1.3525v2.623h1.3525v-.4033h1.5576v.4033h1.3525v-2.623h-1.3525v.334h-1.5576v-.334h0ZM163.2905,133.4946v-.6933h1.5576v.6933h-1.5576ZM163.2905,132.6353v-.6944h1.5576v.6944h-1.5576Z" fill="#2e3192" fill-rule="evenodd" stroke-width="0"/><path d="M163.2905,135.8442h-1.3525v2.6241h1.3525v-.4043h1.5576v.4043h1.3525v-2.6241h-1.3525v.335h-1.5576v-.335h0ZM163.2905,137.898v-.6934h1.5576v.6934h-1.5576ZM163.2905,137.0396v-.6954h1.5576v.6954h-1.5576Z" fill="#2e3192" fill-rule="evenodd" stroke-width="0"/><path d="M163.2905,140.2485h-1.3525v2.6221h1.3525v-.4033h1.5576v.4033h1.3525v-2.6221h-1.3525v.333h-1.5576v-.333h0ZM163.2905,142.3023v-.6944h1.5576v.6944h-1.5576ZM163.2905,141.4429v-.6953h1.5576v.6953h-1.5576Z" fill="#2e3192" fill-rule="evenodd" stroke-width="0"/><path d="M163.2905,144.6499h-1.3525v2.624h1.3525v-.4043h1.5576v.4043h1.3525v-2.624h-1.3525v.333h-1.5576v-.333h0ZM163.2905,146.7056v-.6953h1.5576v.6953h-1.5576ZM163.2905,145.8442v-.6953h1.5576v.6953h-1.5576Z" fill="#2e3192" fill-rule="evenodd" stroke-width="0"/><rect x="191.2861" y="130.2583" width="5.748" height="1.7803" fill="#2e3192" stroke-width="0"/><rect x="191.2861" y="136.9067" width="5.748" height="1.5157" fill="#2e3192" stroke-width="0"/><rect x="191.2861" y="138.7739" width="5.748" height="1.5166" fill="#2e3192" stroke-width="0"/><rect x="191.2861" y="140.6421" width="5.748" height="1.5176" fill="#2e3192" stroke-width="0"/><rect x="191.2861" y="142.5112" width="5.748" height="1.5176" fill="#2e3192" stroke-width="0"/><rect x="191.2861" y="144.3794" width="5.748" height="1.5156" fill="#2e3192" stroke-width="0"/><rect x="187.0835" y="132.2671" width="2.0356" height=".6934" fill="#2e3192" stroke-width="0"/><rect x="187.0835" y="133.2817" width="2.0356" height=".6934" fill="#2e3192" stroke-width="0"/><rect x="187.0835" y="134.2974" width="2.0356" height=".6933" fill="#2e3192" stroke-width="0"/><rect x="187.0835" y="135.3101" width="2.0356" height=".6933" fill="#2e3192" stroke-width="0"/><rect x="187.0835" y="136.3247" width="2.0356" height=".6934" fill="#2e3192" stroke-width="0"/><rect x="187.0835" y="137.3384" width="2.0356" height=".6924" fill="#2e3192" stroke-width="0"/><rect x="187.0835" y="138.353" width="2.0356" height=".6924" fill="#2e3192" stroke-width="0"/><rect x="187.0835" y="139.3667" width="2.0356" height=".6934" fill="#2e3192" stroke-width="0"/><rect x="187.0835" y="140.3814" width="2.0356" height=".6923" fill="#2e3192" stroke-width="0"/><rect x="187.0835" y="141.395" width="2.0356" height=".6934" fill="#2e3192" stroke-width="0"/><rect x="184.6757" y="132.2671" width="2.0357" height=".6934" fill="#2e3192" stroke-width="0"/><rect x="184.6757" y="133.2817" width="2.0357" height=".6934" fill="#2e3192" stroke-width="0"/><rect x="184.6757" y="134.2974" width="2.0357" height=".6933" fill="#2e3192" stroke-width="0"/><rect x="184.6757" y="135.3101" width="2.0357" height=".6933" fill="#2e3192" stroke-width="0"/><rect x="184.6757" y="136.3247" width="2.0357" height=".6934" fill="#2e3192" stroke-width="0"/><rect x="184.6757" y="137.3384" width="2.0357" height=".6924" fill="#2e3192" stroke-width="0"/><rect x="184.6757" y="138.353" width="2.0357" height=".6924" fill="#2e3192" stroke-width="0"/><rect x="184.6757" y="139.3667" width="2.0357" height=".6934" fill="#2e3192" stroke-width="0"/><rect x="184.6757" y="140.3814" width="2.0357" height=".6923" fill="#2e3192" stroke-width="0"/><rect x="184.6757" y="141.395" width="2.0357" height=".6934" fill="#2e3192" stroke-width="0"/><rect x="186.4629" y="129.8442" width=".83" height="2.2754" fill="#2e3192" stroke-width="0"/><rect x="186.4629" y="142.3872" width=".83" height="2.6406" fill="#2e3192" stroke-width="0"/><rect x="186.4629" y="146.2124" width=".83" height="3.2813" fill="#2e3192" stroke-width="0"/><rect x="189.5498" y="145.1567" width=".83" height=".9825" fill="#2e3192" stroke-width="0"/><rect x="188.0771" y="145.1567" width=".8301" height=".9825" fill="#2e3192" stroke-width="0"/><rect x="184.9663" y="145.1567" width=".8305" height=".9825" fill="#2e3192" stroke-width="0"/><rect x="183.4941" y="145.1567" width=".8301" height=".9825" fill="#2e3192" stroke-width="0"/><rect x="180.0029" y="132.2105" width="1.4727" height="3.8681" fill="#2e3192" stroke-width="0"/><rect x="180.0029" y="138.2847" width="1.4727" height="3.8681" fill="#2e3192" stroke-width="0"/><rect x="167.312" y="131.6138" width="8.3511" height="2.3867" fill="#2e3192" stroke-width="0"/><rect x="167.312" y="136.0024" width="8.3511" height="2.3868" fill="#2e3192" stroke-width="0"/><rect x="167.312" y="140.356" width="8.3511" height="2.3877" fill="#2e3192" stroke-width="0"/><rect x="167.312" y="144.645" width="8.3511" height="3.6358" fill="#2e3192" stroke-width="0"/><polyline points="182.2793 128.8501 178.8838 128.8501 178.8838 131.5835 175.562 131.5835" fill="none" fill-rule="evenodd" stroke="#2e3192" stroke-miterlimit="22.9256" stroke-width=".085"/><polyline points="175.5879 133.9009 178.9775 133.9009 178.9775 135.9429 174.6997 135.9429" fill="none" fill-rule="evenodd" stroke="#2e3192" stroke-miterlimit="22.9256" stroke-width=".085"/><polyline points="175.5879 138.2388 178.9775 138.2388 178.9775 140.2798 174.6997 140.2798" fill="none" fill-rule="evenodd" stroke="#2e3192" stroke-miterlimit="22.9256" stroke-width=".085"/><polyline points="175.5737 142.73 179.4038 142.73 179.4038 144.439 182.5468 144.439 182.5468 149.5933" fill="none" fill-rule="evenodd" stroke="#2e3192" stroke-miterlimit="22.9256" stroke-width=".085"/><rect x="165.5678" y="148.7427" width="17.0137" height=".8535" fill="#fff" stroke="#2e3192" stroke-miterlimit="22.9256" stroke-width=".085"/><rect x="166.3003" y="148.0464" width="15.5488" height=".6963" fill="#fff" stroke="#2e3192" stroke-miterlimit="22.9256" stroke-width=".085"/><rect x="89.3525" y="126.6519" width="5.0083" height="22.7851" fill="#fff" stroke-width="0"/><rect x="90.6533" y="129.4536" width=".584" height=".584" fill="#2e3192" stroke-width="0"/><rect x="91.56" y="129.4536" width=".5835" height=".584" fill="#2e3192" stroke-width="0"/><rect x="92.4668" y="129.4536" width=".5835" height=".584" fill="#2e3192" stroke-width="0"/><rect x="90.6533" y="130.5181" width=".584" height=".5849" fill="#2e3192" stroke-width="0"/><rect x="91.56" y="130.5181" width=".5835" height=".5849" fill="#2e3192" stroke-width="0"/><rect x="92.4668" y="130.5181" width=".5835" height=".5849" fill="#2e3192" stroke-width="0"/><rect x="90.6533" y="131.5864" width=".584" height=".5821" fill="#2e3192" stroke-width="0"/><rect x="91.56" y="131.5864" width=".5835" height=".5821" fill="#2e3192" stroke-width="0"/><rect x="92.4668" y="131.5864" width=".5835" height=".5821" fill="#2e3192" stroke-width="0"/><rect x="90.6533" y="133.8091" width=".584" height=".584" fill="#2e3192" stroke-width="0"/><rect x="91.56" y="133.8091" width=".5835" height=".584" fill="#2e3192" stroke-width="0"/><rect x="92.4668" y="133.8091" width=".5835" height=".584" fill="#2e3192" stroke-width="0"/><rect x="90.6533" y="134.8745" width=".584" height=".584" fill="#2e3192" stroke-width="0"/><rect x="91.56" y="134.8745" width=".5835" height=".584" fill="#2e3192" stroke-width="0"/><rect x="92.4668" y="134.8745" width=".5835" height=".584" fill="#2e3192" stroke-width="0"/><rect x="90.6533" y="135.939" width=".584" height=".5849" fill="#2e3192" stroke-width="0"/><rect x="91.56" y="135.939" width=".5835" height=".5849" fill="#2e3192" stroke-width="0"/><rect x="92.4668" y="135.939" width=".5835" height=".5849" fill="#2e3192" stroke-width="0"/><rect x="90.6533" y="138.2065" width=".584" height=".5831" fill="#2e3192" stroke-width="0"/><rect x="91.56" y="138.2065" width=".5835" height=".5831" fill="#2e3192" stroke-width="0"/><rect x="92.4668" y="138.2065" width=".5835" height=".5831" fill="#2e3192" stroke-width="0"/><rect x="90.6533" y="139.273" width=".584" height=".5839" fill="#2e3192" stroke-width="0"/><rect x="91.56" y="139.273" width=".5835" height=".5839" fill="#2e3192" stroke-width="0"/><rect x="92.4668" y="139.273" width=".5835" height=".5839" fill="#2e3192" stroke-width="0"/><rect x="90.6533" y="140.3384" width=".584" height=".584" fill="#2e3192" stroke-width="0"/><rect x="91.56" y="140.3384" width=".5835" height=".584" fill="#2e3192" stroke-width="0"/><rect x="92.4668" y="140.3384" width=".5835" height=".584" fill="#2e3192" stroke-width="0"/><rect x="90.6533" y="142.563" width=".584" height=".584" fill="#2e3192" stroke-width="0"/><rect x="91.56" y="142.563" width=".5835" height=".584" fill="#2e3192" stroke-width="0"/><rect x="92.4668" y="142.563" width=".5835" height=".584" fill="#2e3192" stroke-width="0"/><rect x="90.6533" y="143.6284" width=".584" height=".584" fill="#2e3192" stroke-width="0"/><rect x="91.56" y="143.6284" width=".5835" height=".584" fill="#2e3192" stroke-width="0"/><rect x="92.4668" y="143.6284" width=".5835" height=".584" fill="#2e3192" stroke-width="0"/><rect x="90.6533" y="144.6939" width=".584" height=".5839" fill="#2e3192" stroke-width="0"/><rect x="91.56" y="144.6939" width=".5835" height=".5839" fill="#2e3192" stroke-width="0"/><rect x="92.4668" y="144.6939" width=".5835" height=".5839" fill="#2e3192" stroke-width="0"/><rect x="79.3535" y="127.0601" width="4.0298" height="2.6015" fill="#2e3192" stroke-width="0"/><rect x="84.3984" y="127.0601" width="4.0293" height="2.6015" fill="#2e3192" stroke-width="0"/><rect x="79.3535" y="131.4634" width="4.0298" height="2.6025" fill="#2e3192" stroke-width="0"/><rect x="84.3984" y="131.4634" width="4.0293" height="2.6025" fill="#2e3192" stroke-width="0"/><rect x="79.3535" y="135.8667" width="4.0298" height="2.6016" fill="#2e3192" stroke-width="0"/><rect x="84.3984" y="135.8667" width="4.0293" height="2.6016" fill="#2e3192" stroke-width="0"/><rect x="79.3535" y="140.27" width="4.0298" height="2.6006" fill="#2e3192" stroke-width="0"/><rect x="84.3984" y="140.27" width="4.0293" height="2.6006" fill="#2e3192" stroke-width="0"/><rect x="79.3535" y="144.6724" width="4.0298" height="2.6015" fill="#2e3192" stroke-width="0"/><rect x="84.3984" y="144.6724" width="4.0293" height="2.6015" fill="#2e3192" stroke-width="0"/><rect x="68.0239" y="127.0601" width="4.0298" height="2.6015" fill="#2e3192" stroke-width="0"/><rect x="68.0239" y="131.4634" width="4.0298" height="2.6025" fill="#2e3192" stroke-width="0"/><rect x="68.0239" y="135.8667" width="4.0298" height="2.6016" fill="#2e3192" stroke-width="0"/><rect x="68.0239" y="140.27" width="4.0298" height="2.6006" fill="#2e3192" stroke-width="0"/><rect x="68.0239" y="144.6724" width="4.0298" height="2.6015" fill="#2e3192" stroke-width="0"/><path d="M76.5122,127.0386h1.3525v2.623h-1.3525v-.4043h-1.5576v.4043h-1.3521v-2.623h1.3521v.333h1.5576v-.333h0ZM76.5122,129.0923v-.6934h-1.5576v.6934h1.5576ZM76.5122,128.2319v-.6943h-1.5576v.6943h1.5576Z" fill="#2e3192" fill-rule="evenodd" stroke-width="0"/><path d="M76.5122,131.4419h1.3525v2.623h-1.3525v-.4033h-1.5576v.4033h-1.3521v-2.623h1.3521v.334h1.5576v-.334h0ZM76.5122,133.4946v-.6933h-1.5576v.6933h1.5576ZM76.5122,132.6353v-.6944h-1.5576v.6944h1.5576Z" fill="#2e3192" fill-rule="evenodd" stroke-width="0"/><path d="M76.5122,135.8442h1.3525v2.6241h-1.3525v-.4043h-1.5576v.4043h-1.3521v-2.6241h1.3521v.335h1.5576v-.335h0ZM76.5122,137.898v-.6934h-1.5576v.6934h1.5576ZM76.5122,137.0396v-.6954h-1.5576v.6954h1.5576Z" fill="#2e3192" fill-rule="evenodd" stroke-width="0"/><path d="M76.5122,140.2485h1.3525v2.6221h-1.3525v-.4033h-1.5576v.4033h-1.3521v-2.6221h1.3521v.333h1.5576v-.333h0ZM76.5122,142.3023v-.6944h-1.5576v.6944h1.5576ZM76.5122,141.4429v-.6953h-1.5576v.6953h1.5576Z" fill="#2e3192" fill-rule="evenodd" stroke-width="0"/><path d="M76.5122,144.6499h1.3525v2.624h-1.3525v-.4043h-1.5576v.4043h-1.3521v-2.624h1.3521v.333h1.5576v-.333h0ZM76.5122,146.7056v-.6953h-1.5576v.6953h1.5576ZM76.5122,145.8442v-.6953h-1.5576v.6953h1.5576Z" fill="#2e3192" fill-rule="evenodd" stroke-width="0"/><path d="M65.353,127.0386h1.3525v2.623h-1.3525v-.4043h-1.5576v.4043h-1.3526v-2.623h1.3526v.333h1.5576v-.333h0ZM65.353,129.0923v-.6934h-1.5576v.6934h1.5576ZM65.353,128.2319v-.6943h-1.5576v.6943h1.5576Z" fill="#2e3192" fill-rule="evenodd" stroke-width="0"/><path d="M65.353,131.4419h1.3525v2.623h-1.3525v-.4033h-1.5576v.4033h-1.3526v-2.623h1.3526v.334h1.5576v-.334h0ZM65.353,133.4946v-.6933h-1.5576v.6933h1.5576ZM65.353,132.6353v-.6944h-1.5576v.6944h1.5576Z" fill="#2e3192" fill-rule="evenodd" stroke-width="0"/><path d="M65.353,135.8442h1.3525v2.6241h-1.3525v-.4043h-1.5576v.4043h-1.3526v-2.6241h1.3526v.335h1.5576v-.335h0ZM65.353,137.898v-.6934h-1.5576v.6934h1.5576ZM65.353,137.0396v-.6954h-1.5576v.6954h1.5576Z" fill="#2e3192" fill-rule="evenodd" stroke-width="0"/><path d="M65.353,140.2485h1.3525v2.6221h-1.3525v-.4033h-1.5576v.4033h-1.3526v-2.6221h1.3526v.333h1.5576v-.333h0ZM65.353,142.3023v-.6944h-1.5576v.6944h1.5576ZM65.353,141.4429v-.6953h-1.5576v.6953h1.5576Z" fill="#2e3192" fill-rule="evenodd" stroke-width="0"/><path d="M65.353,144.6499h1.3525v2.624h-1.3525v-.4043h-1.5576v.4043h-1.3526v-2.624h1.3526v.333h1.5576v-.333h0ZM65.353,146.7056v-.6953h-1.5576v.6953h1.5576ZM65.353,145.8442v-.6953h-1.5576v.6953h1.5576Z" fill="#2e3192" fill-rule="evenodd" stroke-width="0"/><rect x="31.6098" y="130.2583" width="5.7476" height="1.7803" fill="#2e3192" stroke-width="0"/><rect x="31.6098" y="136.9067" width="5.7476" height="1.5157" fill="#2e3192" stroke-width="0"/><rect x="31.6098" y="138.7739" width="5.7476" height="1.5166" fill="#2e3192" stroke-width="0"/><rect x="31.6098" y="140.6421" width="5.7476" height="1.5176" fill="#2e3192" stroke-width="0"/><rect x="31.6098" y="142.5112" width="5.7476" height="1.5176" fill="#2e3192" stroke-width="0"/><rect x="31.6098" y="144.3794" width="5.7476" height="1.5156" fill="#2e3192" stroke-width="0"/><rect x="39.5239" y="132.2671" width="2.0356" height=".6934" fill="#2e3192" stroke-width="0"/><rect x="39.5239" y="133.2817" width="2.0356" height=".6934" fill="#2e3192" stroke-width="0"/><rect x="39.5239" y="134.2974" width="2.0356" height=".6933" fill="#2e3192" stroke-width="0"/><rect x="39.5239" y="135.3101" width="2.0356" height=".6933" fill="#2e3192" stroke-width="0"/><rect x="39.5239" y="136.3247" width="2.0356" height=".6934" fill="#2e3192" stroke-width="0"/><rect x="39.5239" y="137.3384" width="2.0356" height=".6924" fill="#2e3192" stroke-width="0"/><rect x="39.5239" y="138.353" width="2.0356" height=".6924" fill="#2e3192" stroke-width="0"/><rect x="39.5239" y="139.3667" width="2.0356" height=".6934" fill="#2e3192" stroke-width="0"/><rect x="39.5239" y="140.3814" width="2.0356" height=".6923" fill="#2e3192" stroke-width="0"/><rect x="39.5239" y="141.395" width="2.0356" height=".6934" fill="#2e3192" stroke-width="0"/><rect x="41.9316" y="132.2671" width="2.0356" height=".6934" fill="#2e3192" stroke-width="0"/><rect x="41.9316" y="133.2817" width="2.0356" height=".6934" fill="#2e3192" stroke-width="0"/><rect x="41.9316" y="134.2974" width="2.0356" height=".6933" fill="#2e3192" stroke-width="0"/><rect x="41.9316" y="135.3101" width="2.0356" height=".6933" fill="#2e3192" stroke-width="0"/><rect x="41.9316" y="136.3247" width="2.0356" height=".6934" fill="#2e3192" stroke-width="0"/><rect x="41.9316" y="137.3384" width="2.0356" height=".6924" fill="#2e3192" stroke-width="0"/><rect x="41.9316" y="138.353" width="2.0356" height=".6924" fill="#2e3192" stroke-width="0"/><rect x="41.9316" y="139.3667" width="2.0356" height=".6934" fill="#2e3192" stroke-width="0"/><rect x="41.9316" y="140.3814" width="2.0356" height=".6923" fill="#2e3192" stroke-width="0"/><rect x="41.9316" y="141.395" width="2.0356" height=".6934" fill="#2e3192" stroke-width="0"/><rect x="41.3501" y="129.8442" width=".83" height="2.2754" fill="#2e3192" stroke-width="0"/><rect x="41.3501" y="142.3872" width=".83" height="2.6406" fill="#2e3192" stroke-width="0"/><rect x="41.3501" y="146.2124" width=".83" height="3.2813" fill="#2e3192" stroke-width="0"/><rect x="38.2641" y="145.1567" width=".8301" height=".9825" fill="#2e3192" stroke-width="0"/><rect x="39.7363" y="145.1567" width=".8301" height=".9825" fill="#2e3192" stroke-width="0"/><rect x="42.8471" y="145.1567" width=".8291" height=".9825" fill="#2e3192" stroke-width="0"/><rect x="44.3198" y="145.1567" width=".8296" height=".9825" fill="#2e3192" stroke-width="0"/><rect x="47.1679" y="132.2105" width="1.4717" height="3.8681" fill="#2e3192" stroke-width="0"/><rect x="47.1679" y="138.2847" width="1.4717" height="3.8681" fill="#2e3192" stroke-width="0"/><rect x="52.9804" y="131.6138" width="8.3511" height="2.3867" fill="#2e3192" stroke-width="0"/><rect x="52.9804" y="136.0024" width="8.3511" height="2.3868" fill="#2e3192" stroke-width="0"/><rect x="52.9804" y="140.356" width="8.3511" height="2.3877" fill="#2e3192" stroke-width="0"/><rect x="52.9804" y="144.645" width="8.3511" height="3.6358" fill="#2e3192" stroke-width="0"/><polyline points="46.3637 128.8501 49.7597 128.8501 49.7597 131.5835 53.081 131.5835" fill="none" fill-rule="evenodd" stroke="#2e3192" stroke-miterlimit="22.9256" stroke-width=".085"/><polyline points="53.0556 133.9009 49.666 133.9009 49.666 135.9429 53.9438 135.9429" fill="none" fill-rule="evenodd" stroke="#2e3192" stroke-miterlimit="22.9256" stroke-width=".085"/><polyline points="53.0556 138.2388 49.666 138.2388 49.666 140.2798 53.9438 140.2798" fill="none" fill-rule="evenodd" stroke="#2e3192" stroke-miterlimit="22.9256" stroke-width=".085"/><polyline points="53.0698 142.73 49.2392 142.73 49.2392 144.439 46.0966 144.439 46.0966 149.5933" fill="none" fill-rule="evenodd" stroke="#2e3192" stroke-miterlimit="22.9256" stroke-width=".085"/><rect x="46.062" y="148.7427" width="17.0141" height=".8535" fill="#fff" stroke="#2e3192" stroke-miterlimit="22.9256" stroke-width=".085"/><rect x="46.7949" y="148.0464" width="15.5483" height=".6963" fill="#fff" stroke="#2e3192" stroke-miterlimit="22.9256" stroke-width=".085"/></g></svg>