<?xml version="1.0" encoding="UTF-8"?><svg id="b" xmlns="http://www.w3.org/2000/svg" viewBox="0 0 283.519 283.519"><g id="c"><path d="M141.76,283.519C63.594,283.519,0,219.926,0,141.759S63.594,0,141.76,0s141.759,63.593,141.759,141.759-63.593,141.76-141.759,141.76M141.76,5.54C66.648,5.54,5.541,66.648,5.541,141.759s61.107,136.22,136.219,136.22,136.218-61.108,136.218-136.22S216.871,5.54,141.76,5.54" fill="#0e4e96" stroke-width="0"/><path d="M252.724,140.009l10.201,6.546,6.233.564-.199,2.198-6.177-.559-11.253,4.461.226-2.504,7.835-2.984c.008-.006.379-.108,1.119-.308l.0031-.03c-.298-.118-.643-.299-1.031-.549l-7.168-4.506M252.888,156.938l-1.223,4.751,14.579,3.754-.551,2.138-14.579-3.754-1.219,4.733-1.891-.487,2.993-11.622,1.891.487ZM248.292,172.992l-.552,1.538,12.513,4.499.553-1.537,1.746.628-1.851,5.145-1.745-.628.554-1.541-12.513-4.499-.555,1.541-1.746-.628,1.851-5.145,1.745.627ZM250.704,197.471c.642-.263,1.283-.718,1.934-1.37.649-.648,1.149-1.325,1.498-2.026,1.064-2.137.836-3.581-.684-4.338-.426-.212-.865-.288-1.322-.227-.456.058-.912.225-1.375.492-.461.269-1.237.82-2.329,1.65-1.518,1.149-2.727,1.803-3.619,1.962-.896.162-1.761.032-2.6-.385-1.265-.63-2.013-1.634-2.248-3.02-.236-1.386.034-2.851.803-4.397.754-1.514,1.487-2.534,2.209-3.058l2.14,1.065c-1.091.604-1.986,1.603-2.684,3.005-.465.933-.647,1.788-.547,2.57.099.778.492,1.342,1.186,1.688.618.307,1.22.352,1.811.139.588-.214,1.554-.834,2.896-1.858,1.458-1.137,2.693-1.828,3.704-2.066,1.012-.242,1.962-.141,2.855.303,1.335.665,2.121,1.659,2.352,2.988.232,1.325-.082,2.848-.941,4.572-.299.601-.733,1.264-1.3,1.982-.564.72-1.064,1.204-1.497,1.445l-2.242-1.116ZM232.224,205.005l5.038,3.266,1.408-2.173c.547-.843.745-1.684.594-2.527-.153-.845-.627-1.528-1.422-2.043-.745-.483-1.481-.616-2.21-.41-.727.207-1.388.771-1.981,1.685l-1.427,2.202ZM250.441,204.636l-1.408,2.173-5.498-.201c-1.098-.042-1.9171.043-2.458.251-.541.207-.987.584-1.342,1.131l-.86,1.327,6.006,3.895-1.1949,1.843-14.27-9.253,2.819-4.349c.9-1.387,1.938-2.259,3.118-2.611,1.18-.352,2.372-.137,3.576.643,1.978,1.283,2.576,3.171,1.794,5.666l.047.03c.422-.284.878-.471,1.372-.558.49-.088,1.253-.115,2.295-.088l6.004.101ZM238.658,221.645l-6.035,6.87-12.777-11.226,5.783-6.583,1.467,1.289-4.334,4.933,4.091,3.594,4.016-4.57,1.461,1.284-4.016,4.57,4.298,3.775,4.585-5.22,1.461,1.284ZM216.268,221.212l6.574,16.884-1.827,1.613-15.85-8.693,1.826-1.613,12.234,6.937c.4059.226.8279.534,1.266.917l.039-.034c-.29-.42-.534-.889-.735-1.416l-5.289-13.039,1.762-1.556ZM203.128,234.391l-1.359.905,7.372,11.067,1.36-.906,1.0291,1.544-4.551,3.032-1.028-1.544,1.363-.908-7.374-11.067-1.362.908-1.029-1.543,4.551-3.033,1.028,1.545ZM200.278,254.075l-2.365,1.082-13.285-8.472c-.374-.241-.705-.498-.989-.767l-.058.026c.208.321.566,1.031,1.07,2.132l4.973,10.872-1.977.905-7.075-15.467,2.505-1.146,12.978,8.361c.614.395.991.651,1.126.775l.04-.019c-.265-.41-.643-1.144-1.131-2.211l-4.864-10.634,1.977-.904,7.075,15.467ZM177.306,256.1c1.089,4.686-.491,7.52-4.7401,8.508-4.0699.947-6.633-.839-7.684-5.358l-2.34-10.065,2.139-.497,2.318,9.966c.771,3.318,2.547,4.652,5.329,4.005,2.687-.625,3.656-2.543,2.911-5.752l-2.355-10.127,2.139-.497,2.283,9.817ZM138.316,267.447l-2.59-.239-7.302-13.962c-.204-.395-.364-.783-.476-1.158l-.064-.006c.0211.382-.022,1.176-.134,2.382l-1.1,11.905-2.165-.201,1.566-16.935,2.743.254,7.092,13.712c.335.649.534,1.058.59,1.232l.044.005c-.026-.488.013-1.313.12-2.481l1.077-11.644,2.164.2-1.565,16.936ZM117.239,257.604c-1.268,4.642-4.006,6.385-8.213,5.236-4.032-1.101-5.439-3.89-4.216-8.365l2.722-9.969,2.119.579-2.696,9.871c-.897,3.286.032,5.304,2.787,6.056,2.661.726,4.426-.501,5.294-3.679l2.739-10.03,2.118.579-2.654,9.722ZM94.357,257.72l-1.984-.942,3.29-6.923-7.775-3.695-3.291,6.922-1.983-.942,7.3-15.362,1.984.943-3.172,6.675,7.775,3.695,3.173-6.674,1.984.942-7.301,15.361ZM75.655,247.351c-1.406-.164-2.887-.78-4.442-1.846-2.012-1.38-3.18-3.116-3.507-5.217-.326-2.104.232-4.203,1.672-6.305,1.547-2.257,3.471-3.61,5.764-4.06,2.299-.45,4.486.04,6.569,1.468,1.342.92,2.319,1.867,2.933,2.847l-1.298,1.895c-.621-1.244-1.531-2.276-2.733-3.1-1.564-1.073-3.196-1.423-4.891-1.059-1.7.366-3.156,1.436-4.368,3.204-1.151,1.678-1.604,3.327-1.364,4.945.239,1.614,1.103,2.933,2.589,3.952,1.389.951,2.81,1.462,4.267,1.539l-1.191,1.737ZM59.541,234.87c-1.893-.483-3.61-1.467-5.151-2.952-1.769-1.707-2.658-3.642-2.66-5.804-.002-2.163.9-4.184,2.702-6.053,1.824-1.891,3.921-2.868,6.293-2.934,2.368-.065,4.488.809,6.358,2.612,1.322,1.274,2.238,2.565,2.751,3.87l-1.648,1.708c-.383-1.562-1.2549-2.997-2.6089-4.303-1.333-1.285-2.871-1.888-4.613-1.808-1.745.076-3.335.861-4.774,2.352-1.477,1.533-2.23,3.113-2.257,4.733-.026,1.62.634,3.084,1.988,4.39.934.901,1.901,1.485,2.9,1.755l3.193-3.31-2.658-2.563,1.35-1.399,4.247,4.094-5.412,5.612ZM43.342,219.553l-1.476-2.141,6.038-14.553c.173-.41.368-.781.584-1.108l-.0359-.052c-.28.261-.9171.737-1.914,1.423l-9.8441,6.785-1.2339-1.79,14.004-9.652,1.563,2.269-5.981,14.231c-.283.673-.47,1.089-.568,1.243l.025.037c.357-.333,1.015-.832,1.981-1.497l9.629-6.636,1.233,1.79-14.004,9.651ZM35.906,194.572l5.543-5.087c.176-.163.51-.395.992-.698l-.021-.052c-.505.122-.903.189-1.198.203l-7.509.364,2.193,5.27ZM31.694,201.57l-.9319-2.239,3.631-3.391-2.721-6.539-4.926.279-.933-2.242,18.192-.552.903,2.17-13.2141,12.514ZM23.726,180.2l-.474-2.144,7.485-1.653-1.857-8.406-7.484,1.653-.474-2.145,16.608-3.668.474,2.145-7.217,1.593,1.857,8.407,7.216-1.594.474,2.144-16.608,3.668ZM20.405,159.059c-.762-1.192-1.221-2.729-1.379-4.608-.203-2.431.404-4.434,1.825-6.017,1.424-1.582,3.403-2.477,5.942-2.69,2.726-.229,4.991.406,6.79,1.898,1.803,1.496,2.805,3.5,3.016,6.018.136,1.621.02,2.976-.351,4.072l-2.289.192c.571-1.267.796-2.625.674-4.077-.158-1.89-.919-3.376-2.273-4.458-1.358-1.087-3.108-1.538-5.244-1.359-2.028.17-3.591.861-4.6931,2.07-1.099,1.206-1.574,2.709-1.424,4.505.141,1.677.643,3.102,1.505,4.278l-2.099.176Z" fill="#0e4e96" fill-rule="evenodd" stroke-width="0"/><path d="M141.76,235.086c-51.461,0-93.327-41.866-93.327-93.325s41.866-93.327,93.327-93.327,93.325,41.866,93.325,93.327-41.864,93.325-93.325,93.325M141.76,52.128c-49.425,0-89.634,40.209-89.634,89.633s40.209,89.631,89.634,89.631,89.633-40.208,89.633-89.631-40.21-89.633-89.633-89.633" fill="#0e4e96" stroke-width="0"/><path d="M110.713,18.515c-.494.525-1.167,1.243-.732,2.7809l.106-.084c.215-.178.256-.21.793-.194l.093.002.053.075.008.01.082.164.004.015.002.004.089.476.006.031-.005.033c-.053.329-.297.596-.541.861-.195.212-.389.425-.435.627-.035.151.01.653.085,1.204.065.491.1541,1.01.231,1.369l3.714-4.548c.269-.351.507-.693.736-1.022.146-.208.287-.411.428-.605-.072-.167-.155-.304-.224-.419-.317-.523-.447-.738.612-1.314.408-.223.758-.395,1.108-.495.36-.103.716-.126,1.117-.043l.078.016.042.066c.797,1.257-.223,2.3651-1.359,3.598-.255.276-.516.56-.762.853l-4.75,5.824-.001.001c-.596.726-.6.907-.612,1.61-.004.188-.008.412-.022.699v.005l-.3849,5.089c.606-.331,1.6089-1.179,2.716-2.202,2.073-1.923,4.485-4.455,5.374-5.4431v-.002c.515-.572,1.219-1.049,1.95-1.23.638-.16,1.294-.096,1.867.314l.063.047.011.078c.114.761-.289,1.195-.894,1.842-.25.269-.538.578-.833.96-.151.198-.307.447-.469.708-.448.722-.956,1.539-1.795,1.903l-.027.012-.026.003c-.45.048-.597-.119-.722-.261-.115-.132-.194-.223-1.813.973-.815.601-1.579,1.113-2.27,1.575-2.184,1.463-3.623,2.428-3.99,4.515-.176,1.002-.473,1.933-.845,2.812-.37.875-.814,1.697-1.285,2.487l-.083.136c-.458.768-.962,1.611-1.58,2.227l-.008.006-.012.011-1.918,1.426-.016.01-.015.009c-.257.119-.539.225-.79.224-.303-.002-.547-.141-.645-.534-.1281-.524.0099-1.251.258-1.94.31-.865.8-1.689,1.144-1.98.519-.438.831-.56,1.067-.652.422-.166.558-.22,1.613-2.747.18-.435.305-.726.405-.961.4789-1.119.4839-1.135.955-3.18.1-.434.325-1.755.401-2.893.038-.554.04-1.057-.023-1.378-.462.321-1.193,1.2-1.894,2.044-.694.834-1.362,1.635-1.792,1.902-.03.107-.169.18-.312.208-.152.03-.321.007-.378-.09h-.021l-.096-.017-.08-.02-.038-.072c-.4-.733,1.259-2.613,2.747-4.297,1.022-1.156,1.957-2.216,2.032-2.63.067-.368.062-.959.006-1.585-.051-.586-.145-1.199-.262-1.689-.466.243-.886.707-1.2661,1.128-.64.708-1.186,1.31-1.8069.817l-.023-.018-.017-.027c-.414-.627,1.139-2.132,1.749-2.72l.018-.019.234-.2209c.344-.323.671-.626.792-.999.071-.221.106-.564.061-.872-.029-.215-.097-.409-.216-.51-.357-.209-1.194.669-1.974,1.487-.311.324-.613.643-.888.888-.227.202-1.12.976-1.869,1.553-.448.348-.852.628-1.056.694l-.023.008-.022-.001-.757.046-.246.013.052-.24c.155-.713,1.279-1.721,2.1429-2.498.294-.263.556-.499.729-.674.583-.595,1.014-1.026,1.377-1.389.985-.986,1.499-1.5,1.718-1.893.219-.388.138-.696-.029-1.337-.043-.159-.089-.336-.133-.5211-.298-1.231-.636-2.068-.874-2.655-.086-.212-.158-.392-.217-.561-.242-.707-.151-.985.682-1.272.4189-.142.901-.146,1.3459-.093.432.052.832.156,1.1.232l.089.026.033.085c.275.688.339,1.234.395,1.693.054.471.099.838.373,1.151.194-.016.38-.09.549-.157.433-.173.789-.315,1.133.232.334.529.023.863-.392,1.306M111.657,42.919c.051-1.271.1411-3.396.421-3.973l.068-.146.158.053c.687.234.79.49.952.9.066.159.136.348.2791.575.593-.306.755-.602.991-1.024.182-.334.403-.735.861-1.265.137-.152.266-.312.387-.459.576-.708,1.024-1.251,2.265-1.638.306-.096.59-.126.849-.099.78.08,1.362.652,1.779,1.492.395.805.641,1.862.769,2.973.212,1.878.08,3.907-.255,5.082l-.024.079-.076.034c-.778.392-1.765.845-2.684.944-.972.106-1.853-.176-2.348-1.28-.117-.251-.206-.619-.263-.987-.062-.404-.089-.819-.059-1.084.113-1.176,1.031-1.606,1.919-2.028,1.093-.512,2.133-1.003,1.06-3.147-.273-.213-.697.079-1.161.589-.809.896-1.693,2.451-2.258,3.449-.217.378-.393.683-.5.842-.487.729-.516.879-.662,1.604-.011.069-.027.139-.059.296-.171.836-.421,1.3-.696,1.496-.196.137-.396.157-.593.083-.177-.063-.345-.2-.493-.393-.408-.517-.707-1.466-.662-2.306.013-.166.021-.397.035-.662M118.717,42.485c-.8831.61-.945,1.275-.906,1.605l.302-.16c.379-.282.513-.667.513-.667l.0049-.001c.111-.302.109-.583.0861-.777" fill="#0e4e96" fill-rule="evenodd" stroke-width="0"/><path d="M176.0651,31.3179l.0049-.141,1.704-3.853c1.68-2.822,3.413-4.863,2.765-7.31-.264-1-.789-2.445-2.392-2.457-.669,1.029-.363,2.05-.641,3.195l-3.992,9.847c-.867,2.624-2.381,1.886-4.739,2.431-4.068.94-5.869-1.165-5.665.674.408,3.665,5.811.121,8.481.761-.235.917-1.308,2.645-1.8799,3.373-.3441.438-.364.383-.625.783-.9301,1.422-1.725,2.28-3.049,2.836-1.555.653-4.622.995-6.328.677-.841-.156-1.91-.731-2.566-.588.119.61.28.499,1.1331.756,3.087.932,5.777,1.565,8.8019.679,1.9351-.566,4.145-4.075,5.372-5.916.33-.494.414-.677.78-.871.92,1.441-.172,6.631.795,8.725.801,1.736,2.161,1.561,3.855,1.3.912-.14,1.246-.255,2.013-.462.6331-.172,1.702-.097,1.459-.838-.962-1.286-3.814-.163-5.308-4.219-.615-1.671-.5309-.649-1.639-4.292-.191-.631-.414-.9-.557-1.365.558-.656.476-1.012,1.298-1.444.552-.291,4.9969-1.239,5.534-1.288.935-.083,1.188.065,1.821-.566,1.712-1.519,1.459-.706.714-1.9659-.713-.362-1.412.709-2.113.845-.754.335-4.238,1.301-5.037.694" fill="#0e4e96" fill-rule="evenodd" stroke-width="0"/><path d="M235.971,59.0009c.198.17-.213.648-.38.708-.0031-.33.282-.36.38-.708" fill="#0e4e96" fill-rule="evenodd" stroke-width="0"/><path d="M237.274,55.35c2.081.552,4.303.541,6.565.857.321.048.737.141,1.127.184.685.066,1.024-.024,1.624.604-.43,1.879-2.447,2.799-3.708,3.779-1.819,1.406-3.897,2.683-5.791,4,1.317.884,3.224,2.004,2.533,3.254-.386.714-1.495.708-2.395.696-2.209-.028-4.149-.022-6.391-.255-.415-.044-.957-.064-1.235-.165-.595-.208-1.188-.765-1.511-.626.113.598.785,1.096.55,1.621-.35.764-2,.559-2.432,1.743.287.664.729,1.012,1.462,1.268.367.132.816.018,1.126.186,1.6089.859,1.659,3.8-.4431,4.233-1.501-.839-3.035-2.125-4.308-3.195-1.085,1.013-2.022,2.554-3.04,3.93-1.01,1.367-1.858,2.806-2.836,3.782-2.227-.326-2.751-2.55-3.659-4.302-.277-.539-.614-1.116-.903-1.674-.55-1.064-.979-1.802-1.423-2.883-.174-.439-.3181-.894-.48-1.294-.335-.815-.936-1.856-1.009-2.512-.032-.322.095-1.035.274-1.261.51-.659,2.459-.355,3.237-.229,3.47.568,6.85,1.569,10.409,3.163.491-.547,1.005-.977,1.451-1.72-.468-.683-1.818-1.385-1.028-2.335.638-.772,1.7.014,2.66.344,1.83.638,3.661.434,5.516.831,1.967.413,3.695,1.038,5.286.178-.368-.891-1.687-1.543-2.479-1.764-.882-.237-1.795.132-2.574-.187-.582-.243-1.021-.676-1.547-.853-1.429-.486-3.034-.436-4.453-.691-.3979-.067-.785-.226-1.155-.294-2.544-.445-4.987-.436-7.539.023-.603.11-1.322.136-2.09.235-1.2289.164-2.1689.612-3.386-.55-.044-.751-.63-1.238.166-2.105.516-.568,2.195-.798,2.93-.918,1.087-.172,2.04-.518,2.932-.627,1.468-.174,3.258-.08,4.857-.196.18-.013.358-.034.511-.039.452-.014.919-.164,1.401-.216.321-.036.634.075.933.05,1.147-.087,2.342-.63,3.197-1.026.212-.447.42-1.227.938-1.394-.687-.227-1.388.132-2.086.235-1.443.211-2.482.626-4.044,1.131-.927.3-2.519.675-2.678-.749-.126-1.138,1.493-2.536,2.237-3.891.273-.485.193-1.032.693-1.169.552.112.905.692.972,1.137.138.904-.936,2.049-.592,2.879.588.206,1.432.128,1.911-.257.329-.261.565-.802.913-1.215,1.548-1.828,2.453-4.199,3.032-6.348.158-.593.099-1.171.383-1.577.776.463,1.093,1.611,1.539,2.585.187.41.421.901.618,1.379.347.843.704,1.471.183,2.44.944.108,1.77-.47,2.6021-.852.82-.376,1.707-.718,2.447-1.342.229-.143.051-.497.31-.459.056-.124.139-.074.202-.154.919.925,2.296,3.136.713,3.949-.394.204-.797-.056-1.333-.025-.145.003-.308.112-.49.152-.447.087-.923.171-1.402.501M244.745,57.299c-1.255-.211-2.569-.125-3.838-.182-.641-.024-1.296-.093-1.931-.14-.674-.047-1.367-.25-1.882.077.259.725.965,1.077,1.03,1.76.165,1.783-2.571,3.414-3.618,4.502.976-.027,1.814-.642,2.669-1.087,2.628-1.387,5.286-2.752,7.699-4.84l-.129-.09M229.867,55.751c.495.197.879-.221,1.311-.37.466.055.909-.056,1.3521-.147-.452-.393-1.109-.643-.988-1.249-.773-.06-1.337.941-1.675,1.766M231.391,57.069c.216-.093.482.288.594.405.215-.083.439-.114.625-.356.083-.182.674-.176.377-.419-.506.067-1.344-.004-1.596.37M235.59,59.709c.167-.06.579-.538.381-.707-.098.348-.384.378-.381.707M232.911,59.25c-.283.578.336,1.145-.036,1.622-.645.836-1.814-.229-2.344-1.098-.84.136-1.754-.135-2.508.43,1.71.904,3.252.934,4.83,1.132.389-.715,1.018-1.344,1.294-1.923.105-.219.253-.55.14-.776-.494.054-1.09.034-1.376.613M218.114,62.3c1.037-.016,2.06.025,3.132.08,2.168.125,4.339.068,6.34.328.853.109,3.945,1.206,3.772-.162l-.1281-.086c-1.561-.251-2.835-.624-4.41-1.334-.532-.239-1.09-.689-1.662-.832-.376-.094-.963.042-1.484.06-1.823.068-3.327.512-5.08.817-1.259.217-2.613.206-3.646.823.969.316,2.073.32,3.166.306M221.436,71.968c-1.817-.99-3.992-1.434-5.888-1.853-.655.383-2.479-.542-2.972.118-.311.414.214,1.498.522,2.089.762,1.487,1.791,2.657,2.879,3.873.597.668,1.147,1.47,1.9,1.761.916-.692,1.786-1.715,2.478-2.669.122-.175.11-.441.224-.619.073-.109.315-.225.446-.373.441-.506.837-1.086,1.23-1.681-.058-.276-.501-.587-.819-.646" fill="#0e4e96" fill-rule="evenodd" stroke-width="0"/><path d="M29.397,102.663c0,1.709,1.3849,3.094,3.095,3.094,1.709,0,3.094-1.385,3.094-3.094s-1.385-3.095-3.094-3.095c-1.71,0-3.095,1.386-3.095,3.095" fill="#0e4e96" stroke-width="0"/><path d="M247.933,102.663c0,1.709,1.3849,3.094,3.094,3.094,1.71,0,3.095-1.385,3.095-3.094s-1.385-3.095-3.095-3.095c-1.709,0-3.094,1.386-3.094,3.095" fill="#0e4e96" stroke-width="0"/><path d="M97.771,155.73l.0731.783,2.42,25.587.062.648h3.345v-.002l22.133.252,4.763,37.847.081.63h23.255l.079-.63,4.763-37.847,22.1331-.252v.002h3.343l.063-.648,2.419-25.587.074-.783M130.771,172.106c-.551,1.764-1.567,3.134-3.019,4.071h-.002c-1.431.922-3.192,1.389-5.2339,1.389-2.098,0-3.837-.358-5.17-1.065-1.353-.712-2.399-1.764-3.107-3.124-.698-1.34-1.052-2.795-1.052-4.326,0-1.683.403-3.173,1.199-4.432.801-1.266,1.951-2.239,3.415-2.893,1.432-.639,3.031-.963,4.754-.963,1.967,0,3.65.417,5.003,1.239,1.379.839,2.352,2.032,2.893,3.545l.21.59-3.486.671-.163-.417c-.386-.988-.948-1.713-1.668-2.153-.735-.45-1.687-.678-2.832-.678-1.338,0-2.458.257-3.331.765-.858.498-1.465,1.169-1.807,1.998-.365.877-.548,1.791-.548,2.717,0,1.207.215,2.268.64,3.154.412.861,1.037,1.487,1.909,1.914.898.439,1.886.661,2.935.661,1.267,0,2.348-.296,3.2141-.881.856-.582,1.422-1.429,1.73-2.591l.13-.491,3.565.733-.178.567ZM151.118,172.106c-.553,1.765-1.569,3.135-3.02,4.071h-.001c-1.431.922-3.193,1.389-5.236,1.389-2.096,0-3.835-.358-5.17-1.065-1.351-.712-2.397-1.764-3.107-3.124-.696-1.341-1.05-2.797-1.05-4.326,0-1.683.4041-3.174,1.2-4.432.8-1.265,1.948-2.239,3.413-2.893,1.433-.639,3.031-.963,4.754-.963,1.968,0,3.651.417,5.002,1.239,1.379.839,2.354,2.032,2.895,3.545l.21.59-3.486.671-.163-.416c-.388-.99-.95-1.715-1.668-2.154-.735-.45-1.687-.678-2.833-.678-1.336,0-2.457.257-3.333.765-.858.499-1.464,1.171-1.803,1.998-.364.875-.548,1.789-.548,2.717,0,1.21.215,2.271.64,3.154.41.861,1.035,1.487,1.91,1.914.896.439,1.884.661,2.934.661,1.266,0,2.347-.296,3.212-.881.8571-.582,1.4221-1.429,1.731-2.591l.13-.491,3.564.733-.177.567ZM170.4171,170.344c0,1.599-.231,2.902-.687,3.873-.482,1.009-1.338,1.83-2.546,2.445-1.186.6-2.739.904-4.613.904-1.822,0-3.3391-.263-4.513-.782-1.223-.541-2.114-1.341-2.644-2.38-.514-1.004-.775-2.37-.775-4.06v-9.327h3.56v9.323c0,1.538.218,2.311.4,2.689.251.522.674.912,1.2921,1.194.659.307,1.487.461,2.467.461,1.672,0,2.86-.294,3.529-.874.643-.561.968-1.729.968-3.47v-9.323h3.562v9.327Z" fill="#0e4e96" stroke-width="0"/><path d="M154.528,118.524c-7.537-10.587-7.033-14.651-7.033-14.651-.025-.514-.791-.636-1.008-.163-.285.617-.509,1.315-.667,2.087,0,0-.617,1.989.958,8.755,0,0,1.95,7.215,2.262,10.013.092,1.123-.025,2.234-.733,3.149-.698.902-1.555,1.417-2.444,1.64-1.766.442-3.611-.365-4.559-1.828-.3329-.515-.6-1.073-.814-1.624-.142-.365-.247-.74-.33-1.121-.154-.716-.322-1.487-.488-2.255-.457-2.508-.99-5.285-1.656-8.325-.625-3.015-1.059-5.595-1.317-7.86-1.31-14.879,3.136-21.853,5.141-24.752,2.746-3.567,4.496-6.52,5.606-8.754.658-1.284,1.152-2.473,1.526-3.646l.024-.073.06-.191c.03-.101.057-.191.081-.276.329-1.141.552-2.281.71-3.496.132-.877.179-1.475.19-1.853.018-.232.035-.468.05-.708.035-.527-.704-.755-1.007-.31-2.513,3.686-5.4449,6.012-14.222,14.652-11.631,10.718-9.675,25.598-9.675,25.598l.038.058c.344,6.806,2.124,13.635,2.8589,20.555,1.0341,9.8-1.446,24.26-2.006,27.268h27.184l.789-.938c1.622-1.917,4.983-6.772,5.421-14.444.071-1.954-.046-3.813-.305-5.536-.584-4.208-2.127-7.798-4.6349-10.971" fill="#0e4e96" stroke-width="0"/><path d="M118.345,121.812c.125,1.043.224,1.993.301,2.869.121,2.707.095,8.088-1.614,11.833-.041.089-.085.18-.127.272-.143.294-.299.576-.466.846-.848,1.244-1.5,1.998-2.62,2.269-2.0161.501-3.19-.598-3.677-1.45-2.201-4.725.6559-7.733,5.904-22.041,2.775-7.157,3.703-12.29,3.781-15.911.106-3.198-.517-5.234-1.107-6.429l-.005.001-.007-.03c-.107-.276-.419-.413-.696-.306-.2271.088-.3521.312-.334.541l-.008.002c-.024.239-.054.48-.088.722-.7841,4.012-3.765,11.006-7.423,16.882-.901,1.402-1.731,2.607-2.384,3.526-.1671.224-.334.444-.5.66-13.719,16.383-11.857,29.834-11.857,29.834.0099,1.827.575,3.418.942,4.468.034.097.123,0,.226,0h26.239c2.616-19.107-1.806-26.864-3.782-28.899-.272-.279-.7451-.044-.698.341" fill="#0e4e96" stroke-width="0"/><path d="M182.374,124.844c-3.315-4.789-6.761-7.722-8.794-10.109-9.759-10.537-10.511-22.799-10.491-26.595.023-.284-.168-.55-.462-.614-.288-.064-.574.089-.683.348-.086.165-.173.339-.2599.516-.9641,2.831-5.454,17.861,3.355,29.728,2.201,2.731,4.696,5.251,7.407,9.462,1.41,2.19,2.721,5.027,2.814,7.499.024.623-.007,1.199-.08,1.732-.131.95-.706,1.614-1.454,1.99-1.441.724-3.228.1-4.013-1.284-.42-.739-.708-1.598-.9-2.332-1.641-9.231-4.826-13.907-7.428-16.258-.341-.307-.879.026-.749.462,4.518,15.153.57,27.321-.905,31.025h28.225c.687-.942,1.128-3.44,1.211-5.759.618-9.151-4.725-17.105-6.793-19.811" fill="#0e4e96" stroke-width="0"/><path d="M60.406,59.53c.2809-.049.535-.144.738-.28.216-.145.376-.337.456-.572.133-.393.033-.891-.428-1.467-.409-.51-1.029-.763-1.556-.977-.212-.087-.408-.167-.557-.25.019-.146.019-.241.019-.316,0-.138,0-.175.304-.545.112-.135.214-.245.308-.345.256-.274.453-.485.566-.882.079-.278.058-.617-.082-.923-.082-.18-.206-.351-.373-.493s-.378-.254-.634-.318c-.53-.133-1.263-.061-2.225.39-.975.458-1.172.789-.992,1.185.085.187.262.361.4771.573.3979.393.941.93,1.1479,1.826.121.519.036.893-.0359,1.21-.111.49-.197.865.322,1.384.702.704,1.744.939,2.545.8" fill="#0e4e96" stroke-width="0"/><path d="M54.132,50.964c.9009.053,1.084.157,1.456.368.1949.11.437.248.827.416l.086.037.085-.047c.8-.45,1.264-.874,1.493-1.261.2-.335.23-.646.149-.923-.078-.269-.259-.498-.488-.685-.397-.322-.948-.522-1.332-.57-.508-.065-1.363.019-1.989.081l-.171.017-.239.022c-.814.072-1.418.125-2.125.882l-.074.08.028.102.0829.296.004.016.006.013c.236.493.532.769.907.93.36.154.782.196,1.294.226" fill="#0e4e96" stroke-width="0"/><polyline points="69.616 72.102 69.601 72.175 69.616 72.102" fill="#0e4e96" stroke-width="0"/><path d="M74.298,69.275c-.961-.366-2.058-.083-3.06-.018-.284.016-.678-.012-.997-.154-.258-.115-.418-.387-.403-.669.022-.388.08-.832.143-1.291.118-.869.241-1.773.129-2.455l-.012-.077-.066-.044c-.545-.366-.914-.577-1.303-.508-.382.067-.722.402-1.191,1.123l-1.383,2.119-.007.01-.003.007c-.193.372-.282.775-.313,1.2-.031.411-.008.844.022,1.291.095,1.407.676,1.528,1.156,1.628.368.077.648.135.198,1.696-.129.445-.179.694-.211.857v.001c-.021.104-.034.169-.052.213l-.125.168c-.375-.91-.788-2.422-1.127-3.987-.384-1.777-.672-3.619-.7-4.723-.01-.383-.076-.735-.14-1.078-.044-.236-.087-.468-.108-.707-.016-.167-.019-.389-.022-.636-.009-.705-.021-1.608-.317-2.118-.258-.444-.687-.607-1.41-.182-.381.224-.608.469-.744.729-.137.26-.178.528-.19.805-.037.862-.178,2.483-.462,3.837-.149.708-.334,1.339-.559,1.736-.224-.489-.395-.965-.568-1.447-.286-.794-.578-1.607-1.137-2.562-.295-.506-.566-.98-.834-1.448-.469-.82-.929-1.624-1.497-2.552-.64-1.046-1.877-2.905-3.065-4.536-.881-1.209-1.738-2.296-2.314-2.841-2.156-2.044-3.897-2.853-4.91-2.941-.41-.036-.721.044-.915.209-.215.184-.283.455-.183.778.157.508.774,1.182,1.949,1.838,4.06,2.264,5.907,5.621,8.016,9.453.443.805.897,1.632,1.388,2.476.408.703.801,1.33,1.164,1.909,1.443,2.305,2.406,3.841,1.761,6.057l-2.034,6.851c-.089.234-.15.423-.207.599-.101.317-.19.593-.431,1.05-.122.233-.236.4-.331.541-.27.397-.421.62-.289,1.269.151.74.388,1.393.759,1.915.379.53.895.921,1.598,1.122l.08.023.072-.043c.792-.466,1.477-1.579,2.02-2.847.779-1.822,1.274-3.987,1.358-4.98.094-1.114.255-2.1.419-3.105.061-.375.123-.752.164-1.023.078-.505.061-1.018.044-1.524-.027-.803-.053-1.587.325-2.223l1.331,5.76.002.011c.153.512.232.954.303,1.349.197,1.087.3329,1.844,1.625,2.748.339.237.538.364.768.399.2339.036.4579-.028.8409-.176l.124-.048.002-.131c.003-.257-.013-.532-.03-.814-.026-.442-.053-.905-.001-1.359.075-.67.333-2.817.616-4.412.082-.462.164-.873.241-1.181l.085-.221c.575-.463,2.006-.769,2.409-.728.559.058,1.214.118,1.734.341.347.148.683.364,1.008.552.382.221.747-1.022.822-1.206.303-.766-.32-1.409-1.025-1.675M68.511,67.493c-.037.052-.116.237-.187.897-.015.093-.154.917-.349,1.395l-.332.085-.008.002-.154.026-.429-.162c.07-.433.37-1.769,1.459-2.243" fill="#0e4e96" stroke-width="0"/></g></svg>