<svg width="1135" height="1135" viewBox="0 0 1135 1135" fill="none" xmlns="http://www.w3.org/2000/svg">
<path fill-rule="evenodd" clip-rule="evenodd" d="M567.139 0.208557C880.25 0.208557 1134.07 254.042 1134.07 567.163C1134.07 880.229 880.25 1134.07 567.139 1134.07C254.036 1134.07 0.212646 880.229 0.212646 567.163C0.212646 254.042 254.036 0.208557 567.139 0.208557ZM567.936 14.3512C872.966 14.3512 1120.25 261.637 1120.25 566.683C1120.25 871.673 872.966 1118.96 567.936 1118.96C262.907 1118.96 15.6293 871.673 15.6293 566.683C15.6293 261.637 262.907 14.3512 567.936 14.3512Z" fill="#1C64AE"/>
<path fill-rule="evenodd" clip-rule="evenodd" d="M665.368 958.818C840.203 914.794 969.619 756.535 969.619 568.086C969.619 345.542 789.212 165.13 566.653 165.13C344.112 165.13 163.702 345.542 163.702 568.086C163.702 755.832 292.156 913.613 465.989 958.319L465.983 950.176C297.103 905.514 172.608 751.672 172.608 568.79C172.608 350.904 349.241 174.275 567.125 174.275C785.018 174.275 961.651 350.904 961.651 568.79C961.651 752.715 835.728 907.269 665.368 950.931V958.818Z" fill="#1C64AE"/>
<path fill-rule="evenodd" clip-rule="evenodd" d="M177.244 266.407C176.924 268.367 184.551 277.276 186.163 276.702C187.775 276.131 188.973 254.502 188.437 252.847C187.899 251.188 187.097 251.885 186.955 250.643C186.816 249.398 198.38 245.509 200.094 246.669C200.898 247.217 201.445 253.55 201.968 260.351C202.297 264.637 202.896 268.627 202.666 272.994C202.444 277.223 200.917 280.696 200.151 283.35C199.493 285.637 199.546 287.391 199.708 287.669C200.188 288.509 209.492 295.919 217.614 302.472C223.736 307.415 229.399 311.775 230.273 311.39C232.306 310.501 228.812 302.26 230.881 301.325C232.135 300.759 235.15 304.64 237.966 307.718C239.799 309.72 241.52 311.058 241.548 312.204C241.587 313.811 240.73 319.427 236.938 321.931C231.63 325.428 228.025 323.036 226.129 322.121C224.105 321.14 212.958 312.927 204.185 306.759C199.177 303.24 195.226 300.125 193.14 301.108C190.37 302.412 186.961 310.987 185.005 312.832C183.841 313.93 175.694 316.663 171.34 312.353C165.81 306.882 168.076 300.461 169.035 299.494C170.528 297.991 172.305 298.396 173.911 299.049C174.611 299.329 175.28 300.15 175.87 300.066C177.829 299.788 181.374 292.659 180.687 290.126C180.583 289.745 179.47 289.268 178.505 288.207C175.921 285.37 171.3 280.346 166.68 276.86C161.553 272.997 157.221 271.261 156.131 270.298C155.319 269.581 155.506 268.586 154.383 266.931C153.583 265.745 152.362 264.809 151.3 263.492C149.381 261.107 147.497 258.436 146.106 257.572C145.424 257.151 142.813 256.782 141.229 255.534C139.895 254.48 139.265 253.173 138.227 251.805C136.637 249.714 134.953 247.514 135.109 246.136C135.334 244.17 144.55 238.903 151.834 239.387C156.949 239.725 160.616 245.681 161.431 245.234C162.631 244.575 163.835 238.564 164.301 234.36C164.579 231.809 163.577 231.639 164.034 228.885C164.165 228.116 164.488 227.407 164.605 226.539C164.686 225.914 164.539 225.138 164.709 224.516C165.067 223.209 166.39 221.942 166.804 221.023C167.156 220.246 166.611 219.729 166.764 219.567C167.588 218.689 170.892 217.708 173.021 219.369C174.937 220.86 175.084 224.152 176.404 226.004C176.495 226.126 176.506 226.27 176.549 226.368C177.023 227.422 185.666 231.167 185.078 247.185C184.863 253.036 183.781 256.67 182.7 259.694C181.93 261.841 181.283 264.011 180.378 264.965C179.078 266.335 177.352 265.731 177.244 266.407ZM228.809 299.882C228.113 299.291 228.184 298.681 228.473 298.252C228.766 297.823 229.317 297.616 229.705 297.95C230.097 298.284 230.081 299.094 229.748 299.484C229.413 299.875 229.504 300.476 228.809 299.882ZM238.852 238.508C238.307 238.27 237.588 244.477 232.394 247.847C231.687 248.304 229.388 246.183 227.642 247.617C227.378 247.833 226.146 248.993 225.329 251.269C224.051 254.851 222.863 260.739 220.957 266.562C220.228 268.795 219.209 270.477 218.52 272.771C217.403 276.472 218.317 276.06 215.95 283.438C214.401 288.277 213.038 289.957 212.935 292.967C212.864 295.077 214.753 297.202 215.612 297.256C217.006 297.342 220.525 293.903 224.641 287.513C226.657 284.39 228.317 280.352 230.773 276.879C236.498 268.78 244.122 261.872 246.64 255.202C248.706 249.722 240.616 246.117 240.333 245.916C239.626 245.413 239.857 242.748 240.407 240.265C240.98 237.696 241.883 235.315 241.548 235.26C240.756 235.126 238.411 244.123 237.949 243.963C237.418 243.778 239.396 238.747 238.852 238.508Z" fill="#1C64AE"/>
<path fill-rule="evenodd" clip-rule="evenodd" d="M304.398 108.849C304.126 109.884 301.077 114.54 297.327 119.493C294.003 123.881 290.072 128.413 287.821 132.231C286.209 134.967 285.743 139.548 286.112 139.652C286.618 139.788 292.17 137.271 295.315 134.45C301.338 129.051 306.691 121.42 307.271 122.128C307.907 122.912 307.98 126.063 307.543 127.554C307.353 128.206 304.319 132.208 300.336 136.125C297.977 138.448 294.923 140.425 292.925 142.52C290.564 145.005 288.933 146.637 288.996 147.671C289.053 148.646 290.197 151.05 292.081 150.362C293.99 149.664 296.887 148.479 299.411 146.892C304.105 143.941 308.364 140.276 308.605 140.579C309.105 141.2 309.885 143.668 309.133 145.53C308.926 146.048 307.986 147.937 305.883 150.282C302.593 153.945 297.268 158.803 293.68 161.912C291.292 163.974 288.806 163.054 288.423 164.081C288.318 164.356 289.178 167.823 291.665 169.249C294.301 170.759 298.712 170.206 300.907 168.7C306.825 164.64 311.27 156.804 312.187 156.924C315.127 157.299 315.855 163.567 315.593 165.274C315.534 165.685 313.952 167.615 312.459 171.323C310.835 175.351 307.901 182.892 307.824 186.679C307.804 187.711 309.345 181.798 309.474 182.181C309.576 182.498 308.946 184.705 308.511 186.747C308.086 188.743 307.941 190.716 307.767 191.04C307.503 191.535 307.895 186.587 307.3 190.89C307.049 192.698 307.095 194.253 307.106 194.852C307.148 196.925 306.969 198.954 307.396 200.795C307.48 201.165 307.822 200.126 307.849 200.424C307.872 200.62 307.895 202.447 307.806 202.64C307.707 202.876 307.617 201.86 307.424 202.32C307.106 203.084 307.901 206.665 308.491 208.578C309.939 213.261 312.66 216.782 316.745 218.065C317.217 218.215 317.961 217.712 318.886 217.656C319.51 217.616 320.249 218.053 320.95 217.992C321.497 217.946 322.229 217.623 322.77 217.596C323.309 217.566 323.655 217.831 324.242 217.727C325.727 217.457 327.356 216.277 328.477 215.881C329.24 215.613 329.666 216.146 330.064 215.844C331.431 214.792 333.073 212.598 332.959 209.679C332.715 203.221 328.593 193.319 327.305 185.149C326.516 180.143 325.999 175.814 326.212 172.538C326.47 168.573 327.583 166.129 327.879 165.695C328.127 165.329 330.668 163.931 334.219 161.664C337.481 159.581 341.577 156.711 346.028 154.408C347.321 153.739 348.909 153.978 350.234 153.562C352.243 152.935 354.044 151.847 355.88 150.816C356.502 150.463 357.186 150.3 357.807 149.922C358.46 149.526 359.056 148.808 359.663 148.403C362.599 146.449 365.023 144.746 366.763 142.872C367.489 142.086 367.907 141.059 368.471 140.438C369.641 139.141 371.08 138.478 370.958 138.14C370.717 137.478 366.942 133.76 361.382 133.901C359.556 133.949 357.807 135.416 355.667 136.478C353.702 137.458 351.353 138.001 349.493 138.877C336.32 145.081 323.28 159.47 322.502 158.586C321.134 157.025 319.479 153.067 320.118 149.833C320.333 148.748 323.38 145.502 327.671 142.341C329.854 140.734 332.445 139.51 334.682 137.955C336.803 136.484 338.585 134.687 340.002 133.018C341.31 131.475 341.185 129.9 340.952 128.323C340.674 126.46 340.124 124.698 339.984 124.466C339.777 124.125 336.598 122.317 334.197 123.803C331.605 125.41 328.264 128.258 325.147 130.843C324.375 131.482 323.524 131.622 322.811 132.286C322.062 132.98 321.665 134.22 321.003 134.897C318.091 137.89 316.027 139.889 315.593 139.872C314.921 139.845 314.179 138.414 314.475 136.761C314.679 135.618 317.396 132.684 320.723 129.978C322.638 128.42 324.614 127.495 326.445 126.072C327.725 125.077 328.962 123.648 329.902 122.405C331.568 120.198 330.887 118.111 330.575 116.54C330.325 115.245 330.566 114.268 330.473 114.136C329.715 113.09 326.39 113 323.811 114.486C323.121 114.881 322.485 115.539 321.728 115.945C320.396 116.655 318.917 117.154 317.725 118.153C314.072 121.209 311.305 124.821 311.046 124.365C310.47 123.357 309.894 120.463 310.05 119.229C310.107 118.777 313.243 115.715 316.672 112.985C319.278 110.914 321.906 109.303 322.979 107.099C324.077 104.842 323.038 103.841 322.666 102.441C322.224 100.777 322.687 100.331 321.597 99.1702C321.122 98.6664 316.927 99.2855 313.774 101.35C310.379 103.57 307.827 106.84 307.416 106.517C306.769 106.002 306.129 104.551 306.326 103.263C306.538 101.831 307.543 100.659 307.151 99.9254C306.941 99.5338 306.244 99.4699 305.641 98.8762C304.881 98.1327 304.137 96.8526 303.172 96.4066C302.201 95.9588 301.099 95.9867 300.611 96.3344C299.249 97.3028 298.818 101.058 299.309 102.259C299.413 102.508 300.12 102.93 300.753 103.062C301.611 103.243 302.508 103.205 303.172 104.338C304.123 105.954 304.725 107.601 304.398 108.849ZM319.152 210.329C320.634 210.66 322.917 208.51 322.973 204.22C323.027 200.304 321.327 194.793 320.242 190.535C318.806 184.92 319.63 181.535 318.085 180.482C316.751 179.577 312.335 208.809 319.152 210.329ZM326.992 202.981C327.277 203.007 327.424 201.55 327.004 199.209C326.464 196.217 325.199 191.842 324.387 187.943C323.234 182.401 322.502 177.745 322.04 177.794C321.599 177.844 321.872 182.107 322.818 187.322C324.098 194.37 326.325 202.924 326.992 202.981ZM318.823 162.495C319.152 162.282 319.283 159.857 318.687 157.928C318.096 156.01 316.777 154.588 316.402 154.517C315.65 154.374 318.156 162.922 318.823 162.495ZM311.386 143.229C310.725 143.376 309.853 142.04 309.788 140.929C309.745 140.186 310.35 139.538 310.557 139.516C311.29 139.434 312.101 140.499 312.204 141.505C312.286 142.347 311.755 143.143 311.386 143.229ZM333.547 170.457C333.237 170.943 332.948 172.713 333.797 174.286C335.264 177.006 338.602 180.321 340.112 183.879C341.736 187.699 340.867 191.255 341.065 192.014C341.316 192.961 346.72 201.18 351.603 201.642C352.913 201.767 354.594 200.33 356.024 199.615C357.251 199.008 358.284 199.211 358.909 198.195C359.621 197.034 360.027 196.083 359.172 194.527C358.92 194.063 358.48 193.98 357.838 194.011C357.302 194.036 356.667 194.405 356.159 193.92C355.204 193.009 353.879 189.64 353.799 189.006C353.649 187.839 358.432 187.55 359.172 188.457C359.913 189.364 356.326 189.101 356.297 189.372C356.252 189.805 359.241 190.121 359.749 191.009C360.257 191.902 357.013 191.586 357.12 191.877C357.336 192.471 359.155 192.736 360.209 193.536C360.72 193.929 362.366 197.085 365.412 198.366C366.669 198.893 368.401 199.523 369.709 199.445C370.506 199.398 370.949 198.741 371.614 198.656C372.622 198.528 373.521 198.72 373.709 198.472C373.989 198.107 375.071 196.06 374.748 194.377C374.438 192.769 373.601 192.924 372.488 190.01C371.318 186.95 370.263 183.555 370.005 183.47C369.275 183.222 370.559 188.259 370.2 187.504C369.985 187.055 368.861 185.173 368.85 183.705C368.838 182.701 369.707 182.273 369.675 181.48C369.655 180.976 368.599 178.857 368.043 177.371C366.454 173.128 363.797 166.757 363.175 166.237C362.383 165.583 367.109 177.779 366.195 176.827C365.284 175.872 361.367 159.793 356.229 157.225C354.534 156.379 348.939 155.319 343.984 157.836C337.194 161.284 336.928 167.373 335.967 169.45C335.403 170.663 334.294 169.266 333.547 170.457ZM348.367 174.379C347.631 172.954 349.885 167.972 351.24 168.528C352.59 169.084 355.395 173.999 354.594 175.048C353.788 176.095 349.111 175.802 348.367 174.379ZM312.675 176.561C313.175 176.847 311.032 188.687 311.335 189.267C311.851 190.263 311.823 190.375 312.065 190.713C312.306 191.053 312.318 201.943 311.937 202.542C311.56 203.137 311.392 190.955 310.728 190.379C310.445 190.133 309.819 200.724 309.201 200.09C308.747 199.624 308.966 194.799 309.661 189.142C310.422 182.987 312.414 176.408 312.675 176.561ZM361.799 168.903C361.599 169.299 362.551 171.473 362.919 170.918C363.291 170.363 362.156 168.186 361.799 168.903ZM363.178 171.971C362.883 172.252 363.462 173.866 363.831 173.314C364.199 172.759 363.473 171.684 363.178 171.971Z" fill="#1C64AE"/>
<path fill-rule="evenodd" clip-rule="evenodd" d="M500.778 77.3918C498.583 77.6621 494.177 81.843 488.064 85.1436C478.359 90.3813 466.96 95.5657 466.63 97.6607C466.381 99.2413 467.002 103.935 475.776 104.929C478.314 105.218 481.265 105.797 483.825 105.423C485.875 105.122 487.186 104.221 488.595 103.821C489.883 103.457 491.348 103.565 491.72 103.904C494.118 106.072 489.486 111.505 486.727 113.899C483.968 116.292 462.185 124.817 458.713 124.581C455.247 124.342 456.465 123.366 453.777 123.102C452.369 122.964 450.967 123.978 449.65 124.561C448.455 125.09 447.329 125.113 446.474 126.506C444.682 129.435 442.985 137.343 448.742 139.672C450.218 140.266 456.108 141.651 463.059 140.372C470.942 138.921 481.109 134.568 490.55 131.57C493.857 130.521 497.32 130.359 500.351 129.396C510.812 126.08 518.708 122.44 519.761 120.162C521.657 116.043 520.766 112.853 518.637 110.543C516.508 108.231 505.961 111.559 504.644 110.685C503.945 110.224 504.791 106.263 504.66 102.961C504.547 100.062 503.386 97.8039 503.766 97.0083C504.575 95.3128 512.013 87.7738 512.131 85.4041C512.248 83.0335 506.449 76.6953 500.778 77.3918Z" fill="#1C64AE"/>
<path fill-rule="evenodd" clip-rule="evenodd" d="M655.946 52.3135C655.646 50.7798 655.572 50.3701 654.374 49.9453C653.172 49.5186 648.658 50.7329 648.343 51.3626C648.027 51.9915 648.107 52.5993 647.499 52.6809C647.232 52.7153 642.645 54.3896 637.629 56.7499C635.22 57.8838 634.262 59.348 631.002 61.2578C628.844 62.5239 627.167 62.7738 626.068 63.8963C624.939 65.0487 624.305 66.1784 624.44 67.2147C624.615 68.5882 625.614 68.5897 626.756 69.516C627.502 70.1257 628.079 70.8559 629.213 70.473C633.92 68.8834 640.562 64.0081 646.126 60.4459C647.722 59.4255 649.306 58.9016 650.627 58.171C653.051 56.8274 654.716 55.6444 654.851 55.4589C655.2 55.0076 654.906 54.6334 655.13 54.113C655.334 53.6451 656.088 53.0434 655.946 52.3135ZM622.137 74.2563C621.425 75.1124 620.897 77.8715 621.016 80.2231C621.108 82.0811 621.856 83.6073 621.422 84.3076C620.99 85.0004 618.411 87.6657 613.466 90.3182C607.105 93.7402 598.024 97.3708 597.187 99.1532C596.543 100.526 595.245 105.907 595.895 110.343C596.054 111.419 596.528 111.961 596.701 113.001C596.973 114.646 596.988 116.715 597.495 117.868C598.399 119.911 599.756 120.856 599.795 120.663C599.864 120.295 598.027 119.006 598.175 114.047C598.26 111.222 598.99 107.597 599.253 107.158C599.466 106.804 603.127 103.777 607.17 101.843C612.308 99.3789 611.45 100.782 613.911 99.5746C619 97.0843 623.805 94.5543 624.189 95.0505C624.87 95.9157 623.977 98.1456 622.534 101.115C622.333 101.529 622.308 102.068 622.016 102.53C621.608 103.194 620.908 103.796 620.562 104.469C620.126 105.323 620.035 106.142 619.46 106.851C617.406 109.413 614.49 111.068 612.455 112.942C610.11 115.101 608.775 117.348 608.618 118.297C608.128 121.294 613.584 124.517 615.541 124.664C618.786 124.903 624.808 121.08 625.472 121.207C626.14 121.334 626.105 132.068 624.744 132.497C624.238 132.656 621.925 133.185 619.844 132.212C617.558 131.14 614.64 129.067 612.541 127.678C611.988 127.313 611.531 127.263 611.115 127.022C610.673 126.762 610.287 126.323 610.065 126.281C608.163 125.919 604.771 124.131 604.536 124.545C604.382 124.814 607.588 125.948 610.803 128.329C612.967 129.936 614.32 132.248 616.429 134.374C617.005 134.956 617.759 135.448 618.479 135.984C619.611 136.832 620.749 137.668 621.658 138.263C624.065 139.845 626.876 140.128 627.3 140.055C628.929 139.774 633.562 137.422 634.684 135.666C635.805 133.911 637.04 118.083 637.6 117.206C637.937 116.682 640.454 114.161 642.816 112.358C644.406 111.145 646.04 110.539 646.455 110.022C647.057 109.274 647.902 106.284 647.738 104.019C647.677 103.131 646.966 102.436 646.653 101.888C646.403 101.444 646.534 101.094 646.518 100.871C646.489 100.311 645.603 102.124 643.692 103.336C641.517 104.714 638.265 105.541 637.899 105.265C637.213 104.738 636.841 95.289 637.777 93.9862C638.262 93.3123 643.588 88.0051 642.075 84.483C641.249 82.555 638.178 80.9045 635.498 80.0715C633.633 79.4914 631.856 79.4902 631.58 79.2997C630.187 78.3454 623.415 72.7237 622.137 74.2563ZM655.357 80.1841C655.357 80.1841 657.885 77.6658 661.653 78.3824C662.765 78.5941 664.627 78.9218 665.672 79.6104C667.04 80.5213 667.581 81.8233 668.97 81.9477C670.248 82.0611 670.099 81.2655 671.093 80.7258C671.565 80.4733 672.24 80.6116 672.842 80.454C673.671 80.2348 674.377 79.7601 674.377 79.7601C674.377 79.7601 674.305 80.1282 673.732 80.7511C673.301 81.2141 672.423 81.8044 672.013 82.5622C671.304 83.8639 671.11 85.5624 670.157 86.7881C668.972 88.3132 666.932 89.19 664.961 88.6458C662.021 87.8313 660.937 84.9547 659.166 82.8604C657.781 81.2239 655.357 80.1841 655.357 80.1841ZM687.516 69.7447C687.701 68.9971 692.058 68.1879 695.623 69.0909C698.91 69.9223 699.973 73.768 700.46 75.5837C701.341 78.864 691.848 84.856 691.553 84.7974C691.257 84.7438 692.363 83.2864 691.939 82.9893C691.519 82.69 690.52 84.1364 688.072 85.4192C684.559 87.2602 676.787 88.8551 672.882 90.209C668.845 91.6085 665.83 94.2311 663.665 96.3118C661.789 98.1086 660.398 98.9899 660.484 99.4843C660.489 99.5478 662.613 100.545 663.945 99.9405C664.592 99.6487 664.95 98.6071 665.627 98.059C666.205 97.5866 666.954 97.5552 667.66 97.1266C668.738 96.4724 669.861 95.4436 671.17 94.8045C675.118 92.886 680.29 92.2159 683.093 92.9193C685.291 93.4703 686.019 96.2849 685.7 98.9729C685.541 100.319 684.745 101.397 684.502 102.618C684.105 104.606 684.24 106.092 684.36 106.267C685.134 107.398 687.432 106.479 688.658 107.797C689.322 108.511 689.027 111.7 687.557 114.429C686.318 116.728 683.929 118.627 683.735 119.178C683.492 119.87 682.762 124.489 681.855 128.519C681.19 131.475 680.137 134.161 680.563 134.532C680.932 134.85 682.873 135.535 685.468 135.886C686.217 135.99 687.313 135.398 688.082 135.586C689.003 135.805 689.878 136.77 690.747 137.08C693.636 138.105 696.063 138.78 696.499 139.568C696.844 140.19 696.248 142.756 694.624 144.865C692.808 147.223 689.873 149.133 688.811 149.503C688.481 149.617 687.258 150.218 685.152 150.052C683.864 149.95 682.079 148.969 680.312 148.576C678.808 148.241 677.372 148.508 675.726 148.203C673.717 147.831 671.999 146.954 669.878 146.456C667.271 145.843 664.447 145.596 661.816 145.153C660.141 144.875 658.575 144.364 657.099 144.12C651.065 143.112 649.458 144.199 646.796 143.072C645.219 142.405 642.601 140.522 641.091 137.372C639.665 134.403 640.009 130.712 640.951 129.198C641.403 128.474 642.498 126.992 644.139 126.06C645.671 125.184 647.727 124.815 648.947 125.142C651.002 125.698 653.419 127.263 654.678 128.888C655.89 130.45 655.895 132.54 656.128 132.736C656.881 133.361 663.214 133.166 664.241 132.498C664.65 132.236 658.831 131.226 659.708 130.82C660.761 130.331 663.922 131.457 666.228 131.725C667.553 131.881 668.566 131.602 668.702 131.549C669.197 131.352 669.486 129.971 670.162 128.275C671.096 125.916 672.268 123.017 671.294 122.428C670.928 122.208 669.51 121.786 668.317 122.094C666.228 122.632 663.706 124.197 660.722 124.377C657.583 124.568 653.937 122.913 653.749 122.444C653.525 121.881 653.279 120.354 653.585 118.756C653.921 117.022 654.822 115.222 654.988 114.896C655.305 114.264 655.71 115.579 656.722 115.967C657.235 116.166 661.102 115.245 664.803 113.581C668.348 111.986 671.748 109.675 671.788 108.433C671.805 107.791 669.555 104.919 666.693 105.013C665.597 105.05 664.541 105.342 663.364 105.567C662.3 105.769 661.102 105.876 660.27 106.37C659.046 107.097 658.314 108.673 658.048 108.892C657.4 109.424 656.809 109.625 656.248 109.96C655.799 110.229 655.408 110.672 654.683 110.797C653.054 111.079 649.003 108.536 649.277 107.109C649.549 105.682 654.505 98.6184 655.946 98.3013C656.253 98.2321 657.195 98.3455 658.048 97.8916C659.138 97.3096 660.232 96.068 661.257 95.2108C662.31 94.326 663.072 93.2719 663.747 92.5069C664.275 91.9094 664.822 91.4812 664.959 91.4698C665.376 91.4366 663.719 93.0689 661.891 94.9693C659.994 96.9411 657.746 99.0168 658.521 98.9023C660.045 98.6679 664.001 93.3645 670.86 90.0604C675.096 88.0225 680.756 88.4186 684.38 86.3845C689.493 83.5256 691.822 81.1532 690.924 79.9211C690.6 79.4781 688.166 82.6216 685.834 84.3065C684.372 85.361 683.184 85.6777 682.992 85.5885C682.659 85.4335 686.318 82.9965 688.873 80.3898C690.878 78.3454 691.661 75.9772 691.716 75.4061C691.906 73.3311 689.394 71.9561 688.141 70.9198C687.676 70.5335 687.466 69.9477 687.516 69.7447ZM674.209 87.9556C674.778 88.1952 681.916 86.1169 681.63 86.0182C681.34 85.9203 673.648 87.7186 674.209 87.9556ZM673.617 87.1906C673.976 87.1305 681.201 85.0654 681.018 84.9002C680.83 84.7343 673.256 87.253 673.617 87.1906ZM690.99 85.056C690.528 84.9668 689.924 85.4177 690.249 85.5231C690.576 85.6293 691.456 85.1436 690.99 85.056Z" fill="#1C64AE"/>
<path fill-rule="evenodd" clip-rule="evenodd" d="M829.456 113.454C830.331 112.069 829.308 110.994 828.634 109.799C828.071 108.817 827.527 107.854 826.731 107.535C825.942 107.224 823.104 106.475 822.536 106.292C821.975 106.113 823.427 104.483 823.058 104.514C822.86 104.531 822.379 105.677 821.35 106.521C820.305 107.379 818.96 107.882 818.313 108.314C817.115 109.107 814.497 111.456 812.652 113.499C811.347 114.929 810.541 116.21 810.371 116.691C809.774 118.437 810.654 127.537 811.574 129.128C812.055 129.982 813.317 131.037 814.85 131.648C816.484 132.301 818.643 132.141 819.447 132.216C819.988 132.265 821.044 131.747 822.081 131.305C822.745 131.026 823.421 130.959 823.916 130.508C824.898 129.62 824.932 128.255 825.302 127.709C825.903 126.831 824.881 122.579 823.95 119.568C823.541 118.247 822.649 117.114 822.769 116.693C822.921 116.153 823.801 115.542 824.949 115.202C826.777 114.661 828.61 114.798 829.456 113.454ZM875.213 126.891C876.622 126.774 875.475 129.348 875.559 130.122C875.593 130.428 878.692 136.101 877.058 138.69C876.518 139.549 876.269 140.745 875.656 141.885C873.199 146.416 869.843 152.38 866.368 155.164C863.32 157.608 859.108 155.932 858.749 156.076C856.979 156.8 864.381 159.546 864.818 163.499C865.324 168.12 861.696 172.498 858.165 172.805C856.808 172.921 854.975 172.407 853.329 171.189C852.824 170.816 852.646 170.093 852.125 169.616C850.756 168.376 849.15 167.202 848.957 166.362C848.424 164.154 852.431 163.818 851.415 163.126C850.984 162.829 843.904 161.464 834.628 161.836C825.29 162.211 818.92 165.51 813.356 165.048C809.274 164.712 805.346 159.795 805.011 159.568C803.621 158.62 795.779 154.63 793.811 160.374C793.572 161.057 796.156 164.812 800.555 165.646C803.938 166.284 807.833 167.885 811.778 167.898C817.778 167.92 823.502 166.138 824.568 166.419C827.225 167.127 835.394 174.932 834.226 177.461C833.055 179.988 820.072 185.176 817.869 185.152C815.666 185.126 814.492 180.401 813.436 180.271C813.26 180.251 812.579 180.176 812.419 180.641C812.13 181.46 812.545 182.831 812.398 184.496C812.05 188.388 811.472 193.542 811.989 194.563C812.437 195.436 818.158 198.366 822.411 202.783C826.476 207.02 829.093 212.738 828.895 213.959C828.487 216.454 819.579 220.542 817.388 219.969C815.984 219.599 813.505 217.047 811.653 214.904C810.609 213.69 809.95 212.335 809.343 212.25C809.025 212.206 807.884 214.935 805.283 216.498C801.605 218.71 795.713 219.82 791.239 218.088C782.116 214.561 774.639 199.577 774.781 198.88C775.002 197.791 776.649 199.562 777.143 199.978C777.613 200.379 774.316 195.343 773.385 195.078C772.454 194.813 774.01 196.652 773.174 196.895C772.589 197.069 769.002 193.689 768.865 192.806C768.798 192.325 769.678 191.628 770.58 190.907C770.916 190.64 771.04 190.311 771.376 190.169C771.913 189.941 772.89 190.306 773.611 190.415C774.281 190.521 774.708 190.363 774.86 190.427C775.575 190.731 778.869 194.574 778.773 195.8C778.677 197.028 778.074 195.47 777.308 195.502C777.176 195.511 777.687 196.054 778.744 196.808C779.26 197.179 780.032 197.517 780.691 198.037C783.763 200.454 788.275 204.057 792.46 205.762C796.082 207.238 799.414 204.033 799.601 203.601C800.077 202.526 797.959 201.443 795.257 199.869C794.912 199.67 794.958 198.993 794.6 198.778C794.304 198.601 793.618 198.887 793.322 198.7C792.55 198.215 791.773 197.679 791.023 197.097C786.861 193.853 783.223 189.964 782.82 189.875C782.462 189.795 779.341 194.095 769.575 186.947C767.588 185.489 766.476 181.825 765.636 178.423C765.278 176.942 764.58 175.546 764.529 174.341C764.449 172.437 765.875 171.555 766.153 171.382C766.412 171.227 765.124 172.497 765.454 174.213C765.788 175.989 767.378 178.049 770.223 179.566C774.083 181.627 776.217 179.377 781.372 181.171C786.187 182.848 791.92 185.058 796.349 187.186C800.873 189.36 804.04 191.435 804.318 191.503C805.584 191.814 808.127 178.988 809.122 178.73C810.023 178.495 809.967 179.495 811.16 179.381C812.346 179.266 813.674 177.81 813.515 176.959C813.464 176.684 806.64 176.046 805.772 175.566C805.386 175.356 807.963 174.357 807.532 174.246C806.567 174.006 804.903 174.999 803.597 174.808C802.331 174.624 801.339 173.836 800.162 173.348C798.437 172.634 796.643 172.103 795.656 171.259C793.651 169.553 791.262 163.931 790.065 163.633C789.184 163.416 786.839 167.611 782.546 163.698C781.298 162.56 780.686 158.375 780.453 155.655C780.351 154.613 779.931 153.819 780.061 153.58C780.436 152.908 786.538 144.336 795.049 139.644C797.67 138.201 801.128 137.438 803.666 136.768C805.244 136.352 805.907 135.857 807.493 135.594C808.899 135.358 811.54 135.861 812.538 135.414C813.339 135.059 812.096 136.78 812.748 136.504C814.588 135.721 815.735 136.007 815.887 136.111C816.087 136.249 814.753 136.532 813.52 138.013C813.141 138.481 813.88 139.438 813.419 139.999C812.936 140.564 811.994 141.033 811.437 141.662C811.018 142.146 810.989 142.782 810.535 143.291C809.774 144.129 808.003 144.474 807.203 145.335C805.062 147.629 803.631 150.241 802.195 152.135C800.725 154.074 799.272 155.269 799.226 155.468C799.106 156.019 800.588 156.279 802.105 156.502C802.796 156.602 803.615 156.954 804.086 156.863C805.052 156.683 803.382 156.044 802.423 155.226C801.906 154.786 801.764 154.045 801.963 153.857C802.514 153.311 804.586 154.947 805.635 155.298C805.772 155.34 806.43 155.218 807.145 154.961C807.85 154.71 808.445 154.091 810.347 153.823C813.101 153.437 818.386 153.385 821.929 152.901C826.299 152.304 830.869 151.495 835.031 151.31C839.033 151.129 842.95 152.314 845.324 152.998C846.777 153.42 847.594 153.387 847.635 153.508C847.919 154.445 842.024 152.785 842.179 153.635C842.271 154.085 846.419 154.429 850.173 154.995C853.499 155.499 856.468 156.28 856.832 155.912C857.489 155.245 856.054 154.551 854.946 153.067C854.481 152.439 853.692 151.793 853.38 151.047C852.89 149.896 852.981 148.684 852.601 147.433C852.08 145.697 851.143 143.95 850.984 142.781C850.858 141.862 851.114 141.423 851.143 141.224C851.279 140.211 848.594 141.105 848.632 140.506C848.684 139.744 851.545 140.532 852.221 140.076C852.908 139.616 852.858 139.303 852.261 139.087C851.677 138.869 849.405 139.85 848.65 139.334C848.282 139.08 849.343 137.398 850.541 136.972C851.778 136.53 853.425 136.655 853.203 136.416C852.789 135.947 849.49 135.357 848.424 136.106C847.929 136.456 846.062 140.646 842.922 140.913C841.339 141.049 839.187 140.863 837.546 139.95C835.439 138.783 833.981 136.719 833.515 135.723C831.432 131.293 843.382 114.422 845.795 114.958C846.488 115.111 850.592 116.28 850.977 118.47C851.245 119.992 851.604 121.894 851.398 123.767C850.903 128.52 849.059 133.398 849.507 133.706C849.706 133.838 851.291 133.698 853.272 133.799C855.889 133.934 859.363 134.227 862.997 133.544C866.986 132.791 870.785 130.232 873.181 129.582C874.162 129.32 873.878 127.823 874.378 127.155C874.525 126.961 874.941 126.914 875.213 126.891ZM775.463 195.013C775.134 195.38 778.351 199.206 778.494 199.005C778.579 198.88 777.251 197.306 776.365 196.167C775.791 195.431 775.588 194.867 775.463 195.013ZM848.509 134.957C848.764 135.066 851.959 135.086 851.648 134.873C851.335 134.659 848.259 134.849 848.509 134.957Z" fill="#1C64AE"/>
<path fill-rule="evenodd" clip-rule="evenodd" d="M976.225 229.636C976.787 230.228 977.632 232.871 977.059 234.885C976.587 236.557 974.897 237.555 973.334 238.722C968.731 242.157 964.246 240.017 963.343 240.215C962.737 240.352 961.775 241.693 960.227 242.807C958.383 244.127 955.515 244.884 953.858 246.201C952.347 247.407 952.006 249.186 952.165 249.585C952.579 250.615 955.475 248.628 958.92 247.828C961.679 247.189 965.109 247.711 965.587 248.142C966.381 248.857 966.21 250.433 965.183 251.707C964.104 253.034 962.156 254.05 962.412 254.626C962.833 255.562 963.638 256.129 964.104 256.818C965.16 258.373 965.852 259.498 966.216 259.408C966.335 259.379 968.015 259.506 969.475 259.939C970.689 260.299 971.727 260.993 971.741 260.864C971.763 260.65 971.705 259.629 970.57 259.082C969.74 258.683 968.873 258.648 967.947 258.444C967.111 258.256 966.182 257.888 966.193 257.786C966.221 257.45 969.037 257.651 972.517 259.674C973.187 260.058 973.846 261.219 974.549 261.66C980.199 265.21 986.709 269.441 987.102 269.233C987.471 269.038 985.608 265.851 986.795 263.012C987.658 260.945 991.649 259.363 991.905 257.79C992.068 256.8 990.009 255.732 990.036 255.522C990.06 255.347 990.599 254.905 991.49 254.959C992.852 255.038 994.999 255.691 996.992 255.592C998.751 255.505 1000.27 254.278 1001.76 254.109C1003.76 253.882 1005.53 254.75 1006 255.138C1006.18 255.29 1006.23 256.034 1006.52 256.841C1007 258.205 1007.62 260.045 1006.81 261.648C1004.28 266.616 997.418 271.96 996.644 272.193C995.481 272.541 993.018 271.359 992.614 272.625C992.512 272.939 996.19 275.834 997.23 279.41C998.263 282.953 996.662 287.169 994.358 288.922C992.307 290.483 983.548 293.83 978.847 292.54C978.183 292.36 977.513 291.643 977.059 291.231C976.582 290.795 976.321 290.655 976.026 290.111C975.838 289.751 975.934 289.482 975.816 289.125C975.424 287.994 975.1 286.909 975.169 286.819C975.373 286.547 976.202 285.622 977.252 285.317C977.843 285.141 979.205 285.928 980.528 286.113C981.914 286.31 983.649 285.787 984.859 285.408C986.79 284.797 987.755 283.053 987.493 282.446C987.317 282.025 985.631 280.331 983.377 279.019C981.409 277.865 979.023 277.152 976.458 275.91C975.469 275.43 975.191 274.359 974.214 273.925C969.531 271.847 964.551 271.076 963.712 272.169C961.737 274.75 960.067 278.54 961.765 280.297C962.418 280.972 963.815 281.435 964.558 282.657C966.301 285.534 965.109 287.898 964.099 288.447C962.447 289.344 960.681 288.996 959.062 288.99C956.776 288.985 955.781 290.165 950.1 290.117C942.764 290.056 931.529 288.784 923.258 289.441C918.018 289.86 914.237 292.099 911.212 292.427C909.037 292.666 910.496 293.939 909.634 294.306C908.661 294.724 905.335 293.952 903.507 292.574C902.759 292.01 902.617 291.162 902.401 290.421C902.162 289.633 901.895 288.959 902.127 288.608C902.299 288.357 903.673 288.26 905.596 287.954C906.936 287.741 907.839 287.314 908.537 287.585C908.912 287.731 906.522 288.861 907.142 288.787C908.242 288.656 910.047 288.763 910.394 288.275C910.688 287.867 909.287 287.948 909.526 287.593C909.786 287.192 918.393 284.564 922.81 284.058C926.988 283.575 931.04 282.886 934.27 282.853C938.541 282.817 941.101 283.383 941.18 282.537C941.197 282.365 940.561 281.751 939.29 281.261C937.428 280.546 934.42 280.067 931.263 278.757C928.259 277.514 925.119 275.47 922.593 273.566C921.537 272.775 921.248 271.255 920.703 270.094C920.329 269.314 919.682 268.86 919.249 268.288C917.241 265.636 920.885 259.047 921.38 259.055C921.992 259.064 921.816 259.393 922.338 259.571C922.787 259.729 923.389 259.607 924.081 259.931C924.739 260.231 924.127 261.998 924.955 262.414C926.125 263.013 928.815 262.315 930.224 263.069C931.21 263.6 932.364 266.191 933.403 266.762C936.56 268.484 940.544 269.005 943.342 270.111C947.135 271.609 949.348 273.384 949.826 273.253C950.718 273.002 950.389 271.667 950.638 270.123C950.803 269.125 952.097 267.796 951.427 267.197C950.798 266.634 948.514 267.301 943.989 265.729C942.747 265.295 941.424 264.282 941.032 263.306C940.743 262.599 941.532 261.821 941.282 261.646C940.448 261.081 935.537 262.263 930.724 257.116C927.544 253.71 928.924 248.883 928.429 248.544C928.112 248.331 925.353 249.379 921.946 251.924C916.558 255.946 909.014 262.623 902.769 265.736C898.864 267.683 893.442 266.582 892.369 265.448C891.858 264.909 891.507 264.223 891.383 262.448C891.263 260.741 892.011 258.762 893.601 257.343C896.196 255.026 900.755 254.265 904.727 251.566C916.122 243.812 929.286 233.865 929.071 232.922C928.951 232.394 925.133 228.135 927.14 226.303C928.039 225.487 929.594 223.193 931.591 222.765C934.725 222.093 938.45 223.388 940.165 222.255C942.695 220.578 945.359 219.759 946.397 219.901C947.26 220.017 949.257 221.777 952.386 222.655C956.962 223.938 962.463 224.342 967.403 225.688C971.609 226.834 975.595 228.97 976.225 229.636ZM947.493 293.326C947.635 293.418 948.669 294.991 944.984 297.655C942.906 299.15 939.398 300.883 936.577 303.159C933.869 305.344 931.853 308.052 929.73 310.437C927.652 312.763 925.114 314.668 923.877 316.651C922.821 318.356 922.854 320.174 923.423 321.748C924.501 324.737 926.175 328.501 929.037 331.612C932.232 335.095 936.82 337.872 941.691 339.98C944.184 341.054 946.841 341.642 949.458 341.915C952.812 342.269 954.373 339.691 957.093 339.382C958.643 339.203 960.687 340.167 961.947 340.402C963.213 340.641 963.495 340.006 964.156 340.194C965.023 340.438 966.119 341.352 966.175 341.368C967.55 341.756 967.538 341.323 968.299 339.493C968.629 338.689 969.685 338.555 970.655 339.055C971.245 339.352 971.002 339.891 971.53 340.282C972.126 340.721 973.215 340.411 973.572 340.593C974.255 340.935 969.799 344.109 968.027 344.379C967.277 344.493 967.873 343.301 967.459 342.629C966.908 341.73 964.768 342.584 963.94 343.115C963.418 343.444 962.384 345.814 959.153 348.722C957.684 350.049 955.152 350.257 953.55 351.628C951.263 353.589 949.616 355.794 947.743 357.076C946.834 357.702 945.648 357.814 944.831 358.034C943.888 358.291 943.117 358.38 942.515 358.201C942.191 358.106 941.424 357.567 940.561 356.583C939.868 355.79 939.216 354.683 937.927 353.43C936.514 352.053 934.77 350.878 933.062 349.027C931.171 346.984 929.35 343.695 927.266 341.586C925.533 339.837 923.934 340.111 922.145 338.684C919.449 336.535 916.644 332.739 914.822 329.926C910.217 322.806 912.528 314.377 912.903 312.864C913.567 310.232 920.641 304.495 928.566 300.153C933.966 297.199 939.977 295.963 943.809 294.952C946.096 294.345 946.572 292.726 947.493 293.326ZM948.701 237.024C948.715 236.545 946.677 236.029 944.195 237.16C941.941 238.184 939.477 240.271 937.137 241.917C934.277 243.922 931.727 245.458 931.695 245.896C931.604 247.092 936.362 250.933 937.881 249.894C938.739 249.306 938.802 245.15 941.544 241.884C945.699 236.936 948.691 237.648 948.701 237.024ZM966.942 260.648C967.165 261.012 969.52 261.465 969.264 261.128C969.01 260.79 966.721 260.281 966.942 260.648ZM911.484 287.436C911.744 287.54 913.833 287.484 913.556 287.28C913.283 287.075 911.229 287.336 911.484 287.436Z" fill="#1C64AE"/>
<path fill-rule="evenodd" clip-rule="evenodd" d="M565.787 226.026L286.217 387.438L565.969 548.968L845.389 387.497L677.627 290.596L565.793 355.163L621.796 387.497L677.658 355.143L733.628 387.497L565.804 484.305L398.038 387.446L621.706 258.312L565.787 226.026Z" fill="#499DD7"/>
<path fill-rule="evenodd" clip-rule="evenodd" d="M398.052 645.708L342.247 677.929L509.883 774.845V710.276L398.052 645.708Z" fill="#499DD7"/>
<path fill-rule="evenodd" clip-rule="evenodd" d="M565.804 677.991L509.883 710.276L565.804 742.561L621.72 710.276L565.804 677.991Z" fill="#499DD7"/>
<path fill-rule="evenodd" clip-rule="evenodd" d="M733.555 645.723L621.72 710.276L621.683 774.865L789.471 677.991L733.555 645.723Z" fill="#499DD7"/>
<path fill-rule="evenodd" clip-rule="evenodd" d="M621.706 258.312L621.55 322.967L453.8 419.82L398.038 387.447L621.706 258.312Z" fill="#1C64AE"/>
<path fill-rule="evenodd" clip-rule="evenodd" d="M678.007 354.94L621.618 387.501L621.72 452.008L678.007 419.507V354.94Z" fill="#1C64AE"/>
<path fill-rule="evenodd" clip-rule="evenodd" d="M342.136 484.291L398.043 516.58L398.038 645.715L342.136 677.991V484.291Z" fill="#1C64AE"/>
<path fill-rule="evenodd" clip-rule="evenodd" d="M565.794 677.999L565.802 548.857L845.389 387.497V710.292L565.788 871.702L565.802 742.561L621.72 710.276V774.151L789.471 678.009L789.457 484.295L621.72 581.141V645.708L565.794 677.999Z" fill="#1C64AE"/>
<path fill-rule="evenodd" clip-rule="evenodd" d="M565.793 355.163L565.779 419.724L621.719 452.008L621.706 387.447L565.793 355.163Z" fill="#2D3F65"/>
<path fill-rule="evenodd" clip-rule="evenodd" d="M677.638 355.156L733.54 387.448L677.638 419.724V355.156Z" fill="#2D3F65"/>
<path fill-rule="evenodd" clip-rule="evenodd" d="M733.54 516.58L789.471 484.289L789.457 678L733.556 645.707L733.54 516.58Z" fill="#2D3F65"/>
<path fill-rule="evenodd" clip-rule="evenodd" d="M565.793 677.999L565.895 548.803L286.217 387.438L286.203 710.284L565.787 871.702V742.57L509.883 710.276V774.845L342.439 677.815L342.136 484.291L509.872 581.147L509.883 645.708L565.793 677.999Z" fill="#2D3F65"/>
<path d="M90.7323 571.513L87.3065 560.735C96.3441 559.079 100.999 555.342 101.272 549.529C100.812 540.764 92.8469 535.81 77.386 534.668C61.2369 534.111 52.7386 538.188 51.8931 546.891C51.5722 553.744 56.8201 558.255 67.6492 560.433L63.8659 571.183C48.1007 567.109 40.7341 558.854 41.753 546.412C42.9519 530.437 54.9954 522.89 77.8997 523.763C99.884 525.627 111.374 534.495 112.381 550.364C111.613 561.982 104.395 569.032 90.7323 571.513Z" fill="#1C64AE"/>
<path d="M111.959 612.03L112.64 622.921L44.9868 627.115L44.3057 616.223L73.7237 614.399L72.2024 589.805L42.7845 591.63L42.1113 580.736L109.768 576.542L110.44 587.436L82.9862 589.14L84.5131 613.731L111.959 612.03Z" fill="#1C64AE"/>
<path d="M53.7436 680.618L68.6542 672.873L64.5814 650.158L47.8449 647.776L45.9177 637.034L116.71 647.76L118.365 656.973L55.7305 691.671L53.7436 680.618ZM76.1426 651.564L79.009 667.526L102.069 655.146L76.1426 651.564Z" fill="#1C64AE"/>
<path d="M89.3898 734.669L135.073 720.569L138.292 730.997L73.5161 750.992L70.3005 740.561L107.153 697.853L61.4723 711.956L58.251 701.526L123.02 681.533L126.333 692.261L89.3898 734.669Z" fill="#1C64AE"/>
<path d="M122.825 771.463L134.164 796.456L110.313 807.28C100.61 805.97 93.3496 800.018 88.5409 789.416C81.692 772.203 88.2741 758.715 108.291 748.947C129.2 740.602 144.046 744.254 152.822 759.906C158.431 771.749 155.689 782.348 144.602 791.72L136.341 783.823C144.062 777.581 146.271 771.102 142.984 764.371C137.255 754.41 127.301 752.534 113.1 758.751C98.9615 765.623 93.8489 774.448 97.7856 785.221C100.185 790.519 103.957 794.065 109.077 795.849L119.813 790.978L112.985 775.926L122.825 771.463Z" fill="#1C64AE"/>
<path d="M171.84 837.193L162.992 830.141C169.583 823.738 171.374 818.041 168.365 813.06C163.111 806.034 153.735 806.345 140.25 813.995C126.52 822.517 121.728 830.632 125.867 838.334C129.415 844.208 136.282 845.039 146.491 840.827L149.327 851.862C133.959 857.246 123.25 854.483 117.176 843.575C109.282 829.638 115.089 816.661 134.613 804.649C153.923 793.97 168.4 794.948 178.064 807.578C183.889 817.659 181.814 827.531 171.84 837.193Z" fill="#1C64AE"/>
<path d="M212.027 858.948L218.658 867.614L164.837 908.816L158.201 900.147L181.601 882.236L166.625 862.671L143.227 880.585L136.591 871.917L190.415 830.715L197.045 839.382L175.212 856.101L190.182 875.665L212.027 858.948Z" fill="#1C64AE"/>
<path d="M251.182 901.67L258.806 909.482L231.153 936.473C216.771 950.799 203.412 951.491 191.077 938.546C178.555 926.651 179.779 913.689 194.758 899.654L222.649 872.435L230.271 880.246L202.618 907.237C192.779 916.542 191.357 924.611 198.343 931.453C205.433 939.349 213.83 938.415 223.531 928.66L251.182 901.67Z" fill="#1C64AE"/>
<path d="M265.386 976.288L295.173 938.891L303.708 945.693L261.477 998.711L252.939 991.913L259.309 935.865L229.518 973.261L220.985 966.461L263.211 913.438L271.993 920.434L265.386 976.288Z" fill="#1C64AE"/>
<path d="M327.824 960.828L337.177 966.461L302.196 1024.52L292.852 1018.89L327.824 960.828Z" fill="#1C64AE"/>
<path d="M358.818 1031.73L379.945 988.838L389.735 993.663L359.777 1054.47L349.985 1049.64L344.261 993.525L323.135 1036.41L313.342 1031.59L343.294 970.782L353.368 975.745L358.818 1031.73Z" fill="#1C64AE"/>
<path d="M430.828 1027.76L419.747 1027.31C420.674 1019.07 418.202 1013.91 412.324 1011.83C405.463 1009.39 400.953 1010.92 398.786 1016.41C397.036 1019.49 400.002 1023.56 407.703 1028.6C421.307 1036.9 426.111 1046.36 422.128 1056.99C417.427 1068.99 408.057 1072.73 393.995 1068.21C380.257 1064.04 374.532 1054.36 376.819 1039.19L387.904 1039.65C386.118 1049.67 389.182 1055.97 397.095 1058.54C404.611 1060.98 409.559 1059.14 411.946 1053.04C413.672 1048.78 410.496 1044.07 402.406 1038.88C389.536 1030.39 384.898 1021.68 388.5 1012.76C393.439 1001.31 402.488 997.569 415.639 1001.54C427.986 1005.91 433.047 1014.65 430.828 1027.76Z" fill="#1C64AE"/>
<path d="M479.338 1031.95L463.275 1028.05L449.832 1083.42L438.92 1080.77L452.367 1025.4L435.693 1021.35L438.248 1010.85L481.887 1021.45L479.338 1031.95Z" fill="#1C64AE"/>
<path d="M485.766 1021.64L496.523 1023.47L485.157 1090.29L474.393 1088.46L485.766 1021.64Z" fill="#1C64AE"/>
<path d="M543.886 1039.77L527.431 1038.13L521.788 1094.83L510.616 1093.71L516.262 1037.02L499.196 1035.32L500.26 1024.56L544.955 1029.01L543.886 1039.77Z" fill="#1C64AE"/>
<path d="M588.115 1028.81L599.025 1028.63L599.653 1067.26C600.188 1087.56 591.518 1097.74 573.638 1097.82C556.39 1098.75 547.809 1088.96 547.897 1068.43L547.266 1029.47L558.18 1029.29L558.804 1067.93C558.816 1081.47 563.702 1088.05 573.475 1087.67C584.081 1087.93 589.167 1081.19 588.742 1067.44L588.115 1028.81Z" fill="#1C64AE"/>
<path d="M647.361 1033.85L630.951 1035.82L637.721 1092.39L626.574 1093.73L619.801 1037.15L602.774 1039.19L601.488 1028.46L646.08 1023.12L647.361 1033.85Z" fill="#1C64AE"/>
<path d="M672.029 1076.41L700.661 1070.11L702.843 1080.03L663.551 1088.67L648.996 1022.46L686.765 1014.16L689.084 1024.71L661.973 1030.67L665.493 1046.67L690.468 1041.17L692.859 1052.05L667.883 1057.54L672.029 1076.41Z" fill="#1C64AE"/>
<path d="M736.246 995.718C753.359 990.379 766.385 997.914 775.329 1018.32C783.347 1039.8 778.877 1054.24 761.9 1061.63C744.863 1067.18 731.919 1059.85 723.058 1039.64C715.695 1018.14 720.086 1003.49 736.246 995.718ZM758.175 1052.19C768.571 1047.39 771.043 1037.5 765.584 1022.52C759.24 1008.12 750.781 1002.54 740.209 1005.77C730.279 1010.63 727.945 1020.58 733.21 1035.63C739.364 1050.1 747.684 1055.62 758.175 1052.19Z" fill="#1C64AE"/>
<path d="M803.57 977.382L781.48 988.984L789.091 1003.48L807.592 993.762L812.615 1003.33L794.117 1013.04L807.975 1039.43L798.309 1044.5L766.792 984.491L798.542 967.814L803.57 977.382Z" fill="#1C64AE"/>
<path d="M860.371 938.858L846.947 948.505L880.206 994.771L871.089 1001.32L837.833 955.057L823.905 965.069L817.597 956.295L854.07 930.083L860.371 938.858Z" fill="#1C64AE"/>
<path d="M902.48 964.254L924.529 944.931L931.214 952.566L900.964 979.082L856.288 928.104L885.366 902.616L892.492 910.745L871.614 929.037L882.412 941.353L901.64 924.496L908.977 932.867L889.749 949.721L902.48 964.254Z" fill="#1C64AE"/>
<path d="M933.105 879.902L928.718 890.324C920.763 885.717 914.796 885.541 910.816 889.783C905.484 896.751 908.321 905.69 919.345 916.591C931.27 927.499 940.376 929.908 946.671 923.837C951.361 918.833 950.298 911.996 943.473 903.311L953.329 897.589C962.676 910.919 962.922 921.982 954.077 930.78C942.801 942.159 928.737 940.089 911.881 924.555C896.363 908.867 893.377 894.664 902.913 881.939C911.039 873.598 921.097 872.918 933.105 879.902Z" fill="#1C64AE"/>
<path d="M943.192 835.283L949.736 826.547L1003.99 867.193L997.436 875.93L973.851 858.258L959.083 877.973L982.667 895.644L976.116 904.38L921.872 863.735L928.421 854.999L950.434 871.492L965.205 851.776L943.192 835.283Z" fill="#1C64AE"/>
<path d="M1015.21 809.709L973.765 785.861L979.21 776.401L1037.96 810.213L1032.52 819.672L976.143 821.775L1017.58 845.621L1012.14 855.081L953.386 821.268L958.986 811.539L1015.21 809.709Z" fill="#1C64AE"/>
<path d="M990.394 746.324C998.492 730.329 1012.97 726.236 1033.84 734.043C1054.84 743.259 1062.08 756.529 1055.55 773.852C1047.65 789.937 1033.37 794.119 1012.71 786.389C992.157 776.689 984.719 763.336 990.394 746.324ZM1046.18 769.947C1049.98 759.143 1044.61 750.481 1030.07 743.956C1015.32 738.475 1005.42 740.656 1000.37 750.487C996.931 760.996 1002.45 769.603 1016.91 776.314C1031.58 781.986 1041.33 779.865 1046.18 769.947Z" fill="#1C64AE"/>
<path d="M1003.67 716.444L1006.85 705.676L1062.12 722.012L1069.19 698.086L1078.93 700.963L1068.67 735.655L1003.67 716.444Z" fill="#1C64AE"/>
<path d="M1017.69 654.556C1022.25 637.215 1035.54 630.169 1057.59 633.417C1080.05 638.014 1089.91 649.465 1087.18 667.777C1082.83 685.16 1069.76 692.249 1047.93 689.035C1025.79 683.867 1015.71 672.379 1017.69 654.556ZM1077.2 665.923C1078.64 654.566 1071.57 647.224 1055.97 643.903C1040.41 641.646 1031.19 645.857 1028.31 656.529C1027.16 667.525 1034.37 674.781 1049.91 678.305C1065.45 680.766 1074.54 676.642 1077.2 665.923Z" fill="#1C64AE"/>
<path d="M1056.55 600.697L1058.15 573.299L1084.3 574.821C1092.27 580.495 1095.93 589.142 1095.25 600.762C1093.3 619.19 1081.2 628.06 1058.93 627.388C1036.55 625.043 1025.11 614.905 1024.62 596.962C1025.17 583.874 1032.53 575.764 1046.7 572.632L1050.33 583.465C1040.6 585.397 1035.63 590.108 1035.41 597.591C1035.84 609.073 1043.77 615.366 1059.23 616.471C1074.95 616.974 1083.58 611.538 1085.12 600.172C1085.46 594.365 1083.77 589.473 1080.06 585.509L1068.3 584.823L1067.34 601.322L1056.55 600.697Z" fill="#1C64AE"/>
<path d="M1025.19 522.232L1064.77 540.606L1093.88 539.194L1094.41 550.097L1065.63 551.493L1027.69 573.63L1027.15 562.415L1055.89 546.659L1025.75 533.756L1025.19 522.232Z" fill="#1C64AE"/>
<path d="M494.118 912.864H485.603V903.565H503.997V971.519H494.118V912.864Z" fill="#1C64AE"/>
<path d="M521.033 967.755L522.957 958.604C528.686 961.315 533.743 962.922 538.061 962.922C547.599 962.922 553.545 955.49 554.683 942.614C551.277 945.242 546.736 947.52 541.468 947.542C526.701 947.607 519.327 940.031 519.327 925.725C520.232 910.704 527.612 902.836 541.468 902.12C556.679 902.602 564.513 912.732 564.971 932.521C565.194 958.987 556.225 971.981 538.061 971.504C533.743 971.504 527.266 970.432 521.033 967.755ZM541.808 938.243C548.851 938.202 554.334 933.708 554.482 926.357C554.663 917.449 550.323 911.419 541.468 911.419C533.974 911.9 529.996 916.549 529.545 925.368C529.77 933.717 533.851 938.29 541.808 938.243Z" fill="#1C64AE"/>
<path d="M571.784 967.755L573.713 958.604C578.296 961.268 584.269 962.922 588.817 962.922C598.808 962.688 603.916 958.155 604.144 949.331C604.144 940.746 597.275 936.457 586.773 936.455C578.997 936.455 573.713 938.635 573.713 938.635L576.894 903.193H610.615V912.85H585.41L584.047 927.155H587.795C605.279 927.155 614.023 934.548 614.023 949.331C613.562 963.637 605.279 971.024 589.157 971.504C583.928 971.504 578.286 970.432 571.784 967.755Z" fill="#1C64AE"/>
<path d="M632.104 912.864H623.588V903.565H641.981V971.519H632.104V912.864Z" fill="#1C64AE"/>
</svg>
