<svg xmlns="http://www.w3.org/2000/svg" viewBox="0 0 184.85 184.85"><defs><style>.cls-1{fill:#bd782f;}.cls-2{fill:#fff5d7;}</style></defs><g id="Layer_2" data-name="Layer 2"><g id="图层_1" data-name="图层 1"><path class="cls-1" d="M120.72,85.88a149.37,149.37,0,0,1,1.74-23l0-.29H106l2.73-27.29H76l2.72,27.29H62.36l0,.29a149.37,149.37,0,0,1,1.74,23c0,20.36-3.87,38.47-9.86,50l0,.36H89.65V108.94h5.49v27.29h35.48l-.05-.36C124.59,124.35,120.72,106.24,120.72,85.88Z"/><path class="cls-2" d="M92.48,54.22a2.73,2.73,0,1,0-2.72-2.73A2.73,2.73,0,0,0,92.48,54.22Z"/><path class="cls-2" d="M84.24,97.08c-6-.44-10.55-2.94-10.95-6.44-.45-3.85,4.25-7.66,10.95-9.27V76.3C75.3,79.83,69.54,85.82,70.8,91c1,4.14,6.38,6.65,13.44,6.91Z"/><path class="cls-2" d="M114.07,80.37c-1-4.14-6.38-6.65-13.44-6.91v.78c6,.45,10.55,2.94,11,6.44.45,3.85-4.25,7.66-11,9.27V95C109.57,91.49,115.33,85.5,114.07,80.37Z"/><path class="cls-2" d="M108.8,79c0-.06,0-.12,0-.18-1,2.69-4.87,4.7-9.45,4.7a14.63,14.63,0,0,1-3.09-.33c0-.23,0-.45,0-.68a16.44,16.44,0,0,1,9.14-14.73c-.47,0-1-.07-1.44-.07A16.45,16.45,0,0,0,87.5,83.33c-6.57,1.46-11.22,5-11.22,9.13,0,.06,0,.13,0,.19,1-2.7,4.88-4.7,9.45-4.7a15.42,15.42,0,0,1,2.18.16c0,.2,0,.41,0,.61a16.46,16.46,0,0,1-9.14,14.74q.7.06,1.44.06a16.44,16.44,0,0,0,16.39-15.2C103.71,87,108.8,83.33,108.8,79Z"/><path class="cls-1" d="M157.78,27.07A92.43,92.43,0,0,0,27.07,157.78,92.43,92.43,0,0,0,157.78,27.07ZM179.9,92.43A87.47,87.47,0,1,1,92.43,5,87.57,87.57,0,0,1,179.9,92.43Z"/><path class="cls-1" d="M92.43,26.73A65.61,65.61,0,1,0,158,92.34,65.69,65.69,0,0,0,92.43,26.73Zm0,128.77a63.16,63.16,0,1,1,63.15-63.16A63.23,63.23,0,0,1,92.43,155.5Z"/><path class="cls-1" d="M15.53,106a1.82,1.82,0,1,0,1.82-1.82A1.82,1.82,0,0,0,15.53,106Z"/><path class="cls-1" d="M167.34,107.83a1.82,1.82,0,1,0-1.82-1.82A1.83,1.83,0,0,0,167.34,107.83Z"/><path class="cls-1" d="M65.44,161.08a3.16,3.16,0,0,0-1.12-.42c-.18,0-.35-.07-.54-.11a1,1,0,0,1,.1-.23,4.67,4.67,0,0,1,.36-.51c.14-.16.29-.31.42-.47a1.77,1.77,0,0,0,.35-.49,1.58,1.58,0,0,0-.35-1.55.64.64,0,0,0-.76-.22c-.24.11-.51.24-.56.57a1.21,1.21,0,0,1-.08.25l-.36,1-.39.95a1.73,1.73,0,0,0-.16.37c0,.19-.15.22-.3.22l-.95,0c-.16,0-.23-.06-.27-.22a3.45,3.45,0,0,0-.14-.42,1.28,1.28,0,0,1-.19-.72.23.23,0,0,0-.37-.21,1.05,1.05,0,0,0-.25.37c-.17.42-.32.84-.47,1.26-.06.19-.12.38-.16.57a4.16,4.16,0,0,0,0,1.22.66.66,0,0,1,0,.2l-.3,0c-.11-.1-.1-.3-.27-.41s-.23-.24-.36-.32c-.43-.29-.43-.4-.15-.82a15.17,15.17,0,0,0,.89-1.5,9.77,9.77,0,0,1,.72-1.26,2,2,0,0,1,.59-.63,2.71,2.71,0,0,0,.4-.36,10.59,10.59,0,0,1,.87-.9,1.66,1.66,0,0,0,.45-.67c.08-.17,0-.24-.13-.32s-.42-.15-.63-.24-.45-.08-.6-.28a.21.21,0,0,0-.16,0,3.38,3.38,0,0,1-.45,0c-.33,0-.65-.11-1-.15l-.86-.11a2.33,2.33,0,0,1-.36-.08c-.34-.09-.67-.18-1-.25a1.84,1.84,0,0,0-.41,0,.1.1,0,0,0-.08.06,4.22,4.22,0,0,0-.18.45.41.41,0,0,0,.06.32,5.93,5.93,0,0,1,.35,1,3,3,0,0,1,0,.73.51.51,0,0,1-.06.22c-.28.48-.69.85-1,1.33a4.18,4.18,0,0,0-.55,1,2.17,2.17,0,0,0-.11.66,1.8,1.8,0,0,0,.12.66c0,.09.21.15.32.16a2.73,2.73,0,0,0,.5,0l.11,0,.65-.18c0,.18-.09.32-.12.47s-.08.22-.29.22l-.83,0c-.22,0-.45,0-.67,0a.73.73,0,0,1-.36,0c-.09,0-.21,0-.27,0S54,161,54,160.88a1.6,1.6,0,0,0,0-.44.73.73,0,0,0-.26-.32,1.24,1.24,0,0,0-.48-.11,2.83,2.83,0,0,0-.41.14s0,.07-.06.11-.09.27-.15.39-.26.41-.36.62c-.23.49-.46,1-.64,1.49a11.82,11.82,0,0,0-.37,1.29c0,.15,0,.32,0,.47a.45.45,0,0,0,.17.44,1,1,0,0,0,1-.07,3.23,3.23,0,0,0,.74-1c.18-.48.25-.48.75-.34.27.07.34.22.2.47a4.09,4.09,0,0,0-.25.46,1.33,1.33,0,0,0-.12.55.83.83,0,0,0,.66.65c.36.09.44.11.48.48,0,.19,0,.38,0,.57a.91.91,0,0,0,.1.33.42.42,0,0,0,.44.19c.13,0,.28,0,.39,0,.3-.15.59-.34.88-.52a.17.17,0,0,1,.26.07l.13.26a.5.5,0,0,0,.54.31,2.7,2.7,0,0,0,.57-.18,1.09,1.09,0,0,1,.92,0c.32.15.64.3.95.47a.39.39,0,0,1,.2.2c.08.26.11.53.18.8a.83.83,0,0,0,.94.62.62.62,0,0,0,.24-.08.63.63,0,0,1,.48-.15.33.33,0,0,0,.39-.29c0-.19.05-.39.1-.58a7.71,7.71,0,0,1,.24-.82,1.61,1.61,0,0,0,0-.69,5.23,5.23,0,0,0-.18-.68,4.2,4.2,0,0,0-.22-.55.46.46,0,0,0-.2-.16,2,2,0,0,1-.26-.1,3.5,3.5,0,0,1-.3-.24.33.33,0,0,0-.51.17c0,.25,0,.5-.08.74v.2s-.08,0-.1,0l-.67-.4s0-.1,0-.16l0,0A16.41,16.41,0,0,0,62,163.85s.13,0,.18,0l.83.34a.92.92,0,0,0,.88.07h0a.33.33,0,0,0,.31-.47c-.13-.4-.12-.41.28-.53l.17,0,.85-.08c.31,0,.66-.29.67-.56a1.65,1.65,0,0,0-.24-1A1.41,1.41,0,0,0,65.44,161.08Zm-11.26,1.39s-.1.06-.14.05a.75.75,0,0,1-.2-.1.09.09,0,0,1-.05-.09c0-.33.17-.47.52-.47C54.27,162.07,54.23,162.27,54.18,162.47Zm3.82-6s.06-.08.08-.08a3.69,3.69,0,0,1,.58.09.44.44,0,0,1,.28.21c0,.1-.06.23-.11.34s-.12.3-.18.45a.17.17,0,0,1-.23.12c-.28-.08-.56-.14-.87-.21C57.71,157.08,57.85,156.78,58,156.49Zm-1.51,2.77c.14-.23.27-.44.41-.65,0,0,.11-.05.16-.05l.84,0c.12,0,.26.19.2.31s-.27.5-.41.75l0,0a1.92,1.92,0,0,0-.17-.13.53.53,0,0,0-.18-.05,1,1,0,0,1-.3,0A4.23,4.23,0,0,1,56.49,159.26Zm-.23,2.84c-.21.07-.32.35-.59.31C55.61,162.14,55.78,162.05,56.26,162.1Zm1.66,1a6,6,0,0,1-.9,1.42c-.15.18-.27.38-.41.57a2.88,2.88,0,0,1-.22.27c-.19.18-.26.16-.45,0s-.18-.09-.27-.13c-.27-.09-.26-.09-.24-.37s0-.57,0-.85,0-.25.25-.25.6.05.9.07a3.54,3.54,0,0,0,.46,0s.09-.09.1-.14a.57.57,0,0,0-.34-.64l-.09,0a1.71,1.71,0,0,0,.67-.49c.09-.11.18-.15.31-.06C58,162.62,58.07,162.72,57.92,163.06Zm2,.83a3.71,3.71,0,0,0-.61.58.86.86,0,0,1-.26.2c-.2.12-.4.24-.6.34a.63.63,0,0,1-.24,0c0-.08,0-.18,0-.24s.27-.37.38-.57a2.41,2.41,0,0,0,.34-1.41l.05,0,.4.48c.11.13.27.12.42.14l.42.05,0,.07C60.19,163.66,60.09,163.78,60,163.89Zm1.14-1.48-.35-.26.47-.81a.41.41,0,0,1,.56-.13C61.57,161.61,61.34,162,61.11,162.41Zm2.69-.57-.42.25-.14,0-.23.08a1.22,1.22,0,0,1-.17.07c-.11,0-.18-.06-.12-.15s.28-.37.43-.55a.26.26,0,0,1,.18,0l.67.12A2,2,0,0,1,63.8,161.84Z"/><path class="cls-1" d="M34.6,131.9a4,4,0,0,1-1.17-1l.39-.42a1.6,1.6,0,0,0,.4-.56.9.9,0,0,0-.29-1.08l-.45.15a1.36,1.36,0,0,0-.46.12c-.34.23-.65.5-1,.78-.06-.06-.12-.15-.2-.23s-.14-.11-.21-.17-.23-.24-.35-.35-.52-.43-.77-.66a.48.48,0,0,0-.44-.11.83.83,0,0,0-.52.53,1.19,1.19,0,0,0,.45,1.42l.52.32c.1.06.11.18,0,.22A1,1,0,0,1,30,131a1,1,0,0,1-.39-.21c-.13-.08-.23-.2-.36-.28s-.53-.3-.79-.44a.13.13,0,0,0-.2.12,2.42,2.42,0,0,0,.06.46c0,.23.09.45.15.73a1.64,1.64,0,0,1-.48-.09c-.36-.19-.69-.42-1-.64a3.2,3.2,0,0,1-.79-.68,1.42,1.42,0,0,0-.94-.56.81.81,0,0,0-.35,0,.59.59,0,0,0-.23.24.55.55,0,0,0-.09.68,2.3,2.3,0,0,0,.93.79l.48.26s.09.1.08.14a.23.23,0,0,1-.14.09.74.74,0,0,1-.26,0c-1.29-.06-2.57.15-3.86.19l-.15,0-.87-.34c-.05,0-.13-.06-.16,0s0,.13,0,.17a4.08,4.08,0,0,0,.52.66,2.87,2.87,0,0,0,1,.62,2.78,2.78,0,0,0,1.59,0c.19,0,.37-.15.57-.06a0,0,0,0,0,.05,0l.46-.14a.38.38,0,0,1,.4.12c-.09.17-.11.16-.31.26a1.59,1.59,0,0,0-.34.3l-.33.29-.93.7a2.49,2.49,0,0,1-.6.37.45.45,0,0,0-.28.26,5.17,5.17,0,0,0-.16.68s.22.26.27.33.11.17.18.21a5.42,5.42,0,0,0,.56.22c.3.12.3.12.17.41a.66.66,0,0,0,0,.61,1.68,1.68,0,0,0,1,.7,1,1,0,0,0,.88-.24,7.56,7.56,0,0,0,.78-.72,2.16,2.16,0,0,1,.33-.27c.23-.17.47-.32.71-.47s.48-.28.73-.41.21,0,.19.12-.08.37-.13.55a5.08,5.08,0,0,0-.33,1.33c0,.24,0,.48-.06.71a.17.17,0,0,0,0,.12c.06.14.13.28.2.42a1.13,1.13,0,0,0,.49.56,2.11,2.11,0,0,1,.53.4l.6.69a5.29,5.29,0,0,1,.41.41,1,1,0,0,0,.52.45,5.59,5.59,0,0,0-.08-.59c0-.25-.08-.49-.13-.73a1.81,1.81,0,0,0-.2-.48,2.18,2.18,0,0,1-.19-.73c0-.27,0-.54-.1-.8s.1-1.73.08-1.94a2.36,2.36,0,0,1,.08-.45c.06-.41.11-.82.16-1.22a.16.16,0,0,0,0-.07c0-.1,0-.21,0-.31s.1-.14.19,0a4,4,0,0,1,.26.32,6,6,0,0,1,.58.87c.18.41.55.61.85.88h.07c.16,0,.33,0,.49,0s.22,0,.23-.17a2,2,0,0,0,0-.69,4.27,4.27,0,0,0-.54-.92,13.43,13.43,0,0,0-1-1,2.9,2.9,0,0,0-.57-.54,3.3,3.3,0,0,1-.47-.44.6.6,0,0,1-.08-.16l.16-.06a.36.36,0,0,1,.49.08,2.81,2.81,0,0,0,.52.46,2.66,2.66,0,0,0,1.3.5h.22a1.16,1.16,0,0,0,.06-.15c0-.18,0-.37,0-.56a.27.27,0,0,0-.06-.12l-.41-.3-.65-.43c-.07,0-.15-.11-.05-.21a.62.62,0,0,1,.72-.08c.19.15.35.32.53.47a1.81,1.81,0,0,0,1.2.58,2.29,2.29,0,0,1,.65.16.28.28,0,0,0,.39-.21.65.65,0,0,0-.1-.56A.76.76,0,0,0,34.6,131.9Zm-9.18,4a.88.88,0,0,1-.15.12h0l-.3.16-.06,0c-.14.13-.14.13-.21-.05a1.4,1.4,0,0,0-.15-.3c-.07-.1-.16-.22-.06-.31s.27-.19.36-.15a2.63,2.63,0,0,1,.58.38A.19.19,0,0,1,25.42,135.88Zm1-.78a.21.21,0,0,1-.18,0c-.15-.14-.3-.28-.44-.43s-.09-.13,0-.22c.22-.24.42-.25.73,0l.39.34C26.7,134.86,26.54,135,26.38,135.1Zm2.05-.62-.62-.36c-.24-.13-.46-.27-.7-.39a.68.68,0,0,1-.36-.63c0-.1,0-.14.14-.15l1.15-.18a.31.31,0,0,1,.33.22A4.91,4.91,0,0,1,28.43,134.48Z"/><path class="cls-1" d="M46.67,153.12a11.16,11.16,0,0,1-.5-1.05,11,11,0,0,1-.33-1.16c-.07-.28-.11-.57-.18-.85a4.05,4.05,0,0,1-.12-.47c0-.41,0-.83,0-1.24s0-.56,0-.83,0-.53,0-.83a1.5,1.5,0,0,0-.06-.38c0-.23,0-.45,0-.68a.37.37,0,0,1,.1-.24,2.7,2.7,0,0,0,.45-.79,1,1,0,0,0-.41-1.17,1.51,1.51,0,0,0-.79-.28.49.49,0,0,0-.47.24,1.57,1.57,0,0,1-.34.42,3.14,3.14,0,0,1-1.47.58l-.6.12a3.21,3.21,0,0,1-.43.07c-.36,0-.72.09-1.08.11-.62,0-1.24.09-1.85.07s-1.32-.09-2-.15a1.87,1.87,0,0,1-.34-.08,1.22,1.22,0,0,0-.48-.1,1.1,1.1,0,0,1-.57,0l-.29,0,0,.05a.74.74,0,0,0,.13.21,4.19,4.19,0,0,0,.33.26,3.76,3.76,0,0,0,1.7.8,2.69,2.69,0,0,0,.57.06l.46,0a9.87,9.87,0,0,0,1.09.16c.19,0,.35,0,.43.22,0,0,.06.07.09.1l1,.8c.17.14.23.32.14.43-.27.31-.42.49-.78.31,0,0-.06,0-.08,0a1.61,1.61,0,0,1-.57-.29,1,1,0,0,0-.41-.25.76.76,0,0,0-.47-.07,1.33,1.33,0,0,1-.4,0,.62.62,0,0,0-.68.34.51.51,0,0,0,.13.65c.44.24.89.46,1.34.68l.39.17c-.23.23-.42.43-.63.63a.16.16,0,0,1-.12,0,3.24,3.24,0,0,0-.35-.21c-.11-.05-.2-.1-.23-.21a1.57,1.57,0,0,0-.68-.84,1,1,0,0,0-.95-.12.38.38,0,0,0-.27.17,1.53,1.53,0,0,1-.14.21,1.77,1.77,0,0,0-.37.94.22.22,0,0,0,.15.23,4.09,4.09,0,0,0,1.15.16.8.8,0,0,0,.3-.06l.21-.06,1-.1h.18s0,.06,0,.07l-.91.87a.22.22,0,0,1-.16,0l-1.59-.34a1.85,1.85,0,0,1-.29-.13l-.92-.33h0c-.23,0-.52-.17-.7-.07a.39.39,0,0,0-.14.3,5.11,5.11,0,0,0,0,.78.35.35,0,0,0,.27.29c.28.1.57.18.85.3a4.7,4.7,0,0,1,.65.37c.35.22.67.5,1,.7a6.16,6.16,0,0,1,1.08.89,5,5,0,0,0,1,.85l.1.08a1.44,1.44,0,0,0,.38.21,1.08,1.08,0,0,0,.9-.23.21.21,0,0,0,.08-.17,1.63,1.63,0,0,0-.37-1.1c-.29-.31-.6-.6-.9-.9a1.28,1.28,0,0,1-.24-.32c-.09-.15,0-.25.15-.27a.76.76,0,0,1,.55.12.86.86,0,0,0,.34.18.88.88,0,0,1,.58.39.44.44,0,0,0,.23.17,1.2,1.2,0,0,0,.77,0,.57.57,0,0,0,.14-.13,1.26,1.26,0,0,1,.13-.23.34.34,0,0,0,.07-.36,2.27,2.27,0,0,0-.06-.25c-.1-.27-.19-.55-.51-.65a.3.3,0,0,1-.16-.17c-.05-.11-.13-.12-.24-.1s-.21.18-.21.38l-.89-.1,0-.06c.26-.25.5-.52.78-.75s.32-.2.59,0a.52.52,0,0,0,.19.11c.14,0,.29,0,.43.09a1,1,0,0,0,.92-.13.4.4,0,0,0,.16-.47c-.17-.35-.53-.52-.76-.81,0,0-.06,0-.08,0l-.13-.07a1.83,1.83,0,0,1,.73-.52.66.66,0,0,1,.37,0,5.16,5.16,0,0,1,.52.16l.65.24-.31,1.11c0,.08-.12.16-.12.25a3.69,3.69,0,0,0,0,.88,2.35,2.35,0,0,0,.53,1.27,1.1,1.1,0,0,0,.51.3c.21,0,.46.08.57.28a2,2,0,0,0,.58.59,5,5,0,0,0,.52.39l.76.5.24.17,0,0a.61.61,0,0,0,0-.13Zm-2.84-5.79-2.33-1.2-.2-.1a.45.45,0,0,1-.1-.13s.09-.09.13-.09c.61,0,1.22-.1,1.83-.1.39,0,.38,0,.47.41s.16.62.22.94A.94.94,0,0,1,43.83,147.33Z"/><path class="cls-1" d="M22.93,120a.19.19,0,0,1,.13,0,.39.39,0,0,0,.36,0c.15,0,.32,0,.44-.15s0-.55,0-.83a.16.16,0,0,0,0-.09c-.09-.18-.2-.36-.28-.55a2.27,2.27,0,0,0-.37-.64c-.26-.31-.49-.65-.74-1s-.53-.61-.79-.91c0,0-.07-.11-.13-.2.43-.07.8-.26,1.2.09a2.41,2.41,0,0,1,.72.77c0,.08.12.14.18.22a2.82,2.82,0,0,1,.18.29,3.22,3.22,0,0,0,.2.37,5,5,0,0,1,.53.74,4.9,4.9,0,0,0,.68,1c.45.52,1,.63,1.45,0a2.67,2.67,0,0,0,.39-1.51.15.15,0,0,0-.06-.1.74.74,0,0,0-.09-.12c-.2-.06-.39-.15-.57,0,0,0,0,0,0,0a5.72,5.72,0,0,1-.57-.24c-.38-.22-.76-.46-1.12-.71s-.67-.51-1-.77c-.06,0-.07-.15-.11-.22a3.9,3.9,0,0,1,.71-.1,1.9,1.9,0,0,0,.92-.39,1,1,0,0,0,.35-.34,7.31,7.31,0,0,1,.46-.76.7.7,0,0,0,.14-.58c0-.09.06-.25-.1-.28a2.45,2.45,0,0,0-.54,0,4.57,4.57,0,0,0-1.28.51A8.31,8.31,0,0,1,23,114a7.33,7.33,0,0,1-.81.19c-.49.12-1,.25-1.47.34a.64.64,0,0,1-.64-.21c.15-.09.17-.21.07-.32a1.14,1.14,0,0,0-.31-.23c-.28-.13-.59-.2-.85-.34a1.56,1.56,0,0,0-.75-.25.33.33,0,0,0-.34.18.7.7,0,0,0-.09.37c0,.22.09.43.14.65s.06.23-.14.22c0,0-.06,0-.09.07a.61.61,0,0,1-.21.11c-.3.07-.6.1-.9.17a2.08,2.08,0,0,1-1.57,0,.73.73,0,0,0-.7.06,3.14,3.14,0,0,0-1.05.67l0,0a.63.63,0,0,0-.42.46,1,1,0,0,0,.17,1,5.21,5.21,0,0,1,.47.47.74.74,0,0,0,.72.23,2,2,0,0,1,.9,0c.19.08.41.1.59.19.4.2.79.42,1.18.64a2.93,2.93,0,0,1,.39.21c.06.05.14.15.12.21a2,2,0,0,1-.52,1.2.31.31,0,0,0-.07.09,2.6,2.6,0,0,1-.44.54.64.64,0,0,0-.25.48,1.66,1.66,0,0,0,.38,1.3,1.46,1.46,0,0,1,.21.28c.1.16.18.34.27.51a10.58,10.58,0,0,1,.49,1,.93.93,0,0,0,.32.45l.32.29.41.26.05,0a1.13,1.13,0,0,0,0-.18,2.19,2.19,0,0,1-.1-.34,4.68,4.68,0,0,1,0-1c.05-.26,0-.53.07-.79s.11-.58.17-.87a7.19,7.19,0,0,1,.2-.8,5.86,5.86,0,0,1,.3-.55,4,4,0,0,0,.19-.52c.15-.41.29-.82.43-1.24a2.44,2.44,0,0,0,.07-.39c0-.3.06-.59.08-.89a1.08,1.08,0,0,0-.11-.75,3.75,3.75,0,0,0-.38-.51.54.54,0,0,0-.48-.06,7.67,7.67,0,0,0-.74.53,1,1,0,0,0-.41.76c0,.14-.07.19-.18.14a1.53,1.53,0,0,1-.4-.21c-.4-.32-.79-.65-1.18-1-.2-.18-.39-.38-.62-.6a2,2,0,0,1,.55-.28,5.73,5.73,0,0,1,1.49-.1c.32,0,.63.07.95.09s.58,0,.86.06a.54.54,0,0,1,.3.13c.34.31.68.62,1,1a5.93,5.93,0,0,1,.77.89,12.54,12.54,0,0,1,.69,1.37,2,2,0,0,0,.39.54A.48.48,0,0,0,22.93,120Z"/><path class="cls-1" d="M129.77,161.05a.81.81,0,0,0-.3-.28,1.92,1.92,0,0,0-.36-.14c-.26-.11-.36-.06-.39.22a.37.37,0,0,1-.05.11c-.1.11-.18.24-.29.34a7,7,0,0,1-.66.56c-.37.3-.76.58-1.14.87-.14.1-.22.08-.24-.09s0-.55,0-.83a.4.4,0,0,1,0-.22,2.89,2.89,0,0,1,.35-.35l.45-.4c.15-.14.29-.28.44-.4l.62-.5a6.1,6.1,0,0,1,.54-.34,9.5,9.5,0,0,0,.89-.48c.4-.29.56-.58.25-1a.76.76,0,0,0-.94-.38,1.5,1.5,0,0,0-.81.41.77.77,0,0,1-.15.16c-.42.33-.85.67-1.29,1a4.21,4.21,0,0,1-.51.29c-.1,0-.2.06-.24-.1a.61.61,0,0,1,0-.51,4.28,4.28,0,0,1,.48-.86c.3-.36.6-.73.88-1.1.14-.18.11-.28-.08-.42s-.08-.09-.07-.13a1.11,1.11,0,0,0-.06-.78.56.56,0,0,0-.66-.17,1.4,1.4,0,0,0-.13.18c-.22.26-.43.52-.67.77s-.36.34-.56.53a1.64,1.64,0,0,0,0-.36,4.82,4.82,0,0,0-.27-.72,1.5,1.5,0,0,0-.75-.53,1,1,0,0,0-.63,0,.51.51,0,0,0-.44.57,1.35,1.35,0,0,0,.62,1.12.86.86,0,0,1,.18.2,1.42,1.42,0,0,1,.11.64c0,.15,0,.29-.1.39s-.42.35-.65.51a4.69,4.69,0,0,1-1.16.64.28.28,0,0,0-.12.12c-.06.08-.09.18-.14.25a.7.7,0,0,0,.21.93,1.73,1.73,0,0,0,.58.16,1.78,1.78,0,0,0,1-.27l.21-.09a.81.81,0,0,1,.81.15c0,.09,0,.17,0,.22a9.27,9.27,0,0,1-.66,1.15,10,10,0,0,0-.67.77,2.41,2.41,0,0,1-.6.54l-.58.44c-.22.18-.23.24-.1.49a.24.24,0,0,0,.21.17c.23,0,.46.12.7.14a1.29,1.29,0,0,0,1.24-.4c.28-.33.59-.62.91-1a1,1,0,0,1,.18.29,3.84,3.84,0,0,1,.09.75,2.33,2.33,0,0,1-.13,1.14.11.11,0,0,0,0,.11,3.57,3.57,0,0,0,.3.38.56.56,0,0,0,.69.13,1.29,1.29,0,0,0,.8-1,3.81,3.81,0,0,1,.23-.54,1.93,1.93,0,0,1,.59-.73,1.64,1.64,0,0,1,.71-.38c.25-.07.33,0,.28.25,0,.06,0,.12,0,.18-.09.28-.18.57-.29.85a4.23,4.23,0,0,1-.24.4.31.31,0,0,1-.35.2.26.26,0,0,0-.3.27c-.08.36-.44.53-.39.73-.07.47.31.38.36.41a1.6,1.6,0,0,0,.82.24.64.64,0,0,1,.48.24,1.34,1.34,0,0,0,.25.23c.31.5,1.19-.31,1.28-.42l.19-.24c.19-.26.17-.37,0-.63a2.74,2.74,0,0,0-.86-.8c-.14-.11-.12-.19-.07-.32.12-.35.23-.71.34-1.06a2.64,2.64,0,0,1,.07-.3,1.82,1.82,0,0,0,.19-.76,1,1,0,0,1,.51-.75.79.79,0,0,0,.08-.62C130.2,160.83,129.88,161.25,129.77,161.05Z"/><path class="cls-1" d="M149.13,152.23c-.36-.53-.74-1-1.12-1.55a2.24,2.24,0,0,0-.42-.45,16.52,16.52,0,0,0-1.51-1.26s0-.05-.07-.08l-.15-.21a.3.3,0,0,1,0-.4,3.49,3.49,0,0,1,.32-.25c.24-.16.48-.32.73-.47l.28-.16a1.32,1.32,0,0,0,.42-.72c0-.2.09-.4-.11-.58a.8.8,0,0,0-.74-.27,2.51,2.51,0,0,0-1.16.69l-.81.87a.19.19,0,0,1-.29,0c-.18-.13-.35-.28-.53-.42a11.53,11.53,0,0,1-2.18-2.4,1.75,1.75,0,0,0-.4-.7s-.39-.81-1.08-.42a2.35,2.35,0,0,0-.57.29.34.34,0,0,0-.14.28,3.55,3.55,0,0,0,.21.54.55.55,0,0,1,0,.18c0,.11,0,.24,0,.31a.87.87,0,0,0,.29.24c.12.08.41.16.43.26s-.51.4-.59.59a.72.72,0,0,0,.1.51.21.21,0,0,1-.08.3s-.09.07-.09.1.26.43.44.42a1,1,0,0,1,.24,0c.19,0,.43.16.68-.15A1.6,1.6,0,0,1,142,147a.14.14,0,0,1,.12,0,3.09,3.09,0,0,1,.33.39c.18.26.16.26,0,.5a6.66,6.66,0,0,1-1,.77c-.08.05-.18.17-.17.24s.13.22.19.34.16.13.29.12a2.07,2.07,0,0,1,.22,0,5.09,5.09,0,0,0,.55,0,.36.36,0,0,0,.22-.09l.85-.72a1.61,1.61,0,0,1,.22.3.42.42,0,0,1,0,.29c-.09.23-.22.45-.32.67s-.2.4-.31.6-.14.26-.22.38-.33.42-.46.65-.11.17-.21.13a11.22,11.22,0,0,0-.48-2c-.2-.15-.15.58-.33.8-.06,0-.12-.08-.18-.07-.46.11-.86-.15-1.29-.06-.05,0-.11,0-.16-.08a2.26,2.26,0,0,0-.31-.23c-.19-.08-.38-.25-.62-.08,0,0-.06,0-.09,0s-.35.09-.34.24a1.56,1.56,0,0,0,.59,1.18c.43.38,0,1.32-.12,1.62-.21.76-.72,1.81-1.38,1.75.41.24.78.45,1.14.68a.87.87,0,0,0,.58.16c.37-.05.76-.1,1-.46a4.6,4.6,0,0,0,.58-1.37c0-.05.06-.13.09-.12a.24.24,0,0,1,.16.07.79.79,0,0,1,.14.23,2.31,2.31,0,0,1,.13,1.3.47.47,0,0,0,.17.6.16.16,0,0,1,.07.12,6.45,6.45,0,0,1,.21.62.27.27,0,0,0,.38.2,1.37,1.37,0,0,0,.81-.84.75.75,0,0,1,.18-.35c.14-.1.25.1.39.17s.24.05.31-.12a2.54,2.54,0,0,0,.14-.47.79.79,0,0,0-.37-.88,4,4,0,0,1-.91-.72,1.23,1.23,0,0,1-.38-.81c0-.12,0-.23.12-.28s.24-.13.37,0a.58.58,0,0,0,.54.22c.07,0,.29,0,.36-.07s.07-.24.11-.37a2.26,2.26,0,0,0,.17-.35c.18-.57.35-1.16.53-1.74a4.32,4.32,0,0,1,.18-.41,2.8,2.8,0,0,0,.29.44,10,10,0,0,0,1.12.93,7,7,0,0,1,.91.9c1.21.95,1.68,1.61,2,1.61.12,0,.29,0,.34,0s0-.5,0-.64A3.44,3.44,0,0,0,149.13,152.23Z"/><path class="cls-1" d="M138,150.37a3.4,3.4,0,0,1,.69-1.45c.18-.17.44-.3.41-.62,0-.11,0-.22,0-.33a.62.62,0,0,0-.32-.52,1.47,1.47,0,0,0-.62-.13,2.87,2.87,0,0,0-1.37.37c-.12.07-.14.2-.09.25s.09.3,0,.44,0,.2.05.22a.76.76,0,0,1,.53.66c0,.37,0,.75,0,1.12a3.67,3.67,0,0,1-.09.93,2,2,0,0,0,.11,1.05c.06.11.28-.13.32-.3s.09-.54.16-.81S137.91,150.66,138,150.37Z"/><path class="cls-1" d="M171.65,113.63l-1.92,1.85a4.72,4.72,0,0,1-.48.41c-.21.16-.45.28-.65.44a2.24,2.24,0,0,1-1,.47.37.37,0,0,1-.47-.24,1.62,1.62,0,0,0-.81-.8l-.55-.28a.18.18,0,0,1-.07-.09.91.91,0,0,1,.15-.33,1.68,1.68,0,0,1,.37-.27.8.8,0,0,0,.32-.52.71.71,0,0,0-.18-.67.93.93,0,0,0-.59-.28.7.7,0,0,0-.57.21c-.32.28-.6.6-.92.88a1.61,1.61,0,0,0-.41.59.88.88,0,0,1-.18.29c-.07.1-.33.31-.28.32s.39-.08.38,0-.29.34-.22.42.27,0,.4-.09l.58-.2a.15.15,0,0,1,.2.12,1.82,1.82,0,0,0,.57.87c.2.19.4.38.59.58s.06.2-.09.24a4.11,4.11,0,0,0-.53.17c-.31.15-.6.32-.9.49l-.29-.5-.31-.52-.32-.56-.11-.21a2.85,2.85,0,0,1-.24-.5,3,3,0,0,1,.11-1.2,9.3,9.3,0,0,0,.19-1,.53.53,0,0,0-.28-.55,1,1,0,0,1-.23-.17.35.35,0,0,0-.39-.11.56.56,0,0,0-.36.41c-.11.32-.24.38-.44.21a1.19,1.19,0,0,0-1.41,0,5.13,5.13,0,0,0-.72.68,3,3,0,0,0-.32.47c0,.07,0,.16-.07.23a.19.19,0,0,0,0,.25.21.21,0,0,1,0,.13.44.44,0,0,0,.49.43,1,1,0,0,0,.52-.09,1,1,0,0,1,.44-.11.7.7,0,0,1,.25,0c.29,0,.49.17.51.49l0,0a1.7,1.7,0,0,1,.13.94,5.48,5.48,0,0,0,.09,1.28c0,.14-.05.24-.19.21a1.24,1.24,0,0,0-.33,0,1,1,0,0,0-.62.46.24.24,0,0,1-.37.09c-.21-.13-.43-.24-.65-.35l-.23-.1a7.21,7.21,0,0,0-.74-.36,1.21,1.21,0,0,0-.62-.06,9.59,9.59,0,0,0-1,.32.36.36,0,0,0-.21.56.73.73,0,0,0,.43.32l.69.22.42.09.48.13a3,3,0,0,1,.52.12c.34.13.66.3,1,.42a.7.7,0,0,1,.47.63,8.59,8.59,0,0,1,.11,1.76,1,1,0,0,0,.17.73,4.34,4.34,0,0,1,.63-.06.59.59,0,0,0,.46-.17c.23-.24.43-.52.65-.77a3.69,3.69,0,0,1,.27-.39c.12-.08.73.23.94.59l.18.34a6,6,0,0,1,.4.75,1.7,1.7,0,0,0,.65.86c.15.11.42.09.39.38,0,0,0,0,0,0s.17.12.24.19a.32.32,0,0,0,.35.08c.18-.07.37-.11.54-.19a.51.51,0,0,0,.23-.23,1.09,1.09,0,0,0-.16-1.17.25.25,0,0,1,.33,0l1,.5a.93.93,0,0,0,1-.21s.1-.14.08-.19a1.56,1.56,0,0,0-.19-.39,2.82,2.82,0,0,0-.79-.75.35.35,0,0,1-.1-.21c0-.4.06-.81.11-1.21a5.18,5.18,0,0,0-.08-2,.3.3,0,0,1,.19-.37,1.16,1.16,0,0,1,.69,0,.55.55,0,0,0,.43-.08c.2-.11.4-.21.61-.3s.42-.15.61-.25c.57-.14.39-1.29.4-1.48a1.86,1.86,0,0,1,.44-1,4.48,4.48,0,0,0,.74-2.34C172.23,113.09,171.84,113.45,171.65,113.63Zm-8.22,6.5a.75.75,0,0,0-.54-.16.27.27,0,0,1-.3-.22,2.81,2.81,0,0,1-.08-.31,1.19,1.19,0,0,1,.3-1c.11,0,.44.24.5.41a2.52,2.52,0,0,1,.21.54c0,.24.07.49.11.77A.88.88,0,0,1,163.43,120.13Zm3.86.46a5.71,5.71,0,0,1,0,.83,3.06,3.06,0,0,1-.1.47l-.29-.13-1-.35a.41.41,0,0,1-.29-.27c-.08-.25-.22-.48-.32-.73a3.59,3.59,0,0,1-.08-.35s0,0,0,0-.05-.22,0-.26a2,2,0,0,1,.56-.39,2.54,2.54,0,0,1,1.24-.25.22.22,0,0,1,.18.1c.06.16.1.33.15.5A2.82,2.82,0,0,1,167.29,120.59Z"/><path class="cls-1" d="M161.16,138.4a2.77,2.77,0,0,0-.49-1c-.24-.26-.49-.51-.75-.76s-.25-.35,0-.56a1.76,1.76,0,0,0,.84-1.46c0-.11,0-.23,0-.33a2.29,2.29,0,0,1-.55,0,3.42,3.42,0,0,0-1,.21,4.91,4.91,0,0,0-1.36,1.29c-.13.15-.25.3-.39.44a.2.2,0,0,1-.32-.08,6.71,6.71,0,0,1-.26-.95c-.06-.4-.07-.81-.11-1.21a1.55,1.55,0,0,0-.74-1c.2,0,.31-.49.34-.53.2-.3.41-.58.63-.87a1.7,1.7,0,0,0,.4-.62.79.79,0,0,0-.69-1,3.62,3.62,0,0,0-.46,0,1,1,0,0,0-.45.05,5.25,5.25,0,0,0-1.15.95c-.23.24-.45.49-.67.73a.62.62,0,0,1-.2-.61c0-.26,0-.52.07-.78s-.07-.46,0-.63a.74.74,0,0,0,0-.65,1,1,0,0,0-.49-.59,1.9,1.9,0,0,0-1-.14.55.55,0,0,0-.22.06.77.77,0,0,0-.4.82c0,.32-.07.86,0,1s.22.09.33.12a.15.15,0,0,0,.12,0c.12-.18.22-.37.34-.55h.06c.06.21.13.41.17.62s.1.65.15,1,.07.56.13.84a3.37,3.37,0,0,1,.14,1.41c-.18.92-.39,1.85-.59,2.77a.18.18,0,0,1-.13.11,1.78,1.78,0,0,0-.78.38c0,.05-.13.09-.13.15a1,1,0,0,0,.17.87,1.44,1.44,0,0,1,.27.42,2.75,2.75,0,0,0,.59,1c.18.2.29.23.52.1l.36-.22a.83.83,0,0,0,.27-1,.58.58,0,0,1-.08-.43.41.41,0,0,0-.08-.41s.07-1.32.15-1.92a3.07,3.07,0,0,1,.22-.71,9.18,9.18,0,0,1,.5-1.26,9.33,9.33,0,0,1,.8-1.1,1.59,1.59,0,0,1,.38-.22c-.07.26-.11.46-.17.65s-.21.56-.27.84c-.16.63-.28,1.26-.42,1.89,0,.08-.07.15-.09.23s-.14.39-.08.54a.88.88,0,0,1,0,.45,5.86,5.86,0,0,0-.12.84.35.35,0,0,0,.21.34.27.27,0,0,0,.35-.12,3.19,3.19,0,0,0,.56-1.48,3,3,0,0,1,.09-.41s.09-.07.13-.1a.6.6,0,0,1,.09.13c.18.64.36,1.29.55,1.94a.43.43,0,0,0,.52.29l.29-.08c-.08.33-.19.64-.24,1-.1.59-.15,1.18-.24,1.77a1.38,1.38,0,0,0,.17,1.15.26.26,0,0,0,.27.13.92.92,0,0,0,.85-.77.14.14,0,0,1,.17-.13.52.52,0,0,0,.21,0l1.05-.35.42-.2.78-.28a.9.9,0,0,0,.5-.42c.07-.12,0-.3.07-.44a1.09,1.09,0,0,1,.05-.26.33.33,0,0,0,0-.4A.79.79,0,0,1,161.16,138.4Zm-1.77,1.33a4,4,0,0,1-.95.58c-.18.07-.32,0-.34-.18a3.14,3.14,0,0,1,0-.75c.07-.37.18-.73.27-1.1,0-.1.08-.2.12-.3s.17-.09.26,0a2,2,0,0,1,.8,1.32A.44.44,0,0,1,159.39,139.73Z"/><path class="cls-1" d="M152.16,135.45a.55.55,0,0,0,.17-.75.84.84,0,0,0-.11-.21,1.72,1.72,0,0,0-.29-.31c-.17-.13-.37-.23-.55-.35s-.25-.13-.3-.31-.15-.12-.24-.17-.28-.1-.39-.14c0,.21,0,.47,0,.72s-.05.16-.17.1a.7.7,0,0,0-.72.09s-.09.11-.14.15a.86.86,0,0,0-.36.75c0,.24.07.36.3.43l1.49.44a.84.84,0,0,0,.82-.11Z"/><path class="cls-1" d="M150.78,131.86a.44.44,0,0,0,.11.55,2,2,0,0,0,1.23.39.56.56,0,0,0,.59-.51,1.4,1.4,0,0,0-.06-.5.81.81,0,0,0-.26-.37.94.94,0,0,0-.83-.2,1.05,1.05,0,0,0-.65.41Z"/><path class="cls-1" d="M109,166.06a2.09,2.09,0,0,1-1,.22.8.8,0,0,0-.26,0l-1,.24-.82.2-.75.19c-.06-.31.1-.51.42-.65s.55-.28.82-.41.12-.23.19-.31a.38.38,0,0,0,.06-.4.81.81,0,0,0-.79-.44c-.13,0-.27,0-.41,0l0-.07a2.13,2.13,0,0,1,.39-.35c.31-.16.64-.3,1-.44.14-.05.29,0,.43-.09s.41-.2.62-.26c.37-.09.45-.38.55-.67,0,0,0-.06,0-.08a1,1,0,0,0-.51-.42l-.21-.09-.27-.06a1.93,1.93,0,0,0-.24,0l-.27,0h-.45s0,0,0-.06.23-.29.34-.43a1.12,1.12,0,0,0,.33-.59c0-.24,0-.37-.28-.43s-.23-.06-.34-.07-.34-.08-.48.05a2.73,2.73,0,0,0-.55.67,3.81,3.81,0,0,0-.58,1.26,1.74,1.74,0,0,0,.15,1.17c.06.1.09.21,0,.29a.8.8,0,0,1-.64.12,2.63,2.63,0,0,0-.42-.07s0,0,0,0l.15-.67A1,1,0,0,0,104,163c0-.08.08-.1.05-.14s-.12,0-.15,0c-.25.23-.48.46-.73.68,0,0-.15.13-.18.11a.36.36,0,0,1-.19-.21,2.08,2.08,0,0,1-.07-.5,1.12,1.12,0,0,0-.36-.75,1,1,0,0,0-1-.3.61.61,0,0,0-.56.65,2.53,2.53,0,0,1-.18,1,12.6,12.6,0,0,1-1.1,1.84c-.1.16-.11.28.06.37a2.53,2.53,0,0,0,1,.21.58.58,0,0,0,.49-.31c.22-.31.48-.59.71-.87a6.45,6.45,0,0,0,.69.47c.28.14.54-.09.8-.14.16.3.15.36-.08.54l-.81.61s-.06.06-.1.07a1.19,1.19,0,0,0-.53.41c-.12.18-.25.36-.38.53a.24.24,0,0,0,.14.39,1.74,1.74,0,0,0,1.47-.35,1,1,0,0,1,.39-.17s.12,0,.16.08,0,.09,0,.11a3.24,3.24,0,0,1-1,.71,7.8,7.8,0,0,1-1.11.45,13.12,13.12,0,0,0-1.66.77,2.61,2.61,0,0,1-1.21.44.33.33,0,0,0-.21.09c-.08.07-.19.2-.17.27a.79.79,0,0,0,.26.39,1.13,1.13,0,0,0,.38.12.72.72,0,0,0,.48,0,2.78,2.78,0,0,1,.4-.16,3.22,3.22,0,0,0,1.18-.64,8.52,8.52,0,0,1,1.64-1c.58-.28,1.16-.53,1.75-.78a.36.36,0,0,1,.31.09,2.48,2.48,0,0,1,.27.47c-.31.24-.88.49-1,.41s.15-.21.19-.31a.36.36,0,0,0,0-.23.16.16,0,0,0-.13-.06.82.82,0,0,0-.33.19,8,8,0,0,1-1.06.87c-.32.29-.64.58-.94.89a1.1,1.1,0,0,0-.33.71c0,.21.09.33.29.35a4.28,4.28,0,0,0,.62,0,.3.3,0,0,1,.33.22,1,1,0,0,0,.14.24c.15.23.31.47.47.69a.37.37,0,0,0,.19.14,1.56,1.56,0,0,0,1-.31c.31-.19.34-.28.22-.63a.42.42,0,0,0,0-.12,1,1,0,0,0-.41-.57c-.17-.09-.33-.2-.52-.32a1.46,1.46,0,0,1,.25-.2l1.12-.53c.22-.09.27-.06.3.17.12.9.24,1.79.37,2.68,0,.29,0,.36-.27.53a1,1,0,0,1-.68.17c-.34,0-.69,0-1,0a2,2,0,0,1-.94-.32.13.13,0,0,0-.1,0,.13.13,0,0,0,0,.12.33.33,0,0,0,0,.13,1.3,1.3,0,0,0,.95.64c.43.1.87.17,1.31.26a.45.45,0,0,1,.34.26.28.28,0,0,0,.11.13,1.14,1.14,0,0,0,.78.18c.2-.06.41-.13.61-.21a1,1,0,0,0,.63-1c0-.44,0-.87-.06-1.31a6.23,6.23,0,0,0-.09-.74c-.07-.32-.18-.63-.26-.95s-.1-.52-.18-.78,0-.42.3-.44h.1c.32,0,.64.07.94-.07s.42-.19.49-.34a1.05,1.05,0,0,0,0-.72.83.83,0,0,0-.91-.39l-.79.25c-.38.11-.43.08-.55-.28,0-.1-.09-.19-.13-.29a1.5,1.5,0,0,1-.09-.18,1.41,1.41,0,0,1,.25,0l.93-.11a.35.35,0,0,0,.11,0,2.47,2.47,0,0,1,.36-.11l1.47-.22a.65.65,0,0,0,.5-.75C109.7,166,109.31,166,109,166.06Z"/><path class="cls-1" d="M87.07,163.19a.62.62,0,0,0-.5,0,2.37,2.37,0,0,1-.76,0l-1.69,0-1.05,0c-.09-.21-.15-.37-.21-.52a.67.67,0,0,1-.07-.18,1.27,1.27,0,0,0-.5-.83,2,2,0,0,0-.59-.33c-.32-.11-.66-.17-1-.25h0c-.26.1-.52.19-.77.31a.33.33,0,0,0-.17.25,1.37,1.37,0,0,0,.35.75c.17.21.52.27.48.65,0,.15-.14.37-.31.39s-.53.07-.78.12l-1.33.28c-.41.09-.82.2-1.24.25s-.83,0-1.24.05a4.2,4.2,0,0,0-.62.07s-.11.14-.09.17a2.91,2.91,0,0,0,.3.31c.09.08.21.15.29.23a1.13,1.13,0,0,0,1.19.32l1-.25c.26-.06.53-.09.8-.14,0,.11,0,.2,0,.3,0,.25,0,.49,0,.74a5.86,5.86,0,0,1,0,.73c-.08.46-.2.92-.29,1.37,0,.19,0,.3-.19.39a.33.33,0,0,0,.05.48c.14.12.13.36.2.54a.7.7,0,0,1-.19.1c-.3.1-.6.18-.9.27a.56.56,0,0,1-.72-.59c0-.15-.07-.21-.22-.17h-.13a.78.78,0,0,0-.67.27,1.08,1.08,0,0,0-.24.67c0,.3,0,.6,0,.89,0,.58,0,1.15,0,1.73a1.83,1.83,0,0,0,.08.57,6.65,6.65,0,0,0,.28.69c.16.36.25.37.55.09a.26.26,0,0,1,.21-.08.28.28,0,0,0,.25-.07,1.53,1.53,0,0,0,.4-.29A.83.83,0,0,0,77,173c0-.41-.1-.82-.12-1.24a4.35,4.35,0,0,1,0-.72c0-.2.2-.24.32-.33a.4.4,0,0,1,.22,0c.12,0,.57-.17.71-.2s.42-.14.57-.17l1.19-.28a8.35,8.35,0,0,1,1.48-.26,17,17,0,0,1,1.74.06c.24,0,.35.12.31.3a5.18,5.18,0,0,1-.31.94,12.14,12.14,0,0,1-.61,1.12A6.1,6.1,0,0,1,82,173c-.1.1-.22.25-.35.26a3.25,3.25,0,0,1-.76-.06c-.27,0-.51-.22-.8-.12,0,.12,0,.18.11.24l.49.37a.42.42,0,0,1,.11.47c-.11.26-.09.32.16.46a2.75,2.75,0,0,0,1,.3,1,1,0,0,0,.7-.17c.24-.14.46-.32.7-.47a1.53,1.53,0,0,0,.68-.72,4,4,0,0,0,.26-.73,4.28,4.28,0,0,1,.55-1.3,1.76,1.76,0,0,1,.46-.41.85.85,0,0,0,.31-.67,4,4,0,0,0-.61-1.33.85.85,0,0,0-1.12-.35,2.28,2.28,0,0,1-1,0c-.11,0-.14-.07-.09-.19a6.72,6.72,0,0,0,.32-.85c.12-.43.21-.87.32-1.3a4.48,4.48,0,0,0,.2-.69,1.22,1.22,0,0,1,.32-.71.5.5,0,0,0,.11-.51c0-.13-.07-.26-.12-.43.24,0,.47,0,.69,0s.57.09.86.12c.07,0,.15,0,.23,0l.51,0c.24,0,.4-.14.6-.2a.56.56,0,0,0,.46-.54A.27.27,0,0,0,87.07,163.19Zm-6,5c0,.09-.15.42-.35.47,0,0-.06.05-.1.06l-.73.12a.64.64,0,0,1,.43-.81c.22-.06.43-.12.65-.16a1,1,0,0,1,.24,0Zm.7-1.65a.28.28,0,0,1-.26.29l-1.08.18h-.11c0-.08,0-.29.07-.32a4.41,4.41,0,0,0,.39-.49c.16-.3.48-.29.74-.39s.34.19.32.34S81.78,166.42,81.76,166.55Zm.46-1.85a.23.23,0,0,1,0,.1,2.79,2.79,0,0,1-1.05.28l-.62.11c-.16,0-.22,0-.2-.2s0-.35,0-.44c.07-.41.07-.41.41-.45l1.07-.1c.32,0,.26,0,.37.28A1.18,1.18,0,0,1,82.22,164.7Z"/><path class="cls-1" d="M81,172.73c.15,0,.31,0,.42-.14a.36.36,0,0,0,0-.44.2.2,0,0,1,0-.15c.1-.13.22-.24.32-.37.22-.29.25-.57,0-.78a1.59,1.59,0,0,0-1.57-.44l-.8.23-.68.26a.2.2,0,0,1-.25,0,.57.57,0,0,0-.22-.11c-.26-.05-.6.25-.64.57s0,.46,0,.69a.9.9,0,0,0,.87,1,4.79,4.79,0,0,0,1.68-.2A4.13,4.13,0,0,1,81,172.73ZM79.31,172c-.1.06-.22.08-.26-.09s0-.14,0-.16a1.8,1.8,0,0,1,.34-.17l.78-.29,0,0a1,1,0,0,1-.19.21Z"/><path class="cls-1" d="M18.84,90.57l-1.08,1,.17.15a2.19,2.19,0,0,1,.83,1.63c0,1.32-1.07,2.16-2.86,2.2h-.12c-1.67,0-2.77-.82-2.8-2.1A2,2,0,0,1,13.62,92l.15-.15-1.14-.93-.12.12a3.34,3.34,0,0,0-1,2.48c0,2.22,1.84,3.75,4.37,3.75H16a4.68,4.68,0,0,0,3.19-1.16,3.63,3.63,0,0,0,1.1-2.74A3.41,3.41,0,0,0,19,90.68Z"/><polygon class="cls-1" points="12.31 81.75 15.59 82.12 15.24 85.17 11.96 84.8 11.77 86.46 20.22 87.42 20.41 85.75 16.74 85.34 17.09 82.29 20.75 82.7 20.94 81.04 12.5 80.08 12.31 81.75"/><path class="cls-1" d="M13.84,73.56l7.55,4.81.42-1.68-2.07-1.23L20.35,73l2.41-.1.43-1.73-8.92.66Zm5.05-.47-.41,1.62-.74-.45c-.68-.4-1.28-.75-1.86-1.07.71,0,1.44,0,2.14-.07Z"/><path class="cls-1" d="M18,61l3.69,1.47c.54.22,1.14.41,1.71.59l-1,.08-5.53.74-.6,1.51,7.89,3.15.59-1.49L21,65.58c-.54-.22-1.11-.4-1.67-.57l1-.09,5.55-.73.6-1.51-7.89-3.16Z"/><path class="cls-1" d="M30.56,53.13l-3.29-1.89L25.7,54,27,54.7l.8-1.39,1.39.8a1.94,1.94,0,0,1-.28,1.08c-.76,1.32-2.07,1.53-3.7.6a3.28,3.28,0,0,1-1.51-1.62,2.11,2.11,0,0,1,.18-1.82,2,2,0,0,1,1.34-1l.21,0-.49-1.39-.18,0a3.4,3.4,0,0,0-2.21,1.67c-1.19,2.06-.44,4.33,1.85,5.65a5,5,0,0,0,2.51.74,3.66,3.66,0,0,0,3.24-2,3.9,3.9,0,0,0,.48-2.85Z"/><path class="cls-1" d="M36.29,44.82l-1.45.07,0,.22a2.18,2.18,0,0,1-.38,1.79,1.85,1.85,0,0,1-1.51.76h0a3.51,3.51,0,0,1-2.07-.84c-1.38-1.06-1.76-2.43-.95-3.47a1.93,1.93,0,0,1,1.4-.73l.22,0-.3-1.43h-.18a3.33,3.33,0,0,0-2.36,1.28c-1.38,1.8-.9,4.16,1.16,5.75a4.86,4.86,0,0,0,2.93,1.11,3.52,3.52,0,0,0,2.85-1.46A3.38,3.38,0,0,0,36.32,45Z"/><polygon class="cls-1" points="36.89 33.7 39.2 36.05 37.02 38.21 34.7 35.85 33.51 37.03 39.47 43.08 40.66 41.91 38.08 39.28 40.26 37.13 42.85 39.76 44.04 38.58 38.08 32.53 36.89 33.7"/><path class="cls-1" d="M47.3,25.32l-1.32,1,2.89,4c1.18,1.61.59,2.32.05,2.72a1.31,1.31,0,0,1-1.15.28,2.81,2.81,0,0,1-1.4-1.16l-2.9-4-1.35,1L45,33a4.23,4.23,0,0,0,2.45,1.85,2.61,2.61,0,0,0,.48,0,3.29,3.29,0,0,0,1.92-.71c1.71-1.25,1.83-2.93.33-5Z"/><path class="cls-1" d="M55.92,20.32l1.86,3.51c.27.52.6,1.05.92,1.55l-.83-.6-4.69-3-1.44.77,4,7.5,1.43-.75-1.88-3.55c-.27-.51-.59-1-.91-1.52l.83.59,4.7,3,1.44-.76-4-7.51Z"/><polygon class="cls-1" points="78.07 16.48 75.15 17.13 74.7 15.1 78.14 14.34 77.82 12.91 72.75 14.03 74.59 22.33 76.22 21.96 75.47 18.56 78.39 17.91 78.07 16.48"/><rect class="cls-1" x="82.35" y="12.19" width="1.68" height="8.5" transform="translate(-1.38 10.18) rotate(-6.95)"/><path class="cls-1" d="M93.09,11.62l0,4c0,.58.06,1.21.11,1.8l-.46-.91L90,11.66l-1.63,0,.1,8.49,1.61,0,0-4c0-.58,0-1.17-.11-1.76l.46.9,2.8,4.84h1.62l-.09-8.5Z"/><path class="cls-1" d="M101.35,12.11l-3.82,8.1,1.71.2,1-2.21,2.5.31.4,2.37,1.77.22-1.78-8.78Zm1.11,4.95-1.67-.2.35-.8c.32-.72.59-1.36.83-2,.11.7.22,1.42.35,2.12Z"/><path class="cls-1" d="M113.3,18.47c-.15.56-.27,1.18-.37,1.76l-.21-1-1.42-5.39-1.58-.41-2.14,8.22,1.56.4,1-3.88c.15-.57.26-1.15.36-1.73l.21,1,1.42,5.41,1.58.41L115.86,15l-1.56-.41Z"/><path class="cls-1" d="M124.26,18c-2.09-.87-4.25.2-5.26,2.6a4.63,4.63,0,0,0-.23,3.38,3.55,3.55,0,0,0,2,2.11,3.44,3.44,0,0,0,1.35.28,3.58,3.58,0,0,0,1.59-.39l.15-.07-.44-1.39-.2.1a2.15,2.15,0,0,1-1.83.1,1.87,1.87,0,0,1-1.13-1.29,3.52,3.52,0,0,1,.29-2.21c.67-1.61,1.89-2.32,3.1-1.81a1.92,1.92,0,0,1,1.07,1.17l.08.2,1.31-.66-.06-.17A3.34,3.34,0,0,0,124.26,18Z"/><polygon class="cls-1" points="126.61 28.67 131.19 31.34 131.94 30.06 128.8 28.24 129.91 26.32 132.48 27.81 133.22 26.54 130.66 25.04 131.59 23.44 134.62 25.2 135.36 23.94 130.88 21.33 126.61 28.67"/><path class="cls-1" d="M150,37.68a2,2,0,0,1,.52,1.5v.22l1.46-.1v-.17a3.36,3.36,0,0,0-.92-2.52,3.68,3.68,0,0,0-2.76-1.13A5.27,5.27,0,0,0,143.66,40a3.63,3.63,0,0,0,1.06,2.75,3.41,3.41,0,0,0,2.51,1.06h.41l.14-1.44h-.23a2.11,2.11,0,0,1-1.71-.63c-.92-.94-.69-2.3.59-3.55S149.08,36.74,150,37.68Z"/><path class="cls-1" d="M158.45,47.55a3.67,3.67,0,0,0-3.18-4.35A5.52,5.52,0,0,0,150.09,47a3.4,3.4,0,0,0,.62,2.88,3.44,3.44,0,0,0,2.56,1.47h.28a5,5,0,0,0,2.93-1.08A4.76,4.76,0,0,0,158.45,47.55Zm-3,1.34a3.61,3.61,0,0,1-2.07.81h0a1.76,1.76,0,0,1-1.69-2.34,4.33,4.33,0,0,1,3.45-2.52,1.75,1.75,0,0,1,1.45.73C157.32,46.58,156.89,47.85,155.47,48.89Z"/><polygon class="cls-1" points="163.34 53.71 162.55 52.23 155.06 56.25 157.47 60.74 158.77 60.04 157.16 57.03 163.34 53.71"/><polygon class="cls-1" points="161 65.23 167.54 62.7 166.93 61.13 159.02 64.2 160.86 68.95 162.23 68.42 161 65.23"/><polygon class="cls-1" points="163.81 73.84 165.96 73.31 166.68 76.19 168.11 75.83 167.39 72.95 169.19 72.5 170.04 75.91 171.46 75.55 170.21 70.53 161.97 72.58 163.25 77.72 164.69 77.36 163.81 73.84"/><path class="cls-1" d="M165.56,87.83l3.77-.41L169,84.28l-1.44.15.17,1.6-1.6.17a1.93,1.93,0,0,1-.4-1c-.16-1.51.77-2.45,2.63-2.66s3,.58,3.1,2a2,2,0,0,1-.5,1.59l-.14.17,1.22.83.11-.14a3.41,3.41,0,0,0,.81-2.65c-.26-2.37-2.19-3.76-4.83-3.48a4.56,4.56,0,0,0-3.07,1.45,3.75,3.75,0,0,0-.85,2.94,3.93,3.93,0,0,0,1.29,2.58Z"/><polygon class="cls-1" points="164.75 92.08 164.61 97.39 166.09 97.43 166.19 93.8 168.4 93.86 168.32 96.83 169.8 96.87 169.88 93.9 171.74 93.95 171.64 97.46 173.11 97.5 173.25 92.32 164.75 92.08"/></g></g></svg>