<svg width="820" height="948" viewBox="0 0 820 948" fill="none" xmlns="http://www.w3.org/2000/svg">
<path d="M191.77 131.219C228.6 138.167 265.95 142.396 303.37 144.25C294.21 152.05 289.131 163.739 288.171 175.598C287.031 190.323 286.19 205.082 285.11 219.807C284.13 229.518 289.47 239.558 297.9 244.379C305.6 248.427 313.4 252.281 321.11 256.329C327.01 259.138 332.471 262.902 338.581 265.267C341.591 264.755 344.18 262.958 346.89 261.628C360.15 254.692 373.49 247.915 386.79 241.059C402.431 233.054 418.06 225.015 433.79 217.192C434.431 200.796 434.7 184.399 435.19 167.992C423.84 172.381 412.14 177.19 399.74 176.747C394.78 176.61 389.82 176.906 384.91 177.6C385.37 193.359 385.82 209.119 386.25 224.89C369.45 216.464 352.75 207.845 335.94 199.454C333.66 198.328 331.55 196.93 329.49 195.463C344.74 187.117 359.49 177.202 376.46 172.665C383.65 170.675 391.121 169.617 398.581 169.97C406.441 170.391 414.1 168.185 421.43 165.649C438.17 159.771 453.871 151.322 470.621 145.455C476.321 143.613 482.301 141.578 488.371 142.658C512.971 146.205 537.781 142.999 562.331 140.736C584.381 138.417 606.39 135.46 628.17 131.219C646.98 160.021 661.481 191.483 673.031 223.832C688.951 268.939 698.27 316.446 699.66 364.292C700.91 406.072 696.01 448.012 685.14 488.372C670.46 542.542 646.88 594.532 613.88 640.052C567.52 631.582 520.69 625.522 473.64 622.572C383.88 616.842 293.59 623.852 205.22 640.202C185.13 611.992 168.541 581.332 155.431 549.282C138.591 507.972 126.61 464.492 122.25 420.022C114.51 343.982 127.9 266.438 157.64 196.213C167.24 173.688 178.31 151.709 191.77 131.219ZM448.89 162.102C448.69 170.777 448.46 179.453 448.26 188.14C456.9 193.632 465.76 198.794 474.27 204.502C414.77 234.85 355.301 265.289 295.811 295.671C286.831 300.254 277.15 304.677 270.9 312.943C266.35 318.777 265.24 326.372 265.09 333.562C264.71 348.722 264.01 363.882 263.84 379.052C263.84 385.022 268.53 389.422 273.4 392.102C294.08 403.672 314.47 415.782 335.03 427.582C366.63 409.452 398.391 391.592 429.851 373.222C430.141 353.752 430.841 334.282 431.301 314.831C451.741 325.565 472.241 336.152 492.591 347.052C424.091 385.722 355.84 424.802 287.4 463.572C280.63 467.512 274.32 472.782 270.83 479.932C266.79 487.712 266.36 496.602 265.34 505.132C263.22 523.352 261.09 541.582 258.98 559.822C355.84 503.312 452.65 446.692 549.51 390.232C554.03 387.412 556.7 382.152 556.23 376.832C555.65 360.622 555.441 344.382 554.591 328.169C554.281 319.982 550.171 312.489 544.351 306.883L544.29 306.474C524.88 295.512 504.761 285.916 485.091 275.455C483.291 274.636 481.251 273.044 479.331 274.522C463.441 282.971 447.54 291.442 431.64 299.901C417.43 307.383 403.32 315.058 389.051 322.426C389.691 342.792 390.39 363.152 391.03 383.532C369.45 371.532 347.831 359.582 326.301 347.492C384.711 317.128 442.79 286.143 500.9 255.204C509.95 250.405 520.211 245.948 525.301 236.465C530.311 228.005 528.78 217.886 527.7 208.63C526.63 199.124 525.91 189.584 524.66 180.113C524.17 176.394 521.46 173.506 518.48 171.494L518.361 170.629C515.831 169.981 513.46 168.89 511.28 167.468C501.701 161.419 492.1 155.393 482.5 149.355C470.79 152.141 459.87 157.292 448.89 162.102ZM393.801 490.522C394.121 500.372 394.42 510.232 394.66 520.092C394.75 526.422 395.13 533.002 398 538.782C400.07 543.122 403.82 547.132 408.79 547.812C413.12 548.482 417.39 546.142 420.01 542.792C424.31 537.402 425.58 530.282 425.78 523.552C426.14 509.442 426.48 495.312 426.89 481.202C471.61 507.372 516.26 533.632 560.97 559.822C558.46 538.272 555.97 516.742 553.43 495.202C552.54 487.452 550.08 479.632 544.96 473.612C539.12 466.572 530.73 462.542 522.94 458.122C510.32 450.882 497.79 443.482 485.14 436.282C454.74 454.432 424.211 472.372 393.801 490.522ZM322.25 555.502C322.25 558.722 322.25 561.952 322.25 565.172C326.28 564.262 330.32 563.342 334.36 562.452C334.37 574.502 334.36 586.562 334.37 598.632C330.43 598.642 326.5 598.642 322.57 598.652C322.57 601.762 322.57 604.892 322.57 608.032C334.35 608.042 346.13 608.032 357.91 608.032C357.89 604.892 357.89 601.762 357.91 598.642C353.98 598.642 350.07 598.642 346.17 598.642C346.17 582.582 346.17 566.522 346.17 550.452C338.19 552.132 330.22 553.822 322.25 555.502ZM374.551 552.992C363.941 558.722 361.77 575.242 370.41 583.582C376.6 589.722 387.92 589.132 393.2 582.072C392.64 587.532 392.071 593.932 387.311 597.522C381.691 601.492 374.121 600.132 368.321 597.262C368.361 600.512 368.341 603.772 368.371 607.032C376.531 609.742 386.34 610.272 393.63 605.022C400.93 599.572 403.791 590.142 404.351 581.412C404.901 572.852 404.23 563.322 398.49 556.462C392.81 549.532 382.081 548.892 374.551 552.992ZM470.301 554.292C462.66 559.672 459.15 569.182 458.47 578.212C457.86 586.522 458.571 595.662 463.831 602.502C471.371 612.202 488.46 610.872 494.71 600.382C499.45 592.582 498.9 580.892 491.64 574.792C485.04 569.602 474.62 571.192 469.76 578.012C470.18 572.082 471.661 565.482 476.821 561.832C481.831 558.182 488.531 559.462 493.821 561.812C493.751 558.482 493.75 555.152 493.76 551.832C486.04 549.842 477.111 549.592 470.301 554.292ZM410.95 586.032C408.85 588.802 409.781 592.452 409.551 595.682C417.861 595.682 426.16 595.682 434.46 595.682C434.46 599.802 434.46 603.912 434.48 608.032C438.06 608.032 441.65 608.032 445.25 608.032C445.25 603.912 445.24 599.792 445.27 595.672C447.54 595.672 449.831 595.672 452.121 595.682C452.111 592.852 452.111 590.032 452.121 587.212C449.831 587.202 447.54 587.202 445.25 587.202C445.25 575.282 445.25 563.372 445.25 551.442C441.33 551.442 437.41 551.442 433.5 551.442C425.98 562.972 418.48 574.512 410.95 586.032Z" fill="white"/>
<path d="M381.668 560.092C389.948 556.832 394.848 568.382 391.568 574.692C389.348 579.962 381.078 580.392 378.238 575.482C375.458 570.602 376.218 562.792 381.668 560.092Z" fill="white"/>
<path d="M419.578 587.201C424.558 579.091 430.428 571.501 434.678 562.961C434.268 571.031 434.538 579.111 434.478 587.201C429.508 587.201 424.538 587.211 419.578 587.201Z" fill="white"/>
<path d="M475.278 581.081C479.078 579.581 484.358 581.081 485.478 585.381C487.248 590.631 485.858 598.971 479.328 599.921C469.708 600.831 466.918 584.661 475.278 581.081Z" fill="white"/>
<path d="M410.788 640.814C418.018 638.824 424.298 631.774 432.298 634.284C435.128 634.884 435.668 638.714 433.878 640.644C431.748 643.074 428.718 644.704 427.148 647.624C425.638 649.844 424.948 652.914 422.338 654.174C418.258 656.344 413.628 657.154 409.458 659.124C404.548 655.144 406.238 648.464 406.458 642.994C406.448 640.644 409.158 640.864 410.788 640.814ZM412.868 644.684C411.258 646.774 413.128 649.034 414.128 650.904C417.918 649.264 421.338 646.674 423.048 642.814C419.638 641.874 415.148 641.304 412.868 644.684Z" fill="white"/>
<path d="M379.758 645.863C384.318 643.793 389.538 643.703 394.088 641.473C396.908 640.493 402.488 641.193 402.128 645.193C400.748 649.193 395.818 650.533 394.118 654.353C394.838 657.343 399.968 654.493 399.978 657.623C398.738 659.353 397.048 660.683 395.718 662.343C396.588 664.603 399.338 664.123 401.218 664.833C400.108 668.193 396.338 669.223 393.918 671.383C396.218 673.163 398.918 674.653 400.378 677.313C398.708 678.113 396.568 678.153 395.218 679.513C395.368 681.253 397.028 682.423 397.768 683.953C395.238 686.213 390.018 684.923 388.988 688.803C392.478 689.653 395.698 687.523 399.078 686.983C404.228 686.053 409.288 684.653 414.488 683.973C416.508 683.603 418.168 684.863 419.488 686.233C418.508 686.793 416.568 687.933 415.588 688.503C418.308 689.993 422.128 690.993 422.738 694.563C423.758 702.883 425.608 711.343 423.878 719.723C422.758 724.373 419.698 728.193 417.038 732.063C413.238 728.823 412.278 722.253 406.608 721.553C398.898 721.013 390.898 727.593 383.558 722.633C381.888 718.263 383.218 713.333 383.298 708.773C383.758 705.413 382.888 701.923 383.838 698.643C387.368 700.063 392.288 699.633 392.918 695.063C389.928 693.993 387.858 691.723 386.178 689.153C382.608 690.333 379.248 692.013 375.718 693.293C370.378 688.953 373.968 681.573 373.138 675.803C372.218 670.153 372.178 664.443 372.098 658.743C372.308 655.473 368.638 651.563 372.108 649.103C373.948 655.763 374.928 662.643 375.278 669.543C377.538 670.933 379.868 669.103 381.968 668.273C380.568 666.073 377.598 664.193 378.278 661.233C379.408 658.093 381.878 655.423 382.128 652.003C381.388 650.073 377.458 647.873 379.758 645.863ZM378.368 676.053C375.698 677.913 377.088 682.123 379.178 683.963C383.268 683.933 382.178 675.943 378.368 676.053ZM385.158 681.193C387.278 683.213 389.958 681.373 392.098 680.433C390.528 677.713 385.588 677.713 385.158 681.193ZM396.378 693.993C399.608 696.193 402.978 693.413 405.708 691.763C405.038 691.163 403.708 689.943 403.048 689.333C400.468 689.653 395.518 690.323 396.378 693.993ZM404.128 700.613C405.168 701.063 407.248 702.003 408.288 702.453C404.958 706.163 399.558 706.523 395.058 708.003C392.818 708.813 388.988 709.053 389.118 712.223C389.018 714.723 387.488 718.343 390.428 719.843C394.128 719.303 397.038 716.403 400.818 716.043C404.048 715.813 406.868 714.173 409.878 713.173C412.498 713.043 414.698 714.783 417.018 715.773C419.308 710.093 417.598 703.763 416.008 698.153C412.218 695.223 405.988 695.653 404.128 700.613ZM392.198 700.323C390.438 700.813 386.758 703.873 389.778 705.133C392.028 705.413 394.098 703.963 395.098 702.023C394.738 700.773 393.478 699.803 392.198 700.323Z" fill="white"/>
<path d="M505.481 653.168C506.691 651.388 506.281 647.928 508.951 647.628C512.001 647.788 514.461 649.978 516.851 651.658C515.841 652.838 514.841 654.048 513.851 655.248C515.351 657.028 516.701 658.958 518.381 660.598C521.071 660.388 523.751 659.958 526.471 659.998C526.881 658.438 526.911 656.858 526.531 655.298C524.621 655.288 522.711 655.288 520.801 655.308C524.231 652.058 527.681 648.508 532.381 647.188C534.081 648.837 537.251 650.198 536.561 653.098C536.341 657.028 532.151 658.808 530.941 662.288C529.181 667.028 527.781 671.898 525.861 676.568C530.891 679.278 538.221 676.028 541.791 681.618C542.941 684.578 544.691 689.268 541.521 691.518C535.341 691.808 528.911 692.868 522.881 690.988C521.881 689.088 525.391 687.948 524.671 685.928C517.981 684.908 510.901 685.438 504.461 687.558C498.041 690.308 490.841 691.168 485.071 695.338C482.221 696.858 481.741 700.548 479.171 702.308C475.911 701.508 475.331 697.968 474.721 695.198C473.721 691.048 476.691 687.238 479.631 684.658C481.561 686.928 485.201 689.568 487.861 686.748C488.691 680.198 486.691 673.578 487.501 667.108C487.951 667.028 488.861 666.848 489.331 666.758C490.511 669.538 491.281 672.518 492.981 675.078C494.751 670.938 492.501 667.008 491.181 663.168C490.621 661.478 490.091 658.208 492.831 658.388C497.801 661.088 496.661 667.708 497.391 672.468C497.081 674.378 498.371 675.618 500.281 675.298C499.861 671.968 500.091 668.408 498.221 665.468C499.321 664.058 500.661 662.798 501.491 661.198C501.281 659.268 499.251 657.218 500.711 655.408C502.231 654.518 503.961 654.068 505.481 653.168ZM502.971 669.238C504.591 668.818 507.371 668.418 507.061 666.118C504.871 664.288 503.941 667.898 502.971 669.238ZM514.341 670.518C516.901 670.088 519.531 669.428 521.511 667.618C521.331 667.228 520.981 666.438 520.811 666.038C517.291 663.418 515.881 668.178 514.341 670.518ZM510.711 672.998C511.481 675.898 512.361 678.768 513.401 681.598C515.411 680.598 518.771 680.818 519.301 678.108C517.871 674.828 513.661 674.298 510.711 672.998ZM504.731 679.858C503.681 680.178 502.761 680.768 501.991 681.608C502.961 684.548 507.771 683.538 507.671 680.468C506.721 679.988 505.751 679.788 504.731 679.858Z" fill="white"/>
<path d="M413.296 662.031C416.926 660.121 419.856 655.591 424.506 657.111C426.436 656.961 427.976 659.331 427.046 661.051C425.446 664.291 422.956 667.031 421.426 670.341C428.296 671.601 437.746 672.461 439.956 680.521C431.686 683.181 423.626 678.981 415.476 677.941C411.196 676.661 407.556 680.551 403.336 680.131C403.296 678.251 404.896 677.051 405.876 675.651C404.706 674.101 403.506 672.571 402.406 670.991C405.286 670.931 408.156 671.301 411.036 671.161C412.856 670.501 413.466 668.541 412.386 666.941C410.476 667.021 408.566 667.151 406.666 667.301C407.166 663.971 411.026 663.721 413.296 662.031Z" fill="white"/>
<path d="M303.98 662.808C308.25 659.368 314.78 659.948 318.97 663.228C320.19 664.268 321.43 666.238 320.22 667.758C315.97 672.538 310.57 676.588 308 682.628L308.26 683.918C311.42 683.258 314.75 682.868 317.68 681.448C319.54 677.898 316.99 672.978 320.39 670.188C324.82 672.588 329.8 674.778 333.03 678.758C336.06 683.078 331.12 687.518 327.19 688.668C325.48 687.508 324.14 685.768 322.2 684.988C317.87 685.348 314.35 688.178 310.47 689.888C305.93 691.868 302.28 695.728 297.3 696.648C294.71 696.798 294.45 693.708 294.73 691.838C294.96 687.868 297.65 684.768 299.32 681.348C301.25 677.198 303.84 673.338 305.23 668.958C306.04 666.828 304.54 664.778 303.98 662.808Z" fill="white"/>
<path d="M174.906 671.548C180.046 668.648 185.766 666.658 191.576 665.658C194.076 664.838 195.006 667.748 195.566 669.558C196.656 671.588 193.936 672.498 192.696 673.538C187.806 677.048 181.156 678.058 177.556 683.258C175.926 685.148 176.306 687.728 176.386 690.008C181.836 687.998 186.666 684.158 192.656 683.698C195.256 685.848 192.686 689.348 190.286 690.348C186.786 692.948 180.806 695.338 181.126 700.348C187.046 701.538 190.156 693.198 196.186 695.408C198.216 695.818 198.826 698.428 197.256 699.748C192.826 703.928 187.166 706.468 181.806 709.248C179.486 710.638 176.026 712.668 177.476 715.898C180.966 715.888 184.016 713.788 187.206 712.608C192.166 710.258 197.656 709.078 202.246 705.998C206.256 703.458 211.476 701.078 216.006 703.818C218.726 705.038 216.616 708.718 214.246 708.768C209.516 709.978 203.636 711.448 201.646 716.458C199.976 720.918 196.956 724.668 194.976 728.978C204.636 731.458 213.576 736.278 223.536 737.688C228.466 738.378 233.296 739.688 238.086 741.018C239.706 742.078 237.716 744.078 237.006 745.158C232.076 749.078 225.886 753.328 219.376 752.608C211.346 747.878 204.286 740.948 195.076 738.358C192.316 737.568 189.946 735.718 187.086 735.278C184.726 734.908 182.376 734.398 180.406 732.978C181.976 730.478 184.066 728.318 186.836 727.158C190.126 725.938 190.926 722.268 191.616 719.248C187.046 718.468 183.246 721.548 178.986 722.568C176.926 723.118 173.946 724.198 174.646 726.968C175.446 733.358 175.946 739.798 177.176 746.138C178.566 747.558 180.556 746.818 181.906 745.808C185.146 743.728 188.356 741.018 192.436 741.118C189.786 747.928 184.176 752.728 179.576 758.168C177.716 760.078 176.076 762.308 173.816 763.808C171.616 765.238 169.116 763.918 166.886 763.338C165.986 759.008 165.946 754.478 167.116 750.208C168.436 745.638 168.386 740.838 168.586 736.128C168.546 733.988 168.846 731.158 166.616 729.978C164.316 729.758 162.456 731.228 160.746 732.538C156.916 735.558 152.516 737.748 148.126 739.838C146.106 733.338 151.886 725.148 158.986 726.368C162.036 724.728 165.606 723.828 168.146 721.378C165.026 714.668 167.726 707.068 164.916 700.288C162.666 694.648 160.106 689.138 157.186 683.808C156.656 681.368 157.606 678.478 159.546 676.888C161.726 675.818 164.276 676.068 166.626 675.728C170.006 675.868 172.146 672.938 174.906 671.548Z" fill="white"/>
<path d="M263.703 671.383C264.693 670.173 265.913 668.173 267.773 668.683C273.373 669.893 279.033 671.493 283.883 674.643C284.213 677.403 285.933 681.113 282.943 683.043C279.693 683.873 275.863 685.873 272.773 683.593C270.863 682.393 268.523 681.753 267.013 680.053C265.403 677.393 264.353 674.393 263.703 671.383Z" fill="white"/>
<path d="M621.934 677.853C626.744 676.163 631.934 674.493 637.004 676.133C639.484 677.923 642.064 682.033 639.504 684.753C638.974 685.983 636.474 687.453 638.504 688.513C642.854 688.733 647.674 687.443 651.604 690.003C653.624 691.383 656.874 692.993 656.274 695.953C655.254 699.153 651.364 698.943 648.664 699.113C644.054 698.963 639.924 701.473 635.374 701.663C635.554 699.463 637.224 697.803 638.064 695.843C632.744 696.023 627.654 697.613 622.524 698.853C618.024 700.033 614.474 703.383 610.034 704.703C607.554 705.323 603.744 703.933 604.014 700.903C604.984 694.863 609.984 690.563 614.304 686.763C615.554 688.413 616.554 690.253 617.944 691.823C620.174 691.983 622.564 691.573 624.574 690.513C626.114 685.853 622.194 682.113 621.934 677.853Z" fill="white"/>
<path d="M587.647 686.174C592.417 683.234 597.147 678.414 603.237 679.334C606.437 679.634 607.267 683.924 605.447 686.134C603.517 688.414 600.677 689.854 599.197 692.514C596.707 696.994 595.467 702.604 597.587 707.484C599.167 711.084 599.217 715.374 597.367 718.894C596.217 720.454 594.187 722.944 592.177 721.134C589.147 718.684 587.657 714.894 584.937 712.164C582.347 712.084 582.927 715.074 582.497 716.814C581.617 722.924 580.167 728.934 579.927 735.144C579.347 739.454 578.057 744.804 573.667 746.674C570.297 746.964 570.017 742.904 569.657 740.534C568.567 735.694 572.337 731.724 573.237 727.184C575.797 713.494 581.637 699.674 578.447 685.574C580.037 684.474 581.587 682.754 583.707 682.974C585.107 683.894 586.347 685.074 587.647 686.174ZM586.147 689.264C584.767 694.004 584.417 698.984 584.157 703.904C585.767 706.094 588.637 709.264 591.627 707.784C591.097 703.194 591.217 698.574 591.067 693.974C591.417 691.044 588.097 690.384 586.147 689.264Z" fill="white"/>
<path d="M492.51 695.442C500.64 696.912 507.46 689.962 515.59 691.442C518.22 691.392 519.77 694.053 519.75 696.413C520.21 701.863 510.9 699.433 512.07 705.263C515.48 704.743 518.94 704.463 522.39 704.713C523.61 706.433 526 708.473 524.23 710.673C519.89 711.343 515.48 711.723 511.29 713.163C510.9 719.013 511.48 725.263 508.69 730.643C507.29 733.743 505.13 736.433 503.06 739.103C501.54 739.273 500.02 739.453 498.5 739.643C494.66 736.473 491.12 732.943 488.18 728.923C491.81 728.153 496.93 731.823 499.21 727.723C500.66 724.213 501.31 720.463 502.23 716.813C501.46 716.133 500.7 715.463 499.95 714.803C496.3 716.023 491.59 716.612 488.75 713.452C489.76 707.832 497.31 711.593 499.97 707.733C500.41 705.893 499.97 704.003 499.88 702.173C497.02 702.463 493.9 703.953 491.17 702.533C489.05 700.263 491.01 697.402 492.51 695.442ZM502.13 702.213C504.35 702.003 508.45 702.463 508.35 699.183C505.92 697.023 503.3 700.193 502.13 702.213Z" fill="white"/>
<path d="M266.683 693.031C270.933 693.281 275.423 693.311 279.393 694.981C282.513 697.811 280.853 702.991 277.823 705.281C275.323 707.081 274.833 710.051 275.573 712.911C280.203 709.891 284.553 706.371 289.823 704.461C288.423 710.671 283.683 715.161 280.123 720.171C275.843 725.601 272.773 732.491 266.273 735.701C264.343 736.671 261.143 737.181 260.083 734.741C259.873 729.791 262.253 725.031 265.993 721.871C269.003 719.251 271.483 716.061 272.893 712.301C272.443 707.101 268.593 703.601 265.493 699.851C263.603 697.821 264.543 694.451 266.683 693.031Z" fill="white"/>
<path d="M319.692 697.152C324.062 694.582 330.632 695.702 333.282 700.212C334.742 703.292 333.102 706.292 331.372 708.832C328.772 712.312 333.052 718.232 328.052 720.262C322.082 724.732 314.152 721.212 307.972 725.002C306.272 725.512 303.622 727.942 302.792 725.112C301.842 721.272 302.712 717.272 302.082 713.392C301.472 709.942 299.452 707.022 297.812 704.012C300.922 701.092 305.032 702.332 308.712 703.122C312.802 702.192 315.882 698.862 319.692 697.152ZM309.512 709.722C308.062 711.462 309.392 713.692 309.802 715.562C310.332 714.962 311.392 713.782 311.922 713.172C316.892 713.252 324.442 710.242 322.592 704.032C317.932 704.792 312.532 705.682 309.512 709.722Z" fill="white"/>
<path d="M611.773 712.059C617.223 709.079 623.453 707.759 629.483 706.469C633.573 706.449 633.643 711.409 631.093 713.589C631.693 715.369 632.933 717.049 632.813 718.999C631.533 722.779 626.233 723.439 625.403 727.429C625.213 730.929 624.333 735.439 627.753 737.759C632.293 740.569 637.773 740.959 642.973 741.409C647.383 741.209 651.793 738.419 653.443 734.229C654.323 732.779 654.603 730.619 656.593 730.229C657.203 734.479 656.993 738.799 656.863 743.099C656.753 747.709 652.053 751.249 647.643 751.059C643.013 750.999 638.493 749.959 633.943 749.249C629.313 748.169 624.053 747.389 621.093 743.209C618.273 740.189 619.423 735.779 618.103 732.209L617.003 732.069C610.083 735.929 603.023 742.099 594.633 740.829C599.063 735.199 607.193 734.389 611.383 728.479C609.513 727.299 605.073 725.559 608.133 722.959C611.033 720.749 615.363 722.599 618.593 720.639C621.833 719.309 626.043 718.359 627.263 714.579C623.513 714.769 619.693 717.219 616.043 715.439C614.363 714.669 613.133 713.229 611.773 712.059Z" fill="white"/>
<path d="M403.487 708.028C405.707 706.168 409.377 707.768 408.567 710.838C403.007 712.678 397.317 714.638 391.437 715.038L391.047 713.388C394.837 710.848 399.407 709.968 403.487 708.028Z" fill="white"/>
<path d="M342.281 762.422C386.881 759.492 431.661 759.372 476.251 762.362C454.731 774.712 432.091 785.042 408.941 793.942C386.131 784.752 363.731 774.482 342.281 762.422Z" fill="white"/>
<path d="M394.987 8.22101C400.107 5.71901 405.087 2.945 409.977 0C424.997 9.096 441.227 16.055 457.757 21.911C483.697 30.951 510.897 36.647 538.367 37.898C558.147 38.933 577.887 36.6931 597.567 35.0891C635.257 31.542 672.887 26.891 709.947 19.114C730.807 49.723 747.357 83.085 761.707 117.173C797.497 203.362 815.877 297.147 812.137 390.549C809.567 461.829 793.187 532.229 766.857 598.399C757.477 622.039 746.727 645.119 734.647 667.489C740.627 669.119 746.597 670.799 752.537 672.559C736.927 716.819 720.627 760.849 704.787 805.039C688.747 799.159 672.377 794.249 655.847 790.019C653.417 789.409 650.967 788.789 648.547 788.189C604.917 835.439 553.447 875.309 497.167 906.389C468.697 922.209 438.957 935.659 408.537 947.289C373.587 933.249 339.287 917.399 306.757 898.339C256.027 868.829 209.537 831.889 169.907 788.569C167.967 789.049 166.027 789.529 164.087 790.019C147.557 794.229 131.187 799.159 115.157 805.039C99.2868 760.859 83.0667 716.809 67.3667 672.579C73.1367 670.849 78.9367 669.239 84.7567 667.649C64.7267 630.009 48.5168 590.379 35.8068 549.699C18.5568 495.309 8.83674 438.519 7.51674 381.459C4.90674 272.245 31.9267 162.94 82.0867 66.097C90.6467 49.951 99.5367 33.907 110.207 19.046C155.357 28.688 201.397 33.566 247.377 37.147C298.047 41.741 349.427 30.359 394.987 8.22101ZM244.977 52.35C202.147 49.052 159.337 44.379 117.157 36.158C100.717 61.39 87.2868 88.486 75.2767 116.071C39.0267 200.52 20.0168 292.735 22.9068 384.739C24.5268 439.529 34.1167 494.019 50.7767 546.229C63.4667 586.759 79.8468 626.129 99.9068 663.559C133.417 655.269 167.007 647.209 200.967 640.979C181.837 613.509 165.627 584.019 152.837 553.059C136.927 514.449 125.117 473.979 119.837 432.489C110.487 361.099 119.847 287.755 144.197 220.134C156.057 187.557 170.767 155.799 190.077 126.941C223.927 133.695 258.307 137.436 292.717 139.903C298.027 140.142 303.377 140.836 308.677 140.199C315.307 136.708 321.777 132.842 328.497 129.488C344.017 120.505 359.427 111.215 375.937 104.143C383.087 101.141 390.597 98.287 398.497 98.5031C425.047 98.2531 451.697 98.912 478.037 102.574C483.557 103.665 489.567 103.95 494.507 106.86C496.287 111.306 494.557 116.161 493.837 120.664C500.957 119.129 508.517 119.129 515.267 116.207C518.657 114.877 520.867 111.852 522.277 108.611C525.957 109.214 529.637 109.862 533.317 110.533C532.167 114.808 530.077 118.754 527.067 122.006C530.437 124.417 533.167 127.623 534.897 131.421C531.417 132.637 527.917 133.82 524.437 135.003C522.587 133.035 520.627 130.886 517.827 130.409C508.487 128.374 499.137 131.694 489.877 132.797C489.087 134.775 488.267 136.754 487.457 138.743C511.147 142.211 535.047 139.46 558.697 137.243C582.547 134.798 606.357 131.705 629.867 126.941C641.667 144.326 651.457 163.008 660.257 182.065C694.077 256.11 709.747 338.959 701.517 420.149C697.137 465.049 685.157 508.979 667.977 550.609C654.807 582.419 638.117 612.809 618.087 640.819C652.037 646.969 685.607 655.129 719.107 663.279C725.567 653.099 730.497 641.969 735.887 631.189C768.737 561.369 790.407 485.839 795.807 408.719C802.277 319.922 787.947 230.094 756.967 146.782C742.617 108.339 724.947 71.043 703.087 36.272C667.477 42.89 631.497 47.483 595.427 50.69C575.027 52.395 554.537 54.453 534.047 53.021C490.817 50.269 448.287 37.852 409.967 17.715C359.617 44.095 301.837 57.626 244.977 52.35ZM429.567 110.476C431.247 114.069 434.497 116.343 438.087 117.765C438.127 120.585 437.947 123.803 440.147 125.963C443.377 129.852 450.047 129.59 452.987 125.474C454.817 123.348 454.517 120.414 454.667 117.81C461.287 117.685 467.917 117.583 474.527 117.082C471.197 113.91 466.647 113.046 462.217 113C451.327 112.318 440.467 111.204 429.567 110.476ZM191.767 131.216C178.307 151.706 167.237 173.685 157.637 196.21C127.897 266.435 114.507 343.979 122.247 420.019C126.607 464.489 138.587 507.969 155.427 549.279C168.537 581.329 185.127 611.989 205.217 640.199C293.587 623.849 383.877 616.839 473.637 622.569C520.687 625.519 567.517 631.579 613.877 640.049C646.877 594.529 670.457 542.539 685.137 488.369C696.007 448.009 700.907 406.069 699.657 364.289C698.267 316.443 688.947 268.936 673.027 223.829C661.477 191.48 646.977 160.018 628.167 131.216C606.387 135.457 584.377 138.414 562.327 140.733C537.777 142.996 512.967 146.202 488.367 142.655C482.297 141.575 476.317 143.61 470.617 145.452C453.867 151.319 438.167 159.768 421.427 165.646C414.097 168.182 406.437 170.388 398.577 169.967C391.117 169.614 383.647 170.672 376.457 172.662C359.487 177.199 344.737 187.114 329.487 195.46C318.187 202.248 308.007 213.88 308.557 227.843C308.567 238.736 315.077 247.833 321.107 256.326C313.397 252.278 305.597 248.424 297.897 244.376C289.467 239.555 284.127 229.515 285.107 219.804C286.187 205.079 287.027 190.32 288.167 175.595C289.127 163.736 294.207 152.047 303.367 144.247C265.947 142.393 228.597 138.164 191.767 131.216ZM410.787 640.809C409.157 640.859 406.447 640.639 406.457 642.989C406.237 648.459 404.547 655.139 409.457 659.119C413.627 657.149 418.257 656.339 422.337 654.169C424.947 652.909 425.637 649.839 427.147 647.619C428.717 644.699 431.747 643.069 433.877 640.639C435.667 638.709 435.127 634.879 432.297 634.279C424.297 631.769 418.017 638.819 410.787 640.809ZM379.757 645.859C377.457 647.869 381.387 650.069 382.127 651.999C381.877 655.419 379.407 658.089 378.277 661.229C377.597 664.189 380.567 666.069 381.967 668.269C379.867 669.099 377.537 670.929 375.277 669.539C374.927 662.639 373.947 655.759 372.107 649.099C368.637 651.559 372.307 655.469 372.097 658.739C372.177 664.439 372.217 670.149 373.137 675.799C373.967 681.569 370.377 688.949 375.717 693.289C379.247 692.009 382.607 690.329 386.177 689.149C387.857 691.719 389.927 693.989 392.917 695.059C392.287 699.629 387.367 700.059 383.837 698.639C382.887 701.919 383.757 705.409 383.297 708.769C383.217 713.329 381.887 718.259 383.557 722.629C390.897 727.589 398.897 721.009 406.607 721.549C412.277 722.249 413.237 728.819 417.037 732.059C419.697 728.189 422.757 724.369 423.877 719.719C425.607 711.339 423.757 702.879 422.737 694.559C422.127 690.989 418.307 689.989 415.587 688.499C416.567 687.929 418.507 686.789 419.487 686.229C418.167 684.859 416.507 683.599 414.487 683.969C409.287 684.649 404.227 686.049 399.077 686.979C395.697 687.519 392.477 689.649 388.987 688.799C390.017 684.919 395.237 686.209 397.767 683.949C397.027 682.419 395.367 681.249 395.217 679.509C396.567 678.149 398.707 678.109 400.377 677.309C398.917 674.649 396.217 673.159 393.917 671.379C396.337 669.219 400.107 668.189 401.217 664.829C399.337 664.119 396.587 664.599 395.717 662.339C397.047 660.679 398.737 659.349 399.977 657.619C399.967 654.489 394.837 657.339 394.117 654.349C395.817 650.529 400.747 649.189 402.127 645.189C402.487 641.189 396.907 640.489 394.087 641.469C389.537 643.699 384.317 643.789 379.757 645.859ZM505.477 653.169C503.957 654.069 502.227 654.519 500.707 655.409C499.247 657.219 501.277 659.269 501.487 661.199C500.657 662.799 499.317 664.059 498.217 665.469C500.087 668.409 499.857 671.969 500.277 675.299C498.367 675.619 497.077 674.379 497.387 672.469C496.657 667.709 497.797 661.089 492.827 658.389C490.087 658.209 490.617 661.479 491.177 663.169C492.497 667.009 494.747 670.939 492.977 675.079C491.277 672.519 490.507 669.539 489.327 666.759C488.857 666.849 487.947 667.029 487.497 667.109C486.687 673.579 488.687 680.199 487.857 686.749C485.197 689.569 481.557 686.929 479.627 684.659C476.687 687.239 473.717 691.049 474.717 695.199C475.327 697.969 475.907 701.509 479.167 702.309C481.737 700.549 482.217 696.859 485.067 695.339C490.837 691.169 498.037 690.309 504.457 687.559C510.897 685.439 517.977 684.909 524.667 685.929C525.387 687.949 521.877 689.089 522.877 690.989C528.907 692.869 535.337 691.809 541.517 691.519C544.687 689.269 542.937 684.579 541.787 681.619C538.217 676.029 530.887 679.279 525.857 676.569C527.777 671.899 529.177 667.029 530.937 662.289C532.147 658.809 536.337 657.029 536.557 653.099C537.247 650.199 534.077 648.839 532.377 647.189C527.677 648.509 524.227 652.059 520.797 655.309C522.707 655.289 524.617 655.289 526.527 655.299C526.907 656.859 526.877 658.439 526.467 659.999C523.747 659.959 521.067 660.389 518.377 660.599C516.697 658.959 515.347 657.029 513.847 655.249C514.837 654.049 515.837 652.839 516.847 651.659C514.457 649.979 511.997 647.789 508.947 647.629C506.277 647.929 506.687 651.389 505.477 653.169ZM413.297 662.029C411.027 663.719 407.167 663.969 406.667 667.299C408.567 667.149 410.477 667.019 412.387 666.939C413.467 668.539 412.857 670.499 411.037 671.159C408.157 671.299 405.287 670.929 402.407 670.989C403.507 672.569 404.707 674.099 405.877 675.649C404.897 677.049 403.297 678.249 403.337 680.129C407.557 680.549 411.197 676.659 415.477 677.939C423.627 678.979 431.687 683.179 439.957 680.519C437.747 672.459 428.297 671.599 421.427 670.339C422.957 667.029 425.447 664.289 427.047 661.049C427.977 659.329 426.437 656.959 424.507 657.109C419.857 655.589 416.927 660.119 413.297 662.029ZM303.977 662.809C304.537 664.779 306.037 666.829 305.227 668.959C303.837 673.339 301.247 677.199 299.317 681.349C297.647 684.769 294.957 687.869 294.727 691.839C294.447 693.709 294.707 696.799 297.297 696.649C302.277 695.729 305.927 691.869 310.467 689.889C314.347 688.179 317.867 685.349 322.197 684.989C324.137 685.769 325.477 687.509 327.187 688.669C331.117 687.519 336.057 683.079 333.027 678.759C329.797 674.779 324.817 672.589 320.387 670.189C316.987 672.979 319.537 677.899 317.677 681.449C314.747 682.869 311.417 683.259 308.257 683.919L307.997 682.629C310.567 676.589 315.967 672.539 320.217 667.759C321.427 666.239 320.187 664.269 318.967 663.229C314.777 659.949 308.247 659.369 303.977 662.809ZM174.907 671.549C172.147 672.939 170.007 675.869 166.627 675.729C164.277 676.069 161.727 675.819 159.547 676.889C157.607 678.479 156.657 681.369 157.187 683.809C160.107 689.139 162.667 694.649 164.917 700.289C167.727 707.069 165.027 714.669 168.147 721.379C165.607 723.829 162.037 724.729 158.987 726.369C151.887 725.149 146.107 733.339 148.127 739.839C152.517 737.749 156.917 735.559 160.747 732.539C162.457 731.229 164.317 729.759 166.617 729.979C168.847 731.159 168.547 733.989 168.587 736.129C168.387 740.839 168.437 745.639 167.117 750.209C165.947 754.479 165.987 759.009 166.887 763.339C169.117 763.919 171.617 765.239 173.817 763.809C176.077 762.309 177.717 760.079 179.577 758.169C184.177 752.729 189.787 747.929 192.437 741.119C188.357 741.019 185.147 743.729 181.907 745.809C180.557 746.819 178.567 747.559 177.177 746.139C175.947 739.799 175.447 733.359 174.647 726.969C173.947 724.199 176.927 723.119 178.987 722.569C183.247 721.549 187.047 718.469 191.617 719.249C190.927 722.269 190.127 725.939 186.837 727.159C184.067 728.319 181.977 730.479 180.407 732.979C182.377 734.399 184.727 734.909 187.087 735.279C189.947 735.719 192.317 737.569 195.077 738.359C204.287 740.949 211.347 747.879 219.377 752.609C225.887 753.329 232.077 749.079 237.007 745.159C237.717 744.079 239.707 742.079 238.087 741.019C233.297 739.689 228.467 738.379 223.537 737.689C213.577 736.279 204.637 731.459 194.977 728.979C196.957 724.669 199.977 720.919 201.647 716.459C203.637 711.449 209.517 709.979 214.247 708.769C216.617 708.719 218.727 705.039 216.007 703.819C211.477 701.079 206.257 703.459 202.247 705.999C197.657 709.079 192.167 710.259 187.207 712.609C184.017 713.789 180.967 715.889 177.477 715.899C176.027 712.669 179.487 710.639 181.807 709.249C187.167 706.469 192.827 703.929 197.257 699.749C198.827 698.429 198.217 695.819 196.187 695.409C190.157 693.199 187.047 701.539 181.127 700.349C180.807 695.339 186.787 692.949 190.287 690.349C192.687 689.349 195.257 685.849 192.657 683.699C186.667 684.159 181.837 687.999 176.387 690.009C176.307 687.729 175.927 685.149 177.557 683.259C181.157 678.059 187.807 677.049 192.697 673.539C193.937 672.499 196.657 671.589 195.567 669.559C195.007 667.749 194.077 664.839 191.577 665.659C185.767 666.659 180.047 668.649 174.907 671.549ZM263.697 671.379C264.347 674.389 265.397 677.389 267.007 680.049C268.517 681.749 270.857 682.389 272.767 683.589C275.857 685.869 279.687 683.869 282.937 683.039C285.927 681.109 284.207 677.399 283.877 674.639C279.027 671.489 273.367 669.889 267.767 668.679C265.907 668.169 264.687 670.169 263.697 671.379ZM621.927 677.849C622.187 682.109 626.107 685.849 624.567 690.509C622.557 691.569 620.167 691.979 617.937 691.819C616.547 690.249 615.547 688.409 614.297 686.759C609.977 690.559 604.977 694.859 604.007 700.899C603.737 703.929 607.547 705.319 610.027 704.699C614.467 703.379 618.017 700.029 622.517 698.849C627.647 697.609 632.737 696.019 638.057 695.839C637.217 697.799 635.547 699.459 635.367 701.659C639.917 701.469 644.047 698.959 648.657 699.109C651.357 698.939 655.247 699.149 656.267 695.949C656.867 692.989 653.617 691.379 651.597 689.999C647.667 687.439 642.847 688.729 638.497 688.509C636.467 687.449 638.967 685.979 639.497 684.749C642.057 682.029 639.477 677.919 636.997 676.129C631.927 674.489 626.737 676.159 621.927 677.849ZM587.647 686.169C586.347 685.069 585.107 683.889 583.707 682.969C581.587 682.749 580.037 684.469 578.447 685.569C581.637 699.669 575.797 713.489 573.237 727.179C572.337 731.719 568.567 735.689 569.657 740.529C570.017 742.899 570.297 746.959 573.667 746.669C578.057 744.799 579.347 739.449 579.927 735.139C580.167 728.929 581.617 722.919 582.497 716.809C582.927 715.069 582.347 712.079 584.937 712.159C587.657 714.889 589.147 718.679 592.177 721.129C594.187 722.939 596.217 720.449 597.367 718.889C599.217 715.369 599.167 711.079 597.587 707.479C595.467 702.599 596.707 696.989 599.197 692.509C600.677 689.849 603.517 688.409 605.447 686.129C607.267 683.919 606.437 679.629 603.237 679.329C597.147 678.409 592.417 683.229 587.647 686.169ZM492.507 695.439C491.007 697.399 489.047 700.259 491.167 702.529C493.897 703.949 497.017 702.459 499.877 702.169C499.967 703.999 500.407 705.889 499.967 707.729C497.307 711.589 489.757 707.829 488.747 713.449C491.587 716.609 496.297 716.019 499.947 714.799C500.697 715.459 501.457 716.129 502.227 716.809C501.307 720.459 500.657 724.209 499.207 727.719C496.927 731.819 491.807 728.149 488.177 728.919C491.117 732.939 494.657 736.469 498.497 739.639C500.017 739.449 501.537 739.269 503.057 739.099C505.127 736.429 507.287 733.739 508.687 730.639C511.477 725.259 510.897 719.009 511.287 713.159C515.477 711.719 519.887 711.339 524.227 710.669C525.997 708.469 523.607 706.429 522.387 704.709C518.937 704.459 515.477 704.739 512.067 705.259C510.897 699.429 520.207 701.859 519.747 696.409C519.767 694.049 518.217 691.389 515.587 691.439C507.457 689.959 500.637 696.909 492.507 695.439ZM266.677 693.029C264.537 694.449 263.597 697.819 265.487 699.849C268.587 703.599 272.437 707.099 272.887 712.299C271.477 716.059 268.997 719.249 265.987 721.869C262.247 725.029 259.867 729.789 260.077 734.739C261.137 737.179 264.337 736.669 266.267 735.699C272.767 732.489 275.837 725.599 280.117 720.169C283.677 715.159 288.417 710.669 289.817 704.459C284.547 706.369 280.197 709.889 275.567 712.909C274.827 710.049 275.317 707.079 277.817 705.279C280.847 702.989 282.507 697.809 279.387 694.979C275.417 693.309 270.927 693.279 266.677 693.029ZM319.687 697.149C315.877 698.859 312.797 702.189 308.707 703.119C305.027 702.329 300.917 701.089 297.807 704.009C299.447 707.019 301.467 709.939 302.077 713.389C302.707 717.269 301.837 721.269 302.787 725.109C303.617 727.939 306.267 725.509 307.967 724.999C314.147 721.209 322.077 724.729 328.047 720.259C333.047 718.229 328.767 712.309 331.367 708.829C333.097 706.289 334.737 703.289 333.277 700.209C330.627 695.699 324.057 694.579 319.687 697.149ZM611.767 712.059C613.127 713.229 614.357 714.669 616.037 715.439C619.687 717.219 623.507 714.769 627.257 714.579C626.037 718.359 621.827 719.309 618.587 720.639C615.357 722.599 611.027 720.749 608.127 722.959C605.067 725.559 609.507 727.299 611.377 728.479C607.187 734.389 599.057 735.199 594.627 740.829C603.017 742.099 610.077 735.929 616.997 732.069L618.097 732.209C619.417 735.779 618.267 740.189 621.087 743.209C624.047 747.389 629.307 748.169 633.937 749.249C638.487 749.959 643.007 750.999 647.637 751.059C652.047 751.249 656.747 747.709 656.857 743.099C656.987 738.799 657.197 734.479 656.587 730.229C654.597 730.619 654.317 732.779 653.437 734.229C651.787 738.419 647.377 741.209 642.967 741.409C637.767 740.959 632.287 740.569 627.747 737.759C624.327 735.439 625.207 730.929 625.397 727.429C626.227 723.439 631.527 722.779 632.807 718.999C632.927 717.049 631.687 715.369 631.087 713.589C633.637 711.409 633.567 706.449 629.477 706.469C623.447 707.759 617.217 709.079 611.767 712.059ZM342.277 762.419C363.727 774.479 386.127 784.749 408.937 793.939C432.087 785.039 454.727 774.709 476.247 762.359C431.657 759.369 386.877 759.489 342.277 762.419ZM187.037 784.429C222.977 822.499 264.417 855.309 309.387 882.089C341.047 901.049 374.477 916.929 408.657 930.819C434.327 920.789 459.457 909.379 483.697 896.289C538.347 866.859 588.577 829.099 631.367 784.089C583.567 773.269 534.897 766.549 486.037 762.969C483.957 762.559 482.047 763.439 480.317 764.479C457.507 777.669 433.507 788.709 408.887 798.049C384.727 788.329 360.927 777.539 338.327 764.529C336.587 763.479 334.657 762.669 332.607 763.059C283.657 766.709 234.897 773.519 187.037 784.429Z" fill="#1959B1"/>
<path d="M58.3089 225.648C61.1589 214.129 70.8888 204.658 82.4888 202.111C95.8788 199.257 111.159 205.215 117.949 217.381C125.719 230.037 122.849 247.502 112.469 257.826C109.709 261.579 104.849 258.099 101.259 257.815C106.589 254.199 111.639 249.628 113.729 243.34C117.159 234.687 115.219 224.226 108.849 217.449C103.399 211.434 95.0089 208.66 87.0389 209.035C75.7989 209.695 65.8989 218.939 64.2789 230.037C62.8289 237.212 65.3588 244.455 69.3388 250.367C66.1688 249.583 62.9988 248.844 59.8388 248.093C57.1888 240.964 56.2989 233.061 58.3089 225.648Z" fill="#1959B1"/>
<path d="M762.393 229.857C764.613 229.391 766.833 228.936 769.073 228.469C771.263 239.135 773.443 249.801 775.673 260.455C755.493 264.696 735.273 268.699 715.113 273.008C712.783 262.354 710.683 251.643 708.453 240.966C710.633 240.511 712.833 240.056 715.033 239.613C716.743 247.879 718.443 256.145 720.163 264.401C725.973 263.218 731.773 262.013 737.583 260.807C735.893 252.53 734.153 244.263 732.473 235.985C734.703 235.542 736.923 235.099 739.163 234.655C740.873 242.922 742.533 251.199 744.303 259.443C752.033 257.817 759.783 256.271 767.513 254.645C765.793 246.39 764.103 238.123 762.393 229.857Z" fill="#1959B1"/>
<path d="M52.0818 259.719C72.5218 262.698 92.9518 265.688 113.372 268.679C113.012 271.101 112.652 273.523 112.302 275.945C104.442 274.808 96.5918 273.648 88.7318 272.511C87.1818 283.392 85.4818 294.251 84.0219 305.144C91.8718 306.179 99.6919 307.396 107.542 308.533C107.162 311.011 106.802 313.49 106.432 315.969C86.0119 312.99 65.5919 310.034 45.1719 306.998C45.5519 304.519 45.9219 302.051 46.2819 299.573C56.5419 301.051 66.8019 302.609 77.0619 304.041C78.6219 293.194 80.2118 282.358 81.8218 271.521C71.5718 269.964 61.3019 268.508 51.0619 266.996C51.3919 264.563 51.7418 262.141 52.0818 259.719Z" fill="#1959B1"/>
<path d="M746.153 275.154C756.853 273.357 769.103 275.723 776.163 284.569C785.723 296.804 786.053 316.509 774.743 327.777C761.373 341.077 735.913 340.787 724.363 325.219C715.173 312.222 715.453 291.755 728.303 281.169C730.143 283.011 732.003 284.853 733.863 286.695C730.413 289.845 727.053 293.427 725.773 298.054C723.083 307.378 725.943 318.601 734.003 324.434C741.093 329.835 750.783 330.367 759.143 328.084C767.593 325.787 774.603 318.51 776.063 309.8C777.553 301.249 774.823 291.528 767.553 286.309C763.623 283.17 758.523 282.329 753.663 282.01C754.243 287.98 755.003 293.938 755.493 299.919C753.313 300.101 751.133 300.294 748.973 300.488C748.043 292.039 747.183 283.58 746.153 275.154Z" fill="#1959B1"/>
<path d="M544.347 306.883C550.167 312.489 554.277 319.982 554.587 328.169C555.437 344.382 555.647 360.622 556.227 376.832C556.697 382.152 554.027 387.412 549.507 390.232C452.647 446.692 355.837 503.312 258.977 559.822C261.087 541.582 263.217 523.352 265.337 505.132C266.357 496.602 266.787 487.712 270.827 479.932C274.317 472.782 280.627 467.512 287.397 463.572C355.837 424.802 424.087 385.722 492.587 347.052C505.477 339.762 518.327 332.392 531.477 325.531C536.147 322.927 541.097 320.096 544.017 315.434C545.717 312.852 544.657 309.691 544.347 306.883Z" fill="#1959B1"/>
<path d="M44.439 313.773C65.569 323.848 86.6791 333.942 107.799 344.042C86.0491 352.722 64.2991 361.372 42.5391 370.022C42.6191 367.362 42.709 364.712 42.819 362.052C49.179 359.622 55.5191 357.092 61.9291 354.792C62.4891 346.672 62.589 338.532 62.869 330.412C56.839 327.486 50.5491 325.03 44.6691 321.801C43.6691 319.413 44.599 316.389 44.439 313.773ZM69.139 332.852C68.919 339.422 68.699 345.982 68.479 352.562C76.179 349.532 83.8791 346.552 91.5491 343.472C84.0691 339.952 76.609 336.392 69.139 332.852Z" fill="#1959B1"/>
<path d="M723.08 343.273C725.32 343.283 727.57 343.303 729.84 343.333C729.76 351.763 729.66 360.203 729.58 368.633C735.5 368.683 741.42 368.753 747.35 368.793C747.43 360.363 747.51 351.933 747.61 343.493C749.87 343.523 752.16 343.543 754.44 343.573C754.36 352.003 754.27 360.443 754.19 368.873C762.12 368.943 770.05 369.083 777.99 369.073C777.98 360.643 778.12 352.233 778.2 343.803C780.47 343.823 782.76 343.843 785.04 343.873C784.93 354.753 784.82 365.643 784.72 376.543C764.06 376.333 743.41 376.143 722.75 375.933C722.86 365.043 722.96 354.163 723.08 343.273Z" fill="#1959B1"/>
<path d="M42.1484 376.958C63.5184 375.208 84.8984 373.428 106.278 371.688C91.1084 388.108 75.8884 404.468 60.7184 420.888C76.3484 419.628 91.9584 418.308 107.588 417.048C107.778 419.378 107.958 421.718 108.148 424.068C86.7684 425.818 65.4085 427.588 44.0385 429.318C59.0285 412.908 74.0884 396.568 89.0684 380.178C73.6184 381.408 58.1784 382.708 42.7284 383.968C42.5184 381.628 42.3384 379.288 42.1484 376.958Z" fill="#1959B1"/>
<path d="M777.802 385.117C780.132 385.307 782.472 385.507 784.822 385.707C783.972 395.937 783.112 406.157 782.262 416.387C761.662 414.647 741.072 412.977 720.492 411.177C720.712 408.727 720.952 406.287 721.182 403.857C739.412 405.367 757.642 406.927 775.862 408.417C776.502 400.647 777.162 392.887 777.802 385.117Z" fill="#1959B1"/>
<path d="M774.709 424.703C776.999 425.013 779.319 425.333 781.639 425.643C780.269 435.803 778.879 445.953 777.509 456.113C757.039 453.373 736.579 450.573 716.109 447.813C716.419 445.393 716.739 442.963 717.079 440.543C735.239 442.993 753.399 445.473 771.569 447.913C772.609 440.183 773.649 432.433 774.709 424.703Z" fill="#1959B1"/>
<path d="M59.7874 443.997C71.4174 432.547 92.0174 430.167 105.037 440.657C113.677 447.567 117.247 459.217 116.747 469.977C116.467 476.607 113.347 482.777 108.907 487.617C106.887 485.957 104.867 484.307 102.837 482.657C105.777 479.347 108.617 475.697 109.487 471.247C111.457 461.697 107.557 450.647 98.9873 445.527C91.1973 440.657 81.1473 441.157 72.8773 444.537C65.1873 447.657 59.2773 455.017 58.3573 463.317C57.3873 472.237 61.1073 482.147 69.1473 486.737C73.4673 489.497 78.7373 489.787 83.6973 489.537C82.4373 483.727 81.1173 477.927 79.8273 472.117C81.9473 471.627 84.0773 471.137 86.2173 470.657C88.1073 478.967 89.9073 487.307 91.8473 495.617C83.3373 497.777 73.7774 498.047 66.0374 493.367C57.3274 488.417 52.7073 478.527 51.5773 468.897C50.3173 459.917 53.3474 450.417 59.7874 443.997Z" fill="#1959B1"/>
<path d="M731.997 460.188C742.337 458.308 753.577 461.708 760.957 469.248C769.597 477.998 772.517 491.708 768.507 503.278C765.307 512.848 757.567 520.748 748.047 524.098C737.247 528.018 724.457 525.338 715.977 517.648C706.697 509.388 703.027 495.668 706.557 483.818C709.817 472.058 719.897 462.348 731.997 460.188ZM729.877 468.518C719.097 471.738 711.417 482.698 712.107 493.938C712.467 505.368 721.547 515.658 732.747 517.688C744.967 520.468 758.507 512.648 762.107 500.638C765.317 491.138 761.997 480.048 754.437 473.578C747.827 467.848 738.217 465.888 729.877 468.518Z" fill="#1959B1"/>
<path d="M115.699 495.912C117.829 495.232 119.969 494.572 122.099 493.922C126.139 506.882 130.179 519.842 134.189 532.812C113.289 527.312 92.399 521.742 71.499 516.242C74.739 526.782 78.079 537.292 81.319 547.852C79.099 548.522 76.8791 549.212 74.6691 549.892C70.1191 535.292 65.5591 520.702 61.0391 506.092C82.0591 511.692 103.059 517.302 124.079 522.892C121.309 513.882 118.479 504.902 115.699 495.912Z" fill="#1959B1"/>
<path d="M689.509 562.48C683.479 547.9 690.229 530.32 703.249 522C706.189 523.16 709.139 524.3 712.109 525.4C705.529 528.27 699.449 532.98 696.669 539.8C692.119 549.36 694.689 561.63 702.659 568.59C710.089 575.04 721.269 577.8 730.459 573.62C739.849 569.8 746.129 559.84 745.839 549.76C745.809 545.33 744.159 541.17 742.469 537.17C745.449 538.42 748.629 539.31 751.429 540.99C755.549 555.48 748.809 572.49 735.229 579.4C718.989 588.69 695.849 580.04 689.509 562.48Z" fill="#1959B1"/>
<path d="M78.4297 560.792C97.6197 553.162 116.84 545.542 136.04 537.922C136.92 540.232 137.82 542.542 138.69 544.862C131.28 547.622 123.98 550.672 116.61 553.532C120.65 563.742 124.67 573.962 128.77 584.152C136.12 581.212 143.48 578.302 150.84 575.392C151.79 577.642 152.71 579.902 153.67 582.162C134.53 589.992 115.25 597.462 96.0397 605.132C95.1197 602.822 94.2097 600.532 93.2897 598.232C102.94 594.392 112.59 590.552 122.24 586.742C118.18 576.512 114.22 566.242 110.02 556.082C100.44 560.022 90.7797 563.742 81.1697 567.622C80.2497 565.332 79.3397 563.062 78.4297 560.792Z" fill="#1959B1"/>
<path d="M102.773 618.973C121.473 610.203 140.163 601.453 158.863 592.703C159.903 594.923 160.953 597.163 161.993 599.403C143.293 608.133 124.603 616.913 105.913 625.653C104.853 623.433 103.823 621.203 102.773 618.973Z" fill="#1959B1"/>
<path d="M412.872 644.679C415.152 641.299 419.642 641.869 423.052 642.809C421.342 646.669 417.921 649.259 414.131 650.899C413.131 649.029 411.262 646.769 412.872 644.679Z" fill="#1959B1"/>
<path d="M502.969 669.237C503.939 667.897 504.869 664.287 507.059 666.117C507.369 668.417 504.589 668.817 502.969 669.237Z" fill="#1959B1"/>
<path d="M514.344 670.519C515.884 668.179 517.294 663.419 520.814 666.039C520.984 666.439 521.334 667.229 521.514 667.619C519.534 669.429 516.904 670.089 514.344 670.519Z" fill="#1959B1"/>
<path d="M510.711 673C513.661 674.3 517.871 674.83 519.301 678.11C518.771 680.82 515.411 680.6 513.401 681.6C512.361 678.77 511.481 675.9 510.711 673Z" fill="#1959B1"/>
<path d="M378.369 676.048C382.179 675.938 383.269 683.928 379.179 683.958C377.089 682.118 375.699 677.908 378.369 676.048Z" fill="#1959B1"/>
<path d="M385.156 681.19C385.586 677.71 390.526 677.71 392.096 680.43C389.956 681.37 387.276 683.21 385.156 681.19Z" fill="#1959B1"/>
<path d="M504.732 679.857C505.752 679.787 506.722 679.987 507.672 680.467C507.772 683.537 502.962 684.547 501.992 681.607C502.762 680.767 503.682 680.177 504.732 679.857Z" fill="#1959B1"/>
<path d="M396.38 693.988C395.52 690.318 400.47 689.648 403.05 689.328C403.71 689.938 405.04 691.158 405.71 691.758C402.98 693.408 399.61 696.188 396.38 693.988Z" fill="#1959B1"/>
<path d="M586.146 689.258C588.096 690.378 591.416 691.038 591.066 693.968C591.216 698.568 591.096 703.188 591.626 707.778C588.636 709.258 585.766 706.088 584.156 703.898C584.416 698.978 584.766 693.998 586.146 689.258Z" fill="#1959B1"/>
<path d="M404.129 700.609C405.989 695.649 412.219 695.219 416.009 698.149C417.599 703.759 419.309 710.089 417.019 715.769C414.699 714.779 412.499 713.039 409.879 713.169C406.869 714.169 404.049 715.809 400.819 716.039C397.039 716.399 394.129 719.299 390.429 719.839C387.489 718.339 389.019 714.719 389.119 712.219C388.989 709.049 392.819 708.809 395.059 707.999C399.559 706.519 404.959 706.159 408.289 702.449C407.249 701.999 405.169 701.059 404.129 700.609ZM403.489 708.029C399.409 709.969 394.839 710.849 391.049 713.389L391.439 715.039C397.319 714.639 403.009 712.679 408.569 710.839C409.379 707.769 405.709 706.169 403.489 708.029Z" fill="#1959B1"/>
<path d="M502.133 702.207C503.303 700.187 505.923 697.017 508.353 699.177C508.453 702.457 504.353 701.997 502.133 702.207Z" fill="#1959B1"/>
<path d="M392.203 700.323C393.483 699.803 394.744 700.773 395.104 702.023C394.104 703.963 392.034 705.413 389.784 705.133C386.764 703.873 390.443 700.813 392.203 700.323Z" fill="#1959B1"/>
<path d="M309.512 709.721C312.532 705.681 317.932 704.791 322.592 704.031C324.442 710.241 316.892 713.251 311.922 713.171C311.392 713.781 310.332 714.961 309.802 715.561C309.392 713.691 308.062 711.461 309.512 709.721Z" fill="#1959B1"/>
<path d="M0.390625 732.393C24.2106 724.193 48.0206 715.963 71.8606 707.773C84.4406 741.213 97.0506 774.643 109.641 808.073C129.081 812.933 148.561 817.613 167.971 822.553C131.771 835.363 95.5006 848.043 59.2606 860.773C65.8506 834.003 72.4507 807.233 79.0507 780.453C52.8607 764.413 26.5506 748.523 0.390625 732.393Z" fill="#1959B1"/>
<path d="M748.088 707.781C771.928 715.961 795.748 724.191 819.578 732.401C793.398 748.541 767.048 764.391 740.878 780.521C747.548 807.251 754.088 834.031 760.688 860.791C724.398 848.041 688.118 835.291 651.828 822.541C671.318 817.701 690.818 812.921 710.308 808.071C722.888 774.641 735.508 741.211 748.088 707.781Z" fill="#1959B1"/>
<path d="M252.5 816.089C266.76 800.429 280.96 784.719 295.28 769.109C292.74 786.849 290.08 804.589 287.52 822.339C302.1 811.869 316.61 801.319 331.19 790.859C323.91 810.759 316.57 830.639 309.24 850.529C307.24 849.309 305.25 848.099 303.27 846.889C308.13 833.959 313.03 821.059 317.86 808.129C305.11 817.169 292.42 826.279 279.67 835.289C281.76 819.809 283.94 804.329 286.04 788.839C276.81 799.099 267.68 809.439 258.48 819.719C256.48 818.499 254.48 817.289 252.5 816.089Z" fill="#1959B1"/>
<path d="M507.328 787.372C509.328 786.072 511.328 784.772 513.338 783.492C522.968 798.402 532.598 813.302 542.198 828.232C548.568 824.142 554.908 820.022 561.278 815.942C562.508 817.842 563.738 819.742 564.978 821.662C556.628 827.062 548.268 832.472 539.888 837.842C529.038 821.012 518.168 804.212 507.328 787.372Z" fill="#1959B1"/>
<path d="M310.477 851.382C320.967 834.352 331.247 817.182 341.667 800.102C350.707 805.572 359.737 811.042 368.747 816.532C367.617 818.402 366.487 820.262 365.357 822.142C358.347 817.932 351.377 813.632 344.347 809.442C341.407 814.332 338.457 819.222 335.457 824.082C342.407 828.402 349.447 832.592 356.427 836.862C355.267 838.742 354.117 840.642 352.967 842.542C345.977 838.322 338.997 834.082 332.027 829.822C328.007 836.352 324.067 842.932 320.077 849.482C327.067 853.732 334.057 857.962 341.037 862.212C339.897 864.112 338.737 865.992 337.587 867.902C328.557 862.382 319.457 856.982 310.477 851.382Z" fill="#1959B1"/>
<path d="M480.289 803.062C499.239 815.583 518.159 828.132 537.089 840.682C534.919 842.082 532.749 843.492 530.579 844.892C525.079 841.162 519.569 837.432 514.089 833.682C507.489 837.862 500.939 842.142 494.379 846.382C495.499 852.942 496.649 859.492 497.789 866.052C495.609 867.452 493.429 868.852 491.259 870.252C487.609 847.852 483.929 825.462 480.289 803.062ZM488.889 816.372C490.179 824.252 491.489 832.132 492.839 840.012C498.179 836.602 503.479 833.132 508.829 829.732C502.219 825.232 495.549 820.822 488.889 816.372Z" fill="#1959B1"/>
<path d="M342.328 870.738C352.728 853.628 363.088 836.498 373.488 819.398C382.468 825.198 393.328 829.638 398.658 839.518C403.698 848.788 401.328 860.258 395.778 868.758C390.728 877.328 381.618 884.258 371.298 883.858C360.188 883.638 351.558 875.858 342.328 870.738ZM376.218 828.848C368.158 842.138 360.108 855.438 352.028 868.718C358.288 872.508 364.808 877.318 372.518 876.838C380.468 876.088 386.658 869.908 390.348 863.218C393.928 857.058 395.608 849.058 392.288 842.448C388.888 836.008 382.228 832.438 376.218 828.848Z" fill="#1959B1"/>
<path d="M424.94 847.677C429.24 831.997 445.88 821.407 461.89 823.167C463.19 825.807 464.54 828.427 465.95 831.027C460.14 829.607 453.88 829.107 448.22 831.447C439.81 834.497 433.11 842.047 431.5 850.907C429.67 859.787 433.51 869.417 440.51 875.057C448.73 881.367 460.9 880.997 469.19 875.007C475.01 871.217 478.51 864.907 480.42 858.397C481.82 861.037 483.24 863.667 484.72 866.287C477.99 880.487 461.17 889.817 445.62 885.547C429.64 881.797 419.89 863.067 424.94 847.677Z" fill="#1959B1"/>
<path d="M406.906 830.79C409.286 830.77 411.676 830.75 414.076 830.75C414.186 850.77 414.276 870.79 414.386 890.82C411.996 890.83 409.596 890.84 407.216 890.86C407.116 870.83 406.996 850.81 406.906 830.79Z" fill="#1959B1"/>
<path d="M244.982 52.3538C301.842 57.6298 359.622 44.0987 409.972 17.7188C448.292 37.8557 490.822 50.2727 534.052 53.0247C554.542 54.4567 575.032 52.3987 595.432 50.6937C631.502 47.4867 667.482 42.8938 703.092 36.2758C724.952 71.0468 742.622 108.343 756.972 146.786C787.952 230.098 802.282 319.926 795.812 408.723C790.412 485.843 768.742 561.373 735.892 631.193C730.502 641.973 725.572 653.103 719.112 663.283C685.612 655.133 652.042 646.973 618.092 640.823C638.122 612.813 654.812 582.423 667.982 550.613C685.162 508.983 697.142 465.053 701.522 420.153C709.752 338.963 694.082 256.114 660.262 182.069C651.462 163.012 641.672 144.33 629.872 126.945C606.362 131.709 582.552 134.802 558.702 137.247C535.052 139.464 511.152 142.215 487.462 138.747C488.272 136.758 489.092 134.779 489.882 132.801C499.142 131.698 508.492 128.378 517.832 130.413C520.632 130.89 522.592 133.039 524.442 135.007C527.922 133.824 531.422 132.641 534.902 131.425C533.172 127.627 530.442 124.421 527.072 122.01C530.082 118.758 532.172 114.812 533.322 110.537C529.642 109.866 525.962 109.218 522.282 108.615C520.872 111.856 518.662 114.881 515.272 116.211C508.522 119.133 500.962 119.133 493.842 120.668C494.562 116.165 496.292 111.31 494.512 106.864C489.572 103.954 483.562 103.669 478.042 102.578C451.702 98.9158 425.052 98.2568 398.502 98.5068C390.602 98.2908 383.092 101.145 375.942 104.147C359.432 111.219 344.022 120.509 328.502 129.492C321.782 132.846 315.312 136.712 308.682 140.203C303.382 140.84 298.032 140.146 292.722 139.907C258.312 137.44 223.932 133.699 190.082 126.945C170.772 155.803 156.062 187.561 144.202 220.138C119.852 287.759 110.492 361.103 119.842 432.493C125.122 473.983 136.932 514.453 152.842 553.063C165.632 584.023 181.842 613.513 200.972 640.983C167.012 647.213 133.422 655.273 99.9124 663.563C79.8524 626.133 63.4724 586.763 50.7824 546.233C34.1224 494.023 24.5324 439.533 22.9124 384.743C20.0224 292.739 39.0324 200.524 75.2824 116.075C87.2924 88.4898 100.722 61.3937 117.162 36.1617C159.342 44.3827 202.152 49.0558 244.982 52.3538ZM388.632 62.2457C381.072 71.2287 382.012 83.5887 382.552 94.5267C387.382 93.0717 392.322 91.7757 397.412 91.7637C410.672 91.5137 423.922 91.6847 437.172 92.2297C438.032 81.5537 437.552 69.5457 429.782 61.2797C419.382 49.2947 398.362 49.6017 388.632 62.2457ZM58.3124 225.653C56.3024 233.066 57.1923 240.969 59.8423 248.098C63.0023 248.849 66.1723 249.588 69.3423 250.372C65.3623 244.46 62.8324 237.217 64.2824 230.042C65.9024 218.944 75.8024 209.7 87.0424 209.04C95.0124 208.665 103.402 211.439 108.852 217.454C115.222 224.231 117.162 234.692 113.732 243.345C111.642 249.633 106.592 254.204 101.262 257.82C104.852 258.104 109.712 261.584 112.472 257.831C122.852 247.507 125.722 230.042 117.952 217.386C111.162 205.22 95.8823 199.262 82.4923 202.116C70.8923 204.663 61.1624 214.134 58.3124 225.653ZM762.392 229.86C764.102 238.126 765.792 246.393 767.512 254.648C759.782 256.274 752.032 257.82 744.302 259.446C742.532 251.202 740.872 242.925 739.162 234.658C736.922 235.102 734.702 235.545 732.472 235.988C734.152 244.266 735.892 252.533 737.582 260.81C731.772 262.016 725.972 263.221 720.162 264.404C718.442 256.148 716.742 247.882 715.032 239.616C712.832 240.059 710.632 240.514 708.452 240.969C710.682 251.646 712.782 262.357 715.112 273.011C735.272 268.702 755.492 264.699 775.672 260.458C773.442 249.804 771.262 239.138 769.072 228.472C766.832 228.939 764.612 229.394 762.392 229.86ZM52.0823 259.719C51.7423 262.141 51.3924 264.563 51.0624 266.996C61.3024 268.508 71.5723 269.964 81.8223 271.521C80.2123 282.358 78.6224 293.194 77.0624 304.041C66.8024 302.609 56.5424 301.051 46.2824 299.573C45.9224 302.051 45.5524 304.519 45.1724 306.998C65.5924 310.034 86.0124 312.99 106.432 315.969C106.802 313.49 107.162 311.011 107.542 308.533C99.6924 307.396 91.8724 306.179 84.0224 305.144C85.4824 294.251 87.1823 283.392 88.7323 272.511C96.5923 273.648 104.442 274.808 112.302 275.945C112.652 273.523 113.012 271.101 113.372 268.679C92.9523 265.688 72.5223 262.698 52.0823 259.719ZM746.152 275.16C747.182 283.586 748.042 292.045 748.972 300.494C751.132 300.3 753.312 300.107 755.492 299.925C755.002 293.944 754.242 287.986 753.662 282.016C758.522 282.335 763.622 283.176 767.552 286.315C774.822 291.534 777.552 301.255 776.062 309.806C774.602 318.516 767.592 325.793 759.142 328.09C750.782 330.373 741.092 329.841 734.002 324.44C725.942 318.607 723.082 307.384 725.772 298.06C727.052 293.433 730.412 289.851 733.862 286.701C732.002 284.859 730.142 283.017 728.302 281.175C715.452 291.761 715.172 312.228 724.362 325.225C735.912 340.793 761.372 341.083 774.742 327.783C786.052 316.515 785.722 296.81 776.162 284.575C769.102 275.729 756.852 273.363 746.152 275.16ZM44.4423 313.774C44.6023 316.39 43.6724 319.414 44.6724 321.802C50.5524 325.031 56.8423 327.487 62.8723 330.413C62.5923 338.533 62.4924 346.673 61.9324 354.793C55.5224 357.093 49.1823 359.623 42.8223 362.053C42.7123 364.713 42.6224 367.363 42.5424 370.023C64.3024 361.373 86.0524 352.723 107.802 344.043C86.6824 333.943 65.5723 323.849 44.4423 313.774ZM723.082 343.273C722.962 354.163 722.862 365.043 722.752 375.933C743.412 376.143 764.062 376.333 784.722 376.543C784.822 365.643 784.932 354.753 785.042 343.873C782.762 343.843 780.472 343.823 778.202 343.803C778.122 352.233 777.982 360.643 777.992 369.073C770.052 369.083 762.122 368.943 754.192 368.873C754.272 360.443 754.362 352.003 754.442 343.573C752.162 343.543 749.872 343.523 747.612 343.493C747.512 351.933 747.432 360.363 747.352 368.793C741.422 368.753 735.502 368.683 729.582 368.633C729.662 360.203 729.762 351.763 729.842 343.333C727.572 343.303 725.322 343.283 723.082 343.273ZM42.1524 376.963C42.3424 379.293 42.5223 381.633 42.7323 383.973C58.1823 382.713 73.6223 381.413 89.0723 380.183C74.0923 396.573 59.0324 412.913 44.0424 429.323C65.4124 427.593 86.7724 425.823 108.152 424.073C107.962 421.723 107.782 419.383 107.592 417.053C91.9623 418.313 76.3523 419.633 60.7223 420.893C75.8923 404.473 91.1124 388.113 106.282 371.693C84.9024 373.433 63.5224 375.213 42.1524 376.963ZM777.802 385.123C777.162 392.893 776.502 400.653 775.862 408.423C757.642 406.933 739.412 405.373 721.182 403.863C720.952 406.293 720.712 408.733 720.492 411.183C741.072 412.983 761.662 414.653 782.262 416.393C783.112 406.163 783.972 395.943 784.822 385.713C782.472 385.513 780.132 385.313 777.802 385.123ZM774.712 424.703C773.652 432.433 772.612 440.183 771.572 447.913C753.402 445.473 735.242 442.993 717.082 440.543C716.742 442.963 716.422 445.393 716.112 447.813C736.582 450.573 757.042 453.373 777.512 456.113C778.882 445.953 780.272 435.803 781.642 425.643C779.322 425.333 777.002 425.013 774.712 424.703ZM59.7924 444.003C53.3524 450.423 50.3223 459.923 51.5823 468.903C52.7123 478.533 57.3324 488.423 66.0424 493.373C73.7824 498.053 83.3423 497.783 91.8523 495.623C89.9123 487.313 88.1123 478.973 86.2223 470.663C84.0823 471.143 81.9523 471.633 79.8323 472.123C81.1223 477.933 82.4423 483.733 83.7023 489.543C78.7423 489.793 73.4724 489.503 69.1524 486.743C61.1124 482.153 57.3923 472.243 58.3623 463.323C59.2823 455.023 65.1924 447.663 72.8824 444.543C81.1524 441.163 91.2023 440.663 98.9923 445.533C107.562 450.653 111.462 461.703 109.492 471.253C108.622 475.703 105.782 479.353 102.842 482.663C104.872 484.313 106.892 485.963 108.912 487.623C113.352 482.783 116.472 476.613 116.752 469.983C117.252 459.223 113.682 447.573 105.042 440.663C92.0224 430.173 71.4224 432.553 59.7924 444.003ZM732.002 460.193C719.902 462.353 709.822 472.063 706.562 483.823C703.032 495.673 706.702 509.393 715.982 517.653C724.462 525.343 737.252 528.023 748.052 524.103C757.572 520.753 765.312 512.853 768.512 503.283C772.522 491.713 769.602 478.003 760.962 469.253C753.582 461.713 742.342 458.313 732.002 460.193ZM115.702 495.913C118.482 504.903 121.312 513.883 124.082 522.893C103.062 517.303 82.0624 511.693 61.0424 506.093C65.5624 520.703 70.1224 535.293 74.6724 549.893C76.8824 549.213 79.1023 548.523 81.3223 547.853C78.0823 537.293 74.7424 526.783 71.5023 516.243C92.4024 521.743 113.292 527.313 134.192 532.813C130.182 519.843 126.142 506.883 122.102 493.923C119.972 494.573 117.832 495.233 115.702 495.913ZM689.512 562.483C695.852 580.043 718.992 588.693 735.232 579.403C748.812 572.493 755.552 555.483 751.432 540.993C748.632 539.313 745.452 538.423 742.472 537.173C744.162 541.173 745.812 545.333 745.842 549.763C746.132 559.843 739.852 569.803 730.462 573.623C721.272 577.803 710.092 575.043 702.662 568.593C694.692 561.633 692.122 549.363 696.672 539.803C699.452 532.983 705.532 528.273 712.112 525.403C709.142 524.303 706.192 523.163 703.252 522.003C690.232 530.323 683.482 547.903 689.512 562.483ZM78.4324 560.793C79.3424 563.063 80.2524 565.333 81.1724 567.623C90.7824 563.743 100.442 560.023 110.022 556.083C114.222 566.243 118.182 576.513 122.242 586.743C112.592 590.553 102.942 594.393 93.2924 598.233C94.2124 600.533 95.1224 602.823 96.0424 605.133C115.252 597.463 134.532 589.993 153.672 582.163C152.712 579.903 151.792 577.643 150.842 575.393C143.482 578.303 136.122 581.213 128.772 584.153C124.672 573.963 120.652 563.743 116.612 553.533C123.982 550.673 131.282 547.623 138.692 544.863C137.822 542.543 136.922 540.233 136.042 537.923C116.842 545.543 97.6224 553.163 78.4324 560.793ZM102.772 618.973C103.822 621.203 104.852 623.433 105.912 625.653C124.602 616.913 143.292 608.133 161.992 599.403C160.952 597.163 159.902 594.923 158.862 592.703C140.162 601.453 121.472 610.203 102.772 618.973Z" fill="#E5E5E5"/>
<path d="M429.57 110.477C440.47 111.205 451.33 112.319 462.22 113.001C466.65 113.047 471.2 113.911 474.53 117.083C467.92 117.584 461.29 117.686 454.67 117.811C454.52 120.415 454.82 123.349 452.99 125.475C450.05 129.591 443.38 129.853 440.15 125.964C437.95 123.804 438.13 120.586 438.09 117.766C434.5 116.344 431.25 114.07 429.57 110.477Z" fill="#E5E5E5"/>
<path d="M69.1366 332.852C76.6066 336.392 84.0666 339.952 91.5466 343.472C83.8766 346.552 76.1766 349.532 68.4766 352.562C68.6966 345.982 68.9166 339.422 69.1366 332.852Z" fill="#E5E5E5"/>
<path d="M729.883 468.517C738.223 465.887 747.833 467.847 754.443 473.577C762.003 480.047 765.323 491.137 762.113 500.637C758.513 512.647 744.973 520.467 732.753 517.687C721.553 515.657 712.473 505.367 712.113 493.937C711.423 482.697 719.103 471.737 729.883 468.517Z" fill="#E5E5E5"/>
<path d="M187.039 784.43C234.899 773.52 283.659 766.71 332.609 763.06C334.659 762.67 336.589 763.48 338.329 764.53C360.929 777.54 384.729 788.33 408.889 798.05C433.509 788.71 457.509 777.67 480.319 764.48C482.049 763.44 483.959 762.56 486.039 762.97C534.899 766.55 583.569 773.27 631.369 784.09C588.579 829.1 538.349 866.86 483.699 896.29C459.459 909.38 434.329 920.79 408.659 930.82C374.479 916.93 341.049 901.05 309.389 882.09C264.419 855.31 222.979 822.5 187.039 784.43ZM252.499 816.09C254.479 817.29 256.479 818.5 258.479 819.72C267.679 809.44 276.809 799.1 286.039 788.84C283.939 804.33 281.759 819.81 279.669 835.29C292.419 826.28 305.109 817.17 317.859 808.13C313.029 821.06 308.129 833.96 303.269 846.89C305.249 848.1 307.239 849.31 309.239 850.53C316.569 830.64 323.909 810.76 331.189 790.86C316.609 801.32 302.099 811.87 287.519 822.34C290.079 804.59 292.739 786.85 295.279 769.11C280.959 784.72 266.759 800.43 252.499 816.09ZM507.329 787.37C518.169 804.21 529.039 821.01 539.889 837.84C548.269 832.47 556.629 827.06 564.979 821.66C563.739 819.74 562.509 817.84 561.279 815.94C554.909 820.02 548.569 824.14 542.199 828.23C532.599 813.3 522.969 798.4 513.339 783.49C511.329 784.77 509.329 786.07 507.329 787.37ZM310.479 851.38C319.459 856.98 328.559 862.38 337.589 867.9C338.739 865.99 339.899 864.11 341.039 862.21C334.059 857.96 327.069 853.73 320.079 849.48C324.069 842.93 328.009 836.35 332.029 829.82C338.999 834.08 345.979 838.32 352.969 842.54C354.119 840.64 355.269 838.74 356.429 836.86C349.449 832.59 342.409 828.4 335.459 824.08C338.459 819.22 341.409 814.33 344.349 809.44C351.379 813.63 358.349 817.93 365.359 822.14C366.489 820.26 367.619 818.4 368.749 816.53C359.739 811.04 350.709 805.57 341.669 800.1C331.249 817.18 320.969 834.35 310.479 851.38ZM480.289 803.06C483.929 825.46 487.609 847.85 491.259 870.25C493.429 868.85 495.609 867.45 497.789 866.05C496.649 859.49 495.499 852.94 494.379 846.38C500.939 842.14 507.489 837.86 514.089 833.68C519.569 837.43 525.079 841.16 530.579 844.89C532.749 843.49 534.919 842.08 537.089 840.68C518.159 828.13 499.239 815.58 480.289 803.06ZM342.329 870.74C351.559 875.86 360.189 883.64 371.299 883.86C381.619 884.26 390.729 877.33 395.779 868.76C401.329 860.26 403.699 848.79 398.659 839.52C393.329 829.64 382.469 825.2 373.489 819.4C363.089 836.5 352.729 853.63 342.329 870.74ZM424.939 847.68C419.889 863.07 429.639 881.8 445.619 885.55C461.169 889.82 477.989 880.49 484.719 866.29C483.239 863.67 481.819 861.04 480.419 858.4C478.509 864.91 475.009 871.22 469.189 875.01C460.899 881 448.729 881.37 440.509 875.06C433.509 869.42 429.669 859.79 431.499 850.91C433.109 842.05 439.809 834.5 448.219 831.45C453.879 829.11 460.139 829.61 465.949 831.03C464.539 828.43 463.189 825.81 461.889 823.17C445.879 821.41 429.239 832 424.939 847.68ZM406.909 830.79C406.999 850.81 407.119 870.83 407.219 890.86C409.599 890.84 411.999 890.83 414.389 890.82C414.279 870.79 414.189 850.77 414.079 830.75C411.679 830.75 409.289 830.77 406.909 830.79Z" fill="#E5E5E5"/>
<path d="M488.891 816.367C495.551 820.817 502.221 825.227 508.831 829.727C503.481 833.127 498.181 836.597 492.841 840.007C491.491 832.127 490.181 824.247 488.891 816.367Z" fill="#E5E5E5"/>
<path d="M376.221 828.852C382.231 832.442 388.891 836.012 392.291 842.452C395.611 849.062 393.931 857.062 390.351 863.222C386.661 869.912 380.471 876.092 372.521 876.842C364.811 877.322 358.291 872.512 352.031 868.722C360.111 855.442 368.161 842.142 376.221 828.852Z" fill="#E5E5E5"/>
<path d="M388.629 62.2407C398.359 49.5967 419.379 49.2897 429.779 61.2747C437.549 69.5407 438.029 81.5487 437.169 92.2247C423.919 91.6797 410.669 91.5087 397.409 91.7587C392.319 91.7707 387.379 93.0667 382.549 94.5217C382.009 83.5837 381.069 71.2237 388.629 62.2407Z" fill="#8CFF66"/>
<path d="M448.888 162.099C459.868 157.289 470.788 152.138 482.498 149.352C492.098 155.39 501.698 161.416 511.278 167.465C513.458 168.887 515.828 169.978 518.358 170.626L518.478 171.491C518.858 174.265 519.708 177.551 517.718 179.928C514.668 183.873 510.148 186.25 505.808 188.512C495.228 193.709 484.798 199.201 474.268 204.499C465.758 198.791 456.898 193.629 448.258 188.137C448.458 179.45 448.688 170.774 448.888 162.099Z" fill="#8CFF66"/>
<path d="M399.736 176.747C412.136 177.19 423.836 172.381 435.186 167.992C434.696 184.399 434.426 200.796 433.786 217.192C418.056 225.015 402.426 233.054 386.786 241.059C386.546 235.669 386.386 230.279 386.246 224.89C385.816 209.119 385.366 193.359 384.906 177.6C389.816 176.906 394.776 176.61 399.736 176.747Z" fill="#8CFF66"/>
<path d="M389.052 322.423C403.322 315.055 417.432 307.38 431.642 299.898C431.552 304.867 431.442 309.848 431.302 314.828C430.842 334.279 430.142 353.749 429.852 373.219C398.392 391.589 366.632 409.449 335.032 427.579C314.472 415.779 294.082 403.669 273.402 392.099C271.992 388.919 270.912 385.169 272.802 381.939C276.542 374.869 283.552 370.319 290.262 366.369C302.242 359.999 314.252 353.719 326.302 347.489C347.832 359.579 369.452 371.529 391.032 383.529C390.392 363.149 389.692 342.789 389.052 322.423Z" fill="#8CFF66"/>
<path d="M393.797 490.521C424.207 472.371 454.737 454.431 485.137 436.281C497.787 443.481 510.317 450.881 522.937 458.121C530.727 462.541 539.117 466.571 544.957 473.611C550.077 479.631 552.537 487.451 553.427 495.201C555.967 516.741 558.457 538.271 560.967 559.821C516.257 533.631 471.607 507.371 426.887 481.201C426.477 495.311 426.137 509.441 425.777 523.551C425.577 530.281 424.307 537.401 420.007 542.791C417.387 546.141 413.117 548.481 408.787 547.811C403.817 547.131 400.067 543.121 397.997 538.781C395.127 533.001 394.747 526.421 394.657 520.091C394.417 510.231 394.117 500.371 393.797 490.521Z" fill="#8CFF66"/>
<path d="M517.724 179.929C519.714 177.552 518.864 174.266 518.484 171.492C521.464 173.504 524.174 176.392 524.664 180.111C525.914 189.582 526.634 199.122 527.704 208.628C528.784 217.884 530.314 228.003 525.304 236.463C520.214 245.946 509.954 250.403 500.904 255.202C442.794 286.141 384.714 317.126 326.304 347.49C314.254 353.72 302.244 360 290.264 366.37C283.554 370.32 276.544 374.87 272.804 381.94C270.914 385.17 271.994 388.92 273.404 392.1C268.534 389.42 263.844 385.02 263.844 379.05C264.014 363.88 264.714 348.72 265.094 333.56C265.244 326.37 266.354 318.775 270.904 312.941C277.154 304.675 286.834 300.252 295.814 295.669C355.304 265.287 414.774 234.848 474.274 204.5C484.804 199.202 495.234 193.71 505.814 188.513C510.154 186.251 514.674 183.874 517.724 179.929Z" fill="#40BF00"/>
<path d="M322.25 555.503C330.22 553.823 338.19 552.133 346.17 550.453C346.17 566.523 346.17 582.583 346.17 598.643C350.07 598.643 353.98 598.643 357.91 598.643C357.89 601.763 357.89 604.893 357.91 608.033C346.13 608.033 334.35 608.043 322.57 608.033C322.57 604.893 322.57 601.763 322.57 598.653C326.5 598.643 330.43 598.643 334.37 598.633C334.36 586.563 334.37 574.503 334.36 562.453C330.32 563.343 326.28 564.263 322.25 565.173C322.25 561.953 322.25 558.723 322.25 555.503Z" fill="#40BF00"/>
<path d="M374.552 552.991C382.082 548.891 392.812 549.531 398.492 556.461C404.232 563.321 404.902 572.851 404.352 581.411C403.792 590.141 400.932 599.571 393.632 605.021C386.342 610.271 376.532 609.741 368.372 607.031C368.342 603.771 368.362 600.511 368.322 597.261C374.122 600.131 381.692 601.491 387.312 597.521C392.072 593.931 392.642 587.531 393.202 582.071C387.922 589.131 376.602 589.721 370.412 583.581C361.772 575.241 363.942 558.721 374.552 552.991ZM381.672 560.091C376.222 562.791 375.462 570.601 378.242 575.481C381.082 580.391 389.352 579.961 391.572 574.691C394.852 568.381 389.952 556.831 381.672 560.091Z" fill="#40BF00"/>
<path d="M470.302 554.294C477.112 549.594 486.042 549.843 493.762 551.833C493.752 555.153 493.752 558.484 493.822 561.814C488.532 559.464 481.832 558.183 476.822 561.833C471.662 565.483 470.182 572.084 469.762 578.014C474.622 571.194 485.042 569.604 491.642 574.794C498.902 580.894 499.452 592.584 494.712 600.384C488.462 610.874 471.372 612.204 463.832 602.504C458.572 595.664 457.862 586.523 458.472 578.213C459.152 569.183 462.662 559.674 470.302 554.294ZM475.282 581.083C466.922 584.663 469.712 600.834 479.332 599.924C485.862 598.974 487.252 590.634 485.482 585.384C484.362 581.084 479.082 579.583 475.282 581.083Z" fill="#40BF00"/>
<path d="M410.953 586.028C418.483 574.508 425.983 562.967 433.503 551.438C437.413 551.438 441.333 551.438 445.253 551.438C445.253 563.368 445.253 575.278 445.253 587.198C447.543 587.198 449.833 587.198 452.123 587.208C452.113 590.028 452.113 592.848 452.123 595.678C449.833 595.668 447.543 595.668 445.273 595.668C445.243 599.788 445.253 603.908 445.253 608.028C441.653 608.028 438.063 608.028 434.483 608.028C434.463 603.908 434.463 599.798 434.463 595.678C426.163 595.678 417.863 595.678 409.553 595.678C409.783 592.448 408.853 588.798 410.953 586.028ZM419.583 587.198C424.543 587.208 429.513 587.198 434.483 587.198C434.543 579.108 434.273 571.028 434.683 562.958C430.433 571.498 424.563 579.088 419.583 587.198Z" fill="#40BF00"/>
<path d="M308.56 227.844C308.01 213.881 318.19 202.249 329.49 195.461C331.55 196.928 333.66 198.326 335.94 199.452C352.75 207.843 369.45 216.462 386.25 224.888C386.39 230.277 386.55 235.667 386.79 241.057C373.49 247.913 360.15 254.69 346.89 261.626C344.18 262.956 341.59 264.753 338.58 265.265C332.47 262.9 327.01 259.136 321.11 256.327C315.08 247.834 308.57 238.737 308.56 227.844Z" fill="#74BFCC"/>
<path d="M479.327 274.519C481.247 273.041 483.287 274.633 485.087 275.452C504.757 285.913 524.877 295.509 544.287 306.471L544.347 306.88C544.657 309.688 545.717 312.849 544.017 315.431C541.097 320.093 536.147 322.924 531.477 325.528C518.327 332.389 505.477 339.759 492.587 347.049C472.237 336.149 451.737 325.562 431.297 314.828C431.437 309.848 431.547 304.867 431.637 299.898C447.537 291.439 463.437 282.968 479.327 274.519Z" fill="#74BFCC"/>
<path d="M115.156 805.043C131.186 799.163 147.556 794.233 164.086 790.023C166.736 799.533 169.256 809.083 171.826 818.623C152.946 814.043 134.026 809.643 115.156 805.043Z" fill="#74BFCC"/>
<path d="M655.851 790.023C672.381 794.253 688.751 799.163 704.791 805.043C685.911 809.643 667.001 814.053 648.141 818.613C650.691 809.073 653.211 799.533 655.851 790.023Z" fill="#74BFCC"/>
</svg>
