<svg width="899" height="891" viewBox="0 0 899 891" fill="none" xmlns="http://www.w3.org/2000/svg">
    <path fill-rule="evenodd" clip-rule="evenodd" d="M424.913 818.049C426.6 814.162 424.693 818.305 427.737 814.932C430.597 811.743 432.212 806.72 433.971 802.723C435.182 799.974 436.576 797.371 437.896 794.364C439.18 791.431 440.134 788.608 442.26 786.995L452.53 811.009C453.007 812.256 453.668 814.016 454.401 815.262C455.721 817.462 454.218 815.079 455.867 817.315C456.014 817.499 456.345 818.233 456.455 818.049C456.565 817.865 456.858 818.525 457.078 818.709L444.718 818.599C444.974 818.379 445.342 818.159 445.525 817.975L448.423 815.116L445.782 806.866C438.813 806.683 433.605 804.85 432.175 812.476C430.744 820.028 431.221 813.612 434.816 818.085L424.913 818.049ZM465.697 808.113C471.052 809.726 466.725 811.193 470.649 814.456C476.333 819.222 491.335 810.459 473.839 804.043C455.427 797.297 465.514 782.485 482.238 787.325C483.486 790.075 483.229 790.881 483.119 794.364C478.571 793.264 482.055 794.144 479.597 791.101C476.077 786.812 468.118 786.628 469.071 795.794C474.977 799.607 486.053 800.488 485.98 808.919C485.87 819.038 474.646 818.635 465.77 816.912L465.697 808.113ZM402.173 812.329C405.987 814.052 416.111 816.435 414.276 808.333C413.323 804.043 406.721 802.21 403.383 799.717C398.102 795.757 395.974 779.699 419.668 787.398C419.301 792.311 419.448 792.531 417.687 794.364C414.68 790.881 417.65 789.525 413.14 787.765C408.812 786.078 406.721 788.095 404.851 789.891C403.897 800.12 419.081 796.784 418.861 807.966C418.641 818.6 404.263 818.673 397.332 813.062L399.276 805.143C401.696 806.134 400.376 805.253 401.293 807.93C401.586 808.773 401.99 811.523 402.21 812.329H402.173ZM515.541 781.935L516.751 789.158C511.58 788.058 517.485 784.208 505.895 785.455C506.042 790.808 507.288 796.161 508.132 801.624C508.939 806.793 508.572 809.249 511.433 811.449C511.653 811.633 512.533 812.146 512.717 812.256L500.54 815.116C503.841 809.983 505.602 817.755 502.924 801.587C502.118 796.564 501.273 791.688 500.577 786.445L494.379 787.471C493.241 789.305 494.232 787.875 493.095 790.038L490.307 785.748L515.505 781.935H515.541ZM376.133 811.413C376.353 811.193 376.683 810.973 376.866 810.789L379.397 808.444C381.084 806.134 381.597 799.938 382.147 796.932C383.908 787.436 385.411 787.216 382.551 782.486L391.354 784.613C387.795 787.839 388.53 790.259 387.136 797.848C384.202 813.723 384.641 807.491 387.942 813.283L376.169 811.414L376.133 811.413ZM542.572 775.996L544.112 782.705C539.344 780.469 542.278 779.112 536.666 779.259C534.87 779.296 530.652 780.615 529.185 781.055L531.642 791.614C533.549 791.504 536.74 791.101 538.207 790.185C540.445 788.791 540.665 786.775 541.728 785.308L543.672 795.427C539.124 791.174 541.068 792.091 532.449 794.035L535.53 805.656C538.794 805.73 542.756 805.18 545.47 803.53C549.467 801.074 546.826 800.56 550.31 796.271L550.861 804.923L528.158 809.066C528.304 808.846 528.524 808.59 528.671 808.369C531.128 804.52 526.728 790.845 525.37 786.262C523.904 781.422 523.94 783.255 520.455 780.872L542.536 775.923L542.572 775.996ZM578.369 788.755C582.036 792.274 582.366 791.138 585.446 793.484C571.509 800.414 577.451 783.439 562.891 786.445C563.184 789.011 563.954 792.604 565.091 794.767C567.769 799.827 566.338 795.941 570.08 798.69L559.003 802.54C560.58 796.197 557.059 808.076 559.92 800.524C561.57 796.161 559.407 793.228 557.316 787.215C552.364 773.063 554.932 776.766 549.21 774.126C550.53 773.1 573.93 760.817 574.48 775.189C574.664 779.809 572.206 781.055 570.373 783.402C575.031 785.015 575.068 785.602 578.295 788.718L578.369 788.755ZM336.925 801.733C341.51 797.554 331.937 804.813 338.905 800.67C343.344 798.03 342.353 796.491 344.81 787.361C349.358 770.423 347.965 777.316 345.251 772.44C358.822 773.576 376.133 778.269 371.548 794.657C366.633 812.219 351.303 804.63 336.925 801.733ZM617.759 744.576C617.979 744.466 651.392 720.818 640.792 750.038C645.046 750.772 646.477 751.615 649.594 753.448L657.26 756.748C645.817 766.61 646.734 748.755 633.97 754.511C636.978 764.447 642.92 765.327 642.92 765.327C642.993 765.144 643.36 765.51 643.543 765.657C638.188 767.563 636.427 769.91 633.163 770.9C634.961 765.73 635.437 767.783 632.357 762.467C630.229 758.764 624.398 747.545 621.317 745.895C619.996 745.162 620.656 745.639 619.19 745.089L617.759 744.576ZM293.977 785.235C299.442 780.872 295.737 790.698 303.402 772.623C309.674 757.811 308.024 763.934 306.227 757.078C309.344 758.214 312.646 759.754 315.946 761.111L326.803 765.07L324.858 772.587C324.638 772.331 324.419 771.964 324.309 771.744C321.668 767.014 323.281 764.558 312.866 762.688L308.904 773.357C322.034 777.463 316.093 775.447 321.154 773.65L317.01 783.036C313.819 777.61 316.57 777.757 307.841 775.447C300.505 788.169 305.713 787.033 306.263 790.186L293.977 785.273L293.977 785.235ZM275.602 745.345C296.911 739.149 303.219 770.973 284.734 776.509C263.095 782.999 255.282 751.285 275.602 745.345ZM615.852 752.348C618.235 754.915 619.153 760.524 616.806 764.19C614.971 767.013 611.194 768.553 607.637 770.276C613.431 783.879 612.624 776.326 617.099 779.442L605.509 785.198C605.949 781.532 607.893 782.632 605.803 777.866C604.702 775.373 603.235 772.88 601.914 770.35C593.809 754.878 598.944 762.431 591.792 757.554C597.77 755.355 609.617 745.602 615.852 752.311V752.348ZM644.68 728.48C650.989 724.227 656.453 719.351 662.652 715.722C664.376 717.371 666.026 718.618 666.539 721.624C659.314 718.801 658.507 721.221 653.152 724.521C654.289 728.444 656.453 731.377 659.571 733.907C668.19 729.03 663.825 729.507 665.732 724.997C668.666 727.16 669.95 729.874 671.857 733.247C665.732 731.23 665.292 732.44 661.368 736.29C662.908 739.993 665.696 742.339 667.31 745.859C674.021 743.952 679.449 739.406 676.882 731.707C678.606 732.77 679.339 730.973 681.98 739.479C678.826 741.569 674.975 744.282 671.82 746.483C667.896 749.196 665.732 751.689 662.028 753.266C663.531 745.713 663.238 748.023 656.307 738.527C646.147 724.668 651.245 731.121 644.68 728.518L644.68 728.48ZM218.899 740.653C221.137 738.856 218.203 740.689 220.769 739.919C227.372 737.939 224.328 738.856 230.929 729.91C235.037 724.337 239.401 722.321 236.614 716.052C239.878 716.712 251.138 725.804 255.282 728.48L252.092 734.383C249.891 731.817 251.982 735.19 251.102 732.293C250.844 731.413 251.028 731.34 250.807 730.24C250.001 726.244 246.59 724.007 242.042 722.834C240.025 726.831 237.971 727.527 236.65 732.697C242.85 735.19 239.658 736.436 247.58 734.237L241.382 742.339C239.915 738.599 243.033 735.996 233.79 733.723C232.103 737.756 230.049 739.296 227.958 743.476C236.724 753.081 240.795 748.352 244.499 747.509C243.326 750.955 241.345 752.605 238.265 754.071C232.69 751.615 225.354 744.062 218.826 740.726L218.899 740.653ZM208.52 725.034C204.962 731.817 211.82 727.82 208.08 730.827C208.08 730.863 199.938 724.961 198.287 721.881C206.576 724.667 205.696 720.158 210.721 714.805C214.571 710.699 217.359 708.096 219.779 703.513C210.611 697.573 213.325 702.523 209.693 701.496C209.216 699.993 208.996 702.12 209.877 700.213L213.765 696.18L233.02 712.715C232.067 714.072 231.479 714.988 229.829 716.675C223.741 722.798 233.68 713.265 223.888 707.912L208.556 725.034L208.52 725.034ZM667.016 712.605C668.96 710.039 673.728 705.346 676.662 704.796C675.232 708.719 675.159 705.383 675.415 709.269L695.734 718.801C684.951 690.314 689.609 701.056 683.521 696.73C683.741 696.62 684.071 696.473 684.217 696.4L685.537 695.63C689.462 692.99 687.262 692.845 690.965 692.44C688.361 700.506 699.769 716.565 699.402 725.804C690.746 724.961 677.873 713.155 667.016 712.569V712.605ZM211.087 693.687C206.686 694.824 208.08 691.487 202.945 696.767C195.609 704.283 188.09 713.778 178.372 704.979C171.879 699.077 172.65 692.367 178.665 686.868L189.191 676.969C190.548 674.805 189.485 676.382 190.291 674.769C190.401 674.512 190.584 674.146 190.694 673.962C190.804 673.742 191.061 673.596 191.134 673.119C191.208 672.642 191.392 672.496 191.575 672.276C193.629 676.345 195.169 676.785 198.03 679.793C196.159 681.149 198.91 679.792 196.379 680.195C192.455 680.818 193.775 679.646 190.584 682.432C182.699 689.288 174.337 695.521 180.609 702.707C186.697 709.673 190.841 704.724 195.316 700.544C203.898 692.478 206.062 693.1 203.568 687.161C206.832 688.224 208.776 691.488 211.014 693.725L211.087 693.687ZM693.276 688.004C695.477 686.464 706.077 675.612 707.764 672.899C710.074 674.109 714.292 676.565 712.605 677.849C712.092 678.252 703.436 674.256 701.089 685.584L708.754 691.451C713.816 688.627 713.559 687.454 713.156 681.222L720.454 688.078C718.4 689.434 714.219 686.134 710.955 694.238L719.537 701.791C724.635 697.904 728.633 694.787 725.552 686.354C728.559 686.832 727.056 686.465 729.183 689.288C730.137 690.572 730.797 691.562 731.787 692.771C727.166 697.318 719.647 704.614 716.346 710.04C714.219 707.363 716.273 710.553 715.466 707.84C715.282 707.253 715.466 707.143 715.062 705.824C713.852 701.901 703.326 693.981 699.768 690.865C697.09 688.518 697.641 689.325 694.597 688.445C694.487 688.409 694.046 688.482 693.936 688.225C693.863 687.969 693.46 688.115 693.276 687.969L693.276 688.004ZM457.518 731.12C457.518 719.205 466.907 719.718 478.058 718.508C487.226 717.518 496.322 716.162 505.455 714.438C591.572 698.16 621.317 661.46 637.161 654.457C634.227 664.466 625.241 676.125 620.106 682.505C612.221 692.257 594.103 704.063 582.292 711.285C573.05 716.931 541.618 732.11 539.93 735.556C537.731 742.449 545.065 750.148 546.973 754.915C516.458 762.137 491.077 766.903 457.665 767.71L457.482 731.12H457.518ZM359.298 735.85C353.539 730.204 339.822 724.594 330.873 719.535C312.351 709.049 291.923 697.537 278.463 681.735C272.043 674.219 265.075 665.383 261.224 654.347L280.369 667.583C283.671 669.6 286.678 672.423 289.979 674.329C309.931 685.878 318.256 691.487 342.573 700.653C366.156 709.526 395.021 715.832 420.768 718.508C430.341 719.498 440.94 719.645 440.94 730.057L440.794 767.527C421.539 768.077 366.743 761.441 351.486 754.365C354.64 751.138 359.114 742.559 359.261 735.813L359.298 735.85ZM161.206 675.612C157.576 679.425 159.886 680.415 159.41 682.028L157.356 679.902C145.398 665.823 152.881 674.769 158.272 671.726L175.437 657.39C169.459 648.775 169.678 655.777 165.535 652.038L171.623 648.371C172.759 650.424 185.266 667.546 187.32 667.913C185.303 669.746 183.946 671.652 180.755 672.936C182.112 665.676 183.469 669.489 180.278 662.047C175.473 663.22 164.69 671.982 161.206 675.649L161.206 675.612ZM727.166 651.084C727.899 647.381 729.88 646.245 732.08 643.092C733.254 644.705 732.117 643.018 732.741 644.888C733.108 645.915 732.594 645.218 733.291 646.648C734.721 649.655 739.636 652.478 742.313 654.604C745.76 657.317 753.059 662.23 755.077 665.676L721.04 666.703C724.048 669.673 728.303 672.642 731.75 675.392C744.11 685.291 740.039 675.979 742.533 679.682L737.361 686.904C733.217 680.342 742.386 686.794 725.992 673.999C714.329 664.906 719.024 667.619 714.109 667.803C714.036 667.803 713.706 667.913 713.632 667.766C713.596 667.619 713.301 667.766 713.191 667.693C715.502 665.456 715.905 664.063 717.703 661.79L745.43 661.057C744.404 658.674 739.122 655.227 737.105 653.651C732.263 649.801 732.08 648.555 727.092 651.121L727.166 651.084ZM136.413 650.938C143.419 653.577 145.435 649.545 151.634 645.512C165.021 636.859 159.666 638.949 161.793 634.586L168.102 644.522C161.683 642.689 165.461 642.285 153.504 650.424C151.12 652.074 148.7 653.284 146.059 655.301C140.448 659.59 145.839 656.877 142.979 661.167C141.218 659.004 137.551 654.054 136.45 650.901L136.413 650.938ZM748.769 618.307C751.813 619.738 754.307 620.617 754.049 622.927L747.374 623.184L745.284 627.657L757.864 636.016C770.628 644.668 766.006 640.672 770.958 639.352C769.674 642.395 766.043 647.748 764.062 651.011C762.448 648.115 765.75 647.345 761.275 643.972L741.36 632.496C737.105 643.202 741.176 636.639 740.883 643.752L734.684 639.755L748.804 618.307H748.769ZM126.62 630.076C131.718 628.133 144.189 620.544 148.296 617.391L146.536 612.881C143.051 611.708 141.511 612.845 139.274 611.268C141.658 609.252 142.904 608.592 146.169 607.895C148.003 612.441 149.8 614.751 152.441 619.261C154.202 622.304 157.392 626.74 158.382 630.003L151.744 633.266C151.927 628.243 156.731 629.416 151.23 622.487C143.712 625.347 136.303 631.763 129.224 634.366C128.894 637.739 129.884 637.776 128.601 639.645L121.963 628.133C125.263 628.427 122.366 628.463 126.62 630.076ZM751.335 613.578C752.363 609.912 754.673 605.695 756.984 603.202C760.248 609.435 756.213 606.209 768.574 613.028C780.383 619.554 777.853 619.297 783.317 616.804C783.061 620.361 779.833 624.137 778.586 627.693C778.403 627.473 778.256 627.143 778.183 626.997C774.699 620.471 770.114 619.371 758.854 613.468C755.04 611.451 754.49 612.148 751.335 613.615L751.335 613.578ZM775.395 574.018C784.968 571.16 793.66 578.161 795.605 584.027C798.795 593.707 792.341 602.946 785.372 604.852C764.099 610.682 754.857 580.178 775.432 574.018H775.395ZM115.984 594.147C115.397 598.584 113.086 596.127 111.656 600.526C109.675 606.613 117.304 612.625 121.155 608.005C123.319 605.365 122.403 601.736 122.403 597.959C122.476 582.341 139.75 582.781 141.218 602.286L134.469 604.595C135.643 598.179 135.423 603.496 137.146 599.206C139.457 593.45 133.222 588.94 129.628 591.763C124.237 597.593 131.718 610.608 121.082 612.918C111.216 615.044 108.392 605.292 107.585 596.31L115.947 594.146L115.984 594.147ZM91.2272 559.391C96.8023 559.574 90.604 564.193 115.507 554.074C117.304 553.34 117.488 553.377 118.551 552.13C119.542 551.031 118.844 551.728 119.725 550.262L120.422 548.867C123.466 558.913 122.549 556.971 117.561 565.367C115.177 569.363 110.592 576.255 109.052 580.398C113.013 579.481 116.608 577.869 120.495 576.512C129.151 573.543 124.787 575.156 127.904 569.84L131.168 578.932C130.875 578.786 130.545 578.566 130.362 578.456L126.73 577.099C123.686 576.989 107.071 585.274 99.8824 585.531L117.011 556.384C113.269 556.971 108.539 559.061 104.577 560.564C90.3098 565.88 97.8656 565.403 94.6384 568.08L91.2271 559.354L91.2272 559.391ZM86.1293 540.033C89.3195 541.902 89.4295 542.818 93.7941 541.718C120.715 535.082 111.803 535.155 115.617 532.332L118.771 543.772L115.104 541.645C113.123 541.205 112.866 541.498 110.74 542.048L94.6385 546.522C89.2465 548.354 91.7775 547.585 89.2465 551.617L86.0923 540.032L86.1293 540.033ZM802.719 546.155C799.895 544.909 795.348 543.515 792.046 542.415C791.57 542.268 786.876 540.801 786.471 540.801C782.438 540.655 782.328 543.258 781.924 542.598C781.778 542.378 781.448 543.002 781.117 543.186L783.537 534.129C783.721 534.349 783.941 534.679 784.051 534.825C790.47 543.038 800.042 540.105 812.402 546.778C810.312 549.674 800.299 552.608 796.924 553.928C791.9 555.871 786.105 557.924 781.704 560.124C784.968 562.36 789.516 563.057 793.624 564.45C806.754 568.887 802.793 564.889 806.644 564.083L802.536 571.93C802.463 571.746 802.316 571.416 802.206 571.27C800.923 569.18 800.886 569.18 797.254 568.043C780.897 563.02 781.373 561.004 774.259 564.56C777.669 550.042 783.207 556.603 802.719 546.191L802.719 546.155ZM184.936 393.452C185.12 393.232 185.303 392.902 185.377 392.719L186.147 391.252C186.257 390.996 186.367 390.739 186.441 390.482C186.807 389.456 187.027 388.246 187.247 387.146C187.687 385.13 188.055 383.48 188.568 381.317C196.747 347.11 211.491 317.229 231.48 289.035C260.491 248.119 302.559 216.516 348.955 197.451C425.059 166.14 520.933 173.95 590.178 217.762C620.327 236.827 632.32 248.999 654.473 273.307C684.621 306.34 701.713 347.073 712.789 393.232C721.555 383.186 710.515 365.551 713.229 353.673C720.455 356.276 717.887 363.462 728.524 362.508C744.955 337.137 710.258 315.653 702.299 304.471C695.514 294.938 692.14 281.373 700.392 270.154C710.625 256.222 711.542 254.425 702.556 238.697C718.144 243.866 717.631 255.928 710.442 272.024C703.95 286.616 714.99 300.291 721.995 306.267C731.238 314.15 741.801 320.639 749.502 328.962C786.436 369.181 765.934 399.978 748.989 435.431C722.839 490.206 789.993 480.967 769.858 457.576C765.86 457.246 764.32 456.439 762.559 459.226C761.129 461.426 762.376 462.746 760.836 464.945C754.563 454.753 760.138 448.704 772.425 448.41C769.601 445.074 755.15 431.582 761.239 421.133C767.254 422.599 761.826 426.229 770.188 435.358C790.103 457.099 819.811 433.268 813.76 457.246C838.225 460.289 834.004 452.37 837.965 451.673C843.137 452.553 845.998 454.606 846.148 459.813C838.365 473.268 812.697 461.976 808.588 463.845C811.119 468.978 817.427 469.015 824.543 469.125C823.81 476.568 821.096 475.064 814.456 476.018C809.285 476.751 806.975 479.061 801.804 480.307C803.454 476.164 805.508 470.188 798.172 471.618C794.835 472.241 792.89 476.641 791.057 479.427C778 499.005 751.483 502.012 733.805 488.116C700.539 461.976 740.663 406.174 741.874 383.956C742.387 374.167 733.915 368.778 726.799 374.277C721.518 378.347 721.445 387.293 721.921 395.432C722.654 408.301 718.547 409.694 716.786 417.283C716.163 419.96 717.631 438.365 717.631 443.424C717.777 583.111 607.123 706.409 455.685 710.075C390.914 711.652 336.081 691.414 287.045 655.924C272.888 645.695 254.769 628.5 243.986 614.971C239.916 609.838 235.661 605.329 231.663 599.646C165.168 505.898 185.084 425.129 181.416 415.377C180.132 411.93 178.592 410.5 177.565 405.844C175.438 396.202 181.122 374.534 168.652 372.554C151.194 369.804 157.722 390.299 160.804 399.062C169.643 424.396 189.815 458.126 169.166 483.717C161.574 493.139 145.546 500.142 128.492 494.863C109.163 488.886 107.072 470.885 97.3891 471.545C94.5291 475.028 95.2993 475.871 97.023 480.307C91.631 479.244 89.5773 476.678 83.599 475.908C76.7405 475.028 75.1629 476.568 74.2465 469.052C80.922 469.052 87.3033 469.052 89.9443 463.845C84.6993 461.756 66.5076 472.718 52.7535 461.132C52.2403 454.423 55.0273 452.517 61.0796 451.637C69.1116 458.053 67.8281 458.969 84.5893 457.283C84.2592 450.207 80.8479 445.477 93.8317 445.404C103.807 445.331 119.799 446.174 128.968 435.395C135.386 427.842 132.416 423.039 136.964 421.059C145.179 430.225 126.951 447.53 126.401 448.374C139.054 448.557 144.189 453.58 137.954 464.689C137.807 464.469 137.734 464.139 137.66 463.992C137.587 463.845 137.441 463.479 137.404 463.259C137.331 463.039 137.257 462.746 137.184 462.489C133.81 451.747 125.117 458.236 125.153 464.799C125.263 483.13 166.379 481.884 152.844 442.837C144.335 418.273 123.76 397.045 129.555 365.111C134.506 337.907 158.53 320.199 175.071 307.257C204.596 284.159 181.196 268.907 183.69 251.749C184.716 244.636 189.961 239.907 196.307 238.587C193.52 243.536 189.338 246.726 190.511 255.672C191.392 262.454 196.16 266.524 199.058 270.74C215.232 294.498 184.9 314.553 173.86 328.522C168.029 335.928 161.207 355.542 171.88 362.692C181.122 361.665 177.895 356.532 185.194 353.673L185.781 358.842C185.707 359.575 185.157 362.105 184.973 363.095C182.737 375.377 182.002 381.867 185.046 393.452H184.936ZM212.224 171.823C216.259 177.872 215.415 182.015 222.237 186.085C226.418 188.578 230.489 194.994 233.056 198.771C237.201 204.82 251.872 227.514 235.294 228.431L217.652 213.069C187.137 188.358 214.571 193.528 217.432 192.428L211.894 186.122C207.603 181.392 207.53 186.635 204.045 182.639C203.898 182.455 197.81 169.11 212.224 171.823ZM228.142 190.191C227.628 184.289 232.103 181.759 234.231 175.966C235.331 172.996 237.715 163.097 238.925 161.044C242.996 154.078 246.48 161.044 243.326 169.66C241.492 174.719 238.521 178.899 240.245 184.509L246.664 185.095L250.735 178.312C255.429 179.302 264.855 189.788 266.065 195.654C267.68 203.463 263.498 210.173 256.053 207.57C246.517 204.233 253.706 209.879 248.938 215.819C246.664 213.289 247.581 213.839 246.517 207.973C246.04 205.333 245.124 202.437 244.353 199.834C242.446 193.564 241.089 189.715 237.421 186.525C232.58 187.368 234.267 189.531 228.215 190.228L228.142 190.191ZM668.703 167.497C672.481 164.38 668.923 166.067 663.972 164.82C661.405 164.197 662.908 164.857 661.442 163.721C663.495 159.174 675.745 159.724 679.376 162.694C678.789 167.02 678.313 165.884 674.755 168.633C672.701 170.21 671.931 171.236 670.024 173.106C668.446 174.609 666.723 176.333 665.072 177.433C660.194 180.659 661.735 176.993 660.047 182.749C663.275 181.282 668.63 180.072 673.251 178.386C682.053 175.196 677.139 177.469 685.282 176.993C687.959 173.876 689.536 170.503 694.964 171.383C697.311 176.809 692.653 186.598 686.052 182.565L680.88 178.716C679.559 184.765 679.964 182.859 686.088 185.462C698.118 190.595 693.056 195.031 689.169 199.32C686.235 202.547 686.565 203.683 684.291 206.433C680.22 204.673 677.836 197.451 677.689 193.051C679.524 194.444 683.777 196.241 686.565 194.408C684.437 189.421 674.499 188.102 671.528 188.835L667.566 191.328C670.06 194.958 667.823 192.025 671.858 194.591C675.562 196.937 672.775 193.894 674.902 197.487C673.912 200.714 673.508 201.63 669.327 202.107C671.088 205.077 670.354 204.637 669.547 207.35L660.745 207.9L659.497 210.613C657.26 214.352 655.61 213.216 653.006 215.966L654.326 217.029C654.509 217.175 654.804 217.359 655.024 217.505C655.244 217.652 655.5 217.799 655.72 217.909C656.967 218.605 657.481 218.679 658.691 219.155C660.562 219.852 662.322 220.402 663.826 220.952C667.493 217.652 668.814 212.519 672.041 208.89C675.819 209.843 676.259 210.539 678.239 212.923C677.543 216.772 674.902 216.845 671.088 228.248C662.872 228.174 648.824 220.475 647.761 213.949C650.292 209.879 653.409 210.356 655.427 207.166C649.559 206.36 646.295 207.973 641.893 206.213C642.626 199.907 645.157 201.704 651.539 200.677L653.593 196.021C660.415 197.414 659.791 199.944 667.64 201.08C665.733 196.021 665.292 197.451 666.246 191.695L658.214 192.794L657.628 186.122C653.849 186.305 654.693 187.038 652.273 184.765L649.595 181.246C649.485 180.732 649.191 180.659 648.898 180.402C648.165 182.015 647.431 182.749 646.955 183.885C644.534 189.495 651.943 184.215 645.084 188.761C639.876 192.208 639.106 193.308 636.612 198.917C631.77 198.514 629.569 198.661 629.496 193.528C629.423 189.201 630.927 188.248 633.018 186.195C638.629 180.732 648.311 168.303 653.226 165.334C664.192 158.624 659.131 170.577 658.801 173.143C662.506 172.85 665.623 170.21 668.887 167.533L668.703 167.497ZM654.583 178.826C654.876 178.349 656.527 177.799 658.618 173.106L656.16 174.646C653.703 177.176 654.546 175.929 654.583 178.826ZM228.105 183.042C224.584 178.936 226.492 174.06 225.244 168.743C223.264 160.384 217.8 166.837 219.706 158.478C220.329 158.038 228.583 157.378 230.122 157.671C235.331 158.698 233.606 161.117 232.47 164.894C230.416 171.86 231.443 176.003 228.105 183.079L228.105 183.042ZM328.232 157.598C330.543 151.035 345.508 148.065 345.581 160.421C342.06 163.281 339.015 163.244 334.688 164.82L333.807 163.611C329.517 157.928 330.543 161.997 328.232 157.561V157.598ZM554.345 149.825C561.571 149.495 569.823 153.748 575.544 156.278L577.415 152.245C578.002 151.182 578.808 150.265 579.505 149.239C575.361 146.782 573.38 148.359 572.72 143.189C577.965 137.14 587.647 141.943 593.039 145.316C591.866 156.938 585.557 150.155 584.567 158.624C589.518 161.741 603.308 158.881 596.744 169.513C591.389 170.54 588.968 168.707 584.97 167.167C581.193 172.226 579.212 175.819 569.31 172.006C564.285 170.1 557.939 166.91 555.262 163.757C568.099 159.578 567.915 166.874 575.361 165.774C577.415 165.48 576.754 165.517 577.929 164.747C577.745 164.564 577.489 164.307 577.342 164.197C569.676 157.378 561.277 158.441 554.712 156.608L554.308 149.862L554.345 149.825ZM304.98 134.793C310.188 124.931 310.078 113.822 324.015 116.388C330.433 128.634 322.474 131.604 315.25 136.92C316.13 139.853 317.12 142.749 318.55 144.839C321.081 143.666 322.474 142.383 324.015 140.953C323.208 136.993 322.291 139.193 322.621 134.39C330.103 132.74 337.256 137.103 333.514 142.969C331.498 145.829 327.463 145.939 320.09 147.222C323.024 159.798 333.551 174.756 316.056 181.502L315.102 165.81C310.335 166.874 312.939 167.827 307.621 169.367C304.943 153.271 305.017 157.818 313.709 158.184C314.185 151.512 309.491 144.069 305.75 142.309C302.853 149.898 304.797 154.738 298.488 159.101C293.977 158.404 291.043 153.821 292.253 148.029C294.197 138.716 293.537 140.843 291.813 132.08C299.589 131.53 299.149 132.85 304.943 134.793H304.98ZM577.599 126.251C599.751 126.251 600.924 118.808 605.436 118.515C609.911 118.258 613.945 125.627 605.253 126.617C600.008 127.241 593.92 127.094 588.565 127.571C588.821 127.754 589.151 127.937 589.335 128.047C594.36 130.797 595.679 129.917 599.494 132.63C603.308 135.343 603.968 138.643 603.198 144.509C600.411 146.342 598.76 147.662 594.873 146.599C593.295 141.466 599.898 139.523 589.555 136.48C584.567 135.013 576.791 134.5 571.509 135.27C567.805 140.256 569.382 146.122 561.424 145.939C558.562 143.409 556.619 135.453 559.187 130.907C561.864 126.214 571.876 126.251 577.671 126.251H577.599ZM592.965 113.382C595.57 114.225 596.377 115.618 598.65 118.551C593.405 118.588 588.675 118.148 592.965 113.382ZM302.119 128.597C301.863 127.864 301.568 126.251 301.348 125.371C298.854 115.545 288.952 112.612 298.304 109.936C310.298 106.489 308.024 126.031 304.099 131.897C303.146 130.907 303.549 131.604 302.743 130.064C302.596 129.807 302.266 128.927 302.156 128.597H302.119ZM581.816 117.378C579.322 112.869 579.762 107.479 585.666 106.709C587.684 110.046 586.327 108.176 587.281 111.585L589.665 116.498L581.816 117.415V117.378ZM431.294 113.639C427.407 118.038 424.289 115.068 425.609 123.868C426.49 129.66 427.92 151.475 426.637 155.251C420.621 153.125 418.788 133.07 416.734 124.564C412.259 125.591 404.998 136.003 403.09 127.644C401.293 119.761 409.215 118.441 405.328 110.486C401.366 102.383 404.3 107.772 404.3 101.136C404.3 95.9307 401.146 98.0571 401.659 92.4477C406.207 90.8345 406.024 91.4578 410.682 92.0077C411.966 86.5082 411.819 84.1984 418.017 83.7585C421.832 90.6878 422.345 99.5603 423.702 108.836C428.03 108.396 438.006 106.049 431.221 113.675L431.294 113.639ZM475.307 99.157C494.745 98.2038 488.474 99.817 498.376 88.5247L505.822 90.0279C506.262 98.8637 496.065 97.5072 492.215 114.738C500.797 112.282 488.804 112.979 504.684 110.449C507.912 99.377 511.14 102.09 510.737 89.7712C519.062 89.5146 517.961 91.3478 517.155 99.157C526.691 106.453 525.114 102.42 527.828 106.343C525.297 114.225 511.177 112.575 507.986 117.598C509.526 121.631 512.166 120.201 517.008 121.778C519.209 128.707 514.514 133.84 512.716 139.449C516.898 141.723 518.145 142.639 521.446 145.719C522.033 160.751 510.883 152.648 508.059 145.059C503.328 145.756 499.073 147.589 493.498 147.295C485.722 146.892 486.933 145.572 483.962 140.366L481.725 147.589C474.866 145.719 471.785 139.01 468.815 131.97L459.462 132.227C459.169 126.874 460.746 128.267 461.81 125.151C462.58 122.841 461.552 122.328 461.222 118.368C466.54 118.625 474.719 120.421 480.001 118.441C483.999 116.938 486.97 110.816 487.446 105.316C482.018 101.76 477.323 105.279 475.27 99.1937L475.307 99.157ZM375.656 125.481C371.474 121.008 372.942 119.138 375.583 114.445C381.891 103.226 382.221 101.246 385.008 91.0545C386.732 84.785 392.417 87.6448 396.378 89.5513C396.378 95.4174 395.864 93.6942 392.93 96.9572L382.661 115.838C391.83 115.655 387.832 112.502 393.04 107.039C396.048 107.992 397.699 108.322 400.229 110.412C399.423 114.775 398.322 113.272 396.598 117.598C399.202 119.285 397.735 118.148 401.073 116.682C401.183 123.721 397.882 125.554 400.633 131.42C402.907 136.26 406.134 137.873 403.823 144.729C395.864 146.599 396.781 139.963 392.234 136.406C388.566 139.926 389.006 144.216 382.954 143.849C377.893 138.24 378.92 128.194 385.889 125.627C391.61 128.414 385.485 126.947 390.033 129.807C394.361 115.508 380.534 125.077 375.619 125.481H375.656ZM455.611 844.886C615.485 844.886 758.561 740.139 815.814 611.671C840.756 555.76 852.34 506.778 852.34 439.171C852.34 374.901 829.164 294.351 797.769 244.783L778.22 215.122C765.09 195.837 749.209 178.312 732.851 162.107C702.409 131.934 664.155 103.446 615.632 81.5953C484.292 22.4576 337.035 37.9295 218.46 118.221C191.759 136.296 172.063 154.885 151.781 176.589C121.083 209.476 102.744 237.45 81.9851 280.933C33.7553 381.977 35.3318 507.988 81.5449 609.068C92.0338 632.02 104.615 653.944 117.634 672.312C144.409 710.149 179.178 746.042 217.505 772.22C288.181 820.505 363.406 844.849 455.574 844.849L455.611 844.886Z" fill="white"/>
    <path fill-rule="evenodd" clip-rule="evenodd" d="M437.017 512.204C426.344 516.347 418.568 509.198 421.209 498.089C423.263 489.4 434.706 485.843 441.82 491.966C449.083 498.199 450.147 521.223 429.974 527.456C426.453 528.556 427.333 528.739 424.693 527.346L426.49 525.99C426.673 525.88 426.93 525.696 427.113 525.586C431.772 522.543 435.402 520.197 436.943 512.241L437.017 512.204ZM392.087 498.639C392.234 498.456 392.49 498.199 392.6 498.126C395.534 495.522 404.411 488.96 407.528 488.776L407.748 524.816C413.323 527.089 412.883 524.01 413.616 528.116H394.068C395.131 524.67 393.848 527.163 396.855 525.55C397.149 525.403 398.909 525 399.899 524.596L399.679 497.172C396.929 498.565 394.911 500.032 392.124 498.602L392.087 498.639ZM451.65 500.472C451.503 487.53 449.156 489.766 476.92 489.84C477.764 495.009 471.895 506.815 469.842 511.911C462.616 529.986 466.32 528.703 456.968 528.519L470.429 496.659C444.864 496.659 459.389 498.199 451.65 500.509L451.65 500.472ZM485.687 509.564C485.54 506.448 485.137 492.333 486.64 490.683C487.52 489.73 502.484 488.996 504.172 489.033C503.548 497.576 504.099 495.889 488.731 496.072L488.364 502.818C494.672 502.525 500.723 503.148 503.878 506.778C506.555 509.858 507.876 516.09 505.712 521.04C501.531 530.609 480.515 531.636 483.926 521.847C490.895 518.914 488.254 524.45 492.948 525.88C496.873 527.053 498.89 523.68 499.367 519.867C501.09 506.265 488.401 510.078 485.687 509.564ZM698.264 479.427C696.285 507.291 680.77 544.871 669.107 565.586C657.737 585.787 646.844 599.683 631.917 615.448C586.474 663.513 519.942 694.017 449.413 693.687C396.489 693.43 356.034 679.718 313.965 654.457L281.03 630.003C263.462 613.835 243.07 590.627 229.536 565.732C218.02 544.541 201.955 507.878 200.304 479.244L230.012 479.317C238.081 521.883 257.19 564.119 286.495 593.596C298.855 586.081 311.361 573.835 331.204 563.936C325.226 537.098 317.193 508.685 317.046 479.244L346.571 479.427C348.112 492.113 349.175 504.322 351.266 516.64C353.357 528.886 356.327 539.885 358.638 551.251C365.24 550.187 373.272 547.254 380.388 545.568C403.383 540.032 425.536 537.502 449.339 537.209C493.536 536.622 502.814 542.561 538.831 550.921C545.763 528.446 547.854 504.138 551.081 479.317L580.606 479.281C580.349 508.538 572.39 536.695 566.706 563.203C569.933 566.282 574.884 568.299 578.552 570.315C590.839 577.098 608.663 592.533 613.065 593.523C615.706 589.16 619.006 586.264 622.564 581.608C631.623 569.839 640.316 556.75 647.468 542.965C665.072 509.014 665.182 487.75 668.704 479.281L698.191 479.427H698.264ZM220.77 430.115C283.157 428.905 358.014 430.042 421.759 430.042C441.564 430.042 446.149 441.884 449.449 444.597C453.668 440.491 454.291 437.631 459.939 434.368C464.304 431.802 469.732 430.042 476.113 430.042H675.965C679.156 430.812 697.311 455.046 699.622 458.566C644.974 460.252 573.564 458.786 516.055 458.639C478.828 458.566 485.32 476.531 472.996 476.531H425.867C418.825 476.531 419.375 474.551 416.22 470.408C413.726 467.145 411.599 465.752 407.638 463.625C398.395 458.639 393.298 458.603 381.817 458.639C359.921 458.676 206.98 459.849 198.911 458.163L220.807 430.115H220.77ZM200.744 409.071C199.498 399.795 208.446 371.601 211.527 362.325C217.506 344.323 230.342 318.879 241.015 303.737C259.501 277.56 287.706 249.512 314.993 233.234C387.54 189.971 467.091 181.905 546.643 214.059C598.358 234.957 641.269 274.627 669.217 323.022C677.799 337.907 699.402 388.356 697.934 408.997C690.197 409.254 680.404 409.474 672.738 409.181C666.98 408.961 668.153 408.007 667.09 402.141C662.138 374.571 649.228 344.8 634.081 322.289C629.166 314.993 616.879 298.311 611.341 294.535C603.786 298.971 597.22 305.534 589.261 310.667C585.118 313.343 568.943 321.959 566.522 324.525C570.116 340.657 583.137 393.489 580.203 409.071L551.411 408.924C548.88 399.465 548.147 381.94 546.239 371.014C544.185 359.172 541.325 348.063 538.868 336.771C527.498 339.374 516.055 344.14 503.512 346.853C489.795 349.86 478.021 350.666 463.754 352.463L463.241 409.071L434.119 409.034L433.936 352.169C420.769 351.656 406.832 349.493 394.325 346.707C381.377 343.81 364.396 337.577 358.748 336.404C357.134 347.146 353.283 360.015 351.229 372.077C349.468 382.306 348.735 399.905 346.278 409.034L317.487 409.071C314.222 391.766 328.197 341.427 331.314 323.645C324.675 320.419 313.855 314.003 308.281 309.823C304.247 306.817 289.355 295.231 285.871 294.388C279.232 305.387 268.156 312.023 250.882 345.387C233.496 378.933 236.174 392.389 229.572 409.071H200.671H200.744ZM451.467 701.203C591.169 701.203 708.791 585.164 708.644 445.404C708.534 340.364 648.018 252.849 556.619 210.283C527.168 196.571 488.584 187.112 451.467 187.112C252.643 187.075 124.053 395.615 225.134 573.248C227.115 576.731 229.059 579.774 231.37 583.404C233.46 586.704 235.807 589.38 237.678 592.423C241.675 598.839 246.92 604.522 251.725 610.132C276.995 639.719 306.043 662.56 343.05 678.655C376.646 693.247 410.426 701.203 451.467 701.203Z" fill="white"/>
    <path fill-rule="evenodd" clip-rule="evenodd" d="M869.947 464.872C863.384 593.926 800.19 693.467 736.115 750.295C733.511 752.605 732.778 753.705 730.1 756.528L708.058 774.456C683.228 795.207 639.362 819.222 608.663 831.871C556.546 853.319 492.876 865.417 428.948 862.374C366.524 859.405 311.618 843.346 262.618 819.515C214.718 796.234 171.036 762.211 135.753 724.081C64.1968 646.721 23.3027 534.312 28.7307 425.496C34.2688 314.223 85.5427 209.146 162.82 140.513C167.295 136.553 171.587 132.3 176.061 128.157C180.866 123.684 185.597 120.861 190.915 116.388C216.919 94.5375 259.171 71.8429 290.383 59.0841C343.05 37.5629 406.097 25.6473 469.989 28.727C562.011 33.1633 632.247 63.0071 700.979 111.145C706.223 114.812 710.735 118.698 715.54 122.218L743.817 147.185C779.027 180.292 816.694 233.967 838.995 287.605C860.703 339.741 873.098 401.555 869.877 464.872H869.947ZM431.184 0.569595C362.086 3.75929 306.813 19.3778 252.055 45.372C239.512 51.3481 226.968 58.1308 216.075 64.7302C171.549 91.751 129.372 128.634 96.9488 168.963C72.7058 199.137 49.4893 238.11 34.3417 274.37C-15.0246 392.719 -11.2472 527.713 46.1881 642.469C69.2586 688.554 104.908 737.72 141.988 770.02C152.331 779.039 159.006 786.152 171.624 795.684C257.263 860.541 355.961 895.371 468.448 890.495C535.053 887.599 594.836 870.844 646.954 845.473C662.578 837.883 685.465 824.831 699.769 815.299C739.232 789.048 757.791 769.103 789.04 736.546L801.767 721.624C809.322 711.725 818.931 700.36 825.533 689.067C832.098 677.849 839.656 666.813 846.218 654.421C927.638 500.325 913.303 318.366 809.579 179.706C796.486 162.181 773.819 135.563 756.801 120.825C753.977 118.405 753.024 117.488 749.906 114.409L735.015 101.65C713.266 84.455 683.301 63.557 659.021 51.5681C588.087 16.5181 517.228 -3.46331 431.147 0.496295L431.184 0.569595Z" fill="#09337B"/>
    <path fill-rule="evenodd" clip-rule="evenodd" d="M463.826 227.001C490.527 231.071 524.49 285.186 529.442 308.503C511.25 314.7 485.649 323.059 463.826 322.509V227.001ZM368.504 308.21C374.042 285.296 394.435 255.342 411.196 240.2C418.238 233.857 423.483 230.228 434.155 226.708L434.118 322.729C407.675 320.969 390.913 315.506 368.504 308.247V308.21ZM529.735 244.38C528.855 243.243 525.04 238.917 525.297 238.697C525.517 238.513 525.773 238.403 525.81 238.11C525.847 237.78 526.324 237.854 526.544 237.67C530.652 240.127 538.207 242.51 543.525 244.893C549.614 247.643 554.052 250.209 559.7 253.325C570.74 259.411 579.982 267.074 589.115 272.83C586.144 278.806 561.607 293.472 557.132 295.121C553.429 289.805 543.965 262.528 529.772 244.38H529.735ZM339.125 253.215C348.919 247.239 361.058 242.106 372.355 237.927C369.531 243.39 361.206 252.995 355.153 265.131L340.85 294.791C334.615 292.555 322.658 283.682 316.313 279.393C311.251 275.983 310.885 275.8 309.564 272.574L339.162 253.179L339.125 253.215ZM200.781 409.071H229.682C236.284 392.426 233.606 378.97 250.992 345.387C268.266 312.023 279.342 305.424 285.981 294.388C289.429 295.231 304.319 306.817 308.391 309.823C313.965 313.966 324.785 320.382 331.423 323.645C328.306 341.39 314.332 391.766 317.596 409.071L346.388 409.034C348.845 399.905 349.578 382.27 351.339 372.077C353.43 360.015 357.281 347.183 358.858 336.404C364.506 337.577 381.524 343.773 394.435 346.707C406.941 349.493 420.842 351.656 434.045 352.169L434.229 409.034L463.35 409.071L463.863 352.463C478.131 350.666 489.904 349.86 503.621 346.853C516.128 344.103 527.608 339.374 538.977 336.771C541.435 348.063 544.295 359.172 546.349 371.014C548.257 381.977 548.99 399.465 551.521 408.924L580.312 409.071C583.247 393.489 570.226 340.657 566.631 324.525C569.052 321.959 585.19 313.343 589.371 310.667C597.294 305.534 603.895 298.971 611.451 294.535C616.989 298.311 629.276 315.03 634.19 322.289C649.374 344.8 662.248 374.571 667.2 402.141C668.263 408.007 667.09 408.961 672.848 409.181C680.513 409.437 690.306 409.254 698.044 408.997C699.512 388.356 677.909 337.907 669.326 323.022C641.379 274.663 598.467 234.957 546.753 214.059C467.201 181.905 387.649 189.935 315.102 233.234C287.815 249.512 259.611 277.56 241.125 303.737C230.452 318.879 217.615 344.287 211.637 362.325C208.556 371.601 199.608 399.795 200.854 409.071H200.781Z" fill="#09337B"/>
    <path fill-rule="evenodd" clip-rule="evenodd" d="M525.517 650.388C527.388 646.098 531.165 641.882 534.613 636.969C545.14 621.9 554.492 596.64 557.389 592.313L574.077 602.506C577.121 604.302 578.735 605.402 581.962 607.968C583.32 609.032 584.677 610.022 586.034 611.048L589.335 614.348C581.706 622.964 542.279 647.381 525.553 650.351L525.517 650.388ZM309.417 614.385C310.995 611.451 313.452 610.168 316.863 607.858C322.584 603.936 335.055 594.806 340.813 593.01C343.344 596.676 345.801 604.375 347.819 608.445C360.178 633.853 366.413 638.986 372.319 650.168C358.895 648.188 329.003 629.563 316.496 620.287L311.141 616.291C309.711 615.008 310.628 616.034 309.454 614.421L309.417 614.385ZM463.826 565.073C487.52 564.559 509.672 573.285 529.698 579.005C524.527 599.756 502.961 635.026 487.226 648.005C481.872 652.404 472.849 659.81 463.826 661.423V565.036V565.073ZM368.284 579.298C393.627 572.588 401.917 566.539 434.155 564.889L434.081 661.607C403.897 654.091 374.335 604.046 368.247 579.298H368.284ZM698.301 479.391L668.813 479.244C665.292 487.75 665.182 508.978 647.577 542.928C640.426 556.677 631.732 569.765 622.674 581.571C619.116 586.191 615.779 589.087 613.175 593.486C608.773 592.497 590.985 577.061 578.662 570.279C574.994 568.262 570.043 566.246 566.815 563.166C572.5 536.659 580.496 508.501 580.716 479.244L551.191 479.281C547.964 504.102 545.873 528.409 538.941 550.884C502.924 542.561 493.644 536.622 449.449 537.172C425.646 537.502 403.457 539.995 380.498 545.531C373.382 547.254 365.35 550.151 358.748 551.214C356.437 539.885 353.467 528.886 351.376 516.604C349.285 504.285 348.222 492.076 346.681 479.391L317.156 479.207C317.303 508.611 325.335 537.062 331.314 563.899C311.471 573.835 298.965 586.081 286.605 593.56C257.3 564.083 238.155 521.847 230.122 479.281L200.414 479.207C202.065 507.841 218.13 544.504 229.646 565.696C243.18 590.553 263.571 613.761 281.14 629.966L314.075 654.421C356.107 679.682 396.599 693.394 449.523 693.65C520.052 693.98 586.584 663.513 632.027 615.411C646.954 599.609 657.847 585.751 669.217 565.549C680.88 544.834 696.358 507.255 698.374 479.391L698.301 479.391Z" fill="#09337B"/>
    <path fill-rule="evenodd" clip-rule="evenodd" d="M451.54 701.203C410.499 701.203 376.719 693.247 343.124 678.655C306.117 662.56 277.032 639.719 251.798 610.132C246.993 604.485 241.749 598.839 237.751 592.423C235.844 589.38 233.496 586.704 231.443 583.404C229.169 579.738 227.188 576.731 225.208 573.248C124.127 395.615 252.715 187.112 451.54 187.112C488.657 187.112 527.241 196.571 556.693 210.283C648.128 252.849 708.607 340.364 708.717 445.404C708.864 585.201 591.242 701.203 451.54 701.203ZM184.936 393.489C181.892 381.903 182.627 375.414 184.863 363.132C185.046 362.142 185.597 359.612 185.671 358.879L185.083 353.709C177.748 356.532 181.012 361.665 171.77 362.728C161.097 355.579 167.919 335.928 173.75 328.558C184.753 314.59 215.122 294.571 198.948 270.777C196.087 266.561 191.282 262.491 190.401 255.708C189.265 246.726 193.409 243.573 196.196 238.623C189.851 239.943 184.643 244.673 183.58 251.786C181.086 268.944 204.485 284.196 174.961 307.294C158.419 320.236 134.396 337.944 129.445 365.148C123.65 397.082 144.225 418.31 152.734 442.874C166.268 481.92 125.153 483.167 125.043 464.835C125.007 458.273 133.699 451.783 137.074 462.526C137.147 462.746 137.257 463.076 137.294 463.296C137.367 463.515 137.514 463.882 137.551 464.029C137.587 464.175 137.697 464.542 137.844 464.725C144.079 453.616 138.98 448.557 126.291 448.41C126.878 447.567 145.069 430.225 136.854 421.096C132.306 423.076 135.276 427.879 128.858 435.431C119.689 446.21 103.697 445.367 93.7216 445.441C80.7378 445.514 84.1491 450.243 84.4792 457.319C67.718 459.006 69.0015 458.089 60.9695 451.673C54.9173 452.553 52.1302 454.46 52.6434 461.169C66.3605 472.791 84.5892 461.792 89.8341 463.882C87.2302 469.052 80.8118 469.052 74.1363 469.088C75.0526 476.604 76.6302 475.064 83.4888 475.944C89.467 476.714 91.5208 479.281 96.9128 480.344C95.1891 475.908 94.4189 475.064 97.2789 471.581C106.925 470.921 109.052 488.96 128.381 494.899C145.436 500.179 161.464 493.176 169.055 483.754C189.668 458.163 169.533 424.469 160.693 399.098C157.649 390.336 151.121 369.804 168.542 372.591C181.012 374.571 175.328 396.202 177.454 405.881C178.482 410.537 180.021 411.967 181.306 415.413C185.01 425.166 165.058 505.935 231.552 599.683C235.551 605.329 239.806 609.875 243.876 615.008C254.659 628.537 272.778 645.732 286.935 655.961C335.935 691.451 390.766 711.652 455.574 710.112C607.012 706.446 717.666 583.147 717.52 443.461C717.52 438.438 716.053 420.033 716.676 417.32C718.437 409.731 722.544 408.337 721.811 395.469C721.335 387.329 721.408 378.42 726.689 374.314C733.804 368.814 742.276 374.204 741.763 383.993C740.59 406.211 700.465 462.012 733.694 488.153C751.373 502.012 777.889 499.005 790.946 479.464C792.817 476.678 794.761 472.278 798.062 471.655C805.398 470.262 803.38 476.201 801.693 480.344C806.864 479.061 809.212 476.788 814.346 476.054C820.985 475.101 823.699 476.604 824.433 469.162C817.317 469.052 811.009 469.015 808.478 463.882C812.586 462.012 838.255 473.268 846.038 459.849C845.887 454.643 843.026 452.59 837.855 451.71C833.893 452.407 838.145 460.289 813.65 457.283C819.665 433.268 789.956 457.099 770.078 435.395C761.751 426.302 767.143 422.636 761.128 421.169C755.04 431.618 769.49 445.147 772.314 448.447C760.028 448.777 754.453 454.79 760.725 464.982C762.266 462.782 761.055 461.462 762.449 459.263C764.209 456.513 765.786 457.283 769.747 457.613C789.883 481.004 722.728 490.206 748.879 435.468C765.823 400.015 786.362 369.218 749.392 328.998C741.726 320.639 731.163 314.15 721.885 306.304C714.842 300.328 703.839 286.652 710.331 272.06C717.52 255.928 718.033 243.903 702.446 238.733C711.432 254.462 710.515 256.258 700.282 270.19C692.03 281.409 695.404 295.011 702.188 304.507C710.184 315.726 744.844 337.174 728.413 362.545C717.813 363.535 720.344 356.349 713.118 353.709C710.404 365.588 721.481 383.223 712.678 393.269C701.602 347.11 684.511 306.377 654.363 273.343C632.209 249.036 620.18 236.864 590.068 217.799C520.822 174.023 424.949 166.177 348.845 197.487C302.485 216.552 260.381 248.156 231.369 289.072C211.381 317.266 196.636 347.146 188.457 381.353C187.944 383.516 187.614 385.166 187.137 387.183C186.881 388.283 186.697 389.492 186.33 390.519C186.22 390.776 186.11 391.069 186.036 391.289L185.266 392.755C185.193 392.939 184.973 393.269 184.826 393.489H184.936Z" fill="#09337B"/>
    <path fill-rule="evenodd" clip-rule="evenodd" d="M37.3127 448.484C37.3497 381.903 50.4426 330.465 74.3564 276.423C79.3442 265.131 85.6896 253.289 91.3377 243.243C97.7191 231.951 104.688 222.198 111.473 212.153C128.014 187.698 154.422 158.771 176.941 139.303C253.816 72.8328 346.974 37.2695 453.594 37.2329C590.031 37.1962 697.568 105.939 763.696 181.612L774.699 195.214C789.37 214.536 791.791 218.715 805.398 240.347C837.925 292.042 861.223 371.747 861.223 438.255V453.616C861.223 576.145 796.925 680.085 739.122 735.813C605.619 864.501 407.197 891.412 245.086 800.194C239.328 796.967 235.147 793.998 229.205 790.441C199.02 772.366 155.961 735.74 134.212 708.169C130.362 703.256 126.621 698.747 122.733 694.054C104.614 671.982 87.7432 642.982 74.5394 615.228C52.6433 569.252 37.2757 507.438 37.3127 448.484ZM869.947 464.872C873.178 401.555 860.743 339.741 839.065 287.605C816.731 233.967 779.1 180.292 743.891 147.185L715.613 122.218C710.808 118.698 706.297 114.812 701.052 111.145C632.32 63.0071 562.084 33.1633 470.062 28.727C406.171 25.6473 343.124 37.5629 290.455 59.0841C259.244 71.8429 216.992 94.5375 190.988 116.388C185.671 120.861 180.939 123.684 176.134 128.157C171.659 132.3 167.369 136.553 162.894 140.513C85.6155 209.11 34.3056 314.223 28.8035 425.496C23.3755 534.312 64.2696 646.721 135.826 724.081C171.109 762.211 214.791 796.234 262.691 819.515C311.691 843.31 366.596 859.405 429.021 862.374C492.948 865.417 556.656 853.319 608.737 831.871C639.435 819.222 683.264 795.207 708.131 774.456L730.173 756.528C732.851 753.668 733.584 752.605 736.188 750.295C800.263 693.467 863.454 593.926 870.027 464.872L869.947 464.872Z" fill="white"/>
    <path fill-rule="evenodd" clip-rule="evenodd" d="M455.612 844.959C363.48 844.959 288.219 820.615 217.543 772.33C179.215 746.152 144.446 710.259 117.672 672.422C104.652 654.017 92.0712 632.093 81.5813 609.178C35.3692 508.061 33.7556 382.087 82.0215 281.043C102.781 237.56 121.119 209.586 151.817 176.699C172.064 154.995 191.759 136.406 218.496 118.331C337.072 38.0028 484.366 22.5676 615.669 81.7053C664.192 103.556 702.446 132.08 732.888 162.217C749.209 178.422 765.126 195.947 778.257 215.232L797.805 244.893C829.201 294.461 852.38 375.047 852.38 439.281C852.38 506.888 840.786 555.87 815.851 611.781C758.598 740.249 615.522 844.996 455.648 844.996L455.612 844.959ZM37.276 448.447C37.24 507.401 52.6077 569.215 74.5028 615.191C87.7067 642.945 104.578 671.946 122.697 694.017C126.584 698.747 130.288 703.256 134.176 708.132C155.926 735.703 198.984 772.33 229.169 790.405C235.074 793.961 239.292 796.894 245.05 800.157C407.125 891.338 605.583 864.464 739.087 735.776C796.889 680.048 861.184 576.108 861.184 453.58V438.218C861.184 371.747 837.895 292.042 805.361 240.31C791.754 218.715 789.333 214.536 774.663 195.178L763.66 181.575C697.531 105.866 589.995 37.1228 453.558 37.1961C346.938 37.2328 253.779 72.7961 176.905 139.266C154.385 158.734 127.977 187.662 111.436 212.116C104.652 222.162 97.6463 231.914 91.3009 243.206C85.6528 253.215 79.3075 265.094 74.3196 276.387C50.4428 330.465 37.313 381.867 37.276 448.447Z" fill="#09337B"/>
    <path fill-rule="evenodd" clip-rule="evenodd" d="M198.911 458.163C207.017 459.849 359.921 458.676 381.817 458.639C393.297 458.603 398.395 458.639 407.638 463.625C411.599 465.752 413.726 467.145 416.22 470.408C419.375 474.551 418.825 476.531 425.867 476.531H472.996C485.282 476.531 478.828 458.566 516.055 458.639C573.564 458.749 644.974 460.216 699.622 458.566C697.275 455.046 679.156 430.812 675.965 430.042H476.113C469.732 430.042 464.304 431.838 459.939 434.368C454.328 437.631 453.704 440.491 449.449 444.597C446.149 441.884 441.564 430.042 421.759 430.042C358.014 430.042 283.121 428.905 220.77 430.115L198.874 458.163H198.911Z" fill="#09337B"/>
    <path fill-rule="evenodd" clip-rule="evenodd" d="M457.518 731.121L457.702 767.711C491.114 766.904 516.495 762.102 547.009 754.916C545.102 750.149 537.767 742.45 539.968 735.557C541.655 732.111 573.087 716.932 582.329 711.286C594.14 704.064 612.221 692.257 620.143 682.505C625.314 676.125 634.3 664.467 637.197 654.458C621.354 661.461 591.572 698.161 505.492 714.439C496.359 716.163 487.226 717.519 478.094 718.509C466.945 719.719 457.555 719.206 457.555 731.121H457.518Z" fill="#09337B"/>
    <path fill-rule="evenodd" clip-rule="evenodd" d="M359.298 735.886C359.188 742.632 354.677 751.212 351.523 754.438C366.78 761.514 421.575 768.15 440.831 767.6L440.977 730.13C440.977 719.718 430.377 719.571 420.805 718.581C395.058 715.868 366.157 709.599 342.61 700.726C318.294 691.561 309.968 685.951 290.015 674.402C286.715 672.496 283.707 669.636 280.407 667.656L261.261 654.421C265.112 665.456 272.081 674.292 278.499 681.808C291.96 697.573 312.389 709.122 330.911 719.608C339.86 724.667 353.577 730.24 359.335 735.923L359.298 735.886Z" fill="#09337B"/>
    <path fill-rule="evenodd" clip-rule="evenodd" d="M463.827 661.423C472.849 659.81 481.908 652.404 487.226 648.005C502.961 635.026 524.527 599.756 529.698 579.005C509.673 573.248 487.52 564.559 463.827 565.074V661.461V661.423Z" fill="white"/>
    <path fill-rule="evenodd" clip-rule="evenodd" d="M368.284 579.298C374.372 604.082 403.933 654.127 434.118 661.607L434.192 564.889C401.954 566.502 393.628 572.588 368.32 579.298H368.284Z" fill="white"/>
    <path fill-rule="evenodd" clip-rule="evenodd" d="M463.827 322.509C485.65 323.059 511.25 314.7 529.442 308.503C524.49 285.222 490.528 231.071 463.827 227.001V322.509Z" fill="white"/>
    <path fill-rule="evenodd" clip-rule="evenodd" d="M368.504 308.21C390.914 315.469 407.675 320.969 434.119 322.692L434.156 226.671C423.483 230.228 418.238 233.821 411.196 240.163C394.435 255.269 374.042 285.259 368.504 308.173V308.21Z" fill="white"/>
    <path fill-rule="evenodd" clip-rule="evenodd" d="M654.546 178.826C654.509 175.929 653.666 177.176 656.123 174.646L658.581 173.106C656.49 177.799 654.839 178.312 654.546 178.826ZM661.405 163.757C662.871 164.894 661.368 164.197 663.936 164.857C668.851 166.067 672.445 164.417 668.667 167.533C665.402 170.21 662.322 172.85 658.581 173.143C658.911 170.577 663.972 158.661 653.006 165.334C648.091 168.34 638.408 180.732 632.797 186.195C630.706 188.248 629.203 189.201 629.276 193.528C629.349 198.697 631.55 198.514 636.392 198.917C638.886 193.344 639.656 192.208 644.864 188.761C651.722 184.215 644.351 189.495 646.734 183.885C647.211 182.785 647.945 182.052 648.678 180.402C648.934 180.659 649.228 180.696 649.374 181.246L652.052 184.765C654.473 187.038 653.629 186.305 657.407 186.122L657.994 192.794L666.026 191.695C665.109 197.451 665.512 196.021 667.42 201.08C659.571 199.944 660.194 197.414 653.373 196.021L651.319 200.677C644.937 201.704 642.406 199.907 641.672 206.213C646.037 208.01 649.338 206.396 655.206 207.166C653.189 210.356 650.109 209.916 647.541 213.949C648.605 220.475 662.688 228.174 670.867 228.248C674.682 216.882 677.323 216.772 678.019 212.923C676.039 210.539 675.562 209.843 671.821 208.89C668.63 212.519 667.273 217.652 663.606 220.952C662.065 220.402 660.304 219.852 658.471 219.155C657.26 218.715 656.747 218.605 655.5 217.909C655.279 217.799 655.023 217.615 654.803 217.505C654.583 217.359 654.326 217.175 654.106 217.029L652.786 215.966C655.427 213.216 657.04 214.352 659.277 210.613L660.524 207.9L669.327 207.35C670.134 204.637 670.867 205.113 669.107 202.107C673.288 201.63 673.691 200.714 674.682 197.487C672.555 193.894 675.342 196.974 671.638 194.591C667.64 192.025 669.84 194.958 667.346 191.328L671.307 188.835C674.315 188.102 684.217 189.421 686.345 194.408C683.594 196.204 679.303 194.408 677.469 193.051C677.616 197.414 680.037 204.673 684.071 206.433C686.345 203.683 686.015 202.51 688.949 199.32C692.836 195.031 697.898 190.595 685.868 185.462C679.744 182.859 679.339 184.765 680.66 178.716L685.832 182.565C692.47 186.598 697.128 176.809 694.744 171.383C689.316 170.467 687.739 173.876 685.062 176.993C676.919 177.469 681.833 175.196 673.031 178.386C668.41 180.072 663.055 181.282 659.827 182.749C661.515 176.993 659.974 180.659 664.852 177.433C666.503 176.333 668.226 174.609 669.804 173.106C671.711 171.273 672.481 170.21 674.535 168.633C678.093 165.884 678.569 167.02 679.156 162.694C675.525 159.724 663.276 159.174 661.222 163.721L661.405 163.757Z" fill="#09337B"/>
    <path fill-rule="evenodd" clip-rule="evenodd" d="M477.324 136.516C474.316 135.233 475.747 136.663 473.363 133.693C472.483 132.557 471.896 131.31 471.345 130.137L479.268 127.131L477.324 136.516ZM508.609 124.931C509.71 126.471 509.159 124.344 509.306 126.874C509.416 128.634 509.453 127.497 509.086 129C508.682 130.65 507.656 132.447 507.069 134.317C501.017 133.033 500.467 130.357 494.819 128.817C496.396 134.463 500.1 134.133 501.788 140.146C494.855 141.319 490.491 140.439 485.723 137.8L485.43 135.966C485.247 130.247 491.335 114.738 501.788 115.618C501.641 119.615 499.294 123.868 501.568 126.104C505.895 130.284 505.382 123.538 508.572 124.931H508.609ZM516.091 101.54C519.429 102.97 519.355 102.896 520.53 106.929L511.91 109.276L516.091 101.54ZM475.307 99.2303C477.361 105.316 482.055 101.796 487.483 105.353C487.043 110.852 484.036 116.975 480.038 118.478C474.794 120.458 466.578 118.661 461.26 118.405C461.59 122.328 462.616 122.878 461.847 125.187C460.783 128.304 459.206 126.911 459.499 132.263L468.852 132.007C471.786 139.01 474.867 145.719 481.762 147.625L483.999 140.403C486.97 145.609 485.76 146.965 493.536 147.332C499.11 147.625 503.364 145.792 508.096 145.096C510.92 152.722 522.069 160.787 521.483 145.756C518.182 142.676 516.935 141.759 512.754 139.486C514.551 133.877 519.245 128.744 517.045 121.814C512.167 120.238 509.563 121.668 508.022 117.635C511.177 112.612 525.298 114.262 527.864 106.379C525.15 102.456 526.764 106.526 517.191 99.1936C518.036 91.3843 519.099 89.5512 510.773 89.8078C511.14 102.09 507.912 99.4136 504.722 110.486C488.841 113.052 500.87 112.319 492.251 114.775C496.103 97.5071 506.298 98.9003 505.858 90.0644L498.414 88.5613C488.474 99.8535 494.745 98.277 475.344 99.1936L475.307 99.2303Z" fill="#09337B"/>
    <path fill-rule="evenodd" clip-rule="evenodd" d="M525.518 650.388C542.242 647.381 581.669 623 589.298 614.385L585.997 611.085C584.64 610.058 583.283 609.068 581.926 608.005C578.698 605.475 577.085 604.375 574.041 602.542L557.352 592.35C554.455 596.64 545.103 621.937 534.577 637.006C531.129 641.919 527.351 646.135 525.48 650.424L525.518 650.388Z" fill="white"/>
    <path fill-rule="evenodd" clip-rule="evenodd" d="M309.417 614.385C310.591 615.998 309.712 614.971 311.105 616.254L316.46 620.251C328.967 629.526 358.858 648.151 372.282 650.131C366.376 638.949 360.105 633.816 347.782 608.408C345.801 604.302 343.344 596.64 340.776 592.973C335.018 594.77 322.548 603.936 316.826 607.822C313.416 610.132 310.958 611.451 309.381 614.348L309.417 614.385Z" fill="white"/>
    <path fill-rule="evenodd" clip-rule="evenodd" d="M525.297 238.697C525.04 238.917 528.819 243.206 529.735 244.38C543.929 262.528 553.392 289.842 557.096 295.121C561.571 293.472 586.107 278.806 589.078 272.83C579.983 267.111 570.74 259.411 559.663 253.325C554.015 250.209 549.614 247.643 543.489 244.893C538.171 242.51 530.615 240.127 526.508 237.67C526.288 237.854 525.81 237.78 525.773 238.11C525.737 238.403 525.443 238.55 525.26 238.697H525.297Z" fill="white"/>
    <path fill-rule="evenodd" clip-rule="evenodd" d="M309.564 272.61C310.885 275.8 311.251 275.983 316.313 279.43C322.658 283.719 334.615 292.555 340.85 294.828L355.153 265.168C361.242 252.995 369.568 243.426 372.355 237.963C361.058 242.143 348.919 247.313 339.125 253.252L309.527 272.647L309.564 272.61Z" fill="white"/>
    <path fill-rule="evenodd" clip-rule="evenodd" d="M313.306 135.123C313.012 132.52 312.646 132.007 313.452 129.257C314.222 126.617 315.47 126.031 316.24 125.407C317.304 127.167 317.487 122.804 317.304 128.817C317.231 131.677 315.543 133.987 313.306 135.123ZM304.98 134.83C299.185 132.85 299.625 131.567 291.85 132.117C293.574 140.879 294.234 138.79 292.29 148.065C291.08 153.858 294.014 158.441 298.525 159.138C304.833 154.775 302.889 149.972 305.787 142.346C309.528 144.106 314.222 151.548 313.746 158.221C305.053 157.854 304.98 153.308 307.657 169.403C312.976 167.827 310.408 166.874 315.14 165.847L316.093 181.539C333.588 174.756 323.062 159.834 320.128 147.259C327.499 145.976 331.534 145.866 333.552 143.006C337.292 137.14 330.14 132.777 322.659 134.427C322.364 139.193 323.245 137.03 324.052 140.989C322.474 142.419 321.118 143.739 318.587 144.876C317.157 142.786 316.203 139.889 315.286 136.956C322.512 131.64 330.47 128.671 324.052 116.425C310.115 113.859 310.225 124.968 305.017 134.83H304.98Z" fill="#09337B"/>
    <path fill-rule="evenodd" clip-rule="evenodd" d="M410.022 116.975C409.986 114.445 412.333 112.355 413.103 107.149C413.103 107.149 418.385 107.186 415.891 114.812C413.983 120.605 411.086 117.855 410.022 116.938V116.975ZM413.69 104.583C410.169 103.41 410.169 103.226 408.775 100.33C409.619 98.7902 410.939 98.6435 413.543 98.6069L413.69 104.583ZM410.756 92.0808C406.097 91.5309 406.281 90.9076 401.733 92.5208C401.22 98.1303 404.374 96.0038 404.374 101.21C404.374 107.846 401.404 102.493 405.401 110.559C409.289 118.515 401.367 119.871 403.163 127.717C405.071 136.076 412.333 125.664 416.807 124.638C418.861 133.143 420.695 153.198 426.71 155.325C427.993 151.585 426.527 129.77 425.684 123.941C424.363 115.142 427.48 118.075 431.368 113.712C438.116 106.086 428.141 108.432 423.849 108.872C422.492 99.5968 421.942 90.7243 418.165 83.7949C411.966 84.2716 412.113 86.5447 410.829 92.0442L410.756 92.0808Z" fill="#09337B"/>
    <path fill-rule="evenodd" clip-rule="evenodd" d="M375.693 125.591C380.608 125.187 394.435 115.618 390.106 129.917C385.522 127.057 391.684 128.524 385.962 125.737C378.993 128.304 377.967 138.386 383.028 143.959C389.08 144.289 388.64 139.999 392.307 136.516C396.855 140.073 395.939 146.709 403.898 144.839C406.207 137.983 402.98 136.406 400.706 131.53C397.955 125.664 401.257 123.831 401.147 116.792C397.809 118.221 399.276 119.358 396.672 117.708C398.396 113.382 399.496 114.885 400.303 110.522C397.772 108.469 396.122 108.102 393.115 107.149C387.87 112.612 391.867 115.765 382.735 115.948L393.004 97.0672C395.939 93.8042 396.415 95.5274 396.452 89.6613C392.49 87.7548 386.806 84.895 385.082 91.1644C382.295 101.356 381.964 103.336 375.656 114.555C373.015 119.248 371.549 121.118 375.729 125.591H375.693Z" fill="#09337B"/>
    <path fill-rule="evenodd" clip-rule="evenodd" d="M217.249 199.064C227.152 198.184 221.32 198.954 228.325 195.984C230.196 203.537 232.58 208.34 233.35 217.505C230.086 216.002 217.91 202.034 217.249 199.027V199.064ZM217.395 192.464C214.535 193.601 187.064 188.432 217.616 213.106L235.257 228.468C251.798 227.551 237.128 204.857 233.02 198.807C230.452 195.068 226.418 188.615 222.2 186.122C215.379 182.052 216.222 177.909 212.188 171.86C197.81 169.147 203.862 182.492 204.009 182.675C207.493 186.672 207.603 181.429 211.857 186.158L217.395 192.464Z" fill="#09337B"/>
    <path fill-rule="evenodd" clip-rule="evenodd" d="M572.72 143.226C573.38 148.395 575.323 146.819 579.505 149.275C578.808 150.302 577.965 151.255 577.414 152.282L575.544 156.315C569.823 153.748 561.606 149.532 554.345 149.862L554.748 156.608C561.313 158.441 569.712 157.378 577.378 164.197C577.524 164.307 577.782 164.564 577.965 164.747C576.791 165.554 577.451 165.48 575.398 165.774C567.952 166.874 568.135 159.578 555.298 163.757C557.976 166.874 564.321 170.063 569.345 172.006C579.248 175.783 581.193 172.226 585.006 167.167C589.005 168.707 591.462 170.503 596.779 169.513C603.345 158.881 589.555 161.741 584.603 158.624C585.593 150.155 591.902 156.938 593.075 145.316C587.684 141.979 578.001 137.14 572.757 143.189L572.72 143.226Z" fill="#09337B"/>
    <path fill-rule="evenodd" clip-rule="evenodd" d="M260.417 199.357C258.327 202.474 257.007 203.94 251.285 203.72L250.074 188.798C254.842 188.358 260.271 193.931 260.417 199.357ZM228.105 190.228C234.121 189.531 232.433 187.368 237.311 186.525C240.979 189.715 242.336 193.564 244.243 199.834C245.014 202.437 245.93 205.333 246.407 207.973C247.508 213.802 246.554 213.289 248.828 215.819C253.559 209.916 246.407 204.233 255.943 207.57C263.425 210.173 267.57 203.463 265.955 195.654C264.745 189.788 255.319 179.339 250.625 178.312L246.554 185.095L240.135 184.509C238.411 178.899 241.382 174.719 243.216 169.66C246.37 161.044 242.886 154.078 238.815 161.044C237.605 163.097 235.221 172.96 234.121 175.966C232.03 181.722 227.518 184.289 228.032 190.191L228.105 190.228Z" fill="#09337B"/>
    <path fill-rule="evenodd" clip-rule="evenodd" d="M577.599 126.324C571.804 126.324 561.791 126.251 559.113 130.98C556.546 135.527 558.49 143.482 561.351 146.012C569.31 146.232 567.769 140.329 571.436 135.343C576.718 134.573 584.493 135.05 589.481 136.553C599.861 139.596 593.223 141.539 594.8 146.672C598.688 147.699 600.338 146.415 603.125 144.582C603.895 138.716 603.235 135.453 599.421 132.703C595.606 129.99 594.286 130.87 589.261 128.121C589.078 128.011 588.748 127.827 588.492 127.644C593.846 127.167 599.971 127.277 605.179 126.691C613.908 125.664 609.836 118.295 605.363 118.588C600.851 118.845 599.678 126.324 577.525 126.324H577.599Z" fill="#09337B"/>
    <path fill-rule="evenodd" clip-rule="evenodd" d="M428.911 500.692C428.911 494.019 428.984 491.416 435.439 491.49C446.552 505.935 428.911 521.663 428.911 500.692ZM437.053 512.204C435.512 520.16 431.882 522.507 427.223 525.55C427.04 525.66 426.784 525.843 426.6 525.953L424.803 527.309C427.443 528.703 426.527 528.519 430.084 527.419C450.257 521.187 449.156 498.126 441.931 491.929C434.852 485.843 423.409 489.4 421.319 498.052C418.678 509.198 426.453 516.31 437.127 512.168L437.053 512.204Z" fill="#09337B"/>
    <path fill-rule="evenodd" clip-rule="evenodd" d="M771.838 578.968C765.86 581.461 765.053 589.857 769.638 594.55C784.125 609.435 801.363 594.476 790.58 583.881C787.609 580.948 778 576.401 771.838 578.968Z" fill="white"/>
    <path fill-rule="evenodd" clip-rule="evenodd" d="M278.499 748.389C273.804 750.698 268.889 756.124 268.266 763.127C266.799 779.662 289.282 776.326 291.373 758.508C292.29 750.882 285.211 745.126 278.499 748.389Z" fill="white"/>
    <path fill-rule="evenodd" clip-rule="evenodd" d="M485.723 509.564C488.401 510.041 501.127 506.265 499.404 519.867C498.926 523.643 496.909 527.053 492.985 525.88C488.254 524.45 490.931 518.877 483.962 521.847C480.552 531.672 501.567 530.646 505.748 521.04C507.912 516.09 506.592 509.894 503.914 506.778C500.76 503.148 494.709 502.525 488.401 502.818L488.767 496.072C504.135 495.889 503.584 497.576 504.208 489.033C502.521 488.996 487.556 489.73 486.676 490.683C485.172 492.333 485.613 506.448 485.723 509.564Z" fill="#09337B"/>
    <path fill-rule="evenodd" clip-rule="evenodd" d="M346.644 802.1C357.244 804.923 363.735 803.933 366.266 793.264C368.797 782.705 362.746 777.242 353.282 776.473C351.413 781.092 346.938 796.637 346.644 802.1Z" fill="white"/>
    <path fill-rule="evenodd" clip-rule="evenodd" d="M346.644 802.1C346.938 796.637 351.413 781.092 353.282 776.473C362.746 777.279 368.797 782.705 366.266 793.264C363.699 803.933 357.244 804.923 346.644 802.1ZM336.925 801.733C351.303 804.63 366.633 812.182 371.548 794.657C376.133 778.269 358.822 773.576 345.251 772.44C347.965 777.316 349.358 770.46 344.81 787.361C342.353 796.491 343.344 798.067 338.905 800.67C331.937 804.813 341.51 797.591 336.925 801.733Z" fill="#09337B"/>
    <path fill-rule="evenodd" clip-rule="evenodd" d="M451.65 500.472C459.389 498.199 444.865 496.622 470.429 496.622L456.968 528.483C466.321 528.666 462.616 529.986 469.842 511.874C471.896 506.778 477.764 494.973 476.921 489.803C449.156 489.73 451.503 487.53 451.65 500.435L451.65 500.472Z" fill="#09337B"/>
    <path fill-rule="evenodd" clip-rule="evenodd" d="M278.499 748.389C285.212 745.126 292.29 750.882 291.373 758.508C289.282 776.326 266.8 779.662 268.266 763.127C268.889 756.161 273.804 750.698 278.499 748.389ZM275.602 745.309C255.282 751.248 263.058 782.962 284.734 776.473C303.219 770.936 296.911 739.113 275.602 745.309Z" fill="#09337B"/>
    <path fill-rule="evenodd" clip-rule="evenodd" d="M771.838 578.968C778 576.401 787.609 580.948 790.58 583.881C801.363 594.476 784.125 609.472 769.638 594.55C765.053 589.857 765.896 581.461 771.838 578.968ZM775.396 574.018C754.857 580.178 764.062 610.682 785.335 604.852C792.304 602.946 798.759 593.707 795.568 584.027C793.624 578.125 784.932 571.122 775.36 574.018H775.396Z" fill="#09337B"/>
    <path fill-rule="evenodd" clip-rule="evenodd" d="M626.525 741.166C630.743 739.149 635.547 736.73 638.481 742.082C642.15 748.792 636.942 751.102 632.943 752.751C630.339 750.075 627.259 746.005 626.525 741.166ZM617.76 744.539L619.19 745.052C620.657 745.602 619.96 745.162 621.317 745.859C624.398 747.509 630.229 758.728 632.357 762.431C635.437 767.747 634.961 765.694 633.163 770.863C636.428 769.873 638.188 767.527 643.543 765.62C643.36 765.474 643.03 765.107 642.92 765.29C642.92 765.29 636.978 764.374 633.971 754.475C646.697 748.718 645.817 766.573 657.26 756.711L649.595 753.411C646.477 751.542 645.047 750.735 640.792 750.002C651.392 720.781 617.98 744.466 617.76 744.539Z" fill="#09337B"/>
    <path fill-rule="evenodd" clip-rule="evenodd" d="M558.343 772.366C570.996 766.134 576.644 782.412 562.231 784.465C560.067 781.385 558.307 776.509 558.343 772.366ZM549.284 774.163C554.968 776.803 552.438 773.1 557.389 787.251C559.48 793.264 561.644 796.197 559.993 800.56C557.096 808.113 560.653 796.234 559.077 802.577L570.153 798.727C566.375 795.977 567.842 799.864 565.165 794.804C564.028 792.641 563.257 789.048 562.964 786.482C577.525 783.475 571.547 800.45 585.521 793.521C582.44 791.174 582.109 792.311 578.442 788.791C575.214 785.675 575.178 785.125 570.52 783.475C572.354 781.129 574.811 779.846 574.628 775.263C574.077 760.891 550.641 773.173 549.357 774.199L549.284 774.163Z" fill="#09337B"/>
    <path fill-rule="evenodd" clip-rule="evenodd" d="M392.087 498.639C394.874 500.069 396.892 498.602 399.643 497.209L399.863 524.633C398.872 525.036 397.112 525.44 396.819 525.586C393.811 527.199 395.095 524.706 394.031 528.153H413.58C412.846 524.046 413.286 527.126 407.712 524.853L407.492 488.813C404.373 488.996 395.498 495.522 392.564 498.162C392.454 498.272 392.197 498.492 392.05 498.675L392.087 498.639Z" fill="#09337B"/>
    <path fill-rule="evenodd" clip-rule="evenodd" d="M727.166 651.084C732.154 648.518 732.338 649.764 737.179 653.614C739.159 655.191 744.44 658.637 745.505 661.02L717.776 661.753C715.943 663.99 715.539 665.42 713.266 667.656C713.376 667.729 713.669 667.583 713.706 667.729C713.742 667.876 714.109 667.766 714.182 667.766C719.097 667.619 714.402 664.906 726.065 673.962C742.497 686.758 733.291 680.305 737.436 686.868L742.607 679.645C740.113 675.979 744.184 685.254 731.824 675.355C728.376 672.606 724.122 669.636 721.115 666.666L755.15 665.64C753.169 662.193 745.871 657.244 742.386 654.567C739.709 652.478 734.795 649.618 733.364 646.611C732.668 645.182 733.181 645.878 732.814 644.852C732.154 642.982 733.327 644.668 732.154 643.055C729.917 646.208 727.973 647.345 727.239 651.048L727.166 651.084Z" fill="#09337B"/>
    <path fill-rule="evenodd" clip-rule="evenodd" d="M91.1909 559.39L94.6022 568.116C97.8294 565.439 90.2746 565.916 104.542 560.6C108.502 559.133 113.234 557.043 116.975 556.42L99.8472 585.567C107.072 585.311 123.687 577.025 126.694 577.135L130.325 578.491C130.546 578.601 130.876 578.821 131.132 578.968L127.868 569.875C124.75 575.192 129.152 573.578 120.459 576.548C116.535 577.905 112.977 579.518 109.017 580.434C110.593 576.291 115.178 569.435 117.525 565.402C122.514 557.007 123.43 558.913 120.386 548.904L119.69 550.297C118.809 551.764 119.506 551.067 118.515 552.167C117.415 553.377 117.269 553.377 115.471 554.11C90.5679 564.229 96.7662 559.573 91.1911 559.426L91.1909 559.39Z" fill="#09337B"/>
    <path fill-rule="evenodd" clip-rule="evenodd" d="M508.609 124.931C505.418 123.538 505.932 130.284 501.603 126.104C499.33 123.904 501.64 119.651 501.824 115.618C491.371 114.738 485.282 130.247 485.466 135.966L485.76 137.8C490.527 140.439 494.855 141.319 501.824 140.146C500.1 134.17 496.433 134.5 494.855 128.817C500.54 130.32 501.053 133.033 507.105 134.317C507.692 132.447 508.719 130.65 509.122 129C509.489 127.534 509.452 128.634 509.342 126.874C509.196 124.344 509.709 126.471 508.646 124.931H508.609Z" fill="white"/>
    <path fill-rule="evenodd" clip-rule="evenodd" d="M781.118 543.185C781.448 543.001 781.778 542.378 781.924 542.598C782.329 543.221 782.439 540.655 786.472 540.801C786.876 540.801 791.534 542.268 792.047 542.415C795.348 543.515 799.896 544.944 802.72 546.154C783.208 556.603 777.67 550.041 774.26 564.523C781.374 560.93 780.898 562.946 797.255 568.006C800.887 569.142 800.96 569.142 802.207 571.232C802.317 571.415 802.464 571.745 802.537 571.892L806.645 564.046C802.757 564.853 806.755 568.812 793.625 564.413C789.517 563.019 784.969 562.323 781.704 560.086C786.106 557.85 791.901 555.833 796.925 553.89C800.3 552.57 810.313 549.637 812.403 546.741C800.08 540.068 790.471 543.001 784.052 534.789C783.942 534.642 783.722 534.312 783.538 534.092L781.118 543.148L781.118 543.185Z" fill="#09337B"/>
    <path fill-rule="evenodd" clip-rule="evenodd" d="M644.716 728.444C651.319 731.047 646.184 724.631 656.343 738.453C663.275 747.912 663.568 745.639 662.065 753.191C665.769 751.652 667.933 749.158 671.857 746.409C675.012 744.209 678.863 741.533 682.017 739.406C679.339 730.863 678.643 732.697 676.918 731.633C679.486 739.333 674.058 743.879 667.346 745.785C665.732 742.229 662.908 739.883 661.405 736.216C665.329 732.367 665.806 731.157 671.894 733.173C670.024 729.8 668.703 727.124 665.769 724.924C663.861 729.434 668.226 728.957 659.607 733.833C656.527 731.267 654.363 728.37 653.188 724.447C658.543 721.148 659.351 718.728 666.575 721.551C666.062 718.581 664.412 717.335 662.688 715.648C656.49 719.241 651.025 724.154 644.716 728.407V728.444Z" fill="#09337B"/>
    <path fill-rule="evenodd" clip-rule="evenodd" d="M218.899 740.616C225.391 743.952 232.763 751.505 238.338 753.961C241.419 752.495 243.4 750.845 244.573 747.399C240.869 748.242 236.798 752.971 228.032 743.366C230.122 739.186 232.14 737.646 233.864 733.613C243.07 735.923 239.989 738.489 241.455 742.229L247.654 734.127C239.732 736.326 242.886 735.08 236.725 732.587C238.045 727.417 240.099 726.721 242.116 722.724C246.664 723.897 250.038 726.134 250.882 730.13C251.102 731.23 250.918 731.303 251.175 732.183C252.055 735.08 249.964 731.707 252.165 734.273L255.356 728.37C251.212 725.694 239.916 716.602 236.688 715.942C239.476 722.211 235.111 724.227 231.002 729.8C224.401 738.746 227.445 737.829 220.844 739.809C218.276 740.579 221.174 738.746 218.973 740.543L218.899 740.616Z" fill="#09337B"/>
    <path fill-rule="evenodd" clip-rule="evenodd" d="M693.276 688.004C693.46 688.151 693.864 688.004 693.937 688.261C694.011 688.517 694.451 688.444 694.597 688.481C697.641 689.324 697.091 688.517 699.769 690.901C703.326 694.017 713.889 701.936 715.062 705.859C715.467 707.216 715.283 707.289 715.467 707.876C716.273 710.552 714.256 707.362 716.346 710.075C719.647 704.613 727.166 697.317 731.788 692.807C730.797 691.597 730.137 690.607 729.184 689.324C727.056 686.501 728.559 686.868 725.552 686.391C728.634 694.824 724.635 697.94 719.537 701.826L710.955 694.274C714.256 686.171 718.401 689.471 720.455 688.114L713.156 681.258C713.559 687.454 713.816 688.627 708.754 691.487L701.089 685.621C703.473 674.292 712.092 678.252 712.606 677.885C714.292 676.565 710.075 674.109 707.764 672.936C706.077 675.612 695.477 686.501 693.276 688.041L693.276 688.004Z" fill="#09337B"/>
    <path fill-rule="evenodd" clip-rule="evenodd" d="M601.438 758.214C599.751 751.871 607.783 753.155 609.213 753.595C615.008 755.318 617.612 765.914 606.059 768.187C605.068 765.144 601.951 760.121 601.474 758.214H601.438ZM591.829 757.554C598.944 762.431 593.809 754.878 601.952 770.35C603.272 772.88 604.739 775.336 605.839 777.866C607.93 782.632 605.949 781.532 605.546 785.198L617.135 779.442C612.662 776.326 613.505 783.842 607.673 770.276C611.231 768.553 615.008 767.013 616.842 764.19C619.226 760.524 618.272 754.951 615.888 752.348C609.653 745.639 597.807 755.391 591.829 757.591L591.829 757.554Z" fill="#09337B"/>
    <path fill-rule="evenodd" clip-rule="evenodd" d="M211.124 693.687C208.886 691.487 206.942 688.188 203.678 687.124C206.172 693.064 203.972 692.44 195.426 700.506C190.951 704.723 186.807 709.672 180.719 702.67C174.41 695.447 182.809 689.214 190.694 682.395C193.886 679.608 192.565 680.782 196.489 680.158C199.02 679.755 196.306 681.148 198.14 679.755C195.279 676.749 193.739 676.309 191.685 672.239C191.502 672.496 191.319 672.606 191.244 673.082C191.171 673.559 190.914 673.706 190.804 673.926L190.401 674.732C189.595 676.345 190.658 674.769 189.301 676.932L178.775 686.831C172.724 692.33 171.989 699.04 178.482 704.943C188.2 713.742 195.719 704.209 203.055 696.73C208.226 691.451 206.832 694.75 211.197 693.65L211.124 693.687Z" fill="#09337B"/>
    <path fill-rule="evenodd" clip-rule="evenodd" d="M465.734 808.113L465.807 816.912C474.646 818.672 485.869 819.038 486.016 808.919C486.126 800.45 475.049 799.57 469.108 795.794C468.155 786.628 476.15 786.812 479.634 791.101C482.092 794.108 478.608 793.264 483.156 794.364C483.266 790.881 483.522 790.075 482.275 787.325C465.551 782.522 455.427 797.297 473.876 804.043C491.371 810.459 476.37 819.222 470.685 814.456C466.797 811.193 471.125 809.726 465.734 808.113Z" fill="#09337B"/>
    <path fill-rule="evenodd" clip-rule="evenodd" d="M402.173 812.329C401.954 811.523 401.55 808.736 401.256 807.93C400.339 805.253 401.66 806.133 399.239 805.143L397.295 813.062C404.228 818.672 418.605 818.599 418.825 807.966C419.045 796.784 403.86 800.12 404.814 789.891C406.721 788.131 408.775 786.078 413.103 787.765C417.614 789.525 414.643 790.881 417.65 794.364C419.375 792.531 419.265 792.311 419.631 787.398C395.938 779.736 398.065 795.757 403.347 799.717C406.684 802.21 413.286 804.043 414.24 808.333C416.074 816.435 405.951 814.052 402.137 812.329H402.173Z" fill="#09337B"/>
    <path fill-rule="evenodd" clip-rule="evenodd" d="M115.948 594.146L107.586 596.31C108.356 605.292 111.18 615.044 121.083 612.918C131.719 610.608 124.237 597.593 129.628 591.763C133.222 588.904 139.458 593.45 137.147 599.206C135.423 603.496 135.643 598.179 134.47 604.595L141.218 602.286C139.751 582.744 122.477 582.341 122.403 597.959C122.366 601.736 123.32 605.365 121.156 608.005C117.342 612.625 109.676 606.613 111.656 600.526C113.087 596.126 115.398 598.583 115.985 594.147L115.948 594.146Z" fill="#09337B"/>
    <path fill-rule="evenodd" clip-rule="evenodd" d="M520.493 780.909C523.977 783.292 523.94 781.495 525.407 786.298C526.801 790.845 531.203 804.557 528.709 808.406C528.562 808.626 528.342 808.884 528.195 809.103L550.898 804.96L550.348 796.307C546.863 800.597 549.504 801.11 545.506 803.567C542.792 805.216 538.831 805.766 535.567 805.693L532.486 794.071C541.105 792.091 539.162 791.174 543.709 795.464L541.766 785.345C540.701 786.775 540.518 788.791 538.244 790.221C536.777 791.138 533.587 791.504 531.679 791.651L529.222 781.092C530.652 780.652 534.907 779.332 536.704 779.296C542.316 779.149 539.381 780.505 544.149 782.742L542.609 776.033L520.53 780.982L520.493 780.909Z" fill="#09337B"/>
    <path fill-rule="evenodd" clip-rule="evenodd" d="M294.014 785.198L306.3 790.111C305.75 786.958 300.542 788.095 307.877 775.373C316.606 777.682 313.855 777.536 317.046 782.962L321.191 773.576C316.093 775.409 322.071 777.426 308.941 773.283L312.902 762.614C323.319 764.484 321.704 766.94 324.345 771.67C324.492 771.89 324.675 772.256 324.895 772.513L326.839 764.997L315.983 761.037C312.682 759.681 309.344 758.141 306.263 757.004C308.061 763.824 309.712 757.738 303.439 772.55C295.774 790.625 299.479 780.762 294.014 785.162L294.014 785.198Z" fill="#09337B"/>
    <path fill-rule="evenodd" clip-rule="evenodd" d="M683.521 696.767C689.572 701.056 684.951 690.351 695.734 718.838L675.415 709.306C675.195 705.419 675.269 708.719 676.662 704.833C673.728 705.383 668.96 710.075 667.016 712.642C677.836 713.228 690.709 725.034 699.402 725.877C699.769 716.638 688.362 700.58 690.965 692.514C687.262 692.917 689.462 693.064 685.537 695.704L684.217 696.473C684.071 696.547 683.741 696.73 683.521 696.803V696.767Z" fill="#09337B"/>
    <path fill-rule="evenodd" clip-rule="evenodd" d="M436.209 804.593C436.722 801.147 439.143 796.637 440.831 793.924L444.608 804.777L436.209 804.593ZM424.913 818.085L434.816 818.122C431.184 813.649 430.707 820.028 432.175 812.512C433.642 804.887 438.813 806.72 445.782 806.903L448.423 815.152L445.525 818.012C445.342 818.195 444.975 818.415 444.718 818.635L457.078 818.745C456.895 818.562 456.565 817.902 456.455 818.085C456.345 818.269 456.014 817.535 455.867 817.352C454.218 815.116 455.721 817.499 454.401 815.299C453.631 814.052 453.008 812.292 452.53 811.046L442.26 787.032C440.097 788.645 439.143 791.468 437.896 794.401C436.576 797.407 435.219 800.01 433.971 802.76C432.175 806.756 430.597 811.779 427.737 814.969C424.693 818.342 426.6 814.199 424.913 818.085Z" fill="#09337B"/>
    <path fill-rule="evenodd" clip-rule="evenodd" d="M734.612 639.792L740.81 643.788C741.103 636.639 737.031 643.238 741.286 632.533L761.201 644.008C765.676 647.381 762.376 648.151 763.99 651.048C765.97 647.785 769.638 642.469 770.885 639.389C765.896 640.709 770.555 644.705 757.791 636.052L745.211 627.693L747.301 623.221L753.977 622.964C754.233 620.617 751.739 619.774 748.695 618.344L734.575 639.792L734.612 639.792Z" fill="#09337B"/>
    <path fill-rule="evenodd" clip-rule="evenodd" d="M139.275 611.305C141.474 612.881 143.015 611.745 146.536 612.918L148.297 617.428C144.19 620.581 131.719 628.133 126.621 630.113C122.366 628.5 125.264 628.5 121.963 628.17L128.602 639.682C129.885 637.776 128.858 637.776 129.225 634.403C136.304 631.8 143.712 625.384 151.231 622.524C156.769 629.453 151.965 628.28 151.744 633.303L158.383 630.04C157.429 626.813 154.202 622.34 152.442 619.297C149.838 614.788 148.04 612.441 146.169 607.932C142.905 608.628 141.659 609.288 139.275 611.305Z" fill="#09337B"/>
    <path fill-rule="evenodd" clip-rule="evenodd" d="M165.535 652.038C169.679 655.741 169.46 648.775 175.438 657.39L158.273 671.726C152.918 674.805 145.399 665.823 157.356 679.902L159.41 682.028C159.886 680.415 157.576 679.425 161.207 675.612C164.691 671.946 175.474 663.183 180.279 662.01C183.433 669.453 182.113 665.676 180.756 672.899C183.983 671.579 185.304 669.673 187.32 667.876C185.304 667.509 172.76 650.388 171.624 648.335L165.535 652.001L165.535 652.038Z" fill="#09337B"/>
    <path fill-rule="evenodd" clip-rule="evenodd" d="M209.693 701.496C213.325 702.523 210.611 697.573 219.779 703.513C217.359 708.096 214.571 710.699 210.721 714.805C205.696 720.158 206.576 724.667 198.287 721.881C199.938 724.961 208.08 730.863 208.08 730.827C211.82 727.857 204.962 731.817 208.52 725.034L223.851 707.912C233.643 713.265 223.703 722.798 229.792 716.675C231.442 715.025 232.03 714.108 232.983 712.715L213.728 696.18L209.84 700.213C208.96 702.12 209.18 699.993 209.656 701.496L209.693 701.496Z" fill="#09337B"/>
    <path fill-rule="evenodd" clip-rule="evenodd" d="M490.344 785.749L493.131 790.039C494.269 787.876 493.278 789.305 494.415 787.471L500.613 786.445C501.31 791.688 502.118 796.565 502.961 801.588C505.602 817.756 503.878 809.984 500.577 815.117L512.754 812.257C512.57 812.147 511.69 811.634 511.47 811.45C508.572 809.25 508.939 806.794 508.169 801.625C507.326 796.125 506.078 790.809 505.932 785.456C517.521 784.246 511.616 788.096 516.788 789.159L515.578 781.936L490.38 785.749H490.344Z" fill="#09337B"/>
    <path fill-rule="evenodd" clip-rule="evenodd" d="M751.336 613.578C754.49 612.111 755.04 611.451 758.855 613.431C770.115 619.334 774.7 620.434 778.184 626.96C778.257 627.107 778.404 627.473 778.587 627.657C779.871 624.137 783.098 620.361 783.318 616.768C777.854 619.261 780.384 619.481 768.574 612.991C756.178 606.172 760.212 609.398 756.984 603.166C754.673 605.659 752.399 609.875 751.336 613.541L751.336 613.578Z" fill="#09337B"/>
    <path fill-rule="evenodd" clip-rule="evenodd" d="M219.669 158.441C217.762 166.837 223.227 160.384 225.208 168.707C226.455 174.023 224.548 178.899 228.068 183.005C231.406 175.929 230.379 171.75 232.433 164.82C233.533 161.081 235.294 158.624 230.086 157.598C228.545 157.304 220.293 157.964 219.669 158.404V158.441Z" fill="#09337B"/>
    <path fill-rule="evenodd" clip-rule="evenodd" d="M136.414 650.939C137.514 654.092 141.181 659.005 142.942 661.204C145.803 656.915 140.411 659.628 146.023 655.338C148.7 653.322 151.084 652.075 153.468 650.462C165.425 642.323 161.684 642.726 168.065 644.559L161.757 634.624C159.63 638.987 164.985 636.86 151.598 645.549C145.363 649.582 143.382 653.615 136.376 650.975L136.414 650.939Z" fill="#09337B"/>
    <path fill-rule="evenodd" clip-rule="evenodd" d="M86.0928 540.032L89.247 551.617C91.7779 547.621 89.247 548.354 94.639 546.521L110.74 542.049C112.867 541.536 113.124 541.206 115.105 541.646L118.772 543.771L115.618 532.333C111.766 535.156 120.716 535.046 93.7946 541.719C89.43 542.782 89.32 541.901 86.1298 540.032L86.0928 540.032Z" fill="#09337B"/>
    <path fill-rule="evenodd" clip-rule="evenodd" d="M376.133 811.413L387.906 813.282C384.641 807.526 384.202 813.759 387.099 797.847C388.493 790.258 387.795 787.838 391.317 784.612L382.515 782.485C385.376 787.215 383.872 787.435 382.111 796.931C381.561 799.9 381.084 806.133 379.36 808.443L376.829 810.789C376.646 810.936 376.316 811.193 376.096 811.413L376.133 811.413Z" fill="#09337B"/>
    <path fill-rule="evenodd" clip-rule="evenodd" d="M428.911 500.692C428.911 521.663 446.552 505.935 435.439 491.49C428.984 491.416 428.911 494.019 428.911 500.692Z" fill="white"/>
    <path fill-rule="evenodd" clip-rule="evenodd" d="M304.062 131.934C307.987 126.104 310.297 106.563 298.268 109.972C288.916 112.649 298.818 115.582 301.312 125.407C301.532 126.287 301.825 127.901 302.082 128.634C302.192 128.927 302.523 129.807 302.669 130.1C303.476 131.677 303.073 130.944 304.026 131.934H304.062Z" fill="#09337B"/>
    <path fill-rule="evenodd" clip-rule="evenodd" d="M328.232 157.598C330.543 161.997 329.517 157.964 333.808 163.647L334.688 164.857C339.015 163.281 342.06 163.317 345.581 160.457C345.508 148.102 330.543 151.072 328.232 157.634V157.598Z" fill="#09337B"/>
    <path fill-rule="evenodd" clip-rule="evenodd" d="M217.25 199.064C217.91 202.034 230.086 216.039 233.351 217.542C232.58 208.34 230.196 203.537 228.326 196.021C221.32 198.954 227.152 198.221 217.25 199.1V199.064Z" fill="white"/>
    <path fill-rule="evenodd" clip-rule="evenodd" d="M606.023 768.15C617.575 765.877 615.009 755.281 609.177 753.558C607.747 753.118 599.751 751.835 601.401 758.178C601.915 760.084 605.033 765.107 605.986 768.15H606.023Z" fill="white"/>
    <path fill-rule="evenodd" clip-rule="evenodd" d="M626.525 741.166C627.259 746.042 630.339 750.075 632.943 752.751C636.942 751.102 642.186 748.755 638.481 742.082C635.547 736.73 630.743 739.149 626.525 741.166Z" fill="white"/>
    <path fill-rule="evenodd" clip-rule="evenodd" d="M558.342 772.366C558.306 776.509 560.067 781.385 562.231 784.465C576.644 782.412 570.996 766.134 558.342 772.366Z" fill="white"/>
    <path fill-rule="evenodd" clip-rule="evenodd" d="M251.285 203.72C257.007 203.94 258.364 202.474 260.418 199.357C260.271 193.931 254.842 188.358 250.075 188.798L251.285 203.72Z" fill="white"/>
    <path fill-rule="evenodd" clip-rule="evenodd" d="M581.816 117.452L589.665 116.535L587.281 111.622C586.327 108.212 587.647 110.082 585.666 106.746C579.762 107.516 579.322 112.942 581.816 117.415V117.452Z" fill="#09337B"/>
    <path fill-rule="evenodd" clip-rule="evenodd" d="M436.209 804.593L444.609 804.777L440.831 793.924C439.144 796.637 436.723 801.147 436.209 804.593Z" fill="white"/>
    <path fill-rule="evenodd" clip-rule="evenodd" d="M410.022 116.975C411.049 117.892 413.983 120.605 415.891 114.848C418.385 107.223 413.14 107.186 413.103 107.186C412.333 112.392 409.986 114.445 410.022 117.012V116.975Z" fill="white"/>
    <path fill-rule="evenodd" clip-rule="evenodd" d="M479.304 127.094L471.382 130.1C471.97 131.274 472.52 132.52 473.399 133.657C475.784 136.663 474.353 135.197 477.361 136.48L479.304 127.094Z" fill="white"/>
    <path fill-rule="evenodd" clip-rule="evenodd" d="M511.91 109.276L520.529 106.929C519.319 102.86 519.429 102.97 516.091 101.54L511.91 109.276Z" fill="white"/>
    <path fill-rule="evenodd" clip-rule="evenodd" d="M313.306 135.123C315.543 133.987 317.194 131.677 317.304 128.817C317.45 122.804 317.267 127.167 316.24 125.407C315.506 126.031 314.222 126.617 313.452 129.257C312.682 132.007 313.012 132.557 313.306 135.123Z" fill="white"/>
    <path fill-rule="evenodd" clip-rule="evenodd" d="M598.651 118.588C596.34 115.655 595.57 114.262 592.965 113.419C588.711 118.185 593.406 118.588 598.651 118.588Z" fill="#09337B"/>
    <path fill-rule="evenodd" clip-rule="evenodd" d="M408.775 100.293C410.169 103.19 410.169 103.41 413.69 104.546L413.543 98.5703C410.939 98.607 409.618 98.7536 408.775 100.293Z" fill="white"/>
    </svg>
    