<svg xmlns="http://www.w3.org/2000/svg" xmlns:xlink="http://www.w3.org/1999/xlink" width="136.44882202148438" height="136.44882202148438" viewBox="0 0 136.44882202148438 136.44882202148438" fill="none">
<g  clip-path="url(#clip-path-vUY25oySs89Hl31OhHwe0)">
<path d="M68.2243 3.6272C103.9 3.6272 132.822 32.5483 132.822 68.2246C132.822 103.901 103.9 132.822 68.2243 132.822C32.5483 132.822 3.62701 103.901 3.62701 68.2246C3.62701 32.5486 32.548 3.6272 68.2243 3.6272ZM15.7454 89.6241C14.9806 89.5663 14.3932 89.4478 13.9902 89.2724C13.5868 89.0941 13.2673 88.8585 13.0343 88.5609C12.8013 88.2638 12.5502 87.6963 12.2783 86.8592L12.0201 86.0635C11.7916 85.3617 11.6836 84.9356 11.6918 84.7843C11.7032 84.632 11.7533 84.5068 11.8455 84.407C11.9849 84.2675 12.2755 84.1246 12.7197 83.9804L19.5673 81.7557C20.2148 81.5451 20.6405 81.4553 20.8381 81.485C21.0385 81.5139 21.233 81.6265 21.4212 81.8232C21.6094 82.0199 21.7936 82.4088 21.9762 82.9897L22.275 82.8927L20.6714 77.9573L20.3726 78.0545L20.5062 78.4658C20.6399 78.8772 20.6227 79.2255 20.4543 79.5107C20.3335 79.7171 19.9324 79.9294 19.2521 80.1502L12.2179 82.4358C11.598 82.6373 11.1824 82.7116 10.973 82.6552C10.6098 82.5551 10.3519 82.2748 10.2022 81.8138L10.0684 81.4025L9.77221 81.4986L12.5139 89.9374L15.7743 89.909L15.7454 89.6241ZM22.3799 92.31C22.0879 91.7365 21.6624 91.2705 21.1014 90.9122C20.5427 90.5525 19.8689 90.3745 19.0849 90.3793C18.3005 90.3838 17.5933 90.5465 16.9583 90.87C16.0926 91.3113 15.4406 91.9707 15.005 92.8432C14.4888 93.8767 14.4956 94.9125 15.0259 95.9533C15.3508 96.5909 15.8049 97.0878 16.3908 97.4432C16.9765 97.7987 17.6627 97.964 18.4454 97.9373C19.2283 97.9107 19.9287 97.7414 20.5478 97.4259C21.4246 96.9792 22.0672 96.3153 22.4723 95.4323C22.94 94.3943 22.9119 93.3534 22.3799 92.31ZM21.7701 92.3258C21.6349 92.0614 21.4217 91.8335 21.1247 91.6447C20.8293 91.4587 20.4427 91.3802 19.9608 91.4188C19.4797 91.4533 18.929 91.6305 18.307 91.9474C17.3024 92.4594 16.5382 93.1011 16.0141 93.8702C15.4894 94.6392 15.393 95.3521 15.7255 96.0046C15.973 96.4902 16.3778 96.7896 16.941 96.9035C17.5057 97.0141 18.2744 96.8202 19.2538 96.3213C20.4795 95.6965 21.3098 94.9431 21.7418 94.0564C22.0442 93.4554 22.0516 92.8786 21.7701 92.3258ZM24.6028 99.0423L25.9475 98.1009L25.7389 97.8032L23.6254 96.4347L23.4477 96.7136C23.6421 96.8454 23.7867 96.9766 23.8757 97.1039C23.9602 97.2247 23.9973 97.3429 23.9879 97.4554C23.9786 97.5674 23.9032 97.7012 23.7586 97.8517C23.618 98.0031 23.1668 98.3438 22.4056 98.8767L20.0501 100.526C19.5891 100.849 19.2376 101.01 18.9942 101.015C18.7518 101.016 18.5154 100.854 18.2903 100.533L18.1928 100.393L17.9445 100.567L20.1399 103.703L20.3882 103.529C20.147 103.184 20.0192 102.931 20.0016 102.775C19.9832 102.619 20.0197 102.459 20.1099 102.301C20.1751 102.178 20.4228 101.969 20.8506 101.67L24.1943 99.3286C25.1748 99.4519 25.8588 99.7897 26.2426 100.338C26.4907 100.693 26.5377 101.036 26.3841 101.369C26.2256 101.702 25.8605 102.07 25.2839 102.474L22.6874 104.293C22.3232 104.547 22.0992 104.69 22.0173 104.719C21.8112 104.797 21.621 104.806 21.4484 104.751C21.2777 104.698 21.085 104.523 20.8781 104.228L20.7854 104.096L20.5373 104.27L22.7342 107.408L22.9825 107.234C22.7693 106.929 22.6548 106.695 22.6406 106.54C22.6276 106.38 22.6594 106.235 22.7407 106.104C22.8359 105.938 23.0871 105.713 23.4865 105.434L26.1942 103.538C26.7659 103.137 27.1568 102.79 27.3617 102.495C27.6563 102.07 27.8034 101.672 27.8003 101.301C27.7991 100.931 27.6781 100.573 27.4349 100.225C26.9632 99.5516 26.0181 99.1571 24.6028 99.0423ZM27.3649 107.95C26.6111 107.896 26.0847 107.91 25.7843 107.988C25.4838 108.067 25.2678 108.179 25.1314 108.32C25.009 108.447 24.9446 108.601 24.9353 108.785C24.9262 108.968 24.9656 109.223 25.0552 109.553C24.2822 109.581 23.8666 109.601 23.8014 109.61C23.3289 109.671 22.9856 109.74 22.7708 109.826C22.631 109.879 22.5182 109.954 22.4238 110.052C22.2115 110.272 22.1605 110.628 22.267 111.124C22.466 111.998 22.9576 112.813 23.7396 113.569C24.7567 114.55 25.8668 115.049 27.0706 115.069C27.887 115.083 28.5154 114.86 28.9585 114.402C29.2788 114.07 29.4376 113.681 29.4319 113.239C29.4262 112.792 29.2595 112.362 28.9338 111.948C28.7232 111.672 28.2096 111.12 27.3935 110.296C26.951 109.844 26.6809 109.556 26.5828 109.429C26.4178 109.213 26.3311 109.041 26.3248 108.911C26.3223 108.78 26.3535 108.682 26.4195 108.614C26.4977 108.533 26.623 108.465 26.7994 108.411C26.9742 108.355 27.2248 108.336 27.5514 108.355C27.7614 108.715 28.0018 109.027 28.2776 109.293C28.9455 109.938 29.6572 110.269 30.4124 110.284C31.1653 110.297 31.7914 110.048 32.2923 109.529C32.7308 109.075 32.9777 108.591 33.0344 108.08L33.7561 108.777C33.9308 108.945 34.0385 109.041 34.0793 109.057C34.1227 109.075 34.1595 109.078 34.1918 109.069C34.2505 109.05 34.331 108.988 34.4331 108.882C34.5232 108.788 34.5731 108.712 34.5844 108.651C34.5958 108.613 34.5912 108.577 34.5742 108.541C34.5549 108.502 34.4574 108.4 34.2828 108.231L33.1045 107.093C32.965 106.457 32.6328 105.883 32.1016 105.371C31.4521 104.744 30.7282 104.43 29.9308 104.425C29.1311 104.423 28.4664 104.696 27.9335 105.248C27.5851 105.608 27.3575 106.023 27.2515 106.498C27.1457 106.973 27.1846 107.456 27.3649 107.95ZM31.7152 105.563C31.4161 105.275 31.0468 105.151 30.6154 105.195C30.1814 105.237 29.725 105.506 29.2485 106C28.6291 106.641 28.289 107.271 28.2243 107.891C28.1756 108.361 28.3148 108.752 28.6388 109.065C28.948 109.363 29.3114 109.493 29.7329 109.451C30.1544 109.413 30.6046 109.146 31.0814 108.653C31.7047 108.007 32.0525 107.369 32.1254 106.734C32.1764 106.265 32.0389 105.876 31.7152 105.563ZM25.3429 109.924C24.9517 109.947 24.624 110 24.3542 110.084C24.0846 110.168 23.8782 110.286 23.7323 110.437C23.5457 110.63 23.4976 110.913 23.5919 111.288C23.7541 111.93 24.2187 112.62 24.9846 113.359C25.7151 114.065 26.3767 114.455 26.9717 114.532C27.5664 114.61 28.0055 114.504 28.2881 114.212C28.4902 114.002 28.531 113.752 28.4094 113.463C28.2861 113.171 27.919 112.712 27.3127 112.095C26.4218 111.19 25.7664 110.465 25.3429 109.924ZM35.8209 117.399L35.1698 118.295L35.485 118.524L37.9058 119.103L38.0036 118.807C37.7428 118.739 37.5503 118.655 37.4264 118.566C37.3286 118.494 37.2617 118.399 37.2345 118.28C37.2034 118.161 37.2311 118.01 37.315 117.821C37.3989 117.636 37.7062 117.175 38.2386 116.442L43.4997 109.201L43.1938 108.979L40.7708 108.388L40.6849 108.693C40.9352 108.76 41.1169 108.839 41.2359 108.925C41.3456 109.005 41.4162 109.099 41.4445 109.212C41.4743 109.324 41.4468 109.474 41.3632 109.663C41.2779 109.854 40.9751 110.305 40.4547 111.021L39.6154 112.176C39.5105 111.565 39.1819 111.056 38.6309 110.656C37.7422 110.01 36.7453 109.856 35.6395 110.19C34.5294 110.524 33.6504 111.141 32.9979 112.039C32.3468 112.935 32.0695 113.857 32.1628 114.798C32.2586 115.741 32.6472 116.462 33.3309 116.959C33.6671 117.203 34.0328 117.362 34.4245 117.437C34.8183 117.508 35.2829 117.497 35.8209 117.399ZM36.1684 116.921L38.5132 113.693C38.7094 113.365 38.8344 113.021 38.884 112.668C38.9308 112.314 38.8897 111.988 38.7587 111.697C38.6275 111.401 38.4554 111.177 38.2411 111.021C37.8394 110.729 37.3519 110.65 36.7756 110.78C36.0145 110.954 35.305 111.494 34.642 112.406C33.9724 113.328 33.6609 114.179 33.7065 114.96C33.7516 115.742 34.0192 116.311 34.5116 116.669C34.9271 116.971 35.4793 117.054 36.1684 116.921ZM45.7983 114.932C45.2302 114.63 44.6145 114.492 43.9492 114.521C43.2851 114.546 42.6314 114.787 41.9916 115.241C41.3519 115.694 40.866 116.233 40.5315 116.862C40.0751 117.72 39.9195 118.634 40.0629 119.599C40.233 120.742 40.8328 121.586 41.8641 122.134C42.4959 122.47 43.1527 122.617 43.8364 122.572C44.5201 122.527 45.1772 122.269 45.8031 121.798C46.429 121.327 46.9058 120.787 47.2323 120.173C47.6941 119.305 47.8395 118.392 47.6649 117.437C47.4529 116.318 46.8326 115.481 45.7983 114.932ZM45.3082 115.295C45.0457 115.155 44.7401 115.091 44.3886 115.107C44.0399 115.124 43.6782 115.281 43.3058 115.589C42.9316 115.893 42.5818 116.355 42.2541 116.971C41.7249 117.967 41.4667 118.931 41.4786 119.861C41.4899 120.792 41.8196 121.431 42.4664 121.775C42.948 122.031 43.4509 122.044 43.9779 121.814C44.5043 121.581 45.0222 120.981 45.5381 120.011C46.1841 118.796 46.4321 117.703 46.2773 116.728C46.1801 116.063 45.8555 115.586 45.3082 115.295ZM51.4157 118.857L51.8956 117.287L51.5478 117.181L49.04 117.404L49.0714 117.733C49.3056 117.717 49.5006 117.732 49.6494 117.777C49.79 117.82 49.8924 117.891 49.9542 117.985C50.0154 118.079 50.0386 118.231 50.0171 118.439C49.9998 118.645 49.8538 119.191 49.5825 120.079L48.7415 122.829C48.5771 123.368 48.3994 123.711 48.2106 123.865C48.0201 124.015 47.7341 124.033 47.359 123.918L47.196 123.868L47.1073 124.158L50.768 125.277L50.8567 124.988C50.4539 124.864 50.1979 124.744 50.0877 124.631C49.9771 124.52 49.9077 124.371 49.8813 124.191C49.8569 124.054 49.9238 123.737 50.0766 123.238L51.2697 119.334C52.1184 118.828 52.8656 118.673 53.5051 118.869C53.9193 118.995 54.1679 119.237 54.2518 119.595C54.332 119.954 54.271 120.469 54.0652 121.142L53.1383 124.174C53.0085 124.599 52.9198 124.849 52.8733 124.922C52.7585 125.11 52.6148 125.235 52.445 125.298C52.2774 125.361 52.0178 125.342 51.6731 125.237L51.5189 125.19L51.4302 125.479L55.0934 126.6L55.1818 126.31C54.8263 126.201 54.5925 126.087 54.4853 125.973C54.3768 125.855 54.3121 125.721 54.2954 125.568C54.2688 125.379 54.3283 125.047 54.4706 124.581L55.4369 121.42C55.641 120.753 55.7354 120.238 55.7153 119.879C55.6858 119.363 55.556 118.959 55.3252 118.668C55.0976 118.378 54.781 118.17 54.3756 118.046C53.5893 117.805 52.6011 118.076 51.4157 118.857ZM59.0406 124.427C58.3988 124.826 57.9813 125.146 57.784 125.387C57.587 125.627 57.4782 125.844 57.4507 126.039C57.4263 126.213 57.4643 126.376 57.5652 126.53C57.6658 126.684 57.8469 126.867 58.114 127.081C57.5048 127.558 57.1802 127.818 57.1332 127.864C56.7868 128.191 56.5495 128.449 56.4262 128.645C56.3446 128.77 56.2972 128.897 56.2782 129.032C56.2357 129.334 56.4041 129.652 56.7817 129.991C57.456 130.581 58.3331 130.952 59.41 131.103C60.8097 131.3 62.0011 131.05 62.9867 130.359C63.6557 129.891 64.0327 129.341 64.1214 128.71C64.1858 128.252 64.086 127.845 63.821 127.49C63.5539 127.133 63.1667 126.883 62.6596 126.739C62.3268 126.639 61.5867 126.495 60.4421 126.308C59.819 126.203 59.4307 126.128 59.2767 126.082C59.0165 126.005 58.8456 125.917 58.7637 125.815C58.6851 125.711 58.6525 125.614 58.6656 125.519C58.6815 125.408 58.7427 125.28 58.8541 125.132C58.9624 124.984 59.154 124.822 59.4292 124.645C59.8105 124.812 60.1884 124.923 60.5682 124.977C61.488 125.106 62.2576 124.955 62.8776 124.524C63.4947 124.092 63.8544 123.522 63.9545 122.808C64.0423 122.182 63.9582 121.646 63.7033 121.199L64.6969 121.339C64.9372 121.373 65.081 121.387 65.1232 121.376C65.1685 121.365 65.2003 121.346 65.2216 121.32C65.2573 121.269 65.2859 121.172 65.306 121.026C65.3245 120.897 65.3196 120.806 65.2927 120.75C65.2802 120.713 65.255 120.686 65.2199 120.667C65.1819 120.647 65.043 120.622 64.8026 120.588L63.1803 120.36C62.6933 119.927 62.0873 119.659 61.3562 119.556C60.4622 119.43 59.6923 119.602 59.0446 120.067C58.396 120.535 58.0187 121.146 57.9119 121.906C57.8418 122.403 57.9014 122.872 58.0953 123.319C58.2886 123.765 58.6041 124.133 59.0406 124.427ZM61.157 119.939C60.7451 119.881 60.3735 119.998 60.0503 120.287C59.7243 120.576 59.5131 121.062 59.4179 121.742C59.2937 122.625 59.3893 123.334 59.7008 123.873C59.9375 124.282 60.2802 124.517 60.7261 124.58C61.1519 124.639 61.5223 124.531 61.8384 124.249C62.1573 123.971 62.3645 123.49 62.46 122.81C62.5848 121.922 62.4912 121.201 62.1763 120.644C61.9424 120.235 61.6026 120.002 61.157 119.939ZM58.5644 127.212C58.2619 127.461 58.0278 127.696 57.8586 127.923C57.6902 128.149 57.5924 128.366 57.5632 128.574C57.5261 128.84 57.6531 129.097 57.9501 129.345C58.4587 129.769 59.2399 130.054 60.2938 130.202C61.2995 130.344 62.0643 130.27 62.591 129.983C63.1177 129.696 63.4108 129.353 63.4675 128.95C63.508 128.661 63.3943 128.435 63.1256 128.272C62.8543 128.109 62.2877 127.954 61.4342 127.81C60.1816 127.602 59.2254 127.401 58.5644 127.212ZM75.4935 116.232L75.9221 116.172C76.3509 116.111 76.6902 116.189 76.9448 116.403C77.1242 116.559 77.2662 116.99 77.3657 117.699L78.0118 122.295C78.1813 123.5 78.1926 124.37 78.0497 124.905C77.9066 125.441 77.5619 125.912 77.0213 126.317C76.4816 126.722 75.8416 126.978 75.0989 127.082C74.5189 127.164 74.016 127.129 73.5869 126.977C73.158 126.828 72.8156 126.608 72.5596 126.321C72.3036 126.033 72.0953 125.608 71.9326 125.051C71.7727 124.494 71.6619 123.994 71.5998 123.554L70.9047 118.607C70.8154 117.972 70.8251 117.543 70.9368 117.323C71.0949 116.998 71.4119 116.805 71.8801 116.74L72.3144 116.678L72.2708 116.367L67.3662 117.056L67.4099 117.368L67.8382 117.307C68.2668 117.247 68.5934 117.312 68.815 117.502C69.0401 117.692 69.1986 118.136 69.2964 118.833L69.9197 123.269C70.1122 124.637 70.3344 125.555 70.5816 126.028C70.9521 126.716 71.4873 127.229 72.19 127.567C72.8907 127.908 73.8601 127.991 75.1003 127.816C76.237 127.656 77.105 127.304 77.7051 126.763C78.3015 126.221 78.6714 125.619 78.8086 124.959C78.9466 124.302 78.9336 123.403 78.7737 122.263L78.1268 117.661C78.0381 117.03 78.0418 116.622 78.1345 116.431C78.3219 116.024 78.6385 115.79 79.0838 115.727L79.5127 115.667L79.4688 115.355L75.4495 115.92L75.4935 116.232ZM82.8188 119.793L82.2841 118.241L81.9406 118.359L80.0425 120.013L80.2616 120.261C80.4416 120.11 80.6077 120.008 80.7548 119.957C80.8937 119.909 81.0182 119.906 81.1236 119.946C81.2288 119.986 81.3365 120.095 81.4414 120.276C81.548 120.453 81.7512 120.98 82.0537 121.859L82.99 124.578C83.1731 125.11 83.2318 125.493 83.1691 125.728C83.1031 125.961 82.882 126.144 82.5112 126.271L82.3502 126.327L82.4488 126.613L86.0681 125.367L85.9695 125.081C85.5715 125.218 85.2937 125.271 85.1383 125.245C84.983 125.219 84.8396 125.14 84.7129 125.01C84.6125 124.914 84.4799 124.617 84.3098 124.124L82.9809 120.264C83.3695 119.356 83.8834 118.791 84.5159 118.573C84.9252 118.433 85.2687 118.482 85.5465 118.722C85.8226 118.966 86.076 119.419 86.3054 120.084L87.3372 123.081C87.482 123.501 87.5574 123.756 87.5628 123.843C87.5804 124.062 87.5379 124.248 87.437 124.398C87.3392 124.548 87.1178 124.685 86.7768 124.802L86.6245 124.855L86.7229 125.141L90.3447 123.894L90.2461 123.608C89.8943 123.729 89.6386 123.774 89.4847 123.745C89.3279 123.714 89.1967 123.643 89.0932 123.529C88.9603 123.392 88.8132 123.089 88.6544 122.628L87.5784 119.502C87.3511 118.842 87.1249 118.371 86.8978 118.092C86.571 117.692 86.2283 117.441 85.8702 117.341C85.5156 117.241 85.1369 117.258 84.7364 117.396C83.9591 117.664 83.3191 118.464 82.8188 119.793ZM88.4291 111.447C88.2094 111.55 88.0594 111.712 87.9798 111.93C87.8987 112.153 87.9084 112.371 88.0081 112.586C88.1082 112.8 88.272 112.947 88.4954 113.03C88.7202 113.11 88.9399 113.103 89.1545 113.003C89.3688 112.903 89.515 112.739 89.5961 112.517C89.6732 112.293 89.6636 112.075 89.5638 111.861C89.464 111.646 89.3027 111.499 89.0828 111.416C88.8616 111.338 88.6434 111.347 88.4291 111.447ZM90.7748 114.819L90.4374 114.976L88.725 116.819L88.9611 117.046C89.1301 116.875 89.284 116.755 89.428 116.688C89.5612 116.626 89.6806 116.609 89.7869 116.639C89.8918 116.666 90.002 116.751 90.1154 116.899C90.2645 117.103 90.5174 117.584 90.872 118.344L92.1334 121.05C92.3361 121.484 92.4387 121.793 92.4387 121.977C92.4424 122.164 92.3996 122.317 92.3128 122.437C92.2292 122.559 92.0152 122.7 91.6725 122.86L91.8006 123.134L95.2096 121.545L95.0814 121.27C94.7495 121.425 94.5026 121.496 94.3441 121.484C94.1848 121.469 94.0405 121.406 93.909 121.289C93.7755 121.173 93.6088 120.897 93.4042 120.458L90.7748 114.819ZM92.2919 114.577L92.4634 114.841C92.7213 114.725 92.9081 114.662 93.0161 114.654C93.212 114.634 93.3906 114.648 93.5595 114.697C93.7262 114.746 93.9447 114.866 94.2137 115.052L100.09 119.027L100.38 118.838L99.065 111.771C98.9845 111.356 98.9779 111.023 99.0499 110.774C99.0922 110.632 99.2322 110.473 99.4641 110.295L99.2931 110.031L97.174 111.407L97.3452 111.671C97.5918 111.51 97.7619 111.417 97.8616 111.391C97.9586 111.365 98.0553 111.371 98.1542 111.407C98.2185 111.427 98.2727 111.467 98.3152 111.533C98.4045 111.671 98.4819 111.906 98.5442 112.241L99.4434 116.946L95.6056 114.341C95.3587 114.178 95.1806 114.015 95.0738 113.851C94.9746 113.698 94.9462 113.549 94.9831 113.394C95.0219 113.241 95.1342 113.107 95.3181 112.987L95.5185 112.857L95.3473 112.593L92.2919 114.577ZM102.574 111.105L106.61 107.597C105.982 106.874 105.269 106.481 104.474 106.415C103.678 106.347 102.953 106.599 102.298 107.168C101.522 107.842 101.124 108.681 101.099 109.686C101.07 110.689 101.492 111.69 102.361 112.689C103.163 113.613 104.051 114.133 105.027 114.244C106.001 114.357 106.838 114.106 107.541 113.495C108.185 112.935 108.515 112.228 108.53 111.375C108.544 110.525 108.341 109.769 107.924 109.108L107.616 109.153C107.867 109.829 107.946 110.395 107.845 110.85C107.745 111.307 107.503 111.701 107.12 112.035C106.547 112.533 105.833 112.722 104.98 112.599C104.124 112.475 103.325 111.978 102.574 111.105ZM102.253 110.735L104.956 108.385C104.609 108.029 104.336 107.804 104.134 107.712C103.823 107.566 103.502 107.516 103.171 107.563C102.843 107.612 102.562 107.733 102.334 107.932C101.981 108.238 101.785 108.65 101.744 109.166C101.704 109.683 101.874 110.208 102.253 110.735ZM106.518 103.145L106.29 103.417L105.509 105.82L105.797 105.952C105.876 105.728 105.969 105.55 106.08 105.417C106.174 105.305 106.285 105.236 106.408 105.211C106.531 105.186 106.672 105.214 106.825 105.297C106.981 105.38 107.404 105.711 108.093 106.29L110.391 108.218C110.738 108.509 110.936 108.694 110.995 108.777C111.108 108.947 111.156 109.116 111.133 109.281C111.106 109.507 110.965 109.773 110.711 110.075L110.944 110.27L113.491 107.234L113.259 107.04C113.034 107.307 112.824 107.477 112.626 107.556C112.43 107.632 112.25 107.65 112.085 107.609C111.848 107.55 111.565 107.38 111.238 107.106L108.396 104.721C108.162 104.175 108.039 103.729 108.025 103.386C108.015 103.223 108.044 103.104 108.109 103.027C108.185 102.936 108.377 102.86 108.682 102.796C108.988 102.733 109.206 102.625 109.332 102.475C109.464 102.318 109.517 102.138 109.494 101.927C109.472 101.716 109.377 101.542 109.207 101.399C109.019 101.241 108.786 101.178 108.511 101.21C108.235 101.247 107.997 101.382 107.799 101.619C107.361 102.14 107.377 103.023 107.853 104.265L106.517 103.145L106.518 103.145ZM111.849 96.2864L111.688 96.5154C111.762 96.6478 111.798 96.747 111.803 96.8105C111.806 96.8763 111.783 96.9443 111.73 97.02C111.675 97.098 111.531 97.2292 111.297 97.4174C110.942 97.6978 110.676 97.962 110.501 98.212C110.103 98.7792 109.956 99.3665 110.057 99.9683C110.156 100.57 110.468 101.056 110.99 101.421C111.391 101.703 111.795 101.83 112.205 101.808C112.618 101.786 113.224 101.559 114.023 101.122C114.826 100.685 115.413 100.43 115.786 100.36C116.161 100.288 116.505 100.364 116.824 100.587C117.087 100.771 117.241 101.027 117.29 101.361C117.336 101.692 117.246 102.016 117.023 102.335C116.707 102.787 116.257 103.081 115.674 103.215C115.091 103.349 114.43 103.256 113.694 102.934L113.536 103.162L115.799 104.746L115.958 104.52C115.88 104.374 115.879 104.25 115.954 104.143C116.022 104.046 116.133 103.938 116.284 103.818C116.772 103.417 117.15 103.023 117.424 102.633C117.801 102.095 117.966 101.481 117.918 100.8C117.87 100.115 117.559 99.5732 116.983 99.1695C116.233 98.6451 115.303 98.6908 114.19 99.3098L112.992 99.9743C112.472 100.265 112.068 100.415 111.778 100.427C111.491 100.444 111.217 100.362 110.96 100.182C110.752 100.036 110.632 99.8045 110.601 99.4867C110.567 99.1678 110.665 98.8484 110.891 98.5246C111.187 98.1014 111.555 97.8381 111.992 97.7318C112.43 97.6297 113.048 97.7278 113.848 98.0277L114.009 97.7987L111.849 96.2864ZM110.216 90.9749C110.099 91.1869 110.073 91.4066 110.137 91.6302C110.202 91.8573 110.338 92.0285 110.545 92.1433C110.752 92.2578 110.97 92.2799 111.2 92.2164C111.429 92.1487 111.603 92.0137 111.717 91.8071C111.832 91.6002 111.854 91.3816 111.789 91.1543C111.72 90.9281 111.584 90.7566 111.377 90.6421C111.17 90.5273 110.953 90.5029 110.727 90.5655C110.502 90.6319 110.331 90.7679 110.216 90.9749ZM114.096 92.3241L113.915 92.6493L113.613 95.1463L113.938 95.1914C113.974 94.9538 114.028 94.7665 114.105 94.6276C114.176 94.4989 114.263 94.415 114.366 94.3764C114.467 94.337 114.607 94.3416 114.785 94.3943C115.026 94.472 115.512 94.712 116.247 95.1188L118.858 96.5662C119.277 96.7986 119.541 96.988 119.649 97.1371C119.762 97.2853 119.818 97.4347 119.818 97.5833C119.822 97.7307 119.731 97.9708 119.548 98.3016L119.813 98.4484L121.637 95.1582L121.372 95.0114C121.195 95.3317 121.036 95.5344 120.901 95.6177C120.763 95.6996 120.609 95.7331 120.434 95.7155C120.258 95.7005 119.961 95.5752 119.537 95.3402L114.096 92.3241ZM113.981 87.2462L113.875 87.486C114.3 87.9273 114.584 88.253 114.727 88.4588C114.994 88.852 115.196 89.2613 115.337 89.6774C115.474 90.0921 115.537 90.4677 115.525 90.8002L115.778 90.9128L116.275 89.7956L121.032 91.9134C121.543 92.1407 121.945 92.2536 122.235 92.2533C122.528 92.2544 122.789 92.1716 123.022 92.0033C123.255 91.8357 123.424 91.6333 123.529 91.3958C123.685 91.0454 123.71 90.6489 123.602 90.2058C123.492 89.7628 123.225 89.3407 122.803 88.935L122.67 89.2352C122.835 89.4164 122.936 89.6094 122.971 89.8146C123.004 90.0224 122.984 90.2089 122.908 90.3801C122.816 90.5859 122.662 90.7194 122.444 90.7767C122.228 90.8385 121.89 90.7671 121.431 90.563L116.843 88.5203L117.579 86.8677L117.039 86.6276L116.303 88.2797L113.981 87.2462ZM117.04 86.5534L117.342 86.6401C117.485 86.3813 117.62 86.2036 117.742 86.1038C117.83 86.036 117.989 85.9615 118.22 85.8807C118.518 85.771 118.766 85.7038 118.956 85.6684L125.337 84.6057L126.475 85.5048C126.902 85.8373 127.17 86.1245 127.284 86.3643C127.395 86.6061 127.43 86.8082 127.384 86.9689C127.368 87.0248 127.288 87.1481 127.145 87.342C126.938 87.6152 126.807 87.8417 126.756 88.0192C126.681 88.28 126.691 88.505 126.787 88.6944C126.884 88.8809 127.046 89.0085 127.273 89.0737C127.511 89.142 127.752 89.0997 127.993 88.9469C128.238 88.7956 128.405 88.558 128.496 88.2389C128.623 87.7983 128.57 87.2912 128.337 86.7113C128.105 86.1313 127.671 85.5927 127.034 85.0924L120.477 79.935C120.175 79.7012 119.993 79.5501 119.932 79.4789C119.79 79.297 119.702 79.1428 119.669 79.016C119.633 78.8893 119.636 78.7221 119.671 78.516L119.369 78.4293L118.675 80.8498L118.977 80.9362C119.044 80.7035 119.107 80.5476 119.17 80.4634C119.232 80.3823 119.298 80.3293 119.37 80.3016C119.43 80.28 119.507 80.2814 119.604 80.3092C119.821 80.3713 120.027 80.4782 120.225 80.6341L123.857 83.4789L119.583 84.2128C119.16 84.2865 118.841 84.291 118.63 84.2304C118.472 84.185 118.359 84.0872 118.289 83.9347C118.218 83.7825 118.218 83.5846 118.288 83.3406L118.337 83.1711L118.034 83.0846L117.04 86.5534ZM112.51 32.8884C112.913 32.855 113.49 33.0236 113.869 33.188C114.941 33.6526 114.046 33.1177 115.166 33.2728L115.592 33.3519C115.87 33.4009 115.758 33.3975 116.025 33.3757C115.949 33.0239 116.183 33.3783 115.892 33.0123C115.771 32.8604 113.722 32.4281 113.265 32.3737C112.778 32.3155 112.476 32.4091 111.962 32.3487C111.5 32.2943 111.101 32.292 110.678 32.1571C110.659 31.6812 110.943 31.705 110.68 31.3736C110.244 30.8262 110.455 31.3841 109.264 30.8061C108.023 30.2037 108.12 30.7449 107.491 31.1375C107.287 31.2653 107.123 31.398 106.919 31.5148C106.684 31.6505 106.085 32.0947 105.792 32.2336C105.523 32.3617 105.409 32.3484 105.152 32.5006C103.516 33.4741 103.846 32.8927 103.183 33.7414C103.687 34.1408 108.15 35.2704 108.758 35.2505C110.28 35.2009 111.661 35.324 110.347 34.2964C110.439 34.0073 110.367 33.8114 110.597 33.6283C110.8 33.4664 111.501 34.003 111.705 33.8414C112.069 33.552 112.258 33.2065 112.51 32.8884ZM117.772 30.2658C116.903 30.9898 116.984 31.9663 114.841 31.5318C114.807 31.525 114.707 31.4977 114.672 31.4909C114.648 31.4858 114.612 31.4788 114.587 31.4742L113.04 31.29C113.016 31.2846 112.98 31.28 112.955 31.2744L111.694 30.8795C111.964 30.3228 112.11 30.2363 112.595 29.85L113.509 30.2352C114.634 30.462 114.742 29.9245 114.889 29.5889C114.431 29.0387 113.065 27.728 112.343 27.4777C111.007 27.0148 111.337 27.6693 110.956 28.1832C111.295 28.5438 111.433 28.501 111.782 28.6265C112.857 29.014 111.817 29.4494 111.583 29.5606L110.762 29.1189C110.263 29.7924 111.006 29.5509 110.11 30.2635C108.341 29.4905 109.679 29.3292 109.159 28.6753C108.608 27.9828 108.221 29.1081 108.118 29.2533C107.32 30.3772 106.351 30.6893 104.783 31.157C103.547 31.5261 102.835 31.517 101.772 32.3617C101.754 32.3762 100.853 33.37 102.066 33.6064C103.584 33.9027 101.582 35.3041 103.742 35.7143C105.041 35.9603 106.582 36.0241 107.882 36.0578C108.545 36.0751 109.183 35.7815 109.596 36.3008C110.694 37.681 105.222 37.1812 105.92 39.7131C105.973 39.9067 105.955 39.7905 105.989 39.9821C106.057 40.3623 105.817 40.0008 106.012 40.246C106.283 40.587 106.63 40.6296 106.813 40.8597C107.186 41.3294 106.564 40.9408 107.106 41.3328C107.979 41.9644 108.129 42.2334 108.699 42.649C109.417 43.1725 109.644 43.3466 110.954 42.7246C111.086 42.0157 111 42.4423 110.946 41.8533C110.914 41.51 111.186 40.5017 111.425 40.2355C111.587 40.0553 111.523 40.1618 111.607 39.9311C111.728 39.5986 112.162 39.4827 111.824 38.8029C111.527 38.2076 111.495 38.6938 111.41 38.9356C111.249 39.4007 110.725 40.2494 110.234 40.6398C109.572 41.1667 109.166 41.027 108.559 40.7753C107.802 40.4612 107.916 39.8174 107.868 39.2386C108.43 38.7916 110.141 37.6472 110.586 37.5455C110.48 37.0814 110.391 37.2711 110.361 36.7359C110.337 36.3161 110.354 36.2512 110.514 35.8827L112.835 36.1508C113.014 36.1967 113.03 36.2115 113.17 36.2724C113.762 35.801 114.623 35.7174 113.065 34.899C112.648 34.6805 112.63 34.7874 112.258 34.3398C112.716 34.1399 112.947 34.2955 113.382 34.4103L114.147 34.5711C114.783 34.6643 114.349 34.6592 115.087 33.9653L117.615 34.7046C118.518 34.9875 118.533 35.4626 120.225 34.7247L120.36 34.3049C119.001 33.2286 116.998 33.4644 118.084 31.8688C118.195 31.7041 119.092 31.0366 117.772 30.2658ZM50.4451 14.3739C50.8964 15.0285 51.3746 14.2716 51.5316 14.711C51.5753 14.8337 51.5132 15.8083 51.4866 15.9355C51.3732 16.469 51.1217 16.6079 51.3706 17.3044C51.85 18.6472 52.5802 18.1857 53.1298 18.4757L53.2681 18.5596C53.6233 19.8964 53.5323 20.4625 52.2553 21.1059C51.8463 21.3123 51.7476 21.5371 51.393 21.7653C51.5549 22.1224 51.6623 22.125 51.9208 22.3418C52.0651 22.4626 52.4639 22.8322 52.6017 22.7829C53.0485 22.6236 53.3373 21.21 53.7713 21.9943C54.01 22.4255 53.9371 22.6378 54.2501 23.0613C54.5228 23.4298 54.5673 23.5341 54.9582 23.6325C55.0251 22.9952 54.5242 21.6686 54.4902 20.9189C54.4556 20.1558 53.7602 18.5862 53.4668 17.7636C53.8875 17.3393 54.457 16.9036 54.3541 16.1292C54.2756 15.5412 54.2467 15.6572 53.7866 15.3851C53.2438 15.0636 53.7171 14.6551 53.1533 14.8564C52.3877 15.1299 53.4272 14.8896 53.1409 16.7193C53.0825 17.0909 52.7902 17.5451 52.4954 17.7486C52.1025 17.1386 51.9055 17.5167 52.0881 16.3987C52.1453 16.0495 52.1201 16.2624 52.0875 15.9531L52.1241 15.0803C52.1388 14.9933 52.1983 14.7699 52.2256 14.6835C52.5688 13.5927 52.6868 13.6837 53.9122 12.7236C54.4485 12.3038 54.6957 11.8236 54.6231 11.1915C53.8952 11.0078 54.3235 11.2159 53.6882 11.2606C53.2216 11.2935 53.5102 11.0866 53.6055 10.7093C53.2738 9.7801 53.2299 8.9581 52.657 8.3906C52.4098 8.3648 52.1071 8.4127 51.8307 8.4441C51.5917 9.3915 51.2748 8.6709 51.6439 9.9581C51.7329 10.2671 51.8613 11.4381 51.8398 11.742C51.7176 13.4728 52.1184 12.7817 51.2343 13.858C50.9434 14.2121 51.0565 14.1557 50.4451 14.3739ZM54.2163 19.1872C54.7867 18.9978 54.9491 19.2138 55.8757 20.0058C56.2207 20.3003 57.1916 20.903 57.6672 20.7332C57.6814 20.7281 58.419 19.8065 57.9958 19.0894C57.989 19.078 57.8299 18.8901 57.8024 18.8436C57.6942 18.6599 58.2795 18.5984 57.1162 18.5154C57.0379 18.5097 54.074 17.8727 54.2163 19.1872ZM86.2172 14.3555C88.1828 14.6713 86.9967 12.564 86.2172 14.3555ZM84.2315 13.947C84.4317 13.4569 84.2389 13.2727 84.4101 12.4396C84.5555 11.7323 84.8237 11.5192 84.0215 11.1702C83.7774 11.806 83.9906 11.5608 83.8066 12.5042C83.5674 13.7296 82.1846 14.8408 83.2227 14.7665C83.5852 14.7405 84.2211 13.9726 84.2315 13.947ZM81.1874 15.7969C81.8011 14.9324 82.7334 15.5016 82.5038 13.7169C82.3842 12.7857 82.0219 12.9203 81.9253 13.1176C81.8612 13.2477 82.073 13.7608 81.7611 14.4136C81.4828 14.9956 81.1662 14.9961 80.8889 15.5401C81.0085 15.6912 80.9907 15.6555 81.1874 15.7969C80.7645 16.0821 80.8813 15.9146 79.8818 16.0994L78.4316 16.2848C78.3879 16.5569 78.4988 18.3124 79.7347 17.7973C80.5984 17.4373 80.2976 17.3506 80.9442 17.2658C81.4006 17.2055 81.2231 17.252 81.6342 17.089C81.8527 17.0025 82.899 16.647 82.7176 17.2097C82.6311 17.4782 82.5727 17.1697 82.2807 17.7177C82.1628 17.9382 82.0097 18.3932 81.906 18.6472C78.6342 19.317 78.3621 17.6737 78.5659 19.0874C78.7176 20.1419 78.8644 19.7819 78.7938 20.3349C79.5195 20.5637 79.9714 20.1073 80.7254 20.1215C81.5375 20.1365 81.0939 21.1587 80.2401 21.7335C79.8135 21.5161 79.4931 21.2017 79.0662 20.9843C78.8259 21.7474 79.337 21.8052 79.8648 22.6548C80.085 23.0088 79.9453 22.9697 80.2979 23.2373C80.8268 23.1293 81.3708 22.7877 81.6744 22.1706C81.9576 21.5943 81.6577 21.6471 81.8502 21.2301C81.9882 20.9316 82.1937 20.5753 82.3567 20.177C82.6799 20.145 82.8292 20.1113 83.1773 20.0846L84.3931 20.0231C85.036 20.0276 84.3883 20.2621 85.8042 19.9721C85.8544 19.5809 85.7427 19.3176 85.6732 18.9768C83.7341 18.184 83.7723 18.7759 82.9778 18.7194C82.5798 18.6914 82.8023 18.4289 82.9747 18.008C83.6065 17.2315 85.8099 17.6454 87.1152 16.9512C87.9308 16.5178 87.7428 15.8709 87.0611 15.9112C87.4645 14.925 87.346 15.6716 88.6771 14.5276C89.2783 14.0108 88.6094 14.3589 89.3948 13.9623C90.3547 13.4776 90.1389 13.0555 90.0885 12.443C88.8302 12.0407 89.1718 13.0283 87.6209 12.2386C88.0345 11.4268 88.3662 11.2839 89.0754 10.9242C89.7268 10.5939 90.4802 10.3867 90.7382 9.8802C90.0516 9.3592 90.7249 9.7742 90.6758 9.2336C90.637 8.8107 89.8793 8.8855 89.8481 8.894C89.551 8.9773 89.4263 9.3617 89.1888 9.6015L87.8123 10.6458C87.2762 11.024 86.501 12.0297 85.4728 11.8984C85.1857 12.6485 85.5967 12.7063 85.4136 13.364C85.1593 14.2756 84.8759 13.6327 84.6874 14.8062C85.2254 14.8927 85.6202 14.6333 85.3529 15.482C84.4118 15.1855 82.2725 15.9715 81.1874 15.7969ZM18.4851 30.7196C19.4437 31.3537 19.6251 30.7236 20.7995 31.9357C21.2318 32.3816 20.5864 32.055 21.6667 32.923C22.3351 33.4599 21.7642 33.5738 21.4515 34.0243C20.8812 34.846 22.4964 35.5672 23.1761 36.2455C23.9871 37.0551 23.8442 36.5942 24.8738 37.9001C25.0393 38.1101 25.1575 38.3043 25.3137 38.4744C26.6199 39.8968 26.1548 39.0884 27.1435 40.6766C27.3348 40.9842 27.7291 41.3158 27.9854 41.832C28.1642 42.1926 28.0367 42.0608 28.2955 42.4296C29.0931 43.5677 29.2805 42.9449 30.1071 43.4914L30.3016 43.2114C30.2012 43.1005 29.1802 41.315 28.5146 40.5927L27.2776 39.3449C27.2571 39.3132 26.9595 38.5486 26.5196 38.0112C26.3274 37.7771 26.0805 37.6135 25.8934 37.389C25.3375 36.7217 25.4041 36.4884 25.0246 36.0751C24.5435 35.5516 23.8233 34.7429 23.7119 34.1062C23.6095 33.5211 23.5114 33.6388 23.4528 33.0092L23.44 32.8479C23.4392 32.8397 23.4023 32.6106 23.402 32.6098C22.6097 32.514 21.7035 31.8093 21.3506 31.1009C21.053 30.5031 21.4172 30.6856 21.1122 30.1635L19.8539 28.3479C19.6294 28.192 19.4743 28.3085 19.1926 28.3037C18.0202 29.9934 18.8674 29.7556 18.4851 30.7196ZM25.7571 29.8145C26.1236 29.8208 26.288 29.6711 26.6624 29.8211C27.4831 30.1499 26.1769 30.1983 28.3522 31.0618C28.463 32.0908 28.0466 31.7081 27.9757 32.279C27.9068 32.8326 27.9406 31.8895 29.0642 33.139L31.5213 35.0365C32.8354 35.6582 34.4571 34.5178 35.0011 32.9655C35.1635 32.5023 35.3554 31.5658 35.2718 31.119C35.0238 29.7885 34.6096 30.208 33.6085 29.8539C32.5812 29.4903 32.9817 29.9713 32.3606 29.6405C32.044 29.4721 31.415 29.1762 31.1341 29.3525C30.2103 29.9308 32.4616 29.3613 32.8068 31.074C33.0923 32.4913 33.6107 32.8584 32.5483 34.3894C31.3892 34.3701 30.515 33.787 30.4937 32.7178C30.4861 32.3515 30.6128 32.3167 30.5978 31.9635C30.5811 31.5627 30.5326 31.6945 30.5887 31.2296C28.6923 29.9137 29.6646 30.3114 28.0089 29.1629C27.6846 28.9372 27.7368 29.2507 27.4125 29.0254C27.1747 28.8604 27.2022 28.4091 27.0822 28.1044L26.5176 28.1514C25.9558 28.8315 25.8863 29.0112 25.7571 29.8145ZM22.1403 29.2422C22.5635 29.5359 22.347 30.005 22.6466 30.3764C23.0843 30.9189 23.4593 30.7066 23.6359 31.4235C23.8774 32.4037 23.9797 31.7327 24.323 32.525C24.5339 33.0109 24.7116 33.2532 24.5155 33.7975L24.7023 33.9273C25.0456 33.6169 24.7227 33.9307 25.0645 33.6711C25.4611 33.3703 25.8699 32.8451 26.0564 32.3754C24.9271 30.3883 25.2641 32.4899 24.5486 29.8692C24.5441 29.8537 24.5342 29.8177 24.5274 29.7916C24.2289 29.6731 23.9488 29.5781 23.6503 29.4599L23.2918 28.3808C23.2654 28.3836 23.2016 28.374 23.2121 28.3901L22.9697 28.4066C22.5193 28.412 22.3801 28.3241 21.9402 28.5999C20.7298 29.3593 22.0187 29.1577 22.1403 29.2422ZM23.8261 26.8132L24.0129 26.943C24.0064 27.3217 24.0591 27.8938 23.925 28.2663C24.7967 28.8431 25.3945 28.3425 25.9251 27.578L25.6876 27.1287C26.2032 26.3767 25.9079 26.32 25.0138 25.6998C24.8454 25.7658 24.7428 25.7675 24.628 25.8239C24.361 25.9543 24.4594 25.9761 24.1923 26.1272C23.639 26.4413 23.6795 26.0734 23.2654 26.4243C23.5749 26.9513 23.3102 26.4552 23.8261 26.8132ZM25.8234 34.7052C26.7092 34.7202 27.5412 34.0637 28.2394 35.4127C28.266 35.4098 28.2853 35.3889 28.3193 35.4039C28.3196 35.4039 28.7122 35.3795 28.9061 35.4827C29.2062 35.6414 30.4152 37.044 31.1219 36.4445C30.3282 35.5561 30.5059 36.0902 29.9719 35.5961C29.3412 35.0121 28.4117 34.503 28.1617 34.2012C27.654 33.5877 28.3414 33.8227 27.2424 33.0596L26.6967 33.2136C26.5241 33.548 26.5658 33.6359 26.3421 33.9577C26.1233 34.2732 25.7534 34.4172 25.8234 34.7052ZM29.585 41.0528C29.8568 41.2416 30.0073 41.2591 30.2644 41.1951C30.2786 41.1917 30.5122 41.1041 30.5711 41.0842C30.7438 41.0264 30.718 41.046 30.8795 40.9825C30.8931 40.1667 29.9217 39.5391 29.3108 38.8962C29.1558 38.7332 27.6548 36.6534 27.324 37.1308L27.1942 37.3176C27.4604 37.7858 27.8331 37.7351 28.2376 38.5997C28.6552 39.492 28.9766 39.3528 29.1246 40.074C29.2043 40.462 29.361 40.8974 29.585 41.0528ZM22.6534 27.1069C22.7328 26.4484 22.3005 26.051 21.6947 25.8721C21.1998 25.7258 20.9801 26.1269 20.4169 26.9391L21.5263 27.2004C21.9694 27.3138 22.2897 27.2495 22.6534 27.1069ZM27.8348 36.7932C28.1787 36.5017 28.1798 36.62 28.6546 36.8085C28.8253 36.3356 28.7575 36.4034 28.3754 36.0366C27.9891 35.6655 28.0679 35.5833 27.5698 35.7786C27.5639 36.1327 27.5724 36.4836 27.8348 36.7932ZM68.2243 23.4221C43.4804 23.4221 23.4219 43.4806 23.4219 68.2246C23.4219 92.9686 43.4804 113.027 68.2243 113.027C92.9682 113.027 113.026 92.9682 113.026 68.2246C113.026 43.481 92.9679 23.4221 68.2243 23.4221Z" fill-rule="evenodd"  fill="#C01051" >
</path>
<path d="M68.2246 0C105.904 0 136.449 30.545 136.449 68.2246C136.449 105.904 105.904 136.449 68.2246 136.449C30.5454 136.449 0 105.904 0 68.2246C0 30.5454 30.5453 0 68.2246 0ZM68.2246 2.0503C31.6775 2.0503 2.0503 31.6775 2.0503 68.2246C2.0503 104.772 31.6775 134.398 68.2246 134.398C104.772 134.398 134.398 104.771 134.398 68.2246C134.398 31.6778 104.771 2.0503 68.2246 2.0503Z" fill-rule="evenodd"  fill="#C01051" >
</path>
<path d="M75.1437 25.1113C77.3649 40.8657 41.0925 40.0159 43.4716 55.0338C44.5403 61.7794 49.8059 65.8117 61.3676 64.7572C38.401 49.0031 98.1142 49.7061 75.1437 25.1113ZM76.7211 33.1563C78.5109 48.4492 45.7716 44.0813 53.4807 60.7615C34.8143 47.5968 74.1646 44.0266 76.7211 33.1563Z" fill-rule="evenodd"  fill="#C01051" >
</path>
<path d="M80.1874 51.2507C85.379 46.8323 85.5794 41.6115 81.5021 37.3825C79.7514 42.9268 74.5535 47.3817 67.5023 50.6591C62.2514 53.0997 60.1093 54.3929 60.6232 56.2266C60.9231 57.297 61.8052 57.7888 63.3615 57.8234L82.6852 57.8234C78.0449 55.8482 77.2733 53.7307 80.1874 51.2507ZM76.5522 50.5083C73.5497 52.4526 74.0299 54.1871 75.7834 55.6872L66.8118 55.6872C65.6873 55.2186 65.9793 54.3266 67.3835 53.693C73.6719 50.857 78.2391 47.2819 81.3569 43.4095C81.9386 45.72 80.1964 48.1482 76.5522 50.5083Z" fill-rule="evenodd"  fill="#C01051" >
</path>
<path d="M52.1221 65.6121C50.154 65.3664 48.2216 64.6478 46.7981 63.3773L38.1881 100.315L62.4379 100.315L63.5015 95.7147L45.2863 95.7147L52.1221 65.6121Z" fill-rule="evenodd"  fill="#C01051" >
</path>
<path d="M64.1557 66.0983L58.5539 66.0983L53.0422 90.0621L64.8083 90.0621L65.7049 86.1843L59.4176 86.1843L64.1557 66.0983Z" fill-rule="evenodd"  fill="#C01051" >
</path>
<path d="M73.4335 86.1843L68.0888 86.1843L67.1922 90.0621C73.6773 90.0621 72.9675 90.0621 72.9675 90.0621C88.4829 90.0621 93.8251 62.7857 75.7834 62.7857L67.1732 62.7857L67.8306 60.8468L80.3841 60.8468C102.259 61.2508 95.3187 95.7147 73.0316 95.7147C70.9464 95.7147 68.4732 95.7144 65.8854 95.7147L64.8219 100.315L74.7976 100.315C102.717 100.315 106.078 58.9785 82.9557 58.9785L65.8503 58.9785C64.9302 63.0536 64.4536 65.0206 64.4536 65.0206L74.7976 65.0206C88.5972 66.3353 81.3175 86.1843 73.4335 86.1843Z" fill-rule="evenodd"  fill="#C01051" >
</path>
</g>
<defs>
<clipPath id="clip-path-vUY25oySs89Hl31OhHwe0">
<path d="M-4.24805e-06 136.449L136.449 136.449L136.449 -4.24805e-06L-4.24805e-06 -4.24805e-06L-4.24805e-06 136.449Z" fill="white"/>
</clipPath>
</defs>
</svg>
