<svg xmlns="http://www.w3.org/2000/svg" xmlns:xlink="http://www.w3.org/1999/xlink" width="198.42520141601562" height="198.42520141601562" viewBox="0 0 198.42520141601562 198.42520141601562" fill="none">
<path d="M99.2126 7.8344C149.68 7.8344 190.591 48.7457 190.591 99.2126C190.591 149.68 149.679 190.591 99.2126 190.591C48.7457 190.591 7.83441 149.68 7.83441 99.2126C7.83441 48.7457 48.7457 7.8344 99.2126 7.8344ZM99.2126 41.8547C67.5346 41.8547 41.8547 67.5346 41.8547 99.2126C41.8547 130.891 67.5346 156.571 99.2126 156.571C130.891 156.571 156.57 130.891 156.57 99.2126C156.57 67.5345 130.891 41.8547 99.2126 41.8547Z" fill-rule="evenodd"  fill="#E60013" >
</path>
<path d="M57.7993 54.2775C54.7087 54.7189 56.8369 53.6446 53.1541 50.675C50.394 54.8292 49.3106 57.6786 47.3431 57.8294C47.1132 54.5174 51.7791 52.1496 51.4278 48.7681C48.6887 49.8813 49.6916 50.3638 47.3233 50.584C46.3105 49.3495 45.447 48.2364 44.3528 46.891C42.5871 44.7143 42.948 44.6134 41.8141 42.3054C40.972 44.1221 40.8506 46.2393 38.4834 45.8683C37.3289 45.3056 37.2892 43.1388 37.0678 41.8034C36.8067 40.1783 36.3654 38.6932 36.3654 37.3689C37.2691 36.6265 36.7869 36.8071 38.192 36.305C40.9311 37.6297 39.577 38.5325 39.5966 42.0951C40.0482 41.6231 39.8676 42.0248 40.2693 41.262C40.6006 40.6398 40.47 40.8609 40.701 40.218C41.584 37.73 41.3935 34.8299 42.8182 34.3486C44.464 33.8057 44.4838 35.2415 44.4433 35.5927L43.2598 38.8341C42.9888 40.2985 43.1087 41.1517 43.9016 42.4265L44.6743 43.4693C45.3163 39.1547 43.5305 41.2022 43.8917 38.452C44.5235 38.2011 46.8819 37.8805 47.2232 37.961C48.6785 38.2814 47.5943 37.8607 48.2669 40.0374L48.5884 40.8005C48.9991 40.8807 48.9594 40.8609 49.8623 40.9204C50.6251 43.9614 49.2602 41.8839 51.5883 42.6666L51.4378 44.513C53.3942 45.4369 49.631 44.2928 52.3208 44.483C53.0033 44.5337 52.6422 44.2729 53.3546 44.8643C53.1839 46.1994 52.6819 46.3802 52.0597 47.6045C55.2209 46.9021 55.4014 43.2292 58.5323 42.1756C59.7061 44.9448 58.5425 42.5665 54.6987 48.5371L55.662 50.5242C55.6722 50.4737 55.7722 50.2127 55.8028 50.2932C56.0134 50.8249 56.054 48.0252 60.0077 48.1252C59.8062 50.6345 58.8427 50.3932 57.1178 51.4877C58.2814 53.9759 58.0601 52.7712 57.7993 54.2775ZM57.5493 50.1027C56.6254 50.4034 57.0274 49.932 56.5549 50.5146C55.8737 51.3468 56.2944 50.4034 56.5549 51.086C56.7258 51.1464 57.1178 52.4101 57.5493 50.1027ZM45.0057 44.0918C45.9788 46.7209 47.7646 47.8551 49.6219 49.3402L50.2132 47.1229C49.6517 46.7915 48.8786 46.952 48.5175 46.3292C47.8151 45.1455 49.2599 45.2863 47.1325 45.6265L46.0193 43.4895C45.7475 43.67 45.0859 44.0312 45.0057 44.0918Z" fill-rule="evenodd"  fill="#FFFFFF" >
</path>
<path d="M90.0278 143.89L90.0278 137.455L89.2879 137.455C88.7958 137.897 88.0109 138.12 86.9318 138.12L86.9318 138.607C87.9469 138.549 88.3797 138.756 88.2258 139.23L88.2258 143.89C88.3797 144.6 87.8567 144.939 86.6537 144.911L86.6537 145.353L91.554 145.353L91.554 144.911C90.383 144.939 89.8739 144.6 90.0278 143.89Z" fill-rule="evenodd"  fill="#E30314" >
</path>
<path d="M104.874 143.89L104.874 137.455L104.135 137.455C103.641 137.897 102.857 138.12 101.778 138.12L101.778 138.607C102.793 138.549 103.225 138.756 103.071 139.23L103.071 143.89C103.225 144.6 102.703 144.939 101.499 144.911L101.499 145.353L106.401 145.353L106.401 144.911C105.229 144.939 104.721 144.6 104.874 143.89Z" fill-rule="evenodd"  fill="#E30314" >
</path>
<path d="M96.3422 142.025C95.8493 142.083 95.6032 141.346 95.6032 139.807C95.5712 138.447 95.8493 137.797 96.4352 137.855C97.1124 137.765 97.4353 138.594 97.4052 140.34C97.3735 141.406 97.0194 141.967 96.3422 142.025ZM96.3884 137.411C94.6624 137.53 93.7375 138.447 93.6153 140.163C93.7375 141.642 94.5244 142.441 95.9723 142.558C96.5574 142.527 97.0194 142.322 97.3585 141.935L97.4052 141.935L97.4052 142.958C97.4052 144.349 96.8054 145.044 95.6032 145.044C95.2943 145.044 94.9864 144.971 94.6794 144.822L94.6794 144.777C95.2642 144.807 95.5565 144.54 95.5565 143.978C95.4952 143.535 95.2033 143.283 94.6794 143.224C94.0924 143.255 93.7854 143.566 93.7542 144.157C93.8143 144.954 94.4473 145.37 95.6483 145.398C98.0215 145.34 99.2693 143.919 99.3934 141.137C99.2693 138.743 98.2672 137.501 96.3884 137.413L96.3884 137.411Z" fill-rule="evenodd"  fill="#E30314" >
</path>
<path d="M111.233 145.043C110.247 144.984 109.723 144.438 109.662 143.4C109.723 142.719 110.001 142.262 110.494 142.025C110.555 142.025 110.632 142.055 110.724 142.114C110.756 142.146 110.788 142.159 110.817 142.159L111.604 142.557C112.28 142.883 112.604 143.297 112.575 143.801C112.513 144.54 112.066 144.954 111.233 145.043ZM111.371 137.854C112.235 137.883 112.681 138.357 112.712 139.275C112.681 139.926 112.451 140.383 112.02 140.65C110.756 140.146 110.155 139.568 110.216 138.921C110.279 138.269 110.663 137.913 111.371 137.854ZM112.482 140.915C113.437 140.622 113.93 140.073 113.96 139.275C113.869 138.148 113.007 137.53 111.371 137.411C109.708 137.559 108.799 138.327 108.646 139.717C108.615 140.663 109.076 141.331 110.034 141.715C108.983 142.1 108.444 142.719 108.414 143.577C108.507 144.732 109.415 145.34 111.141 145.398C113.144 145.34 114.191 144.585 114.285 143.135C114.315 142.129 113.714 141.389 112.482 140.915Z" fill-rule="evenodd"  fill="#E30314" >
</path>
<path d="M105.224 167.608L105.815 178.496C107.502 179.861 106.659 178.395 107.742 180.051C106.448 180.081 105.464 180.122 104.17 180.272C101.249 180.613 102.032 180.393 101.52 179.58L103.207 179.339L102.685 167.629L100.728 166.906C102.414 165.883 105.093 166.154 107.06 166.224L105.224 167.608Z" fill-rule="evenodd"  fill="#FFFFFF" >
</path>
<path d="M83.9806 164.829L87.6523 165.341L93.8143 175.154L94.8175 167.688C92.7609 166.404 94.0246 167.799 93.102 166.173C94.1953 166.193 94.9683 166.183 96.0517 166.364L98.1094 167.167C95.7611 168.251 95.9216 167.167 95.2591 174.12L94.246 180.262C93.4829 179.73 93.9144 180.292 93.1317 179.229L88.827 172.083C88.4854 171.502 88.2952 171.06 87.9131 170.508C87.8576 170.404 87.7944 170.302 87.7229 170.207L86.6594 169.184L85.5462 178.325C87.9341 178.998 86.6594 178.054 87.2314 179.5L82.374 178.927C82.8862 177.754 81.6928 179.037 84.2709 177.573C84.5022 173.96 85.5658 170.237 85.2851 166.675L83.9806 164.829Z" fill-rule="evenodd"  fill="#FFFFFF" >
</path>
<path d="M119.553 178.044C116.071 175.876 113.723 168.712 109.769 166.524L109.147 166.173C110.492 165.21 113.181 164.658 114.917 164.788L113.462 166.022C114.887 168.261 117.225 172.254 119.171 173.539L120.737 164.708L119.353 163.885C119.302 163.845 119.152 163.766 119.061 163.695L123.085 162.471C122.875 163.505 122.403 162.932 121.88 166.042C121.519 168.21 120.536 176.479 119.553 178.044Z" fill-rule="evenodd"  fill="#FFFFFF" >
</path>
<path d="M67.0816 159.349C68.3056 159.461 69.0491 159.801 70.0123 160.152C72.661 161.126 71.9084 160.764 72.8416 161.718C70.9648 162.611 72.0791 159.369 69.4199 165.661C64.7838 176.609 72.9221 175.415 74.6178 172.856C75.6714 171.251 76.856 167.187 77.718 165.18C77.0465 163.264 76.9561 164.578 76.4243 162.732L81.0397 164.688C78.2609 166.183 79.4951 164.186 77.6489 168.923C77.0366 170.498 76.2834 172.846 75.3103 174.02C72.3498 177.553 67.4031 175.295 65.486 172.134C64.984 168.823 67.3931 164.117 68.4368 161.217C67.5031 159.189 68.1452 161.236 67.0816 159.349Z" fill-rule="evenodd"  fill="#FFFFFF" >
</path>
<path d="M129.387 160.725L131.243 164.969C135.518 163.544 134.806 163.283 135.488 161.768C135.538 161.658 135.588 161.497 135.638 161.397L138.258 165.261C135.578 165.129 138.829 162.872 131.936 165.973C132.497 167.729 133.441 169.805 134.595 170.96C135.628 170.368 137.163 169.756 138.287 169.053C140.114 167.919 139.953 166.856 140.104 166.485C140.816 164.708 140.144 165.993 140.877 165.11L141.428 168.642L131.022 174.231C132.016 170.609 133.089 174.171 129.046 166.133C128.444 164.939 128.243 164.056 127.561 163.083L126.105 162.059C126.036 162.039 125.885 162.039 125.814 162.019L125.232 161.849C125.173 161.829 125.022 161.768 124.921 161.718L134.755 156.469C135.558 157.463 136.15 158.035 136.392 159.671C134.816 158.747 134.434 157.072 129.387 160.725Z" fill-rule="evenodd"  fill="#FFFFFF" >
</path>
<path d="M149.607 153.791C151.223 153.901 152.095 154.182 153.761 154.342C154.433 154.413 155.126 154.433 155.799 154.473L157.865 154.764L155.838 156.952L147.911 155.948C147.67 156.23 147.389 156.571 147.087 156.991L149.928 160.112C152.045 160.093 150.75 159.822 152.658 159.872C150.841 161.828 149.246 163.725 147.62 164.237C148.372 162.551 148.212 163.615 148.333 161.588L140.806 153.851L138.658 154.583C138.919 153.048 145.583 145.422 149.226 148.893C150.75 150.359 150.289 151.784 149.607 153.791ZM142.421 151.823L145.713 155.857C149.967 154.373 148.302 150.067 145.843 149.797C143.897 150.168 143.575 150.861 142.421 151.823Z" fill-rule="evenodd"  fill="#FFFFFF" >
</path>
<path d="M53.9359 149.345C54.9904 149.927 58.231 152.316 58.864 153.6C57.6989 153.49 57.9498 153.399 56.425 153.269L49.6916 161.718C49.8523 163.253 49.892 162.601 49.9623 162.912C50.5151 165.4 46.2498 161.005 45.3569 159.952C46.6112 159.952 46.2203 160.042 47.755 160.242L54.4578 151.794L53.9359 149.345Z" fill-rule="evenodd"  fill="#FFFFFF" >
</path>
<path d="M42.6178 137.504C45.0961 139.431 48.4376 144.699 50.3337 146.084C49.4504 147.378 49.3401 147.81 47.6348 148.422L48.6479 145.923L45.2262 141.849C43.6762 142.381 42.3658 143.444 41.5233 144.85C42.5475 146.635 43.1694 146.977 44.1723 148.301L46.5506 147.85C45.6576 149.456 44.1028 151.142 42.336 151.122L43.2896 149.376C42.226 147.74 41.5641 146.626 40.1791 145.773C38.5529 146.857 37.3992 147.599 36.3356 149.315C37.9616 151.483 39.2355 154.553 43.1694 153.359C42.6773 154.854 42.1356 154.684 40.0688 155.587C38.0211 153.088 34.1379 149.295 32.3116 146.406C33.8066 146.666 33.0239 146.696 34.7204 146.977C37.8913 144.87 40.3089 142.07 43.1694 139.973L42.6178 137.504Z" fill-rule="evenodd"  fill="#FFFFFF" >
</path>
<path d="M154.765 136.913C157.755 138.106 157.684 138.016 158.367 139.381C154.875 139.09 152.728 138.839 153.33 142.813C157.624 144.518 158.087 140.484 163.204 141.408C165.362 142.22 167.147 145.241 164.057 148.673L162.441 150.579C162.391 150.64 162.291 150.78 162.211 150.881L158.267 148.893C160.333 148.161 163.906 149.456 164.197 146.284C164.799 139.552 152.737 150.589 151.814 142.813C151.403 139.33 155.065 138.026 154.765 136.913Z" fill-rule="evenodd"  fill="#FFFFFF" >
</path>
<path d="M160.796 129.677L170.599 134.554C172.174 133.942 171.613 133.691 172.887 133.681C171.894 134.976 170.96 137.686 169.957 139.21C168.943 136.531 171.674 137.906 165.702 134.906C163.726 133.922 161.718 133.049 159.732 132.035L157.855 133.36C157.955 131.905 158.367 131.393 158.969 130.219C160.163 127.911 159.842 127.911 160.966 127.73L160.796 129.677Z" fill-rule="evenodd"  fill="#FFFFFF" >
</path>
<path d="M34.0379 119.411C35.4923 120.816 35.2522 121.359 36.0748 122.935C33.8165 125.694 30.746 128.262 28.9097 130.982L39.4668 131.182C40.3299 132.527 40.6811 133.491 41.1622 135.045C41.0423 134.986 40.8716 134.755 40.8209 134.855C40.1791 136.059 40.2693 134.523 40.1593 134.464C38.4934 133.511 36.5567 134.976 32.9545 136.621C26.221 139.682 29.6121 138.307 28.7694 140.284C28.0573 139.752 28.7994 140.906 27.8459 139.291C27.7965 139.2 27.3549 138.227 27.2336 137.956C26.7925 136.952 26.4917 136.21 26.0802 134.865C28.599 136.25 27.7359 136.531 35.9841 132.677L24.8159 132.407C25.3071 130.389 26.5918 129.847 28.097 128.323C28.8303 127.57 29.211 126.988 29.9435 126.186C30.9572 125.082 31.0575 125.172 31.6794 123.928C29.592 124.479 25.3976 126.286 24.0936 127.269C23.6721 129.196 24.4749 127.942 23.6313 129.286L21.5648 124.58C24.675 126.155 22.809 125.994 27.7764 124.008C29.8032 123.194 31.5794 122.372 33.7671 121.55L34.0379 119.411Z" fill-rule="evenodd"  fill="#FFFFFF" >
</path>
<path d="M32.2313 124.008C32.3016 123.957 32.0508 123.777 32.0508 123.857C32.0508 123.887 31.9802 123.787 31.9802 123.787C31.991 123.807 31.2579 124.7 32.2313 124.008Z" fill-rule="evenodd"  fill="#FFFFFF" >
</path>
<path d="M164.669 119.071L175.547 122.382C177.423 120.747 177.804 119.794 176.289 124.7C176.199 125.011 176.038 125.603 175.928 125.835C175.275 127.219 175.567 126.457 175.105 126.867C174.322 125.111 177.573 125.723 170.629 123.506C168.262 122.743 166.254 121.91 163.675 121.509L163.113 124.489L165.17 126.767L161.287 125.633L164.839 114.133L168.662 115.047C168.542 115.177 168.381 115.147 168.321 115.287C167.98 116.16 165.702 114.094 164.669 119.071Z" fill-rule="evenodd"  fill="#FFFFFF" >
</path>
<path d="M19.1064 113.652C20.0597 113.472 18.8257 113.02 19.7382 113.782C20.2195 114.194 19.548 113.893 20.8318 114.796L31.9802 112.729L32.7728 110.631L34.0177 116.943C33.1946 116.772 32.9136 115.87 32.241 115.318L21.0926 117.485C21.0025 117.937 21.1136 118.028 20.8823 118.549C20.4208 119.633 20.8922 118.769 20.2901 119.542L19.1064 113.652Z" fill-rule="evenodd"  fill="#FFFFFF" >
</path>
<path d="M166.194 103.165C166.264 101.27 166.194 99.9749 167.328 98.7506C168.15 101.611 169.225 101.39 171.503 103.316C173.76 105.223 174.684 105.624 178.577 105.564L180.101 103.697L179.55 110.109C178.707 109.287 179.108 110.521 178.577 108.143C173.479 107.692 174.332 106.869 167.85 110.802C166.003 111.926 166.696 112.287 165.201 113.09L165.782 106.667C166.806 107.15 165.893 106.507 166.565 107.27C166.616 107.34 166.726 107.491 166.786 107.56L172.164 105.765L168.171 102.293C166.616 102.533 167.267 102.955 166.194 103.165Z" fill-rule="evenodd"  fill="#FFFFFF" >
</path>
<path d="M18.8453 103.718L30.596 103.096L31.75 101.26L32.4215 107.27C31.0674 106.336 31.1675 105.815 30.2649 105.645C26.9133 105.675 22.6185 106.858 19.7084 105.825C17.2698 104.551 16.9089 101.701 19.3473 100.226C20.1699 100.638 20.0092 100.456 20.541 100.999C20.2799 103.918 19.9188 101.079 18.8453 103.718Z" fill-rule="evenodd"  fill="#FFFFFF" >
</path>
<path d="M51.6688 54.1466L54.0471 54.468C54.0669 56.7757 54.4688 56.1031 53.3446 57.3174C51.8187 57.0564 51.548 56.1634 51.6688 54.1466Z" fill-rule="evenodd"  fill="#FFFFFF" >
</path>
<path d="M159.26 41.1517C164.067 41.112 161.979 40.8005 164.689 39.7866C165.793 40.6001 165.16 39.968 166.084 41.0315C165.512 43.1388 165.672 42.1954 164.337 43.64L155.257 42.2757C158.518 43.8205 162.561 46.1688 160.194 50.0728C157.023 50.1125 157.162 49.5708 155.267 48.2056C151.041 50.2633 151.382 49.5105 150.339 51.0956C151.152 53.0322 153.239 53.6346 153.621 54.8291C154.353 57.1369 152.095 58.1408 149.577 53.9056C147.86 54.066 139.381 59.8365 141.389 52.9729L142.863 54.4679C145.362 53.7445 144.911 53.575 146.556 52.2802C144.97 49.8217 139.772 49.2494 140.445 46.7005C141.178 43.9614 143.565 47.8656 147.821 49.6609C150.26 47.774 147.58 49.2801 151.192 47.6244C149.577 46.0885 149.446 46.3196 150.721 44.1927C156.57 46.7207 151.975 47.6949 158.267 47.6442C157.213 45.7373 154.925 44.4436 152.536 43.4296C148.533 41.7243 148.733 41.3731 145.342 43.6301C143.726 43.1289 144.097 43.3789 143.034 42.4959C144.439 40.1488 145.131 40.108 148.323 39.2151C149.456 39.3353 148.814 41.1517 155.889 41.1914C156.269 39.947 157.343 38.4424 158.367 38.2318C161.006 37.6903 160.153 39.9076 159.26 41.1517Z" fill-rule="evenodd"  fill="#FFFFFF" >
</path>
<path d="M151.292 39.6763C148.743 39.6664 152.958 34.9402 154.112 34.418C154.372 34.6394 154.895 35.0513 155.196 35.2415L154.243 37.6198C153.49 38.7936 152.989 39.6763 151.292 39.6763Z" fill-rule="evenodd"  fill="#FFFFFF" >
</path>
<path d="M83.1779 35.3815C83.1668 35.2712 83.2175 35.2109 83.2473 35.1304C84.2105 34.8597 85.415 35.3121 86.328 35.703C87.7326 36.315 87.7635 36.315 88.2853 37.7C86.4289 38.5832 86.4788 38.5929 84.8327 37.198C83.4684 36.0443 83.2473 36.2645 83.1779 35.3815Z" fill-rule="evenodd"  fill="#FFFFFF" >
</path>
<path d="M118.058 24.7757C120.105 22.0763 119.363 19.4468 120.566 17.3792C126.568 17.049 121.941 23.6713 121.58 24.3034L122.222 24.6447C123.727 25.2865 123.487 24.5345 124.37 26.3305C122.865 28.5684 123.216 27.254 121.078 27.3938C119.332 27.5151 119.131 28.5378 118.038 29.501L119.092 31.2574C120.406 33.7862 119.172 33.6461 121.62 36.1245C122.714 37.228 126.206 39.7874 126.085 40.7398C125.724 40.9414 125.584 41.3827 124.149 41.0911C119.583 40.1587 117.998 34.1076 117.205 31.6591C114.094 32.7623 113.241 36.0244 108.796 35.3617C110.191 33.9667 114.436 32.9329 116.522 28.0866C114.626 27.766 114.024 28.1974 112.68 26.7013C114.074 23.9123 114.536 25.5277 118.058 24.7757Z" fill-rule="evenodd"  fill="#FFFFFF" >
</path>
<path d="M85.3248 32.2711C82.0032 33.7663 83.037 32.8128 82.0933 36.476C81.4218 39.1445 79.8463 40.8711 77.1267 41.4324C78.6915 38.954 80.1972 38.9036 80.3778 34.7097C77.4077 35.5422 77.2568 37.5591 74.5078 37.5999C74.9183 33.9568 79.5753 36.0145 79.9764 31.3178C77.7489 31.779 77.7589 32.8425 76.6346 32.0301C78.1804 29.8625 77.739 31.8793 78.762 28.8791C76.9462 29.4208 78.2807 29.5912 75.7222 29.7026L76.9153 25.8293C75.5203 26.3305 75.9521 26.4306 74.2963 26.7718C74.8182 24.0622 74.5671 26.0099 76.7957 23.7011C77.6886 22.7685 76.9561 23.5205 77.4176 22.8283C74.086 22.4669 73.9253 23.7221 73.9253 18.7841C77.0465 17.6006 74.2567 19.9588 76.8858 17.2086C75.5515 20.2397 76.2131 18.8249 76.2537 22.5783C77.4077 21.3738 77.0159 22.3867 77.9094 19.8786C78.3204 18.7138 78.4009 17.9209 78.6815 16.8784L76.9462 16.416C78.6915 14.5401 77.9196 14.1084 80.4376 13.4961C81.9734 14.6004 81.8929 14.3394 82.2838 16.4767C80.4682 18.2625 79.1935 20.0889 78.4106 22.0661C80.6083 21.062 80.1765 20.31 82.8266 20.3497C82.3346 23.2694 80.8999 22.5176 79.484 24.6844C81.3713 25.0356 81.1706 24.5345 82.4545 25.2967C81.1806 28.2274 80.3075 25.7885 81.3107 28.3077C82.6758 28.749 80.6686 28.1668 82.3949 28.3275L83.8196 28.7689C83.2779 29.9328 83.3077 29.5716 81.9128 30.4149C81.8325 30.4645 81.6321 30.7562 81.5715 30.655C81.5122 30.545 81.3512 30.8257 81.2401 30.9158C82.8266 31.6789 82.2643 31.7393 84.0509 31.0269C85.3852 30.5054 85.6658 30.2341 86.79 30.7562C86.2781 32.1302 87.6127 31.2276 85.3248 32.2711Z" fill-rule="evenodd"  fill="#FFFFFF" >
</path>
<path d="M77.3172 22.3271C77.2568 22.3867 77.508 22.4771 77.5176 22.4978L77.3172 22.3271Z" fill-rule="evenodd"  fill="#FFFFFF" >
</path>
<path d="M77.0267 25.4571C77.0267 25.3766 76.9056 25.217 76.845 25.2766C76.0326 26.2103 77.0763 25.5175 77.0961 25.5277C77.0961 25.5277 77.0267 25.488 77.0267 25.4571Z" fill-rule="evenodd"  fill="#FFFFFF" >
</path>
<path d="M80.0167 30.9765C80.0167 30.896 79.9058 30.7352 79.8661 30.8055C79.2737 31.6985 80.0563 31.0269 80.0765 31.0471C80.0765 31.0471 80.0167 31.0062 80.0167 30.9765Z" fill-rule="evenodd"  fill="#FFFFFF" >
</path>
<path d="M89.439 3.84269C62.7069 7.30439 43.1595 17.5403 26.3914 36.7764C1.1843 65.6861 -4.7364 107.531 15.2725 145.442C18.002 150.61 21.5646 155.577 24.8357 159.741C29.6425 165.883 31.9907 167.398 36.8671 171.993C40.6301 175.546 46.0395 178.827 50.7858 181.868C67.3024 192.454 88.5954 195.625 109.147 194.441C121.259 193.739 136.913 187.878 145.372 183.061C155.928 177.041 165.12 169.676 171.884 161.477C189.866 139.692 196.017 118.669 194.442 89.2778C193.719 75.8115 187.929 62.4456 183.142 52.9322C178.225 43.149 169.556 33.435 161.528 26.4512C146.074 13.0043 119.262 -0.0204105 89.439 3.84269ZM90.5927 8.13769C102.795 6.20109 120.968 9.69369 130.531 13.3257C146.335 19.3371 160.323 29.3009 170.418 41.8541C180.905 54.8788 188.641 72.8008 190.056 90.7929C192.364 119.974 181.708 143.996 168.04 159.089C166.103 161.227 164.73 163.163 162.561 165.02C155.657 170.91 151.453 174.673 142.682 179.389C109.107 197.471 65.9784 192.805 39.2352 168.08C20.9327 151.161 11.7108 134.294 8.15809 107.892C3.2213 71.0949 25.92 34.5889 55.5123 18.815C68.6271 11.8307 76.0025 10.4553 90.5927 8.13769Z" fill-rule="evenodd"  fill="#FFFFFF" >
</path>
<path d="M156.591 101.691C157.434 93.0515 154.985 84.3614 152.496 77.6673C147.74 64.8431 137.103 53.9158 124.851 47.7341C96.4827 33.4455 62.5164 44.7239 47.6544 73.4528C39.9484 88.3446 39.9078 105.494 45.8385 120.847C50.7447 133.571 61.2811 144.458 73.5338 150.67C102.604 165.411 137.274 151.834 150.559 124.741C154.454 116.813 155.598 111.896 156.591 101.691ZM91.5557 45.8382C98.7508 44.4433 109.348 45.8283 115.669 47.9948C153.651 61.0801 163.454 105.083 140.927 132.988C134.354 141.127 121.85 150.56 106.658 152.356C74.1261 156.209 50.3031 134.213 45.8685 106.908C43.0588 89.5689 50.0434 74.5373 57.2978 65.1946C65.6366 54.4476 77.6187 48.5476 91.5557 45.8382Z" fill-rule="evenodd"  fill="#FFFFFF" >
</path>
<path d="M150.692 103.087L150.68 103.467L136.631 103.456C135.548 100.566 135.98 101.942 136.531 99.1021L129.467 99.1021C131.494 104.61 128.303 103.497 120.285 103.446C119.653 101.249 119.643 101.109 120.416 99.262L112.599 99.0814C113.302 101.439 113.371 101.309 112.388 103.456L88.7763 103.467C84.8832 103.517 84.2006 102.805 85.8067 99.1222L77.8589 99.0922C79.4642 104.49 77.8986 103.507 68.6877 103.446C67.8345 100.517 67.9448 102.122 68.6571 99.1021L61.6028 99.1418C62.3957 101.159 62.3957 101.149 61.7638 103.437L47.8253 103.456C47.7879 103.335 47.7533 103.211 47.7187 103.087L45.4022 103.087C45.4782 104.004 45.58 104.927 45.7101 105.857L47.7201 105.857L47.6844 105.664L150.399 105.595C150.392 105.682 150.383 105.769 150.375 105.857L152.457 105.857C152.572 104.936 152.664 104.012 152.732 103.087L150.692 103.087Z" fill-rule="evenodd"  fill="#DE0917" >
</path>
<path d="M85.7061 79.494L110.622 79.494L112.62 79.5039L112.62 72.7008L110.622 72.7308L85.8161 72.7209L85.7061 79.494ZM79.8259 69.66C78.5716 69.0985 79.4645 69.4894 78.8723 68.8972C76.775 66.79 80.0768 68.9278 78.3811 68.3056C77.7481 68.0647 75.1192 69.4596 71.1556 67.1817L71.979 70.2216C77.0258 72.2189 106.157 71.2863 115.579 71.2863C117.947 71.2863 120.386 71.4558 122.724 71.1253C127.249 70.4926 125.815 70.0512 127.019 67.4428C125.624 68.0341 122.463 69.3386 120.095 68.0043C119.242 69.1481 119.803 69.0282 118.479 69.66L117.917 61.1011C110.652 63.4989 110.201 64.7034 99.2129 64.7431C92.0982 64.7632 85.225 63.5386 80.3676 61.0206L79.8259 69.66Z" fill-rule="evenodd"  fill="#DE0917" >
</path>
<path d="M52.5614 107.641C53.625 108.615 50.4445 108.404 57.5391 108.373L140.876 108.373C147.559 108.404 145.281 108.795 145.843 107.139C117.044 107.099 83.7899 106.658 55.0301 107.109L52.5614 107.641ZM113.582 98.2389L119.282 98.229L119.272 96.2317L119.272 71.9178L113.572 71.9178L113.582 98.2389ZM78.8729 72.4198L78.8729 97.727L78.863 98.229L84.7225 98.1783L84.6927 72.0488L78.863 71.898L78.8729 72.4198Z" fill-rule="evenodd"  fill="#DE0917" >
</path>
<path d="M62.4858 98.229L67.7032 98.2089L67.7032 80.3467L62.5158 80.0054L62.4858 98.229Z" fill-rule="evenodd"  fill="#DE0917" >
</path>
<path d="M57.9002 111.083L135.428 111.083C137.324 111.094 139.101 111.394 140.384 110.622C139.382 109.699 142.362 109.849 135.919 109.909L62.5056 109.909C61.854 109.899 60.5095 109.809 59.9669 109.839C56.1243 110.09 58.803 109.849 57.9002 111.083Z" fill-rule="evenodd"  fill="#DE0917" >
</path>
<path d="M130.46 80.4578L130.45 80.8586L130.46 98.2188L135.899 98.2089L135.909 79.8852L130.46 80.4578Z" fill-rule="evenodd"  fill="#DE0917" >
</path>
<path d="M120.055 75.3299L120.055 79.5541L136.913 79.2128L137.224 80.7387C138.83 79.7655 139.773 78.8023 139.813 76.4737C138.378 77.2762 139.1 76.9658 137.364 77.3269C136.16 77.588 137.655 77.1364 136.481 77.4876C136.351 77.5273 136.23 77.5781 136.11 77.6274C136 77.6682 135.889 77.7484 135.779 77.7983C134.976 78.1294 136.672 77.9083 134.444 78.3607L133.53 72.9811C129.678 74.1955 125.112 75.4903 120.055 75.3299Z" fill-rule="evenodd"  fill="#DE0917" >
</path>
<path d="M64.3323 78.1594L58.4422 76.7447C58.7931 78.8817 59.6254 79.615 60.4789 80.8691L61.4619 79.0623L78.0693 79.5643L78.0693 75.3497C72.3396 75.4101 69.0786 74.3862 64.4828 72.9111L64.3323 78.1594Z" fill-rule="evenodd"  fill="#DE0917" >
</path>
<path d="M78.8423 65.9974C79.655 64.9338 79.4645 65.1544 79.7255 62.9269C79.8761 61.6224 79.886 60.4387 79.9764 59.1339C89.8807 62.7563 97.8077 64.5628 109.247 62.1341C112.067 61.5419 116.813 59.5656 118.479 59.4851C118.469 61.4217 118.198 64.4726 119.051 65.7973C120.015 63.9706 117.788 59.9069 120.075 57.6389L119.352 57.0169C119.232 56.9166 118.178 57.9592 117.707 58.1806C106.207 63.6194 89.5989 62.5658 78.3105 57.0762C80.0371 61.4716 79.0328 61.6927 78.8423 65.9974Z" fill-rule="evenodd"  fill="#DE0917" >
</path>
<path d="M120.085 86.7793L129.597 86.8298L129.578 84.8228L129.587 81.2603L120.095 81.2798L120.085 86.7793ZM68.4666 86.8088L78.0097 86.819L77.9899 84.8228L77.9899 81.2603L68.4666 81.2699L68.4666 86.8088Z" fill-rule="evenodd"  fill="#DE0917" >
</path>
<path d="M120.065 73.8848C125.273 73.8652 130.411 72.9513 133.912 71.0346C134.002 71.758 134.083 72.4493 134.183 73.0922L134.986 75.4606C134.896 72.5508 134.755 70.3729 136.672 69.1884C133.26 69.4293 133.892 72.1389 121.971 72.9216C119.121 73.1121 120.617 72.6409 120.065 73.8848Z" fill-rule="evenodd"  fill="#DE0917" >
</path>
<path d="M63.4989 75.7809C64.2521 74.5875 64.0208 72.8411 64.0814 71.0346C69.5401 72.6001 69.7513 73.7847 78.0494 73.895C77.2764 72.5298 79.1734 73.3026 76.4541 72.9315C75.8925 72.8513 74.5679 72.9315 73.8955 72.891C68.296 72.5298 65.7879 70.744 61.5027 68.9372C65.1855 74.5169 62.225 73.2223 63.4989 75.7809Z" fill-rule="evenodd"  fill="#DE0917" >
</path>
<path d="M94.8577 119.472C95.2288 117.767 93.7942 117.144 91.777 117.074C91.8377 117.997 91.8972 119.713 93.3823 119.984C95.7801 120.415 94.5065 119.723 94.8577 119.472ZM85.7866 84.0802C88.5359 82.9968 86.4581 83.5682 88.2947 82.3139C89.5388 81.4609 89.5992 81.8924 90.7234 80.9093L89.2888 80.8387L85.7965 80.8586L85.7866 84.0802ZM112.479 84.2001L112.619 80.8784L107.611 80.8387L112.479 84.2001Z" fill-rule="evenodd"  fill="#DE0917" >
</path>
<path d="M99.2126 0C154.006 0 198.425 44.4189 198.425 99.2126C198.425 154.006 154.006 198.425 99.2126 198.425C44.4189 198.425 0 154.006 0 99.2126C0 44.4189 44.4189 0 99.2126 0ZM99.2126 2.8446C45.9899 2.8446 2.8446 45.9899 2.8446 99.2126C2.8446 152.435 45.9899 195.581 99.2126 195.581C152.435 195.581 195.581 152.435 195.581 99.2126C195.581 45.9898 152.435 2.8446 99.2126 2.8446Z" fill-rule="evenodd"  fill="#E60013" >
</path>
<path d="M99.2126 45.3005C128.987 45.3005 153.125 69.4378 153.125 99.2126C153.125 128.987 128.987 153.125 99.2126 153.125C69.4378 153.125 45.3005 128.988 45.3005 99.2126C45.3005 69.4377 69.4378 45.3005 99.2126 45.3005ZM99.2126 47.5685C70.6904 47.5685 47.5685 70.6904 47.5685 99.2126C47.5685 127.735 70.6904 150.857 99.2126 150.857C127.735 150.857 150.856 127.735 150.856 99.2126C150.856 70.6904 127.735 47.5685 99.2126 47.5685Z" fill-rule="evenodd"  fill="#E60013" >
</path>
<path d="M109.491 124.86L110.039 125.09C110.129 125.127 110.202 125.113 110.257 125.047C110.383 124.896 110.509 124.761 110.635 124.642C110.75 124.534 110.871 124.473 110.999 124.459C111.145 124.443 111.29 124.46 111.435 124.509C111.458 124.517 111.476 124.536 111.483 124.56C111.648 125.132 111.506 125.602 111.055 125.97C111.038 125.984 111.035 126.008 111.049 126.026C111.135 126.14 111.194 126.278 111.225 126.443C111.319 126.928 111.379 127.401 111.405 127.861C111.429 128.29 111.437 128.766 111.427 129.287C111.408 130.371 111.234 131.433 110.906 132.473C110.82 132.75 110.68 132.989 110.487 133.193C110.304 133.385 110.184 133.504 110.126 133.549C109.999 133.647 109.839 133.716 109.645 133.753C109.402 133.801 109.131 133.805 108.831 133.768C108.759 133.759 108.696 133.713 108.665 133.647C108.554 133.406 108.423 133.166 108.272 132.928C108.11 132.671 108.017 132.493 107.994 132.394C107.945 132.181 107.976 131.972 108.086 131.765C108.147 131.652 108.235 131.624 108.35 131.68C108.607 131.807 108.877 131.893 109.159 131.94C109.181 131.944 109.203 131.931 109.211 131.909C109.423 131.335 109.542 130.725 109.569 130.079C109.573 129.973 109.529 129.946 109.436 129.996C109.242 130.101 109.078 130.237 108.943 130.406C108.848 130.524 108.799 130.585 108.795 130.588C108.559 130.862 108.391 131.072 108.291 131.218C108.193 131.362 108.089 131.474 107.979 131.556C107.626 131.815 107.328 132.127 107.087 132.492C106.892 132.787 106.612 132.952 106.246 132.987C106.162 132.995 106.087 132.971 106.023 132.916C105.827 132.75 105.741 132.562 105.765 132.353C105.78 132.217 105.868 132.054 106.028 131.864C106.151 131.717 106.28 131.575 106.414 131.438C106.591 131.257 106.722 131.118 106.806 131.022C107.946 129.707 108.858 128.608 109.542 127.723C109.63 127.609 109.605 127.529 109.467 127.483C109.443 127.475 109.417 127.479 109.396 127.494C109.318 127.55 109.209 127.646 109.07 127.782C108.048 128.775 107.138 129.754 106.34 130.718C106.1 131.009 105.948 131.176 105.884 131.22C105.702 131.346 105.474 131.409 105.2 131.41C105.132 131.411 105.068 131.382 105.024 131.332C104.83 131.113 104.77 130.878 104.845 130.627C104.887 130.49 105.025 130.314 105.26 130.098C105.593 129.792 105.898 129.459 106.175 129.101C106.268 128.98 106.424 128.808 106.643 128.585C107.236 127.984 107.829 127.381 108.422 126.779C108.592 126.607 108.738 126.416 108.858 126.206C108.87 126.185 108.865 126.159 108.847 126.147L108.409 125.858C108.374 125.835 108.327 125.843 108.296 125.876C108.101 126.084 107.909 126.291 107.723 126.497C107.546 126.691 107.402 126.835 107.292 126.927C107.119 127.071 106.95 127.185 106.785 127.27C106.532 127.399 106.346 127.574 106.226 127.794C106.157 127.921 106.119 127.989 106.112 127.998C106.063 128.075 106.017 128.138 105.974 128.19C105.884 128.298 105.769 128.341 105.63 128.321C105.373 128.284 105.14 128.199 104.934 128.067C104.796 127.979 104.74 127.833 104.763 127.627C104.804 127.281 104.851 127.041 104.904 126.905C104.964 126.754 105.096 126.605 105.3 126.455C105.47 126.331 105.625 126.193 105.767 126.04C105.813 125.99 105.94 125.826 106.147 125.548C106.549 125.008 107.018 124.571 107.553 124.237C107.631 124.188 107.647 124.146 107.602 124.11C107.579 124.092 107.548 124.084 107.508 124.088C107.315 124.104 107.134 124.162 106.965 124.261C106.762 124.378 106.549 124.462 106.325 124.511C106.078 124.566 105.875 124.585 105.715 124.57C105.477 124.545 105.291 124.435 105.156 124.237C105.083 124.13 105.032 123.967 105.003 123.746C104.981 123.578 104.958 123.405 104.935 123.227C104.918 123.103 104.97 123.025 105.092 122.992C105.861 122.782 106.643 122.567 107.435 122.347C107.659 122.284 107.852 122.136 108.014 121.902C108.323 121.456 108.614 120.999 108.887 120.53C109.124 120.123 109.332 119.787 109.513 119.524C109.737 119.198 109.96 118.872 110.184 118.546C110.207 118.513 110.217 118.484 110.212 118.458C110.205 118.41 110.167 118.395 110.098 118.413C109.859 118.476 109.659 118.525 109.496 118.559C109.178 118.625 108.977 118.67 108.895 118.695C108.531 118.803 108.181 118.926 107.843 119.064C107.661 119.138 107.668 119.182 107.864 119.197C108.262 119.227 108.414 119.417 108.322 119.767C108.216 120.167 108.211 120.569 108.306 120.974C108.327 121.06 108.307 121.136 108.248 121.202C108.146 121.316 108.041 121.448 107.932 121.599C107.778 121.813 107.583 121.931 107.349 121.954C107.141 121.975 106.948 121.907 106.769 121.75C106.499 121.515 106.356 121.196 106.339 120.796C106.329 120.531 106.338 120.266 106.367 120.003C106.369 119.979 106.383 119.957 106.405 119.941C106.479 119.887 106.557 119.806 106.637 119.698C106.818 119.456 106.776 119.379 106.512 119.468C106.404 119.503 106.342 119.524 106.327 119.528C105.796 119.684 105.269 119.853 104.747 120.035C104.565 120.099 104.426 120.125 104.331 120.114C104.181 120.098 104.048 120.03 103.931 119.913C103.631 119.612 103.452 119.254 103.394 118.84C103.372 118.675 103.36 118.565 103.359 118.508C103.358 118.389 103.386 118.278 103.443 118.177C103.495 118.084 103.521 117.984 103.521 117.877C103.521 117.705 103.549 117.561 103.606 117.448C103.617 117.426 103.636 117.409 103.661 117.4C104.255 117.185 104.917 117.031 105.648 116.936C106.064 116.882 106.994 116.738 108.44 116.504C108.458 116.502 108.47 116.485 108.467 116.467C108.467 116.465 108.466 116.463 108.465 116.461C108.302 116.011 108.268 115.605 108.365 115.242C108.477 114.823 108.597 114.47 108.725 114.184C108.823 113.963 108.977 113.832 109.188 113.791C109.329 113.764 109.512 113.789 109.738 113.865C110.158 114.007 110.5 114.212 110.763 114.479C111.161 114.884 111.307 115.396 111.203 116.016C111.2 116.035 111.212 116.053 111.231 116.057C111.232 116.057 111.234 116.057 111.235 116.057C111.381 116.064 111.535 116.037 111.698 115.976C111.815 115.932 111.945 115.905 112.087 115.895C112.251 115.884 112.379 115.864 112.473 115.836C112.597 115.798 112.72 115.759 112.843 115.718C112.848 115.717 112.933 115.684 113.099 115.621C113.416 115.502 113.741 115.494 114.075 115.598C114.217 115.643 114.311 115.736 114.357 115.877C114.417 116.057 114.43 116.235 114.397 116.413C114.377 116.521 114.317 116.627 114.215 116.733C114.006 116.95 113.8 117.17 113.596 117.393C113.481 117.518 113.381 117.606 113.296 117.655C113.177 117.723 113.05 117.77 112.914 117.798C112.75 117.83 112.604 117.881 112.476 117.95C112.367 118.008 112.321 118.098 112.338 118.22C112.378 118.508 112.318 118.753 112.157 118.956C111.531 119.743 110.926 120.514 110.34 121.27C110.278 121.35 110.296 121.375 110.393 121.347C110.801 121.229 111.204 121.095 111.602 120.944C111.716 120.9 111.833 120.878 111.952 120.878C112.064 120.878 112.18 120.891 112.301 120.915C112.572 120.97 112.723 121.124 112.752 121.376C112.773 121.553 112.73 121.75 112.625 121.966C112.535 122.153 112.416 122.322 112.27 122.475C112.131 122.621 111.987 122.761 111.838 122.896C111.72 123.002 111.562 123.126 111.363 123.268C111.004 123.525 110.653 123.793 110.311 124.071C110.305 124.076 110.182 124.166 109.941 124.342C109.761 124.474 109.605 124.632 109.475 124.815C109.466 124.829 109.47 124.847 109.485 124.857C109.487 124.858 109.489 124.859 109.491 124.86Z"   fill="#E60013" >
</path>
<path d="M112.071 123.813C112.055 123.772 112.049 123.73 112.052 123.687C112.054 123.651 112.071 123.614 112.101 123.577C112.247 123.394 112.427 123.288 112.642 123.257C112.842 123.227 113.03 123.263 113.206 123.365C113.384 123.468 113.516 123.624 113.602 123.832C113.697 124.061 113.765 124.354 113.805 124.71C113.816 124.806 113.815 124.885 113.801 124.945C113.79 124.997 113.785 125.031 113.786 125.047C113.794 125.122 113.831 125.132 113.897 125.078C113.935 125.047 113.961 125.027 113.975 125.018C114.2 124.881 114.444 124.793 114.707 124.754C114.753 124.747 114.785 124.704 114.778 124.659C114.777 124.653 114.776 124.648 114.774 124.644C114.684 124.381 114.564 124.125 114.416 123.876C114.403 123.854 114.396 123.83 114.395 123.804C114.392 123.626 114.39 123.448 114.39 123.269C114.39 123.08 114.384 122.902 114.372 122.735C114.298 121.754 114.226 120.773 114.154 119.791C114.112 119.204 114.187 118.635 114.38 118.084C114.462 117.852 114.624 117.703 114.865 117.638C114.962 117.612 115.046 117.63 115.12 117.691L115.752 118.222C115.797 118.26 115.856 118.267 115.901 118.241L116.21 118.062C116.236 118.046 116.26 118.038 116.282 118.036C116.911 118.002 117.364 117.943 117.641 117.861C118.325 117.658 118.727 117.535 118.847 117.492C119.494 117.261 120.144 117.085 120.796 116.962C120.934 116.936 121.062 116.962 121.18 117.038C121.843 117.474 121.997 118.065 121.643 118.812C121.518 119.074 121.313 119.348 121.028 119.634C120.575 120.088 120.059 120.568 119.48 121.075C119.429 121.119 119.413 121.19 119.439 121.252C119.501 121.401 119.582 121.565 119.684 121.746C119.727 121.824 119.754 121.932 119.764 122.069C119.775 122.223 119.78 122.333 119.78 122.397C119.778 122.718 119.609 122.927 119.273 123.024C118.618 123.212 117.971 123.424 117.332 123.661C117.022 123.776 116.706 123.87 116.384 123.943C116.359 123.948 116.337 123.96 116.318 123.978C116.288 124.006 116.258 124.034 116.227 124.06C116.201 124.081 116.165 124.1 116.118 124.114C115.997 124.152 115.915 124.23 115.873 124.347C115.854 124.398 115.88 124.453 115.93 124.472C115.941 124.476 115.954 124.479 115.966 124.478C116.065 124.477 116.163 124.462 116.258 124.436C116.888 124.259 117.664 124.096 118.586 123.947C119.522 123.795 120.132 123.671 120.417 123.572C120.594 123.511 120.77 123.512 120.945 123.575C121.054 123.614 121.129 123.679 121.17 123.771C121.196 123.829 121.202 123.921 121.189 124.047C121.148 124.438 121.134 124.853 121.149 125.293C121.15 125.337 121.119 125.375 121.076 125.382C120.725 125.444 120.378 125.511 120.034 125.581C119.994 125.589 119.801 125.614 119.456 125.657C119.26 125.682 119.07 125.732 118.886 125.808C118.819 125.835 118.773 125.867 118.747 125.902C118.696 125.973 118.719 126.038 118.817 126.098C118.883 126.138 118.952 126.174 119.023 126.206C119.114 126.246 119.153 126.316 119.141 126.415C119.113 126.644 119.056 126.863 118.97 127.071C118.91 127.218 118.797 127.411 118.633 127.651C118.38 128.019 118.12 128.385 117.852 128.751C117.826 128.785 117.83 128.833 117.86 128.863C118.019 129.019 118.2 129.163 118.401 129.294C119.489 130.004 120.215 130.504 120.579 130.795C121.141 131.242 121.572 131.684 121.874 132.119C122.063 132.39 122.112 132.672 122.021 132.963C121.95 133.193 121.819 133.368 121.629 133.487C121.414 133.621 121.176 133.643 120.914 133.552C120.527 133.417 120.09 133.181 119.603 132.844C119.245 132.596 119.063 132.47 119.058 132.466C118.824 132.309 118.59 132.15 118.357 131.99C118.122 131.828 117.9 131.654 117.693 131.468C117.358 131.169 117.028 130.865 116.702 130.555C116.626 130.483 116.556 130.447 116.49 130.445C116.402 130.443 116.321 130.478 116.249 130.551C115.803 131 115.329 131.418 114.827 131.805C114.363 132.163 113.863 132.457 113.326 132.688C113.248 132.722 113.181 132.736 113.124 132.729C113.05 132.72 112.983 132.693 112.925 132.647C112.854 132.593 112.777 132.583 112.695 132.617C112.543 132.68 112.42 132.658 112.325 132.551C112.101 132.298 112.126 132.067 112.398 131.857C112.581 131.717 112.77 131.586 112.965 131.465C113.857 130.908 114.643 130.221 115.322 129.405C115.356 129.364 115.357 129.304 115.325 129.26C115.107 128.965 114.87 128.682 114.613 128.41C114.435 128.222 114.31 128.052 114.238 127.9C114.155 127.723 114.148 127.541 114.215 127.354C114.266 127.214 114.354 127.141 114.479 127.133C114.524 127.131 114.627 127.143 114.787 127.171C114.971 127.203 115.146 127.266 115.311 127.359C115.646 127.548 115.961 127.731 116.256 127.909C116.398 127.995 116.513 127.97 116.599 127.835L117.527 126.377C117.598 126.264 117.566 126.209 117.43 126.211C117.063 126.216 116.711 126.282 116.376 126.409C116.134 126.5 115.947 126.559 115.814 126.584C115.221 126.701 114.813 126.76 114.588 126.762C114.226 126.766 113.986 126.601 113.87 126.266C113.786 126.026 113.743 125.792 113.741 125.566C113.741 125.443 113.707 125.433 113.639 125.535C113.491 125.759 113.329 125.972 113.152 126.172C113.05 126.29 112.976 126.406 112.932 126.521C112.905 126.588 112.913 126.665 112.953 126.727C113.04 126.864 113.124 126.989 113.203 127.104C113.253 127.176 113.345 127.296 113.48 127.462C113.732 127.774 113.943 128.114 114.111 128.481C114.163 128.595 114.155 128.705 114.088 128.81C113.869 129.154 113.545 129.339 113.117 129.363C113.017 129.368 112.928 129.339 112.851 129.274C112.636 129.094 112.447 128.874 112.282 128.616C111.819 127.887 111.585 127.089 111.58 126.223C111.58 126.189 111.588 126.16 111.604 126.137C111.615 126.122 111.627 126.108 111.64 126.095C111.66 126.074 111.673 126.053 111.679 126.031C111.821 125.51 111.911 125.064 111.949 124.695C111.983 124.369 112.026 124.1 112.078 123.886C112.083 123.863 112.081 123.838 112.071 123.813ZM116.364 120.22C116.255 120.151 116.174 120.062 116.119 119.954C116.082 119.879 116.059 119.883 116.05 119.966C115.994 120.498 115.972 121.018 115.984 121.527C115.986 121.591 115.999 121.638 116.024 121.669C116.062 121.715 116.114 121.733 116.179 121.724C116.202 121.721 116.225 121.708 116.244 121.687C116.641 121.234 117.011 120.751 117.354 120.237C117.401 120.168 117.386 120.15 117.309 120.182C117.109 120.268 116.906 120.311 116.699 120.31C116.57 120.309 116.458 120.279 116.364 120.22Z"   fill="#E60013" >
</path>
<path d="M93.5127 126.733C93.5231 126.753 93.5334 126.753 93.5438 126.733C93.8639 126.118 94.1695 125.495 94.4607 124.866C94.5277 124.721 94.6098 124.616 94.7068 124.55C94.8203 124.474 94.9367 124.469 95.0561 124.535C95.3167 124.678 95.5422 124.86 95.7325 125.08C95.8601 125.229 95.9296 125.387 95.9411 125.554C95.9602 125.826 95.8868 126.093 95.7211 126.355C95.6142 126.524 95.4127 126.889 95.1166 127.449C95.1133 127.455 95.0697 127.544 94.9858 127.719C94.8669 127.967 94.7066 128.177 94.5048 128.351C94.4121 128.431 94.3947 128.525 94.4525 128.633C94.8843 129.437 95.359 130.187 95.8765 130.883C95.9762 131.017 96.0698 131.013 96.157 130.87C96.3593 130.539 96.4951 130.201 96.5643 129.857C96.5998 129.681 96.666 129.668 96.7631 129.819C96.9997 130.189 97.1862 130.58 97.3225 130.995C97.3563 131.098 97.3978 131.202 97.4468 131.306C97.5188 131.46 97.5553 131.566 97.5564 131.625C97.5673 132.094 97.6311 132.554 97.7478 133.005C97.7484 133.007 97.7931 133.134 97.882 133.385C98.015 133.764 97.9507 134.105 97.6889 134.406C97.5619 134.552 97.4607 134.649 97.3855 134.695C97.2617 134.77 97.1142 134.79 96.943 134.754C96.4272 134.645 96.0253 134.384 95.7374 133.971C95.287 133.324 94.8732 132.655 94.4958 131.964C94.4004 131.789 94.2627 131.499 94.0828 131.094C93.9519 130.801 93.8093 130.512 93.655 130.228C93.5683 130.069 93.4816 130.069 93.3949 130.228C93.1027 130.764 92.7441 131.259 92.3194 131.714C92.2883 131.747 92.1244 131.904 91.8278 132.184C91.662 132.34 91.5056 132.506 91.3583 132.68C91.1751 132.896 91.0451 133.029 90.9682 133.08C90.7452 133.224 90.5393 133.211 90.3507 133.041C90.1876 132.894 90.1017 132.718 90.093 132.512C90.0859 132.343 90.1394 132.192 90.2533 132.059C90.412 131.875 90.4949 131.777 90.502 131.766C91.1154 130.846 91.7076 129.912 92.2785 128.964C92.2807 128.96 92.3289 128.886 92.4232 128.741C92.535 128.568 92.6122 128.39 92.6547 128.206C92.671 128.137 92.6602 128.064 92.6245 128.002C92.4331 127.67 92.252 127.364 92.0814 127.085C91.9908 126.937 91.9025 126.909 91.8164 127.002C91.7875 127.033 91.7523 127.096 91.7109 127.191C91.1939 128.372 90.6189 129.488 89.9859 130.537C89.7481 130.93 89.4684 131.312 89.1467 131.682C89.0137 131.834 88.8708 131.943 88.7181 132.008C88.3113 132.18 87.883 132.216 87.4332 132.116C87.3176 132.09 87.2432 132.02 87.2099 131.907C87.0954 131.511 87.0297 131.09 87.0128 130.644C87.0073 130.508 86.9713 130.383 86.9048 130.27C86.8906 130.247 86.8795 130.248 86.8713 130.275C86.8304 130.411 86.7617 130.531 86.6652 130.635C86.647 130.655 86.6351 130.679 86.6308 130.704C86.549 131.175 86.287 131.522 85.8448 131.743C85.7608 131.785 85.679 131.781 85.5994 131.73C85.4604 131.641 85.3582 131.522 85.2927 131.373C85.2507 131.278 85.2224 131.129 85.2077 130.928C85.1651 130.335 85.1711 129.743 85.2257 129.151C85.2529 128.856 85.2802 128.56 85.3074 128.265C85.3331 127.993 85.3511 127.697 85.3614 127.377C85.4067 126.011 85.5168 124.65 85.6919 123.294C85.7088 123.163 85.7532 123.042 85.8252 122.933C85.9141 122.799 86.0049 122.666 86.0975 122.534C86.1125 122.513 86.136 122.499 86.1613 122.497C86.5294 122.475 86.8023 122.589 86.9801 122.838C87.1197 123.034 87.2099 123.155 87.2508 123.201C87.4029 123.372 87.4847 123.338 87.4962 123.099C87.5033 122.949 87.5292 122.822 87.5739 122.72C87.6169 122.622 87.7045 122.537 87.8364 122.464C88.018 122.364 88.2522 122.262 88.539 122.158C88.9556 122.008 89.3904 121.854 89.8436 121.695C89.8783 121.683 89.8974 121.646 89.8869 121.61C89.3744 119.872 88.8024 118.183 88.1709 116.545C88.0243 116.164 87.9288 115.82 87.8847 115.513C87.8547 115.303 87.8182 115.137 87.7751 115.014C87.5433 114.345 87.6873 113.787 88.2069 113.34C88.3601 113.208 88.5216 113.206 88.6911 113.333C89.0445 113.597 89.2391 113.915 89.2751 114.286C89.3007 114.548 89.3264 114.71 89.352 114.77C89.4578 115.017 89.5401 115.272 89.599 115.534C89.6639 115.823 89.7255 116.114 89.7839 116.405C89.8487 116.731 89.9155 117.02 89.9842 117.272C90.3392 118.576 90.7236 119.872 91.1375 121.161C91.1496 121.2 91.1904 121.222 91.2299 121.211C92.0527 120.98 92.8663 120.784 93.6706 120.622C94.0135 120.553 94.3246 120.619 94.6038 120.818C95.1763 121.228 95.3094 121.728 95.0029 122.319C94.9468 122.427 94.8579 122.519 94.7363 122.597C93.9773 123.081 93.2019 123.565 92.4102 124.048C92.3322 124.096 92.2992 124.165 92.3112 124.256C92.3232 124.344 92.3597 124.451 92.4208 124.575C92.7752 125.299 93.1392 126.019 93.5127 126.733ZM87.4201 125.087C87.3917 125.385 87.3748 125.683 87.3694 125.982C87.3678 126.098 87.4089 126.148 87.4929 126.131C87.5159 126.126 87.5389 126.11 87.5567 126.087C87.6777 125.928 87.8105 125.78 87.955 125.642C88.1371 125.468 88.2974 125.287 88.4359 125.099C88.4576 125.07 88.4514 125.029 88.422 125.007C88.4215 125.007 88.421 125.006 88.4204 125.006C87.9924 124.703 87.6835 124.353 87.4937 123.956C87.4283 123.82 87.4018 123.827 87.4144 123.977C87.4296 124.162 87.44 124.347 87.4455 124.533C87.4498 124.682 87.4414 124.867 87.4201 125.087ZM90.6222 126.631C90.638 126.754 90.6563 126.753 90.677 126.627C90.68 126.608 90.6744 126.59 90.6623 126.581C90.647 126.569 90.635 126.573 90.6263 126.591C90.6214 126.602 90.62 126.615 90.6222 126.631ZM86.9727 129.196C86.7453 129.536 86.7835 129.741 87.0872 129.809C87.2284 129.841 87.325 129.878 87.3768 129.92C87.4787 130.003 87.5815 130.12 87.6851 130.271C87.8062 130.445 87.9288 130.442 88.0532 130.26C88.4103 129.741 88.7664 129.199 89.1214 128.633C89.1593 128.572 89.1411 128.492 89.0806 128.454C89.0751 128.451 89.0693 128.448 89.0633 128.445C88.9635 128.402 88.8495 128.396 88.7214 128.427C88.638 128.448 88.5398 128.497 88.4269 128.575C88.2225 128.715 88.0305 128.856 87.8511 128.997C87.7508 129.076 87.6415 129.092 87.5232 129.045C87.2871 128.949 87.1036 129 86.9727 129.196Z"   fill="#E60013" >
</path>
<path d="M91.8671 117.123C91.9287 117.006 92.0456 116.924 92.218 116.877C92.5658 116.781 92.899 116.783 93.2174 116.881C93.4688 116.958 93.7537 117.107 94.0722 117.328C94.3917 117.55 94.663 117.823 94.886 118.149C94.9601 118.257 95.0037 118.381 95.0168 118.521C95.0501 118.868 95.0605 119.217 95.0479 119.567C95.0469 119.593 95.0367 119.618 95.0193 119.638C94.8541 119.819 94.6553 119.939 94.423 119.997C94.1722 120.06 94.0413 120.094 94.0304 120.097C93.8145 120.163 93.6471 120.189 93.5282 120.175C93.3565 120.154 93.1861 120.052 93.017 119.87C92.9145 119.758 92.8616 119.701 92.8584 119.699C92.5012 119.335 92.2695 119.056 92.1632 118.861C92.0028 118.567 91.8815 118.257 91.7992 117.932C91.7212 117.625 91.7438 117.356 91.8671 117.123Z"   fill="#E60013" >
</path>
<path d="M84.2916 119.591C84.5381 119.556 84.9383 119.491 85.4923 119.398C85.6063 119.379 85.718 119.386 85.8276 119.42C85.9094 119.445 86.0016 119.502 86.1041 119.591C86.3075 119.766 86.5 119.952 86.6815 120.151C86.9111 120.401 86.9119 120.649 86.684 120.895C86.365 121.24 85.9541 121.477 85.4514 121.606C84.9056 121.746 84.5664 121.829 84.4339 121.856C84.2949 121.885 84.1411 121.958 83.9726 122.074C83.7365 122.236 83.5113 122.401 83.297 122.568C83.2654 122.593 83.2233 122.6 83.1858 122.586C82.9339 122.493 82.7021 122.415 82.4906 122.35C82.3815 122.317 82.2692 122.313 82.1536 122.339C81.7152 122.437 81.276 122.531 80.8359 122.619C80.6942 122.648 80.463 122.711 80.1424 122.808C79.933 122.872 79.6988 122.928 79.4398 122.976C79.2975 123.003 79.1486 123.072 78.9932 123.183C78.8356 123.296 78.6524 123.308 78.4436 123.22C78.4169 123.208 78.3868 123.208 78.3601 123.219C78.1797 123.291 77.9978 123.333 77.8146 123.346C77.6145 123.359 77.4501 123.328 77.3214 123.252C77.214 123.188 77.1297 123.099 77.0687 122.984C77.0441 122.938 76.997 122.828 76.9272 122.654C76.7532 122.22 76.7559 121.778 76.9353 121.327C77.046 121.048 77.2486 120.823 77.543 120.65C77.7235 120.544 77.892 120.461 78.0485 120.401C78.1783 120.351 78.3599 120.313 78.5932 120.286C79.5218 120.178 80.4417 120.068 81.3529 119.954C81.3969 119.948 81.4317 119.914 81.4379 119.87C81.4706 119.636 81.4826 119.408 81.4739 119.186C81.4597 118.824 81.4603 118.597 81.4755 118.507C81.5661 117.976 81.8406 117.57 82.2992 117.287C82.4088 117.218 82.5282 117.184 82.6574 117.184C83.1634 117.184 83.5454 117.357 83.8033 117.705C83.8922 117.825 83.98 117.973 84.0667 118.149C84.149 118.316 84.2 118.482 84.2196 118.646C84.2414 118.831 84.2518 119.135 84.2507 119.556C84.2505 119.576 84.2664 119.592 84.2862 119.592C84.288 119.592 84.2898 119.592 84.2916 119.591Z"   fill="#E60013" >
</path>
<path d="M80.292 123.472C80.3368 123.432 80.3926 123.406 80.4523 123.398C81.1078 123.313 81.7596 123.191 82.408 123.03C82.5356 122.998 82.7815 122.95 83.1457 122.885C83.3578 122.847 83.6032 122.79 83.8818 122.715C84.2886 122.606 84.6299 122.705 84.9059 123.014C84.9395 123.051 84.949 123.105 84.9304 123.152C84.8731 123.295 84.8134 123.434 84.7513 123.569C84.7104 123.658 84.6389 123.753 84.537 123.851C84.4072 123.977 84.2984 124.125 84.2106 124.296C84.1823 124.352 84.1339 124.394 84.0757 124.415C83.2599 124.706 82.4628 124.995 81.6841 125.282C81.6296 125.301 81.5036 125.323 81.3062 125.347C81.2048 125.36 81.08 125.384 80.9316 125.42C80.6983 125.477 80.4616 125.505 80.2217 125.503C80.0565 125.501 79.9139 125.458 79.7939 125.373C79.5884 125.228 79.4215 125.032 79.2934 124.785C79.2476 124.697 79.2418 124.607 79.2762 124.515C79.3362 124.352 79.4436 124.206 79.5984 124.075C79.8056 123.901 80.0368 123.7 80.292 123.472Z"   fill="#E60013" >
</path>
<path d="M80.8842 128.23C80.9006 128.278 80.9518 128.304 80.9995 128.289C81.5999 128.104 82.1836 127.918 82.7507 127.733C82.7561 127.731 82.8676 127.7 83.0852 127.64C83.3191 127.576 83.571 127.461 83.8409 127.295C84.076 127.151 84.3006 127.134 84.5149 127.243C84.6943 127.335 84.8401 127.464 84.9525 127.631C85.0626 127.796 85.1131 127.995 85.1038 128.231C85.0951 128.458 85.0547 128.643 84.9827 128.786C84.7341 129.279 84.592 129.579 84.5566 129.688C84.5064 129.844 84.4088 130.006 84.2638 130.174C84.2364 130.206 84.2221 130.247 84.2237 130.289C84.2264 130.415 84.224 130.534 84.2164 130.645C84.2114 130.717 84.1883 130.833 84.1468 130.993C84.1136 131.123 84.0849 131.28 84.061 131.462C84.0277 131.715 83.887 131.873 83.6389 131.935C83.5239 131.964 83.4652 131.978 83.4631 131.979C83.0579 132.104 82.6566 132.24 82.2591 132.388C82.2389 132.395 82.2128 132.398 82.1806 132.395C82.1048 132.389 82.0143 132.417 81.909 132.479C81.6697 132.62 81.5691 132.84 81.6072 133.138C81.6339 133.348 81.574 133.485 81.4273 133.548C81.3281 133.591 81.2048 133.583 81.0576 133.522C80.9126 133.462 80.7746 133.387 80.6437 133.3C80.6224 133.285 80.6053 133.263 80.5947 133.238C80.2468 132.412 79.9436 131.431 79.6851 130.296C79.599 129.918 79.5466 129.591 79.5281 129.315C79.5161 129.128 79.5368 128.953 79.5903 128.79C79.6464 128.621 79.7222 128.459 79.8176 128.305C79.8329 128.28 79.8337 128.265 79.8201 128.259C79.8081 128.254 79.789 128.259 79.771 128.273C79.5213 128.457 79.2814 128.532 79.0513 128.497C78.6947 128.442 78.4482 128.251 78.3119 127.923C78.217 127.694 78.1557 127.456 78.1278 127.209C78.1153 127.097 78.1349 126.999 78.1867 126.914C78.2255 126.851 78.3004 126.795 78.4117 126.746C78.8528 126.552 79.3048 126.387 79.7678 126.251C80.3599 126.076 80.9499 125.893 81.5377 125.704C81.5415 125.703 81.6383 125.66 81.8281 125.577C81.9644 125.517 82.1092 125.5 82.2624 125.525C82.2902 125.529 82.3164 125.527 82.3409 125.518C82.5394 125.448 82.7389 125.381 82.9396 125.318C82.9881 125.302 83.188 125.234 83.5391 125.111C83.76 125.035 83.9854 124.974 84.2155 124.929C84.3535 124.902 84.4694 124.897 84.5632 124.914C84.6804 124.937 84.7911 124.981 84.8952 125.047C84.9786 125.1 85.0138 125.175 85.0007 125.273C84.9762 125.456 84.9402 125.639 84.8928 125.821C84.8284 126.067 84.6997 126.271 84.5067 126.432C84.4921 126.444 84.4803 126.468 84.474 126.499L84.4593 126.573C84.455 126.595 84.4317 126.611 84.4028 126.612C84.2218 126.623 84.0443 126.655 83.8704 126.708C83.2897 126.887 82.8079 127.061 82.4251 127.229C81.8793 127.469 81.4717 127.643 81.2024 127.751C81.0699 127.804 80.9823 127.854 80.9398 127.901C80.8586 127.991 80.84 128.1 80.8842 128.23ZM80.9611 130.25C80.9458 130.362 80.9567 130.5 80.9938 130.664C81.0592 130.954 81.2345 131.086 81.5197 131.06C81.7487 131.038 81.9194 130.987 82.0317 130.905C82.1342 130.83 82.2515 130.796 82.3834 130.803C82.4589 130.807 82.5258 130.754 82.5396 130.68C82.5865 130.429 82.601 130.199 82.583 129.989C82.5793 129.944 82.5397 129.91 82.4947 129.914C82.4877 129.915 82.4808 129.916 82.4742 129.918C82.1945 130.017 81.915 130.077 81.6359 130.099C81.6326 130.1 81.5361 130.094 81.3463 130.081C81.2193 130.073 81.1039 130.107 81.0003 130.184C80.9789 130.2 80.9647 130.224 80.9611 130.25Z"   fill="#E60013" >
</path>
</svg>
