<svg width="240" height="293" viewBox="0 0 240 293" fill="none" xmlns="http://www.w3.org/2000/svg">
<path fill-rule="evenodd" clip-rule="evenodd" d="M95.8667 125.533L121.467 0L145.533 125.533L207.979 144.069C207.196 107.679 184.323 76.7284 152.233 64.0904L138.993 31.632C196.242 40.7354 240 90.3263 240 150.137C240 210.633 195.235 260.673 137.023 268.939L154.063 227.165C184.16 214.518 205.745 185.62 207.834 151.453L145.533 173.667L121.467 292.533L95.8667 173.667L32.1639 151.416C34.2394 185.599 55.8289 214.514 85.9369 227.165L102.977 268.939C44.7651 260.673 0 210.633 0 150.137C0 90.3263 43.758 40.7355 101.007 31.6321L87.7668 64.0905C55.6685 76.732 32.7918 107.696 32.0201 144.099L95.8667 125.533ZM207.956 148.8C207.956 148.811 207.956 148.822 207.955 148.833L140.6 168.867L121.266 148.8H207.956ZM121.266 148.8L100.933 168.067L121.733 268.733L121.266 148.8ZM121.266 148.8L140.6 129.133L121.266 28.8668V148.8ZM120.533 148.6L100.867 128.133C83.8889 132.622 38.12 147.373 34.6 148.6C32.7867 149.826 91.1333 149.111 120.533 148.6Z" fill="#4E49E0"/>
</svg>
