<?xml version="1.0" encoding="UTF-8"?><svg id="b" xmlns="http://www.w3.org/2000/svg" viewBox="0 0 251.5859 251.5859"><g id="c"><g id="d"><path d="M214.1055,126.3164c0,48.4883-39.3086,87.793-87.793,87.793s-87.793-39.3047-87.793-87.793S77.8203,38.5195,126.3125,38.5195s87.793,39.3086,87.793,87.7969Z" fill="#fff" stroke-width="0"/><path d="M125.793,0C56.3203,0,0,56.3203,0,125.793s56.3203,125.793,125.793,125.793,125.793-56.3164,125.793-125.793S195.2695,0,125.793,0ZM125.793,209.6172c-46.293,0-83.8203-37.5273-83.8203-83.8242S79.5,41.9727,125.793,41.9727s83.8203,37.5312,83.8203,83.8203-37.5273,83.8242-83.8203,83.8242Z" fill="#dcb770" stroke-width="0"/><path d="M219.4492,113.5469l7.4531,2.0898,6.6836-6.8633,7.4805,2.1523,4.6875-4.8203c-.3516-2.1562-.7578-4.293-1.2227-6.4062-.0664-.3047-.1445-.6016-.2109-.9023l-3.8398,4.707-7.8672-1.2852-6.0039,7.3633-7.8125-1.2227-5.9766,7.4688-3.4648-.582c.0625.5039.1367,1,.1914,1.5039.0859.7695.1406,1.5508.1992,2.3281.0117.1719.0195.3477.0312.5195l3.0352.8945,6.6367-6.9453Z" fill="#054f98" stroke-width="0"/><path d="M233.1602,142.0469l-7.3359,6.1836-6.8906-3.0391-7.332,6.293-4.9258-2.25c-.0898.3203-.1758.6406-.2734.9531-.0586.1992-.1094.4062-.1758.6055-.0781.2578-.168.5078-.2539.7578-.4531,1.4102-.9922,2.7812-1.5273,4.1523l4.0391,2.375,7.7227-5.7461,6.4688,3.6875,8.0352-5.6797,6.1875,3.7812,7.9883-5.832.2305.3125c.2734-1.4062.5703-2.8047.793-4.2305.0898-.582.2031-1.1562.2852-1.7461.0742-.5508.1406-1.1055.207-1.6523.0039-.0273.0117-.0547.0117-.0781.0469-.3828.0664-.7734.1094-1.1602l-6.4336,5.4258-6.9297-3.1133Z" fill="#054f98" stroke-width="0"/><path d="M247.2656,121.0664c-.0039-.1484-.0039-.293-.0117-.4375-.0039-.0938-.0117-.1836-.0156-.2734l-4.7969,4.5234-7.2578-2.5781-6.9688,6.5742-7.2109-2.5078-6.9648,6.6875-4.2383-1.5312c-.0234.332-.0313.668-.0586,1-.0156.2031-.0195.4102-.0391.6133-.0547.6328-.1133,1.2656-.1797,1.8984-.0977.8828-.2695,1.7344-.4023,2.6055l3.5195,1.4336,7.1289-6.4805,7.0742,2.7773,7.1641-6.3867,7.1016,2.8516,6.2656-5.5898c.0039-.1523.0117-.3008.0117-.4531,0-1.5859-.0586-3.1602-.1211-4.7266Z" fill="#054f98" stroke-width="0"/><path d="M234.5625,132.1445l-7.1523,6.3789-7.0625-2.7734-7.1484,6.4961-4.4961-1.8359c-.0391.2148-.0625.4258-.0977.6367-.0547.3086-.082.625-.1406.9297-.0898.4414-.1797.8906-.2773,1.3281-.2656,1.2656-.5859,2.5156-.9141,3.7539l3.9609,1.8086,7.3203-6.2812,6.9023,3.043,7.3438-6.1875,6.9258,3.1133,7.0977-5.9805c.0742-.8672.1836-1.7305.2461-2.6055.0625-.9102.1406-1.8203.1797-2.7383.0195-.4023.0234-.8086.0312-1.2188v-.0352l-5.6211,5.0117-7.0977-2.8438Z" fill="#054f98" stroke-width="0"/><path d="M220.1953,122.6836l7.2305,2.5039,6.9883-6.5781,7.25,2.5742,5.2773-4.9727c-.1406-1.8281-.3125-3.6445-.5352-5.4453l-4.2383,4.3516-7.4766-2.1562-6.6719,6.8516-7.4258-2.0898-6.6602,6.9727-3.9453-1.1641c0,.0586,0,.1094.0039.168.0195.6953.0508,1.3906.0508,2.0938,0,.0625-.0039.1211-.0039.1797,0,.7344-.0273,1.4609-.0547,2.1914l3.2695,1.1836,6.9414-6.6641Z" fill="#054f98" stroke-width="0"/><path d="M230.7852,152.4141l-8.0117,5.6602-6.4414-3.6719-7.7344,5.7578-4.7773-2.8086c-.2031.4844-.4062.9688-.6211,1.4531-.7969,1.8594-1.7109,3.6602-2.6445,5.4453l4.1875,3.1055,8.0781-5.1719,5.9766,4.3125,8.5742-4.9844,5.4844,4.2812,9.4883-5.7227c.5469-1.832,1.1016-3.6602,1.5586-5.5352.0391-.1641.0898-.332.1289-.5.0859-.3438.1602-.6875.2422-1.0312.0977-.4336.1719-.8711.2695-1.3047.0859-.3867.1367-.7852.2188-1.1719l-7.7773,5.6758-6.1992-3.7891Z" fill="#054f98" stroke-width="0"/><path d="M227.2695,163.0039l-8.5469,4.9648-5.9414-4.2891-8.0898,5.1875-4.6914-3.4883c-.2031.3711-.4141.7383-.6172,1.1055-.957,1.707-1.9844,3.3711-3.0547,5.0078l3.9961,4.4766,8.6875-4.0547,4.9922,5.4453,8.6719-3.9414,4.9844,5.5195,9.5117-4.5703c.1133-.2539.2344-.5078.3438-.7656,1.2773-2.957,2.4258-5.9727,3.4688-9.043.25-.7461.4883-1.5.7266-2.2539.0547-.1641.0898-.332.1406-.4922l-9.0859,5.4766-5.4961-4.2852Z" fill="#054f98" stroke-width="0"/><path d="M219.0156,109.5156l7.8477,1.2188,6.0273-7.3633,7.9062,1.2852,3.8555-4.707c-.2227-1.0156-.4453-2.0352-.7031-3.0391-.1289-.4961-.2773-.9805-.4102-1.4727l-4.2695,5.207-7.9062-1.2852-6.0508,7.375-7.8672-1.2227-5.9844,7.4453-2.5391-.4258c.125.7227.2812,1.4375.3906,2.1641.082.5664.1445,1.1328.2148,1.7031l3.4805.582,6.0078-7.4648Z" fill="#b28247" stroke-width="0"/><path d="M218.8008,108.3594l7.8125,1.2227,6.0039-7.3633,7.8672,1.2852,3.8359-4.707c-.2227-1.0156-.4414-2.0352-.6992-3.0391-.1289-.4961-.2773-.9805-.4102-1.4727l-4.25,5.207-7.8672-1.2852-6.0234,7.375-7.832-1.2227-5.957,7.4453-2.5273-.4258c.125.7227.2812,1.4375.3867,2.1641.0859.5664.1445,1.1367.2188,1.7031l3.4609.582,5.9805-7.4688Z" fill="#dcb770" stroke-width="0"/><path d="M220.6758,118.8711l7.4258,2.0859,6.6758-6.8516,7.4766,2.1562,4.2344-4.3516c-.0234-.207-.0352-.418-.0586-.625-.1523-1.1641-.2969-2.3281-.4844-3.4805-.0273-.1875-.0742-.3672-.1055-.5547l-4.6914,4.8203-7.4766-2.1523-6.6875,6.8633-7.4492-2.0898-6.6367,6.9453-3.0352-.8945c.0898,1.2695.1719,2.543.207,3.8281,0,.0352.0039.0703.0039.1055l3.9453,1.1641,6.6563-6.9688Z" fill="#b28247" stroke-width="0"/><path d="M220.5938,117.7227l7.4258,2.0898,6.6719-6.8516,7.4766,2.1562,4.2383-4.3516c-.0234-.207-.0352-.418-.0625-.625-.1484-1.1641-.2969-2.3281-.4805-3.4844-.0273-.1875-.0742-.3672-.1055-.5508l-4.6914,4.8203-7.4805-2.1523-6.6836,6.8633-7.4492-2.0898-6.6367,6.9414-3.0391-.8906c.0898,1.2695.1719,2.543.2109,3.8242v.1094l3.9492,1.1641,6.6562-6.9727Z" fill="#dcb770" stroke-width="0"/><path d="M221.0039,127.4766l7.2109,2.5039,6.9688-6.5742,7.2578,2.5781,4.7969-4.5195c-.043-.9062-.0977-1.8086-.1562-2.707-.0234-.375-.0781-.7422-.1094-1.1172-.0078-.1094-.0195-.2148-.0312-.3242l-5.2773,4.9766-7.25-2.5781-6.9883,6.582-7.2305-2.5078-6.9414,6.668-3.2734-1.1836c0,.1172,0,.2344-.0078.3555-.0391,1.0039-.1016,2.0039-.168,3l4.2344,1.5312,6.9648-6.6836Z" fill="#b28247" stroke-width="0"/><path d="M221.0039,126.3672l7.2109,2.5039,6.9688-6.5703,7.2578,2.5781,4.7969-4.5234c-.043-.9062-.0977-1.8086-.1562-2.707-.0234-.375-.0781-.7383-.1094-1.1172-.0078-.1055-.0195-.2148-.0312-.3203l-5.2773,4.9727-7.25-2.5742-6.9883,6.5781-7.2305-2.5039-6.9414,6.6641-3.2734-1.1836c0,.1172,0,.2383-.0078.3555-.0391,1.0039-.1016,2.0039-.168,3l4.2344,1.5312,6.9648-6.6836Z" fill="#dcb770" stroke-width="0"/><path d="M233.8398,129.9844l-7.1602,6.3867-7.0781-2.7773-7.125,6.4805-3.5195-1.4336c-.0078.0508-.0156.0977-.0234.1484-.125.8789-.2539,1.7539-.3984,2.625l4.4961,1.832,7.1484-6.4961,7.0625,2.7734,7.1523-6.3789,7.0938,2.8477,5.625-5.0156c.0078-.3867.0156-.7734.0273-1.1602.0195-.8594.0547-1.7109.0664-2.5703l-6.2656,5.5859-7.1016-2.8477Z" fill="#b28247" stroke-width="0"/><path d="M234.0078,128.9844l-7.1641,6.3867-7.0742-2.7773-7.1289,6.4805-3.5195-1.4336c-.0078.0469-.0117.0977-.0195.1484-.125.8789-.2539,1.7539-.4023,2.625l4.5,1.832,7.1484-6.4961,7.0586,2.7734,7.1562-6.3789,7.0938,2.8477,5.625-5.0156c.0078-.3867.0156-.7734.0273-1.1602.0195-.8594.0547-1.7109.0664-2.5703l-6.2656,5.5859-7.1016-2.8477Z" fill="#dcb770" stroke-width="0"/><path d="M232.668,140.4766l-7.375,6.1875-6.9375-3.043-7.3555,6.2812-3.9766-1.8047c-.0586.2227-.1055.4492-.1641.668-.1367.5078-.2891,1.0078-.4336,1.5078l4.9453,2.25,7.3672-6.293,6.9219,3.0391,7.3672-6.1836,6.9609,3.1172,6.4648-5.4258c.1211-1.0508.207-2.1055.2969-3.1602l-7.125,5.9766-6.957-3.1172Z" fill="#b28247" stroke-width="0"/><path d="M232.7969,139.4414l-7.3398,6.1875-6.9062-3.043-7.3203,6.2812-3.9609-1.8086c-.0547.2227-.1016.4492-.1602.668-.1367.5078-.2852,1.0078-.4336,1.5078l4.9258,2.25,7.332-6.293,6.8906,3.0391,7.3359-6.1836,6.9297,3.1172,6.4336-5.4258c.1172-1.0508.207-2.1055.2969-3.1641l-7.0938,5.9805-6.9297-3.1133Z" fill="#dcb770" stroke-width="0"/><path d="M236.6445,154.9922l-6.1836-3.7812-8.0352,5.6797-6.4688-3.6875-7.7227,5.7461-4.0391-2.375c-.1719.4414-.4023.8984-.5781,1.3398-.043.1016-.0898.2031-.1328.3086l4.8633,2.8086,7.7344-5.7578,6.3594,3.6719,8.0078-5.6602,6.2852,3.7891,7.8594-5.6758c.1367-.6367.3242-1.2852.4453-1.9219l-.3984-.3164-7.9961,5.832Z" fill="#b28247" stroke-width="0"/><path d="M236.8984,154.1211l-6.1875-3.7812-8.0352,5.6797-6.4688-3.6875-7.7227,5.7461-4.0391-2.375c-.1719.4414-.3164.8984-.4922,1.3398-.043.1055-.0898.207-.1328.3086l4.7773,2.8086,7.7344-5.7578,6.4453,3.6719,8.0078-5.6562,6.1992,3.7852,7.7773-5.6758c.1328-.6367.2383-1.2812.3594-1.9219l.5703-.918-8.793,6.4336Z" fill="#dcb770" stroke-width="0"/><path d="M226.9531,162.4062l-8.5742,4.9805-5.9766-4.3125-8.0781,5.1758-4.1875-3.1055c-.1836.3438-.3281.707-.5117,1.0508-.0156.0234-.0312.0508-.043.0781l4.6914,3.4844,8.0898-5.1836,5.9414,4.2891,8.5469-4.9648,5.4961,4.2852,9.2539-5.4805c.1758-.5703.3203-1.1641.4883-1.7422l-9.6562,5.7266-5.4805-4.2812Z" fill="#b28247" stroke-width="0"/><path d="M227.3711,161.5117l-8.5742,4.9844-5.9766-4.3125-8.0781,5.1719-4.1875-3.1055c-.1836.3477-.3242.707-.5117,1.0508-.0156.0273-.0273.0508-.043.0781l4.6914,3.4844,8.0898-5.1836,5.9414,4.2891,8.5469-4.9648,5.5,4.2891,9.082-5.4805c.1797-.5742.3203-1.1641.4922-1.7422l-9.4883,5.7227-5.4844-4.2812Z" fill="#dcb770" stroke-width="0"/><path d="M222.6758,173.418l-8.6719,3.9414-4.9883-5.4453-8.6914,4.0547-3.9922-4.4766c-.1875.2852-.3711.5703-.5625.8555l4.3086,4.832,8.6992-4.0586,4.9883,5.4375,8.668-3.9414,4.9883,5.5312,9.0977-4.3672c.0938-.1992.1992-.3945.2852-.5977.1211-.2734.2461-.543.3672-.8125l-9.5117,4.5664-4.9844-5.5195Z" fill="#dcb770" stroke-width="0"/><path d="M222.3086,174.082l-8.6758,3.9375-4.9883-5.4414-8.6914,4.0547-3.9922-4.4805c-.1875.2852-.3711.5742-.5625.8594l4.3086,4.8281,8.6992-4.0586,4.9883,5.4414,8.668-3.9414,4.9883,5.5312,9.0977-4.3672c.0938-.1992.1992-.3984.2891-.6016.1211-.2695.2422-.543.3672-.8125l-9.5117,4.5703-4.9844-5.5195Z" fill="#b28247" stroke-width="0"/><path d="M194.7266,173.9219c-.375.5312-.7852,1.0391-1.1719,1.5625.4883-.6055.9219-1.1523,1.1914-1.5312l-.0195-.0312Z" fill="#dcb770" stroke-width="0"/><path d="M230.3164,187.5469l.0859-.0312c.3398-.5781.668-1.1523.9844-1.7148-.3359.5938-.7188,1.1602-1.0703,1.7461Z" fill="#054f98" stroke-width="0"/><path d="M230.3164,187.5469c-.2031.3438-.418.6758-.625,1.0195l.1055-.0391c.2031-.3359.4062-.668.6055-1.0117l-.0859.0312Z" fill="#dcb770" stroke-width="0"/><path d="M220.6445,191.0859l-4.293-6.1016-8.8438,3.1875-4.3008-6.0117-8.875,3.3008-4.0586-5.8359c-.1641.1953-.3281.3906-.4961.582l4.2695,6.1523,8.8828-3.3047,4.3008,6.0117,8.8438-3.1914,4.293,6.1016,9.3242-3.4102c.207-.3438.4219-.6758.625-1.0195l-9.6719,3.5391Z" fill="#dcb770" stroke-width="0"/><path d="M227.4219,180.1484l-4.9883-5.5312-8.668,3.9414-4.9922-5.4375-8.6992,4.0586-4.3047-4.832c-.2031.2969-.3867.6016-.5898.8984-.1562.2188-.2969.4531-.4531.6758l.0234.0312c-.2734.375-.707.9258-1.1953,1.5312-1.0508,1.4141-2.1445,2.7969-3.2812,4.1406l4.0586,5.8359,8.875-3.3008,4.3008,6.0117,8.8438-3.1875,4.293,6.1016,9.6758-3.5391c.3477-.5859.7305-1.1523,1.0664-1.7461.0469-.0781.0977-.1484.1406-.2266.0117-.0156.0234-.0312.0312-.0469.0547-.0977.1055-.1914.1602-.2891l.0898-.1562c.082-.1523.168-.3047.2539-.457.0938-.1719.1797-.3477.2734-.5195,1.4961-2.7148,2.8906-5.4883,4.1836-8.3242l-9.0977,4.3672Z" fill="#054f98" stroke-width="0"/><path d="M241.0469,87.1875c-.4922-1.4727-1.0078-2.9297-1.5586-4.375C222.1602,37.3047,178.1484,4.957,126.5508,4.957c-.2539,0-.5039.0156-.7578.0156s-.5039-.0156-.7578-.0156C73.4414,4.957,29.4258,37.3047,12.0977,82.8125c-.5508,1.4453-1.0664,2.9023-1.5586,4.375-.793,2.3359-1.5078,4.7031-2.1602,7.0977l4.2461,5.207,7.8672-1.2852,6.0234,7.375,7.832-1.2227,5.957,7.4453,2.5273-.4258c.1719-.9844.3242-1.9727.5273-2.9453.2734-1.2891.5742-2.5703.9023-3.8398.3945-1.5.8359-2.9766,1.3086-4.4414.4688-1.4492.9805-2.8789,1.5195-4.2969,12.0391-31.3164,42.3867-53.5547,77.9453-53.5547.2539,0,.5.0273.7539.0312.2539-.0039.5039-.0312.7578-.0312,35.5586,0,65.9062,22.2383,77.9414,53.5547.543,1.418,1.0547,2.8477,1.5234,4.2969.4727,1.4648.9141,2.9414,1.3047,4.4414.332,1.2695.6328,2.5508.9062,3.8398.2031.9727.3555,1.9609.5273,2.9453l2.5273.4258,5.957-7.4453,7.832,1.2227,6.0234-7.375,7.8672,1.2852,4.25-5.207c-.6484-2.3945-1.3672-4.7617-2.1602-7.0977Z" fill="#054f98" stroke-width="0"/><path d="M32.1367,113.5469l-7.4531,2.0898-6.6836-6.8633-7.4805,2.1523-4.6914-4.8203c.3555-2.1562.7617-4.293,1.2266-6.4062.0664-.3047.1406-.6016.207-.9023l3.8398,4.707,7.8672-1.2852,6.0039,7.3633,7.8125-1.2227,5.9805,7.4688,3.4609-.582c-.0625.5039-.1328,1-.1875,1.5039-.0859.7695-.1406,1.5508-.1992,2.3281-.0117.1719-.0195.3477-.0312.5195l-3.0352.8945-6.6367-6.9453Z" fill="#054f98" stroke-width="0"/><path d="M18.4258,142.0469l7.332,6.1836,6.8945-3.0391,7.3281,6.293,4.9297-2.25c.0898.3203.1758.6406.2695.9531.0625.1992.1094.4062.1758.6055.0781.2578.1719.5078.2539.7578.457,1.4102.9922,2.7812,1.5273,4.1523l-4.0391,2.375-7.7227-5.7461-6.4688,3.6875-8.0352-5.6797-6.1836,3.7812-7.9922-5.832-.2305.3125c-.2695-1.4062-.5703-2.8047-.793-4.2305-.0898-.582-.1992-1.1562-.2812-1.7461-.0742-.5508-.1406-1.1055-.207-1.6523-.0039-.0273-.0117-.0547-.0117-.0781-.0469-.3828-.0664-.7734-.1133-1.1602l6.4375,5.4258,6.9297-3.1133Z" fill="#054f98" stroke-width="0"/><path d="M4.3203,121.0664c.0039-.1484.0039-.293.0117-.4375.0039-.0938.0117-.1836.0156-.2734l4.7969,4.5234,7.2578-2.5781,6.9688,6.5742,7.2109-2.5078,6.9648,6.6875,4.2344-1.5312c.0273.332.0352.668.0586,1,.0195.2031.0234.4102.043.6133.0547.6328.1133,1.2656.1797,1.8984.0977.8828.2695,1.7344.3984,2.6055l-3.5195,1.4336-7.125-6.4805-7.0781,2.7773-7.1602-6.3867-7.1016,2.8516-6.2656-5.5898c-.0039-.1523-.0117-.3008-.0117-.4531,0-1.5859.0547-3.1602.1211-4.7266Z" fill="#054f98" stroke-width="0"/><path d="M17.0234,132.1445l7.1523,6.3789,7.0625-2.7734,7.1445,6.4961,4.5-1.8359c.0391.2148.0586.4258.0977.6367.0547.3086.082.625.1406.9297.0859.4414.1797.8906.2734,1.3281.2695,1.2656.5898,2.5156.918,3.7539l-3.9609,1.8086-7.3203-6.2812-6.9023,3.043-7.3438-6.1875-6.9258,3.1133-7.0977-5.9805c-.0742-.8672-.1836-1.7305-.2461-2.6055-.0625-.9102-.1406-1.8203-.1797-2.7383-.0195-.4023-.0195-.8086-.0312-1.2188v-.0352l5.6211,5.0117,7.0977-2.8438Z" fill="#054f98" stroke-width="0"/><path d="M31.3906,122.6836l-7.2305,2.5039-6.9883-6.5781-7.25,2.5742-5.2812-4.9727c.1445-1.8281.3164-3.6445.5391-5.4453l4.2344,4.3516,7.4805-2.1562,6.6719,6.8516,7.4258-2.0898,6.6602,6.9727,3.9453-1.1641c0,.0586,0,.1094-.0039.168-.0234.6953-.0508,1.3906-.0508,2.0938,0,.0625.0039.1211.0039.1797,0,.7344.0273,1.4609.0547,2.1914l-3.2695,1.1836-6.9414-6.6641Z" fill="#054f98" stroke-width="0"/><path d="M20.8008,152.4141l8.0078,5.6602,6.4453-3.6719,7.7344,5.7578,4.7773-2.8086c.2031.4844.4102.9688.6211,1.4531.7969,1.8594,1.7109,3.6602,2.6445,5.4453l-4.1875,3.1055-8.0781-5.1719-5.9766,4.3125-8.5742-4.9844-5.4844,4.2812-9.4844-5.7227c-.5469-1.832-1.1055-3.6602-1.5625-5.5352-.0391-.1641-.0898-.332-.1289-.5-.0859-.3438-.1602-.6875-.2383-1.0312-.1016-.4336-.1758-.8711-.2695-1.3047-.0898-.3867-.1406-.7852-.2188-1.1719l7.7773,5.6758,6.1953-3.7891Z" fill="#054f98" stroke-width="0"/><path d="M24.3164,163.0039l8.5469,4.9648,5.9414-4.2891,8.0898,5.1875,4.6914-3.4883c.2031.3711.4141.7383.6172,1.1055.957,1.707,1.9844,3.3711,3.0508,5.0078l-3.9922,4.4766-8.6914-4.0547-4.9883,5.4453-8.6719-3.9414-4.9844,5.5195-9.5117-4.5703c-.1133-.2539-.2344-.5078-.3438-.7656-1.2773-2.957-2.4258-5.9727-3.4688-9.043-.25-.7461-.4883-1.5-.7305-2.2539-.0508-.1641-.0898-.332-.1367-.4922l9.082,5.4766,5.5-4.2852Z" fill="#054f98" stroke-width="0"/><path d="M32.5703,109.5156l-7.8477,1.2188-6.0312-7.3633-7.9023,1.2852-3.8594-4.707c.2266-1.0156.4492-2.0352.707-3.0391.1289-.4961.2773-.9805.4102-1.4727l4.2695,5.207,7.9062-1.2852,6.0469,7.375,7.8711-1.2227,5.9844,7.4453,2.5391-.4258c-.125.7227-.2812,1.4375-.3906,2.1641-.0859.5664-.1445,1.1328-.2188,1.7031l-3.4766.582-6.0078-7.4648Z" fill="#b28247" stroke-width="0"/><path d="M32.7852,108.3594l-7.8125,1.2227-6.0039-7.3633-7.8672,1.2852-3.8398-4.707c.2266-1.0156.4453-2.0352.7031-3.0391.1289-.4961.2773-.9805.4102-1.4727l4.25,5.207,7.8672-1.2852,6.0195,7.375,7.832-1.2227,5.957,7.4453,2.5273-.4258c-.125.7227-.2812,1.4375-.3867,2.1641-.0859.5664-.1445,1.1367-.2188,1.7031l-3.4609.582-5.9766-7.4688Z" fill="#dcb770" stroke-width="0"/><path d="M30.9062,118.8711l-7.4219,2.0859-6.6758-6.8516-7.4766,2.1562-4.2344-4.3516c.0195-.207.0312-.418.0586-.625.1484-1.1641.2969-2.3281.4805-3.4805.0312-.1875.0781-.3672.1094-.5547l4.6875,4.8203,7.4805-2.1523,6.6875,6.8633,7.4492-2.0898,6.6367,6.9453,3.0352-.8945c-.0898,1.2695-.1719,2.543-.207,3.8281,0,.0352-.0039.0703-.0039.1055l-3.9453,1.1641-6.6602-6.9688Z" fill="#b28247" stroke-width="0"/><path d="M30.9922,117.7227l-7.4258,2.0898-6.6719-6.8516-7.4805,2.1562-4.2344-4.3516c.0234-.207.0352-.418.0586-.625.1523-1.1641.3008-2.3281.4844-3.4844.0273-.1875.0742-.3672.1055-.5508l4.6914,4.8203,7.4805-2.1523,6.6836,6.8633,7.4492-2.0898,6.6367,6.9414,3.0391-.8906c-.0898,1.2695-.1719,2.543-.2109,3.8242,0,.0391-.0039.0742-.0039.1094l-3.9453,1.1641-6.6562-6.9727Z" fill="#dcb770" stroke-width="0"/><path d="M30.582,127.4766l-7.2109,2.5039-6.9688-6.5742-7.2578,2.5781-4.7969-4.5195c.043-.9062.0977-1.8086.1562-2.707.0234-.375.0781-.7422.1094-1.1172.0078-.1094.0195-.2148.0312-.3242l5.2773,4.9766,7.25-2.5781,6.9883,6.582,7.2305-2.5078,6.9414,6.668,3.2695-1.1836c.0039.1172.0039.2344.0117.3555.0352,1.0039.1016,2.0039.168,3l-4.2344,1.5312-6.9648-6.6836Z" fill="#b28247" stroke-width="0"/><path d="M30.582,126.3672l-7.2109,2.5039-6.9688-6.5703-7.2578,2.5781-4.7969-4.5234c.043-.9062.0977-1.8086.1562-2.707.0234-.375.0781-.7383.1094-1.1172.0078-.1055.0195-.2148.0312-.3203l5.2773,4.9727,7.25-2.5742,6.9883,6.5781,7.2305-2.5039,6.9414,6.6641,3.2695-1.1836c.0039.1172.0039.2383.0117.3555.0352,1.0039.1016,2.0039.168,3l-4.2344,1.5312-6.9648-6.6836Z" fill="#dcb770" stroke-width="0"/><path d="M17.7461,129.9844l7.1602,6.3867,7.0781-2.7773,7.125,6.4805,3.5195-1.4336c.0078.0508.0156.0977.0234.1484.125.8789.2539,1.7539.3984,2.625l-4.4961,1.832-7.1484-6.4961-7.0625,2.7734-7.1523-6.3789-7.0977,2.8477-5.8945-5.0859c-.0117-.3906.0117-.8047,0-1.1914-.0195-.8594.1914-1.6094.1758-2.4688l6.2695,5.5859,7.1016-2.8477Z" fill="#b28247" stroke-width="0"/><path d="M17.5781,128.9844l7.1602,6.3867,7.0781-2.7773,7.125,6.4805,3.5195-1.4336c.0117.0469.0156.0977.0234.1484.125.8789.2539,1.7539.3984,2.625l-4.4961,1.832-7.1484-6.4961-7.0586,2.7734-7.1562-6.3789-7.0937,2.8477-5.6211-5.0156c-.0117-.3867-.0195-.7734-.0312-1.1602-.0195-.8594-.0547-1.7109-.0664-2.5703l6.2656,5.5859,7.1016-2.8477Z" fill="#dcb770" stroke-width="0"/><path d="M18.918,140.4766l7.375,6.1875,6.9375-3.043,7.3516,6.2812,3.9805-1.8047c.0586.2227.1055.4492.1641.668.1367.5078.2891,1.0078.4336,1.5078l-4.9492,2.25-7.3633-6.293-6.9258,3.0391-7.3672-6.1836-6.957,3.1172-6.4688-5.4258c-.1172-1.0508-.2031-2.1055-.2969-3.1602l7.1289,5.9766,6.957-3.1172Z" fill="#b28247" stroke-width="0"/><path d="M18.7891,139.4414l7.3398,6.1875,6.9062-3.043,7.3164,6.2812,3.9609-1.8086c.0586.2227.1055.4492.1641.668.1328.5078.2852,1.0078.4336,1.5078l-4.9297,2.25-7.3281-6.293-6.8945,3.0391-7.332-6.1836-6.9297,3.1172-6.4336-5.4258c-.1211-1.0508-.207-2.1055-.2969-3.1641l7.0938,5.9805,6.9297-3.1133Z" fill="#dcb770" stroke-width="0"/><path d="M14.9414,154.9922l6.1836-3.7812,8.0352,5.6797,6.4688-3.6875,7.7227,5.7461,4.0391-2.375c.1758.4414.4023.8984.5781,1.3398.043.1016.0898.2031.1328.3086l-4.8633,2.8086-7.7344-5.7578-6.3594,3.6719-8.0078-5.6602-6.2852,3.7891-7.8594-5.6758c-.1367-.6367-.3242-1.2852-.4414-1.9219l.3984-.3164,7.9922,5.832Z" fill="#b28247" stroke-width="0"/><path d="M14.6875,154.1211l6.1875-3.7812,8.0352,5.6797,6.4688-3.6875,7.7227,5.7461,4.0391-2.375c.1719.4414.3164.8984.4922,1.3398.043.1055.0898.207.1328.3086l-4.7773,2.8086-7.7344-5.7578-6.4453,3.6719-8.0078-5.6562-6.1992,3.7852-7.7773-5.6758c-.1367-.6367-.2383-1.2812-.3594-1.9219l.2305-.3164,7.9922,5.832Z" fill="#dcb770" stroke-width="0"/><path d="M24.6328,162.4062l8.5742,4.9805,5.9766-4.3125,8.0781,5.1758,4.1875-3.1055c.1836.3438.3281.707.5117,1.0508.0156.0234.0312.0508.043.0781l-4.6914,3.4844-8.0898-5.1836-5.9414,4.2891-8.5469-4.9648-5.5,4.2852-9.25-5.4805c-.1758-.5703-.3203-1.1641-.4883-1.7422l9.6523,5.7266,5.4844-4.2812Z" fill="#b28247" stroke-width="0"/><path d="M24.2148,161.5117l8.5742,4.9844,5.9727-4.3125,8.0781,5.1719,4.1914-3.1055c.1797.3477.3242.707.5117,1.0508.0117.0273.0273.0508.043.0781l-4.6914,3.4844-8.0898-5.1836-5.9453,4.2891-8.5469-4.9648-5.4961,4.2891-9.082-5.4805c-.1797-.5742-.3242-1.1641-.4922-1.7422l9.4883,5.7227,5.4844-4.2812Z" fill="#dcb770" stroke-width="0"/><path d="M28.9102,173.418l8.6719,3.9414,4.9883-5.4453,8.6914,4.0547,3.9922-4.4766c.1875.2852.3711.5703.5625.8555l-4.3086,4.832-8.6992-4.0586-4.9883,5.4375-8.668-3.9414-4.9883,5.5312-9.0977-4.3672c-.0938-.1992-.1953-.3945-.2852-.5977-.1211-.2734-.2422-.543-.3672-.8125l9.5117,4.5664,4.9844-5.5195Z" fill="#dcb770" stroke-width="0"/><path d="M29.2773,174.082l8.6758,3.9375,4.9883-5.4414,8.6914,4.0547,3.9922-4.4805c.1875.2852.3711.5742.5625.8594l-4.3086,4.8281-8.6992-4.0586-4.9883,5.4414-8.668-3.9414-4.9883,5.5312-9.0977-4.3672c-.0938-.1992-.1992-.3984-.2891-.6016-.1211-.2695-.2422-.543-.3672-.8125l9.5117,4.5703,4.9844-5.5195Z" fill="#b28247" stroke-width="0"/><path d="M220.3672,191.9766l-4.293-6.1016-8.8438,3.1914-4.3008-6.0117-8.8828,3.3047-4.2695-6.1523c-15.3008,17.7852-37.9258,29.0781-63.2266,29.0781-.2539,0-.5039-.0273-.7578-.0312-.2539.0039-.5039.0312-.7578.0312-25.3008,0-47.9219-11.293-63.2227-29.0781l-4.2695,6.1523-8.8867-3.3047-4.3008,6.0117-8.8398-3.1914-4.2969,6.1016-9.3242-3.4102c21.207,34.7852,59.418,58.0625,103.1406,58.0625.2539,0,.5039-.0156.7578-.0156s.5039.0156.7578.0156c43.7227,0,81.9336-23.2773,103.1406-58.0625l-9.3242,3.4102Z" fill="#dcb770" stroke-width="0"/><path d="M56.8594,173.9219c.375.5312.7852,1.0391,1.1719,1.5625-.4883-.6055-.9219-1.1523-1.1953-1.5312l.0234-.0312Z" fill="#dcb770" stroke-width="0"/><path d="M21.2656,187.5469l-.082-.0312c-.3398-.5781-.668-1.1523-.9844-1.7148.3359.5938.7188,1.1602,1.0664,1.7461Z" fill="#054f98" stroke-width="0"/><path d="M21.2656,187.5469c.207.3438.4219.6758.6289,1.0195l-.1055-.0391c-.2031-.3359-.4062-.668-.6055-1.0117l.082.0312Z" fill="#dcb770" stroke-width="0"/><path d="M30.9414,191.0859l4.293-6.1016,8.8438,3.1875,4.3008-6.0117,8.875,3.3008,4.0586-5.8359c.1641.1953.3281.3906.4961.582l-4.2695,6.1523-8.8828-3.3047-4.3008,6.0117-8.8438-3.1914-4.293,6.1016-9.3242-3.4102c-.207-.3438-.4219-.6758-.6289-1.0195l9.6758,3.5391Z" fill="#dcb770" stroke-width="0"/><path d="M24.1641,180.1484l4.9883-5.5312,8.668,3.9414,4.9922-5.4375,8.6992,4.0586,4.3047-4.832c.2031.2969.3867.6016.5898.8984.1562.2188.2969.4531.4531.6758l-.0195.0312c.2695.375.7031.9258,1.1914,1.5312,1.0508,1.4141,2.1484,2.7969,3.2812,4.1406l-4.0586,5.8359-8.875-3.3008-4.3008,6.0117-8.8438-3.1875-4.293,6.1016-9.6719-3.5391c-.3516-.5859-.7344-1.1523-1.0703-1.7461-.0469-.0781-.0938-.1484-.1367-.2266l-.0352-.0469c-.0547-.0977-.1055-.1914-.1562-.2891l-.0898-.1562c-.0859-.1523-.168-.3047-.2539-.457-.0977-.1719-.1836-.3477-.2773-.5195-1.4961-2.7148-2.8906-5.4883-4.1797-8.3242l9.0938,4.3672Z" fill="#054f98" stroke-width="0"/><path d="M65.2773,201.0898c.4805-.5273.9727-.6055,1.4766-.25l3.4375,2.8125c.6055.4922.6719,1.0312.1953,1.6094l-6.293,7.7031c-.918,1.1875-1.9258,1.2812-3.0195.2852-.0938-.0781-.2266-.2109-.3906-.3984-.2578-.2109-.5-.4336-.7266-.6719-.4375-.5078-.4453-.9219-.0234-1.2422.4297-.2617.8711-.1523,1.3281.3242.6719.8047,1.1406.9805,1.3984.5352l1.4258-1.7422-2.4375-1.9961c-1.5859,1.3594-3.6484,1.6055-6.1914.7539-.7422-.1992-1.0859-.5859-1.043-1.1641.1289-.6094.5312-.8125,1.2148-.6094,2.4844.8594,4.3984.4336,5.7422-1.2695.1562-.1289.3242-.2969.5-.5117.1484-.1836.3594-.4414.6328-.7812l2.7734-3.3867ZM60.1055,196.7852c.5078-.5508,1.0508-.5977,1.6211-.1328l2.6758,2.1914c.4805.4453.5156.9609.0977,1.5352l-5.207,6.3672c-.418.5781-.9922.5664-1.7266-.0312l-2.4844-2.0312c-.5703-.4688-.6328-.9805-.1836-1.5273l5.207-6.3711ZM58.0938,205.0039c.0625.0508.1172.0469.168-.0156l1.7617-2.1523-1.5312-1.2539-1.7188,2.1094c-.0781.0938-.0664.1758.0273.2539l1.293,1.0586ZM61.1562,201.5469l1.4258-1.7422c.0742-.0977.0664-.1797-.0312-.2578l-1.2891-1.0547c-.0625-.0508-.1523-.0469-.2539.0234l-1.4297,1.7422,1.5781,1.2891ZM66.3672,207.2578l-2.2422-1.8359c-.6289.7656-1.0312,1.2227-1.2109,1.3828l2.293,1.875,1.1602-1.4219ZM68.4766,204.7734c.0977-.1211.1016-.2188.0078-.2969l-2.0078-1.6406c-.0977-.0781-.1797-.0742-.2539.0195l-1.0117,1.2344,2.2891,1.875.9766-1.1914Z" fill="#054f98" stroke-width="0"/><path d="M78.5234,209.1641l.1484-.2578c.2109-.2891.5781-.3008,1.0977-.0469.4414.3008.5938.6133.4492.9414l-.1445.2578,3.5234,2.0391c.3906.2227.4844.5547.2852.9844-.2539.4453-.5742.582-.9492.4102l-3.6289-2.1016-.3281.5625,2.6172,1.5156c.7344.3789.8828.8945.4492,1.5586l-.8594,1.4883c-.2852.7461-.8398.832-1.6523.2734l-6.5156-3.7695c-.4648-.2695-.7109-.5-.7383-.6992-.082-.1836.0078-.4961.2617-.9453l.5-.8672c-.4492.2852-.918.5156-1.3984.6953l-3.7031,6.4062c-.2539.3555-.6016.4258-1.0508.2109-.4414-.3008-.5742-.6484-.3906-1.0469l2.7812-4.8164c-.2188.0547-.4375.0195-.6484-.1055-.3047-.2188-.418-.5117-.3438-.8789.082-.3203.3477-.5312.7891-.6406,1.0547-.2539,2.1406-.6992,3.2656-1.3242.2617-.125.4297-.207.5039-.2578.2422-.0898.4844-.0156.7266.2188.2109.2148.2578.4219.1406.625.2656-.3008.5781-.3477.9336-.1406l2.7812,1.6055.3281-.5625-3.418-1.9766c-.2891-.1641-.3477-.4727-.1797-.9219-.8242.4336-1.6836.8086-2.5703,1.1133-.5508.1367-.9531-.0313-1.207-.4961-.1875-.4258-.0117-.7617.5078-1.0039.1328-.0625.4102-.1758.8359-.3359.9688-.4414,1.7227-.8086,2.2656-1.0859.293-.1016.5781-.0508.8398.1445.4375.4805.3789.9062-.1641,1.2734.2188-.0547.4062-.043.5469.0391l3.3125,1.918ZM70.6094,215.4609c.3984-.3633.8086-.375,1.2344-.0391.3516.3867.3516.793,0,1.2305-.75.7969-1.4141,1.418-1.9961,1.8516-.4727.3242-.9375.3047-1.3945-.0547-.3672-.4375-.3281-.8281.1055-1.168.7891-.5469,1.4727-1.1523,2.0508-1.8203ZM80.4375,217.9297c.3359.2422.4062.5742.2031,1.0039-.2695.3906-.5938.5-.9688.3281l-3.6875-2.1328c.1445.4961.1328,1.1289-.0273,1.9023-.168.4492-.4766.6602-.9336.625-.4492-.125-.6641-.4102-.6445-.8555.0938-.4922.1328-.9297.1133-1.3008.0078-.5898.3086-.8242.9062-.707l-4.3828-2.5312c-.3711-.2617-.4375-.5977-.1992-1.0078.2695-.3906.6133-.4883,1.0234-.293l8.5977,4.9687ZM72.5508,216.1719c.2344-.3242.5898-.3672,1.0742-.1367.4062.2812.5273.6055.3672.9688l-1.0352,1.793c-.1719.2188-.1211.4102.1641.5742l1.6016.9258c.3359.2383.6445.1211.9219-.3555.3633-.3828.7344-.3711,1.1211.0312.293.4023.2656.8164-.082,1.2539-.4453.5195-.8516.8086-1.2188.8672-.332.0859-.8164-.0625-1.457-.4336l-1.7617-1.0156c-1.25-.6328-1.5547-1.4258-.9141-2.3711l1.2188-2.1016ZM74.1133,211.7422c-.0586.1016-.0195.1914.125.2773l.9062.5234.5039-.8711-.9062-.5234c-.1445-.082-.2539-.0547-.332.0781l-.2969.5156ZM76.4805,213.3164l1.1211.6445.5039-.8672-1.1211-.6484-.5039.8711ZM77.2773,219.4531c.1016-.4961.3906-.7109.8789-.6562.4844.1484.7461.4766.7812.9961-.0586,1.25-.2188,2.2695-.4922,3.0703-.1836.4805-.5117.6797-.9805.5898-.4688-.1758-.6562-.5117-.5625-1.0078.1172-.5234.2383-1.5234.375-2.9922ZM78.9375,214.7344l.9609.5586c.1055.0586.1914.0391.25-.0625l.2969-.5117c.0781-.1367.0625-.2383-.043-.2969l-.9609-.5586-.5039.8711Z" fill="#054f98" stroke-width="0"/><path d="M98.6055,228.0898c.4766.1367.6484.4336.5156.8867-.1016.5039-.4062.6641-.9062.4805l-8.3633-2.4102c-.4727-.1367-.6445-.4336-.5156-.8867.1367-.4531.4375-.6133.9102-.4805l8.3594,2.4102ZM98.3789,218.168c.4766.1367.6484.4336.5156.8867-.1289.457-.4336.6133-.9062.4805l-1.7188-.5c.0469.1406.0898.3555.1328.6562.0273.5-.1992.7656-.6797.793-.6055.0273-.9375-.2305-.9922-.7812-.0195-.375-.0586-.7539-.1211-1.1445l-.4141-.1172c-.2539.293-.7656.7266-1.5273,1.2852-.4609.2773-.875.2188-1.2305-.1719-.2852-.3672-.2188-.7422.1914-1.1133.7578-.5625,1.6172-1.3828,2.5703-2.4609.3672-.3906.7852-.4336,1.2578-.1367.3789.3164.3984.6914.0586,1.1289-.043.1523-.1133.2539-.2148.3047l3.0781.8906ZM101.9531,222.707c.7617.1797.9922.5742.6875,1.1875l-.9336,2.5586.5352.1562c.7617.1758,1.0234.6016.7891,1.2773-.2852.9844-.668,1.9414-1.1484,2.8711-.3906.9102-1.0977,1.2031-2.1094.8672-1.4648-.418-2.0898-.9258-1.875-1.5234.2109-.4297.5586-.5352,1.0547-.3086.543.1914.8945.293,1.0664.3047.1758-.0312.3594-.2227.5508-.582.2305-.5078.3984-.9336.4961-1.2734.0742-.2695-.0234-.4375-.3008-.5195l-8.4766-2.4375c-.5156-.1484-.6836-.4453-.5195-.8867l.8047-2.1094c.1836-.3594.5156-.4531.9766-.2773.543.1953.7148.4922.5156.8867l-.3711,1.0664c-.043.1523.0156.2461.1758.2969l6.1641,1.7695.7148-1.8242c.0664-.2305-.0156-.375-.2539-.4414l-7.8867-2.2695c-.4727-.1367-.6445-.4336-.5156-.8906.1328-.457.4336-.6133.9102-.4766l8.9492,2.5781ZM105.082,220.0977c.4727.1367.6445.4297.5117.8867-.1289.457-.4297.6133-.9062.4805l-1.6602-.4805c-.0117.0352-.0078.1016.0117.1914.0234.2109.0469.3555.0625.4453.0547.5508-.1758.8359-.6914.8477-.6211.0703-.9336-.1836-.9375-.7617-.0117-.4141-.0469-.8164-.1055-1.1992l-.6523-.1875c-.0508.0234-.1367.1016-.2578.2344-.2969.2813-.6133.5586-.9492.832-.3828.2969-.7969.2422-1.2344-.168-.25-.3242-.1875-.6914.1953-1.1172.8086-.5859,1.5156-1.3281,2.1133-2.2227.332-.3984.75-.4414,1.2617-.1328.3906.2773.4258.6602.1172,1.1445-.1016.0547-.168.1367-.1992.25l3.3203.957Z" fill="#054f98" stroke-width="0"/><path d="M116.918,225.6797c.2812.0352.4727.2031.5586.4883.043.3242-.0664.5469-.332.6758-.5391.3281-1.3555.7227-2.4453,1.1875-.1797.0938-.2422.2461-.1836.4531l4.7148.5859c.5234.1016.7773.4141.7539.9258-.1016.5078-.4219.7461-.957.7188l-4.1016-.5117c.1094.4492.1211.4961.043.125.0781.3711.0898.7852.0312,1.2578-.1211.9766-.4922,1.6289-1.1094,1.9492-.625.3203-1.6445.3711-3.0703.1523-.4844-.1016-.543-.1016-.1836-.0195-.3594-.0859-.8594-.2266-1.5-.4258-.4688-.2188-.6328-.5977-.4805-1.1328.2227-.4492.5703-.6055,1.0508-.4648.6836.2031,1.3477.3438,2,.4258.9375.1562,1.4336-.1992,1.5039-1.0664.0156-.1562-.0117-.4023-.0977-.7266-.0234-.1211-.0547-.2266-.0859-.3086l-6.7344-.8398c-.4453-.0938-.6562-.3984-.6328-.9102.1016-.5039.3828-.75.8359-.7344l5.7539.7188c-.0664-.1328-.0938-.25-.0742-.3711.0156-.1523.293-.3984.832-.7305.0977-.1055.1914-.1758.2773-.2031l-4.2891-.5352c-.4023-.0859-.5938-.3906-.5703-.9062.1016-.5.3633-.7461.7773-.7383l7.7148.9609ZM116.1602,223.2617c.8789-1.0859,1.4453-1.8125,1.6992-2.1758.3359-.3555.7695-.3633,1.3086-.0156.3672.3633.4062.7461.1055,1.1445-.0508.0742-.125.1602-.2188.2695-.3906.4688-.6797.8125-.875,1.0273l1.1641.1445c.7812.0586,1.082.4531.9102,1.1875-.1562.9336-.3477,1.6445-.5781,2.1328-.2109.3711-.5781.4844-1.1016.3398-.4727-.1797-.6445-.457-.5117-.8398.1562-.2578.2773-.5977.375-1.0273.0234-.1914-.0273-.3008-.1484-.3164l-9.7344-1.2109c-.2891-.0312-.4453.0859-.4805.3555l-.1367,1.1211c-.0977.4258-.3906.6289-.8867.6055-.5234-.1055-.7812-.375-.7656-.8125l.2305-1.8789c.1055-.8242.5625-1.1836,1.3789-1.0781l1.1641.1406c-.0742-.0859-.1797-.2422-.3164-.457-.25-.3477-.4414-.6289-.5781-.8477-.168-.3359-.0625-.6836.3125-1.0312.3633-.2344.6914-.2109.9883.0586.3633.4023.7539.9297,1.1719,1.5781.1641.3398.1484.6328-.0469.8906l2.6914.332c-.1133-.0898-.2344-.2656-.3672-.5234-.2383-.4258-.4336-.8867-.5742-1.3828-.1133-.4492.0547-.7656.4883-.9492.4766-.1836.8398-.0977,1.0898.25.3398.6016.5625,1.125.6719,1.5742.2188.5898.0664.9648-.4531,1.1406l2.0234.2539Z" fill="#054f98" stroke-width="0"/><path d="M134.6406,221.0547c.8203-.0898,1.2422.1641,1.2656.7539l.3086,2.7656c.082.7461-.2656,1.1406-1.0508,1.1914l-2.6953.2969c-.125.0156-.1797.0586-.1719.1406l.0195,1.3047c.0898.0312.1484.043.1914.0391l2.5742-.2852c.8594-.0938,1.3555.2656,1.4883,1.082.3398,2.3086.3789,3.793.125,4.457-.2031.7734-.8594,1.207-1.9688,1.2891-1.3008.2227-2.2695.2344-2.9141.0273-.3906-.1562-.5508-.4727-.4766-.9609.0781-.4062.3398-.6289.7891-.6797.2461-.0312.5391-.0195.875.0195.375.0391.707.043.9922.0117.7461-.0039,1.0781-.3594,1-1.0664-.0156-.4766-.0742-1.2031-.1836-2.1836.0312-.1211-.0586-.168-.2617-.1484l-3.0078.332c-.6445.1523-.9688-.1484-.9688-.9023,0-.3594-.0039-1.5273-.0156-3.5117.0781-.3672.3281-.5742.7344-.6211l2.7578-.3086c.207-.0195.2969-.125.2773-.3242l-.0586-.5312c-.0273-.2344-.1445-.3438-.3438-.3164l-3.5586.3906c-.457.0117-.7344-.2539-.832-.7969-.0234-.5547.1914-.875.6367-.9688l4.4727-.4961ZM138.2148,221.375c.1016-.5664.4648-.8672,1.082-.8984.6328.0898.918.4336.8594,1.0352l-1.25,9.9727,3.8047-.9648c-.0586-.1484-.0859-.2031-.082-.168-.5391-1.4844-1.0742-2.7578-1.6016-3.8125-.1641-.375.0039-.6953.5156-.9492.5586-.1797.9414-.0859,1.1484.2891,1.0391,2.2656,1.8906,4.3359,2.5508,6.2109.1289.3789-.0469.6953-.5156.9453-.5547.2227-.9336.168-1.1328-.168-.0195-.1562-.1133-.4453-.2852-.8633l-4.7656,1.2461c-1.0625.1172-1.5742-.4023-1.5391-1.5586l1.2109-10.3164Z" fill="#054f98" stroke-width="0"/><path d="M147.2852,219.3789c-.3672-.5547-.2617-.9531.3164-1.1914.5508-.3164.9141-.3164,1.0859.0039.0234.082.0859.168.2031.2539.1367.207.2188.3516.2383.4219l1.9648-.5352c.4102-.0703.6953.1172.8594.5625.0977.5078-.0508.832-.4336.9805l-.9531.2578c.6055.0391.7969.4375.582,1.1953l.7734-.2148c.2383-.0625.4258.0039.5664.2148.0938-.7617.043-1.6328-.1328-2.6055-.1797-.8086.1055-1.3203.8594-1.5234l2.5586-.7031c.7422-.2422,1.1992.0195,1.3672.793l.5195,1.8828c0,.3281.3516.3516,1.0469.082.3633-.0586.6094.1367.7383.5977.0625.3867-.0938.6797-.4688.8633-.2266.1016-.6758.2461-1.3516.4336-.7852.2539-1.2461.0352-1.3984-.6641l-.5312-1.9375c-.0625-.2305-.2109-.3125-.4492-.2461l-.7734.2109c-.332.0508-.4336.2188-.3086.5156.1406.9844.1602,1.8359.0625,2.5586-.0586.7148-.3438,1.0742-.8555,1.0937-.4141.0313-.668-.0195-.7461-.1641-.0703.0586-.1641.1094-.2812.1406l-1.7852.4922c-.1367.2773-.3555.5664-.6602.8516.6406.4805,1.0273.8008,1.1602.9688.168-.168.3867-.5312.6562-1.0977.2539-.4766.5703-.6445.9531-.5078.0469.0312.1211.0703.2188.125l.0781.0391c.0352-.3359.2891-.5664.7656-.6992l4.2266-1.1602c1.2188-.3711,1.8008-.0391,1.7422.9922-.0156,1.1992-.3359,2.5938-.9648,4.1953.8008.2734,1.6211.457,2.4609.5586.457.1211.6406.4766.5469,1.0742-.1914.3789-.5234.5742-.9922.5781-.9453-.0273-1.9688-.2539-3.0664-.6914-.6367.7852-1.4492,1.5586-2.4336,2.3242-.5312.3906-1,.3945-1.4023.0156-.3633-.3945-.3047-.8008.1797-1.2148,1.0312-.7344,1.7461-1.3984,2.1367-1.9961-.5-.2734-1.1914-.7617-2.0664-1.4648-.4805-.5195-.5117-1.0195-.0898-1.5078l-.2383.0664c-.25.0273-.4453-.0664-.5859-.2695-.0312.0508-.0625.0977-.0859.1445-.2422.6836-.5391,1.2344-.8906,1.6602,1.0781.5234,1.8203.8906,2.2227,1.1094.4609.2812.5781.6328.3555,1.0664-.2695.4023-.6523.5078-1.1289.3086-.3398-.1523-.6641-.3086-.9609-.4766.1562.5742.2461,1.0625.2695,1.4648.1641,1.0586-.4375,1.7539-1.793,2.0859-.2422.0664-.5625.1328-.9688.207-.4727.0039-.7305-.25-.7852-.7734.0156-.4102.2695-.6445.7695-.6992.9609-.2227,1.3164-.7109,1.0703-1.457-.0859-.3047-.1484-.5352-.1914-.6875-.9141,1.3164-1.7695,2.2656-2.5469,2.8438-.3438.3047-.6953.3398-1.0547.1094-.3438-.3125-.3711-.6562-.0898-1.0195,1.207-1.1875,2.1562-2.3281,2.8359-3.418-.0078-.0352-.0547-.125-.1367-.2656.0586.0625.0312.0312-.0898-.0977-.3984.5586-1.082,1.3398-2.043,2.3398-.375.3438-.75.3867-1.1172.1211-.3438-.3164-.332-.668.0273-1.0508.8477-.8047,1.5977-1.6406,2.2539-2.5234l-.1992-.25c-.4609.4922-1.0234,1.0156-1.6797,1.5664-.4062.2344-.7539.207-1.0469-.0781-.3047-.3281-.3008-.6367.0039-.9258.1055-.0703.2422-.1914.4102-.3594.7891-.707,1.2773-1.1875,1.4609-1.4453l-1.8477.5078c-.3633.0586-.6367-.1563-.8125-.6367-.0859-.4688.0469-.7695.3945-.9062l1.25-.3438c-.6172-.5273-.7695-.9336-.4609-1.2227l-.8984.2461c-.3672.0586-.6406-.1523-.8125-.6328-.0859-.4727.043-.7734.3906-.9102l2.0273-.5508ZM149.5391,221.7656c.0703-.8359.1914-1.3203.3672-1.4492l-2.4336.668c.375-.0234.7891.3164,1.2344,1.0117l.832-.2305ZM154.6641,224.3477c.2266.0664.5195.2695.8711.6211-.0195-.0703.0312-.0469.1523.0859.1602.1172.2148.1641.168.1367.4883.3984.9062.6758,1.2461.8242.2578-.6016.4492-1.3125.5703-2.1211-.0039-.1602-.0117-.2617-.0195-.3008-.0508-.0273-.1328-.0234-.25.0078l-2.7383.7461Z" fill="#054f98" stroke-width="0"/><path d="M168.7227,213.5625l-.9258-1.6523c-.1719-.3984-.0391-.7461.4062-1.043.4844-.2266.8555-.1641,1.1016.1992l.9297,1.6523.9102-.5156c.4531-.2031.8125-.1133,1.0781.2812.2148.4648.1367.832-.2422,1.082l-.9688.543.8672,1.5547c.0703-.1367.1836-.3086.3398-.5312-.0898.0898-.0703.0391.0508-.1641.207-.4766.582-.6016,1.1406-.3672.4961.2188.6289.6172.3906,1.207-.1328.4336-.4258,1.0039-.8789,1.707l1.9688,3.5156c.7109,1.1836.4805,1.9922-.6914,2.4219-1.4062.6094-2.168.5117-2.2812-.2812-.0664-.4609.125-.7461.5781-.8672.7227-.1328,1-.3125.832-.5312l-1.5078-2.6875c-.125.2031-.3047.4219-.5547.6523-.332.5039-.7383.5703-1.2266.2109-.375-.332-.4492-.7188-.2266-1.1641.1211-.2031.3633-.5625.7344-1.0898.1367-.168.2383-.2891.2891-.3633l-1.3281-2.375-1.0781.6016c-.3789.168-.7109.0352-.9961-.3906-.1992-.4336-.1289-.7695.2148-1.0078l1.0742-.5977ZM178.2734,206.2383c.4492-.2031.8203-.0898,1.1055.332.2305.5039.1641.8828-.2148,1.1406l-3.7148,2.082c.2305.9102.3867,1.8203.4688,2.7227l3.2266-1.8125c.8438-.5156,1.4766-.3477,1.9063.4961l2.7773,4.957c.5938.8906.3672,1.582-.6758,2.0781l-3.9805,2.2305c-.8945.5898-1.5586.4219-1.9844-.5156l-1.4805-2.6367c-.0625.3086-.1406.625-.2422.9531-.1836.5117-.5547.7422-1.1016.6836-.5117-.1602-.707-.5078-.5781-1.0312.7656-2.418.7578-4.8359-.0273-7.2461l-1.7773.9961c-.4492.207-.8203.0938-1.1055-.3281-.2109-.4688-.1133-.8438.2969-1.1172l7.1016-3.9844ZM179.9258,212.8477c-.1758-.3945-.4375-.4766-.7734-.2422l-2.5859,1.4453c-.3203.1797-.375.4648-.1641.8438l1.9961,3.5586c.1562.3672.4062.4297.7461.1914l2.582-1.4453c.3789-.1641.4531-.4102.2227-.7383l-2.0234-3.6133Z" fill="#054f98" stroke-width="0"/><path d="M183.6289,202.7773l1.4492-1.1523c.375-.25.7266-.2031,1.0547.1406.3477.4336.3672.7891.0703,1.0781l-.2891.2305c.0664.1484.2109.4609.4336.9414.1328.3008.2344.5234.3008.6719l.625-.4961c.4102-.2812.7891-.2031,1.1328.2305.2617.3984.1953.7773-.1953,1.1406l-1.6953,1.3438.4062.5078,1.7891-1.418c.3477-.2266.6836-.1641,1.0117.1797.2852.4258.2812.7852-.0195,1.0703l-1.7852,1.4219,2.3594,2.9648c1.0898,1.3008.5547,2.3555-1.5898,3.1523-.5078.1523-.8672-.0664-1.0742-.6562-.1562.5273-.4805.7852-.9648.7695-.3984-.0391-.6055-.3281-.6172-.8711.0273-.8281-.0547-1.5977-.2461-2.3008-.0781-.4883.1367-.8125.6445-.9688.4922-.0391.8242.1797.9922.6523.2227.8789.3242,1.6328.2969,2.2578.0781-.1641.2383-.293.4805-.3828.6406-.2578.8828-.4766.7383-.6641l-2.2891-2.875-1.8359,1.4648c-.3438.2227-.6914.1484-1.043-.2266-.2891-.4258-.2812-.7852.0117-1.0742l1.8398-1.457-.4062-.5117-1.8359,1.4609c-.3438.2266-.6914.1523-1.0469-.2266-.2852-.4258-.2812-.7852.0195-1.0703l.9609-.7695c-.5781-.3906-1.0508-.7266-1.418-.9883l-.2891.2266c-.3789.2539-.7266.1797-1.0469-.2227-.2852-.4258-.2695-.793.0625-1.1094l1.6445-1.3047c-.0273-.0312-.0742-.0938-.1484-.1875-.082-.0352-.1367-.0664-.1562-.0977-.3359-.2891-.3203-.6602.0586-1.1133.3945-.3594.7852-.3984,1.1758-.1016l.4336.3398ZM185.293,205.7617c-.1562-.3281-.3984-.8633-.7305-1.6133l-1.3516,1.0742c.2344.168.5508.3984.9414.6914.2031.1914.3555.3203.4648.3867l.6758-.5391ZM189.2617,202.2266l3.0898-2.457c.3789-.25.7461-.1875,1.0977.1875.3086.4609.3008.8477-.0312,1.1602l-.7227.5742,4.3867,5.5117c.2852.4297.2344.8242-.1602,1.1875-.4531.3555-.8555.3477-1.2031-.0273l-4.4219-5.5625-.9688.7695.957,1.207c1.5664,2.0312,2.2812,3.8867,2.1406,5.5586-.0664.7109-.4023,1.0508-1,1.0234-.5625-.1094-.8359-.5195-.8242-1.2344-.0898.0234-.2812.0469-.5703.0781-.1406-.043-.3516-.0742-.6367-.1055-.332-.0859-.5234-.1328-.582-.1367-.5312-.1328-.7969-.4023-.7969-.8047.0664-.5078.3633-.7695.8789-.7773.1992.0469.4336.0859.7188.1133.3672.0625.6328.0977.8047.1172-.2344-.8242-.7695-1.7617-1.6055-2.8125l-3.0977-3.8906c-.3672-.4648-.5156-.8477-.4453-1.1523.0703-.3125.3945-.6992.9766-1.1562.2578-.207.8516-.8086,1.7969-1.8086.4922-.4961.7773-.7695.8438-.8203.3438-.2266.6914-.1484,1.043.2266.2617.3945.2539.7773-.0273,1.1523-.6875.8516-1.5,1.6484-2.4336,2.3945-.1016.1328-.125.2734-.0547.418l.8477,1.0664Z" fill="#054f98" stroke-width="0"/><path d="M58.9883,172.043c2.7617,3.9688,5.8711,7.6758,9.2773,11.0859,14.7227,14.7227,35.0625,23.832,57.5273,23.832s42.8008-9.1094,57.5273-23.832c3.4023-3.4102,6.5117-7.1172,9.2734-11.0859-10.5-2.793-21.2578-4.9414-32.2461-6.4062-11.2891-1.5117-22.8242-2.2891-34.5547-2.2891s-23.2656.7773-34.5586,2.2891c-10.9805,1.4648-21.7461,3.6133-32.2461,6.4062" fill="#054f98" fill-rule="evenodd" stroke-width="0"/><path d="M125.793,41.2305c-46.707,0-84.5625,37.8594-84.5625,84.5625s37.8555,84.5664,84.5625,84.5664,84.5625-37.8594,84.5625-84.5664-37.8633-84.5625-84.5625-84.5625ZM125.793,206.8828h-.0508c-44.7812,0-81.0898-36.3008-81.0898-81.0898S80.9609,44.707,125.7422,44.707h.0508c44.7852,0,81.0898,36.3047,81.0898,81.0859s-36.3047,81.0898-81.0898,81.0898Z" fill="#dcb770" stroke-width="0"/><path d="M59.9766,40.4766s1.8867-1.0898,3.4297-.2773c.7734.4805.8672,1.793.2773,2.3945-.5195.3203-1.4414.0039-2.2188.1641l-.332-.2734s-1.7852.2188-1.9609-.7148c-.0039,0-.2109-.5938.8047-1.293M57.2109,32.4883c-1.8633,3.6406-2.1172,4.7461-2.1172,4.7461-.4609,2.5156,2.5938,8.0977,2.5938,8.0977,2.875,6.0938,5.5391,6.1133,5.5391,6.1133,1.4492.1445.4805.6602.4805.6602-1.9961.9141.1055,2.1836.1055,2.1836.2031.5938-.0117,1.207-.0117,1.207-.2695.7266-.7148-.1211-.7148-.1211-.7031-1.4023-1.3594-1.8047-1.3594-1.8047-1.6992-.0742-1.0625,3.4609-1.0625,3.4609.082,3.6172,3.7344,2.0234,3.7344,2.0234,3.125-1.9336,3.6055-3.8164,3.6055-3.8164.1016-.8672,1.6094-.4492,1.6094-.4492,1.8672-.3516,1.3672-1.5586,1.3672-1.5586-.082-1.5547-1.0586-2.875-1.0586-2.875-.9609-2.0156-2.0625-1.0391-2.0625-1.0391-1.7227,1.0625-.4453,2.9414-.4453,2.9414-.3867.8008-.8906.5156-.8906.5156-.4219-.3008-1.1484-.5781-1.1484-.5781-1.0742-.6914.1445-.8047.1445-.8047.8711-.1367.6562-.4844.6758-.9727.0742-1.1797,1.4922-2.7734,1.4922-2.7734l.1055-.1758c.9961-.9961,1.8242-2.5352,1.8242-2.5352.6719-.8047,1.3125-.8906,1.3125-.8906,1.4336-1.4492,3.3945-.5742,3.3945-.5742,2.125.4531,1.082,5.2617,1.082,5.2617.0859,1.9531-2.1875,2.5508-2.1875,2.5508-.7617.4258-1.4062-.1719-1.5195.1367-.6055,1.6562.3047,2.4727.3047,2.4727,1.7383,1.6523,4.6953-.9883,4.6953-.9883,1.7617-1.1719,1.5547-5.5273,1.5547-5.5273.4375-3.3164-1.6016-4.9375-1.6016-4.9375-3.2969-2.6133-7.4805,1.2461-7.4805,1.2461-.5234.9688-.5742-.2812-.5742-.2812.1875-.5977,0-1.6797,0-1.6797.0195-1.5352-.7188-2.6016-.7188-2.6016-.2656-.5586-3.4961-5.5351-3.4961-5.5351-.9844-1.3516-2.3125-.1914-2.3125-.1914-2.8008,2.2109-2.9023,4.207-2.9023,4.207-.043,1.8438,1.3828,1.3945,1.3828,1.3945.8867-.3867,1.2383-2.207,1.2383-2.207,1.1289-1.4141,1.6172-.1133,1.6172-.1133.9688,1.3203,1.918,2.9805,1.918,2.9805,1.3867,3.5508.418,3.668.418,3.668-.2148,1.332-1.6016.5078-1.6016.5078-.7578-.9609-1.2305-.0391-1.2305-.0391-.1016.7305,1.0273,1.2695,1.6641,1.5234.5898-.207,1.2656.1094,1.2656.1094,1.1523.5742.2266,1.1445.2266,1.1445l-1.0156.707c-.9297,1.3359-1.7773.6133-1.7773.6133-3.8711-3.293-5.9297-8.832-5.9297-8.832-.5156-1.0391,1.3789-3.3438,1.3789-3.3438,1.5625-1.7656,1.9648-3.0469,1.9648-3.0469.6289-2.1016-1.4062-2.332-1.4062-2.332-1.2617-.0547-2.0703,2.1523-2.0703,2.1523" fill="#dcb770" stroke-width="0"/><path d="M96.2266,12.6055s1.1367-1.082,2.5625.0742c.457.6836,1.5977,1.3359.5742,2.7383,0,0-1.0352.8555-1.6836,1.1602,0,0-.8477.6953-.0117.7656,0,0,.4453.2031.8555,1.0352.3203.7109.7578.8477,1.2031,1.0547.4492.2031.918,1.8555.4062,2.5586-.4414.6914-.7812,1.5742-.5859,3.2695,0,0-.4297.7578.3242.7109,0,0,1.2695.2031.7891,1.9414-.1953.4688-.3633.4922-.1602,1.3516.0469.625-.0977,2.6914.4648,4.4648.1992.7969-.0938,2.0195-2.0938,2.0547-1.3164-.0625-2.4453-1.0195-2.7344-3.2539-.8438.3398-2.1953.4531-2.8867.0078-.457-.2695-1.457-1.3516-.5273-2.8867.8477-1.168.9531-1.3906,1.1094-1.6914,0,0,.1641-.7149-.6758-.3711,0,0-1.6172.4062-2.2227.1758,0,0-1.1406-.4727-2.1094-.9453-.5391-.3242-1.5117-1.6875-.5-2.6758,0,0,1.4453-1.3125,2.1094-1.5078,0,0,1.082-.3438,2.2656-1.3945.5859-.6484.9961-.6445,1.5586-1.0117,0,0,.7344-.1836.8242-1.3711,0,0,.2656-.9414.957-1.3242,0,0,.4023-.5508-.2539-.3047,0,0-.2578.5195-.9023.418,0,0-.6914-.4297-1.4414.0234,0,0-.9375-.2695-.2188-.9336,0,0,1.1953-.3281,1.457-1.2617,0,0-.1289-1.707,1.5469-2.8711M102.2578,16.6836c-1.0273,1.3359-.4609,1.8711,1.3164,3.1055,1.7891,1.2305,2.8945.3711,2.8945.3711.6211-.4453.6602.2383.6602.2383l.4297,2.2773c.0781,1.3633-.5977,1.8867-.5977,1.8867-.582.2344-1.2461.8242-1.2461.8242-.8516,1.168-2.6523,1.1094-2.6523,1.1094-1.0234-.3203-1.2734.6875-1.2734.6875-.5586,1.2578.8203,1.25.8203,1.25,2.8555-.25,4.2539-1.4414,4.2539-1.4414,1.0469-.7852,1.3984.5391,1.3984.5391l1.2578,8.7734c-.1875.9961-.1836,1.8945-.1836,1.8945,1.2578,2.2852,2.8672,1.543,2.8672,1.543,1.418-.2227,1.0039-1.9492,1.0039-1.9492l-1.957-12.3242c.0664-.4258.2812-1.0586.9805-1.1914.9414-.1758,1.2695-.6797,1.2695-.6797.9023-.6875.3516-1.7109.3516-1.7109-.332-1.6797-2.0234-.9844-2.0234-.9844-.8125.543-1.0859.0938-1.0859.0938-.1875-.3164-1.2383-6.5-1.2383-6.5.2188-.5586.0234-1.1758.0234-1.1758-.0586-.3359-.8477-.9727-1.8086-.4727-.9531.4961-.3398,2.6094-.3398,2.6094-.1172.5703-.3164,1.5-.3164,1.5.1094.6719-.4961.3516-.4961.3516-.1562-.5273-1.2461-.9102-1.2461-.9102-2.4023-.7812-3.0625.2852-3.0625.2852M101.8906,22.1914c-.0352.2148-.1719.5273.418.9023.7812.5625.7539,1.2578.7539,1.2578l.8047.2891c1.7305.0039,2.1992-.4844,2.3086-1.5352-.0703-.8711-2.8828-2.0977-2.8828-2.0977-.9492-.7461-1.4023,1.1836-1.4023,1.1836" fill="#dcb770" stroke-width="0"/><path d="M146.4727,24.2852c-.2969-.2617-1.0039-.5977-.7461-1.2422.25-.6484,1.0977-.6797,1.4531-1.1914,1.3047-1.9961.5586-1.9141-.0469-2.4375-.8945-.7812.4961-1.9844.8984-3.0898.2969-.9062.2188-1.9727-1.4141-2.2656-1.6719-.3516-2.8242,3.5117-3.4219,4.9336-.6016,1.4141-1.2227,1.4414-2.7969,1.7148-1.8281.1523-3.1953.8164-3.1953.8164-1.6367,1.0234.082,2.6484.082,2.6484.8867.8438,3.1914.3594,3.9336.0742,1.1445-.5625.8242.4258.6133,1.2188-.9492.6602-1.6719,1.2227-3.668,3.0859-1.9922,1.8594-.9609,3.8086-.5391,4.918.4219,1.1133,1.2617,2.0898,2.4766,2.6562,2.0859.7148,2.5625.0898,2.9609-.9453.6328-1.6211,1.7773-7.5156,1.957-8.1797.1836-.6562-.0273-.625,1.2227-1.0234,1.2461-.4023.5352-1.4297.2305-1.6914M159.5312,37.3242c.0703.3203-.3359.9922-.3359.9922,0,0-.9766,1.6172-3.0039.9961,0,0-.9961-.25-3.6055-2.7148l-.8828-.8555-.6484.3281s-.4961.332-1.2539.6445c-.875.4023-3.5391.2969-4.1289-.1797-.582-.5898-1.4023-1.4258-.0977-1.75,0,0,1.8789.082,2.7852-.4727.9336-.5781,1.2148-.4258,1.5664-1.0391,0,0-1.1758-1.1719-1.3555-1.6914-.3828-.5703-.8516-1.4688-.8516-1.4688,0,0-1.1562-1.25-.2266-2.1914,0,0,.4844-.3984,1.8203-.5039,1.332-.1094,1.6875-.5312,1.8672-.7734l.1562-.875s-3.4844-.4023-3.2344-2.3438c0,0,.0625-1.2266,1.5469-1.25,1.418-.0195,2.0859.1992,3.0234-.8047l.7031-3.957s.3203-1.6758,2.0391-1.3047c0,0,2.4648.3359,1.5352,1.8711l-1.0938,2.2266s-.6406.9258.6758.8828c0,0,1.9727.2109,1.3164,2.3125,0,0-.2227.8555-.7344,1.0469,0,0-.6328.1797-1.1094.2227,0,0-.7969.125-1.3594.0312,0,0-.7383,1.8047.9609,1.9688.9609.1133,1.2891.918.9219,1.8281-.3711.8984-1.4492,2.8555-2.4844,3.8477,0,0-1.0039,1,.4766,1.8711,0,0,1.875,1.5625,2.7734,1.9844.4102.2812.6367.3555.6367.3555,0,0,.5898.0938.8828.2344-.0039.0039.6758.332.7188.5312M152.7188,30.8945c.4492-.4414.5781-1.375.5781-1.375-.1562-1.0703-2.1992.1875-2.1992.1875l-.082.5156c-.0781.7695.8906,1.2617.8906,1.2617l.4336-.0508.3789-.5391ZM140.9961,32.1016l-.2969,1.2617s-.2109.5469-.8047-.1445c-.1289-.1602-.9922-1.5781-.6758-2.4062.4453-.957.8906-1.2188,1.3633-1.8359,0,0,.9883-1.0703.9531-.2852,0-.0039.0625,1.6211-.5391,3.4102" fill="#dcb770" stroke-width="0"/><path d="M185.2734,42.5508s-2.4531-3.4297-.3594-3.582c0,0,.8398.1992,2.3164,1.1836,1.4727.9844,2.957,1.8203,3.9297.8906.9688-.9219,3.2227-2.8984,3.6797-4.3008.3828-.8828,1.4297-1.6797,2.293-.3477.5117.8711.043,2.668-1.1641,4.2461-.6289.8945-2.6172,1.9102-1.6133,2.3633,0,0,1.0273.2266,2.0547-.0586.8633-.1055,1.875.957,2.0273,2.0078s.1523,2.0703-.7578,2.0625c0,0-3.2031-.1719-4.8086-1.0781-.5547-.2656-1.2656-.3281-1.2539.7461,0,0-.8359,4.7305.5312,8.25.5547,1.7031,2.6211,4.0469,1.5586,5.6758-.6719.9492-1.8203,1.5859-3.4961.0898-1.1992-1.0547-2.7148-4.707-2.3789-9.9375-.0195-1.1367.2383-2.3359-.4258-1.7812-.6602.5508-3.6016,1.9492-5.7266,1.7656-1.2109-.1094-3.1406.0938-4.2656-1.2617-.5742-.7578.1562-2.7109,1.2109-2.6211,1.0078.0352,3.7773.4023,5.1914-.25,0,0,2.4141-1.3203,3.2578-1.918,0,0,.8555-.6211-.3906-1.0273,0,0-1.168-.7266-1.4102-1.1172" fill="#dcb770" stroke-width="0"/><path d="M227.3633,78.5078l-.5703-.6836c-.0469-.1914-.2617-.7812-.2617-.7812-.4102-.9297.4492-.5234.4492-.5234.9531.4102,1.875.0938,1.875.0938,2.2852-.668,2.2578-3.5625,2.2578-3.5625-.3867-2.1758-1.5352-1.8672-1.5352-1.8672-.5586.2422-.7812,1.8867-.7812,1.8867-.4102,1.1367-2.6211,1.4141-2.6211,1.4141l-.5586.418s-.3516-.3516-.6016-.4805c-.25-.1328-.7852-.1836-.7852-.1836-.4688-.3008-.1406-.4727-.1406-.4727.6523.0898,1.4883-1.2773,1.4883-1.2773.3281-.9141,1.9375-2.5078,1.9375-2.5078-.5664-.2109-1.4883-1.0625-1.4883-1.0625-.3164-.5742-.7695-.9219-.7695-.9219-1-.5547-1.6133.6875-1.6133.6875l-.7305-.75s-1.1602-.6406-.8984-1.1484c.5898-.9727.0234-1.5664.0234-1.5664-1.5977-1.582-3.5977,1.168-3.5977,1.168-.4961.6602-1.0586,2.0508-1.0391,3.3516-.0156,1.1211-.9766.4609-.9766.4609-1.7695-.5781-5.0078-.5078-6.75-.1641s-2.3242,2.5-1.5273,3.5273c.793,1.0391,2.1172.0547,2.1172.0547,1.2812-1.2266,3.2695-1.6055,3.2695-1.6055,1.9609-.375,5.2617,1.6641,5.2617,1.6641,1.6602,1.3438,2.3242,1.5508,3.418,2.207,2.3828,1.3086,2.4805,3.2852,2.4805,3.2852,0,2.1719-1.5117.8789-1.5117.8789-.7695-.207-.8203,1.0039-.8203,1.0039.2773,1.1328,2.0273,2.7422,2.0273,2.7422,1.4141.8711,2.3828.0898,2.3828.0898,1.7383-1.9453.5898-5.375.5898-5.375M213.5547,74.4414s.2773-1.2539,1.4648-1.1836c.6523.1211,1.1836.4062,1.8008.707.8359.3828,2.3789.6133,4.0469,2.0703,1.793,1.6875,1.1797,3.1172.3477,3.6328-.832.5078-1.5586.1914-2.4688.3711-.7266.1445-1.332.0195-.5977,1.043.8711,1.2305,1.7773,2.5938,1.0664,3.2031-.7812.6641-1.6602,1.5859-2.3711.6719,0,0-.3906-1.1836-.9922-.7422,0,0-4.4805,3.9336-5.5,4.1484-1.0156.2188-2.4688.5-4.043-1.0117-1.0898-1.0352-.5078-4.293-.4844-5.2578,0,0,.4414-2.2031,2.4961-1.6289,0,0,.4102.3789-.457,1.0039,0,0,.1562,1.5469-.0469,2.1211,0,0-.1328,1.4492.8203,1.7539,0,0,1.3594.6055,3.4102-1.0273,0,0,2.0078-1.2305,1.1445-1.8047-1.1016-.8867-2.6719-1.25-3.9023-3.1562-.6953-1.2188-.4414-2.8789,1.0039-2.6523,1.4375.2266.7578.5039,1.4766.8555l2.5898,1.3281s1.5859-.6992,2.3164-.8281c.7227-.125.5156-.5469.0117-.5742,0,0-2.3555-.3008-2.9492-1.5195l-.1836-1.5234ZM221.9531,72.7383s-1.4375-.3203-1.9062-.7188c0,0-.5352-.2344.1602-.5312l1.082-1.0352s.0352-1.3398,1.8086-1.0625c0,0,.0234.7344-.3672,1.2969l-.293,1.332s.3359,1.0742-.4844.7188" fill="#dcb770" stroke-width="0"/><path d="M25.5859,66.8164s-1-.8359.0469-2.1836c.9805-1.2266,2.3711-1.6758,3.1758-1.1328.8125.5469.9922,1.0039,1.4648.4414s1.832-.8203,2.6172.0117c.7305.7891,1.0625,1.8555.5781,2.8906-.2188.4727-.1289.7266.6016.5938.6484-.1484,1.4531-.957,2.5156.0195,0,0,.7461.6719.4961,1.8555,0,0-.5352.9961.2148.625,0,0,.4219-.0859.7773-.6641.3516-.5742,1.3164-1.5117,2.0586-1.6719.7422-.1641,1.4453-1.1484,2.1523.1445.207.4805.375,1.0586-.3867,1.8125-.4844.207-.5898.3398-.8398.7852-.2109.2539-1.1016.3828-1.6445,1.2383-.0977.2695-.2109.6562.4883.5.6836-.1289,1.7891-.2461,4.707,2.207,2.8477,2.4375,7.4688,5.0938,6.8164,7.0781-.3594.8359-1.9922,2.832-4.4141.9258,0,0,.8438-.6914.1836-1.1992-.6641-.5156-5.9219-5.8516-7.2891-6.5625,0,0-.4297-.0117-.8164.707-.1367.3242-1.0469-.0039-.7969-.4023.25-.4024-.4961-.5469-1.082,1.2305-.2617.5234-1.1367,2.4961-.2695,3.3945.332.2851.5156-.043.6797-.3438.1641-.293,1.9141-2.5391,3.0352-2.2539.8008.2344,1.6719.9688.6172,2.75-.1016.6953-.2383,1.1094.7344.5273.5195-.3047,1.4492-1.0508,2.4336-.4492l.3867.418s-.1992.6602-.1094.9609c0,0-.2656.4727-.4219.25,0,0-.543.8555-.8594,1.0234,0,0-1.668-.0469-1,.8203l3.2227,2.6719s.2773.7109-.1328,1.5078c-.3984.3164-1.7227,1.4766-2.918.2969-.8633-.9453-2.4375-2.9219-3.5469-3.9883-1.1211-1.0703-2.2383-1.918-2.3594-2.5039-.1289-.4141-.7695-.6914-1.0234.2812-.082.4102-.5703.4766-.1367.8438,0,0-.2773.6406-.8086,1.3711-.5273.7383-.7812,1.3945-1.7383,1.8672,0,0-1.2852.7461-1.6133-.8359,0,0,1.1992-5.0195,2.6328-7.9727,0,0,.2656-.4727-.25-.6875,0,0-.4102-.0859-.4961.5898,0,0-1.6758,1.1641-2.8633.9141,0,0-1.6055-.4766-.7852-2.1875.832-1.7148,1.168-1.8594.3789-1.9102,0,0-3.6992,1.6953-4.6172.6602,0,0-.7578-.8125.8398-2.3945,1.0156-1.1133,1.8008-2.6836.7539-3.2969l-1.0547-.9375-.3359-.6367Z" fill="#dcb770" stroke-width="0"/><path d="M152.3945,97.7383c-1.0312,0-2.0625-.0117-2.8477.0742-1.1016.1211-2.3711.4805-3.4414,1.0859-1.3398.7578-2.3438,1.6523-3.3555,3.1172-1.8438,2.6836-2.0898,6.6445-.3789,9.6484,1.5742,2.7617,2.3672,3.9297,3.6875,6.0977,1.0312,1.7227,1.9648,3.1484,2.5781,4.3711.3281.6641.3008,1.5859-.0703,2.1953-.4922.7969-1.0898,1.168-2.3203,1.207-1.9102.0625-5.4023-.1406-6.0938-.207v7.2383c1.0703.043,6.2578.0547,8.5625.0703,3.6992.0195,6.207-.832,8.082-3.0078,1.625-1.8828,1.9531-4.168,1.7578-5.9883-.2148-2.0742-1.6484-4.1211-2.9219-6.1992-1.7305-2.8203-3.5-5.7578-4.7109-7.7617-.7695-1.2695-.5312-2.2812-.207-2.9336.4609-.832,1.2188-1.5078,2.625-1.5078h11.3867v27.5469h8.3242v-27.5508h6.9609v-7.4961c-.9336-.0156-16.0938,0-27.6172,0" fill="#004da0" stroke-width="0"/><path d="M130.3945,51.7969v70.3984c0,1.3242-.6094,2.3516-1.2148,2.9336-.6602.6367-1.4961,1.1875-2.8672,1.1875-1.457,0-2.1953-.6133-2.8555-1.1641-.7344-.6172-1.2422-1.9102-1.2422-2.8594V51.7969h-8.125s-.0625,25.9453-.0742,46.7734c2.9727,3.7461,4.7539,8.4805,4.7539,13.6289,0,4.9375-1.6328,9.4883-4.3789,13.1562.5078,1.918,1.5078,3.6328,3.0703,5.3242,2.1641,2.3516,5.5078,3.7695,8.9492,3.7734,3.3906.0039,6.4258-1.3945,8.6289-3.6016,2.4492-2.4453,3.6133-5.9023,3.6133-8.5898V51.7969h-8.2578Z" fill="#004da0" stroke-width="0"/><path d="M131.1953,147.5547c-3.8789-1.5547-12.3633-6.4883-18.832-11.1484-2.8828-2.0781-5.5898-3.8242-8.1875-5.2109,7.6562-2.9336,13.0898-10.3398,13.0898-19.0234,0-11.2422-9.1133-20.3594-20.3633-20.3594s-20.3594,9.1172-20.3594,20.3594c0,5.3789,2.0859,10.2656,5.4883,13.9023-6.7891.7773-10.457,3.7617-10.457,3.7617,9.2969-.1094,20.5859,1.6719,40.4141,15.75,5.2188,3.707,12.6445,7.9727,17.6367,9.8203,24.3398,9.0156,43.2266-4.6367,43.2266-4.6367-10.4023,2.0703-25.2656,3.7188-41.6562-3.2148M96.9023,100.8945c6.2344,0,11.2852,5.0469,11.2852,11.2773,0,6.2344-5.0508,11.2852-11.2852,11.2852-6.2305,0-11.2812-5.0508-11.2812-11.2852,0-6.2305,5.0508-11.2773,11.2812-11.2773" fill="#e5800f" stroke-width="0"/><path d="M107.0312,169.9414h37.5234v4.2305h-37.5234v-4.2305Z" fill="#dcb770" stroke-width="0"/><path d="M144.7617,180.0234h19.7539v1.8125h-19.7539v-1.8125Z" fill="#dcb770" stroke-width="0"/><path d="M144.7617,182.7969h19.7539v4.8672h-19.7539v-4.8672Z" fill="#dcb770" stroke-width="0"/><path d="M87.0664,180.0234h19.7578v1.8125h-19.7578v-1.8125Z" fill="#dcb770" stroke-width="0"/><path d="M87.0664,182.7969h19.7578v4.8672h-19.7578v-4.8672Z" fill="#dcb770" stroke-width="0"/><path d="M107.8203,175.3086v12.3555h3.2422v-6.5977c0-1.3672,1.1094-2.4766,2.4766-2.4766s2.4766,1.1094,2.4766,2.4766v6.5977h5.6172v-6.4414c0-2.293,1.8555-4.1484,4.1445-4.1484h.0312c2.2891,0,4.1445,1.8555,4.1445,4.1484v6.4414h5.6133v-6.5977c0-1.3672,1.1133-2.4766,2.4844-2.4766,1.3633,0,2.4727,1.1094,2.4727,2.4766v6.5977h3.2422v-12.3555h-35.9453Z" fill="#dcb770" stroke-width="0"/><path d="M193.2969,171.3984c-11-2.9531-22.2852-5.2227-33.7891-6.7578-5.0977-.6836-10.2383-1.2109-15.4141-1.5977-6.6602-.5-13.3789-.7617-20.1484-.7617-6.5234,0-12.9922.2422-19.4062.707-5.4297.3906-10.8203.9375-16.1602,1.6523-10.2695,1.3711-20.3438,3.3594-30.2148,5.8594v1.8008c9.9375-2.5352,20.0898-4.5352,30.4414-5.9219,11.543-1.543,23.3398-2.3359,35.3398-2.3359,11.9922,0,23.7891.793,35.3359,2.3359,11.2305,1.5,22.2344,3.6953,32.9727,6.5547" fill="#dcb770" stroke-width="0"/><path d="M113.6211,191.3984v8.3984c-.0391.4727.1367.6875.5273.6484h.9961v.5273h-4.8164v-.5273h.9414c.3516,0,.5273-.1953.5273-.5859v-6.5781c-.625.3867-1.2109.6406-1.7617.7578l-.2383-.4062c1.1797-.5508,2.1797-1.293,3-2.2344h.8242Z" fill="#dcb770" stroke-width="0"/><path d="M119.2305,201.0898l-.3555-.4102c1.7227-.5469,2.8203-1.8203,3.293-3.8203-.5117.3945-1.0234.5664-1.5312.5312-1.6445-.0781-2.5078-1.0195-2.582-2.8203.1172-1.957,1.1328-3.0156,3.0508-3.1719,2.0391.1562,3.1172,1.4844,3.2344,3.9922-.1953,3.0977-1.8984,4.9961-5.1094,5.6992ZM119.9922,194.2773c-.0781,1.6836.2734,2.4883,1.0547,2.4062.3555.0391.7656-.1133,1.2383-.4688.0742-.5859.1172-1.1133.1172-1.5859-.043-1.7617-.4688-2.6641-1.2969-2.6992-.7773,0-1.1523.7813-1.1133,2.3477Z" fill="#dcb770" stroke-width="0"/><path d="M127.4805,196.3945l.1797-4.7617h3.3438c.3164.0391.4922-.0586.5312-.293h.4688l-.2383,1.7656h-3.582l-.0586,1.8203c.3555-.1211.7656-.1797,1.2344-.1797,2.0391.1562,3.1367,1.1992,3.293,3.1133-.1562,2.0781-1.3945,3.1523-3.7031,3.2305-1.332-.0391-2.0195-.4102-2.0547-1.1133,0-.4727.2539-.7266.7656-.7656.3086,0,.6211.2383.9336.7031.2773.4336.5703.6484.8867.6484.8594-.082,1.3281-.7422,1.4062-2-.0781-1.4062-.6875-2.1484-1.8203-2.2305-.3906.043-.7852.1406-1.1758.293l-.4102-.2305Z" fill="#dcb770" stroke-width="0"/><path d="M135.5586,196.2773c.0781-3.0195,1.1133-4.6445,3.1094-4.8789,1.9609.2344,3,1.8633,3.1172,4.8789-.0781,3.0508-1.1172,4.6602-3.1172,4.8125-1.9961-.1172-3.0312-1.7188-3.1094-4.8125ZM137.4961,194.2188v3.9336c-.0781,1.7227.3125,2.5508,1.1758,2.4688.8242.1211,1.2109-.7812,1.1719-2.6992v-3.3516c0-1.7617-.3867-2.6406-1.1719-2.6406-.8242-.0391-1.2148.7266-1.1758,2.2891Z" fill="#dcb770" stroke-width="0"/></g></g></svg>