<?xml version="1.0" encoding="UTF-8"?><svg id="b" xmlns="http://www.w3.org/2000/svg" viewBox="0 0 201.8166 201.8167"><g id="c"><path d="M18.6092,129.0698c-.2129.5964-.3424,1.2192-.383,1.8623l-1.6435-.3342c.0034-.332.0437-.6667.1188-1.0037.0139-.075.1817-.6079.5029-1.6013-.4757-.5757-.8261-1.2607-1.0548-2.0588-.4419-1.5398-.3351-2.8762.3223-4.009.6554-1.1323,1.8042-1.9338,3.4444-2.4043,1.6381-.4697,3.035-.3982,4.1958.2163,1.1585.6145,1.9542,1.6716,2.3842,3.1721.4258,1.4839.3087,2.7927-.3495,3.9236-.6605,1.1311-1.8071,1.9321-3.4449,2.4016-.8657.2483-1.6611.3452-2.386.293-.5544-.0408-1.1233-.1931-1.7067-.4575M19.283,127.1138c.3807.1738.805.2617,1.2764.2678.4686.0046.9842-.0725,1.5441-.2332,1.1599-.3325,1.9502-.8342,2.3754-1.5093.4252-.6748.5207-1.4246.2846-2.2485-.237-.8257-.7152-1.4106-1.4366-1.7595-.7211-.3489-1.658-.3577-2.8131-.0269-1.169.3354-1.9726.8438-2.4066,1.5234-.4337.6802-.54,1.4099-.3152,2.1941.0836.2917.2123.5552.3821.7869.1505-.4875.2409-.9656.2715-1.4312l1.3176.2358c-.038.7305-.1959,1.4653-.4802,2.2004ZM18.7954,132.7769l9.6665-3.9055.7883,1.9514-9.6664,3.9055-.7884-1.9514ZM20.5813,137.4685l9.2055-4.8945.9615,1.8086-4.1434,7.0366,6.1469-3.2686.9184,1.7275-9.2052,4.8945-.9927-1.8667,4.0309-6.9019-6.0032,3.1919-.9187-1.7275ZM31.7138,149.093l1.4218-1.033,2.6666,3.6704-3.3599,2.4412c-.6055-.1062-1.285-.4014-2.0404-.8877-.7535-.488-1.383-1.0776-1.8867-1.771-.6407-.8818-1.0154-1.7859-1.1226-2.71-.1054-.9255.0647-1.8022.5142-2.6331.4496-.8306,1.0781-1.5391,1.8871-2.1267.8779-.6379,1.7937-1.021,2.7439-1.1506.9496-.1255,1.8649.0315,2.7448.4783.6729.3362,1.3019.9082,1.8867,1.7134.7606,1.0469,1.1356,2.0254,1.1242,2.9309-.0119.9087-.3432,1.7285-.9963,2.4609l-1.5446-1.4609c.3274-.4209.4926-.8831.4941-1.385.0014-.502-.1758-.9976-.5324-1.4885-.5408-.7444-1.2061-1.1641-1.9967-1.2617-.7929-.0959-1.6506.1938-2.5793.8689-.9997.7263-1.5905,1.4946-1.7674,2.3042-.1783.8076-.0039,1.5723.5196,2.2927.2597.3574.5899.6636.9907.9216.3992.2561.7937.4402,1.1792.5535l1.0701-.7778-1.4167-1.95ZM32.9193,157.3801l7.4997-7.2424,1.4635,1.5156-2.9509,2.8496,2.865,2.9668,2.9509-2.8496,1.4618,1.5139-7.4996,7.2422-1.4619-1.5139,3.2795-3.1665-2.865-2.9668-3.2794,3.1667-1.4636-1.5156ZM48.0255,171.4944l-1.7555-1.4729.8254-2.4001-3.1927-2.6787-2.1809,1.2622-1.7107-1.4353,9.8124-5.3762,1.705,1.4309-3.503,10.6702ZM47.7068,165.8435l1.3862-3.8877-3.5657,2.0588,2.1795,1.8289ZM49.5318,172.4771l5.98-8.5403,1.724,1.2073-5.98,8.5403-1.724-1.2073ZM56.3083,177.0571l4.733-9.2893,1.8252.9299.6421,8.1404,3.1603-6.2029,1.7433.8882-4.7333,9.2893-1.8836-.9597-.6571-7.9656-3.0869,6.0579-1.743-.8882ZM67.5556,177.2546c.3285-1.011.754-1.8096,1.279-2.397.39-.4297.8447-.7844,1.3654-1.0598.5199-.2725,1.0438-.4314,1.5707-.4749.7044-.062,1.4573.0398,2.2655.3022,1.4612.4749,2.4823,1.3069,3.0648,2.4993.5831,1.1899.6123,2.5928.0879,4.2065-.5205,1.6023-1.3635,2.7117-2.5277,3.334-1.1636.6199-2.4744.6941-3.9288.2217-1.4752-.479-2.5016-1.3105-3.0801-2.4915-.5777-1.1831-.6089-2.564-.0967-4.1406ZM69.6391,177.8577c-.3649,1.1221-.3807,2.0588-.0519,2.8059.3314.7485.8955,1.2507,1.6943,1.5103.7965.259,1.5451.1855,2.245-.2251.697-.4089,1.2331-1.187,1.6067-2.3364.369-1.1357.3948-2.0642.081-2.7864-.3172-.7209-.8889-1.2153-1.7132-1.4832-.8266-.2688-1.5835-.2007-2.2731.2007-.6869.4021-1.2178,1.1716-1.5888,2.3142ZM77.9599,186.1096l2.1676-10.198,4.3356.9216c1.0897.2314,1.8607.4922,2.3156.78.4553.2878.7824.6973.98,1.228.1967.5334.2304,1.0989.1023,1.7019-.1624.7644-.523,1.3508-1.0777,1.7537-.5542.4009-1.2955.5735-2.2178.5115.3909.356.6981.7192.9218,1.0916.2234.3728.4958,1.0063.8186,1.9038l.8238,2.2546-2.4622-.5232-1.0168-2.5366c-.3611-.9055-.616-1.4807-.7668-1.7288-.1508-.248-.3274-.4319-.5295-.5566-.2021-.1226-.5383-.2336-1.0131-.3345l-.4155-.0886-.9048,4.2576-2.0611-.438ZM81.2719,180.6614l1.5219.3237c.9879.21,1.6138.3008,1.8782.27.2622-.031.4856-.135.669-.3093.1811-.175.3064-.4141.3714-.7205.0731-.344.0391-.6392-.0987-.8894-.138-.25-.3685-.438-.6914-.5664-.1615-.0566-.6599-.1748-1.4958-.3525l-1.605-.3411-.5496,2.5854ZM88.9827,188.4355l.7271-10.4001,3.1433.22,1.3901,7.2268,2.3607-6.9646,3.1502.2202-.7271,10.4004-1.9494-.1365.5726-8.187-2.6382,8.0427-2.022-.1414-1.4856-8.3311-.5723,8.187-1.9494-.1365ZM111.3316,188.5081l-2.2861.1597-1.0732-2.2998-4.1576.2908-.6922,2.4233-2.2275.1555,3.3236-10.6833,2.2207-.1555,4.8923,10.1094ZM107.1766,184.6643l-1.7034-3.7598-1.1347,3.958,2.8381-.1982ZM113.3218,188.1699l-1.7957-10.1836,2.0726-.3655,1.4905,8.4529,5.154-.9087.3052,1.7307-7.2266,1.2742ZM122.6396,175.5034l2.0015-.6501,1.745,5.3696c.2767.8518.4822,1.3977.6123,1.6335.2174.3787.5287.6372.9292.7778.4034.1421.8841.1211,1.4428-.0603.5678-.1846.9598-.4395,1.1724-.7666.2138-.3245.294-.667.2421-1.0229-.0502-.3589-.2049-.929-.46-1.7139l-1.7822-5.4851,2.0016-.6501,1.6922,5.208c.3873,1.1912.6069,2.0488.6582,2.5759.0514.5269-.0127,1.0046-.1936,1.4387-.1811.4314-.4838.8281-.9034,1.1863-.4215.3596-1.0267.6658-1.8116.9209-.9465.3076-1.6996.4321-2.2603.3718-.5607-.0601-1.0386-.2188-1.4358-.4753-.3971-.2563-.7033-.5627-.9178-.9165-.3164-.5251-.6534-1.3423-1.014-2.4524l-1.7186-5.2893ZM136.5735,181.6111l-4.7332-9.2896,1.8255-.9299,6.9627,4.2656-3.1606-6.2031,1.7433-.8884,4.7333,9.2893-1.8839.9602-6.8307-4.1504,3.0867,6.0579-1.7431.8884ZM146.4716,176.3306l-5.5248-8.8416,1.7845-1.115,5.525,8.8413-1.7847,1.1152ZM152.8311,172.2383l-9.3549-5.9216,1.8-1.4062,6.8281,4.4578-2.7386-7.6531,1.7598-1.3748,3.4767,10.5139-1.7711,1.384ZM159.0154,167.2502l-7.1101-7.6248,5.6523-5.271,1.2036,1.2905-4.1134,3.8359,1.5761,1.6899,3.8276-3.5693,1.1968,1.2834-3.8276,3.5693,1.9355,2.0754,4.2587-3.9714,1.1985,1.2854-5.798,5.4065ZM166.5213,159.8633l-8.1023-6.561,2.7893-3.4448c.701-.8655,1.2833-1.4346,1.7464-1.7092.4629-.2747.9766-.3804,1.539-.3152.5646.0667,1.0837.2935,1.563.6816.6072.4917.966,1.0786,1.0735,1.7561.1054.6758-.0774,1.4146-.5516,2.2085.4949-.1868.9578-.2959,1.3915-.3259.4334-.0298,1.1217.0151,2.0679.135l2.3828.2896-1.5843,1.9563-2.7216-.2454c-.9705-.0896-1.599-.1238-1.8884-.1018-.2894.0217-.5335.0955-.7364.2188-.2007.1248-.4527.3738-.758.7512l-.2673.3301,3.3823,2.739-1.3258,1.6372ZM163.1707,154.439l.9791-1.2092c.6356-.7847,1.0007-1.3013,1.0934-1.5505.0915-.248.1-.4941.0277-.7368-.0734-.2407-.2296-.4607-.4728-.6577-.2735-.2217-.5519-.3254-.8373-.3159-.2855.0093-.5579.1294-.8184.3589-.1239.1182-.4558.5085-.9935,1.1726l-1.0327,1.2754,2.0545,1.6633ZM170.2514,149.5186l.9468-1.8279c.6443.2737,1.2039.3391,1.6809.1973.4737-.1411.8864-.478,1.2354-1.0154.3688-.5679.5275-1.0757.4716-1.5198-.0524-.4453-.2395-.7722-.5609-.9812-.2078-.1348-.4227-.1875-.6463-.1589-.2248.0247-.4884.1545-.7912.3892-.2069.158-.6398.5483-1.3002,1.1643-.849.7944-1.569,1.2705-2.1583,1.4292-.8294.2253-1.5903.1133-2.2825-.3362-.4456-.2896-.7789-.6855-1.004-1.1902-.2228-.5039-.2815-1.0601-.1769-1.6665.1077-.6072.3776-1.2454.8138-1.9172.7138-1.0994,1.4896-1.7676,2.331-2.0117.8421-.2402,1.6724-.115,2.495.3787l-1.0689,1.8154c-.4989-.217-.9284-.2642-1.285-.1428-.3588.1201-.6984.4292-1.021.926-.3331.5127-.491.9832-.4672,1.4102.0128.2744.1333.4856.3592.6323.2078.135.4416.1626.7018.0825.3314-.1003.8785-.5146,1.6379-1.2429.7617-.7271,1.3839-1.2258,1.8666-1.4973.485-.2695.989-.3994,1.5177-.3892.5272.0125,1.0669.1978,1.6183.5562.5009.3254.8813.7693,1.1358,1.3308.2566.5635.3271,1.1677.2084,1.8142-.1168.6477-.4232,1.3516-.9165,2.1111-.718,1.1055-1.5236,1.7893-2.4193,2.0498-.8958.2605-1.8709.1309-2.922-.3899ZM178.8475,142.0442l-9.2053-4.8945.9879-1.8582,9.2055,4.8945-.9881,1.8582ZM182.0359,135.5417l-8.0303-3.2444-1.1585,2.8672-1.6362-.6611,3.1034-7.6814,1.6362.6611-1.1557,2.8606,8.0302,3.2444-.7891,1.9536ZM185.3949,126.0203l-4.2185-1.21-6.8556,2.0063.6806-2.3728,4.6406-1.2224-3.3021-3.4468.6685-2.3311,4.7607,5.3525,4.2047,1.2056-.5789,2.0186ZM24.5353,79.5161l.8405.2896,3.1408-9.1218-.8405-.2893-3.1408,9.1216ZM26.1423,69.8665l-.919-.3167-3.1408,9.1218.919.3164,3.1408-9.1216ZM18.152,82.1182l-1.6093-.5544,2.6127-7.5876-.8438-.2905-2.2431,6.5151-1.5341-.5281,2.2433-6.5151-.919-.3167-2.455,7.1301-1.5339-.5283,2.4551-7.1299-1.3802-.4751.8975-2.6067,1.3802.4751,2.4551-7.1299,1.5338.5281-2.4551,7.1301.9193.3164,2.243-6.5149,1.5339.5281-2.2431,6.5149.8439.2905,2.6127-7.5879,1.6089.5542-6.1228,17.7825ZM26.9096,80.3337l2.7604.9504-.8445,2.4531-9.2752-3.1938,4.83-14.0276,7.1265,2.4539c1.2787.4404,1.7224,1.3943,1.3315,2.8584-.1763.6819-.5553,1.8684-1.1353,3.5525-.0524-.0178-.163-.0264-.3345-.0271-.4439-.0396-1.0332-.0703-1.7668-.0962.0516-.1504.1635-.4011.3387-.7393.2991-.6985.5706-1.4023.8172-2.1187.1937-.5627.0321-.9329-.4782-1.1086l-.2287-.0786-3.1411,9.1216ZM43.9413,38.5103l.0561-1.6038-1.4799,1.3801,1.6423,2.2378,2.3704-2.2104c-.9924.041-1.8587.1062-2.5889.1963ZM50.2719,39.5925l-.1145,1.658,1.7784-1.6587c-.5519-.5918-1.1403-1.2634-1.7654-2.0098l-2.6081,2.4321c.2327-.0703.7126-.1489,1.4425-.2383.538-.0571.9587-.1182,1.2671-.1833ZM47.0092,36.094l-.0034,1.7766,1.8366-1.7126c-.5899-.6323-1.1971-1.3242-1.8193-2.073l-2.6084,2.4321c.2302-.0676.6534-.1313,1.2671-.1833.5782-.0947,1.019-.1748,1.3274-.2397ZM47.0914,42.0046l.1143-1.6577-1.8366,1.7126,1.6464,2.1206,2.6084-2.4321c-.8818.0842-1.7269.1721-2.5325.2566ZM32.9763,40.4202l.0298-2.4634c1.19-.1494,2.4931-.2581,3.9124-.3235l.0204,2.6392c-.6109-.0215-1.5469.0044-2.812.073-.4978.0242-.8802.0452-1.1506.0747ZM36.1582,44.5476l-.1431-2.4158c1.1922-.1467,2.4956-.2554,3.9123-.3188l.1338,2.7559c-.5731-.0566-1.8725-.0654-3.903-.0212ZM40.4742,45.8438c.4649-.1355,1.1827-.436,2.1532-.8967.1165-.0374.1934-.0713.2339-.1091.3246.5867.8104,1.4624,1.4573,2.6328.9011,1.6003,1.563,2.8276,1.9933,3.6846-.1567.0703-.3881.1775-.699.3206-.7784.3523-1.3218.6416-1.6353.8584-.8904-1.9036-2.0583-4.0684-3.5034-6.4905ZM42.346,44.8787l-1.3281-1.4243,1.3028-1.2148-1.8643-2.4758c-.0513.4219-.0885.8586-.1021,1.3157-.7219-.1401-1.559-.2822-2.5106-.4304.0853-2.4443-.201-4.6177-.8617-6.5132l2.2923-1.5842c.0324.1921.0975.5002.1953.9246.0375.1165.0715.1934.1092.2339l6.461-6.0249,1.4369,1.5405-7.4098,6.9097c.0323.1921.0785.4802.1412.8662.0294.2705.0581.4993.0907.6912l7.2935-6.8013c1.0304,1.1863,2.0787,2.3511,3.1473,3.4971l1.1285-1.052,1.328,1.4243-1.1282,1.052c.5519.6677,1.1401,1.3394,1.7655,2.01l1.0675-.9956,1.3283,1.4241-1.1285,1.0522c.5896.6326.8552,1.2314.7986,1.8047.0569.5381-.2713,1.1753-.9848,1.9163-.3215.3704-1.2107,1.2378-2.6728,2.6013-.1868-.1191-.4669-.3027-.8402-.5457-.4136-.2056-.7163-.3677-.9005-.4893.9082-.8472,1.6191-1.5098,2.135-1.9912.4731-.4409.7705-.7561.8921-.9453-.0323-.1919-.1406-.384-.3246-.5815l-6.876,6.4119-2.8556-3.6558-1.1259,1.0498ZM87.7853,22.457l-1.163-5.4712-1.6645.354,1.2642,5.9482c1.1767.0786,1.6985-.1951,1.5633-.8311ZM73.0599,26.4995l-2.5789-12.1331,2.1418-.4553,2.579,12.1331-2.1419.4553ZM74.9291,19.3052l-1.4837-6.98,2.3789-.5056,1.4663,6.8987c.6747,3.1738.9774,5.5144.9114,7.0171-.0199,1.7195-.4352,3.4094-1.2413,5.073-.9074-.3589-1.8448-.7429-2.8137-1.1416.8847-1.2947,1.4159-2.7056,1.586-4.2341.0598-1.2822-.2084-3.3257-.8039-6.1274ZM77.26,14.6653l-.5054-2.3784,11.3411-2.4109.5057,2.3787-4.5204.9607.3878,1.824,4.043-.8594,1.7363,8.1672c.3373,1.5869-.0862,2.5894-1.2671,3.0066-.2098.0447-.4958.1301-.8564.2632-.318.0679-.5547.1179-.714.1521-.1182-.3076-.3164-.7073-.5842-1.2019-.2322-.5591-.4269-.96-.5879-1.2014l1.1126,5.2341-2.4597.5227-2.3933-11.26-1.5871.3374,1.804,8.4858-2.3786.5054-2.2929-10.7864,3.9654-.8428-.3875-1.824-4.3614.9272ZM113.7915,15.8594l1.8153-1.52c1.2651,1.3191,2.1124,2.2737,2.5387,2.863l-1.9908,1.5642c-.176-.2036-.4382-.5352-.7826-.9939-.6565-.8044-1.1863-1.4402-1.5806-1.9133ZM111.5133,18.7737l1.8156-1.5203c.3552.408.8923.9924,1.6146,1.7544.4414.5356.7483.905.9244,1.1086l-2.1028,1.7068c-.803-1.1646-1.5516-2.1831-2.2518-3.0496ZM114.3261,21.5286c.8501.6758,1.5718,1.1902,2.16,1.5342-.6055,1.0349-1.6622,2.8789-3.1657,5.5439-.2449-.1616-.6285-.4377-1.1509-.8245-.4751-.3767-.8535-.6763-1.1344-.9023,1.2076-1.7876,2.3051-3.5732,3.291-5.3513ZM112.8079,13.083l.523-2.4595,4.7571,1.011.286-1.3467,2.5378.5393-.2863,1.3469,4.2021.8931.2863-1.3467,2.5376.5391-.2863,1.3469,4.6794.9946-.523,2.4595-4.6791-.9946-.2526,1.1877-2.5375-.5393.2525-1.1875-4.2023-.8933-.2523,1.1875-2.5376-.5391.2523-1.1877-4.7571-1.0112ZM127.0151,25.3857c.2452.1616.6072.4048,1.0902.7268.6307.4099,1.0741.6704,1.3266.7808-.3498.8628-.7778,1.7124-1.2872,2.5444-.6046,1.0315-2.0996,1.2939-4.4781.7881l-3.9654-.8428c-2.3244-.4939-3.2585-1.8242-2.7973-3.9932l1.9044-8.959,10.2316,2.1746c-.3665,1.1919-.7152,2.5815-1.0525,4.1685-.5712,2.4214-1.7291,3.4446-3.4716,3.0742-.318-.0679-.7954-.1689-1.4281-.3037-.6474-.0808-1.1267-.1545-1.4448-.2219.0249-.3838.0323-.9341.019-1.6545-.015-.4453-.0252-.7798-.0346-1.0012,1.099.2866,1.8851.4819,2.3621.5835.7294.2117,1.1985-.0496,1.4103-.7788.1122-.5278.2582-1.2146.4379-2.0605l-4.8382-1.0283-1.3651,6.4219c-.1573.741.2412,1.2109,1.1919,1.4131l3.0113.6399c1.4278.3037,2.2799.071,2.5532-.6985.24-.6135.4507-1.2053.6244-1.7732ZM151.5589,32.1755l1.8235-1.9556,5.5732,5.197c1.0386-.9517,2.183-2.1028,3.4356-3.446l2.1351,1.991c-.4034.4326-.978,1.0083-1.7192,1.7219-.7736.8298-1.3434,1.405-1.7164,1.7241l5.8107,5.4187-1.8235,1.9553-5.692-5.3079c-2.1189,3.9363-2.1155,7.8933.0134,11.8745-1.3408.0076-2.4634.1057-3.3772.2893-1.4641-3.6592-1.4732-7.2151-.0273-10.6672-3.0376,1.675-6.6245,1.915-10.7583.7183-.0003-.0757.0108-.25.0383-.5176.0408-1.0735.0102-1.9487-.0921-2.6353,4.8795,1.6653,8.8018,1.2222,11.7722-1.3289l-5.396-5.0317ZM184.5139,63.7915l1.9639,1.4641c-.5531,1.05-1.2118,2.1331-1.9678,3.2529l-.8269-.6592,1.0553,3.0647c.2866-.3257.6908-.8088,1.2175-1.4473.3209-.3958.5633-.6807.7342-.853l1.7623,1.8774c-.1531.2244-.4558.5886-.9136,1.0864-.5576.708-.9973,1.2581-1.3184,1.6538l-1.0596-1.0911.7656,2.2241c.7694.2471,1.842.5361,3.2137.865.3081.0662.5317.1316.6681.1982l-.5355,2.9282c-.2591-.0828-.6191-.2148-1.0814-.3997-.5329-.219-.928-.3682-1.1837-.4521l.8974,2.6067-4.5232,1.5574-.8703-2.5283,2.2989-.7913-4.117-11.9575-2.2992.7917-.8705-2.5283,4.5232-1.5571,1.0293,2.9893c.5394-.7603,1.0188-1.5254,1.4377-2.2952ZM171.8972,66.2483l2.2238-.7659,2.7445,7.9705.4612-.1589,2.4537,1.8992-2.2961-6.6689,2.2238-.7656,3.5373,10.2727-2.224.7656-3.1524-2.4297,2.3221,6.7437-2.2241.7659-2.4278-7.0515-1.9168.6599c-1.5829.5452-2.691-.0168-3.3234-1.6833-.4544-1.1606-.8589-2.2507-1.2104-3.271.8139-.4521,1.5115-.9226,2.0875-1.4062.2642.9368.5286,1.7898.7931,2.5583.2985.8667.8079,1.1777,1.5245.9312l1.1477-.3953-2.7442-7.9705ZM100.9083,3.3928c53.8563,0,97.5155,43.6592,97.5155,97.5156s-43.6592,97.5151-97.5155,97.5151S3.3928,154.7644,3.3928,100.9084,47.052,3.3928,100.9083,3.3928ZM100.9083,0c55.73,0,100.9083,45.1782,100.9083,100.9084s-45.1783,100.9082-100.9083,100.9082S0,156.6384,0,100.9084,45.1783,0,100.9083,0ZM40.4377,99.0835c5.9717.6558,11.4091,4.8896,14.9096,9.5181,1.7357,2.2954,3.108,4.708,4.2152,7.0559,4.6094,9.7759,4.5209,19.6802,12.6266,28.1873,7.4806,7.8508,18.1712,10.1926,27.813,6.9565,19.0156-6.3835,15.3292-22.2605,24.5608-35.9263,5.887-8.7141,16.1121-13.7021,37.1494-8.4768-6.3864-5.9895-11.2263-13.3606-13.9334-22.6423-11.5138-.7192-24.6648,2.9773-29.6286,16.3723-3.5282,9.521-1.7555,20.8008-5.1568,27.5767,2.3667-10.3186-4.5019-25.5867-1.4419-36.1111,6.4579-22.2107,36.0122-19.7861,44.7613-17.5908-9.2461-7.6858-17.2296-15.8628-22.9901-24.906-16.2258,1.6467-32.8646,6.6067-39.8413,23.0776-9.6865,22.8669,6.3834,34.283,8.839,47.4602,1.2513,6.6084-2.0395,12.7576-6.258,15.6897-7.8934,5.4871-20.219,3.4058-24.7096-5.6711-3.2085-6.4849-5.4672-13.6763-11.4137-19.946,10.9256,1.4585,14.4363-1.7271,17.1266-5.051-3.2043,2.1897-10.2804,4.8965-17.0265,1.0381-5.0576-2.8931-9.8927-8.8616-19.6016-6.6108ZM82.0817,170.0476l-2.7413-.7341,2.2101-8.2563c-1.2036.4819-2.531.7197-3.9858.7129l.5324-1.9878c.7625.0044,1.6367-.1409,2.6155-.4377.9799-.2993,1.7195-.7546,2.2158-1.3684l2.2255.5957-3.0722,11.4758ZM94.6596,163.8582c.0627-.73-.0986-1.313-.4833-1.75-.3844-.4395-.8549-.6819-1.4048-.729-.5225-.0452-.9729.082-1.3445.3816-.3756.2998-.5941.8254-.6585,1.5774-.0655.7605.0754,1.3364.4195,1.7224.3439.3894.7988.6082,1.3627.6562.5425.0469,1.0179-.0835,1.4187-.3948.4036-.3108.633-.7993.6902-1.4639ZM87.8301,168.2441l2.759-.0059c.0306.4504.1774.7949.4408,1.0332.2633.2385.625.3772,1.089.417.584.0505,1.0973-.1211,1.5432-.5139.449-.3928.7866-1.259,1.0162-2.6025-.7682.5999-1.686.853-2.7516.7612-1.161-.1001-2.1336-.5457-2.9137-1.3315-.7806-.7888-1.1228-1.7554-1.0241-2.9026.1029-1.1968.6321-2.1216,1.5854-2.7776.9493-.6536,2.1149-.9236,3.4894-.8054,1.4976.1289,2.6841.6982,3.5669,1.7056.879,1.0076,1.2291,2.5691,1.0471,4.6851-.1857,2.1572-.8207,3.667-1.9026,4.5359-1.082.8665-2.4251,1.2314-4.0298,1.0935-1.1545-.0989-2.0644-.4233-2.7337-.9761-.6687-.552-1.0627-1.324-1.1815-2.3159ZM100.8366,169.1831l2.7947-.4912c.1258.5002.4036.8813.826,1.1409.4224.2625.8926.3682,1.408.3206.5904-.0544,1.0743-.2927,1.4473-.7119.3734-.4216.5259-1.0198.4547-1.7903-.0666-.7212-.3197-1.2458-.7617-1.5698-.439-.3247-.9844-.4565-1.6336-.3965-.8101.0747-1.5117.4299-2.1041,1.063l-2.3185-.054.8822-6.2639,7.4755-.6914.1956,2.1118-5.3331.4934-.2577,2.0427c.6086-.3105,1.239-.4963,1.8984-.5571,1.2532-.116,2.3516.1504,3.2876.7969.9397.6489,1.4632,1.5549,1.5707,2.7178.0895.9683-.1806,1.8672-.8141,2.6921-.8655,1.1287-2.1464,1.7695-3.8498,1.927-1.3632.1262-2.499-.062-3.4115-.5664-.9127-.5049-1.5001-1.2417-1.7566-2.2136ZM116.7891,166.3142c.1287.7239.4354,1.2483.923,1.5671.4881.322,1.002.4348,1.5384.3394.5196-.092.9184-.3308,1.2072-.7151.2889-.3843.3643-.946.2336-1.6807-.1343-.7568-.4161-1.2803-.8524-1.5662-.4328-.2874-.9294-.3804-1.4862-.2815-.5366.0952-.9618.344-1.2719.7461-.3138.4028-.4082.9343-.2917,1.5908ZM122.2594,160.3174l-2.664.7195c-.1437-.4331-.375-.7305-.6913-.8953-.3161-.1621-.6982-.2034-1.143-.1243-.5873.1042-1.0491.4048-1.3844.9033-.3322.4956-.43,1.4221-.3005,2.7812.5825-.7805,1.387-1.2622,2.4222-1.446,1.1682-.2075,2.2298-.03,3.1876.5327.9578.5601,1.5384,1.4026,1.7376,2.5251.2123,1.1934-.0561,2.2258-.8039,3.1028-.7449.874-1.8082,1.4351-3.1796,1.6785-1.4703.2615-2.7635.0212-3.8733-.7241-1.1097-.7456-1.851-2.1582-2.2212-4.241-.379-2.1343-.1601-3.7595.6602-4.8789s2.02-1.8191,3.5989-2.0999c1.1066-.1968,2.0678-.1099,2.882.2544.8152.3669,1.4042,1.0037,1.7727,1.9119ZM100.9083,32.1433c37.9778,0,68.7648,30.7874,68.7648,68.7651,0,28.3511-17.1592,52.6919-41.6573,63.2117l-1.0888-2.5391c23.5142-10.0969,39.9841-33.4604,39.9841-60.6726,0-36.4524-29.5507-66.0032-66.0028-66.0032s-66.0027,29.5508-66.0027,66.0032c0,27.2148,16.473,50.5798,39.9906,60.6755l-1.0888,2.5391c-24.5018-10.5181-41.6639-34.8608-41.6639-63.2146,0-37.9778,30.7871-68.7651,68.7648-68.7651Z" fill="#004076" fill-rule="evenodd" stroke-width="0"/><path d="M85.4399,109.4329c6.4355,0,11.6521,5.217,11.6521,11.6521s-5.2166,11.6521-11.6521,11.6521-11.6521-5.2166-11.6521-11.6521,5.2169-11.6521,11.6521-11.6521" fill="#e50013" fill-rule="evenodd" stroke-width="0"/></g></svg>