<svg xmlns="http://www.w3.org/2000/svg" xmlns:xlink="http://www.w3.org/1999/xlink" width="48" height="48" viewBox="0 0 48 48" fill="none">
<path d="M25.43 16.5142L25.8461 16.5142L25.8721 16.5142L25.8721 16.5402L27.4062 19.5564L28.9403 15.6561L28.9403 13.4199L18.0454 13.4199L18.0454 15.3701L25.9241 15.3701L25.43 16.5142Z" fill-rule="evenodd"  fill="#FFF100" >
</path>
<path d="M25.8721 23.5064L24 20.1001L23.3759 21.2962L21.5558 25.5345L21.5558 30.761L19.3196 30.761L18.7476 32.0351L18.7476 33.9853L30.7086 33.9853L30.7086 32.3731L22.4139 32.3731L25.8721 23.5064Z" fill-rule="evenodd"  fill="#FFF100" >
</path>
<path d="M4.23881 14.5047C4.29082 14.5827 4.49883 14.7127 4.75885 14.7387C5.01888 14.7647 5.2269 14.6607 5.2789 14.5047C5.3309 14.3487 5.3049 14.2967 5.12289 14.2186C4.94087 14.1406 4.94087 14.1666 4.86286 14.1406C4.75885 14.1146 4.68085 14.0626 4.65485 13.8806C4.62884 13.6986 4.68085 13.6206 4.57684 13.4646C4.47283 13.3086 4.31682 13.1006 4.31682 12.8665C4.31682 12.6325 4.57684 12.4765 4.78486 12.5025C4.78486 12.5025 5.14889 12.5025 5.22689 12.7365C5.3049 12.9705 5.2789 13.0226 5.2789 13.0226L5.2789 13.0746C5.2789 13.0746 5.07088 12.8925 4.99288 12.8665C4.91487 12.8145 4.81086 12.8665 4.78486 12.9185C4.73285 12.9966 4.75885 13.0746 4.83686 13.1526C4.91487 13.2306 5.17489 13.3346 5.12289 13.4646C5.04488 13.6206 5.01888 13.6986 5.01888 13.6986C5.01888 13.6986 5.01888 13.7506 5.07088 13.7506C5.09688 13.7506 5.17489 13.6726 5.2529 13.6986C5.3309 13.7246 5.3309 13.7246 5.38291 13.8286C5.40891 13.9326 5.46091 14.1406 5.61693 14.1406C5.77294 14.1406 5.87695 14.0366 5.92895 13.9846C5.98096 13.9326 6.05896 13.9326 6.11097 14.0626C6.13697 14.2186 6.08497 14.4527 6.21498 14.5047C6.34499 14.5827 6.501 14.4527 6.553 14.4267C6.60501 14.4007 6.81303 14.3747 6.70902 14.5047C6.63101 14.6347 6.449 14.7647 6.553 14.9207L6.57901 14.9727C6.57901 14.9727 6.68302 14.6087 6.76102 14.7127C6.83903 14.8167 6.83903 14.8947 6.86503 14.9207C6.91704 14.9467 6.99504 15.1027 7.04705 14.9207C7.09905 14.7387 7.02104 14.6607 7.04705 14.5047C7.07305 14.3487 7.12505 14.3227 7.17706 14.2707C7.17706 14.2707 7.28107 14.1406 7.02104 14.0366C6.76102 13.9326 6.24098 13.8286 6.13697 13.5166C6.13697 13.5166 5.72094 13.5166 5.69493 13.0486C5.64293 12.6065 5.72094 12.5285 5.38291 12.3725C5.04488 12.2165 4.86286 12.0345 4.60284 12.1645C4.34282 12.2685 4.1608 12.3985 4.0568 12.6845C3.92678 12.9705 4.05679 13.1526 4.0828 13.3346C4.1088 13.5166 4.39482 13.7766 4.29082 13.9066C4.1608 14.0366 4.26481 14.0366 4.1348 14.0366C4.03079 14.0366 4.00479 14.0106 3.95279 14.0626C3.90078 14.1146 3.87478 14.1406 3.92678 14.1926C3.87478 14.2707 4.18681 14.4007 4.23881 14.5047ZM5.66893 13.7506C5.74694 13.8026 5.74694 13.8546 5.77294 13.9066C5.79894 13.9326 5.69493 14.0106 5.61693 13.9586C5.53892 13.9066 5.53892 13.9066 5.53892 13.8546C5.53892 13.7766 5.56492 13.6986 5.66893 13.7506Z"   fill="#296536" >
</path>
<path d="M6.83852 16.174C6.76051 16.304 6.70851 16.278 6.70851 16.278C6.6305 16.304 6.50049 16.356 6.50049 16.486C6.50049 16.616 6.76051 16.668 6.94252 16.694C7.15054 16.694 7.38456 16.642 7.48857 16.512C7.61858 16.382 7.54058 16.278 7.38456 16.2C7.22855 16.122 7.22855 15.888 7.25455 15.7579C7.30656 15.6279 7.20255 15.4199 7.20255 15.4199C7.17654 15.4199 7.15054 15.4459 7.12454 15.5239C7.09854 15.6019 7.04653 15.6539 6.99453 15.836C6.94253 16.018 6.91652 16.018 6.83852 16.174Z"   fill="#296536" >
</path>
<path d="M7.22852 15.1294C7.30653 15.0514 7.59255 15.0254 7.61855 14.8174C7.64456 14.6094 7.61855 14.3234 7.61855 14.2453C7.61855 14.1673 7.59255 13.8813 7.67056 13.7513C7.74856 13.6473 7.82657 13.5173 7.98258 13.6473C8.13859 13.7773 8.11259 14.0113 8.13859 14.1413C8.1646 14.2714 8.2686 14.4534 8.34661 14.4534C8.42462 14.4534 8.47662 14.4014 8.42462 14.2193C8.39862 14.0373 8.39862 14.0373 8.42462 13.9073C8.45062 13.7773 8.50262 13.4653 8.32061 13.3613C8.13859 13.2573 7.98258 13.0753 7.82657 13.2053C7.67056 13.3353 7.59255 13.3613 7.51454 13.6473C7.43654 13.9333 7.43654 14.0633 7.30653 14.2714C7.20252 14.4794 7.15051 14.6354 7.12451 14.8174C7.15051 15.0514 7.17652 15.2074 7.22852 15.1294Z"   fill="#296536" >
</path>
<path d="M8.21661 10.2725C8.21661 10.2725 8.1386 10.3505 8.00859 10.4545C7.90458 10.5845 7.95659 10.7405 7.95659 10.7405C8.03459 10.8705 8.21661 10.8445 8.34662 10.7405C8.45063 10.6625 8.58064 10.8705 8.58064 11.0005C8.58064 11.1306 8.60664 11.0525 8.71065 11.1566C8.78866 11.2606 8.76265 11.4166 8.73665 11.5726C8.71065 11.7286 8.68465 11.8066 8.78866 11.8846C8.89266 11.9626 8.94467 11.9366 9.04868 11.8066C9.15268 11.6766 9.02267 11.5466 9.12668 11.4426C9.20469 11.3646 9.23069 11.1046 9.20469 11.0005C9.17869 10.8965 9.10068 10.8185 9.17869 10.7405C9.25669 10.6625 9.43871 10.8705 9.62072 11.0786C9.80274 11.2866 10.2188 11.1046 10.3228 11.0265C10.4008 10.9485 10.9468 10.4285 11.1029 10.2985C11.2589 10.1685 11.3889 9.96046 11.3109 9.75244C11.2329 9.51842 10.8948 9.41441 10.6868 9.33641C10.5048 9.2844 9.93275 9.2584 9.80274 9.31041C9.69873 9.36241 9.67273 9.49242 9.77674 9.49242C9.88074 9.49242 10.3748 9.59643 10.6088 9.80445C10.8688 10.0125 10.4528 10.4545 10.3228 10.5845C10.1928 10.7145 10.0108 10.8185 9.85474 10.7925C9.67273 10.7665 9.64672 10.5325 9.64672 10.3245C9.64672 10.1165 9.54272 10.0645 9.51671 9.85645C9.49071 9.64843 9.3607 9.51842 9.25669 9.51842C9.15268 9.51842 9.17869 9.54443 9.17869 9.70044C9.17869 9.83045 9.23069 10.2205 9.25669 10.2205C9.28269 10.2205 9.20469 10.2465 9.07468 10.2985C8.94467 10.3505 8.91866 10.3765 8.84066 10.2205C8.76266 10.0645 8.89266 9.67444 8.94467 9.59643C8.99667 9.51842 9.02267 9.51842 9.02267 9.38841C9.02267 9.2324 8.91866 9.2324 8.71065 9.15439C8.50263 9.10239 8.32062 9.02438 8.16461 8.92037C8.00859 8.81636 7.95659 8.81636 7.87858 8.99838C7.80058 9.1804 8.0866 9.83045 8.16461 9.98647C8.26861 10.1425 8.21661 10.2725 8.21661 10.2725Z"   fill="#296536" >
</path>
<path d="M9.10077 8.58325C9.07476 8.68726 9.12677 8.76527 9.12677 8.79127C9.12677 8.76527 9.20477 8.66126 9.30878 8.66126C9.43879 8.66126 9.5428 8.55725 9.62081 8.47924C9.69882 8.40124 9.59481 8.27123 9.4648 8.19322C9.33479 8.11521 9.04876 8.08921 8.94475 8.16722C8.84074 8.24522 8.81474 8.34923 8.91875 8.42724C9.04876 8.45324 9.15277 8.45324 9.10077 8.58325Z"   fill="#296536" >
</path>
<path d="M14.0672 6.2967C14.2232 6.2187 14.3272 6.16669 14.3272 6.1927C14.3272 6.2187 14.4572 6.06269 14.5352 6.2707C14.6132 6.50472 14.5612 6.45271 14.5612 6.66074C14.5612 6.89475 14.6392 7.10277 14.4832 7.20678C14.3272 7.31078 14.2232 7.33679 14.2232 7.33679C14.2232 7.33679 14.1712 7.44079 14.3012 7.4928C14.4312 7.5448 14.6132 7.64882 14.8472 7.4668C15.0813 7.28478 15.0812 7.10277 15.2633 7.02477C15.4713 6.94675 15.8873 6.84275 15.7833 6.50472C15.7833 6.50472 15.6533 6.40071 15.4973 6.45271C15.3413 6.47871 15.1333 6.60874 15.0552 6.66074C14.9772 6.71273 14.8732 6.81674 14.8212 6.71273C14.7692 6.60874 14.8212 6.58272 14.8472 6.45271C14.8992 6.2967 15.0032 6.1927 14.8732 5.98468C14.7432 5.77666 14.7952 5.77666 14.9252 5.69865C15.0552 5.62065 15.3933 5.51664 15.3153 5.36063C15.2373 5.20461 15.0813 5.17861 14.8992 5.28262C14.7172 5.36063 14.5092 5.43863 14.4052 5.62065C14.4052 5.62065 14.2492 5.82867 14.1192 5.90667C14.1192 5.90667 14.0932 5.88067 13.9632 6.01068C13.8331 6.11469 13.7291 6.16669 13.8071 6.2447C13.8591 6.3227 13.8852 6.37471 14.0672 6.2967Z"   fill="#296536" >
</path>
<path d="M12.7411 6.81393C12.6111 6.68392 12.5331 6.5539 12.4031 6.65791C12.2991 6.76192 12.3771 7.02194 12.4811 7.17796C12.5591 7.33397 12.7411 7.59399 12.8972 7.93202C13.0532 8.27005 13.0272 8.11404 13.3392 8.40006C13.6252 8.66008 13.7032 8.63408 13.8332 8.53007C13.9632 8.42606 13.7292 8.21805 13.6512 7.90602C13.5732 7.59399 13.7552 7.28197 13.7552 7.28197C13.6252 7.28197 13.5212 7.48998 13.5212 7.48998C13.4172 7.672 13.2352 7.59399 13.2352 7.61999C13.2092 7.59399 13.0532 7.41198 13.0012 7.28197C12.9232 7.09995 12.8452 6.94394 12.7411 6.81393Z"   fill="#296536" >
</path>
<path d="M12.4034 5.7426C12.3774 5.87262 12.3254 5.97662 12.3254 5.97662L12.3514 6.02863C12.3514 6.02863 12.4294 5.6646 12.6114 5.56059C12.7674 5.48258 13.0795 5.50859 13.0275 5.30057C13.0015 5.06655 12.9235 4.98854 12.7934 5.01454C12.6634 5.06655 12.1174 5.24856 12.2474 5.43058C12.3774 5.61259 12.4554 5.6386 12.4034 5.7426Z"   fill="#296536" >
</path>
<path d="M18.6959 4.75915C18.9039 5.12318 19.0339 5.22719 19.2159 5.20119C19.3979 5.17518 19.3459 4.94117 19.4239 4.86316C19.502 4.78515 19.554 4.91516 19.554 5.14918C19.554 5.3832 19.658 5.66923 19.814 6.13727C19.97 6.6053 19.944 6.6053 19.944 6.6053C19.944 6.6053 20.074 6.6053 20.204 6.26728C20.308 5.92925 20.282 4.94117 20.308 4.68114C20.36 4.42112 20.8021 4.31711 20.9581 4.26511C21.1401 4.2131 21.1141 4.08309 21.0361 3.97909C20.9581 3.87508 20.7761 3.84907 20.7501 3.74507C20.6981 3.66706 20.9061 3.51105 21.0361 3.40704C21.1661 3.30303 21.2701 3.19902 21.4261 2.991C21.6081 2.78299 21.5041 2.70498 21.4001 2.60097C21.2961 2.52296 21.1661 2.54897 20.9581 2.62697C20.7501 2.67898 20.542 2.65297 20.334 2.67898C20.1 2.70498 20.126 2.65297 20.074 2.44495C20.022 2.23694 20.022 2.23694 19.996 2.08092C19.944 1.92491 19.892 1.74289 19.814 1.63889C19.736 1.50888 19.684 1.48287 19.606 1.53488C19.528 1.58688 19.528 1.66489 19.4759 1.8469C19.3979 2.02892 19.4239 2.26294 19.4499 2.67898C19.476 3.09501 19.3199 3.12101 19.3459 3.14702C19.3459 3.14702 19.2939 3.12101 19.1119 3.25102C18.9299 3.38104 18.6439 3.45904 18.4619 3.61505C18.2799 3.77107 18.3319 3.87508 18.3579 4.03109C18.3579 4.1871 18.4879 4.39512 18.6959 4.75915ZM20.23 3.22502C20.282 3.12101 20.412 3.09501 20.49 3.06901C20.568 3.06901 20.646 3.04301 20.646 3.22502C20.646 3.40704 20.646 3.43304 20.49 3.53705C20.36 3.64106 20.282 3.58905 20.282 3.58905C20.282 3.58905 20.178 3.30303 20.23 3.22502ZM19.0079 3.64106C19.1119 3.53705 19.2159 3.53705 19.2939 3.53705C19.3719 3.53705 19.4239 3.53705 19.4239 3.90108C19.4499 4.26511 19.476 4.60314 19.2679 4.62914C19.0599 4.62914 19.0079 4.55113 18.9559 4.29111C18.9039 4.00509 18.8779 3.71906 19.0079 3.64106Z"   fill="#296536" >
</path>
<path d="M25.69 5.79745C25.924 5.82345 26.3661 5.84946 26.7821 5.92746C27.1981 6.00547 27.3021 6.03147 27.4581 6.08348C27.4581 6.08348 27.8222 6.23949 27.8742 6.05747C27.9002 5.87546 27.8482 5.84946 27.7962 5.79745C27.7442 5.74545 27.6922 5.77145 27.7182 5.66744C27.7442 5.56343 27.7182 5.38142 27.5882 5.30341C27.4581 5.2254 27.3021 5.09539 27.3021 5.09539C27.3021 5.09539 27.3021 4.96538 27.5361 4.93938C27.7702 4.91338 28.0822 4.93938 28.0822 4.67936C28.0822 4.67936 28.0042 4.41934 27.9002 4.36733C27.8222 4.31533 27.9002 4.23732 28.0302 4.23732C28.1602 4.23732 28.2122 4.18532 28.1862 4.0033C28.1862 3.82129 28.1082 3.76928 27.9522 3.71728C27.7962 3.66527 27.5361 3.63927 27.4061 3.76928C27.2761 3.87329 27.2501 3.9253 27.1721 3.9773C27.0941 4.02931 26.9901 4.0033 27.0161 3.9773C27.0421 3.9513 27.2761 3.53526 27.5102 3.37925C27.7702 3.22324 27.7702 3.09323 27.9522 3.01522C28.1342 2.96322 28.3942 3.11923 28.4462 2.91122C28.4982 2.7032 28.5502 2.44318 28.3682 2.41717C28.3682 2.41717 28.1342 2.33917 27.9262 2.36517C27.7182 2.41717 27.3021 2.54719 26.9901 2.46918C26.6781 2.39117 26.4961 2.31317 26.4441 2.49518C26.3921 2.65119 26.4961 2.7812 26.6261 2.91122C26.7561 3.04123 26.8341 3.04123 26.8861 3.06723C26.8861 3.06723 27.2241 3.14524 27.0421 3.40525C26.8601 3.66527 26.7041 3.82129 26.6261 3.9253C26.5481 4.0033 26.4441 4.13331 26.5221 4.23732C26.6001 4.34133 26.7561 4.34133 26.5481 4.54935C26.3401 4.75737 26.236 4.54935 26.262 4.93938C26.262 4.93938 26.288 5.2254 26.314 5.35542C26.34 5.48543 26.366 5.58944 26.366 5.58944C26.366 5.58944 26.3401 5.74545 26.158 5.56343C25.976 5.38142 25.846 5.43342 25.898 5.1994C25.95 4.96538 25.976 4.75737 26.028 4.57535C26.08 4.41934 26.184 3.87329 25.924 3.69128C25.664 3.50926 25.56 3.58727 25.534 3.87329C25.508 4.15932 25.56 4.47134 25.56 4.67936C25.56 4.86137 25.508 5.06939 25.482 5.2254C25.43 5.40742 25.456 5.77145 25.69 5.79745ZM26.7041 5.51143C26.7301 5.38142 26.7561 5.30341 26.7561 5.30341C26.7561 5.30341 26.8601 5.25141 26.9641 5.30341C27.0681 5.32941 27.1981 5.45942 27.1721 5.58944C27.1461 5.71945 26.9901 5.69344 26.9121 5.66744C26.8341 5.66744 26.6781 5.64144 26.7041 5.51143Z"   fill="#296536" >
</path>
<path d="M31.6444 7.74456C31.6444 7.74456 31.6964 7.53655 31.8784 7.61455C32.0604 7.69256 32.3204 7.56255 32.3724 7.51054C32.4244 7.45854 32.5024 7.25052 32.6065 7.27652C32.7105 7.30253 32.6585 7.48454 32.5545 7.64055C32.4504 7.79657 32.4504 7.87457 32.5285 8.08259C32.6065 8.29062 32.7885 8.42062 33.0485 8.49863C33.3085 8.57663 33.4905 8.26461 33.5425 8.1606C33.6205 8.05659 34.0886 7.38053 34.2706 6.9645C34.4526 6.54846 34.0886 6.47046 34.0886 6.47046C34.0886 6.47046 33.8546 6.47046 33.9066 6.34045C33.9846 6.21044 33.9586 5.8204 33.9586 5.7424C33.9326 5.66439 33.9326 5.53438 33.9586 5.37837C34.0106 5.24836 34.3746 5.32636 34.7646 5.40437C35.1547 5.48238 35.1287 5.04034 35.1287 5.04034C35.1807 4.85832 34.8686 4.70231 34.7126 4.62431C34.5566 4.5463 34.6346 4.39029 34.6346 4.39029C34.6606 4.02626 34.4526 3.92225 34.3226 3.87025C34.2186 3.79224 34.2706 3.87025 34.1666 4.07826C34.0626 4.28628 33.5685 4.67631 33.4125 4.78032C33.2565 4.88433 33.1005 4.91033 32.9185 4.91033C32.7365 4.91033 32.8145 4.72832 32.8145 4.72832C32.8145 4.72832 32.8145 4.70231 32.8665 4.5723C32.9185 4.44229 32.8925 4.39029 32.8665 4.31228C32.8405 4.23428 32.8665 4.23428 32.8665 4.00026C32.8665 3.76624 32.7625 3.74023 32.7625 3.74023C32.5024 3.84424 32.5024 4.28628 32.4764 4.5203C32.4764 4.75431 32.2684 4.65031 32.0344 4.62431C31.8004 4.62431 31.8264 4.67631 31.7744 4.83232C31.7224 5.01434 31.8524 5.19635 31.8524 5.19635C31.8524 5.19635 31.9044 5.24836 31.8784 5.37837C31.8524 5.53438 31.5404 5.66439 31.3064 5.71639C31.0463 5.7684 31.0723 5.7944 30.9683 6.08042C30.8643 6.34045 31.0203 6.41845 31.0203 6.41845C31.0203 6.41845 31.1503 6.36645 31.2543 6.54846C31.3584 6.73048 31.1763 6.80849 30.9423 6.9385C30.7083 7.06851 30.9423 7.45854 31.0463 7.58855C31.2283 7.82257 31.6444 7.74456 31.6444 7.74456ZM32.7105 6.05442C32.6585 6.18443 32.5805 6.13243 32.6065 6.02842C32.6325 5.89841 32.6065 5.8204 32.7105 5.8204C32.8145 5.7944 32.7625 5.92441 32.7105 6.05442ZM33.8286 6.9905C33.6986 7.19852 33.5165 7.61455 33.3865 7.71856C33.2565 7.82257 33.1785 7.82257 33.0485 7.77057C32.9185 7.71856 32.8405 7.64056 32.8665 7.53655C32.8925 7.43254 32.8925 7.40654 33.1005 7.40654C33.2825 7.40654 33.5425 7.40654 33.4905 7.30253C33.4645 7.22452 33.4385 7.17252 33.3085 7.09451C33.1785 7.0165 33.1525 6.91249 33.1525 6.91249C33.1525 6.91249 33.3345 6.86049 33.4905 6.83449C33.6725 6.78248 33.9586 6.78248 33.8286 6.9905ZM32.5545 5.40437C32.7365 5.32636 32.7105 5.32636 32.8145 5.35236C32.9185 5.35236 33.0225 5.45637 33.1785 5.37837C33.3345 5.30036 33.3605 5.24836 33.4645 5.35236C33.5685 5.45637 33.6465 5.69039 33.6725 5.66439C33.6725 5.63839 33.3865 5.92441 33.2565 6.10643C33.1525 6.26244 33.0225 6.44446 33.0225 6.44446C33.0225 6.44446 32.8405 6.26244 32.7885 6.23644C32.7365 6.21044 32.7885 6.10643 32.8405 6.05442C32.8665 6.00242 33.0745 5.71639 32.9445 5.61239C32.8145 5.50838 32.8405 5.53438 32.7625 5.53438C32.6845 5.53438 32.4764 5.61239 32.4764 5.61239C32.4764 5.61239 32.3984 5.48238 32.5545 5.40437ZM32.2424 6.23644C32.2944 6.15843 32.3464 6.15843 32.4244 6.15843C32.5285 6.18443 32.5024 6.28844 32.4244 6.34045C32.3464 6.41845 32.1644 6.44446 32.1384 6.44446C32.1124 6.44446 32.0864 6.44446 32.0864 6.36645C32.1124 6.31444 32.1904 6.31444 32.2424 6.23644ZM31.7744 6.13243C31.8524 6.02842 31.8784 6.02842 31.8784 6.02842C31.8784 6.02842 32.0344 6.10643 32.0344 6.08042C32.0344 6.08042 31.9824 6.34045 31.8524 6.34045C31.7484 6.36645 31.7224 6.26244 31.7744 6.13243ZM31.8524 6.78248C32.0344 6.80849 32.1124 6.80849 32.2164 6.78248C32.2944 6.75648 32.2944 6.75648 32.3724 6.75648C32.4504 6.75648 32.5805 6.83449 32.5805 6.83449C32.5805 6.83449 32.2424 7.06851 32.0344 7.09451C31.8264 7.09451 31.8524 7.06851 31.7484 7.06851C31.6444 7.06851 31.4624 7.12051 31.4884 7.0165C31.4884 6.86049 31.6704 6.75648 31.8524 6.78248Z"   fill="#296536" >
</path>
<path d="M36.8716 10.2942C36.8716 10.2942 37.0276 10.3983 37.2097 10.2942C37.3917 10.1642 37.4957 10.1122 37.5997 10.1902C37.7037 10.2682 37.5997 10.3463 37.6257 10.5023C37.6517 10.6583 37.5477 11.3603 37.5997 11.4643C37.6257 11.5684 37.5477 11.9324 37.8597 12.1404C38.1717 12.3484 38.1197 12.2964 38.2497 12.4004C38.3798 12.5044 38.7178 12.5564 38.7698 12.4264C38.8218 12.2964 38.7958 12.2444 38.6138 12.0104C38.4318 11.7764 38.3537 11.5944 38.2237 11.2563C38.1197 10.9183 38.0677 10.4503 38.1197 10.1902C38.1457 9.93022 38.1717 9.6962 38.3017 9.64419C38.4318 9.59219 38.5878 9.64419 38.6398 9.67019C38.6918 9.67019 39.1078 9.67019 39.1078 9.48818C39.1078 9.30616 38.9778 9.30616 38.8998 9.28016C38.8218 9.25416 38.5878 9.12415 38.6138 9.04614C38.6138 8.96813 39.2638 8.31808 39.4198 8.13607C39.5758 7.95405 39.9139 7.66803 39.8099 7.53802C39.7059 7.40801 39.6279 7.38201 39.5238 7.38201C39.4198 7.38201 39.3418 7.356 39.2898 7.48601C39.2378 7.59002 39.2638 7.74604 39.2638 7.74604C39.2638 7.74604 38.9258 8.13607 38.7178 8.34409C38.4838 8.5521 38.2757 8.78612 38.0937 8.86413C37.9377 8.94213 37.7297 9.07214 37.5217 8.89013C37.3137 8.70811 37.2877 8.73412 37.2617 8.5781C37.2357 8.44809 37.0796 8.37009 36.9756 8.37009C36.8716 8.37009 36.6116 8.44809 36.6636 8.81212C36.6636 8.81212 36.6896 9.12415 36.8196 9.25416C36.9496 9.38417 37.1316 9.51418 37.1316 9.51418C37.1316 9.51418 37.1316 9.64419 36.9496 9.64419C36.7676 9.64419 36.5596 9.56619 36.4556 9.46218C36.3516 9.38417 36.1176 9.12415 36.0135 9.22816C35.9355 9.33217 36.0656 9.56619 36.2216 9.7222C36.3776 9.93022 36.8716 10.2942 36.8716 10.2942Z"   fill="#296536" >
</path>
<path d="M39.5758 13.285C39.4458 13.363 39.4978 13.5451 39.6018 13.8831C39.7058 14.2471 39.6278 14.3771 39.6278 14.3771C39.6278 14.3771 39.5238 14.5852 39.4458 14.8192C39.3678 15.0532 39.4718 15.1312 39.6798 15.2612C39.9139 15.3912 40.3299 15.1832 40.5899 15.0792C40.8239 14.9752 40.8759 15.1832 40.8759 15.1832L41.006 15.4432C41.11 15.6512 41.422 15.4432 41.526 15.3132C41.63 15.1832 41.526 14.9492 41.396 14.6632C41.266 14.3771 41.422 14.4291 41.422 14.4291C41.422 14.4291 41.526 14.5591 41.63 14.7152C41.76 14.8972 41.942 14.8192 42.2281 14.8192C42.5141 14.8192 42.5141 14.7152 42.7741 14.6372C43.0341 14.5591 43.0341 14.1951 43.0081 14.0391C42.9821 13.9091 42.8001 13.7791 42.8001 13.7791C42.8001 13.7791 42.6701 13.6751 42.8261 13.6491C42.9561 13.6231 43.2681 14.0911 43.3201 14.2471C43.3982 14.4291 43.4502 14.4031 43.6582 14.5591C43.8662 14.7152 44.0222 14.3511 44.0742 14.1171C44.1262 13.8831 43.9702 13.8571 43.8142 13.6751C43.6582 13.5191 43.5022 13.3891 43.3201 13.181C43.1381 12.999 43.1381 12.817 43.0861 12.661C43.0341 12.479 43.0861 12.583 43.0341 12.375C42.9821 12.1669 43.0861 11.9329 43.1121 11.8029C43.1381 11.6469 43.1901 11.4649 43.1121 11.4129C43.0601 11.3349 42.9561 11.4129 42.7221 11.4649C42.4881 11.5429 42.124 11.8549 42.124 11.8549C41.89 11.9849 41.916 12.375 42.072 12.453C42.2541 12.531 42.6961 12.245 42.7221 12.1929C42.7741 12.1409 42.7741 12.323 42.7741 12.323C42.7741 12.323 42.7741 12.427 42.5921 12.609C42.4101 12.791 42.2281 12.817 41.942 12.869C41.656 12.921 41.422 12.635 41.136 12.505C40.8499 12.375 40.5899 12.479 40.3299 12.661C40.0439 12.843 40.1479 13.233 40.2519 13.3891C40.3559 13.5451 40.5639 13.285 40.7719 13.181C40.9799 13.077 40.9799 13.207 40.9799 13.207C40.9799 13.207 40.8499 13.311 40.7199 13.4411C40.5899 13.5711 40.6419 13.6231 40.6679 13.7531C40.6679 13.8831 40.8239 13.7531 40.8759 13.8571C40.9279 13.9611 40.7459 14.0131 40.7459 14.0131C40.7459 14.0131 40.5379 13.9351 40.2779 13.7531C40.0439 13.5711 39.9399 13.3891 39.8099 13.259C39.7579 13.181 39.6798 13.181 39.5758 13.285ZM43.2161 13.363C43.3982 13.4151 43.5282 13.5451 43.5542 13.6231C43.5802 13.7011 43.4502 13.7531 43.3461 13.7011C43.2681 13.6751 43.0081 13.4671 43.0081 13.4671C42.9821 13.4671 43.0601 13.3891 43.0601 13.3891C43.0601 13.3891 43.0081 13.311 43.2161 13.363ZM41.37 13.363C41.474 13.311 41.578 13.363 41.578 13.363C42.046 13.4931 42.3581 13.9871 42.3581 13.9871C42.4361 14.1691 42.3321 14.2211 42.098 14.2991C41.864 14.3771 41.838 14.1951 41.708 14.0391C41.578 13.8831 41.292 13.5191 41.292 13.4931C41.318 13.4671 41.266 13.4411 41.37 13.363ZM39.9139 14.4551C40.0439 14.2731 40.1219 14.3771 40.1999 14.4551C40.2779 14.5331 40.3299 14.6372 40.3299 14.6372L40.3299 14.6892C40.3299 14.6892 40.1479 14.9232 40.0439 14.8192C40.0439 14.7932 39.7839 14.6112 39.9139 14.4551Z"   fill="#296536" >
</path>
<path d="M5.12219 25.0898L2.41797 25.2719L2.44397 25.6359L5.1482 25.4539L5.12219 25.0898Z"   fill="#296536" >
</path>
<path d="M2.86049 26.6798L5.25269 26.3938L5.20068 26.0298L2.52246 26.3678L2.70448 27.9799L3.0165 27.9539L2.86049 26.6798Z"   fill="#296536" >
</path>
<path d="M2.70424 23.3803L3.66632 23.4063L3.64032 24.4724L3.92634 24.4984L3.97835 23.4063L4.81041 23.4323L4.75841 24.6024L5.07044 24.6284L5.12244 23.0942L2.41822 22.9902L2.36621 24.6024L2.65223 24.6284L2.70424 23.3803Z"   fill="#296536" >
</path>
<path d="M43.996 22.8343L43.164 22.8863L43.06 21.7162L42.7739 21.7682L42.9039 23.2763L45.6082 23.0423L45.4521 21.4302L45.1661 21.4562L45.2701 22.7043L44.3081 22.8083L44.204 21.7162L43.918 21.7422L43.996 22.8343Z"   fill="#296536" >
</path>
<path d="M5.1482 22.5482L4.0301 22.4442L4.10811 21.5341L5.2262 21.6381L5.27821 21.2741L2.57398 21.04L2.54798 21.4041L3.79608 21.5081L3.71808 22.4181L2.46997 22.3141L2.41797 22.6782L5.12219 22.9122L5.1482 22.5482Z"   fill="#296536" >
</path>
<path d="M21.7121 42.7688C21.5041 42.7428 21.3221 42.7688 21.1401 42.8988C21.0101 42.9768 20.9321 43.1069 20.88 43.2629C20.88 43.3409 20.88 43.3929 20.854 43.4709C20.854 43.4969 20.854 43.4969 20.828 43.5229C20.828 43.6269 20.88 43.7309 20.9321 43.8349C21.0361 43.9649 21.1921 44.0949 21.4261 44.2249C21.6081 44.329 21.7121 44.433 21.7901 44.537C21.8681 44.641 21.8941 44.745 21.8941 44.849C21.8941 44.979 21.8161 45.083 21.7381 45.161C21.6601 45.239 21.5041 45.265 21.3481 45.239C21.2181 45.213 21.1141 45.161 21.0361 45.057C20.9581 44.953 20.9321 44.823 20.9581 44.667L20.9581 44.589L20.594 44.537L20.568 44.641C20.542 44.849 20.594 45.057 20.724 45.213C20.854 45.395 21.0361 45.4731 21.2961 45.5251C21.5561 45.5511 21.7641 45.5251 21.9461 45.395C22.1282 45.265 22.2062 45.109 22.2582 44.849C22.2842 44.667 22.2322 44.511 22.1282 44.381C22.0241 44.2249 21.8681 44.0949 21.6341 43.9649C21.4001 43.8349 21.2701 43.7309 21.2181 43.6529C21.1661 43.5749 21.1401 43.4969 21.1661 43.3929C21.1921 43.2889 21.2441 43.1849 21.3221 43.1329C21.4001 43.0809 21.5041 43.0548 21.6341 43.0809C21.7641 43.1069 21.8681 43.1589 21.9201 43.2629C21.9721 43.3669 21.9981 43.4709 21.9721 43.6009L22.3362 43.6529C22.3622 43.4709 22.3362 43.2889 22.2322 43.1069C22.1802 42.9248 21.9721 42.8208 21.7121 42.7688Z"   fill="#296536" >
</path>
<path d="M34.7129 39.5982L36.325 41.8083L36.611 41.6003L35.0249 39.3901L34.7129 39.5982Z"   fill="#296536" >
</path>
<path d="M34.0633 40.0722L34.6353 41.0602L33.8553 41.5023L33.2832 40.5142L32.9712 40.6962L34.3233 43.0364L34.6353 42.8544L34.0113 41.7623L34.7913 41.3203L35.4154 42.4123L35.7274 42.2303L34.3753 39.8901L34.0633 40.0722Z"   fill="#296536" >
</path>
<path d="M36.3512 38.3298L37.6253 39.812L35.6752 38.9019L35.3892 39.1619L37.1573 41.2161L37.4433 40.9821L36.1432 39.4739L36.1692 39.4739L38.0934 40.384L38.4054 40.124L36.6373 38.0698L36.3512 38.3298Z"   fill="#296536" >
</path>
<path d="M33.3865 42.3045C33.5165 42.5906 33.5685 42.7986 33.5425 42.9546C33.4905 43.0846 33.4385 43.1886 33.3345 43.2406C33.1785 43.3186 33.0485 43.2926 32.8925 43.1886C32.7365 43.0846 32.5805 42.8766 32.4244 42.5126C32.2424 42.1485 32.1644 41.8625 32.1904 41.6545C32.2164 41.4465 32.2944 41.3165 32.4504 41.2384C32.5805 41.1864 32.7105 41.1864 32.8145 41.2644C32.9185 41.3425 33.0485 41.4725 33.1265 41.7065L33.4385 41.5505C33.3085 41.2645 33.1525 41.0564 32.9445 40.9784C32.7365 40.9004 32.5284 40.9004 32.3204 40.9784C32.0604 41.0824 31.9304 41.2905 31.8784 41.6025C31.8264 41.8885 31.9044 42.2525 32.1124 42.7206C32.2944 43.1366 32.5284 43.3966 32.7625 43.5006C33.0225 43.6046 33.2565 43.6046 33.4905 43.5006C33.6985 43.3966 33.8286 43.2406 33.9066 43.0326C33.9846 42.8246 33.9326 42.5126 33.7766 42.1485L33.3865 42.3045Z"   fill="#296536" >
</path>
<path d="M29.0971 42.5698C28.889 42.3878 28.655 42.3618 28.395 42.4138C28.135 42.4658 27.953 42.6218 27.849 42.8818C27.7449 43.1159 27.7449 43.4799 27.875 43.9739C28.005 44.442 28.161 44.78 28.369 44.962C28.577 45.144 28.811 45.196 29.0711 45.118C29.3311 45.04 29.5131 44.884 29.6171 44.65C29.7211 44.39 29.6951 44.0259 29.5911 43.5579C29.4611 43.0639 29.3051 42.7518 29.0971 42.5698ZM29.2791 44.52C29.2271 44.676 29.1231 44.78 28.993 44.806C28.863 44.832 28.733 44.806 28.603 44.676C28.473 44.572 28.343 44.2859 28.239 43.8699C28.135 43.4279 28.109 43.1419 28.187 42.9858C28.239 42.8298 28.343 42.7258 28.473 42.6998C28.603 42.6738 28.733 42.6998 28.863 42.8038C28.993 42.9078 29.0971 43.1939 29.2011 43.6099C29.3051 44.0779 29.3311 44.364 29.2791 44.52Z"   fill="#296536" >
</path>
<path d="M26.6259 42.7722L26.2359 43.9943L26.2099 43.9943L25.5078 42.9282L25.4298 42.9542L25.4298 43.2143L25.2998 43.2143L26.0799 44.3584L26.2619 45.5544L26.6259 45.5284L26.4439 44.3063L26.9899 42.7202L26.6259 42.7722Z"   fill="#296536" >
</path>
<path d="M25.4301 42.9519L25.4301 42.8999L23.792 42.9519L23.818 43.2639L24.442 43.2379L24.5201 45.6561L24.8841 45.6301L24.8061 43.2379L25.3001 43.2119L25.1441 42.9779L25.4301 42.9519Z"   fill="#296536" >
</path>
<path d="M22.8262 45.6201L23.19 45.6323L23.2802 42.9297L22.9164 42.9175L22.8262 45.6201Z"   fill="#296536" >
</path>
<path d="M30.9161 42.9321L29.98 43.2441L29.694 42.412L30.9161 41.996L30.8121 41.71L29.252 42.256L30.136 44.8042L30.4741 44.7002L30.084 43.5301L31.0201 43.2181L30.9161 42.9321Z"   fill="#296536" >
</path>
<path d="M37.8851 36.8701L36.793 37.9362L38.6651 39.8864L39.8352 38.7683L39.6272 38.5603L38.7171 39.4183L38.0411 38.7163L38.8211 37.9622L38.6131 37.7542L37.8331 38.5083L37.261 37.9102L38.0931 37.1041L37.8851 36.8701Z"   fill="#296536" >
</path>
<path d="M43.4763 29.6152C43.0082 29.4592 42.6702 29.4332 42.4102 29.5632C42.1502 29.6672 41.9682 29.9273 41.8381 30.2913L41.6821 30.8113L44.2563 31.6434L44.4123 31.1234C44.5164 30.7853 44.5164 30.4993 44.3864 30.2393C44.2303 29.9793 43.9183 29.7712 43.4763 29.6152ZM44.1003 31.0194L44.0483 31.2014L42.0462 30.5513L42.0982 30.3953C42.1762 30.1613 42.3062 30.0053 42.5142 29.9273C42.6962 29.8492 42.9822 29.8752 43.3463 30.0053C43.7103 30.1353 43.9703 30.2653 44.0483 30.4473C44.1783 30.5773 44.1783 30.7853 44.1003 31.0194Z"   fill="#296536" >
</path>
<path d="M42.3062 28.8342L44.9324 29.4323L45.0104 29.0683L42.3842 28.4702L42.3062 28.8342Z"   fill="#296536" >
</path>
<path d="M40.3291 36.9761C40.1991 36.8721 40.043 36.8201 39.861 36.8201C39.679 36.8201 39.471 36.8981 39.237 37.0021C39.0029 37.1321 38.8469 37.1841 38.7689 37.1841C38.6909 37.1841 38.5869 37.1581 38.5349 37.1061C38.4569 37.0281 38.4049 36.9501 38.4049 36.8461C38.4049 36.7421 38.4309 36.6641 38.5089 36.5601C38.5869 36.4561 38.6909 36.4041 38.8209 36.4041C38.9249 36.4041 39.0289 36.4561 39.133 36.5341L39.367 36.2481C39.211 36.118 39.055 36.066 38.8469 36.04C38.6389 36.04 38.4569 36.118 38.2749 36.3261C38.1449 36.4821 38.0669 36.6641 38.0929 36.8721C38.0929 36.9241 38.1189 37.0021 38.1189 37.0541C38.1709 37.1841 38.2229 37.2881 38.3529 37.3922C38.4829 37.4962 38.6129 37.5482 38.7689 37.5222C38.9249 37.5222 39.133 37.4442 39.367 37.3141C39.549 37.2361 39.705 37.1841 39.809 37.1581C39.939 37.1581 40.043 37.1581 40.121 37.2361C40.2251 37.3141 40.2771 37.4181 40.3031 37.5482C40.3291 37.6522 40.2771 37.7822 40.173 37.9122C40.095 38.0162 39.991 38.0682 39.861 38.0942C39.731 38.1202 39.601 38.0682 39.497 37.9642L39.419 37.9122L39.185 38.1982L39.263 38.2762C39.445 38.4062 39.627 38.4842 39.835 38.4582C40.043 38.4322 40.2251 38.3282 40.4071 38.1202C40.5891 37.9122 40.6671 37.7042 40.6411 37.4962C40.5891 37.3141 40.5111 37.1321 40.3291 36.9761Z"   fill="#296536" >
</path>
<path d="M42.7998 25.8738L45.504 26.0558L45.53 25.6918L42.8258 25.5098L42.7998 25.8738Z"   fill="#296536" >
</path>
<path d="M44.4379 26.5257L44.3859 26.8898C44.6979 26.9418 44.906 27.0198 44.984 27.1498C45.062 27.2538 45.114 27.3838 45.088 27.4878C45.062 27.6438 44.958 27.7478 44.8019 27.8258C44.6459 27.9038 44.3599 27.9038 43.9959 27.8258C43.5799 27.7478 43.3198 27.6438 43.1638 27.5398C43.0078 27.4098 42.9558 27.2538 42.9818 27.0978C43.0078 26.9418 43.0858 26.8377 43.2158 26.8117C43.3458 26.7597 43.5278 26.7597 43.7619 26.7857L43.8139 26.4477C43.5018 26.3697 43.2418 26.4217 43.0598 26.5257C42.8518 26.6557 42.7478 26.8117 42.6958 27.0458C42.6438 27.3058 42.7218 27.5658 42.9298 27.7738C43.1378 27.9818 43.4758 28.1379 43.9699 28.2159C44.4119 28.2939 44.7499 28.2679 44.984 28.1379C45.218 28.0078 45.348 27.7998 45.4 27.5398C45.426 27.3318 45.4 27.1238 45.244 26.9418C45.088 26.7337 44.828 26.6037 44.4379 26.5257Z"   fill="#296536" >
</path>
<path d="M43.3714 32.914L42.4874 32.524L42.9294 31.5359L42.6434 31.4059L42.2014 32.394L41.4473 32.056L41.9153 30.9899L41.6553 30.8599L41.0312 32.264L43.5015 33.3821L44.1515 31.9L43.8915 31.7699L43.3714 32.914Z"   fill="#296536" >
</path>
<path d="M41.0571 36.7704L40.277 36.2243L40.9011 35.3403L40.6411 35.1582L40.017 36.0423L39.341 35.5743L40.017 34.6122L39.757 34.4302L38.8989 35.6783L41.1091 37.2384L42.0192 35.9123L41.7852 35.7563L41.0571 36.7704Z"   fill="#296536" >
</path>
<path d="M45.634 23.7619L45.66 23.3458L42.9558 23.3198L42.9298 23.6839L44.88 23.7099L44.88 23.7359L42.9298 24.5679L42.9038 24.958L45.608 25.01L45.634 24.6459L43.6579 24.5939L45.634 23.7619Z"   fill="#296536" >
</path>
<path d="M40.7981 32.7321L42.2022 33.9022L42.1762 33.9282L40.4601 33.3561L40.2261 33.7982L42.5923 35.0983L42.7483 34.8382L41.0581 33.9022L41.0581 33.8762L42.9303 34.4742L43.0603 34.2402L41.5522 32.9921L41.5782 32.9401L43.2683 33.8762L43.3983 33.6161L41.0321 32.29L40.7981 32.7321Z"   fill="#296536" >
</path>
<path d="M8.81458 35.1802L6.11035 36.1163L6.31837 36.4283L7.12443 36.1163L7.54047 36.7143L6.96842 37.3644L7.17644 37.6764L8.97059 35.4402L8.81458 35.1802ZM7.74849 36.4543L7.43646 36.0122L8.37254 35.6742L8.37254 35.7002L7.74849 36.4543Z"   fill="#296536" >
</path>
<path d="M10.2188 36.9783L8.71064 38.2264L9.64671 36.3023L9.41269 35.9902L7.33252 37.7324L7.56654 38.0184L9.04866 36.7443L9.07467 36.7703L8.13859 38.6945L8.37261 39.0065L10.4528 37.2383L10.2188 36.9783Z"   fill="#296536" >
</path>
<path d="M7.87864 33.9102L5.56445 35.3403L5.77247 35.6523L8.06066 34.2222L7.87864 33.9102Z"   fill="#296536" >
</path>
<path d="M10.7131 38.796L10.9732 39.0301C11.1812 38.822 11.2852 38.614 11.3112 38.38C11.3372 38.146 11.2592 37.964 11.0772 37.782C10.8692 37.5999 10.6351 37.5219 10.3491 37.5999C10.0631 37.678 9.75106 37.86 9.41303 38.224C9.101 38.562 8.91899 38.848 8.91899 39.1081C8.89299 39.3681 8.97099 39.5761 9.12701 39.7321C9.20501 39.8101 9.28302 39.8621 9.38703 39.8881C9.46503 39.9141 9.56904 39.9141 9.64705 39.9141L9.54304 40.0962L9.72506 40.2782L10.6871 39.2901L10.1151 38.718L9.90707 38.9261L10.2451 39.2641L10.1151 39.3941C9.95907 39.5501 9.82907 39.6281 9.69905 39.6541C9.56904 39.6541 9.46503 39.6281 9.36103 39.5241C9.25702 39.4461 9.23101 39.2901 9.25702 39.1081C9.28302 38.9261 9.43903 38.692 9.69905 38.406C9.98508 38.12 10.2191 37.938 10.4011 37.86C10.5831 37.782 10.7391 37.834 10.8692 37.938C10.9732 38.042 10.9992 38.146 10.9732 38.276C10.9732 38.484 10.8692 38.64 10.7131 38.796Z"   fill="#296536" >
</path>
<path d="M12.3508 41.316L13.4689 39.7559L13.1829 39.5479L12.0648 41.108C11.9608 41.264 11.8568 41.342 11.7268 41.342C11.6228 41.368 11.4927 41.342 11.3887 41.264C11.2847 41.186 11.2067 41.082 11.2067 40.978C11.1807 40.848 11.2327 40.718 11.3367 40.588L12.4548 39.0278L12.1688 38.8198L11.0507 40.354C10.8947 40.562 10.8427 40.77 10.8687 40.952C10.8947 41.16 11.0247 41.342 11.2327 41.498C11.4667 41.6801 11.6748 41.7321 11.8828 41.6801C12.0388 41.6281 12.2208 41.498 12.3508 41.316Z"   fill="#296536" >
</path>
<path d="M6.16249 30.2621L4.31633 30.8602L4.29033 30.8342L5.90246 29.4041L5.77245 29.04L3.19824 29.8721L3.30225 30.2101L5.1744 29.6121L3.58827 31.0682L3.71829 31.4322L6.26649 30.6002L6.16249 30.2621Z"   fill="#296536" >
</path>
<path d="M5.33027 31.9019L5.07025 32.0319L5.27827 32.4739L5.12225 32.5519C4.94024 32.6299 4.78423 32.6559 4.65422 32.6299C4.52421 32.6039 4.4462 32.5259 4.39419 32.3959C4.34219 32.2659 4.34219 32.1359 4.4462 31.9799C4.5242 31.8239 4.75822 31.6679 5.12225 31.5118C5.48628 31.3558 5.77231 31.2518 5.98033 31.2778C6.16234 31.2778 6.29235 31.3558 6.37036 31.5118C6.42236 31.6419 6.42236 31.7459 6.34436 31.8759C6.26635 31.9799 6.13634 32.0839 5.92832 32.1879L6.08434 32.4999C6.34436 32.3959 6.52637 32.2399 6.63038 32.0319C6.73439 31.8239 6.73439 31.6159 6.63038 31.4078C6.52637 31.1478 6.31835 31.0178 6.03233 30.9658C5.74631 30.9138 5.38228 30.9918 4.91424 31.1998C4.4982 31.3818 4.23818 31.5898 4.10817 31.8499C3.97816 32.0839 3.97816 32.3179 4.05617 32.5259C4.10817 32.6299 4.16018 32.7079 4.23818 32.7599C4.31619 32.838 4.39419 32.864 4.4722 32.864L4.29019 32.994L4.39419 33.254L5.6683 32.6819L5.33027 31.9019Z"   fill="#296536" >
</path>
<path d="M7.59278 33.4661L7.43677 33.1281L5.82463 33.9601C5.61662 34.0641 5.48661 34.0901 5.3566 34.0641C5.25259 34.0381 5.14858 33.9601 5.09658 33.8301C5.04457 33.7261 5.04457 33.6221 5.07057 33.5181C5.09658 33.4141 5.20058 33.3101 5.3826 33.2321L5.56461 33.1281L5.4086 32.79L5.25259 32.868C4.96656 33.0241 4.81055 33.1801 4.73254 33.3881C4.68054 33.5961 4.70654 33.7781 4.81055 33.9861C4.91456 34.1942 5.07057 34.3502 5.25259 34.4022C5.46061 34.4542 5.69463 34.4282 5.98065 34.2722L7.59278 33.4661Z"   fill="#296536" >
</path>
<path d="M20.8796 43.2682C20.8796 43.0862 20.8276 42.9562 20.7496 42.8522C20.6196 42.6962 20.4376 42.5922 20.1776 42.5662L19.3975 42.4102L18.8774 45.0624L19.2415 45.1404L19.4755 43.9963L19.8915 44.0743L20.2036 45.3224L20.5676 45.4004L20.2036 44.1003C20.3336 44.1003 20.4636 44.0483 20.5936 43.9443C20.6976 43.8663 20.7756 43.7103 20.8276 43.5282L20.8276 43.3982C20.8536 43.3722 20.8536 43.3202 20.8796 43.2682ZM20.4896 43.4242C20.4636 43.6063 20.3856 43.7103 20.2816 43.7623C20.1776 43.8143 20.0475 43.8143 19.9435 43.7883L19.5015 43.6843L19.6835 42.7742L20.0215 42.8522C20.2036 42.8782 20.3596 42.9562 20.4116 43.0602C20.4896 43.1382 20.5156 43.2682 20.4896 43.4242Z"   fill="#296536" >
</path>
<path d="M14.639 40.4818L13.5729 42.12L13.911 39.9878L13.5729 39.7798L12.0908 42.042L12.4028 42.25L13.4689 40.6119L13.4949 40.6119L13.1569 42.744L13.4689 42.952L14.9511 40.6899L14.639 40.4818Z"   fill="#296536" >
</path>
<path d="M18.8256 43.7081L18.9036 43.4221L17.8636 43.11L18.0976 42.304L19.2157 42.642L19.2937 42.356L17.8376 41.9399L17.0835 44.5402L18.6436 44.9822L18.7216 44.6962L17.5255 44.3321L17.7856 43.4221L18.8256 43.7081Z"   fill="#296536" >
</path>
<path d="M17.3436 41.7322L16.0435 43.4483L16.2775 41.3162L15.9395 41.1602L15.6274 43.9944L15.9395 44.1244L17.6816 41.8622L17.3436 41.7322Z"   fill="#296536" >
</path>
<path d="M15.3674 40.8501L14.0933 43.2423L14.4313 43.3983L15.7054 41.0061L15.3674 40.8501Z"   fill="#296536" >
</path>
<path d="M4.44643 29.3802C4.94047 29.2762 5.2525 29.1202 5.43452 28.9122C5.61653 28.7041 5.66853 28.4701 5.59053 28.2101C5.53852 27.9501 5.38251 27.7681 5.14849 27.6381C4.91447 27.5341 4.55044 27.5341 4.0564 27.6381C3.56236 27.7421 3.25033 27.8981 3.06832 28.1061C2.8863 28.3141 2.8343 28.5481 2.8863 28.8082C2.9383 29.0682 3.09432 29.2502 3.35434 29.3542C3.58836 29.4842 3.95239 29.4842 4.44643 29.3802ZM3.19833 28.7822C3.17233 28.6521 3.19833 28.5221 3.32834 28.3921C3.43235 28.2621 3.71837 28.1581 4.16041 28.0541C4.60245 27.9501 4.88847 27.9501 5.04448 28.0021C5.2005 28.0801 5.3045 28.1841 5.33051 28.3141C5.35651 28.4441 5.33051 28.5741 5.2005 28.7041C5.09649 28.8342 4.81046 28.9382 4.39443 29.0422C3.95239 29.1462 3.66637 29.1462 3.51035 29.0942C3.30234 28.9902 3.22433 28.9122 3.19833 28.7822Z"   fill="#296536" >
</path>
<path d="M5.04458 17.1899C4.73255 17.1899 4.49854 17.45 4.49854 17.736C4.49854 18.048 4.75856 18.282 5.04458 18.282C5.35661 18.282 5.59063 18.022 5.59063 17.736C5.61663 17.45 5.35661 17.1899 5.04458 17.1899Z"   fill="#296536" >
</path>
<path d="M43.5022 17.756C43.5022 17.444 43.2422 17.21 42.9562 17.21C42.6442 17.21 42.4102 17.47 42.4102 17.756C42.4102 18.068 42.6702 18.3021 42.9562 18.3021C43.2682 18.3021 43.5022 18.042 43.5022 17.756Z"   fill="#296536" >
</path>
<path d="M17.0053 36.1422L23.9999 40.1985L30.9944 36.1422L37.989 32.0858L37.989 23.9992L37.989 15.9125L30.9944 11.8561L23.9999 7.7998L17.0053 11.8561L10.0107 15.9125L10.0107 23.9992L10.0107 32.0858L17.0053 36.1422ZM17.3694 16.5105L19.8396 21.3209L22.0497 16.5625L22.0237 16.5105L22.0757 16.5105L25.43 16.5105L25.924 15.3664L18.0194 15.3664L18.0194 13.4163L28.9403 13.4163L28.9403 15.6265L27.4061 19.5528L25.846 16.5365L28.2902 21.3209L30.5264 16.5105L34.3227 16.5105L30.0064 24.7792L30.0064 30.7337L26.5741 30.7337L26.5741 24.7792L25.872 23.4791L22.4137 32.3458L30.7084 32.3458L30.7084 33.984L18.7475 33.984L18.7475 32.0338L19.2935 30.7337L18.0974 30.7337L18.0974 24.7792L13.547 16.5105L17.3694 16.5105Z"   fill="#296536" >
</path>
<path d="M23.9999 20.1001L21.5557 24.7805L21.5557 25.5345L23.3758 21.2962L23.9999 20.1001Z"   fill="#296536" >
</path>
<path d="M24 0C10.7389 0 0 10.7389 0 24C0 37.2611 10.7389 48 24 48C37.2611 48 48 37.2611 48 24C48 10.7389 37.2611 0 24 0ZM24 47.4279C11.0769 47.4279 0.598051 36.9491 0.598051 24.026C0.598051 11.1029 11.0769 0.624052 24 0.624052C36.9231 0.624052 47.4019 11.1029 47.4019 24.026C47.4019 36.9491 36.9231 47.4279 24 47.4279Z"   fill="#296536" >
</path>
<path d="M24.0001 41.161C33.4649 41.161 41.1356 33.4903 41.1356 24.0255C41.1356 14.5608 33.4649 6.89014 24.0001 6.89014C14.5354 6.89014 6.86475 14.5608 6.86475 24.0255C6.86475 33.4643 14.5354 41.161 24.0001 41.161ZM24.0001 7.30617C33.2309 7.30617 40.7195 14.7948 40.7195 24.0255C40.7195 33.2563 33.2309 40.7449 24.0001 40.7449C14.7694 40.7449 7.28078 33.2563 7.28078 24.0255C7.28078 14.7688 14.7694 7.30617 24.0001 7.30617Z"   fill="#296536" >
</path>
</svg>
